<?xml version="1.0" encoding="UTF-8" standalone="no"?>
<svg width="57px" height="57px" viewBox="0 0 57 57" version="1.1" xmlns="http://www.w3.org/2000/svg" xmlns:xlink="http://www.w3.org/1999/xlink" xmlns:sketch="http://www.bohemiancoding.com/sketch/ns">
    <!-- Generator: Sketch 3.2.2 (9983) - http://www.bohemiancoding.com/sketch -->
    <title>31 - American Flag (Flat)</title>
    <desc>Created with Sketch.</desc>
    <defs></defs>
    <g id="Page-1" stroke="none" stroke-width="1" fill="none" fill-rule="evenodd" sketch:type="MSPage">
        <g id="31---American-Flag-(Flat)" sketch:type="MSLayerGroup">
            <path d="M40,43 L57,43 L57,46 L40,46 L40,43 Z" id="Fill-1" fill="#C03A2B" sketch:type="MSShapeGroup"></path>
            <path d="M40,40 L57,40 L57,43 L40,43 L40,40 Z" id="Fill-2" fill="#D1D4D1" sketch:type="MSShapeGroup"></path>
            <path d="M12,57 L0,57 L0,54.703 C0,54.315 0.315,54 0.703,54 L11.297,54 C11.685,54 12,54.315 12,54.703 L12,57" id="Fill-510" fill="#556080" sketch:type="MSShapeGroup"></path>
            <path d="M2,51 L10,51 L10,54 L2,54 L2,51 Z" id="Fill-511" fill="#8697CB" sketch:type="MSShapeGroup"></path>
            <path d="M7,31 C7,31.553 7.447,32 8,32 L8,30 C7.447,30 7,30.447 7,31" id="Fill-515" fill="#0096E6" sketch:type="MSShapeGroup"></path>
            <path d="M4,7 L8,7 L8,51 L4,51 L4,7 Z" id="Fill-516" fill="#556080" sketch:type="MSShapeGroup"></path>
            <path d="M8,7 L28,7 L28,25 L8,25 L8,7 Z" id="Fill-809" fill="#285680" sketch:type="MSShapeGroup"></path>
            <path d="M13.993,9.279 L14.922,11.162 L17,11.464 L15.496,12.93 L15.851,15 L13.993,14.023 L12.134,15 L12.489,12.93 L10.985,11.464 L13.063,11.162 L13.993,9.279" id="Fill-810" fill="#FFFFFF" sketch:type="MSShapeGroup"></path>
            <path d="M22.007,9 L22.937,10.883 L25.015,11.185 L23.511,12.651 L23.866,14.721 L22.007,13.743 L20.149,14.721 L20.504,12.651 L19,11.185 L21.078,10.883 L22.007,9" id="Fill-811" fill="#FFFFFF" sketch:type="MSShapeGroup"></path>
            <path d="M13.993,16.279 L14.922,18.162 L17,18.464 L15.496,19.93 L15.851,22 L13.993,21.023 L12.134,22 L12.489,19.93 L10.985,18.464 L13.063,18.162 L13.993,16.279" id="Fill-812" fill="#FFFFFF" sketch:type="MSShapeGroup"></path>
            <path d="M22.007,16 L22.937,17.883 L25.015,18.185 L23.511,19.651 L23.866,21.721 L22.007,20.743 L20.149,21.721 L20.504,19.651 L19,18.185 L21.078,17.883 L22.007,16" id="Fill-813" fill="#FFFFFF" sketch:type="MSShapeGroup"></path>
            <path d="M10,4 C10,6.209 8.209,8 6,8 C3.791,8 2,6.209 2,4 C2,1.791 3.791,0 6,0 C8.209,0 10,1.791 10,4" id="Fill-814" fill="#F0C419" sketch:type="MSShapeGroup"></path>
            <path d="M40,46 L40,40 L45,40 L40,46" id="Fill-907" fill="#701919" sketch:type="MSShapeGroup"></path>
            <path d="M28,7 L45,7 L45,10 L28,10 L28,7 Z" id="Fill-915" fill="#ECF0F1" sketch:type="MSShapeGroup"></path>
            <path d="M28,10 L45,10 L45,13 L28,13 L28,10 Z" id="Fill-916" fill="#E64C3C" sketch:type="MSShapeGroup"></path>
            <path d="M28,13 L45,13 L45,16 L28,16 L28,13 Z" id="Fill-917" fill="#ECF0F1" sketch:type="MSShapeGroup"></path>
            <path d="M28,16 L45,16 L45,19 L28,19 L28,16 Z" id="Fill-918" fill="#E64C3C" sketch:type="MSShapeGroup"></path>
            <path d="M28,19 L45,19 L45,22 L28,22 L28,19 Z" id="Fill-919" fill="#ECF0F1" sketch:type="MSShapeGroup"></path>
            <path d="M28,22 L45,22 L45,25 L28,25 L28,22 Z" id="Fill-920" fill="#E64C3C" sketch:type="MSShapeGroup"></path>
            <path d="M45,13 L57,13 L57,16 L45,16 L45,13 Z" id="Fill-921" fill="#C03A2B" sketch:type="MSShapeGroup"></path>
            <path d="M45,16 L57,16 L57,19 L45,19 L45,16 Z" id="Fill-922" fill="#D1D4D1" sketch:type="MSShapeGroup"></path>
            <path d="M45,19 L57,19 L57,22 L45,22 L45,19 Z" id="Fill-923" fill="#C03A2B" sketch:type="MSShapeGroup"></path>
            <path d="M45,22 L57,22 L57,25 L45,25 L45,22 Z" id="Fill-924" fill="#D1D4D1" sketch:type="MSShapeGroup"></path>
            <path d="M45,25 L57,25 L57,28 L45,28 L45,25 Z" id="Fill-925" fill="#C03A2B" sketch:type="MSShapeGroup"></path>
            <path d="M45,28 L57,28 L57,31 L45,31 L45,28 Z" id="Fill-926" fill="#D1D4D1" sketch:type="MSShapeGroup"></path>
            <path d="M45,31 L57,31 L57,34 L45,34 L45,31 Z" id="Fill-927" fill="#C03A2B" sketch:type="MSShapeGroup"></path>
            <path d="M45,37 L57,37 L57,40 L45,40 L45,37 Z" id="Fill-928" fill="#C03A2B" sketch:type="MSShapeGroup"></path>
            <path d="M45,34 L57,34 L57,37 L45,37 L45,34 Z" id="Fill-929" fill="#D1D4D1" sketch:type="MSShapeGroup"></path>
            <path d="M8,25 L45,25 L45,28 L8,28 L8,25 Z" id="Fill-930" fill="#ECF0F1" sketch:type="MSShapeGroup"></path>
            <path d="M8,28 L45,28 L45,31 L8,31 L8,28 Z" id="Fill-931" fill="#E64C3C" sketch:type="MSShapeGroup"></path>
            <path d="M8,31 L45,31 L45,34 L8,34 L8,31 Z" id="Fill-932" fill="#ECF0F1" sketch:type="MSShapeGroup"></path>
            <path d="M8,34 L45,34 L45,37 L8,37 L8,34 Z" id="Fill-933" fill="#E64C3C" sketch:type="MSShapeGroup"></path>
            <path d="M8,37 L45,37 L45,40 L8,40 L8,37 Z" id="Fill-934" fill="#ECF0F1" sketch:type="MSShapeGroup"></path>
        </g>
    </g>
</svg>