<?xml version="1.0" encoding="UTF-8" standalone="no"?>
<svg width="56px" height="47px" viewBox="0 0 56 47" version="1.1" xmlns="http://www.w3.org/2000/svg" xmlns:xlink="http://www.w3.org/1999/xlink" xmlns:sketch="http://www.bohemiancoding.com/sketch/ns">
    <!-- Generator: Sketch 3.2.2 (9983) - http://www.bohemiancoding.com/sketch -->
    <title>32 - American Eagel (Flat)</title>
    <desc>Created with Sketch.</desc>
    <defs></defs>
    <g id="Page-1" stroke="none" stroke-width="1" fill="none" fill-rule="evenodd" sketch:type="MSPage">
        <g id="32---American-Eagel-(Flat)" sketch:type="MSLayerGroup">
            <path d="M38.904,21.379 C36.532,21.401 34.155,21.168 31.816,20.722 C28.99,20.184 26.821,20.002 26.821,20.002 C37.733,17.254 38.405,8.697 38.405,8.697 C39.455,8.131 40.63,7.86 41.797,7.764 L41.801,7.72 C41.801,7.72 25.893,-10.388 1.001,10.272 C0.301,10.853 0.715,12 1.625,12 L8.631,12 C8.631,12 -0.91,16.636 0.071,29.12 L7.561,21.63 C7.561,21.63 8.452,44.813 22.541,46.24 C22.541,46.24 18.707,42.584 19.331,31.26 C19.331,31.26 25.483,38.839 30.031,39.82 C30.031,39.82 26.821,33.935 30.031,28.05 C30.031,28.05 35.169,23.431 38.904,21.379" id="Fill-70" fill="#ECF0F1" sketch:type="MSShapeGroup"></path>
            <path d="M44.142,20.883 C48.529,20.05 53.222,20.054 54.001,25 C54.001,25 59.366,13.172 48.453,8.697 C48.453,8.697 42.487,6.499 38.405,8.697 C38.405,8.697 37.733,17.254 26.821,20.002 C26.821,20.002 28.99,20.184 31.816,20.722 C35.885,21.497 40.072,21.656 44.142,20.883" id="Fill-512" fill="#F0C419" sketch:type="MSShapeGroup"></path>
            <path d="M33.142,10.08 C33.142,12.797 30.939,15 28.222,15 C25.505,15 23.302,12.797 23.302,10.08 C23.302,7.363 25.505,5.16 28.222,5.16 C30.939,5.16 33.142,7.363 33.142,10.08" id="Fill-513" fill="#A5A5A4" sketch:type="MSShapeGroup"></path>
            <path d="M42.142,14 C41.886,14 41.63,13.902 41.435,13.707 C41.044,13.316 41.044,12.684 41.435,12.293 L43.435,10.293 C43.825,9.902 44.458,9.902 44.849,10.293 C45.239,10.684 45.239,11.316 44.849,11.707 L42.849,13.707 C42.653,13.902 42.397,14 42.142,14" id="Fill-514" fill="#FFDA71" sketch:type="MSShapeGroup"></path>
            <path d="M32.142,10.08 C32.142,12.245 30.387,14 28.222,14 C26.057,14 24.302,12.245 24.302,10.08 C24.302,7.915 26.057,6.16 28.222,6.16 C30.387,6.16 32.142,7.915 32.142,10.08" id="Fill-905" fill="#F6EFCA" sketch:type="MSShapeGroup"></path>
            <path d="M30.84,10.08 C30.84,11.14 29.98,12 28.92,12 C27.86,12 27,11.14 27,10.08 C27,9.02 27.86,8.16 28.92,8.16 C29.98,8.16 30.84,9.02 30.84,10.08" id="Fill-906" fill="#2C2F38" sketch:type="MSShapeGroup"></path>
        </g>
    </g>
</svg>