<?xml version="1.0" encoding="UTF-8" standalone="no"?>
<svg width="58px" height="59px" viewBox="0 0 58 59" version="1.1" xmlns="http://www.w3.org/2000/svg" xmlns:xlink="http://www.w3.org/1999/xlink" xmlns:sketch="http://www.bohemiancoding.com/sketch/ns">
    <!-- Generator: Sketch 3.2.2 (9983) - http://www.bohemiancoding.com/sketch -->
    <title>34 - Barbeque (Flat)</title>
    <desc>Created with Sketch.</desc>
    <defs></defs>
    <g id="Page-1" stroke="none" stroke-width="1" fill="none" fill-rule="evenodd" sketch:type="MSPage">
        <g id="34---Barbeque-(Flat)" sketch:type="MSLayerGroup" transform="translate(0.000000, -1.000000)">
            <path d="M30.027,51.47 L29.973,49.47 C34.236,49.353 38.263,48.73 41.617,47.67 L42.221,49.576 C38.69,50.693 34.475,51.348 30.027,51.47" id="Fill-490" fill="#464F5D" sketch:type="MSShapeGroup"></path>
            <path d="M26.973,51.475 C22.499,51.351 18.281,50.698 14.774,49.587 L15.378,47.681 C18.71,48.736 22.738,49.356 27.027,49.475 L26.973,51.475" id="Fill-491" fill="#464F5D" sketch:type="MSShapeGroup"></path>
            <path d="M29,41 C28.327,41 27.66,40.962 27,40.899 L27,58.5 C27,59.325 27.675,60 28.5,60 C29.325,60 30,59.325 30,58.5 L30,40.949 C29.666,40.965 29.336,41 29,41" id="Fill-815" fill="#637184" sketch:type="MSShapeGroup"></path>
            <path d="M39.312,37.703 C38.461,38.231 37.573,38.699 36.655,39.109 L45.12,58.087 C45.442,58.846 46.327,59.204 47.087,58.881 C47.846,58.559 48.204,57.674 47.881,56.915 L39.312,37.703" id="Fill-816" fill="#637184" sketch:type="MSShapeGroup"></path>
            <path d="M17.913,37.198 L9.119,56.915 C8.796,57.674 9.154,58.559 9.913,58.881 C10.673,59.204 11.558,58.846 11.88,58.087 L20.518,38.722 C19.615,38.272 18.746,37.764 17.913,37.198" id="Fill-817" fill="#637184" sketch:type="MSShapeGroup"></path>
            <path d="M49.504,19 C50.342,19 51.005,19.716 50.942,20.551 C50.109,31.743 40.353,41 29,41 C17.647,41 7.891,31.743 7.058,20.551 C6.995,19.716 7.658,19 8.496,19 L49.504,19" id="Fill-818" fill="#464F5D" sketch:type="MSShapeGroup"></path>
            <path d="M3,15 L55,15 L55,17 L3,17 L3,15 Z" id="Fill-819" fill="#A5A5A4" sketch:type="MSShapeGroup"></path>
            <path d="M5,16 C5,17.381 3.881,18.5 2.5,18.5 C1.119,18.5 0,17.381 0,16 C0,14.619 1.119,13.5 2.5,13.5 C3.881,13.5 5,14.619 5,16" id="Fill-820" fill="#637184" sketch:type="MSShapeGroup"></path>
            <path d="M58,16 C58,17.381 56.881,18.5 55.5,18.5 C54.119,18.5 53,17.381 53,16 C53,14.619 54.119,13.5 55.5,13.5 C56.881,13.5 58,14.619 58,16" id="Fill-821" fill="#637184" sketch:type="MSShapeGroup"></path>
            <path d="M11.667,14 C11.411,14 11.155,13.902 10.96,13.707 C9.663,12.409 9.687,10.274 11.013,8.947 C11.286,8.674 11.434,8.38 11.437,8.097 C11.443,7.754 11.236,7.474 11.062,7.299 C10.671,6.908 10.671,6.275 11.062,5.885 C11.452,5.494 12.085,5.494 12.476,5.885 C13.109,6.518 13.45,7.314 13.438,8.128 C13.425,8.941 13.075,9.714 12.427,10.361 C11.881,10.908 11.856,11.775 12.374,12.293 C12.765,12.684 12.765,13.317 12.374,13.707 C12.179,13.902 11.923,14 11.667,14" id="Fill-822" fill="#D1D4D1" sketch:type="MSShapeGroup"></path>
            <path d="M47.229,14 C46.974,14 46.718,13.902 46.523,13.707 C45.225,12.409 45.248,10.274 46.575,8.947 C46.849,8.674 46.995,8.38 47,8.097 C47.005,7.754 46.798,7.474 46.623,7.299 C46.232,6.908 46.232,6.275 46.623,5.885 C47.014,5.494 47.646,5.494 48.037,5.885 C48.671,6.518 49.013,7.314 49,8.128 C48.987,8.941 48.638,9.714 47.989,10.361 C47.442,10.908 47.419,11.775 47.937,12.293 C48.327,12.684 48.327,13.316 47.937,13.707 C47.741,13.902 47.485,14 47.229,14" id="Fill-823" fill="#D1D4D1" sketch:type="MSShapeGroup"></path>
            <path d="M19.902,14 C19.646,14 19.391,13.902 19.195,13.707 C17.513,12.025 17.547,9.253 19.271,7.528 C19.739,7.06 19.992,6.539 20,6.023 C20.008,5.519 19.779,5.021 19.34,4.581 C18.949,4.19 18.949,3.558 19.34,3.167 C19.731,2.776 20.363,2.776 20.754,3.167 C21.586,3.999 22.017,4.997 22,6.056 C21.983,7.101 21.528,8.1 20.685,8.942 C19.74,9.887 19.707,11.391 20.609,12.293 C21,12.684 21,13.316 20.609,13.707 C20.414,13.902 20.158,14 19.902,14" id="Fill-824" fill="#D1D4D1" sketch:type="MSShapeGroup"></path>
            <path d="M37.95,14 C37.694,14 37.438,13.902 37.243,13.707 C35.56,12.025 35.595,9.253 37.318,7.528 C37.787,7.06 38.04,6.539 38.048,6.023 C38.056,5.519 37.827,5.021 37.388,4.581 C36.997,4.19 36.997,3.558 37.388,3.167 C37.778,2.776 38.411,2.776 38.802,3.167 C39.634,3.999 40.065,4.997 40.048,6.056 C40.031,7.101 39.576,8.1 38.732,8.942 C37.788,9.887 37.755,11.391 38.657,12.293 C39.048,12.684 39.048,13.316 38.657,13.707 C38.462,13.902 38.206,14 37.95,14" id="Fill-825" fill="#D1D4D1" sketch:type="MSShapeGroup"></path>
            <path d="M28.381,14 C28.125,14 27.869,13.902 27.674,13.707 C25.701,11.734 25.701,8.523 27.674,6.551 C28.877,5.347 28.877,3.91 27.674,2.707 C27.283,2.316 27.283,1.684 27.674,1.293 C28.065,0.902 28.697,0.902 29.088,1.293 C31.052,3.257 31.052,6 29.088,7.965 C28.51,8.544 28.19,9.312 28.19,10.129 C28.19,10.945 28.51,11.714 29.088,12.293 C29.479,12.684 29.479,13.316 29.088,13.707 C28.893,13.902 28.637,14 28.381,14" id="Fill-826" fill="#D1D4D1" sketch:type="MSShapeGroup"></path>
            <path d="M17.964,19 L8.496,19 C7.658,19 6.995,19.716 7.058,20.551 C7.891,31.743 17.646,41 29,41 C31.767,41 34.436,40.442 36.907,39.448 C21.87,37.713 17.927,28.377 17.964,19" id="Fill-903" fill="#3D324C" sketch:type="MSShapeGroup"></path>
            <path d="M45.033,21 L48.476,21 C48.78,21 49.021,21.26 48.999,21.564 C48.695,25.634 46.624,31.023 43,33 C42.141,33.469 40.359,34.141 39,34 C44.468,33.369 45.046,24.41 45.033,21" id="Fill-904" fill="#556080" sketch:type="MSShapeGroup"></path>
        </g>
    </g>
</svg>