<?xml version="1.0" encoding="UTF-8" standalone="no"?>
<svg width="58px" height="54px" viewBox="0 0 58 54" version="1.1" xmlns="http://www.w3.org/2000/svg" xmlns:xlink="http://www.w3.org/1999/xlink" xmlns:sketch="http://www.bohemiancoding.com/sketch/ns">
    <!-- Generator: Sketch 3.2.2 (9983) - http://www.bohemiancoding.com/sketch -->
    <title>45 - Beer Keg (Flat)</title>
    <desc>Created with Sketch.</desc>
    <defs></defs>
    <g id="Page-1" stroke="none" stroke-width="1" fill="none" fill-rule="evenodd" sketch:type="MSPage">
        <g id="45---Beer-Keg-(Flat)" sketch:type="MSLayerGroup">
            <path d="M54,8.899 L53.382,8.605 C48.015,6.049 41.418,4.573 34.618,4.145 L34,6 L30,6 L29.342,4.027 C21.515,4.165 13.762,5.679 7.618,8.605 C7.453,8.683 7.321,8.805 7.217,8.946 C9.325,9.429 11,16.822 11,25.899 C11,34.976 9.325,42.37 7.217,42.853 C7.321,42.994 7.453,43.115 7.618,43.194 C20.512,49.334 40.488,49.334 53.382,43.194 L54,42.899 C55.562,41.337 58,35.288 58,25.899 C58,16.51 55.656,10.556 54,8.899" id="Fill-79" fill="#AF714F" sketch:type="MSShapeGroup"></path>
            <path d="M17.545,46.456 C18.784,46.721 20.037,46.96 21.317,47.146 C22.934,42.577 24,34.769 24,25.899 C24,17.03 22.934,9.221 21.317,4.653 C20.037,4.839 18.784,5.078 17.545,5.343 C19.033,9.982 20,17.456 20,25.899 C20,34.343 19.033,41.816 17.545,46.456" id="Fill-425" fill="#805333" sketch:type="MSShapeGroup"></path>
            <path d="M44.631,46.19 C46.13,45.835 47.584,45.419 48.988,44.944 C50.222,40.274 51,33.474 51,25.899 C51,18.325 50.222,11.525 48.988,6.854 C47.584,6.379 46.13,5.964 44.631,5.608 C46.07,10.265 47,17.618 47,25.899 C47,34.181 46.07,41.534 44.631,46.19" id="Fill-426" fill="#805333" sketch:type="MSShapeGroup"></path>
            <path d="M34,41 L28,41 C27.447,41 27,40.553 27,40 C27,39.447 27.447,39 28,39 L34,39 C34.553,39 35,39.447 35,40 C35,40.553 34.553,41 34,41" id="Fill-427" fill="#805333" sketch:type="MSShapeGroup"></path>
            <path d="M40,39 L36,39 C35.447,39 35,38.553 35,38 C35,37.447 35.447,37 36,37 L40,37 C40.553,37 41,37.447 41,38 C41,38.553 40.553,39 40,39" id="Fill-428" fill="#805333" sketch:type="MSShapeGroup"></path>
            <path d="M36,44 L31,44 C30.447,44 30,43.553 30,43 C30,42.447 30.447,42 31,42 L36,42 C36.553,42 37,42.447 37,43 C37,43.553 36.553,44 36,44" id="Fill-429" fill="#805333" sketch:type="MSShapeGroup"></path>
            <path d="M40,42 L39,42 C38.447,42 38,41.553 38,41 C38,40.447 38.447,40 39,40 L40,40 C40.553,40 41,40.447 41,41 C41,41.553 40.553,42 40,42" id="Fill-430" fill="#805333" sketch:type="MSShapeGroup"></path>
            <path d="M33,10.899 L28,10.899 C27.447,10.899 27,10.452 27,9.899 C27,9.347 27.447,8.899 28,8.899 L33,8.899 C33.553,8.899 34,9.347 34,9.899 C34,10.452 33.553,10.899 33,10.899" id="Fill-431" fill="#805333" sketch:type="MSShapeGroup"></path>
            <path d="M42,10.899 L37,10.899 C36.447,10.899 36,10.452 36,9.899 C36,9.347 36.447,8.899 37,8.899 L42,8.899 C42.553,8.899 43,9.347 43,9.899 C43,10.452 42.553,10.899 42,10.899" id="Fill-432" fill="#805333" sketch:type="MSShapeGroup"></path>
            <path d="M29,14.899 L27,14.899 C26.447,14.899 26,14.452 26,13.899 C26,13.347 26.447,12.899 27,12.899 L29,12.899 C29.553,12.899 30,13.347 30,13.899 C30,14.452 29.553,14.899 29,14.899" id="Fill-433" fill="#805333" sketch:type="MSShapeGroup"></path>
            <path d="M42,14.899 L33,14.899 C32.447,14.899 32,14.452 32,13.899 C32,13.347 32.447,12.899 33,12.899 L42,12.899 C42.553,12.899 43,13.347 43,13.899 C43,14.452 42.553,14.899 42,14.899" id="Fill-434" fill="#805333" sketch:type="MSShapeGroup"></path>
            <path d="M34,37 L30,37 C29.447,37 29,36.553 29,36 C29,35.447 29.447,35 30,35 L34,35 C34.553,35 35,35.447 35,36 C35,36.553 34.553,37 34,37" id="Fill-435" fill="#805333" sketch:type="MSShapeGroup"></path>
            <path d="M34,18.899 L30,18.899 C29.447,18.899 29,18.452 29,17.899 C29,17.347 29.447,16.899 30,16.899 L34,16.899 C34.553,16.899 35,17.347 35,17.899 C35,18.452 34.553,18.899 34,18.899" id="Fill-436" fill="#805333" sketch:type="MSShapeGroup"></path>
            <path d="M34,6 L30,6 L28,0 L36,0 L34,6" id="Fill-437" fill="#805333" sketch:type="MSShapeGroup"></path>
            <path d="M7,24 L2.905,24 C1.3,24 0,25.3 0,26.905 L0,32 L4,32 L4,29.632 C4,28.731 4.731,28 5.632,28 L7,28 L7,24" id="Fill-438" fill="#AF714F" sketch:type="MSShapeGroup"></path>
            <path d="M7,8.899 C4.942,8.899 3.249,15.506 3.026,24 L7,24 L7,28 L5.632,28 C4.731,28 4,28.731 4,29.632 L4,32 L3.27,32 C3.847,38.371 5.298,42.899 7,42.899 C9.209,42.899 11,35.288 11,25.899 C11,16.51 9.209,8.899 7,8.899" id="Fill-439" fill="#805333" sketch:type="MSShapeGroup"></path>
            <path d="M51.007,44.22 C49.847,44.679 48.634,45.081 47.392,45.451 L50.895,52.139 C51.144,52.936 51.882,53.478 52.717,53.478 C54.005,53.478 54.923,52.229 54.539,51 L51.007,44.22" id="Fill-440" fill="#805333" sketch:type="MSShapeGroup"></path>
            <path d="M40.763,46.962 L38.088,51 C37.704,52.229 38.622,53.478 39.91,53.478 C40.745,53.478 41.483,52.936 41.732,52.139 L45.032,46.1 C43.643,46.441 42.214,46.724 40.763,46.962" id="Fill-441" fill="#805333" sketch:type="MSShapeGroup"></path>
            <path d="M24.73,47.537 C23.326,47.412 21.939,47.235 20.568,47.018 L23.581,52.139 C23.83,52.936 24.568,53.478 25.403,53.478 C26.691,53.478 27.61,52.229 27.226,51 L24.73,47.537" id="Fill-442" fill="#805333" sketch:type="MSShapeGroup"></path>
            <path d="M13.896,45.534 L10.775,51 C10.39,52.229 11.309,53.478 12.597,53.478 C13.432,53.478 14.17,52.936 14.419,52.139 L17.604,46.469 C16.338,46.2 15.102,45.886 13.896,45.534" id="Fill-443" fill="#805333" sketch:type="MSShapeGroup"></path>
        </g>
    </g>
</svg>