<?xml version="1.0" encoding="UTF-8" standalone="no"?>
<svg width="43px" height="53px" viewBox="0 0 43 53" version="1.1" xmlns="http://www.w3.org/2000/svg" xmlns:xlink="http://www.w3.org/1999/xlink" xmlns:sketch="http://www.bohemiancoding.com/sketch/ns">
    <!-- Generator: Sketch 3.2.2 (9983) - http://www.bohemiancoding.com/sketch -->
    <title>41 - Beer Pint (Flat)</title>
    <desc>Created with Sketch.</desc>
    <defs></defs>
    <g id="Page-1" stroke="none" stroke-width="1" fill="none" fill-rule="evenodd" sketch:type="MSPage">
        <g id="41---Beer-Pint-(Flat)" sketch:type="MSLayerGroup">
            <path d="M36,42 L33,42 C31.896,42 31,41.104 31,40 C31,38.895 31.896,38 33,38 L36,38 C37.654,38 39,36.654 39,35 L39,25 C39,23.346 37.654,22 36,22 L33,22 C31.896,22 31,21.104 31,20 C31,18.896 31.896,18 33,18 L36,18 C39.859,18 43,21.141 43,25 L43,35 C43,38.859 39.859,42 36,42" id="Fill-47" fill="#FFB24D" sketch:type="MSShapeGroup"></path>
            <path d="M34.544,42 L33.85,38 C32.963,32.717 32.387,27.855 33.171,22 L33.626,18 L33.96,14.842 C33.826,14.888 33.688,14.925 33.548,14.95 C32.551,15.13 31.635,14.806 30.979,14.204 C30.873,15.764 29.587,17 28,17 C27.463,17 26.966,16.847 26.53,16.6 C26.175,17.16 25.632,17.577 25,17.805 L25,21.5 C25,22.325 24.325,23 23.5,23 C22.675,23 22,22.325 22,21.5 L22,20 C22,21.1 21.1,22 20,22 C18.9,22 18,21.1 18,20 L18,24 C18,25.1 17.1,26 16,26 C14.9,26 14,25.1 14,24 L14,19.214 C13.471,19.698 12.775,20 12,20 C10.689,20 9.586,19.154 9.178,17.982 C9.118,17.986 9.061,18 9,18 C8.463,18 7.966,17.847 7.53,17.6 C7.322,17.927 7.041,18.194 6.727,18.42 L7,21 C8.428,30.042 6.582,36.605 5.155,45.646 L4.309,51 C16.754,53.667 23.556,53.667 36,51 L35.155,45.646 C34.956,44.386 34.749,43.177 34.544,42" id="Fill-76" fill="#F29C1F" sketch:type="MSShapeGroup"></path>
            <path d="M35.155,45.646 C35.137,45.533 35.118,45.425 35.1,45.313 C23.748,47.562 16.562,47.562 5.209,45.313 C5.191,45.425 5.173,45.533 5.155,45.646 L4.309,51 C16.754,53.667 23.556,53.667 36,51 L35.155,45.646" id="Fill-447" fill="#804537" sketch:type="MSShapeGroup"></path>
            <path d="M37,8 C37,7.072 36.57,6.253 35.908,5.703 C36.093,4.937 36.074,4.095 35.117,3.048 C34.573,2.454 33.836,2.009 33.031,2 C32.624,1.996 32.239,2.077 31.885,2.22 C31.539,0.944 30.385,0 29,0 C27.933,0 27.002,0.561 26.47,1.4 C26.034,1.153 25.537,1 25,1 C24.463,1 23.966,1.153 23.53,1.4 C22.998,0.561 22.067,0 21,0 C19.933,0 19.002,0.561 18.47,1.4 C18.034,1.153 17.537,1 17,1 C16.463,1 15.966,1.153 15.53,1.4 C14.998,0.561 14.067,0 13,0 C12.605,0 12.23,0.078 11.886,0.219 C11.312,0.455 10.688,0.455 10.114,0.219 C9.77,0.078 9.395,0 9,0 C7.343,0 6,1.343 6,3 C6,3.065 6.015,3.126 6.019,3.19 C5.699,3.074 5.36,3 5,3 C3.343,3 2,4.343 2,6 C2,6.537 2.153,7.034 2.4,7.47 C1.561,8.002 1,8.933 1,10 C1,10.243 1.037,10.477 1.092,10.703 C0.43,11.253 0,12.072 0,13 C0,14.311 0.846,15.414 2.018,15.822 C2.014,15.882 2,15.939 2,16 C2,17.657 3.343,19 5,19 C6.067,19 6.998,18.439 7.53,17.6 C7.966,17.847 8.463,18 9,18 C9.061,18 9.118,17.986 9.178,17.982 C9.586,19.154 10.689,20 12,20 C12.775,20 13.471,19.698 14,19.214 L14,24 C14,25.1 14.9,26 16,26 C17.1,26 18,25.1 18,24 L18,20 C18,21.1 18.9,22 20,22 C21.1,22 22,21.1 22,20 L22,21.5 C22,22.325 22.675,23 23.5,23 C24.325,23 25,22.325 25,21.5 L25,17.805 C25.632,17.577 26.175,17.16 26.53,16.6 C26.966,16.847 27.463,17 28,17 C29.587,17 30.873,15.764 30.979,14.204 C31.635,14.806 32.551,15.13 33.548,14.95 C34.696,14.743 35.639,13.829 35.915,12.695 C36.111,11.89 35.951,11.149 35.6,10.53 C36.439,9.998 37,9.067 37,8" id="Fill-448" fill="#E6E7E8" sketch:type="MSShapeGroup"></path>
            <path d="M12,40 C12,40.552 11.552,41 11,41 C10.448,41 10,40.552 10,40 C10,39.448 10.448,39 11,39 C11.552,39 12,39.448 12,40" id="Fill-449" fill="#F0C419" sketch:type="MSShapeGroup"></path>
            <path d="M14,36 C14,36.552 13.552,37 13,37 C12.448,37 12,36.552 12,36 C12,35.448 12.448,35 13,35 C13.552,35 14,35.448 14,36" id="Fill-450" fill="#F0C419" sketch:type="MSShapeGroup"></path>
            <path d="M16,42 C16,42.552 15.552,43 15,43 C14.448,43 14,42.552 14,42 C14,41.448 14.448,41 15,41 C15.552,41 16,41.448 16,42" id="Fill-451" fill="#F0C419" sketch:type="MSShapeGroup"></path>
            <path d="M30,28 C30,28.552 29.552,29 29,29 C28.448,29 28,28.552 28,28 C28,27.448 28.448,27 29,27 C29.552,27 30,27.448 30,28" id="Fill-452" fill="#F0C419" sketch:type="MSShapeGroup"></path>
            <path d="M27,31 C27,31.552 26.552,32 26,32 C25.448,32 25,31.552 25,31 C25,30.448 25.448,30 26,30 C26.552,30 27,30.448 27,31" id="Fill-453" fill="#F0C419" sketch:type="MSShapeGroup"></path>
            <path d="M13,29 C13,29.552 12.552,30 12,30 C11.448,30 11,29.552 11,29 C11,28.448 11.448,28 12,28 C12.552,28 13,28.448 13,29" id="Fill-454" fill="#F0C419" sketch:type="MSShapeGroup"></path>
            <path d="M26,42 C26,42.552 25.552,43 25,43 C24.448,43 24,42.552 24,42 C24,41.448 24.448,41 25,41 C25.552,41 26,41.448 26,42" id="Fill-455" fill="#F0C419" sketch:type="MSShapeGroup"></path>
            <path d="M30,34 C30,34.552 29.552,35 29,35 C28.448,35 28,34.552 28,34 C28,33.448 28.448,33 29,33 C29.552,33 30,33.448 30,34" id="Fill-456" fill="#F0C419" sketch:type="MSShapeGroup"></path>
        </g>
    </g>
</svg>