<?xml version="1.0" encoding="UTF-8" standalone="no"?>
<svg width="56px" height="57px" viewBox="0 0 56 57" version="1.1" xmlns="http://www.w3.org/2000/svg" xmlns:xlink="http://www.w3.org/1999/xlink" xmlns:sketch="http://www.bohemiancoding.com/sketch/ns">
    <!-- Generator: Sketch 3.2.2 (9983) - http://www.bohemiancoding.com/sketch -->
    <title>29 - Broom (Flat)</title>
    <desc>Created with Sketch.</desc>
    <defs></defs>
    <g id="Page-1" stroke="none" stroke-width="1" fill="none" fill-rule="evenodd" sketch:type="MSPage">
        <g id="29---Broom-(Flat)" sketch:type="MSLayerGroup">
            <path d="M28.178,36.279 L55.237,3.416 C55.934,2.559 55.805,1.3 54.948,0.603 C54.091,-0.095 52.831,0.035 52.134,0.891 L25.075,33.754 C26.328,34.28 27.408,35.159 28.178,36.279" id="Fill-259" fill="#805333" sketch:type="MSShapeGroup"></path>
            <path d="M25.29,48.984 C26.368,46.847 26.963,43.646 27.112,40.33 L21.794,42.146 C21.174,42.358 20.547,41.847 20.628,41.197 L21.334,35.55 C18.525,36.187 11.275,38.634 7.165,47.388 C5.612,50.696 3.472,53.695 0.695,56.07 C0.695,56.07 0.327,58.158 15.245,52.821 C15.653,52.675 16.02,53.123 15.796,53.494 L15.312,54.79 C14.912,55.861 15.977,56.896 17.037,56.466 C20.585,55.024 23.563,52.403 25.29,48.984" id="Fill-260" fill="#F0C419" sketch:type="MSShapeGroup"></path>
            <path d="M20.628,41.197 L21.623,33.243 C25.508,32.844 28.98,35.67 29.379,39.555 L21.794,42.146 C21.174,42.358 20.547,41.847 20.628,41.197" id="Fill-836" fill="#CB8252" sketch:type="MSShapeGroup"></path>
        </g>
    </g>
</svg>