<?xml version="1.0" encoding="UTF-8" standalone="no"?>
<svg width="52px" height="58px" viewBox="0 0 52 58" version="1.1" xmlns="http://www.w3.org/2000/svg" xmlns:xlink="http://www.w3.org/1999/xlink" xmlns:sketch="http://www.bohemiancoding.com/sketch/ns">
    <!-- Generator: Sketch 3.2.2 (9983) - http://www.bohemiancoding.com/sketch -->
    <title>25 - Bubbling Cauldron (Flat)</title>
    <desc>Created with Sketch.</desc>
    <defs></defs>
    <g id="Page-1" stroke="none" stroke-width="1" fill="none" fill-rule="evenodd" sketch:type="MSPage">
        <g id="25---Bubbling-Cauldron-(Flat)" sketch:type="MSLayerGroup">
            <path d="M8.047,51.074 L5.586,53.535 C4.805,54.317 4.805,55.583 5.586,56.364 C6.367,57.145 7.633,57.145 8.414,56.364 L11.217,53.562 C10.092,52.813 9.034,51.98 8.047,51.074" id="Fill-30" fill="#616D7F" sketch:type="MSShapeGroup"></path>
            <path d="M44.445,50.617 C43.485,51.546 42.449,52.4 41.348,53.176 L44.536,56.364 C45.317,57.145 46.583,57.145 47.364,56.364 C48.145,55.583 48.145,54.317 47.364,53.535 L44.445,50.617" id="Fill-31" fill="#616D7F" sketch:type="MSShapeGroup"></path>
            <path d="M49,22 L3,22 L0.644,18.073 C0.361,17.601 0.701,17 1.251,17 L50.749,17 C51.299,17 51.64,17.601 51.356,18.073 L49,22" id="Fill-298" fill="#616D7F" sketch:type="MSShapeGroup"></path>
            <path d="M49,22 L3,22 L2.815,21.691 C1.019,25.088 0,28.928 0,33 C0,46.807 11.641,58 26,58 C40.359,58 52,46.807 52,33 C52,28.928 50.981,25.088 49.186,21.691 L49,22" id="Fill-299" fill="#464F5D" sketch:type="MSShapeGroup"></path>
            <path d="M42,3 C42,4.657 40.657,6 39,6 C37.343,6 36,4.657 36,3 C36,1.343 37.343,0 39,0 C40.657,0 42,1.343 42,3" id="Fill-300" fill="#CB8252" sketch:type="MSShapeGroup"></path>
            <path d="M11,3 C11,4.657 9.657,6 8,6 C6.343,6 5,4.657 5,3 C5,1.343 6.343,0 8,0 C9.657,0 11,1.343 11,3" id="Fill-301" fill="#E57E25" sketch:type="MSShapeGroup"></path>
            <path d="M32,7.5 C32,8.881 30.881,10 29.5,10 C28.119,10 27,8.881 27,7.5 C27,6.119 28.119,5 29.5,5 C30.881,5 32,6.119 32,7.5" id="Fill-302" fill="#E57E25" sketch:type="MSShapeGroup"></path>
            <path d="M21,4.5 C21,5.881 19.881,7 18.5,7 C17.119,7 16,5.881 16,4.5 C16,3.119 17.119,2 18.5,2 C19.881,2 21,3.119 21,4.5" id="Fill-303" fill="#CB8252" sketch:type="MSShapeGroup"></path>
            <path d="M45,13 C43.424,13 42.074,13.919 41.422,15.244 C40.877,14.493 39.999,14 39,14 C38.093,14 37.289,14.411 36.739,15.048 C36.133,13.279 34.474,12 32.5,12 C30.526,12 28.867,13.279 28.261,15.048 C27.711,14.411 26.907,14 26,14 C25.219,14 24.513,14.306 23.979,14.795 C23.87,12.131 21.691,10 19,10 C16.704,10 14.79,11.556 14.203,13.665 C13.571,13.247 12.815,13 12,13 C10.424,13 9.074,13.919 8.422,15.244 C7.877,14.493 6.999,14 6,14 C4.343,14 3,15.343 3,17 L49,17 C49,14.791 47.209,13 45,13" id="Fill-304" fill="#F29C1F" sketch:type="MSShapeGroup"></path>
            <path d="M25,52 C15.075,52 7,43.925 7,34 C7,33.447 7.447,33 8,33 C8.553,33 9,33.447 9,34 C9,42.822 16.178,50 25,50 C25.553,50 26,50.447 26,51 C26,51.553 25.553,52 25,52" id="Fill-306" fill="#616D7F" sketch:type="MSShapeGroup"></path>
        </g>
    </g>
</svg>