<?xml version="1.0" encoding="UTF-8" standalone="no"?>
<svg width="42px" height="56px" viewBox="0 0 42 56" version="1.1" xmlns="http://www.w3.org/2000/svg" xmlns:xlink="http://www.w3.org/1999/xlink" xmlns:sketch="http://www.bohemiancoding.com/sketch/ns">
    <!-- Generator: Sketch 3.2.2 (9983) - http://www.bohemiancoding.com/sketch -->
    <title>5 - Chinese Lamp (Flat)</title>
    <desc>Created with Sketch.</desc>
    <defs></defs>
    <g id="Page-1" stroke="none" stroke-width="1" fill="none" fill-rule="evenodd" sketch:type="MSPage">
        <g id="5---Chinese-Lamp-(Flat)" sketch:type="MSLayerGroup">
            <path d="M21,8 C20.447,8 20,7.553 20,7 L20,1 C20,0.447 20.447,0 21,0 C21.553,0 22,0.447 22,1 L22,7 C22,7.553 21.553,8 21,8" id="Fill-630" fill="#F0C419" sketch:type="MSShapeGroup"></path>
            <path d="M17,45 C16.447,45 16,45.447 16,46 L16,55 C16,55.553 16.447,56 17,56 C17.553,56 18,55.553 18,55 L18,46 C18,45.447 17.553,45 17,45" id="Fill-631" fill="#F0C419" sketch:type="MSShapeGroup"></path>
            <path d="M20,45 C19.447,45 19,45.447 19,46 L19,52 C19,52.553 19.447,53 20,53 C20.553,53 21,52.553 21,52 L21,46 C21,45.447 20.553,45 20,45" id="Fill-632" fill="#F0C419" sketch:type="MSShapeGroup"></path>
            <path d="M23,45 C22.447,45 22,45.447 22,46 L22,55 C22,55.553 22.447,56 23,56 C23.553,56 24,55.553 24,55 L24,46 C24,45.447 23.553,45 23,45" id="Fill-633" fill="#F0C419" sketch:type="MSShapeGroup"></path>
            <path d="M26,45 C25.447,45 25,45.447 25,46 L25,53 C25,53.553 25.447,54 26,54 C26.553,54 27,53.553 27,53 L27,46 C27,45.447 26.553,45 26,45" id="Fill-634" fill="#F0C419" sketch:type="MSShapeGroup"></path>
            <path d="M26,27.5 C26,34.956 23.761,41 21,41 C18.239,41 16,34.956 16,27.5 C16,20.044 18.239,14 21,14 C23.761,14 26,20.044 26,27.5" id="Fill-627" fill="#C03A2B" sketch:type="MSShapeGroup"></path>
            <path d="M16,27.5 C16,21.293 17.554,16.078 19.667,14.5 C18.817,14.183 17.925,14 17,14 C11.477,14 7,20.044 7,27.5 C7,34.956 11.477,41 17,41 C17.925,41 18.817,40.817 19.667,40.5 C17.554,38.922 16,33.707 16,27.5" id="Fill-628" fill="#E64C3C" sketch:type="MSShapeGroup"></path>
            <path d="M25,14 C24.075,14 23.183,14.183 22.333,14.5 C24.446,16.078 26,21.293 26,27.5 C26,33.707 24.446,38.922 22.333,40.5 C23.183,40.817 24.075,41 25,41 C30.523,41 35,34.956 35,27.5 C35,20.044 30.523,14 25,14" id="Fill-629" fill="#E64C3C" sketch:type="MSShapeGroup"></path>
            <path d="M7,27.5 C7,22.688 8.87,18.476 11.677,16.085 C11.328,16.036 10.975,16 10.614,16 C5.091,16 0.614,21.372 0.614,28 C0.614,34.627 5.091,40 10.614,40 C11.346,40 12.053,39.882 12.74,39.7 C9.351,37.539 7,32.896 7,27.5" id="Fill-635" fill="#FF6357" sketch:type="MSShapeGroup"></path>
            <path d="M31.386,16 C31.025,16 30.672,16.036 30.323,16.085 C33.13,18.476 35,22.688 35,27.5 C35,32.896 32.649,37.539 29.26,39.7 C29.947,39.882 30.654,40 31.386,40 C36.909,40 41.386,34.627 41.386,28 C41.386,21.372 36.909,16 31.386,16" id="Fill-636" fill="#FF6357" sketch:type="MSShapeGroup"></path>
            <path d="M26,27.5 C26,34.956 23.761,41 21,41 C18.239,41 16,34.956 16,27.5 C16,20.044 18.239,14 21,14 C23.761,14 26,20.044 26,27.5" id="Fill-627" fill="#C03A2B" sketch:type="MSShapeGroup"></path>
            <path d="M16,27.5 C16,21.293 17.554,16.078 19.667,14.5 C18.817,14.183 17.925,14 17,14 C11.477,14 7,20.044 7,27.5 C7,34.956 11.477,41 17,41 C17.925,41 18.817,40.817 19.667,40.5 C17.554,38.922 16,33.707 16,27.5" id="Fill-628" fill="#E64C3C" sketch:type="MSShapeGroup"></path>
            <path d="M25,14 C24.075,14 23.183,14.183 22.333,14.5 C24.446,16.078 26,21.293 26,27.5 C26,33.707 24.446,38.922 22.333,40.5 C23.183,40.817 24.075,41 25,41 C30.523,41 35,34.956 35,27.5 C35,20.044 30.523,14 25,14" id="Fill-629" fill="#E64C3C" sketch:type="MSShapeGroup"></path>
            <path d="M7,27.5 C7,22.688 8.87,18.476 11.677,16.085 C11.328,16.036 10.975,16 10.614,16 C5.091,16 0.614,21.372 0.614,28 C0.614,34.627 5.091,40 10.614,40 C11.346,40 12.053,39.882 12.74,39.7 C9.351,37.539 7,32.896 7,27.5" id="Fill-635" fill="#FF6357" sketch:type="MSShapeGroup"></path>
            <path d="M31.386,16 C31.025,16 30.672,16.036 30.323,16.085 C33.13,18.476 35,22.688 35,27.5 C35,32.896 32.649,37.539 29.26,39.7 C29.947,39.882 30.654,40 31.386,40 C36.909,40 41.386,34.627 41.386,28 C41.386,21.372 36.909,16 31.386,16" id="Fill-636" fill="#FF6357" sketch:type="MSShapeGroup"></path>
            <path d="M26.801,44 C27.482,44 28.004,44.665 27.781,45.309 C27.239,46.875 25.751,48 24,48 L18,48 C16.249,48 14.761,46.875 14.219,45.309 C13.996,44.665 14.518,44 15.199,44 L26.801,44" id="Fill-868" fill="#F18D46" sketch:type="MSShapeGroup"></path>
            <path d="M15.199,11 C14.518,11 13.996,10.334 14.219,9.691 C14.761,8.125 16.249,7 18,7 L24,7 C25.751,7 27.239,8.125 27.781,9.691 C28.004,10.334 27.482,11 26.801,11 L15.199,11" id="Fill-869" fill="#F18D46" sketch:type="MSShapeGroup"></path>
        </g>
    </g>
</svg>