<?xml version="1.0" encoding="UTF-8" standalone="no"?>
<svg width="46px" height="58px" viewBox="0 0 46 58" version="1.1" xmlns="http://www.w3.org/2000/svg" xmlns:xlink="http://www.w3.org/1999/xlink" xmlns:sketch="http://www.bohemiancoding.com/sketch/ns">
    <!-- Generator: Sketch 3.2.2 (9983) - http://www.bohemiancoding.com/sketch -->
    <title>62 - Christmas Tree (Flat)</title>
    <desc>Created with Sketch.</desc>
    <defs></defs>
    <g id="Page-1" stroke="none" stroke-width="1" fill="none" fill-rule="evenodd" sketch:type="MSPage">
        <g id="62---Christmas-Tree-(Flat)" sketch:type="MSLayerGroup">
            <path d="M34,12 L34,12 C30,16 16,16 12,12 L23,0 L34,12" id="Fill-86" fill="#4FBA6F" sketch:type="MSShapeGroup"></path>
            <path d="M31.171,13.696 C26.672,15.431 19.328,15.431 14.829,13.696 L8.174,20.956 C13.565,26.348 32.435,26.348 37.826,20.956 L31.171,13.696" id="Fill-87" fill="#24AE5F" sketch:type="MSShapeGroup"></path>
            <path d="M34.227,23.161 C28.115,25.609 17.885,25.609 11.773,23.161 L4.348,31.261 C12.464,39.377 34.464,38.449 41.652,31.261 L34.227,23.161" id="Fill-88" fill="#4FBA6F" sketch:type="MSShapeGroup"></path>
            <path d="M38.066,33.783 C30.155,37.864 16.145,38.265 7.89,33.831 L0.522,41.869 C8.696,50.043 37.304,50.043 45.478,41.87 L38.066,33.783" id="Fill-89" fill="#4C8056" sketch:type="MSShapeGroup"></path>
            <path d="M25,53 L25,48 L21,48 L21,53 L18,53 L18,57 L28,57 L28,53 L25,53" id="Fill-753" fill="#805333" sketch:type="MSShapeGroup"></path>
            <path d="M12,56 L34,56 L34,58 L12,58 L12,56 Z" id="Fill-754" fill="#804537" sketch:type="MSShapeGroup"></path>
            <path d="M19,30 C19,31.657 17.657,33 16,33 C14.343,33 13,31.657 13,30 C13,28.343 14.343,27 16,27 C17.657,27 19,28.343 19,30" id="Fill-755" fill="#C03A2B" sketch:type="MSShapeGroup"></path>
            <path d="M31,42 C31,43.657 29.657,45 28,45 C26.343,45 25,43.657 25,42 C25,40.343 26.343,39 28,39 C29.657,39 31,40.343 31,42" id="Fill-756" fill="#C03A2B" sketch:type="MSShapeGroup"></path>
            <path d="M29.69,17 L30.521,18.684 L32.38,18.954 L31.035,20.265 L31.353,22.117 L29.69,21.243 L28.028,22.117 L28.345,20.265 L27,18.954 L28.859,18.684 L29.69,17" id="Fill-757" fill="#F3D55B" sketch:type="MSShapeGroup"></path>
            <path d="M16.69,15.883 L17.521,17.568 L19.38,17.838 L18.035,19.149 L18.353,21 L16.69,20.126 L15.027,21 L15.345,19.149 L14,17.838 L15.859,17.568 L16.69,15.883" id="Fill-758" fill="#F3D55B" sketch:type="MSShapeGroup"></path>
            <path d="M31.31,27 L32.141,28.684 L34,28.954 L32.655,30.265 L32.973,32.117 L31.31,31.243 L29.648,32.117 L29.965,30.265 L28.62,28.954 L30.479,28.684 L31.31,27" id="Fill-759" fill="#F3D55B" sketch:type="MSShapeGroup"></path>
            <path d="M12.31,38 L13.141,39.684 L15,39.954 L13.655,41.265 L13.973,43.117 L12.31,42.243 L10.647,43.117 L10.965,41.265 L9.62,39.954 L11.479,39.684 L12.31,38" id="Fill-760" fill="#F3D55B" sketch:type="MSShapeGroup"></path>
            <path d="M21.31,6 L22.141,7.684 L24,7.954 L22.655,9.265 L22.973,11.117 L21.31,10.243 L19.647,11.117 L19.965,9.265 L18.62,7.954 L20.479,7.684 L21.31,6" id="Fill-761" fill="#F3D55B" sketch:type="MSShapeGroup"></path>
        </g>
    </g>
</svg>