<?xml version="1.0" encoding="UTF-8" standalone="no"?>
<svg width="55px" height="54px" viewBox="0 0 55 54" version="1.1" xmlns="http://www.w3.org/2000/svg" xmlns:xlink="http://www.w3.org/1999/xlink" xmlns:sketch="http://www.bohemiancoding.com/sketch/ns">
    <!-- Generator: Sketch 3.2.2 (9983) - http://www.bohemiancoding.com/sketch -->
    <title>67 - Christmas Bell (Flat)</title>
    <desc>Created with Sketch.</desc>
    <defs></defs>
    <g id="Page-1" stroke="none" stroke-width="1" fill="none" fill-rule="evenodd" sketch:type="MSPage">
        <g id="67---Christmas-Bell-(Flat)" sketch:type="MSLayerGroup" transform="translate(0.000000, -1.000000)">
            <path d="M19.977,19.659 L19.49,20.146 C17.672,21.964 14.724,21.964 12.906,20.146 L12.419,19.659 C10.601,17.841 10.601,14.893 12.419,13.075 L12.906,12.588 C14.724,10.77 17.672,10.77 19.49,12.588 L19.977,13.075 C21.795,14.893 21.795,17.841 19.977,19.659" id="Fill-163" fill="#D66F67" sketch:type="MSShapeGroup"></path>
            <path d="M12.906,20.146 L12.419,19.659 C11.348,18.589 10.926,17.128 11.116,15.736 L2.107,21.792 C0.657,22.621 0.392,24.603 1.573,25.784 L6.781,30.992 C7.962,32.173 9.944,31.908 10.773,30.458 L16.829,21.449 C15.437,21.639 13.976,21.217 12.906,20.146" id="Fill-164" fill="#C03A2B" sketch:type="MSShapeGroup"></path>
            <path d="M21.623,2.277 L15.566,11.285 C16.959,11.095 18.419,11.518 19.49,12.588 L19.977,13.075 C21.047,14.146 21.47,15.606 21.28,16.999 L30.288,10.942 C31.739,10.113 32.004,8.132 30.823,6.95 L25.615,1.742 C24.433,0.561 22.452,0.826 21.623,2.277" id="Fill-165" fill="#C03A2B" sketch:type="MSShapeGroup"></path>
            <path d="M34.737,34.906 C26.926,42.717 22.652,51.106 25.191,53.644 C27.729,56.183 36.118,51.909 43.929,44.098 C44.77,43.258 45.56,42.41 46.315,41.564 C45.672,39.795 46.046,37.739 47.464,36.32 C48.534,35.251 49.966,34.789 51.365,34.891 C54.051,30.532 55.001,26.886 53.475,25.36 C50.937,22.822 42.547,27.096 34.737,34.906" id="Fill-166" fill="#F3D55B" sketch:type="MSShapeGroup"></path>
            <path d="M53.264,34.536 C51.311,32.583 48.146,32.583 46.193,34.536 C46.19,34.539 46.188,34.542 46.185,34.545 C46.111,34.471 46.033,34.398 45.933,34.348 L37.448,30.106 C36.952,29.859 36.352,30.059 36.106,30.553 C35.859,31.047 36.059,31.648 36.553,31.895 L45.039,36.137 C45.061,36.149 45.086,36.153 45.109,36.163 C44.361,37.974 44.721,40.135 46.193,41.607 C48.146,43.56 51.311,43.56 53.264,41.607 C55.217,39.654 55.217,36.488 53.264,34.536" id="Fill-785" fill="#C49C1E" sketch:type="MSShapeGroup"></path>
            <path d="M34.737,34.906 C41.205,28.438 48.06,24.409 51.67,24.652 L51.191,24.535 C47.371,23.602 42.007,24.09 38.269,22.882 C34.282,21.594 31.925,18.598 27.979,17.176 C25.586,16.314 23.41,16.279 21.098,17.786 C20.879,18.469 20.519,19.117 19.977,19.659 L19.49,20.146 C18.948,20.688 18.3,21.049 17.617,21.268 C16.109,23.58 16.145,25.755 17.007,28.148 C18.429,32.096 21.427,34.453 22.716,38.442 C23.923,42.178 23.433,47.542 24.366,51.361 L24.483,51.84 C24.239,48.23 28.268,41.375 34.737,34.906" id="Fill-786" fill="#F0C419" sketch:type="MSShapeGroup"></path>
            <path d="M53.121,25.007 L52.907,24.954 C52.953,24.978 52.991,25.012 53.035,25.038 C53.064,25.028 53.092,25.016 53.121,25.007" id="Fill-787" fill="#F0C419" sketch:type="MSShapeGroup"></path>
            <path d="M24.785,53.077 L24.837,53.291 C24.847,53.262 24.859,53.233 24.869,53.204 C24.843,53.16 24.808,53.123 24.785,53.077" id="Fill-788" fill="#F0C419" sketch:type="MSShapeGroup"></path>
        </g>
    </g>
</svg>