<?xml version="1.0" encoding="UTF-8" standalone="no"?>
<svg width="54px" height="58px" viewBox="0 0 54 58" version="1.1" xmlns="http://www.w3.org/2000/svg" xmlns:xlink="http://www.w3.org/1999/xlink" xmlns:sketch="http://www.bohemiancoding.com/sketch/ns">
    <!-- Generator: Sketch 3.2.2 (9983) - http://www.bohemiancoding.com/sketch -->
    <title>58 - Churh (Flat)</title>
    <desc>Created with Sketch.</desc>
    <defs></defs>
    <g id="Page-1" stroke="none" stroke-width="1" fill="none" fill-rule="evenodd" sketch:type="MSPage">
        <g id="58---Churh-(Flat)" sketch:type="MSLayerGroup" transform="translate(-1.000000, 0.000000)">
            <path d="M42,25 L14,25 L14,23 C14,15.268 20.268,9 28,9 C35.732,9 42,15.268 42,23 L42,25" id="Fill-8" fill="#5B3922" sketch:type="MSShapeGroup"></path>
            <path d="M53.353,30.004 L29,14.258 C28.264,13.782 27.331,13.862 26.677,14.378 C26.535,14.429 26.397,14.491 26.265,14.576 L1.912,30.322 C0.988,30.919 0.721,32.164 1.319,33.088 C1.916,34.011 3.16,34.279 4.084,33.681 L27.879,18.296 L51.181,33.363 C52.105,33.96 53.349,33.693 53.947,32.769 C54.544,31.845 54.277,30.601 53.353,30.004" id="Fill-84" fill="#875736" sketch:type="MSShapeGroup"></path>
            <path d="M48.434,31.623 L28,18 L7.588,31.625 C7.222,31.859 7,32.263 7,32.697 L7,54 L49,54 L49,32.68 C49,32.255 48.788,31.858 48.434,31.623" id="Fill-85" fill="#BDC3C7" sketch:type="MSShapeGroup"></path>
            <path d="M19.222,44 L10.778,44 C10.348,44 10,43.652 10,43.222 L10,39.679 C10,39.384 10.104,39.097 10.293,38.87 L14.029,34.387 C14.534,33.781 15.466,33.781 15.971,34.387 L19.707,38.87 C19.896,39.097 20,39.384 20,39.679 L20,43.222 C20,43.652 19.652,44 19.222,44" id="Fill-188" fill="#95A5A5" sketch:type="MSShapeGroup"></path>
            <path d="M45.222,44 L36.778,44 C36.348,44 36,43.652 36,43.222 L36,39.679 C36,39.384 36.104,39.097 36.293,38.87 L40.029,34.387 C40.534,33.781 41.466,33.781 41.971,34.387 L45.707,38.87 C45.896,39.097 46,39.384 46,39.679 L46,43.222 C46,43.652 45.652,44 45.222,44" id="Fill-189" fill="#95A5A5" sketch:type="MSShapeGroup"></path>
            <path d="M31,30 L25,30 L25,26 C25,24.343 26.343,23 28,23 C29.657,23 31,24.343 31,26 L31,30" id="Fill-190" fill="#95A5A5" sketch:type="MSShapeGroup"></path>
            <path d="M26,10.49 L26.265,10.319 C26.397,10.234 26.535,10.171 26.677,10.12 C27.331,9.605 28.264,9.524 29,10 L30,10.646 L30,7 L33,7 L33,3 L30,3 L30,0 L26,0 L26,3 L23,3 L23,7 L26,7 L26,10.49" id="Fill-191" fill="#5B3922" sketch:type="MSShapeGroup"></path>
            <path d="M52,58 L4,58 C2.9,58 2,57.1 2,56 C2,54.9 2.9,54 4,54 L52,54 C53.1,54 54,54.9 54,56 C54,57.1 53.1,58 52,58" id="Fill-762" fill="#7F8C8D" sketch:type="MSShapeGroup"></path>
            <path d="M33,54 L33,40.429 C33,39.845 32.818,39.275 32.478,38.8 L29.632,34.816 C28.832,33.696 27.168,33.696 26.368,34.816 L23.522,38.8 C23.182,39.275 23,39.845 23,40.428 L23,54 L33,54" id="Fill-763" fill="#95A5A5" sketch:type="MSShapeGroup"></path>
        </g>
    </g>
</svg>