<?xml version="1.0" encoding="UTF-8" standalone="no"?>
<svg width="56px" height="55px" viewBox="0 0 56 55" version="1.1" xmlns="http://www.w3.org/2000/svg" xmlns:xlink="http://www.w3.org/1999/xlink" xmlns:sketch="http://www.bohemiancoding.com/sketch/ns">
    <!-- Generator: Sketch 3.2.2 (9983) - http://www.bohemiancoding.com/sketch -->
    <title>30 - Coffin (Flat)</title>
    <desc>Created with Sketch.</desc>
    <defs></defs>
    <g id="Page-1" stroke="none" stroke-width="1" fill="none" fill-rule="evenodd" sketch:type="MSPage">
        <g id="30---Coffin-(Flat)" sketch:type="MSLayerGroup">
            <path d="M50.48,2.246 L36.696,1.098 C35.96,1.037 35.241,1.346 34.78,1.923 L31.095,6.529 C30.462,7.321 30.446,8.441 31.056,9.251 L33.435,12.403 C33.725,12.788 33.883,13.257 33.883,13.739 L33.883,48.03 C33.883,49.165 34.74,50.117 35.869,50.236 L46.06,51.309 C47.19,51.428 48.227,50.675 48.462,49.564 L55.952,14.256 C56.039,13.844 56.007,13.415 55.86,13.02 L52.375,3.681 C52.074,2.877 51.336,2.318 50.48,2.246" id="Fill-261" fill="#B49ACA" sketch:type="MSShapeGroup"></path>
            <path d="M47.836,6.04 L38.488,5.261 C37.752,5.2 37.033,5.509 36.572,6.086 L33.601,9.799 C32.993,10.559 32.952,11.627 33.499,12.432 C33.749,12.799 33.883,13.234 33.883,13.678 L33.883,44.008 C33.883,45.143 34.74,46.095 35.869,46.214 L42.895,46.954 C44.025,47.073 45.061,46.319 45.297,45.208 L51.76,14.74 C51.84,14.362 51.82,13.969 51.702,13.601 L49.763,7.572 C49.489,6.719 48.729,6.115 47.836,6.04" id="Fill-262" fill="#655875" sketch:type="MSShapeGroup"></path>
            <path d="M0.347,16.413 L7.073,2.96 C7.42,2.267 8.102,1.805 8.873,1.741 L22.817,0.58 C23.553,0.518 24.272,0.828 24.734,1.405 L33.514,12.389 C33.829,12.782 34,13.27 34,13.774 L34,48.168 C34,49.232 33.245,50.145 32.201,50.346 L10.176,54.588 C8.989,54.817 7.837,54.053 7.586,52.87 L0.161,17.865 C0.057,17.374 0.122,16.862 0.347,16.413" id="Fill-833" fill="#88759B" sketch:type="MSShapeGroup"></path>
            <path d="M28.314,46.417 L13.429,50.094 C12.212,50.395 10.988,49.628 10.727,48.401 L4.364,18.403 C4.26,17.912 4.325,17.4 4.55,16.951 L9.646,6.759 C9.992,6.067 10.674,5.605 11.445,5.541 L20.983,4.746 C21.742,4.683 22.481,5.014 22.94,5.622 L29.554,14.407 C29.843,14.792 30,15.26 30,15.742 L30,44.263 C30,45.283 29.304,46.172 28.314,46.417" id="Fill-834" fill="#B49ACA" sketch:type="MSShapeGroup"></path>
            <path d="M25.492,16.925 L19.541,17.686 L18.906,12.727 L14.938,13.235 L15.573,18.194 L9.622,18.956 L10.129,22.923 L16.081,22.162 L18.62,42 L22.587,41.492 L20.049,21.654 L26,20.892 L25.492,16.925" id="Fill-835" fill="#655875" sketch:type="MSShapeGroup"></path>
        </g>
    </g>
</svg>