<?xml version="1.0" encoding="UTF-8" standalone="no"?>
<svg width="43px" height="58px" viewBox="0 0 43 58" version="1.1" xmlns="http://www.w3.org/2000/svg" xmlns:xlink="http://www.w3.org/1999/xlink" xmlns:sketch="http://www.bohemiancoding.com/sketch/ns">
    <!-- Generator: Sketch 3.2.2 (9983) - http://www.bohemiancoding.com/sketch -->
    <title>60 - Cross (Flat)</title>
    <desc>Created with Sketch.</desc>
    <defs></defs>
    <g id="Page-1" stroke="none" stroke-width="1" fill="none" fill-rule="evenodd" sketch:type="MSPage">
        <g id="60---Cross-(Flat)" sketch:type="MSLayerGroup" fill="#C49C1E">
            <path d="M43,20.5 C43,18.686 41.615,17.212 39.848,17.035 C39.427,15.575 38.096,14.5 36.5,14.5 C34.567,14.5 33,16.067 33,18 L25,18 L25,10 C26.933,10 28.5,8.433 28.5,6.5 C28.5,4.723 27.17,3.271 25.454,3.046 C25.229,1.33 23.777,0 22,0 C20.223,0 18.771,1.33 18.546,3.046 C16.83,3.271 15.5,4.723 15.5,6.5 C15.5,8.433 17.067,10 19,10 L19,18 L10,18 C10,16.067 8.433,14.5 6.5,14.5 C4.904,14.5 3.573,15.575 3.152,17.035 C1.385,17.212 0,18.686 0,20.5 C0,22.263 1.309,23.708 3.005,23.95 C3.005,23.967 3,23.983 3,24 C3,25.933 4.567,27.5 6.5,27.5 C8.433,27.5 10,25.933 10,24 L19,24 L19,48 C17.067,48 15.5,49.567 15.5,51.5 C15.5,53.277 16.83,54.729 18.546,54.954 C18.771,56.67 20.223,58 22,58 C23.777,58 25.229,56.67 25.454,54.954 C27.17,54.729 28.5,53.277 28.5,51.5 C28.5,49.567 26.933,48 25,48 L25,24 L33,24 C33,25.933 34.567,27.5 36.5,27.5 C38.433,27.5 40,25.933 40,24 C40,23.983 39.995,23.967 39.995,23.95 C41.691,23.708 43,22.263 43,20.5" id="Fill-182" sketch:type="MSShapeGroup"></path>
        </g>
    </g>
</svg>