<?xml version="1.0" encoding="UTF-8" standalone="no"?>
<svg width="57px" height="57px" viewBox="0 0 57 57" version="1.1" xmlns="http://www.w3.org/2000/svg" xmlns:xlink="http://www.w3.org/1999/xlink" xmlns:sketch="http://www.bohemiancoding.com/sketch/ns">
    <!-- Generator: Sketch 3.2.2 (9983) - http://www.bohemiancoding.com/sketch -->
    <title>64 - Decorations (Flat)</title>
    <desc>Created with Sketch.</desc>
    <defs></defs>
    <g id="Page-1" stroke="none" stroke-width="1" fill="none" fill-rule="evenodd" sketch:type="MSPage">
        <g id="64---Decorations-(Flat)" sketch:type="MSLayerGroup">
            <path d="M13,17 C12.447,17 12,16.552 12,16 L12,1 C12,0.448 12.447,0 13,0 C13.553,0 14,0.448 14,1 L14,16 C14,16.552 13.553,17 13,17" id="Fill-11" fill="#D1D4D1" sketch:type="MSShapeGroup"></path>
            <path d="M9,16 L17,16 L17,20 L9,20 L9,16 Z" id="Fill-12" fill="#4C8056" sketch:type="MSShapeGroup"></path>
            <path d="M32,29 C31.447,29 31,28.552 31,28 L31,1 C31,0.448 31.447,0 32,0 C32.553,0 33,0.448 33,1 L33,28 C33,28.552 32.553,29 32,29" id="Fill-13" fill="#D1D4D1" sketch:type="MSShapeGroup"></path>
            <path d="M29.5,28 L34.5,28 L34.5,32 L29.5,32 L29.5,28 Z" id="Fill-14" fill="#B7761F" sketch:type="MSShapeGroup"></path>
            <path d="M47,19 C46.447,19 46,18.552 46,18 L46,1 C46,0.448 46.447,0 47,0 C47.553,0 48,0.448 48,1 L48,18 C48,18.552 47.553,19 47,19" id="Fill-15" fill="#D1D4D1" sketch:type="MSShapeGroup"></path>
            <path d="M43,18 L51,18 L51,22 L43,22 L43,18 Z" id="Fill-16" fill="#872821" sketch:type="MSShapeGroup"></path>
            <path d="M46,44 C46,51.18 40.18,57 33,57 C25.82,57 20,51.18 20,44 C20,36.82 25.82,31 33,31 C40.18,31 46,36.82 46,44" id="Fill-91" fill="#C97818" sketch:type="MSShapeGroup"></path>
            <path d="M25.945,33.091 C25.975,32.73 26,32.368 26,32 C26,24.82 20.18,19 13,19 C5.82,19 0,24.82 0,32 C0,39.18 5.82,45 13,45 C15.603,45 18.022,44.227 20.055,42.909 C20.398,38.79 22.658,35.221 25.945,33.091" id="Fill-92" fill="#24AE5F" sketch:type="MSShapeGroup"></path>
            <path d="M47,21 C41.477,21 37,25.477 37,31 C37,31.221 37.029,31.434 37.046,31.65 C40.736,32.859 43.69,35.672 45.098,39.266 C45.356,39.799 45.587,40.346 45.775,40.914 C46.177,40.966 46.584,41 47,41 C52.523,41 57,36.523 57,31 C57,25.477 52.523,21 47,21" id="Fill-93" fill="#C03A2B" sketch:type="MSShapeGroup"></path>
            <path d="M42,43 L39.869,43 L40.832,41.555 C41.139,41.095 41.015,40.474 40.555,40.168 C40.093,39.86 39.474,39.986 39.168,40.445 L37.465,43 L36,43 C35.979,43 35.961,43.011 35.94,43.012 C35.56,42.194 34.866,41.556 34,41.252 L34,39.535 L36.555,37.832 C37.015,37.526 37.139,36.905 36.832,36.445 C36.526,35.985 35.905,35.86 35.445,36.168 L34,37.131 L34,35 C34,34.448 33.553,34 33,34 C32.447,34 32,34.448 32,35 L32,37.131 L30.555,36.168 C30.093,35.86 29.473,35.985 29.168,36.445 C28.861,36.905 28.985,37.526 29.445,37.832 L32,39.535 L32,41.179 C31.039,41.441 30.238,42.104 29.82,43 L28.535,43 L26.832,40.445 C26.526,39.986 25.906,39.86 25.445,40.168 C24.985,40.474 24.861,41.095 25.168,41.555 L26.131,43 L24,43 C23.447,43 23,43.448 23,44 C23,44.552 23.447,45 24,45 L26.131,45 L25.168,46.445 C24.861,46.905 24.985,47.526 25.445,47.832 C25.616,47.946 25.809,48 25.999,48 C26.322,48 26.64,47.844 26.832,47.555 L28.535,45 L29.552,45 C29.773,46.295 30.732,47.35 32,47.693 L32,48.465 L29.445,50.168 C28.985,50.474 28.861,51.095 29.168,51.555 C29.36,51.844 29.678,52 30.001,52 C30.191,52 30.384,51.946 30.555,51.832 L32,50.868 L32,53 C32,53.552 32.447,54 33,54 C33.553,54 34,53.552 34,53 L34,50.868 L35.445,51.832 C35.616,51.946 35.809,52 35.999,52 C36.322,52 36.64,51.844 36.832,51.555 C37.139,51.095 37.015,50.474 36.555,50.168 L34,48.465 L34,47.621 C35.138,47.222 35.993,46.23 36.203,45 L37.452,45 L39.143,47.644 C39.334,47.942 39.656,48.105 39.986,48.105 C40.171,48.105 40.357,48.054 40.524,47.947 C40.989,47.65 41.125,47.032 40.828,46.566 L39.826,45 L42,45 C42.553,45 43,44.552 43,44 C43,43.448 42.553,43 42,43" id="Fill-115" fill="#F8E27F" sketch:type="MSShapeGroup"></path>
            <path d="M53,33 C52.447,33 52,32.552 52,32 C52,29.243 49.757,27 47,27 C46.447,27 46,26.552 46,26 C46,25.448 46.447,25 47,25 C50.859,25 54,28.14 54,32 C54,32.552 53.553,33 53,33" id="Fill-178" fill="#FB7B76" sketch:type="MSShapeGroup"></path>
            <path d="M13,23.056 L15.629,28.382 L21.507,29.236 L17.253,33.382 L18.257,39.236 L13,36.472 L7.743,39.236 L8.747,33.382 L4.494,29.236 L10.371,28.382 L13,23.056" id="Fill-727" fill="#257545" sketch:type="MSShapeGroup"></path>
        </g>
    </g>
</svg>