<?xml version="1.0" encoding="UTF-8" standalone="no"?>
<svg width="57px" height="54px" viewBox="0 0 57 54" version="1.1" xmlns="http://www.w3.org/2000/svg" xmlns:xlink="http://www.w3.org/1999/xlink" xmlns:sketch="http://www.bohemiancoding.com/sketch/ns">
    <!-- Generator: Sketch 3.2.2 (9983) - http://www.bohemiancoding.com/sketch -->
    <title>55 - Easter Bunny (Flat)</title>
    <desc>Created with Sketch.</desc>
    <defs></defs>
    <g id="Page-1" stroke="none" stroke-width="1" fill="none" fill-rule="evenodd" sketch:type="MSPage">
        <g id="55---Easter-Bunny-(Flat)" sketch:type="MSLayerGroup">
            <path d="M42.028,0.093 L48.612,22.316 C49.003,23.634 50.881,23.602 51.226,22.271 L56.011,3.814 C56.512,1.884 55.054,0 53.059,0 L42.097,0 C42.049,0 42.014,0.047 42.028,0.093" id="Fill-764" fill="#A5A5A4" sketch:type="MSShapeGroup"></path>
            <path d="M40.719,15.377 L45.28,11.069 L42.005,0.018 C42.003,0.011 41.994,0.01 41.99,0.016 L35.135,10.787 C37.226,11.884 39.114,13.451 40.719,15.377" id="Fill-765" fill="#E6E7E8" sketch:type="MSShapeGroup"></path>
            <path d="M50,46 C49.423,44.609 44.271,41.685 44.398,41.366 L52,42 C50.828,40.698 45.592,37.49 45.692,37 L51,37 C49.812,35.811 47.898,35.097 46.06,34.663 C46.178,33.629 46.243,32.574 46.243,31.5 C46.243,19.073 38.075,9 28,9 C17.925,9 9.757,19.073 9.757,31.5 C9.757,32.574 9.822,33.629 9.94,34.663 C8.102,35.097 6.189,35.811 5,37 L10.308,37 C10.408,37.49 5.172,40.698 4,42 L11.602,41.366 C11.729,41.685 6.577,44.609 6,46 L13.602,45.309 C13.794,45.613 10,48 10,48 C10,48 17.5,49.5 20,52 C20.411,52.411 20.849,52.52 21.293,52.424 C23.37,53.437 25.631,54 28,54 C30.369,54 32.63,53.437 34.707,52.424 C35.151,52.52 35.589,52.411 36,52 C38.5,49.5 46,48 46,48 C46,48 42.206,45.613 42.398,45.309 L50,46" id="Fill-766" fill="#E6E7E8" sketch:type="MSShapeGroup"></path>
            <path d="M14.108,0.093 L7.523,22.316 C7.133,23.634 5.254,23.602 4.909,22.271 L0.124,3.814 C-0.376,1.884 1.081,0 3.076,0 L14.038,0 C14.087,0 14.122,0.047 14.108,0.093" id="Fill-767" fill="#A5A5A4" sketch:type="MSShapeGroup"></path>
            <path d="M15.417,15.377 L10.856,11.069 L14.13,0.018 C14.132,0.011 14.141,0.01 14.145,0.016 L21,10.787 C18.909,11.884 17.021,13.451 15.417,15.377" id="Fill-768" fill="#E6E7E8" sketch:type="MSShapeGroup"></path>
            <path d="M28,38.989 C28,41.75 25.09,43.989 21.5,43.989 C17.91,43.989 15,41.75 15,38.989 C15,36.227 17.91,33.989 21.5,33.989 C25.09,33.989 28,36.227 28,38.989" id="Fill-769" fill="#C4C6C6" sketch:type="MSShapeGroup"></path>
            <path d="M41,38.989 C41,41.75 38.09,43.989 34.5,43.989 C30.91,43.989 28,41.75 28,38.989 C28,36.227 30.91,33.989 34.5,33.989 C38.09,33.989 41,36.227 41,38.989" id="Fill-770" fill="#C4C6C6" sketch:type="MSShapeGroup"></path>
            <path d="M28.282,40.444 L27.718,40.444 C27.128,41.939 25.649,43.133 23.756,43.673 L24.902,48.989 C24.963,49.204 25.127,49.374 25.339,49.445 L28,49.989 L30.661,49.445 C30.873,49.374 31.037,49.204 31.098,48.989 L32.244,43.673 C30.351,43.133 28.872,41.939 28.282,40.444" id="Fill-771" fill="#BDC3C7" sketch:type="MSShapeGroup"></path>
            <path d="M33.5,16 C30.463,16 28,20.701 28,26.5 C28,28.556 28.318,30.463 28.854,32.082 C29.803,32.25 30.713,32.694 31.446,33.427 L32.303,34.284 C32.99,34.094 33.729,33.989 34.5,33.989 C35.429,33.989 36.31,34.141 37.109,34.411 C38.266,32.486 39,29.659 39,26.5 C39,20.701 36.537,16 33.5,16" id="Fill-772" fill="#A5A5A4" sketch:type="MSShapeGroup"></path>
            <path d="M24.554,33.427 C25.287,32.694 26.197,32.25 27.146,32.082 C27.682,30.463 28,28.556 28,26.5 C28,20.701 25.537,16 22.5,16 C19.463,16 17,20.701 17,26.5 C17,29.659 17.735,32.486 18.891,34.411 C19.69,34.141 20.571,33.989 21.5,33.989 C22.271,33.989 23.01,34.094 23.697,34.284 L24.554,33.427" id="Fill-773" fill="#A5A5A4" sketch:type="MSShapeGroup"></path>
            <path d="M38.913,24.692 C37.222,22.407 34.975,21 32.5,21 C31.048,21 29.678,21.494 28.448,22.352 C28.161,23.625 28,25.026 28,26.5 C28,28.556 28.318,30.463 28.854,32.082 C29.803,32.25 30.713,32.694 31.446,33.427 L32.303,34.284 C32.99,34.094 33.729,33.989 34.5,33.989 C35.429,33.989 36.31,34.141 37.109,34.411 C38.266,32.486 39,29.659 39,26.5 C39,25.882 38.966,25.281 38.913,24.692" id="Fill-774" fill="#FFFFFF" sketch:type="MSShapeGroup"></path>
            <path d="M17.087,24.692 C17.034,25.281 17,25.882 17,26.5 C17,29.659 17.735,32.486 18.891,34.411 C19.69,34.141 20.571,33.989 21.5,33.989 C22.271,33.989 23.01,34.094 23.697,34.284 L24.554,33.427 C25.287,32.694 26.197,32.25 27.146,32.082 C27.682,30.463 28,28.556 28,26.5 C28,25.026 27.839,23.625 27.552,22.352 C26.322,21.494 24.952,21 23.5,21 C21.025,21 18.778,22.407 17.087,24.692" id="Fill-775" fill="#FFFFFF" sketch:type="MSShapeGroup"></path>
            <path d="M24.2,29.6 C23.206,29.6 22.4,28.525 22.4,27.2 C22.4,26.773 22.491,26.377 22.638,26.03 C22.558,26.02 22.481,26 22.4,26 C21.075,26 20,27.343 20,29 C20,30.657 21.075,32 22.4,32 C23.597,32 24.581,30.901 24.762,29.469 C24.584,29.547 24.398,29.6 24.2,29.6" id="Fill-776" fill="#2C2F38" sketch:type="MSShapeGroup"></path>
            <path d="M35.406,29.6 C34.412,29.6 33.606,28.525 33.606,27.2 C33.606,26.773 33.697,26.377 33.844,26.03 C33.765,26.02 33.688,26 33.606,26 C32.281,26 31.206,27.343 31.206,29 C31.206,30.657 32.281,32 33.606,32 C34.803,32 35.787,30.901 35.969,29.469 C35.791,29.547 35.604,29.6 35.406,29.6" id="Fill-777" fill="#2C2F38" sketch:type="MSShapeGroup"></path>
            <path d="M28,49.989 L29,49.784 L29,44.989 C29,44.436 28.553,43.989 28,43.989 C27.447,43.989 27,44.436 27,44.989 L27,49.784 L28,49.989" id="Fill-797" fill="#FFFFFF" sketch:type="MSShapeGroup"></path>
            <path d="M32.306,34.287 L31.446,33.427 C29.543,31.524 26.457,31.524 24.554,33.427 L23.694,34.287 C26.203,34.98 28,36.821 28,38.989 C28,36.821 29.797,34.98 32.306,34.287" id="Fill-798" fill="#FB7B76" sketch:type="MSShapeGroup"></path>
        </g>
    </g>
</svg>