<?xml version="1.0" encoding="UTF-8" standalone="no"?>
<svg width="46px" height="59px" viewBox="0 0 46 59" version="1.1" xmlns="http://www.w3.org/2000/svg" xmlns:xlink="http://www.w3.org/1999/xlink" xmlns:sketch="http://www.bohemiancoding.com/sketch/ns">
    <!-- Generator: Sketch 3.2.2 (9983) - http://www.bohemiancoding.com/sketch -->
    <title>46 - Easter Gift (Flat)</title>
    <desc>Created with Sketch.</desc>
    <defs></defs>
    <g id="Page-1" stroke="none" stroke-width="1" fill="none" fill-rule="evenodd" sketch:type="MSPage">
        <g id="46---Easter-Gift-(Flat)" sketch:type="MSLayerGroup">
            <path d="M14.235,42.075 C14.096,42.075 13.955,42.046 13.82,41.984 C5.901,38.366 0.784,30.537 0.784,22.039 C0.784,9.887 10.926,0 23.392,0 C35.858,0 46,9.887 46,22.039 C46,27.993 43.589,33.573 39.209,37.752 C38.81,38.133 38.178,38.118 37.795,37.719 C37.414,37.319 37.429,36.686 37.829,36.305 C41.809,32.508 44,27.441 44,22.039 C44,10.989 34.755,2 23.392,2 C12.029,2 2.784,10.989 2.784,22.039 C2.784,29.757 7.442,36.871 14.651,40.166 C15.154,40.395 15.375,40.988 15.146,41.491 C14.978,41.858 14.615,42.075 14.235,42.075" id="Fill-46" fill="#805333" sketch:type="MSShapeGroup"></path>
            <path d="M23.392,29 L7.471,29 C7.471,29 17.516,38.624 16.569,59 L30.216,59 C29.947,53.213 30.565,48.296 31.588,44.218 L30.346,44.544 C29.179,44.851 27.985,44.155 27.679,42.989 L27.263,41.409 C26.956,40.243 27.653,39.049 28.819,38.742 L30.399,38.326 C31.497,38.037 32.61,38.644 32.993,39.689 C35.683,32.485 39.314,29 39.314,29 L23.392,29" id="Fill-80" fill="#CB8252" sketch:type="MSShapeGroup"></path>
            <path d="M38.323,29 C38.419,28.834 38.517,28.67 38.607,28.498 C40.818,24.262 40.321,19.633 37.497,18.159 C34.673,16.685 30.592,18.924 28.381,23.16 C27.346,25.143 26.912,27.209 27.025,29 L38.323,29" id="Fill-246" fill="#4FBA6F" sketch:type="MSShapeGroup"></path>
            <path d="M17.623,21.16 C15.947,18.725 13.503,17.456 11.487,18.223 C8.906,19.205 8.007,23.139 9.479,27.011 C9.753,27.731 10.09,28.397 10.473,29 L16.882,29 C16.736,28.171 16.651,27.305 16.65,26.407 C16.648,24.486 17.008,22.695 17.623,21.16" id="Fill-247" fill="#B49ACA" sketch:type="MSShapeGroup"></path>
            <path d="M29.406,21.518 C28.251,18.354 26.01,16.208 23.436,16.21 C19.684,16.213 16.645,20.779 16.65,26.407 C16.651,27.305 16.736,28.171 16.882,29 L27.025,29 C26.912,27.209 27.346,25.143 28.381,23.16 C28.688,22.571 29.035,22.025 29.406,21.518" id="Fill-248" fill="#C03A2B" sketch:type="MSShapeGroup"></path>
            <path d="M14,22.5 C14,23.328 13.328,24 12.5,24 C11.672,24 11,23.328 11,22.5 C11,21.672 11.672,21 12.5,21 C13.328,21 14,21.672 14,22.5" id="Fill-249" fill="#D7BBF2" sketch:type="MSShapeGroup"></path>
            <path d="M26,23.5 C26,24.328 25.328,25 24.5,25 C23.672,25 23,24.328 23,23.5 C23,22.672 23.672,22 24.5,22 C25.328,22 26,22.672 26,23.5" id="Fill-250" fill="#E0BC00" sketch:type="MSShapeGroup"></path>
            <path d="M24,19.5 C24,20.328 23.328,21 22.5,21 C21.672,21 21,20.328 21,19.5 C21,18.672 21.672,18 22.5,18 C23.328,18 24,18.672 24,19.5" id="Fill-251" fill="#4FBA6F" sketch:type="MSShapeGroup"></path>
            <path d="M22,25.5 C22,26.328 21.328,27 20.5,27 C19.672,27 19,26.328 19,25.5 C19,24.672 19.672,24 20.5,24 C21.328,24 22,24.672 22,25.5" id="Fill-252" fill="#DFA001" sketch:type="MSShapeGroup"></path>
            <path d="M37.318,26.716 C36.922,27.444 36.012,27.713 35.284,27.318 C34.556,26.922 34.286,26.012 34.682,25.284 C35.078,24.556 35.988,24.286 36.716,24.682 C37.444,25.077 37.714,25.988 37.318,26.716" id="Fill-253" fill="#835F35" sketch:type="MSShapeGroup"></path>
            <path d="M37.44,22.216 C37.045,22.944 36.134,23.214 35.406,22.818 C34.678,22.423 34.409,21.512 34.804,20.784 C35.2,20.056 36.11,19.787 36.838,20.182 C37.566,20.578 37.836,21.488 37.44,22.216" id="Fill-254" fill="#C0DAC0" sketch:type="MSShapeGroup"></path>
            <path d="M32.818,25.216 C32.422,25.944 31.511,26.214 30.784,25.818 C30.056,25.423 29.786,24.512 30.182,23.784 C30.577,23.056 31.488,22.787 32.216,23.182 C32.944,23.578 33.213,24.488 32.818,25.216" id="Fill-255" fill="#84D5B8" sketch:type="MSShapeGroup"></path>
            <path d="M28.476,44.57 L24.146,46.639 C23.447,47.096 22.489,46.845 22.308,46.158 L21.028,41.293 C20.847,40.605 21.557,39.916 22.391,39.969 L27.33,40.213 C27.812,40.244 28.196,40.525 28.301,40.923 L28.972,43.475 C29.077,43.872 28.88,44.306 28.476,44.57" id="Fill-256" fill="#C03A2B" sketch:type="MSShapeGroup"></path>
            <path d="M33.67,43.357 L38.353,42.901 C39.187,42.955 39.897,42.266 39.716,41.578 L38.436,36.713 C38.255,36.025 37.298,35.774 36.599,36.231 L32.524,39 C32.12,39.264 31.923,39.698 32.028,40.096 L32.699,42.647 C32.804,43.045 33.188,43.326 33.67,43.357" id="Fill-257" fill="#C03A2B" sketch:type="MSShapeGroup"></path>
            <path d="M35.999,54.427 C35.828,54.427 35.654,54.383 35.496,54.291 C34.341,53.618 33.518,52.504 33.178,51.159 C32.846,49.843 33.036,48.436 33.7,47.299 C34.539,45.86 33.972,43.705 32.532,42.864 C32.055,42.585 31.894,41.973 32.173,41.497 C32.451,41.02 33.064,40.857 33.54,41.137 C35.911,42.52 36.809,45.937 35.427,48.307 C35.025,48.996 34.912,49.857 35.117,50.668 C35.325,51.49 35.817,52.163 36.504,52.564 C36.981,52.842 37.142,53.455 36.864,53.931 C36.678,54.25 36.343,54.427 35.999,54.427" id="Fill-258" fill="#D66F67" sketch:type="MSShapeGroup"></path>
            <path d="M27.001,55.999 C26.682,55.999 26.369,55.847 26.175,55.565 C25.863,55.109 25.979,54.486 26.435,54.174 C27.097,53.72 27.506,53.139 27.617,52.494 C27.728,51.846 27.541,51.143 27.074,50.463 C25.523,48.199 26.172,44.726 28.435,43.174 C28.892,42.863 29.513,42.98 29.825,43.434 C30.137,43.89 30.021,44.512 29.566,44.824 C28.191,45.767 27.782,47.957 28.724,49.332 C29.49,50.45 29.789,51.66 29.588,52.832 C29.383,54.023 28.684,55.057 27.566,55.824 C27.393,55.943 27.196,55.999 27.001,55.999" id="Fill-778" fill="#D66F67" sketch:type="MSShapeGroup"></path>
            <path d="M31.926,44.129 L30.346,44.544 C29.18,44.851 27.985,44.155 27.679,42.989 L27.263,41.409 C26.956,40.243 27.653,39.049 28.819,38.742 L30.399,38.326 C31.565,38.019 32.759,38.716 33.066,39.882 L33.481,41.462 C33.788,42.628 33.092,43.822 31.926,44.129" id="Fill-806" fill="#D34A40" sketch:type="MSShapeGroup"></path>
        </g>
    </g>
</svg>