<?xml version="1.0" encoding="UTF-8" standalone="no"?>
<svg width="56px" height="59px" viewBox="0 0 56 59" version="1.1" xmlns="http://www.w3.org/2000/svg" xmlns:xlink="http://www.w3.org/1999/xlink" xmlns:sketch="http://www.bohemiancoding.com/sketch/ns">
    <!-- Generator: Sketch 3.2.2 (9983) - http://www.bohemiancoding.com/sketch -->
    <title>15 - Evil Pumpkin (Flat)</title>
    <desc>Created with Sketch.</desc>
    <defs></defs>
    <g id="Page-1" stroke="none" stroke-width="1" fill="none" fill-rule="evenodd" sketch:type="MSPage">
        <g id="15---Evil-Pumpkin-(Flat)" sketch:type="MSLayerGroup">
            <path d="M56,33.5 C56,47.031 43.464,58 28,58 C12.536,58 0,47.031 0,33.5 C0,19.969 12.536,9 28,9 C43.464,9 56,19.969 56,33.5" id="Fill-276" fill="#E57E25" sketch:type="MSShapeGroup"></path>
            <path d="M26.735,40.035 C17.225,40.16 12,37 12,37 C12,37 12.5,49.833 28,50 C43.5,49.833 44,37 44,37 C44,37 38.775,40.16 29.265,40.035 C28.422,40.024 27.578,40.024 26.735,40.035" id="Fill-277" fill="#805333" sketch:type="MSShapeGroup"></path>
            <path d="M24.531,9.194 C25.668,9.071 26.824,9 28,9 C29.005,9 29.997,9.048 30.974,9.139 C30.74,5.255 28.737,2.204 27.647,0.816 C27.262,0.327 26.582,0.183 26.025,0.462 C25.433,0.758 25.165,1.444 25.371,2.073 C26.454,5.374 25.304,7.955 24.531,9.194" id="Fill-278" fill="#FBD490" sketch:type="MSShapeGroup"></path>
            <path d="M33,39.907 L33,45 L39,43 L39,38.905 C37.375,39.334 35.367,39.716 33,39.907" id="Fill-279" fill="#F0C419" sketch:type="MSShapeGroup"></path>
            <path d="M23,39.907 L23,45 L17,43 L17,38.905 C18.625,39.334 20.633,39.716 23,39.907" id="Fill-280" fill="#F0C419" sketch:type="MSShapeGroup"></path>
            <path d="M16.216,30.648 C19.492,32.7 23.812,31.708 25.864,28.432 L14,21 C11.948,24.276 12.94,28.596 16.216,30.648" id="Fill-341" fill="#F0C419" sketch:type="MSShapeGroup"></path>
            <path d="M39.784,30.648 C36.508,32.7 32.188,31.708 30.136,28.432 L42,21 C44.052,24.276 43.06,28.596 39.784,30.648" id="Fill-342" fill="#F0C419" sketch:type="MSShapeGroup"></path>
            <path d="M25,49.787 C25.934,49.911 26.927,49.988 28,50 C29.073,49.988 30.066,49.911 31,49.787 L31,46 L25,46 L25,49.787" id="Fill-343" fill="#F0C419" sketch:type="MSShapeGroup"></path>
            <path d="M41.981,49.403 C38.39,54.231 33.293,57 28,57 C20.364,57 13.497,51.378 10.505,42.677 C10.325,42.154 9.757,41.877 9.234,42.057 C8.712,42.236 8.435,42.805 8.614,43.327 C11.888,52.848 19.498,59 28,59 C33.932,59 39.612,55.937 43.587,50.597 C43.916,50.154 43.824,49.527 43.381,49.197 C42.938,48.869 42.312,48.962 41.981,49.403" id="Fill-855" fill="#B26226" sketch:type="MSShapeGroup"></path>
            <path d="M48,32.5 C47.447,32.5 47,32.947 47,33.5 C47,35.631 46.769,37.745 46.312,39.781 C46.191,40.32 46.53,40.855 47.069,40.975 C47.143,40.992 47.217,41 47.289,41 C47.747,41 48.159,40.684 48.264,40.219 C48.752,38.039 49,35.778 49,33.5 C49,32.947 48.553,32.5 48,32.5" id="Fill-856" fill="#B26226" sketch:type="MSShapeGroup"></path>
            <path d="M28.185,8.007 C28.147,8.006 28.109,8 28.071,8 C28.062,8 28.053,8.001 28.043,8.001 C28.029,8.001 28.015,8 28,8 C18.884,8 10.86,15.061 8.034,25.569 C7.891,26.103 8.207,26.651 8.74,26.795 C8.827,26.818 8.915,26.829 9.001,26.829 C9.441,26.829 9.846,26.535 9.966,26.089 C11.944,18.733 16.648,13.234 22.415,11.045 C21.208,12.433 20.11,14.261 19.185,16.488 C18.973,16.998 19.215,17.584 19.725,17.796 C20.236,18.006 20.819,17.767 21.032,17.256 C22.913,12.728 25.533,10.02 28.046,10.002 C28.079,10.002 28.112,10.005 28.146,10.005 C30.83,10.063 33.647,13.224 35.516,18.292 C35.665,18.696 36.047,18.946 36.454,18.946 C36.569,18.946 36.685,18.927 36.8,18.885 C37.318,18.693 37.583,18.118 37.393,17.601 C36.41,14.934 35.208,12.765 33.859,11.167 C37.572,12.668 40.891,15.559 43.268,19.518 C43.552,19.992 44.165,20.145 44.64,19.861 C45.113,19.577 45.267,18.963 44.982,18.489 C41.077,11.981 34.809,8.078 28.185,8.007" id="Fill-857" fill="#B26226" sketch:type="MSShapeGroup"></path>
        </g>
    </g>
</svg>