<?xml version="1.0" encoding="UTF-8" standalone="no"?>
<svg width="28px" height="58px" viewBox="0 0 28 58" version="1.1" xmlns="http://www.w3.org/2000/svg" xmlns:xlink="http://www.w3.org/1999/xlink" xmlns:sketch="http://www.bohemiancoding.com/sketch/ns">
    <!-- Generator: Sketch 3.2.2 (9983) - http://www.bohemiancoding.com/sketch -->
    <title>37 - Firecraker (Flat)</title>
    <desc>Created with Sketch.</desc>
    <defs></defs>
    <g id="Page-1" stroke="none" stroke-width="1" fill="none" fill-rule="evenodd" sketch:type="MSPage">
        <g id="37---Firecraker-(Flat)" sketch:type="MSLayerGroup">
            <path d="M17,24 C10.925,24 6,21.761 6,19 L6,53 C6,55.119 8.905,56.926 13,57.654 L13,40.654 C14.241,40.874 15.587,41 17,41 C18.413,41 19.759,40.874 21,40.654 L21,57.654 C25.095,56.926 28,55.119 28,53 L28,19 C28,21.761 23.075,24 17,24" id="Fill-43" fill="#E74C3B" sketch:type="MSShapeGroup"></path>
            <path d="M28,19 C28,21.761 23.075,24 17,24 C10.925,24 6,21.761 6,19 C6,16.239 10.925,14 17,14 C23.075,14 28,16.239 28,19" id="Fill-465" fill="#C13A2A" sketch:type="MSShapeGroup"></path>
            <path d="M11.008,26 L11.937,27.883 L14.015,28.185 L12.511,29.651 L12.866,31.721 L11.008,30.743 L9.149,31.721 L9.504,29.651 L8,28.185 L10.078,27.883 L11.008,26" id="Fill-466" fill="#FFFFFF" sketch:type="MSShapeGroup"></path>
            <path d="M22.985,26 L23.914,27.883 L25.993,28.185 L24.489,29.651 L24.844,31.721 L22.985,30.743 L21.126,31.721 L21.481,29.651 L19.977,28.185 L22.056,27.883 L22.985,26" id="Fill-467" fill="#FFFFFF" sketch:type="MSShapeGroup"></path>
            <path d="M17.008,32.279 L17.937,34.162 L20.015,34.464 L18.511,35.93 L18.866,38 L17.008,37.023 L15.149,38 L15.504,35.93 L14,34.464 L16.078,34.162 L17.008,32.279" id="Fill-473" fill="#FFFFFF" sketch:type="MSShapeGroup"></path>
            <path d="M13,57.654 C14.241,57.874 15.587,58 17,58 C18.413,58 19.759,57.874 21,57.654 L21,40.654 C19.759,40.874 18.413,41 17,41 C15.587,41 14.241,40.874 13,40.654 L13,57.654" id="Fill-486" fill="#8697CB" sketch:type="MSShapeGroup"></path>
            <path d="M7,4 C6.448,4 6,3.553 6,3 L6,1 C6,0.447 6.448,0 7,0 C7.552,0 8,0.447 8,1 L8,3 C8,3.553 7.552,4 7,4" id="Fill-503" fill="#F0C419" sketch:type="MSShapeGroup"></path>
            <path d="M10,5 C9.744,5 9.488,4.902 9.293,4.707 C8.902,4.316 8.902,3.684 9.293,3.293 L11.293,1.293 C11.684,0.902 12.316,0.902 12.707,1.293 C13.098,1.684 13.098,2.316 12.707,2.707 L10.707,4.707 C10.512,4.902 10.256,5 10,5" id="Fill-504" fill="#F0C419" sketch:type="MSShapeGroup"></path>
            <path d="M4,5 C3.744,5 3.488,4.902 3.293,4.707 L1.293,2.707 C0.902,2.316 0.902,1.684 1.293,1.293 C1.684,0.902 2.316,0.902 2.707,1.293 L4.707,3.293 C5.098,3.684 5.098,4.316 4.707,4.707 C4.512,4.902 4.256,5 4,5" id="Fill-505" fill="#F0C419" sketch:type="MSShapeGroup"></path>
            <path d="M3,8 L1,8 C0.448,8 0,7.553 0,7 C0,6.447 0.448,6 1,6 L3,6 C3.552,6 4,6.447 4,7 C4,7.553 3.552,8 3,8" id="Fill-506" fill="#F0C419" sketch:type="MSShapeGroup"></path>
            <path d="M13,8 L11,8 C10.448,8 10,7.553 10,7 C10,6.447 10.448,6 11,6 L13,6 C13.552,6 14,6.447 14,7 C14,7.553 13.552,8 13,8" id="Fill-507" fill="#F0C419" sketch:type="MSShapeGroup"></path>
            <path d="M11.615,11.615 C9.622,11.615 8,9.993 8,8 L8,7 C8,6.447 7.552,6 7,6 C6.448,6 6,6.447 6,7 L6,8 C6,11.097 8.519,13.615 11.615,13.615 C14.033,13.615 16,15.582 16,18 C16,18.553 16.448,19 17,19 C17.552,19 18,18.553 18,18 C18,14.479 15.136,11.615 11.615,11.615" id="Fill-508" fill="#D1D4D1" sketch:type="MSShapeGroup"></path>
            <path d="M2,13 C1.744,13 1.488,12.902 1.293,12.707 C0.902,12.316 0.902,11.684 1.293,11.293 L3.293,9.293 C3.684,8.902 4.316,8.902 4.707,9.293 C5.098,9.684 5.098,10.316 4.707,10.707 L2.707,12.707 C2.512,12.902 2.256,13 2,13" id="Fill-509" fill="#F0C419" sketch:type="MSShapeGroup"></path>
            <path d="M14.925,40.908 C14.937,40.909 14.949,40.91 14.961,40.911 C14.949,40.91 14.937,40.909 14.925,40.908" id="Fill-829" fill="#556080" sketch:type="MSShapeGroup"></path>
            <path d="M13,40.654 L13,40.654 C8.905,39.926 6,38.119 6,36 L6,53 C6,55.119 8.905,56.926 13,57.654 L13,40.654" id="Fill-830" fill="#556080" sketch:type="MSShapeGroup"></path>
            <path d="M21,40.654 L21,40.654 L21,57.654 C25.095,56.926 28,55.119 28,53 L28,36 C28,38.119 25.095,39.926 21,40.654" id="Fill-831" fill="#556080" sketch:type="MSShapeGroup"></path>
            <path d="M19.075,40.908 C19.063,40.909 19.051,40.91 19.039,40.911 C19.051,40.91 19.063,40.909 19.075,40.908" id="Fill-832" fill="#556080" sketch:type="MSShapeGroup"></path>
        </g>
    </g>
</svg>