<?xml version="1.0" encoding="UTF-8" standalone="no"?>
<svg width="60px" height="60px" viewBox="0 0 60 60" version="1.1" xmlns="http://www.w3.org/2000/svg" xmlns:xlink="http://www.w3.org/1999/xlink" xmlns:sketch="http://www.bohemiancoding.com/sketch/ns">
    <!-- Generator: Sketch 3.2.2 (9983) - http://www.bohemiancoding.com/sketch -->
    <title>6 - Fireworks (Flat)</title>
    <desc>Created with Sketch.</desc>
    <defs></defs>
    <g id="Page-1" stroke="none" stroke-width="1" fill="none" fill-rule="evenodd" sketch:type="MSPage">
        <g id="6---Fireworks-(Flat)" sketch:type="MSLayerGroup">
            <path d="M44,21 C44,23.761 41.761,26 39,26 C36.239,26 34,23.761 34,21 C34,18.239 36.239,16 39,16 C41.761,16 44,18.239 44,21" id="Fill-533" fill="#F0C419" sketch:type="MSShapeGroup"></path>
            <path d="M17.337,33.889 L16.568,36.157 L18,38.076 L15.606,38.045 L14.223,40 L13.513,37.714 L11.226,37.003 L13.181,35.62 L13.151,33.226 L15.069,34.658 L17.337,33.889" id="Fill-575" fill="#F0C419" sketch:type="MSShapeGroup"></path>
            <path d="M39,13 C38.448,13 38,12.553 38,12 L38,1 C38,0.447 38.448,0 39,0 C39.552,0 40,0.447 40,1 L40,12 C40,12.553 39.552,13 39,13" id="Fill-595" fill="#E57E25" sketch:type="MSShapeGroup"></path>
            <path d="M39,60 C38.448,60 38,59.553 38,59 L38,57.5 C38,56.947 38.448,56.5 39,56.5 C39.552,56.5 40,56.947 40,57.5 L40,59 C40,59.553 39.552,60 39,60" id="Fill-596" fill="#AF8066" sketch:type="MSShapeGroup"></path>
            <path d="M39,55.611 C38.448,55.611 38,55.164 38,54.611 L38,51.723 C38,51.17 38.448,50.723 39,50.723 C39.552,50.723 40,51.17 40,51.723 L40,54.611 C40,55.164 39.552,55.611 39,55.611 L39,55.611 Z M39,49.834 C38.448,49.834 38,49.387 38,48.834 L38,45.944 C38,45.392 38.448,44.944 39,44.944 C39.552,44.944 40,45.392 40,45.944 L40,48.834 C40,49.387 39.552,49.834 39,49.834 L39,49.834 Z M39,44.056 C38.448,44.056 38,43.608 38,43.056 L38,40.167 C38,39.614 38.448,39.167 39,39.167 C39.552,39.167 40,39.614 40,40.167 L40,43.056 C40,43.608 39.552,44.056 39,44.056 L39,44.056 Z M39,38.278 C38.448,38.278 38,37.831 38,37.278 L38,34.389 C38,33.836 38.448,33.389 39,33.389 C39.552,33.389 40,33.836 40,34.389 L40,37.278 C40,37.831 39.552,38.278 39,38.278 L39,38.278 Z" id="Fill-597" fill="#AF8066" sketch:type="MSShapeGroup"></path>
            <path d="M39,32.5 C38.448,32.5 38,32.053 38,31.5 L38,30 C38,29.447 38.448,29 39,29 C39.552,29 40,29.447 40,30 L40,31.5 C40,32.053 39.552,32.5 39,32.5" id="Fill-598" fill="#AF8066" sketch:type="MSShapeGroup"></path>
            <path d="M59,22 L48,22 C47.447,22 47,21.553 47,21 C47,20.447 47.447,20 48,20 L59,20 C59.553,20 60,20.447 60,21 C60,21.553 59.553,22 59,22" id="Fill-599" fill="#CB8252" sketch:type="MSShapeGroup"></path>
            <path d="M30,22 L19,22 C18.448,22 18,21.553 18,21 C18,20.447 18.448,20 19,20 L30,20 C30.552,20 31,20.447 31,21 C31,21.553 30.552,22 30,22" id="Fill-600" fill="#E57E25" sketch:type="MSShapeGroup"></path>
            <path d="M45.364,15.636 C45.108,15.636 44.852,15.538 44.657,15.343 C44.266,14.952 44.266,14.319 44.657,13.929 L52.436,6.15 C52.826,5.76 53.459,5.76 53.85,6.15 C54.24,6.541 54.24,7.174 53.85,7.564 L46.071,15.343 C45.875,15.538 45.62,15.636 45.364,15.636" id="Fill-601" fill="#CB8252" sketch:type="MSShapeGroup"></path>
            <path d="M26,35 C25.744,35 25.488,34.902 25.293,34.707 C24.902,34.316 24.902,33.684 25.293,33.293 L31.929,26.657 C32.32,26.267 32.953,26.267 33.343,26.657 C33.734,27.048 33.734,27.681 33.343,28.071 L26.707,34.707 C26.512,34.902 26.256,35 26,35" id="Fill-602" fill="#E57E25" sketch:type="MSShapeGroup"></path>
            <path d="M53.143,36.142 C52.887,36.142 52.631,36.045 52.436,35.85 L44.657,28.071 C44.266,27.681 44.266,27.048 44.657,26.657 C45.047,26.267 45.68,26.267 46.071,26.657 L53.85,34.436 C54.24,34.826 54.24,35.459 53.85,35.85 C53.654,36.045 53.398,36.142 53.143,36.142" id="Fill-603" fill="#CB8252" sketch:type="MSShapeGroup"></path>
            <path d="M32.636,15.636 C32.38,15.636 32.125,15.538 31.929,15.343 L24.151,7.564 C23.76,7.174 23.76,6.541 24.151,6.15 C24.542,5.76 25.174,5.76 25.565,6.15 L33.343,13.929 C33.734,14.319 33.734,14.952 33.343,15.343 C33.148,15.538 32.892,15.636 32.636,15.636" id="Fill-604" fill="#E57E25" sketch:type="MSShapeGroup"></path>
            <path d="M42.567,13.596 C42.435,13.596 42.301,13.569 42.171,13.514 C41.665,13.295 41.431,12.706 41.65,12.199 L46.011,2.101 C46.229,1.594 46.82,1.36 47.325,1.579 C47.832,1.798 48.065,2.387 47.847,2.893 L43.486,12.992 C43.323,13.37 42.954,13.596 42.567,13.596" id="Fill-605" fill="#CB8252" sketch:type="MSShapeGroup"></path>
            <path d="M31.071,40.219 C30.938,40.219 30.804,40.192 30.675,40.137 C30.168,39.918 29.934,39.329 30.153,38.822 L34.514,28.724 C34.733,28.217 35.321,27.984 35.829,28.202 C36.335,28.421 36.569,29.01 36.35,29.517 L31.989,39.615 C31.826,39.993 31.458,40.219 31.071,40.219" id="Fill-606" fill="#E57E25" sketch:type="MSShapeGroup"></path>
            <path d="M57.36,29.787 C57.229,29.787 57.094,29.761 56.965,29.705 L46.866,25.344 C46.359,25.125 46.125,24.536 46.345,24.029 C46.563,23.522 47.151,23.287 47.659,23.508 L57.758,27.869 C58.265,28.088 58.498,28.677 58.279,29.184 C58.116,29.561 57.748,29.787 57.36,29.787" id="Fill-607" fill="#CB8252" sketch:type="MSShapeGroup"></path>
            <path d="M30.737,18.29 C30.604,18.29 30.47,18.264 30.341,18.208 L20.242,13.847 C19.735,13.628 19.502,13.039 19.721,12.532 C19.94,12.025 20.527,11.793 21.035,12.011 L31.134,16.372 C31.641,16.591 31.875,17.18 31.655,17.687 C31.492,18.064 31.124,18.29 30.737,18.29" id="Fill-608" fill="#E57E25" sketch:type="MSShapeGroup"></path>
            <path d="M47.486,18.86 C47.074,18.86 46.688,18.604 46.544,18.193 C46.359,17.673 46.632,17.102 47.153,16.917 L57.525,13.253 C58.049,13.074 58.617,13.343 58.802,13.863 C58.985,14.384 58.712,14.955 58.191,15.14 L47.819,18.804 C47.709,18.842 47.597,18.86 47.486,18.86" id="Fill-609" fill="#CB8252" sketch:type="MSShapeGroup"></path>
            <path d="M24,27 C23.58,27 23.189,26.733 23.05,26.312 C22.877,25.788 23.163,25.223 23.688,25.05 L30.201,22.905 C30.726,22.732 31.291,23.019 31.463,23.543 C31.636,24.067 31.351,24.633 30.826,24.806 L24.313,26.95 C24.209,26.984 24.104,27 24,27" id="Fill-610" fill="#E57E25" sketch:type="MSShapeGroup"></path>
            <path d="M45.661,40.716 C45.249,40.716 44.863,40.46 44.718,40.049 L41.055,29.677 C40.871,29.156 41.144,28.585 41.665,28.4 C42.185,28.221 42.756,28.489 42.94,29.011 L46.604,39.383 C46.788,39.903 46.515,40.475 45.994,40.659 C45.884,40.697 45.771,40.716 45.661,40.716" id="Fill-611" fill="#CB8252" sketch:type="MSShapeGroup"></path>
            <path d="M36.002,13.372 C35.59,13.372 35.205,13.116 35.06,12.705 L31.396,2.333 C31.212,1.812 31.485,1.241 32.006,1.057 C32.526,0.877 33.098,1.146 33.282,1.667 L36.945,12.039 C37.129,12.56 36.856,13.131 36.335,13.315 C36.226,13.354 36.113,13.372 36.002,13.372" id="Fill-612" fill="#E57E25" sketch:type="MSShapeGroup"></path>
            <path d="M15,30 C14.448,30 14,29.553 14,29 L14,27 C14,26.447 14.448,26 15,26 C15.552,26 16,26.447 16,27 L16,29 C16,29.553 15.552,30 15,30 L15,30 Z M15,25 C14.448,25 14,24.553 14,24 L14,22 C14,21.447 14.448,21 15,21 C15.552,21 16,21.447 16,22 L16,24 C16,24.553 15.552,25 15,25 L15,25 Z" id="Fill-613" fill="#26B99A" sketch:type="MSShapeGroup"></path>
            <path d="M15,60 C14.448,60 14,59.553 14,59 L14,43.05 C14,42.497 14.448,42.05 15,42.05 C15.552,42.05 16,42.497 16,43.05 L16,59 C16,59.553 15.552,60 15,60" id="Fill-614" fill="#218E74" sketch:type="MSShapeGroup"></path>
            <path d="M24,38 L22,38 C21.448,38 21,37.553 21,37 C21,36.447 21.448,36 22,36 L24,36 C24.552,36 25,36.447 25,37 C25,37.553 24.552,38 24,38" id="Fill-615" fill="#26B99A" sketch:type="MSShapeGroup"></path>
            <path d="M8,37 L6,37 C5.448,37 5,36.553 5,36 C5,35.447 5.448,35 6,35 L8,35 C8.552,35 9,35.447 9,36 C9,36.553 8.552,37 8,37 L8,37 Z M3,37 L1,37 C0.448,37 0,36.553 0,36 C0,35.447 0.448,35 1,35 L3,35 C3.552,35 4,35.447 4,36 C4,36.553 3.552,37 3,37 L3,37 Z" id="Fill-616" fill="#26B99A" sketch:type="MSShapeGroup"></path>
            <path d="M20.001,34 C19.697,34 19.397,33.862 19.2,33.6 C18.869,33.158 18.958,32.531 19.4,32.2 L21,31 C21.444,30.669 22.07,30.758 22.4,31.2 C22.731,31.642 22.642,32.268 22.2,32.6 L20.6,33.8 C20.42,33.935 20.21,34 20.001,34 L20.001,34 Z M24.01,31 C23.458,31 23.005,30.553 23.005,30 C23.005,29.447 23.448,29 24,29 L24.01,29 C24.563,29 25.01,29.447 25.01,30 C25.01,30.553 24.563,31 24.01,31 L24.01,31 Z" id="Fill-617" fill="#26B99A" sketch:type="MSShapeGroup"></path>
            <path d="M5,47 C4.744,47 4.488,46.902 4.293,46.707 C3.902,46.316 3.902,45.684 4.293,45.293 L5.707,43.879 C6.098,43.488 6.731,43.488 7.121,43.879 C7.512,44.269 7.512,44.902 7.121,45.293 L5.707,46.707 C5.512,46.902 5.256,47 5,47 L5,47 Z M8.536,43.465 C8.28,43.465 8.024,43.367 7.829,43.172 C7.438,42.782 7.438,42.148 7.828,41.758 L9.242,40.343 C9.633,39.952 10.266,39.952 10.657,40.343 C11.047,40.732 11.047,41.366 10.657,41.757 L9.243,43.172 C9.048,43.367 8.792,43.465 8.536,43.465 L8.536,43.465 Z" id="Fill-618" fill="#26B99A" sketch:type="MSShapeGroup"></path>
            <path d="M9.482,32.378 C9.195,32.378 8.911,32.256 8.713,32.017 L7.433,30.48 C7.079,30.057 7.136,29.426 7.561,29.072 C7.984,28.719 8.615,28.775 8.969,29.2 L10.25,30.738 C10.603,31.162 10.546,31.793 10.122,32.146 C9.935,32.302 9.708,32.378 9.482,32.378 L9.482,32.378 Z M6.281,28.536 C5.994,28.536 5.71,28.414 5.512,28.177 L4.232,26.641 C3.878,26.216 3.935,25.585 4.36,25.231 C4.783,24.878 5.415,24.935 5.768,25.359 L7.048,26.895 C7.402,27.32 7.345,27.951 6.92,28.305 C6.733,28.46 6.506,28.536 6.281,28.536 L6.281,28.536 Z" id="Fill-619" fill="#26B99A" sketch:type="MSShapeGroup"></path>
            <path d="M17.999,31 C17.849,31 17.696,30.966 17.553,30.894 C17.059,30.647 16.858,30.047 17.106,29.553 L18,27.764 C18.247,27.27 18.846,27.07 19.342,27.316 C19.836,27.563 20.036,28.164 19.789,28.658 L18.894,30.447 C18.719,30.798 18.366,31 17.999,31 L17.999,31 Z M20.235,26.528 C20.085,26.528 19.932,26.494 19.789,26.423 C19.294,26.176 19.094,25.575 19.341,25.081 L20.106,23.553 C20.352,23.059 20.952,22.86 21.447,23.105 C21.941,23.353 22.142,23.953 21.894,24.447 L21.13,25.976 C20.955,26.326 20.602,26.528 20.235,26.528 L20.235,26.528 Z" id="Fill-620" fill="#26B99A" sketch:type="MSShapeGroup"></path>
            <path d="M8.999,50 C8.849,50 8.696,49.966 8.553,49.894 C8.059,49.647 7.858,49.047 8.106,48.553 L9,46.764 C9.247,46.269 9.847,46.07 10.342,46.316 C10.836,46.563 11.036,47.164 10.789,47.658 L9.894,49.447 C9.719,49.798 9.366,50 8.999,50 L8.999,50 Z M11.235,45.528 C11.085,45.528 10.932,45.494 10.789,45.423 C10.294,45.176 10.094,44.575 10.341,44.081 L11.106,42.553 C11.353,42.059 11.953,41.859 12.447,42.105 C12.941,42.352 13.142,42.953 12.894,43.447 L12.13,44.975 C11.955,45.326 11.602,45.528 11.235,45.528 L11.235,45.528 Z" id="Fill-621" fill="#26B99A" sketch:type="MSShapeGroup"></path>
            <path d="M26,43 C25.877,43 25.751,42.977 25.629,42.929 L25.272,42.786 C24.759,42.582 24.509,42 24.714,41.487 C24.919,40.975 25.498,40.722 26.013,40.929 L26.371,41.071 C26.883,41.275 27.133,41.857 26.929,42.37 C26.773,42.762 26.397,43 26,43 L26,43 Z M22.856,41.743 C22.733,41.743 22.607,41.721 22.485,41.672 L20.628,40.929 C20.116,40.724 19.866,40.142 20.072,39.629 C20.276,39.115 20.856,38.865 21.372,39.071 L23.229,39.814 C23.741,40.02 23.991,40.601 23.785,41.114 C23.629,41.506 23.253,41.743 22.856,41.743 L22.856,41.743 Z" id="Fill-622" fill="#26B99A" sketch:type="MSShapeGroup"></path>
            <path d="M8.434,34.758 C8.302,34.758 8.169,34.732 8.04,34.677 L6.202,33.889 C5.694,33.671 5.459,33.083 5.677,32.576 C5.894,32.068 6.483,31.832 6.99,32.051 L8.828,32.839 C9.336,33.057 9.571,33.645 9.353,34.151 C9.19,34.531 8.822,34.758 8.434,34.758 L8.434,34.758 Z M3.838,32.788 C3.707,32.788 3.573,32.763 3.444,32.707 L1.606,31.919 C1.098,31.701 0.863,31.113 1.081,30.606 C1.298,30.098 1.885,29.859 2.394,30.081 L4.232,30.869 C4.74,31.087 4.975,31.675 4.757,32.182 C4.595,32.561 4.226,32.788 3.838,32.788 L3.838,32.788 Z" id="Fill-623" fill="#26B99A" sketch:type="MSShapeGroup"></path>
            <path d="M2,42 C1.565,42 1.164,41.714 1.039,41.275 C0.887,40.744 1.194,40.19 1.725,40.038 L3.648,39.488 C4.181,39.341 4.732,39.645 4.884,40.175 C5.036,40.706 4.729,41.26 4.198,41.412 L2.275,41.962 C2.183,41.987 2.09,42 2,42 L2,42 Z M6.807,40.626 C6.372,40.626 5.971,40.34 5.846,39.9 C5.694,39.369 6.002,38.816 6.533,38.664 L8.456,38.115 C8.987,37.969 9.541,38.271 9.692,38.803 C9.844,39.334 9.536,39.887 9.005,40.039 L7.082,40.588 C6.99,40.613 6.898,40.626 6.807,40.626 L6.807,40.626 Z" id="Fill-624" fill="#26B99A" sketch:type="MSShapeGroup"></path>
            <path d="M21.884,48.824 C21.56,48.824 21.244,48.668 21.051,48.379 L19.941,46.715 C19.635,46.255 19.759,45.635 20.219,45.328 C20.678,45.021 21.298,45.145 21.606,45.605 L22.715,47.269 C23.021,47.729 22.897,48.35 22.438,48.656 C22.267,48.769 22.074,48.824 21.884,48.824 L21.884,48.824 Z M19.11,44.664 C18.787,44.664 18.47,44.508 18.277,44.219 L17.168,42.555 C16.862,42.095 16.986,41.475 17.445,41.168 C17.904,40.862 18.524,40.985 18.832,41.445 L19.941,43.109 C20.248,43.569 20.123,44.189 19.664,44.496 C19.494,44.609 19.301,44.664 19.11,44.664 L19.11,44.664 Z" id="Fill-625" fill="#26B99A" sketch:type="MSShapeGroup"></path>
            <path d="M11.922,30.73 C11.487,30.73 11.087,30.444 10.961,30.005 L10.412,28.082 C10.26,27.551 10.568,26.998 11.099,26.846 C11.63,26.699 12.184,27.002 12.335,27.533 L12.884,29.456 C13.036,29.987 12.729,30.54 12.198,30.692 C12.106,30.718 12.013,30.73 11.922,30.73 L11.922,30.73 Z M10.549,25.923 C10.114,25.923 9.713,25.637 9.588,25.197 L9.039,23.274 C8.887,22.743 9.194,22.19 9.725,22.038 C10.256,21.891 10.81,22.194 10.961,22.726 L11.511,24.648 C11.663,25.18 11.355,25.732 10.824,25.885 C10.732,25.91 10.64,25.923 10.549,25.923 L10.549,25.923 Z" id="Fill-626" fill="#26B99A" sketch:type="MSShapeGroup"></path>
            <path d="M8,11.5 C8,12.881 6.881,14 5.5,14 C4.119,14 3,12.881 3,11.5 C3,10.119 4.119,9 5.5,9 C6.881,9 8,10.119 8,11.5" id="Fill-698" fill="#F0C419" sketch:type="MSShapeGroup"></path>
            <path d="M17,5.5 C17,6.881 15.881,8 14.5,8 C13.119,8 12,6.881 12,5.5 C12,4.119 13.119,3 14.5,3 C15.881,3 17,4.119 17,5.5" id="Fill-699" fill="#FBD490" sketch:type="MSShapeGroup"></path>
            <path d="M15,12.5 C15,13.328 14.328,14 13.5,14 C12.672,14 12,13.328 12,12.5 C12,11.672 12.672,11 13.5,11 C14.328,11 15,11.672 15,12.5" id="Fill-700" fill="#0096E6" sketch:type="MSShapeGroup"></path>
            <path d="M10,17.5 C10,18.328 9.328,19 8.5,19 C7.672,19 7,18.328 7,17.5 C7,16.672 7.672,16 8.5,16 C9.328,16 10,16.672 10,17.5" id="Fill-701" fill="#7D6599" sketch:type="MSShapeGroup"></path>
        </g>
    </g>
</svg>