<?xml version="1.0" encoding="UTF-8" standalone="no"?>
<svg width="56px" height="56px" viewBox="0 0 56 56" version="1.1" xmlns="http://www.w3.org/2000/svg" xmlns:xlink="http://www.w3.org/1999/xlink" xmlns:sketch="http://www.bohemiancoding.com/sketch/ns">
    <!-- Generator: Sketch 3.2.2 (9983) - http://www.bohemiancoding.com/sketch -->
    <title>17 - Full Moon (Flat)</title>
    <desc>Created with Sketch.</desc>
    <defs></defs>
    <g id="Page-1" stroke="none" stroke-width="1" fill="none" fill-rule="evenodd" sketch:type="MSPage">
        <g id="17---Full-Moon-(Flat)" sketch:type="MSLayerGroup">
            <path d="M56,28 C56,43.464 43.464,56 28,56 C12.536,56 0,43.464 0,28 C0,12.536 12.536,0 28,0 C43.464,0 56,12.536 56,28" id="Fill-330" fill="#FBD490" sketch:type="MSShapeGroup"></path>
            <path d="M24,23 C24,25.761 21.761,28 19,28 C16.239,28 14,25.761 14,23 C14,20.239 16.239,18 19,18 C21.761,18 24,20.239 24,23" id="Fill-331" fill="#D3B27D" sketch:type="MSShapeGroup"></path>
            <path d="M41,15 C41,17.209 39.209,19 37,19 C34.791,19 33,17.209 33,15 C33,12.791 34.791,11 37,11 C39.209,11 41,12.791 41,15" id="Fill-332" fill="#D3B27D" sketch:type="MSShapeGroup"></path>
            <path d="M34,5.5 C34,6.881 32.881,8 31.5,8 C30.119,8 29,6.881 29,5.5 C29,4.119 30.119,3 31.5,3 C32.881,3 34,4.119 34,5.5" id="Fill-333" fill="#D3B27D" sketch:type="MSShapeGroup"></path>
            <path d="M9,29.5 C9,30.881 7.881,32 6.5,32 C5.119,32 4,30.881 4,29.5 C4,28.119 5.119,27 6.5,27 C7.881,27 9,28.119 9,29.5" id="Fill-334" fill="#D3B27D" sketch:type="MSShapeGroup"></path>
            <path d="M12,14.5 C12,15.881 10.881,17 9.5,17 C8.119,17 7,15.881 7,14.5 C7,13.119 8.119,12 9.5,12 C10.881,12 12,13.119 12,14.5" id="Fill-335" fill="#D3B27D" sketch:type="MSShapeGroup"></path>
            <path d="M51,19 C52.203,19 53.27,18.458 54.003,17.617 C53.061,15.26 51.812,13.061 50.299,11.071 C48.425,11.403 47,13.031 47,15 C47,17.209 48.791,19 51,19" id="Fill-519" fill="#D3B27D" sketch:type="MSShapeGroup"></path>
            <path d="M19,6 C21.761,6 24,3.761 24,1 C24,0.76 23.962,0.529 23.929,0.298 C20.606,0.782 17.471,1.846 14.634,3.391 C15.484,4.938 17.11,6 19,6" id="Fill-520" fill="#D3B27D" sketch:type="MSShapeGroup"></path>
        </g>
    </g>
</svg>