<?xml version="1.0" encoding="UTF-8" standalone="no"?>
<svg width="50px" height="57px" viewBox="0 0 50 57" version="1.1" xmlns="http://www.w3.org/2000/svg" xmlns:xlink="http://www.w3.org/1999/xlink" xmlns:sketch="http://www.bohemiancoding.com/sketch/ns">
    <!-- Generator: Sketch 3.2.2 (9983) - http://www.bohemiancoding.com/sketch -->
    <title>75 - Gift (Flat)</title>
    <desc>Created with Sketch.</desc>
    <defs></defs>
    <g id="Page-1" stroke="none" stroke-width="1" fill="none" fill-rule="evenodd" sketch:type="MSPage">
        <g id="75---Gift-(Flat)" sketch:type="MSLayerGroup">
            <path d="M41.977,2.649 C41.301,1.406 40.106,0.533 38.7,0.254 C34.058,-0.669 29.722,0.995 26.231,4.979 C25.704,5.579 24.771,5.578 24.246,4.977 C20.757,0.987 16.42,-0.673 11.741,0.254 C10.336,0.533 9.142,1.406 8.466,2.648 C7.294,4.797 7.126,7.16 7.991,9.299 C8.954,11.684 11.164,13.772 14.585,15.538 C15.64,16.083 15.545,17.614 14.419,17.99 L14.389,18 L29.648,18 L29.94,17.908 C36.805,15.753 41.014,12.857 42.45,9.301 C43.561,6.557 42.806,4.169 41.977,2.649 L41.977,2.649 Z M11.977,4.562 C12.082,4.371 12.29,4.224 12.522,4.178 C13.114,4.06 13.7,4 14.264,4 C19.136,4 22.364,8.57 24.127,12.093 C24.566,12.969 23.912,14 22.932,14 L21.628,14 C21.484,14 21.338,13.977 21.201,13.932 C15.979,12.227 12.611,10.056 11.699,7.801 C11.279,6.762 11.373,5.672 11.977,4.562 L11.977,4.562 Z M36.178,4 C36.743,4 37.329,4.06 37.922,4.178 C38.152,4.224 38.36,4.371 38.465,4.561 C39.068,5.672 39.162,6.763 38.743,7.802 C37.909,9.867 35.011,11.862 30.517,13.493 C29.838,13.739 29.085,13.417 28.818,12.745 C28.565,12.109 28.25,11.376 27.871,10.591 C27.666,10.168 27.683,9.666 27.949,9.278 C29.744,6.661 32.479,4 36.178,4 L36.178,4 Z" id="Fill-59" fill="#ECF0F1" sketch:type="MSShapeGroup"></path>
            <path d="M47,27 L31.644,27 L36,32 L31.111,32 L31.111,38 L25.511,29.317 L20,38 L20,32 L15,32 L19.356,27 L3,27 L3,57 L47,57 L47,27" id="Fill-97" fill="#E74C3B" sketch:type="MSShapeGroup"></path>
            <path d="M48.539,16 L1.461,16 C0.654,16 0,16.654 0,17.461 L0,25.539 C0,26.346 0.654,27 1.461,27 L18.692,27 L32.308,27 L48.539,27 C49.346,27 50,26.346 50,25.539 L50,17.461 C50,16.654 49.346,16 48.539,16" id="Fill-98" fill="#C13A2A" sketch:type="MSShapeGroup"></path>
            <path d="M24.743,24 L21.97,24 L15,32 L20,32 L20,38 L25.511,29.317 L31.111,38 L31.111,32 L36,32 L29.03,24 L24.743,24" id="Fill-113" fill="#FFFFFF" sketch:type="MSShapeGroup"></path>
            <path d="M24.743,24 L29,24 L29,16 L22,16 L22,24 L24.743,24" id="Fill-751" fill="#D1D4D1" sketch:type="MSShapeGroup"></path>
            <path d="M25.511,29.317 L23,33.274 L23,57 L28,57 L28,33.177 L25.511,29.317" id="Fill-752" fill="#D1D4D1" sketch:type="MSShapeGroup"></path>
        </g>
    </g>
</svg>