<?xml version="1.0" encoding="UTF-8" standalone="no"?>
<svg width="56px" height="58px" viewBox="0 0 56 58" version="1.1" xmlns="http://www.w3.org/2000/svg" xmlns:xlink="http://www.w3.org/1999/xlink" xmlns:sketch="http://www.bohemiancoding.com/sketch/ns">
    <!-- Generator: Sketch 3.2.2 (9983) - http://www.bohemiancoding.com/sketch -->
    <title>76 - Gingerbread House (Flat)</title>
    <desc>Created with Sketch.</desc>
    <defs></defs>
    <g id="Page-1" stroke="none" stroke-width="1" fill="none" fill-rule="evenodd" sketch:type="MSPage">
        <g id="76---Gingerbread-House-(Flat)" sketch:type="MSLayerGroup">
            <path d="M47,33 C47,35.577 44.577,38 42,38 C39.423,38 37,35.577 37,33 C37,35.577 35.244,38 32.667,38 C30.089,38 28,35.577 28,33 C28,35.577 25.911,38 23.333,38 C20.756,38 19,35.577 19,33 C19,35.577 16.577,38 14,38 C11.423,38 9,35.577 9,33 C9,35.111 7.923,37.207 6,37.783 L6,57 L50,57 L50,37.783 C48.077,37.207 47,35.111 47,33" id="Fill-110" fill="#CB8252" sketch:type="MSShapeGroup"></path>
            <path d="M23,55.5 L23,45.5 C23,43.025 20.975,41 18.5,41 C16.025,41 14,43.025 14,45.5 L14,55.5 C14,56.028 14.109,56.528 14.278,57 L22.722,57 C22.891,56.528 23,56.028 23,55.5" id="Fill-111" fill="#E9E7E9" sketch:type="MSShapeGroup"></path>
            <path d="M30,41 L42,41 L42,53 L30,53 L30,41 Z" id="Fill-112" fill="#E9E7E9" sketch:type="MSShapeGroup"></path>
            <path d="M33,0 L40,0 L40,8 L33,8 L33,0 Z" id="Fill-874" fill="#CB8252" sketch:type="MSShapeGroup"></path>
            <path d="M52.719,17.19 C52.072,18.66 50.818,19.5 49.079,19.5 C47.361,19.5 45.9,18.486 44.992,17.121 C44.07,18.486 42.587,19.5 40.843,19.5 C39.122,19.5 37.736,18.496 36.894,17.123 C35.864,18.514 34.245,19.5 32.607,19.5 C30.948,19.5 29.271,18.51 28.189,17.132 C27.41,18.507 26.097,19.5 24.371,19.5 C22.71,19.5 21.104,18.533 20.087,17.146 C19.241,18.507 17.854,19.5 16.134,19.5 C14.398,19.5 12.921,18.486 12.003,17.121 C11.091,18.486 9.623,19.5 7.898,19.5 C5.91,19.5 4.202,18.397 3.355,16.805 L1.908,24.333 C2.368,24.422 2.723,24.809 2.723,25.295 C2.723,27.075 4.112,28.416 5.955,28.416 C7.861,28.416 9,26.679 9,25 C9,24.448 9.448,24 10,24 C10.552,24 11,24.448 11,25 C11,26.724 12.865,28.416 14.766,28.416 C16.701,28.416 18,26.65 18,25 C18,24.448 18.448,24 19,24 C19.552,24 20,24.448 20,25 C20,26.756 21.738,28.416 23.577,28.416 C25.369,28.416 27,26.788 27,25 C27,24.448 27.448,24 28,24 C28.552,24 29,24.448 29,25 C29,26.82 30.583,28.416 32.389,28.416 C34.245,28.416 36,26.756 36,25 C36,24.448 36.448,24 37,24 C37.552,24 38,24.448 38,25 C38,26.65 39.286,28.416 41.2,28.416 C43.082,28.416 45,26.692 45,25 C45,24.448 45.447,24 46,24 C46.553,24 47,24.448 47,25 C47,26.679 48.126,28.416 50.011,28.416 C51.843,28.416 53.277,27.045 53.277,25.295 C53.277,24.81 53.63,24.424 54.09,24.334 C54.091,24.333 54.092,24.332 54.092,24.332 L52.719,17.19" id="Fill-877" fill="#B26C46" sketch:type="MSShapeGroup"></path>
            <path d="M54.718,27.587 L54.715,27.587 C53.862,29.271 52.107,30.416 50.011,30.416 C48.139,30.416 46.717,29.435 45.874,28.079 C44.789,29.463 43.044,30.416 41.2,30.416 C39.426,30.416 37.856,29.486 36.917,28.07 C35.869,29.459 34.177,30.416 32.389,30.416 C30.592,30.416 28.967,29.478 27.982,28.073 C26.98,29.469 25.345,30.416 23.577,30.416 C21.768,30.416 20.094,29.478 19.062,28.092 C18.115,29.496 16.543,30.416 14.766,30.416 C12.933,30.416 11.198,29.463 10.12,28.079 C9.271,29.436 7.839,30.416 5.955,30.416 C3.873,30.416 2.129,29.272 1.282,27.588 L0.135,33.552 C-0.001,34.337 0.003,35.157 0.272,35.907 C0.918,37.71 2.642,39 4.667,39 C7.244,39 9,36.577 9,34 C9,36.577 11.423,39 14,39 C16.577,39 19,36.577 19,34 C19,36.577 20.756,39 23.333,39 C25.911,39 28,36.577 28,34 C28,36.577 30.089,39 32.667,39 C35.244,39 37,36.577 37,34 C37,36.577 39.423,39 42,39 C44.577,39 47,36.577 47,34 C47,36.577 48.756,39 51.333,39 C53.358,39 55.082,37.71 55.728,35.907 C55.997,35.157 56.001,34.337 55.865,33.552 L54.718,27.587" id="Fill-878" fill="#9B593D" sketch:type="MSShapeGroup"></path>
            <path d="M4.78,14.595 C4.78,16.197 6.179,17.5 7.898,17.5 C9.617,17.5 11,15.585 11,14 C11,13.448 11.448,13 12,13 C12.552,13 13,13.448 13,14 C13,15.585 14.398,17.5 16.134,17.5 C17.774,17.5 19,15.652 19,14 C19,13.448 19.448,13 20,13 C20.552,13 21,13.448 21,14 C21,15.701 22.732,17.5 24.371,17.5 C25.995,17.5 27,15.683 27,14 C27,13.448 27.448,13 28,13 C28.552,13 29,13.448 29,14 C29,15.636 30.921,17.5 32.607,17.5 C34.256,17.5 36,15.701 36,14 C36,13.448 36.448,13 37,13 C37.552,13 38,13.448 38,14 C38,15.655 39.167,17.5 40.843,17.5 C42.592,17.5 44,15.585 44,14 C44,13.448 44.447,13 45,13 C45.553,13 46,13.448 46,14 C46,15.585 47.373,17.5 49.079,17.5 C49.608,17.5 51.22,17.5 51.22,14.595 C51.22,14.108 51.574,13.722 52.035,13.632 L51.419,10.428 C51.177,9.025 49.96,8 48.537,8 L7.463,8 C6.04,8 4.823,9.025 4.581,10.428 L3.965,13.632 C4.426,13.722 4.78,14.108 4.78,14.595" id="Fill-879" fill="#C1724F" sketch:type="MSShapeGroup"></path>
            <path d="M3.355,16.805 C4.202,18.397 5.91,19.5 7.898,19.5 C9.623,19.5 11.091,18.486 12.003,17.121 C12.921,18.486 14.398,19.5 16.134,19.5 C17.854,19.5 19.241,18.507 20.087,17.146 C21.104,18.533 22.71,19.5 24.371,19.5 C26.097,19.5 27.41,18.507 28.189,17.132 C29.271,18.51 30.948,19.5 32.607,19.5 C34.245,19.5 35.864,18.514 36.894,17.123 C37.736,18.496 39.122,19.5 40.843,19.5 C42.587,19.5 44.07,18.486 44.992,17.121 C45.9,18.486 47.361,19.5 49.079,19.5 C50.818,19.5 52.072,18.66 52.719,17.19 L52.035,13.632 C51.574,13.722 51.22,14.108 51.22,14.595 C51.22,17.5 49.608,17.5 49.079,17.5 C47.373,17.5 46,15.585 46,14 C46,13.448 45.553,13 45,13 C44.447,13 44,13.448 44,14 C44,15.585 42.592,17.5 40.843,17.5 C39.167,17.5 38,15.655 38,14 C38,13.448 37.552,13 37,13 C36.448,13 36,13.448 36,14 C36,15.701 34.256,17.5 32.607,17.5 C30.921,17.5 29,15.636 29,14 C29,13.448 28.552,13 28,13 C27.448,13 27,13.448 27,14 C27,15.683 25.995,17.5 24.371,17.5 C22.732,17.5 21,15.701 21,14 C21,13.448 20.552,13 20,13 C19.448,13 19,13.448 19,14 C19,15.652 17.774,17.5 16.134,17.5 C14.398,17.5 13,15.585 13,14 C13,13.448 12.552,13 12,13 C11.448,13 11,13.448 11,14 C11,15.585 9.617,17.5 7.898,17.5 C6.179,17.5 4.78,16.197 4.78,14.595 C4.78,14.108 4.426,13.722 3.965,13.632 L3.621,15.423 L3.831,14.331 L3.355,16.805" id="Fill-880" fill="#E9E7E9" sketch:type="MSShapeGroup"></path>
            <path d="M3.831,14.331 L3.355,16.805 L3.831,14.331" id="Fill-881" fill="#E9E7E9" sketch:type="MSShapeGroup"></path>
            <path d="M1.908,24.333 L1.282,27.588 L1.908,24.333" id="Fill-882" fill="#E9E7E9" sketch:type="MSShapeGroup"></path>
            <path d="M5.955,30.416 C7.839,30.416 9.271,29.436 10.12,28.079 C11.198,29.463 12.933,30.416 14.766,30.416 C16.543,30.416 18.115,29.496 19.062,28.092 C20.094,29.478 21.768,30.416 23.577,30.416 C25.345,30.416 26.98,29.469 27.982,28.073 C28.967,29.478 30.592,30.416 32.389,30.416 C34.177,30.416 35.869,29.459 36.917,28.07 C37.856,29.486 39.426,30.416 41.2,30.416 C43.044,30.416 44.789,29.463 45.874,28.079 C46.717,29.435 48.139,30.416 50.011,30.416 C52.109,30.416 53.865,29.27 54.718,27.583 L54.093,24.333 C53.632,24.422 53.277,24.809 53.277,25.295 C53.277,27.045 51.843,28.416 50.011,28.416 C48.126,28.416 47,26.679 47,25 C47,24.448 46.553,24 46,24 C45.447,24 45,24.448 45,25 C45,26.692 43.082,28.416 41.2,28.416 C39.286,28.416 38,26.65 38,25 C38,24.448 37.552,24 37,24 C36.448,24 36,24.448 36,25 C36,26.756 34.245,28.416 32.389,28.416 C30.583,28.416 29,26.82 29,25 C29,24.448 28.552,24 28,24 C27.448,24 27,24.448 27,25 C27,26.788 25.369,28.416 23.577,28.416 C21.738,28.416 20,26.756 20,25 C20,24.448 19.552,24 19,24 C18.448,24 18,24.448 18,25 C18,26.65 16.701,28.416 14.766,28.416 C12.865,28.416 11,26.724 11,25 C11,24.448 10.552,24 10,24 C9.448,24 9,24.448 9,25 C9,26.679 7.861,28.416 5.955,28.416 C4.112,28.416 2.723,27.075 2.723,25.295 C2.723,24.809 2.368,24.422 1.908,24.333 L1.282,27.588 C2.129,29.272 3.873,30.416 5.955,30.416" id="Fill-883" fill="#E9E7E9" sketch:type="MSShapeGroup"></path>
            <path d="M3,56 L53,56 L53,58 L3,58 L3,56 Z" id="Fill-884" fill="#C1724F" sketch:type="MSShapeGroup"></path>
        </g>
    </g>
</svg>