<?xml version="1.0" encoding="UTF-8" standalone="no"?>
<svg width="40px" height="58px" viewBox="0 0 40 58" version="1.1" xmlns="http://www.w3.org/2000/svg" xmlns:xlink="http://www.w3.org/1999/xlink" xmlns:sketch="http://www.bohemiancoding.com/sketch/ns">
    <!-- Generator: Sketch 3.2.2 (9983) - http://www.bohemiancoding.com/sketch -->
    <title>68 - Globe (Flat)</title>
    <desc>Created with Sketch.</desc>
    <defs></defs>
    <g id="Page-1" stroke="none" stroke-width="1" fill="none" fill-rule="evenodd" sketch:type="MSPage">
        <g id="68---Globe-(Flat)" sketch:type="MSLayerGroup">
            <path d="M20,15 C17.161,15 15.182,10.784 15.182,7 C15.182,3.075 17.298,0 20,0 C22.702,0 24.818,3.075 24.818,7 C24.818,10.784 22.839,15 20,15 L20,15 Z M20,2 C18.499,2 17.182,4.336 17.182,7 C17.182,10.09 18.77,13 20,13 C21.231,13 22.818,10.09 22.818,7 C22.818,4.336 21.502,2 20,2 L20,2 Z" id="Fill-55" fill="#464F5D" sketch:type="MSShapeGroup"></path>
            <path d="M40,38 C40,49.046 31.046,58 20,58 C8.954,58 0,49.046 0,38 C0,26.954 8.954,18 20,18 C31.046,18 40,26.954 40,38" id="Fill-94" fill="#C13A2A" sketch:type="MSShapeGroup"></path>
            <path d="M20,18 C22.091,18 24.106,18.323 26,18.918 L26,15.952 C26,14.874 25.126,14 24.048,14 L15.952,14 C14.874,14 14,14.874 14,15.952 L14,18.918 C15.894,18.323 17.909,18 20,18" id="Fill-95" fill="#F0C419" sketch:type="MSShapeGroup"></path>
            <path d="M34.372,34.071 L30.908,32.686 L34.452,30.892 C34.944,30.643 35.142,30.041 34.892,29.548 C34.642,29.055 34.04,28.858 33.548,29.108 L30,30.904 L30,27 C30,26.448 29.552,26 29,26 C28.448,26 28,26.448 28,27 L28,31.916 L21,35.46 L21,28.528 L24.604,25.797 C25.044,25.463 25.13,24.836 24.797,24.396 C24.463,23.956 23.837,23.867 23.396,24.203 L21,26.019 L21,22 C21,21.448 20.552,21 20,21 C19.448,21 19,21.448 19,22 L19,26.019 L16.604,24.203 C16.163,23.868 15.536,23.956 15.203,24.396 C14.87,24.836 14.956,25.463 15.396,25.797 L19,28.528 L19,35.287 L13,31.555 L13,26.969 C13,26.416 12.552,25.969 12,25.969 C11.448,25.969 11,26.416 11,26.969 L11,30.31 L7.528,28.151 C7.059,27.859 6.442,28.003 6.151,28.472 C5.859,28.941 6.003,29.557 6.472,29.849 L9.686,31.848 L6.628,33.071 C6.116,33.277 5.866,33.858 6.071,34.372 C6.228,34.762 6.603,35 7,35 C7.124,35 7.25,34.977 7.372,34.929 L11.794,33.16 L17.945,36.986 L11.22,40.307 L7.504,38.137 C7.026,37.857 6.415,38.018 6.137,38.496 C5.858,38.973 6.019,39.585 6.496,39.863 L9.072,41.368 L5.557,43.103 C5.062,43.348 4.859,43.948 5.103,44.443 C5.278,44.795 5.632,45 6.001,45 C6.149,45 6.3,44.967 6.443,44.896 L9.861,43.208 L9.026,46.772 C8.9,47.31 9.234,47.848 9.772,47.974 C9.849,47.992 9.925,48 10.001,48 C10.455,48 10.866,47.689 10.974,47.228 L12.184,42.061 L19,38.696 L19,46.634 L15.419,49.185 C14.97,49.506 14.865,50.13 15.185,50.581 C15.381,50.854 15.689,51 16.001,51 C16.202,51 16.404,50.94 16.581,50.814 L19,49.09 L19,52 C19,52.552 19.448,53 20,53 C20.552,53 21,52.552 21,52 L21,49.09 L23.419,50.814 C23.596,50.94 23.798,51 23.999,51 C24.311,51 24.619,50.854 24.815,50.581 C25.135,50.13 25.03,49.506 24.581,49.185 L21,46.634 L21,38.985 L27.041,43.127 L27,47.992 C26.996,48.544 27.44,48.995 27.992,49 L28,49 C28.548,49 28.995,48.557 29,48.008 L29.03,44.49 L32.435,46.825 C32.607,46.943 32.804,47 32.999,47 C33.318,47 33.631,46.848 33.825,46.565 C34.137,46.11 34.021,45.487 33.565,45.175 L29.677,42.51 L33.394,40.919 C33.901,40.702 34.137,40.114 33.919,39.606 C33.702,39.099 33.114,38.865 32.606,39.081 L27.724,41.17 L21.958,37.217 L28.549,33.88 C28.574,33.893 28.594,33.912 28.62,33.923 C28.623,33.925 28.625,33.927 28.628,33.929 L33.628,35.929 C33.751,35.977 33.876,36 34,36 C34.397,36 34.772,35.762 34.929,35.372 C35.134,34.858 34.884,34.277 34.372,34.071" id="Fill-109" fill="#E74C3B" sketch:type="MSShapeGroup"></path>
        </g>
    </g>
</svg>