<?xml version="1.0" encoding="UTF-8" standalone="no"?>
<svg width="38px" height="55px" viewBox="0 0 38 55" version="1.1" xmlns="http://www.w3.org/2000/svg" xmlns:xlink="http://www.w3.org/1999/xlink" xmlns:sketch="http://www.bohemiancoding.com/sketch/ns">
    <!-- Generator: Sketch 3.2.2 (9983) - http://www.bohemiancoding.com/sketch -->
    <title>24 - Grave Stone (Flat)</title>
    <desc>Created with Sketch.</desc>
    <defs></defs>
    <g id="Page-1" stroke="none" stroke-width="1" fill="none" fill-rule="evenodd" sketch:type="MSPage">
        <g id="24---Grave-Stone-(Flat)" sketch:type="MSLayerGroup">
            <path d="M0,55 L0,19 C0,8.55 8.55,0 19,0 C29.45,0 38,8.55 38,19 L38,55 L0,55" id="Fill-307" fill="#464F5D" sketch:type="MSShapeGroup"></path>
            <path d="M29.583,33.036 C29.483,33.036 29.382,33.021 29.281,32.989 L19.698,29.953 C19.172,29.786 18.88,29.225 19.047,28.698 C19.214,28.172 19.773,27.878 20.302,28.047 L29.885,31.083 C30.411,31.25 30.703,31.811 30.536,32.338 C30.401,32.765 30.008,33.036 29.583,33.036" id="Fill-308" fill="#5F6E82" sketch:type="MSShapeGroup"></path>
            <path d="M26,40 C25.447,40 25,39.553 25,39 C25,38.447 25.447,38 26,38 C27.22,38 28.583,35.449 28.583,32.036 C28.583,31.483 29.03,31.036 29.583,31.036 C30.136,31.036 30.583,31.483 30.583,32.036 C30.583,36.576 28.612,40 26,40" id="Fill-309" fill="#5F6E82" sketch:type="MSShapeGroup"></path>
            <path d="M19,39 C18.447,39 18,38.553 18,38 C18,33.589 21.589,30 26,30 C26.553,30 27,30.447 27,31 C27,31.553 26.553,32 26,32 C22.691,32 20,34.691 20,38 C20,38.553 19.553,39 19,39" id="Fill-310" fill="#5F6E82" sketch:type="MSShapeGroup"></path>
            <path d="M23,53 C22.581,53 22.191,52.735 22.052,52.316 C21.877,51.792 22.16,51.226 22.684,51.052 L31.684,48.052 C32.213,47.875 32.773,48.16 32.948,48.684 C33.123,49.208 32.84,49.774 32.316,49.948 L23.316,52.948 C23.211,52.983 23.104,53 23,53" id="Fill-311" fill="#5F6E82" sketch:type="MSShapeGroup"></path>
            <path d="M32,50 C27.589,50 24,46.411 24,42 C24,41.447 24.447,41 25,41 C25.553,41 26,41.447 26,42 C26,45.309 28.691,48 32,48 C32.553,48 33,48.447 33,49 C33,49.553 32.553,50 32,50" id="Fill-312" fill="#5F6E82" sketch:type="MSShapeGroup"></path>
            <path d="M19,9 C18.447,9 18,8.553 18,8 L18,4 C18,3.447 18.447,3 19,3 C19.553,3 20,3.447 20,4 L20,8 C20,8.553 19.553,9 19,9" id="Fill-313" fill="#5F6E82" sketch:type="MSShapeGroup"></path>
            <path d="M5,42 C4.447,42 4,41.553 4,41 C4,38.21 5.467,33 9,33 C9.553,33 10,33.447 10,34 C10,34.553 9.553,35 9,35 C7.168,35 6,38.939 6,41 C6,41.553 5.553,42 5,42" id="Fill-314" fill="#5F6E82" sketch:type="MSShapeGroup"></path>
            <path d="M10.999,50 C10.82,50 10.64,49.952 10.477,49.852 C10.006,49.562 9.858,48.947 10.148,48.477 C10.581,47.77 9.596,46.984 7.363,45.593 C5.634,44.514 4,43.495 4,42 C4,41.447 4.447,41 5,41 C5.551,41 5.998,41.446 6,41.997 C6.066,42.427 7.598,43.382 8.422,43.895 C10.523,45.206 13.401,47.001 11.853,49.523 C11.663,49.831 11.335,50 10.999,50" id="Fill-315" fill="#5F6E82" sketch:type="MSShapeGroup"></path>
            <path d="M7,10 L32,10 L32,25 L7,25 L7,10 Z" id="Fill-316" fill="#708499" sketch:type="MSShapeGroup"></path>
            <path d="M6.001,32 C5.678,32 5.36,31.844 5.168,31.555 L3.168,28.555 C2.861,28.095 2.985,27.475 3.445,27.168 C3.905,26.862 4.525,26.985 4.832,27.445 L6.832,30.445 C7.139,30.905 7.015,31.525 6.555,31.832 C6.384,31.945 6.191,32 6.001,32" id="Fill-317" fill="#5F6E82" sketch:type="MSShapeGroup"></path>
            <path d="M20,12 C19.447,12 19,12.447 19,13 L19,22 C19,22.553 19.447,23 20,23 C20.553,23 21,22.553 21,22 L21,13 C21,12.447 20.553,12 20,12" id="Fill-320" fill="#D0E8F9" sketch:type="MSShapeGroup"></path>
            <path d="M17,16 C17,13.794 15.206,12 13,12 L11,12 C10.447,12 10,12.447 10,13 L10,22 C10,22.553 10.447,23 11,23 C11.553,23 12,22.553 12,22 L12,20 L12.586,20 L15.293,22.707 C15.488,22.902 15.744,23 16,23 C16.256,23 16.512,22.902 16.707,22.707 C17.098,22.316 17.098,21.684 16.707,21.293 L14.908,19.494 C16.148,18.814 17,17.512 17,16 L17,16 Z M13,18 L12,18 L12,14 L13,14 C14.103,14 15,14.897 15,16 C15,17.102 14.103,18 13,18 L13,18 Z" id="Fill-321" fill="#D0E8F9" sketch:type="MSShapeGroup"></path>
            <path d="M26,12 L24,12 C23.447,12 23,12.447 23,13 L23,22 C23,22.553 23.447,23 24,23 C24.553,23 25,22.553 25,22 L25,20 L26,20 C28.206,20 30,18.206 30,16 C30,13.794 28.206,12 26,12 L26,12 Z M26,18 L25,18 L25,14 L26,14 C27.102,14 28,14.897 28,16 C28,17.102 27.102,18 26,18 L26,18 Z" id="Fill-322" fill="#D0E8F9" sketch:type="MSShapeGroup"></path>
            <path d="M12.065,1.336 C12.156,1.588 12.341,1.805 12.606,1.919 L26.606,7.919 C26.734,7.975 26.868,8 27,8 C27.388,8 27.757,7.773 27.919,7.394 C28.137,6.887 27.901,6.299 27.394,6.081 L14.513,0.561 C13.675,0.766 12.857,1.023 12.065,1.336" id="Fill-837" fill="#5F6E82" sketch:type="MSShapeGroup"></path>
            <path d="M23,6 C23.256,6 23.512,5.902 23.707,5.707 L26.707,2.707 C26.959,2.454 27.031,2.104 26.957,1.78 C26.475,1.555 25.982,1.353 25.48,1.169 C25.416,1.209 25.348,1.238 25.293,1.293 L22.293,4.293 C21.902,4.684 21.902,5.316 22.293,5.707 C22.488,5.902 22.744,6 23,6" id="Fill-838" fill="#5F6E82" sketch:type="MSShapeGroup"></path>
            <path d="M38,28.008 C37.887,28.008 37.773,28.018 37.661,28.06 L29.244,31.096 C28.725,31.283 28.455,31.855 28.643,32.375 C28.789,32.783 29.174,33.036 29.583,33.036 C29.695,33.036 29.81,33.018 29.922,32.977 L38,30.063 L38,28.008" id="Fill-839" fill="#5F6E82" sketch:type="MSShapeGroup"></path>
            <path d="M38,53.586 L32.707,48.293 C32.316,47.902 31.684,47.902 31.293,48.293 C30.902,48.684 30.902,49.316 31.293,49.707 L36.586,55 L38,55 L38,53.586" id="Fill-840" fill="#5F6E82" sketch:type="MSShapeGroup"></path>
            <path d="M0,42.988 C0.025,42.988 0.046,42.999 0.071,42.997 L13.616,42.03 L16.293,44.707 C16.488,44.902 16.744,45 17,45 C17.256,45 17.512,44.902 17.707,44.707 C18.098,44.316 18.098,43.684 17.707,43.293 L14.707,40.293 C14.502,40.088 14.216,39.978 13.929,40.003 L0,40.998 L0,42.988" id="Fill-841" fill="#5F6E82" sketch:type="MSShapeGroup"></path>
            <path d="M6.707,25.707 C7.098,25.316 7.098,24.684 6.707,24.293 C6.316,23.902 5.684,23.902 5.293,24.293 L0,29.586 L0,32 C0.256,32 0.512,31.902 0.707,31.707 L6.707,25.707" id="Fill-842" fill="#5F6E82" sketch:type="MSShapeGroup"></path>
        </g>
    </g>
</svg>