<?xml version="1.0" encoding="UTF-8" standalone="no"?>
<svg width="52px" height="53px" viewBox="0 0 52 53" version="1.1" xmlns="http://www.w3.org/2000/svg" xmlns:xlink="http://www.w3.org/1999/xlink" xmlns:sketch="http://www.bohemiancoding.com/sketch/ns">
    <!-- Generator: Sketch 3.2.2 (9983) - http://www.bohemiancoding.com/sketch -->
    <title>8 - Happy New Year (Flat)</title>
    <desc>Created with Sketch.</desc>
    <defs></defs>
    <g id="Page-1" stroke="none" stroke-width="1" fill="none" fill-rule="evenodd" sketch:type="MSPage">
        <g id="8---Happy-New-Year-(Flat)" sketch:type="MSLayerGroup">
            <path d="M33.562,40.585 L26.827,33.85 C26.243,33.267 26.243,32.312 26.827,31.729 L27.362,31.194 C27.946,30.61 28.9,30.61 29.484,31.194 L36.219,37.929 C36.802,38.512 36.802,39.467 36.219,40.05 L35.683,40.585 C35.1,41.169 34.145,41.169 33.562,40.585" id="Fill-530" fill="#325438" sketch:type="MSShapeGroup"></path>
            <path d="M23.756,53 C24.465,53 25.047,52.435 25.061,51.726 C25.077,51.01 25.071,50.239 25.044,49.826 C24.973,48.739 25.324,47.669 26.095,46.898 L33.294,40.318 L27.095,34.118 L20.514,40.698 C19.74,41.473 18.664,41.817 17.57,41.748 C12.714,41.445 5.198,47.819 0.114,52.886 C0.071,52.929 0.103,53 0.163,53 L23.756,53" id="Fill-531" fill="#4C8056" sketch:type="MSShapeGroup"></path>
            <path d="M25,48 C24.744,48 24.488,47.902 24.293,47.707 L19.293,42.707 C18.902,42.316 18.902,41.684 19.293,41.293 C19.684,40.902 20.316,40.902 20.707,41.293 L25.707,46.293 C26.098,46.684 26.098,47.316 25.707,47.707 C25.512,47.902 25.256,48 25,48" id="Fill-576" fill="#325438" sketch:type="MSShapeGroup"></path>
            <path d="M44.28,13.831 L39.831,11.55 C38.947,11.097 38.724,9.934 39.378,9.186 L43.48,4.431 L47.929,6.711 L46.464,12.818 C46.239,13.786 45.164,14.284 44.28,13.831" id="Fill-577" fill="#E0BD85" sketch:type="MSShapeGroup"></path>
            <path d="M41.928,3.636 C41.284,3.305 41.118,2.449 41.6,1.908 C43.226,0.083 45.936,-0.49 48.213,0.677 C50.49,1.844 51.607,4.379 51.075,6.765 C50.917,7.472 50.125,7.837 49.48,7.507 L41.928,3.636" id="Fill-578" fill="#FBD490" sketch:type="MSShapeGroup"></path>
            <path d="M49.148,32.011 C42.088,30.96 37.513,35.088 37.322,35.266 C36.917,35.639 36.892,36.27 37.264,36.675 C37.461,36.89 37.731,36.998 38.001,36.998 C38.242,36.998 38.484,36.912 38.676,36.736 C38.716,36.7 42.773,33.07 48.852,33.989 C49.391,34.063 49.907,33.695 49.989,33.148 C50.071,32.602 49.694,32.093 49.148,32.011" id="Fill-579" fill="#D1D4D1" sketch:type="MSShapeGroup"></path>
            <path d="M38.707,29.293 C38.316,28.902 37.684,28.902 37.293,29.293 L34.293,32.293 C33.902,32.684 33.902,33.316 34.293,33.707 C34.488,33.902 34.744,34 35,34 C35.256,34 35.512,33.902 35.707,33.707 L38.707,30.707 C39.098,30.316 39.098,29.684 38.707,29.293" id="Fill-580" fill="#D1D4D1" sketch:type="MSShapeGroup"></path>
            <path d="M32.847,19.468 C32.552,18.999 31.935,18.86 31.468,19.153 C31,19.447 30.859,20.064 31.153,20.532 C34.001,25.061 31.29,29.262 31.168,29.444 C30.862,29.902 30.984,30.522 31.442,30.83 C31.613,30.945 31.807,31 31.999,31 C32.321,31 32.637,30.845 32.83,30.558 C32.978,30.339 36.402,25.12 32.847,19.468" id="Fill-581" fill="#D1D4D1" sketch:type="MSShapeGroup"></path>
            <path d="M43,44.5 C43,45.881 41.881,47 40.5,47 C39.119,47 38,45.881 38,44.5 C38,43.119 39.119,42 40.5,42 C41.881,42 43,43.119 43,44.5" id="Fill-582" fill="#FBD490" sketch:type="MSShapeGroup"></path>
            <path d="M52,38.5 C52,39.881 50.881,41 49.5,41 C48.119,41 47,39.881 47,38.5 C47,37.119 48.119,36 49.5,36 C50.881,36 52,37.119 52,38.5" id="Fill-583" fill="#E0BD85" sketch:type="MSShapeGroup"></path>
            <path d="M27,25.5 C27,26.881 25.881,28 24.5,28 C23.119,28 22,26.881 22,25.5 C22,24.119 23.119,23 24.5,23 C25.881,23 27,24.119 27,25.5" id="Fill-584" fill="#E0BD85" sketch:type="MSShapeGroup"></path>
            <path d="M50,45.5 C50,46.328 49.328,47 48.5,47 C47.672,47 47,46.328 47,45.5 C47,44.672 47.672,44 48.5,44 C49.328,44 50,44.672 50,45.5" id="Fill-585" fill="#E0BD85" sketch:type="MSShapeGroup"></path>
            <path d="M45,50.5 C45,51.328 44.328,52 43.5,52 C42.672,52 42,51.328 42,50.5 C42,49.672 42.672,49 43.5,49 C44.328,49 45,49.672 45,50.5" id="Fill-586" fill="#DC9628" sketch:type="MSShapeGroup"></path>
            <path d="M18,24.5 C18,25.328 17.328,26 16.5,26 C15.672,26 15,25.328 15,24.5 C15,23.672 15.672,23 16.5,23 C17.328,23 18,23.672 18,24.5" id="Fill-587" fill="#DC9628" sketch:type="MSShapeGroup"></path>
            <path d="M21,32.5 C21,33.328 20.328,34 19.5,34 C18.672,34 18,33.328 18,32.5 C18,31.672 18.672,31 19.5,31 C20.328,31 21,31.672 21,32.5" id="Fill-588" fill="#FBD490" sketch:type="MSShapeGroup"></path>
            <path d="M36,50.5 C36,51.328 35.328,52 34.5,52 C33.672,52 33,51.328 33,50.5 C33,49.672 33.672,49 34.5,49 C35.328,49 36,49.672 36,50.5" id="Fill-589" fill="#E0BD85" sketch:type="MSShapeGroup"></path>
        </g>
    </g>
</svg>