<?xml version="1.0" encoding="UTF-8" standalone="no"?>
<svg width="54px" height="50px" viewBox="0 0 54 50" version="1.1" xmlns="http://www.w3.org/2000/svg" xmlns:xlink="http://www.w3.org/1999/xlink" xmlns:sketch="http://www.bohemiancoding.com/sketch/ns">
    <!-- Generator: Sketch 3.2.2 (9983) - http://www.bohemiancoding.com/sketch -->
    <title>42 - Lucky Rainbow (Flat)</title>
    <desc>Created with Sketch.</desc>
    <defs></defs>
    <g id="Page-1" stroke="none" stroke-width="1" fill="none" fill-rule="evenodd" sketch:type="MSPage">
        <g id="42---Lucky-Rainbow-(Flat)" sketch:type="MSLayerGroup">
            <path d="M17.741,35.135 C17.474,34.636 17.137,34.164 16.716,33.743 C14.392,31.419 10.625,31.419 8.301,33.743 C6.206,35.838 6.018,39.098 7.702,41.424 C7.31,41.597 6.94,41.836 6.618,42.157 C5.224,43.551 5.224,45.812 6.618,47.206 C8.012,48.6 10.273,48.6 11.667,47.206 C11.709,47.164 11.738,47.114 11.777,47.071 C11.98,47.417 12.212,47.75 12.508,48.047 C14.367,49.906 17.381,49.906 19.24,48.047 C20.299,46.989 20.733,45.557 20.586,44.176 C21.323,43.959 22.024,43.581 22.606,42.999 C24.465,41.14 24.465,38.126 22.606,36.267 C21.289,34.95 19.396,34.585 17.741,35.135" id="Fill-444" fill="#E6E7E8" sketch:type="MSShapeGroup"></path>
            <path d="M51.914,31.342 C52.333,30.962 52.709,30.521 53.017,30.01 C54.709,27.194 53.798,23.538 50.981,21.846 C48.441,20.32 45.232,20.926 43.383,23.123 C43.12,22.784 42.799,22.483 42.409,22.249 C40.719,21.233 38.526,21.78 37.51,23.47 C36.495,25.16 37.042,27.353 38.732,28.369 C38.783,28.399 38.838,28.415 38.89,28.443 C38.603,28.723 38.335,29.029 38.119,29.389 C36.765,31.642 37.494,34.566 39.748,35.92 C41.031,36.691 42.525,36.766 43.829,36.29 C44.219,36.953 44.755,37.541 45.46,37.965 C47.714,39.319 50.638,38.59 51.992,36.336 C52.952,34.739 52.848,32.815 51.914,31.342" id="Fill-445" fill="#E6E7E8" sketch:type="MSShapeGroup"></path>
            <path d="M42.409,22.248 C42.416,22.253 42.421,22.258 42.428,22.262 C40.55,15.215 34.131,10 26.5,10 C17.402,10 10,17.402 10,26.5 C10,28.508 10.379,30.426 11.039,32.208 C13.007,31.706 15.176,32.203 16.716,33.743 C17.137,34.164 17.474,34.636 17.741,35.135 C18.056,35.03 18.38,34.97 18.706,34.931 C16.434,32.829 15,29.832 15,26.5 C15,20.159 20.159,15 26.5,15 C31.765,15 36.205,18.562 37.563,23.399 C38.598,21.769 40.745,21.248 42.409,22.248" id="Fill-446" fill="#71C285" sketch:type="MSShapeGroup"></path>
            <path d="M47.275,21.058 C48.522,20.916 49.82,21.148 50.981,21.846 C51.749,22.308 52.37,22.919 52.841,23.616 C51.403,10.337 40.161,0 26.5,0 C11.864,0 0,11.864 0,26.5 C0,32.824 2.219,38.628 5.915,43.184 C6.087,42.813 6.313,42.462 6.618,42.157 C6.94,41.836 7.31,41.597 7.702,41.424 C6.462,39.71 6.245,37.492 7.051,35.604 C5.749,32.835 5,29.757 5,26.5 C5,14.644 14.645,5 26.5,5 C36.473,5 44.856,11.834 47.275,21.058" id="Fill-803" fill="#D34237" sketch:type="MSShapeGroup"></path>
            <path d="M26.5,5 C23.578,5 20.792,5.591 18.25,6.651 C16.881,7.296 15.294,8.195 13.457,9.447 C8.328,13.38 5,19.551 5,26.5 C5,29.757 5.749,32.835 7.051,35.604 C8.125,32.833 11.039,32.208 11.039,32.208 C6.411,14.207 22.802,10.419 22.802,10.419 C38.895,7.963 42.428,22.262 42.428,22.262 L43.383,23.123 C44.557,21.371 47.275,21.058 47.275,21.058 C46.907,19.832 46.5,18.699 46.061,17.647 C42.683,10.199 35.197,5 26.5,5" id="Fill-804" fill="#F3D55B" sketch:type="MSShapeGroup"></path>
        </g>
    </g>
</svg>