<?xml version="1.0" encoding="UTF-8" standalone="no"?>
<svg width="58px" height="58px" viewBox="0 0 58 58" version="1.1" xmlns="http://www.w3.org/2000/svg" xmlns:xlink="http://www.w3.org/1999/xlink" xmlns:sketch="http://www.bohemiancoding.com/sketch/ns">
    <!-- Generator: Sketch 3.2.2 (9983) - http://www.bohemiancoding.com/sketch -->
    <title>44 - Lucky Horseshoe (Flat)</title>
    <desc>Created with Sketch.</desc>
    <defs></defs>
    <g id="Page-1" stroke="none" stroke-width="1" fill="none" fill-rule="evenodd" sketch:type="MSPage">
        <g id="44---Lucky-Horseshoe-(Flat)" sketch:type="MSLayerGroup" transform="translate(-1.000000, 0.000000)">
            <path d="M56.633,48 C57.281,45.402 57.968,42.146 58.432,38.568 C60.001,26.482 58.316,16.953 53.426,10.248 C47.248,1.778 37.419,0 30.26,0 L29.74,0 C16.771,0 9.984,5.573 6.574,10.248 C1.684,16.953 -0.001,26.482 1.568,38.568 C2.032,42.146 2.719,45.402 3.367,48 L1.213,49.82 C1.083,49.93 1.026,50.105 1.068,50.271 L3,58 L10.231,58 C10.285,58 10.335,57.986 10.389,57.984 C11.176,58.039 11.986,57.943 12.778,57.676 C15.922,56.614 17.59,53.264 16.504,50.194 C14.448,44.378 10.013,25.813 16.384,17.076 C18.99,13.504 23.358,11.768 29.74,11.768 L30.26,11.768 C36.635,11.768 41.001,13.501 43.608,17.065 C49.989,25.794 45.691,43.937 43.495,50.196 C42.411,53.267 44.079,56.615 47.222,57.676 C47.873,57.896 48.536,58 49.189,58 L49.769,58 L57,58 L58.932,50.271 C58.974,50.105 58.917,49.93 58.787,49.82 L56.633,48" id="Fill-78" fill="#C4C6C6" sketch:type="MSShapeGroup"></path>
            <path d="M29.794,5.585 L30.206,5.585 C33.796,5.585 38.231,6.153 42.247,8.265 L43.578,2.494 C39.037,0.554 34.237,0 30.26,0 L29.74,0 C24.266,0 19.905,0.999 16.423,2.498 L17.753,8.264 C20.725,6.693 24.645,5.585 29.794,5.585" id="Fill-413" fill="#E6E7E8" sketch:type="MSShapeGroup"></path>
            <path d="M52.996,30 C52.45,30 52.004,29.561 51.996,29.014 C51.912,22.984 50.491,18.036 47.771,14.306 C47.445,13.859 47.544,13.234 47.99,12.909 C48.437,12.583 49.062,12.682 49.387,13.128 C52.356,17.199 53.906,22.534 53.996,28.986 C54.004,29.538 53.562,29.992 53.01,30 L52.996,30" id="Fill-414" fill="#E6E7E8" sketch:type="MSShapeGroup"></path>
            <path d="M7.004,29.999 L6.99,29.999 C6.438,29.991 5.996,29.537 6.004,28.985 C6.095,22.531 7.646,17.196 10.613,13.128 C10.937,12.682 11.562,12.583 12.01,12.909 C12.456,13.234 12.555,13.859 12.229,14.306 C9.51,18.033 8.089,22.981 8.004,29.013 C7.996,29.56 7.55,29.999 7.004,29.999" id="Fill-415" fill="#E6E7E8" sketch:type="MSShapeGroup"></path>
            <path d="M10,35.5 C10,36.881 8.881,38 7.5,38 C6.119,38 5,36.881 5,35.5 C5,34.119 6.119,33 7.5,33 C8.881,33 10,34.119 10,35.5" id="Fill-416" fill="#E6E7E8" sketch:type="MSShapeGroup"></path>
            <path d="M12,46.5 C12,47.881 10.881,49 9.5,49 C8.119,49 7,47.881 7,46.5 C7,45.119 8.119,44 9.5,44 C10.881,44 12,45.119 12,46.5" id="Fill-417" fill="#E6E7E8" sketch:type="MSShapeGroup"></path>
            <path d="M50,35.5 C50,36.881 51.119,38 52.5,38 C53.881,38 55,36.881 55,35.5 C55,34.119 53.881,33 52.5,33 C51.119,33 50,34.119 50,35.5" id="Fill-418" fill="#E6E7E8" sketch:type="MSShapeGroup"></path>
            <path d="M48,46.5 C48,47.881 49.119,49 50.5,49 C51.881,49 53,47.881 53,46.5 C53,45.119 51.881,44 50.5,44 C49.119,44 48,45.119 48,46.5" id="Fill-419" fill="#E6E7E8" sketch:type="MSShapeGroup"></path>
        </g>
    </g>
</svg>