<?xml version="1.0" encoding="UTF-8" standalone="no"?>
<svg width="58px" height="58px" viewBox="0 0 58 58" version="1.1" xmlns="http://www.w3.org/2000/svg" xmlns:xlink="http://www.w3.org/1999/xlink" xmlns:sketch="http://www.bohemiancoding.com/sketch/ns">
    <!-- Generator: Sketch 3.2.2 (9983) - http://www.bohemiancoding.com/sketch -->
    <title>19 - Owl (Flat)</title>
    <desc>Created with Sketch.</desc>
    <defs></defs>
    <g id="Page-1" stroke="none" stroke-width="1" fill="none" fill-rule="evenodd" sketch:type="MSPage">
        <g id="19---Owl-(Flat)" sketch:type="MSLayerGroup">
            <path d="M31,8.945 C30.995,8.945 30.991,8.946 30.986,8.946 C30.99,8.964 30.996,8.98 31,8.998 L31,9 C31.004,8.982 31.011,8.964 31.014,8.946 C31.009,8.946 31.005,8.945 31,8.945" id="Fill-65" fill="#7F5B53" sketch:type="MSShapeGroup"></path>
            <path d="M19.355,54 C23.738,56.824 28.529,58 31,58 C33.47,58 38.26,56.824 42.643,54 L19.355,54" id="Fill-66" fill="#7F5B53" sketch:type="MSShapeGroup"></path>
            <path d="M46.51,4.114 L41.144,0 L35.161,3.349 C33.047,4.531 31.544,6.561 31.021,8.923 L31,8.923 L30.979,8.923 C30.456,6.562 28.955,4.535 26.843,3.352 L20.857,0 L15.498,4.105 C8.688,9.32 5.28,17.832 6.573,26.312 C6.8,27.802 7.012,29.302 7.135,30.79 C7.254,32.229 10,36.195 10,37 C10,42.31 11.928,46.909 14.656,50 L47.343,50 C50.072,46.909 52,42.31 52,37 C52,36.195 54.747,32.23 54.866,30.792 C54.989,29.303 55.2,27.804 55.427,26.313 C56.719,17.838 53.314,9.33 46.51,4.114 L46.51,4.114 Z M31,9 C30.73,8.978 30.85,8.96 30.986,8.946 C30.986,8.945 30.985,8.944 30.985,8.943 C30.99,8.944 30.995,8.944 31,8.945 C31.005,8.944 31.01,8.944 31.015,8.943 C31.015,8.944 31.015,8.945 31.014,8.946 C31.15,8.96 31.27,8.978 31,9 L31,9 Z" id="Fill-67" fill="#7F5B53" sketch:type="MSShapeGroup"></path>
            <path d="M41,29 C35.486,29 31,24.514 31,19 C31,13.486 35.486,9 41,9 C46.514,9 51,13.486 51,19 C51,24.514 46.514,29 41,29" id="Fill-367" fill="#6B4B47" sketch:type="MSShapeGroup"></path>
            <path d="M47,19 C47,22.314 44.314,25 41,25 C37.686,25 35,22.314 35,19 C35,15.686 37.686,13 41,13 C44.314,13 47,15.686 47,19" id="Fill-368" fill="#FFFFFF" sketch:type="MSShapeGroup"></path>
            <path d="M41,22 C39.346,22 38,20.654 38,19 C38,17.346 39.346,16 41,16 C42.654,16 44,17.346 44,19 C44,20.654 42.654,22 41,22" id="Fill-369" fill="#2C2F38" sketch:type="MSShapeGroup"></path>
            <path d="M21,29 C15.486,29 11,24.514 11,19 C11,13.486 15.486,9 21,9 C26.514,9 31,13.486 31,19 C31,24.514 26.514,29 21,29" id="Fill-370" fill="#6B4B47" sketch:type="MSShapeGroup"></path>
            <path d="M27,19 C27,22.314 24.314,25 21,25 C17.686,25 15,22.314 15,19 C15,15.686 17.686,13 21,13 C24.314,13 27,15.686 27,19" id="Fill-371" fill="#FFFFFF" sketch:type="MSShapeGroup"></path>
            <path d="M21,22 C19.346,22 18,20.654 18,19 C18,17.346 19.346,16 21,16 C22.654,16 24,17.346 24,19 C24,20.654 22.654,22 21,22" id="Fill-372" fill="#2C2F38" sketch:type="MSShapeGroup"></path>
            <path d="M31.729,22.728 L31,22 L30.272,22.728 C29.493,24.658 28.13,26.287 26.402,27.402 L31,32 L35.598,27.402 C33.87,26.287 32.507,24.658 31.729,22.728" id="Fill-373" fill="#F0C419" sketch:type="MSShapeGroup"></path>
            <path d="M0,50 L56,50 C57.105,50 58,50.895 58,52 C58,53.105 57.105,54 56,54 L0,54 L0,50" id="Fill-374" fill="#CB8252" sketch:type="MSShapeGroup"></path>
            <path d="M19,45 L21,45 L21,52 L19,52 L19,45 Z" id="Fill-375" fill="#2C2F38" sketch:type="MSShapeGroup"></path>
            <path d="M22,48 L24,48 L24,52 L22,52 L22,48 Z" id="Fill-376" fill="#2C2F38" sketch:type="MSShapeGroup"></path>
            <path d="M16,48 L18,48 L18,52 L16,52 L16,48 Z" id="Fill-377" fill="#2C2F38" sketch:type="MSShapeGroup"></path>
            <path d="M41,45 L43,45 L43,52 L41,52 L41,45 Z" id="Fill-378" fill="#2C2F38" sketch:type="MSShapeGroup"></path>
            <path d="M44,48 L46,48 L46,52 L44,52 L44,48 Z" id="Fill-379" fill="#2C2F38" sketch:type="MSShapeGroup"></path>
            <path d="M38,48 L40,48 L40,52 L38,52 L38,48 Z" id="Fill-380" fill="#2C2F38" sketch:type="MSShapeGroup"></path>
            <path d="M35.951,51 L26.049,51 C25.597,51 25.2,50.696 25.083,50.259 C23.534,44.472 20.007,40.812 14.301,39.072 C13.715,38.894 13.146,38.818 12.544,38.738 C11.552,38.606 10.527,38.47 9.528,37.85 C9.298,37.707 9.14,37.479 9.081,37.224 C8.991,37.02 8.667,36.434 8.403,35.956 C7.216,33.805 6.226,31.938 6.138,30.872 C6.015,29.377 5.799,27.869 5.584,26.462 C4.711,20.739 5.903,14.865 8.94,9.922 C9.212,9.478 9.779,9.318 10.242,9.553 C12.552,10.717 13.592,13.406 12.662,15.808 L10.797,15.085 C11.237,13.949 10.939,12.705 10.109,11.888 C7.717,16.228 6.814,21.256 7.562,26.161 C7.781,27.603 8.003,29.152 8.131,30.708 C8.191,31.434 9.517,33.835 10.154,34.989 C10.501,35.617 10.721,36.017 10.857,36.3 C11.427,36.572 12.074,36.658 12.808,36.756 C13.433,36.839 14.142,36.934 14.884,37.159 C20.969,39.016 24.976,42.996 26.803,49 L35.197,49 C37.024,42.996 41.031,39.016 47.116,37.16 C48.487,36.741 49.863,36.12 51.21,35.311 C51.352,35.055 51.576,34.722 51.913,34.221 C52.481,33.376 53.812,31.396 53.869,30.709 C53.998,29.155 54.219,27.606 54.439,26.163 C55.186,21.26 54.283,16.235 51.895,11.896 C51.069,12.713 50.77,13.954 51.205,15.089 L49.336,15.804 C48.418,13.406 49.46,10.722 51.76,9.56 C52.223,9.325 52.791,9.486 53.063,9.93 C56.097,14.872 57.288,20.743 56.416,26.464 C56.201,27.872 55.986,29.381 55.862,30.874 C55.77,31.989 54.771,33.555 53.573,35.337 C53.34,35.682 53.057,36.103 52.961,36.275 C52.894,36.511 52.742,36.717 52.527,36.85 C50.95,37.829 49.325,38.577 47.699,39.073 C41.993,40.812 38.466,44.472 36.917,50.259 C36.8,50.696 36.403,51 35.951,51" id="Fill-381" fill="#4F3733" sketch:type="MSShapeGroup"></path>
            <path d="M32.8,50.244 L30.85,49.801 C32.772,41.344 37.852,35.804 45.948,33.334 C49.432,32.271 51.87,30.345 53.193,27.609 C55.96,21.89 53.098,14.439 53.069,14.365 L54.931,13.635 C55.064,13.973 58.137,21.982 54.994,28.48 C53.418,31.738 50.57,34.015 46.532,35.246 C39.171,37.492 34.551,42.538 32.8,50.244" id="Fill-382" fill="#4F3733" sketch:type="MSShapeGroup"></path>
            <path d="M29.2,50.242 C27.448,42.537 22.828,37.492 15.468,35.246 C11.43,34.015 8.583,31.738 7.006,28.48 C3.863,21.982 6.937,13.973 7.069,13.635 L8.931,14.364 C8.902,14.438 6.045,21.915 8.811,27.617 C10.135,30.349 12.571,32.272 16.051,33.334 C24.147,35.804 29.228,41.343 31.15,49.799 L29.2,50.242" id="Fill-383" fill="#4F3733" sketch:type="MSShapeGroup"></path>
            <path d="M39,35 L37,35 C37,34.448 36.551,34 36,34 C35.449,34 35,34.448 35,35 L33,35 C33,33.346 34.346,32 36,32 C37.654,32 39,33.346 39,35" id="Fill-384" fill="#4F3733" sketch:type="MSShapeGroup"></path>
            <path d="M34,40 L32,40 C32,39.448 31.551,39 31,39 C30.449,39 30,39.448 30,40 L28,40 C28,38.346 29.346,37 31,37 C32.654,37 34,38.346 34,40" id="Fill-385" fill="#4F3733" sketch:type="MSShapeGroup"></path>
            <path d="M29,35 L27,35 C27,34.448 26.551,34 26,34 C25.449,34 25,34.448 25,35 L23,35 C23,33.346 24.346,32 26,32 C27.654,32 29,33.346 29,35" id="Fill-386" fill="#4F3733" sketch:type="MSShapeGroup"></path>
        </g>
    </g>
</svg>