<?xml version="1.0" encoding="UTF-8" standalone="no"?>
<svg width="54px" height="54px" viewBox="0 0 54 54" version="1.1" xmlns="http://www.w3.org/2000/svg" xmlns:xlink="http://www.w3.org/1999/xlink" xmlns:sketch="http://www.bohemiancoding.com/sketch/ns">
    <!-- Generator: Sketch 3.2.2 (9983) - http://www.bohemiancoding.com/sketch -->
    <title>3 - Party! (Flat)</title>
    <desc>Created with Sketch.</desc>
    <defs></defs>
    <g id="Page-1" stroke="none" stroke-width="1" fill="none" fill-rule="evenodd" sketch:type="MSPage">
        <g id="3---Party!-(Flat)" sketch:type="MSLayerGroup">
            <path d="M48.571,13.477 L49.631,15.625 L52,15.969 L50.286,17.64 L50.69,20 L48.571,18.886 L46.452,20 L46.856,17.64 L45.142,15.969 L47.511,15.625 L48.571,13.477" id="Fill-568" fill="#F0C419" sketch:type="MSShapeGroup"></path>
            <path d="M45.002,29.745 L45.002,29.745 C45.002,28.365 43.883,27.245 42.502,27.245 L34.002,27.245 L34.002,37.245 L54,37.245 L54,32.245 L47.502,32.245 C46.121,32.245 45.002,31.126 45.002,29.745" id="Fill-677" fill="#B49ACA" sketch:type="MSShapeGroup"></path>
            <path d="M34.002,34.245 L16.436,34.245 C7.89,34.245 1.521,29.801 0.211,22.922 C-0.376,19.838 0.272,16.709 2.038,14.114 C3.804,11.517 6.474,9.764 9.559,9.176 C12.13,8.686 14.74,9.227 16.906,10.7 C19.072,12.172 20.535,14.401 21.024,16.973 C21.436,19.135 20.981,21.329 19.743,23.15 C18.505,24.971 16.632,26.201 14.469,26.613 L13.721,22.683 C14.834,22.471 15.799,21.838 16.435,20.901 C17.073,19.963 17.306,18.834 17.094,17.721 C16.805,16.198 15.939,14.879 14.657,14.007 C13.376,13.135 11.83,12.815 10.307,13.106 C8.272,13.493 6.51,14.65 5.346,16.363 C4.18,18.075 3.753,20.139 4.14,22.174 C5.274,28.125 11.235,30.245 16.436,30.245 L34.002,30.245 L34.002,34.245" id="Fill-678" fill="#B0D3F0" sketch:type="MSShapeGroup"></path>
            <path d="M37.285,9.14 C37.285,10.521 36.166,11.64 34.785,11.64 C33.405,11.64 32.285,10.521 32.285,9.14 C32.285,7.759 33.405,6.64 34.785,6.64 C36.166,6.64 37.285,7.759 37.285,9.14" id="Fill-679" fill="#CB8252" sketch:type="MSShapeGroup"></path>
            <path d="M46.285,3.14 C46.285,4.521 45.166,5.64 43.785,5.64 C42.405,5.64 41.285,4.521 41.285,3.14 C41.285,1.759 42.405,0.64 43.785,0.64 C45.166,0.64 46.285,1.759 46.285,3.14" id="Fill-680" fill="#7F5B53" sketch:type="MSShapeGroup"></path>
            <path d="M44.285,10.14 C44.285,10.969 43.614,11.64 42.785,11.64 C41.957,11.64 41.285,10.969 41.285,10.14 C41.285,9.312 41.957,8.64 42.785,8.64 C43.614,8.64 44.285,9.312 44.285,10.14" id="Fill-681" fill="#F18D46" sketch:type="MSShapeGroup"></path>
            <path d="M39.285,15.14 C39.285,15.969 38.614,16.64 37.785,16.64 C36.957,16.64 36.285,15.969 36.285,15.14 C36.285,14.312 36.957,13.64 37.785,13.64 C38.614,13.64 39.285,14.312 39.285,15.14" id="Fill-682" fill="#FAC176" sketch:type="MSShapeGroup"></path>
            <path d="M16.889,43.698 L19.157,44.467 L21.076,43.035 L21.045,45.429 L23,46.811 L20.714,47.522 L20.003,49.808 L18.62,47.854 L16.226,47.884 L17.658,45.965 L16.889,43.698" id="Fill-683" fill="#F0C419" sketch:type="MSShapeGroup"></path>
            <path d="M5.842,48.611 C6.819,49.587 6.819,51.17 5.842,52.146 C4.866,53.123 3.283,53.123 2.307,52.146 C1.331,51.17 1.331,49.587 2.307,48.611 C3.283,47.635 4.866,47.635 5.842,48.611" id="Fill-684" fill="#C2615F" sketch:type="MSShapeGroup"></path>
            <path d="M11.499,44.368 C12.085,44.954 12.085,45.904 11.499,46.49 C10.913,47.075 9.964,47.075 9.378,46.49 C8.792,45.904 8.792,44.954 9.378,44.368 C9.964,43.782 10.913,43.782 11.499,44.368" id="Fill-685" fill="#59474E" sketch:type="MSShapeGroup"></path>
            <path d="M11.499,51.439 C12.085,52.025 12.085,52.975 11.499,53.561 C10.913,54.146 9.964,54.146 9.378,53.561 C8.792,52.975 8.792,52.025 9.378,51.439 C9.964,50.854 10.913,50.854 11.499,51.439" id="Fill-686" fill="#7ED09E" sketch:type="MSShapeGroup"></path>
        </g>
    </g>
</svg>