<?xml version="1.0" encoding="UTF-8" standalone="no"?>
<svg width="46px" height="58px" viewBox="0 0 46 58" version="1.1" xmlns="http://www.w3.org/2000/svg" xmlns:xlink="http://www.w3.org/1999/xlink" xmlns:sketch="http://www.bohemiancoding.com/sketch/ns">
    <!-- Generator: Sketch 3.2.2 (9983) - http://www.bohemiancoding.com/sketch -->
    <title>38 - Party Hat (Flat)</title>
    <desc>Created with Sketch.</desc>
    <defs></defs>
    <g id="Page-1" stroke="none" stroke-width="1" fill="none" fill-rule="evenodd" sketch:type="MSPage">
        <g id="38---Party-Hat-(Flat)" sketch:type="MSLayerGroup">
            <path d="M3.989,57.661 C3.543,57.661 3.14,57.609 2.787,57.531 C1.713,57.292 0.85,56.53 0.478,55.492 C0.089,54.409 0.284,53.216 0.999,52.3 C3.419,49.2 7.621,48.391 10.272,48.203 C10.258,48 10.236,47.796 10.205,47.591 C9.935,45.841 9.58,44.4 9.176,43.428 L11.023,42.66 C11.495,43.796 11.884,45.352 12.181,47.288 C12.226,47.58 12.257,47.872 12.273,48.162 C12.496,48.17 12.635,48.18 12.673,48.183 C16.521,48.353 20.31,48.804 23.653,49.202 C30.536,50.019 36.48,50.727 38.785,48.425 C39.833,47.379 40.198,45.643 39.901,43.117 L41.887,42.883 C42.26,46.056 41.708,48.333 40.198,49.84 C37.207,52.829 31.122,52.103 23.417,51.187 C20.108,50.794 16.358,50.348 12.552,50.179 C12.539,50.178 12.4,50.168 12.164,50.162 C11.831,52.139 10.838,53.959 9.295,55.317 C7.218,57.148 5.388,57.661 3.989,57.661 L3.989,57.661 Z M10.11,50.23 C7.805,50.432 4.433,51.15 2.575,53.53 C2.285,53.902 2.205,54.384 2.36,54.817 C2.443,55.048 2.665,55.455 3.222,55.578 C4.681,55.903 6.279,55.31 7.973,53.817 C9.06,52.859 9.794,51.604 10.11,50.23 L10.11,50.23 Z" id="Fill-42" fill="#D1D4D1" sketch:type="MSShapeGroup"></path>
            <path d="M45.597,41.779 L45.597,41.779 C33.203,49.525 17.477,49.525 5.083,41.779 L25.34,0 L45.597,41.779" id="Fill-461" fill="#7D6599" sketch:type="MSShapeGroup"></path>
            <path d="M27.475,29.119 L30.609,32.695 L35.333,32.141 L32.9,36.227 L34.887,40.548 L30.249,39.497 L26.754,42.722 L26.32,37.986 L22.172,35.659 L26.543,33.782 L27.475,29.119" id="Fill-462" fill="#FFFFFF" sketch:type="MSShapeGroup"></path>
            <path d="M13.681,28.295 L17.05,31.651 L17.665,26.935 L21.898,24.767 L17.603,22.726 L16.849,18.03 L16.334,18.574 L11.416,28.718 L13.681,28.295" id="Fill-463" fill="#FFFFFF" sketch:type="MSShapeGroup"></path>
            <path d="M26.981,15.526 L27.468,20.257 L30.927,16.993 L33.887,17.629 L29.181,7.923 L28.037,6.646 L27.157,11.32 L22.808,13.245 L26.981,15.526" id="Fill-464" fill="#FFFFFF" sketch:type="MSShapeGroup"></path>
        </g>
    </g>
</svg>