<?xml version="1.0" encoding="UTF-8" standalone="no"?>
<svg width="56px" height="58px" viewBox="0 0 56 58" version="1.1" xmlns="http://www.w3.org/2000/svg" xmlns:xlink="http://www.w3.org/1999/xlink" xmlns:sketch="http://www.bohemiancoding.com/sketch/ns">
    <!-- Generator: Sketch 3.2.2 (9983) - http://www.bohemiancoding.com/sketch -->
    <title>27 - Pumpkin (Flat)</title>
    <desc>Created with Sketch.</desc>
    <defs></defs>
    <g id="Page-1" stroke="none" stroke-width="1" fill="none" fill-rule="evenodd" sketch:type="MSPage">
        <g id="27---Pumpkin-(Flat)" sketch:type="MSLayerGroup">
            <path d="M56,33.179 C56,46.71 43.464,57.679 28,57.679 C12.536,57.679 0,46.71 0,33.179 C0,19.648 12.536,8.679 28,8.679 C43.464,8.679 56,19.648 56,33.179" id="Fill-267" fill="#E57E25" sketch:type="MSShapeGroup"></path>
            <path d="M9,45.997 C8.619,45.997 8.255,45.778 8.088,45.408 C6.41,41.684 5.523,37.455 5.523,33.179 C5.523,29.508 6.151,25.966 7.389,22.65 C7.583,22.133 8.158,21.872 8.675,22.063 C9.193,22.256 9.456,22.832 9.263,23.35 C8.108,26.44 7.523,29.748 7.523,33.179 C7.523,37.174 8.349,41.118 9.912,44.586 C10.139,45.09 9.915,45.682 9.411,45.909 C9.277,45.969 9.138,45.997 9,45.997" id="Fill-268" fill="#B26226" sketch:type="MSShapeGroup"></path>
            <path d="M26.735,41.035 C17.225,41.16 12,38 12,38 C12,38 12.5,50.833 28,51 C43.5,50.833 44,38 44,38 C44,38 38.775,41.16 29.265,41.035 C28.422,41.024 27.579,41.024 26.735,41.035" id="Fill-269" fill="#B26226" sketch:type="MSShapeGroup"></path>
            <path d="M24,28.679 C24,31.44 21.538,33.679 18.5,33.679 C15.462,33.679 13,31.44 13,28.679 C13,25.917 15.462,23.679 18.5,23.679 C21.538,23.679 24,25.917 24,28.679" id="Fill-270" fill="#B26226" sketch:type="MSShapeGroup"></path>
            <path d="M43,28.679 C43,31.44 40.538,33.679 37.5,33.679 C34.462,33.679 32,31.44 32,28.679 C32,25.917 34.462,23.679 37.5,23.679 C40.538,23.679 43,25.917 43,28.679" id="Fill-271" fill="#B26226" sketch:type="MSShapeGroup"></path>
            <path d="M24.531,8.873 C25.668,8.75 26.824,8.679 28,8.679 C29.005,8.679 29.997,8.727 30.974,8.818 C30.74,4.934 34.09,1.883 33,0.495 C32.615,0.006 26.582,-0.138 26.025,0.141 C25.434,0.436 25.165,1.123 25.371,1.751 C26.454,5.053 25.304,7.634 24.531,8.873" id="Fill-272" fill="#FBD490" sketch:type="MSShapeGroup"></path>
            <path d="M28,7.679 C21.94,7.679 16.177,10.853 12.189,16.388 C11.866,16.836 11.967,17.461 12.416,17.784 C12.863,18.105 13.488,18.004 13.812,17.558 C16.16,14.298 19.173,11.951 22.482,10.704 C20.65,12.877 19.106,16.144 18.031,20.306 C17.893,20.841 18.215,21.386 18.75,21.523 C18.834,21.546 18.918,21.556 19,21.556 C19.445,21.556 19.852,21.257 19.968,20.806 C21.74,13.942 24.817,9.679 28,9.679 C30.375,9.679 32.768,12.125 34.565,16.391 C34.779,16.899 35.368,17.136 35.875,16.924 C36.384,16.709 36.623,16.123 36.408,15.613 C35.564,13.608 34.59,11.962 33.523,10.695 C41.314,13.628 47,22.596 47,33.179 C47,33.731 47.448,34.179 48,34.179 C48.552,34.179 49,33.731 49,33.179 C49,19.118 39.58,7.679 28,7.679" id="Fill-273" fill="#B26226" sketch:type="MSShapeGroup"></path>
            <path d="M24,50.635 L24,46 L18,44 L18,48.311 C19.561,49.346 21.523,50.184 24,50.635" id="Fill-274" fill="#F0C419" sketch:type="MSShapeGroup"></path>
            <path d="M33,40.907 L33,46 L39,44 L39,39.905 C37.375,40.334 35.367,40.716 33,40.907" id="Fill-275" fill="#F0C419" sketch:type="MSShapeGroup"></path>
            <path d="M18.5,23.679 C16.178,23.679 14.196,24.989 13.389,26.839 C14.196,28.689 16.178,30 18.5,30 C20.822,30 22.804,28.689 23.611,26.839 C22.804,24.989 20.822,23.679 18.5,23.679" id="Fill-517" fill="#F0C419" sketch:type="MSShapeGroup"></path>
            <path d="M37.5,23.679 C35.178,23.679 33.196,24.989 32.389,26.839 C33.196,28.689 35.178,30 37.5,30 C39.822,30 41.804,28.689 42.611,26.839 C41.804,24.989 39.822,23.679 37.5,23.679" id="Fill-518" fill="#F0C419" sketch:type="MSShapeGroup"></path>
        </g>
    </g>
</svg>