<?xml version="1.0" encoding="UTF-8" standalone="no"?>
<svg width="58px" height="58px" viewBox="0 0 58 58" version="1.1" xmlns="http://www.w3.org/2000/svg" xmlns:xlink="http://www.w3.org/1999/xlink" xmlns:sketch="http://www.bohemiancoding.com/sketch/ns">
    <!-- Generator: Sketch 3.2.2 (9983) - http://www.bohemiancoding.com/sketch -->
    <title>70 - Reindeer (Flat)</title>
    <desc>Created with Sketch.</desc>
    <defs></defs>
    <g id="Page-1" stroke="none" stroke-width="1" fill="none" fill-rule="evenodd" sketch:type="MSPage">
        <g id="70---Reindeer-(Flat)" sketch:type="MSLayerGroup" transform="translate(-1.000000, 0.000000)">
            <path d="M21.344,22.061 C19.867,21.521 18.54,20.885 17.357,20.173 C18.873,18.777 22,15.047 22,8 C22,7.448 21.552,7 21,7 C20.448,7 20,7.448 20,8 C20,15.091 16.546,18.299 15.651,19.011 C12.649,16.691 10.999,13.739 10.998,10.438 C10.992,10.333 10.988,10.208 10.985,10.073 C10.987,10.048 11,10.026 11,10 C11,9.971 10.986,9.947 10.984,9.919 C10.976,8.279 11.302,4.988 12.941,3.245 C13.729,2.407 14.73,2 16,2 C16.552,2 17,1.552 17,1 C17,0.448 16.552,0 16,0 C14.173,0 12.654,0.631 11.484,1.874 C9.61,3.868 9.128,6.978 9.017,8.87 C8.425,8.72 7.917,8.437 7.5,7.987 C5.718,6.065 5.994,2.116 5.997,2.077 C6.039,1.526 5.627,1.046 5.077,1.003 C4.517,0.958 4.046,1.372 4.003,1.922 C3.988,2.119 3.654,6.774 6.029,9.342 C6.831,10.21 7.839,10.726 9.02,10.912 C9.111,13.418 10.035,15.776 11.673,17.851 C3.743,16.895 3.023,11.167 2.995,10.901 C2.941,10.353 2.449,9.951 1.907,10.004 C1.357,10.056 0.953,10.543 1.004,11.093 C1.013,11.187 1.24,13.415 2.999,15.623 C4.566,17.589 7.699,19.922 13.723,19.993 C15.564,21.585 17.899,22.93 20.656,23.939 C20.77,23.98 20.886,24 21,24 C21.408,24 21.791,23.749 21.939,23.344 C22.129,22.825 21.862,22.25 21.344,22.061" id="Fill-56" fill="#464F5D" sketch:type="MSShapeGroup"></path>
            <path d="M58.093,10.004 C57.538,9.947 57.056,10.357 57.004,10.907 C56.998,10.972 56.323,16.865 48.337,17.847 C49.981,15.767 50.903,13.408 50.981,10.912 C52.162,10.726 53.169,10.21 53.971,9.342 C56.346,6.774 56.012,2.119 55.997,1.922 C55.954,1.372 55.483,0.958 54.922,1.003 C54.372,1.046 53.96,1.527 54.003,2.078 C54.089,3.177 53.987,6.38 52.503,7.984 C52.085,8.436 51.576,8.72 50.981,8.87 C50.869,6.958 50.385,3.862 48.516,1.874 C47.346,0.631 45.827,0 44,0 C43.448,0 43,0.448 43,1 C43,1.552 43.448,2 44,2 C45.269,2 46.268,2.406 47.055,3.241 C48.83,5.124 49.011,8.599 49.011,9.945 C49.01,9.964 49,9.98 49,10 C49,10.019 49.01,10.034 49.011,10.053 C49.009,10.315 49.001,10.481 49,10.5 C49,13.347 47.742,15.95 45.424,18.107 C45.401,18.097 45.386,18.077 45.362,18.068 C45.309,18.047 40,15.891 40,8 C40,7.448 39.552,7 39,7 C38.448,7 38,7.448 38,8 C38,15.257 41.914,18.399 43.732,19.469 C42.301,20.472 40.605,21.348 38.656,22.061 C38.138,22.25 37.871,22.825 38.061,23.344 C38.209,23.749 38.592,24 39,24 C39.114,24 39.231,23.98 39.344,23.939 C42.102,22.93 44.439,21.583 46.281,19.993 C52.302,19.921 55.434,17.589 57.001,15.623 C58.76,13.415 58.987,11.187 58.996,11.093 C59.047,10.543 58.643,10.056 58.093,10.004" id="Fill-57" fill="#464F5D" sketch:type="MSShapeGroup"></path>
            <path d="M29.483,36 C35.193,36 40.319,38.824 43.91,41 C43.938,40.653 43.966,40.306 43.966,39.952 L43.966,33.5 C43.966,26.075 37.681,20 30,20 C22.319,20 16.035,26.075 16.035,33.5 L16.035,39.952 C16.035,40.114 16.054,40.272 16.06,40.432 C19.574,38.589 24.286,36 29.483,36" id="Fill-58" fill="#A86C4A" sketch:type="MSShapeGroup"></path>
            <path d="M49,47 C49,53.075 40.493,58 30,58 C19.507,58 11,53.075 11,47 C11,40.925 19.507,36 30,36 C40.493,36 49,40.925 49,47" id="Fill-731" fill="#CB8252" sketch:type="MSShapeGroup"></path>
            <path d="M38,45 C38,47.761 34.418,50 30,50 C25.582,50 22,47.761 22,45 C22,42.239 25.582,40 30,40 C34.418,40 38,42.239 38,45" id="Fill-732" fill="#C13A2A" sketch:type="MSShapeGroup"></path>
            <path d="M51.839,24 L39.896,24 C41.56,25.62 42.794,27.648 43.444,29.905 C48.915,29.243 51.478,24.974 51.927,24.141 C51.962,24.075 51.914,24 51.839,24" id="Fill-733" fill="#CB8252" sketch:type="MSShapeGroup"></path>
            <path d="M20.105,24 L8.161,24 C8.086,24 8.038,24.075 8.073,24.141 C8.522,24.974 11.085,29.243 16.556,29.905 C17.206,27.648 18.44,25.62 20.105,24" id="Fill-734" fill="#CB8252" sketch:type="MSShapeGroup"></path>
            <path d="M37.468,36.885 C37.8,35.951 38,34.778 38,33.5 C38,30.462 36.881,28 35.5,28 C34.119,28 33,30.462 33,33.5 C33,34.473 33.116,35.385 33.317,36.178 C34.762,36.326 36.155,36.559 37.468,36.885" id="Fill-735" fill="#E6E7E8" sketch:type="MSShapeGroup"></path>
            <path d="M26.683,36.178 C26.884,35.385 27,34.473 27,33.5 C27,30.462 25.881,28 24.5,28 C23.119,28 22,30.462 22,33.5 C22,34.778 22.2,35.951 22.532,36.885 C23.845,36.559 25.238,36.326 26.683,36.178" id="Fill-736" fill="#E6E7E8" sketch:type="MSShapeGroup"></path>
            <path d="M27,33 C27,34.657 26.105,36 25,36 C23.895,36 23,34.657 23,33 C23,31.343 23.895,30 25,30 C26.105,30 27,31.343 27,33" id="Fill-901" fill="#464F5D" sketch:type="MSShapeGroup"></path>
            <path d="M38,33 C38,34.657 37.105,36 36,36 C34.895,36 34,34.657 34,33 C34,31.343 34.895,30 36,30 C37.105,30 38,31.343 38,33" id="Fill-902" fill="#464F5D" sketch:type="MSShapeGroup"></path>
        </g>
    </g>
</svg>