<?xml version="1.0" encoding="UTF-8" standalone="no"?>
<svg width="52px" height="46px" viewBox="0 0 52 46" version="1.1" xmlns="http://www.w3.org/2000/svg" xmlns:xlink="http://www.w3.org/1999/xlink" xmlns:sketch="http://www.bohemiancoding.com/sketch/ns">
    <!-- Generator: Sketch 3.2.2 (9983) - http://www.bohemiancoding.com/sketch -->
    <title>73 - Ribbon (Flat)</title>
    <desc>Created with Sketch.</desc>
    <defs></defs>
    <g id="Page-1" stroke="none" stroke-width="1" fill="none" fill-rule="evenodd" sketch:type="MSPage">
        <g id="73---Ribbon-(Flat)" sketch:type="MSLayerGroup" transform="translate(0.000000, -1.000000)">
            <path d="M23.88,23 C22.259,23 20.945,21.686 20.945,20.065 L20.945,21 C18.949,22.803 16.24,23.892 13.398,24.538 C11.432,28.687 7.549,35.337 1.889,38 L13.889,38 L18.889,47 C18.889,47 25.284,31.912 26.676,23 L23.88,23" id="Fill-117" fill="#932C25" sketch:type="MSShapeGroup"></path>
            <path d="M40.69,24.952 C37.081,24.408 33.451,23.265 30.945,21 L30.945,20.065 C30.945,21.686 29.63,23 28.009,23 L27.213,23 C28.605,31.912 35,47 35,47 L40,38 L52,38 C46.525,35.424 42.713,29.117 40.69,24.952" id="Fill-118" fill="#932C25" sketch:type="MSShapeGroup"></path>
            <path d="M9.279,8.863 C5.378,7.27 2.249,5.227 0.831,3.514 C1.792,6.884 2.945,11.619 2.945,15 C2.945,15 3.372,19.219 0.95,22.655 C0.18,23.746 0.868,25.255 2.201,25.323 C7.208,25.581 16.14,25.341 20.945,21 L20.945,10.192 C19.781,11.642 14.759,11.099 9.279,8.863" id="Fill-119" fill="#C03A2B" sketch:type="MSShapeGroup"></path>
            <path d="M48.945,15 C48.945,11.415 50.242,6.29 51.231,2.904 C51.304,2.654 51.236,2.432 51.101,2.269 C50.515,4.144 46.828,6.859 41.92,8.863 C37.197,10.79 32.811,11.461 30.945,10.681 L30.945,21 C35.749,25.341 44.681,25.581 49.688,25.323 C51.021,25.255 51.709,23.746 50.94,22.655 C48.517,19.219 48.945,15 48.945,15" id="Fill-120" fill="#C03A2B" sketch:type="MSShapeGroup"></path>
            <path d="M23.88,23 C22.259,23 20.945,21.686 20.945,20.065 L20.945,21 C18.949,22.803 16.24,23.892 13.398,24.538 C11.432,28.687 7.549,35.337 1.889,38 L13.889,38 L18.889,47 C18.889,47 25.284,31.912 26.676,23 L23.88,23" id="Fill-117" fill="#932C25" sketch:type="MSShapeGroup"></path>
            <path d="M40.69,24.952 C37.081,24.408 33.451,23.265 30.945,21 L30.945,20.065 C30.945,21.686 29.63,23 28.009,23 L27.213,23 C28.605,31.912 35,47 35,47 L40,38 L52,38 C46.525,35.424 42.713,29.117 40.69,24.952" id="Fill-118" fill="#932C25" sketch:type="MSShapeGroup"></path>
            <path d="M9.279,8.863 C5.378,7.27 2.249,5.227 0.831,3.514 C1.792,6.884 2.945,11.619 2.945,15 C2.945,15 3.372,19.219 0.95,22.655 C0.18,23.746 0.868,25.255 2.201,25.323 C7.208,25.581 16.14,25.341 20.945,21 L20.945,10.192 C19.781,11.642 14.759,11.099 9.279,8.863" id="Fill-119" fill="#C03A2B" sketch:type="MSShapeGroup"></path>
            <path d="M48.945,15 C48.945,11.415 50.242,6.29 51.231,2.904 C51.304,2.654 51.236,2.432 51.101,2.269 C50.515,4.144 46.828,6.859 41.92,8.863 C37.197,10.79 32.811,11.461 30.945,10.681 L30.945,21 C35.749,25.341 44.681,25.581 49.688,25.323 C51.021,25.255 51.709,23.746 50.94,22.655 C48.517,19.219 48.945,15 48.945,15" id="Fill-120" fill="#C03A2B" sketch:type="MSShapeGroup"></path>
            <path d="M20.94,10.691 C20.94,10.36 21.007,10.048 21.107,9.751 C20.542,7.876 16.846,5.148 11.92,3.137 C6.114,0.767 0.815,0.297 0.084,2.086 C-0.646,3.876 3.468,7.248 9.275,9.618 C14.754,11.855 19.777,12.397 20.94,10.948 L20.94,10.691" id="Fill-121" fill="#932C25" sketch:type="MSShapeGroup"></path>
            <path d="M51.106,2.086 C50.376,0.297 45.076,0.767 39.27,3.137 C34.949,4.901 31.568,7.219 30.421,9.028 C30.747,9.501 30.94,10.073 30.94,10.691 L30.94,11.437 C32.806,12.217 37.193,11.546 41.915,9.618 C47.722,7.248 51.837,3.876 51.106,2.086" id="Fill-122" fill="#932C25" sketch:type="MSShapeGroup"></path>
            <path d="M28.009,23 L23.88,23 C22.259,23 20.945,21.686 20.945,20.065 L20.945,9.935 C20.945,8.314 22.259,7 23.88,7 L28.009,7 C29.63,7 30.945,8.314 30.945,9.935 L30.945,20.065 C30.945,21.686 29.63,23 28.009,23" id="Fill-873" fill="#FB7B76" sketch:type="MSShapeGroup"></path>
        </g>
    </g>
</svg>