<?xml version="1.0" encoding="UTF-8" standalone="no"?>
<svg width="60px" height="41px" viewBox="0 0 60 41" version="1.1" xmlns="http://www.w3.org/2000/svg" xmlns:xlink="http://www.w3.org/1999/xlink" xmlns:sketch="http://www.bohemiancoding.com/sketch/ns">
    <!-- Generator: Sketch 3.2.2 (9983) - http://www.bohemiancoding.com/sketch -->
    <title>80 - Santa's Sledge (Flat)</title>
    <desc>Created with Sketch.</desc>
    <defs></defs>
    <g id="Page-1" stroke="none" stroke-width="1" fill="none" fill-rule="evenodd" sketch:type="MSPage">
        <g id="80---Santa's-Sledge-(Flat)" sketch:type="MSLayerGroup">
            <path d="M21,1 L30,1 L30,21 L21,21 L21,1 Z" id="Fill-9" fill="#8697CB" sketch:type="MSShapeGroup"></path>
            <path d="M8.188,3.823 L15.6,11 L16,11 L16,1.393 C16,0.624 15.376,0 14.607,0 L7.393,0 C6.624,0 6,0.624 6,1.393 L6,2.798 C6.787,2.945 7.547,3.289 8.188,3.823" id="Fill-60" fill="#F29C1F" sketch:type="MSShapeGroup"></path>
            <path d="M54.36,28 C51.879,28 50.049,29.188 49.465,31.179 C48.953,32.926 49.582,34.838 50.962,35.724 C51.642,36.16 53.497,36.94 56.015,34.755 C56.432,34.394 56.477,33.762 56.115,33.345 C55.753,32.927 55.121,32.883 54.705,33.245 C53.65,34.16 52.681,34.449 52.043,34.042 C51.414,33.637 51.125,32.627 51.384,31.742 C51.714,30.619 52.771,30 54.36,30 C56.367,30 58,31.794 58,34 C58,36.769 54.718,39 52,39 L41.659,39 L39.516,34 L46,34 C46.552,34 47,33.552 47,33 C47,32.448 46.552,32 46,32 L9,32 C8.448,32 8,32.448 8,33 C8,33.552 8.448,34 9,34 L18.484,34 L16.341,39 L1,39 C0.448,39 0,39.448 0,40 C0,40.552 0.448,41 1,41 L52,41 C55.776,41 60,38.006 60,34 C60,30.691 57.47,28 54.36,28 L54.36,28 Z M18.517,39 L20.659,34 L37.341,34 L39.483,39 L18.517,39 L18.517,39 Z" id="Fill-162" fill="#556080" sketch:type="MSShapeGroup"></path>
            <path d="M47,18 C53.083,30.917 40,33 40,33 L21,33 C20.891,33 20.783,32.999 20.675,32.998 C13.966,32.899 8.463,27.512 8.233,20.806 C8.016,14.474 5.04,11.492 3.675,10.451 C2.977,9.918 2.344,9.3 1.877,8.556 C0.457,6.292 1.18,4.732 2.391,3.703 C4.045,2.298 6.521,2.434 8.188,3.823 L16.447,10.705 C17.45,11.542 18.716,12 20.022,12 L20,12 C26.159,12 26.879,15.99 28.678,18.656 C29.68,20.142 31.384,21 33.176,21 C34.948,21 36.611,20.144 37.642,18.702 L38.192,17.931 C39.579,15.989 40.825,13.953 42.02,11.888 C43.02,10.16 44.725,8 47,8 C47,8 51,7.458 51,11 C51,11 50.837,12.47 49.138,13.352 C47.46,14.223 46.511,16.046 46.97,17.88 L47,18" id="Fill-737" fill="#C03A2B" sketch:type="MSShapeGroup"></path>
            <path d="M16.447,10.705 C17.45,11.542 18.716,12 20.022,12 L20,12 C22.326,12 23.874,12.57 25,13.421 L25,7.393 C25,6.624 24.376,6 23.607,6 L17.393,6 C16.624,6 16,6.624 16,7.393 L16,10.333 L16.447,10.705" id="Fill-738" fill="#804169" sketch:type="MSShapeGroup"></path>
            <path d="M28.678,18.656 C30.007,20.626 32.568,21.492 34.935,20.719 C36.081,20.344 37.041,19.542 37.742,18.561 L38.192,17.931 C38.474,17.536 38.729,17.123 39,16.721 L39,12.393 C39,11.624 38.376,11 37.607,11 L28.393,11 C27.624,11 27,11.624 27,12.393 L27,15.756 C27.599,16.739 28.08,17.77 28.678,18.656" id="Fill-739" fill="#24AE5F" sketch:type="MSShapeGroup"></path>
            <path d="M7.961,18.202 L21.708,27 L48.141,27 C48.359,26.393 48.515,25.731 48.579,25 L22.292,25 L7.17,15.321 C7.496,16.161 7.771,17.118 7.961,18.202" id="Fill-779" fill="#D66F67" sketch:type="MSShapeGroup"></path>
        </g>
    </g>
</svg>