<?xml version="1.0" encoding="UTF-8" standalone="no"?>
<svg width="59px" height="58px" viewBox="0 0 59 58" version="1.1" xmlns="http://www.w3.org/2000/svg" xmlns:xlink="http://www.w3.org/1999/xlink" xmlns:sketch="http://www.bohemiancoding.com/sketch/ns">
    <!-- Generator: Sketch 3.2.2 (9983) - http://www.bohemiancoding.com/sketch -->
    <title>21 - Skull (Flat)</title>
    <desc>Created with Sketch.</desc>
    <defs></defs>
    <g id="Page-1" stroke="none" stroke-width="1" fill="none" fill-rule="evenodd" sketch:type="MSPage">
        <g id="21---Skull-(Flat)" sketch:type="MSLayerGroup">
            <path d="M29.042,0.958 C13.002,0.958 0,9.484 0,20 C0,26.929 5.645,32.992 14.083,36.323 L14.083,38.042 C14.083,39.698 15.426,41.042 17.083,41.042 C18.716,41.042 20.038,39.736 20.076,38.112 C20.078,38.113 20.081,38.113 20.083,38.114 L20.083,41.042 C20.083,42.698 21.426,44.042 23.083,44.042 C24.725,44.042 26.054,42.722 26.079,41.086 C26.081,41.095 26.083,41.089 26.083,41.042 C26.083,39.385 27.426,38.042 29.083,38.042 C30.74,38.042 32.083,39.385 32.083,41.042 C32.083,41.089 32.085,41.095 32.088,41.086 C32.112,42.722 33.442,44.042 35.083,44.042 C36.74,44.042 38.083,42.698 38.083,41.042 L38.083,38.095 C38.085,38.095 38.087,38.095 38.089,38.094 C38.117,39.726 39.445,41.042 41.083,41.042 C42.74,41.042 44.083,39.698 44.083,38.042 L44.083,36.292 C52.476,32.953 58.083,26.906 58.083,20 C58.083,9.484 45.081,0.958 29.042,0.958" id="Fill-27" fill="#D1D4D1" sketch:type="MSShapeGroup"></path>
            <path d="M28.083,23.042 C28.083,28.012 24.054,32.042 19.083,32.042 C14.113,32.042 10.083,28.012 10.083,23.042 C10.083,18.071 14.113,14.042 19.083,14.042 C24.054,14.042 28.083,18.071 28.083,23.042" id="Fill-28" fill="#A5A5A4" sketch:type="MSShapeGroup"></path>
            <path d="M47.083,23.042 C47.083,26.908 43.949,30.042 40.083,30.042 C36.217,30.042 33.083,26.908 33.083,23.042 C33.083,19.176 36.217,16.042 40.083,16.042 C43.949,16.042 47.083,19.176 47.083,23.042" id="Fill-29" fill="#A5A5A4" sketch:type="MSShapeGroup"></path>
            <path d="M40.083,16.042 C36.753,16.042 33.971,18.37 33.263,21.486 C33.971,24.602 36.753,26.931 40.083,26.931 C43.414,26.931 46.196,24.602 46.904,21.486 C46.196,18.37 43.414,16.042 40.083,16.042" id="Fill-61" fill="#556080" sketch:type="MSShapeGroup"></path>
            <path d="M19.083,14.042 C14.801,14.042 11.224,17.035 10.314,21.042 C11.224,25.048 14.801,28.042 19.083,28.042 C23.365,28.042 26.942,25.048 27.853,21.042 C26.942,17.035 23.365,14.042 19.083,14.042" id="Fill-62" fill="#556080" sketch:type="MSShapeGroup"></path>
            <path d="M40.922,46.046 C39.3,46.131 38.083,47.587 38.083,49.211 C38.083,50.836 36.867,52.292 35.245,52.377 C33.515,52.467 32.083,51.091 32.083,49.381 L32.083,49.211 C32.083,47.587 30.867,46.131 29.245,46.046 C27.515,45.955 26.083,47.331 26.083,49.042 C26.083,50.666 24.867,51.952 23.245,52.037 C21.515,52.128 20.083,50.752 20.083,49.042 L20.083,49.211 C20.083,47.587 18.867,46.131 17.245,46.046 C15.515,45.955 14.083,47.331 14.083,49.042 L14.083,51.042 C14.083,54.355 16.77,57.042 20.083,57.042 L38.083,57.042 C41.397,57.042 44.083,54.355 44.083,51.042 L44.083,49.042 C44.083,47.331 42.652,45.955 40.922,46.046" id="Fill-366" fill="#A5A5A4" sketch:type="MSShapeGroup"></path>
        </g>
    </g>
</svg>