<?xml version="1.0" encoding="UTF-8" standalone="no"?>
<svg width="51px" height="57px" viewBox="0 0 51 57" version="1.1" xmlns="http://www.w3.org/2000/svg" xmlns:xlink="http://www.w3.org/1999/xlink" xmlns:sketch="http://www.bohemiancoding.com/sketch/ns">
    <!-- Generator: Sketch 3.2.2 (9983) - http://www.bohemiancoding.com/sketch -->
    <title>72 - Snow Globe (Flat)</title>
    <desc>Created with Sketch.</desc>
    <defs></defs>
    <g id="Page-1" stroke="none" stroke-width="1" fill="none" fill-rule="evenodd" sketch:type="MSPage">
        <g id="72---Snow-Globe-(Flat)" sketch:type="MSLayerGroup">
            <path d="M9,46 L9.602,44.796 C9.846,44.308 10.345,44 10.891,44 L41.109,44 C41.655,44 42.154,44.308 42.398,44.796 L43,46 C48.4,41.324 51,33.203 51,25.5 C51,11.36 39.491,-0.092 25.329,0.001 C9.962,0.101 -1.655,14.062 0.234,29.313 C1.058,35.971 4.05,42.069 9,46" id="Fill-96" fill="#EDE6E6" sketch:type="MSShapeGroup"></path>
            <path d="M43.2,57 L8.8,57 C7.879,57 7.198,56.143 7.405,55.246 L9.764,45.023 C9.902,44.424 10.436,44 11.05,44 L40.95,44 C41.565,44 42.098,44.424 42.236,45.023 L44.595,55.246 C44.802,56.143 44.121,57 43.2,57" id="Fill-123" fill="#7D6599" sketch:type="MSShapeGroup"></path>
            <path d="M43,22.5 C43,23.328 42.328,24 41.5,24 C40.672,24 40,23.328 40,22.5 C40,21.672 40.672,21 41.5,21 C42.328,21 43,21.672 43,22.5" id="Fill-124" fill="#D1D4D1" sketch:type="MSShapeGroup"></path>
            <path d="M46,16.5 C46,17.328 45.328,18 44.5,18 C43.672,18 43,17.328 43,16.5 C43,15.672 43.672,15 44.5,15 C45.328,15 46,15.672 46,16.5" id="Fill-125" fill="#D1D4D1" sketch:type="MSShapeGroup"></path>
            <path d="M41,11.5 C41,12.328 40.328,13 39.5,13 C38.672,13 38,12.328 38,11.5 C38,10.672 38.672,10 39.5,10 C40.328,10 41,10.672 41,11.5" id="Fill-126" fill="#D1D4D1" sketch:type="MSShapeGroup"></path>
            <path d="M36,5.5 C36,6.328 35.328,7 34.5,7 C33.672,7 33,6.328 33,5.5 C33,4.672 33.672,4 34.5,4 C35.328,4 36,4.672 36,5.5" id="Fill-127" fill="#D1D4D1" sketch:type="MSShapeGroup"></path>
            <path d="M33,10.5 C33,11.328 32.328,12 31.5,12 C30.672,12 30,11.328 30,10.5 C30,9.672 30.672,9 31.5,9 C32.328,9 33,9.672 33,10.5" id="Fill-128" fill="#D1D4D1" sketch:type="MSShapeGroup"></path>
            <path d="M28,5.5 C28,6.328 27.328,7 26.5,7 C25.672,7 25,6.328 25,5.5 C25,4.672 25.672,4 26.5,4 C27.328,4 28,4.672 28,5.5" id="Fill-129" fill="#D1D4D1" sketch:type="MSShapeGroup"></path>
            <path d="M19,6.5 C19,7.328 18.328,8 17.5,8 C16.672,8 16,7.328 16,6.5 C16,5.672 16.672,5 17.5,5 C18.328,5 19,5.672 19,6.5" id="Fill-130" fill="#D1D4D1" sketch:type="MSShapeGroup"></path>
            <path d="M18,12.5 C18,13.328 17.328,14 16.5,14 C15.672,14 15,13.328 15,12.5 C15,11.672 15.672,11 16.5,11 C17.328,11 18,11.672 18,12.5" id="Fill-131" fill="#D1D4D1" sketch:type="MSShapeGroup"></path>
            <path d="M11,12.5 C11,13.328 10.328,14 9.5,14 C8.672,14 8,13.328 8,12.5 C8,11.672 8.672,11 9.5,11 C10.328,11 11,11.672 11,12.5" id="Fill-132" fill="#D1D4D1" sketch:type="MSShapeGroup"></path>
            <path d="M14,20.5 C14,21.328 13.328,22 12.5,22 C11.672,22 11,21.328 11,20.5 C11,19.672 11.672,19 12.5,19 C13.328,19 14,19.672 14,20.5" id="Fill-133" fill="#D1D4D1" sketch:type="MSShapeGroup"></path>
            <path d="M10,26.5 C10,27.328 9.328,28 8.5,28 C7.672,28 7,27.328 7,26.5 C7,25.672 7.672,25 8.5,25 C9.328,25 10,25.672 10,26.5" id="Fill-134" fill="#D1D4D1" sketch:type="MSShapeGroup"></path>
            <path d="M7,21.5 C7,22.328 6.328,23 5.5,23 C4.672,23 4,22.328 4,21.5 C4,20.672 4.672,20 5.5,20 C6.328,20 7,20.672 7,21.5" id="Fill-135" fill="#D1D4D1" sketch:type="MSShapeGroup"></path>
            <path d="M8,31.5 C8,32.328 7.328,33 6.5,33 C5.672,33 5,32.328 5,31.5 C5,30.672 5.672,30 6.5,30 C7.328,30 8,30.672 8,31.5" id="Fill-136" fill="#D1D4D1" sketch:type="MSShapeGroup"></path>
            <path d="M16,28.5 C16,29.328 15.328,30 14.5,30 C13.672,30 13,29.328 13,28.5 C13,27.672 13.672,27 14.5,27 C15.328,27 16,27.672 16,28.5" id="Fill-137" fill="#D1D4D1" sketch:type="MSShapeGroup"></path>
            <path d="M46,27.5 C46,28.328 45.328,29 44.5,29 C43.672,29 43,28.328 43,27.5 C43,26.672 43.672,26 44.5,26 C45.328,26 46,26.672 46,27.5" id="Fill-138" fill="#D1D4D1" sketch:type="MSShapeGroup"></path>
            <path d="M39,28.5 C39,29.328 38.328,30 37.5,30 C36.672,30 36,29.328 36,28.5 C36,27.672 36.672,27 37.5,27 C38.328,27 39,27.672 39,28.5" id="Fill-139" fill="#D1D4D1" sketch:type="MSShapeGroup"></path>
            <path d="M40,16.5 C40,17.328 39.328,18 38.5,18 C37.672,18 37,17.328 37,16.5 C37,15.672 37.672,15 38.5,15 C39.328,15 40,15.672 40,16.5" id="Fill-140" fill="#D1D4D1" sketch:type="MSShapeGroup"></path>
            <path d="M45,35.5 C45,36.328 44.328,37 43.5,37 C42.672,37 42,36.328 42,35.5 C42,34.672 42.672,34 43.5,34 C44.328,34 45,34.672 45,35.5" id="Fill-141" fill="#D1D4D1" sketch:type="MSShapeGroup"></path>
            <path d="M42,39.5 C42,40.328 41.328,41 40.5,41 C39.672,41 39,40.328 39,39.5 C39,38.672 39.672,38 40.5,38 C41.328,38 42,38.672 42,39.5" id="Fill-142" fill="#D1D4D1" sketch:type="MSShapeGroup"></path>
            <path d="M36,40.5 C36,41.328 35.328,42 34.5,42 C33.672,42 33,41.328 33,40.5 C33,39.672 33.672,39 34.5,39 C35.328,39 36,39.672 36,40.5" id="Fill-143" fill="#D1D4D1" sketch:type="MSShapeGroup"></path>
            <path d="M19,39.5 C19,40.328 18.328,41 17.5,41 C16.672,41 16,40.328 16,39.5 C16,38.672 16.672,38 17.5,38 C18.328,38 19,38.672 19,39.5" id="Fill-144" fill="#D1D4D1" sketch:type="MSShapeGroup"></path>
            <path d="M11,38.5 C11,39.328 10.328,40 9.5,40 C8.672,40 8,39.328 8,38.5 C8,37.672 8.672,37 9.5,37 C10.328,37 11,37.672 11,38.5" id="Fill-145" fill="#D1D4D1" sketch:type="MSShapeGroup"></path>
            <path d="M24,35 L28,35 L28,44 L24,44 L24,35 Z" id="Fill-146" fill="#805333" sketch:type="MSShapeGroup"></path>
            <path d="M34,50 L19,50 C18.447,50 18,49.552 18,49 C18,48.448 18.447,48 19,48 L34,48 C34.553,48 35,48.448 35,49 C35,49.552 34.553,50 34,50" id="Fill-147" fill="#D1D4D1" sketch:type="MSShapeGroup"></path>
            <path d="M33,54 L20,54 C19.447,54 19,53.552 19,53 C19,52.448 19.447,52 20,52 L33,52 C33.553,52 34,52.448 34,53 C34,53.552 33.553,54 33,54" id="Fill-148" fill="#D1D4D1" sketch:type="MSShapeGroup"></path>
            <path d="M28.72,27.037 C26.689,27.36 24.621,27.37 22.588,27.062 C19.787,30.38 15.598,33.081 12,33.081 C20.36,38.306 30.969,38.306 39.329,33.081 C35.722,33.081 31.522,30.367 28.72,27.037" id="Fill-781" fill="#4C8056" sketch:type="MSShapeGroup"></path>
            <path d="M26.963,18.261 C26.06,18.319 25.154,18.29 24.254,18.185 C22.21,21.356 18.284,24.259 15,24.259 C21.475,28.306 29.69,28.306 36.164,24.259 C32.907,24.259 29.021,21.402 26.963,18.261" id="Fill-782" fill="#24AE5F" sketch:type="MSShapeGroup"></path>
            <path d="M34,16 C30.684,16 26.5,12.083 26,9 C25.5,12.083 21.316,16 18,16 C22.895,19.059 29.105,19.059 34,16" id="Fill-783" fill="#4FBA6F" sketch:type="MSShapeGroup"></path>
        </g>
    </g>
</svg>