<?xml version="1.0" encoding="UTF-8" standalone="no"?>
<svg width="53px" height="55px" viewBox="0 0 53 55" version="1.1" xmlns="http://www.w3.org/2000/svg" xmlns:xlink="http://www.w3.org/1999/xlink" xmlns:sketch="http://www.bohemiancoding.com/sketch/ns">
    <!-- Generator: Sketch 3.2.2 (9983) - http://www.bohemiancoding.com/sketch -->
    <title>53 - Snowbell (Flat)</title>
    <desc>Created with Sketch.</desc>
    <defs></defs>
    <g id="Page-1" stroke="none" stroke-width="1" fill="none" fill-rule="evenodd" sketch:type="MSPage">
        <g id="53---Snowbell-(Flat)" sketch:type="MSLayerGroup">
            <path d="M34.693,21.689 C34.512,21.168 33.938,20.893 33.42,21.074 C29.858,22.317 29.15,28.005 29.026,36.15 C27.437,33.685 25.188,32.019 22,32.019 C21.447,32.019 21,32.466 21,33.019 C21,33.571 21.447,34.019 22,34.019 C30.118,34.019 30.749,49.327 30.749,54.019 C30.749,54.571 31.196,55.019 31.749,55.019 C32.302,55.019 32.749,54.571 32.749,54.019 C32.749,50.659 32.476,45.04 30.939,40.32 C30.97,40.223 31,40.125 31,40.019 C31,33.274 31,24.037 34.078,22.963 C34.6,22.781 34.875,22.21 34.693,21.689" id="Fill-211" fill="#71C285" sketch:type="MSShapeGroup"></path>
            <path d="M46.916,28.642 C39.776,28.63 33.99,34.604 33.978,41.997 L34,41.974 C41.139,41.986 46.926,36.012 46.938,28.619 L46.916,28.642" id="Fill-212" fill="#4C8056" sketch:type="MSShapeGroup"></path>
            <path d="M52.239,10.343 C54.318,13.269 51.989,18.494 47.036,22.012 C42.084,25.531 36.383,26.01 34.304,23.084 C32.225,20.157 34.555,14.933 39.507,11.414 C44.46,7.896 50.16,7.416 52.239,10.343" id="Fill-213" fill="#89769B" sketch:type="MSShapeGroup"></path>
            <path d="M39.507,11.414 C39.843,11.176 40.181,10.955 40.522,10.745 C40.3,5.3 37.712,1 34.544,1 C31.23,1 28.544,5.701 28.544,11.5 C28.544,16.814 30.802,21.196 33.73,21.892 C32.846,18.883 35.171,14.495 39.507,11.414" id="Fill-214" fill="#B49ACA" sketch:type="MSShapeGroup"></path>
            <path d="M44.237,0.233 C42.292,-0.51 39.918,0.571 37.907,2.819 C39.381,4.575 40.387,7.446 40.522,10.744 C42.743,9.375 45.05,8.602 47.073,8.457 C47.648,4.498 46.611,1.139 44.237,0.233" id="Fill-215" fill="#5D516B" sketch:type="MSShapeGroup"></path>
            <path d="M0.936,25.816 C-0.592,29.064 2.625,33.794 8.122,36.381 C13.619,38.968 19.314,38.431 20.843,35.183 C22.371,31.935 19.154,27.205 13.657,24.618 C8.16,22.032 2.465,22.568 0.936,25.816" id="Fill-216" fill="#B49ACA" sketch:type="MSShapeGroup"></path>
            <path d="M13.657,24.618 C13.285,24.443 12.912,24.285 12.54,24.139 C11.795,18.74 13.582,14.05 16.7,13.49 C19.961,12.904 23.437,17.055 24.463,22.763 C25.403,27.994 23.955,32.705 21.197,33.909 C21.535,30.791 18.47,26.883 13.657,24.618" id="Fill-217" fill="#89769B" sketch:type="MSShapeGroup"></path>
            <path d="M7.024,14.45 C8.806,13.375 11.335,14.018 13.711,15.875 C12.571,17.865 12.089,20.868 12.54,24.138 C10.112,23.183 7.704,22.831 5.688,23.046 C4.422,19.251 4.848,15.762 7.024,14.45" id="Fill-218" fill="#5D516B" sketch:type="MSShapeGroup"></path>
            <path d="M33.979,41.961 C33.977,41.962 33.976,41.963 33.974,41.963 L33.979,41.966 L33.979,41.961" id="Fill-219" fill="#4FBA6F" sketch:type="MSShapeGroup"></path>
            <path d="M49.143,48.126 C47.393,43.771 43.167,41.134 38.624,41.085 C37.187,41.654 35.632,41.977 34,41.974 C36.343,47.807 43.128,50.564 49.169,48.137 L49.143,48.126" id="Fill-220" fill="#4FBA6F" sketch:type="MSShapeGroup"></path>
        </g>
    </g>
</svg>