<?xml version="1.0" encoding="UTF-8" standalone="no"?>
<svg width="56px" height="59px" viewBox="0 0 56 59" version="1.1" xmlns="http://www.w3.org/2000/svg" xmlns:xlink="http://www.w3.org/1999/xlink" xmlns:sketch="http://www.bohemiancoding.com/sketch/ns">
    <!-- Generator: Sketch 3.2.2 (9983) - http://www.bohemiancoding.com/sketch -->
    <title>20 - Spider (Flat)</title>
    <desc>Created with Sketch.</desc>
    <defs></defs>
    <g id="Page-1" stroke="none" stroke-width="1" fill="none" fill-rule="evenodd" sketch:type="MSPage">
        <g id="20---Spider-(Flat)" sketch:type="MSLayerGroup">
            <path d="M13.896,24.393 L22.409,30.63 C22.588,30.761 22.794,30.823 22.999,30.823 C23.307,30.823 23.611,30.682 23.807,30.414 C24.133,29.969 24.037,29.343 23.591,29.017 L15.066,22.771 C13.772,21.854 13,20.36 13,18.775 L13,1.823 C13,1.27 12.552,0.823 12,0.823 C11.448,0.823 11,1.27 11,1.823 L11,18.775 C11,21.008 12.088,23.111 13.896,24.393" id="Fill-19" fill="#556080" sketch:type="MSShapeGroup"></path>
            <path d="M20.503,49.216 C19.401,47.195 19.63,44.751 21.083,42.973 L24.689,39.549 C25.089,39.168 25.106,38.535 24.725,38.135 C24.344,37.733 23.711,37.718 23.312,38.098 L19.662,41.563 L19.583,41.648 C17.569,44.065 17.241,47.411 18.747,50.173 L23.181,58.302 C23.363,58.635 23.705,58.823 24.06,58.823 C24.221,58.823 24.385,58.784 24.538,58.701 C25.023,58.436 25.201,57.829 24.937,57.345 L20.503,49.216" id="Fill-20" fill="#556080" sketch:type="MSShapeGroup"></path>
            <path d="M22.932,35.461 C22.733,34.947 22.155,34.688 21.638,34.892 L12.464,38.457 C10.904,39.15 9.847,40.639 9.705,42.34 L8.788,53.349 C8.742,53.899 9.151,54.382 9.701,54.428 C9.73,54.431 9.758,54.432 9.785,54.432 C10.3,54.432 10.737,54.037 10.781,53.515 L11.698,42.506 C11.779,41.532 12.384,40.682 13.233,40.303 L22.362,36.755 C22.877,36.556 23.133,35.975 22.932,35.461" id="Fill-21" fill="#556080" sketch:type="MSShapeGroup"></path>
            <path d="M11.978,30.977 L21.723,33.784 C21.816,33.81 21.909,33.823 22.001,33.823 C22.435,33.823 22.835,33.538 22.961,33.1 C23.114,32.569 22.808,32.016 22.277,31.862 L12.542,29.058 C11.184,28.65 10.027,27.761 9.284,26.554 L1.852,14.476 C1.562,14.006 0.945,13.857 0.476,14.148 C0.006,14.437 -0.141,15.054 0.149,15.524 L7.581,27.602 C8.581,29.227 10.138,30.425 11.978,30.977" id="Fill-22" fill="#556080" sketch:type="MSShapeGroup"></path>
            <path d="M33.001,30.823 C33.206,30.823 33.412,30.761 33.591,30.63 L42.092,24.402 C43.912,23.111 45,21.008 45,18.775 L45,1.823 C45,1.27 44.552,0.823 44,0.823 C43.448,0.823 43,1.27 43,1.823 L43,18.775 C43,20.36 42.228,21.854 40.922,22.78 L32.409,29.017 C31.963,29.343 31.867,29.969 32.193,30.414 C32.389,30.682 32.693,30.823 33.001,30.823" id="Fill-23" fill="#556080" sketch:type="MSShapeGroup"></path>
            <path d="M32.688,38.098 C32.289,37.719 31.656,37.733 31.275,38.135 C30.894,38.535 30.911,39.168 31.311,39.549 L34.917,42.973 C36.37,44.751 36.599,47.195 35.497,49.216 L31.063,57.345 C30.799,57.829 30.977,58.436 31.462,58.701 C31.615,58.784 31.779,58.823 31.94,58.823 C32.294,58.823 32.638,58.635 32.819,58.302 L37.253,50.173 C38.759,47.411 38.431,44.065 36.417,41.648 L32.688,38.098" id="Fill-24" fill="#556080" sketch:type="MSShapeGroup"></path>
            <path d="M43.492,38.439 L34.362,34.892 C33.848,34.688 33.268,34.946 33.068,35.461 C32.867,35.975 33.123,36.556 33.638,36.755 L42.724,40.285 C43.616,40.682 44.221,41.532 44.302,42.506 L45.219,53.515 C45.263,54.037 45.7,54.432 46.215,54.432 C46.242,54.432 46.27,54.431 46.299,54.428 C46.849,54.382 47.258,53.899 47.212,53.349 L46.295,42.34 C46.153,40.639 45.096,39.15 43.492,38.439" id="Fill-25" fill="#556080" sketch:type="MSShapeGroup"></path>
            <path d="M55.524,14.148 C55.054,13.857 54.438,14.006 54.148,14.476 L46.716,26.554 C45.973,27.761 44.816,28.65 43.469,29.055 L33.723,31.862 C33.192,32.016 32.886,32.569 33.039,33.1 C33.165,33.538 33.565,33.823 33.999,33.823 C34.091,33.823 34.184,33.81 34.277,33.784 L44.033,30.974 C45.861,30.425 47.419,29.227 48.419,27.602 L55.851,15.524 C56.141,15.054 55.995,14.437 55.524,14.148" id="Fill-26" fill="#556080" sketch:type="MSShapeGroup"></path>
            <path d="M37.333,16.176 C37.333,23.454 33.155,29.353 28,29.353 C22.845,29.353 18.667,23.454 18.667,16.176 C18.667,8.899 22.845,3 28,3 C33.155,3 37.333,8.899 37.333,16.176" id="Fill-324" fill="#556080" sketch:type="MSShapeGroup"></path>
            <path d="M35.137,34.216 C35.137,37.551 31.942,40.255 28,40.255 C24.058,40.255 20.863,37.551 20.863,34.216 C20.863,30.88 24.058,28.176 28,28.176 C31.942,28.176 35.137,30.88 35.137,34.216" id="Fill-325" fill="#2C2F38" sketch:type="MSShapeGroup"></path>
            <path d="M31,49.823 C30.744,49.823 30.488,49.726 30.293,49.53 C29.902,49.14 29.902,48.507 30.293,48.116 C30.721,47.688 30.966,47.035 30.966,46.323 C30.966,45.611 30.72,44.958 30.293,44.53 C29.902,44.14 29.902,43.507 30.293,43.116 C30.684,42.725 31.316,42.725 31.707,43.116 C32.507,43.916 32.966,45.085 32.966,46.323 C32.966,47.561 32.507,48.73 31.707,49.53 C31.512,49.726 31.256,49.823 31,49.823" id="Fill-326" fill="#2C2F38" sketch:type="MSShapeGroup"></path>
            <path d="M25,49.823 C24.744,49.823 24.488,49.726 24.293,49.53 C23.493,48.73 23.034,47.561 23.034,46.323 C23.034,45.085 23.493,43.916 24.293,43.116 C24.683,42.725 25.316,42.725 25.707,43.116 C26.098,43.507 26.098,44.14 25.707,44.53 C25.28,44.958 25.034,45.611 25.034,46.323 C25.034,47.035 25.279,47.688 25.707,48.116 C26.098,48.507 26.098,49.14 25.707,49.53 C25.512,49.726 25.256,49.823 25,49.823" id="Fill-327" fill="#2C2F38" sketch:type="MSShapeGroup"></path>
            <path d="M28,40.255 C26.833,40.255 25.734,40.013 24.762,39.593 C24.383,40.103 24.157,40.704 24.157,41.353 C24.157,43.172 25.878,44.647 28,44.647 C30.122,44.647 31.843,43.172 31.843,41.353 C31.843,40.704 31.617,40.103 31.238,39.593 C30.266,40.013 29.167,40.255 28,40.255" id="Fill-328" fill="#556080" sketch:type="MSShapeGroup"></path>
            <path d="M24,12.177 L32,12.177 C32.552,12.177 33,11.729 33,11.177 C33,10.624 32.552,10.177 32,10.177 L24,10.177 C23.448,10.177 23,10.624 23,11.177 C23,11.729 23.448,12.177 24,12.177" id="Fill-358" fill="#E64C3C" sketch:type="MSShapeGroup"></path>
            <path d="M34,14.177 L22,14.177 C21.448,14.177 21,14.624 21,15.177 C21,15.729 21.448,16.177 22,16.177 L34,16.177 C34.552,16.177 35,15.729 35,15.177 C35,14.624 34.552,14.177 34,14.177" id="Fill-359" fill="#E64C3C" sketch:type="MSShapeGroup"></path>
            <path d="M27,8.177 L29,8.177 C29.552,8.177 30,7.729 30,7.177 C30,6.624 29.552,6.177 29,6.177 L27,6.177 C26.448,6.177 26,6.624 26,7.177 C26,7.729 26.448,8.177 27,8.177" id="Fill-360" fill="#E64C3C" sketch:type="MSShapeGroup"></path>
        </g>
    </g>
</svg>