<?xml version="1.0" encoding="UTF-8" standalone="no"?>
<svg width="60px" height="60px" viewBox="0 0 60 60" version="1.1" xmlns="http://www.w3.org/2000/svg" xmlns:xlink="http://www.w3.org/1999/xlink" xmlns:sketch="http://www.bohemiancoding.com/sketch/ns">
    <!-- Generator: Sketch 3.2.2 (9983) - http://www.bohemiancoding.com/sketch -->
    <title>11 - Spider Web (Flat)</title>
    <desc>Created with Sketch.</desc>
    <defs></defs>
    <g id="Page-1" stroke="none" stroke-width="1" fill="none" fill-rule="evenodd" sketch:type="MSPage">
        <g id="11---Spider-Web-(Flat)" sketch:type="MSLayerGroup">
            <path d="M30.485,5.342 L30.485,5.342 C32.889,12.103 40.612,15.302 47.093,12.221 C47.53,12.014 47.986,12.47 47.778,12.907 C44.698,19.388 47.897,27.111 54.658,29.515 C55.114,29.677 55.114,30.322 54.658,30.485 C47.897,32.889 44.698,40.612 47.778,47.093 C47.986,47.53 47.53,47.986 47.093,47.778 C40.612,44.698 32.889,47.897 30.485,54.658 C30.323,55.114 29.677,55.114 29.515,54.658 C27.111,47.897 19.388,44.698 12.907,47.778 C12.47,47.986 12.014,47.53 12.222,47.093 C15.302,40.612 12.103,32.889 5.342,30.485 C4.886,30.322 4.886,29.677 5.342,29.515 C12.103,27.111 15.302,19.388 12.222,12.907 C12.014,12.47 12.47,12.014 12.907,12.221 C19.388,15.302 27.111,12.103 29.515,5.342 C29.677,4.886 30.323,4.886 30.485,5.342" id="Fill-363" fill="#D1D4D1" sketch:type="MSShapeGroup"></path>
            <path d="M30,40.088 C27.834,38.703 25.423,37.691 22.872,37.125 C22.596,35.87 22.209,34.634 21.711,33.432 C21.213,32.229 20.612,31.082 19.921,30 C20.612,28.918 21.213,27.77 21.711,26.568 C22.209,25.365 22.596,24.13 22.872,22.875 C25.423,22.309 27.834,21.297 30,19.912 C32.166,21.297 34.577,22.309 37.128,22.875 C37.404,24.13 37.791,25.365 38.289,26.568 C38.787,27.77 39.388,28.918 40.079,30 C39.388,31.082 38.787,32.229 38.289,33.432 C37.791,34.634 37.404,35.87 37.128,37.125 C34.577,37.691 32.166,38.703 30,40.088" id="Fill-364" fill="#A5A5A4" sketch:type="MSShapeGroup"></path>
            <path d="M59,29 L32.414,29 L51.213,10.201 C51.604,9.81 51.604,9.178 51.213,8.787 C50.822,8.396 50.189,8.396 49.799,8.787 L31.451,27.135 L31,0.982 C30.99,0.431 30.506,0.016 29.982,0 C29.431,0.01 28.99,0.465 29,1.018 L29.466,28.052 L10.201,8.787 C9.811,8.396 9.178,8.396 8.787,8.787 C8.396,9.178 8.396,9.81 8.787,10.201 L27.586,29 L1,29 C0.447,29 0,29.447 0,30 C0,30.553 0.447,31 1,31 L27.586,31 L8.787,49.799 C8.396,50.189 8.396,50.822 8.787,51.213 C8.982,51.408 9.238,51.506 9.494,51.506 C9.75,51.506 10.006,51.408 10.201,51.213 L29.532,31.882 L30,59.017 C30.01,59.563 30.455,60 31,60 L31.018,60 C31.569,59.99 32.01,59.535 32,58.982 L31.552,32.966 L49.799,51.213 C49.994,51.408 50.25,51.506 50.506,51.506 C50.762,51.506 51.018,51.408 51.213,51.213 C51.604,50.822 51.604,50.189 51.213,49.799 L32.414,31 L59,31 C59.553,31 60,30.553 60,30 C60,29.447 59.553,29 59,29" id="Fill-365" fill="#BDC3C7" sketch:type="MSShapeGroup"></path>
        </g>
    </g>
</svg>