<?xml version="1.0" encoding="UTF-8" standalone="no"?>
<svg width="56px" height="56px" viewBox="0 0 56 56" version="1.1" xmlns="http://www.w3.org/2000/svg" xmlns:xlink="http://www.w3.org/1999/xlink" xmlns:sketch="http://www.bohemiancoding.com/sketch/ns">
    <!-- Generator: Sketch 3.2.2 (9983) - http://www.bohemiancoding.com/sketch -->
    <title>18 - Sprite (Flat)</title>
    <desc>Created with Sketch.</desc>
    <defs></defs>
    <g id="Page-1" stroke="none" stroke-width="1" fill="none" fill-rule="evenodd" sketch:type="MSPage">
        <g id="18---Sprite-(Flat)" sketch:type="MSLayerGroup">
            <path d="M51.048,13.625 C50.4,13.863 49.703,14 48.972,14 C45.643,14 42.944,11.301 42.944,7.972 C42.944,7.084 43.141,6.243 43.486,5.484 C39.05,2.125 33.727,0 28,0 C22.565,0 17.496,1.916 13.201,4.981 C13.707,5.863 14,6.882 14,7.972 C14,11.301 11.301,14 7.972,14 C6.958,14 6.005,13.747 5.167,13.305 C1.917,18.143 0,23.717 0,29 C0,42.531 12.536,56 28,56 C43.464,56 56,42.531 56,29 C56,23.834 54.168,18.388 51.048,13.625" id="Fill-68" fill="#BDC3C7" sketch:type="MSShapeGroup"></path>
            <path d="M16.119,15.83 C18.951,15.816 22.145,18.132 23.971,21.827 C25.717,25.36 25.702,29.12 24.184,31.403 C21.351,31.417 18.158,29.101 16.332,25.406 C14.586,21.874 14.6,18.114 16.119,15.83" id="Fill-329" fill="#FFFFFF" sketch:type="MSShapeGroup"></path>
            <path d="M43.707,41.293 L42.255,39.841 C42.733,38.951 43,37.998 43,37 C43,36.447 42.552,36 42,36 C41.448,36 41,36.447 41,37 C41,37.455 40.91,37.9 40.747,38.333 L39.464,37.051 C39.074,36.66 38.441,36.66 38.05,37.051 C37.66,37.441 37.66,38.074 38.05,38.465 L39.636,40.05 C38.764,40.988 37.518,41.814 36.001,42.465 L34.866,40.5 C34.589,40.021 33.978,39.856 33.5,40.134 C33.022,40.41 32.858,41.021 33.134,41.5 L34.089,43.153 C32.542,43.608 30.816,43.893 29,43.972 L29,42 C29,41.447 28.552,41 28,41 C27.448,41 27,41.447 27,42 L27,43.972 C25.184,43.893 23.458,43.608 21.911,43.153 L22.866,41.5 C23.142,41.021 22.979,40.41 22.5,40.134 C22.021,39.856 21.41,40.022 21.134,40.5 L19.999,42.465 C18.482,41.814 17.236,40.988 16.364,40.05 L17.95,38.465 C18.34,38.074 18.34,37.441 17.95,37.051 C17.559,36.66 16.926,36.66 16.536,37.051 L15.253,38.333 C15.09,37.9 15,37.455 15,37 C15,36.447 14.552,36 14,36 C13.448,36 13,36.447 13,37 C13,37.998 13.267,38.951 13.745,39.841 L12.293,41.293 C11.902,41.684 11.902,42.316 12.293,42.707 C12.488,42.902 12.744,43 13,43 C13.256,43 13.512,42.902 13.707,42.707 L14.938,41.476 C15.953,42.559 17.333,43.491 18.982,44.227 L18.134,45.696 C17.858,46.175 18.022,46.786 18.5,47.062 C18.658,47.153 18.83,47.196 18.999,47.196 C19.345,47.196 19.681,47.017 19.866,46.696 L20.873,44.952 C22.708,45.534 24.783,45.886 27,45.971 L27,48 C27,48.553 27.448,49 28,49 C28.552,49 29,48.553 29,48 L29,45.971 C31.217,45.886 33.292,45.534 35.127,44.952 L36.134,46.696 C36.319,47.017 36.655,47.196 37.001,47.196 C37.17,47.196 37.342,47.153 37.5,47.062 C37.979,46.786 38.142,46.175 37.866,45.696 L37.018,44.227 C38.667,43.491 40.047,42.559 41.062,41.476 L42.293,42.707 C42.488,42.902 42.744,43 43,43 C43.256,43 43.512,42.902 43.707,42.707 C44.098,42.316 44.098,41.684 43.707,41.293" id="Fill-521" fill="#556080" sketch:type="MSShapeGroup"></path>
            <path d="M20.303,25 C20.303,27.61 22.31,29.729 24.861,29.955 C25.627,27.7 25.388,24.695 23.971,21.827 C23.736,21.353 23.478,20.903 23.202,20.477 C21.494,21.272 20.303,22.991 20.303,25" id="Fill-522" fill="#7F5B53" sketch:type="MSShapeGroup"></path>
            <path d="M38.881,15.83 C36.049,15.816 32.855,18.132 31.029,21.827 C29.283,25.36 29.298,29.12 30.816,31.403 C33.649,31.417 36.842,29.101 38.668,25.406 C40.414,21.874 40.4,18.114 38.881,15.83" id="Fill-523" fill="#FFFFFF" sketch:type="MSShapeGroup"></path>
            <path d="M34.697,25 C34.697,27.61 32.69,29.729 30.139,29.955 C29.373,27.7 29.612,24.695 31.029,21.827 C31.264,21.353 31.522,20.903 31.798,20.477 C33.506,21.272 34.697,22.991 34.697,25" id="Fill-524" fill="#7F5B53" sketch:type="MSShapeGroup"></path>
            <path d="M24.303,25 C24.303,25.552 23.855,26 23.303,26 C22.75,26 22.303,25.552 22.303,25 C22.303,24.448 22.75,24 23.303,24 C23.855,24 24.303,24.448 24.303,25" id="Fill-525" fill="#FFFFFF" sketch:type="MSShapeGroup"></path>
            <path d="M32.697,25 C32.697,25.552 32.25,26 31.697,26 C31.145,26 30.697,25.552 30.697,25 C30.697,24.448 31.145,24 31.697,24 C32.25,24 32.697,24.448 32.697,25" id="Fill-526" fill="#FFFFFF" sketch:type="MSShapeGroup"></path>
            <path d="M14,7.972 L14,7.972 C14,11.301 11.301,14 7.972,14 C4.643,14 1.944,11.301 1.944,7.972 L1.944,2.972 C1.944,2.404 2.404,1.944 2.972,1.944 L7.972,1.944 C11.301,1.944 14,4.643 14,7.972" id="Fill-527" fill="#E64C3C" sketch:type="MSShapeGroup"></path>
            <path d="M48.972,14 L48.972,14 C45.643,14 42.944,11.301 42.944,7.972 C42.944,4.643 45.643,1.944 48.972,1.944 L53.972,1.944 C54.54,1.944 55,2.404 55,2.972 L55,7.972 C55,11.301 52.301,14 48.972,14" id="Fill-528" fill="#E64C3C" sketch:type="MSShapeGroup"></path>
        </g>
    </g>
</svg>