<?xml version="1.0" encoding="UTF-8" standalone="no"?>
<svg width="56px" height="58px" viewBox="0 0 56 58" version="1.1" xmlns="http://www.w3.org/2000/svg" xmlns:xlink="http://www.w3.org/1999/xlink" xmlns:sketch="http://www.bohemiancoding.com/sketch/ns">
    <!-- Generator: Sketch 3.2.2 (9983) - http://www.bohemiancoding.com/sketch -->
    <title>16 - Trick O' Treat Basket (Flat)</title>
    <desc>Created with Sketch.</desc>
    <defs></defs>
    <g id="Page-1" stroke="none" stroke-width="1" fill="none" fill-rule="evenodd" sketch:type="MSPage">
        <g id="16---Trick-O'-Treat-Basket-(Flat)" sketch:type="MSLayerGroup">
            <path d="M51.599,20 L4.401,20 C1.619,23.806 0,28.326 0,33.179 C0,46.71 12.536,57.679 28,57.679 C43.464,57.679 56,46.71 56,33.179 C56,28.326 54.381,23.806 51.599,20" id="Fill-64" fill="#E57E25" sketch:type="MSShapeGroup"></path>
            <path d="M26.735,42.035 C17.225,42.16 12,39 12,39 C12,39 12.5,51.833 28,52 C43.5,51.833 44,39 44,39 C44,39 38.775,42.16 29.265,42.035 C28.422,42.024 27.579,42.024 26.735,42.035" id="Fill-281" fill="#805333" sketch:type="MSShapeGroup"></path>
            <path d="M24,31 C24,33.761 21.538,36 18.5,36 C15.462,36 13,33.761 13,31 C13,28.239 15.462,26 18.5,26 C21.538,26 24,28.239 24,31" id="Fill-282" fill="#F0C419" sketch:type="MSShapeGroup"></path>
            <path d="M43,31 C43,33.761 40.538,36 37.5,36 C34.462,36 32,33.761 32,31 C32,28.239 34.462,26 37.5,26 C40.538,26 43,28.239 43,31" id="Fill-283" fill="#F0C419" sketch:type="MSShapeGroup"></path>
            <path d="M24,51.635 L24,47 L18,45 L18,49.311 C19.561,50.346 21.523,51.184 24,51.635" id="Fill-284" fill="#F0C419" sketch:type="MSShapeGroup"></path>
            <path d="M33,41.907 L33,47 L39,45 L39,40.905 C37.375,41.334 35.367,41.716 33,41.907" id="Fill-285" fill="#F0C419" sketch:type="MSShapeGroup"></path>
            <path d="M42.044,15.428 C40.879,15.428 39.881,16.172 39.399,17.244 C38.996,16.636 38.347,16.237 37.609,16.237 C36.938,16.237 36.344,16.57 35.938,17.085 C35.489,15.654 34.263,14.619 32.804,14.619 C31.345,14.619 30.119,15.654 29.671,17.085 C29.264,16.57 28.671,16.237 28,16.237 C27.422,16.237 26.901,16.485 26.507,16.881 C26.425,14.725 24.815,13 22.826,13 C21.129,13 19.714,14.259 19.281,15.966 C18.813,15.627 18.255,15.428 17.652,15.428 C16.487,15.428 15.49,16.172 15.008,17.244 C14.605,16.636 13.956,16.237 13.217,16.237 C11.993,16.237 11,18.659 11,20 L45,20 C45,18.212 43.676,15.428 42.044,15.428" id="Fill-305" fill="#B49ACA" sketch:type="MSShapeGroup"></path>
            <path d="M47,20 C47,11.163 38.493,4 28,4 C17.507,4 9,11.163 9,20 L5,20 C5,8.972 15.318,0 28,0 C40.682,0 51,8.972 51,20 L47,20" id="Fill-340" fill="#C9702D" sketch:type="MSShapeGroup"></path>
        </g>
    </g>
</svg>