<?xml version="1.0" encoding="UTF-8" standalone="no"?>
<svg width="56px" height="52px" viewBox="0 0 56 52" version="1.1" xmlns="http://www.w3.org/2000/svg" xmlns:xlink="http://www.w3.org/1999/xlink" xmlns:sketch="http://www.bohemiancoding.com/sketch/ns">
    <!-- Generator: Sketch 3.2.2 (9983) - http://www.bohemiancoding.com/sketch -->
    <title>14 - Wizard Hat (Flat)</title>
    <desc>Created with Sketch.</desc>
    <defs></defs>
    <g id="Page-1" stroke="none" stroke-width="1" fill="none" fill-rule="evenodd" sketch:type="MSPage">
        <g id="14---Wizard-Hat-(Flat)" sketch:type="MSLayerGroup" transform="translate(0.000000, -1.000000)">
            <path d="M42.56,41.879 L42.939,43.129 C43.18,43.926 42.689,44.743 41.828,45.019 C40.942,45.303 40.018,45.55 39.072,45.773 C32.816,47.626 25.028,47.699 17.198,46.174 C15.577,45.925 13.951,45.628 12.33,45.269 C11.197,45.018 10.646,43.855 11.246,42.95 L11.802,42.111 C4.666,43.198 0,44.981 0,47 C0,50.314 12.536,53 28,53 C43.464,53 56,50.314 56,47 C56,44.83 50.615,42.933 42.56,41.879" id="Fill-362" fill="#3D324C" sketch:type="MSShapeGroup"></path>
            <path d="M18.623,31.819 L9.916,42.95 C9.316,43.855 9.867,47 11,47.25 C21.574,49.591 34.874,49.606 43,47 C43.86,46.724 44.352,43.926 44.11,43.129 L43.53,41.211 C43.012,39.499 41.23,37.803 40.376,36.206 C39.813,35.154 39.543,34.053 39.966,32.904 C40.842,30.527 41.277,28.036 41.254,25.53 C41.233,23.243 40.687,20.984 39.748,18.86 L38.587,16.236 C37.493,13.761 37.616,10.963 39.006,8.612 C40.97,5.291 41.467,3.292 41.51,2.157 C41.537,1.422 40.773,0.874 39.978,1.025 C37.297,1.535 31.058,3.513 27.725,11.05 L23.175,20.927 C22.27,22.893 20.737,24.514 19.07,26.017 C18.202,26.801 18.067,28.03 18.747,28.953 C19.395,29.833 19.345,30.989 18.623,31.819" id="Fill-849" fill="#556080" sketch:type="MSShapeGroup"></path>
            <path d="M24.992,30.279 L25.922,32.162 L28,32.464 L26.496,33.93 L26.851,36 L24.992,35.023 L23.134,36 L23.489,33.93 L21.985,32.464 L24.063,32.162 L24.992,30.279" id="Fill-850" fill="#F0C419" sketch:type="MSShapeGroup"></path>
            <path d="M34.993,27 L35.922,28.883 L38,29.185 L36.496,30.651 L36.851,32.721 L34.993,31.743 L33.134,32.721 L33.489,30.651 L31.985,29.185 L34.063,28.883 L34.993,27" id="Fill-851" fill="#F0C419" sketch:type="MSShapeGroup"></path>
            <path d="M29.008,20 L29.937,21.883 L32.015,22.185 L30.511,23.651 L30.866,25.721 L29.008,24.743 L27.149,25.721 L27.504,23.651 L26,22.185 L28.078,21.883 L29.008,20" id="Fill-852" fill="#F0C419" sketch:type="MSShapeGroup"></path>
            <path d="M32.992,11 L33.922,12.883 L36,13.185 L34.496,14.651 L34.851,16.721 L32.992,15.743 L31.134,16.721 L31.489,14.651 L29.985,13.185 L32.063,12.883 L32.992,11" id="Fill-853" fill="#F0C419" sketch:type="MSShapeGroup"></path>
            <path d="M27.958,38.768 C32.336,38.768 37.921,38.606 41.798,38.288 C41.315,37.644 40.841,37.009 40.485,36.388 C33.689,36.869 22.552,36.892 14.995,36.457 L13.508,38.358 C17.796,38.63 23.913,38.768 27.958,38.768" id="Fill-854" fill="#8697CB" sketch:type="MSShapeGroup"></path>
        </g>
    </g>
</svg>