<?xml version="1.0" encoding="UTF-8" standalone="no"?>
<svg width="56px" height="53px" viewBox="0 0 56 53" version="1.1" xmlns="http://www.w3.org/2000/svg" xmlns:xlink="http://www.w3.org/1999/xlink" xmlns:sketch="http://www.bohemiancoding.com/sketch/ns">
    <!-- Generator: Sketch 3.2.2 (9983) - http://www.bohemiancoding.com/sketch -->
    <title>49 - Campfire (Flat)</title>
    <desc>Created with Sketch.</desc>
    <defs></defs>
    <g id="Page-1" stroke="none" stroke-width="1" fill="none" fill-rule="evenodd" sketch:type="MSPage">
        <g id="49---Campfire-(Flat)" sketch:type="MSLayerGroup">
            <path d="M52.259,44.265 L37.199,38.871 C37.229,38.598 37.232,38.322 37.214,38.044 C34.487,40.521 31.137,42 27.5,42 C23.968,42 20.703,40.609 18.019,38.261 C18.016,38.466 18.022,38.67 18.044,38.871 L2.984,44.265 C0.654,45.099 -0.57,47.688 0.265,50.018 C1.099,52.349 3.688,53.572 6.018,52.738 L27.622,45.001 L49.225,52.738 C51.555,53.572 54.144,52.349 54.979,50.018 C55.813,47.688 54.589,45.099 52.259,44.265" id="Fill-119" fill="#6C4126" sketch:type="MSShapeGroup"></path>
            <path d="M6.018,52.735 C3.679,53.573 1.103,52.356 0.265,50.016 C-0.573,47.676 0.644,45.1 2.984,44.262 C5.324,43.424 7.9,44.642 8.738,46.982 C9.576,49.321 8.358,51.897 6.018,52.735" id="Fill-121" fill="#492C1C" sketch:type="MSShapeGroup"></path>
            <path d="M49.225,52.735 C51.565,53.573 54.141,52.356 54.979,50.016 C55.817,47.676 54.599,45.1 52.259,44.262 C49.92,43.424 47.344,44.642 46.506,46.982 C45.668,49.321 46.885,51.897 49.225,52.735" id="Fill-122" fill="#492C1C" sketch:type="MSShapeGroup"></path>
            <path d="M16.949,45.684 C16.774,45.16 16.208,44.876 15.684,45.051 L8.826,47.337 C9.015,48.039 9.034,48.749 8.891,49.424 L16.316,46.949 C16.84,46.774 17.123,46.208 16.949,45.684" id="Fill-618" fill="#895D45" sketch:type="MSShapeGroup"></path>
            <path d="M12.949,43.684 C12.774,43.16 12.209,42.875 11.684,43.051 L6.827,44.67 C7.462,45.055 8.007,45.586 8.393,46.257 L12.316,44.949 C12.84,44.774 13.123,44.208 12.949,43.684" id="Fill-619" fill="#895D45" sketch:type="MSShapeGroup"></path>
            <path d="M48.329,44.722 L43.316,43.051 C42.791,42.875 42.226,43.16 42.051,43.684 C41.876,44.208 42.16,44.774 42.684,44.949 L46.817,46.327 C47.188,45.657 47.711,45.117 48.329,44.722" id="Fill-620" fill="#895D45" sketch:type="MSShapeGroup"></path>
            <path d="M46.399,47.412 L39.316,45.051 C38.79,44.876 38.226,45.16 38.051,45.684 C37.876,46.208 38.16,46.774 38.684,46.949 L46.365,49.509 C46.209,48.834 46.222,48.12 46.399,47.412" id="Fill-621" fill="#895D45" sketch:type="MSShapeGroup"></path>
            <path d="M37.199,38.871 C37.229,38.598 37.232,38.322 37.214,38.044 C34.487,40.521 31.137,42 27.5,42 C23.968,42 20.703,40.609 18.019,38.261 C18.016,38.466 18.022,38.67 18.044,38.871 L13.784,40.397 C15.891,43.439 18.751,45.762 22.048,46.997 L27.622,45.001 L33.064,46.95 C36.338,45.694 39.175,43.367 41.263,40.326 L37.199,38.871" id="Fill-633" fill="#BF8840" sketch:type="MSShapeGroup"></path>
            <path id="Stroke-634" stroke="#0F81E0" stroke-width="2" stroke-linecap="round" stroke-linejoin="round" sketch:type="MSShapeGroup"></path>
            <path d="M41,7 C41,16.5 33,23 33,23 C33,15.5 30,9 30,9 C30,14.875 26,18 26,18 C20.656,12.656 26,0 26,0 C18.39,1.004 11.575,6.25 11.575,15 C11.575,21.187 13.304,25.304 16,28 C16,28 13.607,26.612 11.22,25.697 C12.458,35.496 19.265,43 27.5,43 C36.613,43 44,34.562 44,23 C44,11.437 41,7 41,7" id="Fill-635" fill="#ECBA16" sketch:type="MSShapeGroup"></path>
            <path d="M32.912,29.442 C32.912,32.756 29.377,35.721 29.377,35.721 C29.377,33.105 28.052,30.488 28.052,30.488 C28.052,32.538 24.959,32.581 24.959,32.581 C23.578,31.099 24.959,27 24.959,27 C21.596,27.35 19.91,29.18 19.91,32.233 C19.91,34.391 20.674,35.827 21.866,36.767 C21.866,36.767 20.808,36.283 19.754,35.964 C20.301,39.382 23.308,42 26.947,42 C30.973,42 34.238,39.057 34.238,35.023 C34.238,30.99 32.912,29.442 32.912,29.442" id="Fill-636" fill="#DD691D" sketch:type="MSShapeGroup"></path>
        </g>
    </g>
</svg>