<?xml version="1.0" encoding="UTF-8" standalone="no"?>
<svg width="58px" height="59px" viewBox="0 0 58 59" version="1.1" xmlns="http://www.w3.org/2000/svg" xmlns:xlink="http://www.w3.org/1999/xlink" xmlns:sketch="http://www.bohemiancoding.com/sketch/ns">
    <!-- Generator: Sketch 3.2.2 (9983) - http://www.bohemiancoding.com/sketch -->
    <title>36 - Camping Backpack (Flat)</title>
    <desc>Created with Sketch.</desc>
    <defs></defs>
    <g id="Page-1" stroke="none" stroke-width="1" fill="none" fill-rule="evenodd" sketch:type="MSPage">
        <g id="36---Camping-Backpack-(Flat)" sketch:type="MSLayerGroup">
            <path d="M39,8 L19,8 L19,2.24 C19,1.005 20.005,0 21.24,0 L36.76,0 C37.995,0 39,1.005 39,2.24 L39,8 L39,8 Z M21,6 L37,6 L37,2.24 C37,2.108 36.892,2 36.76,2 L21.24,2 C21.108,2 21,2.108 21,2.24 L21,6 L21,6 Z" id="Fill-75" fill="#556080" sketch:type="MSShapeGroup"></path>
            <path d="M6,14 L6,53 C6,56.3 8.7,59 12,59 L46,59 C49.3,59 52,56.3 52,53 L52,14 L6,14" id="Fill-108" fill="#556080" sketch:type="MSShapeGroup"></path>
            <path d="M14,14 L20,14 L20,25 L14,25 L14,14 Z" id="Fill-245" fill="#3E4C70" sketch:type="MSShapeGroup"></path>
            <path d="M14,33 L14,35 L17,39 L20,35 L20,33 L14,33" id="Fill-246" fill="#3E4C70" sketch:type="MSShapeGroup"></path>
            <path d="M38,14 L44,14 L44,25 L38,25 L38,14 Z" id="Fill-247" fill="#3E4C70" sketch:type="MSShapeGroup"></path>
            <path d="M38,33 L38,35 L41,39 L44,35 L44,33 L38,33" id="Fill-248" fill="#3E4C70" sketch:type="MSShapeGroup"></path>
            <path d="M29.529,29.895 L25.666,26.032 L29.552,22.147 L33.414,26.009 L29.529,29.895 L29.529,29.895 Z M28.495,26.032 L29.529,27.066 L30.586,26.009 L29.552,24.975 L28.495,26.032 L28.495,26.032 Z" id="Fill-249" fill="#ECBA16" sketch:type="MSShapeGroup"></path>
            <path d="M54,14 L4,14 L4,8.141 C4,6.406 5.406,5 7.141,5 L50.859,5 C52.594,5 54,6.406 54,8.141 L54,14" id="Fill-609" fill="#28384B" sketch:type="MSShapeGroup"></path>
            <path d="M54.508,51 L52,51 L52,27 L55.705,27 C56.972,27 58,28.027 58,29.295 L58,47.508 C58,49.436 56.436,51 54.508,51" id="Fill-610" fill="#28384B" sketch:type="MSShapeGroup"></path>
            <path d="M6,51 L3.492,51 C1.564,51 0,49.436 0,47.508 L0,29.295 C0,28.027 1.028,27 2.295,27 L6,27 L6,51" id="Fill-611" fill="#28384B" sketch:type="MSShapeGroup"></path>
            <path d="M12,43 L46,43 L46,59 L12,59 L12,43 Z" id="Fill-612" fill="#3E4C70" sketch:type="MSShapeGroup"></path>
            <path d="M12,43 L46,43 L46,50 L12,50 L12,43 Z" id="Fill-613" fill="#28384B" sketch:type="MSShapeGroup"></path>
            <path d="M12,24 L22,24 L22,34 L12,34 L12,24 Z M14,32 L20,32 L20,26 L14,26 L14,32 Z" id="Fill-669" fill="#C7CBC7" sketch:type="MSShapeGroup"></path>
            <path d="M36,24 L46,24 L46,34 L36,34 L36,24 Z M38,32 L44,32 L44,26 L38,26 L38,32 Z" id="Fill-670" fill="#C7CBC7" sketch:type="MSShapeGroup"></path>
            <path d="M17,33 C16.448,33 16,32.552 16,32 L16,30 C16,29.448 16.448,29 17,29 C17.552,29 18,29.448 18,30 L18,32 C18,32.552 17.552,33 17,33" id="Fill-671" fill="#FFFFFF" sketch:type="MSShapeGroup"></path>
            <path d="M41,33 C40.448,33 40,32.552 40,32 L40,30 C40,29.448 40.448,29 41,29 C41.552,29 42,29.448 42,30 L42,32 C42,32.552 41.552,33 41,33" id="Fill-672" fill="#FFFFFF" sketch:type="MSShapeGroup"></path>
        </g>
    </g>
</svg>