<?xml version="1.0" encoding="UTF-8" standalone="no"?>
<svg width="58px" height="58px" viewBox="0 0 58 58" version="1.1" xmlns="http://www.w3.org/2000/svg" xmlns:xlink="http://www.w3.org/1999/xlink" xmlns:sketch="http://www.bohemiancoding.com/sketch/ns">
    <!-- Generator: Sketch 3.2.2 (9983) - http://www.bohemiancoding.com/sketch -->
    <title>15 - Canoe (Flat)</title>
    <desc>Created with Sketch.</desc>
    <defs></defs>
    <g id="Page-1" stroke="none" stroke-width="1" fill="none" fill-rule="evenodd" sketch:type="MSPage">
        <g id="15---Canoe-(Flat)" sketch:type="MSLayerGroup" transform="translate(0.000000, -1.000000)">
            <path d="M23.3,49.842 C15.685,57.458 6.345,60.465 2.44,56.56 C-1.465,52.655 1.542,43.315 9.158,35.7 L28.716,16.142 C44.449,0.409 57,2 57,2 C57,2 58.591,14.551 42.858,30.284 L23.3,49.842" id="Fill-91" fill="#7E582B" sketch:type="MSShapeGroup"></path>
            <path d="M21.744,28.771 L28.956,21.559 C31.289,19.225 35.108,19.225 37.441,21.559 C39.775,23.892 39.775,27.711 37.441,30.044 L30.229,37.256 C29.916,37.569 29.409,37.569 29.097,37.256 L21.744,29.903 C21.431,29.591 21.431,29.084 21.744,28.771" id="Fill-92" fill="#44301B" sketch:type="MSShapeGroup"></path>
            <path d="M46.633,20.438 C46.435,20.438 46.237,20.379 46.063,20.258 C45.609,19.943 45.497,19.32 45.812,18.867 C48.834,14.521 50.239,11.257 50.887,9.283 C51.065,8.738 51.218,8.221 51.347,7.732 C48.868,8.324 44.971,9.822 40.134,13.187 C39.682,13.502 39.057,13.392 38.741,12.938 C38.426,12.484 38.538,11.861 38.991,11.546 C44.062,8.019 48.187,6.437 50.756,5.732 C51.469,5.534 52.213,5.728 52.739,6.25 C53.269,6.773 53.471,7.518 53.28,8.242 C53.142,8.767 52.979,9.323 52.787,9.907 C51.8,12.919 49.956,16.412 47.455,20.008 C47.261,20.288 46.949,20.438 46.633,20.438" id="Fill-427" fill="#AD8559" sketch:type="MSShapeGroup"></path>
            <path id="Fill-428" fill="#F3EDBF" sketch:type="MSShapeGroup"></path>
            <path d="M33.198,34.287 L24.713,25.801 L26.127,24.387 L34.612,32.873 L33.198,34.287" id="Fill-429" fill="#7E582B" sketch:type="MSShapeGroup"></path>
            <path d="M20.47,46.601 C19.967,46.601 19.533,46.223 19.477,45.711 L18.062,32.983 C18.002,32.434 18.398,31.94 18.946,31.879 C19.5,31.817 19.99,32.214 20.051,32.762 L21.465,45.49 C21.525,46.039 21.13,46.534 20.581,46.594 C20.544,46.599 20.506,46.601 20.47,46.601" id="Fill-430" fill="#F3EDBF" sketch:type="MSShapeGroup"></path>
            <path d="M26.128,40.944 C26.091,40.944 26.054,40.942 26.017,40.937 L13.289,39.523 C12.74,39.462 12.345,38.968 12.405,38.419 C12.467,37.871 12.971,37.477 13.51,37.536 L26.237,38.95 C26.786,39.011 27.182,39.505 27.121,40.054 C27.064,40.565 26.631,40.944 26.128,40.944" id="Fill-431" fill="#F3EDBF" sketch:type="MSShapeGroup"></path>
            <path d="M11.984,55.086 C11.481,55.086 11.048,54.708 10.991,54.196 L9.577,41.468 C9.517,40.919 9.912,40.425 10.461,40.364 C11.014,40.297 11.505,40.7 11.565,41.248 L12.979,53.976 C13.04,54.524 12.644,55.019 12.096,55.08 C12.059,55.084 12.02,55.086 11.984,55.086" id="Fill-432" fill="#F3EDBF" sketch:type="MSShapeGroup"></path>
            <path d="M17.644,49.429 C17.606,49.429 17.569,49.427 17.532,49.422 L4.804,48.008 C4.255,47.948 3.859,47.453 3.92,46.904 C3.981,46.356 4.486,45.961 5.024,46.021 L17.753,47.435 C18.302,47.496 18.697,47.99 18.637,48.539 C18.58,49.05 18.146,49.429 17.644,49.429" id="Fill-433" fill="#F3EDBF" sketch:type="MSShapeGroup"></path>
            <path d="M8.912,15.602 C9.489,16.179 10.201,16.537 10.948,16.681 C12.339,16.95 13.654,17.516 14.656,18.517 L20.498,24.36 L23.326,21.531 L17.484,15.689 C16.483,14.688 15.917,13.372 15.648,11.982 C15.504,11.234 15.146,10.522 14.568,9.945 L6.79,2.167 C5.139,0.515 2.372,0.617 0.858,2.472 C-0.461,4.087 -0.208,6.482 1.267,7.957 L8.912,15.602" id="Fill-434" fill="#BD7938" sketch:type="MSShapeGroup"></path>
            <path d="M56.733,52.043 L49.088,44.398 C48.511,43.821 47.799,43.463 47.052,43.319 C45.661,43.05 44.346,42.484 43.344,41.483 L37.502,35.64 L34.674,38.469 L40.516,44.311 C41.517,45.313 42.083,46.628 42.352,48.018 C42.496,48.766 42.854,49.478 43.431,50.055 L51.21,57.833 C52.861,59.485 55.628,59.383 57.142,57.528 C58.461,55.913 58.208,53.518 56.733,52.043" id="Fill-435" fill="#BD7938" sketch:type="MSShapeGroup"></path>
            <path d="M46,14 C46,14.552 45.552,15 45,15 C44.448,15 44,14.552 44,14 C44,13.448 44.448,13 45,13 C45.552,13 46,13.448 46,14" id="Fill-436" fill="#AD8559" sketch:type="MSShapeGroup"></path>
            <path d="M44,16 C44,16.552 43.552,17 43,17 C42.448,17 42,16.552 42,16 C42,15.448 42.448,15 43,15 C43.552,15 44,15.448 44,16" id="Fill-437" fill="#AD8559" sketch:type="MSShapeGroup"></path>
            <path d="M42,18 C42,18.552 41.552,19 41,19 C40.448,19 40,18.552 40,18 C40,17.448 40.448,17 41,17 C41.552,17 42,17.448 42,18" id="Fill-438" fill="#AD8559" sketch:type="MSShapeGroup"></path>
        </g>
    </g>
</svg>