<?xml version="1.0" encoding="UTF-8" standalone="no"?>
<svg width="60px" height="58px" viewBox="0 0 60 58" version="1.1" xmlns="http://www.w3.org/2000/svg" xmlns:xlink="http://www.w3.org/1999/xlink" xmlns:sketch="http://www.bohemiancoding.com/sketch/ns">
    <!-- Generator: Sketch 3.2.2 (9983) - http://www.bohemiancoding.com/sketch -->
    <title>42 - Canteen (Flat)</title>
    <desc>Created with Sketch.</desc>
    <defs></defs>
    <g id="Page-1" stroke="none" stroke-width="1" fill="none" fill-rule="evenodd" sketch:type="MSPage">
        <g id="42---Canteen-(Flat)" sketch:type="MSLayerGroup">
            <path d="M56,30 L4,30 C2.343,30 1,31.343 1,33 C1,34.657 2.343,36 4,36 L56,36 C57.657,36 59,34.657 59,33 C59,31.343 57.657,30 56,30" id="Fill-78" fill="#2A4F24" sketch:type="MSShapeGroup"></path>
            <path d="M26,5 L34,5 L34,10.342 L26,10.342 L26,5 Z" id="Fill-79" fill="#2A4F24" sketch:type="MSShapeGroup"></path>
            <path d="M55,33 C55,46.807 43.807,58 30,58 C16.193,58 5,46.807 5,33 C5,19.193 16.193,8 30,8 C43.807,8 55,19.193 55,33" id="Fill-113" fill="#57823B" sketch:type="MSShapeGroup"></path>
            <path d="M27.004,36.454 L27.004,36.454 C25.383,34.817 25.389,32.177 27.018,30.548 L29.791,27.776 C29.909,27.657 30.102,27.657 30.22,27.776 L32.966,30.521 C34.606,32.162 34.599,34.823 32.951,36.456 L32.924,36.483 C31.281,38.109 28.63,38.096 27.004,36.454" id="Fill-171" fill="#80BC76" sketch:type="MSShapeGroup"></path>
            <path d="M36.446,5 L23.554,5 C23.248,5 23,4.752 23,4.446 L23,0.554 C23,0.248 23.248,0 23.554,0 L36.446,0 C36.752,0 37,0.248 37,0.554 L37,4.446 C37,4.752 36.752,5 36.446,5" id="Fill-172" fill="#142813" sketch:type="MSShapeGroup"></path>
            <path d="M1.999,31 C1.504,31 1.073,30.633 1.008,30.128 C1.004,30.097 0.906,29.329 0.841,28.057 C0.813,27.505 1.237,27.035 1.789,27.007 C2.348,26.986 2.811,27.403 2.839,27.955 C2.898,29.142 2.991,29.865 2.992,29.872 C3.063,30.419 2.676,30.921 2.128,30.992 C2.085,30.997 2.041,31 1.999,31 L1.999,31 Z M1.826,25.004 C1.812,25.004 1.797,25.003 1.782,25.003 C1.23,24.979 0.803,24.513 0.826,23.961 C0.854,23.311 0.898,22.626 0.962,21.916 C1.012,21.365 1.503,20.969 2.048,21.009 C2.598,21.059 3.004,21.545 2.954,22.095 C2.893,22.773 2.851,23.426 2.824,24.047 C2.801,24.584 2.358,25.004 1.826,25.004 L1.826,25.004 Z M2.53,19.044 C2.465,19.044 2.397,19.038 2.331,19.024 C1.789,18.914 1.439,18.387 1.549,17.845 C1.688,17.159 1.848,16.482 2.024,15.834 C2.169,15.301 2.721,14.987 3.251,15.131 C3.784,15.276 4.099,15.825 3.954,16.358 C3.783,16.988 3.636,17.618 3.51,18.243 C3.413,18.717 2.996,19.044 2.53,19.044 L2.53,19.044 Z M4.319,13.327 C4.184,13.327 4.045,13.299 3.912,13.239 C3.407,13.014 3.182,12.422 3.407,11.918 C3.697,11.271 4.016,10.641 4.354,10.048 C4.627,9.567 5.237,9.4 5.718,9.673 C6.197,9.947 6.365,10.557 6.092,11.037 C5.786,11.575 5.497,12.146 5.233,12.735 C5.066,13.106 4.702,13.327 4.319,13.327 L4.319,13.327 Z M7.557,8.308 C7.315,8.308 7.073,8.221 6.881,8.045 C6.474,7.672 6.446,7.04 6.819,6.632 C7.301,6.107 7.816,5.612 8.35,5.161 C8.771,4.804 9.402,4.858 9.759,5.279 C10.115,5.701 10.062,6.332 9.641,6.688 C9.172,7.085 8.719,7.521 8.294,7.984 C8.097,8.199 7.827,8.308 7.557,8.308 L7.557,8.308 Z M12.345,4.77 C11.971,4.77 11.612,4.559 11.44,4.199 C11.203,3.7 11.415,3.104 11.914,2.867 C12.54,2.568 13.2,2.303 13.875,2.076 C14.399,1.903 14.966,2.182 15.142,2.707 C15.317,3.23 15.035,3.797 14.512,3.973 C13.912,4.173 13.327,4.409 12.773,4.672 C12.635,4.738 12.488,4.77 12.345,4.77 L12.345,4.77 Z M18.084,3.167 C17.584,3.167 17.152,2.793 17.092,2.286 C17.026,1.737 17.418,1.239 17.967,1.174 C18.636,1.094 19.334,1.042 20.04,1.017 C20.053,1.016 20.064,1.016 20.076,1.016 C20.612,1.016 21.056,1.441 21.074,1.981 C21.094,2.533 20.662,2.996 20.11,3.016 C19.459,3.038 18.817,3.087 18.203,3.16 C18.163,3.165 18.123,3.167 18.084,3.167 L18.084,3.167 Z" id="Fill-173" fill="#949493" sketch:type="MSShapeGroup"></path>
            <path d="M58.001,31 C57.959,31 57.915,30.997 57.872,30.992 C57.324,30.921 56.937,30.419 57.008,29.872 C57.009,29.865 57.102,29.142 57.161,27.955 C57.189,27.403 57.671,26.985 58.211,27.007 C58.763,27.035 59.187,27.505 59.159,28.057 C59.094,29.329 58.996,30.097 58.992,30.128 C58.927,30.632 58.496,31 58.001,31 L58.001,31 Z M58.174,25.004 C57.642,25.004 57.199,24.584 57.176,24.047 C57.149,23.426 57.107,22.773 57.046,22.095 C56.996,21.545 57.402,21.059 57.952,21.009 C58.502,20.97 58.988,21.365 59.038,21.916 C59.102,22.626 59.146,23.311 59.174,23.961 C59.197,24.513 58.77,24.979 58.218,25.003 C58.203,25.003 58.188,25.004 58.174,25.004 L58.174,25.004 Z M57.47,19.044 C57.004,19.044 56.587,18.717 56.49,18.243 C56.364,17.618 56.217,16.988 56.046,16.358 C55.901,15.825 56.216,15.276 56.749,15.131 C57.275,14.987 57.83,15.301 57.976,15.834 C58.152,16.482 58.311,17.159 58.451,17.845 C58.56,18.387 58.211,18.914 57.669,19.024 C57.602,19.038 57.535,19.044 57.47,19.044 L57.47,19.044 Z M55.681,13.327 C55.298,13.327 54.934,13.106 54.767,12.735 C54.503,12.146 54.214,11.575 53.908,11.037 C53.635,10.557 53.803,9.947 54.282,9.673 C54.761,9.4 55.372,9.567 55.646,10.048 C55.984,10.641 56.303,11.271 56.593,11.918 C56.818,12.422 56.593,13.014 56.088,13.239 C55.956,13.299 55.816,13.327 55.681,13.327 L55.681,13.327 Z M52.443,8.308 C52.173,8.308 51.903,8.199 51.706,7.984 C51.281,7.521 50.828,7.085 50.359,6.688 C49.938,6.332 49.885,5.701 50.241,5.279 C50.599,4.858 51.229,4.804 51.65,5.161 C52.184,5.612 52.699,6.107 53.181,6.632 C53.554,7.04 53.526,7.672 53.119,8.045 C52.927,8.221 52.685,8.308 52.443,8.308 L52.443,8.308 Z M47.655,4.77 C47.512,4.77 47.365,4.738 47.227,4.672 C46.673,4.409 46.088,4.173 45.488,3.973 C44.965,3.797 44.683,3.23 44.858,2.707 C45.035,2.183 45.602,1.904 46.125,2.076 C46.8,2.303 47.46,2.568 48.086,2.867 C48.585,3.104 48.797,3.7 48.56,4.199 C48.388,4.559 48.029,4.77 47.655,4.77 L47.655,4.77 Z M41.916,3.167 C41.877,3.167 41.837,3.165 41.797,3.16 C41.183,3.087 40.541,3.038 39.89,3.016 C39.338,2.996 38.906,2.533 38.926,1.981 C38.945,1.43 39.37,0.996 39.96,1.017 C40.666,1.042 41.364,1.094 42.033,1.174 C42.582,1.239 42.974,1.737 42.908,2.286 C42.848,2.793 42.416,3.167 41.916,3.167 L41.916,3.167 Z" id="Fill-174" fill="#949493" sketch:type="MSShapeGroup"></path>
            <path d="M30,53 C21.519,53 13.935,47.603 11.13,39.569 C11.13,39.568 11.13,39.567 11.129,39.566 L13.017,38.904 C13.221,39.484 13.45,40.047 13.697,40.577 L13.695,40.578 C16.627,46.879 22.971,51 30,51 C37.029,51 43.373,46.879 46.305,40.578 L46.303,40.577 C46.55,40.047 46.779,39.484 46.983,38.904 L48.871,39.566 C48.87,39.567 48.87,39.567 48.87,39.568 L48.87,39.569 C46.064,47.603 38.481,53 30,53" id="Fill-175" fill="#80BC76" sketch:type="MSShapeGroup"></path>
            <path d="M47.662,29.56 C47.446,28.476 47.129,27.402 46.718,26.37 L46.727,26.367 C44.051,19.621 37.465,15 30,15 C22.535,15 15.949,19.621 13.273,26.367 L13.282,26.37 C12.871,27.402 12.554,28.476 12.338,29.56 L10.376,29.175 C12.2,19.802 20.454,13 30,13 C39.546,13 47.8,19.802 49.624,29.175 L47.662,29.56" id="Fill-176" fill="#80BC76" sketch:type="MSShapeGroup"></path>
            <path d="M25,2 C25,2.552 25.447,3 26,3 C26.553,3 27,2.552 27,2 L27,0 L25,0 L25,2" id="Fill-645" fill="#57823B" sketch:type="MSShapeGroup"></path>
            <path d="M29,2 C29,2.552 29.447,3 30,3 C30.553,3 31,2.552 31,2 L31,0 L29,0 L29,2" id="Fill-646" fill="#57823B" sketch:type="MSShapeGroup"></path>
            <path d="M33,2 C33,2.552 33.447,3 34,3 C34.553,3 35,2.552 35,2 L35,0 L33,0 L33,2" id="Fill-647" fill="#57823B" sketch:type="MSShapeGroup"></path>
        </g>
    </g>
</svg>