<?xml version="1.0" encoding="UTF-8" standalone="no"?>
<svg width="48px" height="60px" viewBox="0 0 48 60" version="1.1" xmlns="http://www.w3.org/2000/svg" xmlns:xlink="http://www.w3.org/1999/xlink" xmlns:sketch="http://www.bohemiancoding.com/sketch/ns">
    <!-- Generator: Sketch 3.2.2 (9983) - http://www.bohemiancoding.com/sketch -->
    <title>35 - Compass (Flat)</title>
    <desc>Created with Sketch.</desc>
    <defs></defs>
    <g id="Page-1" stroke="none" stroke-width="1" fill="none" fill-rule="evenodd" sketch:type="MSPage">
        <g id="35---Compass-(Flat)" sketch:type="MSLayerGroup" transform="translate(1.000000, 0.000000)">
            <path d="M23.027,59 C10.36,59 0.055,48.694 0.055,36.027 C0.055,23.359 10.36,13.054 23.027,13.054 C35.694,13.054 46,23.359 46,36.027 C46,48.694 35.694,59 23.027,59 L23.027,59 Z" id="Fill-106" fill="#E4C05C" sketch:type="MSShapeGroup"></path>
            <path d="M23.027,59 C10.36,59 0.055,48.694 0.055,36.027 C0.055,23.359 10.36,13.054 23.027,13.054 C35.694,13.054 46,23.359 46,36.027 C46,48.694 35.694,59 23.027,59 L23.027,59 Z" id="Stroke-107" stroke="#556080" stroke-width="2" sketch:type="MSShapeGroup"></path>
            <path d="M20.027,34.027 C19.771,34.027 19.516,33.929 19.32,33.734 L16.32,30.734 C15.93,30.343 15.93,29.71 16.32,29.32 C16.711,28.929 17.344,28.929 17.734,29.32 L20.734,32.32 C21.125,32.71 21.125,33.343 20.734,33.734 C20.539,33.929 20.283,34.027 20.027,34.027" id="Fill-250" fill="#FFFFFF" sketch:type="MSShapeGroup"></path>
            <path d="M26.027,34.027 C25.771,34.027 25.516,33.929 25.32,33.734 C24.93,33.343 24.93,32.71 25.32,32.32 L28.32,29.32 C28.711,28.929 29.344,28.929 29.734,29.32 C30.125,29.71 30.125,30.343 29.734,30.734 L26.734,33.734 C26.539,33.929 26.283,34.027 26.027,34.027" id="Fill-251" fill="#FFFFFF" sketch:type="MSShapeGroup"></path>
            <path d="M17.027,43.027 C16.771,43.027 16.516,42.929 16.32,42.734 C15.93,42.343 15.93,41.71 16.32,41.32 L19.32,38.32 C19.711,37.929 20.344,37.929 20.734,38.32 C21.125,38.71 21.125,39.343 20.734,39.734 L17.734,42.734 C17.539,42.929 17.283,43.027 17.027,43.027" id="Fill-252" fill="#FFFFFF" sketch:type="MSShapeGroup"></path>
            <path d="M29.027,43.027 C28.771,43.027 28.516,42.929 28.32,42.734 L25.32,39.734 C24.93,39.343 24.93,38.71 25.32,38.32 C25.711,37.929 26.344,37.929 26.734,38.32 L29.734,41.32 C30.125,41.71 30.125,42.343 29.734,42.734 C29.539,42.929 29.283,43.027 29.027,43.027" id="Fill-253" fill="#FFFFFF" sketch:type="MSShapeGroup"></path>
            <path d="M25.935,33.101 C25.817,31.057 24.16,25.027 23.027,25.027 C21.895,25.027 20.208,31.071 20.098,33.143 C18.087,33.271 12.025,34.896 12.025,36.029 C12.025,37.161 18.11,38.81 20.14,38.93 C20.268,40.949 21.895,47.027 23.027,47.027 C24.16,47.027 25.807,40.959 25.927,38.938 C27.979,38.82 34.025,37.161 34.025,36.029 C34.025,34.896 27.998,33.211 25.935,33.101" id="Fill-254" fill="#556080" sketch:type="MSShapeGroup"></path>
            <path d="M10.037,43.527 L8.305,44.527" id="Stroke-255" stroke="#0F81E0" stroke-width="2" stroke-linecap="round" stroke-linejoin="round" sketch:type="MSShapeGroup"></path>
            <path d="M23.027,17.027 C22.475,17.027 22.027,17.475 22.027,18.027 L22.027,21.027 C22.027,21.579 22.475,22.027 23.027,22.027 C23.58,22.027 24.027,21.579 24.027,21.027 L24.027,18.027 C24.027,17.475 23.58,17.027 23.027,17.027" id="Fill-256" fill="#F8E7A1" sketch:type="MSShapeGroup"></path>
            <path d="M23.027,50.027 C22.475,50.027 22.027,50.475 22.027,51.027 L22.027,54.027 C22.027,54.579 22.475,55.027 23.027,55.027 C23.58,55.027 24.027,54.579 24.027,54.027 L24.027,51.027 C24.027,50.475 23.58,50.027 23.027,50.027" id="Fill-257" fill="#F8E7A1" sketch:type="MSShapeGroup"></path>
            <path d="M41.027,35.027 L38.027,35.027 C37.475,35.027 37.027,35.475 37.027,36.027 C37.027,36.579 37.475,37.027 38.027,37.027 L41.027,37.027 C41.58,37.027 42.027,36.579 42.027,36.027 C42.027,35.475 41.58,35.027 41.027,35.027" id="Fill-258" fill="#F8E7A1" sketch:type="MSShapeGroup"></path>
            <path d="M9.027,36.027 C9.027,35.475 8.58,35.027 8.027,35.027 L5.027,35.027 C4.475,35.027 4.027,35.475 4.027,36.027 C4.027,36.579 4.475,37.027 5.027,37.027 L8.027,37.027 C8.58,37.027 9.027,36.579 9.027,36.027" id="Fill-259" fill="#F8E7A1" sketch:type="MSShapeGroup"></path>
            <path d="M10.537,27.661 L7.938,26.161 C7.461,25.884 6.849,26.048 6.572,26.527 C6.296,27.005 6.46,27.617 6.938,27.893 L9.537,29.393 C9.694,29.484 9.866,29.527 10.036,29.527 C10.382,29.527 10.718,29.348 10.903,29.027 C11.18,28.548 11.016,27.937 10.537,27.661" id="Fill-260" fill="#F8E7A1" sketch:type="MSShapeGroup"></path>
            <path d="M39.116,44.161 L36.518,42.661 C36.04,42.384 35.427,42.548 35.151,43.027 C34.875,43.505 35.039,44.117 35.518,44.393 L38.116,45.893 C38.273,45.984 38.445,46.027 38.615,46.027 C38.961,46.027 39.297,45.848 39.482,45.527 C39.759,45.048 39.595,44.437 39.116,44.161" id="Fill-261" fill="#F8E7A1" sketch:type="MSShapeGroup"></path>
            <path d="M32.527,19.572 C32.05,19.296 31.437,19.46 31.161,19.939 L29.661,22.537 C29.385,23.015 29.549,23.627 30.027,23.903 C30.185,23.994 30.356,24.037 30.526,24.037 C30.872,24.037 31.208,23.857 31.394,23.537 L32.894,20.939 C33.17,20.46 33.006,19.849 32.527,19.572" id="Fill-262" fill="#F8E7A1" sketch:type="MSShapeGroup"></path>
            <path d="M16.027,48.151 C15.55,47.875 14.937,48.038 14.661,48.517 L13.161,51.115 C12.885,51.594 13.049,52.205 13.527,52.481 C13.685,52.572 13.856,52.615 14.026,52.615 C14.372,52.615 14.708,52.436 14.894,52.115 L15.393,51.251 C15.393,51.251 15.393,51.25 15.394,51.25 L16.394,49.517 C16.67,49.039 16.506,48.427 16.027,48.151" id="Fill-263" fill="#F8E7A1" sketch:type="MSShapeGroup"></path>
            <path d="M14.894,19.939 C14.616,19.46 14.004,19.296 13.527,19.572 C13.049,19.849 12.885,20.46 13.161,20.939 L14.661,23.537 C14.847,23.857 15.183,24.037 15.528,24.037 C15.698,24.037 15.87,23.994 16.027,23.903 C16.506,23.627 16.67,23.015 16.394,22.537 L14.894,19.939" id="Fill-264" fill="#F8E7A1" sketch:type="MSShapeGroup"></path>
            <path d="M31.394,48.517 C31.116,48.038 30.504,47.875 30.027,48.151 C29.549,48.427 29.385,49.039 29.661,49.517 L31.161,52.115 C31.347,52.436 31.683,52.615 32.028,52.615 C32.198,52.615 32.37,52.572 32.527,52.481 C33.006,52.205 33.17,51.594 32.894,51.115 L31.394,48.517" id="Fill-265" fill="#F8E7A1" sketch:type="MSShapeGroup"></path>
            <path d="M36.019,29.527 C36.188,29.527 36.36,29.484 36.518,29.393 L39.116,27.893 C39.595,27.617 39.759,27.005 39.482,26.527 C39.206,26.048 38.593,25.884 38.116,26.161 L35.518,27.661 C35.039,27.937 34.875,28.548 35.151,29.027 C35.337,29.348 35.673,29.527 36.019,29.527" id="Fill-266" fill="#F8E7A1" sketch:type="MSShapeGroup"></path>
            <path d="M9.537,42.661 L6.938,44.161 C6.46,44.437 6.296,45.048 6.572,45.527 C6.758,45.848 7.094,46.027 7.439,46.027 C7.609,46.027 7.781,45.984 7.938,45.893 L10.537,44.393 C11.016,44.117 11.18,43.505 10.903,43.027 C10.626,42.548 10.013,42.384 9.537,42.661" id="Fill-267" fill="#F8E7A1" sketch:type="MSShapeGroup"></path>
            <path d="M23.027,14.027 C20.271,14.027 18.027,11.784 18.027,9.027 C18.027,6.27 20.271,4.027 23.027,4.027 C25.784,4.027 28.027,6.27 28.027,9.027 C28.027,11.784 25.784,14.027 23.027,14.027 L23.027,14.027 Z M23.027,6.027 C21.373,6.027 20.027,7.373 20.027,9.027 C20.027,10.681 21.373,12.027 23.027,12.027 C24.682,12.027 26.027,10.681 26.027,9.027 C26.027,7.373 24.682,6.027 23.027,6.027 L23.027,6.027 Z" id="Fill-673" fill="#556080" sketch:type="MSShapeGroup"></path>
            <path d="M33.027,0 L13.027,0 C10.271,0 8.027,2.243 8.027,5 C8.027,7.757 10.271,10 13.027,10 L23.027,10 C23.58,10 24.027,9.552 24.027,9 C24.027,8.448 23.58,8 23.027,8 L13.027,8 C11.373,8 10.027,6.654 10.027,5 C10.027,3.346 11.373,2 13.027,2 L33.027,2 C34.682,2 36.027,3.346 36.027,5 C36.027,6.654 34.682,8 33.027,8 L27.919,8 C27.989,8.332 28.027,8.675 28.027,9.027 C28.027,9.36 27.991,9.685 27.929,10 L33.027,10 C35.784,10 38.027,7.757 38.027,5 C38.027,2.243 35.784,0 33.027,0" id="Fill-674" fill="#C7CBC7" sketch:type="MSShapeGroup"></path>
        </g>
    </g>
</svg>