<?xml version="1.0" encoding="UTF-8" standalone="no"?>
<svg width="60px" height="58px" viewBox="0 0 60 58" version="1.1" xmlns="http://www.w3.org/2000/svg" xmlns:xlink="http://www.w3.org/1999/xlink" xmlns:sketch="http://www.bohemiancoding.com/sketch/ns">
    <!-- Generator: Sketch 3.2.2 (9983) - http://www.bohemiancoding.com/sketch -->
    <title>18 - Fishing Bait (Flat)</title>
    <desc>Created with Sketch.</desc>
    <defs></defs>
    <g id="Page-1" stroke="none" stroke-width="1" fill="none" fill-rule="evenodd" sketch:type="MSPage">
        <g id="18---Fishing-Bait-(Flat)" sketch:type="MSLayerGroup">
            <path d="M60,42.5 C60,51.06 46.568,58 30,58 C13.431,58 0,51.06 0,42.5 C0,33.94 13.431,27 30,27 C46.568,27 60,33.94 60,42.5" id="Fill-8" fill="#226BAC" sketch:type="MSShapeGroup"></path>
            <path d="M56,42.5 C56,49.919 44.359,55.933 30,55.933 C15.641,55.933 4,49.919 4,42.5 C4,35.081 15.641,29.067 30,29.067 C44.359,29.067 56,35.081 56,42.5" id="Fill-9" fill="#3083C9" sketch:type="MSShapeGroup"></path>
            <path d="M50,42.5 C50,48.207 41.046,52.833 30,52.833 C18.954,52.833 10,48.207 10,42.5 C10,36.793 18.954,32.167 30,32.167 C41.046,32.167 50,36.793 50,42.5" id="Fill-10" fill="#57ABC1" sketch:type="MSShapeGroup"></path>
            <path d="M30,21 C29.448,21 29,20.552 29,20 L29,1 C29,0.448 29.448,0 30,0 C30.552,0 31,0.448 31,1 L31,20 C31,20.552 30.552,21 30,21" id="Fill-416" fill="#C7CBC7" sketch:type="MSShapeGroup"></path>
            <path d="M35.166,26.188 C34.405,25.302 34,24.172 34,23.005 L34,20 L26,20 L26,23.005 C26,24.172 25.595,25.302 24.833,26.188 C22.842,28.503 19,32.35 19,43 L41,43 C41,32.35 37.157,28.503 35.166,26.188" id="Fill-417" fill="#ED8A19" sketch:type="MSShapeGroup"></path>
            <path d="M35,10 C35,9.448 34.552,9 34,9 L32.414,9 L34.707,6.707 C35.098,6.316 35.098,5.684 34.707,5.293 C34.316,4.902 33.684,4.902 33.293,5.293 L30,8.586 L26.707,5.293 C26.316,4.902 25.684,4.902 25.293,5.293 C24.902,5.684 24.902,6.316 25.293,6.707 L27.586,9 L26,9 C25.448,9 25,9.448 25,10 C25,10.552 25.448,11 26,11 L27.586,11 L25.293,13.293 C24.902,13.684 24.902,14.316 25.293,14.707 C25.488,14.902 25.744,15 26,15 C26.256,15 26.512,14.902 26.707,14.707 L30,11.414 L33.293,14.707 C33.488,14.902 33.744,15 34,15 C34.256,15 34.512,14.902 34.707,14.707 C35.098,14.316 35.098,13.684 34.707,13.293 L32.414,11 L34,11 C34.552,11 35,10.552 35,10" id="Fill-418" fill="#DD342E" sketch:type="MSShapeGroup"></path>
            <path d="M39.795,34 L20.205,34 C20.016,34.608 19.842,35.256 19.691,35.955 C19.764,35.972 19.833,36 19.912,36 L40.087,36 C40.166,36 40.236,35.972 40.309,35.955 C40.157,35.256 39.984,34.608 39.795,34" id="Fill-735" fill="#F0CE49" sketch:type="MSShapeGroup"></path>
        </g>
    </g>
</svg>