<?xml version="1.0" encoding="UTF-8" standalone="no"?>
<svg width="56px" height="57px" viewBox="0 0 56 57" version="1.1" xmlns="http://www.w3.org/2000/svg" xmlns:xlink="http://www.w3.org/1999/xlink" xmlns:sketch="http://www.bohemiancoding.com/sketch/ns">
    <!-- Generator: Sketch 3.2.2 (9983) - http://www.bohemiancoding.com/sketch -->
    <title>39 - Freezer (Flat)</title>
    <desc>Created with Sketch.</desc>
    <defs></defs>
    <g id="Page-1" stroke="none" stroke-width="1" fill="none" fill-rule="evenodd" sketch:type="MSPage">
        <g id="39---Freezer-(Flat)" sketch:type="MSLayerGroup">
            <path d="M36,25 L36,28.19 C36,28.637 35.637,29 35.189,29 L20.81,29 C20.363,29 20,28.637 20,28.19 L20,25 L5,25 L5,53.125 C5,55.265 6.735,57 8.875,57 L47.125,57 C49.265,57 51,55.265 51,53.125 L51,25 L36,25" id="Fill-112" fill="#226BAC" sketch:type="MSShapeGroup"></path>
            <path d="M5,32 L1.205,32 C0.539,32 0,31.461 0,30.795 L0,26.205 C0,25.539 0.539,25 1.205,25 L5,25 L5,32" id="Fill-186" fill="#16517C" sketch:type="MSShapeGroup"></path>
            <path d="M51,32 L54.795,32 C55.461,32 56,31.461 56,30.795 L56,26.205 C56,25.539 55.461,25 54.795,25 L51,25 L51,32" id="Fill-187" fill="#16517C" sketch:type="MSShapeGroup"></path>
            <path d="M49,19 L7,19 L7,16.284 C7,15.023 8.023,14 9.284,14 L46.716,14 C47.977,14 49,15.023 49,16.284 L49,19" id="Fill-188" fill="#E8EDEE" sketch:type="MSShapeGroup"></path>
            <path d="M3,25 L1,25 L1,12.239 C1,6.042 6.041,1 12.239,1 L18,1 L18,3 L12.239,3 C7.144,3 3,7.145 3,12.239 L3,25" id="Fill-189" fill="#556080" sketch:type="MSShapeGroup"></path>
            <path d="M55,25 L53,25 L53,12.239 C53,7.145 48.855,3 43.761,3 L38,3 L38,1 L43.761,1 C49.958,1 55,6.042 55,12.239 L55,25" id="Fill-190" fill="#556080" sketch:type="MSShapeGroup"></path>
            <path d="M18,0 L38,0 L38,4 L18,4 L18,0 Z" id="Fill-191" fill="#7383BF" sketch:type="MSShapeGroup"></path>
            <path d="M5,36 L51,36 L51,52 L5,52 L5,36 Z" id="Fill-192" fill="#7383BF" sketch:type="MSShapeGroup"></path>
            <path d="M48.716,19 L7.284,19 C6.023,19 5,20.023 5,21.284 L5,25 L20,25 L20,23.81 C20,23.363 20.363,23 20.81,23 L35.189,23 C35.637,23 36,23.363 36,23.81 L36,25 L51,25 L51,21.284 C51,20.023 49.977,19 48.716,19" id="Fill-614" fill="#7383BF" sketch:type="MSShapeGroup"></path>
            <path d="M35.189,29 L20.81,29 C20.363,29 20,28.637 20,28.19 L20,23.81 C20,23.363 20.363,23 20.81,23 L35.189,23 C35.637,23 36,23.363 36,23.81 L36,28.19 C36,28.637 35.637,29 35.189,29" id="Fill-648" fill="#FFFFFF" sketch:type="MSShapeGroup"></path>
            <path d="M32,27 L24,27 C23.448,27 23,26.552 23,26 C23,25.448 23.448,25 24,25 L32,25 C32.552,25 33,25.448 33,26 C33,26.552 32.552,27 32,27" id="Fill-649" fill="#C7CBC7" sketch:type="MSShapeGroup"></path>
            <path d="M29.118,33 L26.882,33 C25.842,33 25,32.158 25,31.118 L25,29 L31,29 L31,31.118 C31,32.158 30.157,33 29.118,33" id="Fill-650" fill="#C7CBC7" sketch:type="MSShapeGroup"></path>
        </g>
    </g>
</svg>