<?xml version="1.0" encoding="UTF-8" standalone="no"?>
<svg width="40px" height="58px" viewBox="0 0 40 58" version="1.1" xmlns="http://www.w3.org/2000/svg" xmlns:xlink="http://www.w3.org/1999/xlink" xmlns:sketch="http://www.bohemiancoding.com/sketch/ns">
    <!-- Generator: Sketch 3.2.2 (9983) - http://www.bohemiancoding.com/sketch -->
    <title>45 - Gas Cooker (Flat)</title>
    <desc>Created with Sketch.</desc>
    <defs></defs>
    <g id="Page-1" stroke="none" stroke-width="1" fill="none" fill-rule="evenodd" sketch:type="MSPage">
        <g id="45---Gas-Cooker-(Flat)" sketch:type="MSLayerGroup" transform="translate(1.000000, 0.000000)">
            <path d="M22.536,10.607 L22.536,10.607 C20.583,12.559 17.417,12.559 15.464,10.607 C13.512,8.654 13.512,5.488 15.464,3.536 L19,0 L22.536,3.536 C24.488,5.488 24.488,8.654 22.536,10.607" id="Fill-80" fill="#ECBA16" sketch:type="MSShapeGroup"></path>
            <path d="M19,15 L19,9" id="Stroke-81" stroke="#DD691D" stroke-width="2" stroke-linecap="round" stroke-linejoin="round" sketch:type="MSShapeGroup"></path>
            <path d="M13,20 L25,20 L25,27.648 L13,27.648 L13,20 Z" id="Fill-82" fill="#C7CBC7" sketch:type="MSShapeGroup"></path>
            <path d="M34,58 L4,58 L4,36.46 C4,30.683 8.683,26 14.46,26 L23.54,26 C29.317,26 34,30.683 34,36.46 L34,58" id="Fill-139" fill="#EC7937" sketch:type="MSShapeGroup"></path>
            <path d="M16,15 L22,15 L22,20 L16,20 L16,15 Z" id="Fill-140" fill="#B0B6BB" sketch:type="MSShapeGroup"></path>
            <path d="M25,23 L30,23 M25,20 L38,7 L30,7 M13,20 L0,7 L8,7" id="Stroke-141" stroke="#556080" stroke-width="2" stroke-linecap="round" stroke-linejoin="round" sketch:type="MSShapeGroup"></path>
            <path d="M30,21 L34,21 L34,25 L30,25 L30,21 Z" id="Fill-142" fill="#363D4B" sketch:type="MSShapeGroup"></path>
            <path d="M20,37 L34,37 L34,51 L20,51 L20,37 Z" id="Fill-143" fill="#FBD490" sketch:type="MSShapeGroup"></path>
        </g>
    </g>
</svg>