<?xml version="1.0" encoding="UTF-8" standalone="no"?>
<svg width="58px" height="57px" viewBox="0 0 58 57" version="1.1" xmlns="http://www.w3.org/2000/svg" xmlns:xlink="http://www.w3.org/1999/xlink" xmlns:sketch="http://www.bohemiancoding.com/sketch/ns">
    <!-- Generator: Sketch 3.2.2 (9983) - http://www.bohemiancoding.com/sketch -->
    <title>24 - Hatchets (Flat)</title>
    <desc>Created with Sketch.</desc>
    <defs></defs>
    <g id="Page-1" stroke="none" stroke-width="1" fill="none" fill-rule="evenodd" sketch:type="MSPage">
        <g id="24---Hatchets-(Flat)" sketch:type="MSLayerGroup" transform="translate(-1.000000, 0.000000)">
            <path d="M1.109,11.817 C1.109,11.817 1.226,11.794 1.325,11.775 C7.385,10.587 13.085,8.004 17.974,4.232 L20.79,2.059 C21.237,1.714 21.878,1.796 22.223,2.243 L28.196,9.983 C28.54,10.429 28.458,11.071 28.011,11.415 L25.195,13.589 C20.306,17.361 16.363,22.22 13.678,27.781 C13.634,27.872 13.582,27.979 13.582,27.979 C5.925,26.993 0.123,19.474 1.109,11.817" id="Fill-373" fill="#B0B6BB" sketch:type="MSShapeGroup"></path>
            <path d="M13.094,7.435 C14.79,6.486 16.426,5.426 17.974,4.232 L18.117,4.121 L16.212,1.741 C15.377,0.588 13.767,0.326 12.61,1.154 L11.941,1.633 C10.773,2.468 10.508,4.095 11.351,5.257 L13.094,7.435" id="Fill-374" fill="#ECBA16" sketch:type="MSShapeGroup"></path>
            <path d="M37.797,35.095 C36.551,36.104 36.193,38.07 37.163,39.347 C37.58,39.895 38.145,40.258 38.757,40.426 C39.616,40.662 40.31,41.376 40.33,42.266 C40.344,42.907 40.563,43.548 40.998,44.084 C41.432,44.62 42.012,44.967 42.635,45.115 C43.464,45.312 44.086,46.08 44.106,46.932 C44.121,47.571 44.34,48.211 44.774,48.747 C45.208,49.284 45.789,49.631 46.413,49.778 C47.28,49.983 47.834,50.81 47.886,51.699 C47.93,52.451 48.256,53.194 48.883,53.762 C49.999,54.771 51.731,54.694 52.901,53.747 L57.265,50.212 C58.216,49.443 58.362,48.048 57.593,47.098 L45.276,31.888 C44.506,30.938 43.112,30.791 42.161,31.561 L37.797,35.095" id="Fill-375" fill="#556080" sketch:type="MSShapeGroup"></path>
            <path d="M56.979,50.444 L52.901,53.747 C52.704,53.906 52.487,54.031 52.264,54.14 L53.653,55.876 C54.647,57.119 56.44,57.367 57.735,56.441 C59.132,55.441 59.404,53.474 58.331,52.133 L56.979,50.444" id="Fill-376" fill="#ECBA16" sketch:type="MSShapeGroup"></path>
            <path d="M58.878,11.817 C58.878,11.817 58.761,11.794 58.662,11.775 C52.602,10.587 46.902,8.004 42.013,4.232 L39.197,2.059 C38.751,1.714 38.109,1.796 37.765,2.243 L31.792,9.983 C31.447,10.429 31.53,11.071 31.977,11.415 L34.793,13.589 C39.681,17.361 43.625,22.22 46.31,27.781 C46.354,27.872 46.406,27.979 46.406,27.979 C54.063,26.993 59.865,19.474 58.878,11.817" id="Fill-377" fill="#B0B6BB" sketch:type="MSShapeGroup"></path>
            <path d="M46.894,7.435 C45.198,6.486 43.561,5.426 42.014,4.232 L41.871,4.121 L43.775,1.741 C44.611,0.588 46.22,0.326 47.378,1.154 L48.047,1.633 C49.214,2.468 49.479,4.095 48.637,5.257 L46.894,7.435" id="Fill-378" fill="#556080" sketch:type="MSShapeGroup"></path>
            <path d="M22.19,35.095 C23.437,36.104 23.795,38.07 22.824,39.347 C22.408,39.895 21.843,40.258 21.23,40.426 C20.372,40.662 19.678,41.376 19.658,42.266 C19.643,42.907 19.424,43.548 18.99,44.084 C18.556,44.62 17.976,44.967 17.353,45.115 C16.524,45.312 15.902,46.08 15.882,46.932 C15.867,47.571 15.648,48.211 15.214,48.747 C14.779,49.284 14.198,49.631 13.574,49.778 C12.708,49.983 12.153,50.81 12.102,51.699 C12.058,52.451 11.731,53.194 11.105,53.762 C9.989,54.771 8.256,54.694 7.087,53.747 L2.722,50.212 C1.772,49.443 1.625,48.048 2.395,47.098 L14.711,31.888 C15.481,30.938 16.876,30.791 17.826,31.561 L22.19,35.095" id="Fill-379" fill="#EC7937" sketch:type="MSShapeGroup"></path>
            <path d="M22.19,35.095 L18.002,31.704 L34.485,13.352 L34.793,13.589 C36.28,14.737 37.669,15.997 38.972,17.335 L22.621,35.523 C22.492,35.367 22.349,35.223 22.19,35.095" id="Fill-380" fill="#556080" sketch:type="MSShapeGroup"></path>
            <path d="M3.008,50.444 L7.087,53.747 C7.284,53.906 7.5,54.031 7.724,54.14 L6.335,55.876 C5.34,57.119 3.547,57.367 2.253,56.441 C0.856,55.441 0.584,53.474 1.657,52.133 L3.008,50.444" id="Fill-381" fill="#556080" sketch:type="MSShapeGroup"></path>
            <path d="M29.994,18.352 L25.502,13.352 L25.195,13.589 C23.707,14.737 22.319,15.997 21.015,17.335 L25.964,22.839 L29.994,18.352" id="Fill-382" fill="#ECBA16" sketch:type="MSShapeGroup"></path>
            <path d="M34.024,22.839 L29.994,27.322 L37.367,35.523 C37.496,35.367 37.639,35.223 37.797,35.095 L41.985,31.704 L34.024,22.839" id="Fill-383" fill="#ECBA16" sketch:type="MSShapeGroup"></path>
            <path d="M5.491,10.713 C4.125,11.139 2.736,11.498 1.325,11.775 C1.226,11.794 1.109,11.817 1.109,11.817 C0.123,19.474 5.924,26.993 13.582,27.979 C13.582,27.979 13.634,27.872 13.678,27.781 C14.437,26.208 15.308,24.699 16.261,23.248 C10.531,21.733 6.168,16.551 5.491,10.713" id="Fill-697" fill="#E8EDEE" sketch:type="MSShapeGroup"></path>
            <path d="M13.16,22.007 L16.014,18.806 C16.382,18.394 16.346,17.762 15.933,17.394 C15.522,17.028 14.889,17.062 14.521,17.475 L11.476,20.891 C11.469,20.899 11.468,20.908 11.461,20.916 C12.001,21.317 12.568,21.683 13.16,22.007" id="Fill-698" fill="#FFFFFF" sketch:type="MSShapeGroup"></path>
            <path d="M9.413,19.072 L15.553,13.839 C15.974,13.481 16.023,12.85 15.665,12.43 C15.308,12.008 14.676,11.96 14.256,12.317 L8.148,17.522 C8.535,18.066 8.958,18.583 9.413,19.072" id="Fill-699" fill="#FFFFFF" sketch:type="MSShapeGroup"></path>
            <path d="M7.059,15.747 C7.259,15.743 7.46,15.681 7.633,15.553 L11.101,12.973 C11.544,12.643 11.636,12.017 11.307,11.574 C10.977,11.131 10.35,11.037 9.907,11.368 L6.439,13.948 C6.388,13.986 6.358,14.04 6.317,14.085 C6.53,14.654 6.778,15.209 7.059,15.747" id="Fill-700" fill="#FFFFFF" sketch:type="MSShapeGroup"></path>
            <path d="M54.527,10.713 C55.893,11.139 57.281,11.498 58.692,11.775 C58.791,11.794 58.908,11.817 58.908,11.817 C59.895,19.474 54.093,26.993 46.436,27.979 C46.436,27.979 46.384,27.872 46.34,27.781 C45.581,26.208 44.71,24.699 43.756,23.248 C49.487,21.733 53.85,16.551 54.527,10.713" id="Fill-701" fill="#E8EDEE" sketch:type="MSShapeGroup"></path>
            <path d="M46.858,22.007 L44.004,18.806 C43.636,18.394 43.672,17.762 44.085,17.394 C44.495,17.028 45.129,17.062 45.496,17.475 L48.542,20.891 C48.549,20.899 48.55,20.908 48.556,20.916 C48.016,21.317 47.45,21.683 46.858,22.007" id="Fill-702" fill="#FFFFFF" sketch:type="MSShapeGroup"></path>
            <path d="M50.605,19.072 L44.465,13.839 C44.044,13.481 43.994,12.85 44.353,12.43 C44.71,12.008 45.342,11.96 45.762,12.317 L51.869,17.522 C51.483,18.066 51.059,18.583 50.605,19.072" id="Fill-703" fill="#FFFFFF" sketch:type="MSShapeGroup"></path>
            <path d="M52.959,15.747 C52.759,15.743 52.557,15.681 52.385,15.553 L48.917,12.973 C48.474,12.643 48.382,12.017 48.711,11.574 C49.041,11.131 49.668,11.037 50.11,11.368 L53.578,13.948 C53.63,13.986 53.659,14.04 53.701,14.085 C53.488,14.654 53.24,15.209 52.959,15.747" id="Fill-704" fill="#FFFFFF" sketch:type="MSShapeGroup"></path>
        </g>
    </g>
</svg>