<?xml version="1.0" encoding="UTF-8" standalone="no"?>
<svg width="58px" height="55px" viewBox="0 0 58 55" version="1.1" xmlns="http://www.w3.org/2000/svg" xmlns:xlink="http://www.w3.org/1999/xlink" xmlns:sketch="http://www.bohemiancoding.com/sketch/ns">
    <!-- Generator: Sketch 3.2.2 (9983) - http://www.bohemiancoding.com/sketch -->
    <title>30 - Hatchet (Flat)</title>
    <desc>Created with Sketch.</desc>
    <defs></defs>
    <g id="Page-1" stroke="none" stroke-width="1" fill="none" fill-rule="evenodd" sketch:type="MSPage">
        <g id="30---Hatchet-(Flat)" sketch:type="MSLayerGroup">
            <path d="M12.831,1.296 L8.848,5.279 C8.402,5.725 8.385,6.443 8.809,6.91 L11.381,9.739 L17.038,4.082 L14.542,1.337 C14.088,0.837 13.308,0.819 12.831,1.296" id="Fill-304" fill="#E3942D" sketch:type="MSShapeGroup"></path>
            <path d="M42.386,28.231 L36.581,25.552 C33.486,23.942 31.977,22.031 30.874,18.721 L30.473,17.517 L29.991,16.678 C27.802,18.52 25.794,20.293 24,22 L24.816,23.174 L25.217,24.378 C26.32,27.687 27.828,29.599 30.924,31.208 L36.729,33.888 C46.426,39.246 45.322,43.68 45.322,43.68 C45.665,48.856 48.462,49.068 51.336,50.826 C52.134,51.314 52.838,51.961 53.243,52.819 C54.096,54.622 56.608,54.594 57.315,52.729 C58.523,49.546 58.433,45.478 54.563,41.608 L51.875,37.127 C49.472,33.122 46.531,30.386 42.386,28.231" id="Fill-305" fill="#E3942D" sketch:type="MSShapeGroup"></path>
            <path d="M20.573,0.547 L5.408,15.712 C5.637,19.109 7.606,22.935 9.966,25.296 C11.846,27.175 15.452,29.701 18.05,30.222 C20.578,25.125 25.406,21.063 33.998,13.972 C35.56,12.409 32.89,7.207 29.766,4.082 C26.641,0.958 22.135,-1.015 20.573,0.547" id="Fill-615" fill="#E0E2E3" sketch:type="MSShapeGroup"></path>
            <path d="M13.979,28.389 L19.714,22.536 L18.286,21.136 L12.292,27.253 C12.831,27.65 13.396,28.032 13.979,28.389" id="Fill-680" fill="#C7CBC7" sketch:type="MSShapeGroup"></path>
            <path d="M9.941,25.268 L13.76,20.8 L12.24,19.5 L8.629,23.724 C9.047,24.281 9.484,24.807 9.941,25.268" id="Fill-681" fill="#C7CBC7" sketch:type="MSShapeGroup"></path>
            <path d="M18.05,30.222 C15.452,29.701 11.846,27.175 9.966,25.296 C7.606,22.935 5.637,19.109 5.408,15.712 L5.017,16.103 L0.147,18.19 C0.103,18.209 0.08,18.255 0.1,18.299 C0.259,18.661 2.03,22.15 2.03,22.15 L4.793,22.15 C4.903,22.15 4.988,22.246 4.974,22.355 L4.471,26.378 C5.109,27.314 5.772,28.172 6.431,28.831 C9.555,31.955 17.027,35.185 17.027,35.185 C16.945,33.398 17.351,31.679 18.206,29.929 C18.155,30.027 18.099,30.123 18.05,30.222" id="Fill-682" fill="#888B7A" sketch:type="MSShapeGroup"></path>
        </g>
    </g>
</svg>