<?xml version="1.0" encoding="UTF-8" standalone="no"?>
<svg width="48px" height="63px" viewBox="0 0 48 63" version="1.1" xmlns="http://www.w3.org/2000/svg" xmlns:xlink="http://www.w3.org/1999/xlink" xmlns:sketch="http://www.bohemiancoding.com/sketch/ns">
    <!-- Generator: Sketch 3.2.2 (9983) - http://www.bohemiancoding.com/sketch -->
    <title>1 - Hunting Lodge (Flat)</title>
    <desc>Created with Sketch.</desc>
    <defs></defs>
    <g id="Page-1" stroke="none" stroke-width="1" fill="none" fill-rule="evenodd" sketch:type="MSPage">
        <g id="1---Hunting-Lodge-(Flat)" sketch:type="MSLayerGroup" transform="translate(0.000000, 1.000000)">
            <path d="M20.641,50.066 L9.005,54.542 L10.504,44.8 L21.255,41.967 C21.789,41.826 22.107,41.279 21.967,40.745 C21.826,40.211 21.271,39.895 20.745,40.033 L10.836,42.644 L11.988,35.152 C12.072,34.606 11.698,34.096 11.152,34.012 C10.605,33.932 10.096,34.302 10.012,34.848 L8.625,43.857 L8.625,43.859 L6.142,60 L5,60 C4.447,60 4,60.447 4,61 C4,61.553 4.447,62 5,62 L9,62 C9.553,62 10,61.553 10,61 C10,60.447 9.553,60 9,60 L8.166,60 L8.655,56.82 L21.359,51.934 C21.874,51.735 22.132,51.156 21.934,50.641 C21.734,50.125 21.156,49.87 20.641,50.066" id="Fill-1" fill="#46363D" sketch:type="MSShapeGroup"></path>
            <path d="M43,60 L41.858,60 L39.375,43.859 C39.375,43.859 39.375,43.858 39.374,43.857 L37.988,34.848 C37.904,34.303 37.402,33.925 36.848,34.012 C36.302,34.096 35.928,34.606 36.012,35.152 L37.164,42.644 L27.255,40.033 C26.722,39.896 26.174,40.211 26.033,40.745 C25.893,41.279 26.211,41.826 26.745,41.967 L37.496,44.8 L38.995,54.542 L27.359,50.066 C26.844,49.87 26.265,50.125 26.066,50.641 C25.868,51.156 26.126,51.735 26.641,51.934 L39.345,56.82 L39.834,60 L39,60 C38.447,60 38,60.447 38,61 C38,61.553 38.447,62 39,62 L43,62 C43.553,62 44,61.553 44,61 C44,60.447 43.553,60 43,60" id="Fill-2" fill="#46363D" sketch:type="MSShapeGroup"></path>
            <path d="M23.938,7.908 L8,18.942 L8,35 L40,35 L40,19.646 L23.938,7.908" id="Fill-89" fill="#6B4841" sketch:type="MSShapeGroup"></path>
            <path d="M20,34 L20,62 L22,62 L22,60 L26,60 L26,62 L28,62 L28,34 L20,34 L20,34 Z M22,36 L26,36 L26,38 L22,38 L22,36 Z M22,48 L26,48 L26,50 L22,50 L22,48 Z M22,52 L26,52 L26,54 L22,54 L22,52 Z M22,44 L26,44 L26,46 L22,46 L22,44 Z M22,40 L26,40 L26,42 L22,42 L22,40 Z M22,56 L26,56 L26,58 L22,58 L22,56 Z" id="Fill-554" fill="#6B4841" sketch:type="MSShapeGroup"></path>
            <path d="M20,23 L28,23 L28,35 L20,35 L20,23 Z" id="Fill-555" fill="#9E6C53" sketch:type="MSShapeGroup"></path>
            <path d="M16,24 L9,24 C8.447,24 8,24.447 8,25 C8,25.553 8.447,26 9,26 L16,26 C16.553,26 17,25.553 17,25 C17,24.447 16.553,24 16,24" id="Fill-556" fill="#46363D" sketch:type="MSShapeGroup"></path>
            <path d="M14,21 C14.553,21 15,20.553 15,20 C15,19.447 14.553,19 14,19 L8,19 C7.447,19 7,19.447 7,20 C7,20.553 7.447,21 8,21 L14,21" id="Fill-557" fill="#46363D" sketch:type="MSShapeGroup"></path>
            <path d="M19,14 L14,14 C13.447,14 13,14.447 13,15 C13,15.553 13.447,16 14,16 L19,16 C19.553,16 20,15.553 20,15 C20,14.447 19.553,14 19,14" id="Fill-558" fill="#46363D" sketch:type="MSShapeGroup"></path>
            <path d="M34,15 C34,14.447 33.553,14 33,14 L26,14 C25.447,14 25,14.447 25,15 C25,15.553 25.447,16 26,16 L33,16 C33.553,16 34,15.553 34,15" id="Fill-559" fill="#46363D" sketch:type="MSShapeGroup"></path>
            <path d="M41,20 C41,19.447 40.553,19 40,19 L30,19 C29.447,19 29,19.447 29,20 C29,20.553 29.447,21 30,21 L40,21 C40.553,21 41,20.553 41,20" id="Fill-560" fill="#46363D" sketch:type="MSShapeGroup"></path>
            <path d="M40,24 L34,24 C33.447,24 33,24.447 33,25 C33,25.553 33.447,26 34,26 L40,26 C40.553,26 41,25.553 41,25 C41,24.447 40.553,24 40,24" id="Fill-561" fill="#46363D" sketch:type="MSShapeGroup"></path>
            <path d="M14,29 L9,29 C8.447,29 8,29.447 8,30 C8,30.553 8.447,31 9,31 L14,31 C14.553,31 15,30.553 15,30 C15,29.447 14.553,29 14,29" id="Fill-562" fill="#46363D" sketch:type="MSShapeGroup"></path>
            <path d="M40,29 L32,29 C31.447,29 31,29.447 31,30 C31,30.553 31.447,31 32,31 L40,31 C40.553,31 41,30.553 41,30 C41,29.447 40.553,29 40,29" id="Fill-563" fill="#46363D" sketch:type="MSShapeGroup"></path>
            <path d="M23,29 C23,29.552 22.552,30 22,30 C21.448,30 21,29.552 21,29 C21,28.448 21.448,28 22,28 C22.552,28 23,28.448 23,29" id="Fill-616" fill="#46363D" sketch:type="MSShapeGroup"></path>
            <path d="M37,3.385 L37,0.385 M34,2.385 L34,1.385" id="Stroke-745" stroke="#C7CBC7" stroke-width="2" stroke-linecap="round" stroke-linejoin="round" sketch:type="MSShapeGroup"></path>
            <path d="M39,15 L39,6.385 L33,6.385 L33,10.615 L39,15" id="Fill-746" fill="#6B4841" sketch:type="MSShapeGroup"></path>
            <path d="M45.325,23.538 L23.938,7.908 L2.634,22.657 C2.293,22.893 1.823,22.787 1.616,22.428 L0.324,20.18 C0.141,19.861 0.232,19.455 0.535,19.245 L23.955,3.031 C23.982,3.013 24.018,3.013 24.044,3.032 L47.483,20.16 C47.777,20.375 47.86,20.779 47.674,21.093 L46.353,23.327 C46.14,23.687 45.663,23.785 45.325,23.538" id="Fill-747" fill="#9E6C53" sketch:type="MSShapeGroup"></path>
        </g>
    </g>
</svg>