<?xml version="1.0" encoding="UTF-8" standalone="no"?>
<svg width="45px" height="58px" viewBox="0 0 45 58" version="1.1" xmlns="http://www.w3.org/2000/svg" xmlns:xlink="http://www.w3.org/1999/xlink" xmlns:sketch="http://www.bohemiancoding.com/sketch/ns">
    <!-- Generator: Sketch 3.2.2 (9983) - http://www.bohemiancoding.com/sketch -->
    <title>40 - Jerry Can (Flat)</title>
    <desc>Created with Sketch.</desc>
    <defs></defs>
    <g id="Page-1" stroke="none" stroke-width="1" fill="none" fill-rule="evenodd" sketch:type="MSPage">
        <g id="40---Jerry-Can-(Flat)" sketch:type="MSLayerGroup">
            <path d="M42,13 L25,13 L21.443,5.174 C20.564,3.241 18.637,2 16.514,2 L8.414,2 C5.424,2 3,4.424 3,7.414 L3,13 C1.343,13 0,14.343 0,16 L0,55 C0,56.657 1.343,58 3,58 L42,58 C43.657,58 45,56.657 45,55 L45,16 C45,14.343 43.657,13 42,13 L42,13 Z M7,13 L7,8.122 C7,6.95 7.95,6 9.122,6 L15.72,6 C16.582,6 17.359,6.522 17.684,7.321 L20,13 L7,13 L7,13 Z" id="Fill-76" fill="#DD342E" sketch:type="MSShapeGroup"></path>
            <path d="M29,30.414 L35.707,23.707 L34.293,22.293 L27.586,29 L17.414,29 L10.707,22.293 L9.293,23.707 L16,30.414 L16,40.586 L9.293,47.293 L10.707,48.707 L17.414,42 L27.586,42 L34.293,48.707 L35.707,47.293 L29,40.586 L29,30.414" id="Fill-183" fill="#B12621" sketch:type="MSShapeGroup"></path>
            <path d="M32,9 L40,9 L40,13 L32,13 L32,9 Z" id="Fill-184" fill="#DD342E" sketch:type="MSShapeGroup"></path>
            <path d="M42.897,2.539 L41.584,0.352 C41.378,0.009 40.934,-0.102 40.591,0.103 L36.216,2.589 L34.14,9 L38.068,9 L39.083,5.533 L42.648,3.533 C42.991,3.327 43.102,2.882 42.897,2.539" id="Fill-185" fill="#ECBA16" sketch:type="MSShapeGroup"></path>
        </g>
    </g>
</svg>