<?xml version="1.0" encoding="UTF-8" standalone="no"?>
<svg width="50px" height="59px" viewBox="0 0 50 59" version="1.1" xmlns="http://www.w3.org/2000/svg" xmlns:xlink="http://www.w3.org/1999/xlink" xmlns:sketch="http://www.bohemiancoding.com/sketch/ns">
    <!-- Generator: Sketch 3.2.2 (9983) - http://www.bohemiancoding.com/sketch -->
    <title>26 - Log Cutting (Flat)</title>
    <desc>Created with Sketch.</desc>
    <defs></defs>
    <g id="Page-1" stroke="none" stroke-width="1" fill="none" fill-rule="evenodd" sketch:type="MSPage">
        <g id="26---Log-Cutting-(Flat)" sketch:type="MSLayerGroup">
            <path d="M37.745,57.876 C36.487,57.216 31,53.776 31,44 L31,34 L12,34 L12,44 C12,53.709 5.72,57.204 4.288,57.874 C4.223,57.905 4.249,58 4.321,58 L37.71,58 C37.78,58 37.807,57.908 37.745,57.876" id="Fill-99" fill="#FFFFFF" sketch:type="MSShapeGroup"></path>
            <path d="M37.745,57.876 C36.487,57.216 31,53.776 31,44 L31,34 L12,34 L12,44 C12,53.709 5.72,57.204 4.288,57.874 C4.223,57.905 4.249,58 4.321,58 L37.71,58 C37.78,58 37.807,57.908 37.745,57.876" id="Fill-100" fill="#745A49" sketch:type="MSShapeGroup"></path>
            <path d="M10.5,21.957 C12.894,25.622 14.533,29.716 15.353,34 L25.969,34 C28.053,32.295 29.607,29.943 30.177,27.222 C30.177,27.222 30.091,27.172 30.017,27.129 C25.519,24.503 21.694,20.866 18.846,16.505 L17.205,13.993 C16.945,13.595 16.411,13.483 16.012,13.743 L9.109,18.253 C8.711,18.514 8.599,19.047 8.859,19.446 L10.5,21.957" id="Fill-101" fill="#E6E6E6" sketch:type="MSShapeGroup"></path>
            <path d="M10.5,21.957 C11.288,23.163 11.986,24.419 12.61,25.709 L9.548,27.709 C9.276,27.887 8.911,27.811 8.733,27.539 L6.403,23.972 C6.225,23.699 6.302,23.335 6.574,23.157 L9.875,21.001 L10.5,21.957" id="Fill-344" fill="#BC9D6F" sketch:type="MSShapeGroup"></path>
            <path d="M31.64,4.16 C30.277,5.21 29.169,6.527 28.21,7.955 C25.7,11.693 19.005,15.731 18.526,16.017 L18.846,16.505 C19.837,18.023 20.954,19.446 22.169,20.777 C22.743,20.357 23.407,19.845 24.071,19.319 C25.972,17.815 27.566,15.98 28.963,13.998 C32.7,8.694 39.441,5.751 41.8,4.846 C42.329,4.643 42.889,4.553 43.454,4.581 L47.622,4.788 C48.867,4.85 49.935,3.882 49.997,2.638 C50.059,1.393 49.091,0.324 47.847,0.262 L42.868,0.015 C38.287,-0.212 34.187,2.196 31.64,4.16" id="Fill-345" fill="#BC9D6F" sketch:type="MSShapeGroup"></path>
            <path d="M24,59 C23.448,59 23,58.552 23,58 L23,51 C23,50.448 23.448,50 24,50 C24.552,50 25,50.448 25,51 L25,58 C25,58.552 24.552,59 24,59" id="Fill-346" fill="#3D3028" sketch:type="MSShapeGroup"></path>
            <path d="M19,59 C18.448,59 18,58.552 18,58 L18,55 C18,54.448 18.448,54 19,54 C19.552,54 20,54.448 20,55 L20,58 C20,58.552 19.552,59 19,59" id="Fill-347" fill="#3D3028" sketch:type="MSShapeGroup"></path>
            <path d="M29,59 C28.448,59 28,58.552 28,58 L28,54 C28,53.448 28.448,53 29,53 C29.552,53 30,53.448 30,54 L30,58 C30,58.552 29.552,59 29,59" id="Fill-348" fill="#3D3028" sketch:type="MSShapeGroup"></path>
            <path d="M14,59 C13.448,59 13,58.552 13,58 L13,54 C13,53.448 13.448,53 14,53 C14.552,53 15,53.448 15,54 L15,58 C15,58.552 14.552,59 14,59" id="Fill-349" fill="#3D3028" sketch:type="MSShapeGroup"></path>
            <path d="M0,57 L42,57 L42,59 L0,59 L0,57 Z" id="Fill-350" fill="#3D3028" sketch:type="MSShapeGroup"></path>
            <path d="M22,37 C22,37.552 22.448,38 23,38 C23.552,38 24,37.552 24,37 L24,34 L22,34 L22,37" id="Fill-666" fill="#3D3028" sketch:type="MSShapeGroup"></path>
            <path d="M26,38 C26,38.552 26.448,39 27,39 C27.552,39 28,38.552 28,38 L28,34 L26,34 L26,38" id="Fill-667" fill="#3D3028" sketch:type="MSShapeGroup"></path>
            <path d="M25.381,23.862 C25.282,23.983 25.201,24.12 25.167,24.284 C24.693,26.54 23.394,28.455 21.51,29.674 C19.626,30.892 17.341,31.3 15.072,30.826 C14.906,30.791 14.746,30.812 14.593,30.856 C14.786,31.515 14.952,32.182 15.104,32.852 C15.712,32.955 16.319,33.02 16.922,33.02 C18.939,33.02 20.897,32.452 22.596,31.354 C24.805,29.924 26.352,27.727 27.008,25.139 C26.453,24.729 25.909,24.305 25.381,23.862" id="Fill-668" fill="#949493" sketch:type="MSShapeGroup"></path>
        </g>
    </g>
</svg>