<?xml version="1.0" encoding="UTF-8" standalone="no"?>
<svg width="56px" height="53px" viewBox="0 0 56 53" version="1.1" xmlns="http://www.w3.org/2000/svg" xmlns:xlink="http://www.w3.org/1999/xlink" xmlns:sketch="http://www.bohemiancoding.com/sketch/ns">
    <!-- Generator: Sketch 3.2.2 (9983) - http://www.bohemiancoding.com/sketch -->
    <title>32 - Map (Flat)</title>
    <desc>Created with Sketch.</desc>
    <defs></defs>
    <g id="Page-1" stroke="none" stroke-width="1" fill="none" fill-rule="evenodd" sketch:type="MSPage">
        <g id="32---Map-(Flat)" sketch:type="MSLayerGroup">
            <path d="M50,41 C47.028,41 44.567,43.163 44.09,46 L44,46 L44,6 L26.222,6 L24,11 L22,6 L19.333,6 L18,9 L16.8,6 L12,6 L12,46 L11.91,46 C11.433,43.163 8.972,41 6,41 C2.686,41 0,43.686 0,47 C0,50.286 2.642,52.951 5.918,52.996 L5.918,53 L24.778,53 L27,48 L29,53 L31.667,53 L33,50 L34.2,53 L50.082,53 L50.082,52.996 C53.358,52.951 56,50.286 56,47 C56,43.686 53.314,41 50,41" id="Fill-72" fill="#CFBC81" sketch:type="MSShapeGroup"></path>
            <path d="M50,41 C53.314,41 56,43.686 56,47 L56,6 C56,2.686 53.314,0 50,0 C46.686,0 44,2.686 44,6 L44,47 C44,43.686 46.686,41 50,41" id="Fill-73" fill="#977C43" sketch:type="MSShapeGroup"></path>
            <path d="M6,41 C9.314,41 12,43.686 12,47 L12,6 C12,2.686 9.314,0 6,0 C2.686,0 0,2.686 0,6 L0,47 C0,43.686 2.686,41 6,41" id="Fill-74" fill="#977C43" sketch:type="MSShapeGroup"></path>
            <path d="M21.332,26.161 C21.111,25.461 21,24.734 21,24 C21,23.448 20.553,23 20,23 C19.447,23 19,23.448 19,24 C19,24.938 19.143,25.867 19.424,26.761 C19.559,27.188 19.952,27.461 20.378,27.461 C20.477,27.461 20.578,27.446 20.678,27.415 C21.205,27.249 21.498,26.688 21.332,26.161" id="Fill-288" fill="#FFFFFF" sketch:type="MSShapeGroup"></path>
            <path d="M24.972,30.637 C24.102,30.115 23.348,29.469 22.728,28.716 C22.38,28.29 21.751,28.227 21.321,28.578 C20.894,28.928 20.833,29.559 21.184,29.985 C21.947,30.916 22.876,31.712 23.942,32.352 C24.104,32.448 24.281,32.494 24.456,32.494 C24.796,32.494 25.127,32.321 25.314,32.008 C25.599,31.535 25.445,30.92 24.972,30.637" id="Fill-289" fill="#FFFFFF" sketch:type="MSShapeGroup"></path>
            <path d="M32.761,32.424 C31.867,32.143 30.937,32 30,32 C29.234,32 28.474,31.915 27.738,31.746 C27.198,31.618 26.664,31.959 26.54,32.498 C26.417,33.036 26.753,33.572 27.291,33.695 C28.174,33.898 29.085,34 30,34 C30.734,34 31.461,34.112 32.161,34.332 C32.261,34.363 32.361,34.378 32.461,34.378 C32.887,34.378 33.28,34.105 33.415,33.678 C33.581,33.151 33.288,32.59 32.761,32.424" id="Fill-290" fill="#FFFFFF" sketch:type="MSShapeGroup"></path>
            <path d="M38.352,36.942 C37.713,35.877 36.917,34.949 35.985,34.183 C35.559,33.832 34.929,33.896 34.578,34.32 C34.227,34.747 34.289,35.377 34.716,35.728 C35.469,36.348 36.115,37.103 36.637,37.971 C36.824,38.284 37.155,38.457 37.495,38.457 C37.67,38.457 37.848,38.411 38.009,38.314 C38.482,38.03 38.636,37.415 38.352,36.942" id="Fill-291" fill="#FFFFFF" sketch:type="MSShapeGroup"></path>
            <path d="M39.695,40.291 C39.571,39.752 39.035,39.418 38.497,39.54 C37.958,39.664 37.622,40.2 37.746,40.739 C37.915,41.472 38,42.232 38,43 C38,43.552 38.447,44 39,44 C39.553,44 40,43.552 40,43 C40,42.082 39.897,41.17 39.695,40.291" id="Fill-292" fill="#FFFFFF" sketch:type="MSShapeGroup"></path>
            <path d="M23.707,16.707 L22.293,15.293 L20,17.586 L17.707,15.293 L16.293,16.707 L18.586,19 L16.293,21.293 L17.707,22.707 L20,20.414 L22.293,22.707 L23.707,21.293 L21.414,19 L23.707,16.707" id="Fill-293" fill="#556080" sketch:type="MSShapeGroup"></path>
            <path d="M33,11 C33,11.552 33.447,12 34,12 C34.553,12 35,11.552 35,11 L35,6 L33,6 L33,11" id="Fill-675" fill="#977C43" sketch:type="MSShapeGroup"></path>
            <path d="M37,6 L37,9 C37,9.552 37.447,10 38,10 C38.553,10 39,9.552 39,9 L39,6 L37,6" id="Fill-676" fill="#977C43" sketch:type="MSShapeGroup"></path>
            <path d="M17,47 C16.447,47 16,47.448 16,48 L16,53 L18,53 L18,48 C18,47.448 17.553,47 17,47" id="Fill-677" fill="#977C43" sketch:type="MSShapeGroup"></path>
            <path d="M21,50 C20.447,50 20,50.448 20,51 L20,53 L22,53 L22,51 C22,50.448 21.553,50 21,50" id="Fill-678" fill="#977C43" sketch:type="MSShapeGroup"></path>
        </g>
    </g>
</svg>