<?xml version="1.0" encoding="UTF-8" standalone="no"?>
<svg width="58px" height="58px" viewBox="0 0 58 58" version="1.1" xmlns="http://www.w3.org/2000/svg" xmlns:xlink="http://www.w3.org/1999/xlink" xmlns:sketch="http://www.bohemiancoding.com/sketch/ns">
    <!-- Generator: Sketch 3.2.2 (9983) - http://www.bohemiancoding.com/sketch -->
    <title>48 - Marshmallows (Flat)</title>
    <desc>Created with Sketch.</desc>
    <defs></defs>
    <g id="Page-1" stroke="none" stroke-width="1" fill="none" fill-rule="evenodd" sketch:type="MSPage">
        <g id="48---Marshmallows-(Flat)" sketch:type="MSLayerGroup">
            <path d="M22.455,35.907 C22.455,41.209 16.799,45.954 16.799,45.954 C16.799,41.767 14.678,37.581 14.678,37.581 C14.678,40.861 9.729,40.93 9.729,40.93 C7.52,38.558 9.729,32 9.729,32 C4.349,32.56 1.652,35.488 1.652,40.372 C1.652,43.826 2.874,46.123 4.78,47.628 C4.78,47.628 3.088,46.853 1.401,46.342 C2.277,51.812 7.089,56 12.911,56 C19.353,56 24.576,51.291 24.576,44.837 C24.576,38.384 22.455,35.907 22.455,35.907" id="Fill-123" fill="#ECBA16" sketch:type="MSShapeGroup"></path>
            <path d="M57.707,56.293 L44.367,42.953 L44.367,35 C44.367,34.448 43.919,34 43.367,34 C42.815,34 42.367,34.448 42.367,35 L42.367,40.953 L29.423,28.009 C29.032,27.618 28.399,27.618 28.009,28.009 C27.618,28.399 27.618,29.032 28.009,29.423 L32.586,34 L31.367,34 C30.815,34 30.367,34.448 30.367,35 C30.367,35.552 30.815,36 31.367,36 L34.367,36 C34.432,36 34.488,35.975 34.549,35.963 L49.586,51 L45.367,51 C44.815,51 44.367,51.448 44.367,52 C44.367,52.552 44.815,53 45.367,53 L51.367,53 C51.432,53 51.488,52.975 51.549,52.963 L56.293,57.707 C56.488,57.902 56.744,58 57,58 C57.256,58 57.512,57.902 57.707,57.707 C58.098,57.316 58.098,56.684 57.707,56.293" id="Fill-637" fill="#BE6E41" sketch:type="MSShapeGroup"></path>
            <path d="M30.605,26.834 L26.834,30.605 L26.833,30.605 C24.759,32.679 21.471,32.785 19.527,30.841 L15.991,27.305 C14.047,25.361 14.153,22.073 16.227,19.998 L19.998,16.227 C22.072,14.153 25.36,14.047 27.305,15.991 L30.841,19.527 C32.785,21.471 32.679,24.76 30.605,26.834" id="Fill-638" fill="#FBD490" sketch:type="MSShapeGroup"></path>
            <path d="M19.988,16.217 L16.217,19.988 C15.094,21.111 14.569,22.587 14.612,24.015 C16.041,24.059 17.517,23.534 18.639,22.411 L18.64,22.411 L22.411,18.64 C23.534,17.517 24.059,16.041 24.015,14.612 C22.587,14.569 21.111,15.094 19.988,16.217" id="Fill-639" fill="#CEAC76" sketch:type="MSShapeGroup"></path>
            <path d="M16.263,15.104 C15.873,14.713 15.24,14.713 14.849,15.104 C14.458,15.494 14.458,16.127 14.849,16.518 L17.849,19.518 C18.044,19.713 18.3,19.811 18.556,19.811 C18.812,19.811 19.068,19.713 19.263,19.518 C19.654,19.127 19.654,18.494 19.263,18.104 L16.263,15.104" id="Fill-640" fill="#BE6E41" sketch:type="MSShapeGroup"></path>
            <path d="M17.372,13.601 L13.601,17.372 L13.601,17.373 C11.527,19.447 8.239,19.553 6.294,17.608 L2.759,14.073 C0.814,12.128 0.92,8.84 2.995,6.766 L6.766,2.995 C8.84,0.92 12.128,0.814 14.073,2.759 L17.608,6.294 C19.553,8.239 19.447,11.527 17.372,13.601" id="Fill-641" fill="#FBD490" sketch:type="MSShapeGroup"></path>
            <path d="M6.766,2.995 L2.995,6.766 C1.872,7.889 1.347,9.365 1.39,10.793 C2.818,10.837 4.295,10.312 5.417,9.189 L5.418,9.189 L9.189,5.418 C10.312,4.295 10.837,2.819 10.793,1.39 C9.365,1.347 7.888,1.872 6.766,2.995" id="Fill-642" fill="#CEAC76" sketch:type="MSShapeGroup"></path>
            <path d="M2.074,0.672 C1.684,0.281 1.051,0.281 0.66,0.672 C0.269,1.062 0.269,1.695 0.66,2.086 L4.781,6.207 C4.977,6.402 5.232,6.5 5.488,6.5 C5.744,6.5 6,6.402 6.195,6.207 C6.586,5.816 6.586,5.184 6.195,4.793 L2.074,0.672" id="Fill-643" fill="#BE6E41" sketch:type="MSShapeGroup"></path>
        </g>
    </g>
</svg>