<?xml version="1.0" encoding="UTF-8" standalone="no"?>
<svg width="58px" height="59px" viewBox="0 0 58 59" version="1.1" xmlns="http://www.w3.org/2000/svg" xmlns:xlink="http://www.w3.org/1999/xlink" xmlns:sketch="http://www.bohemiancoding.com/sketch/ns">
    <!-- Generator: Sketch 3.2.2 (9983) - http://www.bohemiancoding.com/sketch -->
    <title>7 - Nature (Flat)</title>
    <desc>Created with Sketch.</desc>
    <defs></defs>
    <g id="Page-1" stroke="none" stroke-width="1" fill="none" fill-rule="evenodd" sketch:type="MSPage">
        <g id="7---Nature-(Flat)" sketch:type="MSLayerGroup">
            <path d="M24.786,2.166 L24.786,2.166 C24.875,2.738 25.646,2.86 25.907,2.343 C27.223,-0.265 31.179,1.02 30.711,3.904 C30.618,4.476 31.314,4.83 31.722,4.419 C33.78,2.346 37.145,4.79 35.809,7.389 C35.544,7.904 36.096,8.456 36.611,8.191 C39.21,6.855 41.654,10.22 39.581,12.278 C39.17,12.686 39.524,13.381 40.096,13.289 C42.98,12.821 44.265,16.777 41.657,18.093 C41.14,18.354 41.262,19.125 41.834,19.214 C44.722,19.66 44.722,23.82 41.834,24.266 C41.262,24.354 41.14,25.125 41.657,25.386 C44.265,26.703 42.98,30.659 40.096,30.191 C39.524,30.098 39.17,30.794 39.581,31.202 C41.654,33.26 39.21,36.625 36.611,35.289 C36.096,35.024 35.544,35.576 35.809,36.091 C37.145,38.689 33.78,41.134 31.722,39.06 C31.314,38.649 30.618,39.004 30.711,39.575 L30.711,39.576 C31.179,42.459 27.223,43.745 25.907,41.137 C25.646,40.619 24.875,40.742 24.786,41.314 C24.34,44.201 20.18,44.201 19.734,41.314 C19.646,40.742 18.875,40.619 18.614,41.137 C17.297,43.745 13.341,42.459 13.809,39.576 L13.809,39.575 C13.902,39.004 13.206,38.649 12.798,39.06 C10.74,41.134 7.375,38.689 8.711,36.091 C8.976,35.576 8.424,35.024 7.909,35.289 C5.311,36.625 2.866,33.26 4.94,31.202 C5.351,30.794 4.996,30.098 4.425,30.191 L4.424,30.191 C1.54,30.659 0.255,26.703 2.863,25.386 C3.381,25.125 3.258,24.354 2.686,24.266 C-0.202,23.82 -0.202,19.66 2.686,19.214 C3.258,19.125 3.381,18.354 2.863,18.093 C0.255,16.777 1.54,12.821 4.424,13.289 L4.425,13.289 C4.996,13.381 5.351,12.686 4.94,12.278 C2.866,10.22 5.311,6.855 7.909,8.191 C8.424,8.456 8.976,7.904 8.711,7.389 C7.375,4.79 10.74,2.346 12.798,4.419 C13.206,4.83 13.902,4.476 13.809,3.904 C13.341,1.02 17.297,-0.265 18.614,2.343 C18.875,2.86 19.646,2.738 19.734,2.166 C20.18,-0.722 24.34,-0.722 24.786,2.166" id="Fill-467" fill="#659C35" sketch:type="MSShapeGroup"></path>
            <path d="M24.786,41.314 C24.34,44.201 20.18,44.201 19.734,41.314 C19.675,40.932 19,40.695 19,40.832 L19,58 L25,58 L25,40.946 C25,40.844 24.811,41.153 24.786,41.314" id="Fill-468" fill="#6B5B4B" sketch:type="MSShapeGroup"></path>
            <path d="M25,34 C24.448,34 24,33.553 24,33 C24,28.037 28.038,24 33,24 C33.552,24 34,24.447 34,25 C34,25.553 33.552,26 33,26 C29.14,26 26,29.141 26,33 C26,33.553 25.552,34 25,34" id="Fill-469" fill="#A4E869" sketch:type="MSShapeGroup"></path>
            <path d="M19,37 C18.448,37 18,36.553 18,36 C18,32.141 14.86,29 11,29 C10.448,29 10,28.553 10,28 C10,27.447 10.448,27 11,27 C15.962,27 20,31.037 20,36 C20,36.553 19.552,37 19,37" id="Fill-470" fill="#A4E869" sketch:type="MSShapeGroup"></path>
            <path d="M21,26 C20.448,26 20,25.553 20,25 C20,21.141 16.86,18 13,18 C12.448,18 12,17.553 12,17 C12,16.447 12.448,16 13,16 C17.962,16 22,20.037 22,25 C22,25.553 21.552,26 21,26" id="Fill-471" fill="#A4E869" sketch:type="MSShapeGroup"></path>
            <path d="M22,18 C21.448,18 21,17.553 21,17 C21,12.037 25.038,8 30,8 C30.552,8 31,8.447 31,9 C31,9.553 30.552,10 30,10 C26.14,10 23,13.141 23,17 C23,17.553 22.552,18 22,18" id="Fill-472" fill="#A4E869" sketch:type="MSShapeGroup"></path>
            <path d="M37,18 C34.794,18 33,16.206 33,14 C33,13.447 33.448,13 34,13 C34.552,13 35,13.447 35,14 C35,15.102 35.897,16 37,16 C37.552,16 38,16.447 38,17 C38,17.553 37.552,18 37,18" id="Fill-473" fill="#A4E869" sketch:type="MSShapeGroup"></path>
            <path d="M28,22 C27.448,22 27,21.553 27,21 C27,18.794 28.794,17 31,17 C31.552,17 32,17.447 32,18 C32,18.553 31.552,19 31,19 C29.897,19 29,19.898 29,21 C29,21.553 28.552,22 28,22" id="Fill-474" fill="#A4E869" sketch:type="MSShapeGroup"></path>
            <path d="M19,11 C16.794,11 15,9.206 15,7 C15,6.447 15.448,6 16,6 C16.552,6 17,6.447 17,7 C17,8.103 17.897,9 19,9 C19.552,9 20,9.447 20,10 C20,10.553 19.552,11 19,11" id="Fill-475" fill="#A4E869" sketch:type="MSShapeGroup"></path>
            <path d="M8,24 C7.448,24 7,23.553 7,23 C7,22.447 7.448,22 8,22 C9.103,22 10,21.102 10,20 C10,19.447 10.448,19 11,19 C11.552,19 12,19.447 12,20 C12,22.206 10.206,24 8,24" id="Fill-476" fill="#A4E869" sketch:type="MSShapeGroup"></path>
            <path d="M32,34 C31.448,34 31,33.553 31,33 C31,30.794 32.794,29 35,29 C35.552,29 36,29.447 36,30 C36,30.553 35.552,31 35,31 C33.897,31 33,31.898 33,33 C33,33.553 32.552,34 32,34" id="Fill-477" fill="#A4E869" sketch:type="MSShapeGroup"></path>
            <path d="M16,59 C15.448,59 15,58.553 15,58 L15,57 C15,56.447 15.448,56 16,56 C16.552,56 17,56.447 17,57 L17,58 C17,58.553 16.552,59 16,59" id="Fill-478" fill="#23A24D" sketch:type="MSShapeGroup"></path>
            <path d="M13,59 C12.448,59 12,58.553 12,58 L12,57 C12,56.447 12.448,56 13,56 C13.552,56 14,56.447 14,57 L14,58 C14,58.553 13.552,59 13,59" id="Fill-479" fill="#23A24D" sketch:type="MSShapeGroup"></path>
            <path d="M10,59 C9.448,59 9,58.553 9,58 L9,57 C9,56.447 9.448,56 10,56 C10.552,56 11,56.447 11,57 L11,58 C11,58.553 10.552,59 10,59" id="Fill-480" fill="#23A24D" sketch:type="MSShapeGroup"></path>
            <path d="M7,59 C6.448,59 6,58.553 6,58 L6,57 C6,56.447 6.448,56 7,56 C7.552,56 8,56.447 8,57 L8,58 C8,58.553 7.552,59 7,59" id="Fill-481" fill="#23A24D" sketch:type="MSShapeGroup"></path>
            <path d="M4,59 C3.448,59 3,58.553 3,58 L3,57 C3,56.447 3.448,56 4,56 C4.552,56 5,56.447 5,57 L5,58 C5,58.553 4.552,59 4,59" id="Fill-482" fill="#23A24D" sketch:type="MSShapeGroup"></path>
            <path d="M34,59 C33.448,59 33,58.553 33,58 L33,57 C33,56.447 33.448,56 34,56 C34.552,56 35,56.447 35,57 L35,58 C35,58.553 34.552,59 34,59" id="Fill-483" fill="#23A24D" sketch:type="MSShapeGroup"></path>
            <path d="M31,59 C30.448,59 30,58.553 30,58 L30,57 C30,56.447 30.448,56 31,56 C31.552,56 32,56.447 32,57 L32,58 C32,58.553 31.552,59 31,59" id="Fill-484" fill="#23A24D" sketch:type="MSShapeGroup"></path>
            <path d="M28,59 C27.448,59 27,58.553 27,58 L27,57 C27,56.447 27.448,56 28,56 C28.552,56 29,56.447 29,57 L29,58 C29,58.553 28.552,59 28,59" id="Fill-485" fill="#23A24D" sketch:type="MSShapeGroup"></path>
            <path d="M43,59 C42.448,59 42,58.553 42,58 L42,57 C42,56.447 42.448,56 43,56 C43.552,56 44,56.447 44,57 L44,58 C44,58.553 43.552,59 43,59" id="Fill-486" fill="#23A24D" sketch:type="MSShapeGroup"></path>
            <path d="M40,59 C39.448,59 39,58.553 39,58 L39,57 C39,56.447 39.448,56 40,56 C40.552,56 41,56.447 41,57 L41,58 C41,58.553 40.552,59 40,59" id="Fill-487" fill="#23A24D" sketch:type="MSShapeGroup"></path>
            <path d="M37,59 C36.448,59 36,58.553 36,58 L36,57 C36,56.447 36.448,56 37,56 C37.552,56 38,56.447 38,57 L38,58 C38,58.553 37.552,59 37,59" id="Fill-488" fill="#23A24D" sketch:type="MSShapeGroup"></path>
            <path d="M52,59 C51.448,59 51,58.553 51,58 L51,57 C51,56.447 51.448,56 52,56 C52.552,56 53,56.447 53,57 L53,58 C53,58.553 52.552,59 52,59" id="Fill-489" fill="#23A24D" sketch:type="MSShapeGroup"></path>
            <path d="M49,59 C48.448,59 48,58.553 48,58 L48,57 C48,56.447 48.448,56 49,56 C49.552,56 50,56.447 50,57 L50,58 C50,58.553 49.552,59 49,59" id="Fill-490" fill="#23A24D" sketch:type="MSShapeGroup"></path>
            <path d="M46,59 C45.448,59 45,58.553 45,58 L45,57 C45,56.447 45.448,56 46,56 C46.552,56 47,56.447 47,57 L47,58 C47,58.553 46.552,59 46,59" id="Fill-491" fill="#23A24D" sketch:type="MSShapeGroup"></path>
            <path d="M51,12 C51,8.684 53.684,6 57,6 M51,12 C51,9.236 48.764,7 46,7" id="Stroke-492" stroke="#556080" stroke-width="2" stroke-linecap="round" sketch:type="MSShapeGroup"></path>
        </g>
    </g>
</svg>