<?xml version="1.0" encoding="UTF-8" standalone="no"?>
<svg width="57px" height="59px" viewBox="0 0 57 59" version="1.1" xmlns="http://www.w3.org/2000/svg" xmlns:xlink="http://www.w3.org/1999/xlink" xmlns:sketch="http://www.bohemiancoding.com/sketch/ns">
    <!-- Generator: Sketch 3.2.2 (9983) - http://www.bohemiancoding.com/sketch -->
    <title>43 - Outdoor Stove (Flat)</title>
    <desc>Created with Sketch.</desc>
    <defs></defs>
    <g id="Page-1" stroke="none" stroke-width="1" fill="none" fill-rule="evenodd" sketch:type="MSPage">
        <g id="43---Outdoor-Stove-(Flat)" sketch:type="MSLayerGroup" transform="translate(-1.000000, -1.000000)">
            <path d="M54.259,51.265 L39.199,45.871 C39.201,45.852 39.17,45.854 39.118,45.867 C39.078,46.016 39.047,46.169 39,46.316 C38.08,49.805 35.777,52.11 33.034,53.223 L51.225,59.738 C53.555,60.572 56.144,59.349 56.979,57.018 C57.813,54.688 56.589,52.099 54.259,51.265" id="Fill-114" fill="#745A49" sketch:type="MSShapeGroup"></path>
            <path d="M19.124,46.564 L19.028,46.235 L4.984,51.265 C2.654,52.099 1.43,54.688 2.265,57.018 C3.099,59.349 5.688,60.572 8.018,59.738 L25.61,53.438 C22.692,52.455 20.173,50.173 19.124,46.564" id="Fill-115" fill="#745A49" sketch:type="MSShapeGroup"></path>
            <path id="Stroke-150" stroke="#0F81E0" stroke-width="2" stroke-linecap="round" stroke-linejoin="round" sketch:type="MSShapeGroup"></path>
            <path d="M8.018,59.735 C5.679,60.573 3.103,59.356 2.265,57.016 C1.427,54.676 2.644,52.1 4.984,51.262 C7.324,50.424 9.9,51.642 10.738,53.982 C11.576,56.321 10.358,58.897 8.018,59.735" id="Fill-151" fill="#D1A170" sketch:type="MSShapeGroup"></path>
            <path d="M51.225,59.735 C53.565,60.573 56.141,59.356 56.979,57.016 C57.817,54.676 56.599,52.1 54.259,51.262 C51.92,50.424 49.344,51.642 48.506,53.982 C47.668,56.321 48.885,58.897 51.225,59.735" id="Fill-152" fill="#D1A170" sketch:type="MSShapeGroup"></path>
            <path d="M37.67,34.718 C37.67,38.405 32.649,41.705 32.649,41.705 C32.649,38.794 30.766,35.882 30.766,35.882 C30.766,38.163 26.372,38.211 26.372,38.211 C24.411,36.561 26.372,32 26.372,32 C21.596,32.39 19.201,34.426 19.201,37.823 C19.201,40.225 20.286,41.823 21.979,42.87 L18,41.976 L19,46.137 L19.124,46.564 C22.042,56.608 36.334,56.43 39,46.316 C40.594,41.375 37.67,34.718 37.67,34.718" id="Fill-153" fill="#ECBA16" sketch:type="MSShapeGroup"></path>
            <path d="M12,56 C11.581,56 11.191,55.735 11.052,55.316 C10.877,54.793 11.16,54.226 11.684,54.051 L17.684,52.051 C18.211,51.877 18.774,52.16 18.948,52.684 C19.123,53.208 18.84,53.774 18.316,53.949 L12.316,55.949 C12.211,55.984 12.104,56 12,56" id="Fill-154" fill="#634B3E" sketch:type="MSShapeGroup"></path>
            <path d="M11,53 C10.581,53 10.191,52.735 10.052,52.316 C9.877,51.793 10.16,51.226 10.684,51.051 L13.684,50.051 C14.212,49.876 14.773,50.16 14.948,50.684 C15.123,51.208 14.84,51.774 14.316,51.949 L11.316,52.949 C11.211,52.984 11.104,53 11,53" id="Fill-155" fill="#634B3E" sketch:type="MSShapeGroup"></path>
            <path d="M47,56 C46.896,56 46.789,55.984 46.684,55.949 L40.684,53.949 C40.16,53.774 39.877,53.208 40.052,52.684 C40.227,52.16 40.787,51.877 41.316,52.051 L47.316,54.051 C47.84,54.226 48.123,54.793 47.948,55.316 C47.809,55.735 47.419,56 47,56" id="Fill-156" fill="#634B3E" sketch:type="MSShapeGroup"></path>
            <path d="M48,53 C47.896,53 47.789,52.984 47.684,52.949 L44.684,51.949 C44.16,51.774 43.877,51.208 44.052,50.684 C44.227,50.16 44.789,49.876 45.316,50.051 L48.316,51.051 C48.84,51.226 49.123,51.793 48.948,52.316 C48.809,52.735 48.419,53 48,53" id="Fill-157" fill="#634B3E" sketch:type="MSShapeGroup"></path>
            <path d="M2,5 L28,5" id="Stroke-158" stroke="#6C4126" stroke-width="2" stroke-linecap="round" sketch:type="MSShapeGroup"></path>
            <path d="M40.833,14 C40.833,15.657 35.581,17 29,17 C22.419,17 17,15.657 17,14 C17,12.343 22.419,11 29,11 C35.581,11 40.833,12.343 40.833,14" id="Fill-159" fill="#38454F" sketch:type="MSShapeGroup"></path>
            <path d="M42,31 C42,31.552 41.552,32 41,32 C40.448,32 40,31.552 40,31 C40,30.448 40.448,30 41,30 C41.552,30 42,30.448 42,31" id="Fill-160" fill="#ECBA16" sketch:type="MSShapeGroup"></path>
            <path d="M45,35 C45,35.552 44.552,36 44,36 C43.448,36 43,35.552 43,35 C43,34.448 43.448,34 44,34 C44.552,34 45,34.448 45,35" id="Fill-161" fill="#ECBA16" sketch:type="MSShapeGroup"></path>
            <path d="M45,42 C45,42.552 44.552,43 44,43 C43.448,43 43,42.552 43,42 C43,41.448 43.448,41 44,41 C44.552,41 45,41.448 45,42" id="Fill-162" fill="#ECBA16" sketch:type="MSShapeGroup"></path>
            <path d="M17,31 C17,31.552 16.552,32 16,32 C15.448,32 15,31.552 15,31 C15,30.448 15.448,30 16,30 C16.552,30 17,30.448 17,31" id="Fill-163" fill="#ECBA16" sketch:type="MSShapeGroup"></path>
            <path d="M17,36 C17,36.552 16.552,37 16,37 C15.448,37 15,36.552 15,36 C15,35.448 15.448,35 16,35 C16.552,35 17,35.448 17,36" id="Fill-164" fill="#ECBA16" sketch:type="MSShapeGroup"></path>
            <path d="M14,41 C14,41.552 13.552,42 13,42 C12.448,42 12,41.552 12,41 C12,40.448 12.448,40 13,40 C13.552,40 14,40.448 14,41" id="Fill-165" fill="#ECBA16" sketch:type="MSShapeGroup"></path>
            <path d="M34,33 C34,33.552 33.552,34 33,34 C32.448,34 32,33.552 32,33 C32,32.448 32.448,32 33,32 C33.552,32 34,32.448 34,33" id="Fill-166" fill="#ECBA16" sketch:type="MSShapeGroup"></path>
            <path d="M7.293,1.293 L5,3.586 L2.707,1.293 C2.316,0.902 1.684,0.902 1.293,1.293 C0.902,1.684 0.902,2.316 1.293,2.707 L4,5.414 L4,51 C4,51.552 4.447,52 5,52 C5.553,52 6,51.552 6,51 L6,5.414 L8.707,2.707 C9.098,2.316 9.098,1.684 8.707,1.293 C8.316,0.902 7.684,0.902 7.293,1.293" id="Fill-167" fill="#6C4126" sketch:type="MSShapeGroup"></path>
            <path d="M57.707,1.293 C57.316,0.902 56.684,0.902 56.293,1.293 L54,3.586 L51.707,1.293 C51.316,0.902 50.684,0.902 50.293,1.293 C49.902,1.684 49.902,2.316 50.293,2.707 L53,5.414 L53,51 C53,51.552 53.447,52 54,52 C54.553,52 55,51.552 55,51 L55,5.414 L57.707,2.707 C58.098,2.316 58.098,1.684 57.707,1.293" id="Fill-168" fill="#6C4126" sketch:type="MSShapeGroup"></path>
            <path d="M40.752,14.339 C40.092,15.836 35.125,17 29,17 C22.906,17 17.819,15.848 17.099,14.361 C17.092,14.361 17.085,14.362 17.078,14.362 C17.07,14.362 17.062,14.361 17.054,14.361 C17.038,14.524 17.028,14.555 17.032,14.579 L18.746,23.147 C19.427,26.55 22.415,29 25.885,29 L31.948,29 C35.419,29 38.407,26.55 39.087,23.147 L40.801,14.579 C40.806,14.554 40.794,14.524 40.777,14.341 C40.769,14.34 40.76,14.34 40.752,14.339" id="Fill-169" fill="#546A79" sketch:type="MSShapeGroup"></path>
            <path d="M35,11.411 L35,8 C35,4.7 32.3,2 29,2 C25.7,2 23,4.7 23,8 L23,16.592" id="Stroke-170" stroke="#546A79" stroke-width="2" stroke-linecap="round" sketch:type="MSShapeGroup"></path>
            <path d="M28,5 L57,5" id="Stroke-689" stroke="#6C4126" stroke-width="2" stroke-linecap="round" sketch:type="MSShapeGroup"></path>
        </g>
    </g>
</svg>