<?xml version="1.0" encoding="UTF-8" standalone="no"?>
<svg width="60px" height="53px" viewBox="0 0 60 53" version="1.1" xmlns="http://www.w3.org/2000/svg" xmlns:xlink="http://www.w3.org/1999/xlink" xmlns:sketch="http://www.bohemiancoding.com/sketch/ns">
    <!-- Generator: Sketch 3.2.2 (9983) - http://www.bohemiancoding.com/sketch -->
    <title>4 - Picnic Area (Flat)</title>
    <desc>Created with Sketch.</desc>
    <defs></defs>
    <g id="Page-1" stroke="none" stroke-width="1" fill="none" fill-rule="evenodd" sketch:type="MSPage">
        <g id="4---Picnic-Area-(Flat)" sketch:type="MSLayerGroup" transform="translate(1.000000, 1.000000)">
            <path d="M50,5.247 L50,23" id="Stroke-502" stroke="#6C4126" stroke-width="2" stroke-linecap="round" sketch:type="MSShapeGroup"></path>
            <path d="M50,5 C50,7.211 48.211,9 46,9 M50,9 C50,12.316 47.316,15 44,15 M50,13 C50,17.422 46.422,21 42,21 M50,5 C50,7.211 51.789,9 54,9 M50,9 C50,12.316 52.684,15 56,15 M50,13 C50,17.422 53.578,21 58,21" id="Stroke-503" stroke="#426D5F" stroke-width="2" stroke-linecap="round" sketch:type="MSShapeGroup"></path>
            <path d="M8,5.247 L8,23" id="Stroke-504" stroke="#6C4126" stroke-width="2" stroke-linecap="round" sketch:type="MSShapeGroup"></path>
            <path d="M8,5 C8,7.211 6.211,9 4,9 M8,9 C8,12.316 5.316,15 2,15 M8,13 C8,17.422 4.422,21 0,21 M8,5 C8,7.211 9.789,9 12,9 M8,9 C8,12.316 10.684,15 14,15 M8,13 C8,17.422 11.578,21 16,21" id="Stroke-505" stroke="#426D5F" stroke-width="2" stroke-linecap="round" sketch:type="MSShapeGroup"></path>
            <path d="M29,0.247 L29,18" id="Stroke-506" stroke="#6C4126" stroke-width="2" stroke-linecap="round" sketch:type="MSShapeGroup"></path>
            <path d="M29,0 C29,2.211 27.211,4 25,4 M29,4 C29,7.316 26.316,10 23,10 M29,8 C29,12.422 25.422,16 21,16 M29,0 C29,2.211 30.789,4 33,4 M29,4 C29,7.316 31.684,10 35,10 M29,8 C29,12.422 32.578,16 37,16" id="Stroke-507" stroke="#426D5F" stroke-width="2" stroke-linecap="round" sketch:type="MSShapeGroup"></path>
            <path d="M46.674,30 L12.326,30 C11.594,30 11,29.406 11,28.674 L11,26.326 C11,25.594 11.594,25 12.326,25 L46.674,25 C47.406,25 48,25.594 48,26.326 L48,28.674 C48,29.406 47.406,30 46.674,30" id="Fill-508" fill="#6B5B4B" sketch:type="MSShapeGroup"></path>
            <path d="M54.674,45 L3.326,45 C2.594,45 2,44.406 2,43.674 L2,41.326 C2,40.594 2.594,40 3.326,40 L54.674,40 C55.406,40 56,40.594 56,41.326 L56,43.674 C56,44.406 55.406,45 54.674,45" id="Fill-509" fill="#6B5B4B" sketch:type="MSShapeGroup"></path>
            <path d="M19.636,40 L26,30 L20,30 L13.636,40 L19.636,40" id="Fill-510" fill="#BFA380" sketch:type="MSShapeGroup"></path>
            <path d="M10.454,45 L6.751,50.82 C6.426,51.331 6.793,52 7.399,52 L11.578,52 C11.841,52 12.085,51.866 12.226,51.644 L16.454,45 L10.454,45" id="Fill-511" fill="#BFA380" sketch:type="MSShapeGroup"></path>
            <path d="M45.364,40 L39,30 L33,30 L39.364,40 L45.364,40" id="Fill-512" fill="#BFA380" sketch:type="MSShapeGroup"></path>
            <path d="M42.545,45 L46.774,51.644 C46.915,51.866 47.159,52 47.422,52 L51.601,52 C52.207,52 52.574,51.331 52.249,50.82 L48.545,45 L42.545,45" id="Fill-513" fill="#BFA380" sketch:type="MSShapeGroup"></path>
        </g>
    </g>
</svg>