<?xml version="1.0" encoding="UTF-8" standalone="no"?>
<svg width="56px" height="59px" viewBox="0 0 56 59" version="1.1" xmlns="http://www.w3.org/2000/svg" xmlns:xlink="http://www.w3.org/1999/xlink" xmlns:sketch="http://www.bohemiancoding.com/sketch/ns">
    <!-- Generator: Sketch 3.2.2 (9983) - http://www.bohemiancoding.com/sketch -->
    <title>10 - Pines (Flat)</title>
    <desc>Created with Sketch.</desc>
    <defs></defs>
    <g id="Page-1" stroke="none" stroke-width="1" fill="none" fill-rule="evenodd" sketch:type="MSPage">
        <g id="10---Pines-(Flat)" sketch:type="MSLayerGroup" transform="translate(1.000000, 1.000000)" stroke-width="2" stroke-linecap="round">
            <path d="M27.14,39.247 L27.14,57" id="Path" stroke="#6C4126" sketch:type="MSShapeGroup"></path>
            <path d="M27.14,39 C27.14,41.211 25.35,43 23.14,43 M27.14,43 C27.14,46.316 24.456,49 21.14,49 M27.14,47 C27.14,51.422 23.561,55 19.14,55 M27.14,39 C27.14,41.211 28.929,43 31.14,43 M27.14,43 C27.14,46.316 29.823,49 33.14,49 M27.14,47 C27.14,51.422 30.718,55 35.14,55" id="Stroke-449" stroke="#426D5F" sketch:type="MSShapeGroup"></path>
            <path d="M27.14,13.247 L27.14,31" id="Stroke-450" stroke="#6C4126" sketch:type="MSShapeGroup"></path>
            <path d="M27.14,13 C27.14,15.211 25.35,17 23.14,17 M27.14,17 C27.14,20.316 24.456,23 21.14,23 M27.14,21 C27.14,25.422 23.561,29 19.14,29 M27.14,13 C27.14,15.211 28.929,17 31.14,17 M27.14,17 C27.14,20.316 29.823,23 33.14,23 M27.14,21 C27.14,25.422 30.718,29 35.14,29" id="Stroke-451" stroke="#426D5F" sketch:type="MSShapeGroup"></path>
            <path d="M8.14,0.247 L8.14,18" id="Stroke-452" stroke="#6C4126" sketch:type="MSShapeGroup"></path>
            <path d="M8.14,0 C8.14,2.211 6.35,4 4.14,4 M8.14,4 C8.14,7.316 5.456,10 2.14,10 M8.14,8 C8.14,12.422 4.561,16 0.14,16 M8.14,0 C8.14,2.211 9.929,4 12.14,4 M8.14,4 C8.14,7.316 10.823,10 14.14,10 M8.14,8 C8.14,12.422 11.718,16 16.14,16" id="Stroke-453" stroke="#426D5F" sketch:type="MSShapeGroup"></path>
            <path d="M45.14,0.247 L45.14,18" id="Stroke-454" stroke="#6C4126" sketch:type="MSShapeGroup"></path>
            <path d="M45.14,0 C45.14,2.211 43.35,4 41.14,4 M45.14,4 C45.14,7.316 42.456,10 39.14,10 M45.14,8 C45.14,12.422 41.561,16 37.14,16 M45.14,0 C45.14,2.211 46.929,4 49.14,4 M45.14,4 C45.14,7.316 47.823,10 51.14,10 M45.14,8 C45.14,12.422 48.718,16 53.14,16" id="Stroke-455" stroke="#426D5F" sketch:type="MSShapeGroup"></path>
            <path d="M45.14,25.247 L45.14,43" id="Stroke-456" stroke="#6C4126" sketch:type="MSShapeGroup"></path>
            <path d="M45.14,25 C45.14,27.211 43.35,29 41.14,29 M45.14,29 C45.14,32.316 42.456,35 39.14,35 M45.14,33 C45.14,37.422 41.561,41 37.14,41 M45.14,25 C45.14,27.211 46.929,29 49.14,29 M45.14,29 C45.14,32.316 47.823,35 51.14,35 M45.14,33 C45.14,37.422 48.718,41 53.14,41" id="Stroke-457" stroke="#426D5F" sketch:type="MSShapeGroup"></path>
            <path d="M8.14,25.247 L8.14,43" id="Stroke-458" stroke="#6C4126" sketch:type="MSShapeGroup"></path>
            <path d="M8.14,25 C8.14,27.211 6.35,29 4.14,29 M8.14,29 C8.14,32.316 5.456,35 2.14,35 M8.14,33 C8.14,37.422 4.561,41 0.14,41 M8.14,25 C8.14,27.211 9.929,29 12.14,29 M8.14,29 C8.14,32.316 10.823,35 14.14,35 M8.14,33 C8.14,37.422 11.718,41 16.14,41" id="Stroke-459" stroke="#426D5F" sketch:type="MSShapeGroup"></path>
        </g>
    </g>
</svg>