<?xml version="1.0" encoding="UTF-8" standalone="no"?>
<svg width="58px" height="58px" viewBox="0 0 58 58" version="1.1" xmlns="http://www.w3.org/2000/svg" xmlns:xlink="http://www.w3.org/1999/xlink" xmlns:sketch="http://www.bohemiancoding.com/sketch/ns">
    <!-- Generator: Sketch 3.2.2 (9983) - http://www.bohemiancoding.com/sketch -->
    <title>29 - Survival Compass (Flat)</title>
    <desc>Created with Sketch.</desc>
    <defs></defs>
    <g id="Page-1" stroke="none" stroke-width="1" fill="none" fill-rule="evenodd" sketch:type="MSPage">
        <g id="29---Survival-Compass-(Flat)" sketch:type="MSLayerGroup">
            <path d="M16.291,16.347 C18.613,14.025 21.415,12.489 24.375,11.703 L13.624,0.952 C13.134,0.462 12.339,0.462 11.849,0.952 L0.896,11.904 C0.406,12.395 0.406,13.19 0.896,13.68 L11.647,24.431 C12.433,21.47 13.97,18.668 16.291,16.347" id="Fill-306" fill="#57823B" sketch:type="MSShapeGroup"></path>
            <path d="M41.709,41.764 C39.387,44.086 36.585,45.623 33.625,46.408 L44.376,57.159 C44.866,57.649 45.661,57.649 46.151,57.159 L57.104,46.207 C57.594,45.716 57.594,44.922 57.104,44.431 L46.353,33.68 C45.567,36.641 44.03,39.443 41.709,41.764" id="Fill-307" fill="#57823B" sketch:type="MSShapeGroup"></path>
            <path d="M11,16.047 C10.448,16.047 10,15.599 10,15.047 L10,7.047 C10,6.495 10.448,6.047 11,6.047 C11.552,6.047 12,6.495 12,7.047 L12,15.047 C12,15.599 11.552,16.047 11,16.047" id="Fill-308" fill="#2A4F24" sketch:type="MSShapeGroup"></path>
            <path d="M15,12.047 L7,12.047 C6.448,12.047 6,11.599 6,11.047 C6,10.495 6.448,10.047 7,10.047 L15,10.047 C15.552,10.047 16,10.495 16,11.047 C16,11.599 15.552,12.047 15,12.047" id="Fill-309" fill="#2A4F24" sketch:type="MSShapeGroup"></path>
            <path d="M47,52.047 C46.448,52.047 46,51.599 46,51.047 L46,43.047 C46,42.495 46.448,42.047 47,42.047 C47.552,42.047 48,42.495 48,43.047 L48,51.047 C48,51.599 47.552,52.047 47,52.047" id="Fill-310" fill="#2A4F24" sketch:type="MSShapeGroup"></path>
            <path d="M51,48.047 L43,48.047 C42.448,48.047 42,47.599 42,47.047 C42,46.495 42.448,46.047 43,46.047 L51,46.047 C51.552,46.047 52,46.495 52,47.047 C52,47.599 51.552,48.047 51,48.047" id="Fill-311" fill="#2A4F24" sketch:type="MSShapeGroup"></path>
            <path d="M41.709,16.347 C48.728,23.366 48.728,34.745 41.709,41.764 C34.69,48.783 23.31,48.783 16.291,41.764 C9.272,34.745 9.272,23.366 16.291,16.347 C23.31,9.328 34.69,9.328 41.709,16.347 L41.709,16.347 Z" id="Fill-683" fill="#FFFFFF" sketch:type="MSShapeGroup"></path>
            <path d="M41.709,16.347 C48.728,23.366 48.728,34.745 41.709,41.764 C34.69,48.783 23.31,48.783 16.291,41.764 C9.272,34.745 9.272,23.366 16.291,16.347 C23.31,9.328 34.69,9.328 41.709,16.347 L41.709,16.347 Z" id="Stroke-684" stroke="#556080" stroke-width="2" stroke-linecap="round" stroke-linejoin="round" sketch:type="MSShapeGroup"></path>
            <path d="M11,29.056 L15,29.056 M43,29.056 L47,29.056 M29,11.047 L29,15.047 M29,43.047 L29,47.047" id="Stroke-685" stroke="#ECBA16" stroke-width="2" stroke-linecap="round" stroke-linejoin="round" sketch:type="MSShapeGroup"></path>
            <path d="M44.121,13.926 L42,16.047" id="Stroke-686" stroke="#556080" stroke-width="2" sketch:type="MSShapeGroup"></path>
            <path d="M45.92,15.724 L42.322,12.127 C42.144,11.949 42.144,11.66 42.322,11.482 L44.506,9.298 C44.684,9.12 44.973,9.12 45.151,9.298 L48.749,12.896 C48.927,13.074 48.927,13.363 48.749,13.541 L46.565,15.724 C46.387,15.902 46.098,15.902 45.92,15.724" id="Fill-687" fill="#7383BF" sketch:type="MSShapeGroup"></path>
            <path d="M31.855,28.26 C31.951,28.78 31.949,29.313 31.85,29.833 C31.85,29.833 29.575,39.047 29,39.047 C28.425,39.047 26.15,29.833 26.15,29.833 C26.051,29.313 26.049,28.78 26.145,28.26 C26.145,28.26 28.425,19.047 29,19.047 C29.575,19.047 31.855,28.26 31.855,28.26" id="Fill-688" fill="#0F81E0" sketch:type="MSShapeGroup"></path>
        </g>
    </g>
</svg>