<?xml version="1.0" encoding="UTF-8" standalone="no"?>
<svg width="58px" height="59px" viewBox="0 0 58 59" version="1.1" xmlns="http://www.w3.org/2000/svg" xmlns:xlink="http://www.w3.org/1999/xlink" xmlns:sketch="http://www.bohemiancoding.com/sketch/ns">
    <!-- Generator: Sketch 3.2.2 (9983) - http://www.bohemiancoding.com/sketch -->
    <title>44 - Swiss Army Knife (Flat)</title>
    <desc>Created with Sketch.</desc>
    <defs></defs>
    <g id="Page-1" stroke="none" stroke-width="1" fill="none" fill-rule="evenodd" sketch:type="MSPage">
        <g id="44---Swiss-Army-Knife-(Flat)" sketch:type="MSLayerGroup">
            <path d="M31.917,12.988 L41.109,22.18 L47.473,15.816 L31.917,0.26 C28.402,3.775 28.402,9.473 31.917,12.988" id="Fill-116" fill="#C7CBC7" sketch:type="MSShapeGroup"></path>
            <path d="M22.017,41.272 L24.914,38.375 L16.719,35.85 C16.617,35.814 16.517,35.903 16.527,36.01 C17.096,42.012 9.436,35.879 7.913,34.747 C7.768,34.639 7.592,34.585 7.412,34.589 L2.663,34.718 C1.922,34.568 1.182,34.986 0.928,35.699 L0.127,37.953 C-0.122,38.654 0.172,39.432 0.822,39.793 L5.013,42.12 L20.059,47.255 C19.746,45.134 20.393,42.896 22.017,41.272" id="Fill-117" fill="#C7CBC7" sketch:type="MSShapeGroup"></path>
            <path d="M55.958,27.13 L31.917,51.172 C29.194,53.894 24.74,53.894 22.017,51.172 C19.295,48.449 19.295,43.994 22.017,41.272 L46.059,17.23 C48.781,14.508 53.236,14.508 55.958,17.23 C58.681,19.953 58.681,24.408 55.958,27.13" id="Fill-118" fill="#DD342E" sketch:type="MSShapeGroup"></path>
            <path d="M38.987,12.574 C38.731,12.574 38.476,12.476 38.28,12.281 L34.038,8.038 C33.647,7.648 33.647,7.015 34.038,6.624 C34.429,6.233 35.061,6.233 35.452,6.624 L39.694,10.867 C40.085,11.257 40.085,11.89 39.694,12.281 C39.499,12.476 39.243,12.574 38.987,12.574" id="Fill-144" fill="#FFFFFF" sketch:type="MSShapeGroup"></path>
            <path d="M49.953,24.5 L51.746,22.707 C52.137,22.316 52.137,21.684 51.746,21.293 C51.356,20.902 50.723,20.902 50.332,21.293 L48.539,23.086 L46.746,21.293 C46.355,20.902 45.723,20.902 45.332,21.293 C44.941,21.684 44.941,22.316 45.332,22.707 L47.125,24.5 L45.332,26.293 C44.941,26.684 44.941,27.316 45.332,27.707 C45.527,27.902 45.783,28 46.039,28 C46.295,28 46.551,27.902 46.746,27.707 L48.539,25.914 L50.332,27.707 C50.527,27.902 50.783,28 51.039,28 C51.295,28 51.551,27.902 51.746,27.707 C52.137,27.316 52.137,26.684 51.746,26.293 L49.953,24.5" id="Fill-145" fill="#E6E6E6" sketch:type="MSShapeGroup"></path>
            <path d="M26.967,50.213 C25.893,50.213 24.889,49.8 24.14,49.05 C23.749,48.659 23.749,48.026 24.14,47.636 C24.53,47.246 25.163,47.246 25.554,47.636 C26.3,48.381 27.638,48.381 28.382,47.636 L40.528,35.489 C40.919,35.098 41.552,35.098 41.942,35.489 C42.333,35.879 42.333,36.512 41.942,36.903 L29.796,49.05 C29.046,49.8 28.041,50.213 26.967,50.213" id="Fill-146" fill="#B12621" sketch:type="MSShapeGroup"></path>
            <path d="M30.502,32.787 L36.126,27.163 L33.61,21.854 L29.402,24.554 L27.051,19.409 L22.843,22.11 L20.491,16.965 L16.283,19.665 L13.932,14.52 L9.724,17.221 L7.452,12.249 C7.423,12.185 7.331,12.189 7.306,12.255 L4.928,18.635 C3.964,21.223 5.28,24.102 7.867,25.067 C7.867,25.067 30.331,32.958 30.502,32.787" id="Fill-147" fill="#C7CBC7" sketch:type="MSShapeGroup"></path>
            <path d="M13.214,43.034 C13.091,43.034 12.966,43.011 12.845,42.962 L8.477,41.227 C7.963,41.023 7.713,40.442 7.916,39.929 C8.121,39.416 8.703,39.164 9.215,39.369 L13.583,41.104 C14.097,41.308 14.347,41.889 14.144,42.402 C13.987,42.794 13.611,43.034 13.214,43.034" id="Fill-148" fill="#FFFFFF" sketch:type="MSShapeGroup"></path>
            <path d="M21.462,50.537 C21.157,50.711 20.863,50.911 20.603,51.172 C19.041,52.734 19.041,55.266 20.603,56.828 C22.165,58.391 24.698,58.391 26.26,56.828 C27.247,55.841 27.606,54.468 27.346,53.195" id="Stroke-149" stroke="#C7CBC7" stroke-width="2" stroke-linecap="round" sketch:type="MSShapeGroup"></path>
        </g>
    </g>
</svg>