<?xml version="1.0" encoding="UTF-8" standalone="no"?>
<svg width="50px" height="50px" viewBox="0 0 50 50" version="1.1" xmlns="http://www.w3.org/2000/svg" xmlns:xlink="http://www.w3.org/1999/xlink" xmlns:sketch="http://www.bohemiancoding.com/sketch/ns">
    <!-- Generator: Sketch 3.2.2 (9983) - http://www.bohemiancoding.com/sketch -->
    <title>33 - Amonia Salt (Flat)</title>
    <desc>Created with Sketch.</desc>
    <defs></defs>
    <g id="Page-1" stroke="none" stroke-width="1" fill="none" fill-rule="evenodd" sketch:type="MSPage">
        <g id="33---Amonia-Salt-(Flat)" sketch:type="MSLayerGroup" fill="#CECECE">
            <path d="M48,23 L34.656,23 C32.874,23 31.982,20.846 33.242,19.586 L42.678,10.15 C43.459,9.369 43.459,8.103 42.678,7.322 C41.897,6.541 40.631,6.541 39.85,7.322 L30.414,16.758 C29.154,18.018 27,17.126 27,15.344 L27,2 C27,0.895 26.105,0 25,0 C23.895,0 23,0.895 23,2 L23,15.344 C23,17.126 20.846,18.018 19.586,16.758 L10.15,7.322 C9.369,6.541 8.103,6.541 7.322,7.322 C6.541,8.103 6.541,9.369 7.322,10.15 L16.758,19.586 C18.018,20.846 17.126,23 15.344,23 L2,23 C0.895,23 0,23.895 0,25 C0,26.105 0.895,27 2,27 L15.344,27 C17.126,27 18.018,29.154 16.758,30.414 L7.322,39.85 C6.541,40.631 6.541,41.897 7.322,42.678 C8.103,43.459 9.369,43.459 10.15,42.678 L19.586,33.242 C20.846,31.982 23,32.874 23,34.656 L23,48 C23,49.105 23.895,50 25,50 C26.105,50 27,49.105 27,48 L27,34.656 C27,32.874 29.154,31.982 30.414,33.242 L39.85,42.678 C40.631,43.459 41.897,43.459 42.678,42.678 C43.459,41.897 43.459,40.631 42.678,39.85 L33.242,30.414 C31.982,29.154 32.874,27 34.656,27 L48,27 C49.105,27 50,26.105 50,25 C50,23.895 49.105,23 48,23" id="Fill-41" sketch:type="MSShapeGroup"></path>
        </g>
    </g>
</svg>