<?xml version="1.0" encoding="UTF-8" standalone="no"?>
<svg width="40px" height="58px" viewBox="0 0 40 58" version="1.1" xmlns="http://www.w3.org/2000/svg" xmlns:xlink="http://www.w3.org/1999/xlink" xmlns:sketch="http://www.bohemiancoding.com/sketch/ns">
    <!-- Generator: Sketch 3.2.2 (9983) - http://www.bohemiancoding.com/sketch -->
    <title>44 - Antimony (Flat)</title>
    <desc>Created with Sketch.</desc>
    <defs></defs>
    <g id="Page-1" stroke="none" stroke-width="1" fill="none" fill-rule="evenodd" sketch:type="MSPage">
        <g id="44---Antimony-(Flat)" sketch:type="MSLayerGroup" transform="translate(-1.000000, 0.000000)" fill="#E64C3C">
            <path d="M23,18.101 L23,12 L29.202,12 C29.962,15.728 32.802,18.709 36.454,19.671 C37.736,20.009 39,19.066 39,17.74 C39,16.827 38.379,16.038 37.496,15.809 C34.913,15.14 33,12.789 33,10 C33,7.211 34.913,4.86 37.496,4.191 C38.379,3.962 39,3.173 39,2.26 C39,0.934 37.736,-0.01 36.454,0.328 C32.802,1.291 29.962,4.272 29.202,8 L23,8 L23,2 C23,0.895 22.105,0 21,0 C19.896,0 19,0.895 19,2 L19,8 L12.798,8 C12.038,4.272 9.198,1.291 5.546,0.328 C4.264,-0.01 3,0.934 3,2.26 C3,3.173 3.621,3.962 4.504,4.191 C7.087,4.86 9,7.211 9,10 C9,12.789 7.087,15.14 4.504,15.809 C3.621,16.038 3,16.827 3,17.74 C3,19.066 4.264,20.009 5.546,19.671 C9.198,18.709 12.038,15.728 12.798,12 L19,12 L19,18.101 C8.742,19.125 0.742,27.929 1.006,38.51 C1.265,48.821 9.602,57.417 19.901,57.97 C31.426,58.59 41,49.392 41,38 C41,27.647 33.093,19.108 23,18.101 L23,18.101 Z M21,54 C12.163,54 5,46.836 5,38 C5,29.163 12.163,22 21,22 C29.837,22 37,29.163 37,38 C37,46.836 29.837,54 21,54 L21,54 Z" id="Fill-38" sketch:type="MSShapeGroup"></path>
        </g>
    </g>
</svg>