<?xml version="1.0" encoding="UTF-8" standalone="no"?>
<svg width="52px" height="58px" viewBox="0 0 52 58" version="1.1" xmlns="http://www.w3.org/2000/svg" xmlns:xlink="http://www.w3.org/1999/xlink" xmlns:sketch="http://www.bohemiancoding.com/sketch/ns">
    <!-- Generator: Sketch 3.2.2 (9983) - http://www.bohemiancoding.com/sketch -->
    <title>94 - Beauty (Flat)</title>
    <desc>Created with Sketch.</desc>
    <defs></defs>
    <g id="Page-1" stroke="none" stroke-width="1" fill="none" fill-rule="evenodd" sketch:type="MSPage">
        <g id="94---Beauty-(Flat)" sketch:type="MSLayerGroup">
            <path d="M38.766,18 L34,18 L34,13.655 C34,13.471 33.963,13.297 33.907,13.132 C36.411,11.757 38,9.747 38,7.5 C38,3.358 32.627,0 26,0 C19.373,0 14,3.358 14,7.5 C14,10.009 15.979,12.225 19.007,13.586 C19.006,13.61 19,13.632 19,13.655 L19,18 L13.234,18 C5.955,18 0,23.955 0,31.234 L0,53.811 C0,55.897 1.514,57.769 3.59,57.979 C5.972,58.22 8,56.335 8,54 L8,33.804 C8,31.876 9.563,30.313 11.491,30.313 L11.5,30.313 C13.429,30.313 14.992,31.874 14.991,33.803 C14.984,42.751 15,54 15,54 C15,55.925 16.575,57.5 18.5,57.5 C20.425,57.5 22,55.925 22,54 C22,54 22.015,42.977 22.009,34 C22.008,32.109 23.423,30.417 25.311,30.318 C27.326,30.212 28.992,31.811 28.991,33.803 C28.984,42.751 29,54 29,54 C29,55.925 30.575,57.5 32.5,57.5 C34.425,57.5 36,55.925 36,54 C36,54 36.016,42.751 36.009,33.803 C36.008,31.874 37.571,30.313 39.5,30.313 L40.509,30.313 C42.437,30.313 44,31.876 44,33.804 L44,53.811 C44,55.897 45.514,57.769 47.59,57.979 C49.972,58.22 52,56.335 52,54 L52,31.234 C52,23.955 46.045,18 38.766,18" id="Fill-51" fill="#7F5B53" sketch:type="MSShapeGroup"></path>
            <path d="M19.468,1.213 C19.17,1.769 19,2.37 19,3 C19,5.761 22.134,8 26,8 C29.866,8 33,5.761 33,3 C33,2.37 32.83,1.769 32.532,1.213 C30.651,0.449 28.411,0 26,0 C23.589,0 21.349,0.449 19.468,1.213" id="Fill-211" fill="#E4C05C" sketch:type="MSShapeGroup"></path>
        </g>
    </g>
</svg>