<?xml version="1.0" encoding="UTF-8" standalone="no"?>
<svg width="56px" height="56px" viewBox="0 0 56 56" version="1.1" xmlns="http://www.w3.org/2000/svg" xmlns:xlink="http://www.w3.org/1999/xlink" xmlns:sketch="http://www.bohemiancoding.com/sketch/ns">
    <!-- Generator: Sketch 3.2.2 (9983) - http://www.bohemiancoding.com/sketch -->
    <title>3 - Capricorn (Flat)</title>
    <desc>Created with Sketch.</desc>
    <defs></defs>
    <g id="Page-1" stroke="none" stroke-width="1" fill="none" fill-rule="evenodd" sketch:type="MSPage">
        <g id="3---Capricorn-(Flat)" sketch:type="MSLayerGroup">
            <path d="M56,28 C56,43.464 43.464,56 28,56 C12.536,56 0,43.464 0,28 C0,12.536 12.536,0 28,0 C43.464,0 56,12.536 56,28" id="Fill-17" fill="#B49ACA" sketch:type="MSShapeGroup"></path>
            <path d="M22,38 C21.447,38 21,37.553 21,37 L21,18 C21,15.459 18.968,13.615 16.167,13.615 C13.627,13.615 11,15.255 11,18 C11,18.553 10.553,19 10,19 C9.447,19 9,18.553 9,18 C9,14.42 12.148,11.615 16.167,11.615 C20.063,11.615 23,14.36 23,18 L23,37 C23,37.553 22.553,38 22,38" id="Fill-29" fill="#EDEDED" sketch:type="MSShapeGroup"></path>
            <path d="M34,38 C33.447,38 33,37.553 33,37 L33,18 C33,15.459 30.968,13.615 28.167,13.615 C25.627,13.615 23,15.255 23,18 C23,18.553 22.553,19 22,19 C21.447,19 21,18.553 21,18 C21,14.42 24.148,11.615 28.167,11.615 C32.063,11.615 35,14.36 35,18 L35,37 C35,37.553 34.553,38 34,38" id="Fill-30" fill="#EDEDED" sketch:type="MSShapeGroup"></path>
            <path d="M40,44 C36.141,44 33,40.859 33,37 C33,33.141 36.141,30 40,30 C43.859,30 47,33.141 47,37 C47,40.859 43.859,44 40,44 L40,44 Z M40,32 C37.243,32 35,34.243 35,37 C35,39.757 37.243,42 40,42 C42.757,42 45,39.757 45,37 C45,34.243 42.757,32 40,32 L40,32 Z" id="Fill-44" fill="#EDEDED" sketch:type="MSShapeGroup"></path>
            <path d="M24,46 C23.447,46 23,45.553 23,45 C23,44.447 23.447,44 24,44 C32.123,44 33,39.104 33,37 C33,36.447 33.447,36 34,36 C34.553,36 35,36.447 35,37 C35,41.351 32.11,46 24,46" id="Fill-45" fill="#EDEDED" sketch:type="MSShapeGroup"></path>
        </g>
    </g>
</svg>