<?xml version="1.0" encoding="UTF-8" standalone="no"?>
<svg width="55px" height="56px" viewBox="0 0 55 56" version="1.1" xmlns="http://www.w3.org/2000/svg" xmlns:xlink="http://www.w3.org/1999/xlink" xmlns:sketch="http://www.bohemiancoding.com/sketch/ns">
    <!-- Generator: Sketch 3.2.2 (9983) - http://www.bohemiancoding.com/sketch -->
    <title>83 - Commitment (Flat)</title>
    <desc>Created with Sketch.</desc>
    <defs></defs>
    <g id="Page-1" stroke="none" stroke-width="1" fill="none" fill-rule="evenodd" sketch:type="MSPage">
        <g id="83---Commitment-(Flat)" sketch:type="MSLayerGroup">
            <path d="M13.5,0 C6.056,0 0,6.056 0,13.5 C0,20.944 6.056,27 13.5,27 C20.944,27 27,20.944 27,13.5 C27,6.056 20.944,0 13.5,0 L13.5,0 Z M13.5,23 C8.253,23 4,18.747 4,13.5 C4,8.253 8.253,4 13.5,4 C18.747,4 23,8.253 23,13.5 C23,18.747 18.747,23 13.5,23 L13.5,23 Z" id="Fill-108" fill="#7F5B53" sketch:type="MSShapeGroup"></path>
            <path d="M15.334,7.31 C15.566,7.391 15.791,7.482 16,7.591 L16,4.344 C15.202,4.126 14.367,4 13.5,4 C12.633,4 11.798,4.126 11,4.344 L11,7.591 C11.209,7.482 11.434,7.391 11.666,7.31 C10.097,7.856 9,9.076 9,10.5 C9,12.433 11.015,14 13.5,14 C15.985,14 18,12.433 18,10.5 C18,9.076 16.903,7.856 15.334,7.31 L15.334,7.31 Z M12.685,7.064 C12.951,7.026 13.221,7 13.5,7 C13.779,7 14.049,7.026 14.314,7.064 C14.049,7.026 13.779,7 13.5,7 C13.221,7 12.95,7.026 12.685,7.064 L12.685,7.064 Z M11.9,7.238 C12.077,7.186 12.258,7.142 12.445,7.107 C12.259,7.142 12.077,7.186 11.9,7.238 L11.9,7.238 Z M15.1,7.238 C14.923,7.186 14.741,7.142 14.555,7.107 C14.741,7.142 14.923,7.186 15.1,7.238 L15.1,7.238 Z" id="Fill-109" fill="#E4C05C" sketch:type="MSShapeGroup"></path>
            <path d="M41.5,0 C34.056,0 28,6.056 28,13.5 C28,20.944 34.056,27 41.5,27 C48.944,27 55,20.944 55,13.5 C55,6.056 48.944,0 41.5,0 L41.5,0 Z M41.5,23 C36.253,23 32,18.747 32,13.5 C32,8.253 36.253,4 41.5,4 C46.747,4 51,8.253 51,13.5 C51,18.747 46.747,23 41.5,23 L41.5,23 Z" id="Fill-110" fill="#7F5B53" sketch:type="MSShapeGroup"></path>
            <path d="M43.334,7.31 C43.566,7.391 43.791,7.482 44,7.591 L44,4.344 C43.202,4.126 42.367,4 41.5,4 C40.633,4 39.798,4.126 39,4.344 L39,7.591 C39.209,7.482 39.434,7.391 39.666,7.31 C38.097,7.856 37,9.076 37,10.5 C37,12.433 39.015,14 41.5,14 C43.985,14 46,12.433 46,10.5 C46,9.076 44.903,7.856 43.334,7.31 L43.334,7.31 Z M40.685,7.064 C40.951,7.026 41.221,7 41.5,7 C41.779,7 42.049,7.026 42.315,7.064 C42.049,7.026 41.779,7 41.5,7 C41.221,7 40.951,7.026 40.685,7.064 L40.685,7.064 Z M39.9,7.238 C40.077,7.186 40.258,7.142 40.445,7.107 C40.259,7.142 40.077,7.186 39.9,7.238 L39.9,7.238 Z M43.1,7.238 C42.923,7.186 42.741,7.142 42.555,7.107 C42.741,7.142 42.923,7.186 43.1,7.238 L43.1,7.238 Z" id="Fill-111" fill="#E4C05C" sketch:type="MSShapeGroup"></path>
            <path d="M13.5,29 C6.056,29 0,35.056 0,42.5 C0,49.944 6.056,56 13.5,56 C20.944,56 27,49.944 27,42.5 C27,35.056 20.944,29 13.5,29 L13.5,29 Z M13.5,52 C8.253,52 4,47.747 4,42.5 C4,37.253 8.253,33 13.5,33 C18.747,33 23,37.253 23,42.5 C23,47.747 18.747,52 13.5,52 L13.5,52 Z" id="Fill-112" fill="#7F5B53" sketch:type="MSShapeGroup"></path>
            <path d="M15.334,36.31 C15.566,36.391 15.791,36.482 16,36.591 L16,33.344 C15.202,33.126 14.367,33 13.5,33 C12.633,33 11.798,33.126 11,33.344 L11,36.591 C11.209,36.482 11.434,36.391 11.666,36.31 C10.097,36.856 9,38.076 9,39.5 C9,41.433 11.015,43 13.5,43 C15.985,43 18,41.433 18,39.5 C18,38.076 16.903,36.856 15.334,36.31 L15.334,36.31 Z M12.685,36.064 C12.951,36.026 13.221,36 13.5,36 C13.779,36 14.049,36.026 14.314,36.064 C14.049,36.026 13.779,36 13.5,36 C13.221,36 12.95,36.026 12.685,36.064 L12.685,36.064 Z M11.9,36.238 C12.077,36.186 12.258,36.142 12.445,36.107 C12.259,36.142 12.077,36.186 11.9,36.238 L11.9,36.238 Z M15.1,36.238 C14.923,36.186 14.741,36.142 14.555,36.107 C14.741,36.142 14.923,36.186 15.1,36.238 L15.1,36.238 Z" id="Fill-113" fill="#E4C05C" sketch:type="MSShapeGroup"></path>
            <path d="M41.5,29 C34.056,29 28,35.056 28,42.5 C28,49.944 34.056,56 41.5,56 C48.944,56 55,49.944 55,42.5 C55,35.056 48.944,29 41.5,29 L41.5,29 Z M41.5,52 C36.253,52 32,47.747 32,42.5 C32,37.253 36.253,33 41.5,33 C46.747,33 51,37.253 51,42.5 C51,47.747 46.747,52 41.5,52 L41.5,52 Z" id="Fill-114" fill="#7F5B53" sketch:type="MSShapeGroup"></path>
            <path d="M43.334,36.31 C43.566,36.391 43.791,36.482 44,36.591 L44,33.344 C43.202,33.126 42.367,33 41.5,33 C40.633,33 39.798,33.126 39,33.344 L39,36.591 C39.209,36.482 39.434,36.391 39.666,36.31 C38.097,36.856 37,38.076 37,39.5 C37,41.433 39.015,43 41.5,43 C43.985,43 46,41.433 46,39.5 C46,38.076 44.903,36.856 43.334,36.31 L43.334,36.31 Z M40.685,36.064 C40.951,36.026 41.221,36 41.5,36 C41.779,36 42.049,36.026 42.315,36.064 C42.049,36.026 41.779,36 41.5,36 C41.221,36 40.951,36.026 40.685,36.064 L40.685,36.064 Z M39.9,36.238 C40.077,36.186 40.258,36.142 40.445,36.107 C40.259,36.142 40.077,36.186 39.9,36.238 L39.9,36.238 Z M43.1,36.238 C42.923,36.186 42.741,36.142 42.555,36.107 C42.741,36.142 42.923,36.186 43.1,36.238 L43.1,36.238 Z" id="Fill-115" fill="#E4C05C" sketch:type="MSShapeGroup"></path>
        </g>
    </g>
</svg>