<?xml version="1.0" encoding="UTF-8" standalone="no"?>
<svg width="45px" height="57px" viewBox="0 0 45 57" version="1.1" xmlns="http://www.w3.org/2000/svg" xmlns:xlink="http://www.w3.org/1999/xlink" xmlns:sketch="http://www.bohemiancoding.com/sketch/ns">
    <!-- Generator: Sketch 3.2.2 (9983) - http://www.bohemiancoding.com/sketch -->
    <title>71 - Devotion (Flat)</title>
    <desc>Created with Sketch.</desc>
    <defs></defs>
    <g id="Page-1" stroke="none" stroke-width="1" fill="none" fill-rule="evenodd" sketch:type="MSPage">
        <g id="71---Devotion-(Flat)" sketch:type="MSLayerGroup">
            <path d="M23.238,5.391 C23.238,5.391 27.317,5.219 32,6.228 C30.999,2.649 27.707,0 23.819,0 C20.015,0 16.774,2.533 15.699,5.996 C19.84,5.265 23.238,5.391 23.238,5.391" id="Fill-1" fill="#559A92" sketch:type="MSShapeGroup"></path>
            <path d="M44.011,13.384 C39.106,4.04 22.918,4.728 22.918,4.728 C22.918,4.728 6.481,4.103 1.825,13.384 C0.385,16.256 0.67,19.696 1.91,22.659 C4.959,29.943 13.577,48.793 22.014,56 C22.539,56.448 23.489,56.448 24.014,56 C32.45,48.793 40.878,29.943 43.926,22.659 C45.167,19.696 45.505,16.229 44.011,13.384" id="Fill-158" fill="#556080" sketch:type="MSShapeGroup"></path>
            <path d="M23.572,49.813 C23.348,50.062 22.957,50.062 22.733,49.813 C16.804,43.205 10.789,30.739 6.662,20.877 C5.868,18.98 5.783,17.073 6.434,15.775 C8.773,11.112 17.577,9.868 22.41,9.868 C22.677,9.868 22.841,9.871 22.879,9.873 L23.068,9.879 L23.27,9.871 C23.301,9.871 23.49,9.865 23.799,9.865 C29.693,9.865 37.401,11.434 39.724,15.857 C40.361,17.072 40.26,18.949 39.453,20.878 C35.327,30.739 29.514,43.206 23.572,49.813" id="Fill-159" fill="#559A92" sketch:type="MSShapeGroup"></path>
            <path d="M14.781,53.212 C14.206,52.569 13.296,52.397 12.494,52.717 C11.443,53.135 10.214,53.106 9.09,52.523 C8.172,52.047 7.477,51.186 7.187,50.193 C6.546,47.992 9.392,44.695 11.256,44 C11.641,43.856 11.966,43.613 12.21,43.31 C11.58,42.258 10.964,41.191 10.366,40.12 C10.249,40.138 10.131,40.155 10.014,40.196 C6.375,41.469 2.292,46.552 3.206,50.775 C3.751,53.296 5.551,55.443 7.945,56.402 C10.03,57.237 12.232,57.171 14.13,56.369 C15.369,55.845 15.68,54.218 14.784,53.215 L14.781,53.212" id="Fill-160" fill="#559A92" sketch:type="MSShapeGroup"></path>
            <path d="M35.487,40.274 C34.849,41.429 34.189,42.578 33.514,43.708 C33.678,43.826 33.859,43.927 34.056,44 C35.92,44.695 38.766,47.992 38.125,50.193 C37.836,51.186 37.14,52.047 36.222,52.523 C35.098,53.106 33.869,53.135 32.818,52.717 C32.016,52.397 31.106,52.569 30.531,53.212 L30.528,53.215 C29.632,54.218 29.943,55.845 31.182,56.369 C33.08,57.171 35.282,57.237 37.367,56.402 C39.761,55.443 41.561,53.296 42.106,50.775 C43.004,46.625 39.077,41.653 35.487,40.274" id="Fill-161" fill="#559A92" sketch:type="MSShapeGroup"></path>
            <path d="M28.153,15.148 C26.946,15.148 25.407,15.511 24.153,16.147 L24.153,10.148 C24.153,10.049 24.124,9.96 24.097,9.87 C23.998,9.869 23.897,9.865 23.799,9.865 C23.49,9.865 23.301,9.87 23.27,9.871 L23.068,9.879 L22.879,9.873 C22.841,9.871 22.677,9.868 22.41,9.868 C22.346,9.868 22.275,9.87 22.209,9.871 C22.183,9.961 22.153,10.05 22.153,10.148 L22.153,16.148 C20.899,15.511 19.36,15.148 18.153,15.148 C14.845,15.148 12.153,17.84 12.153,21.148 C12.153,24.457 14.845,27.148 18.153,27.148 C18.706,27.148 19.153,26.7 19.153,26.148 C19.153,25.596 18.706,25.148 18.153,25.148 C15.948,25.148 14.153,23.354 14.153,21.148 C14.153,18.943 15.948,17.148 18.153,17.148 C19.429,17.148 21.329,17.744 22.153,18.543 L22.153,49.132 C22.347,49.36 22.54,49.597 22.733,49.813 C22.957,50.062 23.348,50.062 23.572,49.813 C23.766,49.597 23.959,49.359 24.153,49.131 L24.153,18.542 C24.976,17.744 26.876,17.148 28.153,17.148 C30.359,17.148 32.153,18.943 32.153,21.148 C32.153,23.354 30.359,25.148 28.153,25.148 C27.601,25.148 27.153,25.596 27.153,26.148 C27.153,26.7 27.601,27.148 28.153,27.148 C31.462,27.148 34.153,24.457 34.153,21.148 C34.153,17.84 31.462,15.148 28.153,15.148" id="Fill-245" fill="#81CCB8" sketch:type="MSShapeGroup"></path>
        </g>
    </g>
</svg>