<?xml version="1.0" encoding="UTF-8" standalone="no"?>
<svg width="58px" height="58px" viewBox="0 0 58 58" version="1.1" xmlns="http://www.w3.org/2000/svg" xmlns:xlink="http://www.w3.org/1999/xlink" xmlns:sketch="http://www.bohemiancoding.com/sketch/ns">
    <!-- Generator: Sketch 3.2.2 (9983) - http://www.bohemiancoding.com/sketch -->
    <title>40 - Distilled Vinegar (Flat)</title>
    <desc>Created with Sketch.</desc>
    <defs></defs>
    <g id="Page-1" stroke="none" stroke-width="1" fill="none" fill-rule="evenodd" sketch:type="MSPage">
        <g id="40---Distilled-Vinegar-(Flat)" sketch:type="MSLayerGroup" transform="translate(-1.000000, -1.000000)">
            <path d="M24,38 C24,39.657 22.657,41 21,41 C19.343,41 18,39.657 18,38 C18,36.343 19.343,35 21,35 C22.657,35 24,36.343 24,38" id="Fill-32" fill="#4FBA6F" sketch:type="MSShapeGroup"></path>
            <path d="M24,20 C24,21.657 22.657,23 21,23 C19.343,23 18,21.657 18,20 C18,18.343 19.343,17 21,17 C22.657,17 24,18.343 24,20" id="Fill-33" fill="#4FBA6F" sketch:type="MSShapeGroup"></path>
            <path d="M42,20 C42,21.657 40.657,23 39,23 C37.343,23 36,21.657 36,20 C36,18.343 37.343,17 39,17 C40.657,17 42,18.343 42,20" id="Fill-34" fill="#4FBA6F" sketch:type="MSShapeGroup"></path>
            <path d="M42,38 C42,39.657 40.657,41 39,41 C37.343,41 36,39.657 36,38 C36,36.343 37.343,35 39,35 C40.657,35 42,36.343 42,38" id="Fill-35" fill="#4FBA6F" sketch:type="MSShapeGroup"></path>
            <path d="M56.893,27 L32.773,27 C32.346,27 32,26.654 32,26.227 L32,3.107 C32,2.111 31.319,1.187 30.336,1.027 C29.083,0.823 28,1.785 28,3 L28,26.227 C28,26.654 27.654,27 27.227,27 L3.107,27 C2.111,27 1.187,27.681 1.027,28.664 C0.824,29.917 1.785,31 3,31 L27.227,31 C27.654,31 28,31.346 28,31.773 L28,56.893 C28,57.889 28.681,58.813 29.664,58.973 C30.917,59.177 32,58.215 32,57 L32,31.773 C32,31.346 32.346,31 32.773,31 L57,31 C58.215,31 59.177,29.917 58.973,28.664 C58.813,27.681 57.889,27 56.893,27" id="Fill-54" fill="#527F72" sketch:type="MSShapeGroup"></path>
        </g>
    </g>
</svg>