<?xml version="1.0" encoding="UTF-8" standalone="no"?>
<svg width="57px" height="51px" viewBox="0 0 57 51" version="1.1" xmlns="http://www.w3.org/2000/svg" xmlns:xlink="http://www.w3.org/1999/xlink" xmlns:sketch="http://www.bohemiancoding.com/sketch/ns">
    <!-- Generator: Sketch 3.2.2 (9983) - http://www.bohemiancoding.com/sketch -->
    <title>99 - Encouragement (Flat)</title>
    <desc>Created with Sketch.</desc>
    <defs></defs>
    <g id="Page-1" stroke="none" stroke-width="1" fill="none" fill-rule="evenodd" sketch:type="MSPage">
        <g id="99---Encouragement-(Flat)" sketch:type="MSLayerGroup">
            <path d="M30,51 L57,51 L57,27 L52,27 L52,46 L30,46 L30,51" id="Fill-20" fill="#7F5B53" sketch:type="MSShapeGroup"></path>
            <path d="M25,46 L5,46 L5,27 L0,27 L0,51 L25,51 L25,46" id="Fill-21" fill="#7F5B53" sketch:type="MSShapeGroup"></path>
            <path d="M30,0 L57,0 L57,22 L52,22 L52,5 L30,5 L30,0" id="Fill-22" fill="#7F5B53" sketch:type="MSShapeGroup"></path>
            <path d="M25,5 L5,5 L5,22 L0,22 L0,0 L25,0 L25,5" id="Fill-23" fill="#7F5B53" sketch:type="MSShapeGroup"></path>
            <path d="M10,22 L26,22 L26,27 L10,27 L10,22 Z" id="Fill-26" fill="#AF8066" sketch:type="MSShapeGroup"></path>
            <path d="M31,22 L47,22 L47,27 L31,27 L31,22 Z" id="Fill-27" fill="#AF8066" sketch:type="MSShapeGroup"></path>
        </g>
    </g>
</svg>