<?xml version="1.0" encoding="UTF-8" standalone="no"?>
<svg width="56px" height="56px" viewBox="0 0 56 56" version="1.1" xmlns="http://www.w3.org/2000/svg" xmlns:xlink="http://www.w3.org/1999/xlink" xmlns:sketch="http://www.bohemiancoding.com/sketch/ns">
    <!-- Generator: Sketch 3.2.2 (9983) - http://www.bohemiancoding.com/sketch -->
    <title>103 - Excellence (Flat)</title>
    <desc>Created with Sketch.</desc>
    <defs></defs>
    <g id="Page-1" stroke="none" stroke-width="1" fill="none" fill-rule="evenodd" sketch:type="MSPage">
        <g id="103---Excellence-(Flat)" sketch:type="MSLayerGroup">
            <path d="M32,56 L32,43 L24,43 L24,56 L0,56 L0,32 L13,32 L13,24 L0,24 L0,0 L24,0 L24,13 L32,13 L32,0 L56,0 L56,24 L43,24 L43,32 L56,32 L56,56 L32,56" id="Fill-10" fill="#C3A97E" sketch:type="MSShapeGroup"></path>
            <path d="M52,20 L52,4 L36,4 L36,17 L20,17 L20,4 L4,4 L4,20 L17,20 L17,36 L4,36 L4,52 L20,52 L20,39 L36,39 L36,52 L52,52 L52,36 L39,36 L39,20 L52,20" id="Fill-11" fill="#AF8066" sketch:type="MSShapeGroup"></path>
            <path d="M29,27 L29,17 L27,17 L27,27 L17,27 L17,29 L27,29 L27,39 L29,39 L29,29 L39,29 L39,27 L29,27" id="Fill-12" fill="#E4C05C" sketch:type="MSShapeGroup"></path>
        </g>
    </g>
</svg>