<?xml version="1.0" encoding="UTF-8" standalone="no"?>
<svg width="58px" height="58px" viewBox="0 0 58 58" version="1.1" xmlns="http://www.w3.org/2000/svg" xmlns:xlink="http://www.w3.org/1999/xlink" xmlns:sketch="http://www.bohemiancoding.com/sketch/ns">
    <!-- Generator: Sketch 3.2.2 (9983) - http://www.bohemiancoding.com/sketch -->
    <title>78 - Fortitude (Flat)</title>
    <desc>Created with Sketch.</desc>
    <defs></defs>
    <g id="Page-1" stroke="none" stroke-width="1" fill="none" fill-rule="evenodd" sketch:type="MSPage">
        <g id="78---Fortitude-(Flat)" sketch:type="MSLayerGroup">
            <path d="M0,0 L58,0 L58,58 L0,58 L0,0 Z" id="Fill-25" fill="#CB8252" sketch:type="MSShapeGroup"></path>
            <path d="M0,0 L29,29 L58,0 L0,0" id="Fill-144" fill="#804537" sketch:type="MSShapeGroup"></path>
            <path d="M58,58 L29,29 L0,58 L58,58" id="Fill-145" fill="#804537" sketch:type="MSShapeGroup"></path>
            <path d="M48.343,54 L9.657,54 C9.104,54 8.657,53.552 8.657,53 C8.657,52.448 9.104,52 9.657,52 L48.343,52 C48.895,52 49.343,52.448 49.343,53 C49.343,53.552 48.895,54 48.343,54" id="Fill-232" fill="#CBB292" sketch:type="MSShapeGroup"></path>
            <path d="M31,36 L27,36 C26.447,36 26,35.552 26,35 C26,34.448 26.447,34 27,34 L31,34 C31.553,34 32,34.448 32,35 C32,35.552 31.553,36 31,36" id="Fill-233" fill="#CBB292" sketch:type="MSShapeGroup"></path>
            <path d="M36,42 L22,42 C21.447,42 21,41.552 21,41 C21,40.448 21.447,40 22,40 L36,40 C36.553,40 37,40.448 37,41 C37,41.552 36.553,42 36,42" id="Fill-234" fill="#CBB292" sketch:type="MSShapeGroup"></path>
            <path d="M42,48 L16,48 C15.447,48 15,47.552 15,47 C15,46.448 15.447,46 16,46 L42,46 C42.553,46 43,46.448 43,47 C43,47.552 42.553,48 42,48" id="Fill-235" fill="#CBB292" sketch:type="MSShapeGroup"></path>
            <path d="M48.343,6 L9.657,6 C9.104,6 8.657,5.552 8.657,5 C8.657,4.448 9.104,4 9.657,4 L48.343,4 C48.895,4 49.343,4.448 49.343,5 C49.343,5.552 48.895,6 48.343,6" id="Fill-236" fill="#CBB292" sketch:type="MSShapeGroup"></path>
            <path d="M31,24 L27,24 C26.447,24 26,23.552 26,23 C26,22.448 26.447,22 27,22 L31,22 C31.553,22 32,22.448 32,23 C32,23.552 31.553,24 31,24" id="Fill-237" fill="#CBB292" sketch:type="MSShapeGroup"></path>
            <path d="M36,18 L22,18 C21.447,18 21,17.552 21,17 C21,16.448 21.447,16 22,16 L36,16 C36.553,16 37,16.448 37,17 C37,17.552 36.553,18 36,18" id="Fill-238" fill="#CBB292" sketch:type="MSShapeGroup"></path>
            <path d="M42,12 L16,12 C15.447,12 15,11.552 15,11 C15,10.448 15.447,10 16,10 L42,10 C42.553,10 43,10.448 43,11 C43,11.552 42.553,12 42,12" id="Fill-239" fill="#CBB292" sketch:type="MSShapeGroup"></path>
        </g>
    </g>
</svg>