<?xml version="1.0" encoding="UTF-8" standalone="no"?>
<svg width="50px" height="58px" viewBox="0 0 50 58" version="1.1" xmlns="http://www.w3.org/2000/svg" xmlns:xlink="http://www.w3.org/1999/xlink" xmlns:sketch="http://www.bohemiancoding.com/sketch/ns">
    <!-- Generator: Sketch 3.2.2 (9983) - http://www.bohemiancoding.com/sketch -->
    <title>87 - Freedom (Flat)</title>
    <desc>Created with Sketch.</desc>
    <defs></defs>
    <g id="Page-1" stroke="none" stroke-width="1" fill="none" fill-rule="evenodd" sketch:type="MSPage">
        <g id="87---Freedom-(Flat)" sketch:type="MSLayerGroup">
            <path d="M34.91,31.267 C34.897,31.256 34.884,31.244 34.872,31.233 C33.582,30.085 33.582,28.144 34.872,26.996 C34.884,26.985 34.897,26.973 34.91,26.962 L46.69,16.361 C48.778,14.482 50.022,11.763 49.807,8.961 C49.544,5.532 47.41,2.656 44.276,1.402 C42.992,0.889 41.625,0.686 40.233,0.803 C38.221,0.974 36.347,1.906 34.846,3.257 L25.558,11.618 C25.36,11.794 25.146,11.831 25,11.831 C24.854,11.831 24.64,11.794 24.443,11.618 L15.115,3.222 C13.687,1.937 11.917,1.038 10.007,0.827 C7.906,0.594 5.854,1.091 4.046,2.283 C2.676,3.186 1.578,4.486 0.929,5.993 C-0.642,9.641 0.289,13.642 3.095,16.167 L15.09,26.962 C15.103,26.973 15.115,26.985 15.128,26.996 C16.418,28.144 16.418,30.085 15.128,31.233 C15.115,31.244 15.103,31.256 15.09,31.267 L3.31,41.868 C1.222,43.747 -0.022,46.466 0.193,49.267 C0.456,52.696 2.59,55.573 5.724,56.827 C7.008,57.34 8.375,57.543 9.767,57.426 C11.779,57.255 13.653,56.323 15.154,54.972 L24.442,46.611 C24.64,46.435 24.854,46.397 25,46.397 C25.146,46.397 25.36,46.435 25.557,46.611 L34.885,55.007 C36.313,56.292 38.083,57.19 39.993,57.402 C42.094,57.635 44.146,57.138 45.954,55.946 C47.324,55.043 48.422,53.743 49.071,52.236 C50.642,48.588 49.711,44.587 46.905,42.062 L34.91,31.267" id="Fill-154" fill="#C3A97E" sketch:type="MSShapeGroup"></path>
            <path d="M42.792,5.117 C41.082,4.433 39.133,4.78 37.765,6.011 L28.232,14.591 C26.395,16.245 23.605,16.245 21.768,14.591 L12.235,6.011 C10.867,4.78 8.917,4.433 7.208,5.117 C3.886,6.446 3.111,10.8 5.771,13.194 L17.765,23.989 C17.967,24.17 18.185,24.327 18.409,24.469 C19.852,22.375 22.265,21 25,21 C27.735,21 30.148,22.375 31.591,24.469 C31.815,24.327 32.033,24.17 32.235,23.989 L44.229,13.194 C46.889,10.8 46.114,6.446 42.792,5.117" id="Fill-155" fill="#7F5B53" sketch:type="MSShapeGroup"></path>
            <path d="M44.229,45.035 L32.235,34.24 C31.998,34.027 31.739,33.85 31.471,33.691 C30.017,35.693 27.664,37 25,37 C22.336,37 19.983,35.693 18.529,33.691 C18.261,33.85 18.002,34.027 17.765,34.24 L5.771,45.035 C3.111,47.429 3.886,51.783 7.208,53.112 C8.917,53.796 10.867,53.449 12.235,52.218 L21.768,43.638 C23.605,41.984 26.395,41.984 28.232,43.638 L37.765,52.218 C39.133,53.449 41.082,53.796 42.792,53.112 C46.114,51.783 46.889,47.429 44.229,45.035" id="Fill-156" fill="#7F5B53" sketch:type="MSShapeGroup"></path>
        </g>
    </g>
</svg>