<?xml version="1.0" encoding="UTF-8" standalone="no"?>
<svg width="56px" height="58px" viewBox="0 0 56 58" version="1.1" xmlns="http://www.w3.org/2000/svg" xmlns:xlink="http://www.w3.org/1999/xlink" xmlns:sketch="http://www.bohemiancoding.com/sketch/ns">
    <!-- Generator: Sketch 3.2.2 (9983) - http://www.bohemiancoding.com/sketch -->
    <title>92 - Friendship (Flat)</title>
    <desc>Created with Sketch.</desc>
    <defs></defs>
    <g id="Page-1" stroke="none" stroke-width="1" fill="none" fill-rule="evenodd" sketch:type="MSPage">
        <g id="92---Friendship-(Flat)" sketch:type="MSLayerGroup">
            <path d="M39.5,4 C34.552,4 30.026,9.658 28,18 C25.974,9.658 21.948,4 17,4 C10.096,4 4.5,15.193 4.5,29 C4.5,42.807 10.096,54 17,54 C21.948,54 25.974,48.342 28,40 C30.026,48.342 34.552,54 39.5,54 C46.404,54 52,42.807 52,29 C52,15.193 46.404,4 39.5,4" id="Fill-6" fill="#AF8066" sketch:type="MSShapeGroup"></path>
            <path d="M39.5,0 C35.115,0 30.989,3.28 28.088,7.859 C28.047,7.925 27.953,7.925 27.911,7.859 C25.021,3.28 21.385,0 17,0 C7.594,0 0.5,12.467 0.5,29 C0.5,45.533 7.594,58 17,58 C21.385,58 25.021,54.72 27.911,50.141 C27.953,50.075 28.047,50.075 28.088,50.141 C30.989,54.719 35.115,58 39.5,58 C48.906,58 56,45.533 56,29 C56,12.467 48.906,0 39.5,0 L39.5,0 Z M39.5,54 C34.552,54 30.026,48.342 28,40 C25.974,48.342 21.948,54 17,54 C10.096,54 4.5,42.807 4.5,29 C4.5,15.193 10.096,4 17,4 C21.948,4 25.974,9.658 28,18 C30.026,9.658 34.552,4 39.5,4 C46.404,4 52,15.193 52,29 C52,42.807 46.404,54 39.5,54 L39.5,54 Z" id="Fill-7" fill="#7F5B53" sketch:type="MSShapeGroup"></path>
            <path d="M27,17 L29,17 L29,41 L27,41 L27,17 Z" id="Fill-60" fill="#E4C05C" sketch:type="MSShapeGroup"></path>
            <path d="M20,17 L36,17 L36,19 L20,19 L20,17 Z" id="Fill-61" fill="#E4C05C" sketch:type="MSShapeGroup"></path>
            <path d="M21,28 L35,28 L35,30 L21,30 L21,28 Z" id="Fill-62" fill="#E4C05C" sketch:type="MSShapeGroup"></path>
            <path d="M21,18 C21,20.209 19.209,22 17,22 C14.791,22 13,20.209 13,18 C13,15.791 14.791,14 17,14 C19.209,14 21,15.791 21,18" id="Fill-63" fill="#E4C05C" sketch:type="MSShapeGroup"></path>
            <path d="M43,18 C43,20.209 41.209,22 39,22 C36.791,22 35,20.209 35,18 C35,15.791 36.791,14 39,14 C41.209,14 43,15.791 43,18" id="Fill-64" fill="#E4C05C" sketch:type="MSShapeGroup"></path>
            <path d="M20,28 L36,28 L36,30 L20,30 L20,28 Z" id="Fill-65" fill="#E4C05C" sketch:type="MSShapeGroup"></path>
            <path d="M21,29 C21,31.209 19.209,33 17,33 C14.791,33 13,31.209 13,29 C13,26.791 14.791,25 17,25 C19.209,25 21,26.791 21,29" id="Fill-66" fill="#E4C05C" sketch:type="MSShapeGroup"></path>
            <path d="M43,29 C43,31.209 41.209,33 39,33 C36.791,33 35,31.209 35,29 C35,26.791 36.791,25 39,25 C41.209,25 43,26.791 43,29" id="Fill-67" fill="#E4C05C" sketch:type="MSShapeGroup"></path>
            <path d="M19,39 L37,39 L37,41 L19,41 L19,39 Z" id="Fill-68" fill="#E4C05C" sketch:type="MSShapeGroup"></path>
            <path d="M21,40 C21,42.209 19.209,44 17,44 C14.791,44 13,42.209 13,40 C13,37.791 14.791,36 17,36 C19.209,36 21,37.791 21,40" id="Fill-69" fill="#E4C05C" sketch:type="MSShapeGroup"></path>
            <path d="M43,40 C43,42.209 41.209,44 39,44 C36.791,44 35,42.209 35,40 C35,37.791 36.791,36 39,36 C41.209,36 43,37.791 43,40" id="Fill-70" fill="#E4C05C" sketch:type="MSShapeGroup"></path>
        </g>
    </g>
</svg>