<?xml version="1.0" encoding="UTF-8" standalone="no"?>
<svg width="52px" height="46px" viewBox="0 0 52 46" version="1.1" xmlns="http://www.w3.org/2000/svg" xmlns:xlink="http://www.w3.org/1999/xlink" xmlns:sketch="http://www.bohemiancoding.com/sketch/ns">
    <!-- Generator: Sketch 3.2.2 (9983) - http://www.bohemiancoding.com/sketch -->
    <title>68 - God's Omipressence (Flat)</title>
    <desc>Created with Sketch.</desc>
    <defs></defs>
    <g id="Page-1" stroke="none" stroke-width="1" fill="none" fill-rule="evenodd" sketch:type="MSPage">
        <g id="68---God's-Omipressence-(Flat)" sketch:type="MSLayerGroup">
            <path d="M26.313,29 C36.691,29 46.781,33.69 50.653,40.235 C52.159,42.781 50.217,46 47.259,46 L47.094,46 C45.745,46 44.441,45.329 43.788,44.148 C41.758,40.482 34.151,37 26.313,37 C18.465,37 10.111,40.635 7.885,44.226 C7.173,45.373 5.854,46 4.504,46 C1.383,46 -0.438,42.52 1.298,39.926 C5.526,33.606 15.889,29 26.313,29" id="Fill-184" fill="#804537" sketch:type="MSShapeGroup"></path>
            <path d="M29.313,8.779 L29.313,2.875 C29.313,1.77 28.417,0.875 27.313,0.875 C26.208,0.875 25.313,1.77 25.313,2.875 L25.313,8.687 C26.646,8.616 27.983,8.645 29.313,8.779" id="Fill-185" fill="#D9B24C" sketch:type="MSShapeGroup"></path>
            <path d="M42.925,14.005 L45.57,9.875 C46.166,8.945 45.895,7.708 44.965,7.112 C44.035,6.517 42.798,6.788 42.202,7.718 L39.606,11.77 C40.767,12.43 41.878,13.176 42.925,14.005" id="Fill-186" fill="#D9B24C" sketch:type="MSShapeGroup"></path>
            <path d="M10.313,13.875 L7.667,9.745 C7.072,8.815 7.343,7.578 8.273,6.982 C9.203,6.386 10.44,6.657 11.036,7.587 L13.631,11.64 C12.47,12.299 11.36,13.045 10.313,13.875" id="Fill-187" fill="#D9B24C" sketch:type="MSShapeGroup"></path>
            <path d="M17.378,9.599 L16.6,4.757 C16.425,3.667 17.167,2.641 18.258,2.465 C19.349,2.29 20.375,3.032 20.55,4.123 L21.313,8.875 C19.985,9.016 18.669,9.257 17.378,9.599" id="Fill-188" fill="#D9B24C" sketch:type="MSShapeGroup"></path>
            <path d="M37.313,9.875 L38.09,5.032 C38.265,3.942 37.523,2.916 36.432,2.741 C35.342,2.566 34.316,3.308 34.141,4.398 L33.378,9.15 C34.705,9.291 36.021,9.532 37.313,9.875" id="Fill-189" fill="#D9B24C" sketch:type="MSShapeGroup"></path>
            <path d="M26.313,37 C21.86,37 17.248,38.171 13.681,39.84 C16.931,41.174 21.389,42 26.313,42 C31.14,42 35.513,41.204 38.745,39.915 C35.389,38.194 30.895,37 26.313,37" id="Fill-190" fill="#CB8252" sketch:type="MSShapeGroup"></path>
            <path d="M8.837,14.856 C8.853,14.885 8.876,14.913 8.893,14.941 C13.837,19.595 20.153,21.949 26.489,22 C29.19,21.981 31.939,21.534 34.479,20.812 C38.279,19.623 41.859,17.544 44.892,14.571 C44.944,14.499 44.993,14.425 45.049,14.359 C34.93,4.274 18.577,4.25 8.425,14.283 C8.579,14.459 8.721,14.647 8.837,14.856" id="Fill-248" fill="#CB8252" sketch:type="MSShapeGroup"></path>
            <path d="M27,12.005 C22.582,12.005 19,15.139 19,19.005 C19,19.673 19.113,20.316 19.313,20.928 C21.652,21.619 24.068,21.981 26.489,22 C29.19,21.981 31.939,21.534 34.479,20.812 C34.569,20.784 34.658,20.748 34.748,20.719 C34.907,20.169 35,19.597 35,19.005 C35,15.139 31.418,12.005 27,12.005" id="Fill-249" fill="#D9B24C" sketch:type="MSShapeGroup"></path>
            <path d="M26.313,29 C15.935,29 5.844,24.31 1.972,17.765 C0.466,15.219 2.408,12 5.367,12 L5.531,12 C6.88,12 8.184,12.671 8.838,13.851 C10.867,17.518 18.474,21 26.313,21 C34.16,21 42.514,17.365 44.741,13.774 C45.452,12.627 46.771,12 48.121,12 C51.242,12 53.063,15.48 51.328,18.074 C47.099,24.394 36.737,29 26.313,29" id="Fill-250" fill="#804537" sketch:type="MSShapeGroup"></path>
        </g>
    </g>
</svg>