<?xml version="1.0" encoding="UTF-8" standalone="no"?>
<svg width="60px" height="60px" viewBox="0 0 60 60" version="1.1" xmlns="http://www.w3.org/2000/svg" xmlns:xlink="http://www.w3.org/1999/xlink" xmlns:sketch="http://www.bohemiancoding.com/sketch/ns">
    <!-- Generator: Sketch 3.2.2 (9983) - http://www.bohemiancoding.com/sketch -->
    <title>95 - God's Protection (Flat)</title>
    <desc>Created with Sketch.</desc>
    <defs></defs>
    <g id="Page-1" stroke="none" stroke-width="1" fill="none" fill-rule="evenodd" sketch:type="MSPage">
        <g id="95---God's-Protection-(Flat)" sketch:type="MSLayerGroup">
            <path d="M14.755,52.879 C14.763,52.935 14.771,52.99 14.779,53.045 C15.649,58.767 22.959,61.402 27.445,57.745 C29.27,56.257 30.428,54.665 30.428,54.665 C30.428,54.665 31.586,56.257 33.411,57.745 C37.897,61.402 44.351,58.767 45.22,53.045 C45.229,52.99 45.237,52.935 45.245,52.879 C45.671,49.797 44.575,46.696 42.457,44.416 L30,31 L17.543,44.416 C15.425,46.696 14.329,49.797 14.755,52.879" id="Fill-50" fill="#7A3726" sketch:type="MSShapeGroup"></path>
            <path d="M34.428,51.572 L31.428,51.572 L31.428,46 C31.428,45.448 30.98,45 30.428,45 C29.875,45 29.428,45.448 29.428,46 L29.428,51.572 L26.428,51.572 C25.875,51.572 25.428,52.019 25.428,52.572 C25.428,53.124 25.875,53.572 26.428,53.572 L29.428,53.572 L29.428,55 C29.428,55.233 29.52,55.438 29.654,55.609 C30.149,55.047 30.428,54.665 30.428,54.665 C30.428,54.665 30.708,55.047 31.202,55.608 C31.335,55.438 31.428,55.233 31.428,55 L31.428,53.572 L34.428,53.572 C34.98,53.572 35.428,53.124 35.428,52.572 C35.428,52.019 34.98,51.572 34.428,51.572" id="Fill-222" fill="#E4C05C" sketch:type="MSShapeGroup"></path>
            <path d="M52.879,45.245 C52.935,45.237 52.99,45.229 53.045,45.22 C58.767,44.352 61.402,37.041 57.745,32.555 C56.257,30.73 54.665,29.572 54.665,29.572 C54.665,29.572 56.257,28.414 57.745,26.589 C61.402,22.103 58.767,15.648 53.045,14.779 C52.99,14.771 52.935,14.763 52.879,14.755 C49.797,14.329 46.696,15.425 44.416,17.543 L31,30 L44.416,42.457 C46.696,44.575 49.797,45.671 52.879,45.245" id="Fill-223" fill="#7A3726" sketch:type="MSShapeGroup"></path>
            <path d="M51.572,25.572 L51.572,28.572 L46,28.572 C45.448,28.572 45,29.019 45,29.572 C45,30.125 45.448,30.572 46,30.572 L51.572,30.572 L51.572,33.572 C51.572,34.125 52.02,34.572 52.572,34.572 C53.124,34.572 53.572,34.125 53.572,33.572 L53.572,30.572 L55,30.572 C55.233,30.572 55.438,30.48 55.609,30.346 C55.047,29.851 54.665,29.572 54.665,29.572 C54.665,29.572 55.047,29.292 55.608,28.798 C55.438,28.665 55.233,28.572 55,28.572 L53.572,28.572 L53.572,25.572 C53.572,25.019 53.124,24.572 52.572,24.572 C52.02,24.572 51.572,25.019 51.572,25.572" id="Fill-224" fill="#E4C05C" sketch:type="MSShapeGroup"></path>
            <path d="M7.121,45.245 C7.065,45.237 7.01,45.229 6.954,45.22 C1.232,44.352 -1.402,37.041 2.255,32.555 C3.743,30.73 5.335,29.572 5.335,29.572 C5.335,29.572 3.743,28.414 2.255,26.589 C-1.402,22.103 1.232,15.648 6.954,14.779 C7.01,14.771 7.065,14.763 7.121,14.755 C10.203,14.329 13.304,15.425 15.584,17.543 L29,30 L15.584,42.457 C13.304,44.575 10.203,45.671 7.121,45.245" id="Fill-225" fill="#7A3726" sketch:type="MSShapeGroup"></path>
            <path d="M45.245,7.121 C45.237,7.065 45.229,7.01 45.22,6.955 C44.351,1.233 37.041,-1.402 32.555,2.255 C30.73,3.743 29.572,5.335 29.572,5.335 C29.572,5.335 28.414,3.743 26.589,2.255 C22.103,-1.402 15.649,1.233 14.779,6.955 C14.771,7.01 14.763,7.065 14.755,7.121 C14.329,10.203 15.425,13.304 17.543,15.584 L30,29 L42.457,15.584 C44.575,13.304 45.671,10.203 45.245,7.121" id="Fill-227" fill="#7A3726" sketch:type="MSShapeGroup"></path>
            <path d="M25.572,8.428 L28.572,8.428 L28.572,14 C28.572,14.552 29.02,15 29.572,15 C30.125,15 30.572,14.552 30.572,14 L30.572,8.428 L33.572,8.428 C34.125,8.428 34.572,7.98 34.572,7.428 C34.572,6.876 34.125,6.428 33.572,6.428 L30.572,6.428 L30.572,5 C30.572,4.767 30.48,4.561 30.346,4.391 C29.851,4.953 29.572,5.335 29.572,5.335 C29.572,5.335 29.292,4.953 28.798,4.392 C28.665,4.562 28.572,4.767 28.572,5 L28.572,6.428 L25.572,6.428 C25.02,6.428 24.572,6.876 24.572,7.428 C24.572,7.98 25.02,8.428 25.572,8.428" id="Fill-228" fill="#E4C05C" sketch:type="MSShapeGroup"></path>
            <path d="M8.461,25.572 L8.461,28.572 L14.032,28.572 C14.585,28.572 15.032,29.019 15.032,29.572 C15.032,30.125 14.585,30.572 14.032,30.572 L8.461,30.572 L8.461,33.572 C8.461,34.125 8.013,34.572 7.461,34.572 C6.908,34.572 6.461,34.125 6.461,33.572 L6.461,30.572 L5.032,30.572 C4.799,30.572 4.594,30.48 4.424,30.346 C4.985,29.851 5.368,29.572 5.368,29.572 C5.368,29.572 4.985,29.292 4.424,28.798 C4.594,28.665 4.799,28.572 5.032,28.572 L6.461,28.572 L6.461,25.572 C6.461,25.019 6.908,24.572 7.461,24.572 C8.013,24.572 8.461,25.019 8.461,25.572" id="Fill-226" fill="#E4C05C" sketch:type="MSShapeGroup"></path>
        </g>
    </g>
</svg>