<?xml version="1.0" encoding="UTF-8" standalone="no"?>
<svg width="56px" height="58px" viewBox="0 0 56 58" version="1.1" xmlns="http://www.w3.org/2000/svg" xmlns:xlink="http://www.w3.org/1999/xlink" xmlns:sketch="http://www.bohemiancoding.com/sketch/ns">
    <!-- Generator: Sketch 3.2.2 (9983) - http://www.bohemiancoding.com/sketch -->
    <title>76 - Hope (Flat)</title>
    <desc>Created with Sketch.</desc>
    <defs></defs>
    <g id="Page-1" stroke="none" stroke-width="1" fill="none" fill-rule="evenodd" sketch:type="MSPage">
        <g id="76---Hope-(Flat)" sketch:type="MSLayerGroup">
            <path d="M39.5,0 C35.115,0 30.989,3.281 28.089,7.859 C28.047,7.925 27.953,7.925 27.911,7.859 C25.021,3.28 21.385,0 17,0 C7.594,0 0.5,12.467 0.5,29 C0.5,45.533 7.594,58 17,58 C21.385,58 25.021,54.72 27.911,50.141 C27.953,50.075 28.047,50.075 28.089,50.141 C30.989,54.719 35.115,58 39.5,58 C48.906,58 56,45.533 56,29 C56,12.467 48.906,0 39.5,0" id="Fill-71" fill="#559A92" sketch:type="MSShapeGroup"></path>
            <path d="M39.5,4 C34.552,4 30.026,9.658 28,18 C25.974,9.658 21.948,4 17,4 C10.096,4 4.5,15.193 4.5,29 C4.5,42.807 10.096,54 17,54 C21.948,54 25.974,48.342 28,40 C30.026,48.342 34.552,54 39.5,54 C46.404,54 52,42.807 52,29 C52,15.193 46.404,4 39.5,4" id="Fill-72" fill="#81CCB8" sketch:type="MSShapeGroup"></path>
            <path d="M20.905,44.555 C20.909,44.532 20.912,44.508 20.915,44.485 C21.028,43.667 20.533,42.881 19.75,42.616 C18.016,42.028 15.19,40.467 17.901,36.946 C18.821,35.751 19.631,34.477 20.281,33.116 C21.028,31.549 21.717,30.538 21.717,28.905 C21.717,27.273 21.028,26.262 20.281,24.695 C19.631,23.334 18.821,22.06 17.901,20.865 C15.19,17.344 18.016,15.783 19.75,15.195 C20.533,14.93 21.028,14.144 20.915,13.325 C20.912,13.302 20.909,13.279 20.905,13.256 C20.425,10.075 16.394,8.898 14.158,11.21 C12.698,12.718 11.143,15.045 11,18.189 C11,18.189 11.33,22.483 13.985,26.495 C14.951,27.955 14.951,29.856 13.985,31.316 C11.33,35.328 11,39.622 11,39.622 C11.143,42.766 12.698,45.093 14.158,46.601 C16.394,48.913 20.425,47.736 20.905,44.555" id="Fill-147" fill="#556080" sketch:type="MSShapeGroup"></path>
            <path d="M35.811,44.555 C35.808,44.532 35.804,44.508 35.801,44.485 C35.689,43.667 36.184,42.881 36.966,42.616 C38.701,42.028 41.527,40.467 38.816,36.946 C37.896,35.751 37.086,34.477 36.436,33.116 C35.688,31.549 35,30.538 35,28.905 C35,27.273 35.688,26.262 36.436,24.695 C37.086,23.334 37.896,22.06 38.816,20.865 C41.527,17.344 38.701,15.783 36.966,15.195 C36.184,14.93 35.689,14.144 35.801,13.325 C35.804,13.302 35.808,13.279 35.811,13.256 C36.291,10.075 40.322,8.898 42.559,11.21 C44.019,12.718 45.574,15.045 45.717,18.189 C45.717,18.189 45.386,22.483 42.731,26.495 C41.765,27.955 41.765,29.856 42.731,31.316 C45.386,35.328 45.717,39.622 45.717,39.622 C45.574,42.766 44.019,45.093 42.559,46.601 C40.322,48.913 36.291,47.736 35.811,44.555" id="Fill-148" fill="#556080" sketch:type="MSShapeGroup"></path>
        </g>
    </g>
</svg>