<?xml version="1.0" encoding="UTF-8" standalone="no"?>
<svg width="58px" height="58px" viewBox="0 0 58 58" version="1.1" xmlns="http://www.w3.org/2000/svg" xmlns:xlink="http://www.w3.org/1999/xlink" xmlns:sketch="http://www.bohemiancoding.com/sketch/ns">
    <!-- Generator: Sketch 3.2.2 (9983) - http://www.bohemiancoding.com/sketch -->
    <title>73 - Hypocrisy (Flat)</title>
    <desc>Created with Sketch.</desc>
    <defs></defs>
    <g id="Page-1" stroke="none" stroke-width="1" fill="none" fill-rule="evenodd" sketch:type="MSPage">
        <g id="73---Hypocrisy-(Flat)" sketch:type="MSLayerGroup">
            <path d="M13,35 C9.7,35 7,32.3 7,29 C7,25.7 9.7,23 13,23 L35,23 L35,16 L13,16 C5.82,16 0,21.82 0,29 C0,36.18 5.82,42 13,42 L16,42 L16,35 L13,35" id="Fill-240" fill="#CBB292" sketch:type="MSShapeGroup"></path>
            <path d="M45,16 L42,16 L42,23 L45,23 C48.3,23 51,25.7 51,29 C51,32.3 48.3,35 45,35 L23,35 L23,42 L45,42 C52.18,42 58,36.18 58,29 C58,21.82 52.18,16 45,16" id="Fill-241" fill="#CBB292" sketch:type="MSShapeGroup"></path>
            <path d="M35,45 C35,48.3 32.3,51 29,51 C25.7,51 23,48.3 23,45 L23,23 L16,23 L16,45 C16,52.18 21.82,58 29,58 C36.18,58 42,52.18 42,45 L42,42 L35,42 L35,45" id="Fill-242" fill="#804537" sketch:type="MSShapeGroup"></path>
            <path d="M29,0 C21.82,0 16,5.82 16,13 L16,16 L23,16 L23,13 C23,9.7 25.7,7 29,7 C32.3,7 35,9.7 35,13 L35,35 L42,35 L42,13 C42,5.82 36.18,0 29,0" id="Fill-243" fill="#804537" sketch:type="MSShapeGroup"></path>
        </g>
    </g>
</svg>