<?xml version="1.0" encoding="UTF-8" standalone="no"?>
<svg width="48px" height="56px" viewBox="0 0 48 56" version="1.1" xmlns="http://www.w3.org/2000/svg" xmlns:xlink="http://www.w3.org/1999/xlink" xmlns:sketch="http://www.bohemiancoding.com/sketch/ns">
    <!-- Generator: Sketch 3.2.2 (9983) - http://www.bohemiancoding.com/sketch -->
    <title>98 - Ingenuity (Flat)</title>
    <desc>Created with Sketch.</desc>
    <defs></defs>
    <g id="Page-1" stroke="none" stroke-width="1" fill="none" fill-rule="evenodd" sketch:type="MSPage">
        <g id="98---Ingenuity-(Flat)" sketch:type="MSLayerGroup">
            <path d="M24,0 C11.042,0 0.5,12.561 0.5,28 C0.5,43.439 11.042,56 24,56 C36.958,56 47.5,43.439 47.5,28 C47.5,12.561 36.958,0 24,0 L24,0 Z M24,50 C14.611,50 7,40.374 7,28.5 C7,16.626 14.611,7 24,7 C33.389,7 41,16.626 41,28.5 C41,40.374 33.389,50 24,50 L24,50 Z" id="Fill-28" fill="#804537" sketch:type="MSShapeGroup"></path>
            <path d="M29.347,35 L18.653,35 C17.74,35 17,34.26 17,33.347 L17,23.653 C17,22.74 17.74,22 18.653,22 L29.347,22 C30.26,22 31,22.74 31,23.653 L31,33.347 C31,34.26 30.26,35 29.347,35" id="Fill-29" fill="#804537" sketch:type="MSShapeGroup"></path>
            <path d="M25.862,17 L25,17 L25,7 L23,7 L23,17 L22.138,17 C21.51,17 21,17.51 21,18.138 L21,22 L27,22 L27,18.138 C27,17.51 26.49,17 25.862,17" id="Fill-30" fill="#CB8252" sketch:type="MSShapeGroup"></path>
            <path d="M21,38.862 C21,39.49 21.51,40 22.138,40 L23,40 L23,50 L25,50 L25,40 L25.862,40 C26.49,40 27,39.49 27,38.862 L27,35 L21,35 L21,38.862" id="Fill-31" fill="#CB8252" sketch:type="MSShapeGroup"></path>
            <path d="M12,26.138 L12,28 L7,28 L7,30 L12,30 L12,30.862 C12,31.49 12.51,32 13.138,32 L17,32 L17,25 L13.138,25 C12.51,25 12,25.51 12,26.138" id="Fill-32" fill="#CB8252" sketch:type="MSShapeGroup"></path>
            <path d="M36,28 L36,26.138 C36,25.51 35.49,25 34.862,25 L31,25 L31,32 L34.862,32 C35.49,32 36,31.49 36,30.862 L36,30 L41,30 L41,28 L36,28" id="Fill-33" fill="#CB8252" sketch:type="MSShapeGroup"></path>
        </g>
    </g>
</svg>