<?xml version="1.0" encoding="UTF-8" standalone="no"?>
<svg width="48px" height="50px" viewBox="0 0 48 50" version="1.1" xmlns="http://www.w3.org/2000/svg" xmlns:xlink="http://www.w3.org/1999/xlink" xmlns:sketch="http://www.bohemiancoding.com/sketch/ns">
    <!-- Generator: Sketch 3.2.2 (9983) - http://www.bohemiancoding.com/sketch -->
    <title>53 - Jupiter (Flat)</title>
    <desc>Created with Sketch.</desc>
    <defs></defs>
    <g id="Page-1" stroke="none" stroke-width="1" fill="none" fill-rule="evenodd" sketch:type="MSPage">
        <g id="53---Jupiter-(Flat)" sketch:type="MSLayerGroup" transform="translate(-1.000000, 0.000000)" fill="#AF8066">
            <path d="M46.5,37 L38,37 L38,3 C38,1.619 36.881,0.5 35.5,0.5 C34.119,0.5 33,1.619 33,3 L33,37 L15.703,37 L17.343,35.305 C21.282,31.232 26.111,24.8 26.742,17.288 C26.775,16.946 27.497,8.865 23.018,3.887 C20.834,1.46 17.753,0.158 14.098,0.122 C4.783,0.122 1.471,7.31 1.02,11.111 C0.829,12.729 1.999,14.217 3.619,14.423 C3.75,14.441 3.88,14.449 4.009,14.449 C5.495,14.449 6.77,13.329 6.976,11.844 C7.162,10.502 8.223,6.122 14.068,6.122 C16.05,6.142 17.473,6.703 18.546,7.887 C21.229,10.85 20.772,16.688 20.767,16.748 C19.816,28.059 7.966,36.096 7.385,36.471 C6.031,37.335 5.554,39.186 6.478,40.626 C7.051,41.52 8.096,42 9.159,42 L33,42 L33,47.5 C33,48.881 34.119,50 35.5,50 C36.881,50 38,48.881 38,47.5 L38,42 L46.5,42 C47.881,42 49,40.881 49,39.5 C49,38.119 47.881,37 46.5,37" id="Fill-14" sketch:type="MSShapeGroup"></path>
        </g>
    </g>
</svg>