<?xml version="1.0" encoding="UTF-8" standalone="no"?>
<svg width="58px" height="58px" viewBox="0 0 58 58" version="1.1" xmlns="http://www.w3.org/2000/svg" xmlns:xlink="http://www.w3.org/1999/xlink" xmlns:sketch="http://www.bohemiancoding.com/sketch/ns">
    <!-- Generator: Sketch 3.2.2 (9983) - http://www.bohemiancoding.com/sketch -->
    <title>79 - Knowledge (Flat)</title>
    <desc>Created with Sketch.</desc>
    <defs></defs>
    <g id="Page-1" stroke="none" stroke-width="1" fill="none" fill-rule="evenodd" sketch:type="MSPage">
        <g id="79---Knowledge-(Flat)" sketch:type="MSLayerGroup">
            <path d="M16,37 L16,44 L0,44 L0,49 L16,49 L16,53 L0,53 L0,58 L22,58 L22,37 L16,37" id="Fill-132" fill="#556080" sketch:type="MSShapeGroup"></path>
            <path d="M42,37 L42,44 L58,44 L58,49 L42,49 L42,53 L58,53 L58,58 L36,58 L36,37 L42,37" id="Fill-133" fill="#556080" sketch:type="MSShapeGroup"></path>
            <path d="M42,22 L42,14 L58,14 L58,9 L42,9 L42,5 L58,5 L58,0 L36,0 L36,22 L42,22" id="Fill-134" fill="#556080" sketch:type="MSShapeGroup"></path>
            <path d="M16,22 L16,14 L0,14 L0,9 L16,9 L16,5 L0,5 L0,0 L22,0 L22,22 L16,22" id="Fill-135" fill="#556080" sketch:type="MSShapeGroup"></path>
            <path d="M0,22 L58,22 L58,37 L0,37 L0,22 Z" id="Fill-136" fill="#559A92" sketch:type="MSShapeGroup"></path>
            <path d="M20,22 L38,22 L38,37 L20,37 L20,22 Z" id="Fill-137" fill="#D9B24C" sketch:type="MSShapeGroup"></path>
            <path d="M26,0 L32,0 L32,22 L26,22 L26,0 Z" id="Fill-138" fill="#556080" sketch:type="MSShapeGroup"></path>
            <path d="M26,37 L32,37 L32,58 L26,58 L26,37 Z" id="Fill-139" fill="#556080" sketch:type="MSShapeGroup"></path>
            <path d="M10,22 L10,37" id="Fill-140" fill="#D9B24C" sketch:type="MSShapeGroup"></path>
            <path d="M9,22 L11,22 L11,37 L9,37 L9,22 Z" id="Fill-141" fill="#D9B24C" sketch:type="MSShapeGroup"></path>
            <path d="M48,22 L48,37" id="Fill-142" fill="#D9B24C" sketch:type="MSShapeGroup"></path>
            <path d="M47,22 L49,22 L49,37 L47,37 L47,22 Z" id="Fill-143" fill="#D9B24C" sketch:type="MSShapeGroup"></path>
        </g>
    </g>
</svg>