<?xml version="1.0" encoding="UTF-8" standalone="no"?>
<svg width="56px" height="56px" viewBox="0 0 56 56" version="1.1" xmlns="http://www.w3.org/2000/svg" xmlns:xlink="http://www.w3.org/1999/xlink" xmlns:sketch="http://www.bohemiancoding.com/sketch/ns">
    <!-- Generator: Sketch 3.2.2 (9983) - http://www.bohemiancoding.com/sketch -->
    <title>8 - Leo (Flat)</title>
    <desc>Created with Sketch.</desc>
    <defs></defs>
    <g id="Page-1" stroke="none" stroke-width="1" fill="none" fill-rule="evenodd" sketch:type="MSPage">
        <g id="8---Leo-(Flat)" sketch:type="MSLayerGroup">
            <path d="M56,28 C56,43.464 43.464,56 28,56 C12.536,56 0,43.464 0,28 C0,12.536 12.536,0 28,0 C43.464,0 56,12.536 56,28" id="Fill-10" fill="#E57E25" sketch:type="MSShapeGroup"></path>
            <path d="M19,42 C14.864,42 11.5,38.636 11.5,34.5 C11.5,30.364 14.864,27 19,27 C23.136,27 26.5,30.364 26.5,34.5 C26.5,38.636 23.136,42 19,42 L19,42 Z M19,29 C15.967,29 13.5,31.468 13.5,34.5 C13.5,37.532 15.967,40 19,40 C22.033,40 24.5,37.532 24.5,34.5 C24.5,31.468 22.033,29 19,29 L19,29 Z" id="Fill-23" fill="#EDEDED" sketch:type="MSShapeGroup"></path>
            <path d="M37.5,42.5 L37.352,42.499 C34.648,42.455 32.258,40.876 31.124,38.378 C29.94,35.771 30.348,32.8 32.188,30.623 C33.548,29.015 34.752,27.025 35.767,24.71 C36.878,22.176 36.694,19.243 35.274,16.865 C33.941,14.632 31.727,13.233 29.198,13.028 C28.969,13.01 28.735,13 28.5,13 C23.654,13 20,16.439 20,21 L20,28 C20,28.553 19.552,29 19,29 C18.448,29 18,28.553 18,28 L18,21 C18,15.299 22.514,11 28.5,11 C28.789,11 29.075,11.012 29.359,11.034 C32.541,11.293 35.323,13.044 36.992,15.84 C38.742,18.772 38.969,22.389 37.599,25.513 C36.506,28.005 35.2,30.159 33.716,31.914 C32.379,33.495 32.083,35.655 32.945,37.551 C33.769,39.365 35.431,40.467 37.392,40.499 L37.5,40.5 C41.084,40.5 44,37.584 44,34 C44,33.447 44.448,33 45,33 C45.553,33 46,33.447 46,34 C46,38.686 42.187,42.5 37.5,42.5" id="Fill-26" fill="#EDEDED" sketch:type="MSShapeGroup"></path>
        </g>
    </g>
</svg>