<?xml version="1.0" encoding="UTF-8" standalone="no"?>
<svg width="56px" height="56px" viewBox="0 0 56 56" version="1.1" xmlns="http://www.w3.org/2000/svg" xmlns:xlink="http://www.w3.org/1999/xlink" xmlns:sketch="http://www.bohemiancoding.com/sketch/ns">
    <!-- Generator: Sketch 3.2.2 (9983) - http://www.bohemiancoding.com/sketch -->
    <title>6 - Libra (Flat)</title>
    <desc>Created with Sketch.</desc>
    <defs></defs>
    <g id="Page-1" stroke="none" stroke-width="1" fill="none" fill-rule="evenodd" sketch:type="MSPage">
        <g id="6---Libra-(Flat)" sketch:type="MSLayerGroup">
            <path d="M56,28 C56,43.464 43.464,56 28,56 C12.536,56 0,43.464 0,28 C0,12.536 12.536,0 28,0 C43.464,0 56,12.536 56,28" id="Fill-14" fill="#2FA8CC" sketch:type="MSShapeGroup"></path>
            <path d="M48,35 L8,35 C7.447,35 7,34.553 7,34 C7,33.447 7.447,33 8,33 L48,33 C48.553,33 49,33.447 49,34 C49,34.553 48.553,35 48,35" id="Fill-35" fill="#EDEDED" sketch:type="MSShapeGroup"></path>
            <path d="M48,29 L39,29 C38.447,29 38,28.553 38,28 C38,27.447 38.447,27 39,27 L48,27 C48.553,27 49,27.447 49,28 C49,28.553 48.553,29 48,29" id="Fill-37" fill="#EDEDED" sketch:type="MSShapeGroup"></path>
            <path d="M17,29 L8,29 C7.447,29 7,28.553 7,28 C7,27.447 7.447,27 8,27 L17,27 C17.553,27 18,27.447 18,28 C18,28.553 17.553,29 17,29" id="Fill-38" fill="#EDEDED" sketch:type="MSShapeGroup"></path>
            <path d="M39,29 C38.447,29 38,28.553 38,28 C38,22.486 33.514,18 28,18 C22.486,18 18,22.486 18,28 C18,28.553 17.553,29 17,29 C16.447,29 16,28.553 16,28 C16,21.383 21.383,16 28,16 C34.617,16 40,21.383 40,28 C40,28.553 39.553,29 39,29" id="Fill-39" fill="#EDEDED" sketch:type="MSShapeGroup"></path>
        </g>
    </g>
</svg>