<?xml version="1.0" encoding="UTF-8" standalone="no"?>
<svg width="49px" height="48px" viewBox="0 0 49 48" version="1.1" xmlns="http://www.w3.org/2000/svg" xmlns:xlink="http://www.w3.org/1999/xlink" xmlns:sketch="http://www.bohemiancoding.com/sketch/ns">
    <!-- Generator: Sketch 3.2.2 (9983) - http://www.bohemiancoding.com/sketch -->
    <title>58 - Mars (Flat)</title>
    <desc>Created with Sketch.</desc>
    <defs></defs>
    <g id="Page-1" stroke="none" stroke-width="1" fill="none" fill-rule="evenodd" sketch:type="MSPage">
        <g id="58---Mars-(Flat)" sketch:type="MSLayerGroup">
            <path d="M46,0 L34,0 C32.343,0 31,1.343 31,3 C31,4.657 32.343,6 34,6 L38.716,6 L32.979,11.736 C32.92,11.796 32.877,11.864 32.823,11.927 C24.995,6.136 13.91,6.764 6.816,13.858 C-0.994,21.668 -0.994,34.332 6.816,42.142 C14.627,49.953 27.29,49.953 35.101,42.142 C42.194,35.049 42.822,23.963 37.031,16.135 C37.094,16.082 37.162,16.039 37.222,15.979 L43,10.201 L43,15 C43,16.657 44.343,18 46,18 C47.657,18 49,16.657 49,15 L49,3 C49,1.343 47.657,0 46,0" id="Fill-10" fill="#EEAF4B" sketch:type="MSShapeGroup"></path>
            <path d="M31.565,17.393 C37.414,23.242 37.414,32.758 31.565,38.607 C25.716,44.455 16.2,44.455 10.352,38.607 C4.503,32.758 4.503,23.242 10.352,17.393 C16.2,11.545 25.716,11.545 31.565,17.393" id="Fill-21" fill="#DC9628" sketch:type="MSShapeGroup"></path>
        </g>
    </g>
</svg>