<?xml version="1.0" encoding="UTF-8" standalone="no"?>
<svg width="42px" height="56px" viewBox="0 0 42 56" version="1.1" xmlns="http://www.w3.org/2000/svg" xmlns:xlink="http://www.w3.org/1999/xlink" xmlns:sketch="http://www.bohemiancoding.com/sketch/ns">
    <!-- Generator: Sketch 3.2.2 (9983) - http://www.bohemiancoding.com/sketch -->
    <title>62 - Mercury (Flat)</title>
    <desc>Created with Sketch.</desc>
    <defs></defs>
    <g id="Page-1" stroke="none" stroke-width="1" fill="none" fill-rule="evenodd" sketch:type="MSPage">
        <g id="62---Mercury-(Flat)" sketch:type="MSLayerGroup">
            <path d="M21,56 C19.346,56 18,54.654 18,53 L18,50 L14,50 C12.346,50 11,48.654 11,47 C11,45.346 12.346,44 14,44 L18,44 L18,41.785 C7.675,40.317 0,31.539 0,21 C0,16.472 1.479,12.042 4.184,8.427 L1.021,5.264 C-0.149,4.094 -0.149,2.191 1.021,1.021 C1.587,0.455 2.34,0.143 3.142,0.143 C3.943,0.143 4.696,0.455 5.263,1.021 L8.426,4.185 C12.04,1.48 16.471,0 21,0 C25.529,0 29.959,1.48 33.574,4.185 L36.151,1.607 C36.718,1.041 37.471,0.729 38.272,0.729 C39.073,0.729 39.827,1.041 40.394,1.607 C40.96,2.175 41.272,2.928 41.272,3.729 C41.272,4.53 40.96,5.284 40.393,5.851 L37.816,8.427 C40.521,12.042 42,16.472 42,21 C42,31.539 34.325,40.317 24,41.785 L24,44 L28,44 C29.654,44 31,45.346 31,47 C31,48.654 29.654,50 28,50 L24,50 L24,53 C24,54.654 22.654,56 21,56" id="Fill-8" fill="#556080" sketch:type="MSShapeGroup"></path>
            <path d="M21,37 C12.177,37 5,29.823 5,21 C5,12.177 12.177,5 21,5 C29.823,5 37,12.177 37,21 C37,29.823 29.823,37 21,37" id="Fill-15" fill="#8697CB" sketch:type="MSShapeGroup"></path>
        </g>
    </g>
</svg>