<?xml version="1.0" encoding="UTF-8" standalone="no"?>
<svg width="50px" height="50px" viewBox="0 0 50 50" version="1.1" xmlns="http://www.w3.org/2000/svg" xmlns:xlink="http://www.w3.org/1999/xlink" xmlns:sketch="http://www.bohemiancoding.com/sketch/ns">
    <!-- Generator: Sketch 3.2.2 (9983) - http://www.bohemiancoding.com/sketch -->
    <title>38 - Nitre (Flat)</title>
    <desc>Created with Sketch.</desc>
    <defs></defs>
    <g id="Page-1" stroke="none" stroke-width="1" fill="none" fill-rule="evenodd" sketch:type="MSPage">
        <g id="38---Nitre-(Flat)" sketch:type="MSLayerGroup">
            <path d="M25,0 C11.193,0 0,11.193 0,25 C0,38.807 11.193,50 25,50 C38.807,50 50,38.807 50,25 C50,11.193 38.807,0 25,0 L25,0 Z M25,45 C13.954,45 5,36.046 5,25 C5,13.954 13.954,5 25,5 C36.046,5 45,13.954 45,25 C45,36.046 36.046,45 25,45 L25,45 Z" id="Fill-1" fill="#556080" sketch:type="MSShapeGroup"></path>
            <path d="M16.283,48.435 L39.365,4.545 C38.276,3.779 37.126,3.093 35.918,2.506 L12.657,46.737 C13.812,47.395 15.023,47.966 16.283,48.435" id="Fill-103" fill="#F0C419" sketch:type="MSShapeGroup"></path>
        </g>
    </g>
</svg>