<?xml version="1.0" encoding="UTF-8" standalone="no"?>
<svg width="58px" height="58px" viewBox="0 0 58 58" version="1.1" xmlns="http://www.w3.org/2000/svg" xmlns:xlink="http://www.w3.org/1999/xlink" xmlns:sketch="http://www.bohemiancoding.com/sketch/ns">
    <!-- Generator: Sketch 3.2.2 (9983) - http://www.bohemiancoding.com/sketch -->
    <title>37 - Oil (Flat)</title>
    <desc>Created with Sketch.</desc>
    <defs></defs>
    <g id="Page-1" stroke="none" stroke-width="1" fill="none" fill-rule="evenodd" sketch:type="MSPage">
        <g id="37---Oil-(Flat)" sketch:type="MSLayerGroup" transform="translate(-1.000000, -1.000000)">
            <path d="M32,26.227 C32,26.654 32.346,27 32.773,27 L54.815,27 C53.409,15.261 43.875,6.028 32,5.087 L32,26.227" id="Fill-58" fill="#CB8252" sketch:type="MSShapeGroup"></path>
            <path d="M27.227,27 C27.654,27 28,26.654 28,26.227 L28,5.087 C16.125,6.028 6.591,15.261 5.185,27 L27.227,27" id="Fill-59" fill="#CB8252" sketch:type="MSShapeGroup"></path>
            <path d="M28,31.773 C28,31.346 27.654,31 27.227,31 L5.025,31 C5.525,43.675 15.458,53.919 28,54.913 L28,31.773" id="Fill-60" fill="#CB8252" sketch:type="MSShapeGroup"></path>
            <path d="M32.773,31 C32.346,31 32,31.346 32,31.773 L32,54.913 C44.542,53.919 54.475,43.675 54.975,31 L32.773,31" id="Fill-61" fill="#CB8252" sketch:type="MSShapeGroup"></path>
            <path d="M32,26.227 C32,26.654 32.346,27 32.773,27 L50.76,27 C49.39,17.49 41.647,10.018 32,9.101 L32,26.227" id="Fill-90" fill="#F3D55B" sketch:type="MSShapeGroup"></path>
            <path d="M27.227,27 C27.654,27 28,26.654 28,26.227 L28,9.101 C18.353,10.018 10.61,17.49 9.24,27 L27.227,27" id="Fill-91" fill="#F3D55B" sketch:type="MSShapeGroup"></path>
            <path d="M32.773,31 C32.346,31 32,31.346 32,31.773 L32,50.899 C42.314,49.919 50.454,41.446 50.949,31 L32.773,31" id="Fill-92" fill="#F3D55B" sketch:type="MSShapeGroup"></path>
            <path d="M28,31.773 C28,31.346 27.654,31 27.227,31 L9.051,31 C9.546,41.446 17.686,49.919 28,50.899 L28,31.773" id="Fill-93" fill="#F3D55B" sketch:type="MSShapeGroup"></path>
            <path d="M56.893,27 L32.773,27 C32.346,27 32,26.654 32,26.227 L32,3.107 C32,2.111 31.319,1.187 30.336,1.027 C29.083,0.823 28,1.785 28,3 L28,26.227 C28,26.654 27.654,27 27.227,27 L3.107,27 C2.111,27 1.187,27.681 1.027,28.664 C0.824,29.917 1.785,31 3,31 L27.227,31 C27.654,31 28,31.346 28,31.773 L28,56.893 C28,57.889 28.681,58.813 29.664,58.973 C30.917,59.177 32,58.215 32,57 L32,31.773 C32,31.346 32.346,31 32.773,31 L57,31 C58.215,31 59.177,29.917 58.973,28.664 C58.813,27.681 57.889,27 56.893,27" id="Fill-104" fill="#F0C419" sketch:type="MSShapeGroup"></path>
        </g>
    </g>
</svg>