<?xml version="1.0" encoding="UTF-8" standalone="no"?>
<svg width="50px" height="58px" viewBox="0 0 50 58" version="1.1" xmlns="http://www.w3.org/2000/svg" xmlns:xlink="http://www.w3.org/1999/xlink" xmlns:sketch="http://www.bohemiancoding.com/sketch/ns">
    <!-- Generator: Sketch 3.2.2 (9983) - http://www.bohemiancoding.com/sketch -->
    <title>24 - Silver (Flat)</title>
    <desc>Created with Sketch.</desc>
    <defs></defs>
    <g id="Page-1" stroke="none" stroke-width="1" fill="none" fill-rule="evenodd" sketch:type="MSPage">
        <g id="24---Silver-(Flat)" sketch:type="MSLayerGroup" transform="translate(-1.000000, 0.000000)">
            <path d="M49,15 L43.99,15 C42.889,15 41.874,15.902 41.929,17.002 C41.982,18.059 42.856,18.9 43.927,18.9 L44.099,18.9 L28.186,34.813 C28.117,34.882 27.999,34.833 27.999,34.736 L27.999,23.819 C33.734,22.851 38.103,17.815 37.997,11.785 C37.887,5.521 32.767,0.27 26.507,0.011 C19.66,-0.274 13.999,5.214 13.999,12 C13.999,17.934 18.333,22.863 23.999,23.819 L23.999,34.738 C23.999,34.835 23.882,34.884 23.812,34.816 L7.827,18.999 L7.895,18.999 C8.891,18.998 9.812,18.317 9.972,17.334 C10.175,16.082 9.213,15 7.999,15 L2.999,15 C1.894,15 0.999,15.895 0.999,17 L0.999,22 C0.999,23.105 1.895,24 2.999,24 C4.104,24 4.999,23.105 4.999,22 L4.999,21.828 L23.437,40.266 C23.797,40.626 23.999,41.114 23.999,41.622 L23.999,55.893 C23.999,56.889 24.68,57.813 25.663,57.973 C26.916,58.177 27.999,57.215 27.999,56 L27.999,41.451 C27.999,40.943 28.201,40.455 28.561,40.095 L46.927,21.729 L46.927,21.901 C46.927,23.006 47.822,23.901 48.926,23.901 C50.031,23.901 50.999,23.104 50.999,22 L50.999,16.999 C50.999,15.895 50.104,15 49,15" id="Fill-75" fill="#5E5F62" sketch:type="MSShapeGroup"></path>
            <path d="M33.999,12 C33.999,16.418 30.417,20 25.999,20 C21.581,20 17.999,16.418 17.999,12 C17.999,7.582 21.581,4 25.999,4 C30.417,4 33.999,7.582 33.999,12" id="Fill-98" fill="#A4E869" sketch:type="MSShapeGroup"></path>
        </g>
    </g>
</svg>