<?xml version="1.0" encoding="UTF-8" standalone="no"?>
<svg width="58px" height="58px" viewBox="0 0 58 58" version="1.1" xmlns="http://www.w3.org/2000/svg" xmlns:xlink="http://www.w3.org/1999/xlink" xmlns:sketch="http://www.bohemiancoding.com/sketch/ns">
    <!-- Generator: Sketch 3.2.2 (9983) - http://www.bohemiancoding.com/sketch -->
    <title>23 - Soot (Flat)</title>
    <desc>Created with Sketch.</desc>
    <defs></defs>
    <g id="Page-1" stroke="none" stroke-width="1" fill="none" fill-rule="evenodd" sketch:type="MSPage">
        <g id="23---Soot-(Flat)" sketch:type="MSLayerGroup" fill="#2C2F38">
            <path d="M56.571,22.019 L32,25 L34.748,1.429 C34.879,0.684 34.306,0 33.549,0 L23.451,0 C22.694,0 22.121,0.684 22.252,1.429 L25,25 L1.429,22.019 C0.684,21.887 0,22.461 0,23.218 L0,33.315 C0,34.072 0.684,34.646 1.429,34.514 L25,30 L22.252,56.571 C22.121,57.316 22.694,58 23.451,58 L33.549,58 C34.306,58 34.879,57.316 34.748,56.571 L32,30 L56.571,34.514 C57.316,34.646 58,34.072 58,33.315 L58,23.218 C58,22.461 57.316,21.887 56.571,22.019" id="Fill-6" sketch:type="MSShapeGroup"></path>
        </g>
    </g>
</svg>