<?xml version="1.0" encoding="UTF-8" standalone="no"?>
<svg width="58px" height="54px" viewBox="0 0 58 54" version="1.1" xmlns="http://www.w3.org/2000/svg" xmlns:xlink="http://www.w3.org/1999/xlink" xmlns:sketch="http://www.bohemiancoding.com/sketch/ns">
    <!-- Generator: Sketch 3.2.2 (9983) - http://www.bohemiancoding.com/sketch -->
    <title>21 - Spirit of Tin (Flat)</title>
    <desc>Created with Sketch.</desc>
    <defs></defs>
    <g id="Page-1" stroke="none" stroke-width="1" fill="none" fill-rule="evenodd" sketch:type="MSPage">
        <g id="21---Spirit-of-Tin-(Flat)" sketch:type="MSLayerGroup">
            <path d="M54,32.643 L54,19.001 C54.776,19.773 56.129,19.639 56.905,18.867 C57.681,18.096 57.681,16.845 56.905,16.073 L53.392,12.579 C52.615,11.807 51.359,11.807 50.582,12.579 L49.177,13.977 L49.178,13.977 L47.069,16.073 C46.293,16.845 46.293,18.096 47.069,18.867 L47.069,18.868 C47.845,19.639 49.224,19.772 50,19.001 L50,25.001 L35,25.001 L35,7.444 C36.19,6.75 37,5.474 37,4 C37,1.794 35.206,0 33,0 C30.794,0 29,1.794 29,4 C29,5.474 29.81,6.75 31,7.444 L31,25.001 L16,25 C15.027,21.679 11.636,19.253 8,19.253 C3.582,19.253 0,22.835 0,27.253 C0,31.671 3.582,35.253 8,35.253 C11.817,35.253 15.202,32.577 16,29 L31,29.001 L31,47.001 C30.224,46.229 28.845,46.109 28.069,46.88 C27.293,47.652 27.293,48.903 28.069,49.674 L30.178,51.771 L30.177,51.771 L31.582,53.168 C32.359,53.941 33.615,53.941 34.392,53.168 L37.796,49.783 C38.369,49.213 38.619,48.358 38.349,47.596 C37.814,46.089 35.963,46.044 35,47.001 L35,29.001 L50,29.001 L50,32.643 C49.224,31.871 47.845,31.75 47.069,32.522 C46.293,33.293 46.293,34.544 47.069,35.316 L49.178,37.412 L49.177,37.413 L50.582,38.81 C51.359,39.583 52.615,39.583 53.392,38.81 L56.796,35.425 C57.369,34.855 57.619,33.999 57.349,33.237 C56.814,31.73 54.963,31.685 54,32.643" id="Fill-73" fill="#556080" sketch:type="MSShapeGroup"></path>
            <path d="M8,31.253 C5.794,31.253 4,29.459 4,27.253 C4,25.047 5.794,23.253 8,23.253 C10.206,23.253 12,25.047 12,27.253 C12,29.459 10.206,31.253 8,31.253" id="Fill-102" fill="#D1D4D1" sketch:type="MSShapeGroup"></path>
        </g>
    </g>
</svg>