<?xml version="1.0" encoding="UTF-8" standalone="no"?>
<svg width="58px" height="58px" viewBox="0 0 58 58" version="1.1" xmlns="http://www.w3.org/2000/svg" xmlns:xlink="http://www.w3.org/1999/xlink" xmlns:sketch="http://www.bohemiancoding.com/sketch/ns">
    <!-- Generator: Sketch 3.2.2 (9983) - http://www.bohemiancoding.com/sketch -->
    <title>64 - Standard of Quality (Flat)</title>
    <desc>Created with Sketch.</desc>
    <defs></defs>
    <g id="Page-1" stroke="none" stroke-width="1" fill="none" fill-rule="evenodd" sketch:type="MSPage">
        <g id="64---Standard-of-Quality-(Flat)" sketch:type="MSLayerGroup">
            <path d="M0,0 L0,6 L15,6 L15,34 L21,34 L21,6 L37,6 L37,34 L43,34 L43,6 L58,6 L58,0 L0,0" id="Fill-205" fill="#7F5B53" sketch:type="MSShapeGroup"></path>
            <path d="M32,52 L32,40 L54,40 L54,18 L48,18 L48,34 L32,34 L32,18 L26,18 L26,34 L10,34 L10,18 L4,18 L4,40 L26,40 L26,52 L0,52 L0,58 L58,58 L58,52 L32,52" id="Fill-206" fill="#C3A97E" sketch:type="MSShapeGroup"></path>
        </g>
    </g>
</svg>