<?xml version="1.0" encoding="UTF-8" standalone="no"?>
<svg width="54px" height="54px" viewBox="0 0 54 54" version="1.1" xmlns="http://www.w3.org/2000/svg" xmlns:xlink="http://www.w3.org/1999/xlink" xmlns:sketch="http://www.bohemiancoding.com/sketch/ns">
    <!-- Generator: Sketch 3.2.2 (9983) - http://www.bohemiancoding.com/sketch -->
    <title>63 - Sun (Flat)</title>
    <desc>Created with Sketch.</desc>
    <defs></defs>
    <g id="Page-1" stroke="none" stroke-width="1" fill="none" fill-rule="evenodd" sketch:type="MSPage">
        <g id="63---Sun-(Flat)" sketch:type="MSLayerGroup">
            <path d="M27,54 C12.112,54 0,41.888 0,27 C0,12.112 12.112,0 27,0 C41.888,0 54,12.112 54,27 C54,41.888 41.888,54 27,54" id="Fill-3" fill="#E57E25" sketch:type="MSShapeGroup"></path>
            <path d="M27,49 C14.869,49 5,39.131 5,27 C5,14.869 14.869,5 27,5 C39.131,5 49,14.869 49,27 C49,39.131 39.131,49 27,49" id="Fill-4" fill="#F29C1F" sketch:type="MSShapeGroup"></path>
            <path d="M27,41 C19.28,41 13,34.72 13,27 C13,19.28 19.28,13 27,13 C34.72,13 41,19.28 41,27 C41,34.72 34.72,41 27,41" id="Fill-5" fill="#F0C419" sketch:type="MSShapeGroup"></path>
        </g>
    </g>
</svg>