<?xml version="1.0" encoding="UTF-8" standalone="no"?>
<svg width="56px" height="56px" viewBox="0 0 56 56" version="1.1" xmlns="http://www.w3.org/2000/svg" xmlns:xlink="http://www.w3.org/1999/xlink" xmlns:sketch="http://www.bohemiancoding.com/sketch/ns">
    <!-- Generator: Sketch 3.2.2 (9983) - http://www.bohemiancoding.com/sketch -->
    <title>11 - Taurus (Flat)</title>
    <desc>Created with Sketch.</desc>
    <defs></defs>
    <g id="Page-1" stroke="none" stroke-width="1" fill="none" fill-rule="evenodd" sketch:type="MSPage">
        <g id="11---Taurus-(Flat)" sketch:type="MSLayerGroup">
            <path d="M56,28 C56,43.464 43.464,56 28,56 C12.536,56 0,43.464 0,28 C0,12.536 12.536,0 28,0 C43.464,0 56,12.536 56,28" id="Fill-5" fill="#7A3726" sketch:type="MSShapeGroup"></path>
            <path d="M28,47 C20.28,47 14,40.72 14,33 C14,25.28 20.28,19 28,19 C35.72,19 42,25.28 42,33 C42,40.72 35.72,47 28,47 L28,47 Z M28,21 C21.383,21 16,26.383 16,33 C16,39.617 21.383,45 28,45 C34.617,45 40,39.617 40,33 C40,26.383 34.617,21 28,21 L28,21 Z" id="Fill-6" fill="#EDEDED" sketch:type="MSShapeGroup"></path>
            <path d="M28,21 C26.387,21 24.96,19.889 23.039,17.969 C21.304,16.248 18.997,15.217 16.506,15.03 C15.486,14.955 14.525,14.721 13.719,14.502 L11.738,13.965 C11.205,13.82 10.89,13.271 11.035,12.738 C11.18,12.206 11.726,11.889 12.262,12.035 L14.243,12.572 C14.957,12.766 15.803,12.973 16.655,13.036 C19.62,13.259 22.375,14.493 24.412,16.514 C26.213,18.314 27.208,19 28,19 C28.793,19 29.787,18.314 31.547,16.555 C31.673,16.429 31.811,16.297 31.961,16.159 C33.949,14.34 36.585,13.229 39.386,13.032 C40.182,12.976 40.975,12.782 41.576,12.619 L43.739,12.035 C44.272,11.884 44.821,12.205 44.965,12.739 C45.109,13.272 44.794,13.821 44.261,13.965 L42.098,14.55 C41.409,14.736 40.494,14.959 39.526,15.026 C37.174,15.192 34.967,16.118 33.312,17.634 C33.185,17.75 33.067,17.862 32.961,17.969 C31.042,19.889 29.614,21 28,21" id="Fill-7" fill="#EDEDED" sketch:type="MSShapeGroup"></path>
        </g>
    </g>
</svg>