<?xml version="1.0" encoding="UTF-8" standalone="no"?>
<svg width="48px" height="58px" viewBox="0 0 48 58" version="1.1" xmlns="http://www.w3.org/2000/svg" xmlns:xlink="http://www.w3.org/1999/xlink" xmlns:sketch="http://www.bohemiancoding.com/sketch/ns">
    <!-- Generator: Sketch 3.2.2 (9983) - http://www.bohemiancoding.com/sketch -->
    <title>90 - Time Changes (Flat)</title>
    <desc>Created with Sketch.</desc>
    <defs></defs>
    <g id="Page-1" stroke="none" stroke-width="1" fill="none" fill-rule="evenodd" sketch:type="MSPage">
        <g id="90---Time-Changes-(Flat)" sketch:type="MSLayerGroup">
            <path d="M5,29 C5,21.034 7.122,13.845 10.529,8.604 L7.094,4.679 C2.698,10.808 0,19.371 0,29 C0,38.574 2.668,47.093 7.019,53.215 L10.4,49.19 C7.07,43.967 5,36.864 5,29" id="Fill-4" fill="#559A92" sketch:type="MSShapeGroup"></path>
            <path d="M40.906,4.679 L37.471,8.604 C40.878,13.845 43,21.034 43,29 C43,36.864 40.93,43.967 37.6,49.19 L40.981,53.215 C45.332,47.093 48,38.574 48,29 C48,19.371 45.302,10.808 40.906,4.679" id="Fill-5" fill="#559A92" sketch:type="MSShapeGroup"></path>
            <path d="M45,0 L24,24 L3,0 L45,0" id="Fill-91" fill="#6A78A6" sketch:type="MSShapeGroup"></path>
            <path d="M11.815,4 L36.185,4 L24,17.926 L11.815,4" id="Fill-92" fill="#D9B24C" sketch:type="MSShapeGroup"></path>
            <path d="M3,58 L24,33 L45,58 L3,58" id="Fill-93" fill="#6A78A6" sketch:type="MSShapeGroup"></path>
            <path d="M11.584,54 L24,39.219 L36.416,54 L11.584,54" id="Fill-94" fill="#D9B24C" sketch:type="MSShapeGroup"></path>
            <path d="M27,49 C27,50.657 25.657,52 24,52 C22.343,52 21,50.657 21,49 C21,47.343 22.343,46 24,46 C25.657,46 27,47.343 27,49" id="Fill-95" fill="#804537" sketch:type="MSShapeGroup"></path>
            <path d="M27,9 C27,10.657 25.657,12 24,12 C22.343,12 21,10.657 21,9 C21,7.343 22.343,6 24,6 C25.657,6 27,7.343 27,9" id="Fill-96" fill="#804537" sketch:type="MSShapeGroup"></path>
            <path d="M12,26 L36,26 L36,31 L12,31 L12,26 Z" id="Fill-213" fill="#804537" sketch:type="MSShapeGroup"></path>
        </g>
    </g>
</svg>