<?xml version="1.0" encoding="UTF-8" standalone="no"?>
<svg width="46px" height="46px" viewBox="0 0 46 46" version="1.1" xmlns="http://www.w3.org/2000/svg" xmlns:xlink="http://www.w3.org/1999/xlink" xmlns:sketch="http://www.bohemiancoding.com/sketch/ns">
    <!-- Generator: Sketch 3.2.2 (9983) - http://www.bohemiancoding.com/sketch -->
    <title>49 - Tin (Flat)</title>
    <desc>Created with Sketch.</desc>
    <defs></defs>
    <g id="Page-1" stroke="none" stroke-width="1" fill="none" fill-rule="evenodd" sketch:type="MSPage">
        <g id="49---Tin-(Flat)" sketch:type="MSLayerGroup" fill="#868C9B">
            <path d="M43.896,45.5 L43.896,45.5 C42.859,45.5 42.013,44.706 41.908,43.675 C40.964,34.327 32.844,27 23,27 C13.156,27 5.036,34.327 4.092,43.675 C3.988,44.706 3.141,45.5 2.104,45.5 C0.937,45.5 -0.009,44.503 0.105,43.341 C1.219,31.944 11.062,23 23,23 C34.938,23 44.781,31.944 45.895,43.341 C46.009,44.503 45.063,45.5 43.896,45.5" id="Fill-50" sketch:type="MSShapeGroup"></path>
            <path d="M43.896,0.5 L43.896,0.5 C42.859,0.5 42.013,1.294 41.908,2.325 C40.964,11.673 32.844,19 23,19 C13.156,19 5.036,11.673 4.092,2.325 C3.988,1.294 3.141,0.5 2.104,0.5 C0.937,0.5 -0.009,1.497 0.105,2.659 C1.219,14.056 11.062,23 23,23 C34.938,23 44.781,14.056 45.895,2.659 C46.009,1.497 45.063,0.5 43.896,0.5" id="Fill-51" sketch:type="MSShapeGroup"></path>
        </g>
    </g>
</svg>