<?xml version="1.0" encoding="UTF-8" standalone="no"?>
<svg width="44px" height="58px" viewBox="0 0 44 58" version="1.1" xmlns="http://www.w3.org/2000/svg" xmlns:xlink="http://www.w3.org/1999/xlink" xmlns:sketch="http://www.bohemiancoding.com/sketch/ns">
    <!-- Generator: Sketch 3.2.2 (9983) - http://www.bohemiancoding.com/sketch -->
    <title>85 - Toughness (Flat)</title>
    <desc>Created with Sketch.</desc>
    <defs></defs>
    <g id="Page-1" stroke="none" stroke-width="1" fill="none" fill-rule="evenodd" sketch:type="MSPage">
        <g id="85---Toughness-(Flat)" sketch:type="MSLayerGroup" fill="#7A3726">
            <path d="M44,7 L44,0 L0,0 L0,18 L37,18 L37,22 L0,22 L0,40 L37,40 L37,44 L0,44 L0,58 L7,58 L7,51 L12,51 L12,58 L19,58 L19,51 L24,51 L24,58 L31,58 L31,51 L36,51 L36,58 L44,58 L44,33 L7,33 L7,29 L44,29 L44,11 L7,11 L7,7 L44,7" id="Fill-97" sketch:type="MSShapeGroup"></path>
        </g>
    </g>
</svg>