<?xml version="1.0" encoding="UTF-8" standalone="no"?>
<svg width="40px" height="56px" viewBox="0 0 40 56" version="1.1" xmlns="http://www.w3.org/2000/svg" xmlns:xlink="http://www.w3.org/1999/xlink" xmlns:sketch="http://www.bohemiancoding.com/sketch/ns">
    <!-- Generator: Sketch 3.2.2 (9983) - http://www.bohemiancoding.com/sketch -->
    <title>61 - Venus (Flat)</title>
    <desc>Created with Sketch.</desc>
    <defs></defs>
    <g id="Page-1" stroke="none" stroke-width="1" fill="none" fill-rule="evenodd" sketch:type="MSPage">
        <g id="61---Venus-(Flat)" sketch:type="MSLayerGroup">
            <path d="M40,20 C40,8.954 31.046,0 20,0 C8.954,0 0,8.954 0,20 C0,30.032 7.394,38.315 17.025,39.755 C17.018,39.837 17,39.916 17,40 L17,44 L13,44 C11.343,44 10,45.343 10,47 C10,48.657 11.343,50 13,50 L17,50 L17,53 C17,54.657 18.343,56 20,56 C21.657,56 23,54.657 23,53 L23,50 L27,50 C28.657,50 30,48.657 30,47 C30,45.343 28.657,44 27,44 L23,44 L23,40 C23,39.916 22.982,39.837 22.975,39.755 C32.606,38.315 40,30.032 40,20" id="Fill-9" fill="#D75A4A" sketch:type="MSShapeGroup"></path>
            <path d="M20,35 C11.729,35 5,28.271 5,20 C5,11.729 11.729,5 20,5 C28.271,5 35,11.729 35,20 C35,28.271 28.271,35 20,35" id="Fill-16" fill="#E57E25" sketch:type="MSShapeGroup"></path>
        </g>
    </g>
</svg>