<?xml version="1.0" encoding="UTF-8" standalone="no"?>
<svg width="54px" height="58px" viewBox="0 0 54 58" version="1.1" xmlns="http://www.w3.org/2000/svg" xmlns:xlink="http://www.w3.org/1999/xlink" xmlns:sketch="http://www.bohemiancoding.com/sketch/ns">
    <!-- Generator: Sketch 3.2.2 (9983) - http://www.bohemiancoding.com/sketch -->
    <title>28 - Vinegar (Flat)</title>
    <desc>Created with Sketch.</desc>
    <defs></defs>
    <g id="Page-1" stroke="none" stroke-width="1" fill="none" fill-rule="evenodd" sketch:type="MSPage">
        <g id="28---Vinegar-(Flat)" sketch:type="MSLayerGroup" fill="#527F72">
            <path d="M53.168,22.608 L49.784,19.204 C49.213,18.631 48.358,18.381 47.596,18.651 C46.089,19.186 46.044,21.037 47.001,22 L29.001,22 L29.001,7 C29.964,7.957 31.815,7.912 32.35,6.405 C32.62,5.643 32.37,4.788 31.797,4.217 L28.393,0.833 C27.616,0.06 26.36,0.06 25.583,0.833 L24.178,2.23 L24.179,2.23 L22.07,4.327 C21.294,5.098 21.294,6.349 22.07,7.12 L22.07,7.121 C22.846,7.892 24.225,7.771 25.001,7 L25.001,22 L7.001,22 C7.773,21.224 7.639,19.87 6.867,19.095 C6.096,18.319 4.845,18.319 4.073,19.095 L0.58,22.608 C-0.193,23.385 -0.193,24.641 0.58,25.418 L1.977,26.823 L1.977,26.822 L4.074,28.931 C4.845,29.707 6.096,29.707 6.867,28.931 L6.868,28.931 C7.639,28.155 7.773,26.776 7.001,26 L25.001,26 L25.001,53.737 C25.001,53.882 24.883,54 24.738,54 L19.108,54 C18.497,54 18.001,54.495 18.001,55.107 L18.001,56.893 C18.001,57.504 18.497,58 19.108,58 L34.894,58 C35.505,58 36.001,57.504 36.001,56.893 L36.001,55.107 C36.001,54.495 35.505,54 34.894,54 L29.264,54 C29.119,54 29.001,53.882 29.001,53.737 L29.001,26 L47.001,26 C46.229,26.776 46.109,28.155 46.88,28.931 L46.881,28.931 C47.652,29.707 48.903,29.707 49.674,28.931 L51.771,26.822 L51.771,26.823 L53.168,25.418 C53.941,24.641 53.941,23.385 53.168,22.608" id="Fill-71" sketch:type="MSShapeGroup"></path>
        </g>
    </g>
</svg>