<?xml version="1.0" encoding="UTF-8" standalone="no"?>
<svg width="56px" height="56px" viewBox="0 0 56 56" version="1.1" xmlns="http://www.w3.org/2000/svg" xmlns:xlink="http://www.w3.org/1999/xlink" xmlns:sketch="http://www.bohemiancoding.com/sketch/ns">
    <!-- Generator: Sketch 3.2.2 (9983) - http://www.bohemiancoding.com/sketch -->
    <title>7 - Virgo (Flat)</title>
    <desc>Created with Sketch.</desc>
    <defs></defs>
    <g id="Page-1" stroke="none" stroke-width="1" fill="none" fill-rule="evenodd" sketch:type="MSPage">
        <g id="7---Virgo-(Flat)" sketch:type="MSLayerGroup">
            <path d="M56,28 C56,43.464 43.464,56 28,56 C12.536,56 0,43.464 0,28 C0,12.536 12.536,0 28,0 C43.464,0 56,12.536 56,28" id="Fill-13" fill="#4FBA6F" sketch:type="MSShapeGroup"></path>
            <path d="M16,42 C15.447,42 15,41.553 15,41 L15,22 C15,19.459 12.968,17.615 10.167,17.615 C7.627,17.615 5,19.255 5,22 C5,22.553 4.553,23 4,23 C3.447,23 3,22.553 3,22 C3,18.42 6.148,15.615 10.167,15.615 C14.062,15.615 17,18.36 17,22 L17,41 C17,41.553 16.553,42 16,42" id="Fill-27" fill="#EDEDED" sketch:type="MSShapeGroup"></path>
            <path d="M28,42 C27.447,42 27,41.553 27,41 L27,22 C27,19.459 24.968,17.615 22.167,17.615 C19.627,17.615 17,19.255 17,22 C17,22.553 16.553,23 16,23 C15.447,23 15,22.553 15,22 C15,18.42 18.148,15.615 22.167,15.615 C26.062,15.615 29,18.36 29,22 L29,41 C29,41.553 28.553,42 28,42" id="Fill-28" fill="#EDEDED" sketch:type="MSShapeGroup"></path>
            <path d="M34.001,46 C33.644,46 33.298,45.808 33.117,45.471 C32.857,44.982 33.042,44.377 33.529,44.117 C50.903,34.86 49.868,29.867 49.25,26.885 C48.908,25.235 47.849,23.788 46.417,23.014 C45.385,22.456 44.464,22.33 43.604,22.632 C41.882,23.233 40.929,25.371 40.92,25.392 C40.704,25.901 40.116,26.138 39.607,25.92 C39.1,25.703 38.863,25.116 39.08,24.607 C39.132,24.487 40.37,21.642 42.943,20.743 C44.346,20.252 45.834,20.426 47.368,21.254 C49.341,22.321 50.741,24.226 51.209,26.478 C52.155,31.047 51.721,36.69 34.471,45.883 C34.32,45.962 34.159,46 34.001,46" id="Fill-31" fill="#EDEDED" sketch:type="MSShapeGroup"></path>
            <path d="M44,46 C41.243,46 39,43.757 39,41 L39,22 C39,19.459 36.968,17.615 34.167,17.615 C31.627,17.615 29,19.255 29,22 C29,22.553 28.553,23 28,23 C27.447,23 27,22.553 27,22 C27,18.42 30.148,15.615 34.167,15.615 C38.063,15.615 41,18.36 41,22 L41,41 C41,42.654 42.346,44 44,44 C44.553,44 45,44.447 45,45 C45,45.553 44.553,46 44,46" id="Fill-32" fill="#EDEDED" sketch:type="MSShapeGroup"></path>
        </g>
    </g>
</svg>