<?xml version="1.0" encoding="UTF-8" standalone="no"?>
<svg width="52px" height="58px" viewBox="0 0 52 58" version="1.1" xmlns="http://www.w3.org/2000/svg" xmlns:xlink="http://www.w3.org/1999/xlink" xmlns:sketch="http://www.bohemiancoding.com/sketch/ns">
    <!-- Generator: Sketch 3.2.2 (9983) - http://www.bohemiancoding.com/sketch -->
    <title>26 - Vitriol (Flat)</title>
    <desc>Created with Sketch.</desc>
    <defs></defs>
    <g id="Page-1" stroke="none" stroke-width="1" fill="none" fill-rule="evenodd" sketch:type="MSPage">
        <g id="26---Vitriol-(Flat)" sketch:type="MSLayerGroup" fill="#2980BA">
            <path d="M51.182,11.586 L47.646,8.05 C46.865,7.269 45.599,7.269 44.818,8.05 C44.037,8.831 44.037,10.098 44.818,10.879 L44.939,11 L28,11 L28,2 C28,0.895 27.105,0 26,0 C24.895,0 24,0.895 24,2 L24,11 L7.06,11 L7.182,10.878 C7.963,10.097 7.963,8.831 7.182,8.05 C6.401,7.269 5.135,7.269 4.354,8.05 L0.818,11.586 C0.037,12.367 0.037,13.633 0.818,14.414 L4.354,17.95 C5.135,18.731 6.401,18.731 7.182,17.95 C7.963,17.169 7.963,15.903 7.182,15.121 L7.06,15 L24,15 L24,20.107 C14.447,21.107 7,29.182 7,39 C7,49.493 15.507,58 26,58 C36.493,58 45,49.493 45,39 C45,29.182 37.553,21.107 28,20.107 L28,15 L44.94,15 L44.818,15.122 C44.037,15.903 44.037,17.169 44.818,17.95 C45.599,18.731 46.865,18.731 47.646,17.95 L51.182,14.414 C51.963,13.633 51.963,12.367 51.182,11.586 L51.182,11.586 Z M41,39 C41,47.284 34.284,54 26,54 C17.716,54 11,47.284 11,39 C11,30.716 17.716,24 26,24 C34.284,24 41,30.716 41,39 L41,39 Z" id="Fill-42" sketch:type="MSShapeGroup"></path>
        </g>
    </g>
</svg>