<?xml version="1.0" encoding="UTF-8" standalone="no"?>
<svg width="47px" height="58px" viewBox="0 0 47 58" version="1.1" xmlns="http://www.w3.org/2000/svg" xmlns:xlink="http://www.w3.org/1999/xlink" xmlns:sketch="http://www.bohemiancoding.com/sketch/ns">
    <!-- Generator: Sketch 3.2.2 (9983) - http://www.bohemiancoding.com/sketch -->
    <title>93 - Wisdom (Flat)</title>
    <desc>Created with Sketch.</desc>
    <defs></defs>
    <g id="Page-1" stroke="none" stroke-width="1" fill="none" fill-rule="evenodd" sketch:type="MSPage">
        <g id="93---Wisdom-(Flat)" sketch:type="MSLayerGroup">
            <path d="M36,0 C30.112,0 25.5,6.149 25.5,14 C25.5,21.851 30.112,28 36,28 C41.888,28 46.5,21.851 46.5,14 C46.5,6.149 41.888,0 36,0 L36,0 Z M36,23.625 C32.617,23.625 29.875,19.316 29.875,14 C29.875,8.684 32.617,4.375 36,4.375 C39.383,4.375 42.125,8.684 42.125,14 C42.125,19.316 39.383,23.625 36,23.625 L36,23.625 Z" id="Fill-52" fill="#AF8066" sketch:type="MSShapeGroup"></path>
            <path d="M36,23.625 C37.761,23.625 39.344,22.45 40.462,20.58 C40.267,18.018 38.356,16 36,16 C33.644,16 31.733,18.018 31.538,20.58 C32.656,22.45 34.239,23.625 36,23.625" id="Fill-53" fill="#E4C05C" sketch:type="MSShapeGroup"></path>
            <path d="M10.5,0 C4.612,0 0,6.149 0,14 C0,21.851 4.612,28 10.5,28 C16.388,28 21,21.851 21,14 C21,6.149 16.388,0 10.5,0 L10.5,0 Z M10.5,23.625 C7.117,23.625 4.375,19.316 4.375,14 C4.375,8.684 7.117,4.375 10.5,4.375 C13.883,4.375 16.625,8.684 16.625,14 C16.625,19.316 13.883,23.625 10.5,23.625 L10.5,23.625 Z" id="Fill-54" fill="#AF8066" sketch:type="MSShapeGroup"></path>
            <path d="M10.5,23.625 C12.261,23.625 13.844,22.45 14.962,20.58 C14.767,18.018 12.856,16 10.5,16 C8.144,16 6.233,18.018 6.038,20.58 C7.156,22.45 8.739,23.625 10.5,23.625" id="Fill-55" fill="#E4C05C" sketch:type="MSShapeGroup"></path>
            <path d="M36,30 C30.112,30 25.5,36.149 25.5,44 C25.5,51.851 30.112,58 36,58 C41.888,58 46.5,51.851 46.5,44 C46.5,36.149 41.888,30 36,30 L36,30 Z M36,53.625 C32.617,53.625 29.875,49.316 29.875,44 C29.875,38.684 32.617,34.375 36,34.375 C39.383,34.375 42.125,38.684 42.125,44 C42.125,49.316 39.383,53.625 36,53.625 L36,53.625 Z" id="Fill-56" fill="#AF8066" sketch:type="MSShapeGroup"></path>
            <path d="M36,53.625 C37.761,53.625 39.344,52.45 40.462,50.58 C40.267,48.018 38.356,46 36,46 C33.644,46 31.733,48.018 31.538,50.58 C32.656,52.45 34.239,53.625 36,53.625" id="Fill-57" fill="#E4C05C" sketch:type="MSShapeGroup"></path>
            <path d="M10.5,30 C4.612,30 0,36.149 0,44 C0,51.851 4.612,58 10.5,58 C16.388,58 21,51.851 21,44 C21,36.149 16.388,30 10.5,30 L10.5,30 Z M10.5,53.625 C7.117,53.625 4.375,49.316 4.375,44 C4.375,38.684 7.117,34.375 10.5,34.375 C13.883,34.375 16.625,38.684 16.625,44 C16.625,49.316 13.883,53.625 10.5,53.625 L10.5,53.625 Z" id="Fill-58" fill="#AF8066" sketch:type="MSShapeGroup"></path>
            <path d="M10.5,53.625 C12.261,53.625 13.844,52.45 14.962,50.58 C14.767,48.018 12.856,46 10.5,46 C8.144,46 6.233,48.018 6.038,50.58 C7.156,52.45 8.739,53.625 10.5,53.625" id="Fill-59" fill="#E4C05C" sketch:type="MSShapeGroup"></path>
        </g>
    </g>
</svg>