<?xml version="1.0" encoding="UTF-8" standalone="no"?>
<svg width="60px" height="60px" viewBox="0 0 60 60" version="1.1" xmlns="http://www.w3.org/2000/svg" xmlns:xlink="http://www.w3.org/1999/xlink" xmlns:sketch="http://www.bohemiancoding.com/sketch/ns">
    <!-- Generator: Sketch 3.2.2 (9983) - http://www.bohemiancoding.com/sketch -->
    <title>13 - Year (Flat)</title>
    <desc>Created with Sketch.</desc>
    <defs></defs>
    <g id="Page-1" stroke="none" stroke-width="1" fill="none" fill-rule="evenodd" sketch:type="MSPage">
        <g id="13---Year-(Flat)" sketch:type="MSLayerGroup">
            <path d="M0,0 L60,0 L60,59.94 L0,59.94 L0,0 Z" id="Fill-2" fill="#556080" sketch:type="MSShapeGroup"></path>
            <path d="M5,5 L30,5 L30,30 L5,30 L5,5 Z" id="Fill-3" fill="#4FBA6F" sketch:type="MSShapeGroup"></path>
            <path d="M30,5 L55,5 L55,30 L30,30 L30,5 Z" id="Fill-4" fill="#F0785A" sketch:type="MSShapeGroup"></path>
            <path d="M7,28 L28,28 L28,7 L7,7 L7,28 Z M16.086,17.5 L9,24.586 L9,10.414 L16.086,17.5 L16.086,17.5 Z M10.414,9 L24.586,9 L17.5,16.086 L10.414,9 L10.414,9 Z M17.5,18.914 L24.586,26 L10.414,26 L17.5,18.914 L17.5,18.914 Z M18.914,17.5 L26,10.414 L26,24.586 L18.914,17.5 L18.914,17.5 Z" id="Fill-106" fill="#556080" sketch:type="MSShapeGroup"></path>
            <path d="M32,28 L53,28 L53,7 L32,7 L32,28 Z M41.086,17.5 L34,24.586 L34,10.414 L41.086,17.5 L41.086,17.5 Z M35.414,9 L49.586,9 L42.5,16.086 L35.414,9 L35.414,9 Z M42.5,18.914 L49.586,26 L35.414,26 L42.5,18.914 L42.5,18.914 Z M43.914,17.5 L51,10.414 L51,24.586 L43.914,17.5 L43.914,17.5 Z" id="Fill-107" fill="#556080" sketch:type="MSShapeGroup"></path>
            <path d="M5,30 L30,30 L30,55 L5,55 L5,30 Z" id="Fill-108" fill="#CB8252" sketch:type="MSShapeGroup"></path>
            <path d="M30,30 L55,30 L55,55 L30,55 L30,30 Z" id="Fill-109" fill="#8697CB" sketch:type="MSShapeGroup"></path>
            <path d="M7,53 L28,53 L28,32 L7,32 L7,53 Z M16.086,42.5 L9,49.586 L9,35.414 L16.086,42.5 L16.086,42.5 Z M10.414,34 L24.586,34 L17.5,41.086 L10.414,34 L10.414,34 Z M17.5,43.914 L24.586,51 L10.414,51 L17.5,43.914 L17.5,43.914 Z M18.914,42.5 L26,35.414 L26,49.586 L18.914,42.5 L18.914,42.5 Z" id="Fill-110" fill="#556080" sketch:type="MSShapeGroup"></path>
            <path d="M32,53 L53,53 L53,32 L32,32 L32,53 Z M41.086,42.5 L34,49.586 L34,35.414 L41.086,42.5 L41.086,42.5 Z M35.414,34 L49.586,34 L42.5,41.086 L35.414,34 L35.414,34 Z M42.5,43.914 L49.586,51 L35.414,51 L42.5,43.914 L42.5,43.914 Z M43.914,42.5 L51,35.414 L51,49.586 L43.914,42.5 L43.914,42.5 Z" id="Fill-111" fill="#556080" sketch:type="MSShapeGroup"></path>
        </g>
    </g>
</svg>