<?xml version="1.0" encoding="UTF-8" standalone="no"?>
<svg width="46px" height="58px" viewBox="0 0 46 58" version="1.1" xmlns="http://www.w3.org/2000/svg" xmlns:xlink="http://www.w3.org/1999/xlink" xmlns:sketch="http://www.bohemiancoding.com/sketch/ns">
    <!-- Generator: Sketch 3.2.2 (9983) - http://www.bohemiancoding.com/sketch -->
    <title>26 - 2 Door Fridge (Flat)</title>
    <desc>Created with Sketch.</desc>
    <defs></defs>
    <g id="Page-1" stroke="none" stroke-width="1" fill="none" fill-rule="evenodd" sketch:type="MSPage">
        <g id="26---2-Door-Fridge-(Flat)" sketch:type="MSLayerGroup">
            <path d="M1.17,0 C0.524,0 0,0.524 0,1.17 L0,40 L23,40 L23,0 L1.17,0" id="Fill-90" fill="#AAC1CF" sketch:type="MSShapeGroup"></path>
            <path d="M44.83,0 L23,0 L23,40 L46,40 L46,1.17 C46,0.524 45.476,0 44.83,0" id="Fill-91" fill="#B6CFDB" sketch:type="MSShapeGroup"></path>
            <path d="M34,7 L36,7" id="Stroke-3190" stroke="#FFFFFF" stroke-width="2" stroke-linecap="round" sketch:type="MSShapeGroup"></path>
            <path d="M0,40 L0,56.07 C0,57.136 0.864,58 1.93,58 L44.07,58 C45.136,58 46,57.136 46,56.07 L46,40 L0,40" id="Fill-3191" fill="#C8DAE4" sketch:type="MSShapeGroup"></path>
            <path d="M5,22 L15,22 L15,34 L5,34 L5,22 Z" id="Fill-3192" fill="#556080" sketch:type="MSShapeGroup"></path>
            <path d="M8,22 L12,22 L12,27 L8,27 L8,22 Z" id="Fill-3193" fill="#FFFFFF" sketch:type="MSShapeGroup"></path>
            <path d="M19,37 C18.448,37 18,36.553 18,36 L18,20 C18,19.447 18.448,19 19,19 C19.552,19 20,19.447 20,20 L20,36 C20,36.553 19.552,37 19,37" id="Fill-3194" fill="#556080" sketch:type="MSShapeGroup"></path>
            <path d="M27,37 C26.448,37 26,36.553 26,36 L26,20 C26,19.447 26.448,19 27,19 C27.552,19 28,19.447 28,20 L28,36 C28,36.553 27.552,37 27,37" id="Fill-3195" fill="#556080" sketch:type="MSShapeGroup"></path>
            <path d="M31,45 L15,45 C14.448,45 14,44.553 14,44 C14,43.447 14.448,43 15,43 L31,43 C31.552,43 32,43.447 32,44 C32,44.553 31.552,45 31,45" id="Fill-3196" fill="#556080" sketch:type="MSShapeGroup"></path>
            <path d="M22,0 L24,0 L24,40 L22,40 L22,0 Z" id="Fill-3924" fill="#879EAA" sketch:type="MSShapeGroup"></path>
            <path d="M0,39 L46,39 L46,41 L0,41 L0,39 Z" id="Fill-3926" fill="#879EAA" sketch:type="MSShapeGroup"></path>
        </g>
    </g>
</svg>