<?xml version="1.0" encoding="UTF-8" standalone="no"?>
<svg width="58px" height="38px" viewBox="0 0 58 38" version="1.1" xmlns="http://www.w3.org/2000/svg" xmlns:xlink="http://www.w3.org/1999/xlink" xmlns:sketch="http://www.bohemiancoding.com/sketch/ns">
    <!-- Generator: Sketch 3.2.2 (9983) - http://www.bohemiancoding.com/sketch -->
    <title>217 - 3 Seated Sofa (Flat)</title>
    <desc>Created with Sketch.</desc>
    <defs></defs>
    <g id="Page-1" stroke="none" stroke-width="1" fill="none" fill-rule="evenodd" sketch:type="MSPage">
        <g id="217---3-Seated-Sofa-(Flat)" sketch:type="MSLayerGroup">
            <path d="M9,36 L9,34 C9,33.448 8.552,33 8,33 C7.448,33 7,33.448 7,34 L7,36 C6.448,36 6,36.448 6,37 C6,37.552 6.448,38 7,38 L9,38 C9.552,38 10,37.552 10,37 C10,36.448 9.552,36 9,36" id="Fill-241" fill="#BFA380" sketch:type="MSShapeGroup"></path>
            <path d="M51,36 L51,34 C51,33.448 50.552,33 50,33 C49.448,33 49,33.448 49,34 L49,36 C48.448,36 48,36.448 48,37 C48,37.552 48.448,38 49,38 L51,38 C51.552,38 52,37.552 52,37 C52,36.448 51.552,36 51,36" id="Fill-242" fill="#BFA380" sketch:type="MSShapeGroup"></path>
            <path d="M51,28 L7,28 C4.25,28 2,25.75 2,23 C2,20.25 4.25,18 7,18 L51,18 C53.75,18 56,20.25 56,23 C56,25.75 53.75,28 51,28" id="Fill-583" fill="#DD342E" sketch:type="MSShapeGroup"></path>
            <path d="M7,18 L8.724,18 C8.892,17.529 9,17.029 9,16.5 C9,14.015 6.985,12 4.5,12 C2.015,12 0,14.015 0,16.5 C0,18.323 1.089,19.885 2.649,20.592 C3.504,19.057 5.126,18 7,18" id="Fill-584" fill="#B12621" sketch:type="MSShapeGroup"></path>
            <path d="M51,18 L49.275,18 C49.108,17.529 49,17.029 49,16.5 C49,14.015 51.015,12 53.5,12 C55.985,12 58,14.015 58,16.5 C58,18.323 56.91,19.885 55.351,20.592 C54.495,19.057 52.874,18 51,18" id="Fill-585" fill="#B12621" sketch:type="MSShapeGroup"></path>
            <path d="M51,12.76 L51,8.707 C51,3.898 47.102,0 42.293,0 L15.707,0 C10.898,0 7,3.898 7,8.707 L7,12.76 C8.205,13.567 9,14.94 9,16.5 C9,17.029 8.892,17.529 8.724,18 L49.275,18 C49.108,17.529 49,17.029 49,16.5 C49,14.94 49.795,13.567 51,12.76" id="Fill-586" fill="#F43737" sketch:type="MSShapeGroup"></path>
            <path d="M6,31 L10,31 L10,34 L6,34 L6,31 Z" id="Fill-587" fill="#6B5B4B" sketch:type="MSShapeGroup"></path>
            <path d="M48,31 L52,31 L52,34 L48,34 L48,31 Z" id="Fill-588" fill="#6B5B4B" sketch:type="MSShapeGroup"></path>
            <path d="M19.707,5.293 C19.316,4.902 18.684,4.902 18.293,5.293 L16.5,7.086 L14.707,5.293 C14.316,4.902 13.684,4.902 13.293,5.293 C12.902,5.684 12.902,6.316 13.293,6.707 L14.586,8 L13.293,9.293 C12.902,9.684 12.902,10.316 13.293,10.707 C13.488,10.902 13.744,11 14,11 C14.256,11 14.512,10.902 14.707,10.707 L16.5,8.914 L18.293,10.707 C18.488,10.902 18.744,11 19,11 C19.256,11 19.512,10.902 19.707,10.707 C20.098,10.316 20.098,9.684 19.707,9.293 L18.414,8 L19.707,6.707 C20.098,6.316 20.098,5.684 19.707,5.293" id="Fill-589" fill="#CC2323" sketch:type="MSShapeGroup"></path>
            <path d="M32.707,8.293 C32.316,7.902 31.684,7.902 31.293,8.293 L29.5,10.086 L27.707,8.293 C27.316,7.902 26.684,7.902 26.293,8.293 C25.902,8.684 25.902,9.316 26.293,9.707 L27.586,11 L26.293,12.293 C25.902,12.684 25.902,13.316 26.293,13.707 C26.488,13.902 26.744,14 27,14 C27.256,14 27.512,13.902 27.707,13.707 L29.5,11.914 L31.293,13.707 C31.488,13.902 31.744,14 32,14 C32.256,14 32.512,13.902 32.707,13.707 C33.098,13.316 33.098,12.684 32.707,12.293 L31.414,11 L32.707,9.707 C33.098,9.316 33.098,8.684 32.707,8.293" id="Fill-590" fill="#CC2323" sketch:type="MSShapeGroup"></path>
            <path d="M44.414,8 L45.707,6.707 C46.098,6.316 46.098,5.684 45.707,5.293 C45.316,4.902 44.684,4.902 44.293,5.293 L42.5,7.086 L40.707,5.293 C40.316,4.902 39.684,4.902 39.293,5.293 C38.902,5.684 38.902,6.316 39.293,6.707 L40.586,8 L39.293,9.293 C38.902,9.684 38.902,10.316 39.293,10.707 C39.488,10.902 39.744,11 40,11 C40.256,11 40.512,10.902 40.707,10.707 L42.5,8.914 L44.293,10.707 C44.488,10.902 44.744,11 45,11 C45.256,11 45.512,10.902 45.707,10.707 C46.098,10.316 46.098,9.684 45.707,9.293 L44.414,8" id="Fill-591" fill="#CC2323" sketch:type="MSShapeGroup"></path>
            <path d="M54.5,31 L3.5,31 C2.672,31 2,30.328 2,29.5 C2,28.671 2.672,28 3.5,28 L54.5,28 C55.328,28 56,28.671 56,29.5 C56,30.328 55.328,31 54.5,31" id="Fill-606" fill="#9E6C53" sketch:type="MSShapeGroup"></path>
        </g>
    </g>
</svg>