<?xml version="1.0" encoding="UTF-8" standalone="no"?>
<svg width="59px" height="59px" viewBox="0 0 59 59" version="1.1" xmlns="http://www.w3.org/2000/svg" xmlns:xlink="http://www.w3.org/1999/xlink" xmlns:sketch="http://www.bohemiancoding.com/sketch/ns">
    <!-- Generator: Sketch 3.2.2 (9983) - http://www.bohemiancoding.com/sketch -->
    <title>169 - 4x2 Bookcase (Flat)</title>
    <desc>Created with Sketch.</desc>
    <defs></defs>
    <g id="Page-1" stroke="none" stroke-width="1" fill="none" fill-rule="evenodd" sketch:type="MSPage">
        <g id="169---4x2-Bookcase-(Flat)" sketch:type="MSLayerGroup">
            <path d="M38.999,59 C38.868,59 38.734,58.974 38.606,58.919 C38.099,58.701 37.863,58.113 38.081,57.606 L41.081,50.606 C41.297,50.098 41.885,49.86 42.394,50.081 C42.901,50.299 43.137,50.887 42.919,51.394 L39.919,58.393 C39.757,58.773 39.388,59 38.999,59" id="Fill-20" fill="#381F16" sketch:type="MSShapeGroup"></path>
            <path d="M57,59 C56.612,59 56.243,58.773 56.081,58.393 L53.081,51.394 C52.863,50.887 53.099,50.299 53.606,50.081 C54.113,49.861 54.702,50.098 54.919,50.606 L57.919,57.606 C58.137,58.113 57.901,58.701 57.394,58.919 C57.266,58.974 57.132,59 57,59" id="Fill-21" fill="#381F16" sketch:type="MSShapeGroup"></path>
            <path d="M2,59 C1.448,59 1,58.552 1,58 L1,57 C1,56.447 1.448,56 2,56 C2.552,56 3,56.447 3,57 L3,58 C3,58.552 2.552,59 2,59" id="Fill-22" fill="#6B5B4B" sketch:type="MSShapeGroup"></path>
            <path d="M32,59 C31.448,59 31,58.552 31,58 L31,57 C31,56.447 31.448,56 32,56 C32.552,56 33,56.447 33,57 L33,58 C33,58.552 32.552,59 32,59" id="Fill-23" fill="#6B5B4B" sketch:type="MSShapeGroup"></path>
            <path d="M0,0 L34,0 L34,57 L0,57 L0,0 Z" id="Fill-421" fill="#6B5B4B" sketch:type="MSShapeGroup"></path>
            <path d="M3,41 L17,41 L17,54 L3,54 L3,41 Z" id="Fill-1251" fill="#F8E7A1" sketch:type="MSShapeGroup"></path>
            <path d="M3,41 L17,41 L17,54 L3,54 L3,41 Z" id="Stroke-1252" stroke="#D1C17C" stroke-width="2" stroke-linecap="round" sketch:type="MSShapeGroup"></path>
            <path d="M17,41 L31,41 L31,54 L17,54 L17,41 Z" id="Fill-1253" fill="#F8E7A1" sketch:type="MSShapeGroup"></path>
            <path d="M17,41 L31,41 L31,54 L17,54 L17,41 Z" id="Stroke-1254" stroke="#D1C17C" stroke-width="2" stroke-linecap="round" sketch:type="MSShapeGroup"></path>
            <path d="M3,28 L17,28 L17,41 L3,41 L3,28 Z" id="Fill-1255" fill="#F8E7A1" sketch:type="MSShapeGroup"></path>
            <path d="M3,28 L17,28 L17,41 L3,41 L3,28 Z" id="Stroke-1256" stroke="#D1C17C" stroke-width="2" stroke-linecap="round" sketch:type="MSShapeGroup"></path>
            <path d="M17,28 L31,28 L31,41 L17,41 L17,28 Z" id="Fill-1257" fill="#F8E7A1" sketch:type="MSShapeGroup"></path>
            <path d="M17,28 L31,28 L31,41 L17,41 L17,28 Z" id="Stroke-1258" stroke="#D1C17C" stroke-width="2" stroke-linecap="round" sketch:type="MSShapeGroup"></path>
            <path d="M3,15 L17,15 L17,28 L3,28 L3,15 Z" id="Fill-1259" fill="#F8E7A1" sketch:type="MSShapeGroup"></path>
            <path d="M3,15 L17,15 L17,28 L3,28 L3,15 Z" id="Stroke-1260" stroke="#D1C17C" stroke-width="2" stroke-linecap="round" sketch:type="MSShapeGroup"></path>
            <path d="M17,15 L31,15 L31,28 L17,28 L17,15 Z" id="Fill-1261" fill="#F8E7A1" sketch:type="MSShapeGroup"></path>
            <path d="M17,15 L31,15 L31,28 L17,28 L17,15 Z" id="Stroke-1262" stroke="#D1C17C" stroke-width="2" stroke-linecap="round" sketch:type="MSShapeGroup"></path>
            <path d="M3,3 L17,3 L17,15 L3,15 L3,3 Z" id="Fill-1263" fill="#F8E7A1" sketch:type="MSShapeGroup"></path>
            <path d="M3,3 L17,3 L17,15 L3,15 L3,3 Z" id="Stroke-1264" stroke="#D1C17C" stroke-width="2" stroke-linecap="round" sketch:type="MSShapeGroup"></path>
            <path d="M17,3 L31,3 L31,15 L17,15 L17,3 Z" id="Fill-1265" fill="#F8E7A1" sketch:type="MSShapeGroup"></path>
            <path d="M17,3 L31,3 L31,15 L17,15 L17,3 Z" id="Stroke-1266" stroke="#D1C17C" stroke-width="2" stroke-linecap="round" sketch:type="MSShapeGroup"></path>
            <path d="M27,31 L30,31 L30,40 L27,40 L27,31 Z" id="Fill-1267" fill="#3D6F44" sketch:type="MSShapeGroup"></path>
            <path d="M24,31 L27,31 L27,40 L24,40 L24,31 Z" id="Fill-1268" fill="#199172" sketch:type="MSShapeGroup"></path>
            <path d="M21,31 L24,31 L24,40 L21,40 L21,31 Z" id="Fill-1269" fill="#88C057" sketch:type="MSShapeGroup"></path>
            <path d="M22,44 L26,44 M8,44 L12,44" id="Stroke-1270" stroke="#6B5B4B" stroke-width="2" stroke-linecap="round" sketch:type="MSShapeGroup"></path>
            <path d="M38,45 L58,45 L58,51 L38,51 L38,45 Z" id="Fill-1271" fill="#6B5B4B" sketch:type="MSShapeGroup"></path>
            <path d="M38,45 L58,45 L58,51 L38,51 L38,45 Z" id="Stroke-1272" stroke="#54473C" stroke-width="2" stroke-linecap="round" sketch:type="MSShapeGroup"></path>
            <path d="M51.907,32.293 C51.516,31.902 50.884,31.902 50.493,32.293 L49.2,33.586 L49.2,30 C49.2,29.447 48.752,29 48.2,29 C47.648,29 47.2,29.447 47.2,30 L47.2,38 C47.2,38.552 47.648,39 48.2,39 C48.752,39 49.2,38.552 49.2,38 L49.2,36.414 L51.907,33.707 C52.298,33.316 52.298,32.683 51.907,32.293" id="Fill-3982" fill="#88C057" sketch:type="MSShapeGroup"></path>
            <path d="M48.2,23 L45.2,23 L45.2,27 C45.2,28.65 46.55,30 48.2,30 L48.2,23" id="Fill-3983" fill="#DD342E" sketch:type="MSShapeGroup"></path>
            <path d="M48.2,24 L51.2,24 L51.2,27 C51.2,28.65 49.85,30 48.2,30 L48.2,24" id="Fill-3984" fill="#B12621" sketch:type="MSShapeGroup"></path>
            <path d="M50,38 L46.4,38 C46.117,39.13 45.435,40.088 44.58,40.88 C44.142,41.284 43.905,41.902 44.036,42.562 C44.205,43.417 45.008,44 45.879,44 L50.521,44 C51.392,44 52.194,43.417 52.364,42.562 C52.495,41.902 52.257,41.284 51.82,40.88 C50.965,40.088 50.282,39.13 50,38" id="Fill-3985" fill="#C7CBC7" sketch:type="MSShapeGroup"></path>
            <path d="M4,18 L7,18 L7,27 L4,27 L4,18 Z" id="Fill-4055" fill="#DD342E" sketch:type="MSShapeGroup"></path>
            <path d="M7,18 L10,18 L10,27 L7,27 L7,18 Z" id="Fill-4056" fill="#EC7937" sketch:type="MSShapeGroup"></path>
            <path d="M10,18 L13,18 L13,27 L10,27 L10,18 Z" id="Fill-4057" fill="#F0CE49" sketch:type="MSShapeGroup"></path>
        </g>
    </g>
</svg>