<?xml version="1.0" encoding="UTF-8" standalone="no"?>
<svg width="58px" height="58px" viewBox="0 0 58 58" version="1.1" xmlns="http://www.w3.org/2000/svg" xmlns:xlink="http://www.w3.org/1999/xlink" xmlns:sketch="http://www.bohemiancoding.com/sketch/ns">
    <!-- Generator: Sketch 3.2.2 (9983) - http://www.bohemiancoding.com/sketch -->
    <title>127 - Accessories Dressing (Flat)</title>
    <desc>Created with Sketch.</desc>
    <defs></defs>
    <g id="Page-1" stroke="none" stroke-width="1" fill="none" fill-rule="evenodd" sketch:type="MSPage">
        <g id="127---Accessories-Dressing-(Flat)" sketch:type="MSLayerGroup">
            <path d="M0,0 L0,58 L3,58 L3,56 L55,56 L55,58 L58,58 L58,0 L0,0" id="Fill-1878" fill="#300708" sketch:type="MSShapeGroup"></path>
            <path d="M3,43 L55,43 L55,53 L3,53 L3,43 Z" id="Fill-1885" fill="#5E302A" sketch:type="MSShapeGroup"></path>
            <path d="M3,33 L55,33 L55,43 L3,43 L3,33 Z" id="Fill-1886" fill="#72362B" sketch:type="MSShapeGroup"></path>
            <path d="M3,23 L55,23 L55,33 L3,33 L3,23 Z" id="Fill-1887" fill="#5E302A" sketch:type="MSShapeGroup"></path>
            <path d="M27,28 L31,28" id="Stroke-1888" stroke="#E8EDEE" stroke-width="2" stroke-linecap="round" sketch:type="MSShapeGroup"></path>
            <path d="M3,13 L55,13 L55,23 L3,23 L3,13 Z" id="Fill-1889" fill="#72362B" sketch:type="MSShapeGroup"></path>
            <path d="M3,3 L55,3 L55,13 L3,13 L3,3 Z" id="Fill-1890" fill="#5E302A" sketch:type="MSShapeGroup"></path>
            <path d="M27,18 L31,18 M27,8 L31,8 M27,38 L31,38 M27,48 L31,48" id="Stroke-1891" stroke="#E8EDEE" stroke-width="2" stroke-linecap="round" sketch:type="MSShapeGroup"></path>
        </g>
    </g>
</svg>