<?xml version="1.0" encoding="UTF-8" standalone="no"?>
<svg width="50px" height="57px" viewBox="0 0 50 57" version="1.1" xmlns="http://www.w3.org/2000/svg" xmlns:xlink="http://www.w3.org/1999/xlink" xmlns:sketch="http://www.bohemiancoding.com/sketch/ns">
    <!-- Generator: Sketch 3.2.2 (9983) - http://www.bohemiancoding.com/sketch -->
    <title>113 - Arched Window (Flat)</title>
    <desc>Created with Sketch.</desc>
    <defs></defs>
    <g id="Page-1" stroke="none" stroke-width="1" fill="none" fill-rule="evenodd" sketch:type="MSPage">
        <g id="113---Arched-Window-(Flat)" sketch:type="MSLayerGroup">
            <path d="M0,53 L50,53 L50,57 L0,57 L0,53 Z" id="Fill-2406" fill="#492510" sketch:type="MSShapeGroup"></path>
            <path d="M48,53 L2,53 L2,23 C2,10.297 12.297,0 25,0 C37.703,0 48,10.297 48,23 L48,53" id="Fill-2407" fill="#A45D31" sketch:type="MSShapeGroup"></path>
            <path d="M5,50 L5,23 C5,11.972 13.972,3 25,3 C36.028,3 45,11.972 45,23 L45,50 L5,50" id="Fill-2410" fill="#7FABDA" sketch:type="MSShapeGroup"></path>
            <path d="M39.751,11.048 C37.332,8.068 34.03,5.843 30.248,4.754 L6,48.4 L6,49 L18.667,49 L39.751,11.048" id="Fill-4003" fill="#A2C9ED" sketch:type="MSShapeGroup"></path>
            <path d="M45.899,21 C45.405,15.807 43.006,11.172 39.419,7.773 L39.225,7.594 C39.212,7.582 39.198,7.572 39.185,7.56 C38.724,7.136 38.246,6.733 37.748,6.351 C37.712,6.323 37.676,6.297 37.64,6.27 C37.163,5.909 36.673,5.567 36.166,5.246 C36.097,5.203 36.026,5.162 35.956,5.119 C35.481,4.827 34.997,4.55 34.498,4.295 C34.385,4.238 34.27,4.186 34.156,4.13 C33.694,3.905 33.227,3.691 32.747,3.499 C32.581,3.433 32.412,3.377 32.245,3.315 C31.807,3.153 31.368,2.996 30.916,2.863 C30.683,2.794 30.446,2.742 30.211,2.681 C29.814,2.579 29.419,2.474 29.014,2.395 C28.674,2.328 28.329,2.287 27.985,2.237 C27.67,2.192 27.36,2.134 27.042,2.103 C26.366,2.037 25.685,2 25,2 C24.317,2 23.639,2.037 22.966,2.103 C22.642,2.134 22.327,2.193 22.008,2.238 C21.672,2.287 21.335,2.327 21.003,2.392 C20.592,2.472 20.191,2.578 19.789,2.681 C19.562,2.74 19.334,2.79 19.11,2.856 C18.653,2.99 18.207,3.148 17.763,3.312 C17.605,3.37 17.446,3.423 17.289,3.486 C16.804,3.678 16.332,3.893 15.866,4.12 C15.759,4.172 15.651,4.221 15.545,4.275 C15.043,4.529 14.557,4.805 14.08,5.097 C14.014,5.137 13.948,5.176 13.883,5.217 C13.376,5.535 12.887,5.873 12.411,6.232 C12.375,6.259 12.339,6.285 12.303,6.313 C11.809,6.689 11.335,7.086 10.877,7.504 C10.863,7.517 10.848,7.527 10.834,7.54 L10.544,7.807 C6.977,11.202 4.593,15.825 4.101,21 L4,21 L4,51 L46,51 L46,21 L45.899,21 L45.899,21 Z M26,37 L44,37 L44,49 L26,49 L26,37 Z M44,35 L26.444,35 L24,39.4 L24,49 L6,49 L6,37 L12.333,37 L13.444,35 L6,35 L6,23 L20.111,23 L21.222,21 L6.107,21 C6.564,16.661 8.492,12.76 11.374,9.788 L21.709,20.123 L22.719,18.305 L12.849,8.433 C14.087,7.398 15.44,6.538 16.869,5.854 C16.952,5.814 17.033,5.772 17.117,5.734 C17.503,5.556 17.897,5.396 18.294,5.245 C18.456,5.184 18.618,5.123 18.782,5.066 C19.133,4.943 19.486,4.832 19.843,4.73 C20.077,4.664 20.312,4.605 20.549,4.548 C20.86,4.472 21.171,4.399 21.486,4.339 C21.809,4.278 22.138,4.233 22.466,4.189 C22.714,4.155 22.959,4.114 23.208,4.091 C23.799,4.035 24.395,4 25,4 C25.605,4 26.202,4.035 26.793,4.091 C27.039,4.114 27.282,4.155 27.526,4.188 C27.859,4.232 28.191,4.278 28.518,4.34 C28.828,4.399 29.135,4.471 29.441,4.546 C29.684,4.604 29.926,4.664 30.165,4.732 C30.192,4.74 30.219,4.75 30.246,4.758 L30.248,4.754 C30.366,4.788 30.48,4.833 30.598,4.869 C30.801,4.932 31.006,4.992 31.208,5.062 C31.286,5.09 31.364,5.12 31.442,5.148 C31.887,5.309 32.324,5.487 32.753,5.679 C32.793,5.697 32.834,5.711 32.874,5.73 C32.876,5.731 32.878,5.732 32.88,5.733 C34.042,6.264 35.135,6.915 36.157,7.658 C36.183,7.677 36.209,7.696 36.235,7.715 C36.546,7.943 36.849,8.181 37.145,8.428 C37.147,8.43 37.15,8.432 37.152,8.433 L37.152,8.434 C37.665,8.862 38.158,9.312 38.623,9.791 L38.626,9.788 C38.638,9.801 38.649,9.815 38.661,9.827 C39.002,10.18 39.329,10.545 39.642,10.924 C39.649,10.932 39.656,10.94 39.664,10.949 C39.692,10.983 39.723,11.014 39.751,11.048 L39.746,11.057 C42.003,13.835 43.499,17.253 43.893,21 L34.222,21 L33.111,23 L44,23 L44,35 L44,35 Z" id="Fill-4004" fill="#553323" sketch:type="MSShapeGroup"></path>
            <path d="M32.753,5.679 C32.324,5.487 31.887,5.309 31.442,5.148 C31.534,5.182 31.627,5.215 31.719,5.25 C32.068,5.383 32.412,5.526 32.753,5.679" id="Fill-4005" fill="#A2C9ED" sketch:type="MSShapeGroup"></path>
            <path d="M36.157,7.658 C35.135,6.915 34.042,6.264 32.88,5.733 C32.971,5.774 33.06,5.82 33.151,5.863 C34.199,6.366 35.206,6.965 36.157,7.658" id="Fill-4006" fill="#A2C9ED" sketch:type="MSShapeGroup"></path>
            <path d="M38.661,9.827 C39.001,10.18 39.329,10.546 39.642,10.924 C39.329,10.545 39.002,10.18 38.661,9.827" id="Fill-4007" fill="#A2C9ED" sketch:type="MSShapeGroup"></path>
            <path d="M26,23 L33.111,23 L34.222,21 L27.414,21 L38.623,9.791 C38.158,9.312 37.665,8.862 37.152,8.434 L25,20.586 L22.719,18.305 L21.709,20.123 L22.586,21 L21.222,21 L20.111,23 L24,23 L24,35 L13.444,35 L12.333,37 L24,37 L24,39.4 L26.444,35 L26,35 L26,23" id="Fill-4008" fill="#684233" sketch:type="MSShapeGroup"></path>
            <path d="M30.248,4.754 L30.246,4.758 C30.364,4.792 30.48,4.833 30.598,4.869 C30.48,4.833 30.366,4.788 30.248,4.754" id="Fill-4009" fill="#A2C9ED" sketch:type="MSShapeGroup"></path>
            <path d="M36.235,7.715 C36.545,7.943 36.848,8.18 37.145,8.428 C36.849,8.181 36.546,7.943 36.235,7.715" id="Fill-4010" fill="#A2C9ED" sketch:type="MSShapeGroup"></path>
            <path d="M39.751,11.048 C39.723,11.014 39.692,10.983 39.664,10.949 C39.692,10.984 39.717,11.022 39.746,11.057 L39.751,11.048" id="Fill-4011" fill="#A2C9ED" sketch:type="MSShapeGroup"></path>
        </g>
    </g>
</svg>