<?xml version="1.0" encoding="UTF-8" standalone="no"?>
<svg width="58px" height="55px" viewBox="0 0 58 55" version="1.1" xmlns="http://www.w3.org/2000/svg" xmlns:xlink="http://www.w3.org/1999/xlink" xmlns:sketch="http://www.bohemiancoding.com/sketch/ns">
    <!-- Generator: Sketch 3.2.2 (9983) - http://www.bohemiancoding.com/sketch -->
    <title>199 - Armchair (Flat)</title>
    <desc>Created with Sketch.</desc>
    <defs></defs>
    <g id="Page-1" stroke="none" stroke-width="1" fill="none" fill-rule="evenodd" sketch:type="MSPage">
        <g id="199---Armchair-(Flat)" sketch:type="MSLayerGroup">
            <path d="M9,22.055 L11.306,32.282 C11.796,34.456 13.727,36 15.955,36 L42.295,36 C44.506,36 46.427,34.479 46.934,32.326 L48.911,23.934 C49.211,22.794 50.241,22 51.42,22 L52,22 L52,21 C52,9.402 42.598,0 31,0 L27,0 C15.402,0 6,9.402 6,21 L7.329,21 C7.972,21 8.534,21.433 9,22.055" id="Fill-434" fill="#30773A" sketch:type="MSShapeGroup"></path>
            <path d="M9,22.055 L11.306,32.282 C11.796,34.456 13.727,36 15.955,36 L42.295,36 C44.506,36 46.427,34.479 46.934,32.326 L48.911,23.934 C49.211,22.794 50.241,22 51.42,22 L52,22 L52,21 C52,9.402 42.598,0 31,0 L27,0 C15.402,0 6,9.402 6,21 L7.329,21 C7.972,21 8.534,21.433 9,22.055" id="Fill-434" fill="#30773A" sketch:type="MSShapeGroup"></path>
            <path d="M44,46 L46,55 L48.625,55 L47.75,46 L44,46" id="Fill-723" fill="#C19B5A" sketch:type="MSShapeGroup"></path>
            <path d="M14,46 L12,55 L9.375,55 L10.25,46 L14,46" id="Fill-724" fill="#C19B5A" sketch:type="MSShapeGroup"></path>
            <path d="M24.707,12.293 C24.316,11.902 23.684,11.902 23.293,12.293 L22.365,13.221 C21.509,12.82 20.491,12.82 19.635,13.221 L18.707,12.293 C18.316,11.902 17.684,11.902 17.293,12.293 C16.902,12.684 16.902,13.316 17.293,13.707 L18.212,14.626 C17.787,15.493 17.787,16.507 18.212,17.373 L17.293,18.293 C16.902,18.684 16.902,19.316 17.293,19.707 C17.488,19.902 17.744,20 18,20 C18.256,20 18.512,19.902 18.707,19.707 L19.625,18.789 C20.049,18.999 20.513,19.122 21,19.122 C21.487,19.122 21.951,18.999 22.375,18.789 L23.293,19.707 C23.488,19.902 23.744,20 24,20 C24.256,20 24.512,19.902 24.707,19.707 C25.098,19.316 25.098,18.684 24.707,18.293 L23.787,17.373 C24.213,16.507 24.213,15.493 23.787,14.626 L24.707,13.707 C25.098,13.316 25.098,12.684 24.707,12.293 L24.707,12.293 Z M20.207,16.793 C19.77,16.355 19.77,15.644 20.207,15.207 C20.419,14.995 20.701,14.878 21,14.878 C21.299,14.878 21.581,14.995 21.793,15.207 C22.23,15.644 22.23,16.355 21.793,16.793 C21.369,17.217 20.631,17.217 20.207,16.793 L20.207,16.793 Z" id="Fill-725" fill="#143C1B" sketch:type="MSShapeGroup"></path>
            <path d="M39.787,17.373 C40.213,16.507 40.213,15.493 39.787,14.626 L40.707,13.707 C41.098,13.316 41.098,12.684 40.707,12.293 C40.316,11.902 39.684,11.902 39.293,12.293 L38.365,13.221 C37.509,12.82 36.491,12.82 35.635,13.221 L34.707,12.293 C34.316,11.902 33.684,11.902 33.293,12.293 C32.902,12.684 32.902,13.316 33.293,13.707 L34.212,14.626 C33.787,15.493 33.787,16.507 34.212,17.373 L33.293,18.293 C32.902,18.684 32.902,19.316 33.293,19.707 C33.488,19.902 33.744,20 34,20 C34.256,20 34.512,19.902 34.707,19.707 L35.625,18.789 C36.049,18.999 36.513,19.122 37,19.122 C37.487,19.122 37.951,18.999 38.375,18.789 L39.293,19.707 C39.488,19.902 39.744,20 40,20 C40.256,20 40.512,19.902 40.707,19.707 C41.098,19.316 41.098,18.684 40.707,18.293 L39.787,17.373 L39.787,17.373 Z M36.207,16.793 C35.77,16.355 35.77,15.644 36.207,15.207 C36.419,14.995 36.701,14.878 37,14.878 C37.299,14.878 37.581,14.995 37.793,15.207 C38.23,15.644 38.23,16.355 37.793,16.793 C37.369,17.217 36.631,17.217 36.207,16.793 L36.207,16.793 Z" id="Fill-726" fill="#143C1B" sketch:type="MSShapeGroup"></path>
            <path d="M51.42,22 C50.241,22 49.211,22.794 48.911,23.934 L46.934,32.326 C46.427,34.479 44.506,36 42.295,36 L15.955,36 C13.727,36 11.796,34.456 11.306,32.282 L9,22.055 C8.534,21.433 7.972,21 7.329,21 L2.079,21 C0.608,21 -0.394,22.49 0.161,23.851 L7,43.652 C7.364,45.036 8.615,46 10.046,46 L47.954,46 C49.385,46 50.636,45.036 51,43.652 L57.842,24.699 C58.39,23.421 57.453,22 56.063,22 L51.42,22" id="Fill-729" fill="#3C8D43" sketch:type="MSShapeGroup"></path>
            <path d="M51.42,22 C50.241,22 49.211,22.794 48.911,23.934 L46.934,32.326 C46.427,34.479 44.506,36 42.295,36 L15.955,36 C13.727,36 11.796,34.456 11.306,32.282 L9,22.055 C8.534,21.433 7.972,21 7.329,21 L2.079,21 C0.608,21 -0.394,22.49 0.161,23.851 L7,43.652 C7.364,45.036 8.615,46 10.046,46 L47.954,46 C49.385,46 50.636,45.036 51,43.652 L57.842,24.699 C58.39,23.421 57.453,22 56.063,22 L51.42,22" id="Fill-729" fill="#3C8D43" sketch:type="MSShapeGroup"></path>
            <path d="M15.955,36 L42.295,36 C43.66,36 44.913,35.417 45.793,34.466 C45.11,31.904 42.77,30 40,30 L18,30 C15.311,30 13.034,31.797 12.278,34.246 C13.161,35.323 14.489,36 15.955,36" id="Fill-730" fill="#23A24D" sketch:type="MSShapeGroup"></path>
        </g>
    </g>
</svg>