<?xml version="1.0" encoding="UTF-8" standalone="no"?>
<svg width="58px" height="58px" viewBox="0 0 58 58" version="1.1" xmlns="http://www.w3.org/2000/svg" xmlns:xlink="http://www.w3.org/1999/xlink" xmlns:sketch="http://www.bohemiancoding.com/sketch/ns">
    <!-- Generator: Sketch 3.2.2 (9983) - http://www.bohemiancoding.com/sketch -->
    <title>96 - Backdoor (Flat)</title>
    <desc>Created with Sketch.</desc>
    <defs></defs>
    <g id="Page-1" stroke="none" stroke-width="1" fill="none" fill-rule="evenodd" sketch:type="MSPage">
        <g id="96---Backdoor-(Flat)" sketch:type="MSLayerGroup">
            <path d="M50,46 L50,38" id="Stroke-60" stroke="#6C4126" stroke-width="2" stroke-linecap="round" sketch:type="MSShapeGroup"></path>
            <path d="M3,0 L39,0 L39,58 L3,58 L3,0 Z" id="Fill-363" fill="#6B5B4B" sketch:type="MSShapeGroup"></path>
            <path d="M45,46 L55,46 L55,49 L45,49 L45,46 Z" id="Fill-2449" fill="#6B5B4B" sketch:type="MSShapeGroup"></path>
            <path d="M46,49 L54,49 L54,58 L46,58 L46,49 Z" id="Fill-2450" fill="#BFA380" sketch:type="MSShapeGroup"></path>
            <path d="M39,52 L46,52 L46,58 L39,58 L39,52 Z" id="Fill-2481" fill="#C7CBC7" sketch:type="MSShapeGroup"></path>
            <path d="M54,52 L58,52 L58,58 L54,58 L54,52 Z" id="Fill-2482" fill="#C7CBC7" sketch:type="MSShapeGroup"></path>
            <path d="M0,52 L3,52 L3,58 L0,58 L0,52 Z" id="Fill-2483" fill="#C7CBC7" sketch:type="MSShapeGroup"></path>
            <path d="M6,3 L36,3 L36,58 L6,58 L6,3 Z" id="Fill-3684" fill="#BFA380" sketch:type="MSShapeGroup"></path>
            <path d="M10,7 L32,7 L32,37 L10,37 L10,7 Z" id="Fill-3685" fill="#D1C17C" sketch:type="MSShapeGroup"></path>
            <path d="M10,7 L32,7 L32,37 L10,37 L10,7 Z" id="Stroke-3686" stroke="#6B5B4B" stroke-width="2" stroke-linecap="round" sketch:type="MSShapeGroup"></path>
            <path d="M10,41 L32,41 L32,54 L10,54 L10,41 Z" id="Fill-3687" fill="#DDBB92" sketch:type="MSShapeGroup"></path>
            <path d="M10,27 L32,27" id="Fill-3688" fill="#D1C17C" sketch:type="MSShapeGroup"></path>
            <path d="M10,27 L32,27" id="Stroke-3689" stroke="#6B5B4B" stroke-width="2" stroke-linecap="round" sketch:type="MSShapeGroup"></path>
            <path d="M10,17 L32,17" id="Fill-3690" fill="#D1C17C" sketch:type="MSShapeGroup"></path>
            <path d="M10,17 L32,17" id="Stroke-3691" stroke="#6B5B4B" stroke-width="2" stroke-linecap="round" sketch:type="MSShapeGroup"></path>
            <path d="M21,7 L21,37" id="Fill-3692" fill="#D1C17C" sketch:type="MSShapeGroup"></path>
            <path d="M21,7 L21,37" id="Stroke-3693" stroke="#6B5B4B" stroke-width="2" stroke-linecap="round" sketch:type="MSShapeGroup"></path>
            <path d="M54.188,28.462 C54.492,27.693 54.709,26.837 54.545,26.018 C54.473,25.663 54.311,25.322 54.089,25.053 C53.714,24.597 53.55,23.944 53.679,23.342 C53.801,22.772 53.728,22.132 53.463,21.621 C52.98,20.69 52.019,20.169 51.063,20.033 C50.361,19.934 49.586,20.04 49.067,20.577 L48.448,21.11 C47.746,21.442 47.208,22.174 47.054,23.007 C46.971,23.459 47.002,23.933 47.131,24.371 C47.325,25.024 47.164,25.729 46.793,26.279 C45.957,27.515 45.736,29.286 46.352,30.688 C46.43,30.866 46.531,31.042 46.649,31.201 C47.052,31.744 47.205,32.464 47.036,33.144 C46.997,33.3 46.97,33.46 46.956,33.619 C46.89,34.346 47.038,35.074 47.188,35.786 C47.344,36.526 47.536,37.325 48.076,37.789 C48.808,38.417 49.869,38.174 50.707,37.741 C51.891,37.13 52.987,36.124 53.404,34.744 C53.648,33.94 53.59,33.005 53.264,32.249 C52.933,31.485 52.933,30.578 53.412,29.919 C53.73,29.481 53.985,28.976 54.188,28.462" id="Fill-3972" fill="#23A24D" sketch:type="MSShapeGroup"></path>
        </g>
    </g>
</svg>