<?xml version="1.0" encoding="UTF-8" standalone="no"?>
<svg width="60px" height="60px" viewBox="0 0 60 60" version="1.1" xmlns="http://www.w3.org/2000/svg" xmlns:xlink="http://www.w3.org/1999/xlink" xmlns:sketch="http://www.bohemiancoding.com/sketch/ns">
    <!-- Generator: Sketch 3.2.2 (9983) - http://www.bohemiancoding.com/sketch -->
    <title>40 - Bath Tub (Flat)</title>
    <desc>Created with Sketch.</desc>
    <defs></defs>
    <g id="Page-1" stroke="none" stroke-width="1" fill="none" fill-rule="evenodd" sketch:type="MSPage">
        <g id="40---Bath-Tub-(Flat)" sketch:type="MSLayerGroup" transform="translate(1.000000, 0.000000)">
            <path d="M14,59 L11,59 L11,55 L16,55 L14,59" id="Fill-2763" fill="#556080" sketch:type="MSShapeGroup"></path>
            <path d="M44,59 L47,59 L47,55 L42,55 L44,59" id="Fill-2764" fill="#556080" sketch:type="MSShapeGroup"></path>
            <path d="M55,34 C54.448,34 54,33.553 54,33 L54,2.417 C54,2.177 53.84,2.074 53.744,2.034 C53.649,1.996 53.462,1.954 53.292,2.124 L50.05,5.366 C49.66,5.757 49.027,5.757 48.636,5.366 C48.246,4.976 48.246,4.343 48.636,3.952 L51.878,0.71 C52.571,0.018 53.605,-0.187 54.51,0.186 C55.415,0.561 56,1.437 56,2.417 L56,33 C56,33.553 55.552,34 55,34" id="Fill-2765" fill="#BDC3C7" sketch:type="MSShapeGroup"></path>
            <path d="M0,59 L58,59" id="Stroke-2766" stroke="#556080" stroke-width="2" stroke-linecap="round" stroke-linejoin="round" sketch:type="MSShapeGroup"></path>
            <path d="M46,12 L46,29 M40,8 L18.5,29.5 M43,11 L33,29" id="Stroke-2784" stroke="#0F81E0" stroke-width="2" stroke-linecap="round" stroke-dasharray="1,3" sketch:type="MSShapeGroup"></path>
            <path d="M11,33 L2,33 C0.9,33 0,33.9 0,35 C0,36.1 0.9,37 2,37 L11,37 L11,33" id="Fill-2873" fill="#EBECF0" sketch:type="MSShapeGroup"></path>
            <path d="M56,33 L22,33 L22,37 L56,37 C57.1,37 58,36.1 58,35 C58,33.9 57.1,33 56,33" id="Fill-2874" fill="#EBECF0" sketch:type="MSShapeGroup"></path>
            <path d="M22,37 L22,48 L11,48 L11,37 L2,37 L5.722,50.399 C6.477,53.118 8.953,55 11.775,55 L46.225,55 C49.047,55 51.523,53.118 52.278,50.399 L56,37 L22,37" id="Fill-2875" fill="#D6D9DF" sketch:type="MSShapeGroup"></path>
            <path d="M49.509,11.565 L42.437,4.494 C44.299,2.633 47.317,2.633 49.178,4.494 L49.509,4.825 C51.37,6.686 51.37,9.704 49.509,11.565" id="Fill-3942" fill="#7383BF" sketch:type="MSShapeGroup"></path>
            <path d="M11,31 L22,31 L22,48 L11,48 L11,31 Z" id="Fill-3943" fill="#25B99A" sketch:type="MSShapeGroup"></path>
            <path d="M11,44 L22,44 L22,48 L11,48 L11,44 Z" id="Fill-3944" fill="#199172" sketch:type="MSShapeGroup"></path>
        </g>
    </g>
</svg>