<?xml version="1.0" encoding="UTF-8" standalone="no"?>
<svg width="58px" height="43px" viewBox="0 0 58 43" version="1.1" xmlns="http://www.w3.org/2000/svg" xmlns:xlink="http://www.w3.org/1999/xlink" xmlns:sketch="http://www.bohemiancoding.com/sketch/ns">
    <!-- Generator: Sketch 3.2.2 (9983) - http://www.bohemiancoding.com/sketch -->
    <title>138 - Bed (Flat)</title>
    <desc>Created with Sketch.</desc>
    <defs></defs>
    <g id="Page-1" stroke="none" stroke-width="1" fill="none" fill-rule="evenodd" sketch:type="MSPage">
        <g id="138---Bed-(Flat)" sketch:type="MSLayerGroup">
            <path d="M0,6.104 L0,25.181 C0,23.982 0.982,23 2.181,23 L55.818,23 C57.018,23 58,23.982 58,25.181 L58,6.104 C58,2.733 55.267,0 51.895,0 L6.104,0 C2.733,0 0,2.733 0,6.104" id="Fill-414" fill="#B12621" sketch:type="MSShapeGroup"></path>
            <path d="M2,40 L9,40 L9,43 L2,43 L2,40 Z" id="Fill-1686" fill="#774836" sketch:type="MSShapeGroup"></path>
            <path d="M49,40 L56,40 L56,43 L49,43 L49,40 Z" id="Fill-1687" fill="#774836" sketch:type="MSShapeGroup"></path>
            <path d="M55.818,33 L2.181,33 C0.982,33 0,32.018 0,30.818 L0,25.181 C0,23.982 0.982,23 2.181,23 L55.818,23 C57.018,23 58,23.982 58,25.181 L58,30.818 C58,32.018 57.018,33 55.818,33" id="Fill-1688" fill="#BCB3AA" sketch:type="MSShapeGroup"></path>
            <path d="M55.818,40 L2.181,40 C0.982,40 0,39.018 0,37.818 L0,35.181 C0,33.982 0.982,33 2.181,33 L55.818,33 C57.018,33 58,33.982 58,35.181 L58,37.818 C58,39.018 57.018,40 55.818,40" id="Fill-1689" fill="#553323" sketch:type="MSShapeGroup"></path>
            <path d="M5,4 C4.448,4 4,4.448 4,5 C4,5.552 4.448,6 5,6 C5.552,6 6,5.552 6,5 C6,4.448 5.552,4 5,4" id="Fill-1690" fill="#DD342E" sketch:type="MSShapeGroup"></path>
            <path d="M8,1 C7.448,1 7,1.448 7,2 C7,2.552 7.448,3 8,3 C8.552,3 9,2.552 9,2 C9,1.448 8.552,1 8,1" id="Fill-1691" fill="#DD342E" sketch:type="MSShapeGroup"></path>
            <path d="M2,7 C1.448,7 1,7.448 1,8 C1,8.552 1.448,9 2,9 C2.552,9 3,8.552 3,8 C3,7.448 2.552,7 2,7" id="Fill-1692" fill="#DD342E" sketch:type="MSShapeGroup"></path>
            <path d="M8,7 C7.448,7 7,7.448 7,8 C7,8.552 7.448,9 8,9 C8.552,9 9,8.552 9,8 C9,7.448 8.552,7 8,7" id="Fill-1693" fill="#DD342E" sketch:type="MSShapeGroup"></path>
            <path d="M11,4 C10.448,4 10,4.448 10,5 C10,5.552 10.448,6 11,6 C11.552,6 12,5.552 12,5 C12,4.448 11.552,4 11,4" id="Fill-1694" fill="#DD342E" sketch:type="MSShapeGroup"></path>
            <path d="M17,4 C16.448,4 16,4.448 16,5 C16,5.552 16.448,6 17,6 C17.552,6 18,5.552 18,5 C18,4.448 17.552,4 17,4" id="Fill-1695" fill="#DD342E" sketch:type="MSShapeGroup"></path>
            <path d="M14,1 C13.448,1 13,1.448 13,2 C13,2.552 13.448,3 14,3 C14.552,3 15,2.552 15,2 C15,1.448 14.552,1 14,1" id="Fill-1696" fill="#DD342E" sketch:type="MSShapeGroup"></path>
            <path d="M20,1 C19.448,1 19,1.448 19,2 C19,2.552 19.448,3 20,3 C20.552,3 21,2.552 21,2 C21,1.448 20.552,1 20,1" id="Fill-1697" fill="#DD342E" sketch:type="MSShapeGroup"></path>
            <path d="M20,7 C19.448,7 19,7.448 19,8 C19,8.552 19.448,9 20,9 C20.552,9 21,8.552 21,8 C21,7.448 20.552,7 20,7" id="Fill-1698" fill="#DD342E" sketch:type="MSShapeGroup"></path>
            <path d="M23,4 C22.448,4 22,4.448 22,5 C22,5.552 22.448,6 23,6 C23.552,6 24,5.552 24,5 C24,4.448 23.552,4 23,4" id="Fill-1699" fill="#DD342E" sketch:type="MSShapeGroup"></path>
            <path d="M29,4 C28.448,4 28,4.448 28,5 C28,5.552 28.448,6 29,6 C29.552,6 30,5.552 30,5 C30,4.448 29.552,4 29,4" id="Fill-1700" fill="#DD342E" sketch:type="MSShapeGroup"></path>
            <path d="M26,1 C25.448,1 25,1.448 25,2 C25,2.552 25.448,3 26,3 C26.552,3 27,2.552 27,2 C27,1.448 26.552,1 26,1" id="Fill-1701" fill="#DD342E" sketch:type="MSShapeGroup"></path>
            <path d="M32,1 C31.448,1 31,1.448 31,2 C31,2.552 31.448,3 32,3 C32.552,3 33,2.552 33,2 C33,1.448 32.552,1 32,1" id="Fill-1702" fill="#DD342E" sketch:type="MSShapeGroup"></path>
            <path d="M26,7 C25.448,7 25,7.448 25,8 C25,8.552 25.448,9 26,9 C26.552,9 27,8.552 27,8 C27,7.448 26.552,7 26,7" id="Fill-1703" fill="#DD342E" sketch:type="MSShapeGroup"></path>
            <path d="M32,7 C31.448,7 31,7.448 31,8 C31,8.552 31.448,9 32,9 C32.552,9 33,8.552 33,8 C33,7.448 32.552,7 32,7" id="Fill-1704" fill="#DD342E" sketch:type="MSShapeGroup"></path>
            <path d="M35,4 C34.448,4 34,4.448 34,5 C34,5.552 34.448,6 35,6 C35.552,6 36,5.552 36,5 C36,4.448 35.552,4 35,4" id="Fill-1705" fill="#DD342E" sketch:type="MSShapeGroup"></path>
            <path d="M41,4 C40.448,4 40,4.448 40,5 C40,5.552 40.448,6 41,6 C41.552,6 42,5.552 42,5 C42,4.448 41.552,4 41,4" id="Fill-1706" fill="#DD342E" sketch:type="MSShapeGroup"></path>
            <path d="M38,1 C37.448,1 37,1.448 37,2 C37,2.552 37.448,3 38,3 C38.552,3 39,2.552 39,2 C39,1.448 38.552,1 38,1" id="Fill-1707" fill="#DD342E" sketch:type="MSShapeGroup"></path>
            <path d="M44,1 C43.448,1 43,1.448 43,2 C43,2.552 43.448,3 44,3 C44.552,3 45,2.552 45,2 C45,1.448 44.552,1 44,1" id="Fill-1708" fill="#DD342E" sketch:type="MSShapeGroup"></path>
            <path d="M38,7 C37.448,7 37,7.448 37,8 C37,8.552 37.448,9 38,9 C38.552,9 39,8.552 39,8 C39,7.448 38.552,7 38,7" id="Fill-1709" fill="#DD342E" sketch:type="MSShapeGroup"></path>
            <path d="M47,4 C46.448,4 46,4.448 46,5 C46,5.552 46.448,6 47,6 C47.552,6 48,5.552 48,5 C48,4.448 47.552,4 47,4" id="Fill-1710" fill="#DD342E" sketch:type="MSShapeGroup"></path>
            <path d="M53,4 C52.448,4 52,4.448 52,5 C52,5.552 52.448,6 53,6 C53.552,6 54,5.552 54,5 C54,4.448 53.552,4 53,4" id="Fill-1711" fill="#DD342E" sketch:type="MSShapeGroup"></path>
            <path d="M5,10 C4.448,10 4,10.448 4,11 C4,11.552 4.448,12 5,12 C5.552,12 6,11.552 6,11 C6,10.448 5.552,10 5,10" id="Fill-1712" fill="#DD342E" sketch:type="MSShapeGroup"></path>
            <path d="M23,10 C22.448,10 22,10.448 22,11 C22,11.552 22.448,12 23,12 C23.552,12 24,11.552 24,11 C24,10.448 23.552,10 23,10" id="Fill-1713" fill="#DD342E" sketch:type="MSShapeGroup"></path>
            <path d="M29,10 C28.448,10 28,10.448 28,11 C28,11.552 28.448,12 29,12 C29.552,12 30,11.552 30,11 C30,10.448 29.552,10 29,10" id="Fill-1714" fill="#DD342E" sketch:type="MSShapeGroup"></path>
            <path d="M35,10 C34.448,10 34,10.448 34,11 C34,11.552 34.448,12 35,12 C35.552,12 36,11.552 36,11 C36,10.448 35.552,10 35,10" id="Fill-1715" fill="#DD342E" sketch:type="MSShapeGroup"></path>
            <path d="M53,10 C52.448,10 52,10.448 52,11 C52,11.552 52.448,12 53,12 C53.552,12 54,11.552 54,11 C54,10.448 53.552,10 53,10" id="Fill-1716" fill="#DD342E" sketch:type="MSShapeGroup"></path>
            <path d="M50,1 C49.448,1 49,1.448 49,2 C49,2.552 49.448,3 50,3 C50.552,3 51,2.552 51,2 C51,1.448 50.552,1 50,1" id="Fill-1717" fill="#DD342E" sketch:type="MSShapeGroup"></path>
            <path d="M50,7 C49.448,7 49,7.448 49,8 C49,8.552 49.448,9 50,9 C50.552,9 51,8.552 51,8 C51,7.448 50.552,7 50,7" id="Fill-1718" fill="#DD342E" sketch:type="MSShapeGroup"></path>
            <path d="M56,9 C56.552,9 57,8.552 57,8 C57,7.448 56.552,7 56,7 C55.448,7 55,7.448 55,8 C55,8.552 55.448,9 56,9" id="Fill-1719" fill="#DD342E" sketch:type="MSShapeGroup"></path>
            <path d="M2,13 C1.448,13 1,13.448 1,14 C1,14.552 1.448,15 2,15 C2.552,15 3,14.552 3,14 C3,13.448 2.552,13 2,13" id="Fill-1720" fill="#DD342E" sketch:type="MSShapeGroup"></path>
            <path d="M2,19 C1.448,19 1,19.448 1,20 C1,20.552 1.448,21 2,21 C2.552,21 3,20.552 3,20 C3,19.448 2.552,19 2,19" id="Fill-1721" fill="#DD342E" sketch:type="MSShapeGroup"></path>
            <path d="M26,13 C25.448,13 25,13.448 25,14 C25,14.552 25.448,15 26,15 C26.552,15 27,14.552 27,14 C27,13.448 26.552,13 26,13" id="Fill-1722" fill="#DD342E" sketch:type="MSShapeGroup"></path>
            <path d="M32,13 C31.448,13 31,13.448 31,14 C31,14.552 31.448,15 32,15 C32.552,15 33,14.552 33,14 C33,13.448 32.552,13 32,13" id="Fill-1723" fill="#DD342E" sketch:type="MSShapeGroup"></path>
            <path d="M56,13 C55.448,13 55,13.448 55,14 C55,14.552 55.448,15 56,15 C56.552,15 57,14.552 57,14 C57,13.448 56.552,13 56,13" id="Fill-1724" fill="#DD342E" sketch:type="MSShapeGroup"></path>
            <path d="M56,19 C55.448,19 55,19.448 55,20 C55,20.552 55.448,21 56,21 C56.552,21 57,20.552 57,20 C57,19.448 56.552,19 56,19" id="Fill-1725" fill="#DD342E" sketch:type="MSShapeGroup"></path>
            <path d="M56,23 L2,23 C2,19.686 4.686,17 8,17 L50,17 C53.314,17 56,19.686 56,23" id="Fill-4058" fill="#F6EEE4" sketch:type="MSShapeGroup"></path>
            <path d="M22.163,17 C23.291,15.803 23.276,13.922 22.105,12.751 L17.249,7.894 C16.056,6.702 14.122,6.702 12.929,7.894 L8.073,12.751 C6.902,13.922 6.888,15.803 8.015,17 L22.163,17" id="Fill-4059" fill="#FCCF9D" sketch:type="MSShapeGroup"></path>
            <path d="M48.985,17 C50.112,15.803 50.098,13.922 48.927,12.751 L44.071,7.894 C42.878,6.702 40.944,6.702 39.751,7.894 L34.894,12.751 C33.724,13.922 33.709,15.803 34.837,17 L48.985,17" id="Fill-4060" fill="#FCCF9D" sketch:type="MSShapeGroup"></path>
        </g>
    </g>
</svg>