<?xml version="1.0" encoding="UTF-8" standalone="no"?>
<svg width="41px" height="56px" viewBox="0 0 41 56" version="1.1" xmlns="http://www.w3.org/2000/svg" xmlns:xlink="http://www.w3.org/1999/xlink" xmlns:sketch="http://www.bohemiancoding.com/sketch/ns">
    <!-- Generator: Sketch 3.2.2 (9983) - http://www.bohemiancoding.com/sketch -->
    <title>11 - Blender (Flat)</title>
    <desc>Created with Sketch.</desc>
    <defs></defs>
    <g id="Page-1" stroke="none" stroke-width="1" fill="none" fill-rule="evenodd" sketch:type="MSPage">
        <g id="11---Blender-(Flat)" sketch:type="MSLayerGroup">
            <path d="M3,42 L31,42 L31,53 L3,53 L3,42 Z" id="Fill-3473" fill="#839494" sketch:type="MSShapeGroup"></path>
            <path d="M30.646,8.007 L31,4 L3,4 L3,10 L0,12 L0,15 C2.761,15 5,17.239 5,20 L5,38 L28,38 L28.807,28.851 C29.36,28.941 29.922,29 30.5,29 C36.299,29 41,24.299 41,18.5 C41,12.75 36.377,8.086 30.646,8.007 L30.646,8.007 Z M30.5,25 C30.04,25 29.592,24.951 29.159,24.86 L30.293,12.01 C30.363,12.008 30.43,12 30.5,12 C34.09,12 37,14.91 37,18.5 C37,22.09 34.09,25 30.5,25 L30.5,25 Z" id="Fill-3474" fill="#7383BF" sketch:type="MSShapeGroup"></path>
            <path d="M29,4 L6,4 L6,2.67 C6,1.196 7.196,0 8.67,0 L26.33,0 C27.804,0 29,1.196 29,2.67 L29,4" id="Fill-3475" fill="#556080" sketch:type="MSShapeGroup"></path>
            <path d="M6,4 L29,4 L29,5.33 C29,6.804 27.804,8 26.33,8 L8.67,8 C7.196,8 6,6.804 6,5.33 L6,4" id="Fill-3476" fill="#38454F" sketch:type="MSShapeGroup"></path>
            <path d="M13,30 L21,30 L21,38 L13,38 L13,30 Z" id="Fill-3477" fill="#38454F" sketch:type="MSShapeGroup"></path>
            <path d="M9,30 C9,32.211 10.789,34 13,34 M25,30 C25,32.211 23.211,34 21,34 M13,36 L21,33" id="Stroke-3478" stroke="#556080" stroke-width="2" stroke-linecap="round" stroke-linejoin="round" sketch:type="MSShapeGroup"></path>
            <path d="M4,38 L30,38 L30,42 L4,42 L4,38 Z" id="Fill-3479" fill="#C7CBC7" sketch:type="MSShapeGroup"></path>
            <path d="M6,53 L10,53 L10,56 L6,56 L6,53 Z" id="Fill-3480" fill="#556080" sketch:type="MSShapeGroup"></path>
            <path d="M24,53 L28,53 L28,56 L24,56 L24,53 Z" id="Fill-3481" fill="#556080" sketch:type="MSShapeGroup"></path>
            <path d="M14,47.5 C14,49.433 12.433,51 10.5,51 C8.567,51 7,49.433 7,47.5 C7,45.567 8.567,44 10.5,44 C12.433,44 14,45.567 14,47.5" id="Fill-3482" fill="#FFFFFF" sketch:type="MSShapeGroup"></path>
            <path d="M18,46 L21,46 L21,49 L18,49 L18,46 Z" id="Fill-3483" fill="#FFFFFF" sketch:type="MSShapeGroup"></path>
            <path d="M24,46 L27,46 L27,49 L24,49 L24,46 Z" id="Fill-3484" fill="#FFFFFF" sketch:type="MSShapeGroup"></path>
        </g>
    </g>
</svg>