<?xml version="1.0" encoding="UTF-8" standalone="no"?>
<svg width="58px" height="58px" viewBox="0 0 58 58" version="1.1" xmlns="http://www.w3.org/2000/svg" xmlns:xlink="http://www.w3.org/1999/xlink" xmlns:sketch="http://www.bohemiancoding.com/sketch/ns">
    <!-- Generator: Sketch 3.2.2 (9983) - http://www.bohemiancoding.com/sketch -->
    <title>45 - Bonsai (Flat)</title>
    <desc>Created with Sketch.</desc>
    <defs></defs>
    <g id="Page-1" stroke="none" stroke-width="1" fill="none" fill-rule="evenodd" sketch:type="MSPage">
        <g id="45---Bonsai-(Flat)" sketch:type="MSLayerGroup">
            <path d="M4,44 L54,44 L54,48 L4,48 L4,44 Z" id="Fill-2892" fill="#C7CBC7" sketch:type="MSShapeGroup"></path>
            <path d="M48.064,55 L9.935,55 C7.762,55 6,53.238 6,51.064 L6,48 L52,48 L52,51.064 C52,53.238 50.238,55 48.064,55" id="Fill-2893" fill="#B0B6BB" sketch:type="MSShapeGroup"></path>
            <path d="M12,55 L18,55 L18,58 L12,58 L12,55 Z" id="Fill-2894" fill="#C7CBC7" sketch:type="MSShapeGroup"></path>
            <path d="M40,55 L46,55 L46,58 L40,58 L40,55 Z" id="Fill-2895" fill="#C7CBC7" sketch:type="MSShapeGroup"></path>
            <path d="M26.522,16.997 C26.196,16.367 26.364,15.606 26.915,15.159 C27.583,14.616 28,13.852 28,13 C28,11.343 26.433,10 24.5,10 C23.924,10 23.389,10.13 22.909,10.342 C22.559,9.003 21.168,8 19.5,8 C18.477,8 17.565,8.383 16.924,8.983 C16.176,8.161 15.108,7.636 13.909,7.636 C13.091,7.636 12.333,7.882 11.694,8.296 C10.771,6.658 8.855,5.654 6.761,6.11 C5.235,6.443 3.97,7.614 3.495,9.101 C3.172,10.112 3.222,11.076 3.51,11.932 C1.481,12.535 0,14.411 0,16.636 C0,19.347 2.198,21.545 4.909,21.545 C4.984,21.545 5.057,21.537 5.131,21.534 C5.635,22.967 6.986,24 8.591,24 C9.466,24 10.258,23.683 10.886,23.172 C11.866,24.271 13.565,25 15.5,25 C17.446,25 19.153,24.264 20.129,23.154 C20.659,22.552 21.482,22.377 22.211,22.714 C22.609,22.898 23.043,23 23.5,23 C25.433,23 27,21.209 27,19 C27,18.267 26.825,17.584 26.522,16.997" id="Fill-2896" fill="#42B05C" sketch:type="MSShapeGroup"></path>
            <path d="M13,28 L13,24.555 C12.141,24.234 11.409,23.759 10.886,23.172 C10.258,23.683 9.466,24 8.591,24 C8.018,24 7.481,23.864 7,23.629 L7,34 C7,35.657 8.343,37 10,37 L12.387,37 C13.289,36.371 14.383,36 15.565,36 C18.014,36 20,34.014 20,31.565 L20,31 L16,31 C14.343,31 13,29.657 13,28" id="Fill-2897" fill="#6B4841" sketch:type="MSShapeGroup"></path>
            <path d="M53.561,12.726 C55.553,12.068 57,10.213 57,8 C57,5.238 54.761,3 52,3 C51.62,3 51.254,3.05 50.899,3.13 C50.501,1.34 48.91,0 47,0 C44.791,0 43,1.791 43,4 C43,4.32 43.047,4.627 43.118,4.925 C42.653,5.254 42.248,5.663 41.919,6.127 C41.912,6.128 41.906,6.129 41.899,6.13 C41.501,4.34 39.91,3 38,3 C35.791,3 34,4.791 34,7 C34,7.32 34.047,7.627 34.118,7.925 C32.84,8.831 32,10.314 32,12 C32,14.761 34.239,17 37,17 C38.448,17 39.742,16.374 40.655,15.391 C40.679,15.403 40.705,15.413 40.729,15.425 C40.271,16.177 40,17.054 40,18 C40,20.761 42.239,23 45,23 C46.448,23 47.742,22.374 48.655,21.391 C49.357,21.767 50.148,22 51,22 C53.761,22 56,19.761 56,17 C56,15.179 55.016,13.601 53.561,12.726" id="Fill-2898" fill="#88C057" sketch:type="MSShapeGroup"></path>
            <path d="M40,18 C40,17.054 40.271,16.177 40.729,15.425 C40.705,15.413 40.679,15.403 40.655,15.391 C39.742,16.374 38.448,17 37,17 C34.239,17 32,14.761 32,12 C32,10.314 32.84,8.831 34.118,7.925 C34.047,7.627 34,7.32 34,7 C34,6.111 34.299,5.299 34.789,4.635 C34.67,3.876 34.332,3.144 33.747,2.559 C32.274,1.086 29.886,1.086 28.413,2.559 C28.395,2.577 28.381,2.596 28.363,2.614 C28.186,2.062 27.881,1.543 27.443,1.104 C25.789,-0.549 22.981,-0.346 21.611,1.715 C20.798,2.937 20.798,4.58 21.6,5.81 C22.101,6.577 22.801,7.083 23.566,7.342 C23.604,7.354 23.616,7.398 23.591,7.428 C22.923,8.242 22.69,9.287 22.881,10.265 C22.889,10.291 22.903,10.315 22.909,10.342 C23.389,10.13 23.924,10 24.5,10 C26.433,10 28,11.343 28,13 C28,13.852 27.583,14.616 26.915,15.159 C26.506,15.491 26.31,15.997 26.369,16.493 C26.407,16.534 26.434,16.581 26.473,16.621 C27.616,17.764 29.309,18.018 30.698,17.387 C30.855,17.316 31.017,17.282 31.181,17.264 C31.743,19.409 33.678,21 36,21 C37.693,21 39.183,20.154 40.087,18.867 C40.038,18.584 40,18.297 40,18" id="Fill-2899" fill="#23A24D" sketch:type="MSShapeGroup"></path>
            <path d="M42.435,36 L33.435,36 C30.986,36 29,34.014 29,31.565 C29,29.044 31.044,27 33.565,27 L40.037,27 C40.028,26.877 40,26.761 40,26.636 C40,24.778 41.04,23.174 42.563,22.341 C41.282,21.62 40.35,20.366 40.087,18.867 C39.183,20.154 37.693,21 36,21 C33.953,21 32.21,19.763 31.44,18 L26.885,18 C26.958,18.319 27,18.653 27,19 C27,21.209 25.433,23 23.5,23 C23.043,23 22.609,22.898 22.211,22.714 C21.482,22.377 20.659,22.552 20.129,23.154 C20.09,23.199 20.042,23.24 20,23.283 L20,31.565 C20,34.014 18.014,36 15.565,36 C12.492,36 10,38.491 10,41.565 L10,44 L48,44 L48,41.565 C48,38.491 45.508,36 42.435,36" id="Fill-2900" fill="#6B5B4B" sketch:type="MSShapeGroup"></path>
            <path d="M13,28 L13,24.555 C12.141,24.234 11.409,23.759 10.886,23.172 C10.258,23.683 9.466,24 8.591,24 C8.018,24 7.481,23.864 7,23.629 L7,34 C7,35.657 8.343,37 10,37 L12.387,37 C13.289,36.371 14.383,36 15.565,36 C18.014,36 20,34.014 20,31.565 L20,31 L16,31 C14.343,31 13,29.657 13,28" id="Fill-2897" fill="#6B4841" sketch:type="MSShapeGroup"></path>
            <path d="M42.435,36 L33.435,36 C30.986,36 29,34.014 29,31.565 C29,29.044 31.044,27 33.565,27 L40.037,27 C40.028,26.877 40,26.761 40,26.636 C40,24.778 41.04,23.174 42.563,22.341 C41.282,21.62 40.35,20.366 40.087,18.867 C39.183,20.154 37.693,21 36,21 C33.953,21 32.21,19.763 31.44,18 L26.885,18 C26.958,18.319 27,18.653 27,19 C27,21.209 25.433,23 23.5,23 C23.043,23 22.609,22.898 22.211,22.714 C21.482,22.377 20.659,22.552 20.129,23.154 C20.09,23.199 20.042,23.24 20,23.283 L20,31.565 C20,34.014 18.014,36 15.565,36 C12.492,36 10,38.491 10,41.565 L10,44 L48,44 L48,41.565 C48,38.491 45.508,36 42.435,36" id="Fill-2900" fill="#6B5B4B" sketch:type="MSShapeGroup"></path>
            <path d="M58,21.727 C58,20.176 57.127,18.843 55.854,18.149 C55.333,20.354 53.364,22 51,22 C50.148,22 49.357,21.767 48.655,21.391 C47.742,22.374 46.448,23 45,23 C44.11,23 43.287,22.748 42.563,22.341 C41.04,23.174 40,24.778 40,26.636 C40,29.348 42.198,31.545 44.909,31.545 C44.984,31.545 45.057,31.538 45.131,31.534 C45.635,32.967 46.986,34 48.591,34 C50.491,34 52.036,32.555 52.233,30.708 C54.997,30.518 57.182,28.221 57.182,25.409 C57.182,25.029 57.14,24.659 57.065,24.301 C57.64,23.596 58,22.708 58,21.727" id="Fill-2901" fill="#61B972" sketch:type="MSShapeGroup"></path>
            <path d="M32,16.5 C32,18.433 30.433,20 28.5,20 C26.567,20 25,18.433 25,16.5 C25,14.567 26.567,13 28.5,13 C30.433,13 32,14.567 32,16.5" id="Fill-3753" fill="#23A24D" sketch:type="MSShapeGroup"></path>
        </g>
    </g>
</svg>