<?xml version="1.0" encoding="UTF-8" standalone="no"?>
<svg width="58px" height="58px" viewBox="0 0 58 58" version="1.1" xmlns="http://www.w3.org/2000/svg" xmlns:xlink="http://www.w3.org/1999/xlink" xmlns:sketch="http://www.bohemiancoding.com/sketch/ns">
    <!-- Generator: Sketch 3.2.2 (9983) - http://www.bohemiancoding.com/sketch -->
    <title>167 - Bookshelf (Flat)</title>
    <desc>Created with Sketch.</desc>
    <defs></defs>
    <g id="Page-1" stroke="none" stroke-width="1" fill="none" fill-rule="evenodd" sketch:type="MSPage">
        <g id="167---Bookshelf-(Flat)" sketch:type="MSLayerGroup" transform="translate(1.000000, 1.000000)">
            <path d="M21,11 L23,11 C24.105,11 25,10.104 25,9 C25,7.895 24.105,7 23,7 L21,7" id="Stroke-305" stroke="#7383BF" stroke-width="2" stroke-linecap="round" sketch:type="MSShapeGroup"></path>
            <path d="M14,42 L28,42 L28,56 L14,56 L14,42 Z M0,42 L14,42 L14,56 L0,56 L0,42 Z M28,42 L42,42 L42,56 L28,56 L28,42 Z M42,42 L56,42 L56,56 L42,56 L42,42 Z M0,28 L14,28 L14,42 L0,42 L0,28 Z M14,28 L28,28 L28,42 L14,42 L14,28 Z M28,28 L42,28 L42,42 L28,42 L28,28 Z M0,14 L14,14 L14,28 L0,28 L0,14 Z M14,14 L28,14 L28,28 L14,28 L14,14 Z M0,0 L14,0 L14,14 L0,14 L0,0 Z" id="Stroke-1308" stroke="#6B5B4B" stroke-width="2" stroke-linecap="round" sketch:type="MSShapeGroup"></path>
            <path d="M7,18 L10,18 L10,27 L7,27 L7,18 Z" id="Fill-1309" fill="#FC3951" sketch:type="MSShapeGroup"></path>
            <path d="M4,18 L7,18 L7,27 L4,27 L4,18 Z" id="Fill-1310" fill="#FBD490" sketch:type="MSShapeGroup"></path>
            <path d="M1,18 L4,18 L4,27 L1,27 L1,18 Z" id="Fill-1311" fill="#7383BF" sketch:type="MSShapeGroup"></path>
            <path d="M35,21 L35,13" id="Stroke-1312" stroke="#88C057" stroke-width="2" stroke-linecap="round" sketch:type="MSShapeGroup"></path>
            <path d="M35,6 L32,6 L32,10 C32,11.65 33.35,13 35,13 L35,6" id="Fill-1313" fill="#DD342E" sketch:type="MSShapeGroup"></path>
            <path d="M35,19 L38,16" id="Stroke-1314" stroke="#88C057" stroke-width="2" stroke-linecap="round" sketch:type="MSShapeGroup"></path>
            <path d="M35,7 L38,7 L38,10 C38,11.65 36.65,13 35,13 L35,7" id="Fill-1315" fill="#B12621" sketch:type="MSShapeGroup"></path>
            <path d="M47,29 L51,29 L51,41 L47,41 L47,29 Z" id="Fill-1316" fill="#EC7937" sketch:type="MSShapeGroup"></path>
            <path d="M43,31 L47,31 L47,41 L43,41 L43,31 Z" id="Fill-1317" fill="#F0CE49" sketch:type="MSShapeGroup"></path>
            <path d="M51,31 L55,31 L55,41 L51,41 L51,31 Z" id="Fill-1318" fill="#88C057" sketch:type="MSShapeGroup"></path>
            <path d="M17,49 L25,49 L25,52 L17,52 L17,49 Z" id="Fill-1319" fill="#6EC98D" sketch:type="MSShapeGroup"></path>
            <path d="M17,46 L25,46 L25,49 L17,49 L17,46 Z" id="Fill-1320" fill="#72A6BF" sketch:type="MSShapeGroup"></path>
            <path d="M17,52 L25,52 L25,55 L17,55 L17,52 Z" id="Fill-1321" fill="#DD342E" sketch:type="MSShapeGroup"></path>
            <path d="M17,6 L22,6 L22,13 L17,13 L17,6 Z" id="Fill-1322" fill="#7383BF" sketch:type="MSShapeGroup"></path>
            <path d="M19.845,0.536 C21.051,1.036 21.051,1.845 19.845,2.345 C18.639,2.845 18.639,3.654 19.845,4.154" id="Stroke-1323" stroke="#C7CBC7" stroke-width="2" stroke-linecap="round" sketch:type="MSShapeGroup"></path>
            <path d="M36.8,21 L33.2,21 C32.917,22.13 32.235,23.088 31.38,23.88 C30.942,24.284 30.705,24.902 30.836,25.563 C31.005,26.417 31.808,27 32.679,27 L37.321,27 C38.192,27 38.994,26.417 39.164,25.563 C39.295,24.902 39.057,24.284 38.62,23.88 C37.765,23.088 37.082,22.13 36.8,21" id="Fill-3723" fill="#C7CBC7" sketch:type="MSShapeGroup"></path>
        </g>
    </g>
</svg>