<?xml version="1.0" encoding="UTF-8" standalone="no"?>
<svg width="46px" height="58px" viewBox="0 0 46 58" version="1.1" xmlns="http://www.w3.org/2000/svg" xmlns:xlink="http://www.w3.org/1999/xlink" xmlns:sketch="http://www.bohemiancoding.com/sketch/ns">
    <!-- Generator: Sketch 3.2.2 (9983) - http://www.bohemiancoding.com/sketch -->
    <title>139 - Cabinet (Flat)</title>
    <desc>Created with Sketch.</desc>
    <defs></defs>
    <g id="Page-1" stroke="none" stroke-width="1" fill="none" fill-rule="evenodd" sketch:type="MSPage">
        <g id="139---Cabinet-(Flat)" sketch:type="MSLayerGroup">
            <path d="M0,54 L0,4.313 C0,1.931 1.931,0 4.313,0 L41.687,0 C44.069,0 46,1.931 46,4.313 L46,54 L0,54" id="Fill-1672" fill="#381F16" sketch:type="MSShapeGroup"></path>
            <path d="M23,51 L3,51 L3,5.451 C3,4.097 4.097,3 5.451,3 L23,3 L23,51 L23,51 Z" id="Fill-1673" fill="#553323" sketch:type="MSShapeGroup"></path>
            <path d="M23,51 L3,51 L3,5.451 C3,4.097 4.097,3 5.451,3 L23,3 L23,51 L23,51 Z" id="Stroke-1674" stroke="#774836" stroke-width="2" stroke-linejoin="round" sketch:type="MSShapeGroup"></path>
            <path d="M5,58 L2,58 L2,54 L7,54 L5,58" id="Fill-1675" fill="#774836" sketch:type="MSShapeGroup"></path>
            <path d="M18,31 C17.448,31 17,30.553 17,30 L17,25 C17,24.447 17.448,24 18,24 C18.552,24 19,24.447 19,25 L19,30 C19,30.553 18.552,31 18,31" id="Fill-1676" fill="#AB8024" sketch:type="MSShapeGroup"></path>
            <path d="M43,51 L23,51 L23,3 L40.549,3 C41.903,3 43,4.097 43,5.451 L43,51 L43,51 Z" id="Fill-1677" fill="#553323" sketch:type="MSShapeGroup"></path>
            <path d="M43,51 L23,51 L23,3 L40.549,3 C41.903,3 43,4.097 43,5.451 L43,51 L43,51 Z" id="Stroke-1678" stroke="#774836" stroke-width="2" stroke-linejoin="round" sketch:type="MSShapeGroup"></path>
            <path d="M43,58 L46,58 L46,54 L41,54 L43,58" id="Fill-1679" fill="#774836" sketch:type="MSShapeGroup"></path>
            <path d="M28,31 C27.448,31 27,30.553 27,30 L27,25 C27,24.447 27.448,24 28,24 C28.552,24 29,24.447 29,25 L29,30 C29,30.553 28.552,31 28,31" id="Fill-1680" fill="#AB8024" sketch:type="MSShapeGroup"></path>
        </g>
    </g>
</svg>