<?xml version="1.0" encoding="UTF-8" standalone="no"?>
<svg width="30px" height="58px" viewBox="0 0 30 58" version="1.1" xmlns="http://www.w3.org/2000/svg" xmlns:xlink="http://www.w3.org/1999/xlink" xmlns:sketch="http://www.bohemiancoding.com/sketch/ns">
    <!-- Generator: Sketch 3.2.2 (9983) - http://www.bohemiancoding.com/sketch -->
    <title>48 - Cactus (Flat)</title>
    <desc>Created with Sketch.</desc>
    <defs></defs>
    <g id="Page-1" stroke="none" stroke-width="1" fill="none" fill-rule="evenodd" sketch:type="MSPage">
        <g id="48---Cactus-(Flat)" sketch:type="MSLayerGroup" transform="translate(1.000000, 0.000000)">
            <path d="M19.212,19.841 C16.732,19.245 15,17.049 15,14.5 C15,12.343 16.274,10.376 18.245,9.488 L18.998,9.148 L18.807,8.344 C17.526,2.964 15.464,0 13,0 C8.453,0 6,10.047 6,19.5 L6.016,20.944 L6.896,21.044 C8.665,21.246 10,22.731 10,24.5 C10,26.034 9.004,27.37 7.522,27.825 L6.667,28.088 L6.833,28.967 C8.037,35.343 10.284,39 13,39 C17.51,39 19.778,29.585 19.978,20.836 L19.997,20.029 L19.212,19.841" id="Fill-194" fill="#61B972" sketch:type="MSShapeGroup"></path>
            <path d="M20.5,7 C16.364,7 13,10.364 13,14.5 C13,18.636 16.364,22 20.5,22 C24.636,22 28,18.636 28,14.5 C28,10.364 24.636,7 20.5,7" id="Fill-195" fill="#42B05C" sketch:type="MSShapeGroup"></path>
            <path d="M6.5,19 C3.467,19 1,21.468 1,24.5 C1,27.532 3.467,30 6.5,30 C9.533,30 12,27.532 12,24.5 C12,21.468 9.533,19 6.5,19" id="Fill-196" fill="#88C057" sketch:type="MSShapeGroup"></path>
            <path d="M10,12 L5,7 M14,6 L19,1 M20,10 L20,5 M16,28 L22,28 M12,33 L5,33 M24,12 L28,8 M24,17 L27.535,20.535 M11,16 L17,16 M5,24 L0,19" id="Stroke-197" stroke="#3D6F44" stroke-width="2" stroke-linecap="round" sketch:type="MSShapeGroup"></path>
            <path d="M1,38 L25,38 L25,44 L1,44 L1,38 Z" id="Fill-2323" fill="#6B4841" sketch:type="MSShapeGroup"></path>
            <path d="M18.385,58 L7.615,58 L3,44 L23,44 L18.385,58" id="Fill-2324" fill="#9E6C53" sketch:type="MSShapeGroup"></path>
            <path d="M14,48 L8,48 C7.448,48 7,47.553 7,47 C7,46.447 7.448,46 8,46 L14,46 C14.552,46 15,46.447 15,47 C15,47.553 14.552,48 14,48" id="Fill-2325" fill="#CE9982" sketch:type="MSShapeGroup"></path>
            <path d="M17,48 C16.74,48 16.48,47.889 16.29,47.71 C16.11,47.519 16,47.26 16,47 C16,46.729 16.11,46.47 16.3,46.29 C16.66,45.93 17.34,45.92 17.71,46.29 C17.89,46.47 18,46.729 18,47 C18,47.26 17.89,47.519 17.71,47.71 C17.52,47.889 17.26,48 17,48" id="Fill-2326" fill="#CE9982" sketch:type="MSShapeGroup"></path>
            <path d="M13,51 L11,51 C10.448,51 10,50.553 10,50 C10,49.447 10.448,49 11,49 L13,49 C13.552,49 14,49.447 14,50 C14,50.553 13.552,51 13,51" id="Fill-2327" fill="#CE9982" sketch:type="MSShapeGroup"></path>
            <path d="M8,51 C7.74,51 7.48,50.889 7.29,50.71 C7.11,50.519 7,50.26 7,50 C7,49.74 7.11,49.479 7.29,49.29 C7.67,48.92 8.34,48.92 8.71,49.29 C8.89,49.479 9,49.74 9,50 C9,50.26 8.89,50.519 8.71,50.71 C8.52,50.889 8.26,51 8,51" id="Fill-2328" fill="#CE9982" sketch:type="MSShapeGroup"></path>
        </g>
    </g>
</svg>