<?xml version="1.0" encoding="UTF-8" standalone="no"?>
<svg width="44px" height="57px" viewBox="0 0 44 57" version="1.1" xmlns="http://www.w3.org/2000/svg" xmlns:xlink="http://www.w3.org/1999/xlink" xmlns:sketch="http://www.bohemiancoding.com/sketch/ns">
    <!-- Generator: Sketch 3.2.2 (9983) - http://www.bohemiancoding.com/sketch -->
    <title>28 - Cooker (Flat)</title>
    <desc>Created with Sketch.</desc>
    <defs></defs>
    <g id="Page-1" stroke="none" stroke-width="1" fill="none" fill-rule="evenodd" sketch:type="MSPage">
        <g id="28---Cooker-(Flat)" sketch:type="MSLayerGroup">
            <path d="M41.33,57 L2.67,57 C1.195,57 0,55.805 0,54.33 L0,4.67 C0,3.195 1.195,2 2.67,2 L41.33,2 C42.805,2 44,3.195 44,4.67 L44,54.33 C44,55.805 42.805,57 41.33,57" id="Fill-3107" fill="#F6EEE4" sketch:type="MSShapeGroup"></path>
            <path d="M10,9 C10,10.657 8.657,12 7,12 C5.343,12 4,10.657 4,9 C4,7.343 5.343,6 7,6 C8.657,6 10,7.343 10,9" id="Fill-3108" fill="#928A7F" sketch:type="MSShapeGroup"></path>
            <path d="M20,9 C20,10.657 18.657,12 17,12 C15.343,12 14,10.657 14,9 C14,7.343 15.343,6 17,6 C18.657,6 20,7.343 20,9" id="Fill-3109" fill="#928A7F" sketch:type="MSShapeGroup"></path>
            <path d="M30,9 C30,10.657 28.657,12 27,12 C25.343,12 24,10.657 24,9 C24,7.343 25.343,6 27,6 C28.657,6 30,7.343 30,9" id="Fill-3110" fill="#928A7F" sketch:type="MSShapeGroup"></path>
            <path d="M40,9 C40,10.657 38.657,12 37,12 C35.343,12 34,10.657 34,9 C34,7.343 35.343,6 37,6 C38.657,6 40,7.343 40,9" id="Fill-3111" fill="#928A7F" sketch:type="MSShapeGroup"></path>
            <path d="M0,16 L44,16 L44,49 L0,49 L0,16 Z" id="Fill-3112" fill="#BCB3AA" sketch:type="MSShapeGroup"></path>
            <path d="M13,2 L5,2 C4.448,2 4,1.553 4,1 C4,0.447 4.448,0 5,0 L13,0 C13.552,0 14,0.447 14,1 C14,1.553 13.552,2 13,2" id="Fill-3113" fill="#806D5F" sketch:type="MSShapeGroup"></path>
            <path d="M40,2 L22,2 C21.448,2 21,1.553 21,1 C21,0.447 21.448,0 22,0 L40,0 C40.552,0 41,0.447 41,1 C41,1.553 40.552,2 40,2" id="Fill-3114" fill="#806D5F" sketch:type="MSShapeGroup"></path>
            <path d="M39,19 C38.448,19 38,19.447 38,20 L6,20 C6,19.447 5.552,19 5,19 C4.448,19 4,19.447 4,20 C4,21.102 4.897,22 6,22 L38,22 C39.103,22 40,21.102 40,20 C40,19.447 39.552,19 39,19" id="Fill-3115" fill="#806D5F" sketch:type="MSShapeGroup"></path>
            <path d="M36.862,45 L7.138,45 C5.412,45 4,43.588 4,41.862 L4,28.138 C4,26.412 5.412,25 7.138,25 L36.862,25 C38.588,25 40,26.412 40,28.138 L40,41.862 C40,43.588 38.588,45 36.862,45" id="Fill-3116" fill="#5D5854" sketch:type="MSShapeGroup"></path>
            <path d="M7,26 C6.448,26 6,26.448 6,27 C6,27.552 6.448,28 7,28 C7.552,28 8,27.552 8,27 C8,26.448 7.552,26 7,26" id="Fill-3117" fill="#603D26" sketch:type="MSShapeGroup"></path>
            <path d="M7,32 C6.448,32 6,32.448 6,33 C6,33.552 6.448,34 7,34 C7.552,34 8,33.552 8,33 C8,32.448 7.552,32 7,32" id="Fill-3118" fill="#603D26" sketch:type="MSShapeGroup"></path>
            <path d="M10,29 C9.448,29 9,29.448 9,30 C9,30.552 9.448,31 10,31 C10.552,31 11,30.552 11,30 C11,29.448 10.552,29 10,29" id="Fill-3119" fill="#603D26" sketch:type="MSShapeGroup"></path>
            <path d="M10,35 C9.448,35 9,35.448 9,36 C9,36.552 9.448,37 10,37 C10.552,37 11,36.552 11,36 C11,35.448 10.552,35 10,35" id="Fill-3120" fill="#603D26" sketch:type="MSShapeGroup"></path>
            <path d="M13,26 C12.448,26 12,26.448 12,27 C12,27.552 12.448,28 13,28 C13.552,28 14,27.552 14,27 C14,26.448 13.552,26 13,26" id="Fill-3121" fill="#603D26" sketch:type="MSShapeGroup"></path>
            <path d="M19,26 C18.448,26 18,26.448 18,27 C18,27.552 18.448,28 19,28 C19.552,28 20,27.552 20,27 C20,26.448 19.552,26 19,26" id="Fill-3122" fill="#603D26" sketch:type="MSShapeGroup"></path>
            <path d="M13,32 C12.448,32 12,32.448 12,33 C12,33.552 12.448,34 13,34 C13.552,34 14,33.552 14,33 C14,32.448 13.552,32 13,32" id="Fill-3123" fill="#603D26" sketch:type="MSShapeGroup"></path>
            <path d="M19,32 C18.448,32 18,32.448 18,33 C18,33.552 18.448,34 19,34 C19.552,34 20,33.552 20,33 C20,32.448 19.552,32 19,32" id="Fill-3124" fill="#603D26" sketch:type="MSShapeGroup"></path>
            <path d="M16,29 C15.448,29 15,29.448 15,30 C15,30.552 15.448,31 16,31 C16.552,31 17,30.552 17,30 C17,29.448 16.552,29 16,29" id="Fill-3125" fill="#603D26" sketch:type="MSShapeGroup"></path>
            <path d="M22,29 C21.448,29 21,29.448 21,30 C21,30.552 21.448,31 22,31 C22.552,31 23,30.552 23,30 C23,29.448 22.552,29 22,29" id="Fill-3126" fill="#603D26" sketch:type="MSShapeGroup"></path>
            <path d="M16,35 C15.448,35 15,35.448 15,36 C15,36.552 15.448,37 16,37 C16.552,37 17,36.552 17,36 C17,35.448 16.552,35 16,35" id="Fill-3127" fill="#603D26" sketch:type="MSShapeGroup"></path>
            <path d="M22,35 C21.448,35 21,35.448 21,36 C21,36.552 21.448,37 22,37 C22.552,37 23,36.552 23,36 C23,35.448 22.552,35 22,35" id="Fill-3128" fill="#603D26" sketch:type="MSShapeGroup"></path>
            <path d="M25,26 C24.448,26 24,26.448 24,27 C24,27.552 24.448,28 25,28 C25.552,28 26,27.552 26,27 C26,26.448 25.552,26 25,26" id="Fill-3129" fill="#603D26" sketch:type="MSShapeGroup"></path>
            <path d="M31,26 C30.448,26 30,26.448 30,27 C30,27.552 30.448,28 31,28 C31.552,28 32,27.552 32,27 C32,26.448 31.552,26 31,26" id="Fill-3130" fill="#603D26" sketch:type="MSShapeGroup"></path>
            <path d="M25,32 C24.448,32 24,32.448 24,33 C24,33.552 24.448,34 25,34 C25.552,34 26,33.552 26,33 C26,32.448 25.552,32 25,32" id="Fill-3131" fill="#603D26" sketch:type="MSShapeGroup"></path>
            <path d="M31,32 C30.448,32 30,32.448 30,33 C30,33.552 30.448,34 31,34 C31.552,34 32,33.552 32,33 C32,32.448 31.552,32 31,32" id="Fill-3132" fill="#603D26" sketch:type="MSShapeGroup"></path>
            <path d="M28,29 C27.448,29 27,29.448 27,30 C27,30.552 27.448,31 28,31 C28.552,31 29,30.552 29,30 C29,29.448 28.552,29 28,29" id="Fill-3133" fill="#603D26" sketch:type="MSShapeGroup"></path>
            <path d="M34,29 C33.448,29 33,29.448 33,30 C33,30.552 33.448,31 34,31 C34.552,31 35,30.552 35,30 C35,29.448 34.552,29 34,29" id="Fill-3134" fill="#603D26" sketch:type="MSShapeGroup"></path>
            <path d="M28,35 C27.448,35 27,35.448 27,36 C27,36.552 27.448,37 28,37 C28.552,37 29,36.552 29,36 C29,35.448 28.552,35 28,35" id="Fill-3135" fill="#603D26" sketch:type="MSShapeGroup"></path>
            <path d="M34,35 C33.448,35 33,35.448 33,36 C33,36.552 33.448,37 34,37 C34.552,37 35,36.552 35,36 C35,35.448 34.552,35 34,35" id="Fill-3136" fill="#603D26" sketch:type="MSShapeGroup"></path>
            <path d="M37,28 C37.552,28 38,27.552 38,27 C38,26.448 37.552,26 37,26 C36.448,26 36,26.448 36,27 C36,27.552 36.448,28 37,28" id="Fill-3137" fill="#603D26" sketch:type="MSShapeGroup"></path>
            <path d="M37,32 C36.448,32 36,32.448 36,33 C36,33.552 36.448,34 37,34 C37.552,34 38,33.552 38,33 C38,32.448 37.552,32 37,32" id="Fill-3138" fill="#603D26" sketch:type="MSShapeGroup"></path>
            <path d="M7,38 C6.448,38 6,38.448 6,39 C6,39.552 6.448,40 7,40 C7.552,40 8,39.552 8,39 C8,38.448 7.552,38 7,38" id="Fill-3139" fill="#603D26" sketch:type="MSShapeGroup"></path>
            <path d="M10,41 C9.448,41 9,41.448 9,42 C9,42.552 9.448,43 10,43 C10.552,43 11,42.552 11,42 C11,41.448 10.552,41 10,41" id="Fill-3140" fill="#603D26" sketch:type="MSShapeGroup"></path>
            <path d="M13,38 C12.448,38 12,38.448 12,39 C12,39.552 12.448,40 13,40 C13.552,40 14,39.552 14,39 C14,38.448 13.552,38 13,38" id="Fill-3141" fill="#603D26" sketch:type="MSShapeGroup"></path>
            <path d="M19,38 C18.448,38 18,38.448 18,39 C18,39.552 18.448,40 19,40 C19.552,40 20,39.552 20,39 C20,38.448 19.552,38 19,38" id="Fill-3142" fill="#603D26" sketch:type="MSShapeGroup"></path>
            <path d="M16,41 C15.448,41 15,41.448 15,42 C15,42.552 15.448,43 16,43 C16.552,43 17,42.552 17,42 C17,41.448 16.552,41 16,41" id="Fill-3143" fill="#603D26" sketch:type="MSShapeGroup"></path>
            <path d="M22,41 C21.448,41 21,41.448 21,42 C21,42.552 21.448,43 22,43 C22.552,43 23,42.552 23,42 C23,41.448 22.552,41 22,41" id="Fill-3144" fill="#603D26" sketch:type="MSShapeGroup"></path>
            <path d="M25,38 C24.448,38 24,38.448 24,39 C24,39.552 24.448,40 25,40 C25.552,40 26,39.552 26,39 C26,38.448 25.552,38 25,38" id="Fill-3145" fill="#603D26" sketch:type="MSShapeGroup"></path>
            <path d="M31,38 C30.448,38 30,38.448 30,39 C30,39.552 30.448,40 31,40 C31.552,40 32,39.552 32,39 C32,38.448 31.552,38 31,38" id="Fill-3146" fill="#603D26" sketch:type="MSShapeGroup"></path>
            <path d="M28,41 C27.448,41 27,41.448 27,42 C27,42.552 27.448,43 28,43 C28.552,43 29,42.552 29,42 C29,41.448 28.552,41 28,41" id="Fill-3147" fill="#603D26" sketch:type="MSShapeGroup"></path>
            <path d="M34,41 C33.448,41 33,41.448 33,42 C33,42.552 33.448,43 34,43 C34.552,43 35,42.552 35,42 C35,41.448 34.552,41 34,41" id="Fill-3148" fill="#603D26" sketch:type="MSShapeGroup"></path>
            <path d="M37,38 C36.448,38 36,38.448 36,39 C36,39.552 36.448,40 37,40 C37.552,40 38,39.552 38,39 C38,38.448 37.552,38 37,38" id="Fill-3149" fill="#603D26" sketch:type="MSShapeGroup"></path>
        </g>
    </g>
</svg>