<?xml version="1.0" encoding="UTF-8" standalone="no"?>
<svg width="42px" height="60px" viewBox="0 0 42 60" version="1.1" xmlns="http://www.w3.org/2000/svg" xmlns:xlink="http://www.w3.org/1999/xlink" xmlns:sketch="http://www.bohemiancoding.com/sketch/ns">
    <!-- Generator: Sketch 3.2.2 (9983) - http://www.bohemiancoding.com/sketch -->
    <title>2 - Cooler (Flat)</title>
    <desc>Created with Sketch.</desc>
    <defs></defs>
    <g id="Page-1" stroke="none" stroke-width="1" fill="none" fill-rule="evenodd" sketch:type="MSPage">
        <g id="2---Cooler-(Flat)" sketch:type="MSLayerGroup" transform="translate(1.000000, 1.000000)">
            <path d="M40,20 C40,31.046 31.046,40 20,40 C8.954,40 0,31.046 0,20 C0,8.954 8.954,0 20,0 C31.046,0 40,8.954 40,20 L40,20 Z" id="Stroke-3556" stroke="#B0B6BB" stroke-width="2" stroke-linecap="round" sketch:type="MSShapeGroup"></path>
            <path d="M26,20 C26,23.314 23.314,26 20,26 C16.686,26 14,23.314 14,20 C14,16.686 16.686,14 20,14 C23.314,14 26,16.686 26,20" id="Fill-3557" fill="#556080" sketch:type="MSShapeGroup"></path>
            <path d="M27.382,4.758 C23.64,2.918 19.224,2.427 14.922,3.742 C13.572,4.155 12.323,4.736 11.164,5.43 C23.371,7.476 16.404,11.443 17.636,14.438 C18.362,14.143 19.144,13.999 19.933,14.003 C19.956,14.003 19.978,14 20,14 C20.014,14 20.028,14.002 20.042,14.002 C20.13,14.004 20.219,14.009 20.307,14.016 C22.249,14.114 23.949,15.128 24.973,16.643 C32.002,12.279 32.447,7.795 27.382,4.758" id="Fill-3558" fill="#C7CBC7" sketch:type="MSShapeGroup"></path>
            <path d="M25.94,20.982 C25.674,22.677 24.689,24.245 23.104,25.198 C22.213,25.733 21.239,26.01 20.268,26.05 C20.363,34.412 24.005,37.122 29.255,34.302 C34.034,31.201 36.999,25.849 37,20.069 C28.954,29.488 29.142,21.469 25.94,20.982" id="Fill-3559" fill="#C7CBC7" sketch:type="MSShapeGroup"></path>
            <path d="M15.704,24.184 C15.673,24.152 15.644,24.117 15.613,24.084 C15.505,23.968 15.399,23.848 15.3,23.723 C15.262,23.675 15.227,23.625 15.19,23.576 C15.105,23.461 15.022,23.344 14.945,23.223 C14.907,23.164 14.871,23.104 14.835,23.043 C14.767,22.927 14.702,22.808 14.641,22.687 C14.607,22.62 14.574,22.552 14.542,22.482 C14.488,22.362 14.438,22.24 14.391,22.117 C14.364,22.043 14.335,21.97 14.31,21.895 C14.268,21.769 14.233,21.639 14.199,21.51 C14.18,21.434 14.158,21.36 14.141,21.284 C14.11,21.143 14.088,20.998 14.068,20.853 C14.058,20.786 14.044,20.719 14.037,20.651 C14.013,20.437 14,20.22 14,20 C14,19.762 14.018,19.528 14.045,19.298 C14.053,19.227 14.066,19.158 14.077,19.087 C14.101,18.925 14.131,18.766 14.169,18.608 C14.186,18.534 14.205,18.461 14.225,18.388 C14.27,18.228 14.321,18.073 14.379,17.918 C14.4,17.86 14.419,17.8 14.443,17.743 C14.528,17.533 14.622,17.327 14.73,17.13 C7.52,12.908 3.323,14.627 3.029,20.566 C3.225,26.506 6.46,31.664 11.238,34.548 C7.312,22.805 14.086,27.095 16.152,24.602 C16.152,24.602 16.151,24.6 16.15,24.6 C15.994,24.469 15.846,24.329 15.704,24.184" id="Fill-3560" fill="#C7CBC7" sketch:type="MSShapeGroup"></path>
            <path d="M12,55 L28,55 L28,58 L12,58 L12,55 Z" id="Fill-3561" fill="#556080" sketch:type="MSShapeGroup"></path>
            <path d="M16,44 L24,44 L24,50 L16,50 L16,44 Z" id="Fill-3562" fill="#556080" sketch:type="MSShapeGroup"></path>
            <path d="M18,50 L22,50 L22,55 L18,55 L18,50 Z" id="Fill-3563" fill="#B0B6BB" sketch:type="MSShapeGroup"></path>
            <path d="M18,40 L22,40 L22,44 L18,44 L18,40 Z" id="Fill-3564" fill="#B0B6BB" sketch:type="MSShapeGroup"></path>
            <path d="M9,58 L31,58" id="Stroke-3565" stroke="#38454F" stroke-width="2" stroke-linecap="round" stroke-linejoin="round" sketch:type="MSShapeGroup"></path>
        </g>
    </g>
</svg>