<?xml version="1.0" encoding="UTF-8" standalone="no"?>
<svg width="59px" height="59px" viewBox="0 0 59 59" version="1.1" xmlns="http://www.w3.org/2000/svg" xmlns:xlink="http://www.w3.org/1999/xlink" xmlns:sketch="http://www.bohemiancoding.com/sketch/ns">
    <!-- Generator: Sketch 3.2.2 (9983) - http://www.bohemiancoding.com/sketch -->
    <title>164 - Cozy Armchair (Flat)</title>
    <desc>Created with Sketch.</desc>
    <defs></defs>
    <g id="Page-1" stroke="none" stroke-width="1" fill="none" fill-rule="evenodd" sketch:type="MSPage">
        <g id="164---Cozy-Armchair-(Flat)" sketch:type="MSLayerGroup" transform="translate(1.000000, 0.000000)">
            <path d="M6,14 L6,21" id="Stroke-105" stroke="#F3EDBF" stroke-width="2" stroke-linecap="round" sketch:type="MSShapeGroup"></path>
            <path d="M58,34.92 C58,34.412 57.558,34 57.05,34 L51.89,34 C51.382,34 51,34.412 51,34.92 L51,45 L25,45 L25,35 C25,34.492 24.508,34 24,34 L19,34 C18.492,34 18,34.412 18,34.92 L18,53 L58,53 L58,34.92" id="Fill-1824" fill="#4F423D" sketch:type="MSShapeGroup"></path>
            <path d="M25,35 L25,45 L51,45 L51,34.92 C51,34.412 51.382,34 51.89,34 L55,34 L55,19.623 C55,18.727 54.273,18 53.377,18 L22.593,18 C21.697,18 20.97,18.727 21,19.623 L21,34 L24,34 C24.508,34 25,34.492 25,35" id="Fill-1825" fill="#695851" sketch:type="MSShapeGroup"></path>
            <path d="M25,39 L51,39 L51,45 L25,45 L25,39 Z" id="Fill-1826" fill="#7C6A66" sketch:type="MSShapeGroup"></path>
            <path d="M54,53 L58,53 L58,58 L54,58 L54,53 Z" id="Fill-1827" fill="#FCCF9D" sketch:type="MSShapeGroup"></path>
            <path d="M18,53 L22,53 L22,58 L18,58 L18,53 Z" id="Fill-1828" fill="#FCCF9D" sketch:type="MSShapeGroup"></path>
            <path d="M9,49 C9,53.97 4.971,58 0,58 L20,58 C15.029,58 11,53.97 11,49 L9,49" id="Fill-1829" fill="#C7CBC7" sketch:type="MSShapeGroup"></path>
            <path d="M10,49 L10,14" id="Stroke-1830" stroke="#C7CBC7" stroke-width="2" stroke-linecap="round" sketch:type="MSShapeGroup"></path>
            <path d="M0,0 L20,0 L20,14 L0,14 L0,0 Z" id="Fill-1831" fill="#F0CE49" sketch:type="MSShapeGroup"></path>
            <path d="M20,58 L0,58" id="Stroke-3823" stroke="#949493" stroke-width="2" stroke-linecap="round" sketch:type="MSShapeGroup"></path>
        </g>
    </g>
</svg>