<?xml version="1.0" encoding="UTF-8" standalone="no"?>
<svg width="48px" height="58px" viewBox="0 0 48 58" version="1.1" xmlns="http://www.w3.org/2000/svg" xmlns:xlink="http://www.w3.org/1999/xlink" xmlns:sketch="http://www.bohemiancoding.com/sketch/ns">
    <!-- Generator: Sketch 3.2.2 (9983) - http://www.bohemiancoding.com/sketch -->
    <title>16 - Dope Mixer (Flat)</title>
    <desc>Created with Sketch.</desc>
    <defs></defs>
    <g id="Page-1" stroke="none" stroke-width="1" fill="none" fill-rule="evenodd" sketch:type="MSPage">
        <g id="16---Dope-Mixer-(Flat)" sketch:type="MSLayerGroup">
            <path d="M28,17 L28,35 L28,17 Z M35.677,35 C37.374,31.738 36.856,27.613 34.121,24.879 L28,18.758 L21.879,24.879 C19.144,27.613 18.626,31.738 20.323,35 L35.677,35 L35.677,35 Z M25.112,35 L30.888,35 C31.099,34.847 31.31,34.69 31.5,34.5 C33.433,32.567 33.433,29.433 31.5,27.5 L28,24 L24.5,27.5 C22.567,29.433 22.567,32.567 24.5,34.5 C24.69,34.69 24.901,34.847 25.112,35 L25.112,35 Z" id="Stroke-181" stroke="#839494" stroke-width="2" stroke-linecap="round" stroke-linejoin="round" sketch:type="MSShapeGroup"></path>
            <path d="M48,17 L48,3.005 C48,1.346 46.654,0 44.995,0 L3.005,0 C1.346,0 0,1.346 0,3.005 L0,58 L45.5,58 C46.881,58 48,56.88 48,55.5 C48,54.119 46.881,53 45.5,53 L10.722,53 C8.114,53 6,50.886 6,48.278 L6,21.722 C6,19.114 8.114,17 10.722,17 L48,17" id="Fill-3403" fill="#E8EDEE" sketch:type="MSShapeGroup"></path>
            <path d="M28,53 L28,53 C18.611,53 11,45.389 11,36 L11,34 L45,34 L45,36 C45,45.389 37.389,53 28,53" id="Fill-3404" fill="#C7CBC7" sketch:type="MSShapeGroup"></path>
            <path d="M44,8.5 C44,11.537 41.538,14 38.5,14 C35.462,14 33,11.537 33,8.5 C33,5.462 35.462,3 38.5,3 C41.538,3 44,5.462 44,8.5" id="Fill-3406" fill="#C7CBC7" sketch:type="MSShapeGroup"></path>
            <path d="M39,8 L42.388,4.612" id="Stroke-3407" stroke="#949493" stroke-width="2" stroke-linecap="round" stroke-linejoin="round" sketch:type="MSShapeGroup"></path>
            <path d="M9,4 L13,4 L13,8 L9,8 L9,4 Z" id="Fill-3408" fill="#949493" sketch:type="MSShapeGroup"></path>
            <path d="M17,4 L21,4 L21,8 L17,8 L17,4 Z" id="Fill-3409" fill="#949493" sketch:type="MSShapeGroup"></path>
            <path d="M9,12 L13,12 M17,12 L21,12" id="Stroke-3410" stroke="#C7CBC7" stroke-width="2" stroke-linecap="round" stroke-linejoin="round" sketch:type="MSShapeGroup"></path>
        </g>
    </g>
</svg>