<?xml version="1.0" encoding="UTF-8" standalone="no"?>
<svg width="56px" height="58px" viewBox="0 0 56 58" version="1.1" xmlns="http://www.w3.org/2000/svg" xmlns:xlink="http://www.w3.org/1999/xlink" xmlns:sketch="http://www.bohemiancoding.com/sketch/ns">
    <!-- Generator: Sketch 3.2.2 (9983) - http://www.bohemiancoding.com/sketch -->
    <title>95 - Double Sided Doors (Flat)</title>
    <desc>Created with Sketch.</desc>
    <defs></defs>
    <g id="Page-1" stroke="none" stroke-width="1" fill="none" fill-rule="evenodd" sketch:type="MSPage">
        <g id="95---Double-Sided-Doors-(Flat)" sketch:type="MSLayerGroup">
            <path d="M0,0 L56,0 L56,58 L0,58 L0,0 Z" id="Fill-362" fill="#332C25" sketch:type="MSShapeGroup"></path>
            <path d="M4,4 L28,4 L28,58 L4,58 L4,4 Z" id="Fill-2465" fill="#6B5B4B" sketch:type="MSShapeGroup"></path>
            <path d="M8,8 L24,8 L24,38 L8,38 L8,8 Z" id="Fill-2466" fill="#7FABDA" sketch:type="MSShapeGroup"></path>
            <path d="M8,42 L24,42 L24,54 L8,54 L8,42 Z" id="Fill-2467" fill="#7FABDA" sketch:type="MSShapeGroup"></path>
            <path d="M8,42 L24,42 L24,54 L8,54 L8,42 Z" id="Stroke-2468" stroke="#332C25" stroke-width="2" stroke-linecap="round" sketch:type="MSShapeGroup"></path>
            <path d="M24,27 L17,27 L17,19 L24,19 C24.553,19 25,18.552 25,18 C25,17.447 24.553,17 24,17 L17,17 L17,8 C17,7.447 16.553,7 16,7 C15.447,7 15,7.447 15,8 L15,17 L8,17 C7.447,17 7,17.447 7,18 C7,18.552 7.447,19 8,19 L15,19 L15,27 L8,27 C7.447,27 7,27.447 7,28 C7,28.553 7.447,29 8,29 L15,29 L15,38 C15,38.553 15.447,39 16,39 C16.553,39 17,38.553 17,38 L17,29 L24,29 C24.553,29 25,28.553 25,28 C25,27.447 24.553,27 24,27" id="Fill-2469" fill="#332C25" sketch:type="MSShapeGroup"></path>
            <path d="M28,4 L52,4 L52,58 L28,58 L28,4 Z" id="Fill-2470" fill="#4F4337" sketch:type="MSShapeGroup"></path>
            <path d="M32,8 L48,8 L48,38 L32,38 L32,8 Z" id="Fill-2471" fill="#7FABDA" sketch:type="MSShapeGroup"></path>
            <path d="M32,8 L48,8 L48,38 L32,38 L32,8 Z" id="Stroke-2472" stroke="#332C25" stroke-width="2" stroke-linecap="round" sketch:type="MSShapeGroup"></path>
            <path d="M32,42 L48,42 L48,54 L32,54 L32,42 Z" id="Fill-2473" fill="#7FABDA" sketch:type="MSShapeGroup"></path>
            <path d="M32,42 L48,42 L48,54 L32,54 L32,42 Z" id="Stroke-2474" stroke="#332C25" stroke-width="2" stroke-linecap="round" sketch:type="MSShapeGroup"></path>
            <path d="M32,28 L48,28" id="Fill-2475" fill="#332C25" sketch:type="MSShapeGroup"></path>
            <path d="M48,29 L32,29 C31.447,29 31,28.553 31,28 C31,27.447 31.447,27 32,27 L48,27 C48.553,27 49,27.447 49,28 C49,28.553 48.553,29 48,29" id="Fill-2476" fill="#332C25" sketch:type="MSShapeGroup"></path>
            <path d="M32,18 L48,18" id="Fill-2477" fill="#332C25" sketch:type="MSShapeGroup"></path>
            <path d="M48,19 L32,19 C31.447,19 31,18.552 31,18 C31,17.447 31.447,17 32,17 L48,17 C48.553,17 49,17.447 49,18 C49,18.552 48.553,19 48,19" id="Fill-2478" fill="#332C25" sketch:type="MSShapeGroup"></path>
            <path d="M40,8 L40,38" id="Fill-2479" fill="#332C25" sketch:type="MSShapeGroup"></path>
            <path d="M40,39 C39.447,39 39,38.553 39,38 L39,8 C39,7.447 39.447,7 40,7 C40.553,7 41,7.447 41,8 L41,38 C41,38.553 40.553,39 40,39" id="Fill-2480" fill="#332C25" sketch:type="MSShapeGroup"></path>
            <path d="M35,50 C34.744,50 34.488,49.902 34.293,49.707 C33.902,49.316 33.902,48.683 34.293,48.293 L36.293,46.293 C36.684,45.902 37.316,45.902 37.707,46.293 C38.098,46.683 38.098,47.316 37.707,47.707 L35.707,49.707 C35.512,49.902 35.256,50 35,50" id="Fill-2484" fill="#A0CAEF" sketch:type="MSShapeGroup"></path>
            <path d="M11,50 C10.744,50 10.488,49.902 10.293,49.707 C9.902,49.316 9.902,48.683 10.293,48.293 L12.293,46.293 C12.684,45.902 13.316,45.902 13.707,46.293 C14.098,46.683 14.098,47.316 13.707,47.707 L11.707,49.707 C11.512,49.902 11.256,50 11,50" id="Fill-2485" fill="#A0CAEF" sketch:type="MSShapeGroup"></path>
            <path d="M36,45 C36,45.552 35.552,46 35,46 C34.448,46 34,45.552 34,45 C34,44.448 34.448,44 35,44 C35.552,44 36,44.448 36,45" id="Fill-3705" fill="#A0CAEF" sketch:type="MSShapeGroup"></path>
            <path d="M40,45 C40,45.552 39.552,46 39,46 C38.448,46 38,45.552 38,45 C38,44.448 38.448,44 39,44 C39.552,44 40,44.448 40,45" id="Fill-3706" fill="#A0CAEF" sketch:type="MSShapeGroup"></path>
            <path d="M12,45 C12,45.552 11.552,46 11,46 C10.448,46 10,45.552 10,45 C10,44.448 10.448,44 11,44 C11.552,44 12,44.448 12,45" id="Fill-3707" fill="#A0CAEF" sketch:type="MSShapeGroup"></path>
            <path d="M16,45 C16,45.552 15.552,46 15,46 C14.448,46 14,45.552 14,45 C14,44.448 14.448,44 15,44 C15.552,44 16,44.448 16,45" id="Fill-3708" fill="#A0CAEF" sketch:type="MSShapeGroup"></path>
            <path d="M7,7 L25,7 L25,39 L7,39 L7,7 Z M9,37 L23,37 L23,9 L9,9 L9,37 Z" id="Fill-3973" fill="#332C25" sketch:type="MSShapeGroup"></path>
        </g>
    </g>
</svg>