<?xml version="1.0" encoding="UTF-8" standalone="no"?>
<svg width="58px" height="58px" viewBox="0 0 58 58" version="1.1" xmlns="http://www.w3.org/2000/svg" xmlns:xlink="http://www.w3.org/1999/xlink" xmlns:sketch="http://www.bohemiancoding.com/sketch/ns">
    <!-- Generator: Sketch 3.2.2 (9983) - http://www.bohemiancoding.com/sketch -->
    <title>130 - Dressing (Flat)</title>
    <desc>Created with Sketch.</desc>
    <defs></defs>
    <g id="Page-1" stroke="none" stroke-width="1" fill="none" fill-rule="evenodd" sketch:type="MSPage">
        <g id="130---Dressing-(Flat)" sketch:type="MSLayerGroup">
            <path d="M0,0 L0,58 L3,58 L3,55 L55,55 L55,58 L58,58 L58,0 L0,0" id="Fill-318" fill="#381F16" sketch:type="MSShapeGroup"></path>
            <path d="M3,44 L16,44 L16,52 L3,52 L3,44 Z" id="Fill-1832" fill="#BFA380" sketch:type="MSShapeGroup"></path>
            <path d="M3,44 L16,44 L16,52 L3,52 L3,44 Z" id="Stroke-1833" stroke="#6B5B4B" stroke-width="2" stroke-linecap="round" sketch:type="MSShapeGroup"></path>
            <path d="M16,44 L29,44 L29,52 L16,52 L16,44 Z" id="Fill-1834" fill="#BFA380" sketch:type="MSShapeGroup"></path>
            <path d="M16,44 L29,44 L29,52 L16,52 L16,44 Z" id="Stroke-1835" stroke="#6B5B4B" stroke-width="2" stroke-linecap="round" sketch:type="MSShapeGroup"></path>
            <path d="M29,44 L42,44 L42,52 L29,52 L29,44 Z" id="Fill-1836" fill="#BFA380" sketch:type="MSShapeGroup"></path>
            <path d="M29,44 L42,44 L42,52 L29,52 L29,44 Z" id="Stroke-1837" stroke="#6B5B4B" stroke-width="2" stroke-linecap="round" sketch:type="MSShapeGroup"></path>
            <path d="M42,44 L55,44 L55,52 L42,52 L42,44 Z" id="Fill-1838" fill="#BFA380" sketch:type="MSShapeGroup"></path>
            <path d="M42,44 L55,44 L55,52 L42,52 L42,44 Z" id="Stroke-1839" stroke="#6B5B4B" stroke-width="2" stroke-linecap="round" sketch:type="MSShapeGroup"></path>
            <path d="M3,36 L16,36 L16,44 L3,44 L3,36 Z" id="Fill-1840" fill="#BFA380" sketch:type="MSShapeGroup"></path>
            <path d="M3,36 L16,36 L16,44 L3,44 L3,36 Z" id="Stroke-1841" stroke="#6B5B4B" stroke-width="2" stroke-linecap="round" sketch:type="MSShapeGroup"></path>
            <path d="M16,36 L29,36 L29,44 L16,44 L16,36 Z" id="Fill-1842" fill="#BFA380" sketch:type="MSShapeGroup"></path>
            <path d="M16,36 L29,36 L29,44 L16,44 L16,36 Z" id="Stroke-1843" stroke="#6B5B4B" stroke-width="2" stroke-linecap="round" sketch:type="MSShapeGroup"></path>
            <path d="M29,36 L42,36 L42,44 L29,44 L29,36 Z" id="Fill-1844" fill="#BFA380" sketch:type="MSShapeGroup"></path>
            <path d="M29,36 L42,36 L42,44 L29,44 L29,36 Z" id="Stroke-1845" stroke="#6B5B4B" stroke-width="2" stroke-linecap="round" sketch:type="MSShapeGroup"></path>
            <path d="M42,36 L55,36 L55,44 L42,44 L42,36 Z" id="Fill-1846" fill="#BFA380" sketch:type="MSShapeGroup"></path>
            <path d="M42,36 L55,36 L55,44 L42,44 L42,36 Z" id="Stroke-1847" stroke="#6B5B4B" stroke-width="2" stroke-linecap="round" sketch:type="MSShapeGroup"></path>
            <path d="M3,3 L16,3 L16,11 L3,11 L3,3 Z" id="Fill-1848" fill="#BFA380" sketch:type="MSShapeGroup"></path>
            <path d="M3,3 L16,3 L16,11 L3,11 L3,3 Z" id="Stroke-1849" stroke="#6B5B4B" stroke-width="2" stroke-linecap="round" sketch:type="MSShapeGroup"></path>
            <path d="M16,3 L29,3 L29,11 L16,11 L16,3 Z" id="Fill-1850" fill="#BFA380" sketch:type="MSShapeGroup"></path>
            <path d="M16,3 L29,3 L29,11 L16,11 L16,3 Z" id="Stroke-1851" stroke="#6B5B4B" stroke-width="2" stroke-linecap="round" sketch:type="MSShapeGroup"></path>
            <path d="M29,3 L42,3 L42,11 L29,11 L29,3 Z" id="Fill-1852" fill="#BFA380" sketch:type="MSShapeGroup"></path>
            <path d="M29,3 L42,3 L42,11 L29,11 L29,3 Z" id="Stroke-1853" stroke="#6B5B4B" stroke-width="2" stroke-linecap="round" sketch:type="MSShapeGroup"></path>
            <path d="M42,3 L55,3 L55,11 L42,11 L42,3 Z" id="Fill-1854" fill="#BFA380" sketch:type="MSShapeGroup"></path>
            <path d="M42,3 L55,3 L55,11 L42,11 L42,3 Z" id="Stroke-1855" stroke="#6B5B4B" stroke-width="2" stroke-linecap="round" sketch:type="MSShapeGroup"></path>
            <path d="M3,11 L16,11 L16,36 L3,36 L3,11 Z" id="Fill-1856" fill="#BFA380" sketch:type="MSShapeGroup"></path>
            <path d="M3,11 L16,11 L16,36 L3,36 L3,11 Z" id="Stroke-1857" stroke="#6B5B4B" stroke-width="2" stroke-linecap="round" sketch:type="MSShapeGroup"></path>
            <path d="M16,11 L29,11 L29,36 L16,36 L16,11 Z" id="Fill-1858" fill="#BFA380" sketch:type="MSShapeGroup"></path>
            <path d="M16,11 L29,11 L29,36 L16,36 L16,11 Z" id="Stroke-1859" stroke="#6B5B4B" stroke-width="2" stroke-linecap="round" sketch:type="MSShapeGroup"></path>
            <path d="M29,11 L42,11 L42,36 L29,36 L29,11 Z" id="Fill-1860" fill="#BFA380" sketch:type="MSShapeGroup"></path>
            <path d="M29,11 L42,11 L42,36 L29,36 L29,11 Z" id="Stroke-1861" stroke="#6B5B4B" stroke-width="2" stroke-linecap="round" sketch:type="MSShapeGroup"></path>
            <path d="M42,11 L55,11 L55,36 L42,36 L42,11 Z" id="Fill-1862" fill="#BFA380" sketch:type="MSShapeGroup"></path>
            <path d="M42,11 L55,11 L55,36 L42,36 L42,11 Z" id="Stroke-1863" stroke="#6B5B4B" stroke-width="2" stroke-linecap="round" sketch:type="MSShapeGroup"></path>
            <path d="M13,26 C12.448,26 12,25.553 12,25 L12,21 C12,20.447 12.448,20 13,20 C13.552,20 14,20.447 14,21 L14,25 C14,25.553 13.552,26 13,26" id="Fill-1864" fill="#E8EDEE" sketch:type="MSShapeGroup"></path>
            <path d="M19,26 C18.448,26 18,25.553 18,25 L18,21 C18,20.447 18.448,20 19,20 C19.552,20 20,20.447 20,21 L20,25 C20,25.553 19.552,26 19,26" id="Fill-1865" fill="#E8EDEE" sketch:type="MSShapeGroup"></path>
            <path d="M39,26 C38.448,26 38,25.553 38,25 L38,21 C38,20.447 38.448,20 39,20 C39.552,20 40,20.447 40,21 L40,25 C40,25.553 39.552,26 39,26" id="Fill-1866" fill="#E8EDEE" sketch:type="MSShapeGroup"></path>
            <path d="M45,26 C44.448,26 44,25.553 44,25 L44,21 C44,20.447 44.448,20 45,20 C45.552,20 46,20.447 46,21 L46,25 C46,25.553 45.552,26 45,26" id="Fill-1867" fill="#E8EDEE" sketch:type="MSShapeGroup"></path>
            <path d="M11,41 L8,41 C7.448,41 7,40.553 7,40 C7,39.447 7.448,39 8,39 L11,39 C11.552,39 12,39.447 12,40 C12,40.553 11.552,41 11,41" id="Fill-1869" fill="#E8EDEE" sketch:type="MSShapeGroup"></path>
            <path d="M11,49 L8,49 C7.448,49 7,48.553 7,48 C7,47.447 7.448,47 8,47 L11,47 C11.552,47 12,47.447 12,48 C12,48.553 11.552,49 11,49" id="Fill-1870" fill="#E8EDEE" sketch:type="MSShapeGroup"></path>
            <path d="M24,41 L21,41 C20.448,41 20,40.553 20,40 C20,39.447 20.448,39 21,39 L24,39 C24.552,39 25,39.447 25,40 C25,40.553 24.552,41 24,41" id="Fill-1871" fill="#E8EDEE" sketch:type="MSShapeGroup"></path>
            <path d="M24,49 L21,49 C20.448,49 20,48.553 20,48 C20,47.447 20.448,47 21,47 L24,47 C24.552,47 25,47.447 25,48 C25,48.553 24.552,49 24,49" id="Fill-1872" fill="#E8EDEE" sketch:type="MSShapeGroup"></path>
            <path d="M37,41 L34,41 C33.448,41 33,40.553 33,40 C33,39.447 33.448,39 34,39 L37,39 C37.552,39 38,39.447 38,40 C38,40.553 37.552,41 37,41" id="Fill-1873" fill="#E8EDEE" sketch:type="MSShapeGroup"></path>
            <path d="M37,49 L34,49 C33.448,49 33,48.553 33,48 C33,47.447 33.448,47 34,47 L37,47 C37.552,47 38,47.447 38,48 C38,48.553 37.552,49 37,49" id="Fill-1874" fill="#E8EDEE" sketch:type="MSShapeGroup"></path>
            <path d="M50,41 L47,41 C46.448,41 46,40.553 46,40 C46,39.447 46.448,39 47,39 L50,39 C50.552,39 51,39.447 51,40 C51,40.553 50.552,41 50,41" id="Fill-1875" fill="#E8EDEE" sketch:type="MSShapeGroup"></path>
            <path d="M50,49 L47,49 C46.448,49 46,48.553 46,48 C46,47.447 46.448,47 47,47 L50,47 C50.552,47 51,47.447 51,48 C51,48.553 50.552,49 50,49" id="Fill-1876" fill="#E8EDEE" sketch:type="MSShapeGroup"></path>
        </g>
    </g>
</svg>