<?xml version="1.0" encoding="UTF-8" standalone="no"?>
<svg width="28px" height="58px" viewBox="0 0 28 58" version="1.1" xmlns="http://www.w3.org/2000/svg" xmlns:xlink="http://www.w3.org/1999/xlink" xmlns:sketch="http://www.bohemiancoding.com/sketch/ns">
    <!-- Generator: Sketch 3.2.2 (9983) - http://www.bohemiancoding.com/sketch -->
    <title>53 - Economic Bulb (Flat)</title>
    <desc>Created with Sketch.</desc>
    <defs></defs>
    <g id="Page-1" stroke="none" stroke-width="1" fill="none" fill-rule="evenodd" sketch:type="MSPage">
        <g id="53---Economic-Bulb-(Flat)" sketch:type="MSLayerGroup">
            <path d="M26,38 L26,6 C26,2.431 22.87,-0.419 19.211,0.051 C16.186,0.439 14,3.159 14,6.209 L14,38 L26,38" id="Fill-342" fill="#CAD0D8" sketch:type="MSShapeGroup"></path>
            <path d="M14,38 L14,6 C14,2.431 10.87,-0.419 7.211,0.051 C4.186,0.439 2,3.159 2,6.209 L2,38 L14,38" id="Fill-343" fill="#DCE0E8" sketch:type="MSShapeGroup"></path>
            <path d="M6,51 L22,51 L22,54 L6,54 L6,51 Z" id="Fill-3053" fill="#E8EDEE" sketch:type="MSShapeGroup"></path>
            <path d="M6,48 L22,48 L22,51 L6,51 L6,48 Z" id="Fill-3054" fill="#C7CBC7" sketch:type="MSShapeGroup"></path>
            <path d="M17,58 L11,58 L8,54 L20,54 L17,58" id="Fill-3055" fill="#C7CBC7" sketch:type="MSShapeGroup"></path>
            <path d="M8,38 L8,6 M20,38 L20,6" id="Stroke-3056" stroke="#FFFFFF" stroke-width="2" stroke-linecap="round" sketch:type="MSShapeGroup"></path>
            <path d="M21.89,48 L6.11,48 C2.735,48 0,45.264 0,41.89 L0,39.466 C0,38.656 0.656,38 1.466,38 L26.534,38 C27.344,38 28,38.656 28,39.466 L28,41.89 C28,45.264 25.265,48 21.89,48" id="Fill-3057" fill="#E8EDEE" sketch:type="MSShapeGroup"></path>
        </g>
    </g>
</svg>