<?xml version="1.0" encoding="UTF-8" standalone="no"?>
<svg width="56px" height="56px" viewBox="0 0 56 56" version="1.1" xmlns="http://www.w3.org/2000/svg" xmlns:xlink="http://www.w3.org/1999/xlink" xmlns:sketch="http://www.bohemiancoding.com/sketch/ns">
    <!-- Generator: Sketch 3.2.2 (9983) - http://www.bohemiancoding.com/sketch -->
    <title>88 - Elbow Pipe (Flat)</title>
    <desc>Created with Sketch.</desc>
    <defs></defs>
    <g id="Page-1" stroke="none" stroke-width="1" fill="none" fill-rule="evenodd" sketch:type="MSPage">
        <g id="88---Elbow-Pipe-(Flat)" sketch:type="MSLayerGroup">
            <path d="M20.568,53 C10.866,53 3,45.134 3,35.432 L3,22 L27,22 L27,27.483 C27,28.321 27.679,29 28.517,29 L34,29 L34,53 L20.568,53" id="Fill-2265" fill="#B0B6BB" sketch:type="MSShapeGroup"></path>
            <path d="M0,18 L30,18 L30,22 L0,22 L0,18 Z" id="Fill-2266" fill="#E0E2E3" sketch:type="MSShapeGroup"></path>
            <path d="M34,26 L38,26 L38,56 L34,56 L34,26 Z" id="Fill-2267" fill="#E0E2E3" sketch:type="MSShapeGroup"></path>
            <path d="M5,0 L25,0 L25,18 L5,18 L5,0 Z" id="Fill-2268" fill="#C7CBC7" sketch:type="MSShapeGroup"></path>
            <path d="M38,31 L56,31 L56,51 L38,51 L38,31 Z" id="Fill-2269" fill="#C7CBC7" sketch:type="MSShapeGroup"></path>
        </g>
    </g>
</svg>