<?xml version="1.0" encoding="UTF-8" standalone="no"?>
<svg width="58px" height="49px" viewBox="0 0 58 49" version="1.1" xmlns="http://www.w3.org/2000/svg" xmlns:xlink="http://www.w3.org/1999/xlink" xmlns:sketch="http://www.bohemiancoding.com/sketch/ns">
    <!-- Generator: Sketch 3.2.2 (9983) - http://www.bohemiancoding.com/sketch -->
    <title>73 - Electric Radiator (Flat)</title>
    <desc>Created with Sketch.</desc>
    <defs></defs>
    <g id="Page-1" stroke="none" stroke-width="1" fill="none" fill-rule="evenodd" sketch:type="MSPage">
        <g id="73---Electric-Radiator-(Flat)" sketch:type="MSLayerGroup">
            <path d="M0,0 L58,0 L58,46 L0,46 L0,0 Z" id="Fill-2633" fill="#D6D9DF" sketch:type="MSShapeGroup"></path>
            <path d="M3,46 L7,46 L7,49 L3,49 L3,46 Z" id="Fill-2634" fill="#556080" sketch:type="MSShapeGroup"></path>
            <path d="M51,46 L55,46 L55,49 L51,49 L51,46 Z" id="Fill-2635" fill="#556080" sketch:type="MSShapeGroup"></path>
            <path d="M3,3 L11,3 L11,18 L3,18 L3,3 Z" id="Fill-2639" fill="#556080" sketch:type="MSShapeGroup"></path>
            <path d="M3,3 L11,3 L11,18 L3,18 L3,3 Z" id="Stroke-2640" stroke="#38454F" stroke-width="2" stroke-linecap="round" sketch:type="MSShapeGroup"></path>
            <path d="M14,3 L22,3 L22,18 L14,18 L14,3 Z" id="Fill-2641" fill="#556080" sketch:type="MSShapeGroup"></path>
            <path d="M14,3 L22,3 L22,18 L14,18 L14,3 Z" id="Stroke-2642" stroke="#38454F" stroke-width="2" stroke-linecap="round" sketch:type="MSShapeGroup"></path>
            <path d="M25,3 L33,3 L33,18 L25,18 L25,3 Z" id="Fill-2643" fill="#556080" sketch:type="MSShapeGroup"></path>
            <path d="M25,3 L33,3 L33,18 L25,18 L25,3 Z" id="Stroke-2644" stroke="#38454F" stroke-width="2" stroke-linecap="round" sketch:type="MSShapeGroup"></path>
            <path d="M36,3 L44,3 L44,18 L36,18 L36,3 Z" id="Fill-2645" fill="#556080" sketch:type="MSShapeGroup"></path>
            <path d="M36,3 L44,3 L44,18 L36,18 L36,3 Z" id="Stroke-2646" stroke="#38454F" stroke-width="2" stroke-linecap="round" sketch:type="MSShapeGroup"></path>
            <path d="M47,3 L55,3 L55,18 L47,18 L47,3 Z" id="Fill-2647" fill="#556080" sketch:type="MSShapeGroup"></path>
            <path d="M47,3 L55,3 L55,18 L47,18 L47,3 Z" id="Stroke-2648" stroke="#38454F" stroke-width="2" stroke-linecap="round" sketch:type="MSShapeGroup"></path>
            <path d="M6,6 L8,6 M6,9 L8,9 M6,12 L8,12 M6,15 L8,15 M17,6 L19,6 M17,9 L19,9 M17,12 L19,12 M17,15 L19,15 M28,6 L30,6 M28,9 L30,9 M28,12 L30,12 M28,15 L30,15 M39,6 L41,6 M39,9 L41,9 M39,12 L41,12 M39,15 L41,15 M50,6 L52,6 M50,9 L52,9 M50,12 L52,12 M50,15 L52,15" id="Stroke-2649" stroke="#38454F" stroke-width="2" stroke-linecap="round" sketch:type="MSShapeGroup"></path>
            <path d="M44,39 L48,39 L48,43 L44,43 L44,39 Z" id="Fill-2701" fill="#556080" sketch:type="MSShapeGroup"></path>
            <path d="M51,39 L55,39 L55,43 L51,43 L51,39 Z" id="Fill-2702" fill="#556080" sketch:type="MSShapeGroup"></path>
        </g>
    </g>
</svg>