<?xml version="1.0" encoding="UTF-8" standalone="no"?>
<svg width="60px" height="58px" viewBox="0 0 60 58" version="1.1" xmlns="http://www.w3.org/2000/svg" xmlns:xlink="http://www.w3.org/1999/xlink" xmlns:sketch="http://www.bohemiancoding.com/sketch/ns">
    <!-- Generator: Sketch 3.2.2 (9983) - http://www.bohemiancoding.com/sketch -->
    <title>132 - Enterntainment Stand (Flat)</title>
    <desc>Created with Sketch.</desc>
    <defs></defs>
    <g id="Page-1" stroke="none" stroke-width="1" fill="none" fill-rule="evenodd" sketch:type="MSPage">
        <g id="132---Enterntainment-Stand-(Flat)" sketch:type="MSLayerGroup" transform="translate(1.000000, 0.000000)">
            <path d="M47,54 L51,54 L51,58 L47,58 L47,54 Z" id="Fill-1774" fill="#363D4B" sketch:type="MSShapeGroup"></path>
            <path d="M7,54 L11,54 L11,58 L7,58 L7,54 Z" id="Fill-1775" fill="#363D4B" sketch:type="MSShapeGroup"></path>
            <path d="M53,54 L5,54 C2.25,54 0,51.75 0,49 C0,46.25 2.25,44 5,44 L53,44 C55.75,44 58,46.25 58,49 C58,51.75 55.75,54 53,54 L53,54 Z" id="Fill-1797" fill="#845C46" sketch:type="MSShapeGroup"></path>
            <path d="M53,54 L5,54 C2.25,54 0,51.75 0,49 C0,46.25 2.25,44 5,44 L53,44 C55.75,44 58,46.25 58,49 C58,51.75 55.75,54 53,54 L53,54 Z" id="Stroke-1798" stroke="#553323" stroke-width="2" sketch:type="MSShapeGroup"></path>
            <path d="M53,44 L5,44 C2.25,44 0,41.75 0,39 C0,36.25 2.25,34 5,34 L53,34 C55.75,34 58,36.25 58,39 C58,41.75 55.75,44 53,44 L53,44 Z" id="Fill-1799" fill="#845C46" sketch:type="MSShapeGroup"></path>
            <path d="M53,44 L5,44 C2.25,44 0,41.75 0,39 C0,36.25 2.25,34 5,34 L53,34 C55.75,34 58,36.25 58,39 C58,41.75 55.75,44 53,44 L53,44 Z" id="Stroke-1800" stroke="#553323" stroke-width="2" sketch:type="MSShapeGroup"></path>
            <path d="M9,36 L13,36 L13,43 L9,43 L9,36 Z" id="Fill-1801" fill="#F0CE49" sketch:type="MSShapeGroup"></path>
            <path d="M13,36 L17,36 L17,43 L13,43 L13,36 Z" id="Fill-1802" fill="#88C057" sketch:type="MSShapeGroup"></path>
            <path d="M17,36 L21,36 L21,43 L17,43 L17,36 Z" id="Fill-1803" fill="#23A24D" sketch:type="MSShapeGroup"></path>
            <path d="M26,37 L42,37 L42,43 L26,43 L26,37 Z" id="Fill-1804" fill="#C7CBC7" sketch:type="MSShapeGroup"></path>
            <path d="M7,47 L22,47 L22,53 L7,53 L7,47 Z" id="Fill-1805" fill="#FFFFFF" sketch:type="MSShapeGroup"></path>
            <path d="M38,47 L53,47 L53,53 L38,53 L38,47 Z" id="Fill-1806" fill="#7383BF" sketch:type="MSShapeGroup"></path>
            <path d="M39,40 C39,40.552 38.552,41 38,41 C37.448,41 37,40.552 37,40 C37,39.448 37.448,39 38,39 C38.552,39 39,39.448 39,40" id="Fill-1807" fill="#556080" sketch:type="MSShapeGroup"></path>
            <path d="M11,50 C11,50.552 10.552,51 10,51 C9.448,51 9,50.552 9,50 C9,49.448 9.448,49 10,49 C10.552,49 11,49.448 11,50" id="Fill-1808" fill="#556080" sketch:type="MSShapeGroup"></path>
            <path d="M42,50 C42,50.552 41.552,51 41,51 C40.448,51 40,50.552 40,50 C40,49.448 40.448,49 41,49 C41.552,49 42,49.448 42,50" id="Fill-1809" fill="#556080" sketch:type="MSShapeGroup"></path>
            <path d="M25,46 L35,46 L35,53 L25,53 L25,46 Z" id="Fill-1810" fill="#38454F" sketch:type="MSShapeGroup"></path>
            <path d="M33,49 C33,49.552 32.552,50 32,50 C31.448,50 31,49.552 31,49 C31,48.448 31.448,48 32,48 C32.552,48 33,48.448 33,49" id="Fill-3713" fill="#61B972" sketch:type="MSShapeGroup"></path>
            <path d="M2,0 L56,0 L56,27 L2,27 L2,0 Z" id="Fill-4074" fill="#38454F" sketch:type="MSShapeGroup"></path>
            <path d="M31,30.896 L31,27 C30,26.447 29.553,26 29,26 C28.447,26 28,26.447 27,27 L27,30.896 L21,30.896 L21,33 L37,33 L37,30.896 L31,30.896" id="Fill-4075" fill="#38454F" sketch:type="MSShapeGroup"></path>
            <path d="M2,24 L56,24 L56,27 L2,27 L2,24 Z" id="Fill-4076" fill="#556080" sketch:type="MSShapeGroup"></path>
        </g>
    </g>
</svg>