<?xml version="1.0" encoding="UTF-8" standalone="no"?>
<svg width="55px" height="58px" viewBox="0 0 55 58" version="1.1" xmlns="http://www.w3.org/2000/svg" xmlns:xlink="http://www.w3.org/1999/xlink" xmlns:sketch="http://www.bohemiancoding.com/sketch/ns">
    <!-- Generator: Sketch 3.2.2 (9983) - http://www.bohemiancoding.com/sketch -->
    <title>19 - Esspresso Machine (Flat)</title>
    <desc>Created with Sketch.</desc>
    <defs></defs>
    <g id="Page-1" stroke="none" stroke-width="1" fill="none" fill-rule="evenodd" sketch:type="MSPage">
        <g id="19---Esspresso-Machine-(Flat)" sketch:type="MSLayerGroup">
            <path d="M53,11 L53,42" id="Stroke-182" stroke="#C7CBC7" stroke-width="2" stroke-linecap="round" sketch:type="MSShapeGroup"></path>
            <path d="M55,58 L0,58 L0,55.384 C0,53.515 1.515,52 3.384,52 L51.616,52 C53.485,52 55,53.515 55,55.384 L55,58" id="Fill-324" fill="#556080" sketch:type="MSShapeGroup"></path>
            <path d="M46.079,23 L8.921,23 C7.102,23 5.411,22.452 4,21.517 L4,52 L50,52 L50,22.083 C48.815,22.664 47.488,23 46.079,23" id="Fill-325" fill="#38454F" sketch:type="MSShapeGroup"></path>
            <path d="M46.079,23 L8.921,23 C7.102,23 5.411,22.452 4,21.517 L4,52 L50,52 L50,22.083 C48.815,22.664 47.488,23 46.079,23" id="Fill-325" fill="#38454F" sketch:type="MSShapeGroup"></path>
            <path d="M46.079,23 L8.921,23 C3.994,23 0,19.006 0,14.079 L0,4.247 C0,1.901 1.901,0 4.247,0 L50.753,0 C53.099,0 55,1.901 55,4.247 L55,14.079 C55,19.006 51.006,23 46.079,23" id="Fill-3215" fill="#556080" sketch:type="MSShapeGroup"></path>
            <path d="M46.079,23 L8.921,23 C3.994,23 0,19.006 0,14.079 L0,4.247 C0,1.901 1.901,0 4.247,0 L50.753,0 C53.099,0 55,1.901 55,4.247 L55,14.079 C55,19.006 51.006,23 46.079,23" id="Fill-3215" fill="#556080" sketch:type="MSShapeGroup"></path>
            <path d="M16,4 L38,4 L38,19 L16,19 L16,4 Z" id="Fill-3216" fill="#A4CA83" sketch:type="MSShapeGroup"></path>
            <path d="M30.479,52 L23.521,52 C21.024,52 19,49.976 19,47.479 L19,39 L35,39 L35,47.479 C35,49.976 32.976,52 30.479,52" id="Fill-3217" fill="#E8EDEE" sketch:type="MSShapeGroup"></path>
            <path d="M20,48 L16,48 C13.791,48 12,46.209 12,44 C12,41.791 13.791,40 16,40 L20,40 L20,48 L20,48 Z" id="Stroke-3218" stroke="#E8EDEE" stroke-width="2" stroke-linecap="round" sketch:type="MSShapeGroup"></path>
            <path d="M50,7 C50,9.209 48.209,11 46,11 C43.791,11 42,9.209 42,7 C42,4.791 43.791,3 46,3 C48.209,3 50,4.791 50,7" id="Fill-3219" fill="#E8EDEE" sketch:type="MSShapeGroup"></path>
            <path d="M49,17 C49,18.657 47.657,20 46,20 C44.343,20 43,18.657 43,17 C43,15.343 44.343,14 46,14 C47.657,14 49,15.343 49,17" id="Fill-3220" fill="#28384B" sketch:type="MSShapeGroup"></path>
            <path d="M6,4 L12,4 L12,9 L6,9 L6,4 Z" id="Fill-3221" fill="#28384B" sketch:type="MSShapeGroup"></path>
            <path d="M6,14 L12,14 L12,19 L6,19 L6,14 Z" id="Fill-3222" fill="#28384B" sketch:type="MSShapeGroup"></path>
            <path d="M19,10 C18.744,10 18.488,9.902 18.293,9.707 C17.902,9.316 17.902,8.683 18.293,8.293 L20.293,6.293 C20.684,5.902 21.316,5.902 21.707,6.293 C22.098,6.683 22.098,7.316 21.707,7.707 L19.707,9.707 C19.512,9.902 19.256,10 19,10" id="Fill-3223" fill="#88C057" sketch:type="MSShapeGroup"></path>
            <path d="M19,15 C18.744,15 18.488,14.902 18.293,14.707 C17.902,14.316 17.902,13.684 18.293,13.293 L25.293,6.293 C25.684,5.902 26.316,5.902 26.707,6.293 C27.098,6.683 27.098,7.316 26.707,7.707 L19.707,14.707 C19.512,14.902 19.256,15 19,15" id="Fill-3224" fill="#88C057" sketch:type="MSShapeGroup"></path>
            <path d="M25,34 L25,36 M29,34 L29,36" id="Stroke-3225" stroke="#E8EDEE" stroke-width="2" stroke-linecap="round" sketch:type="MSShapeGroup"></path>
            <path d="M42,31 L31.306,31 C30.585,31 30,30.415 30,29.693 L30,28.306 C30,27.585 30.585,27 31.306,27 L42,27 C43.105,27 44,27.895 44,29 C44,30.104 43.105,31 42,31" id="Fill-3814" fill="#C7CBC7" sketch:type="MSShapeGroup"></path>
            <path d="M31.306,27 L34,27 L34,23 L20,23 L20,31 C20,32.657 21.343,34 23,34 L31,34 C32.657,34 34,32.657 34,31 L31.306,31 C30.585,31 30,30.415 30,29.693 L30,28.306 C30,27.585 30.585,27 31.306,27" id="Fill-3815" fill="#949493" sketch:type="MSShapeGroup"></path>
        </g>
    </g>
</svg>