<?xml version="1.0" encoding="UTF-8" standalone="no"?>
<svg width="58px" height="58px" viewBox="0 0 58 58" version="1.1" xmlns="http://www.w3.org/2000/svg" xmlns:xlink="http://www.w3.org/1999/xlink" xmlns:sketch="http://www.bohemiancoding.com/sketch/ns">
    <!-- Generator: Sketch 3.2.2 (9983) - http://www.bohemiancoding.com/sketch -->
    <title>118 - Exterior Window (Flat)</title>
    <desc>Created with Sketch.</desc>
    <defs></defs>
    <g id="Page-1" stroke="none" stroke-width="1" fill="none" fill-rule="evenodd" sketch:type="MSPage">
        <g id="118---Exterior-Window-(Flat)" sketch:type="MSLayerGroup">
            <path d="M5,35.035 L53,35.035 L53,51 L5,51 L5,35.035 Z" id="Fill-61" fill="#28384B" sketch:type="MSShapeGroup"></path>
            <path d="M0,0 L58,0 L58,4 L0,4 L0,0 Z" id="Fill-388" fill="#FBF7F2" sketch:type="MSShapeGroup"></path>
            <path d="M1,4 L57,4 L57,7 L1,7 L1,4 Z" id="Fill-389" fill="#BCB7B3" sketch:type="MSShapeGroup"></path>
            <path d="M53,7 L56,7 L56,51 L53,51 L53,7 Z" id="Fill-390" fill="#EDE7E9" sketch:type="MSShapeGroup"></path>
            <path d="M5,35 L53,35 L53,7 L5,7 L5,35 Z" id="Fill-391" fill="#DBD6D2" sketch:type="MSShapeGroup"></path>
            <path d="M0,51 L58,51 L58,55 L0,55 L0,51 Z" id="Fill-2364" fill="#FBF7F2" sketch:type="MSShapeGroup"></path>
            <path d="M1,55 L57,55 L57,58 L1,58 L1,55 Z" id="Fill-2365" fill="#BCB7B3" sketch:type="MSShapeGroup"></path>
            <path d="M2,7 L5,7 L5,51 L2,51 L2,7 Z" id="Fill-2366" fill="#EDE7E9" sketch:type="MSShapeGroup"></path>
            <path d="M8,10 L50,10 L50,32 L8,32 L8,10 Z" id="Fill-2367" fill="#7FABDA" sketch:type="MSShapeGroup"></path>
            <path d="M40,41 L40,43" id="Stroke-2368" stroke="#23A24D" stroke-width="2" stroke-linecap="round" sketch:type="MSShapeGroup"></path>
            <path d="M44,37 C44,36.448 43.776,35.948 43.414,35.586 C43.414,35.074 43.219,34.562 42.828,34.171 C42.438,33.781 41.926,33.586 41.414,33.586 C41.052,33.224 40.552,33 40,33 C39.448,33 38.948,33.224 38.586,33.586 C38.074,33.586 37.562,33.781 37.171,34.171 C36.781,34.562 36.586,35.074 36.586,35.586 C36.224,35.948 36,36.448 36,37 C36,37.552 36.224,38.052 36.586,38.414 C36.586,38.926 36.781,39.438 37.171,39.828 C37.562,40.219 38.074,40.414 38.586,40.414 C38.948,40.776 39.448,41 40,41 C40.552,41 41.052,40.776 41.414,40.414 C41.926,40.414 42.438,40.219 42.828,39.828 C43.219,39.438 43.414,38.926 43.414,38.414 C43.776,38.052 44,37.552 44,37" id="Fill-3882" fill="#ECBA16" sketch:type="MSShapeGroup"></path>
            <path d="M41,37 C41,37.552 40.552,38 40,38 C39.448,38 39,37.552 39,37 C39,36.448 39.448,36 40,36 C40.552,36 41,36.448 41,37" id="Fill-3883" fill="#DD342E" sketch:type="MSShapeGroup"></path>
            <path d="M43,51 L37,51 L35,46 L45,46 L43,51" id="Fill-3884" fill="#F8B563" sketch:type="MSShapeGroup"></path>
            <path d="M46,46 L34,46 L33,43 L47,43 L46,46" id="Fill-3885" fill="#BC8850" sketch:type="MSShapeGroup"></path>
            <path d="M24,10 L8,29 L8,32 L11,32 L29,10 L24,10" id="Fill-3992" fill="#A4C9EB" sketch:type="MSShapeGroup"></path>
            <path d="M33,10 L15,32 L20,32 L38,10 L33,10" id="Fill-3993" fill="#D2E8F9" sketch:type="MSShapeGroup"></path>
        </g>
    </g>
</svg>