<?xml version="1.0" encoding="UTF-8" standalone="no"?>
<svg width="58px" height="57px" viewBox="0 0 58 57" version="1.1" xmlns="http://www.w3.org/2000/svg" xmlns:xlink="http://www.w3.org/1999/xlink" xmlns:sketch="http://www.bohemiancoding.com/sketch/ns">
    <!-- Generator: Sketch 3.2.2 (9983) - http://www.bohemiancoding.com/sketch -->
    <title>99 - Front Door (Flat)</title>
    <desc>Created with Sketch.</desc>
    <defs></defs>
    <g id="Page-1" stroke="none" stroke-width="1" fill="none" fill-rule="evenodd" sketch:type="MSPage">
        <g id="99---Front-Door-(Flat)" sketch:type="MSLayerGroup">
            <path d="M13,3 L45,3 L45,57 L13,57 L13,3 Z" id="Fill-2425" fill="#E65252" sketch:type="MSShapeGroup"></path>
            <path d="M13,57 L10,57 L10,0 L13,3 L13,57" id="Fill-2426" fill="#DBD6D2" sketch:type="MSShapeGroup"></path>
            <path d="M45,57 L48,57 L48,0 L45,3 L45,57" id="Fill-2427" fill="#DBD6D2" sketch:type="MSShapeGroup"></path>
            <path d="M45,3 L13,3 L10,0 L48,0 L45,3" id="Fill-2428" fill="#FBF7F2" sketch:type="MSShapeGroup"></path>
            <path d="M0,54 L10,54 L10,57 L0,57 L0,54 Z" id="Fill-2429" fill="#BFA380" sketch:type="MSShapeGroup"></path>
            <path d="M48,54 L58,54 L58,57 L48,57 L48,54 Z" id="Fill-2430" fill="#BFA380" sketch:type="MSShapeGroup"></path>
            <path d="M18,8 L40,8 L40,16 L18,16 L18,8 Z" id="Fill-2431" fill="#9B3838" sketch:type="MSShapeGroup"></path>
            <path d="M18,44 L40,44 L40,52 L18,52 L18,44 Z" id="Fill-2432" fill="#9B3838" sketch:type="MSShapeGroup"></path>
            <path d="M35,33 L35,32 L18,32 L18,40 L40,40 L40,33 L35,33" id="Fill-2433" fill="#9B3838" sketch:type="MSShapeGroup"></path>
            <path d="M35,27 L40,27 L40,20 L18,20 L18,28 L35,28 L35,27" id="Fill-2434" fill="#9B3838" sketch:type="MSShapeGroup"></path>
            <path d="M42,31 L38,31 C37.448,31 37,30.553 37,30 C37,29.447 37.448,29 38,29 L42,29 C42.552,29 43,29.447 43,30 C43,30.553 42.552,31 42,31" id="Fill-2435" fill="#CFBB42" sketch:type="MSShapeGroup"></path>
        </g>
    </g>
</svg>