<?xml version="1.0" encoding="UTF-8" standalone="no"?>
<svg width="58px" height="58px" viewBox="0 0 58 58" version="1.1" xmlns="http://www.w3.org/2000/svg" xmlns:xlink="http://www.w3.org/1999/xlink" xmlns:sketch="http://www.bohemiancoding.com/sketch/ns">
    <!-- Generator: Sketch 3.2.2 (9983) - http://www.bohemiancoding.com/sketch -->
    <title>193 - Herman Miller (Flat)</title>
    <desc>Created with Sketch.</desc>
    <defs></defs>
    <g id="Page-1" stroke="none" stroke-width="1" fill="none" fill-rule="evenodd" sketch:type="MSPage">
        <g id="193---Herman-Miller-(Flat)" sketch:type="MSLayerGroup">
            <path d="M19,22 C18.447,22 18,21.552 18,21 L18,17 C18,16.448 18.447,16 19,16 C19.553,16 20,16.448 20,17 L20,21 C20,21.552 19.553,22 19,22" id="Fill-232" fill="#4B4C4F" sketch:type="MSShapeGroup"></path>
            <path d="M39,22 C38.447,22 38,21.552 38,21 L38,17 C38,16.448 38.447,16 39,16 C39.553,16 40,16.448 40,17 L40,21 C40,21.552 39.553,22 39,22" id="Fill-233" fill="#4B4C4F" sketch:type="MSShapeGroup"></path>
            <path d="M50,24.83 L50,22 C50,20.625 48.885,19.51 47.51,19.51 L10.49,19.51 C9.115,19.51 8,20.625 8,22 L8,24.83 C9.231,26.017 10,27.68 10,29.525 L10,31 L48,31 L48,29.525 C48,27.68 48.769,26.017 50,24.83" id="Fill-430" fill="#261A1A" sketch:type="MSShapeGroup"></path>
            <path d="M43.914,17 L14.086,17 C10.725,17 8,14.275 8,10.914 L8,4.719 C8,2.113 10.113,0 12.72,0 L45.28,0 C47.887,0 50,2.113 50,4.719 L50,10.914 C50,14.275 47.275,17 43.914,17" id="Fill-751" fill="#352727" sketch:type="MSShapeGroup"></path>
            <path d="M42.305,47 L15.695,47 C9.788,47 5,42.212 5,36.305 L5,33.511 C5,32.124 6.124,31 7.511,31 L50.489,31 C51.876,31 53,32.124 53,33.511 L53,36.305 C53,42.212 48.212,47 42.305,47" id="Fill-752" fill="#965B2F" sketch:type="MSShapeGroup"></path>
            <path d="M19,10 C18.744,10 18.488,9.902 18.293,9.707 C17.902,9.316 17.902,8.683 18.293,8.293 L20.293,6.293 C20.684,5.902 21.316,5.902 21.707,6.293 C22.098,6.683 22.098,7.316 21.707,7.707 L19.707,9.707 C19.512,9.902 19.256,10 19,10" id="Fill-753" fill="#261A1A" sketch:type="MSShapeGroup"></path>
            <path d="M21,12 C20.744,12 20.488,11.902 20.293,11.707 L18.293,9.707 C17.902,9.316 17.902,8.683 18.293,8.293 C18.684,7.902 19.316,7.902 19.707,8.293 L21.707,10.293 C22.098,10.684 22.098,11.316 21.707,11.707 C21.512,11.902 21.256,12 21,12" id="Fill-754" fill="#261A1A" sketch:type="MSShapeGroup"></path>
            <path d="M17,12 C16.744,12 16.488,11.902 16.293,11.707 C15.902,11.316 15.902,10.684 16.293,10.293 L18.293,8.293 C18.684,7.902 19.316,7.902 19.707,8.293 C20.098,8.683 20.098,9.316 19.707,9.707 L17.707,11.707 C17.512,11.902 17.256,12 17,12" id="Fill-755" fill="#261A1A" sketch:type="MSShapeGroup"></path>
            <path d="M19,10 C18.744,10 18.488,9.902 18.293,9.707 L16.293,7.707 C15.902,7.316 15.902,6.683 16.293,6.293 C16.684,5.902 17.316,5.902 17.707,6.293 L19.707,8.293 C20.098,8.683 20.098,9.316 19.707,9.707 C19.512,9.902 19.256,10 19,10" id="Fill-756" fill="#261A1A" sketch:type="MSShapeGroup"></path>
            <path d="M39,10 C38.744,10 38.488,9.902 38.293,9.707 C37.902,9.316 37.902,8.683 38.293,8.293 L40.293,6.293 C40.684,5.902 41.316,5.902 41.707,6.293 C42.098,6.683 42.098,7.316 41.707,7.707 L39.707,9.707 C39.512,9.902 39.256,10 39,10" id="Fill-757" fill="#261A1A" sketch:type="MSShapeGroup"></path>
            <path d="M41,12 C40.744,12 40.488,11.902 40.293,11.707 L38.293,9.707 C37.902,9.316 37.902,8.683 38.293,8.293 C38.684,7.902 39.316,7.902 39.707,8.293 L41.707,10.293 C42.098,10.684 42.098,11.316 41.707,11.707 C41.512,11.902 41.256,12 41,12" id="Fill-758" fill="#261A1A" sketch:type="MSShapeGroup"></path>
            <path d="M37,12 C36.744,12 36.488,11.902 36.293,11.707 C35.902,11.316 35.902,10.684 36.293,10.293 L38.293,8.293 C38.684,7.902 39.316,7.902 39.707,8.293 C40.098,8.683 40.098,9.316 39.707,9.707 L37.707,11.707 C37.512,11.902 37.256,12 37,12" id="Fill-759" fill="#261A1A" sketch:type="MSShapeGroup"></path>
            <path d="M39,10 C38.744,10 38.488,9.902 38.293,9.707 L36.293,7.707 C35.902,7.316 35.902,6.683 36.293,6.293 C36.684,5.902 37.316,5.902 37.707,6.293 L39.707,8.293 C40.098,8.683 40.098,9.316 39.707,9.707 C39.512,9.902 39.256,10 39,10" id="Fill-760" fill="#261A1A" sketch:type="MSShapeGroup"></path>
            <path d="M19.707,23.293 C19.316,22.902 18.684,22.902 18.293,23.293 L17,24.586 L15.707,23.293 C15.316,22.902 14.684,22.902 14.293,23.293 C13.902,23.683 13.902,24.316 14.293,24.707 L15.586,26 L14.293,27.293 C13.902,27.684 13.902,28.316 14.293,28.707 C14.488,28.902 14.744,29 15,29 C15.256,29 15.512,28.902 15.707,28.707 L17,27.414 L18.293,28.707 C18.488,28.902 18.744,29 19,29 C19.256,29 19.512,28.902 19.707,28.707 C20.098,28.316 20.098,27.684 19.707,27.293 L18.414,26 L19.707,24.707 C20.098,24.316 20.098,23.683 19.707,23.293" id="Fill-761" fill="#110C0C" sketch:type="MSShapeGroup"></path>
            <path d="M42.414,26 L43.707,24.707 C44.098,24.316 44.098,23.683 43.707,23.293 C43.316,22.902 42.684,22.902 42.293,23.293 L41,24.586 L39.707,23.293 C39.316,22.902 38.684,22.902 38.293,23.293 C37.902,23.683 37.902,24.316 38.293,24.707 L39.586,26 L38.293,27.293 C37.902,27.684 37.902,28.316 38.293,28.707 C38.488,28.902 38.744,29 39,29 C39.256,29 39.512,28.902 39.707,28.707 L41,27.414 L42.293,28.707 C42.488,28.902 42.744,29 43,29 C43.256,29 43.512,28.902 43.707,28.707 C44.098,28.316 44.098,27.684 43.707,27.293 L42.414,26" id="Fill-762" fill="#110C0C" sketch:type="MSShapeGroup"></path>
            <path d="M50.489,31 L7.511,31 C7.054,31 11.611,37 15.695,37 L42.305,37 C46.389,37 50.946,31 50.489,31" id="Fill-763" fill="#3F2F2F" sketch:type="MSShapeGroup"></path>
            <path d="M31,51.333 L31,47 L27,47 L27,51.333 L11,54.611 C11,56.704 12.88,58.297 14.946,57.953 L29,55 L43.054,57.953 C45.12,58.297 47,56.704 47,54.611 L31,51.333" id="Fill-764" fill="#4B4C4F" sketch:type="MSShapeGroup"></path>
            <path d="M54.525,23 C50.921,23 48,25.921 48,29.525 L48,31 L50.489,31 C51.701,31 52.711,31.858 52.947,33 L53,33 L53,29.29 C53,28.577 53.578,28 54.29,28 L55.5,28 C56.881,28 58,26.881 58,25.5 C58,24.119 56.881,23 55.5,23 L54.525,23" id="Fill-766" fill="#B67035" sketch:type="MSShapeGroup"></path>
            <path d="M5,33 L5.053,33 C5.289,31.858 6.299,31 7.511,31 L10,31 L10,29.525 C10,25.921 7.078,23 3.475,23 L2.5,23 C1.119,23 0,24.119 0,25.5 C0,26.881 1.119,28 2.5,28 L3.71,28 C4.422,28 5,28.577 5,29.29 L5,33" id="Fill-767" fill="#B67035" sketch:type="MSShapeGroup"></path>
        </g>
    </g>
</svg>