<?xml version="1.0" encoding="UTF-8" standalone="no"?>
<svg width="60px" height="58px" viewBox="0 0 60 58" version="1.1" xmlns="http://www.w3.org/2000/svg" xmlns:xlink="http://www.w3.org/1999/xlink" xmlns:sketch="http://www.bohemiancoding.com/sketch/ns">
    <!-- Generator: Sketch 3.2.2 (9983) - http://www.bohemiancoding.com/sketch -->
    <title>120 - Interior Window (Flat)</title>
    <desc>Created with Sketch.</desc>
    <defs></defs>
    <g id="Page-1" stroke="none" stroke-width="1" fill="none" fill-rule="evenodd" sketch:type="MSPage">
        <g id="120---Interior-Window-(Flat)" sketch:type="MSLayerGroup" transform="translate(1.000000, 1.000000)">
            <path d="M29,5 L11,5 L11,34 L47,34 L47,5 L29,5" id="Fill-392" fill="#7FABDA" sketch:type="MSShapeGroup"></path>
            <path d="M30,4 L10,4 L10,35 L48,35 L48,4 L30,4 L30,4 Z M12,6 L28,6 L28,33 L12,33 L12,6 Z M30,6 L46,6 L46,33 L30,33 L30,6 Z" id="Fill-393" fill="#FFFFFF" sketch:type="MSShapeGroup"></path>
            <path d="M1,0 L6,0 L6,57 L1,57 L1,0 Z" id="Fill-2342" fill="#7383BF" sketch:type="MSShapeGroup"></path>
            <path d="M6,0 L10,0 L10,57 L6,57 L6,0 Z" id="Fill-2343" fill="#54659B" sketch:type="MSShapeGroup"></path>
            <path d="M52,0 L57,0 L57,57 L52,57 L52,0 Z" id="Fill-2344" fill="#7383BF" sketch:type="MSShapeGroup"></path>
            <path d="M48,0 L52,0 L52,57 L48,57 L48,0 Z" id="Fill-2345" fill="#54659B" sketch:type="MSShapeGroup"></path>
            <path d="M10,35 L48,35 L48,39 L10,39 L10,35 Z" id="Fill-2346" fill="#E6E8D7" sketch:type="MSShapeGroup"></path>
            <path d="M10,39 L48,39 L48,42 L10,42 L10,39 Z" id="Fill-2347" fill="#979B94" sketch:type="MSShapeGroup"></path>
            <path d="M10,0 L48,0 L48,4 L10,4 L10,0 Z" id="Fill-2348" fill="#E6E8D7" sketch:type="MSShapeGroup"></path>
            <path d="M0,0 L58,0" id="Stroke-3989" stroke="#556080" stroke-width="2" stroke-linecap="round" sketch:type="MSShapeGroup"></path>
            <path d="M28,9.333 L12,26.417 L12,32.417 L28,14.917 L28,9.333" id="Fill-3990" fill="#A4C9EB" sketch:type="MSShapeGroup"></path>
            <path d="M46,9.333 L30,26.417 L30,32.417 L46,14.917 L46,9.333" id="Fill-3991" fill="#A4C9EB" sketch:type="MSShapeGroup"></path>
        </g>
    </g>
</svg>