<?xml version="1.0" encoding="UTF-8" standalone="no"?>
<svg width="56px" height="48px" viewBox="0 0 56 48" version="1.1" xmlns="http://www.w3.org/2000/svg" xmlns:xlink="http://www.w3.org/1999/xlink" xmlns:sketch="http://www.bohemiancoding.com/sketch/ns">
    <!-- Generator: Sketch 3.2.2 (9983) - http://www.bohemiancoding.com/sketch -->
    <title>6 - Juicer (Flat)</title>
    <desc>Created with Sketch.</desc>
    <defs></defs>
    <g id="Page-1" stroke="none" stroke-width="1" fill="none" fill-rule="evenodd" sketch:type="MSPage">
        <g id="6---Juicer-(Flat)" sketch:type="MSLayerGroup">
            <path d="M42.999,25.797 C42.898,9.984 30.989,0 28,0 C24.998,0 13,10.07 13,26 C13,26.553 13.448,27 14,27 L42,27 L42.02,27 C42.572,27 43.02,26.553 43.02,26 C43.02,25.931 43.013,25.862 42.999,25.797" id="Fill-185" fill="#289341" sketch:type="MSShapeGroup"></path>
            <path d="M28.574,0.183 C28.227,-0.061 27.765,-0.061 27.419,0.183 C24.885,1.976 22.002,6.434 19.82,25.889 C19.789,26.172 19.879,26.454 20.068,26.667 C20.258,26.879 20.529,27 20.814,27 L35.183,27 C35.467,27 35.738,26.879 35.928,26.667 C36.118,26.454 36.208,26.171 36.176,25.889 C33.994,6.434 31.109,1.976 28.574,0.183" id="Fill-186" fill="#2FC95A" sketch:type="MSShapeGroup"></path>
            <path d="M0,26 L56,26 L56,30 L0,30 L0,26 Z" id="Fill-3537" fill="#42B05C" sketch:type="MSShapeGroup"></path>
            <path d="M44.883,48 L11.117,48 C6.082,48 2,43.918 2,38.883 L2,30 L54,30 L54,38.883 C54,43.918 49.918,48 44.883,48" id="Fill-3538" fill="#23A24D" sketch:type="MSShapeGroup"></path>
        </g>
    </g>
</svg>