<?xml version="1.0" encoding="UTF-8" standalone="no"?>
<svg width="49px" height="59px" viewBox="0 0 49 59" version="1.1" xmlns="http://www.w3.org/2000/svg" xmlns:xlink="http://www.w3.org/1999/xlink" xmlns:sketch="http://www.bohemiancoding.com/sketch/ns">
    <!-- Generator: Sketch 3.2.2 (9983) - http://www.bohemiancoding.com/sketch -->
    <title>9 - Kitchen Aid (Flat)</title>
    <desc>Created with Sketch.</desc>
    <defs></defs>
    <g id="Page-1" stroke="none" stroke-width="1" fill="none" fill-rule="evenodd" sketch:type="MSPage">
        <g id="9---Kitchen-Aid-(Flat)" sketch:type="MSLayerGroup">
            <path d="M10,47.473 L10,37 L6,37 L6,47.473 C3.237,48.81 1.056,52.851 0.296,58 L1,58 C1,56.343 2.343,55 4,55 C5.381,55 6.544,55.933 6.893,57.202 C7.018,57.659 7.396,58 7.87,58 L8.13,58 C8.604,58 8.981,57.659 9.107,57.202 C9.456,55.933 10.619,55 12,55 C13.657,55 15,56.343 15,58 L15.703,58 C14.944,52.851 12.763,48.81 10,47.473" id="Fill-3499" fill="#E8EDEE" sketch:type="MSShapeGroup"></path>
            <path d="M8,0 C3.029,0 0,8.506 0,19 L0,19.052 C0.003,22.122 1.041,25.1 2.833,27.593 L3.166,28.056 C5.009,30.62 6,33.698 6,36.856 L6,37 L10,37 L10,36.856 C10,33.698 10.991,30.62 12.834,28.056 L13.167,27.593 C14.958,25.1 15.997,22.122 16,19.052 L16,19 C16,8.506 12.971,0 8,0" id="Fill-3500" fill="#C7CBC7" sketch:type="MSShapeGroup"></path>
            <path d="M11,25 C11,26.657 9.657,28 8,28 C6.343,28 5,26.657 5,25 C5,23.343 6.343,22 8,22 C9.657,22 11,23.343 11,25" id="Fill-3501" fill="#7383BF" sketch:type="MSShapeGroup"></path>
            <path d="M10,11.5 C10,15.438 12.378,18.866 15.892,20.663 C15.956,20.129 15.999,19.593 16,19.052 L16,19 C16,13.015 15.011,7.684 13.243,4.201 C11.239,6.091 10,8.662 10,11.5" id="Fill-3502" fill="#694F87" sketch:type="MSShapeGroup"></path>
            <path d="M2.757,4.201 C0.988,7.684 0,13.015 0,19 L0,19.052 C0,19.593 0.044,20.129 0.108,20.663 C3.621,18.866 6,15.438 6,11.5 C6,8.662 4.761,6.091 2.757,4.201" id="Fill-3503" fill="#694F87" sketch:type="MSShapeGroup"></path>
            <path d="M41.624,58 L30.376,58 C28.511,58 27,56.488 27,54.624 L27,12 L45,12 L45,54.624 C45,56.488 43.488,58 41.624,58" id="Fill-3504" fill="#A2C9ED" sketch:type="MSShapeGroup"></path>
            <path d="M45,50 L42,50 C41.448,50 41,50.447 41,51 C41,51.553 41.448,52 42,52 L45,52 C45.552,52 46,51.553 46,51 C46,50.447 45.552,50 45,50" id="Fill-3505" fill="#628FB7" sketch:type="MSShapeGroup"></path>
            <path d="M45,46 L42,46 C41.448,46 41,46.447 41,47 C41,47.553 41.448,48 42,48 L45,48 C45.552,48 46,47.553 46,47 C46,46.447 45.552,46 45,46" id="Fill-3506" fill="#628FB7" sketch:type="MSShapeGroup"></path>
            <path d="M45,42 L42,42 C41.448,42 41,42.447 41,43 C41,43.553 41.448,44 42,44 L45,44 C45.552,44 46,43.553 46,43 C46,42.447 45.552,42 45,42" id="Fill-3507" fill="#628FB7" sketch:type="MSShapeGroup"></path>
            <path d="M45,38 L42,38 C41.448,38 41,38.447 41,39 C41,39.553 41.448,40 42,40 L45,40 C45.552,40 46,39.553 46,39 C46,38.447 45.552,38 45,38" id="Fill-3508" fill="#628FB7" sketch:type="MSShapeGroup"></path>
            <path d="M42,36 L45,36 C45.552,36 46,35.553 46,35 C46,34.447 45.552,34 45,34 L42,34 C41.448,34 41,34.447 41,35 C41,35.553 41.448,36 42,36" id="Fill-3509" fill="#628FB7" sketch:type="MSShapeGroup"></path>
            <path d="M30,50 L27,50 C26.448,50 26,50.447 26,51 C26,51.553 26.448,52 27,52 L30,52 C30.552,52 31,51.553 31,51 C31,50.447 30.552,50 30,50" id="Fill-3510" fill="#628FB7" sketch:type="MSShapeGroup"></path>
            <path d="M30,46 L27,46 C26.448,46 26,46.447 26,47 C26,47.553 26.448,48 27,48 L30,48 C30.552,48 31,47.553 31,47 C31,46.447 30.552,46 30,46" id="Fill-3511" fill="#628FB7" sketch:type="MSShapeGroup"></path>
            <path d="M30,42 L27,42 C26.448,42 26,42.447 26,43 C26,43.553 26.448,44 27,44 L30,44 C30.552,44 31,43.553 31,43 C31,42.447 30.552,42 30,42" id="Fill-3512" fill="#628FB7" sketch:type="MSShapeGroup"></path>
            <path d="M30,38 L27,38 C26.448,38 26,38.447 26,39 C26,39.553 26.448,40 27,40 L30,40 C30.552,40 31,39.553 31,39 C31,38.447 30.552,38 30,38" id="Fill-3513" fill="#628FB7" sketch:type="MSShapeGroup"></path>
            <path d="M30,34 L27,34 C26.448,34 26,34.447 26,35 C26,35.553 26.448,36 27,36 L30,36 C30.552,36 31,35.553 31,35 C31,34.447 30.552,34 30,34" id="Fill-3514" fill="#628FB7" sketch:type="MSShapeGroup"></path>
            <path d="M41.624,59 L30.376,59 C27.963,59 26,57.037 26,54.624 L26,11 L46,11 L46,54.624 C46,57.037 44.037,59 41.624,59 L41.624,59 Z M28,13 L28,54.624 C28,55.934 29.066,57 30.376,57 L41.624,57 C42.934,57 44,55.934 44,54.624 L44,13 L28,13 L28,13 Z" id="Fill-3934" fill="#E8EDEE" sketch:type="MSShapeGroup"></path>
            <path d="M24,12 L48,12" id="Stroke-3935" stroke="#7383BF" stroke-width="2" stroke-linecap="round" sketch:type="MSShapeGroup"></path>
        </g>
    </g>
</svg>