<?xml version="1.0" encoding="UTF-8" standalone="no"?>
<svg width="54px" height="55px" viewBox="0 0 54 55" version="1.1" xmlns="http://www.w3.org/2000/svg" xmlns:xlink="http://www.w3.org/1999/xlink" xmlns:sketch="http://www.bohemiancoding.com/sketch/ns">
    <!-- Generator: Sketch 3.2.2 (9983) - http://www.bohemiancoding.com/sketch -->
    <title>70 - Lamp (Flat)</title>
    <desc>Created with Sketch.</desc>
    <defs></defs>
    <g id="Page-1" stroke="none" stroke-width="1" fill="none" fill-rule="evenodd" sketch:type="MSPage">
        <g id="70---Lamp-(Flat)" sketch:type="MSLayerGroup" transform="translate(-1.000000, 2.000000)">
            <path d="M48,14 L26,0 L23,2 M48,20 L27,45" id="Stroke-2296" stroke="#7383BF" stroke-width="2" stroke-linecap="round" sketch:type="MSShapeGroup"></path>
            <path d="M51,53 L4,53 C4,49.686 6.686,47 10,47 L45,47 C48.314,47 51,49.686 51,53" id="Fill-2297" fill="#38454F" sketch:type="MSShapeGroup"></path>
            <path d="M15,43 L40,43 L40,47 L15,47 L15,43 Z" id="Fill-2298" fill="#556080" sketch:type="MSShapeGroup"></path>
            <path d="M55,17 C55,19.209 53.209,21 51,21 C48.791,21 47,19.209 47,17 C47,14.791 48.791,13 51,13 C53.209,13 55,14.791 55,17" id="Fill-2299" fill="#556080" sketch:type="MSShapeGroup"></path>
            <path d="M19.009,15.89 L20.43,14.469 C23.165,11.735 22.783,7.683 20.048,4.948 C17.314,2.213 13.262,1.831 10.527,4.566 L9.118,5.982 L0.958,9.899 L15.1,24.042 L19.009,15.89" id="Fill-2300" fill="#F0CE49" sketch:type="MSShapeGroup"></path>
            <path d="M20.048,4.948 C20.809,5.709 21.381,6.574 21.761,7.482 L25,4.242 L20.757,0 L17.52,3.237 C18.426,3.618 19.289,4.188 20.048,4.948" id="Fill-2301" fill="#C7CBC7" sketch:type="MSShapeGroup"></path>
        </g>
    </g>
</svg>