<?xml version="1.0" encoding="UTF-8" standalone="no"?>
<svg width="60px" height="58px" viewBox="0 0 60 58" version="1.1" xmlns="http://www.w3.org/2000/svg" xmlns:xlink="http://www.w3.org/1999/xlink" xmlns:sketch="http://www.bohemiancoding.com/sketch/ns">
    <!-- Generator: Sketch 3.2.2 (9983) - http://www.bohemiancoding.com/sketch -->
    <title>87 - Leaky Elbow Pipe (Flat)</title>
    <desc>Created with Sketch.</desc>
    <defs></defs>
    <g id="Page-1" stroke="none" stroke-width="1" fill="none" fill-rule="evenodd" sketch:type="MSPage">
        <g id="87---Leaky-Elbow-Pipe-(Flat)" sketch:type="MSLayerGroup" transform="translate(1.000000, 0.000000)">
            <path d="M23.568,53 C13.866,53 6,45.134 6,35.432 L6,22 L30,22 L30,27.483 C30,28.321 30.679,29 31.517,29 L37,29 L37,53 L23.568,53" id="Fill-188" fill="#B0B6BB" sketch:type="MSShapeGroup"></path>
            <path d="M3,18 L33,18 L33,22 L3,22 L3,18 Z" id="Fill-189" fill="#E0E2E3" sketch:type="MSShapeGroup"></path>
            <path d="M37,26 L41,26 L41,56 L37,56 L37,26 Z" id="Fill-190" fill="#E0E2E3" sketch:type="MSShapeGroup"></path>
            <path d="M8,0 L28,0 L28,18 L8,18 L8,0 Z" id="Fill-191" fill="#C7CBC7" sketch:type="MSShapeGroup"></path>
            <path d="M41,31 L59,31 L59,51 L41,51 L41,31 Z" id="Fill-192" fill="#C7CBC7" sketch:type="MSShapeGroup"></path>
            <path d="M7.087,56.784 L7.087,56.784 C5.465,58.405 2.836,58.405 1.214,56.784 C-0.407,55.162 -0.402,52.626 1.214,50.387 L4.15,46.235 L7.087,50.387 C8.703,52.982 8.708,55.162 7.087,56.784" id="Fill-2258" fill="#7383BF" sketch:type="MSShapeGroup"></path>
            <path d="M4,40 L2,42 M3,37 L0,37" id="Stroke-2259" stroke="#C7CBC7" stroke-width="2" stroke-linecap="round" sketch:type="MSShapeGroup"></path>
            <path d="M15,27 C14.448,27 14,27.447 14,28 L14,31 L11,31 C10.448,31 10,31.447 10,32 L10,35 L7,35 C6.448,35 6,35.447 6,36 C6,36.553 6.448,37 7,37 L11,37 C11.552,37 12,36.553 12,36 L12,33 L15,33 C15.552,33 16,32.553 16,32 L16,28 C16,27.447 15.552,27 15,27" id="Fill-2270" fill="#556080" sketch:type="MSShapeGroup"></path>
        </g>
    </g>
</svg>