<?xml version="1.0" encoding="UTF-8" standalone="no"?>
<svg width="29px" height="58px" viewBox="0 0 29 58" version="1.1" xmlns="http://www.w3.org/2000/svg" xmlns:xlink="http://www.w3.org/1999/xlink" xmlns:sketch="http://www.bohemiancoding.com/sketch/ns">
    <!-- Generator: Sketch 3.2.2 (9983) - http://www.bohemiancoding.com/sketch -->
    <title>84 - Leaking Straight Pipe (Flat)</title>
    <desc>Created with Sketch.</desc>
    <defs></defs>
    <g id="Page-1" stroke="none" stroke-width="1" fill="none" fill-rule="evenodd" sketch:type="MSPage">
        <g id="84---Leaking-Straight-Pipe-(Flat)" sketch:type="MSLayerGroup" transform="translate(1.000000, 0.000000)">
            <path d="M9,0 L25,0 L25,3 L9,3 L9,0 Z" id="Fill-359" fill="#DD691D" sketch:type="MSShapeGroup"></path>
            <path d="M9,55 L25,55 L25,58 L9,58 L9,55 Z" id="Fill-360" fill="#DD691D" sketch:type="MSShapeGroup"></path>
            <path d="M9,9 L9,32.448 L11.786,36.387 C13.402,38.983 13.407,41.162 11.786,42.784 C11.013,43.556 10.012,43.949 9,43.986 L9,49 L25,49 L25,9 L9,9" id="Fill-361" fill="#DD691D" sketch:type="MSShapeGroup"></path>
            <path d="M11.786,42.784 L11.786,42.784 C10.164,44.405 7.535,44.405 5.913,42.784 C4.292,41.162 4.297,38.626 5.913,36.387 L8.849,32.235 L11.786,36.387 C13.402,38.982 13.407,41.162 11.786,42.784" id="Fill-2287" fill="#0F81E0" sketch:type="MSShapeGroup"></path>
            <path d="M11.786,42.784 L11.786,42.784 C10.164,44.405 7.535,44.405 5.913,42.784 C4.292,41.162 4.297,38.626 5.913,36.387 L8.849,32.235 L11.786,36.387 C13.402,38.982 13.407,41.162 11.786,42.784" id="Fill-2287" fill="#0F81E0" sketch:type="MSShapeGroup"></path>
            <path d="M4,28 L2,30 M3,25 L0,25" id="Stroke-2288" stroke="#F0CE49" stroke-width="2" stroke-linecap="round" sketch:type="MSShapeGroup"></path>
            <path d="M6,3 L28,3 L28,9 L6,9 L6,3 Z" id="Fill-2289" fill="#ED8A19" sketch:type="MSShapeGroup"></path>
            <path d="M6,49 L28,49 L28,55 L6,55 L6,49 Z" id="Fill-2290" fill="#ED8A19" sketch:type="MSShapeGroup"></path>
            <path d="M4,22 L1.879,19.879" id="Stroke-2291" stroke="#F0CE49" stroke-width="2" stroke-linecap="round" sketch:type="MSShapeGroup"></path>
            <path d="M17,16 C16.447,16 16,16.447 16,17 L16,20 L13,20 C12.447,20 12,20.447 12,21 L12,24 L9,24 L9,26 L13,26 C13.553,26 14,25.553 14,25 L14,22 L17,22 C17.553,22 18,21.553 18,21 L18,17 C18,16.447 17.553,16 17,16" id="Fill-3793" fill="#9E4614" sketch:type="MSShapeGroup"></path>
        </g>
    </g>
</svg>