<?xml version="1.0" encoding="UTF-8" standalone="no"?>
<svg width="38px" height="58px" viewBox="0 0 38 58" version="1.1" xmlns="http://www.w3.org/2000/svg" xmlns:xlink="http://www.w3.org/1999/xlink" xmlns:sketch="http://www.bohemiancoding.com/sketch/ns">
    <!-- Generator: Sketch 3.2.2 (9983) - http://www.bohemiancoding.com/sketch -->
    <title>57 - LED Bulb (Flat)</title>
    <desc>Created with Sketch.</desc>
    <defs></defs>
    <g id="Page-1" stroke="none" stroke-width="1" fill="none" fill-rule="evenodd" sketch:type="MSPage">
        <g id="57---LED-Bulb-(Flat)" sketch:type="MSLayerGroup">
            <path d="M19,0.124 C9.996,0.124 0,4.25 0,18 C0,33.333 11,40.698 11,45.067 L11,46 L27,46 L27,45.067 C27,40.698 38,33.333 38,18 C38,4.25 28.004,0.124 19,0.124" id="Fill-350" fill="#DCE0E8" sketch:type="MSShapeGroup"></path>
            <path d="M19,0.124 C9.996,0.124 0,4.25 0,18 L38,18 C38,4.25 28.004,0.124 19,0.124" id="Fill-351" fill="#E8EDEE" sketch:type="MSShapeGroup"></path>
            <path d="M11,50 L27,50 L27,54 L11,54 L11,50 Z" id="Fill-2948" fill="#E8EDEE" sketch:type="MSShapeGroup"></path>
            <path d="M11,46 L27,46 L27,50 L11,50 L11,46 Z" id="Fill-2949" fill="#C7CBC7" sketch:type="MSShapeGroup"></path>
            <path d="M22,58 L16,58 L13,54 L25,54 L22,58" id="Fill-2950" fill="#C7CBC7" sketch:type="MSShapeGroup"></path>
            <path d="M7,16 C6.448,16 6,15.553 6,15 C6,10.589 9.589,7 14,7 C14.552,7 15,7.447 15,8 C15,8.553 14.552,9 14,9 C10.691,9 8,11.691 8,15 C8,15.553 7.552,16 7,16" id="Fill-2957" fill="#FFFFFF" sketch:type="MSShapeGroup"></path>
            <path d="M12.035,36.32 C13.19,37.952 14.26,39.465 15,46 L23,46 C23.74,39.465 24.81,37.952 25.965,36.32 C29.089,31.903 32,26.407 32,18 L6,18 C6,26.407 8.911,31.903 12.035,36.32" id="Fill-2998" fill="#B2B5C8" sketch:type="MSShapeGroup"></path>
            <path d="M18,46 C17.223,37.685 16.917,36.125 15.908,34.01 C14.153,30.328 12.947,26.996 12,18 L26,18 C25.053,26.995 23.966,30.387 22.093,34.009 C21.042,36.042 20.777,37.685 20,46 L18,46" id="Fill-2999" fill="#DCE0E8" sketch:type="MSShapeGroup"></path>
        </g>
    </g>
</svg>