<?xml version="1.0" encoding="UTF-8" standalone="no"?>
<svg width="58px" height="55px" viewBox="0 0 58 55" version="1.1" xmlns="http://www.w3.org/2000/svg" xmlns:xlink="http://www.w3.org/1999/xlink" xmlns:sketch="http://www.bohemiancoding.com/sketch/ns">
    <!-- Generator: Sketch 3.2.2 (9983) - http://www.bohemiancoding.com/sketch -->
    <title>13 - Meat Grinder (Flat)</title>
    <desc>Created with Sketch.</desc>
    <defs></defs>
    <g id="Page-1" stroke="none" stroke-width="1" fill="none" fill-rule="evenodd" sketch:type="MSPage">
        <g id="13---Meat-Grinder-(Flat)" sketch:type="MSLayerGroup">
            <path d="M15.5,55 L8.5,55 C3.806,55 0,51.194 0,46.5 L0,42 L24,42 L24,46.5 C24,51.194 20.194,55 15.5,55" id="Fill-3405" fill="#61B972" sketch:type="MSShapeGroup"></path>
            <path d="M58,55 L29,55 L29,21.621 C29,17.964 31.964,15 35.621,15 L51.379,15 C55.036,15 58,17.964 58,21.621 L58,55" id="Fill-3457" fill="#556080" sketch:type="MSShapeGroup"></path>
            <path d="M52,26 L58,26 L58,46 L52,46 L52,26 Z" id="Fill-3458" fill="#7383BF" sketch:type="MSShapeGroup"></path>
            <path d="M39,38 C39,39.657 37.657,41 36,41 C34.343,41 33,39.657 33,38 C33,36.343 34.343,35 36,35 C37.657,35 39,36.343 39,38" id="Fill-3459" fill="#28384B" sketch:type="MSShapeGroup"></path>
            <path d="M39,47 C39,48.657 37.657,50 36,50 C34.343,50 33,48.657 33,47 C33,45.343 34.343,44 36,44 C37.657,44 39,45.343 39,47" id="Fill-3460" fill="#28384B" sketch:type="MSShapeGroup"></path>
            <path d="M23,22 L23,8 L15,8 L15,22 L10,22 L10,29 L29,29 L29,22 L23,22" id="Fill-3461" fill="#C7CBC7" sketch:type="MSShapeGroup"></path>
            <path d="M7,20 L10,20 L10,31 L7,31 L7,20 Z" id="Fill-3462" fill="#E8EDEE" sketch:type="MSShapeGroup"></path>
            <path d="M10,17 C9.447,17 9,17.447 9,18 L9,33 C9,33.553 9.447,34 10,34 C10.553,34 11,33.553 11,33 L11,18 C11,17.447 10.553,17 10,17" id="Fill-3463" fill="#949493" sketch:type="MSShapeGroup"></path>
            <path d="M39.769,3.346 L23,8 L11,8 C8.781,8 6.983,6.201 6.983,3.983 L6.983,0 L39.313,0 C40.254,0 41.017,0.763 41.017,1.704 C41.017,2.47 40.506,3.141 39.769,3.346" id="Fill-3816" fill="#7383BF" sketch:type="MSShapeGroup"></path>
        </g>
    </g>
</svg>