<?xml version="1.0" encoding="UTF-8" standalone="no"?>
<svg width="58px" height="42px" viewBox="0 0 58 42" version="1.1" xmlns="http://www.w3.org/2000/svg" xmlns:xlink="http://www.w3.org/1999/xlink" xmlns:sketch="http://www.bohemiancoding.com/sketch/ns">
    <!-- Generator: Sketch 3.2.2 (9983) - http://www.bohemiancoding.com/sketch -->
    <title>18 - Microwave (Flat)</title>
    <desc>Created with Sketch.</desc>
    <defs></defs>
    <g id="Page-1" stroke="none" stroke-width="1" fill="none" fill-rule="evenodd" sketch:type="MSPage">
        <g id="18---Microwave-(Flat)" sketch:type="MSLayerGroup">
            <path d="M0,0 L58,0 L58,39 L0,39 L0,0 Z" id="Fill-183" fill="#949493" sketch:type="MSShapeGroup"></path>
            <path d="M42,3 L58,3 L58,36 L42,36 L42,3 Z" id="Fill-184" fill="#E0E2E3" sketch:type="MSShapeGroup"></path>
            <path d="M2,39 L8,39 L8,42 L2,42 L2,39 Z" id="Fill-3287" fill="#556080" sketch:type="MSShapeGroup"></path>
            <path d="M50,39 L56,39 L56,42 L50,42 L50,39 Z" id="Fill-3288" fill="#556080" sketch:type="MSShapeGroup"></path>
            <path d="M31.27,30 L8.73,30 C6.67,30 5,28.33 5,26.27 L5,12.73 C5,10.67 6.67,9 8.73,9 L31.27,9 C33.33,9 35,10.67 35,12.73 L35,26.27 C35,28.33 33.33,30 31.27,30" id="Fill-3289" fill="#FFFFFF" sketch:type="MSShapeGroup"></path>
            <path d="M45,5 L55,5 L55,13 L45,13 L45,5 Z" id="Fill-3290" fill="#A4CA83" sketch:type="MSShapeGroup"></path>
            <path d="M45,16 L48,16 L48,19 L45,19 L45,16 Z" id="Fill-3291" fill="#FFFFFF" sketch:type="MSShapeGroup"></path>
            <path d="M52,16 L55,16 L55,19 L52,19 L52,16 Z" id="Fill-3292" fill="#FFFFFF" sketch:type="MSShapeGroup"></path>
            <path d="M45,20 L48,20 L48,23 L45,23 L45,20 Z" id="Fill-3293" fill="#FFFFFF" sketch:type="MSShapeGroup"></path>
            <path d="M52,20 L55,20 L55,23 L52,23 L52,20 Z" id="Fill-3294" fill="#FFFFFF" sketch:type="MSShapeGroup"></path>
            <path d="M45,24 L48,24 L48,27 L45,27 L45,24 Z" id="Fill-3295" fill="#FFFFFF" sketch:type="MSShapeGroup"></path>
            <path d="M52,24 L55,24 L55,27 L52,27 L52,24 Z" id="Fill-3296" fill="#FFFFFF" sketch:type="MSShapeGroup"></path>
            <path d="M0,3 L42,3 L42,36 L0,36 L0,3 Z" id="Fill-3297" fill="#7FABDA" sketch:type="MSShapeGroup"></path>
            <path d="M42,30 L58,30 L58,36 L42,36 L42,30 Z" id="Fill-3298" fill="#C7CBC7" sketch:type="MSShapeGroup"></path>
            <path d="M9,12 C9,12.552 8.552,13 8,13 C7.448,13 7,12.552 7,12 C7,11.448 7.448,11 8,11 C8.552,11 9,11.448 9,12" id="Fill-3299" fill="#FFFFFF" sketch:type="MSShapeGroup"></path>
            <path d="M15,12 C15,12.552 14.552,13 14,13 C13.448,13 13,12.552 13,12 C13,11.448 13.448,11 14,11 C14.552,11 15,11.448 15,12" id="Fill-3300" fill="#FFFFFF" sketch:type="MSShapeGroup"></path>
            <path d="M9,18 C9,18.552 8.552,19 8,19 C7.448,19 7,18.552 7,18 C7,17.448 7.448,17 8,17 C8.552,17 9,17.448 9,18" id="Fill-3301" fill="#FFFFFF" sketch:type="MSShapeGroup"></path>
            <path d="M15,18 C15,18.552 14.552,19 14,19 C13.448,19 13,18.552 13,18 C13,17.448 13.448,17 14,17 C14.552,17 15,17.448 15,18" id="Fill-3302" fill="#FFFFFF" sketch:type="MSShapeGroup"></path>
            <path d="M12,15 C12,15.552 11.552,16 11,16 C10.448,16 10,15.552 10,15 C10,14.448 10.448,14 11,14 C11.552,14 12,14.448 12,15" id="Fill-3303" fill="#FFFFFF" sketch:type="MSShapeGroup"></path>
            <path d="M18,15 C18,15.552 17.552,16 17,16 C16.448,16 16,15.552 16,15 C16,14.448 16.448,14 17,14 C17.552,14 18,14.448 18,15" id="Fill-3304" fill="#FFFFFF" sketch:type="MSShapeGroup"></path>
            <path d="M12,21 C12,21.552 11.552,22 11,22 C10.448,22 10,21.552 10,21 C10,20.448 10.448,20 11,20 C11.552,20 12,20.448 12,21" id="Fill-3305" fill="#FFFFFF" sketch:type="MSShapeGroup"></path>
            <path d="M18,21 C18,21.552 17.552,22 17,22 C16.448,22 16,21.552 16,21 C16,20.448 16.448,20 17,20 C17.552,20 18,20.448 18,21" id="Fill-3306" fill="#FFFFFF" sketch:type="MSShapeGroup"></path>
            <path d="M21,12 C21,12.552 20.552,13 20,13 C19.448,13 19,12.552 19,12 C19,11.448 19.448,11 20,11 C20.552,11 21,11.448 21,12" id="Fill-3307" fill="#FFFFFF" sketch:type="MSShapeGroup"></path>
            <path d="M21,18 C21,18.552 20.552,19 20,19 C19.448,19 19,18.552 19,18 C19,17.448 19.448,17 20,17 C20.552,17 21,17.448 21,18" id="Fill-3308" fill="#FFFFFF" sketch:type="MSShapeGroup"></path>
            <path d="M9,24 C9,24.552 8.552,25 8,25 C7.448,25 7,24.552 7,24 C7,23.448 7.448,23 8,23 C8.552,23 9,23.448 9,24" id="Fill-3309" fill="#FFFFFF" sketch:type="MSShapeGroup"></path>
            <path d="M15,24 C15,24.552 14.552,25 14,25 C13.448,25 13,24.552 13,24 C13,23.448 13.448,23 14,23 C14.552,23 15,23.448 15,24" id="Fill-3310" fill="#FFFFFF" sketch:type="MSShapeGroup"></path>
            <path d="M12,27 C12,27.552 11.552,28 11,28 C10.448,28 10,27.552 10,27 C10,26.448 10.448,26 11,26 C11.552,26 12,26.448 12,27" id="Fill-3311" fill="#FFFFFF" sketch:type="MSShapeGroup"></path>
            <path d="M18,27 C18,27.552 17.552,28 17,28 C16.448,28 16,27.552 16,27 C16,26.448 16.448,26 17,26 C17.552,26 18,26.448 18,27" id="Fill-3312" fill="#FFFFFF" sketch:type="MSShapeGroup"></path>
            <path d="M21,24 C21,24.552 20.552,25 20,25 C19.448,25 19,24.552 19,24 C19,23.448 19.448,23 20,23 C20.552,23 21,23.448 21,24" id="Fill-3313" fill="#FFFFFF" sketch:type="MSShapeGroup"></path>
            <path d="M27,12 C27,12.552 26.552,13 26,13 C25.448,13 25,12.552 25,12 C25,11.448 25.448,11 26,11 C26.552,11 27,11.448 27,12" id="Fill-3314" fill="#FFFFFF" sketch:type="MSShapeGroup"></path>
            <path d="M27,18 C27,18.552 26.552,19 26,19 C25.448,19 25,18.552 25,18 C25,17.448 25.448,17 26,17 C26.552,17 27,17.448 27,18" id="Fill-3315" fill="#FFFFFF" sketch:type="MSShapeGroup"></path>
            <path d="M24,15 C24,15.552 23.552,16 23,16 C22.448,16 22,15.552 22,15 C22,14.448 22.448,14 23,14 C23.552,14 24,14.448 24,15" id="Fill-3316" fill="#FFFFFF" sketch:type="MSShapeGroup"></path>
            <path d="M30,15 C30,15.552 29.552,16 29,16 C28.448,16 28,15.552 28,15 C28,14.448 28.448,14 29,14 C29.552,14 30,14.448 30,15" id="Fill-3317" fill="#FFFFFF" sketch:type="MSShapeGroup"></path>
            <path d="M24,21 C24,21.552 23.552,22 23,22 C22.448,22 22,21.552 22,21 C22,20.448 22.448,20 23,20 C23.552,20 24,20.448 24,21" id="Fill-3318" fill="#FFFFFF" sketch:type="MSShapeGroup"></path>
            <path d="M30,21 C30,21.552 29.552,22 29,22 C28.448,22 28,21.552 28,21 C28,20.448 28.448,20 29,20 C29.552,20 30,20.448 30,21" id="Fill-3319" fill="#FFFFFF" sketch:type="MSShapeGroup"></path>
            <path d="M33,12 C33,12.552 32.552,13 32,13 C31.448,13 31,12.552 31,12 C31,11.448 31.448,11 32,11 C32.552,11 33,11.448 33,12" id="Fill-3320" fill="#FFFFFF" sketch:type="MSShapeGroup"></path>
            <path d="M33,18 C33,18.552 32.552,19 32,19 C31.448,19 31,18.552 31,18 C31,17.448 31.448,17 32,17 C32.552,17 33,17.448 33,18" id="Fill-3321" fill="#FFFFFF" sketch:type="MSShapeGroup"></path>
            <path d="M27,24 C27,24.552 26.552,25 26,25 C25.448,25 25,24.552 25,24 C25,23.448 25.448,23 26,23 C26.552,23 27,23.448 27,24" id="Fill-3322" fill="#FFFFFF" sketch:type="MSShapeGroup"></path>
            <path d="M24,27 C24,27.552 23.552,28 23,28 C22.448,28 22,27.552 22,27 C22,26.448 22.448,26 23,26 C23.552,26 24,26.448 24,27" id="Fill-3323" fill="#FFFFFF" sketch:type="MSShapeGroup"></path>
            <path d="M30,27 C30,27.552 29.552,28 29,28 C28.448,28 28,27.552 28,27 C28,26.448 28.448,26 29,26 C29.552,26 30,26.448 30,27" id="Fill-3324" fill="#FFFFFF" sketch:type="MSShapeGroup"></path>
            <path d="M33,24 C33,24.552 32.552,25 32,25 C31.448,25 31,24.552 31,24 C31,23.448 31.448,23 32,23 C32.552,23 33,23.448 33,24" id="Fill-3325" fill="#FFFFFF" sketch:type="MSShapeGroup"></path>
            <path d="M42,27 L40.522,27 C39.129,27 38,25.871 38,24.478 L38,15.522 C38,14.129 39.129,13 40.522,13 L42,13 L42,27" id="Fill-3813" fill="#7383BF" sketch:type="MSShapeGroup"></path>
        </g>
    </g>
</svg>