<?xml version="1.0" encoding="UTF-8" standalone="no"?>
<svg width="60px" height="47px" viewBox="0 0 60 47" version="1.1" xmlns="http://www.w3.org/2000/svg" xmlns:xlink="http://www.w3.org/1999/xlink" xmlns:sketch="http://www.bohemiancoding.com/sketch/ns">
    <!-- Generator: Sketch 3.2.2 (9983) - http://www.bohemiancoding.com/sketch -->
    <title>62 - Modern Chandelier (Flat)</title>
    <desc>Created with Sketch.</desc>
    <defs></defs>
    <g id="Page-1" stroke="none" stroke-width="1" fill="none" fill-rule="evenodd" sketch:type="MSPage">
        <g id="62---Modern-Chandelier-(Flat)" sketch:type="MSLayerGroup" transform="translate(1.000000, 1.000000)">
            <path d="M29,4 L29,21" id="Stroke-2977" stroke="#556080" stroke-width="2" stroke-linecap="round" stroke-linejoin="round" sketch:type="MSShapeGroup"></path>
            <path d="M24,0 L34,0 L34,4 L24,4 L24,0 Z" id="Fill-2978" fill="#38454F" sketch:type="MSShapeGroup"></path>
            <path d="M58,45 L0,45 L0,29.027 C0,21.833 5.833,16 13.027,16 L44.973,16 C52.167,16 58,21.833 58,29.027 L58,45 L58,45 Z" id="Fill-2979" fill="#F0CE49" sketch:type="MSShapeGroup"></path>
            <path d="M58,45 L0,45 L0,29.027 C0,21.833 5.833,16 13.027,16 L44.973,16 C52.167,16 58,21.833 58,29.027 L58,45 L58,45 Z" id="Stroke-2980" stroke="#7383BF" stroke-width="2" stroke-linecap="round" stroke-linejoin="round" sketch:type="MSShapeGroup"></path>
            <path d="M1,36 L57,36 L57,44 L1,44 L1,36 Z" id="Fill-2981" fill="#F8E7A1" sketch:type="MSShapeGroup"></path>
            <path d="M19,0 L39,0" id="Path" stroke="#556080" stroke-width="2" stroke-linecap="round" stroke-linejoin="round" sketch:type="MSShapeGroup"></path>
            <path d="M13,21 L46,21" id="Stroke-3945" stroke="#B0B6BB" stroke-width="2" stroke-linecap="round" stroke-linejoin="round" sketch:type="MSShapeGroup"></path>
            <path d="M13.908,32.092 L13.908,32.092 C12.05,32.293 10.707,30.949 10.908,29.092 C11.109,27.234 12.778,25.565 14.636,25.364 L18,25 L17.636,28.364 C17.435,30.222 15.766,31.891 13.908,32.092" id="Fill-3946" fill="#ED8A19" sketch:type="MSShapeGroup"></path>
            <path d="M45.092,32.092 L45.092,32.092 C46.95,32.293 48.293,30.949 48.092,29.092 C47.891,27.234 46.222,25.565 44.364,25.364 L41,25 L41.364,28.364 C41.565,30.222 43.234,31.891 45.092,32.092" id="Fill-3947" fill="#ED8A19" sketch:type="MSShapeGroup"></path>
            <path d="M26.879,32.908 L26.879,32.908 C28.05,34.364 29.95,34.364 31.121,32.908 C32.293,31.452 32.293,29.092 31.121,27.636 L29,25 L26.879,27.636 C25.707,29.092 25.707,31.452 26.879,32.908" id="Fill-3948" fill="#ED8A19" sketch:type="MSShapeGroup"></path>
            <path d="M18,25 L22,21 M41,25 L37,21 M29,25 L29,21" id="Stroke-3949" stroke="#B0B6BB" stroke-width="2" stroke-linecap="round" stroke-linejoin="round" sketch:type="MSShapeGroup"></path>
        </g>
    </g>
</svg>