<?xml version="1.0" encoding="UTF-8" standalone="no"?>
<svg width="58px" height="58px" viewBox="0 0 58 58" version="1.1" xmlns="http://www.w3.org/2000/svg" xmlns:xlink="http://www.w3.org/1999/xlink" xmlns:sketch="http://www.bohemiancoding.com/sketch/ns">
    <!-- Generator: Sketch 3.2.2 (9983) - http://www.bohemiancoding.com/sketch -->
    <title>97 - Office Door (Flat)</title>
    <desc>Created with Sketch.</desc>
    <defs></defs>
    <g id="Page-1" stroke="none" stroke-width="1" fill="none" fill-rule="evenodd" sketch:type="MSPage">
        <g id="97---Office-Door-(Flat)" sketch:type="MSLayerGroup">
            <path d="M8,0 L12,0 L12,7 L8,7 L8,0 Z" id="Fill-2453" fill="#BFA380" sketch:type="MSShapeGroup"></path>
            <path d="M8,51 L12,51 L12,58 L8,58 L8,51 Z" id="Fill-2454" fill="#BFA380" sketch:type="MSShapeGroup"></path>
            <path d="M8,10 L12,10 L12,48 L8,48 L8,10 Z" id="Fill-2455" fill="#BFA380" sketch:type="MSShapeGroup"></path>
            <path d="M12,0 L12,7 L13,7 L13,10 L12,10 L12,48 L13,48 L13,51 L12,51 L12,58 L46,58 L46,0 L12,0" id="Fill-2456" fill="#E8EDEE" sketch:type="MSShapeGroup"></path>
            <path d="M16,4 L42,4 L42,29 L16,29 L16,4 Z" id="Fill-2457" fill="#7383BF" sketch:type="MSShapeGroup"></path>
            <path d="M16,35 L42,35 L42,54 L16,54 L16,35 Z" id="Fill-2458" fill="#7383BF" sketch:type="MSShapeGroup"></path>
            <path d="M0,53 L8,53 L8,58 L0,58 L0,53 Z" id="Fill-2459" fill="#949493" sketch:type="MSShapeGroup"></path>
            <path d="M50,53 L58,53 L58,58 L50,58 L50,53 Z" id="Fill-2460" fill="#949493" sketch:type="MSShapeGroup"></path>
            <path d="M21,5 L37,5 L37,26 L21,26 L21,5 Z M19,8 L39,8 L19,8 Z M19,11 L39,11 L19,11 Z M19,14 L39,14 L19,14 Z M19,17 L39,17 L19,17 Z M19,20 L39,20 L19,20 Z M19,23 L39,23 L19,23 Z M19,26 L39,26 L19,26 Z" id="Stroke-2461" stroke="#556080" stroke-width="2" stroke-linecap="round" sketch:type="MSShapeGroup"></path>
            <path d="M20,43 L24,39 M20,48 L22,46 M26,42 L29,39" id="Stroke-2462" stroke="#7FABDA" stroke-width="2" stroke-linecap="round" sketch:type="MSShapeGroup"></path>
            <path d="M43,33 L39,33 C38.448,33 38,32.553 38,32 C38,31.447 38.448,31 39,31 L43,31 C43.552,31 44,31.447 44,32 C44,32.553 43.552,33 43,33" id="Fill-2463" fill="#D1C17C" sketch:type="MSShapeGroup"></path>
            <path d="M46,0 L50,0 L50,58 L46,58 L46,0 Z" id="Fill-2464" fill="#BFA380" sketch:type="MSShapeGroup"></path>
            <path d="M8,7 L13,7 L13,10 L8,10 L8,7 Z" id="Fill-3970" fill="#556080" sketch:type="MSShapeGroup"></path>
            <path d="M8,48 L13,48 L13,51 L8,51 L8,48 Z" id="Fill-3971" fill="#556080" sketch:type="MSShapeGroup"></path>
        </g>
    </g>
</svg>