<?xml version="1.0" encoding="UTF-8" standalone="no"?>
<svg width="58px" height="59px" viewBox="0 0 58 59" version="1.1" xmlns="http://www.w3.org/2000/svg" xmlns:xlink="http://www.w3.org/1999/xlink" xmlns:sketch="http://www.bohemiancoding.com/sketch/ns">
    <!-- Generator: Sketch 3.2.2 (9983) - http://www.bohemiancoding.com/sketch -->
    <title>146 - Office Desk (Flat)</title>
    <desc>Created with Sketch.</desc>
    <defs></defs>
    <g id="Page-1" stroke="none" stroke-width="1" fill="none" fill-rule="evenodd" sketch:type="MSPage">
        <g id="146---Office-Desk-(Flat)" sketch:type="MSLayerGroup">
            <path d="M44.983,49.916 C44.977,49.846 44.963,49.782 44.943,49.716 C44.925,49.656 44.906,49.599 44.877,49.544 C44.847,49.487 44.81,49.437 44.77,49.386 C44.73,49.336 44.691,49.29 44.642,49.249 C44.594,49.208 44.542,49.176 44.486,49.144 C44.428,49.11 44.37,49.083 44.305,49.061 C44.276,49.052 44.255,49.032 44.225,49.025 L31.225,46.025 C30.689,45.904 30.15,46.237 30.025,46.775 C29.901,47.313 30.237,47.85 30.775,47.974 L30.938,48.012 C30.703,48.027 30.472,48.114 30.293,48.293 C29.902,48.683 29.902,49.316 30.293,49.707 L33.293,52.707 C33.488,52.902 33.744,53 34,53 C34.256,53 34.512,52.902 34.707,52.707 C35.098,52.316 35.098,51.683 34.707,51.293 L31.707,48.293 C31.637,48.223 31.552,48.179 31.469,48.135 L43,50.796 L43,52 C43,52.552 43.448,53 44,53 C44.552,53 45,52.552 45,52 L45,50 C45,49.97 44.986,49.945 44.983,49.916" id="Fill-798" fill="#C7CBC7" sketch:type="MSShapeGroup"></path>
            <path d="M30,42 C30,41.448 29.552,41 29,41 C28.448,41 28,41.448 28,42 L28,46 C28,46.552 28.448,47 29,47 C29.552,47 30,46.552 30,46 L30,42" id="Fill-799" fill="#C7CBC7" sketch:type="MSShapeGroup"></path>
            <path d="M27.062,48.012 L27.225,47.974 C27.763,47.85 28.099,47.313 27.975,46.775 C27.85,46.236 27.31,45.902 26.775,46.025 L13.775,49.025 C13.745,49.032 13.724,49.052 13.695,49.061 C13.63,49.083 13.572,49.11 13.514,49.144 C13.458,49.176 13.406,49.208 13.358,49.249 C13.309,49.29 13.27,49.336 13.23,49.386 C13.19,49.437 13.153,49.487 13.123,49.544 C13.094,49.599 13.075,49.656 13.057,49.716 C13.037,49.782 13.023,49.846 13.017,49.916 C13.014,49.945 13,49.97 13,50 L13,52 C13,52.552 13.448,53 14,53 C14.552,53 15,52.552 15,52 L15,50.796 L26.531,48.135 C26.448,48.179 26.363,48.223 26.293,48.293 L23.293,51.293 C22.902,51.683 22.902,52.316 23.293,52.707 C23.488,52.902 23.744,53 24,53 C24.256,53 24.512,52.902 24.707,52.707 L27.707,49.707 C28.098,49.316 28.098,48.683 27.707,48.293 C27.528,48.114 27.297,48.027 27.062,48.012" id="Fill-800" fill="#C7CBC7" sketch:type="MSShapeGroup"></path>
            <path d="M27,46 L31,46 L31,50.038 L27,50.038 L27,46 Z" id="Fill-801" fill="#B0B6BB" sketch:type="MSShapeGroup"></path>
            <path d="M17,55.5 C17,57.433 15.433,59 13.5,59 C11.567,59 10,57.433 10,55.5 C10,53.567 11.567,52 13.5,52 C15.433,52 17,53.567 17,55.5" id="Fill-802" fill="#38454F" sketch:type="MSShapeGroup"></path>
            <path d="M48,55.5 C48,57.433 46.433,59 44.5,59 C42.567,59 41,57.433 41,55.5 C41,53.567 42.567,52 44.5,52 C46.433,52 48,53.567 48,55.5" id="Fill-803" fill="#38454F" sketch:type="MSShapeGroup"></path>
            <path d="M27,55.5 C27,57.433 25.433,59 23.5,59 C21.567,59 20,57.433 20,55.5 C20,53.567 21.567,52 23.5,52 C25.433,52 27,53.567 27,55.5" id="Fill-804" fill="#38454F" sketch:type="MSShapeGroup"></path>
            <path d="M38,55.5 C38,57.433 36.433,59 34.5,59 C32.567,59 31,57.433 31,55.5 C31,53.567 32.567,52 34.5,52 C36.433,52 38,53.567 38,55.5" id="Fill-805" fill="#38454F" sketch:type="MSShapeGroup"></path>
            <path d="M51,16 L54,16 L54,25 L51,25 L51,16 Z" id="Fill-1570" fill="#ECBA16" sketch:type="MSShapeGroup"></path>
            <path d="M54,13 L57,13 L57,25 L54,25 L54,13 Z" id="Fill-1571" fill="#DD342E" sketch:type="MSShapeGroup"></path>
            <path d="M27,38 L31,38 L31,42 L27,42 L27,38 Z" id="Fill-1572" fill="#38454F" sketch:type="MSShapeGroup"></path>
            <path d="M20.946,6 L36.961,6 C38.406,6 39.645,7.03 39.908,8.451 L43.739,34.458 C44.08,36.3 42.666,38 40.793,38 L16.997,38 C15.124,38 13.71,36.3 14.051,34.458 L18,8.451 C18.263,7.03 19.502,6 20.946,6" id="Fill-1573" fill="#88C057" sketch:type="MSShapeGroup"></path>
            <path d="M16.854,16 L11,16 L11,21 L16.094,21 L16.854,16" id="Fill-1574" fill="#C7CBC7" sketch:type="MSShapeGroup"></path>
            <path d="M41.02,16 L41.756,21 L47,21 L47,16 L41.02,16" id="Fill-1575" fill="#C7CBC7" sketch:type="MSShapeGroup"></path>
            <path d="M11,0 L11,16 L16.854,16 L18,8.451 C18.099,7.918 18.334,7.44 18.667,7.051 C19.221,6.402 20.044,6 20.946,6 L36.961,6 C37.864,6 38.687,6.402 39.241,7.051 C39.573,7.44 39.809,7.918 39.908,8.451 L41.02,16 L47,16 L47,0 L11,0" id="Fill-1576" fill="#556080" sketch:type="MSShapeGroup"></path>
            <path d="M0,33 L1,33 L1,59 L4,59 L4,38 C4,35.239 6.239,33 9,33 L14.272,33 L15.487,25 L0,25 L0,33" id="Fill-1577" fill="#7D5C3E" sketch:type="MSShapeGroup"></path>
            <path d="M42.346,25 L43.524,33 L49,33 C51.761,33 54,35.239 54,38 L54,59 L57,59 L57,33 L58,33 L58,25 L42.346,25" id="Fill-1578" fill="#7D5C3E" sketch:type="MSShapeGroup"></path>
            <path d="M11,30 L4,30 C3.448,30 3,29.552 3,29 C3,28.447 3.448,28 4,28 L11,28 C11.552,28 12,28.447 12,29 C12,29.552 11.552,30 11,30" id="Fill-1579" fill="#3D251B" sketch:type="MSShapeGroup"></path>
            <path d="M54,30 L47,30 C46.447,30 46,29.552 46,29 C46,28.447 46.447,28 47,28 L54,28 C54.553,28 55,28.447 55,29 C55,29.552 54.553,30 54,30" id="Fill-1580" fill="#3D251B" sketch:type="MSShapeGroup"></path>
        </g>
    </g>
</svg>