<?xml version="1.0" encoding="UTF-8" standalone="no"?>
<svg width="53px" height="52px" viewBox="0 0 53 52" version="1.1" xmlns="http://www.w3.org/2000/svg" xmlns:xlink="http://www.w3.org/1999/xlink" xmlns:sketch="http://www.bohemiancoding.com/sketch/ns">
    <!-- Generator: Sketch 3.2.2 (9983) - http://www.bohemiancoding.com/sketch -->
    <title>67 - Outdoor Lamp (Flat)</title>
    <desc>Created with Sketch.</desc>
    <defs></defs>
    <g id="Page-1" stroke="none" stroke-width="1" fill="none" fill-rule="evenodd" sketch:type="MSPage">
        <g id="67---Outdoor-Lamp-(Flat)" sketch:type="MSLayerGroup">
            <path d="M44,44 L0,44 C0,34.059 8.059,26 18,26 L26,26 C35.941,26 44,34.059 44,44" id="Fill-353" fill="#556080" sketch:type="MSShapeGroup"></path>
            <path d="M49,0 L53,0 L53,26 L49,26 L49,0 Z" id="Fill-2920" fill="#38454F" sketch:type="MSShapeGroup"></path>
            <path d="M49,8 C46.239,8 44,10.238 44,13 C44,15.761 46.239,18 49,18 L49,8" id="Fill-2921" fill="#839494" sketch:type="MSShapeGroup"></path>
            <path d="M22,26 C22,18.814 27.815,13 35,13 L44,13" id="Stroke-2922" stroke="#949493" stroke-width="2" stroke-linecap="round" sketch:type="MSShapeGroup"></path>
            <path d="M35,44 L9,44 L9,39 C9,31.82 14.82,26 22,26 C29.18,26 35,31.82 35,39 L35,44" id="Fill-2923" fill="#7383BF" sketch:type="MSShapeGroup"></path>
            <path d="M30,44 C30,48.418 26.418,52 22,52 C17.582,52 14,48.418 14,44 L30,44" id="Fill-2924" fill="#F0CE49" sketch:type="MSShapeGroup"></path>
        </g>
    </g>
</svg>