<?xml version="1.0" encoding="UTF-8" standalone="no"?>
<svg width="59px" height="44px" viewBox="0 0 59 44" version="1.1" xmlns="http://www.w3.org/2000/svg" xmlns:xlink="http://www.w3.org/1999/xlink" xmlns:sketch="http://www.bohemiancoding.com/sketch/ns">
    <!-- Generator: Sketch 3.2.2 (9983) - http://www.bohemiancoding.com/sketch -->
    <title>76 - Radiator (Flat)</title>
    <desc>Created with Sketch.</desc>
    <defs></defs>
    <g id="Page-1" stroke="none" stroke-width="1" fill="none" fill-rule="evenodd" sketch:type="MSPage">
        <g id="76---Radiator-(Flat)" sketch:type="MSLayerGroup">
            <path d="M55,7 L58,7 M58,5 L58,9 M55,40 L58,40" id="Stroke-103" stroke="#C7CBC7" stroke-width="2" stroke-linecap="round" sketch:type="MSShapeGroup"></path>
            <path d="M0,0 L4,0 L4,44 L0,44 L0,0 Z" id="Fill-2585" fill="#C7CBC7" sketch:type="MSShapeGroup"></path>
            <path d="M48,0 L52,0 L52,44 L48,44 L48,0 Z" id="Fill-2586" fill="#C7CBC7" sketch:type="MSShapeGroup"></path>
            <path d="M10,44 L10,44 C8.895,44 8,43.104 8,42 L8,2 C8,0.895 8.895,0 10,0 C11.105,0 12,0.895 12,2 L12,42 C12,43.104 11.105,44 10,44" id="Fill-2587" fill="#C7CBC7" sketch:type="MSShapeGroup"></path>
            <path d="M18,44 L18,44 C16.895,44 16,43.104 16,42 L16,2 C16,0.895 16.895,0 18,0 C19.105,0 20,0.895 20,2 L20,42 C20,43.104 19.105,44 18,44" id="Fill-2588" fill="#C7CBC7" sketch:type="MSShapeGroup"></path>
            <path d="M26,44 L26,44 C24.895,44 24,43.104 24,42 L24,2 C24,0.895 24.895,0 26,0 C27.105,0 28,0.895 28,2 L28,42 C28,43.104 27.105,44 26,44" id="Fill-2589" fill="#C7CBC7" sketch:type="MSShapeGroup"></path>
            <path d="M34,44 L34,44 C32.895,44 32,43.104 32,42 L32,2 C32,0.895 32.895,0 34,0 C35.105,0 36,0.895 36,2 L36,42 C36,43.104 35.105,44 34,44" id="Fill-2590" fill="#C7CBC7" sketch:type="MSShapeGroup"></path>
            <path d="M42,44 L42,44 C40.895,44 40,43.104 40,42 L40,2 C40,0.895 40.895,0 42,0 C43.105,0 44,0.895 44,2 L44,42 C44,43.104 43.105,44 42,44" id="Fill-2591" fill="#C7CBC7" sketch:type="MSShapeGroup"></path>
            <path d="M12,4 L16,4 L16,40 L12,40 L12,4 Z" id="Fill-2592" fill="#949493" sketch:type="MSShapeGroup"></path>
            <path d="M28,4 L32,4 L32,40 L28,40 L28,4 Z" id="Fill-2593" fill="#949493" sketch:type="MSShapeGroup"></path>
            <path d="M20,4 L24,4 L24,40 L20,40 L20,4 Z" id="Fill-2594" fill="#949493" sketch:type="MSShapeGroup"></path>
            <path d="M36,4 L40,4 L40,40 L36,40 L36,4 Z" id="Fill-2595" fill="#949493" sketch:type="MSShapeGroup"></path>
            <path d="M44,4 L48,4 L48,40 L44,40 L44,4 Z" id="Fill-2596" fill="#949493" sketch:type="MSShapeGroup"></path>
            <path d="M4,4 L8,4 L8,40 L4,40 L4,4 Z" id="Fill-2597" fill="#949493" sketch:type="MSShapeGroup"></path>
            <path d="M52,4 L55,4 L55,10 L52,10 L52,4 Z" id="Fill-2598" fill="#949493" sketch:type="MSShapeGroup"></path>
            <path d="M52,37 L55,37 L55,43 L52,43 L52,37 Z" id="Fill-2599" fill="#949493" sketch:type="MSShapeGroup"></path>
        </g>
    </g>
</svg>