<?xml version="1.0" encoding="UTF-8" standalone="no"?>
<svg width="58px" height="59px" viewBox="0 0 58 59" version="1.1" xmlns="http://www.w3.org/2000/svg" xmlns:xlink="http://www.w3.org/1999/xlink" xmlns:sketch="http://www.bohemiancoding.com/sketch/ns">
    <!-- Generator: Sketch 3.2.2 (9983) - http://www.bohemiancoding.com/sketch -->
    <title>101 - Reading Room (Flat)</title>
    <desc>Created with Sketch.</desc>
    <defs></defs>
    <g id="Page-1" stroke="none" stroke-width="1" fill="none" fill-rule="evenodd" sketch:type="MSPage">
        <g id="101---Reading-Room-(Flat)" sketch:type="MSLayerGroup">
            <path d="M29,0 L22,0 C12.075,0 4,8.075 4,18 L4,54 C4,54.553 4.447,55 5,55 C5.553,55 6,54.553 6,54 L6,18 C6,9.178 13.178,2 22,2 L29,2 C35.065,2 40,6.934 40,13 C40,13.553 40.447,14 41,14 C41.553,14 42,13.553 42,13 C42,5.832 36.168,0 29,0" id="Fill-59" fill="#7383BF" sketch:type="MSShapeGroup"></path>
            <path d="M50,21 L32,21 L33.166,16.335 C33.656,14.375 35.417,13 37.438,13 L44.563,13 C46.583,13 48.344,14.375 48.834,16.335 L50,21" id="Fill-1428" fill="#95D6DC" sketch:type="MSShapeGroup"></path>
            <path d="M0,54.041 L10,54.041 L10,58.999 L0,58.999 L0,54.041 Z" id="Fill-1429" fill="#556080" sketch:type="MSShapeGroup"></path>
            <path d="M58,56 L31,56 L31,42.099 C31,40.94 31.94,40 33.099,40 L58,40 L58,56" id="Fill-1430" fill="#65933A" sketch:type="MSShapeGroup"></path>
            <path d="M58,40 L52,40 L52,29.514 C52,28.678 52.678,28 53.514,28 L56.486,28 C57.322,28 58,28.678 58,29.514 L58,40" id="Fill-1431" fill="#88C057" sketch:type="MSShapeGroup"></path>
            <path d="M33,56 L37,56 L37,59 L33,59 L33,56 Z" id="Fill-1432" fill="#CEAB83" sketch:type="MSShapeGroup"></path>
            <path d="M52,56 L56,56 L56,59 L52,59 L52,56 Z" id="Fill-1433" fill="#CEAB83" sketch:type="MSShapeGroup"></path>
            <path d="M52,40 L46,40 L46,36.556 C46,33.488 48.488,31 51.556,31 L52,31 L52,40" id="Fill-1434" fill="#AAD381" sketch:type="MSShapeGroup"></path>
        </g>
    </g>
</svg>