<?xml version="1.0" encoding="UTF-8" standalone="no"?>
<svg width="38px" height="58px" viewBox="0 0 38 58" version="1.1" xmlns="http://www.w3.org/2000/svg" xmlns:xlink="http://www.w3.org/1999/xlink" xmlns:sketch="http://www.bohemiancoding.com/sketch/ns">
    <!-- Generator: Sketch 3.2.2 (9983) - http://www.bohemiancoding.com/sketch -->
    <title>68 - Room Lamp (Flat)</title>
    <desc>Created with Sketch.</desc>
    <defs></defs>
    <g id="Page-1" stroke="none" stroke-width="1" fill="none" fill-rule="evenodd" sketch:type="MSPage">
        <g id="68---Room-Lamp-(Flat)" sketch:type="MSLayerGroup">
            <path d="M31,58 L7,58 C7,55.791 8.791,54 11,54 L27,54 C29.209,54 31,55.791 31,58" id="Fill-2926" fill="#426D5F" sketch:type="MSShapeGroup"></path>
            <path d="M38,33 L0,33 L0.908,30.795 C4.93,21.026 7,10.564 7,0 L31,0 C31,10.567 33.071,21.032 37.095,30.802 L38,33" id="Fill-2959" fill="#DD691D" sketch:type="MSShapeGroup"></path>
            <path d="M23,0 L15,0 C15,10.564 12,33 12,33 L26,33 C26,33 23,10.567 23,0" id="Fill-2960" fill="#ED8A19" sketch:type="MSShapeGroup"></path>
            <path d="M22,47 L16,47 C16,50.869 14.211,54 12,54 L26,54 C23.789,54 22,50.869 22,47" id="Fill-2961" fill="#25AE88" sketch:type="MSShapeGroup"></path>
            <path d="M23,47 L15,47 C13.9,47 13,46.1 13,45 C13,43.9 13.9,43 15,43 L23,43 C24.1,43 25,43.9 25,45 C25,46.1 24.1,47 23,47" id="Fill-2962" fill="#3CD6A6" sketch:type="MSShapeGroup"></path>
            <path d="M16,43 L14,38 L18,33 L20,33 L24,38 L22,43 L16,43" id="Fill-2963" fill="#25AE88" sketch:type="MSShapeGroup"></path>
        </g>
    </g>
</svg>