<?xml version="1.0" encoding="UTF-8" standalone="no"?>
<svg width="58px" height="57px" viewBox="0 0 58 57" version="1.1" xmlns="http://www.w3.org/2000/svg" xmlns:xlink="http://www.w3.org/1999/xlink" xmlns:sketch="http://www.bohemiancoding.com/sketch/ns">
    <!-- Generator: Sketch 3.2.2 (9983) - http://www.bohemiancoding.com/sketch -->
    <title>3 - Sandwhich Maker (Flat)</title>
    <desc>Created with Sketch.</desc>
    <defs></defs>
    <g id="Page-1" stroke="none" stroke-width="1" fill="none" fill-rule="evenodd" sketch:type="MSPage">
        <g id="3---Sandwhich-Maker-(Flat)" sketch:type="MSLayerGroup">
            <path d="M56.019,54 L1.981,54 C0.887,54 0,53.113 0,52.019 L0,45.981 C0,44.887 0.887,44 1.981,44 L56.019,44 C57.113,44 58,44.887 58,45.981 L58,52.019 C58,53.113 57.113,54 56.019,54" id="Fill-3547" fill="#949493" sketch:type="MSShapeGroup"></path>
            <path d="M5,54 L11,54 L11,57 L5,57 L5,54 Z" id="Fill-3548" fill="#556080" sketch:type="MSShapeGroup"></path>
            <path d="M47,54 L53,54 L53,57 L47,57 L47,54 Z" id="Fill-3549" fill="#556080" sketch:type="MSShapeGroup"></path>
            <path d="M11,40 L17,40 L17,44 L11,44 L11,40 Z" id="Fill-3550" fill="#C7CBC7" sketch:type="MSShapeGroup"></path>
            <path d="M40,40 L46,40 L46,44 L40,44 L40,40 Z" id="Fill-3551" fill="#C7CBC7" sketch:type="MSShapeGroup"></path>
            <path d="M39.62,0 L18.38,0 C8.229,0 0,8.229 0,18.38 L0,37.687 C0,38.964 1.036,40 2.313,40 L55.687,40 C56.964,40 58,38.964 58,37.687 L58,18.38 C58,8.229 49.771,0 39.62,0 L39.62,0 Z M37,7 L21,7 C19.9,7 19,6.1 19,5 C19,3.9 19.9,3 21,3 L37,3 C38.1,3 39,3.9 39,5 C39,6.1 38.1,7 37,7 L37,7 Z" id="Fill-3552" fill="#556080" sketch:type="MSShapeGroup"></path>
            <path d="M8,13 L11,13 M15,13 L18,13 M22,13 L25,13 M33,13 L36,13 M40,13 L43,13 M47,13 L50,13 M8,17 L11,17 M15,17 L18,17 M22,17 L25,17 M33,17 L36,17 M40,17 L43,17 M47,17 L50,17 M8,21 L11,21 M15,21 L18,21 M22,21 L25,21 M33,21 L36,21 M40,21 L43,21 M47,21 L50,21 M8,27 L11,27 M15,27 L18,27 M22,27 L25,27 M33,27 L36,27 M40,27 L43,27 M47,27 L50,27 M8,31 L11,31 M15,31 L18,31 M22,31 L25,31 M33,31 L36,31 M40,31 L43,31 M47,31 L50,31 M8,35 L11,35 M15,35 L18,35 M22,35 L25,35 M33,35 L36,35 M40,35 L43,35 M47,35 L50,35" id="Stroke-3553" stroke="#38454F" stroke-width="2" stroke-linecap="round" stroke-linejoin="round" sketch:type="MSShapeGroup"></path>
        </g>
    </g>
</svg>