<?xml version="1.0" encoding="UTF-8" standalone="no"?>
<svg width="58px" height="58px" viewBox="0 0 58 58" version="1.1" xmlns="http://www.w3.org/2000/svg" xmlns:xlink="http://www.w3.org/1999/xlink" xmlns:sketch="http://www.bohemiancoding.com/sketch/ns">
    <!-- Generator: Sketch 3.2.2 (9983) - http://www.bohemiancoding.com/sketch -->
    <title>14 - Sewing Machine (Flat)</title>
    <desc>Created with Sketch.</desc>
    <defs></defs>
    <g id="Page-1" stroke="none" stroke-width="1" fill="none" fill-rule="evenodd" sketch:type="MSPage">
        <g id="14---Sewing-Machine-(Flat)" sketch:type="MSLayerGroup">
            <path d="M13,37 L13,40" id="Stroke-96" stroke="#E8EDEE" stroke-width="2" stroke-linecap="round" stroke-linejoin="round" sketch:type="MSShapeGroup"></path>
            <path d="M32,19 L32,44 L4.672,44 C2.092,44 0,46.092 0,48.672 L0,53.327 C0,55.908 2.092,58 4.672,58 L52,58 L52,19 L32,19" id="Fill-322" fill="#AA9683" sketch:type="MSShapeGroup"></path>
            <path d="M52,3 L3,3 L3,24 L22,24 L22,19 L52,19 L52,3" id="Fill-323" fill="#DAC8B5" sketch:type="MSShapeGroup"></path>
            <path d="M52,13 L58,13 L58,25 L52,25 L52,13 Z" id="Fill-3434" fill="#556080" sketch:type="MSShapeGroup"></path>
            <path d="M3,3 L9,3 L9,18 L3,18 L3,3 Z" id="Fill-3435" fill="#AA9683" sketch:type="MSShapeGroup"></path>
            <path d="M40,0 L45,0 L45,3 L40,3 L40,0 Z" id="Fill-3436" fill="#556080" sketch:type="MSShapeGroup"></path>
            <path d="M31,0 L36,0 L36,3 L31,3 L31,0 Z" id="Fill-3437" fill="#556080" sketch:type="MSShapeGroup"></path>
            <path d="M11,24 L15,24 L15,34 L11,34 L11,24 Z" id="Fill-3438" fill="#556080" sketch:type="MSShapeGroup"></path>
            <path d="M16.5,37 L9.5,37 C8.672,37 8,36.328 8,35.5 C8,34.672 8.672,34 9.5,34 L16.5,34 C17.328,34 18,34.672 18,35.5 C18,36.328 17.328,37 16.5,37" id="Fill-3439" fill="#839494" sketch:type="MSShapeGroup"></path>
            <path d="M48,29 C48,32.314 45.314,35 42,35 C38.686,35 36,32.314 36,29 C36,25.686 38.686,23 42,23 C45.314,23 48,25.686 48,29" id="Fill-3440" fill="#4F443B" sketch:type="MSShapeGroup"></path>
            <path d="M42,36 C38.141,36 35,32.859 35,29 C35,25.141 38.141,22 42,22 C45.859,22 49,25.141 49,29 C49,32.859 45.859,36 42,36 L42,36 Z M42,24 C39.243,24 37,26.243 37,29 C37,31.757 39.243,34 42,34 C44.757,34 47,31.757 47,29 C47,26.243 44.757,24 42,24 L42,24 Z" id="Fill-3441" fill="#4F443B" sketch:type="MSShapeGroup"></path>
            <path d="M42,22 C41.447,22 41,22.447 41,23 L41,25 C41,25.552 41.447,26 42,26 C42.553,26 43,25.552 43,25 L43,23 C43,22.447 42.553,22 42,22" id="Fill-3442" fill="#5E534B" sketch:type="MSShapeGroup"></path>
            <path d="M42,32 C41.447,32 41,32.447 41,33 L41,35 C41,35.553 41.447,36 42,36 C42.553,36 43,35.553 43,35 L43,33 C43,32.447 42.553,32 42,32" id="Fill-3443" fill="#5E534B" sketch:type="MSShapeGroup"></path>
            <path d="M48,28 L46,28 C45.447,28 45,28.447 45,29 C45,29.553 45.447,30 46,30 L48,30 C48.553,30 49,29.553 49,29 C49,28.447 48.553,28 48,28" id="Fill-3444" fill="#5E534B" sketch:type="MSShapeGroup"></path>
            <path d="M39,29 C39,28.447 38.553,28 38,28 L36,28 C35.447,28 35,28.447 35,29 C35,29.553 35.447,30 36,30 L38,30 C38.553,30 39,29.553 39,29" id="Fill-3445" fill="#5E534B" sketch:type="MSShapeGroup"></path>
            <path d="M44.828,27.172 C45.084,27.172 45.34,27.074 45.535,26.879 L46.949,25.465 C47.34,25.074 47.34,24.441 46.949,24.051 C46.559,23.66 45.926,23.66 45.535,24.051 L44.121,25.465 C43.73,25.855 43.73,26.488 44.121,26.879 C44.316,27.074 44.572,27.172 44.828,27.172" id="Fill-3446" fill="#5E534B" sketch:type="MSShapeGroup"></path>
            <path d="M38.465,31.121 L37.051,32.535 C36.66,32.926 36.66,33.559 37.051,33.949 C37.246,34.145 37.502,34.242 37.758,34.242 C38.014,34.242 38.269,34.145 38.465,33.949 L39.879,32.535 C40.269,32.144 40.269,31.511 39.879,31.121 C39.488,30.73 38.855,30.73 38.465,31.121" id="Fill-3447" fill="#5E534B" sketch:type="MSShapeGroup"></path>
            <path d="M45.535,31.121 C45.144,30.73 44.512,30.73 44.121,31.121 C43.73,31.511 43.73,32.144 44.121,32.535 L45.535,33.949 C45.731,34.145 45.986,34.242 46.242,34.242 C46.498,34.242 46.754,34.145 46.949,33.949 C47.34,33.559 47.34,32.926 46.949,32.535 L45.535,31.121" id="Fill-3448" fill="#5E534B" sketch:type="MSShapeGroup"></path>
            <path d="M38.465,24.051 C38.074,23.66 37.441,23.66 37.051,24.051 C36.66,24.441 36.66,25.074 37.051,25.465 L38.465,26.879 C38.66,27.074 38.916,27.172 39.172,27.172 C39.428,27.172 39.684,27.074 39.879,26.879 C40.269,26.488 40.269,25.855 39.879,25.465 L38.465,24.051" id="Fill-3449" fill="#5E534B" sketch:type="MSShapeGroup"></path>
            <path d="M38,41 L36,41 C35.447,41 35,40.552 35,40 C35,39.447 35.447,39 36,39 L38,39 C38.553,39 39,39.447 39,40 C39,40.552 38.553,41 38,41" id="Fill-3450" fill="#4F443B" sketch:type="MSShapeGroup"></path>
            <path d="M38,44 L36,44 C35.447,44 35,43.552 35,43 C35,42.447 35.447,42 36,42 L38,42 C38.553,42 39,42.447 39,43 C39,43.552 38.553,44 38,44" id="Fill-3451" fill="#4F443B" sketch:type="MSShapeGroup"></path>
            <path d="M48,41 L46,41 C45.447,41 45,40.552 45,40 C45,39.447 45.447,39 46,39 L48,39 C48.553,39 49,39.447 49,40 C49,40.552 48.553,41 48,41" id="Fill-3452" fill="#4F443B" sketch:type="MSShapeGroup"></path>
            <path d="M48,44 L46,44 C45.447,44 45,43.552 45,43 C45,42.447 45.447,42 46,42 L48,42 C48.553,42 49,42.447 49,43 C49,43.552 48.553,44 48,44" id="Fill-3453" fill="#4F443B" sketch:type="MSShapeGroup"></path>
            <path d="M43,41 L41,41 C40.447,41 40,40.552 40,40 C40,39.447 40.447,39 41,39 L43,39 C43.553,39 44,39.447 44,40 C44,40.552 43.553,41 43,41" id="Fill-3454" fill="#4F443B" sketch:type="MSShapeGroup"></path>
            <path d="M43,44 L41,44 C40.447,44 40,43.552 40,43 C40,42.447 40.447,42 41,42 L43,42 C43.553,42 44,42.447 44,43 C44,43.552 43.553,44 43,44" id="Fill-3455" fill="#4F443B" sketch:type="MSShapeGroup"></path>
            <path d="M6,44 L20,44 L20,48 L6,48 L6,44 Z" id="Fill-3456" fill="#E8EDEE" sketch:type="MSShapeGroup"></path>
            <path d="M58,15 L55,15 C54.447,15 54,15.447 54,16 C54,16.552 54.447,17 55,17 L58,17 L58,15" id="Fill-3913" fill="#38454F" sketch:type="MSShapeGroup"></path>
            <path d="M58,18 L55,18 C54.447,18 54,18.447 54,19 C54,19.552 54.447,20 55,20 L58,20 L58,18" id="Fill-3914" fill="#38454F" sketch:type="MSShapeGroup"></path>
            <path d="M58,21 L55,21 C54.447,21 54,21.447 54,22 C54,22.552 54.447,23 55,23 L58,23 L58,21" id="Fill-3915" fill="#38454F" sketch:type="MSShapeGroup"></path>
        </g>
    </g>
</svg>