<?xml version="1.0" encoding="UTF-8" standalone="no"?>
<svg width="59px" height="59px" viewBox="0 0 59 59" version="1.1" xmlns="http://www.w3.org/2000/svg" xmlns:xlink="http://www.w3.org/1999/xlink" xmlns:sketch="http://www.bohemiancoding.com/sketch/ns">
    <!-- Generator: Sketch 3.2.2 (9983) - http://www.bohemiancoding.com/sketch -->
    <title>38 - Shower (Flat)</title>
    <desc>Created with Sketch.</desc>
    <defs></defs>
    <g id="Page-1" stroke="none" stroke-width="1" fill="none" fill-rule="evenodd" sketch:type="MSPage">
        <g id="38---Shower-(Flat)" sketch:type="MSLayerGroup">
            <path d="M25,0 L59,0 L59,59 L25,59 L25,0 Z" id="Fill-2767" fill="#7383BF" sketch:type="MSShapeGroup"></path>
            <path d="M46,9 L34,9 C34,6.791 35.791,5 38,5 L42,5 C44.209,5 46,6.791 46,9" id="Fill-2768" fill="#949493" sketch:type="MSShapeGroup"></path>
            <path d="M32,15 L32,54 M36,15 L36,54 M40,15 L40,54 M44,15 L44,54 M48,15 L48,54" id="Stroke-2769" stroke="#556080" stroke-width="2" stroke-linecap="round" stroke-linejoin="round" stroke-dasharray="1,3" sketch:type="MSShapeGroup"></path>
            <path d="M56,33.5 C56,34.881 54.881,36 53.5,36 C52.119,36 51,34.881 51,33.5 C51,32.119 52.119,31 53.5,31 C54.881,31 56,32.119 56,33.5" id="Fill-2770" fill="#38454F" sketch:type="MSShapeGroup"></path>
            <path d="M16.058,40 L6.942,40 C4.765,40 3,38.235 3,36.058 L3,31 L20,31 L20,36.058 C20,38.235 18.235,40 16.058,40" id="Fill-2773" fill="#E8EDEE" sketch:type="MSShapeGroup"></path>
            <path d="M20,35 L20,36.058 C20,38.235 18.235,40 16.058,40 L6.942,40 C4.765,40 3,38.235 3,36.058 L3,35 L0,35 L0,59 L23,59 L23,35 L20,35" id="Fill-2774" fill="#D6D9DF" sketch:type="MSShapeGroup"></path>
            <path d="M0,51 L23,51 L23,59 L0,59 L0,51 Z" id="Fill-2775" fill="#D6D9DF" sketch:type="MSShapeGroup"></path>
            <path d="M0,43 L23,43 L23,51 L0,51 L0,43 Z" id="Fill-2776" fill="#EBECF0" sketch:type="MSShapeGroup"></path>
            <path d="M10,46 L13,46 L13,48 L10,48 L10,46 Z" id="Fill-2777" fill="#7383BF" sketch:type="MSShapeGroup"></path>
            <path d="M10,54 L13,54 L13,56 L10,56 L10,54 Z" id="Fill-2778" fill="#7383BF" sketch:type="MSShapeGroup"></path>
            <path d="M0,1 L0,26 L6,26 L6,24.762 C6,24.341 6.341,24 6.762,24 L9.238,24 C9.659,24 10,24.341 10,24.762 L10,24 L13,24 L13,24.762 C13,24.341 13.341,24 13.762,24 L16.238,24 C16.659,24 17,24.341 17,24.762 L17,26 L23,26 L23,1 L0,1" id="Fill-2779" fill="#A2C9ED" sketch:type="MSShapeGroup"></path>
            <path d="M3,10 C2.744,10 2.488,9.902 2.293,9.707 C1.902,9.316 1.902,8.684 2.293,8.293 L6.293,4.293 C6.684,3.902 7.316,3.902 7.707,4.293 C8.098,4.683 8.098,5.316 7.707,5.707 L3.707,9.707 C3.512,9.902 3.256,10 3,10" id="Fill-2780" fill="#FFFFFF" sketch:type="MSShapeGroup"></path>
            <path d="M3,15 C2.744,15 2.488,14.902 2.293,14.707 C1.902,14.316 1.902,13.683 2.293,13.293 L4.293,11.293 C4.684,10.902 5.316,10.902 5.707,11.293 C6.098,11.684 6.098,12.316 5.707,12.707 L3.707,14.707 C3.512,14.902 3.256,15 3,15" id="Fill-2781" fill="#FFFFFF" sketch:type="MSShapeGroup"></path>
            <path d="M7,11 C6.74,11 6.48,10.889 6.29,10.71 C6.11,10.519 6,10.26 6,10 C6,9.74 6.11,9.479 6.29,9.29 C6.66,8.92 7.33,8.92 7.71,9.29 C7.89,9.479 8,9.74 8,10 C8,10.26 7.89,10.519 7.71,10.71 C7.52,10.889 7.26,11 7,11" id="Fill-2782" fill="#FFFFFF" sketch:type="MSShapeGroup"></path>
            <path d="M9,9 C8.744,9 8.488,8.902 8.293,8.707 C7.902,8.316 7.902,7.683 8.293,7.293 L11.293,4.293 C11.684,3.902 12.316,3.902 12.707,4.293 C13.098,4.683 13.098,5.316 12.707,5.707 L9.707,8.707 C9.512,8.902 9.256,9 9,9" id="Fill-2783" fill="#FFFFFF" sketch:type="MSShapeGroup"></path>
            <path d="M40,5 L40,0" id="Stroke-2785" stroke="#C7CBC7" stroke-width="2" stroke-linejoin="round" sketch:type="MSShapeGroup"></path>
            <path d="M10,24 L13,24 L13,31 L10,31 L10,24 Z" id="Fill-3783" fill="#C7CBC7" sketch:type="MSShapeGroup"></path>
            <path d="M9.238,27 L6.762,27 C6.341,27 6,26.658 6,26.238 L6,24.762 C6,24.341 6.341,24 6.762,24 L9.238,24 C9.659,24 10,24.341 10,24.762 L10,26.238 C10,26.658 9.659,27 9.238,27" id="Fill-3784" fill="#839494" sketch:type="MSShapeGroup"></path>
            <path d="M16.238,27 L13.762,27 C13.341,27 13,26.658 13,26.238 L13,24.762 C13,24.341 13.341,24 13.762,24 L16.238,24 C16.659,24 17,24.341 17,24.762 L17,26.238 C17,26.658 16.659,27 16.238,27" id="Fill-3785" fill="#839494" sketch:type="MSShapeGroup"></path>
        </g>
    </g>
</svg>