<?xml version="1.0" encoding="UTF-8" standalone="no"?>
<svg width="54px" height="58px" viewBox="0 0 54 58" version="1.1" xmlns="http://www.w3.org/2000/svg" xmlns:xlink="http://www.w3.org/1999/xlink" xmlns:sketch="http://www.bohemiancoding.com/sketch/ns">
    <!-- Generator: Sketch 3.2.2 (9983) - http://www.bohemiancoding.com/sketch -->
    <title>35 - Sink (Flat)</title>
    <desc>Created with Sketch.</desc>
    <defs></defs>
    <g id="Page-1" stroke="none" stroke-width="1" fill="none" fill-rule="evenodd" sketch:type="MSPage">
        <g id="35---Sink-(Flat)" sketch:type="MSLayerGroup">
            <path d="M51.5,38 L2.5,38 C1.119,38 0,36.881 0,35.5 C0,34.119 1.119,33 2.5,33 L51.5,33 C52.881,33 54,34.119 54,35.5 C54,36.881 52.881,38 51.5,38" id="Fill-2807" fill="#EBECF0" sketch:type="MSShapeGroup"></path>
            <path d="M51.5,38 L2.5,38 C2.345,38 2.195,37.981 2.048,37.954 C2.82,46.346 13.694,53 27,53 C40.306,53 51.18,46.346 51.952,37.954 C51.805,37.981 51.655,38 51.5,38" id="Fill-2808" fill="#D6D9DF" sketch:type="MSShapeGroup"></path>
            <path d="M25,53 L29,53 L29,58 L25,58 L25,53 Z" id="Fill-2809" fill="#556080" sketch:type="MSShapeGroup"></path>
            <path d="M1,22 L53,22 L53,0 L1,0 L1,22 Z" id="Fill-2810" fill="#D6D9DF" sketch:type="MSShapeGroup"></path>
            <path d="M5,18 L49,18 L49,0 L5,0 L5,18 Z" id="Fill-2811" fill="#7FABDA" sketch:type="MSShapeGroup"></path>
            <path d="M44,9 L42,11" id="Stroke-2812" stroke="#0F81E0" stroke-width="2" stroke-linecap="round" sketch:type="MSShapeGroup"></path>
            <path d="M23,22 L31,22 L31,33 L23,33 L23,22 Z" id="Fill-3936" fill="#6C797A" sketch:type="MSShapeGroup"></path>
            <path d="M22,18 L32,18 L32,22 L22,22 L22,18 Z" id="Fill-3937" fill="#839494" sketch:type="MSShapeGroup"></path>
            <path d="M19.343,25 L15.808,28.535 L20.272,33 L23,33 L23,28.657 L19.343,25" id="Fill-3938" fill="#C7CBC7" sketch:type="MSShapeGroup"></path>
            <path d="M34.464,25 L31,28.464 L31,33 L33.536,33 L38,28.535 L34.464,25" id="Fill-3939" fill="#C7CBC7" sketch:type="MSShapeGroup"></path>
            <path d="M25,22 L29,22 L29,24 L25,24 L25,22 Z" id="Fill-3940" fill="#839494" sketch:type="MSShapeGroup"></path>
        </g>
    </g>
</svg>