<?xml version="1.0" encoding="UTF-8" standalone="no"?>
<svg width="58px" height="58px" viewBox="0 0 58 58" version="1.1" xmlns="http://www.w3.org/2000/svg" xmlns:xlink="http://www.w3.org/1999/xlink" xmlns:sketch="http://www.bohemiancoding.com/sketch/ns">
    <!-- Generator: Sketch 3.2.2 (9983) - http://www.bohemiancoding.com/sketch -->
    <title>126 - Sock Dressing (Flat)</title>
    <desc>Created with Sketch.</desc>
    <defs></defs>
    <g id="Page-1" stroke="none" stroke-width="1" fill="none" fill-rule="evenodd" sketch:type="MSPage">
        <g id="126---Sock-Dressing-(Flat)" sketch:type="MSLayerGroup">
            <path d="M0,0 L0,58 L3,58 L3,56 L55,56 L55,58 L58,58 L58,0 L0,0" id="Fill-399" fill="#332C25" sketch:type="MSShapeGroup"></path>
            <path d="M3,3 L27,3 L27,13 L3,13 L3,3 Z" id="Fill-400" fill="#6B5B4B" sketch:type="MSShapeGroup"></path>
            <path d="M3,3 L27,3 L27,13 L3,13 L3,3 Z" id="Stroke-401" stroke="#BFA380" stroke-width="2" stroke-linecap="round" sketch:type="MSShapeGroup"></path>
            <path d="M31,13 L55,13 L55,23 L31,23 L31,13 Z" id="Fill-402" fill="#6B5B4B" sketch:type="MSShapeGroup"></path>
            <path d="M31,13 L55,13 L55,23 L31,23 L31,13 Z" id="Stroke-403" stroke="#BFA380" stroke-width="2" stroke-linecap="round" sketch:type="MSShapeGroup"></path>
            <path d="M3,23 L27,23 L27,33 L3,33 L3,23 Z" id="Fill-404" fill="#6B5B4B" sketch:type="MSShapeGroup"></path>
            <path d="M3,23 L27,23 L27,33 L3,33 L3,23 Z" id="Stroke-405" stroke="#BFA380" stroke-width="2" stroke-linecap="round" sketch:type="MSShapeGroup"></path>
            <path d="M31,33 L55,33 L55,43 L31,43 L31,33 Z" id="Fill-406" fill="#6B5B4B" sketch:type="MSShapeGroup"></path>
            <path d="M31,33 L55,33 L55,43 L31,43 L31,33 Z" id="Stroke-407" stroke="#BFA380" stroke-width="2" stroke-linecap="round" sketch:type="MSShapeGroup"></path>
            <path d="M3,43 L27,43 L27,53 L3,53 L3,43 Z" id="Fill-408" fill="#6B5B4B" sketch:type="MSShapeGroup"></path>
            <path d="M3,43 L27,43 L27,53 L3,53 L3,43 Z" id="Stroke-409" stroke="#BFA380" stroke-width="2" stroke-linecap="round" sketch:type="MSShapeGroup"></path>
            <path d="M31,3 L55,3 L55,13 L31,13 L31,3 Z" id="Fill-1893" fill="#6B5B4B" sketch:type="MSShapeGroup"></path>
            <path d="M31,3 L55,3 L55,13 L31,13 L31,3 Z" id="Stroke-1894" stroke="#BFA380" stroke-width="2" stroke-linecap="round" sketch:type="MSShapeGroup"></path>
            <path d="M3,13 L27,13 L27,23 L3,23 L3,13 Z" id="Fill-1898" fill="#6B5B4B" sketch:type="MSShapeGroup"></path>
            <path d="M3,13 L27,13 L27,23 L3,23 L3,13 Z" id="Stroke-1899" stroke="#BFA380" stroke-width="2" stroke-linecap="round" sketch:type="MSShapeGroup"></path>
            <path d="M31,23 L55,23 L55,33 L31,33 L31,23 Z" id="Fill-1900" fill="#6B5B4B" sketch:type="MSShapeGroup"></path>
            <path d="M31,23 L55,23 L55,33 L31,33 L31,23 Z" id="Stroke-1901" stroke="#BFA380" stroke-width="2" stroke-linecap="round" sketch:type="MSShapeGroup"></path>
            <path d="M3,33 L27,33 L27,43 L3,43 L3,33 Z" id="Fill-1902" fill="#6B5B4B" sketch:type="MSShapeGroup"></path>
            <path d="M3,33 L27,33 L27,43 L3,43 L3,33 Z" id="Stroke-1903" stroke="#BFA380" stroke-width="2" stroke-linecap="round" sketch:type="MSShapeGroup"></path>
            <path d="M31,43 L55,43 L55,53 L31,53 L31,43 Z" id="Fill-1904" fill="#6B5B4B" sketch:type="MSShapeGroup"></path>
            <path d="M31,43 L55,43 L55,53 L31,53 L31,43 Z" id="Stroke-1905" stroke="#BFA380" stroke-width="2" stroke-linecap="round" sketch:type="MSShapeGroup"></path>
            <path d="M17,27 L13,27 C12.448,27 12,27.447 12,28 C12,28.553 12.448,29 13,29 L17,29 C17.552,29 18,28.553 18,28 C18,27.447 17.552,27 17,27" id="Fill-1943" fill="#332C25" sketch:type="MSShapeGroup"></path>
            <path d="M17,17 L13,17 C12.448,17 12,17.447 12,18 C12,18.553 12.448,19 13,19 L17,19 C17.552,19 18,18.553 18,18 C18,17.447 17.552,17 17,17" id="Fill-1944" fill="#332C25" sketch:type="MSShapeGroup"></path>
            <path d="M17,7 L13,7 C12.448,7 12,7.447 12,8 C12,8.553 12.448,9 13,9 L17,9 C17.552,9 18,8.553 18,8 C18,7.447 17.552,7 17,7" id="Fill-1945" fill="#332C25" sketch:type="MSShapeGroup"></path>
            <path d="M17,37 L13,37 C12.448,37 12,37.447 12,38 C12,38.553 12.448,39 13,39 L17,39 C17.552,39 18,38.553 18,38 C18,37.447 17.552,37 17,37" id="Fill-1946" fill="#332C25" sketch:type="MSShapeGroup"></path>
            <path d="M17,47 L13,47 C12.448,47 12,47.447 12,48 C12,48.553 12.448,49 13,49 L17,49 C17.552,49 18,48.553 18,48 C18,47.447 17.552,47 17,47" id="Fill-1947" fill="#332C25" sketch:type="MSShapeGroup"></path>
            <path d="M45,27 L41,27 C40.448,27 40,27.447 40,28 C40,28.553 40.448,29 41,29 L45,29 C45.552,29 46,28.553 46,28 C46,27.447 45.552,27 45,27" id="Fill-1948" fill="#332C25" sketch:type="MSShapeGroup"></path>
            <path d="M45,17 L41,17 C40.448,17 40,17.447 40,18 C40,18.553 40.448,19 41,19 L45,19 C45.552,19 46,18.553 46,18 C46,17.447 45.552,17 45,17" id="Fill-1949" fill="#332C25" sketch:type="MSShapeGroup"></path>
            <path d="M41,9 L45,9 C45.552,9 46,8.553 46,8 C46,7.447 45.552,7 45,7 L41,7 C40.448,7 40,7.447 40,8 C40,8.553 40.448,9 41,9" id="Fill-1950" fill="#332C25" sketch:type="MSShapeGroup"></path>
            <path d="M45,37 L41,37 C40.448,37 40,37.447 40,38 C40,38.553 40.448,39 41,39 L45,39 C45.552,39 46,38.553 46,38 C46,37.447 45.552,37 45,37" id="Fill-1951" fill="#332C25" sketch:type="MSShapeGroup"></path>
            <path d="M45,47 L41,47 C40.448,47 40,47.447 40,48 C40,48.553 40.448,49 41,49 L45,49 C45.552,49 46,48.553 46,48 C46,47.447 45.552,47 45,47" id="Fill-1952" fill="#332C25" sketch:type="MSShapeGroup"></path>
        </g>
    </g>
</svg>