<?xml version="1.0" encoding="UTF-8" standalone="no"?>
<svg width="57px" height="59px" viewBox="0 0 57 59" version="1.1" xmlns="http://www.w3.org/2000/svg" xmlns:xlink="http://www.w3.org/1999/xlink" xmlns:sketch="http://www.bohemiancoding.com/sketch/ns">
    <!-- Generator: Sketch 3.2.2 (9983) - http://www.bohemiancoding.com/sketch -->
    <title>112 - Square Window (Flat)</title>
    <desc>Created with Sketch.</desc>
    <defs></defs>
    <g id="Page-1" stroke="none" stroke-width="1" fill="none" fill-rule="evenodd" sketch:type="MSPage">
        <g id="112---Square-Window-(Flat)" sketch:type="MSLayerGroup">
            <path d="M6,5 L51,5 L51,54 L6,54 L6,5 Z" id="Fill-369" fill="#F6D9C3" sketch:type="MSShapeGroup"></path>
            <path d="M30,8 L48,8 L48,28 L30,28 L30,8 Z" id="Fill-370" fill="#6E7881" sketch:type="MSShapeGroup"></path>
            <path d="M9,8 L27,8 L27,28 L9,28 L9,8 Z" id="Fill-371" fill="#6E7881" sketch:type="MSShapeGroup"></path>
            <path d="M9,31 L27,31 L27,51 L9,51 L9,31 Z" id="Fill-372" fill="#6E7881" sketch:type="MSShapeGroup"></path>
            <path d="M30,31 L48,31 L48,51 L30,51 L30,31 Z" id="Fill-373" fill="#6E7881" sketch:type="MSShapeGroup"></path>
            <path d="M29,29 L49,29 L49,7 L29,7 L29,29 Z M31,9 L47,9 L47,27 L31,27 L31,9 Z" id="Fill-374" fill="#FCEDE3" sketch:type="MSShapeGroup"></path>
            <path d="M8,29 L28,29 L28,7 L8,7 L8,29 Z M10,9 L26,9 L26,27 L10,27 L10,9 Z" id="Fill-375" fill="#FCEDE3" sketch:type="MSShapeGroup"></path>
            <path d="M8,52 L28,52 L28,30 L8,30 L8,52 Z M10,32 L26,32 L26,50 L10,50 L10,32 Z" id="Fill-376" fill="#FCEDE3" sketch:type="MSShapeGroup"></path>
            <path d="M29,52 L49,52 L49,30 L29,30 L29,52 Z M31,32 L47,32 L47,50 L31,50 L31,32 Z" id="Fill-377" fill="#FCEDE3" sketch:type="MSShapeGroup"></path>
            <path d="M4,54 L53,54 L53,58 L4,58 L4,54 Z" id="Fill-2408" fill="#D7B29F" sketch:type="MSShapeGroup"></path>
            <path d="M4,1 L53,1 L53,5 L4,5 L4,1 Z" id="Fill-2409" fill="#D7B29F" sketch:type="MSShapeGroup"></path>
            <path d="M56,2 L1,2 C0.447,2 0,1.553 0,1 C0,0.447 0.447,0 1,0 L56,0 C56.553,0 57,0.447 57,1 C57,1.553 56.553,2 56,2" id="Fill-2411" fill="#B45F74" sketch:type="MSShapeGroup"></path>
            <path d="M56,59 L1,59 C0.447,59 0,58.553 0,58 C0,57.447 0.447,57 1,57 L56,57 C56.553,57 57,57.447 57,58 C57,58.553 56.553,59 56,59" id="Fill-2412" fill="#B45F74" sketch:type="MSShapeGroup"></path>
            <path d="M18,27 L12,27 L20,9 L26,9 L18,27" id="Fill-4012" fill="#919FAA" sketch:type="MSShapeGroup"></path>
            <path d="M39,27 L33,27 L41,9 L47,9 L39,27" id="Fill-4013" fill="#919FAA" sketch:type="MSShapeGroup"></path>
            <path d="M18,50 L12,50 L20,32 L26,32 L18,50" id="Fill-4014" fill="#919FAA" sketch:type="MSShapeGroup"></path>
            <path d="M39,50 L33,50 L41,32 L47,32 L39,50" id="Fill-4015" fill="#919FAA" sketch:type="MSShapeGroup"></path>
        </g>
    </g>
</svg>