<?xml version="1.0" encoding="UTF-8" standalone="no"?>
<svg width="58px" height="58px" viewBox="0 0 58 58" version="1.1" xmlns="http://www.w3.org/2000/svg" xmlns:xlink="http://www.w3.org/1999/xlink" xmlns:sketch="http://www.bohemiancoding.com/sketch/ns">
    <!-- Generator: Sketch 3.2.2 (9983) - http://www.bohemiancoding.com/sketch -->
    <title>110 - Staircase (Flat)</title>
    <desc>Created with Sketch.</desc>
    <defs></defs>
    <g id="Page-1" stroke="none" stroke-width="1" fill="none" fill-rule="evenodd" sketch:type="MSPage">
        <g id="110---Staircase-(Flat)" sketch:type="MSLayerGroup">
            <path d="M57,0 L46,0 C45.956,0 45.918,0.019 45.876,0.025 C45.804,0.034 45.734,0.042 45.664,0.068 C45.599,0.091 45.543,0.127 45.484,0.164 C45.445,0.188 45.401,0.198 45.365,0.227 L2.841,35.191 C2.415,35.542 2.353,36.173 2.704,36.599 C2.901,36.84 3.188,36.964 3.477,36.964 C3.7,36.964 3.925,36.889 4.111,36.736 L6,35.183 L6,50 C6,50.553 6.448,51 7,51 C7.552,51 8,50.553 8,50 L8,33.539 L16,26.961 L16,42 C16,42.552 16.448,43 17,43 C17.552,43 18,42.552 18,42 L18,25.317 L26,18.739 L26,34 C26,34.553 26.448,35 27,35 C27.552,35 28,34.553 28,34 L28,17.095 L35,11.339 L35,26 C35,26.553 35.448,27 36,27 C36.552,27 37,26.553 37,26 L37,9.695 L45,3.117 L45,18 C45,18.553 45.448,19 46,19 C46.552,19 47,18.553 47,18 L47,2 L57,2 C57.552,2 58,1.553 58,1 C58,0.447 57.552,0 57,0" id="Fill-48" fill="#6C4126" sketch:type="MSShapeGroup"></path>
            <path d="M57,10 L50.289,10 C49.577,10 49,10.577 49,11.289 L49,16.71 C49,17.423 48.423,18 47.711,18 L40.289,18 C39.577,18 39,18.577 39,19.289 L39,26 L31.289,26 C30.577,26 30,26.577 30,27.289 L30,32.71 C30,33.423 29.423,34 28.711,34 L21.289,34 C20.577,34 20,34.577 20,35.289 L20,40.71 C20,41.423 19.423,42 18.711,42 L11.289,42 C10.577,42 10,42.577 10,43.289 L10,48.71 C10,49.423 9.423,50 8.711,50 L1.289,50 C0.577,50 0,50.577 0,51.289 L0,58 L57,58 L57,10" id="Fill-2192" fill="#BFA380" sketch:type="MSShapeGroup"></path>
        </g>
    </g>
</svg>