<?xml version="1.0" encoding="UTF-8" standalone="no"?>
<svg width="48px" height="58px" viewBox="0 0 48 58" version="1.1" xmlns="http://www.w3.org/2000/svg" xmlns:xlink="http://www.w3.org/1999/xlink" xmlns:sketch="http://www.bohemiancoding.com/sketch/ns">
    <!-- Generator: Sketch 3.2.2 (9983) - http://www.bohemiancoding.com/sketch -->
    <title>12 - Steam Cooker (Flat)</title>
    <desc>Created with Sketch.</desc>
    <defs></defs>
    <g id="Page-1" stroke="none" stroke-width="1" fill="none" fill-rule="evenodd" sketch:type="MSPage">
        <g id="12---Steam-Cooker-(Flat)" sketch:type="MSLayerGroup">
            <path d="M7,44 L41,44 L41,58 L7,58 L7,44 Z" id="Fill-3464" fill="#E8EDEE" sketch:type="MSShapeGroup"></path>
            <path d="M41.072,44 L6.928,44 C5.311,44 4,42.689 4,41.072 L4,32 L44,32 L44,41.072 C44,42.689 42.689,44 41.072,44" id="Fill-3465" fill="#A2C9ED" sketch:type="MSShapeGroup"></path>
            <path d="M4,32 L44,32 L44,35 L4,35 L4,32 Z" id="Fill-3466" fill="#0F6056" sketch:type="MSShapeGroup"></path>
            <path d="M41.072,32 L6.928,32 C5.311,32 4,30.689 4,29.072 L4,19 L44,19 L44,29.072 C44,30.689 42.689,32 41.072,32" id="Fill-3467" fill="#A2C9ED" sketch:type="MSShapeGroup"></path>
            <path d="M4,19 L44,19 L44,22 L4,22 L4,19 Z" id="Fill-3468" fill="#0F6056" sketch:type="MSShapeGroup"></path>
            <path d="M41.072,19 L6.928,19 C5.311,19 4,17.689 4,16.072 L4,4 L44,4 L44,16.072 C44,17.689 42.689,19 41.072,19" id="Fill-3469" fill="#A2C9ED" sketch:type="MSShapeGroup"></path>
            <path d="M4,4 L44,4 L44,7 L4,7 L4,4 Z" id="Fill-3470" fill="#0F6056" sketch:type="MSShapeGroup"></path>
            <path d="M26.696,48.062 C27.492,48.793 28,49.833 28,51 C28,53.209 26.209,55 24,55 C21.791,55 20,53.209 20,51 C20,49.833 20.508,48.793 21.304,48.062 C15.807,48.298 10.842,49.244 7,50.67 L7,58 L41,58 L41,50.67 C37.158,49.244 32.193,48.298 26.696,48.062" id="Fill-3471" fill="#B0B6BB" sketch:type="MSShapeGroup"></path>
            <path d="M43,4 L5,4 L5,3.304 C5,1.479 6.479,0 8.304,0 L39.696,0 C41.521,0 43,1.479 43,3.304 L43,4" id="Fill-3472" fill="#1EC4B0" sketch:type="MSShapeGroup"></path>
            <path d="M47,33 L1,33 C0.447,33 0,32.553 0,32 C0,31.447 0.447,31 1,31 L47,31 C47.553,31 48,31.447 48,32 C48,32.553 47.553,33 47,33" id="Fill-3916" fill="#019587" sketch:type="MSShapeGroup"></path>
            <path d="M47,20 L1,20 C0.447,20 0,19.552 0,19 C0,18.447 0.447,18 1,18 L47,18 C47.553,18 48,18.447 48,19 C48,19.552 47.553,20 47,20" id="Fill-3917" fill="#019587" sketch:type="MSShapeGroup"></path>
            <path d="M47,5 L1,5 C0.447,5 0,4.552 0,4 C0,3.447 0.447,3 1,3 L47,3 C47.553,3 48,3.447 48,4 C48,4.552 47.553,5 47,5" id="Fill-3918" fill="#019587" sketch:type="MSShapeGroup"></path>
            <path d="M28,51 C28,53.209 26.209,55 24,55 C21.791,55 20,53.209 20,51 C20,48.791 21.791,47 24,47 C26.209,47 28,48.791 28,51 L28,51 Z" id="Fill-3919" fill="#38454F" sketch:type="MSShapeGroup"></path>
            <path d="M28,51 C28,53.209 26.209,55 24,55 C21.791,55 20,53.209 20,51 C20,48.791 21.791,47 24,47 C26.209,47 28,48.791 28,51 L28,51 Z" id="Stroke-3920" stroke="#38454F" stroke-width="2" stroke-linecap="round" stroke-linejoin="round" sketch:type="MSShapeGroup"></path>
            <path d="M24,51 L26.818,48.181" id="Stroke-3921" stroke="#7383BF" stroke-width="2" stroke-linecap="round" stroke-linejoin="round" sketch:type="MSShapeGroup"></path>
        </g>
    </g>
</svg>