<?xml version="1.0" encoding="UTF-8" standalone="no"?>
<svg width="42px" height="50px" viewBox="0 0 42 50" version="1.1" xmlns="http://www.w3.org/2000/svg" xmlns:xlink="http://www.w3.org/1999/xlink" xmlns:sketch="http://www.bohemiancoding.com/sketch/ns">
    <!-- Generator: Sketch 3.2.2 (9983) - http://www.bohemiancoding.com/sketch -->
    <title>180 - Stool (Flat)</title>
    <desc>Created with Sketch.</desc>
    <defs></defs>
    <g id="Page-1" stroke="none" stroke-width="1" fill="none" fill-rule="evenodd" sketch:type="MSPage">
        <g id="180---Stool-(Flat)" sketch:type="MSLayerGroup">
            <path d="M21,0 C9.954,0 1,2.91 1,6.5 L41,6.5 C41,2.91 32.046,0 21,0" id="Fill-722" fill="#DD342E" sketch:type="MSShapeGroup"></path>
            <path d="M37.5,12 L36,12 L36.158,18 L5.842,18 L6,12 L4.5,12 C3.522,12 2.637,11.59 2,10.937 L2,48.813 C2,49.469 2.531,50 3.187,50 L3.844,50 C4.487,50 5.013,49.487 5.03,48.844 L5.737,22 L36.263,22 L36.97,48.844 C36.987,49.487 37.513,50 38.156,50 L38.813,50 C39.469,50 40,49.469 40,48.813 L40,10.937 C39.363,11.59 38.478,12 37.5,12" id="Fill-1175" fill="#BE6E41" sketch:type="MSShapeGroup"></path>
            <path d="M29,12 L32,12 L32,18 L29,18 L29,12 Z" id="Fill-1176" fill="#6B4841" sketch:type="MSShapeGroup"></path>
            <path d="M29,22 L29,43.813 C29,44.469 29.531,45 30.187,45 L30.813,45 C31.469,45 32,44.469 32,43.813 L32,22 L29,22" id="Fill-1177" fill="#6B4841" sketch:type="MSShapeGroup"></path>
            <path d="M10,12 L13,12 L13,18 L10,18 L10,12 Z" id="Fill-1178" fill="#6B4841" sketch:type="MSShapeGroup"></path>
            <path d="M10,22 L10,43.813 C10,44.469 10.531,45 11.187,45 L11.813,45 C12.469,45 13,44.469 13,43.813 L13,22 L10,22" id="Fill-1179" fill="#6B4841" sketch:type="MSShapeGroup"></path>
            <path d="M38.5,12 L3.5,12 C1.575,12 0,10.425 0,8.5 C0,6.575 1.575,5 3.5,5 L38.5,5 C40.425,5 42,6.575 42,8.5 C42,10.425 40.425,12 38.5,12" id="Fill-3822" fill="#B12621" sketch:type="MSShapeGroup"></path>
        </g>
    </g>
</svg>