<?xml version="1.0" encoding="UTF-8" standalone="no"?>
<svg width="36px" height="56px" viewBox="0 0 36 56" version="1.1" xmlns="http://www.w3.org/2000/svg" xmlns:xlink="http://www.w3.org/1999/xlink" xmlns:sketch="http://www.bohemiancoding.com/sketch/ns">
    <!-- Generator: Sketch 3.2.2 (9983) - http://www.bohemiancoding.com/sketch -->
    <title>36 - Toilet (Flat)</title>
    <desc>Created with Sketch.</desc>
    <defs></defs>
    <g id="Page-1" stroke="none" stroke-width="1" fill="none" fill-rule="evenodd" sketch:type="MSPage">
        <g id="36---Toilet-(Flat)" sketch:type="MSLayerGroup">
            <path d="M34,30 L2,30 C0.895,30 0,29.104 0,28 C0,26.895 0.895,26 2,26 L34,26 C35.105,26 36,26.895 36,28 C36,29.104 35.105,30 34,30" id="Fill-2801" fill="#EBECF0" sketch:type="MSShapeGroup"></path>
            <path d="M24.039,48 L11.961,48 C6.459,48 2,43.541 2,38.039 L2,30 L34,30 L34,38.039 C34,43.541 29.541,48 24.039,48" id="Fill-2802" fill="#D6D9DF" sketch:type="MSShapeGroup"></path>
            <path d="M13,48 L23,48 L23,56 L13,56 L13,48 Z" id="Fill-2803" fill="#38454F" sketch:type="MSShapeGroup"></path>
            <path d="M2,3 L34,3 L34,8 L2,8 L2,3 Z" id="Fill-2804" fill="#C7CBD1" sketch:type="MSShapeGroup"></path>
            <path d="M4,8 L32,8 L32,26 L4,26 L4,8 Z" id="Fill-2805" fill="#D6D9DF" sketch:type="MSShapeGroup"></path>
            <path d="M15,0 L21,0 L21,3 L15,3 L15,0 Z" id="Fill-2806" fill="#7383BF" sketch:type="MSShapeGroup"></path>
        </g>
    </g>
</svg>