<?xml version="1.0" encoding="UTF-8" standalone="no"?>
<svg width="48px" height="58px" viewBox="0 0 48 58" version="1.1" xmlns="http://www.w3.org/2000/svg" xmlns:xlink="http://www.w3.org/1999/xlink" xmlns:sketch="http://www.bohemiancoding.com/sketch/ns">
    <!-- Generator: Sketch 3.2.2 (9983) - http://www.bohemiancoding.com/sketch -->
    <title>44 - Tulips (Flat)</title>
    <desc>Created with Sketch.</desc>
    <defs></defs>
    <g id="Page-1" stroke="none" stroke-width="1" fill="none" fill-rule="evenodd" sketch:type="MSPage">
        <g id="44---Tulips-(Flat)" sketch:type="MSLayerGroup" transform="translate(1.000000, 1.000000)">
            <path d="M23,25 C23,17.814 28.814,12 36,12 M23,25 C23,17.814 17.185,12 10,12 M23,25 L23,10" id="Stroke-198" stroke="#23A24D" stroke-width="2" stroke-linecap="round" stroke-linejoin="round" sketch:type="MSShapeGroup"></path>
            <path d="M23,10 L23,10 C20.791,10 19,8.209 19,6 L19,0 L27,0 L27,6 C27,8.209 25.209,10 23,10 L23,10 Z" id="Fill-199" fill="#824394" sketch:type="MSShapeGroup"></path>
            <path d="M23,10 L23,10 C20.791,10 19,8.209 19,6 L19,0 L27,0 L27,6 C27,8.209 25.209,10 23,10 L23,10 Z" id="Stroke-200" stroke="#75348B" stroke-width="2" stroke-linecap="round" stroke-linejoin="round" sketch:type="MSShapeGroup"></path>
            <path d="M10,12 L10,12 C10,14.209 8.209,16 6,16 L0,16 L0,8 L6,8 C8.209,8 10,9.791 10,12 L10,12 Z" id="Fill-201" fill="#ED8A19" sketch:type="MSShapeGroup"></path>
            <path d="M10,12 L10,12 C10,14.209 8.209,16 6,16 L0,16 L0,8 L6,8 C8.209,8 10,9.791 10,12 L10,12 Z" id="Stroke-202" stroke="#ECBA16" stroke-width="2" stroke-linecap="round" stroke-linejoin="round" sketch:type="MSShapeGroup"></path>
            <path d="M36,12 L36,12 C36,9.791 37.791,8 40,8 L46,8 L46,16 L40,16 C37.791,16 36,14.209 36,12 L36,12 Z" id="Fill-203" fill="#DD342E" sketch:type="MSShapeGroup"></path>
            <path d="M36,12 L36,12 C36,9.791 37.791,8 40,8 L46,8 L46,16 L40,16 C37.791,16 36,14.209 36,12 L36,12 Z" id="Stroke-204" stroke="#B12621" stroke-width="2" stroke-linecap="round" stroke-linejoin="round" sketch:type="MSShapeGroup"></path>
            <path d="M0,12 L4,12" id="Fill-205" fill="#ED8A19" sketch:type="MSShapeGroup"></path>
            <path d="M0,12 L4,12" id="Stroke-206" stroke="#ECBA16" stroke-width="2" stroke-linecap="round" stroke-linejoin="round" sketch:type="MSShapeGroup"></path>
            <path d="M42,12 L46,12" id="Stroke-207" stroke="#B12621" stroke-width="2" stroke-linecap="round" stroke-linejoin="round" sketch:type="MSShapeGroup"></path>
            <path d="M23,0 L23,4" id="Fill-208" fill="#824394" sketch:type="MSShapeGroup"></path>
            <path d="M23,0 L23,4" id="Stroke-209" stroke="#75348B" stroke-width="2" stroke-linecap="round" stroke-linejoin="round" sketch:type="MSShapeGroup"></path>
            <path d="M14,25 C16.211,25 18,25.131 18,29 L18,31 C18,37.15 15.212,38.918 12.927,40.973 C11.089,42.627 10,44.95 10,47.423 C10,52.16 13.84,56 18.576,56 L26.424,56 C31.16,56 35,52.16 35,47.423 C35,44.95 33.911,42.627 32.073,40.973 C29.788,38.918 27,37.15 27,31 L27,29 C27,25.131 28.789,25 31,25 L14,25 L14,25 Z" id="Fill-2902" fill="#C7CBC7" sketch:type="MSShapeGroup"></path>
            <path d="M14,25 C16.211,25 18,25.131 18,29 L18,31 C18,37.15 15.212,38.918 12.927,40.973 C11.089,42.627 10,44.95 10,47.423 C10,52.16 13.84,56 18.576,56 L26.424,56 C31.16,56 35,52.16 35,47.423 C35,44.95 33.911,42.627 32.073,40.973 C29.788,38.918 27,37.15 27,31 L27,29 C27,25.131 28.789,25 31,25 L14,25 L14,25 Z" id="Stroke-2903" stroke="#E8EDEE" stroke-width="2" stroke-linecap="round" stroke-linejoin="round" sketch:type="MSShapeGroup"></path>
        </g>
    </g>
</svg>