<?xml version="1.0" encoding="UTF-8" standalone="no"?>
<svg width="58px" height="58px" viewBox="0 0 58 58" version="1.1" xmlns="http://www.w3.org/2000/svg" xmlns:xlink="http://www.w3.org/1999/xlink" xmlns:sketch="http://www.bohemiancoding.com/sketch/ns">
    <!-- Generator: Sketch 3.2.2 (9983) - http://www.bohemiancoding.com/sketch -->
    <title>125 - Underwear Dressing (Flat)</title>
    <desc>Created with Sketch.</desc>
    <defs></defs>
    <g id="Page-1" stroke="none" stroke-width="1" fill="none" fill-rule="evenodd" sketch:type="MSPage">
        <g id="125---Underwear-Dressing-(Flat)" sketch:type="MSLayerGroup">
            <path d="M0,0 L0,58 L3,58 L3,56 L55,56 L55,58 L58,58 L58,0 L0,0" id="Fill-1892" fill="#839494" sketch:type="MSShapeGroup"></path>
            <path d="M15,3 L43,3 L43,13 L15,13 L15,3 Z" id="Fill-1895" fill="#F8F8F8" sketch:type="MSShapeGroup"></path>
            <path d="M43,3 L55,3 L55,13 L43,13 L43,3 Z" id="Fill-1896" fill="#C7CBC7" sketch:type="MSShapeGroup"></path>
            <path d="M3,3 L15,3 L15,13 L3,13 L3,3 Z" id="Fill-1897" fill="#C7CBC7" sketch:type="MSShapeGroup"></path>
            <path d="M28,8 L30,8" id="Fill-1906" fill="#839494" sketch:type="MSShapeGroup"></path>
            <path d="M30,9 L28,9 C27.447,9 27,8.553 27,8 C27,7.447 27.447,7 28,7 L30,7 C30.553,7 31,7.447 31,8 C31,8.553 30.553,9 30,9" id="Fill-1907" fill="#839494" sketch:type="MSShapeGroup"></path>
            <path d="M48,8 L50,8" id="Fill-1908" fill="#839494" sketch:type="MSShapeGroup"></path>
            <path d="M50,9 L48,9 C47.447,9 47,8.553 47,8 C47,7.447 47.447,7 48,7 L50,7 C50.553,7 51,7.447 51,8 C51,8.553 50.553,9 50,9" id="Fill-1909" fill="#839494" sketch:type="MSShapeGroup"></path>
            <path d="M15,13 L43,13 L43,23 L15,23 L15,13 Z" id="Fill-1910" fill="#C7CBC7" sketch:type="MSShapeGroup"></path>
            <path d="M43,13 L55,13 L55,23 L43,23 L43,13 Z" id="Fill-1911" fill="#F8F8F8" sketch:type="MSShapeGroup"></path>
            <path d="M3,13 L15,13 L15,23 L3,23 L3,13 Z" id="Fill-1912" fill="#F8F8F8" sketch:type="MSShapeGroup"></path>
            <path d="M28,18 L30,18" id="Fill-1913" fill="#839494" sketch:type="MSShapeGroup"></path>
            <path d="M30,19 L28,19 C27.447,19 27,18.553 27,18 C27,17.447 27.447,17 28,17 L30,17 C30.553,17 31,17.447 31,18 C31,18.553 30.553,19 30,19" id="Fill-1914" fill="#839494" sketch:type="MSShapeGroup"></path>
            <path d="M48,18 L50,18" id="Fill-1915" fill="#839494" sketch:type="MSShapeGroup"></path>
            <path d="M50,19 L48,19 C47.447,19 47,18.553 47,18 C47,17.447 47.447,17 48,17 L50,17 C50.553,17 51,17.447 51,18 C51,18.553 50.553,19 50,19" id="Fill-1916" fill="#839494" sketch:type="MSShapeGroup"></path>
            <path d="M15,23 L43,23 L43,33 L15,33 L15,23 Z" id="Fill-1917" fill="#F8F8F8" sketch:type="MSShapeGroup"></path>
            <path d="M43,23 L55,23 L55,33 L43,33 L43,23 Z" id="Fill-1918" fill="#C7CBC7" sketch:type="MSShapeGroup"></path>
            <path d="M3,23 L15,23 L15,33 L3,33 L3,23 Z" id="Fill-1919" fill="#C7CBC7" sketch:type="MSShapeGroup"></path>
            <path d="M28,28 L30,28" id="Fill-1920" fill="#839494" sketch:type="MSShapeGroup"></path>
            <path d="M30,29 L28,29 C27.447,29 27,28.553 27,28 C27,27.447 27.447,27 28,27 L30,27 C30.553,27 31,27.447 31,28 C31,28.553 30.553,29 30,29" id="Fill-1921" fill="#839494" sketch:type="MSShapeGroup"></path>
            <path d="M48,28 L50,28" id="Fill-1922" fill="#839494" sketch:type="MSShapeGroup"></path>
            <path d="M50,29 L48,29 C47.447,29 47,28.553 47,28 C47,27.447 47.447,27 48,27 L50,27 C50.553,27 51,27.447 51,28 C51,28.553 50.553,29 50,29" id="Fill-1923" fill="#839494" sketch:type="MSShapeGroup"></path>
            <path d="M15,33 L43,33 L43,43 L15,43 L15,33 Z" id="Fill-1924" fill="#C7CBC7" sketch:type="MSShapeGroup"></path>
            <path d="M43,33 L55,33 L55,43 L43,43 L43,33 Z" id="Fill-1925" fill="#F8F8F8" sketch:type="MSShapeGroup"></path>
            <path d="M3,33 L15,33 L15,43 L3,43 L3,33 Z" id="Fill-1926" fill="#F8F8F8" sketch:type="MSShapeGroup"></path>
            <path d="M28,38 L30,38" id="Fill-1927" fill="#839494" sketch:type="MSShapeGroup"></path>
            <path d="M30,39 L28,39 C27.447,39 27,38.553 27,38 C27,37.447 27.447,37 28,37 L30,37 C30.553,37 31,37.447 31,38 C31,38.553 30.553,39 30,39" id="Fill-1928" fill="#839494" sketch:type="MSShapeGroup"></path>
            <path d="M48,38 L50,38" id="Fill-1929" fill="#839494" sketch:type="MSShapeGroup"></path>
            <path d="M50,39 L48,39 C47.447,39 47,38.553 47,38 C47,37.447 47.447,37 48,37 L50,37 C50.553,37 51,37.447 51,38 C51,38.553 50.553,39 50,39" id="Fill-1930" fill="#839494" sketch:type="MSShapeGroup"></path>
            <path d="M15,43 L43,43 L43,53 L15,53 L15,43 Z" id="Fill-1931" fill="#F8F8F8" sketch:type="MSShapeGroup"></path>
            <path d="M43,43 L55,43 L55,53 L43,53 L43,43 Z" id="Fill-1932" fill="#C7CBC7" sketch:type="MSShapeGroup"></path>
            <path d="M3,43 L15,43 L15,53 L3,53 L3,43 Z" id="Fill-1933" fill="#C7CBC7" sketch:type="MSShapeGroup"></path>
            <path d="M28,48 L30,48" id="Fill-1934" fill="#839494" sketch:type="MSShapeGroup"></path>
            <path d="M30,49 L28,49 C27.447,49 27,48.553 27,48 C27,47.447 27.447,47 28,47 L30,47 C30.553,47 31,47.447 31,48 C31,48.553 30.553,49 30,49" id="Fill-1935" fill="#839494" sketch:type="MSShapeGroup"></path>
            <path d="M8,9 L10,9 C10.553,9 11,8.553 11,8 C11,7.447 10.553,7 10,7 L8,7 C7.447,7 7,7.447 7,8 C7,8.553 7.447,9 8,9" id="Fill-1936" fill="#839494" sketch:type="MSShapeGroup"></path>
            <path d="M10,17 L8,17 C7.447,17 7,17.447 7,18 C7,18.553 7.447,19 8,19 L10,19 C10.553,19 11,18.553 11,18 C11,17.447 10.553,17 10,17" id="Fill-1937" fill="#839494" sketch:type="MSShapeGroup"></path>
            <path d="M10,27 L8,27 C7.447,27 7,27.447 7,28 C7,28.553 7.447,29 8,29 L10,29 C10.553,29 11,28.553 11,28 C11,27.447 10.553,27 10,27" id="Fill-1938" fill="#839494" sketch:type="MSShapeGroup"></path>
            <path d="M10,37 L8,37 C7.447,37 7,37.447 7,38 C7,38.553 7.447,39 8,39 L10,39 C10.553,39 11,38.553 11,38 C11,37.447 10.553,37 10,37" id="Fill-1939" fill="#839494" sketch:type="MSShapeGroup"></path>
            <path d="M10,47 L8,47 C7.447,47 7,47.447 7,48 C7,48.553 7.447,49 8,49 L10,49 C10.553,49 11,48.553 11,48 C11,47.447 10.553,47 10,47" id="Fill-1940" fill="#839494" sketch:type="MSShapeGroup"></path>
            <path d="M48,48 L50,48" id="Fill-1941" fill="#839494" sketch:type="MSShapeGroup"></path>
            <path d="M50,49 L48,49 C47.447,49 47,48.553 47,48 C47,47.447 47.447,47 48,47 L50,47 C50.553,47 51,47.447 51,48 C51,48.553 50.553,49 50,49" id="Fill-1942" fill="#839494" sketch:type="MSShapeGroup"></path>
            <path d="M15,3 L18,3 L18,53 L15,53 L15,3 Z" id="Fill-4064" fill="#839494" sketch:type="MSShapeGroup"></path>
            <path d="M40,3 L43,3 L43,53 L40,53 L40,3 Z" id="Fill-4065" fill="#839494" sketch:type="MSShapeGroup"></path>
        </g>
    </g>
</svg>