<?xml version="1.0" encoding="UTF-8" standalone="no"?>
<svg width="59px" height="59px" viewBox="0 0 59 59" version="1.1" xmlns="http://www.w3.org/2000/svg" xmlns:xlink="http://www.w3.org/1999/xlink" xmlns:sketch="http://www.bohemiancoding.com/sketch/ns">
    <!-- Generator: Sketch 3.2.2 (9983) - http://www.bohemiancoding.com/sketch -->
    <title>10 - Vacuum Cleaner (Flat)</title>
    <desc>Created with Sketch.</desc>
    <defs></defs>
    <g id="Page-1" stroke="none" stroke-width="1" fill="none" fill-rule="evenodd" sketch:type="MSPage">
        <g id="10---Vacuum-Cleaner-(Flat)" sketch:type="MSLayerGroup" transform="translate(0.000000, -1.000000)">
            <path d="M24,20.872 C23.448,20.872 23,20.425 23,19.872 L23,18 C23,15.794 21.206,14 19,14 C16.794,14 15,15.794 15,18 L15,19.872 C15,20.425 14.552,20.872 14,20.872 C13.448,20.872 13,20.425 13,19.872 L13,18 C13,14.691 15.691,12 19,12 C22.309,12 25,14.691 25,18 L25,19.872 C25,20.425 24.552,20.872 24,20.872" id="Fill-97" fill="#8E283E" sketch:type="MSShapeGroup"></path>
            <path d="M55.012,2.117 C50.638,-0.754 46,2.342 46,6.5 L46,52 L50,52 L50,6.5 C50,5.673 50.673,5 51.5,5 C52.327,5 53,5.673 53,6.5 L53,10 L57,10 L57,5.893 C57,4.385 56.273,2.944 55.012,2.117" id="Fill-321" fill="#C7CBC7" sketch:type="MSShapeGroup"></path>
            <path d="M4,49 L8,49 L8,59 L4,59 L4,49 Z" id="Fill-3485" fill="#38454F" sketch:type="MSShapeGroup"></path>
            <path d="M30,49 L34,49 L34,59 L30,59 L30,49 Z" id="Fill-3486" fill="#38454F" sketch:type="MSShapeGroup"></path>
            <path d="M19,19 C10.716,19 4,25.716 4,34 L4,49 L8,49 L8,57 L30,57 L30,49 L34,49 L34,34 C34,25.716 27.284,19 19,19" id="Fill-3487" fill="#CB465F" sketch:type="MSShapeGroup"></path>
            <path d="M26,55 L12,55 C11.448,55 11,54.553 11,54 C11,53.447 11.448,53 12,53 L26,53 C26.552,53 27,53.447 27,54 C27,54.553 26.552,55 26,55" id="Fill-3488" fill="#8E283E" sketch:type="MSShapeGroup"></path>
            <path d="M26,51 L12,51 C11.448,51 11,50.553 11,50 C11,49.447 11.448,49 12,49 L26,49 C26.552,49 27,49.447 27,50 C27,50.553 26.552,51 26,51" id="Fill-3489" fill="#8E283E" sketch:type="MSShapeGroup"></path>
            <path d="M28,34 C28,39.523 23.971,44 19,44 C14.029,44 10,39.523 10,34 C10,28.477 14.029,24 19,24 C23.971,24 28,28.477 28,34" id="Fill-3490" fill="#8E283E" sketch:type="MSShapeGroup"></path>
            <path d="M22,31 C22,32.657 20.657,34 19,34 C17.343,34 16,32.657 16,31 C16,29.343 17.343,28 19,28 C20.657,28 22,29.343 22,31" id="Fill-3491" fill="#ED8A19" sketch:type="MSShapeGroup"></path>
            <path d="M40,56 L56,56 L56,59 L40,59 L40,56 Z" id="Fill-3492" fill="#556080" sketch:type="MSShapeGroup"></path>
            <path d="M44,52 L52,52 L52,56 L44,56 L44,52 Z" id="Fill-3493" fill="#38454F" sketch:type="MSShapeGroup"></path>
            <path d="M46,31 L50,31 L50,35 L46,35 L46,31 Z" id="Fill-3494" fill="#38454F" sketch:type="MSShapeGroup"></path>
            <path d="M4,34 C4,32.248 4.316,30.573 4.868,29.01 C1.978,30.508 0,33.52 0,37 C0,40.12 1.589,42.868 4,44.482 L4,34" id="Fill-3495" fill="#556080" sketch:type="MSShapeGroup"></path>
            <path d="M38,59 L58,59" id="Stroke-3496" stroke="#38454F" stroke-width="2" stroke-linecap="round" sketch:type="MSShapeGroup"></path>
            <path d="M53,12.312 C53,15.304 51.925,18.181 50,20.444 L50,26.172 L53.321,22.851 C55.677,20.495 57,17.3 57,13.969 L57,10 L53,10 L53,12.312" id="Fill-3497" fill="#556080" sketch:type="MSShapeGroup"></path>
            <path d="M34,36.514 L34,42.172 L46,30.172 L46,24.515 L34,36.514" id="Fill-3498" fill="#556080" sketch:type="MSShapeGroup"></path>
        </g>
    </g>
</svg>