<?xml version="1.0" encoding="UTF-8" standalone="no"?>
<svg width="58px" height="59px" viewBox="0 0 58 59" version="1.1" xmlns="http://www.w3.org/2000/svg" xmlns:xlink="http://www.w3.org/1999/xlink" xmlns:sketch="http://www.bohemiancoding.com/sketch/ns">
    <!-- Generator: Sketch 3.2.2 (9983) - http://www.bohemiancoding.com/sketch -->
    <title>141 - Vanity (Flat)</title>
    <desc>Created with Sketch.</desc>
    <defs></defs>
    <g id="Page-1" stroke="none" stroke-width="1" fill="none" fill-rule="evenodd" sketch:type="MSPage">
        <g id="141---Vanity-(Flat)" sketch:type="MSLayerGroup">
            <path d="M8.352,38 C6.892,40.093 5.34,43.481 6,48 C6.792,53.417 4.861,54.991 4.89,55 L2,59 L3,59 C8,59 10.115,51.289 10,48 C9.75,40.875 13.262,38.458 13.292,38.427 L13.726,38 L8.352,38" id="Fill-25" fill="#3D241A" sketch:type="MSShapeGroup"></path>
            <path d="M49.648,38 C51.108,40.093 52.66,43.481 52,48 C51.208,53.417 53.139,54.991 53.11,55 L56,59 L55,59 C50,59 47.885,51.289 48,48 C48.25,40.875 44.738,38.458 44.708,38.427 L44.274,38 L49.648,38" id="Fill-26" fill="#3D241A" sketch:type="MSShapeGroup"></path>
            <path d="M18,36 L40,36 L40,42 L18,42 L18,36 Z" id="Fill-1642" fill="#553323" sketch:type="MSShapeGroup"></path>
            <path d="M18,36 L40,36 L40,42 L18,42 L18,36 Z" id="Stroke-1643" stroke="#774836" stroke-width="2" stroke-linejoin="round" sketch:type="MSShapeGroup"></path>
            <path d="M4,32 L4,38 L18,38 L18,36 L40,36 L40,38 L54,38 L54,32 L4,32 L4,32 Z" id="Fill-1644" fill="#553323" sketch:type="MSShapeGroup"></path>
            <path d="M4,32 L4,38 L18,38 L18,36 L40,36 L40,38 L54,38 L54,32 L4,32 L4,32 Z" id="Stroke-1645" stroke="#774836" stroke-width="2" stroke-linejoin="round" sketch:type="MSShapeGroup"></path>
            <path d="M40,28 L18,28 L18,12 C18,5.925 22.925,1 29,1 C35.075,1 40,5.925 40,12 L40,28" id="Fill-1646" fill="#7FABDA" sketch:type="MSShapeGroup"></path>
            <path d="M29,0 C22.383,0 17,5.383 17,12 L17,28 C17,28.553 17.447,29 18,29 L19,29 L19,12 C19,6.486 23.486,2 29,2 C34.514,2 39,6.486 39,12 L39,29 L40,29 C40.553,29 41,28.553 41,28 L41,12 C41,5.383 35.617,0 29,0" id="Fill-1647" fill="#774836" sketch:type="MSShapeGroup"></path>
            <path d="M6,17 L18,17 L18,23 L6,23 L6,17 Z" id="Fill-1648" fill="#553323" sketch:type="MSShapeGroup"></path>
            <path d="M6,17 L18,17 L18,23 L6,23 L6,17 Z" id="Stroke-1649" stroke="#774836" stroke-width="2" stroke-linejoin="round" sketch:type="MSShapeGroup"></path>
            <path d="M6,23 L18,23 L18,29 L6,29 L6,23 Z" id="Fill-1650" fill="#553323" sketch:type="MSShapeGroup"></path>
            <path d="M6,23 L18,23 L18,29 L6,29 L6,23 Z" id="Stroke-1651" stroke="#774836" stroke-width="2" stroke-linejoin="round" sketch:type="MSShapeGroup"></path>
            <path d="M40,17 L52,17 L52,23 L40,23 L40,17 Z" id="Fill-1652" fill="#553323" sketch:type="MSShapeGroup"></path>
            <path d="M40,17 L52,17 L52,23 L40,23 L40,17 Z" id="Stroke-1653" stroke="#774836" stroke-width="2" stroke-linejoin="round" sketch:type="MSShapeGroup"></path>
            <path d="M40,23 L52,23 L52,29 L40,29 L40,23 Z" id="Fill-1654" fill="#553323" sketch:type="MSShapeGroup"></path>
            <path d="M40,23 L52,23 L52,29 L40,29 L40,23 Z" id="Stroke-1655" stroke="#774836" stroke-width="2" stroke-linejoin="round" sketch:type="MSShapeGroup"></path>
            <path d="M32,38 L26,38 C25.447,38 25,38.447 25,39 C25,39.552 25.447,40 26,40 L32,40 C32.553,40 33,39.552 33,39 C33,38.447 32.553,38 32,38" id="Fill-1656" fill="#AB8024" sketch:type="MSShapeGroup"></path>
            <path d="M13,19 L11,19 C10.447,19 10,19.447 10,20 C10,20.553 10.447,21 11,21 L13,21 C13.553,21 14,20.553 14,20 C14,19.447 13.553,19 13,19" id="Fill-1657" fill="#AB8024" sketch:type="MSShapeGroup"></path>
            <path d="M13,25 L11,25 C10.447,25 10,25.447 10,26 C10,26.553 10.447,27 11,27 L13,27 C13.553,27 14,26.553 14,26 C14,25.447 13.553,25 13,25" id="Fill-1658" fill="#AB8024" sketch:type="MSShapeGroup"></path>
            <path d="M45,21 L47,21 C47.553,21 48,20.553 48,20 C48,19.447 47.553,19 47,19 L45,19 C44.447,19 44,19.447 44,20 C44,20.553 44.447,21 45,21" id="Fill-1659" fill="#AB8024" sketch:type="MSShapeGroup"></path>
            <path d="M47,25 L45,25 C44.447,25 44,25.447 44,26 C44,26.553 44.447,27 45,27 L47,27 C47.553,27 48,26.553 48,26 C48,25.447 47.553,25 47,25" id="Fill-1660" fill="#AB8024" sketch:type="MSShapeGroup"></path>
            <path d="M32.86,2.776 L19,16.636 L19,28 L20.364,28 L38.71,9.653 C37.958,6.544 35.759,3.994 32.86,2.776" id="Fill-4051" fill="#A2C9ED" sketch:type="MSShapeGroup"></path>
            <path d="M56,32 L2,32 C0.9,32 0,31.1 0,30 C0,28.9 0.9,28 2,28 L56,28 C57.1,28 58,28.9 58,30 C58,31.1 57.1,32 56,32" id="Fill-4052" fill="#3D241A" sketch:type="MSShapeGroup"></path>
        </g>
    </g>
</svg>