<?xml version="1.0" encoding="UTF-8" standalone="no"?>
<svg width="60px" height="57px" viewBox="0 0 60 57" version="1.1" xmlns="http://www.w3.org/2000/svg" xmlns:xlink="http://www.w3.org/1999/xlink" xmlns:sketch="http://www.bohemiancoding.com/sketch/ns">
    <!-- Generator: Sketch 3.2.2 (9983) - http://www.bohemiancoding.com/sketch -->
    <title>200 - Victorian Armchair (Flat)</title>
    <desc>Created with Sketch.</desc>
    <defs></defs>
    <g id="Page-1" stroke="none" stroke-width="1" fill="none" fill-rule="evenodd" sketch:type="MSPage">
        <g id="200---Victorian-Armchair-(Flat)" sketch:type="MSLayerGroup" transform="translate(1.000000, 0.000000)">
            <path d="M44.993,6.032 C44.975,6.569 44.541,7 44,7 C42.346,7 41,8.345 41,10 C41,10.552 40.552,11 40,11 C39.448,11 39,10.552 39,10 C39,7.598 40.703,5.59 42.964,5.111 C40.067,2.777 35.121,0 29,0 C22.879,0 17.933,2.777 15.036,5.111 C17.297,5.59 19,7.598 19,10 C19,10.552 18.552,11 18,11 C17.448,11 17,10.552 17,10 C17,8.345 15.654,7 14,7 C13.459,7 13.025,6.569 13.006,6.032 C2.837,6.368 0,11.737 0,15 C0,12.791 1.791,11 4,11 C6.761,11 9,13.239 9,16 L9,31.5 C9,29.575 10.575,28 12.5,28 L45.5,28 C47.425,28 49,29.575 49,31.5 L49,16 C49,13.239 51.239,11 54,11 C56.209,11 58,12.791 58,15 C58,11.737 55.163,6.368 44.993,6.032" id="Fill-236" fill="#25AE88" sketch:type="MSShapeGroup"></path>
            <path d="M49,32 L49,31.5 C49,31.671 48.973,31.835 48.949,32 L49,32" id="Fill-237" fill="#71C3AA" sketch:type="MSShapeGroup"></path>
            <path d="M9.051,32 C9.027,31.835 9,31.671 9,31.5 L9,32 L9.051,32" id="Fill-238" fill="#71C3AA" sketch:type="MSShapeGroup"></path>
            <path d="M14,7 C15.654,7 17,8.345 17,10 C17,10.552 17.448,11 18,11 C18.552,11 19,10.552 19,10 C19,7.598 17.297,5.59 15.036,5.111 C14.656,5.417 14.307,5.716 14,6 C13.653,6 13.337,6.021 13.006,6.032 C13.025,6.569 13.459,7 14,7" id="Fill-239" fill="#199172" sketch:type="MSShapeGroup"></path>
            <path d="M39,10 C39,10.552 39.448,11 40,11 C40.552,11 41,10.552 41,10 C41,8.345 42.346,7 44,7 C44.541,7 44.975,6.569 44.993,6.032 C44.662,6.021 44.347,6 44,6 C43.693,5.716 43.344,5.417 42.964,5.111 C40.703,5.59 39,7.598 39,10" id="Fill-240" fill="#199172" sketch:type="MSShapeGroup"></path>
            <path d="M9,16 C9,13.239 6.761,11 4,11 C1.791,11 0,12.791 0,15 C0,16.767 1.433,18.2 3.2,18.2 C4.614,18.2 5.76,17.054 5.76,15.64 M49,16 C49,13.239 51.239,11 54,11 C56.209,11 58,12.791 58,15 C58,16.767 56.567,18.2 54.8,18.2 C53.386,18.2 52.24,17.054 52.24,15.64" id="Stroke-711" stroke="#25AE88" stroke-width="2" stroke-linecap="round" sketch:type="MSShapeGroup"></path>
            <path d="M30,8 C30,8.552 29.552,9 29,9 C28.448,9 28,8.552 28,8 C28,7.448 28.448,7 29,7 C29.552,7 30,7.448 30,8" id="Fill-712" fill="#71C3AA" sketch:type="MSShapeGroup"></path>
            <path d="M27,11 C27,11.552 26.552,12 26,12 C25.448,12 25,11.552 25,11 C25,10.448 25.448,10 26,10 C26.552,10 27,10.448 27,11" id="Fill-713" fill="#71C3AA" sketch:type="MSShapeGroup"></path>
            <path d="M33,11 C33,11.552 32.552,12 32,12 C31.448,12 31,11.552 31,11 C31,10.448 31.448,10 32,10 C32.552,10 33,10.448 33,11" id="Fill-714" fill="#71C3AA" sketch:type="MSShapeGroup"></path>
            <path d="M27,17 C27,17.552 26.552,18 26,18 C25.448,18 25,17.552 25,17 C25,16.448 25.448,16 26,16 C26.552,16 27,16.448 27,17" id="Fill-715" fill="#71C3AA" sketch:type="MSShapeGroup"></path>
            <path d="M33,17 C33,17.552 32.552,18 32,18 C31.448,18 31,17.552 31,17 C31,16.448 31.448,16 32,16 C32.552,16 33,16.448 33,17" id="Fill-716" fill="#71C3AA" sketch:type="MSShapeGroup"></path>
            <path d="M30,14 C30,14.552 29.552,15 29,15 C28.448,15 28,14.552 28,14 C28,13.448 28.448,13 29,13 C29.552,13 30,13.448 30,14" id="Fill-717" fill="#71C3AA" sketch:type="MSShapeGroup"></path>
            <path d="M12.5,35 C11.522,35 10.637,34.591 10,33.938 L10.365,56.365 C10.365,56.716 10.65,57 11,57 L11.857,57 C12.154,57 12.411,56.793 12.476,56.503 L13.338,35 L12.5,35" id="Fill-718" fill="#A8745D" sketch:type="MSShapeGroup"></path>
            <path d="M45.5,35 L44.662,35 L46.255,56.503 C46.32,56.793 46.577,57 46.874,57 L47.731,57 C48.081,57 48.365,56.716 48.365,56.365 L48,33.938 C47.363,34.591 46.478,35 45.5,35" id="Fill-719" fill="#A8745D" sketch:type="MSShapeGroup"></path>
            <path d="M37.239,35 L38.255,51.565 C38.32,51.855 38.577,52.062 38.875,52.062 L39.731,52.062 C40.081,52.062 40.365,51.778 40.365,51.427 L40,35 L37.239,35" id="Fill-720" fill="#9E6C53" sketch:type="MSShapeGroup"></path>
            <path d="M18,35 L18.365,51.365 C18.365,51.716 18.65,52 19,52 L19.857,52 C20.154,52 20.411,51.793 20.476,51.503 L20.754,35 L18,35" id="Fill-721" fill="#9E6C53" sketch:type="MSShapeGroup"></path>
            <path d="M49,16 L49,30 M9,16 L9,30" id="Stroke-3746" stroke="#25AE88" stroke-width="2" stroke-linecap="round" sketch:type="MSShapeGroup"></path>
            <path d="M13,29 C12.448,29 12,28.552 12,28 L12,17 C12,16.448 12.448,16 13,16 C13.552,16 14,16.448 14,17 L14,28 C14,28.552 13.552,29 13,29" id="Fill-3747" fill="#199172" sketch:type="MSShapeGroup"></path>
            <path d="M45,28 C44.448,28 44,27.552 44,27 L44,17 C44,16.448 44.448,16 45,16 C45.552,16 46,16.448 46,17 L46,27 C46,27.552 45.552,28 45,28" id="Fill-3748" fill="#199172" sketch:type="MSShapeGroup"></path>
            <path d="M17,26 C16.448,26 16,25.552 16,25 L16,18.348 C16,17.796 16.448,17.348 17,17.348 C17.552,17.348 18,17.796 18,18.348 L18,25 C18,25.552 17.552,26 17,26" id="Fill-3749" fill="#199172" sketch:type="MSShapeGroup"></path>
            <path d="M41,26 C40.448,26 40,25.552 40,25 L40,18.612 C40,18.06 40.448,17.612 41,17.612 C41.552,17.612 42,18.06 42,18.612 L42,25 C42,25.552 41.552,26 41,26" id="Fill-3750" fill="#199172" sketch:type="MSShapeGroup"></path>
            <path d="M9,29.5 C9,25.91 17.954,23 29,23 C40.046,23 49,25.91 49,29.5" id="Fill-3751" fill="#13A085" sketch:type="MSShapeGroup"></path>
            <path d="M47,35 L11,35 C9.075,35 7.5,33.425 7.5,31.5 C7.5,29.575 9.075,28 11,28 L47,28 C48.925,28 50.5,29.575 50.5,31.5 C50.5,33.425 48.925,35 47,35" id="Fill-3752" fill="#25B99A" sketch:type="MSShapeGroup"></path>
        </g>
    </g>
</svg>