<?xml version="1.0" encoding="UTF-8" standalone="no"?>
<svg width="56px" height="54px" viewBox="0 0 56 54" version="1.1" xmlns="http://www.w3.org/2000/svg" xmlns:xlink="http://www.w3.org/1999/xlink" xmlns:sketch="http://www.bohemiancoding.com/sketch/ns">
    <!-- Generator: Sketch 3.2.2 (9983) - http://www.bohemiancoding.com/sketch -->
    <title>191 - Vintage Armchair (Flat)</title>
    <desc>Created with Sketch.</desc>
    <defs></defs>
    <g id="Page-1" stroke="none" stroke-width="1" fill="none" fill-rule="evenodd" sketch:type="MSPage">
        <g id="191---Vintage-Armchair-(Flat)" sketch:type="MSLayerGroup">
            <path d="M44,23 L44,23 C42.895,23 42,22.104 42,21 L42,20 C42,18.895 42.895,18 44,18 L44,2.301 C44,1.03 42.97,0 41.699,0 L14.301,0 C13.03,0 12,1.03 12,2.301 L12,18 C13.104,18 14,18.895 14,20 L14,21 C14,22.104 13.104,23 12,23 L12,28 L44,28 L44,23" id="Fill-110" fill="#F8E7A1" sketch:type="MSShapeGroup"></path>
            <path d="M22,12 C21.448,12 21,12.448 21,13 C21,13.552 21.448,14 22,14 C22.552,14 23,13.552 23,13 C23,12.448 22.552,12 22,12" id="Fill-111" fill="#C6B97F" sketch:type="MSShapeGroup"></path>
            <path d="M28,12 C27.448,12 27,12.448 27,13 C27,13.552 27.448,14 28,14 C28.552,14 29,13.552 29,13 C29,12.448 28.552,12 28,12" id="Fill-112" fill="#C6B97F" sketch:type="MSShapeGroup"></path>
            <path d="M22,18 C21.448,18 21,18.448 21,19 C21,19.552 21.448,20 22,20 C22.552,20 23,19.552 23,19 C23,18.448 22.552,18 22,18" id="Fill-113" fill="#C6B97F" sketch:type="MSShapeGroup"></path>
            <path d="M28,18 C27.448,18 27,18.448 27,19 C27,19.552 27.448,20 28,20 C28.552,20 29,19.552 29,19 C29,18.448 28.552,18 28,18" id="Fill-114" fill="#C6B97F" sketch:type="MSShapeGroup"></path>
            <path d="M25,15 C24.448,15 24,15.448 24,16 C24,16.552 24.448,17 25,17 C25.552,17 26,16.552 26,16 C26,15.448 25.552,15 25,15" id="Fill-115" fill="#C6B97F" sketch:type="MSShapeGroup"></path>
            <path d="M31,15 C30.448,15 30,15.448 30,16 C30,16.552 30.448,17 31,17 C31.552,17 32,16.552 32,16 C32,15.448 31.552,15 31,15" id="Fill-116" fill="#C6B97F" sketch:type="MSShapeGroup"></path>
            <path d="M25,9.152 C24.448,9.152 24,9.599 24,10.152 C24,10.704 24.448,11.152 25,11.152 C25.552,11.152 26,10.704 26,10.152 C26,9.599 25.552,9.152 25,9.152" id="Fill-117" fill="#C6B97F" sketch:type="MSShapeGroup"></path>
            <path d="M31,9.152 C30.448,9.152 30,9.599 30,10.152 C30,10.704 30.448,11.152 31,11.152 C31.552,11.152 32,10.704 32,10.152 C32,9.599 31.552,9.152 31,9.152" id="Fill-118" fill="#C6B97F" sketch:type="MSShapeGroup"></path>
            <path d="M34,14 C34.552,14 35,13.552 35,13 C35,12.448 34.552,12 34,12 C33.448,12 33,12.448 33,13 C33,13.552 33.448,14 34,14" id="Fill-119" fill="#C6B97F" sketch:type="MSShapeGroup"></path>
            <path d="M34,18 C33.448,18 33,18.448 33,19 C33,19.552 33.448,20 34,20 C34.552,20 35,19.552 35,19 C35,18.448 34.552,18 34,18" id="Fill-120" fill="#C6B97F" sketch:type="MSShapeGroup"></path>
            <path d="M12,33 L44,33 L44,41 L12,41 L12,33 Z" id="Fill-933" fill="#A88F71" sketch:type="MSShapeGroup"></path>
            <path d="M12,26 L44,26 L44,33 L12,33 L12,26 Z" id="Fill-934" fill="#DBCC8F" sketch:type="MSShapeGroup"></path>
            <path d="M4,45 L4,23 L2,23 C0.895,23 0,22.104 0,21 L0,20 C0,18.895 0.895,18 2,18 L12,18 C13.104,18 14,18.895 14,20 L14,21 C14,22.104 13.104,23 12,23 L9,23 L9,34 L12,34 L12,39 L9,39 L9,45 L4,45" id="Fill-935" fill="#BFA380" sketch:type="MSShapeGroup"></path>
            <path d="M47,45 L47,39 L44,39 L44,34 L47,34 L47,23 L44,23 C42.895,23 42,22.104 42,21 L42,20 C42,18.895 42.895,18 44,18 L54,18 C55.104,18 56,18.895 56,20 L56,21 C56,22.104 55.104,23 54,23 L52,23 L52,45 L47,45" id="Fill-936" fill="#BFA380" sketch:type="MSShapeGroup"></path>
            <path d="M5,45 L8,45 L8,54 L5,54 L5,45 Z" id="Fill-937" fill="#A88F71" sketch:type="MSShapeGroup"></path>
            <path d="M48,45 L51,45 L51,54 L48,54 L48,45 Z" id="Fill-938" fill="#A88F71" sketch:type="MSShapeGroup"></path>
        </g>
    </g>
</svg>