<?xml version="1.0" encoding="UTF-8" standalone="no"?>
<svg width="58px" height="48px" viewBox="0 0 58 48" version="1.1" xmlns="http://www.w3.org/2000/svg" xmlns:xlink="http://www.w3.org/1999/xlink" xmlns:sketch="http://www.bohemiancoding.com/sketch/ns">
    <!-- Generator: Sketch 3.2.2 (9983) - http://www.bohemiancoding.com/sketch -->
    <title>107 - Wall (Flat)</title>
    <desc>Created with Sketch.</desc>
    <defs></defs>
    <g id="Page-1" stroke="none" stroke-width="1" fill="none" fill-rule="evenodd" sketch:type="MSPage">
        <g id="107---Wall-(Flat)" sketch:type="MSLayerGroup" transform="translate(1.000000, 0.000000)">
            <path d="M0,0 L57,0 L57,18.94 L0,18.94 L0,0 Z" id="Fill-2202" fill="#D1C17C" sketch:type="MSShapeGroup"></path>
            <path d="M0.996,33 L7,33 L7,40 L0.996,40 L0.996,33 Z" id="Fill-2203" fill="#B12621" sketch:type="MSShapeGroup"></path>
            <path d="M0.996,33 L7,33 L7,40 L0.996,40 L0.996,33 Z" id="Stroke-2204" stroke="#6C2027" stroke-width="2" stroke-linecap="round" sketch:type="MSShapeGroup"></path>
            <path d="M51,33 L56,33 L56,40 L51,40 L51,33 Z" id="Fill-2205" fill="#B12621" sketch:type="MSShapeGroup"></path>
            <path d="M51,33 L56,33 L56,40 L51,40 L51,33 Z" id="Stroke-2206" stroke="#6C2027" stroke-width="2" stroke-linecap="round" sketch:type="MSShapeGroup"></path>
            <path d="M7,33 L18,33 L18,40 L7,40 L7,33 Z" id="Fill-2207" fill="#B12621" sketch:type="MSShapeGroup"></path>
            <path d="M7,33 L18,33 L18,40 L7,40 L7,33 Z" id="Stroke-2208" stroke="#6C2027" stroke-width="2" stroke-linecap="round" sketch:type="MSShapeGroup"></path>
            <path d="M18,33 L29,33 L29,40 L18,40 L18,33 Z" id="Fill-2209" fill="#B12621" sketch:type="MSShapeGroup"></path>
            <path d="M18,33 L29,33 L29,40 L18,40 L18,33 Z" id="Stroke-2210" stroke="#6C2027" stroke-width="2" stroke-linecap="round" sketch:type="MSShapeGroup"></path>
            <path d="M29,33 L40,33 L40,40 L29,40 L29,33 Z" id="Fill-2211" fill="#B12621" sketch:type="MSShapeGroup"></path>
            <path d="M29,33 L40,33 L40,40 L29,40 L29,33 Z" id="Stroke-2212" stroke="#6C2027" stroke-width="2" stroke-linecap="round" sketch:type="MSShapeGroup"></path>
            <path d="M40,33 L51,33 L51,40 L40,40 L40,33 Z" id="Fill-2213" fill="#B12621" sketch:type="MSShapeGroup"></path>
            <path d="M40,33 L51,33 L51,40 L40,40 L40,33 Z" id="Stroke-2214" stroke="#6C2027" stroke-width="2" stroke-linecap="round" sketch:type="MSShapeGroup"></path>
            <path d="M1,40 L12,40 L12,47 L1,47 L1,40 Z" id="Fill-2215" fill="#B12621" sketch:type="MSShapeGroup"></path>
            <path d="M1,40 L12,40 L12,47 L1,47 L1,40 Z" id="Stroke-2216" stroke="#6C2027" stroke-width="2" stroke-linecap="round" sketch:type="MSShapeGroup"></path>
            <path d="M12,40 L23,40 L23,47 L12,47 L12,40 Z" id="Fill-2217" fill="#B12621" sketch:type="MSShapeGroup"></path>
            <path d="M12,40 L23,40 L23,47 L12,47 L12,40 Z" id="Stroke-2218" stroke="#6C2027" stroke-width="2" stroke-linecap="round" sketch:type="MSShapeGroup"></path>
            <path d="M23,40 L34,40 L34,47 L23,47 L23,40 Z" id="Fill-2219" fill="#B12621" sketch:type="MSShapeGroup"></path>
            <path d="M23,40 L34,40 L34,47 L23,47 L23,40 Z" id="Stroke-2220" stroke="#6C2027" stroke-width="2" stroke-linecap="round" sketch:type="MSShapeGroup"></path>
            <path d="M34,40 L45,40 L45,47 L34,47 L34,40 Z" id="Fill-2221" fill="#B12621" sketch:type="MSShapeGroup"></path>
            <path d="M34,40 L45,40 L45,47 L34,47 L34,40 Z" id="Stroke-2222" stroke="#6C2027" stroke-width="2" stroke-linecap="round" sketch:type="MSShapeGroup"></path>
            <path d="M45,40 L56,40 L56,47 L45,47 L45,40 Z" id="Fill-2223" fill="#B12621" sketch:type="MSShapeGroup"></path>
            <path d="M45,40 L56,40 L56,47 L45,47 L45,40 Z" id="Stroke-2224" stroke="#6C2027" stroke-width="2" stroke-linecap="round" sketch:type="MSShapeGroup"></path>
            <path d="M0.996,19 L7,19 L7,26 L0.996,26 L0.996,19 Z" id="Fill-2225" fill="#B12621" sketch:type="MSShapeGroup"></path>
            <path d="M0.996,19 L7,19 L7,26 L0.996,26 L0.996,19 Z" id="Stroke-2226" stroke="#6C2027" stroke-width="2" stroke-linecap="round" sketch:type="MSShapeGroup"></path>
            <path d="M51,19 L56,19 L56,26 L51,26 L51,19 Z" id="Fill-2227" fill="#B12621" sketch:type="MSShapeGroup"></path>
            <path d="M51,19 L56,19 L56,26 L51,26 L51,19 Z" id="Stroke-2228" stroke="#6C2027" stroke-width="2" stroke-linecap="round" sketch:type="MSShapeGroup"></path>
            <path d="M7,19 L18,19 L18,26 L7,26 L7,19 Z" id="Fill-2229" fill="#B12621" sketch:type="MSShapeGroup"></path>
            <path d="M7,19 L18,19 L18,26 L7,26 L7,19 Z" id="Stroke-2230" stroke="#6C2027" stroke-width="2" stroke-linecap="round" sketch:type="MSShapeGroup"></path>
            <path d="M18,19 L29,19 L29,26 L18,26 L18,19 Z" id="Fill-2231" fill="#B12621" sketch:type="MSShapeGroup"></path>
            <path d="M18,19 L29,19 L29,26 L18,26 L18,19 Z" id="Stroke-2232" stroke="#6C2027" stroke-width="2" stroke-linecap="round" sketch:type="MSShapeGroup"></path>
            <path d="M29,19 L40,19 L40,26 L29,26 L29,19 Z" id="Fill-2233" fill="#B12621" sketch:type="MSShapeGroup"></path>
            <path d="M29,19 L40,19 L40,26 L29,26 L29,19 Z" id="Stroke-2234" stroke="#6C2027" stroke-width="2" stroke-linecap="round" sketch:type="MSShapeGroup"></path>
            <path d="M40,19 L51,19 L51,26 L40,26 L40,19 Z" id="Fill-2235" fill="#B12621" sketch:type="MSShapeGroup"></path>
            <path d="M40,19 L51,19 L51,26 L40,26 L40,19 Z" id="Stroke-2236" stroke="#6C2027" stroke-width="2" stroke-linecap="round" sketch:type="MSShapeGroup"></path>
            <path d="M1,26 L12,26 L12,33 L1,33 L1,26 Z" id="Fill-2237" fill="#B12621" sketch:type="MSShapeGroup"></path>
            <path d="M1,26 L12,26 L12,33 L1,33 L1,26 Z" id="Stroke-2238" stroke="#6C2027" stroke-width="2" stroke-linecap="round" sketch:type="MSShapeGroup"></path>
            <path d="M12,26 L23,26 L23,33 L12,33 L12,26 Z" id="Fill-2239" fill="#B12621" sketch:type="MSShapeGroup"></path>
            <path d="M12,26 L23,26 L23,33 L12,33 L12,26 Z" id="Stroke-2240" stroke="#6C2027" stroke-width="2" stroke-linecap="round" sketch:type="MSShapeGroup"></path>
            <path d="M23,26 L34,26 L34,33 L23,33 L23,26 Z" id="Fill-2241" fill="#B12621" sketch:type="MSShapeGroup"></path>
            <path d="M23,26 L34,26 L34,33 L23,33 L23,26 Z" id="Stroke-2242" stroke="#6C2027" stroke-width="2" stroke-linecap="round" sketch:type="MSShapeGroup"></path>
            <path d="M34,26 L45,26 L45,33 L34,33 L34,26 Z" id="Fill-2243" fill="#B12621" sketch:type="MSShapeGroup"></path>
            <path d="M34,26 L45,26 L45,33 L34,33 L34,26 Z" id="Stroke-2244" stroke="#6C2027" stroke-width="2" stroke-linecap="round" sketch:type="MSShapeGroup"></path>
            <path d="M45,26 L56,26 L56,33 L45,33 L45,26 Z" id="Fill-2245" fill="#B12621" sketch:type="MSShapeGroup"></path>
            <path d="M45,26 L56,26 L56,33 L45,33 L45,26 Z" id="Stroke-2246" stroke="#6C2027" stroke-width="2" stroke-linecap="round" sketch:type="MSShapeGroup"></path>
            <path d="M5,8 L10,3 M5,15 L18,2" id="Stroke-2247" stroke="#F8E7A1" stroke-width="2" stroke-linecap="round" sketch:type="MSShapeGroup"></path>
        </g>
    </g>
</svg>