<?xml version="1.0" encoding="UTF-8" standalone="no"?>
<svg width="58px" height="59px" viewBox="0 0 58 59" version="1.1" xmlns="http://www.w3.org/2000/svg" xmlns:xlink="http://www.w3.org/1999/xlink" xmlns:sketch="http://www.bohemiancoding.com/sketch/ns">
    <!-- Generator: Sketch 3.2.2 (9983) - http://www.bohemiancoding.com/sketch -->
    <title>165 - Wardrobe (Flat)</title>
    <desc>Created with Sketch.</desc>
    <defs></defs>
    <g id="Page-1" stroke="none" stroke-width="1" fill="none" fill-rule="evenodd" sketch:type="MSPage">
        <g id="165---Wardrobe-(Flat)" sketch:type="MSLayerGroup" transform="translate(1.000000, 1.000000)">
            <path d="M13,55 L13,57 M1,55 L1,57 M22,55 L22,57 M55,55 L55,57" id="Stroke-62" stroke="#556080" stroke-width="2" stroke-linecap="round" sketch:type="MSShapeGroup"></path>
            <path d="M20,0 L56,0 L56,55 L20,55 L20,0 Z" id="Fill-63" fill="#A26234" sketch:type="MSShapeGroup"></path>
            <path d="M20,0 L56,0 L56,55 L20,55 L20,0 Z" id="Stroke-64" stroke="#BFA380" stroke-width="2" sketch:type="MSShapeGroup"></path>
            <path d="M0,46 L14,46 L14,55 L0,55 L0,46 Z" id="Fill-1347" fill="#6C4126" sketch:type="MSShapeGroup"></path>
            <path d="M0,46 L14,46 L14,55 L0,55 L0,46 Z" id="Stroke-1348" stroke="#6C4126" stroke-width="2" sketch:type="MSShapeGroup"></path>
            <path d="M7,44 L7,37" id="Stroke-1349" stroke="#D1C17C" stroke-width="2" stroke-linecap="round" sketch:type="MSShapeGroup"></path>
            <path d="M4,29 L10,29 L10,37 L4,37 L4,29 Z" id="Fill-1350" fill="#E4C05C" sketch:type="MSShapeGroup"></path>
            <path d="M5,44 L9,44" id="Stroke-1351" stroke="#D1C17C" stroke-width="2" stroke-linecap="round" sketch:type="MSShapeGroup"></path>
            <path d="M44,22 L56,22 L56,11 L44,11 L44,22 Z" id="Fill-1352" fill="#704324" sketch:type="MSShapeGroup"></path>
            <path d="M44,22 L56,22 L56,11 L44,11 L44,22 Z" id="Stroke-1353" stroke="#BFA380" stroke-width="2" sketch:type="MSShapeGroup"></path>
            <path d="M44,11 L56,11 L56,0 L44,0 L44,11 Z" id="Fill-1354" fill="#704324" sketch:type="MSShapeGroup"></path>
            <path d="M44,11 L56,11 L56,0 L44,0 L44,11 Z" id="Stroke-1355" stroke="#BFA380" stroke-width="2" sketch:type="MSShapeGroup"></path>
            <path d="M44,44 L56,44 L56,33 L44,33 L44,44 Z" id="Fill-1356" fill="#704324" sketch:type="MSShapeGroup"></path>
            <path d="M44,44 L56,44 L56,33 L44,33 L44,44 Z" id="Stroke-1357" stroke="#BFA380" stroke-width="2" sketch:type="MSShapeGroup"></path>
            <path d="M44,55 L56,55 L56,44 L44,44 L44,55 Z" id="Fill-1358" fill="#704324" sketch:type="MSShapeGroup"></path>
            <path d="M44,55 L56,55 L56,44 L44,44 L44,55 Z" id="Stroke-1359" stroke="#BFA380" stroke-width="2" sketch:type="MSShapeGroup"></path>
            <path d="M44,33 L56,33 L56,22 L44,22 L44,33 Z" id="Fill-1360" fill="#704324" sketch:type="MSShapeGroup"></path>
            <path d="M44,33 L56,33 L56,22 L44,22 L44,33 Z" id="Stroke-1361" stroke="#BFA380" stroke-width="2" sketch:type="MSShapeGroup"></path>
            <path d="M21,9 L43,9 L43,11 L21,11 L21,9 Z" id="Fill-1362" fill="#D7B740" sketch:type="MSShapeGroup"></path>
            <path d="M21,13 L43,13 L43,15 L21,15 L21,13 Z" id="Fill-1363" fill="#D7B740" sketch:type="MSShapeGroup"></path>
            <path d="M29,14 L29,17 M29,17 L25,21 M29,17 L33,21 M25,21 L33,21" id="Stroke-1364" stroke="#FFFFFF" stroke-width="2" stroke-linecap="round" sketch:type="MSShapeGroup"></path>
            <path d="M38.5,49 L29.5,49 C28.125,49 27,47.875 27,46.5 C27,45.125 28.125,44 29.5,44 L38.5,44 C39.875,44 41,45.125 41,46.5 C41,47.875 39.875,49 38.5,49" id="Fill-3965" fill="#F8E7A1" sketch:type="MSShapeGroup"></path>
            <path d="M38.5,54 L29.5,54 C28.125,54 27,52.875 27,51.5 C27,50.125 28.125,49 29.5,49 L38.5,49 C39.875,49 41,50.125 41,51.5 C41,52.875 39.875,54 38.5,54" id="Fill-3966" fill="#D1C17C" sketch:type="MSShapeGroup"></path>
            <path d="M38.5,52 L29.5,52 C29.225,52 29,51.775 29,51.5 C29,51.225 29.225,51 29.5,51 L38.5,51 C38.775,51 39,51.225 39,51.5 C39,51.775 38.775,52 38.5,52" id="Fill-3967" fill="#F8E7A1" sketch:type="MSShapeGroup"></path>
            <path d="M38.5,47 L29.5,47 C29.225,47 29,46.775 29,46.5 C29,46.225 29.225,46 29.5,46 L38.5,46 C38.775,46 39,46.225 39,46.5 C39,46.775 38.775,47 38.5,47" id="Fill-3968" fill="#D1C17C" sketch:type="MSShapeGroup"></path>
        </g>
    </g>
</svg>