<?xml version="1.0" encoding="UTF-8" standalone="no"?>
<svg width="44px" height="58px" viewBox="0 0 44 58" version="1.1" xmlns="http://www.w3.org/2000/svg" xmlns:xlink="http://www.w3.org/1999/xlink" xmlns:sketch="http://www.bohemiancoding.com/sketch/ns">
    <!-- Generator: Sketch 3.2.2 (9983) - http://www.bohemiancoding.com/sketch -->
    <title>30 - Washing Machine (Flat)</title>
    <desc>Created with Sketch.</desc>
    <defs></defs>
    <g id="Page-1" stroke="none" stroke-width="1" fill="none" fill-rule="evenodd" sketch:type="MSPage">
        <g id="30---Washing-Machine-(Flat)" sketch:type="MSLayerGroup">
            <path d="M41.33,58 L2.67,58 C1.195,58 0,56.805 0,55.33 L0,2.67 C0,1.195 1.195,0 2.67,0 L41.33,0 C42.805,0 44,1.195 44,2.67 L44,55.33 C44,56.805 42.805,58 41.33,58" id="Fill-86" fill="#D6D9DF" sketch:type="MSShapeGroup"></path>
            <path d="M35.77,42.942 C37.794,40.144 39,36.717 39,33 C39,23.611 31.389,16 22,16 C12.611,16 5,23.611 5,33 C5,42.389 12.611,50 22,50 C26.229,50 30.088,48.446 33.063,45.891 L34.24,47.068 C35.018,47.846 36.291,47.846 37.069,47.068 C37.846,46.291 37.846,45.018 37.069,44.24 L35.77,42.942" id="Fill-87" fill="#EBECF0" sketch:type="MSShapeGroup"></path>
            <path d="M41.33,0 L2.67,0 C1.195,0 0,1.195 0,2.67 L0,12 L44,12 L44,2.67 C44,1.195 42.805,0 41.33,0" id="Fill-3083" fill="#C2C4C8" sketch:type="MSShapeGroup"></path>
            <path d="M2.67,0 C1.195,0 0,1.195 0,2.67 L0,12 L16,12 L16,0 L2.67,0" id="Fill-3084" fill="#EBECF0" sketch:type="MSShapeGroup"></path>
            <path d="M26,6 C26,4.343 24.657,3 23,3 C21.343,3 20,4.343 20,6 C20,6.171 20.023,6.336 20.05,6.5 C20.023,6.664 20,6.829 20,7 C20,8.657 21.343,10 23,10 C24.657,10 26,8.657 26,7 C26,6.829 25.977,6.664 25.95,6.5 C25.977,6.336 26,6.171 26,6" id="Fill-3085" fill="#999A9F" sketch:type="MSShapeGroup"></path>
            <path d="M31,4 L30,4 C29.448,4 29,3.553 29,3 C29,2.447 29.448,2 30,2 L31,2 C31.552,2 32,2.447 32,3 C32,3.553 31.552,4 31,4" id="Fill-3086" fill="#EBECF0" sketch:type="MSShapeGroup"></path>
            <path d="M37,4 L34,4 C33.448,4 33,3.553 33,3 C33,2.447 33.448,2 34,2 L37,2 C37.552,2 38,2.447 38,3 C38,3.553 37.552,4 37,4" id="Fill-3087" fill="#EBECF0" sketch:type="MSShapeGroup"></path>
            <path d="M31,7 L30,7 C29.448,7 29,6.553 29,6 C29,5.447 29.448,5 30,5 L31,5 C31.552,5 32,5.447 32,6 C32,6.553 31.552,7 31,7" id="Fill-3088" fill="#EBECF0" sketch:type="MSShapeGroup"></path>
            <path d="M37,7 L34,7 C33.448,7 33,6.553 33,6 C33,5.447 33.448,5 34,5 L37,5 C37.552,5 38,5.447 38,6 C38,6.553 37.552,7 37,7" id="Fill-3089" fill="#EBECF0" sketch:type="MSShapeGroup"></path>
            <path d="M31,10 L30,10 C29.448,10 29,9.553 29,9 C29,8.447 29.448,8 30,8 L31,8 C31.552,8 32,8.447 32,9 C32,9.553 31.552,10 31,10" id="Fill-3090" fill="#EBECF0" sketch:type="MSShapeGroup"></path>
            <path d="M37,10 L34,10 C33.448,10 33,9.553 33,9 C33,8.447 33.448,8 34,8 L37,8 C37.552,8 38,8.447 38,9 C38,9.553 37.552,10 37,10" id="Fill-3091" fill="#EBECF0" sketch:type="MSShapeGroup"></path>
            <path d="M0,54 L0,55.33 C0,56.805 1.195,58 2.67,58 L41.33,58 C42.805,58 44,56.805 44,55.33 L44,54 L0,54" id="Fill-3092" fill="#8C8E96" sketch:type="MSShapeGroup"></path>
            <path d="M35,33 C35,40.18 29.18,46 22,46 C14.82,46 9,40.18 9,33 C9,25.82 14.82,20 22,20 C29.18,20 35,25.82 35,33" id="Fill-3928" fill="#7FABDA" sketch:type="MSShapeGroup"></path>
            <path d="M26,6 C26,7.657 24.657,9 23,9 C21.343,9 20,7.657 20,6 C20,4.343 21.343,3 23,3 C24.657,3 26,4.343 26,6" id="Fill-3929" fill="#EBECF0" sketch:type="MSShapeGroup"></path>
        </g>
    </g>
</svg>