<?xml version="1.0" encoding="UTF-8" standalone="no"?>
<svg width="58px" height="58px" viewBox="0 0 58 58" version="1.1" xmlns="http://www.w3.org/2000/svg" xmlns:xlink="http://www.w3.org/1999/xlink" xmlns:sketch="http://www.bohemiancoding.com/sketch/ns">
    <!-- Generator: Sketch 3.2.2 (9983) - http://www.bohemiancoding.com/sketch -->
    <title>144 - Working Desk (Flat)</title>
    <desc>Created with Sketch.</desc>
    <defs></defs>
    <g id="Page-1" stroke="none" stroke-width="1" fill="none" fill-rule="evenodd" sketch:type="MSPage">
        <g id="144---Working-Desk-(Flat)" sketch:type="MSLayerGroup">
            <path d="M53,19 L56,19 L56,28 L53,28 L53,19 Z" id="Fill-1594" fill="#ED8A19" sketch:type="MSShapeGroup"></path>
            <path d="M50,19 L53,19 L53,28 L50,28 L50,19 Z" id="Fill-1595" fill="#ECBA16" sketch:type="MSShapeGroup"></path>
            <path d="M46,19 L12,19 L12,1.342 C12,0.601 12.601,0 13.342,0 L44.658,0 C45.399,0 46,0.601 46,1.342 L46,19" id="Fill-1613" fill="#546A79" sketch:type="MSShapeGroup"></path>
            <path d="M27,23 L31,23 L31,28 L27,28 L27,23 Z" id="Fill-1614" fill="#B0B6BB" sketch:type="MSShapeGroup"></path>
            <path d="M44.658,25 L13.342,25 C12.601,25 12,24.399 12,23.658 L12,19 L46,19 L46,23.658 C46,24.399 45.399,25 44.658,25" id="Fill-1615" fill="#E8EDEE" sketch:type="MSShapeGroup"></path>
            <path d="M58,28 L0,28 L0,32 L2,32 L2,58 L4.513,58 L6.246,32 L51.754,32 L53.487,58 L56,58 L56,32 L58,32 L58,28" id="Fill-1616" fill="#553323" sketch:type="MSShapeGroup"></path>
        </g>
    </g>
</svg>