<?xml version="1.0" encoding="UTF-8" standalone="no"?>
<svg width="52px" height="52px" viewBox="0 0 52 52" version="1.1" xmlns="http://www.w3.org/2000/svg" xmlns:xlink="http://www.w3.org/1999/xlink" xmlns:sketch="http://www.bohemiancoding.com/sketch/ns">
    <!-- Generator: Sketch 3.2.2 (9983) - http://www.bohemiancoding.com/sketch -->
    <title>40 - Adobe Illustrator (Flat)</title>
    <desc>Created with Sketch.</desc>
    <defs></defs>
    <g id="Page-1" stroke="none" stroke-width="1" fill="none" fill-rule="evenodd" sketch:type="MSPage">
        <g id="40---Adobe-Illustrator-(Flat)" sketch:type="MSLayerGroup">
            <path d="M40.824,52 L11.176,52 C5.004,52 0,46.997 0,40.824 L0,11.176 C0,5.004 5.004,0 11.176,0 L40.824,0 C46.997,0 52,5.004 52,11.176 L52,40.824 C52,46.997 46.997,52 40.824,52" id="Fill-35" fill="#6D4C13" sketch:type="MSShapeGroup"></path>
            <path d="M30.68,39 L27.44,39 L24.68,29.96 L16.36,29.96 L13.72,39 L10.6,39 L18.84,11 L22.16,11 L30.68,39 L30.68,39 Z M23.96,27 L20.48,15.64 L17.12,27 L23.96,27 L23.96,27 Z" id="Fill-36" fill="#FFBD2E" sketch:type="MSShapeGroup"></path>
            <path d="M37.48,12.24 C37.48,12.693 37.32,13.08 37,13.4 C36.68,13.72 36.3,13.88 35.859,13.88 C35.419,13.88 35.033,13.714 34.7,13.38 C34.366,13.047 34.2,12.667 34.2,12.24 C34.2,11.814 34.366,11.434 34.7,11.1 C35.033,10.767 35.419,10.6 35.859,10.6 C36.3,10.6 36.68,10.76 37,11.08 C37.32,11.4 37.48,11.787 37.48,12.24 L37.48,12.24 Z M34.359,18.96 L37.239,18.96 L37.239,39 L34.359,39 L34.359,18.96 Z" id="Fill-37" fill="#FFBD2E" sketch:type="MSShapeGroup"></path>
        </g>
    </g>
</svg>