<?xml version="1.0" encoding="UTF-8" standalone="no"?>
<svg width="52px" height="52px" viewBox="0 0 52 52" version="1.1" xmlns="http://www.w3.org/2000/svg" xmlns:xlink="http://www.w3.org/1999/xlink" xmlns:sketch="http://www.bohemiancoding.com/sketch/ns">
    <!-- Generator: Sketch 3.2.2 (9983) - http://www.bohemiancoding.com/sketch -->
    <title>35 - Adobe Dreamweaver (Flat)</title>
    <desc>Created with Sketch.</desc>
    <defs></defs>
    <g id="Page-1" stroke="none" stroke-width="1" fill="none" fill-rule="evenodd" sketch:type="MSPage">
        <g id="35---Adobe-Dreamweaver-(Flat)" sketch:type="MSLayerGroup">
            <path d="M40.824,52 L11.176,52 C5.004,52 0,46.997 0,40.824 L0,11.176 C0,5.004 5.004,0 11.176,0 L40.824,0 C46.997,0 52,5.004 52,11.176 L52,40.824 C52,46.997 46.997,52 40.824,52" id="Fill-53" fill="#255C26" sketch:type="MSShapeGroup"></path>
            <path d="M12.521,39 L4.2,39 L4.2,10.96 L11.721,10.96 C14.733,10.96 17.033,11.787 18.62,13.44 C20.207,15.094 21,17.294 21,20.04 L21,31 C21,36.334 18.174,39 12.521,39 L12.521,39 Z M18.12,31.4 L18.12,19.64 C18.12,17.64 17.54,16.153 16.38,15.18 C15.221,14.207 13.801,13.72 12.12,13.72 L7.08,13.72 L7.08,36.4 L11.88,36.4 C14.84,36.4 16.733,35.613 17.56,34.04 C17.934,33.347 18.12,32.467 18.12,31.4 L18.12,31.4 Z" id="Fill-54" fill="#25EC00" sketch:type="MSShapeGroup"></path>
            <path d="M42.721,39 L39.28,39 L35.601,24.44 L31.88,39 L28.44,39 L22.2,18.96 L25.28,18.96 L30.12,35.04 L34.24,18.96 L37.08,18.96 L41.2,35.04 L45.92,18.96 L49,18.96 L42.721,39" id="Fill-55" fill="#25EC00" sketch:type="MSShapeGroup"></path>
        </g>
    </g>
</svg>