<?xml version="1.0" encoding="UTF-8" standalone="no"?>
<svg width="52px" height="52px" viewBox="0 0 52 52" version="1.1" xmlns="http://www.w3.org/2000/svg" xmlns:xlink="http://www.w3.org/1999/xlink" xmlns:sketch="http://www.bohemiancoding.com/sketch/ns">
    <!-- Generator: Sketch 3.2.2 (9983) - http://www.bohemiancoding.com/sketch -->
    <title>32 - Adobe Prelude (Flat)</title>
    <desc>Created with Sketch.</desc>
    <defs></defs>
    <g id="Page-1" stroke="none" stroke-width="1" fill="none" fill-rule="evenodd" sketch:type="MSPage">
        <g id="32---Adobe-Prelude-(Flat)" sketch:type="MSLayerGroup">
            <path d="M40.824,52 L11.176,52 C5.004,52 0,46.997 0,40.824 L0,11.176 C0,5.004 5.004,0 11.176,0 L40.824,0 C46.997,0 52,5.004 52,11.176 L52,40.824 C52,46.997 46.997,52 40.824,52" id="Fill-62" fill="#193772" sketch:type="MSShapeGroup"></path>
            <path d="M15.96,39 L13.08,39 L13.08,11 L22.72,11 C25.333,11 27.274,11.814 28.54,13.44 C29.807,15.066 30.441,17.2 30.441,19.84 C30.441,20.773 30.413,21.58 30.36,22.26 C30.307,22.94 30.141,23.794 29.86,24.82 C29.58,25.847 29.2,26.687 28.72,27.34 C28.24,27.994 27.507,28.566 26.521,29.06 C25.533,29.554 24.36,29.8 23,29.8 L15.96,29.8 L15.96,39 L15.96,39 Z M15.96,27 L22.641,27 C23.601,27 24.413,26.814 25.08,26.44 C25.746,26.066 26.234,25.667 26.54,25.24 C26.847,24.814 27.087,24.2 27.26,23.4 C27.434,22.6 27.526,22 27.54,21.6 C27.554,21.2 27.561,20.627 27.561,19.88 C27.561,15.827 25.866,13.8 22.481,13.8 L15.96,13.8 L15.96,27 L15.96,27 Z" id="Fill-63" fill="#00D5EE" sketch:type="MSShapeGroup"></path>
            <path d="M35.12,11 L38,11 L38,39 L35.12,39 L35.12,11 Z" id="Fill-64" fill="#00D5EE" sketch:type="MSShapeGroup"></path>
        </g>
    </g>
</svg>