<?xml version="1.0" encoding="UTF-8" standalone="no"?>
<svg width="52px" height="52px" viewBox="0 0 52 52" version="1.1" xmlns="http://www.w3.org/2000/svg" xmlns:xlink="http://www.w3.org/1999/xlink" xmlns:sketch="http://www.bohemiancoding.com/sketch/ns">
    <!-- Generator: Sketch 3.2.2 (9983) - http://www.bohemiancoding.com/sketch -->
    <title>31 - Adobe Auditorium (Flat)</title>
    <desc>Created with Sketch.</desc>
    <defs></defs>
    <g id="Page-1" stroke="none" stroke-width="1" fill="none" fill-rule="evenodd" sketch:type="MSPage">
        <g id="31---Adobe-Auditorium-(Flat)" sketch:type="MSLayerGroup">
            <path d="M40.824,52 L11.176,52 C5.004,52 0,46.997 0,40.824 L0,11.176 C0,5.004 5.004,0 11.176,0 L40.824,0 C46.996,0 52,5.004 52,11.176 L52,40.824 C52,46.997 46.996,52 40.824,52" id="Fill-65" fill="#2F5074" sketch:type="MSShapeGroup"></path>
            <path d="M28.08,39 L24.84,39 L22.08,29.96 L13.76,29.96 L11.12,39 L8,39 L16.239,11 L19.56,11 L28.08,39 L28.08,39 Z M21.359,27 L17.88,15.64 L14.52,27 L21.359,27 L21.359,27 Z" id="Fill-66" fill="#00F6F1" sketch:type="MSShapeGroup"></path>
            <path d="M43.84,39 L41.08,39 L41.08,37.52 C39.933,38.8 38.386,39.44 36.439,39.44 C31.426,39.44 28.92,37 28.92,32.12 L28.92,18.96 L31.8,18.96 L31.8,32.12 C31.8,35.186 33.346,36.72 36.439,36.72 C39.453,36.72 40.96,35.174 40.96,32.08 L40.96,18.96 L43.84,18.96 L43.84,39" id="Fill-67" fill="#00F6F1" sketch:type="MSShapeGroup"></path>
        </g>
    </g>
</svg>