<?xml version="1.0" encoding="UTF-8" standalone="no"?>
<svg width="52px" height="52px" viewBox="0 0 52 52" version="1.1" xmlns="http://www.w3.org/2000/svg" xmlns:xlink="http://www.w3.org/1999/xlink" xmlns:sketch="http://www.bohemiancoding.com/sketch/ns">
    <!-- Generator: Sketch 3.2.2 (9983) - http://www.bohemiancoding.com/sketch -->
    <title>37 - Adobe Firework (Flat)</title>
    <desc>Created with Sketch.</desc>
    <defs></defs>
    <g id="Page-1" stroke="none" stroke-width="1" fill="none" fill-rule="evenodd" sketch:type="MSPage">
        <g id="37---Adobe-Firework-(Flat)" sketch:type="MSLayerGroup">
            <path d="M40.824,52 L11.176,52 C5.004,52 0,46.997 0,40.824 L0,11.176 C0,5.004 5.004,0 11.176,0 L40.824,0 C46.997,0 52,5.004 52,11.176 L52,40.824 C52,46.997 46.997,52 40.824,52" id="Fill-47" fill="#5E4F11" sketch:type="MSShapeGroup"></path>
            <path d="M10.88,39 L8,39 L8,11 L21.36,11 L21.36,13.8 L10.88,13.8 L10.88,22.48 L17.36,22.48 L16.28,25.28 L10.88,25.28 L10.88,39" id="Fill-48" fill="#E7EC00" sketch:type="MSShapeGroup"></path>
            <path d="M39.72,39 L36.28,39 L32.6,24.44 L28.88,39 L25.44,39 L19.2,18.96 L22.28,18.96 L27.12,35.04 L31.24,18.96 L34.08,18.96 L38.2,35.04 L42.92,18.96 L46,18.96 L39.72,39" id="Fill-49" fill="#E7EC00" sketch:type="MSShapeGroup"></path>
        </g>
    </g>
</svg>