<?xml version="1.0" encoding="UTF-8" standalone="no"?>
<svg width="52px" height="52px" viewBox="0 0 52 52" version="1.1" xmlns="http://www.w3.org/2000/svg" xmlns:xlink="http://www.w3.org/1999/xlink" xmlns:sketch="http://www.bohemiancoding.com/sketch/ns">
    <!-- Generator: Sketch 3.2.2 (9983) - http://www.bohemiancoding.com/sketch -->
    <title>30 - Adobe After Effects (Flat)</title>
    <desc>Created with Sketch.</desc>
    <defs></defs>
    <g id="Page-1" stroke="none" stroke-width="1" fill="none" fill-rule="evenodd" sketch:type="MSPage">
        <g id="30---Adobe-After-Effects-(Flat)" sketch:type="MSLayerGroup">
            <path d="M40.824,52 L11.176,52 C5.004,52 0,46.996 0,40.824 L0,11.176 C0,5.004 5.004,0 11.176,0 L40.824,0 C46.997,0 52,5.004 52,11.176 L52,40.824 C52,46.996 46.997,52 40.824,52" id="Fill-38" fill="#3A3375" sketch:type="MSShapeGroup"></path>
            <path d="M27.44,39 L24.2,39 L21.44,29.96 L13.12,29.96 L10.481,39 L7.36,39 L15.6,11 L18.92,11 L27.44,39 L27.44,39 Z M20.72,27 L17.24,15.64 L13.88,27 L20.72,27 L20.72,27 Z" id="Fill-39" fill="#E7ADFB" sketch:type="MSShapeGroup"></path>
            <path d="M31.48,33.48 C31.48,35.747 32.814,36.88 35.48,36.88 C37.133,36.88 38.946,36.334 40.92,35.24 L42,37.6 C39.946,38.853 37.8,39.48 35.56,39.48 C30.92,39.48 28.6,37.534 28.6,33.64 L28.6,25.44 C28.6,23.28 29.273,21.6 30.62,20.4 C31.966,19.2 33.747,18.6 35.96,18.6 C38.173,18.6 39.901,19.193 41.14,20.38 C42.38,21.566 43,23.214 43,25.32 L43,30.8 L31.48,31.4 L31.48,33.48 L31.48,33.48 Z M40.08,28.24 L40.08,25.16 C40.08,23.747 39.64,22.74 38.76,22.14 C37.88,21.54 36.854,21.24 35.68,21.24 C34.506,21.24 33.513,21.6 32.7,22.32 C31.886,23.04 31.48,24.094 31.48,25.48 L31.48,28.68 L40.08,28.24 L40.08,28.24 Z" id="Fill-40" fill="#E7ADFB" sketch:type="MSShapeGroup"></path>
        </g>
    </g>
</svg>