<?xml version="1.0" encoding="UTF-8" standalone="no"?>
<svg width="52px" height="52px" viewBox="0 0 52 52" version="1.1" xmlns="http://www.w3.org/2000/svg" xmlns:xlink="http://www.w3.org/1999/xlink" xmlns:sketch="http://www.bohemiancoding.com/sketch/ns">
    <!-- Generator: Sketch 3.2.2 (9983) - http://www.bohemiancoding.com/sketch -->
    <title>36 - Adobe Bridge (Flat)</title>
    <desc>Created with Sketch.</desc>
    <defs></defs>
    <g id="Page-1" stroke="none" stroke-width="1" fill="none" fill-rule="evenodd" sketch:type="MSPage">
        <g id="36---Adobe-Bridge-(Flat)" sketch:type="MSLayerGroup">
            <path d="M40.824,52 L11.176,52 C5.004,52 0,46.997 0,40.824 L0,11.176 C0,5.004 5.004,0 11.176,0 L40.824,0 C46.997,0 52,5.004 52,11.176 L52,40.824 C52,46.997 46.997,52 40.824,52" id="Fill-50" fill="#69461E" sketch:type="MSShapeGroup"></path>
            <path d="M21.2,39 L12.12,39 L12.12,11 L20.76,11 C22.946,11 24.7,11.574 26.02,12.72 C27.34,13.867 28,15.627 28,18 C28,20.374 27.12,22.16 25.36,23.36 C25.333,23.387 25.32,23.414 25.32,23.44 L25.32,23.481 C26.493,24.014 27.473,24.874 28.26,26.06 C29.046,27.247 29.44,28.787 29.44,30.68 C29.44,32.36 29.08,33.88 28.36,35.24 C27.08,37.747 24.693,39 21.2,39 L21.2,39 Z M15,22.48 L20.16,22.48 C23.28,22.48 24.84,21.014 24.84,18.08 C24.84,15.227 23.253,13.8 20.08,13.8 L15,13.8 L15,22.48 L15,22.48 Z M15,36.32 L20.56,36.32 C22.346,36.32 23.74,35.907 24.74,35.08 C25.74,34.254 26.24,32.854 26.24,30.88 C26.24,28.907 25.74,27.481 24.74,26.6 C23.74,25.72 22.533,25.28 21.12,25.28 L15,25.28 L15,36.32 L15,36.32 Z" id="Fill-51" fill="#FBC500" sketch:type="MSShapeGroup"></path>
            <path d="M36.16,39 L33.28,39 L33.28,18.96 L36.08,18.96 L36.08,20 C37.28,19.12 38.8,18.68 40.64,18.68 C41.546,18.68 42.546,18.787 43.64,19 L42.92,21.72 C41.986,21.427 41.021,21.28 40.021,21.28 C39.02,21.28 38.126,21.54 37.34,22.06 C36.553,22.58 36.16,23.28 36.16,24.16 L36.16,39" id="Fill-52" fill="#FBC500" sketch:type="MSShapeGroup"></path>
        </g>
    </g>
</svg>