<?xml version="1.0" encoding="UTF-8" standalone="no"?>
<svg width="52px" height="52px" viewBox="0 0 52 52" version="1.1" xmlns="http://www.w3.org/2000/svg" xmlns:xlink="http://www.w3.org/1999/xlink" xmlns:sketch="http://www.bohemiancoding.com/sketch/ns">
    <!-- Generator: Sketch 3.2.2 (9983) - http://www.bohemiancoding.com/sketch -->
    <title>38 - Adobe Indesign (Flat)</title>
    <desc>Created with Sketch.</desc>
    <defs></defs>
    <g id="Page-1" stroke="none" stroke-width="1" fill="none" fill-rule="evenodd" sketch:type="MSPage">
        <g id="38---Adobe-Indesign-(Flat)" sketch:type="MSLayerGroup">
            <path d="M40.824,52 L11.176,52 C5.004,52 0,46.997 0,40.824 L0,11.176 C0,5.004 5.004,0 11.176,0 L40.824,0 C46.997,0 52,5.004 52,11.176 L52,40.824 C52,46.997 46.997,52 40.824,52" id="Fill-44" fill="#6F2B41" sketch:type="MSShapeGroup"></path>
            <path d="M18.08,39 L15.2,39 L15.2,13.72 L12.56,13.64 L12.56,11 L18.08,11 L18.08,39" id="Fill-45" fill="#FF70BD" sketch:type="MSShapeGroup"></path>
            <path d="M27.68,19.4 C28.853,18.894 30.273,18.64 31.94,18.64 C33.606,18.64 35.013,19.014 36.16,19.76 L36.16,11 L39.04,11 L39.04,39 C36.746,39.32 34.626,39.481 32.68,39.481 C30.733,39.481 28.973,39.08 27.4,38.28 C25.32,37.214 24.28,35.36 24.28,32.72 L24.28,25.16 C24.28,22.36 25.413,20.44 27.68,19.4 L27.68,19.4 Z M36.16,22.52 C34.773,21.773 33.253,21.4 31.6,21.4 C30.026,21.4 28.886,21.807 28.18,22.62 C27.473,23.434 27.12,24.467 27.12,25.72 L27.12,32.84 C27.12,34.066 27.56,35.027 28.44,35.72 C29.4,36.44 30.586,36.8 32,36.8 C33.413,36.8 34.8,36.693 36.16,36.481 L36.16,22.52 L36.16,22.52 Z" id="Fill-46" fill="#FF70BD" sketch:type="MSShapeGroup"></path>
        </g>
    </g>
</svg>