<?xml version="1.0" encoding="UTF-8" standalone="no"?>
<svg width="52px" height="52px" viewBox="0 0 52 52" version="1.1" xmlns="http://www.w3.org/2000/svg" xmlns:xlink="http://www.w3.org/1999/xlink" xmlns:sketch="http://www.bohemiancoding.com/sketch/ns">
    <!-- Generator: Sketch 3.2.2 (9983) - http://www.bohemiancoding.com/sketch -->
    <title>33 - Adobe Flash Player (Flat)</title>
    <desc>Created with Sketch.</desc>
    <defs></defs>
    <g id="Page-1" stroke="none" stroke-width="1" fill="none" fill-rule="evenodd" sketch:type="MSPage">
        <g id="33---Adobe-Flash-Player-(Flat)" sketch:type="MSLayerGroup">
            <path d="M40.824,52 L11.176,52 C5.004,52 0,46.997 0,40.824 L0,11.176 C0,5.004 5.004,0 11.176,0 L40.824,0 C46.997,0 52,5.004 52,11.176 L52,40.824 C52,46.997 46.997,52 40.824,52" id="Fill-59" fill="#7A2F32" sketch:type="MSShapeGroup"></path>
            <path d="M19.52,39 L16.64,39 L16.64,11 L30,11 L30,13.8 L19.52,13.8 L19.52,22.48 L26,22.48 L24.92,25.28 L19.52,25.28 L19.52,39" id="Fill-60" fill="#F73414" sketch:type="MSShapeGroup"></path>
            <path d="M32.119,11 L35,11 L35,39 L32.119,39 L32.119,11 Z" id="Fill-61" fill="#F73414" sketch:type="MSShapeGroup"></path>
        </g>
    </g>
</svg>