<?xml version="1.0" encoding="UTF-8" standalone="no"?>
<svg width="52px" height="52px" viewBox="0 0 52 52" version="1.1" xmlns="http://www.w3.org/2000/svg" xmlns:xlink="http://www.w3.org/1999/xlink" xmlns:sketch="http://www.bohemiancoding.com/sketch/ns">
    <!-- Generator: Sketch 3.2.2 (9983) - http://www.bohemiancoding.com/sketch -->
    <title>34 - Adobe Premiere Pro (Flat)</title>
    <desc>Created with Sketch.</desc>
    <defs></defs>
    <g id="Page-1" stroke="none" stroke-width="1" fill="none" fill-rule="evenodd" sketch:type="MSPage">
        <g id="34---Adobe-Premiere-Pro-(Flat)" sketch:type="MSLayerGroup">
            <path d="M40.824,52 L11.176,52 C5.004,52 0,46.997 0,40.824 L0,11.176 C0,5.004 5.004,0 11.176,0 L40.824,0 C46.997,0 52,5.004 52,11.176 L52,40.824 C52,46.997 46.997,52 40.824,52" id="Fill-56" fill="#653E66" sketch:type="MSShapeGroup"></path>
            <path d="M15.32,39 L12.44,39 L12.44,11 L22.08,11 C24.693,11 26.634,11.814 27.9,13.44 C29.167,15.066 29.801,17.2 29.801,19.84 C29.801,20.773 29.773,21.58 29.721,22.26 C29.667,22.94 29.501,23.794 29.221,24.82 C28.94,25.847 28.561,26.687 28.08,27.34 C27.601,27.994 26.867,28.566 25.881,29.06 C24.894,29.554 23.721,29.8 22.36,29.8 L15.32,29.8 L15.32,39 L15.32,39 Z M15.32,27 L22.001,27 C22.961,27 23.773,26.814 24.44,26.44 C25.106,26.066 25.594,25.667 25.9,25.24 C26.207,24.814 26.447,24.2 26.62,23.4 C26.794,22.6 26.887,22 26.9,21.6 C26.914,21.2 26.921,20.627 26.921,19.88 C26.921,15.827 25.227,13.8 21.841,13.8 L15.32,13.8 L15.32,27 L15.32,27 Z" id="Fill-57" fill="#F9A3FF" sketch:type="MSShapeGroup"></path>
            <path d="M36.521,39 L33.641,39 L33.641,18.96 L36.44,18.96 L36.44,20 C37.641,19.12 39.16,18.68 41,18.68 C41.906,18.68 42.906,18.787 44,19 L43.28,21.72 C42.347,21.427 41.381,21.28 40.381,21.28 C39.381,21.28 38.486,21.54 37.7,22.06 C36.913,22.58 36.521,23.28 36.521,24.16 L36.521,39" id="Fill-58" fill="#F9A3FF" sketch:type="MSShapeGroup"></path>
        </g>
    </g>
</svg>