<?xml version="1.0" encoding="UTF-8" standalone="no"?>
<svg width="52px" height="52px" viewBox="0 0 52 52" version="1.1" xmlns="http://www.w3.org/2000/svg" xmlns:xlink="http://www.w3.org/1999/xlink" xmlns:sketch="http://www.bohemiancoding.com/sketch/ns">
    <!-- Generator: Sketch 3.2.2 (9983) - http://www.bohemiancoding.com/sketch -->
    <title>39 - Adobe Photoshop (Flat)</title>
    <desc>Created with Sketch.</desc>
    <defs></defs>
    <g id="Page-1" stroke="none" stroke-width="1" fill="none" fill-rule="evenodd" sketch:type="MSPage">
        <g id="39---Adobe-Photoshop-(Flat)" sketch:type="MSLayerGroup">
            <path d="M40.824,52 L11.176,52 C5.004,52 0,46.997 0,40.824 L0,11.176 C0,5.004 5.004,0 11.176,0 L40.824,0 C46.997,0 52,5.004 52,11.176 L52,40.824 C52,46.997 46.997,52 40.824,52" id="Fill-41" fill="#393687" sketch:type="MSShapeGroup"></path>
            <path d="M12.16,39 L9.28,39 L9.28,11 L18.92,11 C21.533,11 23.473,11.814 24.74,13.44 C26.006,15.066 26.64,17.2 26.64,19.84 C26.64,20.773 26.613,21.58 26.56,22.26 C26.506,22.94 26.34,23.794 26.06,24.82 C25.78,25.847 25.4,26.687 24.92,27.34 C24.44,27.994 23.707,28.566 22.72,29.06 C21.733,29.554 20.56,29.8 19.2,29.8 L12.16,29.8 L12.16,39 L12.16,39 Z M12.16,27 L18.84,27 C19.8,27 20.613,26.814 21.28,26.44 C21.946,26.066 22.433,25.667 22.74,25.24 C23.046,24.814 23.287,24.2 23.46,23.4 C23.633,22.6 23.727,22 23.74,21.6 C23.753,21.2 23.76,20.627 23.76,19.88 C23.76,15.827 22.066,13.8 18.68,13.8 L12.16,13.8 L12.16,27 L12.16,27 Z" id="Fill-42" fill="#89D3FF" sketch:type="MSShapeGroup"></path>
            <path d="M29.48,33.92 L32.28,33.8 C32.386,34.787 32.88,35.554 33.76,36.1 C34.64,36.647 35.653,36.92 36.8,36.92 C37.946,36.92 38.94,36.66 39.78,36.14 C40.62,35.62 41.04,34.874 41.04,33.9 C41.04,32.927 40.68,32.153 39.96,31.58 C39.24,31.007 38.36,30.554 37.32,30.22 C36.28,29.887 35.233,29.534 34.18,29.16 C33.127,28.787 32.2,28.2 31.4,27.4 C30.413,26.467 29.92,25.327 29.92,23.98 C29.92,22.634 30.46,21.38 31.54,20.22 C32.62,19.06 34.373,18.481 36.8,18.481 C37.653,18.481 38.453,18.58 39.2,18.78 C39.946,18.981 40.48,19.174 40.8,19.36 L41.28,19.64 L40.36,22.16 C39.506,21.494 38.386,21.16 37,21.16 C35.613,21.16 34.58,21.42 33.9,21.94 C33.22,22.46 32.88,23.12 32.88,23.92 C32.88,24.8 33.306,25.494 34.16,26 C35.013,26.507 35.973,26.934 37.04,27.28 C38.106,27.627 39.167,28.014 40.22,28.44 C41.273,28.867 42.167,29.534 42.9,30.44 C43.633,31.347 44,32.547 44,34.04 C44,35.534 43.4,36.834 42.2,37.94 C41,39.046 39.246,39.6 36.94,39.6 C34.633,39.6 32.826,39.053 31.52,37.96 C30.213,36.867 29.533,35.52 29.48,33.92" id="Fill-43" fill="#89D3FF" sketch:type="MSShapeGroup"></path>
        </g>
    </g>
</svg>