<?xml version="1.0" encoding="UTF-8" standalone="no"?>
<svg width="43px" height="56px" viewBox="0 0 43 56" version="1.1" xmlns="http://www.w3.org/2000/svg" xmlns:xlink="http://www.w3.org/1999/xlink" xmlns:sketch="http://www.bohemiancoding.com/sketch/ns">
    <!-- Generator: Sketch 3.2.2 (9983) - http://www.bohemiancoding.com/sketch -->
    <title>15 - AI File (Flat)</title>
    <desc>Created with Sketch.</desc>
    <defs></defs>
    <g id="Page-1" stroke="none" stroke-width="1" fill="none" fill-rule="evenodd" sketch:type="MSPage">
        <g id="15---AI-File-(Flat)" sketch:type="MSLayerGroup">
            <path d="M30.485,0 L1.463,0 C0.655,0 0,0.655 0,1.926 L0,55 C0,55.345 0.655,56 1.463,56 L41.537,56 C42.345,56 43,55.345 43,55 L43,12.978 C43,12.282 42.907,12.058 42.743,11.893 L31.107,0.257 C30.942,0.093 30.718,0 30.485,0" id="Fill-79" fill="#E9E9E0" sketch:type="MSShapeGroup"></path>
            <path d="M41.537,56 L1.463,56 C0.655,56 0,55.345 0,54.537 L0,39 L43,39 L43,54.537 C43,55.345 42.345,56 41.537,56" id="Fill-174" fill="#FFC14F" sketch:type="MSShapeGroup"></path>
            <path d="M13.567,53 L17.095,42.938 L18.722,42.938 L22.222,53 L20.526,53 L19.802,50.908 L16.015,50.908 L15.276,53 L13.567,53 L13.567,53 Z M16.398,49.801 L19.405,49.801 L17.915,45.453 L16.398,49.801 L16.398,49.801 Z" id="Fill-175" fill="#FFFFFF" sketch:type="MSShapeGroup"></path>
            <path d="M24.368,42.924 L26.036,42.924 L26.036,53 L24.368,53 L24.368,42.924 Z" id="Fill-176" fill="#FFFFFF" sketch:type="MSShapeGroup"></path>
            <path d="M31,11 L31,11.461 C27.929,12.429 25.497,14.844 24.498,17.901 C23.811,17.346 22.95,17 22,17 C20.141,17 18.589,18.28 18.142,20 L15,20 L15,18 L9,18 L9,24 L15,24 L15,22 L17.921,22 C17.585,24.663 15.936,26.978 13.532,28.163 C12.864,26.885 11.54,26 10,26 C7.794,26 6,27.794 6,30 C6,32.206 7.794,34 10,34 C12.146,34 13.888,32.298 13.982,30.175 C16.638,29.024 18.629,26.789 19.506,24.102 C20.192,24.655 21.052,25 22,25 C23.859,25 25.411,23.72 25.858,22 L29,22 L29,24 L35,24 L35,18 L29,18 L29,20 L26.07,20 C26.449,16.981 28.514,14.486 31.292,13.482 C31.883,14.955 33.318,16 35,16 C37.206,16 39,14.206 39,12 L39,11 L31,11 L31,11 Z M11,20 L13,20 L13,22 L11,22 L11,20 Z M10,32 C8.898,32 8,31.103 8,30 C8,28.897 8.898,28 10,28 C11.103,28 12,28.897 12,30 C12,31.103 11.103,32 10,32 L10,32 Z M31,20 L33,20 L33,22 L31,22 L31,20 Z M22,23 C20.898,23 20,22.103 20,21 C20,19.897 20.898,19 22,19 C23.103,19 24,19.897 24,21 C24,22.103 23.103,23 22,23 L22,23 Z M35,14 C34.277,14 33.647,13.611 33.296,13.036 C33.528,13.015 33.762,13 34,13 L36.731,13 C36.386,13.597 35.739,14 35,14 L35,14 Z" id="Fill-177" fill="#C8BDB8" sketch:type="MSShapeGroup"></path>
            <path d="M31,0.151 L31,12 L42.849,12 L31,0.151" id="Fill-298" fill="#D9D7CA" sketch:type="MSShapeGroup"></path>
        </g>
    </g>
</svg>