<?xml version="1.0" encoding="UTF-8" standalone="no"?>
<svg width="43px" height="56px" viewBox="0 0 43 56" version="1.1" xmlns="http://www.w3.org/2000/svg" xmlns:xlink="http://www.w3.org/1999/xlink" xmlns:sketch="http://www.bohemiancoding.com/sketch/ns">
    <!-- Generator: Sketch 3.2.2 (9983) - http://www.bohemiancoding.com/sketch -->
    <title>10 - DWG File (Flat)</title>
    <desc>Created with Sketch.</desc>
    <defs></defs>
    <g id="Page-1" stroke="none" stroke-width="1" fill="none" fill-rule="evenodd" sketch:type="MSPage">
        <g id="10---DWG-File-(Flat)" sketch:type="MSLayerGroup">
            <path d="M30.485,0 L1.463,0 C0.655,0 0,0.655 0,1.926 L0,55 C0,55.345 0.655,56 1.463,56 L41.537,56 C42.345,56 43,55.345 43,55 L43,12.978 C43,12.282 42.907,12.058 42.743,11.893 L31.107,0.257 C30.942,0.093 30.718,0 30.485,0" id="Fill-1" fill="#E9E9E0" sketch:type="MSShapeGroup"></path>
            <path d="M31,0.151 L31,12 L42.849,12 L31,0.151" id="Fill-2" fill="#D9D7CA" sketch:type="MSShapeGroup"></path>
            <path d="M41.537,56 L1.463,56 C0.655,56 0,55.345 0,54.537 L0,39 L43,39 L43,54.537 C43,55.345 42.345,56 41.537,56" id="Fill-235" fill="#8697CB" sketch:type="MSShapeGroup"></path>
            <path d="M13.447,47.682 C13.447,48.511 13.358,49.22 13.181,49.808 C13.003,50.396 12.777,50.888 12.504,51.284 C12.231,51.681 11.923,51.993 11.581,52.221 C11.239,52.448 10.909,52.619 10.59,52.733 C10.271,52.848 9.979,52.92 9.715,52.952 C9.45,52.984 9.254,53 9.127,53 L5.313,53 L5.313,42.924 L8.348,42.924 C9.195,42.924 9.94,43.059 10.583,43.327 C11.226,43.596 11.759,43.954 12.183,44.4 C12.606,44.847 12.923,45.356 13.133,45.925 C13.342,46.494 13.447,47.08 13.447,47.682 L13.447,47.682 Z M8.58,51.797 C9.692,51.797 10.494,51.441 10.986,50.731 C11.479,50.019 11.725,48.989 11.725,47.641 C11.725,47.222 11.674,46.807 11.574,46.396 C11.474,45.986 11.28,45.615 10.993,45.282 C10.706,44.949 10.316,44.681 9.824,44.476 C9.332,44.271 8.694,44.168 7.91,44.168 L6.953,44.168 L6.953,51.797 L8.58,51.797 L8.58,51.797 Z" id="Fill-236" fill="#FFFFFF" sketch:type="MSShapeGroup"></path>
            <path d="M28.5,42.924 L25.779,53.055 L23.647,53.055 L21.992,45.453 L20.229,53.055 L18.082,53.055 L15.525,42.924 L17.385,42.924 L19.162,51.619 L21.076,42.924 L22.936,42.924 L24.713,51.619 L26.641,42.924 L28.5,42.924" id="Fill-237" fill="#FFFFFF" sketch:type="MSShapeGroup"></path>
            <path d="M38.07,47.805 L38.07,51.701 C37.86,51.966 37.626,52.182 37.366,52.351 C37.106,52.519 36.833,52.658 36.546,52.768 C36.259,52.877 35.963,52.954 35.657,53 C35.352,53.046 35.049,53.068 34.748,53.068 C34.147,53.068 33.593,52.959 33.087,52.74 C32.581,52.522 32.139,52.198 31.761,51.769 C31.382,51.341 31.086,50.804 30.872,50.156 C30.658,49.509 30.551,48.762 30.551,47.914 C30.551,47.066 30.658,46.321 30.872,45.679 C31.086,45.036 31.382,44.501 31.761,44.072 C32.139,43.644 32.583,43.318 33.094,43.095 C33.605,42.871 34.155,42.76 34.748,42.76 C35.295,42.76 35.806,42.851 36.279,43.033 C36.753,43.216 37.177,43.489 37.551,43.854 L36.416,44.865 C36.197,44.601 35.946,44.409 35.664,44.291 C35.382,44.173 35.09,44.113 34.789,44.113 C34.452,44.113 34.131,44.177 33.825,44.305 C33.52,44.433 33.246,44.648 33.005,44.954 C32.764,45.26 32.574,45.653 32.438,46.137 C32.301,46.62 32.228,47.212 32.219,47.914 C32.228,48.598 32.299,49.19 32.431,49.691 C32.563,50.192 32.745,50.602 32.978,50.922 C33.21,51.241 33.475,51.477 33.771,51.633 C34.066,51.788 34.379,51.865 34.707,51.865 C34.808,51.865 34.941,51.858 35.11,51.845 C35.279,51.831 35.447,51.809 35.616,51.776 C35.785,51.744 35.946,51.701 36.102,51.646 C36.257,51.592 36.37,51.515 36.443,51.414 L36.443,48.926 L34.734,48.926 L34.734,47.805 L38.07,47.805" id="Fill-238" fill="#FFFFFF" sketch:type="MSShapeGroup"></path>
            <path d="M6,13 L21,13 L21,28.065 L6,28.065 L6,13 Z" id="Fill-251" fill="#C8BDB8" sketch:type="MSShapeGroup"></path>
            <path d="M28,14 L30,14 L30,21 L28,21 L28,14 Z" id="Fill-252" fill="#ADA29E" sketch:type="MSShapeGroup"></path>
            <path d="M28,29 L30,29 L30,36 L28,36 L28,29 Z" id="Fill-253" fill="#ADA29E" sketch:type="MSShapeGroup"></path>
            <path d="M24,20 L34,20 L34,30 L24,30 L24,20 Z M26,28 L32,28 L32,22 L26,22 L26,28 Z" id="Fill-254" fill="#ADA29E" sketch:type="MSShapeGroup"></path>
            <path d="M33,24 L40,24 L40,26 L33,26 L33,24 Z" id="Fill-255" fill="#ADA29E" sketch:type="MSShapeGroup"></path>
            <path d="M18,24 L25,24 L25,26 L18,26 L18,24 Z" id="Fill-256" fill="#ADA29E" sketch:type="MSShapeGroup"></path>
        </g>
    </g>
</svg>