<?xml version="1.0" encoding="UTF-8" standalone="no"?>
<svg width="43px" height="56px" viewBox="0 0 43 56" version="1.1" xmlns="http://www.w3.org/2000/svg" xmlns:xlink="http://www.w3.org/1999/xlink" xmlns:sketch="http://www.bohemiancoding.com/sketch/ns">
    <!-- Generator: Sketch 3.2.2 (9983) - http://www.bohemiancoding.com/sketch -->
    <title>11 - ISO File (Flat)</title>
    <desc>Created with Sketch.</desc>
    <defs></defs>
    <g id="Page-1" stroke="none" stroke-width="1" fill="none" fill-rule="evenodd" sketch:type="MSPage">
        <g id="11---ISO-File-(Flat)" sketch:type="MSLayerGroup">
            <path d="M30.485,0 L1.463,0 C0.655,0 0,0.655 0,1.926 L0,55 C0,55.345 0.655,56 1.463,56 L41.537,56 C42.345,56 43,55.345 43,55 L43,12.978 C43,12.282 42.907,12.058 42.743,11.893 L31.107,0.257 C30.942,0.093 30.718,0 30.485,0" id="Fill-84" fill="#E9E9E0" sketch:type="MSShapeGroup"></path>
            <path d="M31,0.151 L31,12 L42.849,12 L31,0.151" id="Fill-85" fill="#D9D7CA" sketch:type="MSShapeGroup"></path>
            <path d="M41.537,56 L1.463,56 C0.655,56 0,55.345 0,54.537 L0,39 L43,39 L43,54.537 C43,55.345 42.345,56 41.537,56" id="Fill-215" fill="#71C285" sketch:type="MSShapeGroup"></path>
            <path d="M12.285,42.924 L13.953,42.924 L13.953,53 L12.285,53 L12.285,42.924 Z" id="Fill-216" fill="#FFFFFF" sketch:type="MSShapeGroup"></path>
            <path d="M22.17,50.238 C22.17,50.603 22.095,50.956 21.944,51.298 C21.794,51.64 21.582,51.94 21.309,52.2 C21.035,52.46 20.697,52.667 20.297,52.822 C19.896,52.977 19.439,53.055 18.93,53.055 C18.711,53.055 18.485,53.043 18.253,53.021 C18.021,52.998 17.785,52.959 17.549,52.904 C17.312,52.85 17.086,52.774 16.872,52.679 C16.658,52.583 16.473,52.467 16.318,52.33 L16.606,51.154 C16.732,51.227 16.895,51.298 17.091,51.366 C17.287,51.435 17.489,51.498 17.699,51.558 C17.908,51.617 18.118,51.665 18.328,51.701 C18.537,51.737 18.733,51.756 18.916,51.756 C19.472,51.756 19.899,51.626 20.194,51.366 C20.49,51.106 20.639,50.722 20.639,50.211 C20.639,49.901 20.533,49.637 20.324,49.418 C20.114,49.199 19.853,49.001 19.538,48.823 C19.224,48.646 18.884,48.468 18.52,48.29 C18.154,48.112 17.813,47.902 17.494,47.661 C17.175,47.42 16.91,47.135 16.701,46.807 C16.491,46.479 16.387,46.068 16.387,45.576 C16.387,45.13 16.469,44.733 16.633,44.387 C16.797,44.04 17.018,43.746 17.296,43.505 C17.574,43.264 17.898,43.079 18.267,42.951 C18.636,42.823 19.026,42.76 19.436,42.76 C19.855,42.76 20.278,42.799 20.707,42.876 C21.135,42.953 21.481,43.079 21.746,43.252 C21.692,43.37 21.627,43.5 21.555,43.642 C21.481,43.783 21.413,43.915 21.35,44.038 C21.285,44.161 21.23,44.264 21.186,44.346 C21.14,44.428 21.112,44.474 21.104,44.482 C21.049,44.455 20.987,44.419 20.919,44.373 C20.851,44.327 20.752,44.282 20.625,44.236 C20.497,44.19 20.328,44.159 20.119,44.141 C19.909,44.122 19.641,44.127 19.313,44.154 C19.13,44.173 18.957,44.225 18.793,44.312 C18.629,44.398 18.482,44.505 18.355,44.633 C18.228,44.761 18.127,44.904 18.055,45.063 C17.981,45.223 17.945,45.376 17.945,45.521 C17.945,45.886 18.05,46.18 18.26,46.403 C18.469,46.627 18.729,46.822 19.039,46.991 C19.349,47.16 19.686,47.324 20.051,47.483 C20.415,47.643 20.755,47.837 21.069,48.065 C21.384,48.292 21.646,48.577 21.856,48.919 C22.064,49.261 22.17,49.7 22.17,50.238" id="Fill-217" fill="#FFFFFF" sketch:type="MSShapeGroup"></path>
            <path d="M32.068,47.914 C32.068,48.762 31.961,49.509 31.747,50.156 C31.533,50.804 31.236,51.341 30.859,51.769 C30.481,52.198 30.038,52.522 29.532,52.74 C29.026,52.959 28.473,53.068 27.871,53.068 C27.27,53.068 26.716,52.959 26.21,52.74 C25.704,52.522 25.262,52.198 24.884,51.769 C24.506,51.341 24.209,50.804 23.995,50.156 C23.781,49.509 23.674,48.762 23.674,47.914 C23.674,47.066 23.781,46.321 23.995,45.679 C24.209,45.036 24.506,44.501 24.884,44.072 C25.262,43.644 25.704,43.318 26.21,43.095 C26.716,42.871 27.27,42.76 27.871,42.76 C28.473,42.76 29.026,42.871 29.532,43.095 C30.038,43.318 30.481,43.644 30.859,44.072 C31.236,44.501 31.533,45.036 31.747,45.679 C31.961,46.321 32.068,47.066 32.068,47.914 L32.068,47.914 Z M27.83,51.729 C28.167,51.729 28.488,51.662 28.794,51.53 C29.1,51.398 29.373,51.182 29.614,50.881 C29.855,50.58 30.045,50.186 30.182,49.698 C30.318,49.211 30.391,48.616 30.4,47.914 C30.391,47.231 30.32,46.649 30.188,46.171 C30.057,45.692 29.874,45.298 29.642,44.988 C29.409,44.679 29.145,44.455 28.849,44.318 C28.553,44.182 28.24,44.113 27.912,44.113 C27.574,44.113 27.254,44.177 26.948,44.305 C26.643,44.433 26.369,44.648 26.128,44.954 C25.887,45.26 25.697,45.653 25.561,46.137 C25.424,46.62 25.351,47.212 25.342,47.914 C25.351,48.598 25.422,49.181 25.554,49.664 C25.686,50.148 25.868,50.541 26.101,50.847 C26.333,51.152 26.598,51.375 26.894,51.517 C27.189,51.658 27.502,51.729 27.83,51.729 L27.83,51.729 Z" id="Fill-218" fill="#FFFFFF" sketch:type="MSShapeGroup"></path>
            <path d="M29.485,12.515 C34.172,17.201 34.172,24.799 29.485,29.485 C24.799,34.172 17.201,34.172 12.515,29.485 C7.828,24.799 7.828,17.201 12.515,12.515 C17.201,7.828 24.799,7.828 29.485,12.515" id="Fill-219" fill="#C8BDB8" sketch:type="MSShapeGroup"></path>
            <path d="M23.121,18.879 C24.293,20.05 24.293,21.95 23.121,23.121 C21.95,24.293 20.05,24.293 18.879,23.121 C17.707,21.95 17.707,20.05 18.879,18.879 C20.05,17.707 21.95,17.707 23.121,18.879" id="Fill-220" fill="#E9E9E0" sketch:type="MSShapeGroup"></path>
            <path d="M18.879,18.879 C19.011,18.747 19.155,18.634 19.303,18.532 L16.942,9.719 C15.327,10.298 13.808,11.221 12.515,12.515 C11.221,13.808 10.298,15.327 9.719,16.942 L18.532,19.303 C18.634,19.155 18.746,19.011 18.879,18.879" id="Fill-221" fill="#D3CCC9" sketch:type="MSShapeGroup"></path>
            <path d="M23.571,23.486 L25.844,31.969 C27.164,31.387 28.404,30.567 29.485,29.485 C30.738,28.232 31.645,26.768 32.228,25.21 L24.041,23.016 C23.755,22.939 23.494,23.2 23.571,23.486" id="Fill-222" fill="#D3CCC9" sketch:type="MSShapeGroup"></path>
        </g>
    </g>
</svg>