<?xml version="1.0" encoding="UTF-8" standalone="no"?>
<svg width="43px" height="56px" viewBox="0 0 43 56" version="1.1" xmlns="http://www.w3.org/2000/svg" xmlns:xlink="http://www.w3.org/1999/xlink" xmlns:sketch="http://www.bohemiancoding.com/sketch/ns">
    <!-- Generator: Sketch 3.2.2 (9983) - http://www.bohemiancoding.com/sketch -->
    <title>27 - PNG File (Flat)</title>
    <desc>Created with Sketch.</desc>
    <defs></defs>
    <g id="Page-1" stroke="none" stroke-width="1" fill="none" fill-rule="evenodd" sketch:type="MSPage">
        <g id="27---PNG-File-(Flat)" sketch:type="MSLayerGroup">
            <path d="M30.485,0 L1.463,0 C0.655,0 0,0.655 0,1.926 L0,55 C0,55.345 0.655,56 1.463,56 L41.537,56 C42.345,56 43,55.345 43,55 L43,12.978 C43,12.282 42.907,12.058 42.743,11.893 L31.107,0.257 C30.942,0.093 30.718,0 30.485,0" id="Fill-34" fill="#E9E9E0" sketch:type="MSShapeGroup"></path>
            <path d="M41.537,56 L1.463,56 C0.655,56 0,55.345 0,54.537 L0,39 L43,39 L43,54.537 C43,55.345 42.345,56 41.537,56" id="Fill-103" fill="#659C35" sketch:type="MSShapeGroup"></path>
            <path d="M31,0.151 L31,12 L42.849,12 L31,0.151" id="Fill-104" fill="#D9D7CA" sketch:type="MSShapeGroup"></path>
            <path d="M10.885,53 L9.244,53 L9.244,42.924 L12.143,42.924 C12.571,42.924 12.995,42.992 13.414,43.129 C13.833,43.266 14.209,43.471 14.542,43.744 C14.875,44.018 15.144,44.348 15.349,44.735 C15.554,45.123 15.656,45.558 15.656,46.041 C15.656,46.552 15.569,47.014 15.397,47.429 C15.223,47.844 14.981,48.192 14.672,48.475 C14.362,48.757 13.988,48.976 13.551,49.131 C13.113,49.286 12.63,49.363 12.102,49.363 L10.885,49.363 L10.885,53 L10.885,53 Z M10.885,44.168 L10.885,48.16 L12.389,48.16 C12.589,48.16 12.787,48.126 12.983,48.058 C13.179,47.989 13.359,47.878 13.523,47.723 C13.688,47.567 13.819,47.352 13.92,47.073 C14.02,46.795 14.07,46.451 14.07,46.041 C14.07,45.877 14.047,45.688 14.002,45.474 C13.956,45.26 13.863,45.055 13.722,44.858 C13.58,44.662 13.382,44.498 13.127,44.366 C12.872,44.234 12.534,44.168 12.115,44.168 L10.885,44.168 L10.885,44.168 Z" id="Fill-105" fill="#FFFFFF" sketch:type="MSShapeGroup"></path>
            <path d="M24.816,42.924 L24.816,53 L23.148,53 L19.197,46.055 L19.197,53 L17.529,53 L17.529,42.924 L19.197,42.924 L23.148,49.869 L23.148,42.924 L24.816,42.924" id="Fill-106" fill="#FFFFFF" sketch:type="MSShapeGroup"></path>
            <path d="M34.66,47.805 L34.66,51.701 C34.45,51.966 34.216,52.182 33.956,52.351 C33.696,52.52 33.423,52.658 33.136,52.768 C32.849,52.877 32.552,52.954 32.247,53 C31.941,53.046 31.639,53.068 31.338,53.068 C30.736,53.068 30.183,52.959 29.677,52.74 C29.171,52.522 28.729,52.198 28.351,51.77 C27.972,51.341 27.676,50.804 27.462,50.156 C27.248,49.509 27.141,48.762 27.141,47.914 C27.141,47.066 27.248,46.321 27.462,45.679 C27.676,45.036 27.972,44.501 28.351,44.072 C28.729,43.644 29.173,43.318 29.684,43.095 C30.194,42.871 30.745,42.76 31.338,42.76 C31.885,42.76 32.395,42.851 32.869,43.033 C33.343,43.216 33.767,43.489 34.141,43.854 L33.006,44.865 C32.787,44.601 32.536,44.409 32.254,44.291 C31.971,44.173 31.68,44.113 31.379,44.113 C31.042,44.113 30.72,44.177 30.415,44.305 C30.109,44.433 29.836,44.648 29.595,44.954 C29.353,45.26 29.164,45.653 29.027,46.137 C28.891,46.62 28.817,47.212 28.809,47.914 C28.817,48.598 28.888,49.19 29.021,49.691 C29.152,50.192 29.335,50.603 29.567,50.922 C29.8,51.241 30.064,51.478 30.36,51.633 C30.656,51.788 30.969,51.865 31.297,51.865 C31.397,51.865 31.531,51.858 31.7,51.845 C31.869,51.831 32.037,51.809 32.206,51.776 C32.375,51.744 32.536,51.701 32.691,51.647 C32.846,51.592 32.96,51.515 33.033,51.414 L33.033,48.926 L31.324,48.926 L31.324,47.805 L34.66,47.805" id="Fill-107" fill="#FFFFFF" sketch:type="MSShapeGroup"></path>
            <path d="M17,14.431 C17,16.954 14.954,19 12.431,19 C9.908,19 7.862,16.954 7.862,14.431 C7.862,11.908 9.908,9.862 12.431,9.862 C14.954,9.862 17,11.908 17,14.431" id="Fill-108" fill="#F3D55B" sketch:type="MSShapeGroup"></path>
            <path d="M0,39 L43,39 L43,28 L33,18.5 L22.5,30 L17.017,24.517 L0,39" id="Fill-297" fill="#88C057" sketch:type="MSShapeGroup"></path>
        </g>
    </g>
</svg>