<?xml version="1.0" encoding="UTF-8" standalone="no"?>
<svg width="43px" height="56px" viewBox="0 0 43 56" version="1.1" xmlns="http://www.w3.org/2000/svg" xmlns:xlink="http://www.w3.org/1999/xlink" xmlns:sketch="http://www.bohemiancoding.com/sketch/ns">
    <!-- Generator: Sketch 3.2.2 (9983) - http://www.bohemiancoding.com/sketch -->
    <title>16 - PSD File (Flat)</title>
    <desc>Created with Sketch.</desc>
    <defs></defs>
    <g id="Page-1" stroke="none" stroke-width="1" fill="none" fill-rule="evenodd" sketch:type="MSPage">
        <g id="16---PSD-File-(Flat)" sketch:type="MSLayerGroup">
            <path d="M30.485,0 L1.463,0 C0.655,0 0,0.655 0,1.926 L0,55 C0,55.345 0.655,56 1.463,56 L41.537,56 C42.345,56 43,55.345 43,55 L43,12.978 C43,12.282 42.907,12.058 42.743,11.893 L31.107,0.257 C30.942,0.093 30.718,0 30.485,0" id="Fill-78" fill="#E9E9E0" sketch:type="MSShapeGroup"></path>
            <path d="M41.537,56 L1.463,56 C0.655,56 0,55.345 0,54.537 L0,39 L43,39 L43,54.537 C43,55.345 42.345,56 41.537,56" id="Fill-170" fill="#5889C4" sketch:type="MSShapeGroup"></path>
            <path d="M10.885,53 L9.244,53 L9.244,42.924 L12.143,42.924 C12.571,42.924 12.995,42.992 13.414,43.129 C13.833,43.266 14.209,43.471 14.542,43.744 C14.875,44.018 15.144,44.348 15.349,44.735 C15.554,45.123 15.656,45.558 15.656,46.041 C15.656,46.552 15.569,47.014 15.397,47.429 C15.223,47.844 14.981,48.192 14.672,48.475 C14.362,48.757 13.988,48.976 13.551,49.131 C13.113,49.286 12.63,49.363 12.102,49.363 L10.885,49.363 L10.885,53 L10.885,53 Z M10.885,44.168 L10.885,48.16 L12.389,48.16 C12.589,48.16 12.787,48.126 12.983,48.058 C13.179,47.989 13.359,47.878 13.523,47.723 C13.688,47.567 13.819,47.352 13.92,47.073 C14.02,46.795 14.07,46.451 14.07,46.041 C14.07,45.877 14.047,45.687 14.002,45.474 C13.956,45.26 13.863,45.055 13.722,44.858 C13.58,44.662 13.382,44.498 13.127,44.366 C12.872,44.234 12.534,44.168 12.115,44.168 L10.885,44.168 L10.885,44.168 Z" id="Fill-171" fill="#FFFFFF" sketch:type="MSShapeGroup"></path>
            <path d="M23.231,50.238 C23.231,50.603 23.155,50.956 23.005,51.298 C22.855,51.64 22.643,51.94 22.369,52.2 C22.096,52.46 21.758,52.667 21.357,52.822 C20.956,52.977 20.501,53.055 19.99,53.055 C19.772,53.055 19.546,53.043 19.314,53.021 C19.081,52.998 18.846,52.959 18.609,52.904 C18.372,52.85 18.147,52.774 17.933,52.679 C17.718,52.583 17.534,52.467 17.379,52.33 L17.666,51.154 C17.794,51.227 17.955,51.298 18.151,51.366 C18.347,51.435 18.55,51.498 18.76,51.558 C18.969,51.617 19.179,51.665 19.389,51.701 C19.598,51.737 19.794,51.756 19.977,51.756 C20.532,51.756 20.959,51.626 21.255,51.366 C21.551,51.106 21.699,50.722 21.699,50.211 C21.699,49.901 21.594,49.637 21.385,49.418 C21.175,49.199 20.913,49.001 20.599,48.823 C20.284,48.646 19.944,48.468 19.58,48.29 C19.215,48.112 18.874,47.902 18.555,47.661 C18.235,47.42 17.971,47.135 17.762,46.807 C17.552,46.479 17.447,46.068 17.447,45.576 C17.447,45.13 17.529,44.733 17.693,44.387 C17.857,44.04 18.078,43.746 18.356,43.505 C18.634,43.264 18.958,43.079 19.327,42.951 C19.696,42.823 20.086,42.76 20.496,42.76 C20.915,42.76 21.339,42.799 21.768,42.876 C22.196,42.953 22.542,43.079 22.807,43.252 C22.752,43.37 22.688,43.5 22.615,43.642 C22.542,43.783 22.474,43.915 22.41,44.038 C22.346,44.161 22.292,44.264 22.246,44.346 C22.2,44.428 22.173,44.474 22.164,44.482 C22.109,44.455 22.048,44.419 21.98,44.373 C21.911,44.327 21.813,44.282 21.686,44.236 C21.558,44.19 21.389,44.159 21.18,44.141 C20.97,44.122 20.701,44.127 20.373,44.154 C20.19,44.173 20.018,44.225 19.854,44.312 C19.69,44.398 19.544,44.505 19.416,44.633 C19.288,44.761 19.188,44.904 19.115,45.063 C19.042,45.223 19.006,45.376 19.006,45.521 C19.006,45.886 19.11,46.18 19.32,46.403 C19.53,46.627 19.79,46.822 20.1,46.991 C20.409,47.16 20.747,47.324 21.111,47.483 C21.476,47.643 21.815,47.837 22.13,48.065 C22.444,48.292 22.706,48.577 22.916,48.919 C23.126,49.261 23.231,49.7 23.231,50.238" id="Fill-172" fill="#FFFFFF" sketch:type="MSShapeGroup"></path>
            <path d="M33.129,47.682 C33.129,48.511 33.04,49.22 32.862,49.808 C32.685,50.396 32.459,50.888 32.186,51.284 C31.912,51.681 31.605,51.993 31.263,52.221 C30.921,52.448 30.59,52.619 30.272,52.733 C29.952,52.848 29.661,52.92 29.397,52.952 C29.132,52.984 28.936,53 28.809,53 L24.994,53 L24.994,42.924 L28.029,42.924 C28.877,42.924 29.622,43.059 30.265,43.327 C30.907,43.596 31.44,43.954 31.864,44.4 C32.288,44.847 32.605,45.356 32.815,45.925 C33.024,46.494 33.129,47.08 33.129,47.682 L33.129,47.682 Z M28.262,51.797 C29.374,51.797 30.176,51.441 30.668,50.731 C31.16,50.02 31.406,48.989 31.406,47.641 C31.406,47.222 31.356,46.807 31.256,46.396 C31.155,45.986 30.962,45.615 30.675,45.282 C30.388,44.949 29.998,44.681 29.506,44.476 C29.014,44.271 28.376,44.168 27.592,44.168 L26.635,44.168 L26.635,51.797 L28.262,51.797 L28.262,51.797 Z" id="Fill-173" fill="#FFFFFF" sketch:type="MSShapeGroup"></path>
            <path d="M32.394,11.163 C31.93,10.862 31.312,10.992 31.009,11.453 C29.576,13.649 27.03,16.617 25.819,17.829 L23.031,20.617 L20.202,17.788 L22.99,15 C24.762,13.229 29.261,9.558 31.106,8.898 C31.147,8.892 31.198,8.883 31.219,8.878 C31.74,8.762 32.045,8.261 31.954,7.735 C31.861,7.21 31.337,6.851 30.811,6.921 L30.528,6.982 C28.089,7.795 23.071,12.09 21.576,13.586 L14.391,20.771 C14.296,20.766 14.203,20.756 14.106,20.756 C11.136,20.756 8.643,22.881 8.124,25.772 L8.016,25.845 L7.996,26.381 C7.962,27.323 7.694,30.433 5.653,30.927 C5.136,31.057 4.795,31.552 4.86,32.08 L5.02,33 L12.02,33 L14.106,32.97 C17.474,32.97 20.213,30.23 20.213,26.863 C20.213,26.67 20.202,26.479 20.184,26.291 L27.233,19.243 C28.538,17.937 31.158,14.885 32.684,12.547 C32.986,12.085 32.856,11.465 32.394,11.163 L32.394,11.163 Z M14.106,30.97 L10.367,30.97 L10.382,31 L8.721,31 C9.608,29.659 9.882,27.963 9.965,26.955 L10.047,26.451 C10.26,24.345 12.005,22.756 14.106,22.756 C14.228,22.756 14.342,22.782 14.461,22.792 L14.627,22.813 C15.673,22.947 16.583,23.468 17.227,24.225 C17.285,24.293 17.345,24.36 17.399,24.432 C17.48,24.542 17.554,24.659 17.625,24.777 C17.675,24.862 17.722,24.949 17.766,25.038 C17.829,25.164 17.89,25.291 17.94,25.425 C17.97,25.505 17.991,25.589 18.017,25.672 C18.061,25.819 18.108,25.966 18.136,26.121 L18.141,26.146 C18.182,26.38 18.213,26.618 18.213,26.863 C18.213,29.127 16.371,30.97 14.106,30.97 L14.106,30.97 Z M19.016,23.247 C19.01,23.238 19.003,23.229 18.997,23.221 C18.391,22.41 17.592,21.756 16.665,21.326 L18.788,19.202 L21.617,22.031 L19.546,24.101 C19.393,23.801 19.215,23.516 19.016,23.247 L19.016,23.247 Z" id="Fill-299" fill="#C8BDB8" sketch:type="MSShapeGroup"></path>
            <path d="M31,0.151 L31,12 L42.849,12 L31,0.151" id="Fill-300" fill="#D9D7CA" sketch:type="MSShapeGroup"></path>
        </g>
    </g>
</svg>