<?xml version="1.0" encoding="UTF-8" standalone="no"?>
<svg width="43px" height="56px" viewBox="0 0 43 56" version="1.1" xmlns="http://www.w3.org/2000/svg" xmlns:xlink="http://www.w3.org/1999/xlink" xmlns:sketch="http://www.bohemiancoding.com/sketch/ns">
    <!-- Generator: Sketch 3.2.2 (9983) - http://www.bohemiancoding.com/sketch -->
    <title>14 - SVG File (Flat)</title>
    <desc>Created with Sketch.</desc>
    <defs></defs>
    <g id="Page-1" stroke="none" stroke-width="1" fill="none" fill-rule="evenodd" sketch:type="MSPage">
        <g id="14---SVG-File-(Flat)" sketch:type="MSLayerGroup">
            <path d="M30.485,0 L1.463,0 C0.655,0 0,0.655 0,1.926 L0,55 C0,55.345 0.655,56 1.463,56 L41.537,56 C42.345,56 43,55.345 43,55 L43,12.978 C43,12.282 42.907,12.058 42.743,11.893 L31.107,0.257 C30.942,0.093 30.718,0 30.485,0" id="Fill-86" fill="#E9E9E0" sketch:type="MSShapeGroup"></path>
            <path d="M31,0.151 L31,12 L42.849,12 L31,0.151" id="Fill-87" fill="#D9D7CA" sketch:type="MSShapeGroup"></path>
            <path d="M41.537,56 L1.463,56 C0.655,56 0,55.345 0,54.537 L0,39 L43,39 L43,54.537 C43,55.345 42.345,56 41.537,56" id="Fill-178" fill="#E57E25" sketch:type="MSShapeGroup"></path>
            <path d="M14.959,50.238 C14.959,50.603 14.884,50.956 14.733,51.298 C14.583,51.64 14.371,51.94 14.098,52.2 C13.824,52.46 13.487,52.667 13.086,52.822 C12.685,52.977 12.23,53.055 11.719,53.055 C11.5,53.055 11.274,53.043 11.042,53.021 C10.81,52.998 10.575,52.959 10.338,52.904 C10.101,52.85 9.875,52.774 9.661,52.679 C9.447,52.583 9.263,52.467 9.107,52.33 L9.395,51.154 C9.523,51.227 9.684,51.298 9.88,51.366 C10.076,51.435 10.278,51.498 10.488,51.558 C10.698,51.617 10.907,51.665 11.117,51.701 C11.327,51.737 11.523,51.756 11.705,51.756 C12.261,51.756 12.688,51.626 12.983,51.366 C13.279,51.106 13.428,50.722 13.428,50.211 C13.428,49.901 13.323,49.637 13.113,49.418 C12.903,49.199 12.642,49.001 12.327,48.823 C12.013,48.646 11.673,48.468 11.309,48.29 C10.944,48.112 10.603,47.902 10.283,47.661 C9.964,47.42 9.7,47.135 9.49,46.807 C9.28,46.479 9.176,46.068 9.176,45.576 C9.176,45.13 9.258,44.733 9.422,44.387 C9.586,44.04 9.807,43.746 10.085,43.505 C10.363,43.264 10.687,43.079 11.056,42.951 C11.425,42.823 11.815,42.76 12.225,42.76 C12.644,42.76 13.067,42.799 13.496,42.876 C13.925,42.953 14.271,43.079 14.535,43.252 C14.481,43.37 14.417,43.5 14.344,43.642 C14.271,43.783 14.202,43.915 14.139,44.038 C14.075,44.161 14.021,44.264 13.975,44.346 C13.929,44.428 13.901,44.474 13.893,44.482 C13.838,44.455 13.776,44.419 13.708,44.373 C13.64,44.327 13.542,44.282 13.414,44.236 C13.286,44.19 13.118,44.159 12.908,44.141 C12.698,44.122 12.43,44.127 12.102,44.154 C11.919,44.173 11.746,44.225 11.582,44.312 C11.418,44.398 11.273,44.505 11.145,44.633 C11.017,44.761 10.917,44.904 10.844,45.063 C10.771,45.223 10.734,45.376 10.734,45.521 C10.734,45.886 10.839,46.18 11.049,46.403 C11.259,46.627 11.519,46.822 11.828,46.991 C12.138,47.16 12.476,47.324 12.84,47.483 C13.204,47.643 13.544,47.837 13.858,48.065 C14.173,48.292 14.435,48.577 14.645,48.919 C14.855,49.261 14.959,49.7 14.959,50.238" id="Fill-179" fill="#FFFFFF" sketch:type="MSShapeGroup"></path>
            <path d="M19.361,53.055 L16.231,42.924 L18.104,42.924 L20.441,51.619 L22.916,42.924 L24.775,42.924 L21.494,53.055 L19.361,53.055" id="Fill-180" fill="#FFFFFF" sketch:type="MSShapeGroup"></path>
            <path d="M34.168,47.805 L34.168,51.701 C33.958,51.966 33.724,52.182 33.464,52.351 C33.204,52.519 32.931,52.658 32.644,52.768 C32.356,52.877 32.061,52.954 31.755,53 C31.449,53.046 31.147,53.068 30.846,53.068 C30.244,53.068 29.69,52.959 29.185,52.74 C28.679,52.522 28.236,52.198 27.858,51.769 C27.481,51.341 27.184,50.804 26.97,50.156 C26.756,49.509 26.648,48.762 26.648,47.914 C26.648,47.066 26.756,46.321 26.97,45.679 C27.184,45.036 27.481,44.501 27.858,44.072 C28.236,43.644 28.681,43.318 29.191,43.095 C29.702,42.871 30.253,42.76 30.846,42.76 C31.393,42.76 31.903,42.851 32.377,43.033 C32.851,43.216 33.274,43.489 33.648,43.854 L32.514,44.865 C32.295,44.601 32.044,44.409 31.762,44.291 C31.479,44.173 31.188,44.113 30.887,44.113 C30.55,44.113 30.229,44.177 29.923,44.305 C29.617,44.433 29.344,44.648 29.103,44.954 C28.861,45.26 28.672,45.653 28.535,46.137 C28.398,46.62 28.325,47.212 28.316,47.914 C28.325,48.598 28.397,49.19 28.528,49.691 C28.66,50.192 28.843,50.603 29.075,50.922 C29.308,51.241 29.572,51.477 29.868,51.633 C30.164,51.788 30.477,51.865 30.805,51.865 C30.905,51.865 31.039,51.858 31.208,51.845 C31.377,51.831 31.545,51.809 31.714,51.776 C31.883,51.744 32.044,51.701 32.199,51.646 C32.355,51.592 32.468,51.515 32.541,51.414 L32.541,48.926 L30.832,48.926 L30.832,47.805 L34.168,47.805" id="Fill-181" fill="#FFFFFF" sketch:type="MSShapeGroup"></path>
            <path d="M39,22 L39,16 L33,16 L33,18 L27,18 L27,14 L17,14 L17,18 L11,18 L11,16 L5,16 L5,22 L11,22 L11,20 L14.548,20 C9.982,22.636 7,27.588 7,33 C7,33.552 7.447,34 8,34 C8.553,34 9,33.552 9,33 C9,27.754 12.229,23.002 17,21.005 L17,24 L27,24 L27,21.005 C31.772,23.002 35,27.754 35,33 C35,33.552 35.447,34 36,34 C36.553,34 37,33.552 37,33 C37,27.588 34.018,22.636 29.452,20 L33,20 L33,22 L39,22 L39,22 Z M7,18 L9,18 L9,20 L7,20 L7,18 Z M19,16 L25,16 L25,22 L19,22 L19,16 Z M35,18 L37,18 L37,20 L35,20 L35,18 Z" id="Fill-182" fill="#C8BDB8" sketch:type="MSShapeGroup"></path>
        </g>
    </g>
</svg>