<?xml version="1.0" encoding="UTF-8" standalone="no"?>
<svg width="43px" height="56px" viewBox="0 0 43 56" version="1.1" xmlns="http://www.w3.org/2000/svg" xmlns:xlink="http://www.w3.org/1999/xlink" xmlns:sketch="http://www.bohemiancoding.com/sketch/ns">
    <!-- Generator: Sketch 3.2.2 (9983) - http://www.bohemiancoding.com/sketch -->
    <title>24 - XML File (Flat)</title>
    <desc>Created with Sketch.</desc>
    <defs></defs>
    <g id="Page-1" stroke="none" stroke-width="1" fill="none" fill-rule="evenodd" sketch:type="MSPage">
        <g id="24---XML-File-(Flat)" sketch:type="MSLayerGroup">
            <path d="M30.485,0 L1.463,0 C0.655,0 0,0.655 0,1.926 L0,55 C0,55.345 0.655,56 1.463,56 L41.537,56 C42.345,56 43,55.345 43,55 L43,12.978 C43,12.282 42.907,12.058 42.743,11.893 L31.107,0.257 C30.942,0.093 30.718,0 30.485,0" id="Fill-24" fill="#E9E9E0" sketch:type="MSShapeGroup"></path>
            <path d="M31,0.151 L31,12 L42.849,12 L31,0.151" id="Fill-25" fill="#D9D7CA" sketch:type="MSShapeGroup"></path>
            <path d="M41.537,56 L1.463,56 C0.655,56 0,55.345 0,54.537 L0,39 L43,39 L43,54.537 C43,55.345 42.345,56 41.537,56" id="Fill-118" fill="#F29C1F" sketch:type="MSShapeGroup"></path>
            <path d="M12.879,48.105 L15.436,53 L13.535,53 L11.936,49.199 L11.799,49.199 L10.076,53 L8.176,53 L10.732,48.105 L8.012,42.924 L9.885,42.924 L11.662,47.025 L11.799,47.025 L13.727,42.924 L15.6,42.924 L12.879,48.105" id="Fill-119" fill="#FFFFFF" sketch:type="MSShapeGroup"></path>
            <path d="M25.498,42.924 L27.166,42.924 L27.166,53 L25.498,53 L25.498,46.068 L23.242,51.674 L21.793,51.674 L19.523,46.068 L19.523,53 L17.856,53 L17.856,42.924 L19.523,42.924 L22.518,49.815 L25.498,42.924" id="Fill-120" fill="#FFFFFF" sketch:type="MSShapeGroup"></path>
            <path d="M31.363,42.924 L31.363,51.756 L35.998,51.756 L35.998,53 L29.695,53 L29.695,42.924 L31.363,42.924" id="Fill-121" fill="#FFFFFF" sketch:type="MSShapeGroup"></path>
            <path d="M9,24 C8.744,24 8.488,23.902 8.293,23.707 C7.902,23.316 7.902,22.684 8.293,22.293 L14.293,16.293 C14.684,15.902 15.316,15.902 15.707,16.293 C16.098,16.684 16.098,17.316 15.707,17.707 L9.707,23.707 C9.512,23.902 9.256,24 9,24" id="Fill-122" fill="#F29C1F" sketch:type="MSShapeGroup"></path>
            <path d="M15,30 C14.744,30 14.488,29.902 14.293,29.707 L8.293,23.707 C7.902,23.316 7.902,22.684 8.293,22.293 C8.684,21.902 9.316,21.902 9.707,22.293 L15.707,28.293 C16.098,28.684 16.098,29.316 15.707,29.707 C15.512,29.902 15.256,30 15,30" id="Fill-123" fill="#F29C1F" sketch:type="MSShapeGroup"></path>
            <path d="M27,30 C26.744,30 26.488,29.902 26.293,29.707 C25.902,29.316 25.902,28.684 26.293,28.293 L32.293,22.293 C32.684,21.902 33.316,21.902 33.707,22.293 C34.098,22.684 34.098,23.316 33.707,23.707 L27.707,29.707 C27.512,29.902 27.256,30 27,30" id="Fill-124" fill="#F29C1F" sketch:type="MSShapeGroup"></path>
            <path d="M33,24 C32.744,24 32.488,23.902 32.293,23.707 L26.293,17.707 C25.902,17.316 25.902,16.684 26.293,16.293 C26.684,15.902 27.316,15.902 27.707,16.293 L33.707,22.293 C34.098,22.684 34.098,23.316 33.707,23.707 C33.512,23.902 33.256,24 33,24" id="Fill-125" fill="#F29C1F" sketch:type="MSShapeGroup"></path>
            <path d="M18,32 C17.89,32 17.777,31.982 17.667,31.943 C17.147,31.759 16.873,31.188 17.057,30.667 L23.057,13.667 C23.241,13.146 23.81,12.872 24.333,13.057 C24.854,13.241 25.127,13.812 24.943,14.333 L18.943,31.333 C18.798,31.744 18.412,32 18,32" id="Fill-126" fill="#F29C1F" sketch:type="MSShapeGroup"></path>
        </g>
    </g>
</svg>