<?xml version="1.0" encoding="UTF-8" standalone="no"?>
<svg width="43px" height="56px" viewBox="0 0 43 56" version="1.1" xmlns="http://www.w3.org/2000/svg" xmlns:xlink="http://www.w3.org/1999/xlink" xmlns:sketch="http://www.bohemiancoding.com/sketch/ns">
    <!-- Generator: Sketch 3.2.2 (9983) - http://www.bohemiancoding.com/sketch -->
    <title>8 - ZIP File (Flat)</title>
    <desc>Created with Sketch.</desc>
    <defs></defs>
    <g id="Page-1" stroke="none" stroke-width="1" fill="none" fill-rule="evenodd" sketch:type="MSPage">
        <g id="8---ZIP-File-(Flat)" sketch:type="MSLayerGroup">
            <path d="M30.485,0 L1.463,0 C0.655,0 0,0.655 0,1.926 L0,55 C0,55.345 0.655,56 1.463,56 L41.537,56 C42.345,56 43,55.345 43,55 L43,12.978 C43,12.282 42.907,12.058 42.743,11.893 L31.107,0.257 C30.942,0.093 30.718,0 30.485,0" id="Fill-5" fill="#E9E9E0" sketch:type="MSShapeGroup"></path>
            <path d="M31,0.151 L31,12 L42.849,12 L31,0.151" id="Fill-6" fill="#D9D7CA" sketch:type="MSShapeGroup"></path>
            <path d="M41.537,56 L1.463,56 C0.655,56 0,55.345 0,54.537 L0,39 L43,39 L43,54.537 C43,55.345 42.345,56 41.537,56" id="Fill-223" fill="#556080" sketch:type="MSShapeGroup"></path>
            <path d="M18.766,42.924 L18.766,44.25 L13.967,51.455 L13.693,51.674 L18.766,51.674 L18.766,53 L12.066,53 L12.066,51.674 L16.865,44.469 L17.152,44.25 L12.066,44.25 L12.066,42.924 L18.766,42.924" id="Fill-224" fill="#FFFFFF" sketch:type="MSShapeGroup"></path>
            <path d="M21.104,42.924 L22.772,42.924 L22.772,53 L21.104,53 L21.104,42.924 Z" id="Fill-225" fill="#FFFFFF" sketch:type="MSShapeGroup"></path>
            <path d="M26.914,53 L25.273,53 L25.273,42.924 L28.172,42.924 C28.6,42.924 29.024,42.992 29.443,43.129 C29.862,43.266 30.238,43.471 30.571,43.744 C30.904,44.018 31.173,44.348 31.378,44.735 C31.583,45.123 31.686,45.558 31.686,46.041 C31.686,46.552 31.599,47.014 31.426,47.429 C31.252,47.844 31.011,48.192 30.701,48.475 C30.391,48.757 30.018,48.976 29.58,49.131 C29.143,49.286 28.659,49.363 28.131,49.363 L26.914,49.363 L26.914,53 L26.914,53 Z M26.914,44.168 L26.914,48.16 L28.418,48.16 C28.618,48.16 28.816,48.126 29.013,48.058 C29.209,47.989 29.389,47.878 29.553,47.723 C29.717,47.567 29.849,47.352 29.949,47.073 C30.049,46.795 30.1,46.451 30.1,46.041 C30.1,45.877 30.077,45.687 30.031,45.474 C29.985,45.26 29.892,45.055 29.751,44.858 C29.609,44.662 29.411,44.498 29.156,44.366 C28.901,44.234 28.564,44.168 28.145,44.168 L26.914,44.168 L26.914,44.168 Z" id="Fill-226" fill="#FFFFFF" sketch:type="MSShapeGroup"></path>
            <path d="M22,24 L22,22 L24,22 L24,20 L22,20 L22,18 L24,18 L24,16 L22,16 L22,14 L24,14 L24,12 L22,12 L22,10 L24,10 L24,8 L22,8 L22,6 L20,6 L20,8 L18,8 L18,10 L20,10 L20,12 L18,12 L18,14 L20,14 L20,16 L18,16 L18,18 L20,18 L20,20 L18,20 L18,22 L20,22 L20,24 L16,24 L16,29 C16,31.757 18.243,34 21,34 C23.757,34 26,31.757 26,29 L26,24 L22,24 L22,24 Z M24,29 C24,30.654 22.654,32 21,32 C19.346,32 18,30.654 18,29 L18,26 L24,26 L24,29 L24,29 Z" id="Fill-257" fill="#C8BDB8" sketch:type="MSShapeGroup"></path>
            <path d="M20,30 L22,30 C22.552,30 23,29.553 23,29 C23,28.447 22.552,28 22,28 L20,28 C19.448,28 19,28.447 19,29 C19,29.553 19.448,30 20,30" id="Fill-258" fill="#C8BDB8" sketch:type="MSShapeGroup"></path>
        </g>
    </g>
</svg>