<?xml version="1.0" encoding="UTF-8" standalone="no"?>
<svg width="56px" height="56px" viewBox="0 0 56 56" version="1.1" xmlns="http://www.w3.org/2000/svg" xmlns:xlink="http://www.w3.org/1999/xlink" xmlns:sketch="http://www.bohemiancoding.com/sketch/ns">
    <!-- Generator: Sketch 3.2.2 (9983) - http://www.bohemiancoding.com/sketch -->
    <title>98 - 8 Ball (Flat)</title>
    <desc>Created with Sketch.</desc>
    <defs></defs>
    <g id="Page-1" stroke="none" stroke-width="1" fill="none" fill-rule="evenodd" sketch:type="MSPage">
        <g id="98---8-Ball-(Flat)" sketch:type="MSLayerGroup">
            <path d="M56,28 C56,43.464 43.464,56 28,56 C12.536,56 0,43.464 0,28 C0,12.536 12.536,0 28,0 C43.464,0 56,12.536 56,28" id="Fill-475" fill="#38454F" sketch:type="MSShapeGroup"></path>
            <path d="M38,23.5 C38,32.06 30.837,39 22,39 C13.163,39 6,32.06 6,23.5 C6,14.94 13.163,8 22,8 C30.837,8 38,14.94 38,23.5" id="Fill-479" fill="#ECF0F1" sketch:type="MSShapeGroup"></path>
            <path d="M22.5,24 L19.5,24 C16.467,24 14,21.533 14,18.5 C14,15.467 16.467,13 19.5,13 L22.5,13 C25.533,13 28,15.467 28,18.5 C28,21.533 25.533,24 22.5,24 L22.5,24 Z M19.5,15 C17.57,15 16,16.57 16,18.5 C16,20.43 17.57,22 19.5,22 L22.5,22 C24.43,22 26,20.43 26,18.5 C26,16.57 24.43,15 22.5,15 L19.5,15 L19.5,15 Z" id="Fill-480" fill="#38454F" sketch:type="MSShapeGroup"></path>
            <path d="M22.5,33 L19.5,33 C16.467,33 14,30.533 14,27.5 C14,24.467 16.467,22 19.5,22 L22.5,22 C25.533,22 28,24.467 28,27.5 C28,30.533 25.533,33 22.5,33 L22.5,33 Z M19.5,24 C17.57,24 16,25.57 16,27.5 C16,29.43 17.57,31 19.5,31 L22.5,31 C24.43,31 26,29.43 26,27.5 C26,25.57 24.43,24 22.5,24 L19.5,24 L19.5,24 Z" id="Fill-481" fill="#38454F" sketch:type="MSShapeGroup"></path>
        </g>
    </g>
</svg>