<?xml version="1.0" encoding="UTF-8" standalone="no"?>
<svg width="56px" height="57px" viewBox="0 0 56 57" version="1.1" xmlns="http://www.w3.org/2000/svg" xmlns:xlink="http://www.w3.org/1999/xlink" xmlns:sketch="http://www.bohemiancoding.com/sketch/ns">
    <!-- Generator: Sketch 3.2.2 (9983) - http://www.bohemiancoding.com/sketch -->
    <title>78 - Badminton (Flat)</title>
    <desc>Created with Sketch.</desc>
    <defs></defs>
    <g id="Page-1" stroke="none" stroke-width="1" fill="none" fill-rule="evenodd" sketch:type="MSPage">
        <g id="78---Badminton-(Flat)" sketch:type="MSLayerGroup">
            <path d="M48,53 L45,53 L45,45 L48,45 C50.209,45 52,46.791 52,49 C52,51.209 50.209,53 48,53" id="Fill-136" fill="#38454F" sketch:type="MSShapeGroup"></path>
            <path d="M33.969,46.161 L45,48 L45,45 L33.301,41.101 C33.114,41.038 32.908,41.077 32.756,41.203 L30,43.5 L32.229,45.357 L28.586,49 L32.229,52.643 L30,54.5 L32.768,56.807 C32.912,56.927 33.108,56.964 33.286,56.905 L45,53 L45,50 L33.969,51.839 C33.936,51.64 33.86,51.446 33.707,51.293 L31.414,49 L33.707,46.707 C33.86,46.554 33.936,46.36 33.969,46.161" id="Fill-137" fill="#E6E7E8" sketch:type="MSShapeGroup"></path>
            <path d="M2.611,54.399 C2.559,54.387 2.503,54.389 2.453,54.37 C2.503,54.389 2.559,54.387 2.611,54.399" id="Fill-982" fill="#E6E7E8" sketch:type="MSShapeGroup"></path>
            <path d="M3.273,54.375 C3.158,54.408 3.043,54.442 2.927,54.445 C3.043,54.442 3.157,54.408 3.273,54.375" id="Fill-983" fill="#E6E7E8" sketch:type="MSShapeGroup"></path>
            <path d="M3.919,54.014 C3.778,54.155 3.616,54.259 3.447,54.332 C3.616,54.259 3.778,54.155 3.919,54.014" id="Fill-984" fill="#E6E7E8" sketch:type="MSShapeGroup"></path>
            <path d="M46.916,30.282 C50.771,26.427 53.234,21.674 53.853,16.899 C54.446,12.317 53.252,8.273 50.489,5.511 C48.193,3.214 45.027,2 41.335,2 C35.902,2 30.204,4.582 25.702,9.084 C20.558,14.228 17.908,21.083 18.785,26.976 C19.258,30.16 18.621,33.309 16.991,35.844 L16.757,36.207 L16.605,36.359 C16.393,36.571 16.293,37.036 16.353,37.196 L16.983,38.349 L18.149,38.986 C18.148,38.986 18.148,38.986 18.149,38.986 C18.153,38.986 18.192,38.995 18.263,38.995 C18.542,38.995 18.844,38.86 18.975,38.729 L19.121,38.583 L19.294,38.47 C21.075,37.305 23.155,36.689 25.311,36.689 C26.175,36.689 27.043,36.789 27.89,36.986 C28.966,37.237 30.109,37.364 31.287,37.364 C36.718,37.364 42.415,34.782 46.916,30.282" id="Fill-985" fill="#E6E7E8" sketch:type="MSShapeGroup"></path>
            <path d="M2.894,54.452 C2.905,54.452 2.916,54.446 2.927,54.445 C2.818,54.448 2.715,54.423 2.611,54.399 C2.705,54.421 2.796,54.452 2.894,54.452" id="Fill-986" fill="#38454F" sketch:type="MSShapeGroup"></path>
            <path d="M3.447,54.332 C3.39,54.357 3.331,54.358 3.273,54.375 C3.331,54.358 3.39,54.357 3.447,54.332" id="Fill-987" fill="#38454F" sketch:type="MSShapeGroup"></path>
            <path d="M2.453,54.37 C2.302,54.313 2.161,54.228 2.042,54.109 C2.161,54.228 2.302,54.313 2.453,54.37" id="Fill-988" fill="#38454F" sketch:type="MSShapeGroup"></path>
            <path d="M33.737,39.211 C33.884,39.193 34.031,39.171 34.178,39.149 C34.458,39.108 34.739,39.059 35.02,39.006 C35.161,38.979 35.301,38.954 35.442,38.924 C35.774,38.854 36.107,38.774 36.44,38.687 C36.525,38.665 36.611,38.647 36.696,38.624 C37.113,38.51 37.531,38.382 37.948,38.243 C38.054,38.207 38.16,38.166 38.266,38.129 C38.578,38.02 38.89,37.906 39.201,37.782 C39.344,37.725 39.487,37.665 39.631,37.604 C39.911,37.487 40.19,37.364 40.468,37.235 C40.611,37.169 40.754,37.103 40.897,37.034 C41.199,36.887 41.5,36.732 41.8,36.571 C41.909,36.513 42.02,36.458 42.129,36.397 C42.535,36.172 42.939,35.936 43.339,35.687 C43.409,35.643 43.478,35.594 43.548,35.55 C43.876,35.341 44.202,35.124 44.525,34.899 C44.655,34.807 44.785,34.711 44.915,34.617 C45.179,34.425 45.441,34.228 45.701,34.025 C45.837,33.919 45.973,33.812 46.108,33.702 C46.372,33.488 46.632,33.267 46.891,33.041 C47.008,32.939 47.125,32.84 47.241,32.736 C47.609,32.404 47.973,32.063 48.33,31.707 C56.943,23.094 58.543,10.746 51.904,4.107 C51.519,3.723 51.112,3.373 50.691,3.044 C50.555,2.937 50.412,2.844 50.272,2.743 C49.978,2.531 49.679,2.326 49.369,2.139 C49.2,2.036 49.027,1.941 48.854,1.846 C48.554,1.682 48.249,1.53 47.937,1.388 C47.758,1.307 47.579,1.225 47.396,1.151 C47.057,1.014 46.71,0.894 46.359,0.782 C46.198,0.73 46.04,0.671 45.876,0.625 C45.361,0.479 44.837,0.354 44.301,0.262 C44.267,0.256 44.232,0.254 44.198,0.248 C43.693,0.164 43.18,0.104 42.66,0.066 C42.479,0.052 42.295,0.051 42.112,0.043 C41.699,0.025 41.284,0.014 40.864,0.024 C40.762,0.027 40.661,0.029 40.558,0.033 C40.025,0.055 39.487,0.098 38.946,0.165 C38.851,0.177 38.755,0.192 38.659,0.206 C38.095,0.284 37.528,0.379 36.959,0.505 C36.949,0.507 36.939,0.51 36.929,0.513 C36.364,0.639 35.797,0.795 35.232,0.969 C35.142,0.996 35.052,1.021 34.963,1.05 C34.413,1.226 33.865,1.425 33.319,1.645 C33.215,1.687 33.111,1.73 33.007,1.774 C32.455,2.005 31.905,2.254 31.36,2.529 C31.297,2.561 31.235,2.596 31.172,2.629 C30.64,2.903 30.113,3.198 29.591,3.514 C29.533,3.549 29.475,3.581 29.418,3.616 C28.884,3.945 28.359,4.3 27.839,4.672 C27.741,4.743 27.643,4.813 27.545,4.885 C27.036,5.259 26.535,5.654 26.043,6.071 C25.959,6.142 25.876,6.216 25.793,6.289 C25.281,6.732 24.777,7.192 24.288,7.681 C18.485,13.483 15.868,20.971 16.807,27.281 C17.195,29.89 16.736,32.554 15.308,34.773 L15.191,34.956 C14.418,35.728 14.086,37.133 14.566,38.092 L17.249,40.775 C17.377,40.839 17.512,40.89 17.654,40.926 C17.702,40.939 17.752,40.946 17.801,40.955 C17.922,40.978 18.046,40.992 18.172,40.996 C18.223,40.998 18.274,41.001 18.326,41 C18.495,40.996 18.665,40.981 18.833,40.949 C18.839,40.948 18.845,40.948 18.851,40.946 C19.025,40.911 19.196,40.858 19.363,40.795 C19.412,40.776 19.458,40.754 19.506,40.733 C19.627,40.681 19.743,40.621 19.855,40.555 C19.9,40.528 19.945,40.503 19.987,40.474 C20.132,40.378 20.27,40.273 20.389,40.154 C20.719,39.938 21.064,39.755 21.414,39.587 C21.511,39.541 21.607,39.499 21.705,39.456 C21.998,39.329 22.296,39.217 22.6,39.122 C22.671,39.1 22.74,39.072 22.811,39.052 C23.178,38.947 23.551,38.868 23.929,38.81 C24.02,38.796 24.113,38.789 24.205,38.778 C24.51,38.741 24.816,38.719 25.124,38.713 C25.187,38.712 25.249,38.7 25.311,38.7 C25.355,38.7 25.399,38.707 25.443,38.707 C25.668,38.71 25.893,38.726 26.119,38.746 C26.227,38.755 26.335,38.759 26.443,38.772 C26.775,38.813 27.107,38.868 27.436,38.945 C27.986,39.073 28.55,39.161 29.12,39.232 C29.26,39.249 29.401,39.265 29.542,39.279 C30.114,39.335 30.692,39.374 31.279,39.374 C31.681,39.374 32.086,39.358 32.494,39.333 C32.619,39.325 32.745,39.311 32.871,39.301 C33.158,39.276 33.447,39.248 33.737,39.211 L33.737,39.211 Z M25.311,36.7 C23.155,36.7 21.075,37.315 19.294,38.48 L19.121,38.593 L18.975,38.74 C18.844,38.871 18.542,39.006 18.263,39.006 C18.192,39.006 18.153,38.997 18.149,38.997 C18.148,38.997 18.148,38.997 18.149,38.997 L16.983,38.36 L16.353,37.207 C16.293,37.047 16.393,36.582 16.605,36.37 L16.757,36.218 L16.873,36.038 L16.991,35.855 C18.621,33.32 19.258,30.17 18.785,26.987 C17.908,21.094 20.558,14.239 25.702,9.095 C30.204,4.593 35.902,2.011 41.335,2.011 C45.027,2.011 48.193,3.225 50.489,5.521 C53.252,8.284 54.446,12.328 53.853,16.91 C53.234,21.685 50.771,26.437 46.916,30.292 C42.415,34.793 36.718,37.374 31.287,37.374 C30.109,37.374 28.966,37.247 27.89,36.997 C27.043,36.8 26.175,36.7 25.311,36.7 L25.311,36.7 Z" id="Fill-989" fill="#38454F" sketch:type="MSShapeGroup"></path>
            <path d="M17.249,40.764 L14.566,38.081 C14.576,38.101 14.581,38.124 14.592,38.143 L6.125,46.61 L8.724,49.209 L17.191,40.742 C17.209,40.752 17.231,40.755 17.249,40.764" id="Fill-990" fill="#8697CB" sketch:type="MSShapeGroup"></path>
            <path d="M7.88,44.855 L1.226,51.509 C0.733,52.002 0.733,52.8 1.226,53.292 L2.042,54.109 C2.534,54.601 3.332,54.601 3.825,54.109 L10.479,47.454 L7.88,44.855" id="Fill-991" fill="#38454F" sketch:type="MSShapeGroup"></path>
            <path d="M37.624,22 L33.624,22 L33.624,20 L34.957,20 C35.51,20 35.957,19.552 35.957,19 C35.957,18.448 35.51,18 34.957,18 L33.624,18 L33.624,14 C33.624,13.448 33.176,13 32.624,13 C32.072,13 31.624,13.448 31.624,14 L31.624,18 L29.624,18 L29.624,15.667 C29.624,15.114 29.176,14.667 28.624,14.667 C28.072,14.667 27.624,15.114 27.624,15.667 L27.624,18 L23.624,18 C23.072,18 22.624,18.448 22.624,19 C22.624,19.552 23.072,20 23.624,20 L27.624,20 L27.624,22 L25.624,22 C25.072,22 24.624,22.448 24.624,23 C24.624,23.552 25.072,24 25.624,24 L27.624,24 L27.624,27 C27.624,27.552 28.072,28 28.624,28 C29.176,28 29.624,27.552 29.624,27 L29.624,24 L31.624,24 L31.624,26 C31.624,26.552 32.072,27 32.624,27 C33.176,27 33.624,26.552 33.624,26 L33.624,24 L37.624,24 C38.176,24 38.624,23.552 38.624,23 C38.624,22.448 38.176,22 37.624,22 L37.624,22 Z M29.624,20 L31.624,20 L31.624,22 L29.624,22 L29.624,20 Z" id="Fill-992" fill="#FFFFFF" sketch:type="MSShapeGroup"></path>
            <path d="M24,36 C21.794,36 20,33.757 20,31 C20,30.448 20.448,30 21,30 C21.552,30 22,30.448 22,31 C22,32.626 22.916,34 24,34 C24.552,34 25,34.448 25,35 C25,35.552 24.552,36 24,36" id="Fill-993" fill="#FFFFFF" sketch:type="MSShapeGroup"></path>
            <path d="M45,48 L33.969,46.161 C33.936,46.36 33.86,46.554 33.707,46.707 L31.414,49 L33.707,51.293 C33.86,51.446 33.936,51.64 33.969,51.839 L45,50 L45,48" id="Fill-994" fill="#FFFFFF" sketch:type="MSShapeGroup"></path>
        </g>
    </g>
</svg>