<?xml version="1.0" encoding="UTF-8" standalone="no"?>
<svg width="43px" height="57px" viewBox="0 0 43 57" version="1.1" xmlns="http://www.w3.org/2000/svg" xmlns:xlink="http://www.w3.org/1999/xlink" xmlns:sketch="http://www.bohemiancoding.com/sketch/ns">
    <!-- Generator: Sketch 3.2.2 (9983) - http://www.bohemiancoding.com/sketch -->
    <title>19 - Ballet (Flat)</title>
    <desc>Created with Sketch.</desc>
    <defs></defs>
    <g id="Page-1" stroke="none" stroke-width="1" fill="none" fill-rule="evenodd" sketch:type="MSPage">
        <g id="19---Ballet-(Flat)" sketch:type="MSLayerGroup" transform="translate(-1.000000, 0.000000)">
            <path d="M22.382,0 C22.191,0 22.035,0.139 22.001,0.326 C21.788,1.504 20.046,6.072 7.001,18.908 C7.001,18.908 2.616,22.628 3.456,31.492 C3.748,34.572 3.876,37.661 3.632,40.746 C3.21,46.078 1.068,52.829 1.001,54.908 C0.964,56.071 1.916,56.623 3.073,56.868 C5.631,57.409 8.233,56.252 9.786,54.147 C11.546,51.763 13.859,47.448 15.86,39.817 C17.187,34.761 21.654,31.069 26.878,30.905 C26.971,30.902 27.064,30.9 27.158,30.898 C28.987,30.857 30.79,30.149 31.97,28.752 C33.209,27.283 33.959,25.033 32.001,21.908 C28.084,15.658 29.168,11.325 33.001,8.908 C36.088,6.962 41.362,2.406 43.289,0.67 C43.552,0.433 43.38,0 43.026,0 L22.382,0" id="Fill-617" fill="#FDD7AD" sketch:type="MSShapeGroup"></path>
            <path d="M3.632,40.746 C3.21,46.078 1.068,52.829 1.001,54.908 C0.964,56.071 1.916,56.623 3.072,56.868 C5.631,57.409 8.233,56.252 9.786,54.147 C11.546,51.763 13.859,47.448 15.86,39.817 C17.187,34.761 21.654,31.069 26.878,30.905 C26.971,30.902 27.064,30.9 27.158,30.898 C28.987,30.857 30.79,30.149 31.97,28.752 C33.209,27.283 33.959,25.033 32.001,21.908 C31.231,20.68 30.661,19.528 30.26,18.447 C21.098,20.719 10.106,28.355 3.606,33.363 C3.779,35.822 3.826,38.286 3.632,40.746" id="Fill-618" fill="#ED7161" sketch:type="MSShapeGroup"></path>
            <path d="M31.97,28.752 C32.613,27.99 33.123,27.017 33.192,25.822 C33.202,25.651 33.037,25.514 32.869,25.548 L31.348,25.856 C31.297,25.867 31.252,25.894 31.217,25.933 C30.531,26.703 29.411,26.88 28.128,26.908 L27.752,26.919 C19.888,27.165 12.979,33.015 10.951,40.747 C8.748,49.145 6.287,53.878 4.503,56.445 C4.388,56.611 4.806,56.961 5.001,56.908 C6.21,56.579 7.939,56.741 9.786,54.147 C11.5,51.741 13.843,47.477 15.84,39.894 C17.195,34.749 21.751,31.034 27.07,30.9 C27.099,30.899 27.129,30.898 27.158,30.898 C28.987,30.857 30.79,30.149 31.97,28.752" id="Fill-619" fill="#CB465F" sketch:type="MSShapeGroup"></path>
            <path d="M11.536,14.306 L18.215,23.563 C20.007,22.559 21.825,21.629 23.634,20.818 L15.664,9.772 C14.51,11.11 13.146,12.615 11.536,14.306" id="Fill-620" fill="#FB7B76" sketch:type="MSShapeGroup"></path>
            <path d="M18.793,6 C18.557,6.292 18.299,6.61 18.026,6.945 C17.358,7.792 16.579,8.735 15.671,9.782 L17.205,11.908 L30.204,11.908 C30.488,11.325 30.86,10.79 31.311,10.303 C31.349,10.262 31.39,10.221 31.43,10.18 C31.611,9.993 31.804,9.814 32.009,9.641 C32.07,9.59 32.128,9.538 32.191,9.488 C32.447,9.285 32.713,9.089 33.001,8.908 C33.281,8.731 33.581,8.531 33.893,8.314 C33.901,8.308 33.909,8.303 33.917,8.298 C34.23,8.079 34.558,7.843 34.895,7.592 L34.915,7.586 C35.578,7.098 36.278,6.559 36.983,6 L18.793,6" id="Fill-621" fill="#FF5364" sketch:type="MSShapeGroup"></path>
        </g>
    </g>
</svg>