<?xml version="1.0" encoding="UTF-8" standalone="no"?>
<svg width="56px" height="56px" viewBox="0 0 56 56" version="1.1" xmlns="http://www.w3.org/2000/svg" xmlns:xlink="http://www.w3.org/1999/xlink" xmlns:sketch="http://www.bohemiancoding.com/sketch/ns">
    <!-- Generator: Sketch 3.2.2 (9983) - http://www.bohemiancoding.com/sketch -->
    <title>93 - Baseball (Flat)</title>
    <desc>Created with Sketch.</desc>
    <defs></defs>
    <g id="Page-1" stroke="none" stroke-width="1" fill="none" fill-rule="evenodd" sketch:type="MSPage">
        <g id="93---Baseball-(Flat)" sketch:type="MSLayerGroup">
            <path d="M56,28 C56,43.464 43.464,56 28,56 C12.536,56 0,43.464 0,28 C0,12.536 12.536,0 28,0 C43.464,0 56,12.536 56,28" id="Fill-489" fill="#E6E6E6" sketch:type="MSShapeGroup"></path>
            <path d="M56,28 C56,20.902 53.354,14.425 49,9.49 C47.244,11.48 45.772,13.725 44.633,16.157 L47.316,17.051 C47.84,17.226 48.123,17.792 47.948,18.316 C47.809,18.735 47.419,19 47,19 C46.896,19 46.789,18.984 46.684,18.949 L43.843,18.002 C43.406,19.143 43.041,20.319 42.754,21.526 L46.142,22.01 C46.688,22.088 47.068,22.595 46.99,23.142 C46.919,23.64 46.491,24 46.001,24 C45.954,24 45.906,23.997 45.858,23.99 L42.369,23.491 C42.183,24.639 42.065,25.81 42.023,27 L45,27 C45.553,27 46,27.448 46,28 C46,28.552 45.553,29 45,29 L42.023,29 C42.065,30.19 42.183,31.361 42.369,32.509 L45.858,32.01 C46.407,31.928 46.912,32.312 46.99,32.858 C47.068,33.405 46.688,33.912 46.142,33.99 L42.754,34.474 C43.041,35.681 43.406,36.857 43.843,37.998 L46.684,37.051 C47.212,36.876 47.773,37.16 47.948,37.684 C48.123,38.208 47.84,38.774 47.316,38.949 L44.633,39.843 C45.772,42.275 47.244,44.52 49,46.51 C53.354,41.575 56,35.098 56,28" id="Fill-493" fill="#CCD6DB" sketch:type="MSShapeGroup"></path>
            <path d="M11,29 C10.447,29 10,28.552 10,28 C10,27.448 10.447,27 11,27 L13.977,27 C13.935,25.81 13.817,24.639 13.631,23.491 L10.142,23.99 C10.094,23.997 10.046,24 9.999,24 C9.509,24 9.081,23.64 9.01,23.142 C8.932,22.595 9.312,22.088 9.858,22.01 L13.246,21.526 C12.959,20.319 12.594,19.143 12.157,18.002 L9.316,18.949 C9.211,18.984 9.104,19 9,19 C8.581,19 8.191,18.735 8.052,18.316 C7.877,17.792 8.16,17.226 8.684,17.051 L11.367,16.157 C10.228,13.725 8.756,11.48 7,9.49 C2.646,14.425 0,20.902 0,28 C0,35.098 2.646,41.575 7,46.51 C8.756,44.52 10.228,42.275 11.367,39.843 L8.684,38.949 C8.16,38.774 7.877,38.208 8.052,37.684 C8.227,37.16 8.788,36.876 9.316,37.051 L12.157,37.998 C12.594,36.857 12.959,35.681 13.246,34.474 L9.858,33.99 C9.312,33.912 8.932,33.405 9.01,32.858 C9.088,32.312 9.597,31.933 10.142,32.01 L13.631,32.509 C13.817,31.361 13.935,30.19 13.977,29 L11,29" id="Fill-494" fill="#CCD6DB" sketch:type="MSShapeGroup"></path>
            <path d="M13.977,29 L17,29 C17.553,29 18,28.552 18,28 C18,27.448 17.553,27 17,27 L13.977,27 C13.989,27.332 14,27.665 14,28 C14,28.335 13.989,28.668 13.977,29" id="Fill-495" fill="#E64C3C" sketch:type="MSShapeGroup"></path>
            <path d="M10,28 C10,28.552 10.447,29 11,29 L13.977,29 C13.989,28.668 14,28.335 14,28 C14,27.665 13.989,27.332 13.977,27 L11,27 C10.447,27 10,27.448 10,28" id="Fill-496" fill="#C03A2B" sketch:type="MSShapeGroup"></path>
            <path d="M16.858,34.99 C16.906,34.997 16.954,35 17.001,35 C17.491,35 17.919,34.64 17.99,34.142 C18.068,33.595 17.688,33.088 17.142,33.01 L13.631,32.509 C13.523,33.171 13.399,33.828 13.246,34.474 L16.858,34.99" id="Fill-497" fill="#E64C3C" sketch:type="MSShapeGroup"></path>
            <path d="M9.01,32.858 C8.932,33.405 9.312,33.912 9.858,33.99 L13.246,34.474 C13.399,33.828 13.523,33.171 13.631,32.509 L10.142,32.01 C9.597,31.933 9.088,32.312 9.01,32.858" id="Fill-498" fill="#C03A2B" sketch:type="MSShapeGroup"></path>
            <path d="M17.142,22.99 C17.688,22.912 18.068,22.405 17.99,21.858 C17.912,21.312 17.403,20.929 16.858,21.01 L13.246,21.526 C13.399,22.172 13.523,22.829 13.631,23.491 L17.142,22.99" id="Fill-499" fill="#E64C3C" sketch:type="MSShapeGroup"></path>
            <path d="M9.01,23.142 C9.081,23.64 9.509,24 9.999,24 C10.046,24 10.094,23.997 10.142,23.99 L13.631,23.491 C13.523,22.829 13.399,22.172 13.246,21.526 L9.858,22.01 C9.312,22.088 8.932,22.595 9.01,23.142" id="Fill-500" fill="#C03A2B" sketch:type="MSShapeGroup"></path>
            <path d="M15.316,16.949 C15.84,16.774 16.123,16.208 15.948,15.684 C15.774,15.16 15.211,14.875 14.684,15.051 L11.367,16.157 C11.65,16.761 11.917,17.375 12.157,18.002 L15.316,16.949" id="Fill-501" fill="#E64C3C" sketch:type="MSShapeGroup"></path>
            <path d="M8.052,18.316 C8.191,18.735 8.581,19 9,19 C9.104,19 9.211,18.984 9.316,18.949 L12.157,18.002 C11.917,17.375 11.65,16.761 11.367,16.157 L8.684,17.051 C8.16,17.226 7.877,17.792 8.052,18.316" id="Fill-502" fill="#C03A2B" sketch:type="MSShapeGroup"></path>
            <path d="M14.684,40.949 C14.789,40.984 14.896,41 15,41 C15.419,41 15.809,40.735 15.948,40.316 C16.123,39.792 15.84,39.226 15.316,39.051 L12.157,37.998 C11.917,38.625 11.65,39.239 11.367,39.843 L14.684,40.949" id="Fill-503" fill="#E64C3C" sketch:type="MSShapeGroup"></path>
            <path d="M8.052,37.684 C7.877,38.208 8.16,38.774 8.684,38.949 L11.367,39.843 C11.65,39.239 11.917,38.625 12.157,37.998 L9.316,37.051 C8.788,36.876 8.227,37.16 8.052,37.684" id="Fill-504" fill="#C03A2B" sketch:type="MSShapeGroup"></path>
            <path d="M42.023,27 L39,27 C38.447,27 38,27.448 38,28 C38,28.552 38.447,29 39,29 L42.023,29 C42.011,28.668 42,28.335 42,28 C42,27.665 42.011,27.332 42.023,27" id="Fill-505" fill="#E64C3C" sketch:type="MSShapeGroup"></path>
            <path d="M46,28 C46,27.448 45.553,27 45,27 L42.023,27 C42.011,27.332 42,27.665 42,28 C42,28.335 42.011,28.668 42.023,29 L45,29 C45.553,29 46,28.552 46,28" id="Fill-506" fill="#C03A2B" sketch:type="MSShapeGroup"></path>
            <path d="M39.142,21.01 C38.595,20.933 38.088,21.312 38.01,21.858 C37.932,22.405 38.312,22.912 38.858,22.99 L42.369,23.491 C42.477,22.829 42.601,22.172 42.754,21.526 L39.142,21.01" id="Fill-507" fill="#E64C3C" sketch:type="MSShapeGroup"></path>
            <path d="M46.001,24 C46.491,24 46.919,23.64 46.99,23.142 C47.068,22.595 46.688,22.088 46.142,22.01 L42.754,21.526 C42.601,22.172 42.477,22.829 42.369,23.491 L45.858,23.99 C45.906,23.997 45.954,24 46.001,24" id="Fill-508" fill="#C03A2B" sketch:type="MSShapeGroup"></path>
            <path d="M38.858,33.01 C38.312,33.088 37.932,33.595 38.01,34.142 C38.081,34.64 38.509,35 38.999,35 C39.046,35 39.094,34.997 39.142,34.99 L42.754,34.474 C42.601,33.828 42.477,33.171 42.369,32.509 L38.858,33.01" id="Fill-509" fill="#E64C3C" sketch:type="MSShapeGroup"></path>
            <path d="M46.99,32.858 C46.912,32.312 46.407,31.928 45.858,32.01 L42.369,32.509 C42.477,33.171 42.601,33.828 42.754,34.474 L46.142,33.99 C46.688,33.912 47.068,33.405 46.99,32.858" id="Fill-510" fill="#C03A2B" sketch:type="MSShapeGroup"></path>
            <path d="M40.684,39.051 C40.16,39.226 39.877,39.792 40.052,40.316 C40.191,40.735 40.581,41 41,41 C41.104,41 41.211,40.984 41.316,40.949 L44.633,39.843 C44.35,39.239 44.083,38.625 43.843,37.998 L40.684,39.051" id="Fill-511" fill="#E64C3C" sketch:type="MSShapeGroup"></path>
            <path d="M47.948,37.684 C47.773,37.16 47.212,36.876 46.684,37.051 L43.843,37.998 C44.083,38.625 44.35,39.239 44.633,39.843 L47.316,38.949 C47.84,38.774 48.123,38.208 47.948,37.684" id="Fill-512" fill="#C03A2B" sketch:type="MSShapeGroup"></path>
            <path d="M41.316,15.051 C40.789,14.875 40.226,15.16 40.052,15.684 C39.877,16.208 40.16,16.774 40.684,16.949 L43.843,18.002 C44.083,17.375 44.35,16.761 44.633,16.157 L41.316,15.051" id="Fill-513" fill="#E64C3C" sketch:type="MSShapeGroup"></path>
            <path d="M47,19 C47.419,19 47.809,18.735 47.948,18.316 C48.123,17.792 47.84,17.226 47.316,17.051 L44.633,16.157 C44.35,16.761 44.083,17.375 43.843,18.002 L46.684,18.949 C46.789,18.984 46.896,19 47,19" id="Fill-514" fill="#C03A2B" sketch:type="MSShapeGroup"></path>
        </g>
    </g>
</svg>