<?xml version="1.0" encoding="UTF-8" standalone="no"?>
<svg width="57px" height="56px" viewBox="0 0 57 56" version="1.1" xmlns="http://www.w3.org/2000/svg" xmlns:xlink="http://www.w3.org/1999/xlink" xmlns:sketch="http://www.bohemiancoding.com/sketch/ns">
    <!-- Generator: Sketch 3.2.2 (9983) - http://www.bohemiancoding.com/sketch -->
    <title>80 - Baseball Bat (Flat)</title>
    <desc>Created with Sketch.</desc>
    <defs></defs>
    <g id="Page-1" stroke="none" stroke-width="1" fill="none" fill-rule="evenodd" sketch:type="MSPage">
        <g id="80---Baseball-Bat-(Flat)" sketch:type="MSLayerGroup" transform="translate(0.000000, -1.000000)">
            <path d="M9,43.09 C9,40.728 8.046,38.531 6.315,36.903 C6.312,36.901 6.311,36.897 6.308,36.894 C4.873,38.558 4,40.72 4,43.09 C4,45.46 4.873,47.622 6.308,49.286 C6.311,49.283 6.312,49.28 6.315,49.277 C8.046,47.648 9,45.451 9,43.09" id="Fill-210" fill="#E6E6E6" sketch:type="MSShapeGroup"></path>
            <path d="M19.235,35.529 C17.64,34.317 15.657,33.59 13.5,33.59 C11.342,33.59 9.36,34.317 7.765,35.529 C9.849,37.531 11,40.209 11,43.09 C11,45.97 9.849,48.649 7.765,50.651 C9.36,51.862 11.343,52.59 13.5,52.59 C15.657,52.59 17.64,51.862 19.235,50.651 C17.151,48.649 16,45.97 16,43.09 C16,40.209 17.151,37.531 19.235,35.529" id="Fill-211" fill="#E6E6E6" sketch:type="MSShapeGroup"></path>
            <path d="M18,43.09 C18,45.451 18.954,47.648 20.685,49.277 C20.688,49.28 20.689,49.283 20.692,49.286 C22.127,47.622 23,45.46 23,43.09 C23,40.72 22.127,38.558 20.692,36.894 C20.689,36.897 20.688,36.901 20.685,36.903 C18.954,38.531 18,40.728 18,43.09" id="Fill-212" fill="#E6E6E6" sketch:type="MSShapeGroup"></path>
            <path d="M7.765,35.529 C7.233,35.933 6.744,36.389 6.308,36.894 C6.311,36.897 6.312,36.901 6.315,36.903 C8.046,38.531 9,40.728 9,43.09 C9,45.451 8.046,47.648 6.315,49.277 C6.312,49.28 6.311,49.283 6.308,49.286 C6.744,49.791 7.233,50.247 7.765,50.651 C9.849,48.649 11,45.97 11,43.09 C11,40.209 9.849,37.531 7.765,35.529" id="Fill-213" fill="#E64C3C" sketch:type="MSShapeGroup"></path>
            <path d="M20.692,49.286 C20.689,49.283 20.688,49.28 20.685,49.277 C18.954,47.648 18,45.451 18,43.09 C18,40.728 18.954,38.531 20.685,36.903 C20.688,36.901 20.689,36.897 20.692,36.894 C20.256,36.389 19.767,35.933 19.235,35.529 C17.151,37.531 16,40.209 16,43.09 C16,45.97 17.151,48.649 19.235,50.651 C19.767,50.247 20.256,49.791 20.692,49.286" id="Fill-214" fill="#E64C3C" sketch:type="MSShapeGroup"></path>
            <path d="M55.277,50.365 L49.62,56.022 C48.453,57.189 46.544,57.189 45.378,56.022 C44.211,54.856 44.211,52.946 45.378,51.78 L51.034,46.123 C52.201,44.956 54.11,44.956 55.277,46.123 C56.444,47.29 56.444,49.199 55.277,50.365" id="Fill-215" fill="#CBB292" sketch:type="MSShapeGroup"></path>
            <path d="M50,47.207 L13.353,3.996 C11.372,1.66 8.245,0.475 5.275,1.223 C4.258,1.479 3.328,1.94 2.565,2.684 C1.271,3.948 0.782,5.713 0.842,7.711 C0.912,10.032 2.027,12.203 3.8,13.701 L47,50.207 L50,47.207" id="Fill-216" fill="#CBB292" sketch:type="MSShapeGroup"></path>
            <path d="M26.884,33.208 L47,50.207 L50,47.207 L32.968,27.124 L26.884,33.208" id="Fill-980" fill="#38454F" sketch:type="MSShapeGroup"></path>
        </g>
    </g>
</svg>