<?xml version="1.0" encoding="UTF-8" standalone="no"?>
<svg width="56px" height="58px" viewBox="0 0 56 58" version="1.1" xmlns="http://www.w3.org/2000/svg" xmlns:xlink="http://www.w3.org/1999/xlink" xmlns:sketch="http://www.bohemiancoding.com/sketch/ns">
    <!-- Generator: Sketch 3.2.2 (9983) - http://www.bohemiancoding.com/sketch -->
    <title>5 - Baseball Glove (Flat)</title>
    <desc>Created with Sketch.</desc>
    <defs></defs>
    <g id="Page-1" stroke="none" stroke-width="1" fill="none" fill-rule="evenodd" sketch:type="MSPage">
        <g id="5---Baseball-Glove-(Flat)" sketch:type="MSLayerGroup">
            <path d="M9,27 C8.875,34.063 13,37 13,37 C11.25,29.417 17,26 17,26 C16.354,17.443 16.833,11.864 17.862,8.266 C11.005,9.348 5.404,13.897 3.121,19.957 C5.752,19.193 9.074,22.815 9,27" id="Fill-110" fill="#82614A" sketch:type="MSShapeGroup"></path>
            <path d="M14.707,12.293 C15.098,12.683 15.098,13.317 14.707,13.707 C14.317,14.098 13.683,14.098 13.293,13.707 C12.902,13.317 12.902,12.683 13.293,12.293 C13.683,11.902 14.317,11.902 14.707,12.293" id="Fill-855" fill="#D4945E" sketch:type="MSShapeGroup"></path>
            <path d="M8.707,17.293 C9.098,17.683 9.098,18.317 8.707,18.707 C8.317,19.098 7.683,19.098 7.293,18.707 C6.902,18.317 6.902,17.683 7.293,17.293 C7.683,16.902 8.317,16.902 8.707,17.293" id="Fill-856" fill="#D4945E" sketch:type="MSShapeGroup"></path>
            <path d="M11.707,14.293 C12.098,14.683 12.098,15.317 11.707,15.707 C11.317,16.098 10.683,16.098 10.293,15.707 C9.902,15.317 9.902,14.683 10.293,14.293 C10.683,13.902 11.317,13.902 11.707,14.293" id="Fill-857" fill="#D4945E" sketch:type="MSShapeGroup"></path>
            <path d="M11.707,20.293 C12.098,20.683 12.098,21.317 11.707,21.707 C11.317,22.098 10.683,22.098 10.293,21.707 C9.902,21.317 9.902,20.683 10.293,20.293 C10.683,19.902 11.317,19.902 11.707,20.293" id="Fill-858" fill="#D4945E" sketch:type="MSShapeGroup"></path>
            <path d="M14.707,17.293 C15.098,17.683 15.098,18.317 14.707,18.707 C14.317,19.098 13.683,19.098 13.293,18.707 C12.902,18.317 12.902,17.683 13.293,17.293 C13.683,16.902 14.317,16.902 14.707,17.293" id="Fill-859" fill="#D4945E" sketch:type="MSShapeGroup"></path>
            <path d="M12.707,25.293 C13.098,25.683 13.098,26.317 12.707,26.707 C12.317,27.098 11.683,27.098 11.293,26.707 C10.902,26.317 10.902,25.683 11.293,25.293 C11.683,24.902 12.317,24.902 12.707,25.293" id="Fill-860" fill="#D4945E" sketch:type="MSShapeGroup"></path>
            <path d="M14.707,22.293 C15.098,22.683 15.098,23.317 14.707,23.707 C14.317,24.098 13.683,24.098 13.293,23.707 C12.902,23.317 12.902,22.683 13.293,22.293 C13.683,21.902 14.317,21.902 14.707,22.293" id="Fill-861" fill="#D4945E" sketch:type="MSShapeGroup"></path>
            <path d="M53.694,9.36 C52.883,6.303 49.391,4.903 46.799,6.421 C46.931,6.604 47.014,6.824 46.998,7.066 C45.811,24.856 43.028,31.154 42.91,31.414 C42.743,31.782 42.38,32 41.999,32 C41.861,32 41.721,31.972 41.586,31.91 C41.084,31.682 40.861,31.091 41.089,30.588 C41.129,30.497 43.85,24.223 45.002,6.934 C45.029,6.515 45.318,6.182 45.692,6.056 C44.993,4.326 42.931,1.045 37.866,3.538 C37.952,3.697 38.011,3.873 37.998,4.066 C36.816,21.785 35.035,28.024 34.96,28.281 C34.832,28.717 34.434,29 34.001,29 C33.908,29 33.813,28.986 33.72,28.959 C33.19,28.805 32.886,28.25 33.04,27.72 C33.058,27.658 34.84,21.367 36.002,3.934 C36.026,3.571 36.255,3.284 36.556,3.128 C35.55,1.444 32.782,-1.743 27.743,2.36 C27.787,2.412 27.841,2.453 27.875,2.516 C31.224,8.557 26.179,26.512 25.962,27.273 C25.837,27.713 25.436,28 25.001,28 C24.91,28 24.818,27.988 24.727,27.962 C24.195,27.811 23.887,27.258 24.038,26.727 C25.449,21.76 28.574,7.903 26.125,3.484 C25.96,3.187 25.98,2.85 26.119,2.566 C23.342,1.447 15.05,0.163 17,26 C17,26 11.25,29.417 13,37 C13,37 8.875,34.063 9,27 C9.125,19.938 0,14.5 0,29 C0,43.124 3.66,47.149 16.821,57.111 C17.207,57.402 17.598,57.698 18,58 L18,53 C18,52.447 18.447,52 19,52 C19.553,52 20,52.447 20,53 L20,58 L22,58 L22,53 C22,52.447 22.447,52 23,52 C23.553,52 24,52.447 24,53 L24,58 L26,58 L26,53 C26,52.447 26.447,52 27,52 C27.553,52 28,52.447 28,53 L28,58 L30,58 L30,53 C30,52.447 30.447,52 31,52 C31.553,52 32,52.447 32,53 L32,58 L34,58 L34,53 C34,52.447 34.447,52 35,52 C35.553,52 36,52.447 36,53 L36,58 L38,58 L38,53 C38,52.447 38.447,52 39,52 C39.553,52 40,52.447 40,53 L40,58 C40,58 45.654,51.965 50.055,42.424 L49.621,42.235 C49.113,42.018 48.879,41.43 49.097,40.922 C49.315,40.413 49.903,40.182 50.41,40.398 L50.863,40.596 C54.456,32.1 56.828,21.174 53.694,9.36 L53.694,9.36 Z M16.244,54.754 C16.194,54.761 16.144,54.765 16.095,54.765 C15.608,54.765 15.182,54.409 15.106,53.913 C15.049,53.529 15.014,53.138 15.003,52.751 C14.988,52.198 15.423,51.738 15.975,51.723 C16.533,51.736 16.987,52.143 17.003,52.694 C17.011,53.005 17.039,53.312 17.085,53.616 C17.167,54.162 16.791,54.671 16.244,54.754 L16.244,54.754 Z M18.249,48.279 C18.083,48.55 17.933,48.826 17.798,49.108 C17.626,49.467 17.268,49.677 16.894,49.677 C16.75,49.677 16.603,49.646 16.464,49.579 C15.966,49.341 15.755,48.744 15.993,48.245 C16.157,47.902 16.341,47.567 16.542,47.236 C16.83,46.765 17.445,46.616 17.917,46.904 C18.388,47.192 18.537,47.808 18.249,48.279 L18.249,48.279 Z M21.556,44.763 C21.289,44.963 21.032,45.168 20.785,45.379 C20.597,45.539 20.366,45.617 20.137,45.617 C19.854,45.617 19.573,45.498 19.375,45.266 C19.018,44.845 19.068,44.214 19.488,43.855 C19.767,43.619 20.055,43.389 20.354,43.163 C20.796,42.833 21.423,42.921 21.755,43.362 C22.086,43.804 21.997,44.431 21.556,44.763 L21.556,44.763 Z M25.889,42.31 C25.577,42.441 25.271,42.579 24.972,42.722 C24.834,42.787 24.688,42.818 24.544,42.818 C24.17,42.818 23.81,42.607 23.64,42.247 C23.402,41.749 23.615,41.152 24.114,40.915 C24.44,40.761 24.771,40.611 25.109,40.468 C25.613,40.255 26.204,40.488 26.42,40.999 C26.635,41.508 26.397,42.094 25.889,42.31 L25.889,42.31 Z M30.701,40.784 C30.369,40.857 30.04,40.937 29.717,41.021 C29.633,41.043 29.548,41.053 29.465,41.053 C29.021,41.053 28.614,40.754 28.498,40.304 C28.359,39.77 28.68,39.224 29.215,39.085 C29.561,38.995 29.912,38.91 30.268,38.831 C30.812,38.712 31.341,39.053 31.461,39.591 C31.58,40.131 31.24,40.664 30.701,40.784 L30.701,40.784 Z M35.727,40.073 C35.389,40.095 35.053,40.121 34.719,40.154 C34.685,40.157 34.651,40.159 34.619,40.159 C34.111,40.159 33.676,39.773 33.625,39.258 C33.57,38.708 33.972,38.219 34.521,38.164 C34.879,38.129 35.238,38.101 35.601,38.077 C36.139,38.044 36.627,38.46 36.662,39.012 C36.697,39.563 36.279,40.038 35.727,40.073 L35.727,40.073 Z M40.896,40.114 C40.868,40.114 40.841,40.113 40.813,40.111 C40.479,40.083 40.142,40.061 39.8,40.044 C39.248,40.017 38.823,39.547 38.851,38.995 C38.879,38.444 39.357,38.02 39.899,38.046 C40.263,38.065 40.622,38.089 40.977,38.117 C41.527,38.163 41.936,38.646 41.892,39.196 C41.848,39.719 41.411,40.114 40.896,40.114 L40.896,40.114 Z M47.021,40.224 C46.904,40.674 46.498,40.973 46.054,40.973 C45.971,40.973 45.886,40.963 45.802,40.94 C45.478,40.857 45.152,40.779 44.821,40.706 C44.282,40.588 43.94,40.056 44.059,39.516 C44.175,38.975 44.708,38.636 45.249,38.753 C45.606,38.83 45.957,38.915 46.304,39.005 C46.839,39.144 47.159,39.689 47.021,40.224 L47.021,40.224 Z" id="Fill-880" fill="#D4945E" sketch:type="MSShapeGroup"></path>
            <path d="M45.002,6.934 C43.85,24.223 41.129,30.497 41.089,30.588 C40.861,31.091 41.084,31.682 41.586,31.91 C41.721,31.972 41.861,32 41.999,32 C42.38,32 42.743,31.782 42.91,31.414 C43.028,31.154 45.811,24.856 46.998,7.066 C47.014,6.824 46.931,6.604 46.799,6.421 C46.563,6.559 46.333,6.712 46.115,6.9 C46.077,6.932 46.038,6.966 46,7 C46,7 45.913,6.606 45.692,6.056 C45.318,6.182 45.029,6.515 45.002,6.934" id="Fill-881" fill="#82614A" sketch:type="MSShapeGroup"></path>
            <path d="M36.002,3.934 C34.84,21.367 33.058,27.658 33.04,27.72 C32.886,28.25 33.19,28.805 33.72,28.959 C33.813,28.986 33.908,29 34.001,29 C34.434,29 34.832,28.717 34.96,28.281 C35.035,28.024 36.816,21.785 37.998,4.066 C38.011,3.873 37.952,3.697 37.866,3.538 C37.586,3.676 37.299,3.825 37,4 C37,4 36.856,3.631 36.556,3.128 C36.255,3.284 36.026,3.571 36.002,3.934" id="Fill-882" fill="#82614A" sketch:type="MSShapeGroup"></path>
            <path d="M26.125,3.484 C28.574,7.903 25.449,21.76 24.038,26.727 C23.887,27.258 24.195,27.811 24.727,27.962 C24.818,27.988 24.91,28 25.001,28 C25.436,28 25.837,27.713 25.962,27.273 C26.179,26.512 31.224,8.557 27.875,2.516 C27.841,2.453 27.787,2.412 27.743,2.36 C27.5,2.558 27.253,2.768 27,3 C27,3 26.666,2.786 26.119,2.566 C25.98,2.85 25.96,3.187 26.125,3.484" id="Fill-883" fill="#82614A" sketch:type="MSShapeGroup"></path>
            <path d="M29.999,17 C29.78,17 29.56,16.929 29.375,16.781 L24.375,12.781 C23.944,12.436 23.874,11.807 24.219,11.375 C24.565,10.947 25.192,10.874 25.625,11.219 L30.625,15.219 C31.056,15.565 31.126,16.193 30.781,16.625 C30.583,16.871 30.293,17 29.999,17" id="Fill-884" fill="#A5714A" sketch:type="MSShapeGroup"></path>
            <path d="M25,18 C24.744,18 24.488,17.902 24.293,17.707 C23.902,17.316 23.902,16.684 24.293,16.293 L29.293,11.293 C29.684,10.902 30.316,10.902 30.707,11.293 C31.098,11.684 31.098,12.316 30.707,12.707 L25.707,17.707 C25.512,17.902 25.256,18 25,18" id="Fill-885" fill="#A5714A" sketch:type="MSShapeGroup"></path>
            <path d="M39,15 C38.744,15 38.488,14.902 38.293,14.707 L34.293,10.707 C33.902,10.316 33.902,9.684 34.293,9.293 C34.684,8.902 35.316,8.902 35.707,9.293 L39.707,13.293 C40.098,13.684 40.098,14.316 39.707,14.707 C39.512,14.902 39.256,15 39,15" id="Fill-886" fill="#A5714A" sketch:type="MSShapeGroup"></path>
            <path d="M34.001,14 C33.661,14 33.33,13.827 33.143,13.515 C32.858,13.041 33.012,12.427 33.485,12.143 L38.485,9.143 C38.959,8.858 39.573,9.013 39.857,9.485 C40.142,9.959 39.988,10.573 39.515,10.857 L34.515,13.857 C34.354,13.954 34.176,14 34.001,14" id="Fill-887" fill="#A5714A" sketch:type="MSShapeGroup"></path>
            <path d="M47.001,21 C46.707,21 46.417,20.872 46.219,20.625 L42.219,15.625 C41.874,15.193 41.944,14.564 42.375,14.219 C42.808,13.873 43.435,13.944 43.781,14.375 L47.781,19.375 C48.126,19.807 48.056,20.436 47.625,20.781 C47.44,20.929 47.22,21 47.001,21" id="Fill-888" fill="#A5714A" sketch:type="MSShapeGroup"></path>
            <path d="M42.001,21 C41.678,21 41.36,20.844 41.168,20.555 C40.861,20.095 40.985,19.475 41.445,19.168 L47.445,15.168 C47.906,14.861 48.525,14.986 48.832,15.445 C49.139,15.905 49.015,16.525 48.555,16.832 L42.555,20.832 C42.384,20.945 42.191,21 42.001,21" id="Fill-889" fill="#A5714A" sketch:type="MSShapeGroup"></path>
            <path d="M20.711,33.537 C20.711,33.537 7.211,44.037 31.711,47.537 C56.211,51.037 30.711,33.537 30.711,33.537 C30.711,33.537 25.044,31.371 20.711,33.537" id="Fill-1093" fill="#B5896B" sketch:type="MSShapeGroup"></path>
            <path d="M20.354,43.163 C20.055,43.389 19.767,43.619 19.488,43.855 C19.068,44.214 19.018,44.845 19.375,45.266 C19.573,45.498 19.854,45.617 20.137,45.617 C20.366,45.617 20.597,45.539 20.785,45.379 C21.032,45.168 21.289,44.963 21.556,44.763 C21.997,44.431 22.086,43.804 21.755,43.362 C21.423,42.921 20.796,42.833 20.354,43.163" id="Fill-1094" fill="#82614A" sketch:type="MSShapeGroup"></path>
            <path d="M25.109,40.468 C24.771,40.611 24.44,40.761 24.114,40.915 C23.615,41.152 23.402,41.749 23.64,42.247 C23.81,42.607 24.17,42.818 24.544,42.818 C24.688,42.818 24.834,42.787 24.972,42.722 C25.271,42.579 25.577,42.441 25.889,42.31 C26.397,42.094 26.635,41.508 26.42,40.999 C26.204,40.488 25.613,40.255 25.109,40.468" id="Fill-1095" fill="#82614A" sketch:type="MSShapeGroup"></path>
            <path d="M15.975,51.723 C15.423,51.738 14.988,52.198 15.003,52.751 C15.014,53.138 15.049,53.529 15.106,53.913 C15.182,54.409 15.608,54.765 16.095,54.765 C16.144,54.765 16.194,54.761 16.244,54.754 C16.791,54.671 17.167,54.162 17.085,53.616 C17.039,53.312 17.011,53.005 17.003,52.694 C16.987,52.143 16.533,51.736 15.975,51.723" id="Fill-1096" fill="#82614A" sketch:type="MSShapeGroup"></path>
            <path d="M17.917,46.904 C17.445,46.616 16.83,46.765 16.542,47.236 C16.341,47.567 16.157,47.902 15.993,48.245 C15.755,48.744 15.966,49.341 16.464,49.579 C16.603,49.646 16.75,49.677 16.894,49.677 C17.268,49.677 17.626,49.467 17.798,49.108 C17.933,48.826 18.083,48.55 18.249,48.279 C18.537,47.808 18.388,47.192 17.917,46.904" id="Fill-1097" fill="#82614A" sketch:type="MSShapeGroup"></path>
            <path d="M30.268,38.831 C29.912,38.91 29.561,38.995 29.215,39.085 C28.68,39.224 28.359,39.77 28.498,40.304 C28.614,40.754 29.021,41.053 29.465,41.053 C29.548,41.053 29.633,41.043 29.717,41.021 C30.04,40.937 30.369,40.857 30.701,40.784 C31.24,40.664 31.58,40.131 31.461,39.591 C31.341,39.053 30.812,38.712 30.268,38.831" id="Fill-1098" fill="#82614A" sketch:type="MSShapeGroup"></path>
            <path d="M35.601,38.077 C35.238,38.101 34.879,38.129 34.521,38.164 C33.972,38.219 33.57,38.708 33.625,39.258 C33.676,39.773 34.111,40.159 34.619,40.159 C34.651,40.159 34.685,40.157 34.719,40.154 C35.053,40.121 35.389,40.095 35.727,40.073 C36.279,40.038 36.697,39.563 36.662,39.012 C36.627,38.46 36.139,38.044 35.601,38.077" id="Fill-1099" fill="#82614A" sketch:type="MSShapeGroup"></path>
            <path d="M46.304,39.005 C45.957,38.915 45.606,38.83 45.249,38.753 C44.708,38.636 44.175,38.975 44.059,39.516 C43.94,40.056 44.282,40.588 44.821,40.706 C45.152,40.779 45.478,40.857 45.802,40.94 C45.886,40.963 45.971,40.973 46.054,40.973 C46.498,40.973 46.904,40.674 47.021,40.224 C47.159,39.689 46.839,39.144 46.304,39.005" id="Fill-1100" fill="#82614A" sketch:type="MSShapeGroup"></path>
            <path d="M40.977,38.117 C40.622,38.089 40.263,38.065 39.899,38.046 C39.357,38.02 38.879,38.444 38.851,38.995 C38.823,39.547 39.248,40.017 39.8,40.044 C40.142,40.061 40.479,40.083 40.813,40.111 C40.841,40.113 40.868,40.114 40.896,40.114 C41.411,40.114 41.848,39.719 41.892,39.196 C41.936,38.646 41.527,38.163 40.977,38.117" id="Fill-1101" fill="#82614A" sketch:type="MSShapeGroup"></path>
            <path d="M19,52 C18.447,52 18,52.447 18,53 L18,58 L20,58 L20,53 C20,52.447 19.553,52 19,52" id="Fill-1102" fill="#82614A" sketch:type="MSShapeGroup"></path>
            <path d="M39,52 C38.447,52 38,52.447 38,53 L38,58 L40,58 L40,53 C40,52.447 39.553,52 39,52" id="Fill-1103" fill="#82614A" sketch:type="MSShapeGroup"></path>
            <path d="M23,52 C22.447,52 22,52.447 22,53 L22,58 L24,58 L24,53 C24,52.447 23.553,52 23,52" id="Fill-1104" fill="#82614A" sketch:type="MSShapeGroup"></path>
            <path d="M27,52 C26.447,52 26,52.447 26,53 L26,58 L28,58 L28,53 C28,52.447 27.553,52 27,52" id="Fill-1105" fill="#82614A" sketch:type="MSShapeGroup"></path>
            <path d="M31,52 C30.447,52 30,52.447 30,53 L30,58 L32,58 L32,53 C32,52.447 31.553,52 31,52" id="Fill-1106" fill="#82614A" sketch:type="MSShapeGroup"></path>
            <path d="M35,52 C34.447,52 34,52.447 34,53 L34,58 L36,58 L36,53 C36,52.447 35.553,52 35,52" id="Fill-1107" fill="#82614A" sketch:type="MSShapeGroup"></path>
            <path d="M50.41,40.398 C49.903,40.182 49.315,40.413 49.097,40.922 C48.879,41.43 49.113,42.018 49.621,42.235 L50.055,42.424 C50.33,41.828 50.6,41.219 50.863,40.596 L50.41,40.398" id="Fill-1108" fill="#82614A" sketch:type="MSShapeGroup"></path>
            <path d="M20.354,43.163 C20.055,43.389 19.767,43.619 19.488,43.855 C19.068,44.214 19.018,44.845 19.375,45.266 C19.573,45.498 19.854,45.617 20.137,45.617 C20.366,45.617 20.597,45.539 20.785,45.379 C21.032,45.168 21.289,44.963 21.556,44.763 C21.997,44.431 22.086,43.804 21.755,43.362 C21.423,42.921 20.796,42.833 20.354,43.163" id="Fill-1109" fill="#82614A" sketch:type="MSShapeGroup"></path>
            <path d="M25.109,40.468 C24.771,40.611 24.44,40.761 24.114,40.915 C23.615,41.152 23.402,41.749 23.64,42.247 C23.81,42.607 24.17,42.818 24.544,42.818 C24.688,42.818 24.834,42.787 24.972,42.722 C25.271,42.579 25.577,42.441 25.889,42.31 C26.397,42.094 26.635,41.508 26.42,40.999 C26.204,40.488 25.613,40.255 25.109,40.468" id="Fill-1110" fill="#82614A" sketch:type="MSShapeGroup"></path>
            <path d="M17.917,46.904 C17.445,46.616 16.83,46.765 16.542,47.236 C16.341,47.567 16.157,47.902 15.993,48.245 C15.755,48.744 15.966,49.341 16.464,49.579 C16.603,49.646 16.75,49.677 16.894,49.677 C17.268,49.677 17.626,49.467 17.798,49.108 C17.933,48.826 18.083,48.55 18.249,48.279 C18.537,47.808 18.388,47.192 17.917,46.904" id="Fill-1111" fill="#82614A" sketch:type="MSShapeGroup"></path>
            <path d="M15.975,51.723 C15.423,51.738 14.988,52.198 15.003,52.751 C15.014,53.138 15.049,53.529 15.106,53.913 C15.182,54.409 15.608,54.765 16.095,54.765 C16.144,54.765 16.194,54.761 16.244,54.754 C16.791,54.671 17.167,54.162 17.085,53.616 C17.039,53.312 17.011,53.005 17.003,52.694 C16.987,52.143 16.533,51.736 15.975,51.723" id="Fill-1112" fill="#82614A" sketch:type="MSShapeGroup"></path>
            <path d="M35.601,38.077 C35.238,38.101 34.879,38.129 34.521,38.164 C33.972,38.219 33.57,38.708 33.625,39.258 C33.676,39.773 34.111,40.159 34.619,40.159 C34.651,40.159 34.685,40.157 34.719,40.154 C35.053,40.121 35.389,40.095 35.727,40.073 C36.279,40.038 36.697,39.563 36.662,39.012 C36.627,38.46 36.139,38.044 35.601,38.077" id="Fill-1113" fill="#82614A" sketch:type="MSShapeGroup"></path>
            <path d="M46.304,39.005 C45.957,38.915 45.606,38.83 45.249,38.753 C44.708,38.636 44.175,38.975 44.059,39.516 C43.94,40.056 44.282,40.588 44.821,40.706 C45.152,40.779 45.478,40.857 45.802,40.94 C45.886,40.963 45.971,40.973 46.054,40.973 C46.498,40.973 46.904,40.674 47.021,40.224 C47.159,39.689 46.839,39.144 46.304,39.005" id="Fill-1114" fill="#82614A" sketch:type="MSShapeGroup"></path>
            <path d="M40.977,38.117 C40.622,38.089 40.263,38.065 39.899,38.046 C39.357,38.02 38.879,38.444 38.851,38.995 C38.823,39.547 39.248,40.017 39.8,40.044 C40.142,40.061 40.479,40.083 40.813,40.111 C40.841,40.113 40.868,40.114 40.896,40.114 C41.411,40.114 41.848,39.719 41.892,39.196 C41.936,38.646 41.527,38.163 40.977,38.117" id="Fill-1115" fill="#82614A" sketch:type="MSShapeGroup"></path>
            <path d="M30.268,38.831 C29.912,38.91 29.561,38.995 29.215,39.085 C28.68,39.224 28.359,39.77 28.498,40.304 C28.614,40.754 29.021,41.053 29.465,41.053 C29.548,41.053 29.633,41.043 29.717,41.021 C30.04,40.937 30.369,40.857 30.701,40.784 C31.24,40.664 31.58,40.131 31.461,39.591 C31.341,39.053 30.812,38.712 30.268,38.831" id="Fill-1116" fill="#82614A" sketch:type="MSShapeGroup"></path>
        </g>
    </g>
</svg>