<?xml version="1.0" encoding="UTF-8" standalone="no"?>
<svg width="40px" height="58px" viewBox="0 0 40 58" version="1.1" xmlns="http://www.w3.org/2000/svg" xmlns:xlink="http://www.w3.org/1999/xlink" xmlns:sketch="http://www.bohemiancoding.com/sketch/ns">
    <!-- Generator: Sketch 3.2.2 (9983) - http://www.bohemiancoding.com/sketch -->
    <title>39 - Basketball Jersey (Flat)</title>
    <desc>Created with Sketch.</desc>
    <defs></defs>
    <g id="Page-1" stroke="none" stroke-width="1" fill="none" fill-rule="evenodd" sketch:type="MSPage">
        <g id="39---Basketball-Jersey-(Flat)" sketch:type="MSLayerGroup" transform="translate(0.000000, -1.000000)">
            <path d="M37.486,1.01 L32.695,1.609 C32.269,1.662 31.902,1.924 31.714,2.31 C30.929,3.916 28.554,8.296 24.875,10.836 C21.953,12.855 18.047,12.855 15.125,10.836 C11.446,8.296 9.07,3.916 8.286,2.31 C8.097,1.924 7.731,1.662 7.304,1.609 L2.513,1.01 C1.495,0.883 0.754,1.949 1.233,2.857 C3.825,7.768 8.897,21.028 0,26 L0,59 L40,59 L40,26 C31.103,21.028 36.175,7.768 38.767,2.857 C39.246,1.949 38.505,0.883 37.486,1.01" id="Fill-114" fill="#9777A8" sketch:type="MSShapeGroup"></path>
            <path d="M26.786,33 L24.643,33 C22.241,33 20.429,31.28 20.429,29 C20.429,26.72 22.241,25 24.643,25 L26.786,25 C29.188,25 31,26.72 31,29 C31,31.28 29.188,33 26.786,33 L26.786,33 Z M24.643,27 C23.542,27 22.429,27.687 22.429,29 C22.429,30.313 23.542,31 24.643,31 L26.786,31 C27.886,31 29,30.313 29,29 C29,27.687 27.886,27 26.786,27 L24.643,27 L24.643,27 Z" id="Fill-283" fill="#FFFFFF" sketch:type="MSShapeGroup"></path>
            <path d="M26.786,39 L24.643,39 C22.241,39 20.429,37.28 20.429,35 C20.429,32.72 22.241,31 24.643,31 L26.786,31 C29.188,31 31,32.72 31,35 C31,37.28 29.188,39 26.786,39 L26.786,39 Z M24.643,33 C23.542,33 22.429,33.687 22.429,35 C22.429,36.313 23.542,37 24.643,37 L26.786,37 C27.886,37 29,36.313 29,35 C29,33.687 27.886,33 26.786,33 L24.643,33 L24.643,33 Z" id="Fill-284" fill="#FFFFFF" sketch:type="MSShapeGroup"></path>
            <path d="M15.357,33 L13.214,33 C10.812,33 9,31.28 9,29 C9,26.72 10.812,25 13.214,25 L15.357,25 C17.759,25 19.571,26.72 19.571,29 C19.571,31.28 17.759,33 15.357,33 L15.357,33 Z M13.214,27 C12.114,27 11,27.687 11,29 C11,30.313 12.114,31 13.214,31 L15.357,31 C16.457,31 17.571,30.313 17.571,29 C17.571,27.687 16.457,27 15.357,27 L13.214,27 L13.214,27 Z" id="Fill-285" fill="#FFFFFF" sketch:type="MSShapeGroup"></path>
            <path d="M15.357,39 L13.214,39 C10.812,39 9,37.28 9,35 C9,32.72 10.812,31 13.214,31 L15.357,31 C17.759,31 19.571,32.72 19.571,35 C19.571,37.28 17.759,39 15.357,39 L15.357,39 Z M13.214,33 C12.114,33 11,33.687 11,35 C11,36.313 12.114,37 13.214,37 L15.357,37 C16.457,37 17.571,36.313 17.571,35 C17.571,33.687 16.457,33 15.357,33 L13.214,33 L13.214,33 Z" id="Fill-286" fill="#FFFFFF" sketch:type="MSShapeGroup"></path>
            <path d="M0,26 L0,59 L5,59 L5,17.923 C4.783,21.118 3.435,24.08 0,26" id="Fill-315" fill="#F18D46" sketch:type="MSShapeGroup"></path>
            <path d="M35.005,18 L35,18 L35,59 L40,59 L40,26 C36.592,24.096 35.238,21.166 35.005,18" id="Fill-316" fill="#F18D46" sketch:type="MSShapeGroup"></path>
            <path d="M24.875,10.836 C21.953,12.855 18.047,12.855 15.125,10.836 C12.01,8.685 9.834,5.221 8.762,3.233 C11.868,4.759 15.977,5.696 20.5,5.696 C24.405,5.696 27.999,4.995 30.91,3.824 C29.752,5.855 27.699,8.885 24.875,10.836" id="Fill-317" fill="#894B9D" sketch:type="MSShapeGroup"></path>
        </g>
    </g>
</svg>