<?xml version="1.0" encoding="UTF-8" standalone="no"?>
<svg width="56px" height="56px" viewBox="0 0 56 56" version="1.1" xmlns="http://www.w3.org/2000/svg" xmlns:xlink="http://www.w3.org/1999/xlink" xmlns:sketch="http://www.bohemiancoding.com/sketch/ns">
    <!-- Generator: Sketch 3.2.2 (9983) - http://www.bohemiancoding.com/sketch -->
    <title>96 - Basketball (Flat)</title>
    <desc>Created with Sketch.</desc>
    <defs></defs>
    <g id="Page-1" stroke="none" stroke-width="1" fill="none" fill-rule="evenodd" sketch:type="MSPage">
        <g id="96---Basketball-(Flat)" sketch:type="MSLayerGroup">
            <path d="M56,28 C56,43.464 43.464,56 28,56 C12.536,56 0,43.464 0,28 C0,12.536 12.536,0 28,0 C43.464,0 56,12.536 56,28" id="Fill-478" fill="#E57E25" sketch:type="MSShapeGroup"></path>
            <path d="M0.728,30.188 C4.349,26.731 10.303,25.633 14.582,27.63 C10.784,33.048 7.986,39.211 6.427,45.849 C6.898,46.418 7.395,46.963 7.909,47.493 C8.049,47.36 8.161,47.193 8.205,46.989 C9.676,40.306 12.464,34.113 16.28,28.694 C18.835,30.677 20.089,33.941 19.805,38.129 L19.801,38.183 L19.804,38.238 C20.055,44.301 23.549,49.849 29.152,53.077 C30.914,54.093 32.76,54.799 34.618,55.206 C36.276,54.804 37.874,54.254 39.402,53.572 C36.354,53.808 33.125,53.058 30.15,51.344 C25.162,48.469 22.045,43.562 21.804,38.208 C22.199,32.144 19.796,28.834 17.48,27.063 C18.967,25.119 20.592,23.286 22.338,21.576 C29.493,28.229 36.219,35.354 42.414,42.889 L46.727,48.135 L48.273,46.865 L43.959,41.618 C37.736,34.05 30.982,26.89 23.799,20.202 C25.189,18.943 26.649,17.76 28.172,16.659 C30.562,19.68 34.405,21.159 39.208,20.844 C43.727,21.049 47.968,23.508 50.851,27.598 C53.093,30.778 54.233,34.559 54.12,38.087 C54.742,36.476 55.219,34.793 55.536,33.054 C54.945,30.743 53.919,28.479 52.485,26.445 C49.231,21.828 44.401,19.057 39.238,18.843 L39.183,18.841 L39.129,18.845 C35.058,19.119 31.835,17.934 29.834,15.505 C34.976,12.088 40.769,9.574 46.989,8.205 C47.193,8.16 47.354,8.044 47.487,7.904 C46.959,7.392 46.415,6.896 45.848,6.426 C39.658,7.881 33.883,10.416 28.739,13.833 C26.793,9.925 27.473,4.433 30.406,0.664 L30.813,0.141 C29.888,0.049 28.949,0 28,0 L28,0.614 C25.225,5.005 24.813,10.723 27.074,14.986 C25.416,16.181 23.829,17.468 22.322,18.843 C19.052,15.854 15.706,12.952 12.269,10.169 L8.953,7.484 C8.461,7.941 7.987,8.415 7.529,8.906 L11.01,11.724 C14.379,14.45 17.659,17.293 20.865,20.22 C19.036,22.019 17.334,23.946 15.78,25.993 C15.666,25.934 15.55,25.874 15.441,25.823 C10.698,23.603 4.46,24.534 0.19,28 L0,28 C0,28.93 0.048,29.848 0.136,30.754 L0.728,30.188" id="Fill-933" fill="#38454F" sketch:type="MSShapeGroup"></path>
        </g>
    </g>
</svg>