<?xml version="1.0" encoding="UTF-8" standalone="no"?>
<svg width="54px" height="50px" viewBox="0 0 54 50" version="1.1" xmlns="http://www.w3.org/2000/svg" xmlns:xlink="http://www.w3.org/1999/xlink" xmlns:sketch="http://www.bohemiancoding.com/sketch/ns">
    <!-- Generator: Sketch 3.2.2 (9983) - http://www.bohemiancoding.com/sketch -->
    <title>86 - Bicycle Helmet (Flat)</title>
    <desc>Created with Sketch.</desc>
    <defs></defs>
    <g id="Page-1" stroke="none" stroke-width="1" fill="none" fill-rule="evenodd" sketch:type="MSPage">
        <g id="86---Bicycle-Helmet-(Flat)" sketch:type="MSLayerGroup">
            <path d="M51.159,1 C45.342,1.661 42.079,1.5 36.329,1 C16.36,-0.736 0.319,2.773 0.329,20 L0.329,26 C1.347,32.119 7.511,35.648 14.329,34 C21.912,32.167 22.996,30.833 27.329,24 C30.354,19.23 33.716,17.198 41.738,16 C50.278,14.725 58.496,0.167 51.159,1" id="Fill-529" fill="#E64C3C" sketch:type="MSShapeGroup"></path>
            <path d="M31.329,36 C31.225,36 31.118,35.984 31.013,35.949 C30.489,35.774 30.206,35.208 30.38,34.684 L36.38,16.684 C36.555,16.16 37.119,15.874 37.645,16.051 C38.169,16.226 38.453,16.793 38.278,17.316 L32.278,35.316 C32.138,35.735 31.748,36 31.329,36" id="Fill-530" fill="#BDC3C7" sketch:type="MSShapeGroup"></path>
            <path d="M27.329,50 C27.225,50 27.118,49.984 27.013,49.949 C26.489,49.774 26.206,49.208 26.38,48.684 L28.38,42.684 C28.555,42.16 29.121,41.875 29.645,42.051 C30.169,42.226 30.453,42.793 30.278,43.316 L28.278,49.316 C28.138,49.735 27.748,50 27.329,50" id="Fill-531" fill="#BDC3C7" sketch:type="MSShapeGroup"></path>
            <path d="M26.329,39 C26.225,39 26.118,38.984 26.013,38.949 L14.013,34.949 C13.489,34.774 13.206,34.208 13.38,33.684 C13.555,33.16 14.12,32.876 14.645,33.051 L26.645,37.051 C27.169,37.226 27.453,37.793 27.278,38.316 C27.138,38.735 26.748,39 26.329,39" id="Fill-532" fill="#BDC3C7" sketch:type="MSShapeGroup"></path>
            <path d="M15.49,18.3 L15.49,18.3 C15.026,17.303 15.462,16.107 16.459,15.643 L20.948,13.553 C21.946,13.089 23.141,13.525 23.606,14.522 C24.07,15.52 23.634,16.715 22.636,17.18 L18.147,19.269 C17.15,19.733 15.954,19.297 15.49,18.3" id="Fill-533" fill="#38454F" sketch:type="MSShapeGroup"></path>
            <path d="M3.515,23.845 L3.515,23.845 C3.051,22.848 3.487,21.652 4.484,21.188 L8.973,19.098 C9.97,18.634 11.166,19.07 11.63,20.067 C12.094,21.065 11.658,22.26 10.661,22.725 L6.172,24.814 C5.175,25.278 3.979,24.842 3.515,23.845" id="Fill-534" fill="#38454F" sketch:type="MSShapeGroup"></path>
            <path d="M6.028,13.758 L6.028,13.758 C5.564,12.76 6,11.565 6.997,11.1 L11.486,9.011 C12.483,8.546 13.679,8.983 14.143,9.98 C14.607,10.977 14.171,12.173 13.174,12.637 L8.685,14.727 C7.688,15.191 6.492,14.755 6.028,13.758" id="Fill-535" fill="#38454F" sketch:type="MSShapeGroup"></path>
            <path d="M12.028,28.845 L12.028,28.845 C11.564,27.848 12,26.652 12.997,26.188 L17.486,24.098 C18.483,23.634 19.679,24.07 20.143,25.067 C20.607,26.065 20.171,27.26 19.174,27.725 L14.685,29.814 C13.688,30.278 12.492,29.842 12.028,28.845" id="Fill-536" fill="#38454F" sketch:type="MSShapeGroup"></path>
            <path d="M30.329,44 C27.572,44 25.329,41.757 25.329,39 C25.329,36.243 27.572,34 30.329,34 C33.086,34 35.329,36.243 35.329,39 C35.329,41.757 33.086,44 30.329,44 L30.329,44 Z M30.329,36 C28.675,36 27.329,37.346 27.329,39 C27.329,40.654 28.675,42 30.329,42 C31.983,42 33.329,40.654 33.329,39 C33.329,37.346 31.983,36 30.329,36 L30.329,36 Z" id="Fill-968" fill="#38454F" sketch:type="MSShapeGroup"></path>
        </g>
    </g>
</svg>