<?xml version="1.0" encoding="UTF-8" standalone="no"?>
<svg width="60px" height="37px" viewBox="0 0 60 37" version="1.1" xmlns="http://www.w3.org/2000/svg" xmlns:xlink="http://www.w3.org/1999/xlink" xmlns:sketch="http://www.bohemiancoding.com/sketch/ns">
    <!-- Generator: Sketch 3.2.2 (9983) - http://www.bohemiancoding.com/sketch -->
    <title>77 - Bicycle (Flat)</title>
    <desc>Created with Sketch.</desc>
    <defs></defs>
    <g id="Page-1" stroke="none" stroke-width="1" fill="none" fill-rule="evenodd" sketch:type="MSPage">
        <g id="77---Bicycle-(Flat)" sketch:type="MSLayerGroup" transform="translate(1.000000, 0.000000)">
            <path d="M22.137,24.16 C22.137,30.22 17.238,35.134 11.193,35.134 C5.149,35.134 0.25,30.22 0.25,24.16 C0.25,18.099 5.149,13.185 11.193,13.185 C17.238,13.185 22.137,18.099 22.137,24.16 L22.137,24.16 Z" id="Fill-174" fill="#546A79" sketch:type="MSShapeGroup"></path>
            <path d="M22.137,24.16 C22.137,30.22 17.238,35.134 11.193,35.134 C5.149,35.134 0.25,30.22 0.25,24.16 C0.25,18.099 5.149,13.185 11.193,13.185 C17.238,13.185 22.137,18.099 22.137,24.16 L22.137,24.16 Z" id="Stroke-175" stroke="#38454F" stroke-width="2" sketch:type="MSShapeGroup"></path>
            <path d="M4.799,24.172 C4.747,24.172 4.694,24.168 4.64,24.159 C4.095,24.072 3.724,23.559 3.811,23.014 C4.235,20.367 6.042,18.125 8.525,17.161 C9.04,16.958 9.62,17.215 9.819,17.731 C10.019,18.246 9.764,18.825 9.249,19.025 C7.453,19.722 6.093,21.412 5.786,23.33 C5.707,23.822 5.282,24.172 4.799,24.172" id="Fill-176" fill="#77909E" sketch:type="MSShapeGroup"></path>
            <path d="M57.904,24.16 C57.904,30.22 53.004,35.134 46.961,35.134 C40.917,35.134 36.018,30.22 36.018,24.16 C36.018,18.099 40.917,13.185 46.961,13.185 C53.004,13.185 57.904,18.099 57.904,24.16 L57.904,24.16 Z" id="Fill-177" fill="#546A79" sketch:type="MSShapeGroup"></path>
            <path d="M57.904,24.16 C57.904,30.22 53.004,35.134 46.961,35.134 C40.917,35.134 36.018,30.22 36.018,24.16 C36.018,18.099 40.917,13.185 46.961,13.185 C53.004,13.185 57.904,18.099 57.904,24.16 L57.904,24.16 Z" id="Stroke-178" stroke="#38454F" stroke-width="2" sketch:type="MSShapeGroup"></path>
            <path d="M42.565,10.608 C47.195,8.582 51.371,9.687 54.568,12.054 M20,2 L22,2" id="Stroke-179" stroke="#38454F" stroke-width="2" stroke-linecap="round" sketch:type="MSShapeGroup"></path>
            <path d="M47.655,24.258 C47.698,24.07 47.705,23.873 47.63,23.68 L41.55,8 L42,8 C42.552,8 43,7.552 43,7 C43,6.448 42.552,6 42,6 L40.774,6 L40.675,5.745 C40.657,5.699 40.622,5.667 40.599,5.625 C40.581,5.592 40.56,5.563 40.539,5.532 C40.477,5.447 40.408,5.376 40.325,5.316 C40.3,5.297 40.289,5.268 40.261,5.251 C40.242,5.239 40.22,5.239 40.2,5.229 C40.139,5.197 40.075,5.178 40.007,5.16 C39.947,5.143 39.89,5.124 39.829,5.119 C39.768,5.114 39.708,5.122 39.646,5.128 C39.576,5.135 39.509,5.142 39.442,5.164 C39.422,5.17 39.402,5.167 39.382,5.174 C39.344,5.189 39.318,5.219 39.283,5.237 C39.221,5.27 39.162,5.304 39.107,5.35 C39.054,5.394 39.013,5.445 38.971,5.498 C38.945,5.531 38.91,5.552 38.888,5.588 L38.638,6 L22.029,6 L22.027,6 L22,6 C21.941,6 21.891,6.024 21.835,6.033 C21.769,6.044 21.703,6.042 21.639,6.067 L13.608,9.181 C13.093,9.38 12.837,9.96 13.037,10.475 C13.19,10.871 13.569,11.114 13.969,11.114 C14.09,11.114 14.212,11.092 14.331,11.046 L18.221,9.538 L27.974,24.701 C27.98,24.71 27.988,24.717 27.995,24.726 C28.008,24.745 28.024,24.76 28.039,24.778 C28.04,24.78 28.042,24.781 28.044,24.783 C28.027,24.855 28,24.923 28,25 C28,25.552 28.448,26 29,26 L47,26 C47.552,26 48,25.552 48,25 C48,24.701 47.863,24.441 47.655,24.258 L47.655,24.258 Z M20.124,8.8 L22.187,8 L37.428,8 L28.789,22.271 L20.124,8.8 L20.124,8.8 Z M30.08,24 L39.546,8.363 L45.61,24 L30.08,24 L30.08,24 Z" id="Fill-180" fill="#C03A2B" sketch:type="MSShapeGroup"></path>
            <path d="M54.424,24.172 C53.941,24.172 53.516,23.822 53.437,23.33 C53.13,21.412 51.771,19.722 49.975,19.025 C49.46,18.825 49.205,18.246 49.404,17.731 C49.603,17.215 50.183,16.96 50.698,17.161 C53.182,18.124 54.988,20.367 55.412,23.014 C55.499,23.559 55.128,24.072 54.583,24.159 C54.529,24.168 54.476,24.172 54.424,24.172" id="Fill-795" fill="#77909E" sketch:type="MSShapeGroup"></path>
            <path d="M20.044,0.031 C16.107,0.031 13.02,4.395 12.974,9.987 L9.992,23.951 C9.877,24.491 10.221,25.023 10.761,25.138 C10.832,25.153 10.902,25.16 10.971,25.16 C11.433,25.16 11.848,24.838 11.948,24.369 L14.947,10.322 C14.955,10.286 14.945,10.252 14.948,10.216 C14.952,10.181 14.969,10.15 14.969,10.113 C14.969,5.732 17.293,2.031 20.044,2.031 C20.597,2.031 21.044,1.583 21.044,1.031 C21.044,0.479 20.597,0.031 20.044,0.031" id="Fill-1018" fill="#BDC3C7" sketch:type="MSShapeGroup"></path>
            <path d="M40,5 L40,7" id="Stroke-1019" stroke="#BDC3C7" stroke-width="2" stroke-linecap="round" sketch:type="MSShapeGroup"></path>
            <path d="M37,4 L43,4" id="Stroke-1020" stroke="#CB8252" stroke-width="2" stroke-linecap="round" sketch:type="MSShapeGroup"></path>
        </g>
    </g>
</svg>