<?xml version="1.0" encoding="UTF-8" standalone="no"?>
<svg width="27px" height="58px" viewBox="0 0 27 58" version="1.1" xmlns="http://www.w3.org/2000/svg" xmlns:xlink="http://www.w3.org/1999/xlink" xmlns:sketch="http://www.bohemiancoding.com/sketch/ns">
    <!-- Generator: Sketch 3.2.2 (9983) - http://www.bohemiancoding.com/sketch -->
    <title>82 - Bottle (Flat)</title>
    <desc>Created with Sketch.</desc>
    <defs></defs>
    <g id="Page-1" stroke="none" stroke-width="1" fill="none" fill-rule="evenodd" sketch:type="MSPage">
        <g id="82---Bottle-(Flat)" sketch:type="MSLayerGroup">
            <path d="M6,10 L21,10 L21,14 L6,14 L6,10 Z" id="Fill-365" fill="#A4E869" sketch:type="MSShapeGroup"></path>
            <path d="M23,10 L4,10 C4,7.791 5.791,6 8,6 L19,6 C21.209,6 23,7.791 23,10" id="Fill-366" fill="#88C057" sketch:type="MSShapeGroup"></path>
            <path d="M17,3 L17,0 L10,0 L10,3 L10.653,3 C11.397,3 12,3.603 12,4.347 L12,6 L15,6 L15,4.347 C15,3.603 15.603,3 16.347,3 L17,3" id="Fill-625" fill="#BDC3C7" sketch:type="MSShapeGroup"></path>
            <path d="M2.668,36 L24.029,36 C24.026,35.333 24.036,34.667 24.056,34 L2.642,34 C2.662,34.667 2.671,35.333 2.668,36" id="Fill-626" fill="#88C057" sketch:type="MSShapeGroup"></path>
            <path d="M2.546,32.012 C2.568,32.011 2.586,32 2.607,32 L24.09,32 C24.112,32 24.13,32.011 24.151,32.012 C24.195,31.339 24.251,30.669 24.319,30 L2.378,30 C2.446,30.669 2.502,31.339 2.546,32.012" id="Fill-627" fill="#88C057" sketch:type="MSShapeGroup"></path>
            <path d="M2.426,42 C2.391,42 2.362,41.984 2.328,41.98 C2.266,42.542 2.2,43.103 2.121,43.659 L2.064,44 L24.617,44 L24.576,43.66 C24.497,43.103 24.432,42.542 24.369,41.98 C24.335,41.984 24.306,42 24.271,42 L2.426,42" id="Fill-628" fill="#88C057" sketch:type="MSShapeGroup"></path>
            <path d="M2.657,38 C2.646,38 2.636,37.994 2.625,37.994 C2.599,38.664 2.561,39.333 2.511,40 L24.186,40 C24.136,39.333 24.099,38.664 24.072,37.994 C24.061,37.994 24.052,38 24.041,38 L2.657,38" id="Fill-629" fill="#88C057" sketch:type="MSShapeGroup"></path>
            <path d="M23.759,14 L2.616,14 C1.111,14 -0.038,15.344 0.197,16.831 L1.474,24.035 C1.532,24.024 1.585,24 1.645,24 L24.988,24 C25.039,24 25.082,24.022 25.13,24.029 L26.178,16.831 C26.413,15.344 25.264,14 23.759,14" id="Fill-630" fill="#88C057" sketch:type="MSShapeGroup"></path>
            <path d="M1.896,46 C1.838,46 1.788,45.977 1.733,45.967 L0.982,50.428 C0.385,54.611 3.803,58.307 8.015,57.98 C12.028,57.668 15.517,57.708 18.356,57.891 C22.571,58.163 25.977,54.52 25.38,50.339 L24.855,45.976 C24.815,45.981 24.779,46 24.737,46 L1.896,46" id="Fill-631" fill="#88C057" sketch:type="MSShapeGroup"></path>
            <path d="M2,27 C2.054,27.34 2.095,27.685 2.142,28.027 C2.188,28.021 2.229,28 2.276,28 L24.421,28 C24.469,28 24.51,28.021 24.555,28.027 C24.603,27.685 24.644,27.34 24.697,27 L24.843,26 L1.823,26 L2,27" id="Fill-632" fill="#88C057" sketch:type="MSShapeGroup"></path>
            <path d="M1.645,24 C1.585,24 1.532,24.024 1.474,24.035 L1.823,26 L24.843,26 L25.13,24.029 C25.082,24.022 25.039,24 24.988,24 L1.645,24" id="Fill-633" fill="#A4E869" sketch:type="MSShapeGroup"></path>
            <path d="M2.276,28 C2.229,28 2.188,28.021 2.142,28.027 C2.232,28.682 2.311,29.339 2.378,30 L24.319,30 C24.386,29.339 24.465,28.682 24.555,28.027 C24.51,28.021 24.469,28 24.421,28 L2.276,28" id="Fill-634" fill="#A4E869" sketch:type="MSShapeGroup"></path>
            <path d="M2.607,32 C2.586,32 2.568,32.011 2.546,32.012 C2.589,32.674 2.621,33.336 2.642,34 L24.056,34 C24.076,33.336 24.108,32.674 24.151,32.012 C24.13,32.011 24.112,32 24.09,32 L2.607,32" id="Fill-635" fill="#A4E869" sketch:type="MSShapeGroup"></path>
            <path d="M2.625,37.994 C2.636,37.994 2.646,38 2.657,38 L24.041,38 C24.052,38 24.061,37.994 24.072,37.994 C24.046,37.33 24.032,36.665 24.029,36 L2.668,36 C2.665,36.665 2.651,37.33 2.625,37.994" id="Fill-636" fill="#A4E869" sketch:type="MSShapeGroup"></path>
            <path d="M2.328,41.98 C2.362,41.984 2.391,42 2.426,42 L24.271,42 C24.306,42 24.335,41.984 24.369,41.98 C24.296,41.323 24.236,40.663 24.186,40 L2.511,40 C2.461,40.663 2.401,41.323 2.328,41.98" id="Fill-637" fill="#A4E869" sketch:type="MSShapeGroup"></path>
            <path d="M1.733,45.967 C1.788,45.977 1.838,46 1.896,46 L24.737,46 C24.779,46 24.815,45.981 24.855,45.976 L24.617,44 L2.064,44 L1.733,45.967" id="Fill-638" fill="#A4E869" sketch:type="MSShapeGroup"></path>
        </g>
    </g>
</svg>