<?xml version="1.0" encoding="UTF-8" standalone="no"?>
<svg width="56px" height="56px" viewBox="0 0 56 56" version="1.1" xmlns="http://www.w3.org/2000/svg" xmlns:xlink="http://www.w3.org/1999/xlink" xmlns:sketch="http://www.bohemiancoding.com/sketch/ns">
    <!-- Generator: Sketch 3.2.2 (9983) - http://www.bohemiancoding.com/sketch -->
    <title>97 - Bowling Ball (Flat)</title>
    <desc>Created with Sketch.</desc>
    <defs></defs>
    <g id="Page-1" stroke="none" stroke-width="1" fill="none" fill-rule="evenodd" sketch:type="MSPage">
        <g id="97---Bowling-Ball-(Flat)" sketch:type="MSLayerGroup">
            <path d="M56,28 C56,43.464 43.464,56 28,56 C12.536,56 0,43.464 0,28 C0,12.536 12.536,0 28,0 C43.464,0 56,12.536 56,28" id="Fill-476" fill="#38454F" sketch:type="MSShapeGroup"></path>
            <path d="M32.167,40.583 C32.167,43.115 30.115,45.167 27.583,45.167 C25.052,45.167 23,43.115 23,40.583 C23,38.052 25.052,36 27.583,36 C30.115,36 32.167,38.052 32.167,40.583" id="Fill-482" fill="#546A79" sketch:type="MSShapeGroup"></path>
            <path d="M45.917,42.417 C45.917,44.948 43.865,47 41.333,47 C38.802,47 36.75,44.948 36.75,42.417 C36.75,39.885 38.802,37.833 41.333,37.833 C43.865,37.833 45.917,39.885 45.917,42.417" id="Fill-483" fill="#546A79" sketch:type="MSShapeGroup"></path>
            <path d="M40.417,29.583 C40.417,32.115 38.365,34.167 35.833,34.167 C33.302,34.167 31.25,32.115 31.25,29.583 C31.25,27.052 33.302,25 35.833,25 C38.365,25 40.417,27.052 40.417,29.583" id="Fill-484" fill="#546A79" sketch:type="MSShapeGroup"></path>
            <path d="M21.999,6.252 C21.577,6.252 21.184,5.982 21.047,5.559 C20.878,5.033 21.166,4.47 21.692,4.3 C24.366,3.437 27.162,3 30,3 C30.552,3 31,3.448 31,4 C31,4.552 30.552,5 30,5 C27.37,5 24.782,5.405 22.306,6.204 C22.204,6.236 22.101,6.252 21.999,6.252" id="Fill-485" fill="#546A79" sketch:type="MSShapeGroup"></path>
            <path d="M9.999,14.377 C9.773,14.377 9.547,14.301 9.36,14.146 C8.935,13.792 8.877,13.162 9.23,12.737 C11.765,9.69 14.997,7.196 18.577,5.524 C19.077,5.291 19.672,5.507 19.906,6.008 C20.139,6.508 19.923,7.103 19.422,7.337 C16.108,8.884 13.116,11.194 10.769,14.017 C10.571,14.254 10.286,14.377 9.999,14.377" id="Fill-486" fill="#546A79" sketch:type="MSShapeGroup"></path>
            <path d="M6.923,19 C6.768,19 6.61,18.964 6.462,18.887 C5.972,18.632 5.782,18.028 6.037,17.539 C6.219,17.187 6.41,16.841 6.607,16.5 C6.882,16.021 7.494,15.856 7.973,16.134 C8.451,16.411 8.615,17.023 8.338,17.5 C8.156,17.816 7.98,18.137 7.811,18.461 C7.633,18.804 7.284,19 6.923,19" id="Fill-487" fill="#546A79" sketch:type="MSShapeGroup"></path>
            <path d="M4,31 C3.448,31 3,30.552 3,30 C3,27.896 3.243,25.799 3.721,23.771 C3.848,23.232 4.386,22.896 4.924,23.027 C5.461,23.153 5.794,23.692 5.667,24.229 C5.225,26.108 5,28.05 5,30 C5,30.552 4.552,31 4,31" id="Fill-488" fill="#546A79" sketch:type="MSShapeGroup"></path>
        </g>
    </g>
</svg>