<?xml version="1.0" encoding="UTF-8" standalone="no"?>
<svg width="42px" height="54px" viewBox="0 0 42 54" version="1.1" xmlns="http://www.w3.org/2000/svg" xmlns:xlink="http://www.w3.org/1999/xlink" xmlns:sketch="http://www.bohemiancoding.com/sketch/ns">
    <!-- Generator: Sketch 3.2.2 (9983) - http://www.bohemiancoding.com/sketch -->
    <title>37 - Boxing Glove (Flat)</title>
    <desc>Created with Sketch.</desc>
    <defs></defs>
    <g id="Page-1" stroke="none" stroke-width="1" fill="none" fill-rule="evenodd" sketch:type="MSPage">
        <g id="37---Boxing-Glove-(Flat)" sketch:type="MSLayerGroup" transform="translate(-1.000000, 0.000000)">
            <path d="M39.478,1.984 C37.66,0.636 35.412,0 33.149,0 L17.066,0 C16.679,0 16.294,0.045 15.919,0.143 C14.016,0.644 8.509,2.659 8.509,9.198 L11,37 C11,37 14.226,39.06 20,40 L20.006,34.49 C20.006,31.284 22.919,28.934 26.135,29.001 C29.366,29.069 32,31.994 32,35.226 L32,40 C37.987,39.075 41,37 41,37 L43,9.198 C43,5.575 41.309,3.341 39.478,1.984" id="Fill-325" fill="#E64C3C" sketch:type="MSShapeGroup"></path>
            <path d="M32,40 L32,53 C37.311,52.107 40,50 40,50 L40,37.569 C38.667,38.252 36.002,39.382 32,40" id="Fill-326" fill="#38454F" sketch:type="MSShapeGroup"></path>
            <path d="M12,50 C12,50 15.197,51.986 20,53 L20,40 C16.098,39.365 13.365,38.22 12,37.543 L12,50" id="Fill-327" fill="#38454F" sketch:type="MSShapeGroup"></path>
            <path d="M38,16 C37.448,16 37,15.553 37,15 C37,10.037 32.962,6 28,6 C27.448,6 27,5.553 27,5 C27,4.447 27.448,4 28,4 C34.065,4 39,8.935 39,15 C39,15.553 38.552,16 38,16" id="Fill-328" fill="#ED7161" sketch:type="MSShapeGroup"></path>
            <path d="M1,16.701 L1,24.354 C1,25.12 1.281,25.861 1.791,26.434 L11,37 L8.849,12.991 C6.552,12.844 0.796,12.766 1,16.701" id="Fill-329" fill="#C03A2B" sketch:type="MSShapeGroup"></path>
            <path d="M39.478,1.984 C37.66,0.636 35.412,0 33.149,0 L17.066,0 C16.679,0 16.294,0.045 15.919,0.143 C14.016,0.644 8.509,2.659 8.509,9.198 L11,37 C11,37 14.226,39.06 20,40 L20.006,34.49 C20.006,31.284 22.919,28.934 26.135,29.001 C29.366,29.069 32,31.994 32,35.226 L32,40 C37.987,39.075 41,37 41,37 L43,9.198 C43,5.575 41.309,3.341 39.478,1.984" id="Fill-325" fill="#E64C3C" sketch:type="MSShapeGroup"></path>
            <path d="M1,16.701 L1,24.354 C1,25.12 1.281,25.861 1.791,26.434 L11,37 L8.849,12.991 C6.552,12.844 0.796,12.766 1,16.701" id="Fill-329" fill="#C03A2B" sketch:type="MSShapeGroup"></path>
            <path d="M20.006,34.49 C20.006,31.329 22.838,29 26,29 C29.162,29 32,31.444 32,34.605 L32,53 C27.018,54.15 24.694,54.198 20,53 L20.006,34.49" id="Fill-995" fill="#E6E7E8" sketch:type="MSShapeGroup"></path>
            <path d="M27.414,37 L29.707,34.707 C30.098,34.316 30.098,33.684 29.707,33.293 C29.316,32.902 28.684,32.902 28.293,33.293 L26,35.586 L23.707,33.293 C23.316,32.902 22.684,32.902 22.293,33.293 C21.902,33.684 21.902,34.316 22.293,34.707 L24.586,37 L22.293,39.293 C21.902,39.684 21.902,40.316 22.293,40.707 C22.488,40.902 22.744,41 23,41 C23.256,41 23.512,40.902 23.707,40.707 L26,38.414 L28.293,40.707 C28.488,40.902 28.744,41 29,41 C29.256,41 29.512,40.902 29.707,40.707 C30.098,40.316 30.098,39.684 29.707,39.293 L27.414,37" id="Fill-996" fill="#556080" sketch:type="MSShapeGroup"></path>
            <path d="M29.707,43.293 C29.316,42.902 28.684,42.902 28.293,43.293 L26,45.586 L23.707,43.293 C23.316,42.902 22.684,42.902 22.293,43.293 C21.902,43.684 21.902,44.316 22.293,44.707 L24.586,47 L22.293,49.293 C21.902,49.684 21.902,50.316 22.293,50.707 C22.488,50.902 22.744,51 23,51 C23.256,51 23.512,50.902 23.707,50.707 L26,48.414 L28.293,50.707 C28.488,50.902 28.744,51 29,51 C29.256,51 29.512,50.902 29.707,50.707 C30.098,50.316 30.098,49.684 29.707,49.293 L27.414,47 L29.707,44.707 C30.098,44.316 30.098,43.684 29.707,43.293" id="Fill-997" fill="#556080" sketch:type="MSShapeGroup"></path>
        </g>
    </g>
</svg>