<?xml version="1.0" encoding="UTF-8" standalone="no"?>
<svg width="58px" height="53px" viewBox="0 0 58 53" version="1.1" xmlns="http://www.w3.org/2000/svg" xmlns:xlink="http://www.w3.org/1999/xlink" xmlns:sketch="http://www.bohemiancoding.com/sketch/ns">
    <!-- Generator: Sketch 3.2.2 (9983) - http://www.bohemiancoding.com/sketch -->
    <title>6 - Cardio Bike (Flat)</title>
    <desc>Created with Sketch.</desc>
    <defs></defs>
    <g id="Page-1" stroke="none" stroke-width="1" fill="none" fill-rule="evenodd" sketch:type="MSPage">
        <g id="6---Cardio-Bike-(Flat)" sketch:type="MSLayerGroup">
            <path d="M3,50 L8,50 L8,52.94 L3,52.94 L3,50 Z" id="Fill-3" fill="#D1D4D1" sketch:type="MSShapeGroup"></path>
            <path d="M50,50 L55,50 L55,52.94 L50,52.94 L50,50 Z" id="Fill-4" fill="#D1D4D1" sketch:type="MSShapeGroup"></path>
            <path d="M58,31 C58,38.18 52.18,44 45,44 C37.82,44 32,38.18 32,31 C32,23.82 37.82,18 45,18 C52.18,18 58,23.82 58,31" id="Fill-868" fill="#38454F" sketch:type="MSShapeGroup"></path>
            <path d="M15.95,10 L4,10 C2.895,10 2,9.105 2,8 C2,6.895 2.895,6 4,6 L16.11,7.863 C16.622,7.942 17,8.383 17,8.901 L17,8.95 C17,9.53 16.53,10 15.95,10" id="Fill-869" fill="#546A79" sketch:type="MSShapeGroup"></path>
            <path d="M8,43 C7.298,43 6.626,42.873 6,42.651 L6,47 L10,47 L10,42.651 C9.374,42.873 8.702,43 8,43" id="Fill-870" fill="#D1D4D1" sketch:type="MSShapeGroup"></path>
            <path d="M8,31 C8.702,31 9.374,31.127 10,31.349 L10,10 L6,10 L6,31.349 C6.626,31.127 7.298,31 8,31" id="Fill-871" fill="#D1D4D1" sketch:type="MSShapeGroup"></path>
            <path d="M45,44 C44.318,44 43.654,43.932 43,43.831 L43,47 L47,47 L47,43.831 C46.346,43.932 45.682,44 45,44" id="Fill-872" fill="#D1D4D1" sketch:type="MSShapeGroup"></path>
            <path d="M48,31 C48,32.657 46.657,34 45,34 C43.343,34 42,32.657 42,31 C42,29.343 43.343,28 45,28 C46.657,28 48,29.343 48,31 L48,31 Z" id="Fill-873" fill="#FFFFFF" sketch:type="MSShapeGroup"></path>
            <path d="M48,31 C48,32.657 46.657,34 45,34 C43.343,34 42,32.657 42,31 C42,29.343 43.343,28 45,28 C46.657,28 48,29.343 48,31 L48,31 Z" id="Stroke-874" stroke="#546A79" stroke-width="2" sketch:type="MSShapeGroup"></path>
            <path d="M13.902,38.052 C13.853,38.328 13.788,38.599 13.702,38.861 C13.689,38.901 13.673,38.939 13.659,38.978 C13.573,39.226 13.471,39.465 13.354,39.697 C13.339,39.727 13.326,39.758 13.311,39.787 C13.18,40.036 13.03,40.273 12.867,40.499 C12.842,40.534 12.817,40.567 12.791,40.601 C12.444,41.062 12.033,41.471 11.569,41.815 C11.547,41.831 11.526,41.848 11.504,41.864 C11.265,42.036 11.015,42.192 10.751,42.328 C10.744,42.332 10.736,42.335 10.728,42.339 C10.456,42.478 10.174,42.598 9.881,42.695 L42.676,32.875 C42.259,32.36 42,31.714 42,31 L8,31 C11.314,31 14,33.686 14,37 C14,37.298 13.971,37.588 13.929,37.874 C13.92,37.933 13.913,37.993 13.902,38.052 L13.902,38.052 Z" id="Stroke-875" stroke="#546A79" stroke-width="2" stroke-linecap="round" stroke-linejoin="round" sketch:type="MSShapeGroup"></path>
            <path d="M45,18 C45.682,18 46.346,18.068 47,18.169 L47,14 L43,14 L43,18.169 C43.654,18.068 44.318,18 45,18" id="Fill-876" fill="#D1D4D1" sketch:type="MSShapeGroup"></path>
            <path d="M45,14 L45,8.071 L51,2.071 L55,2.071" id="Stroke-877" stroke="#ECF0F1" stroke-width="2" sketch:type="MSShapeGroup"></path>
            <path d="M55,0.071 L57,0.071 L58,1.071 L58,3.071 L57,4.071 L55,4.071 L54,3.071 L54,1.071 L55,0.071" id="Fill-878" fill="#38454F" sketch:type="MSShapeGroup"></path>
            <path d="M47.243,0.757 L43,5" id="Stroke-879" stroke="#38454F" stroke-width="2" sketch:type="MSShapeGroup"></path>
            <path d="M14,37 C14,40.314 11.314,43 8,43 C4.686,43 2,40.314 2,37 C2,33.686 4.686,31 8,31 C11.314,31 14,33.686 14,37 L14,37 Z" id="Fill-1090" fill="#38454F" sketch:type="MSShapeGroup"></path>
            <path d="M14,37 C14,40.314 11.314,43 8,43 C4.686,43 2,40.314 2,37 C2,33.686 4.686,31 8,31 C11.314,31 14,33.686 14,37 L14,37 Z" id="Stroke-1091" stroke="#546A79" stroke-width="2" sketch:type="MSShapeGroup"></path>
            <path d="M0,47 L58,47 L58,50 L0,50 L0,47 Z" id="Fill-1092" fill="#556080" sketch:type="MSShapeGroup"></path>
        </g>
    </g>
</svg>