<?xml version="1.0" encoding="UTF-8" standalone="no"?>
<svg width="52px" height="57px" viewBox="0 0 52 57" version="1.1" xmlns="http://www.w3.org/2000/svg" xmlns:xlink="http://www.w3.org/1999/xlink" xmlns:sketch="http://www.bohemiancoding.com/sketch/ns">
    <!-- Generator: Sketch 3.2.2 (9983) - http://www.bohemiancoding.com/sketch -->
    <title>61 - Chess (Flat)</title>
    <desc>Created with Sketch.</desc>
    <defs></defs>
    <g id="Page-1" stroke="none" stroke-width="1" fill="none" fill-rule="evenodd" sketch:type="MSPage">
        <g id="61---Chess-(Flat)" sketch:type="MSLayerGroup">
            <path d="M17,25 L7,25 L6.182,34 L17.818,34 L17,25" id="Fill-199" fill="#F9EBB0" sketch:type="MSShapeGroup"></path>
            <path d="M5,47 L19,47 L18.364,40 L5.636,40 L5,47" id="Fill-200" fill="#F9EBB0" sketch:type="MSShapeGroup"></path>
            <path d="M6,36 L5.818,38 L18.182,38 L18,36 L6,36" id="Fill-201" fill="#FBD490" sketch:type="MSShapeGroup"></path>
            <path d="M5.636,40 L18.364,40 L18.182,38 L5.818,38 L5.636,40" id="Fill-202" fill="#D6C990" sketch:type="MSShapeGroup"></path>
            <path d="M17.818,34 L6.182,34 L6,36 L18,36 L17.818,34" id="Fill-203" fill="#D6C990" sketch:type="MSShapeGroup"></path>
            <path d="M45,20 L33,20 C31.9,20 31,19.1 31,18 C31,16.9 31.9,16 33,16 L45,16 C46.1,16 47,16.9 47,18 C47,19.1 46.1,20 45,20" id="Fill-204" fill="#38454F" sketch:type="MSShapeGroup"></path>
            <path d="M16.627,3 L15,3 L15,1.372 C15,0.614 14.385,0 13.627,0 L10.372,0 C9.614,0 9,0.614 9,1.372 L9,3 L7.372,3 C6.614,3 6,3.614 6,4.372 L6,6.628 C6,7.386 6.614,8 7.372,8 L9,8 L9,11 L15,11 L15,8 L16.627,8 C17.385,8 18,7.386 18,6.628 L18,4.372 C18,3.614 17.385,3 16.627,3" id="Fill-205" fill="#FBD490" sketch:type="MSShapeGroup"></path>
            <path d="M18,20 L6,20 L4.403,12.813 C4.196,11.883 4.904,11 5.857,11 L18.143,11 C19.096,11 19.804,11.883 19.597,12.813 L18,20" id="Fill-206" fill="#F9EBB0" sketch:type="MSShapeGroup"></path>
            <path d="M46,47 L32,47 L34,25 L44,25 L46,47" id="Fill-226" fill="#38454F" sketch:type="MSShapeGroup"></path>
            <path d="M45,53 L33,53 C31.343,53 30,51.657 30,50 C30,48.343 31.343,47 33,47 L45,47 C46.657,47 48,48.343 48,50 C48,51.657 46.657,53 45,53" id="Fill-227" fill="#546A79" sketch:type="MSShapeGroup"></path>
            <path d="M49,57 L29,57 C27.895,57 27,56.105 27,55 C27,53.895 27.895,53 29,53 L49,53 C50.104,53 51,53.895 51,55 C51,56.105 50.104,57 49,57" id="Fill-228" fill="#38454F" sketch:type="MSShapeGroup"></path>
            <path d="M45.5,25 L32.5,25 C31.119,25 30,23.881 30,22.5 C30,21.119 31.119,20 32.5,20 L45.5,20 C46.881,20 48,21.119 48,22.5 C48,23.881 46.881,25 45.5,25" id="Fill-229" fill="#546A79" sketch:type="MSShapeGroup"></path>
            <path d="M18.5,25 L5.5,25 C4.119,25 3,23.881 3,22.5 C3,21.119 4.119,20 5.5,20 L18.5,20 C19.881,20 21,21.119 21,22.5 C21,23.881 19.881,25 18.5,25" id="Fill-230" fill="#FBD490" sketch:type="MSShapeGroup"></path>
            <path d="M18,53 L6,53 C4.343,53 3,51.657 3,50 C3,48.343 4.343,47 6,47 L18,47 C19.657,47 21,48.343 21,50 C21,51.657 19.657,53 18,53" id="Fill-231" fill="#FBD490" sketch:type="MSShapeGroup"></path>
            <path d="M22,57 L2,57 C0.895,57 0,56.105 0,55 C0,53.895 0.895,53 2,53 L22,53 C23.104,53 24,53.895 24,55 C24,56.105 23.104,57 22,57" id="Fill-232" fill="#F9EBB0" sketch:type="MSShapeGroup"></path>
            <path d="M48,5 L45.155,9.741 C45.059,9.902 44.885,10 44.698,10 L41.65,10 C41.314,10 41.062,9.692 41.127,9.362 L42,5 L36,5 L36.873,9.362 C36.938,9.692 36.686,10 36.35,10 L33.302,10 C33.115,10 32.941,9.902 32.845,9.741 L30,5 L26,5 L31,16 L47,16 L52,5 L48,5" id="Fill-678" fill="#546A79" sketch:type="MSShapeGroup"></path>
        </g>
    </g>
</svg>