<?xml version="1.0" encoding="UTF-8" standalone="no"?>
<svg width="58px" height="58px" viewBox="0 0 58 58" version="1.1" xmlns="http://www.w3.org/2000/svg" xmlns:xlink="http://www.w3.org/1999/xlink" xmlns:sketch="http://www.bohemiancoding.com/sketch/ns">
    <!-- Generator: Sketch 3.2.2 (9983) - http://www.bohemiancoding.com/sketch -->
    <title>53 - Counter (Flat)</title>
    <desc>Created with Sketch.</desc>
    <defs></defs>
    <g id="Page-1" stroke="none" stroke-width="1" fill="none" fill-rule="evenodd" sketch:type="MSPage">
        <g id="53---Counter-(Flat)" sketch:type="MSLayerGroup">
            <path d="M55.317,58 L2.683,58 C1.201,58 0,56.799 0,55.317 L0,2.683 C0,1.201 1.201,0 2.683,0 L55.317,0 C56.799,0 58,1.201 58,2.683 L58,55.317 C58,56.799 56.799,58 55.317,58" id="Fill-917" fill="#546A79" sketch:type="MSShapeGroup"></path>
            <path d="M38.806,22 L19.194,22 C17.928,22 16.847,21.085 16.639,19.836 L14.503,7.015 C14.24,5.437 15.457,4 17.057,4 L40.943,4 C42.543,4 43.76,5.437 43.497,7.015 L41.361,19.836 C41.152,21.085 40.072,22 38.806,22" id="Fill-918" fill="#48A0DC" sketch:type="MSShapeGroup"></path>
            <path d="M20,19 L28,19 L28,7 L20,7 L20,19 Z M22,14 L26,14 L26,17 L22,17 L22,14 Z M22,9 L26,9 L26,12 L22,12 L22,9 Z" id="Fill-919" fill="#87CDF4" sketch:type="MSShapeGroup"></path>
            <path d="M30,19 L38,19 L38,7 L30,7 L30,19 Z M32,9 L36,9 L36,12 L32,12 L32,9 Z M32,14 L36,14 L36,17 L32,17 L32,14 Z" id="Fill-920" fill="#87CDF4" sketch:type="MSShapeGroup"></path>
            <path d="M20,49 L8,49 C7.447,49 7,49.447 7,50 C7,50.553 7.447,51 8,51 L20,51 C20.553,51 21,50.553 21,50 C21,49.447 20.553,49 20,49" id="Fill-921" fill="#8697CB" sketch:type="MSShapeGroup"></path>
            <path d="M8,47 L19,47 C19.553,47 20,46.553 20,46 C20,45.447 19.553,45 19,45 L8,45 C7.447,45 7,45.447 7,46 C7,46.553 7.447,47 8,47" id="Fill-922" fill="#8697CB" sketch:type="MSShapeGroup"></path>
            <path d="M8,43 L17,43 C17.553,43 18,42.553 18,42 C18,41.447 17.553,41 17,41 L8,41 C7.447,41 7,41.447 7,42 C7,42.553 7.447,43 8,43" id="Fill-923" fill="#8697CB" sketch:type="MSShapeGroup"></path>
            <path d="M8,39 L17,39 C17.553,39 18,38.553 18,38 C18,37.447 17.553,37 17,37 L8,37 C7.447,37 7,37.447 7,38 C7,38.553 7.447,39 8,39" id="Fill-924" fill="#8697CB" sketch:type="MSShapeGroup"></path>
            <path d="M8,35 L19,35 C19.553,35 20,34.553 20,34 C20,33.447 19.553,33 19,33 L8,33 C7.447,33 7,33.447 7,34 C7,34.553 7.447,35 8,35" id="Fill-925" fill="#8697CB" sketch:type="MSShapeGroup"></path>
            <path d="M21,29 L8,29 C7.447,29 7,29.447 7,30 C7,30.553 7.447,31 8,31 L21,31 C21.553,31 22,30.553 22,30 C22,29.447 21.553,29 21,29" id="Fill-926" fill="#8697CB" sketch:type="MSShapeGroup"></path>
            <path d="M50,49 L38,49 C37.447,49 37,49.447 37,50 C37,50.553 37.447,51 38,51 L50,51 C50.553,51 51,50.553 51,50 C51,49.447 50.553,49 50,49" id="Fill-927" fill="#8697CB" sketch:type="MSShapeGroup"></path>
            <path d="M50,45 L39,45 C38.447,45 38,45.447 38,46 C38,46.553 38.447,47 39,47 L50,47 C50.553,47 51,46.553 51,46 C51,45.447 50.553,45 50,45" id="Fill-928" fill="#8697CB" sketch:type="MSShapeGroup"></path>
            <path d="M50,41 L41,41 C40.447,41 40,41.447 40,42 C40,42.553 40.447,43 41,43 L50,43 C50.553,43 51,42.553 51,42 C51,41.447 50.553,41 50,41" id="Fill-929" fill="#8697CB" sketch:type="MSShapeGroup"></path>
            <path d="M50,37 L41,37 C40.447,37 40,37.447 40,38 C40,38.553 40.447,39 41,39 L50,39 C50.553,39 51,38.553 51,38 C51,37.447 50.553,37 50,37" id="Fill-930" fill="#8697CB" sketch:type="MSShapeGroup"></path>
            <path d="M50,33 L39,33 C38.447,33 38,33.447 38,34 C38,34.553 38.447,35 39,35 L50,35 C50.553,35 51,34.553 51,34 C51,33.447 50.553,33 50,33" id="Fill-931" fill="#8697CB" sketch:type="MSShapeGroup"></path>
            <path d="M50,31 C50.553,31 51,30.553 51,30 C51,29.447 50.553,29 50,29 L37,29 C36.447,29 36,29.447 36,30 C36,30.553 36.447,31 37,31 L50,31" id="Fill-932" fill="#8697CB" sketch:type="MSShapeGroup"></path>
        </g>
    </g>
</svg>