<?xml version="1.0" encoding="UTF-8" standalone="no"?>
<svg width="57px" height="56px" viewBox="0 0 57 56" version="1.1" xmlns="http://www.w3.org/2000/svg" xmlns:xlink="http://www.w3.org/1999/xlink" xmlns:sketch="http://www.bohemiancoding.com/sketch/ns">
    <!-- Generator: Sketch 3.2.2 (9983) - http://www.bohemiancoding.com/sketch -->
    <title>44 - Cricket (Flat)</title>
    <desc>Created with Sketch.</desc>
    <defs></defs>
    <g id="Page-1" stroke="none" stroke-width="1" fill="none" fill-rule="evenodd" sketch:type="MSPage">
        <g id="44---Cricket-(Flat)" sketch:type="MSLayerGroup" transform="translate(0.000000, -1.000000)">
            <path d="M55.2,12.59 L44.459,1.848 C43.328,0.717 41.494,0.717 40.363,1.848 L11.99,30.222 C10.503,31.709 11.175,34.537 14.006,34.812 C15.108,34.919 15.582,36.268 14.799,37.051 L1.108,50.742 C0.301,51.549 0.301,52.858 1.108,53.666 L3.301,55.858 C4.108,56.666 5.417,56.666 6.225,55.858 L19.349,42.734 C20.354,41.729 21.989,42.275 22.342,43.651 C22.934,45.964 25.453,46.433 26.827,45.059 L35.807,36.078 C33.836,34.393 32.689,31.77 33.074,28.896 C33.545,25.39 36.39,22.545 39.896,22.074 C42.77,21.689 45.393,22.836 47.078,24.807 L55.2,16.685 C56.331,15.554 56.331,13.721 55.2,12.59" id="Fill-390" fill="#FAC176" sketch:type="MSShapeGroup"></path>
            <path d="M10.338,51.745 L13.166,48.917 L8.05,43.801 L5.221,46.629 L10.338,51.745" id="Fill-794" fill="#38454F" sketch:type="MSShapeGroup"></path>
            <path d="M49,30 C49,34.418 45.418,38 41,38 C36.582,38 33,34.418 33,30 C33,25.582 36.582,22 41,22 C45.418,22 49,25.582 49,30" id="Fill-1049" fill="#C2615F" sketch:type="MSShapeGroup"></path>
        </g>
    </g>
</svg>