<?xml version="1.0" encoding="UTF-8" standalone="no"?>
<svg width="56px" height="58px" viewBox="0 0 56 58" version="1.1" xmlns="http://www.w3.org/2000/svg" xmlns:xlink="http://www.w3.org/1999/xlink" xmlns:sketch="http://www.bohemiancoding.com/sketch/ns">
    <!-- Generator: Sketch 3.2.2 (9983) - http://www.bohemiancoding.com/sketch -->
    <title>84 - Cup (Flat)</title>
    <desc>Created with Sketch.</desc>
    <defs></defs>
    <g id="Page-1" stroke="none" stroke-width="1" fill="none" fill-rule="evenodd" sketch:type="MSPage">
        <g id="84---Cup-(Flat)" sketch:type="MSLayerGroup" transform="translate(-1.000000, 0.000000)">
            <path d="M28.604,34 L28.604,34 C20.596,34 14.104,27.508 14.104,19.5 L14.104,1.128 C14.104,0.505 14.609,0 15.232,0 L41.977,0 C42.599,0 43.104,0.505 43.104,1.128 L43.104,19.5 C43.104,27.508 36.612,34 28.604,34" id="Fill-360" fill="#F0C419" sketch:type="MSShapeGroup"></path>
            <path d="M41.104,58 L16.104,58 C16.104,54.686 18.791,52 22.104,52 L35.104,52 C38.418,52 41.104,54.686 41.104,58" id="Fill-361" fill="#F0C419" sketch:type="MSShapeGroup"></path>
            <path d="M32.104,38.257 L32.104,33.557 C30.982,33.836 29.813,34 28.604,34 C27.395,34 26.227,33.836 25.104,33.557 L25.104,38.257 C23.883,39.266 23.104,40.792 23.104,42.5 C23.104,44.208 23.883,45.734 25.104,46.743 L25.104,52 L32.104,52 L32.104,46.743 C33.326,45.734 34.104,44.208 34.104,42.5 C34.104,40.792 33.326,39.266 32.104,38.257" id="Fill-362" fill="#F29C1F" sketch:type="MSShapeGroup"></path>
            <path d="M28.714,4.566 L32.301,11.834 L40.323,13 L34.518,18.658 L35.888,26.647 L28.714,22.875 L21.539,26.647 L22.909,18.658 L17.104,13 L25.126,11.834 L28.714,4.566" id="Fill-363" fill="#F3D55B" sketch:type="MSShapeGroup"></path>
            <path d="M14.104,19.5 L14.104,2.228 C12.49,1.434 10.888,1.031 9.322,1.031 C5.581,1.031 3.407,3.341 3.388,3.363 C-0.185,7.341 0.307,13.713 4.491,17.575 L19.111,30.766 L19.111,30.444 C16.049,27.785 14.104,23.874 14.104,19.5 L14.104,19.5 Z M5.84,16.098 C2.463,12.981 2.03,7.868 4.857,4.719 C4.874,4.702 6.528,3.031 9.322,3.031 C10.849,3.031 12.451,3.522 14.091,4.491 L14.091,19.5 C14.091,21.117 14.338,22.695 14.818,24.199 L5.84,16.098 L5.84,16.098 Z" id="Fill-971" fill="#F29C1F" sketch:type="MSShapeGroup"></path>
            <path d="M53.727,3.435 C53.707,3.411 51.55,1.097 47.789,1.097 C46.255,1.097 44.686,1.484 43.104,2.246 L43.104,4.514 C44.716,3.577 46.289,3.097 47.789,3.097 C50.583,3.097 52.234,4.766 52.235,4.766 C55.08,7.935 54.648,13.048 51.28,16.157 L42.293,24.266 C42.301,24.241 42.306,24.216 42.314,24.191 C41.462,26.679 39.96,28.862 38,30.532 L38,30.833 L52.629,17.634 C56.804,13.779 57.295,7.408 53.727,3.435" id="Fill-972" fill="#F29C1F" sketch:type="MSShapeGroup"></path>
        </g>
    </g>
</svg>