<?xml version="1.0" encoding="UTF-8" standalone="no"?>
<svg width="56px" height="53px" viewBox="0 0 56 53" version="1.1" xmlns="http://www.w3.org/2000/svg" xmlns:xlink="http://www.w3.org/1999/xlink" xmlns:sketch="http://www.bohemiancoding.com/sketch/ns">
    <!-- Generator: Sketch 3.2.2 (9983) - http://www.bohemiancoding.com/sketch -->
    <title>40 - Curling (Flat)</title>
    <desc>Created with Sketch.</desc>
    <defs></defs>
    <g id="Page-1" stroke="none" stroke-width="1" fill="none" fill-rule="evenodd" sketch:type="MSPage">
        <g id="40---Curling-(Flat)" sketch:type="MSLayerGroup" transform="translate(0.000000, 1.000000)">
            <path d="M53.727,41.31 L53.275,41.584 C48.804,44.292 42.014,45.477 37.105,45.994 C37.069,45.998 37.034,46 36.998,46 C36.494,46 36.06,45.618 36.005,45.105 C35.948,44.556 36.346,44.064 36.895,44.006 C43.548,43.305 48.997,41.837 52.238,39.873 L52.69,39.599 C54.137,38.723 55,37.322 55,35.853 C55,35.3 55.448,34.853 56,34.853 L56,33.122 C55.444,33.978 54.68,34.732 53.727,35.31 L53.275,35.584 C50.843,37.057 47.452,38.234 43.196,39.084 C43.13,39.098 43.064,39.104 43,39.104 C42.532,39.104 42.115,38.774 42.02,38.299 C41.912,37.758 42.263,37.231 42.805,37.123 C46.775,36.33 50.038,35.206 52.238,33.873 L52.69,33.599 C54.137,32.723 55,31.322 55,29.853 C55,29.3 55.448,28.853 56,28.853 L56,26.607 C56,24.781 54.96,23.067 53.209,22.006 L52.758,21.732 C52.759,21.733 52.759,21.736 52.758,21.737 C48.306,24.14 38.493,26 28,26 C17.261,26 7.939,24.272 3.242,21.737 C3.241,21.736 3.241,21.733 3.242,21.732 L2.791,22.006 C1.039,23.067 0,24.781 0,26.607 L0,42.393 C0,44.219 1.039,45.933 2.791,46.994 L3.244,47.269 C13.653,53.577 42.347,53.577 52.756,47.269 L53.209,46.994 C54.96,45.933 56,44.219 56,42.393 L56,39.122 C55.444,39.978 54.68,40.732 53.727,41.31" id="Fill-343" fill="#B9C7EB" sketch:type="MSShapeGroup"></path>
            <path d="M55,35.853 C55,37.322 54.137,38.723 52.69,39.599 L52.238,39.873 C48.997,41.837 43.548,43.305 36.895,44.006 C36.346,44.064 35.948,44.556 36.005,45.105 C36.06,45.618 36.494,46 36.998,46 C37.034,46 37.069,45.998 37.105,45.994 C42.014,45.477 48.804,44.292 53.275,41.584 L53.727,41.31 C54.68,40.732 55.444,39.978 56,39.122 L56,34.853 C55.448,34.853 55,35.3 55,35.853" id="Fill-344" fill="#8697CB" sketch:type="MSShapeGroup"></path>
            <path d="M55,29.853 C55,31.322 54.137,32.723 52.69,33.599 L52.238,33.873 C50.038,35.206 46.775,36.33 42.805,37.123 C42.263,37.231 41.912,37.758 42.02,38.299 C42.115,38.774 42.532,39.104 43,39.104 C43.064,39.104 43.13,39.098 43.196,39.084 C47.452,38.234 50.843,37.057 53.275,35.584 L53.727,35.31 C54.68,34.732 55.444,33.978 56,33.122 L56,28.853 C55.448,28.853 55,29.3 55,29.853" id="Fill-345" fill="#8697CB" sketch:type="MSShapeGroup"></path>
            <path d="M52.758,21.732 C52.758,16.262 34.366,14.125 20,15.323 L20,10.583 C20,9.156 21.156,8 22.583,8 L36.828,8 C38.917,8 40.783,6.473 40.981,4.393 C41.209,2.008 39.339,0 37,0 L23.541,0 C17.167,0 12,5.167 12,11.541 L12,16.452 C6.797,17.568 3.242,19.328 3.242,21.732 C3.241,21.733 3.241,21.736 3.242,21.737 C7.939,24.272 17.261,26 28,26 C38.493,26 48.306,24.14 52.758,21.737 C52.759,21.736 52.759,21.733 52.758,21.732 L52.758,21.732 Z" id="Fill-998" fill="#546A79" sketch:type="MSShapeGroup"></path>
            <path d="M52.758,21.732 C52.758,16.262 34.366,14.125 20,15.323 L20,10.583 C20,9.156 21.156,8 22.583,8 L36.828,8 C38.917,8 40.783,6.473 40.981,4.393 C41.209,2.008 39.339,0 37,0 L23.541,0 C17.167,0 12,5.167 12,11.541 L12,16.452 C6.797,17.568 3.242,19.328 3.242,21.732 C3.241,21.733 3.241,21.736 3.242,21.737 C7.939,24.272 17.261,26 28,26 C38.493,26 48.306,24.14 52.758,21.737 C52.759,21.736 52.759,21.733 52.758,21.732 L52.758,21.732 Z" id="Stroke-999" stroke="#38454F" stroke-width="2" stroke-linecap="round" sketch:type="MSShapeGroup"></path>
            <path d="M22,19 C21.449,19 21,18.552 21,18 L21,15 C21,14.447 20.552,14 20,14 C19.448,14 19,14.447 19,15 L19,18 C19,19.654 20.346,21 22,21 C22.552,21 23,20.553 23,20 C23,19.447 22.552,19 22,19" id="Fill-1000" fill="#38454F" sketch:type="MSShapeGroup"></path>
            <path d="M12,14 C11.448,14 11,14.447 11,15 L11,18 C11,18.552 10.551,19 10,19 C9.448,19 9,19.447 9,20 C9,20.553 9.448,21 10,21 C11.654,21 13,19.654 13,18 L13,15 C13,14.447 12.552,14 12,14" id="Fill-1001" fill="#38454F" sketch:type="MSShapeGroup"></path>
        </g>
    </g>
</svg>