<?xml version="1.0" encoding="UTF-8" standalone="no"?>
<svg width="56px" height="56px" viewBox="0 0 56 56" version="1.1" xmlns="http://www.w3.org/2000/svg" xmlns:xlink="http://www.w3.org/1999/xlink" xmlns:sketch="http://www.bohemiancoding.com/sketch/ns">
    <!-- Generator: Sketch 3.2.2 (9983) - http://www.bohemiancoding.com/sketch -->
    <title>62 - Darts (Flat)</title>
    <desc>Created with Sketch.</desc>
    <defs></defs>
    <g id="Page-1" stroke="none" stroke-width="1" fill="none" fill-rule="evenodd" sketch:type="MSPage">
        <g id="62---Darts-(Flat)" sketch:type="MSLayerGroup" transform="translate(-1.000000, 0.000000)">
            <path d="M39.194,19.956 L49.172,22.678 L56.429,15.421 L51.893,7.257 L39.194,19.956" id="Fill-223" fill="#26B99A" sketch:type="MSShapeGroup"></path>
            <path d="M36.472,17.235 L33.751,7.257 L41.008,0 L49.172,4.536 L36.472,17.235" id="Fill-224" fill="#13A085" sketch:type="MSShapeGroup"></path>
            <path d="M31.483,24.945 C31.995,25.457 32.285,26.104 32.377,26.773 L51.893,7.257 C52.611,6.449 52.655,5.302 51.891,4.538 C51.127,3.774 49.979,3.818 49.172,4.536 L29.656,24.052 C30.325,24.144 30.972,24.434 31.483,24.945" id="Fill-225" fill="#BAD4E2" sketch:type="MSShapeGroup"></path>
            <path d="M12.027,45.402 L11.027,44.402 C10.055,43.43 10.055,41.839 11.027,40.866 L27.448,24.445 C28.42,23.473 30.011,23.473 30.983,24.445 L31.983,25.445 C32.956,26.418 32.956,28.009 31.983,28.981 L15.562,45.402 C14.59,46.374 12.999,46.374 12.027,45.402" id="Fill-1036" fill="#ECF0F1" sketch:type="MSShapeGroup"></path>
            <path d="M12.831,39.062 L17.367,43.598 L18.781,42.184 L14.245,37.648 L12.831,39.062" id="Fill-1037" fill="#BDC3C7" sketch:type="MSShapeGroup"></path>
            <path d="M16.26,35.633 L20.796,40.169 L22.21,38.754 L17.674,34.219 L16.26,35.633" id="Fill-1038" fill="#BDC3C7" sketch:type="MSShapeGroup"></path>
            <path d="M19.889,32.004 L24.424,36.54 L25.838,35.126 L21.303,30.59 L19.889,32.004" id="Fill-1039" fill="#BDC3C7" sketch:type="MSShapeGroup"></path>
            <path d="M24.931,26.962 L23.517,28.376 L28.053,32.912 L29.467,31.498 L24.931,26.962" id="Fill-1040" fill="#BDC3C7" sketch:type="MSShapeGroup"></path>
            <path d="M12.027,45.402 L11.027,44.402 C10.956,44.331 10.902,44.251 10.841,44.174 L1.293,53.722 C0.902,54.112 0.902,54.745 1.293,55.136 C1.488,55.331 1.744,55.429 2,55.429 C2.256,55.429 2.512,55.331 2.707,55.136 L12.255,45.588 C12.178,45.527 12.098,45.473 12.027,45.402" id="Fill-1041" fill="#BDC3C7" sketch:type="MSShapeGroup"></path>
        </g>
    </g>
</svg>