<?xml version="1.0" encoding="UTF-8" standalone="no"?>
<svg width="39px" height="53px" viewBox="0 0 39 53" version="1.1" xmlns="http://www.w3.org/2000/svg" xmlns:xlink="http://www.w3.org/1999/xlink" xmlns:sketch="http://www.bohemiancoding.com/sketch/ns">
    <!-- Generator: Sketch 3.2.2 (9983) - http://www.bohemiancoding.com/sketch -->
    <title>59 - Dumbbell (Flat)</title>
    <desc>Created with Sketch.</desc>
    <defs></defs>
    <g id="Page-1" stroke="none" stroke-width="1" fill="none" fill-rule="evenodd" sketch:type="MSPage">
        <g id="59---Dumbbell-(Flat)" sketch:type="MSLayerGroup">
            <path d="M29.243,26.622 L27.817,25.908 C26.703,25.352 26,24.214 26,22.969 L26,10.26 C26,9.012 24.988,8 23.74,8 L15.26,8 C14.012,8 13,9.012 13,10.26 L13,22.969 C13,24.214 12.297,25.352 11.183,25.908 L9.757,26.622 C7.571,27.714 5,26.125 5,23.682 L5,7.747 C5,3.469 8.469,0 12.747,0 L26.253,0 C30.531,0 34,3.469 34,7.747 L34,23.682 C34,26.125 31.429,27.714 29.243,26.622" id="Fill-587" fill="#38454F" sketch:type="MSShapeGroup"></path>
            <path d="M34,20.494 L34,23.682 C34,26.125 31.429,27.714 29.243,26.622 L27.817,25.908 C26.703,25.352 26,24.214 26,22.969 L26,15.133 C23.964,14.413 21.783,14 19.5,14 C17.217,14 15.036,14.413 13,15.133 L13,22.969 C13,24.214 12.297,25.352 11.183,25.908 L9.757,26.622 C7.571,27.714 5,26.125 5,23.682 L5,20.494 C1.901,23.947 0,28.496 0,33.5 C0,44.27 8.73,53 19.5,53 C30.27,53 39,44.27 39,33.5 C39,28.496 37.099,23.947 34,20.494" id="Fill-588" fill="#556080" sketch:type="MSShapeGroup"></path>
            <path d="M29.243,26.622 L27.817,25.908 C26.703,25.352 26,24.214 26,22.969 L26,10.26 C26,9.012 24.988,8 23.74,8 L15.26,8 C14.012,8 13,9.012 13,10.26 L13,22.969 C13,24.214 12.297,25.352 11.183,25.908 L9.757,26.622 C7.571,27.714 5,26.125 5,23.682 L5,7.747 C5,3.469 8.469,0 12.747,0 L26.253,0 C30.531,0 34,3.469 34,7.747 L34,23.682 C34,26.125 31.429,27.714 29.243,26.622" id="Fill-587" fill="#38454F" sketch:type="MSShapeGroup"></path>
            <path d="M34,20.494 L34,23.682 C34,26.125 31.429,27.714 29.243,26.622 L27.817,25.908 C26.703,25.352 26,24.214 26,22.969 L26,15.133 C23.964,14.413 21.783,14 19.5,14 C17.217,14 15.036,14.413 13,15.133 L13,22.969 C13,24.214 12.297,25.352 11.183,25.908 L9.757,26.622 C7.571,27.714 5,26.125 5,23.682 L5,20.494 C1.901,23.947 0,28.496 0,33.5 C0,44.27 8.73,53 19.5,53 C30.27,53 39,44.27 39,33.5 C39,28.496 37.099,23.947 34,20.494" id="Fill-588" fill="#556080" sketch:type="MSShapeGroup"></path>
            <path d="M20,46 L19.997,46 C16.231,46 12.525,44.285 10.085,41.414 C9.727,40.994 9.096,40.942 8.676,41.3 C8.255,41.657 8.204,42.288 8.561,42.709 C11.376,46.023 15.651,48 19.997,48 L20,48 C20.553,48 21,47.552 21,47 C21,46.447 20.552,46 20,46" id="Fill-589" fill="#8697CB" sketch:type="MSShapeGroup"></path>
            <path d="M7,33 C7,32.448 6.553,32 6,32 C5.448,32 5,32.447 5,33 C4.999,34.896 5.349,36.744 6.037,38.495 C6.192,38.889 6.569,39.129 6.968,39.129 C7.09,39.129 7.214,39.106 7.334,39.06 C7.848,38.857 8.101,38.276 7.898,37.763 C7.302,36.246 6.999,34.644 7,33" id="Fill-590" fill="#8697CB" sketch:type="MSShapeGroup"></path>
        </g>
    </g>
</svg>