<?xml version="1.0" encoding="UTF-8" standalone="no"?>
<svg width="59px" height="52px" viewBox="0 0 59 52" version="1.1" xmlns="http://www.w3.org/2000/svg" xmlns:xlink="http://www.w3.org/1999/xlink" xmlns:sketch="http://www.bohemiancoding.com/sketch/ns">
    <!-- Generator: Sketch 3.2.2 (9983) - http://www.bohemiancoding.com/sketch -->
    <title>87 - Fishing (Flat)</title>
    <desc>Created with Sketch.</desc>
    <defs></defs>
    <g id="Page-1" stroke="none" stroke-width="1" fill="none" fill-rule="evenodd" sketch:type="MSPage">
        <g id="87---Fishing-(Flat)" sketch:type="MSLayerGroup" transform="translate(0.000000, 1.000000)">
            <path d="M45.121,40.763 L45.93,41.572 C46.563,42.205 47.507,42.484 48.35,42.182 C49.565,41.746 51.006,42.12 51.836,43.303 C52.539,44.306 52.539,45.706 51.836,46.709 C50.73,48.285 48.54,48.424 47.243,47.127" id="Stroke-541" stroke="#FDD7AD" stroke-width="2" stroke-linecap="round" sketch:type="MSShapeGroup"></path>
            <path d="M45.001,5.658 L46.567,4.093 C50.684,-0.025 57.904,2.704 57.999,8.527 C58,8.571 58,8.615 58,8.659 C58,8.905 57.989,9.148 57.967,9.387 C57.51,14.451 52.047,17.478 47.327,15.59 C46.55,15.279 45.842,14.818 45.244,14.232 L42.233,11.282" id="Stroke-542" stroke="#E6E6E6" stroke-width="2" stroke-linecap="round" sketch:type="MSShapeGroup"></path>
            <path d="M47,36.156 L44.414,36.156 L46.707,33.863 C47.098,33.473 47.098,32.84 46.707,32.449 C46.316,32.059 45.684,32.059 45.293,32.449 L43,34.742 L43,32.156 C43,31.604 42.552,31.156 42,31.156 C41.448,31.156 41,31.604 41,32.156 L41,36.156 L37,36.156 C36.448,36.156 36,36.604 36,37.156 C36,37.708 36.448,38.156 37,38.156 L39.586,38.156 L37.293,40.449 C36.902,40.84 36.902,41.473 37.293,41.863 C37.488,42.059 37.744,42.156 38,42.156 C38.256,42.156 38.512,42.059 38.707,41.863 L41,39.57 L41,42.156 C41,42.708 41.448,43.156 42,43.156 C42.552,43.156 43,42.708 43,42.156 L43,38.156 L47,38.156 C47.552,38.156 48,37.708 48,37.156 C48,36.604 47.552,36.156 47,36.156" id="Fill-543" fill="#ED7161" sketch:type="MSShapeGroup"></path>
            <path d="M11,37.156 C11,37.06 11.011,36.966 11.014,36.87 L0.95,46.935 C0.634,47.25 0.634,47.763 0.95,48.079 L2.634,49.763 C2.95,50.079 3.462,50.079 3.778,49.763 L12.313,41.228 C11.49,40.08 11,38.677 11,37.156" id="Fill-544" fill="#38454F" sketch:type="MSShapeGroup"></path>
            <path d="M42.818,7.895 C42.037,7.114 40.771,7.114 39.99,7.895 L17.713,30.171 C17.809,30.167 17.903,30.156 18,30.156 C19.52,30.156 20.923,30.646 22.071,31.47 L42.818,10.723 C43.599,9.942 43.599,8.676 42.818,7.895" id="Fill-545" fill="#38454F" sketch:type="MSShapeGroup"></path>
            <path d="M25,37.156 C25,41.022 21.866,44.156 18,44.156 C14.134,44.156 11,41.022 11,37.156 C11,33.29 14.134,30.156 18,30.156 C21.866,30.156 25,33.29 25,37.156" id="Fill-964" fill="#95A5A5" sketch:type="MSShapeGroup"></path>
            <path d="M22,37.156 C22,39.366 20.209,41.156 18,41.156 C15.791,41.156 14,39.366 14,37.156 C14,34.947 15.791,33.156 18,33.156 C20.209,33.156 22,34.947 22,37.156" id="Fill-965" fill="#BDC3C7" sketch:type="MSShapeGroup"></path>
            <path d="M27.707,45.449 L18.707,36.449 C18.316,36.059 17.684,36.059 17.293,36.449 C16.902,36.84 16.902,37.473 17.293,37.863 L25.586,46.156 L23.293,48.449 C22.902,48.84 22.902,49.473 23.293,49.863 C23.488,50.059 23.744,50.156 24,50.156 C24.256,50.156 24.512,50.059 24.707,49.863 L27.707,46.863 C28.098,46.473 28.098,45.84 27.707,45.449" id="Fill-966" fill="#38454F" sketch:type="MSShapeGroup"></path>
            <path d="M39.368,8.476 L37,6.156 C26.646,-4.198 15.058,1.077 15.858,8.756 C16.039,10.491 16.921,12.078 18.155,13.311 L34,29.156 L38.68,34.136" id="Stroke-967" stroke="#E6E6E6" stroke-width="2" stroke-linecap="round" sketch:type="MSShapeGroup"></path>
        </g>
    </g>
</svg>