<?xml version="1.0" encoding="UTF-8" standalone="no"?>
<svg width="51px" height="55px" viewBox="0 0 51 55" version="1.1" xmlns="http://www.w3.org/2000/svg" xmlns:xlink="http://www.w3.org/1999/xlink" xmlns:sketch="http://www.bohemiancoding.com/sketch/ns">
    <!-- Generator: Sketch 3.2.2 (9983) - http://www.bohemiancoding.com/sketch -->
    <title>42 - Football Jersey (Flat)</title>
    <desc>Created with Sketch.</desc>
    <defs></defs>
    <g id="Page-1" stroke="none" stroke-width="1" fill="none" fill-rule="evenodd" sketch:type="MSPage">
        <g id="42---Football-Jersey-(Flat)" sketch:type="MSLayerGroup" transform="translate(1.000000, 0.000000)">
            <path d="M32,0 L16,0 C15.447,0 15,0.447 15,1 L15,7 C15,7.553 15.447,8 16,8 L32,8 C32.553,8 33,7.553 33,7 L33,1 C33,0.447 32.553,0 32,0" id="Fill-43" fill="#7A3726" sketch:type="MSShapeGroup"></path>
            <path d="M49,23 L49,11 C48.963,8.975 47.744,7.558 46.415,6.611 C44.876,5.516 43,5 41.112,5 L40.623,5 C39.565,5 38.53,4.687 37.649,4.099 L32,1 L25.797,5.43 C25.281,5.799 24.663,6.001 24.028,6.004 L24,6.004 C23.356,6.006 22.726,5.804 22.203,5.43 L16,1 L12.351,4.099 C11.47,4.687 10.435,5 9.377,5 L7.888,5 C6,5 4.124,5.516 2.585,6.611 C1.256,7.558 0.037,8.975 0,11 L0,23 L9,23 C9,23 12.833,42.917 7,49 C7,49 10.632,54.237 19.642,54 C22.215,53.933 26.435,53.932 29.008,54 C38.02,54.238 42,49 42,49 C36.167,42.917 40,23 40,23 L49,23 L49,23 Z" id="Fill-117" fill="#E64C3C" sketch:type="MSShapeGroup"></path>
            <path d="M49,23 L49,11 C48.963,8.975 47.744,7.558 46.415,6.611 C44.876,5.516 43,5 41.112,5 L40.623,5 C39.565,5 38.53,4.687 37.649,4.099 L32,1 L25.797,5.43 C25.281,5.799 24.663,6.001 24.028,6.004 L24,6.004 C23.356,6.006 22.726,5.804 22.203,5.43 L16,1 L12.351,4.099 C11.47,4.687 10.435,5 9.377,5 L7.888,5 C6,5 4.124,5.516 2.585,6.611 C1.256,7.558 0.037,8.975 0,11 L0,23 L9,23 C9,23 12.833,42.917 7,49 C7,49 10.632,54.237 19.642,54 C22.215,53.933 26.435,53.932 29.008,54 C38.02,54.238 42,49 42,49 C36.167,42.917 40,23 40,23 L49,23 L49,23 Z" id="Stroke-118" stroke="#C03A2B" stroke-width="2" stroke-linecap="round" stroke-linejoin="round" sketch:type="MSShapeGroup"></path>
            <path d="M36,44 L13,44 C12.447,44 12,43.553 12,43 C12,42.447 12.447,42 13,42 L36,42 C36.553,42 37,42.447 37,43 C37,43.553 36.553,44 36,44" id="Fill-277" fill="#F0C419" sketch:type="MSShapeGroup"></path>
            <path d="M35,39 L14,39 C13.447,39 13,38.553 13,38 C13,37.447 13.447,37 14,37 L35,37 C35.553,37 36,37.447 36,38 C36,38.553 35.553,39 35,39" id="Fill-278" fill="#F0C419" sketch:type="MSShapeGroup"></path>
            <path d="M35,34 L14,34 C13.447,34 13,33.553 13,33 C13,32.447 13.447,32 14,32 L35,32 C35.553,32 36,32.447 36,33 C36,33.553 35.553,34 35,34" id="Fill-279" fill="#F0C419" sketch:type="MSShapeGroup"></path>
            <path d="M34.607,17 C35.465,16.278 36,15.226 36,14 C36,11.72 34.188,10 31.786,10 L29.643,10 C27.24,10 25.429,11.72 25.429,14 C25.429,15.226 25.964,16.278 26.821,17 C25.964,17.722 25.429,18.774 25.429,20 C25.429,22.28 27.24,24 29.643,24 L31.786,24 C34.188,24 36,22.28 36,20 C36,18.774 35.465,17.722 34.607,17 L34.607,17 Z M27.429,14 C27.429,12.687 28.542,12 29.643,12 L31.786,12 C32.887,12 34,12.687 34,14 C34,15.313 32.887,16 31.786,16 L29.643,16 C28.542,16 27.429,15.313 27.429,14 L27.429,14 Z M31.786,22 L29.643,22 C28.542,22 27.429,21.313 27.429,20 C27.429,18.687 28.542,18 29.643,18 L31.786,18 C32.887,18 34,18.687 34,20 C34,21.313 32.887,22 31.786,22 L31.786,22 Z" id="Fill-281" fill="#F0C419" sketch:type="MSShapeGroup"></path>
            <path d="M23.571,14 C23.571,11.72 21.76,10 19.357,10 L17.214,10 C14.812,10 13,11.72 13,14 C13,15.226 13.535,16.278 14.393,17 C13.535,17.722 13,18.774 13,20 C13,22.28 14.812,24 17.214,24 L19.357,24 C21.76,24 23.571,22.28 23.571,20 C23.571,18.774 23.036,17.722 22.179,17 C23.036,16.278 23.571,15.226 23.571,14 L23.571,14 Z M21.571,20 C21.571,21.313 20.458,22 19.357,22 L17.214,22 C16.113,22 15,21.313 15,20 C15,18.687 16.113,18 17.214,18 L19.357,18 C20.458,18 21.571,18.687 21.571,20 L21.571,20 Z M17.214,16 C16.113,16 15,15.313 15,14 C15,12.687 16.113,12 17.214,12 L19.357,12 C20.458,12 21.571,12.687 21.571,14 C21.571,15.313 20.458,16 19.357,16 L17.214,16 L17.214,16 Z" id="Fill-282" fill="#F0C419" sketch:type="MSShapeGroup"></path>
            <path d="M9,23 L9,12 M40,23 L40,12" id="Stroke-287" stroke="#C03A2B" stroke-width="2" stroke-linecap="round" stroke-linejoin="round" sketch:type="MSShapeGroup"></path>
        </g>
    </g>
</svg>