<?xml version="1.0" encoding="UTF-8" standalone="no"?>
<svg width="56px" height="56px" viewBox="0 0 56 56" version="1.1" xmlns="http://www.w3.org/2000/svg" xmlns:xlink="http://www.w3.org/1999/xlink" xmlns:sketch="http://www.bohemiancoding.com/sketch/ns">
    <!-- Generator: Sketch 3.2.2 (9983) - http://www.bohemiancoding.com/sketch -->
    <title>100 - Football (Flat)</title>
    <desc>Created with Sketch.</desc>
    <defs></defs>
    <g id="Page-1" stroke="none" stroke-width="1" fill="none" fill-rule="evenodd" sketch:type="MSPage">
        <g id="100---Football-(Flat)" sketch:type="MSLayerGroup">
            <path d="M0,49.554 L0,45.917 C0,20.557 20.557,0 45.917,0 L49.554,0 C53.114,0 56,2.886 56,6.446 L56,10.083 C56,35.443 35.442,56 10.083,56 L6.446,56 C2.886,56 0,53.114 0,49.554" id="Fill-128" fill="#D25627" sketch:type="MSShapeGroup"></path>
            <path d="M56,10.083 L56,6.446 C56,5.026 55.535,3.718 54.757,2.653 C27.205,10.747 13.696,19.324 3.599,55.331 C4.459,55.755 5.423,56 6.446,56 L10.084,56 C35.442,56 56,35.443 56,10.083" id="Fill-129" fill="#964229" sketch:type="MSShapeGroup"></path>
            <path d="M37.707,14.293 L30.707,7.293 C30.316,6.902 29.684,6.902 29.293,7.293 C28.902,7.684 28.902,8.316 29.293,8.707 L36.293,15.707 C36.488,15.902 36.744,16 37,16 C37.256,16 37.512,15.902 37.707,15.707 C38.098,15.316 38.098,14.684 37.707,14.293" id="Fill-466" fill="#ECF0F1" sketch:type="MSShapeGroup"></path>
            <path d="M5.707,36.293 C5.316,35.902 4.684,35.902 4.293,36.293 C3.902,36.684 3.902,37.316 4.293,37.707 L11.293,44.707 C11.488,44.902 11.744,45 12,45 C12.256,45 12.512,44.902 12.707,44.707 C13.098,44.316 13.098,43.684 12.707,43.293 L5.707,36.293" id="Fill-467" fill="#ECF0F1" sketch:type="MSShapeGroup"></path>
            <path d="M19.707,14.293 C19.316,13.902 18.684,13.902 18.293,14.293 C17.902,14.684 17.902,15.316 18.293,15.707 L25.293,22.707 C25.488,22.902 25.744,23 26,23 C26.256,23 26.512,22.902 26.707,22.707 C27.098,22.316 27.098,21.684 26.707,21.293 L19.707,14.293" id="Fill-468" fill="#ECF0F1" sketch:type="MSShapeGroup"></path>
            <path d="M8.707,30.293 C8.316,29.902 7.684,29.902 7.293,30.293 C6.902,30.684 6.902,31.316 7.293,31.707 L14.293,38.707 C14.488,38.902 14.744,39 15,39 C15.256,39 15.512,38.902 15.707,38.707 C16.098,38.316 16.098,37.684 15.707,37.293 L8.707,30.293" id="Fill-469" fill="#ECF0F1" sketch:type="MSShapeGroup"></path>
            <path d="M15.707,19.293 C15.316,18.902 14.684,18.902 14.293,19.293 C13.902,19.684 13.902,20.316 14.293,20.707 L21.293,27.707 C21.488,27.902 21.744,28 22,28 C22.256,28 22.512,27.902 22.707,27.707 C23.098,27.316 23.098,26.684 22.707,26.293 L15.707,19.293" id="Fill-470" fill="#ECF0F1" sketch:type="MSShapeGroup"></path>
            <path d="M24.707,10.293 C24.316,9.902 23.684,9.902 23.293,10.293 C22.902,10.684 22.902,11.316 23.293,11.707 L30.293,18.707 C30.488,18.902 30.744,19 31,19 C31.256,19 31.512,18.902 31.707,18.707 C32.098,18.316 32.098,17.684 31.707,17.293 L24.707,10.293" id="Fill-471" fill="#ECF0F1" sketch:type="MSShapeGroup"></path>
            <path d="M11.707,24.293 C11.316,23.902 10.684,23.902 10.293,24.293 C9.902,24.684 9.902,25.316 10.293,25.707 L17.293,32.707 C17.488,32.902 17.744,33 18,33 C18.256,33 18.512,32.902 18.707,32.707 C19.098,32.316 19.098,31.684 18.707,31.293 L11.707,24.293" id="Fill-472" fill="#ECF0F1" sketch:type="MSShapeGroup"></path>
        </g>
    </g>
</svg>