<?xml version="1.0" encoding="UTF-8" standalone="no"?>
<svg width="58px" height="46px" viewBox="0 0 58 46" version="1.1" xmlns="http://www.w3.org/2000/svg" xmlns:xlink="http://www.w3.org/1999/xlink" xmlns:sketch="http://www.bohemiancoding.com/sketch/ns">
    <!-- Generator: Sketch 3.2.2 (9983) - http://www.bohemiancoding.com/sketch -->
    <title>73 - Football Helmet (Flat)</title>
    <desc>Created with Sketch.</desc>
    <defs></defs>
    <g id="Page-1" stroke="none" stroke-width="1" fill="none" fill-rule="evenodd" sketch:type="MSPage">
        <g id="73---Football-Helmet-(Flat)" sketch:type="MSLayerGroup">
            <path d="M15.396,3.226 C2.334,9.007 -1.622,24.021 3.438,37.244 C3.768,38.106 4.737,38.534 5.581,38.16 L9.385,36.477 C11.278,35.639 13.444,36.251 14.753,37.854 C18.339,42.243 24.54,43.889 29.974,41.484 C39.382,37.32 36.285,31.791 36.355,26.905 C36.359,26.646 36.374,26.39 36.399,26.136 C36.803,21.999 40.221,18.791 44.341,18.242 L51.898,17.235 C52.599,17.142 52.983,16.379 52.657,15.751 C46.087,3.073 28.54,-2.59 15.396,3.226" id="Fill-567" fill="#D25627" sketch:type="MSShapeGroup"></path>
            <path d="M31.256,29.987 C31.256,33.552 28.366,36.442 24.801,36.442 C21.236,36.442 18.346,33.552 18.346,29.987 C18.346,26.422 21.236,23.531 24.801,23.531 C28.366,23.531 31.256,26.422 31.256,29.987 L31.256,29.987 Z" id="Fill-568" fill="#546A79" sketch:type="MSShapeGroup"></path>
            <path d="M31.256,29.987 C31.256,33.552 28.366,36.442 24.801,36.442 C21.236,36.442 18.346,33.552 18.346,29.987 C18.346,26.422 21.236,23.531 24.801,23.531 C28.366,23.531 31.256,26.422 31.256,29.987 L31.256,29.987 Z" id="Stroke-569" stroke="#ECF0F1" stroke-width="2" sketch:type="MSShapeGroup"></path>
            <path d="M5.581,38.16 C4.737,38.534 3.768,38.106 3.438,37.244 C3.015,36.14 2.679,35.021 2.382,33.897 L2.19,33.981 C0.661,34.65 -0.036,36.431 0.633,37.96 L3.089,43.574 C3.408,44.305 4.346,44.515 4.947,43.99 L8.663,40.746 L6.892,37.58 L5.581,38.16" id="Fill-570" fill="#38454F" sketch:type="MSShapeGroup"></path>
            <path d="M12.042,32.139 L10.821,32.139 C9.717,32.139 8.821,31.243 8.821,30.139 L8.821,28.918 C8.821,27.813 9.717,26.918 10.821,26.918 L12.042,26.918 C13.147,26.918 14.042,27.813 14.042,28.918 L14.042,30.139 C14.042,31.243 13.147,32.139 12.042,32.139" id="Fill-571" fill="#ECF0F1" sketch:type="MSShapeGroup"></path>
            <path d="M42.886,29.246 C42.456,29.074 42.004,28.987 41.54,28.987 L28.289,28.987 C27.307,28.987 26.44,29.577 26.079,30.491 C25.757,31.31 25.909,32.216 26.46,32.877 C28.398,38.986 38.05,45.937 43.078,45.937 L54.379,45.937 C56.409,45.937 58,44.396 58,42.428 L58,35.786 L42.886,29.246 L42.886,29.246 Z M56,39.54 L43.078,37.108 L43.078,31.509 L56,37.099 L56,39.54 L56,39.54 Z M41.078,36.367 L29.549,30.987 L41.078,30.987 L41.078,36.367 L41.078,36.367 Z M28.545,32.726 L41.078,38.574 L41.078,43.541 C36.853,42.15 30.286,37.225 28.545,32.726 L28.545,32.726 Z M54.379,43.938 L43.078,43.938 L43.078,39.115 L56,41.573 L56,42.428 C56,43.289 55.303,43.938 54.379,43.938 L54.379,43.938 Z" id="Fill-572" fill="#38454F" sketch:type="MSShapeGroup"></path>
        </g>
    </g>
</svg>