<?xml version="1.0" encoding="UTF-8" standalone="no"?>
<svg width="45px" height="59px" viewBox="0 0 45 59" version="1.1" xmlns="http://www.w3.org/2000/svg" xmlns:xlink="http://www.w3.org/1999/xlink" xmlns:sketch="http://www.bohemiancoding.com/sketch/ns">
    <!-- Generator: Sketch 3.2.2 (9983) - http://www.bohemiancoding.com/sketch -->
    <title>58 - Hiking Sticks (Flat)</title>
    <desc>Created with Sketch.</desc>
    <defs></defs>
    <g id="Page-1" stroke="none" stroke-width="1" fill="none" fill-rule="evenodd" sketch:type="MSPage">
        <g id="58---Hiking-Sticks-(Flat)" sketch:type="MSLayerGroup">
            <path d="M15,23 L15,58" id="Stroke-235" stroke="#38454F" stroke-width="2" stroke-linecap="round" sketch:type="MSShapeGroup"></path>
            <path d="M13,11 L17,11 L17,23 L13,23 L13,11 Z" id="Fill-724" fill="#3B97D3" sketch:type="MSShapeGroup"></path>
            <path d="M17,11 L13,11 L13,2 C13,0.895 13.895,0 15,0 C16.105,0 17,0.895 17,2 L17,11" id="Fill-725" fill="#556080" sketch:type="MSShapeGroup"></path>
            <path d="M2.922,14.001 L2.814,13.999 C2.262,13.971 1.837,13.502 1.865,12.95 C1.892,12.398 2.378,11.972 2.913,12.001 C3.104,12.001 3.334,11.965 3.586,11.896 C4.119,11.752 4.668,12.064 4.815,12.597 C4.96,13.13 4.646,13.68 4.113,13.825 C3.685,13.941 3.285,14.001 2.922,14.001 L2.922,14.001 Z M6.548,12.57 C6.217,12.57 5.894,12.406 5.703,12.106 C5.407,11.64 5.545,11.021 6.012,10.726 C6.267,10.564 6.528,10.387 6.792,10.197 C7.239,9.873 7.865,9.978 8.187,10.427 C8.509,10.875 8.407,11.5 7.958,11.822 C7.662,12.035 7.37,12.233 7.083,12.415 C6.917,12.521 6.731,12.57 6.548,12.57 L6.548,12.57 Z M1.707,11.777 C1.623,11.777 1.539,11.767 1.454,11.745 C0.92,11.606 0.6,11.06 0.739,10.525 C0.827,10.189 0.954,9.824 1.116,9.442 C1.331,8.935 1.918,8.697 2.428,8.914 C2.936,9.13 3.172,9.717 2.956,10.226 C2.832,10.518 2.737,10.788 2.674,11.029 C2.557,11.48 2.151,11.777 1.707,11.777 L1.707,11.777 Z M9.691,10.106 C9.423,10.106 9.156,9.998 8.959,9.786 C8.583,9.382 8.606,8.749 9.011,8.373 C9.242,8.157 9.474,7.935 9.703,7.705 C10.093,7.313 10.726,7.314 11.118,7.703 C11.508,8.094 11.509,8.727 11.119,9.117 C10.871,9.366 10.622,9.606 10.372,9.838 C10.18,10.017 9.935,10.106 9.691,10.106 L9.691,10.106 Z M3.54,8.245 C3.339,8.245 3.137,8.185 2.96,8.06 C2.511,7.738 2.406,7.114 2.727,6.665 C2.924,6.388 3.134,6.107 3.356,5.826 C3.699,5.393 4.328,5.318 4.761,5.66 C5.194,6.002 5.268,6.631 4.926,7.065 C4.725,7.32 4.534,7.575 4.355,7.825 C4.16,8.1 3.852,8.245 3.54,8.245 L3.54,8.245 Z M6.876,4.875 L5.427,3.496 C5.432,3.491 5.472,3.451 5.477,3.446 C5.696,3.227 5.933,2.997 6.17,2.776 C6.574,2.4 7.207,2.421 7.583,2.826 C7.96,3.231 7.938,3.863 7.534,4.239 C7.314,4.444 7.095,4.656 6.876,4.875 L6.876,4.875 Z M9.165,2.599 C8.854,2.599 8.548,2.454 8.353,2.183 C8.03,1.735 8.132,1.11 8.58,0.787 C8.874,0.575 9.165,0.377 9.451,0.193 C9.917,-0.106 10.534,0.03 10.832,0.495 C11.131,0.96 10.996,1.579 10.531,1.877 C10.274,2.041 10.013,2.22 9.749,2.41 C9.572,2.537 9.368,2.599 9.165,2.599 L9.165,2.599 Z" id="Fill-726" fill="#BDC3C7" sketch:type="MSShapeGroup"></path>
            <path d="M30,23 L30,58" id="Stroke-727" stroke="#38454F" stroke-width="2" stroke-linecap="round" sketch:type="MSShapeGroup"></path>
            <path d="M28,11 L32,11 L32,23 L28,23 L28,11 Z" id="Fill-728" fill="#3B97D3" sketch:type="MSShapeGroup"></path>
            <path d="M28,11 L32,11 L32,2 C32,0.895 31.105,0 30,0 C28.895,0 28,0.895 28,2 L28,11" id="Fill-729" fill="#556080" sketch:type="MSShapeGroup"></path>
            <path d="M42.078,14.001 C41.715,14.001 41.314,13.941 40.887,13.825 C40.354,13.68 40.04,13.13 40.185,12.597 C40.331,12.065 40.883,11.755 41.414,11.896 C41.666,11.965 41.895,12.001 42.078,12.001 C42.62,12.001 43.093,12.434 43.107,12.976 C43.121,13.518 42.728,13.972 42.186,13.999 C42.17,14 42.094,14.001 42.078,14.001 L42.078,14.001 Z M38.452,12.57 C38.269,12.57 38.083,12.521 37.917,12.415 C37.63,12.233 37.338,12.035 37.042,11.822 C36.593,11.5 36.491,10.875 36.812,10.427 C37.134,9.978 37.758,9.873 38.208,10.197 C38.472,10.387 38.733,10.564 38.988,10.726 C39.455,11.021 39.593,11.64 39.297,12.106 C39.107,12.406 38.783,12.57 38.452,12.57 L38.452,12.57 Z M43.293,11.777 C42.849,11.777 42.443,11.48 42.326,11.029 C42.263,10.788 42.168,10.518 42.043,10.226 C41.828,9.717 42.064,9.13 42.572,8.914 C43.082,8.697 43.668,8.934 43.884,9.442 C44.046,9.824 44.173,10.189 44.261,10.525 C44.4,11.06 44.08,11.606 43.546,11.745 C43.461,11.767 43.376,11.777 43.293,11.777 L43.293,11.777 Z M35.309,10.106 C35.065,10.106 34.82,10.017 34.628,9.838 C34.378,9.606 34.129,9.366 33.881,9.117 C33.491,8.727 33.492,8.094 33.882,7.703 C34.274,7.315 34.907,7.314 35.297,7.705 C35.526,7.935 35.758,8.157 35.989,8.373 C36.394,8.749 36.417,9.382 36.041,9.786 C35.844,9.998 35.577,10.106 35.309,10.106 L35.309,10.106 Z M41.46,8.245 C41.147,8.245 40.84,8.1 40.644,7.825 C40.466,7.575 40.275,7.32 40.074,7.065 C39.732,6.631 39.806,6.002 40.239,5.66 C40.673,5.318 41.302,5.393 41.644,5.826 C41.866,6.107 42.076,6.388 42.273,6.665 C42.594,7.114 42.489,7.738 42.04,8.06 C41.863,8.185 41.661,8.245 41.46,8.245 L41.46,8.245 Z M38.841,5.194 C38.595,5.194 38.35,5.102 38.159,4.91 L38.866,4.203 L38.14,4.892 C37.905,4.656 37.686,4.444 37.466,4.239 C37.062,3.863 37.04,3.231 37.416,2.826 C37.793,2.423 38.426,2.4 38.83,2.776 C39.067,2.997 39.304,3.227 39.54,3.463 C39.929,3.854 39.946,4.503 39.556,4.894 C39.356,5.093 39.098,5.194 38.841,5.194 L38.841,5.194 Z M35.834,2.599 C35.632,2.599 35.428,2.537 35.251,2.41 C34.987,2.22 34.726,2.041 34.469,1.877 C34.004,1.579 33.869,0.96 34.167,0.495 C34.466,0.03 35.084,-0.106 35.549,0.193 C35.835,0.377 36.125,0.575 36.42,0.787 C36.868,1.11 36.97,1.735 36.647,2.183 C36.452,2.454 36.145,2.599 35.834,2.599 L35.834,2.599 Z" id="Fill-730" fill="#BDC3C7" sketch:type="MSShapeGroup"></path>
            <path d="M18,54 L12,54 C11.448,54 11,54.447 11,55 C11,55.553 11.448,56 12,56 L18,56 C18.552,56 19,55.553 19,55 C19,54.447 18.552,54 18,54" id="Fill-731" fill="#8697CB" sketch:type="MSShapeGroup"></path>
            <path d="M33,54 L27,54 C26.448,54 26,54.447 26,55 C26,55.553 26.448,56 27,56 L33,56 C33.552,56 34,55.553 34,55 C34,54.447 33.552,54 33,54" id="Fill-732" fill="#8697CB" sketch:type="MSShapeGroup"></path>
            <path d="M14,44 L16,44 M14,33 L16,33 M29,44 L31,44 M29,33 L31,33" id="Stroke-733" stroke="#38454F" stroke-width="2" stroke-linecap="round" sketch:type="MSShapeGroup"></path>
        </g>
    </g>
</svg>