<?xml version="1.0" encoding="UTF-8" standalone="no"?>
<svg width="57px" height="52px" viewBox="0 0 57 52" version="1.1" xmlns="http://www.w3.org/2000/svg" xmlns:xlink="http://www.w3.org/1999/xlink" xmlns:sketch="http://www.bohemiancoding.com/sketch/ns">
    <!-- Generator: Sketch 3.2.2 (9983) - http://www.bohemiancoding.com/sketch -->
    <title>48 - Hockey Sticks (Flat)</title>
    <desc>Created with Sketch.</desc>
    <defs></defs>
    <g id="Page-1" stroke="none" stroke-width="1" fill="none" fill-rule="evenodd" sketch:type="MSPage">
        <g id="48---Hockey-Sticks-(Flat)" sketch:type="MSLayerGroup">
            <path d="M3.575,0.559 C4.477,-0.3 5.882,-0.137 6.575,0.829 L31.919,35.537 C33.591,37.827 35.368,38.991 38.203,39 L54.383,39 C54.52,39 54.655,39.01 54.786,39.028 C56.595,39.281 57.519,41.372 56.698,43.004 L54.895,46.585 C54.52,47.335 53.6,48 52.762,48 L38.203,48 C34.674,48 31.385,46.217 29.459,43.259 L3.349,3.162 C2.818,2.346 2.87,1.231 3.575,0.559" id="Fill-254" fill="#CB8252" sketch:type="MSShapeGroup"></path>
            <path d="M41,48 L48,48 L50,39 L43,39 L41,48" id="Fill-255" fill="#F0C419" sketch:type="MSShapeGroup"></path>
            <path d="M7.825,10.035 L13.448,18.67 L17.553,15.863 L11.296,7.295 L7.825,10.035" id="Fill-256" fill="#546A79" sketch:type="MSShapeGroup"></path>
            <path d="M31.919,35.537 C32.095,35.778 32.28,36.003 32.468,36.224 L53.996,3.162 C54.528,2.346 54.475,1.231 53.77,0.559 C52.868,-0.3 51.464,-0.137 50.77,0.829 L28.673,31.091 L31.919,35.537" id="Fill-257" fill="#7F5B53" sketch:type="MSShapeGroup"></path>
            <path d="M24.883,36.231 C23.371,38.058 21.733,38.992 19.203,39 L3.023,39 C1.926,39 1.112,39.352 0.643,40.241 C0.191,41.094 0.268,42.133 0.693,42.999 L2.45,46.585 C2.825,47.335 3.365,48 4.203,48 L7,48 C7,45.8 8.8,44 11,44 L21,44 C22.597,44 23.972,44.954 24.612,46.315 C25.985,45.466 27.187,44.334 28.094,42.94 L28.673,42.052 L24.883,36.231" id="Fill-258" fill="#7F5B53" sketch:type="MSShapeGroup"></path>
            <path d="M11,44 L16.111,44 L15,39 L8,39 L9.21,44.445 C9.751,44.17 10.354,44 11,44" id="Fill-346" fill="#F9EBB0" sketch:type="MSShapeGroup"></path>
            <path d="M43.613,19.107 L49.198,10.531 L45.563,7.961 L39.397,16.405 L43.613,19.107" id="Fill-793" fill="#CBB292" sketch:type="MSShapeGroup"></path>
            <path d="M21,52 L11,52 C8.8,52 7,50.2 7,48 C7,45.8 8.8,44 11,44 L21,44 C23.2,44 25,45.8 25,48 C25,50.2 23.2,52 21,52" id="Fill-1048" fill="#38454F" sketch:type="MSShapeGroup"></path>
        </g>
    </g>
</svg>