<?xml version="1.0" encoding="UTF-8" standalone="no"?>
<svg width="54px" height="57px" viewBox="0 0 54 57" version="1.1" xmlns="http://www.w3.org/2000/svg" xmlns:xlink="http://www.w3.org/1999/xlink" xmlns:sketch="http://www.bohemiancoding.com/sketch/ns">
    <!-- Generator: Sketch 3.2.2 (9983) - http://www.bohemiancoding.com/sketch -->
    <title>20 - Jumping Rope (Flat)</title>
    <desc>Created with Sketch.</desc>
    <defs></defs>
    <g id="Page-1" stroke="none" stroke-width="1" fill="none" fill-rule="evenodd" sketch:type="MSPage">
        <g id="20---Jumping-Rope-(Flat)" sketch:type="MSLayerGroup">
            <path d="M37,44 C37,50.627 31.627,56 25,56 C18.373,56 13,50.627 13,44 C13,37.373 18.373,32 25,32 C31.627,32 37,37.373 37,44 L37,44 Z M40,41 C40,49.284 33.284,56 25,56 C16.716,56 10,49.284 10,41 C10,32.716 16.716,26 25,26 C33.284,26 40,32.716 40,41 L40,41 Z M5,19 L5,37 L5,36 C5,47.055 13.945,56 25,56 C38.266,56 49,45.266 49,32 L49,25 L49,26 L49,19" id="Stroke-596" stroke="#ECF0F1" stroke-width="2" sketch:type="MSShapeGroup"></path>
            <path d="M54,2 L54,1.761 C54,0.789 53.211,0 52.239,0 L45.761,0 C44.789,0 44,0.789 44,1.761 L44,2 C44,3.105 44.895,4 46,4 L46,15 C44.895,15 44,15.895 44,17 L44,17.447 C44,18.304 44.695,19 45.553,19 L52.447,19 C53.305,19 54,18.304 54,17.447 L54,17 C54,15.895 53.105,15 52,15 L52,4 C53.105,4 54,3.105 54,2" id="Fill-597" fill="#CC66A1" sketch:type="MSShapeGroup"></path>
            <path d="M10,2 L10,1.761 C10,0.789 9.211,0 8.239,0 L1.761,0 C0.789,0 0,0.789 0,1.761 L0,2 C0,3.105 0.895,4 2,4 L2,15 C0.895,15 0,15.895 0,17 L0,17.447 C0,18.304 0.695,19 1.553,19 L8.446,19 C9.305,19 10,18.304 10,17.447 L10,17 C10,15.895 9.105,15 8,15 L8,4 C9.105,4 10,3.105 10,2" id="Fill-598" fill="#CC66A1" sketch:type="MSShapeGroup"></path>
            <path d="M47,6 C47.552,6 48,5.552 48,5 C48,4.448 47.552,4 47,4 C46.448,4 46,4.448 46,5 C46,5.552 46.448,6 47,6" id="Fill-599" fill="#F2B0F4" sketch:type="MSShapeGroup"></path>
            <path d="M51,6 C51.552,6 52,5.552 52,5 C52,4.448 51.552,4 51,4 C50.448,4 50,4.448 50,5 C50,5.552 50.448,6 51,6" id="Fill-600" fill="#F2B0F4" sketch:type="MSShapeGroup"></path>
            <path d="M49,8 C49.552,8 50,7.552 50,7 C50,6.448 49.552,6 49,6 C48.448,6 48,6.448 48,7 C48,7.552 48.448,8 49,8" id="Fill-601" fill="#F2B0F4" sketch:type="MSShapeGroup"></path>
            <path d="M47,10 C47.552,10 48,9.552 48,9 C48,8.448 47.552,8 47,8 C46.448,8 46,8.448 46,9 C46,9.552 46.448,10 47,10" id="Fill-602" fill="#F2B0F4" sketch:type="MSShapeGroup"></path>
            <path d="M51,8 C50.448,8 50,8.448 50,9 C50,9.552 50.448,10 51,10 C51.552,10 52,9.552 52,9 C52,8.448 51.552,8 51,8" id="Fill-603" fill="#F2B0F4" sketch:type="MSShapeGroup"></path>
            <path d="M49,10 C48.448,10 48,10.448 48,11 C48,11.552 48.448,12 49,12 C49.552,12 50,11.552 50,11 C50,10.448 49.552,10 49,10" id="Fill-604" fill="#F2B0F4" sketch:type="MSShapeGroup"></path>
            <path d="M47,12 C46.448,12 46,12.448 46,13 C46,13.552 46.448,14 47,14 C47.552,14 48,13.552 48,13 C48,12.448 47.552,12 47,12" id="Fill-605" fill="#F2B0F4" sketch:type="MSShapeGroup"></path>
            <path d="M51,12 C50.448,12 50,12.448 50,13 C50,13.552 50.448,14 51,14 C51.552,14 52,13.552 52,13 C52,12.448 51.552,12 51,12" id="Fill-606" fill="#F2B0F4" sketch:type="MSShapeGroup"></path>
            <path d="M49,14 C48.448,14 48,14.448 48,15 C48,15.552 48.448,16 49,16 C49.552,16 50,15.552 50,15 C50,14.448 49.552,14 49,14" id="Fill-607" fill="#F2B0F4" sketch:type="MSShapeGroup"></path>
            <path d="M3,6 C3.552,6 4,5.552 4,5 C4,4.448 3.552,4 3,4 C2.448,4 2,4.448 2,5 C2,5.552 2.448,6 3,6" id="Fill-608" fill="#F2B0F4" sketch:type="MSShapeGroup"></path>
            <path d="M7,4 C6.448,4 6,4.448 6,5 C6,5.552 6.448,6 7,6 C7.552,6 8,5.552 8,5 C8,4.448 7.552,4 7,4" id="Fill-609" fill="#F2B0F4" sketch:type="MSShapeGroup"></path>
            <path d="M5,8 C5.552,8 6,7.552 6,7 C6,6.448 5.552,6 5,6 C4.448,6 4,6.448 4,7 C4,7.552 4.448,8 5,8" id="Fill-610" fill="#F2B0F4" sketch:type="MSShapeGroup"></path>
            <path d="M3,10 C3.552,10 4,9.552 4,9 C4,8.448 3.552,8 3,8 C2.448,8 2,8.448 2,9 C2,9.552 2.448,10 3,10" id="Fill-611" fill="#F2B0F4" sketch:type="MSShapeGroup"></path>
            <path d="M7,8 C6.448,8 6,8.448 6,9 C6,9.552 6.448,10 7,10 C7.552,10 8,9.552 8,9 C8,8.448 7.552,8 7,8" id="Fill-612" fill="#F2B0F4" sketch:type="MSShapeGroup"></path>
            <path d="M5,10 C4.448,10 4,10.448 4,11 C4,11.552 4.448,12 5,12 C5.552,12 6,11.552 6,11 C6,10.448 5.552,10 5,10" id="Fill-613" fill="#F2B0F4" sketch:type="MSShapeGroup"></path>
            <path d="M3,12 C2.448,12 2,12.448 2,13 C2,13.552 2.448,14 3,14 C3.552,14 4,13.552 4,13 C4,12.448 3.552,12 3,12" id="Fill-614" fill="#F2B0F4" sketch:type="MSShapeGroup"></path>
            <path d="M7,12 C6.448,12 6,12.448 6,13 C6,13.552 6.448,14 7,14 C7.552,14 8,13.552 8,13 C8,12.448 7.552,12 7,12" id="Fill-615" fill="#F2B0F4" sketch:type="MSShapeGroup"></path>
            <path d="M5,14 C4.448,14 4,14.448 4,15 C4,15.552 4.448,16 5,16 C5.552,16 6,15.552 6,15 C6,14.448 5.552,14 5,14" id="Fill-616" fill="#F2B0F4" sketch:type="MSShapeGroup"></path>
        </g>
    </g>
</svg>