<?xml version="1.0" encoding="UTF-8" standalone="no"?>
<svg width="58px" height="58px" viewBox="0 0 58 58" version="1.1" xmlns="http://www.w3.org/2000/svg" xmlns:xlink="http://www.w3.org/1999/xlink" xmlns:sketch="http://www.bohemiancoding.com/sketch/ns">
    <!-- Generator: Sketch 3.2.2 (9983) - http://www.bohemiancoding.com/sketch -->
    <title>54 - Kayaking (Flat)</title>
    <desc>Created with Sketch.</desc>
    <defs></defs>
    <g id="Page-1" stroke="none" stroke-width="1" fill="none" fill-rule="evenodd" sketch:type="MSPage">
        <g id="54---Kayaking-(Flat)" sketch:type="MSLayerGroup">
            <path d="M28.02,31.614 C26.412,29.761 24.253,28.44 21.844,27.972 C20.647,27.74 19.517,27.123 18.661,26.136 L15.439,22.423 C8.789,30.138 3.93,39.216 2.151,48.39 L0.598,56.401 C0.401,57.42 1.073,58.093 2.093,57.896 L10.104,56.342 C19.802,54.462 29.392,49.14 37.378,41.897 L28.02,31.614" id="Fill-119" fill="#F3D55B" sketch:type="MSShapeGroup"></path>
            <path d="M55.451,0.551 L48.677,1.865 C39.818,3.582 31.048,8.171 23.508,14.472 L27.2,18.727 C28.056,19.714 28.507,20.919 28.569,22.136 C28.693,24.587 29.696,26.911 31.305,28.765 L40.507,38.877 C48.602,30.558 54.607,20.25 56.629,9.817 L57.942,3.043 C58.272,1.343 57.151,0.222 55.451,0.551" id="Fill-120" fill="#F3D55B" sketch:type="MSShapeGroup"></path>
            <path d="M44,11.93 L42,11.93 L42,13.93 L40,13.93 L40,15.93 L42,15.93 L42,17.93 L44,17.93 L44,15.93 L46,15.93 L46,13.93 L44,13.93 L44,11.93" id="Fill-336" fill="#38454F" sketch:type="MSShapeGroup"></path>
            <path d="M52,7.93 L50,7.93 L50,5.93 L48,5.93 L48,7.93 L46,7.93 L46,9.93 L48,9.93 L48,11.93 L50,11.93 L50,9.93 L52,9.93 L52,7.93" id="Fill-337" fill="#38454F" sketch:type="MSShapeGroup"></path>
            <path d="M9,46.93 L7,46.93 L7,48.93 L5,48.93 L5,50.93 L7,50.93 L7,52.93 L9,52.93 L9,50.93 L11,50.93 L11,48.93 L9,48.93 L9,46.93" id="Fill-338" fill="#38454F" sketch:type="MSShapeGroup"></path>
            <path d="M15,40.93 L13,40.93 L13,42.93 L11,42.93 L11,44.93 L13,44.93 L13,46.93 L15,46.93 L15,44.93 L17,44.93 L17,42.93 L15,42.93 L15,40.93" id="Fill-339" fill="#38454F" sketch:type="MSShapeGroup"></path>
            <path d="M28.569,22.136 C28.693,24.587 29.696,26.911 31.305,28.765 L36.659,34.649 C40.859,29.374 41.861,23.185 38.736,20.06 C36.331,17.655 32.11,17.692 27.888,19.75 C28.292,20.499 28.527,21.312 28.569,22.136" id="Fill-340" fill="#38454F" sketch:type="MSShapeGroup"></path>
            <path d="M28.02,31.614 C26.412,29.761 24.253,28.44 21.844,27.972 C21.046,27.817 20.287,27.476 19.61,26.984 C16.181,31.967 15.544,37.474 18.433,40.363 C21.679,43.609 28.233,42.402 33.633,37.782 L28.02,31.614" id="Fill-341" fill="#38454F" sketch:type="MSShapeGroup"></path>
            <path d="M48.597,47.767 L31.305,28.764 C29.696,26.911 28.693,24.587 28.569,22.136 C28.507,20.919 28.056,19.713 27.2,18.727 L11.42,0.542 C10.851,-0.113 9.85,-0.184 9.195,0.384 L3.039,5.726 C2.383,6.295 2.313,7.296 2.881,7.951 L18.661,26.137 C19.517,27.123 20.647,27.74 21.844,27.972 C24.253,28.44 26.412,29.761 28.02,31.614 L45.313,50.617 L48.597,47.767" id="Fill-1042" fill="#F18D46" sketch:type="MSShapeGroup"></path>
            <path d="M48.227,56.151 L53.339,51.715 C54.585,50.634 54.72,48.729 53.639,47.483 C52.557,46.237 50.653,46.102 49.407,47.183 L44.295,51.619 C43.048,52.701 42.914,54.605 43.995,55.851 C45.076,57.098 46.981,57.233 48.227,56.151" id="Fill-1043" fill="#38454F" sketch:type="MSShapeGroup"></path>
        </g>
    </g>
</svg>