<?xml version="1.0" encoding="UTF-8" standalone="no"?>
<svg width="56px" height="56px" viewBox="0 0 56 56" version="1.1" xmlns="http://www.w3.org/2000/svg" xmlns:xlink="http://www.w3.org/1999/xlink" xmlns:sketch="http://www.bohemiancoding.com/sketch/ns">
    <!-- Generator: Sketch 3.2.2 (9983) - http://www.bohemiancoding.com/sketch -->
    <title>79 - Marksmanship (Flat)</title>
    <desc>Created with Sketch.</desc>
    <defs></defs>
    <g id="Page-1" stroke="none" stroke-width="1" fill="none" fill-rule="evenodd" sketch:type="MSPage">
        <g id="79---Marksmanship-(Flat)" sketch:type="MSLayerGroup" transform="translate(-1.000000, 0.000000)">
            <path d="M2,56 C1.744,56 1.488,55.902 1.293,55.707 C0.902,55.316 0.902,54.684 1.293,54.293 L9.201,46.385 C9.592,45.994 10.225,45.994 10.615,46.385 C11.006,46.775 11.006,47.408 10.615,47.799 L2.707,55.707 C2.512,55.902 2.256,56 2,56" id="Fill-101" fill="#38454F" sketch:type="MSShapeGroup"></path>
            <path d="M55.908,56 C55.65,56 55.393,55.901 55.197,55.703 L47.38,47.795 C46.992,47.402 46.996,46.769 47.389,46.38 C47.781,45.993 48.415,45.996 48.803,46.389 L56.62,54.297 C57.008,54.69 57.004,55.323 56.611,55.711 C56.416,55.904 56.162,56 55.908,56" id="Fill-102" fill="#38454F" sketch:type="MSShapeGroup"></path>
            <path d="M56,28 C56,42.912 43.912,55 29,55 C14.088,55 2,42.912 2,28 C2,13.088 14.088,1 29,1 C43.912,1 56,13.088 56,28" id="Fill-103" fill="#ECF0F1" sketch:type="MSShapeGroup"></path>
            <path d="M47,28 C47,37.941 38.941,46 29,46 C19.059,46 11,37.941 11,28 C11,18.059 19.059,10 29,10 C38.941,10 47,18.059 47,28" id="Fill-104" fill="#FFFFFF" sketch:type="MSShapeGroup"></path>
            <path d="M29,47 C18.523,47 10,38.477 10,28 C10,17.523 18.523,9 29,9 C39.477,9 48,17.523 48,28 C48,38.477 39.477,47 29,47 L29,47 Z M29,11 C19.626,11 12,18.626 12,28 C12,37.374 19.626,45 29,45 C38.374,45 46,37.374 46,28 C46,18.626 38.374,11 29,11 L29,11 Z" id="Fill-130" fill="#E64C3C" sketch:type="MSShapeGroup"></path>
            <path d="M29,38 C23.486,38 19,33.514 19,28 C19,22.486 23.486,18 29,18 C34.514,18 39,22.486 39,28 C39,33.514 34.514,38 29,38 L29,38 Z M29,20 C24.589,20 21,23.589 21,28 C21,32.411 24.589,36 29,36 C33.411,36 37,32.411 37,28 C37,23.589 33.411,20 29,20 L29,20 Z" id="Fill-131" fill="#E64C3C" sketch:type="MSShapeGroup"></path>
            <path d="M31,28 C31,29.105 30.105,30 29,30 C27.895,30 27,29.105 27,28 C27,26.895 27.895,26 29,26 C30.105,26 31,26.895 31,28" id="Fill-132" fill="#E64C3C" sketch:type="MSShapeGroup"></path>
            <path d="M7,5 L7,1 C7,0.448 6.552,0 6,0 C5.448,0 5,0.448 5,1 L5,4 L2,4 C1.448,4 1,4.448 1,5 C1,5.552 1.448,6 2,6 L6,6 C6.552,6 7,5.552 7,5" id="Fill-133" fill="#F3D55B" sketch:type="MSShapeGroup"></path>
            <path d="M12,5 C11.448,5 11,5.448 11,6 L11,10 L7,10 C6.448,10 6,10.448 6,11 C6,11.552 6.448,12 7,12 L12,12 C12.552,12 13,11.552 13,11 L13,6 C13,5.448 12.552,5 12,5" id="Fill-134" fill="#F3D55B" sketch:type="MSShapeGroup"></path>
            <path d="M10,8 L10,3 C10,2.448 9.552,2 9,2 C8.448,2 8,2.448 8,3 L8,7 L4,7 C3.448,7 3,7.448 3,8 C3,8.552 3.448,9 4,9 L9,9 C9.552,9 10,8.552 10,8" id="Fill-135" fill="#F3D55B" sketch:type="MSShapeGroup"></path>
            <path d="M29,29 C28.744,29 28.488,28.902 28.293,28.707 L2.293,2.707 C1.902,2.316 1.902,1.684 2.293,1.293 C2.684,0.902 3.316,0.902 3.707,1.293 L29.707,27.293 C30.098,27.684 30.098,28.316 29.707,28.707 C29.512,28.902 29.256,29 29,29" id="Fill-981" fill="#546A79" sketch:type="MSShapeGroup"></path>
        </g>
    </g>
</svg>