<?xml version="1.0" encoding="UTF-8" standalone="no"?>
<svg width="40px" height="57px" viewBox="0 0 40 57" version="1.1" xmlns="http://www.w3.org/2000/svg" xmlns:xlink="http://www.w3.org/1999/xlink" xmlns:sketch="http://www.bohemiancoding.com/sketch/ns">
    <!-- Generator: Sketch 3.2.2 (9983) - http://www.bohemiancoding.com/sketch -->
    <title>57 - Medal (Flat)</title>
    <desc>Created with Sketch.</desc>
    <defs></defs>
    <g id="Page-1" stroke="none" stroke-width="1" fill="none" fill-rule="evenodd" sketch:type="MSPage">
        <g id="57---Medal-(Flat)" sketch:type="MSLayerGroup">
            <path d="M20.4,57 C9.593,57 0.8,48.207 0.8,37.4 C0.8,26.593 9.593,17.8 20.4,17.8 C31.207,17.8 40,26.593 40,37.4 C40,48.207 31.207,57 20.4,57" id="Fill-236" fill="#F2E377" sketch:type="MSShapeGroup"></path>
            <path d="M35.52,37.4 C35.52,45.751 28.75,52.52 20.4,52.52 C12.049,52.52 5.28,45.751 5.28,37.4 C5.28,29.049 12.049,22.28 20.4,22.28 C28.75,22.28 35.52,29.049 35.52,37.4" id="Fill-237" fill="#F3D55B" sketch:type="MSShapeGroup"></path>
            <path d="M20.391,26.305 L23.664,32.937 L30.982,34 L25.687,39.162 L26.937,46.451 L20.391,43.009 L13.845,46.451 L15.096,39.162 L9.8,34 L17.118,32.937 L20.391,26.305" id="Fill-238" fill="#F0C419" sketch:type="MSShapeGroup"></path>
            <path d="M20.4,17.8 C22.601,17.8 24.711,18.181 26.688,18.854 L38,0 L28,0 L17.144,18.093 C18.205,17.915 19.289,17.8 20.4,17.8" id="Fill-347" fill="#546A79" sketch:type="MSShapeGroup"></path>
            <path d="M17.144,18.093 L20.5,12.5 L13,0 L3,0 L14.276,18.793 C15.203,18.487 16.162,18.259 17.144,18.093" id="Fill-348" fill="#38454F" sketch:type="MSShapeGroup"></path>
        </g>
    </g>
</svg>