<?xml version="1.0" encoding="UTF-8" standalone="no"?>
<svg width="57px" height="45px" viewBox="0 0 57 45" version="1.1" xmlns="http://www.w3.org/2000/svg" xmlns:xlink="http://www.w3.org/1999/xlink" xmlns:sketch="http://www.bohemiancoding.com/sketch/ns">
    <!-- Generator: Sketch 3.2.2 (9983) - http://www.bohemiancoding.com/sketch -->
    <title>23 - Motocross Helmet (Flat)</title>
    <desc>Created with Sketch.</desc>
    <defs></defs>
    <g id="Page-1" stroke="none" stroke-width="1" fill="none" fill-rule="evenodd" sketch:type="MSPage">
        <g id="23---Motocross-Helmet-(Flat)" sketch:type="MSLayerGroup">
            <path d="M41.962,8.653 C41.962,8.653 33.222,12.574 23.341,10 C17.063,8.365 13.447,15.958 15.734,21.964 C21.687,37.598 42.384,36.798 53,30 C53,30 37.454,29.819 41.962,8.653" id="Fill-460" fill="#546A79" sketch:type="MSShapeGroup"></path>
            <path d="M56,28.348 C56,28.347 52.418,30.14 50.751,30.691 C39.777,36.487 21.356,36.727 15.734,21.964 C13.447,15.958 17.063,8.365 23.341,10 C33.222,12.574 41.962,8.653 41.962,8.653 C41.921,8.847 41.893,9.026 41.855,9.216 L42.622,8.787 C42.622,8.786 42.618,8.777 42.618,8.777 C42.029,8.016 41.545,7.486 41.22,7.291 C41.22,7.291 40.626,6.655 39.496,5.746 C31.134,-0.98 19.372,-1.361 10.317,4.398 C6.3,6.952 2.516,10.701 1.131,16.091 C1.131,16.091 -3.513,30.024 6.02,40.535 C6.02,40.535 7.782,42.958 19.498,43.991 C27.699,44.714 35.955,45.654 44.083,44.348 C46.392,43.976 49.875,42.764 52,41.348 C52.322,41.133 52.634,40.873 52.931,40.586 C54.967,38.62 56,35.833 56,33.004 L56,28.348" id="Fill-462" fill="#24AE5F" sketch:type="MSShapeGroup"></path>
            <path d="M41.962,8.653 C41.962,8.653 33.222,12.574 23.341,10 C17.063,8.365 13.447,15.958 15.734,21.964 C21.687,37.598 42.384,36.798 53,30 C53,30 37.454,29.819 41.962,8.653" id="Fill-460" fill="#546A79" sketch:type="MSShapeGroup"></path>
            <path d="M56,28.348 C56,28.347 52.418,30.14 50.751,30.691 C39.777,36.487 21.356,36.727 15.734,21.964 C13.447,15.958 17.063,8.365 23.341,10 C33.222,12.574 41.962,8.653 41.962,8.653 C41.921,8.847 41.893,9.026 41.855,9.216 L42.622,8.787 C42.622,8.786 42.618,8.777 42.618,8.777 C42.029,8.016 41.545,7.486 41.22,7.291 C41.22,7.291 40.626,6.655 39.496,5.746 C31.134,-0.98 19.372,-1.361 10.317,4.398 C6.3,6.952 2.516,10.701 1.131,16.091 C1.131,16.091 -3.513,30.024 6.02,40.535 C6.02,40.535 7.782,42.958 19.498,43.991 C27.699,44.714 35.955,45.654 44.083,44.348 C46.392,43.976 49.875,42.764 52,41.348 C52.322,41.133 52.634,40.873 52.931,40.586 C54.967,38.62 56,35.833 56,33.004 L56,28.348" id="Fill-462" fill="#24AE5F" sketch:type="MSShapeGroup"></path>
            <path d="M56,29.348 C55.875,31.941 50.25,36.535 43,37.348 M56,33.348 C55.875,35.941 50.219,39.848 43,40.348 M4,22.348 C4,12.398 12.051,4.348 22,4.348" id="Stroke-463" stroke="#F0C419" stroke-width="2" stroke-linecap="round" stroke-linejoin="round" sketch:type="MSShapeGroup"></path>
            <path d="M13.299,33.856 C13.299,35.194 12.214,36.278 10.877,36.278 C9.539,36.278 8.454,35.194 8.454,33.856 C8.454,32.518 9.539,31.434 10.877,31.434 C12.214,31.434 13.299,32.518 13.299,33.856 L13.299,33.856 Z" id="Stroke-801" stroke="#F0C419" stroke-width="2" stroke-linecap="round" stroke-linejoin="round" sketch:type="MSShapeGroup"></path>
        </g>
    </g>
</svg>