<?xml version="1.0" encoding="UTF-8" standalone="no"?>
<svg width="58px" height="58px" viewBox="0 0 58 58" version="1.1" xmlns="http://www.w3.org/2000/svg" xmlns:xlink="http://www.w3.org/1999/xlink" xmlns:sketch="http://www.bohemiancoding.com/sketch/ns">
    <!-- Generator: Sketch 3.2.2 (9983) - http://www.bohemiancoding.com/sketch -->
    <title>7 - Muscle Pose (Flat)</title>
    <desc>Created with Sketch.</desc>
    <defs></defs>
    <g id="Page-1" stroke="none" stroke-width="1" fill="none" fill-rule="evenodd" sketch:type="MSPage">
        <g id="7---Muscle-Pose-(Flat)" sketch:type="MSLayerGroup">
            <path d="M58,29 C58,45.016 45.016,58 29,58 C12.984,58 0,45.016 0,29 C0,12.984 12.984,0 29,0 C45.016,0 58,12.984 58,29" id="Fill-108" fill="#556080" sketch:type="MSShapeGroup"></path>
            <path d="M0.072,30.942 C0.083,31.109 0.096,31.275 0.11,31.441 C0.158,32.024 0.221,32.603 0.304,33.176 C0.312,33.234 0.317,33.294 0.326,33.352 C0.421,33.98 0.54,34.599 0.674,35.213 C0.706,35.359 0.741,35.505 0.775,35.651 C0.903,36.193 1.043,36.729 1.2,37.259 C1.223,37.336 1.243,37.414 1.266,37.491 C1.451,38.094 1.657,38.688 1.879,39.273 C1.921,39.385 1.967,39.496 2.01,39.607 C2.216,40.13 2.435,40.646 2.67,41.153 C2.703,41.225 2.734,41.298 2.768,41.369 C3.041,41.947 3.333,42.514 3.642,43.07 C3.678,43.134 3.716,43.197 3.752,43.261 C4.045,43.778 4.353,44.286 4.676,44.783 C4.71,44.836 4.743,44.889 4.778,44.941 C5.14,45.49 5.519,46.027 5.917,46.549 C5.923,46.557 5.93,46.565 5.936,46.573 C6.329,47.089 6.741,47.589 7.168,48.077 C7.195,48.107 7.221,48.139 7.248,48.169 C8.13,49.169 9.079,50.107 10.09,50.976 C10.105,50.989 10.119,51.002 10.134,51.015 C11.159,51.893 12.244,52.701 13.385,53.432 C13.389,53.434 13.393,53.436 13.396,53.439 C14.545,54.173 15.749,54.829 17,55.399 L17,47 C22.417,51.583 34,47 34,47 C42.167,47 44,42 44,42 C46.369,39.823 47.012,36.597 47.001,33.69 C46.991,30.757 46.094,27.923 44.724,25.329 C43.907,23.783 43,20.95 43,16 C43,7 31,8 31,8 C25.208,6.063 22.881,7.43 21.656,9.047 C20.473,10.609 20.968,12.964 22.497,14.504 C24.785,16.806 25.797,20.516 29,19 C31.071,18.02 35,17 35,17 L35,21 C33.956,22.044 33.444,23.54 33.198,24.88 C33.043,25.729 32.293,26.228 31.513,26.213 C30.078,24.845 28.139,24 26,24 C25.663,24 25.334,24.027 25.008,24.068 C23.933,24.146 23.02,24.489 22.281,24.92 C21.762,25.193 21.277,25.521 20.834,25.897 C20.169,26.182 19.366,26.011 18.886,25.422 C15.105,20.788 11.363,20.083 9,20 C8.975,19.999 8.378,19.998 7.708,19.998 C6.765,19.997 6,19.233 6,18.289 L6,11.719 C6,11.6 5.845,11.548 5.774,11.643 C2.715,15.73 0.704,20.647 0.154,26 L0.174,26 C0.071,26.988 0,27.985 0,29 C0,29.653 0.029,30.3 0.072,30.942" id="Fill-109" fill="#FDD7AD" sketch:type="MSShapeGroup"></path>
            <path d="M33.414,30 C33.018,30 32.644,29.765 32.486,29.376 C31.409,26.718 28.863,25 26,25 C23.137,25 20.591,26.718 19.514,29.376 C19.306,29.888 18.725,30.136 18.211,29.927 C17.7,29.72 17.453,29.137 17.66,28.624 C19.044,25.208 22.318,23 26,23 C29.682,23 32.956,25.208 34.34,28.624 C34.547,29.137 34.3,29.72 33.789,29.927 C33.666,29.977 33.539,30 33.414,30" id="Fill-866" fill="#FAC176" sketch:type="MSShapeGroup"></path>
            <path d="M17.999,49 C17.793,49 17.585,48.937 17.407,48.805 L17.247,48.69 C16.197,47.941 13,45.664 13,41 C13,40.447 13.448,40 14,40 C14.552,40 15,40.447 15,41 C15,44.634 17.476,46.398 18.408,47.062 L18.593,47.195 C19.038,47.523 19.133,48.148 18.805,48.593 C18.609,48.859 18.306,49 17.999,49" id="Fill-867" fill="#FAC176" sketch:type="MSShapeGroup"></path>
        </g>
    </g>
</svg>