<?xml version="1.0" encoding="UTF-8" standalone="no"?>
<svg width="58px" height="58px" viewBox="0 0 58 58" version="1.1" xmlns="http://www.w3.org/2000/svg" xmlns:xlink="http://www.w3.org/1999/xlink" xmlns:sketch="http://www.bohemiancoding.com/sketch/ns">
    <!-- Generator: Sketch 3.2.2 (9983) - http://www.bohemiancoding.com/sketch -->
    <title>75 - Ping Pong (Flat)</title>
    <desc>Created with Sketch.</desc>
    <defs></defs>
    <g id="Page-1" stroke="none" stroke-width="1" fill="none" fill-rule="evenodd" sketch:type="MSPage">
        <g id="75---Ping-Pong-(Flat)" sketch:type="MSLayerGroup">
            <path d="M54,21 C54,32.598 45.717,42 35.5,42 C25.283,42 17,32.598 17,21 C17,9.402 25.283,0 35.5,0 C45.717,0 54,9.402 54,21" id="Fill-349" fill="#E6E7E8" sketch:type="MSShapeGroup"></path>
            <path d="M58,51.5 C58,54.538 55.538,57 52.5,57 C49.462,57 47,54.538 47,51.5 C47,48.462 49.462,46 52.5,46 C55.538,46 58,48.462 58,51.5" id="Fill-350" fill="#ECF0F1" sketch:type="MSShapeGroup"></path>
            <path d="M54,21 C54,32.598 45.717,42 35.5,42 C25.283,42 17,32.598 17,21 C17,9.402 25.283,0 35.5,0 C45.717,0 54,9.402 54,21" id="Fill-349" fill="#E6E7E8" sketch:type="MSShapeGroup"></path>
            <path d="M21,34 L50.011,34 C52.502,30.423 54,25.914 54,21 C54,9.402 45.717,0 35.5,0 C25.283,0 17,9.402 17,21 C17,25.921 18.502,30.437 21,34.017 L21,34" id="Fill-351" fill="#546A79" sketch:type="MSShapeGroup"></path>
            <path d="M17,21 C17,12.884 21.063,5.856 27,2.361 C24.453,0.861 21.567,0 18.5,0 C8.283,0 0,9.402 0,21 C0,32.598 8.283,42 18.5,42 C21.567,42 24.453,41.139 27,39.639 C21.063,36.144 17,29.116 17,21" id="Fill-352" fill="#E6E7E8" sketch:type="MSShapeGroup"></path>
            <path d="M17,21 C17,12.884 21.063,5.856 27,2.361 C24.453,0.861 21.567,0 18.5,0 C8.283,0 0,9.402 0,21 C0,25.921 1.502,30.437 4,34.017 L4,34 L20.989,34 C18.498,30.423 17,25.914 17,21" id="Fill-353" fill="#E64C3C" sketch:type="MSShapeGroup"></path>
            <path d="M21,34 L50.011,34 C52.502,30.423 54,25.914 54,21 C54,9.402 45.717,0 35.5,0 C25.283,0 17,9.402 17,21 C17,25.921 18.502,30.437 21,34.017 L21,34" id="Fill-351" fill="#546A79" sketch:type="MSShapeGroup"></path>
            <path d="M17,21 C17,12.884 21.063,5.856 27,2.361 C24.453,0.861 21.567,0 18.5,0 C8.283,0 0,9.402 0,21 C0,32.598 8.283,42 18.5,42 C21.567,42 24.453,41.139 27,39.639 C21.063,36.144 17,29.116 17,21" id="Fill-352" fill="#E6E7E8" sketch:type="MSShapeGroup"></path>
            <path d="M17,21 C17,12.884 21.063,5.856 27,2.361 C24.453,0.861 21.567,0 18.5,0 C8.283,0 0,9.402 0,21 C0,25.921 1.502,30.437 4,34.017 L4,34 L20.989,34 C18.498,30.423 17,25.914 17,21" id="Fill-353" fill="#E64C3C" sketch:type="MSShapeGroup"></path>
            <path d="M40,41.348 C38.557,41.758 37.055,42 35.5,42 C33.945,42 32.443,41.758 31,41.348 L31,48 L40,48 L40,41.348" id="Fill-354" fill="#CB8252" sketch:type="MSShapeGroup"></path>
            <path d="M31,55.296 C31,56.789 32.211,58 33.704,58 L37.296,58 C38.789,58 40,56.789 40,55.296 L40,50 L31,50 L31,55.296" id="Fill-355" fill="#CB8252" sketch:type="MSShapeGroup"></path>
            <path d="M23,41.348 C21.557,41.758 20.055,42 18.5,42 C16.945,42 15.443,41.758 14,41.348 L14,48 L23,48 L23,41.348" id="Fill-356" fill="#CB8252" sketch:type="MSShapeGroup"></path>
            <path d="M14,55.296 C14,56.789 15.211,58 16.704,58 L20.296,58 C21.789,58 23,56.789 23,55.296 L23,50 L14,50 L14,55.296" id="Fill-357" fill="#CB8252" sketch:type="MSShapeGroup"></path>
            <path d="M14,48 L23,48 L23,50 L14,50 L14,48 Z" id="Fill-358" fill="#7F5B53" sketch:type="MSShapeGroup"></path>
            <path d="M31,48 L40,48 L40,50 L31,50 L31,48 Z" id="Fill-359" fill="#7F5B53" sketch:type="MSShapeGroup"></path>
        </g>
    </g>
</svg>