<?xml version="1.0" encoding="UTF-8" standalone="no"?>
<svg width="49px" height="57px" viewBox="0 0 49 57" version="1.1" xmlns="http://www.w3.org/2000/svg" xmlns:xlink="http://www.w3.org/1999/xlink" xmlns:sketch="http://www.bohemiancoding.com/sketch/ns">
    <!-- Generator: Sketch 3.2.2 (9983) - http://www.bohemiancoding.com/sketch -->
    <title>45 - Podium (Flat)</title>
    <desc>Created with Sketch.</desc>
    <defs></defs>
    <g id="Page-1" stroke="none" stroke-width="1" fill="none" fill-rule="evenodd" sketch:type="MSPage">
        <g id="45---Podium-(Flat)" sketch:type="MSLayerGroup">
            <path d="M33.586,5.108 C33.338,6.753 33.024,8.358 32.773,9.543 C32.395,11.324 31.774,13.048 30.839,14.611 C30.644,14.938 30.447,15.235 30.25,15.515 C30.938,15.824 31.698,16 32.5,16 C35.537,16 38,13.538 38,10.5 C38,7.834 36.103,5.613 33.586,5.108 L33.586,5.108 Z M19.122,14.611 C18.187,13.048 17.566,11.324 17.188,9.543 C16.937,8.36 16.624,6.757 16.376,5.116 C13.878,5.635 12,7.848 12,10.5 C12,13.538 14.463,16 17.5,16 C18.291,16 19.042,15.83 19.721,15.529 C19.521,15.245 19.321,14.943 19.122,14.611 L19.122,14.611 Z" id="Stroke-342" stroke="#F29C1F" stroke-width="2" stroke-linecap="round" stroke-linejoin="round" sketch:type="MSShapeGroup"></path>
            <path d="M30.839,14.611 C31.774,13.048 32.395,11.324 32.773,9.543 C33.229,7.391 33.901,3.851 33.99,1.208 C34.012,0.544 33.466,0 32.801,0 L17.16,0 C16.496,0 15.949,0.544 15.971,1.208 C16.061,3.851 16.732,7.391 17.188,9.543 C17.566,11.324 18.187,13.048 19.122,14.611 C20.911,17.604 22.811,18.561 23.952,18.864 L23.774,19.224 C22.357,22.109 21.26,24 19,24 C18.447,24 18,24.447 18,25 C18,25.553 18.447,26 19,26 L31,26 C31.553,26 32,25.553 32,25 C32,24.447 31.553,24 31,24 C28.74,24 27.643,22.109 26.226,19.224 L26.047,18.862 C27.177,18.555 29.055,17.595 30.839,14.611" id="Fill-269" fill="#F0C419" sketch:type="MSShapeGroup"></path>
            <path d="M34,35 L34,27.155 C34,25.965 33.033,25 31.843,25 L17.156,25 C15.965,25 15,25.965 15,27.156 L15,39.844 C15,41.035 14.035,42 12.844,42 L2.156,42 C0.965,42 0,42.965 0,44.156 L0,55.752 C0,56.438 0.556,56.994 1.242,56.994 L32.994,56.994 L47.757,57 C48.443,57 49,56.444 49,55.758 L49,39.161 C49,37.971 48.036,37.005 46.845,37.005 L36.155,37.001 C34.965,37 34,36.19 34,35" id="Fill-265" fill="#546A79" sketch:type="MSShapeGroup"></path>
            <path d="M29,33.5 C29,35.985 26.985,38 24.5,38 C22.015,38 20,35.985 20,33.5 C20,31.015 22.015,29 24.5,29 C26.985,29 29,31.015 29,33.5" id="Fill-266" fill="#F3D55B" sketch:type="MSShapeGroup"></path>
            <path d="M45,46.5 C45,48.985 42.985,51 40.5,51 C38.015,51 36,48.985 36,46.5 C36,44.015 38.015,42 40.5,42 C42.985,42 45,44.015 45,46.5" id="Fill-267" fill="#8697CB" sketch:type="MSShapeGroup"></path>
            <path d="M13,49.5 C13,51.985 10.985,54 8.5,54 C6.015,54 4,51.985 4,49.5 C4,47.015 6.015,45 8.5,45 C10.985,45 13,47.015 13,49.5" id="Fill-268" fill="#88C057" sketch:type="MSShapeGroup"></path>
        </g>
    </g>
</svg>