<?xml version="1.0" encoding="UTF-8" standalone="no"?>
<svg width="60px" height="56px" viewBox="0 0 60 56" version="1.1" xmlns="http://www.w3.org/2000/svg" xmlns:xlink="http://www.w3.org/1999/xlink" xmlns:sketch="http://www.bohemiancoding.com/sketch/ns">
    <!-- Generator: Sketch 3.2.2 (9983) - http://www.bohemiancoding.com/sketch -->
    <title>91 - Pool (Flat)</title>
    <desc>Created with Sketch.</desc>
    <defs></defs>
    <g id="Page-1" stroke="none" stroke-width="1" fill="none" fill-rule="evenodd" sketch:type="MSPage">
        <g id="91---Pool-(Flat)" sketch:type="MSLayerGroup" transform="translate(0.000000, -1.000000)">
            <path d="M27.894,6.171 C28.83,4.546 31.17,4.546 32.106,6.171 L58.671,52.296 C59.606,53.921 58.437,56 56.565,56 L3.435,56 C1.563,56 0.394,53.921 1.329,52.296 L27.894,6.171 L27.894,6.171 Z" id="Fill-126" fill="#24AE5F" sketch:type="MSShapeGroup"></path>
            <path d="M27.894,6.171 C28.83,4.546 31.17,4.546 32.106,6.171 L58.671,52.296 C59.606,53.921 58.437,56 56.565,56 L3.435,56 C1.563,56 0.394,53.921 1.329,52.296 L27.894,6.171 L27.894,6.171 Z" id="Stroke-127" stroke="#38454F" stroke-width="2" sketch:type="MSShapeGroup"></path>
            <path d="M53.874,47 C53.874,50.866 50.74,54 46.874,54 C43.008,54 39.874,50.866 39.874,47 C39.874,43.134 43.008,40 46.874,40 C50.74,40 53.874,43.134 53.874,47" id="Fill-525" fill="#38454F" sketch:type="MSShapeGroup"></path>
            <path d="M36.874,18 C36.874,21.866 33.74,25 29.874,25 C26.008,25 22.874,21.866 22.874,18 C22.874,14.134 26.008,11 29.874,11 C33.74,11 36.874,14.134 36.874,18" id="Fill-526" fill="#E64C3C" sketch:type="MSShapeGroup"></path>
            <path d="M19.874,47 C19.874,50.866 16.74,54 12.874,54 C9.008,54 5.874,50.866 5.874,47 C5.874,43.134 9.008,40 12.874,40 C16.74,40 19.874,43.134 19.874,47" id="Fill-527" fill="#F3D55B" sketch:type="MSShapeGroup"></path>
            <path d="M57.071,8 L50,15.071 L42.929,8 L50,0.929 L57.071,8" id="Fill-528" fill="#556080" sketch:type="MSShapeGroup"></path>
            <path d="M27.66,40.365 L36.508,49.213 C37.318,46.778 36.761,43.988 34.823,42.05 C32.885,40.112 30.095,39.555 27.66,40.365" id="Fill-939" fill="#ECF0F1" sketch:type="MSShapeGroup"></path>
            <path d="M24.924,51.95 C26.932,53.958 29.856,54.485 32.352,53.542 L23.332,44.522 C22.388,47.017 22.915,49.941 24.924,51.95" id="Fill-940" fill="#ECF0F1" sketch:type="MSShapeGroup"></path>
            <path d="M28.874,33 C28.874,30.259 27.295,27.893 25,26.744 L25,39.256 C27.295,38.107 28.874,35.741 28.874,33" id="Fill-941" fill="#D0E8F9" sketch:type="MSShapeGroup"></path>
            <path d="M14.874,33 C14.874,35.841 16.569,38.281 19,39.378 L19,26.622 C16.569,27.719 14.874,30.159 14.874,33" id="Fill-942" fill="#D0E8F9" sketch:type="MSShapeGroup"></path>
            <path d="M37.874,40 C40.614,40 42.981,38.421 44.13,36.127 L31.617,36.127 C32.766,38.421 35.133,40 37.874,40" id="Fill-943" fill="#ECF0F1" sketch:type="MSShapeGroup"></path>
            <path d="M37.874,26 C35.033,26 32.593,27.695 31.495,30.127 L44.252,30.127 C43.154,27.695 40.714,26 37.874,26" id="Fill-944" fill="#ECF0F1" sketch:type="MSShapeGroup"></path>
            <path d="M25,26.744 C24.058,26.272 22.999,26 21.874,26 C20.848,26 19.877,26.226 19,26.622 L19,39.378 C19.877,39.774 20.848,40 21.874,40 C22.999,40 24.058,39.728 25,39.256 L25,26.744" id="Fill-945" fill="#E57E25" sketch:type="MSShapeGroup"></path>
            <path d="M24.924,42.05 C24.199,42.775 23.672,43.621 23.332,44.522 L32.352,53.542 C33.252,53.202 34.098,52.675 34.823,51.95 C35.619,51.154 36.176,50.213 36.508,49.213 L27.66,40.365 C26.661,40.698 25.719,41.255 24.924,42.05" id="Fill-946" fill="#C03A2B" sketch:type="MSShapeGroup"></path>
            <path d="M44.874,33 C44.874,31.975 44.648,31.004 44.252,30.127 L31.495,30.127 C31.099,31.004 30.874,31.975 30.874,33 C30.874,34.125 31.145,35.185 31.617,36.127 L44.13,36.127 C44.602,35.185 44.874,34.125 44.874,33" id="Fill-947" fill="#3B97D3" sketch:type="MSShapeGroup"></path>
            <path d="M52.828,5.172 C54.391,6.734 54.391,9.266 52.828,10.828 C51.266,12.391 48.734,12.391 47.172,10.828 C45.609,9.266 45.609,6.734 47.172,5.172 C48.734,3.61 51.266,3.61 52.828,5.172" id="Fill-1130" fill="#26B99A" sketch:type="MSShapeGroup"></path>
            <path d="M51.328,6.672 C52.062,7.405 52.062,8.595 51.328,9.328 C50.595,10.062 49.405,10.062 48.672,9.328 C47.938,8.595 47.938,7.405 48.672,6.672 C49.405,5.938 50.595,5.938 51.328,6.672" id="Fill-1131" fill="#13A085" sketch:type="MSShapeGroup"></path>
        </g>
    </g>
</svg>