<?xml version="1.0" encoding="UTF-8" standalone="no"?>
<svg width="58px" height="58px" viewBox="0 0 58 58" version="1.1" xmlns="http://www.w3.org/2000/svg" xmlns:xlink="http://www.w3.org/1999/xlink" xmlns:sketch="http://www.bohemiancoding.com/sketch/ns">
    <!-- Generator: Sketch 3.2.2 (9983) - http://www.bohemiancoding.com/sketch -->
    <title>26 - Racing Wheel (Flat)</title>
    <desc>Created with Sketch.</desc>
    <defs></defs>
    <g id="Page-1" stroke="none" stroke-width="1" fill="none" fill-rule="evenodd" sketch:type="MSPage">
        <g id="26---Racing-Wheel-(Flat)" sketch:type="MSLayerGroup">
            <path d="M29,0 C13.009,0 0,13.01 0,29 C0,44.99 13.009,58 29,58 C44.991,58 58,44.99 58,29 C58,13.01 44.991,0 29,0 L29,0 Z M29,53 C15.766,53 5,42.234 5,29 C5,15.766 15.766,5 29,5 C42.234,5 53,15.766 53,29 C53,42.234 42.234,53 29,53 L29,53 Z" id="Fill-418" fill="#ECF0F1" sketch:type="MSShapeGroup"></path>
            <path d="M6.437,20.822 C5.606,23.106 5.118,25.551 5.023,28.095 C6.35,28.159 8.494,28.444 11.081,29.618 L20.392,17.397 C13.089,18.113 8.773,19.651 6.437,20.822" id="Fill-442" fill="#BDC3C7" sketch:type="MSShapeGroup"></path>
            <path d="M29.123,16.998 C26.926,16.998 24.921,17.068 23.069,17.185 L12.884,30.552 C14.754,31.64 16.786,33.199 18.877,35.459 C20.698,37.428 21.768,39.717 22.371,42 L35.873,42 C36.477,39.717 37.547,37.428 39.369,35.459 C41.359,33.307 43.346,31.791 45.195,30.711 L34.722,17.159 C32.995,17.058 31.142,16.998 29.123,16.998" id="Fill-443" fill="#546A79" sketch:type="MSShapeGroup"></path>
            <path d="M22.667,52.146 C24.686,52.699 26.808,53 29,53 C31.277,53 33.478,52.674 35.567,52.079 C35.258,50.239 34.961,47.224 35.461,44 L22.784,44 C23.29,47.264 22.979,50.313 22.667,52.146" id="Fill-444" fill="#BDC3C7" sketch:type="MSShapeGroup"></path>
            <path d="M52.978,28.124 C52.883,25.514 52.375,23.009 51.509,20.674 C49.058,19.5 44.675,18.019 37.399,17.352 L46.995,29.77 C49.528,28.599 51.669,28.233 52.978,28.124" id="Fill-445" fill="#BDC3C7" sketch:type="MSShapeGroup"></path>
            <path d="M20.392,17.397 L11.081,29.618 C11.662,29.881 12.263,30.19 12.884,30.552 L23.069,17.185 C22.137,17.244 21.241,17.314 20.392,17.397" id="Fill-446" fill="#8697CB" sketch:type="MSShapeGroup"></path>
            <path d="M37.399,17.352 C36.552,17.274 35.65,17.212 34.722,17.159 L45.195,30.711 C45.813,30.35 46.413,30.038 46.995,29.77 L37.399,17.352" id="Fill-447" fill="#8697CB" sketch:type="MSShapeGroup"></path>
            <path d="M22.784,44 L35.461,44 C35.563,43.339 35.696,42.671 35.873,42 L22.371,42 C22.548,42.671 22.682,43.339 22.784,44" id="Fill-448" fill="#8697CB" sketch:type="MSShapeGroup"></path>
        </g>
    </g>
</svg>