<?xml version="1.0" encoding="UTF-8" standalone="no"?>
<svg width="58px" height="31px" viewBox="0 0 58 31" version="1.1" xmlns="http://www.w3.org/2000/svg" xmlns:xlink="http://www.w3.org/1999/xlink" xmlns:sketch="http://www.bohemiancoding.com/sketch/ns">
    <!-- Generator: Sketch 3.2.2 (9983) - http://www.bohemiancoding.com/sketch -->
    <title>35 - Ring (Flat)</title>
    <desc>Created with Sketch.</desc>
    <defs></defs>
    <g id="Page-1" stroke="none" stroke-width="1" fill="none" fill-rule="evenodd" sketch:type="MSPage">
        <g id="35---Ring-(Flat)" sketch:type="MSLayerGroup">
            <path d="M0,21 L46,21 L46,31 L0,31 L0,21 Z" id="Fill-333" fill="#38454F" sketch:type="MSShapeGroup"></path>
            <path d="M55,27 L55,24 L51,24 L51,21 L46,21 L46,31 L58,31 L58,27 L55,27" id="Fill-334" fill="#BDC3C7" sketch:type="MSShapeGroup"></path>
            <path d="M38,14 L42,14 M4,14 L29,14 M9,5 L4,5 M42,5 L18,5" id="Stroke-335" stroke="#0096E6" stroke-width="2" stroke-linecap="round" stroke-linejoin="round" sketch:type="MSShapeGroup"></path>
            <path d="M4,21 L0,21 L0,2 C0,0.914 0.88,0.034 1.966,0.034 L2.034,0.034 C3.12,0.034 4,0.914 4,2 L4,21" id="Fill-1002" fill="#E64C3C" sketch:type="MSShapeGroup"></path>
            <path d="M46,21 L42,21 L42,2 C42,0.914 42.88,0.034 43.966,0.034 L44.034,0.034 C45.12,0.034 46,0.914 46,2 L46,21" id="Fill-1003" fill="#48A0DC" sketch:type="MSShapeGroup"></path>
            <path d="M36.952,16 L30.048,16 C29.469,16 29,15.531 29,14.952 L29,13.048 C29,12.469 29.469,12 30.048,12 L36.952,12 C37.531,12 38,12.469 38,13.048 L38,14.952 C38,15.531 37.531,16 36.952,16" id="Fill-1004" fill="#BDC3C7" sketch:type="MSShapeGroup"></path>
            <path d="M16.952,7 L10.048,7 C9.469,7 9,6.531 9,5.952 L9,4.048 C9,3.469 9.469,3 10.048,3 L16.952,3 C17.531,3 18,3.469 18,4.048 L18,5.952 C18,6.531 17.531,7 16.952,7" id="Fill-1005" fill="#BDC3C7" sketch:type="MSShapeGroup"></path>
        </g>
    </g>
</svg>