<?xml version="1.0" encoding="UTF-8" standalone="no"?>
<svg width="58px" height="58px" viewBox="0 0 58 58" version="1.1" xmlns="http://www.w3.org/2000/svg" xmlns:xlink="http://www.w3.org/1999/xlink" xmlns:sketch="http://www.bohemiancoding.com/sketch/ns">
    <!-- Generator: Sketch 3.2.2 (9983) - http://www.bohemiancoding.com/sketch -->
    <title>90 - Roller Skates (Flat)</title>
    <desc>Created with Sketch.</desc>
    <defs></defs>
    <g id="Page-1" stroke="none" stroke-width="1" fill="none" fill-rule="evenodd" sketch:type="MSPage">
        <g id="90---Roller-Skates-(Flat)" sketch:type="MSLayerGroup">
            <path d="M4,44 L52,44 L52,47 L4,47 L4,44 Z" id="Fill-105" fill="#38454F" sketch:type="MSShapeGroup"></path>
            <path d="M49.335,37.845 L34.827,31.558 L30.435,35.95 C29.263,37.121 27.364,37.121 26.192,35.95 C25.021,34.778 25.021,32.879 26.192,31.707 L29,28.9 L29,25.005 L27,23 L27,20 L24,20 C22.343,20 21,18.657 21,17 C21,15.343 22.343,14 24,14 L27,14 L27,12 L29,10 L29,8.087 C29,6.934 28.066,6 26.913,6 L6.086,6 C4.934,6 4,6.934 4,8.087 L4,9.427 C4,9.795 4.146,10.148 4.406,10.408 L5.593,11.594 C5.854,11.854 6,12.207 6,12.575 L6,27.426 C6,27.794 5.854,28.146 5.594,28.406 L4.406,29.594 C4.146,29.854 4,30.207 4,30.574 L4,44 L52,44 L52,41.904 C52,40.141 50.953,38.546 49.335,37.845" id="Fill-125" fill="#546A79" sketch:type="MSShapeGroup"></path>
            <path d="M36.142,30.243 L30.435,35.95 C29.263,37.121 27.364,37.121 26.192,35.95 C25.021,34.778 25.021,32.879 26.192,31.707 L31.899,26 L36.142,30.243" id="Fill-639" fill="#F0C419" sketch:type="MSShapeGroup"></path>
            <path d="M14,44 L4,44 L4,34 C9.523,34 14,38.477 14,44" id="Fill-640" fill="#38454F" sketch:type="MSShapeGroup"></path>
            <path d="M31,14 L24,14 C22.343,14 21,15.343 21,17 C21,18.657 22.343,20 24,20 L31,20 L31,14" id="Fill-641" fill="#F0C419" sketch:type="MSShapeGroup"></path>
            <path d="M6,25 L10,25 L10,27 L6,27 L6,25 Z" id="Fill-642" fill="#38454F" sketch:type="MSShapeGroup"></path>
            <path d="M6,21 L10,21 L10,23 L6,23 L6,21 Z" id="Fill-643" fill="#38454F" sketch:type="MSShapeGroup"></path>
            <path d="M6,17 L10,17 L10,19 L6,19 L6,17 Z" id="Fill-644" fill="#38454F" sketch:type="MSShapeGroup"></path>
            <path d="M6,13 L10,13 L10,15 L6,15 L6,13 Z" id="Fill-645" fill="#38454F" sketch:type="MSShapeGroup"></path>
            <path d="M25,10 L8,10 C7.448,10 7,9.552 7,9 C7,8.448 7.448,8 8,8 L25,8 C25.552,8 26,8.448 26,9 C26,9.552 25.552,10 25,10" id="Fill-646" fill="#38454F" sketch:type="MSShapeGroup"></path>
            <path d="M6.086,6 L9,6 L9,2 C9,0.895 8.105,0 7,0 C5.895,0 5,0.895 5,2 L5,6.313 C5.317,6.118 5.687,6 6.086,6" id="Fill-948" fill="#38454F" sketch:type="MSShapeGroup"></path>
            <path d="M14,50 L22,50 L22,52 L14,52 L14,50 Z" id="Fill-949" fill="#BDC3C7" sketch:type="MSShapeGroup"></path>
            <path d="M36,50 L44,50 L44,52 L36,52 L36,50 Z" id="Fill-950" fill="#BDC3C7" sketch:type="MSShapeGroup"></path>
            <path d="M7,44 C3.134,44 0,47.134 0,51 C0,54.866 3.134,58 7,58 C10.866,58 14,54.866 14,51 C14,47.134 10.866,44 7,44 L7,44 Z M7,54 C5.346,54 4,52.654 4,51 C4,49.346 5.346,48 7,48 C8.654,48 10,49.346 10,51 C10,52.654 8.654,54 7,54 L7,54 Z" id="Fill-951" fill="#BDC3C7" sketch:type="MSShapeGroup"></path>
            <path d="M29,44 C25.134,44 22,47.134 22,51 C22,54.866 25.134,58 29,58 C32.866,58 36,54.866 36,51 C36,47.134 32.866,44 29,44 L29,44 Z M29,54 C27.346,54 26,52.654 26,51 C26,49.346 27.346,48 29,48 C30.654,48 32,49.346 32,51 C32,52.654 30.654,54 29,54 L29,54 Z" id="Fill-952" fill="#BDC3C7" sketch:type="MSShapeGroup"></path>
            <path d="M51,44 C47.134,44 44,47.134 44,51 C44,54.866 47.134,58 51,58 C54.866,58 58,54.866 58,51 C58,47.134 54.866,44 51,44 L51,44 Z M51,54 C49.346,54 48,52.654 48,51 C48,49.346 49.346,48 51,48 C52.654,48 54,49.346 54,51 C54,52.654 52.654,54 51,54 L51,54 Z" id="Fill-953" fill="#BDC3C7" sketch:type="MSShapeGroup"></path>
            <path d="M7,54 C5.346,54 4,52.654 4,51 C4,49.346 5.346,48 7,48 C8.654,48 10,49.346 10,51 C10,52.654 8.654,54 7,54 L7,54 Z M51,54 C49.346,54 48,52.654 48,51 C48,49.346 49.346,48 51,48 C52.654,48 54,49.346 54,51 C54,52.654 52.654,54 51,54 L51,54 Z M29,54 C27.346,54 26,52.654 26,51 C26,49.346 27.346,48 29,48 C30.654,48 32,49.346 32,51 C32,52.654 30.654,54 29,54 L29,54 Z" id="Stroke-954" stroke="#38454F" stroke-width="2" sketch:type="MSShapeGroup"></path>
        </g>
    </g>
</svg>