<?xml version="1.0" encoding="UTF-8" standalone="no"?>
<svg width="51px" height="56px" viewBox="0 0 51 56" version="1.1" xmlns="http://www.w3.org/2000/svg" xmlns:xlink="http://www.w3.org/1999/xlink" xmlns:sketch="http://www.bohemiancoding.com/sketch/ns">
    <!-- Generator: Sketch 3.2.2 (9983) - http://www.bohemiancoding.com/sketch -->
    <title>51 - Rowing (Flat)</title>
    <desc>Created with Sketch.</desc>
    <defs></defs>
    <g id="Page-1" stroke="none" stroke-width="1" fill="none" fill-rule="evenodd" sketch:type="MSPage">
        <g id="51---Rowing-(Flat)" sketch:type="MSLayerGroup" transform="translate(0.000000, -1.000000)">
            <path d="M43.172,56.136 L49.97,50.238 C51.216,49.156 51.351,47.252 50.269,46.006 C49.188,44.76 47.283,44.625 46.037,45.706 L39.24,51.605 C37.994,52.686 37.859,54.591 38.94,55.837 C40.021,57.083 41.926,57.218 43.172,56.136" id="Fill-244" fill="#38454F" sketch:type="MSShapeGroup"></path>
            <path d="M11.829,3.232 C9.486,0.532 5.359,0.24 2.659,2.583 C-0.041,4.926 -0.333,9.052 2.01,11.752 L13.865,25.414 L23.649,16.854 L11.829,3.232" id="Fill-245" fill="#38454F" sketch:type="MSShapeGroup"></path>
            <path d="M26.254,29.773 L26.254,29.773 C28.954,27.43 29.246,23.304 26.903,20.604 L23.649,16.854 L13.865,25.414 L17.084,29.124 C19.427,31.824 23.553,32.116 26.254,29.773" id="Fill-246" fill="#F0C419" sketch:type="MSShapeGroup"></path>
            <path d="M26.253,29.773 C26.922,29.193 27.442,28.504 27.811,27.754 L44.527,47.017 L40.75,50.294 L24.035,31.031 C24.829,30.77 25.585,30.353 26.253,29.773" id="Fill-799" fill="#546A79" sketch:type="MSShapeGroup"></path>
        </g>
    </g>
</svg>