<?xml version="1.0" encoding="UTF-8" standalone="no"?>
<svg width="60px" height="58px" viewBox="0 0 60 58" version="1.1" xmlns="http://www.w3.org/2000/svg" xmlns:xlink="http://www.w3.org/1999/xlink" xmlns:sketch="http://www.bohemiancoding.com/sketch/ns">
    <!-- Generator: Sketch 3.2.2 (9983) - http://www.bohemiancoding.com/sketch -->
    <title>70 - Soccer Pitch (Flat)</title>
    <desc>Created with Sketch.</desc>
    <defs></defs>
    <g id="Page-1" stroke="none" stroke-width="1" fill="none" fill-rule="evenodd" sketch:type="MSPage">
        <g id="70---Soccer-Pitch-(Flat)" sketch:type="MSLayerGroup">
            <path d="M2,10 L58,10 L58,48 L2,48 L2,10 Z" id="Fill-81" fill="#24AE5F" sketch:type="MSShapeGroup"></path>
            <path d="M9,10 L17,10 L17,48 L9,48 L9,10 Z" id="Fill-82" fill="#4FBA6F" sketch:type="MSShapeGroup"></path>
            <path d="M41,10 L49,10 L49,48 L41,48 L41,10 Z" id="Fill-83" fill="#4FBA6F" sketch:type="MSShapeGroup"></path>
            <path d="M26,10 L34,10 L34,48 L26,48 L26,10 Z" id="Fill-84" fill="#4FBA6F" sketch:type="MSShapeGroup"></path>
            <path d="M15,22.702 L15,17 L2,17 L2,19 L13,19 L13,39 L2,39 L2,41 L15,41 L15,35.298 C17.413,34.147 19,31.71 19,29 C19,26.29 17.413,23.853 15,22.702 L15,22.702 Z M15,32.99 L15,25.01 C16.234,25.938 17,27.406 17,29 C17,30.594 16.234,32.062 15,32.99 L15,32.99 Z" id="Fill-553" fill="#A4E869" sketch:type="MSShapeGroup"></path>
            <path d="M45,17 L45,22.702 C42.586,23.854 41,26.29 41,29 C41,31.71 42.586,34.146 45,35.298 L45,41 L58,41 L58,39 L47,39 L47,19 L58,19 L58,17 L45,17 L45,17 Z M43,29 C43,27.406 43.766,25.938 45,25.01 L45,32.99 C43.766,32.062 43,30.594 43,29 L43,29 Z" id="Fill-554" fill="#A4E869" sketch:type="MSShapeGroup"></path>
            <path d="M31,23.09 L31,10 L29,10 L29,23.09 C26.167,23.569 24,26.033 24,29 C24,31.967 26.167,34.431 29,34.91 L29,48 L31,48 L31,34.91 C33.833,34.431 36,31.967 36,29 C36,26.033 33.833,23.569 31,23.09 L31,23.09 Z M26,29 C26,27.142 27.28,25.589 29,25.142 L29,32.858 C27.28,32.411 26,30.858 26,29 L26,29 Z M31,32.858 L31,25.142 C32.72,25.589 34,27.142 34,29 C34,30.858 32.72,32.411 31,32.858 L31,32.858 Z" id="Fill-555" fill="#A4E869" sketch:type="MSShapeGroup"></path>
            <path d="M51,37 L58,37 L58,35 L53,35 L53,23 L58,23 L58,21 L51,21 L51,37" id="Fill-556" fill="#A4E869" sketch:type="MSShapeGroup"></path>
            <path d="M9,21 L2,21 L2,23 L7,23 L7,35 L2,35 L2,37 L9,37 L9,21" id="Fill-557" fill="#A4E869" sketch:type="MSShapeGroup"></path>
            <path d="M58,58 L57,58 C56.448,58 56,57.552 56,57 C56,56.448 56.448,56 57,56 L58,56 C58.552,56 59,56.448 59,57 C59,57.552 58.552,58 58,58 L58,58 Z M54,58 L53,58 C52.448,58 52,57.552 52,57 C52,56.448 52.448,56 53,56 L54,56 C54.552,56 55,56.448 55,57 C55,57.552 54.552,58 54,58 L54,58 Z M50,58 L49,58 C48.448,58 48,57.552 48,57 C48,56.448 48.448,56 49,56 L50,56 C50.552,56 51,56.448 51,57 C51,57.552 50.552,58 50,58 L50,58 Z M46,58 L45,58 C44.448,58 44,57.552 44,57 C44,56.448 44.448,56 45,56 L46,56 C46.552,56 47,56.448 47,57 C47,57.552 46.552,58 46,58 L46,58 Z M42,58 L41,58 C40.448,58 40,57.552 40,57 C40,56.448 40.448,56 41,56 L42,56 C42.552,56 43,56.448 43,57 C43,57.552 42.552,58 42,58 L42,58 Z M38,58 L37,58 C36.448,58 36,57.552 36,57 C36,56.448 36.448,56 37,56 L38,56 C38.552,56 39,56.448 39,57 C39,57.552 38.552,58 38,58 L38,58 Z M34,58 L33,58 C32.448,58 32,57.552 32,57 C32,56.448 32.448,56 33,56 L34,56 C34.552,56 35,56.448 35,57 C35,57.552 34.552,58 34,58 L34,58 Z M30,58 L29,58 C28.448,58 28,57.552 28,57 C28,56.448 28.448,56 29,56 L30,56 C30.552,56 31,56.448 31,57 C31,57.552 30.552,58 30,58 L30,58 Z M26,58 L25,58 C24.448,58 24,57.552 24,57 C24,56.448 24.448,56 25,56 L26,56 C26.552,56 27,56.448 27,57 C27,57.552 26.552,58 26,58 L26,58 Z M22,58 L21,58 C20.448,58 20,57.552 20,57 C20,56.448 20.448,56 21,56 L22,56 C22.552,56 23,56.448 23,57 C23,57.552 22.552,58 22,58 L22,58 Z M18,58 L17,58 C16.448,58 16,57.552 16,57 C16,56.448 16.448,56 17,56 L18,56 C18.552,56 19,56.448 19,57 C19,57.552 18.552,58 18,58 L18,58 Z M14,58 L13,58 C12.448,58 12,57.552 12,57 C12,56.448 12.448,56 13,56 L14,56 C14.552,56 15,56.448 15,57 C15,57.552 14.552,58 14,58 L14,58 Z M10,58 L9,58 C8.448,58 8,57.552 8,57 C8,56.448 8.448,56 9,56 L10,56 C10.552,56 11,56.448 11,57 C11,57.552 10.552,58 10,58 L10,58 Z M6,58 L5,58 C4.448,58 4,57.552 4,57 C4,56.448 4.448,56 5,56 L6,56 C6.552,56 7,56.448 7,57 C7,57.552 6.552,58 6,58 L6,58 Z M2,58 L1,58 C0.448,58 0,57.552 0,57 C0,56.448 0.448,56 1,56 L2,56 C2.552,56 3,56.448 3,57 C3,57.552 2.552,58 2,58 L2,58 Z" id="Fill-714" fill="#8697CB" sketch:type="MSShapeGroup"></path>
            <path d="M54,55 L53,55 C52.448,55 52,54.552 52,54 C52,53.448 52.448,53 53,53 L54,53 C54.552,53 55,53.448 55,54 C55,54.552 54.552,55 54,55 L54,55 Z M50,55 L49,55 C48.448,55 48,54.552 48,54 C48,53.448 48.448,53 49,53 L50,53 C50.552,53 51,53.448 51,54 C51,54.552 50.552,55 50,55 L50,55 Z M46,55 L45,55 C44.448,55 44,54.552 44,54 C44,53.448 44.448,53 45,53 L46,53 C46.552,53 47,53.448 47,54 C47,54.552 46.552,55 46,55 L46,55 Z M42,55 L41,55 C40.448,55 40,54.552 40,54 C40,53.448 40.448,53 41,53 L42,53 C42.552,53 43,53.448 43,54 C43,54.552 42.552,55 42,55 L42,55 Z M38,55 L37,55 C36.448,55 36,54.552 36,54 C36,53.448 36.448,53 37,53 L38,53 C38.552,53 39,53.448 39,54 C39,54.552 38.552,55 38,55 L38,55 Z M34,55 L33,55 C32.448,55 32,54.552 32,54 C32,53.448 32.448,53 33,53 L34,53 C34.552,53 35,53.448 35,54 C35,54.552 34.552,55 34,55 L34,55 Z M30,55 L29,55 C28.448,55 28,54.552 28,54 C28,53.448 28.448,53 29,53 L30,53 C30.552,53 31,53.448 31,54 C31,54.552 30.552,55 30,55 L30,55 Z M26,55 L25,55 C24.448,55 24,54.552 24,54 C24,53.448 24.448,53 25,53 L26,53 C26.552,53 27,53.448 27,54 C27,54.552 26.552,55 26,55 L26,55 Z M22,55 L21,55 C20.448,55 20,54.552 20,54 C20,53.448 20.448,53 21,53 L22,53 C22.552,53 23,53.448 23,54 C23,54.552 22.552,55 22,55 L22,55 Z M18,55 L17,55 C16.448,55 16,54.552 16,54 C16,53.448 16.448,53 17,53 L18,53 C18.552,53 19,53.448 19,54 C19,54.552 18.552,55 18,55 L18,55 Z M14,55 L13,55 C12.448,55 12,54.552 12,54 C12,53.448 12.448,53 13,53 L14,53 C14.552,53 15,53.448 15,54 C15,54.552 14.552,55 14,55 L14,55 Z M10,55 L9,55 C8.448,55 8,54.552 8,54 C8,53.448 8.448,53 9,53 L10,53 C10.552,53 11,53.448 11,54 C11,54.552 10.552,55 10,55 L10,55 Z M6,55 L5,55 C4.448,55 4,54.552 4,54 C4,53.448 4.448,53 5,53 L6,53 C6.552,53 7,53.448 7,54 C7,54.552 6.552,55 6,55 L6,55 Z" id="Fill-715" fill="#8697CB" sketch:type="MSShapeGroup"></path>
            <path d="M50,52 L49,52 C48.448,52 48,51.552 48,51 C48,50.448 48.448,50 49,50 L50,50 C50.552,50 51,50.448 51,51 C51,51.552 50.552,52 50,52 L50,52 Z M46,52 L45,52 C44.448,52 44,51.552 44,51 C44,50.448 44.448,50 45,50 L46,50 C46.552,50 47,50.448 47,51 C47,51.552 46.552,52 46,52 L46,52 Z M42,52 L41,52 C40.448,52 40,51.552 40,51 C40,50.448 40.448,50 41,50 L42,50 C42.552,50 43,50.448 43,51 C43,51.552 42.552,52 42,52 L42,52 Z M38,52 L37,52 C36.448,52 36,51.552 36,51 C36,50.448 36.448,50 37,50 L38,50 C38.552,50 39,50.448 39,51 C39,51.552 38.552,52 38,52 L38,52 Z M34,52 L33,52 C32.448,52 32,51.552 32,51 C32,50.448 32.448,50 33,50 L34,50 C34.552,50 35,50.448 35,51 C35,51.552 34.552,52 34,52 L34,52 Z M30,52 L29,52 C28.448,52 28,51.552 28,51 C28,50.448 28.448,50 29,50 L30,50 C30.552,50 31,50.448 31,51 C31,51.552 30.552,52 30,52 L30,52 Z M26,52 L25,52 C24.448,52 24,51.552 24,51 C24,50.448 24.448,50 25,50 L26,50 C26.552,50 27,50.448 27,51 C27,51.552 26.552,52 26,52 L26,52 Z M22,52 L21,52 C20.448,52 20,51.552 20,51 C20,50.448 20.448,50 21,50 L22,50 C22.552,50 23,50.448 23,51 C23,51.552 22.552,52 22,52 L22,52 Z M18,52 L17,52 C16.448,52 16,51.552 16,51 C16,50.448 16.448,50 17,50 L18,50 C18.552,50 19,50.448 19,51 C19,51.552 18.552,52 18,52 L18,52 Z M14,52 L13,52 C12.448,52 12,51.552 12,51 C12,50.448 12.448,50 13,50 L14,50 C14.552,50 15,50.448 15,51 C15,51.552 14.552,52 14,52 L14,52 Z M10,52 L9,52 C8.448,52 8,51.552 8,51 C8,50.448 8.448,50 9,50 L10,50 C10.552,50 11,50.448 11,51 C11,51.552 10.552,52 10,52 L10,52 Z" id="Fill-716" fill="#8697CB" sketch:type="MSShapeGroup"></path>
            <path d="M59,2 L58,2 C57.448,2 57,1.552 57,1 C57,0.448 57.448,0 58,0 L59,0 C59.552,0 60,0.448 60,1 C60,1.552 59.552,2 59,2 L59,2 Z M55,2 L54,2 C53.448,2 53,1.552 53,1 C53,0.448 53.448,0 54,0 L55,0 C55.552,0 56,0.448 56,1 C56,1.552 55.552,2 55,2 L55,2 Z M51,2 L50,2 C49.448,2 49,1.552 49,1 C49,0.448 49.448,0 50,0 L51,0 C51.552,0 52,0.448 52,1 C52,1.552 51.552,2 51,2 L51,2 Z M47,2 L46,2 C45.448,2 45,1.552 45,1 C45,0.448 45.448,0 46,0 L47,0 C47.552,0 48,0.448 48,1 C48,1.552 47.552,2 47,2 L47,2 Z M43,2 L42,2 C41.448,2 41,1.552 41,1 C41,0.448 41.448,0 42,0 L43,0 C43.552,0 44,0.448 44,1 C44,1.552 43.552,2 43,2 L43,2 Z M39,2 L38,2 C37.448,2 37,1.552 37,1 C37,0.448 37.448,0 38,0 L39,0 C39.552,0 40,0.448 40,1 C40,1.552 39.552,2 39,2 L39,2 Z M35,2 L34,2 C33.448,2 33,1.552 33,1 C33,0.448 33.448,0 34,0 L35,0 C35.552,0 36,0.448 36,1 C36,1.552 35.552,2 35,2 L35,2 Z M31,2 L30,2 C29.448,2 29,1.552 29,1 C29,0.448 29.448,0 30,0 L31,0 C31.552,0 32,0.448 32,1 C32,1.552 31.552,2 31,2 L31,2 Z M27,2 L26,2 C25.448,2 25,1.552 25,1 C25,0.448 25.448,0 26,0 L27,0 C27.552,0 28,0.448 28,1 C28,1.552 27.552,2 27,2 L27,2 Z M23,2 L22,2 C21.448,2 21,1.552 21,1 C21,0.448 21.448,0 22,0 L23,0 C23.552,0 24,0.448 24,1 C24,1.552 23.552,2 23,2 L23,2 Z M19,2 L18,2 C17.448,2 17,1.552 17,1 C17,0.448 17.448,0 18,0 L19,0 C19.552,0 20,0.448 20,1 C20,1.552 19.552,2 19,2 L19,2 Z M15,2 L14,2 C13.448,2 13,1.552 13,1 C13,0.448 13.448,0 14,0 L15,0 C15.552,0 16,0.448 16,1 C16,1.552 15.552,2 15,2 L15,2 Z M11,2 L10,2 C9.448,2 9,1.552 9,1 C9,0.448 9.448,0 10,0 L11,0 C11.552,0 12,0.448 12,1 C12,1.552 11.552,2 11,2 L11,2 Z M7,2 L6,2 C5.448,2 5,1.552 5,1 C5,0.448 5.448,0 6,0 L7,0 C7.552,0 8,0.448 8,1 C8,1.552 7.552,2 7,2 L7,2 Z M3,2 L2,2 C1.448,2 1,1.552 1,1 C1,0.448 1.448,0 2,0 L3,0 C3.552,0 4,0.448 4,1 C4,1.552 3.552,2 3,2 L3,2 Z" id="Fill-717" fill="#E64C3C" sketch:type="MSShapeGroup"></path>
            <path d="M55,5 L54,5 C53.448,5 53,4.552 53,4 C53,3.448 53.448,3 54,3 L55,3 C55.552,3 56,3.448 56,4 C56,4.552 55.552,5 55,5 L55,5 Z M51,5 L50,5 C49.448,5 49,4.552 49,4 C49,3.448 49.448,3 50,3 L51,3 C51.552,3 52,3.448 52,4 C52,4.552 51.552,5 51,5 L51,5 Z M47,5 L46,5 C45.448,5 45,4.552 45,4 C45,3.448 45.448,3 46,3 L47,3 C47.552,3 48,3.448 48,4 C48,4.552 47.552,5 47,5 L47,5 Z M43,5 L42,5 C41.448,5 41,4.552 41,4 C41,3.448 41.448,3 42,3 L43,3 C43.552,3 44,3.448 44,4 C44,4.552 43.552,5 43,5 L43,5 Z M39,5 L38,5 C37.448,5 37,4.552 37,4 C37,3.448 37.448,3 38,3 L39,3 C39.552,3 40,3.448 40,4 C40,4.552 39.552,5 39,5 L39,5 Z M35,5 L34,5 C33.448,5 33,4.552 33,4 C33,3.448 33.448,3 34,3 L35,3 C35.552,3 36,3.448 36,4 C36,4.552 35.552,5 35,5 L35,5 Z M31,5 L30,5 C29.448,5 29,4.552 29,4 C29,3.448 29.448,3 30,3 L31,3 C31.552,3 32,3.448 32,4 C32,4.552 31.552,5 31,5 L31,5 Z M27,5 L26,5 C25.448,5 25,4.552 25,4 C25,3.448 25.448,3 26,3 L27,3 C27.552,3 28,3.448 28,4 C28,4.552 27.552,5 27,5 L27,5 Z M23,5 L22,5 C21.448,5 21,4.552 21,4 C21,3.448 21.448,3 22,3 L23,3 C23.552,3 24,3.448 24,4 C24,4.552 23.552,5 23,5 L23,5 Z M19,5 L18,5 C17.448,5 17,4.552 17,4 C17,3.448 17.448,3 18,3 L19,3 C19.552,3 20,3.448 20,4 C20,4.552 19.552,5 19,5 L19,5 Z M15,5 L14,5 C13.448,5 13,4.552 13,4 C13,3.448 13.448,3 14,3 L15,3 C15.552,3 16,3.448 16,4 C16,4.552 15.552,5 15,5 L15,5 Z M11,5 L10,5 C9.448,5 9,4.552 9,4 C9,3.448 9.448,3 10,3 L11,3 C11.552,3 12,3.448 12,4 C12,4.552 11.552,5 11,5 L11,5 Z M7,5 L6,5 C5.448,5 5,4.552 5,4 C5,3.448 5.448,3 6,3 L7,3 C7.552,3 8,3.448 8,4 C8,4.552 7.552,5 7,5 L7,5 Z" id="Fill-718" fill="#E64C3C" sketch:type="MSShapeGroup"></path>
            <path d="M51,8 L50,8 C49.448,8 49,7.552 49,7 C49,6.448 49.448,6 50,6 L51,6 C51.552,6 52,6.448 52,7 C52,7.552 51.552,8 51,8 L51,8 Z M47,8 L46,8 C45.448,8 45,7.552 45,7 C45,6.448 45.448,6 46,6 L47,6 C47.552,6 48,6.448 48,7 C48,7.552 47.552,8 47,8 L47,8 Z M43,8 L42,8 C41.448,8 41,7.552 41,7 C41,6.448 41.448,6 42,6 L43,6 C43.552,6 44,6.448 44,7 C44,7.552 43.552,8 43,8 L43,8 Z M39,8 L38,8 C37.448,8 37,7.552 37,7 C37,6.448 37.448,6 38,6 L39,6 C39.552,6 40,6.448 40,7 C40,7.552 39.552,8 39,8 L39,8 Z M35,8 L34,8 C33.448,8 33,7.552 33,7 C33,6.448 33.448,6 34,6 L35,6 C35.552,6 36,6.448 36,7 C36,7.552 35.552,8 35,8 L35,8 Z M31,8 L30,8 C29.448,8 29,7.552 29,7 C29,6.448 29.448,6 30,6 L31,6 C31.552,6 32,6.448 32,7 C32,7.552 31.552,8 31,8 L31,8 Z M27,8 L26,8 C25.448,8 25,7.552 25,7 C25,6.448 25.448,6 26,6 L27,6 C27.552,6 28,6.448 28,7 C28,7.552 27.552,8 27,8 L27,8 Z M23,8 L22,8 C21.448,8 21,7.552 21,7 C21,6.448 21.448,6 22,6 L23,6 C23.552,6 24,6.448 24,7 C24,7.552 23.552,8 23,8 L23,8 Z M19,8 L18,8 C17.448,8 17,7.552 17,7 C17,6.448 17.448,6 18,6 L19,6 C19.552,6 20,6.448 20,7 C20,7.552 19.552,8 19,8 L19,8 Z M15,8 L14,8 C13.448,8 13,7.552 13,7 C13,6.448 13.448,6 14,6 L15,6 C15.552,6 16,6.448 16,7 C16,7.552 15.552,8 15,8 L15,8 Z M11,8 L10,8 C9.448,8 9,7.552 9,7 C9,6.448 9.448,6 10,6 L11,6 C11.552,6 12,6.448 12,7 C12,7.552 11.552,8 11,8 L11,8 Z" id="Fill-719" fill="#E64C3C" sketch:type="MSShapeGroup"></path>
            <path d="M2,14 L2,10 L6,10 C6,12.209 4.209,14 2,14" id="Fill-720" fill="#4FBA6F" sketch:type="MSShapeGroup"></path>
            <path d="M58,14 L58,14 C55.791,14 54,12.209 54,10 L58,10 L58,14" id="Fill-721" fill="#4FBA6F" sketch:type="MSShapeGroup"></path>
            <path d="M6,48 L2,48 L2,44 C4.209,44 6,45.791 6,48" id="Fill-722" fill="#4FBA6F" sketch:type="MSShapeGroup"></path>
            <path d="M58,48 L54,48 C54,45.791 55.791,44 58,44 L58,48" id="Fill-723" fill="#4FBA6F" sketch:type="MSShapeGroup"></path>
        </g>
    </g>
</svg>