<?xml version="1.0" encoding="UTF-8" standalone="no"?>
<svg width="60px" height="60px" viewBox="0 0 60 60" version="1.1" xmlns="http://www.w3.org/2000/svg" xmlns:xlink="http://www.w3.org/1999/xlink" xmlns:sketch="http://www.bohemiancoding.com/sketch/ns">
    <!-- Generator: Sketch 3.2.2 (9983) - http://www.bohemiancoding.com/sketch -->
    <title>95 - Soccer Ball (Flat)</title>
    <desc>Created with Sketch.</desc>
    <defs></defs>
    <g id="Page-1" stroke="none" stroke-width="1" fill="none" fill-rule="evenodd" sketch:type="MSPage">
        <g id="95---Soccer-Ball-(Flat)" sketch:type="MSLayerGroup" transform="translate(0.000000, 1.000000)">
            <path d="M0.637,29 C0.637,12.984 13.621,0 29.637,0 C45.653,0 58.637,12.984 58.637,29 C58.637,45.016 45.653,58 29.637,58 C13.621,58 0.637,45.016 0.637,29 L0.637,29 Z" id="Fill-106" fill="#E6E7E8" sketch:type="MSShapeGroup"></path>
            <path d="M0.637,29 C0.637,12.984 13.621,0 29.637,0 C45.653,0 58.637,12.984 58.637,29 C58.637,45.016 45.653,58 29.637,58 C13.621,58 0.637,45.016 0.637,29 L0.637,29 Z" id="Stroke-107" stroke="#ECF0F1" sketch:type="MSShapeGroup"></path>
            <path d="M37,38 L23.604,38 L19,26 L30,18 L41,26 L37,38" id="Fill-770" fill="#38454F" sketch:type="MSShapeGroup"></path>
            <path d="M24.447,37.105 C23.953,36.857 23.352,37.058 23.106,37.553 L22.658,38.447 C22.411,38.941 22.611,39.542 23.106,39.789 C23.249,39.861 23.401,39.895 23.552,39.895 C23.919,39.895 24.271,39.692 24.447,39.342 L24.894,38.447 C25.142,37.953 24.941,37.353 24.447,37.105" id="Fill-771" fill="#38454F" sketch:type="MSShapeGroup"></path>
            <path d="M22.658,40.683 C22.164,40.435 21.565,40.636 21.316,41.13 L20.869,42.025 C20.622,42.519 20.822,43.12 21.316,43.367 C21.46,43.438 21.612,43.472 21.763,43.472 C22.13,43.472 22.482,43.27 22.658,42.919 L23.106,42.025 C23.352,41.531 23.152,40.93 22.658,40.683" id="Fill-772" fill="#38454F" sketch:type="MSShapeGroup"></path>
            <path d="M38.342,38.447 L37.894,37.553 C37.646,37.058 37.048,36.857 36.553,37.105 C36.059,37.353 35.858,37.953 36.106,38.447 L36.553,39.342 C36.729,39.692 37.081,39.895 37.448,39.895 C37.599,39.895 37.751,39.861 37.894,39.789 C38.389,39.542 38.589,38.941 38.342,38.447" id="Fill-773" fill="#38454F" sketch:type="MSShapeGroup"></path>
            <path d="M39.684,41.13 C39.437,40.636 38.836,40.435 38.342,40.683 C37.848,40.93 37.647,41.531 37.894,42.025 L38.342,42.919 C38.518,43.27 38.87,43.472 39.237,43.472 C39.388,43.472 39.54,43.438 39.684,43.367 C40.178,43.12 40.378,42.519 40.131,42.025 L39.684,41.13" id="Fill-774" fill="#38454F" sketch:type="MSShapeGroup"></path>
            <path d="M16.99,24.051 L16.071,23.657 C15.562,23.438 14.975,23.674 14.758,24.182 C14.54,24.689 14.775,25.277 15.282,25.495 L16.201,25.889 C16.33,25.944 16.464,25.97 16.596,25.97 C16.983,25.97 17.352,25.743 17.515,25.364 C17.732,24.856 17.497,24.269 16.99,24.051" id="Fill-775" fill="#38454F" sketch:type="MSShapeGroup"></path>
            <path d="M13.313,22.475 L12.394,22.081 C11.886,21.865 11.298,22.099 11.081,22.606 C10.863,23.113 11.099,23.701 11.605,23.919 L12.524,24.313 C12.653,24.368 12.787,24.395 12.919,24.395 C13.307,24.395 13.676,24.167 13.838,23.788 C14.056,23.281 13.82,22.692 13.313,22.475" id="Fill-776" fill="#38454F" sketch:type="MSShapeGroup"></path>
            <path d="M30,10 C29.447,10 29,10.448 29,11 L29,12 C29,12.552 29.447,13 30,13 C30.553,13 31,12.552 31,12 L31,11 C31,10.448 30.553,10 30,10" id="Fill-777" fill="#38454F" sketch:type="MSShapeGroup"></path>
            <path d="M30,14 C29.447,14 29,14.448 29,15 L29,16 C29,16.552 29.447,17 30,17 C30.553,17 31,16.552 31,16 L31,15 C31,14.448 30.553,14 30,14" id="Fill-778" fill="#38454F" sketch:type="MSShapeGroup"></path>
            <path d="M43.929,23.657 L43.01,24.051 C42.503,24.269 42.268,24.856 42.485,25.364 C42.648,25.743 43.017,25.97 43.404,25.97 C43.536,25.97 43.67,25.944 43.799,25.889 L44.718,25.495 C45.225,25.277 45.46,24.689 45.242,24.182 C45.024,23.673 44.437,23.438 43.929,23.657" id="Fill-779" fill="#38454F" sketch:type="MSShapeGroup"></path>
            <path d="M48.919,22.606 C48.701,22.097 48.113,21.864 47.605,22.081 L46.687,22.475 C46.18,22.692 45.944,23.281 46.162,23.788 C46.324,24.167 46.693,24.395 47.081,24.395 C47.213,24.395 47.347,24.368 47.476,24.313 L48.394,23.919 C48.901,23.701 49.137,23.113 48.919,22.606" id="Fill-780" fill="#38454F" sketch:type="MSShapeGroup"></path>
            <path d="M22.482,0.99 L19.985,4.579 L30,11 L39,4.118 L36.734,0.878 C34.519,0.321 32.203,0.019 29.818,0.005 C27.282,0.02 24.824,0.363 22.482,0.99" id="Fill-934" fill="#435159" sketch:type="MSShapeGroup"></path>
            <path d="M49.63,12 L48,23 L58.007,29.077 L58.61,27.926 C58.401,22.207 56.539,16.913 53.484,12.504 L49.63,12" id="Fill-935" fill="#435159" sketch:type="MSShapeGroup"></path>
            <path d="M50.803,48.814 L51,44.004 L40,44 L35.207,54.605 L39.353,56.327 C43.759,54.76 47.671,52.158 50.803,48.814" id="Fill-936" fill="#435159" sketch:type="MSShapeGroup"></path>
            <path d="M21,44 L9,44.004 L9.213,49.212 C12.328,52.414 16.174,54.897 20.484,56.394 L24.793,54.605 L21,44" id="Fill-937" fill="#435159" sketch:type="MSShapeGroup"></path>
            <path d="M12,23 L10.37,12 L6.116,12.556 C3.196,16.789 1.373,21.834 1.055,27.286 L1.993,29.077 L12,23" id="Fill-938" fill="#435159" sketch:type="MSShapeGroup"></path>
        </g>
    </g>
</svg>