<?xml version="1.0" encoding="UTF-8" standalone="no"?>
<svg width="58px" height="53px" viewBox="0 0 58 53" version="1.1" xmlns="http://www.w3.org/2000/svg" xmlns:xlink="http://www.w3.org/1999/xlink" xmlns:sketch="http://www.bohemiancoding.com/sketch/ns">
    <!-- Generator: Sketch 3.2.2 (9983) - http://www.bohemiancoding.com/sketch -->
    <title>43 - Soccer Jersey (Flat)</title>
    <desc>Created with Sketch.</desc>
    <defs></defs>
    <g id="Page-1" stroke="none" stroke-width="1" fill="none" fill-rule="evenodd" sketch:type="MSPage">
        <g id="43---Soccer-Jersey-(Flat)" sketch:type="MSLayerGroup">
            <path d="M48,5 L37,0 L40.363,1.529 L43,9 L15,9 L17.637,1.529 L21,0 L10,5 L0,21 L8,27 L14,20 L14,53 L44,53 L44,20 L49,27 L58,21 L48,5" id="Fill-270" fill="#F0C419" sketch:type="MSShapeGroup"></path>
            <path d="M24.087,6.455 C24.724,7.086 25.378,7.531 25.981,7.844 C25.378,7.531 24.724,7.086 24.087,6.455" id="Fill-271" fill="#659C35" sketch:type="MSShapeGroup"></path>
            <path d="M21.35,1.498 C21.745,2.901 22.269,4.027 22.854,4.93 C22.269,4.027 21.745,2.901 21.35,1.498" id="Fill-272" fill="#659C35" sketch:type="MSShapeGroup"></path>
            <path d="M28.999,8.549 C28.704,8.586 28.519,8.593 28.519,8.593 C28.519,8.593 27.388,8.575 25.981,7.844 C27.388,8.575 28.518,8.593 28.518,8.593 C28.518,8.593 28.704,8.586 28.999,8.549" id="Fill-273" fill="#659C35" sketch:type="MSShapeGroup"></path>
            <path d="M15,9 L29,9 L29,8.549 L28.999,8.549 C28.704,8.586 28.518,8.593 28.518,8.593 C28.518,8.593 27.388,8.575 25.981,7.844 C25.378,7.531 24.724,7.086 24.087,6.455 C23.662,6.035 23.245,5.532 22.854,4.93 C22.269,4.027 21.745,2.901 21.35,1.498 C21.218,1.03 21.101,0.531 21,0 L17.637,1.529 L15,9" id="Fill-274" fill="#659C35" sketch:type="MSShapeGroup"></path>
            <path d="M29.481,8.593 C29.481,8.593 29.295,8.586 29,8.549 L29,9 L43,9 L40.363,1.529 L37,0 C35.389,8.503 29.481,8.593 29.481,8.593" id="Fill-275" fill="#659C35" sketch:type="MSShapeGroup"></path>
            <path d="M14,45 L44,45 L44,48 L14,48 L14,45 Z" id="Fill-276" fill="#659C35" sketch:type="MSShapeGroup"></path>
            <path d="M33.652,27 C35.069,26.004 36,24.36 36,22.5 C36,19.468 33.532,17 30.5,17 L27.5,17 C24.468,17 22,19.468 22,22.5 C22,24.36 22.931,26.004 24.348,27 C22.931,27.996 22,29.64 22,31.5 C22,34.532 24.468,37 27.5,37 L30.5,37 C33.532,37 36,34.532 36,31.5 C36,29.64 35.069,27.996 33.652,27 L33.652,27 Z M24,22.5 C24,20.57 25.57,19 27.5,19 L30.5,19 C32.43,19 34,20.57 34,22.5 C34,24.43 32.43,26 30.5,26 L27.5,26 C25.57,26 24,24.43 24,22.5 L24,22.5 Z M30.5,35 L27.5,35 C25.57,35 24,33.43 24,31.5 C24,29.57 25.57,28 27.5,28 L30.5,28 C32.43,28 34,29.57 34,31.5 C34,33.43 32.43,35 30.5,35 L30.5,35 Z" id="Fill-280" fill="#659C35" sketch:type="MSShapeGroup"></path>
        </g>
    </g>
</svg>