<?xml version="1.0" encoding="UTF-8" standalone="no"?>
<svg width="42px" height="59px" viewBox="0 0 42 59" version="1.1" xmlns="http://www.w3.org/2000/svg" xmlns:xlink="http://www.w3.org/1999/xlink" xmlns:sketch="http://www.bohemiancoding.com/sketch/ns">
    <!-- Generator: Sketch 3.2.2 (9983) - http://www.bohemiancoding.com/sketch -->
    <title>22 - Stopwatch (Flat)</title>
    <desc>Created with Sketch.</desc>
    <defs></defs>
    <g id="Page-1" stroke="none" stroke-width="1" fill="none" fill-rule="evenodd" sketch:type="MSPage">
        <g id="22---Stopwatch-(Flat)" sketch:type="MSLayerGroup" transform="translate(0.000000, 1.000000)">
            <path d="M21,0 C15.477,0 11,3.134 11,7 C11,10.134 13.943,12.786 18,13.679 L18,10 L24,10 L24,13.679 C28.057,12.786 31,10.134 31,7 C31,3.134 26.523,0 21,0 L21,0 Z" id="Stroke-456" stroke="#BDC3C7" stroke-width="2" sketch:type="MSShapeGroup"></path>
            <path d="M25,10 L17,10 C15.9,10 15,9.1 15,8 C15,6.9 15.9,6 17,6 L25,6 C26.1,6 27,6.9 27,8 C27,9.1 26.1,10 25,10" id="Fill-1062" fill="#38454F" sketch:type="MSShapeGroup"></path>
            <path d="M18,10 L24,10 L24,17.741 L18,17.741 L18,10 Z" id="Fill-1063" fill="#D1D4D1" sketch:type="MSShapeGroup"></path>
            <path d="M21,58 C9.421,58 0,48.579 0,37 C0,25.421 9.421,16 21,16 C32.579,16 42,25.421 42,37 C42,48.579 32.579,58 21,58" id="Fill-1064" fill="#ECF0F1" sketch:type="MSShapeGroup"></path>
            <path d="M37,37 C37,45.837 29.836,53 21,53 C12.163,53 5,45.837 5,37 C5,28.163 12.163,21 21,21 C29.836,21 37,28.163 37,37" id="Fill-1065" fill="#FFFFFF" sketch:type="MSShapeGroup"></path>
            <path d="M23.187,34.453 C22.684,34.173 22.115,34 21.5,34 C19.57,34 18,35.57 18,37.5 C18,39.43 19.57,41 21.5,41 C23.43,41 25,39.43 25,37.5 C25,36.885 24.827,36.316 24.547,35.813 C24.601,35.777 24.66,35.754 24.707,35.707 L31.207,29.207 C31.598,28.816 31.598,28.184 31.207,27.793 C30.816,27.402 30.184,27.402 29.793,27.793 L23.293,34.293 C23.246,34.34 23.223,34.399 23.187,34.453 L23.187,34.453 Z M21.5,39 C20.673,39 20,38.327 20,37.5 C20,36.673 20.673,36 21.5,36 C22.327,36 23,36.673 23,37.5 C23,38.327 22.327,39 21.5,39 L21.5,39 Z" id="Fill-1066" fill="#546A79" sketch:type="MSShapeGroup"></path>
            <path d="M33.048,48.979 C36.106,45.904 38,41.67 38,37 C38,27.626 30.374,20 21,20 C16.33,20 12.096,21.894 9.021,24.952 C9.008,24.964 8.992,24.967 8.979,24.979 C8.967,24.992 8.964,25.008 8.952,25.021 C5.894,28.096 4,32.33 4,37 C4,41.67 5.894,45.904 8.952,48.979 C8.964,48.992 8.967,49.008 8.979,49.021 C8.992,49.033 9.008,49.036 9.021,49.048 C12.096,52.106 16.33,54 21,54 C25.67,54 29.904,52.106 32.979,49.048 C32.992,49.036 33.008,49.033 33.021,49.021 C33.033,49.008 33.036,48.992 33.048,48.979 L33.048,48.979 Z M35.949,36 L33,36 C32.447,36 32,36.447 32,37 C32,37.553 32.447,38 33,38 L35.949,38 C35.725,41.383 34.38,44.457 32.275,46.861 L30.192,44.778 C29.802,44.388 29.169,44.388 28.778,44.778 C28.388,45.169 28.388,45.802 28.778,46.192 L30.861,48.275 C28.457,50.38 25.383,51.725 22,51.949 L22,49 C22,48.447 21.553,48 21,48 C20.447,48 20,48.447 20,49 L20,51.949 C16.617,51.725 13.543,50.38 11.139,48.275 L13.222,46.192 C13.612,45.802 13.612,45.169 13.222,44.778 C12.831,44.388 12.198,44.388 11.808,44.778 L9.725,46.861 C7.62,44.457 6.275,41.383 6.051,38 L9,38 C9.553,38 10,37.553 10,37 C10,36.447 9.553,36 9,36 L6.051,36 C6.275,32.617 7.62,29.543 9.725,27.139 L11.808,29.222 C12.003,29.417 12.259,29.515 12.515,29.515 C12.771,29.515 13.026,29.417 13.222,29.222 C13.612,28.831 13.612,28.198 13.222,27.808 L11.139,25.725 C13.543,23.62 16.617,22.275 20,22.051 L20,25 C20,25.553 20.447,26 21,26 C21.553,26 22,25.553 22,25 L22,22.051 C29.473,22.547 35.453,28.527 35.949,36 L35.949,36 Z" id="Fill-1067" fill="#D1D4D1" sketch:type="MSShapeGroup"></path>
            <path d="M37.493,24.043 L39.303,22.232 C40.28,21.256 40.28,19.673 39.303,18.697 C38.327,17.721 36.744,17.721 35.768,18.697 L33.957,20.507 C35.272,21.542 36.458,22.728 37.493,24.043" id="Fill-1068" fill="#38454F" sketch:type="MSShapeGroup"></path>
            <path d="M4.095,24.595 C5.087,23.245 6.225,22.011 7.505,20.934 L5.268,18.697 C4.292,17.721 2.708,17.721 1.732,18.697 C0.756,19.673 0.756,21.256 1.732,22.232 L4.095,24.595" id="Fill-1069" fill="#38454F" sketch:type="MSShapeGroup"></path>
        </g>
    </g>
</svg>