<?xml version="1.0" encoding="UTF-8" standalone="no"?>
<svg width="45px" height="58px" viewBox="0 0 45 58" version="1.1" xmlns="http://www.w3.org/2000/svg" xmlns:xlink="http://www.w3.org/1999/xlink" xmlns:sketch="http://www.bohemiancoding.com/sketch/ns">
    <!-- Generator: Sketch 3.2.2 (9983) - http://www.bohemiancoding.com/sketch -->
    <title>31 - Strength Training (Flat)</title>
    <desc>Created with Sketch.</desc>
    <defs></defs>
    <g id="Page-1" stroke="none" stroke-width="1" fill="none" fill-rule="evenodd" sketch:type="MSPage">
        <g id="31---Strength-Training-(Flat)" sketch:type="MSLayerGroup" transform="translate(0.000000, 1.000000)">
            <path d="M30.133,8 C30.133,12.418 26.551,16 22.133,16 C17.714,16 14.133,12.418 14.133,8 C14.133,3.582 17.714,0 22.133,0 C26.551,0 30.133,3.582 30.133,8 L30.133,8 Z M33,22 L29.133,12 L29.054,12 C27.67,14.389 25.092,16 22.133,16 C19.173,16 16.595,14.389 15.212,12 L15.133,12 L12,23 M22,12 C19.791,12 18,10.209 18,8 C18,5.791 19.791,4 22,4 C24.209,4 26,5.791 26,8 C26,10.209 24.209,12 22,12 Z" id="Stroke-449" stroke="#95A5A5" stroke-width="2" sketch:type="MSShapeGroup"></path>
            <path d="M14.624,20.732 L11.35,20.067 C9.548,19.702 7.79,20.866 7.425,22.668 L5.414,31.08 L15.002,33.957 L17.225,24.657 C17.591,22.855 16.426,21.097 14.624,20.732" id="Fill-1007" fill="#546A79" sketch:type="MSShapeGroup"></path>
            <path d="M0.332,52.343 C-0.033,54.145 1.131,55.903 2.933,56.269 L6.207,56.933 C8.009,57.299 9.767,56.134 10.133,54.332 L13.076,42.017 L3.608,38.636 L0.332,52.343" id="Fill-1008" fill="#546A79" sketch:type="MSShapeGroup"></path>
            <path d="M4.076,36.68 L13.543,40.061 L14.537,35.905 L4.948,33.029 L4.076,36.68" id="Fill-1009" fill="#546A79" sketch:type="MSShapeGroup"></path>
            <path d="M37.595,22.668 C37.229,20.866 35.472,19.702 33.67,20.067 L30.396,20.732 C28.594,21.097 27.429,22.855 27.795,24.657 L30.088,33.93 L39.669,31.055 L37.595,22.668" id="Fill-1010" fill="#546A79" sketch:type="MSShapeGroup"></path>
            <path d="M41.597,38.855 L32.089,42.024 L35.133,54.332 C35.498,56.134 37.256,57.299 39.058,56.933 L42.332,56.269 C44.134,55.903 45.299,54.145 44.933,52.343 L41.597,38.855" id="Fill-1011" fill="#546A79" sketch:type="MSShapeGroup"></path>
            <path d="M40.15,32.999 L30.568,35.874 L31.608,40.077 L41.116,36.908 L40.15,32.999" id="Fill-1012" fill="#546A79" sketch:type="MSShapeGroup"></path>
            <path d="M4.948,33.029 L14.537,35.905 L15.002,33.957 L5.414,31.08 L4.948,33.029" id="Fill-1013" fill="#0096E6" sketch:type="MSShapeGroup"></path>
            <path d="M3.608,38.636 L13.076,42.017 L13.543,40.061 L4.076,36.68 L3.608,38.636" id="Fill-1014" fill="#0096E6" sketch:type="MSShapeGroup"></path>
            <path d="M39.669,31.055 L30.088,33.93 L30.568,35.874 L40.15,32.999 L39.669,31.055" id="Fill-1015" fill="#0096E6" sketch:type="MSShapeGroup"></path>
            <path d="M41.116,36.908 L31.608,40.077 L32.089,42.024 L41.597,38.855 L41.116,36.908" id="Fill-1016" fill="#0096E6" sketch:type="MSShapeGroup"></path>
        </g>
    </g>
</svg>