<?xml version="1.0" encoding="UTF-8" standalone="no"?>
<svg width="49px" height="50px" viewBox="0 0 49 50" version="1.1" xmlns="http://www.w3.org/2000/svg" xmlns:xlink="http://www.w3.org/1999/xlink" xmlns:sketch="http://www.bohemiancoding.com/sketch/ns">
    <!-- Generator: Sketch 3.2.2 (9983) - http://www.bohemiancoding.com/sketch -->
    <title>52 - Surf Boards (Flat)</title>
    <desc>Created with Sketch.</desc>
    <defs></defs>
    <g id="Page-1" stroke="none" stroke-width="1" fill="none" fill-rule="evenodd" sketch:type="MSPage">
        <g id="52---Surf-Boards-(Flat)" sketch:type="MSLayerGroup" transform="translate(0.000000, -1.000000)">
            <path d="M38.128,29.987 C28.937,42.765 18.215,50.771 14.18,47.869 C10.145,44.967 14.324,32.255 23.515,19.477 C32.705,6.698 43.427,-1.308 47.462,1.594 C51.497,4.497 47.318,17.208 38.128,29.987" id="Fill-241" fill="#E6E6E6" sketch:type="MSShapeGroup"></path>
            <path d="M23.708,19.213 C15.623,7.307 6.374,-0.126 2.436,2.37 C-1.763,5.03 1.662,17.965 10.087,31.261 C11.367,33.281 12.69,35.192 14.026,36.974 C15.754,31.907 19.038,25.701 23.515,19.477 C23.579,19.388 23.644,19.301 23.708,19.213" id="Fill-242" fill="#8697CB" sketch:type="MSShapeGroup"></path>
            <path d="M42,46 C42,46 39.554,40.875 34.3,42.019 C33.975,40.391 33.476,38.602 32.8,36.687 C29.127,40.855 25.459,44.127 22.272,46.154 C26.751,50.147 30.705,51.936 32.943,50.518 C34.18,49.735 34.75,48.054 34.73,45.74 C38.461,44.005 42,46 42,46" id="Fill-243" fill="#8697CB" sketch:type="MSShapeGroup"></path>
            <path d="M32.139,47.626 C36.625,42.969 42,46 42,46 C42,46 38.234,38.093 30,44.101 L32.139,47.626" id="Fill-797" fill="#556080" sketch:type="MSShapeGroup"></path>
            <path d="M5.647,7.438 L1.803,13.815 C3.001,17.902 5.096,22.71 7.943,27.697 L12.605,18.419 L22.985,18.166 C19.691,13.463 16.239,9.515 13.055,6.686 L5.647,7.438" id="Fill-798" fill="#F0C419" sketch:type="MSShapeGroup"></path>
        </g>
    </g>
</svg>