<?xml version="1.0" encoding="UTF-8" standalone="no"?>
<svg width="60px" height="60px" viewBox="0 0 60 60" version="1.1" xmlns="http://www.w3.org/2000/svg" xmlns:xlink="http://www.w3.org/1999/xlink" xmlns:sketch="http://www.bohemiancoding.com/sketch/ns">
    <!-- Generator: Sketch 3.2.2 (9983) - http://www.bohemiancoding.com/sketch -->
    <title>47 - Tactics (Flat)</title>
    <desc>Created with Sketch.</desc>
    <defs></defs>
    <g id="Page-1" stroke="none" stroke-width="1" fill="none" fill-rule="evenodd" sketch:type="MSPage">
        <g id="47---Tactics-(Flat)" sketch:type="MSLayerGroup" transform="translate(-1.000000, 0.000000)">
            <path d="M61,30 C61,46.569 47.568,60 31,60 C14.431,60 1,46.569 1,30 C1,13.432 14.431,0 31,0 C47.568,0 61,13.432 61,30" id="Fill-44" fill="#88C057" sketch:type="MSShapeGroup"></path>
            <path d="M46,22.965 C45.744,22.965 45.488,22.867 45.293,22.672 L40.293,17.672 C39.902,17.281 39.902,16.648 40.293,16.258 C40.684,15.867 41.316,15.867 41.707,16.258 L46.707,21.258 C47.098,21.648 47.098,22.281 46.707,22.672 C46.512,22.867 46.256,22.965 46,22.965" id="Fill-734" fill="#38454F" sketch:type="MSShapeGroup"></path>
            <path d="M41,22.965 C40.744,22.965 40.488,22.867 40.293,22.672 C39.902,22.281 39.902,21.648 40.293,21.258 L45.293,16.258 C45.684,15.867 46.316,15.867 46.707,16.258 C47.098,16.648 47.098,17.281 46.707,17.672 L41.707,22.672 C41.512,22.867 41.256,22.965 41,22.965" id="Fill-735" fill="#38454F" sketch:type="MSShapeGroup"></path>
            <path d="M38.914,9.465 L40.707,7.672 C41.098,7.281 41.098,6.648 40.707,6.258 C40.316,5.867 39.684,5.867 39.293,6.258 L37.5,8.051 L35.707,6.258 C35.316,5.867 34.684,5.867 34.293,6.258 C33.902,6.648 33.902,7.281 34.293,7.672 L36.086,9.465 L34.293,11.258 C33.902,11.648 33.902,12.281 34.293,12.672 C34.488,12.867 34.744,12.965 35,12.965 C35.256,12.965 35.512,12.867 35.707,12.672 L37.5,10.879 L39.293,12.672 C39.488,12.867 39.744,12.965 40,12.965 C40.256,12.965 40.512,12.867 40.707,12.672 C41.098,12.281 41.098,11.648 40.707,11.258 L38.914,9.465" id="Fill-736" fill="#A4E869" sketch:type="MSShapeGroup"></path>
            <path d="M28,12.965 C27.744,12.965 27.488,12.867 27.293,12.672 L22.293,7.672 C21.902,7.281 21.902,6.648 22.293,6.258 C22.684,5.867 23.316,5.867 23.707,6.258 L28.707,11.258 C29.098,11.648 29.098,12.281 28.707,12.672 C28.512,12.867 28.256,12.965 28,12.965" id="Fill-737" fill="#38454F" sketch:type="MSShapeGroup"></path>
            <path d="M23,12.965 C22.744,12.965 22.488,12.867 22.293,12.672 C21.902,12.281 21.902,11.648 22.293,11.258 L27.293,6.258 C27.684,5.867 28.316,5.867 28.707,6.258 C29.098,6.648 29.098,7.281 28.707,7.672 L23.707,12.672 C23.512,12.867 23.256,12.965 23,12.965" id="Fill-738" fill="#38454F" sketch:type="MSShapeGroup"></path>
            <path d="M34,22.965 C33.744,22.965 33.488,22.867 33.293,22.672 L28.293,17.672 C27.902,17.281 27.902,16.648 28.293,16.258 C28.684,15.867 29.316,15.867 29.707,16.258 L34.707,21.258 C35.098,21.648 35.098,22.281 34.707,22.672 C34.512,22.867 34.256,22.965 34,22.965" id="Fill-739" fill="#38454F" sketch:type="MSShapeGroup"></path>
            <path d="M29,22.965 C28.744,22.965 28.488,22.867 28.293,22.672 C27.902,22.281 27.902,21.648 28.293,21.258 L33.293,16.258 C33.684,15.867 34.316,15.867 34.707,16.258 C35.098,16.648 35.098,17.281 34.707,17.672 L29.707,22.672 C29.512,22.867 29.256,22.965 29,22.965" id="Fill-740" fill="#38454F" sketch:type="MSShapeGroup"></path>
            <path d="M22,22.965 C21.744,22.965 21.488,22.867 21.293,22.672 L16.293,17.672 C15.902,17.281 15.902,16.648 16.293,16.258 C16.684,15.867 17.316,15.867 17.707,16.258 L22.707,21.258 C23.098,21.648 23.098,22.281 22.707,22.672 C22.512,22.867 22.256,22.965 22,22.965" id="Fill-741" fill="#38454F" sketch:type="MSShapeGroup"></path>
            <path d="M17,22.965 C16.744,22.965 16.488,22.867 16.293,22.672 C15.902,22.281 15.902,21.648 16.293,21.258 L21.293,16.258 C21.684,15.867 22.316,15.867 22.707,16.258 C23.098,16.648 23.098,17.281 22.707,17.672 L17.707,22.672 C17.512,22.867 17.256,22.965 17,22.965" id="Fill-742" fill="#38454F" sketch:type="MSShapeGroup"></path>
            <path d="M50,25.965 C47.243,25.965 45,28.208 45,30.965 C45,33.722 47.243,35.965 50,35.965 C52.757,35.965 55,33.722 55,30.965 C55,28.208 52.757,25.965 50,25.965 L50,25.965 Z M50,33.965 C48.346,33.965 47,32.619 47,30.965 C47,29.311 48.346,27.965 50,27.965 C51.654,27.965 53,29.311 53,30.965 C53,32.619 51.654,33.965 50,33.965 L50,33.965 Z" id="Fill-743" fill="#FFFFFF" sketch:type="MSShapeGroup"></path>
            <path d="M38,25.965 C35.243,25.965 33,28.208 33,30.965 C33,33.722 35.243,35.965 38,35.965 C40.757,35.965 43,33.722 43,30.965 C43,28.208 40.757,25.965 38,25.965 L38,25.965 Z M38,33.965 C36.346,33.965 35,32.619 35,30.965 C35,29.311 36.346,27.965 38,27.965 C39.654,27.965 41,29.311 41,30.965 C41,32.619 39.654,33.965 38,33.965 L38,33.965 Z" id="Fill-744" fill="#FFFFFF" sketch:type="MSShapeGroup"></path>
            <path d="M31,30.965 C31,28.208 28.757,25.965 26,25.965 C23.243,25.965 21,28.208 21,30.965 C21,33.722 23.243,35.965 26,35.965 C28.757,35.965 31,33.722 31,30.965 L31,30.965 Z M26,33.965 C24.346,33.965 23,32.619 23,30.965 C23,29.311 24.346,27.965 26,27.965 C27.654,27.965 29,29.311 29,30.965 C29,32.619 27.654,33.965 26,33.965 L26,33.965 Z" id="Fill-745" fill="#A4E869" sketch:type="MSShapeGroup"></path>
            <path d="M19,30.965 C19,28.208 16.757,25.965 14,25.965 C11.243,25.965 9,28.208 9,30.965 C9,33.722 11.243,35.965 14,35.965 C16.757,35.965 19,33.722 19,30.965 L19,30.965 Z M11,30.965 C11,29.311 12.346,27.965 14,27.965 C15.654,27.965 17,29.311 17,30.965 C17,32.619 15.654,33.965 14,33.965 C12.346,33.965 11,32.619 11,30.965 L11,30.965 Z" id="Fill-746" fill="#FFFFFF" sketch:type="MSShapeGroup"></path>
            <path d="M32,36.965 C29.243,36.965 27,39.208 27,41.965 C27,44.722 29.243,46.965 32,46.965 C34.757,46.965 37,44.722 37,41.965 C37,39.208 34.757,36.965 32,36.965 L32,36.965 Z M32,44.965 C30.346,44.965 29,43.619 29,41.965 C29,40.311 30.346,38.965 32,38.965 C33.654,38.965 35,40.311 35,41.965 C35,43.619 33.654,44.965 32,44.965 L32,44.965 Z" id="Fill-747" fill="#E64C3C" sketch:type="MSShapeGroup"></path>
            <path d="M19,36.965 C16.243,36.965 14,39.208 14,41.965 C14,44.722 16.243,46.965 19,46.965 C21.757,46.965 24,44.722 24,41.965 C24,39.208 21.757,36.965 19,36.965 L19,36.965 Z M19,44.965 C17.346,44.965 16,43.619 16,41.965 C16,40.311 17.346,38.965 19,38.965 C20.654,38.965 22,40.311 22,41.965 C22,43.619 20.654,44.965 19,44.965 L19,44.965 Z" id="Fill-748" fill="#FFFFFF" sketch:type="MSShapeGroup"></path>
            <path d="M53.982,42.965 C50.453,42.965 47.533,45.586 47.045,48.982 L15,48.965 C10.514,48.965 7,45.772 7,41.694 L7,6.379 L9.293,8.672 C9.684,9.062 10.316,9.062 10.707,8.672 C10.902,8.477 11,8.221 11,7.965 C11,7.709 10.902,7.453 10.707,7.258 L6.707,3.258 C6.706,3.257 6.706,3.256 6.705,3.256 C6.527,3.079 6.299,2.982 6.067,2.967 L6.066,2.967 C6.002,2.964 5.941,2.965 5.877,2.973 L5.875,2.973 C5.685,2.996 5.5,3.075 5.346,3.209 C5.345,3.209 5.345,3.209 5.344,3.21 C5.325,3.227 5.306,3.244 5.288,3.263 L1.293,7.258 C0.902,7.648 0.902,8.281 1.293,8.672 C1.684,9.062 2.316,9.062 2.707,8.672 L5,6.379 L5,41.694 C5,46.893 9.393,50.965 15,50.965 L47.044,50.982 C47.532,54.378 50.453,57 53.982,57 C57.852,57 61,53.852 61,49.982 C61,46.113 57.852,42.965 53.982,42.965 L53.982,42.965 Z M53.982,55 C51.216,55 48.965,52.749 48.965,49.982 C48.965,47.216 51.216,44.965 53.982,44.965 C56.749,44.965 59,47.216 59,49.982 C59,52.749 56.749,55 53.982,55 L53.982,55 Z" id="Fill-749" fill="#38454F" sketch:type="MSShapeGroup"></path>
        </g>
    </g>
</svg>