<?xml version="1.0" encoding="UTF-8" standalone="no"?>
<svg width="56px" height="56px" viewBox="0 0 56 56" version="1.1" xmlns="http://www.w3.org/2000/svg" xmlns:xlink="http://www.w3.org/1999/xlink" xmlns:sketch="http://www.bohemiancoding.com/sketch/ns">
    <!-- Generator: Sketch 3.2.2 (9983) - http://www.bohemiancoding.com/sketch -->
    <title>94 - Tennis Ball (Flat)</title>
    <desc>Created with Sketch.</desc>
    <defs></defs>
    <g id="Page-1" stroke="none" stroke-width="1" fill="none" fill-rule="evenodd" sketch:type="MSPage">
        <g id="94---Tennis-Ball-(Flat)" sketch:type="MSLayerGroup">
            <path d="M7.062,27.616 C7.29,32.764 9.524,37.294 13.358,40.378 C17.337,43.58 22.559,44.899 27.677,43.996 C30.715,43.46 33.738,41.894 36.42,39.465 C38.048,37.99 39.531,36.345 40.828,34.574 C44.624,29.396 45.584,22.776 43.333,17.297 C40.731,10.963 35.014,7.002 28.033,6.694 C23.135,7.01 19.031,5.749 16.177,3.031 C16.08,2.939 16.009,2.832 15.957,2.718 C10.348,5.394 5.775,9.884 2.984,15.427 C3.085,15.476 3.183,15.534 3.267,15.619 C6.077,18.479 7.39,22.626 7.062,27.616" id="Fill-490" fill="#D3EF30" sketch:type="MSShapeGroup"></path>
            <path d="M28,0 C24.442,0 21.042,0.671 17.911,1.881 C20.347,3.996 23.803,4.973 27.954,4.695 L28.009,4.691 L28.062,4.693 C35.869,5.017 42.269,9.444 45.183,16.537 C47.696,22.656 46.646,30.02 42.441,35.757 C41.065,37.635 39.49,39.382 37.763,40.948 C34.802,43.63 31.434,45.365 28.024,45.965 C26.852,46.172 25.674,46.273 24.505,46.273 C20.002,46.273 15.62,44.765 12.104,41.937 C7.802,38.476 5.301,33.4 5.062,27.646 L5.06,27.591 L5.063,27.536 C5.352,23.285 4.322,19.776 2.11,17.331 C0.753,20.62 0,24.221 0,28 C0,43.464 12.536,56 28,56 C43.464,56 56,43.464 56,28 C56,12.536 43.464,0 28,0" id="Fill-491" fill="#D3EF30" sketch:type="MSShapeGroup"></path>
            <path d="M5.063,27.536 L5.06,27.591 L5.062,27.646 C5.301,33.4 7.802,38.476 12.104,41.937 C15.62,44.765 20.002,46.273 24.505,46.273 C25.674,46.273 26.852,46.172 28.024,45.965 C31.434,45.365 34.802,43.63 37.763,40.948 C39.49,39.382 41.065,37.635 42.441,35.757 C46.646,30.02 47.696,22.656 45.183,16.537 C42.269,9.444 35.869,5.017 28.062,4.693 L28.009,4.691 L27.954,4.695 C23.803,4.973 20.347,3.996 17.911,1.881 C17.248,2.137 16.595,2.413 15.957,2.718 C16.009,2.832 16.08,2.939 16.177,3.031 C19.031,5.749 23.135,7.01 28.033,6.694 C35.014,7.002 40.731,10.963 43.333,17.297 C45.584,22.776 44.624,29.396 40.828,34.574 C39.531,36.345 38.048,37.99 36.42,39.465 C33.738,41.894 30.715,43.46 27.677,43.996 C22.559,44.899 17.337,43.58 13.358,40.378 C9.524,37.294 7.29,32.764 7.062,27.616 C7.39,22.626 6.077,18.479 3.267,15.619 C3.183,15.534 3.085,15.476 2.984,15.427 C2.67,16.049 2.377,16.683 2.11,17.331 C4.322,19.776 5.352,23.285 5.063,27.536" id="Fill-492" fill="#FFFFFF" sketch:type="MSShapeGroup"></path>
        </g>
    </g>
</svg>