<?xml version="1.0" encoding="UTF-8" standalone="no"?>
<svg width="60px" height="60px" viewBox="0 0 60 60" version="1.1" xmlns="http://www.w3.org/2000/svg" xmlns:xlink="http://www.w3.org/1999/xlink" xmlns:sketch="http://www.bohemiancoding.com/sketch/ns">
    <!-- Generator: Sketch 3.2.2 (9983) - http://www.bohemiancoding.com/sketch -->
    <title>66 - Tennis Court (Flat)</title>
    <desc>Created with Sketch.</desc>
    <defs></defs>
    <g id="Page-1" stroke="none" stroke-width="1" fill="none" fill-rule="evenodd" sketch:type="MSPage">
        <g id="66---Tennis-Court-(Flat)" sketch:type="MSLayerGroup">
            <path d="M2,11 L58,11 L58,49 L2,49 L2,11 Z" id="Fill-558" fill="#4482C3" sketch:type="MSShapeGroup"></path>
            <path d="M48,18 L58,18 L58,16 L2,16 L2,18 L12,18 L12,42 L2,42 L2,44 L58,44 L58,42 L48,42 L48,18 L48,18 Z M14,42 L14,30.847 C14.293,30.672 14.5,30.366 14.5,30 C14.5,29.634 14.293,29.328 14,29.153 L14,18 L46,18 L46,29.153 C45.706,29.328 45.5,29.634 45.5,30 C45.5,30.366 45.706,30.672 46,30.847 L46,42 L14,42 L14,42 Z" id="Fill-573" fill="#73C6F4" sketch:type="MSShapeGroup"></path>
            <path d="M23.206,29 L22.235,29 C21.683,29 21.235,29.448 21.235,30 C21.235,30.552 21.683,31 22.235,31 L23.206,31 C23.758,31 24.206,30.552 24.206,30 C24.206,29.448 23.758,29 23.206,29" id="Fill-574" fill="#73C6F4" sketch:type="MSShapeGroup"></path>
            <path d="M18.353,29 L17.382,29 C16.83,29 16.382,29.448 16.382,30 C16.382,30.552 16.83,31 17.382,31 L18.353,31 C18.905,31 19.353,30.552 19.353,30 C19.353,29.448 18.905,29 18.353,29" id="Fill-575" fill="#73C6F4" sketch:type="MSShapeGroup"></path>
            <path d="M28.059,29 L27.088,29 C26.536,29 26.088,29.448 26.088,30 C26.088,30.552 26.536,31 27.088,31 L28.059,31 C28.611,31 29.059,30.552 29.059,30 C29.059,29.448 28.611,29 28.059,29" id="Fill-576" fill="#73C6F4" sketch:type="MSShapeGroup"></path>
            <path d="M32.912,29 L31.941,29 C31.389,29 30.941,29.448 30.941,30 C30.941,30.552 31.389,31 31.941,31 L32.912,31 C33.464,31 33.912,30.552 33.912,30 C33.912,29.448 33.464,29 32.912,29" id="Fill-577" fill="#73C6F4" sketch:type="MSShapeGroup"></path>
            <path d="M42.618,29 L41.647,29 C41.095,29 40.647,29.448 40.647,30 C40.647,30.552 41.095,31 41.647,31 L42.618,31 C43.17,31 43.618,30.552 43.618,30 C43.618,29.448 43.17,29 42.618,29" id="Fill-578" fill="#73C6F4" sketch:type="MSShapeGroup"></path>
            <path d="M37.765,29 L36.794,29 C36.242,29 35.794,29.448 35.794,30 C35.794,30.552 36.242,31 36.794,31 L37.765,31 C38.317,31 38.765,30.552 38.765,30 C38.765,29.448 38.317,29 37.765,29" id="Fill-579" fill="#73C6F4" sketch:type="MSShapeGroup"></path>
            <path d="M58,60 L57,60 C56.447,60 56,59.552 56,59 C56,58.448 56.447,58 57,58 L58,58 C58.553,58 59,58.448 59,59 C59,59.552 58.553,60 58,60 L58,60 Z M54,60 L53,60 C52.447,60 52,59.552 52,59 C52,58.448 52.447,58 53,58 L54,58 C54.553,58 55,58.448 55,59 C55,59.552 54.553,60 54,60 L54,60 Z M50,60 L49,60 C48.447,60 48,59.552 48,59 C48,58.448 48.447,58 49,58 L50,58 C50.553,58 51,58.448 51,59 C51,59.552 50.553,60 50,60 L50,60 Z M46,60 L45,60 C44.448,60 44,59.552 44,59 C44,58.448 44.448,58 45,58 L46,58 C46.552,58 47,58.448 47,59 C47,59.552 46.552,60 46,60 L46,60 Z M42,60 L41,60 C40.448,60 40,59.552 40,59 C40,58.448 40.448,58 41,58 L42,58 C42.552,58 43,58.448 43,59 C43,59.552 42.552,60 42,60 L42,60 Z M38,60 L37,60 C36.448,60 36,59.552 36,59 C36,58.448 36.448,58 37,58 L38,58 C38.552,58 39,58.448 39,59 C39,59.552 38.552,60 38,60 L38,60 Z M34,60 L33,60 C32.448,60 32,59.552 32,59 C32,58.448 32.448,58 33,58 L34,58 C34.552,58 35,58.448 35,59 C35,59.552 34.552,60 34,60 L34,60 Z M30,60 L29,60 C28.448,60 28,59.552 28,59 C28,58.448 28.448,58 29,58 L30,58 C30.552,58 31,58.448 31,59 C31,59.552 30.552,60 30,60 L30,60 Z M26,60 L25,60 C24.448,60 24,59.552 24,59 C24,58.448 24.448,58 25,58 L26,58 C26.552,58 27,58.448 27,59 C27,59.552 26.552,60 26,60 L26,60 Z M22,60 L21,60 C20.448,60 20,59.552 20,59 C20,58.448 20.448,58 21,58 L22,58 C22.552,58 23,58.448 23,59 C23,59.552 22.552,60 22,60 L22,60 Z M18,60 L17,60 C16.448,60 16,59.552 16,59 C16,58.448 16.448,58 17,58 L18,58 C18.552,58 19,58.448 19,59 C19,59.552 18.552,60 18,60 L18,60 Z M14,60 L13,60 C12.448,60 12,59.552 12,59 C12,58.448 12.448,58 13,58 L14,58 C14.552,58 15,58.448 15,59 C15,59.552 14.552,60 14,60 L14,60 Z M10,60 L9,60 C8.448,60 8,59.552 8,59 C8,58.448 8.448,58 9,58 L10,58 C10.552,58 11,58.448 11,59 C11,59.552 10.552,60 10,60 L10,60 Z M6,60 L5,60 C4.448,60 4,59.552 4,59 C4,58.448 4.448,58 5,58 L6,58 C6.552,58 7,58.448 7,59 C7,59.552 6.552,60 6,60 L6,60 Z M2,60 L1,60 C0.448,60 0,59.552 0,59 C0,58.448 0.448,58 1,58 L2,58 C2.552,58 3,58.448 3,59 C3,59.552 2.552,60 2,60 L2,60 Z" id="Fill-702" fill="#38454F" sketch:type="MSShapeGroup"></path>
            <path d="M54,57 L53,57 C52.447,57 52,56.552 52,56 C52,55.448 52.447,55 53,55 L54,55 C54.553,55 55,55.448 55,56 C55,56.552 54.553,57 54,57 L54,57 Z M50,57 L49,57 C48.447,57 48,56.552 48,56 C48,55.448 48.447,55 49,55 L50,55 C50.553,55 51,55.448 51,56 C51,56.552 50.553,57 50,57 L50,57 Z M46,57 L45,57 C44.448,57 44,56.552 44,56 C44,55.448 44.448,55 45,55 L46,55 C46.552,55 47,55.448 47,56 C47,56.552 46.552,57 46,57 L46,57 Z M42,57 L41,57 C40.448,57 40,56.552 40,56 C40,55.448 40.448,55 41,55 L42,55 C42.552,55 43,55.448 43,56 C43,56.552 42.552,57 42,57 L42,57 Z M38,57 L37,57 C36.448,57 36,56.552 36,56 C36,55.448 36.448,55 37,55 L38,55 C38.552,55 39,55.448 39,56 C39,56.552 38.552,57 38,57 L38,57 Z M34,57 L33,57 C32.448,57 32,56.552 32,56 C32,55.448 32.448,55 33,55 L34,55 C34.552,55 35,55.448 35,56 C35,56.552 34.552,57 34,57 L34,57 Z M30,57 L29,57 C28.448,57 28,56.552 28,56 C28,55.448 28.448,55 29,55 L30,55 C30.552,55 31,55.448 31,56 C31,56.552 30.552,57 30,57 L30,57 Z M26,57 L25,57 C24.448,57 24,56.552 24,56 C24,55.448 24.448,55 25,55 L26,55 C26.552,55 27,55.448 27,56 C27,56.552 26.552,57 26,57 L26,57 Z M22,57 L21,57 C20.448,57 20,56.552 20,56 C20,55.448 20.448,55 21,55 L22,55 C22.552,55 23,55.448 23,56 C23,56.552 22.552,57 22,57 L22,57 Z M18,57 L17,57 C16.448,57 16,56.552 16,56 C16,55.448 16.448,55 17,55 L18,55 C18.552,55 19,55.448 19,56 C19,56.552 18.552,57 18,57 L18,57 Z M14,57 L13,57 C12.448,57 12,56.552 12,56 C12,55.448 12.448,55 13,55 L14,55 C14.552,55 15,55.448 15,56 C15,56.552 14.552,57 14,57 L14,57 Z M10,57 L9,57 C8.448,57 8,56.552 8,56 C8,55.448 8.448,55 9,55 L10,55 C10.552,55 11,55.448 11,56 C11,56.552 10.552,57 10,57 L10,57 Z M6,57 L5,57 C4.448,57 4,56.552 4,56 C4,55.448 4.448,55 5,55 L6,55 C6.552,55 7,55.448 7,56 C7,56.552 6.552,57 6,57 L6,57 Z" id="Fill-703" fill="#38454F" sketch:type="MSShapeGroup"></path>
            <path d="M50,54 L49,54 C48.447,54 48,53.552 48,53 C48,52.448 48.447,52 49,52 L50,52 C50.553,52 51,52.448 51,53 C51,53.552 50.553,54 50,54 L50,54 Z M46,54 L45,54 C44.448,54 44,53.552 44,53 C44,52.448 44.448,52 45,52 L46,52 C46.552,52 47,52.448 47,53 C47,53.552 46.552,54 46,54 L46,54 Z M42,54 L41,54 C40.448,54 40,53.552 40,53 C40,52.448 40.448,52 41,52 L42,52 C42.552,52 43,52.448 43,53 C43,53.552 42.552,54 42,54 L42,54 Z M38,54 L37,54 C36.448,54 36,53.552 36,53 C36,52.448 36.448,52 37,52 L38,52 C38.552,52 39,52.448 39,53 C39,53.552 38.552,54 38,54 L38,54 Z M34,54 L33,54 C32.448,54 32,53.552 32,53 C32,52.448 32.448,52 33,52 L34,52 C34.552,52 35,52.448 35,53 C35,53.552 34.552,54 34,54 L34,54 Z M30,54 L29,54 C28.448,54 28,53.552 28,53 C28,52.448 28.448,52 29,52 L30,52 C30.552,52 31,52.448 31,53 C31,53.552 30.552,54 30,54 L30,54 Z M26,54 L25,54 C24.448,54 24,53.552 24,53 C24,52.448 24.448,52 25,52 L26,52 C26.552,52 27,52.448 27,53 C27,53.552 26.552,54 26,54 L26,54 Z M22,54 L21,54 C20.448,54 20,53.552 20,53 C20,52.448 20.448,52 21,52 L22,52 C22.552,52 23,52.448 23,53 C23,53.552 22.552,54 22,54 L22,54 Z M18,54 L17,54 C16.448,54 16,53.552 16,53 C16,52.448 16.448,52 17,52 L18,52 C18.552,52 19,52.448 19,53 C19,53.552 18.552,54 18,54 L18,54 Z M14,54 L13,54 C12.448,54 12,53.552 12,53 C12,52.448 12.448,52 13,52 L14,52 C14.552,52 15,52.448 15,53 C15,53.552 14.552,54 14,54 L14,54 Z M10,54 L9,54 C8.448,54 8,53.552 8,53 C8,52.448 8.448,52 9,52 L10,52 C10.552,52 11,52.448 11,53 C11,53.552 10.552,54 10,54 L10,54 Z" id="Fill-704" fill="#38454F" sketch:type="MSShapeGroup"></path>
            <path d="M59,2 L58,2 C57.447,2 57,1.552 57,1 C57,0.448 57.447,0 58,0 L59,0 C59.553,0 60,0.448 60,1 C60,1.552 59.553,2 59,2 L59,2 Z M55,2 L54,2 C53.447,2 53,1.552 53,1 C53,0.448 53.447,0 54,0 L55,0 C55.553,0 56,0.448 56,1 C56,1.552 55.553,2 55,2 L55,2 Z M51,2 L50,2 C49.447,2 49,1.552 49,1 C49,0.448 49.447,0 50,0 L51,0 C51.553,0 52,0.448 52,1 C52,1.552 51.553,2 51,2 L51,2 Z M47,2 L46,2 C45.448,2 45,1.552 45,1 C45,0.448 45.448,0 46,0 L47,0 C47.553,0 48,0.448 48,1 C48,1.552 47.553,2 47,2 L47,2 Z M43,2 L42,2 C41.448,2 41,1.552 41,1 C41,0.448 41.448,0 42,0 L43,0 C43.552,0 44,0.448 44,1 C44,1.552 43.552,2 43,2 L43,2 Z M39,2 L38,2 C37.448,2 37,1.552 37,1 C37,0.448 37.448,0 38,0 L39,0 C39.552,0 40,0.448 40,1 C40,1.552 39.552,2 39,2 L39,2 Z M35,2 L34,2 C33.448,2 33,1.552 33,1 C33,0.448 33.448,0 34,0 L35,0 C35.552,0 36,0.448 36,1 C36,1.552 35.552,2 35,2 L35,2 Z M31,2 L30,2 C29.448,2 29,1.552 29,1 C29,0.448 29.448,0 30,0 L31,0 C31.552,0 32,0.448 32,1 C32,1.552 31.552,2 31,2 L31,2 Z M27,2 L26,2 C25.448,2 25,1.552 25,1 C25,0.448 25.448,0 26,0 L27,0 C27.552,0 28,0.448 28,1 C28,1.552 27.552,2 27,2 L27,2 Z M23,2 L22,2 C21.448,2 21,1.552 21,1 C21,0.448 21.448,0 22,0 L23,0 C23.552,0 24,0.448 24,1 C24,1.552 23.552,2 23,2 L23,2 Z M19,2 L18,2 C17.448,2 17,1.552 17,1 C17,0.448 17.448,0 18,0 L19,0 C19.552,0 20,0.448 20,1 C20,1.552 19.552,2 19,2 L19,2 Z M15,2 L14,2 C13.448,2 13,1.552 13,1 C13,0.448 13.448,0 14,0 L15,0 C15.552,0 16,0.448 16,1 C16,1.552 15.552,2 15,2 L15,2 Z M11,2 L10,2 C9.448,2 9,1.552 9,1 C9,0.448 9.448,0 10,0 L11,0 C11.552,0 12,0.448 12,1 C12,1.552 11.552,2 11,2 L11,2 Z M7,2 L6,2 C5.448,2 5,1.552 5,1 C5,0.448 5.448,0 6,0 L7,0 C7.552,0 8,0.448 8,1 C8,1.552 7.552,2 7,2 L7,2 Z M3,2 L2,2 C1.448,2 1,1.552 1,1 C1,0.448 1.448,0 2,0 L3,0 C3.552,0 4,0.448 4,1 C4,1.552 3.552,2 3,2 L3,2 Z" id="Fill-705" fill="#38454F" sketch:type="MSShapeGroup"></path>
            <path d="M55,5 L54,5 C53.447,5 53,4.552 53,4 C53,3.448 53.447,3 54,3 L55,3 C55.553,3 56,3.448 56,4 C56,4.552 55.553,5 55,5 L55,5 Z M51,5 L50,5 C49.447,5 49,4.552 49,4 C49,3.448 49.447,3 50,3 L51,3 C51.553,3 52,3.448 52,4 C52,4.552 51.553,5 51,5 L51,5 Z M47,5 L46,5 C45.448,5 45,4.552 45,4 C45,3.448 45.448,3 46,3 L47,3 C47.553,3 48,3.448 48,4 C48,4.552 47.553,5 47,5 L47,5 Z M43,5 L42,5 C41.448,5 41,4.552 41,4 C41,3.448 41.448,3 42,3 L43,3 C43.552,3 44,3.448 44,4 C44,4.552 43.552,5 43,5 L43,5 Z M39,5 L38,5 C37.448,5 37,4.552 37,4 C37,3.448 37.448,3 38,3 L39,3 C39.552,3 40,3.448 40,4 C40,4.552 39.552,5 39,5 L39,5 Z M35,5 L34,5 C33.448,5 33,4.552 33,4 C33,3.448 33.448,3 34,3 L35,3 C35.552,3 36,3.448 36,4 C36,4.552 35.552,5 35,5 L35,5 Z M31,5 L30,5 C29.448,5 29,4.552 29,4 C29,3.448 29.448,3 30,3 L31,3 C31.552,3 32,3.448 32,4 C32,4.552 31.552,5 31,5 L31,5 Z M27,5 L26,5 C25.448,5 25,4.552 25,4 C25,3.448 25.448,3 26,3 L27,3 C27.552,3 28,3.448 28,4 C28,4.552 27.552,5 27,5 L27,5 Z M23,5 L22,5 C21.448,5 21,4.552 21,4 C21,3.448 21.448,3 22,3 L23,3 C23.552,3 24,3.448 24,4 C24,4.552 23.552,5 23,5 L23,5 Z M19,5 L18,5 C17.448,5 17,4.552 17,4 C17,3.448 17.448,3 18,3 L19,3 C19.552,3 20,3.448 20,4 C20,4.552 19.552,5 19,5 L19,5 Z M15,5 L14,5 C13.448,5 13,4.552 13,4 C13,3.448 13.448,3 14,3 L15,3 C15.552,3 16,3.448 16,4 C16,4.552 15.552,5 15,5 L15,5 Z M11,5 L10,5 C9.448,5 9,4.552 9,4 C9,3.448 9.448,3 10,3 L11,3 C11.552,3 12,3.448 12,4 C12,4.552 11.552,5 11,5 L11,5 Z M7,5 L6,5 C5.448,5 5,4.552 5,4 C5,3.448 5.448,3 6,3 L7,3 C7.552,3 8,3.448 8,4 C8,4.552 7.552,5 7,5 L7,5 Z" id="Fill-706" fill="#38454F" sketch:type="MSShapeGroup"></path>
            <path d="M51,8 L50,8 C49.447,8 49,7.552 49,7 C49,6.448 49.447,6 50,6 L51,6 C51.553,6 52,6.448 52,7 C52,7.552 51.553,8 51,8 L51,8 Z M47,8 L46,8 C45.448,8 45,7.552 45,7 C45,6.448 45.448,6 46,6 L47,6 C47.553,6 48,6.448 48,7 C48,7.552 47.553,8 47,8 L47,8 Z M43,8 L42,8 C41.448,8 41,7.552 41,7 C41,6.448 41.448,6 42,6 L43,6 C43.552,6 44,6.448 44,7 C44,7.552 43.552,8 43,8 L43,8 Z M39,8 L38,8 C37.448,8 37,7.552 37,7 C37,6.448 37.448,6 38,6 L39,6 C39.552,6 40,6.448 40,7 C40,7.552 39.552,8 39,8 L39,8 Z M35,8 L34,8 C33.448,8 33,7.552 33,7 C33,6.448 33.448,6 34,6 L35,6 C35.552,6 36,6.448 36,7 C36,7.552 35.552,8 35,8 L35,8 Z M31,8 L30,8 C29.448,8 29,7.552 29,7 C29,6.448 29.448,6 30,6 L31,6 C31.552,6 32,6.448 32,7 C32,7.552 31.552,8 31,8 L31,8 Z M27,8 L26,8 C25.448,8 25,7.552 25,7 C25,6.448 25.448,6 26,6 L27,6 C27.552,6 28,6.448 28,7 C28,7.552 27.552,8 27,8 L27,8 Z M23,8 L22,8 C21.448,8 21,7.552 21,7 C21,6.448 21.448,6 22,6 L23,6 C23.552,6 24,6.448 24,7 C24,7.552 23.552,8 23,8 L23,8 Z M19,8 L18,8 C17.448,8 17,7.552 17,7 C17,6.448 17.448,6 18,6 L19,6 C19.552,6 20,6.448 20,7 C20,7.552 19.552,8 19,8 L19,8 Z M15,8 L14,8 C13.448,8 13,7.552 13,7 C13,6.448 13.448,6 14,6 L15,6 C15.552,6 16,6.448 16,7 C16,7.552 15.552,8 15,8 L15,8 Z M11,8 L10,8 C9.448,8 9,7.552 9,7 C9,6.448 9.448,6 10,6 L11,6 C11.552,6 12,6.448 12,7 C12,7.552 11.552,8 11,8 L11,8 Z" id="Fill-707" fill="#38454F" sketch:type="MSShapeGroup"></path>
            <path d="M30,11 L30,49" id="Stroke-1034" stroke="#ECF0F1" stroke-width="2" sketch:type="MSShapeGroup"></path>
        </g>
    </g>
</svg>