<?xml version="1.0" encoding="UTF-8" standalone="no"?>
<svg width="55px" height="54px" viewBox="0 0 55 54" version="1.1" xmlns="http://www.w3.org/2000/svg" xmlns:xlink="http://www.w3.org/1999/xlink" xmlns:sketch="http://www.bohemiancoding.com/sketch/ns">
    <!-- Generator: Sketch 3.2.2 (9983) - http://www.bohemiancoding.com/sketch -->
    <title>60 - Treadmill (Flat)</title>
    <desc>Created with Sketch.</desc>
    <defs></defs>
    <g id="Page-1" stroke="none" stroke-width="1" fill="none" fill-rule="evenodd" sketch:type="MSPage">
        <g id="60---Treadmill-(Flat)" sketch:type="MSLayerGroup">
            <path d="M49.395,51 L5.5,51 C2.475,51 0,48.525 0,45.5 C0,42.475 2.475,40 5.5,40 L49.395,40 C52.42,40 54.895,42.475 54.895,45.5 C54.895,48.525 52.42,51 49.395,51" id="Fill-580" fill="#38454F" sketch:type="MSShapeGroup"></path>
            <path d="M13.895,40 L5.895,40 L11,8 L16,8 L13.895,40" id="Fill-581" fill="#BDC3C7" sketch:type="MSShapeGroup"></path>
            <path d="M11,45.5 C11,48.538 8.538,51 5.5,51 C2.462,51 0,48.538 0,45.5 C0,42.462 2.462,40 5.5,40 C8.538,40 11,42.462 11,45.5" id="Fill-582" fill="#BDC3C7" sketch:type="MSShapeGroup"></path>
            <path d="M55,45.5 C55,48.538 52.538,51 49.5,51 C46.462,51 44,48.538 44,45.5 C44,42.462 46.462,40 49.5,40 C52.538,40 55,42.462 55,45.5" id="Fill-583" fill="#BDC3C7" sketch:type="MSShapeGroup"></path>
            <path d="M15.895,54 L10.105,54 C8.942,54 8,53.162 8,52 L8,51 L18,51 L18,52 C18,53.162 17.058,54 15.895,54" id="Fill-584" fill="#95A5A5" sketch:type="MSShapeGroup"></path>
            <path d="M44.895,54 L39.105,54 C37.942,54 37,53.162 37,52 L37,51 L47,51 L47,52 C47,53.162 46.058,54 44.895,54" id="Fill-585" fill="#95A5A5" sketch:type="MSShapeGroup"></path>
            <path d="M22.5,9.24 L13,9.24 L3.51,4.926 C2.591,4.508 2,3.591 2,2.581 C2,0.625 4.094,-0.618 5.811,0.318 L11.102,3.204 C12.347,3.884 13.744,4.24 15.163,4.24 L22.5,4.24 C23.881,4.24 25,5.359 25,6.74 C25,8.12 23.881,9.24 22.5,9.24" id="Fill-586" fill="#38454F" sketch:type="MSShapeGroup"></path>
            <path d="M15,43 L40,43 L40,45 L15,45 L15,43 Z" id="Fill-594" fill="#546A79" sketch:type="MSShapeGroup"></path>
            <path d="M15,46 L40,46 L40,48 L15,48 L15,46 Z" id="Fill-595" fill="#546A79" sketch:type="MSShapeGroup"></path>
        </g>
    </g>
</svg>