<?xml version="1.0" encoding="UTF-8" standalone="no"?>
<svg width="56px" height="56px" viewBox="0 0 56 56" version="1.1" xmlns="http://www.w3.org/2000/svg" xmlns:xlink="http://www.w3.org/1999/xlink" xmlns:sketch="http://www.bohemiancoding.com/sketch/ns">
    <!-- Generator: Sketch 3.2.2 (9983) - http://www.bohemiancoding.com/sketch -->
    <title>92 - Volleyball (Flat)</title>
    <desc>Created with Sketch.</desc>
    <defs></defs>
    <g id="Page-1" stroke="none" stroke-width="1" fill="none" fill-rule="evenodd" sketch:type="MSPage">
        <g id="92---Volleyball-(Flat)" sketch:type="MSLayerGroup">
            <path d="M21.576,1.571 L20.177,3.254 C13.727,10.99 10.417,14.968 8.933,28.642 C11.331,28.918 13.66,29.034 15.905,28.993 C17.52,14.233 22.05,8.766 28.842,0.583 L29.298,0.033 C28.867,0.013 28.435,0 28,0 C25.855,0 23.769,0.249 21.762,0.706 C21.832,1.001 21.784,1.32 21.576,1.571" id="Fill-515" fill="#D3DADD" sketch:type="MSShapeGroup"></path>
            <path d="M6.949,28.381 C8.507,14.136 12.15,9.759 18.64,1.974 L19.062,1.466 C8.278,5.097 0.436,15.111 0.025,27.019 C0.099,27.021 0.172,27.011 0.246,27.031 C2.527,27.611 4.763,28.056 6.949,28.381" id="Fill-516" fill="#ECF0F1" sketch:type="MSShapeGroup"></path>
            <path d="M1.507,34.832 C11.632,39.569 17.556,40.217 31.459,34.526 C30.35,32.722 29.118,30.983 27.744,29.324 L27.627,29.167 C24.337,30.219 20.741,30.824 16.902,30.97 C16.868,30.974 16.839,30.989 16.805,30.989 C16.771,30.989 16.739,30.987 16.705,30.984 C16.698,30.983 16.692,30.979 16.684,30.978 C16.136,30.996 15.584,31.007 15.026,31.007 C12.705,31.007 10.302,30.844 7.836,30.526 L7.835,30.526 C7.802,30.526 7.769,30.525 7.735,30.521 C7.721,30.52 7.711,30.512 7.697,30.51 C5.201,30.182 2.639,29.688 0.026,29.034 C0.098,31.01 0.372,32.933 0.832,34.784 C1.051,34.726 1.287,34.729 1.507,34.832" id="Fill-517" fill="#ECF0F1" sketch:type="MSShapeGroup"></path>
            <path d="M30.381,1.86 C23.636,9.986 19.494,14.981 17.924,28.914 C21.193,28.709 24.261,28.151 27.082,27.242 C28.37,15.45 32.16,10.975 37.377,4.85 C38.032,4.081 38.713,3.278 39.415,2.434 C36.946,1.33 34.29,0.574 31.505,0.226 C31.484,0.412 31.429,0.596 31.301,0.751 L30.381,1.86" id="Fill-518" fill="#ECF0F1" sketch:type="MSShapeGroup"></path>
            <path d="M6.838,45.075 C17.673,47.862 23.117,48.452 35.663,43.463 C34.807,40.962 33.728,38.571 32.459,36.279 C25.487,39.154 20.314,40.59 15.435,40.59 C10.959,40.59 6.702,39.382 1.493,37.019 C2.52,40.036 4.045,42.821 5.974,45.277 C6.212,45.087 6.521,44.994 6.838,45.075" id="Fill-519" fill="#D3DADD" sketch:type="MSShapeGroup"></path>
            <path d="M38.899,6.146 C38.156,7.02 37.452,7.85 36.781,8.666 C48.233,14.609 52.363,23.068 55.02,35.345 C55.655,33.004 56,30.543 56,28 C56,17.321 50.02,8.04 41.227,3.318 C41.194,3.381 41.174,3.448 41.127,3.505 C40.357,4.435 39.614,5.308 38.899,6.146" id="Fill-520" fill="#ECF0F1" sketch:type="MSShapeGroup"></path>
            <path d="M53.433,37.509 C50.877,24.736 47.076,16.134 35.513,10.26 C34.046,12.169 32.788,14.1 31.766,16.404 C43.239,24.089 48.253,33.393 48.363,47.208 C50.793,44.632 52.739,41.597 54.058,38.244 C53.748,38.125 53.502,37.858 53.433,37.509" id="Fill-521" fill="#D3DADD" sketch:type="MSShapeGroup"></path>
            <path d="M31.014,18.312 C30.109,20.851 29.443,23.866 29.039,27.719 L29.314,28.086 C35.234,35.235 38.811,43.742 39.923,53.337 C42.38,52.178 44.641,50.674 46.644,48.885 C46.478,48.704 46.374,48.467 46.376,48.203 C46.503,34.729 41.88,25.723 31.014,18.312" id="Fill-522" fill="#ECF0F1" sketch:type="MSShapeGroup"></path>
            <path d="M36.254,45.378 C29.359,48.109 24.507,49.23 19.813,49.23 C16.057,49.23 12.378,48.521 7.802,47.38 C12.897,52.69 20.06,56 28,56 C31.532,56 34.909,55.34 38.021,54.146 L37.973,53.88 C37.649,50.932 37.057,48.105 36.254,45.378" id="Fill-523" fill="#ECF0F1" sketch:type="MSShapeGroup"></path>
            <path d="M36.781,8.666 C37.452,7.85 38.156,7.02 38.899,6.146 C39.614,5.308 40.357,4.435 41.127,3.505 C41.174,3.448 41.194,3.381 41.227,3.318 C40.636,3.001 40.03,2.709 39.415,2.434 C38.713,3.278 38.032,4.081 37.377,4.85 C32.16,10.975 28.37,15.45 27.082,27.242 C24.261,28.151 21.193,28.709 17.924,28.914 C19.494,14.981 23.636,9.986 30.381,1.86 L31.301,0.751 C31.429,0.596 31.484,0.412 31.505,0.226 C30.777,0.135 30.042,0.067 29.298,0.033 L28.842,0.583 C22.05,8.766 17.52,14.233 15.905,28.993 C13.66,29.034 11.331,28.918 8.933,28.642 C10.417,14.968 13.727,10.99 20.177,3.254 L21.576,1.571 C21.784,1.32 21.832,1.001 21.762,0.706 C20.844,0.915 19.943,1.169 19.062,1.466 L18.64,1.974 C12.15,9.759 8.507,14.136 6.949,28.381 C4.763,28.056 2.527,27.611 0.246,27.031 C0.172,27.011 0.099,27.021 0.025,27.019 C0.014,27.345 0,27.671 0,28 C0,28.347 0.014,28.69 0.026,29.034 C2.639,29.688 5.201,30.182 7.697,30.51 C7.711,30.512 7.721,30.52 7.735,30.521 C7.769,30.525 7.802,30.526 7.835,30.526 L7.836,30.526 C10.302,30.844 12.705,31.007 15.026,31.007 C15.584,31.007 16.136,30.996 16.684,30.978 C16.692,30.979 16.698,30.983 16.705,30.984 C16.739,30.987 16.771,30.989 16.805,30.989 C16.839,30.989 16.868,30.974 16.902,30.97 C20.741,30.824 24.337,30.219 27.627,29.167 L27.744,29.324 C29.118,30.983 30.35,32.722 31.459,34.526 C17.556,40.217 11.632,39.569 1.507,34.832 C1.287,34.729 1.051,34.726 0.832,34.784 C1.021,35.542 1.244,36.286 1.493,37.019 C6.702,39.382 10.959,40.59 15.435,40.59 C20.314,40.59 25.487,39.154 32.459,36.279 C33.728,38.571 34.807,40.962 35.663,43.463 C23.117,48.452 17.673,47.862 6.838,45.075 C6.521,44.994 6.212,45.087 5.974,45.277 C6.549,46.008 7.159,46.71 7.802,47.38 C12.378,48.521 16.057,49.23 19.813,49.23 C24.507,49.23 29.359,48.109 36.254,45.378 C37.057,48.105 37.649,50.932 37.973,53.88 L38.021,54.146 C38.666,53.898 39.301,53.63 39.923,53.337 C38.811,43.742 35.234,35.235 29.314,28.086 L29.039,27.719 C29.443,23.866 30.109,20.851 31.014,18.312 C41.88,25.723 46.503,34.729 46.376,48.203 C46.374,48.467 46.478,48.704 46.644,48.885 C47.241,48.351 47.813,47.79 48.363,47.208 C48.253,33.393 43.239,24.089 31.766,16.404 C32.788,14.1 34.046,12.169 35.513,10.26 C47.076,16.134 50.877,24.736 53.433,37.509 C53.502,37.858 53.748,38.125 54.058,38.244 C54.429,37.301 54.751,36.335 55.02,35.345 C52.363,23.068 48.233,14.609 36.781,8.666" id="Fill-524" fill="#C7D0D8" sketch:type="MSShapeGroup"></path>
        </g>
    </g>
</svg>