<?xml version="1.0" encoding="UTF-8" standalone="no"?>
<svg width="58px" height="50px" viewBox="0 0 58 50" version="1.1" xmlns="http://www.w3.org/2000/svg" xmlns:xlink="http://www.w3.org/1999/xlink" xmlns:sketch="http://www.bohemiancoding.com/sketch/ns">
    <!-- Generator: Sketch 3.2.2 (9983) - http://www.bohemiancoding.com/sketch -->
    <title>12 - Water Polo (Flat)</title>
    <desc>Created with Sketch.</desc>
    <defs></defs>
    <g id="Page-1" stroke="none" stroke-width="1" fill="none" fill-rule="evenodd" sketch:type="MSPage">
        <g id="12---Water-Polo-(Flat)" sketch:type="MSLayerGroup">
            <path d="M58,32 L57.989,32.004 C57.976,31.729 57.859,31.461 57.629,31.274 C57.198,30.925 56.568,30.994 56.223,31.423 C55.347,32.507 54.202,33.104 53,33.104 C51.798,33.104 50.653,32.507 49.777,31.423 C48.515,29.86 46.818,29 45,29 C43.182,29 41.485,29.86 40.223,31.423 C39.347,32.507 38.202,33.105 37,33.105 C35.798,33.105 34.653,32.507 33.777,31.423 C32.515,29.86 30.818,29 29,29 C27.182,29 25.485,29.86 24.223,31.423 C23.347,32.507 22.202,33.105 21,33.105 C19.798,33.105 18.653,32.507 17.777,31.423 C16.515,29.86 14.818,29 13,29 C11.182,29 9.485,29.86 8.223,31.423 C7.347,32.507 6.202,33.105 5,33.105 C3.798,33.105 2.653,32.507 1.777,31.423 C1.431,30.994 0.802,30.925 0.371,31.274 C0.141,31.461 0.024,31.729 0.011,32.004 L0,32 L0,46 L0.01,46 C-0.002,46.238 0.061,46.481 0.223,46.681 C1.485,48.243 3.182,49.104 5,49.104 C6.818,49.104 8.515,48.243 9.777,46.681 C10.653,45.597 11.798,45 13,45 C14.202,45 15.347,45.597 16.223,46.681 C17.485,48.243 19.182,49.104 21,49.104 C22.818,49.104 24.515,48.243 25.777,46.681 C26.653,45.597 27.798,45 29,45 C30.202,45 31.347,45.597 32.223,46.681 C33.485,48.243 35.182,49.104 37,49.104 C38.818,49.104 40.515,48.243 41.777,46.681 C42.653,45.597 43.798,45 45,45 C46.202,45 47.347,45.597 48.223,46.681 C49.485,48.243 51.182,49.104 53,49.104 C54.818,49.104 56.515,48.243 57.777,46.681 C57.939,46.481 58.002,46.238 57.99,46 L58,46 L58,32" id="Fill-8" fill="#67B9CC" sketch:type="MSShapeGroup"></path>
            <path d="M53.5,34 L53.5,34 C52.119,34 51,32.881 51,31.5 L51,5 L7,5 L7,31.5 C7,32.881 5.881,34 4.5,34 C3.119,34 2,32.881 2,31.5 L2,2.378 C2,1.065 3.065,0 4.378,0 L53.267,0 C54.77,0 56,1.23 56,2.733 L56,31.5 C56,32.881 54.881,34 53.5,34" id="Fill-367" fill="#ECF0F1" sketch:type="MSShapeGroup"></path>
            <path d="M43,20.5 C43,22.985 40.985,25 38.5,25 C36.015,25 34,22.985 34,20.5 C34,18.015 36.015,16 38.5,16 C40.985,16 43,18.015 43,20.5" id="Fill-383" fill="#F29C1F" sketch:type="MSShapeGroup"></path>
            <path d="M56.223,45.423 C55.347,46.507 54.202,47.104 53,47.104 C51.798,47.104 50.653,46.507 49.777,45.423 C48.515,43.86 46.818,43 45,43 C43.182,43 41.485,43.86 40.223,45.423 C39.347,46.507 38.202,47.105 37,47.105 C35.798,47.105 34.653,46.507 33.777,45.423 C32.515,43.86 30.818,43 29,43 C27.182,43 25.485,43.86 24.223,45.423 C23.347,46.507 22.202,47.105 21,47.105 C19.798,47.105 18.653,46.507 17.777,45.423 C16.515,43.86 14.818,43 13,43 C11.182,43 9.485,43.86 8.223,45.423 C7.347,46.507 6.202,47.105 5,47.105 C3.798,47.105 2.653,46.507 1.777,45.423 C1.431,44.994 0.802,44.926 0.371,45.274 C-0.058,45.621 -0.125,46.251 0.223,46.681 C1.485,48.243 3.182,49.104 5,49.104 C6.818,49.104 8.515,48.243 9.777,46.681 C10.653,45.597 11.798,45 13,45 C14.202,45 15.347,45.597 16.223,46.681 C17.485,48.243 19.182,49.104 21,49.104 C22.818,49.104 24.515,48.243 25.777,46.681 C26.653,45.597 27.798,45 29,45 C30.202,45 31.347,45.597 32.223,46.681 C33.485,48.243 35.182,49.104 37,49.104 C38.818,49.104 40.515,48.243 41.777,46.681 C42.653,45.597 43.798,45 45,45 C46.202,45 47.347,45.597 48.223,46.681 C49.485,48.243 51.182,49.104 53,49.104 C54.818,49.104 56.515,48.243 57.777,46.681 C58.125,46.251 58.058,45.621 57.629,45.274 C57.198,44.926 56.568,44.994 56.223,45.423" id="Fill-684" fill="#0096E6" sketch:type="MSShapeGroup"></path>
            <path d="M56.223,38.423 C55.347,39.507 54.202,40.104 53,40.104 C51.798,40.104 50.653,39.507 49.777,38.423 C48.515,36.86 46.818,36 45,36 C43.182,36 41.485,36.86 40.223,38.423 C39.347,39.507 38.202,40.104 37,40.104 C35.798,40.104 34.653,39.507 33.777,38.423 C32.515,36.86 30.818,36 29,36 C27.182,36 25.485,36.86 24.223,38.423 C23.347,39.507 22.202,40.104 21,40.104 C19.798,40.104 18.653,39.507 17.777,38.423 C16.515,36.86 14.818,36 13,36 C11.182,36 9.485,36.86 8.223,38.423 C7.347,39.507 6.202,40.104 5,40.104 C3.798,40.104 2.653,39.507 1.777,38.423 C1.431,37.994 0.802,37.925 0.371,38.275 C-0.058,38.621 -0.125,39.251 0.223,39.681 C1.485,41.243 3.182,42.105 5,42.105 C6.818,42.105 8.515,41.243 9.777,39.681 C10.653,38.597 11.798,38 13,38 C14.202,38 15.347,38.597 16.223,39.681 C17.485,41.243 19.182,42.105 21,42.105 C22.818,42.105 24.515,41.243 25.777,39.681 C26.653,38.597 27.798,38 29,38 C30.202,38 31.347,38.597 32.223,39.681 C33.485,41.243 35.182,42.105 37,42.105 C38.818,42.105 40.515,41.243 41.777,39.681 C42.653,38.597 43.798,38 45,38 C46.202,38 47.347,38.597 48.223,39.681 C49.485,41.243 51.182,42.104 53,42.104 C54.818,42.104 56.515,41.243 57.777,39.681 C58.125,39.251 58.058,38.621 57.629,38.275 C57.198,37.925 56.568,37.994 56.223,38.423" id="Fill-685" fill="#0096E6" sketch:type="MSShapeGroup"></path>
            <path d="M5,35.105 C6.818,35.105 8.515,34.243 9.777,32.681 C10.653,31.597 11.798,31 13,31 C14.202,31 15.347,31.597 16.223,32.681 C17.485,34.243 19.182,35.105 21,35.105 C22.818,35.105 24.515,34.243 25.777,32.681 C26.653,31.597 27.798,31 29,31 C30.202,31 31.347,31.597 32.223,32.681 C33.485,34.243 35.182,35.105 37,35.105 C38.818,35.105 40.515,34.243 41.777,32.681 C42.653,31.597 43.798,31 45,31 C46.202,31 47.347,31.597 48.223,32.681 C49.485,34.243 51.182,35.104 53,35.104 C54.818,35.104 56.515,34.243 57.777,32.681 C58.125,32.251 58.058,31.621 57.629,31.274 C57.198,30.925 56.568,30.994 56.223,31.423 C55.347,32.507 54.202,33.104 53,33.104 C51.798,33.104 50.653,32.507 49.777,31.423 C48.515,29.86 46.818,29 45,29 C43.182,29 41.485,29.86 40.223,31.423 C39.347,32.507 38.202,33.105 37,33.105 C35.798,33.105 34.653,32.507 33.777,31.423 C32.515,29.86 30.818,29 29,29 C27.182,29 25.485,29.86 24.223,31.423 C23.347,32.507 22.202,33.105 21,33.105 C19.798,33.105 18.653,32.507 17.777,31.423 C16.515,29.86 14.818,29 13,29 C11.182,29 9.485,29.86 8.223,31.423 C7.347,32.507 6.202,33.105 5,33.105 C3.798,33.105 2.653,32.507 1.777,31.423 C1.431,30.994 0.802,30.925 0.371,31.274 C-0.058,31.621 -0.125,32.251 0.223,32.681 C1.485,34.243 3.182,35.105 5,35.105" id="Fill-686" fill="#0096E6" sketch:type="MSShapeGroup"></path>
        </g>
    </g>
</svg>