<?xml version="1.0" encoding="UTF-8" standalone="no"?>
<svg width="58px" height="58px" viewBox="0 0 58 58" version="1.1" xmlns="http://www.w3.org/2000/svg" xmlns:xlink="http://www.w3.org/1999/xlink" xmlns:sketch="http://www.bohemiancoding.com/sketch/ns">
    <!-- Generator: Sketch 3.2.2 (9983) - http://www.bohemiancoding.com/sketch -->
    <title>9 - Weight DIsk (Flat)</title>
    <desc>Created with Sketch.</desc>
    <defs></defs>
    <g id="Page-1" stroke="none" stroke-width="1" fill="none" fill-rule="evenodd" sketch:type="MSPage">
        <g id="9---Weight-DIsk-(Flat)" sketch:type="MSLayerGroup">
            <path d="M29,0 C12.984,0 0,12.984 0,29 C0,45.016 12.984,58 29,58 C45.016,58 58,45.016 58,29 C58,12.984 45.016,0 29,0 L29,0 Z M29,33 C26.791,33 25,31.209 25,29 C25,26.791 26.791,25 29,25 C31.209,25 33,26.791 33,29 C33,31.209 31.209,33 29,33 L29,33 Z" id="Fill-5" fill="#546A79" sketch:type="MSShapeGroup"></path>
            <path d="M29,5 C15.745,5 5,15.745 5,29 C5,42.255 15.745,53 29,53 C42.255,53 53,42.255 53,29 C53,15.745 42.255,5 29,5 L29,5 Z M29,33 C26.791,33 25,31.209 25,29 C25,26.791 26.791,25 29,25 C31.209,25 33,26.791 33,29 C33,31.209 31.209,33 29,33 L29,33 Z" id="Fill-6" fill="#38454F" sketch:type="MSShapeGroup"></path>
            <path d="M13,33 L9,33 L9,31 L13,31 C13.551,31 14,30.552 14,30 C14,29.448 13.551,29 13,29 L9,29 L9,23 L16,23 L16,25 L11,25 L11,27 L13,27 C14.654,27 16,28.346 16,30 C16,31.654 14.654,33 13,33" id="Fill-841" fill="#8697CB" sketch:type="MSShapeGroup"></path>
            <path d="M46,33 L42,33 L42,31 L46,31 C46.551,31 47,30.552 47,30 C47,29.448 46.551,29 46,29 L42,29 L42,23 L49,23 L49,25 L44,25 L44,27 L46,27 C47.654,27 49,28.346 49,30 C49,31.654 47.654,33 46,33" id="Fill-842" fill="#8697CB" sketch:type="MSShapeGroup"></path>
            <path d="M29,20 C24.029,20 20,24.029 20,29 C20,33.97 24.029,38 29,38 C33.971,38 38,33.97 38,29 C38,24.029 33.971,20 29,20 L29,20 Z M29,33 C26.791,33 25,31.209 25,29 C25,26.791 26.791,25 29,25 C31.209,25 33,26.791 33,29 C33,31.209 31.209,33 29,33 L29,33 Z" id="Fill-1089" fill="#546A79" sketch:type="MSShapeGroup"></path>
        </g>
    </g>
</svg>