<?xml version="1.0" encoding="UTF-8" standalone="no"?>
<svg width="58px" height="58px" viewBox="0 0 58 58" version="1.1" xmlns="http://www.w3.org/2000/svg" xmlns:xlink="http://www.w3.org/1999/xlink" xmlns:sketch="http://www.bohemiancoding.com/sketch/ns">
    <!-- Generator: Sketch 3.2.2 (9983) - http://www.bohemiancoding.com/sketch -->
    <title>4 - Weight Loss (Flat)</title>
    <desc>Created with Sketch.</desc>
    <defs></defs>
    <g id="Page-1" stroke="none" stroke-width="1" fill="none" fill-rule="evenodd" sketch:type="MSPage">
        <g id="4---Weight-Loss-(Flat)" sketch:type="MSLayerGroup">
            <path d="M15.5,27 C24.06,27 31,33.94 31,42.5 L31,27 L15.5,27" id="Fill-2" fill="#C1A634" sketch:type="MSShapeGroup"></path>
            <path d="M31,42.5 C31,51.06 24.06,58 15.5,58 C6.94,58 0,51.06 0,42.5 C0,33.94 6.94,27 15.5,27 C24.06,27 31,33.94 31,42.5" id="Fill-890" fill="#F8AD2B" sketch:type="MSShapeGroup"></path>
            <path d="M15.5,53 C9.711,53 5,48.289 5,42.5 C5,36.711 9.711,32 15.5,32 C21.289,32 26,36.711 26,42.5 C26,48.289 21.289,53 15.5,53" id="Fill-891" fill="#F0C419" sketch:type="MSShapeGroup"></path>
            <path d="M55.864,0 L15.103,0 C6.762,0 0,6.762 0,15.103 L0,42.5 C0,37.284 2.585,32.68 6.535,29.871 C6.221,29.702 6,29.382 6,29 L6,19 C6,18.447 6.447,18 7,18 C7.553,18 8,18.447 8,19 L8,28.939 C9.262,28.239 10.633,27.717 12.08,27.391 C12.029,27.271 12,27.139 12,27 L12,13 C12,12.447 12.447,12 13,12 C13.553,12 14,12.447 14,13 L14,27 C14,27.027 13.987,27.05 13.985,27.077 C14.484,27.028 14.988,27 15.5,27 C16.006,27 16.506,27.028 17,27.076 L17,27 L18,27 L18,21 C18,20.447 18.447,20 19,20 C19.553,20 20,20.447 20,21 L20,27 L24,27 L24,13 C24,12.447 24.447,12 25,12 C25.553,12 26,12.447 26,13 L26,27 L30,27 L30,21 C30,20.447 30.447,20 31,20 C31.553,20 32,20.447 32,21 L32,27 L36,27 L36,13 C36,12.447 36.447,12 37,12 C37.553,12 38,12.447 38,13 L38,27 L42,27 L42,21 C42,20.447 42.447,20 43,20 C43.553,20 44,20.447 44,21 L44,27 L48,27 L48,13 C48,12.447 48.447,12 49,12 C49.553,12 50,12.447 50,13 L50,27 L55.864,27 C57.044,27 58,26.044 58,24.864 L58,2.136 C58,0.956 57.044,0 55.864,0" id="Fill-892" fill="#F0C419" sketch:type="MSShapeGroup"></path>
            <path d="M0.025,43 C0.02,42.833 0,42.669 0,42.5 L0,43 L0.025,43" id="Fill-893" fill="#F0C419" sketch:type="MSShapeGroup"></path>
            <path d="M7,18 C6.447,18 6,18.447 6,19 L6,29 C6,29.382 6.221,29.702 6.535,29.871 C7.006,29.535 7.492,29.22 8,28.939 L8,19 C8,18.447 7.553,18 7,18" id="Fill-894" fill="#F2E9C0" sketch:type="MSShapeGroup"></path>
            <path d="M14,13 C14,12.447 13.553,12 13,12 C12.447,12 12,12.447 12,13 L12,27 C12,27.139 12.029,27.271 12.08,27.391 C12.703,27.251 13.336,27.14 13.985,27.077 C13.987,27.05 14,27.027 14,27 L14,13" id="Fill-895" fill="#F2E9C0" sketch:type="MSShapeGroup"></path>
            <path d="M19,20 C18.447,20 18,20.447 18,21 L18,27 L20,27 L20,21 C20,20.447 19.553,20 19,20" id="Fill-896" fill="#F2E9C0" sketch:type="MSShapeGroup"></path>
            <path d="M25,12 C24.447,12 24,12.447 24,13 L24,27 L26,27 L26,13 C26,12.447 25.553,12 25,12" id="Fill-897" fill="#F2E9C0" sketch:type="MSShapeGroup"></path>
            <path d="M31,20 C30.447,20 30,20.447 30,21 L30,27 L32,27 L32,21 C32,20.447 31.553,20 31,20" id="Fill-898" fill="#F2E9C0" sketch:type="MSShapeGroup"></path>
            <path d="M37,12 C36.447,12 36,12.447 36,13 L36,27 L38,27 L38,13 C38,12.447 37.553,12 37,12" id="Fill-899" fill="#F2E9C0" sketch:type="MSShapeGroup"></path>
            <path d="M43,20 C42.447,20 42,20.447 42,21 L42,27 L44,27 L44,21 C44,20.447 43.553,20 43,20" id="Fill-900" fill="#F2E9C0" sketch:type="MSShapeGroup"></path>
            <path d="M49,12 C48.447,12 48,12.447 48,13 L48,27 L50,27 L50,13 C50,12.447 49.553,12 49,12" id="Fill-901" fill="#F2E9C0" sketch:type="MSShapeGroup"></path>
            <path d="M15.5,48 C12.467,48 10,45.533 10,42.5 C10,39.467 12.467,37 15.5,37 C18.533,37 21,39.467 21,42.5 C21,45.533 18.533,48 15.5,48" id="Fill-902" fill="#DBAE1F" sketch:type="MSShapeGroup"></path>
            <path d="M55.864,27 L53,27 L53,0 L55.864,0 C57.044,0 58,0.956 58,2.136 L58,24.864 C58,26.044 57.044,27 55.864,27" id="Fill-1117" fill="#A5A5A4" sketch:type="MSShapeGroup"></path>
        </g>
    </g>
</svg>