<?xml version="1.0" encoding="UTF-8" standalone="no"?>
<svg width="58px" height="38px" viewBox="0 0 58 38" version="1.1" xmlns="http://www.w3.org/2000/svg" xmlns:xlink="http://www.w3.org/1999/xlink" xmlns:sketch="http://www.bohemiancoding.com/sketch/ns">
    <!-- Generator: Sketch 3.2.2 (9983) - http://www.bohemiancoding.com/sketch -->
    <title>2 - Weight (Flat)</title>
    <desc>Created with Sketch.</desc>
    <defs></defs>
    <g id="Page-1" stroke="none" stroke-width="1" fill="none" fill-rule="evenodd" sketch:type="MSPage">
        <g id="2---Weight-(Flat)" sketch:type="MSLayerGroup">
            <path d="M44.007,2.993 L44.007,11.681 C44.007,12.369 43.385,12.89 42.708,12.771 L40.204,11.977 C32.792,10.669 27.201,10.669 19.789,11.977 L15.292,12.771 C14.615,12.89 13.993,12.369 13.993,11.681 L13.993,2.993 C13.993,1.34 12.653,0 11,0 L2.993,0 C1.34,0 0,1.34 0,2.993 L0,35.007 C0,36.66 1.34,38 2.993,38 L11,38 C12.653,38 13.993,36.66 13.993,35.007 L13.993,26.319 C13.993,25.631 14.615,25.11 15.292,25.229 L19.789,26.023 C27.201,27.331 32.792,27.331 40.204,26.023 L42.708,25.229 C43.385,25.11 44.007,25.631 44.007,26.319 L44.007,35.007 C44.007,36.66 45.347,38 47,38 L55.007,38 C56.66,38 58,36.66 58,35.007 L58,2.993 C58,1.34 56.66,0 55.007,0 L47,0 C45.347,0 44.007,1.34 44.007,2.993" id="Fill-909" fill="#48A0DC" sketch:type="MSShapeGroup"></path>
            <path d="M0,11 L14,11 L14,27 L0,27 L0,11 Z" id="Fill-910" fill="#2980BA" sketch:type="MSShapeGroup"></path>
            <path d="M44,11 L58,11 L58,27 L44,27 L44,11 Z" id="Fill-911" fill="#2980BA" sketch:type="MSShapeGroup"></path>
        </g>
    </g>
</svg>