<?xml version="1.0" encoding="UTF-8" standalone="no"?>
<svg width="58px" height="58px" viewBox="0 0 58 58" version="1.1" xmlns="http://www.w3.org/2000/svg" xmlns:xlink="http://www.w3.org/1999/xlink" xmlns:sketch="http://www.bohemiancoding.com/sketch/ns">
    <!-- Generator: Sketch 3.2.2 (9983) - http://www.bohemiancoding.com/sketch -->
    <title>8 - Weight Bar (Flat)</title>
    <desc>Created with Sketch.</desc>
    <defs></defs>
    <g id="Page-1" stroke="none" stroke-width="1" fill="none" fill-rule="evenodd" sketch:type="MSPage">
        <g id="8---Weight-Bar-(Flat)" sketch:type="MSLayerGroup" transform="translate(-1.000000, 0.000000)">
            <path d="M7.152,57.76 L1.24,51.848 C0.92,51.528 0.92,51.009 1.24,50.689 L50.993,0.936 C51.313,0.616 51.832,0.616 52.152,0.936 L58.064,6.848 C58.384,7.168 58.384,7.687 58.064,8.007 L8.311,57.76 C7.991,58.08 7.472,58.08 7.152,57.76" id="Fill-843" fill="#BDC3C7" sketch:type="MSShapeGroup"></path>
            <path d="M12,58 C11.744,58 11.488,57.902 11.293,57.707 L1.293,47.707 C0.902,47.316 0.902,46.684 1.293,46.293 C1.684,45.902 2.316,45.902 2.707,46.293 L12.707,56.293 C13.098,56.684 13.098,57.316 12.707,57.707 C12.512,57.902 12.256,58 12,58" id="Fill-844" fill="#ECF0F1" sketch:type="MSShapeGroup"></path>
            <path d="M15,55 C14.744,55 14.488,54.902 14.293,54.707 L4.293,44.707 C3.902,44.316 3.902,43.684 4.293,43.293 C4.684,42.902 5.316,42.902 5.707,43.293 L15.707,53.293 C16.098,53.684 16.098,54.316 15.707,54.707 C15.512,54.902 15.256,55 15,55" id="Fill-845" fill="#ECF0F1" sketch:type="MSShapeGroup"></path>
            <path d="M54,16 C53.744,16 53.488,15.902 53.293,15.707 L43.293,5.707 C42.902,5.316 42.902,4.684 43.293,4.293 C43.684,3.902 44.316,3.902 44.707,4.293 L54.707,14.293 C55.098,14.684 55.098,15.316 54.707,15.707 C54.512,15.902 54.256,16 54,16" id="Fill-846" fill="#ECF0F1" sketch:type="MSShapeGroup"></path>
            <path d="M57,13 C56.744,13 56.488,12.902 56.293,12.707 L46.293,2.707 C45.902,2.316 45.902,1.684 46.293,1.293 C46.684,0.902 47.316,0.902 47.707,1.293 L57.707,11.293 C58.098,11.684 58.098,12.316 57.707,12.707 C57.512,12.902 57.256,13 57,13" id="Fill-847" fill="#ECF0F1" sketch:type="MSShapeGroup"></path>
            <path d="M22.707,32.293 C23.098,32.683 23.098,33.317 22.707,33.707 C22.317,34.098 21.683,34.098 21.293,33.707 C20.902,33.317 20.902,32.683 21.293,32.293 C21.683,31.902 22.317,31.902 22.707,32.293" id="Fill-848" fill="#ECF0F1" sketch:type="MSShapeGroup"></path>
            <path d="M26.707,32.293 C27.098,32.683 27.098,33.317 26.707,33.707 C26.317,34.098 25.683,34.098 25.293,33.707 C24.902,33.317 24.902,32.683 25.293,32.293 C25.683,31.902 26.317,31.902 26.707,32.293" id="Fill-849" fill="#ECF0F1" sketch:type="MSShapeGroup"></path>
            <path d="M26.707,28.293 C27.098,28.683 27.098,29.317 26.707,29.707 C26.317,30.098 25.683,30.098 25.293,29.707 C24.902,29.317 24.902,28.683 25.293,28.293 C25.683,27.902 26.317,27.902 26.707,28.293" id="Fill-850" fill="#ECF0F1" sketch:type="MSShapeGroup"></path>
            <path d="M26.707,36.293 C27.098,36.683 27.098,37.317 26.707,37.707 C26.317,38.098 25.683,38.098 25.293,37.707 C24.902,37.317 24.902,36.683 25.293,36.293 C25.683,35.902 26.317,35.902 26.707,36.293" id="Fill-851" fill="#ECF0F1" sketch:type="MSShapeGroup"></path>
            <path d="M30.707,32.293 C31.098,32.683 31.098,33.317 30.707,33.707 C30.317,34.098 29.683,34.098 29.293,33.707 C28.902,33.317 28.902,32.683 29.293,32.293 C29.683,31.902 30.317,31.902 30.707,32.293" id="Fill-852" fill="#ECF0F1" sketch:type="MSShapeGroup"></path>
            <path d="M30.707,28.293 C31.098,28.683 31.098,29.317 30.707,29.707 C30.317,30.098 29.683,30.098 29.293,29.707 C28.902,29.317 28.902,28.683 29.293,28.293 C29.683,27.902 30.317,27.902 30.707,28.293" id="Fill-853" fill="#ECF0F1" sketch:type="MSShapeGroup"></path>
            <path d="M30.707,24.293 C31.098,24.683 31.098,25.317 30.707,25.707 C30.317,26.098 29.683,26.098 29.293,25.707 C28.902,25.317 28.902,24.683 29.293,24.293 C29.683,23.902 30.317,23.902 30.707,24.293" id="Fill-854" fill="#ECF0F1" sketch:type="MSShapeGroup"></path>
            <path d="M34.707,28.293 C35.098,28.683 35.098,29.317 34.707,29.707 C34.317,30.098 33.683,30.098 33.293,29.707 C32.902,29.317 32.902,28.683 33.293,28.293 C33.683,27.902 34.317,27.902 34.707,28.293" id="Fill-862" fill="#ECF0F1" sketch:type="MSShapeGroup"></path>
            <path d="M34.707,24.293 C35.098,24.683 35.098,25.317 34.707,25.707 C34.317,26.098 33.683,26.098 33.293,25.707 C32.902,25.317 32.902,24.683 33.293,24.293 C33.683,23.902 34.317,23.902 34.707,24.293" id="Fill-863" fill="#ECF0F1" sketch:type="MSShapeGroup"></path>
            <path d="M34.707,20.293 C35.098,20.683 35.098,21.317 34.707,21.707 C34.317,22.098 33.683,22.098 33.293,21.707 C32.902,21.317 32.902,20.683 33.293,20.293 C33.683,19.902 34.317,19.902 34.707,20.293" id="Fill-864" fill="#ECF0F1" sketch:type="MSShapeGroup"></path>
            <path d="M38.707,24.293 C39.098,24.683 39.098,25.317 38.707,25.707 C38.317,26.098 37.683,26.098 37.293,25.707 C36.902,25.317 36.902,24.683 37.293,24.293 C37.683,23.902 38.317,23.902 38.707,24.293" id="Fill-865" fill="#ECF0F1" sketch:type="MSShapeGroup"></path>
        </g>
    </g>
</svg>