<?xml version="1.0" encoding="UTF-8" standalone="no"?>
<svg width="53px" height="59px" viewBox="0 0 53 59" version="1.1" xmlns="http://www.w3.org/2000/svg" xmlns:xlink="http://www.w3.org/1999/xlink" xmlns:sketch="http://www.bohemiancoding.com/sketch/ns">
    <!-- Generator: Sketch 3.2.2 (9983) - http://www.bohemiancoding.com/sketch -->
    <title>50 - Yachting (Flat)</title>
    <desc>Created with Sketch.</desc>
    <defs></defs>
    <g id="Page-1" stroke="none" stroke-width="1" fill="none" fill-rule="evenodd" sketch:type="MSPage">
        <g id="50---Yachting-(Flat)" sketch:type="MSLayerGroup">
            <path d="M0,59 L38,59 C40.848,59 43.383,57.345 45.032,55 L2.4,55 L0,59" id="Fill-45" fill="#35495E" sketch:type="MSShapeGroup"></path>
            <path d="M47,49 L6,49 L3.6,53 L46.143,53 C46.687,51.731 47,50.365 47,49" id="Fill-46" fill="#ECF0F1" sketch:type="MSShapeGroup"></path>
            <path d="M3.6,53 L2.4,55 L45.032,55 C45.47,54.377 45.841,53.704 46.143,53 L3.6,53" id="Fill-47" fill="#48A0DC" sketch:type="MSShapeGroup"></path>
            <path d="M31,20 C30.448,20 30,19.553 30,19 L30,1 C30,0.447 30.448,0 31,0 C31.552,0 32,0.447 32,1 L32,19 C32,19.553 31.552,20 31,20" id="Fill-247" fill="#7F6E5D" sketch:type="MSShapeGroup"></path>
            <path d="M6,49 L52,49" id="Stroke-248" stroke="#546A79" stroke-width="2" stroke-linecap="round" sketch:type="MSShapeGroup"></path>
            <path d="M27,14.195 L27,5 L5,42 L15.635,42 L27,14.195" id="Fill-249" fill="#F3D55B" sketch:type="MSShapeGroup"></path>
            <path d="M31,46 L33,46 L33,48 L31,48 L31,46 Z" id="Fill-250" fill="#7F6E5D" sketch:type="MSShapeGroup"></path>
            <path d="M35.156,22.591 L29,9.302 L14.885,43.834 C19.69,39.453 23.054,36.62 25.564,34.509 C31.12,29.836 32.15,28.956 35.156,22.591" id="Fill-251" fill="#8697CB" sketch:type="MSShapeGroup"></path>
            <path d="M46,46 L36.243,24.937 C33.548,30.393 32.14,31.59 26.852,36.039 C24.227,38.247 20.66,41.253 15.481,46 L46,46" id="Fill-252" fill="#ECF0F1" sketch:type="MSShapeGroup"></path>
            <path d="M36.243,24.937 L35.156,22.591 C32.15,28.956 31.12,29.836 25.564,34.509 C23.054,36.62 19.69,39.453 14.885,43.834 L14,46 L15.481,46 C20.66,41.253 24.227,38.247 26.852,36.039 C32.14,31.59 33.548,30.393 36.243,24.937" id="Fill-253" fill="#F3D55B" sketch:type="MSShapeGroup"></path>
        </g>
    </g>
</svg>