<?xml version="1.0" encoding="UTF-8" standalone="no"?>
<svg width="56px" height="56px" viewBox="0 0 56 56" version="1.1" xmlns="http://www.w3.org/2000/svg" xmlns:xlink="http://www.w3.org/1999/xlink" xmlns:sketch="http://www.bohemiancoding.com/sketch/ns">
    <!-- Generator: Sketch 3.2.2 (9983) - http://www.bohemiancoding.com/sketch -->
    <title>55 - Yoga Ball (Flat)</title>
    <desc>Created with Sketch.</desc>
    <defs></defs>
    <g id="Page-1" stroke="none" stroke-width="1" fill="none" fill-rule="evenodd" sketch:type="MSPage">
        <g id="55---Yoga-Ball-(Flat)" sketch:type="MSLayerGroup">
            <path d="M56,28 C56,43.464 43.464,56 28,56 C12.536,56 0,43.464 0,28 C0,12.536 12.536,0 28,0 C43.464,0 56,12.536 56,28" id="Fill-477" fill="#556080" sketch:type="MSShapeGroup"></path>
            <path d="M51,19 C51,16.055 50.594,13.207 49.849,10.499 C44.718,4.101 36.84,0 28,0 C12.536,0 0,12.536 0,28 C0,36.84 4.101,44.718 10.499,49.849 C13.207,50.594 16.055,51 19,51 C36.673,51 51,36.673 51,19" id="Fill-591" fill="#8697CB" sketch:type="MSShapeGroup"></path>
            <path d="M0,28 C0,31.81 0.764,35.441 2.142,38.752 C4.786,39.562 7.591,40 10.5,40 C26.24,40 39,27.24 39,11.5 C39,8.003 38.367,4.655 37.215,1.56 C34.328,0.554 31.23,0 28,0 C12.536,0 0,12.536 0,28" id="Fill-592" fill="#955BA5" sketch:type="MSShapeGroup"></path>
            <path d="M1.571,18.75 C1.823,19.123 2.097,19.482 2.422,19.806 C6.131,23.516 13.255,22.408 18.331,17.331 C23.408,12.255 24.516,5.131 20.806,1.422 C20.674,1.289 20.528,1.177 20.387,1.056 C11.599,3.535 4.567,10.191 1.571,18.75" id="Fill-593" fill="#CC66A1" sketch:type="MSShapeGroup"></path>
        </g>
    </g>
</svg>