<?xml version="1.0" encoding="UTF-8" standalone="no"?>
<svg width="58px" height="43px" viewBox="0 0 58 43" version="1.1" xmlns="http://www.w3.org/2000/svg" xmlns:xlink="http://www.w3.org/1999/xlink" xmlns:sketch="http://www.bohemiancoding.com/sketch/ns">
    <!-- Generator: Sketch 3.2.2 (9983) - http://www.bohemiancoding.com/sketch -->
    <title>3 - Yoga Lotus (Flat)</title>
    <desc>Created with Sketch.</desc>
    <defs></defs>
    <g id="Page-1" stroke="none" stroke-width="1" fill="none" fill-rule="evenodd" sketch:type="MSPage">
        <g id="3---Yoga-Lotus-(Flat)" sketch:type="MSLayerGroup">
            <path d="M29.005,42.491 L30.417,32.796 C31.674,24.173 39.682,16.165 48.305,14.908 L58,13.496 L56.587,23.191 C55.331,31.814 47.323,39.822 38.7,41.078 L29.005,42.491" id="Fill-903" fill="#556080" sketch:type="MSShapeGroup"></path>
            <path d="M29.005,42.491 L19.309,41.078 C10.687,39.822 2.678,31.814 1.422,23.191 L0.009,13.496 L9.705,14.908 C18.327,16.165 26.336,24.173 27.592,32.796 L29.005,42.491" id="Fill-904" fill="#7D6599" sketch:type="MSShapeGroup"></path>
            <path d="M29.005,42.491 L30.417,32.796 C31.674,24.173 39.682,16.165 48.305,14.908 L58,13.496 L56.587,23.191 C55.331,31.814 47.323,39.822 38.7,41.078 L29.005,42.491" id="Fill-903" fill="#556080" sketch:type="MSShapeGroup"></path>
            <path d="M29.005,42.491 L19.309,41.078 C10.687,39.822 2.678,31.814 1.422,23.191 L0.009,13.496 L9.705,14.908 C18.327,16.165 26.336,24.173 27.592,32.796 L29.005,42.491" id="Fill-904" fill="#7D6599" sketch:type="MSShapeGroup"></path>
            <path d="M29.005,41.515 L28.828,41.278 L28.929,41.968 L29.002,42 L29.005,41.98 L29.007,42 L29.081,41.968 L29.182,41.278 L29.005,41.515" id="Fill-905" fill="#8697CB" sketch:type="MSShapeGroup"></path>
            <path d="M20.929,12.327 C19.847,11.547 18.702,10.88 17.499,10.362 L8.245,6.047 L7.498,14.587 L9.705,14.908 C13.135,15.408 16.459,16.988 19.309,19.239 C19.486,16.842 20.032,14.489 20.929,12.327" id="Fill-906" fill="#8697CB" sketch:type="MSShapeGroup"></path>
            <path d="M49.764,6.047 L40.51,10.362 C39.308,10.88 38.162,11.547 37.081,12.327 C37.977,14.489 38.523,16.842 38.701,19.239 C41.55,16.988 44.874,15.408 48.305,14.908 L50.512,14.587 L49.764,6.047" id="Fill-907" fill="#894B9D" sketch:type="MSShapeGroup"></path>
            <path d="M20.929,12.327 C19.847,11.547 18.702,10.88 17.499,10.362 L8.245,6.047 L7.498,14.587 L9.705,14.908 C13.135,15.408 16.459,16.988 19.309,19.239 C19.486,16.842 20.032,14.489 20.929,12.327" id="Fill-906" fill="#8697CB" sketch:type="MSShapeGroup"></path>
            <path d="M49.764,6.047 L40.51,10.362 C39.308,10.88 38.162,11.547 37.081,12.327 C37.977,14.489 38.523,16.842 38.701,19.239 C41.55,16.988 44.874,15.408 48.305,14.908 L50.512,14.587 L49.764,6.047" id="Fill-907" fill="#894B9D" sketch:type="MSShapeGroup"></path>
            <path d="M27.592,32.796 L28.828,41.278 L29.005,41.515 L29.182,41.278 L30.417,32.796 C31.174,27.603 34.387,22.645 38.701,19.239 C38.407,15.269 37.129,11.405 34.861,8.364 L29.005,0 L23.148,8.364 C20.88,11.405 19.602,15.269 19.309,19.239 C23.622,22.645 26.835,27.603 27.592,32.796" id="Fill-908" fill="#ED7161" sketch:type="MSShapeGroup"></path>
            <path d="M27.592,32.796 L28.828,41.278 L29.005,41.515 L29.182,41.278 L30.417,32.796 C31.174,27.603 34.387,22.645 38.701,19.239 C38.407,15.269 37.129,11.405 34.861,8.364 L29.005,0 L23.148,8.364 C20.88,11.405 19.602,15.269 19.309,19.239 C23.622,22.645 26.835,27.603 27.592,32.796" id="Fill-908" fill="#ED7161" sketch:type="MSShapeGroup"></path>
        </g>
    </g>
</svg>