<?xml version="1.0" encoding="UTF-8" standalone="no"?>
<svg width="59px" height="59px" viewBox="0 0 59 59" version="1.1" xmlns="http://www.w3.org/2000/svg" xmlns:xlink="http://www.w3.org/1999/xlink" xmlns:sketch="http://www.bohemiancoding.com/sketch/ns">
    <!-- Generator: Sketch 3.2.2 (9983) - http://www.bohemiancoding.com/sketch -->
    <title>35 - Airport Check-In (Flat)</title>
    <desc>Created with Sketch.</desc>
    <defs></defs>
    <g id="Page-1" stroke="none" stroke-width="1" fill="none" fill-rule="evenodd" sketch:type="MSPage">
        <g id="35---Airport-Check-In-(Flat)" sketch:type="MSLayerGroup" transform="translate(1.000000, 0.000000)">
            <path d="M53.963,0 L22.037,0 C19.807,0 18,1.771 18,4 L18,58 L23,58 L23,5 L53,5 L53,58 L58,58 L58,4 C58,1.771 56.193,0 53.963,0" id="Fill-188" fill="#546A79" sketch:type="MSShapeGroup"></path>
            <path d="M0,30 L18,30 L18,58 L0,58 L0,30 Z" id="Fill-189" fill="#FFFFFF" sketch:type="MSShapeGroup"></path>
            <path d="M0,30 L18,30 L18,58 L0,58 L0,30 Z" id="Stroke-190" stroke="#7F8C8D" stroke-width="2" stroke-linecap="round" sketch:type="MSShapeGroup"></path>
            <path d="M12.241,28 L4.241,28 L1.515,19.821 C1.38,19.417 1.681,19 2.106,19 L14.376,19 C14.802,19 15.102,19.417 14.968,19.821 L12.241,28 L12.241,28 Z" id="Fill-191" fill="#24AE5F" sketch:type="MSShapeGroup"></path>
            <path d="M12.241,28 L4.241,28 L1.515,19.821 C1.38,19.417 1.681,19 2.106,19 L14.376,19 C14.802,19 15.102,19.417 14.968,19.821 L12.241,28 L12.241,28 Z" id="Stroke-192" stroke="#41767F" stroke-width="2" stroke-linecap="round" sketch:type="MSShapeGroup"></path>
            <path d="M2.106,19 L6.241,12 M14.241,19 L10.241,12" id="Stroke-193" stroke="#41767F" stroke-width="2" stroke-linecap="round" sketch:type="MSShapeGroup"></path>
            <path d="M44,30 L44,49.217 C44,51.06 43.703,52.892 43.12,54.64 L42.521,56.437 C42.21,57.37 41.336,58 40.352,58 L35.648,58 C34.664,58 33.79,57.37 33.479,56.437 L32.88,54.64 C32.297,52.892 32,51.06 32,49.217 L32,30" id="Fill-194" fill="#BDC3C7" sketch:type="MSShapeGroup"></path>
            <path d="M38,58 L38,40" id="Fill-195" fill="#BDC3C7" sketch:type="MSShapeGroup"></path>
            <path d="M44,42 C48.625,42 49,34.875 49,28 C49,23.415 44.308,21.197 40.543,20.306 C40.481,20.292 40.469,20.218 40.521,20.182 C42.004,19.141 43,17.21 43,15 C43,11.686 40.761,9 38,9 C35.239,9 33,11.686 33,15 C33,17.21 33.996,19.141 35.479,20.182 C35.531,20.218 35.519,20.292 35.457,20.306 C31.692,21.197 27,23.415 27,28 C27,34.875 27.375,42 32,42" id="Fill-196" fill="#BDC3C7" sketch:type="MSShapeGroup"></path>
            <path d="M0,30 L18,30 L18,41 L0,41 L0,30 Z" id="Fill-552" fill="#7F8C8D" sketch:type="MSShapeGroup"></path>
            <path d="M14,57 L14,45 C14,44.448 13.553,44 13,44 C12.447,44 12,44.448 12,45 L12,57 L14,57" id="Fill-553" fill="#BDC3C7" sketch:type="MSShapeGroup"></path>
            <path d="M10,57 L10,45 C10,44.448 9.553,44 9,44 C8.447,44 8,44.448 8,45 L8,57 L10,57" id="Fill-554" fill="#BDC3C7" sketch:type="MSShapeGroup"></path>
            <path d="M6,57 L6,45 C6,44.448 5.553,44 5,44 C4.447,44 4,44.448 4,45 L4,57 L6,57" id="Fill-555" fill="#BDC3C7" sketch:type="MSShapeGroup"></path>
        </g>
    </g>
</svg>