<?xml version="1.0" encoding="UTF-8" standalone="no"?>
<svg width="58px" height="58px" viewBox="0 0 58 58" version="1.1" xmlns="http://www.w3.org/2000/svg" xmlns:xlink="http://www.w3.org/1999/xlink" xmlns:sketch="http://www.bohemiancoding.com/sketch/ns">
    <!-- Generator: Sketch 3.2.2 (9983) - http://www.bohemiancoding.com/sketch -->
    <title>33 - Airport Check-Out (Flat)</title>
    <desc>Created with Sketch.</desc>
    <defs></defs>
    <g id="Page-1" stroke="none" stroke-width="1" fill="none" fill-rule="evenodd" sketch:type="MSPage">
        <g id="33---Airport-Check-Out-(Flat)" sketch:type="MSLayerGroup" transform="translate(0.000000, 1.000000)">
            <path d="M51,40.016 L51,10.017 C51,8.351 49.649,7 47.983,7.017 L10.017,7.017 C8.351,7 7,8.351 7,10.017 L7,40.017 L51,40.016" id="Fill-30" fill="#556080" sketch:type="MSShapeGroup"></path>
            <path d="M35,7.017 L35,6 C35,2.7 32.3,0 29,0 C25.7,0 23,2.7 23,6 L23,7.017" id="Stroke-211" stroke="#7F6E5D" stroke-width="2" stroke-linecap="round" sketch:type="MSShapeGroup"></path>
            <path d="M14,7.017 L20,7.017 L20,40.017 L14,40.017 L14,7.017 Z" id="Fill-212" fill="#9777A8" sketch:type="MSShapeGroup"></path>
            <path d="M38,7.017 L44,7.017 L44,40.017 L38,40.017 L38,7.017 Z" id="Fill-213" fill="#9777A8" sketch:type="MSShapeGroup"></path>
            <path d="M28,16.35 L28,7.017 C28,6.464 27.553,6.017 27,6.017 C26.447,6.017 26,6.464 26,7.017 L26,16.35 L24,19.017 L24,31.017 L30,31.017 L30,19.017 L28,16.35" id="Fill-214" fill="#FFFFFF" sketch:type="MSShapeGroup"></path>
            <path d="M52,40.017 L6,40.017 C2.7,40.017 0,42.717 0,46.017 C0,49.317 2.7,52.017 6,52.017 L52,52.017 C55.3,52.017 58,49.317 58,46.017 C58,42.717 55.3,40.017 52,40.017 L52,40.017 Z M52,49.017 L6,49.017 C4.346,49.017 3,47.671 3,46.017 C3,44.362 4.346,43.017 6,43.017 L52,43.017 C53.654,43.017 55,44.362 55,46.017 C55,47.671 53.654,49.017 52,49.017 L52,49.017 Z" id="Fill-215" fill="#546A79" sketch:type="MSShapeGroup"></path>
            <path d="M7,47.017 L7,47.017 C6.45,47.017 6,46.567 6,46.017 C6,45.467 6.45,45.017 7,45.017 C7.55,45.017 8,45.467 8,46.017 C8,46.567 7.55,47.017 7,47.017" id="Fill-216" fill="#38454F" sketch:type="MSShapeGroup"></path>
            <path d="M11,47.017 L11,47.017 C10.45,47.017 10,46.567 10,46.017 C10,45.467 10.45,45.017 11,45.017 C11.55,45.017 12,45.467 12,46.017 C12,46.567 11.55,47.017 11,47.017" id="Fill-217" fill="#38454F" sketch:type="MSShapeGroup"></path>
            <path d="M15,47.017 L15,47.017 C14.45,47.017 14,46.567 14,46.017 C14,45.467 14.45,45.017 15,45.017 C15.55,45.017 16,45.467 16,46.017 C16,46.567 15.55,47.017 15,47.017" id="Fill-218" fill="#38454F" sketch:type="MSShapeGroup"></path>
            <path d="M19,47.017 L19,47.017 C18.45,47.017 18,46.567 18,46.017 C18,45.467 18.45,45.017 19,45.017 C19.55,45.017 20,45.467 20,46.017 C20,46.567 19.55,47.017 19,47.017" id="Fill-219" fill="#38454F" sketch:type="MSShapeGroup"></path>
            <path d="M23,47.017 L23,47.017 C22.45,47.017 22,46.567 22,46.017 C22,45.467 22.45,45.017 23,45.017 C23.55,45.017 24,45.467 24,46.017 C24,46.567 23.55,47.017 23,47.017" id="Fill-220" fill="#38454F" sketch:type="MSShapeGroup"></path>
            <path d="M27,47.017 L27,47.017 C26.45,47.017 26,46.567 26,46.017 C26,45.467 26.45,45.017 27,45.017 C27.55,45.017 28,45.467 28,46.017 C28,46.567 27.55,47.017 27,47.017" id="Fill-221" fill="#38454F" sketch:type="MSShapeGroup"></path>
            <path d="M31,47.017 L31,47.017 C30.45,47.017 30,46.567 30,46.017 C30,45.467 30.45,45.017 31,45.017 C31.55,45.017 32,45.467 32,46.017 C32,46.567 31.55,47.017 31,47.017" id="Fill-222" fill="#38454F" sketch:type="MSShapeGroup"></path>
            <path d="M35,47.017 L35,47.017 C34.45,47.017 34,46.567 34,46.017 C34,45.467 34.45,45.017 35,45.017 C35.55,45.017 36,45.467 36,46.017 C36,46.567 35.55,47.017 35,47.017" id="Fill-223" fill="#38454F" sketch:type="MSShapeGroup"></path>
            <path d="M39,47.017 L39,47.017 C38.45,47.017 38,46.567 38,46.017 C38,45.467 38.45,45.017 39,45.017 C39.55,45.017 40,45.467 40,46.017 C40,46.567 39.55,47.017 39,47.017" id="Fill-224" fill="#38454F" sketch:type="MSShapeGroup"></path>
            <path d="M43,47.017 L43,47.017 C42.45,47.017 42,46.567 42,46.017 C42,45.467 42.45,45.017 43,45.017 C43.55,45.017 44,45.467 44,46.017 C44,46.567 43.55,47.017 43,47.017" id="Fill-225" fill="#38454F" sketch:type="MSShapeGroup"></path>
            <path d="M47,47.017 L47,47.017 C46.45,47.017 46,46.567 46,46.017 C46,45.467 46.45,45.017 47,45.017 C47.55,45.017 48,45.467 48,46.017 C48,46.567 47.55,47.017 47,47.017" id="Fill-226" fill="#38454F" sketch:type="MSShapeGroup"></path>
            <path d="M51,47.017 L51,47.017 C50.45,47.017 50,46.567 50,46.017 C50,45.467 50.45,45.017 51,45.017 C51.55,45.017 52,45.467 52,46.017 C52,46.567 51.55,47.017 51,47.017" id="Fill-227" fill="#38454F" sketch:type="MSShapeGroup"></path>
            <path d="M7,52 L10,52 L10,57 L7,57 L7,52 Z" id="Fill-228" fill="#BDC3C7" sketch:type="MSShapeGroup"></path>
            <path d="M48,52 L51,52 L51,57 L48,57 L48,52 Z" id="Fill-229" fill="#BDC3C7" sketch:type="MSShapeGroup"></path>
        </g>
    </g>
</svg>