<?xml version="1.0" encoding="UTF-8" standalone="no"?>
<svg width="58px" height="60px" viewBox="0 0 58 60" version="1.1" xmlns="http://www.w3.org/2000/svg" xmlns:xlink="http://www.w3.org/1999/xlink" xmlns:sketch="http://www.bohemiancoding.com/sketch/ns">
    <!-- Generator: Sketch 3.2.2 (9983) - http://www.bohemiancoding.com/sketch -->
    <title>34 - Airport Waiting Area (Flat)</title>
    <desc>Created with Sketch.</desc>
    <defs></defs>
    <g id="Page-1" stroke="none" stroke-width="1" fill="none" fill-rule="evenodd" sketch:type="MSPage">
        <g id="34---Airport-Waiting-Area-(Flat)" sketch:type="MSLayerGroup">
            <path d="M7,49 L9,49 L9,55 L7,55 L7,49 Z" id="Fill-197" fill="#95A5A5" sketch:type="MSShapeGroup"></path>
            <path d="M6,55 L10,55 L10,59 L6,59 L6,55 Z" id="Fill-198" fill="#95A5A5" sketch:type="MSShapeGroup"></path>
            <path d="M5,54 L11,54 L11,60 L5,60 L5,54 Z M7,58 L9,58 L9,56 L7,56 L7,58 Z" id="Fill-199" fill="#BDC3C7" sketch:type="MSShapeGroup"></path>
            <path d="M49,49 L51,49 L51,55 L49,55 L49,49 Z" id="Fill-200" fill="#95A5A5" sketch:type="MSShapeGroup"></path>
            <path d="M48,55 L52,55 L52,59 L48,59 L48,55 Z" id="Fill-201" fill="#95A5A5" sketch:type="MSShapeGroup"></path>
            <path d="M47,54 L53,54 L53,60 L47,60 L47,54 Z M49,58 L51,58 L51,56 L49,56 L49,58 Z" id="Fill-202" fill="#BDC3C7" sketch:type="MSShapeGroup"></path>
            <path d="M55,44 L55,45 C55,46.654 53.654,48 52,48 L49,48 L49,45 L47,45 L47,48 L39,48 L39,45 L37,45 L37,48 L35,48 L35,45 L33,45 L33,48 L25,48 L25,45 L23,45 L23,48 L21,48 L21,45 L19,45 L19,48 L11,48 L11,45 L9,45 L9,48 L6,48 C4.346,48 3,46.654 3,45 L3,44 L1,44 L1,45 C1,47.757 3.243,50 6,50 L52,50 C54.757,50 57,47.757 57,45 L57,44 L55,44" id="Fill-203" fill="#BDC3C7" sketch:type="MSShapeGroup"></path>
            <path d="M2,3 L18,3 L18,14 L2,14 L2,3 Z" id="Fill-204" fill="#13A085" sketch:type="MSShapeGroup"></path>
            <path d="M5,0 L5,3 M15,0 L15,3" id="Stroke-205" stroke="#95A5A5" stroke-width="2" sketch:type="MSShapeGroup"></path>
            <path d="M40,3 L56,3 L56,14 L40,14 L40,3 Z" id="Fill-206" fill="#556080" sketch:type="MSShapeGroup"></path>
            <path d="M42,0 L44,0 L44,3 L42,3 L42,0 Z" id="Fill-207" fill="#7F8C8D" sketch:type="MSShapeGroup"></path>
            <path d="M52,0 L54,0 L54,3 L52,3 L52,0 Z" id="Fill-208" fill="#7F8C8D" sketch:type="MSShapeGroup"></path>
            <path d="M13.707,8.293 L10,4.586 L6.293,8.293 L7.707,9.707 L9,8.414 L9,12 L11,12 L11,8.414 L12.293,9.707 L13.707,8.293" id="Fill-209" fill="#FFFFFF" sketch:type="MSShapeGroup"></path>
            <path d="M50.293,7.293 L49,8.586 L49,5 L47,5 L47,8.586 L45.707,7.293 L44.293,8.707 L48,12.414 L51.707,8.707 L50.293,7.293" id="Fill-210" fill="#FFFFFF" sketch:type="MSShapeGroup"></path>
            <path d="M2,58 L14,58 L14,60 L2,60 L2,58 Z" id="Fill-471" fill="#BDC3C7" sketch:type="MSShapeGroup"></path>
            <path d="M44,58 L56,58 L56,60 L44,60 L44,58 Z" id="Fill-472" fill="#BDC3C7" sketch:type="MSShapeGroup"></path>
            <path d="M15,24 C11.134,24 8,27.134 8,31 L8,45 L22,45 L22,31 C22,27.134 18.866,24 15,24 L15,24 Z M12,33 C11.448,33 11,32.552 11,32 C11,31.448 11.448,31 12,31 C12.552,31 13,31.448 13,32 C13,32.552 12.552,33 12,33 L12,33 Z M15,36 C14.448,36 14,35.552 14,35 C14,34.448 14.448,34 15,34 C15.552,34 16,34.448 16,35 C16,35.552 15.552,36 15,36 L15,36 Z M15,30 C14.448,30 14,29.552 14,29 C14,28.448 14.448,28 15,28 C15.552,28 16,28.448 16,29 C16,29.552 15.552,30 15,30 L15,30 Z M18,33 C17.448,33 17,32.552 17,32 C17,31.448 17.448,31 18,31 C18.552,31 19,31.448 19,32 C19,32.552 18.552,33 18,33 L18,33 Z" id="Fill-556" fill="#546A79" sketch:type="MSShapeGroup"></path>
            <path d="M29,24 C25.134,24 22,27.134 22,31 L22,45 L36,45 L36,31 C36,27.134 32.866,24 29,24 L29,24 Z M26,33 C25.448,33 25,32.552 25,32 C25,31.448 25.448,31 26,31 C26.552,31 27,31.448 27,32 C27,32.552 26.552,33 26,33 L26,33 Z M29,36 C28.448,36 28,35.552 28,35 C28,34.448 28.448,34 29,34 C29.552,34 30,34.448 30,35 C30,35.552 29.552,36 29,36 L29,36 Z M29,30 C28.448,30 28,29.552 28,29 C28,28.448 28.448,28 29,28 C29.552,28 30,28.448 30,29 C30,29.552 29.552,30 29,30 L29,30 Z M32,33 C31.448,33 31,32.552 31,32 C31,31.448 31.448,31 32,31 C32.552,31 33,31.448 33,32 C33,32.552 32.552,33 32,33 L32,33 Z" id="Fill-557" fill="#38454F" sketch:type="MSShapeGroup"></path>
            <path d="M43,24 C39.134,24 36,27.134 36,31 L36,45 L50,45 L50,31 C50,27.134 46.866,24 43,24 L43,24 Z M40,33 C39.448,33 39,32.552 39,32 C39,31.448 39.448,31 40,31 C40.552,31 41,31.448 41,32 C41,32.552 40.552,33 40,33 L40,33 Z M43,36 C42.448,36 42,35.552 42,35 C42,34.448 42.448,34 43,34 C43.552,34 44,34.448 44,35 C44,35.552 43.552,36 43,36 L43,36 Z M43,30 C42.448,30 42,29.552 42,29 C42,28.448 42.448,28 43,28 C43.552,28 44,28.448 44,29 C44,29.552 43.552,30 43,30 L43,30 Z M46,33 C45.448,33 45,32.552 45,32 C45,31.448 45.448,31 46,31 C46.552,31 47,31.448 47,32 C47,32.552 46.552,33 46,33 L46,33 Z" id="Fill-558" fill="#546A79" sketch:type="MSShapeGroup"></path>
            <path d="M8,45 C8,43.067 11.134,41 15,41 C18.866,41 22,43.067 22,45 L8,45" id="Fill-559" fill="#38454F" sketch:type="MSShapeGroup"></path>
            <path d="M22,45 C22,43.067 25.134,41 29,41 C32.866,41 36,43.067 36,45 L22,45" id="Fill-560" fill="#546A79" sketch:type="MSShapeGroup"></path>
            <path d="M36,45 C36,43.067 39.134,41 43,41 C46.866,41 50,43.067 50,45 L36,45" id="Fill-561" fill="#38454F" sketch:type="MSShapeGroup"></path>
            <path d="M2,44 L2,44 C0.9,44 0,43.1 0,42 L0,40 C0,38.9 0.9,38 2,38 C3.1,38 4,38.9 4,40 L4,42 C4,43.1 3.1,44 2,44" id="Fill-562" fill="#556080" sketch:type="MSShapeGroup"></path>
            <path d="M56,44 L56,44 C57.1,44 58,43.1 58,42 L58,41 C58,39.9 57.1,39 56,39 C54.9,39 54,39.9 54,41 L54,42 C54,43.1 54.9,44 56,44" id="Fill-563" fill="#556080" sketch:type="MSShapeGroup"></path>
        </g>
    </g>
</svg>