<?xml version="1.0" encoding="UTF-8" standalone="no"?>
<svg width="60px" height="59px" viewBox="0 0 60 59" version="1.1" xmlns="http://www.w3.org/2000/svg" xmlns:xlink="http://www.w3.org/1999/xlink" xmlns:sketch="http://www.bohemiancoding.com/sketch/ns">
    <!-- Generator: Sketch 3.2.2 (9983) - http://www.bohemiancoding.com/sketch -->
    <title>14 - Beach Volley (Flat)</title>
    <desc>Created with Sketch.</desc>
    <defs></defs>
    <g id="Page-1" stroke="none" stroke-width="1" fill="none" fill-rule="evenodd" sketch:type="MSPage">
        <g id="14---Beach-Volley-(Flat)" sketch:type="MSLayerGroup" transform="translate(1.000000, 0.000000)">
            <path d="M5,53 L53,53 L53,59 L5,59 L5,53 Z" id="Fill-6" fill="#F4E6CE" sketch:type="MSShapeGroup"></path>
            <path d="M12,55 C12,55.552 11.552,56 11,56 C10.448,56 10,55.552 10,55 C10,54.448 10.448,54 11,54 C11.552,54 12,54.448 12,55" id="Fill-80" fill="#FBD490" sketch:type="MSShapeGroup"></path>
            <path d="M18,55 C18,55.552 17.552,56 17,56 C16.448,56 16,55.552 16,55 C16,54.448 16.448,54 17,54 C17.552,54 18,54.448 18,55" id="Fill-81" fill="#FBD490" sketch:type="MSShapeGroup"></path>
            <path d="M15,58 C15,58.552 14.552,59 14,59 C13.448,59 13,58.552 13,58 C13,57.448 13.448,57 14,57 C14.552,57 15,57.448 15,58" id="Fill-82" fill="#FBD490" sketch:type="MSShapeGroup"></path>
            <path d="M21,58 C21,58.552 20.552,59 20,59 C19.448,59 19,58.552 19,58 C19,57.448 19.448,57 20,57 C20.552,57 21,57.448 21,58" id="Fill-83" fill="#FBD490" sketch:type="MSShapeGroup"></path>
            <path d="M24,55 C24,55.552 23.552,56 23,56 C22.448,56 22,55.552 22,55 C22,54.448 22.448,54 23,54 C23.552,54 24,54.448 24,55" id="Fill-84" fill="#FBD490" sketch:type="MSShapeGroup"></path>
            <path d="M30,55 C30,55.552 29.552,56 29,56 C28.448,56 28,55.552 28,55 C28,54.448 28.448,54 29,54 C29.552,54 30,54.448 30,55" id="Fill-85" fill="#FBD490" sketch:type="MSShapeGroup"></path>
            <path d="M27,58 C27,58.552 26.552,59 26,59 C25.448,59 25,58.552 25,58 C25,57.448 25.448,57 26,57 C26.552,57 27,57.448 27,58" id="Fill-86" fill="#FBD490" sketch:type="MSShapeGroup"></path>
            <path d="M33,58 C33,58.552 32.552,59 32,59 C31.448,59 31,58.552 31,58 C31,57.448 31.448,57 32,57 C32.552,57 33,57.448 33,58" id="Fill-87" fill="#FBD490" sketch:type="MSShapeGroup"></path>
            <path d="M36,55 C36,55.552 35.552,56 35,56 C34.448,56 34,55.552 34,55 C34,54.448 34.448,54 35,54 C35.552,54 36,54.448 36,55" id="Fill-88" fill="#FBD490" sketch:type="MSShapeGroup"></path>
            <path d="M42,55 C42,55.552 41.552,56 41,56 C40.448,56 40,55.552 40,55 C40,54.448 40.448,54 41,54 C41.552,54 42,54.448 42,55" id="Fill-89" fill="#FBD490" sketch:type="MSShapeGroup"></path>
            <path d="M39,58 C39,58.552 38.552,59 38,59 C37.448,59 37,58.552 37,58 C37,57.448 37.448,57 38,57 C38.552,57 39,57.448 39,58" id="Fill-90" fill="#FBD490" sketch:type="MSShapeGroup"></path>
            <path d="M45,58 C45,58.552 44.552,59 44,59 C43.448,59 43,58.552 43,58 C43,57.448 43.448,57 44,57 C44.552,57 45,57.448 45,58" id="Fill-91" fill="#FBD490" sketch:type="MSShapeGroup"></path>
            <path d="M48,55 C48,55.552 47.552,56 47,56 C46.448,56 46,55.552 46,55 C46,54.448 46.448,54 47,54 C47.552,54 48,54.448 48,55" id="Fill-92" fill="#FBD490" sketch:type="MSShapeGroup"></path>
            <path d="M18,14 C15.243,14 13,11.757 13,9 C13,6.243 15.243,4 18,4 C20.757,4 23,6.243 23,9 C23,11.757 20.757,14 18,14" id="Fill-93" fill="#F29C1F" sketch:type="MSShapeGroup"></path>
            <path d="M18,15 C14.691,15 12,12.309 12,9 C12,5.691 14.691,3 18,3 C21.309,3 24,5.691 24,9 C24,12.309 21.309,15 18,15 L18,15 Z M18,5 C15.794,5 14,6.794 14,9 C14,11.206 15.794,13 18,13 C20.206,13 22,11.206 22,9 C22,6.794 20.206,5 18,5 L18,5 Z" id="Fill-94" fill="#F0C419" sketch:type="MSShapeGroup"></path>
            <path d="M18,18 C17.447,18 17,17.553 17,17 L17,14 C17,13.447 17.447,13 18,13 C18.553,13 19,13.447 19,14 L19,17 C19,17.553 18.553,18 18,18" id="Fill-95" fill="#F0C419" sketch:type="MSShapeGroup"></path>
            <path d="M18,5 C17.447,5 17,4.553 17,4 L17,1 C17,0.447 17.447,0 18,0 C18.553,0 19,0.447 19,1 L19,4 C19,4.553 18.553,5 18,5" id="Fill-96" fill="#F0C419" sketch:type="MSShapeGroup"></path>
            <path d="M26,10 L23,10 C22.447,10 22,9.553 22,9 C22,8.447 22.447,8 23,8 L26,8 C26.553,8 27,8.447 27,9 C27,9.553 26.553,10 26,10" id="Fill-97" fill="#F0C419" sketch:type="MSShapeGroup"></path>
            <path d="M13,10 L10,10 C9.447,10 9,9.553 9,9 C9,8.447 9.447,8 10,8 L13,8 C13.553,8 14,8.447 14,9 C14,9.553 13.553,10 13,10" id="Fill-98" fill="#F0C419" sketch:type="MSShapeGroup"></path>
            <path d="M23.657,15.657 C23.401,15.657 23.146,15.56 22.95,15.364 L20.828,13.242 C20.437,12.852 20.437,12.219 20.828,11.828 C21.219,11.438 21.852,11.438 22.242,11.828 L24.364,13.95 C24.755,14.341 24.755,14.974 24.364,15.364 C24.169,15.56 23.913,15.657 23.657,15.657" id="Fill-99" fill="#F0C419" sketch:type="MSShapeGroup"></path>
            <path d="M14.465,6.465 C14.209,6.465 13.953,6.367 13.758,6.172 L11.636,4.05 C11.245,3.659 11.245,3.026 11.636,2.636 C12.026,2.245 12.659,2.245 13.05,2.636 L15.172,4.758 C15.562,5.148 15.562,5.781 15.172,6.172 C14.977,6.367 14.721,6.465 14.465,6.465" id="Fill-100" fill="#F0C419" sketch:type="MSShapeGroup"></path>
            <path d="M21.535,6.465 C21.279,6.465 21.023,6.367 20.828,6.172 C20.437,5.781 20.437,5.148 20.828,4.758 L22.95,2.636 C23.341,2.245 23.974,2.245 24.364,2.636 C24.755,3.026 24.755,3.659 24.364,4.05 L22.242,6.172 C22.047,6.367 21.791,6.465 21.535,6.465" id="Fill-101" fill="#F0C419" sketch:type="MSShapeGroup"></path>
            <path d="M12.343,15.657 C12.087,15.657 11.831,15.56 11.636,15.364 C11.245,14.974 11.245,14.341 11.636,13.95 L13.758,11.828 C14.148,11.438 14.781,11.438 15.172,11.828 C15.562,12.219 15.562,12.852 15.172,13.242 L13.05,15.364 C12.854,15.56 12.599,15.657 12.343,15.657" id="Fill-102" fill="#F0C419" sketch:type="MSShapeGroup"></path>
            <path d="M0,54 L4,54 L4,58 L0,58 L0,54 Z" id="Fill-103" fill="#F4E6CE" sketch:type="MSShapeGroup"></path>
            <path d="M0,54 L4,54 L4,58 L0,58 L0,54 Z" id="Stroke-104" stroke="#95A5A5" stroke-width="2" sketch:type="MSShapeGroup"></path>
            <path d="M5,23 L53,23 L53,39 L5,39 L5,23 Z M5,23 L13,23 L13,31 L5,31 L5,23 Z M5,31 L13,31 L13,39 L5,39 L5,31 Z M13,23 L21,23 L21,31 L13,31 L13,23 Z M13,31 L21,31 L21,39 L13,39 L13,31 Z M21,23 L29,23 L29,31 L21,31 L21,23 Z M21,31 L29,31 L29,39 L21,39 L21,31 Z M29,23 L37,23 L37,31 L29,31 L29,23 Z M29,31 L37,31 L37,39 L29,39 L29,31 Z M37,23 L45,23 L45,31 L37,31 L37,23 Z M37,31 L45,31 L45,39 L37,39 L37,31 Z M45,23 L53,23 L53,31 L45,31 L45,23 Z M45,31 L53,31 L53,39 L45,39 L45,31 Z" id="Stroke-105" stroke="#BDC3C7" stroke-width="2" sketch:type="MSShapeGroup"></path>
            <path d="M2,54 L2,19" id="Stroke-106" stroke="#95A5A5" stroke-width="2" sketch:type="MSShapeGroup"></path>
            <path d="M54,54 L58,54 L58,58 L54,58 L54,54 Z" id="Fill-107" fill="#F4E6CE" sketch:type="MSShapeGroup"></path>
            <path d="M54,54 L58,54 L58,58 L54,58 L54,54 Z" id="Stroke-108" stroke="#95A5A5" stroke-width="2" sketch:type="MSShapeGroup"></path>
            <path d="M56,54 L56,19" id="Stroke-109" stroke="#95A5A5" stroke-width="2" sketch:type="MSShapeGroup"></path>
            <path d="M2,25 L5,25 M2,37 L5,37 M53,25 L56,25 M53,37 L56,37" id="Stroke-110" stroke="#BDC3C7" stroke-width="2" sketch:type="MSShapeGroup"></path>
        </g>
    </g>
</svg>