<?xml version="1.0" encoding="UTF-8" standalone="no"?>
<svg width="57px" height="59px" viewBox="0 0 57 59" version="1.1" xmlns="http://www.w3.org/2000/svg" xmlns:xlink="http://www.w3.org/1999/xlink" xmlns:sketch="http://www.bohemiancoding.com/sketch/ns">
    <!-- Generator: Sketch 3.2.2 (9983) - http://www.bohemiancoding.com/sketch -->
    <title>19 - Beach Bag (Flat)</title>
    <desc>Created with Sketch.</desc>
    <defs></defs>
    <g id="Page-1" stroke="none" stroke-width="1" fill="none" fill-rule="evenodd" sketch:type="MSPage">
        <g id="19---Beach-Bag-(Flat)" sketch:type="MSLayerGroup" transform="translate(-1.000000, 1.000000)">
            <path d="M16.045,20 L16.045,13.091 C16.045,5.872 21.918,0 29.136,0 C36.254,0 42.045,5.791 42.045,12.909 L42.045,20" id="Stroke-317" stroke="#7F8C8D" stroke-width="2" sketch:type="MSShapeGroup"></path>
            <path d="M56.111,20 L39.045,20 C39.045,25.497 34.542,29.952 29.045,29.952 C23.549,29.952 19.045,25.497 19.045,20 L1.98,20 C1.368,20 0.906,20.554 1.016,21.155 L7.336,55.81 C7.61,57.087 8.739,58 10.045,58 L48.045,58 C49.352,58 50.481,57.087 50.754,55.81 L57.074,21.155 C57.184,20.554 56.722,20 56.111,20" id="Fill-318" fill="#26B99A" sketch:type="MSShapeGroup"></path>
            <path d="M36.045,44 C36.045,47.866 32.911,51 29.045,51 C25.179,51 22.045,47.866 22.045,44 C22.045,40.134 25.179,37 29.045,37 C32.911,37 36.045,40.134 36.045,44 L36.045,44 Z M29.045,37 L29.045,34 L29.045,37 Z M29.045,54 L29.045,51 L29.045,54 Z M36.045,44 L39.045,44 L36.045,44 Z M19.045,44 L22.045,44 L19.045,44 Z M24.095,39.05 L21.974,36.929 L24.095,39.05 Z M36.116,51.071 L33.995,48.95 L36.116,51.071 Z M33.995,39.05 L36.116,36.929 L33.995,39.05 Z M21.974,51.071 L24.095,48.95 L21.974,51.071 Z" id="Stroke-319" stroke="#EDE71B" stroke-width="2" stroke-linecap="round" stroke-linejoin="round" sketch:type="MSShapeGroup"></path>
            <path d="M16.045,26.5 C16.045,27.881 14.926,29 13.545,29 C12.165,29 11.045,27.881 11.045,26.5 C11.045,25.119 12.165,24 13.545,24 C14.926,24 16.045,25.119 16.045,26.5 L16.045,26.5 Z M47.045,26.5 C47.045,27.881 45.926,29 44.545,29 C43.165,29 42.045,27.881 42.045,26.5 C42.045,25.119 43.165,24 44.545,24 C45.926,24 47.045,25.119 47.045,26.5 L47.045,26.5 Z" id="Stroke-320" stroke="#ECF0F1" stroke-width="2" sketch:type="MSShapeGroup"></path>
        </g>
    </g>
</svg>