<?xml version="1.0" encoding="UTF-8" standalone="no"?>
<svg width="55px" height="59px" viewBox="0 0 55 59" version="1.1" xmlns="http://www.w3.org/2000/svg" xmlns:xlink="http://www.w3.org/1999/xlink" xmlns:sketch="http://www.bohemiancoding.com/sketch/ns">
    <!-- Generator: Sketch 3.2.2 (9983) - http://www.bohemiancoding.com/sketch -->
    <title>49 - Cocktail (Flat)</title>
    <desc>Created with Sketch.</desc>
    <defs></defs>
    <g id="Page-1" stroke="none" stroke-width="1" fill="none" fill-rule="evenodd" sketch:type="MSPage">
        <g id="49---Cocktail-(Flat)" sketch:type="MSLayerGroup">
            <path d="M47.001,22.865 L46.965,22.865 C46.595,28.493 37.811,33 27,33 C16.189,33 7.404,28.493 7.035,22.865 L6.999,22.865 C5.716,26.102 5,29.704 5,33.5 C5,47.583 14.85,59 27,59 C39.15,59 49,47.583 49,33.5 C49,29.704 48.284,26.102 47.001,22.865" id="Fill-45" fill="#7F6E5D" sketch:type="MSShapeGroup"></path>
            <path d="M12,38 C12,45.738 18.262,52 26,52" id="Stroke-46" stroke="#CBB292" stroke-width="2" stroke-linecap="round" sketch:type="MSShapeGroup"></path>
            <path d="M34.281,14.659 C32.023,14.239 29.572,14 27,14 C15.954,14 7,18.253 7,23.5 C7,28.747 15.954,33 27,33 C38.046,33 47,28.747 47,23.5 C47,20.251 43.561,17.385 38.323,15.672" id="Fill-47" fill="#CBB292" sketch:type="MSShapeGroup"></path>
            <path d="M18,23 C18,23.552 17.552,24 17,24 C16.448,24 16,23.552 16,23 C16,22.448 16.448,22 17,22 C17.552,22 18,22.448 18,23 L18,23 Z" id="Fill-48" fill="#070707" sketch:type="MSShapeGroup"></path>
            <path d="M18,23 C18,23.552 17.552,24 17,24 C16.448,24 16,23.552 16,23 C16,22.448 16.448,22 17,22 C17.552,22 18,22.448 18,23 L18,23 Z" id="Stroke-49" stroke="#0096E6" sketch:type="MSShapeGroup"></path>
            <path d="M32.121,18.345 C30.569,18.13 28.865,18 27,18 C16.607,18 11,21.904 11,23.5 C11,25.096 16.607,29 27,29 C37.393,29 43,25.096 43,23.5 C43,22.473 40.668,20.496 36.247,19.213 L32.121,18.345" id="Fill-473" fill="#F4E6CE" sketch:type="MSShapeGroup"></path>
            <path d="M22,23 C22,23.552 21.552,24 21,24 C20.448,24 20,23.552 20,23 C20,22.448 20.448,22 21,22 C21.552,22 22,22.448 22,23" id="Fill-474" fill="#CBB292" sketch:type="MSShapeGroup"></path>
            <path d="M25,25 C25,25.552 24.552,26 24,26 C23.448,26 23,25.552 23,25 C23,24.448 23.448,24 24,24 C24.552,24 25,24.448 25,25" id="Fill-475" fill="#CBB292" sketch:type="MSShapeGroup"></path>
            <path d="M26,21 C26,21.552 25.552,22 25,22 C24.448,22 24,21.552 24,21 C24,20.448 24.448,20 25,20 C25.552,20 26,20.448 26,21" id="Fill-476" fill="#CBB292" sketch:type="MSShapeGroup"></path>
            <path d="M10.646,10.418 L17,23" id="Stroke-477" stroke="#7F6E5D" stroke-width="2" stroke-linecap="round" stroke-linejoin="round" sketch:type="MSShapeGroup"></path>
            <path d="M30.973,26.254 C30.643,26.254 30.309,26.172 30,26 C29.036,25.461 28.69,24.243 29.229,23.279 L40.225,4.519 C41.044,3.107 42.413,2.196 43.998,1.989 C45.581,1.778 47.141,2.312 48.271,3.443 L54.414,9.585 C55.195,10.366 55.195,11.633 54.414,12.414 C53.634,13.195 52.366,13.195 51.586,12.414 L45.443,6.271 C45.107,5.936 44.721,5.927 44.516,5.956 C44.313,5.982 43.939,6.087 43.701,6.498 L32.721,25.229 C32.355,25.885 31.674,26.254 30.973,26.254" id="Fill-482" fill="#A4E869" sketch:type="MSShapeGroup"></path>
            <path d="M2.274,15.252 C1.722,14.295 2.468,12.831 3.584,12.186 C4.7,11.542 6.052,11.795 6.604,12.752 C6.052,11.795 6.509,10.497 7.625,9.853 C8.741,9.208 10.094,9.462 10.646,10.418 C10.094,9.462 10.551,8.164 11.667,7.52 C12.783,6.875 14.135,7.128 14.687,8.085 C14.135,7.128 14.592,5.831 15.708,5.186 C16.824,4.542 18.176,4.795 18.729,5.752 C16.105,1.208 10.295,-0.349 5.752,2.274 C1.208,4.898 -0.349,10.708 2.274,15.252 L2.274,15.252 Z" id="Fill-483" fill="#F0C419" sketch:type="MSShapeGroup"></path>
            <path d="M2.274,15.252 C1.722,14.295 2.468,12.831 3.584,12.186 C4.7,11.542 6.052,11.795 6.604,12.752 C6.052,11.795 6.509,10.497 7.625,9.853 C8.741,9.208 10.094,9.462 10.646,10.418 C10.094,9.462 10.551,8.164 11.667,7.52 C12.783,6.875 14.135,7.128 14.687,8.085 C14.135,7.128 14.592,5.831 15.708,5.186 C16.824,4.542 18.176,4.795 18.729,5.752 C16.105,1.208 10.295,-0.349 5.752,2.274 C1.208,4.898 -0.349,10.708 2.274,15.252 L2.274,15.252 Z" id="Stroke-484" stroke="#F0C419" stroke-width="2" stroke-linecap="round" stroke-linejoin="round" sketch:type="MSShapeGroup"></path>
        </g>
    </g>
</svg>