<?xml version="1.0" encoding="UTF-8" standalone="no"?>
<svg width="56px" height="59px" viewBox="0 0 56 59" version="1.1" xmlns="http://www.w3.org/2000/svg" xmlns:xlink="http://www.w3.org/1999/xlink" xmlns:sketch="http://www.bohemiancoding.com/sketch/ns">
    <!-- Generator: Sketch 3.2.2 (9983) - http://www.bohemiancoding.com/sketch -->
    <title>43 - Cruise (Flat)</title>
    <desc>Created with Sketch.</desc>
    <defs></defs>
    <g id="Page-1" stroke="none" stroke-width="1" fill="none" fill-rule="evenodd" sketch:type="MSPage">
        <g id="43---Cruise-(Flat)" sketch:type="MSLayerGroup">
            <path d="M28.698,21.113 L5,30 C5,30 3.583,39 15,50 L43,50 C54.417,39 53,30 53,30 L29.302,21.113 C29.107,21.04 28.893,21.04 28.698,21.113" id="Fill-403" fill="#E6E7E8" sketch:type="MSShapeGroup"></path>
            <path d="M34,13 L24,13 L24,2.198 C24,0.984 24.984,0 26.198,0 L31.802,0 C33.016,0 34,0.984 34,2.198 L34,13" id="Fill-404" fill="#285680" sketch:type="MSShapeGroup"></path>
            <path d="M28.698,21.113 C28.893,21.04 29.107,21.04 29.302,21.113 L48,28.125 L48,14.876 C48,13.84 47.16,13 46.124,13 L11.876,13 C10.84,13 10,13.84 10,14.876 L10,28.125 L28.698,21.113" id="Fill-533" fill="#95A5A5" sketch:type="MSShapeGroup"></path>
            <path d="M42,18 L40,18 C39.447,18 39,17.552 39,17 C39,16.448 39.447,16 40,16 L42,16 C42.553,16 43,16.448 43,17 C43,17.552 42.553,18 42,18 L42,18 Z M37,18 L35,18 C34.447,18 34,17.552 34,17 C34,16.448 34.447,16 35,16 L37,16 C37.553,16 38,16.448 38,17 C38,17.552 37.553,18 37,18 L37,18 Z M32,18 L30,18 C29.447,18 29,17.552 29,17 C29,16.448 29.447,16 30,16 L32,16 C32.553,16 33,16.448 33,17 C33,17.552 32.553,18 32,18 L32,18 Z M27,18 L25,18 C24.447,18 24,17.552 24,17 C24,16.448 24.447,16 25,16 L27,16 C27.553,16 28,16.448 28,17 C28,17.552 27.553,18 27,18 L27,18 Z M22,18 L20,18 C19.447,18 19,17.552 19,17 C19,16.448 19.447,16 20,16 L22,16 C22.553,16 23,16.448 23,17 C23,17.552 22.553,18 22,18 L22,18 Z M17,18 L15,18 C14.447,18 14,17.552 14,17 C14,16.448 14.447,16 15,16 L17,16 C17.553,16 18,16.448 18,17 C18,17.552 17.553,18 17,18 L17,18 Z" id="Fill-534" fill="#FFFFFF" sketch:type="MSShapeGroup"></path>
            <path d="M28.698,21.113 L5,30 C5,30 3.583,39 15,50 L29,50 L29,21.059 C28.898,21.059 28.795,21.077 28.698,21.113" id="Fill-535" fill="#BDC3C7" sketch:type="MSShapeGroup"></path>
            <path d="M10,33 L29,26 L47,33" id="Stroke-536" stroke="#FFFFFF" stroke-width="2" stroke-linecap="round" sketch:type="MSShapeGroup"></path>
            <path d="M37,50 L21,50 L22.856,37.008 C22.939,36.43 23.434,36 24.018,36 L33.982,36 C34.566,36 35.061,36.43 35.144,37.008 L37,50" id="Fill-537" fill="#4482C3" sketch:type="MSShapeGroup"></path>
            <path d="M31.802,0 L29,0 L29,13 L34,13 L34,2.198 C34,0.984 33.016,0 31.802,0" id="Fill-538" fill="#457BA3" sketch:type="MSShapeGroup"></path>
            <path d="M29,36 L24.018,36 C23.434,36 22.939,36.43 22.856,37.008 L21,50 L29,50 L29,36" id="Fill-539" fill="#35495E" sketch:type="MSShapeGroup"></path>
            <path d="M55,49 L1,49 C0.447,49 0,49.448 0,50 C0,50.552 0.447,51 1,51 L55,51 C55.553,51 56,50.552 56,50 C56,49.448 55.553,49 55,49" id="Fill-540" fill="#285680" sketch:type="MSShapeGroup"></path>
            <path d="M44,53 L15,53 C14.447,53 14,53.448 14,54 C14,54.552 14.447,55 15,55 L44,55 C44.553,55 45,54.552 45,54 C45,53.448 44.553,53 44,53" id="Fill-541" fill="#285680" sketch:type="MSShapeGroup"></path>
            <path d="M36,57 L22,57 C21.447,57 21,57.448 21,58 C21,58.552 21.447,59 22,59 L36,59 C36.553,59 37,58.552 37,58 C37,57.448 36.553,57 36,57" id="Fill-542" fill="#285680" sketch:type="MSShapeGroup"></path>
        </g>
    </g>
</svg>