<?xml version="1.0" encoding="UTF-8" standalone="no"?>
<svg width="58px" height="58px" viewBox="0 0 58 58" version="1.1" xmlns="http://www.w3.org/2000/svg" xmlns:xlink="http://www.w3.org/1999/xlink" xmlns:sketch="http://www.bohemiancoding.com/sketch/ns">
    <!-- Generator: Sketch 3.2.2 (9983) - http://www.bohemiancoding.com/sketch -->
    <title>10 - Deep Diving Gear (Flat)</title>
    <desc>Created with Sketch.</desc>
    <defs></defs>
    <g id="Page-1" stroke="none" stroke-width="1" fill="none" fill-rule="evenodd" sketch:type="MSPage">
        <g id="10---Deep-Diving-Gear-(Flat)" sketch:type="MSLayerGroup">
            <path d="M13.702,58 L44.298,58 C47.9,58 51.414,56.617 53.885,53.996 C53.899,53.981 53.913,53.966 53.927,53.951 L43.912,44.548 C39.746,47.343 34.584,49 29,49 C23.416,49 18.254,47.343 14.088,44.548 L4.073,53.951 C4.087,53.966 4.101,53.981 4.115,53.996 C6.586,56.617 10.1,58 13.702,58" id="Fill-5" fill="#38454F" sketch:type="MSShapeGroup"></path>
            <path d="M29,49 C15.215,49 4,38.906 4,26.5 C4,14.094 15.215,4 29,4 C42.785,4 54,14.094 54,26.5 C54,38.906 42.785,49 29,49 L29,49 Z" id="Fill-335" fill="#BDC3C7" sketch:type="MSShapeGroup"></path>
            <path d="M29,49 C15.215,49 4,38.906 4,26.5 C4,14.094 15.215,4 29,4 C42.785,4 54,14.094 54,26.5 C54,38.906 42.785,49 29,49 L29,49 Z" id="Stroke-336" stroke="#ECF0F1" stroke-width="2" sketch:type="MSShapeGroup"></path>
            <path d="M29,42 C19.075,42 11,35.047 11,26.5 C11,17.953 19.075,11 29,11 C38.925,11 47,17.953 47,26.5 C47,35.047 38.925,42 29,42" id="Fill-337" fill="#E6E6E6" sketch:type="MSShapeGroup"></path>
            <path d="M29,35 C23.038,35 18,31.107 18,26.5 C18,21.893 23.038,18 29,18 C34.962,18 40,21.893 40,26.5 C40,31.107 34.962,35 29,35" id="Fill-338" fill="#84B5CB" sketch:type="MSShapeGroup"></path>
            <path d="M29,4 C31.798,4 34.486,4.422 37,5.188 L37,2.336 C37,1.046 35.954,0 34.664,0 L22.336,0 C21.046,0 20,1.046 20,2.336 L20,5.514 C22.795,4.54 25.828,4 29,4" id="Fill-339" fill="#ECF0F1" sketch:type="MSShapeGroup"></path>
            <path d="M52.142,18 C53.336,20.624 54,23.493 54,26.5 C54,29.507 53.336,32.376 52.142,35 L55.664,35 C56.954,35 58,33.954 58,32.664 L58,20.336 C58,19.046 56.954,18 55.664,18 L52.142,18" id="Fill-340" fill="#ECF0F1" sketch:type="MSShapeGroup"></path>
            <path d="M4,26.5 C4,23.493 4.664,20.624 5.858,18 L2.336,18 C1.046,18 0,19.046 0,20.336 L0,32.664 C0,33.954 1.046,35 2.336,35 L5.858,35 C4.664,32.376 4,29.507 4,26.5" id="Fill-341" fill="#ECF0F1" sketch:type="MSShapeGroup"></path>
            <path d="M30,14 C30,14.552 29.552,15 29,15 C28.448,15 28,14.552 28,14 C28,13.448 28.448,13 29,13 C29.552,13 30,13.448 30,14" id="Fill-342" fill="#7F8C8D" sketch:type="MSShapeGroup"></path>
            <path d="M30,39 C30,39.552 29.552,40 29,40 C28.448,40 28,39.552 28,39 C28,38.448 28.448,38 29,38 C29.552,38 30,38.448 30,39" id="Fill-343" fill="#7F8C8D" sketch:type="MSShapeGroup"></path>
            <path d="M14,26 C14.552,26 15,26.448 15,27 C15,27.552 14.552,28 14,28 C13.448,28 13,27.552 13,27 C13,26.448 13.448,26 14,26" id="Fill-344" fill="#7F8C8D" sketch:type="MSShapeGroup"></path>
            <path d="M44,26 C44.552,26 45,26.448 45,27 C45,27.552 44.552,28 44,28 C43.448,28 43,27.552 43,27 C43,26.448 43.448,26 44,26" id="Fill-345" fill="#7F8C8D" sketch:type="MSShapeGroup"></path>
            <path d="M19.808,16.393 C20.198,16.784 20.198,17.417 19.808,17.808 C19.417,18.198 18.784,18.198 18.393,17.808 C18.003,17.417 18.003,16.784 18.393,16.393 C18.784,16.003 19.417,16.003 19.808,16.393" id="Fill-346" fill="#7F8C8D" sketch:type="MSShapeGroup"></path>
            <path d="M38.707,35.293 C39.098,35.683 39.098,36.317 38.707,36.707 C38.317,37.098 37.683,37.098 37.293,36.707 C36.902,36.317 36.902,35.683 37.293,35.293 C37.683,34.902 38.317,34.902 38.707,35.293" id="Fill-347" fill="#7F8C8D" sketch:type="MSShapeGroup"></path>
            <path d="M18.393,35.293 C18.784,34.902 19.417,34.902 19.808,35.293 C20.198,35.683 20.198,36.317 19.808,36.707 C19.417,37.098 18.784,37.098 18.393,36.707 C18.003,36.317 18.003,35.683 18.393,35.293" id="Fill-348" fill="#7F8C8D" sketch:type="MSShapeGroup"></path>
            <path d="M37.293,16.393 C37.683,16.003 38.317,16.003 38.707,16.393 C39.098,16.784 39.098,17.417 38.707,17.808 C38.317,18.198 37.683,18.198 37.293,17.808 C36.902,17.417 36.902,16.784 37.293,16.393" id="Fill-349" fill="#7F8C8D" sketch:type="MSShapeGroup"></path>
            <path d="M36,20.004 C35.385,19.605 34.713,19.26 34,18.97 L34,25 L30,25 L30,18.041 C29.67,18.016 29.337,18 29,18 C28.663,18 28.33,18.016 28,18.041 L28,25 L24,25 L24,18.97 C23.287,19.26 22.615,19.605 22,20.004 L22,25 L18.19,25 C18.071,25.489 18,25.989 18,26.5 C18,26.669 18.021,26.834 18.034,27 L22,27 L22,32.996 C22.615,33.395 23.287,33.74 24,34.03 L24,27 L28,27 L28,34.959 C28.33,34.984 28.663,35 29,35 C29.337,35 29.67,34.984 30,34.959 L30,27 L34,27 L34,34.03 C34.713,33.74 35.385,33.395 36,32.996 L36,27 L39.966,27 C39.979,26.834 40,26.669 40,26.5 C40,25.989 39.929,25.489 39.81,25 L36,25 L36,20.004" id="Fill-651" fill="#ECF0F1" sketch:type="MSShapeGroup"></path>
        </g>
    </g>
</svg>