<?xml version="1.0" encoding="UTF-8" standalone="no"?>
<svg width="58px" height="58px" viewBox="0 0 58 58" version="1.1" xmlns="http://www.w3.org/2000/svg" xmlns:xlink="http://www.w3.org/1999/xlink" xmlns:sketch="http://www.bohemiancoding.com/sketch/ns">
    <!-- Generator: Sketch 3.2.2 (9983) - http://www.bohemiancoding.com/sketch -->
    <title>7 - Diving Gear (Flat)</title>
    <desc>Created with Sketch.</desc>
    <defs></defs>
    <g id="Page-1" stroke="none" stroke-width="1" fill="none" fill-rule="evenodd" sketch:type="MSPage">
        <g id="7---Diving-Gear-(Flat)" sketch:type="MSLayerGroup">
            <path d="M0,0 L0,46 C0,52.065 4.935,57 11,57 L22.053,57 C22.034,56.913 22,56.831 22,56.738 L22,51.263 C22,51.169 22.034,51.087 22.053,51 L11,51 C8.243,51 6,48.757 6,46 L6,0 L0,0" id="Fill-13" fill="#546A79" sketch:type="MSShapeGroup"></path>
            <path d="M58,30 L58,25.166 C58,19.552 53.448,15 47.834,15 L20.166,15 C14.552,15 10,19.552 10,25.166 L10,26.912 C10,26.942 9.994,26.97 10.025,27.438 L10.025,35.342 C9.96,35.839 10.092,38.279 12.099,40.497 C14.202,42.821 17.529,44 22.064,44 L22.068,44 C26.313,43.921 30.779,42.418 33.19,39.344 C33.608,38.812 34.38,38.812 34.798,39.344 C37.21,42.418 41.675,43.921 45.92,44 L45.994,44 C50.456,44 53.786,42.821 55.89,40.497 C57.896,38.279 58.028,35.839 57.994,34.904 L57.994,30 L58,30" id="Fill-14" fill="#F29C1F" sketch:type="MSShapeGroup"></path>
            <path d="M32.995,19 L24.154,19 C21.995,19 19.842,19.509 17.995,20.625 C15.994,21.833 13.995,23.833 13.995,27 L13.995,35 C13.995,35 13.495,40 21.994,40 C21.994,40 30.994,39.833 30.994,34 L31,34 C31,32.343 32.343,31 34,31 C35.657,31 37,32.343 37,34 L36.994,34 C36.994,39.833 45.994,40 45.994,40 C54.495,40 53.995,35 53.995,35 L53.995,27 C53.995,23.833 51.994,21.833 49.995,20.625 C48.146,19.509 45.994,19 43.835,19 L32.995,19" id="Fill-328" fill="#E6E6E6" sketch:type="MSShapeGroup"></path>
            <path d="M0,0 L6,0 L6,9 L0,9 L0,0 Z" id="Fill-329" fill="#E1705C" sketch:type="MSShapeGroup"></path>
            <path d="M34.737,58 L23.263,58 C22.565,58 22,57.435 22,56.738 L22,51.263 C22,50.565 22.565,50 23.263,50 L34.737,50 C35.435,50 36,50.565 36,51.263 L36,56.738 C36,57.435 35.435,58 34.737,58" id="Fill-330" fill="#38454F" sketch:type="MSShapeGroup"></path>
            <path d="M19,29 C18.744,29 18.488,28.902 18.293,28.707 C17.902,28.316 17.902,27.684 18.293,27.293 L22.293,23.293 C22.684,22.902 23.316,22.902 23.707,23.293 C24.098,23.684 24.098,24.316 23.707,24.707 L19.707,28.707 C19.512,28.902 19.256,29 19,29" id="Fill-331" fill="#FFFFFF" sketch:type="MSShapeGroup"></path>
            <path d="M23,32 C22.744,32 22.488,31.902 22.293,31.707 C21.902,31.316 21.902,30.684 22.293,30.293 L29.293,23.293 C29.684,22.902 30.316,22.902 30.707,23.293 C31.098,23.684 31.098,24.316 30.707,24.707 L23.707,31.707 C23.512,31.902 23.256,32 23,32" id="Fill-332" fill="#FFFFFF" sketch:type="MSShapeGroup"></path>
            <path d="M6,28 L10,28 L10,32 L6,32 L6,28 Z" id="Fill-333" fill="#BDC3C7" sketch:type="MSShapeGroup"></path>
        </g>
    </g>
</svg>