<?xml version="1.0" encoding="UTF-8" standalone="no"?>
<svg width="58px" height="59px" viewBox="0 0 58 59" version="1.1" xmlns="http://www.w3.org/2000/svg" xmlns:xlink="http://www.w3.org/1999/xlink" xmlns:sketch="http://www.bohemiancoding.com/sketch/ns">
    <!-- Generator: Sketch 3.2.2 (9983) - http://www.bohemiancoding.com/sketch -->
    <title>24 - Elevator (Flat)</title>
    <desc>Created with Sketch.</desc>
    <defs></defs>
    <g id="Page-1" stroke="none" stroke-width="1" fill="none" fill-rule="evenodd" sketch:type="MSPage">
        <g id="24---Elevator-(Flat)" sketch:type="MSLayerGroup">
            <path d="M0,0 L58,0 L58,59 L0,59 L0,0 Z" id="Fill-389" fill="#546A79" sketch:type="MSShapeGroup"></path>
            <path d="M10,9 L48,9 L48,58 L10,58 L10,9 Z" id="Fill-390" fill="#BDC3C7" sketch:type="MSShapeGroup"></path>
            <path d="M10,9 L48,9 L48,58 L10,58 L10,9 Z" id="Stroke-391" stroke="#ECF0F1" stroke-width="2" sketch:type="MSShapeGroup"></path>
            <path d="M51,26 L55,26 L55,40 L51,40 L51,26 Z" id="Fill-392" fill="#ECF0F1" sketch:type="MSShapeGroup"></path>
            <path d="M51,33 L55,33" id="Fill-393" fill="#546A79" sketch:type="MSShapeGroup"></path>
            <path d="M51,32 L55,32 L55,34 L51,34 L51,32 Z" id="Fill-394" fill="#546A79" sketch:type="MSShapeGroup"></path>
            <path d="M29,9 L29,58" id="Stroke-395" stroke="#ECF0F1" stroke-width="2" sketch:type="MSShapeGroup"></path>
            <path d="M21,2 L37,2 L37,6 L21,6 L21,2 Z" id="Fill-405" fill="#F0C419" sketch:type="MSShapeGroup"></path>
        </g>
    </g>
</svg>