<?xml version="1.0" encoding="UTF-8" standalone="no"?>
<svg width="59px" height="52px" viewBox="0 0 59 52" version="1.1" xmlns="http://www.w3.org/2000/svg" xmlns:xlink="http://www.w3.org/1999/xlink" xmlns:sketch="http://www.bohemiancoding.com/sketch/ns">
    <!-- Generator: Sketch 3.2.2 (9983) - http://www.bohemiancoding.com/sketch -->
    <title>47 - Exotic Island (Flat)</title>
    <desc>Created with Sketch.</desc>
    <defs></defs>
    <g id="Page-1" stroke="none" stroke-width="1" fill="none" fill-rule="evenodd" sketch:type="MSPage">
        <g id="47---Exotic-Island-(Flat)" sketch:type="MSLayerGroup" transform="translate(-1.000000, 0.000000)">
            <path d="M33.412,44.058 C33.75,45.492 33.922,46.419 33.959,46.599 L30.041,47.402 C30.03,47.35 29.778,46.076 29.251,44.031 C14.05,44.517 2,44.286 2,52 L60,52 C60,44.398 48.299,44.717 33.412,44.058" id="Fill-37" fill="#EEAF4B" sketch:type="MSShapeGroup"></path>
            <path d="M30.041,47.402 C29.992,47.166 25.029,22.008 11.87,13 L13,12 C29.208,20.292 33.749,45.569 33.959,46.599 L30.041,47.402" id="Fill-58" fill="#7F5B53" sketch:type="MSShapeGroup"></path>
            <path d="M3,24 C2.448,24 2,23.552 2,23 C2,16.935 6.935,12 13,12 C13.552,12 14,12.448 14,13 C14,13.552 13.552,14 13,14 C8.038,14 4,18.038 4,23 C4,23.552 3.552,24 3,24" id="Fill-59" fill="#4FBA6F" sketch:type="MSShapeGroup"></path>
            <path d="M13,14 C12.448,14 12,13.552 12,13 C12,6.935 16.935,2 23,2 C23.552,2 24,2.448 24,3 C24,3.552 23.552,4 23,4 C18.038,4 14,8.038 14,13 C14,13.552 13.552,14 13,14" id="Fill-60" fill="#4FBA6F" sketch:type="MSShapeGroup"></path>
            <path d="M11.999,26 C11.774,26 11.547,25.924 11.361,25.769 C8.615,23.486 7.266,18.551 8.474,15.209 C9.221,13.14 10.829,12 13,12 C13.552,12 14,12.448 14,13 C14,13.552 13.552,14 13,14 C11.679,14 10.813,14.618 10.354,15.889 C9.434,18.435 10.544,22.489 12.639,24.231 C13.064,24.584 13.122,25.215 12.769,25.639 C12.571,25.877 12.286,26 11.999,26" id="Fill-61" fill="#88C057" sketch:type="MSShapeGroup"></path>
            <path d="M13,14 C12.448,14 12,13.552 12,13 C12,10.442 13.705,8.451 16.676,7.537 C19.804,6.576 24.19,7.03 25.827,9.438 C26.138,9.895 26.019,10.517 25.562,10.827 C25.106,11.137 24.483,11.019 24.173,10.562 C23.221,9.161 19.928,8.629 17.264,9.449 C16.045,9.824 14,10.784 14,13 C14,13.552 13.552,14 13,14" id="Fill-62" fill="#4C8056" sketch:type="MSShapeGroup"></path>
            <path d="M1.999,16 C1.79,16 1.578,15.934 1.397,15.798 C0.956,15.465 0.869,14.838 1.202,14.398 C2.318,12.919 4.668,10.391 7.865,10.083 C9.894,9.885 11.846,10.619 13.668,12.256 C14.079,12.626 14.113,13.257 13.744,13.669 C13.376,14.08 12.743,14.114 12.331,13.744 C10.943,12.496 9.502,11.935 8.057,12.074 C5.622,12.309 3.717,14.385 2.798,15.603 C2.602,15.863 2.302,16 1.999,16" id="Fill-63" fill="#4C8056" sketch:type="MSShapeGroup"></path>
            <path d="M13,14 C12.744,14 12.488,13.902 12.293,13.707 C10.026,11.44 9.429,8.263 10.695,5.207 C11.985,2.092 14.92,0 18,0 C18.552,0 19,0.448 19,1 C19,1.552 18.552,2 18,2 C15.72,2 13.527,3.596 12.543,5.972 C11.597,8.255 12.032,10.618 13.707,12.293 C14.098,12.684 14.098,13.316 13.707,13.707 C13.512,13.902 13.256,14 13,14" id="Fill-64" fill="#88C057" sketch:type="MSShapeGroup"></path>
            <path d="M25.145,31.607 L24.31,29.79 L27.739,28.213 L28.575,30.03 L25.145,31.607" id="Fill-65" fill="#804537" sketch:type="MSShapeGroup"></path>
            <path d="M24.99,23.476 L24.465,22.682 L21.763,24.674 C21.928,24.969 22.088,25.265 22.248,25.561 L22.722,26.451 L25.523,24.33 C25.347,24.045 25.173,23.758 24.99,23.476" id="Fill-489" fill="#804537" sketch:type="MSShapeGroup"></path>
            <path d="M32.631,41.04 L32.35,40.061 L28.639,41.775 C28.734,42.112 28.825,42.437 28.91,42.75 L29.215,43.891 L32.899,42.018 C32.816,41.704 32.726,41.377 32.631,41.04" id="Fill-490" fill="#804537" sketch:type="MSShapeGroup"></path>
            <path d="M30.527,34.634 L30.109,33.727 L26.569,35.355 C26.684,35.672 26.799,35.99 26.908,36.302 L27.221,37.209 L30.874,35.577 C30.761,35.265 30.647,34.953 30.527,34.634" id="Fill-491" fill="#804537" sketch:type="MSShapeGroup"></path>
            <path d="M43,15 C42.448,15 42,14.552 42,14 C42,9.038 37.962,5 33,5 C32.448,5 32,4.552 32,4 C32,3.448 32.448,3 33,3 C39.065,3 44,7.935 44,14 C44,14.552 43.552,15 43,15" id="Fill-492" fill="#71C285" sketch:type="MSShapeGroup"></path>
            <path d="M53,25 C52.448,25 52,24.552 52,24 C52,19.038 47.962,15 43,15 C42.448,15 42,14.552 42,14 C42,13.448 42.448,13 43,13 C49.065,13 54,17.935 54,24 C54,24.552 53.552,25 53,25" id="Fill-493" fill="#4C8056" sketch:type="MSShapeGroup"></path>
            <path d="M43,15 C42.448,15 42,14.552 42,14 C42,12.679 41.382,11.814 40.111,11.355 C37.563,10.433 33.51,11.544 31.769,13.639 C31.416,14.065 30.784,14.122 30.361,13.769 C29.936,13.416 29.878,12.785 30.231,12.361 C32.515,9.615 37.45,8.265 40.791,9.474 C42.86,10.221 44,11.829 44,14 C44,14.552 43.552,15 43,15" id="Fill-494" fill="#88C057" sketch:type="MSShapeGroup"></path>
            <path d="M46.001,27 C45.681,27 45.366,26.847 45.173,26.562 C44.862,26.106 44.981,25.483 45.438,25.173 C46.84,24.22 47.371,20.927 46.551,18.264 C46.176,17.045 45.216,15 43,15 C42.448,15 42,14.552 42,14 C42,13.448 42.448,13 43,13 C45.558,13 47.549,14.705 48.463,17.676 C49.425,20.802 48.971,25.19 46.562,26.827 C46.39,26.944 46.194,27 46.001,27" id="Fill-495" fill="#88C057" sketch:type="MSShapeGroup"></path>
            <path d="M42.999,15 C42.759,15 42.518,14.914 42.326,14.738 C41.918,14.366 41.889,13.733 42.262,13.326 C43.644,11.812 44.214,10.12 43.911,8.433 C43.609,6.751 42.491,5.377 41.542,4.889 C41.051,4.637 40.858,4.034 41.111,3.543 C41.363,3.052 41.966,2.859 42.457,3.111 C43.844,3.824 45.44,5.637 45.88,8.079 C46.171,9.699 46.036,12.158 43.738,14.674 C43.541,14.89 43.271,15 42.999,15" id="Fill-496" fill="#4C8056" sketch:type="MSShapeGroup"></path>
            <path d="M55,20 C54.448,20 54,19.552 54,19 C54,16.72 52.404,14.527 50.028,13.543 C47.746,12.596 45.381,13.033 43.707,14.707 C43.316,15.098 42.684,15.098 42.293,14.707 C41.902,14.316 41.902,13.684 42.293,13.293 C44.559,11.026 47.739,10.429 50.793,11.695 C53.908,12.985 56,15.92 56,19 C56,19.552 55.552,20 55,20" id="Fill-497" fill="#71C285" sketch:type="MSShapeGroup"></path>
            <path d="M32.841,41.801 C35.768,30.729 44.907,14.151 45,14 L43,12.942 C42.66,13.487 34.911,26.422 31.026,35.99 C31.798,38.158 32.394,40.144 32.841,41.801" id="Fill-498" fill="#805333" sketch:type="MSShapeGroup"></path>
        </g>
    </g>
</svg>