<?xml version="1.0" encoding="UTF-8" standalone="no"?>
<svg width="54px" height="55px" viewBox="0 0 54 55" version="1.1" xmlns="http://www.w3.org/2000/svg" xmlns:xlink="http://www.w3.org/1999/xlink" xmlns:sketch="http://www.bohemiancoding.com/sketch/ns">
    <!-- Generator: Sketch 3.2.2 (9983) - http://www.bohemiancoding.com/sketch -->
    <title>31 - Hotel Bell (Flat)</title>
    <desc>Created with Sketch.</desc>
    <defs></defs>
    <g id="Page-1" stroke="none" stroke-width="1" fill="none" fill-rule="evenodd" sketch:type="MSPage">
        <g id="31---Hotel-Bell-(Flat)" sketch:type="MSLayerGroup">
            <path d="M0,50 L54,50 L54,55 L0,55 L0,50 Z" id="Fill-240" fill="#546A79" sketch:type="MSShapeGroup"></path>
            <path d="M51,50 L3,50 L3,47 C6.866,47 10,43.866 10,40 L44,40 C44,43.866 47.134,47 51,47 L51,50" id="Fill-241" fill="#38454F" sketch:type="MSShapeGroup"></path>
            <path d="M23,36 L31,36 L31,40 L23,40 L23,36 Z" id="Fill-242" fill="#F29C1F" sketch:type="MSShapeGroup"></path>
            <path d="M10,36 L10,24 C10,14.65 17.65,7 27,7 C36.35,7 44,14.65 44,24 L44,36 L10,36" id="Fill-567" fill="#F0C419" sketch:type="MSShapeGroup"></path>
            <path d="M14,25 C13.447,25 13,24.552 13,24 C13,16.28 19.28,10 27,10 C27.553,10 28,10.448 28,11 C28,11.552 27.553,12 27,12 C20.383,12 15,17.383 15,24 C15,24.552 14.553,25 14,25" id="Fill-568" fill="#EDE71B" sketch:type="MSShapeGroup"></path>
            <path d="M32,0 L22,0 L22,2 L26,2 L26,7 L28,7 L28,2 L32,2 L32,0" id="Fill-569" fill="#BDC3C7" sketch:type="MSShapeGroup"></path>
        </g>
    </g>
</svg>