<?xml version="1.0" encoding="UTF-8" standalone="no"?>
<svg width="46px" height="57px" viewBox="0 0 46 57" version="1.1" xmlns="http://www.w3.org/2000/svg" xmlns:xlink="http://www.w3.org/1999/xlink" xmlns:sketch="http://www.bohemiancoding.com/sketch/ns">
    <!-- Generator: Sketch 3.2.2 (9983) - http://www.bohemiancoding.com/sketch -->
    <title>2 - Life Jacket (Flat)</title>
    <desc>Created with Sketch.</desc>
    <defs></defs>
    <g id="Page-1" stroke="none" stroke-width="1" fill="none" fill-rule="evenodd" sketch:type="MSPage">
        <g id="2---Life-Jacket-(Flat)" sketch:type="MSLayerGroup">
            <path d="M23,57 L46,57 L46,25.682 C46,25.321 45.75,25.013 45.399,24.932 C39.196,23.503 39,1.247 39,1.247 C39,1.247 38.999,1.237 38.997,1.218 C38.816,-0.184 36.891,-0.456 36.297,0.827 C34.346,5.043 28.632,15 23,15 C17.368,15 11.654,5.043 9.703,0.827 C9.109,-0.456 7.184,-0.184 7.003,1.218 C7.001,1.237 7,1.247 7,1.247 C7,1.247 6.804,23.503 0.601,24.932 C0.25,25.013 0,25.321 0,25.682 L0,57 L23,57" id="Fill-454" fill="#EB683F" sketch:type="MSShapeGroup"></path>
            <path d="M16.341,38 L6.659,38 C6.295,38 6,37.705 6,37.341 L6,28.659 C6,28.295 6.295,28 6.659,28 L16.341,28 C16.705,28 17,28.295 17,28.659 L17,37.341 C17,37.705 16.705,38 16.341,38" id="Fill-455" fill="#ECF0F1" sketch:type="MSShapeGroup"></path>
            <path d="M39.341,38 L29.659,38 C29.295,38 29,37.705 29,37.341 L29,28.659 C29,28.295 29.295,28 29.659,28 L39.341,28 C39.705,28 40,28.295 40,28.659 L40,37.341 C40,37.705 39.705,38 39.341,38" id="Fill-456" fill="#ECF0F1" sketch:type="MSShapeGroup"></path>
            <path d="M40,30 L46,30 L46,36 L40,36 L40,30 Z" id="Fill-457" fill="#546A79" sketch:type="MSShapeGroup"></path>
            <path d="M0,30 L6,30 L6,36 L0,36 L0,30 Z" id="Fill-458" fill="#546A79" sketch:type="MSShapeGroup"></path>
            <path d="M28.341,53 L18.659,53 C18.295,53 18,52.705 18,52.341 L18,43.659 C18,43.295 18.295,43 18.659,43 L28.341,43 C28.705,43 29,43.295 29,43.659 L29,52.341 C29,52.705 28.705,53 28.341,53" id="Fill-459" fill="#ECF0F1" sketch:type="MSShapeGroup"></path>
            <path d="M29,45 L46,45 L46,51 L29,51 L29,45 Z" id="Fill-460" fill="#546A79" sketch:type="MSShapeGroup"></path>
            <path d="M0,45 L18,45 L18,51 L0,51 L0,45 Z" id="Fill-461" fill="#546A79" sketch:type="MSShapeGroup"></path>
            <path d="M9.702,0.826 C11.654,5.043 17.368,15 23,15 C28.632,15 34.346,5.043 36.298,0.826 C36.63,0.109 37.373,-0.107 38,0.074 L38,0 L8,0 L8,0.074 C8.627,-0.107 9.37,0.109 9.702,0.826" id="Fill-645" fill="#D25627" sketch:type="MSShapeGroup"></path>
            <path d="M25,14.602 C24.336,14.856 23.668,15 23,15 C22.332,15 21.663,14.856 21,14.602 L21,30 L17,30 L17,36 L29,36 L29,30 L25,30 L25,14.602" id="Fill-646" fill="#546A79" sketch:type="MSShapeGroup"></path>
        </g>
    </g>
</svg>