<?xml version="1.0" encoding="UTF-8" standalone="no"?>
<svg width="58px" height="52px" viewBox="0 0 58 52" version="1.1" xmlns="http://www.w3.org/2000/svg" xmlns:xlink="http://www.w3.org/1999/xlink" xmlns:sketch="http://www.bohemiancoding.com/sketch/ns">
    <!-- Generator: Sketch 3.2.2 (9983) - http://www.bohemiancoding.com/sketch -->
    <title>28 - Luggage (Flat)</title>
    <desc>Created with Sketch.</desc>
    <defs></defs>
    <g id="Page-1" stroke="none" stroke-width="1" fill="none" fill-rule="evenodd" sketch:type="MSPage">
        <g id="28---Luggage-(Flat)" sketch:type="MSLayerGroup">
            <path d="M54.142,52 L3.858,52 C1.727,52 0,50.273 0,48.142 L0,14.858 C0,12.727 1.727,11 3.858,11 L54.142,11 C56.273,11 58,12.727 58,14.858 L58,48.142 C58,50.273 56.273,52 54.142,52" id="Fill-24" fill="#805333" sketch:type="MSShapeGroup"></path>
            <path d="M10,8 L16,8 L16,52 L10,52 L10,8 Z" id="Fill-25" fill="#CB8252" sketch:type="MSShapeGroup"></path>
            <path d="M42,8 L48,8 L48,52 L42,52 L42,8 Z" id="Fill-26" fill="#CB8252" sketch:type="MSShapeGroup"></path>
            <path d="M29,0 C23.486,0 19,4.486 19,10 L19,11 L23,11 L23,10 C23,6.7 25.7,4 29,4 C32.3,4 35,6.7 35,10 L35,11 L39,11 L39,10 C39,4.486 34.514,0 29,0" id="Fill-255" fill="#BDC3C7" sketch:type="MSShapeGroup"></path>
            <path d="M27.207,41.089 L18.818,37.549 L21.178,31.956 L29.567,35.496 L27.207,41.089" id="Fill-256" fill="#71C285" sketch:type="MSShapeGroup"></path>
            <path d="M23,27 L23,32.725 L29.567,35.496 L28.932,37 L38,37 L38,27 L23,27" id="Fill-258" fill="#E1705C" sketch:type="MSShapeGroup"></path>
            <path d="M35.556,27 L38,25.859 L34.536,18.44 L23.408,23.636 L24.978,27 L35.556,27" id="Fill-259" fill="#F0C419" sketch:type="MSShapeGroup"></path>
            <path d="M58,17.86 L58,14.858 C58,12.727 56.273,11 54.142,11 L51.14,11 C51.763,14.49 54.51,17.237 58,17.86" id="Fill-478" fill="#E4C05C" sketch:type="MSShapeGroup"></path>
            <path d="M58,48.142 L58,45.14 C54.51,45.763 51.763,48.51 51.14,52 L54.142,52 C56.273,52 58,50.273 58,48.142" id="Fill-479" fill="#E4C05C" sketch:type="MSShapeGroup"></path>
            <path d="M0,17.86 C3.49,17.237 6.237,14.49 6.86,11 L3.858,11 C1.727,11 0,12.727 0,14.858 L0,17.86" id="Fill-480" fill="#E4C05C" sketch:type="MSShapeGroup"></path>
            <path d="M0,45.14 L0,48.142 C0,50.273 1.727,52 3.858,52 L6.86,52 C6.237,48.51 3.49,45.763 0,45.14" id="Fill-481" fill="#E4C05C" sketch:type="MSShapeGroup"></path>
        </g>
    </g>
</svg>