<?xml version="1.0" encoding="UTF-8" standalone="no"?>
<svg width="57px" height="59px" viewBox="0 0 57 59" version="1.1" xmlns="http://www.w3.org/2000/svg" xmlns:xlink="http://www.w3.org/1999/xlink" xmlns:sketch="http://www.bohemiancoding.com/sketch/ns">
    <!-- Generator: Sketch 3.2.2 (9983) - http://www.bohemiancoding.com/sketch -->
    <title>48 - Palm (Flat)</title>
    <desc>Created with Sketch.</desc>
    <defs></defs>
    <g id="Page-1" stroke="none" stroke-width="1" fill="none" fill-rule="evenodd" sketch:type="MSPage">
        <g id="48---Palm-(Flat)" sketch:type="MSLayerGroup">
            <path d="M29.34,17.966 C29.226,17.976 29.116,18 29,18 C28.039,18 27.169,17.647 26.48,17.083 C26.799,17.653 27,18.298 27,19 C27,19.6 26.858,20.164 26.622,20.675 C28.698,31.774 31.325,51.675 25,58 L39,58 C39,58 38.609,31.914 29.34,17.966" id="Fill-38" fill="#805333" sketch:type="MSShapeGroup"></path>
            <path d="M0,58 L57,58" id="Stroke-50" stroke="#A4E869" stroke-width="2" stroke-linejoin="round" sketch:type="MSShapeGroup"></path>
            <path d="M19,54 C19,56.209 17.209,58 15,58 C12.791,58 11,56.209 11,54 C11,51.791 12.791,50 15,50 C17.209,50 19,51.791 19,54" id="Fill-51" fill="#7F6E5D" sketch:type="MSShapeGroup"></path>
            <path d="M33,14 C33,16.209 31.209,18 29,18 C26.791,18 25,16.209 25,14 C25,11.791 26.791,10 29,10 C31.209,10 33,11.791 33,14" id="Fill-52" fill="#CBB292" sketch:type="MSShapeGroup"></path>
            <path d="M35.856,5.684 C32.37,6.618 29.501,8.384 27.718,10.229 C28.123,10.091 28.549,10 29,10 C30.759,10 32.237,11.144 32.772,12.722 L35.96,11.868 L36.891,9.548 L38.858,11.092 L49,8.374 C48.285,5.707 42.258,3.969 35.856,5.684" id="Fill-53" fill="#4FBA6F" sketch:type="MSShapeGroup"></path>
            <path d="M26.563,10.849 C25.702,8.249 23.154,5.021 19.373,2.732 C13.703,-0.699 7.43,-0.71 6,1.652 L14.983,7.089 L17.302,6.154 L17.549,8.642 L25.081,13.2 C25.275,12.245 25.819,11.425 26.563,10.849" id="Fill-54" fill="#4C8056" sketch:type="MSShapeGroup"></path>
            <path d="M25,14 C25,13.67 25.051,13.354 25.127,13.047 C23.108,11.197 18.111,10.276 12.856,11.684 C6.454,13.4 2.103,17.918 2.818,20.586 L12.96,17.868 L13.891,15.548 L15.858,17.092 L20.595,15.822 C21.266,15.313 22.093,15 23,15 C23.165,15 23.322,15.029 23.482,15.049 L25.063,14.625 C25.031,14.42 25,14.214 25,14" id="Fill-55" fill="#4FBA6F" sketch:type="MSShapeGroup"></path>
            <path d="M25.501,15.902 C24.815,15.346 23.952,15 23,15 C20.791,15 19,16.791 19,19 C19,21.209 20.791,23 23,23 C25.209,23 27,21.209 27,19 C27,18.308 26.808,17.666 26.498,17.098 C26.091,16.769 25.754,16.365 25.501,15.902" id="Fill-56" fill="#7F6E5D" sketch:type="MSShapeGroup"></path>
            <path d="M42,58 L42,53 M45,58 L45,55 M48,58 L48,53 M23,57 L23,54" id="Stroke-57" stroke="#A4E869" stroke-width="2" stroke-linecap="round" stroke-linejoin="round" sketch:type="MSShapeGroup"></path>
            <path d="M34.726,30 L28.095,30 C28.179,30.66 28.258,31.327 28.333,32 L35.306,32 C35.121,31.331 34.929,30.664 34.726,30" id="Fill-485" fill="#CB8252" sketch:type="MSShapeGroup"></path>
            <path d="M32.098,23 C31.786,22.319 31.462,21.65 31.121,21 L26.681,21 C26.8,21.641 26.92,22.307 27.04,23 L32.098,23" id="Fill-486" fill="#CB8252" sketch:type="MSShapeGroup"></path>
            <path d="M38.276,48 L28.686,48 C28.611,48.684 28.522,49.354 28.413,50 L38.486,50 C38.424,49.36 38.354,48.692 38.276,48" id="Fill-487" fill="#CB8252" sketch:type="MSShapeGroup"></path>
            <path d="M28.958,41 L37.285,41 C37.171,40.34 37.05,39.674 36.921,39 L28.892,39 C28.922,39.67 28.945,40.338 28.958,41" id="Fill-488" fill="#CB8252" sketch:type="MSShapeGroup"></path>
        </g>
    </g>
</svg>