<?xml version="1.0" encoding="UTF-8" standalone="no"?>
<svg width="60px" height="60px" viewBox="0 0 60 60" version="1.1" xmlns="http://www.w3.org/2000/svg" xmlns:xlink="http://www.w3.org/1999/xlink" xmlns:sketch="http://www.bohemiancoding.com/sketch/ns">
    <!-- Generator: Sketch 3.2.2 (9983) - http://www.bohemiancoding.com/sketch -->
    <title>15 - Parasailing (Flat)</title>
    <desc>Created with Sketch.</desc>
    <defs></defs>
    <g id="Page-1" stroke="none" stroke-width="1" fill="none" fill-rule="evenodd" sketch:type="MSPage">
        <g id="15---Parasailing-(Flat)" sketch:type="MSLayerGroup" transform="translate(0.000000, 1.000000)">
            <path d="M2.005,52.023 L8.308,57.773 C8.722,58.012 9.85,58.04 9.969,58.04 L43.862,58.04 C44.858,58.04 45.781,57.359 45.941,56.375 C46.145,55.122 45.183,54.04 43.969,54.04 L9.969,54.04 C9.933,54.04 2.642,52.162 2.012,52 C2,51.997 1.996,52.014 2.005,52.023" id="Fill-75" fill="#BDC3C7" sketch:type="MSShapeGroup"></path>
            <path d="M56,10 C56,13.866 52.866,17 49,17 C45.134,17 42,13.866 42,10 C42,6.134 45.134,3 49,3 C52.866,3 56,6.134 56,10 L56,10 Z" id="Fill-76" fill="#F29C1F" sketch:type="MSShapeGroup"></path>
            <path d="M56,10 C56,13.866 52.866,17 49,17 C45.134,17 42,13.866 42,10 C42,6.134 45.134,3 49,3 C52.866,3 56,6.134 56,10 L56,10 Z" id="Stroke-77" stroke="#F0C419" stroke-width="2" stroke-linecap="round" stroke-linejoin="round" sketch:type="MSShapeGroup"></path>
            <path d="M49,3 L49,0 M49,20 L49,17 M56,10 L59,10 M39,10 L42,10 M44.05,5.05 L41.929,2.929 M56.071,17.071 L53.95,14.95 M53.95,5.05 L56.071,2.929 M41.929,17.071 L44.05,14.95" id="Stroke-78" stroke="#F0C419" stroke-width="2" stroke-linecap="round" stroke-linejoin="round" sketch:type="MSShapeGroup"></path>
            <path d="M59,59 L1,59 C0.447,59 0,58.553 0,58 C0,57.447 0.447,57 1,57 L59,57 C59.553,57 60,57.447 60,58 C60,58.553 59.553,59 59,59" id="Fill-79" fill="#556080" sketch:type="MSShapeGroup"></path>
            <path d="M18.004,54.04 L18.004,50.449 L21.594,54.04 L24.422,54.04 L17.676,47.293 L17.666,47.303 C17.489,47.144 17.261,47.04 17.004,47.04 C16.451,47.04 16.004,47.487 16.004,48.04 L16.004,54.04 L18.004,54.04" id="Fill-620" fill="#7F6E5D" sketch:type="MSShapeGroup"></path>
            <path d="M31.169,8.14 C30.621,5.958 30.004,4.102 29.305,2.791 C28.79,1.825 27.438,1.725 26.773,2.595 C25.268,4.562 22.585,8.405 19.914,13.877 L31.136,8.149 C31.147,8.144 31.158,8.145 31.169,8.14" id="Fill-621" fill="#F4E6CE" sketch:type="MSShapeGroup"></path>
            <path d="M33.706,24.032 C33.577,22.813 33.436,21.58 33.283,20.347 L14.488,28.618 C14.175,29.828 13.885,31.074 13.621,32.355 L33.478,24.077 C33.553,24.046 33.63,24.044 33.706,24.032" id="Fill-622" fill="#F0C419" sketch:type="MSShapeGroup"></path>
            <path d="M34.652,35.073 C34.575,33.938 34.485,32.685 34.379,31.344 L12.374,40.565 C12.233,42.01 12.127,43.488 12.065,45 L34.598,35.085 C34.615,35.077 34.634,35.08 34.652,35.073" id="Fill-623" fill="#F0C419" sketch:type="MSShapeGroup"></path>
            <path d="M12.905,48.038 C16.264,47.838 28.111,46.769 34.516,41.494 C34.826,41.239 34.987,40.852 34.967,40.451 C34.936,39.799 34.877,38.661 34.787,37.186 L12.011,47.207 C12.023,47.684 12.424,48.067 12.905,48.038" id="Fill-624" fill="#F4E6CE" sketch:type="MSShapeGroup"></path>
            <path d="M31.635,10.14 L18.559,16.814 C18.088,17.891 17.625,19.018 17.175,20.194 L32.217,13.135 C32.034,12.101 31.841,11.097 31.635,10.14" id="Fill-625" fill="#F0C419" sketch:type="MSShapeGroup"></path>
            <path d="M33.913,26.063 L13.169,34.709 C12.966,35.876 12.788,37.071 12.633,38.289 L34.205,29.249 C34.117,28.217 34.019,27.152 33.913,26.063" id="Fill-626" fill="#F0C419" sketch:type="MSShapeGroup"></path>
            <path d="M32.561,15.183 L16.212,22.856 C15.851,23.913 15.504,25.005 15.173,26.132 L33.016,18.281 C32.873,17.234 32.721,16.199 32.561,15.183" id="Fill-627" fill="#F0C419" sketch:type="MSShapeGroup"></path>
            <path d="M31.169,8.14 C31.158,8.145 31.147,8.144 31.136,8.149 L19.914,13.877 C19.46,14.808 19.007,15.79 18.559,16.814 L31.635,10.14 C31.486,9.446 31.33,8.781 31.169,8.14" id="Fill-628" fill="#0096E6" sketch:type="MSShapeGroup"></path>
            <path d="M32.217,13.135 L17.175,20.194 C16.846,21.055 16.524,21.942 16.212,22.856 L32.561,15.183 C32.451,14.489 32.336,13.806 32.217,13.135" id="Fill-629" fill="#ED7161" sketch:type="MSShapeGroup"></path>
            <path d="M33.016,18.281 L15.173,26.132 C14.935,26.943 14.706,27.771 14.488,28.618 L33.283,20.347 C33.197,19.657 33.109,18.967 33.016,18.281" id="Fill-630" fill="#0096E6" sketch:type="MSShapeGroup"></path>
            <path d="M33.706,24.032 C33.63,24.044 33.553,24.046 33.478,24.077 L13.621,32.355 C13.461,33.128 13.309,33.911 13.169,34.709 L33.913,26.063 C33.847,25.392 33.779,24.715 33.706,24.032" id="Fill-631" fill="#ED7161" sketch:type="MSShapeGroup"></path>
            <path d="M34.205,29.249 L12.633,38.289 C12.537,39.039 12.45,39.796 12.374,40.565 L34.379,31.344 C34.326,30.667 34.267,29.964 34.205,29.249" id="Fill-632" fill="#0096E6" sketch:type="MSShapeGroup"></path>
            <path d="M34.598,35.085 L12.065,45 C12.035,45.717 12.014,46.442 12.004,47.174 C12.004,47.186 12.01,47.196 12.011,47.207 L34.787,37.186 C34.748,36.542 34.703,35.837 34.652,35.073 C34.634,35.08 34.615,35.077 34.598,35.085" id="Fill-633" fill="#ED7161" sketch:type="MSShapeGroup"></path>
        </g>
    </g>
</svg>