<?xml version="1.0" encoding="UTF-8" standalone="no"?>
<svg width="40px" height="58px" viewBox="0 0 40 58" version="1.1" xmlns="http://www.w3.org/2000/svg" xmlns:xlink="http://www.w3.org/1999/xlink" xmlns:sketch="http://www.bohemiancoding.com/sketch/ns">
    <!-- Generator: Sketch 3.2.2 (9983) - http://www.bohemiancoding.com/sketch -->
    <title>37 - Passport (Flat)</title>
    <desc>Created with Sketch.</desc>
    <defs></defs>
    <g id="Page-1" stroke="none" stroke-width="1" fill="none" fill-rule="evenodd" sketch:type="MSPage">
        <g id="37---Passport-(Flat)" sketch:type="MSLayerGroup">
            <path d="M36.19,58 L0,58 L0,0 L36.19,0 C38.294,0 40,1.706 40,3.81 L40,54.19 C40,56.294 38.294,58 36.19,58" id="Fill-169" fill="#556080" sketch:type="MSShapeGroup"></path>
            <path d="M36,22 C36,30.837 28.837,38 20,38 C11.163,38 4,30.837 4,22 C4,13.163 11.163,6 20,6 C28.837,6 36,13.163 36,22 L36,22 Z M20,38 L20,6 L20,38 Z M20,6 C19.878,6 19.757,6.007 19.635,6.009 C14.979,9.781 12,15.541 12,22 C12,28.459 14.979,34.219 19.635,37.991 C19.757,37.994 19.878,38 20,38 L20,6 Z M8.399,10.988 C11.702,13.248 15.696,14.571 20,14.571 C24.304,14.571 28.298,13.248 31.601,10.988 M31.921,32.669 C28.557,30.272 24.445,28.857 20,28.857 C15.555,28.857 11.443,30.272 8.079,32.669 M20,38 C20.122,38 20.243,37.994 20.365,37.991 C25.021,34.219 28,28.459 28,22 C28,15.541 25.021,9.781 20.365,6.009 C20.243,6.007 20.122,6 20,6 L20,38 Z M4,22 L36,22 L4,22 Z" id="Stroke-170" stroke="#F0C419" stroke-width="2" stroke-linecap="round" sketch:type="MSShapeGroup"></path>
            <path d="M5,45 L35,45 M5,50 L35,50" id="Stroke-171" stroke="#CBB292" stroke-width="2" stroke-linecap="round" sketch:type="MSShapeGroup"></path>
        </g>
    </g>
</svg>