<?xml version="1.0" encoding="UTF-8" standalone="no"?>
<svg width="60px" height="58px" viewBox="0 0 60 58" version="1.1" xmlns="http://www.w3.org/2000/svg" xmlns:xlink="http://www.w3.org/1999/xlink" xmlns:sketch="http://www.bohemiancoding.com/sketch/ns">
    <!-- Generator: Sketch 3.2.2 (9983) - http://www.bohemiancoding.com/sketch -->
    <title>39 - Plane (Flat)</title>
    <desc>Created with Sketch.</desc>
    <defs></defs>
    <g id="Page-1" stroke="none" stroke-width="1" fill="none" fill-rule="evenodd" sketch:type="MSPage">
        <g id="39---Plane-(Flat)" sketch:type="MSLayerGroup">
            <path d="M9,26.812 L9,24.5 C9,23.119 7.881,22 6.5,22 C5.119,22 4,23.119 4,24.5 L4,30.217 L9,26.812" id="Fill-157" fill="#BDC3C7" sketch:type="MSShapeGroup"></path>
            <path d="M18,20.684 L18,17.5 C18,16.119 16.881,15 15.5,15 C14.119,15 13,16.119 13,17.5 L13,24 L13.13,24 L18,20.684" id="Fill-158" fill="#BDC3C7" sketch:type="MSShapeGroup"></path>
            <path d="M51,26.812 L51,24.5 C51,23.119 52.119,22 53.5,22 C54.881,22 56,23.119 56,24.5 L56,30.217 L51,26.812" id="Fill-159" fill="#BDC3C7" sketch:type="MSShapeGroup"></path>
            <path d="M42,20.684 L42,17.5 C42,16.119 43.119,15 44.5,15 C45.881,15 47,16.119 47,17.5 L47,24 L46.87,24 L42,20.684" id="Fill-160" fill="#BDC3C7" sketch:type="MSShapeGroup"></path>
            <path d="M59.109,31.127 L37.003,17.485 L37.005,19.28 C37.008,21.425 36.981,27.068 36.678,33.141 L36.663,34.072 L37.584,34.187 C44.463,35.039 52.26,36.006 57.611,39.483 L57.892,39.609 C58.036,39.648 58.185,39.669 58.333,39.669 C58.772,39.669 59.186,39.499 59.501,39.19 C59.823,38.874 60,38.452 60,38 L60,32.604 C60,31.986 59.652,31.414 59.109,31.127" id="Fill-161" fill="#DADEE0" sketch:type="MSShapeGroup"></path>
            <path d="M22.995,19.28 L22.997,17.485 L0.891,31.127 C0.348,31.414 0,31.986 0,32.604 L0,38 C0,38.92 0.748,39.669 1.667,39.669 C1.815,39.669 1.964,39.648 2.108,39.609 L2.389,39.483 C7.74,36.006 15.537,35.039 22.446,34.183 L23.368,34.068 L23.322,33.141 C23.019,27.068 22.992,21.425 22.995,19.28" id="Fill-162" fill="#DADEE0" sketch:type="MSShapeGroup"></path>
            <path d="M29.736,47.11 C29.881,46.963 30.119,46.963 30.264,47.11 L36.243,50.258 C38.198,39.036 38,15 38,15 C38,10.992 37.16,8.029 36.269,5.953 C35.238,3.55 32.745,0 30,0 C27.255,0 24.762,3.55 23.731,5.953 C22.84,8.029 22,10.992 22,15 C22,15 21.802,39.036 23.757,50.258 L29.736,47.11" id="Fill-548" fill="#E6E7E8" sketch:type="MSShapeGroup"></path>
            <path d="M26,11 L28.345,8.655 C29.259,7.741 30.741,7.741 31.655,8.655 L34,11" id="Stroke-549" stroke="#FFFFFF" stroke-width="2" stroke-linecap="round" sketch:type="MSShapeGroup"></path>
            <path d="M41.874,53.222 L30.264,47.11 C30.119,46.963 29.881,46.963 29.736,47.11 L18.126,53.222 C18.046,53.296 18,53.4 18,53.509 L18,57.61 C18,57.921 18.347,58.107 18.606,57.934 L29.807,54.118 C29.925,54.045 30.075,54.045 30.193,54.118 L41.394,57.934 C41.653,58.107 42,57.921 42,57.61 L42,53.509 C42,53.4 41.954,53.296 41.874,53.222" id="Fill-550" fill="#556080" sketch:type="MSShapeGroup"></path>
        </g>
    </g>
</svg>