<?xml version="1.0" encoding="UTF-8" standalone="no"?>
<svg width="58px" height="52px" viewBox="0 0 58 52" version="1.1" xmlns="http://www.w3.org/2000/svg" xmlns:xlink="http://www.w3.org/1999/xlink" xmlns:sketch="http://www.bohemiancoding.com/sketch/ns">
    <!-- Generator: Sketch 3.2.2 (9983) - http://www.bohemiancoding.com/sketch -->
    <title>1 - Postcards (Flat)</title>
    <desc>Created with Sketch.</desc>
    <defs></defs>
    <g id="Page-1" stroke="none" stroke-width="1" fill="none" fill-rule="evenodd" sketch:type="MSPage">
        <g id="1---Postcards-(Flat)" sketch:type="MSLayerGroup">
            <path d="M55.051,12 L51.835,0 L7.051,12 L55.051,12" id="Fill-462" fill="#FBD490" sketch:type="MSShapeGroup"></path>
            <path d="M0,12 L0,16 L3,16 C3.553,16 4,16.447 4,17 C4,17.553 3.553,18 3,18 L0,18 L0,21 L3,21 C3.553,21 4,21.447 4,22 C4,22.553 3.553,23 3,23 L0,23 L0,26 L3,26 C3.553,26 4,26.447 4,27 C4,27.553 3.553,28 3,28 L0,28 L0,31 L3,31 C3.553,31 4,31.447 4,32 C4,32.553 3.553,33 3,33 L0,33 L0,36 L3,36 C3.553,36 4,36.447 4,37 C4,37.553 3.553,38 3,38 L0,38 L0,41 L3,41 C3.553,41 4,41.447 4,42 C4,42.553 3.553,43 3,43 L0,43 L0,46 L3,46 C3.553,46 4,46.447 4,47 C4,47.553 3.553,48 3,48 L0,48 L0,52 L58,52 L58,12 L0,12" id="Fill-463" fill="#ECF0F1" sketch:type="MSShapeGroup"></path>
            <path d="M4,47 C4,46.447 3.553,46 3,46 L0,46 L0,48 L3,48 C3.553,48 4,47.553 4,47" id="Fill-464" fill="#ED7161" sketch:type="MSShapeGroup"></path>
            <path d="M4,42 C4,41.447 3.553,41 3,41 L0,41 L0,43 L3,43 C3.553,43 4,42.553 4,42" id="Fill-465" fill="#48A0DC" sketch:type="MSShapeGroup"></path>
            <path d="M4,37 C4,36.447 3.553,36 3,36 L0,36 L0,38 L3,38 C3.553,38 4,37.553 4,37" id="Fill-466" fill="#ED7161" sketch:type="MSShapeGroup"></path>
            <path d="M4,32 C4,31.447 3.553,31 3,31 L0,31 L0,33 L3,33 C3.553,33 4,32.553 4,32" id="Fill-467" fill="#48A0DC" sketch:type="MSShapeGroup"></path>
            <path d="M4,27 C4,26.447 3.553,26 3,26 L0,26 L0,28 L3,28 C3.553,28 4,27.553 4,27" id="Fill-468" fill="#ED7161" sketch:type="MSShapeGroup"></path>
            <path d="M4,22 C4,21.447 3.553,21 3,21 L0,21 L0,23 L3,23 C3.553,23 4,22.553 4,22" id="Fill-469" fill="#48A0DC" sketch:type="MSShapeGroup"></path>
            <path d="M4,17 C4,16.447 3.553,16 3,16 L0,16 L0,18 L3,18 C3.553,18 4,17.553 4,17" id="Fill-470" fill="#ED7161" sketch:type="MSShapeGroup"></path>
            <path d="M29,18 L29,46 M41,41 L53,41 M39,45 L53,45" id="Stroke-637" stroke="#BDC3C7" stroke-width="2" sketch:type="MSShapeGroup"></path>
            <path d="M44,19 L52,19 L52,27 L44,27 L44,19 Z" id="Fill-638" fill="#81CCB8" sketch:type="MSShapeGroup"></path>
        </g>
    </g>
</svg>