<?xml version="1.0" encoding="UTF-8" standalone="no"?>
<svg width="56px" height="60px" viewBox="0 0 56 60" version="1.1" xmlns="http://www.w3.org/2000/svg" xmlns:xlink="http://www.w3.org/1999/xlink" xmlns:sketch="http://www.bohemiancoding.com/sketch/ns">
    <!-- Generator: Sketch 3.2.2 (9983) - http://www.bohemiancoding.com/sketch -->
    <title>30 - Room Service (Flat)</title>
    <desc>Created with Sketch.</desc>
    <defs></defs>
    <g id="Page-1" stroke="none" stroke-width="1" fill="none" fill-rule="evenodd" sketch:type="MSPage">
        <g id="30---Room-Service-(Flat)" sketch:type="MSLayerGroup" transform="translate(0.000000, 1.000000)">
            <path d="M34,48 C32.343,48 31,46.657 31,45 C31,46.657 29.657,48 28,48 C26.343,48 25,46.657 25,45 C25,46.657 23.657,48 22,48 C20.343,48 19,46.657 19,45 C19,46.657 17.657,48 16,48 C14.343,48 13,46.657 13,45 C13,46.657 11.657,48 10,48 C8.343,48 7,46.657 7,45 L7,55 L9,55 C9,53.343 10.343,52 12,52 C13.657,52 15,53.343 15,55 L29,55 C29,53.343 30.343,52 32,52 C33.657,52 35,53.343 35,55 L37,55 L37,45 C37,46.657 35.657,48 34,48" id="Fill-243" fill="#556080" sketch:type="MSShapeGroup"></path>
            <path d="M7,23 L7,45 C7,46.657 8.343,48 10,48 C11.657,48 13,46.657 13,45 C13,46.657 14.343,48 16,48 C17.657,48 19,46.657 19,45 C19,46.657 20.343,48 22,48 C23.657,48 25,46.657 25,45 C25,46.657 26.343,48 28,48 C29.657,48 31,46.657 31,45 C31,46.657 32.343,48 34,48 C35.657,48 37,46.657 37,45 L37,23 L7,23 L7,23 Z" id="Fill-570" fill="#ECF0F1" sketch:type="MSShapeGroup"></path>
            <path d="M7,23 L7,45 C7,46.657 8.343,48 10,48 C11.657,48 13,46.657 13,45 C13,46.657 14.343,48 16,48 C17.657,48 19,46.657 19,45 C19,46.657 20.343,48 22,48 C23.657,48 25,46.657 25,45 C25,46.657 26.343,48 28,48 C29.657,48 31,46.657 31,45 C31,46.657 32.343,48 34,48 C35.657,48 37,46.657 37,45 L37,23 L7,23 L7,23 Z" id="Stroke-571" stroke="#FFFFFF" stroke-width="2" stroke-linejoin="round" sketch:type="MSShapeGroup"></path>
            <path d="M13,45 L13,37" id="Fill-572" fill="#ECF0F1" sketch:type="MSShapeGroup"></path>
            <path d="M13,45 L13,37" id="Stroke-573" stroke="#FFFFFF" stroke-width="2" stroke-linecap="round" sketch:type="MSShapeGroup"></path>
            <path d="M19,45 L19,40" id="Fill-574" fill="#ECF0F1" sketch:type="MSShapeGroup"></path>
            <path d="M19,45 L19,40" id="Stroke-575" stroke="#FFFFFF" stroke-width="2" stroke-linecap="round" sketch:type="MSShapeGroup"></path>
            <path d="M25,45 L25,34" id="Fill-576" fill="#ECF0F1" sketch:type="MSShapeGroup"></path>
            <path d="M25,45 L25,34" id="Stroke-577" stroke="#FFFFFF" stroke-width="2" stroke-linecap="round" sketch:type="MSShapeGroup"></path>
            <path d="M31,45 L31,40" id="Fill-578" fill="#ECF0F1" sketch:type="MSShapeGroup"></path>
            <path d="M31,45 L31,40" id="Stroke-579" stroke="#FFFFFF" stroke-width="2" stroke-linecap="round" sketch:type="MSShapeGroup"></path>
            <path d="M8,20 C8,12.268 14.268,6 22,6 C29.732,6 36,12.268 36,20 L8,20 L8,20 Z" id="Fill-580" fill="#BDC3C7" sketch:type="MSShapeGroup"></path>
            <path d="M8,20 C8,12.268 14.268,6 22,6 C29.732,6 36,12.268 36,20 L8,20 L8,20 Z" id="Stroke-581" stroke="#ECF0F1" stroke-width="2" sketch:type="MSShapeGroup"></path>
            <path d="M25,3 C25,4.657 23.657,6 22,6 C20.343,6 19,4.657 19,3 C19,1.343 20.343,0 22,0 C23.657,0 25,1.343 25,3 L25,3 Z" id="Stroke-582" stroke="#BDC3C7" stroke-width="2" sketch:type="MSShapeGroup"></path>
            <path d="M3,20 L41,20 L41,24 L3,24 L3,20 Z" id="Fill-583" fill="#7F6E5D" sketch:type="MSShapeGroup"></path>
            <path d="M52,10 C49.794,10 48,11.794 48,14 C48,14.182 48.03,14.356 48.054,14.532 L43.586,19 L1,19 C0.448,19 0,19.448 0,20 C0,20.552 0.448,21 1,21 L44,21 C44.13,21 44.26,20.973 44.382,20.923 C44.505,20.872 44.615,20.799 44.707,20.707 L48.908,16.506 C49.642,17.41 50.748,18 52,18 C54.206,18 56,16.206 56,14 C56,11.794 54.206,10 52,10 L52,10 Z M52,16 C50.897,16 50,15.103 50,14 C50,12.897 50.897,12 52,12 C53.103,12 54,12.897 54,14 C54,15.103 53.103,16 52,16 L52,16 Z" id="Fill-584" fill="#546A79" sketch:type="MSShapeGroup"></path>
            <path d="M15,55 C15,56.657 13.657,58 12,58 C10.343,58 9,56.657 9,55 C9,53.343 10.343,52 12,52 C13.657,52 15,53.343 15,55 L15,55 Z" id="Fill-585" fill="#546A79" sketch:type="MSShapeGroup"></path>
            <path d="M15,55 C15,56.657 13.657,58 12,58 C10.343,58 9,56.657 9,55 C9,53.343 10.343,52 12,52 C13.657,52 15,53.343 15,55 L15,55 Z" id="Stroke-586" stroke="#BDC3C7" stroke-width="2" sketch:type="MSShapeGroup"></path>
            <path d="M35,55 C35,56.657 33.657,58 32,58 C30.343,58 29,56.657 29,55 C29,53.343 30.343,52 32,52 C33.657,52 35,53.343 35,55 L35,55 Z" id="Fill-587" fill="#546A79" sketch:type="MSShapeGroup"></path>
            <path d="M35,55 C35,56.657 33.657,58 32,58 C30.343,58 29,56.657 29,55 C29,53.343 30.343,52 32,52 C33.657,52 35,53.343 35,55 L35,55 Z" id="Stroke-588" stroke="#BDC3C7" stroke-width="2" sketch:type="MSShapeGroup"></path>
            <path d="M15,55 C15,56.657 13.657,58 12,58 C10.343,58 9,56.657 9,55 C9,53.343 10.343,52 12,52 C13.657,52 15,53.343 15,55 L15,55 Z" id="Fill-589" fill="#546A79" sketch:type="MSShapeGroup"></path>
            <path d="M15,55 C15,56.657 13.657,58 12,58 C10.343,58 9,56.657 9,55 C9,53.343 10.343,52 12,52 C13.657,52 15,53.343 15,55 L15,55 Z" id="Stroke-590" stroke="#BDC3C7" stroke-width="2" sketch:type="MSShapeGroup"></path>
            <path d="M35,55 C35,56.657 33.657,58 32,58 C30.343,58 29,56.657 29,55 C29,53.343 30.343,52 32,52 C33.657,52 35,53.343 35,55 L35,55 Z" id="Fill-591" fill="#546A79" sketch:type="MSShapeGroup"></path>
            <path d="M35,55 C35,56.657 33.657,58 32,58 C30.343,58 29,56.657 29,55 C29,53.343 30.343,52 32,52 C33.657,52 35,53.343 35,55 L35,55 Z" id="Stroke-592" stroke="#BDC3C7" stroke-width="2" sketch:type="MSShapeGroup"></path>
        </g>
    </g>
</svg>