<?xml version="1.0" encoding="UTF-8" standalone="no"?>
<svg width="42px" height="57px" viewBox="0 0 42 57" version="1.1" xmlns="http://www.w3.org/2000/svg" xmlns:xlink="http://www.w3.org/1999/xlink" xmlns:sketch="http://www.bohemiancoding.com/sketch/ns">
    <!-- Generator: Sketch 3.2.2 (9983) - http://www.bohemiancoding.com/sketch -->
    <title>13 - Sand Toys (Flat)</title>
    <desc>Created with Sketch.</desc>
    <defs></defs>
    <g id="Page-1" stroke="none" stroke-width="1" fill="none" fill-rule="evenodd" sketch:type="MSPage">
        <g id="13---Sand-Toys-(Flat)" sketch:type="MSLayerGroup">
            <path d="M1.739,32 L4.932,55.152 C5.079,56.211 5.984,57 7.053,57 L24.425,57 C25.494,57 26.4,56.211 26.546,55.152 L29.739,32 L1.739,32" id="Fill-111" fill="#7D6599" sketch:type="MSShapeGroup"></path>
            <path d="M27.739,22 C26.921,22 26.219,22.369 25.909,23.913 C25.871,22.93 25.518,22 23.739,22 C22.958,22 22.252,22.536 21.719,23.166 C21.609,19.74 19.431,17 16.739,17 C14.443,17 12.529,19.001 11.942,21.712 C11.31,21.174 10.554,20.857 9.739,20.857 C8.163,20.857 6.814,22.039 6.162,23.742 C5.616,22.777 4.738,22.143 3.739,22.143 C2.082,22.143 0.739,23.87 0.739,26 L29.739,26 C29.739,24.58 29.572,22 27.739,22" id="Fill-112" fill="#F4E6CE" sketch:type="MSShapeGroup"></path>
            <path d="M38.664,35.609 C37.513,34.464 34.39,31.907 32,30.172 L32,27.723 C32,26.771 31.229,26 30.277,26 L1.723,26 C0.771,26 0,26.771 0,27.723 L0,30.277 C0,31.229 0.771,32 1.723,32 L30.277,32 C30.51,32 30.731,31.953 30.933,31.869 C33.206,33.528 36.181,35.96 37.253,37.027 C41.501,41.257 40.236,46.496 37.264,49.574 C34.264,52.679 29.028,54.142 24.616,50.008 C22.66,48.175 21.194,46.169 20.37,44.923 C21.885,44.317 22.961,42.84 22.961,41.111 C22.961,38.845 21.117,37 18.851,37 C16.584,37 14.739,38.845 14.739,41.111 C14.739,43.136 16.215,44.814 18.144,45.151 C18.8,46.234 20.579,48.965 23.249,51.467 C25.549,53.623 28.12,54.532 30.599,54.532 C33.677,54.532 36.61,53.129 38.702,50.964 C42.334,47.203 43.871,40.795 38.664,35.609 L38.664,35.609 Z M16.739,41.111 C16.739,39.947 17.686,39 18.851,39 C20.015,39 20.961,39.947 20.961,41.111 C20.961,42.275 20.015,43.223 18.851,43.223 C17.686,43.223 16.739,42.275 16.739,41.111 L16.739,41.111 Z" id="Fill-113" fill="#9777A8" sketch:type="MSShapeGroup"></path>
            <path d="M9.739,20.857 C10.554,20.857 11.31,21.174 11.942,21.712 C12.177,20.627 12.632,19.665 13.231,18.89 L11.061,5.956 L6.171,7 L8.586,21.079 C8.95,20.936 9.337,20.857 9.739,20.857" id="Fill-115" fill="#24AE5F" sketch:type="MSShapeGroup"></path>
            <path d="M12.463,0.244 C13.681,-0.016 14.813,0.978 14.699,2.218 C14.398,5.519 12.156,8.612 8.882,9.31 C5.609,10.009 2.3,8.102 0.676,5.211 C0.067,4.125 0.694,2.756 1.912,2.496 L12.463,0.244" id="Fill-114" fill="#13A085" sketch:type="MSShapeGroup"></path>
        </g>
    </g>
</svg>