<?xml version="1.0" encoding="UTF-8" standalone="no"?>
<svg width="58px" height="59px" viewBox="0 0 58 59" version="1.1" xmlns="http://www.w3.org/2000/svg" xmlns:xlink="http://www.w3.org/1999/xlink" xmlns:sketch="http://www.bohemiancoding.com/sketch/ns">
    <!-- Generator: Sketch 3.2.2 (9983) - http://www.bohemiancoding.com/sketch -->
    <title>23 - Sand Castle (Flat)</title>
    <desc>Created with Sketch.</desc>
    <defs></defs>
    <g id="Page-1" stroke="none" stroke-width="1" fill="none" fill-rule="evenodd" sketch:type="MSPage">
        <g id="23---Sand-Castle-(Flat)" sketch:type="MSLayerGroup">
            <path d="M2,24 L18,24 L18,59 L2,59 L2,24 Z" id="Fill-289" fill="#F4E6CE" sketch:type="MSShapeGroup"></path>
            <path d="M40,24 L56,24 L56,59 L40,59 L40,24 Z" id="Fill-290" fill="#F4E6CE" sketch:type="MSShapeGroup"></path>
            <path d="M16,15 L16,19 L12,19 L12,15 L8,15 L8,19 L4,19 L4,15 L0,15 L0,24 L20,24 L20,15 L16,15" id="Fill-291" fill="#ECF0F1" sketch:type="MSShapeGroup"></path>
            <path d="M54,15 L54,19 L50,19 L50,15 L46,15 L46,19 L42,19 L42,15 L38,15 L38,24 L58,24 L58,15 L54,15" id="Fill-292" fill="#ECF0F1" sketch:type="MSShapeGroup"></path>
            <path d="M35,32 L35,23 L31,23 L31,27 L27,27 L27,23 L23,23 L23,32 L18,32 L18,59 L40,59 L40,32 L35,32" id="Fill-293" fill="#ECF0F1" sketch:type="MSShapeGroup"></path>
            <path d="M35,59 L23,59 L23,43 C23,39.686 25.686,37 29,37 C32.314,37 35,39.686 35,43 L35,59" id="Fill-294" fill="#FBD490" sketch:type="MSShapeGroup"></path>
            <path d="M14,59 L6,59 L6,48 C6,45.791 7.791,44 10,44 C12.209,44 14,45.791 14,48 L14,59" id="Fill-295" fill="#FBD490" sketch:type="MSShapeGroup"></path>
            <path d="M52,59 L44,59 L44,48 C44,45.791 45.791,44 48,44 C50.209,44 52,45.791 52,48 L52,59" id="Fill-296" fill="#FBD490" sketch:type="MSShapeGroup"></path>
            <path d="M10,1 L19,5 C19.04,5.017 19.04,5.074 19,5.091 L10,9 L10,1" id="Fill-297" fill="#A4E869" sketch:type="MSShapeGroup"></path>
            <path d="M48,1 L56.97,5 C57.01,5.017 57.01,5.074 56.97,5.091 L48,9 L48,1" id="Fill-298" fill="#ED7161" sketch:type="MSShapeGroup"></path>
            <path d="M6,30 L14,30 L14,37 L6,37 L6,30 Z" id="Fill-299" fill="#FBD490" sketch:type="MSShapeGroup"></path>
            <path d="M44,30 L52,30 L52,37 L44,37 L44,30 Z" id="Fill-300" fill="#FBD490" sketch:type="MSShapeGroup"></path>
            <path d="M49,15 L49,1 C49,0.448 48.553,0 48,0 C47.447,0 47,0.448 47,1 L47,15 L49,15" id="Fill-606" fill="#546A79" sketch:type="MSShapeGroup"></path>
            <path d="M11,15 L11,1 C11,0.448 10.553,0 10,0 C9.447,0 9,0.448 9,1 L9,15 L11,15" id="Fill-607" fill="#546A79" sketch:type="MSShapeGroup"></path>
        </g>
    </g>
</svg>