<?xml version="1.0" encoding="UTF-8" standalone="no"?>
<svg width="55px" height="59px" viewBox="0 0 55 59" version="1.1" xmlns="http://www.w3.org/2000/svg" xmlns:xlink="http://www.w3.org/1999/xlink" xmlns:sketch="http://www.bohemiancoding.com/sketch/ns">
    <!-- Generator: Sketch 3.2.2 (9983) - http://www.bohemiancoding.com/sketch -->
    <title>9 - Scuba Diving Gear (Flat)</title>
    <desc>Created with Sketch.</desc>
    <defs></defs>
    <g id="Page-1" stroke="none" stroke-width="1" fill="none" fill-rule="evenodd" sketch:type="MSPage">
        <g id="9---Scuba-Diving-Gear-(Flat)" sketch:type="MSLayerGroup">
            <path d="M25,49 C11.215,49 0,38.906 0,26.5 C0,14.094 11.215,4 25,4 C38.785,4 50,14.094 50,26.5 C50,38.906 38.785,49 25,49" id="Fill-17" fill="#546A79" sketch:type="MSShapeGroup"></path>
            <path d="M25,49 C11.215,49 0,38.906 0,26.5 C0,14.094 11.215,4 25,4 C38.785,4 50,14.094 50,26.5 C50,38.906 38.785,49 25,49" id="Fill-17" fill="#546A79" sketch:type="MSShapeGroup"></path>
            <path d="M25,4 C28.551,4 31.928,4.674 34.99,5.88 C34.882,2.622 30.455,0 25,0 C19.545,0 15.117,2.622 15.01,5.88 C18.072,4.674 21.449,4 25,4" id="Fill-350" fill="#38454F" sketch:type="MSShapeGroup"></path>
            <path d="M25,11 C15.075,11 7,17.953 7,26.5 C7,33.624 12.617,39.625 20.233,41.431 C20.096,40.975 20,40.501 20,40 C20,37.239 22.239,35 25,35 C27.761,35 30,37.239 30,40 C30,40.501 29.904,40.975 29.767,41.431 C37.383,39.625 43,33.624 43,26.5 C43,17.953 34.925,11 25,11" id="Fill-18" fill="#ECF0F1" sketch:type="MSShapeGroup"></path>
            <path d="M25,4 C28.551,4 31.928,4.674 34.99,5.88 C34.882,2.622 30.455,0 25,0 C19.545,0 15.117,2.622 15.01,5.88 C18.072,4.674 21.449,4 25,4" id="Fill-350" fill="#38454F" sketch:type="MSShapeGroup"></path>
            <path d="M14,22 C14.256,22 14.512,21.902 14.707,21.707 L18.707,17.707 C19.098,17.316 19.098,16.684 18.707,16.293 C18.316,15.902 17.684,15.902 17.293,16.293 L13.293,20.293 C12.902,20.684 12.902,21.316 13.293,21.707 C13.488,21.902 13.744,22 14,22" id="Fill-351" fill="#FFFFFF" sketch:type="MSShapeGroup"></path>
            <path d="M17.29,21.29 C17.11,21.48 17,21.74 17,22 C17,22.26 17.11,22.519 17.29,22.71 C17.48,22.89 17.74,23 18,23 C18.26,23 18.52,22.89 18.71,22.71 C18.89,22.519 19,22.26 19,22 C19,21.74 18.89,21.48 18.71,21.29 C18.34,20.92 17.66,20.92 17.29,21.29" id="Fill-352" fill="#FFFFFF" sketch:type="MSShapeGroup"></path>
            <path d="M25,21 C25.26,21 25.52,20.89 25.71,20.71 C25.89,20.52 26,20.26 26,20 C26,19.74 25.89,19.48 25.71,19.29 C25.34,18.92 24.66,18.92 24.29,19.29 C24.11,19.48 24,19.73 24,20 C24,20.269 24.11,20.52 24.29,20.71 C24.48,20.89 24.74,21 25,21" id="Fill-353" fill="#FFFFFF" sketch:type="MSShapeGroup"></path>
            <path d="M27,19 C27.256,19 27.512,18.902 27.707,18.707 L28.707,17.707 C29.098,17.316 29.098,16.684 28.707,16.293 C28.316,15.902 27.684,15.902 27.293,16.293 L26.293,17.293 C25.902,17.684 25.902,18.316 26.293,18.707 C26.488,18.902 26.744,19 27,19" id="Fill-354" fill="#FFFFFF" sketch:type="MSShapeGroup"></path>
            <path d="M27.293,21.293 L25.293,23.293 C24.902,23.684 24.902,24.316 25.293,24.707 C25.488,24.902 25.744,25 26,25 C26.256,25 26.512,24.902 26.707,24.707 L28.707,22.707 C29.098,22.316 29.098,21.684 28.707,21.293 C28.316,20.902 27.684,20.902 27.293,21.293" id="Fill-355" fill="#FFFFFF" sketch:type="MSShapeGroup"></path>
            <path d="M23.29,25.29 C23.11,25.48 23,25.74 23,26 C23,26.26 23.11,26.52 23.29,26.71 C23.48,26.89 23.74,27 24,27 C24.26,27 24.52,26.89 24.71,26.71 C24.89,26.52 25,26.26 25,26 C25,25.73 24.89,25.48 24.71,25.29 C24.33,24.92 23.66,24.92 23.29,25.29" id="Fill-356" fill="#FFFFFF" sketch:type="MSShapeGroup"></path>
            <path d="M21.293,27.293 L18.293,30.293 C17.902,30.684 17.902,31.316 18.293,31.707 C18.488,31.902 18.744,32 19,32 C19.256,32 19.512,31.902 19.707,31.707 L22.707,28.707 C23.098,28.316 23.098,27.684 22.707,27.293 C22.316,26.902 21.684,26.902 21.293,27.293" id="Fill-357" fill="#FFFFFF" sketch:type="MSShapeGroup"></path>
            <path d="M17.71,27.29 C17.33,26.92 16.66,26.92 16.29,27.29 C16.11,27.48 16,27.74 16,28 C16,28.26 16.11,28.519 16.29,28.71 C16.48,28.89 16.74,29 17,29 C17.26,29 17.52,28.89 17.71,28.71 C17.89,28.519 18,28.26 18,28 C18,27.73 17.89,27.48 17.71,27.29" id="Fill-358" fill="#FFFFFF" sketch:type="MSShapeGroup"></path>
            <path d="M14.293,29.293 L13.293,30.293 C12.902,30.684 12.902,31.316 13.293,31.707 C13.488,31.902 13.744,32 14,32 C14.256,32 14.512,31.902 14.707,31.707 L15.707,30.707 C16.098,30.316 16.098,29.684 15.707,29.293 C15.316,28.902 14.684,28.902 14.293,29.293" id="Fill-359" fill="#FFFFFF" sketch:type="MSShapeGroup"></path>
            <path d="M30,40 C30,42.761 27.761,45 25,45 C22.239,45 20,42.761 20,40 C20,37.239 22.239,35 25,35 C27.761,35 30,37.239 30,40" id="Fill-360" fill="#7F8C8D" sketch:type="MSShapeGroup"></path>
            <path d="M46.358,38.182 C45.961,38.769 45.534,39.337 45.08,39.886 C45.21,39.977 45.355,40.048 45.523,40.068 C49.786,40.58 53,44.205 53,48.5 C53,52.895 49.707,56.53 45.338,56.958 C44.789,57.012 44.387,57.501 44.441,58.051 C44.491,58.567 44.926,58.953 45.435,58.953 C45.467,58.953 45.5,58.951 45.534,58.948 C50.93,58.42 55,53.928 55,48.5 C55,43.397 51.323,39.07 46.358,38.182" id="Fill-647" fill="#38454F" sketch:type="MSShapeGroup"></path>
            <path d="M39.984,44.548 L39.912,44.548 C35.746,47.343 30.584,49 25,49 C19.435,49 14.29,47.354 10.132,44.575 L4.304,50.047 C1.962,52.246 2.122,56.078 4.723,57.964 C4.74,57.976 4.756,57.988 4.773,58 L45.373,58 C45.389,57.988 45.406,57.976 45.422,57.964 C48.024,56.078 48.184,52.246 45.841,50.047 L39.984,44.548" id="Fill-648" fill="#556080" sketch:type="MSShapeGroup"></path>
            <path d="M45.675,48.595 C45.417,48.106 44.814,47.919 44.324,48.176 C42.654,49.056 40.929,49.808 39.17,50.453 L36.426,46.336 L34.762,47.445 L37.215,51.126 C35.753,51.582 34.269,51.952 32.774,52.243 L31.131,48.134 L29.273,48.876 L30.753,52.577 C28.866,52.847 26.968,53 25.073,53 C23.131,53 21.187,52.839 19.255,52.555 L20.737,48.851 L18.879,48.108 L17.237,52.214 C15.746,51.919 14.266,51.551 12.808,51.091 L15.271,47.397 L13.607,46.287 L10.857,50.411 C9.14,49.776 7.454,49.036 5.821,48.176 C5.331,47.919 4.728,48.106 4.47,48.595 C4.213,49.083 4.4,49.688 4.889,49.945 C11.163,53.252 18.143,55 25.073,55 C32.003,55 38.982,53.252 45.257,49.945 C45.746,49.688 45.933,49.083 45.675,48.595" id="Fill-649" fill="#7F8C8D" sketch:type="MSShapeGroup"></path>
            <path d="M24,45 L26,45 L26,54 L24,54 L24,45 Z" id="Fill-650" fill="#38454F" sketch:type="MSShapeGroup"></path>
        </g>
    </g>
</svg>