<?xml version="1.0" encoding="UTF-8" standalone="no"?>
<svg width="55px" height="53px" viewBox="0 0 55 53" version="1.1" xmlns="http://www.w3.org/2000/svg" xmlns:xlink="http://www.w3.org/1999/xlink" xmlns:sketch="http://www.bohemiancoding.com/sketch/ns">
    <!-- Generator: Sketch 3.2.2 (9983) - http://www.bohemiancoding.com/sketch -->
    <title>6 - Scuba Mask (Flat)</title>
    <desc>Created with Sketch.</desc>
    <defs></defs>
    <g id="Page-1" stroke="none" stroke-width="1" fill="none" fill-rule="evenodd" sketch:type="MSPage">
        <g id="6---Scuba-Mask-(Flat)" sketch:type="MSLayerGroup" transform="translate(-1.000000, 0.000000)">
            <path d="M33,53 C32.581,53 32.191,52.735 32.051,52.316 L30.05,46.316 C29.875,45.792 30.159,45.227 30.683,45.052 C31.205,44.876 31.773,45.159 31.948,45.684 L33.949,51.684 C34.123,52.208 33.84,52.773 33.316,52.948 C33.211,52.983 33.105,53 33,53" id="Fill-1" fill="#38454F" sketch:type="MSShapeGroup"></path>
            <path d="M25,53 C24.896,53 24.789,52.983 24.684,52.948 C24.16,52.774 23.876,52.208 24.051,51.684 L26.05,45.684 C26.225,45.16 26.792,44.875 27.315,45.052 C27.839,45.226 28.123,45.792 27.948,46.316 L25.949,52.316 C25.809,52.735 25.419,53 25,53" id="Fill-2" fill="#38454F" sketch:type="MSShapeGroup"></path>
            <path d="M41.783,25.642 C40.913,25.642 40.044,25.6 39.18,25.519 C36.908,25.303 34.755,24.402 32.917,23.049 C31.517,20.694 29.866,18.219 28.907,17.007 L28.095,17.007 C27.137,18.219 25.485,20.694 24.086,23.049 C22.248,24.402 20.094,25.303 17.823,25.519 C16.959,25.6 16.09,25.642 15.22,25.642 C11.12,25.642 7.877,24.719 6.308,24.169 C4.513,23.539 3.057,22.286 2.21,20.64 C-0.358,15.657 1.8,8.565 2.846,5.747 C3.234,4.68 4.033,3.809 5.087,3.32 C11.538,0.324 23.05,0 27.699,0 C28.353,0 28.724,0.008 28.724,0.008 C29.312,0.012 43.967,0.172 51.691,3.232 C52.832,3.681 53.736,4.607 54.164,5.77 C55.205,8.581 57.353,15.67 54.792,20.641 C53.945,22.286 52.489,23.539 50.693,24.169 C49.126,24.719 45.883,25.642 41.783,25.642" id="Fill-11" fill="#546A79" sketch:type="MSShapeGroup"></path>
            <path d="M50.411,7.151 C50.377,7.059 50.309,6.988 50.219,6.952 C43.102,4.13 28.646,4.007 28.646,4.007 C28.646,4.007 13.723,3.719 6.771,6.948 C6.689,6.986 6.628,7.053 6.597,7.138 C6.215,8.168 3.805,15.013 5.769,18.813 C6.155,19.561 6.833,20.114 7.627,20.392 C9.59,21.082 14.307,22.345 20.033,21.144 C20.421,21.063 20.757,20.821 20.963,20.482 C22.046,18.701 25.592,13.007 26.646,13.007 L30.356,13.007 C31.411,13.007 34.957,18.701 36.039,20.482 C36.246,20.821 36.581,21.063 36.969,21.144 C42.696,22.345 47.412,21.082 49.375,20.392 C50.169,20.114 50.847,19.561 51.234,18.813 C53.189,15.028 50.808,8.224 50.411,7.151" id="Fill-12" fill="#D0E8F9" sketch:type="MSShapeGroup"></path>
            <path d="M9.646,13.642 C9.391,13.642 9.135,13.544 8.939,13.349 C8.549,12.958 8.549,12.325 8.939,11.935 L12.94,7.935 C13.33,7.544 13.963,7.544 14.353,7.935 C14.744,8.325 14.744,8.958 14.353,9.349 L10.353,13.349 C10.158,13.544 9.902,13.642 9.646,13.642" id="Fill-385" fill="#FFFFFF" sketch:type="MSShapeGroup"></path>
            <path d="M13.646,16.642 C13.391,16.642 13.135,16.544 12.94,16.349 C12.549,15.958 12.549,15.325 12.94,14.935 L19.939,7.935 C20.33,7.544 20.963,7.544 21.354,7.935 C21.744,8.325 21.744,8.958 21.354,9.349 L14.353,16.349 C14.158,16.544 13.902,16.642 13.646,16.642" id="Fill-386" fill="#FFFFFF" sketch:type="MSShapeGroup"></path>
            <path d="M22.138,35.718 C22.138,35.09 22.321,34.508 22.618,34 L20.769,34 C13.655,34 17.605,32.643 10.999,30 L10.998,30 L10.998,34 C17.604,36.642 13.655,38 20.769,38 L23.029,38 C22.482,37.392 22.138,36.596 22.138,35.718" id="Fill-387" fill="#38454F" sketch:type="MSShapeGroup"></path>
            <path d="M35.86,35.718 C35.86,35.09 35.677,34.508 35.38,34 L37.229,34 C44.343,34 40.393,32.643 46.999,30 L47,30 L47,34 C40.394,36.642 44.344,38 37.229,38 L34.969,38 C35.516,37.392 35.86,36.596 35.86,35.718" id="Fill-388" fill="#38454F" sketch:type="MSShapeGroup"></path>
            <path d="M32.871,31.309 C32.101,29.904 30.62,29 28.999,29 C27.378,29 25.897,29.904 25.127,31.309 C24.113,31.409 23.171,31.855 22.438,32.588 C21.599,33.427 21.137,34.538 21.138,35.719 C21.139,38.344 23.313,39.493 24.999,39.863 L24.999,43.348 C24.999,45.361 26.638,47 28.652,47 L29.347,47 C31.36,47 32.999,45.361 32.999,43.348 L32.999,39.884 C34.692,39.547 36.86,38.421 36.86,35.718 C36.86,33.424 35.108,31.531 32.871,31.309" id="Fill-652" fill="#546A79" sketch:type="MSShapeGroup"></path>
            <path d="M31.999,37 L25.999,37 C25.447,37 24.999,36.553 24.999,36 C24.999,35.447 25.447,35 25.999,35 L31.999,35 C32.551,35 32.999,35.447 32.999,36 C32.999,36.553 32.551,37 31.999,37" id="Fill-653" fill="#F0C419" sketch:type="MSShapeGroup"></path>
            <path d="M32.917,23.049 L32.917,23.049 C31.517,20.694 29.866,18.219 28.907,17.007 L28.095,17.007 C27.136,18.219 25.485,20.694 24.086,23.049 C23.736,23.307 23.371,23.542 22.999,23.766 C24.019,24.866 25.997,26 28.646,26 C31.38,26 33.056,24.811 34.006,23.767 C33.633,23.543 33.268,23.308 32.917,23.049" id="Fill-654" fill="#38454F" sketch:type="MSShapeGroup"></path>
        </g>
    </g>
</svg>