<?xml version="1.0" encoding="UTF-8" standalone="no"?>
<svg width="58px" height="58px" viewBox="0 0 58 58" version="1.1" xmlns="http://www.w3.org/2000/svg" xmlns:xlink="http://www.w3.org/1999/xlink" xmlns:sketch="http://www.bohemiancoding.com/sketch/ns">
    <!-- Generator: Sketch 3.2.2 (9983) - http://www.bohemiancoding.com/sketch -->
    <title>44 - Sea Sunset (Flat)</title>
    <desc>Created with Sketch.</desc>
    <defs></defs>
    <g id="Page-1" stroke="none" stroke-width="1" fill="none" fill-rule="evenodd" sketch:type="MSPage">
        <g id="44---Sea-Sunset-(Flat)" sketch:type="MSLayerGroup">
            <path d="M58,29 C58,45.016 45.016,58 29,58 C12.984,58 0,45.016 0,29 C0,12.984 12.984,0 29,0 C45.016,0 58,12.984 58,29" id="Fill-9" fill="#48A0DC" sketch:type="MSShapeGroup"></path>
            <path d="M0.025,30 C0.553,45.552 13.319,58 29,58 C44.681,58 57.447,45.552 57.975,30 L0.025,30" id="Fill-10" fill="#285680" sketch:type="MSShapeGroup"></path>
            <path d="M44,33 L14,33 C13.447,33 13,33.448 13,34 C13,34.552 13.447,35 14,35 L44,35 C44.553,35 45,34.552 45,34 C45,33.448 44.553,33 44,33" id="Fill-504" fill="#F0C419" sketch:type="MSShapeGroup"></path>
            <path d="M40,38 L18,38 C17.447,38 17,38.448 17,39 C17,39.552 17.447,40 18,40 L40,40 C40.553,40 41,39.552 41,39 C41,38.448 40.553,38 40,38" id="Fill-505" fill="#F0C419" sketch:type="MSShapeGroup"></path>
            <path d="M36,43 L22,43 C21.447,43 21,43.448 21,44 C21,44.552 21.447,45 22,45 L36,45 C36.553,45 37,44.552 37,44 C37,43.448 36.553,43 36,43" id="Fill-506" fill="#F0C419" sketch:type="MSShapeGroup"></path>
            <path d="M33,48 L25,48 C24.447,48 24,48.448 24,49 C24,49.552 24.447,50 25,50 L33,50 C33.553,50 34,49.552 34,49 C34,48.448 33.553,48 33,48" id="Fill-507" fill="#F0C419" sketch:type="MSShapeGroup"></path>
            <path d="M29,7 C28.447,7 28,7.448 28,8 L28,10 C28,10.552 28.447,11 29,11 C29.553,11 30,10.552 30,10 L30,8 C30,7.448 29.553,7 29,7" id="Fill-508" fill="#EDE71B" sketch:type="MSShapeGroup"></path>
            <path d="M29,12 C28.447,12 28,12.448 28,13 L28,15 C28,15.552 28.447,16 29,16 C29.553,16 30,15.552 30,15 L30,13 C30,12.448 29.553,12 29,12" id="Fill-509" fill="#F0C419" sketch:type="MSShapeGroup"></path>
            <path d="M50,28 L48,28 C47.447,28 47,28.448 47,29 C47,29.552 47.447,30 48,30 L50,30 C50.553,30 51,29.552 51,29 C51,28.448 50.553,28 50,28" id="Fill-510" fill="#EDE71B" sketch:type="MSShapeGroup"></path>
            <path d="M45,28 L43,28 C42.447,28 42,28.448 42,29 C42,29.552 42.447,30 43,30 L45,30 C45.553,30 46,29.552 46,29 C46,28.448 45.553,28 45,28" id="Fill-511" fill="#F0C419" sketch:type="MSShapeGroup"></path>
            <path d="M10,28 L8,28 C7.447,28 7,28.448 7,29 C7,29.552 7.447,30 8,30 L10,30 C10.553,30 11,29.552 11,29 C11,28.448 10.553,28 10,28" id="Fill-512" fill="#EDE71B" sketch:type="MSShapeGroup"></path>
            <path d="M15,28 L13,28 C12.447,28 12,28.448 12,29 C12,29.552 12.447,30 13,30 L15,30 C15.553,30 16,29.552 16,29 C16,28.448 15.553,28 15,28" id="Fill-513" fill="#F0C419" sketch:type="MSShapeGroup"></path>
            <path d="M42.435,16.565 C42.69,16.565 42.946,16.467 43.142,16.273 L44.557,14.858 C44.947,14.468 44.947,13.835 44.557,13.444 C44.166,13.053 43.533,13.054 43.143,13.443 L41.727,14.857 C41.337,15.248 41.337,15.881 41.727,16.272 C41.923,16.467 42.179,16.565 42.435,16.565" id="Fill-514" fill="#EDE71B" sketch:type="MSShapeGroup"></path>
            <path d="M41.02,16.98 C40.63,16.589 39.997,16.589 39.606,16.98 L38.192,18.394 C37.802,18.784 37.802,19.417 38.192,19.808 C38.388,20.003 38.644,20.101 38.899,20.101 C39.155,20.101 39.411,20.003 39.606,19.808 L41.02,18.394 C41.411,18.003 41.411,17.37 41.02,16.98" id="Fill-515" fill="#F0C419" sketch:type="MSShapeGroup"></path>
            <path d="M14.858,16.273 C15.054,16.467 15.31,16.565 15.565,16.565 C15.821,16.565 16.077,16.467 16.273,16.272 C16.663,15.881 16.663,15.248 16.273,14.857 L14.857,13.443 C14.467,13.054 13.834,13.053 13.443,13.444 C13.053,13.835 13.053,14.468 13.443,14.858 L14.858,16.273" id="Fill-516" fill="#EDE71B" sketch:type="MSShapeGroup"></path>
            <path d="M18.394,16.98 C18.003,16.589 17.37,16.589 16.979,16.98 C16.589,17.37 16.589,18.003 16.979,18.394 L18.394,19.808 C18.589,20.003 18.845,20.101 19.101,20.101 C19.356,20.101 19.612,20.003 19.808,19.808 C20.198,19.417 20.198,18.784 19.808,18.394 L18.394,16.98" id="Fill-517" fill="#F0C419" sketch:type="MSShapeGroup"></path>
            <path d="M37.596,8.749 C37.089,8.534 36.501,8.77 36.284,9.279 L35.503,11.12 C35.287,11.628 35.524,12.215 36.033,12.431 C36.161,12.485 36.293,12.511 36.424,12.511 C36.813,12.511 37.183,12.282 37.345,11.901 L38.126,10.06 C38.342,9.552 38.104,8.965 37.596,8.749" id="Fill-518" fill="#EDE71B" sketch:type="MSShapeGroup"></path>
            <path d="M35.643,13.352 C35.135,13.136 34.548,13.372 34.331,13.881 L33.55,15.722 C33.334,16.231 33.571,16.817 34.08,17.033 C34.208,17.087 34.34,17.113 34.471,17.113 C34.859,17.113 35.229,16.884 35.392,16.503 L36.173,14.663 C36.389,14.154 36.151,13.567 35.643,13.352" id="Fill-519" fill="#F0C419" sketch:type="MSShapeGroup"></path>
            <path d="M12.432,21.967 C12.647,21.459 12.41,20.872 11.901,20.656 L10.06,19.874 C9.552,19.659 8.965,19.895 8.748,20.404 C8.532,20.912 8.769,21.499 9.278,21.715 L11.12,22.497 C11.248,22.551 11.38,22.577 11.511,22.577 C11.899,22.577 12.269,22.348 12.432,21.967" id="Fill-520" fill="#EDE71B" sketch:type="MSShapeGroup"></path>
            <path d="M16.504,22.609 L14.662,21.828 C14.153,21.613 13.567,21.849 13.351,22.358 C13.135,22.867 13.372,23.454 13.881,23.669 L15.723,24.45 C15.851,24.504 15.982,24.53 16.113,24.53 C16.502,24.53 16.872,24.301 17.034,23.92 C17.25,23.412 17.013,22.825 16.504,22.609" id="Fill-521" fill="#F0C419" sketch:type="MSShapeGroup"></path>
            <path d="M49.397,20.598 C49.19,20.085 48.607,19.839 48.096,20.045 L46.241,20.795 C45.729,21.002 45.482,21.585 45.69,22.097 C45.847,22.486 46.221,22.723 46.616,22.723 C46.741,22.723 46.868,22.699 46.991,22.649 L48.846,21.9 C49.357,21.693 49.604,21.11 49.397,20.598" id="Fill-522" fill="#EDE71B" sketch:type="MSShapeGroup"></path>
            <path d="M44.21,23.773 C44.722,23.566 44.969,22.983 44.762,22.471 C44.555,21.959 43.972,21.714 43.46,21.919 L41.606,22.668 C41.094,22.875 40.847,23.458 41.054,23.97 C41.211,24.359 41.585,24.596 41.981,24.596 C42.105,24.596 42.232,24.572 42.356,24.523 L44.21,23.773" id="Fill-523" fill="#F0C419" sketch:type="MSShapeGroup"></path>
            <path d="M22.81,10.848 L22.06,8.994 C21.852,8.481 21.271,8.235 20.758,8.441 C20.246,8.648 19.999,9.231 20.206,9.744 L20.956,11.598 C21.113,11.987 21.487,12.224 21.883,12.224 C22.008,12.224 22.135,12.2 22.258,12.15 C22.769,11.943 23.017,11.36 22.81,10.848" id="Fill-524" fill="#EDE71B" sketch:type="MSShapeGroup"></path>
            <path d="M23.933,13.629 C23.726,13.117 23.144,12.871 22.631,13.077 C22.119,13.284 21.872,13.867 22.079,14.379 L22.829,16.234 C22.986,16.623 23.36,16.859 23.756,16.859 C23.881,16.859 24.008,16.835 24.131,16.786 C24.643,16.579 24.89,15.996 24.683,15.484 L23.933,13.629" id="Fill-525" fill="#F0C419" sketch:type="MSShapeGroup"></path>
            <path d="M29,0 C28.665,0 28.333,0.014 28,0.025 L28,5 C28,5.552 28.447,6 29,6 C29.553,6 30,5.552 30,5 L30,0.025 C29.667,0.014 29.335,0 29,0" id="Fill-526" fill="#F0C419" sketch:type="MSShapeGroup"></path>
            <path d="M48.782,7.804 L45.264,11.322 C44.873,11.713 44.873,12.346 45.264,12.736 C45.459,12.932 45.715,13.029 45.971,13.029 C46.227,13.029 46.482,12.932 46.678,12.736 L50.196,9.218 C49.741,8.73 49.27,8.259 48.782,7.804" id="Fill-527" fill="#F0C419" sketch:type="MSShapeGroup"></path>
            <path d="M57.975,28 L53,28 C52.447,28 52,28.448 52,29 C52,29.552 52.447,30 53,30 L57.975,30 C57.986,29.667 58,29.335 58,29 C58,28.665 57.986,28.333 57.975,28" id="Fill-528" fill="#F0C419" sketch:type="MSShapeGroup"></path>
            <path d="M7.804,9.218 L11.322,12.736 C11.518,12.932 11.773,13.029 12.029,13.029 C12.285,13.029 12.541,12.932 12.736,12.736 C13.127,12.346 13.127,11.713 12.736,11.322 L9.218,7.804 C8.73,8.259 8.259,8.73 7.804,9.218" id="Fill-529" fill="#F0C419" sketch:type="MSShapeGroup"></path>
            <path d="M0.025,30 L5,30 C5.553,30 6,29.552 6,29 C6,28.448 5.553,28 5,28 L0.025,28 C0.014,28.333 0,28.665 0,29 C0,29.335 0.014,29.667 0.025,30" id="Fill-530" fill="#F0C419" sketch:type="MSShapeGroup"></path>
            <path d="M29,16 C21.268,16 15,22.268 15,30 L43,30 C43,22.268 36.732,16 29,16" id="Fill-531" fill="#EDE71B" sketch:type="MSShapeGroup"></path>
            <path d="M29,20 C23.477,20 19,24.477 19,30 L39,30 C39,24.477 34.523,20 29,20" id="Fill-532" fill="#E57E25" sketch:type="MSShapeGroup"></path>
        </g>
    </g>
</svg>