<?xml version="1.0" encoding="UTF-8" standalone="no"?>
<svg width="58px" height="38px" viewBox="0 0 58 38" version="1.1" xmlns="http://www.w3.org/2000/svg" xmlns:xlink="http://www.w3.org/1999/xlink" xmlns:sketch="http://www.bohemiancoding.com/sketch/ns">
    <!-- Generator: Sketch 3.2.2 (9983) - http://www.bohemiancoding.com/sketch -->
    <title>20 - Shorts (Flat)</title>
    <desc>Created with Sketch.</desc>
    <defs></defs>
    <g id="Page-1" stroke="none" stroke-width="1" fill="none" fill-rule="evenodd" sketch:type="MSPage">
        <g id="20---Shorts-(Flat)" sketch:type="MSLayerGroup">
            <path d="M49.032,4.973 C49.032,4.973 45.885,7.314 34.285,7.878 C35.37,9.404 35.659,11.026 34.862,11.823 C33.886,12.799 31.67,12.166 29.913,10.408 C29.147,9.643 28.611,8.795 28.312,7.996 C28.155,7.995 27.995,7.994 27.84,7.993 C27.546,8.808 27.001,9.678 26.219,10.461 C24.461,12.218 22.245,12.851 21.269,11.875 C20.444,11.05 20.779,9.341 21.959,7.77 C11.848,7.065 9.032,4.973 9.032,4.973 L0.04,26.925 C0.041,27.008 0.042,27.078 0.043,27.161 C0.602,28.294 5.438,37.314 18.177,38.004 C19.272,38.063 20.32,37.521 20.909,36.596 L28.949,27 C28.987,26.939 29.076,26.939 29.115,27 L37.131,36.572 C37.719,37.498 38.768,38.039 39.863,37.98 C52.602,37.29 57.438,28.27 57.996,27.137 C57.998,27.054 57.999,26.984 58,26.901 L49.032,4.973" id="Fill-19" fill="#67B9CC" sketch:type="MSShapeGroup"></path>
            <path d="M50.032,24 C50.032,26.761 47.793,29 45.032,29 C42.27,29 40.032,26.761 40.032,24 C40.032,21.239 42.27,19 45.032,19 C47.793,19 50.032,21.239 50.032,24 L50.032,24 Z M45.032,19 L45.032,17 L45.032,19 Z M45.032,31 L45.032,29 L45.032,31 Z M50.032,24 L52.032,24 L50.032,24 Z M38.032,24 L40.032,24 L38.032,24 Z M41.496,20.465 L40.082,19.05 L41.496,20.465 Z M49.981,28.95 L48.567,27.536 L49.981,28.95 Z M48.567,20.465 L49.981,19.05 L48.567,20.465 Z M40.082,28.95 L41.496,27.536 L40.082,28.95 Z" id="Stroke-315" stroke="#A4E869" stroke-width="2" stroke-linecap="round" stroke-linejoin="round" sketch:type="MSShapeGroup"></path>
            <path d="M22.683,6.925 C24.441,5.168 26.657,4.535 27.633,5.511 C27.868,5.746 28.005,6.056 28.06,6.411 C28.109,6.033 28.251,5.706 28.498,5.459 C29.475,4.482 31.691,5.116 33.448,6.873 C33.771,7.195 34.041,7.535 34.285,7.878 C45.885,7.314 49.032,4.973 49.032,4.973 L47.04,0 C47.04,0 44.969,2 29.032,2 C13.094,2 11.04,0 11.04,0 L9.032,4.973 C9.032,4.973 11.848,7.065 21.959,7.77 C22.176,7.482 22.411,7.197 22.683,6.925" id="Fill-316" fill="#A4E869" sketch:type="MSShapeGroup"></path>
            <path d="M30.467,15 C28.557,13.886 27.353,10.91 28.467,9 M27.095,18 C24.993,17.65 26.305,10.999 28.04,10" id="Stroke-608" stroke="#546A79" stroke-width="2" stroke-linecap="round" sketch:type="MSShapeGroup"></path>
            <path d="M26.219,10.461 C24.461,12.218 22.245,12.851 21.269,11.875 C20.293,10.899 20.926,8.682 22.683,6.925 C24.441,5.168 26.657,4.535 27.633,5.511 C28.609,6.487 27.976,8.703 26.219,10.461 L26.219,10.461 Z" id="Fill-609" fill="#67B9CC" sketch:type="MSShapeGroup"></path>
            <path d="M26.219,10.461 C24.461,12.218 22.245,12.851 21.269,11.875 C20.293,10.899 20.926,8.682 22.683,6.925 C24.441,5.168 26.657,4.535 27.633,5.511 C28.609,6.487 27.976,8.703 26.219,10.461 L26.219,10.461 Z" id="Stroke-610" stroke="#546A79" stroke-width="2" stroke-linejoin="round" sketch:type="MSShapeGroup"></path>
            <path d="M29.913,10.409 C31.67,12.166 33.886,12.799 34.862,11.823 C35.839,10.846 35.205,8.63 33.448,6.873 C31.691,5.116 29.475,4.482 28.498,5.459 C27.522,6.435 28.155,8.651 29.913,10.409 L29.913,10.409 Z" id="Fill-611" fill="#67B9CC" sketch:type="MSShapeGroup"></path>
            <path d="M29.913,10.409 C31.67,12.166 33.886,12.799 34.862,11.823 C35.839,10.846 35.205,8.63 33.448,6.873 C31.691,5.116 29.475,4.482 28.498,5.459 C27.522,6.435 28.155,8.651 29.913,10.409 L29.913,10.409 Z" id="Stroke-612" stroke="#546A79" stroke-width="2" stroke-linejoin="round" sketch:type="MSShapeGroup"></path>
        </g>
    </g>
</svg>