<?xml version="1.0" encoding="UTF-8" standalone="no"?>
<svg width="55px" height="52px" viewBox="0 0 55 52" version="1.1" xmlns="http://www.w3.org/2000/svg" xmlns:xlink="http://www.w3.org/1999/xlink" xmlns:sketch="http://www.bohemiancoding.com/sketch/ns">
    <!-- Generator: Sketch 3.2.2 (9983) - http://www.bohemiancoding.com/sketch -->
    <title>12 - Starfish (Flat)</title>
    <desc>Created with Sketch.</desc>
    <defs></defs>
    <g id="Page-1" stroke="none" stroke-width="1" fill="none" fill-rule="evenodd" sketch:type="MSPage">
        <g id="12---Starfish-(Flat)" sketch:type="MSLayerGroup">
            <path d="M28.398,0.285 L34.004,11.644 C35.556,14.789 38.556,16.968 42.026,17.472 L54.562,19.294 C54.981,19.355 55.148,19.87 54.845,20.165 L45.774,29.007 C43.263,31.455 42.117,34.982 42.71,38.438 L44.851,50.923 C44.923,51.34 44.485,51.658 44.11,51.461 L32.898,45.567 C29.794,43.935 26.086,43.935 22.982,45.567 L11.77,51.461 C11.395,51.658 10.957,51.34 11.029,50.923 L13.17,38.438 C13.763,34.982 12.617,31.455 10.106,29.007 L1.035,20.165 C0.732,19.87 0.899,19.355 1.318,19.294 L13.854,17.472 C17.324,16.968 20.324,14.789 21.876,11.644 L27.482,0.285 C27.669,-0.095 28.211,-0.095 28.398,0.285" id="Fill-116" fill="#FBD490" sketch:type="MSShapeGroup"></path>
            <path d="M32.94,27.426 C32.94,30.187 30.702,32.426 27.94,32.426 C25.179,32.426 22.94,30.187 22.94,27.426 C22.94,24.664 25.179,22.426 27.94,22.426 C30.702,22.426 32.94,24.664 32.94,27.426 L32.94,27.426 Z" id="Fill-117" fill="#FBD490" sketch:type="MSShapeGroup"></path>
            <path d="M32.94,27.426 C32.94,30.187 30.702,32.426 27.94,32.426 C25.179,32.426 22.94,30.187 22.94,27.426 C22.94,24.664 25.179,22.426 27.94,22.426 C30.702,22.426 32.94,24.664 32.94,27.426 L32.94,27.426 Z" id="Stroke-118" stroke="#F4E6CE" stroke-width="2" sketch:type="MSShapeGroup"></path>
            <path d="M28.94,18.426 C28.94,18.978 28.492,19.426 27.94,19.426 C27.388,19.426 26.94,18.978 26.94,18.426 C26.94,17.873 27.388,17.426 27.94,17.426 C28.492,17.426 28.94,17.873 28.94,18.426" id="Fill-119" fill="#F4E6CE" sketch:type="MSShapeGroup"></path>
            <path d="M28.94,14.426 C28.94,14.978 28.492,15.426 27.94,15.426 C27.388,15.426 26.94,14.978 26.94,14.426 C26.94,13.873 27.388,13.426 27.94,13.426 C28.492,13.426 28.94,13.873 28.94,14.426" id="Fill-120" fill="#F4E6CE" sketch:type="MSShapeGroup"></path>
            <path d="M28.94,10.426 C28.94,10.978 28.492,11.426 27.94,11.426 C27.388,11.426 26.94,10.978 26.94,10.426 C26.94,9.873 27.388,9.426 27.94,9.426 C28.492,9.426 28.94,9.873 28.94,10.426" id="Fill-121" fill="#F4E6CE" sketch:type="MSShapeGroup"></path>
            <path d="M28.94,6.426 C28.94,6.978 28.492,7.426 27.94,7.426 C27.388,7.426 26.94,6.978 26.94,6.426 C26.94,5.873 27.388,5.426 27.94,5.426 C28.492,5.426 28.94,5.873 28.94,6.426" id="Fill-122" fill="#F4E6CE" sketch:type="MSShapeGroup"></path>
            <path d="M47.82,20.264 C48.336,20.069 48.913,20.331 49.108,20.848 C49.302,21.365 49.041,21.941 48.524,22.136 C48.007,22.33 47.43,22.069 47.236,21.552 C47.041,21.035 47.303,20.458 47.82,20.264" id="Fill-123" fill="#F4E6CE" sketch:type="MSShapeGroup"></path>
            <path d="M44.076,21.672 C44.593,21.478 45.169,21.739 45.364,22.256 C45.558,22.773 45.297,23.35 44.78,23.544 C44.263,23.739 43.687,23.477 43.492,22.96 C43.297,22.444 43.559,21.867 44.076,21.672" id="Fill-124" fill="#F4E6CE" sketch:type="MSShapeGroup"></path>
            <path d="M40.332,23.081 C40.849,22.886 41.426,23.148 41.62,23.665 C41.815,24.182 41.553,24.758 41.036,24.953 C40.519,25.147 39.943,24.886 39.748,24.369 C39.554,23.852 39.815,23.275 40.332,23.081" id="Fill-125" fill="#F4E6CE" sketch:type="MSShapeGroup"></path>
            <path d="M36.588,24.489 C37.105,24.295 37.682,24.556 37.876,25.073 C38.071,25.59 37.809,26.167 37.292,26.361 C36.776,26.556 36.199,26.294 36.004,25.778 C35.81,25.261 36.071,24.684 36.588,24.489" id="Fill-126" fill="#F4E6CE" sketch:type="MSShapeGroup"></path>
            <path d="M14.762,44.265 C14.422,44.7 14.499,45.328 14.934,45.668 C15.369,46.008 15.998,45.931 16.338,45.496 C16.678,45.061 16.601,44.433 16.166,44.092 C15.731,43.752 15.102,43.829 14.762,44.265" id="Fill-127" fill="#F4E6CE" sketch:type="MSShapeGroup"></path>
            <path d="M17.226,41.113 C16.885,41.548 16.962,42.177 17.398,42.517 C17.833,42.857 18.461,42.78 18.801,42.345 C19.141,41.909 19.064,41.281 18.629,40.941 C18.194,40.601 17.566,40.678 17.226,41.113" id="Fill-128" fill="#F4E6CE" sketch:type="MSShapeGroup"></path>
            <path d="M19.689,37.961 C19.349,38.397 19.426,39.025 19.861,39.365 C20.296,39.705 20.925,39.628 21.265,39.193 C21.605,38.758 21.528,38.129 21.093,37.789 C20.657,37.449 20.029,37.526 19.689,37.961" id="Fill-129" fill="#F4E6CE" sketch:type="MSShapeGroup"></path>
            <path d="M22.152,34.81 C21.812,35.245 21.889,35.873 22.324,36.214 C22.759,36.554 23.388,36.477 23.728,36.042 C24.068,35.606 23.991,34.978 23.556,34.638 C23.121,34.298 22.492,34.375 22.152,34.81" id="Fill-130" fill="#F4E6CE" sketch:type="MSShapeGroup"></path>
            <path d="M41.118,44.265 C41.458,44.7 41.381,45.328 40.946,45.668 C40.511,46.008 39.882,45.931 39.542,45.496 C39.202,45.061 39.279,44.433 39.714,44.092 C40.149,43.752 40.778,43.829 41.118,44.265" id="Fill-131" fill="#F4E6CE" sketch:type="MSShapeGroup"></path>
            <path d="M38.654,41.113 C38.995,41.548 38.918,42.177 38.483,42.517 C38.047,42.857 37.419,42.78 37.079,42.345 C36.739,41.909 36.816,41.281 37.251,40.941 C37.686,40.601 38.314,40.678 38.654,41.113" id="Fill-132" fill="#F4E6CE" sketch:type="MSShapeGroup"></path>
            <path d="M36.191,37.961 C36.531,38.397 36.454,39.025 36.019,39.365 C35.584,39.705 34.956,39.628 34.615,39.193 C34.275,38.758 34.352,38.129 34.787,37.789 C35.223,37.449 35.851,37.526 36.191,37.961" id="Fill-133" fill="#F4E6CE" sketch:type="MSShapeGroup"></path>
            <path d="M33.728,34.81 C34.068,35.245 33.991,35.873 33.556,36.214 C33.121,36.554 32.492,36.477 32.152,36.042 C31.812,35.606 31.889,34.978 32.324,34.638 C32.759,34.298 33.388,34.375 33.728,34.81" id="Fill-134" fill="#F4E6CE" sketch:type="MSShapeGroup"></path>
            <path d="M8.061,20.264 C7.544,20.07 6.967,20.331 6.773,20.848 C6.578,21.365 6.84,21.942 7.356,22.136 C7.874,22.331 8.45,22.069 8.645,21.552 C8.839,21.035 8.578,20.459 8.061,20.264" id="Fill-135" fill="#F4E6CE" sketch:type="MSShapeGroup"></path>
            <path d="M11.805,21.673 C11.288,21.478 10.711,21.74 10.516,22.256 C10.322,22.773 10.583,23.35 11.1,23.545 C11.617,23.739 12.194,23.478 12.388,22.961 C12.583,22.444 12.322,21.867 11.805,21.673" id="Fill-136" fill="#F4E6CE" sketch:type="MSShapeGroup"></path>
            <path d="M15.548,23.081 C15.031,22.887 14.455,23.148 14.26,23.665 C14.066,24.182 14.327,24.759 14.844,24.953 C15.361,25.148 15.938,24.886 16.132,24.369 C16.327,23.852 16.065,23.276 15.548,23.081" id="Fill-137" fill="#F4E6CE" sketch:type="MSShapeGroup"></path>
            <path d="M19.292,24.49 C18.775,24.295 18.199,24.557 18.004,25.074 C17.81,25.59 18.071,26.167 18.588,26.362 C19.105,26.556 19.682,26.295 19.876,25.778 C20.071,25.261 19.809,24.684 19.292,24.49" id="Fill-138" fill="#F4E6CE" sketch:type="MSShapeGroup"></path>
        </g>
    </g>
</svg>