<?xml version="1.0" encoding="UTF-8" standalone="no"?>
<svg width="58px" height="53px" viewBox="0 0 58 53" version="1.1" xmlns="http://www.w3.org/2000/svg" xmlns:xlink="http://www.w3.org/1999/xlink" xmlns:sketch="http://www.bohemiancoding.com/sketch/ns">
    <!-- Generator: Sketch 3.2.2 (9983) - http://www.bohemiancoding.com/sketch -->
    <title>17 - Sun Lotion (Flat)</title>
    <desc>Created with Sketch.</desc>
    <defs></defs>
    <g id="Page-1" stroke="none" stroke-width="1" fill="none" fill-rule="evenodd" sketch:type="MSPage">
        <g id="17---Sun-Lotion-(Flat)" sketch:type="MSLayerGroup">
            <path d="M58,3 C58,1.343 56.657,0 55,0 C53.343,0 52,1.343 52,3 C52,1.343 50.657,0 49,0 C47.343,0 46,1.343 46,3 C46,1.343 44.657,0 43,0 C41.343,0 40,1.343 40,3 C40,1.343 38.657,0 37,0 C35.343,0 34,1.343 34,3 C34,1.343 32.657,0 31,0 C29.343,0 28,1.343 28,3 L27.972,3 L28.045,3.45 C28.057,3.524 28.065,3.598 28.081,3.671 L35,43 L50,43 L57.81,4.019 C57.926,3.699 58,3.359 58,3" id="Fill-20" fill="#F0C419" sketch:type="MSShapeGroup"></path>
            <path d="M20.048,53 L3.952,53 C1.769,53 0,51.231 0,49.048 L0,21.952 C0,19.769 1.769,18 3.952,18 L20.048,18 C22.231,18 24,19.769 24,21.952 L24,49.048 C24,51.231 22.231,53 20.048,53" id="Fill-21" fill="#4482C3" sketch:type="MSShapeGroup"></path>
            <path d="M20,34 L17.91,34 C17.756,33.091 17.4,32.251 16.885,31.529 L18.364,30.05 C18.754,29.659 18.754,29.026 18.364,28.636 C17.973,28.245 17.339,28.245 16.95,28.636 L15.471,30.115 C14.749,29.6 13.909,29.244 13,29.09 L13,27 C13,26.447 12.552,26 12,26 C11.448,26 11,26.447 11,27 L11,29.09 C10.091,29.244 9.251,29.6 8.529,30.115 L7.05,28.636 C6.661,28.245 6.027,28.245 5.636,28.636 C5.246,29.026 5.246,29.659 5.636,30.05 L7.115,31.529 C6.6,32.251 6.244,33.091 6.09,34 L4,34 C3.448,34 3,34.447 3,35 C3,35.553 3.448,36 4,36 L6.09,36 C6.244,36.909 6.6,37.749 7.115,38.471 L5.636,39.95 C5.246,40.341 5.246,40.974 5.636,41.364 C5.831,41.56 6.087,41.657 6.343,41.657 C6.599,41.657 6.855,41.56 7.05,41.364 L8.529,39.885 C9.251,40.4 10.091,40.756 11,40.91 L11,43 C11,43.553 11.448,44 12,44 C12.552,44 13,43.553 13,43 L13,40.91 C13.909,40.756 14.749,40.4 15.471,39.885 L16.95,41.364 C17.144,41.56 17.401,41.657 17.657,41.657 C17.913,41.657 18.168,41.56 18.364,41.364 C18.754,40.974 18.754,40.341 18.364,39.95 L16.885,38.471 C17.4,37.749 17.756,36.909 17.91,36 L20,36 C20.552,36 21,35.553 21,35 C21,34.447 20.552,34 20,34 L20,34 Z M12,39 C9.794,39 8,37.206 8,35 C8,32.794 9.794,31 12,31 C14.206,31 16,32.794 16,35 C16,37.206 14.206,39 12,39 L12,39 Z" id="Fill-325" fill="#EDE71B" sketch:type="MSShapeGroup"></path>
            <path d="M51,21 L48.91,21 C48.756,20.091 48.4,19.251 47.885,18.529 L49.364,17.05 C49.754,16.659 49.754,16.026 49.364,15.636 C48.973,15.245 48.339,15.245 47.95,15.636 L46.471,17.115 C45.749,16.6 44.909,16.244 44,16.09 L44,14 C44,13.447 43.552,13 43,13 C42.448,13 42,13.447 42,14 L42,16.09 C41.091,16.244 40.251,16.6 39.529,17.115 L38.05,15.636 C37.661,15.245 37.027,15.245 36.636,15.636 C36.246,16.026 36.246,16.659 36.636,17.05 L38.115,18.529 C37.6,19.251 37.244,20.091 37.09,21 L35,21 C34.448,21 34,21.447 34,22 C34,22.553 34.448,23 35,23 L37.09,23 C37.244,23.909 37.6,24.749 38.115,25.471 L36.636,26.95 C36.246,27.341 36.246,27.974 36.636,28.364 C36.831,28.56 37.087,28.657 37.343,28.657 C37.599,28.657 37.855,28.56 38.05,28.364 L39.529,26.885 C40.251,27.4 41.091,27.756 42,27.91 L42,30 C42,30.553 42.448,31 43,31 C43.552,31 44,30.553 44,30 L44,27.91 C44.909,27.756 45.749,27.4 46.471,26.885 L47.95,28.364 C48.144,28.56 48.401,28.657 48.657,28.657 C48.913,28.657 49.168,28.56 49.364,28.364 C49.754,27.974 49.754,27.341 49.364,26.95 L47.885,25.471 C48.4,24.749 48.756,23.909 48.91,23 L51,23 C51.552,23 52,22.553 52,22 C52,21.447 51.552,21 51,21 L51,21 Z M43,26 C40.794,26 39,24.206 39,22 C39,19.794 40.794,18 43,18 C45.206,18 47,19.794 47,22 C47,24.206 45.206,26 43,26 L43,26 Z" id="Fill-326" fill="#E57E25" sketch:type="MSShapeGroup"></path>
            <path d="M35,43 L50,43 L50,53 L35,53 L35,43 Z" id="Fill-327" fill="#ECF0F1" sketch:type="MSShapeGroup"></path>
            <path d="M8,12 L16,12 L16,14 L8,14 L8,12 Z" id="Fill-613" fill="#E57E25" sketch:type="MSShapeGroup"></path>
            <path d="M8,14 L16,14 L16,18 L8,18 L8,14 Z" id="Fill-614" fill="#285680" sketch:type="MSShapeGroup"></path>
            <path d="M8,7 L16,7 L16,12 L8,12 L8,7 Z" id="Fill-615" fill="#F29C1F" sketch:type="MSShapeGroup"></path>
            <path d="M13,10 C13,10.552 12.552,11 12,11 C11.448,11 11,10.552 11,10 C11,9.448 11.448,9 12,9 C12.552,9 13,9.448 13,10" id="Fill-616" fill="#FFFFFF" sketch:type="MSShapeGroup"></path>
            <path d="M28.843,8 L57.013,8 L57.414,6 L28.491,6 L28.843,8" id="Fill-617" fill="#E57E25" sketch:type="MSShapeGroup"></path>
            <path d="M35,47 L50,47 L50,49 L35,49 L35,47 Z" id="Fill-618" fill="#BDC3C7" sketch:type="MSShapeGroup"></path>
        </g>
    </g>
</svg>