<?xml version="1.0" encoding="UTF-8" standalone="no"?>
<svg width="44px" height="58px" viewBox="0 0 44 58" version="1.1" xmlns="http://www.w3.org/2000/svg" xmlns:xlink="http://www.w3.org/1999/xlink" xmlns:sketch="http://www.bohemiancoding.com/sketch/ns">
    <!-- Generator: Sketch 3.2.2 (9983) - http://www.bohemiancoding.com/sketch -->
    <title>27 - Troller (Flat)</title>
    <desc>Created with Sketch.</desc>
    <defs></defs>
    <g id="Page-1" stroke="none" stroke-width="1" fill="none" fill-rule="evenodd" sketch:type="MSPage">
        <g id="27---Troller-(Flat)" sketch:type="MSLayerGroup">
            <path d="M37,15.858 L37,51.142 C37,53.273 35.273,55 33.142,55 L3.858,55 C1.727,55 0,53.273 0,51.142 L0,15.858 C0,13.727 1.727,12 3.858,12 L33.142,12 C35.273,12 37,13.727 37,15.858" id="Fill-23" fill="#24AE5F" sketch:type="MSShapeGroup"></path>
            <path d="M29.64,49.132 L21.251,45.593 L23.611,40 L32,43.54 L29.64,49.132" id="Fill-257" fill="#FFFFFF" sketch:type="MSShapeGroup"></path>
            <path d="M6,18 L31,18 L6,18 Z M30,21 C30,22.657 29.105,24 28,24 C26.895,24 26,22.657 26,21 C26,19.343 26.895,18 28,18 C29.105,18 30,19.343 30,21 L30,21 Z" id="Stroke-260" stroke="#ECF0F1" stroke-width="2" stroke-linecap="round" sketch:type="MSShapeGroup"></path>
            <path d="M10.315,58 L4.685,58 C3.754,58 3,57.246 3,56.315 L3,55 L12,55 L12,56.315 C12,57.246 11.246,58 10.315,58" id="Fill-261" fill="#BDC3C7" sketch:type="MSShapeGroup"></path>
            <path d="M32.315,58 L26.685,58 C25.754,58 25,57.246 25,56.315 L25,55 L34,55 L34,56.315 C34,57.246 33.246,58 32.315,58" id="Fill-262" fill="#BDC3C7" sketch:type="MSShapeGroup"></path>
            <path d="M39,28 L37,28 L37,30 L39,30 C40.654,30 42,31.346 42,33 C42,34.654 40.654,36 39,36 L37,36 L37,38 L39,38 C41.757,38 44,35.757 44,33 C44,30.243 41.757,28 39,28" id="Fill-601" fill="#546A79" sketch:type="MSShapeGroup"></path>
            <path d="M25,4 L13,4 C11.895,4 11,3.105 11,2 C11,0.895 11.895,0 13,0 L25,0 C26.105,0 27,0.895 27,2 C27,3.105 26.105,4 25,4" id="Fill-602" fill="#556080" sketch:type="MSShapeGroup"></path>
            <path d="M14,4 L16,4 L16,12 L14,12 L14,4 Z" id="Fill-603" fill="#38454F" sketch:type="MSShapeGroup"></path>
            <path d="M22,4 L24,4 L24,12 L22,12 L22,4 Z" id="Fill-604" fill="#38454F" sketch:type="MSShapeGroup"></path>
        </g>
    </g>
</svg>