<?xml version="1.0" encoding="UTF-8" standalone="no"?>
<svg width="58px" height="54px" viewBox="0 0 58 54" version="1.1" xmlns="http://www.w3.org/2000/svg" xmlns:xlink="http://www.w3.org/1999/xlink" xmlns:sketch="http://www.bohemiancoding.com/sketch/ns">
    <!-- Generator: Sketch 3.2.2 (9983) - http://www.bohemiancoding.com/sketch -->
    <title>240 - Add Window (Flat)</title>
    <desc>Created with Sketch.</desc>
    <defs></defs>
    <g id="Page-1" stroke="none" stroke-width="1" fill="none" fill-rule="evenodd" sketch:type="MSPage">
        <g id="240---Add-Window-(Flat)" sketch:type="MSLayerGroup">
            <path d="M0,14 L50,14 L50,49 L0,49 L0,14 Z" id="Fill-815" fill="#EDF0F1" sketch:type="MSShapeGroup"></path>
            <path d="M0,0 L50,0 L50,14 L0,14 L0,0 Z" id="Fill-816" fill="#546A79" sketch:type="MSShapeGroup"></path>
            <path d="M10,7 C10,8.657 8.657,10 7,10 C5.343,10 4,8.657 4,7 C4,5.343 5.343,4 7,4 C8.657,4 10,5.343 10,7" id="Fill-817" fill="#ED7061" sketch:type="MSShapeGroup"></path>
            <path d="M19,7 C19,8.657 17.657,10 16,10 C14.343,10 13,8.657 13,7 C13,5.343 14.343,4 16,4 C17.657,4 19,5.343 19,7" id="Fill-818" fill="#F0C41A" sketch:type="MSShapeGroup"></path>
            <path d="M28,7 C28,8.657 26.657,10 25,10 C23.343,10 22,8.657 22,7 C22,5.343 23.343,4 25,4 C26.657,4 28,5.343 28,7" id="Fill-819" fill="#4FBA6E" sketch:type="MSShapeGroup"></path>
            <path d="M58,42 C58,48.628 52.627,54 46,54 C39.373,54 34,48.628 34,42 C34,35.373 39.373,30 46,30 C52.627,30 58,35.373 58,42" id="Fill-2508" fill="#71C386" sketch:type="MSShapeGroup"></path>
            <path d="M52,41 L47,41 L47,36 C47,35.448 46.552,35 46,35 C45.448,35 45,35.448 45,36 L45,41 L40,41 C39.448,41 39,41.448 39,42 C39,42.552 39.448,43 40,43 L45,43 L45,48 C45,48.552 45.448,49 46,49 C46.552,49 47,48.552 47,48 L47,43 L52,43 C52.552,43 53,42.552 53,42 C53,41.448 52.552,41 52,41" id="Fill-2509" fill="#FFFFFF" sketch:type="MSShapeGroup"></path>
        </g>
    </g>
</svg>