<?xml version="1.0" encoding="UTF-8" standalone="no"?>
<svg width="60px" height="60px" viewBox="0 0 60 60" version="1.1" xmlns="http://www.w3.org/2000/svg" xmlns:xlink="http://www.w3.org/1999/xlink" xmlns:sketch="http://www.bohemiancoding.com/sketch/ns">
    <!-- Generator: Sketch 3.2.2 (9983) - http://www.bohemiancoding.com/sketch -->
    <title>33 - Add Stopwatch to Cloud (Flat)</title>
    <desc>Created with Sketch.</desc>
    <defs></defs>
    <g id="Page-1" stroke="none" stroke-width="1" fill="none" fill-rule="evenodd" sketch:type="MSPage">
        <g id="33---Add-Stopwatch-to-Cloud-(Flat)" sketch:type="MSLayerGroup">
            <path d="M59,29 C59,45.016 46.016,58 30,58 C13.984,58 1,45.016 1,29 C1,12.984 13.984,0 30,0 C46.016,0 59,12.984 59,29" id="Fill-542" fill="#3C97D3" sketch:type="MSShapeGroup"></path>
            <path d="M30,60 C13.458,60 0,46.542 0,30 C0,22.007 3.107,14.487 8.749,8.824 C9.528,8.039 10.796,8.039 11.577,8.819 C12.36,9.599 12.362,10.865 11.583,11.647 C6.693,16.555 4,23.072 4,30 C4,44.337 15.663,56 30,56 C44.337,56 56,44.337 56,30 C56,16.337 45.405,5.101 32,4.076 L32,14.833 C32,15.937 31.104,16.833 30,16.833 C28.896,16.833 28,15.937 28,14.833 L28,2 C28,0.896 28.896,0 30,0 C46.542,0 60,13.458 60,30 C60,46.542 46.542,60 30,60" id="Fill-543" fill="#B1D3F0" sketch:type="MSShapeGroup"></path>
            <path d="M20,20.121 L20,20.121 L32.944,29.484 C34.218,30.411 34.363,32.257 33.249,33.371 C32.135,34.484 30.29,34.34 29.363,33.066 L20,20.121" id="Fill-544" fill="#B1D3F0" sketch:type="MSShapeGroup"></path>
            <path d="M54.045,49.093 C53.994,45.157 50.882,41.982 47.046,41.982 C44.478,41.982 42.24,43.408 41.02,45.528 C40.599,45.386 40.15,45.308 39.683,45.308 C37.62,45.308 35.898,46.8 35.475,48.792 C33.721,49.657 32.5,51.498 32.5,53.623 C32.5,56.57 34.844,58.982 37.708,58.982 L48.482,58.982 C48.543,58.982 48.602,58.974 48.662,58.972 C48.722,58.974 48.781,58.982 48.841,58.982 L53.151,58.982 C55.818,58.982 58,56.737 58,53.992 C58,51.562 56.288,49.528 54.045,49.093 L54.045,49.093 Z" id="Fill-2239" fill="#556080" sketch:type="MSShapeGroup"></path>
            <path d="M54.045,49.093 C53.994,45.157 50.882,41.982 47.046,41.982 C44.478,41.982 42.24,43.408 41.02,45.528 C40.599,45.386 40.15,45.308 39.683,45.308 C37.62,45.308 35.898,46.8 35.475,48.792 C33.721,49.657 32.5,51.498 32.5,53.623 C32.5,56.57 34.844,58.982 37.708,58.982 L48.482,58.982 C48.543,58.982 48.602,58.974 48.662,58.972 C48.722,58.974 48.781,58.982 48.841,58.982 L53.151,58.982 C55.818,58.982 58,56.737 58,53.992 C58,51.562 56.288,49.528 54.045,49.093 L54.045,49.093 Z" id="Stroke-2240" stroke="#556080" stroke-width="2" stroke-linecap="round" sketch:type="MSShapeGroup"></path>
        </g>
    </g>
</svg>