<?xml version="1.0" encoding="UTF-8" standalone="no"?>
<svg width="59px" height="46px" viewBox="0 0 59 46" version="1.1" xmlns="http://www.w3.org/2000/svg" xmlns:xlink="http://www.w3.org/1999/xlink" xmlns:sketch="http://www.bohemiancoding.com/sketch/ns">
    <!-- Generator: Sketch 3.2.2 (9983) - http://www.bohemiancoding.com/sketch -->
    <title>533 - Add Mail to Cloud (Flat)</title>
    <desc>Created with Sketch.</desc>
    <defs></defs>
    <g id="Page-1" stroke="none" stroke-width="1" fill="none" fill-rule="evenodd" sketch:type="MSPage">
        <g id="533---Add-Mail-to-Cloud-(Flat)" sketch:type="MSLayerGroup">
            <path d="M0,39 L56,39 L56,0 L0,0 L0,39 Z" id="Fill-1623" fill="#DCD6CD" sketch:type="MSShapeGroup"></path>
            <path d="M30.965,22.107 C29.327,23.569 26.673,23.569 25.035,22.107 L22.948,20.264 C16.419,26.092 0,39 0,39 L56,39 C56,39 39.581,26.092 33.052,20.264 L30.965,22.107" id="Fill-1624" fill="#E8E3D9" sketch:type="MSShapeGroup"></path>
            <path d="M0,0 L25.035,22.107 C26.673,23.569 29.327,23.569 30.965,22.107 L56,0 L0,0" id="Fill-1625" fill="#EFECDE" sketch:type="MSShapeGroup"></path>
            <path d="M54.045,35.111 C53.994,31.176 50.882,28 47.046,28 C44.478,28 42.24,29.426 41.021,31.546 C40.599,31.405 40.15,31.326 39.683,31.326 C37.62,31.326 35.898,32.818 35.475,34.811 C33.721,35.675 32.5,37.516 32.5,39.642 C32.5,42.589 34.844,45 37.708,45 L48.482,45 C48.543,45 48.602,44.993 48.662,44.991 C48.722,44.993 48.781,45 48.842,45 L53.151,45 C55.818,45 58,42.755 58,40.011 C58,37.581 56.288,35.546 54.045,35.111 L54.045,35.111 Z" id="Fill-1865" fill="#91BAE1" sketch:type="MSShapeGroup"></path>
            <path d="M54.045,35.111 C53.994,31.176 50.882,28 47.046,28 C44.478,28 42.24,29.426 41.021,31.546 C40.599,31.405 40.15,31.326 39.683,31.326 C37.62,31.326 35.898,32.818 35.475,34.811 C33.721,35.675 32.5,37.516 32.5,39.642 C32.5,42.589 34.844,45 37.708,45 L48.482,45 C48.543,45 48.602,44.993 48.662,44.991 C48.722,44.993 48.781,45 48.842,45 L53.151,45 C55.818,45 58,42.755 58,40.011 C58,37.581 56.288,35.546 54.045,35.111 L54.045,35.111 Z" id="Stroke-1866" stroke="#8697CB" stroke-width="2" stroke-linecap="round" sketch:type="MSShapeGroup"></path>
        </g>
    </g>
</svg>