<?xml version="1.0" encoding="UTF-8" standalone="no"?>
<svg width="53px" height="56px" viewBox="0 0 53 56" version="1.1" xmlns="http://www.w3.org/2000/svg" xmlns:xlink="http://www.w3.org/1999/xlink" xmlns:sketch="http://www.bohemiancoding.com/sketch/ns">
    <!-- Generator: Sketch 3.2.2 (9983) - http://www.bohemiancoding.com/sketch -->
    <title>113 - Add Database to Cloud (Flat)</title>
    <desc>Created with Sketch.</desc>
    <defs></defs>
    <g id="Page-1" stroke="none" stroke-width="1" fill="none" fill-rule="evenodd" sketch:type="MSPage">
        <g id="113---Add-Database-to-Cloud-(Flat)" sketch:type="MSLayerGroup">
            <path d="M47.955,8 L47.955,8 C47.224,3.538 36.781,0 24,0 C11.219,0 0.776,3.538 0.045,8 L0,8 L0,45 L0.045,45 C0.776,49.461 11.219,53 24,53 C36.781,53 47.224,49.461 47.955,45 L48,45 L48,8 L47.955,8" id="Fill-1478" fill="#545E73" sketch:type="MSShapeGroup"></path>
            <path d="M24,41 C10.745,41 0,37.194 0,32.5 L0,45 L0.045,45 C0.776,49.461 11.219,53 24,53 C36.781,53 47.224,49.461 47.955,45 L48,45 L48,32.5 C48,37.194 37.255,41 24,41" id="Fill-1479" fill="#38454F" sketch:type="MSShapeGroup"></path>
            <path d="M0,32 L0,32.5 C0,32.332 0.018,32.166 0.045,32 L0,32" id="Fill-1480" fill="#38454F" sketch:type="MSShapeGroup"></path>
            <path d="M47.955,32 C47.982,32.166 48,32.332 48,32.5 L48,32 L47.955,32" id="Fill-1481" fill="#38454F" sketch:type="MSShapeGroup"></path>
            <path d="M24,29 C10.745,29 0,25.194 0,20.5 L0,33 L0.045,33 C0.776,37.461 11.219,41 24,41 C36.781,41 47.224,37.461 47.955,33 L48,33 L48,20.5 C48,25.194 37.255,29 24,29" id="Fill-1482" fill="#556080" sketch:type="MSShapeGroup"></path>
            <path d="M0,20 L0,20.5 C0,20.332 0.018,20.166 0.045,20 L0,20" id="Fill-1483" fill="#556080" sketch:type="MSShapeGroup"></path>
            <path d="M47.955,20 C47.982,20.166 48,20.332 48,20.5 L48,20 L47.955,20" id="Fill-1484" fill="#556080" sketch:type="MSShapeGroup"></path>
            <path d="M48,8.5 C48,13.194 37.255,17 24,17 C10.745,17 0,13.194 0,8.5 C0,3.806 10.745,0 24,0 C37.255,0 48,3.806 48,8.5" id="Fill-1485" fill="#91BAE1" sketch:type="MSShapeGroup"></path>
            <path d="M24,17 C10.745,17 0,13.194 0,8.5 L0,21 L0.045,21 C0.776,25.461 11.219,29 24,29 C36.781,29 47.224,25.461 47.955,21 L48,21 L48,8.5 C48,13.194 37.255,17 24,17" id="Fill-1486" fill="#8697CB" sketch:type="MSShapeGroup"></path>
            <path d="M0,8 L0,8.5 C0,8.332 0.018,8.166 0.045,8 L0,8" id="Fill-1487" fill="#8697CB" sketch:type="MSShapeGroup"></path>
            <path d="M47.955,8 C47.982,8.166 48,8.332 48,8.5 L48,8 L47.955,8" id="Fill-1488" fill="#8697CB" sketch:type="MSShapeGroup"></path>
            <path d="M48.045,45.111 C47.994,41.175 44.882,38 41.046,38 C38.478,38 36.24,39.427 35.02,41.547 C34.599,41.405 34.15,41.326 33.683,41.326 C31.62,41.326 29.898,42.818 29.475,44.81 C27.721,45.675 26.5,47.516 26.5,49.641 C26.5,52.589 28.844,55 31.708,55 L42.482,55 C42.543,55 42.602,54.993 42.662,54.991 C42.722,54.993 42.781,55 42.841,55 L47.151,55 C49.818,55 52,52.755 52,50.011 C52,47.581 50.288,45.546 48.045,45.111 L48.045,45.111 Z" id="Fill-2031" fill="#4AA0D8" sketch:type="MSShapeGroup"></path>
            <path d="M48.045,45.111 C47.994,41.175 44.882,38 41.046,38 C38.478,38 36.24,39.427 35.02,41.547 C34.599,41.405 34.15,41.326 33.683,41.326 C31.62,41.326 29.898,42.818 29.475,44.81 C27.721,45.675 26.5,47.516 26.5,49.641 C26.5,52.589 28.844,55 31.708,55 L42.482,55 C42.543,55 42.602,54.993 42.662,54.991 C42.722,54.993 42.781,55 42.841,55 L47.151,55 C49.818,55 52,52.755 52,50.011 C52,47.581 50.288,45.546 48.045,45.111 L48.045,45.111 Z" id="Stroke-2032" stroke="#B1D3F0" stroke-width="2" stroke-linecap="round" sketch:type="MSShapeGroup"></path>
        </g>
    </g>
</svg>