<?xml version="1.0" encoding="UTF-8" standalone="no"?>
<svg width="47px" height="59px" viewBox="0 0 47 59" version="1.1" xmlns="http://www.w3.org/2000/svg" xmlns:xlink="http://www.w3.org/1999/xlink" xmlns:sketch="http://www.bohemiancoding.com/sketch/ns">
    <!-- Generator: Sketch 3.2.2 (9983) - http://www.bohemiancoding.com/sketch -->
    <title>73 - Add Smartphone to Cloud (Flat)</title>
    <desc>Created with Sketch.</desc>
    <defs></defs>
    <g id="Page-1" stroke="none" stroke-width="1" fill="none" fill-rule="evenodd" sketch:type="MSPage">
        <g id="73---Add-Smartphone-to-Cloud-(Flat)" sketch:type="MSLayerGroup">
            <path d="M28.595,58 L3.405,58 C1.525,58 0,56.475 0,54.595 L0,3.405 C0,1.525 1.525,0 3.405,0 L28.595,0 C30.475,0 32,1.525 32,3.405 L32,54.595 C32,56.475 30.475,58 28.595,58" id="Fill-616" fill="#545E73" sketch:type="MSShapeGroup"></path>
            <path d="M0,6 L32,6 L32,46 L0,46 L0,6 Z" id="Fill-617" fill="#8697CB" sketch:type="MSShapeGroup"></path>
            <path d="M19,52 C19,53.657 17.657,55 16,55 C14.343,55 13,53.657 13,52 C13,50.344 14.343,49 16,49 C17.657,49 19,50.344 19,52" id="Fill-618" fill="#323A45" sketch:type="MSShapeGroup"></path>
            <path d="M16,4 L12,4 C11.447,4 11,3.553 11,3 C11,2.448 11.447,2 12,2 L16,2 C16.553,2 17,2.448 17,3 C17,3.553 16.553,4 16,4" id="Fill-619" fill="#323A45" sketch:type="MSShapeGroup"></path>
            <path d="M20,4 L19,4 C18.447,4 18,3.553 18,3 C18,2.448 18.447,2 19,2 L20,2 C20.553,2 21,2.448 21,3 C21,3.553 20.553,4 20,4" id="Fill-620" fill="#323A45" sketch:type="MSShapeGroup"></path>
            <path d="M41.434,48.093 C41.384,44.157 38.272,40.982 34.435,40.982 C31.868,40.982 29.629,42.408 28.41,44.528 C27.989,44.386 27.54,44.308 27.073,44.308 C25.01,44.308 23.288,45.8 22.865,47.792 C21.111,48.657 19.89,50.498 19.89,52.623 C19.89,55.57 22.233,57.982 25.097,57.982 L35.872,57.982 C35.933,57.982 35.992,57.974 36.052,57.972 C36.112,57.974 36.171,57.982 36.231,57.982 L40.541,57.982 C43.208,57.982 45.39,55.737 45.39,52.992 C45.39,50.563 43.678,48.528 41.434,48.093 L41.434,48.093 Z" id="Fill-2187" fill="#4AA0D8" sketch:type="MSShapeGroup"></path>
            <path d="M41.434,48.093 C41.384,44.157 38.272,40.982 34.435,40.982 C31.868,40.982 29.629,42.408 28.41,44.528 C27.989,44.386 27.54,44.308 27.073,44.308 C25.01,44.308 23.288,45.8 22.865,47.792 C21.111,48.657 19.89,50.498 19.89,52.623 C19.89,55.57 22.233,57.982 25.097,57.982 L35.872,57.982 C35.933,57.982 35.992,57.974 36.052,57.972 C36.112,57.974 36.171,57.982 36.231,57.982 L40.541,57.982 C43.208,57.982 45.39,55.737 45.39,52.992 C45.39,50.563 43.678,48.528 41.434,48.093 L41.434,48.093 Z" id="Stroke-2188" stroke="#B1D3F0" stroke-width="2" stroke-linecap="round" sketch:type="MSShapeGroup"></path>
        </g>
    </g>
</svg>