<?xml version="1.0" encoding="UTF-8" standalone="no"?>
<svg width="60px" height="60px" viewBox="0 0 60 60" version="1.1" xmlns="http://www.w3.org/2000/svg" xmlns:xlink="http://www.w3.org/1999/xlink" xmlns:sketch="http://www.bohemiancoding.com/sketch/ns">
    <!-- Generator: Sketch 3.2.2 (9983) - http://www.bohemiancoding.com/sketch -->
    <title>40 - Add Stopwatch (Flat)</title>
    <desc>Created with Sketch.</desc>
    <defs></defs>
    <g id="Page-1" stroke="none" stroke-width="1" fill="none" fill-rule="evenodd" sketch:type="MSPage">
        <g id="40---Add-Stopwatch-(Flat)" sketch:type="MSLayerGroup">
            <path d="M59,29 C59,45.016 46.016,58 30,58 C13.984,58 1,45.016 1,29 C1,12.984 13.984,0 30,0 C46.016,0 59,12.984 59,29" id="Fill-521" fill="#3C97D3" sketch:type="MSShapeGroup"></path>
            <path d="M30,60 C13.458,60 0,46.542 0,30 C0,22.007 3.107,14.487 8.749,8.824 C9.528,8.039 10.796,8.039 11.577,8.819 C12.36,9.599 12.362,10.865 11.583,11.647 C6.693,16.555 4,23.072 4,30 C4,44.337 15.663,56 30,56 C44.337,56 56,44.337 56,30 C56,16.337 45.405,5.101 32,4.076 L32,14.833 C32,15.937 31.104,16.833 30,16.833 C28.896,16.833 28,15.937 28,14.833 L28,2 C28,0.896 28.896,0 30,0 C46.542,0 60,13.458 60,30 C60,46.542 46.542,60 30,60" id="Fill-522" fill="#B1D3F0" sketch:type="MSShapeGroup"></path>
            <path d="M20,20.121 L20,20.121 L32.944,29.484 C34.218,30.411 34.363,32.257 33.249,33.371 C32.135,34.484 30.29,34.34 29.363,33.066 L20,20.121" id="Fill-523" fill="#B1D3F0" sketch:type="MSShapeGroup"></path>
            <path d="M60,47.982 C60,54.609 54.627,59.982 48,59.982 C41.373,59.982 36,54.609 36,47.982 C36,41.354 41.373,35.982 48,35.982 C54.627,35.982 60,41.354 60,47.982" id="Fill-2244" fill="#71C386" sketch:type="MSShapeGroup"></path>
            <path d="M54,46.982 L49,46.982 L49,41.982 C49,41.43 48.552,40.982 48,40.982 C47.448,40.982 47,41.43 47,41.982 L47,46.982 L42,46.982 C41.448,46.982 41,47.43 41,47.982 C41,48.534 41.448,48.982 42,48.982 L47,48.982 L47,53.982 C47,54.534 47.448,54.982 48,54.982 C48.552,54.982 49,54.534 49,53.982 L49,48.982 L54,48.982 C54.552,48.982 55,48.534 55,47.982 C55,47.43 54.552,46.982 54,46.982" id="Fill-2245" fill="#FFFFFF" sketch:type="MSShapeGroup"></path>
        </g>
    </g>
</svg>