<?xml version="1.0" encoding="UTF-8" standalone="no"?>
<svg width="56px" height="58px" viewBox="0 0 56 58" version="1.1" xmlns="http://www.w3.org/2000/svg" xmlns:xlink="http://www.w3.org/1999/xlink" xmlns:sketch="http://www.bohemiancoding.com/sketch/ns">
    <!-- Generator: Sketch 3.2.2 (9983) - http://www.bohemiancoding.com/sketch -->
    <title>500 - Add Notes (Flat)</title>
    <desc>Created with Sketch.</desc>
    <defs></defs>
    <g id="Page-1" stroke="none" stroke-width="1" fill="none" fill-rule="evenodd" sketch:type="MSPage">
        <g id="500---Add-Notes-(Flat)" sketch:type="MSLayerGroup">
            <path d="M0,0 L44,0 L44,58 L0,58 L0,0 Z" id="Fill-1461" fill="#CCB292" sketch:type="MSShapeGroup"></path>
            <path d="M0,0 L8,0 L8,58 L0,58 L0,0 Z" id="Fill-1462" fill="#7F6E5D" sketch:type="MSShapeGroup"></path>
            <path d="M15,10 L37,10 L37,22 L15,22 L15,10 Z" id="Fill-1463" fill="#EFECDE" sketch:type="MSShapeGroup"></path>
            <path d="M19,13 L33,13 L33,15 L19,15 L19,13 Z" id="Fill-1464" fill="#D5D0BB" sketch:type="MSShapeGroup"></path>
            <path d="M19,17 L33,17 L33,19 L19,19 L19,17 Z" id="Fill-1465" fill="#D5D0BB" sketch:type="MSShapeGroup"></path>
            <path d="M56,46 C56,52.627 50.627,58 44,58 C37.373,58 32,52.627 32,46 C32,39.373 37.373,34 44,34 C50.627,34 56,39.373 56,46" id="Fill-2040" fill="#71C386" sketch:type="MSShapeGroup"></path>
            <path d="M50,45 L45,45 L45,40 C45,39.448 44.552,39 44,39 C43.448,39 43,39.448 43,40 L43,45 L38,45 C37.448,45 37,45.448 37,46 C37,46.552 37.448,47 38,47 L43,47 L43,52 C43,52.552 43.448,53 44,53 C44.552,53 45,52.552 45,52 L45,47 L50,47 C50.552,47 51,46.552 51,46 C51,45.448 50.552,45 50,45" id="Fill-2041" fill="#FFFFFF" sketch:type="MSShapeGroup"></path>
        </g>
    </g>
</svg>