<?xml version="1.0" encoding="UTF-8" standalone="no"?>
<svg width="46px" height="53px" viewBox="0 0 46 53" version="1.1" xmlns="http://www.w3.org/2000/svg" xmlns:xlink="http://www.w3.org/1999/xlink" xmlns:sketch="http://www.bohemiancoding.com/sketch/ns">
    <!-- Generator: Sketch 3.2.2 (9983) - http://www.bohemiancoding.com/sketch -->
    <title>520 - Add Location (Flat)</title>
    <desc>Created with Sketch.</desc>
    <defs></defs>
    <g id="Page-1" stroke="none" stroke-width="1" fill="none" fill-rule="evenodd" sketch:type="MSPage">
        <g id="520---Add-Location-(Flat)" sketch:type="MSLayerGroup">
            <path d="M31.676,5.324 L31.676,5.324 C24.578,-1.774 13.069,-1.774 5.97,5.324 C-0.426,11.72 -1.145,23.764 4.282,31 L18.823,52 L33.365,31 C38.792,23.764 38.072,11.72 31.676,5.324 L31.676,5.324 Z M19,24 C15.686,24 13,21.314 13,18 C13,14.687 15.686,12 19,12 C22.314,12 25,14.687 25,18 C25,21.314 22.314,24 19,24 L19,24 Z" id="Fill-1561" fill="#3192D0" sketch:type="MSShapeGroup"></path>
            <path d="M46,41 C46,47.627 40.627,53 34,53 C27.373,53 22,47.627 22,41 C22,34.373 27.373,29 34,29 C40.627,29 46,34.373 46,41" id="Fill-1938" fill="#71C386" sketch:type="MSShapeGroup"></path>
            <path d="M40,40 L35,40 L35,35 C35,34.448 34.552,34 34,34 C33.448,34 33,34.448 33,35 L33,40 L28,40 C27.448,40 27,40.448 27,41 C27,41.552 27.448,42 28,42 L33,42 L33,47 C33,47.552 33.448,48 34,48 C34.552,48 35,47.552 35,47 L35,42 L40,42 C40.552,42 41,41.552 41,41 C41,40.448 40.552,40 40,40" id="Fill-1939" fill="#FFFFFF" sketch:type="MSShapeGroup"></path>
        </g>
    </g>
</svg>