<?xml version="1.0" encoding="UTF-8" standalone="no"?>
<svg width="57px" height="58px" viewBox="0 0 57 58" version="1.1" xmlns="http://www.w3.org/2000/svg" xmlns:xlink="http://www.w3.org/1999/xlink" xmlns:sketch="http://www.bohemiancoding.com/sketch/ns">
    <!-- Generator: Sketch 3.2.2 (9983) - http://www.bohemiancoding.com/sketch -->
    <title>493 - Add Notes to Cloud (Flat)</title>
    <desc>Created with Sketch.</desc>
    <defs></defs>
    <g id="Page-1" stroke="none" stroke-width="1" fill="none" fill-rule="evenodd" sketch:type="MSPage">
        <g id="493---Add-Notes-to-Cloud-(Flat)" sketch:type="MSLayerGroup">
            <path d="M0,0 L44,0 L44,58 L0,58 L0,0 Z" id="Fill-1496" fill="#CCB292" sketch:type="MSShapeGroup"></path>
            <path d="M0,0 L8,0 L8,58 L0,58 L0,0 Z" id="Fill-1497" fill="#7F6E5D" sketch:type="MSShapeGroup"></path>
            <path d="M15,10 L37,10 L37,22 L15,22 L15,10 Z" id="Fill-1498" fill="#EFECDE" sketch:type="MSShapeGroup"></path>
            <path d="M19,13 L33,13 L33,15 L19,15 L19,13 Z" id="Fill-1499" fill="#D5D0BB" sketch:type="MSShapeGroup"></path>
            <path d="M19,17 L33,17 L33,19 L19,19 L19,17 Z" id="Fill-1500" fill="#D5D0BB" sketch:type="MSShapeGroup"></path>
            <path d="M51.545,47.111 C51.494,43.175 48.382,40 44.546,40 C41.978,40 39.74,41.426 38.52,43.547 C38.099,43.405 37.65,43.326 37.183,43.326 C35.12,43.326 33.398,44.819 32.975,46.811 C31.221,47.675 30,49.516 30,51.642 C30,54.589 32.344,57 35.208,57 L45.982,57 C46.043,57 46.102,56.993 46.162,56.991 C46.222,56.993 46.281,57 46.342,57 L50.651,57 C53.318,57 55.5,54.755 55.5,52.011 C55.5,49.581 53.788,47.546 51.545,47.111 L51.545,47.111 Z" id="Fill-2035" fill="#91BAE1" sketch:type="MSShapeGroup"></path>
            <path d="M51.545,47.111 C51.494,43.175 48.382,40 44.546,40 C41.978,40 39.74,41.426 38.52,43.547 C38.099,43.405 37.65,43.326 37.183,43.326 C35.12,43.326 33.398,44.819 32.975,46.811 C31.221,47.675 30,49.516 30,51.642 C30,54.589 32.344,57 35.208,57 L45.982,57 C46.043,57 46.102,56.993 46.162,56.991 C46.222,56.993 46.281,57 46.342,57 L50.651,57 C53.318,57 55.5,54.755 55.5,52.011 C55.5,49.581 53.788,47.546 51.545,47.111 L51.545,47.111 Z" id="Stroke-2036" stroke="#8697CB" stroke-width="2" stroke-linecap="round" sketch:type="MSShapeGroup"></path>
        </g>
    </g>
</svg>