<?xml version="1.0" encoding="UTF-8" standalone="no"?>
<svg width="56px" height="58px" viewBox="0 0 56 58" version="1.1" xmlns="http://www.w3.org/2000/svg" xmlns:xlink="http://www.w3.org/1999/xlink" xmlns:sketch="http://www.bohemiancoding.com/sketch/ns">
    <!-- Generator: Sketch 3.2.2 (9983) - http://www.bohemiancoding.com/sketch -->
    <title>133 - Add Archive to Cloud (Flat)</title>
    <desc>Created with Sketch.</desc>
    <defs></defs>
    <g id="Page-1" stroke="none" stroke-width="1" fill="none" fill-rule="evenodd" sketch:type="MSPage">
        <g id="133---Add-Archive-to-Cloud-(Flat)" sketch:type="MSLayerGroup">
            <path d="M50.168,58 L1.832,58 C0.82,58 0,57.18 0,56.168 L0,1.833 C0,0.821 0.82,0 1.832,0 L50.168,0 C51.18,0 52,0.821 52,1.833 L52,56.168 C52,57.18 51.18,58 50.168,58" id="Fill-1649" fill="#545E73" sketch:type="MSShapeGroup"></path>
            <path d="M31.495,17 L20.505,17 C18.572,17 17,15.428 17,13.495 L17,12 C17,11.448 17.447,11 18,11 C18.553,11 19,11.448 19,12 L19,13.495 C19,14.325 19.675,15 20.505,15 L31.495,15 C32.325,15 33,14.325 33,13.495 L33,12 C33,11.448 33.447,11 34,11 C34.553,11 35,11.448 35,12 L35,13.495 C35,15.428 33.428,17 31.495,17" id="Fill-1650" fill="#EDF0F1" sketch:type="MSShapeGroup"></path>
            <path d="M31.495,46 L20.505,46 C18.572,46 17,44.428 17,42.495 L17,41 C17,40.447 17.447,40 18,40 C18.553,40 19,40.447 19,41 L19,42.495 C19,43.325 19.675,44 20.505,44 L31.495,44 C32.325,44 33,43.325 33,42.495 L33,41 C33,40.447 33.447,40 34,40 C34.553,40 35,40.447 35,41 L35,42.495 C35,44.428 33.428,46 31.495,46" id="Fill-1651" fill="#EDF0F1" sketch:type="MSShapeGroup"></path>
            <path d="M0,28 L52,28 L52,30 L0,30 L0,28 Z" id="Fill-1652" fill="#394050" sketch:type="MSShapeGroup"></path>
            <path d="M51.045,47.111 C50.994,43.175 47.882,40 44.046,40 C41.478,40 39.24,41.427 38.02,43.547 C37.599,43.405 37.15,43.326 36.683,43.326 C34.62,43.326 32.898,44.818 32.475,46.81 C30.721,47.675 29.5,49.516 29.5,51.641 C29.5,54.589 31.844,57 34.708,57 L45.482,57 C45.543,57 45.602,56.993 45.662,56.991 C45.722,56.993 45.781,57 45.841,57 L50.151,57 C52.818,57 55,54.755 55,52.011 C55,49.581 53.288,47.546 51.045,47.111 L51.045,47.111 Z" id="Fill-2343" fill="#4AA0D8" sketch:type="MSShapeGroup"></path>
            <path d="M51.045,47.111 C50.994,43.175 47.882,40 44.046,40 C41.478,40 39.24,41.427 38.02,43.547 C37.599,43.405 37.15,43.326 36.683,43.326 C34.62,43.326 32.898,44.818 32.475,46.81 C30.721,47.675 29.5,49.516 29.5,51.641 C29.5,54.589 31.844,57 34.708,57 L45.482,57 C45.543,57 45.602,56.993 45.662,56.991 C45.722,56.993 45.781,57 45.841,57 L50.151,57 C52.818,57 55,54.755 55,52.011 C55,49.581 53.288,47.546 51.045,47.111 L51.045,47.111 Z" id="Stroke-2344" stroke="#B1D3F0" stroke-width="2" stroke-linecap="round" sketch:type="MSShapeGroup"></path>
        </g>
    </g>
</svg>