<?xml version="1.0" encoding="UTF-8" standalone="no"?>
<svg width="47px" height="55px" viewBox="0 0 47 55" version="1.1" xmlns="http://www.w3.org/2000/svg" xmlns:xlink="http://www.w3.org/1999/xlink" xmlns:sketch="http://www.bohemiancoding.com/sketch/ns">
    <!-- Generator: Sketch 3.2.2 (9983) - http://www.bohemiancoding.com/sketch -->
    <title>313 - Add Bookmark to Cloud (Flat)</title>
    <desc>Created with Sketch.</desc>
    <defs></defs>
    <g id="Page-1" stroke="none" stroke-width="1" fill="none" fill-rule="evenodd" sketch:type="MSPage">
        <g id="313---Add-Bookmark-to-Cloud-(Flat)" sketch:type="MSLayerGroup">
            <path d="M16,0 L0,0 L0,53.444 C0,53.938 0.598,54.186 0.948,53.836 L16,38.784 L31.052,53.836 C31.402,54.186 32,53.938 32,53.444 L32,0 L16,0" id="Fill-1109" fill="#D85A4A" sketch:type="MSShapeGroup"></path>
            <path d="M0,0 L32,0 L32,11 L0,11 L0,0 Z" id="Fill-1814" fill="#C13B2A" sketch:type="MSShapeGroup"></path>
            <path d="M42.045,44.111 C41.994,40.176 38.882,37 35.046,37 C32.478,37 30.24,38.426 29.02,40.547 C28.599,40.405 28.15,40.326 27.683,40.326 C25.62,40.326 23.898,41.819 23.475,43.811 C21.721,44.675 20.5,46.516 20.5,48.642 C20.5,51.589 22.844,54 25.708,54 L36.482,54 C36.543,54 36.602,53.993 36.662,53.991 C36.722,53.993 36.781,54 36.842,54 L41.151,54 C43.818,54 46,51.755 46,49.011 C46,46.581 44.288,44.546 42.045,44.111 L42.045,44.111 Z" id="Fill-2607" fill="#4AA0D8" sketch:type="MSShapeGroup"></path>
            <path d="M42.045,44.111 C41.994,40.176 38.882,37 35.046,37 C32.478,37 30.24,38.426 29.02,40.547 C28.599,40.405 28.15,40.326 27.683,40.326 C25.62,40.326 23.898,41.819 23.475,43.811 C21.721,44.675 20.5,46.516 20.5,48.642 C20.5,51.589 22.844,54 25.708,54 L36.482,54 C36.543,54 36.602,53.993 36.662,53.991 C36.722,53.993 36.781,54 36.842,54 L41.151,54 C43.818,54 46,51.755 46,49.011 C46,46.581 44.288,44.546 42.045,44.111 L42.045,44.111 Z" id="Stroke-2608" stroke="#B1D3F0" stroke-width="2" stroke-linecap="round" sketch:type="MSShapeGroup"></path>
        </g>
    </g>
</svg>