<?xml version="1.0" encoding="UTF-8" standalone="no"?>
<svg width="60px" height="53px" viewBox="0 0 60 53" version="1.1" xmlns="http://www.w3.org/2000/svg" xmlns:xlink="http://www.w3.org/1999/xlink" xmlns:sketch="http://www.bohemiancoding.com/sketch/ns">
    <!-- Generator: Sketch 3.2.2 (9983) - http://www.bohemiancoding.com/sketch -->
    <title>433 - Add Picture to Cloud (Flat)</title>
    <desc>Created with Sketch.</desc>
    <defs></defs>
    <g id="Page-1" stroke="none" stroke-width="1" fill="none" fill-rule="evenodd" sketch:type="MSPage">
        <g id="433---Add-Picture-to-Cloud-(Flat)" sketch:type="MSLayerGroup" transform="translate(1.000000, 1.000000)">
            <path d="M0,0 L55,0 L55,42 L0,42 L0,0 Z" id="Fill-477" fill="#EDF0F1" sketch:type="MSShapeGroup"></path>
            <path d="M0,0 L55,0 L55,42 L0,42 L0,0 Z" id="Stroke-478" stroke="#545E73" stroke-width="2" sketch:type="MSShapeGroup"></path>
            <path d="M4,4 L51,4 L51,38 L4,38 L4,4 Z" id="Fill-479" fill="#545E73" sketch:type="MSShapeGroup"></path>
            <path d="M4,4 L51,4 L51,38 L4,38 L4,4 Z" id="Stroke-480" stroke="#EDF0F1" stroke-width="2" sketch:type="MSShapeGroup"></path>
            <path d="M18.569,12.569 C18.569,15.093 16.523,17.138 14,17.138 C11.477,17.138 9.431,15.093 9.431,12.569 C9.431,10.046 11.477,8 14,8 C16.523,8 18.569,10.046 18.569,12.569" id="Fill-481" fill="#F4D65A" sketch:type="MSShapeGroup"></path>
            <path d="M50,28.111 L49,27 L37,16 L26.5,27.5 L36,37 L50,37 L50,28.111" id="Fill-482" fill="#11A085" sketch:type="MSShapeGroup"></path>
            <path d="M5,37 L36,37 L21.017,22.017 L5,36 L5,37" id="Fill-483" fill="#26B99A" sketch:type="MSShapeGroup"></path>
            <path d="M54.045,41.111 C53.994,37.176 50.882,34 47.046,34 C44.478,34 42.24,35.426 41.021,37.547 C40.599,37.405 40.15,37.326 39.683,37.326 C37.62,37.326 35.898,38.819 35.475,40.81 C33.721,41.675 32.5,43.516 32.5,45.642 C32.5,48.589 34.844,51 37.708,51 L48.482,51 C48.543,51 48.602,50.993 48.662,50.991 C48.722,50.993 48.781,51 48.842,51 L53.151,51 C55.818,51 58,48.755 58,46.011 C58,43.581 56.288,41.546 54.045,41.111 L54.045,41.111 Z" id="Fill-2139" fill="#4AA0D8" sketch:type="MSShapeGroup"></path>
            <path d="M54.045,41.111 C53.994,37.176 50.882,34 47.046,34 C44.478,34 42.24,35.426 41.021,37.547 C40.599,37.405 40.15,37.326 39.683,37.326 C37.62,37.326 35.898,38.819 35.475,40.81 C33.721,41.675 32.5,43.516 32.5,45.642 C32.5,48.589 34.844,51 37.708,51 L48.482,51 C48.543,51 48.602,50.993 48.662,50.991 C48.722,50.993 48.781,51 48.842,51 L53.151,51 C55.818,51 58,48.755 58,46.011 C58,43.581 56.288,41.546 54.045,41.111 L54.045,41.111 Z" id="Stroke-2140" stroke="#B1D3F0" stroke-width="2" stroke-linecap="round" sketch:type="MSShapeGroup"></path>
        </g>
    </g>
</svg>