<?xml version="1.0" encoding="UTF-8" standalone="no"?>
<svg width="58px" height="54px" viewBox="0 0 58 54" version="1.1" xmlns="http://www.w3.org/2000/svg" xmlns:xlink="http://www.w3.org/1999/xlink" xmlns:sketch="http://www.bohemiancoding.com/sketch/ns">
    <!-- Generator: Sketch 3.2.2 (9983) - http://www.bohemiancoding.com/sketch -->
    <title>233 - Add Window to Cloud (Flat)</title>
    <desc>Created with Sketch.</desc>
    <defs></defs>
    <g id="Page-1" stroke="none" stroke-width="1" fill="none" fill-rule="evenodd" sketch:type="MSPage">
        <g id="233---Add-Window-to-Cloud-(Flat)" sketch:type="MSLayerGroup">
            <path d="M0,14 L50,14 L50,49 L0,49 L0,14 Z" id="Fill-850" fill="#EDF0F1" sketch:type="MSShapeGroup"></path>
            <path d="M0,0 L50,0 L50,14 L0,14 L0,0 Z" id="Fill-851" fill="#546A79" sketch:type="MSShapeGroup"></path>
            <path d="M10,7 C10,8.657 8.657,10 7,10 C5.343,10 4,8.657 4,7 C4,5.343 5.343,4 7,4 C8.657,4 10,5.343 10,7" id="Fill-852" fill="#ED7061" sketch:type="MSShapeGroup"></path>
            <path d="M19,7 C19,8.657 17.657,10 16,10 C14.343,10 13,8.657 13,7 C13,5.343 14.343,4 16,4 C17.657,4 19,5.343 19,7" id="Fill-853" fill="#F0C41A" sketch:type="MSShapeGroup"></path>
            <path d="M28,7 C28,8.657 26.657,10 25,10 C23.343,10 22,8.657 22,7 C22,5.343 23.343,4 25,4 C26.657,4 28,5.343 28,7" id="Fill-854" fill="#4FBA6E" sketch:type="MSShapeGroup"></path>
            <path d="M53.045,43.111 C52.994,39.175 49.882,36 46.046,36 C43.478,36 41.24,37.426 40.02,39.547 C39.599,39.405 39.15,39.326 38.683,39.326 C36.62,39.326 34.898,40.818 34.475,42.81 C32.721,43.675 31.5,45.516 31.5,47.641 C31.5,50.589 33.844,53 36.708,53 L47.482,53 C47.543,53 47.602,52.993 47.662,52.991 C47.722,52.993 47.781,53 47.841,53 L52.151,53 C54.818,53 57,50.755 57,48.011 C57,45.581 55.288,43.546 53.045,43.111 L53.045,43.111 Z" id="Fill-2503" fill="#4AA0D8" sketch:type="MSShapeGroup"></path>
            <path d="M53.045,43.111 C52.994,39.175 49.882,36 46.046,36 C43.478,36 41.24,37.426 40.02,39.547 C39.599,39.405 39.15,39.326 38.683,39.326 C36.62,39.326 34.898,40.818 34.475,42.81 C32.721,43.675 31.5,45.516 31.5,47.641 C31.5,50.589 33.844,53 36.708,53 L47.482,53 C47.543,53 47.602,52.993 47.662,52.991 C47.722,52.993 47.781,53 47.841,53 L52.151,53 C54.818,53 57,50.755 57,48.011 C57,45.581 55.288,43.546 53.045,43.111 L53.045,43.111 Z" id="Stroke-2504" stroke="#B1D3F0" stroke-width="2" stroke-linecap="round" sketch:type="MSShapeGroup"></path>
        </g>
    </g>
</svg>