<?xml version="1.0" encoding="UTF-8" standalone="no"?>
<svg width="55px" height="56px" viewBox="0 0 55 56" version="1.1" xmlns="http://www.w3.org/2000/svg" xmlns:xlink="http://www.w3.org/1999/xlink" xmlns:sketch="http://www.bohemiancoding.com/sketch/ns">
    <!-- Generator: Sketch 3.2.2 (9983) - http://www.bohemiancoding.com/sketch -->
    <title>473 - Add Map to Cloud (Flat)</title>
    <desc>Created with Sketch.</desc>
    <defs></defs>
    <g id="Page-1" stroke="none" stroke-width="1" fill="none" fill-rule="evenodd" sketch:type="MSPage">
        <g id="473---Add-Map-to-Cloud-(Flat)" sketch:type="MSLayerGroup">
            <path d="M18,21.243 L2.256,5.499 L0,6 L0,49 L2.099,48.534 L18,32.633 L18,21.243" id="Fill-1305" fill="#4FBA6E" sketch:type="MSShapeGroup"></path>
            <path d="M9.372,46.918 L18,45 L18,38.29 L9.372,46.918" id="Fill-1306" fill="#4AA0D8" sketch:type="MSShapeGroup"></path>
            <path d="M18,2 L6.884,4.47 L18,15.586 L18,2" id="Fill-1307" fill="#4FBA6E" sketch:type="MSShapeGroup"></path>
            <path d="M49.449,1.184 L35,6 L35,15.632 L49.449,1.184" id="Fill-1308" fill="#4FBA6E" sketch:type="MSShapeGroup"></path>
            <path d="M35,21.29 L35,48 L53,41 L53,3.29 L35,21.29" id="Fill-1309" fill="#4AA0D8" sketch:type="MSShapeGroup"></path>
            <path d="M26.523,24.109 L35,15.632 L35,6 L18,2 L18,15.586 L26.523,24.109" id="Fill-1310" fill="#4AA461" sketch:type="MSShapeGroup"></path>
            <path d="M18,21.243 L18,32.633 L23.695,26.938 L18,21.243" id="Fill-1311" fill="#4AA461" sketch:type="MSShapeGroup"></path>
            <path d="M18,38.29 L18,45 L35,48 L35,21.29 L18,38.29" id="Fill-1312" fill="#51A2C9" sketch:type="MSShapeGroup"></path>
            <path d="M18,15.586 L6.884,4.47 L2.256,5.499 L18,21.243 L18,15.586" id="Fill-1313" fill="#F4D65A" sketch:type="MSShapeGroup"></path>
            <path d="M18,32.633 L2.099,48.534 L9.372,46.918 L18,38.29 L18,32.633" id="Fill-1314" fill="#F4D65A" sketch:type="MSShapeGroup"></path>
            <path d="M35,21.29 L53,3.29 L53,0 L49.449,1.184 L35,15.632 L35,21.29" id="Fill-1315" fill="#F4D65A" sketch:type="MSShapeGroup"></path>
            <path d="M26.523,24.109 L18,15.586 L18,21.243 L23.695,26.938 L18,32.633 L18,38.29 L35,21.29 L35,15.632 L26.523,24.109" id="Fill-1316" fill="#DCBD56" sketch:type="MSShapeGroup"></path>
            <path d="M49.545,45.111 C49.494,41.176 46.382,38 42.546,38 C39.978,38 37.74,39.426 36.521,41.547 C36.099,41.405 35.65,41.326 35.183,41.326 C33.12,41.326 31.398,42.819 30.975,44.81 C29.221,45.675 28,47.516 28,49.642 C28,52.589 30.344,55 33.208,55 L43.982,55 C44.043,55 44.102,54.993 44.162,54.991 C44.222,54.993 44.281,55 44.342,55 L48.651,55 C51.318,55 53.5,52.755 53.5,50.011 C53.5,47.581 51.788,45.546 49.545,45.111 L49.545,45.111 Z" id="Fill-2628" fill="#91BAE1" sketch:type="MSShapeGroup"></path>
            <path d="M49.545,45.111 C49.494,41.176 46.382,38 42.546,38 C39.978,38 37.74,39.426 36.521,41.547 C36.099,41.405 35.65,41.326 35.183,41.326 C33.12,41.326 31.398,42.819 30.975,44.81 C29.221,45.675 28,47.516 28,49.642 C28,52.589 30.344,55 33.208,55 L43.982,55 C44.043,55 44.102,54.993 44.162,54.991 C44.222,54.993 44.281,55 44.342,55 L48.651,55 C51.318,55 53.5,52.755 53.5,50.011 C53.5,47.581 51.788,45.546 49.545,45.111 L49.545,45.111 Z" id="Stroke-2629" stroke="#8697CB" stroke-width="2" stroke-linecap="round" sketch:type="MSShapeGroup"></path>
        </g>
    </g>
</svg>