<?xml version="1.0" encoding="UTF-8" standalone="no"?>
<svg width="45px" height="55px" viewBox="0 0 45 55" version="1.1" xmlns="http://www.w3.org/2000/svg" xmlns:xlink="http://www.w3.org/1999/xlink" xmlns:sketch="http://www.bohemiancoding.com/sketch/ns">
    <!-- Generator: Sketch 3.2.2 (9983) - http://www.bohemiancoding.com/sketch -->
    <title>320 - Add Bookmark (Flat)</title>
    <desc>Created with Sketch.</desc>
    <defs></defs>
    <g id="Page-1" stroke="none" stroke-width="1" fill="none" fill-rule="evenodd" sketch:type="MSPage">
        <g id="320---Add-Bookmark-(Flat)" sketch:type="MSLayerGroup">
            <path d="M16,0 L0,0 L0,53.444 C0,53.938 0.598,54.186 0.948,53.836 L16,38.784 L31.052,53.836 C31.402,54.186 32,53.938 32,53.444 L32,0 L16,0" id="Fill-1095" fill="#D85A4A" sketch:type="MSShapeGroup"></path>
            <path d="M0,0 L32,0 L32,11 L0,11 L0,0 Z" id="Fill-1800" fill="#C13B2A" sketch:type="MSShapeGroup"></path>
            <path d="M45,43 C45,49.628 39.627,55 33,55 C26.373,55 21,49.628 21,43 C21,36.373 26.373,31 33,31 C39.627,31 45,36.373 45,43" id="Fill-2612" fill="#71C386" sketch:type="MSShapeGroup"></path>
            <path d="M39,42 L34,42 L34,37 C34,36.448 33.552,36 33,36 C32.448,36 32,36.448 32,37 L32,42 L27,42 C26.448,42 26,42.448 26,43 C26,43.552 26.448,44 27,44 L32,44 L32,49 C32,49.552 32.448,50 33,50 C33.552,50 34,49.552 34,49 L34,44 L39,44 C39.552,44 40,43.552 40,43 C40,42.448 39.552,42 39,42" id="Fill-2613" fill="#FFFFFF" sketch:type="MSShapeGroup"></path>
        </g>
    </g>
</svg>