<?xml version="1.0" encoding="UTF-8" standalone="no"?>
<svg width="59px" height="55px" viewBox="0 0 59 55" version="1.1" xmlns="http://www.w3.org/2000/svg" xmlns:xlink="http://www.w3.org/1999/xlink" xmlns:sketch="http://www.bohemiancoding.com/sketch/ns">
    <!-- Generator: Sketch 3.2.2 (9983) - http://www.bohemiancoding.com/sketch -->
    <title>416 - Album Warning (Flat)</title>
    <desc>Created with Sketch.</desc>
    <defs></defs>
    <g id="Page-1" stroke="none" stroke-width="1" fill="none" fill-rule="evenodd" sketch:type="MSPage">
        <g id="416---Album-Warning-(Flat)" sketch:type="MSLayerGroup">
            <path d="M0,47 L56,47 L56,0 L0,0 L0,47 Z" id="Fill-1189" fill="#E04D60" sketch:type="MSShapeGroup"></path>
            <path d="M39.659,9.248 C39.443,9.058 39.153,8.971 38.87,9.009 L20.87,11.376 C20.372,11.442 20,11.865 20,12.367 L20,31.802 C18.831,30.783 17.246,30.153 15.5,30.153 C11.916,30.153 9,32.794 9,36.041 C9,39.288 11.916,41.93 15.5,41.93 C19.084,41.93 22,39.288 22,36.041 L22,18.244 L38,16.14 L38,26.542 C36.867,25.576 35.347,24.98 33.673,24.98 C30.185,24.98 27.347,27.552 27.347,30.714 C27.347,33.876 30.185,36.449 33.673,36.449 C37.162,36.449 40,33.876 40,30.714 L40,10 C40,9.712 39.876,9.439 39.659,9.248" id="Fill-1190" fill="#FFFFFF" sketch:type="MSShapeGroup"></path>
            <path d="M57.761,55 L34.07,55 C33.115,55 32.52,53.964 33.001,53.139 L44.846,32.833 C45.324,32.014 46.507,32.014 46.984,32.833 L58.83,53.139 C59.311,53.964 58.716,55 57.761,55" id="Fill-2186" fill="#F0C41A" sketch:type="MSShapeGroup"></path>
            <path d="M46,48 C45.448,48 45,47.552 45,47 L45,39 C45,38.448 45.448,38 46,38 C46.552,38 47,38.448 47,39 L47,47 C47,47.552 46.552,48 46,48" id="Fill-2187" fill="#FFFFFF" sketch:type="MSShapeGroup"></path>
            <path d="M46,52 C45.74,52 45.48,51.89 45.29,51.71 C45.11,51.52 45,51.26 45,51 C45,50.74 45.11,50.48 45.29,50.29 C45.67,49.92 46.33,49.92 46.71,50.29 C46.89,50.48 47,50.74 47,51 C47,51.26 46.89,51.52 46.71,51.71 C46.52,51.89 46.27,52 46,52" id="Fill-2188" fill="#FFFFFF" sketch:type="MSShapeGroup"></path>
        </g>
    </g>
</svg>