<?xml version="1.0" encoding="UTF-8" standalone="no"?>
<svg width="42px" height="55px" viewBox="0 0 42 55" version="1.1" xmlns="http://www.w3.org/2000/svg" xmlns:xlink="http://www.w3.org/1999/xlink" xmlns:sketch="http://www.bohemiancoding.com/sketch/ns">
    <!-- Generator: Sketch 3.2.2 (9983) - http://www.bohemiancoding.com/sketch -->
    <title>316 - Bookmark Warning (Flat)</title>
    <desc>Created with Sketch.</desc>
    <defs></defs>
    <g id="Page-1" stroke="none" stroke-width="1" fill="none" fill-rule="evenodd" sketch:type="MSPage">
        <g id="316---Bookmark-Warning-(Flat)" sketch:type="MSLayerGroup">
            <path d="M16,0 L0,0 L0,53.444 C0,53.938 0.598,54.186 0.948,53.836 L16,38.784 L31.052,53.836 C31.402,54.186 32,53.938 32,53.444 L32,0 L16,0" id="Fill-1103" fill="#D85A4A" sketch:type="MSShapeGroup"></path>
            <path d="M0,0 L32,0 L32,11 L0,11 L0,0 Z" id="Fill-1808" fill="#C13B2A" sketch:type="MSShapeGroup"></path>
            <path d="M40.761,55 L17.07,55 C16.115,55 15.52,53.964 16.001,53.139 L27.846,32.833 C28.324,32.014 29.507,32.014 29.984,32.833 L41.83,53.139 C42.311,53.964 41.716,55 40.761,55" id="Fill-2602" fill="#F0C41A" sketch:type="MSShapeGroup"></path>
            <path d="M29,48 C28.448,48 28,47.552 28,47 L28,39 C28,38.448 28.448,38 29,38 C29.552,38 30,38.448 30,39 L30,47 C30,47.552 29.552,48 29,48" id="Fill-2603" fill="#FFFFFF" sketch:type="MSShapeGroup"></path>
            <path d="M29,52 C28.74,52 28.48,51.89 28.29,51.71 C28.11,51.52 28,51.26 28,51 C28,50.74 28.11,50.48 28.29,50.29 C28.67,49.92 29.33,49.92 29.71,50.29 C29.89,50.48 30,50.74 30,51 C30,51.26 29.89,51.52 29.71,51.71 C29.52,51.89 29.27,52 29,52" id="Fill-2604" fill="#FFFFFF" sketch:type="MSShapeGroup"></path>
        </g>
    </g>
</svg>