<?xml version="1.0" encoding="UTF-8" standalone="no"?>
<svg width="58px" height="60px" viewBox="0 0 58 60" version="1.1" xmlns="http://www.w3.org/2000/svg" xmlns:xlink="http://www.w3.org/1999/xlink" xmlns:sketch="http://www.bohemiancoding.com/sketch/ns">
    <!-- Generator: Sketch 3.2.2 (9983) - http://www.bohemiancoding.com/sketch -->
    <title>296 - Calendar Warning (Flat)</title>
    <desc>Created with Sketch.</desc>
    <defs></defs>
    <g id="Page-1" stroke="none" stroke-width="1" fill="none" fill-rule="evenodd" sketch:type="MSPage">
        <g id="296---Calendar-Warning-(Flat)" sketch:type="MSLayerGroup">
            <path d="M0,13 L56,13 L56,52 L0,52 L0,13 Z" id="Fill-999" fill="#EDF0F1" sketch:type="MSShapeGroup"></path>
            <path d="M41,0 L0,0 L0,13 L56,13 L56,0 L41,0" id="Fill-1000" fill="#21AE5E" sketch:type="MSShapeGroup"></path>
            <path d="M18,46 C17.448,46 17,45.553 17,45 L17,19 C17,18.448 17.448,18 18,18 C18.552,18 19,18.448 19,19 L19,45 C19,45.553 18.552,46 18,46" id="Fill-1001" fill="#556080" sketch:type="MSShapeGroup"></path>
            <path d="M12,26 C11.744,26 11.488,25.902 11.293,25.707 C10.902,25.317 10.902,24.684 11.293,24.293 L17.293,18.293 C17.684,17.903 18.316,17.903 18.707,18.293 C19.098,18.684 19.098,19.317 18.707,19.707 L12.707,25.707 C12.512,25.902 12.256,26 12,26" id="Fill-1002" fill="#556080" sketch:type="MSShapeGroup"></path>
            <path d="M37,32 C33.14,32 30,28.86 30,25 C30,21.141 33.14,18 37,18 C40.86,18 44,21.141 44,25 C44,28.86 40.86,32 37,32 L37,32 Z M37,20 C34.243,20 32,22.243 32,25 C32,27.757 34.243,30 37,30 C39.757,30 42,27.757 42,25 C42,22.243 39.757,20 37,20 L37,20 Z" id="Fill-1003" fill="#556080" sketch:type="MSShapeGroup"></path>
            <path d="M37,46 C33.14,46 30,42.859 30,39 C30,38.447 30.448,38 31,38 C31.552,38 32,38.447 32,39 C32,41.757 34.243,44 37,44 C39.757,44 42,41.757 42,39 L42,25 C42,24.448 42.448,24 43,24 C43.552,24 44,24.448 44,25 L44,39 C44,42.859 40.86,46 37,46" id="Fill-1004" fill="#556080" sketch:type="MSShapeGroup"></path>
            <path d="M56.761,60 L33.07,60 C32.115,60 31.52,58.964 32.001,58.139 L43.846,37.833 C44.324,37.014 45.507,37.014 45.984,37.833 L57.83,58.139 C58.311,58.964 57.716,60 56.761,60" id="Fill-2394" fill="#F0C41A" sketch:type="MSShapeGroup"></path>
            <path d="M45,53 C44.448,53 44,52.552 44,52 L44,44 C44,43.448 44.448,43 45,43 C45.552,43 46,43.448 46,44 L46,52 C46,52.552 45.552,53 45,53" id="Fill-2395" fill="#FFFFFF" sketch:type="MSShapeGroup"></path>
            <path d="M45,57 C44.74,57 44.48,56.89 44.29,56.71 C44.11,56.52 44,56.26 44,56 C44,55.74 44.11,55.48 44.29,55.29 C44.67,54.92 45.33,54.92 45.71,55.29 C45.89,55.48 46,55.74 46,56 C46,56.26 45.89,56.52 45.71,56.71 C45.52,56.89 45.27,57 45,57" id="Fill-2396" fill="#FFFFFF" sketch:type="MSShapeGroup"></path>
        </g>
    </g>
</svg>