<?xml version="1.0" encoding="UTF-8" standalone="no"?>
<svg width="58px" height="60px" viewBox="0 0 58 60" version="1.1" xmlns="http://www.w3.org/2000/svg" xmlns:xlink="http://www.w3.org/1999/xlink" xmlns:sketch="http://www.bohemiancoding.com/sketch/ns">
    <!-- Generator: Sketch 3.2.2 (9983) - http://www.bohemiancoding.com/sketch -->
    <title>291 - Calendar Settings (Flat)</title>
    <desc>Created with Sketch.</desc>
    <defs></defs>
    <g id="Page-1" stroke="none" stroke-width="1" fill="none" fill-rule="evenodd" sketch:type="MSPage">
        <g id="291---Calendar-Settings-(Flat)" sketch:type="MSLayerGroup">
            <path d="M0,13 L56,13 L56,52 L0,52 L0,13 Z" id="Fill-1029" fill="#EDF0F1" sketch:type="MSShapeGroup"></path>
            <path d="M41,0 L0,0 L0,13 L56,13 L56,0 L41,0" id="Fill-1030" fill="#21AE5E" sketch:type="MSShapeGroup"></path>
            <path d="M18,46 C17.448,46 17,45.553 17,45 L17,19 C17,18.448 17.448,18 18,18 C18.552,18 19,18.448 19,19 L19,45 C19,45.553 18.552,46 18,46" id="Fill-1031" fill="#556080" sketch:type="MSShapeGroup"></path>
            <path d="M12,26 C11.744,26 11.488,25.902 11.293,25.707 C10.902,25.317 10.902,24.684 11.293,24.293 L17.293,18.293 C17.684,17.903 18.316,17.903 18.707,18.293 C19.098,18.684 19.098,19.317 18.707,19.707 L12.707,25.707 C12.512,25.902 12.256,26 12,26" id="Fill-1032" fill="#556080" sketch:type="MSShapeGroup"></path>
            <path d="M37,32 C33.14,32 30,28.86 30,25 C30,21.141 33.14,18 37,18 C40.86,18 44,21.141 44,25 C44,28.86 40.86,32 37,32 L37,32 Z M37,20 C34.243,20 32,22.243 32,25 C32,27.757 34.243,30 37,30 C39.757,30 42,27.757 42,25 C42,22.243 39.757,20 37,20 L37,20 Z" id="Fill-1033" fill="#556080" sketch:type="MSShapeGroup"></path>
            <path d="M37,46 C33.14,46 30,42.859 30,39 C30,38.447 30.448,38 31,38 C31.552,38 32,38.447 32,39 C32,41.757 34.243,44 37,44 C39.757,44 42,41.757 42,39 L42,25 C42,24.448 42.448,24 43,24 C43.552,24 44,24.448 44,25 L44,39 C44,42.859 40.86,46 37,46" id="Fill-1034" fill="#556080" sketch:type="MSShapeGroup"></path>
            <path d="M58,46.846 L56.556,46.569 C54.413,46.157 53.431,43.653 54.721,41.893 L55.627,40.657 L53.669,38.699 L52.452,39.524 C50.646,40.748 48.18,39.672 47.849,37.515 L47.615,36 L44.846,36 L44.488,37.865 C44.084,39.961 41.67,40.961 39.903,39.764 L38.331,38.699 L36.373,40.657 L37.279,41.893 C38.569,43.653 37.587,46.157 35.444,46.569 L34,46.846 L34,49.616 L35.515,49.849 C37.672,50.181 38.747,52.646 37.523,54.452 L36.699,55.67 L38.657,57.628 L39.893,56.721 C41.653,55.431 44.156,56.413 44.569,58.556 L44.846,60 L47.615,60 L47.779,58.935 C48.119,56.73 50.675,55.671 52.474,56.99 L53.343,57.628 L55.301,55.67 L54.477,54.452 C53.253,52.646 54.328,50.181 56.485,49.849 L58,49.616 L58,46.846" id="Fill-2401" fill="#556080" sketch:type="MSShapeGroup"></path>
            <path d="M50,48 C50,50.209 48.209,52 46,52 C43.791,52 42,50.209 42,48 C42,45.791 43.791,44 46,44 C48.209,44 50,45.791 50,48 L50,48 Z" id="Fill-2402" fill="#FFFFFF" sketch:type="MSShapeGroup"></path>
            <path d="M50,48 C50,50.209 48.209,52 46,52 C43.791,52 42,50.209 42,48 C42,45.791 43.791,44 46,44 C48.209,44 50,45.791 50,48 L50,48 Z" id="Stroke-2403" stroke="#EDF0F1" stroke-width="2" sketch:type="MSShapeGroup"></path>
        </g>
    </g>
</svg>