<?xml version="1.0" encoding="UTF-8" standalone="no"?>
<svg width="44px" height="54px" viewBox="0 0 44 54" version="1.1" xmlns="http://www.w3.org/2000/svg" xmlns:xlink="http://www.w3.org/1999/xlink" xmlns:sketch="http://www.bohemiancoding.com/sketch/ns">
    <!-- Generator: Sketch 3.2.2 (9983) - http://www.bohemiancoding.com/sketch -->
    <title>302 - Click Bookmark (Flat)</title>
    <desc>Created with Sketch.</desc>
    <defs></defs>
    <g id="Page-1" stroke="none" stroke-width="1" fill="none" fill-rule="evenodd" sketch:type="MSPage">
        <g id="302---Click-Bookmark-(Flat)" sketch:type="MSLayerGroup">
            <path d="M16,0 L0,0 L0,53.444 C0,53.938 0.598,54.186 0.948,53.836 L16,38.784 L31.052,53.836 C31.402,54.186 32,53.938 32,53.444 L32,0 L16,0" id="Fill-1112" fill="#D85A4A" sketch:type="MSShapeGroup"></path>
            <path d="M0,0 L32,0 L32,11 L0,11 L0,0 Z" id="Fill-1817" fill="#C13B2A" sketch:type="MSShapeGroup"></path>
            <path d="M43.707,52.293 L36.91,45.496 L43.393,42.255 L25.756,35.757 L32.255,53.394 L35.496,46.91 L42.293,53.707 C42.488,53.902 42.744,54 43,54 C43.256,54 43.512,53.902 43.707,53.707 C44.098,53.317 44.098,52.684 43.707,52.293" id="Fill-2575" fill="#3D324C" sketch:type="MSShapeGroup"></path>
        </g>
    </g>
</svg>