<?xml version="1.0" encoding="UTF-8" standalone="no"?>
<svg width="41px" height="52px" viewBox="0 0 41 52" version="1.1" xmlns="http://www.w3.org/2000/svg" xmlns:xlink="http://www.w3.org/1999/xlink" xmlns:sketch="http://www.bohemiancoding.com/sketch/ns">
    <!-- Generator: Sketch 3.2.2 (9983) - http://www.bohemiancoding.com/sketch -->
    <title>502 - Click Location (Flat)</title>
    <desc>Created with Sketch.</desc>
    <defs></defs>
    <g id="Page-1" stroke="none" stroke-width="1" fill="none" fill-rule="evenodd" sketch:type="MSPage">
        <g id="502---Click-Location-(Flat)" sketch:type="MSLayerGroup">
            <path d="M31.03,5.324 L31.03,5.324 C23.931,-1.774 12.422,-1.774 5.324,5.324 C-1.072,11.72 -1.792,23.764 3.636,31 L18.177,52 L32.718,31 C38.146,23.764 37.426,11.72 31.03,5.324 L31.03,5.324 Z M18.354,24 C15.04,24 12.354,21.314 12.354,18 C12.354,14.687 15.04,12 18.354,12 C21.667,12 24.354,14.687 24.354,18 C24.354,21.314 21.667,24 18.354,24 L18.354,24 Z" id="Fill-1572" fill="#3192D0" sketch:type="MSShapeGroup"></path>
            <path d="M40.097,50.293 L33.299,43.496 L39.782,40.255 L22.146,33.757 L28.645,51.394 L31.885,44.91 L38.683,51.707 C38.878,51.902 39.134,52 39.39,52 C39.646,52 39.901,51.902 40.097,51.707 C40.487,51.317 40.487,50.684 40.097,50.293" id="Fill-1935" fill="#3D324C" sketch:type="MSShapeGroup"></path>
        </g>
    </g>
</svg>