<?xml version="1.0" encoding="UTF-8" standalone="no"?>
<svg width="58px" height="56px" viewBox="0 0 58 56" version="1.1" xmlns="http://www.w3.org/2000/svg" xmlns:xlink="http://www.w3.org/1999/xlink" xmlns:sketch="http://www.bohemiancoding.com/sketch/ns">
    <!-- Generator: Sketch 3.2.2 (9983) - http://www.bohemiancoding.com/sketch -->
    <title>402 - Click Album (Flat)</title>
    <desc>Created with Sketch.</desc>
    <defs></defs>
    <g id="Page-1" stroke="none" stroke-width="1" fill="none" fill-rule="evenodd" sketch:type="MSPage">
        <g id="402---Click-Album-(Flat)" sketch:type="MSLayerGroup">
            <path d="M0,47 L56,47 L56,0 L0,0 L0,47 Z" id="Fill-1217" fill="#E04D60" sketch:type="MSShapeGroup"></path>
            <path d="M39.659,9.248 C39.443,9.058 39.153,8.971 38.87,9.009 L20.87,11.376 C20.372,11.441 20,11.865 20,12.367 L20,31.802 C18.831,30.783 17.247,30.153 15.5,30.153 C11.916,30.153 9,32.794 9,36.041 C9,39.288 11.916,41.93 15.5,41.93 C19.084,41.93 22,39.288 22,36.041 L22,18.244 L38,16.14 L38,26.542 C36.867,25.576 35.347,24.98 33.673,24.98 C30.185,24.98 27.347,27.552 27.347,30.714 C27.347,33.876 30.185,36.449 33.673,36.449 C37.162,36.449 40,33.876 40,30.714 L40,10 C40,9.712 39.876,9.438 39.659,9.248" id="Fill-1218" fill="#FFFFFF" sketch:type="MSShapeGroup"></path>
            <path d="M57.707,54.293 L50.91,47.496 L57.393,44.254 L39.756,37.756 L46.255,55.394 L49.496,48.91 L56.293,55.707 C56.488,55.902 56.744,56 57,56 C57.256,56 57.512,55.902 57.707,55.707 C58.098,55.316 58.098,54.684 57.707,54.293" id="Fill-2159" fill="#3D324C" sketch:type="MSShapeGroup"></path>
        </g>
    </g>
</svg>