<?xml version="1.0" encoding="UTF-8" standalone="no"?>
<svg width="54px" height="54px" viewBox="0 0 54 54" version="1.1" xmlns="http://www.w3.org/2000/svg" xmlns:xlink="http://www.w3.org/1999/xlink" xmlns:sketch="http://www.bohemiancoding.com/sketch/ns">
    <!-- Generator: Sketch 3.2.2 (9983) - http://www.bohemiancoding.com/sketch -->
    <title>42 - Click Phonecall (Flat)</title>
    <desc>Created with Sketch.</desc>
    <defs></defs>
    <g id="Page-1" stroke="none" stroke-width="1" fill="none" fill-rule="evenodd" sketch:type="MSPage">
        <g id="42---Click-Phonecall-(Flat)" sketch:type="MSLayerGroup">
            <path d="M52.595,41.372 C50.697,37.785 43.696,33.682 43.696,33.682 C42.112,32.778 40.201,32.679 39.297,34.288 C39.297,34.288 37.022,37.016 36.444,37.408 C33.8,39.199 31.353,39.129 28.881,36.658 L17.395,25.172 C14.923,22.7 14.854,20.252 16.645,17.609 C17.037,17.03 19.765,14.755 19.765,14.755 C21.374,13.852 21.274,11.941 20.371,10.356 C20.371,10.357 16.268,3.355 12.68,1.457 C11.154,0.65 9.28,0.932 8.059,2.153 L5.522,4.689 C-2.523,12.735 1.438,21.818 9.484,29.863 L24.189,44.569 C32.234,52.615 41.318,56.575 49.363,48.53 L51.9,45.993 C53.121,44.772 53.403,42.898 52.595,41.372" id="Fill-277" fill="#69BC45" sketch:type="MSShapeGroup"></path>
            <path d="M53.479,40.905 C51.471,37.109 44.497,32.992 44.192,32.813 C43.296,32.303 42.361,32.033 41.486,32.033 C40.185,32.033 39.12,32.628 38.475,33.712 C37.455,34.932 36.189,36.358 35.883,36.579 C33.506,38.192 31.646,38.008 29.588,35.95 L18.101,24.464 C16.057,22.419 15.869,20.536 17.47,18.174 C17.693,17.865 19.12,16.599 20.34,15.577 C21.119,15.115 21.652,14.427 21.886,13.582 C22.197,12.46 21.968,11.138 21.233,9.851 C21.06,9.555 16.943,2.581 13.148,0.573 C12.439,0.198 11.642,0 10.842,0 C9.523,0 8.284,0.514 7.352,1.445 L4.815,3.983 C0.802,7.995 -0.652,12.544 0.494,17.502 C1.45,21.634 4.237,26.031 8.777,30.571 L23.482,45.276 C29.227,51.022 34.705,53.936 39.764,53.936 L39.765,53.936 C43.485,53.936 46.953,52.355 50.07,49.238 L52.607,46.7 C54.148,45.16 54.498,42.831 53.479,40.905 L53.479,40.905 Z M51.193,45.286 L48.656,47.823 C45.927,50.552 42.936,51.936 39.765,51.936 C35.255,51.936 30.253,49.219 24.896,43.862 L10.191,29.156 C5.92,24.886 3.313,20.813 2.443,17.051 C1.449,12.751 2.687,8.939 6.229,5.397 L8.766,2.859 C9.321,2.306 10.057,2 10.842,2 C11.317,2 11.791,2.118 12.212,2.341 C15.506,4.084 19.468,10.795 19.502,10.852 C19.95,11.639 20.121,12.46 19.958,13.048 C19.859,13.408 19.635,13.681 19.276,13.883 L19.124,13.988 C18.272,14.698 16.243,16.42 15.816,17.048 C15.204,17.952 14.799,18.841 14.586,19.713 C13.875,18.295 13.3,16.652 13.111,14.832 C13.054,14.284 12.565,13.901 12.014,13.941 C11.464,13.998 11.065,14.49 11.122,15.039 C11.844,21.992 17.251,26.519 17.481,26.707 C17.506,26.728 17.536,26.736 17.563,26.754 L28.174,37.365 C28.219,37.409 28.264,37.448 28.308,37.49 C28.344,37.543 28.367,37.601 28.414,37.648 C28.603,37.834 33.119,42.215 40.014,42.931 C40.049,42.934 40.083,42.936 40.118,42.936 C40.624,42.936 41.058,42.553 41.111,42.039 C41.168,41.49 40.769,40.998 40.22,40.941 C38.108,40.721 36.237,40.103 34.677,39.385 C35.439,39.153 36.215,38.771 37.004,38.236 C37.632,37.811 39.354,35.78 40.065,34.928 L40.169,34.777 C40.45,34.276 40.881,34.032 41.486,34.032 C42.006,34.032 42.615,34.217 43.191,34.544 C45.07,35.646 50.263,39.103 51.711,41.84 C52.317,42.985 52.109,44.37 51.193,45.286 L51.193,45.286 Z" id="Fill-278" fill="#449E46" sketch:type="MSShapeGroup"></path>
            <path d="M22.951,49.537 L16.154,42.739 L22.637,39.498 L5,33 L11.499,50.637 L14.74,44.154 L21.537,50.951 C21.732,51.146 21.988,51.244 22.244,51.244 C22.5,51.244 22.756,51.146 22.951,50.951 C23.342,50.56 23.342,49.928 22.951,49.537" id="Fill-2259" fill="#B1D3F0" sketch:type="MSShapeGroup"></path>
        </g>
    </g>
</svg>