<?xml version="1.0" encoding="UTF-8" standalone="no"?>
<svg width="59px" height="58px" viewBox="0 0 59 58" version="1.1" xmlns="http://www.w3.org/2000/svg" xmlns:xlink="http://www.w3.org/1999/xlink" xmlns:sketch="http://www.bohemiancoding.com/sketch/ns">
    <!-- Generator: Sketch 3.2.2 (9983) - http://www.bohemiancoding.com/sketch -->
    <title>11 - Clock Settings (Flat)</title>
    <desc>Created with Sketch.</desc>
    <defs></defs>
    <g id="Page-1" stroke="none" stroke-width="1" fill="none" fill-rule="evenodd" sketch:type="MSPage">
        <g id="11---Clock-Settings-(Flat)" sketch:type="MSLayerGroup">
            <path d="M58,29 C58,45.016 45.016,58 29,58 C12.984,58 0,45.016 0,29 C0,12.984 12.984,0 29,0 C45.016,0 58,12.984 58,29" id="Fill-380" fill="#EDF0F1" sketch:type="MSShapeGroup"></path>
            <path d="M29,4 C42.785,4 54,15.215 54,29 C54,42.785 42.785,54 29,54 C15.215,54 4,42.785 4,29 C4,15.215 15.215,4 29,4 M29,0 C12.984,0 0,12.984 0,29 C0,45.017 12.984,58 29,58 C45.016,58 58,45.017 58,29 C58,12.984 45.016,0 29,0" id="Fill-381" fill="#545E73" sketch:type="MSShapeGroup"></path>
            <path d="M29,5.879 C28.448,5.879 28,6.326 28,6.879 L28,7.879 C28,8.432 28.448,8.879 29,8.879 C29.552,8.879 30,8.432 30,7.879 L30,6.879 C30,6.326 29.552,5.879 29,5.879" id="Fill-382" fill="#8697CB" sketch:type="MSShapeGroup"></path>
            <path d="M29,48.879 C28.448,48.879 28,49.326 28,49.879 L28,50.879 C28,51.432 28.448,51.879 29,51.879 C29.552,51.879 30,51.432 30,50.879 L30,49.879 C30,49.326 29.552,48.879 29,48.879" id="Fill-383" fill="#8697CB" sketch:type="MSShapeGroup"></path>
            <path d="M51,27.879 L50,27.879 C49.448,27.879 49,28.326 49,28.879 C49,29.432 49.448,29.879 50,29.879 L51,29.879 C51.552,29.879 52,29.432 52,28.879 C52,28.326 51.552,27.879 51,27.879" id="Fill-384" fill="#8697CB" sketch:type="MSShapeGroup"></path>
            <path d="M8,27.879 L7,27.879 C6.448,27.879 6,28.326 6,28.879 C6,29.432 6.448,29.879 7,29.879 L8,29.879 C8.552,29.879 9,29.432 9,28.879 C9,28.326 8.552,27.879 8,27.879" id="Fill-385" fill="#8697CB" sketch:type="MSShapeGroup"></path>
            <path d="M43.849,12.615 L43.142,13.322 C42.751,13.713 42.751,14.346 43.142,14.736 C43.337,14.932 43.593,15.029 43.849,15.029 C44.105,15.029 44.361,14.932 44.556,14.736 L45.263,14.03 C45.654,13.639 45.654,13.006 45.263,12.615 C44.873,12.225 44.24,12.225 43.849,12.615" id="Fill-386" fill="#8697CB" sketch:type="MSShapeGroup"></path>
            <path d="M13.444,43.022 L12.737,43.729 C12.346,44.12 12.346,44.752 12.737,45.142 C12.932,45.338 13.188,45.435 13.444,45.435 C13.7,45.435 13.956,45.338 14.151,45.142 L14.858,44.435 C15.249,44.045 15.249,43.412 14.858,43.022 C14.467,42.631 13.834,42.631 13.444,43.022" id="Fill-387" fill="#8697CB" sketch:type="MSShapeGroup"></path>
            <path d="M44.556,43.022 C44.166,42.631 43.533,42.631 43.142,43.022 C42.751,43.412 42.751,44.045 43.142,44.435 L43.849,45.142 C44.044,45.338 44.3,45.435 44.556,45.435 C44.812,45.435 45.068,45.338 45.263,45.142 C45.654,44.752 45.654,44.12 45.263,43.729 L44.556,43.022" id="Fill-388" fill="#8697CB" sketch:type="MSShapeGroup"></path>
            <path d="M14.151,12.615 C13.76,12.225 13.127,12.225 12.737,12.615 C12.346,13.006 12.346,13.639 12.737,14.03 L13.444,14.736 C13.639,14.932 13.895,15.029 14.151,15.029 C14.407,15.029 14.663,14.932 14.858,14.736 C15.249,14.346 15.249,13.713 14.858,13.322 L14.151,12.615" id="Fill-389" fill="#8697CB" sketch:type="MSShapeGroup"></path>
            <path d="M26,28.879 L18,28.879 L26,28.879 Z M29,25.879 L29,14.879 L29,25.879 Z M26,28.879 C26,30.536 27.343,31.879 29,31.879 C30.657,31.879 32,30.536 32,28.879 C32,27.222 30.657,25.879 29,25.879 C27.343,25.879 26,27.222 26,28.879 L26,28.879 Z" id="Stroke-390" stroke="#545E73" stroke-width="2" stroke-linecap="round" stroke-linejoin="round" sketch:type="MSShapeGroup"></path>
            <path d="M58.39,44.847 L56.946,44.569 C54.803,44.157 53.82,41.653 55.111,39.893 L56.017,38.658 L54.059,36.699 L52.842,37.524 C51.035,38.747 48.57,37.672 48.238,35.515 L48.005,34 L45.236,34 L44.877,35.865 C44.474,37.961 42.059,38.961 40.292,37.764 L38.72,36.699 L36.762,38.658 L37.669,39.893 C38.959,41.653 37.976,44.157 35.833,44.569 L34.39,44.847 L34.39,47.615 L35.905,47.849 C38.061,48.18 39.137,50.646 37.913,52.453 L37.089,53.67 L39.047,55.628 L40.283,54.721 C42.042,53.431 44.546,54.414 44.958,56.556 L45.236,58 L48.005,58 L48.169,56.935 C48.508,54.73 51.065,53.671 52.863,54.99 L53.733,55.628 L55.691,53.67 L54.866,52.453 C53.643,50.646 54.718,48.18 56.875,47.849 L58.39,47.615 L58.39,44.847" id="Fill-2137" fill="#BDC3C7" sketch:type="MSShapeGroup"></path>
            <path d="M50.39,46 C50.39,48.209 48.599,50 46.39,50 C44.181,50 42.39,48.209 42.39,46 C42.39,43.791 44.181,42 46.39,42 C48.599,42 50.39,43.791 50.39,46 L50.39,46 Z" id="Fill-2138" fill="#FFFFFF" sketch:type="MSShapeGroup"></path>
            <path d="M50.39,46 C50.39,48.209 48.599,50 46.39,50 C44.181,50 42.39,48.209 42.39,46 C42.39,43.791 44.181,42 46.39,42 C48.599,42 50.39,43.791 50.39,46 L50.39,46 Z" id="Stroke-2139" stroke="#EDF0F1" stroke-width="2" sketch:type="MSShapeGroup"></path>
        </g>
    </g>
</svg>