<?xml version="1.0" encoding="UTF-8" standalone="no"?>
<svg width="60px" height="51px" viewBox="0 0 60 51" version="1.1" xmlns="http://www.w3.org/2000/svg" xmlns:xlink="http://www.w3.org/1999/xlink" xmlns:sketch="http://www.bohemiancoding.com/sketch/ns">
    <!-- Generator: Sketch 3.2.2 (9983) - http://www.bohemiancoding.com/sketch -->
    <title>391 - Cloud Settings (Flat)</title>
    <desc>Created with Sketch.</desc>
    <defs></defs>
    <g id="Page-1" stroke="none" stroke-width="1" fill="none" fill-rule="evenodd" sketch:type="MSPage">
        <g id="391---Cloud-Settings-(Flat)" sketch:type="MSLayerGroup" transform="translate(1.000000, 1.000000)">
            <path d="M49.003,16 C48.889,7.301 41.811,0 33.084,0 C27.525,0 22.306,3.006 19.424,7.336 C18.157,6.494 16.636,6 15,6 C10.582,6 7,9.582 7,14 C7,14.153 7.014,14.303 7.023,14.454 C7.013,14.637 7,14.821 7,15 C3.011,16.912 0,21.457 0,26.155 C0,32.67 5.33,38 11.845,38 L36.352,38 C36.49,38 36.624,37.984 36.761,37.979 C36.897,37.985 37.031,38 37.169,38 L46.972,38 C53.037,38 58,33.038 58,26.972 C58,21.601 54.106,16.962 49.003,16 L49.003,16 Z" id="Fill-429" fill="#91BAE1" sketch:type="MSShapeGroup"></path>
            <path d="M49.003,16 C48.889,7.301 41.811,0 33.084,0 C27.525,0 22.306,3.006 19.424,7.336 C18.157,6.494 16.636,6 15,6 C10.582,6 7,9.582 7,14 C7,14.153 7.014,14.303 7.023,14.454 C7.013,14.637 7,14.821 7,15 C3.011,16.912 0,21.457 0,26.155 C0,32.67 5.33,38 11.845,38 L36.352,38 C36.49,38 36.624,37.984 36.761,37.979 C36.897,37.985 37.031,38 37.169,38 L46.972,38 C53.037,38 58,33.038 58,26.972 C58,21.601 54.106,16.962 49.003,16 L49.003,16 Z" id="Stroke-430" stroke="#8697CB" stroke-width="2" stroke-linecap="round" sketch:type="MSShapeGroup"></path>
            <path d="M49.003,16 C49.003,16 46.469,15.625 44,16" id="Fill-431" fill="#91BAE1" sketch:type="MSShapeGroup"></path>
            <path d="M49.003,16 C49.003,16 46.469,15.625 44,16" id="Stroke-432" stroke="#8697CB" stroke-width="2" stroke-linecap="round" sketch:type="MSShapeGroup"></path>
            <path d="M7,14 C7,9.582 10.582,6 15,6 C19.418,6 23,9.582 23,14" id="Fill-433" fill="#91BAE1" sketch:type="MSShapeGroup"></path>
            <path d="M7,14 C7,9.582 10.582,6 15,6 C19.418,6 23,9.582 23,14" id="Stroke-434" stroke="#8697CB" stroke-width="2" stroke-linecap="round" sketch:type="MSShapeGroup"></path>
            <path d="M42,36.846 L40.556,36.569 C38.414,36.157 37.431,33.653 38.721,31.893 L39.627,30.657 L37.669,28.699 L36.452,29.524 C34.646,30.748 32.18,29.672 31.849,27.515 L31.615,26 L28.846,26 L28.488,27.865 C28.084,29.961 25.67,30.961 23.903,29.764 L22.331,28.699 L20.373,30.657 L21.279,31.893 C22.569,33.653 21.587,36.157 19.444,36.569 L18,36.846 L18,39.615 L19.515,39.849 C21.672,40.181 22.747,42.646 21.523,44.452 L20.699,45.67 L22.657,47.628 L23.893,46.721 C25.653,45.431 28.156,46.414 28.568,48.556 L28.846,50 L31.615,50 L31.779,48.935 C32.119,46.73 34.675,45.671 36.474,46.99 L37.343,47.628 L39.301,45.67 L38.477,44.452 C37.253,42.646 38.328,40.181 40.485,39.849 L42,39.615 L42,36.846" id="Fill-2676" fill="#556080" sketch:type="MSShapeGroup"></path>
            <path d="M34,38 C34,40.209 32.209,42 30,42 C27.791,42 26,40.209 26,38 C26,35.791 27.791,34 30,34 C32.209,34 34,35.791 34,38 L34,38 Z" id="Fill-2677" fill="#FFFFFF" sketch:type="MSShapeGroup"></path>
            <path d="M34,38 C34,40.209 32.209,42 30,42 C27.791,42 26,40.209 26,38 C26,35.791 27.791,34 30,34 C32.209,34 34,35.791 34,38 L34,38 Z" id="Stroke-2678" stroke="#EDF0F1" stroke-width="2" sketch:type="MSShapeGroup"></path>
        </g>
    </g>
</svg>