<?xml version="1.0" encoding="UTF-8" standalone="no"?>
<svg width="53px" height="56px" viewBox="0 0 53 56" version="1.1" xmlns="http://www.w3.org/2000/svg" xmlns:xlink="http://www.w3.org/1999/xlink" xmlns:sketch="http://www.bohemiancoding.com/sketch/ns">
    <!-- Generator: Sketch 3.2.2 (9983) - http://www.bohemiancoding.com/sketch -->
    <title>116 - Database Warning (Flat)</title>
    <desc>Created with Sketch.</desc>
    <defs></defs>
    <g id="Page-1" stroke="none" stroke-width="1" fill="none" fill-rule="evenodd" sketch:type="MSPage">
        <g id="116---Database-Warning-(Flat)" sketch:type="MSLayerGroup">
            <path d="M47.955,8 L47.955,8 C47.224,3.538 36.781,0 24,0 C11.219,0 0.776,3.538 0.045,8 L0,8 L0,45 L0.045,45 C0.776,49.461 11.219,53 24,53 C36.781,53 47.224,49.461 47.955,45 L48,45 L48,8 L47.955,8" id="Fill-1445" fill="#545E73" sketch:type="MSShapeGroup"></path>
            <path d="M24,41 C10.745,41 0,37.194 0,32.5 L0,45 L0.045,45 C0.776,49.461 11.219,53 24,53 C36.781,53 47.224,49.461 47.955,45 L48,45 L48,32.5 C48,37.194 37.255,41 24,41" id="Fill-1446" fill="#38454F" sketch:type="MSShapeGroup"></path>
            <path d="M0,32 L0,32.5 C0,32.332 0.018,32.166 0.045,32 L0,32" id="Fill-1447" fill="#38454F" sketch:type="MSShapeGroup"></path>
            <path d="M47.955,32 C47.982,32.166 48,32.332 48,32.5 L48,32 L47.955,32" id="Fill-1448" fill="#38454F" sketch:type="MSShapeGroup"></path>
            <path d="M24,29 C10.745,29 0,25.194 0,20.5 L0,33 L0.045,33 C0.776,37.461 11.219,41 24,41 C36.781,41 47.224,37.461 47.955,33 L48,33 L48,20.5 C48,25.194 37.255,29 24,29" id="Fill-1449" fill="#556080" sketch:type="MSShapeGroup"></path>
            <path d="M0,20 L0,20.5 C0,20.332 0.018,20.166 0.045,20 L0,20" id="Fill-1450" fill="#556080" sketch:type="MSShapeGroup"></path>
            <path d="M47.955,20 C47.982,20.166 48,20.332 48,20.5 L48,20 L47.955,20" id="Fill-1451" fill="#556080" sketch:type="MSShapeGroup"></path>
            <path d="M48,8.5 C48,13.194 37.255,17 24,17 C10.745,17 0,13.194 0,8.5 C0,3.806 10.745,0 24,0 C37.255,0 48,3.806 48,8.5" id="Fill-1452" fill="#91BAE1" sketch:type="MSShapeGroup"></path>
            <path d="M24,17 C10.745,17 0,13.194 0,8.5 L0,21 L0.045,21 C0.776,25.461 11.219,29 24,29 C36.781,29 47.224,25.461 47.955,21 L48,21 L48,8.5 C48,13.194 37.255,17 24,17" id="Fill-1453" fill="#8697CB" sketch:type="MSShapeGroup"></path>
            <path d="M0,8 L0,8.5 C0,8.332 0.018,8.166 0.045,8 L0,8" id="Fill-1454" fill="#8697CB" sketch:type="MSShapeGroup"></path>
            <path d="M47.955,8 C47.982,8.166 48,8.332 48,8.5 L48,8 L47.955,8" id="Fill-1455" fill="#8697CB" sketch:type="MSShapeGroup"></path>
            <path d="M51.761,56 L28.07,56 C27.115,56 26.52,54.964 27.001,54.139 L38.846,33.833 C39.324,33.014 40.507,33.014 40.984,33.833 L52.83,54.139 C53.311,54.964 52.716,56 51.761,56" id="Fill-2026" fill="#F0C41A" sketch:type="MSShapeGroup"></path>
            <path d="M40,49 C39.448,49 39,48.553 39,48 L39,40 C39,39.448 39.448,39 40,39 C40.552,39 41,39.448 41,40 L41,48 C41,48.553 40.552,49 40,49" id="Fill-2027" fill="#FFFFFF" sketch:type="MSShapeGroup"></path>
            <path d="M40,53 C39.74,53 39.48,52.89 39.29,52.71 C39.11,52.52 39,52.26 39,52 C39,51.74 39.11,51.48 39.29,51.29 C39.67,50.92 40.33,50.92 40.71,51.29 C40.89,51.48 41,51.74 41,52 C41,52.26 40.89,52.52 40.71,52.71 C40.52,52.89 40.27,53 40,53" id="Fill-2028" fill="#FFFFFF" sketch:type="MSShapeGroup"></path>
        </g>
    </g>
</svg>