<?xml version="1.0" encoding="UTF-8" standalone="no"?>
<svg width="45px" height="59px" viewBox="0 0 45 59" version="1.1" xmlns="http://www.w3.org/2000/svg" xmlns:xlink="http://www.w3.org/1999/xlink" xmlns:sketch="http://www.bohemiancoding.com/sketch/ns">
    <!-- Generator: Sketch 3.2.2 (9983) - http://www.bohemiancoding.com/sketch -->
    <title>78 - Delete Smartphone (Flat)</title>
    <desc>Created with Sketch.</desc>
    <defs></defs>
    <g id="Page-1" stroke="none" stroke-width="1" fill="none" fill-rule="evenodd" sketch:type="MSPage">
        <g id="78---Delete-Smartphone-(Flat)" sketch:type="MSLayerGroup">
            <path d="M28.595,58 L3.405,58 C1.525,58 0,56.475 0,54.595 L0,3.405 C0,1.525 1.525,0 3.405,0 L28.595,0 C30.475,0 32,1.525 32,3.405 L32,54.595 C32,56.475 30.475,58 28.595,58" id="Fill-591" fill="#545E73" sketch:type="MSShapeGroup"></path>
            <path d="M0,6 L32,6 L32,46 L0,46 L0,6 Z" id="Fill-592" fill="#8697CB" sketch:type="MSShapeGroup"></path>
            <path d="M19,52 C19,53.657 17.657,55 16,55 C14.343,55 13,53.657 13,52 C13,50.344 14.343,49 16,49 C17.657,49 19,50.344 19,52" id="Fill-593" fill="#323A45" sketch:type="MSShapeGroup"></path>
            <path d="M16,4 L12,4 C11.447,4 11,3.553 11,3 C11,2.448 11.447,2 12,2 L16,2 C16.553,2 17,2.448 17,3 C17,3.553 16.553,4 16,4" id="Fill-594" fill="#323A45" sketch:type="MSShapeGroup"></path>
            <path d="M20,4 L19,4 C18.447,4 18,3.553 18,3 C18,2.448 18.447,2 19,2 L20,2 C20.553,2 21,2.448 21,3 C21,3.553 20.553,4 20,4" id="Fill-595" fill="#323A45" sketch:type="MSShapeGroup"></path>
            <path d="M44.39,46.982 C44.39,53.609 39.017,58.982 32.39,58.982 C25.762,58.982 20.39,53.609 20.39,46.982 C20.39,40.354 25.762,34.982 32.39,34.982 C39.017,34.982 44.39,40.354 44.39,46.982" id="Fill-2178" fill="#ED7061" sketch:type="MSShapeGroup"></path>
            <path d="M33.804,46.982 L37.339,43.446 C37.73,43.055 37.73,42.423 37.339,42.032 C36.949,41.641 36.316,41.641 35.925,42.032 L32.39,45.567 L28.854,42.032 C28.463,41.641 27.831,41.641 27.44,42.032 C27.049,42.423 27.049,43.055 27.44,43.446 L30.976,46.982 L27.44,50.517 C27.049,50.908 27.049,51.541 27.44,51.931 C27.635,52.127 27.891,52.224 28.147,52.224 C28.403,52.224 28.659,52.127 28.854,51.931 L32.39,48.396 L35.925,51.931 C36.121,52.127 36.376,52.224 36.632,52.224 C36.888,52.224 37.144,52.127 37.339,51.931 C37.73,51.541 37.73,50.908 37.339,50.517 L33.804,46.982" id="Fill-2179" fill="#FFFFFF" sketch:type="MSShapeGroup"></path>
        </g>
    </g>
</svg>