<?xml version="1.0" encoding="UTF-8" standalone="no"?>
<svg width="55px" height="56px" viewBox="0 0 55 56" version="1.1" xmlns="http://www.w3.org/2000/svg" xmlns:xlink="http://www.w3.org/1999/xlink" xmlns:sketch="http://www.bohemiancoding.com/sketch/ns">
    <!-- Generator: Sketch 3.2.2 (9983) - http://www.bohemiancoding.com/sketch -->
    <title>198 - Delete To Do List (Flat)</title>
    <desc>Created with Sketch.</desc>
    <defs></defs>
    <g id="Page-1" stroke="none" stroke-width="1" fill="none" fill-rule="evenodd" sketch:type="MSPage">
        <g id="198---Delete-To-Do-List-(Flat)" sketch:type="MSLayerGroup">
            <path d="M43.636,52 L8.364,52 C3.745,52 0,48.255 0,43.636 L0,8.364 C0,3.745 3.745,0 8.364,0 L43.636,0 C48.255,0 52,3.745 52,8.364 L52,43.636 C52,48.255 48.255,52 43.636,52" id="Fill-1745" fill="#3ABCA7" sketch:type="MSShapeGroup"></path>
            <path d="M26,13 L44,13 M26,27 L44,27 M26,41 L44,41 M18.929,8 L12.071,16 L7.5,12.571 M18.929,22 L12.071,30 L7.5,26.572 M18.929,37 L12.071,45 L7.5,41.571" id="Stroke-1746" stroke="#FFFFFF" stroke-width="2" stroke-linecap="round" stroke-linejoin="round" sketch:type="MSShapeGroup"></path>
            <path d="M55,44 C55,50.628 49.627,56 43,56 C36.373,56 31,50.628 31,44 C31,37.373 36.373,32 43,32 C49.627,32 55,37.373 55,44" id="Fill-1918" fill="#ED7061" sketch:type="MSShapeGroup"></path>
            <path d="M44.414,44 L47.95,40.465 C48.34,40.074 48.34,39.441 47.95,39.051 C47.559,38.66 46.926,38.66 46.536,39.051 L43,42.586 L39.464,39.051 C39.074,38.66 38.441,38.66 38.05,39.051 C37.66,39.441 37.66,40.074 38.05,40.465 L41.586,44 L38.05,47.536 C37.66,47.926 37.66,48.559 38.05,48.95 C38.246,49.145 38.501,49.243 38.757,49.243 C39.013,49.243 39.269,49.145 39.464,48.95 L43,45.414 L46.536,48.95 C46.731,49.145 46.987,49.243 47.243,49.243 C47.499,49.243 47.754,49.145 47.95,48.95 C48.34,48.559 48.34,47.926 47.95,47.536 L44.414,44" id="Fill-1919" fill="#FFFFFF" sketch:type="MSShapeGroup"></path>
        </g>
    </g>
</svg>