<?xml version="1.0" encoding="UTF-8" standalone="no"?>
<svg width="57px" height="58px" viewBox="0 0 57 58" version="1.1" xmlns="http://www.w3.org/2000/svg" xmlns:xlink="http://www.w3.org/1999/xlink" xmlns:sketch="http://www.bohemiancoding.com/sketch/ns">
    <!-- Generator: Sketch 3.2.2 (9983) - http://www.bohemiancoding.com/sketch -->
    <title>138 - Delete Archive (Flat)</title>
    <desc>Created with Sketch.</desc>
    <defs></defs>
    <g id="Page-1" stroke="none" stroke-width="1" fill="none" fill-rule="evenodd" sketch:type="MSPage">
        <g id="138---Delete-Archive-(Flat)" sketch:type="MSLayerGroup">
            <path d="M50.168,58 L1.832,58 C0.82,58 0,57.18 0,56.168 L0,1.833 C0,0.821 0.82,0 1.832,0 L50.168,0 C51.18,0 52,0.821 52,1.833 L52,56.168 C52,57.18 51.18,58 50.168,58" id="Fill-1629" fill="#545E73" sketch:type="MSShapeGroup"></path>
            <path d="M31.495,17 L20.505,17 C18.572,17 17,15.428 17,13.495 L17,12 C17,11.448 17.447,11 18,11 C18.553,11 19,11.448 19,12 L19,13.495 C19,14.325 19.675,15 20.505,15 L31.495,15 C32.325,15 33,14.325 33,13.495 L33,12 C33,11.448 33.447,11 34,11 C34.553,11 35,11.448 35,12 L35,13.495 C35,15.428 33.428,17 31.495,17" id="Fill-1630" fill="#EDF0F1" sketch:type="MSShapeGroup"></path>
            <path d="M31.495,46 L20.505,46 C18.572,46 17,44.428 17,42.495 L17,41 C17,40.447 17.447,40 18,40 C18.553,40 19,40.447 19,41 L19,42.495 C19,43.325 19.675,44 20.505,44 L31.495,44 C32.325,44 33,43.325 33,42.495 L33,41 C33,40.447 33.447,40 34,40 C34.553,40 35,40.447 35,41 L35,42.495 C35,44.428 33.428,46 31.495,46" id="Fill-1631" fill="#EDF0F1" sketch:type="MSShapeGroup"></path>
            <path d="M0,28 L52,28 L52,30 L0,30 L0,28 Z" id="Fill-1632" fill="#394050" sketch:type="MSShapeGroup"></path>
            <path d="M57,46 C57,52.628 51.627,58 45,58 C38.373,58 33,52.628 33,46 C33,39.373 38.373,34 45,34 C51.627,34 57,39.373 57,46" id="Fill-2334" fill="#ED7061" sketch:type="MSShapeGroup"></path>
            <path d="M46.414,46 L49.95,42.465 C50.34,42.074 50.34,41.441 49.95,41.051 C49.559,40.66 48.926,40.66 48.536,41.051 L45,44.586 L41.464,41.051 C41.074,40.66 40.441,40.66 40.05,41.051 C39.66,41.441 39.66,42.074 40.05,42.465 L43.586,46 L40.05,49.536 C39.66,49.926 39.66,50.559 40.05,50.95 C40.246,51.145 40.501,51.243 40.757,51.243 C41.013,51.243 41.269,51.145 41.464,50.95 L45,47.414 L48.536,50.95 C48.731,51.145 48.987,51.243 49.243,51.243 C49.499,51.243 49.754,51.145 49.95,50.95 C50.34,50.559 50.34,49.926 49.95,49.536 L46.414,46" id="Fill-2335" fill="#FFFFFF" sketch:type="MSShapeGroup"></path>
        </g>
    </g>
</svg>