<?xml version="1.0" encoding="UTF-8" standalone="no"?>
<svg width="55px" height="58px" viewBox="0 0 55 58" version="1.1" xmlns="http://www.w3.org/2000/svg" xmlns:xlink="http://www.w3.org/1999/xlink" xmlns:sketch="http://www.bohemiancoding.com/sketch/ns">
    <!-- Generator: Sketch 3.2.2 (9983) - http://www.bohemiancoding.com/sketch -->
    <title>558 - Delete File (Flat)</title>
    <desc>Created with Sketch.</desc>
    <defs></defs>
    <g id="Page-1" stroke="none" stroke-width="1" fill="none" fill-rule="evenodd" sketch:type="MSPage">
        <g id="558---Delete-File-(Flat)" sketch:type="MSLayerGroup">
            <path d="M45,14 L31,0 L0,0 L0,58 L45,58 L45,14" id="Fill-1760" fill="#EFECDE" sketch:type="MSShapeGroup"></path>
            <path d="M10,23 L35,23 C35.552,23 36,22.553 36,22 C36,21.448 35.552,21 35,21 L10,21 C9.448,21 9,21.448 9,22 C9,22.553 9.448,23 10,23" id="Fill-1761" fill="#D5D0BB" sketch:type="MSShapeGroup"></path>
            <path d="M10,15 L20,15 C20.552,15 21,14.553 21,14 C21,13.448 20.552,13 20,13 L10,13 C9.448,13 9,13.448 9,14 C9,14.553 9.448,15 10,15" id="Fill-1762" fill="#D5D0BB" sketch:type="MSShapeGroup"></path>
            <path d="M35,29 L10,29 C9.448,29 9,29.447 9,30 C9,30.553 9.448,31 10,31 L35,31 C35.552,31 36,30.553 36,30 C36,29.447 35.552,29 35,29" id="Fill-1763" fill="#D5D0BB" sketch:type="MSShapeGroup"></path>
            <path d="M35,37 L10,37 C9.448,37 9,37.448 9,38 C9,38.553 9.448,39 10,39 L35,39 C35.552,39 36,38.553 36,38 C36,37.448 35.552,37 35,37" id="Fill-1764" fill="#D5D0BB" sketch:type="MSShapeGroup"></path>
            <path d="M35,45 L10,45 C9.448,45 9,45.448 9,46 C9,46.553 9.448,47 10,47 L35,47 C35.552,47 36,46.553 36,46 C36,45.448 35.552,45 35,45" id="Fill-1765" fill="#D5D0BB" sketch:type="MSShapeGroup"></path>
            <path d="M31,0 L31,14 L45,14 L31,0" id="Fill-1766" fill="#D5D0BB" sketch:type="MSShapeGroup"></path>
            <path d="M55,46 C55,52.627 49.627,58 43,58 C36.373,58 31,52.627 31,46 C31,39.373 36.373,34 43,34 C49.627,34 55,39.373 55,46" id="Fill-1776" fill="#ED7061" sketch:type="MSShapeGroup"></path>
            <path d="M44.414,46 L47.95,42.465 C48.34,42.074 48.34,41.441 47.95,41.05 C47.559,40.66 46.926,40.66 46.536,41.05 L43,44.586 L39.464,41.05 C39.074,40.66 38.441,40.66 38.05,41.05 C37.66,41.441 37.66,42.074 38.05,42.465 L41.586,46 L38.05,49.536 C37.66,49.927 37.66,50.559 38.05,50.95 C38.246,51.145 38.502,51.243 38.757,51.243 C39.013,51.243 39.269,51.145 39.464,50.95 L43,47.414 L46.536,50.95 C46.731,51.145 46.987,51.243 47.243,51.243 C47.499,51.243 47.754,51.145 47.95,50.95 C48.34,50.559 48.34,49.927 47.95,49.536 L44.414,46" id="Fill-1777" fill="#FFFFFF" sketch:type="MSShapeGroup"></path>
        </g>
    </g>
</svg>