<?xml version="1.0" encoding="UTF-8" standalone="no"?>
<svg width="53px" height="56px" viewBox="0 0 53 56" version="1.1" xmlns="http://www.w3.org/2000/svg" xmlns:xlink="http://www.w3.org/1999/xlink" xmlns:sketch="http://www.bohemiancoding.com/sketch/ns">
    <!-- Generator: Sketch 3.2.2 (9983) - http://www.bohemiancoding.com/sketch -->
    <title>118 - Delete Database (Flat)</title>
    <desc>Created with Sketch.</desc>
    <defs></defs>
    <g id="Page-1" stroke="none" stroke-width="1" fill="none" fill-rule="evenodd" sketch:type="MSPage">
        <g id="118---Delete-Database-(Flat)" sketch:type="MSLayerGroup">
            <path d="M47.955,8 L47.955,8 C47.224,3.538 36.781,0 24,0 C11.219,0 0.776,3.538 0.045,8 L0,8 L0,45 L0.045,45 C0.776,49.461 11.22,53 24,53 C36.78,53 47.224,49.461 47.955,45 L48,45 L48,8 L47.955,8" id="Fill-1423" fill="#545E73" sketch:type="MSShapeGroup"></path>
            <path d="M24,41 C10.745,41 0,37.194 0,32.5 L0,45 L0.045,45 C0.776,49.461 11.22,53 24,53 C36.78,53 47.224,49.461 47.955,45 L48,45 L48,32.5 C48,37.194 37.255,41 24,41" id="Fill-1424" fill="#38454F" sketch:type="MSShapeGroup"></path>
            <path d="M0,32 L0,32.5 C0,32.332 0.018,32.166 0.045,32 L0,32" id="Fill-1425" fill="#38454F" sketch:type="MSShapeGroup"></path>
            <path d="M47.955,32 C47.982,32.166 48,32.332 48,32.5 L48,32 L47.955,32" id="Fill-1426" fill="#38454F" sketch:type="MSShapeGroup"></path>
            <path d="M24,29 C10.745,29 0,25.194 0,20.5 L0,33 L0.045,33 C0.776,37.461 11.22,41 24,41 C36.78,41 47.224,37.461 47.955,33 L48,33 L48,20.5 C48,25.194 37.255,29 24,29" id="Fill-1427" fill="#556080" sketch:type="MSShapeGroup"></path>
            <path d="M0,20 L0,20.5 C0,20.332 0.018,20.166 0.045,20 L0,20" id="Fill-1428" fill="#556080" sketch:type="MSShapeGroup"></path>
            <path d="M47.955,20 C47.982,20.166 48,20.332 48,20.5 L48,20 L47.955,20" id="Fill-1429" fill="#556080" sketch:type="MSShapeGroup"></path>
            <path d="M48,8.5 C48,13.194 37.255,17 24,17 C10.745,17 0,13.194 0,8.5 C0,3.806 10.745,0 24,0 C37.255,0 48,3.806 48,8.5" id="Fill-1430" fill="#91BAE1" sketch:type="MSShapeGroup"></path>
            <path d="M24,17 C10.745,17 0,13.194 0,8.5 L0,21 L0.045,21 C0.776,25.461 11.22,29 24,29 C36.78,29 47.224,25.461 47.955,21 L48,21 L48,8.5 C48,13.194 37.255,17 24,17" id="Fill-1431" fill="#8697CB" sketch:type="MSShapeGroup"></path>
            <path d="M0,8 L0,8.5 C0,8.332 0.018,8.166 0.045,8 L0,8" id="Fill-1432" fill="#8697CB" sketch:type="MSShapeGroup"></path>
            <path d="M47.955,8 C47.982,8.166 48,8.332 48,8.5 L48,8 L47.955,8" id="Fill-1433" fill="#8697CB" sketch:type="MSShapeGroup"></path>
            <path d="M53,44 C53,50.628 47.627,56 41,56 C34.373,56 29,50.628 29,44 C29,37.373 34.373,32 41,32 C47.627,32 53,37.373 53,44" id="Fill-2022" fill="#ED7061" sketch:type="MSShapeGroup"></path>
            <path d="M42.414,44 L45.95,40.465 C46.34,40.074 46.34,39.441 45.95,39.051 C45.559,38.66 44.926,38.66 44.536,39.051 L41,42.586 L37.464,39.051 C37.074,38.66 36.441,38.66 36.05,39.051 C35.66,39.441 35.66,40.074 36.05,40.465 L39.586,44 L36.05,47.536 C35.66,47.926 35.66,48.559 36.05,48.95 C36.246,49.145 36.501,49.243 36.757,49.243 C37.013,49.243 37.269,49.145 37.464,48.95 L41,45.414 L44.536,48.95 C44.731,49.145 44.987,49.243 45.243,49.243 C45.499,49.243 45.754,49.145 45.95,48.95 C46.34,48.559 46.34,47.926 45.95,47.536 L42.414,44" id="Fill-2023" fill="#FFFFFF" sketch:type="MSShapeGroup"></path>
        </g>
    </g>
</svg>