<?xml version="1.0" encoding="UTF-8" standalone="no"?>
<svg width="58px" height="48px" viewBox="0 0 58 48" version="1.1" xmlns="http://www.w3.org/2000/svg" xmlns:xlink="http://www.w3.org/1999/xlink" xmlns:sketch="http://www.bohemiancoding.com/sketch/ns">
    <!-- Generator: Sketch 3.2.2 (9983) - http://www.bohemiancoding.com/sketch -->
    <title>538 - Delete Mail (Flat)</title>
    <desc>Created with Sketch.</desc>
    <defs></defs>
    <g id="Page-1" stroke="none" stroke-width="1" fill="none" fill-rule="evenodd" sketch:type="MSPage">
        <g id="538---Delete-Mail-(Flat)" sketch:type="MSLayerGroup">
            <path d="M0,39 L56,39 L56,0 L0,0 L0,39 Z" id="Fill-1593" fill="#DCD6CD" sketch:type="MSShapeGroup"></path>
            <path d="M30.965,22.107 C29.327,23.569 26.673,23.569 25.035,22.107 L22.949,20.264 C16.419,26.092 0,39 0,39 L56,39 C56,39 39.581,26.092 33.052,20.264 L30.965,22.107" id="Fill-1594" fill="#E8E3D9" sketch:type="MSShapeGroup"></path>
            <path d="M0,0 L25.035,22.107 C26.673,23.569 29.327,23.569 30.965,22.107 L56,0 L0,0" id="Fill-1595" fill="#EFECDE" sketch:type="MSShapeGroup"></path>
            <path d="M58,36 C58,42.627 52.627,48 46,48 C39.373,48 34,42.627 34,36 C34,29.373 39.373,24 46,24 C52.627,24 58,29.373 58,36" id="Fill-1856" fill="#ED7061" sketch:type="MSShapeGroup"></path>
            <path d="M47.414,36 L50.95,32.465 C51.34,32.074 51.34,31.441 50.95,31.051 C50.559,30.66 49.926,30.66 49.536,31.051 L46,34.586 L42.464,31.051 C42.074,30.66 41.441,30.66 41.05,31.051 C40.66,31.441 40.66,32.074 41.05,32.465 L44.586,36 L41.05,39.536 C40.66,39.926 40.66,40.559 41.05,40.95 C41.246,41.145 41.502,41.243 41.757,41.243 C42.013,41.243 42.269,41.145 42.464,40.95 L46,37.414 L49.536,40.95 C49.731,41.145 49.987,41.243 50.243,41.243 C50.499,41.243 50.754,41.145 50.95,40.95 C51.34,40.559 51.34,39.926 50.95,39.536 L47.414,36" id="Fill-1857" fill="#FFFFFF" sketch:type="MSShapeGroup"></path>
        </g>
    </g>
</svg>