<?xml version="1.0" encoding="UTF-8" standalone="no"?>
<svg width="58px" height="60px" viewBox="0 0 58 60" version="1.1" xmlns="http://www.w3.org/2000/svg" xmlns:xlink="http://www.w3.org/1999/xlink" xmlns:sketch="http://www.bohemiancoding.com/sketch/ns">
    <!-- Generator: Sketch 3.2.2 (9983) - http://www.bohemiancoding.com/sketch -->
    <title>298 - Delete Calendar (Flat)</title>
    <desc>Created with Sketch.</desc>
    <defs></defs>
    <g id="Page-1" stroke="none" stroke-width="1" fill="none" fill-rule="evenodd" sketch:type="MSPage">
        <g id="298---Delete-Calendar-(Flat)" sketch:type="MSLayerGroup">
            <path d="M0,13 L56,13 L56,52 L0,52 L0,13 Z" id="Fill-987" fill="#EDF0F1" sketch:type="MSShapeGroup"></path>
            <path d="M41,0 L0,0 L0,13 L56,13 L56,0 L41,0" id="Fill-988" fill="#21AE5E" sketch:type="MSShapeGroup"></path>
            <path d="M18,46 C17.448,46 17,45.553 17,45 L17,19 C17,18.448 17.448,18 18,18 C18.552,18 19,18.448 19,19 L19,45 C19,45.553 18.552,46 18,46" id="Fill-989" fill="#556080" sketch:type="MSShapeGroup"></path>
            <path d="M12,26 C11.744,26 11.488,25.902 11.293,25.707 C10.902,25.317 10.902,24.684 11.293,24.293 L17.293,18.293 C17.684,17.903 18.316,17.903 18.707,18.293 C19.098,18.684 19.098,19.317 18.707,19.707 L12.707,25.707 C12.512,25.902 12.256,26 12,26" id="Fill-990" fill="#556080" sketch:type="MSShapeGroup"></path>
            <path d="M37,32 C33.14,32 30,28.86 30,25 C30,21.141 33.14,18 37,18 C40.86,18 44,21.141 44,25 C44,28.86 40.86,32 37,32 L37,32 Z M37,20 C34.243,20 32,22.243 32,25 C32,27.757 34.243,30 37,30 C39.757,30 42,27.757 42,25 C42,22.243 39.757,20 37,20 L37,20 Z" id="Fill-991" fill="#556080" sketch:type="MSShapeGroup"></path>
            <path d="M37,46 C33.14,46 30,42.859 30,39 C30,38.447 30.448,38 31,38 C31.552,38 32,38.447 32,39 C32,41.757 34.243,44 37,44 C39.757,44 42,41.757 42,39 L42,25 C42,24.448 42.448,24 43,24 C43.552,24 44,24.448 44,25 L44,39 C44,42.859 40.86,46 37,46" id="Fill-992" fill="#556080" sketch:type="MSShapeGroup"></path>
            <path d="M58,48 C58,54.628 52.627,60 46,60 C39.373,60 34,54.628 34,48 C34,41.373 39.373,36 46,36 C52.627,36 58,41.373 58,48" id="Fill-2390" fill="#ED7061" sketch:type="MSShapeGroup"></path>
            <path d="M47.414,48 L50.95,44.464 C51.34,44.074 51.34,43.441 50.95,43.051 C50.559,42.66 49.926,42.66 49.536,43.051 L46,46.586 L42.464,43.051 C42.074,42.66 41.441,42.66 41.05,43.051 C40.66,43.441 40.66,44.074 41.05,44.464 L44.586,48 L41.05,51.536 C40.66,51.927 40.66,52.559 41.05,52.95 C41.246,53.145 41.502,53.243 41.757,53.243 C42.013,53.243 42.269,53.145 42.464,52.95 L46,49.414 L49.536,52.95 C49.731,53.145 49.987,53.243 50.243,53.243 C50.499,53.243 50.754,53.145 50.95,52.95 C51.34,52.559 51.34,51.927 50.95,51.536 L47.414,48" id="Fill-2391" fill="#FFFFFF" sketch:type="MSShapeGroup"></path>
        </g>
    </g>
</svg>