<?xml version="1.0" encoding="UTF-8" standalone="no"?>
<svg width="42px" height="53px" viewBox="0 0 42 53" version="1.1" xmlns="http://www.w3.org/2000/svg" xmlns:xlink="http://www.w3.org/1999/xlink" xmlns:sketch="http://www.bohemiancoding.com/sketch/ns">
    <!-- Generator: Sketch 3.2.2 (9983) - http://www.bohemiancoding.com/sketch -->
    <title>518 - Delete Location (Flat)</title>
    <desc>Created with Sketch.</desc>
    <defs></defs>
    <g id="Page-1" stroke="none" stroke-width="1" fill="none" fill-rule="evenodd" sketch:type="MSPage">
        <g id="518---Delete-Location-(Flat)" sketch:type="MSLayerGroup">
            <path d="M31.03,5.324 L31.03,5.324 C23.931,-1.774 12.422,-1.774 5.324,5.324 C-1.072,11.72 -1.792,23.764 3.636,31 L18.177,52 L32.718,31 C38.146,23.764 37.426,11.72 31.03,5.324 L31.03,5.324 Z M18.354,24 C15.04,24 12.354,21.314 12.354,18 C12.354,14.687 15.04,12 18.354,12 C21.667,12 24.354,14.687 24.354,18 C24.354,21.314 21.667,24 18.354,24 L18.354,24 Z" id="Fill-1563" fill="#3192D0" sketch:type="MSShapeGroup"></path>
            <path d="M42,41 C42,47.627 36.627,53 30,53 C23.373,53 18,47.627 18,41 C18,34.373 23.373,29 30,29 C36.627,29 42,34.373 42,41" id="Fill-1905" fill="#ED7061" sketch:type="MSShapeGroup"></path>
            <path d="M31.414,41 L34.95,37.465 C35.34,37.074 35.34,36.441 34.95,36.051 C34.559,35.66 33.926,35.66 33.536,36.051 L30,39.586 L26.464,36.051 C26.074,35.66 25.441,35.66 25.05,36.051 C24.66,36.441 24.66,37.074 25.05,37.465 L28.586,41 L25.05,44.536 C24.66,44.926 24.66,45.559 25.05,45.95 C25.246,46.145 25.502,46.243 25.757,46.243 C26.013,46.243 26.269,46.145 26.464,45.95 L30,42.414 L33.536,45.95 C33.731,46.145 33.987,46.243 34.243,46.243 C34.499,46.243 34.754,46.145 34.95,45.95 C35.34,45.559 35.34,44.926 34.95,44.536 L31.414,41" id="Fill-1906" fill="#FFFFFF" sketch:type="MSShapeGroup"></path>
        </g>
    </g>
</svg>