<?xml version="1.0" encoding="UTF-8" standalone="no"?>
<svg width="54px" height="56px" viewBox="0 0 54 56" version="1.1" xmlns="http://www.w3.org/2000/svg" xmlns:xlink="http://www.w3.org/1999/xlink" xmlns:sketch="http://www.bohemiancoding.com/sketch/ns">
    <!-- Generator: Sketch 3.2.2 (9983) - http://www.bohemiancoding.com/sketch -->
    <title>278 - Delete Pricetag (Flat)</title>
    <desc>Created with Sketch.</desc>
    <defs></defs>
    <g id="Page-1" stroke="none" stroke-width="1" fill="none" fill-rule="evenodd" sketch:type="MSPage">
        <g id="278---Delete-Pricetag-(Flat)" sketch:type="MSLayerGroup">
            <path d="M43.472,0 L30.294,0 L5.848,24.367 L29.582,48.152 L54,23.815 L54,10.504 L43.472,0 L43.472,0 Z M42.015,14.87 C40.394,14.87 39.08,13.556 39.08,11.935 C39.08,10.314 40.394,9 42.015,9 C43.636,9 44.95,10.314 44.95,11.935 C44.95,13.556 43.636,14.87 42.015,14.87 L42.015,14.87 Z" id="Fill-927" fill="#E7D4B1" sketch:type="MSShapeGroup"></path>
            <path d="M5.877,24.354 L0,30.215 L23.734,54 L29.637,48.113 L5.877,24.354" id="Fill-928" fill="#D3C2A4" sketch:type="MSShapeGroup"></path>
            <path d="M42.015,9 C43.636,9 44.95,10.314 44.95,11.935 C44.95,13.556 43.636,14.87 42.015,14.87 C40.394,14.87 39.08,13.556 39.08,11.935 C39.08,10.314 40.394,9 42.015,9 M42.015,5 C38.191,5 35.08,8.111 35.08,11.935 C35.08,15.76 38.191,18.87 42.015,18.87 C45.839,18.87 48.95,15.76 48.95,11.935 C48.95,8.111 45.839,5 42.015,5" id="Fill-929" fill="#CCB292" sketch:type="MSShapeGroup"></path>
            <path d="M49,44 C49,50.628 43.627,56 37,56 C30.373,56 25,50.628 25,44 C25,37.373 30.373,32 37,32 C43.627,32 49,37.373 49,44" id="Fill-2546" fill="#ED7061" sketch:type="MSShapeGroup"></path>
            <path d="M38.414,44 L41.95,40.465 C42.34,40.074 42.34,39.441 41.95,39.051 C41.559,38.66 40.926,38.66 40.536,39.051 L37,42.586 L33.464,39.051 C33.074,38.66 32.441,38.66 32.05,39.051 C31.66,39.441 31.66,40.074 32.05,40.465 L35.586,44 L32.05,47.536 C31.66,47.926 31.66,48.559 32.05,48.95 C32.246,49.145 32.502,49.243 32.757,49.243 C33.013,49.243 33.269,49.145 33.464,48.95 L37,45.414 L40.536,48.95 C40.731,49.145 40.987,49.243 41.243,49.243 C41.499,49.243 41.754,49.145 41.95,48.95 C42.34,48.559 42.34,47.926 41.95,47.536 L38.414,44" id="Fill-2547" fill="#FFFFFF" sketch:type="MSShapeGroup"></path>
        </g>
    </g>
</svg>