<?xml version="1.0" encoding="UTF-8" standalone="no"?>
<svg width="58px" height="54px" viewBox="0 0 58 54" version="1.1" xmlns="http://www.w3.org/2000/svg" xmlns:xlink="http://www.w3.org/1999/xlink" xmlns:sketch="http://www.bohemiancoding.com/sketch/ns">
    <!-- Generator: Sketch 3.2.2 (9983) - http://www.bohemiancoding.com/sketch -->
    <title>238 - Delete Window (Flat)</title>
    <desc>Created with Sketch.</desc>
    <defs></defs>
    <g id="Page-1" stroke="none" stroke-width="1" fill="none" fill-rule="evenodd" sketch:type="MSPage">
        <g id="238---Delete-Window-(Flat)" sketch:type="MSLayerGroup">
            <path d="M0,14 L50,14 L50,49 L0,49 L0,14 Z" id="Fill-825" fill="#EDF0F1" sketch:type="MSShapeGroup"></path>
            <path d="M0,0 L50,0 L50,14 L0,14 L0,0 Z" id="Fill-826" fill="#546A79" sketch:type="MSShapeGroup"></path>
            <path d="M10,7 C10,8.657 8.657,10 7,10 C5.343,10 4,8.657 4,7 C4,5.343 5.343,4 7,4 C8.657,4 10,5.343 10,7" id="Fill-827" fill="#ED7061" sketch:type="MSShapeGroup"></path>
            <path d="M19,7 C19,8.657 17.657,10 16,10 C14.343,10 13,8.657 13,7 C13,5.343 14.343,4 16,4 C17.657,4 19,5.343 19,7" id="Fill-828" fill="#F0C41A" sketch:type="MSShapeGroup"></path>
            <path d="M28,7 C28,8.657 26.657,10 25,10 C23.343,10 22,8.657 22,7 C22,5.343 23.343,4 25,4 C26.657,4 28,5.343 28,7" id="Fill-829" fill="#4FBA6E" sketch:type="MSShapeGroup"></path>
            <path d="M58,42 C58,48.628 52.627,54 46,54 C39.373,54 34,48.628 34,42 C34,35.373 39.373,30 46,30 C52.627,30 58,35.373 58,42" id="Fill-2494" fill="#ED7061" sketch:type="MSShapeGroup"></path>
            <path d="M47.414,42 L50.95,38.465 C51.34,38.074 51.34,37.441 50.95,37.051 C50.559,36.66 49.926,36.66 49.536,37.051 L46,40.586 L42.464,37.051 C42.074,36.66 41.441,36.66 41.05,37.051 C40.66,37.441 40.66,38.074 41.05,38.465 L44.586,42 L41.05,45.536 C40.66,45.926 40.66,46.559 41.05,46.95 C41.246,47.145 41.502,47.243 41.757,47.243 C42.013,47.243 42.269,47.145 42.464,46.95 L46,43.414 L49.536,46.95 C49.731,47.145 49.987,47.243 50.243,47.243 C50.499,47.243 50.754,47.145 50.95,46.95 C51.34,46.559 51.34,45.926 50.95,45.536 L47.414,42" id="Fill-2495" fill="#FFFFFF" sketch:type="MSShapeGroup"></path>
        </g>
    </g>
</svg>