<?xml version="1.0" encoding="UTF-8" standalone="no"?>
<svg width="60px" height="56px" viewBox="0 0 60 56" version="1.1" xmlns="http://www.w3.org/2000/svg" xmlns:xlink="http://www.w3.org/1999/xlink" xmlns:sketch="http://www.bohemiancoding.com/sketch/ns">
    <!-- Generator: Sketch 3.2.2 (9983) - http://www.bohemiancoding.com/sketch -->
    <title>338 - Delete Profiles (Flat)</title>
    <desc>Created with Sketch.</desc>
    <defs></defs>
    <g id="Page-1" stroke="none" stroke-width="1" fill="none" fill-rule="evenodd" sketch:type="MSPage">
        <g id="338---Delete-Profiles-(Flat)" sketch:type="MSLayerGroup">
            <path d="M53.566,42.783 L44.014,38.007 C42.78,37.39 42,36.129 42,34.749 L42,31 C42.268,30.695 42.576,30.302 42.904,29.838 C44.205,28 45.19,25.977 45.873,23.855 C47.098,23.477 48,22.345 48,21 L48,17 C48,16.12 47.609,15.333 47,14.783 L47,9 C47,9 48.188,0 36,0 C23.813,0 25,9 25,9 L25,14.783 C24.391,15.333 24,16.12 24,17 L24,21 C24,22.054 24.554,22.982 25.383,23.517 C26.382,27.869 29,31 29,31 L29,34.656 C29,35.989 28.272,37.216 27.101,37.854 L18.18,42.72 C15.603,44.126 14,46.826 14,49.762 L14,53 L58,53 L58,49.957 C58,46.919 56.283,44.142 53.566,42.783" id="Fill-659" fill="#8697CB" sketch:type="MSShapeGroup"></path>
            <path d="M18.18,42.72 L24.126,39.477 C24.092,39.444 24.12,39.434 24.191,39.441 L27.101,37.854 C28.272,37.216 29,35.989 29,34.656 L29,31 C29,31 27.938,29.726 26.908,27.678 C26.907,27.677 26.907,27.676 26.906,27.675 C26.772,27.407 26.639,27.124 26.508,26.831 C26.49,26.79 26.472,26.751 26.454,26.71 C26.321,26.407 26.191,26.094 26.067,25.767 C26.059,25.746 26.052,25.723 26.044,25.702 C25.936,25.412 25.835,25.112 25.738,24.806 C25.712,24.722 25.686,24.639 25.661,24.555 C25.56,24.217 25.464,23.872 25.383,23.517 C24.554,22.982 24,22.054 24,21 L24,17 C24,16.12 24.391,15.333 25,14.783 L25,9.136 C23.587,8.039 21.397,7 18,7 C8.438,7 8,15 8,15 L8,19.995 C7.474,20.47 7,21.149 7,21.909 L7,25.364 C7,26.274 7.479,27.075 8.194,27.537 C9.057,31.296 11.955,34 11.955,34 L11.955,37.157 C11.955,38.308 11.326,39.368 10.315,39.919 L3.61,44.122 C1.385,45.336 0,47.668 0,50.203 L0,53 L14,53 L14,49.762 C14,46.826 15.603,44.126 18.18,42.72" id="Fill-660" fill="#556080" sketch:type="MSShapeGroup"></path>
            <path d="M60,44 C60,50.628 54.627,56 48,56 C41.373,56 36,50.628 36,44 C36,37.373 41.373,32 48,32 C54.627,32 60,37.373 60,44" id="Fill-2338" fill="#ED7061" sketch:type="MSShapeGroup"></path>
            <path d="M49.414,44 L52.95,40.465 C53.34,40.074 53.34,39.441 52.95,39.051 C52.559,38.66 51.926,38.66 51.536,39.051 L48,42.586 L44.464,39.051 C44.074,38.66 43.441,38.66 43.05,39.051 C42.66,39.441 42.66,40.074 43.05,40.465 L46.586,44 L43.05,47.536 C42.66,47.927 42.66,48.559 43.05,48.95 C43.246,49.145 43.502,49.243 43.757,49.243 C44.013,49.243 44.269,49.145 44.464,48.95 L48,45.414 L51.536,48.95 C51.731,49.145 51.987,49.243 52.243,49.243 C52.499,49.243 52.754,49.145 52.95,48.95 C53.34,48.559 53.34,47.927 52.95,47.536 L49.414,44" id="Fill-2339" fill="#FFFFFF" sketch:type="MSShapeGroup"></path>
        </g>
    </g>
</svg>