<?xml version="1.0" encoding="UTF-8" standalone="no"?>
<svg width="55px" height="56px" viewBox="0 0 55 56" version="1.1" xmlns="http://www.w3.org/2000/svg" xmlns:xlink="http://www.w3.org/1999/xlink" xmlns:sketch="http://www.bohemiancoding.com/sketch/ns">
    <!-- Generator: Sketch 3.2.2 (9983) - http://www.bohemiancoding.com/sketch -->
    <title>478 - Delete Map (Flat)</title>
    <desc>Created with Sketch.</desc>
    <defs></defs>
    <g id="Page-1" stroke="none" stroke-width="1" fill="none" fill-rule="evenodd" sketch:type="MSPage">
        <g id="478---Delete-Map-(Flat)" sketch:type="MSLayerGroup">
            <path d="M18,21.243 L2.256,5.499 L0,6 L0,49 L2.099,48.534 L18,32.633 L18,21.243" id="Fill-1245" fill="#4FBA6E" sketch:type="MSShapeGroup"></path>
            <path d="M9.372,46.918 L18,45 L18,38.29 L9.372,46.918" id="Fill-1246" fill="#4AA0D8" sketch:type="MSShapeGroup"></path>
            <path d="M18,2 L6.884,4.47 L18,15.586 L18,2" id="Fill-1247" fill="#4FBA6E" sketch:type="MSShapeGroup"></path>
            <path d="M49.449,1.184 L35,6 L35,15.632 L49.449,1.184" id="Fill-1248" fill="#4FBA6E" sketch:type="MSShapeGroup"></path>
            <path d="M35,21.29 L35,48 L53,41 L53,3.29 L35,21.29" id="Fill-1249" fill="#4AA0D8" sketch:type="MSShapeGroup"></path>
            <path d="M26.523,24.109 L35,15.632 L35,6 L18,2 L18,15.586 L26.523,24.109" id="Fill-1250" fill="#4AA461" sketch:type="MSShapeGroup"></path>
            <path d="M18,21.243 L18,32.633 L23.695,26.938 L18,21.243" id="Fill-1251" fill="#4AA461" sketch:type="MSShapeGroup"></path>
            <path d="M18,38.29 L18,45 L35,48 L35,21.29 L18,38.29" id="Fill-1252" fill="#51A2C9" sketch:type="MSShapeGroup"></path>
            <path d="M18,15.586 L6.884,4.47 L2.256,5.499 L18,21.243 L18,15.586" id="Fill-1253" fill="#F4D65A" sketch:type="MSShapeGroup"></path>
            <path d="M18,32.633 L2.099,48.534 L9.372,46.918 L18,38.29 L18,32.633" id="Fill-1254" fill="#F4D65A" sketch:type="MSShapeGroup"></path>
            <path d="M35,21.29 L53,3.29 L53,0 L49.449,1.184 L35,15.632 L35,21.29" id="Fill-1255" fill="#F4D65A" sketch:type="MSShapeGroup"></path>
            <path d="M26.523,24.109 L18,15.586 L18,21.243 L23.695,26.938 L18,32.633 L18,38.29 L35,21.29 L35,15.632 L26.523,24.109" id="Fill-1256" fill="#DCBD56" sketch:type="MSShapeGroup"></path>
            <path d="M55,44 C55,50.627 49.627,56 43,56 C36.373,56 31,50.627 31,44 C31,37.373 36.373,32 43,32 C49.627,32 55,37.373 55,44" id="Fill-2619" fill="#ED7061" sketch:type="MSShapeGroup"></path>
            <path d="M44.414,44 L47.95,40.464 C48.34,40.074 48.34,39.441 47.95,39.051 C47.559,38.66 46.926,38.66 46.536,39.051 L43,42.586 L39.464,39.051 C39.074,38.66 38.441,38.66 38.05,39.051 C37.66,39.441 37.66,40.074 38.05,40.464 L41.586,44 L38.05,47.536 C37.66,47.926 37.66,48.559 38.05,48.95 C38.246,49.145 38.502,49.243 38.757,49.243 C39.013,49.243 39.269,49.145 39.464,48.95 L43,45.414 L46.536,48.95 C46.731,49.145 46.987,49.243 47.243,49.243 C47.499,49.243 47.754,49.145 47.95,48.95 C48.34,48.559 48.34,47.926 47.95,47.536 L44.414,44" id="Fill-2620" fill="#FFFFFF" sketch:type="MSShapeGroup"></path>
        </g>
    </g>
</svg>