<?xml version="1.0" encoding="UTF-8" standalone="no"?>
<svg width="54px" height="55px" viewBox="0 0 54 55" version="1.1" xmlns="http://www.w3.org/2000/svg" xmlns:xlink="http://www.w3.org/1999/xlink" xmlns:sketch="http://www.bohemiancoding.com/sketch/ns">
    <!-- Generator: Sketch 3.2.2 (9983) - http://www.bohemiancoding.com/sketch -->
    <title>266 - Download Pricetag (Flat)</title>
    <desc>Created with Sketch.</desc>
    <defs></defs>
    <g id="Page-1" stroke="none" stroke-width="1" fill="none" fill-rule="evenodd" sketch:type="MSPage">
        <g id="266---Download-Pricetag-(Flat)" sketch:type="MSLayerGroup">
            <path d="M43.472,0 L30.294,0 L5.848,24.367 L29.582,48.153 L54,23.815 L54,10.504 L43.472,0 L43.472,0 Z M42.015,14.87 C40.394,14.87 39.08,13.556 39.08,11.935 C39.08,10.314 40.394,9 42.015,9 C43.636,9 44.95,10.314 44.95,11.935 C44.95,13.556 43.636,14.87 42.015,14.87 L42.015,14.87 Z" id="Fill-942" fill="#E7D4B1" sketch:type="MSShapeGroup"></path>
            <path d="M5.877,24.354 L0,30.215 L23.734,54 L29.637,48.113 L5.877,24.354" id="Fill-943" fill="#D3C2A4" sketch:type="MSShapeGroup"></path>
            <path d="M42.015,9 C43.636,9 44.95,10.314 44.95,11.935 C44.95,13.556 43.636,14.87 42.015,14.87 C40.394,14.87 39.08,13.556 39.08,11.935 C39.08,10.314 40.394,9 42.015,9 M42.015,5 C38.191,5 35.08,8.111 35.08,11.935 C35.08,15.759 38.191,18.87 42.015,18.87 C45.839,18.87 48.95,15.759 48.95,11.935 C48.95,8.111 45.839,5 42.015,5" id="Fill-944" fill="#CCB292" sketch:type="MSShapeGroup"></path>
            <path d="M27,33 L49,33 L49,55 L27,55 L27,33 Z" id="Fill-2516" fill="#21AE5E" sketch:type="MSShapeGroup"></path>
            <path d="M37,34.586 L39,34.586 L39,50.586 L37,50.586 L37,34.586 Z" id="Fill-2517" fill="#FFFFFF" sketch:type="MSShapeGroup"></path>
            <path d="M38,52 L31,45.293 L32.476,43.879 L38,49.172 L43.524,43.879 L45,45.293 L38,52" id="Fill-2518" fill="#FFFFFF" sketch:type="MSShapeGroup"></path>
        </g>
    </g>
</svg>