<?xml version="1.0" encoding="UTF-8" standalone="no"?>
<svg width="55px" height="55px" viewBox="0 0 55 55" version="1.1" xmlns="http://www.w3.org/2000/svg" xmlns:xlink="http://www.w3.org/1999/xlink" xmlns:sketch="http://www.bohemiancoding.com/sketch/ns">
    <!-- Generator: Sketch 3.2.2 (9983) - http://www.bohemiancoding.com/sketch -->
    <title>466 - Download Map (Flat)</title>
    <desc>Created with Sketch.</desc>
    <defs></defs>
    <g id="Page-1" stroke="none" stroke-width="1" fill="none" fill-rule="evenodd" sketch:type="MSPage">
        <g id="466---Download-Map-(Flat)" sketch:type="MSLayerGroup">
            <path d="M18,21.243 L2.256,5.499 L0,6 L0,49 L2.099,48.534 L18,32.632 L18,21.243" id="Fill-1389" fill="#4FBA6E" sketch:type="MSShapeGroup"></path>
            <path d="M9.372,46.917 L18,45 L18,38.29 L9.372,46.917" id="Fill-1390" fill="#4AA0D8" sketch:type="MSShapeGroup"></path>
            <path d="M18,2 L6.884,4.47 L18,15.586 L18,2" id="Fill-1391" fill="#4FBA6E" sketch:type="MSShapeGroup"></path>
            <path d="M49.449,1.184 L35,6 L35,15.633 L49.449,1.184" id="Fill-1392" fill="#4FBA6E" sketch:type="MSShapeGroup"></path>
            <path d="M35,21.29 L35,48 L53,41 L53,3.29 L35,21.29" id="Fill-1393" fill="#4AA0D8" sketch:type="MSShapeGroup"></path>
            <path d="M26.523,24.109 L35,15.633 L35,6 L18,2 L18,15.586 L26.523,24.109" id="Fill-1394" fill="#4AA461" sketch:type="MSShapeGroup"></path>
            <path d="M18,21.243 L18,32.632 L23.695,26.938 L18,21.243" id="Fill-1395" fill="#4AA461" sketch:type="MSShapeGroup"></path>
            <path d="M18,38.29 L18,45 L35,48 L35,21.29 L18,38.29" id="Fill-1396" fill="#51A2C9" sketch:type="MSShapeGroup"></path>
            <path d="M18,15.586 L6.884,4.47 L2.256,5.499 L18,21.243 L18,15.586" id="Fill-1397" fill="#F4D65A" sketch:type="MSShapeGroup"></path>
            <path d="M18,32.632 L2.099,48.534 L9.372,46.917 L18,38.29 L18,32.632" id="Fill-1398" fill="#F4D65A" sketch:type="MSShapeGroup"></path>
            <path d="M35,21.29 L53,3.29 L53,0 L49.449,1.184 L35,15.633 L35,21.29" id="Fill-1399" fill="#F4D65A" sketch:type="MSShapeGroup"></path>
            <path d="M26.523,24.109 L18,15.586 L18,21.243 L23.695,26.938 L18,32.632 L18,38.29 L35,21.29 L35,15.633 L26.523,24.109" id="Fill-1400" fill="#DCBD56" sketch:type="MSShapeGroup"></path>
            <path d="M33,33 L55,33 L55,55 L33,55 L33,33 Z" id="Fill-1964" fill="#21AE5E" sketch:type="MSShapeGroup"></path>
            <path d="M43,34.586 L45,34.586 L45,50.586 L43,50.586 L43,34.586 Z" id="Fill-1965" fill="#FFFFFF" sketch:type="MSShapeGroup"></path>
            <path d="M44,52 L37,45.293 L38.476,43.879 L44,49.172 L49.524,43.879 L51,45.293 L44,52" id="Fill-1966" fill="#FFFFFF" sketch:type="MSShapeGroup"></path>
        </g>
    </g>
</svg>