<?xml version="1.0" encoding="UTF-8" standalone="no"?>
<svg width="55px" height="58px" viewBox="0 0 55 58" version="1.1" xmlns="http://www.w3.org/2000/svg" xmlns:xlink="http://www.w3.org/1999/xlink" xmlns:sketch="http://www.bohemiancoding.com/sketch/ns">
    <!-- Generator: Sketch 3.2.2 (9983) - http://www.bohemiancoding.com/sketch -->
    <title>546 - Download File (Flat)</title>
    <desc>Created with Sketch.</desc>
    <defs></defs>
    <g id="Page-1" stroke="none" stroke-width="1" fill="none" fill-rule="evenodd" sketch:type="MSPage">
        <g id="546---Download-File-(Flat)" sketch:type="MSLayerGroup">
            <path d="M45,14 L31,0 L0,0 L0,58 L45,58 L45,14" id="Fill-1669" fill="#EFECDE" sketch:type="MSShapeGroup"></path>
            <path d="M10,23 L35,23 C35.552,23 36,22.553 36,22 C36,21.448 35.552,21 35,21 L10,21 C9.448,21 9,21.448 9,22 C9,22.553 9.448,23 10,23" id="Fill-1670" fill="#D5D0BB" sketch:type="MSShapeGroup"></path>
            <path d="M10,15 L20,15 C20.552,15 21,14.553 21,14 C21,13.448 20.552,13 20,13 L10,13 C9.448,13 9,13.448 9,14 C9,14.553 9.448,15 10,15" id="Fill-1671" fill="#D5D0BB" sketch:type="MSShapeGroup"></path>
            <path d="M35,29 L10,29 C9.448,29 9,29.448 9,30 C9,30.553 9.448,31 10,31 L35,31 C35.552,31 36,30.553 36,30 C36,29.448 35.552,29 35,29" id="Fill-1672" fill="#D5D0BB" sketch:type="MSShapeGroup"></path>
            <path d="M35,37 L10,37 C9.448,37 9,37.448 9,38 C9,38.553 9.448,39 10,39 L35,39 C35.552,39 36,38.553 36,38 C36,37.448 35.552,37 35,37" id="Fill-1673" fill="#D5D0BB" sketch:type="MSShapeGroup"></path>
            <path d="M35,45 L10,45 C9.448,45 9,45.448 9,46 C9,46.553 9.448,47 10,47 L35,47 C35.552,47 36,46.553 36,46 C36,45.448 35.552,45 35,45" id="Fill-1674" fill="#D5D0BB" sketch:type="MSShapeGroup"></path>
            <path d="M31,0 L31,14 L45,14 L31,0" id="Fill-1675" fill="#D5D0BB" sketch:type="MSShapeGroup"></path>
            <path d="M33,36 L55,36 L55,58 L33,58 L33,36 Z" id="Fill-1928" fill="#21AE5E" sketch:type="MSShapeGroup"></path>
            <path d="M43,37.586 L45,37.586 L45,53.586 L43,53.586 L43,37.586 Z" id="Fill-1929" fill="#FFFFFF" sketch:type="MSShapeGroup"></path>
            <path d="M44,55 L37,48.293 L38.476,46.879 L44,52.172 L49.524,46.879 L51,48.293 L44,55" id="Fill-1930" fill="#FFFFFF" sketch:type="MSShapeGroup"></path>
        </g>
    </g>
</svg>