<?xml version="1.0" encoding="UTF-8" standalone="no"?>
<svg width="60px" height="60px" viewBox="0 0 60 60" version="1.1" xmlns="http://www.w3.org/2000/svg" xmlns:xlink="http://www.w3.org/1999/xlink" xmlns:sketch="http://www.bohemiancoding.com/sketch/ns">
    <!-- Generator: Sketch 3.2.2 (9983) - http://www.bohemiancoding.com/sketch -->
    <title>26 - Download Stopwatch (Flat)</title>
    <desc>Created with Sketch.</desc>
    <defs></defs>
    <g id="Page-1" stroke="none" stroke-width="1" fill="none" fill-rule="evenodd" sketch:type="MSPage">
        <g id="26---Download-Stopwatch-(Flat)" sketch:type="MSLayerGroup">
            <path d="M59,29 C59,45.016 46.016,58 30,58 C13.984,58 1,45.016 1,29 C1,12.984 13.984,0 30,0 C46.016,0 59,12.984 59,29" id="Fill-563" fill="#3C97D3" sketch:type="MSShapeGroup"></path>
            <path d="M30,60 C13.458,60 0,46.542 0,30 C0,22.007 3.107,14.487 8.749,8.824 C9.528,8.039 10.796,8.039 11.577,8.819 C12.36,9.599 12.362,10.865 11.583,11.647 C6.693,16.555 4,23.072 4,30 C4,44.337 15.663,56 30,56 C44.337,56 56,44.337 56,30 C56,16.337 45.405,5.101 32,4.076 L32,14.833 C32,15.937 31.104,16.833 30,16.833 C28.896,16.833 28,15.937 28,14.833 L28,2 C28,0.896 28.896,0 30,0 C46.542,0 60,13.458 60,30 C60,46.542 46.542,60 30,60" id="Fill-564" fill="#B1D3F0" sketch:type="MSShapeGroup"></path>
            <path d="M20,20.121 L20,20.121 L32.944,29.484 C34.218,30.411 34.363,32.257 33.249,33.371 C32.135,34.484 30.29,34.34 29.363,33.066 L20,20.121" id="Fill-565" fill="#B1D3F0" sketch:type="MSShapeGroup"></path>
            <path d="M38,37.982 L60,37.982 L60,59.982 L38,59.982 L38,37.982 Z" id="Fill-2200" fill="#21AE5E" sketch:type="MSShapeGroup"></path>
            <path d="M48,39.568 L50,39.568 L50,55.568 L48,55.568 L48,39.568 Z" id="Fill-2201" fill="#FFFFFF" sketch:type="MSShapeGroup"></path>
            <path d="M49,56.982 L42,50.275 L43.476,48.861 L49,54.154 L54.524,48.861 L56,50.275 L49,56.982" id="Fill-2202" fill="#FFFFFF" sketch:type="MSShapeGroup"></path>
        </g>
    </g>
</svg>