<?xml version="1.0" encoding="UTF-8" standalone="no"?>
<svg width="45px" height="59px" viewBox="0 0 45 59" version="1.1" xmlns="http://www.w3.org/2000/svg" xmlns:xlink="http://www.w3.org/1999/xlink" xmlns:sketch="http://www.bohemiancoding.com/sketch/ns">
    <!-- Generator: Sketch 3.2.2 (9983) - http://www.bohemiancoding.com/sketch -->
    <title>68 - Edit Smartphone (Flat)</title>
    <desc>Created with Sketch.</desc>
    <defs></defs>
    <g id="Page-1" stroke="none" stroke-width="1" fill="none" fill-rule="evenodd" sketch:type="MSPage">
        <g id="68---Edit-Smartphone-(Flat)" sketch:type="MSLayerGroup">
            <path d="M28.595,58 L3.405,58 C1.525,58 0,56.475 0,54.595 L0,3.405 C0,1.525 1.525,0 3.405,0 L28.595,0 C30.475,0 32,1.525 32,3.405 L32,54.595 C32,56.475 30.475,58 28.595,58" id="Fill-641" fill="#545E73" sketch:type="MSShapeGroup"></path>
            <path d="M0,6 L32,6 L32,46 L0,46 L0,6 Z" id="Fill-642" fill="#8697CB" sketch:type="MSShapeGroup"></path>
            <path d="M19,52 C19,53.657 17.657,55 16,55 C14.343,55 13,53.657 13,52 C13,50.344 14.343,49 16,49 C17.657,49 19,50.344 19,52" id="Fill-643" fill="#323A45" sketch:type="MSShapeGroup"></path>
            <path d="M16,4 L12,4 C11.447,4 11,3.553 11,3 C11,2.448 11.447,2 12,2 L16,2 C16.553,2 17,2.448 17,3 C17,3.553 16.553,4 16,4" id="Fill-644" fill="#323A45" sketch:type="MSShapeGroup"></path>
            <path d="M20,4 L19,4 C18.447,4 18,3.553 18,3 C18,2.448 18.447,2 19,2 L20,2 C20.553,2 21,2.448 21,3 C21,3.553 20.553,4 20,4" id="Fill-645" fill="#323A45" sketch:type="MSShapeGroup"></path>
            <path d="M22.956,49.489 L22.948,49.496 L20.96,56.786 L25.607,52.139 L22.956,49.489" id="Fill-2169" fill="#EDDCC7" sketch:type="MSShapeGroup"></path>
            <path d="M42.206,35.541 L40.959,34.294 C40.183,33.518 38.927,33.518 38.151,34.294 L34.57,37.875 L37.22,40.526 L42.206,35.541" id="Fill-2170" fill="#D85A4A" sketch:type="MSShapeGroup"></path>
            <path d="M37.22,40.526 L34.57,37.875 L22.956,49.489 L25.607,52.139 L37.22,40.526" id="Fill-2171" fill="#F29C21" sketch:type="MSShapeGroup"></path>
            <path d="M28.605,55.153 L28.613,55.146 L25.607,52.139 L20.96,56.786 L20.827,57.274 L28.605,55.153" id="Fill-2172" fill="#D6C4B1" sketch:type="MSShapeGroup"></path>
            <path d="M40.227,43.532 L43.808,39.95 C44.583,39.175 44.583,37.918 43.808,37.143 L42.206,35.541 L37.22,40.526 L40.227,43.532" id="Fill-2173" fill="#A34740" sketch:type="MSShapeGroup"></path>
            <path d="M25.607,52.139 L28.613,55.146 L40.227,43.532 L37.22,40.526 L25.607,52.139" id="Fill-2174" fill="#E18C25" sketch:type="MSShapeGroup"></path>
            <path d="M20.12,58.982 C19.864,58.982 19.608,58.884 19.413,58.689 C19.022,58.298 19.022,57.665 19.413,57.274 L21.62,55.068 C22.011,54.677 22.643,54.677 23.034,55.068 C23.425,55.458 23.425,56.091 23.034,56.482 L20.827,58.689 C20.632,58.884 20.376,58.982 20.12,58.982" id="Fill-2175" fill="#5E5E5E" sketch:type="MSShapeGroup"></path>
        </g>
    </g>
</svg>