<?xml version="1.0" encoding="UTF-8" standalone="no"?>
<svg width="60px" height="54px" viewBox="0 0 60 54" version="1.1" xmlns="http://www.w3.org/2000/svg" xmlns:xlink="http://www.w3.org/1999/xlink" xmlns:sketch="http://www.bohemiancoding.com/sketch/ns">
    <!-- Generator: Sketch 3.2.2 (9983) - http://www.bohemiancoding.com/sketch -->
    <title>428 - Edit Picture (Flat)</title>
    <desc>Created with Sketch.</desc>
    <defs></defs>
    <g id="Page-1" stroke="none" stroke-width="1" fill="none" fill-rule="evenodd" sketch:type="MSPage">
        <g id="428---Edit-Picture-(Flat)" sketch:type="MSLayerGroup" transform="translate(1.000000, 1.000000)">
            <path d="M0,0 L55,0 L55,42 L0,42 L0,0 Z" id="Fill-512" fill="#EDF0F1" sketch:type="MSShapeGroup"></path>
            <path d="M0,0 L55,0 L55,42 L0,42 L0,0 Z" id="Stroke-513" stroke="#545E73" stroke-width="2" sketch:type="MSShapeGroup"></path>
            <path d="M4,4 L51,4 L51,38 L4,38 L4,4 Z" id="Fill-514" fill="#545E73" sketch:type="MSShapeGroup"></path>
            <path d="M4,4 L51,4 L51,38 L4,38 L4,4 Z" id="Stroke-515" stroke="#EDF0F1" stroke-width="2" sketch:type="MSShapeGroup"></path>
            <path d="M18.569,12.569 C18.569,15.093 16.523,17.138 14,17.138 C11.477,17.138 9.431,15.093 9.431,12.569 C9.431,10.046 11.477,8 14,8 C16.523,8 18.569,10.046 18.569,12.569" id="Fill-516" fill="#F4D65A" sketch:type="MSShapeGroup"></path>
            <path d="M50,28.111 L49,27 L37,16 L26.5,27.5 L36,37 L50,37 L50,28.111" id="Fill-517" fill="#11A085" sketch:type="MSShapeGroup"></path>
            <path d="M5,37 L36,37 L21.017,22.017 L5,36 L5,37" id="Fill-518" fill="#26B99A" sketch:type="MSShapeGroup"></path>
            <path d="M36.836,43.489 L36.828,43.496 L34.84,50.786 L39.487,46.14 L36.836,43.489" id="Fill-2121" fill="#EDDCC7" sketch:type="MSShapeGroup"></path>
            <path d="M56.086,29.541 L54.839,28.293 C54.063,27.518 52.807,27.518 52.031,28.293 L48.45,31.875 L51.101,34.526 L56.086,29.541" id="Fill-2122" fill="#D85A4A" sketch:type="MSShapeGroup"></path>
            <path d="M51.101,34.526 L48.45,31.875 L36.836,43.489 L39.487,46.14 L51.101,34.526" id="Fill-2123" fill="#F29C21" sketch:type="MSShapeGroup"></path>
            <path d="M42.485,49.153 L42.493,49.146 L39.487,46.14 L34.84,50.786 L34.707,51.275 L42.485,49.153" id="Fill-2124" fill="#D6C4B1" sketch:type="MSShapeGroup"></path>
            <path d="M54.107,37.532 L57.688,33.95 C58.463,33.175 58.463,31.918 57.688,31.143 L56.086,29.541 L51.101,34.526 L54.107,37.532" id="Fill-2125" fill="#A34740" sketch:type="MSShapeGroup"></path>
            <path d="M39.487,46.14 L42.493,49.146 L54.107,37.532 L51.101,34.526 L39.487,46.14" id="Fill-2126" fill="#E18C25" sketch:type="MSShapeGroup"></path>
            <path d="M34,52.982 C33.744,52.982 33.488,52.884 33.293,52.689 C32.902,52.298 32.902,51.665 33.293,51.275 L35.5,49.068 C35.891,48.677 36.523,48.677 36.914,49.068 C37.305,49.458 37.305,50.091 36.914,50.482 L34.707,52.689 C34.512,52.884 34.256,52.982 34,52.982" id="Fill-2127" fill="#5E5E5E" sketch:type="MSShapeGroup"></path>
        </g>
    </g>
</svg>