<?xml version="1.0" encoding="UTF-8" standalone="no"?>
<svg width="54px" height="54px" viewBox="0 0 54 54" version="1.1" xmlns="http://www.w3.org/2000/svg" xmlns:xlink="http://www.w3.org/1999/xlink" xmlns:sketch="http://www.bohemiancoding.com/sketch/ns">
    <!-- Generator: Sketch 3.2.2 (9983) - http://www.bohemiancoding.com/sketch -->
    <title>48 - Edit Phonecall (Flat)</title>
    <desc>Created with Sketch.</desc>
    <defs></defs>
    <g id="Page-1" stroke="none" stroke-width="1" fill="none" fill-rule="evenodd" sketch:type="MSPage">
        <g id="48---Edit-Phonecall-(Flat)" sketch:type="MSLayerGroup">
            <path d="M52.595,41.437 C50.697,37.849 43.696,33.746 43.696,33.746 C42.112,32.843 40.201,32.743 39.297,34.352 C39.297,34.353 37.022,37.08 36.444,37.472 C33.8,39.264 31.353,39.194 28.881,36.722 L17.395,25.236 C14.923,22.764 14.854,20.317 16.645,17.673 C17.037,17.094 19.765,14.82 19.765,14.82 C21.374,13.916 21.274,12.005 20.371,10.42 C20.371,10.42 16.268,3.42 12.68,1.522 C11.154,0.714 9.28,0.996 8.059,2.217 L5.522,4.754 C-2.523,12.799 1.438,21.882 9.483,29.928 L24.189,44.634 C32.234,52.679 41.318,56.64 49.363,48.594 L51.9,46.058 C53.121,44.836 53.403,42.962 52.595,41.437" id="Fill-259" fill="#69BC45" sketch:type="MSShapeGroup"></path>
            <path d="M53.479,40.969 C51.471,37.173 44.497,33.057 44.192,32.877 C43.296,32.367 42.361,32.097 41.486,32.097 C40.185,32.097 39.12,32.693 38.475,33.776 C37.455,34.996 36.189,36.422 35.883,36.644 C33.506,38.256 31.646,38.072 29.588,36.015 L18.101,24.528 C16.057,22.484 15.869,20.601 17.47,18.238 C17.693,17.929 19.12,16.663 20.34,15.642 C21.118,15.179 21.652,14.492 21.886,13.647 C22.197,12.525 21.968,11.202 21.233,9.915 C21.06,9.619 16.943,2.646 13.148,0.638 C12.439,0.263 11.642,0.065 10.842,0.065 C9.523,0.065 8.284,0.578 7.352,1.51 L4.815,4.047 C0.802,8.06 -0.652,12.609 0.495,17.567 C1.45,21.699 4.237,26.096 8.777,30.635 L23.482,45.34 C29.227,51.086 34.705,54 39.764,54 L39.765,54 C43.485,54 46.953,52.419 50.07,49.302 L52.607,46.765 C54.148,45.225 54.498,42.896 53.479,40.969 L53.479,40.969 Z M51.193,45.351 L48.656,47.888 C45.927,50.616 42.936,52 39.765,52 C35.255,52 30.253,49.284 24.896,43.926 L10.191,29.221 C5.92,24.95 3.313,20.877 2.443,17.116 C1.449,12.816 2.687,9.003 6.229,5.461 L8.766,2.924 C9.321,2.37 10.057,2.064 10.842,2.064 C11.317,2.064 11.791,2.183 12.212,2.405 C15.506,4.149 19.468,10.86 19.502,10.916 C19.951,11.703 20.121,12.525 19.958,13.112 C19.859,13.473 19.635,13.745 19.276,13.947 L19.124,14.052 C18.272,14.763 16.242,16.485 15.816,17.112 C15.204,18.017 14.799,18.905 14.586,19.778 C13.875,18.36 13.3,16.717 13.111,14.896 C13.054,14.349 12.565,13.966 12.013,14.005 C11.464,14.063 11.065,14.554 11.122,15.104 C11.844,22.057 17.251,26.583 17.481,26.772 C17.506,26.792 17.536,26.8 17.563,26.819 L28.174,37.429 C28.219,37.473 28.264,37.512 28.308,37.555 C28.344,37.607 28.367,37.666 28.414,37.712 C28.603,37.899 33.118,42.279 40.013,42.995 C40.049,42.998 40.083,43 40.117,43 C40.624,43 41.058,42.617 41.111,42.104 C41.168,41.554 40.769,41.063 40.22,41.005 C38.108,40.786 36.237,40.167 34.677,39.449 C35.439,39.218 36.215,38.835 37.004,38.3 C37.632,37.875 39.354,35.845 40.065,34.992 L40.169,34.841 C40.451,34.341 40.881,34.097 41.486,34.097 C42.006,34.097 42.615,34.281 43.191,34.608 C45.07,35.71 50.263,39.167 51.711,41.904 C52.317,43.05 52.109,44.435 51.193,45.351 L51.193,45.351 Z" id="Fill-260" fill="#449E46" sketch:type="MSShapeGroup"></path>
            <path d="M7.566,37.508 L7.559,37.515 L5.571,44.804 L10.217,40.158 L7.566,37.508" id="Fill-2273" fill="#EDDCC7" sketch:type="MSShapeGroup"></path>
            <path d="M26.816,23.56 L25.569,22.312 C24.794,21.537 23.537,21.537 22.762,22.312 L19.18,25.894 L21.831,28.545 L26.816,23.56" id="Fill-2274" fill="#D85A4A" sketch:type="MSShapeGroup"></path>
            <path d="M21.831,28.545 L19.18,25.894 L7.566,37.508 L10.217,40.158 L21.831,28.545" id="Fill-2275" fill="#F29C21" sketch:type="MSShapeGroup"></path>
            <path d="M13.216,43.172 L13.223,43.164 L10.217,40.158 L5.571,44.804 L5.437,45.293 L13.216,43.172" id="Fill-2276" fill="#D6C4B1" sketch:type="MSShapeGroup"></path>
            <path d="M24.837,31.55 L28.419,27.969 C29.194,27.194 29.194,25.937 28.419,25.162 L26.816,23.56 L21.831,28.545 L24.837,31.55" id="Fill-2277" fill="#A34740" sketch:type="MSShapeGroup"></path>
            <path d="M10.217,40.158 L13.223,43.164 L24.837,31.55 L21.831,28.545 L10.217,40.158" id="Fill-2278" fill="#E18C25" sketch:type="MSShapeGroup"></path>
            <path d="M4.73,47 C4.475,47 4.219,46.902 4.023,46.707 C3.633,46.316 3.633,45.684 4.023,45.293 L6.23,43.086 C6.621,42.695 7.254,42.695 7.645,43.086 C8.035,43.477 8.035,44.109 7.645,44.5 L5.437,46.707 C5.242,46.902 4.986,47 4.73,47" id="Fill-2279" fill="#5E5E5E" sketch:type="MSShapeGroup"></path>
        </g>
    </g>
</svg>