<?xml version="1.0" encoding="UTF-8" standalone="no"?>
<svg width="55px" height="55px" viewBox="0 0 55 55" version="1.1" xmlns="http://www.w3.org/2000/svg" xmlns:xlink="http://www.w3.org/1999/xlink" xmlns:sketch="http://www.bohemiancoding.com/sketch/ns">
    <!-- Generator: Sketch 3.2.2 (9983) - http://www.bohemiancoding.com/sketch -->
    <title>188 - Edit To Do List (Flat)</title>
    <desc>Created with Sketch.</desc>
    <defs></defs>
    <g id="Page-1" stroke="none" stroke-width="1" fill="none" fill-rule="evenodd" sketch:type="MSPage">
        <g id="188---Edit-To-Do-List-(Flat)" sketch:type="MSLayerGroup">
            <path d="M43.636,52 L8.364,52 C3.745,52 0,48.256 0,43.637 L0,8.364 C0,3.745 3.745,0 8.364,0 L43.636,0 C48.255,0 52,3.745 52,8.364 L52,43.637 C52,48.256 48.255,52 43.636,52" id="Fill-1765" fill="#3ABCA7" sketch:type="MSShapeGroup"></path>
            <path d="M26,13 L44,13 M26,27 L44,27 M26,41 L44,41 M18.929,8.001 L12.071,16 L7.5,12.572 M18.929,22 L12.071,30 L7.5,26.571 M18.929,37 L12.071,44.999 L7.5,41.57" id="Stroke-1766" stroke="#FFFFFF" stroke-width="2" stroke-linecap="round" stroke-linejoin="round" sketch:type="MSShapeGroup"></path>
            <path d="M32.836,45.489 L32.828,45.496 L30.84,52.786 L35.487,48.139 L32.836,45.489" id="Fill-1909" fill="#EDDCC7" sketch:type="MSShapeGroup"></path>
            <path d="M52.086,31.541 L50.839,30.294 C50.063,29.518 48.806,29.518 48.031,30.294 L44.45,33.875 L47.1,36.526 L52.086,31.541" id="Fill-1910" fill="#D85A4A" sketch:type="MSShapeGroup"></path>
            <path d="M47.1,36.526 L44.45,33.875 L32.836,45.489 L35.487,48.139 L47.1,36.526" id="Fill-1911" fill="#F29C21" sketch:type="MSShapeGroup"></path>
            <path d="M38.485,51.154 L38.493,51.146 L35.487,48.139 L30.84,52.786 L30.707,53.275 L38.485,51.154" id="Fill-1912" fill="#D6C4B1" sketch:type="MSShapeGroup"></path>
            <path d="M50.107,39.532 L53.688,35.95 C54.463,35.175 54.463,33.918 53.688,33.143 L52.086,31.541 L47.1,36.526 L50.107,39.532" id="Fill-1913" fill="#A34740" sketch:type="MSShapeGroup"></path>
            <path d="M35.487,48.139 L38.493,51.146 L50.107,39.532 L47.1,36.526 L35.487,48.139" id="Fill-1914" fill="#E18C25" sketch:type="MSShapeGroup"></path>
            <path d="M30,54.982 C29.744,54.982 29.488,54.884 29.293,54.689 C28.902,54.298 28.902,53.665 29.293,53.275 L31.5,51.068 C31.891,50.677 32.523,50.677 32.914,51.068 C33.305,51.458 33.305,52.091 32.914,52.481 L30.707,54.689 C30.512,54.884 30.256,54.982 30,54.982" id="Fill-1915" fill="#5E5E5E" sketch:type="MSShapeGroup"></path>
        </g>
    </g>
</svg>