<?xml version="1.0" encoding="UTF-8" standalone="no"?>
<svg width="56px" height="56px" viewBox="0 0 56 56" version="1.1" xmlns="http://www.w3.org/2000/svg" xmlns:xlink="http://www.w3.org/1999/xlink" xmlns:sketch="http://www.bohemiancoding.com/sketch/ns">
    <!-- Generator: Sketch 3.2.2 (9983) - http://www.bohemiancoding.com/sketch -->
    <title>468 - Edit Map (Flat)</title>
    <desc>Created with Sketch.</desc>
    <defs></defs>
    <g id="Page-1" stroke="none" stroke-width="1" fill="none" fill-rule="evenodd" sketch:type="MSPage">
        <g id="468---Edit-Map-(Flat)" sketch:type="MSLayerGroup">
            <path d="M18,21.243 L2.256,5.499 L0,6 L0,49 L2.099,48.534 L18,32.632 L18,21.243" id="Fill-1365" fill="#4FBA6E" sketch:type="MSShapeGroup"></path>
            <path d="M9.372,46.917 L18,45 L18,38.29 L9.372,46.917" id="Fill-1366" fill="#4AA0D8" sketch:type="MSShapeGroup"></path>
            <path d="M18,2 L6.884,4.47 L18,15.586 L18,2" id="Fill-1367" fill="#4FBA6E" sketch:type="MSShapeGroup"></path>
            <path d="M49.449,1.184 L35,6 L35,15.633 L49.449,1.184" id="Fill-1368" fill="#4FBA6E" sketch:type="MSShapeGroup"></path>
            <path d="M35,21.29 L35,48 L53,41 L53,3.29 L35,21.29" id="Fill-1369" fill="#4AA0D8" sketch:type="MSShapeGroup"></path>
            <path d="M26.523,24.109 L35,15.633 L35,6 L18,2 L18,15.586 L26.523,24.109" id="Fill-1370" fill="#4AA461" sketch:type="MSShapeGroup"></path>
            <path d="M18,21.243 L18,32.632 L23.695,26.938 L18,21.243" id="Fill-1371" fill="#4AA461" sketch:type="MSShapeGroup"></path>
            <path d="M18,38.29 L18,45 L35,48 L35,21.29 L18,38.29" id="Fill-1372" fill="#51A2C9" sketch:type="MSShapeGroup"></path>
            <path d="M18,15.586 L6.884,4.47 L2.256,5.499 L18,21.243 L18,15.586" id="Fill-1373" fill="#F4D65A" sketch:type="MSShapeGroup"></path>
            <path d="M18,32.632 L2.099,48.534 L9.372,46.917 L18,38.29 L18,32.632" id="Fill-1374" fill="#F4D65A" sketch:type="MSShapeGroup"></path>
            <path d="M35,21.29 L53,3.29 L53,0 L49.449,1.184 L35,15.633 L35,21.29" id="Fill-1375" fill="#F4D65A" sketch:type="MSShapeGroup"></path>
            <path d="M26.523,24.109 L18,15.586 L18,21.243 L23.695,26.938 L18,32.632 L18,38.29 L35,21.29 L35,15.633 L26.523,24.109" id="Fill-1376" fill="#DCBD56" sketch:type="MSShapeGroup"></path>
            <path d="M33.836,46.507 L33.828,46.515 L31.84,53.805 L36.487,49.158 L33.836,46.507" id="Fill-1982" fill="#EDDCC7" sketch:type="MSShapeGroup"></path>
            <path d="M53.086,32.559 L51.839,31.312 C51.063,30.537 49.807,30.537 49.031,31.312 L45.45,34.894 L48.101,37.544 L53.086,32.559" id="Fill-1983" fill="#D85A4A" sketch:type="MSShapeGroup"></path>
            <path d="M48.101,37.544 L45.45,34.894 L33.836,46.507 L36.487,49.158 L48.101,37.544" id="Fill-1984" fill="#F29C21" sketch:type="MSShapeGroup"></path>
            <path d="M39.485,52.172 L39.493,52.164 L36.487,49.158 L31.84,53.805 L31.707,54.293 L39.485,52.172" id="Fill-1985" fill="#D6C4B1" sketch:type="MSShapeGroup"></path>
            <path d="M51.107,40.551 L54.688,36.969 C55.463,36.194 55.463,34.937 54.688,34.162 L53.086,32.559 L48.101,37.544 L51.107,40.551" id="Fill-1986" fill="#A34740" sketch:type="MSShapeGroup"></path>
            <path d="M36.487,49.158 L39.493,52.164 L51.107,40.551 L48.101,37.544 L36.487,49.158" id="Fill-1987" fill="#E18C25" sketch:type="MSShapeGroup"></path>
            <path d="M31,56 C30.744,56 30.488,55.903 30.293,55.707 C29.902,55.317 29.902,54.684 30.293,54.293 L32.5,52.086 C32.891,51.696 33.523,51.696 33.914,52.086 C34.305,52.477 34.305,53.11 33.914,53.5 L31.707,55.707 C31.512,55.903 31.256,56 31,56" id="Fill-1988" fill="#5E5E5E" sketch:type="MSShapeGroup"></path>
        </g>
    </g>
</svg>