<?xml version="1.0" encoding="UTF-8" standalone="no"?>
<svg width="60px" height="54px" viewBox="0 0 60 54" version="1.1" xmlns="http://www.w3.org/2000/svg" xmlns:xlink="http://www.w3.org/1999/xlink" xmlns:sketch="http://www.bohemiancoding.com/sketch/ns">
    <!-- Generator: Sketch 3.2.2 (9983) - http://www.bohemiancoding.com/sketch -->
    <title>448 - Edit Video (Flat)</title>
    <desc>Created with Sketch.</desc>
    <defs></defs>
    <g id="Page-1" stroke="none" stroke-width="1" fill="none" fill-rule="evenodd" sketch:type="MSPage">
        <g id="448---Edit-Video-(Flat)" sketch:type="MSLayerGroup" transform="translate(1.000000, 1.000000)">
            <path d="M0,0 L56,0 L56,44 L0,44 L0,0 Z" id="Fill-229" fill="#8697CB" sketch:type="MSShapeGroup"></path>
            <path d="M0,0 L56,0 L56,44 L0,44 L0,0 Z" id="Stroke-230" stroke="#535D73" stroke-width="2" sketch:type="MSShapeGroup"></path>
            <path d="M24,29 L24,15 L35,22 L24,29" id="Fill-231" fill="#FFFFFF" sketch:type="MSShapeGroup"></path>
            <path d="M0,0 L10,0 L10,11 L0,11 L0,0 Z" id="Fill-232" fill="#687492" sketch:type="MSShapeGroup"></path>
            <path d="M0,0 L10,0 L10,11 L0,11 L0,0 Z" id="Stroke-233" stroke="#535D73" stroke-width="2" sketch:type="MSShapeGroup"></path>
            <path d="M0,11 L10,11 L10,22 L0,22 L0,11 Z" id="Fill-234" fill="#687492" sketch:type="MSShapeGroup"></path>
            <path d="M0,11 L10,11 L10,22 L0,22 L0,11 Z" id="Stroke-235" stroke="#535D73" stroke-width="2" sketch:type="MSShapeGroup"></path>
            <path d="M0,22 L10,22 L10,33 L0,33 L0,22 Z" id="Fill-236" fill="#687492" sketch:type="MSShapeGroup"></path>
            <path d="M0,22 L10,22 L10,33 L0,33 L0,22 Z" id="Stroke-237" stroke="#535D73" stroke-width="2" sketch:type="MSShapeGroup"></path>
            <path d="M0,33 L10,33 L10,44 L0,44 L0,33 Z" id="Fill-238" fill="#687492" sketch:type="MSShapeGroup"></path>
            <path d="M0,33 L10,33 L10,44 L0,44 L0,33 Z" id="Stroke-239" stroke="#535D73" stroke-width="2" sketch:type="MSShapeGroup"></path>
            <path d="M46,0 L56,0 L56,11 L46,11 L46,0 Z" id="Fill-240" fill="#687492" sketch:type="MSShapeGroup"></path>
            <path d="M46,0 L56,0 L56,11 L46,11 L46,0 Z" id="Stroke-241" stroke="#535D73" stroke-width="2" sketch:type="MSShapeGroup"></path>
            <path d="M46,11 L56,11 L56,22 L46,22 L46,11 Z" id="Fill-242" fill="#687492" sketch:type="MSShapeGroup"></path>
            <path d="M46,11 L56,11 L56,22 L46,22 L46,11 Z" id="Stroke-243" stroke="#535D73" stroke-width="2" sketch:type="MSShapeGroup"></path>
            <path d="M46,22 L56,22 L56,33 L46,33 L46,22 Z" id="Fill-244" fill="#687492" sketch:type="MSShapeGroup"></path>
            <path d="M46,22 L56,22 L56,33 L46,33 L46,22 Z" id="Stroke-245" stroke="#535D73" stroke-width="2" sketch:type="MSShapeGroup"></path>
            <path d="M46,33 L56,33 L56,44 L46,44 L46,33 Z" id="Fill-246" fill="#687492" sketch:type="MSShapeGroup"></path>
            <path d="M46,33 L56,33 L56,44 L46,44 L46,33 Z" id="Stroke-247" stroke="#535D73" stroke-width="2" sketch:type="MSShapeGroup"></path>
            <path d="M36.836,43.489 L36.828,43.496 L34.84,50.786 L39.487,46.14 L36.836,43.489" id="Fill-2069" fill="#EDDCC7" sketch:type="MSShapeGroup"></path>
            <path d="M56.086,29.541 L54.839,28.293 C54.063,27.518 52.807,27.518 52.031,28.293 L48.45,31.875 L51.101,34.526 L56.086,29.541" id="Fill-2070" fill="#D85A4A" sketch:type="MSShapeGroup"></path>
            <path d="M51.101,34.526 L48.45,31.875 L36.836,43.489 L39.487,46.14 L51.101,34.526" id="Fill-2071" fill="#F29C21" sketch:type="MSShapeGroup"></path>
            <path d="M42.485,49.153 L42.493,49.146 L39.487,46.14 L34.84,50.786 L34.707,51.274 L42.485,49.153" id="Fill-2072" fill="#D6C4B1" sketch:type="MSShapeGroup"></path>
            <path d="M54.107,37.532 L57.688,33.95 C58.463,33.175 58.463,31.918 57.688,31.143 L56.086,29.541 L51.101,34.526 L54.107,37.532" id="Fill-2073" fill="#A34740" sketch:type="MSShapeGroup"></path>
            <path d="M39.487,46.14 L42.493,49.146 L54.107,37.532 L51.101,34.526 L39.487,46.14" id="Fill-2074" fill="#E18C25" sketch:type="MSShapeGroup"></path>
            <path d="M34,52.982 C33.744,52.982 33.488,52.884 33.293,52.689 C32.902,52.298 32.902,51.665 33.293,51.274 L35.5,49.068 C35.891,48.677 36.523,48.677 36.914,49.068 C37.305,49.458 37.305,50.091 36.914,50.482 L34.707,52.689 C34.512,52.884 34.256,52.982 34,52.982" id="Fill-2075" fill="#5E5E5E" sketch:type="MSShapeGroup"></path>
        </g>
    </g>
</svg>