<?xml version="1.0" encoding="UTF-8" standalone="no"?>
<svg width="59px" height="53px" viewBox="0 0 59 53" version="1.1" xmlns="http://www.w3.org/2000/svg" xmlns:xlink="http://www.w3.org/1999/xlink" xmlns:sketch="http://www.bohemiancoding.com/sketch/ns">
    <!-- Generator: Sketch 3.2.2 (9983) - http://www.bohemiancoding.com/sketch -->
    <title>168 - Edit Folder (Flat)</title>
    <desc>Created with Sketch.</desc>
    <defs></defs>
    <g id="Page-1" stroke="none" stroke-width="1" fill="none" fill-rule="evenodd" sketch:type="MSPage">
        <g id="168---Edit-Folder-(Flat)" sketch:type="MSLayerGroup">
            <path d="M25,7 L20,0 L0,0 L0,51 L58,51 L58,14 L30,14 L25,7" id="Fill-1725" fill="#556080" sketch:type="MSShapeGroup"></path>
            <path d="M30,14 L58,14 L58,7 L25,7 L30,14" id="Fill-1726" fill="#3D4451" sketch:type="MSShapeGroup"></path>
            <path d="M37.226,43.489 L37.218,43.496 L35.23,50.786 L39.876,46.139 L37.226,43.489" id="Fill-1857" fill="#EDDCC7" sketch:type="MSShapeGroup"></path>
            <path d="M56.475,29.541 L55.228,28.293 C54.453,27.518 53.196,27.518 52.421,28.293 L48.839,31.875 L51.49,34.526 L56.475,29.541" id="Fill-1858" fill="#D85A4A" sketch:type="MSShapeGroup"></path>
            <path d="M51.49,34.526 L48.839,31.875 L37.226,43.489 L39.876,46.139 L51.49,34.526" id="Fill-1859" fill="#F29C21" sketch:type="MSShapeGroup"></path>
            <path d="M42.875,49.153 L42.882,49.146 L39.876,46.139 L35.23,50.786 L35.097,51.274 L42.875,49.153" id="Fill-1860" fill="#D6C4B1" sketch:type="MSShapeGroup"></path>
            <path d="M54.496,37.532 L58.078,33.95 C58.853,33.175 58.853,31.918 58.078,31.143 L56.475,29.541 L51.49,34.526 L54.496,37.532" id="Fill-1861" fill="#A34740" sketch:type="MSShapeGroup"></path>
            <path d="M39.876,46.139 L42.882,49.146 L54.496,37.532 L51.49,34.526 L39.876,46.139" id="Fill-1862" fill="#E18C25" sketch:type="MSShapeGroup"></path>
            <path d="M34.39,52.982 C34.134,52.982 33.878,52.884 33.683,52.689 C33.292,52.298 33.292,51.665 33.683,51.274 L35.89,49.068 C36.28,48.677 36.913,48.677 37.304,49.068 C37.694,49.458 37.694,50.091 37.304,50.482 L35.097,52.689 C34.901,52.884 34.645,52.982 34.39,52.982" id="Fill-1863" fill="#5E5E5E" sketch:type="MSShapeGroup"></path>
        </g>
    </g>
</svg>