<?xml version="1.0" encoding="UTF-8" standalone="no"?>
<svg width="58px" height="48px" viewBox="0 0 58 48" version="1.1" xmlns="http://www.w3.org/2000/svg" xmlns:xlink="http://www.w3.org/1999/xlink" xmlns:sketch="http://www.bohemiancoding.com/sketch/ns">
    <!-- Generator: Sketch 3.2.2 (9983) - http://www.bohemiancoding.com/sketch -->
    <title>528 - Edit Mail (Flat)</title>
    <desc>Created with Sketch.</desc>
    <defs></defs>
    <g id="Page-1" stroke="none" stroke-width="1" fill="none" fill-rule="evenodd" sketch:type="MSPage">
        <g id="528---Edit-Mail-(Flat)" sketch:type="MSLayerGroup">
            <path d="M0,39 L56,39 L56,0 L0,0 L0,39 Z" id="Fill-1596" fill="#DCD6CD" sketch:type="MSShapeGroup"></path>
            <path d="M30.965,22.107 C29.327,23.569 26.673,23.569 25.035,22.107 L22.949,20.264 C16.419,26.092 0,39 0,39 L56,39 C56,39 39.581,26.092 33.052,20.264 L30.965,22.107" id="Fill-1597" fill="#E8E3D9" sketch:type="MSShapeGroup"></path>
            <path d="M0,0 L25.035,22.107 C26.673,23.569 29.327,23.569 30.965,22.107 L56,0 L0,0" id="Fill-1598" fill="#EFECDE" sketch:type="MSShapeGroup"></path>
            <path d="M36.566,38.214 L36.559,38.222 L34.571,45.512 L39.217,40.865 L36.566,38.214" id="Fill-1893" fill="#EDDCC7" sketch:type="MSShapeGroup"></path>
            <path d="M55.816,24.266 L54.569,23.019 C53.794,22.244 52.537,22.244 51.762,23.019 L48.18,26.601 L50.831,29.251 L55.816,24.266" id="Fill-1894" fill="#D85A4A" sketch:type="MSShapeGroup"></path>
            <path d="M50.831,29.251 L48.18,26.601 L36.566,38.214 L39.217,40.865 L50.831,29.251" id="Fill-1895" fill="#F29C21" sketch:type="MSShapeGroup"></path>
            <path d="M42.216,43.879 L42.223,43.871 L39.217,40.865 L34.571,45.512 L34.438,46 L42.216,43.879" id="Fill-1896" fill="#D6C4B1" sketch:type="MSShapeGroup"></path>
            <path d="M53.837,32.257 L57.419,28.676 C58.194,27.901 58.194,26.644 57.419,25.869 L55.816,24.266 L50.831,29.251 L53.837,32.257" id="Fill-1897" fill="#A34740" sketch:type="MSShapeGroup"></path>
            <path d="M39.217,40.865 L42.223,43.871 L53.837,32.257 L50.831,29.251 L39.217,40.865" id="Fill-1898" fill="#E18C25" sketch:type="MSShapeGroup"></path>
            <path d="M33.73,47.707 C33.475,47.707 33.219,47.609 33.023,47.414 C32.633,47.023 32.633,46.391 33.023,46 L35.23,43.793 C35.621,43.402 36.254,43.402 36.645,43.793 C37.035,44.184 37.035,44.816 36.645,45.207 L34.438,47.414 C34.242,47.609 33.986,47.707 33.73,47.707" id="Fill-1899" fill="#5E5E5E" sketch:type="MSShapeGroup"></path>
        </g>
    </g>
</svg>