<?xml version="1.0" encoding="UTF-8" standalone="no"?>
<svg width="59px" height="57px" viewBox="0 0 59 57" version="1.1" xmlns="http://www.w3.org/2000/svg" xmlns:xlink="http://www.w3.org/1999/xlink" xmlns:sketch="http://www.bohemiancoding.com/sketch/ns">
    <!-- Generator: Sketch 3.2.2 (9983) - http://www.bohemiancoding.com/sketch -->
    <title>368 - Edit Profile (Flat)</title>
    <desc>Created with Sketch.</desc>
    <defs></defs>
    <g id="Page-1" stroke="none" stroke-width="1" fill="none" fill-rule="evenodd" sketch:type="MSPage">
        <g id="368---Edit-Profile-(Flat)" sketch:type="MSLayerGroup">
            <path d="M11.487,44.641 L20.6,40.733 C21.094,40.486 21.496,39.689 21.779,39.119 C22.034,38.605 21.653,38 21.079,38 L14.634,38 C14.634,38 12.304,37.772 10.507,37 C9.455,36.548 9.092,35.951 9.75,35.014 C11.675,32.274 15.654,25.822 15.783,19.159 C15.783,19.158 16.004,8.902 26.123,8.818 C32.027,8.867 34.815,12.342 36.113,15.229 C36.838,16.839 37.148,18.596 37.265,20.358 C37.684,26.709 40.919,32.517 42.426,35 C42.937,35.843 42.69,36.964 41.845,37.469 C40.458,38.298 38.762,38 38.762,38 L32.273,38 C31.64,38 31.36,38.886 31.857,39.279 C32.263,39.599 32.65,39.888 32.86,40.002 L40.44,44.589 C41.534,45.186 42.407,46.072 43,47.119 C38.451,50.795 32.664,53 26.36,53 C19.785,53 13.775,50.601 9.143,46.637 C9.749,45.812 10.537,45.116 11.487,44.641" id="Fill-599" fill="#EDF0F1" sketch:type="MSShapeGroup"></path>
            <path d="M26.5,0 C11.864,0 0,11.865 0,26.5 C0,34.522 3.57,41.706 9.202,46.566 C9.799,45.773 10.565,45.102 11.487,44.641 L20.6,40.733 C21.094,40.486 21.496,39.689 21.779,39.119 C22.034,38.605 21.653,38 21.079,38 L14.634,38 C14.634,38 12.304,37.772 10.507,37 C9.455,36.548 9.092,35.951 9.75,35.014 C11.675,32.274 15.654,25.822 15.783,19.159 C15.783,19.158 16.004,8.902 26.123,8.818 C32.027,8.867 34.815,12.342 36.113,15.229 C36.838,16.839 37.148,18.596 37.265,20.358 C37.684,26.709 40.919,32.517 42.426,35 C42.937,35.843 42.69,36.964 41.845,37.469 C40.458,38.298 38.762,38 38.762,38 L32.273,38 C31.64,38 31.36,38.886 31.857,39.279 C32.263,39.599 32.65,39.888 32.86,40.002 L40.44,44.589 C41.525,45.181 42.391,46.059 42.984,47.094 C43.01,47.12 43.039,47.143 43.064,47.17 C49.117,42.313 53,34.864 53,26.5 C53,11.865 41.136,0 26.5,0" id="Fill-600" fill="#556080" sketch:type="MSShapeGroup"></path>
            <path d="M36.836,47.489 L36.828,47.496 L34.84,54.786 L39.487,50.14 L36.836,47.489" id="Fill-2225" fill="#EDDCC7" sketch:type="MSShapeGroup"></path>
            <path d="M56.086,33.541 L54.839,32.293 C54.063,31.518 52.807,31.518 52.031,32.293 L48.45,35.875 L51.101,38.526 L56.086,33.541" id="Fill-2226" fill="#D85A4A" sketch:type="MSShapeGroup"></path>
            <path d="M51.101,38.526 L48.45,35.875 L36.836,47.489 L39.487,50.14 L51.101,38.526" id="Fill-2227" fill="#F29C21" sketch:type="MSShapeGroup"></path>
            <path d="M42.485,53.153 L42.493,53.146 L39.487,50.14 L34.84,54.786 L34.707,55.275 L42.485,53.153" id="Fill-2228" fill="#D6C4B1" sketch:type="MSShapeGroup"></path>
            <path d="M54.107,41.532 L57.688,37.95 C58.463,37.175 58.463,35.918 57.688,35.143 L56.086,33.541 L51.101,38.526 L54.107,41.532" id="Fill-2229" fill="#A34740" sketch:type="MSShapeGroup"></path>
            <path d="M39.487,50.14 L42.493,53.146 L54.107,41.532 L51.101,38.526 L39.487,50.14" id="Fill-2230" fill="#E18C25" sketch:type="MSShapeGroup"></path>
            <path d="M34,56.982 C33.744,56.982 33.488,56.884 33.293,56.689 C32.902,56.298 32.902,55.665 33.293,55.275 L35.5,53.068 C35.891,52.677 36.523,52.677 36.914,53.068 C37.305,53.458 37.305,54.091 36.914,54.482 L34.707,56.689 C34.512,56.884 34.256,56.982 34,56.982" id="Fill-2231" fill="#5E5E5E" sketch:type="MSShapeGroup"></path>
        </g>
    </g>
</svg>