<?xml version="1.0" encoding="UTF-8" standalone="no"?>
<svg width="41px" height="54px" viewBox="0 0 41 54" version="1.1" xmlns="http://www.w3.org/2000/svg" xmlns:xlink="http://www.w3.org/1999/xlink" xmlns:sketch="http://www.bohemiancoding.com/sketch/ns">
    <!-- Generator: Sketch 3.2.2 (9983) - http://www.bohemiancoding.com/sketch -->
    <title>508 - Edit Location (Flat)</title>
    <desc>Created with Sketch.</desc>
    <defs></defs>
    <g id="Page-1" stroke="none" stroke-width="1" fill="none" fill-rule="evenodd" sketch:type="MSPage">
        <g id="508---Edit-Location-(Flat)" sketch:type="MSLayerGroup">
            <path d="M31.03,5.324 L31.03,5.324 C23.931,-1.774 12.422,-1.774 5.324,5.324 C-1.072,11.72 -1.792,23.764 3.636,31 L18.177,52 L32.718,31 C38.146,23.764 37.426,11.72 31.03,5.324 L31.03,5.324 Z M18.354,24 C15.04,24 12.354,21.314 12.354,18 C12.354,14.687 15.04,12 18.354,12 C21.667,12 24.354,14.687 24.354,18 C24.354,21.314 21.667,24 18.354,24 L18.354,24 Z" id="Fill-1578" fill="#3192D0" sketch:type="MSShapeGroup"></path>
            <path d="M18.836,44.214 L18.828,44.222 L16.84,51.512 L21.487,46.865 L18.836,44.214" id="Fill-1951" fill="#EDDCC7" sketch:type="MSShapeGroup"></path>
            <path d="M38.086,30.266 L36.839,29.019 C36.063,28.244 34.807,28.244 34.031,29.019 L30.45,32.601 L33.101,35.251 L38.086,30.266" id="Fill-1952" fill="#D85A4A" sketch:type="MSShapeGroup"></path>
            <path d="M33.101,35.251 L30.45,32.601 L18.836,44.214 L21.487,46.865 L33.101,35.251" id="Fill-1953" fill="#F29C21" sketch:type="MSShapeGroup"></path>
            <path d="M24.485,49.879 L24.493,49.871 L21.487,46.865 L16.84,51.512 L16.707,52 L24.485,49.879" id="Fill-1954" fill="#D6C4B1" sketch:type="MSShapeGroup"></path>
            <path d="M36.107,38.257 L39.688,34.676 C40.463,33.901 40.463,32.644 39.688,31.869 L38.086,30.266 L33.101,35.251 L36.107,38.257" id="Fill-1955" fill="#A34740" sketch:type="MSShapeGroup"></path>
            <path d="M21.487,46.865 L24.493,49.871 L36.107,38.257 L33.101,35.251 L21.487,46.865" id="Fill-1956" fill="#E18C25" sketch:type="MSShapeGroup"></path>
            <path d="M16,53.707 C15.744,53.707 15.488,53.609 15.293,53.414 C14.902,53.023 14.902,52.391 15.293,52 L17.5,49.793 C17.891,49.402 18.523,49.402 18.914,49.793 C19.305,50.184 19.305,50.816 18.914,51.207 L16.707,53.414 C16.512,53.609 16.256,53.707 16,53.707" id="Fill-1957" fill="#5E5E5E" sketch:type="MSShapeGroup"></path>
        </g>
    </g>
</svg>