<?xml version="1.0" encoding="UTF-8" standalone="no"?>
<svg width="58px" height="54px" viewBox="0 0 58 54" version="1.1" xmlns="http://www.w3.org/2000/svg" xmlns:xlink="http://www.w3.org/1999/xlink" xmlns:sketch="http://www.bohemiancoding.com/sketch/ns">
    <!-- Generator: Sketch 3.2.2 (9983) - http://www.bohemiancoding.com/sketch -->
    <title>235 - Favorite Window (Flat)</title>
    <desc>Created with Sketch.</desc>
    <defs></defs>
    <g id="Page-1" stroke="none" stroke-width="1" fill="none" fill-rule="evenodd" sketch:type="MSPage">
        <g id="235---Favorite-Window-(Flat)" sketch:type="MSLayerGroup">
            <path d="M0,14 L50,14 L50,49 L0,49 L0,14 Z" id="Fill-840" fill="#EDF0F1" sketch:type="MSShapeGroup"></path>
            <path d="M0,0 L50,0 L50,14 L0,14 L0,0 Z" id="Fill-841" fill="#546A79" sketch:type="MSShapeGroup"></path>
            <path d="M10,7 C10,8.657 8.657,10 7,10 C5.343,10 4,8.657 4,7 C4,5.343 5.343,4 7,4 C8.657,4 10,5.343 10,7" id="Fill-842" fill="#ED7061" sketch:type="MSShapeGroup"></path>
            <path d="M19,7 C19,8.657 17.657,10 16,10 C14.343,10 13,8.657 13,7 C13,5.343 14.343,4 16,4 C17.657,4 19,5.343 19,7" id="Fill-843" fill="#F0C41A" sketch:type="MSShapeGroup"></path>
            <path d="M28,7 C28,8.657 26.657,10 25,10 C23.343,10 22,8.657 22,7 C22,5.343 23.343,4 25,4 C26.657,4 28,5.343 28,7" id="Fill-844" fill="#4FBA6E" sketch:type="MSShapeGroup"></path>
            <path d="M46,32 L49.708,39.242 L58,40.403 L52,46.041 L53.416,54 L46,50.243 L38.584,54 L40,46.041 L34,40.403 L42.292,39.242 L46,32" id="Fill-2501" fill="#F4D65A" sketch:type="MSShapeGroup"></path>
        </g>
    </g>
</svg>