<?xml version="1.0" encoding="UTF-8" standalone="no"?>
<svg width="54px" height="56px" viewBox="0 0 54 56" version="1.1" xmlns="http://www.w3.org/2000/svg" xmlns:xlink="http://www.w3.org/1999/xlink" xmlns:sketch="http://www.bohemiancoding.com/sketch/ns">
    <!-- Generator: Sketch 3.2.2 (9983) - http://www.bohemiancoding.com/sketch -->
    <title>195 - Favorite To Do List (Flat)</title>
    <desc>Created with Sketch.</desc>
    <defs></defs>
    <g id="Page-1" stroke="none" stroke-width="1" fill="none" fill-rule="evenodd" sketch:type="MSPage">
        <g id="195---Favorite-To-Do-List-(Flat)" sketch:type="MSLayerGroup">
            <path d="M43.636,52 L8.364,52 C3.745,52 0,48.255 0,43.636 L0,8.364 C0,3.745 3.745,0 8.364,0 L43.636,0 C48.255,0 52,3.745 52,8.364 L52,43.636 C52,48.255 48.255,52 43.636,52" id="Fill-1751" fill="#3ABCA7" sketch:type="MSShapeGroup"></path>
            <path d="M26,13 L44,13 M26,27 L44,27 M26,41 L44,41 M18.929,8 L12.071,16 L7.5,12.571 M18.929,22 L12.071,30 L7.5,26.572 M18.929,37 L12.071,45 L7.5,41.571" id="Stroke-1752" stroke="#FFFFFF" stroke-width="2" stroke-linecap="round" stroke-linejoin="round" sketch:type="MSShapeGroup"></path>
            <path d="M42,34 L45.708,41.242 L54,42.404 L48,48.041 L49.416,56 L42,52.243 L34.584,56 L36,48.041 L30,42.404 L38.292,41.242 L42,34" id="Fill-1925" fill="#F4D65A" sketch:type="MSShapeGroup"></path>
        </g>
    </g>
</svg>