<?xml version="1.0" encoding="UTF-8" standalone="no"?>
<svg width="56px" height="58px" viewBox="0 0 56 58" version="1.1" xmlns="http://www.w3.org/2000/svg" xmlns:xlink="http://www.w3.org/1999/xlink" xmlns:sketch="http://www.bohemiancoding.com/sketch/ns">
    <!-- Generator: Sketch 3.2.2 (9983) - http://www.bohemiancoding.com/sketch -->
    <title>495 - Favorite Notes (Flat)</title>
    <desc>Created with Sketch.</desc>
    <defs></defs>
    <g id="Page-1" stroke="none" stroke-width="1" fill="none" fill-rule="evenodd" sketch:type="MSPage">
        <g id="495---Favorite-Notes-(Flat)" sketch:type="MSLayerGroup">
            <path d="M0,0 L44,0 L44,58 L0,58 L0,0 Z" id="Fill-1486" fill="#CCB292" sketch:type="MSShapeGroup"></path>
            <path d="M0,0 L8,0 L8,58 L0,58 L0,0 Z" id="Fill-1487" fill="#7F6E5D" sketch:type="MSShapeGroup"></path>
            <path d="M15,10 L37,10 L37,22 L15,22 L15,10 Z" id="Fill-1488" fill="#EFECDE" sketch:type="MSShapeGroup"></path>
            <path d="M19,13 L33,13 L33,15 L19,15 L19,13 Z" id="Fill-1489" fill="#D5D0BB" sketch:type="MSShapeGroup"></path>
            <path d="M19,17 L33,17 L33,19 L19,19 L19,17 Z" id="Fill-1490" fill="#D5D0BB" sketch:type="MSShapeGroup"></path>
            <path d="M44,36 L47.708,43.242 L56,44.403 L50,50.041 L51.416,58 L44,54.242 L36.584,58 L38,50.041 L32,44.403 L40.292,43.242 L44,36" id="Fill-2033" fill="#F4D65A" sketch:type="MSShapeGroup"></path>
        </g>
    </g>
</svg>