<?xml version="1.0" encoding="UTF-8" standalone="no"?>
<svg width="57px" height="58px" viewBox="0 0 57 58" version="1.1" xmlns="http://www.w3.org/2000/svg" xmlns:xlink="http://www.w3.org/1999/xlink" xmlns:sketch="http://www.bohemiancoding.com/sketch/ns">
    <!-- Generator: Sketch 3.2.2 (9983) - http://www.bohemiancoding.com/sketch -->
    <title>551 - File Settings (Flat)</title>
    <desc>Created with Sketch.</desc>
    <defs></defs>
    <g id="Page-1" stroke="none" stroke-width="1" fill="none" fill-rule="evenodd" sketch:type="MSPage">
        <g id="551---File-Settings-(Flat)" sketch:type="MSLayerGroup">
            <path d="M45,14 L31,0 L0,0 L0,58 L45,58 L45,14" id="Fill-1711" fill="#EFECDE" sketch:type="MSShapeGroup"></path>
            <path d="M10,23 L35,23 C35.552,23 36,22.553 36,22 C36,21.448 35.552,21 35,21 L10,21 C9.448,21 9,21.448 9,22 C9,22.553 9.448,23 10,23" id="Fill-1712" fill="#D5D0BB" sketch:type="MSShapeGroup"></path>
            <path d="M10,15 L20,15 C20.552,15 21,14.553 21,14 C21,13.448 20.552,13 20,13 L10,13 C9.448,13 9,13.448 9,14 C9,14.553 9.448,15 10,15" id="Fill-1713" fill="#D5D0BB" sketch:type="MSShapeGroup"></path>
            <path d="M35,29 L10,29 C9.448,29 9,29.447 9,30 C9,30.553 9.448,31 10,31 L35,31 C35.552,31 36,30.553 36,30 C36,29.447 35.552,29 35,29" id="Fill-1714" fill="#D5D0BB" sketch:type="MSShapeGroup"></path>
            <path d="M35,37 L10,37 C9.448,37 9,37.448 9,38 C9,38.553 9.448,39 10,39 L35,39 C35.552,39 36,38.553 36,38 C36,37.448 35.552,37 35,37" id="Fill-1715" fill="#D5D0BB" sketch:type="MSShapeGroup"></path>
            <path d="M35,45 L10,45 C9.448,45 9,45.448 9,46 C9,46.553 9.448,47 10,47 L35,47 C35.552,47 36,46.553 36,46 C36,45.448 35.552,45 35,45" id="Fill-1716" fill="#D5D0BB" sketch:type="MSShapeGroup"></path>
            <path d="M31,0 L31,14 L45,14 L31,0" id="Fill-1717" fill="#D5D0BB" sketch:type="MSShapeGroup"></path>
            <path d="M57,44.846 L55.556,44.569 C53.414,44.157 52.431,41.653 53.721,39.893 L54.627,38.657 L52.669,36.699 L51.452,37.523 C49.646,38.748 47.18,37.672 46.849,35.515 L46.615,34 L43.846,34 L43.488,35.865 C43.084,37.96 40.67,38.961 38.903,37.764 L37.331,36.699 L35.373,38.657 L36.279,39.893 C37.569,41.653 36.587,44.157 34.444,44.569 L33,44.846 L33,47.616 L34.515,47.849 C36.672,48.181 37.747,50.646 36.523,52.452 L35.699,53.669 L37.657,55.628 L38.893,54.721 C40.653,53.431 43.156,54.414 43.568,56.556 L43.846,58 L46.615,58 L46.779,56.935 C47.119,54.73 49.675,53.671 51.474,54.99 L52.343,55.628 L54.301,53.669 L53.477,52.452 C52.253,50.646 53.328,48.181 55.485,47.849 L57,47.616 L57,44.846" id="Fill-1787" fill="#556080" sketch:type="MSShapeGroup"></path>
            <path d="M49,46 C49,48.209 47.209,50 45,50 C42.791,50 41,48.209 41,46 C41,43.791 42.791,42 45,42 C47.209,42 49,43.791 49,46 L49,46 Z" id="Fill-1788" fill="#FFFFFF" sketch:type="MSShapeGroup"></path>
            <path d="M49,46 C49,48.209 47.209,50 45,50 C42.791,50 41,48.209 41,46 C41,43.791 42.791,42 45,42 C47.209,42 49,43.791 49,46 L49,46 Z" id="Stroke-1789" stroke="#EDF0F1" stroke-width="2" sketch:type="MSShapeGroup"></path>
        </g>
    </g>
</svg>