<?xml version="1.0" encoding="UTF-8" standalone="no"?>
<svg width="59px" height="52px" viewBox="0 0 59 52" version="1.1" xmlns="http://www.w3.org/2000/svg" xmlns:xlink="http://www.w3.org/1999/xlink" xmlns:sketch="http://www.bohemiancoding.com/sketch/ns">
    <!-- Generator: Sketch 3.2.2 (9983) - http://www.bohemiancoding.com/sketch -->
    <title>176 - Folder Warning (Flat)</title>
    <desc>Created with Sketch.</desc>
    <defs></defs>
    <g id="Page-1" stroke="none" stroke-width="1" fill="none" fill-rule="evenodd" sketch:type="MSPage">
        <g id="176---Folder-Warning-(Flat)" sketch:type="MSLayerGroup">
            <path d="M25,7 L20,0 L0,0 L0,51 L58,51 L58,14 L30,14 L25,7" id="Fill-1709" fill="#556080" sketch:type="MSShapeGroup"></path>
            <path d="M30,14 L58,14 L58,7 L25,7 L30,14" id="Fill-1710" fill="#3D4451" sketch:type="MSShapeGroup"></path>
            <path d="M57.15,52 L33.459,52 C32.504,52 31.909,50.964 32.391,50.139 L44.236,29.833 C44.713,29.014 45.896,29.014 46.374,29.833 L58.219,50.139 C58.701,50.964 58.105,52 57.15,52" id="Fill-1870" fill="#F0C41A" sketch:type="MSShapeGroup"></path>
            <path d="M45.39,45 C44.837,45 44.39,44.552 44.39,44 L44.39,36 C44.39,35.448 44.837,35 45.39,35 C45.942,35 46.39,35.448 46.39,36 L46.39,44 C46.39,44.552 45.942,45 45.39,45" id="Fill-1871" fill="#FFFFFF" sketch:type="MSShapeGroup"></path>
            <path d="M45.39,49 C45.129,49 44.87,48.89 44.68,48.71 C44.5,48.52 44.39,48.26 44.39,48 C44.39,47.74 44.5,47.48 44.68,47.29 C45.06,46.92 45.719,46.92 46.1,47.29 C46.279,47.48 46.39,47.74 46.39,48 C46.39,48.26 46.279,48.52 46.1,48.71 C45.91,48.89 45.66,49 45.39,49" id="Fill-1872" fill="#FFFFFF" sketch:type="MSShapeGroup"></path>
        </g>
    </g>
</svg>