<?xml version="1.0" encoding="UTF-8" standalone="no"?>
<svg width="60px" height="51px" viewBox="0 0 60 51" version="1.1" xmlns="http://www.w3.org/2000/svg" xmlns:xlink="http://www.w3.org/1999/xlink" xmlns:sketch="http://www.bohemiancoding.com/sketch/ns">
    <!-- Generator: Sketch 3.2.2 (9983) - http://www.bohemiancoding.com/sketch -->
    <title>393 - Group (Flat)</title>
    <desc>Created with Sketch.</desc>
    <defs></defs>
    <g id="Page-1" stroke="none" stroke-width="1" fill="none" fill-rule="evenodd" sketch:type="MSPage">
        <g id="393---Group-(Flat)" sketch:type="MSLayerGroup" transform="translate(1.000000, 1.000000)">
            <path d="M49.004,16 C48.889,7.301 41.811,0 33.085,0 C27.525,0 22.306,3.006 19.424,7.336 C18.157,6.494 16.636,6 15,6 C10.582,6 7,9.582 7,14 C7,14.153 7.014,14.303 7.023,14.454 C7.013,14.637 7,14.821 7,15 C3.011,16.912 0,21.457 0,26.155 C0,32.67 5.33,38 11.845,38 L36.352,38 C36.49,38 36.624,37.984 36.761,37.979 C36.897,37.985 37.031,38 37.169,38 L46.972,38 C53.037,38 58,33.038 58,26.972 C58,21.601 54.106,16.962 49.004,16 L49.004,16 Z" id="Fill-417" fill="#91BAE1" sketch:type="MSShapeGroup"></path>
            <path d="M49.004,16 C48.889,7.301 41.811,0 33.085,0 C27.525,0 22.306,3.006 19.424,7.336 C18.157,6.494 16.636,6 15,6 C10.582,6 7,9.582 7,14 C7,14.153 7.014,14.303 7.023,14.454 C7.013,14.637 7,14.821 7,15 C3.011,16.912 0,21.457 0,26.155 C0,32.67 5.33,38 11.845,38 L36.352,38 C36.49,38 36.624,37.984 36.761,37.979 C36.897,37.985 37.031,38 37.169,38 L46.972,38 C53.037,38 58,33.038 58,26.972 C58,21.601 54.106,16.962 49.004,16 L49.004,16 Z" id="Stroke-418" stroke="#8697CB" stroke-width="2" stroke-linecap="round" sketch:type="MSShapeGroup"></path>
            <path d="M49.004,16 C49.004,16 46.469,15.625 44,16" id="Fill-419" fill="#91BAE1" sketch:type="MSShapeGroup"></path>
            <path d="M49.004,16 C49.004,16 46.469,15.625 44,16" id="Stroke-420" stroke="#8697CB" stroke-width="2" stroke-linecap="round" sketch:type="MSShapeGroup"></path>
            <path d="M7,14 C7,9.582 10.582,6 15,6 C19.418,6 23,9.582 23,14" id="Fill-421" fill="#91BAE1" sketch:type="MSShapeGroup"></path>
            <path d="M7,14 C7,9.582 10.582,6 15,6 C19.418,6 23,9.582 23,14" id="Stroke-422" stroke="#8697CB" stroke-width="2" stroke-linecap="round" sketch:type="MSShapeGroup"></path>
            <path d="M41,38 C41,44.628 35.627,50 29,50 C22.373,50 17,44.628 17,38 C17,31.373 22.373,26 29,26 C35.627,26 41,31.373 41,38" id="Fill-1820" fill="#4AA0D8" sketch:type="MSShapeGroup"></path>
            <path d="M28.29,44.29 C28.109,44.479 28,44.73 28,45 C28,45.26 28.109,45.52 28.29,45.71 C28.479,45.89 28.74,46 29,46 C29.26,46 29.519,45.9 29.71,45.7 C29.89,45.52 30,45.26 30,45 C30,44.74 29.89,44.479 29.71,44.29 C29.34,43.92 28.649,43.93 28.29,44.29" id="Fill-1822" fill="#FFFFFF" sketch:type="MSShapeGroup"></path>
            <path d="M34,35 C34,32.243 31.757,30 29,30 L28,30 C25.794,30 24,31.794 24,34 C24,34.553 24.447,35 25,35 C25.553,35 26,34.553 26,34 C26,32.898 26.898,32 28,32 L29,32 C30.654,32 32,33.346 32,35 C32,36.655 30.654,38 29,38 C28.447,38 28,38.448 28,39 L28,41 C28,41.553 28.447,42 29,42 C29.553,42 30,41.553 30,41 L30,39.899 C32.279,39.434 34,37.415 34,35" id="Fill-1823" fill="#FFFFFF" sketch:type="MSShapeGroup"></path>
        </g>
    </g>
</svg>