<?xml version="1.0" encoding="UTF-8" standalone="no"?>
<svg width="59px" height="57px" viewBox="0 0 59 57" version="1.1" xmlns="http://www.w3.org/2000/svg" xmlns:xlink="http://www.w3.org/1999/xlink" xmlns:sketch="http://www.bohemiancoding.com/sketch/ns">
    <!-- Generator: Sketch 3.2.2 (9983) - http://www.bohemiancoding.com/sketch -->
    <title>410 - Hide Album (Flat)</title>
    <desc>Created with Sketch.</desc>
    <defs></defs>
    <g id="Page-1" stroke="none" stroke-width="1" fill="none" fill-rule="evenodd" sketch:type="MSPage">
        <g id="410---Hide-Album-(Flat)" sketch:type="MSLayerGroup">
            <path d="M0,47 L56,47 L56,0 L0,0 L0,47 Z" id="Fill-1201" fill="#E04D60" sketch:type="MSShapeGroup"></path>
            <path d="M39.659,9.248 C39.443,9.058 39.153,8.971 38.87,9.009 L20.87,11.376 C20.372,11.441 20,11.865 20,12.367 L20,31.802 C18.831,30.783 17.246,30.153 15.5,30.153 C11.916,30.153 9,32.794 9,36.041 C9,39.288 11.916,41.93 15.5,41.93 C19.084,41.93 22,39.288 22,36.041 L22,18.244 L38,16.14 L38,26.542 C36.867,25.576 35.347,24.98 33.673,24.98 C30.185,24.98 27.347,27.552 27.347,30.714 C27.347,33.876 30.185,36.449 33.673,36.449 C37.162,36.449 40,33.876 40,30.714 L40,10 C40,9.712 39.876,9.438 39.659,9.248" id="Fill-1202" fill="#FFFFFF" sketch:type="MSShapeGroup"></path>
            <path d="M57.195,47.157 L57.088,47.321 C49.967,58.197 38.316,58.197 31.195,47.321 L31.302,47.157 C38.422,36.281 50.074,36.281 57.195,47.157" id="Fill-2165" fill="#FFFFFF" sketch:type="MSShapeGroup"></path>
            <path d="M49.868,44.875 C49.868,48.139 47.222,50.784 43.958,50.784 C40.695,50.784 38.049,48.139 38.049,44.875 C38.049,41.611 40.695,38.966 43.958,38.966 C47.222,38.966 49.868,41.611 49.868,44.875" id="Fill-2166" fill="#556080" sketch:type="MSShapeGroup"></path>
            <path d="M44.142,56.478 C38.888,56.478 33.993,53.42 30.358,47.868 L30,47.321 L30.465,46.609 C34.1,41.057 38.995,38 44.249,38 C49.502,38 54.396,41.057 58.031,46.609 L58.39,47.156 L57.925,47.868 C54.29,53.42 49.395,56.478 44.142,56.478 L44.142,56.478 Z M32.398,47.317 C35.604,51.941 39.754,54.478 44.142,54.478 C48.578,54.478 52.772,51.883 55.992,47.161 C52.786,42.537 48.635,40 44.249,40 C39.812,40 35.618,42.594 32.398,47.317 L32.398,47.317 Z" id="Fill-2167" fill="#B1D3F0" sketch:type="MSShapeGroup"></path>
        </g>
    </g>
</svg>