<?xml version="1.0" encoding="UTF-8" standalone="no"?>
<svg width="58px" height="59px" viewBox="0 0 58 59" version="1.1" xmlns="http://www.w3.org/2000/svg" xmlns:xlink="http://www.w3.org/1999/xlink" xmlns:sketch="http://www.bohemiancoding.com/sketch/ns">
    <!-- Generator: Sketch 3.2.2 (9983) - http://www.bohemiancoding.com/sketch -->
    <title>130 - Hide Archive (Flat)</title>
    <desc>Created with Sketch.</desc>
    <defs></defs>
    <g id="Page-1" stroke="none" stroke-width="1" fill="none" fill-rule="evenodd" sketch:type="MSPage">
        <g id="130---Hide-Archive-(Flat)" sketch:type="MSLayerGroup">
            <path d="M50.168,58 L1.832,58 C0.82,58 0,57.18 0,56.168 L0,1.833 C0,0.821 0.82,0 1.832,0 L50.168,0 C51.18,0 52,0.821 52,1.833 L52,56.168 C52,57.18 51.18,58 50.168,58" id="Fill-1661" fill="#545E73" sketch:type="MSShapeGroup"></path>
            <path d="M31.495,17 L20.505,17 C18.572,17 17,15.428 17,13.495 L17,12 C17,11.448 17.447,11 18,11 C18.553,11 19,11.448 19,12 L19,13.495 C19,14.325 19.675,15 20.505,15 L31.495,15 C32.325,15 33,14.325 33,13.495 L33,12 C33,11.448 33.447,11 34,11 C34.553,11 35,11.448 35,12 L35,13.495 C35,15.428 33.428,17 31.495,17" id="Fill-1662" fill="#EDF0F1" sketch:type="MSShapeGroup"></path>
            <path d="M31.495,46 L20.505,46 C18.572,46 17,44.428 17,42.495 L17,41 C17,40.447 17.447,40 18,40 C18.553,40 19,40.447 19,41 L19,42.495 C19,43.325 19.675,44 20.505,44 L31.495,44 C32.325,44 33,43.325 33,42.495 L33,41 C33,40.447 33.447,40 34,40 C34.553,40 35,40.447 35,41 L35,42.495 C35,44.428 33.428,46 31.495,46" id="Fill-1663" fill="#EDF0F1" sketch:type="MSShapeGroup"></path>
            <path d="M0,28 L52,28 L52,30 L0,30 L0,28 Z" id="Fill-1664" fill="#394050" sketch:type="MSShapeGroup"></path>
            <path d="M56.805,49.679 L56.698,49.843 C49.578,60.719 37.926,60.719 30.805,49.843 L30.912,49.679 C38.033,38.803 49.685,38.803 56.805,49.679" id="Fill-2317" fill="#FFFFFF" sketch:type="MSShapeGroup"></path>
            <path d="M49.478,47.397 C49.478,50.661 46.832,53.307 43.569,53.307 C40.305,53.307 37.66,50.661 37.66,47.397 C37.66,44.134 40.305,41.488 43.569,41.488 C46.832,41.488 49.478,44.134 49.478,47.397" id="Fill-2318" fill="#556080" sketch:type="MSShapeGroup"></path>
            <path d="M43.752,59 C38.498,59 33.604,55.943 29.969,50.391 L29.61,49.843 L30.075,49.132 C33.71,43.58 38.605,40.523 43.859,40.523 C49.112,40.523 54.007,43.58 57.642,49.131 L58,49.679 L57.535,50.39 C53.9,55.943 49.005,59 43.752,59 L43.752,59 Z M32.008,49.839 C35.214,54.463 39.365,57 43.752,57 C48.188,57 52.382,54.406 55.602,49.683 C52.396,45.059 48.246,42.522 43.859,42.522 C39.422,42.522 35.228,45.116 32.008,49.839 L32.008,49.839 Z" id="Fill-2319" fill="#B1D3F0" sketch:type="MSShapeGroup"></path>
        </g>
    </g>
</svg>