<?xml version="1.0" encoding="UTF-8" standalone="no"?>
<svg width="43px" height="54px" viewBox="0 0 43 54" version="1.1" xmlns="http://www.w3.org/2000/svg" xmlns:xlink="http://www.w3.org/1999/xlink" xmlns:sketch="http://www.bohemiancoding.com/sketch/ns">
    <!-- Generator: Sketch 3.2.2 (9983) - http://www.bohemiancoding.com/sketch -->
    <title>510 - Hide Location (Flat)</title>
    <desc>Created with Sketch.</desc>
    <defs></defs>
    <g id="Page-1" stroke="none" stroke-width="1" fill="none" fill-rule="evenodd" sketch:type="MSPage">
        <g id="510---Hide-Location-(Flat)" sketch:type="MSLayerGroup">
            <path d="M31.676,5.324 L31.676,5.324 C24.578,-1.774 13.069,-1.774 5.97,5.324 C-0.426,11.72 -1.145,23.764 4.282,31 L18.823,52 L33.365,31 C38.792,23.764 38.072,11.72 31.676,5.324 L31.676,5.324 Z M19,24 C15.686,24 13,21.314 13,18 C13,14.687 15.686,12 19,12 C22.314,12 25,14.687 25,18 C25,21.314 22.314,24 19,24 L19,24 Z" id="Fill-1580" fill="#3192D0" sketch:type="MSShapeGroup"></path>
            <path d="M41.195,44.68 L41.088,44.843 C33.967,55.719 22.316,55.719 15.195,44.843 L15.302,44.68 C22.422,33.803 34.074,33.803 41.195,44.68" id="Fill-1943" fill="#FFFFFF" sketch:type="MSShapeGroup"></path>
            <path d="M33.868,42.397 C33.868,45.661 31.222,48.307 27.958,48.307 C24.695,48.307 22.049,45.661 22.049,42.397 C22.049,39.134 24.695,36.488 27.958,36.488 C31.222,36.488 33.868,39.134 33.868,42.397" id="Fill-1944" fill="#556080" sketch:type="MSShapeGroup"></path>
            <path d="M28.142,54 C22.888,54 17.993,50.942 14.358,45.391 L14,44.843 L14.465,44.132 C18.1,38.58 22.995,35.523 28.249,35.523 C33.502,35.523 38.397,38.58 42.031,44.131 L42.39,44.679 L41.925,45.39 C38.29,50.942 33.395,54 28.142,54 L28.142,54 Z M16.398,44.839 C19.604,49.463 23.754,52 28.142,52 C32.578,52 36.772,49.406 39.992,44.683 C36.786,40.059 32.635,37.523 28.249,37.523 C23.812,37.523 19.618,40.116 16.398,44.839 L16.398,44.839 Z" id="Fill-1945" fill="#8697CB" sketch:type="MSShapeGroup"></path>
        </g>
    </g>
</svg>