<?xml version="1.0" encoding="UTF-8" standalone="no"?>
<svg width="58px" height="54px" viewBox="0 0 58 54" version="1.1" xmlns="http://www.w3.org/2000/svg" xmlns:xlink="http://www.w3.org/1999/xlink" xmlns:sketch="http://www.bohemiancoding.com/sketch/ns">
    <!-- Generator: Sketch 3.2.2 (9983) - http://www.bohemiancoding.com/sketch -->
    <title>230 - Hide Window (Flat)</title>
    <desc>Created with Sketch.</desc>
    <defs></defs>
    <g id="Page-1" stroke="none" stroke-width="1" fill="none" fill-rule="evenodd" sketch:type="MSPage">
        <g id="230---Hide-Window-(Flat)" sketch:type="MSLayerGroup">
            <path d="M0,14 L50,14 L50,49 L0,49 L0,14 Z" id="Fill-865" fill="#EDF0F1" sketch:type="MSShapeGroup"></path>
            <path d="M0,0 L50,0 L50,14 L0,14 L0,0 Z" id="Fill-866" fill="#546A79" sketch:type="MSShapeGroup"></path>
            <path d="M10,7 C10,8.657 8.657,10 7,10 C5.343,10 4,8.657 4,7 C4,5.343 5.343,4 7,4 C8.657,4 10,5.343 10,7" id="Fill-867" fill="#ED7061" sketch:type="MSShapeGroup"></path>
            <path d="M19,7 C19,8.657 17.657,10 16,10 C14.343,10 13,8.657 13,7 C13,5.343 14.343,4 16,4 C17.657,4 19,5.343 19,7" id="Fill-868" fill="#F0C41A" sketch:type="MSShapeGroup"></path>
            <path d="M28,7 C28,8.657 26.657,10 25,10 C23.343,10 22,8.657 22,7 C22,5.343 23.343,4 25,4 C26.657,4 28,5.343 28,7" id="Fill-869" fill="#4FBA6E" sketch:type="MSShapeGroup"></path>
            <path d="M56.195,44.157 L56.088,44.32 C48.967,55.196 37.316,55.196 30.195,44.32 L30.302,44.157 C37.422,33.281 49.074,33.281 56.195,44.157" id="Fill-2477" fill="#FFFFFF" sketch:type="MSShapeGroup"></path>
            <path d="M48.868,41.875 C48.868,45.138 46.222,47.784 42.959,47.784 C39.695,47.784 37.049,45.138 37.049,41.875 C37.049,38.611 39.695,35.966 42.959,35.966 C46.222,35.966 48.868,38.611 48.868,41.875" id="Fill-2478" fill="#556080" sketch:type="MSShapeGroup"></path>
            <path d="M43.142,53.478 C37.888,53.478 32.993,50.42 29.358,44.868 L29,44.321 L29.465,43.61 C33.1,38.057 37.995,35 43.249,35 C48.502,35 53.397,38.057 57.031,43.609 L57.39,44.156 L56.925,44.868 C53.29,50.42 48.395,53.478 43.142,53.478 L43.142,53.478 Z M31.398,44.317 C34.604,48.941 38.754,51.478 43.142,51.478 C47.578,51.478 51.771,48.884 54.992,44.161 C51.786,39.537 47.635,37 43.249,37 C38.812,37 34.618,39.594 31.398,44.317 L31.398,44.317 Z" id="Fill-2479" fill="#B1D3F0" sketch:type="MSShapeGroup"></path>
        </g>
    </g>
</svg>