<?xml version="1.0" encoding="UTF-8" standalone="no"?>
<svg width="55px" height="56px" viewBox="0 0 55 56" version="1.1" xmlns="http://www.w3.org/2000/svg" xmlns:xlink="http://www.w3.org/1999/xlink" xmlns:sketch="http://www.bohemiancoding.com/sketch/ns">
    <!-- Generator: Sketch 3.2.2 (9983) - http://www.bohemiancoding.com/sketch -->
    <title>110 - Hide Database (Flat)</title>
    <desc>Created with Sketch.</desc>
    <defs></defs>
    <g id="Page-1" stroke="none" stroke-width="1" fill="none" fill-rule="evenodd" sketch:type="MSPage">
        <g id="110---Hide-Database-(Flat)" sketch:type="MSLayerGroup">
            <path d="M48.789,8 L48.789,8 C48.057,3.538 37.614,0 24.833,0 C12.053,0 1.609,3.538 0.878,8 L0.833,8 L0.833,45 L0.878,45 C1.609,49.462 12.053,53 24.833,53 C37.614,53 48.057,49.462 48.789,45 L48.833,45 L48.833,8 L48.789,8" id="Fill-1511" fill="#545E73" sketch:type="MSShapeGroup"></path>
            <path d="M24.833,41 C11.578,41 0.833,37.195 0.833,32.5 L0.833,45 L0.878,45 C1.609,49.462 12.053,53 24.833,53 C37.614,53 48.057,49.462 48.789,45 L48.833,45 L48.833,32.5 C48.833,37.195 38.088,41 24.833,41" id="Fill-1512" fill="#38454F" sketch:type="MSShapeGroup"></path>
            <path d="M0.833,32 L0.833,32.5 C0.833,32.332 0.851,32.166 0.878,32 L0.833,32" id="Fill-1513" fill="#38454F" sketch:type="MSShapeGroup"></path>
            <path d="M48.789,32 C48.816,32.166 48.833,32.332 48.833,32.5 L48.833,32 L48.789,32" id="Fill-1514" fill="#38454F" sketch:type="MSShapeGroup"></path>
            <path d="M24.833,29 C11.578,29 0.833,25.195 0.833,20.5 L0.833,33 L0.878,33 C1.609,37.462 12.053,41 24.833,41 C37.614,41 48.057,37.462 48.789,33 L48.833,33 L48.833,20.5 C48.833,25.195 38.088,29 24.833,29" id="Fill-1515" fill="#556080" sketch:type="MSShapeGroup"></path>
            <path d="M0.833,20 L0.833,20.5 C0.833,20.332 0.851,20.166 0.878,20 L0.833,20" id="Fill-1516" fill="#556080" sketch:type="MSShapeGroup"></path>
            <path d="M48.789,20 C48.816,20.166 48.833,20.332 48.833,20.5 L48.833,20 L48.789,20" id="Fill-1517" fill="#556080" sketch:type="MSShapeGroup"></path>
            <path d="M48.833,8.5 C48.833,13.195 38.088,17 24.833,17 C11.578,17 0.833,13.195 0.833,8.5 C0.833,3.806 11.578,0 24.833,0 C38.088,0 48.833,3.806 48.833,8.5" id="Fill-1518" fill="#91BAE1" sketch:type="MSShapeGroup"></path>
            <path d="M24.833,17 C11.578,17 0.833,13.195 0.833,8.5 L0.833,21 L0.878,21 C1.609,25.462 12.053,29 24.833,29 C37.614,29 48.057,25.462 48.789,21 L48.833,21 L48.833,8.5 C48.833,13.195 38.088,17 24.833,17" id="Fill-1519" fill="#8697CB" sketch:type="MSShapeGroup"></path>
            <path d="M0.833,8 L0.833,8.5 C0.833,8.332 0.851,8.166 0.878,8 L0.833,8" id="Fill-1520" fill="#8697CB" sketch:type="MSShapeGroup"></path>
            <path d="M48.789,8 C48.816,8.166 48.833,8.332 48.833,8.5 L48.833,8 L48.789,8" id="Fill-1521" fill="#8697CB" sketch:type="MSShapeGroup"></path>
            <path d="M53.805,46.679 L53.698,46.843 C46.578,57.719 34.926,57.719 27.805,46.843 L27.912,46.679 C35.033,35.803 46.685,35.803 53.805,46.679" id="Fill-2005" fill="#FFFFFF" sketch:type="MSShapeGroup"></path>
            <path d="M46.478,44.397 C46.478,47.661 43.832,50.307 40.569,50.307 C37.305,50.307 34.66,47.661 34.66,44.397 C34.66,41.134 37.305,38.488 40.569,38.488 C43.832,38.488 46.478,41.134 46.478,44.397" id="Fill-2006" fill="#556080" sketch:type="MSShapeGroup"></path>
            <path d="M40.752,56 C35.498,56 30.604,52.943 26.969,47.391 L26.61,46.843 L27.075,46.132 C30.71,40.58 35.605,37.523 40.859,37.523 C46.112,37.523 51.007,40.58 54.642,46.131 L55,46.679 L54.535,47.39 C50.9,52.943 46.005,56 40.752,56 L40.752,56 Z M29.008,46.839 C32.214,51.463 36.365,54 40.752,54 C45.188,54 49.382,51.406 52.602,46.683 C49.396,42.059 45.246,39.522 40.859,39.522 C36.422,39.522 32.228,42.116 29.008,46.839 L29.008,46.839 Z" id="Fill-2007" fill="#B1D3F0" sketch:type="MSShapeGroup"></path>
        </g>
    </g>
</svg>