<?xml version="1.0" encoding="UTF-8" standalone="no"?>
<svg width="58px" height="60px" viewBox="0 0 58 60" version="1.1" xmlns="http://www.w3.org/2000/svg" xmlns:xlink="http://www.w3.org/1999/xlink" xmlns:sketch="http://www.bohemiancoding.com/sketch/ns">
    <!-- Generator: Sketch 3.2.2 (9983) - http://www.bohemiancoding.com/sketch -->
    <title>290 - Hide Calendar (Flat)</title>
    <desc>Created with Sketch.</desc>
    <defs></defs>
    <g id="Page-1" stroke="none" stroke-width="1" fill="none" fill-rule="evenodd" sketch:type="MSPage">
        <g id="290---Hide-Calendar-(Flat)" sketch:type="MSLayerGroup">
            <path d="M0,13 L56,13 L56,52 L0,52 L0,13 Z" id="Fill-1035" fill="#EDF0F1" sketch:type="MSShapeGroup"></path>
            <path d="M41,0 L0,0 L0,13 L56,13 L56,0 L41,0" id="Fill-1036" fill="#21AE5E" sketch:type="MSShapeGroup"></path>
            <path d="M18,46 C17.448,46 17,45.553 17,45 L17,19 C17,18.448 17.448,18 18,18 C18.552,18 19,18.448 19,19 L19,45 C19,45.553 18.552,46 18,46" id="Fill-1037" fill="#556080" sketch:type="MSShapeGroup"></path>
            <path d="M12,26 C11.744,26 11.488,25.902 11.293,25.707 C10.902,25.317 10.902,24.684 11.293,24.293 L17.293,18.293 C17.684,17.903 18.316,17.903 18.707,18.293 C19.098,18.684 19.098,19.317 18.707,19.707 L12.707,25.707 C12.512,25.902 12.256,26 12,26" id="Fill-1038" fill="#556080" sketch:type="MSShapeGroup"></path>
            <path d="M37,32 C33.14,32 30,28.86 30,25 C30,21.141 33.14,18 37,18 C40.86,18 44,21.141 44,25 C44,28.86 40.86,32 37,32 L37,32 Z M37,20 C34.243,20 32,22.243 32,25 C32,27.757 34.243,30 37,30 C39.757,30 42,27.757 42,25 C42,22.243 39.757,20 37,20 L37,20 Z" id="Fill-1039" fill="#556080" sketch:type="MSShapeGroup"></path>
            <path d="M37,46 C33.14,46 30,42.859 30,39 C30,38.447 30.448,38 31,38 C31.552,38 32,38.447 32,39 C32,41.757 34.243,44 37,44 C39.757,44 42,41.757 42,39 L42,25 C42,24.448 42.448,24 43,24 C43.552,24 44,24.448 44,25 L44,39 C44,42.859 40.86,46 37,46" id="Fill-1040" fill="#556080" sketch:type="MSShapeGroup"></path>
            <path d="M56.195,50.157 L56.088,50.32 C48.967,61.197 37.316,61.197 30.195,50.32 L30.302,50.157 C37.422,39.281 49.074,39.281 56.195,50.157" id="Fill-2373" fill="#FFFFFF" sketch:type="MSShapeGroup"></path>
            <path d="M48.868,47.875 C48.868,51.139 46.222,53.784 42.958,53.784 C39.695,53.784 37.049,51.139 37.049,47.875 C37.049,44.611 39.695,41.966 42.958,41.966 C46.222,41.966 48.868,44.611 48.868,47.875" id="Fill-2374" fill="#556080" sketch:type="MSShapeGroup"></path>
            <path d="M43.142,59.478 C37.888,59.478 32.993,56.42 29.358,50.868 L29,50.321 L29.465,49.609 C33.1,44.057 37.995,41 43.249,41 C48.502,41 53.396,44.057 57.031,49.609 L57.39,50.156 L56.925,50.868 C53.29,56.42 48.395,59.478 43.142,59.478 L43.142,59.478 Z M31.398,50.317 C34.604,54.941 38.754,57.478 43.142,57.478 C47.578,57.478 51.772,54.883 54.992,50.161 C51.786,45.537 47.635,43 43.249,43 C38.812,43 34.618,45.594 31.398,50.317 L31.398,50.317 Z" id="Fill-2375" fill="#B1D3F0" sketch:type="MSShapeGroup"></path>
        </g>
    </g>
</svg>