<?xml version="1.0" encoding="UTF-8" standalone="no"?>
<svg width="58px" height="58px" viewBox="0 0 58 58" version="1.1" xmlns="http://www.w3.org/2000/svg" xmlns:xlink="http://www.w3.org/1999/xlink" xmlns:sketch="http://www.bohemiancoding.com/sketch/ns">
    <!-- Generator: Sketch 3.2.2 (9983) - http://www.bohemiancoding.com/sketch -->
    <title>10 - Hide Clock (Flat)</title>
    <desc>Created with Sketch.</desc>
    <defs></defs>
    <g id="Page-1" stroke="none" stroke-width="1" fill="none" fill-rule="evenodd" sketch:type="MSPage">
        <g id="10---Hide-Clock-(Flat)" sketch:type="MSLayerGroup">
            <path d="M58,29 C58,45.016 45.016,58 29,58 C12.984,58 0,45.016 0,29 C0,12.984 12.984,0 29,0 C45.016,0 58,12.984 58,29" id="Fill-479" fill="#EDF0F1" sketch:type="MSShapeGroup"></path>
            <path d="M29,4 C42.785,4 54,15.215 54,29 C54,42.785 42.785,54 29,54 C15.215,54 4,42.785 4,29 C4,15.215 15.215,4 29,4 M29,0 C12.984,0 0,12.984 0,29 C0,45.017 12.984,58 29,58 C45.016,58 58,45.017 58,29 C58,12.984 45.016,0 29,0" id="Fill-480" fill="#545E73" sketch:type="MSShapeGroup"></path>
            <path d="M29,5.879 C28.448,5.879 28,6.326 28,6.879 L28,7.879 C28,8.432 28.448,8.879 29,8.879 C29.552,8.879 30,8.432 30,7.879 L30,6.879 C30,6.326 29.552,5.879 29,5.879" id="Fill-481" fill="#8697CB" sketch:type="MSShapeGroup"></path>
            <path d="M29,48.879 C28.448,48.879 28,49.326 28,49.879 L28,50.879 C28,51.432 28.448,51.879 29,51.879 C29.552,51.879 30,51.432 30,50.879 L30,49.879 C30,49.326 29.552,48.879 29,48.879" id="Fill-482" fill="#8697CB" sketch:type="MSShapeGroup"></path>
            <path d="M51,27.879 L50,27.879 C49.448,27.879 49,28.326 49,28.879 C49,29.432 49.448,29.879 50,29.879 L51,29.879 C51.552,29.879 52,29.432 52,28.879 C52,28.326 51.552,27.879 51,27.879" id="Fill-483" fill="#8697CB" sketch:type="MSShapeGroup"></path>
            <path d="M8,27.879 L7,27.879 C6.448,27.879 6,28.326 6,28.879 C6,29.432 6.448,29.879 7,29.879 L8,29.879 C8.552,29.879 9,29.432 9,28.879 C9,28.326 8.552,27.879 8,27.879" id="Fill-484" fill="#8697CB" sketch:type="MSShapeGroup"></path>
            <path d="M43.849,12.615 L43.142,13.322 C42.751,13.713 42.751,14.346 43.142,14.736 C43.337,14.932 43.593,15.029 43.849,15.029 C44.105,15.029 44.361,14.932 44.556,14.736 L45.263,14.03 C45.654,13.639 45.654,13.006 45.263,12.615 C44.873,12.225 44.24,12.225 43.849,12.615" id="Fill-485" fill="#8697CB" sketch:type="MSShapeGroup"></path>
            <path d="M13.444,43.022 L12.737,43.729 C12.346,44.12 12.346,44.752 12.737,45.142 C12.932,45.338 13.188,45.435 13.444,45.435 C13.7,45.435 13.956,45.338 14.151,45.142 L14.858,44.435 C15.249,44.045 15.249,43.412 14.858,43.022 C14.467,42.631 13.835,42.631 13.444,43.022" id="Fill-486" fill="#8697CB" sketch:type="MSShapeGroup"></path>
            <path d="M44.556,43.022 C44.165,42.631 43.533,42.631 43.142,43.022 C42.751,43.412 42.751,44.045 43.142,44.435 L43.849,45.142 C44.044,45.338 44.3,45.435 44.556,45.435 C44.812,45.435 45.068,45.338 45.263,45.142 C45.654,44.752 45.654,44.12 45.263,43.729 L44.556,43.022" id="Fill-487" fill="#8697CB" sketch:type="MSShapeGroup"></path>
            <path d="M14.151,12.615 C13.76,12.225 13.127,12.225 12.737,12.615 C12.346,13.006 12.346,13.639 12.737,14.03 L13.444,14.736 C13.639,14.932 13.895,15.029 14.151,15.029 C14.407,15.029 14.663,14.932 14.858,14.736 C15.249,14.346 15.249,13.713 14.858,13.322 L14.151,12.615" id="Fill-488" fill="#8697CB" sketch:type="MSShapeGroup"></path>
            <path d="M26,28.879 L18,28.879 L26,28.879 Z M29,25.879 L29,14.879 L29,25.879 Z M26,28.879 C26,30.536 27.343,31.879 29,31.879 C30.657,31.879 32,30.536 32,28.879 C32,27.222 30.657,25.879 29,25.879 C27.343,25.879 26,27.222 26,28.879 L26,28.879 Z" id="Stroke-489" stroke="#545E73" stroke-width="2" stroke-linecap="round" stroke-linejoin="round" sketch:type="MSShapeGroup"></path>
            <path d="M56.195,48.679 L56.088,48.843 C48.967,59.719 37.315,59.719 30.195,48.843 L30.302,48.679 C37.422,37.804 49.074,37.804 56.195,48.679" id="Fill-2109" fill="#FFFFFF" sketch:type="MSShapeGroup"></path>
            <path d="M48.868,46.398 C48.868,49.661 46.222,52.307 42.958,52.307 C39.695,52.307 37.049,49.661 37.049,46.398 C37.049,43.134 39.695,40.489 42.958,40.489 C46.222,40.489 48.868,43.134 48.868,46.398" id="Fill-2110" fill="#556080" sketch:type="MSShapeGroup"></path>
            <path d="M43.142,58 C37.888,58 32.993,54.943 29.358,49.391 L29,48.844 L29.465,48.132 C33.1,42.58 37.995,39.522 43.248,39.522 C48.502,39.522 53.396,42.58 57.031,48.132 L57.39,48.679 L56.925,49.39 C53.29,54.943 48.395,58 43.142,58 L43.142,58 Z M31.398,48.839 C34.604,53.463 38.754,56 43.142,56 C47.578,56 51.772,53.406 54.992,48.683 C51.786,44.059 47.635,41.523 43.248,41.523 C38.812,41.523 34.618,44.116 31.398,48.839 L31.398,48.839 Z" id="Fill-2111" fill="#B1D3F0" sketch:type="MSShapeGroup"></path>
        </g>
    </g>
</svg>