<?xml version="1.0" encoding="UTF-8" standalone="no"?>
<svg width="60px" height="54px" viewBox="0 0 60 54" version="1.1" xmlns="http://www.w3.org/2000/svg" xmlns:xlink="http://www.w3.org/1999/xlink" xmlns:sketch="http://www.bohemiancoding.com/sketch/ns">
    <!-- Generator: Sketch 3.2.2 (9983) - http://www.bohemiancoding.com/sketch -->
    <title>430 - Hide Picture (Flat)</title>
    <desc>Created with Sketch.</desc>
    <defs></defs>
    <g id="Page-1" stroke="none" stroke-width="1" fill="none" fill-rule="evenodd" sketch:type="MSPage">
        <g id="430---Hide-Picture-(Flat)" sketch:type="MSLayerGroup" transform="translate(1.000000, 1.000000)">
            <path d="M0,0 L55,0 L55,42 L0,42 L0,0 Z" id="Fill-505" fill="#EDF0F1" sketch:type="MSShapeGroup"></path>
            <path d="M0,0 L55,0 L55,42 L0,42 L0,0 Z" id="Stroke-506" stroke="#545E73" stroke-width="2" sketch:type="MSShapeGroup"></path>
            <path d="M4,4 L51,4 L51,38 L4,38 L4,4 Z" id="Fill-507" fill="#545E73" sketch:type="MSShapeGroup"></path>
            <path d="M4,4 L51,4 L51,38 L4,38 L4,4 Z" id="Stroke-508" stroke="#EDF0F1" stroke-width="2" sketch:type="MSShapeGroup"></path>
            <path d="M18.569,12.569 C18.569,15.093 16.523,17.138 14,17.138 C11.477,17.138 9.431,15.093 9.431,12.569 C9.431,10.046 11.477,8 14,8 C16.523,8 18.569,10.046 18.569,12.569" id="Fill-509" fill="#F4D65A" sketch:type="MSShapeGroup"></path>
            <path d="M50,28.111 L49,27 L37,16 L26.5,27.5 L36,37 L50,37 L50,28.111" id="Fill-510" fill="#11A085" sketch:type="MSShapeGroup"></path>
            <path d="M5,37 L36,37 L21.017,22.017 L5,36 L5,37" id="Fill-511" fill="#26B99A" sketch:type="MSShapeGroup"></path>
            <path d="M57.195,43.157 L57.088,43.32 C49.967,54.197 38.316,54.197 31.195,43.32 L31.302,43.157 C38.422,32.281 50.074,32.281 57.195,43.157" id="Fill-2113" fill="#FFFFFF" sketch:type="MSShapeGroup"></path>
            <path d="M49.868,40.875 C49.868,44.139 47.222,46.784 43.958,46.784 C40.695,46.784 38.049,44.139 38.049,40.875 C38.049,37.612 40.695,34.966 43.958,34.966 C47.222,34.966 49.868,37.612 49.868,40.875" id="Fill-2114" fill="#556080" sketch:type="MSShapeGroup"></path>
            <path d="M44.142,52.478 C38.888,52.478 33.993,49.42 30.358,43.868 L30,43.321 L30.465,42.61 C34.1,37.057 38.995,34 44.249,34 C49.502,34 54.396,37.057 58.031,42.609 L58.39,43.156 L57.925,43.868 C54.29,49.42 49.395,52.478 44.142,52.478 L44.142,52.478 Z M32.398,43.317 C35.604,47.941 39.754,50.478 44.142,50.478 C48.578,50.478 52.772,47.884 55.992,43.161 C52.786,38.537 48.635,36 44.249,36 C39.812,36 35.618,38.594 32.398,43.317 L32.398,43.317 Z" id="Fill-2115" fill="#B1D3F0" sketch:type="MSShapeGroup"></path>
        </g>
    </g>
</svg>