<?xml version="1.0" encoding="UTF-8" standalone="no"?>
<svg width="45px" height="59px" viewBox="0 0 45 59" version="1.1" xmlns="http://www.w3.org/2000/svg" xmlns:xlink="http://www.w3.org/1999/xlink" xmlns:sketch="http://www.bohemiancoding.com/sketch/ns">
    <!-- Generator: Sketch 3.2.2 (9983) - http://www.bohemiancoding.com/sketch -->
    <title>70 - Hide Smartphone (Flat)</title>
    <desc>Created with Sketch.</desc>
    <defs></defs>
    <g id="Page-1" stroke="none" stroke-width="1" fill="none" fill-rule="evenodd" sketch:type="MSPage">
        <g id="70---Hide-Smartphone-(Flat)" sketch:type="MSLayerGroup">
            <path d="M28.595,58 L3.405,58 C1.525,58 0,56.475 0,54.595 L0,3.405 C0,1.525 1.525,0 3.405,0 L28.595,0 C30.475,0 32,1.525 32,3.405 L32,54.595 C32,56.475 30.475,58 28.595,58" id="Fill-631" fill="#545E73" sketch:type="MSShapeGroup"></path>
            <path d="M0,6 L32,6 L32,46 L0,46 L0,6 Z" id="Fill-632" fill="#8697CB" sketch:type="MSShapeGroup"></path>
            <path d="M19,52 C19,53.657 17.657,55 16,55 C14.343,55 13,53.657 13,52 C13,50.344 14.343,49 16,49 C17.657,49 19,50.344 19,52" id="Fill-633" fill="#323A45" sketch:type="MSShapeGroup"></path>
            <path d="M16,4 L12,4 C11.447,4 11,3.553 11,3 C11,2.448 11.447,2 12,2 L16,2 C16.553,2 17,2.448 17,3 C17,3.553 16.553,4 16,4" id="Fill-634" fill="#323A45" sketch:type="MSShapeGroup"></path>
            <path d="M20,4 L19,4 C18.447,4 18,3.553 18,3 C18,2.448 18.447,2 19,2 L20,2 C20.553,2 21,2.448 21,3 C21,3.553 20.553,4 20,4" id="Fill-635" fill="#323A45" sketch:type="MSShapeGroup"></path>
            <path d="M43.195,49.661 L43.088,49.824 C35.967,60.701 24.315,60.701 17.195,49.824 L17.302,49.661 C24.422,38.785 36.074,38.785 43.195,49.661" id="Fill-2161" fill="#FFFFFF" sketch:type="MSShapeGroup"></path>
            <path d="M35.868,47.379 C35.868,50.642 33.222,53.288 29.958,53.288 C26.695,53.288 24.049,50.642 24.049,47.379 C24.049,44.115 26.695,41.47 29.958,41.47 C33.222,41.47 35.868,44.115 35.868,47.379" id="Fill-2162" fill="#556080" sketch:type="MSShapeGroup"></path>
            <path d="M30.142,58.982 C24.888,58.982 19.993,55.924 16.358,50.372 L16,49.825 L16.465,49.114 C20.1,43.561 24.995,40.504 30.248,40.504 C35.502,40.504 40.396,43.561 44.031,49.113 L44.39,49.66 L43.925,50.372 C40.29,55.924 35.395,58.982 30.142,58.982 L30.142,58.982 Z M18.398,49.82 C21.604,54.445 25.754,56.982 30.142,56.982 C34.578,56.982 38.772,54.387 41.992,49.665 C38.786,45.041 34.635,42.504 30.248,42.504 C25.812,42.504 21.618,45.098 18.398,49.82 L18.398,49.82 Z" id="Fill-2163" fill="#B1D3F0" sketch:type="MSShapeGroup"></path>
        </g>
    </g>
</svg>