<?xml version="1.0" encoding="UTF-8" standalone="no"?>
<svg width="59px" height="54px" viewBox="0 0 59 54" version="1.1" xmlns="http://www.w3.org/2000/svg" xmlns:xlink="http://www.w3.org/1999/xlink" xmlns:sketch="http://www.bohemiancoding.com/sketch/ns">
    <!-- Generator: Sketch 3.2.2 (9983) - http://www.bohemiancoding.com/sketch -->
    <title>50 - Hide Phonecall (Flat)</title>
    <desc>Created with Sketch.</desc>
    <defs></defs>
    <g id="Page-1" stroke="none" stroke-width="1" fill="none" fill-rule="evenodd" sketch:type="MSPage">
        <g id="50---Hide-Phonecall-(Flat)" sketch:type="MSLayerGroup">
            <path d="M57.538,41.437 C55.639,37.849 48.639,33.746 48.639,33.746 C47.055,32.843 45.143,32.743 44.24,34.352 C44.24,34.353 41.965,37.08 41.386,37.472 C38.743,39.264 36.295,39.194 33.824,36.722 L22.337,25.236 C19.866,22.764 19.796,20.317 21.587,17.673 C21.979,17.094 24.707,14.82 24.707,14.82 C26.317,13.916 26.216,12.005 25.313,10.42 C25.313,10.42 21.21,3.42 17.623,1.522 C16.097,0.714 14.223,0.996 13.002,2.217 L10.465,4.754 C2.42,12.799 6.381,21.882 14.426,29.928 L29.131,44.634 C37.177,52.679 46.26,56.64 54.306,48.594 L56.842,46.058 C58.063,44.836 58.345,42.962 57.538,41.437" id="Fill-255" fill="#69BC45" sketch:type="MSShapeGroup"></path>
            <path d="M58.421,40.969 C56.413,37.173 49.44,33.057 49.134,32.877 C48.239,32.367 47.303,32.097 46.429,32.097 C45.128,32.097 44.062,32.693 43.417,33.776 C42.398,34.996 41.132,36.422 40.825,36.644 C38.449,38.256 36.588,38.072 34.531,36.015 L23.044,24.528 C21,22.484 20.812,20.601 22.412,18.238 C22.636,17.929 24.062,16.663 25.283,15.642 C26.061,15.179 26.594,14.492 26.828,13.647 C27.14,12.525 26.91,11.202 26.176,9.915 C26.002,9.619 21.886,2.646 18.09,0.638 C17.382,0.263 16.585,0.065 15.784,0.065 C14.466,0.065 13.227,0.578 12.295,1.51 L9.758,4.047 C5.744,8.06 4.29,12.609 5.437,17.567 C6.393,21.699 9.179,26.096 13.719,30.635 L28.424,45.34 C34.17,51.086 39.648,54 44.707,54 L44.708,54 C48.428,54 51.896,52.419 55.013,49.302 L57.549,46.765 C59.09,45.225 59.441,42.896 58.421,40.969 L58.421,40.969 Z M56.135,45.351 L53.599,47.888 C50.87,50.616 47.878,52 44.708,52 L44.707,52 C40.198,52 35.195,49.284 29.838,43.926 L15.133,29.221 C10.862,24.95 8.255,20.877 7.386,17.116 C6.391,12.816 7.63,9.003 11.172,5.461 L13.709,2.924 C14.263,2.37 15,2.064 15.784,2.064 C16.26,2.064 16.733,2.183 17.155,2.405 C20.449,4.149 24.411,10.86 24.444,10.916 C24.893,11.703 25.064,12.525 24.901,13.112 C24.801,13.473 24.578,13.745 24.218,13.947 L24.067,14.052 C23.214,14.763 21.185,16.485 20.759,17.112 C20.147,18.017 19.741,18.905 19.529,19.778 C18.818,18.36 18.243,16.717 18.054,14.896 C17.997,14.349 17.508,13.966 16.956,14.005 C16.407,14.063 16.007,14.554 16.065,15.104 C16.786,22.057 22.193,26.583 22.423,26.772 C22.449,26.792 22.479,26.8 22.506,26.819 L33.117,37.429 C33.161,37.473 33.206,37.512 33.251,37.555 C33.287,37.607 33.31,37.666 33.357,37.712 C33.546,37.899 38.061,42.279 44.956,42.995 C44.991,42.998 45.026,43 45.06,43 C45.566,43 46,42.617 46.054,42.104 C46.111,41.554 45.711,41.063 45.162,41.005 C43.051,40.786 41.18,40.167 39.619,39.449 C40.382,39.218 41.157,38.835 41.947,38.3 C42.575,37.875 44.296,35.845 45.008,34.992 L45.112,34.841 C45.393,34.341 45.824,34.097 46.429,34.097 C46.949,34.097 47.558,34.281 48.133,34.608 C50.012,35.71 55.206,39.167 56.654,41.904 C57.26,43.05 57.051,44.435 56.135,45.351 L56.135,45.351 Z" id="Fill-256" fill="#449E46" sketch:type="MSShapeGroup"></path>
            <path d="M27.805,42.679 L27.698,42.843 C20.578,53.719 8.926,53.719 1.805,42.843 L1.912,42.679 C9.033,31.803 20.685,31.803 27.805,42.679" id="Fill-2265" fill="#FFFFFF" sketch:type="MSShapeGroup"></path>
            <path d="M20.478,40.397 C20.478,43.661 17.832,46.307 14.569,46.307 C11.305,46.307 8.66,43.661 8.66,40.397 C8.66,37.134 11.305,34.488 14.569,34.488 C17.832,34.488 20.478,37.134 20.478,40.397" id="Fill-2266" fill="#556080" sketch:type="MSShapeGroup"></path>
            <path d="M14.752,52 C9.498,52 4.604,48.943 0.969,43.391 L0.61,42.843 L1.075,42.132 C4.71,36.58 9.605,33.523 14.859,33.523 C20.112,33.523 25.007,36.58 28.642,42.131 L29,42.679 L28.535,43.39 C24.9,48.943 20.005,52 14.752,52 L14.752,52 Z M3.008,42.839 C6.214,47.463 10.365,50 14.752,50 C19.188,50 23.382,47.406 26.602,42.683 C23.396,38.059 19.246,35.522 14.859,35.522 C10.422,35.522 6.228,38.117 3.008,42.839 L3.008,42.839 Z" id="Fill-2267" fill="#B1D3F0" sketch:type="MSShapeGroup"></path>
        </g>
    </g>
</svg>