<?xml version="1.0" encoding="UTF-8" standalone="no"?>
<svg width="60px" height="60px" viewBox="0 0 60 60" version="1.1" xmlns="http://www.w3.org/2000/svg" xmlns:xlink="http://www.w3.org/1999/xlink" xmlns:sketch="http://www.bohemiancoding.com/sketch/ns">
    <!-- Generator: Sketch 3.2.2 (9983) - http://www.bohemiancoding.com/sketch -->
    <title>30 - Hide Stopwatch (Flat)</title>
    <desc>Created with Sketch.</desc>
    <defs></defs>
    <g id="Page-1" stroke="none" stroke-width="1" fill="none" fill-rule="evenodd" sketch:type="MSPage">
        <g id="30---Hide-Stopwatch-(Flat)" sketch:type="MSLayerGroup">
            <path d="M59,29 C59,45.016 46.016,58 30,58 C13.984,58 1,45.016 1,29 C1,12.984 13.984,0 30,0 C46.016,0 59,12.984 59,29" id="Fill-551" fill="#3C97D3" sketch:type="MSShapeGroup"></path>
            <path d="M30,60 C13.458,60 0,46.542 0,30 C0,22.007 3.107,14.487 8.749,8.824 C9.528,8.039 10.796,8.039 11.577,8.819 C12.36,9.599 12.362,10.865 11.583,11.647 C6.693,16.555 4,23.072 4,30 C4,44.337 15.663,56 30,56 C44.337,56 56,44.337 56,30 C56,16.337 45.405,5.101 32,4.076 L32,14.833 C32,15.937 31.104,16.833 30,16.833 C28.896,16.833 28,15.937 28,14.833 L28,2 C28,0.896 28.896,0 30,0 C46.542,0 60,13.458 60,30 C60,46.542 46.542,60 30,60" id="Fill-552" fill="#B1D3F0" sketch:type="MSShapeGroup"></path>
            <path d="M20,20.121 L20,20.121 L32.944,29.484 C34.218,30.411 34.363,32.257 33.249,33.371 C32.135,34.484 30.29,34.34 29.363,33.066 L20,20.121" id="Fill-553" fill="#B1D3F0" sketch:type="MSShapeGroup"></path>
            <path d="M58.805,50.661 L58.698,50.824 C51.578,61.701 39.926,61.701 32.805,50.824 L32.912,50.661 C40.033,39.785 51.685,39.785 58.805,50.661" id="Fill-2213" fill="#FFFFFF" sketch:type="MSShapeGroup"></path>
            <path d="M51.478,48.379 C51.478,51.642 48.832,54.288 45.569,54.288 C42.305,54.288 39.66,51.642 39.66,48.379 C39.66,45.115 42.305,42.47 45.569,42.47 C48.832,42.47 51.478,45.115 51.478,48.379" id="Fill-2214" fill="#556080" sketch:type="MSShapeGroup"></path>
            <path d="M45.752,59.982 C40.498,59.982 35.604,56.924 31.969,51.372 L31.61,50.825 L32.075,50.114 C35.71,44.561 40.605,41.504 45.859,41.504 C51.112,41.504 56.007,44.561 59.642,50.113 L60,50.66 L59.535,51.372 C55.9,56.924 51.005,59.982 45.752,59.982 L45.752,59.982 Z M34.008,50.82 C37.214,55.445 41.365,57.982 45.752,57.982 C50.188,57.982 54.382,55.387 57.602,50.665 C54.396,46.041 50.246,43.504 45.859,43.504 C41.422,43.504 37.228,46.098 34.008,50.82 L34.008,50.82 Z" id="Fill-2215" fill="#B1D3F0" sketch:type="MSShapeGroup"></path>
        </g>
    </g>
</svg>