<?xml version="1.0" encoding="UTF-8" standalone="no"?>
<svg width="56px" height="52px" viewBox="0 0 56 52" version="1.1" xmlns="http://www.w3.org/2000/svg" xmlns:xlink="http://www.w3.org/1999/xlink" xmlns:sketch="http://www.bohemiancoding.com/sketch/ns">
    <!-- Generator: Sketch 3.2.2 (9983) - http://www.bohemiancoding.com/sketch -->
    <title>470 - Hide Map (Flat)</title>
    <desc>Created with Sketch.</desc>
    <defs></defs>
    <g id="Page-1" stroke="none" stroke-width="1" fill="none" fill-rule="evenodd" sketch:type="MSPage">
        <g id="470---Hide-Map-(Flat)" sketch:type="MSLayerGroup">
            <path d="M18,21.243 L2.256,5.499 L0,6 L0,49 L2.099,48.534 L18,32.632 L18,21.243" id="Fill-1341" fill="#4FBA6E" sketch:type="MSShapeGroup"></path>
            <path d="M9.372,46.917 L18,45 L18,38.29 L9.372,46.917" id="Fill-1342" fill="#4AA0D8" sketch:type="MSShapeGroup"></path>
            <path d="M18,2 L6.884,4.47 L18,15.586 L18,2" id="Fill-1343" fill="#4FBA6E" sketch:type="MSShapeGroup"></path>
            <path d="M49.449,1.184 L35,6 L35,15.633 L49.449,1.184" id="Fill-1344" fill="#4FBA6E" sketch:type="MSShapeGroup"></path>
            <path d="M35,21.29 L35,48 L53,41 L53,3.29 L35,21.29" id="Fill-1345" fill="#4AA0D8" sketch:type="MSShapeGroup"></path>
            <path d="M26.523,24.109 L35,15.633 L35,6 L18,2 L18,15.586 L26.523,24.109" id="Fill-1346" fill="#4AA461" sketch:type="MSShapeGroup"></path>
            <path d="M18,21.243 L18,32.632 L23.695,26.938 L18,21.243" id="Fill-1347" fill="#4AA461" sketch:type="MSShapeGroup"></path>
            <path d="M18,38.29 L18,45 L35,48 L35,21.29 L18,38.29" id="Fill-1348" fill="#51A2C9" sketch:type="MSShapeGroup"></path>
            <path d="M18,15.586 L6.884,4.47 L2.256,5.499 L18,21.243 L18,15.586" id="Fill-1349" fill="#F4D65A" sketch:type="MSShapeGroup"></path>
            <path d="M18,32.632 L2.099,48.534 L9.372,46.917 L18,38.29 L18,32.632" id="Fill-1350" fill="#F4D65A" sketch:type="MSShapeGroup"></path>
            <path d="M35,21.29 L53,3.29 L53,0 L49.449,1.184 L35,15.633 L35,21.29" id="Fill-1351" fill="#F4D65A" sketch:type="MSShapeGroup"></path>
            <path d="M26.523,24.109 L18,15.586 L18,21.243 L23.695,26.938 L18,32.632 L18,38.29 L35,21.29 L35,15.633 L26.523,24.109" id="Fill-1352" fill="#DCBD56" sketch:type="MSShapeGroup"></path>
            <path d="M54.195,42.157 L54.088,42.32 C46.967,53.197 35.316,53.197 28.195,42.32 L28.302,42.157 C35.422,31.281 47.074,31.281 54.195,42.157" id="Fill-1974" fill="#FFFFFF" sketch:type="MSShapeGroup"></path>
            <path d="M46.868,39.875 C46.868,43.139 44.222,45.784 40.958,45.784 C37.695,45.784 35.049,43.139 35.049,39.875 C35.049,36.612 37.695,33.966 40.958,33.966 C44.222,33.966 46.868,36.612 46.868,39.875" id="Fill-1975" fill="#556080" sketch:type="MSShapeGroup"></path>
            <path d="M41.142,51.478 C35.888,51.478 30.993,48.42 27.358,42.868 L27,42.321 L27.465,41.61 C31.1,36.057 35.995,33 41.249,33 C46.502,33 51.396,36.057 55.031,41.609 L55.39,42.156 L54.925,42.868 C51.29,48.42 46.395,51.478 41.142,51.478 L41.142,51.478 Z M29.398,42.317 C32.604,46.941 36.754,49.478 41.142,49.478 C45.578,49.478 49.772,46.884 52.992,42.161 C49.786,37.537 45.635,35 41.249,35 C36.812,35 32.618,37.594 29.398,42.317 L29.398,42.317 Z" id="Fill-1976" fill="#8697CB" sketch:type="MSShapeGroup"></path>
        </g>
    </g>
</svg>