<?xml version="1.0" encoding="UTF-8" standalone="no"?>
<svg width="57px" height="58px" viewBox="0 0 57 58" version="1.1" xmlns="http://www.w3.org/2000/svg" xmlns:xlink="http://www.w3.org/1999/xlink" xmlns:sketch="http://www.bohemiancoding.com/sketch/ns">
    <!-- Generator: Sketch 3.2.2 (9983) - http://www.bohemiancoding.com/sketch -->
    <title>490 - Hide Notes (Flat)</title>
    <desc>Created with Sketch.</desc>
    <defs></defs>
    <g id="Page-1" stroke="none" stroke-width="1" fill="none" fill-rule="evenodd" sketch:type="MSPage">
        <g id="490---Hide-Notes-(Flat)" sketch:type="MSLayerGroup">
            <path d="M0,0 L44,0 L44,58 L0,58 L0,0 Z" id="Fill-1511" fill="#CCB292" sketch:type="MSShapeGroup"></path>
            <path d="M0,0 L8,0 L8,58 L0,58 L0,0 Z" id="Fill-1512" fill="#7F6E5D" sketch:type="MSShapeGroup"></path>
            <path d="M15,10 L37,10 L37,22 L15,22 L15,10 Z" id="Fill-1513" fill="#EFECDE" sketch:type="MSShapeGroup"></path>
            <path d="M19,13 L33,13 L33,15 L19,15 L19,13 Z" id="Fill-1514" fill="#D5D0BB" sketch:type="MSShapeGroup"></path>
            <path d="M19,17 L33,17 L33,19 L19,19 L19,17 Z" id="Fill-1515" fill="#D5D0BB" sketch:type="MSShapeGroup"></path>
            <path d="M55.195,43.68 L55.088,43.843 C47.967,54.719 36.316,54.719 29.195,43.843 L29.302,43.68 C36.422,32.803 48.074,32.803 55.195,43.68" id="Fill-2009" fill="#FFFFFF" sketch:type="MSShapeGroup"></path>
            <path d="M47.868,41.397 C47.868,44.661 45.222,47.307 41.958,47.307 C38.695,47.307 36.049,44.661 36.049,41.397 C36.049,38.134 38.695,35.488 41.958,35.488 C45.222,35.488 47.868,38.134 47.868,41.397" id="Fill-2010" fill="#556080" sketch:type="MSShapeGroup"></path>
            <path d="M42.142,53 C36.888,53 31.993,49.943 28.358,44.391 L28,43.843 L28.465,43.132 C32.1,37.58 36.995,34.523 42.249,34.523 C47.502,34.523 52.396,37.58 56.031,43.131 L56.39,43.679 L55.925,44.39 C52.29,49.943 47.395,53 42.142,53 L42.142,53 Z M30.398,43.839 C33.604,48.463 37.754,51 42.142,51 C46.578,51 50.772,48.406 53.992,43.683 C50.786,39.059 46.635,36.522 42.249,36.522 C37.812,36.522 33.618,39.116 30.398,43.839 L30.398,43.839 Z" id="Fill-2011" fill="#8697CB" sketch:type="MSShapeGroup"></path>
        </g>
    </g>
</svg>