<?xml version="1.0" encoding="UTF-8" standalone="no"?>
<svg width="59px" height="58px" viewBox="0 0 59 58" version="1.1" xmlns="http://www.w3.org/2000/svg" xmlns:xlink="http://www.w3.org/1999/xlink" xmlns:sketch="http://www.bohemiancoding.com/sketch/ns">
    <!-- Generator: Sketch 3.2.2 (9983) - http://www.bohemiancoding.com/sketch -->
    <title>550 - Hide File (Flat)</title>
    <desc>Created with Sketch.</desc>
    <defs></defs>
    <g id="Page-1" stroke="none" stroke-width="1" fill="none" fill-rule="evenodd" sketch:type="MSPage">
        <g id="550---Hide-File-(Flat)" sketch:type="MSLayerGroup">
            <path d="M45,14 L31,0 L0,0 L0,58 L45,58 L45,14" id="Fill-1641" fill="#EFECDE" sketch:type="MSShapeGroup"></path>
            <path d="M10,23 L35,23 C35.552,23 36,22.553 36,22 C36,21.448 35.552,21 35,21 L10,21 C9.448,21 9,21.448 9,22 C9,22.553 9.448,23 10,23" id="Fill-1642" fill="#D5D0BB" sketch:type="MSShapeGroup"></path>
            <path d="M10,15 L20,15 C20.552,15 21,14.553 21,14 C21,13.448 20.552,13 20,13 L10,13 C9.448,13 9,13.448 9,14 C9,14.553 9.448,15 10,15" id="Fill-1643" fill="#D5D0BB" sketch:type="MSShapeGroup"></path>
            <path d="M35,29 L10,29 C9.448,29 9,29.448 9,30 C9,30.553 9.448,31 10,31 L35,31 C35.552,31 36,30.553 36,30 C36,29.448 35.552,29 35,29" id="Fill-1644" fill="#D5D0BB" sketch:type="MSShapeGroup"></path>
            <path d="M35,37 L10,37 C9.448,37 9,37.448 9,38 C9,38.553 9.448,39 10,39 L35,39 C35.552,39 36,38.553 36,38 C36,37.448 35.552,37 35,37" id="Fill-1645" fill="#D5D0BB" sketch:type="MSShapeGroup"></path>
            <path d="M35,45 L10,45 C9.448,45 9,45.448 9,46 C9,46.553 9.448,47 10,47 L35,47 C35.552,47 36,46.553 36,46 C36,45.448 35.552,45 35,45" id="Fill-1646" fill="#D5D0BB" sketch:type="MSShapeGroup"></path>
            <path d="M31,0 L31,14 L45,14 L31,0" id="Fill-1647" fill="#D5D0BB" sketch:type="MSShapeGroup"></path>
            <path d="M57,48.191 L56.893,48.354 C49.773,59.231 38.121,59.231 31,48.354 L31.107,48.191 C38.228,37.315 49.879,37.315 57,48.191" id="Fill-1836" fill="#FFFFFF" sketch:type="MSShapeGroup"></path>
            <path d="M49.673,45.909 C49.673,49.173 47.027,51.818 43.764,51.818 C40.5,51.818 37.855,49.173 37.855,45.909 C37.855,42.646 40.5,40 43.764,40 C47.027,40 49.673,42.646 49.673,45.909" id="Fill-1837" fill="#556080" sketch:type="MSShapeGroup"></path>
            <path d="M43.947,57.512 C38.693,57.512 33.798,54.454 30.164,48.902 L29.805,48.355 L30.27,47.644 C33.905,42.091 38.8,39.034 44.054,39.034 C49.307,39.034 54.202,42.091 57.836,47.643 L58.195,48.19 L57.73,48.902 C54.095,54.454 49.2,57.512 43.947,57.512 L43.947,57.512 Z M32.203,48.351 C35.409,52.975 39.56,55.512 43.947,55.512 C48.383,55.512 52.577,52.918 55.797,48.195 C52.591,43.571 48.44,41.034 44.054,41.034 C39.617,41.034 35.423,43.628 32.203,48.351 L32.203,48.351 Z" id="Fill-1838" fill="#8697CB" sketch:type="MSShapeGroup"></path>
        </g>
    </g>
</svg>