<?xml version="1.0" encoding="UTF-8" standalone="no"?>
<svg width="56px" height="56px" viewBox="0 0 56 56" version="1.1" xmlns="http://www.w3.org/2000/svg" xmlns:xlink="http://www.w3.org/1999/xlink" xmlns:sketch="http://www.bohemiancoding.com/sketch/ns">
    <!-- Generator: Sketch 3.2.2 (9983) - http://www.bohemiancoding.com/sketch -->
    <title>190 - Hide To Do List (Flat)</title>
    <desc>Created with Sketch.</desc>
    <defs></defs>
    <g id="Page-1" stroke="none" stroke-width="1" fill="none" fill-rule="evenodd" sketch:type="MSPage">
        <g id="190---Hide-To-Do-List-(Flat)" sketch:type="MSLayerGroup">
            <path d="M43.636,52 L8.364,52 C3.745,52 0,48.256 0,43.637 L0,8.364 C0,3.745 3.745,0 8.364,0 L43.636,0 C48.255,0 52,3.745 52,8.364 L52,43.637 C52,48.256 48.255,52 43.636,52" id="Fill-1761" fill="#3ABCA7" sketch:type="MSShapeGroup"></path>
            <path d="M26,13 L44,13 M26,27 L44,27 M26,41 L44,41 M18.929,8.001 L12.071,16 L7.5,12.572 M18.929,22 L12.071,30 L7.5,26.571 M18.929,37 L12.071,44.999 L7.5,41.57" id="Stroke-1762" stroke="#FFFFFF" stroke-width="2" stroke-linecap="round" stroke-linejoin="round" sketch:type="MSShapeGroup"></path>
            <path d="M54.805,46.679 L54.698,46.843 C47.578,57.719 35.926,57.719 28.805,46.843 L28.912,46.679 C36.033,35.803 47.685,35.803 54.805,46.679" id="Fill-1901" fill="#FFFFFF" sketch:type="MSShapeGroup"></path>
            <path d="M47.478,44.398 C47.478,47.661 44.832,50.307 41.569,50.307 C38.305,50.307 35.66,47.661 35.66,44.398 C35.66,41.134 38.305,38.488 41.569,38.488 C44.832,38.488 47.478,41.134 47.478,44.398" id="Fill-1902" fill="#556080" sketch:type="MSShapeGroup"></path>
            <path d="M41.752,56 C36.498,56 31.604,52.943 27.969,47.391 L27.61,46.843 L28.075,46.132 C31.71,40.58 36.605,37.523 41.859,37.523 C47.112,37.523 52.007,40.58 55.642,46.131 L56,46.679 L55.535,47.39 C51.9,52.943 47.005,56 41.752,56 L41.752,56 Z M30.008,46.839 C33.214,51.463 37.365,54 41.752,54 C46.188,54 50.382,51.406 53.602,46.684 C50.396,42.059 46.246,39.523 41.859,39.523 C37.422,39.523 33.228,42.116 30.008,46.839 L30.008,46.839 Z" id="Fill-1903" fill="#B1D3F0" sketch:type="MSShapeGroup"></path>
        </g>
    </g>
</svg>