<?xml version="1.0" encoding="UTF-8" standalone="no"?>
<svg width="56px" height="58px" viewBox="0 0 56 58" version="1.1" xmlns="http://www.w3.org/2000/svg" xmlns:xlink="http://www.w3.org/1999/xlink" xmlns:sketch="http://www.bohemiancoding.com/sketch/ns">
    <!-- Generator: Sketch 3.2.2 (9983) - http://www.bohemiancoding.com/sketch -->
    <title>494 - Like Notes (Flat)</title>
    <desc>Created with Sketch.</desc>
    <defs></defs>
    <g id="Page-1" stroke="none" stroke-width="1" fill="none" fill-rule="evenodd" sketch:type="MSPage">
        <g id="494---Like-Notes-(Flat)" sketch:type="MSLayerGroup">
            <path d="M0,0 L44,0 L44,58 L0,58 L0,0 Z" id="Fill-1491" fill="#CCB292" sketch:type="MSShapeGroup"></path>
            <path d="M0,0 L8,0 L8,58 L0,58 L0,0 Z" id="Fill-1492" fill="#7F6E5D" sketch:type="MSShapeGroup"></path>
            <path d="M15,10 L37,10 L37,22 L15,22 L15,10 Z" id="Fill-1493" fill="#EFECDE" sketch:type="MSShapeGroup"></path>
            <path d="M19,13 L33,13 L33,15 L19,15 L19,13 Z" id="Fill-1494" fill="#D5D0BB" sketch:type="MSShapeGroup"></path>
            <path d="M19,17 L33,17 L33,19 L19,19 L19,17 Z" id="Fill-1495" fill="#D5D0BB" sketch:type="MSShapeGroup"></path>
            <path d="M44,41.2 C44.969,39.017 47.109,37 49.684,37 C53.151,37 55.648,39.822 55.962,43.184 C55.962,43.184 56.131,44.018 55.758,45.521 C55.25,47.567 54.057,49.385 52.447,50.772 L44,58 L35.553,50.771 C33.943,49.384 32.75,47.566 32.242,45.52 C31.869,44.018 32.038,43.183 32.038,43.183 C32.352,39.821 34.849,37 38.316,37 C40.891,37 43.031,39.017 44,41.2" id="Fill-2034" fill="#F09372" sketch:type="MSShapeGroup"></path>
        </g>
    </g>
</svg>