<?xml version="1.0" encoding="UTF-8" standalone="no"?>
<svg width="58px" height="60px" viewBox="0 0 58 60" version="1.1" xmlns="http://www.w3.org/2000/svg" xmlns:xlink="http://www.w3.org/1999/xlink" xmlns:sketch="http://www.bohemiancoding.com/sketch/ns">
    <!-- Generator: Sketch 3.2.2 (9983) - http://www.bohemiancoding.com/sketch -->
    <title>294 - Like Calendar (Flat)</title>
    <desc>Created with Sketch.</desc>
    <defs></defs>
    <g id="Page-1" stroke="none" stroke-width="1" fill="none" fill-rule="evenodd" sketch:type="MSPage">
        <g id="294---Like-Calendar-(Flat)" sketch:type="MSLayerGroup">
            <path d="M0,13 L56,13 L56,52 L0,52 L0,13 Z" id="Fill-1011" fill="#EDF0F1" sketch:type="MSShapeGroup"></path>
            <path d="M41,0 L0,0 L0,13 L56,13 L56,0 L41,0" id="Fill-1012" fill="#21AE5E" sketch:type="MSShapeGroup"></path>
            <path d="M18,46 C17.448,46 17,45.553 17,45 L17,19 C17,18.448 17.448,18 18,18 C18.552,18 19,18.448 19,19 L19,45 C19,45.553 18.552,46 18,46" id="Fill-1013" fill="#556080" sketch:type="MSShapeGroup"></path>
            <path d="M12,26 C11.744,26 11.488,25.902 11.293,25.707 C10.902,25.317 10.902,24.684 11.293,24.293 L17.293,18.293 C17.684,17.903 18.316,17.903 18.707,18.293 C19.098,18.684 19.098,19.317 18.707,19.707 L12.707,25.707 C12.512,25.902 12.256,26 12,26" id="Fill-1014" fill="#556080" sketch:type="MSShapeGroup"></path>
            <path d="M37,32 C33.14,32 30,28.86 30,25 C30,21.141 33.14,18 37,18 C40.86,18 44,21.141 44,25 C44,28.86 40.86,32 37,32 L37,32 Z M37,20 C34.243,20 32,22.243 32,25 C32,27.757 34.243,30 37,30 C39.757,30 42,27.757 42,25 C42,22.243 39.757,20 37,20 L37,20 Z" id="Fill-1015" fill="#556080" sketch:type="MSShapeGroup"></path>
            <path d="M37,46 C33.14,46 30,42.859 30,39 C30,38.447 30.448,38 31,38 C31.552,38 32,38.447 32,39 C32,41.757 34.243,44 37,44 C39.757,44 42,41.757 42,39 L42,25 C42,24.448 42.448,24 43,24 C43.552,24 44,24.448 44,25 L44,39 C44,42.859 40.86,46 37,46" id="Fill-1016" fill="#556080" sketch:type="MSShapeGroup"></path>
            <path d="M46,43.2 C46.969,41.017 49.109,39.001 51.684,39.001 C55.151,39.001 57.648,41.822 57.962,45.184 C57.962,45.184 58.131,46.018 57.758,47.521 C57.25,49.567 56.057,51.385 54.447,52.772 L46,60 L37.553,52.771 C35.943,51.384 34.75,49.566 34.242,47.52 C33.869,46.018 34.038,45.183 34.038,45.183 C34.352,41.821 36.849,39 40.316,39 C42.891,39 45.031,41.017 46,43.2" id="Fill-2398" fill="#ED7061" sketch:type="MSShapeGroup"></path>
        </g>
    </g>
</svg>