<?xml version="1.0" encoding="UTF-8" standalone="no"?>
<svg width="56px" height="58px" viewBox="0 0 56 58" version="1.1" xmlns="http://www.w3.org/2000/svg" xmlns:xlink="http://www.w3.org/1999/xlink" xmlns:sketch="http://www.bohemiancoding.com/sketch/ns">
    <!-- Generator: Sketch 3.2.2 (9983) - http://www.bohemiancoding.com/sketch -->
    <title>134 - Like Archive (Flat)</title>
    <desc>Created with Sketch.</desc>
    <defs></defs>
    <g id="Page-1" stroke="none" stroke-width="1" fill="none" fill-rule="evenodd" sketch:type="MSPage">
        <g id="134---Like-Archive-(Flat)" sketch:type="MSLayerGroup">
            <path d="M50.168,58 L1.832,58 C0.82,58 0,57.18 0,56.168 L0,1.833 C0,0.821 0.82,0 1.832,0 L50.168,0 C51.18,0 52,0.821 52,1.833 L52,56.168 C52,57.18 51.18,58 50.168,58" id="Fill-1645" fill="#545E73" sketch:type="MSShapeGroup"></path>
            <path d="M31.495,17 L20.505,17 C18.572,17 17,15.428 17,13.495 L17,12 C17,11.448 17.447,11 18,11 C18.553,11 19,11.448 19,12 L19,13.495 C19,14.325 19.675,15 20.505,15 L31.495,15 C32.325,15 33,14.325 33,13.495 L33,12 C33,11.448 33.447,11 34,11 C34.553,11 35,11.448 35,12 L35,13.495 C35,15.428 33.428,17 31.495,17" id="Fill-1646" fill="#EDF0F1" sketch:type="MSShapeGroup"></path>
            <path d="M31.495,46 L20.505,46 C18.572,46 17,44.428 17,42.495 L17,41 C17,40.447 17.447,40 18,40 C18.553,40 19,40.447 19,41 L19,42.495 C19,43.325 19.675,44 20.505,44 L31.495,44 C32.325,44 33,43.325 33,42.495 L33,41 C33,40.447 33.447,40 34,40 C34.553,40 35,40.447 35,41 L35,42.495 C35,44.428 33.428,46 31.495,46" id="Fill-1647" fill="#EDF0F1" sketch:type="MSShapeGroup"></path>
            <path d="M0,28 L52,28 L52,30 L0,30 L0,28 Z" id="Fill-1648" fill="#394050" sketch:type="MSShapeGroup"></path>
            <path d="M44,41.201 C44.969,39.017 47.109,37 49.684,37 C53.151,37 55.648,39.822 55.962,43.183 C55.962,43.184 56.131,44.018 55.758,45.521 C55.25,47.567 54.057,49.384 52.447,50.771 L44,58 L35.553,50.771 C33.943,49.384 32.75,47.566 32.242,45.52 C31.869,44.018 32.038,43.183 32.038,43.183 C32.352,39.821 34.849,37 38.316,37 C40.891,37 43.031,39.017 44,41.201" id="Fill-2342" fill="#ED7061" sketch:type="MSShapeGroup"></path>
        </g>
    </g>
</svg>