<?xml version="1.0" encoding="UTF-8" standalone="no"?>
<svg width="40px" height="52px" viewBox="0 0 40 52" version="1.1" xmlns="http://www.w3.org/2000/svg" xmlns:xlink="http://www.w3.org/1999/xlink" xmlns:sketch="http://www.bohemiancoding.com/sketch/ns">
    <!-- Generator: Sketch 3.2.2 (9983) - http://www.bohemiancoding.com/sketch -->
    <title>514 - Like Location (Flat)</title>
    <desc>Created with Sketch.</desc>
    <defs></defs>
    <g id="Page-1" stroke="none" stroke-width="1" fill="none" fill-rule="evenodd" sketch:type="MSPage">
        <g id="514---Like-Location-(Flat)" sketch:type="MSLayerGroup">
            <path d="M31.03,5.324 L31.03,5.324 C23.931,-1.774 12.422,-1.774 5.324,5.324 C-1.072,11.72 -1.792,23.764 3.636,31 L18.177,52 L32.718,31 C38.146,23.764 37.426,11.72 31.03,5.324 L31.03,5.324 Z M18.354,24 C15.04,24 12.354,21.314 12.354,18 C12.354,14.687 15.04,12 18.354,12 C21.667,12 24.354,14.687 24.354,18 C24.354,21.314 21.667,24 18.354,24 L18.354,24 Z" id="Fill-1567" fill="#3192D0" sketch:type="MSShapeGroup"></path>
            <path d="M28,35.2 C28.969,33.017 31.109,31 33.684,31 C37.151,31 39.648,33.822 39.962,37.184 C39.962,37.184 40.131,38.018 39.758,39.521 C39.25,41.567 38.057,43.385 36.447,44.772 L28,52 L19.553,44.771 C17.943,43.384 16.75,41.566 16.242,39.52 C15.869,38.018 16.038,37.183 16.038,37.183 C16.352,33.821 18.849,31 22.316,31 C24.891,31 27.031,33.017 28,35.2" id="Fill-1913" fill="#F09372" sketch:type="MSShapeGroup"></path>
        </g>
    </g>
</svg>