<?xml version="1.0" encoding="UTF-8" standalone="no"?>
<svg width="59px" height="55px" viewBox="0 0 59 55" version="1.1" xmlns="http://www.w3.org/2000/svg" xmlns:xlink="http://www.w3.org/1999/xlink" xmlns:sketch="http://www.bohemiancoding.com/sketch/ns">
    <!-- Generator: Sketch 3.2.2 (9983) - http://www.bohemiancoding.com/sketch -->
    <title>414 - Like Album (Flat)</title>
    <desc>Created with Sketch.</desc>
    <defs></defs>
    <g id="Page-1" stroke="none" stroke-width="1" fill="none" fill-rule="evenodd" sketch:type="MSPage">
        <g id="414---Like-Album-(Flat)" sketch:type="MSLayerGroup">
            <path d="M0,47 L56,47 L56,0 L0,0 L0,47 Z" id="Fill-1193" fill="#E04D60" sketch:type="MSShapeGroup"></path>
            <path d="M39.659,9.248 C39.443,9.058 39.153,8.971 38.87,9.009 L20.87,11.376 C20.372,11.442 20,11.865 20,12.367 L20,31.802 C18.831,30.783 17.246,30.153 15.5,30.153 C11.916,30.153 9,32.794 9,36.041 C9,39.288 11.916,41.93 15.5,41.93 C19.084,41.93 22,39.288 22,36.041 L22,18.244 L38,16.14 L38,26.542 C36.867,25.576 35.347,24.98 33.673,24.98 C30.185,24.98 27.347,27.552 27.347,30.714 C27.347,33.876 30.185,36.449 33.673,36.449 C37.162,36.449 40,33.876 40,30.714 L40,10 C40,9.712 39.876,9.439 39.659,9.248" id="Fill-1194" fill="#FFFFFF" sketch:type="MSShapeGroup"></path>
            <path d="M47,38.2 C47.969,36.017 50.109,34.001 52.684,34.001 C56.151,34.001 58.648,36.822 58.962,40.184 C58.962,40.184 59.131,41.018 58.758,42.521 C58.25,44.567 57.057,46.385 55.447,47.772 L47,55 L38.553,47.771 C36.943,46.384 35.75,44.566 35.242,42.52 C34.869,41.018 35.038,40.183 35.038,40.183 C35.352,36.821 37.849,34 41.316,34 C43.891,34 46.031,36.017 47,38.2" id="Fill-2190" fill="#F0C41A" sketch:type="MSShapeGroup"></path>
        </g>
    </g>
</svg>