<?xml version="1.0" encoding="UTF-8" standalone="no"?>
<svg width="55px" height="56px" viewBox="0 0 55 56" version="1.1" xmlns="http://www.w3.org/2000/svg" xmlns:xlink="http://www.w3.org/1999/xlink" xmlns:sketch="http://www.bohemiancoding.com/sketch/ns">
    <!-- Generator: Sketch 3.2.2 (9983) - http://www.bohemiancoding.com/sketch -->
    <title>474 - Like Map (Flat)</title>
    <desc>Created with Sketch.</desc>
    <defs></defs>
    <g id="Page-1" stroke="none" stroke-width="1" fill="none" fill-rule="evenodd" sketch:type="MSPage">
        <g id="474---Like-Map-(Flat)" sketch:type="MSLayerGroup">
            <path d="M18,21.243 L2.256,5.499 L0,6 L0,49 L2.099,48.534 L18,32.633 L18,21.243" id="Fill-1293" fill="#4FBA6E" sketch:type="MSShapeGroup"></path>
            <path d="M9.372,46.918 L18,45 L18,38.29 L9.372,46.918" id="Fill-1294" fill="#4AA0D8" sketch:type="MSShapeGroup"></path>
            <path d="M18,2 L6.884,4.47 L18,15.586 L18,2" id="Fill-1295" fill="#4FBA6E" sketch:type="MSShapeGroup"></path>
            <path d="M49.449,1.184 L35,6 L35,15.632 L49.449,1.184" id="Fill-1296" fill="#4FBA6E" sketch:type="MSShapeGroup"></path>
            <path d="M35,21.29 L35,48 L53,41 L53,3.29 L35,21.29" id="Fill-1297" fill="#4AA0D8" sketch:type="MSShapeGroup"></path>
            <path d="M26.523,24.109 L35,15.632 L35,6 L18,2 L18,15.586 L26.523,24.109" id="Fill-1298" fill="#4AA461" sketch:type="MSShapeGroup"></path>
            <path d="M18,21.243 L18,32.633 L23.695,26.938 L18,21.243" id="Fill-1299" fill="#4AA461" sketch:type="MSShapeGroup"></path>
            <path d="M18,38.29 L18,45 L35,48 L35,21.29 L18,38.29" id="Fill-1300" fill="#51A2C9" sketch:type="MSShapeGroup"></path>
            <path d="M18,15.586 L6.884,4.47 L2.256,5.499 L18,21.243 L18,15.586" id="Fill-1301" fill="#F4D65A" sketch:type="MSShapeGroup"></path>
            <path d="M18,32.633 L2.099,48.534 L9.372,46.918 L18,38.29 L18,32.633" id="Fill-1302" fill="#F4D65A" sketch:type="MSShapeGroup"></path>
            <path d="M35,21.29 L53,3.29 L53,0 L49.449,1.184 L35,15.632 L35,21.29" id="Fill-1303" fill="#F4D65A" sketch:type="MSShapeGroup"></path>
            <path d="M26.523,24.109 L18,15.586 L18,21.243 L23.695,26.938 L18,32.633 L18,38.29 L35,21.29 L35,15.632 L26.523,24.109" id="Fill-1304" fill="#DCBD56" sketch:type="MSShapeGroup"></path>
            <path d="M43,39.2 C43.969,37.017 46.109,35 48.684,35 C52.151,35 54.648,37.822 54.962,41.184 C54.962,41.184 55.131,42.018 54.758,43.521 C54.25,45.567 53.057,47.385 51.447,48.772 L43,56 L34.553,48.771 C32.943,47.384 31.75,45.566 31.242,43.52 C30.869,42.018 31.038,41.183 31.038,41.183 C31.352,37.821 33.849,35 37.316,35 C39.891,35 42.031,37.017 43,39.2" id="Fill-2627" fill="#F09372" sketch:type="MSShapeGroup"></path>
        </g>
    </g>
</svg>