<?xml version="1.0" encoding="UTF-8" standalone="no"?>
<svg width="44px" height="59px" viewBox="0 0 44 59" version="1.1" xmlns="http://www.w3.org/2000/svg" xmlns:xlink="http://www.w3.org/1999/xlink" xmlns:sketch="http://www.bohemiancoding.com/sketch/ns">
    <!-- Generator: Sketch 3.2.2 (9983) - http://www.bohemiancoding.com/sketch -->
    <title>74 - Like Smartphone (Flat)</title>
    <desc>Created with Sketch.</desc>
    <defs></defs>
    <g id="Page-1" stroke="none" stroke-width="1" fill="none" fill-rule="evenodd" sketch:type="MSPage">
        <g id="74---Like-Smartphone-(Flat)" sketch:type="MSLayerGroup">
            <path d="M28.595,58 L3.405,58 C1.525,58 0,56.475 0,54.595 L0,3.405 C0,1.525 1.525,0 3.405,0 L28.595,0 C30.475,0 32,1.525 32,3.405 L32,54.595 C32,56.475 30.475,58 28.595,58" id="Fill-611" fill="#545E73" sketch:type="MSShapeGroup"></path>
            <path d="M0,6 L32,6 L32,46 L0,46 L0,6 Z" id="Fill-612" fill="#8697CB" sketch:type="MSShapeGroup"></path>
            <path d="M19,52 C19,53.657 17.657,55 16,55 C14.343,55 13,53.657 13,52 C13,50.344 14.343,49 16,49 C17.657,49 19,50.344 19,52" id="Fill-613" fill="#323A45" sketch:type="MSShapeGroup"></path>
            <path d="M16,4 L12,4 C11.447,4 11,3.553 11,3 C11,2.448 11.447,2 12,2 L16,2 C16.553,2 17,2.448 17,3 C17,3.553 16.553,4 16,4" id="Fill-614" fill="#323A45" sketch:type="MSShapeGroup"></path>
            <path d="M20,4 L19,4 C18.447,4 18,3.553 18,3 C18,2.448 18.447,2 19,2 L20,2 C20.553,2 21,2.448 21,3 C21,3.553 20.553,4 20,4" id="Fill-615" fill="#323A45" sketch:type="MSShapeGroup"></path>
            <path d="M32,42.182 C32.969,39.998 35.109,37.982 37.684,37.982 C41.151,37.982 43.648,40.803 43.962,44.165 C43.962,44.165 44.131,45 43.758,46.502 C43.25,48.548 42.057,50.367 40.447,51.753 L32,58.982 L23.553,51.753 C21.943,50.366 20.75,48.548 20.242,46.502 C19.869,44.999 20.038,44.164 20.038,44.164 C20.352,40.803 22.849,37.982 26.316,37.982 C28.891,37.982 31.031,39.998 32,42.182" id="Fill-2186" fill="#ED7061" sketch:type="MSShapeGroup"></path>
        </g>
    </g>
</svg>