<?xml version="1.0" encoding="UTF-8" standalone="no"?>
<svg width="45px" height="55px" viewBox="0 0 45 55" version="1.1" xmlns="http://www.w3.org/2000/svg" xmlns:xlink="http://www.w3.org/1999/xlink" xmlns:sketch="http://www.bohemiancoding.com/sketch/ns">
    <!-- Generator: Sketch 3.2.2 (9983) - http://www.bohemiancoding.com/sketch -->
    <title>314 - Like Bookmark (Flat)</title>
    <desc>Created with Sketch.</desc>
    <defs></defs>
    <g id="Page-1" stroke="none" stroke-width="1" fill="none" fill-rule="evenodd" sketch:type="MSPage">
        <g id="314---Like-Bookmark-(Flat)" sketch:type="MSLayerGroup">
            <path d="M16,0 L0,0 L0,53.444 C0,53.938 0.598,54.186 0.948,53.836 L16,38.784 L31.052,53.836 C31.402,54.186 32,53.938 32,53.444 L32,0 L16,0" id="Fill-1107" fill="#D85A4A" sketch:type="MSShapeGroup"></path>
            <path d="M0,0 L32,0 L32,11 L0,11 L0,0 Z" id="Fill-1812" fill="#C13B2A" sketch:type="MSShapeGroup"></path>
            <path d="M33,38.2 C33.969,36.017 36.109,34.001 38.684,34.001 C42.151,34.001 44.648,36.821 44.962,40.184 C44.962,40.184 45.131,41.018 44.758,42.521 C44.25,44.567 43.057,46.385 41.447,47.772 L33,55 L24.553,47.771 C22.943,46.384 21.75,44.566 21.242,42.52 C20.869,41.018 21.038,40.183 21.038,40.183 C21.352,36.821 23.849,34 27.316,34 C29.891,34 32.031,36.017 33,38.2" id="Fill-2606" fill="#F0C41A" sketch:type="MSShapeGroup"></path>
        </g>
    </g>
</svg>