<?xml version="1.0" encoding="UTF-8" standalone="no"?>
<svg width="56px" height="54px" viewBox="0 0 56 54" version="1.1" xmlns="http://www.w3.org/2000/svg" xmlns:xlink="http://www.w3.org/1999/xlink" xmlns:sketch="http://www.bohemiancoding.com/sketch/ns">
    <!-- Generator: Sketch 3.2.2 (9983) - http://www.bohemiancoding.com/sketch -->
    <title>54 - Like Phonecall (Flat)</title>
    <desc>Created with Sketch.</desc>
    <defs></defs>
    <g id="Page-1" stroke="none" stroke-width="1" fill="none" fill-rule="evenodd" sketch:type="MSPage">
        <g id="54---Like-Phonecall-(Flat)" sketch:type="MSLayerGroup">
            <path d="M54.595,41.437 C52.697,37.849 45.696,33.746 45.696,33.746 C44.112,32.843 42.201,32.743 41.297,34.352 C41.297,34.353 39.022,37.08 38.444,37.472 C35.8,39.264 33.353,39.194 30.881,36.722 L19.395,25.236 C16.923,22.764 16.854,20.317 18.645,17.673 C19.037,17.094 21.765,14.82 21.765,14.82 C23.374,13.916 23.274,12.005 22.371,10.42 C22.371,10.42 18.268,3.42 14.68,1.522 C13.154,0.714 11.28,0.996 10.059,2.217 L7.522,4.754 C-0.523,12.799 3.438,21.882 11.484,29.928 L26.189,44.634 C34.234,52.679 43.318,56.64 51.363,48.594 L53.9,46.058 C55.121,44.836 55.403,42.962 54.595,41.437" id="Fill-253" fill="#69BC45" sketch:type="MSShapeGroup"></path>
            <path d="M55.479,40.969 C53.471,37.173 46.497,33.057 46.192,32.877 C45.296,32.367 44.361,32.097 43.486,32.097 C42.185,32.097 41.12,32.693 40.475,33.776 C39.455,34.996 38.189,36.422 37.883,36.644 C35.506,38.256 33.646,38.072 31.588,36.015 L20.101,24.528 C18.057,22.484 17.869,20.601 19.47,18.238 C19.693,17.929 21.12,16.663 22.34,15.642 C23.119,15.179 23.652,14.492 23.886,13.647 C24.197,12.525 23.968,11.202 23.233,9.915 C23.06,9.619 18.943,2.646 15.148,0.638 C14.439,0.263 13.642,0.065 12.842,0.065 C11.523,0.065 10.284,0.578 9.352,1.51 L6.815,4.047 C2.802,8.06 1.348,12.609 2.495,17.567 C3.45,21.699 6.237,26.096 10.777,30.635 L25.482,45.34 C31.227,51.086 36.705,54 41.764,54 L41.765,54 C45.485,54 48.953,52.419 52.07,49.302 L54.607,46.765 C56.148,45.225 56.498,42.896 55.479,40.969 L55.479,40.969 Z M53.193,45.351 L50.656,47.888 C47.927,50.616 44.936,52 41.765,52 C37.255,52 32.253,49.284 26.896,43.926 L12.191,29.221 C7.92,24.95 5.313,20.877 4.443,17.116 C3.449,12.816 4.687,9.003 8.229,5.461 L10.766,2.924 C11.321,2.37 12.057,2.064 12.842,2.064 C13.317,2.064 13.791,2.183 14.212,2.405 C17.506,4.149 21.468,10.86 21.502,10.916 C21.951,11.703 22.121,12.525 21.958,13.112 C21.859,13.473 21.635,13.745 21.276,13.947 L21.124,14.052 C20.272,14.763 18.242,16.485 17.816,17.112 C17.204,18.017 16.799,18.905 16.586,19.778 C15.875,18.36 15.3,16.717 15.111,14.896 C15.054,14.349 14.565,13.966 14.013,14.005 C13.464,14.063 13.065,14.554 13.122,15.104 C13.844,22.057 19.251,26.583 19.481,26.772 C19.506,26.792 19.536,26.8 19.563,26.819 L30.174,37.429 C30.219,37.473 30.264,37.512 30.308,37.555 C30.344,37.607 30.367,37.666 30.414,37.712 C30.603,37.899 35.119,42.279 42.013,42.995 C42.049,42.998 42.083,43 42.117,43 C42.624,43 43.058,42.617 43.111,42.104 C43.168,41.554 42.769,41.063 42.22,41.005 C40.108,40.786 38.237,40.167 36.677,39.449 C37.439,39.218 38.215,38.835 39.004,38.3 C39.632,37.875 41.354,35.845 42.065,34.992 L42.169,34.841 C42.451,34.341 42.881,34.097 43.486,34.097 C44.006,34.097 44.615,34.281 45.191,34.608 C47.07,35.71 52.263,39.167 53.711,41.904 C54.317,43.05 54.109,44.435 53.193,45.351 L53.193,45.351 Z" id="Fill-254" fill="#449E46" sketch:type="MSShapeGroup"></path>
            <path d="M12.61,32.2 C13.579,30.017 15.72,28.001 18.294,28.001 C21.761,28.001 24.258,30.821 24.572,34.183 C24.572,34.183 24.741,35.018 24.369,36.521 C23.861,38.567 22.667,40.384 21.057,41.772 L12.61,49 L4.163,41.771 C2.554,40.384 1.36,38.566 0.852,36.52 C0.479,35.018 0.649,34.183 0.649,34.183 C0.963,30.821 3.459,28 6.927,28 C9.501,28 11.641,30.017 12.61,32.2" id="Fill-2290" fill="#ED7061" sketch:type="MSShapeGroup"></path>
        </g>
    </g>
</svg>