<?xml version="1.0" encoding="UTF-8" standalone="no"?>
<svg width="60px" height="60px" viewBox="0 0 60 60" version="1.1" xmlns="http://www.w3.org/2000/svg" xmlns:xlink="http://www.w3.org/1999/xlink" xmlns:sketch="http://www.bohemiancoding.com/sketch/ns">
    <!-- Generator: Sketch 3.2.2 (9983) - http://www.bohemiancoding.com/sketch -->
    <title>23 - Loading Stopwatch (Flat)</title>
    <desc>Created with Sketch.</desc>
    <defs></defs>
    <g id="Page-1" stroke="none" stroke-width="1" fill="none" fill-rule="evenodd" sketch:type="MSPage">
        <g id="23---Loading-Stopwatch-(Flat)" sketch:type="MSLayerGroup">
            <path d="M59,29 C59,45.016 46.016,58 30,58 C13.984,58 1,45.016 1,29 C1,12.984 13.984,0 30,0 C46.016,0 59,12.984 59,29" id="Fill-572" fill="#3C97D3" sketch:type="MSShapeGroup"></path>
            <path d="M30,60 C13.458,60 0,46.542 0,30 C0,22.007 3.107,14.487 8.749,8.824 C9.528,8.039 10.796,8.039 11.577,8.819 C12.36,9.599 12.362,10.865 11.583,11.647 C6.693,16.555 4,23.072 4,30 C4,44.337 15.663,56 30,56 C44.337,56 56,44.337 56,30 C56,16.337 45.405,5.101 32,4.076 L32,14.833 C32,15.937 31.104,16.833 30,16.833 C28.896,16.833 28,15.937 28,14.833 L28,2 C28,0.896 28.896,0 30,0 C46.542,0 60,13.458 60,30 C60,46.542 46.542,60 30,60" id="Fill-573" fill="#B1D3F0" sketch:type="MSShapeGroup"></path>
            <path d="M20,20.121 L20,20.121 L32.944,29.484 C34.218,30.411 34.363,32.257 33.249,33.371 C32.135,34.484 30.29,34.34 29.363,33.066 L20,20.121" id="Fill-574" fill="#B1D3F0" sketch:type="MSShapeGroup"></path>
            <path d="M49,46.982 L47,46.982 C43.367,45.529 41,42.12 41,38.341 L41,34.982 L55,34.982 L55,38.341 C55,42.12 52.633,45.529 49,46.982" id="Fill-2203" fill="#91BAE1" sketch:type="MSShapeGroup"></path>
            <path d="M47,46.982 L49,46.982 C52.633,48.435 55,51.843 55,55.622 L55,58.982 L41,58.982 L41,55.622 C41,51.843 43.367,48.435 47,46.982" id="Fill-2204" fill="#91BAE1" sketch:type="MSShapeGroup"></path>
            <path d="M38,35.982 L58,35.982 C58.553,35.982 59,35.534 59,34.982 C59,34.429 58.553,33.982 58,33.982 L38,33.982 C37.447,33.982 37,34.429 37,34.982 C37,35.534 37.447,35.982 38,35.982" id="Fill-2205" fill="#556080" sketch:type="MSShapeGroup"></path>
            <path d="M57.999,57.98 L39.999,57.98 C39.996,57.98 39.993,57.982 39.989,57.982 L38,57.982 C37.447,57.982 37,58.429 37,58.982 C37,59.534 37.447,59.982 38,59.982 L41,59.982 C41.003,59.982 41.006,59.98 41.01,59.98 L57.999,59.98 C58.552,59.98 58.999,59.532 58.999,58.979 C58.999,58.427 58.552,57.98 57.999,57.98" id="Fill-2206" fill="#556080" sketch:type="MSShapeGroup"></path>
        </g>
    </g>
</svg>