<?xml version="1.0" encoding="UTF-8" standalone="no"?>
<svg width="58px" height="58px" viewBox="0 0 58 58" version="1.1" xmlns="http://www.w3.org/2000/svg" xmlns:xlink="http://www.w3.org/1999/xlink" xmlns:sketch="http://www.bohemiancoding.com/sketch/ns">
    <!-- Generator: Sketch 3.2.2 (9983) - http://www.bohemiancoding.com/sketch -->
    <title>3 - Loading Clock (Flat)</title>
    <desc>Created with Sketch.</desc>
    <defs></defs>
    <g id="Page-1" stroke="none" stroke-width="1" fill="none" fill-rule="evenodd" sketch:type="MSPage">
        <g id="3---Loading-Clock-(Flat)" sketch:type="MSLayerGroup">
            <path d="M58,29 C58,45.016 45.016,58 29,58 C12.984,58 0,45.016 0,29 C0,12.984 12.984,0 29,0 C45.016,0 58,12.984 58,29" id="Fill-413" fill="#EDF0F1" sketch:type="MSShapeGroup"></path>
            <path d="M29,4 C42.785,4 54,15.215 54,29 C54,42.785 42.785,54 29,54 C15.215,54 4,42.785 4,29 C4,15.215 15.215,4 29,4 M29,0 C12.984,0 0,12.984 0,29 C0,45.017 12.984,58 29,58 C45.016,58 58,45.017 58,29 C58,12.984 45.016,0 29,0" id="Fill-414" fill="#545E73" sketch:type="MSShapeGroup"></path>
            <path d="M29,5.879 C28.448,5.879 28,6.326 28,6.879 L28,7.879 C28,8.432 28.448,8.879 29,8.879 C29.552,8.879 30,8.432 30,7.879 L30,6.879 C30,6.326 29.552,5.879 29,5.879" id="Fill-415" fill="#8697CB" sketch:type="MSShapeGroup"></path>
            <path d="M29,48.879 C28.448,48.879 28,49.326 28,49.879 L28,50.879 C28,51.432 28.448,51.879 29,51.879 C29.552,51.879 30,51.432 30,50.879 L30,49.879 C30,49.326 29.552,48.879 29,48.879" id="Fill-416" fill="#8697CB" sketch:type="MSShapeGroup"></path>
            <path d="M51,27.879 L50,27.879 C49.448,27.879 49,28.326 49,28.879 C49,29.432 49.448,29.879 50,29.879 L51,29.879 C51.552,29.879 52,29.432 52,28.879 C52,28.326 51.552,27.879 51,27.879" id="Fill-417" fill="#8697CB" sketch:type="MSShapeGroup"></path>
            <path d="M8,27.879 L7,27.879 C6.448,27.879 6,28.326 6,28.879 C6,29.432 6.448,29.879 7,29.879 L8,29.879 C8.552,29.879 9,29.432 9,28.879 C9,28.326 8.552,27.879 8,27.879" id="Fill-418" fill="#8697CB" sketch:type="MSShapeGroup"></path>
            <path d="M43.849,12.615 L43.142,13.322 C42.752,13.713 42.752,14.346 43.142,14.736 C43.337,14.932 43.593,15.029 43.849,15.029 C44.105,15.029 44.361,14.932 44.556,14.736 L45.263,14.03 C45.654,13.639 45.654,13.006 45.263,12.615 C44.873,12.225 44.24,12.225 43.849,12.615" id="Fill-419" fill="#8697CB" sketch:type="MSShapeGroup"></path>
            <path d="M13.444,43.022 L12.737,43.729 C12.346,44.12 12.346,44.752 12.737,45.142 C12.932,45.338 13.188,45.435 13.444,45.435 C13.7,45.435 13.956,45.338 14.151,45.142 L14.858,44.435 C15.248,44.045 15.248,43.412 14.858,43.022 C14.467,42.631 13.834,42.631 13.444,43.022" id="Fill-420" fill="#8697CB" sketch:type="MSShapeGroup"></path>
            <path d="M44.556,43.022 C44.166,42.631 43.533,42.631 43.142,43.022 C42.752,43.412 42.752,44.045 43.142,44.435 L43.849,45.142 C44.044,45.338 44.3,45.435 44.556,45.435 C44.812,45.435 45.068,45.338 45.263,45.142 C45.654,44.752 45.654,44.12 45.263,43.729 L44.556,43.022" id="Fill-421" fill="#8697CB" sketch:type="MSShapeGroup"></path>
            <path d="M14.151,12.615 C13.76,12.225 13.127,12.225 12.737,12.615 C12.346,13.006 12.346,13.639 12.737,14.03 L13.444,14.736 C13.639,14.932 13.895,15.029 14.151,15.029 C14.407,15.029 14.663,14.932 14.858,14.736 C15.248,14.346 15.248,13.713 14.858,13.322 L14.151,12.615" id="Fill-422" fill="#8697CB" sketch:type="MSShapeGroup"></path>
            <path d="M26,28.879 L18,28.879 L26,28.879 Z M29,25.879 L29,14.879 L29,25.879 Z M26,28.879 C26,30.536 27.343,31.879 29,31.879 C30.657,31.879 32,30.536 32,28.879 C32,27.222 30.657,25.879 29,25.879 C27.343,25.879 26,27.222 26,28.879 L26,28.879 Z" id="Stroke-423" stroke="#545E73" stroke-width="2" stroke-linecap="round" stroke-linejoin="round" sketch:type="MSShapeGroup"></path>
            <path d="M46.39,45 L44.39,45 C40.756,43.547 38.39,40.139 38.39,36.36 L38.39,33 L52.39,33 L52.39,36.36 C52.39,40.139 50.023,43.547 46.39,45" id="Fill-2099" fill="#91BAE1" sketch:type="MSShapeGroup"></path>
            <path d="M44.39,45 L46.39,45 C50.023,46.453 52.39,49.862 52.39,53.64 L52.39,57 L38.39,57 L38.39,53.64 C38.39,49.862 40.756,46.453 44.39,45" id="Fill-2100" fill="#91BAE1" sketch:type="MSShapeGroup"></path>
            <path d="M35.39,34 L55.39,34 C55.942,34 56.39,33.552 56.39,33 C56.39,32.448 55.942,32 55.39,32 L35.39,32 C34.837,32 34.39,32.448 34.39,33 C34.39,33.552 34.837,34 35.39,34" id="Fill-2101" fill="#D0E8F9" sketch:type="MSShapeGroup"></path>
            <path d="M55.389,55.998 L37.389,55.998 C37.385,55.998 37.382,56 37.379,56 L35.39,56 C34.837,56 34.39,56.448 34.39,57 C34.39,57.552 34.837,58 35.39,58 L38.39,58 C38.393,58 38.396,57.998 38.399,57.998 L55.389,57.998 C55.941,57.998 56.389,57.551 56.389,56.998 C56.389,56.446 55.941,55.998 55.389,55.998" id="Fill-2102" fill="#D0E8F9" sketch:type="MSShapeGroup"></path>
        </g>
    </g>
</svg>