<?xml version="1.0" encoding="UTF-8" standalone="no"?>
<svg width="60px" height="51px" viewBox="0 0 60 51" version="1.1" xmlns="http://www.w3.org/2000/svg" xmlns:xlink="http://www.w3.org/1999/xlink" xmlns:sketch="http://www.bohemiancoding.com/sketch/ns">
    <!-- Generator: Sketch 3.2.2 (9983) - http://www.bohemiancoding.com/sketch -->
    <title>383 - Loading Coud (Flat)</title>
    <desc>Created with Sketch.</desc>
    <defs></defs>
    <g id="Page-1" stroke="none" stroke-width="1" fill="none" fill-rule="evenodd" sketch:type="MSPage">
        <g id="383---Loading-Coud-(Flat)" sketch:type="MSLayerGroup" transform="translate(1.000000, 1.000000)">
            <path d="M49.004,16 C48.889,7.301 41.811,0 33.085,0 C27.525,0 22.306,3.005 19.424,7.337 C18.157,6.494 16.636,6 15,6 C10.582,6 7,9.582 7,14 C7,14.153 7.014,14.303 7.023,14.454 C7.013,14.637 7,14.821 7,15 C3.011,16.912 0,21.457 0,26.155 C0,32.67 5.33,38 11.845,38 L36.352,38 C36.49,38 36.624,37.984 36.761,37.979 C36.897,37.985 37.031,38 37.169,38 L46.972,38 C53.037,38 58,33.038 58,26.972 C58,21.601 54.106,16.962 49.004,16 L49.004,16 Z" id="Fill-1157" fill="#91BAE1" sketch:type="MSShapeGroup"></path>
            <path d="M49.004,16 C48.889,7.301 41.811,0 33.085,0 C27.525,0 22.306,3.005 19.424,7.337 C18.157,6.494 16.636,6 15,6 C10.582,6 7,9.582 7,14 C7,14.153 7.014,14.303 7.023,14.454 C7.013,14.637 7,14.821 7,15 C3.011,16.912 0,21.457 0,26.155 C0,32.67 5.33,38 11.845,38 L36.352,38 C36.49,38 36.624,37.984 36.761,37.979 C36.897,37.985 37.031,38 37.169,38 L46.972,38 C53.037,38 58,33.038 58,26.972 C58,21.601 54.106,16.962 49.004,16 L49.004,16 Z" id="Stroke-1158" stroke="#8697CB" stroke-width="2" stroke-linecap="round" sketch:type="MSShapeGroup"></path>
            <path d="M49.004,16 C49.004,16 46.469,15.625 44,16" id="Fill-1159" fill="#91BAE1" sketch:type="MSShapeGroup"></path>
            <path d="M49.004,16 C49.004,16 46.469,15.625 44,16" id="Stroke-1160" stroke="#8697CB" stroke-width="2" stroke-linecap="round" sketch:type="MSShapeGroup"></path>
            <path d="M7,14 C7,9.582 10.582,6 15,6 C19.418,6 23,9.582 23,14" id="Fill-1161" fill="#91BAE1" sketch:type="MSShapeGroup"></path>
            <path d="M7,14 C7,9.582 10.582,6 15,6 C19.418,6 23,9.582 23,14" id="Stroke-1162" stroke="#8697CB" stroke-width="2" stroke-linecap="round" sketch:type="MSShapeGroup"></path>
            <path d="M32,36.982 L30,36.982 C26.367,35.528 24,32.12 24,28.342 L24,24.982 L38,24.982 L38,28.342 C38,32.12 35.633,35.528 32,36.982" id="Fill-2684" fill="#D0E8F9" sketch:type="MSShapeGroup"></path>
            <path d="M30,36.982 L32,36.982 C35.633,38.435 38,41.843 38,45.621 L38,48.982 L24,48.982 L24,45.621 C24,41.843 26.367,38.435 30,36.982" id="Fill-2685" fill="#D0E8F9" sketch:type="MSShapeGroup"></path>
            <path d="M21,25.982 L41,25.982 C41.553,25.982 42,25.534 42,24.982 C42,24.429 41.553,23.982 41,23.982 L21,23.982 C20.447,23.982 20,24.429 20,24.982 C20,25.534 20.447,25.982 21,25.982" id="Fill-2686" fill="#B1D3F0" sketch:type="MSShapeGroup"></path>
            <path d="M40.999,47.98 L22.999,47.98 C22.996,47.98 22.993,47.982 22.989,47.982 L21,47.982 C20.447,47.982 20,48.429 20,48.982 C20,49.534 20.447,49.982 21,49.982 L24,49.982 C24.003,49.982 24.006,49.98 24.01,49.98 L40.999,49.98 C41.552,49.98 41.999,49.532 41.999,48.98 C41.999,48.427 41.552,47.98 40.999,47.98" id="Fill-2687" fill="#B1D3F0" sketch:type="MSShapeGroup"></path>
        </g>
    </g>
</svg>