<?xml version="1.0" encoding="UTF-8" standalone="no"?>
<svg width="37px" height="54px" viewBox="0 0 37 54" version="1.1" xmlns="http://www.w3.org/2000/svg" xmlns:xlink="http://www.w3.org/1999/xlink" xmlns:sketch="http://www.bohemiancoding.com/sketch/ns">
    <!-- Generator: Sketch 3.2.2 (9983) - http://www.bohemiancoding.com/sketch -->
    <title>503 - Loading Location (Flat)</title>
    <desc>Created with Sketch.</desc>
    <defs></defs>
    <g id="Page-1" stroke="none" stroke-width="1" fill="none" fill-rule="evenodd" sketch:type="MSPage">
        <g id="503---Loading-Location-(Flat)" sketch:type="MSLayerGroup" transform="translate(-1.000000, 0.000000)">
            <path d="M32.03,5.324 L32.03,5.324 C24.931,-1.774 13.422,-1.774 6.324,5.324 C-0.072,11.72 -0.792,23.764 4.635,31 L19.177,52 L33.718,31 C39.146,23.764 38.426,11.72 32.03,5.324 L32.03,5.324 Z M19.354,24 C16.04,24 13.354,21.314 13.354,18 C13.354,14.687 16.04,12 19.354,12 C22.667,12 25.354,14.687 25.354,18 C25.354,21.314 22.667,24 19.354,24 L19.354,24 Z" id="Fill-1573" fill="#3192D0" sketch:type="MSShapeGroup"></path>
            <path d="M27.39,41 L25.39,41 C21.756,39.547 19.39,36.139 19.39,32.36 L19.39,29 L33.39,29 L33.39,32.36 C33.39,36.139 31.023,39.547 27.39,41" id="Fill-1931" fill="#91BAE1" sketch:type="MSShapeGroup"></path>
            <path d="M25.39,41 L27.39,41 C31.023,42.454 33.39,45.862 33.39,49.64 L33.39,53 L19.39,53 L19.39,49.64 C19.39,45.862 21.756,42.454 25.39,41" id="Fill-1932" fill="#91BAE1" sketch:type="MSShapeGroup"></path>
            <path d="M16.39,30 L36.39,30 C36.942,30 37.39,29.552 37.39,29 C37.39,28.448 36.942,28 36.39,28 L16.39,28 C15.837,28 15.39,28.448 15.39,29 C15.39,29.552 15.837,30 16.39,30" id="Fill-1933" fill="#556080" sketch:type="MSShapeGroup"></path>
            <path d="M36.389,51.998 L18.389,51.998 C18.385,51.998 18.382,52 18.379,52 L16.39,52 C15.837,52 15.39,52.448 15.39,53 C15.39,53.552 15.837,54 16.39,54 L19.39,54 C19.393,54 19.396,53.998 19.399,53.998 L36.389,53.998 C36.941,53.998 37.389,53.55 37.389,52.998 C37.389,52.446 36.941,51.998 36.389,51.998" id="Fill-1934" fill="#556080" sketch:type="MSShapeGroup"></path>
        </g>
    </g>
</svg>