<?xml version="1.0" encoding="UTF-8" standalone="no"?>
<svg width="58px" height="56px" viewBox="0 0 58 56" version="1.1" xmlns="http://www.w3.org/2000/svg" xmlns:xlink="http://www.w3.org/1999/xlink" xmlns:sketch="http://www.bohemiancoding.com/sketch/ns">
    <!-- Generator: Sketch 3.2.2 (9983) - http://www.bohemiancoding.com/sketch -->
    <title>323 - Loading Profiles (Flat)</title>
    <desc>Created with Sketch.</desc>
    <defs></defs>
    <g id="Page-1" stroke="none" stroke-width="1" fill="none" fill-rule="evenodd" sketch:type="MSPage">
        <g id="323---Loading-Profiles-(Flat)" sketch:type="MSLayerGroup">
            <path d="M53.566,42.783 L44.014,38.007 C42.78,37.39 42,36.129 42,34.749 L42,31 C42.268,30.695 42.576,30.302 42.904,29.838 C44.205,28 45.19,25.977 45.873,23.855 C47.098,23.477 48,22.345 48,21 L48,17 C48,16.12 47.609,15.333 47,14.783 L47,9 C47,9 48.188,0 36,0 C23.812,0 25,9 25,9 L25,14.783 C24.391,15.333 24,16.12 24,17 L24,21 C24,22.054 24.554,22.982 25.383,23.517 C26.382,27.869 29,31 29,31 L29,34.656 C29,35.989 28.272,37.216 27.101,37.854 L18.18,42.72 C15.603,44.126 14,46.826 14,49.762 L14,53 L58,53 L58,49.957 C58,46.919 56.283,44.142 53.566,42.783" id="Fill-689" fill="#8697CB" sketch:type="MSShapeGroup"></path>
            <path d="M18.18,42.72 L24.126,39.477 C24.092,39.444 24.12,39.434 24.191,39.441 L27.101,37.854 C28.272,37.216 29,35.989 29,34.656 L29,31 C29,31 27.938,29.726 26.908,27.678 C26.907,27.677 26.907,27.676 26.906,27.675 C26.772,27.407 26.639,27.124 26.508,26.831 C26.49,26.79 26.472,26.751 26.454,26.71 C26.321,26.407 26.191,26.094 26.067,25.767 C26.059,25.746 26.052,25.723 26.044,25.702 C25.936,25.412 25.835,25.112 25.738,24.806 C25.712,24.722 25.686,24.639 25.661,24.555 C25.56,24.217 25.464,23.872 25.383,23.517 C24.554,22.982 24,22.054 24,21 L24,17 C24,16.12 24.391,15.333 25,14.783 L25,9.136 C23.587,8.039 21.397,7 18,7 C8.438,7 8,15 8,15 L8,19.995 C7.474,20.47 7,21.149 7,21.909 L7,25.364 C7,26.274 7.479,27.075 8.194,27.537 C9.057,31.296 11.955,34 11.955,34 L11.955,37.157 C11.955,38.308 11.326,39.368 10.315,39.919 L3.61,44.122 C1.385,45.336 0,47.668 0,50.203 L0,53 L14,53 L14,49.762 C14,46.826 15.603,44.126 18.18,42.72" id="Fill-690" fill="#556080" sketch:type="MSShapeGroup"></path>
            <path d="M48,42.982 L46,42.982 C42.367,41.528 40,38.12 40,34.342 L40,30.982 L54,30.982 L54,34.342 C54,38.12 51.633,41.528 48,42.982" id="Fill-2311" fill="#D0E8F9" sketch:type="MSShapeGroup"></path>
            <path d="M46,42.982 L48,42.982 C51.633,44.435 54,47.843 54,51.621 L54,54.982 L40,54.982 L40,51.621 C40,47.843 42.367,44.435 46,42.982" id="Fill-2312" fill="#D0E8F9" sketch:type="MSShapeGroup"></path>
            <path d="M37,31.982 L57,31.982 C57.553,31.982 58,31.534 58,30.982 C58,30.429 57.553,29.982 57,29.982 L37,29.982 C36.447,29.982 36,30.429 36,30.982 C36,31.534 36.447,31.982 37,31.982" id="Fill-2313" fill="#556080" sketch:type="MSShapeGroup"></path>
            <path d="M56.999,53.98 L38.999,53.98 C38.996,53.98 38.993,53.982 38.989,53.982 L37,53.982 C36.447,53.982 36,54.429 36,54.982 C36,55.534 36.447,55.982 37,55.982 L40,55.982 C40.003,55.982 40.006,55.98 40.01,55.98 L56.999,55.98 C57.552,55.98 57.999,55.532 57.999,54.98 C57.999,54.427 57.552,53.98 56.999,53.98" id="Fill-2314" fill="#556080" sketch:type="MSShapeGroup"></path>
        </g>
    </g>
</svg>