<?xml version="1.0" encoding="UTF-8" standalone="no"?>
<svg width="60px" height="53px" viewBox="0 0 60 53" version="1.1" xmlns="http://www.w3.org/2000/svg" xmlns:xlink="http://www.w3.org/1999/xlink" xmlns:sketch="http://www.bohemiancoding.com/sketch/ns">
    <!-- Generator: Sketch 3.2.2 (9983) - http://www.bohemiancoding.com/sketch -->
    <title>163 - Loading Folder (Flat)</title>
    <desc>Created with Sketch.</desc>
    <defs></defs>
    <g id="Page-1" stroke="none" stroke-width="1" fill="none" fill-rule="evenodd" sketch:type="MSPage">
        <g id="163---Loading-Folder-(Flat)" sketch:type="MSLayerGroup">
            <path d="M25,7 L20,0 L0,0 L0,51 L58,51 L58,14 L30,14 L25,7" id="Fill-1735" fill="#556080" sketch:type="MSShapeGroup"></path>
            <path d="M30,14 L58,14 L58,7 L25,7 L30,14" id="Fill-1736" fill="#3D4451" sketch:type="MSShapeGroup"></path>
            <path d="M49.39,40 L47.39,40 C43.756,38.547 41.39,35.139 41.39,31.36 L41.39,28 L55.39,28 L55.39,31.36 C55.39,35.139 53.023,38.547 49.39,40" id="Fill-1839" fill="#D0E8F9" sketch:type="MSShapeGroup"></path>
            <path d="M47.39,40 L49.39,40 C53.023,41.453 55.39,44.861 55.39,48.641 L55.39,52 L41.39,52 L41.39,48.641 C41.39,44.861 43.756,41.453 47.39,40" id="Fill-1840" fill="#D0E8F9" sketch:type="MSShapeGroup"></path>
            <path d="M38.39,29 L58.39,29 C58.942,29 59.39,28.552 59.39,28 C59.39,27.448 58.942,27 58.39,27 L38.39,27 C37.837,27 37.39,27.448 37.39,28 C37.39,28.552 37.837,29 38.39,29" id="Fill-1841" fill="#BDC3C7" sketch:type="MSShapeGroup"></path>
            <path d="M58.389,50.998 L40.389,50.998 C40.385,50.998 40.382,51 40.379,51 L38.39,51 C37.837,51 37.39,51.448 37.39,52 C37.39,52.552 37.837,53 38.39,53 L41.39,53 C41.393,53 41.396,52.998 41.399,52.998 L58.389,52.998 C58.941,52.998 59.389,52.55 59.389,51.998 C59.389,51.446 58.941,50.998 58.389,50.998" id="Fill-1842" fill="#BDC3C7" sketch:type="MSShapeGroup"></path>
        </g>
    </g>
</svg>