<?xml version="1.0" encoding="UTF-8" standalone="no"?>
<svg width="54px" height="55px" viewBox="0 0 54 55" version="1.1" xmlns="http://www.w3.org/2000/svg" xmlns:xlink="http://www.w3.org/1999/xlink" xmlns:sketch="http://www.bohemiancoding.com/sketch/ns">
    <!-- Generator: Sketch 3.2.2 (9983) - http://www.bohemiancoding.com/sketch -->
    <title>263 - Loading Pricetag (Flat)</title>
    <desc>Created with Sketch.</desc>
    <defs></defs>
    <g id="Page-1" stroke="none" stroke-width="1" fill="none" fill-rule="evenodd" sketch:type="MSPage">
        <g id="263---Loading-Pricetag-(Flat)" sketch:type="MSLayerGroup">
            <path d="M43.472,0 L30.294,0 L5.848,24.367 L29.582,48.153 L54,23.815 L54,10.504 L43.472,0 L43.472,0 Z M42.015,14.87 C40.394,14.87 39.08,13.556 39.08,11.935 C39.08,10.314 40.394,9 42.015,9 C43.636,9 44.95,10.314 44.95,11.935 C44.95,13.556 43.636,14.87 42.015,14.87 L42.015,14.87 Z" id="Fill-960" fill="#E7D4B1" sketch:type="MSShapeGroup"></path>
            <path d="M5.877,24.354 L0,30.215 L23.734,54 L29.637,48.113 L5.877,24.354" id="Fill-961" fill="#D3C2A4" sketch:type="MSShapeGroup"></path>
            <path d="M42.015,9 C43.636,9 44.95,10.314 44.95,11.935 C44.95,13.556 43.636,14.87 42.015,14.87 C40.394,14.87 39.08,13.556 39.08,11.935 C39.08,10.314 40.394,9 42.015,9 M42.015,5 C38.191,5 35.08,8.111 35.08,11.935 C35.08,15.759 38.191,18.87 42.015,18.87 C45.839,18.87 48.95,15.759 48.95,11.935 C48.95,8.111 45.839,5 42.015,5" id="Fill-962" fill="#CCB292" sketch:type="MSShapeGroup"></path>
            <path d="M38,42 L36,42 C32.367,40.547 30,37.139 30,33.36 L30,30 L44,30 L44,33.36 C44,37.139 41.633,40.547 38,42" id="Fill-2519" fill="#D0E8F9" sketch:type="MSShapeGroup"></path>
            <path d="M36,42 L38,42 C41.633,43.454 44,46.861 44,50.64 L44,54 L30,54 L30,50.64 C30,46.861 32.367,43.454 36,42" id="Fill-2520" fill="#D0E8F9" sketch:type="MSShapeGroup"></path>
            <path d="M27,31 L47,31 C47.553,31 48,30.552 48,30 C48,29.448 47.553,29 47,29 L27,29 C26.447,29 26,29.448 26,30 C26,30.552 26.447,31 27,31" id="Fill-2521" fill="#556080" sketch:type="MSShapeGroup"></path>
            <path d="M46.999,52.998 L28.999,52.998 C28.996,52.998 28.993,53 28.989,53 L27,53 C26.447,53 26,53.448 26,54 C26,54.552 26.447,55 27,55 L30,55 C30.004,55 30.006,54.998 30.01,54.998 L46.999,54.998 C47.552,54.998 47.999,54.551 47.999,53.998 C47.999,53.446 47.552,52.998 46.999,52.998" id="Fill-2522" fill="#556080" sketch:type="MSShapeGroup"></path>
        </g>
    </g>
</svg>