<?xml version="1.0" encoding="UTF-8" standalone="no"?>
<svg width="58px" height="54px" viewBox="0 0 58 54" version="1.1" xmlns="http://www.w3.org/2000/svg" xmlns:xlink="http://www.w3.org/1999/xlink" xmlns:sketch="http://www.bohemiancoding.com/sketch/ns">
    <!-- Generator: Sketch 3.2.2 (9983) - http://www.bohemiancoding.com/sketch -->
    <title>223 - Loading Window (Flat)</title>
    <desc>Created with Sketch.</desc>
    <defs></defs>
    <g id="Page-1" stroke="none" stroke-width="1" fill="none" fill-rule="evenodd" sketch:type="MSPage">
        <g id="223---Loading-Window-(Flat)" sketch:type="MSLayerGroup">
            <path d="M0,14 L50,14 L50,49 L0,49 L0,14 Z" id="Fill-900" fill="#EDF0F1" sketch:type="MSShapeGroup"></path>
            <path d="M0,0 L50,0 L50,14 L0,14 L0,0 Z" id="Fill-901" fill="#546A79" sketch:type="MSShapeGroup"></path>
            <path d="M10,7 C10,8.657 8.657,10 7,10 C5.343,10 4,8.657 4,7 C4,5.343 5.343,4 7,4 C8.657,4 10,5.343 10,7" id="Fill-902" fill="#ED7061" sketch:type="MSShapeGroup"></path>
            <path d="M19,7 C19,8.657 17.657,10 16,10 C14.343,10 13,8.657 13,7 C13,5.343 14.343,4 16,4 C17.657,4 19,5.343 19,7" id="Fill-903" fill="#F0C41A" sketch:type="MSShapeGroup"></path>
            <path d="M28,7 C28,8.657 26.657,10 25,10 C23.343,10 22,8.657 22,7 C22,5.343 23.343,4 25,4 C26.657,4 28,5.343 28,7" id="Fill-904" fill="#4FBA6E" sketch:type="MSShapeGroup"></path>
            <path d="M48,41 L46,41 C42.367,39.547 40,36.139 40,32.36 L40,29 L54,29 L54,32.36 C54,36.139 51.633,39.547 48,41" id="Fill-2467" fill="#D0E8F9" sketch:type="MSShapeGroup"></path>
            <path d="M46,41 L48,41 C51.633,42.453 54,45.862 54,49.64 L54,53 L40,53 L40,49.64 C40,45.862 42.367,42.453 46,41" id="Fill-2468" fill="#D0E8F9" sketch:type="MSShapeGroup"></path>
            <path d="M37,30 L57,30 C57.553,30 58,29.552 58,29 C58,28.448 57.553,28 57,28 L37,28 C36.447,28 36,28.448 36,29 C36,29.552 36.447,30 37,30" id="Fill-2469" fill="#556080" sketch:type="MSShapeGroup"></path>
            <path d="M56.999,51.998 L38.999,51.998 C38.996,51.998 38.993,52 38.989,52 L37,52 C36.447,52 36,52.448 36,53 C36,53.552 36.447,54 37,54 L40,54 C40.004,54 40.006,53.998 40.01,53.998 L56.999,53.998 C57.552,53.998 57.999,53.551 57.999,52.998 C57.999,52.446 57.552,51.998 56.999,51.998" id="Fill-2470" fill="#556080" sketch:type="MSShapeGroup"></path>
        </g>
    </g>
</svg>