<?xml version="1.0" encoding="UTF-8" standalone="no"?>
<svg width="56px" height="59px" viewBox="0 0 56 59" version="1.1" xmlns="http://www.w3.org/2000/svg" xmlns:xlink="http://www.w3.org/1999/xlink" xmlns:sketch="http://www.bohemiancoding.com/sketch/ns">
    <!-- Generator: Sketch 3.2.2 (9983) - http://www.bohemiancoding.com/sketch -->
    <title>543 - Loading File (Flat)</title>
    <desc>Created with Sketch.</desc>
    <defs></defs>
    <g id="Page-1" stroke="none" stroke-width="1" fill="none" fill-rule="evenodd" sketch:type="MSPage">
        <g id="543---Loading-File-(Flat)" sketch:type="MSLayerGroup">
            <path d="M45,14 L31,0 L0,0 L0,58 L45,58 L45,14" id="Fill-1690" fill="#EFECDE" sketch:type="MSShapeGroup"></path>
            <path d="M10,23 L35,23 C35.552,23 36,22.553 36,22 C36,21.448 35.552,21 35,21 L10,21 C9.448,21 9,21.448 9,22 C9,22.553 9.448,23 10,23" id="Fill-1691" fill="#D5D0BB" sketch:type="MSShapeGroup"></path>
            <path d="M10,15 L20,15 C20.552,15 21,14.553 21,14 C21,13.448 20.552,13 20,13 L10,13 C9.448,13 9,13.448 9,14 C9,14.553 9.448,15 10,15" id="Fill-1692" fill="#D5D0BB" sketch:type="MSShapeGroup"></path>
            <path d="M35,29 L10,29 C9.448,29 9,29.448 9,30 C9,30.553 9.448,31 10,31 L35,31 C35.552,31 36,30.553 36,30 C36,29.448 35.552,29 35,29" id="Fill-1693" fill="#D5D0BB" sketch:type="MSShapeGroup"></path>
            <path d="M35,37 L10,37 C9.448,37 9,37.448 9,38 C9,38.553 9.448,39 10,39 L35,39 C35.552,39 36,38.553 36,38 C36,37.448 35.552,37 35,37" id="Fill-1694" fill="#D5D0BB" sketch:type="MSShapeGroup"></path>
            <path d="M35,45 L10,45 C9.448,45 9,45.448 9,46 C9,46.553 9.448,47 10,47 L35,47 C35.552,47 36,46.553 36,46 C36,45.448 35.552,45 35,45" id="Fill-1695" fill="#D5D0BB" sketch:type="MSShapeGroup"></path>
            <path d="M31,0 L31,14 L45,14 L31,0" id="Fill-1696" fill="#D5D0BB" sketch:type="MSShapeGroup"></path>
            <path d="M46,46 L44,46 C40.367,44.547 38,41.139 38,37.36 L38,34 L52,34 L52,37.36 C52,41.139 49.633,44.547 46,46" id="Fill-1793" fill="#91BAE1" sketch:type="MSShapeGroup"></path>
            <path d="M44,46 L46,46 C49.633,47.454 52,50.862 52,54.64 L52,58 L38,58 L38,54.64 C38,50.862 40.367,47.454 44,46" id="Fill-1794" fill="#91BAE1" sketch:type="MSShapeGroup"></path>
            <path d="M35,35 L55,35 C55.553,35 56,34.552 56,34 C56,33.448 55.553,33 55,33 L35,33 C34.447,33 34,33.448 34,34 C34,34.552 34.447,35 35,35" id="Fill-1795" fill="#556080" sketch:type="MSShapeGroup"></path>
            <path d="M54.999,56.998 L36.999,56.998 C36.996,56.998 36.993,57 36.989,57 L35,57 C34.447,57 34,57.448 34,58 C34,58.552 34.447,59 35,59 L38,59 C38.003,59 38.006,58.998 38.01,58.998 L54.999,58.998 C55.552,58.998 55.999,58.55 55.999,57.998 C55.999,57.446 55.552,56.998 54.999,56.998" id="Fill-1796" fill="#556080" sketch:type="MSShapeGroup"></path>
        </g>
    </g>
</svg>