<?xml version="1.0" encoding="UTF-8" standalone="no"?>
<svg width="60px" height="54px" viewBox="0 0 60 54" version="1.1" xmlns="http://www.w3.org/2000/svg" xmlns:xlink="http://www.w3.org/1999/xlink" xmlns:sketch="http://www.bohemiancoding.com/sketch/ns">
    <!-- Generator: Sketch 3.2.2 (9983) - http://www.bohemiancoding.com/sketch -->
    <title>423 - loading Picture (Flat)</title>
    <desc>Created with Sketch.</desc>
    <defs></defs>
    <g id="Page-1" stroke="none" stroke-width="1" fill="none" fill-rule="evenodd" sketch:type="MSPage">
        <g id="423---loading-Picture-(Flat)" sketch:type="MSLayerGroup" transform="translate(1.000000, 1.000000)">
            <path d="M0,0 L55,0 L55,42 L0,42 L0,0 Z" id="Fill-547" fill="#EDF0F1" sketch:type="MSShapeGroup"></path>
            <path d="M0,0 L55,0 L55,42 L0,42 L0,0 Z" id="Stroke-548" stroke="#545E73" stroke-width="2" sketch:type="MSShapeGroup"></path>
            <path d="M4,4 L51,4 L51,38 L4,38 L4,4 Z" id="Fill-549" fill="#545E73" sketch:type="MSShapeGroup"></path>
            <path d="M4,4 L51,4 L51,38 L4,38 L4,4 Z" id="Stroke-550" stroke="#EDF0F1" stroke-width="2" sketch:type="MSShapeGroup"></path>
            <path d="M18.569,12.569 C18.569,15.093 16.523,17.138 14,17.138 C11.477,17.138 9.431,15.093 9.431,12.569 C9.431,10.046 11.477,8 14,8 C16.523,8 18.569,10.046 18.569,12.569" id="Fill-551" fill="#F4D65A" sketch:type="MSShapeGroup"></path>
            <path d="M50,28.111 L49,27 L37,16 L26.5,27.5 L36,37 L50,37 L50,28.111" id="Fill-552" fill="#11A085" sketch:type="MSShapeGroup"></path>
            <path d="M5,37 L36,37 L21.017,22.017 L5,36 L5,37" id="Fill-553" fill="#26B99A" sketch:type="MSShapeGroup"></path>
            <path d="M49,39.982 L47,39.982 C43.367,38.528 41,35.12 41,31.342 L41,27.982 L55,27.982 L55,31.342 C55,35.12 52.633,38.528 49,39.982" id="Fill-2103" fill="#91BAE1" sketch:type="MSShapeGroup"></path>
            <path d="M47,39.982 L49,39.982 C52.633,41.435 55,44.843 55,48.622 L55,51.982 L41,51.982 L41,48.622 C41,44.843 43.367,41.435 47,39.982" id="Fill-2104" fill="#91BAE1" sketch:type="MSShapeGroup"></path>
            <path d="M38,28.982 L58,28.982 C58.553,28.982 59,28.534 59,27.982 C59,27.429 58.553,26.982 58,26.982 L38,26.982 C37.447,26.982 37,27.429 37,27.982 C37,28.534 37.447,28.982 38,28.982" id="Fill-2105" fill="#B1D3F0" sketch:type="MSShapeGroup"></path>
            <path d="M57.999,50.98 L39.999,50.98 C39.996,50.98 39.993,50.982 39.989,50.982 L38,50.982 C37.447,50.982 37,51.429 37,51.982 C37,52.534 37.447,52.982 38,52.982 L41,52.982 C41.003,52.982 41.006,52.98 41.01,52.98 L57.999,52.98 C58.552,52.98 58.999,52.532 58.999,51.98 C58.999,51.427 58.552,50.98 57.999,50.98" id="Fill-2106" fill="#B1D3F0" sketch:type="MSShapeGroup"></path>
        </g>
    </g>
</svg>