<?xml version="1.0" encoding="UTF-8" standalone="no"?>
<svg width="55px" height="55px" viewBox="0 0 55 55" version="1.1" xmlns="http://www.w3.org/2000/svg" xmlns:xlink="http://www.w3.org/1999/xlink" xmlns:sketch="http://www.bohemiancoding.com/sketch/ns">
    <!-- Generator: Sketch 3.2.2 (9983) - http://www.bohemiancoding.com/sketch -->
    <title>189 - Lock To Do List (Flat)</title>
    <desc>Created with Sketch.</desc>
    <defs></defs>
    <g id="Page-1" stroke="none" stroke-width="1" fill="none" fill-rule="evenodd" sketch:type="MSPage">
        <g id="189---Lock-To-Do-List-(Flat)" sketch:type="MSLayerGroup">
            <path d="M43.636,52 L8.364,52 C3.745,52 0,48.256 0,43.637 L0,8.364 C0,3.745 3.745,0 8.364,0 L43.636,0 C48.255,0 52,3.745 52,8.364 L52,43.637 C52,48.256 48.255,52 43.636,52" id="Fill-1763" fill="#3ABCA7" sketch:type="MSShapeGroup"></path>
            <path d="M26,13 L44,13 M26,27 L44,27 M26,41 L44,41 M18.929,8.001 L12.072,16 L7.5,12.572 M18.929,22 L12.072,30 L7.5,26.571 M18.929,37 L12.072,44.999 L7.5,41.57" id="Stroke-1764" stroke="#FFFFFF" stroke-width="2" stroke-linecap="round" stroke-linejoin="round" sketch:type="MSShapeGroup"></path>
            <path d="M35,39 L55,39 L55,55 L35,55 L35,39 Z" id="Fill-1898" fill="#B1D3F0" sketch:type="MSShapeGroup"></path>
            <path d="M48,46 C48,44.344 46.657,43 45,43 C43.343,43 42,44.344 42,46 C42,47.318 42.854,48.424 44.035,48.828 C44.024,48.885 44,48.939 44,49 L44,51 C44,51.552 44.448,52 45,52 C45.552,52 46,51.552 46,51 L46,49 C46,48.939 45.976,48.885 45.965,48.828 C47.146,48.424 48,47.318 48,46" id="Fill-1899" fill="#556080" sketch:type="MSShapeGroup"></path>
            <path d="M40,37 C40,34.243 42.243,32 45,32 C47.757,32 50,34.243 50,37 L50,39 L52,39 L52,37 C52,33.14 48.86,30 45,30 C41.14,30 38,33.14 38,37 L38,39 L40,39 L40,37" id="Fill-1900" fill="#BDC3C7" sketch:type="MSShapeGroup"></path>
        </g>
    </g>
</svg>