<?xml version="1.0" encoding="UTF-8" standalone="no"?>
<svg width="38px" height="53px" viewBox="0 0 38 53" version="1.1" xmlns="http://www.w3.org/2000/svg" xmlns:xlink="http://www.w3.org/1999/xlink" xmlns:sketch="http://www.bohemiancoding.com/sketch/ns">
    <!-- Generator: Sketch 3.2.2 (9983) - http://www.bohemiancoding.com/sketch -->
    <title>509 - Lock Location (Flat)</title>
    <desc>Created with Sketch.</desc>
    <defs></defs>
    <g id="Page-1" stroke="none" stroke-width="1" fill="none" fill-rule="evenodd" sketch:type="MSPage">
        <g id="509---Lock-Location-(Flat)" sketch:type="MSLayerGroup">
            <path d="M31.676,5.324 L31.676,5.324 C24.578,-1.774 13.069,-1.774 5.97,5.324 C-0.426,11.72 -1.145,23.764 4.282,31 L18.823,52 L33.365,31 C38.792,23.764 38.072,11.72 31.676,5.324 L31.676,5.324 Z M19,24 C15.686,24 13,21.314 13,18 C13,14.687 15.686,12 19,12 C22.314,12 25,14.687 25,18 C25,21.314 22.314,24 19,24 L19,24 Z" id="Fill-1579" fill="#3192D0" sketch:type="MSShapeGroup"></path>
            <path d="M18,37 L38,37 L38,53 L18,53 L18,37 Z" id="Fill-1940" fill="#CCB292" sketch:type="MSShapeGroup"></path>
            <path d="M31,44 C31,42.343 29.657,41 28,41 C26.343,41 25,42.343 25,44 C25,45.317 25.854,46.424 27.035,46.827 C27.024,46.885 27,46.939 27,47 L27,49 C27,49.552 27.448,50 28,50 C28.552,50 29,49.552 29,49 L29,47 C29,46.939 28.976,46.885 28.965,46.827 C30.146,46.424 31,45.317 31,44" id="Fill-1941" fill="#7F5B53" sketch:type="MSShapeGroup"></path>
            <path d="M23,35 C23,32.243 25.243,30 28,30 C30.757,30 33,32.243 33,35 L33,37 L35,37 L35,35 C35,31.14 31.86,28 28,28 C24.14,28 21,31.14 21,35 L21,37 L23,37 L23,35" id="Fill-1942" fill="#BDC3C7" sketch:type="MSShapeGroup"></path>
        </g>
    </g>
</svg>