<?xml version="1.0" encoding="UTF-8" standalone="no"?>
<svg width="59px" height="57px" viewBox="0 0 59 57" version="1.1" xmlns="http://www.w3.org/2000/svg" xmlns:xlink="http://www.w3.org/1999/xlink" xmlns:sketch="http://www.bohemiancoding.com/sketch/ns">
    <!-- Generator: Sketch 3.2.2 (9983) - http://www.bohemiancoding.com/sketch -->
    <title>409 - Lock Album (Flat)</title>
    <desc>Created with Sketch.</desc>
    <defs></defs>
    <g id="Page-1" stroke="none" stroke-width="1" fill="none" fill-rule="evenodd" sketch:type="MSPage">
        <g id="409---Lock-Album-(Flat)" sketch:type="MSLayerGroup">
            <path d="M0,47 L56,47 L56,0 L0,0 L0,47 Z" id="Fill-1203" fill="#E04D60" sketch:type="MSShapeGroup"></path>
            <path d="M39.659,9.248 C39.443,9.058 39.153,8.971 38.87,9.009 L20.87,11.376 C20.372,11.441 20,11.865 20,12.367 L20,31.802 C18.831,30.783 17.246,30.153 15.5,30.153 C11.916,30.153 9,32.794 9,36.041 C9,39.288 11.916,41.93 15.5,41.93 C19.084,41.93 22,39.288 22,36.041 L22,18.244 L38,16.14 L38,26.542 C36.867,25.576 35.347,24.98 33.673,24.98 C30.185,24.98 27.347,27.552 27.347,30.714 C27.347,33.876 30.185,36.449 33.673,36.449 C37.162,36.449 40,33.876 40,30.714 L40,10 C40,9.712 39.876,9.438 39.659,9.248" id="Fill-1204" fill="#FFFFFF" sketch:type="MSShapeGroup"></path>
            <path d="M39,41 L59,41 L59,57 L39,57 L39,41 Z" id="Fill-2162" fill="#B1D3F0" sketch:type="MSShapeGroup"></path>
            <path d="M52,48 C52,46.343 50.657,45 49,45 C47.343,45 46,46.343 46,48 C46,49.317 46.854,50.424 48.035,50.827 C48.024,50.886 48,50.939 48,51 L48,53 C48,53.552 48.448,54 49,54 C49.552,54 50,53.552 50,53 L50,51 C50,50.939 49.976,50.886 49.965,50.827 C51.146,50.424 52,49.317 52,48" id="Fill-2163" fill="#556080" sketch:type="MSShapeGroup"></path>
            <path d="M44,39 C44,36.243 46.243,34 49,34 C51.757,34 54,36.243 54,39 L54,41 L56,41 L56,39 C56,35.14 52.86,32 49,32 C45.14,32 42,35.14 42,39 L42,41 L44,41 L44,39" id="Fill-2164" fill="#BDC3C7" sketch:type="MSShapeGroup"></path>
        </g>
    </g>
</svg>