<?xml version="1.0" encoding="UTF-8" standalone="no"?>
<svg width="60px" height="60px" viewBox="0 0 60 60" version="1.1" xmlns="http://www.w3.org/2000/svg" xmlns:xlink="http://www.w3.org/1999/xlink" xmlns:sketch="http://www.bohemiancoding.com/sketch/ns">
    <!-- Generator: Sketch 3.2.2 (9983) - http://www.bohemiancoding.com/sketch -->
    <title>29 - Lock Stopwatch (Flat)</title>
    <desc>Created with Sketch.</desc>
    <defs></defs>
    <g id="Page-1" stroke="none" stroke-width="1" fill="none" fill-rule="evenodd" sketch:type="MSPage">
        <g id="29---Lock-Stopwatch-(Flat)" sketch:type="MSLayerGroup">
            <path d="M59,29 C59,45.016 46.016,58 30,58 C13.984,58 1,45.016 1,29 C1,12.984 13.984,0 30,0 C46.016,0 59,12.984 59,29" id="Fill-554" fill="#3C97D3" sketch:type="MSShapeGroup"></path>
            <path d="M30,60 C13.458,60 0,46.542 0,30 C0,22.007 3.107,14.487 8.749,8.824 C9.528,8.039 10.796,8.039 11.577,8.819 C12.36,9.599 12.362,10.865 11.583,11.647 C6.693,16.555 4,23.072 4,30 C4,44.337 15.663,56 30,56 C44.337,56 56,44.337 56,30 C56,16.337 45.405,5.101 32,4.076 L32,14.833 C32,15.937 31.104,16.833 30,16.833 C28.896,16.833 28,15.937 28,14.833 L28,2 C28,0.896 28.896,0 30,0 C46.542,0 60,13.458 60,30 C60,46.542 46.542,60 30,60" id="Fill-555" fill="#B1D3F0" sketch:type="MSShapeGroup"></path>
            <path d="M20,20.121 L20,20.121 L32.944,29.484 C34.218,30.411 34.363,32.257 33.249,33.371 C32.135,34.484 30.29,34.34 29.363,33.066 L20,20.121" id="Fill-556" fill="#B1D3F0" sketch:type="MSShapeGroup"></path>
            <path d="M40,43.982 L60,43.982 L60,59.982 L40,59.982 L40,43.982 Z" id="Fill-2210" fill="#B1D3F0" sketch:type="MSShapeGroup"></path>
            <path d="M53,50.982 C53,49.325 51.657,47.982 50,47.982 C48.343,47.982 47,49.325 47,50.982 C47,52.299 47.854,53.406 49.035,53.809 C49.024,53.867 49,53.92 49,53.982 L49,55.982 C49,56.534 49.448,56.982 50,56.982 C50.552,56.982 51,56.534 51,55.982 L51,53.982 C51,53.92 50.976,53.867 50.965,53.809 C52.146,53.406 53,52.299 53,50.982" id="Fill-2211" fill="#556080" sketch:type="MSShapeGroup"></path>
            <path d="M45,41.982 C45,39.225 47.243,36.982 50,36.982 C52.757,36.982 55,39.225 55,41.982 L55,43.982 L57,43.982 L57,41.982 C57,38.122 53.86,34.982 50,34.982 C46.14,34.982 43,38.122 43,41.982 L43,43.982 L45,43.982 L45,41.982" id="Fill-2212" fill="#BDC3C7" sketch:type="MSShapeGroup"></path>
        </g>
    </g>
</svg>