<?xml version="1.0" encoding="UTF-8" standalone="no"?>
<svg width="58px" height="54px" viewBox="0 0 58 54" version="1.1" xmlns="http://www.w3.org/2000/svg" xmlns:xlink="http://www.w3.org/1999/xlink" xmlns:sketch="http://www.bohemiancoding.com/sketch/ns">
    <!-- Generator: Sketch 3.2.2 (9983) - http://www.bohemiancoding.com/sketch -->
    <title>229 - Lock Window (Flat)</title>
    <desc>Created with Sketch.</desc>
    <defs></defs>
    <g id="Page-1" stroke="none" stroke-width="1" fill="none" fill-rule="evenodd" sketch:type="MSPage">
        <g id="229---Lock-Window-(Flat)" sketch:type="MSLayerGroup">
            <path d="M0,14 L50,14 L50,49 L0,49 L0,14 Z" id="Fill-870" fill="#EDF0F1" sketch:type="MSShapeGroup"></path>
            <path d="M0,0 L50,0 L50,14 L0,14 L0,0 Z" id="Fill-871" fill="#546A79" sketch:type="MSShapeGroup"></path>
            <path d="M10,7 C10,8.657 8.657,10 7,10 C5.343,10 4,8.657 4,7 C4,5.343 5.343,4 7,4 C8.657,4 10,5.343 10,7" id="Fill-872" fill="#ED7061" sketch:type="MSShapeGroup"></path>
            <path d="M19,7 C19,8.657 17.657,10 16,10 C14.343,10 13,8.657 13,7 C13,5.343 14.343,4 16,4 C17.657,4 19,5.343 19,7" id="Fill-873" fill="#F0C41A" sketch:type="MSShapeGroup"></path>
            <path d="M28,7 C28,8.657 26.657,10 25,10 C23.343,10 22,8.657 22,7 C22,5.343 23.343,4 25,4 C26.657,4 28,5.343 28,7" id="Fill-874" fill="#4FBA6E" sketch:type="MSShapeGroup"></path>
            <path d="M38,38 L58,38 L58,54 L38,54 L38,38 Z" id="Fill-2474" fill="#B1D3F0" sketch:type="MSShapeGroup"></path>
            <path d="M51,45 C51,43.344 49.657,42 48,42 C46.343,42 45,43.344 45,45 C45,46.318 45.854,47.424 47.035,47.828 C47.024,47.886 47,47.939 47,48 L47,50 C47,50.552 47.448,51 48,51 C48.552,51 49,50.552 49,50 L49,48 C49,47.939 48.976,47.886 48.965,47.828 C50.146,47.424 51,46.318 51,45" id="Fill-2475" fill="#556080" sketch:type="MSShapeGroup"></path>
            <path d="M43,36 C43,33.243 45.243,31 48,31 C50.757,31 53,33.243 53,36 L53,38 L55,38 L55,36 C55,32.14 51.86,29 48,29 C44.14,29 41,32.14 41,36 L41,38 L43,38 L43,36" id="Fill-2476" fill="#BDC3C7" sketch:type="MSShapeGroup"></path>
        </g>
    </g>
</svg>