<?xml version="1.0" encoding="UTF-8" standalone="no"?>
<svg width="60px" height="49px" viewBox="0 0 60 49" version="1.1" xmlns="http://www.w3.org/2000/svg" xmlns:xlink="http://www.w3.org/1999/xlink" xmlns:sketch="http://www.bohemiancoding.com/sketch/ns">
    <!-- Generator: Sketch 3.2.2 (9983) - http://www.bohemiancoding.com/sketch -->
    <title>389 - Lock Cloud (Flat)</title>
    <desc>Created with Sketch.</desc>
    <defs></defs>
    <g id="Page-1" stroke="none" stroke-width="1" fill="none" fill-rule="evenodd" sketch:type="MSPage">
        <g id="389---Lock-Cloud-(Flat)" sketch:type="MSLayerGroup" transform="translate(1.000000, 1.000000)">
            <path d="M49.003,16 C48.889,7.301 41.811,0 33.085,0 C27.525,0 22.306,3.005 19.424,7.337 C18.157,6.494 16.636,6 15,6 C10.582,6 7,9.582 7,14 C7,14.153 7.014,14.303 7.023,14.454 C7.013,14.637 7,14.821 7,15 C3.012,16.912 0,21.457 0,26.155 C0,32.67 5.33,38 11.845,38 L36.352,38 C36.49,38 36.624,37.984 36.761,37.979 C36.897,37.985 37.031,38 37.169,38 L46.972,38 C53.037,38 58,33.038 58,26.972 C58,21.601 54.106,16.962 49.003,16 L49.003,16 Z" id="Fill-1121" fill="#91BAE1" sketch:type="MSShapeGroup"></path>
            <path d="M49.003,16 C48.889,7.301 41.811,0 33.085,0 C27.525,0 22.306,3.005 19.424,7.337 C18.157,6.494 16.636,6 15,6 C10.582,6 7,9.582 7,14 C7,14.153 7.014,14.303 7.023,14.454 C7.013,14.637 7,14.821 7,15 C3.012,16.912 0,21.457 0,26.155 C0,32.67 5.33,38 11.845,38 L36.352,38 C36.49,38 36.624,37.984 36.761,37.979 C36.897,37.985 37.031,38 37.169,38 L46.972,38 C53.037,38 58,33.038 58,26.972 C58,21.601 54.106,16.962 49.003,16 L49.003,16 Z" id="Stroke-1122" stroke="#8697CB" stroke-width="2" stroke-linecap="round" sketch:type="MSShapeGroup"></path>
            <path d="M49.003,16 C49.003,16 46.469,15.625 44,16" id="Fill-1123" fill="#91BAE1" sketch:type="MSShapeGroup"></path>
            <path d="M49.003,16 C49.003,16 46.469,15.625 44,16" id="Stroke-1124" stroke="#8697CB" stroke-width="2" stroke-linecap="round" sketch:type="MSShapeGroup"></path>
            <path d="M7,14 C7,9.582 10.582,6 15,6 C19.418,6 23,9.582 23,14" id="Fill-1125" fill="#91BAE1" sketch:type="MSShapeGroup"></path>
            <path d="M7,14 C7,9.582 10.582,6 15,6 C19.418,6 23,9.582 23,14" id="Stroke-1126" stroke="#8697CB" stroke-width="2" stroke-linecap="round" sketch:type="MSShapeGroup"></path>
            <path d="M20,32 L40,32 L40,48 L20,48 L20,32 Z" id="Fill-2647" fill="#B1D3F0" sketch:type="MSShapeGroup"></path>
            <path d="M33,39 C33,37.343 31.657,36 30,36 C28.343,36 27,37.343 27,39 C27,40.317 27.854,41.424 29.035,41.827 C29.024,41.886 29,41.939 29,42 L29,44 C29,44.552 29.448,45 30,45 C30.552,45 31,44.552 31,44 L31,42 C31,41.939 30.976,41.886 30.965,41.827 C32.146,41.424 33,40.317 33,39" id="Fill-2648" fill="#556080" sketch:type="MSShapeGroup"></path>
            <path d="M25,30 C25,27.243 27.243,25 30,25 C32.757,25 35,27.243 35,30 L35,32 L37,32 L37,30 C37,26.14 33.86,23 30,23 C26.14,23 23,26.14 23,30 L23,32 L25,32 L25,30" id="Fill-2649" fill="#FFFFFF" sketch:type="MSShapeGroup"></path>
        </g>
    </g>
</svg>