<?xml version="1.0" encoding="UTF-8" standalone="no"?>
<svg width="45px" height="59px" viewBox="0 0 45 59" version="1.1" xmlns="http://www.w3.org/2000/svg" xmlns:xlink="http://www.w3.org/1999/xlink" xmlns:sketch="http://www.bohemiancoding.com/sketch/ns">
    <!-- Generator: Sketch 3.2.2 (9983) - http://www.bohemiancoding.com/sketch -->
    <title>69 - Lock Smartphone (Flat)</title>
    <desc>Created with Sketch.</desc>
    <defs></defs>
    <g id="Page-1" stroke="none" stroke-width="1" fill="none" fill-rule="evenodd" sketch:type="MSPage">
        <g id="69---Lock-Smartphone-(Flat)" sketch:type="MSLayerGroup">
            <path d="M28.595,58 L3.405,58 C1.525,58 0,56.475 0,54.595 L0,3.405 C0,1.525 1.525,0 3.405,0 L28.595,0 C30.475,0 32,1.525 32,3.405 L32,54.595 C32,56.475 30.475,58 28.595,58" id="Fill-636" fill="#545E73" sketch:type="MSShapeGroup"></path>
            <path d="M0,6 L32,6 L32,46 L0,46 L0,6 Z" id="Fill-637" fill="#8697CB" sketch:type="MSShapeGroup"></path>
            <path d="M19,52 C19,53.657 17.657,55 16,55 C14.343,55 13,53.657 13,52 C13,50.344 14.343,49 16,49 C17.657,49 19,50.344 19,52" id="Fill-638" fill="#323A45" sketch:type="MSShapeGroup"></path>
            <path d="M16,4 L12,4 C11.447,4 11,3.553 11,3 C11,2.448 11.447,2 12,2 L16,2 C16.553,2 17,2.448 17,3 C17,3.553 16.553,4 16,4" id="Fill-639" fill="#323A45" sketch:type="MSShapeGroup"></path>
            <path d="M20,4 L19,4 C18.447,4 18,3.553 18,3 C18,2.448 18.447,2 19,2 L20,2 C20.553,2 21,2.448 21,3 C21,3.553 20.553,4 20,4" id="Fill-640" fill="#323A45" sketch:type="MSShapeGroup"></path>
            <path d="M24.39,42.982 L44.39,42.982 L44.39,58.982 L24.39,58.982 L24.39,42.982 Z" id="Fill-2158" fill="#B1D3F0" sketch:type="MSShapeGroup"></path>
            <path d="M37.39,49.982 C37.39,48.325 36.047,46.982 34.39,46.982 C32.733,46.982 31.39,48.325 31.39,49.982 C31.39,51.299 32.244,52.406 33.425,52.809 C33.414,52.867 33.39,52.92 33.39,52.982 L33.39,54.982 C33.39,55.534 33.837,55.982 34.39,55.982 C34.942,55.982 35.39,55.534 35.39,54.982 L35.39,52.982 C35.39,52.92 35.365,52.867 35.355,52.809 C36.535,52.406 37.39,51.299 37.39,49.982" id="Fill-2159" fill="#556080" sketch:type="MSShapeGroup"></path>
            <path d="M29.39,40.982 C29.39,38.225 31.633,35.982 34.39,35.982 C37.147,35.982 39.39,38.225 39.39,40.982 L39.39,42.982 L41.39,42.982 L41.39,40.982 C41.39,37.122 38.25,33.982 34.39,33.982 C30.53,33.982 27.39,37.122 27.39,40.982 L27.39,42.982 L29.39,42.982 L29.39,40.982" id="Fill-2160" fill="#BDC3C7" sketch:type="MSShapeGroup"></path>
        </g>
    </g>
</svg>