<?xml version="1.0" encoding="UTF-8" standalone="no"?>
<svg width="55px" height="58px" viewBox="0 0 55 58" version="1.1" xmlns="http://www.w3.org/2000/svg" xmlns:xlink="http://www.w3.org/1999/xlink" xmlns:sketch="http://www.bohemiancoding.com/sketch/ns">
    <!-- Generator: Sketch 3.2.2 (9983) - http://www.bohemiancoding.com/sketch -->
    <title>549 - Lock File (Flat)</title>
    <desc>Created with Sketch.</desc>
    <defs></defs>
    <g id="Page-1" stroke="none" stroke-width="1" fill="none" fill-rule="evenodd" sketch:type="MSPage">
        <g id="549---Lock-File-(Flat)" sketch:type="MSLayerGroup">
            <path d="M45,14 L31,0 L0,0 L0,58 L45,58 L45,14" id="Fill-1648" fill="#EFECDE" sketch:type="MSShapeGroup"></path>
            <path d="M10,23 L35,23 C35.552,23 36,22.553 36,22 C36,21.448 35.552,21 35,21 L10,21 C9.448,21 9,21.448 9,22 C9,22.553 9.448,23 10,23" id="Fill-1649" fill="#D5D0BB" sketch:type="MSShapeGroup"></path>
            <path d="M10,15 L20,15 C20.552,15 21,14.553 21,14 C21,13.448 20.552,13 20,13 L10,13 C9.448,13 9,13.448 9,14 C9,14.553 9.448,15 10,15" id="Fill-1650" fill="#D5D0BB" sketch:type="MSShapeGroup"></path>
            <path d="M35,29 L10,29 C9.448,29 9,29.448 9,30 C9,30.553 9.448,31 10,31 L35,31 C35.552,31 36,30.553 36,30 C36,29.448 35.552,29 35,29" id="Fill-1651" fill="#D5D0BB" sketch:type="MSShapeGroup"></path>
            <path d="M35,37 L10,37 C9.448,37 9,37.448 9,38 C9,38.553 9.448,39 10,39 L35,39 C35.552,39 36,38.553 36,38 C36,37.448 35.552,37 35,37" id="Fill-1652" fill="#D5D0BB" sketch:type="MSShapeGroup"></path>
            <path d="M35,45 L10,45 C9.448,45 9,45.448 9,46 C9,46.553 9.448,47 10,47 L35,47 C35.552,47 36,46.553 36,46 C36,45.448 35.552,45 35,45" id="Fill-1653" fill="#D5D0BB" sketch:type="MSShapeGroup"></path>
            <path d="M31,0 L31,14 L45,14 L31,0" id="Fill-1654" fill="#D5D0BB" sketch:type="MSShapeGroup"></path>
            <path d="M35,42 L55,42 L55,58 L35,58 L35,42 Z" id="Fill-1833" fill="#CCB292" sketch:type="MSShapeGroup"></path>
            <path d="M48,49 C48,47.343 46.657,46 45,46 C43.343,46 42,47.343 42,49 C42,50.317 42.854,51.424 44.035,51.827 C44.024,51.886 44,51.939 44,52 L44,54 C44,54.552 44.448,55 45,55 C45.552,55 46,54.552 46,54 L46,52 C46,51.939 45.976,51.886 45.965,51.827 C47.146,51.424 48,50.317 48,49" id="Fill-1834" fill="#7F5B53" sketch:type="MSShapeGroup"></path>
            <path d="M40,40 C40,37.243 42.243,35 45,35 C47.757,35 50,37.243 50,40 L50,42 L52,42 L52,40 C52,36.14 48.86,33 45,33 C41.14,33 38,36.14 38,40 L38,42 L40,42 L40,40" id="Fill-1835" fill="#BDC3C7" sketch:type="MSShapeGroup"></path>
        </g>
    </g>
</svg>