<?xml version="1.0" encoding="UTF-8" standalone="no"?>
<svg width="54px" height="54px" viewBox="0 0 54 54" version="1.1" xmlns="http://www.w3.org/2000/svg" xmlns:xlink="http://www.w3.org/1999/xlink" xmlns:sketch="http://www.bohemiancoding.com/sketch/ns">
    <!-- Generator: Sketch 3.2.2 (9983) - http://www.bohemiancoding.com/sketch -->
    <title>49 - Lock Phonecall (Flat)</title>
    <desc>Created with Sketch.</desc>
    <defs></defs>
    <g id="Page-1" stroke="none" stroke-width="1" fill="none" fill-rule="evenodd" sketch:type="MSPage">
        <g id="49---Lock-Phonecall-(Flat)" sketch:type="MSLayerGroup">
            <path d="M52.48,41.437 C50.582,37.849 43.581,33.746 43.581,33.746 C41.997,32.843 40.086,32.743 39.182,34.352 C39.182,34.353 36.908,37.08 36.329,37.472 C33.685,39.264 31.238,39.194 28.766,36.722 L17.28,25.236 C14.808,22.764 14.739,20.317 16.53,17.673 C16.922,17.094 19.65,14.82 19.65,14.82 C21.259,13.916 21.159,12.005 20.256,10.42 C20.256,10.42 16.153,3.42 12.565,1.522 C11.039,0.714 9.165,0.996 7.944,2.217 L5.408,4.754 C-2.638,12.799 1.323,21.882 9.369,29.928 L24.074,44.634 C32.119,52.679 41.203,56.64 49.248,48.594 L51.785,46.058 C53.006,44.836 53.288,42.962 52.48,41.437" id="Fill-257" fill="#69BC45" sketch:type="MSShapeGroup"></path>
            <path d="M53.364,40.969 C51.356,37.173 44.383,33.057 44.077,32.877 C43.181,32.367 42.246,32.097 41.371,32.097 C40.07,32.097 39.005,32.693 38.36,33.776 C37.34,34.996 36.074,36.422 35.768,36.644 C33.391,38.256 31.531,38.072 29.473,36.015 L17.987,24.528 C15.942,22.484 15.754,20.601 17.355,18.238 C17.578,17.929 19.005,16.663 20.225,15.642 C21.004,15.179 21.537,14.492 21.771,13.647 C22.082,12.525 21.853,11.202 21.118,9.915 C20.945,9.619 16.828,2.646 13.033,0.638 C12.324,0.263 11.527,0.065 10.727,0.065 C9.408,0.065 8.169,0.578 7.237,1.51 L4.7,4.047 C0.687,8.06 -0.767,12.609 0.38,17.567 C1.335,21.699 4.122,26.096 8.662,30.635 L23.367,45.34 C29.112,51.086 34.591,54 39.649,54 L39.65,54 C43.37,54 46.838,52.419 49.955,49.302 L52.492,46.765 C54.033,45.225 54.384,42.896 53.364,40.969 L53.364,40.969 Z M51.078,45.351 L48.541,47.888 C45.812,50.616 42.821,52 39.65,52 C35.14,52 30.138,49.284 24.781,43.926 L10.076,29.221 C5.805,24.95 3.198,20.877 2.328,17.116 C1.334,12.816 2.572,9.003 6.114,5.461 L8.652,2.924 C9.206,2.37 9.943,2.064 10.727,2.064 C11.202,2.064 11.676,2.183 12.097,2.405 C15.391,4.149 19.353,10.86 19.387,10.916 C19.836,11.703 20.007,12.525 19.843,13.112 C19.744,13.473 19.52,13.745 19.161,13.947 L19.009,14.052 C18.157,14.763 16.128,16.485 15.701,17.112 C15.089,18.017 14.684,18.905 14.471,19.778 C13.76,18.36 13.185,16.717 12.996,14.896 C12.939,14.349 12.45,13.966 11.899,14.005 C11.349,14.063 10.95,14.554 11.007,15.104 C11.729,22.057 17.136,26.583 17.366,26.772 C17.391,26.792 17.422,26.8 17.448,26.819 L28.059,37.429 C28.104,37.473 28.149,37.512 28.194,37.555 C28.229,37.607 28.253,37.666 28.299,37.712 C28.488,37.899 33.004,42.279 39.899,42.995 C39.934,42.998 39.968,43 40.003,43 C40.509,43 40.943,42.617 40.996,42.104 C41.053,41.554 40.654,41.063 40.105,41.005 C37.993,40.786 36.122,40.167 34.562,39.449 C35.324,39.218 36.1,38.835 36.889,38.3 C37.517,37.875 39.239,35.845 39.95,34.992 L40.054,34.841 C40.336,34.341 40.766,34.097 41.371,34.097 C41.891,34.097 42.5,34.281 43.076,34.608 C44.955,35.71 50.148,39.167 51.596,41.904 C52.202,43.05 51.994,44.435 51.078,45.351 L51.078,45.351 Z" id="Fill-258" fill="#449E46" sketch:type="MSShapeGroup"></path>
            <path d="M4,36 L24,36 L24,52 L4,52 L4,36 Z" id="Fill-2262" fill="#B1D3F0" sketch:type="MSShapeGroup"></path>
            <path d="M17,43 C17,41.343 15.657,40 14,40 C12.343,40 11,41.343 11,43 C11,44.318 11.854,45.424 13.035,45.827 C13.024,45.886 13,45.939 13,46 L13,48 C13,48.552 13.448,49 14,49 C14.552,49 15,48.552 15,48 L15,46 C15,45.939 14.976,45.886 14.965,45.827 C16.146,45.424 17,44.318 17,43" id="Fill-2263" fill="#556080" sketch:type="MSShapeGroup"></path>
            <path d="M9,34 C9,31.243 11.243,29 14,29 C16.757,29 19,31.243 19,34 L19,36 L21,36 L21,34 C21,30.14 17.86,27 14,27 C10.14,27 7,30.14 7,34 L7,36 L9,36 L9,34" id="Fill-2264" fill="#BDC3C7" sketch:type="MSShapeGroup"></path>
        </g>
    </g>
</svg>