<?xml version="1.0" encoding="UTF-8" standalone="no"?>
<svg width="55px" height="56px" viewBox="0 0 55 56" version="1.1" xmlns="http://www.w3.org/2000/svg" xmlns:xlink="http://www.w3.org/1999/xlink" xmlns:sketch="http://www.bohemiancoding.com/sketch/ns">
    <!-- Generator: Sketch 3.2.2 (9983) - http://www.bohemiancoding.com/sketch -->
    <title>476 - Map Warning (Flat)</title>
    <desc>Created with Sketch.</desc>
    <defs></defs>
    <g id="Page-1" stroke="none" stroke-width="1" fill="none" fill-rule="evenodd" sketch:type="MSPage">
        <g id="476---Map-Warning-(Flat)" sketch:type="MSLayerGroup">
            <path d="M18,21.243 L2.256,5.499 L0,6 L0,49 L2.099,48.534 L18,32.633 L18,21.243" id="Fill-1269" fill="#4FBA6E" sketch:type="MSShapeGroup"></path>
            <path d="M9.372,46.918 L18,45 L18,38.29 L9.372,46.918" id="Fill-1270" fill="#4AA0D8" sketch:type="MSShapeGroup"></path>
            <path d="M18,2 L6.884,4.47 L18,15.586 L18,2" id="Fill-1271" fill="#4FBA6E" sketch:type="MSShapeGroup"></path>
            <path d="M49.449,1.184 L35,6 L35,15.632 L49.449,1.184" id="Fill-1272" fill="#4FBA6E" sketch:type="MSShapeGroup"></path>
            <path d="M35,21.29 L35,48 L53,41 L53,3.29 L35,21.29" id="Fill-1273" fill="#4AA0D8" sketch:type="MSShapeGroup"></path>
            <path d="M26.523,24.109 L35,15.632 L35,6 L18,2 L18,15.586 L26.523,24.109" id="Fill-1274" fill="#4AA461" sketch:type="MSShapeGroup"></path>
            <path d="M18,21.243 L18,32.633 L23.695,26.938 L18,21.243" id="Fill-1275" fill="#4AA461" sketch:type="MSShapeGroup"></path>
            <path d="M18,38.29 L18,45 L35,48 L35,21.29 L18,38.29" id="Fill-1276" fill="#51A2C9" sketch:type="MSShapeGroup"></path>
            <path d="M18,15.586 L6.884,4.47 L2.256,5.499 L18,21.243 L18,15.586" id="Fill-1277" fill="#F4D65A" sketch:type="MSShapeGroup"></path>
            <path d="M18,32.633 L2.099,48.534 L9.372,46.918 L18,38.29 L18,32.633" id="Fill-1278" fill="#F4D65A" sketch:type="MSShapeGroup"></path>
            <path d="M35,21.29 L53,3.29 L53,0 L49.449,1.184 L35,15.632 L35,21.29" id="Fill-1279" fill="#F4D65A" sketch:type="MSShapeGroup"></path>
            <path d="M26.523,24.109 L18,15.586 L18,21.243 L23.695,26.938 L18,32.633 L18,38.29 L35,21.29 L35,15.632 L26.523,24.109" id="Fill-1280" fill="#DCBD56" sketch:type="MSShapeGroup"></path>
            <path d="M53.761,56 L30.07,56 C29.115,56 28.52,54.964 29.001,54.139 L40.846,33.833 C41.324,33.014 42.507,33.014 42.984,33.833 L54.83,54.139 C55.311,54.964 54.716,56 53.761,56" id="Fill-2623" fill="#F0C41A" sketch:type="MSShapeGroup"></path>
            <path d="M42,49 C41.448,49 41,48.552 41,48 L41,40 C41,39.448 41.448,39 42,39 C42.552,39 43,39.448 43,40 L43,48 C43,48.552 42.552,49 42,49" id="Fill-2624" fill="#FFFFFF" sketch:type="MSShapeGroup"></path>
            <path d="M42,53 C41.74,53 41.48,52.89 41.29,52.71 C41.11,52.52 41,52.26 41,52 C41,51.74 41.11,51.48 41.29,51.29 C41.67,50.92 42.33,50.92 42.71,51.29 C42.89,51.48 43,51.74 43,52 C43,52.26 42.89,52.52 42.71,52.71 C42.52,52.89 42.27,53 42,53" id="Fill-2625" fill="#FFFFFF" sketch:type="MSShapeGroup"></path>
        </g>
    </g>
</svg>