<?xml version="1.0" encoding="UTF-8" standalone="no"?>
<svg width="56px" height="58px" viewBox="0 0 56 58" version="1.1" xmlns="http://www.w3.org/2000/svg" xmlns:xlink="http://www.w3.org/1999/xlink" xmlns:sketch="http://www.bohemiancoding.com/sketch/ns">
    <!-- Generator: Sketch 3.2.2 (9983) - http://www.bohemiancoding.com/sketch -->
    <title>496 - Notes Warning (Flat)</title>
    <desc>Created with Sketch.</desc>
    <defs></defs>
    <g id="Page-1" stroke="none" stroke-width="1" fill="none" fill-rule="evenodd" sketch:type="MSPage">
        <g id="496---Notes-Warning-(Flat)" sketch:type="MSLayerGroup">
            <path d="M0,0 L44,0 L44,58 L0,58 L0,0 Z" id="Fill-1481" fill="#CCB292" sketch:type="MSShapeGroup"></path>
            <path d="M0,0 L8,0 L8,58 L0,58 L0,0 Z" id="Fill-1482" fill="#7F6E5D" sketch:type="MSShapeGroup"></path>
            <path d="M15,10 L37,10 L37,22 L15,22 L15,10 Z" id="Fill-1483" fill="#EFECDE" sketch:type="MSShapeGroup"></path>
            <path d="M19,13 L33,13 L33,15 L19,15 L19,13 Z" id="Fill-1484" fill="#D5D0BB" sketch:type="MSShapeGroup"></path>
            <path d="M19,17 L33,17 L33,19 L19,19 L19,17 Z" id="Fill-1485" fill="#D5D0BB" sketch:type="MSShapeGroup"></path>
            <path d="M54.761,58 L31.07,58 C30.115,58 29.52,56.964 30.001,56.139 L41.846,35.833 C42.324,35.014 43.507,35.014 43.984,35.833 L55.83,56.139 C56.311,56.964 55.716,58 54.761,58" id="Fill-2030" fill="#F0C41A" sketch:type="MSShapeGroup"></path>
            <path d="M43,51 C42.448,51 42,50.552 42,50 L42,42 C42,41.448 42.448,41 43,41 C43.552,41 44,41.448 44,42 L44,50 C44,50.552 43.552,51 43,51" id="Fill-2031" fill="#FFFFFF" sketch:type="MSShapeGroup"></path>
            <path d="M43,55 C42.74,55 42.48,54.89 42.29,54.71 C42.11,54.52 42,54.26 42,54 C42,53.74 42.11,53.48 42.29,53.29 C42.67,52.92 43.33,52.92 43.71,53.29 C43.89,53.48 44,53.74 44,54 C44,54.26 43.89,54.52 43.71,54.71 C43.52,54.89 43.27,55 43,55" id="Fill-2032" fill="#FFFFFF" sketch:type="MSShapeGroup"></path>
        </g>
    </g>
</svg>