<?xml version="1.0" encoding="UTF-8" standalone="no"?>
<svg width="54px" height="54px" viewBox="0 0 54 54" version="1.1" xmlns="http://www.w3.org/2000/svg" xmlns:xlink="http://www.w3.org/1999/xlink" xmlns:sketch="http://www.bohemiancoding.com/sketch/ns">
    <!-- Generator: Sketch 3.2.2 (9983) - http://www.bohemiancoding.com/sketch -->
    <title>51 - Phonecall Settings (Flat)</title>
    <desc>Created with Sketch.</desc>
    <defs></defs>
    <g id="Page-1" stroke="none" stroke-width="1" fill="none" fill-rule="evenodd" sketch:type="MSPage">
        <g id="51---Phonecall-Settings-(Flat)" sketch:type="MSLayerGroup">
            <path d="M52.538,41.437 C50.639,37.849 43.639,33.746 43.639,33.746 C42.054,32.843 40.143,32.743 39.24,34.352 C39.24,34.353 36.965,37.08 36.386,37.472 C33.743,39.264 31.295,39.194 28.824,36.722 L17.337,25.236 C14.866,22.764 14.796,20.317 16.587,17.673 C16.979,17.094 19.707,14.82 19.707,14.82 C21.317,13.916 21.217,12.005 20.313,10.42 C20.313,10.42 16.21,3.42 12.623,1.522 C11.097,0.714 9.223,0.996 8.002,2.217 L5.465,4.754 C-2.58,12.799 1.381,21.882 9.426,29.928 L24.131,44.634 C32.177,52.679 41.26,56.64 49.305,48.594 L51.843,46.058 C53.063,44.836 53.345,42.962 52.538,41.437" id="Fill-273" fill="#69BC45" sketch:type="MSShapeGroup"></path>
            <path d="M53.421,40.969 C51.413,37.173 44.44,33.057 44.134,32.877 C43.239,32.367 42.303,32.097 41.429,32.097 C40.128,32.097 39.063,32.693 38.417,33.776 C37.397,34.996 36.132,36.422 35.825,36.644 C33.449,38.256 31.588,38.072 29.531,36.015 L18.044,24.528 C16,22.484 15.812,20.601 17.412,18.238 C17.636,17.929 19.062,16.663 20.283,15.642 C21.061,15.179 21.594,14.492 21.828,13.647 C22.14,12.525 21.91,11.202 21.176,9.915 C21.002,9.619 16.886,2.646 13.09,0.638 C12.382,0.263 11.584,0.065 10.784,0.065 C9.466,0.065 8.227,0.578 7.295,1.51 L4.758,4.047 C0.744,8.06 -0.709,12.609 0.437,17.567 C1.393,21.699 4.179,26.096 8.719,30.635 L23.424,45.34 C29.17,51.086 34.648,54 39.707,54 L39.708,54 C43.428,54 46.896,52.419 50.013,49.302 L52.549,46.765 C54.09,45.225 54.441,42.896 53.421,40.969 L53.421,40.969 Z M51.135,45.351 L48.599,47.888 C45.87,50.616 42.878,52 39.708,52 L39.707,52 C35.198,52 30.195,49.284 24.838,43.926 L10.133,29.221 C5.862,24.95 3.255,20.877 2.386,17.116 C1.391,12.816 2.63,9.003 6.172,5.461 L8.709,2.924 C9.263,2.37 10,2.064 10.784,2.064 C11.26,2.064 11.733,2.183 12.155,2.405 C15.449,4.149 19.411,10.86 19.445,10.916 C19.893,11.703 20.064,12.525 19.901,13.112 C19.801,13.473 19.578,13.745 19.218,13.947 L19.067,14.052 C18.214,14.763 16.185,16.485 15.759,17.112 C15.147,18.017 14.741,18.905 14.529,19.778 C13.818,18.36 13.243,16.717 13.054,14.896 C12.997,14.349 12.508,13.966 11.956,14.005 C11.407,14.063 11.007,14.554 11.064,15.104 C11.786,22.057 17.193,26.583 17.423,26.772 C17.448,26.792 17.479,26.8 17.506,26.819 L28.117,37.429 C28.161,37.473 28.206,37.512 28.251,37.555 C28.287,37.607 28.31,37.666 28.357,37.712 C28.546,37.899 33.061,42.279 39.956,42.995 C39.991,42.998 40.026,43 40.06,43 C40.566,43 41,42.617 41.054,42.104 C41.111,41.554 40.711,41.063 40.162,41.005 C38.051,40.786 36.179,40.167 34.619,39.449 C35.382,39.218 36.157,38.835 36.947,38.3 C37.575,37.875 39.296,35.845 40.008,34.992 L40.112,34.841 C40.393,34.341 40.824,34.097 41.429,34.097 C41.949,34.097 42.558,34.281 43.133,34.608 C45.012,35.71 50.206,39.167 51.654,41.904 C52.26,43.05 52.051,44.435 51.135,45.351 L51.135,45.351 Z" id="Fill-274" fill="#449E46" sketch:type="MSShapeGroup"></path>
            <path d="M24,38.846 L22.556,38.568 C20.413,38.157 19.431,35.653 20.721,33.893 L21.627,32.657 L19.669,30.699 L18.452,31.524 C16.646,32.747 14.18,31.672 13.849,29.515 L13.615,28 L10.846,28 L10.488,29.865 C10.084,31.96 7.669,32.961 5.903,31.764 L4.331,30.699 L2.373,32.657 L3.279,33.893 C4.569,35.653 3.587,38.157 1.444,38.568 L0,38.846 L0,41.615 L1.515,41.849 C3.672,42.181 4.747,44.646 3.523,46.452 L2.699,47.67 L4.657,49.628 L5.893,48.721 C7.653,47.431 10.156,48.414 10.568,50.556 L10.846,52 L13.615,52 L13.779,50.935 C14.119,48.73 16.675,47.671 18.474,48.99 L19.343,49.628 L21.301,47.67 L20.477,46.452 C19.253,44.646 20.328,42.181 22.485,41.849 L24,41.615 L24,38.846" id="Fill-2293" fill="#BDC3C7" sketch:type="MSShapeGroup"></path>
            <path d="M16,40 C16,42.209 14.209,44 12,44 C9.791,44 8,42.209 8,40 C8,37.791 9.791,36 12,36 C14.209,36 16,37.791 16,40 L16,40 Z" id="Fill-2294" fill="#FFFFFF" sketch:type="MSShapeGroup"></path>
            <path d="M16,40 C16,42.209 14.209,44 12,44 C9.791,44 8,42.209 8,40 C8,37.791 9.791,36 12,36 C14.209,36 16,37.791 16,40 L16,40 Z" id="Stroke-2295" stroke="#EDF0F1" stroke-width="2" sketch:type="MSShapeGroup"></path>
        </g>
    </g>
</svg>