<?xml version="1.0" encoding="UTF-8" standalone="no"?>
<svg width="55px" height="54px" viewBox="0 0 55 54" version="1.1" xmlns="http://www.w3.org/2000/svg" xmlns:xlink="http://www.w3.org/1999/xlink" xmlns:sketch="http://www.bohemiancoding.com/sketch/ns">
    <!-- Generator: Sketch 3.2.2 (9983) - http://www.bohemiancoding.com/sketch -->
    <title>56 - Phonecall Warning (Flat)</title>
    <desc>Created with Sketch.</desc>
    <defs></defs>
    <g id="Page-1" stroke="none" stroke-width="1" fill="none" fill-rule="evenodd" sketch:type="MSPage">
        <g id="56---Phonecall-Warning-(Flat)" sketch:type="MSLayerGroup">
            <path d="M53.595,41.437 C51.697,37.849 44.696,33.746 44.696,33.746 C43.112,32.843 41.201,32.743 40.297,34.352 C40.297,34.353 38.023,37.08 37.444,37.472 C34.8,39.264 32.353,39.194 29.881,36.722 L18.395,25.236 C15.923,22.764 15.854,20.317 17.645,17.673 C18.037,17.094 20.765,14.82 20.765,14.82 C22.374,13.916 22.274,12.005 21.371,10.42 C21.371,10.42 17.268,3.42 13.68,1.522 C12.154,0.714 10.28,0.996 9.059,2.217 L6.522,4.754 C-1.523,12.799 2.438,21.882 10.484,29.928 L25.189,44.634 C33.234,52.679 42.318,56.64 50.363,48.594 L52.9,46.058 C54.121,44.836 54.403,42.962 53.595,41.437" id="Fill-249" fill="#69BC45" sketch:type="MSShapeGroup"></path>
            <path d="M54.479,40.969 C52.471,37.173 45.497,33.057 45.192,32.877 C44.296,32.367 43.361,32.097 42.486,32.097 C41.185,32.097 40.12,32.693 39.475,33.776 C38.455,34.996 37.189,36.422 36.883,36.644 C34.506,38.256 32.646,38.072 30.588,36.015 L19.101,24.528 C17.057,22.484 16.869,20.601 18.47,18.238 C18.693,17.929 20.12,16.663 21.34,15.642 C22.119,15.179 22.652,14.492 22.886,13.647 C23.197,12.525 22.968,11.202 22.233,9.915 C22.06,9.619 17.943,2.646 14.148,0.638 C13.439,0.263 12.642,0.065 11.842,0.065 C10.523,0.065 9.284,0.578 8.352,1.51 L5.815,4.047 C1.802,8.06 0.348,12.609 1.495,17.567 C2.45,21.699 5.237,26.096 9.777,30.635 L24.482,45.34 C30.227,51.086 35.705,54 40.764,54 L40.765,54 C44.485,54 47.953,52.419 51.07,49.302 L53.607,46.765 C55.148,45.225 55.498,42.896 54.479,40.969 L54.479,40.969 Z M52.193,45.351 L49.656,47.888 C46.927,50.616 43.936,52 40.765,52 L40.764,52 C36.255,52 31.253,49.284 25.896,43.926 L11.191,29.221 C6.92,24.95 4.313,20.877 3.443,17.116 C2.449,12.816 3.687,9.003 7.229,5.461 L9.766,2.924 C10.321,2.37 11.058,2.064 11.842,2.064 C12.317,2.064 12.791,2.183 13.212,2.405 C16.506,4.149 20.468,10.86 20.502,10.916 C20.951,11.703 21.121,12.525 20.958,13.112 C20.859,13.473 20.635,13.745 20.276,13.947 L20.124,14.052 C19.272,14.763 17.242,16.485 16.816,17.112 C16.204,18.017 15.799,18.905 15.586,19.778 C14.875,18.36 14.3,16.717 14.111,14.896 C14.054,14.349 13.565,13.966 13.013,14.005 C12.464,14.063 12.065,14.554 12.122,15.104 C12.844,22.057 18.251,26.583 18.481,26.772 C18.506,26.792 18.536,26.8 18.563,26.819 L29.174,37.429 C29.219,37.473 29.264,37.512 29.308,37.555 C29.344,37.607 29.367,37.666 29.414,37.712 C29.603,37.899 34.119,42.279 41.013,42.995 C41.049,42.998 41.083,43 41.117,43 C41.624,43 42.058,42.617 42.111,42.104 C42.168,41.554 41.769,41.063 41.22,41.005 C39.108,40.786 37.237,40.167 35.677,39.449 C36.439,39.218 37.215,38.835 38.004,38.3 C38.632,37.875 40.354,35.845 41.065,34.992 L41.169,34.841 C41.451,34.341 41.881,34.097 42.486,34.097 C43.006,34.097 43.615,34.281 44.191,34.608 C46.07,35.71 51.263,39.167 52.711,41.904 C53.317,43.05 53.109,44.435 52.193,45.351 L52.193,45.351 Z" id="Fill-250" fill="#449E46" sketch:type="MSShapeGroup"></path>
            <path d="M25.761,48 L2.07,48 C1.115,48 0.52,46.964 1.001,46.139 L12.846,25.833 C13.324,25.014 14.507,25.014 14.984,25.833 L26.83,46.139 C27.311,46.964 26.716,48 25.761,48" id="Fill-2286" fill="#F0C41A" sketch:type="MSShapeGroup"></path>
            <path d="M14,41 C13.448,41 13,40.553 13,40 L13,32 C13,31.448 13.448,31 14,31 C14.552,31 15,31.448 15,32 L15,40 C15,40.553 14.552,41 14,41" id="Fill-2287" fill="#FFFFFF" sketch:type="MSShapeGroup"></path>
            <path d="M14,45 C13.74,45 13.48,44.89 13.29,44.71 C13.11,44.52 13,44.26 13,44 C13,43.74 13.11,43.48 13.29,43.29 C13.67,42.92 14.33,42.92 14.71,43.29 C14.89,43.48 15,43.74 15,44 C15,44.26 14.89,44.52 14.71,44.71 C14.52,44.89 14.27,45 14,45" id="Fill-2288" fill="#FFFFFF" sketch:type="MSShapeGroup"></path>
        </g>
    </g>
</svg>