<?xml version="1.0" encoding="UTF-8" standalone="no"?>
<svg width="60px" height="53px" viewBox="0 0 60 53" version="1.1" xmlns="http://www.w3.org/2000/svg" xmlns:xlink="http://www.w3.org/1999/xlink" xmlns:sketch="http://www.bohemiancoding.com/sketch/ns">
    <!-- Generator: Sketch 3.2.2 (9983) - http://www.bohemiancoding.com/sketch -->
    <title>436 - Picture Warning (Flat)</title>
    <desc>Created with Sketch.</desc>
    <defs></defs>
    <g id="Page-1" stroke="none" stroke-width="1" fill="none" fill-rule="evenodd" sketch:type="MSPage">
        <g id="436---Picture-Warning-(Flat)" sketch:type="MSLayerGroup" transform="translate(1.000000, 1.000000)">
            <path d="M0,0 L55,0 L55,42 L0,42 L0,0 Z" id="Fill-456" fill="#EDF0F1" sketch:type="MSShapeGroup"></path>
            <path d="M0,0 L55,0 L55,42 L0,42 L0,0 Z" id="Stroke-457" stroke="#545E73" stroke-width="2" sketch:type="MSShapeGroup"></path>
            <path d="M4,4 L51,4 L51,38 L4,38 L4,4 Z" id="Fill-458" fill="#545E73" sketch:type="MSShapeGroup"></path>
            <path d="M4,4 L51,4 L51,38 L4,38 L4,4 Z" id="Stroke-459" stroke="#EDF0F1" stroke-width="2" sketch:type="MSShapeGroup"></path>
            <path d="M18.569,12.569 C18.569,15.093 16.523,17.138 14,17.138 C11.477,17.138 9.431,15.093 9.431,12.569 C9.431,10.046 11.477,8 14,8 C16.523,8 18.569,10.046 18.569,12.569" id="Fill-460" fill="#F4D65A" sketch:type="MSShapeGroup"></path>
            <path d="M50,28.111 L49,27 L37,16 L26.5,27.5 L36,37 L50,37 L50,28.111" id="Fill-461" fill="#11A085" sketch:type="MSShapeGroup"></path>
            <path d="M5,37 L36,37 L21.017,22.017 L5,36 L5,37" id="Fill-462" fill="#26B99A" sketch:type="MSShapeGroup"></path>
            <path d="M57.761,52 L34.07,52 C33.115,52 32.52,50.964 33.001,50.139 L44.846,29.833 C45.324,29.014 46.507,29.014 46.984,29.833 L58.83,50.139 C59.311,50.964 58.716,52 57.761,52" id="Fill-2134" fill="#F0C41A" sketch:type="MSShapeGroup"></path>
            <path d="M46,45 C45.448,45 45,44.552 45,44 L45,36 C45,35.448 45.448,35 46,35 C46.552,35 47,35.448 47,36 L47,44 C47,44.552 46.552,45 46,45" id="Fill-2135" fill="#FFFFFF" sketch:type="MSShapeGroup"></path>
            <path d="M46,49 C45.74,49 45.48,48.89 45.29,48.71 C45.11,48.52 45,48.26 45,48 C45,47.74 45.11,47.48 45.29,47.29 C45.67,46.92 46.33,46.92 46.71,47.29 C46.89,47.48 47,47.74 47,48 C47,48.26 46.89,48.52 46.71,48.71 C46.52,48.89 46.27,49 46,49" id="Fill-2136" fill="#FFFFFF" sketch:type="MSShapeGroup"></path>
        </g>
    </g>
</svg>