<?xml version="1.0" encoding="UTF-8" standalone="no"?>
<svg width="59px" height="56px" viewBox="0 0 59 56" version="1.1" xmlns="http://www.w3.org/2000/svg" xmlns:xlink="http://www.w3.org/1999/xlink" xmlns:sketch="http://www.bohemiancoding.com/sketch/ns">
    <!-- Generator: Sketch 3.2.2 (9983) - http://www.bohemiancoding.com/sketch -->
    <title>331 - Profiles Settings (Flat)</title>
    <desc>Created with Sketch.</desc>
    <defs></defs>
    <g id="Page-1" stroke="none" stroke-width="1" fill="none" fill-rule="evenodd" sketch:type="MSPage">
        <g id="331---Profiles-Settings-(Flat)" sketch:type="MSLayerGroup">
            <path d="M53.566,42.783 L44.014,38.007 C42.78,37.39 42,36.129 42,34.749 L42,31 C42.268,30.695 42.576,30.302 42.904,29.838 C44.205,28 45.19,25.977 45.873,23.855 C47.098,23.477 48,22.345 48,21 L48,17 C48,16.12 47.609,15.333 47,14.783 L47,9 C47,9 48.187,0 36,0 C23.813,0 25,9 25,9 L25,14.783 C24.391,15.333 24,16.12 24,17 L24,21 C24,22.054 24.554,22.982 25.383,23.517 C26.382,27.869 29,31 29,31 L29,34.656 C29,35.989 28.272,37.216 27.101,37.854 L18.18,42.72 C15.603,44.126 14,46.826 14,49.762 L14,53 L58,53 L58,49.957 C58,46.919 56.283,44.142 53.566,42.783" id="Fill-673" fill="#8697CB" sketch:type="MSShapeGroup"></path>
            <path d="M18.18,42.72 L24.126,39.477 C24.092,39.444 24.12,39.434 24.191,39.441 L27.101,37.854 C28.272,37.216 29,35.989 29,34.656 L29,31 C29,31 27.938,29.726 26.908,27.678 C26.907,27.677 26.906,27.675 26.906,27.675 C26.772,27.407 26.639,27.124 26.508,26.831 C26.49,26.79 26.472,26.751 26.454,26.71 C26.321,26.407 26.191,26.094 26.067,25.767 C26.059,25.746 26.052,25.723 26.044,25.702 C25.936,25.412 25.835,25.112 25.738,24.806 C25.712,24.722 25.686,24.639 25.661,24.555 C25.56,24.217 25.464,23.872 25.383,23.517 C24.554,22.982 24,22.054 24,21 L24,17 C24,16.12 24.391,15.333 25,14.783 L25,9.136 C23.587,8.039 21.397,7 18,7 C8.438,7 8,15 8,15 L8,19.995 C7.474,20.47 7,21.149 7,21.909 L7,25.364 C7,26.274 7.479,27.075 8.194,27.537 C9.057,31.296 11.954,34 11.954,34 L11.954,37.157 C11.954,38.308 11.326,39.368 10.315,39.919 L3.61,44.122 C1.385,45.336 0,47.668 0,50.203 L0,53 L14,53 L14,49.762 C14,46.826 15.603,44.126 18.18,42.72" id="Fill-674" fill="#556080" sketch:type="MSShapeGroup"></path>
            <path d="M59,42.846 L57.556,42.569 C55.413,42.157 54.431,39.653 55.721,37.893 L56.627,36.657 L54.669,34.699 L53.452,35.524 C51.646,36.748 49.18,35.672 48.849,33.515 L48.615,32 L45.846,32 L45.488,33.865 C45.084,35.96 42.67,36.961 40.903,35.764 L39.331,34.699 L37.373,36.657 L38.279,37.893 C39.569,39.653 38.587,42.157 36.444,42.569 L35,42.846 L35,45.616 L36.515,45.849 C38.672,46.181 39.747,48.646 38.523,50.452 L37.699,51.669 L39.657,53.628 L40.893,52.721 C42.653,51.431 45.156,52.413 45.569,54.556 L45.846,56 L48.615,56 L48.779,54.935 C49.119,52.73 51.675,51.671 53.474,52.99 L54.343,53.628 L56.301,51.669 L55.477,50.452 C54.253,48.646 55.328,46.181 57.485,45.849 L59,45.616 L59,42.846" id="Fill-2349" fill="#556080" sketch:type="MSShapeGroup"></path>
            <path d="M51,44 C51,46.209 49.209,48 47,48 C44.791,48 43,46.209 43,44 C43,41.791 44.791,40 47,40 C49.209,40 51,41.791 51,44 L51,44 Z" id="Fill-2350" fill="#FFFFFF" sketch:type="MSShapeGroup"></path>
            <path d="M51,44 C51,46.209 49.209,48 47,48 C44.791,48 43,46.209 43,44 C43,41.791 44.791,40 47,40 C49.209,40 51,41.791 51,44 L51,44 Z" id="Stroke-2351" stroke="#EDF0F1" stroke-width="2" sketch:type="MSShapeGroup"></path>
        </g>
    </g>
</svg>