<?xml version="1.0" encoding="UTF-8" standalone="no"?>
<svg width="59px" height="57px" viewBox="0 0 59 57" version="1.1" xmlns="http://www.w3.org/2000/svg" xmlns:xlink="http://www.w3.org/1999/xlink" xmlns:sketch="http://www.bohemiancoding.com/sketch/ns">
    <!-- Generator: Sketch 3.2.2 (9983) - http://www.bohemiancoding.com/sketch -->
    <title>376 - Profile Warning (Flat)</title>
    <desc>Created with Sketch.</desc>
    <defs></defs>
    <g id="Page-1" stroke="none" stroke-width="1" fill="none" fill-rule="evenodd" sketch:type="MSPage">
        <g id="376---Profile-Warning-(Flat)" sketch:type="MSLayerGroup">
            <path d="M11.487,44.641 L20.6,40.733 C21.094,40.486 21.496,39.689 21.779,39.119 C22.034,38.605 21.653,38 21.079,38 L14.634,38 C14.634,38 12.304,37.772 10.507,37 C9.455,36.548 9.092,35.951 9.75,35.014 C11.675,32.274 15.654,25.822 15.783,19.159 C15.783,19.158 16.003,8.902 26.123,8.818 C32.027,8.867 34.815,12.342 36.113,15.229 C36.838,16.84 37.148,18.596 37.265,20.358 C37.684,26.709 40.919,32.517 42.426,35 C42.937,35.843 42.69,36.964 41.845,37.469 C40.458,38.298 38.761,38 38.761,38 L32.273,38 C31.64,38 31.36,38.886 31.857,39.279 C32.263,39.599 32.65,39.888 32.859,40.002 L40.44,44.589 C41.534,45.186 42.407,46.072 43,47.119 C38.451,50.795 32.664,53 26.36,53 C19.785,53 13.775,50.601 9.143,46.637 C9.749,45.812 10.537,45.116 11.487,44.641" id="Fill-583" fill="#EDF0F1" sketch:type="MSShapeGroup"></path>
            <path d="M26.5,0 C11.864,0 0,11.865 0,26.5 C0,34.522 3.57,41.706 9.202,46.566 C9.799,45.773 10.565,45.102 11.487,44.641 L20.6,40.733 C21.094,40.486 21.496,39.689 21.779,39.119 C22.034,38.605 21.653,38 21.079,38 L14.634,38 C14.634,38 12.304,37.772 10.507,37 C9.455,36.548 9.092,35.951 9.75,35.014 C11.675,32.274 15.654,25.822 15.783,19.159 C15.783,19.158 16.003,8.902 26.123,8.818 C32.027,8.867 34.815,12.342 36.113,15.229 C36.838,16.84 37.148,18.596 37.265,20.358 C37.684,26.709 40.919,32.517 42.426,35 C42.937,35.843 42.69,36.964 41.845,37.469 C40.458,38.298 38.761,38 38.761,38 L32.273,38 C31.64,38 31.36,38.886 31.857,39.279 C32.263,39.599 32.65,39.888 32.859,40.002 L40.44,44.589 C41.525,45.181 42.391,46.059 42.984,47.094 C43.01,47.12 43.039,47.143 43.064,47.17 C49.117,42.313 53,34.864 53,26.5 C53,11.865 41.136,0 26.5,0" id="Fill-584" fill="#556080" sketch:type="MSShapeGroup"></path>
            <path d="M57.761,57 L34.07,57 C33.115,57 32.52,55.964 33.001,55.139 L44.846,34.833 C45.324,34.014 46.507,34.014 46.984,34.833 L58.83,55.139 C59.311,55.964 58.716,57 57.761,57" id="Fill-2238" fill="#F0C41A" sketch:type="MSShapeGroup"></path>
            <path d="M46,50 C45.448,50 45,49.552 45,49 L45,41 C45,40.448 45.448,40 46,40 C46.552,40 47,40.448 47,41 L47,49 C47,49.552 46.552,50 46,50" id="Fill-2239" fill="#FFFFFF" sketch:type="MSShapeGroup"></path>
            <path d="M46,54 C45.74,54 45.48,53.89 45.29,53.71 C45.11,53.52 45,53.26 45,53 C45,52.74 45.11,52.48 45.29,52.29 C45.67,51.92 46.33,51.92 46.71,52.29 C46.89,52.48 47,52.74 47,53 C47,53.26 46.89,53.52 46.71,53.71 C46.52,53.89 46.27,54 46,54" id="Fill-2240" fill="#FFFFFF" sketch:type="MSShapeGroup"></path>
        </g>
    </g>
</svg>