<?xml version="1.0" encoding="UTF-8" standalone="no"?>
<svg width="59px" height="57px" viewBox="0 0 59 57" version="1.1" xmlns="http://www.w3.org/2000/svg" xmlns:xlink="http://www.w3.org/1999/xlink" xmlns:sketch="http://www.bohemiancoding.com/sketch/ns">
    <!-- Generator: Sketch 3.2.2 (9983) - http://www.bohemiancoding.com/sketch -->
    <title>371 - Profile Settings (Flat)</title>
    <desc>Created with Sketch.</desc>
    <defs></defs>
    <g id="Page-1" stroke="none" stroke-width="1" fill="none" fill-rule="evenodd" sketch:type="MSPage">
        <g id="371---Profile-Settings-(Flat)" sketch:type="MSLayerGroup">
            <path d="M11.487,44.641 L20.6,40.733 C21.094,40.486 21.496,39.689 21.779,39.119 C22.034,38.605 21.653,38 21.079,38 L14.634,38 C14.634,38 12.304,37.772 10.507,37 C9.455,36.548 9.092,35.951 9.75,35.014 C11.675,32.274 15.654,25.822 15.783,19.159 C15.783,19.158 16.004,8.902 26.123,8.818 C32.027,8.867 34.815,12.342 36.113,15.229 C36.838,16.84 37.148,18.596 37.265,20.358 C37.685,26.709 40.919,32.517 42.426,35 C42.937,35.843 42.69,36.964 41.845,37.469 C40.458,38.298 38.762,38 38.762,38 L32.273,38 C31.64,38 31.36,38.886 31.857,39.279 C32.263,39.599 32.65,39.888 32.86,40.002 L40.439,44.589 C41.534,45.186 42.407,46.072 43,47.119 C38.451,50.795 32.664,53 26.359,53 C19.785,53 13.775,50.601 9.143,46.637 C9.749,45.812 10.537,45.116 11.487,44.641" id="Fill-593" fill="#EDF0F1" sketch:type="MSShapeGroup"></path>
            <path d="M26.5,0 C11.865,0 0,11.865 0,26.5 C0,34.522 3.57,41.706 9.202,46.566 C9.8,45.773 10.565,45.102 11.487,44.641 L20.6,40.733 C21.094,40.486 21.496,39.689 21.779,39.119 C22.034,38.605 21.653,38 21.079,38 L14.634,38 C14.634,38 12.304,37.772 10.507,37 C9.455,36.548 9.092,35.951 9.75,35.014 C11.675,32.274 15.654,25.822 15.783,19.159 C15.783,19.158 16.004,8.902 26.123,8.818 C32.027,8.867 34.815,12.342 36.113,15.229 C36.838,16.84 37.148,18.596 37.265,20.358 C37.685,26.709 40.919,32.517 42.426,35 C42.937,35.843 42.69,36.964 41.845,37.469 C40.458,38.298 38.762,38 38.762,38 L32.273,38 C31.64,38 31.36,38.886 31.857,39.279 C32.263,39.599 32.65,39.888 32.86,40.002 L40.439,44.589 C41.525,45.181 42.391,46.059 42.984,47.094 C43.01,47.12 43.039,47.143 43.064,47.17 C49.117,42.313 53,34.864 53,26.5 C53,11.865 41.136,0 26.5,0" id="Fill-594" fill="#556080" sketch:type="MSShapeGroup"></path>
            <path d="M59,43.846 L57.556,43.569 C55.413,43.157 54.431,40.653 55.721,38.893 L56.627,37.657 L54.669,35.699 L53.452,36.524 C51.646,37.748 49.18,36.672 48.849,34.515 L48.615,33 L45.846,33 L45.488,34.865 C45.084,36.961 42.67,37.961 40.903,36.764 L39.331,35.699 L37.373,37.657 L38.279,38.893 C39.569,40.653 38.587,43.157 36.444,43.569 L35,43.846 L35,46.616 L36.515,46.849 C38.672,47.181 39.747,49.646 38.523,51.452 L37.699,52.67 L39.657,54.628 L40.893,53.721 C42.653,52.431 45.156,53.413 45.569,55.556 L45.846,57 L48.615,57 L48.779,55.935 C49.119,53.73 51.675,52.671 53.474,53.99 L54.343,54.628 L56.301,52.67 L55.477,51.452 C54.253,49.646 55.328,47.181 57.485,46.849 L59,46.616 L59,43.846" id="Fill-2245" fill="#BDC3C7" sketch:type="MSShapeGroup"></path>
            <path d="M51,45 C51,47.209 49.209,49 47,49 C44.791,49 43,47.209 43,45 C43,42.791 44.791,41 47,41 C49.209,41 51,42.791 51,45 L51,45 Z" id="Fill-2246" fill="#FFFFFF" sketch:type="MSShapeGroup"></path>
            <path d="M51,45 C51,47.209 49.209,49 47,49 C44.791,49 43,47.209 43,45 C43,42.791 44.791,41 47,41 C49.209,41 51,42.791 51,45 L51,45 Z" id="Stroke-2247" stroke="#EDF0F1" stroke-width="2" sketch:type="MSShapeGroup"></path>
        </g>
    </g>
</svg>