<?xml version="1.0" encoding="UTF-8" standalone="no"?>
<svg width="58px" height="58px" viewBox="0 0 58 58" version="1.1" xmlns="http://www.w3.org/2000/svg" xmlns:xlink="http://www.w3.org/1999/xlink" xmlns:sketch="http://www.bohemiancoding.com/sketch/ns">
    <!-- Generator: Sketch 3.2.2 (9983) - http://www.bohemiancoding.com/sketch -->
    <title>4 - Refresh Clock (Flat)</title>
    <desc>Created with Sketch.</desc>
    <defs></defs>
    <g id="Page-1" stroke="none" stroke-width="1" fill="none" fill-rule="evenodd" sketch:type="MSPage">
        <g id="4---Refresh-Clock-(Flat)" sketch:type="MSLayerGroup">
            <path d="M58,29 C58,45.016 45.016,58 29,58 C12.984,58 0,45.016 0,29 C0,12.984 12.984,0 29,0 C45.016,0 58,12.984 58,29" id="Fill-424" fill="#EDF0F1" sketch:type="MSShapeGroup"></path>
            <path d="M29,4 C42.785,4 54,15.215 54,29 C54,42.785 42.785,54 29,54 C15.215,54 4,42.785 4,29 C4,15.215 15.215,4 29,4 M29,0 C12.984,0 0,12.984 0,29 C0,45.017 12.984,58 29,58 C45.016,58 58,45.017 58,29 C58,12.984 45.016,0 29,0" id="Fill-425" fill="#545E73" sketch:type="MSShapeGroup"></path>
            <path d="M29,5.879 C28.448,5.879 28,6.326 28,6.879 L28,7.879 C28,8.432 28.448,8.879 29,8.879 C29.552,8.879 30,8.432 30,7.879 L30,6.879 C30,6.326 29.552,5.879 29,5.879" id="Fill-426" fill="#8697CB" sketch:type="MSShapeGroup"></path>
            <path d="M29,48.879 C28.448,48.879 28,49.326 28,49.879 L28,50.879 C28,51.432 28.448,51.879 29,51.879 C29.552,51.879 30,51.432 30,50.879 L30,49.879 C30,49.326 29.552,48.879 29,48.879" id="Fill-427" fill="#8697CB" sketch:type="MSShapeGroup"></path>
            <path d="M51,27.879 L50,27.879 C49.448,27.879 49,28.326 49,28.879 C49,29.432 49.448,29.879 50,29.879 L51,29.879 C51.552,29.879 52,29.432 52,28.879 C52,28.326 51.552,27.879 51,27.879" id="Fill-428" fill="#8697CB" sketch:type="MSShapeGroup"></path>
            <path d="M8,27.879 L7,27.879 C6.448,27.879 6,28.326 6,28.879 C6,29.432 6.448,29.879 7,29.879 L8,29.879 C8.552,29.879 9,29.432 9,28.879 C9,28.326 8.552,27.879 8,27.879" id="Fill-429" fill="#8697CB" sketch:type="MSShapeGroup"></path>
            <path d="M43.849,12.615 L43.142,13.322 C42.752,13.713 42.752,14.346 43.142,14.736 C43.337,14.932 43.593,15.029 43.849,15.029 C44.105,15.029 44.361,14.932 44.556,14.736 L45.263,14.03 C45.654,13.639 45.654,13.006 45.263,12.615 C44.873,12.225 44.24,12.225 43.849,12.615" id="Fill-430" fill="#8697CB" sketch:type="MSShapeGroup"></path>
            <path d="M13.444,43.022 L12.737,43.729 C12.346,44.12 12.346,44.752 12.737,45.142 C12.932,45.338 13.188,45.435 13.444,45.435 C13.7,45.435 13.956,45.338 14.151,45.142 L14.858,44.435 C15.248,44.045 15.248,43.412 14.858,43.022 C14.467,42.631 13.834,42.631 13.444,43.022" id="Fill-431" fill="#8697CB" sketch:type="MSShapeGroup"></path>
            <path d="M44.556,43.022 C44.166,42.631 43.533,42.631 43.142,43.022 C42.752,43.412 42.752,44.045 43.142,44.435 L43.849,45.142 C44.044,45.338 44.3,45.435 44.556,45.435 C44.812,45.435 45.068,45.338 45.263,45.142 C45.654,44.752 45.654,44.12 45.263,43.729 L44.556,43.022" id="Fill-432" fill="#8697CB" sketch:type="MSShapeGroup"></path>
            <path d="M14.151,12.615 C13.76,12.225 13.127,12.225 12.737,12.615 C12.346,13.006 12.346,13.639 12.737,14.03 L13.444,14.736 C13.639,14.932 13.895,15.029 14.151,15.029 C14.407,15.029 14.663,14.932 14.858,14.736 C15.248,14.346 15.248,13.713 14.858,13.322 L14.151,12.615" id="Fill-433" fill="#8697CB" sketch:type="MSShapeGroup"></path>
            <path d="M26,28.879 L18,28.879 L26,28.879 Z M29,25.879 L29,14.879 L29,25.879 Z M26,28.879 C26,30.536 27.343,31.879 29,31.879 C30.657,31.879 32,30.536 32,28.879 C32,27.222 30.657,25.879 29,25.879 C27.343,25.879 26,27.222 26,28.879 L26,28.879 Z" id="Stroke-434" stroke="#545E73" stroke-width="2" stroke-linecap="round" stroke-linejoin="round" sketch:type="MSShapeGroup"></path>
            <path d="M57.39,45.5 C57.39,52.404 51.793,58 44.89,58 C37.986,58 32.39,52.404 32.39,45.5 C32.39,38.596 37.986,33 44.89,33 C51.793,33 57.39,38.596 57.39,45.5" id="Fill-2115" fill="#B1D3F0" sketch:type="MSShapeGroup"></path>
            <path d="M44.89,35 C40.172,35 36.01,38.182 34.769,42.738 C34.623,43.27 34.937,43.82 35.471,43.965 C35.999,44.108 36.553,43.797 36.698,43.263 C37.703,39.575 41.071,37 44.89,37 C49.576,37 53.39,40.813 53.39,45.5 C53.39,50.187 49.576,54 44.89,54 C41.525,54 38.512,51.999 37.155,49 L42.389,49 L42.389,47 L34.389,47 L34.389,55 L36.389,55 L36.389,51.659 L36.39,51.659 L36.39,51.636 C38.323,54.31 41.456,56 44.89,56 C50.68,56 55.39,51.29 55.39,45.5 C55.39,39.71 50.68,35 44.89,35" id="Fill-2116" fill="#556080" sketch:type="MSShapeGroup"></path>
        </g>
    </g>
</svg>