<?xml version="1.0" encoding="UTF-8" standalone="no"?>
<svg width="54px" height="55px" viewBox="0 0 54 55" version="1.1" xmlns="http://www.w3.org/2000/svg" xmlns:xlink="http://www.w3.org/1999/xlink" xmlns:sketch="http://www.bohemiancoding.com/sketch/ns">
    <!-- Generator: Sketch 3.2.2 (9983) - http://www.bohemiancoding.com/sketch -->
    <title>264 - Refresh Pricetag (Flat)</title>
    <desc>Created with Sketch.</desc>
    <defs></defs>
    <g id="Page-1" stroke="none" stroke-width="1" fill="none" fill-rule="evenodd" sketch:type="MSPage">
        <g id="264---Refresh-Pricetag-(Flat)" sketch:type="MSLayerGroup">
            <path d="M43.472,0 L30.294,0 L5.848,24.367 L29.582,48.153 L54,23.815 L54,10.504 L43.472,0 L43.472,0 Z M42.015,14.87 C40.394,14.87 39.08,13.556 39.08,11.935 C39.08,10.314 40.394,9 42.015,9 C43.636,9 44.95,10.314 44.95,11.935 C44.95,13.556 43.636,14.87 42.015,14.87 L42.015,14.87 Z" id="Fill-954" fill="#E7D4B1" sketch:type="MSShapeGroup"></path>
            <path d="M5.877,24.354 L0,30.215 L23.734,54 L29.637,48.113 L5.877,24.354" id="Fill-955" fill="#D3C2A4" sketch:type="MSShapeGroup"></path>
            <path d="M42.015,9 C43.636,9 44.95,10.314 44.95,11.935 C44.95,13.556 43.636,14.87 42.015,14.87 C40.394,14.87 39.08,13.556 39.08,11.935 C39.08,10.314 40.394,9 42.015,9 M42.015,5 C38.191,5 35.08,8.111 35.08,11.935 C35.08,15.759 38.191,18.87 42.015,18.87 C45.839,18.87 48.95,15.759 48.95,11.935 C48.95,8.111 45.839,5 42.015,5" id="Fill-956" fill="#CCB292" sketch:type="MSShapeGroup"></path>
            <path d="M47,42.5 C47,49.404 41.404,55 34.5,55 C27.596,55 22,49.404 22,42.5 C22,35.597 27.596,30 34.5,30 C41.404,30 47,35.597 47,42.5" id="Fill-2535" fill="#B1D3F0" sketch:type="MSShapeGroup"></path>
            <path d="M34.5,32 C29.782,32 25.62,35.182 24.379,39.738 C24.233,40.27 24.548,40.82 25.081,40.965 C25.609,41.108 26.163,40.797 26.309,40.263 C27.313,36.575 30.682,34 34.5,34 C39.187,34 43,37.813 43,42.5 C43,47.187 39.187,51 34.5,51 C31.135,51 28.122,48.999 26.766,46 L32,46 L32,44 L24,44 L24,52 L26,52 L26,48.636 C27.933,51.31 31.066,53 34.5,53 C40.29,53 45,48.29 45,42.5 C45,36.711 40.29,32 34.5,32" id="Fill-2536" fill="#556080" sketch:type="MSShapeGroup"></path>
        </g>
    </g>
</svg>