<?xml version="1.0" encoding="UTF-8" standalone="no"?>
<svg width="58px" height="54px" viewBox="0 0 58 54" version="1.1" xmlns="http://www.w3.org/2000/svg" xmlns:xlink="http://www.w3.org/1999/xlink" xmlns:sketch="http://www.bohemiancoding.com/sketch/ns">
    <!-- Generator: Sketch 3.2.2 (9983) - http://www.bohemiancoding.com/sketch -->
    <title>224 - Refresh Window (Flat)</title>
    <desc>Created with Sketch.</desc>
    <defs></defs>
    <g id="Page-1" stroke="none" stroke-width="1" fill="none" fill-rule="evenodd" sketch:type="MSPage">
        <g id="224---Refresh-Window-(Flat)" sketch:type="MSLayerGroup">
            <path d="M0,14 L50,14 L50,49 L0,49 L0,14 Z" id="Fill-895" fill="#EDF0F1" sketch:type="MSShapeGroup"></path>
            <path d="M0,0 L50,0 L50,14 L0,14 L0,0 Z" id="Fill-896" fill="#546A79" sketch:type="MSShapeGroup"></path>
            <path d="M10,7 C10,8.657 8.657,10 7,10 C5.343,10 4,8.657 4,7 C4,5.343 5.343,4 7,4 C8.657,4 10,5.343 10,7" id="Fill-897" fill="#ED7061" sketch:type="MSShapeGroup"></path>
            <path d="M19,7 C19,8.657 17.657,10 16,10 C14.343,10 13,8.657 13,7 C13,5.343 14.343,4 16,4 C17.657,4 19,5.343 19,7" id="Fill-898" fill="#F0C41A" sketch:type="MSShapeGroup"></path>
            <path d="M28,7 C28,8.657 26.657,10 25,10 C23.343,10 22,8.657 22,7 C22,5.343 23.343,4 25,4 C26.657,4 28,5.343 28,7" id="Fill-899" fill="#4FBA6E" sketch:type="MSShapeGroup"></path>
            <path d="M58,41.5 C58,48.404 52.404,54 45.5,54 C38.596,54 33,48.404 33,41.5 C33,34.597 38.596,29 45.5,29 C52.404,29 58,34.597 58,41.5" id="Fill-2483" fill="#B1D3F0" sketch:type="MSShapeGroup"></path>
            <path d="M45.5,31 C40.782,31 36.62,34.182 35.379,38.738 C35.233,39.27 35.548,39.82 36.081,39.965 C36.609,40.108 37.163,39.796 37.309,39.263 C38.313,35.575 41.682,33 45.5,33 C50.187,33 54,36.813 54,41.5 C54,46.187 50.187,50 45.5,50 C42.135,50 39.122,47.999 37.766,45 L43,45 L43,43 L35,43 L35,51 L37,51 L37,47.636 C38.933,50.31 42.066,52 45.5,52 C51.29,52 56,47.29 56,41.5 C56,35.711 51.29,31 45.5,31" id="Fill-2484" fill="#556080" sketch:type="MSShapeGroup"></path>
        </g>
    </g>
</svg>