<?xml version="1.0" encoding="UTF-8" standalone="no"?>
<svg width="59px" height="58px" viewBox="0 0 59 58" version="1.1" xmlns="http://www.w3.org/2000/svg" xmlns:xlink="http://www.w3.org/1999/xlink" xmlns:sketch="http://www.bohemiancoding.com/sketch/ns">
    <!-- Generator: Sketch 3.2.2 (9983) - http://www.bohemiancoding.com/sketch -->
    <title>344 - Refresh Profile (Flat)</title>
    <desc>Created with Sketch.</desc>
    <defs></defs>
    <g id="Page-1" stroke="none" stroke-width="1" fill="none" fill-rule="evenodd" sketch:type="MSPage">
        <g id="344---Refresh-Profile-(Flat)" sketch:type="MSLayerGroup" transform="translate(-1.000000, 0.000000)">
            <path d="M19.612,41.552 L11.705,45.866 C11.241,46.119 10.824,46.429 10.436,46.769 C15.046,50.655 20.998,53 27.5,53 C33.954,53 39.867,50.691 44.464,46.856 C44.039,46.498 43.579,46.177 43.07,45.922 L34.603,41.688 C33.509,41.141 32.818,40.023 32.818,38.8 L32.818,35.478 C33.055,35.207 33.328,34.858 33.619,34.448 C34.772,32.818 35.645,31.025 36.25,29.144 C37.336,28.809 38.136,27.806 38.136,26.614 L38.136,23.068 C38.136,22.288 37.789,21.591 37.25,21.103 L37.25,15.978 C37.25,15.978 38.302,8 27.5,8 C16.697,8 17.75,15.978 17.75,15.978 L17.75,21.103 C17.21,21.591 16.863,22.288 16.863,23.068 L16.863,26.614 C16.863,27.548 17.355,28.37 18.089,28.845 C18.975,32.702 21.295,35.478 21.295,35.478 L21.295,38.718 C21.295,39.899 20.65,40.987 19.612,41.552" id="Fill-647" fill="#EDF0F1" sketch:type="MSShapeGroup"></path>
            <path d="M27.953,0.004 C13.319,-0.246 1.254,11.414 1.003,26.047 C0.862,34.344 4.56,41.801 10.447,46.76 C10.832,46.424 11.245,46.116 11.705,45.866 L19.612,41.552 C20.65,40.987 21.295,39.899 21.295,38.718 L21.295,35.478 C21.295,35.478 18.975,32.702 18.089,28.845 C17.355,28.37 16.863,27.548 16.863,26.614 L16.863,23.068 C16.863,22.288 17.21,21.591 17.75,21.103 L17.75,15.978 C17.75,15.978 16.697,8 27.5,8 C38.302,8 37.25,15.978 37.25,15.978 L37.25,21.103 C37.789,21.591 38.136,22.288 38.136,23.068 L38.136,26.614 C38.136,27.806 37.336,28.809 36.25,29.144 C35.645,31.025 34.772,32.818 33.619,34.448 C33.328,34.858 33.055,35.207 32.818,35.478 L32.818,38.8 C32.818,40.023 33.509,41.141 34.603,41.688 L43.07,45.922 C43.578,46.176 44.037,46.496 44.46,46.853 C50.17,42.09 53.859,34.971 53.996,26.953 C54.246,12.32 42.586,0.254 27.953,0.004" id="Fill-648" fill="#556080" sketch:type="MSShapeGroup"></path>
            <path d="M60,45.5 C60,52.404 54.404,58 47.5,58 C40.596,58 35,52.404 35,45.5 C35,38.597 40.596,33 47.5,33 C54.404,33 60,38.597 60,45.5" id="Fill-2275" fill="#B1D3F0" sketch:type="MSShapeGroup"></path>
            <path d="M47.5,35 C42.782,35 38.62,38.182 37.379,42.738 C37.233,43.27 37.548,43.82 38.081,43.965 C38.609,44.108 39.163,43.796 39.309,43.263 C40.313,39.575 43.682,37 47.5,37 C52.187,37 56,40.813 56,45.5 C56,50.187 52.187,54 47.5,54 C44.135,54 41.122,51.999 39.766,49 L45,49 L45,47 L37,47 L37,55 L39,55 L39,51.636 C40.933,54.31 44.066,56 47.5,56 C53.29,56 58,51.29 58,45.5 C58,39.711 53.29,35 47.5,35" id="Fill-2276" fill="#556080" sketch:type="MSShapeGroup"></path>
        </g>
    </g>
</svg>