<?xml version="1.0" encoding="UTF-8" standalone="no"?>
<svg width="46px" height="59px" viewBox="0 0 46 59" version="1.1" xmlns="http://www.w3.org/2000/svg" xmlns:xlink="http://www.w3.org/1999/xlink" xmlns:sketch="http://www.bohemiancoding.com/sketch/ns">
    <!-- Generator: Sketch 3.2.2 (9983) - http://www.bohemiancoding.com/sketch -->
    <title>64 - Refresh Smartphone (Flat)</title>
    <desc>Created with Sketch.</desc>
    <defs></defs>
    <g id="Page-1" stroke="none" stroke-width="1" fill="none" fill-rule="evenodd" sketch:type="MSPage">
        <g id="64---Refresh-Smartphone-(Flat)" sketch:type="MSLayerGroup">
            <path d="M28.595,58 L3.405,58 C1.525,58 0,56.475 0,54.595 L0,3.405 C0,1.525 1.525,0 3.405,0 L28.595,0 C30.475,0 32,1.525 32,3.405 L32,54.595 C32,56.475 30.475,58 28.595,58" id="Fill-661" fill="#545E73" sketch:type="MSShapeGroup"></path>
            <path d="M0,6 L32,6 L32,46 L0,46 L0,6 Z" id="Fill-662" fill="#8697CB" sketch:type="MSShapeGroup"></path>
            <path d="M19,52 C19,53.657 17.657,55 16,55 C14.343,55 13,53.657 13,52 C13,50.344 14.343,49 16,49 C17.657,49 19,50.344 19,52" id="Fill-663" fill="#323A45" sketch:type="MSShapeGroup"></path>
            <path d="M16,4 L12,4 C11.447,4 11,3.553 11,3 C11,2.448 11.447,2 12,2 L16,2 C16.553,2 17,2.448 17,3 C17,3.553 16.553,4 16,4" id="Fill-664" fill="#323A45" sketch:type="MSShapeGroup"></path>
            <path d="M20,4 L19,4 C18.447,4 18,3.553 18,3 C18,2.448 18.447,2 19,2 L20,2 C20.553,2 21,2.448 21,3 C21,3.553 20.553,4 20,4" id="Fill-665" fill="#323A45" sketch:type="MSShapeGroup"></path>
            <path d="M45.39,46.482 C45.39,53.385 39.793,58.982 32.89,58.982 C25.986,58.982 20.39,53.385 20.39,46.482 C20.39,39.578 25.986,33.982 32.89,33.982 C39.793,33.982 45.39,39.578 45.39,46.482" id="Fill-2167" fill="#B1D3F0" sketch:type="MSShapeGroup"></path>
            <path d="M32.89,35.982 C28.172,35.982 24.01,39.163 22.769,43.719 C22.623,44.252 22.937,44.802 23.471,44.946 C23.999,45.089 24.553,44.778 24.698,44.244 C25.703,40.557 29.071,37.982 32.89,37.982 C37.576,37.982 41.39,41.794 41.39,46.482 C41.39,51.169 37.576,54.982 32.89,54.982 C29.525,54.982 26.512,52.98 25.155,49.982 L30.389,49.982 L30.389,47.982 L22.389,47.982 L22.389,55.982 L24.389,55.982 L24.389,52.64 L24.39,52.641 L24.39,52.617 C26.323,55.291 29.456,56.982 32.89,56.982 C38.68,56.982 43.39,52.271 43.39,46.482 C43.39,40.692 38.68,35.982 32.89,35.982" id="Fill-2168" fill="#556080" sketch:type="MSShapeGroup"></path>
        </g>
    </g>
</svg>