<?xml version="1.0" encoding="UTF-8" standalone="no"?>
<svg width="58px" height="60px" viewBox="0 0 58 60" version="1.1" xmlns="http://www.w3.org/2000/svg" xmlns:xlink="http://www.w3.org/1999/xlink" xmlns:sketch="http://www.bohemiancoding.com/sketch/ns">
    <!-- Generator: Sketch 3.2.2 (9983) - http://www.bohemiancoding.com/sketch -->
    <title>284 - Refresh Calendar (Flat)</title>
    <desc>Created with Sketch.</desc>
    <defs></defs>
    <g id="Page-1" stroke="none" stroke-width="1" fill="none" fill-rule="evenodd" sketch:type="MSPage">
        <g id="284---Refresh-Calendar-(Flat)" sketch:type="MSLayerGroup">
            <path d="M0,13 L56,13 L56,52 L0,52 L0,13 Z" id="Fill-1071" fill="#EDF0F1" sketch:type="MSShapeGroup"></path>
            <path d="M41,0 L0,0 L0,13 L56,13 L56,0 L41,0" id="Fill-1072" fill="#21AE5E" sketch:type="MSShapeGroup"></path>
            <path d="M18,46 C17.448,46 17,45.553 17,45 L17,19 C17,18.448 17.448,18 18,18 C18.552,18 19,18.448 19,19 L19,45 C19,45.553 18.552,46 18,46" id="Fill-1073" fill="#556080" sketch:type="MSShapeGroup"></path>
            <path d="M12,26 C11.744,26 11.488,25.902 11.293,25.707 C10.902,25.317 10.902,24.684 11.293,24.293 L17.293,18.293 C17.684,17.903 18.316,17.903 18.707,18.293 C19.098,18.684 19.098,19.317 18.707,19.707 L12.707,25.707 C12.512,25.902 12.256,26 12,26" id="Fill-1074" fill="#556080" sketch:type="MSShapeGroup"></path>
            <path d="M37,32 C33.14,32 30,28.86 30,25 C30,21.141 33.14,18 37,18 C40.86,18 44,21.141 44,25 C44,28.86 40.86,32 37,32 L37,32 Z M37,20 C34.243,20 32,22.243 32,25 C32,27.757 34.243,30 37,30 C39.757,30 42,27.757 42,25 C42,22.243 39.757,20 37,20 L37,20 Z" id="Fill-1075" fill="#556080" sketch:type="MSShapeGroup"></path>
            <path d="M37,46 C33.14,46 30,42.859 30,39 C30,38.447 30.448,38 31,38 C31.552,38 32,38.447 32,39 C32,41.757 34.243,44 37,44 C39.757,44 42,41.757 42,39 L42,25 C42,24.448 42.448,24 43,24 C43.552,24 44,24.448 44,25 L44,39 C44,42.859 40.86,46 37,46" id="Fill-1076" fill="#556080" sketch:type="MSShapeGroup"></path>
            <path d="M58,47.5 C58,54.404 52.404,60 45.5,60 C38.596,60 33,54.404 33,47.5 C33,40.597 38.596,35 45.5,35 C52.404,35 58,40.597 58,47.5" id="Fill-2379" fill="#B1D3F0" sketch:type="MSShapeGroup"></path>
            <path d="M45.5,37 C40.782,37 36.62,40.182 35.379,44.738 C35.233,45.27 35.548,45.82 36.081,45.965 C36.609,46.108 37.163,45.797 37.309,45.263 C38.313,41.575 41.682,39 45.5,39 C50.187,39 54,42.813 54,47.5 C54,52.187 50.187,56 45.5,56 C42.135,56 39.122,53.999 37.766,51 L43,51 L43,49 L35,49 L35,57 L37,57 L37,53.636 C38.933,56.31 42.066,58 45.5,58 C51.29,58 56,53.29 56,47.5 C56,41.711 51.29,37 45.5,37" id="Fill-2380" fill="#556080" sketch:type="MSShapeGroup"></path>
        </g>
    </g>
</svg>