<?xml version="1.0" encoding="UTF-8" standalone="no"?>
<svg width="56px" height="58px" viewBox="0 0 56 58" version="1.1" xmlns="http://www.w3.org/2000/svg" xmlns:xlink="http://www.w3.org/1999/xlink" xmlns:sketch="http://www.bohemiancoding.com/sketch/ns">
    <!-- Generator: Sketch 3.2.2 (9983) - http://www.bohemiancoding.com/sketch -->
    <title>484 - Refresh Notes (Flat)</title>
    <desc>Created with Sketch.</desc>
    <defs></defs>
    <g id="Page-1" stroke="none" stroke-width="1" fill="none" fill-rule="evenodd" sketch:type="MSPage">
        <g id="484---Refresh-Notes-(Flat)" sketch:type="MSLayerGroup">
            <path d="M0,0 L44,0 L44,58 L0,58 L0,0 Z" id="Fill-1541" fill="#CCB292" sketch:type="MSShapeGroup"></path>
            <path d="M0,0 L8,0 L8,58 L0,58 L0,0 Z" id="Fill-1542" fill="#7F6E5D" sketch:type="MSShapeGroup"></path>
            <path d="M15,10 L37,10 L37,22 L15,22 L15,10 Z" id="Fill-1543" fill="#EFECDE" sketch:type="MSShapeGroup"></path>
            <path d="M19,13 L33,13 L33,15 L19,15 L19,13 Z" id="Fill-1544" fill="#D5D0BB" sketch:type="MSShapeGroup"></path>
            <path d="M19,17 L33,17 L33,19 L19,19 L19,17 Z" id="Fill-1545" fill="#D5D0BB" sketch:type="MSShapeGroup"></path>
            <path d="M56,45.5 C56,52.404 50.404,58 43.5,58 C36.596,58 31,52.404 31,45.5 C31,38.597 36.596,33 43.5,33 C50.404,33 56,38.597 56,45.5" id="Fill-2015" fill="#4AA0D8" sketch:type="MSShapeGroup"></path>
            <path d="M43.5,35 C38.782,35 34.62,38.182 33.379,42.738 C33.233,43.27 33.548,43.82 34.081,43.965 C34.609,44.107 35.163,43.796 35.309,43.263 C36.313,39.575 39.682,37 43.5,37 C48.187,37 52,40.813 52,45.5 C52,50.187 48.187,54 43.5,54 C40.135,54 37.122,51.999 35.766,49 L41,49 L41,47 L33,47 L33,55 L35,55 L35,51.636 C36.933,54.31 40.066,56 43.5,56 C49.29,56 54,51.29 54,45.5 C54,39.71 49.29,35 43.5,35" id="Fill-2016" fill="#D0E8F9" sketch:type="MSShapeGroup"></path>
        </g>
    </g>
</svg>