<?xml version="1.0" encoding="UTF-8" standalone="no"?>
<svg width="56px" height="58px" viewBox="0 0 56 58" version="1.1" xmlns="http://www.w3.org/2000/svg" xmlns:xlink="http://www.w3.org/1999/xlink" xmlns:sketch="http://www.bohemiancoding.com/sketch/ns">
    <!-- Generator: Sketch 3.2.2 (9983) - http://www.bohemiancoding.com/sketch -->
    <title>124 - Refresh Archive (Flat)</title>
    <desc>Created with Sketch.</desc>
    <defs></defs>
    <g id="Page-1" stroke="none" stroke-width="1" fill="none" fill-rule="evenodd" sketch:type="MSPage">
        <g id="124---Refresh-Archive-(Flat)" sketch:type="MSLayerGroup">
            <path d="M50.168,58 L1.832,58 C0.82,58 0,57.18 0,56.168 L0,1.833 C0,0.821 0.82,0 1.832,0 L50.168,0 C51.18,0 52,0.821 52,1.833 L52,56.168 C52,57.18 51.18,58 50.168,58" id="Fill-1685" fill="#545E73" sketch:type="MSShapeGroup"></path>
            <path d="M31.495,17 L20.505,17 C18.572,17 17,15.428 17,13.495 L17,12 C17,11.448 17.447,11 18,11 C18.553,11 19,11.448 19,12 L19,13.495 C19,14.325 19.675,15 20.505,15 L31.495,15 C32.325,15 33,14.325 33,13.495 L33,12 C33,11.448 33.447,11 34,11 C34.553,11 35,11.448 35,12 L35,13.495 C35,15.428 33.428,17 31.495,17" id="Fill-1686" fill="#EDF0F1" sketch:type="MSShapeGroup"></path>
            <path d="M31.495,46 L20.505,46 C18.572,46 17,44.428 17,42.495 L17,41 C17,40.447 17.447,40 18,40 C18.553,40 19,40.447 19,41 L19,42.495 C19,43.325 19.675,44 20.505,44 L31.495,44 C32.325,44 33,43.325 33,42.495 L33,41 C33,40.447 33.447,40 34,40 C34.553,40 35,40.447 35,41 L35,42.495 C35,44.428 33.428,46 31.495,46" id="Fill-1687" fill="#EDF0F1" sketch:type="MSShapeGroup"></path>
            <path d="M0,28 L52,28 L52,30 L0,30 L0,28 Z" id="Fill-1688" fill="#394050" sketch:type="MSShapeGroup"></path>
            <path d="M56,45.5 C56,52.404 50.404,58 43.5,58 C36.596,58 31,52.404 31,45.5 C31,38.596 36.596,33 43.5,33 C50.404,33 56,38.596 56,45.5" id="Fill-2323" fill="#B1D3F0" sketch:type="MSShapeGroup"></path>
            <path d="M43.5,35 C38.782,35 34.62,38.182 33.379,42.738 C33.233,43.27 33.548,43.82 34.081,43.965 C34.609,44.108 35.163,43.797 35.309,43.263 C36.313,39.575 39.682,37 43.5,37 C48.187,37 52,40.813 52,45.5 C52,50.187 48.187,54 43.5,54 C40.135,54 37.122,51.999 35.766,49 L41,49 L41,47 L33,47 L33,55 L35,55 L35,51.636 C36.933,54.31 40.066,56 43.5,56 C49.29,56 54,51.29 54,45.5 C54,39.711 49.29,35 43.5,35" id="Fill-2324" fill="#556080" sketch:type="MSShapeGroup"></path>
        </g>
    </g>
</svg>