<?xml version="1.0" encoding="UTF-8" standalone="no"?>
<svg width="60px" height="53px" viewBox="0 0 60 53" version="1.1" xmlns="http://www.w3.org/2000/svg" xmlns:xlink="http://www.w3.org/1999/xlink" xmlns:sketch="http://www.bohemiancoding.com/sketch/ns">
    <!-- Generator: Sketch 3.2.2 (9983) - http://www.bohemiancoding.com/sketch -->
    <title>432 - Search Picture (Flat)</title>
    <desc>Created with Sketch.</desc>
    <defs></defs>
    <g id="Page-1" stroke="none" stroke-width="1" fill="none" fill-rule="evenodd" sketch:type="MSPage">
        <g id="432---Search-Picture-(Flat)" sketch:type="MSLayerGroup" transform="translate(1.000000, 1.000000)">
            <path d="M0,0 L55,0 L55,42 L0,42 L0,0 Z" id="Fill-484" fill="#EDF0F1" sketch:type="MSShapeGroup"></path>
            <path d="M0,0 L55,0 L55,42 L0,42 L0,0 Z" id="Stroke-485" stroke="#545E73" stroke-width="2" sketch:type="MSShapeGroup"></path>
            <path d="M4,4 L51,4 L51,38 L4,38 L4,4 Z" id="Fill-486" fill="#545E73" sketch:type="MSShapeGroup"></path>
            <path d="M4,4 L51,4 L51,38 L4,38 L4,4 Z" id="Stroke-487" stroke="#EDF0F1" stroke-width="2" sketch:type="MSShapeGroup"></path>
            <path d="M18.569,12.569 C18.569,15.093 16.523,17.138 14,17.138 C11.477,17.138 9.431,15.093 9.431,12.569 C9.431,10.046 11.477,8 14,8 C16.523,8 18.569,10.046 18.569,12.569" id="Fill-488" fill="#F4D65A" sketch:type="MSShapeGroup"></path>
            <path d="M50,28.111 L49,27 L37,16 L26.5,27.5 L36,37 L50,37 L50,28.111" id="Fill-489" fill="#11A085" sketch:type="MSShapeGroup"></path>
            <path d="M5,37 L36,37 L21.017,22.017 L5,36 L5,37" id="Fill-490" fill="#26B99A" sketch:type="MSShapeGroup"></path>
            <path d="M54.573,36.796 C54.573,42.206 50.188,46.592 44.777,46.592 C39.367,46.592 34.982,42.206 34.982,36.796 C34.982,31.386 39.367,27 44.777,27 C50.188,27 54.573,31.386 54.573,36.796" id="Fill-2146" fill="#D0E8F9" sketch:type="MSShapeGroup"></path>
            <path d="M48.33,27.675 L35.656,40.348 C36.362,42.159 37.586,43.706 39.151,44.808 L52.789,31.17 C51.688,29.604 50.14,28.38 48.33,27.675" id="Fill-2147" fill="#EBF7FD" sketch:type="MSShapeGroup"></path>
            <path d="M58.723,50.291 L52.753,44.047 C54.499,42.128 55.573,39.588 55.573,36.796 C55.573,30.844 50.731,26 44.777,26 C38.824,26 33.982,30.844 33.982,36.796 C33.982,42.749 38.824,47.592 44.777,47.592 C47.219,47.592 49.466,46.768 51.277,45.396 L57.278,51.673 C57.474,51.878 57.736,51.982 58,51.982 C58.249,51.982 58.497,51.89 58.692,51.704 C59.09,51.323 59.105,50.69 58.723,50.291 L58.723,50.291 Z M35.982,36.796 C35.982,31.946 39.928,28 44.777,28 C49.627,28 53.573,31.946 53.573,36.796 C53.573,41.646 49.627,45.592 44.777,45.592 C39.928,45.592 35.982,41.646 35.982,36.796 L35.982,36.796 Z" id="Fill-2148" fill="#B1D3F0" sketch:type="MSShapeGroup"></path>
        </g>
    </g>
</svg>