<?xml version="1.0" encoding="UTF-8" standalone="no"?>
<svg width="60px" height="51px" viewBox="0 0 60 51" version="1.1" xmlns="http://www.w3.org/2000/svg" xmlns:xlink="http://www.w3.org/1999/xlink" xmlns:sketch="http://www.bohemiancoding.com/sketch/ns">
    <!-- Generator: Sketch 3.2.2 (9983) - http://www.bohemiancoding.com/sketch -->
    <title>392 - Search Cloud (Flat)</title>
    <desc>Created with Sketch.</desc>
    <defs></defs>
    <g id="Page-1" stroke="none" stroke-width="1" fill="none" fill-rule="evenodd" sketch:type="MSPage">
        <g id="392---Search-Cloud-(Flat)" sketch:type="MSLayerGroup" transform="translate(1.000000, 1.000000)">
            <path d="M49.003,16 C48.889,7.301 41.811,0 33.085,0 C27.525,0 22.306,3.006 19.424,7.336 C18.157,6.494 16.636,6 15,6 C10.582,6 7,9.582 7,14 C7,14.153 7.014,14.303 7.023,14.454 C7.013,14.637 7,14.821 7,15 C3.012,16.912 0,21.457 0,26.155 C0,32.67 5.33,38 11.845,38 L36.352,38 C36.49,38 36.624,37.984 36.761,37.979 C36.897,37.985 37.031,38 37.169,38 L46.972,38 C53.037,38 58,33.038 58,26.972 C58,21.601 54.106,16.962 49.003,16 L49.003,16 Z" id="Fill-423" fill="#91BAE1" sketch:type="MSShapeGroup"></path>
            <path d="M49.003,16 C48.889,7.301 41.811,0 33.085,0 C27.525,0 22.306,3.006 19.424,7.336 C18.157,6.494 16.636,6 15,6 C10.582,6 7,9.582 7,14 C7,14.153 7.014,14.303 7.023,14.454 C7.013,14.637 7,14.821 7,15 C3.012,16.912 0,21.457 0,26.155 C0,32.67 5.33,38 11.845,38 L36.352,38 C36.49,38 36.624,37.984 36.761,37.979 C36.897,37.985 37.031,38 37.169,38 L46.972,38 C53.037,38 58,33.038 58,26.972 C58,21.601 54.106,16.962 49.003,16 L49.003,16 Z" id="Stroke-424" stroke="#8697CB" stroke-width="2" stroke-linecap="round" sketch:type="MSShapeGroup"></path>
            <path d="M49.003,16 C49.003,16 46.469,15.625 44,16" id="Fill-425" fill="#91BAE1" sketch:type="MSShapeGroup"></path>
            <path d="M49.003,16 C49.003,16 46.469,15.625 44,16" id="Stroke-426" stroke="#8697CB" stroke-width="2" stroke-linecap="round" sketch:type="MSShapeGroup"></path>
            <path d="M7,14 C7,9.582 10.582,6 15,6 C19.418,6 23,9.582 23,14" id="Fill-427" fill="#91BAE1" sketch:type="MSShapeGroup"></path>
            <path d="M7,14 C7,9.582 10.582,6 15,6 C19.418,6 23,9.582 23,14" id="Stroke-428" stroke="#8697CB" stroke-width="2" stroke-linecap="round" sketch:type="MSShapeGroup"></path>
            <path d="M37.573,34.796 C37.573,40.206 33.188,44.592 27.777,44.592 C22.367,44.592 17.982,40.206 17.982,34.796 C17.982,29.386 22.367,25 27.777,25 C33.188,25 37.573,29.386 37.573,34.796" id="Fill-2681" fill="#D0E8F9" sketch:type="MSShapeGroup"></path>
            <path d="M31.33,25.675 L18.656,38.349 C19.362,40.159 20.586,41.706 22.151,42.808 L35.789,29.17 C34.687,27.604 33.14,26.38 31.33,25.675" id="Fill-2682" fill="#EBF7FD" sketch:type="MSShapeGroup"></path>
            <path d="M41.723,48.291 L35.753,42.047 C37.499,40.128 38.573,37.588 38.573,34.796 C38.573,28.844 33.731,24 27.777,24 C21.824,24 16.982,28.844 16.982,34.796 C16.982,40.749 21.824,45.592 27.777,45.592 C30.219,45.592 32.466,44.768 34.277,43.396 L40.277,49.673 C40.474,49.878 40.737,49.982 41,49.982 C41.249,49.982 41.497,49.89 41.692,49.704 C42.09,49.323 42.105,48.69 41.723,48.291 L41.723,48.291 Z M18.982,34.796 C18.982,29.946 22.928,26 27.777,26 C32.627,26 36.573,29.946 36.573,34.796 C36.573,39.646 32.627,43.592 27.777,43.592 C22.928,43.592 18.982,39.646 18.982,34.796 L18.982,34.796 Z" id="Fill-2683" fill="#B1D3F0" sketch:type="MSShapeGroup"></path>
        </g>
    </g>
</svg>