<?xml version="1.0" encoding="UTF-8" standalone="no"?>
<svg width="45px" height="55px" viewBox="0 0 45 55" version="1.1" xmlns="http://www.w3.org/2000/svg" xmlns:xlink="http://www.w3.org/1999/xlink" xmlns:sketch="http://www.bohemiancoding.com/sketch/ns">
    <!-- Generator: Sketch 3.2.2 (9983) - http://www.bohemiancoding.com/sketch -->
    <title>312 - Search Bookmark (Flat)</title>
    <desc>Created with Sketch.</desc>
    <defs></defs>
    <g id="Page-1" stroke="none" stroke-width="1" fill="none" fill-rule="evenodd" sketch:type="MSPage">
        <g id="312---Search-Bookmark-(Flat)" sketch:type="MSLayerGroup">
            <path d="M16,0 L0,0 L0,53.444 C0,53.938 0.598,54.186 0.948,53.836 L16,38.784 L31.052,53.836 C31.402,54.186 32,53.938 32,53.444 L32,0 L16,0" id="Fill-1111" fill="#D85A4A" sketch:type="MSShapeGroup"></path>
            <path d="M0,0 L32,0 L32,11 L0,11 L0,0 Z" id="Fill-1816" fill="#C13B2A" sketch:type="MSShapeGroup"></path>
            <path d="M40.573,39.796 C40.573,45.206 36.188,49.592 30.777,49.592 C25.367,49.592 20.982,45.206 20.982,39.796 C20.982,34.386 25.367,30 30.777,30 C36.188,30 40.573,34.386 40.573,39.796" id="Fill-2614" fill="#D0E8F9" sketch:type="MSShapeGroup"></path>
            <path d="M34.33,30.674 L21.656,43.349 C22.362,45.159 23.586,46.706 25.151,47.807 L38.789,34.17 C37.687,32.604 36.14,31.38 34.33,30.674" id="Fill-2615" fill="#EBF7FD" sketch:type="MSShapeGroup"></path>
            <path d="M44.723,53.291 L38.753,47.047 C40.499,45.128 41.573,42.588 41.573,39.796 C41.573,33.844 36.731,29 30.777,29 C24.824,29 19.982,33.844 19.982,39.796 C19.982,45.749 24.824,50.592 30.777,50.592 C33.219,50.592 35.466,49.768 37.277,48.396 L43.277,54.673 C43.474,54.878 43.737,54.982 44,54.982 C44.249,54.982 44.497,54.89 44.692,54.704 C45.09,54.323 45.105,53.69 44.723,53.291 L44.723,53.291 Z M21.982,39.796 C21.982,34.946 25.928,31 30.777,31 C35.627,31 39.573,34.946 39.573,39.796 C39.573,44.646 35.627,48.592 30.777,48.592 C25.928,48.592 21.982,44.646 21.982,39.796 L21.982,39.796 Z" id="Fill-2616" fill="#B1D3F0" sketch:type="MSShapeGroup"></path>
        </g>
    </g>
</svg>