<?xml version="1.0" encoding="UTF-8" standalone="no"?>
<svg width="55px" height="56px" viewBox="0 0 55 56" version="1.1" xmlns="http://www.w3.org/2000/svg" xmlns:xlink="http://www.w3.org/1999/xlink" xmlns:sketch="http://www.bohemiancoding.com/sketch/ns">
    <!-- Generator: Sketch 3.2.2 (9983) - http://www.bohemiancoding.com/sketch -->
    <title>472 - Search Map (Flat)</title>
    <desc>Created with Sketch.</desc>
    <defs></defs>
    <g id="Page-1" stroke="none" stroke-width="1" fill="none" fill-rule="evenodd" sketch:type="MSPage">
        <g id="472---Search-Map-(Flat)" sketch:type="MSLayerGroup">
            <path d="M18,21.243 L2.256,5.499 L0,6 L0,49 L2.099,48.534 L18,32.633 L18,21.243" id="Fill-1317" fill="#4FBA6E" sketch:type="MSShapeGroup"></path>
            <path d="M9.372,46.918 L18,45 L18,38.29 L9.372,46.918" id="Fill-1318" fill="#4AA0D8" sketch:type="MSShapeGroup"></path>
            <path d="M18,2 L6.884,4.47 L18,15.586 L18,2" id="Fill-1319" fill="#4FBA6E" sketch:type="MSShapeGroup"></path>
            <path d="M49.449,1.184 L35,6 L35,15.632 L49.449,1.184" id="Fill-1320" fill="#4FBA6E" sketch:type="MSShapeGroup"></path>
            <path d="M35,21.29 L35,48 L53,41 L53,3.29 L35,21.29" id="Fill-1321" fill="#4AA0D8" sketch:type="MSShapeGroup"></path>
            <path d="M26.523,24.109 L35,15.632 L35,6 L18,2 L18,15.586 L26.523,24.109" id="Fill-1322" fill="#4AA461" sketch:type="MSShapeGroup"></path>
            <path d="M18,21.243 L18,32.633 L23.695,26.938 L18,21.243" id="Fill-1323" fill="#4AA461" sketch:type="MSShapeGroup"></path>
            <path d="M18,38.29 L18,45 L35,48 L35,21.29 L18,38.29" id="Fill-1324" fill="#51A2C9" sketch:type="MSShapeGroup"></path>
            <path d="M18,15.586 L6.884,4.47 L2.256,5.499 L18,21.243 L18,15.586" id="Fill-1325" fill="#F4D65A" sketch:type="MSShapeGroup"></path>
            <path d="M18,32.633 L2.099,48.534 L9.372,46.918 L18,38.29 L18,32.633" id="Fill-1326" fill="#F4D65A" sketch:type="MSShapeGroup"></path>
            <path d="M35,21.29 L53,3.29 L53,0 L49.449,1.184 L35,15.632 L35,21.29" id="Fill-1327" fill="#F4D65A" sketch:type="MSShapeGroup"></path>
            <path d="M26.523,24.109 L18,15.586 L18,21.243 L23.695,26.938 L18,32.633 L18,38.29 L35,21.29 L35,15.632 L26.523,24.109" id="Fill-1328" fill="#DCBD56" sketch:type="MSShapeGroup"></path>
            <path d="M50.573,40.815 C50.573,46.225 46.188,50.611 40.778,50.611 C35.367,50.611 30.982,46.225 30.982,40.815 C30.982,35.405 35.367,31.019 40.778,31.019 C46.188,31.019 50.573,35.405 50.573,40.815" id="Fill-2635" fill="#D0E8F9" sketch:type="MSShapeGroup"></path>
            <path d="M44.33,31.693 L31.656,44.367 C32.362,46.177 33.586,47.724 35.151,48.826 L48.789,35.188 C47.687,33.623 46.14,32.399 44.33,31.693" id="Fill-2636" fill="#EBF7FD" sketch:type="MSShapeGroup"></path>
            <path d="M54.723,54.309 L48.753,48.065 C50.499,46.146 51.573,43.607 51.573,40.815 C51.573,34.862 46.731,30.019 40.778,30.019 C34.824,30.019 29.982,34.862 29.982,40.815 C29.982,46.767 34.824,51.611 40.778,51.611 C43.219,51.611 45.466,50.786 47.277,49.415 L53.277,55.691 C53.474,55.897 53.736,56 54,56 C54.249,56 54.497,55.908 54.692,55.723 C55.09,55.341 55.105,54.708 54.723,54.309 L54.723,54.309 Z M31.982,40.815 C31.982,35.964 35.928,32.019 40.778,32.019 C45.627,32.019 49.573,35.964 49.573,40.815 C49.573,45.665 45.627,49.611 40.778,49.611 C35.928,49.611 31.982,45.665 31.982,40.815 L31.982,40.815 Z" id="Fill-2637" fill="#8697CB" sketch:type="MSShapeGroup"></path>
        </g>
    </g>
</svg>