<?xml version="1.0" encoding="UTF-8" standalone="no"?>
<svg width="60px" height="60px" viewBox="0 0 60 60" version="1.1" xmlns="http://www.w3.org/2000/svg" xmlns:xlink="http://www.w3.org/1999/xlink" xmlns:sketch="http://www.bohemiancoding.com/sketch/ns">
    <!-- Generator: Sketch 3.2.2 (9983) - http://www.bohemiancoding.com/sketch -->
    <title>32 - Search Stopwatch (Flat)</title>
    <desc>Created with Sketch.</desc>
    <defs></defs>
    <g id="Page-1" stroke="none" stroke-width="1" fill="none" fill-rule="evenodd" sketch:type="MSPage">
        <g id="32---Search-Stopwatch-(Flat)" sketch:type="MSLayerGroup">
            <path d="M59,29 C59,45.016 46.016,58 30,58 C13.984,58 1,45.016 1,29 C1,12.984 13.984,0 30,0 C46.016,0 59,12.984 59,29" id="Fill-545" fill="#3C97D3" sketch:type="MSShapeGroup"></path>
            <path d="M30,60 C13.458,60 0,46.542 0,30 C0,22.007 3.107,14.487 8.749,8.824 C9.528,8.039 10.796,8.039 11.577,8.819 C12.36,9.599 12.362,10.865 11.583,11.647 C6.693,16.555 4,23.072 4,30 C4,44.337 15.663,56 30,56 C44.337,56 56,44.337 56,30 C56,16.337 45.405,5.101 32,4.076 L32,14.833 C32,15.937 31.104,16.833 30,16.833 C28.896,16.833 28,15.937 28,14.833 L28,2 C28,0.896 28.896,0 30,0 C46.542,0 60,13.458 60,30 C60,46.542 46.542,60 30,60" id="Fill-546" fill="#B1D3F0" sketch:type="MSShapeGroup"></path>
            <path d="M20,20.121 L20,20.121 L32.944,29.484 C34.218,30.411 34.363,32.257 33.249,33.371 C32.135,34.484 30.29,34.34 29.363,33.066 L20,20.121" id="Fill-547" fill="#B1D3F0" sketch:type="MSShapeGroup"></path>
            <path d="M55.592,44.796 C55.592,50.206 51.206,54.592 45.796,54.592 C40.386,54.592 36,50.206 36,44.796 C36,39.386 40.386,35 45.796,35 C51.206,35 55.592,39.386 55.592,44.796" id="Fill-2246" fill="#D0E8F9" sketch:type="MSShapeGroup"></path>
            <path d="M49.348,35.675 L36.675,48.348 C37.38,50.159 38.604,51.706 40.17,52.808 L53.807,39.17 C52.706,37.604 51.158,36.38 49.348,35.675" id="Fill-2247" fill="#EBF7FD" sketch:type="MSShapeGroup"></path>
            <path d="M59.741,58.291 L53.771,52.047 C55.517,50.128 56.592,47.588 56.592,44.796 C56.592,38.843 51.749,34 45.796,34 C39.843,34 35,38.843 35,44.796 C35,50.749 39.843,55.592 45.796,55.592 C48.237,55.592 50.485,54.768 52.295,53.396 L58.296,59.673 C58.492,59.878 58.755,59.982 59.019,59.982 C59.268,59.982 59.516,59.89 59.71,59.704 C60.108,59.323 60.123,58.69 59.741,58.291 L59.741,58.291 Z M37,44.796 C37,39.946 40.946,36 45.796,36 C50.646,36 54.592,39.946 54.592,44.796 C54.592,49.646 50.646,53.592 45.796,53.592 C40.946,53.592 37,49.646 37,44.796 L37,44.796 Z" id="Fill-2248" fill="#B1D3F0" sketch:type="MSShapeGroup"></path>
        </g>
    </g>
</svg>