<?xml version="1.0" encoding="UTF-8" standalone="no"?>
<svg width="60px" height="52px" viewBox="0 0 60 52" version="1.1" xmlns="http://www.w3.org/2000/svg" xmlns:xlink="http://www.w3.org/1999/xlink" xmlns:sketch="http://www.bohemiancoding.com/sketch/ns">
    <!-- Generator: Sketch 3.2.2 (9983) - http://www.bohemiancoding.com/sketch -->
    <title>172 - Search Folder (Flat)</title>
    <desc>Created with Sketch.</desc>
    <defs></defs>
    <g id="Page-1" stroke="none" stroke-width="1" fill="none" fill-rule="evenodd" sketch:type="MSPage">
        <g id="172---Search-Folder-(Flat)" sketch:type="MSLayerGroup">
            <path d="M25,7 L20,0 L0,0 L0,51 L58,51 L58,14 L30,14 L25,7" id="Fill-1717" fill="#556080" sketch:type="MSShapeGroup"></path>
            <path d="M30,14 L58,14 L58,7 L25,7 L30,14" id="Fill-1718" fill="#3D4451" sketch:type="MSShapeGroup"></path>
            <path d="M54.963,36.796 C54.963,42.206 50.577,46.592 45.167,46.592 C39.757,46.592 35.371,42.206 35.371,36.796 C35.371,31.386 39.757,27 45.167,27 C50.577,27 54.963,31.386 54.963,36.796" id="Fill-1882" fill="#D0E8F9" sketch:type="MSShapeGroup"></path>
            <path d="M48.72,27.675 L36.046,40.348 C36.751,42.158 37.975,43.706 39.541,44.808 L53.179,31.17 C52.077,29.604 50.53,28.38 48.72,27.675" id="Fill-1883" fill="#EBF7FD" sketch:type="MSShapeGroup"></path>
            <path d="M59.112,50.291 L53.143,44.047 C54.888,42.128 55.963,39.588 55.963,36.796 C55.963,30.843 51.12,26 45.167,26 C39.214,26 34.371,30.843 34.371,36.796 C34.371,42.749 39.214,47.592 45.167,47.592 C47.609,47.592 49.856,46.768 51.666,45.396 L57.667,51.673 C57.863,51.878 58.126,51.982 58.39,51.982 C58.639,51.982 58.887,51.89 59.081,51.704 C59.48,51.323 59.494,50.69 59.112,50.291 L59.112,50.291 Z M36.371,36.796 C36.371,31.946 40.318,28 45.167,28 C50.017,28 53.963,31.946 53.963,36.796 C53.963,41.646 50.017,45.592 45.167,45.592 C40.318,45.592 36.371,41.646 36.371,36.796 L36.371,36.796 Z" id="Fill-1884" fill="#B1D3F0" sketch:type="MSShapeGroup"></path>
        </g>
    </g>
</svg>