<?xml version="1.0" encoding="UTF-8" standalone="no"?>
<svg width="58px" height="60px" viewBox="0 0 58 60" version="1.1" xmlns="http://www.w3.org/2000/svg" xmlns:xlink="http://www.w3.org/1999/xlink" xmlns:sketch="http://www.bohemiancoding.com/sketch/ns">
    <!-- Generator: Sketch 3.2.2 (9983) - http://www.bohemiancoding.com/sketch -->
    <title>292 - Search Calendar (Flat)</title>
    <desc>Created with Sketch.</desc>
    <defs></defs>
    <g id="Page-1" stroke="none" stroke-width="1" fill="none" fill-rule="evenodd" sketch:type="MSPage">
        <g id="292---Search-Calendar-(Flat)" sketch:type="MSLayerGroup">
            <path d="M0,13 L56,13 L56,52 L0,52 L0,13 Z" id="Fill-1023" fill="#EDF0F1" sketch:type="MSShapeGroup"></path>
            <path d="M41,0 L0,0 L0,13 L56,13 L56,0 L41,0" id="Fill-1024" fill="#21AE5E" sketch:type="MSShapeGroup"></path>
            <path d="M18,46 C17.448,46 17,45.553 17,45 L17,19 C17,18.448 17.448,18 18,18 C18.552,18 19,18.448 19,19 L19,45 C19,45.553 18.552,46 18,46" id="Fill-1025" fill="#556080" sketch:type="MSShapeGroup"></path>
            <path d="M12,26 C11.744,26 11.488,25.902 11.293,25.707 C10.902,25.317 10.902,24.684 11.293,24.293 L17.293,18.293 C17.684,17.903 18.316,17.903 18.707,18.293 C19.098,18.684 19.098,19.317 18.707,19.707 L12.707,25.707 C12.512,25.902 12.256,26 12,26" id="Fill-1026" fill="#556080" sketch:type="MSShapeGroup"></path>
            <path d="M37,32 C33.14,32 30,28.86 30,25 C30,21.141 33.14,18 37,18 C40.86,18 44,21.141 44,25 C44,28.86 40.86,32 37,32 L37,32 Z M37,20 C34.243,20 32,22.243 32,25 C32,27.757 34.243,30 37,30 C39.757,30 42,27.757 42,25 C42,22.243 39.757,20 37,20 L37,20 Z" id="Fill-1027" fill="#556080" sketch:type="MSShapeGroup"></path>
            <path d="M37,46 C33.14,46 30,42.859 30,39 C30,38.447 30.448,38 31,38 C31.552,38 32,38.447 32,39 C32,41.757 34.243,44 37,44 C39.757,44 42,41.757 42,39 L42,25 C42,24.448 42.448,24 43,24 C43.552,24 44,24.448 44,25 L44,39 C44,42.859 40.86,46 37,46" id="Fill-1028" fill="#556080" sketch:type="MSShapeGroup"></path>
            <path d="M53.573,44.796 C53.573,50.206 49.188,54.592 43.777,54.592 C38.367,54.592 33.982,50.206 33.982,44.796 C33.982,39.386 38.367,35 43.777,35 C49.188,35 53.573,39.386 53.573,44.796" id="Fill-2406" fill="#D0E8F9" sketch:type="MSShapeGroup"></path>
            <path d="M47.33,35.675 L34.656,48.349 C35.362,50.159 36.586,51.706 38.151,52.808 L51.789,39.17 C50.688,37.604 49.14,36.38 47.33,35.675" id="Fill-2407" fill="#EBF7FD" sketch:type="MSShapeGroup"></path>
            <path d="M57.723,58.291 L51.753,52.047 C53.499,50.128 54.573,47.588 54.573,44.796 C54.573,38.844 49.731,34 43.777,34 C37.824,34 32.982,38.844 32.982,44.796 C32.982,50.749 37.824,55.592 43.777,55.592 C46.219,55.592 48.466,54.768 50.277,53.396 L56.278,59.673 C56.474,59.878 56.736,59.982 57,59.982 C57.249,59.982 57.497,59.89 57.692,59.704 C58.09,59.323 58.105,58.69 57.723,58.291 L57.723,58.291 Z M34.982,44.796 C34.982,39.946 38.928,36 43.777,36 C48.627,36 52.573,39.946 52.573,44.796 C52.573,49.646 48.627,53.592 43.777,53.592 C38.928,53.592 34.982,49.646 34.982,44.796 L34.982,44.796 Z" id="Fill-2408" fill="#B1D3F0" sketch:type="MSShapeGroup"></path>
        </g>
    </g>
</svg>