<?xml version="1.0" encoding="UTF-8" standalone="no"?>
<svg width="59px" height="56px" viewBox="0 0 59 56" version="1.1" xmlns="http://www.w3.org/2000/svg" xmlns:xlink="http://www.w3.org/1999/xlink" xmlns:sketch="http://www.bohemiancoding.com/sketch/ns">
    <!-- Generator: Sketch 3.2.2 (9983) - http://www.bohemiancoding.com/sketch -->
    <title>332 - Search People (Flat)</title>
    <desc>Created with Sketch.</desc>
    <defs></defs>
    <g id="Page-1" stroke="none" stroke-width="1" fill="none" fill-rule="evenodd" sketch:type="MSPage">
        <g id="332---Search-People-(Flat)" sketch:type="MSLayerGroup">
            <path d="M53.566,42.783 L44.014,38.007 C42.78,37.39 42,36.129 42,34.749 L42,31 C42.268,30.695 42.576,30.302 42.904,29.838 C44.205,28 45.19,25.977 45.873,23.855 C47.098,23.477 48,22.345 48,21 L48,17 C48,16.12 47.609,15.333 47,14.783 L47,9 C47,9 48.188,0 36,0 C23.812,0 25,9 25,9 L25,14.783 C24.391,15.333 24,16.12 24,17 L24,21 C24,22.054 24.554,22.982 25.383,23.517 C26.382,27.869 29,31 29,31 L29,34.656 C29,35.989 28.272,37.216 27.101,37.854 L18.18,42.72 C15.603,44.126 14,46.826 14,49.762 L14,53 L58,53 L58,49.957 C58,46.919 56.283,44.142 53.566,42.783" id="Fill-671" fill="#8697CB" sketch:type="MSShapeGroup"></path>
            <path d="M18.18,42.72 L24.126,39.477 C24.092,39.444 24.12,39.434 24.191,39.441 L27.101,37.854 C28.272,37.216 29,35.989 29,34.656 L29,31 C29,31 27.938,29.726 26.908,27.678 C26.907,27.677 26.907,27.676 26.906,27.675 C26.772,27.407 26.639,27.124 26.508,26.831 C26.49,26.79 26.472,26.751 26.454,26.71 C26.321,26.407 26.191,26.094 26.067,25.767 C26.059,25.746 26.052,25.723 26.044,25.702 C25.936,25.412 25.835,25.112 25.738,24.806 C25.712,24.722 25.686,24.639 25.661,24.555 C25.56,24.217 25.464,23.872 25.383,23.517 C24.554,22.982 24,22.054 24,21 L24,17 C24,16.12 24.391,15.333 25,14.783 L25,9.136 C23.587,8.039 21.398,7 18,7 C8.438,7 8,15 8,15 L8,19.995 C7.474,20.47 7,21.149 7,21.909 L7,25.364 C7,26.274 7.479,27.075 8.194,27.537 C9.057,31.296 11.954,34 11.954,34 L11.954,37.157 C11.954,38.308 11.326,39.368 10.315,39.919 L3.61,44.122 C1.385,45.336 0,47.668 0,50.203 L0,53 L14,53 L14,49.762 C14,46.826 15.603,44.126 18.18,42.72" id="Fill-672" fill="#556080" sketch:type="MSShapeGroup"></path>
            <path d="M54.573,40.796 C54.573,46.206 50.188,50.592 44.777,50.592 C39.367,50.592 34.982,46.206 34.982,40.796 C34.982,35.386 39.367,31 44.777,31 C50.188,31 54.573,35.386 54.573,40.796" id="Fill-2354" fill="#D0E8F9" sketch:type="MSShapeGroup"></path>
            <path d="M48.33,31.675 L35.656,44.349 C36.362,46.159 37.586,47.706 39.151,48.808 L52.789,35.17 C51.688,33.604 50.14,32.38 48.33,31.675" id="Fill-2355" fill="#EBF7FD" sketch:type="MSShapeGroup"></path>
            <path d="M58.723,54.291 L52.753,48.047 C54.499,46.128 55.573,43.588 55.573,40.796 C55.573,34.844 50.731,30 44.777,30 C38.824,30 33.982,34.844 33.982,40.796 C33.982,46.749 38.824,51.592 44.777,51.592 C47.219,51.592 49.466,50.768 51.277,49.396 L57.278,55.673 C57.474,55.878 57.736,55.982 58,55.982 C58.249,55.982 58.497,55.89 58.692,55.704 C59.09,55.323 59.105,54.69 58.723,54.291 L58.723,54.291 Z M35.982,40.796 C35.982,35.946 39.928,32 44.777,32 C49.627,32 53.573,35.946 53.573,40.796 C53.573,45.646 49.627,49.592 44.777,49.592 C39.928,49.592 35.982,45.646 35.982,40.796 L35.982,40.796 Z" id="Fill-2356" fill="#B1D3F0" sketch:type="MSShapeGroup"></path>
        </g>
    </g>
</svg>