<?xml version="1.0" encoding="UTF-8" standalone="no"?>
<svg width="59px" height="55px" viewBox="0 0 59 55" version="1.1" xmlns="http://www.w3.org/2000/svg" xmlns:xlink="http://www.w3.org/1999/xlink" xmlns:sketch="http://www.bohemiancoding.com/sketch/ns">
    <!-- Generator: Sketch 3.2.2 (9983) - http://www.bohemiancoding.com/sketch -->
    <title>412 - Search Album (Flat)</title>
    <desc>Created with Sketch.</desc>
    <defs></defs>
    <g id="Page-1" stroke="none" stroke-width="1" fill="none" fill-rule="evenodd" sketch:type="MSPage">
        <g id="412---Search-Album-(Flat)" sketch:type="MSLayerGroup">
            <path d="M0,47 L56,47 L56,0 L0,0 L0,47 Z" id="Fill-1197" fill="#E04D60" sketch:type="MSShapeGroup"></path>
            <path d="M39.659,9.248 C39.443,9.058 39.153,8.971 38.87,9.009 L20.87,11.376 C20.372,11.442 20,11.865 20,12.367 L20,31.802 C18.831,30.783 17.247,30.153 15.5,30.153 C11.916,30.153 9,32.794 9,36.041 C9,39.288 11.916,41.93 15.5,41.93 C19.084,41.93 22,39.288 22,36.041 L22,18.244 L38,16.14 L38,26.542 C36.867,25.576 35.347,24.98 33.673,24.98 C30.185,24.98 27.347,27.552 27.347,30.714 C27.347,33.876 30.185,36.449 33.673,36.449 C37.162,36.449 40,33.876 40,30.714 L40,10 C40,9.712 39.876,9.439 39.659,9.248" id="Fill-1198" fill="#FFFFFF" sketch:type="MSShapeGroup"></path>
            <path d="M54.573,39.796 C54.573,45.206 50.188,49.592 44.777,49.592 C39.367,49.592 34.982,45.206 34.982,39.796 C34.982,34.386 39.367,30 44.777,30 C50.188,30 54.573,34.386 54.573,39.796" id="Fill-2198" fill="#D0E8F9" sketch:type="MSShapeGroup"></path>
            <path d="M48.33,30.675 L35.656,43.349 C36.362,45.159 37.586,46.706 39.151,47.808 L52.789,34.17 C51.688,32.604 50.14,31.38 48.33,30.675" id="Fill-2199" fill="#EBF7FD" sketch:type="MSShapeGroup"></path>
            <path d="M58.723,53.291 L52.753,47.046 C54.499,45.128 55.573,42.588 55.573,39.796 C55.573,33.844 50.731,29 44.777,29 C38.824,29 33.982,33.844 33.982,39.796 C33.982,45.749 38.824,50.592 44.777,50.592 C47.219,50.592 49.466,49.768 51.277,48.396 L57.278,54.673 C57.474,54.878 57.736,54.982 58,54.982 C58.249,54.982 58.497,54.89 58.692,54.704 C59.09,54.323 59.105,53.69 58.723,53.291 L58.723,53.291 Z M35.982,39.796 C35.982,34.946 39.928,31 44.777,31 C49.627,31 53.573,34.946 53.573,39.796 C53.573,44.646 49.627,48.592 44.777,48.592 C39.928,48.592 35.982,44.646 35.982,39.796 L35.982,39.796 Z" id="Fill-2200" fill="#B1D3F0" sketch:type="MSShapeGroup"></path>
        </g>
    </g>
</svg>