<?xml version="1.0" encoding="UTF-8" standalone="no"?>
<svg width="56px" height="58px" viewBox="0 0 56 58" version="1.1" xmlns="http://www.w3.org/2000/svg" xmlns:xlink="http://www.w3.org/1999/xlink" xmlns:sketch="http://www.bohemiancoding.com/sketch/ns">
    <!-- Generator: Sketch 3.2.2 (9983) - http://www.bohemiancoding.com/sketch -->
    <title>492 - Search Notes (Flat)</title>
    <desc>Created with Sketch.</desc>
    <defs></defs>
    <g id="Page-1" stroke="none" stroke-width="1" fill="none" fill-rule="evenodd" sketch:type="MSPage">
        <g id="492---Search-Notes-(Flat)" sketch:type="MSLayerGroup">
            <path d="M0,0 L44,0 L44,58 L0,58 L0,0 Z" id="Fill-1501" fill="#CCB292" sketch:type="MSShapeGroup"></path>
            <path d="M0,0 L8,0 L8,58 L0,58 L0,0 Z" id="Fill-1502" fill="#7F6E5D" sketch:type="MSShapeGroup"></path>
            <path d="M15,10 L37,10 L37,22 L15,22 L15,10 Z" id="Fill-1503" fill="#EFECDE" sketch:type="MSShapeGroup"></path>
            <path d="M19,13 L33,13 L33,15 L19,15 L19,13 Z" id="Fill-1504" fill="#D5D0BB" sketch:type="MSShapeGroup"></path>
            <path d="M19,17 L33,17 L33,19 L19,19 L19,17 Z" id="Fill-1505" fill="#D5D0BB" sketch:type="MSShapeGroup"></path>
            <path d="M51.573,42.815 C51.573,48.225 47.188,52.611 41.778,52.611 C36.367,52.611 31.982,48.225 31.982,42.815 C31.982,37.404 36.367,33.019 41.778,33.019 C47.188,33.019 51.573,37.404 51.573,42.815" id="Fill-2042" fill="#D0E8F9" sketch:type="MSShapeGroup"></path>
            <path d="M45.33,33.693 L32.656,46.367 C33.362,48.177 34.586,49.725 36.151,50.826 L49.789,37.188 C48.687,35.623 47.14,34.399 45.33,33.693" id="Fill-2043" fill="#EBF7FD" sketch:type="MSShapeGroup"></path>
            <path d="M55.723,56.309 L49.753,50.065 C51.499,48.146 52.573,45.607 52.573,42.815 C52.573,36.862 47.731,32.019 41.778,32.019 C35.824,32.019 30.982,36.862 30.982,42.815 C30.982,48.767 35.824,53.611 41.778,53.611 C44.219,53.611 46.466,52.786 48.277,51.415 L54.277,57.691 C54.474,57.897 54.736,58 55,58 C55.249,58 55.497,57.908 55.692,57.723 C56.09,57.341 56.105,56.708 55.723,56.309 L55.723,56.309 Z M32.982,42.815 C32.982,37.964 36.928,34.019 41.778,34.019 C46.627,34.019 50.573,37.964 50.573,42.815 C50.573,47.665 46.627,51.61 41.778,51.61 C36.928,51.61 32.982,47.665 32.982,42.815 L32.982,42.815 Z" id="Fill-2044" fill="#8697CB" sketch:type="MSShapeGroup"></path>
        </g>
    </g>
</svg>