<?xml version="1.0" encoding="UTF-8" standalone="no"?>
<svg width="45px" height="59px" viewBox="0 0 45 59" version="1.1" xmlns="http://www.w3.org/2000/svg" xmlns:xlink="http://www.w3.org/1999/xlink" xmlns:sketch="http://www.bohemiancoding.com/sketch/ns">
    <!-- Generator: Sketch 3.2.2 (9983) - http://www.bohemiancoding.com/sketch -->
    <title>76 - Smartphone Warning (Flat)</title>
    <desc>Created with Sketch.</desc>
    <defs></defs>
    <g id="Page-1" stroke="none" stroke-width="1" fill="none" fill-rule="evenodd" sketch:type="MSPage">
        <g id="76---Smartphone-Warning-(Flat)" sketch:type="MSLayerGroup">
            <path d="M28.595,58 L3.405,58 C1.525,58 0,56.475 0,54.595 L0,3.405 C0,1.525 1.525,0 3.405,0 L28.595,0 C30.475,0 32,1.525 32,3.405 L32,54.595 C32,56.475 30.475,58 28.595,58" id="Fill-601" fill="#545E73" sketch:type="MSShapeGroup"></path>
            <path d="M0,6 L32,6 L32,46 L0,46 L0,6 Z" id="Fill-602" fill="#8697CB" sketch:type="MSShapeGroup"></path>
            <path d="M19,52 C19,53.657 17.657,55 16,55 C14.343,55 13,53.657 13,52 C13,50.344 14.343,49 16,49 C17.657,49 19,50.344 19,52" id="Fill-603" fill="#323A45" sketch:type="MSShapeGroup"></path>
            <path d="M16,4 L12,4 C11.447,4 11,3.553 11,3 C11,2.448 11.447,2 12,2 L16,2 C16.553,2 17,2.448 17,3 C17,3.553 16.553,4 16,4" id="Fill-604" fill="#323A45" sketch:type="MSShapeGroup"></path>
            <path d="M20,4 L19,4 C18.447,4 18,3.553 18,3 C18,2.448 18.447,2 19,2 L20,2 C20.553,2 21,2.448 21,3 C21,3.553 20.553,4 20,4" id="Fill-605" fill="#323A45" sketch:type="MSShapeGroup"></path>
            <path d="M43.15,58.982 L19.459,58.982 C18.504,58.982 17.909,57.946 18.391,57.12 L30.236,36.814 C30.713,35.995 31.896,35.995 32.374,36.814 L44.219,57.12 C44.701,57.946 44.105,58.982 43.15,58.982" id="Fill-2182" fill="#F0C41A" sketch:type="MSShapeGroup"></path>
            <path d="M31.39,51.982 C30.837,51.982 30.39,51.534 30.39,50.982 L30.39,42.982 C30.39,42.429 30.837,41.982 31.39,41.982 C31.942,41.982 32.39,42.429 32.39,42.982 L32.39,50.982 C32.39,51.534 31.942,51.982 31.39,51.982" id="Fill-2183" fill="#FFFFFF" sketch:type="MSShapeGroup"></path>
            <path d="M31.39,55.982 C31.129,55.982 30.87,55.871 30.68,55.692 C30.5,55.502 30.39,55.242 30.39,54.982 C30.39,54.721 30.5,54.461 30.68,54.272 C31.06,53.901 31.719,53.901 32.1,54.272 C32.279,54.461 32.39,54.721 32.39,54.982 C32.39,55.242 32.279,55.502 32.1,55.692 C31.91,55.871 31.66,55.982 31.39,55.982" id="Fill-2184" fill="#FFFFFF" sketch:type="MSShapeGroup"></path>
        </g>
    </g>
</svg>