<?xml version="1.0" encoding="UTF-8" standalone="no"?>
<svg width="46px" height="59px" viewBox="0 0 46 59" version="1.1" xmlns="http://www.w3.org/2000/svg" xmlns:xlink="http://www.w3.org/1999/xlink" xmlns:sketch="http://www.bohemiancoding.com/sketch/ns">
    <!-- Generator: Sketch 3.2.2 (9983) - http://www.bohemiancoding.com/sketch -->
    <title>71 - Smartphone Settings (Flat)</title>
    <desc>Created with Sketch.</desc>
    <defs></defs>
    <g id="Page-1" stroke="none" stroke-width="1" fill="none" fill-rule="evenodd" sketch:type="MSPage">
        <g id="71---Smartphone-Settings-(Flat)" sketch:type="MSLayerGroup">
            <path d="M28.594,58 L3.405,58 C1.525,58 0,56.475 0,54.595 L0,3.405 C0,1.525 1.525,0 3.405,0 L28.594,0 C30.475,0 32,1.525 32,3.405 L32,54.595 C32,56.475 30.475,58 28.594,58" id="Fill-626" fill="#545E73" sketch:type="MSShapeGroup"></path>
            <path d="M0,6 L32,6 L32,46 L0,46 L0,6 Z" id="Fill-627" fill="#8697CB" sketch:type="MSShapeGroup"></path>
            <path d="M19,52 C19,53.657 17.657,55 16,55 C14.343,55 13,53.657 13,52 C13,50.344 14.343,49 16,49 C17.657,49 19,50.344 19,52" id="Fill-628" fill="#323A45" sketch:type="MSShapeGroup"></path>
            <path d="M16,4 L12,4 C11.447,4 11,3.553 11,3 C11,2.448 11.447,2 12,2 L16,2 C16.553,2 17,2.448 17,3 C17,3.553 16.553,4 16,4" id="Fill-629" fill="#323A45" sketch:type="MSShapeGroup"></path>
            <path d="M20,4 L19,4 C18.447,4 18,3.553 18,3 C18,2.448 18.447,2 19,2 L20,2 C20.553,2 21,2.448 21,3 C21,3.553 20.553,4 20,4" id="Fill-630" fill="#323A45" sketch:type="MSShapeGroup"></path>
            <path d="M45.39,45.828 L43.946,45.55 C41.803,45.138 40.82,42.634 42.111,40.875 L43.017,39.638 L41.059,37.68 L39.842,38.505 C38.035,39.729 35.57,38.653 35.238,36.497 L35.005,34.982 L32.236,34.982 L31.877,36.846 C31.474,38.942 29.059,39.942 27.292,38.745 L25.72,37.68 L23.762,39.638 L24.669,40.875 C25.959,42.634 24.976,45.138 22.833,45.55 L21.39,45.828 L21.39,48.597 L22.905,48.83 C25.061,49.162 26.137,51.627 24.913,53.434 L24.089,54.651 L26.047,56.609 L27.283,55.703 C29.042,54.412 31.546,55.395 31.958,57.538 L32.236,58.982 L35.005,58.982 L35.169,57.916 C35.508,55.712 38.065,54.653 39.863,55.971 L40.733,56.609 L42.691,54.651 L41.866,53.434 C40.643,51.627 41.718,49.162 43.875,48.83 L45.39,48.597 L45.39,45.828" id="Fill-2189" fill="#BDC3C7" sketch:type="MSShapeGroup"></path>
            <path d="M37.39,46.982 C37.39,49.19 35.599,50.982 33.39,50.982 C31.181,50.982 29.39,49.19 29.39,46.982 C29.39,44.772 31.181,42.982 33.39,42.982 C35.599,42.982 37.39,44.772 37.39,46.982 L37.39,46.982 Z" id="Fill-2190" fill="#FFFFFF" sketch:type="MSShapeGroup"></path>
            <path d="M37.39,46.982 C37.39,49.19 35.599,50.982 33.39,50.982 C31.181,50.982 29.39,49.19 29.39,46.982 C29.39,44.772 31.181,42.982 33.39,42.982 C35.599,42.982 37.39,44.772 37.39,46.982 L37.39,46.982 Z" id="Stroke-2191" stroke="#EDF0F1" stroke-width="2" sketch:type="MSShapeGroup"></path>
        </g>
    </g>
</svg>