<?xml version="1.0" encoding="UTF-8" standalone="no"?>
<svg width="60px" height="60px" viewBox="0 0 60 60" version="1.1" xmlns="http://www.w3.org/2000/svg" xmlns:xlink="http://www.w3.org/1999/xlink" xmlns:sketch="http://www.bohemiancoding.com/sketch/ns">
    <!-- Generator: Sketch 3.2.2 (9983) - http://www.bohemiancoding.com/sketch -->
    <title>31 - Stopwatch Settings (Flat)</title>
    <desc>Created with Sketch.</desc>
    <defs></defs>
    <g id="Page-1" stroke="none" stroke-width="1" fill="none" fill-rule="evenodd" sketch:type="MSPage">
        <g id="31---Stopwatch-Settings-(Flat)" sketch:type="MSLayerGroup">
            <path d="M59,29 C59,45.016 46.016,58 30,58 C13.984,58 1,45.016 1,29 C1,12.984 13.984,0 30,0 C46.016,0 59,12.984 59,29" id="Fill-548" fill="#3C97D3" sketch:type="MSShapeGroup"></path>
            <path d="M30,60 C13.458,60 0,46.542 0,30 C0,22.007 3.107,14.487 8.749,8.824 C9.528,8.039 10.796,8.039 11.577,8.819 C12.36,9.599 12.362,10.865 11.583,11.647 C6.693,16.555 4,23.072 4,30 C4,44.337 15.663,56 30,56 C44.337,56 56,44.337 56,30 C56,16.337 45.405,5.101 32,4.076 L32,14.833 C32,15.937 31.104,16.833 30,16.833 C28.896,16.833 28,15.937 28,14.833 L28,2 C28,0.896 28.896,0 30,0 C46.542,0 60,13.458 60,30 C60,46.542 46.542,60 30,60" id="Fill-549" fill="#B1D3F0" sketch:type="MSShapeGroup"></path>
            <path d="M20,20.121 L20,20.121 L32.944,29.484 C34.218,30.411 34.363,32.257 33.249,33.371 C32.135,34.484 30.29,34.34 29.363,33.066 L20,20.121" id="Fill-550" fill="#B1D3F0" sketch:type="MSShapeGroup"></path>
            <path d="M60,46.828 L58.556,46.55 C56.413,46.138 55.431,43.634 56.721,41.875 L57.627,40.638 L55.669,38.68 L54.452,39.505 C52.646,40.729 50.18,39.653 49.849,37.497 L49.615,35.982 L46.846,35.982 L46.488,37.846 C46.084,39.942 43.669,40.942 41.903,39.745 L40.331,38.68 L38.373,40.638 L39.279,41.875 C40.569,43.634 39.587,46.138 37.444,46.55 L36,46.828 L36,49.597 L37.515,49.83 C39.672,50.162 40.747,52.627 39.523,54.434 L38.699,55.651 L40.657,57.609 L41.893,56.703 C43.653,55.412 46.156,56.395 46.568,58.538 L46.846,59.982 L49.615,59.982 L49.779,58.916 C50.119,56.712 52.675,55.652 54.474,56.971 L55.343,57.609 L57.301,55.651 L56.477,54.434 C55.253,52.627 56.328,50.162 58.485,49.83 L60,49.597 L60,46.828" id="Fill-2241" fill="#556080" sketch:type="MSShapeGroup"></path>
            <path d="M52,47.982 C52,50.19 50.209,51.982 48,51.982 C45.791,51.982 44,50.19 44,47.982 C44,45.772 45.791,43.982 48,43.982 C50.209,43.982 52,45.772 52,47.982 L52,47.982 Z" id="Fill-2242" fill="#FFFFFF" sketch:type="MSShapeGroup"></path>
            <path d="M52,47.982 C52,50.19 50.209,51.982 48,51.982 C45.791,51.982 44,50.19 44,47.982 C44,45.772 45.791,43.982 48,43.982 C50.209,43.982 52,45.772 52,47.982 L52,47.982 Z" id="Stroke-2243" stroke="#EDF0F1" stroke-width="2" sketch:type="MSShapeGroup"></path>
        </g>
    </g>
</svg>