<?xml version="1.0" encoding="UTF-8" standalone="no"?>
<svg width="45px" height="55px" viewBox="0 0 45 55" version="1.1" xmlns="http://www.w3.org/2000/svg" xmlns:xlink="http://www.w3.org/1999/xlink" xmlns:sketch="http://www.bohemiancoding.com/sketch/ns">
    <!-- Generator: Sketch 3.2.2 (9983) - http://www.bohemiancoding.com/sketch -->
    <title>319 - Substract Bookmark (Flat)</title>
    <desc>Created with Sketch.</desc>
    <defs></defs>
    <g id="Page-1" stroke="none" stroke-width="1" fill="none" fill-rule="evenodd" sketch:type="MSPage">
        <g id="319---Substract-Bookmark-(Flat)" sketch:type="MSLayerGroup">
            <path d="M16,0 L0,0 L0,53.444 C0,53.938 0.598,54.186 0.948,53.836 L16,38.784 L31.052,53.836 C31.402,54.186 32,53.938 32,53.444 L32,0 L16,0" id="Fill-1097" fill="#D85A4A" sketch:type="MSShapeGroup"></path>
            <path d="M0,0 L32,0 L32,11 L0,11 L0,0 Z" id="Fill-1802" fill="#C13B2A" sketch:type="MSShapeGroup"></path>
            <path d="M45,43 C45,49.628 39.627,55 33,55 C26.373,55 21,49.628 21,43 C21,36.373 26.373,31 33,31 C39.627,31 45,36.373 45,43" id="Fill-2596" fill="#F29C21" sketch:type="MSShapeGroup"></path>
            <path d="M39,44 L27,44 C26.448,44 26,43.552 26,43 C26,42.448 26.448,42 27,42 L39,42 C39.552,42 40,42.448 40,43 C40,43.552 39.552,44 39,44" id="Fill-2597" fill="#FFFFFF" sketch:type="MSShapeGroup"></path>
        </g>
    </g>
</svg>