<?xml version="1.0" encoding="UTF-8" standalone="no"?>
<svg width="55px" height="56px" viewBox="0 0 55 56" version="1.1" xmlns="http://www.w3.org/2000/svg" xmlns:xlink="http://www.w3.org/1999/xlink" xmlns:sketch="http://www.bohemiancoding.com/sketch/ns">
    <!-- Generator: Sketch 3.2.2 (9983) - http://www.bohemiancoding.com/sketch -->
    <title>199 - Substract To Do List (Flat)</title>
    <desc>Created with Sketch.</desc>
    <defs></defs>
    <g id="Page-1" stroke="none" stroke-width="1" fill="none" fill-rule="evenodd" sketch:type="MSPage">
        <g id="199---Substract-To-Do-List-(Flat)" sketch:type="MSLayerGroup">
            <path d="M43.636,52 L8.364,52 C3.745,52 0,48.255 0,43.636 L0,8.364 C0,3.745 3.745,0 8.364,0 L43.636,0 C48.255,0 52,3.745 52,8.364 L52,43.636 C52,48.255 48.255,52 43.636,52" id="Fill-1743" fill="#3ABCA7" sketch:type="MSShapeGroup"></path>
            <path d="M26,13 L44,13 M26,27 L44,27 M26,41 L44,41 M18.929,8 L12.072,16 L7.5,12.571 M18.929,22 L12.072,30 L7.5,26.572 M18.929,37 L12.072,45 L7.5,41.571" id="Stroke-1744" stroke="#FFFFFF" stroke-width="2" stroke-linecap="round" stroke-linejoin="round" sketch:type="MSShapeGroup"></path>
            <path d="M55,44 C55,50.628 49.627,56 43,56 C36.373,56 31,50.628 31,44 C31,37.373 36.373,32 43,32 C49.627,32 55,37.373 55,44" id="Fill-1916" fill="#F29C21" sketch:type="MSShapeGroup"></path>
            <path d="M49,45 L37,45 C36.448,45 36,44.552 36,44 C36,43.448 36.448,43 37,43 L49,43 C49.552,43 50,43.448 50,44 C50,44.552 49.552,45 49,45" id="Fill-1917" fill="#FFFFFF" sketch:type="MSShapeGroup"></path>
        </g>
    </g>
</svg>