<?xml version="1.0" encoding="UTF-8" standalone="no"?>
<svg width="60px" height="51px" viewBox="0 0 60 51" version="1.1" xmlns="http://www.w3.org/2000/svg" xmlns:xlink="http://www.w3.org/1999/xlink" xmlns:sketch="http://www.bohemiancoding.com/sketch/ns">
    <!-- Generator: Sketch 3.2.2 (9983) - http://www.bohemiancoding.com/sketch -->
    <title>399 - Substract Cloud (Flat)</title>
    <desc>Created with Sketch.</desc>
    <defs></defs>
    <g id="Page-1" stroke="none" stroke-width="1" fill="none" fill-rule="evenodd" sketch:type="MSPage">
        <g id="399---Substract-Cloud-(Flat)" sketch:type="MSLayerGroup" transform="translate(1.000000, 1.000000)">
            <path d="M49.003,16 C48.889,7.301 41.811,0 33.085,0 C27.525,0 22.306,3.006 19.424,7.336 C18.157,6.494 16.636,6 15,6 C10.582,6 7,9.582 7,14 C7,14.153 7.014,14.303 7.023,14.454 C7.013,14.637 7,14.821 7,15 C3.012,16.912 0,21.457 0,26.155 C0,32.67 5.33,38 11.845,38 L36.352,38 C36.49,38 36.624,37.984 36.761,37.979 C36.897,37.985 37.031,38 37.169,38 L46.972,38 C53.037,38 58,33.038 58,26.972 C58,21.601 54.106,16.962 49.003,16 L49.003,16 Z" id="Fill-381" fill="#91BAE1" sketch:type="MSShapeGroup"></path>
            <path d="M49.003,16 C48.889,7.301 41.811,0 33.085,0 C27.525,0 22.306,3.006 19.424,7.336 C18.157,6.494 16.636,6 15,6 C10.582,6 7,9.582 7,14 C7,14.153 7.014,14.303 7.023,14.454 C7.013,14.637 7,14.821 7,15 C3.012,16.912 0,21.457 0,26.155 C0,32.67 5.33,38 11.845,38 L36.352,38 C36.49,38 36.624,37.984 36.761,37.979 C36.897,37.985 37.031,38 37.169,38 L46.972,38 C53.037,38 58,33.038 58,26.972 C58,21.601 54.106,16.962 49.003,16 L49.003,16 Z" id="Stroke-382" stroke="#8697CB" stroke-width="2" stroke-linecap="round" sketch:type="MSShapeGroup"></path>
            <path d="M49.003,16 C49.003,16 46.469,15.625 44,16" id="Fill-383" fill="#91BAE1" sketch:type="MSShapeGroup"></path>
            <path d="M49.003,16 C49.003,16 46.469,15.625 44,16" id="Stroke-384" stroke="#8697CB" stroke-width="2" stroke-linecap="round" sketch:type="MSShapeGroup"></path>
            <path d="M7,14 C7,9.582 10.582,6 15,6 C19.418,6 23,9.582 23,14" id="Fill-385" fill="#91BAE1" sketch:type="MSShapeGroup"></path>
            <path d="M7,14 C7,9.582 10.582,6 15,6 C19.418,6 23,9.582 23,14" id="Stroke-386" stroke="#8697CB" stroke-width="2" stroke-linecap="round" sketch:type="MSShapeGroup"></path>
            <path d="M42,38 C42,44.628 36.627,50 30,50 C23.373,50 18,44.628 18,38 C18,31.373 23.373,26 30,26 C36.627,26 42,31.373 42,38" id="Fill-2665" fill="#F29C21" sketch:type="MSShapeGroup"></path>
            <path d="M36,39 L24,39 C23.448,39 23,38.552 23,38 C23,37.448 23.448,37 24,37 L36,37 C36.552,37 37,37.448 37,38 C37,38.552 36.552,39 36,39" id="Fill-2666" fill="#FFFFFF" sketch:type="MSShapeGroup"></path>
        </g>
    </g>
</svg>