<?xml version="1.0" encoding="UTF-8" standalone="no"?>
<svg width="59px" height="55px" viewBox="0 0 59 55" version="1.1" xmlns="http://www.w3.org/2000/svg" xmlns:xlink="http://www.w3.org/1999/xlink" xmlns:sketch="http://www.bohemiancoding.com/sketch/ns">
    <!-- Generator: Sketch 3.2.2 (9983) - http://www.bohemiancoding.com/sketch -->
    <title>419 - Substract Album (Flat)</title>
    <desc>Created with Sketch.</desc>
    <defs></defs>
    <g id="Page-1" stroke="none" stroke-width="1" fill="none" fill-rule="evenodd" sketch:type="MSPage">
        <g id="419---Substract-Album-(Flat)" sketch:type="MSLayerGroup">
            <path d="M0,47 L56,47 L56,0 L0,0 L0,47 Z" id="Fill-1183" fill="#E04D60" sketch:type="MSShapeGroup"></path>
            <path d="M39.659,9.248 C39.443,9.058 39.153,8.971 38.87,9.009 L20.87,11.376 C20.372,11.442 20,11.865 20,12.367 L20,31.802 C18.831,30.783 17.246,30.153 15.5,30.153 C11.916,30.153 9,32.794 9,36.041 C9,39.288 11.916,41.93 15.5,41.93 C19.084,41.93 22,39.288 22,36.041 L22,18.244 L38,16.14 L38,26.542 C36.867,25.576 35.347,24.98 33.673,24.98 C30.185,24.98 27.347,27.552 27.347,30.714 C27.347,33.876 30.185,36.449 33.673,36.449 C37.162,36.449 40,33.876 40,30.714 L40,10 C40,9.712 39.876,9.439 39.659,9.248" id="Fill-1184" fill="#FFFFFF" sketch:type="MSShapeGroup"></path>
            <path d="M59,43 C59,49.628 53.627,55 47,55 C40.373,55 35,49.628 35,43 C35,36.373 40.373,31 47,31 C53.627,31 59,36.373 59,43" id="Fill-2180" fill="#F29C21" sketch:type="MSShapeGroup"></path>
            <path d="M53,44 L41,44 C40.448,44 40,43.552 40,43 C40,42.448 40.448,42 41,42 L53,42 C53.552,42 54,42.448 54,43 C54,43.552 53.552,44 53,44" id="Fill-2181" fill="#FFFFFF" sketch:type="MSShapeGroup"></path>
        </g>
    </g>
</svg>