<?xml version="1.0" encoding="UTF-8" standalone="no"?>
<svg width="60px" height="52px" viewBox="0 0 60 52" version="1.1" xmlns="http://www.w3.org/2000/svg" xmlns:xlink="http://www.w3.org/1999/xlink" xmlns:sketch="http://www.bohemiancoding.com/sketch/ns">
    <!-- Generator: Sketch 3.2.2 (9983) - http://www.bohemiancoding.com/sketch -->
    <title>179 - Substract Folder (Flat)</title>
    <desc>Created with Sketch.</desc>
    <defs></defs>
    <g id="Page-1" stroke="none" stroke-width="1" fill="none" fill-rule="evenodd" sketch:type="MSPage">
        <g id="179---Substract-Folder-(Flat)" sketch:type="MSLayerGroup">
            <path d="M25,7 L20,0 L0,0 L0,51 L58,51 L58,14 L30,14 L25,7" id="Fill-1703" fill="#556080" sketch:type="MSShapeGroup"></path>
            <path d="M30,14 L58,14 L58,7 L25,7 L30,14" id="Fill-1704" fill="#3D4451" sketch:type="MSShapeGroup"></path>
            <path d="M59.39,40 C59.39,46.628 54.017,52 47.39,52 C40.762,52 35.39,46.628 35.39,40 C35.39,33.373 40.762,28 47.39,28 C54.017,28 59.39,33.373 59.39,40" id="Fill-1864" fill="#F29C21" sketch:type="MSShapeGroup"></path>
            <path d="M53.39,41 L41.39,41 C40.837,41 40.39,40.552 40.39,40 C40.39,39.448 40.837,39 41.39,39 L53.39,39 C53.942,39 54.39,39.448 54.39,40 C54.39,40.552 53.942,41 53.39,41" id="Fill-1865" fill="#FFFFFF" sketch:type="MSShapeGroup"></path>
        </g>
    </g>
</svg>