<?xml version="1.0" encoding="UTF-8" standalone="no"?>
<svg width="45px" height="59px" viewBox="0 0 45 59" version="1.1" xmlns="http://www.w3.org/2000/svg" xmlns:xlink="http://www.w3.org/1999/xlink" xmlns:sketch="http://www.bohemiancoding.com/sketch/ns">
    <!-- Generator: Sketch 3.2.2 (9983) - http://www.bohemiancoding.com/sketch -->
    <title>77 - Success Smartphone (Flat)</title>
    <desc>Created with Sketch.</desc>
    <defs></defs>
    <g id="Page-1" stroke="none" stroke-width="1" fill="none" fill-rule="evenodd" sketch:type="MSPage">
        <g id="77---Success-Smartphone-(Flat)" sketch:type="MSLayerGroup">
            <path d="M28.595,58 L3.405,58 C1.525,58 0,56.475 0,54.595 L0,3.405 C0,1.525 1.525,0 3.405,0 L28.595,0 C30.475,0 32,1.525 32,3.405 L32,54.595 C32,56.475 30.475,58 28.595,58" id="Fill-596" fill="#545E73" sketch:type="MSShapeGroup"></path>
            <path d="M0,6 L32,6 L32,46 L0,46 L0,6 Z" id="Fill-597" fill="#8697CB" sketch:type="MSShapeGroup"></path>
            <path d="M19,52 C19,53.657 17.657,55 16,55 C14.343,55 13,53.657 13,52 C13,50.344 14.343,49 16,49 C17.657,49 19,50.344 19,52" id="Fill-598" fill="#323A45" sketch:type="MSShapeGroup"></path>
            <path d="M16,4 L12,4 C11.447,4 11,3.553 11,3 C11,2.448 11.447,2 12,2 L16,2 C16.553,2 17,2.448 17,3 C17,3.553 16.553,4 16,4" id="Fill-599" fill="#323A45" sketch:type="MSShapeGroup"></path>
            <path d="M20,4 L19,4 C18.447,4 18,3.553 18,3 C18,2.448 18.447,2 19,2 L20,2 C20.553,2 21,2.448 21,3 C21,3.553 20.553,4 20,4" id="Fill-600" fill="#323A45" sketch:type="MSShapeGroup"></path>
            <path d="M44.39,46.982 C44.39,53.609 39.017,58.982 32.39,58.982 C25.762,58.982 20.39,53.609 20.39,46.982 C20.39,40.354 25.762,34.982 32.39,34.982 C39.017,34.982 44.39,40.354 44.39,46.982" id="Fill-2180" fill="#26B99A" sketch:type="MSShapeGroup"></path>
            <path d="M38.961,41.161 C38.506,40.845 37.884,40.957 37.569,41.411 L31.973,49.451 L28.024,46.209 C27.598,45.858 26.967,45.921 26.617,46.347 C26.266,46.774 26.328,47.404 26.755,47.755 L31.541,51.683 C31.721,51.831 31.945,51.911 32.175,51.911 C32.221,51.911 32.267,51.907 32.312,51.901 C32.589,51.862 32.837,51.71 32.996,51.482 L39.21,42.553 C39.526,42.1 39.414,41.476 38.961,41.161" id="Fill-2181" fill="#FFFFFF" sketch:type="MSShapeGroup"></path>
        </g>
    </g>
</svg>