<?xml version="1.0" encoding="UTF-8" standalone="no"?>
<svg width="60px" height="51px" viewBox="0 0 60 51" version="1.1" xmlns="http://www.w3.org/2000/svg" xmlns:xlink="http://www.w3.org/1999/xlink" xmlns:sketch="http://www.bohemiancoding.com/sketch/ns">
    <!-- Generator: Sketch 3.2.2 (9983) - http://www.bohemiancoding.com/sketch -->
    <title>397 - Success Cloud (Flat)</title>
    <desc>Created with Sketch.</desc>
    <defs></defs>
    <g id="Page-1" stroke="none" stroke-width="1" fill="none" fill-rule="evenodd" sketch:type="MSPage">
        <g id="397---Success-Cloud-(Flat)" sketch:type="MSLayerGroup" transform="translate(1.000000, 1.000000)">
            <path d="M49.003,16 C48.889,7.301 41.811,0 33.085,0 C27.525,0 22.306,3.006 19.424,7.336 C18.157,6.494 16.636,6 15,6 C10.582,6 7,9.582 7,14 C7,14.153 7.014,14.303 7.023,14.454 C7.013,14.637 7,14.821 7,15 C3.012,16.912 0,21.457 0,26.155 C0,32.67 5.33,38 11.845,38 L36.352,38 C36.49,38 36.624,37.984 36.761,37.979 C36.897,37.985 37.031,38 37.169,38 L46.972,38 C53.037,38 58,33.038 58,26.972 C58,21.601 54.106,16.962 49.003,16 L49.003,16 Z" id="Fill-393" fill="#91BAE1" sketch:type="MSShapeGroup"></path>
            <path d="M49.003,16 C48.889,7.301 41.811,0 33.085,0 C27.525,0 22.306,3.006 19.424,7.336 C18.157,6.494 16.636,6 15,6 C10.582,6 7,9.582 7,14 C7,14.153 7.014,14.303 7.023,14.454 C7.013,14.637 7,14.821 7,15 C3.012,16.912 0,21.457 0,26.155 C0,32.67 5.33,38 11.845,38 L36.352,38 C36.49,38 36.624,37.984 36.761,37.979 C36.897,37.985 37.031,38 37.169,38 L46.972,38 C53.037,38 58,33.038 58,26.972 C58,21.601 54.106,16.962 49.003,16 L49.003,16 Z" id="Stroke-394" stroke="#8697CB" stroke-width="2" stroke-linecap="round" sketch:type="MSShapeGroup"></path>
            <path d="M49.003,16 C49.003,16 46.469,15.625 44,16" id="Fill-395" fill="#91BAE1" sketch:type="MSShapeGroup"></path>
            <path d="M49.003,16 C49.003,16 46.469,15.625 44,16" id="Stroke-396" stroke="#8697CB" stroke-width="2" stroke-linecap="round" sketch:type="MSShapeGroup"></path>
            <path d="M7,14 C7,9.582 10.582,6 15,6 C19.418,6 23,9.582 23,14" id="Fill-397" fill="#91BAE1" sketch:type="MSShapeGroup"></path>
            <path d="M7,14 C7,9.582 10.582,6 15,6 C19.418,6 23,9.582 23,14" id="Stroke-398" stroke="#8697CB" stroke-width="2" stroke-linecap="round" sketch:type="MSShapeGroup"></path>
            <path d="M42,38 C42,44.628 36.627,50 30,50 C23.373,50 18,44.628 18,38 C18,31.373 23.373,26 30,26 C36.627,26 42,31.373 42,38" id="Fill-2669" fill="#26B99A" sketch:type="MSShapeGroup"></path>
            <path d="M36.571,32.179 C36.117,31.863 35.495,31.976 35.179,32.429 L29.584,40.469 L25.634,37.227 C25.208,36.877 24.578,36.94 24.227,37.366 C23.877,37.793 23.939,38.423 24.366,38.773 L29.151,42.702 C29.331,42.849 29.556,42.929 29.786,42.929 C29.831,42.929 29.877,42.926 29.923,42.92 C30.199,42.881 30.447,42.729 30.606,42.5 L36.821,33.572 C37.136,33.118 37.024,32.495 36.571,32.179" id="Fill-2670" fill="#FFFFFF" sketch:type="MSShapeGroup"></path>
        </g>
    </g>
</svg>