<?xml version="1.0" encoding="UTF-8" standalone="no"?>
<svg width="60px" height="53px" viewBox="0 0 60 53" version="1.1" xmlns="http://www.w3.org/2000/svg" xmlns:xlink="http://www.w3.org/1999/xlink" xmlns:sketch="http://www.bohemiancoding.com/sketch/ns">
    <!-- Generator: Sketch 3.2.2 (9983) - http://www.bohemiancoding.com/sketch -->
    <title>457 - Success Video (Flat)</title>
    <desc>Created with Sketch.</desc>
    <defs></defs>
    <g id="Page-1" stroke="none" stroke-width="1" fill="none" fill-rule="evenodd" sketch:type="MSPage">
        <g id="457---Success-Video-(Flat)" sketch:type="MSLayerGroup" transform="translate(1.000000, 1.000000)">
            <path d="M0,0 L56,0 L56,44 L0,44 L0,0 Z" id="Fill-58" fill="#8697CB" sketch:type="MSShapeGroup"></path>
            <path d="M0,0 L56,0 L56,44 L0,44 L0,0 Z" id="Stroke-59" stroke="#535D73" stroke-width="2" sketch:type="MSShapeGroup"></path>
            <path d="M24,29 L24,15 L35,22 L24,29" id="Fill-60" fill="#FFFFFF" sketch:type="MSShapeGroup"></path>
            <path d="M0,0 L10,0 L10,11 L0,11 L0,0 Z" id="Fill-61" fill="#687492" sketch:type="MSShapeGroup"></path>
            <path d="M0,0 L10,0 L10,11 L0,11 L0,0 Z" id="Stroke-62" stroke="#535D73" stroke-width="2" sketch:type="MSShapeGroup"></path>
            <path d="M0,11 L10,11 L10,22 L0,22 L0,11 Z" id="Fill-63" fill="#687492" sketch:type="MSShapeGroup"></path>
            <path d="M0,11 L10,11 L10,22 L0,22 L0,11 Z" id="Stroke-64" stroke="#535D73" stroke-width="2" sketch:type="MSShapeGroup"></path>
            <path d="M0,22 L10,22 L10,33 L0,33 L0,22 Z" id="Fill-65" fill="#687492" sketch:type="MSShapeGroup"></path>
            <path d="M0,22 L10,22 L10,33 L0,33 L0,22 Z" id="Stroke-66" stroke="#535D73" stroke-width="2" sketch:type="MSShapeGroup"></path>
            <path d="M0,33 L10,33 L10,44 L0,44 L0,33 Z" id="Fill-67" fill="#687492" sketch:type="MSShapeGroup"></path>
            <path d="M0,33 L10,33 L10,44 L0,44 L0,33 Z" id="Stroke-68" stroke="#535D73" stroke-width="2" sketch:type="MSShapeGroup"></path>
            <path d="M46,0 L56,0 L56,11 L46,11 L46,0 Z" id="Fill-69" fill="#687492" sketch:type="MSShapeGroup"></path>
            <path d="M46,0 L56,0 L56,11 L46,11 L46,0 Z" id="Stroke-70" stroke="#535D73" stroke-width="2" sketch:type="MSShapeGroup"></path>
            <path d="M46,11 L56,11 L56,22 L46,22 L46,11 Z" id="Fill-71" fill="#687492" sketch:type="MSShapeGroup"></path>
            <path d="M46,11 L56,11 L56,22 L46,22 L46,11 Z" id="Stroke-72" stroke="#535D73" stroke-width="2" sketch:type="MSShapeGroup"></path>
            <path d="M46,22 L56,22 L56,33 L46,33 L46,22 Z" id="Fill-73" fill="#687492" sketch:type="MSShapeGroup"></path>
            <path d="M46,22 L56,22 L56,33 L46,33 L46,22 Z" id="Stroke-74" stroke="#535D73" stroke-width="2" sketch:type="MSShapeGroup"></path>
            <path d="M46,33 L56,33 L56,44 L46,44 L46,33 Z" id="Fill-75" fill="#687492" sketch:type="MSShapeGroup"></path>
            <path d="M46,33 L56,33 L56,44 L46,44 L46,33 Z" id="Stroke-76" stroke="#535D73" stroke-width="2" sketch:type="MSShapeGroup"></path>
            <path d="M59,40 C59,46.628 53.627,52 47,52 C40.373,52 35,46.628 35,40 C35,33.373 40.373,28 47,28 C53.627,28 59,33.373 59,40" id="Fill-2080" fill="#26B99A" sketch:type="MSShapeGroup"></path>
            <path d="M53.571,34.179 C53.117,33.864 52.495,33.976 52.179,34.429 L46.583,42.469 L42.634,39.227 C42.208,38.877 41.578,38.939 41.227,39.366 C40.877,39.793 40.939,40.423 41.366,40.773 L46.151,44.702 C46.331,44.849 46.556,44.929 46.786,44.929 C46.831,44.929 46.877,44.926 46.923,44.92 C47.199,44.881 47.447,44.729 47.606,44.5 L53.821,35.572 C54.136,35.118 54.024,34.495 53.571,34.179" id="Fill-2081" fill="#FFFFFF" sketch:type="MSShapeGroup"></path>
        </g>
    </g>
</svg>