<?xml version="1.0" encoding="UTF-8" standalone="no"?>
<svg width="60px" height="53px" viewBox="0 0 60 53" version="1.1" xmlns="http://www.w3.org/2000/svg" xmlns:xlink="http://www.w3.org/1999/xlink" xmlns:sketch="http://www.bohemiancoding.com/sketch/ns">
    <!-- Generator: Sketch 3.2.2 (9983) - http://www.bohemiancoding.com/sketch -->
    <title>437 - Success Picture (Flat)</title>
    <desc>Created with Sketch.</desc>
    <defs></defs>
    <g id="Page-1" stroke="none" stroke-width="1" fill="none" fill-rule="evenodd" sketch:type="MSPage">
        <g id="437---Success-Picture-(Flat)" sketch:type="MSLayerGroup" transform="translate(1.000000, 1.000000)">
            <path d="M0,0 L55,0 L55,42 L0,42 L0,0 Z" id="Fill-449" fill="#EDF0F1" sketch:type="MSShapeGroup"></path>
            <path d="M0,0 L55,0 L55,42 L0,42 L0,0 Z" id="Stroke-450" stroke="#545E73" stroke-width="2" sketch:type="MSShapeGroup"></path>
            <path d="M4,4 L51,4 L51,38 L4,38 L4,4 Z" id="Fill-451" fill="#545E73" sketch:type="MSShapeGroup"></path>
            <path d="M4,4 L51,4 L51,38 L4,38 L4,4 Z" id="Stroke-452" stroke="#EDF0F1" stroke-width="2" sketch:type="MSShapeGroup"></path>
            <path d="M18.569,12.569 C18.569,15.093 16.523,17.138 14,17.138 C11.477,17.138 9.431,15.093 9.431,12.569 C9.431,10.046 11.477,8 14,8 C16.523,8 18.569,10.046 18.569,12.569" id="Fill-453" fill="#F4D65A" sketch:type="MSShapeGroup"></path>
            <path d="M50,28.111 L49,27 L37,16 L26.5,27.5 L36,37 L50,37 L50,28.111" id="Fill-454" fill="#11A085" sketch:type="MSShapeGroup"></path>
            <path d="M5,37 L36,37 L21.017,22.017 L5,36 L5,37" id="Fill-455" fill="#26B99A" sketch:type="MSShapeGroup"></path>
            <path d="M59,40 C59,46.628 53.627,52 47,52 C40.373,52 35,46.628 35,40 C35,33.373 40.373,28 47,28 C53.627,28 59,33.373 59,40" id="Fill-2132" fill="#26B99A" sketch:type="MSShapeGroup"></path>
            <path d="M53.571,34.179 C53.117,33.864 52.495,33.976 52.179,34.429 L46.583,42.469 L42.634,39.227 C42.208,38.877 41.578,38.939 41.227,39.366 C40.877,39.793 40.939,40.423 41.366,40.773 L46.151,44.702 C46.331,44.849 46.556,44.929 46.786,44.929 C46.831,44.929 46.877,44.926 46.923,44.92 C47.199,44.881 47.447,44.729 47.606,44.5 L53.821,35.572 C54.136,35.118 54.024,34.495 53.571,34.179" id="Fill-2133" fill="#FFFFFF" sketch:type="MSShapeGroup"></path>
        </g>
    </g>
</svg>