<?xml version="1.0" encoding="UTF-8" standalone="no"?>
<svg width="42px" height="53px" viewBox="0 0 42 53" version="1.1" xmlns="http://www.w3.org/2000/svg" xmlns:xlink="http://www.w3.org/1999/xlink" xmlns:sketch="http://www.bohemiancoding.com/sketch/ns">
    <!-- Generator: Sketch 3.2.2 (9983) - http://www.bohemiancoding.com/sketch -->
    <title>517 - Success Location (Flat)</title>
    <desc>Created with Sketch.</desc>
    <defs></defs>
    <g id="Page-1" stroke="none" stroke-width="1" fill="none" fill-rule="evenodd" sketch:type="MSPage">
        <g id="517---Success-Location-(Flat)" sketch:type="MSLayerGroup">
            <path d="M31.03,5.324 L31.03,5.324 C23.931,-1.774 12.422,-1.774 5.324,5.324 C-1.072,11.72 -1.792,23.764 3.636,31 L18.177,52 L32.718,31 C38.146,23.764 37.426,11.72 31.03,5.324 L31.03,5.324 Z M18.354,24 C15.04,24 12.354,21.314 12.354,18 C12.354,14.687 15.04,12 18.354,12 C21.667,12 24.354,14.687 24.354,18 C24.354,21.314 21.667,24 18.354,24 L18.354,24 Z" id="Fill-1564" fill="#3192D0" sketch:type="MSShapeGroup"></path>
            <path d="M42,41 C42,47.627 36.627,53 30,53 C23.373,53 18,47.627 18,41 C18,34.373 23.373,29 30,29 C36.627,29 42,34.373 42,41" id="Fill-1907" fill="#26B99A" sketch:type="MSShapeGroup"></path>
            <path d="M36.571,35.179 C36.117,34.864 35.495,34.976 35.179,35.429 L29.584,43.469 L25.634,40.227 C25.208,39.877 24.578,39.94 24.227,40.366 C23.877,40.793 23.939,41.423 24.366,41.773 L29.151,45.702 C29.331,45.849 29.556,45.929 29.786,45.929 C29.831,45.929 29.877,45.926 29.923,45.919 C30.199,45.881 30.447,45.729 30.606,45.5 L36.821,36.571 C37.136,36.118 37.024,35.495 36.571,35.179" id="Fill-1908" fill="#FFFFFF" sketch:type="MSShapeGroup"></path>
        </g>
    </g>
</svg>