<?xml version="1.0" encoding="UTF-8" standalone="no"?>
<svg width="58px" height="54px" viewBox="0 0 58 54" version="1.1" xmlns="http://www.w3.org/2000/svg" xmlns:xlink="http://www.w3.org/1999/xlink" xmlns:sketch="http://www.bohemiancoding.com/sketch/ns">
    <!-- Generator: Sketch 3.2.2 (9983) - http://www.bohemiancoding.com/sketch -->
    <title>237 - Success Window (Flat)</title>
    <desc>Created with Sketch.</desc>
    <defs></defs>
    <g id="Page-1" stroke="none" stroke-width="1" fill="none" fill-rule="evenodd" sketch:type="MSPage">
        <g id="237---Success-Window-(Flat)" sketch:type="MSLayerGroup">
            <path d="M0,14 L50,14 L50,49 L0,49 L0,14 Z" id="Fill-830" fill="#EDF0F1" sketch:type="MSShapeGroup"></path>
            <path d="M0,0 L50,0 L50,14 L0,14 L0,0 Z" id="Fill-831" fill="#546A79" sketch:type="MSShapeGroup"></path>
            <path d="M10,7 C10,8.657 8.657,10 7,10 C5.343,10 4,8.657 4,7 C4,5.343 5.343,4 7,4 C8.657,4 10,5.343 10,7" id="Fill-832" fill="#ED7061" sketch:type="MSShapeGroup"></path>
            <path d="M19,7 C19,8.657 17.657,10 16,10 C14.343,10 13,8.657 13,7 C13,5.343 14.343,4 16,4 C17.657,4 19,5.343 19,7" id="Fill-833" fill="#F0C41A" sketch:type="MSShapeGroup"></path>
            <path d="M28,7 C28,8.657 26.657,10 25,10 C23.343,10 22,8.657 22,7 C22,5.343 23.343,4 25,4 C26.657,4 28,5.343 28,7" id="Fill-834" fill="#4FBA6E" sketch:type="MSShapeGroup"></path>
            <path d="M58,42 C58,48.628 52.627,54 46,54 C39.373,54 34,48.628 34,42 C34,35.373 39.373,30 46,30 C52.627,30 58,35.373 58,42" id="Fill-2496" fill="#26B99A" sketch:type="MSShapeGroup"></path>
            <path d="M52.571,36.18 C52.117,35.864 51.495,35.976 51.179,36.429 L45.584,44.469 L41.634,41.227 C41.208,40.876 40.578,40.94 40.227,41.366 C39.877,41.793 39.939,42.422 40.366,42.773 L45.151,46.702 C45.331,46.849 45.556,46.929 45.786,46.929 C45.831,46.929 45.877,46.926 45.923,46.92 C46.199,46.881 46.447,46.729 46.606,46.5 L52.821,37.571 C53.136,37.119 53.024,36.495 52.571,36.18" id="Fill-2497" fill="#FFFFFF" sketch:type="MSShapeGroup"></path>
        </g>
    </g>
</svg>