<?xml version="1.0" encoding="UTF-8" standalone="no"?>
<svg width="58px" height="48px" viewBox="0 0 58 48" version="1.1" xmlns="http://www.w3.org/2000/svg" xmlns:xlink="http://www.w3.org/1999/xlink" xmlns:sketch="http://www.bohemiancoding.com/sketch/ns">
    <!-- Generator: Sketch 3.2.2 (9983) - http://www.bohemiancoding.com/sketch -->
    <title>537 - Success Mail (Flat)</title>
    <desc>Created with Sketch.</desc>
    <defs></defs>
    <g id="Page-1" stroke="none" stroke-width="1" fill="none" fill-rule="evenodd" sketch:type="MSPage">
        <g id="537---Success-Mail-(Flat)" sketch:type="MSLayerGroup">
            <path d="M0,39 L56,39 L56,0 L0,0 L0,39 Z" id="Fill-1599" fill="#DCD6CD" sketch:type="MSShapeGroup"></path>
            <path d="M30.965,22.107 C29.327,23.569 26.673,23.569 25.035,22.107 L22.949,20.264 C16.419,26.092 0,39 0,39 L56,39 C56,39 39.581,26.092 33.052,20.264 L30.965,22.107" id="Fill-1600" fill="#E8E3D9" sketch:type="MSShapeGroup"></path>
            <path d="M0,0 L25.035,22.107 C26.673,23.569 29.327,23.569 30.965,22.107 L56,0 L0,0" id="Fill-1601" fill="#EFECDE" sketch:type="MSShapeGroup"></path>
            <path d="M58,36 C58,42.627 52.627,48 46,48 C39.373,48 34,42.627 34,36 C34,29.373 39.373,24 46,24 C52.627,24 58,29.373 58,36" id="Fill-1858" fill="#26B99A" sketch:type="MSShapeGroup"></path>
            <path d="M52.571,30.179 C52.117,29.864 51.495,29.976 51.179,30.429 L45.584,38.469 L41.634,35.227 C41.208,34.877 40.578,34.94 40.227,35.366 C39.877,35.793 39.939,36.423 40.366,36.773 L45.151,40.702 C45.331,40.849 45.556,40.929 45.786,40.929 C45.831,40.929 45.877,40.926 45.923,40.919 C46.199,40.881 46.447,40.729 46.606,40.5 L52.821,31.572 C53.136,31.118 53.024,30.495 52.571,30.179" id="Fill-1859" fill="#FFFFFF" sketch:type="MSShapeGroup"></path>
        </g>
    </g>
</svg>