<?xml version="1.0" encoding="UTF-8" standalone="no"?>
<svg width="46px" height="59px" viewBox="0 0 46 59" version="1.1" xmlns="http://www.w3.org/2000/svg" xmlns:xlink="http://www.w3.org/1999/xlink" xmlns:sketch="http://www.bohemiancoding.com/sketch/ns">
    <!-- Generator: Sketch 3.2.2 (9983) - http://www.bohemiancoding.com/sketch -->
    <title>65 - Sync Smartphone (Flat)</title>
    <desc>Created with Sketch.</desc>
    <defs></defs>
    <g id="Page-1" stroke="none" stroke-width="1" fill="none" fill-rule="evenodd" sketch:type="MSPage">
        <g id="65---Sync-Smartphone-(Flat)" sketch:type="MSLayerGroup">
            <path d="M28.595,58 L3.405,58 C1.525,58 0,56.475 0,54.595 L0,3.405 C0,1.525 1.525,0 3.405,0 L28.595,0 C30.475,0 32,1.525 32,3.405 L32,54.595 C32,56.475 30.475,58 28.595,58" id="Fill-656" fill="#545E73" sketch:type="MSShapeGroup"></path>
            <path d="M0,6 L32,6 L32,46 L0,46 L0,6 Z" id="Fill-657" fill="#8697CB" sketch:type="MSShapeGroup"></path>
            <path d="M19,52 C19,53.657 17.657,55 16,55 C14.343,55 13,53.657 13,52 C13,50.344 14.343,49 16,49 C17.657,49 19,50.344 19,52" id="Fill-658" fill="#323A45" sketch:type="MSShapeGroup"></path>
            <path d="M16,4 L12,4 C11.447,4 11,3.553 11,3 C11,2.448 11.447,2 12,2 L16,2 C16.553,2 17,2.448 17,3 C17,3.553 16.553,4 16,4" id="Fill-659" fill="#323A45" sketch:type="MSShapeGroup"></path>
            <path d="M20,4 L19,4 C18.447,4 18,3.553 18,3 C18,2.448 18.447,2 19,2 L20,2 C20.553,2 21,2.448 21,3 C21,3.553 20.553,4 20,4" id="Fill-660" fill="#323A45" sketch:type="MSShapeGroup"></path>
            <path d="M45.39,46.482 C45.39,53.385 39.793,58.982 32.89,58.982 C25.986,58.982 20.39,53.385 20.39,46.482 C20.39,39.578 25.986,33.982 32.89,33.982 C39.793,33.982 45.39,39.578 45.39,46.482" id="Fill-2164" fill="#B1D3F0" sketch:type="MSShapeGroup"></path>
            <path d="M42.583,47.001 C42.033,46.888 41.514,47.247 41.408,47.788 C40.588,51.956 37.005,54.982 32.889,54.982 C29.539,54.982 26.542,52.976 25.101,49.982 L30.389,49.982 L30.389,47.982 L22.389,47.982 L22.389,55.982 L24.389,55.982 L24.389,52.64 C26.365,55.296 29.475,56.982 32.889,56.982 C37.958,56.982 42.366,53.278 43.371,48.175 C43.477,47.633 43.125,47.107 42.583,47.001" id="Fill-2165" fill="#556080" sketch:type="MSShapeGroup"></path>
            <path d="M41.39,36.979 L41.39,40.322 C39.413,37.665 36.304,35.98 32.89,35.98 C27.821,35.98 23.413,39.683 22.408,44.787 C22.302,45.329 22.654,45.854 23.196,45.961 C23.746,46.074 24.265,45.715 24.371,45.174 C25.191,41.005 28.773,37.98 32.89,37.98 C36.24,37.98 39.237,39.986 40.678,42.979 L35.39,42.979 L35.39,44.98 L43.39,44.98 L43.39,36.979 L41.39,36.979" id="Fill-2166" fill="#556080" sketch:type="MSShapeGroup"></path>
        </g>
    </g>
</svg>