<?xml version="1.0" encoding="UTF-8" standalone="no"?>
<svg width="59px" height="59px" viewBox="0 0 59 59" version="1.1" xmlns="http://www.w3.org/2000/svg" xmlns:xlink="http://www.w3.org/1999/xlink" xmlns:sketch="http://www.bohemiancoding.com/sketch/ns">
    <!-- Generator: Sketch 3.2.2 (9983) - http://www.bohemiancoding.com/sketch -->
    <title>545 - Sync File (Flat)</title>
    <desc>Created with Sketch.</desc>
    <defs></defs>
    <g id="Page-1" stroke="none" stroke-width="1" fill="none" fill-rule="evenodd" sketch:type="MSPage">
        <g id="545---Sync-File-(Flat)" sketch:type="MSLayerGroup">
            <path d="M45,14 L31,0 L0,0 L0,58 L45,58 L45,14" id="Fill-1676" fill="#EFECDE" sketch:type="MSShapeGroup"></path>
            <path d="M10,23 L35,23 C35.552,23 36,22.553 36,22 C36,21.448 35.552,21 35,21 L10,21 C9.448,21 9,21.448 9,22 C9,22.553 9.448,23 10,23" id="Fill-1677" fill="#D5D0BB" sketch:type="MSShapeGroup"></path>
            <path d="M10,15 L20,15 C20.552,15 21,14.553 21,14 C21,13.448 20.552,13 20,13 L10,13 C9.448,13 9,13.448 9,14 C9,14.553 9.448,15 10,15" id="Fill-1678" fill="#D5D0BB" sketch:type="MSShapeGroup"></path>
            <path d="M35,29 L10,29 C9.448,29 9,29.448 9,30 C9,30.553 9.448,31 10,31 L35,31 C35.552,31 36,30.553 36,30 C36,29.448 35.552,29 35,29" id="Fill-1679" fill="#D5D0BB" sketch:type="MSShapeGroup"></path>
            <path d="M35,37 L10,37 C9.448,37 9,37.448 9,38 C9,38.553 9.448,39 10,39 L35,39 C35.552,39 36,38.553 36,38 C36,37.448 35.552,37 35,37" id="Fill-1680" fill="#D5D0BB" sketch:type="MSShapeGroup"></path>
            <path d="M35,45 L10,45 C9.448,45 9,45.448 9,46 C9,46.553 9.448,47 10,47 L35,47 C35.552,47 36,46.553 36,46 C36,45.448 35.552,45 35,45" id="Fill-1681" fill="#D5D0BB" sketch:type="MSShapeGroup"></path>
            <path d="M31,0 L31,14 L45,14 L31,0" id="Fill-1682" fill="#D5D0BB" sketch:type="MSShapeGroup"></path>
            <path d="M59,46.5 C59,53.404 53.404,59 46.5,59 C39.596,59 34,53.404 34,46.5 C34,39.597 39.596,34 46.5,34 C53.404,34 59,39.597 59,46.5" id="Fill-1839" fill="#8697CB" sketch:type="MSShapeGroup"></path>
            <path d="M56.193,47.019 C55.643,46.906 55.125,47.265 55.018,47.807 C54.198,51.975 50.616,55 46.5,55 C43.149,55 40.152,52.995 38.711,50 L44,50 L44,48 L36,48 L36,56 L38,56 L38,52.659 C39.976,55.315 43.085,57 46.5,57 C51.568,57 55.976,53.296 56.981,48.194 C57.088,47.651 56.735,47.126 56.193,47.019" id="Fill-1840" fill="#C1BDDE" sketch:type="MSShapeGroup"></path>
            <path d="M55,36.999 L55,40.34 C53.024,37.683 49.914,35.999 46.5,35.999 C41.432,35.999 37.023,39.702 36.019,44.805 C35.912,45.347 36.265,45.873 36.807,45.979 C37.356,46.092 37.875,45.733 37.981,45.192 C38.802,41.024 42.384,37.999 46.5,37.999 C49.851,37.999 52.847,40.004 54.289,42.999 L49,42.999 L49,44.999 L57,44.999 L57,36.999 L55,36.999" id="Fill-1841" fill="#C1BDDE" sketch:type="MSShapeGroup"></path>
        </g>
    </g>
</svg>