<?xml version="1.0" encoding="UTF-8" standalone="no"?>
<svg width="54px" height="55px" viewBox="0 0 54 55" version="1.1" xmlns="http://www.w3.org/2000/svg" xmlns:xlink="http://www.w3.org/1999/xlink" xmlns:sketch="http://www.bohemiancoding.com/sketch/ns">
    <!-- Generator: Sketch 3.2.2 (9983) - http://www.bohemiancoding.com/sketch -->
    <title>185 - Sync To Do List (Flat)</title>
    <desc>Created with Sketch.</desc>
    <defs></defs>
    <g id="Page-1" stroke="none" stroke-width="1" fill="none" fill-rule="evenodd" sketch:type="MSPage">
        <g id="185---Sync-To-Do-List-(Flat)" sketch:type="MSLayerGroup">
            <path d="M43.636,52 L8.364,52 C3.745,52 0,48.256 0,43.637 L0,8.364 C0,3.745 3.745,0 8.364,0 L43.636,0 C48.255,0 52,3.745 52,8.364 L52,43.637 C52,48.256 48.255,52 43.636,52" id="Fill-1771" fill="#3ABCA7" sketch:type="MSShapeGroup"></path>
            <path d="M26,13 L44,13 M26,27 L44,27 M26,41 L44,41 M18.929,8.001 L12.071,16 L7.5,12.572 M18.929,22 L12.071,30 L7.5,26.571 M18.929,37 L12.071,44.999 L7.5,41.57" id="Stroke-1772" stroke="#FFFFFF" stroke-width="2" stroke-linecap="round" stroke-linejoin="round" sketch:type="MSShapeGroup"></path>
            <path d="M54,42.5 C54,49.404 48.404,55 41.5,55 C34.596,55 29,49.404 29,42.5 C29,35.596 34.596,30 41.5,30 C48.404,30 54,35.596 54,42.5" id="Fill-1904" fill="#B1D3F0" sketch:type="MSShapeGroup"></path>
            <path d="M51.193,43.019 C50.643,42.906 50.125,43.265 50.018,43.807 C49.198,47.975 45.616,51 41.5,51 C38.149,51 35.152,48.995 33.711,46 L39,46 L39,44 L31,44 L31,52 L33,52 L33,48.659 C34.976,51.316 38.085,53 41.5,53 C46.568,53 50.976,49.297 51.981,44.193 C52.088,43.652 51.735,43.126 51.193,43.019" id="Fill-1905" fill="#556080" sketch:type="MSShapeGroup"></path>
            <path d="M50,32.999 L50,36.34 C48.024,33.683 44.914,31.999 41.5,31.999 C36.432,31.999 32.023,35.702 31.019,40.805 C30.912,41.347 31.265,41.873 31.807,41.979 C32.356,42.092 32.875,41.733 32.981,41.192 C33.802,37.024 37.384,33.999 41.5,33.999 C44.851,33.999 47.847,36.004 49.289,38.999 L44,38.999 L44,40.999 L52,40.999 L52,32.999 L50,32.999" id="Fill-1906" fill="#556080" sketch:type="MSShapeGroup"></path>
        </g>
    </g>
</svg>