<?xml version="1.0" encoding="UTF-8" standalone="no"?>
<svg width="54px" height="55px" viewBox="0 0 54 55" version="1.1" xmlns="http://www.w3.org/2000/svg" xmlns:xlink="http://www.w3.org/1999/xlink" xmlns:sketch="http://www.bohemiancoding.com/sketch/ns">
    <!-- Generator: Sketch 3.2.2 (9983) - http://www.bohemiancoding.com/sketch -->
    <title>265 - Sync Pricetag (Flat)</title>
    <desc>Created with Sketch.</desc>
    <defs></defs>
    <g id="Page-1" stroke="none" stroke-width="1" fill="none" fill-rule="evenodd" sketch:type="MSPage">
        <g id="265---Sync-Pricetag-(Flat)" sketch:type="MSLayerGroup">
            <path d="M43.472,0 L30.294,0 L5.848,24.367 L29.582,48.153 L54,23.815 L54,10.504 L43.472,0 L43.472,0 Z M42.015,14.87 C40.394,14.87 39.08,13.556 39.08,11.935 C39.08,10.314 40.394,9 42.015,9 C43.636,9 44.95,10.314 44.95,11.935 C44.95,13.556 43.636,14.87 42.015,14.87 L42.015,14.87 Z" id="Fill-948" fill="#E7D4B1" sketch:type="MSShapeGroup"></path>
            <path d="M5.877,24.354 L0,30.215 L23.734,54 L29.637,48.113 L5.877,24.354" id="Fill-949" fill="#D3C2A4" sketch:type="MSShapeGroup"></path>
            <path d="M42.015,9 C43.636,9 44.95,10.314 44.95,11.935 C44.95,13.556 43.636,14.87 42.015,14.87 C40.394,14.87 39.08,13.556 39.08,11.935 C39.08,10.314 40.394,9 42.015,9 M42.015,5 C38.191,5 35.08,8.111 35.08,11.935 C35.08,15.759 38.191,18.87 42.015,18.87 C45.839,18.87 48.95,15.759 48.95,11.935 C48.95,8.111 45.839,5 42.015,5" id="Fill-950" fill="#CCB292" sketch:type="MSShapeGroup"></path>
            <path d="M49,42.5 C49,49.404 43.404,55 36.5,55 C29.596,55 24,49.404 24,42.5 C24,35.597 29.596,30 36.5,30 C43.404,30 49,35.597 49,42.5" id="Fill-2532" fill="#B1D3F0" sketch:type="MSShapeGroup"></path>
            <path d="M46.193,43.019 C45.643,42.906 45.125,43.265 45.018,43.807 C44.198,47.975 40.616,51 36.5,51 C33.149,51 30.152,48.995 28.711,46 L34,46 L34,44 L26,44 L26,52 L28,52 L28,48.659 C29.976,51.315 33.085,53 36.5,53 C41.568,53 45.976,49.297 46.981,44.193 C47.088,43.652 46.735,43.126 46.193,43.019" id="Fill-2533" fill="#556080" sketch:type="MSShapeGroup"></path>
            <path d="M45,32.998 L45,36.34 C43.024,33.683 39.914,31.999 36.5,31.999 C31.432,31.999 27.023,35.702 26.019,40.805 C25.912,41.347 26.265,41.873 26.807,41.979 C27.356,42.092 27.875,41.733 27.981,41.192 C28.802,37.024 32.384,33.998 36.5,33.998 C39.851,33.998 42.847,36.004 44.289,38.998 L39,38.998 L39,40.999 L47,40.999 L47,32.998 L45,32.998" id="Fill-2534" fill="#556080" sketch:type="MSShapeGroup"></path>
        </g>
    </g>
</svg>