<?xml version="1.0" encoding="UTF-8" standalone="no"?>
<svg width="59px" height="57px" viewBox="0 0 59 57" version="1.1" xmlns="http://www.w3.org/2000/svg" xmlns:xlink="http://www.w3.org/1999/xlink" xmlns:sketch="http://www.bohemiancoding.com/sketch/ns">
    <!-- Generator: Sketch 3.2.2 (9983) - http://www.bohemiancoding.com/sketch -->
    <title>405 - Sync Album (Flat)</title>
    <desc>Created with Sketch.</desc>
    <defs></defs>
    <g id="Page-1" stroke="none" stroke-width="1" fill="none" fill-rule="evenodd" sketch:type="MSPage">
        <g id="405---Sync-Album-(Flat)" sketch:type="MSLayerGroup">
            <path d="M0,47 L56,47 L56,0 L0,0 L0,47 Z" id="Fill-1211" fill="#E04D60" sketch:type="MSShapeGroup"></path>
            <path d="M39.659,9.248 C39.443,9.058 39.153,8.971 38.87,9.009 L20.87,11.376 C20.372,11.441 20,11.865 20,12.367 L20,31.802 C18.831,30.783 17.246,30.153 15.5,30.153 C11.916,30.153 9,32.794 9,36.041 C9,39.288 11.916,41.93 15.5,41.93 C19.084,41.93 22,39.288 22,36.041 L22,18.244 L38,16.14 L38,26.542 C36.867,25.576 35.347,24.98 33.673,24.98 C30.185,24.98 27.347,27.552 27.347,30.714 C27.347,33.876 30.185,36.449 33.673,36.449 C37.162,36.449 40,33.876 40,30.714 L40,10 C40,9.712 39.876,9.438 39.659,9.248" id="Fill-1212" fill="#FFFFFF" sketch:type="MSShapeGroup"></path>
            <path d="M59,44.5 C59,51.404 53.404,57 46.5,57 C39.596,57 34,51.404 34,44.5 C34,37.597 39.596,32 46.5,32 C53.404,32 59,37.597 59,44.5" id="Fill-2168" fill="#B1D3F0" sketch:type="MSShapeGroup"></path>
            <path d="M56.193,45.019 C55.643,44.906 55.125,45.265 55.018,45.807 C54.198,49.975 50.616,53 46.5,53 C43.149,53 40.152,50.995 38.711,48 L44,48 L44,46 L36,46 L36,54 L38,54 L38,50.658 C39.976,53.315 43.085,55 46.5,55 C51.568,55 55.976,51.297 56.981,46.193 C57.088,45.652 56.735,45.126 56.193,45.019" id="Fill-2169" fill="#556080" sketch:type="MSShapeGroup"></path>
            <path d="M55,34.999 L55,38.34 C53.024,35.683 49.914,33.999 46.5,33.999 C41.432,33.999 37.023,37.702 36.019,42.805 C35.912,43.347 36.265,43.873 36.807,43.979 C37.356,44.092 37.875,43.733 37.981,43.192 C38.802,39.024 42.384,35.998 46.5,35.998 C49.851,35.998 52.847,38.004 54.289,40.999 L49,40.999 L49,42.999 L57,42.999 L57,34.999 L55,34.999" id="Fill-2170" fill="#556080" sketch:type="MSShapeGroup"></path>
        </g>
    </g>
</svg>