<?xml version="1.0" encoding="UTF-8" standalone="no"?>
<svg width="60px" height="51px" viewBox="0 0 60 51" version="1.1" xmlns="http://www.w3.org/2000/svg" xmlns:xlink="http://www.w3.org/1999/xlink" xmlns:sketch="http://www.bohemiancoding.com/sketch/ns">
    <!-- Generator: Sketch 3.2.2 (9983) - http://www.bohemiancoding.com/sketch -->
    <title>385 - Sync Cloud (Flat)</title>
    <desc>Created with Sketch.</desc>
    <defs></defs>
    <g id="Page-1" stroke="none" stroke-width="1" fill="none" fill-rule="evenodd" sketch:type="MSPage">
        <g id="385---Sync-Cloud-(Flat)" sketch:type="MSLayerGroup" transform="translate(1.000000, 1.000000)">
            <path d="M49.003,16 C48.889,7.301 41.811,0 33.085,0 C27.525,0 22.306,3.005 19.424,7.337 C18.157,6.494 16.636,6 15,6 C10.582,6 7,9.582 7,14 C7,14.153 7.014,14.303 7.023,14.454 C7.013,14.637 7,14.821 7,15 C3.012,16.912 0,21.457 0,26.155 C0,32.67 5.33,38 11.845,38 L36.352,38 C36.49,38 36.624,37.984 36.761,37.979 C36.897,37.985 37.031,38 37.169,38 L46.972,38 C53.037,38 58,33.038 58,26.972 C58,21.601 54.106,16.962 49.003,16 L49.003,16 Z" id="Fill-1145" fill="#91BAE1" sketch:type="MSShapeGroup"></path>
            <path d="M49.003,16 C48.889,7.301 41.811,0 33.085,0 C27.525,0 22.306,3.005 19.424,7.337 C18.157,6.494 16.636,6 15,6 C10.582,6 7,9.582 7,14 C7,14.153 7.014,14.303 7.023,14.454 C7.013,14.637 7,14.821 7,15 C3.012,16.912 0,21.457 0,26.155 C0,32.67 5.33,38 11.845,38 L36.352,38 C36.49,38 36.624,37.984 36.761,37.979 C36.897,37.985 37.031,38 37.169,38 L46.972,38 C53.037,38 58,33.038 58,26.972 C58,21.601 54.106,16.962 49.003,16 L49.003,16 Z" id="Stroke-1146" stroke="#8697CB" stroke-width="2" stroke-linecap="round" sketch:type="MSShapeGroup"></path>
            <path d="M49.003,16 C49.003,16 46.469,15.625 44,16" id="Fill-1147" fill="#91BAE1" sketch:type="MSShapeGroup"></path>
            <path d="M49.003,16 C49.003,16 46.469,15.625 44,16" id="Stroke-1148" stroke="#8697CB" stroke-width="2" stroke-linecap="round" sketch:type="MSShapeGroup"></path>
            <path d="M7,14 C7,9.582 10.582,6 15,6 C19.418,6 23,9.582 23,14" id="Fill-1149" fill="#91BAE1" sketch:type="MSShapeGroup"></path>
            <path d="M7,14 C7,9.582 10.582,6 15,6 C19.418,6 23,9.582 23,14" id="Stroke-1150" stroke="#8697CB" stroke-width="2" stroke-linecap="round" sketch:type="MSShapeGroup"></path>
            <path d="M42,37.5 C42,44.404 36.404,50 29.5,50 C22.596,50 17,44.404 17,37.5 C17,30.597 22.596,25 29.5,25 C36.404,25 42,30.597 42,37.5" id="Fill-2653" fill="#B1D3F0" sketch:type="MSShapeGroup"></path>
            <path d="M39.193,38.019 C38.643,37.906 38.125,38.265 38.018,38.807 C37.198,42.975 33.616,46 29.5,46 C26.149,46 23.152,43.995 21.711,41 L27,41 L27,39 L19,39 L19,47 L21,47 L21,43.659 C22.976,46.315 26.085,48 29.5,48 C34.568,48 38.976,44.297 39.981,39.193 C40.088,38.652 39.735,38.126 39.193,38.019" id="Fill-2654" fill="#556080" sketch:type="MSShapeGroup"></path>
            <path d="M38,27.999 L38,31.34 C36.024,28.683 32.914,26.999 29.5,26.999 C24.432,26.999 20.023,30.702 19.019,35.805 C18.912,36.347 19.265,36.873 19.807,36.979 C20.356,37.092 20.875,36.733 20.981,36.192 C21.802,32.024 25.384,28.998 29.5,28.998 C32.851,28.998 35.847,31.004 37.289,33.999 L32,33.999 L32,35.999 L40,35.999 L40,27.999 L38,27.999" id="Fill-2655" fill="#556080" sketch:type="MSShapeGroup"></path>
        </g>
    </g>
</svg>