<?xml version="1.0" encoding="UTF-8" standalone="no"?>
<svg width="60px" height="54px" viewBox="0 0 60 54" version="1.1" xmlns="http://www.w3.org/2000/svg" xmlns:xlink="http://www.w3.org/1999/xlink" xmlns:sketch="http://www.bohemiancoding.com/sketch/ns">
    <!-- Generator: Sketch 3.2.2 (9983) - http://www.bohemiancoding.com/sketch -->
    <title>425 - Sync Picture (Flat)</title>
    <desc>Created with Sketch.</desc>
    <defs></defs>
    <g id="Page-1" stroke="none" stroke-width="1" fill="none" fill-rule="evenodd" sketch:type="MSPage">
        <g id="425---Sync-Picture-(Flat)" sketch:type="MSLayerGroup" transform="translate(1.000000, 1.000000)">
            <path d="M0,0 L55,0 L55,42 L0,42 L0,0 Z" id="Fill-533" fill="#EDF0F1" sketch:type="MSShapeGroup"></path>
            <path d="M0,0 L55,0 L55,42 L0,42 L0,0 Z" id="Stroke-534" stroke="#545E73" stroke-width="2" sketch:type="MSShapeGroup"></path>
            <path d="M4,4 L51,4 L51,38 L4,38 L4,4 Z" id="Fill-535" fill="#545E73" sketch:type="MSShapeGroup"></path>
            <path d="M4,4 L51,4 L51,38 L4,38 L4,4 Z" id="Stroke-536" stroke="#EDF0F1" stroke-width="2" sketch:type="MSShapeGroup"></path>
            <path d="M18.569,12.569 C18.569,15.093 16.523,17.138 14,17.138 C11.477,17.138 9.431,15.093 9.431,12.569 C9.431,10.046 11.477,8 14,8 C16.523,8 18.569,10.046 18.569,12.569" id="Fill-537" fill="#F4D65A" sketch:type="MSShapeGroup"></path>
            <path d="M50,28.111 L49,27 L37,16 L26.5,27.5 L36,37 L50,37 L50,28.111" id="Fill-538" fill="#11A085" sketch:type="MSShapeGroup"></path>
            <path d="M5,37 L36,37 L21.017,22.017 L5,36 L5,37" id="Fill-539" fill="#26B99A" sketch:type="MSShapeGroup"></path>
            <path d="M59,40.5 C59,47.404 53.404,53 46.5,53 C39.596,53 34,47.404 34,40.5 C34,33.597 39.596,28 46.5,28 C53.404,28 59,33.597 59,40.5" id="Fill-2116" fill="#B1D3F0" sketch:type="MSShapeGroup"></path>
            <path d="M56.193,41.019 C55.643,40.906 55.125,41.265 55.018,41.807 C54.198,45.975 50.616,49 46.5,49 C43.149,49 40.152,46.995 38.711,44 L44,44 L44,42 L36,42 L36,50 L38,50 L38,46.659 C39.976,49.315 43.085,51 46.5,51 C51.568,51 55.976,47.297 56.981,42.194 C57.088,41.652 56.735,41.126 56.193,41.019" id="Fill-2117" fill="#556080" sketch:type="MSShapeGroup"></path>
            <path d="M55,30.999 L55,34.34 C53.024,31.683 49.914,29.999 46.5,29.999 C41.432,29.999 37.023,33.702 36.019,38.805 C35.912,39.347 36.265,39.873 36.807,39.979 C37.356,40.092 37.875,39.733 37.981,39.192 C38.802,35.024 42.384,31.999 46.5,31.999 C49.851,31.999 52.847,34.004 54.289,36.999 L49,36.999 L49,38.999 L57,38.999 L57,30.999 L55,30.999" id="Fill-2118" fill="#556080" sketch:type="MSShapeGroup"></path>
        </g>
    </g>
</svg>