<?xml version="1.0" encoding="UTF-8" standalone="no"?>
<svg width="60px" height="60px" viewBox="0 0 60 60" version="1.1" xmlns="http://www.w3.org/2000/svg" xmlns:xlink="http://www.w3.org/1999/xlink" xmlns:sketch="http://www.bohemiancoding.com/sketch/ns">
    <!-- Generator: Sketch 3.2.2 (9983) - http://www.bohemiancoding.com/sketch -->
    <title>25 - Sync Stopwatch (Flat)</title>
    <desc>Created with Sketch.</desc>
    <defs></defs>
    <g id="Page-1" stroke="none" stroke-width="1" fill="none" fill-rule="evenodd" sketch:type="MSPage">
        <g id="25---Sync-Stopwatch-(Flat)" sketch:type="MSLayerGroup">
            <path d="M59,29 C59,45.016 46.016,58 30,58 C13.984,58 1,45.016 1,29 C1,12.984 13.984,0 30,0 C46.016,0 59,12.984 59,29" id="Fill-566" fill="#3C97D3" sketch:type="MSShapeGroup"></path>
            <path d="M30,60 C13.458,60 0,46.542 0,30 C0,22.007 3.107,14.487 8.749,8.824 C9.528,8.039 10.796,8.039 11.577,8.819 C12.36,9.599 12.362,10.865 11.583,11.647 C6.693,16.555 4,23.072 4,30 C4,44.337 15.663,56 30,56 C44.337,56 56,44.337 56,30 C56,16.337 45.405,5.101 32,4.076 L32,14.833 C32,15.937 31.104,16.833 30,16.833 C28.896,16.833 28,15.937 28,14.833 L28,2 C28,0.896 28.896,0 30,0 C46.542,0 60,13.458 60,30 C60,46.542 46.542,60 30,60" id="Fill-567" fill="#B1D3F0" sketch:type="MSShapeGroup"></path>
            <path d="M20,20.121 L20,20.121 L32.944,29.484 C34.218,30.411 34.363,32.257 33.249,33.371 C32.135,34.484 30.29,34.34 29.363,33.066 L20,20.121" id="Fill-568" fill="#B1D3F0" sketch:type="MSShapeGroup"></path>
            <path d="M60,47.482 C60,54.385 54.404,59.982 47.5,59.982 C40.596,59.982 35,54.385 35,47.482 C35,40.578 40.596,34.982 47.5,34.982 C54.404,34.982 60,40.578 60,47.482" id="Fill-2216" fill="#B1D3F0" sketch:type="MSShapeGroup"></path>
            <path d="M57.193,48 C56.643,47.888 56.125,48.247 56.018,48.788 C55.198,52.956 51.616,55.982 47.5,55.982 C44.149,55.982 41.152,53.976 39.711,50.982 L45,50.982 L45,48.982 L37,48.982 L37,56.982 L39,56.982 L39,53.64 C40.976,56.296 44.085,57.982 47.5,57.982 C52.568,57.982 56.976,54.278 57.981,49.175 C58.088,48.633 57.735,48.107 57.193,48" id="Fill-2217" fill="#556080" sketch:type="MSShapeGroup"></path>
            <path d="M56,37.979 L56,41.322 C54.024,38.665 50.914,36.98 47.5,36.98 C42.432,36.98 38.023,40.683 37.019,45.787 C36.912,46.329 37.265,46.854 37.807,46.961 C38.356,47.074 38.875,46.715 38.981,46.174 C39.802,42.005 43.384,38.98 47.5,38.98 C50.851,38.98 53.847,40.986 55.289,43.979 L50,43.979 L50,45.98 L58,45.98 L58,37.979 L56,37.979" id="Fill-2218" fill="#556080" sketch:type="MSShapeGroup"></path>
        </g>
    </g>
</svg>