<?xml version="1.0" encoding="UTF-8" standalone="no"?>
<svg width="54px" height="56px" viewBox="0 0 54 56" version="1.1" xmlns="http://www.w3.org/2000/svg" xmlns:xlink="http://www.w3.org/1999/xlink" xmlns:sketch="http://www.bohemiancoding.com/sketch/ns">
    <!-- Generator: Sketch 3.2.2 (9983) - http://www.bohemiancoding.com/sketch -->
    <title>196 - To Do List Warning (Flat)</title>
    <desc>Created with Sketch.</desc>
    <defs></defs>
    <g id="Page-1" stroke="none" stroke-width="1" fill="none" fill-rule="evenodd" sketch:type="MSPage">
        <g id="196---To-Do-List-Warning-(Flat)" sketch:type="MSLayerGroup">
            <path d="M43.636,52 L8.364,52 C3.745,52 0,48.255 0,43.636 L0,8.364 C0,3.745 3.745,0 8.364,0 L43.636,0 C48.255,0 52,3.745 52,8.364 L52,43.636 C52,48.255 48.255,52 43.636,52" id="Fill-1749" fill="#3ABCA7" sketch:type="MSShapeGroup"></path>
            <path d="M26,13 L44,13 M26,27 L44,27 M26,41 L44,41 M18.929,8 L12.071,16 L7.5,12.571 M18.929,22 L12.071,30 L7.5,26.572 M18.929,37 L12.071,45 L7.5,41.571" id="Stroke-1750" stroke="#FFFFFF" stroke-width="2" stroke-linecap="round" stroke-linejoin="round" sketch:type="MSShapeGroup"></path>
            <path d="M52.761,56 L29.07,56 C28.115,56 27.52,54.964 28.001,54.139 L39.846,33.833 C40.324,33.014 41.507,33.014 41.984,33.833 L53.83,54.139 C54.311,54.964 53.716,56 52.761,56" id="Fill-1922" fill="#F0C41A" sketch:type="MSShapeGroup"></path>
            <path d="M41,49 C40.448,49 40,48.552 40,48 L40,40 C40,39.448 40.448,39 41,39 C41.552,39 42,39.448 42,40 L42,48 C42,48.552 41.552,49 41,49" id="Fill-1923" fill="#FFFFFF" sketch:type="MSShapeGroup"></path>
            <path d="M41,53 C40.74,53 40.48,52.89 40.29,52.71 C40.11,52.52 40,52.26 40,52 C40,51.74 40.11,51.48 40.29,51.29 C40.67,50.92 41.33,50.92 41.71,51.29 C41.89,51.48 42,51.74 42,52 C42,52.26 41.89,52.52 41.71,52.71 C41.52,52.89 41.27,53 41,53" id="Fill-1924" fill="#FFFFFF" sketch:type="MSShapeGroup"></path>
        </g>
    </g>
</svg>