<?xml version="1.0" encoding="UTF-8" standalone="no"?>
<svg width="58px" height="47px" viewBox="0 0 58 47" version="1.1" xmlns="http://www.w3.org/2000/svg" xmlns:xlink="http://www.w3.org/1999/xlink" xmlns:sketch="http://www.bohemiancoding.com/sketch/ns">
    <!-- Generator: Sketch 3.2.2 (9983) - http://www.bohemiancoding.com/sketch -->
    <title>527 - Upload Mail (Flat)</title>
    <desc>Created with Sketch.</desc>
    <defs></defs>
    <g id="Page-1" stroke="none" stroke-width="1" fill="none" fill-rule="evenodd" sketch:type="MSPage">
        <g id="527---Upload-Mail-(Flat)" sketch:type="MSLayerGroup">
            <path d="M0,39 L56,39 L56,0 L0,0 L0,39 Z" id="Fill-1602" fill="#DCD6CD" sketch:type="MSShapeGroup"></path>
            <path d="M30.965,22.107 C29.327,23.569 26.673,23.569 25.035,22.107 L22.949,20.264 C16.419,26.092 0,39 0,39 L56,39 C56,39 39.581,26.092 33.052,20.264 L30.965,22.107" id="Fill-1603" fill="#E8E3D9" sketch:type="MSShapeGroup"></path>
            <path d="M0,0 L25.035,22.107 C26.673,23.569 29.327,23.569 30.965,22.107 L56,0 L0,0" id="Fill-1604" fill="#EFECDE" sketch:type="MSShapeGroup"></path>
            <path d="M36,25 L58,25 L58,47 L36,47 L36,25 Z" id="Fill-1870" fill="#4AA0D8" sketch:type="MSShapeGroup"></path>
            <path d="M46,31 L48,31 L48,47 L46,47 L46,31 Z" id="Fill-1871" fill="#FFFFFF" sketch:type="MSShapeGroup"></path>
            <path d="M52.293,37.707 L47,32.414 L41.707,37.707 L40.293,36.293 L47,29.586 L53.707,36.293 L52.293,37.707" id="Fill-1872" fill="#FFFFFF" sketch:type="MSShapeGroup"></path>
        </g>
    </g>
</svg>