<?xml version="1.0" encoding="UTF-8" standalone="no"?>
<svg width="40px" height="53px" viewBox="0 0 40 53" version="1.1" xmlns="http://www.w3.org/2000/svg" xmlns:xlink="http://www.w3.org/1999/xlink" xmlns:sketch="http://www.bohemiancoding.com/sketch/ns">
    <!-- Generator: Sketch 3.2.2 (9983) - http://www.bohemiancoding.com/sketch -->
    <title>507 - Upload Location (Flat)</title>
    <desc>Created with Sketch.</desc>
    <defs></defs>
    <g id="Page-1" stroke="none" stroke-width="1" fill="none" fill-rule="evenodd" sketch:type="MSPage">
        <g id="507---Upload-Location-(Flat)" sketch:type="MSLayerGroup">
            <path d="M31.03,5.324 L31.03,5.324 C23.931,-1.774 12.422,-1.774 5.324,5.324 C-1.072,11.72 -1.792,23.764 3.636,31 L18.177,52 L32.718,31 C38.146,23.764 37.426,11.72 31.03,5.324 L31.03,5.324 Z M18.354,24 C15.04,24 12.354,21.314 12.354,18 C12.354,14.687 15.04,12 18.354,12 C21.667,12 24.354,14.687 24.354,18 C24.354,21.314 21.667,24 18.354,24 L18.354,24 Z" id="Fill-1577" fill="#3192D0" sketch:type="MSShapeGroup"></path>
            <path d="M18,31 L40,31 L40,53 L18,53 L18,31 Z" id="Fill-1919" fill="#556080" sketch:type="MSShapeGroup"></path>
            <path d="M28,37 L30,37 L30,53 L28,53 L28,37 Z" id="Fill-1920" fill="#FFFFFF" sketch:type="MSShapeGroup"></path>
            <path d="M34.293,43.707 L29,38.414 L23.707,43.707 L22.293,42.293 L29,35.586 L35.707,42.293 L34.293,43.707" id="Fill-1921" fill="#FFFFFF" sketch:type="MSShapeGroup"></path>
        </g>
    </g>
</svg>