<?xml version="1.0" encoding="UTF-8" standalone="no"?>
<svg width="59px" height="57px" viewBox="0 0 59 57" version="1.1" xmlns="http://www.w3.org/2000/svg" xmlns:xlink="http://www.w3.org/1999/xlink" xmlns:sketch="http://www.bohemiancoding.com/sketch/ns">
    <!-- Generator: Sketch 3.2.2 (9983) - http://www.bohemiancoding.com/sketch -->
    <title>407 - Upload Album (Flat)</title>
    <desc>Created with Sketch.</desc>
    <defs></defs>
    <g id="Page-1" stroke="none" stroke-width="1" fill="none" fill-rule="evenodd" sketch:type="MSPage">
        <g id="407---Upload-Album-(Flat)" sketch:type="MSLayerGroup">
            <path d="M0,47 L56,47 L56,0 L0,0 L0,47 Z" id="Fill-1207" fill="#E04D60" sketch:type="MSShapeGroup"></path>
            <path d="M39.659,9.248 C39.443,9.058 39.153,8.971 38.87,9.009 L20.87,11.376 C20.372,11.441 20,11.865 20,12.367 L20,31.802 C18.831,30.783 17.246,30.153 15.5,30.153 C11.916,30.153 9,32.794 9,36.041 C9,39.288 11.916,41.93 15.5,41.93 C19.084,41.93 22,39.288 22,36.041 L22,18.244 L38,16.14 L38,26.542 C36.867,25.576 35.347,24.98 33.673,24.98 C30.185,24.98 27.347,27.552 27.347,30.714 C27.347,33.876 30.185,36.449 33.673,36.449 C37.162,36.449 40,33.876 40,30.714 L40,10 C40,9.712 39.876,9.438 39.659,9.248" id="Fill-1208" fill="#FFFFFF" sketch:type="MSShapeGroup"></path>
            <path d="M37,35 L59,35 L59,57 L37,57 L37,35 Z" id="Fill-2149" fill="#4AA0D8" sketch:type="MSShapeGroup"></path>
            <path d="M47,41 L49,41 L49,57 L47,57 L47,41 Z" id="Fill-2150" fill="#FFFFFF" sketch:type="MSShapeGroup"></path>
            <path d="M53.293,47.707 L48,42.414 L42.707,47.707 L41.293,46.293 L48,39.586 L54.707,46.293 L53.293,47.707" id="Fill-2151" fill="#FFFFFF" sketch:type="MSShapeGroup"></path>
        </g>
    </g>
</svg>