<?xml version="1.0" encoding="UTF-8" standalone="no"?>
<svg width="55px" height="55px" viewBox="0 0 55 55" version="1.1" xmlns="http://www.w3.org/2000/svg" xmlns:xlink="http://www.w3.org/1999/xlink" xmlns:sketch="http://www.bohemiancoding.com/sketch/ns">
    <!-- Generator: Sketch 3.2.2 (9983) - http://www.bohemiancoding.com/sketch -->
    <title>187 - Upload To Do List (Flat)</title>
    <desc>Created with Sketch.</desc>
    <defs></defs>
    <g id="Page-1" stroke="none" stroke-width="1" fill="none" fill-rule="evenodd" sketch:type="MSPage">
        <g id="187---Upload-To-Do-List-(Flat)" sketch:type="MSLayerGroup">
            <path d="M43.636,52 L8.364,52 C3.745,52 0,48.256 0,43.637 L0,8.364 C0,3.745 3.745,0 8.364,0 L43.636,0 C48.255,0 52,3.745 52,8.364 L52,43.637 C52,48.256 48.255,52 43.636,52" id="Fill-1767" fill="#3ABCA7" sketch:type="MSShapeGroup"></path>
            <path d="M26,13 L44,13 M26,27 L44,27 M26,41 L44,41 M18.929,8.001 L12.072,16 L7.5,12.572 M18.929,22 L12.072,30 L7.5,26.571 M18.929,37 L12.072,44.999 L7.5,41.57" id="Stroke-1768" stroke="#FFFFFF" stroke-width="2" stroke-linecap="round" stroke-linejoin="round" sketch:type="MSShapeGroup"></path>
            <path d="M33,33 L55,33 L55,55 L33,55 L33,33 Z" id="Fill-1885" fill="#4AA0D8" sketch:type="MSShapeGroup"></path>
            <path d="M43,39 L45,39 L45,55 L43,55 L43,39 Z" id="Fill-1886" fill="#FFFFFF" sketch:type="MSShapeGroup"></path>
            <path d="M49.293,45.707 L44,40.415 L38.707,45.707 L37.293,44.293 L44,37.586 L50.707,44.293 L49.293,45.707" id="Fill-1887" fill="#FFFFFF" sketch:type="MSShapeGroup"></path>
        </g>
    </g>
</svg>