<?xml version="1.0" encoding="UTF-8" standalone="no"?>
<svg width="60px" height="53px" viewBox="0 0 60 53" version="1.1" xmlns="http://www.w3.org/2000/svg" xmlns:xlink="http://www.w3.org/1999/xlink" xmlns:sketch="http://www.bohemiancoding.com/sketch/ns">
    <!-- Generator: Sketch 3.2.2 (9983) - http://www.bohemiancoding.com/sketch -->
    <title>456 - Video Warning (Flat)</title>
    <desc>Created with Sketch.</desc>
    <defs></defs>
    <g id="Page-1" stroke="none" stroke-width="1" fill="none" fill-rule="evenodd" sketch:type="MSPage">
        <g id="456---Video-Warning-(Flat)" sketch:type="MSLayerGroup" transform="translate(1.000000, 1.000000)">
            <path d="M0,0 L56,0 L56,44 L0,44 L0,0 Z" id="Fill-77" fill="#8697CB" sketch:type="MSShapeGroup"></path>
            <path d="M0,0 L56,0 L56,44 L0,44 L0,0 Z" id="Stroke-78" stroke="#535D73" stroke-width="2" sketch:type="MSShapeGroup"></path>
            <path d="M24,29 L24,15 L35,22 L24,29" id="Fill-79" fill="#FFFFFF" sketch:type="MSShapeGroup"></path>
            <path d="M0,0 L10,0 L10,11 L0,11 L0,0 Z" id="Fill-80" fill="#687492" sketch:type="MSShapeGroup"></path>
            <path d="M0,0 L10,0 L10,11 L0,11 L0,0 Z" id="Stroke-81" stroke="#535D73" stroke-width="2" sketch:type="MSShapeGroup"></path>
            <path d="M0,11 L10,11 L10,22 L0,22 L0,11 Z" id="Fill-82" fill="#687492" sketch:type="MSShapeGroup"></path>
            <path d="M0,11 L10,11 L10,22 L0,22 L0,11 Z" id="Stroke-83" stroke="#535D73" stroke-width="2" sketch:type="MSShapeGroup"></path>
            <path d="M0,22 L10,22 L10,33 L0,33 L0,22 Z" id="Fill-84" fill="#687492" sketch:type="MSShapeGroup"></path>
            <path d="M0,22 L10,22 L10,33 L0,33 L0,22 Z" id="Stroke-85" stroke="#535D73" stroke-width="2" sketch:type="MSShapeGroup"></path>
            <path d="M0,33 L10,33 L10,44 L0,44 L0,33 Z" id="Fill-86" fill="#687492" sketch:type="MSShapeGroup"></path>
            <path d="M0,33 L10,33 L10,44 L0,44 L0,33 Z" id="Stroke-87" stroke="#535D73" stroke-width="2" sketch:type="MSShapeGroup"></path>
            <path d="M46,0 L56,0 L56,11 L46,11 L46,0 Z" id="Fill-88" fill="#687492" sketch:type="MSShapeGroup"></path>
            <path d="M46,0 L56,0 L56,11 L46,11 L46,0 Z" id="Stroke-89" stroke="#535D73" stroke-width="2" sketch:type="MSShapeGroup"></path>
            <path d="M46,11 L56,11 L56,22 L46,22 L46,11 Z" id="Fill-90" fill="#687492" sketch:type="MSShapeGroup"></path>
            <path d="M46,11 L56,11 L56,22 L46,22 L46,11 Z" id="Stroke-91" stroke="#535D73" stroke-width="2" sketch:type="MSShapeGroup"></path>
            <path d="M46,22 L56,22 L56,33 L46,33 L46,22 Z" id="Fill-92" fill="#687492" sketch:type="MSShapeGroup"></path>
            <path d="M46,22 L56,22 L56,33 L46,33 L46,22 Z" id="Stroke-93" stroke="#535D73" stroke-width="2" sketch:type="MSShapeGroup"></path>
            <path d="M46,33 L56,33 L56,44 L46,44 L46,33 Z" id="Fill-94" fill="#687492" sketch:type="MSShapeGroup"></path>
            <path d="M46,33 L56,33 L56,44 L46,44 L46,33 Z" id="Stroke-95" stroke="#535D73" stroke-width="2" sketch:type="MSShapeGroup"></path>
            <path d="M57.761,52 L34.07,52 C33.115,52 32.52,50.964 33.001,50.139 L44.846,29.833 C45.324,29.014 46.507,29.014 46.984,29.833 L58.83,50.139 C59.311,50.964 58.716,52 57.761,52" id="Fill-2082" fill="#F0C41A" sketch:type="MSShapeGroup"></path>
            <path d="M46,45 C45.448,45 45,44.552 45,44 L45,36 C45,35.448 45.448,35 46,35 C46.552,35 47,35.448 47,36 L47,44 C47,44.552 46.552,45 46,45" id="Fill-2083" fill="#FFFFFF" sketch:type="MSShapeGroup"></path>
            <path d="M46,49 C45.74,49 45.48,48.89 45.29,48.71 C45.11,48.52 45,48.26 45,48 C45,47.74 45.11,47.48 45.29,47.29 C45.67,46.92 46.33,46.92 46.71,47.29 C46.89,47.48 47,47.74 47,48 C47,48.26 46.89,48.52 46.71,48.71 C46.52,48.89 46.27,49 46,49" id="Fill-2084" fill="#FFFFFF" sketch:type="MSShapeGroup"></path>
        </g>
    </g>
</svg>