<?xml version="1.0" encoding="UTF-8" standalone="no"?>
<svg width="54px" height="55px" viewBox="0 0 54 55" version="1.1" xmlns="http://www.w3.org/2000/svg" xmlns:xlink="http://www.w3.org/1999/xlink" xmlns:sketch="http://www.bohemiancoding.com/sketch/ns">
    <!-- Generator: Sketch 3.2.2 (9983) - http://www.bohemiancoding.com/sketch -->
    <title>181 - Wait for To Do List (Flat)</title>
    <desc>Created with Sketch.</desc>
    <defs></defs>
    <g id="Page-1" stroke="none" stroke-width="1" fill="none" fill-rule="evenodd" sketch:type="MSPage">
        <g id="181---Wait-for-To-Do-List-(Flat)" sketch:type="MSLayerGroup">
            <path d="M43.636,52 L8.364,52 C3.745,52 0,48.256 0,43.637 L0,8.364 C0,3.745 3.745,0 8.364,0 L43.636,0 C48.255,0 52,3.745 52,8.364 L52,43.637 C52,48.256 48.255,52 43.636,52" id="Fill-1779" fill="#3ABCA7" sketch:type="MSShapeGroup"></path>
            <path d="M26,13 L44,13 M26,27 L44,27 M26,41 L44,41 M18.928,8.001 L12.072,16 L7.5,12.572 M18.928,22 L12.072,30 L7.5,26.571 M18.928,37 L12.072,44.999 L7.5,41.57" id="Stroke-1780" stroke="#FFFFFF" stroke-width="2" stroke-linecap="round" stroke-linejoin="round" sketch:type="MSShapeGroup"></path>
            <path d="M54,44 C54,50.075 49.075,55 43,55 C36.925,55 32,50.075 32,44 C32,37.925 36.925,33 43,33 C49.075,33 54,37.925 54,44" id="Fill-1896" fill="#556080" sketch:type="MSShapeGroup"></path>
            <path d="M49,43 L44,43 L44,38 C44,37.448 43.553,37 43,37 C42.447,37 42,37.448 42,38 L42,44 C42,44.552 42.447,45 43,45 L49,45 C49.553,45 50,44.552 50,44 C50,43.448 49.553,43 49,43" id="Fill-1897" fill="#FFFFFF" sketch:type="MSShapeGroup"></path>
        </g>
    </g>
</svg>