<?xml version="1.0" encoding="UTF-8" standalone="no"?>
<svg width="47px" height="55px" viewBox="0 0 47 55" version="1.1" xmlns="http://www.w3.org/2000/svg" xmlns:xlink="http://www.w3.org/1999/xlink" xmlns:sketch="http://www.bohemiancoding.com/sketch/ns">
    <!-- Generator: Sketch 3.2.2 (9983) - http://www.bohemiancoding.com/sketch -->
    <title>301 - Wait for Bookmark (Flat)</title>
    <desc>Created with Sketch.</desc>
    <defs></defs>
    <g id="Page-1" stroke="none" stroke-width="1" fill="none" fill-rule="evenodd" sketch:type="MSPage">
        <g id="301---Wait-for-Bookmark-(Flat)" sketch:type="MSLayerGroup">
            <path d="M16,0 L0,0 L0,53.444 C0,53.938 0.598,54.186 0.948,53.836 L16,38.784 L31.052,53.836 C31.402,54.186 32,53.938 32,53.444 L32,0 L16,0" id="Fill-1114" fill="#D85A4A" sketch:type="MSShapeGroup"></path>
            <path d="M0,0 L32,0 L32,11 L0,11 L0,0 Z" id="Fill-1819" fill="#C13B2A" sketch:type="MSShapeGroup"></path>
            <path d="M47,44 C47,50.075 42.075,55 36,55 C29.925,55 25,50.075 25,44 C25,37.925 29.925,33 36,33 C42.075,33 47,37.925 47,44" id="Fill-2576" fill="#76C9B0" sketch:type="MSShapeGroup"></path>
            <path d="M42,43 L37,43 L37,38 C37,37.448 36.553,37 36,37 C35.447,37 35,37.448 35,38 L35,44 C35,44.552 35.447,45 36,45 L42,45 C42.553,45 43,44.552 43,44 C43,43.448 42.553,43 42,43" id="Fill-2577" fill="#FFFFFF" sketch:type="MSShapeGroup"></path>
        </g>
    </g>
</svg>