<?xml version="1.0" encoding="UTF-8" standalone="no"?>
<svg width="54px" height="55px" viewBox="0 0 54 55" version="1.1" xmlns="http://www.w3.org/2000/svg" xmlns:xlink="http://www.w3.org/1999/xlink" xmlns:sketch="http://www.bohemiancoding.com/sketch/ns">
    <!-- Generator: Sketch 3.2.2 (9983) - http://www.bohemiancoding.com/sketch -->
    <title>461 - Wait for Map (Flat)</title>
    <desc>Created with Sketch.</desc>
    <defs></defs>
    <g id="Page-1" stroke="none" stroke-width="1" fill="none" fill-rule="evenodd" sketch:type="MSPage">
        <g id="461---Wait-for-Map-(Flat)" sketch:type="MSLayerGroup">
            <path d="M18,21.243 L2.256,5.499 L0,6 L0,49 L2.099,48.534 L18,32.632 L18,21.243" id="Fill-1449" fill="#4FBA6E" sketch:type="MSShapeGroup"></path>
            <path d="M9.372,46.917 L18,45 L18,38.29 L9.372,46.917" id="Fill-1450" fill="#4AA0D8" sketch:type="MSShapeGroup"></path>
            <path d="M18,2 L6.884,4.47 L18,15.586 L18,2" id="Fill-1451" fill="#4FBA6E" sketch:type="MSShapeGroup"></path>
            <path d="M49.449,1.184 L35,6 L35,15.633 L49.449,1.184" id="Fill-1452" fill="#4FBA6E" sketch:type="MSShapeGroup"></path>
            <path d="M35,21.29 L35,48 L53,41 L53,3.29 L35,21.29" id="Fill-1453" fill="#4AA0D8" sketch:type="MSShapeGroup"></path>
            <path d="M26.523,24.109 L35,15.633 L35,6 L18,2 L18,15.586 L26.523,24.109" id="Fill-1454" fill="#4AA461" sketch:type="MSShapeGroup"></path>
            <path d="M18,21.243 L18,32.632 L23.695,26.938 L18,21.243" id="Fill-1455" fill="#4AA461" sketch:type="MSShapeGroup"></path>
            <path d="M18,38.29 L18,45 L35,48 L35,21.29 L18,38.29" id="Fill-1456" fill="#51A2C9" sketch:type="MSShapeGroup"></path>
            <path d="M18,15.586 L6.884,4.47 L2.256,5.499 L18,21.243 L18,15.586" id="Fill-1457" fill="#F4D65A" sketch:type="MSShapeGroup"></path>
            <path d="M18,32.632 L2.099,48.534 L9.372,46.917 L18,38.29 L18,32.632" id="Fill-1458" fill="#F4D65A" sketch:type="MSShapeGroup"></path>
            <path d="M35,21.29 L53,3.29 L53,0 L49.449,1.184 L35,15.633 L35,21.29" id="Fill-1459" fill="#F4D65A" sketch:type="MSShapeGroup"></path>
            <path d="M26.523,24.109 L18,15.586 L18,21.243 L23.695,26.938 L18,32.632 L18,38.29 L35,21.29 L35,15.633 L26.523,24.109" id="Fill-1460" fill="#DCBD56" sketch:type="MSShapeGroup"></path>
            <path d="M54,44 C54,50.075 49.075,55 43,55 C36.925,55 32,50.075 32,44 C32,37.925 36.925,33 43,33 C49.075,33 54,37.925 54,44" id="Fill-1972" fill="#76C9B0" sketch:type="MSShapeGroup"></path>
            <path d="M49,43 L44,43 L44,38 C44,37.448 43.553,37 43,37 C42.447,37 42,37.448 42,38 L42,44 C42,44.552 42.447,45 43,45 L49,45 C49.553,45 50,44.552 50,44 C50,43.448 49.553,43 49,43" id="Fill-1973" fill="#FFFFFF" sketch:type="MSShapeGroup"></path>
        </g>
    </g>
</svg>