<?xml version="1.0" encoding="UTF-8" standalone="no"?>
<svg width="56px" height="58px" viewBox="0 0 56 58" version="1.1" xmlns="http://www.w3.org/2000/svg" xmlns:xlink="http://www.w3.org/1999/xlink" xmlns:sketch="http://www.bohemiancoding.com/sketch/ns">
    <!-- Generator: Sketch 3.2.2 (9983) - http://www.bohemiancoding.com/sketch -->
    <title>121 - Wait for Archive (Flat)</title>
    <desc>Created with Sketch.</desc>
    <defs></defs>
    <g id="Page-1" stroke="none" stroke-width="1" fill="none" fill-rule="evenodd" sketch:type="MSPage">
        <g id="121---Wait-for-Archive-(Flat)" sketch:type="MSLayerGroup">
            <path d="M50.168,58 L1.832,58 C0.82,58 0,57.18 0,56.168 L0,1.833 C0,0.821 0.82,0 1.832,0 L50.168,0 C51.18,0 52,0.821 52,1.833 L52,56.168 C52,57.18 51.18,58 50.168,58" id="Fill-1697" fill="#545E73" sketch:type="MSShapeGroup"></path>
            <path d="M31.495,17 L20.505,17 C18.572,17 17,15.428 17,13.495 L17,12 C17,11.448 17.447,11 18,11 C18.553,11 19,11.448 19,12 L19,13.495 C19,14.325 19.675,15 20.505,15 L31.495,15 C32.325,15 33,14.325 33,13.495 L33,12 C33,11.448 33.447,11 34,11 C34.553,11 35,11.448 35,12 L35,13.495 C35,15.428 33.428,17 31.495,17" id="Fill-1698" fill="#EDF0F1" sketch:type="MSShapeGroup"></path>
            <path d="M31.495,46 L20.505,46 C18.572,46 17,44.428 17,42.495 L17,41 C17,40.447 17.447,40 18,40 C18.553,40 19,40.447 19,41 L19,42.495 C19,43.325 19.675,44 20.505,44 L31.495,44 C32.325,44 33,43.325 33,42.495 L33,41 C33,40.447 33.447,40 34,40 C34.553,40 35,40.447 35,41 L35,42.495 C35,44.428 33.428,46 31.495,46" id="Fill-1699" fill="#EDF0F1" sketch:type="MSShapeGroup"></path>
            <path d="M0,28 L52,28 L52,30 L0,30 L0,28 Z" id="Fill-1700" fill="#394050" sketch:type="MSShapeGroup"></path>
            <path d="M56,47 C56,53.075 51.075,58 45,58 C38.925,58 34,53.075 34,47 C34,40.925 38.925,36 45,36 C51.075,36 56,40.925 56,47" id="Fill-2312" fill="#D0E8F9" sketch:type="MSShapeGroup"></path>
            <path d="M51,46 L46,46 L46,41 C46,40.448 45.553,40 45,40 C44.447,40 44,40.448 44,41 L44,47 C44,47.553 44.447,48 45,48 L51,48 C51.553,48 52,47.553 52,47 C52,46.448 51.553,46 51,46" id="Fill-2313" fill="#36495E" sketch:type="MSShapeGroup"></path>
        </g>
    </g>
</svg>