<?xml version="1.0" encoding="UTF-8" standalone="no"?>
<svg width="46px" height="59px" viewBox="0 0 46 59" version="1.1" xmlns="http://www.w3.org/2000/svg" xmlns:xlink="http://www.w3.org/1999/xlink" xmlns:sketch="http://www.bohemiancoding.com/sketch/ns">
    <!-- Generator: Sketch 3.2.2 (9983) - http://www.bohemiancoding.com/sketch -->
    <title>61 - Wait for Smartphone (Flat)</title>
    <desc>Created with Sketch.</desc>
    <defs></defs>
    <g id="Page-1" stroke="none" stroke-width="1" fill="none" fill-rule="evenodd" sketch:type="MSPage">
        <g id="61---Wait-for-Smartphone-(Flat)" sketch:type="MSLayerGroup">
            <path d="M28.594,58 L3.405,58 C1.525,58 0,56.475 0,54.595 L0,3.405 C0,1.525 1.525,0 3.405,0 L28.594,0 C30.475,0 32,1.525 32,3.405 L32,54.595 C32,56.475 30.475,58 28.594,58" id="Fill-676" fill="#545E73" sketch:type="MSShapeGroup"></path>
            <path d="M0,6 L32,6 L32,46 L0,46 L0,6 Z" id="Fill-677" fill="#8697CB" sketch:type="MSShapeGroup"></path>
            <path d="M19,52 C19,53.657 17.657,55 16,55 C14.343,55 13,53.657 13,52 C13,50.344 14.343,49 16,49 C17.657,49 19,50.344 19,52" id="Fill-678" fill="#323A45" sketch:type="MSShapeGroup"></path>
            <path d="M16,4 L12,4 C11.447,4 11,3.553 11,3 C11,2.448 11.447,2 12,2 L16,2 C16.553,2 17,2.448 17,3 C17,3.553 16.553,4 16,4" id="Fill-679" fill="#323A45" sketch:type="MSShapeGroup"></path>
            <path d="M20,4 L19,4 C18.447,4 18,3.553 18,3 C18,2.448 18.447,2 19,2 L20,2 C20.553,2 21,2.448 21,3 C21,3.553 20.553,4 20,4" id="Fill-680" fill="#323A45" sketch:type="MSShapeGroup"></path>
            <path d="M45.39,47.982 C45.39,54.057 40.465,58.982 34.39,58.982 C28.314,58.982 23.39,54.057 23.39,47.982 C23.39,41.906 28.314,36.982 34.39,36.982 C40.465,36.982 45.39,41.906 45.39,47.982" id="Fill-2156" fill="#B1D3F0" sketch:type="MSShapeGroup"></path>
            <path d="M40.39,46.982 L35.39,46.982 L35.39,41.982 C35.39,41.429 34.942,40.982 34.39,40.982 C33.837,40.982 33.39,41.429 33.39,41.982 L33.39,47.982 C33.39,48.534 33.837,48.982 34.39,48.982 L40.39,48.982 C40.942,48.982 41.39,48.534 41.39,47.982 C41.39,47.429 40.942,46.982 40.39,46.982" id="Fill-2157" fill="#FFFFFF" sketch:type="MSShapeGroup"></path>
        </g>
    </g>
</svg>