<?xml version="1.0" encoding="UTF-8" standalone="no"?>
<svg width="53px" height="55px" viewBox="0 0 53 55" version="1.1" xmlns="http://www.w3.org/2000/svg" xmlns:xlink="http://www.w3.org/1999/xlink" xmlns:sketch="http://www.bohemiancoding.com/sketch/ns">
    <!-- Generator: Sketch 3.2.2 (9983) - http://www.bohemiancoding.com/sketch -->
    <title>101 - Wait for Database (Flat)</title>
    <desc>Created with Sketch.</desc>
    <defs></defs>
    <g id="Page-1" stroke="none" stroke-width="1" fill="none" fill-rule="evenodd" sketch:type="MSPage">
        <g id="101---Wait-for-Database-(Flat)" sketch:type="MSLayerGroup">
            <path d="M47.955,8 L47.955,8 C47.224,3.538 36.781,0 24,0 C11.219,0 0.776,3.538 0.045,8 L0,8 L0,45 L0.045,45 C0.776,49.462 11.219,53 24,53 C36.781,53 47.224,49.462 47.955,45 L48,45 L48,8 L47.955,8" id="Fill-1610" fill="#545E73" sketch:type="MSShapeGroup"></path>
            <path d="M24,41 C10.745,41 0,37.195 0,32.5 L0,45 L0.045,45 C0.776,49.462 11.219,53 24,53 C36.781,53 47.224,49.462 47.955,45 L48,45 L48,32.5 C48,37.195 37.255,41 24,41" id="Fill-1611" fill="#38454F" sketch:type="MSShapeGroup"></path>
            <path d="M0,32 L0,32.5 C0,32.332 0.018,32.166 0.045,32 L0,32" id="Fill-1612" fill="#38454F" sketch:type="MSShapeGroup"></path>
            <path d="M47.955,32 C47.982,32.166 48,32.332 48,32.5 L48,32 L47.955,32" id="Fill-1613" fill="#38454F" sketch:type="MSShapeGroup"></path>
            <path d="M24,29 C10.745,29 0,25.195 0,20.5 L0,33 L0.045,33 C0.776,37.462 11.219,41 24,41 C36.781,41 47.224,37.462 47.955,33 L48,33 L48,20.5 C48,25.195 37.255,29 24,29" id="Fill-1614" fill="#556080" sketch:type="MSShapeGroup"></path>
            <path d="M0,20 L0,20.5 C0,20.332 0.018,20.166 0.045,20 L0,20" id="Fill-1615" fill="#556080" sketch:type="MSShapeGroup"></path>
            <path d="M47.955,20 C47.982,20.166 48,20.332 48,20.5 L48,20 L47.955,20" id="Fill-1616" fill="#556080" sketch:type="MSShapeGroup"></path>
            <path d="M48,8.5 C48,13.195 37.255,17 24,17 C10.745,17 0,13.195 0,8.5 C0,3.806 10.745,0 24,0 C37.255,0 48,3.806 48,8.5" id="Fill-1617" fill="#91BAE1" sketch:type="MSShapeGroup"></path>
            <path d="M24,17 C10.745,17 0,13.195 0,8.5 L0,21 L0.045,21 C0.776,25.462 11.219,29 24,29 C36.781,29 47.224,25.462 47.955,21 L48,21 L48,8.5 C48,13.195 37.255,17 24,17" id="Fill-1618" fill="#8697CB" sketch:type="MSShapeGroup"></path>
            <path d="M0,8 L0,8.5 C0,8.332 0.018,8.166 0.045,8 L0,8" id="Fill-1619" fill="#8697CB" sketch:type="MSShapeGroup"></path>
            <path d="M47.955,8 C47.982,8.166 48,8.332 48,8.5 L48,8 L47.955,8" id="Fill-1620" fill="#8697CB" sketch:type="MSShapeGroup"></path>
            <path d="M53,44 C53,50.075 48.075,55 42,55 C35.925,55 31,50.075 31,44 C31,37.925 35.925,33 42,33 C48.075,33 53,37.925 53,44" id="Fill-2000" fill="#B1D3F0" sketch:type="MSShapeGroup"></path>
            <path d="M48,43 L43,43 L43,38 C43,37.448 42.553,37 42,37 C41.447,37 41,37.448 41,38 L41,44 C41,44.553 41.447,45 42,45 L48,45 C48.553,45 49,44.553 49,44 C49,43.448 48.553,43 48,43" id="Fill-2001" fill="#FFFFFF" sketch:type="MSShapeGroup"></path>
        </g>
    </g>
</svg>