<?xml version="1.0" encoding="UTF-8" standalone="no"?>
<svg width="40px" height="53px" viewBox="0 0 40 53" version="1.1" xmlns="http://www.w3.org/2000/svg" xmlns:xlink="http://www.w3.org/1999/xlink" xmlns:sketch="http://www.bohemiancoding.com/sketch/ns">
    <!-- Generator: Sketch 3.2.2 (9983) - http://www.bohemiancoding.com/sketch -->
    <title>501 - Wait for Location (Flat)</title>
    <desc>Created with Sketch.</desc>
    <defs></defs>
    <g id="Page-1" stroke="none" stroke-width="1" fill="none" fill-rule="evenodd" sketch:type="MSPage">
        <g id="501---Wait-for-Location-(Flat)" sketch:type="MSLayerGroup">
            <path d="M31.286,5.324 L31.286,5.324 C24.188,-1.774 12.679,-1.774 5.581,5.324 C-0.816,11.72 -1.535,23.764 3.892,31 L18.434,52 L32.975,31 C38.402,23.764 37.683,11.72 31.286,5.324 L31.286,5.324 Z M18.61,24 C15.297,24 12.61,21.314 12.61,18 C12.61,14.687 15.297,12 18.61,12 C21.924,12 24.61,14.687 24.61,18 C24.61,21.314 21.924,24 18.61,24 L18.61,24 Z" id="Fill-1571" fill="#3192D0" sketch:type="MSShapeGroup"></path>
            <path d="M40,42 C40,48.075 35.075,53 29,53 C22.925,53 18,48.075 18,42 C18,35.925 22.925,31 29,31 C35.075,31 40,35.925 40,42" id="Fill-1936" fill="#76C9B0" sketch:type="MSShapeGroup"></path>
            <path d="M35,41 L30,41 L30,36 C30,35.448 29.553,35 29,35 C28.447,35 28,35.448 28,36 L28,42 C28,42.552 28.447,43 29,43 L35,43 C35.553,43 36,42.552 36,42 C36,41.448 35.553,41 35,41" id="Fill-1937" fill="#FFFFFF" sketch:type="MSShapeGroup"></path>
        </g>
    </g>
</svg>