<?xml version="1.0" encoding="UTF-8" standalone="no"?>
<svg width="56px" height="53px" viewBox="0 0 56 53" version="1.1" xmlns="http://www.w3.org/2000/svg" xmlns:xlink="http://www.w3.org/1999/xlink" xmlns:sketch="http://www.bohemiancoding.com/sketch/ns">
    <!-- Generator: Sketch 3.2.2 (9983) - http://www.bohemiancoding.com/sketch -->
    <title>82 - 110V Outlet (Flat)</title>
    <desc>Created with Sketch.</desc>
    <defs></defs>
    <g id="Page-1" stroke="none" stroke-width="1" fill="none" fill-rule="evenodd" sketch:type="MSPage">
        <g id="82---110V-Outlet-(Flat)" sketch:type="MSLayerGroup">
            <path d="M35,16.5 C35,15.848 35.419,15.298 36,15.092 L36,0 L0,0 L0,34 L31,34 L31,27.883 C31,26.843 31.843,26 32.883,26 L35,26 L35,16.5" id="Fill-803" fill="#E8EDEE" sketch:type="MSShapeGroup"></path>
            <path d="M27.22,28 L9.053,28 C7.602,28 6.306,27.092 5.811,25.729 C3.76,20.09 3.76,13.91 5.811,8.271 C6.306,6.908 7.602,6 9.053,6 L27.22,6 C28.671,6 29.966,6.908 30.462,8.271 C32.513,13.91 32.513,20.09 30.462,25.729 C29.966,27.092 28.671,28 27.22,28" id="Fill-1346" fill="#CBD4D8" sketch:type="MSShapeGroup"></path>
            <path d="M12.63,19 L11.37,19 C10.616,19 10,18.384 10,17.63 L10,11.37 C10,10.616 10.616,10 11.37,10 L12.63,10 C13.384,10 14,10.616 14,11.37 L14,17.63 C14,18.384 13.384,19 12.63,19" id="Fill-1347" fill="#38454F" sketch:type="MSShapeGroup"></path>
            <path d="M24.63,19 L23.37,19 C22.616,19 22,18.384 22,17.63 L22,11.37 C22,10.616 22.616,10 23.37,10 L24.63,10 C25.384,10 26,10.616 26,11.37 L26,17.63 C26,18.384 25.384,19 24.63,19" id="Fill-1348" fill="#38454F" sketch:type="MSShapeGroup"></path>
            <path d="M19.335,25 L16.665,25 C16.297,25 16,24.703 16,24.335 L16,21.665 C16,21.298 16.297,21 16.665,21 L19.335,21 C19.703,21 20,21.298 20,21.665 L20,24.335 C20,24.703 19.703,25 19.335,25" id="Fill-1349" fill="#38454F" sketch:type="MSShapeGroup"></path>
            <path d="M17,47 L17,47 C17,43.7 19.7,41 23,41 L24,41 C27.3,41 30,43.7 30,47 L30,48 C30,50.211 31.789,52 34,52 L39,52 C41.211,52 43,50.211 43,48" id="Stroke-1808" stroke="#B0B6BB" stroke-width="2" stroke-linecap="round" sketch:type="MSShapeGroup"></path>
            <path d="M54.151,26 L52,26 L52,28 L49,28 L49,26 L45,26 L45,28 L42,28 L42,26 L38,26 L38,28 L35,28 L35,26 L32.883,26 C31.843,26 31,26.843 31,27.883 L31,38.764 C31,41.656 33.344,44 36.236,44 L50.764,44 C53.656,44 56,41.656 56,38.764 L56,27.849 C56,26.828 55.172,26 54.151,26" id="Fill-1809" fill="#CBD4D8" sketch:type="MSShapeGroup"></path>
            <path d="M38,28 L35,28 L35,16.5 C35,15.672 35.672,15 36.5,15 C37.328,15 38,15.672 38,16.5 L38,28" id="Fill-1816" fill="#D3AA6E" sketch:type="MSShapeGroup"></path>
            <path d="M52,28 L49,28 L49,16.5 C49,15.672 49.672,15 50.5,15 C51.328,15 52,15.672 52,16.5 L52,28" id="Fill-1817" fill="#D3AA6E" sketch:type="MSShapeGroup"></path>
            <path d="M42,21 L45,21 L45,28 L42,28 L42,21 Z" id="Fill-1818" fill="#839494" sketch:type="MSShapeGroup"></path>
            <path d="M41,44 L46,44 L46,48 L41,48 L41,44 Z" id="Fill-1819" fill="#839494" sketch:type="MSShapeGroup"></path>
            <path d="M54.151,26 L52,26 L52,28 L49,28 L49,26 L45,26 L45,28 L42,28 L42,26 L38,26 L38,28 L35,28 L35,26 L32.883,26 C31.843,26 31,26.843 31,27.883 L31,28.151 C31,29.172 31.828,30 32.849,30 L54.117,30 C55.157,30 56,29.157 56,28.117 L56,27.849 C56,26.828 55.172,26 54.151,26" id="Fill-1820" fill="#B0B6BB" sketch:type="MSShapeGroup"></path>
        </g>
    </g>
</svg>