<?xml version="1.0" encoding="UTF-8" standalone="no"?>
<svg width="53px" height="53px" viewBox="0 0 53 53" version="1.1" xmlns="http://www.w3.org/2000/svg" xmlns:xlink="http://www.w3.org/1999/xlink" xmlns:sketch="http://www.bohemiancoding.com/sketch/ns">
    <!-- Generator: Sketch 3.2.2 (9983) - http://www.bohemiancoding.com/sketch -->
    <title>81 - 220v Outlet (Flat)</title>
    <desc>Created with Sketch.</desc>
    <defs></defs>
    <g id="Page-1" stroke="none" stroke-width="1" fill="none" fill-rule="evenodd" sketch:type="MSPage">
        <g id="81---220v-Outlet-(Flat)" sketch:type="MSLayerGroup">
            <path d="M33.883,26 L34,26 L34,0 L0,0 L0,34 L32,34 L32,27.883 C32,26.843 32.843,26 33.883,26" id="Fill-256" fill="#E8EDEE" sketch:type="MSShapeGroup"></path>
            <path d="M30,17 C30,24.18 24.18,30 17,30 C9.82,30 4,24.18 4,17 C4,9.82 9.82,4 17,4 C24.18,4 30,9.82 30,17" id="Fill-1350" fill="#CBD4D8" sketch:type="MSShapeGroup"></path>
            <path d="M15,17 C15,18.657 13.657,20 12,20 C10.343,20 9,18.657 9,17 C9,15.343 10.343,14 12,14 C13.657,14 15,15.343 15,17" id="Fill-1351" fill="#38454F" sketch:type="MSShapeGroup"></path>
            <path d="M25,17 C25,18.657 23.657,20 22,20 C20.343,20 19,18.657 19,17 C19,15.343 20.343,14 22,14 C23.657,14 25,15.343 25,17" id="Fill-1352" fill="#38454F" sketch:type="MSShapeGroup"></path>
            <path d="M17,4 C16.662,4 16.331,4.025 16,4.051 L16,7 C16,7.553 16.447,8 17,8 C17.553,8 18,7.553 18,7 L18,4.051 C17.669,4.025 17.338,4 17,4" id="Fill-1806" fill="#D3AA6E" sketch:type="MSShapeGroup"></path>
            <path d="M17,26 C16.447,26 16,26.447 16,27 L16,29.95 C16.331,29.975 16.662,30 17,30 C17.338,30 17.669,29.975 18,29.95 L18,27 C18,26.447 17.553,26 17,26" id="Fill-1807" fill="#D3AA6E" sketch:type="MSShapeGroup"></path>
            <path d="M16,47 L16,47 C16,43.7 18.7,41 22,41 L23,41 C26.3,41 29,43.7 29,47 L29,48 C29,50.211 30.789,52 33,52 L38,52 C40.211,52 42,50.211 42,48" id="Stroke-1810" stroke="#38454F" stroke-width="2" stroke-linecap="round" sketch:type="MSShapeGroup"></path>
            <path d="M40,44 L45,44 L45,48 L40,48 L40,44 Z" id="Fill-1811" fill="#546A79" sketch:type="MSShapeGroup"></path>
            <path d="M48,26 L48,28 L45,28 L45,26 L40,26 L40,28 L37,28 L37,26 L33.883,26 C32.843,26 32,26.843 32,27.883 L32,38.764 C32,41.656 34.344,44 37.236,44 L47.764,44 C50.656,44 53,41.656 53,38.764 L53,27.849 C53,26.828 52.172,26 51.151,26 L48,26" id="Fill-1812" fill="#38454F" sketch:type="MSShapeGroup"></path>
            <path d="M40,28 L37,28 L37,16.5 C37,15.672 37.672,15 38.5,15 C39.328,15 40,15.672 40,16.5 L40,28" id="Fill-1813" fill="#D3AA6E" sketch:type="MSShapeGroup"></path>
            <path d="M48,28 L45,28 L45,16.5 C45,15.672 45.672,15 46.5,15 C47.328,15 48,15.672 48,16.5 L48,28" id="Fill-1814" fill="#D3AA6E" sketch:type="MSShapeGroup"></path>
            <path d="M51.151,26 L48,26 L48,28 L45,28 L45,26 L40,26 L40,28 L37,28 L37,26 L33.883,26 C32.843,26 32,26.843 32,27.883 L32,28.151 C32,29.172 32.828,30 33.849,30 L51.117,30 C52.157,30 53,29.157 53,28.117 L53,27.849 C53,26.828 52.172,26 51.151,26" id="Fill-1815" fill="#546A79" sketch:type="MSShapeGroup"></path>
        </g>
    </g>
</svg>