<?xml version="1.0" encoding="UTF-8" standalone="no"?>
<svg width="56px" height="57px" viewBox="0 0 56 57" version="1.1" xmlns="http://www.w3.org/2000/svg" xmlns:xlink="http://www.w3.org/1999/xlink" xmlns:sketch="http://www.bohemiancoding.com/sketch/ns">
    <!-- Generator: Sketch 3.2.2 (9983) - http://www.bohemiancoding.com/sketch -->
    <title>39 - 2DS (Flat)</title>
    <desc>Created with Sketch.</desc>
    <defs></defs>
    <g id="Page-1" stroke="none" stroke-width="1" fill="none" fill-rule="evenodd" sketch:type="MSPage">
        <g id="39---2DS-(Flat)" sketch:type="MSLayerGroup">
            <path d="M1.846,0 L54.154,0 C55.173,0 56,0.827 56,1.846 L56,28.997 L0,28.997 L0,1.846 C0,0.827 0.827,0 1.846,0" id="Fill-466" fill="#C6679B" sketch:type="MSShapeGroup"></path>
            <path d="M0,29 L56,29 L56,55.154 C56,56.174 55.173,57 54.154,57 L1.846,57 C0.827,57 0,56.174 0,55.154 L0,29" id="Fill-467" fill="#B5578F" sketch:type="MSShapeGroup"></path>
            <path d="M41.424,24 L14.576,24 C13.706,24 13,23.294 13,22.424 L13,5.573 C13,4.702 13.706,3.997 14.576,3.997 L41.424,3.997 C42.294,3.997 43,4.702 43,5.573 L43,22.424 C43,23.294 42.294,24 41.424,24" id="Fill-468" fill="#283238" sketch:type="MSShapeGroup"></path>
            <path d="M41.424,53 L14.576,53 C13.706,53 13,52.294 13,51.424 L13,33.576 C13,32.706 13.706,32 14.576,32 L41.424,32 C42.294,32 43,32.706 43,33.576 L43,51.424 C43,52.294 42.294,53 41.424,53" id="Fill-469" fill="#283238" sketch:type="MSShapeGroup"></path>
            <path d="M6,45 L8,45 L8,53 L6,53 L6,45 Z" id="Fill-470" fill="#A81172" sketch:type="MSShapeGroup"></path>
            <path d="M3,48 L11,48 L11,50 L3,50 L3,48 Z" id="Fill-471" fill="#A81172" sketch:type="MSShapeGroup"></path>
            <path d="M49.5,39 L49.5,39 C48.672,39 48,38.328 48,37.5 C48,36.672 48.672,36 49.5,36 C50.328,36 51,36.672 51,37.5 C51,38.328 50.328,39 49.5,39" id="Fill-472" fill="#A81172" sketch:type="MSShapeGroup"></path>
            <path d="M49.5,44 L49.5,44 C48.672,44 48,43.328 48,42.5 C48,41.672 48.672,41 49.5,41 C50.328,41 51,41.672 51,42.5 C51,43.328 50.328,44 49.5,44" id="Fill-473" fill="#A81172" sketch:type="MSShapeGroup"></path>
            <path d="M51,40 L51,40 C51,39.172 51.672,38.5 52.5,38.5 C53.328,38.5 54,39.172 54,40 C54,40.828 53.328,41.5 52.5,41.5 C51.672,41.5 51,40.828 51,40" id="Fill-474" fill="#A81172" sketch:type="MSShapeGroup"></path>
            <path d="M45,40 L45,40 C45,39.172 45.672,38.5 46.5,38.5 C47.328,38.5 48,39.172 48,40 C48,40.828 47.328,41.5 46.5,41.5 C45.672,41.5 45,40.828 45,40" id="Fill-475" fill="#A81172" sketch:type="MSShapeGroup"></path>
            <path d="M45,52.5 L45,52.5 C45,51.672 45.672,51 46.5,51 C47.328,51 48,51.672 48,52.5 C48,53.328 47.328,54 46.5,54 C45.672,54 45,53.328 45,52.5" id="Fill-476" fill="#A81172" sketch:type="MSShapeGroup"></path>
            <path d="M4,15 C3.74,15 3.48,14.89 3.29,14.71 C3.11,14.52 3,14.26 3,14 C3,13.74 3.11,13.48 3.29,13.29 C3.66,12.92 4.34,12.92 4.71,13.29 C4.89,13.48 5,13.74 5,14 C5,14.26 4.89,14.52 4.71,14.71 C4.52,14.89 4.26,15 4,15" id="Fill-477" fill="#A81172" sketch:type="MSShapeGroup"></path>
            <path d="M7,12 C6.74,12 6.48,11.89 6.29,11.71 C6.11,11.52 6,11.26 6,11 C6,10.73 6.11,10.48 6.29,10.29 C6.67,9.92 7.34,9.92 7.71,10.29 C7.89,10.48 8,10.73 8,11 C8,11.26 7.89,11.52 7.71,11.71 C7.52,11.89 7.26,12 7,12" id="Fill-478" fill="#A81172" sketch:type="MSShapeGroup"></path>
            <path d="M7,18 C6.74,18 6.48,17.899 6.29,17.71 C6.11,17.52 6,17.26 6,17 C6,16.74 6.11,16.48 6.29,16.29 C6.67,15.92 7.34,15.92 7.71,16.29 C7.89,16.48 8,16.74 8,17 C8,17.26 7.89,17.52 7.71,17.71 C7.52,17.89 7.26,18 7,18" id="Fill-479" fill="#A81172" sketch:type="MSShapeGroup"></path>
            <path d="M10,15 C9.74,15 9.48,14.89 9.29,14.71 C9.11,14.52 9,14.26 9,14 C9,13.74 9.11,13.48 9.29,13.29 C9.66,12.92 10.34,12.92 10.71,13.29 C10.89,13.48 11,13.74 11,14 C11,14.26 10.89,14.52 10.71,14.71 C10.52,14.89 10.26,15 10,15" id="Fill-480" fill="#A81172" sketch:type="MSShapeGroup"></path>
            <path d="M46,15 C45.74,15 45.48,14.89 45.29,14.71 C45.11,14.52 45,14.26 45,14 C45,13.74 45.11,13.48 45.29,13.29 C45.66,12.92 46.34,12.92 46.71,13.29 C46.89,13.48 47,13.74 47,14 C47,14.26 46.89,14.52 46.71,14.71 C46.52,14.89 46.26,15 46,15" id="Fill-481" fill="#A81172" sketch:type="MSShapeGroup"></path>
            <path d="M49,12 C48.74,12 48.48,11.89 48.29,11.71 C48.11,11.52 48,11.26 48,11 C48,10.73 48.11,10.47 48.29,10.29 C48.66,9.92 49.33,9.92 49.71,10.29 C49.89,10.48 50,10.73 50,11 C50,11.26 49.89,11.52 49.71,11.71 C49.52,11.89 49.26,12 49,12" id="Fill-482" fill="#A81172" sketch:type="MSShapeGroup"></path>
            <path d="M49,18 C48.74,18 48.48,17.89 48.29,17.71 C48.11,17.52 48,17.26 48,17 C48,16.74 48.11,16.48 48.29,16.29 C48.66,15.92 49.33,15.92 49.71,16.29 C49.89,16.48 50,16.74 50,17 C50,17.26 49.89,17.52 49.71,17.71 C49.52,17.89 49.26,18 49,18" id="Fill-483" fill="#A81172" sketch:type="MSShapeGroup"></path>
            <path d="M52,15 C51.74,15 51.48,14.89 51.29,14.71 C51.11,14.52 51,14.26 51,14 C51,13.74 51.11,13.48 51.29,13.29 C51.67,12.92 52.35,12.92 52.71,13.29 C52.89,13.48 53,13.74 53,14 C53,14.26 52.89,14.52 52.71,14.71 C52.52,14.89 52.26,15 52,15" id="Fill-484" fill="#A81172" sketch:type="MSShapeGroup"></path>
            <path d="M10,36.5 C10,38.433 8.433,40 6.5,40 C4.567,40 3,38.433 3,36.5 C3,34.567 4.567,33 6.5,33 C8.433,33 10,34.567 10,36.5" id="Fill-485" fill="#E0E2E3" sketch:type="MSShapeGroup"></path>
            <path d="M17,13 C17.256,13 17.512,12.902 17.707,12.707 L21.707,8.707 C22.098,8.316 22.098,7.684 21.707,7.293 C21.316,6.902 20.684,6.902 20.293,7.293 L16.293,11.293 C15.902,11.684 15.902,12.316 16.293,12.707 C16.488,12.902 16.744,13 17,13" id="Fill-538" fill="#38454F" sketch:type="MSShapeGroup"></path>
            <path d="M18.293,14.293 L16.293,16.293 C15.902,16.684 15.902,17.316 16.293,17.707 C16.488,17.902 16.744,18 17,18 C17.256,18 17.512,17.902 17.707,17.707 L19.707,15.707 C20.098,15.316 20.098,14.684 19.707,14.293 C19.316,13.902 18.684,13.902 18.293,14.293" id="Fill-539" fill="#38454F" sketch:type="MSShapeGroup"></path>
            <path d="M20.29,12.29 C20.11,12.48 20,12.74 20,13 C20,13.26 20.11,13.52 20.29,13.71 C20.48,13.89 20.73,14 21,14 C21.26,14 21.52,13.89 21.71,13.71 C21.89,13.52 22,13.26 22,13 C22,12.74 21.89,12.48 21.71,12.29 C21.34,11.92 20.65,11.92 20.29,12.29" id="Fill-540" fill="#38454F" sketch:type="MSShapeGroup"></path>
            <path d="M26.707,7.293 C26.316,6.902 25.684,6.902 25.293,7.293 L22.293,10.293 C21.902,10.684 21.902,11.316 22.293,11.707 C22.488,11.902 22.744,12 23,12 C23.256,12 23.512,11.902 23.707,11.707 L26.707,8.707 C27.098,8.316 27.098,7.684 26.707,7.293" id="Fill-541" fill="#38454F" sketch:type="MSShapeGroup"></path>
            <path d="M17,41 C17.256,41 17.512,40.902 17.707,40.707 L21.707,36.707 C22.098,36.316 22.098,35.684 21.707,35.293 C21.316,34.902 20.684,34.902 20.293,35.293 L16.293,39.293 C15.902,39.684 15.902,40.317 16.293,40.707 C16.488,40.902 16.744,41 17,41" id="Fill-542" fill="#38454F" sketch:type="MSShapeGroup"></path>
            <path d="M18.293,42.293 L16.293,44.293 C15.902,44.684 15.902,45.316 16.293,45.707 C16.488,45.902 16.744,46 17,46 C17.256,46 17.512,45.902 17.707,45.707 L19.707,43.707 C20.098,43.317 20.098,42.684 19.707,42.293 C19.316,41.902 18.684,41.902 18.293,42.293" id="Fill-543" fill="#38454F" sketch:type="MSShapeGroup"></path>
            <path d="M20.29,40.29 C20.11,40.48 20,40.73 20,41 C20,41.27 20.11,41.52 20.29,41.71 C20.48,41.89 20.73,42 21,42 C21.26,42 21.52,41.89 21.71,41.71 C21.89,41.52 22,41.26 22,41 C22,40.74 21.89,40.48 21.71,40.29 C21.34,39.92 20.66,39.92 20.29,40.29" id="Fill-544" fill="#38454F" sketch:type="MSShapeGroup"></path>
            <path d="M26.707,35.293 C26.316,34.902 25.684,34.902 25.293,35.293 L22.293,38.293 C21.902,38.684 21.902,39.316 22.293,39.707 C22.488,39.902 22.744,40 23,40 C23.256,40 23.512,39.902 23.707,39.707 L26.707,36.707 C27.098,36.316 27.098,35.684 26.707,35.293" id="Fill-545" fill="#38454F" sketch:type="MSShapeGroup"></path>
        </g>
    </g>
</svg>