<?xml version="1.0" encoding="UTF-8" standalone="no"?>
<svg width="39px" height="58px" viewBox="0 0 39 58" version="1.1" xmlns="http://www.w3.org/2000/svg" xmlns:xlink="http://www.w3.org/1999/xlink" xmlns:sketch="http://www.bohemiancoding.com/sketch/ns">
    <!-- Generator: Sketch 3.2.2 (9983) - http://www.bohemiancoding.com/sketch -->
    <title>15 - Apple Watch (Flat)</title>
    <desc>Created with Sketch.</desc>
    <defs></defs>
    <g id="Page-1" stroke="none" stroke-width="1" fill="none" fill-rule="evenodd" sketch:type="MSPage">
        <g id="15---Apple-Watch-(Flat)" sketch:type="MSLayerGroup" transform="translate(1.000000, 0.000000)">
            <path d="M28.027,8.305 L29,10 L5,10 L5.973,8.305 C6.705,7.029 7.087,5.62 7.087,4.193 C7.087,1.877 9.242,0 11.9,0 L22.1,0 C24.758,0 26.913,1.877 26.913,4.193 C26.913,5.62 27.294,7.029 28.027,8.305" id="Fill-783" fill="#4BB8DD" sketch:type="MSShapeGroup"></path>
            <path d="M5.973,49.695 L5,48 L29,48 L28.027,49.695 C27.294,50.972 26.913,52.38 26.913,53.807 C26.913,56.123 24.758,58 22.1,58 L11.9,58 C9.242,58 7.087,56.123 7.087,53.807 C7.087,52.38 6.705,50.972 5.973,49.695" id="Fill-784" fill="#4BB8DD" sketch:type="MSShapeGroup"></path>
            <path d="M35.521,40 L33,40 L33,32 L35.521,32 C36.338,32 37,32.662 37,33.479 L37,38.521 C37,39.338 36.338,40 35.521,40" id="Fill-785" fill="#B0B6BB" sketch:type="MSShapeGroup"></path>
            <path d="M36.521,27 L34,27 L34,19 L36.521,19 C37.338,19 38,19.662 38,20.479 L38,25.521 C38,26.338 37.338,27 36.521,27" id="Fill-786" fill="#B0B6BB" sketch:type="MSShapeGroup"></path>
            <path d="M29.706,48 L4.294,48 C1.922,48 0,46.078 0,43.706 L0,14.294 C0,11.922 1.922,10 4.294,10 L29.706,10 C32.078,10 34,11.922 34,14.294 L34,43.706 C34,46.078 32.078,48 29.706,48 L29.706,48 Z" id="Fill-1962" fill="#283238" sketch:type="MSShapeGroup"></path>
            <path d="M29.706,48 L4.294,48 C1.922,48 0,46.078 0,43.706 L0,14.294 C0,11.922 1.922,10 4.294,10 L29.706,10 C32.078,10 34,11.922 34,14.294 L34,43.706 C34,46.078 32.078,48 29.706,48 L29.706,48 Z" id="Stroke-1963" stroke="#F3CC6D" stroke-width="2" stroke-linecap="round" sketch:type="MSShapeGroup"></path>
            <path d="M5,20 C5.256,20 5.512,19.902 5.707,19.707 L9.707,15.707 C10.098,15.316 10.098,14.684 9.707,14.293 C9.316,13.902 8.684,13.902 8.293,14.293 L4.293,18.293 C3.902,18.684 3.902,19.316 4.293,19.707 C4.488,19.902 4.744,20 5,20" id="Fill-1964" fill="#38454F" sketch:type="MSShapeGroup"></path>
            <path d="M5,25 C5.256,25 5.512,24.902 5.707,24.707 L7.707,22.707 C8.098,22.316 8.098,21.684 7.707,21.293 C7.316,20.902 6.684,20.902 6.293,21.293 L4.293,23.293 C3.902,23.684 3.902,24.316 4.293,24.707 C4.488,24.902 4.744,25 5,25" id="Fill-1965" fill="#38454F" sketch:type="MSShapeGroup"></path>
            <path d="M8.29,19.29 C8.109,19.48 8,19.73 8,20 C8,20.27 8.109,20.52 8.29,20.7 C8.479,20.89 8.729,21 9,21 C9.269,21 9.519,20.89 9.71,20.71 C9.89,20.52 10,20.26 10,20 C10,19.74 9.89,19.48 9.71,19.29 C9.33,18.92 8.66,18.92 8.29,19.29" id="Fill-1966" fill="#38454F" sketch:type="MSShapeGroup"></path>
            <path d="M10.293,18.707 C10.488,18.902 10.744,19 11,19 C11.256,19 11.512,18.902 11.707,18.707 L14.707,15.707 C15.098,15.316 15.098,14.684 14.707,14.293 C14.316,13.902 13.684,13.902 13.293,14.293 L10.293,17.293 C9.902,17.684 9.902,18.316 10.293,18.707" id="Fill-1967" fill="#38454F" sketch:type="MSShapeGroup"></path>
            <path d="M13.293,19.293 L4.293,28.293 C3.902,28.684 3.902,29.317 4.293,29.707 C4.488,29.902 4.744,30 5,30 C5.256,30 5.512,29.902 5.707,29.707 L14.707,20.707 C15.098,20.317 15.098,19.684 14.707,19.293 C14.316,18.902 13.684,18.902 13.293,19.293" id="Fill-1968" fill="#38454F" sketch:type="MSShapeGroup"></path>
            <path d="M15.3,17.29 C15.109,17.47 15,17.73 15,18 C15,18.27 15.109,18.52 15.29,18.71 C15.479,18.89 15.74,19 16,19 C16.26,19 16.519,18.89 16.71,18.71 C16.89,18.52 17,18.26 17,18 C17,17.74 16.89,17.48 16.71,17.29 C16.33,16.92 15.66,16.92 15.3,17.29" id="Fill-1969" fill="#38454F" sketch:type="MSShapeGroup"></path>
            <path d="M19.707,14.293 C19.316,13.902 18.684,13.902 18.293,14.293 L17.293,15.293 C16.902,15.684 16.902,16.316 17.293,16.707 C17.488,16.902 17.744,17 18,17 C18.256,17 18.512,16.902 18.707,16.707 L19.707,15.707 C20.098,15.316 20.098,14.684 19.707,14.293" id="Fill-1970" fill="#38454F" sketch:type="MSShapeGroup"></path>
        </g>
    </g>
</svg>