<?xml version="1.0" encoding="UTF-8" standalone="no"?>
<svg width="34px" height="58px" viewBox="0 0 34 58" version="1.1" xmlns="http://www.w3.org/2000/svg" xmlns:xlink="http://www.w3.org/1999/xlink" xmlns:sketch="http://www.bohemiancoding.com/sketch/ns">
    <!-- Generator: Sketch 3.2.2 (9983) - http://www.bohemiancoding.com/sketch -->
    <title>63 - Aquos (Flat)</title>
    <desc>Created with Sketch.</desc>
    <defs></defs>
    <g id="Page-1" stroke="none" stroke-width="1" fill="none" fill-rule="evenodd" sketch:type="MSPage">
        <g id="63---Aquos-(Flat)" sketch:type="MSLayerGroup">
            <path d="M0,0 L34,0 L34,58 L0,58 L0,0 Z" id="Fill-924" fill="#CBD4D8" sketch:type="MSShapeGroup"></path>
            <path d="M0,0 L34,0 L34,48 L0,48 L0,0 Z" id="Fill-1419" fill="#7383BF" sketch:type="MSShapeGroup"></path>
            <path d="M11,53 C11,53.552 10.552,54 10,54 C9.448,54 9,53.552 9,53 C9,52.448 9.448,52 10,52 C10.552,52 11,52.448 11,53" id="Fill-1420" fill="#546A79" sketch:type="MSShapeGroup"></path>
            <path d="M20,54 L14,54 C13.447,54 13,53.553 13,53 C13,52.447 13.447,52 14,52 L20,52 C20.553,52 21,52.447 21,53 C21,53.553 20.553,54 20,54" id="Fill-1421" fill="#B0B6BB" sketch:type="MSShapeGroup"></path>
            <path d="M25,54 L24,54 C23.447,54 23,53.553 23,53 C23,52.447 23.447,52 24,52 L25,52 C25.553,52 26,52.447 26,53 C26,53.553 25.553,54 25,54" id="Fill-1422" fill="#546A79" sketch:type="MSShapeGroup"></path>
            <path d="M3,8 C3.256,8 3.512,7.902 3.707,7.707 L7.707,3.707 C8.098,3.316 8.098,2.684 7.707,2.293 C7.316,1.902 6.684,1.902 6.293,2.293 L2.293,6.293 C1.902,6.684 1.902,7.316 2.293,7.707 C2.488,7.902 2.744,8 3,8" id="Fill-1423" fill="#869BDB" sketch:type="MSShapeGroup"></path>
            <path d="M3,13 C3.256,13 3.512,12.902 3.707,12.707 L5.707,10.707 C6.098,10.316 6.098,9.684 5.707,9.293 C5.316,8.902 4.684,8.902 4.293,9.293 L2.293,11.293 C1.902,11.684 1.902,12.316 2.293,12.707 C2.488,12.902 2.744,13 3,13" id="Fill-1424" fill="#869BDB" sketch:type="MSShapeGroup"></path>
            <path d="M6.29,7.29 C6.109,7.48 6,7.74 6,8 C6,8.26 6.109,8.52 6.29,8.71 C6.479,8.89 6.729,9 7,9 C7.26,9 7.519,8.89 7.71,8.71 C7.89,8.52 8,8.26 8,8 C8,7.74 7.89,7.48 7.71,7.29 C7.34,6.92 6.66,6.92 6.29,7.29" id="Fill-1425" fill="#869BDB" sketch:type="MSShapeGroup"></path>
            <path d="M8.293,6.707 C8.488,6.902 8.744,7 9,7 C9.256,7 9.512,6.902 9.707,6.707 L12.707,3.707 C13.098,3.316 13.098,2.684 12.707,2.293 C12.316,1.902 11.684,1.902 11.293,2.293 L8.293,5.293 C7.902,5.684 7.902,6.316 8.293,6.707" id="Fill-1426" fill="#869BDB" sketch:type="MSShapeGroup"></path>
            <path d="M11.293,7.293 L2.293,16.293 C1.902,16.684 1.902,17.316 2.293,17.707 C2.488,17.902 2.744,18 3,18 C3.256,18 3.512,17.902 3.707,17.707 L12.707,8.707 C13.098,8.316 13.098,7.684 12.707,7.293 C12.316,6.902 11.684,6.902 11.293,7.293" id="Fill-1427" fill="#869BDB" sketch:type="MSShapeGroup"></path>
            <path d="M13.29,5.29 C13.109,5.48 13,5.73 13,6 C13,6.27 13.109,6.52 13.29,6.71 C13.479,6.89 13.74,7 14,7 C14.26,7 14.519,6.89 14.71,6.71 C14.89,6.52 15,6.26 15,6 C15,5.74 14.89,5.48 14.71,5.29 C14.34,4.92 13.66,4.92 13.29,5.29" id="Fill-1428" fill="#869BDB" sketch:type="MSShapeGroup"></path>
            <path d="M17.707,2.293 C17.316,1.902 16.684,1.902 16.293,2.293 L15.293,3.293 C14.902,3.684 14.902,4.316 15.293,4.707 C15.488,4.902 15.744,5 16,5 C16.256,5 16.512,4.902 16.707,4.707 L17.707,3.707 C18.098,3.316 18.098,2.684 17.707,2.293" id="Fill-1429" fill="#869BDB" sketch:type="MSShapeGroup"></path>
        </g>
    </g>
</svg>