<?xml version="1.0" encoding="UTF-8" standalone="no"?>
<svg width="58px" height="58px" viewBox="0 0 58 58" version="1.1" xmlns="http://www.w3.org/2000/svg" xmlns:xlink="http://www.w3.org/1999/xlink" xmlns:sketch="http://www.bohemiancoding.com/sketch/ns">
    <!-- Generator: Sketch 3.2.2 (9983) - http://www.bohemiancoding.com/sketch -->
    <title>31 - Arcade Console (Flat)</title>
    <desc>Created with Sketch.</desc>
    <defs></defs>
    <g id="Page-1" stroke="none" stroke-width="1" fill="none" fill-rule="evenodd" sketch:type="MSPage">
        <g id="31---Arcade-Console-(Flat)" sketch:type="MSLayerGroup">
            <path d="M53,47 L5,47 L0,36 L0,12 L58,12 L58,35.802 L53,47" id="Fill-1033" fill="#546A79" sketch:type="MSShapeGroup"></path>
            <path d="M53,47 L5,47 L8,21.995 C8,19.789 9.789,18 11.995,18 L46.005,18 C48.211,18 50,19.789 50,21.995 L53,47" id="Fill-1034" fill="#283238" sketch:type="MSShapeGroup"></path>
            <path d="M11.995,18 L46.005,18 C47.364,18 48.56,18.682 49.282,19.718 L58,12 L0,12 L8.718,19.718 C9.44,18.682 10.636,18 11.995,18" id="Fill-1035" fill="#38454F" sketch:type="MSShapeGroup"></path>
            <path d="M13,47 L13,42" id="Stroke-1036" stroke="#CBD4D8" stroke-width="2" stroke-linecap="round" stroke-linejoin="round" sketch:type="MSShapeGroup"></path>
            <path d="M16,39 C16,40.657 14.657,42 13,42 C11.343,42 10,40.657 10,39 C10,37.343 11.343,36 13,36 C14.657,36 16,37.343 16,39" id="Fill-1037" fill="#DD342E" sketch:type="MSShapeGroup"></path>
            <path d="M18,44 L23,44 L23,47 L18,47 L18,44 Z" id="Fill-1038" fill="#ECBA16" sketch:type="MSShapeGroup"></path>
            <path d="M45,47 L45,42" id="Stroke-1039" stroke="#CBD4D8" stroke-width="2" stroke-linecap="round" stroke-linejoin="round" sketch:type="MSShapeGroup"></path>
            <path d="M42,39 C42,40.657 43.343,42 45,42 C46.657,42 48,40.657 48,39 C48,37.343 46.657,36 45,36 C43.343,36 42,37.343 42,39" id="Fill-1040" fill="#DD342E" sketch:type="MSShapeGroup"></path>
            <path d="M35,44 L40,44 L40,47 L35,47 L35,44 Z" id="Fill-1041" fill="#ECBA16" sketch:type="MSShapeGroup"></path>
            <path d="M58,58 L0,58 L0,50.553 C0,48.591 1.591,47 3.553,47 L54.447,47 C56.409,47 58,48.591 58,50.553 L58,58" id="Fill-1042" fill="#38454F" sketch:type="MSShapeGroup"></path>
            <path d="M52,49 L54,49 L54,56 L52,56 L52,49 Z" id="Fill-1043" fill="#E8EDEE" sketch:type="MSShapeGroup"></path>
            <path d="M49,52.5 C49,53.881 47.881,55 46.5,55 C45.119,55 44,53.881 44,52.5 C44,51.119 45.119,50 46.5,50 C47.881,50 49,51.119 49,52.5" id="Fill-1044" fill="#23A24D" sketch:type="MSShapeGroup"></path>
            <path d="M4,49 L6,49 L6,56 L4,56 L4,49 Z" id="Fill-1045" fill="#E8EDEE" sketch:type="MSShapeGroup"></path>
            <path d="M9,52.5 C9,51.119 10.119,50 11.5,50 C12.881,50 14,51.119 14,52.5 C14,53.881 12.881,55 11.5,55 C10.119,55 9,53.881 9,52.5" id="Fill-1046" fill="#23A24D" sketch:type="MSShapeGroup"></path>
            <path d="M12,27 C12.256,27 12.512,26.902 12.707,26.707 L16.707,22.707 C17.098,22.316 17.098,21.684 16.707,21.293 C16.316,20.902 15.684,20.902 15.293,21.293 L11.293,25.293 C10.902,25.684 10.902,26.317 11.293,26.707 C11.488,26.902 11.744,27 12,27" id="Fill-1047" fill="#38454F" sketch:type="MSShapeGroup"></path>
            <path d="M13.293,28.293 L11.293,30.293 C10.902,30.684 10.902,31.316 11.293,31.707 C11.488,31.902 11.744,32 12,32 C12.256,32 12.512,31.902 12.707,31.707 L14.707,29.707 C15.098,29.317 15.098,28.684 14.707,28.293 C14.316,27.902 13.684,27.902 13.293,28.293" id="Fill-1048" fill="#38454F" sketch:type="MSShapeGroup"></path>
            <path d="M15.29,26.29 C15.109,26.48 15,26.73 15,27 C15,27.26 15.109,27.52 15.29,27.71 C15.47,27.89 15.729,28 16,28 C16.27,28 16.52,27.89 16.71,27.71 C16.89,27.52 17,27.26 17,27 C17,26.73 16.89,26.48 16.71,26.29 C16.33,25.92 15.66,25.92 15.29,26.29" id="Fill-1049" fill="#38454F" sketch:type="MSShapeGroup"></path>
            <path d="M21.707,21.293 C21.316,20.902 20.684,20.902 20.293,21.293 L17.293,24.293 C16.902,24.684 16.902,25.316 17.293,25.707 C17.488,25.902 17.744,26 18,26 C18.256,26 18.512,25.902 18.707,25.707 L21.707,22.707 C22.098,22.316 22.098,21.684 21.707,21.293" id="Fill-1050" fill="#38454F" sketch:type="MSShapeGroup"></path>
            <path d="M0,0 L58,0 L58,12 L0,12 L0,0 Z" id="Fill-1892" fill="#434C6D" sketch:type="MSShapeGroup"></path>
            <path d="M4,9 C3.447,9 3,8.553 3,8 L3,4 C3,3.447 3.447,3 4,3 C4.553,3 5,3.447 5,4 L5,8 C5,8.553 4.553,9 4,9" id="Fill-1893" fill="#E0E2E3" sketch:type="MSShapeGroup"></path>
            <path d="M7,7 L4,7 C3.447,7 3,6.553 3,6 C3,5.447 3.447,5 4,5 L7,5 C7.553,5 8,5.447 8,6 C8,6.553 7.553,7 7,7" id="Fill-1894" fill="#E0E2E3" sketch:type="MSShapeGroup"></path>
            <path d="M7,10 C6.447,10 6,9.553 6,9 L6,3 C6,2.447 6.447,2 7,2 C7.553,2 8,2.447 8,3 L8,9 C8,9.553 7.553,10 7,10" id="Fill-1895" fill="#E0E2E3" sketch:type="MSShapeGroup"></path>
            <path d="M9,7 L7,7 C6.447,7 6,6.553 6,6 C6,5.447 6.447,5 7,5 L9,5 C9.553,5 10,5.447 10,6 C10,6.553 9.553,7 9,7" id="Fill-1896" fill="#E0E2E3" sketch:type="MSShapeGroup"></path>
            <path d="M14,7 C13.74,7 13.479,6.89 13.29,6.71 C13.109,6.52 13,6.26 13,6 C13,5.73 13.109,5.48 13.29,5.29 C13.67,4.92 14.33,4.92 14.71,5.29 C14.89,5.48 15,5.74 15,6 C15,6.26 14.89,6.52 14.71,6.71 C14.52,6.89 14.26,7 14,7" id="Fill-1897" fill="#ECBA16" sketch:type="MSShapeGroup"></path>
            <path d="M25,6 C25,5.45 25.45,5 26,5 C26.55,5 27,5.45 27,6 C27,6.55 26.55,7 26,7 C25.45,7 25,6.55 25,6 L25,6 Z M21,6 C21,5.45 21.45,5 22,5 C22.55,5 23,5.45 23,6 C23,6.55 22.55,7 22,7 C21.45,7 21,6.55 21,6 L21,6 Z M17,6 C17,5.45 17.45,5 18,5 C18.55,5 19,5.45 19,6 C19,6.55 18.55,7 18,7 C17.45,7 17,6.55 17,6 L17,6 Z" id="Fill-1898" fill="#ECBA16" sketch:type="MSShapeGroup"></path>
            <path d="M30,7 C29.74,7 29.479,6.89 29.29,6.71 C29.109,6.52 29,6.26 29,6 C29,5.73 29.109,5.48 29.29,5.29 C29.67,4.92 30.34,4.92 30.71,5.29 C30.89,5.48 31,5.74 31,6 C31,6.26 30.89,6.52 30.71,6.71 C30.52,6.89 30.26,7 30,7" id="Fill-1899" fill="#ECBA16" sketch:type="MSShapeGroup"></path>
            <path d="M55,6 C55,7.657 53.657,9 52,9 C50.343,9 49,7.657 49,6 C49,4.343 50.343,3 52,3 C53.657,3 55,4.343 55,6" id="Fill-1900" fill="#D75D72" sketch:type="MSShapeGroup"></path>
        </g>
    </g>
</svg>