<?xml version="1.0" encoding="UTF-8" standalone="no"?>
<svg width="58px" height="58px" viewBox="0 0 58 58" version="1.1" xmlns="http://www.w3.org/2000/svg" xmlns:xlink="http://www.w3.org/1999/xlink" xmlns:sketch="http://www.bohemiancoding.com/sketch/ns">
    <!-- Generator: Sketch 3.2.2 (9983) - http://www.bohemiancoding.com/sketch -->
    <title>8 - ARM Processor (Flat)</title>
    <desc>Created with Sketch.</desc>
    <defs></defs>
    <g id="Page-1" stroke="none" stroke-width="1" fill="none" fill-rule="evenodd" sketch:type="MSPage">
        <g id="8---ARM-Processor-(Flat)" sketch:type="MSLayerGroup">
            <path d="M55,16 C54.448,16 54,16.447 54,17 C54,17.553 54.448,18 55,18 L58,18 L58,16 L55,16" id="Fill-39" fill="#ECD361" sketch:type="MSShapeGroup"></path>
            <path d="M54,20 C54,20.553 54.448,21 55,21 L58,21 L58,19 L55,19 C54.448,19 54,19.447 54,20" id="Fill-40" fill="#ECD361" sketch:type="MSShapeGroup"></path>
            <path d="M54,23 C54,23.553 54.448,24 55,24 L58,24 L58,22 L55,22 C54.448,22 54,22.447 54,23" id="Fill-41" fill="#ECD361" sketch:type="MSShapeGroup"></path>
            <path d="M54,26 C54,26.553 54.448,27 55,27 L58,27 L58,25 L55,25 C54.448,25 54,25.447 54,26" id="Fill-42" fill="#ECD361" sketch:type="MSShapeGroup"></path>
            <path d="M54,29 C54,29.553 54.448,30 55,30 L58,30 L58,28 L55,28 C54.448,28 54,28.447 54,29" id="Fill-43" fill="#ECD361" sketch:type="MSShapeGroup"></path>
            <path d="M54,32 C54,32.553 54.448,33 55,33 L58,33 L58,31 L55,31 C54.448,31 54,31.447 54,32" id="Fill-44" fill="#ECD361" sketch:type="MSShapeGroup"></path>
            <path d="M54,35 C54,35.553 54.448,36 55,36 L58,36 L58,34 L55,34 C54.448,34 54,34.447 54,35" id="Fill-45" fill="#ECD361" sketch:type="MSShapeGroup"></path>
            <path d="M54,38 C54,38.553 54.448,39 55,39 L58,39 L58,37 L55,37 C54.448,37 54,37.447 54,38" id="Fill-46" fill="#ECD361" sketch:type="MSShapeGroup"></path>
            <path d="M54,41 C54,41.553 54.448,42 55,42 L58,42 L58,40 L55,40 C54.448,40 54,40.447 54,41" id="Fill-47" fill="#ECD361" sketch:type="MSShapeGroup"></path>
            <path d="M55,16 L58,16 L58,4.499 C58,2.014 55.986,0 53.501,0 L46,0 C46,2.209 44.209,4 42,4 C39.791,4 38,2.209 38,0 L4.499,0 C2.014,0 0,2.014 0,4.499 L0,10 L4,10 L4,14 L0,14 L0,53.501 C0,55.986 2.014,58 4.499,58 L38,58 C38,55.791 39.791,54 42,54 C44.209,54 46,55.791 46,58 L53.501,58 C55.986,58 58,55.986 58,53.501 L58,42 L55,42 C54.448,42 54,41.553 54,41 C54,40.447 54.448,40 55,40 L58,40 L58,39 L55,39 C54.448,39 54,38.553 54,38 C54,37.447 54.448,37 55,37 L58,37 L58,36 L55,36 C54.448,36 54,35.553 54,35 C54,34.447 54.448,34 55,34 L58,34 L58,33 L55,33 C54.448,33 54,32.553 54,32 C54,31.447 54.448,31 55,31 L58,31 L58,30 L55,30 C54.448,30 54,29.553 54,29 C54,28.447 54.448,28 55,28 L58,28 L58,27 L55,27 C54.448,27 54,26.553 54,26 C54,25.447 54.448,25 55,25 L58,25 L58,24 L55,24 C54.448,24 54,23.553 54,23 C54,22.447 54.448,22 55,22 L58,22 L58,21 L55,21 C54.448,21 54,20.553 54,20 C54,19.447 54.448,19 55,19 L58,19 L58,18 L55,18 C54.448,18 54,17.553 54,17 C54,16.447 54.448,16 55,16 L55,16 Z M4,55 C3.448,55 3,54.552 3,54 C3,53.448 3.448,53 4,53 C4.552,53 5,53.448 5,54 C5,54.552 4.552,55 4,55 L4,55 Z M4,5 C3.448,5 3,4.552 3,4 C3,3.448 3.448,3 4,3 C4.552,3 5,3.448 5,4 C5,4.552 4.552,5 4,5 L4,5 Z M55,54 C55,54.552 54.552,55 54,55 C53.448,55 53,54.552 53,54 C53,53.448 53.448,53 54,53 C54.552,53 55,53.448 55,54 L55,54 Z M53,4 C53,3.448 53.448,3 54,3 C54.552,3 55,3.448 55,4 C55,4.552 54.552,5 54,5 C53.448,5 53,4.552 53,4 L53,4 Z" id="Fill-748" fill="#5E5E60" sketch:type="MSShapeGroup"></path>
            <path d="M15,39.643 L15,18.357 C15,16.503 16.503,15 18.357,15 L39.643,15 C41.497,15 43,16.503 43,18.357 L43,39.643 C43,41.497 41.497,43 39.643,43 L18.357,43 C16.503,43 15,41.497 15,39.643" id="Fill-1004" fill="#38454F" sketch:type="MSShapeGroup"></path>
            <path d="M11,22 L8,22 C7.448,22 7,22.447 7,23 C7,23.553 7.448,24 8,24 L11,24 C11.552,24 12,23.553 12,23 C12,22.447 11.552,22 11,22" id="Fill-1005" fill="#ECD361" sketch:type="MSShapeGroup"></path>
            <path d="M11,34 L8,34 C7.448,34 7,34.447 7,35 C7,35.553 7.448,36 8,36 L11,36 C11.552,36 12,35.553 12,35 C12,34.447 11.552,34 11,34" id="Fill-1006" fill="#ECD361" sketch:type="MSShapeGroup"></path>
            <path d="M11,30 L8,30 C7.448,30 7,30.447 7,31 C7,31.553 7.448,32 8,32 L11,32 C11.552,32 12,31.553 12,31 C12,30.447 11.552,30 11,30" id="Fill-1007" fill="#ECD361" sketch:type="MSShapeGroup"></path>
            <path d="M11,26 L8,26 C7.448,26 7,26.447 7,27 C7,27.553 7.448,28 8,28 L11,28 C11.552,28 12,27.553 12,27 C12,26.447 11.552,26 11,26" id="Fill-1008" fill="#ECD361" sketch:type="MSShapeGroup"></path>
            <path d="M47,24 L50,24 C50.552,24 51,23.553 51,23 C51,22.447 50.552,22 50,22 L47,22 C46.448,22 46,22.447 46,23 C46,23.553 46.448,24 47,24" id="Fill-1009" fill="#ECD361" sketch:type="MSShapeGroup"></path>
            <path d="M50,34 L47,34 C46.448,34 46,34.447 46,35 C46,35.553 46.448,36 47,36 L50,36 C50.552,36 51,35.553 51,35 C51,34.447 50.552,34 50,34" id="Fill-1010" fill="#ECD361" sketch:type="MSShapeGroup"></path>
            <path d="M50,30 L47,30 C46.448,30 46,30.447 46,31 C46,31.553 46.448,32 47,32 L50,32 C50.552,32 51,31.553 51,31 C51,30.447 50.552,30 50,30" id="Fill-1011" fill="#ECD361" sketch:type="MSShapeGroup"></path>
            <path d="M50,26 L47,26 C46.448,26 46,26.447 46,27 C46,27.553 46.448,28 47,28 L50,28 C50.552,28 51,27.553 51,27 C51,26.447 50.552,26 50,26" id="Fill-1012" fill="#ECD361" sketch:type="MSShapeGroup"></path>
            <path d="M35,7 C34.448,7 34,7.447 34,8 L34,11 C34,11.553 34.448,12 35,12 C35.552,12 36,11.553 36,11 L36,8 C36,7.447 35.552,7 35,7" id="Fill-1013" fill="#ECD361" sketch:type="MSShapeGroup"></path>
            <path d="M23,7 C22.448,7 22,7.447 22,8 L22,11 C22,11.553 22.448,12 23,12 C23.552,12 24,11.553 24,11 L24,8 C24,7.447 23.552,7 23,7" id="Fill-1014" fill="#ECD361" sketch:type="MSShapeGroup"></path>
            <path d="M27,7 C26.448,7 26,7.447 26,8 L26,11 C26,11.553 26.448,12 27,12 C27.552,12 28,11.553 28,11 L28,8 C28,7.447 27.552,7 27,7" id="Fill-1015" fill="#ECD361" sketch:type="MSShapeGroup"></path>
            <path d="M31,7 C30.448,7 30,7.447 30,8 L30,11 C30,11.553 30.448,12 31,12 C31.552,12 32,11.553 32,11 L32,8 C32,7.447 31.552,7 31,7" id="Fill-1016" fill="#ECD361" sketch:type="MSShapeGroup"></path>
            <path d="M35,46 C34.448,46 34,46.447 34,47 L34,50 C34,50.553 34.448,51 35,51 C35.552,51 36,50.553 36,50 L36,47 C36,46.447 35.552,46 35,46" id="Fill-1017" fill="#ECD361" sketch:type="MSShapeGroup"></path>
            <path d="M23,46 C22.448,46 22,46.447 22,47 L22,50 C22,50.553 22.448,51 23,51 C23.552,51 24,50.553 24,50 L24,47 C24,46.447 23.552,46 23,46" id="Fill-1018" fill="#ECD361" sketch:type="MSShapeGroup"></path>
            <path d="M27,46 C26.448,46 26,46.447 26,47 L26,50 C26,50.553 26.448,51 27,51 C27.552,51 28,50.553 28,50 L28,47 C28,46.447 27.552,46 27,46" id="Fill-1019" fill="#ECD361" sketch:type="MSShapeGroup"></path>
            <path d="M31,46 C30.448,46 30,46.447 30,47 L30,50 C30,50.553 30.448,51 31,51 C31.552,51 32,50.553 32,50 L32,47 C32,46.447 31.552,46 31,46" id="Fill-1020" fill="#ECD361" sketch:type="MSShapeGroup"></path>
            <path d="M3,37 C2.448,37 2,36.552 2,36 C2,35.448 2.448,35 3,35 C3.552,35 4,35.448 4,36 C4,36.552 3.552,37 3,37" id="Fill-1021" fill="#ECD361" sketch:type="MSShapeGroup"></path>
            <path d="M3,41 C2.448,41 2,40.552 2,40 C2,39.448 2.448,39 3,39 C3.552,39 4,39.448 4,40 C4,40.552 3.552,41 3,41" id="Fill-1022" fill="#ECD361" sketch:type="MSShapeGroup"></path>
            <path d="M3,45 C2.448,45 2,44.552 2,44 C2,43.448 2.448,43 3,43 C3.552,43 4,43.448 4,44 C4,44.552 3.552,45 3,45" id="Fill-1023" fill="#ECD361" sketch:type="MSShapeGroup"></path>
            <path d="M3,49 C2.448,49 2,48.552 2,48 C2,47.448 2.448,47 3,47 C3.552,47 4,47.448 4,48 C4,48.552 3.552,49 3,49" id="Fill-1024" fill="#ECD361" sketch:type="MSShapeGroup"></path>
            <path d="M37,37 C36.448,37 36,37.448 36,38 C36,38.552 36.448,39 37,39 C37.552,39 38,38.552 38,38 C38,37.448 37.552,37 37,37" id="Fill-1652" fill="#546A79" sketch:type="MSShapeGroup"></path>
            <path d="M33,37 C32.448,37 32,37.448 32,38 C32,38.552 32.448,39 33,39 C33.552,39 34,38.552 34,38 C34,37.448 33.552,37 33,37" id="Fill-1653" fill="#546A79" sketch:type="MSShapeGroup"></path>
            <path d="M35,34 C34.448,34 34,34.448 34,35 C34,35.552 34.448,36 35,36 C35.552,36 36,35.552 36,35 C36,34.448 35.552,34 35,34" id="Fill-1654" fill="#546A79" sketch:type="MSShapeGroup"></path>
            <path d="M29,37 C28.448,37 28,37.448 28,38 C28,38.552 28.448,39 29,39 C29.552,39 30,38.552 30,38 C30,37.448 29.552,37 29,37" id="Fill-1655" fill="#546A79" sketch:type="MSShapeGroup"></path>
            <path d="M25,37 C24.448,37 24,37.448 24,38 C24,38.552 24.448,39 25,39 C25.552,39 26,38.552 26,38 C26,37.448 25.552,37 25,37" id="Fill-1656" fill="#546A79" sketch:type="MSShapeGroup"></path>
            <path d="M31,34 C30.448,34 30,34.448 30,35 C30,35.552 30.448,36 31,36 C31.552,36 32,35.552 32,35 C32,34.448 31.552,34 31,34" id="Fill-1657" fill="#546A79" sketch:type="MSShapeGroup"></path>
            <path d="M27,34 C26.448,34 26,34.448 26,35 C26,35.552 26.448,36 27,36 C27.552,36 28,35.552 28,35 C28,34.448 27.552,34 27,34" id="Fill-1658" fill="#546A79" sketch:type="MSShapeGroup"></path>
            <path d="M21,37 C20.448,37 20,37.448 20,38 C20,38.552 20.448,39 21,39 C21.552,39 22,38.552 22,38 C22,37.448 21.552,37 21,37" id="Fill-1659" fill="#546A79" sketch:type="MSShapeGroup"></path>
            <path d="M23,34 C22.448,34 22,34.448 22,35 C22,35.552 22.448,36 23,36 C23.552,36 24,35.552 24,35 C24,34.448 23.552,34 23,34" id="Fill-1660" fill="#546A79" sketch:type="MSShapeGroup"></path>
            <path d="M37,31 C36.448,31 36,31.448 36,32 C36,32.552 36.448,33 37,33 C37.552,33 38,32.552 38,32 C38,31.448 37.552,31 37,31" id="Fill-1661" fill="#546A79" sketch:type="MSShapeGroup"></path>
            <path d="M33,33 C33.552,33 34,32.552 34,32 C34,31.448 33.552,31 33,31 C32.448,31 32,31.448 32,32 C32,32.552 32.448,33 33,33" id="Fill-1662" fill="#546A79" sketch:type="MSShapeGroup"></path>
            <path d="M35,30 C35.552,30 36,29.552 36,29 C36,28.448 35.552,28 35,28 C34.448,28 34,28.448 34,29 C34,29.552 34.448,30 35,30" id="Fill-1663" fill="#546A79" sketch:type="MSShapeGroup"></path>
            <path d="M29,33 C29.552,33 30,32.552 30,32 C30,31.448 29.552,31 29,31 C28.448,31 28,31.448 28,32 C28,32.552 28.448,33 29,33" id="Fill-1664" fill="#546A79" sketch:type="MSShapeGroup"></path>
            <path d="M25,33 C25.552,33 26,32.552 26,32 C26,31.448 25.552,31 25,31 C24.448,31 24,31.448 24,32 C24,32.552 24.448,33 25,33" id="Fill-1665" fill="#546A79" sketch:type="MSShapeGroup"></path>
            <path d="M31,30 C31.552,30 32,29.552 32,29 C32,28.448 31.552,28 31,28 C30.448,28 30,28.448 30,29 C30,29.552 30.448,30 31,30" id="Fill-1666" fill="#546A79" sketch:type="MSShapeGroup"></path>
            <path d="M27,30 C27.552,30 28,29.552 28,29 C28,28.448 27.552,28 27,28 C26.448,28 26,28.448 26,29 C26,29.552 26.448,30 27,30" id="Fill-1667" fill="#546A79" sketch:type="MSShapeGroup"></path>
            <path d="M21,33 C21.552,33 22,32.552 22,32 C22,31.448 21.552,31 21,31 C20.448,31 20,31.448 20,32 C20,32.552 20.448,33 21,33" id="Fill-1668" fill="#546A79" sketch:type="MSShapeGroup"></path>
            <path d="M23,28 C22.448,28 22,28.448 22,29 C22,29.552 22.448,30 23,30 C23.552,30 24,29.552 24,29 C24,28.448 23.552,28 23,28" id="Fill-1669" fill="#546A79" sketch:type="MSShapeGroup"></path>
            <path d="M37,25 C36.448,25 36,25.448 36,26 C36,26.552 36.448,27 37,27 C37.552,27 38,26.552 38,26 C38,25.448 37.552,25 37,25" id="Fill-1670" fill="#546A79" sketch:type="MSShapeGroup"></path>
            <path d="M33,25 C32.448,25 32,25.448 32,26 C32,26.552 32.448,27 33,27 C33.552,27 34,26.552 34,26 C34,25.448 33.552,25 33,25" id="Fill-1671" fill="#546A79" sketch:type="MSShapeGroup"></path>
            <path d="M35,24 C35.552,24 36,23.552 36,23 C36,22.448 35.552,22 35,22 C34.448,22 34,22.448 34,23 C34,23.552 34.448,24 35,24" id="Fill-1672" fill="#546A79" sketch:type="MSShapeGroup"></path>
            <path d="M29,25 C28.448,25 28,25.448 28,26 C28,26.552 28.448,27 29,27 C29.552,27 30,26.552 30,26 C30,25.448 29.552,25 29,25" id="Fill-1673" fill="#546A79" sketch:type="MSShapeGroup"></path>
            <path d="M25,25 C24.448,25 24,25.448 24,26 C24,26.552 24.448,27 25,27 C25.552,27 26,26.552 26,26 C26,25.448 25.552,25 25,25" id="Fill-1674" fill="#546A79" sketch:type="MSShapeGroup"></path>
            <path d="M31,24 C31.552,24 32,23.552 32,23 C32,22.448 31.552,22 31,22 C30.448,22 30,22.448 30,23 C30,23.552 30.448,24 31,24" id="Fill-1675" fill="#546A79" sketch:type="MSShapeGroup"></path>
            <path d="M27,24 C27.552,24 28,23.552 28,23 C28,22.448 27.552,22 27,22 C26.448,22 26,22.448 26,23 C26,23.552 26.448,24 27,24" id="Fill-1676" fill="#546A79" sketch:type="MSShapeGroup"></path>
            <path d="M21,27 C21.552,27 22,26.552 22,26 C22,25.448 21.552,25 21,25 C20.448,25 20,25.448 20,26 C20,26.552 20.448,27 21,27" id="Fill-1677" fill="#546A79" sketch:type="MSShapeGroup"></path>
            <path d="M23,24 C23.552,24 24,23.552 24,23 C24,22.448 23.552,22 23,22 C22.448,22 22,22.448 22,23 C22,23.552 22.448,24 23,24" id="Fill-1678" fill="#546A79" sketch:type="MSShapeGroup"></path>
            <path d="M37,21 C37.552,21 38,20.552 38,20 C38,19.448 37.552,19 37,19 C36.448,19 36,19.448 36,20 C36,20.552 36.448,21 37,21" id="Fill-1679" fill="#546A79" sketch:type="MSShapeGroup"></path>
            <path d="M33,21 C33.552,21 34,20.552 34,20 C34,19.448 33.552,19 33,19 C32.448,19 32,19.448 32,20 C32,20.552 32.448,21 33,21" id="Fill-1680" fill="#546A79" sketch:type="MSShapeGroup"></path>
            <path d="M29,21 C29.552,21 30,20.552 30,20 C30,19.448 29.552,19 29,19 C28.448,19 28,19.448 28,20 C28,20.552 28.448,21 29,21" id="Fill-1681" fill="#546A79" sketch:type="MSShapeGroup"></path>
            <path d="M25,21 C25.552,21 26,20.552 26,20 C26,19.448 25.552,19 25,19 C24.448,19 24,19.448 24,20 C24,20.552 24.448,21 25,21" id="Fill-1682" fill="#546A79" sketch:type="MSShapeGroup"></path>
            <path d="M21,21 C21.552,21 22,20.552 22,20 C22,19.448 21.552,19 21,19 C20.448,19 20,19.448 20,20 C20,20.552 20.448,21 21,21" id="Fill-1683" fill="#546A79" sketch:type="MSShapeGroup"></path>
            <path d="M11,55 C11,55.552 10.552,56 10,56 C9.448,56 9,55.552 9,55 C9,54.448 9.448,54 10,54 C10.552,54 11,54.448 11,55" id="Fill-1937" fill="#ECD361" sketch:type="MSShapeGroup"></path>
            <path d="M15,55 C15,55.552 14.552,56 14,56 C13.448,56 13,55.552 13,55 C13,54.448 13.448,54 14,54 C14.552,54 15,54.448 15,55" id="Fill-1938" fill="#ECD361" sketch:type="MSShapeGroup"></path>
            <path d="M19,55 C19,55.552 18.552,56 18,56 C17.448,56 17,55.552 17,55 C17,54.448 17.448,54 18,54 C18.552,54 19,54.448 19,55" id="Fill-1939" fill="#ECD361" sketch:type="MSShapeGroup"></path>
            <path d="M23,55 C23,55.552 22.552,56 22,56 C21.448,56 21,55.552 21,55 C21,54.448 21.448,54 22,54 C22.552,54 23,54.448 23,55" id="Fill-1940" fill="#ECD361" sketch:type="MSShapeGroup"></path>
            <path d="M21,11 L37,11 L37,15 L21,15 L21,11 Z" id="Fill-1941" fill="#CBD4D8" sketch:type="MSShapeGroup"></path>
            <path d="M21,43 L37,43 L37,47 L21,47 L21,43 Z" id="Fill-1942" fill="#CBD4D8" sketch:type="MSShapeGroup"></path>
            <path d="M43,21 L47,21 L47,37 L43,37 L43,21 Z" id="Fill-1943" fill="#CBD4D8" sketch:type="MSShapeGroup"></path>
            <path d="M11,21 L15,21 L15,37 L11,37 L11,21 Z" id="Fill-1944" fill="#CBD4D8" sketch:type="MSShapeGroup"></path>
        </g>
    </g>
</svg>