<?xml version="1.0" encoding="UTF-8" standalone="no"?>
<svg width="58px" height="58px" viewBox="0 0 58 58" version="1.1" xmlns="http://www.w3.org/2000/svg" xmlns:xlink="http://www.w3.org/1999/xlink" xmlns:sketch="http://www.bohemiancoding.com/sketch/ns">
    <!-- Generator: Sketch 3.2.2 (9983) - http://www.bohemiancoding.com/sketch -->
    <title>3 - Cooler (Flat)</title>
    <desc>Created with Sketch.</desc>
    <defs></defs>
    <g id="Page-1" stroke="none" stroke-width="1" fill="none" fill-rule="evenodd" sketch:type="MSPage">
        <g id="3---Cooler-(Flat)" sketch:type="MSLayerGroup">
            <path d="M35,29 C35,32.314 32.314,35 29,35 C25.686,35 23,32.314 23,29 C23,25.686 25.686,23 29,23 C32.314,23 35,25.686 35,29" id="Fill-1103" fill="#283238" sketch:type="MSShapeGroup"></path>
            <path d="M55.151,0 L2.849,0 C1.276,0 0,1.276 0,2.849 L0,55.151 C0,56.724 1.276,58 2.849,58 L55.151,58 C56.724,58 58,56.724 58,55.151 L58,2.849 C58,1.276 56.724,0 55.151,0 L55.151,0 Z M6,3 C7.657,3 9,4.343 9,6 C9,7.657 7.657,9 6,9 C4.343,9 3,7.657 3,6 C3,4.343 4.343,3 6,3 L6,3 Z M6,55 C4.343,55 3,53.657 3,52 C3,50.343 4.343,49 6,49 C7.657,49 9,50.343 9,52 C9,53.657 7.657,55 6,55 L6,55 Z M52,55 C50.343,55 49,53.657 49,52 C49,50.343 50.343,49 52,49 C53.657,49 55,50.343 55,52 C55,53.657 53.657,55 52,55 L52,55 Z M29,55 C14.641,55 3,43.359 3,29 C3,14.641 14.641,3 29,3 C43.359,3 55,14.641 55,29 C55,43.359 43.359,55 29,55 L29,55 Z M52,9 C50.343,9 49,7.657 49,6 C49,4.343 50.343,3 52,3 C53.657,3 55,4.343 55,6 C55,7.657 53.657,9 52,9 L52,9 Z" id="Fill-1104" fill="#283238" sketch:type="MSShapeGroup"></path>
            <path d="M31.109,23.389 C32.523,23.921 33.681,24.968 34.356,26.306 C40.375,22.688 43.097,16.418 42.478,6.762 C38.586,4.398 34.021,3.029 29.14,3.004 C30.771,6.304 37.5,13.25 31.109,23.389" id="Fill-1105" fill="#546A79" sketch:type="MSShapeGroup"></path>
            <path d="M26.891,34.615 C25.477,34.083 24.319,33.036 23.644,31.698 C17.625,35.316 14.903,41.585 15.521,51.241 C19.414,53.606 23.979,54.974 28.86,55 C27.229,51.7 20.5,44.754 26.891,34.615" id="Fill-1106" fill="#546A79" sketch:type="MSShapeGroup"></path>
            <path d="M31.478,34.462 C30.101,35.086 28.542,35.164 27.12,34.695 C25.422,41.51 27.93,47.868 35.195,54.258 C39.62,53.178 43.815,50.918 47.285,47.484 C43.798,46.304 34.128,46.15 31.478,34.462" id="Fill-1107" fill="#546A79" sketch:type="MSShapeGroup"></path>
            <path d="M26.522,23.541 C27.898,22.917 29.458,22.839 30.881,23.308 C32.578,16.494 30.07,10.136 22.805,3.745 C18.38,4.826 14.185,7.086 10.715,10.519 C14.202,11.7 23.872,11.853 26.522,23.541" id="Fill-1108" fill="#546A79" sketch:type="MSShapeGroup"></path>
            <path d="M34.613,31.111 C34.081,32.525 33.034,33.683 31.696,34.357 C35.314,40.377 41.584,43.099 51.24,42.48 C53.604,38.587 54.972,34.023 54.998,29.142 C51.698,30.772 44.752,37.502 34.613,31.111" id="Fill-1109" fill="#546A79" sketch:type="MSShapeGroup"></path>
            <path d="M23.387,26.893 C23.919,25.478 24.966,24.321 26.304,23.646 C22.686,17.627 16.416,14.905 6.76,15.523 C4.396,19.416 3.028,23.98 3.002,28.862 C6.302,27.231 13.248,20.502 23.387,26.893" id="Fill-1110" fill="#546A79" sketch:type="MSShapeGroup"></path>
            <path d="M34.461,26.524 C35.084,27.9 35.162,29.46 34.693,30.882 C41.508,32.58 47.866,30.072 54.257,22.807 C53.176,18.382 50.916,14.187 47.482,10.717 C46.302,14.204 46.149,23.874 34.461,26.524" id="Fill-1111" fill="#546A79" sketch:type="MSShapeGroup"></path>
            <path d="M23.539,31.479 C22.916,30.103 22.838,28.544 23.307,27.121 C16.492,25.423 10.134,27.932 3.744,35.197 C4.824,39.622 7.084,43.816 10.518,47.286 C11.698,43.8 11.851,34.13 23.539,31.479" id="Fill-1112" fill="#546A79" sketch:type="MSShapeGroup"></path>
            <path d="M31.109,23.389 C32.523,23.921 33.681,24.968 34.356,26.306 C40.375,22.688 43.097,16.418 42.478,6.762 C38.586,4.398 34.021,3.029 29.14,3.004 C30.771,6.304 37.5,13.25 31.109,23.389" id="Fill-1105" fill="#546A79" sketch:type="MSShapeGroup"></path>
            <path d="M26.891,34.615 C25.477,34.083 24.319,33.036 23.644,31.698 C17.625,35.316 14.903,41.585 15.521,51.241 C19.414,53.606 23.979,54.974 28.86,55 C27.229,51.7 20.5,44.754 26.891,34.615" id="Fill-1106" fill="#546A79" sketch:type="MSShapeGroup"></path>
            <path d="M31.478,34.462 C30.101,35.086 28.542,35.164 27.12,34.695 C25.422,41.51 27.93,47.868 35.195,54.258 C39.62,53.178 43.815,50.918 47.285,47.484 C43.798,46.304 34.128,46.15 31.478,34.462" id="Fill-1107" fill="#546A79" sketch:type="MSShapeGroup"></path>
            <path d="M26.522,23.541 C27.898,22.917 29.458,22.839 30.881,23.308 C32.578,16.494 30.07,10.136 22.805,3.745 C18.38,4.826 14.185,7.086 10.715,10.519 C14.202,11.7 23.872,11.853 26.522,23.541" id="Fill-1108" fill="#546A79" sketch:type="MSShapeGroup"></path>
            <path d="M34.613,31.111 C34.081,32.525 33.034,33.683 31.696,34.357 C35.314,40.377 41.584,43.099 51.24,42.48 C53.604,38.587 54.972,34.023 54.998,29.142 C51.698,30.772 44.752,37.502 34.613,31.111" id="Fill-1109" fill="#546A79" sketch:type="MSShapeGroup"></path>
            <path d="M23.387,26.893 C23.919,25.478 24.966,24.321 26.304,23.646 C22.686,17.627 16.416,14.905 6.76,15.523 C4.396,19.416 3.028,23.98 3.002,28.862 C6.302,27.231 13.248,20.502 23.387,26.893" id="Fill-1110" fill="#546A79" sketch:type="MSShapeGroup"></path>
            <path d="M34.461,26.524 C35.084,27.9 35.162,29.46 34.693,30.882 C41.508,32.58 47.866,30.072 54.257,22.807 C53.176,18.382 50.916,14.187 47.482,10.717 C46.302,14.204 46.149,23.874 34.461,26.524" id="Fill-1111" fill="#546A79" sketch:type="MSShapeGroup"></path>
            <path d="M23.539,31.479 C22.916,30.103 22.838,28.544 23.307,27.121 C16.492,25.423 10.134,27.932 3.744,35.197 C4.824,39.622 7.084,43.816 10.518,47.286 C11.698,43.8 11.851,34.13 23.539,31.479" id="Fill-1112" fill="#546A79" sketch:type="MSShapeGroup"></path>
        </g>
    </g>
</svg>