<?xml version="1.0" encoding="UTF-8" standalone="no"?>
<svg width="59px" height="59px" viewBox="0 0 59 59" version="1.1" xmlns="http://www.w3.org/2000/svg" xmlns:xlink="http://www.w3.org/1999/xlink" xmlns:sketch="http://www.bohemiancoding.com/sketch/ns">
    <!-- Generator: Sketch 3.2.2 (9983) - http://www.bohemiancoding.com/sketch -->
    <title>12 - Copy Machine (Flat)</title>
    <desc>Created with Sketch.</desc>
    <defs></defs>
    <g id="Page-1" stroke="none" stroke-width="1" fill="none" fill-rule="evenodd" sketch:type="MSPage">
        <g id="12---Copy-Machine-(Flat)" sketch:type="MSLayerGroup" transform="translate(1.000000, 1.000000)">
            <path d="M8,22 L0,19 M8,34 L0,31" id="Stroke-3" stroke="#283238" stroke-width="2" stroke-linecap="round" sketch:type="MSShapeGroup"></path>
            <path d="M18,11 L48,11 L48,25 L18,25 L18,11 Z" id="Fill-4" fill="#CBD4D8" sketch:type="MSShapeGroup"></path>
            <path d="M8,11 L18,11 L18,58 L8,58 L8,11 Z" id="Fill-857" fill="#546A79" sketch:type="MSShapeGroup"></path>
            <path d="M18,47 L48,47 L48,58 L18,58 L18,47 Z" id="Fill-858" fill="#E8EDEE" sketch:type="MSShapeGroup"></path>
            <path d="M18,36 L48,36 L48,47 L18,47 L18,36 Z" id="Fill-859" fill="#FFFFFF" sketch:type="MSShapeGroup"></path>
            <path d="M18,25 L48,25 L48,36 L18,36 L18,25 Z" id="Fill-860" fill="#E8EDEE" sketch:type="MSShapeGroup"></path>
            <path d="M23,3 L23,0 M34,3 L34,0" id="Stroke-861" stroke="#38454F" stroke-width="2" stroke-linecap="round" sketch:type="MSShapeGroup"></path>
            <path d="M48,23 L58,23 L58,58 L48,58 L48,23 Z" id="Fill-862" fill="#B0B6BB" sketch:type="MSShapeGroup"></path>
            <path d="M48,14 L58,14 L58,18 L48,18 L48,14 Z" id="Fill-863" fill="#546A79" sketch:type="MSShapeGroup"></path>
            <path d="M37,40 L29,40 C28.447,40 28,39.553 28,39 C28,38.447 28.447,38 29,38 L37,38 C37.553,38 38,38.447 38,39 C38,39.553 37.553,40 37,40" id="Fill-864" fill="#B0B6BB" sketch:type="MSShapeGroup"></path>
            <path d="M37,51 L29,51 C28.447,51 28,50.553 28,50 C28,49.447 28.447,49 29,49 L37,49 C37.553,49 38,49.447 38,50 C38,50.553 37.553,51 37,51" id="Fill-865" fill="#B0B6BB" sketch:type="MSShapeGroup"></path>
            <path d="M23,0 L34,0" id="Stroke-866" stroke="#38454F" stroke-width="2" stroke-linecap="round" sketch:type="MSShapeGroup"></path>
            <path d="M20,14 L29,14 L29,20 L20,20 L20,14 Z" id="Fill-867" fill="#199172" sketch:type="MSShapeGroup"></path>
            <path d="M34,16 L33,16 C32.447,16 32,15.553 32,15 C32,14.447 32.447,14 33,14 L34,14 C34.553,14 35,14.447 35,15 C35,15.553 34.553,16 34,16" id="Fill-868" fill="#E8EDEE" sketch:type="MSShapeGroup"></path>
            <path d="M34,20 L33,20 C32.447,20 32,19.553 32,19 C32,18.447 32.447,18 33,18 L34,18 C34.553,18 35,18.447 35,19 C35,19.553 34.553,20 34,20" id="Fill-869" fill="#E8EDEE" sketch:type="MSShapeGroup"></path>
            <path d="M38,16 L37,16 C36.447,16 36,15.553 36,15 C36,14.447 36.447,14 37,14 L38,14 C38.553,14 39,14.447 39,15 C39,15.553 38.553,16 38,16" id="Fill-870" fill="#E8EDEE" sketch:type="MSShapeGroup"></path>
            <path d="M38,20 L37,20 C36.447,20 36,19.553 36,19 C36,18.447 36.447,18 37,18 L38,18 C38.553,18 39,18.447 39,19 C39,19.553 38.553,20 38,20" id="Fill-871" fill="#E8EDEE" sketch:type="MSShapeGroup"></path>
            <path d="M42,16 L41,16 C40.447,16 40,15.553 40,15 C40,14.447 40.447,14 41,14 L42,14 C42.553,14 43,14.447 43,15 C43,15.553 42.553,16 42,16" id="Fill-872" fill="#E8EDEE" sketch:type="MSShapeGroup"></path>
            <path d="M42,20 L41,20 C40.447,20 40,19.553 40,19 C40,18.447 40.447,18 41,18 L42,18 C42.553,18 43,18.447 43,19 C43,19.553 42.553,20 42,20" id="Fill-873" fill="#E8EDEE" sketch:type="MSShapeGroup"></path>
            <path d="M35.678,29 L30.322,29 C29.592,29 29,28.408 29,27.678 L29,25 L37,25 L37,27.678 C37,28.408 36.408,29 35.678,29" id="Fill-874" fill="#B0B6BB" sketch:type="MSShapeGroup"></path>
            <path d="M18,3 L48,3 L48,6 L18,6 L18,3 Z" id="Fill-1971" fill="#546A79" sketch:type="MSShapeGroup"></path>
            <path d="M18,8 L48,8 L48,11 L18,11 L18,8 Z" id="Fill-1972" fill="#546A79" sketch:type="MSShapeGroup"></path>
            <path d="M18,8 L48,8 L48,6 L18,6 L18,8 Z" id="Fill-1973" fill="#38454F" sketch:type="MSShapeGroup"></path>
        </g>
    </g>
</svg>