<?xml version="1.0" encoding="UTF-8" standalone="no"?>
<svg width="48px" height="58px" viewBox="0 0 48 58" version="1.1" xmlns="http://www.w3.org/2000/svg" xmlns:xlink="http://www.w3.org/1999/xlink" xmlns:sketch="http://www.bohemiancoding.com/sketch/ns">
    <!-- Generator: Sketch 3.2.2 (9983) - http://www.bohemiancoding.com/sketch -->
    <title>83 - Earbuds Headphones (Flat)</title>
    <desc>Created with Sketch.</desc>
    <defs></defs>
    <g id="Page-1" stroke="none" stroke-width="1" fill="none" fill-rule="evenodd" sketch:type="MSPage">
        <g id="83---Earbuds-Headphones-(Flat)" sketch:type="MSLayerGroup">
            <path d="M33,45 C33,51.627 27.627,57 21,57 C14.373,57 9,51.627 9,45 C9,38.373 14.373,33 21,33 C27.627,33 33,38.373 33,45 L33,45 Z M36,42 C36,50.284 29.284,57 21,57 C12.716,57 6,50.284 6,42 C6,33.716 12.716,27 21,27 C29.284,27 36,33.716 36,42 L36,42 Z M1,24 C1,15.709 7.709,9 16,9" id="Stroke-269" stroke="#B12621" stroke-width="2" sketch:type="MSShapeGroup"></path>
            <path d="M0,0 L4,0 L4,7 L0,7 L0,0 Z" id="Fill-270" fill="#B0B6BB" sketch:type="MSShapeGroup"></path>
            <path d="M6.5,6 L4,6 L4,1 L6.5,1 C7.881,1 9,2.119 9,3.5 C9,4.881 7.881,6 6.5,6" id="Fill-271" fill="#38454F" sketch:type="MSShapeGroup"></path>
            <path d="M15,7 L22,7 L22,11 L15,11 L15,7 Z" id="Fill-272" fill="#B0B6BB" sketch:type="MSShapeGroup"></path>
            <path d="M16,13.5 L16,11 L21,11 L21,13.5 C21,14.881 19.881,16 18.5,16 C17.119,16 16,14.881 16,13.5" id="Fill-273" fill="#38454F" sketch:type="MSShapeGroup"></path>
            <path d="M1,7 L1,38 L1,37 C1,48.055 9.945,57 21,57 C34.266,57 45,46.266 45,33 L45,26 L45,27 L45,20" id="Stroke-274" stroke="#B12621" stroke-width="2" sketch:type="MSShapeGroup"></path>
            <path d="M42,8 L48,8 L48,15 L42,15 L42,8 Z" id="Fill-275" fill="#38454F" sketch:type="MSShapeGroup"></path>
            <path d="M43,15 L47,15 L47,20 L43,20 L43,15 Z" id="Fill-276" fill="#283238" sketch:type="MSShapeGroup"></path>
            <path d="M47,8 L43,8 L43,3 C43,1.895 43.895,1 45,1 C46.105,1 47,1.895 47,3 L47,8" id="Fill-277" fill="#EEAF4B" sketch:type="MSShapeGroup"></path>
        </g>
    </g>
</svg>