<?xml version="1.0" encoding="UTF-8" standalone="no"?>
<svg width="55px" height="52px" viewBox="0 0 55 52" version="1.1" xmlns="http://www.w3.org/2000/svg" xmlns:xlink="http://www.w3.org/1999/xlink" xmlns:sketch="http://www.bohemiancoding.com/sketch/ns">
    <!-- Generator: Sketch 3.2.2 (9983) - http://www.bohemiancoding.com/sketch -->
    <title>89 - Ethernet Cable (Flat)</title>
    <desc>Created with Sketch.</desc>
    <defs></defs>
    <g id="Page-1" stroke="none" stroke-width="1" fill="none" fill-rule="evenodd" sketch:type="MSPage">
        <g id="89---Ethernet-Cable-(Flat)" sketch:type="MSLayerGroup">
            <path d="M38,39 C38,45.627 32.627,51 26,51 C19.373,51 14,45.627 14,39 C14,32.373 19.373,27 26,27 C32.627,27 38,32.373 38,39 L38,39 Z M6,15 L6,32.514 L6,31.541 C6,42.297 14.703,51 25.459,51 C38.367,51 49,43.556 49,30.649 L49,26 M41,36 C41,44.284 34.284,51 26,51 C17.716,51 11,44.284 11,36 C11,27.716 17.716,21 26,21 C34.284,21 41,27.716 41,36 L41,36 Z" id="Stroke-197" stroke="#B0B6BB" stroke-width="2" sketch:type="MSShapeGroup"></path>
            <path d="M11,7 L11,0 L1,0 L1,7 L0,7 L0,12.206 C0,12.644 0.356,13 0.794,13 L4,13 L4,11 L8,11 L8,13 L11.206,13 C11.644,13 12,12.644 12,12.206 L12,7 L11,7" id="Fill-199" fill="#E8EDEE" sketch:type="MSShapeGroup"></path>
            <path d="M6,17 C4.346,17 3,15.654 3,14 L3,10 L9,10 L9,14 C9,15.654 7.654,17 6,17 L6,17 Z M5,12 L5,14 C5,14.552 5.449,15 6,15 C6.551,15 7,14.552 7,14 L7,12 L5,12 L5,12 Z" id="Fill-200" fill="#B0B6BB" sketch:type="MSShapeGroup"></path>
            <path d="M6,17 C4.346,17 3,15.654 3,14 L3,10 L9,10 L9,14 C9,15.654 7.654,17 6,17 L6,17 Z M5,12 L5,14 C5,14.552 5.449,15 6,15 C6.551,15 7,14.552 7,14 L7,12 L5,12 L5,12 Z" id="Fill-201" fill="#B0B6BB" sketch:type="MSShapeGroup"></path>
            <path d="M6,17 C4.346,17 3,15.654 3,14 L3,10 L9,10 L9,14 C9,15.654 7.654,17 6,17 L6,17 Z M5,12 L5,14 C5,14.552 5.449,15 6,15 C6.551,15 7,14.552 7,14 L7,12 L5,12 L5,12 Z" id="Fill-202" fill="#B0B6BB" sketch:type="MSShapeGroup"></path>
            <path d="M3,10 L3,14 C3,15.654 4.346,17 6,17 C7.654,17 9,15.654 9,14 L9,10 L3,10" id="Fill-203" fill="#B0B6BB" sketch:type="MSShapeGroup"></path>
            <path d="M3,0 L5,0 L5,3 L3,3 L3,0 Z" id="Fill-208" fill="#B0B6BB" sketch:type="MSShapeGroup"></path>
            <path d="M7,0 L9,0 L9,3 L7,3 L7,0 Z" id="Fill-209" fill="#B0B6BB" sketch:type="MSShapeGroup"></path>
            <path d="M3,4 L9,4 L9,6 L3,6 L3,4 Z" id="Fill-210" fill="#B0B6BB" sketch:type="MSShapeGroup"></path>
            <path d="M54,17 L54,10 L44,10 L44,17 L43,17 L43,22.206 C43,22.644 43.356,23 43.794,23 L47,23 L47,21 L51,21 L51,23 L54.206,23 C54.644,23 55,22.644 55,22.206 L55,17 L54,17" id="Fill-211" fill="#E8EDEE" sketch:type="MSShapeGroup"></path>
            <path d="M46,10 L48,10 L48,13 L46,13 L46,10 Z" id="Fill-212" fill="#B0B6BB" sketch:type="MSShapeGroup"></path>
            <path d="M50,10 L52,10 L52,13 L50,13 L50,10 Z" id="Fill-213" fill="#B0B6BB" sketch:type="MSShapeGroup"></path>
            <path d="M46,14 L52,14 L52,16 L46,16 L46,14 Z" id="Fill-214" fill="#B0B6BB" sketch:type="MSShapeGroup"></path>
            <path d="M46,21 L46,25 C46,26.654 47.346,28 49,28 C50.654,28 52,26.654 52,25 L52,21 L46,21" id="Fill-1795" fill="#B0B6BB" sketch:type="MSShapeGroup"></path>
        </g>
    </g>
</svg>