<?xml version="1.0" encoding="UTF-8" standalone="no"?>
<svg width="58px" height="50px" viewBox="0 0 58 50" version="1.1" xmlns="http://www.w3.org/2000/svg" xmlns:xlink="http://www.w3.org/1999/xlink" xmlns:sketch="http://www.bohemiancoding.com/sketch/ns">
    <!-- Generator: Sketch 3.2.2 (9983) - http://www.bohemiancoding.com/sketch -->
    <title>48 - Fighting Game Controller (Flat)</title>
    <desc>Created with Sketch.</desc>
    <defs></defs>
    <g id="Page-1" stroke="none" stroke-width="1" fill="none" fill-rule="evenodd" sketch:type="MSPage">
        <g id="48---Fighting-Game-Controller-(Flat)" sketch:type="MSLayerGroup">
            <path d="M13.5,17 C12.63,17 11.791,16.868 11,16.625 L11,28 L16,28 L16,16.625 C15.209,16.868 14.37,17 13.5,17" id="Fill-315" fill="#CBD4D8" sketch:type="MSShapeGroup"></path>
            <path d="M35,28 L27,28 L27,25.825 C27,24.817 27.817,24 28.824,24 L33.175,24 C34.183,24 35,24.817 35,25.825 L35,28" id="Fill-316" fill="#DD342E" sketch:type="MSShapeGroup"></path>
            <path d="M48,28 L40,28 L40,25.825 C40,24.817 40.817,24 41.824,24 L46.176,24 C47.183,24 48,24.817 48,25.825 L48,28" id="Fill-317" fill="#ECBA16" sketch:type="MSShapeGroup"></path>
            <path d="M0,34 L58,34 L58,42 L0,42 L0,34 Z" id="Fill-318" fill="#283238" sketch:type="MSShapeGroup"></path>
            <path d="M56,34 C55.742,30.657 52.932,28 49.526,28 L8.474,28 C5.068,28 2.258,30.657 2,34 L56,34" id="Fill-319" fill="#38454F" sketch:type="MSShapeGroup"></path>
            <path d="M10,40 L10,44 L10,43 C10,45.211 11.789,47 14,47 L24,47 C25.658,47 27,48.342 27,50" id="Stroke-345" stroke="#546A79" stroke-width="2" sketch:type="MSShapeGroup"></path>
            <path d="M22,8.5 C22,13.195 18.194,17 13.5,17 C8.806,17 5,13.195 5,8.5 C5,3.806 8.806,0 13.5,0 C18.194,0 22,3.806 22,8.5" id="Fill-1858" fill="#DD342E" sketch:type="MSShapeGroup"></path>
            <path d="M9,10 C8.448,10 8,9.553 8,9 C8,5.692 10.691,3 14,3 C14.552,3 15,3.447 15,4 C15,4.553 14.552,5 14,5 C11.794,5 10,6.794 10,9 C10,9.553 9.552,10 9,10" id="Fill-1859" fill="#ED7161" sketch:type="MSShapeGroup"></path>
        </g>
    </g>
</svg>