<?xml version="1.0" encoding="UTF-8" standalone="no"?>
<svg width="54px" height="59px" viewBox="0 0 54 59" version="1.1" xmlns="http://www.w3.org/2000/svg" xmlns:xlink="http://www.w3.org/1999/xlink" xmlns:sketch="http://www.bohemiancoding.com/sketch/ns">
    <!-- Generator: Sketch 3.2.2 (9983) - http://www.bohemiancoding.com/sketch -->
    <title>26 - Film Camera (Flat)</title>
    <desc>Created with Sketch.</desc>
    <defs></defs>
    <g id="Page-1" stroke="none" stroke-width="1" fill="none" fill-rule="evenodd" sketch:type="MSPage">
        <g id="26---Film-Camera-(Flat)" sketch:type="MSLayerGroup">
            <path d="M52,21 L39,21 L39,18 L15,18 L15,21 L2,21 L2,53 L15,53 L15,57 L39,57 L39,53 L52,53 L52,21" id="Fill-50" fill="#38454F" sketch:type="MSShapeGroup"></path>
            <path d="M43,38 C43,46.837 35.837,54 27,54 C18.163,54 11,46.837 11,38 C11,29.163 18.163,22 27,22 C35.837,22 43,29.163 43,38 L43,38 Z" id="Fill-598" fill="#50508A" sketch:type="MSShapeGroup"></path>
            <path d="M43,38 C43,46.837 35.837,54 27,54 C18.163,54 11,46.837 11,38 C11,29.163 18.163,22 27,22 C35.837,22 43,29.163 43,38 L43,38 Z" id="Stroke-599" stroke="#283238" stroke-width="4" stroke-linecap="round" sketch:type="MSShapeGroup"></path>
            <path d="M7,38 C7,32.155 9.516,26.907 13.518,23.255 C14.394,22.456 13.822,21 12.637,21 L1.961,21 C0.878,21 0,21.878 0,22.961 L0,51.039 C0,52.122 0.878,53 1.961,53 L10.71,53 C11.831,53 12.409,51.696 11.687,50.838 C8.766,47.366 7,42.893 7,38" id="Fill-600" fill="#546A79" sketch:type="MSShapeGroup"></path>
            <path d="M41.363,21 C40.178,21 39.607,22.456 40.482,23.255 C44.484,26.907 47,32.155 47,38 C47,42.893 45.234,47.366 42.312,50.838 C41.591,51.696 42.169,53 43.29,53 L52.039,53 C53.122,53 54,52.122 54,51.039 L54,22.961 C54,21.878 53.122,21 52.039,21 L41.363,21" id="Fill-601" fill="#546A79" sketch:type="MSShapeGroup"></path>
            <path d="M35,38 C35,42.418 31.418,46 27,46 C22.582,46 19,42.418 19,38 C19,33.582 22.582,30 27,30 C31.418,30 35,33.582 35,38 L35,38 Z" id="Fill-602" fill="#434C6D" sketch:type="MSShapeGroup"></path>
            <path d="M35,38 C35,42.418 31.418,46 27,46 C22.582,46 19,42.418 19,38 C19,33.582 22.582,30 27,30 C31.418,30 35,33.582 35,38 L35,38 Z" id="Stroke-603" stroke="#7383BF" stroke-width="2" stroke-linecap="round" sketch:type="MSShapeGroup"></path>
            <path d="M3,16 L11,16 L11,21 L3,21 L3,16 Z" id="Fill-604" fill="#283238" sketch:type="MSShapeGroup"></path>
            <path d="M39,53 C38.448,53 38,53.447 38,54 L38,57 L16,57 L16,54 C16,53.447 15.552,53 15,53 C14.448,53 14,53.447 14,54 L14,58 C14,58.553 14.448,59 15,59 L39,59 C39.552,59 40,58.553 40,58 L40,54 C40,53.447 39.552,53 39,53" id="Fill-605" fill="#B0B6BB" sketch:type="MSShapeGroup"></path>
            <path d="M34,7 C34,10.866 30.866,14 27,14 C23.134,14 20,10.866 20,7 C20,3.134 23.134,0 27,0 C30.866,0 34,3.134 34,7" id="Fill-875" fill="#38454F" sketch:type="MSShapeGroup"></path>
            <path d="M27,14 C26.305,14 25.634,13.895 25,13.706 L25,18 L29,18 L29,13.706 C28.366,13.895 27.695,14 27,14" id="Fill-876" fill="#546A79" sketch:type="MSShapeGroup"></path>
            <path d="M30,7 C30,8.657 28.657,10 27,10 C25.343,10 24,8.657 24,7 C24,5.343 25.343,4 27,4 C28.657,4 30,5.343 30,7" id="Fill-877" fill="#546A79" sketch:type="MSShapeGroup"></path>
            <path d="M39,16 L15,16 C14.448,16 14,16.447 14,17 L14,20 C14,20.553 14.448,21 15,21 C15.552,21 16,20.553 16,20 L16,18 L38,18 L38,20 C38,20.553 38.448,21 39,21 C39.552,21 40,20.553 40,20 L40,17 C40,16.447 39.552,16 39,16" id="Fill-1916" fill="#B0B6BB" sketch:type="MSShapeGroup"></path>
            <path d="M44,18 L51,18 L51,21 L44,21 L44,18 Z" id="Fill-1917" fill="#283238" sketch:type="MSShapeGroup"></path>
            <path d="M30,36 C30,37.657 28.657,39 27,39 C25.343,39 24,37.657 24,36 C24,34.343 25.343,33 27,33 C28.657,33 30,34.343 30,36" id="Fill-1918" fill="#71C3AA" sketch:type="MSShapeGroup"></path>
            <path d="M29,47 C29,48.105 28.105,49 27,49 C25.895,49 25,48.105 25,47 C25,45.895 25.895,45 27,45 C28.105,45 29,45.895 29,47" id="Fill-1919" fill="#D75D72" sketch:type="MSShapeGroup"></path>
        </g>
    </g>
</svg>