<?xml version="1.0" encoding="UTF-8" standalone="no"?>
<svg width="32px" height="59px" viewBox="0 0 32 59" version="1.1" xmlns="http://www.w3.org/2000/svg" xmlns:xlink="http://www.w3.org/1999/xlink" xmlns:sketch="http://www.bohemiancoding.com/sketch/ns">
    <!-- Generator: Sketch 3.2.2 (9983) - http://www.bohemiancoding.com/sketch -->
    <title>75 - Gaming Mouse (Flat)</title>
    <desc>Created with Sketch.</desc>
    <defs></defs>
    <g id="Page-1" stroke="none" stroke-width="1" fill="none" fill-rule="evenodd" sketch:type="MSPage">
        <g id="75---Gaming-Mouse-(Flat)" sketch:type="MSLayerGroup" transform="translate(0.000000, 1.000000)">
            <path id="Stroke-844" stroke="#0F81E0" stroke-width="2" stroke-linecap="round" stroke-linejoin="round" sketch:type="MSShapeGroup"></path>
            <path d="M32,5.266 L19,3 L19,22 L29.057,22 C29.307,16.349 32,5.266 32,5.266" id="Fill-909" fill="#546A79" sketch:type="MSShapeGroup"></path>
            <path d="M0,5.266 C0,5.266 2.693,16.349 2.943,22 L13,22 L13,3 L0,5.266" id="Fill-910" fill="#546A79" sketch:type="MSShapeGroup"></path>
            <path d="M29,25.5 C29,24.655 29.02,22.821 29.057,22 L2.943,22 C2.98,22.821 3,24.655 3,25.5 C3,29.942 2.485,32.63 1.596,35.15 C0.514,38.215 -0.003,41.457 0.255,44.698 C0.302,45.285 0.355,45.756 0.414,46.001 C2.064,52.855 8.442,58 16,58 C23.559,58 29.937,52.854 31.586,46 C31.645,45.754 31.698,45.283 31.745,44.697 C32.003,41.457 31.486,38.215 30.404,35.15 C29.515,32.63 29,29.942 29,25.5" id="Fill-911" fill="#38454F" sketch:type="MSShapeGroup"></path>
            <path d="M13,11 L19,11 L19,12 L13,12 L13,11 Z" id="Fill-912" fill="#38454F" sketch:type="MSShapeGroup"></path>
            <path d="M13,7 L19,7 L19,9 L13,9 L13,7 Z" id="Fill-913" fill="#38454F" sketch:type="MSShapeGroup"></path>
            <path d="M13,14 L19,14 L19,15 L13,15 L13,14 Z" id="Fill-914" fill="#38454F" sketch:type="MSShapeGroup"></path>
            <path d="M13,17 L19,17 L19,22.673 L13,22.673 L13,17 Z" id="Fill-915" fill="#38454F" sketch:type="MSShapeGroup"></path>
            <path d="M13,9 L19,9 L19,11 L13,11 L13,9 Z" id="Fill-916" fill="#6C797A" sketch:type="MSShapeGroup"></path>
            <path d="M13,12 L19,12 L19,14 L13,14 L13,12 Z" id="Fill-917" fill="#6C797A" sketch:type="MSShapeGroup"></path>
            <path d="M13,15 L19,15 L19,17 L13,17 L13,15 Z" id="Fill-918" fill="#6C797A" sketch:type="MSShapeGroup"></path>
            <path d="M16,7 L16,0" id="Stroke-919" stroke="#38454F" stroke-width="2" stroke-linecap="round" stroke-linejoin="round" sketch:type="MSShapeGroup"></path>
            <path d="M16,29 C15.447,29 15,28.553 15,28 L15,22 C15,21.447 15.447,21 16,21 C16.553,21 17,21.447 17,22 L17,28 C17,28.553 16.553,29 16,29" id="Fill-920" fill="#546A79" sketch:type="MSShapeGroup"></path>
            <path d="M12,47 C12,49.209 13.791,51 16,51 C18.209,51 20,49.209 20,47 C20,44.791 18.209,43 16,43 C13.791,43 12,44.791 12,47" id="Fill-1353" fill="#42B05C" sketch:type="MSShapeGroup"></path>
        </g>
    </g>
</svg>