<?xml version="1.0" encoding="UTF-8" standalone="no"?>
<svg width="32px" height="58px" viewBox="0 0 32 58" version="1.1" xmlns="http://www.w3.org/2000/svg" xmlns:xlink="http://www.w3.org/1999/xlink" xmlns:sketch="http://www.bohemiancoding.com/sketch/ns">
    <!-- Generator: Sketch 3.2.2 (9983) - http://www.bohemiancoding.com/sketch -->
    <title>14 - Gear 2 (Flat)</title>
    <desc>Created with Sketch.</desc>
    <defs></defs>
    <g id="Page-1" stroke="none" stroke-width="1" fill="none" fill-rule="evenodd" sketch:type="MSPage">
        <g id="14---Gear-2-(Flat)" sketch:type="MSLayerGroup">
            <path d="M27,7 L5,7 L0.788,13.425 C0.27,14.461 0,15.603 0,16.761 L0,41.239 C0,42.397 0.27,43.539 0.788,44.575 L5,51 L27,51 L31.212,44.575 C31.73,43.539 32,42.397 32,41.239 L32,16.761 C32,15.603 31.73,14.461 31.212,13.425 L27,7" id="Fill-787" fill="#CBD4D8" sketch:type="MSShapeGroup"></path>
            <path d="M25.579,41 L6.421,41 C5.084,41 4,39.916 4,38.579 L4,17.421 C4,16.084 5.084,15 6.421,15 L25.579,15 C26.916,15 28,16.084 28,17.421 L28,38.579 C28,39.916 26.916,41 25.579,41" id="Fill-788" fill="#283238" sketch:type="MSShapeGroup"></path>
            <path d="M17.455,48 L14.545,48 C14.244,48 14,47.756 14,47.455 L14,44.545 C14,44.244 14.244,44 14.545,44 L17.455,44 C17.756,44 18,44.244 18,44.545 L18,47.455 C18,47.756 17.756,48 17.455,48" id="Fill-789" fill="#839494" sketch:type="MSShapeGroup"></path>
            <path d="M5,0 L27,0 L27,7 L5,7 L5,0 Z" id="Fill-790" fill="#283238" sketch:type="MSShapeGroup"></path>
            <path d="M5,51 L27,51 L27,58 L5,58 L5,51 Z" id="Fill-791" fill="#283238" sketch:type="MSShapeGroup"></path>
            <path d="M8,24 C8.256,24 8.512,23.902 8.707,23.707 L12.707,19.707 C13.098,19.316 13.098,18.684 12.707,18.293 C12.316,17.902 11.684,17.902 11.293,18.293 L7.293,22.293 C6.902,22.684 6.902,23.317 7.293,23.707 C7.488,23.902 7.744,24 8,24" id="Fill-793" fill="#38454F" sketch:type="MSShapeGroup"></path>
            <path d="M8,29 C8.256,29 8.512,28.902 8.707,28.707 L10.707,26.707 C11.098,26.317 11.098,25.684 10.707,25.293 C10.316,24.902 9.684,24.902 9.293,25.293 L7.293,27.293 C6.902,27.684 6.902,28.316 7.293,28.707 C7.488,28.902 7.744,29 8,29" id="Fill-794" fill="#38454F" sketch:type="MSShapeGroup"></path>
            <path d="M11.29,23.29 C11.109,23.48 11,23.73 11,24 C11,24.27 11.1,24.52 11.29,24.71 C11.479,24.899 11.74,25 12,25 C12.26,25 12.519,24.899 12.71,24.71 C12.89,24.52 13,24.26 13,24 C13,23.74 12.89,23.48 12.71,23.29 C12.33,22.92 11.68,22.91 11.29,23.29" id="Fill-795" fill="#38454F" sketch:type="MSShapeGroup"></path>
            <path d="M13.293,22.707 C13.488,22.902 13.744,23 14,23 C14.256,23 14.512,22.902 14.707,22.707 L17.707,19.707 C18.098,19.316 18.098,18.684 17.707,18.293 C17.316,17.902 16.684,17.902 16.293,18.293 L13.293,21.293 C12.902,21.684 12.902,22.316 13.293,22.707" id="Fill-796" fill="#38454F" sketch:type="MSShapeGroup"></path>
            <path d="M16.293,23.293 L7.293,32.293 C6.902,32.684 6.902,33.316 7.293,33.707 C7.488,33.902 7.744,34 8,34 C8.256,34 8.512,33.902 8.707,33.707 L17.707,24.707 C18.098,24.316 18.098,23.684 17.707,23.293 C17.316,22.902 16.684,22.902 16.293,23.293" id="Fill-797" fill="#38454F" sketch:type="MSShapeGroup"></path>
            <path d="M18.29,21.29 C18.109,21.48 18,21.74 18,22 C18,22.26 18.109,22.52 18.29,22.71 C18.479,22.89 18.74,23 19,23 C19.26,23 19.519,22.89 19.71,22.71 C19.89,22.52 20,22.26 20,22 C20,21.74 19.89,21.48 19.71,21.3 C19.34,20.92 18.66,20.92 18.29,21.29" id="Fill-798" fill="#38454F" sketch:type="MSShapeGroup"></path>
            <path d="M22.707,18.293 C22.316,17.902 21.684,17.902 21.293,18.293 L20.293,19.293 C19.902,19.684 19.902,20.317 20.293,20.707 C20.488,20.902 20.744,21 21,21 C21.256,21 21.512,20.902 21.707,20.707 L22.707,19.707 C23.098,19.316 23.098,18.684 22.707,18.293" id="Fill-799" fill="#38454F" sketch:type="MSShapeGroup"></path>
        </g>
    </g>
</svg>