<?xml version="1.0" encoding="UTF-8" standalone="no"?>
<svg width="58px" height="53px" viewBox="0 0 58 53" version="1.1" xmlns="http://www.w3.org/2000/svg" xmlns:xlink="http://www.w3.org/1999/xlink" xmlns:sketch="http://www.bohemiancoding.com/sketch/ns">
    <!-- Generator: Sketch 3.2.2 (9983) - http://www.bohemiancoding.com/sketch -->
    <title>92 - Graphic Tablet Intuos (Flat)</title>
    <desc>Created with Sketch.</desc>
    <defs></defs>
    <g id="Page-1" stroke="none" stroke-width="1" fill="none" fill-rule="evenodd" sketch:type="MSPage">
        <g id="92---Graphic-Tablet-Intuos-(Flat)" sketch:type="MSLayerGroup">
            <path d="M54.132,8 L44,8 L44,31.427 C44,31.744 43.744,32 43.427,32 L39.572,32 C39.256,32 39,31.744 39,31.427 L39,8 L3.868,8 C1.732,8 0,9.732 0,11.868 L0,49.132 C0,51.268 1.732,53 3.868,53 L54.132,53 C56.268,53 58,51.268 58,49.132 L58,11.868 C58,9.732 56.268,8 54.132,8" id="Fill-310" fill="#38454F" sketch:type="MSShapeGroup"></path>
            <path d="M54,29 L54,34" id="Stroke-1333" stroke="#000000" stroke-width="2" stroke-linecap="round" sketch:type="MSShapeGroup"></path>
            <path d="M8,20 L5,20 C4.447,20 4,19.552 4,19 C4,18.448 4.447,18 5,18 L8,18 C8.553,18 9,18.448 9,19 C9,19.552 8.553,20 8,20" id="Fill-1334" fill="#546A79" sketch:type="MSShapeGroup"></path>
            <path d="M8,24 L5,24 C4.447,24 4,23.552 4,23 C4,22.448 4.447,22 5,22 L8,22 C8.553,22 9,22.448 9,23 C9,23.552 8.553,24 8,24" id="Fill-1335" fill="#546A79" sketch:type="MSShapeGroup"></path>
            <path d="M8,39 L5,39 C4.447,39 4,38.552 4,38 C4,37.448 4.447,37 5,37 L8,37 C8.553,37 9,37.448 9,38 C9,38.552 8.553,39 8,39" id="Fill-1336" fill="#546A79" sketch:type="MSShapeGroup"></path>
            <path d="M8,43 L5,43 C4.447,43 4,42.552 4,42 C4,41.448 4.447,41 5,41 L8,41 C8.553,41 9,41.448 9,42 C9,42.552 8.553,43 8,43" id="Fill-1337" fill="#546A79" sketch:type="MSShapeGroup"></path>
            <path d="M10,30.5 C10,32.433 8.433,34 6.5,34 C4.567,34 3,32.433 3,30.5 C3,28.567 4.567,27 6.5,27 C8.433,27 10,28.567 10,30.5" id="Fill-1338" fill="#546A79" sketch:type="MSShapeGroup"></path>
            <path d="M8,30.5 C8,31.328 7.328,32 6.5,32 C5.672,32 5,31.328 5,30.5 C5,29.672 5.672,29 6.5,29 C7.328,29 8,29.672 8,30.5" id="Fill-1339" fill="#38454F" sketch:type="MSShapeGroup"></path>
            <path d="M44,15 L44,31.427 C44,31.744 43.744,32 43.427,32 L39.572,32 C39.256,32 39,31.744 39,31.427 L39,15 L13,15 L13,46 L50,46 L50,15 L44,15" id="Fill-1340" fill="#222B30" sketch:type="MSShapeGroup"></path>
            <path d="M40,5 L40,1.5 C40,0.675 40.675,0 41.5,0 C42.325,0 43,0.675 43,1.5 L43,5 L40,5" id="Fill-1784" fill="#38454F" sketch:type="MSShapeGroup"></path>
            <path d="M43.428,32 L39.572,32 C39.256,32 39,31.744 39,31.428 L39,5 L44,5 L44,31.428 C44,31.744 43.744,32 43.428,32" id="Fill-1785" fill="#546A79" sketch:type="MSShapeGroup"></path>
            <path d="M41,36 L42,36 L42,37.998 L41,37.998 L41,36 Z" id="Fill-1786" fill="#839494" sketch:type="MSShapeGroup"></path>
            <path d="M42,36 L41,36 L39.229,32.458 C39.124,32.248 39.277,32 39.512,32 L43.488,32 C43.723,32 43.876,32.248 43.771,32.458 L42,36" id="Fill-1787" fill="#38454F" sketch:type="MSShapeGroup"></path>
        </g>
    </g>
</svg>