<?xml version="1.0" encoding="UTF-8" standalone="no"?>
<svg width="58px" height="52px" viewBox="0 0 58 52" version="1.1" xmlns="http://www.w3.org/2000/svg" xmlns:xlink="http://www.w3.org/1999/xlink" xmlns:sketch="http://www.bohemiancoding.com/sketch/ns">
    <!-- Generator: Sketch 3.2.2 (9983) - http://www.bohemiancoding.com/sketch -->
    <title>91 - Graphic Tablet Bamboo (Flat)</title>
    <desc>Created with Sketch.</desc>
    <defs></defs>
    <g id="Page-1" stroke="none" stroke-width="1" fill="none" fill-rule="evenodd" sketch:type="MSPage">
        <g id="91---Graphic-Tablet-Bamboo-(Flat)" sketch:type="MSLayerGroup">
            <path d="M48,8 L48,29.428 C48,29.744 47.744,30 47.427,30 L43.573,30 C43.256,30 43,29.744 43,29.428 L43,8 L0,8 L0,52 L58,52 L58,8 L48,8" id="Fill-1000" fill="#38454F" sketch:type="MSShapeGroup"></path>
            <path d="M4,12 L9,12 L9,22 L4,22 L4,12 Z" id="Fill-1341" fill="#222B30" sketch:type="MSShapeGroup"></path>
            <path d="M12,12 L17,12 L17,47.881 L12,47.881 L12,12 Z" id="Fill-1342" fill="#222B30" sketch:type="MSShapeGroup"></path>
            <path d="M4,38 L9,38 L9,48 L4,48 L4,38 Z" id="Fill-1343" fill="#222B30" sketch:type="MSShapeGroup"></path>
            <path d="M4,25 L9,25 L9,35 L4,35 L4,25 Z" id="Fill-1344" fill="#222B30" sketch:type="MSShapeGroup"></path>
            <path d="M48,12 L48,29.428 C48,29.744 47.744,30 47.427,30 L43.573,30 C43.256,30 43,29.744 43,29.428 L43,12 L20,12 L20,48 L54,48 L54,12 L48,12" id="Fill-1345" fill="#222B30" sketch:type="MSShapeGroup"></path>
            <path d="M44,5 L44,1.5 C44,0.675 44.675,0 45.5,0 C46.325,0 47,0.675 47,1.5 L47,5 L44,5" id="Fill-1788" fill="#38454F" sketch:type="MSShapeGroup"></path>
            <path d="M47.428,32 L43.573,32 C43.256,32 43,31.744 43,31.428 L43,5 L48,5 L48,31.428 C48,31.744 47.744,32 47.428,32" id="Fill-1789" fill="#546A79" sketch:type="MSShapeGroup"></path>
            <path d="M45,36 L46,36 L46,37.998 L45,37.998 L45,36 Z" id="Fill-1790" fill="#839494" sketch:type="MSShapeGroup"></path>
            <path d="M46,36 L45,36 L43.229,32.458 C43.124,32.248 43.277,32 43.512,32 L47.488,32 C47.723,32 47.876,32.248 47.771,32.458 L46,36" id="Fill-1791" fill="#38454F" sketch:type="MSShapeGroup"></path>
        </g>
    </g>
</svg>