<?xml version="1.0" encoding="UTF-8" standalone="no"?>
<svg width="55px" height="53px" viewBox="0 0 55 53" version="1.1" xmlns="http://www.w3.org/2000/svg" xmlns:xlink="http://www.w3.org/1999/xlink" xmlns:sketch="http://www.bohemiancoding.com/sketch/ns">
    <!-- Generator: Sketch 3.2.2 (9983) - http://www.bohemiancoding.com/sketch -->
    <title>90 - HDMI Cable (Flat)</title>
    <desc>Created with Sketch.</desc>
    <defs></defs>
    <g id="Page-1" stroke="none" stroke-width="1" fill="none" fill-rule="evenodd" sketch:type="MSPage">
        <g id="90---HDMI-Cable-(Flat)" sketch:type="MSLayerGroup">
            <path d="M3,17 L9,17 L9,20 L3,20 L3,17 Z" id="Fill-204" fill="#546A79" sketch:type="MSShapeGroup"></path>
            <path d="M0,6 L12,6 L12,17 L0,17 L0,6 Z" id="Fill-205" fill="#38454F" sketch:type="MSShapeGroup"></path>
            <path d="M11,6 L1,6 L1,2.248 C1,1.007 2.006,0 3.248,0 L8.752,0 C9.994,0 11,1.007 11,2.248 L11,6" id="Fill-206" fill="#EEAF4B" sketch:type="MSShapeGroup"></path>
            <path d="M38,40 C38,46.627 32.627,52 26,52 C19.373,52 14,46.627 14,40 C14,33.373 19.373,28 26,28 C32.627,28 38,33.373 38,40 L38,40 Z M6,20 L6,33.514 L6,32.541 C6,43.297 14.703,52 25.46,52 C38.367,52 49,44.556 49,31.649 L49,27 M41,37 C41,45.284 34.284,52 26,52 C17.716,52 11,45.284 11,37 C11,28.716 17.716,22 26,22 C34.284,22 41,28.716 41,37 L41,37 Z" id="Stroke-207" stroke="#38454F" stroke-width="2" sketch:type="MSShapeGroup"></path>
            <path d="M46,25 L52,25 L52,28 L46,28 L46,25 Z" id="Fill-1792" fill="#546A79" sketch:type="MSShapeGroup"></path>
            <path d="M43,14 L55,14 L55,25 L43,25 L43,14 Z" id="Fill-1793" fill="#38454F" sketch:type="MSShapeGroup"></path>
            <path d="M54,14 L44,14 L44,10.248 C44,9.007 45.007,8 46.248,8 L51.752,8 C52.993,8 54,9.007 54,10.248 L54,14" id="Fill-1794" fill="#EEAF4B" sketch:type="MSShapeGroup"></path>
        </g>
    </g>
</svg>