<?xml version="1.0" encoding="UTF-8" standalone="no"?>
<svg width="58px" height="52px" viewBox="0 0 58 52" version="1.1" xmlns="http://www.w3.org/2000/svg" xmlns:xlink="http://www.w3.org/1999/xlink" xmlns:sketch="http://www.bohemiancoding.com/sketch/ns">
    <!-- Generator: Sketch 3.2.2 (9983) - http://www.bohemiancoding.com/sketch -->
    <title>29 - Headphones (Flat)</title>
    <desc>Created with Sketch.</desc>
    <defs></defs>
    <g id="Page-1" stroke="none" stroke-width="1" fill="none" fill-rule="evenodd" sketch:type="MSPage">
        <g id="29---Headphones-(Flat)" sketch:type="MSLayerGroup">
            <path d="M6,25 L10,25 L10,32 L6,32 L6,25 Z" id="Fill-575" fill="#CBD4D8" sketch:type="MSShapeGroup"></path>
            <path d="M48,25 L52,25 L52,32 L48,32 L48,25 Z" id="Fill-576" fill="#CBD4D8" sketch:type="MSShapeGroup"></path>
            <path d="M5,52 L5,52 C2.239,52 0,49.761 0,47 L0,37 C0,34.239 2.239,32 5,32 L5,52" id="Fill-577" fill="#839494" sketch:type="MSShapeGroup"></path>
            <path d="M53,52 L53,32 C55.761,32 58,34.239 58,37 L58,47 C58,49.761 55.761,52 53,52" id="Fill-578" fill="#839494" sketch:type="MSShapeGroup"></path>
            <path d="M11,41 C10.448,41 10,40.553 10,40 C10,39.447 10.448,39 11,39 L14,39 L14,37 L11,37 C10.448,37 10,36.553 10,36 C10,35.447 10.448,35 11,35 L13.916,35 C13.553,33.287 12.035,32 10.213,32 L5.483,32 C5.216,32 5,32.216 5,32.483 L5,51.71 C5,51.87 5.13,52 5.29,52 L10.514,52 C12.273,52 13.712,50.693 13.951,49 L11,49 C10.448,49 10,48.553 10,48 C10,47.447 10.448,47 11,47 L14,47 L14,45 L11,45 C10.448,45 10,44.553 10,44 C10,43.447 10.448,43 11,43 L14,43 L14,41 L11,41" id="Fill-579" fill="#E8EDEE" sketch:type="MSShapeGroup"></path>
            <path d="M10,36 C10,36.553 10.448,37 11,37 L14,37 L14,35.787 C14,35.517 13.97,35.254 13.916,35 L11,35 C10.448,35 10,35.447 10,36" id="Fill-580" fill="#839494" sketch:type="MSShapeGroup"></path>
            <path d="M10,40 C10,40.553 10.448,41 11,41 L14,41 L14,39 L11,39 C10.448,39 10,39.447 10,40" id="Fill-581" fill="#839494" sketch:type="MSShapeGroup"></path>
            <path d="M10,44 C10,44.553 10.448,45 11,45 L14,45 L14,43 L11,43 C10.448,43 10,43.447 10,44" id="Fill-582" fill="#839494" sketch:type="MSShapeGroup"></path>
            <path d="M10,48 C10,48.553 10.448,49 11,49 L13.951,49 C13.974,48.84 14,48.68 14,48.514 L14,47 L11,47 C10.448,47 10,47.447 10,48" id="Fill-583" fill="#839494" sketch:type="MSShapeGroup"></path>
            <path d="M52.669,32 L47.787,32 C45.965,32 44.447,33.287 44.084,35 L47,35 C47.552,35 48,35.447 48,36 C48,36.553 47.552,37 47,37 L44,37 L44,39 L47,39 C47.552,39 48,39.447 48,40 C48,40.553 47.552,41 47,41 L44,41 L44,43 L47,43 C47.552,43 48,43.447 48,44 C48,44.553 47.552,45 47,45 L44,45 L44,47 L47,47 C47.552,47 48,47.447 48,48 C48,48.553 47.552,49 47,49 L44.049,49 C44.288,50.693 45.727,52 47.486,52 L52.71,52 C52.87,52 53,51.87 53,51.71 L53,32.331 C53,32.148 52.852,32 52.669,32" id="Fill-584" fill="#E8EDEE" sketch:type="MSShapeGroup"></path>
            <path d="M48,36 C48,35.447 47.552,35 47,35 L44.084,35 C44.03,35.254 44,35.517 44,35.787 L44,37 L47,37 C47.552,37 48,36.553 48,36" id="Fill-585" fill="#839494" sketch:type="MSShapeGroup"></path>
            <path d="M48,40 C48,39.447 47.552,39 47,39 L44,39 L44,41 L47,41 C47.552,41 48,40.553 48,40" id="Fill-586" fill="#839494" sketch:type="MSShapeGroup"></path>
            <path d="M48,44 C48,43.447 47.552,43 47,43 L44,43 L44,45 L47,45 C47.552,45 48,44.553 48,44" id="Fill-587" fill="#839494" sketch:type="MSShapeGroup"></path>
            <path d="M48,48 C48,47.447 47.552,47 47,47 L44,47 L44,48.514 C44,48.68 44.026,48.84 44.049,49 L47,49 C47.552,49 48,48.553 48,48" id="Fill-588" fill="#839494" sketch:type="MSShapeGroup"></path>
            <path d="M43.483,11.495 C42.764,12.157 41.673,12.151 40.934,11.511 C38.307,9.236 32.514,8 29,8 C25.486,8 19.693,9.236 17.066,11.511 C16.327,12.151 15.236,12.157 14.517,11.495 L11.416,8.645 C10.598,7.894 10.581,6.59 11.404,5.844 C15.527,2.109 23.423,0 29,0 C34.577,0 42.473,2.109 46.596,5.844 C47.419,6.59 47.402,7.894 46.584,8.645 L43.483,11.495" id="Fill-589" fill="#CBD4D8" sketch:type="MSShapeGroup"></path>
            <path d="M14.517,11.495 L11.416,8.645 C11.158,8.408 10.989,8.114 10.892,7.802 C7.219,11.868 5,17.396 5,23.386 L5,25 L11,25 L11,23.386 C11,19.02 12.622,14.924 15.304,11.92 C15.02,11.844 14.748,11.708 14.517,11.495" id="Fill-590" fill="#E0E2E3" sketch:type="MSShapeGroup"></path>
            <path d="M46.949,8.169 C46.853,8.341 46.737,8.505 46.584,8.645 L43.483,11.495 C43.131,11.819 42.689,11.981 42.243,11.989 C45.147,14.987 47,19.051 47,23.386 L47,25 L53,25 L53,23.386 C53,17.574 50.676,12.198 46.949,8.169" id="Fill-591" fill="#E0E2E3" sketch:type="MSShapeGroup"></path>
        </g>
    </g>
</svg>