<?xml version="1.0" encoding="UTF-8" standalone="no"?>
<svg width="51px" height="51px" viewBox="0 0 51 51" version="1.1" xmlns="http://www.w3.org/2000/svg" xmlns:xlink="http://www.w3.org/1999/xlink" xmlns:sketch="http://www.bohemiancoding.com/sketch/ns">
    <!-- Generator: Sketch 3.2.2 (9983) - http://www.bohemiancoding.com/sketch -->
    <title>76 - Headphone Jack (Flat)</title>
    <desc>Created with Sketch.</desc>
    <defs></defs>
    <g id="Page-1" stroke="none" stroke-width="1" fill="none" fill-rule="evenodd" sketch:type="MSPage">
        <g id="76---Headphone-Jack-(Flat)" sketch:type="MSLayerGroup">
            <path d="M9.32,41.477 L9.32,41.477 C6.586,38.743 6.586,34.311 9.32,31.577 L25.583,15.314 L35.482,25.213 L19.219,41.477 C16.485,44.21 12.053,44.21 9.32,41.477" id="Fill-776" fill="#38454F" sketch:type="MSShapeGroup"></path>
            <path d="M9.32,41.477 C8.828,40.985 8.428,40.437 8.113,39.855 L0.586,47.382 C-0.195,48.163 -0.195,49.429 0.586,50.21 C1.367,50.991 2.633,50.991 3.414,50.21 L10.941,42.683 C10.359,42.368 9.811,41.969 9.32,41.477" id="Fill-777" fill="#546A79" sketch:type="MSShapeGroup"></path>
            <path d="M44.675,8.95 L46.089,7.536 C46.48,7.145 47.113,7.145 47.503,7.536 C47.894,7.926 48.527,7.926 48.918,7.536 L49.503,6.95 C50.98,5.473 51.22,3.074 49.889,1.463 C48.363,-0.385 45.622,-0.482 43.968,1.172 L43.261,1.879 C42.87,2.269 42.87,2.902 43.261,3.293 C43.651,3.683 43.651,4.317 43.261,4.707 L41.846,6.121 C41.456,6.512 40.823,6.512 40.432,6.121 C40.042,5.731 39.409,5.731 39.018,6.121 L27.704,17.435 L33.361,23.092 L44.675,11.778 C45.065,11.388 45.065,10.755 44.675,10.364 C44.284,9.974 44.284,9.34 44.675,8.95" id="Fill-778" fill="#D3AA6E" sketch:type="MSShapeGroup"></path>
            <path d="M41.14,15.314 L35.482,9.657 L36.896,8.243 L42.554,13.899 L41.14,15.314" id="Fill-779" fill="#38454F" sketch:type="MSShapeGroup"></path>
            <path d="M21.34,19.557 L31.24,29.456 L32.654,28.042 L22.754,18.143 L21.34,19.557" id="Fill-1825" fill="#546A79" sketch:type="MSShapeGroup"></path>
        </g>
    </g>
</svg>