<?xml version="1.0" encoding="UTF-8" standalone="no"?>
<svg width="58px" height="45px" viewBox="0 0 58 45" version="1.1" xmlns="http://www.w3.org/2000/svg" xmlns:xlink="http://www.w3.org/1999/xlink" xmlns:sketch="http://www.bohemiancoding.com/sketch/ns">
    <!-- Generator: Sketch 3.2.2 (9983) - http://www.bohemiancoding.com/sketch -->
    <title>108 - iBook (Flat)</title>
    <desc>Created with Sketch.</desc>
    <defs></defs>
    <g id="Page-1" stroke="none" stroke-width="1" fill="none" fill-rule="evenodd" sketch:type="MSPage">
        <g id="108---iBook-(Flat)" sketch:type="MSLayerGroup">
            <path d="M2,0 L56,0 L56,38 L2,38 L2,0 Z" id="Fill-182" fill="#E8EDEE" sketch:type="MSShapeGroup"></path>
            <path d="M10,38 L48,38 L48,40 L10,40 L10,38 Z" id="Fill-183" fill="#B0B6BB" sketch:type="MSShapeGroup"></path>
            <path d="M57.282,45 L0.718,45 C0.321,45 0,44.679 0,44.282 L0,40.718 C0,40.322 0.321,40 0.718,40 L57.282,40 C57.679,40 58,40.322 58,40.718 L58,44.282 C58,44.679 57.679,45 57.282,45" id="Fill-184" fill="#E8EDEE" sketch:type="MSShapeGroup"></path>
            <path d="M12,36 L7,36 C6.448,36 6,35.552 6,35 C6,34.448 6.448,34 7,34 L12,34 C12.552,34 13,34.448 13,35 C13,35.552 12.552,36 12,36" id="Fill-185" fill="#B0B6BB" sketch:type="MSShapeGroup"></path>
            <path d="M52,36 L51,36 C50.448,36 50,35.552 50,35 C50,34.448 50.448,34 51,34 L52,34 C52.552,34 53,34.448 53,35 C53,35.552 52.552,36 52,36" id="Fill-186" fill="#B0B6BB" sketch:type="MSShapeGroup"></path>
            <path d="M48,36 L47,36 C46.448,36 46,35.552 46,35 C46,34.448 46.448,34 47,34 L48,34 C48.552,34 49,34.448 49,35 C49,35.552 48.552,36 48,36" id="Fill-187" fill="#B0B6BB" sketch:type="MSShapeGroup"></path>
            <path d="M7,5 L51,5 L51,32 L7,32 L7,5 Z" id="Fill-1230" fill="#38454F" sketch:type="MSShapeGroup"></path>
            <path d="M11,15 C11.256,15 11.512,14.902 11.707,14.707 L15.707,10.707 C16.098,10.316 16.098,9.684 15.707,9.293 C15.316,8.902 14.684,8.902 14.293,9.293 L10.293,13.293 C9.902,13.684 9.902,14.316 10.293,14.707 C10.488,14.902 10.744,15 11,15" id="Fill-1231" fill="#546A79" sketch:type="MSShapeGroup"></path>
            <path d="M11,20 C11.256,20 11.512,19.902 11.707,19.707 L13.707,17.707 C14.098,17.316 14.098,16.684 13.707,16.293 C13.316,15.902 12.684,15.902 12.293,16.293 L10.293,18.293 C9.902,18.684 9.902,19.316 10.293,19.707 C10.488,19.902 10.744,20 11,20" id="Fill-1232" fill="#546A79" sketch:type="MSShapeGroup"></path>
            <path d="M14.29,14.29 C14.11,14.48 14,14.73 14,15 C14,15.27 14.11,15.52 14.29,15.71 C14.48,15.89 14.74,16 15,16 C15.26,16 15.52,15.89 15.71,15.71 C15.89,15.52 16,15.26 16,15 C16,14.74 15.89,14.48 15.71,14.29 C15.33,13.92 14.66,13.93 14.29,14.29" id="Fill-1233" fill="#546A79" sketch:type="MSShapeGroup"></path>
            <path d="M16.293,13.707 C16.488,13.902 16.744,14 17,14 C17.256,14 17.512,13.902 17.707,13.707 L20.707,10.707 C21.098,10.316 21.098,9.684 20.707,9.293 C20.316,8.902 19.684,8.902 19.293,9.293 L16.293,12.293 C15.902,12.684 15.902,13.316 16.293,13.707" id="Fill-1234" fill="#546A79" sketch:type="MSShapeGroup"></path>
            <path d="M19.293,14.293 L10.293,23.293 C9.902,23.684 9.902,24.316 10.293,24.707 C10.488,24.902 10.744,25 11,25 C11.256,25 11.512,24.902 11.707,24.707 L20.707,15.707 C21.098,15.316 21.098,14.684 20.707,14.293 C20.316,13.902 19.684,13.902 19.293,14.293" id="Fill-1235" fill="#546A79" sketch:type="MSShapeGroup"></path>
            <path d="M21.29,12.29 C21.11,12.48 21,12.74 21,13 C21,13.26 21.11,13.52 21.29,13.71 C21.48,13.89 21.73,14 22,14 C22.27,14 22.52,13.89 22.71,13.71 C22.89,13.52 23,13.26 23,13 C23,12.74 22.89,12.48 22.71,12.29 C22.34,11.92 21.66,11.92 21.29,12.29" id="Fill-1236" fill="#546A79" sketch:type="MSShapeGroup"></path>
            <path d="M25.707,9.293 C25.316,8.902 24.684,8.902 24.293,9.293 L23.293,10.293 C22.902,10.684 22.902,11.316 23.293,11.707 C23.488,11.902 23.744,12 24,12 C24.256,12 24.512,11.902 24.707,11.707 L25.707,10.707 C26.098,10.316 26.098,9.684 25.707,9.293" id="Fill-1237" fill="#546A79" sketch:type="MSShapeGroup"></path>
        </g>
    </g>
</svg>