<?xml version="1.0" encoding="UTF-8" standalone="no"?>
<svg width="58px" height="58px" viewBox="0 0 58 58" version="1.1" xmlns="http://www.w3.org/2000/svg" xmlns:xlink="http://www.w3.org/1999/xlink" xmlns:sketch="http://www.bohemiancoding.com/sketch/ns">
    <!-- Generator: Sketch 3.2.2 (9983) - http://www.bohemiancoding.com/sketch -->
    <title>98 - iMac OS (Flat)</title>
    <desc>Created with Sketch.</desc>
    <defs></defs>
    <g id="Page-1" stroke="none" stroke-width="1" fill="none" fill-rule="evenodd" sketch:type="MSPage">
        <g id="98---iMac-OS-(Flat)" sketch:type="MSLayerGroup">
            <path d="M39.773,55 L18.226,55 C18.002,55 17.915,54.693 18.102,54.563 L19.907,53.29 C21.854,51.917 22.775,49.399 22.207,47 L35.794,47 L35.794,47.002 C35.226,49.401 36.147,51.919 38.096,53.292 L39.899,54.563 C40.085,54.694 39.997,55 39.773,55" id="Fill-800" fill="#B0B6BB" sketch:type="MSShapeGroup"></path>
            <path d="M54.502,47 L3.498,47 C1.566,47 0,45.434 0,43.502 L0,3.499 C0,1.566 1.566,0 3.498,0 L54.502,0 C56.434,0 58,1.566 58,3.499 L58,43.502 C58,45.434 56.434,47 54.502,47" id="Fill-801" fill="#E8EDEE" sketch:type="MSShapeGroup"></path>
            <path d="M38.403,58 L19.597,58 C18.163,58 17,56.837 17,55.403 C17,55.181 17.181,55 17.403,55 L40.597,55 C40.819,55 41,55.181 41,55.403 C41,56.837 39.837,58 38.403,58" id="Fill-802" fill="#E8EDEE" sketch:type="MSShapeGroup"></path>
            <path d="M54.502,0 L3.498,0 C1.566,0 0,1.566 0,3.499 L0,39 L58,39 L58,3.499 C58,1.566 56.434,0 54.502,0" id="Fill-1774" fill="#366DB6" sketch:type="MSShapeGroup"></path>
            <path d="M20.962,32 L18.038,32 C17.465,32 17,31.535 17,30.962 L17,28.038 C17,27.465 17.465,27 18.038,27 L20.962,27 C21.535,27 22,27.465 22,28.038 L22,30.962 C22,31.535 21.535,32 20.962,32" id="Fill-1775" fill="#ECBA16" sketch:type="MSShapeGroup"></path>
            <path d="M29.962,32 L27.038,32 C26.465,32 26,31.535 26,30.962 L26,28.038 C26,27.465 26.465,27 27.038,27 L29.962,27 C30.535,27 31,27.465 31,28.038 L31,30.962 C31,31.535 30.535,32 29.962,32" id="Fill-1776" fill="#DD342E" sketch:type="MSShapeGroup"></path>
            <path d="M38.962,32 L36.038,32 C35.465,32 35,31.535 35,30.962 L35,28.038 C35,27.465 35.465,27 36.038,27 L38.962,27 C39.535,27 40,27.465 40,28.038 L40,30.962 C40,31.535 39.535,32 38.962,32" id="Fill-1777" fill="#DD691D" sketch:type="MSShapeGroup"></path>
            <path d="M47.962,32 L45.038,32 C44.465,32 44,31.535 44,30.962 L44,28.038 C44,27.465 44.465,27 45.038,27 L47.962,27 C48.535,27 49,27.465 49,28.038 L49,30.962 C49,31.535 48.535,32 47.962,32" id="Fill-1778" fill="#A4E869" sketch:type="MSShapeGroup"></path>
            <path d="M11.962,32 L9.038,32 C8.465,32 8,31.535 8,30.962 L8,28.038 C8,27.465 8.465,27 9.038,27 L11.962,27 C12.535,27 13,27.465 13,28.038 L13,30.962 C13,31.535 12.535,32 11.962,32" id="Fill-1779" fill="#D75D72" sketch:type="MSShapeGroup"></path>
            <path d="M41.707,18.293 L39.414,16 L40,16 C40.552,16 41,15.552 41,15 C41,14.448 40.552,14 40,14 L37,14 C36.448,14 36,14.448 36,15 L36,18 C36,18.552 36.448,19 37,19 C37.552,19 38,18.552 38,18 L38,17.414 L40.293,19.707 C40.488,19.902 40.744,20 41,20 C41.256,20 41.512,19.902 41.707,19.707 C42.098,19.316 42.098,18.684 41.707,18.293" id="Fill-1780" fill="#000000" sketch:type="MSShapeGroup"></path>
        </g>
    </g>
</svg>