<?xml version="1.0" encoding="UTF-8" standalone="no"?>
<svg width="58px" height="55px" viewBox="0 0 58 55" version="1.1" xmlns="http://www.w3.org/2000/svg" xmlns:xlink="http://www.w3.org/1999/xlink" xmlns:sketch="http://www.bohemiancoding.com/sketch/ns">
    <!-- Generator: Sketch 3.2.2 (9983) - http://www.bohemiancoding.com/sketch -->
    <title>111 - iMac (Flat)</title>
    <desc>Created with Sketch.</desc>
    <defs></defs>
    <g id="Page-1" stroke="none" stroke-width="1" fill="none" fill-rule="evenodd" sketch:type="MSPage">
        <g id="111---iMac-(Flat)" sketch:type="MSLayerGroup">
            <path d="M39.774,52 L18.226,52 C18.002,52 17.915,51.693 18.102,51.563 L19.907,50.29 C21.854,48.917 22.775,46.399 22.207,44 L35.794,44 L35.794,44.002 C35.226,46.401 36.147,48.919 38.095,50.292 L39.899,51.563 C40.085,51.694 39.997,52 39.774,52" id="Fill-157" fill="#B0B6BB" sketch:type="MSShapeGroup"></path>
            <path d="M54.502,44 L3.498,44 C1.566,44 0,42.434 0,40.502 L0,3.499 C0,1.566 1.566,0 3.498,0 L54.502,0 C56.434,0 58,1.566 58,3.499 L58,40.502 C58,42.434 56.434,44 54.502,44" id="Fill-158" fill="#E8EDEE" sketch:type="MSShapeGroup"></path>
            <path d="M58,35 L0,35 L0,3.499 C0,1.566 1.566,0 3.498,0 L54.502,0 C56.434,0 58,1.566 58,3.499 L58,35" id="Fill-159" fill="#38454F" sketch:type="MSShapeGroup"></path>
            <path d="M4,9 C4.256,9 4.512,8.902 4.707,8.707 L8.707,4.707 C9.098,4.316 9.098,3.684 8.707,3.293 C8.316,2.902 7.684,2.902 7.293,3.293 L3.293,7.293 C2.902,7.684 2.902,8.316 3.293,8.707 C3.488,8.902 3.744,9 4,9" id="Fill-160" fill="#839CAA" sketch:type="MSShapeGroup"></path>
            <path d="M4,14 C4.256,14 4.512,13.902 4.707,13.707 L6.707,11.707 C7.098,11.316 7.098,10.684 6.707,10.293 C6.316,9.902 5.684,9.902 5.293,10.293 L3.293,12.293 C2.902,12.684 2.902,13.316 3.293,13.707 C3.488,13.902 3.744,14 4,14" id="Fill-161" fill="#839CAA" sketch:type="MSShapeGroup"></path>
            <path d="M7.29,8.29 C7.109,8.48 7,8.74 7,9 C7,9.26 7.109,9.52 7.29,9.71 C7.479,9.89 7.729,10 8,10 C8.26,10 8.52,9.89 8.71,9.71 C8.89,9.52 9,9.26 9,9 C9,8.74 8.89,8.48 8.71,8.29 C8.33,7.92 7.67,7.92 7.29,8.29" id="Fill-162" fill="#839CAA" sketch:type="MSShapeGroup"></path>
            <path d="M9.293,7.707 C9.488,7.902 9.744,8 10,8 C10.256,8 10.512,7.902 10.707,7.707 L13.707,4.707 C14.098,4.316 14.098,3.684 13.707,3.293 C13.316,2.902 12.684,2.902 12.293,3.293 L9.293,6.293 C8.902,6.684 8.902,7.316 9.293,7.707" id="Fill-163" fill="#839CAA" sketch:type="MSShapeGroup"></path>
            <path d="M12.293,8.293 L3.293,17.293 C2.902,17.684 2.902,18.316 3.293,18.707 C3.488,18.902 3.744,19 4,19 C4.256,19 4.512,18.902 4.707,18.707 L13.707,9.707 C14.098,9.316 14.098,8.684 13.707,8.293 C13.316,7.902 12.684,7.902 12.293,8.293" id="Fill-164" fill="#839CAA" sketch:type="MSShapeGroup"></path>
            <path d="M14.29,6.29 C14.109,6.48 14,6.73 14,7 C14,7.27 14.109,7.52 14.29,7.71 C14.479,7.89 14.729,8 15,8 C15.27,8 15.52,7.89 15.71,7.71 C15.89,7.52 16,7.27 16,7 C16,6.73 15.89,6.48 15.71,6.29 C15.34,5.92 14.66,5.92 14.29,6.29" id="Fill-165" fill="#839CAA" sketch:type="MSShapeGroup"></path>
            <path d="M18.707,3.293 C18.316,2.902 17.684,2.902 17.293,3.293 L16.293,4.293 C15.902,4.684 15.902,5.316 16.293,5.707 C16.488,5.902 16.744,6 17,6 C17.256,6 17.512,5.902 17.707,5.707 L18.707,4.707 C19.098,4.316 19.098,3.684 18.707,3.293" id="Fill-166" fill="#839CAA" sketch:type="MSShapeGroup"></path>
            <path d="M40.5,55 L17.5,55 C16.675,55 16,54.325 16,53.5 C16,52.675 16.675,52 17.5,52 L40.5,52 C41.325,52 42,52.675 42,53.5 C42,54.325 41.325,55 40.5,55" id="Fill-167" fill="#E8EDEE" sketch:type="MSShapeGroup"></path>
        </g>
    </g>
</svg>