<?xml version="1.0" encoding="UTF-8" standalone="no"?>
<svg width="58px" height="40px" viewBox="0 0 58 40" version="1.1" xmlns="http://www.w3.org/2000/svg" xmlns:xlink="http://www.w3.org/1999/xlink" xmlns:sketch="http://www.bohemiancoding.com/sketch/ns">
    <!-- Generator: Sketch 3.2.2 (9983) - http://www.bohemiancoding.com/sketch -->
    <title>119 - Ipad (Flat)</title>
    <desc>Created with Sketch.</desc>
    <defs></defs>
    <g id="Page-1" stroke="none" stroke-width="1" fill="none" fill-rule="evenodd" sketch:type="MSPage">
        <g id="119---Ipad-(Flat)" sketch:type="MSLayerGroup">
            <path d="M54.822,40 L3.178,40 C1.423,40 0,38.577 0,36.822 L0,3.178 C0,1.423 1.423,0 3.178,0 L54.822,0 C56.577,0 58,1.423 58,3.178 L58,36.822 C58,38.577 56.577,40 54.822,40" id="Fill-933" fill="#38454F" sketch:type="MSShapeGroup"></path>
            <path d="M6,5 L52,5 L52,35 L6,35 L6,5 Z" id="Fill-934" fill="#546A79" sketch:type="MSShapeGroup"></path>
            <path d="M57,20 C57,21.105 56.105,22 55,22 C53.895,22 53,21.105 53,20 C53,18.896 53.895,18 55,18 C56.105,18 57,18.896 57,20" id="Fill-938" fill="#000000" sketch:type="MSShapeGroup"></path>
            <path d="M4,20 C4,20.552 3.552,21 3,21 C2.448,21 2,20.552 2,20 C2,19.448 2.448,19 3,19 C3.552,19 4,19.448 4,20" id="Fill-956" fill="#000000" sketch:type="MSShapeGroup"></path>
            <path d="M10,14 C10.256,14 10.512,13.902 10.707,13.707 L14.707,9.707 C15.098,9.316 15.098,8.684 14.707,8.293 C14.316,7.902 13.684,7.902 13.293,8.293 L9.293,12.293 C8.902,12.684 8.902,13.316 9.293,13.707 C9.488,13.902 9.744,14 10,14" id="Fill-968" fill="#839CAA" sketch:type="MSShapeGroup"></path>
            <path d="M10,19 C10.256,19 10.512,18.902 10.707,18.707 L12.707,16.707 C13.098,16.316 13.098,15.684 12.707,15.293 C12.316,14.902 11.684,14.902 11.293,15.293 L9.293,17.293 C8.902,17.684 8.902,18.316 9.293,18.707 C9.488,18.902 9.744,19 10,19" id="Fill-969" fill="#839CAA" sketch:type="MSShapeGroup"></path>
            <path d="M13.29,13.29 C13.11,13.48 13,13.73 13,14 C13,14.27 13.11,14.52 13.29,14.71 C13.48,14.89 13.74,15 14,15 C14.26,15 14.52,14.89 14.71,14.71 C14.89,14.52 15,14.26 15,14 C15,13.74 14.89,13.48 14.71,13.29 C14.33,12.92 13.66,12.92 13.29,13.29" id="Fill-970" fill="#839CAA" sketch:type="MSShapeGroup"></path>
            <path d="M15.293,12.707 C15.488,12.902 15.744,13 16,13 C16.256,13 16.512,12.902 16.707,12.707 L19.707,9.707 C20.098,9.316 20.098,8.684 19.707,8.293 C19.316,7.902 18.684,7.902 18.293,8.293 L15.293,11.293 C14.902,11.684 14.902,12.316 15.293,12.707" id="Fill-971" fill="#839CAA" sketch:type="MSShapeGroup"></path>
            <path d="M18.293,13.293 L9.293,22.293 C8.902,22.684 8.902,23.316 9.293,23.707 C9.488,23.902 9.744,24 10,24 C10.256,24 10.512,23.902 10.707,23.707 L19.707,14.707 C20.098,14.316 20.098,13.684 19.707,13.293 C19.316,12.902 18.684,12.902 18.293,13.293" id="Fill-972" fill="#839CAA" sketch:type="MSShapeGroup"></path>
            <path d="M20.29,11.29 C20.11,11.48 20,11.74 20,12 C20,12.26 20.11,12.52 20.29,12.71 C20.48,12.89 20.74,13 21,13 C21.26,13 21.52,12.89 21.71,12.71 C21.89,12.52 22,12.26 22,12 C22,11.74 21.89,11.48 21.71,11.29 C21.33,10.92 20.66,10.92 20.29,11.29" id="Fill-973" fill="#839CAA" sketch:type="MSShapeGroup"></path>
            <path d="M24.707,8.293 C24.316,7.902 23.684,7.902 23.293,8.293 L22.293,9.293 C21.902,9.684 21.902,10.316 22.293,10.707 C22.488,10.902 22.744,11 23,11 C23.256,11 23.512,10.902 23.707,10.707 L24.707,9.707 C25.098,9.316 25.098,8.684 24.707,8.293" id="Fill-974" fill="#839CAA" sketch:type="MSShapeGroup"></path>
        </g>
    </g>
</svg>