<?xml version="1.0" encoding="UTF-8" standalone="no"?>
<svg width="42px" height="58px" viewBox="0 0 42 58" version="1.1" xmlns="http://www.w3.org/2000/svg" xmlns:xlink="http://www.w3.org/1999/xlink" xmlns:sketch="http://www.bohemiancoding.com/sketch/ns">
    <!-- Generator: Sketch 3.2.2 (9983) - http://www.bohemiancoding.com/sketch -->
    <title>115 - Ipad Mini (Flat)</title>
    <desc>Created with Sketch.</desc>
    <defs></defs>
    <g id="Page-1" stroke="none" stroke-width="1" fill="none" fill-rule="evenodd" sketch:type="MSPage">
        <g id="115---Ipad-Mini-(Flat)" sketch:type="MSLayerGroup">
            <path d="M39.102,58 L2.898,58 C1.298,58 0,56.674 0,55.038 L0,2.962 C0,1.326 1.298,0 2.898,0 L39.102,0 C40.702,0 42,1.326 42,2.962 L42,55.038 C42,56.674 40.702,58 39.102,58" id="Fill-922" fill="#E8EDEE" sketch:type="MSShapeGroup"></path>
            <path d="M22,4 L21,4 C20.447,4 20,3.552 20,3 C20,2.448 20.447,2 21,2 L22,2 C22.553,2 23,2.448 23,3 C23,3.552 22.553,4 22,4" id="Fill-1187" fill="#38454F" sketch:type="MSShapeGroup"></path>
            <path d="M3,6 L39,6 L39,48 L3,48 L3,6 Z" id="Fill-1188" fill="#546A79" sketch:type="MSShapeGroup"></path>
            <path d="M24,53 C24,54.657 22.657,56 21,56 C19.343,56 18,54.657 18,53 C18,51.343 19.343,50 21,50 C22.657,50 24,51.343 24,53" id="Fill-1189" fill="#B0B6BB" sketch:type="MSShapeGroup"></path>
            <path d="M7,15 C7.256,15 7.512,14.902 7.707,14.707 L11.707,10.707 C12.098,10.316 12.098,9.684 11.707,9.293 C11.316,8.902 10.684,8.902 10.293,9.293 L6.293,13.293 C5.902,13.684 5.902,14.316 6.293,14.707 C6.488,14.902 6.744,15 7,15" id="Fill-1190" fill="#839CAA" sketch:type="MSShapeGroup"></path>
            <path d="M7,20 C7.256,20 7.512,19.902 7.707,19.707 L9.707,17.707 C10.098,17.316 10.098,16.684 9.707,16.293 C9.316,15.902 8.684,15.902 8.293,16.293 L6.293,18.293 C5.902,18.684 5.902,19.316 6.293,19.707 C6.488,19.902 6.744,20 7,20" id="Fill-1191" fill="#839CAA" sketch:type="MSShapeGroup"></path>
            <path d="M10.29,14.29 C10.109,14.48 10,14.74 10,15 C10,15.27 10.109,15.52 10.29,15.71 C10.479,15.9 10.74,16 11,16 C11.26,16 11.519,15.89 11.71,15.71 C11.89,15.52 12,15.27 12,15 C12,14.74 11.89,14.48 11.71,14.29 C11.33,13.92 10.68,13.92 10.29,14.29" id="Fill-1192" fill="#839CAA" sketch:type="MSShapeGroup"></path>
            <path d="M12.293,13.707 C12.488,13.902 12.744,14 13,14 C13.256,14 13.512,13.902 13.707,13.707 L16.707,10.707 C17.098,10.316 17.098,9.684 16.707,9.293 C16.316,8.902 15.684,8.902 15.293,9.293 L12.293,12.293 C11.902,12.684 11.902,13.316 12.293,13.707" id="Fill-1193" fill="#839CAA" sketch:type="MSShapeGroup"></path>
            <path d="M15.293,14.293 L6.293,23.293 C5.902,23.684 5.902,24.316 6.293,24.707 C6.488,24.902 6.744,25 7,25 C7.256,25 7.512,24.902 7.707,24.707 L16.707,15.707 C17.098,15.316 17.098,14.684 16.707,14.293 C16.316,13.902 15.684,13.902 15.293,14.293" id="Fill-1194" fill="#839CAA" sketch:type="MSShapeGroup"></path>
            <path d="M17.29,12.29 C17.109,12.48 17,12.74 17,13 C17,13.26 17.109,13.52 17.29,13.71 C17.479,13.89 17.729,14 18,14 C18.26,14 18.519,13.89 18.71,13.71 C18.899,13.52 19,13.26 19,13 C19,12.74 18.899,12.48 18.71,12.29 C18.33,11.92 17.66,11.92 17.29,12.29" id="Fill-1195" fill="#839CAA" sketch:type="MSShapeGroup"></path>
            <path d="M21.707,9.293 C21.316,8.902 20.684,8.902 20.293,9.293 L19.293,10.293 C18.902,10.684 18.902,11.316 19.293,11.707 C19.488,11.902 19.744,12 20,12 C20.256,12 20.512,11.902 20.707,11.707 L21.707,10.707 C22.098,10.316 22.098,9.684 21.707,9.293" id="Fill-1196" fill="#839CAA" sketch:type="MSShapeGroup"></path>
        </g>
    </g>
</svg>