<?xml version="1.0" encoding="UTF-8" standalone="no"?>
<svg width="33px" height="54px" viewBox="0 0 33 54" version="1.1" xmlns="http://www.w3.org/2000/svg" xmlns:xlink="http://www.w3.org/1999/xlink" xmlns:sketch="http://www.bohemiancoding.com/sketch/ns">
    <!-- Generator: Sketch 3.2.2 (9983) - http://www.bohemiancoding.com/sketch -->
    <title>67 - Iphone 4 (Flat)</title>
    <desc>Created with Sketch.</desc>
    <defs></defs>
    <g id="Page-1" stroke="none" stroke-width="1" fill="none" fill-rule="evenodd" sketch:type="MSPage">
        <g id="67---Iphone-4-(Flat)" sketch:type="MSLayerGroup">
            <path d="M28.632,54 L6.368,54 C3.956,54 2,52.044 2,49.632 L2,4.368 C2,1.956 3.956,0 6.368,0 L28.632,0 C31.044,0 33,1.956 33,4.368 L33,49.632 C33,52.044 31.044,54 28.632,54" id="Fill-137" fill="#E8EDEE" sketch:type="MSShapeGroup"></path>
            <path d="M5,7 L30,7 L30,45 L5,45 L5,7 Z" id="Fill-138" fill="#38454F" sketch:type="MSShapeGroup"></path>
            <path d="M8,15 C8.256,15 8.512,14.902 8.707,14.707 L12.707,10.707 C13.098,10.316 13.098,9.684 12.707,9.293 C12.316,8.902 11.684,8.902 11.293,9.293 L7.293,13.293 C6.902,13.684 6.902,14.316 7.293,14.707 C7.488,14.902 7.744,15 8,15" id="Fill-1386" fill="#546A79" sketch:type="MSShapeGroup"></path>
            <path d="M8,20 C8.256,20 8.512,19.902 8.707,19.707 L10.707,17.707 C11.098,17.316 11.098,16.684 10.707,16.293 C10.316,15.902 9.684,15.902 9.293,16.293 L7.293,18.293 C6.902,18.684 6.902,19.316 7.293,19.707 C7.488,19.902 7.744,20 8,20" id="Fill-1387" fill="#546A79" sketch:type="MSShapeGroup"></path>
            <path d="M11.29,14.29 C11.11,14.48 11,14.74 11,15 C11,15.26 11.11,15.52 11.29,15.71 C11.48,15.89 11.74,16 12,16 C12.26,16 12.52,15.89 12.71,15.71 C12.89,15.52 13,15.26 13,15 C13,14.74 12.89,14.48 12.71,14.29 C12.33,13.92 11.66,13.92 11.29,14.29" id="Fill-1388" fill="#546A79" sketch:type="MSShapeGroup"></path>
            <path d="M13.293,13.707 C13.488,13.902 13.744,14 14,14 C14.256,14 14.512,13.902 14.707,13.707 L17.707,10.707 C18.098,10.316 18.098,9.684 17.707,9.293 C17.316,8.902 16.684,8.902 16.293,9.293 L13.293,12.293 C12.902,12.684 12.902,13.316 13.293,13.707" id="Fill-1389" fill="#546A79" sketch:type="MSShapeGroup"></path>
            <path d="M16.293,14.293 L7.293,23.293 C6.902,23.684 6.902,24.316 7.293,24.707 C7.488,24.902 7.744,25 8,25 C8.256,25 8.512,24.902 8.707,24.707 L17.707,15.707 C18.098,15.316 18.098,14.684 17.707,14.293 C17.316,13.902 16.684,13.902 16.293,14.293" id="Fill-1390" fill="#546A79" sketch:type="MSShapeGroup"></path>
            <path d="M18.29,12.29 C18.11,12.48 18,12.73 18,13 C18,13.27 18.11,13.52 18.29,13.71 C18.48,13.89 18.74,14 19,14 C19.26,14 19.52,13.89 19.71,13.71 C19.89,13.52 20,13.26 20,13 C20,12.74 19.89,12.48 19.71,12.29 C19.34,11.92 18.66,11.92 18.29,12.29" id="Fill-1391" fill="#546A79" sketch:type="MSShapeGroup"></path>
            <path d="M22.707,9.293 C22.316,8.902 21.684,8.902 21.293,9.293 L20.293,10.293 C19.902,10.684 19.902,11.316 20.293,11.707 C20.488,11.902 20.744,12 21,12 C21.256,12 21.512,11.902 21.707,11.707 L22.707,10.707 C23.098,10.316 23.098,9.684 22.707,9.293" id="Fill-1392" fill="#546A79" sketch:type="MSShapeGroup"></path>
            <path d="M21,5 L18,5 C17.448,5 17,4.553 17,4 C17,3.447 17.448,3 18,3 L21,3 C21.552,3 22,3.447 22,4 C22,4.553 21.552,5 21,5" id="Fill-1393" fill="#38454F" sketch:type="MSShapeGroup"></path>
            <path d="M14,5 C13.74,5 13.48,4.89 13.29,4.71 C13.11,4.52 13,4.26 13,4 C13,3.73 13.11,3.48 13.29,3.29 C13.67,2.92 14.33,2.92 14.71,3.29 C14.89,3.48 15,3.74 15,4 C15,4.26 14.89,4.52 14.71,4.71 C14.52,4.89 14.26,5 14,5" id="Fill-1394" fill="#38454F" sketch:type="MSShapeGroup"></path>
            <path d="M20,49.5 C20,50.881 18.881,52 17.5,52 C16.119,52 15,50.881 15,49.5 C15,48.119 16.119,47 17.5,47 C18.881,47 20,48.119 20,49.5" id="Fill-1395" fill="#B0B6BB" sketch:type="MSShapeGroup"></path>
            <path d="M1,9 C0.448,9 0,8.553 0,8 L0,7 C0,6.447 0.448,6 1,6 C1.552,6 2,6.447 2,7 L2,8 C2,8.553 1.552,9 1,9" id="Fill-1396" fill="#B0B6BB" sketch:type="MSShapeGroup"></path>
            <path d="M1,13 C0.448,13 0,12.553 0,12 L0,11 C0,10.447 0.448,10 1,10 C1.552,10 2,10.447 2,11 L2,12 C2,12.553 1.552,13 1,13" id="Fill-1397" fill="#B0B6BB" sketch:type="MSShapeGroup"></path>
            <path d="M1,17 C0.448,17 0,16.553 0,16 L0,15 C0,14.447 0.448,14 1,14 C1.552,14 2,14.447 2,15 L2,16 C2,16.553 1.552,17 1,17" id="Fill-1398" fill="#B0B6BB" sketch:type="MSShapeGroup"></path>
        </g>
    </g>
</svg>