<?xml version="1.0" encoding="UTF-8" standalone="no"?>
<svg width="59px" height="58px" viewBox="0 0 59 58" version="1.1" xmlns="http://www.w3.org/2000/svg" xmlns:xlink="http://www.w3.org/1999/xlink" xmlns:sketch="http://www.bohemiancoding.com/sketch/ns">
    <!-- Generator: Sketch 3.2.2 (9983) - http://www.bohemiancoding.com/sketch -->
    <title>101 - Iphones (Flat)</title>
    <desc>Created with Sketch.</desc>
    <defs></defs>
    <g id="Page-1" stroke="none" stroke-width="1" fill="none" fill-rule="evenodd" sketch:type="MSPage">
        <g id="101---Iphones-(Flat)" sketch:type="MSLayerGroup">
            <path d="M43.038,58 L17.961,58 C16.326,58 15,56.674 15,55.038 L15,2.962 C15,1.326 16.326,0 17.961,0 L43.038,0 C44.674,0 46,1.326 46,2.962 L46,55.038 C46,56.674 44.674,58 43.038,58" id="Fill-559" fill="#E8EDEE" sketch:type="MSShapeGroup"></path>
            <path d="M15,6 L46,6 L46,49 L15,49 L15,6 Z" id="Fill-560" fill="#45525B" sketch:type="MSShapeGroup"></path>
            <path d="M35,4 L30,4 C29.447,4 29,3.552 29,3 C29,2.448 29.447,2 30,2 L35,2 C35.553,2 36,2.448 36,3 C36,3.552 35.553,4 35,4" id="Fill-561" fill="#B0B6BB" sketch:type="MSShapeGroup"></path>
            <path d="M27,4 L26,4 C25.447,4 25,3.552 25,3 C25,2.448 25.447,2 26,2 L27,2 C27.553,2 28,2.448 28,3 C28,3.552 27.553,4 27,4" id="Fill-562" fill="#B0B6BB" sketch:type="MSShapeGroup"></path>
            <path d="M33,53.5 C33,54.881 31.881,56 30.5,56 C29.119,56 28,54.881 28,53.5 C28,52.119 29.119,51 30.5,51 C31.881,51 33,52.119 33,53.5" id="Fill-563" fill="#B0B6BB" sketch:type="MSShapeGroup"></path>
            <path d="M15,55.038 L15,9.063 L4.499,9.063 C3.119,9.063 2,10.181 2,11.561 L2,55.501 C2,56.881 3.119,58 4.499,58 L17.962,58 C16.326,58 15,56.674 15,55.038" id="Fill-564" fill="#38454F" sketch:type="MSShapeGroup"></path>
            <path d="M2,15 L15,15 L15,51 L2,51 L2,15 Z" id="Fill-565" fill="#546A79" sketch:type="MSShapeGroup"></path>
            <path d="M56.516,9 L46,9 L46,55.038 C46,56.674 44.674,58 43.038,58 L56.516,58 C57.888,58 59,56.88 59,55.498 L59,11.502 C59,10.12 57.888,9 56.516,9" id="Fill-566" fill="#38454F" sketch:type="MSShapeGroup"></path>
            <path d="M46,15 L59,15 L59,51 L46,51 L46,15 Z" id="Fill-567" fill="#546A79" sketch:type="MSShapeGroup"></path>
            <path d="M20,16 C20.256,16 20.512,15.902 20.707,15.707 L24.707,11.707 C25.098,11.316 25.098,10.684 24.707,10.293 C24.316,9.902 23.684,9.902 23.293,10.293 L19.293,14.293 C18.902,14.684 18.902,15.316 19.293,15.707 C19.488,15.902 19.744,16 20,16" id="Fill-568" fill="#546A79" sketch:type="MSShapeGroup"></path>
            <path d="M20,21 C20.256,21 20.512,20.902 20.707,20.707 L22.707,18.707 C23.098,18.316 23.098,17.684 22.707,17.293 C22.316,16.902 21.684,16.902 21.293,17.293 L19.293,19.293 C18.902,19.684 18.902,20.316 19.293,20.707 C19.488,20.902 19.744,21 20,21" id="Fill-569" fill="#546A79" sketch:type="MSShapeGroup"></path>
            <path d="M23.29,15.29 C23.109,15.48 23,15.74 23,16 C23,16.26 23.109,16.52 23.29,16.71 C23.479,16.89 23.74,17 24,17 C24.26,17 24.52,16.89 24.71,16.71 C24.89,16.52 25,16.26 25,16 C25,15.74 24.89,15.48 24.71,15.29 C24.33,14.92 23.67,14.92 23.29,15.29" id="Fill-570" fill="#546A79" sketch:type="MSShapeGroup"></path>
            <path d="M25.293,14.707 C25.488,14.902 25.744,15 26,15 C26.256,15 26.512,14.902 26.707,14.707 L29.707,11.707 C30.098,11.316 30.098,10.684 29.707,10.293 C29.316,9.902 28.684,9.902 28.293,10.293 L25.293,13.293 C24.902,13.684 24.902,14.316 25.293,14.707" id="Fill-571" fill="#546A79" sketch:type="MSShapeGroup"></path>
            <path d="M28.293,15.293 L19.293,24.293 C18.902,24.684 18.902,25.316 19.293,25.707 C19.488,25.902 19.744,26 20,26 C20.256,26 20.512,25.902 20.707,25.707 L29.707,16.707 C30.098,16.316 30.098,15.684 29.707,15.293 C29.316,14.902 28.684,14.902 28.293,15.293" id="Fill-572" fill="#546A79" sketch:type="MSShapeGroup"></path>
            <path d="M30.29,13.29 C30.109,13.48 30,13.74 30,14 C30,14.26 30.109,14.52 30.29,14.71 C30.479,14.89 30.74,15 31,15 C31.26,15 31.52,14.89 31.71,14.71 C31.89,14.52 32,14.26 32,14 C32,13.74 31.89,13.48 31.71,13.29 C31.34,12.92 30.67,12.92 30.29,13.29" id="Fill-573" fill="#546A79" sketch:type="MSShapeGroup"></path>
            <path d="M34.707,10.293 C34.316,9.902 33.684,9.902 33.293,10.293 L32.293,11.293 C31.902,11.684 31.902,12.316 32.293,12.707 C32.488,12.902 32.744,13 33,13 C33.256,13 33.512,12.902 33.707,12.707 L34.707,11.707 C35.098,11.316 35.098,10.684 34.707,10.293" id="Fill-574" fill="#546A79" sketch:type="MSShapeGroup"></path>
            <path d="M11.969,13 L11.125,13 C10.572,13 10.125,12.552 10.125,12 C10.125,11.448 10.572,11 11.125,11 L11.969,11 C12.521,11 12.969,11.448 12.969,12 C12.969,12.552 12.521,13 11.969,13" id="Fill-1284" fill="#1F282D" sketch:type="MSShapeGroup"></path>
            <path d="M2,18 L1,18 C0.448,18 0,17.552 0,17 C0,16.448 0.448,16 1,16 L2,16 L2,18" id="Fill-1770" fill="#E8EDEE" sketch:type="MSShapeGroup"></path>
            <path d="M2,22 L1.5,22 C0.672,22 0,21.328 0,20.5 C0,19.672 0.672,19 1.5,19 L2,19 L2,22" id="Fill-1771" fill="#E8EDEE" sketch:type="MSShapeGroup"></path>
            <path d="M2,26 L1.5,26 C0.672,26 0,25.328 0,24.5 C0,23.672 0.672,23 1.5,23 L2,23 L2,26" id="Fill-1772" fill="#E8EDEE" sketch:type="MSShapeGroup"></path>
            <path d="M50,11 L46,11 L46,13 L50,13 C50.553,13 51,12.552 51,12 C51,11.448 50.553,11 50,11" id="Fill-1773" fill="#1F282D" sketch:type="MSShapeGroup"></path>
        </g>
    </g>
</svg>