<?xml version="1.0" encoding="UTF-8" standalone="no"?>
<svg width="34px" height="58px" viewBox="0 0 34 58" version="1.1" xmlns="http://www.w3.org/2000/svg" xmlns:xlink="http://www.w3.org/1999/xlink" xmlns:sketch="http://www.bohemiancoding.com/sketch/ns">
    <!-- Generator: Sketch 3.2.2 (9983) - http://www.bohemiancoding.com/sketch -->
    <title>68 - Iphone 5 (Flat)</title>
    <desc>Created with Sketch.</desc>
    <defs></defs>
    <g id="Page-1" stroke="none" stroke-width="1" fill="none" fill-rule="evenodd" sketch:type="MSPage">
        <g id="68---Iphone-5-(Flat)" sketch:type="MSLayerGroup" transform="translate(1.000000, 0.000000)">
            <path d="M31.053,58 L2.947,58 C1.872,58 1,57.128 1,56.053 L1,1.947 C1,0.872 1.872,0 2.947,0 L31.053,0 C32.128,0 33,0.872 33,1.947 L33,56.053 C33,57.128 32.128,58 31.053,58" id="Fill-136" fill="#E8EDEE" sketch:type="MSShapeGroup"></path>
            <path d="M4,6 L30,6 L30,50 L4,50 L4,6 Z" id="Fill-1375" fill="#38454F" sketch:type="MSShapeGroup"></path>
            <path d="M7,14 C7.256,14 7.512,13.902 7.707,13.707 L11.707,9.707 C12.098,9.316 12.098,8.684 11.707,8.293 C11.316,7.902 10.684,7.902 10.293,8.293 L6.293,12.293 C5.902,12.684 5.902,13.316 6.293,13.707 C6.488,13.902 6.744,14 7,14" id="Fill-1376" fill="#546A79" sketch:type="MSShapeGroup"></path>
            <path d="M7,19 C7.256,19 7.512,18.902 7.707,18.707 L9.707,16.707 C10.098,16.316 10.098,15.684 9.707,15.293 C9.316,14.902 8.684,14.902 8.293,15.293 L6.293,17.293 C5.902,17.684 5.902,18.316 6.293,18.707 C6.488,18.902 6.744,19 7,19" id="Fill-1377" fill="#546A79" sketch:type="MSShapeGroup"></path>
            <path d="M10.29,13.29 C10.11,13.48 10,13.74 10,14 C10,14.26 10.11,14.52 10.29,14.71 C10.48,14.89 10.74,15 11,15 C11.26,15 11.52,14.89 11.71,14.71 C11.89,14.52 12,14.26 12,14 C12,13.73 11.89,13.48 11.71,13.29 C11.34,12.92 10.67,12.92 10.29,13.29" id="Fill-1378" fill="#546A79" sketch:type="MSShapeGroup"></path>
            <path d="M12.293,12.707 C12.488,12.902 12.744,13 13,13 C13.256,13 13.512,12.902 13.707,12.707 L16.707,9.707 C17.098,9.316 17.098,8.684 16.707,8.293 C16.316,7.902 15.684,7.902 15.293,8.293 L12.293,11.293 C11.902,11.684 11.902,12.316 12.293,12.707" id="Fill-1379" fill="#546A79" sketch:type="MSShapeGroup"></path>
            <path d="M15.293,13.293 L6.293,22.293 C5.902,22.684 5.902,23.316 6.293,23.707 C6.488,23.902 6.744,24 7,24 C7.256,24 7.512,23.902 7.707,23.707 L16.707,14.707 C17.098,14.316 17.098,13.684 16.707,13.293 C16.316,12.902 15.684,12.902 15.293,13.293" id="Fill-1380" fill="#546A79" sketch:type="MSShapeGroup"></path>
            <path d="M17.29,11.29 C17.11,11.48 17,11.74 17,12 C17,12.26 17.11,12.52 17.29,12.71 C17.48,12.89 17.74,13 18,13 C18.26,13 18.52,12.89 18.71,12.71 C18.89,12.52 19,12.26 19,12 C19,11.74 18.89,11.48 18.71,11.3 C18.34,10.92 17.66,10.92 17.29,11.29" id="Fill-1381" fill="#546A79" sketch:type="MSShapeGroup"></path>
            <path d="M21.707,8.293 C21.316,7.902 20.684,7.902 20.293,8.293 L19.293,9.293 C18.902,9.684 18.902,10.316 19.293,10.707 C19.488,10.902 19.744,11 20,11 C20.256,11 20.512,10.902 20.707,10.707 L21.707,9.707 C22.098,9.316 22.098,8.684 21.707,8.293" id="Fill-1382" fill="#546A79" sketch:type="MSShapeGroup"></path>
            <path d="M19,4 L14,4 C13.448,4 13,3.553 13,3 C13,2.447 13.448,2 14,2 L19,2 C19.552,2 20,2.447 20,3 C20,3.553 19.552,4 19,4" id="Fill-1383" fill="#38454F" sketch:type="MSShapeGroup"></path>
            <path d="M0,9 L0,10 M0,13 L0,14 M0,17 L0,18" id="Stroke-1384" stroke="#CBD4D8" stroke-width="2" stroke-linecap="round" sketch:type="MSShapeGroup"></path>
            <path d="M20,54 C20,55.657 18.657,57 17,57 C15.343,57 14,55.657 14,54 C14,52.343 15.343,51 17,51 C18.657,51 20,52.343 20,54" id="Fill-1385" fill="#CBD4D8" sketch:type="MSShapeGroup"></path>
        </g>
    </g>
</svg>