<?xml version="1.0" encoding="UTF-8" standalone="no"?>
<svg width="57px" height="56px" viewBox="0 0 57 56" version="1.1" xmlns="http://www.w3.org/2000/svg" xmlns:xlink="http://www.w3.org/1999/xlink" xmlns:sketch="http://www.bohemiancoding.com/sketch/ns">
    <!-- Generator: Sketch 3.2.2 (9983) - http://www.bohemiancoding.com/sketch -->
    <title>84 - Iphone 4 Charging Cable (Flat)</title>
    <desc>Created with Sketch.</desc>
    <defs></defs>
    <g id="Page-1" stroke="none" stroke-width="1" fill="none" fill-rule="evenodd" sketch:type="MSPage">
        <g id="84---Iphone-4-Charging-Cable-(Flat)" sketch:type="MSLayerGroup">
            <path d="M0,5 L18,5 L18,13 L0,13 L0,5 Z" id="Fill-257" fill="#E8EDEE" sketch:type="MSShapeGroup"></path>
            <path d="M1,0 L17,0 L17,5 L1,5 L1,0 Z" id="Fill-258" fill="#B0B6BB" sketch:type="MSShapeGroup"></path>
            <path d="M3,2 L5,2 L5,5 L3,5 L3,2 Z" id="Fill-259" fill="#E8EDEE" sketch:type="MSShapeGroup"></path>
            <path d="M13,2 L15,2 L15,5 L13,5 L13,2 Z" id="Fill-260" fill="#E8EDEE" sketch:type="MSShapeGroup"></path>
            <path d="M7,13 L11,13 L11,19.059 L7,19.059 L7,13 Z" id="Fill-261" fill="#B0B6BB" sketch:type="MSShapeGroup"></path>
            <path d="M29,56 C21.832,56 16,50.168 16,43 C16,35.832 21.832,30 29,30 C36.168,30 42,35.832 42,43 C42,50.168 36.168,56 29,56 L29,56 Z M29,32 C22.935,32 18,36.935 18,43 C18,49.065 22.935,54 29,54 C35.065,54 40,49.065 40,43 C40,36.935 35.065,32 29,32 L29,32 Z" id="Fill-262" fill="#E8EDEE" sketch:type="MSShapeGroup"></path>
            <path d="M28.459,56 C17.504,56 8.533,47.345 8.022,36.514 L8,36.514 L8,19 L10,19 L10,35.541 C10,45.72 18.28,54 28.459,54 C44.03,54 51,44.28 51,34.648 L51,30 L53,30 L53,34.648 C53,47.22 42.908,56 28.459,56" id="Fill-263" fill="#E8EDEE" sketch:type="MSShapeGroup"></path>
            <path d="M52,31 L52,31 C50.895,31 50,30.105 50,29 L50,26 L54,26 L54,29 C54,30.105 53.105,31 52,31" id="Fill-264" fill="#B0B6BB" sketch:type="MSShapeGroup"></path>
            <path d="M52,31 L52,31 C50.895,31 50,30.105 50,29 L50,26 L54,26 L54,29 C54,30.105 53.105,31 52,31" id="Fill-265" fill="#B0B6BB" sketch:type="MSShapeGroup"></path>
            <path d="M52,31 L52,31 C50.895,31 50,30.105 50,29 L50,26 L54,26 L54,29 C54,30.105 53.105,31 52,31" id="Fill-266" fill="#B0B6BB" sketch:type="MSShapeGroup"></path>
            <path d="M52,31 L52,31 C50.895,31 50,30.105 50,29 L50,26 L54,26 L54,29 C54,30.105 53.105,31 52,31" id="Fill-267" fill="#B0B6BB" sketch:type="MSShapeGroup"></path>
            <path d="M29,56 C20.178,56 13,48.822 13,40 C13,31.178 20.178,24 29,24 C37.822,24 45,31.178 45,40 C45,48.822 37.822,56 29,56 L29,56 Z M29,26 C21.28,26 15,32.28 15,40 C15,47.72 21.28,54 29,54 C36.72,54 43,47.72 43,40 C43,32.28 36.72,26 29,26 L29,26 Z" id="Fill-268" fill="#E8EDEE" sketch:type="MSShapeGroup"></path>
            <path d="M48,15 L56,15 L56,22 L48,22 L48,15 Z" id="Fill-1802" fill="#B0B6BB" sketch:type="MSShapeGroup"></path>
            <path d="M47,22 L47,27.206 C47,27.644 47.356,28 47.794,28 L50,28 L50,26 L54,26 L54,28 L56.206,28 C56.644,28 57,27.644 57,27.206 L57,22 L47,22" id="Fill-1803" fill="#E8EDEE" sketch:type="MSShapeGroup"></path>
            <path d="M49,17 L51,17 L51,19 L49,19 L49,17 Z" id="Fill-1804" fill="#E8EDEE" sketch:type="MSShapeGroup"></path>
            <path d="M53,17 L55,17 L55,19 L53,19 L53,17 Z" id="Fill-1805" fill="#E8EDEE" sketch:type="MSShapeGroup"></path>
        </g>
    </g>
</svg>