<?xml version="1.0" encoding="UTF-8" standalone="no"?>
<svg width="54px" height="59px" viewBox="0 0 54 59" version="1.1" xmlns="http://www.w3.org/2000/svg" xmlns:xlink="http://www.w3.org/1999/xlink" xmlns:sketch="http://www.bohemiancoding.com/sketch/ns">
    <!-- Generator: Sketch 3.2.2 (9983) - http://www.bohemiancoding.com/sketch -->
    <title>87 - Iphone Charging Cable (Flat)</title>
    <desc>Created with Sketch.</desc>
    <defs></defs>
    <g id="Page-1" stroke="none" stroke-width="1" fill="none" fill-rule="evenodd" sketch:type="MSPage">
        <g id="87---Iphone-Charging-Cable-(Flat)" sketch:type="MSLayerGroup">
            <path d="M3,23 L9,23 L9,26 L3,26 L3,23 Z" id="Fill-215" fill="#B0B6BB" sketch:type="MSShapeGroup"></path>
            <path d="M0,12 L12,12 L12,23 L0,23 L0,12 Z" id="Fill-216" fill="#CED5D8" sketch:type="MSShapeGroup"></path>
            <path d="M11,12 L1,12 L1,2.248 C1,1.006 2.006,0 3.248,0 L8.752,0 C9.993,0 11,1.006 11,2.248 L11,12" id="Fill-217" fill="#E6E6E6" sketch:type="MSShapeGroup"></path>
            <path d="M45,18 L53,18 L53,25 L45,25 L45,18 Z" id="Fill-237" fill="#B0B6BB" sketch:type="MSShapeGroup"></path>
            <path d="M44,25 L44,30.206 C44,30.644 44.356,31 44.794,31 L47,31 L47,29 L51,29 L51,31 L53.206,31 C53.644,31 54,30.644 54,30.206 L54,25 L44,25" id="Fill-238" fill="#E8EDEE" sketch:type="MSShapeGroup"></path>
            <path d="M38,46 C38,52.627 32.627,58 26,58 C19.373,58 14,52.627 14,46 C14,39.373 19.373,34 26,34 C32.627,34 38,39.373 38,46 L38,46 Z M6,26 L6,39.514 L6,38.541 C6,49.297 14.703,58 25.459,58 C38.367,58 49,50.556 49,37.649 L49,33" id="Stroke-239" stroke="#E8EDEE" stroke-width="2" sketch:type="MSShapeGroup"></path>
            <path d="M49,34 L49,34 C47.895,34 47,33.105 47,32 L47,29 L51,29 L51,32 C51,33.105 50.105,34 49,34" id="Fill-240" fill="#B0B6BB" sketch:type="MSShapeGroup"></path>
            <path d="M49,34 L49,34 C47.895,34 47,33.105 47,32 L47,29 L51,29 L51,32 C51,33.105 50.105,34 49,34" id="Fill-241" fill="#B0B6BB" sketch:type="MSShapeGroup"></path>
            <path d="M49,34 L49,34 C47.895,34 47,33.105 47,32 L47,29 L51,29 L51,32 C51,33.105 50.105,34 49,34" id="Fill-242" fill="#B0B6BB" sketch:type="MSShapeGroup"></path>
            <path d="M49,34 L49,34 C47.895,34 47,33.105 47,32 L47,29 L51,29 L51,32 C51,33.105 50.105,34 49,34" id="Fill-243" fill="#B0B6BB" sketch:type="MSShapeGroup"></path>
            <path d="M41,43 C41,51.284 34.284,58 26,58 C17.716,58 11,51.284 11,43 C11,34.716 17.716,28 26,28 C34.284,28 41,34.716 41,43 L41,43 Z" id="Stroke-244" stroke="#E8EDEE" stroke-width="2" sketch:type="MSShapeGroup"></path>
            <path d="M46,20 L48,20 L48,22 L46,22 L46,20 Z" id="Fill-245" fill="#E8EDEE" sketch:type="MSShapeGroup"></path>
            <path d="M50,20 L52,20 L52,22 L50,22 L50,20 Z" id="Fill-246" fill="#E8EDEE" sketch:type="MSShapeGroup"></path>
            <path d="M2,3 L4,3 L4,7 L2,7 L2,3 Z" id="Fill-247" fill="#D3AA6E" sketch:type="MSShapeGroup"></path>
            <path d="M5,3 L7,3 L7,7 L5,7 L5,3 Z" id="Fill-248" fill="#D3AA6E" sketch:type="MSShapeGroup"></path>
            <path d="M8,3 L10,3 L10,7 L8,7 L8,3 Z" id="Fill-249" fill="#D3AA6E" sketch:type="MSShapeGroup"></path>
        </g>
    </g>
</svg>