<?xml version="1.0" encoding="UTF-8" standalone="no"?>
<svg width="58px" height="40px" viewBox="0 0 58 40" version="1.1" xmlns="http://www.w3.org/2000/svg" xmlns:xlink="http://www.w3.org/1999/xlink" xmlns:sketch="http://www.bohemiancoding.com/sketch/ns">
    <!-- Generator: Sketch 3.2.2 (9983) - http://www.bohemiancoding.com/sketch -->
    <title>114 - Macbook Pro (Flat)</title>
    <desc>Created with Sketch.</desc>
    <defs></defs>
    <g id="Page-1" stroke="none" stroke-width="1" fill="none" fill-rule="evenodd" sketch:type="MSPage">
        <g id="114---Macbook-Pro-(Flat)" sketch:type="MSLayerGroup">
            <path d="M24.093,36 C24.3,36.58 24.851,37 25.5,37 L33.5,37 C34.149,37 34.699,36.58 34.907,36 L55,36 L55,3.067 C55,1.373 53.627,0 51.933,0 L6.067,0 C4.373,0 3,1.373 3,3.067 L3,36 L24.093,36" id="Fill-151" fill="#38454F" sketch:type="MSShapeGroup"></path>
            <path d="M6,3 L52,3 L52,33 L6,33 L6,3 Z" id="Fill-1197" fill="#546A79" sketch:type="MSShapeGroup"></path>
            <path d="M11,13 C11.256,13 11.512,12.902 11.707,12.707 L15.707,8.707 C16.098,8.316 16.098,7.684 15.707,7.293 C15.316,6.902 14.684,6.902 14.293,7.293 L10.293,11.293 C9.902,11.684 9.902,12.316 10.293,12.707 C10.488,12.902 10.744,13 11,13" id="Fill-1198" fill="#839CAA" sketch:type="MSShapeGroup"></path>
            <path d="M11,18 C11.256,18 11.512,17.902 11.707,17.707 L13.707,15.707 C14.098,15.316 14.098,14.684 13.707,14.293 C13.316,13.902 12.684,13.902 12.293,14.293 L10.293,16.293 C9.902,16.684 9.902,17.316 10.293,17.707 C10.488,17.902 10.744,18 11,18" id="Fill-1199" fill="#839CAA" sketch:type="MSShapeGroup"></path>
            <path d="M14.29,12.29 C14.109,12.48 14,12.74 14,13 C14,13.26 14.109,13.52 14.29,13.71 C14.479,13.89 14.74,14 15,14 C15.26,14 15.519,13.89 15.71,13.71 C15.89,13.52 16,13.26 16,13 C16,12.74 15.89,12.48 15.71,12.29 C15.34,11.92 14.649,11.93 14.29,12.29" id="Fill-1200" fill="#839CAA" sketch:type="MSShapeGroup"></path>
            <path d="M16.293,11.707 C16.488,11.902 16.744,12 17,12 C17.256,12 17.512,11.902 17.707,11.707 L20.707,8.707 C21.098,8.316 21.098,7.684 20.707,7.293 C20.316,6.902 19.684,6.902 19.293,7.293 L16.293,10.293 C15.902,10.684 15.902,11.316 16.293,11.707" id="Fill-1201" fill="#839CAA" sketch:type="MSShapeGroup"></path>
            <path d="M19.293,12.293 L10.293,21.293 C9.902,21.684 9.902,22.316 10.293,22.707 C10.488,22.902 10.744,23 11,23 C11.256,23 11.512,22.902 11.707,22.707 L20.707,13.707 C21.098,13.316 21.098,12.684 20.707,12.293 C20.316,11.902 19.684,11.902 19.293,12.293" id="Fill-1202" fill="#839CAA" sketch:type="MSShapeGroup"></path>
            <path d="M21.29,10.29 C21.109,10.48 21,10.74 21,11 C21,11.26 21.109,11.52 21.29,11.71 C21.479,11.89 21.74,12 22,12 C22.26,12 22.519,11.89 22.71,11.71 C22.89,11.52 23,11.26 23,11 C23,10.73 22.89,10.48 22.71,10.29 C22.34,9.92 21.67,9.92 21.29,10.29" id="Fill-1203" fill="#839CAA" sketch:type="MSShapeGroup"></path>
            <path d="M25.707,7.293 C25.316,6.902 24.684,6.902 24.293,7.293 L23.293,8.293 C22.902,8.684 22.902,9.316 23.293,9.707 C23.488,9.902 23.744,10 24,10 C24.256,10 24.512,9.902 24.707,9.707 L25.707,8.707 C26.098,8.316 26.098,7.684 25.707,7.293" id="Fill-1204" fill="#839CAA" sketch:type="MSShapeGroup"></path>
            <path d="M34.907,36 C34.699,36.58 34.149,37 33.5,37 L25.5,37 C24.851,37 24.3,36.58 24.093,36 L0.578,36 C0.259,36 0,36.259 0,36.578 L0,39.422 C0,39.741 0.259,40 0.578,40 L57.422,40 C57.741,40 58,39.741 58,39.422 L58,36.578 C58,36.259 57.741,36 57.422,36 L34.907,36" id="Fill-1757" fill="#B0B6BB" sketch:type="MSShapeGroup"></path>
        </g>
    </g>
</svg>