<?xml version="1.0" encoding="UTF-8" standalone="no"?>
<svg width="34px" height="58px" viewBox="0 0 34 58" version="1.1" xmlns="http://www.w3.org/2000/svg" xmlns:xlink="http://www.w3.org/1999/xlink" xmlns:sketch="http://www.bohemiancoding.com/sketch/ns">
    <!-- Generator: Sketch 3.2.2 (9983) - http://www.bohemiancoding.com/sketch -->
    <title>72 - Magic Mouse (Flat)</title>
    <desc>Created with Sketch.</desc>
    <defs></defs>
    <g id="Page-1" stroke="none" stroke-width="1" fill="none" fill-rule="evenodd" sketch:type="MSPage">
        <g id="72---Magic-Mouse-(Flat)" sketch:type="MSLayerGroup">
            <path d="M27.886,56.489 L27.433,56.749 C25.997,57.569 24.373,58 22.72,58 L11.523,58 C9.87,58 8.245,57.569 6.809,56.748 L6.356,56.489 C3.63,54.932 1.85,52.128 1.6,48.999 L1.573,48.657 C0.526,35.573 0.526,22.427 1.573,9.343 L1.573,9.342 C1.838,6.027 3.818,3.091 6.794,1.603 C8.902,0.549 11.227,0 13.585,0 L20.658,0 C23.015,0 25.34,0.549 27.449,1.603 C30.424,3.091 32.405,6.027 32.67,9.343 C33.717,22.426 33.717,35.573 32.67,48.657 L32.643,48.999 C32.392,52.128 30.612,54.932 27.886,56.489" id="Fill-899" fill="#E8EDEE" sketch:type="MSShapeGroup"></path>
            <path d="M17.98,48.481 C17.46,48.105 17.069,47.537 17,46.899 C16.98,46.716 16.983,46.538 17.005,46.366 C17.099,45.645 16.376,45.038 15.694,45.292 C15.201,45.476 14.664,45.831 14.065,46.452 C13.507,47.03 13.162,47.786 13.168,48.59 C13.182,50.476 14.715,52 16.605,52 C17.815,52 18.871,51.373 19.479,50.427 C19.865,49.825 19.495,49.062 18.803,48.884 C18.542,48.817 18.268,48.69 17.98,48.481" id="Fill-1354" fill="#FFFFFF" sketch:type="MSShapeGroup"></path>
        </g>
    </g>
</svg>