<?xml version="1.0" encoding="UTF-8" standalone="no"?>
<svg width="55px" height="56px" viewBox="0 0 55 56" version="1.1" xmlns="http://www.w3.org/2000/svg" xmlns:xlink="http://www.w3.org/1999/xlink" xmlns:sketch="http://www.bohemiancoding.com/sketch/ns">
    <!-- Generator: Sketch 3.2.2 (9983) - http://www.bohemiancoding.com/sketch -->
    <title>85 - MagSafe (Flat)</title>
    <desc>Created with Sketch.</desc>
    <defs></defs>
    <g id="Page-1" stroke="none" stroke-width="1" fill="none" fill-rule="evenodd" sketch:type="MSPage">
        <g id="85---MagSafe-(Flat)" sketch:type="MSLayerGroup" transform="translate(0.000000, 1.000000)">
            <path d="M33,42 C33,48.627 27.627,54 21,54 C14.373,54 9,48.627 9,42 C9,35.373 14.373,30 21,30 C27.627,30 33,35.373 33,42 L33,42 Z M1,18 L1,35.514 L1,34.541 C1,45.297 9.703,54 20.459,54 C33.367,54 44,46.556 44,33.649 L44,29 M36,39 C36,47.284 29.284,54 21,54 C12.716,54 6,47.284 6,39 C6,30.716 12.716,24 21,24 C29.284,24 36,30.716 36,39 L36,39 Z" id="Stroke-226" stroke="#E8EDEE" stroke-width="2" sketch:type="MSShapeGroup"></path>
            <path d="M0,8 L4,8 L4,19 L0,19 L0,8 Z" id="Fill-250" fill="#E8EDEE" sketch:type="MSShapeGroup"></path>
            <path d="M4,10 L7,10 L7,17 L4,17 L4,10 Z" id="Fill-251" fill="#B0B6BB" sketch:type="MSShapeGroup"></path>
            <path d="M42,25 L46,25 L46,30 L42,30 L42,25 Z" id="Fill-252" fill="#B0B6BB" sketch:type="MSShapeGroup"></path>
            <path d="M53.649,25 L34.351,25 C33.605,25 33,24.395 33,23.649 L33,5.351 C33,4.605 33.605,4 34.351,4 L53.649,4 C54.395,4 55,4.605 55,5.351 L55,23.649 C55,24.395 54.395,25 53.649,25" id="Fill-253" fill="#E8EDEE" sketch:type="MSShapeGroup"></path>
            <path d="M36,0 L36,4 M40,0 L40,4" id="Stroke-254" stroke="#6C797A" stroke-width="2" stroke-linecap="round" sketch:type="MSShapeGroup"></path>
            <path d="M41.649,12 L34.351,12 C33.605,12 33,11.395 33,10.649 L33,5.351 C33,4.605 33.605,4 34.351,4 L41.649,4 C42.395,4 43,4.605 43,5.351 L43,10.649 C43,11.395 42.395,12 41.649,12" id="Fill-255" fill="#D4D7D8" sketch:type="MSShapeGroup"></path>
        </g>
    </g>
</svg>