<?xml version="1.0" encoding="UTF-8" standalone="no"?>
<svg width="24px" height="58px" viewBox="0 0 24 58" version="1.1" xmlns="http://www.w3.org/2000/svg" xmlns:xlink="http://www.w3.org/1999/xlink" xmlns:sketch="http://www.bohemiancoding.com/sketch/ns">
    <!-- Generator: Sketch 3.2.2 (9983) - http://www.bohemiancoding.com/sketch -->
    <title>28 - Microphone (Flat)</title>
    <desc>Created with Sketch.</desc>
    <defs></defs>
    <g id="Page-1" stroke="none" stroke-width="1" fill="none" fill-rule="evenodd" sketch:type="MSPage">
        <g id="28---Microphone-(Flat)" sketch:type="MSLayerGroup">
            <path d="M20.916,21 C20.364,21 19.917,20.553 19.917,20 C19.917,19.447 20.364,19 20.916,19 L24,19 L24,17 L20.916,17 C20.364,17 19.917,16.553 19.917,16 C19.917,15.447 20.364,15 20.916,15 L24,15 L24,12 C24,8.979 22.86,6.218 21,4.102 L21,7 C21,7.553 20.552,8 20,8 C19.448,8 19,7.553 19,7 L19,3.075 C19,2.838 19.095,2.629 19.232,2.458 C18.542,1.932 17.795,1.48 17,1.112 L17,6 C17,6.553 16.552,7 16,7 C15.448,7 15,6.553 15,6 L15,0.689 C15,0.591 15.03,0.502 15.056,0.412 C14.39,0.235 13.705,0.11 13,0.051 L13,5 C13,5.553 12.552,6 12,6 C11.448,6 11,5.553 11,5 L11,0.051 C10.297,0.11 9.613,0.235 8.949,0.411 C8.971,0.493 9,0.574 9,0.663 L9,6 C9,6.553 8.552,7 8,7 C7.448,7 7,6.553 7,6 L7,1.112 C6.205,1.48 5.458,1.932 4.767,2.458 C4.905,2.629 5,2.838 5,3.075 L5,7 C5,7.553 4.552,8 4,8 C3.448,8 3,7.553 3,7 L3,4.102 C1.14,6.218 0,8.979 0,12 L0,15 L3.083,15 C3.636,15 4.083,15.447 4.083,16 C4.083,16.553 3.636,17 3.083,17 L0,17 L0,19 L3.083,19 C3.636,19 4.083,19.447 4.083,20 C4.083,20.553 3.636,21 3.083,21 L0,21 L0,23 L3.083,23 C3.636,23 4.083,23.447 4.083,24 C4.083,24.553 3.636,25 3.083,25 L0,25 L0,27 L3.083,27 C3.636,27 4.083,27.447 4.083,28 C4.083,28.553 3.636,29 3.083,29 L0,29 L0,32 C0,35.021 1.14,37.782 3,39.898 L3,36.001 C3,35.448 3.448,35.001 4,35.001 C4.552,35.001 5,35.448 5,36.001 L5,40.926 C5,41.163 4.906,41.371 4.768,41.543 C5.459,42.068 6.205,42.52 7,42.888 L7,38.001 C7,37.448 7.448,37.001 8,37.001 C8.552,37.001 9,37.448 9,38.001 L9,43.311 C9,43.409 8.97,43.498 8.944,43.588 C9.61,43.765 10.295,43.89 11,43.949 L11,39.001 C11,38.448 11.448,38.001 12,38.001 C12.552,38.001 13,38.448 13,39.001 L13,43.949 C13.703,43.89 14.387,43.766 15.051,43.589 C15.029,43.507 15,43.427 15,43.337 L15,38.001 C15,37.448 15.448,37.001 16,37.001 C16.552,37.001 17,37.448 17,38.001 L17,42.888 C17.795,42.52 18.541,42.068 19.232,41.543 C19.094,41.371 19,41.163 19,40.926 L19,36.001 C19,35.448 19.448,35.001 20,35.001 C20.552,35.001 21,35.448 21,36.001 L21,39.898 C22.86,37.782 24,35.021 24,32 L24,29 L20.916,29 C20.364,29 19.917,28.553 19.917,28 C19.917,27.447 20.364,27 20.916,27 L24,27 L24,25 L20.916,25 C20.364,25 19.917,24.553 19.917,24 C19.917,23.447 20.364,23 20.916,23 L24,23 L24,21 L20.916,21" id="Fill-75" fill="#CED5D8" sketch:type="MSShapeGroup"></path>
            <path d="M4,8 C4.552,8 5,7.553 5,7 L5,3.075 C5,2.838 4.905,2.629 4.767,2.458 C4.125,2.947 3.533,3.496 3,4.102 L3,7 C3,7.553 3.448,8 4,8" id="Fill-76" fill="#E8EDEE" sketch:type="MSShapeGroup"></path>
            <path d="M8,7 C8.552,7 9,6.553 9,6 L9,0.663 C9,0.574 8.971,0.493 8.949,0.411 C8.275,0.59 7.623,0.823 7,1.112 L7,6 C7,6.553 7.448,7 8,7" id="Fill-77" fill="#E8EDEE" sketch:type="MSShapeGroup"></path>
            <path d="M12,6 C12.552,6 13,5.553 13,5 L13,0.051 C12.669,0.023 12.337,0 12,0 C11.663,0 11.331,0.023 11,0.051 L11,5 C11,5.553 11.448,6 12,6" id="Fill-78" fill="#E8EDEE" sketch:type="MSShapeGroup"></path>
            <path d="M15,6 C15,6.553 15.448,7 16,7 C16.552,7 17,6.553 17,6 L17,1.112 C16.378,0.824 15.729,0.591 15.056,0.412 C15.03,0.502 15,0.591 15,0.689 L15,6" id="Fill-79" fill="#E8EDEE" sketch:type="MSShapeGroup"></path>
            <path d="M19,7 C19,7.553 19.448,8 20,8 C20.552,8 21,7.553 21,7 L21,4.102 C20.467,3.496 19.875,2.947 19.232,2.458 C19.095,2.629 19,2.838 19,3.075 L19,7" id="Fill-80" fill="#E8EDEE" sketch:type="MSShapeGroup"></path>
            <path d="M20,35.001 C19.448,35.001 19,35.448 19,36.001 L19,40.926 C19,41.163 19.094,41.371 19.232,41.543 C19.875,41.054 20.467,40.504 21,39.898 L21,36.001 C21,35.448 20.552,35.001 20,35.001" id="Fill-81" fill="#E8EDEE" sketch:type="MSShapeGroup"></path>
            <path d="M16,37.001 C15.448,37.001 15,37.448 15,38.001 L15,43.337 C15,43.427 15.029,43.507 15.051,43.589 C15.725,43.411 16.377,43.177 17,42.888 L17,38.001 C17,37.448 16.552,37.001 16,37.001" id="Fill-82" fill="#E8EDEE" sketch:type="MSShapeGroup"></path>
            <path d="M12,38.001 C11.448,38.001 11,38.448 11,39.001 L11,43.949 C11.331,43.977 11.663,44 12,44 C12.337,44 12.669,43.977 13,43.949 L13,39.001 C13,38.448 12.552,38.001 12,38.001" id="Fill-83" fill="#E8EDEE" sketch:type="MSShapeGroup"></path>
            <path d="M9,38.001 C9,37.448 8.552,37.001 8,37.001 C7.448,37.001 7,37.448 7,38.001 L7,42.888 C7.622,43.176 8.271,43.409 8.944,43.588 C8.97,43.498 9,43.409 9,43.311 L9,38.001" id="Fill-84" fill="#E8EDEE" sketch:type="MSShapeGroup"></path>
            <path d="M5,36.001 C5,35.448 4.552,35.001 4,35.001 C3.448,35.001 3,35.448 3,36.001 L3,39.898 C3.533,40.504 4.125,41.054 4.768,41.543 C4.906,41.371 5,41.163 5,40.926 L5,36.001" id="Fill-85" fill="#E8EDEE" sketch:type="MSShapeGroup"></path>
            <path d="M19.917,16 C19.917,16.553 20.364,17 20.916,17 L24,17 L24,15 L20.916,15 C20.364,15 19.917,15.447 19.917,16" id="Fill-86" fill="#E8EDEE" sketch:type="MSShapeGroup"></path>
            <path d="M19.917,20 C19.917,20.553 20.364,21 20.916,21 L24,21 L24,19 L20.916,19 C20.364,19 19.917,19.447 19.917,20" id="Fill-87" fill="#E8EDEE" sketch:type="MSShapeGroup"></path>
            <path d="M19.917,24 C19.917,24.553 20.364,25 20.916,25 L24,25 L24,23 L20.916,23 C20.364,23 19.917,23.447 19.917,24" id="Fill-88" fill="#E8EDEE" sketch:type="MSShapeGroup"></path>
            <path d="M19.917,28 C19.917,28.553 20.364,29 20.916,29 L24,29 L24,27 L20.916,27 C20.364,27 19.917,27.447 19.917,28" id="Fill-89" fill="#E8EDEE" sketch:type="MSShapeGroup"></path>
            <path d="M4.083,28 C4.083,27.447 3.636,27 3.083,27 L0,27 L0,29 L3.083,29 C3.636,29 4.083,28.553 4.083,28" id="Fill-90" fill="#E8EDEE" sketch:type="MSShapeGroup"></path>
            <path d="M4.083,24 C4.083,23.447 3.636,23 3.083,23 L0,23 L0,25 L3.083,25 C3.636,25 4.083,24.553 4.083,24" id="Fill-91" fill="#E8EDEE" sketch:type="MSShapeGroup"></path>
            <path d="M4.083,20 C4.083,19.447 3.636,19 3.083,19 L0,19 L0,21 L3.083,21 C3.636,21 4.083,20.553 4.083,20" id="Fill-92" fill="#E8EDEE" sketch:type="MSShapeGroup"></path>
            <path d="M4.083,16 C4.083,15.447 3.636,15 3.083,15 L0,15 L0,17 L3.083,17 C3.636,17 4.083,16.553 4.083,16" id="Fill-93" fill="#E8EDEE" sketch:type="MSShapeGroup"></path>
            <path d="M10,47 L14,47 L14,54 L10,54 L10,47 Z" id="Fill-1557" fill="#B0B6BB" sketch:type="MSShapeGroup"></path>
            <path d="M20,58 L4,58 C2.895,58 2,57.105 2,56 C2,54.895 2.895,54 4,54 L20,54 C21.105,54 22,54.895 22,56 C22,57.105 21.105,58 20,58" id="Fill-1558" fill="#E8EDEE" sketch:type="MSShapeGroup"></path>
            <path d="M12,44 C10.597,44 9.254,43.743 8,43.296 L8,45.619 C8,46.382 8.618,47 9.381,47 L14.619,47 C15.382,47 16,46.382 16,45.619 L16,43.296 C14.746,43.743 13.403,44 12,44" id="Fill-1559" fill="#E8EDEE" sketch:type="MSShapeGroup"></path>
            <path d="M16,22 C16,24.209 14.209,26 12,26 C9.791,26 8,24.209 8,22 C8,19.791 9.791,18 12,18 C14.209,18 16,19.791 16,22" id="Fill-1913" fill="#B0B6BB" sketch:type="MSShapeGroup"></path>
        </g>
    </g>
</svg>