<?xml version="1.0" encoding="UTF-8" standalone="no"?>
<svg width="58px" height="51px" viewBox="0 0 58 51" version="1.1" xmlns="http://www.w3.org/2000/svg" xmlns:xlink="http://www.w3.org/1999/xlink" xmlns:sketch="http://www.bohemiancoding.com/sketch/ns">
    <!-- Generator: Sketch 3.2.2 (9983) - http://www.bohemiancoding.com/sketch -->
    <title>6 - Motherboard (Flat)</title>
    <desc>Created with Sketch.</desc>
    <defs></defs>
    <g id="Page-1" stroke="none" stroke-width="1" fill="none" fill-rule="evenodd" sketch:type="MSPage">
        <g id="6---Motherboard-(Flat)" sketch:type="MSLayerGroup">
            <path d="M0,3 L0,7 L3,7 C3.552,7 4,7.447 4,8 C4,8.553 3.552,9 3,9 L0,9 L0,10 L3,10 C3.552,10 4,10.447 4,11 C4,11.553 3.552,12 3,12 L0,12 L0,13 L3,13 C3.552,13 4,13.447 4,14 C4,14.553 3.552,15 3,15 L0,15 L0,35 L3,35 C3.552,35 4,35.447 4,36 C4,36.553 3.552,37 3,37 L0,37 L0,38 L3,38 C3.552,38 4,38.447 4,39 C4,39.553 3.552,40 3,40 L0,40 L0,41 L3,41 C3.552,41 4,41.447 4,42 C4,42.553 3.552,43 3,43 L0,43 L0,44 L3,44 C3.552,44 4,44.447 4,45 C4,45.553 3.552,46 3,46 L0,46 L0,47 L3,47 C3.552,47 4,47.447 4,48 C4,48.553 3.552,49 3,49 L0,49 L0,51 L58,51 L58,3 L0,3" id="Fill-11" fill="#5E5E60" sketch:type="MSShapeGroup"></path>
            <path d="M4,36 C4,35.447 3.552,35 3,35 L0,35 L0,37 L3,37 C3.552,37 4,36.553 4,36" id="Fill-12" fill="#F3CC6D" sketch:type="MSShapeGroup"></path>
            <path d="M4,39 C4,38.447 3.552,38 3,38 L0,38 L0,40 L3,40 C3.552,40 4,39.553 4,39" id="Fill-13" fill="#F3CC6D" sketch:type="MSShapeGroup"></path>
            <path d="M4,42 C4,41.447 3.552,41 3,41 L0,41 L0,43 L3,43 C3.552,43 4,42.553 4,42" id="Fill-14" fill="#F3CC6D" sketch:type="MSShapeGroup"></path>
            <path d="M4,45 C4,44.447 3.552,44 3,44 L0,44 L0,46 L3,46 C3.552,46 4,45.553 4,45" id="Fill-15" fill="#F3CC6D" sketch:type="MSShapeGroup"></path>
            <path d="M4,48 C4,47.447 3.552,47 3,47 L0,47 L0,49 L3,49 C3.552,49 4,48.553 4,48" id="Fill-16" fill="#F3CC6D" sketch:type="MSShapeGroup"></path>
            <path d="M4,8 C4,7.447 3.552,7 3,7 L0,7 L0,9 L3,9 C3.552,9 4,8.553 4,8" id="Fill-17" fill="#F3CC6D" sketch:type="MSShapeGroup"></path>
            <path d="M4,11 C4,10.447 3.552,10 3,10 L0,10 L0,12 L3,12 C3.552,12 4,11.553 4,11" id="Fill-18" fill="#F3CC6D" sketch:type="MSShapeGroup"></path>
            <path d="M4,14 C4,13.447 3.552,13 3,13 L0,13 L0,15 L3,15 C3.552,15 4,14.553 4,14" id="Fill-19" fill="#F3CC6D" sketch:type="MSShapeGroup"></path>
            <path d="M28,21 C28,21.552 27.552,22 27,22 C26.448,22 26,21.552 26,21 C26,20.448 26.448,20 27,20 C27.552,20 28,20.448 28,21" id="Fill-725" fill="#E8EDEE" sketch:type="MSShapeGroup"></path>
            <path d="M28,24 C28,24.552 27.552,25 27,25 C26.448,25 26,24.552 26,24 C26,23.448 26.448,23 27,23 C27.552,23 28,23.448 28,24" id="Fill-726" fill="#F3CC6D" sketch:type="MSShapeGroup"></path>
            <path d="M28,27 C28,27.552 27.552,28 27,28 C26.448,28 26,27.552 26,27 C26,26.448 26.448,26 27,26 C27.552,26 28,26.448 28,27" id="Fill-727" fill="#F3CC6D" sketch:type="MSShapeGroup"></path>
            <path d="M28,12 C28,12.552 27.552,13 27,13 C26.448,13 26,12.552 26,12 C26,11.448 26.448,11 27,11 C27.552,11 28,11.448 28,12" id="Fill-728" fill="#F3CC6D" sketch:type="MSShapeGroup"></path>
            <path d="M25,14 C25,14.552 24.552,15 24,15 C23.448,15 23,14.552 23,14 C23,13.448 23.448,13 24,13 C24.552,13 25,13.448 25,14" id="Fill-729" fill="#E8EDEE" sketch:type="MSShapeGroup"></path>
            <path d="M25,18 C25,18.552 24.552,19 24,19 C23.448,19 23,18.552 23,18 C23,17.448 23.448,17 24,17 C24.552,17 25,17.448 25,18" id="Fill-730" fill="#E8EDEE" sketch:type="MSShapeGroup"></path>
            <path d="M56,14 C56,14.552 55.552,15 55,15 C54.448,15 54,14.552 54,14 C54,13.448 54.448,13 55,13 C55.552,13 56,13.448 56,14" id="Fill-731" fill="#F3CC6D" sketch:type="MSShapeGroup"></path>
            <path d="M56,21 C56,21.552 55.552,22 55,22 C54.448,22 54,21.552 54,21 C54,20.448 54.448,20 55,20 C55.552,20 56,20.448 56,21" id="Fill-732" fill="#F3CC6D" sketch:type="MSShapeGroup"></path>
            <path d="M19,35 C19,35.552 18.552,36 18,36 C17.448,36 17,35.552 17,35 C17,34.448 17.448,34 18,34 C18.552,34 19,34.448 19,35" id="Fill-740" fill="#E8EDEE" sketch:type="MSShapeGroup"></path>
            <path d="M16,35 C16,35.552 15.552,36 15,36 C14.448,36 14,35.552 14,35 C14,34.448 14.448,34 15,34 C15.552,34 16,34.448 16,35" id="Fill-741" fill="#E8EDEE" sketch:type="MSShapeGroup"></path>
            <path d="M13,35 C13,35.552 12.552,36 12,36 C11.448,36 11,35.552 11,35 C11,34.448 11.448,34 12,34 C12.552,34 13,34.448 13,35" id="Fill-742" fill="#F3CC6D" sketch:type="MSShapeGroup"></path>
            <path d="M4,23 C4,23.552 3.552,24 3,24 C2.448,24 2,23.552 2,23 C2,22.448 2.448,22 3,22 C3.552,22 4,22.448 4,23" id="Fill-743" fill="#F3CC6D" sketch:type="MSShapeGroup"></path>
            <path d="M4,26 C4,26.552 3.552,27 3,27 C2.448,27 2,26.552 2,26 C2,25.448 2.448,25 3,25 C3.552,25 4,25.448 4,26" id="Fill-744" fill="#F3CC6D" sketch:type="MSShapeGroup"></path>
            <path d="M4,29 C4,29.552 3.552,30 3,30 C2.448,30 2,29.552 2,29 C2,28.448 2.448,28 3,28 C3.552,28 4,28.448 4,29" id="Fill-745" fill="#F3CC6D" sketch:type="MSShapeGroup"></path>
            <path d="M28,15 C28,15.552 27.552,16 27,16 C26.448,16 26,15.552 26,15 C26,14.448 26.448,14 27,14 C27.552,14 28,14.448 28,15" id="Fill-746" fill="#F3CC6D" sketch:type="MSShapeGroup"></path>
            <path d="M28,18 C28,18.552 27.552,19 27,19 C26.448,19 26,18.552 26,18 C26,17.448 26.448,17 27,17 C27.552,17 28,17.448 28,18" id="Fill-747" fill="#E8EDEE" sketch:type="MSShapeGroup"></path>
            <path d="M50.291,27 L33.709,27 C32.765,27 32,26.235 32,25.291 L32,8.71 C32,7.765 32.765,7 33.709,7 L50.291,7 C51.235,7 52,7.765 52,8.71 L52,25.291 C52,26.235 51.235,27 50.291,27" id="Fill-1051" fill="#28812F" sketch:type="MSShapeGroup"></path>
            <path d="M32,0 L36,0 L36,3 L32,3 L32,0 Z" id="Fill-1052" fill="#546A79" sketch:type="MSShapeGroup"></path>
            <path d="M36,0 L40,0 L40,3 L36,3 L36,0 Z" id="Fill-1053" fill="#38454F" sketch:type="MSShapeGroup"></path>
            <path d="M40,0 L44,0 L44,3 L40,3 L40,0 Z" id="Fill-1054" fill="#546A79" sketch:type="MSShapeGroup"></path>
            <path d="M44,0 L48,0 L48,3 L44,3 L44,0 Z" id="Fill-1055" fill="#38454F" sketch:type="MSShapeGroup"></path>
            <path d="M48,0 L52,0 L52,3 L48,3 L48,0 Z" id="Fill-1056" fill="#546A79" sketch:type="MSShapeGroup"></path>
            <path d="M54,34 L52,34 C51.447,34 51,33.553 51,33 C51,32.447 51.447,32 52,32 L54,32 C54.553,32 55,32.447 55,33 C55,33.553 54.553,34 54,34" id="Fill-1057" fill="#BFA380" sketch:type="MSShapeGroup"></path>
            <path d="M54,38 L52,38 C51.447,38 51,37.553 51,37 C51,36.447 51.447,36 52,36 L54,36 C54.553,36 55,36.447 55,37 C55,37.553 54.553,38 54,38" id="Fill-1058" fill="#BFA380" sketch:type="MSShapeGroup"></path>
            <path d="M24,34 L26,34 C26.552,34 27,33.553 27,33 C27,32.447 26.552,32 26,32 L24,32 C23.448,32 23,32.447 23,33 C23,33.553 23.448,34 24,34" id="Fill-1059" fill="#8F8F99" sketch:type="MSShapeGroup"></path>
            <path d="M26,36 L24,36 C23.448,36 23,36.447 23,37 C23,37.553 23.448,38 24,38 L26,38 C26.552,38 27,37.553 27,37 C27,36.447 26.552,36 26,36" id="Fill-1060" fill="#8F8F99" sketch:type="MSShapeGroup"></path>
            <path d="M26,40 L24,40 C23.448,40 23,40.447 23,41 C23,41.553 23.448,42 24,42 L26,42 C26.552,42 27,41.553 27,41 C27,40.447 26.552,40 26,40" id="Fill-1061" fill="#8F8F99" sketch:type="MSShapeGroup"></path>
            <path d="M26,44 L24,44 C23.448,44 23,44.447 23,45 C23,45.553 23.448,46 24,46 L26,46 C26.552,46 27,45.553 27,45 C27,44.447 26.552,44 26,44" id="Fill-1062" fill="#8F8F99" sketch:type="MSShapeGroup"></path>
            <path d="M54,42 L52,42 C51.447,42 51,41.553 51,41 C51,40.447 51.447,40 52,40 L54,40 C54.553,40 55,40.447 55,41 C55,41.553 54.553,42 54,42" id="Fill-1063" fill="#BFA380" sketch:type="MSShapeGroup"></path>
            <path d="M54,46 L52,46 C51.447,46 51,45.553 51,45 C51,44.447 51.447,44 52,44 L54,44 C54.553,44 55,44.447 55,45 C55,45.553 54.553,46 54,46" id="Fill-1064" fill="#BFA380" sketch:type="MSShapeGroup"></path>
            <path d="M20,42 L18,42 C17.448,42 17,41.553 17,41 C17,40.447 17.448,40 18,40 L20,40 C20.552,40 21,40.447 21,41 C21,41.553 20.552,42 20,42" id="Fill-1065" fill="#F3CC6D" sketch:type="MSShapeGroup"></path>
            <path d="M20,45 L18,45 C17.448,45 17,44.553 17,44 C17,43.447 17.448,43 18,43 L20,43 C20.552,43 21,43.447 21,44 C21,44.553 20.552,45 20,45" id="Fill-1066" fill="#F3CC6D" sketch:type="MSShapeGroup"></path>
            <path d="M12,42 L10,42 C9.448,42 9,41.553 9,41 C9,40.447 9.448,40 10,40 L12,40 C12.552,40 13,40.447 13,41 C13,41.553 12.552,42 12,42" id="Fill-1067" fill="#F3CC6D" sketch:type="MSShapeGroup"></path>
            <path d="M12,45 L10,45 C9.448,45 9,44.553 9,44 C9,43.447 9.448,43 10,43 L12,43 C12.552,43 13,43.447 13,44 C13,44.553 12.552,45 12,45" id="Fill-1068" fill="#F3CC6D" sketch:type="MSShapeGroup"></path>
            <path d="M10,23 C9.448,23 9,22.553 9,22 L9,20 C9,19.447 9.448,19 10,19 C10.552,19 11,19.447 11,20 L11,22 C11,22.553 10.552,23 10,23" id="Fill-1069" fill="#38454F" sketch:type="MSShapeGroup"></path>
            <path d="M18,29 C17.448,29 17,28.553 17,28 L17,26 C17,25.447 17.448,25 18,25 C18.552,25 19,25.447 19,26 L19,28 C19,28.553 18.552,29 18,29" id="Fill-1070" fill="#38454F" sketch:type="MSShapeGroup"></path>
            <path d="M7,26 L12,26 L12,31 L7,31 L7,26 Z" id="Fill-1071" fill="#333331" sketch:type="MSShapeGroup"></path>
            <path d="M37,12 L47,12 L47,22 L37,22 L37,12 Z" id="Fill-1719" fill="#333331" sketch:type="MSShapeGroup"></path>
            <path d="M38,9 L40,9 L40,12 L38,12 L38,9 Z" id="Fill-1720" fill="#BFA380" sketch:type="MSShapeGroup"></path>
            <path d="M41,9 L43,9 L43,12 L41,12 L41,9 Z" id="Fill-1721" fill="#BFA380" sketch:type="MSShapeGroup"></path>
            <path d="M44,9 L46,9 L46,12 L44,12 L44,9 Z" id="Fill-1722" fill="#BFA380" sketch:type="MSShapeGroup"></path>
            <path d="M38,22 L40,22 L40,25 L38,25 L38,22 Z" id="Fill-1723" fill="#BFA380" sketch:type="MSShapeGroup"></path>
            <path d="M41,22 L43,22 L43,25 L41,25 L41,22 Z" id="Fill-1724" fill="#BFA380" sketch:type="MSShapeGroup"></path>
            <path d="M44,22 L46,22 L46,25 L44,25 L44,22 Z" id="Fill-1725" fill="#BFA380" sketch:type="MSShapeGroup"></path>
            <path d="M47,13 L50,13 L50,15 L47,15 L47,13 Z" id="Fill-1726" fill="#BFA380" sketch:type="MSShapeGroup"></path>
            <path d="M47,16 L50,16 L50,18 L47,18 L47,16 Z" id="Fill-1727" fill="#BFA380" sketch:type="MSShapeGroup"></path>
            <path d="M47,19 L50,19 L50,21 L47,21 L47,19 Z" id="Fill-1728" fill="#BFA380" sketch:type="MSShapeGroup"></path>
            <path d="M34,13 L37,13 L37,15 L34,15 L34,13 Z" id="Fill-1729" fill="#BFA380" sketch:type="MSShapeGroup"></path>
            <path d="M34,16 L37,16 L37,18 L34,18 L34,16 Z" id="Fill-1730" fill="#BFA380" sketch:type="MSShapeGroup"></path>
            <path d="M34,19 L37,19 L37,21 L34,21 L34,19 Z" id="Fill-1731" fill="#BFA380" sketch:type="MSShapeGroup"></path>
            <path d="M16,3 L20,3 L20,26 L16,26 L16,3 Z" id="Fill-1946" fill="#353A37" sketch:type="MSShapeGroup"></path>
            <path d="M8,3 L12,3 L12,20 L8,20 L8,3 Z" id="Fill-1947" fill="#353A37" sketch:type="MSShapeGroup"></path>
            <path d="M12,39 L18,39 L18,46 L12,46 L12,39 Z" id="Fill-1948" fill="#333331" sketch:type="MSShapeGroup"></path>
            <path d="M26,39 L52,39 L52,43 L26,43 L26,39 Z" id="Fill-1949" fill="#38454F" sketch:type="MSShapeGroup"></path>
            <path d="M26,35 L52,35 L52,39 L26,39 L26,35 Z" id="Fill-1950" fill="#DD342E" sketch:type="MSShapeGroup"></path>
            <path d="M26,43 L28,43 L28,47 L26,47 L26,43 Z" id="Fill-1951" fill="#DD342E" sketch:type="MSShapeGroup"></path>
            <path d="M30,43 L48,43 L48,47 L30,47 L30,43 Z" id="Fill-1952" fill="#DD342E" sketch:type="MSShapeGroup"></path>
            <path d="M50,43 L52,43 L52,47 L50,47 L50,43 Z" id="Fill-1953" fill="#DD342E" sketch:type="MSShapeGroup"></path>
            <path d="M30,31 L48,31 L48,35 L30,35 L30,31 Z" id="Fill-1954" fill="#38454F" sketch:type="MSShapeGroup"></path>
            <path d="M50,31 L52,31 L52,35 L50,35 L50,31 Z" id="Fill-1955" fill="#38454F" sketch:type="MSShapeGroup"></path>
            <path d="M26,31 L28,31 L28,35 L26,35 L26,31 Z" id="Fill-1956" fill="#38454F" sketch:type="MSShapeGroup"></path>
            <path d="M28,35 L28,47 L30,47 L30,31 L28,31 L28,35" id="Fill-1957" fill="#283238" sketch:type="MSShapeGroup"></path>
            <path d="M48,47 L50,47 L50,31 L48,31 L48,47 Z" id="Fill-1958" fill="#283238" sketch:type="MSShapeGroup"></path>
            <path d="M27,1 C27,0.447 26.552,0 26,0 C25.448,0 25,0.447 25,1 L25,3 L27,3 L27,1" id="Fill-1959" fill="#CBD4D8" sketch:type="MSShapeGroup"></path>
            <path d="M30,1 C30,0.447 29.552,0 29,0 C28.448,0 28,0.447 28,1 L28,3 L30,3 L30,1" id="Fill-1960" fill="#CBD4D8" sketch:type="MSShapeGroup"></path>
            <path d="M56,1 C56,0.447 55.553,0 55,0 C54.447,0 54,0.447 54,1 L54,3 L56,3 L56,1" id="Fill-1961" fill="#CBD4D8" sketch:type="MSShapeGroup"></path>
        </g>
    </g>
</svg>