<?xml version="1.0" encoding="UTF-8" standalone="no"?>
<svg width="45px" height="58px" viewBox="0 0 45 58" version="1.1" xmlns="http://www.w3.org/2000/svg" xmlns:xlink="http://www.w3.org/1999/xlink" xmlns:sketch="http://www.bohemiancoding.com/sketch/ns">
    <!-- Generator: Sketch 3.2.2 (9983) - http://www.bohemiancoding.com/sketch -->
    <title>13 - Motorola 360 (Flat)</title>
    <desc>Created with Sketch.</desc>
    <defs></defs>
    <g id="Page-1" stroke="none" stroke-width="1" fill="none" fill-rule="evenodd" sketch:type="MSPage">
        <g id="13---Motorola-360-(Flat)" sketch:type="MSLayerGroup" transform="translate(1.000000, 0.000000)">
            <path d="M8,47.623 L8,58 L32,58 L32,43.973 L8,43.973 L8,47.623" id="Fill-5" fill="#BFA380" sketch:type="MSShapeGroup"></path>
            <path d="M8,12.027 L32,12.027 L32,0 L8,0 L8,12.027 Z" id="Fill-6" fill="#BFA380" sketch:type="MSShapeGroup"></path>
            <path d="M39.751,25 L44,25 L44,31 L39.751,31 L39.751,25 Z" id="Fill-792" fill="#B0B6BB" sketch:type="MSShapeGroup"></path>
            <path d="M40,28 C40,39.046 31.046,48 20,48 C8.954,48 0,39.046 0,28 C0,16.954 8.954,8 20,8 C31.046,8 40,16.954 40,28 L40,28 Z" id="Fill-1739" fill="#E8EDEE" sketch:type="MSShapeGroup"></path>
            <path d="M40,28 C40,39.046 31.046,48 20,48 C8.954,48 0,39.046 0,28 C0,16.954 8.954,8 20,8 C31.046,8 40,16.954 40,28 L40,28 Z" id="Stroke-1740" stroke="#283238" stroke-width="2" stroke-linecap="round" sketch:type="MSShapeGroup"></path>
            <path d="M9,21 C9.256,21 9.512,20.902 9.707,20.707 L13.707,16.707 C14.098,16.316 14.098,15.684 13.707,15.293 C13.316,14.902 12.684,14.902 12.293,15.293 L8.293,19.293 C7.902,19.684 7.902,20.317 8.293,20.707 C8.488,20.902 8.744,21 9,21" id="Fill-1741" fill="#FFFFFF" sketch:type="MSShapeGroup"></path>
            <path d="M9,26 C9.256,26 9.512,25.902 9.707,25.707 L11.707,23.707 C12.098,23.317 12.098,22.684 11.707,22.293 C11.316,21.902 10.684,21.902 10.293,22.293 L8.293,24.293 C7.902,24.684 7.902,25.316 8.293,25.707 C8.488,25.902 8.744,26 9,26" id="Fill-1742" fill="#FFFFFF" sketch:type="MSShapeGroup"></path>
            <path d="M12.29,20.29 C12.109,20.48 12,20.74 12,21 C12,21.26 12.109,21.52 12.29,21.71 C12.479,21.89 12.74,22 13,22 C13.26,22 13.519,21.89 13.71,21.71 C13.89,21.52 14,21.26 14,21 C14,20.74 13.89,20.48 13.71,20.29 C13.34,19.92 12.66,19.92 12.29,20.29" id="Fill-1743" fill="#FFFFFF" sketch:type="MSShapeGroup"></path>
            <path d="M14.293,19.707 C14.488,19.902 14.744,20 15,20 C15.256,20 15.512,19.902 15.707,19.707 L18.707,16.707 C19.098,16.316 19.098,15.684 18.707,15.293 C18.316,14.902 17.684,14.902 17.293,15.293 L14.293,18.293 C13.902,18.684 13.902,19.316 14.293,19.707" id="Fill-1744" fill="#FFFFFF" sketch:type="MSShapeGroup"></path>
            <path d="M17.293,20.293 L8.293,29.293 C7.902,29.684 7.902,30.316 8.293,30.707 C8.488,30.902 8.744,31 9,31 C9.256,31 9.512,30.902 9.707,30.707 L18.707,21.707 C19.098,21.316 19.098,20.684 18.707,20.293 C18.316,19.902 17.684,19.902 17.293,20.293" id="Fill-1745" fill="#FFFFFF" sketch:type="MSShapeGroup"></path>
            <path d="M19.29,18.29 C19.109,18.48 19,18.74 19,19 C19,19.26 19.109,19.52 19.29,19.71 C19.479,19.89 19.74,20 20,20 C20.26,20 20.519,19.89 20.71,19.71 C20.89,19.52 21,19.26 21,19 C21,18.74 20.89,18.48 20.71,18.29 C20.34,17.92 19.66,17.92 19.29,18.29" id="Fill-1746" fill="#FFFFFF" sketch:type="MSShapeGroup"></path>
            <path d="M23.707,15.293 C23.316,14.902 22.684,14.902 22.293,15.293 L21.293,16.293 C20.902,16.684 20.902,17.317 21.293,17.707 C21.488,17.902 21.744,18 22,18 C22.256,18 22.512,17.902 22.707,17.707 L23.707,16.707 C24.098,16.316 24.098,15.684 23.707,15.293" id="Fill-1747" fill="#FFFFFF" sketch:type="MSShapeGroup"></path>
            <path d="M5.729,42 C9.358,45.7 14.408,48 20,48 C25.592,48 30.642,45.7 34.271,42 L5.729,42" id="Fill-1748" fill="#283238" sketch:type="MSShapeGroup"></path>
        </g>
    </g>
</svg>