<?xml version="1.0" encoding="UTF-8" standalone="no"?>
<svg width="58px" height="54px" viewBox="0 0 58 54" version="1.1" xmlns="http://www.w3.org/2000/svg" xmlns:xlink="http://www.w3.org/1999/xlink" xmlns:sketch="http://www.bohemiancoding.com/sketch/ns">
    <!-- Generator: Sketch 3.2.2 (9983) - http://www.bohemiancoding.com/sketch -->
    <title>60 - Nintendo 64 Controller (Flat)</title>
    <desc>Created with Sketch.</desc>
    <defs></defs>
    <g id="Page-1" stroke="none" stroke-width="1" fill="none" fill-rule="evenodd" sketch:type="MSPage">
        <g id="60---Nintendo-64-Controller-(Flat)" sketch:type="MSLayerGroup" transform="translate(-1.000000, 0.000000)">
            <path d="M57.808,16.872 C57.371,14.728 56.213,12.822 54.684,11.304 C52.487,9.124 48.508,7 43.903,7 L30,7 L16.097,7 C11.492,7 7.513,9.124 5.316,11.304 C3.787,12.822 2.629,14.728 2.192,16.872 C1.308,21.206 3.647,23.868 5.816,25.353 C7.24,26.329 8.908,26.819 10.605,27.011 C14.902,27.496 17.304,29.868 18.591,31.878 C19.42,33.174 19.887,34.676 20.109,36.214 C21.349,44.822 24.539,49.88 26.964,52.591 C28.601,54.42 31.399,54.42 33.036,52.591 C35.461,49.88 38.651,44.822 39.891,36.214 C40.113,34.676 40.58,33.174 41.409,31.878 C42.696,29.868 45.098,27.496 49.395,27.011 C51.092,26.819 52.76,26.329 54.184,25.353 C56.353,23.868 58.692,21.206 57.808,16.872" id="Fill-949" fill="#CBD4D8" sketch:type="MSShapeGroup"></path>
            <path d="M58,17.972 L57.961,17.97 C58.275,21.659 56.162,23.998 54.184,25.353 C52.76,26.329 51.092,26.819 49.395,27.011 C47.176,27.261 45.47,28.018 44.155,28.966 L44.438,31.896 C44.438,31.896 46.148,47.768 50.191,51.755 C52.139,53.676 53.82,53.01 54.854,52.17 C55.537,51.614 56.047,50.877 56.38,50.062 C60.925,38.933 58.233,19.11 58,17.972" id="Fill-950" fill="#B0B6BB" sketch:type="MSShapeGroup"></path>
            <path d="M10.605,27.011 C8.908,26.819 7.24,26.329 5.816,25.353 C3.838,23.998 1.725,21.659 2.039,17.97 L2,17.972 C1.767,19.11 -0.925,38.933 3.62,50.062 C3.953,50.877 4.463,51.614 5.146,52.17 C6.18,53.01 7.861,53.676 9.809,51.755 C13.852,47.768 15.562,31.896 15.562,31.896 L15.845,28.966 C14.53,28.018 12.824,27.261 10.605,27.011" id="Fill-951" fill="#B0B6BB" sketch:type="MSShapeGroup"></path>
            <path d="M44,7 L16,7 L17.07,4.325 C17.654,2.865 18.904,1.774 20.429,1.393 L21.46,1.135 C27.271,-0.437 32.933,-0.267 38.54,1.135 L39.571,1.393 C41.096,1.774 42.346,2.865 42.93,4.325 L44,7" id="Fill-952" fill="#B0B6BB" sketch:type="MSShapeGroup"></path>
            <path d="M41,15 C41,16.657 39.657,18 38,18 C36.343,18 35,16.657 35,15 C35,13.343 36.343,12 38,12 C39.657,12 41,13.343 41,15" id="Fill-1458" fill="#42B05C" sketch:type="MSShapeGroup"></path>
            <path d="M44,18 C45.657,18 47,19.343 47,21 C47,22.657 45.657,24 44,24 C42.343,24 41,22.657 41,21 C41,19.343 42.343,18 44,18" id="Fill-1459" fill="#0F81E0" sketch:type="MSShapeGroup"></path>
            <path d="M20.33,16 L18.67,16 C18.3,16 18,15.7 18,15.33 L18,13.67 C18,13.3 17.7,13 17.33,13 L14.67,13 C14.3,13 14,13.3 14,13.67 L14,15.33 C14,15.7 13.7,16 13.33,16 L11.67,16 C11.3,16 11,16.3 11,16.67 L11,19.33 C11,19.7 11.3,20 11.67,20 L13.33,20 C13.7,20 14,20.3 14,20.67 L14,22.33 C14,22.7 14.3,23 14.67,23 L17.33,23 C17.7,23 18,22.7 18,22.33 L18,20.67 C18,20.3 18.3,20 18.67,20 L20.33,20 C20.7,20 21,19.7 21,19.33 L21,16.67 C21,16.3 20.7,16 20.33,16" id="Fill-1460" fill="#38454F" sketch:type="MSShapeGroup"></path>
            <path d="M34,33 C34,35.209 32.209,37 30,37 C27.791,37 26,35.209 26,33 C26,30.791 27.791,29 30,29 C32.209,29 34,30.791 34,33" id="Fill-1461" fill="#E8EDEE" sketch:type="MSShapeGroup"></path>
            <path d="M33.998,33.025 C33.984,35.222 32.201,37 30,37 C27.799,37 26.016,35.222 26.002,33.025 C25.381,33.858 25,34.881 25,36 C25,38.762 27.239,41 30,41 C32.761,41 35,38.762 35,36 C35,34.881 34.619,33.858 33.998,33.025" id="Fill-1462" fill="#546A79" sketch:type="MSShapeGroup"></path>
            <path d="M50,12 C50,12.552 49.552,13 49,13 C48.448,13 48,12.552 48,12 C48,11.448 48.448,11 49,11 C49.552,11 50,11.448 50,12" id="Fill-1463" fill="#ECBA16" sketch:type="MSShapeGroup"></path>
            <path d="M50,16 C50,16.552 49.552,17 49,17 C48.448,17 48,16.552 48,16 C48,15.448 48.448,15 49,15 C49.552,15 50,15.448 50,16" id="Fill-1464" fill="#ECBA16" sketch:type="MSShapeGroup"></path>
            <path d="M48,14 C48,14.552 47.552,15 47,15 C46.448,15 46,14.552 46,14 C46,13.448 46.448,13 47,13 C47.552,13 48,13.448 48,14" id="Fill-1465" fill="#ECBA16" sketch:type="MSShapeGroup"></path>
            <path d="M52,14 C52,14.552 51.552,15 51,15 C50.448,15 50,14.552 50,14 C50,13.448 50.448,13 51,13 C51.552,13 52,13.448 52,14" id="Fill-1466" fill="#ECBA16" sketch:type="MSShapeGroup"></path>
        </g>
    </g>
</svg>