<?xml version="1.0" encoding="UTF-8" standalone="no"?>
<svg width="34px" height="58px" viewBox="0 0 34 58" version="1.1" xmlns="http://www.w3.org/2000/svg" xmlns:xlink="http://www.w3.org/1999/xlink" xmlns:sketch="http://www.bohemiancoding.com/sketch/ns">
    <!-- Generator: Sketch 3.2.2 (9983) - http://www.bohemiancoding.com/sketch -->
    <title>64 - Note 3 (Flat)</title>
    <desc>Created with Sketch.</desc>
    <defs></defs>
    <g id="Page-1" stroke="none" stroke-width="1" fill="none" fill-rule="evenodd" sketch:type="MSPage">
        <g id="64---Note-3-(Flat)" sketch:type="MSLayerGroup">
            <path d="M31.912,58 L2.088,58 C0.935,58 0,57.065 0,55.912 L0,2.088 C0,0.935 0.935,0 2.088,0 L31.912,0 C33.065,0 34,0.935 34,2.088 L34,55.912 C34,57.065 33.065,58 31.912,58" id="Fill-923" fill="#38454F" sketch:type="MSShapeGroup"></path>
            <path d="M0,6 L34,6 L34,49 L0,49 L0,6 Z" id="Fill-1411" fill="#48A0DC" sketch:type="MSShapeGroup"></path>
            <path d="M3,13 L7,9 M3,18 L5,16 M9,12 L12,9 M3,23 L12,14" id="Stroke-1412" stroke="#0F81E0" stroke-width="2" stroke-linecap="round" sketch:type="MSShapeGroup"></path>
            <path d="M4,4 C3.74,4 3.479,3.89 3.29,3.71 C3.109,3.52 3,3.26 3,3 C3,2.73 3.109,2.48 3.29,2.29 C3.66,1.92 4.33,1.92 4.71,2.29 C4.89,2.48 5,2.74 5,3 C5,3.26 4.89,3.52 4.71,3.71 C4.519,3.899 4.26,4 4,4" id="Fill-1413" fill="#546A79" sketch:type="MSShapeGroup"></path>
            <path d="M16,10 L17,9" id="Stroke-1414" stroke="#0F81E0" stroke-width="2" stroke-linecap="round" sketch:type="MSShapeGroup"></path>
            <path d="M20,4 L14,4 C13.447,4 13,3.553 13,3 C13,2.447 13.447,2 14,2 L20,2 C20.553,2 21,2.447 21,3 C21,3.553 20.553,4 20,4" id="Fill-1415" fill="#CBD4D8" sketch:type="MSShapeGroup"></path>
            <path d="M29,4 L28,4 C27.447,4 27,3.553 27,3 C27,2.447 27.447,2 28,2 L29,2 C29.553,2 30,2.447 30,3 C30,3.553 29.553,4 29,4" id="Fill-1416" fill="#546A79" sketch:type="MSShapeGroup"></path>
            <path d="M25,4 L24,4 C23.447,4 23,3.553 23,3 C23,2.447 23.447,2 24,2 L25,2 C25.553,2 26,2.447 26,3 C26,3.553 25.553,4 25,4" id="Fill-1417" fill="#546A79" sketch:type="MSShapeGroup"></path>
            <path d="M19.5,55 L14.5,55 C13.675,55 13,54.325 13,53.5 C13,52.675 13.675,52 14.5,52 L19.5,52 C20.325,52 21,52.675 21,53.5 C21,54.325 20.325,55 19.5,55" id="Fill-1418" fill="#CBD4D8" sketch:type="MSShapeGroup"></path>
        </g>
    </g>
</svg>