<?xml version="1.0" encoding="UTF-8" standalone="no"?>
<svg width="60px" height="49px" viewBox="0 0 60 49" version="1.1" xmlns="http://www.w3.org/2000/svg" xmlns:xlink="http://www.w3.org/1999/xlink" xmlns:sketch="http://www.bohemiancoding.com/sketch/ns">
    <!-- Generator: Sketch 3.2.2 (9983) - http://www.bohemiancoding.com/sketch -->
    <title>32 - Odyssey (Flat)</title>
    <desc>Created with Sketch.</desc>
    <defs></defs>
    <g id="Page-1" stroke="none" stroke-width="1" fill="none" fill-rule="evenodd" sketch:type="MSPage">
        <g id="32---Odyssey-(Flat)" sketch:type="MSLayerGroup" transform="translate(1.000000, 1.000000)">
            <path d="M4,45 L54,45 L54,48 L4,48 L4,45 Z" id="Fill-1026" fill="#BFA380" sketch:type="MSShapeGroup"></path>
            <path d="M56.726,45 L1.274,45 C0.57,45 0,44.43 0,43.726 L0,1.274 C0,0.57 0.57,0 1.274,0 L56.726,0 C57.43,0 58,0.57 58,1.274 L58,43.726 C58,44.43 57.43,45 56.726,45 L56.726,45 Z" id="Fill-1876" fill="#CFC6A8" sketch:type="MSShapeGroup"></path>
            <path d="M56.726,45 L1.274,45 C0.57,45 0,44.43 0,43.726 L0,1.274 C0,0.57 0.57,0 1.274,0 L56.726,0 C57.43,0 58,0.57 58,1.274 L58,43.726 C58,44.43 57.43,45 56.726,45 L56.726,45 Z" id="Stroke-1877" stroke="#6B5B4B" stroke-width="2" sketch:type="MSShapeGroup"></path>
            <path d="M47,24 L51,24 L51,28 L47,28 L47,24 Z" id="Fill-1878" fill="#B0B6BB" sketch:type="MSShapeGroup"></path>
            <path d="M51,24 L55,24 L55,28 L51,28 L51,24 Z" id="Fill-1879" fill="#E8EDEE" sketch:type="MSShapeGroup"></path>
            <path d="M54,17 L48,17 C47.447,17 47,16.553 47,16 C47,15.447 47.447,15 48,15 L54,15 C54.553,15 55,15.447 55,16 C55,16.553 54.553,17 54,17" id="Fill-1880" fill="#6B5B4B" sketch:type="MSShapeGroup"></path>
            <path d="M54,14 L48,14 C47.447,14 47,13.553 47,13 C47,12.447 47.447,12 48,12 L54,12 C54.553,12 55,12.447 55,13 C55,13.553 54.553,14 54,14" id="Fill-1881" fill="#6B5B4B" sketch:type="MSShapeGroup"></path>
            <path d="M54,11 L48,11 C47.447,11 47,10.553 47,10 C47,9.447 47.447,9 48,9 L54,9 C54.553,9 55,9.447 55,10 C55,10.553 54.553,11 54,11" id="Fill-1882" fill="#6B5B4B" sketch:type="MSShapeGroup"></path>
            <path d="M54,8 L48,8 C47.447,8 47,7.553 47,7 C47,6.447 47.447,6 48,6 L54,6 C54.553,6 55,6.447 55,7 C55,7.553 54.553,8 54,8" id="Fill-1883" fill="#6B5B4B" sketch:type="MSShapeGroup"></path>
            <path d="M52,35 C52,34.447 52.447,34 53,34 L54.859,34 C54.413,32.278 52.862,31 51,31 C48.791,31 47,32.791 47,35 C47,37.209 48.791,39 51,39 C52.862,39 54.412,37.722 54.859,36 L53,36 C52.447,36 52,35.553 52,35" id="Fill-1884" fill="#546A79" sketch:type="MSShapeGroup"></path>
            <path d="M54.859,34 L53,34 C52.447,34 52,34.447 52,35 C52,35.553 52.447,36 53,36 L54.859,36 C54.942,35.679 55,35.348 55,35 C55,34.653 54.942,34.322 54.859,34" id="Fill-1885" fill="#E8EDEE" sketch:type="MSShapeGroup"></path>
            <path d="M7.455,4 C5.547,4 4,5.547 4,7.455 L4,37.545 C4,39.453 5.547,41 7.455,41 L23,41 L23,4 L7.455,4" id="Fill-1886" fill="#283238" sketch:type="MSShapeGroup"></path>
            <path d="M40.545,4 L25,4 L25,41 L40.545,41 C42.453,41 44,39.453 44,37.545 L44,7.455 C44,5.547 42.453,4 40.545,4" id="Fill-1887" fill="#283238" sketch:type="MSShapeGroup"></path>
            <path d="M23,4 L25,4 L25,41 L23,41 L23,4 Z" id="Fill-1888" fill="#546A79" sketch:type="MSShapeGroup"></path>
            <path d="M8,37 C7.447,37 7,36.553 7,36 L7,29 C7,28.447 7.447,28 8,28 C8.553,28 9,28.447 9,29 L9,36 C9,36.553 8.553,37 8,37" id="Fill-1889" fill="#546A79" sketch:type="MSShapeGroup"></path>
            <path d="M40,17 C39.447,17 39,16.553 39,16 L39,9 C39,8.447 39.447,8 40,8 C40.553,8 41,8.447 41,9 L41,16 C41,16.553 40.553,17 40,17" id="Fill-1890" fill="#546A79" sketch:type="MSShapeGroup"></path>
            <path d="M37,16 C37,16.552 36.552,17 36,17 C35.448,17 35,16.552 35,16 C35,15.448 35.448,15 36,15 C36.552,15 37,15.448 37,16" id="Fill-1891" fill="#FFFFFF" sketch:type="MSShapeGroup"></path>
        </g>
    </g>
</svg>