<?xml version="1.0" encoding="UTF-8" standalone="no"?>
<svg width="56px" height="58px" viewBox="0 0 56 58" version="1.1" xmlns="http://www.w3.org/2000/svg" xmlns:xlink="http://www.w3.org/1999/xlink" xmlns:sketch="http://www.bohemiancoding.com/sketch/ns">
    <!-- Generator: Sketch 3.2.2 (9983) - http://www.bohemiancoding.com/sketch -->
    <title>106 - Old iMac (Flat)</title>
    <desc>Created with Sketch.</desc>
    <defs></defs>
    <g id="Page-1" stroke="none" stroke-width="1" fill="none" fill-rule="evenodd" sketch:type="MSPage">
        <g id="106---Old-iMac-(Flat)" sketch:type="MSLayerGroup">
            <path d="M56,53.093 C56,55.803 53.803,58 51.093,58 L4.907,58 C2.197,58 0,55.803 0,53.093 L0,5.531 C0,4.043 1.012,2.747 2.455,2.386 C10.62,0.345 45.38,0.345 53.545,2.386 C54.988,2.747 56,4.043 56,5.531 L56,53.093" id="Fill-192" fill="#E8EDEE" sketch:type="MSShapeGroup"></path>
            <path d="M9.5,43 C5.916,43 3,45.916 3,49.5 C3,53.084 5.916,56 9.5,56 C13.084,56 16,53.084 16,49.5 C16,45.916 13.084,43 9.5,43" id="Fill-193" fill="#2290AB" sketch:type="MSShapeGroup"></path>
            <path d="M46.5,43 C42.916,43 40,45.916 40,49.5 C40,53.084 42.916,56 46.5,56 C50.084,56 53,53.084 53,49.5 C53,45.916 50.084,43 46.5,43" id="Fill-194" fill="#2290AB" sketch:type="MSShapeGroup"></path>
            <path d="M36,52 L20,52 C19.448,52 19,51.552 19,51 C19,50.448 19.448,50 20,50 L36,50 C36.552,50 37,50.448 37,51 C37,51.552 36.552,52 36,52" id="Fill-195" fill="#B0B6BB" sketch:type="MSShapeGroup"></path>
            <path d="M30,47 L25,47 C24.448,47 24,46.552 24,46 C24,45.448 24.448,45 25,45 L30,45 C30.552,45 31,45.448 31,46 C31,46.552 30.552,47 30,47" id="Fill-196" fill="#546A79" sketch:type="MSShapeGroup"></path>
            <path d="M7,46.855 C7.552,46.855 8,46.408 8,45.855 C8,45.303 7.552,44.855 7,44.855 C6.448,44.855 6,45.303 6,45.855 C6,46.408 6.448,46.855 7,46.855" id="Fill-510" fill="#057A8E" sketch:type="MSShapeGroup"></path>
            <path d="M11,46.855 C11.552,46.855 12,46.408 12,45.855 C12,45.303 11.552,44.855 11,44.855 C10.448,44.855 10,45.303 10,45.855 C10,46.408 10.448,46.855 11,46.855" id="Fill-511" fill="#057A8E" sketch:type="MSShapeGroup"></path>
            <path d="M9,48.855 C9.552,48.855 10,48.408 10,47.855 C10,47.303 9.552,46.855 9,46.855 C8.448,46.855 8,47.303 8,47.855 C8,48.408 8.448,48.855 9,48.855" id="Fill-512" fill="#057A8E" sketch:type="MSShapeGroup"></path>
            <path d="M5,48.855 C5.552,48.855 6,48.408 6,47.855 C6,47.303 5.552,46.855 5,46.855 C4.448,46.855 4,47.303 4,47.855 C4,48.408 4.448,48.855 5,48.855" id="Fill-513" fill="#057A8E" sketch:type="MSShapeGroup"></path>
            <path d="M13,48.855 C13.552,48.855 14,48.408 14,47.855 C14,47.303 13.552,46.855 13,46.855 C12.448,46.855 12,47.303 12,47.855 C12,48.408 12.448,48.855 13,48.855" id="Fill-514" fill="#057A8E" sketch:type="MSShapeGroup"></path>
            <path d="M11,48.855 C10.448,48.855 10,49.303 10,49.855 C10,50.408 10.448,50.855 11,50.855 C11.552,50.855 12,50.408 12,49.855 C12,49.303 11.552,48.855 11,48.855" id="Fill-515" fill="#057A8E" sketch:type="MSShapeGroup"></path>
            <path d="M7,48.855 C6.448,48.855 6,49.303 6,49.855 C6,50.408 6.448,50.855 7,50.855 C7.552,50.855 8,50.408 8,49.855 C8,49.303 7.552,48.855 7,48.855" id="Fill-516" fill="#057A8E" sketch:type="MSShapeGroup"></path>
            <path d="M9,50.855 C8.448,50.855 8,51.303 8,51.855 C8,52.408 8.448,52.855 9,52.855 C9.552,52.855 10,52.408 10,51.855 C10,51.303 9.552,50.855 9,50.855" id="Fill-517" fill="#057A8E" sketch:type="MSShapeGroup"></path>
            <path d="M13,50.855 C12.448,50.855 12,51.303 12,51.855 C12,52.408 12.448,52.855 13,52.855 C13.552,52.855 14,52.408 14,51.855 C14,51.303 13.552,50.855 13,50.855" id="Fill-518" fill="#057A8E" sketch:type="MSShapeGroup"></path>
            <path d="M11,52.855 C10.448,52.855 10,53.303 10,53.855 C10,54.408 10.448,54.855 11,54.855 C11.552,54.855 12,54.408 12,53.855 C12,53.303 11.552,52.855 11,52.855" id="Fill-519" fill="#057A8E" sketch:type="MSShapeGroup"></path>
            <path d="M7,52.855 C6.448,52.855 6,53.303 6,53.855 C6,54.408 6.448,54.855 7,54.855 C7.552,54.855 8,54.408 8,53.855 C8,53.303 7.552,52.855 7,52.855" id="Fill-520" fill="#057A8E" sketch:type="MSShapeGroup"></path>
            <path d="M5,50.855 C4.448,50.855 4,51.303 4,51.855 C4,52.408 4.448,52.855 5,52.855 C5.552,52.855 6,52.408 6,51.855 C6,51.303 5.552,50.855 5,50.855" id="Fill-521" fill="#057A8E" sketch:type="MSShapeGroup"></path>
            <path d="M45,47 C45.552,47 46,46.552 46,46 C46,45.448 45.552,45 45,45 C44.448,45 44,45.448 44,46 C44,46.552 44.448,47 45,47" id="Fill-522" fill="#057A8E" sketch:type="MSShapeGroup"></path>
            <path d="M49,47 C49.552,47 50,46.552 50,46 C50,45.448 49.552,45 49,45 C48.448,45 48,45.448 48,46 C48,46.552 48.448,47 49,47" id="Fill-523" fill="#057A8E" sketch:type="MSShapeGroup"></path>
            <path d="M47,49 C47.552,49 48,48.552 48,48 C48,47.448 47.552,47 47,47 C46.448,47 46,47.448 46,48 C46,48.552 46.448,49 47,49" id="Fill-524" fill="#057A8E" sketch:type="MSShapeGroup"></path>
            <path d="M43,49 C43.552,49 44,48.552 44,48 C44,47.448 43.552,47 43,47 C42.448,47 42,47.448 42,48 C42,48.552 42.448,49 43,49" id="Fill-525" fill="#057A8E" sketch:type="MSShapeGroup"></path>
            <path d="M51,49 C51.552,49 52,48.552 52,48 C52,47.448 51.552,47 51,47 C50.448,47 50,47.448 50,48 C50,48.552 50.448,49 51,49" id="Fill-526" fill="#057A8E" sketch:type="MSShapeGroup"></path>
            <path d="M49,49 C48.448,49 48,49.448 48,50 C48,50.552 48.448,51 49,51 C49.552,51 50,50.552 50,50 C50,49.448 49.552,49 49,49" id="Fill-527" fill="#057A8E" sketch:type="MSShapeGroup"></path>
            <path d="M45,49 C44.448,49 44,49.448 44,50 C44,50.552 44.448,51 45,51 C45.552,51 46,50.552 46,50 C46,49.448 45.552,49 45,49" id="Fill-528" fill="#057A8E" sketch:type="MSShapeGroup"></path>
            <path d="M47,51 C46.448,51 46,51.448 46,52 C46,52.552 46.448,53 47,53 C47.552,53 48,52.552 48,52 C48,51.448 47.552,51 47,51" id="Fill-529" fill="#057A8E" sketch:type="MSShapeGroup"></path>
            <path d="M51,51 C50.448,51 50,51.448 50,52 C50,52.552 50.448,53 51,53 C51.552,53 52,52.552 52,52 C52,51.448 51.552,51 51,51" id="Fill-530" fill="#057A8E" sketch:type="MSShapeGroup"></path>
            <path d="M49,53 C48.448,53 48,53.448 48,54 C48,54.552 48.448,55 49,55 C49.552,55 50,54.552 50,54 C50,53.448 49.552,53 49,53" id="Fill-531" fill="#057A8E" sketch:type="MSShapeGroup"></path>
            <path d="M45,53 C44.448,53 44,53.448 44,54 C44,54.552 44.448,55 45,55 C45.552,55 46,54.552 46,54 C46,53.448 45.552,53 45,53" id="Fill-532" fill="#057A8E" sketch:type="MSShapeGroup"></path>
            <path d="M43,51 C42.448,51 42,51.448 42,52 C42,52.552 42.448,53 43,53 C43.552,53 44,52.552 44,52 C44,51.448 43.552,51 43,51" id="Fill-533" fill="#057A8E" sketch:type="MSShapeGroup"></path>
            <path d="M50.923,40.077 L5.077,40.077 C4.482,40.077 4,39.595 4,39 L4,7.077 C4,6.482 4.482,6 5.077,6 L50.923,6 C51.518,6 52,6.482 52,7.077 L52,39 C52,39.595 51.518,40.077 50.923,40.077" id="Fill-1249" fill="#698F92" sketch:type="MSShapeGroup"></path>
            <path d="M8,15 C8.256,15 8.512,14.902 8.707,14.707 L12.707,10.707 C13.098,10.316 13.098,9.684 12.707,9.293 C12.316,8.902 11.684,8.902 11.293,9.293 L7.293,13.293 C6.902,13.684 6.902,14.316 7.293,14.707 C7.488,14.902 7.744,15 8,15" id="Fill-1250" fill="#8FB4B5" sketch:type="MSShapeGroup"></path>
            <path d="M8,20 C8.256,20 8.512,19.902 8.707,19.707 L10.707,17.707 C11.098,17.316 11.098,16.684 10.707,16.293 C10.316,15.902 9.684,15.902 9.293,16.293 L7.293,18.293 C6.902,18.684 6.902,19.316 7.293,19.707 C7.488,19.902 7.744,20 8,20" id="Fill-1251" fill="#8FB4B5" sketch:type="MSShapeGroup"></path>
            <path d="M11.29,14.29 C11.11,14.48 11,14.74 11,15 C11,15.26 11.11,15.52 11.29,15.71 C11.48,15.89 11.74,16 12,16 C12.26,16 12.52,15.89 12.71,15.71 C12.89,15.52 13,15.26 13,15 C13,14.74 12.89,14.48 12.71,14.29 C12.34,13.92 11.66,13.92 11.29,14.29" id="Fill-1252" fill="#8FB4B5" sketch:type="MSShapeGroup"></path>
            <path d="M13.293,13.707 C13.488,13.902 13.744,14 14,14 C14.256,14 14.512,13.902 14.707,13.707 L17.707,10.707 C18.098,10.316 18.098,9.684 17.707,9.293 C17.316,8.902 16.684,8.902 16.293,9.293 L13.293,12.293 C12.902,12.684 12.902,13.316 13.293,13.707" id="Fill-1253" fill="#8FB4B5" sketch:type="MSShapeGroup"></path>
            <path d="M16.293,14.293 L7.293,23.293 C6.902,23.684 6.902,24.316 7.293,24.707 C7.488,24.902 7.744,25 8,25 C8.256,25 8.512,24.902 8.707,24.707 L17.707,15.707 C18.098,15.316 18.098,14.684 17.707,14.293 C17.316,13.902 16.684,13.902 16.293,14.293" id="Fill-1254" fill="#8FB4B5" sketch:type="MSShapeGroup"></path>
            <path d="M18.29,12.29 C18.11,12.48 18,12.74 18,13 C18,13.26 18.11,13.52 18.29,13.71 C18.48,13.89 18.73,14 19,14 C19.26,14 19.52,13.89 19.71,13.71 C19.89,13.52 20,13.26 20,13 C20,12.74 19.89,12.48 19.71,12.29 C19.34,11.92 18.67,11.92 18.29,12.29" id="Fill-1255" fill="#8FB4B5" sketch:type="MSShapeGroup"></path>
            <path d="M22.707,9.293 C22.316,8.902 21.684,8.902 21.293,9.293 L20.293,10.293 C19.902,10.684 19.902,11.316 20.293,11.707 C20.488,11.902 20.744,12 21,12 C21.256,12 21.512,11.902 21.707,11.707 L22.707,10.707 C23.098,10.316 23.098,9.684 22.707,9.293" id="Fill-1256" fill="#8FB4B5" sketch:type="MSShapeGroup"></path>
        </g>
    </g>
</svg>