<?xml version="1.0" encoding="UTF-8" standalone="no"?>
<svg width="58px" height="30px" viewBox="0 0 58 30" version="1.1" xmlns="http://www.w3.org/2000/svg" xmlns:xlink="http://www.w3.org/1999/xlink" xmlns:sketch="http://www.bohemiancoding.com/sketch/ns">
    <!-- Generator: Sketch 3.2.2 (9983) - http://www.bohemiancoding.com/sketch -->
    <title>33 - Playstation Vita (Flat)</title>
    <desc>Created with Sketch.</desc>
    <defs></defs>
    <g id="Page-1" stroke="none" stroke-width="1" fill="none" fill-rule="evenodd" sketch:type="MSPage">
        <g id="33---Playstation-Vita-(Flat)" sketch:type="MSLayerGroup">
            <path d="M29,30 L50,30 C57,30 58,22.18 58,15 C58,7.82 56.979,0 50,0 L29,0 L8,0 C1.021,0 0,7.82 0,15 C0,22.18 1,30 8,30 L29,30" id="Fill-947" fill="#283238" sketch:type="MSShapeGroup"></path>
            <path d="M13,0 L45,0 L45,30 L13,30 L13,0 Z" id="Fill-948" fill="#48A0DC" sketch:type="MSShapeGroup"></path>
            <path d="M17,9 C17.256,9 17.512,8.902 17.707,8.707 L21.707,4.707 C22.098,4.317 22.098,3.684 21.707,3.293 C21.316,2.902 20.684,2.902 20.293,3.293 L16.293,7.293 C15.902,7.684 15.902,8.316 16.293,8.707 C16.488,8.902 16.744,9 17,9" id="Fill-1539" fill="#7CCBF8" sketch:type="MSShapeGroup"></path>
            <path d="M18.293,10.293 L16.293,12.293 C15.902,12.684 15.902,13.317 16.293,13.707 C16.488,13.902 16.744,14 17,14 C17.256,14 17.512,13.902 17.707,13.707 L19.707,11.707 C20.098,11.316 20.098,10.684 19.707,10.293 C19.316,9.902 18.684,9.902 18.293,10.293" id="Fill-1540" fill="#7CCBF8" sketch:type="MSShapeGroup"></path>
            <path d="M20.29,8.29 C20.109,8.48 20,8.73 20,9 C20,9.27 20.109,9.52 20.29,9.71 C20.479,9.89 20.729,10 21,10 C21.26,10 21.519,9.89 21.71,9.71 C21.89,9.52 22,9.26 22,9 C22,8.74 21.89,8.48 21.71,8.29 C21.33,7.92 20.67,7.92 20.29,8.29" id="Fill-1541" fill="#7CCBF8" sketch:type="MSShapeGroup"></path>
            <path d="M26.707,3.293 C26.316,2.902 25.684,2.902 25.293,3.293 L22.293,6.293 C21.902,6.684 21.902,7.317 22.293,7.707 C22.488,7.902 22.744,8 23,8 C23.256,8 23.512,7.902 23.707,7.707 L26.707,4.707 C27.098,4.317 27.098,3.684 26.707,3.293" id="Fill-1542" fill="#7CCBF8" sketch:type="MSShapeGroup"></path>
            <path d="M10,20 C10,21.657 8.657,23 7,23 C5.343,23 4,21.657 4,20 C4,18.343 5.343,17 7,17 C8.657,17 10,18.343 10,20" id="Fill-1543" fill="#38454F" sketch:type="MSShapeGroup"></path>
            <path d="M54,20 C54,21.657 52.657,23 51,23 C49.343,23 48,21.657 48,20 C48,18.343 49.343,17 51,17 C52.657,17 54,18.343 54,20" id="Fill-1544" fill="#38454F" sketch:type="MSShapeGroup"></path>
            <path d="M56,4 C55.77,3.425 55.522,2.899 55.261,2.428 C54.07,0.932 52.391,0 50,0 L47.919,0 L50.919,4 L56,4" id="Fill-1545" fill="#546A79" sketch:type="MSShapeGroup"></path>
            <path d="M55.244,27.605 C55.511,27.126 55.765,26.588 56,26 L50.919,26 L47.919,30 L50,30 C52.38,30 54.055,29.081 55.244,27.605" id="Fill-1546" fill="#546A79" sketch:type="MSShapeGroup"></path>
            <path d="M2.156,3.265 C2.047,3.502 1.94,3.744 1.837,4 L6.919,4 L9.919,0 L8,0 C5.19,0 3.357,1.281 2.156,3.265" id="Fill-1547" fill="#546A79" sketch:type="MSShapeGroup"></path>
            <path d="M1.837,26 C1.947,26.276 2.062,26.537 2.18,26.79 C3.38,28.743 5.207,30 8,30 L9.919,30 L6.919,26 L1.837,26" id="Fill-1548" fill="#546A79" sketch:type="MSShapeGroup"></path>
            <path d="M7,9 C6.447,9 6,8.553 6,8 L6,7 C6,6.447 6.447,6 7,6 C7.553,6 8,6.447 8,7 L8,8 C8,8.553 7.553,9 7,9" id="Fill-1549" fill="#546A79" sketch:type="MSShapeGroup"></path>
            <path d="M10,11 L9,11 C8.447,11 8,10.553 8,10 C8,9.447 8.447,9 9,9 L10,9 C10.553,9 11,9.447 11,10 C11,10.553 10.553,11 10,11" id="Fill-1550" fill="#546A79" sketch:type="MSShapeGroup"></path>
            <path d="M5,11 L4,11 C3.447,11 3,10.553 3,10 C3,9.447 3.447,9 4,9 L5,9 C5.553,9 6,9.447 6,10 C6,10.553 5.553,11 5,11" id="Fill-1551" fill="#546A79" sketch:type="MSShapeGroup"></path>
            <path d="M7,14 C6.447,14 6,13.553 6,13 L6,12 C6,11.447 6.447,11 7,11 C7.553,11 8,11.447 8,12 L8,13 C8,13.553 7.553,14 7,14" id="Fill-1552" fill="#546A79" sketch:type="MSShapeGroup"></path>
            <path d="M51,8 C50.729,8 50.479,7.89 50.29,7.71 C50.109,7.52 50,7.26 50,7 C50,6.74 50.109,6.48 50.29,6.29 C50.67,5.92 51.33,5.92 51.71,6.29 C51.89,6.48 52,6.74 52,7 C52,7.26 51.89,7.52 51.71,7.71 C51.52,7.89 51.269,8 51,8" id="Fill-1553" fill="#546A79" sketch:type="MSShapeGroup"></path>
            <path d="M51,14 C50.74,14 50.479,13.89 50.29,13.71 C50.109,13.52 50,13.26 50,13 C50,12.74 50.109,12.48 50.29,12.29 C50.66,11.92 51.33,11.92 51.71,12.29 C51.89,12.48 52,12.74 52,13 C52,13.26 51.89,13.52 51.71,13.71 C51.52,13.9 51.26,14 51,14" id="Fill-1554" fill="#546A79" sketch:type="MSShapeGroup"></path>
            <path d="M48,11 C47.729,11 47.479,10.89 47.29,10.71 C47.109,10.52 47,10.26 47,10 C47,9.74 47.109,9.48 47.29,9.29 C47.67,8.92 48.33,8.92 48.71,9.29 C48.89,9.48 49,9.74 49,10 C49,10.26 48.89,10.52 48.71,10.71 C48.519,10.89 48.269,11 48,11" id="Fill-1555" fill="#546A79" sketch:type="MSShapeGroup"></path>
            <path d="M54,11 C53.729,11 53.47,10.89 53.29,10.71 C53.109,10.52 53,10.26 53,10 C53,9.74 53.109,9.48 53.29,9.29 C53.66,8.92 54.33,8.92 54.71,9.29 C54.89,9.48 55,9.74 55,10 C55,10.26 54.89,10.52 54.71,10.71 C54.52,10.89 54.269,11 54,11" id="Fill-1556" fill="#546A79" sketch:type="MSShapeGroup"></path>
        </g>
    </g>
</svg>