<?xml version="1.0" encoding="UTF-8" standalone="no"?>
<svg width="58px" height="58px" viewBox="0 0 58 58" version="1.1" xmlns="http://www.w3.org/2000/svg" xmlns:xlink="http://www.w3.org/1999/xlink" xmlns:sketch="http://www.bohemiancoding.com/sketch/ns">
    <!-- Generator: Sketch 3.2.2 (9983) - http://www.bohemiancoding.com/sketch -->
    <title>9 - Processor Chip (Flat)</title>
    <desc>Created with Sketch.</desc>
    <defs></defs>
    <g id="Page-1" stroke="none" stroke-width="1" fill="none" fill-rule="evenodd" sketch:type="MSPage">
        <g id="9---Processor-Chip-(Flat)" sketch:type="MSLayerGroup">
            <path d="M49,0 C49,2.761 46.761,5 44,5 C41.239,5 39,2.761 39,0 L0,0 L0,58 L39,58 C39,55.239 41.239,53 44,53 C46.761,53 49,55.239 49,58 L58,58 L58,0 L49,0" id="Fill-1001" fill="#56A157" sketch:type="MSShapeGroup"></path>
            <path d="M0,0 L0,8 L8,0 L0,0" id="Fill-1610" fill="#ECDA6C" sketch:type="MSShapeGroup"></path>
            <path d="M43.033,10 L14.967,10 C12.224,10 10,12.224 10,14.967 L10,20.5 C10,21.328 10.672,22 11.5,22 C12.328,22 13,22.672 13,23.5 L13,34.5 C13,35.328 12.328,36 11.5,36 C10.672,36 10,36.672 10,37.5 L10,43.033 C10,45.776 12.224,48 14.967,48 L43.033,48 C45.776,48 48,45.776 48,43.034 L48,14.967 C48,12.224 45.776,10 43.033,10" id="Fill-1611" fill="#EDDC6E" sketch:type="MSShapeGroup"></path>
            <path d="M3,49 C2.448,49 2,49.448 2,50 C2,50.552 2.448,51 3,51 C3.552,51 4,50.552 4,50 C4,49.448 3.552,49 3,49" id="Fill-1612" fill="#EDDC6E" sketch:type="MSShapeGroup"></path>
            <path d="M3,54 C2.448,54 2,54.448 2,55 C2,55.552 2.448,56 3,56 C3.552,56 4,55.552 4,55 C4,54.448 3.552,54 3,54" id="Fill-1613" fill="#EDDC6E" sketch:type="MSShapeGroup"></path>
            <path d="M55,4 C55.552,4 56,3.552 56,3 C56,2.448 55.552,2 55,2 C54.448,2 54,2.448 54,3 C54,3.552 54.448,4 55,4" id="Fill-1614" fill="#EDDC6E" sketch:type="MSShapeGroup"></path>
            <path d="M55,54 C54.448,54 54,54.448 54,55 C54,55.552 54.448,56 55,56 C55.552,56 56,55.552 56,55 C56,54.448 55.552,54 55,54" id="Fill-1615" fill="#EDDC6E" sketch:type="MSShapeGroup"></path>
            <path d="M5,47 C4.448,47 4,47.448 4,48 C4,48.552 4.448,49 5,49 C5.552,49 6,48.552 6,48 C6,47.448 5.552,47 5,47" id="Fill-1616" fill="#EDDC6E" sketch:type="MSShapeGroup"></path>
            <path d="M53,35 C53.552,35 54,34.552 54,34 C54,33.448 53.552,33 53,33 C52.448,33 52,33.448 52,34 C52,34.552 52.448,35 53,35" id="Fill-1617" fill="#EDDC6E" sketch:type="MSShapeGroup"></path>
            <path d="M55,35 C54.448,35 54,35.448 54,36 C54,36.552 54.448,37 55,37 C55.552,37 56,36.552 56,36 C56,35.448 55.552,35 55,35" id="Fill-1618" fill="#EDDC6E" sketch:type="MSShapeGroup"></path>
            <path d="M53,43 C52.448,43 52,43.448 52,44 C52,44.552 52.448,45 53,45 C53.552,45 54,44.552 54,44 C54,43.448 53.552,43 53,43" id="Fill-1619" fill="#EDDC6E" sketch:type="MSShapeGroup"></path>
            <path d="M55,45 C54.448,45 54,45.448 54,46 C54,46.552 54.448,47 55,47 C55.552,47 56,46.552 56,46 C56,45.448 55.552,45 55,45" id="Fill-1620" fill="#EDDC6E" sketch:type="MSShapeGroup"></path>
            <path d="M53,25 C53.552,25 54,24.552 54,24 C54,23.448 53.552,23 53,23 C52.448,23 52,23.448 52,24 C52,24.552 52.448,25 53,25" id="Fill-1621" fill="#EDDC6E" sketch:type="MSShapeGroup"></path>
            <path d="M55,25 C54.448,25 54,25.448 54,26 C54,26.552 54.448,27 55,27 C55.552,27 56,26.552 56,26 C56,25.448 55.552,25 55,25" id="Fill-1622" fill="#EDDC6E" sketch:type="MSShapeGroup"></path>
            <path d="M3,46 C3.552,46 4,45.552 4,45 C4,44.448 3.552,44 3,44 C2.448,44 2,44.448 2,45 C2,45.552 2.448,46 3,46" id="Fill-1623" fill="#EDDC6E" sketch:type="MSShapeGroup"></path>
            <path d="M5,42 C4.448,42 4,42.448 4,43 C4,43.552 4.448,44 5,44 C5.552,44 6,43.552 6,43 C6,42.448 5.552,42 5,42" id="Fill-1624" fill="#EDDC6E" sketch:type="MSShapeGroup"></path>
            <path d="M3,41 C3.552,41 4,40.552 4,40 C4,39.448 3.552,39 3,39 C2.448,39 2,39.448 2,40 C2,40.552 2.448,41 3,41" id="Fill-1625" fill="#EDDC6E" sketch:type="MSShapeGroup"></path>
            <path d="M5,37 C4.448,37 4,37.448 4,38 C4,38.552 4.448,39 5,39 C5.552,39 6,38.552 6,38 C6,37.448 5.552,37 5,37" id="Fill-1626" fill="#EDDC6E" sketch:type="MSShapeGroup"></path>
            <path d="M3,36 C3.552,36 4,35.552 4,35 C4,34.448 3.552,34 3,34 C2.448,34 2,34.448 2,35 C2,35.552 2.448,36 3,36" id="Fill-1627" fill="#EDDC6E" sketch:type="MSShapeGroup"></path>
            <path d="M5,32 C4.448,32 4,32.448 4,33 C4,33.552 4.448,34 5,34 C5.552,34 6,33.552 6,33 C6,32.448 5.552,32 5,32" id="Fill-1628" fill="#EDDC6E" sketch:type="MSShapeGroup"></path>
            <path d="M3,31 C3.552,31 4,30.552 4,30 C4,29.448 3.552,29 3,29 C2.448,29 2,29.448 2,30 C2,30.552 2.448,31 3,31" id="Fill-1629" fill="#EDDC6E" sketch:type="MSShapeGroup"></path>
            <path d="M5,27 C4.448,27 4,27.448 4,28 C4,28.552 4.448,29 5,29 C5.552,29 6,28.552 6,28 C6,27.448 5.552,27 5,27" id="Fill-1630" fill="#EDDC6E" sketch:type="MSShapeGroup"></path>
            <path d="M3,26 C3.552,26 4,25.552 4,25 C4,24.448 3.552,24 3,24 C2.448,24 2,24.448 2,25 C2,25.552 2.448,26 3,26" id="Fill-1631" fill="#EDDC6E" sketch:type="MSShapeGroup"></path>
            <path d="M5,22 C4.448,22 4,22.448 4,23 C4,23.552 4.448,24 5,24 C5.552,24 6,23.552 6,23 C6,22.448 5.552,22 5,22" id="Fill-1632" fill="#EDDC6E" sketch:type="MSShapeGroup"></path>
            <path d="M3,11 C3.552,11 4,10.552 4,10 C4,9.448 3.552,9 3,9 C2.448,9 2,9.448 2,10 C2,10.552 2.448,11 3,11" id="Fill-1633" fill="#EDDC6E" sketch:type="MSShapeGroup"></path>
            <path d="M16,2 C15.448,2 15,2.448 15,3 C15,3.552 15.448,4 16,4 C16.552,4 17,3.552 17,3 C17,2.448 16.552,2 16,2" id="Fill-1634" fill="#EDDC6E" sketch:type="MSShapeGroup"></path>
            <path d="M12,2 C11.448,2 11,2.448 11,3 C11,3.552 11.448,4 12,4 C12.552,4 13,3.552 13,3 C13,2.448 12.552,2 12,2" id="Fill-1635" fill="#EDDC6E" sketch:type="MSShapeGroup"></path>
            <path d="M3,14 C3.552,14 4,13.552 4,13 C4,12.448 3.552,12 3,12 C2.448,12 2,12.448 2,13 C2,13.552 2.448,14 3,14" id="Fill-1636" fill="#EDDC6E" sketch:type="MSShapeGroup"></path>
            <path d="M36,54 C35.448,54 35,54.448 35,55 C35,55.552 35.448,56 36,56 C36.552,56 37,55.552 37,55 C37,54.448 36.552,54 36,54" id="Fill-1637" fill="#EDDC6E" sketch:type="MSShapeGroup"></path>
            <path d="M34,52 C33.448,52 33,52.448 33,53 C33,53.552 33.448,54 34,54 C34.552,54 35,53.552 35,53 C35,52.448 34.552,52 34,52" id="Fill-1638" fill="#EDDC6E" sketch:type="MSShapeGroup"></path>
            <path d="M31,54 C30.448,54 30,54.448 30,55 C30,55.552 30.448,56 31,56 C31.552,56 32,55.552 32,55 C32,54.448 31.552,54 31,54" id="Fill-1639" fill="#EDDC6E" sketch:type="MSShapeGroup"></path>
            <path d="M29,52 C28.448,52 28,52.448 28,53 C28,53.552 28.448,54 29,54 C29.552,54 30,53.552 30,53 C30,52.448 29.552,52 29,52" id="Fill-1640" fill="#EDDC6E" sketch:type="MSShapeGroup"></path>
            <path d="M26,54 C25.448,54 25,54.448 25,55 C25,55.552 25.448,56 26,56 C26.552,56 27,55.552 27,55 C27,54.448 26.552,54 26,54" id="Fill-1641" fill="#EDDC6E" sketch:type="MSShapeGroup"></path>
            <path d="M24,52 C23.448,52 23,52.448 23,53 C23,53.552 23.448,54 24,54 C24.552,54 25,53.552 25,53 C25,52.448 24.552,52 24,52" id="Fill-1642" fill="#EDDC6E" sketch:type="MSShapeGroup"></path>
            <path d="M21,54 C20.448,54 20,54.448 20,55 C20,55.552 20.448,56 21,56 C21.552,56 22,55.552 22,55 C22,54.448 21.552,54 21,54" id="Fill-1643" fill="#EDDC6E" sketch:type="MSShapeGroup"></path>
            <path d="M19,52 C18.448,52 18,52.448 18,53 C18,53.552 18.448,54 19,54 C19.552,54 20,53.552 20,53 C20,52.448 19.552,52 19,52" id="Fill-1644" fill="#EDDC6E" sketch:type="MSShapeGroup"></path>
            <path d="M16,54 C15.448,54 15,54.448 15,55 C15,55.552 15.448,56 16,56 C16.552,56 17,55.552 17,55 C17,54.448 16.552,54 16,54" id="Fill-1645" fill="#EDDC6E" sketch:type="MSShapeGroup"></path>
            <path d="M14,52 C13.448,52 13,52.448 13,53 C13,53.552 13.448,54 14,54 C14.552,54 15,53.552 15,53 C15,52.448 14.552,52 14,52" id="Fill-1646" fill="#EDDC6E" sketch:type="MSShapeGroup"></path>
            <path d="M11,54 C10.448,54 10,54.448 10,55 C10,55.552 10.448,56 11,56 C11.552,56 12,55.552 12,55 C12,54.448 11.552,54 11,54" id="Fill-1647" fill="#EDDC6E" sketch:type="MSShapeGroup"></path>
            <path d="M9,52 C8.448,52 8,52.448 8,53 C8,53.552 8.448,54 9,54 C9.552,54 10,53.552 10,53 C10,52.448 9.552,52 9,52" id="Fill-1648" fill="#EDDC6E" sketch:type="MSShapeGroup"></path>
            <path d="M41.687,45 L16.313,45 C14.483,45 13,43.517 13,41.687 L13,16.313 C13,14.483 14.483,13 16.313,13 L41.687,13 C43.517,13 45,14.483 45,16.313 L45,41.687 C45,43.517 43.517,45 41.687,45" id="Fill-1649" fill="#414141" sketch:type="MSShapeGroup"></path>
            <path d="M40.446,24.385 C39.356,21.904 36.519,20.423 32.856,20.423 C30.71,20.423 28.422,20.93 26.242,21.887 C23.38,23.145 20.992,25.05 19.517,27.252 C17.95,29.592 17.579,32.002 18.473,34.038 C19.563,36.519 22.4,38 26.063,38 C28.21,38 30.497,37.493 32.678,36.536 C35.54,35.278 37.928,33.373 39.403,31.171 C40.97,28.831 41.341,26.421 40.446,24.385 L40.446,24.385 Z M37.741,30.059 C36.475,31.948 34.392,33.599 31.873,34.704 C29.944,35.552 27.935,36 26.063,36 C23.218,36 21.065,34.966 20.304,33.233 C19.695,31.846 20.005,30.117 21.179,28.365 C22.445,26.475 24.529,24.824 27.047,23.719 C28.975,22.871 30.984,22.423 32.856,22.423 C35.701,22.423 37.854,23.457 38.615,25.19 C39.225,26.577 38.915,28.307 37.741,30.059 L37.741,30.059 Z" id="Fill-1650" fill="#B0B6BB" sketch:type="MSShapeGroup"></path>
            <path d="M33,28 L26,28 C25.448,28 25,28.447 25,29 C25,29.553 25.448,30 26,30 L33,30 C33.552,30 34,29.553 34,29 C34,28.447 33.552,28 33,28" id="Fill-1651" fill="#B0B6BB" sketch:type="MSShapeGroup"></path>
        </g>
    </g>
</svg>