<?xml version="1.0" encoding="UTF-8" standalone="no"?>
<svg width="58px" height="28px" viewBox="0 0 58 28" version="1.1" xmlns="http://www.w3.org/2000/svg" xmlns:xlink="http://www.w3.org/1999/xlink" xmlns:sketch="http://www.bohemiancoding.com/sketch/ns">
    <!-- Generator: Sketch 3.2.2 (9983) - http://www.bohemiancoding.com/sketch -->
    <title>19 - Projector (Flat)</title>
    <desc>Created with Sketch.</desc>
    <defs></defs>
    <g id="Page-1" stroke="none" stroke-width="1" fill="none" fill-rule="evenodd" sketch:type="MSPage">
        <g id="19---Projector-(Flat)" sketch:type="MSLayerGroup">
            <path d="M49,12 C49,11.447 49.448,11 50,11 L57.949,11 C57.89,10.295 57.765,9.61 57.588,8.944 C57.499,8.97 57.41,9 57.313,9 L50,9 C49.448,9 49,8.553 49,8 C49,7.447 49.448,7 50,7 L56.888,7 C54.982,2.881 50.816,0 46,0 L12,0 C7.184,0 3.018,2.881 1.112,7 L8,7 C8.552,7 9,7.447 9,8 C9,8.553 8.552,9 8,9 L0.719,9 C0.61,9 0.511,8.97 0.413,8.938 C0.236,9.606 0.11,10.293 0.051,11 L8,11 C8.552,11 9,11.447 9,12 C9,12.553 8.552,13 8,13 L0.051,13 C0.11,13.707 0.238,14.394 0.415,15.061 C0.512,15.03 0.611,15 0.719,15 L8,15 C8.552,15 9,15.447 9,16 C9,16.553 8.552,17 8,17 L1.119,17 C3.023,21.119 7.184,24 12,24 L46,24 C50.816,24 54.982,21.119 56.888,17 L50,17 C49.448,17 49,16.553 49,16 C49,15.447 49.448,15 50,15 L57.313,15 C57.41,15 57.499,15.03 57.588,15.056 C57.765,14.39 57.89,13.705 57.949,13 L50,13 C49.448,13 49,12.553 49,12" id="Fill-32" fill="#B0B6BB" sketch:type="MSShapeGroup"></path>
            <path d="M8,11 L0.051,11 C0.023,11.331 0,11.663 0,12 C0,12.338 0.023,12.669 0.051,13 L8,13 C8.552,13 9,12.553 9,12 C9,11.447 8.552,11 8,11" id="Fill-33" fill="#CBD4D8" sketch:type="MSShapeGroup"></path>
            <path d="M8,7 L1.112,7 C0.825,7.62 0.592,8.268 0.413,8.938 C0.511,8.97 0.61,9 0.719,9 L8,9 C8.552,9 9,8.553 9,8 C9,7.447 8.552,7 8,7" id="Fill-34" fill="#CBD4D8" sketch:type="MSShapeGroup"></path>
            <path d="M8,15 L0.719,15 C0.611,15 0.512,15.03 0.415,15.061 C0.593,15.733 0.832,16.379 1.119,17 L8,17 C8.552,17 9,16.553 9,16 C9,15.447 8.552,15 8,15" id="Fill-35" fill="#CBD4D8" sketch:type="MSShapeGroup"></path>
            <path d="M57.949,11 L50,11 C49.448,11 49,11.447 49,12 C49,12.553 49.448,13 50,13 L57.949,13 C57.977,12.669 58,12.338 58,12 C58,11.663 57.977,11.331 57.949,11" id="Fill-36" fill="#CBD4D8" sketch:type="MSShapeGroup"></path>
            <path d="M50,15 C49.448,15 49,15.447 49,16 C49,16.553 49.448,17 50,17 L56.888,17 C57.176,16.378 57.409,15.729 57.588,15.056 C57.499,15.03 57.41,15 57.313,15 L50,15" id="Fill-37" fill="#CBD4D8" sketch:type="MSShapeGroup"></path>
            <path d="M50,9 L57.313,9 C57.41,9 57.499,8.97 57.588,8.944 C57.409,8.271 57.176,7.622 56.888,7 L50,7 C49.448,7 49,7.447 49,8 C49,8.553 49.448,9 50,9" id="Fill-38" fill="#CBD4D8" sketch:type="MSShapeGroup"></path>
            <path d="M29,24 C22.383,24 17,18.617 17,12 C17,5.383 22.383,0 29,0 C35.617,0 41,5.383 41,12 C41,18.617 35.617,24 29,24" id="Fill-780" fill="#283238" sketch:type="MSShapeGroup"></path>
            <path d="M16.236,28 L13.764,28 C12.79,28 12,27.21 12,26.236 L12,24 L18,24 L18,26.236 C18,27.21 17.21,28 16.236,28" id="Fill-781" fill="#546A79" sketch:type="MSShapeGroup"></path>
            <path d="M45.236,28 L42.764,28 C41.79,28 41,27.21 41,26.236 L41,24 L47,24 L47,26.236 C47,27.21 46.21,28 45.236,28" id="Fill-782" fill="#546A79" sketch:type="MSShapeGroup"></path>
            <path d="M37,12 C37,16.418 33.418,20 29,20 C24.582,20 21,16.418 21,12 C21,7.582 24.582,4 29,4 C33.418,4 37,7.582 37,12" id="Fill-1583" fill="#38454F" sketch:type="MSShapeGroup"></path>
            <path d="M26,10 C25.74,10 25.48,9.89 25.29,9.71 C25.11,9.52 25,9.26 25,9 C25,8.74 25.11,8.48 25.29,8.29 C25.67,7.92 26.34,7.92 26.71,8.29 C26.89,8.48 27,8.74 27,9 C27,9.26 26.89,9.52 26.71,9.71 C26.52,9.89 26.26,10 26,10" id="Fill-1584" fill="#546A79" sketch:type="MSShapeGroup"></path>
            <path d="M29,17 C28.744,17 28.488,16.902 28.293,16.707 C27.902,16.316 27.902,15.684 28.293,15.293 L32.293,11.293 C32.684,10.902 33.316,10.902 33.707,11.293 C34.098,11.684 34.098,12.317 33.707,12.707 L29.707,16.707 C29.512,16.902 29.256,17 29,17" id="Fill-1585" fill="#546A79" sketch:type="MSShapeGroup"></path>
            <path d="M25,16 C24.744,16 24.488,15.902 24.293,15.707 C23.902,15.317 23.902,14.684 24.293,14.293 L31.293,7.293 C31.684,6.902 32.316,6.902 32.707,7.293 C33.098,7.684 33.098,8.316 32.707,8.707 L25.707,15.707 C25.512,15.902 25.256,16 25,16" id="Fill-1586" fill="#546A79" sketch:type="MSShapeGroup"></path>
        </g>
    </g>
</svg>