<?xml version="1.0" encoding="UTF-8" standalone="no"?>
<svg width="60px" height="59px" viewBox="0 0 60 59" version="1.1" xmlns="http://www.w3.org/2000/svg" xmlns:xlink="http://www.w3.org/1999/xlink" xmlns:sketch="http://www.bohemiancoding.com/sketch/ns">
    <!-- Generator: Sketch 3.2.2 (9983) - http://www.bohemiancoding.com/sketch -->
    <title>55 - PS2 Controller (Flat)</title>
    <desc>Created with Sketch.</desc>
    <defs></defs>
    <g id="Page-1" stroke="none" stroke-width="1" fill="none" fill-rule="evenodd" sketch:type="MSPage">
        <g id="55---PS2-Controller-(Flat)" sketch:type="MSLayerGroup">
            <path d="M30,20 L30,5.5 C30,3.025 32.025,1 34.5,1 C36.975,1 39,3.025 39,5.5 L39,8 C39,10.2 40.8,12 43,12 C45.2,12 47,10.2 47,8 L47,0" id="Stroke-103" stroke="#839494" stroke-width="2" sketch:type="MSShapeGroup"></path>
            <path d="M13.261,40 C8.919,40 5.129,37.68 3.032,34.22 L1.807,52.043 C1.807,55.885 4.922,59 8.764,59 C11.836,59 14.545,56.985 15.428,54.042 L21,37.152 C18.913,38.925 16.214,40 13.261,40" id="Fill-104" fill="#38454F" sketch:type="MSShapeGroup"></path>
            <path d="M13.261,40 C8.919,40 5.129,37.68 3.032,34.22 L1.807,52.043 C1.807,55.885 4.922,59 8.764,59 C11.836,59 14.545,56.985 15.428,54.042 L21,37.152 C18.913,38.925 16.214,40 13.261,40" id="Fill-104" fill="#38454F" sketch:type="MSShapeGroup"></path>
            <path d="M46.967,40 C51.308,40 55.099,37.68 57.196,34.22 L58.421,52.043 C58.421,55.885 55.306,59 51.464,59 C48.391,59 45.683,56.985 44.8,54.042 L39.228,37.152 C41.315,38.925 44.013,40 46.967,40" id="Fill-105" fill="#38454F" sketch:type="MSShapeGroup"></path>
            <path d="M30.101,42 C30.035,41.677 30,41.343 30,41 C30,41.343 29.965,41.677 29.899,42 L30.101,42" id="Fill-106" fill="#38454F" sketch:type="MSShapeGroup"></path>
            <path d="M39.801,38.889 L39.228,37.152 C39.312,37.223 39.403,37.286 39.489,37.355 C36.755,35.166 35,31.809 35,28.033 C35,24.423 36.606,21.194 39.134,19 L21.287,19 C23.815,21.194 25.421,24.423 25.421,28.033 C25.421,31.643 23.804,34.857 21.276,37.048 C21.423,37.142 21.5,37.307 21.498,37.477 C22.398,36.574 23.624,36 25,36 C27.71,36 29.903,38.16 29.984,40.85 C29.995,40.85 30.003,40.844 30.016,40.844 L30.017,40.844 C30.101,38.157 32.292,36 35,36 C37.034,36 38.776,37.219 39.557,38.963 C39.631,38.919 39.714,38.896 39.801,38.889" id="Fill-107" fill="#38454F" sketch:type="MSShapeGroup"></path>
            <path d="M39.801,38.889 L39.228,37.152 C39.312,37.223 39.403,37.286 39.489,37.355 C36.755,35.166 35,31.809 35,28.033 C35,24.423 36.606,21.194 39.134,19 L21.287,19 C23.815,21.194 25.421,24.423 25.421,28.033 C25.421,31.643 23.804,34.857 21.276,37.048 C21.423,37.142 21.5,37.307 21.498,37.477 C22.398,36.574 23.624,36 25,36 C27.71,36 29.903,38.16 29.984,40.85 C29.995,40.85 30.003,40.844 30.016,40.844 L30.017,40.844 C30.101,38.157 32.292,36 35,36 C37.034,36 38.776,37.219 39.557,38.963 C39.631,38.919 39.714,38.896 39.801,38.889" id="Fill-107" fill="#38454F" sketch:type="MSShapeGroup"></path>
            <path d="M26,28.033 C26,35.195 20.195,41 13.033,41 C5.872,41 0.067,35.195 0.067,28.033 C0.067,20.872 5.872,15.067 13.033,15.067 C20.195,15.067 26,20.872 26,28.033" id="Fill-321" fill="#546A79" sketch:type="MSShapeGroup"></path>
            <path d="M60,28.033 C60,35.195 54.195,41 47.033,41 C39.872,41 34.067,35.195 34.067,28.033 C34.067,20.872 39.872,15.067 47.033,15.067 C54.195,15.067 60,20.872 60,28.033" id="Fill-322" fill="#546A79" sketch:type="MSShapeGroup"></path>
            <path d="M30,41 C30,43.761 27.761,46 25,46 C22.239,46 20,43.761 20,41 C20,38.239 22.239,36 25,36 C27.761,36 30,38.239 30,41" id="Fill-323" fill="#283238" sketch:type="MSShapeGroup"></path>
            <path d="M40,41 C40,43.761 37.761,46 35,46 C32.239,46 30,43.761 30,41 C30,38.239 32.239,36 35,36 C37.761,36 40,38.239 40,41" id="Fill-324" fill="#283238" sketch:type="MSShapeGroup"></path>
            <path d="M30.2000008,41 C30.2000008,43.761 27.9162206,46 25.1000004,46 C22.2837802,46 20,43.761 20,41 C20,38.239 22.2837802,36 25.1000004,36 C27.9162206,36 30.2000008,38.239 30.2000008,41" id="Fill-323" fill="#283238" sketch:type="MSShapeGroup"></path>
            <path d="M40,41 C40,43.761 37.761,46 35,46 C32.239,46 30,43.761 30,41 C30,38.239 32.239,36 35,36 C37.761,36 40,38.239 40,41" id="Fill-324" fill="#283238" sketch:type="MSShapeGroup"></path>
            <path d="M29,24 L31,24" id="Stroke-325" stroke="#B0B6BB" stroke-width="2" stroke-linecap="round" sketch:type="MSShapeGroup"></path>
            <path d="M56,27.5 C56,28.881 54.881,30 53.5,30 C52.119,30 51,28.881 51,27.5 C51,26.119 52.119,25 53.5,25 C54.881,25 56,26.119 56,27.5 L56,27.5 Z" id="Stroke-341" stroke="#DD342E" stroke-width="2" sketch:type="MSShapeGroup"></path>
            <path d="M43,27.5 C43,28.881 41.881,30 40.5,30 C39.119,30 38,28.881 38,27.5 C38,26.119 39.119,25 40.5,25 C41.881,25 43,26.119 43,27.5 L43,27.5 Z" id="Stroke-342" stroke="#BF4D90" stroke-width="2" sketch:type="MSShapeGroup"></path>
            <path d="M18.286,26 L15,26 L15,22.714 C15,22.32 14.68,22 14.286,22 L11.714,22 C11.32,22 11,22.32 11,22.714 L11,26 L7.714,26 C7.32,26 7,26.32 7,26.714 L7,29.286 C7,29.68 7.32,30 7.714,30 L11,30 L11,33.286 C11,33.68 11.32,34 11.714,34 L14.286,34 C14.68,34 15,33.68 15,33.286 L15,30 L18.286,30 C18.68,30 19,29.68 19,29.286 L19,26.714 C19,26.32 18.68,26 18.286,26 L18.286,26 Z" id="Fill-1027" fill="#283238" sketch:type="MSShapeGroup"></path>
            <path d="M18.286,26 L15,26 L15,22.714 C15,22.32 14.68,22 14.286,22 L11.714,22 C11.32,22 11,22.32 11,22.714 L11,26 L7.714,26 C7.32,26 7,26.32 7,26.714 L7,29.286 C7,29.68 7.32,30 7.714,30 L11,30 L11,33.286 C11,33.68 11.32,34 11.714,34 L14.286,34 C14.68,34 15,33.68 15,33.286 L15,30 L18.286,30 C18.68,30 19,29.68 19,29.286 L19,26.714 C19,26.32 18.68,26 18.286,26 L18.286,26 Z" id="Stroke-1028" stroke="#38454F" stroke-width="2" stroke-linecap="round" sketch:type="MSShapeGroup"></path>
            <path d="M47,35.5 C45.619,35.5 44.5,34.381 44.5,33 C44.5,31.619 45.619,30.5 47,30.5 C48.381,30.5 49.5,31.619 49.5,33 C49.5,34.381 48.381,35.5 47,35.5 L47,35.5 Z" id="Stroke-1031" stroke="#5D7BDB" stroke-width="2" sketch:type="MSShapeGroup"></path>
            <path d="M47,24.5 C45.619,24.5 44.5,23.381 44.5,22 C44.5,20.619 45.619,19.5 47,19.5 C48.381,19.5 49.5,20.619 49.5,22 C49.5,23.381 48.381,24.5 47,24.5 L47,24.5 Z" id="Stroke-1032" stroke="#1FBEE2" stroke-width="2" sketch:type="MSShapeGroup"></path>
        </g>
    </g>
</svg>