<?xml version="1.0" encoding="UTF-8" standalone="no"?>
<svg width="58px" height="45px" viewBox="0 0 58 45" version="1.1" xmlns="http://www.w3.org/2000/svg" xmlns:xlink="http://www.w3.org/1999/xlink" xmlns:sketch="http://www.bohemiancoding.com/sketch/ns">
    <!-- Generator: Sketch 3.2.2 (9983) - http://www.bohemiancoding.com/sketch -->
    <title>44 - PS4 (Flat)</title>
    <desc>Created with Sketch.</desc>
    <defs></defs>
    <g id="Page-1" stroke="none" stroke-width="1" fill="none" fill-rule="evenodd" sketch:type="MSPage">
        <g id="44---PS4-(Flat)" sketch:type="MSLayerGroup">
            <path d="M58,45 L0,45 L1,38 L57,38 L58,45" id="Fill-391" fill="#38454F" sketch:type="MSShapeGroup"></path>
            <path d="M5,34 L53,34 L57,38 L1,38 L5,34" id="Fill-392" fill="#283238" sketch:type="MSShapeGroup"></path>
            <path d="M16,38 L18,38 L18,45 L16,45 L16,38 Z" id="Fill-393" fill="#546A79" sketch:type="MSShapeGroup"></path>
            <path d="M48,23 L39.727,23 C40.203,24.338 40.772,25.922 40.772,25.922 C40.957,26.265 41.077,26.63 41.137,27 L57,27 L48,23" id="Fill-394" fill="#283238" sketch:type="MSShapeGroup"></path>
            <path d="M32.57,26.854 C31.064,25.126 31.384,25.829 29.532,24.479 C29.155,24.204 28.559,23.632 27.987,23 L10,23 L1,27 L32.697,27 L32.57,26.854" id="Fill-395" fill="#283238" sketch:type="MSShapeGroup"></path>
            <path d="M57,27 L41.137,27 C41.312,28.072 40.974,29.191 40.175,29.991 C38.83,31.336 36.648,31.336 35.303,29.991 L32.697,27 L1,27 L0,34 L58,34 L57,27" id="Fill-396" fill="#38454F" sketch:type="MSShapeGroup"></path>
            <path d="M57,27 L41.137,27 C41.312,28.072 40.974,29.191 40.175,29.991 C38.83,31.336 36.648,31.336 35.303,29.991 L32.697,27 L1,27 L0,34 L58,34 L57,27" id="Fill-396" fill="#38454F" sketch:type="MSShapeGroup"></path>
            <path d="M45,32 C44.447,32 44,31.553 44,31 L44,30 C44,29.447 44.447,29 45,29 C45.553,29 46,29.447 46,30 L46,31 C46,31.553 45.553,32 45,32" id="Fill-1490" fill="#283238" sketch:type="MSShapeGroup"></path>
            <path d="M48,32 C47.447,32 47,31.553 47,31 L47,30 C47,29.447 47.447,29 48,29 C48.553,29 49,29.447 49,30 L49,31 C49,31.553 48.553,32 48,32" id="Fill-1491" fill="#283238" sketch:type="MSShapeGroup"></path>
            <path d="M51,32 C50.447,32 50,31.553 50,31 L50,30 C50,29.447 50.447,29 51,29 C51.553,29 52,29.447 52,30 L52,31 C52,31.553 51.553,32 51,32" id="Fill-1492" fill="#283238" sketch:type="MSShapeGroup"></path>
            <path d="M22.414,23 L19.586,23 L16.293,26.293 C16.106,26.48 16,26.734 16,27 L18.414,27 L22.414,23" id="Fill-1862" fill="#38454F" sketch:type="MSShapeGroup"></path>
            <path d="M16,27 L16,34 L18,34 L18,27.414 L18.414,27 L16,27" id="Fill-1863" fill="#546A79" sketch:type="MSShapeGroup"></path>
            <path d="M46.082,1.451 C43.828,0.395 41.154,1.007 39.418,2.791 C39.126,3.09 38.855,3.515 38.617,3.967 C37.585,5.927 36.266,7.722 34.7,9.288 C33.146,10.843 31.356,12.134 29.42,13.178 C28.867,13.477 28.347,13.875 27.861,14.348 C26.074,16.085 25.461,18.763 26.52,21.019 C27.001,22.043 28.745,23.905 29.532,24.479 C31.384,25.829 31.064,25.126 32.57,26.854 L35.303,29.991 C36.648,31.336 38.83,31.336 40.175,29.991 C41.251,28.915 41.493,27.261 40.772,25.922 C40.772,25.922 39.052,21.135 39.092,21.175 L46.269,13.998 L50.989,15.705 C52.328,16.426 53.982,16.183 55.058,15.108 C56.404,13.762 56.404,11.581 55.058,10.236 C55.058,10.236 53.521,8.896 51.922,7.503 C50.194,5.997 50.896,6.317 49.546,4.465 C48.972,3.677 47.108,1.932 46.082,1.451" id="Fill-1864" fill="#546A79" sketch:type="MSShapeGroup"></path>
            <path d="M46.082,1.451 C43.828,0.395 41.154,1.007 39.418,2.791 C39.126,3.09 38.855,3.515 38.617,3.967 C37.585,5.927 36.266,7.722 34.7,9.288 C33.146,10.843 31.356,12.134 29.42,13.178 C28.867,13.477 28.347,13.875 27.861,14.348 C26.074,16.085 25.461,18.763 26.52,21.019 C27.001,22.043 28.745,23.905 29.532,24.479 C31.384,25.829 31.064,25.126 32.57,26.854 L35.303,29.991 C36.648,31.336 38.83,31.336 40.175,29.991 C41.251,28.915 41.493,27.261 40.772,25.922 C40.772,25.922 39.052,21.135 39.092,21.175 L46.269,13.998 L50.989,15.705 C52.328,16.426 53.982,16.183 55.058,15.108 C56.404,13.762 56.404,11.581 55.058,10.236 C55.058,10.236 53.521,8.896 51.922,7.503 C50.194,5.997 50.896,6.317 49.546,4.465 C48.972,3.677 47.108,1.932 46.082,1.451" id="Fill-1864" fill="#546A79" sketch:type="MSShapeGroup"></path>
            <path d="M46.284,5.497 C47.455,6.669 47.455,8.568 46.284,9.74 C45.112,10.912 43.213,10.912 42.041,9.74 C40.87,8.568 40.87,6.669 42.041,5.497 C43.213,4.326 45.112,4.326 46.284,5.497" id="Fill-1865" fill="#38454F" sketch:type="MSShapeGroup"></path>
            <path d="M34.886,16.895 C36.058,18.066 36.058,19.966 34.886,21.138 C33.715,22.309 31.815,22.309 30.644,21.138 C29.472,19.966 29.472,18.066 30.644,16.895 C31.815,15.723 33.715,15.723 34.886,16.895" id="Fill-1866" fill="#38454F" sketch:type="MSShapeGroup"></path>
            <path d="M36.384,14.983 C36.128,14.983 35.872,14.885 35.677,14.69 C35.286,14.299 35.286,13.666 35.677,13.275 L38.506,10.447 C38.896,10.057 39.529,10.057 39.92,10.447 C40.31,10.838 40.31,11.471 39.92,11.861 L37.091,14.69 C36.896,14.885 36.64,14.983 36.384,14.983" id="Fill-1867" fill="#38454F" sketch:type="MSShapeGroup"></path>
            <path d="M36.384,14.983 C36.128,14.983 35.872,14.885 35.677,14.69 L34.97,13.982 C34.579,13.592 34.579,12.959 34.97,12.568 C35.36,12.178 35.993,12.178 36.384,12.568 L37.091,13.275 C37.481,13.666 37.481,14.299 37.091,14.69 C36.896,14.885 36.64,14.983 36.384,14.983" id="Fill-1868" fill="#38454F" sketch:type="MSShapeGroup"></path>
            <path d="M39.213,12.154 C38.957,12.154 38.701,12.057 38.506,11.861 L37.799,11.154 C37.408,10.764 37.408,10.131 37.799,9.74 C38.19,9.35 38.822,9.35 39.213,9.74 L39.92,10.447 C40.31,10.838 40.31,11.471 39.92,11.861 C39.725,12.057 39.469,12.154 39.213,12.154" id="Fill-1869" fill="#38454F" sketch:type="MSShapeGroup"></path>
        </g>
    </g>
</svg>