<?xml version="1.0" encoding="UTF-8" standalone="no"?>
<svg width="58px" height="30px" viewBox="0 0 58 30" version="1.1" xmlns="http://www.w3.org/2000/svg" xmlns:xlink="http://www.w3.org/1999/xlink" xmlns:sketch="http://www.bohemiancoding.com/sketch/ns">
    <!-- Generator: Sketch 3.2.2 (9983) - http://www.bohemiancoding.com/sketch -->
    <title>34 - PSP (Flat)</title>
    <desc>Created with Sketch.</desc>
    <defs></defs>
    <g id="Page-1" stroke="none" stroke-width="1" fill="none" fill-rule="evenodd" sketch:type="MSPage">
        <g id="34---PSP-(Flat)" sketch:type="MSLayerGroup">
            <path d="M52.5,0 L52,0 L6,0 L5.5,0 C2.463,0 0,7.82 0,15 C0,22.18 2.463,30 5.5,30 L6,30 L52,30 L52.5,30 C55.537,30 58,22.18 58,15 C58,7.82 55.537,0 52.5,0" id="Fill-946" fill="#283238" sketch:type="MSShapeGroup"></path>
            <path d="M12,0 L46,0 L46,30 L12,30 L12,0 Z" id="Fill-1520" fill="#7383BF" sketch:type="MSShapeGroup"></path>
            <path d="M6,14 C5.447,14 5,13.553 5,13 L5,12 C5,11.447 5.447,11 6,11 C6.553,11 7,11.447 7,12 L7,13 C7,13.553 6.553,14 6,14" id="Fill-1521" fill="#38454F" sketch:type="MSShapeGroup"></path>
            <path d="M9,16 L8,16 C7.447,16 7,15.553 7,15 C7,14.447 7.447,14 8,14 L9,14 C9.553,14 10,14.447 10,15 C10,15.553 9.553,16 9,16" id="Fill-1522" fill="#38454F" sketch:type="MSShapeGroup"></path>
            <path d="M4,16 L3,16 C2.447,16 2,15.553 2,15 C2,14.447 2.447,14 3,14 L4,14 C4.553,14 5,14.447 5,15 C5,15.553 4.553,16 4,16" id="Fill-1523" fill="#38454F" sketch:type="MSShapeGroup"></path>
            <path d="M6,19 C5.447,19 5,18.553 5,18 L5,17 C5,16.447 5.447,16 6,16 C6.553,16 7,16.447 7,17 L7,18 C7,18.553 6.553,19 6,19" id="Fill-1524" fill="#38454F" sketch:type="MSShapeGroup"></path>
            <path d="M9,10 C8.74,10 8.479,9.89 8.29,9.71 C8.109,9.52 8,9.26 8,9 C8,8.74 8.1,8.48 8.29,8.29 C8.67,7.92 9.33,7.92 9.71,8.29 C9.89,8.48 10,8.74 10,9 C10,9.26 9.89,9.52 9.71,9.71 C9.519,9.89 9.26,10 9,10" id="Fill-1525" fill="#38454F" sketch:type="MSShapeGroup"></path>
            <path d="M52,11 C51.729,11 51.479,10.89 51.29,10.71 C51.109,10.52 51,10.26 51,10 C51,9.74 51.109,9.48 51.29,9.29 C51.67,8.92 52.33,8.92 52.71,9.29 C52.89,9.48 53,9.74 53,10 C53,10.26 52.89,10.52 52.71,10.71 C52.519,10.89 52.269,11 52,11" id="Fill-1526" fill="#38454F" sketch:type="MSShapeGroup"></path>
            <path d="M52,17 C51.74,17 51.479,16.9 51.29,16.71 C51.109,16.52 51,16.26 51,16 C51,15.73 51.109,15.47 51.29,15.29 C51.67,14.92 52.34,14.92 52.71,15.29 C52.89,15.48 53,15.73 53,16 C53,16.26 52.89,16.52 52.71,16.71 C52.519,16.89 52.26,17 52,17" id="Fill-1527" fill="#38454F" sketch:type="MSShapeGroup"></path>
            <path d="M49,14 C48.74,14 48.479,13.89 48.29,13.71 C48.1,13.52 48,13.26 48,13 C48,12.74 48.109,12.48 48.29,12.29 C48.66,11.92 49.33,11.92 49.71,12.29 C49.89,12.48 50,12.73 50,13 C50,13.26 49.89,13.52 49.71,13.71 C49.519,13.9 49.26,14 49,14" id="Fill-1528" fill="#38454F" sketch:type="MSShapeGroup"></path>
            <path d="M55,14 C54.74,14 54.479,13.89 54.29,13.71 C54.1,13.52 54,13.27 54,13 C54,12.73 54.109,12.48 54.29,12.29 C54.66,11.92 55.33,11.92 55.71,12.29 C55.89,12.48 56,12.73 56,13 C56,13.26 55.89,13.52 55.71,13.71 C55.519,13.89 55.26,14 55,14" id="Fill-1529" fill="#38454F" sketch:type="MSShapeGroup"></path>
            <path d="M9,22 C8.74,22 8.479,21.89 8.29,21.71 C8.109,21.52 8,21.26 8,21 C8,20.74 8.109,20.48 8.29,20.29 C8.67,19.92 9.33,19.92 9.71,20.29 C9.899,20.48 10,20.73 10,21 C10,21.26 9.89,21.52 9.71,21.71 C9.519,21.89 9.26,22 9,22" id="Fill-1530" fill="#38454F" sketch:type="MSShapeGroup"></path>
            <path d="M1.919,4 L7,4 L10,0 L6,0 L5.5,0 C4.131,0 2.881,1.597 1.919,4" id="Fill-1531" fill="#546A79" sketch:type="MSShapeGroup"></path>
            <path d="M56.081,4 C55.119,1.597 53.869,0 52.5,0 L52,0 L48,0 L51,4 L56.081,4" id="Fill-1532" fill="#546A79" sketch:type="MSShapeGroup"></path>
            <path d="M56.081,26 L51,26 L48,30 L52,30 L52.5,30 C53.869,30 55.119,28.403 56.081,26" id="Fill-1533" fill="#546A79" sketch:type="MSShapeGroup"></path>
            <path d="M1.919,26 C2.881,28.403 4.131,30 5.5,30 L6,30 L10,30 L7,26 L1.919,26" id="Fill-1534" fill="#546A79" sketch:type="MSShapeGroup"></path>
            <path d="M16,9 C16.256,9 16.512,8.902 16.707,8.707 L20.707,4.707 C21.098,4.317 21.098,3.684 20.707,3.293 C20.316,2.902 19.684,2.902 19.293,3.293 L15.293,7.293 C14.902,7.684 14.902,8.316 15.293,8.707 C15.488,8.902 15.744,9 16,9" id="Fill-1535" fill="#869BDB" sketch:type="MSShapeGroup"></path>
            <path d="M17.293,10.293 L15.293,12.293 C14.902,12.684 14.902,13.317 15.293,13.707 C15.488,13.902 15.744,14 16,14 C16.256,14 16.512,13.902 16.707,13.707 L18.707,11.707 C19.098,11.316 19.098,10.684 18.707,10.293 C18.316,9.902 17.684,9.902 17.293,10.293" id="Fill-1536" fill="#869BDB" sketch:type="MSShapeGroup"></path>
            <path d="M19.29,8.29 C19.1,8.48 19,8.74 19,9 C19,9.26 19.1,9.52 19.29,9.71 C19.479,9.89 19.74,10 20,10 C20.26,10 20.519,9.89 20.71,9.71 C20.89,9.52 21,9.26 21,9 C21,8.74 20.89,8.48 20.71,8.29 C20.33,7.92 19.67,7.92 19.29,8.29" id="Fill-1537" fill="#869BDB" sketch:type="MSShapeGroup"></path>
            <path d="M25.707,3.293 C25.316,2.902 24.684,2.902 24.293,3.293 L21.293,6.293 C20.902,6.684 20.902,7.317 21.293,7.707 C21.488,7.902 21.744,8 22,8 C22.256,8 22.512,7.902 22.707,7.707 L25.707,4.707 C26.098,4.317 26.098,3.684 25.707,3.293" id="Fill-1538" fill="#869BDB" sketch:type="MSShapeGroup"></path>
        </g>
    </g>
</svg>