<?xml version="1.0" encoding="UTF-8" standalone="no"?>
<svg width="54px" height="46px" viewBox="0 0 54 46" version="1.1" xmlns="http://www.w3.org/2000/svg" xmlns:xlink="http://www.w3.org/1999/xlink" xmlns:sketch="http://www.bohemiancoding.com/sketch/ns">
    <!-- Generator: Sketch 3.2.2 (9983) - http://www.bohemiancoding.com/sketch -->
    <title>36 - PSP GO (Flat)</title>
    <desc>Created with Sketch.</desc>
    <defs></defs>
    <g id="Page-1" stroke="none" stroke-width="1" fill="none" fill-rule="evenodd" sketch:type="MSPage">
        <g id="36---PSP-GO-(Flat)" sketch:type="MSLayerGroup">
            <path d="M2.818,22.695 C1.071,25.085 0,28.233 0,31.695 C0,39.151 4.925,45.195 11,45.195 L43,45.195 C49.075,45.195 54,39.151 54,31.695 C54,28.233 52.929,25.085 51.182,22.695" id="Fill-420" fill="#283238" sketch:type="MSShapeGroup"></path>
            <path d="M18,36.195 C18,39.509 15.314,42.195 12,42.195 C8.686,42.195 6,39.509 6,36.195 C6,32.882 8.686,30.195 12,30.195 C15.314,30.195 18,32.882 18,36.195" id="Fill-421" fill="#283238" sketch:type="MSShapeGroup"></path>
            <path d="M12,43.195 C8.14,43.195 5,40.055 5,36.195 C5,32.336 8.14,29.195 12,29.195 C15.86,29.195 19,32.336 19,36.195 C19,40.055 15.86,43.195 12,43.195 L12,43.195 Z M12,31.195 C9.243,31.195 7,33.439 7,36.195 C7,38.952 9.243,41.195 12,41.195 C14.757,41.195 17,38.952 17,36.195 C17,33.439 14.757,31.195 12,31.195 L12,31.195 Z" id="Fill-422" fill="#546A79" sketch:type="MSShapeGroup"></path>
            <path d="M49,36.195 C49,39.509 46.314,42.195 43,42.195 C39.686,42.195 37,39.509 37,36.195 C37,32.882 39.686,30.195 43,30.195 C46.314,30.195 49,32.882 49,36.195" id="Fill-423" fill="#283238" sketch:type="MSShapeGroup"></path>
            <path d="M43,43.195 C39.14,43.195 36,40.055 36,36.195 C36,32.336 39.14,29.195 43,29.195 C46.859,29.195 50,32.336 50,36.195 C50,40.055 46.859,43.195 43,43.195 L43,43.195 Z M43,31.195 C40.243,31.195 38,33.439 38,36.195 C38,38.952 40.243,41.195 43,41.195 C45.757,41.195 48,38.952 48,36.195 C48,33.439 45.757,31.195 43,31.195 L43,31.195 Z" id="Fill-424" fill="#546A79" sketch:type="MSShapeGroup"></path>
            <path d="M26,39.695 C26,41.076 24.881,42.195 23.5,42.195 C22.119,42.195 21,41.076 21,39.695 C21,38.315 22.119,37.195 23.5,37.195 C24.881,37.195 26,38.315 26,39.695" id="Fill-425" fill="#38454F" sketch:type="MSShapeGroup"></path>
            <path d="M34,39.695 C34,41.076 32.881,42.195 31.5,42.195 C30.119,42.195 29,41.076 29,39.695 C29,38.315 30.119,37.195 31.5,37.195 C32.881,37.195 34,38.315 34,39.695" id="Fill-426" fill="#38454F" sketch:type="MSShapeGroup"></path>
            <path d="M15,35.195 L13,35.195 L13,33.195 C13,32.643 12.552,32.195 12,32.195 C11.448,32.195 11,32.643 11,33.195 L11,35.195 L9,35.195 C8.448,35.195 8,35.643 8,36.195 C8,36.748 8.448,37.195 9,37.195 L11,37.195 L11,39.195 C11,39.748 11.448,40.195 12,40.195 C12.552,40.195 13,39.748 13,39.195 L13,37.195 L15,37.195 C15.552,37.195 16,36.748 16,36.195 C16,35.643 15.552,35.195 15,35.195" id="Fill-427" fill="#546A79" sketch:type="MSShapeGroup"></path>
            <path d="M40,34.695 C39.448,34.695 39,35.143 39,35.695 L39,36.695 C39,37.248 39.448,37.695 40,37.695 C40.552,37.695 41,37.248 41,36.695 L41,35.695 C41,35.143 40.552,34.695 40,34.695" id="Fill-428" fill="#546A79" sketch:type="MSShapeGroup"></path>
            <path d="M46,34.695 C45.447,34.695 45,35.143 45,35.695 L45,36.695 C45,37.248 45.447,37.695 46,37.695 C46.553,37.695 47,37.248 47,36.695 L47,35.695 C47,35.143 46.553,34.695 46,34.695" id="Fill-429" fill="#546A79" sketch:type="MSShapeGroup"></path>
            <path d="M43,31.695 C42.448,31.695 42,32.143 42,32.695 L42,33.695 C42,34.248 42.448,34.695 43,34.695 C43.552,34.695 44,34.248 44,33.695 L44,32.695 C44,32.143 43.552,31.695 43,31.695" id="Fill-430" fill="#546A79" sketch:type="MSShapeGroup"></path>
            <path d="M43,37.695 C42.448,37.695 42,38.143 42,38.695 L42,39.695 C42,40.248 42.448,40.695 43,40.695 C43.552,40.695 44,40.248 44,39.695 L44,38.695 C44,38.143 43.552,37.695 43,37.695" id="Fill-431" fill="#546A79" sketch:type="MSShapeGroup"></path>
            <path d="M43,0.195 C49.075,0.195 54,6.24 54,13.695 C54,21.151 49.075,27.195 43,27.195 L11,27.195 C4.925,27.195 0,21.151 0,13.695 C0,6.24 4.925,0.195 11,0.195 L43,0.195" id="Fill-1510" fill="#38454F" sketch:type="MSShapeGroup"></path>
            <path d="M33.5,27.195 L20.5,27.195 C13.075,27.195 7,21.12 7,13.695 C7,6.27 13.075,0.195 20.5,0.195 L33.5,0.195 C40.925,0.195 47,6.27 47,13.695 C47,21.12 40.925,27.195 33.5,27.195" id="Fill-1511" fill="#7383BF" sketch:type="MSShapeGroup"></path>
            <path d="M14,11 C14.256,11 14.512,10.902 14.707,10.707 L18.707,6.707 C19.098,6.316 19.098,5.684 18.707,5.293 C18.316,4.902 17.684,4.902 17.293,5.293 L13.293,9.293 C12.902,9.684 12.902,10.317 13.293,10.707 C13.488,10.902 13.744,11 14,11" id="Fill-1512" fill="#ACBAE5" sketch:type="MSShapeGroup"></path>
            <path d="M15.293,12.293 L13.293,14.293 C12.902,14.684 12.902,15.316 13.293,15.707 C13.488,15.902 13.744,16 14,16 C14.256,16 14.512,15.902 14.707,15.707 L16.707,13.707 C17.098,13.317 17.098,12.684 16.707,12.293 C16.316,11.902 15.684,11.902 15.293,12.293" id="Fill-1513" fill="#ACBAE5" sketch:type="MSShapeGroup"></path>
            <path d="M17.29,10.29 C17.11,10.48 17,10.73 17,11 C17,11.26 17.11,11.52 17.29,11.71 C17.48,11.89 17.74,12 18,12 C18.26,12 18.52,11.89 18.71,11.71 C18.89,11.52 19,11.26 19,11 C19,10.74 18.89,10.48 18.71,10.29 C18.34,9.92 17.66,9.92 17.29,10.29" id="Fill-1514" fill="#ACBAE5" sketch:type="MSShapeGroup"></path>
            <path d="M23.707,5.293 C23.316,4.902 22.684,4.902 22.293,5.293 L19.293,8.293 C18.902,8.684 18.902,9.316 19.293,9.707 C19.488,9.902 19.744,10 20,10 C20.256,10 20.512,9.902 20.707,9.707 L23.707,6.707 C24.098,6.316 24.098,5.684 23.707,5.293" id="Fill-1515" fill="#ACBAE5" sketch:type="MSShapeGroup"></path>
        </g>
    </g>
</svg>