<?xml version="1.0" encoding="UTF-8" standalone="no"?>
<svg width="58px" height="43px" viewBox="0 0 58 43" version="1.1" xmlns="http://www.w3.org/2000/svg" xmlns:xlink="http://www.w3.org/1999/xlink" xmlns:sketch="http://www.bohemiancoding.com/sketch/ns">
    <!-- Generator: Sketch 3.2.2 (9983) - http://www.bohemiancoding.com/sketch -->
    <title>20 - Routers (Flat)</title>
    <desc>Created with Sketch.</desc>
    <defs></defs>
    <g id="Page-1" stroke="none" stroke-width="1" fill="none" fill-rule="evenodd" sketch:type="MSPage">
        <g id="20---Routers-(Flat)" sketch:type="MSLayerGroup">
            <path d="M54.974,36 L3.026,36 C1.355,36 0,34.645 0,32.974 L0,27.026 C0,25.355 1.355,24 3.026,24 L54.974,24 C56.645,24 58,25.355 58,27.026 L58,32.974 C58,34.645 56.645,36 54.974,36" id="Fill-716" fill="#38454F" sketch:type="MSShapeGroup"></path>
            <path d="M55,24 L3,24 L7.545,20.364 C7.84,20.128 8.205,20 8.582,20 L49.418,20 C49.795,20 50.16,20.128 50.455,20.364 L55,24" id="Fill-717" fill="#283238" sketch:type="MSShapeGroup"></path>
            <path d="M3,36 L55,36 L50.455,39.636 C50.16,39.872 49.795,40 49.418,40 L8.582,40 C8.205,40 7.84,39.872 7.545,39.636 L3,36" id="Fill-718" fill="#283238" sketch:type="MSShapeGroup"></path>
            <path d="M8,27 L5,27 C4.448,27 4,27.447 4,28 C4,28.553 4.448,29 5,29 L8,29 C8.552,29 9,28.553 9,28 C9,27.447 8.552,27 8,27" id="Fill-719" fill="#546A79" sketch:type="MSShapeGroup"></path>
            <path d="M8,31 L5,31 C4.448,31 4,31.447 4,32 C4,32.553 4.448,33 5,33 L8,33 C8.552,33 9,32.553 9,32 C9,31.447 8.552,31 8,31" id="Fill-720" fill="#546A79" sketch:type="MSShapeGroup"></path>
            <path d="M15,27 L12,27 C11.448,27 11,27.447 11,28 C11,28.553 11.448,29 12,29 L15,29 C15.552,29 16,28.553 16,28 C16,27.447 15.552,27 15,27" id="Fill-721" fill="#546A79" sketch:type="MSShapeGroup"></path>
            <path d="M15,31 L12,31 C11.448,31 11,31.447 11,32 C11,32.553 11.448,33 12,33 L15,33 C15.552,33 16,32.553 16,32 C16,31.447 15.552,31 15,31" id="Fill-722" fill="#546A79" sketch:type="MSShapeGroup"></path>
            <path d="M19,29 L22,29 C22.552,29 23,28.553 23,28 C23,27.447 22.552,27 22,27 L19,27 C18.448,27 18,27.447 18,28 C18,28.553 18.448,29 19,29" id="Fill-723" fill="#546A79" sketch:type="MSShapeGroup"></path>
            <path d="M22,31 L19,31 C18.448,31 18,31.447 18,32 C18,32.553 18.448,33 19,33 L22,33 C22.552,33 23,32.553 23,32 C23,31.447 22.552,31 22,31" id="Fill-724" fill="#546A79" sketch:type="MSShapeGroup"></path>
            <path d="M54.974,16 L3.026,16 C1.355,16 0,14.645 0,12.974 L0,7.026 C0,5.355 1.355,4 3.026,4 L54.974,4 C56.645,4 58,5.355 58,7.026 L58,12.974 C58,14.645 56.645,16 54.974,16" id="Fill-749" fill="#38454F" sketch:type="MSShapeGroup"></path>
            <path d="M55,4 L3,4 L7.545,0.364 C7.84,0.128 8.205,0 8.582,0 L49.418,0 C49.795,0 50.16,0.128 50.455,0.364 L55,4" id="Fill-750" fill="#283238" sketch:type="MSShapeGroup"></path>
            <path d="M3,16 L55,16 L50.455,19.636 C50.16,19.872 49.795,20 49.418,20 L8.582,20 C8.205,20 7.84,19.872 7.545,19.636 L3,16" id="Fill-751" fill="#1A2530" sketch:type="MSShapeGroup"></path>
            <path d="M8,9 L5,9 C4.448,9 4,8.553 4,8 C4,7.447 4.448,7 5,7 L8,7 C8.552,7 9,7.447 9,8 C9,8.553 8.552,9 8,9" id="Fill-752" fill="#546A79" sketch:type="MSShapeGroup"></path>
            <path d="M8,13 L5,13 C4.448,13 4,12.553 4,12 C4,11.447 4.448,11 5,11 L8,11 C8.552,11 9,11.447 9,12 C9,12.553 8.552,13 8,13" id="Fill-753" fill="#546A79" sketch:type="MSShapeGroup"></path>
            <path d="M15,9 L12,9 C11.448,9 11,8.553 11,8 C11,7.447 11.448,7 12,7 L15,7 C15.552,7 16,7.447 16,8 C16,8.553 15.552,9 15,9" id="Fill-754" fill="#546A79" sketch:type="MSShapeGroup"></path>
            <path d="M15,13 L12,13 C11.448,13 11,12.553 11,12 C11,11.447 11.448,11 12,11 L15,11 C15.552,11 16,11.447 16,12 C16,12.553 15.552,13 15,13" id="Fill-755" fill="#546A79" sketch:type="MSShapeGroup"></path>
            <path d="M22,9 L19,9 C18.448,9 18,8.553 18,8 C18,7.447 18.448,7 19,7 L22,7 C22.552,7 23,7.447 23,8 C23,8.553 22.552,9 22,9" id="Fill-756" fill="#546A79" sketch:type="MSShapeGroup"></path>
            <path d="M22,13 L19,13 C18.448,13 18,12.553 18,12 C18,11.447 18.448,11 19,11 L22,11 C22.552,11 23,11.447 23,12 C23,12.553 22.552,13 22,13" id="Fill-757" fill="#546A79" sketch:type="MSShapeGroup"></path>
            <path d="M30,28 C30.552,28 31,27.552 31,27 C31,26.448 30.552,26 30,26 C29.448,26 29,26.448 29,27 C29,27.552 29.448,28 30,28" id="Fill-758" fill="#546A79" sketch:type="MSShapeGroup"></path>
            <path d="M30,32 C29.448,32 29,32.448 29,33 C29,33.552 29.448,34 30,34 C30.552,34 31,33.552 31,33 C31,32.448 30.552,32 30,32" id="Fill-759" fill="#546A79" sketch:type="MSShapeGroup"></path>
            <path d="M32,29 C31.448,29 31,29.448 31,30 C31,30.552 31.448,31 32,31 C32.552,31 33,30.552 33,30 C33,29.448 32.552,29 32,29" id="Fill-760" fill="#546A79" sketch:type="MSShapeGroup"></path>
            <path d="M34,26 C33.448,26 33,26.448 33,27 C33,27.552 33.448,28 34,28 C34.552,28 35,27.552 35,27 C35,26.448 34.552,26 34,26" id="Fill-761" fill="#546A79" sketch:type="MSShapeGroup"></path>
            <path d="M34,32 C33.448,32 33,32.448 33,33 C33,33.552 33.448,34 34,34 C34.552,34 35,33.552 35,33 C35,32.448 34.552,32 34,32" id="Fill-762" fill="#546A79" sketch:type="MSShapeGroup"></path>
            <path d="M36,29 C35.448,29 35,29.448 35,30 C35,30.552 35.448,31 36,31 C36.552,31 37,30.552 37,30 C37,29.448 36.552,29 36,29" id="Fill-763" fill="#546A79" sketch:type="MSShapeGroup"></path>
            <path d="M38,26 C37.448,26 37,26.448 37,27 C37,27.552 37.448,28 38,28 C38.552,28 39,27.552 39,27 C39,26.448 38.552,26 38,26" id="Fill-764" fill="#546A79" sketch:type="MSShapeGroup"></path>
            <path d="M38,32 C37.448,32 37,32.448 37,33 C37,33.552 37.448,34 38,34 C38.552,34 39,33.552 39,33 C39,32.448 38.552,32 38,32" id="Fill-765" fill="#546A79" sketch:type="MSShapeGroup"></path>
            <path d="M30,8 C30.552,8 31,7.552 31,7 C31,6.448 30.552,6 30,6 C29.448,6 29,6.448 29,7 C29,7.552 29.448,8 30,8" id="Fill-766" fill="#546A79" sketch:type="MSShapeGroup"></path>
            <path d="M30,14 C30.552,14 31,13.552 31,13 C31,12.448 30.552,12 30,12 C29.448,12 29,12.448 29,13 C29,13.552 29.448,14 30,14" id="Fill-767" fill="#546A79" sketch:type="MSShapeGroup"></path>
            <path d="M32,11 C32.552,11 33,10.552 33,10 C33,9.448 32.552,9 32,9 C31.448,9 31,9.448 31,10 C31,10.552 31.448,11 32,11" id="Fill-768" fill="#546A79" sketch:type="MSShapeGroup"></path>
            <path d="M34,8 C34.552,8 35,7.552 35,7 C35,6.448 34.552,6 34,6 C33.448,6 33,6.448 33,7 C33,7.552 33.448,8 34,8" id="Fill-769" fill="#546A79" sketch:type="MSShapeGroup"></path>
            <path d="M34,12 C33.448,12 33,12.448 33,13 C33,13.552 33.448,14 34,14 C34.552,14 35,13.552 35,13 C35,12.448 34.552,12 34,12" id="Fill-770" fill="#546A79" sketch:type="MSShapeGroup"></path>
            <path d="M36,11 C36.552,11 37,10.552 37,10 C37,9.448 36.552,9 36,9 C35.448,9 35,9.448 35,10 C35,10.552 35.448,11 36,11" id="Fill-771" fill="#546A79" sketch:type="MSShapeGroup"></path>
            <path d="M38,8 C38.552,8 39,7.552 39,7 C39,6.448 38.552,6 38,6 C37.448,6 37,6.448 37,7 C37,7.552 37.448,8 38,8" id="Fill-772" fill="#546A79" sketch:type="MSShapeGroup"></path>
            <path d="M38,12 C37.448,12 37,12.448 37,13 C37,13.552 37.448,14 38,14 C38.552,14 39,13.552 39,13 C39,12.448 38.552,12 38,12" id="Fill-773" fill="#546A79" sketch:type="MSShapeGroup"></path>
            <path d="M16.11,42.89 L9.89,42.89 C9.398,42.89 9,42.492 9,42 L9,40 L17,40 L17,42 C17,42.492 16.602,42.89 16.11,42.89" id="Fill-774" fill="#28384B" sketch:type="MSShapeGroup"></path>
            <path d="M48.11,42.89 L41.89,42.89 C41.398,42.89 41,42.492 41,42 L41,40 L49,40 L49,42 C49,42.492 48.602,42.89 48.11,42.89" id="Fill-775" fill="#28384B" sketch:type="MSShapeGroup"></path>
            <path d="M54,10 C54,11.657 52.657,13 51,13 C49.343,13 48,11.657 48,10 C48,8.343 49.343,7 51,7 C52.657,7 54,8.343 54,10" id="Fill-1933" fill="#283238" sketch:type="MSShapeGroup"></path>
            <path d="M53,10 C53,11.105 52.105,12 51,12 C49.895,12 49,11.105 49,10 C49,8.895 49.895,8 51,8 C52.105,8 53,8.895 53,10" id="Fill-1934" fill="#81EB1C" sketch:type="MSShapeGroup"></path>
            <path d="M54,30 C54,31.657 52.657,33 51,33 C49.343,33 48,31.657 48,30 C48,28.343 49.343,27 51,27 C52.657,27 54,28.343 54,30" id="Fill-1935" fill="#283238" sketch:type="MSShapeGroup"></path>
            <path d="M53,30 C53,31.105 52.105,32 51,32 C49.895,32 49,31.105 49,30 C49,28.895 49.895,28 51,28 C52.105,28 53,28.895 53,30" id="Fill-1936" fill="#81EB1C" sketch:type="MSShapeGroup"></path>
        </g>
    </g>
</svg>