<?xml version="1.0" encoding="UTF-8" standalone="no"?>
<svg width="34px" height="58px" viewBox="0 0 34 58" version="1.1" xmlns="http://www.w3.org/2000/svg" xmlns:xlink="http://www.w3.org/1999/xlink" xmlns:sketch="http://www.bohemiancoding.com/sketch/ns">
    <!-- Generator: Sketch 3.2.2 (9983) - http://www.bohemiancoding.com/sketch -->
    <title>65 - S6 (Flat)</title>
    <desc>Created with Sketch.</desc>
    <defs></defs>
    <g id="Page-1" stroke="none" stroke-width="1" fill="none" fill-rule="evenodd" sketch:type="MSPage">
        <g id="65---S6-(Flat)" sketch:type="MSLayerGroup">
            <path d="M28.257,58 L5.743,58 C2.571,58 0,55.429 0,52.257 L0,5.743 C0,2.571 2.571,0 5.743,0 L28.257,0 C31.429,0 34,2.571 34,5.743 L34,52.257 C34,55.429 31.429,58 28.257,58" id="Fill-139" fill="#38454F" sketch:type="MSShapeGroup"></path>
            <path d="M3,6 L31,6 L31,49 L3,49 L3,6 Z" id="Fill-1399" fill="#546A79" sketch:type="MSShapeGroup"></path>
            <path d="M6,14 C6.256,14 6.512,13.902 6.707,13.707 L10.707,9.707 C11.098,9.316 11.098,8.684 10.707,8.293 C10.316,7.902 9.684,7.902 9.293,8.293 L5.293,12.293 C4.902,12.684 4.902,13.316 5.293,13.707 C5.488,13.902 5.744,14 6,14" id="Fill-1400" fill="#78909B" sketch:type="MSShapeGroup"></path>
            <path d="M6,19 C6.256,19 6.512,18.902 6.707,18.707 L8.707,16.707 C9.098,16.316 9.098,15.684 8.707,15.293 C8.316,14.902 7.684,14.902 7.293,15.293 L5.293,17.293 C4.902,17.684 4.902,18.316 5.293,18.707 C5.488,18.902 5.744,19 6,19" id="Fill-1401" fill="#78909B" sketch:type="MSShapeGroup"></path>
            <path d="M9.29,13.29 C9.109,13.48 9,13.73 9,14 C9,14.26 9.109,14.52 9.29,14.71 C9.479,14.89 9.74,15 10,15 C10.26,15 10.519,14.89 10.71,14.71 C10.89,14.52 11,14.26 11,14 C11,13.74 10.89,13.48 10.71,13.29 C10.33,12.92 9.66,12.92 9.29,13.29" id="Fill-1402" fill="#78909B" sketch:type="MSShapeGroup"></path>
            <path d="M11.293,12.707 C11.488,12.902 11.744,13 12,13 C12.256,13 12.512,12.902 12.707,12.707 L15.707,9.707 C16.098,9.316 16.098,8.684 15.707,8.293 C15.316,7.902 14.684,7.902 14.293,8.293 L11.293,11.293 C10.902,11.684 10.902,12.316 11.293,12.707" id="Fill-1403" fill="#78909B" sketch:type="MSShapeGroup"></path>
            <path d="M14.293,13.293 L5.293,22.293 C4.902,22.684 4.902,23.316 5.293,23.707 C5.488,23.902 5.744,24 6,24 C6.256,24 6.512,23.902 6.707,23.707 L15.707,14.707 C16.098,14.316 16.098,13.684 15.707,13.293 C15.316,12.902 14.684,12.902 14.293,13.293" id="Fill-1404" fill="#78909B" sketch:type="MSShapeGroup"></path>
            <path d="M16.29,11.29 C16.109,11.48 16,11.74 16,12 C16,12.26 16.109,12.52 16.29,12.71 C16.479,12.89 16.74,13 17,13 C17.26,13 17.519,12.89 17.71,12.71 C17.89,12.52 18,12.26 18,12 C18,11.74 17.89,11.48 17.71,11.29 C17.34,10.92 16.66,10.92 16.29,11.29" id="Fill-1405" fill="#78909B" sketch:type="MSShapeGroup"></path>
            <path d="M20.707,8.293 C20.316,7.902 19.684,7.902 19.293,8.293 L18.293,9.293 C17.902,9.684 17.902,10.316 18.293,10.707 C18.488,10.902 18.744,11 19,11 C19.256,11 19.512,10.902 19.707,10.707 L20.707,9.707 C21.098,9.316 21.098,8.684 20.707,8.293" id="Fill-1406" fill="#78909B" sketch:type="MSShapeGroup"></path>
            <path d="M20,4 L14,4 C13.447,4 13,3.553 13,3 C13,2.447 13.447,2 14,2 L20,2 C20.553,2 21,2.447 21,3 C21,3.553 20.553,4 20,4" id="Fill-1407" fill="#546A79" sketch:type="MSShapeGroup"></path>
            <path d="M29,4 L28,4 C27.447,4 27,3.553 27,3 C27,2.447 27.447,2 28,2 L29,2 C29.553,2 30,2.447 30,3 C30,3.553 29.553,4 29,4" id="Fill-1408" fill="#546A79" sketch:type="MSShapeGroup"></path>
            <path d="M25,4 L24,4 C23.447,4 23,3.553 23,3 C23,2.447 23.447,2 24,2 L25,2 C25.553,2 26,2.447 26,3 C26,3.553 25.553,4 25,4" id="Fill-1409" fill="#546A79" sketch:type="MSShapeGroup"></path>
            <path d="M19.5,55 L14.5,55 C13.675,55 13,54.325 13,53.5 C13,52.675 13.675,52 14.5,52 L19.5,52 C20.325,52 21,52.675 21,53.5 C21,54.325 20.325,55 19.5,55" id="Fill-1410" fill="#CBD4D8" sketch:type="MSShapeGroup"></path>
        </g>
    </g>
</svg>