<?xml version="1.0" encoding="UTF-8" standalone="no"?>
<svg width="58px" height="53px" viewBox="0 0 58 53" version="1.1" xmlns="http://www.w3.org/2000/svg" xmlns:xlink="http://www.w3.org/1999/xlink" xmlns:sketch="http://www.bohemiancoding.com/sketch/ns">
    <!-- Generator: Sketch 3.2.2 (9983) - http://www.bohemiancoding.com/sketch -->
    <title>54 - Sega Genesis Controller (Flat)</title>
    <desc>Created with Sketch.</desc>
    <defs></defs>
    <g id="Page-1" stroke="none" stroke-width="1" fill="none" fill-rule="evenodd" sketch:type="MSPage">
        <g id="54---Sega-Genesis-Controller-(Flat)" sketch:type="MSLayerGroup">
            <path d="M45.86,53 C44.539,53.022 40.334,51.066 36.419,50.001 C31.842,48.756 26.159,48.761 21.581,50.001 C17.636,51.07 13.958,53.023 12.14,53 C5.212,52.912 0,46.032 0,38.993 C0,31.29 6.557,24.351 14.347,24.001 L44.021,24.001 C51.811,24.351 58,31.29 58,38.993 C58,46.032 52.787,52.884 45.86,53" id="Fill-311" fill="#283238" sketch:type="MSShapeGroup"></path>
            <path d="M18,36 L15,36 L15,33 L10,33 L10,36 L7,36 L7,41 L10,41 L10,44 L15,44 L15,41 L18,41 L18,36" id="Fill-312" fill="#38454F" sketch:type="MSShapeGroup"></path>
            <path d="M28,43 L26,45 M32,43 L30,45" id="Stroke-313" stroke="#CBD4D8" stroke-width="2" stroke-linecap="round" stroke-linejoin="round" sketch:type="MSShapeGroup"></path>
            <path d="M28,24 L28,5.5 C28,3.025 30.025,1 32.5,1 C34.975,1 37,3.025 37,5.5 L37,8 C37,10.2 38.8,12 41,12 C43.2,12 45,10.2 45,8 L45,0" id="Stroke-320" stroke="#38454F" stroke-width="2" sketch:type="MSShapeGroup"></path>
            <path d="M46,33.5 C46,34.881 44.881,36 43.5,36 C42.119,36 41,34.881 41,33.5 C41,32.119 42.119,31 43.5,31 C44.881,31 46,32.119 46,33.5" id="Fill-338" fill="#38454F" sketch:type="MSShapeGroup"></path>
            <path d="M54,36.5 C54,37.881 52.881,39 51.5,39 C50.119,39 49,37.881 49,36.5 C49,35.119 50.119,34 51.5,34 C52.881,34 54,35.119 54,36.5" id="Fill-339" fill="#38454F" sketch:type="MSShapeGroup"></path>
            <path d="M40,38.5 C40,39.881 38.881,41 37.5,41 C36.119,41 35,39.881 35,38.5 C35,37.119 36.119,36 37.5,36 C38.881,36 40,37.119 40,38.5" id="Fill-340" fill="#38454F" sketch:type="MSShapeGroup"></path>
            <path d="M48,41.5 C48,42.881 46.881,44 45.5,44 C44.119,44 43,42.881 43,41.5 C43,40.119 44.119,39 45.5,39 C46.881,39 48,40.119 48,41.5" id="Fill-343" fill="#38454F" sketch:type="MSShapeGroup"></path>
            <path d="M23,29.001 L35,29.001" id="Stroke-344" stroke="#B0B6BB" stroke-width="2" stroke-linecap="round" stroke-linejoin="round" sketch:type="MSShapeGroup"></path>
        </g>
    </g>
</svg>