<?xml version="1.0" encoding="UTF-8" standalone="no"?>
<svg width="58px" height="30px" viewBox="0 0 58 30" version="1.1" xmlns="http://www.w3.org/2000/svg" xmlns:xlink="http://www.w3.org/1999/xlink" xmlns:sketch="http://www.bohemiancoding.com/sketch/ns">
    <!-- Generator: Sketch 3.2.2 (9983) - http://www.bohemiancoding.com/sketch -->
    <title>50 - SNES (Flat)</title>
    <desc>Created with Sketch.</desc>
    <defs></defs>
    <g id="Page-1" stroke="none" stroke-width="1" fill="none" fill-rule="evenodd" sketch:type="MSPage">
        <g id="50---SNES-(Flat)" sketch:type="MSLayerGroup">
            <path d="M0,7 L0,9 L5,9 C5.552,9 6,9.447 6,10 C6,10.553 5.552,11 5,11 L0,11 L0,12 L5,12 C5.552,12 6,12.447 6,13 C6,13.553 5.552,14 5,14 L0,14 L0,15 L5,15 C5.552,15 6,15.447 6,16 C6,16.553 5.552,17 5,17 L0,17 L0,20 L58,20 L58,7 L0,7" id="Fill-99" fill="#B0B6BB" sketch:type="MSShapeGroup"></path>
            <path d="M6,10 C6,9.447 5.552,9 5,9 L0,9 L0,11 L5,11 C5.552,11 6,10.553 6,10" id="Fill-100" fill="#839494" sketch:type="MSShapeGroup"></path>
            <path d="M6,13 C6,12.447 5.552,12 5,12 L0,12 L0,14 L5,14 C5.552,14 6,13.553 6,13" id="Fill-101" fill="#839494" sketch:type="MSShapeGroup"></path>
            <path d="M6,16 C6,15.447 5.552,15 5,15 L0,15 L0,17 L5,17 C5.552,17 6,16.553 6,16" id="Fill-102" fill="#839494" sketch:type="MSShapeGroup"></path>
            <path d="M55,30 L3,30 L0,23.828 L0,20 L58,20 L58,23.828 L55,30" id="Fill-398" fill="#E0E2E3" sketch:type="MSShapeGroup"></path>
            <path d="M58,7 L0,7 L8,0 L50,0 L58,7" id="Fill-399" fill="#E0E2E3" sketch:type="MSShapeGroup"></path>
            <path d="M42,7 L48,7 L48,30 L42,30 L42,7 Z" id="Fill-400" fill="#546A79" sketch:type="MSShapeGroup"></path>
            <path d="M48,7 L42,7 L35,0 L41,0 L48,7" id="Fill-401" fill="#38454F" sketch:type="MSShapeGroup"></path>
            <path d="M7,23 L14,23 L14,27 L7,27 L7,23 Z" id="Fill-402" fill="#FFFFFF" sketch:type="MSShapeGroup"></path>
            <path d="M18,23 L25,23 L25,27 L18,27 L18,23 Z" id="Fill-403" fill="#FFFFFF" sketch:type="MSShapeGroup"></path>
            <path d="M12,12 L24,12" id="Stroke-404" stroke="#DD342E" stroke-width="2" stroke-linecap="round" sketch:type="MSShapeGroup"></path>
        </g>
    </g>
</svg>