<?xml version="1.0" encoding="UTF-8" standalone="no"?>
<svg width="57px" height="54px" viewBox="0 0 57 54" version="1.1" xmlns="http://www.w3.org/2000/svg" xmlns:xlink="http://www.w3.org/1999/xlink" xmlns:sketch="http://www.bohemiancoding.com/sketch/ns">
    <!-- Generator: Sketch 3.2.2 (9983) - http://www.bohemiancoding.com/sketch -->
    <title>59 - SNES Controller (Flat)</title>
    <desc>Created with Sketch.</desc>
    <defs></defs>
    <g id="Page-1" stroke="none" stroke-width="1" fill="none" fill-rule="evenodd" sketch:type="MSPage">
        <g id="59---SNES-Controller-(Flat)" sketch:type="MSLayerGroup" transform="translate(0.000000, 1.000000)">
            <path d="M29,25 L29,12.5 C29,10.025 31.025,8 33.5,8 C35.975,8 38,10.025 38,12.5 L38,16 C38,18.2 39.8,20 42,20 C44.2,20 46,18.2 46,16 L46,0" id="Path" stroke="#38454F" stroke-width="2" stroke-linecap="round" sketch:type="MSShapeGroup"></path>
            <path d="M45.241,52.943 C43.938,52.965 39.789,52.675 35.927,51.613 C31.413,50.371 25.806,50.375 21.29,51.613 C17.398,52.679 13.769,52.966 11.976,52.943 C5.142,52.856 0,45.992 0,38.972 C0,31.287 6.287,25 13.972,25 L43.246,25 C50.93,25 57,31.287 57,38.972 C57,45.992 52.075,52.828 45.241,52.943" id="Fill-1833" fill="#CBD4D8" sketch:type="MSShapeGroup"></path>
            <path d="M27,29 L31.632,29" id="Stroke-1834" stroke="#B0B6BB" stroke-width="2" stroke-linecap="round" sketch:type="MSShapeGroup"></path>
            <path d="M39,39 C39,40.657 37.657,42 36,42 C34.343,42 33,40.657 33,39 C33,37.343 34.343,36 36,36 C37.657,36 39,37.343 39,39" id="Fill-1835" fill="#42B05C" sketch:type="MSShapeGroup"></path>
            <path d="M53,39 C53,40.657 51.657,42 50,42 C48.343,42 47,40.657 47,39 C47,37.343 48.343,36 50,36 C51.657,36 53,37.343 53,39" id="Fill-1836" fill="#DD342E" sketch:type="MSShapeGroup"></path>
            <path d="M43,43 C44.657,43 46,44.343 46,46 C46,47.657 44.657,49 43,49 C41.343,49 40,47.657 40,46 C40,44.343 41.343,43 43,43" id="Fill-1837" fill="#ECBA16" sketch:type="MSShapeGroup"></path>
            <path d="M43,29 C44.657,29 46,30.343 46,32 C46,33.657 44.657,35 43,35 C41.343,35 40,33.657 40,32 C40,30.343 41.343,29 43,29" id="Fill-1838" fill="#366DB6" sketch:type="MSShapeGroup"></path>
            <path d="M22,36 L18,36 L18,32 L12,32 L12,36 L8,36 L8,42 L12,42 L12,46 L18,46 L18,42 L22,42 L22,36" id="Fill-1839" fill="#38454F" sketch:type="MSShapeGroup"></path>
        </g>
    </g>
</svg>