<?xml version="1.0" encoding="UTF-8" standalone="no"?>
<svg width="53px" height="58px" viewBox="0 0 53 58" version="1.1" xmlns="http://www.w3.org/2000/svg" xmlns:xlink="http://www.w3.org/1999/xlink" xmlns:sketch="http://www.bohemiancoding.com/sketch/ns">
    <!-- Generator: Sketch 3.2.2 (9983) - http://www.bohemiancoding.com/sketch -->
    <title>30 - Speakers (Flat)</title>
    <desc>Created with Sketch.</desc>
    <defs></defs>
    <g id="Page-1" stroke="none" stroke-width="1" fill="none" fill-rule="evenodd" sketch:type="MSPage">
        <g id="30---Speakers-(Flat)" sketch:type="MSLayerGroup">
            <path d="M37.081,0 L1.919,0 C0.859,0 0,0.859 0,1.919 L0,4 L5,4 C5.552,4 6,4.447 6,5 C6,5.553 5.552,6 5,6 L0,6 L0,8 L5,8 C5.552,8 6,8.447 6,9 C6,9.553 5.552,10 5,10 L0,10 L0,12 L5,12 C5.552,12 6,12.447 6,13 C6,13.553 5.552,14 5,14 L0,14 L0,16 L5,16 C5.552,16 6,16.447 6,17 C6,17.553 5.552,18 5,18 L0,18 L0,49.202 C0,50.195 0.805,51 1.798,51 L14,51 L14,5.919 C14,4.859 14.859,4 15.919,4 L39,4 L39,1.919 C39,0.859 38.141,0 37.081,0" id="Fill-94" fill="#283238" sketch:type="MSShapeGroup"></path>
            <path d="M6,5 C6,4.447 5.552,4 5,4 L0,4 L0,6 L5,6 C5.552,6 6,5.553 6,5" id="Fill-95" fill="#546A79" sketch:type="MSShapeGroup"></path>
            <path d="M5,8 L0,8 L0,10 L5,10 C5.552,10 6,9.553 6,9 C6,8.447 5.552,8 5,8" id="Fill-96" fill="#546A79" sketch:type="MSShapeGroup"></path>
            <path d="M5,12 L0,12 L0,14 L5,14 C5.552,14 6,13.553 6,13 C6,12.447 5.552,12 5,12" id="Fill-97" fill="#546A79" sketch:type="MSShapeGroup"></path>
            <path d="M5,16 L0,16 L0,18 L5,18 C5.552,18 6,17.553 6,17 C6,16.447 5.552,16 5,16" id="Fill-98" fill="#546A79" sketch:type="MSShapeGroup"></path>
            <path d="M37.081,0 L1.919,0 C0.859,0 0,0.859 0,1.919 L0,4 L5,4 C5.552,4 6,4.447 6,5 C6,5.553 5.552,6 5,6 L0,6 L0,8 L5,8 C5.552,8 6,8.447 6,9 C6,9.553 5.552,10 5,10 L0,10 L0,12 L5,12 C5.552,12 6,12.447 6,13 C6,13.553 5.552,14 5,14 L0,14 L0,16 L5,16 C5.552,16 6,16.447 6,17 C6,17.553 5.552,18 5,18 L0,18 L0,49.202 C0,50.195 0.805,51 1.798,51 L14,51 L14,5.919 C14,4.859 14.859,4 15.919,4 L39,4 L39,1.919 C39,0.859 38.141,0 37.081,0" id="Fill-94" fill="#283238" sketch:type="MSShapeGroup"></path>
            <path d="M6,5 C6,4.447 5.552,4 5,4 L0,4 L0,6 L5,6 C5.552,6 6,5.553 6,5" id="Fill-95" fill="#546A79" sketch:type="MSShapeGroup"></path>
            <path d="M5,8 L0,8 L0,10 L5,10 C5.552,10 6,9.553 6,9 C6,8.447 5.552,8 5,8" id="Fill-96" fill="#546A79" sketch:type="MSShapeGroup"></path>
            <path d="M5,12 L0,12 L0,14 L5,14 C5.552,14 6,13.553 6,13 C6,12.447 5.552,12 5,12" id="Fill-97" fill="#546A79" sketch:type="MSShapeGroup"></path>
            <path d="M5,16 L0,16 L0,18 L5,18 C5.552,18 6,17.553 6,17 C6,16.447 5.552,16 5,16" id="Fill-98" fill="#546A79" sketch:type="MSShapeGroup"></path>
            <path d="M18,57 L22,57" id="Stroke-486" stroke="#0F81E0" stroke-width="2" stroke-linecap="round" sketch:type="MSShapeGroup"></path>
            <path d="M14,17.023 C8.159,19.244 4,24.879 4,31.5 C4,38.121 8.159,43.756 14,45.977 L14,17.023" id="Fill-487" fill="#546A79" sketch:type="MSShapeGroup"></path>
            <path d="M51.081,4 L15.919,4 C14.859,4 14,4.859 14,5.919 L14,8 L19,8 C19.552,8 20,8.447 20,9 C20,9.553 19.552,10 19,10 L14,10 L14,12 L19,12 C19.552,12 20,12.447 20,13 C20,13.553 19.552,14 19,14 L14,14 L14,16 L19,16 C19.552,16 20,16.447 20,17 C20,17.553 19.552,18 19,18 L14,18 L14,20 L19,20 C19.552,20 20,20.447 20,21 C20,21.553 19.552,22 19,22 L14,22 L14,53.202 C14,54.195 14.805,55 15.798,55 L51.202,55 C52.195,55 53,54.195 53,53.202 L53,5.919 C53,4.859 52.141,4 51.081,4" id="Fill-1901" fill="#38454F" sketch:type="MSShapeGroup"></path>
            <path d="M20,9 C20,8.447 19.552,8 19,8 L14,8 L14,10 L19,10 C19.552,10 20,9.553 20,9" id="Fill-1902" fill="#283238" sketch:type="MSShapeGroup"></path>
            <path d="M19,12 L14,12 L14,14 L19,14 C19.552,14 20,13.553 20,13 C20,12.447 19.552,12 19,12" id="Fill-1903" fill="#283238" sketch:type="MSShapeGroup"></path>
            <path d="M19,16 L14,16 L14,18 L19,18 C19.552,18 20,17.553 20,17 C20,16.447 19.552,16 19,16" id="Fill-1904" fill="#283238" sketch:type="MSShapeGroup"></path>
            <path d="M19,20 L14,20 L14,22 L19,22 C19.552,22 20,21.553 20,21 C20,20.447 19.552,20 19,20" id="Fill-1905" fill="#283238" sketch:type="MSShapeGroup"></path>
            <path d="M51.081,4 L15.919,4 C14.859,4 14,4.859 14,5.919 L14,8 L19,8 C19.552,8 20,8.447 20,9 C20,9.553 19.552,10 19,10 L14,10 L14,12 L19,12 C19.552,12 20,12.447 20,13 C20,13.553 19.552,14 19,14 L14,14 L14,16 L19,16 C19.552,16 20,16.447 20,17 C20,17.553 19.552,18 19,18 L14,18 L14,20 L19,20 C19.552,20 20,20.447 20,21 C20,21.553 19.552,22 19,22 L14,22 L14,53.202 C14,54.195 14.805,55 15.798,55 L51.202,55 C52.195,55 53,54.195 53,53.202 L53,5.919 C53,4.859 52.141,4 51.081,4" id="Fill-1901" fill="#38454F" sketch:type="MSShapeGroup"></path>
            <path d="M20,9 C20,8.447 19.552,8 19,8 L14,8 L14,10 L19,10 C19.552,10 20,9.553 20,9" id="Fill-1902" fill="#283238" sketch:type="MSShapeGroup"></path>
            <path d="M19,12 L14,12 L14,14 L19,14 C19.552,14 20,13.553 20,13 C20,12.447 19.552,12 19,12" id="Fill-1903" fill="#283238" sketch:type="MSShapeGroup"></path>
            <path d="M19,16 L14,16 L14,18 L19,18 C19.552,18 20,17.553 20,17 C20,16.447 19.552,16 19,16" id="Fill-1904" fill="#283238" sketch:type="MSShapeGroup"></path>
            <path d="M19,20 L14,20 L14,22 L19,22 C19.552,22 20,21.553 20,21 C20,20.447 19.552,20 19,20" id="Fill-1905" fill="#283238" sketch:type="MSShapeGroup"></path>
            <path d="M33.5,20 C37.934,20 41.922,21.871 44.747,24.856 C47.287,23.386 49,20.646 49,17.5 C49,12.806 45.194,9 40.5,9 C35.806,9 32,12.806 32,17.5 C32,18.391 32.138,19.249 32.393,20.056 C32.76,20.03 33.126,20 33.5,20" id="Fill-1906" fill="#283238" sketch:type="MSShapeGroup"></path>
            <path d="M41.015,21.948 C43.255,21.689 45,19.809 45,17.5 C45,15.015 42.985,13 40.5,13 C38.015,13 36,15.015 36,17.5 C36,18.631 36.432,19.652 37.12,20.443 C38.499,20.773 39.808,21.277 41.015,21.948" id="Fill-1907" fill="#546A79" sketch:type="MSShapeGroup"></path>
            <path d="M17,55 L23,55 L23,58 L17,58 L17,55 Z" id="Fill-1908" fill="#B0B6BB" sketch:type="MSShapeGroup"></path>
            <path d="M3,51 L9,51 L9,54 L3,54 L3,51 Z" id="Fill-1909" fill="#B0B6BB" sketch:type="MSShapeGroup"></path>
            <path d="M44,55 L50,55 L50,58 L44,58 L44,55 Z" id="Fill-1910" fill="#B0B6BB" sketch:type="MSShapeGroup"></path>
            <path d="M49,35.5 C49,44.06 42.06,51 33.5,51 C24.94,51 18,44.06 18,35.5 C18,26.94 24.94,20 33.5,20 C42.06,20 49,26.94 49,35.5" id="Fill-1911" fill="#546A79" sketch:type="MSShapeGroup"></path>
            <path d="M38,35.5 C38,37.985 35.985,40 33.5,40 C31.015,40 29,37.985 29,35.5 C29,33.015 31.015,31 33.5,31 C35.985,31 38,33.015 38,35.5" id="Fill-1912" fill="#283238" sketch:type="MSShapeGroup"></path>
        </g>
    </g>
</svg>