<?xml version="1.0" encoding="UTF-8" standalone="no"?>
<svg width="58px" height="42px" viewBox="0 0 58 42" version="1.1" xmlns="http://www.w3.org/2000/svg" xmlns:xlink="http://www.w3.org/1999/xlink" xmlns:sketch="http://www.bohemiancoding.com/sketch/ns">
    <!-- Generator: Sketch 3.2.2 (9983) - http://www.bohemiancoding.com/sketch -->
    <title>5 - SSD (Flat)</title>
    <desc>Created with Sketch.</desc>
    <defs></defs>
    <g id="Page-1" stroke="none" stroke-width="1" fill="none" fill-rule="evenodd" sketch:type="MSPage">
        <g id="5---SSD-(Flat)" sketch:type="MSLayerGroup">
            <path d="M55.911,42 L2.089,42 C0.935,42 0,41.065 0,39.911 L0,2.089 C0,0.935 0.935,0 2.089,0 L55.911,0 C57.065,0 58,0.935 58,2.089 L58,39.911 C58,41.065 57.065,42 55.911,42" id="Fill-135" fill="#B0B6BB" sketch:type="MSShapeGroup"></path>
            <path d="M5,38 C5,38.552 4.552,39 4,39 C3.448,39 3,38.552 3,38 C3,37.448 3.448,37 4,37 C4.552,37 5,37.448 5,38" id="Fill-733" fill="#E8EDEE" sketch:type="MSShapeGroup"></path>
            <path d="M55,4 C55,4.552 54.552,5 54,5 C53.448,5 53,4.552 53,4 C53,3.448 53.448,3 54,3 C54.552,3 55,3.448 55,4" id="Fill-734" fill="#E8EDEE" sketch:type="MSShapeGroup"></path>
            <path d="M55,38 C55,38.552 54.552,39 54,39 C53.448,39 53,38.552 53,38 C53,37.448 53.448,37 54,37 C54.552,37 55,37.448 55,38" id="Fill-739" fill="#E8EDEE" sketch:type="MSShapeGroup"></path>
            <path d="M43.36,26.216 C44.413,28.613 42.213,31.897 38.447,33.552 C34.68,35.206 30.773,34.605 29.72,32.208 C28.667,29.811 30.867,26.526 34.634,24.872 C38.4,23.217 42.307,23.819 43.36,26.216 L43.36,26.216 Z" id="Fill-1002" fill="#48A0DC" sketch:type="MSShapeGroup"></path>
            <path d="M43.36,26.216 C44.413,28.613 42.213,31.897 38.447,33.552 C34.68,35.206 30.773,34.605 29.72,32.208 C28.667,29.811 30.867,26.526 34.634,24.872 C38.4,23.217 42.307,23.819 43.36,26.216 L43.36,26.216 Z" id="Stroke-1003" stroke="#FFFFFF" stroke-width="2" sketch:type="MSShapeGroup"></path>
            <path d="M8,24 L0,24 L0,2.089 C0,0.935 0.935,0 2.089,0 L32,0 C32,13.255 21.255,24 8,24" id="Fill-1072" fill="#E8EDEE" sketch:type="MSShapeGroup"></path>
            <path d="M58,34 L54,34 L52,31 L52,10 L58,10 L58,34" id="Fill-1073" fill="#283238" sketch:type="MSShapeGroup"></path>
            <path d="M54,12 L58,12 L58,14 L54,14 L54,12 Z" id="Fill-1074" fill="#D3AA6E" sketch:type="MSShapeGroup"></path>
            <path d="M54,15 L58,15 L58,17 L54,17 L54,15 Z" id="Fill-1075" fill="#D3AA6E" sketch:type="MSShapeGroup"></path>
            <path d="M54,18 L58,18 L58,20 L54,20 L54,18 Z" id="Fill-1076" fill="#D3AA6E" sketch:type="MSShapeGroup"></path>
            <path d="M54,21 L58,21 L58,23 L54,23 L54,21 Z" id="Fill-1077" fill="#D3AA6E" sketch:type="MSShapeGroup"></path>
            <path d="M55,30 L58,30 L58,32 L55,32 L55,30 Z" id="Fill-1078" fill="#D3AA6E" sketch:type="MSShapeGroup"></path>
            <path d="M54,27 L58,27 L58,29 L54,29 L54,27 Z" id="Fill-1079" fill="#D3AA6E" sketch:type="MSShapeGroup"></path>
            <path d="M3,17 L5,17 L5,19 L3,19 L3,17 Z" id="Fill-1080" fill="#6C797A" sketch:type="MSShapeGroup"></path>
            <path d="M3,14 L5,14 L5,16 L3,16 L3,14 Z" id="Fill-1081" fill="#6C797A" sketch:type="MSShapeGroup"></path>
            <path d="M3,11 L5,11 L5,13 L3,13 L3,11 Z" id="Fill-1082" fill="#6C797A" sketch:type="MSShapeGroup"></path>
            <path d="M3,8 L5,8 L5,10 L3,10 L3,8 Z" id="Fill-1083" fill="#6C797A" sketch:type="MSShapeGroup"></path>
            <path d="M3,5 L5,5 L5,7 L3,7 L3,5 Z" id="Fill-1084" fill="#6C797A" sketch:type="MSShapeGroup"></path>
            <path d="M9,5 L22,5 L22,7 L9,7 L9,5 Z" id="Fill-1085" fill="#6C797A" sketch:type="MSShapeGroup"></path>
            <path d="M9,8 L19,8 L19,10 L9,10 L9,8 Z" id="Fill-1086" fill="#6C797A" sketch:type="MSShapeGroup"></path>
            <path d="M9,11 L20,11 L20,13 L9,13 L9,11 Z" id="Fill-1087" fill="#6C797A" sketch:type="MSShapeGroup"></path>
            <path d="M9,14 L13,14 L13,16 L9,16 L9,14 Z" id="Fill-1088" fill="#6C797A" sketch:type="MSShapeGroup"></path>
        </g>
    </g>
</svg>