<?xml version="1.0" encoding="UTF-8" standalone="no"?>
<svg width="32px" height="57px" viewBox="0 0 32 57" version="1.1" xmlns="http://www.w3.org/2000/svg" xmlns:xlink="http://www.w3.org/1999/xlink" xmlns:sketch="http://www.bohemiancoding.com/sketch/ns">
    <!-- Generator: Sketch 3.2.2 (9983) - http://www.bohemiancoding.com/sketch -->
    <title>27 - Studio Microphone (Flat)</title>
    <desc>Created with Sketch.</desc>
    <defs></defs>
    <g id="Page-1" stroke="none" stroke-width="1" fill="none" fill-rule="evenodd" sketch:type="MSPage">
        <g id="27---Studio-Microphone-(Flat)" sketch:type="MSLayerGroup">
            <path d="M26,17 C25.448,17 25,16.553 25,16 C25,15.447 25.448,15 26,15 L32,15 L32,13 L23,13 C22.448,13 22,12.553 22,12 C22,11.447 22.448,11 23,11 L32,11 L32,7.385 C32,4.951 30.817,2.798 29,1.453 L29,6 C29,6.553 28.552,7 28,7 C27.448,7 27,6.553 27,6 L27,0.401 C26.367,0.185 25.697,0.056 25,0.02 L25,5 C25,5.553 24.552,6 24,6 C23.448,6 23,5.553 23,5 L23,0 L21,0 L21,4 C21,4.553 20.552,5 20,5 C19.448,5 19,4.553 19,4 L19,0 L17,0 L17,3 C17,3.553 16.552,4 16,4 C15.448,4 15,3.553 15,3 L15,0 L13,0 L13,4 C13,4.553 12.552,5 12,5 C11.448,5 11,4.553 11,4 L11,0 L9,0 L9,5 C9,5.553 8.552,6 8,6 C7.448,6 7,5.553 7,5 L7,0.02 C6.303,0.056 5.633,0.185 5,0.401 L5,6 C5,6.553 4.552,7 4,7 C3.448,7 3,6.553 3,6 L3,1.453 C1.183,2.798 0,4.951 0,7.385 L0,11 L9,11 C9.552,11 10,11.447 10,12 C10,12.553 9.552,13 9,13 L0,13 L0,15 L6,15 C6.552,15 7,15.447 7,16 C7,16.553 6.552,17 6,17 L0,17 L0,19 L5,19 C5.552,19 6,19.447 6,20 C6,20.553 5.552,21 5,21 L0,21 L0,23 L6,23 C6.552,23 7,23.447 7,24 C7,24.553 6.552,25 6,25 L0,25 L0,27 L8,27 C8.552,27 9,27.447 9,28 C9,28.553 8.552,29 8,29 L0,29 L0,36.049 C0,37.901 1.28,39.444 3,39.872 L3,35 C3,34.447 3.448,34 4,34 C4.552,34 5,34.447 5,35 L5,40 L7,40 L7,35 C7,34.447 7.448,34 8,34 C8.552,34 9,34.447 9,35 L9,40 L11,40 L11,35 C11,34.447 11.448,34 12,34 C12.552,34 13,34.447 13,35 L13,40 L15,40 L15,35 C15,34.447 15.448,34 16,34 C16.552,34 17,34.447 17,35 L17,40 L19,40 L19,35 C19,34.447 19.448,34 20,34 C20.552,34 21,34.447 21,35 L21,40 L23,40 L23,35 C23,34.447 23.448,34 24,34 C24.552,34 25,34.447 25,35 L25,40 L27,40 L27,35 C27,34.447 27.448,34 28,34 C28.552,34 29,34.447 29,35 L29,39.872 C30.72,39.444 32,37.901 32,36.049 L32,29 L23,29 C22.448,29 22,28.553 22,28 C22,27.447 22.448,27 23,27 L32,27 L32,25 L26,25 C25.448,25 25,24.553 25,24 C25,23.447 25.448,23 26,23 L32,23 L32,21 L27,21 C26.448,21 26,20.553 26,20 C26,19.447 26.448,19 27,19 L32,19 L32,17 L26,17" id="Fill-1" fill="#CBD4D8" sketch:type="MSShapeGroup"></path>
            <path d="M15,3 L15,0 L13,0 L13,4 C13,4.553 12.552,5 12,5 C11.448,5 11,4.553 11,4 L11,0 L9,0 L9,5 C9,5.553 8.552,6 8,6 C7.448,6 7,5.553 7,5 L7,0.02 C6.303,0.056 5.633,0.185 5,0.401 L5,6 C5,6.553 4.552,7 4,7 C3.448,7 3,6.553 3,6 L3,1.453 C1.183,2.798 0,4.951 0,7.385 L0,11 L9,11 C9.552,11 10,11.447 10,12 C10,12.553 9.552,13 9,13 L0,13 L0,15 L6,15 C6.552,15 7,15.447 7,16 C7,16.553 6.552,17 6,17 L0,17 L0,19 L5,19 C5.552,19 6,19.447 6,20 C6,20.553 5.552,21 5,21 L0,21 L0,23 L6,23 C6.552,23 7,23.447 7,24 C7,24.553 6.552,25 6,25 L0,25 L0,27 L8,27 C8.552,27 9,27.447 9,28 C9,28.553 8.552,29 8,29 L0,29 L0,36.049 C0,37.901 1.28,39.444 3,39.872 L3,35 C3,34.447 3.448,34 4,34 C4.552,34 5,34.447 5,35 L5,40 L7,40 L7,35 C7,34.447 7.448,34 8,34 C8.552,34 9,34.447 9,35 L9,40 L11,40 L11,35 C11,34.447 11.448,34 12,34 C12.552,34 13,34.447 13,35 L13,40 L15,40 L15,35 C15,34.447 15.448,34 16,34 L16,4 C15.448,4 15,3.553 15,3" id="Fill-2" fill="#E0E2E3" sketch:type="MSShapeGroup"></path>
            <path d="M22,12 C22,12.553 22.448,13 23,13 L32,13 L32,11 L23,11 C22.448,11 22,11.447 22,12" id="Fill-51" fill="#6C797A" sketch:type="MSShapeGroup"></path>
            <path d="M25,16 C25,16.553 25.448,17 26,17 L32,17 L32,15 L26,15 C25.448,15 25,15.447 25,16" id="Fill-52" fill="#6C797A" sketch:type="MSShapeGroup"></path>
            <path d="M26,20 C26,20.553 26.448,21 27,21 L32,21 L32,19 L27,19 C26.448,19 26,19.447 26,20" id="Fill-53" fill="#6C797A" sketch:type="MSShapeGroup"></path>
            <path d="M22,28 C22,28.553 22.448,29 23,29 L32,29 L32,27 L23,27 C22.448,27 22,27.447 22,28" id="Fill-54" fill="#6C797A" sketch:type="MSShapeGroup"></path>
            <path d="M25,24 C25,24.553 25.448,25 26,25 L32,25 L32,23 L26,23 C25.448,23 25,23.447 25,24" id="Fill-55" fill="#6C797A" sketch:type="MSShapeGroup"></path>
            <path d="M10,12 C10,11.447 9.552,11 9,11 L0,11 L0,13 L9,13 C9.552,13 10,12.553 10,12" id="Fill-56" fill="#6C797A" sketch:type="MSShapeGroup"></path>
            <path d="M7,16 C7,15.447 6.552,15 6,15 L0,15 L0,17 L6,17 C6.552,17 7,16.553 7,16" id="Fill-57" fill="#6C797A" sketch:type="MSShapeGroup"></path>
            <path d="M6,20 C6,19.447 5.552,19 5,19 L0,19 L0,21 L5,21 C5.552,21 6,20.553 6,20" id="Fill-58" fill="#6C797A" sketch:type="MSShapeGroup"></path>
            <path d="M9,28 C9,27.447 8.552,27 8,27 L0,27 L0,29 L8,29 C8.552,29 9,28.553 9,28" id="Fill-59" fill="#6C797A" sketch:type="MSShapeGroup"></path>
            <path d="M7,24 C7,23.447 6.552,23 6,23 L0,23 L0,25 L6,25 C6.552,25 7,24.553 7,24" id="Fill-60" fill="#6C797A" sketch:type="MSShapeGroup"></path>
            <path d="M4,7 C4.552,7 5,6.553 5,6 L5,0.401 C4.275,0.649 3.603,1.006 3,1.453 L3,6 C3,6.553 3.448,7 4,7" id="Fill-61" fill="#6C797A" sketch:type="MSShapeGroup"></path>
            <path d="M8,6 C8.552,6 9,5.553 9,5 L9,0 L7.385,0 C7.255,0 7.129,0.013 7,0.02 L7,5 C7,5.553 7.448,6 8,6" id="Fill-62" fill="#6C797A" sketch:type="MSShapeGroup"></path>
            <path d="M12,5 C12.552,5 13,4.553 13,4 L13,0 L11,0 L11,4 C11,4.553 11.448,5 12,5" id="Fill-63" fill="#6C797A" sketch:type="MSShapeGroup"></path>
            <path d="M16,4 C16.552,4 17,3.553 17,3 L17,0 L15,0 L15,3 C15,3.553 15.448,4 16,4" id="Fill-64" fill="#6C797A" sketch:type="MSShapeGroup"></path>
            <path d="M20,5 C20.552,5 21,4.553 21,4 L21,0 L19,0 L19,4 C19,4.553 19.448,5 20,5" id="Fill-65" fill="#6C797A" sketch:type="MSShapeGroup"></path>
            <path d="M24,6 C24.552,6 25,5.553 25,5 L25,0.02 C24.872,0.013 24.745,0 24.615,0 L23,0 L23,5 C23,5.553 23.448,6 24,6" id="Fill-66" fill="#6C797A" sketch:type="MSShapeGroup"></path>
            <path d="M28,7 C28.552,7 29,6.553 29,6 L29,1.453 C28.396,1.006 27.725,0.649 27,0.401 L27,6 C27,6.553 27.448,7 28,7" id="Fill-67" fill="#6C797A" sketch:type="MSShapeGroup"></path>
            <path d="M28,34 C27.448,34 27,34.447 27,35 L27,40 L28.049,40 C28.379,40 28.694,39.948 29,39.872 L29,35 C29,34.447 28.552,34 28,34" id="Fill-68" fill="#6C797A" sketch:type="MSShapeGroup"></path>
            <path d="M24,34 C23.448,34 23,34.447 23,35 L23,40 L25,40 L25,35 C25,34.447 24.552,34 24,34" id="Fill-69" fill="#6C797A" sketch:type="MSShapeGroup"></path>
            <path d="M20,34 C19.448,34 19,34.447 19,35 L19,40 L21,40 L21,35 C21,34.447 20.552,34 20,34" id="Fill-70" fill="#6C797A" sketch:type="MSShapeGroup"></path>
            <path d="M16,34 C15.448,34 15,34.447 15,35 L15,40 L17,40 L17,35 C17,34.447 16.552,34 16,34" id="Fill-71" fill="#6C797A" sketch:type="MSShapeGroup"></path>
            <path d="M12,34 C11.448,34 11,34.447 11,35 L11,40 L13,40 L13,35 C13,34.447 12.552,34 12,34" id="Fill-72" fill="#6C797A" sketch:type="MSShapeGroup"></path>
            <path d="M8,34 C7.448,34 7,34.447 7,35 L7,40 L9,40 L9,35 C9,34.447 8.552,34 8,34" id="Fill-73" fill="#6C797A" sketch:type="MSShapeGroup"></path>
            <path d="M4,34 C3.448,34 3,34.447 3,35 L3,39.872 C3.306,39.948 3.621,40 3.951,40 L5,40 L5,35 C5,34.447 4.552,34 4,34" id="Fill-74" fill="#6C797A" sketch:type="MSShapeGroup"></path>
            <path d="M18.619,46 L13.381,46 C12.618,46 12,45.382 12,44.619 L12,40 L20,40 L20,44.619 C20,45.382 19.382,46 18.619,46" id="Fill-1560" fill="#E0E2E3" sketch:type="MSShapeGroup"></path>
            <path d="M14,46 L18,46 L18,53 L14,53 L14,46 Z" id="Fill-1561" fill="#CBD4D8" sketch:type="MSShapeGroup"></path>
            <path d="M24,57 L8,57 C6.895,57 6,56.105 6,55 C6,53.895 6.895,53 8,53 L24,53 C25.105,53 26,53.895 26,55 C26,56.105 25.105,57 24,57" id="Fill-1562" fill="#E0E2E3" sketch:type="MSShapeGroup"></path>
            <path d="M21,20 C21,22.761 18.761,25 16,25 C13.239,25 11,22.761 11,20 C11,17.239 13.239,15 16,15 C18.761,15 21,17.239 21,20" id="Fill-1914" fill="#E8EDEE" sketch:type="MSShapeGroup"></path>
        </g>
    </g>
</svg>