<?xml version="1.0" encoding="UTF-8" standalone="no"?>
<svg width="58px" height="45px" viewBox="0 0 58 45" version="1.1" xmlns="http://www.w3.org/2000/svg" xmlns:xlink="http://www.w3.org/1999/xlink" xmlns:sketch="http://www.bohemiancoding.com/sketch/ns">
    <!-- Generator: Sketch 3.2.2 (9983) - http://www.bohemiancoding.com/sketch -->
    <title>95 - TV (Flat)</title>
    <desc>Created with Sketch.</desc>
    <defs></defs>
    <g id="Page-1" stroke="none" stroke-width="1" fill="none" fill-rule="evenodd" sketch:type="MSPage">
        <g id="95---TV-(Flat)" sketch:type="MSLayerGroup">
            <path d="M24,37 L34,37 L34,41 L24,41 L24,37 Z" id="Fill-108" fill="#FFFFFF" sketch:type="MSShapeGroup"></path>
            <path d="M24,37 L34,37 L34,41 L24,41 L24,37 Z" id="Stroke-109" stroke="#B0B6BB" stroke-width="2" stroke-linecap="round" sketch:type="MSShapeGroup"></path>
            <path d="M17,43.5 L17,43.5 C17,42.125 18.125,41 19.5,41 L38.5,41 C39.875,41 41,42.125 41,43.5" id="Stroke-110" stroke="#B0B6BB" stroke-width="2" stroke-linecap="round" sketch:type="MSShapeGroup"></path>
            <path d="M54.502,37 L3.498,37 C1.566,37 0,35.434 0,33.502 L0,3.499 C0,1.566 1.566,0 3.498,0 L54.502,0 C56.434,0 58,1.566 58,3.499 L58,33.502 C58,35.434 56.434,37 54.502,37" id="Fill-303" fill="#E8EDEE" sketch:type="MSShapeGroup"></path>
            <path d="M54,31 L4,31 C3.448,31 3,30.552 3,30 L3,4 C3,3.448 3.448,3 4,3 L54,3 C54.552,3 55,3.448 55,4 L55,30 C55,30.552 54.552,31 54,31" id="Fill-1310" fill="#38454F" sketch:type="MSShapeGroup"></path>
            <path d="M31,35 L27,35 C26.447,35 26,34.552 26,34 C26,33.448 26.447,33 27,33 L31,33 C31.553,33 32,33.448 32,34 C32,34.552 31.553,35 31,35" id="Fill-1311" fill="#B0B6BB" sketch:type="MSShapeGroup"></path>
            <path d="M6,11 C6.256,11 6.512,10.902 6.707,10.707 L10.707,6.707 C11.098,6.316 11.098,5.684 10.707,5.293 C10.316,4.902 9.684,4.902 9.293,5.293 L5.293,9.293 C4.902,9.684 4.902,10.317 5.293,10.707 C5.488,10.902 5.744,11 6,11" id="Fill-1312" fill="#546A79" sketch:type="MSShapeGroup"></path>
            <path d="M6,16 C6.256,16 6.512,15.902 6.707,15.707 L8.707,13.707 C9.098,13.317 9.098,12.684 8.707,12.293 C8.316,11.902 7.684,11.902 7.293,12.293 L5.293,14.293 C4.902,14.684 4.902,15.316 5.293,15.707 C5.488,15.902 5.744,16 6,16" id="Fill-1313" fill="#546A79" sketch:type="MSShapeGroup"></path>
            <path d="M9.29,10.29 C9.109,10.48 9,10.73 9,11 C9,11.27 9.109,11.52 9.29,11.71 C9.479,11.89 9.729,12 10,12 C10.269,12 10.519,11.89 10.71,11.71 C10.89,11.52 11,11.26 11,11 C11,10.74 10.89,10.48 10.71,10.29 C10.34,9.92 9.66,9.92 9.29,10.29" id="Fill-1314" fill="#546A79" sketch:type="MSShapeGroup"></path>
            <path d="M11.293,9.707 C11.488,9.902 11.744,10 12,10 C12.256,10 12.512,9.902 12.707,9.707 L15.707,6.707 C16.098,6.316 16.098,5.684 15.707,5.293 C15.316,4.902 14.684,4.902 14.293,5.293 L11.293,8.293 C10.902,8.684 10.902,9.316 11.293,9.707" id="Fill-1315" fill="#546A79" sketch:type="MSShapeGroup"></path>
            <path d="M14.293,10.293 L5.293,19.293 C4.902,19.684 4.902,20.316 5.293,20.707 C5.488,20.902 5.744,21 6,21 C6.256,21 6.512,20.902 6.707,20.707 L15.707,11.707 C16.098,11.316 16.098,10.684 15.707,10.293 C15.316,9.902 14.684,9.902 14.293,10.293" id="Fill-1316" fill="#546A79" sketch:type="MSShapeGroup"></path>
            <path d="M16.29,8.29 C16.109,8.48 16,8.74 16,9 C16,9.26 16.109,9.52 16.29,9.71 C16.479,9.89 16.74,10 17,10 C17.26,10 17.519,9.89 17.71,9.71 C17.89,9.52 18,9.26 18,9 C18,8.74 17.89,8.48 17.71,8.29 C17.33,7.92 16.67,7.92 16.29,8.29" id="Fill-1317" fill="#546A79" sketch:type="MSShapeGroup"></path>
            <path d="M20.707,5.293 C20.316,4.902 19.684,4.902 19.293,5.293 L18.293,6.293 C17.902,6.684 17.902,7.317 18.293,7.707 C18.488,7.902 18.744,8 19,8 C19.256,8 19.512,7.902 19.707,7.707 L20.707,6.707 C21.098,6.316 21.098,5.684 20.707,5.293" id="Fill-1318" fill="#546A79" sketch:type="MSShapeGroup"></path>
        </g>
    </g>
</svg>