<?xml version="1.0" encoding="UTF-8" standalone="no"?>
<svg width="57px" height="57px" viewBox="0 0 57 57" version="1.1" xmlns="http://www.w3.org/2000/svg" xmlns:xlink="http://www.w3.org/1999/xlink" xmlns:sketch="http://www.bohemiancoding.com/sketch/ns">
    <!-- Generator: Sketch 3.2.2 (9983) - http://www.bohemiancoding.com/sketch -->
    <title>80 - USB (Flat)</title>
    <desc>Created with Sketch.</desc>
    <defs></defs>
    <g id="Page-1" stroke="none" stroke-width="1" fill="none" fill-rule="evenodd" sketch:type="MSPage">
        <g id="80---USB-(Flat)" sketch:type="MSLayerGroup">
            <path d="M41.355,32.527 L23.678,14.849 L38.527,0 L56.205,17.678 L41.355,32.527" id="Fill-278" fill="#CBD4D8" sketch:type="MSShapeGroup"></path>
            <path d="M27.273,48.143 L8.061,28.931 C6.923,27.793 6.923,25.947 8.061,24.809 L18.788,14.082 C19.926,12.944 21.772,12.944 22.91,14.082 L42.123,33.294 C43.261,34.433 43.261,36.278 42.123,37.417 L31.396,48.143 C30.257,49.282 28.412,49.282 27.273,48.143" id="Fill-279" fill="#E8EDEE" sketch:type="MSShapeGroup"></path>
            <path d="M12.364,48.79 L7.414,43.841 L15.192,36.062 L20.142,41.012 L12.364,48.79" id="Fill-280" fill="#CBD4D8" sketch:type="MSShapeGroup"></path>
            <path d="M36.406,16.264 L32.163,12.021 L37.113,7.071 L41.355,11.314 L36.406,16.264" id="Fill-281" fill="#B0B6BB" sketch:type="MSShapeGroup"></path>
            <path d="M44.184,24.042 L39.941,19.799 L44.891,14.849 L49.133,19.092 L44.184,24.042" id="Fill-282" fill="#B0B6BB" sketch:type="MSShapeGroup"></path>
            <path d="M12.364,48.79 L7.414,43.841 L15.192,36.062 L20.142,41.012 L12.364,48.79" id="Fill-301" fill="#CBD4D8" sketch:type="MSShapeGroup"></path>
            <path d="M8.475,44.901 L0.586,52.791 C-0.195,53.572 -0.195,54.838 0.586,55.619 C1.367,56.4 2.633,56.4 3.414,55.619 L11.303,47.73 L8.475,44.901" id="Fill-302" fill="#E8EDEE" sketch:type="MSShapeGroup"></path>
        </g>
    </g>
</svg>