<?xml version="1.0" encoding="UTF-8" standalone="no"?>
<svg width="53px" height="52px" viewBox="0 0 53 52" version="1.1" xmlns="http://www.w3.org/2000/svg" xmlns:xlink="http://www.w3.org/1999/xlink" xmlns:sketch="http://www.bohemiancoding.com/sketch/ns">
    <!-- Generator: Sketch 3.2.2 (9983) - http://www.bohemiancoding.com/sketch -->
    <title>86 - USB Cable (Flat)</title>
    <desc>Created with Sketch.</desc>
    <defs></defs>
    <g id="Page-1" stroke="none" stroke-width="1" fill="none" fill-rule="evenodd" sketch:type="MSPage">
        <g id="86---USB-Cable-(Flat)" sketch:type="MSLayerGroup">
            <path d="M44,11 L52,11 L52,18 L44,18 L44,11 Z" id="Fill-218" fill="#B0B6BB" sketch:type="MSShapeGroup"></path>
            <path d="M43,18 L43,23.206 C43,23.644 43.356,24 43.794,24 L46,24 L46,22 L50,22 L50,24 L52.206,24 C52.644,24 53,23.644 53,23.206 L53,18 L43,18" id="Fill-219" fill="#38454F" sketch:type="MSShapeGroup"></path>
            <path d="M37,39 C37,45.627 31.627,51 25,51 C18.373,51 13,45.627 13,39 C13,32.373 18.373,27 25,27 C31.627,27 37,32.373 37,39 L37,39 Z M5,15 L5,32.514 L5,31.541 C5,42.297 13.703,51 24.459,51 C37.367,51 48,43.556 48,30.649 L48,26" id="Stroke-220" stroke="#38454F" stroke-width="2" sketch:type="MSShapeGroup"></path>
            <path d="M48,27 L48,27 C46.895,27 46,26.105 46,25 L46,22 L50,22 L50,25 C50,26.105 49.105,27 48,27" id="Fill-221" fill="#546A79" sketch:type="MSShapeGroup"></path>
            <path d="M48,27 L48,27 C46.895,27 46,26.105 46,25 L46,22 L50,22 L50,25 C50,26.105 49.105,27 48,27" id="Fill-222" fill="#546A79" sketch:type="MSShapeGroup"></path>
            <path d="M48,27 L48,27 C46.895,27 46,26.105 46,25 L46,22 L50,22 L50,25 C50,26.105 49.105,27 48,27" id="Fill-223" fill="#546A79" sketch:type="MSShapeGroup"></path>
            <path d="M48,27 L48,27 C46.895,27 46,26.105 46,25 L46,22 L50,22 L50,25 C50,26.105 49.105,27 48,27" id="Fill-224" fill="#546A79" sketch:type="MSShapeGroup"></path>
            <path d="M40,36 C40,44.284 33.284,51 25,51 C16.716,51 10,44.284 10,36 C10,27.716 16.716,21 25,21 C33.284,21 40,27.716 40,36 L40,36 Z" id="Stroke-225" stroke="#38454F" stroke-width="2" sketch:type="MSShapeGroup"></path>
            <path d="M45,13 L47,13 L47,15 L45,15 L45,13 Z" id="Fill-227" fill="#E8EDEE" sketch:type="MSShapeGroup"></path>
            <path d="M49,13 L51,13 L51,15 L49,15 L49,13 Z" id="Fill-228" fill="#E8EDEE" sketch:type="MSShapeGroup"></path>
            <path d="M1,0 L9,0 L9,7 L1,7 L1,0 Z" id="Fill-229" fill="#B0B6BB" sketch:type="MSShapeGroup"></path>
            <path d="M0,7 L0,12.206 C0,12.644 0.356,13 0.794,13 L3,13 L3,11 L7,11 L7,13 L9.206,13 C9.644,13 10,12.644 10,12.206 L10,7 L0,7" id="Fill-230" fill="#38454F" sketch:type="MSShapeGroup"></path>
            <path d="M5,16 L5,16 C3.895,16 3,15.105 3,14 L3,11 L7,11 L7,14 C7,15.105 6.105,16 5,16" id="Fill-231" fill="#546A79" sketch:type="MSShapeGroup"></path>
            <path d="M5,16 L5,16 C3.895,16 3,15.105 3,14 L3,11 L7,11 L7,14 C7,15.105 6.105,16 5,16" id="Fill-232" fill="#546A79" sketch:type="MSShapeGroup"></path>
            <path d="M5,16 L5,16 C3.895,16 3,15.105 3,14 L3,11 L7,11 L7,14 C7,15.105 6.105,16 5,16" id="Fill-233" fill="#546A79" sketch:type="MSShapeGroup"></path>
            <path d="M5,16 L5,16 C3.895,16 3,15.105 3,14 L3,11 L7,11 L7,14 C7,15.105 6.105,16 5,16" id="Fill-234" fill="#546A79" sketch:type="MSShapeGroup"></path>
            <path d="M2,2 L4,2 L4,4 L2,4 L2,2 Z" id="Fill-235" fill="#E8EDEE" sketch:type="MSShapeGroup"></path>
            <path d="M6,2 L8,2 L8,4 L6,4 L6,2 Z" id="Fill-236" fill="#E8EDEE" sketch:type="MSShapeGroup"></path>
        </g>
    </g>
</svg>