<?xml version="1.0" encoding="UTF-8" standalone="no"?>
<svg width="59px" height="44px" viewBox="0 0 59 44" version="1.1" xmlns="http://www.w3.org/2000/svg" xmlns:xlink="http://www.w3.org/1999/xlink" xmlns:sketch="http://www.bohemiancoding.com/sketch/ns">
    <!-- Generator: Sketch 3.2.2 (9983) - http://www.bohemiancoding.com/sketch -->
    <title>2 - Video Card (Flat)</title>
    <desc>Created with Sketch.</desc>
    <defs></defs>
    <g id="Page-1" stroke="none" stroke-width="1" fill="none" fill-rule="evenodd" sketch:type="MSPage">
        <g id="2---Video-Card-(Flat)" sketch:type="MSLayerGroup">
            <path d="M4,5 L59,5 L59,37 L4,37 L4,5 Z" id="Fill-134" fill="#38454F" sketch:type="MSShapeGroup"></path>
            <path d="M8,8 C8,8.552 7.552,9 7,9 C6.448,9 6,8.552 6,8 C6,7.448 6.448,7 7,7 C7.552,7 8,7.448 8,8" id="Fill-735" fill="#546A79" sketch:type="MSShapeGroup"></path>
            <path d="M8,34 C8,34.552 7.552,35 7,35 C6.448,35 6,34.552 6,34 C6,33.448 6.448,33 7,33 C7.552,33 8,33.448 8,34" id="Fill-736" fill="#546A79" sketch:type="MSShapeGroup"></path>
            <path d="M57,8 C57,8.552 56.552,9 56,9 C55.448,9 55,8.552 55,8 C55,7.448 55.448,7 56,7 C56.552,7 57,7.448 57,8" id="Fill-737" fill="#546A79" sketch:type="MSShapeGroup"></path>
            <path d="M57,34 C57,34.552 56.552,35 56,35 C55.448,35 55,34.552 55,34 C55,33.448 55.448,33 56,33 C56.552,33 57,33.448 57,34" id="Fill-738" fill="#546A79" sketch:type="MSShapeGroup"></path>
            <path d="M0,20 L3,20 L3,33 L0,33 L0,20 Z" id="Fill-1113" fill="#839494" sketch:type="MSShapeGroup"></path>
            <path d="M3,19 L1,19 C0.447,19 0,18.553 0,18 C0,17.447 0.447,17 1,17 L3,17 C3.553,17 4,17.447 4,18 C4,18.553 3.553,19 3,19" id="Fill-1114" fill="#F3CC6D" sketch:type="MSShapeGroup"></path>
            <path d="M3,36 L1,36 C0.447,36 0,35.553 0,35 C0,34.447 0.447,34 1,34 L3,34 C3.553,34 4,34.447 4,35 C4,35.553 3.553,36 3,36" id="Fill-1115" fill="#F3CC6D" sketch:type="MSShapeGroup"></path>
            <path d="M0,8 L3,8 L3,12 L0,12 L0,8 Z" id="Fill-1116" fill="#839494" sketch:type="MSShapeGroup"></path>
            <path d="M12,37 L36,37 L36,41 L12,41 L12,37 Z" id="Fill-1117" fill="#28812F" sketch:type="MSShapeGroup"></path>
            <path d="M24.389,31.155 C22.629,29.123 21.415,26.159 21.094,22.779 C21.091,22.754 21.089,22.729 21.086,22.704 C21.035,22.145 21,21.579 21,21 C21,20.421 21.035,19.855 21.086,19.297 C21.089,19.271 21.091,19.246 21.094,19.221 C21.415,15.841 22.629,12.877 24.389,10.846 C25.171,9.8 26.059,8.84 27.057,8 L17,8 C12.029,8 8,13.82 8,21 C8,28.18 12.029,34 17,34 L27.057,34 C26.059,33.16 25.171,32.2 24.389,31.155" id="Fill-1134" fill="#6C797A" sketch:type="MSShapeGroup"></path>
            <path d="M34.846,34 C29.534,31.894 26,26.731 26,21 C26,15.27 29.534,10.107 34.846,8 L45.154,8 C50.466,10.107 54,15.27 54,21 C54,26.731 50.466,31.894 45.154,34 L34.846,34" id="Fill-1135" fill="#283238" sketch:type="MSShapeGroup"></path>
            <path d="M43,21 C43,22.657 41.657,24 40,24 C38.343,24 37,22.657 37,21 C37,19.343 38.343,18 40,18 C41.657,18 43,19.343 43,21" id="Fill-1136" fill="#CBD4D8" sketch:type="MSShapeGroup"></path>
            <path d="M49.903,22.239 C50.022,21.74 49.544,21.329 49.055,21.486 C47.395,22.021 44.965,21.935 42.962,20.624 C42.978,20.748 43,20.871 43,21 C43,22.304 42.163,23.403 41,23.816 C41,23.816 44.823,26.625 48,27 C48.896,25.959 49.557,23.683 49.903,22.239" id="Fill-1137" fill="#546A79" sketch:type="MSShapeGroup"></path>
            <path d="M30.019,19.761 C29.899,20.26 30.378,20.672 30.866,20.514 C32.526,19.979 34.956,20.066 36.959,21.377 C36.944,21.252 36.921,21.129 36.921,21 C36.921,19.696 37.759,18.597 38.921,18.184 C38.921,18.184 35.098,15.375 31.921,15 C31.025,16.041 30.364,18.317 30.019,19.761" id="Fill-1138" fill="#546A79" sketch:type="MSShapeGroup"></path>
            <path d="M34.343,29.296 C34.734,29.629 35.317,29.39 35.399,28.883 C35.676,27.16 36.856,25.035 38.934,23.845 C38.815,23.803 38.696,23.767 38.581,23.708 C37.419,23.116 36.82,21.871 36.979,20.648 C36.979,20.648 32.741,22.779 30.965,25.439 C31.485,26.71 33.213,28.333 34.343,29.296" id="Fill-1139" fill="#546A79" sketch:type="MSShapeGroup"></path>
            <path d="M45.578,12.704 C45.188,12.371 44.604,12.611 44.523,13.118 C44.246,14.84 43.065,16.966 40.988,18.155 C41.106,18.198 41.226,18.233 41.341,18.292 C42.503,18.884 43.101,20.129 42.942,21.353 C42.942,21.353 47.18,19.221 48.957,16.561 C48.436,15.29 46.708,13.667 45.578,12.704" id="Fill-1140" fill="#546A79" sketch:type="MSShapeGroup"></path>
            <path d="M44.178,30.088 C44.665,29.925 44.76,29.301 44.368,28.97 C43.034,27.846 41.82,25.739 41.87,23.346 C41.773,23.425 41.681,23.509 41.571,23.578 C40.465,24.269 39.09,24.141 38.123,23.374 C38.123,23.374 37.767,28.104 39.133,30.997 C40.49,31.206 42.771,30.56 44.178,30.088" id="Fill-1141" fill="#546A79" sketch:type="MSShapeGroup"></path>
            <path d="M35.743,11.912 C35.256,12.075 35.161,12.699 35.554,13.03 C36.887,14.154 38.101,16.261 38.051,18.654 C38.148,18.575 38.241,18.491 38.35,18.422 C39.456,17.731 40.832,17.859 41.798,18.626 C41.798,18.626 42.154,13.896 40.789,11.003 C39.431,10.794 37.151,11.44 35.743,11.912" id="Fill-1142" fill="#546A79" sketch:type="MSShapeGroup"></path>
            <path d="M14,39 L16,39 L16,41 L14,41 L14,39 Z" id="Fill-1732" fill="#F3CC6D" sketch:type="MSShapeGroup"></path>
            <path d="M17,39 L19,39 L19,41 L17,41 L17,39 Z" id="Fill-1733" fill="#F3CC6D" sketch:type="MSShapeGroup"></path>
            <path d="M20,39 L22,39 L22,41 L20,41 L20,39 Z" id="Fill-1734" fill="#F3CC6D" sketch:type="MSShapeGroup"></path>
            <path d="M23,39 L25,39 L25,41 L23,41 L23,39 Z" id="Fill-1735" fill="#F3CC6D" sketch:type="MSShapeGroup"></path>
            <path d="M26,39 L28,39 L28,41 L26,41 L26,39 Z" id="Fill-1736" fill="#F3CC6D" sketch:type="MSShapeGroup"></path>
            <path d="M29,39 L31,39 L31,41 L29,41 L29,39 Z" id="Fill-1737" fill="#F3CC6D" sketch:type="MSShapeGroup"></path>
            <path d="M32,39 L34,39 L34,41 L32,41 L32,39 Z" id="Fill-1738" fill="#F3CC6D" sketch:type="MSShapeGroup"></path>
            <path d="M4,0 L1,0 C0.447,0 0,0.447 0,1 C0,1.553 0.447,2 1,2 L3,2 L3,43 C3,43.553 3.447,44 4,44 C4.553,44 5,43.553 5,43 L5,1 C5,0.447 4.553,0 4,0" id="Fill-1987" fill="#CBD4D8" sketch:type="MSShapeGroup"></path>
        </g>
    </g>
</svg>