<?xml version="1.0" encoding="UTF-8" standalone="no"?>
<svg width="37px" height="59px" viewBox="0 0 37 59" version="1.1" xmlns="http://www.w3.org/2000/svg" xmlns:xlink="http://www.w3.org/1999/xlink" xmlns:sketch="http://www.bohemiancoding.com/sketch/ns">
    <!-- Generator: Sketch 3.2.2 (9983) - http://www.bohemiancoding.com/sketch -->
    <title>51 - Wii Nunchack (Flat)</title>
    <desc>Created with Sketch.</desc>
    <defs></defs>
    <g id="Page-1" stroke="none" stroke-width="1" fill="none" fill-rule="evenodd" sketch:type="MSPage">
        <g id="51---Wii-Nunchack-(Flat)" sketch:type="MSLayerGroup">
            <path d="M30,46 C30,50.142 26.642,53.5 22.5,53.5 C18.358,53.5 15,50.142 15,46 L15,44 C15,39.582 18.582,36 23,36 M7,30 L7,45 L7,44.5 C7,51.956 13.044,58 20.5,58 C27.956,58 34,51.956 34,44.5 C34,43.645 33.911,42.811 33.759,42" id="Stroke-346" stroke="#B0B6BB" stroke-width="2" sketch:type="MSShapeGroup"></path>
            <path d="M7,31.973 L7,31.973 C5.281,31.973 3.827,30.703 3.595,29 L0.351,12.711 C0.024,11.067 -0.042,9.367 0.298,7.726 C1.257,3.1 4.355,2 7,2 C9.645,2 12.743,3.1 13.702,7.726 C14.042,9.367 13.976,11.067 13.649,12.711 L10.405,29 C10.173,30.703 8.719,31.973 7,31.973" id="Fill-347" fill="#E0E2E3" sketch:type="MSShapeGroup"></path>
            <path d="M11,10 C11,12.209 9.209,14 7,14 C4.791,14 3,12.209 3,10 C3,7.791 4.791,6 7,6 C9.209,6 11,7.791 11,10 L11,10 Z" id="Fill-1480" fill="#FFFFFF" sketch:type="MSShapeGroup"></path>
            <path d="M11,10 C11,12.209 9.209,14 7,14 C4.791,14 3,12.209 3,10 C3,7.791 4.791,6 7,6 C9.209,6 11,7.791 11,10 L11,10 Z" id="Stroke-1481" stroke="#B0B6BB" stroke-width="2" sketch:type="MSShapeGroup"></path>
            <path d="M34.4,42 L25.6,42 C24.164,42 23,40.836 23,39.401 L23,2.6 C23,1.164 24.164,0 25.6,0 L34.4,0 C35.836,0 37,1.164 37,2.6 L37,39.401 C37,40.836 35.836,42 34.4,42" id="Fill-1849" fill="#CBD4D8" sketch:type="MSShapeGroup"></path>
            <path d="M27,42 L33,42 L33,46 L27,46 L27,42 Z" id="Fill-1850" fill="#E0E2E3" sketch:type="MSShapeGroup"></path>
            <path d="M29,4 L31,4 L31,12 L29,12 L29,4 Z" id="Fill-1851" fill="#FFFFFF" sketch:type="MSShapeGroup"></path>
            <path d="M26,7 L34,7 L34,9 L26,9 L26,7 Z" id="Fill-1852" fill="#FFFFFF" sketch:type="MSShapeGroup"></path>
            <path d="M32,18 C32,19.105 31.105,20 30,20 C28.895,20 28,19.105 28,18 C28,16.895 28.895,16 30,16 C31.105,16 32,16.895 32,18" id="Fill-1853" fill="#FFFFFF" sketch:type="MSShapeGroup"></path>
            <path d="M32,27 C32,28.105 31.105,29 30,29 C28.895,29 28,28.105 28,27 C28,25.895 28.895,25 30,25 C31.105,25 32,25.895 32,27" id="Fill-1854" fill="#FFFFFF" sketch:type="MSShapeGroup"></path>
            <path d="M32,36 C32,37.105 31.105,38 30,38 C28.895,38 28,37.105 28,36 C28,34.895 28.895,34 30,34 C31.105,34 32,34.895 32,36" id="Fill-1855" fill="#FFFFFF" sketch:type="MSShapeGroup"></path>
        </g>
    </g>
</svg>