<?xml version="1.0" encoding="UTF-8" standalone="no"?>
<svg width="58px" height="51px" viewBox="0 0 58 51" version="1.1" xmlns="http://www.w3.org/2000/svg" xmlns:xlink="http://www.w3.org/1999/xlink" xmlns:sketch="http://www.bohemiancoding.com/sketch/ns">
    <!-- Generator: Sketch 3.2.2 (9983) - http://www.bohemiancoding.com/sketch -->
    <title>53 - Wii U Controller (Flat)</title>
    <desc>Created with Sketch.</desc>
    <defs></defs>
    <g id="Page-1" stroke="none" stroke-width="1" fill="none" fill-rule="evenodd" sketch:type="MSPage">
        <g id="53---Wii-U-Controller-(Flat)" sketch:type="MSLayerGroup" transform="translate(-1.000000, 0.000000)">
            <path d="M30.882,36.703 C41.41,36.562 46.668,42.643 48.635,45.237 C49.758,46.718 51.011,48.057 52.442,49.086 C63.854,57.303 57.362,32.307 55.187,16.631 C52.85,-0.214 44.592,4.653 44.592,4.653 C37.348,9.332 32,8.703 32,8.703 L28,8.703 C28,8.703 22.652,9.332 15.408,4.653 C15.408,4.653 7.15,-0.214 4.813,16.631 C2.638,32.307 -3.854,57.303 7.558,49.086 C8.989,48.057 10.243,46.718 11.365,45.237 C13.332,42.643 18.59,36.562 29.118,36.703 L30.882,36.703" id="Fill-953" fill="#CBD4D8" sketch:type="MSShapeGroup"></path>
            <path d="M44.592,4.653 C44.592,4.653 46.649,3.441 49,4.321 L49,1.883 C49,0.843 48.157,0 47.117,0 L44.883,0 C43.843,0 43,0.843 43,1.883 L43,5.609 C43.521,5.316 44.049,5.003 44.592,4.653" id="Fill-954" fill="#E0E2E3" sketch:type="MSShapeGroup"></path>
            <path d="M15.408,4.653 C15.951,5.003 16.479,5.316 17,5.609 L17,1.883 C17,0.843 16.157,0 15.118,0 L12.883,0 C11.843,0 11,0.843 11,1.883 L11,4.321 C13.351,3.441 15.408,4.653 15.408,4.653" id="Fill-955" fill="#E0E2E3" sketch:type="MSShapeGroup"></path>
            <path d="M21,27 L18,27 L18,24 L13,24 L13,27 L10,27 L10,32 L13,32 L13,35 L18,35 L18,32 L21,32 L21,27" id="Fill-1467" fill="#FFFFFF" sketch:type="MSShapeGroup"></path>
            <path d="M48,25.5 C48,26.881 46.881,28 45.5,28 C44.119,28 43,26.881 43,25.5 C43,24.119 44.119,23 45.5,23 C46.881,23 48,24.119 48,25.5" id="Fill-1468" fill="#FFFFFF" sketch:type="MSShapeGroup"></path>
            <path d="M48,35.5 C48,36.881 46.881,38 45.5,38 C44.119,38 43,36.881 43,35.5 C43,34.119 44.119,33 45.5,33 C46.881,33 48,34.119 48,35.5" id="Fill-1469" fill="#FFFFFF" sketch:type="MSShapeGroup"></path>
            <path d="M42,30.5 C42,31.881 40.881,33 39.5,33 C38.119,33 37,31.881 37,30.5 C37,29.119 38.119,28 39.5,28 C40.881,28 42,29.119 42,30.5" id="Fill-1470" fill="#FFFFFF" sketch:type="MSShapeGroup"></path>
            <path d="M27,16 C27,16.552 26.552,17 26,17 C25.448,17 25,16.552 25,16 C25,15.448 25.448,15 26,15 C26.552,15 27,15.448 27,16" id="Fill-1471" fill="#B0B6BB" sketch:type="MSShapeGroup"></path>
            <path d="M31,16 C31,16.552 30.552,17 30,17 C29.448,17 29,16.552 29,16 C29,15.448 29.448,15 30,15 C30.552,15 31,15.448 31,16" id="Fill-1472" fill="#B0B6BB" sketch:type="MSShapeGroup"></path>
            <path d="M31,31 C31,31.552 30.552,32 30,32 C29.448,32 29,31.552 29,31 C29,30.448 29.448,30 30,30 C30.552,30 31,30.448 31,31" id="Fill-1473" fill="#D75A4A" sketch:type="MSShapeGroup"></path>
            <path d="M35,16 C35,16.552 34.552,17 34,17 C33.448,17 33,16.552 33,16 C33,15.448 33.448,15 34,15 C34.552,15 35,15.448 35,16" id="Fill-1474" fill="#B0B6BB" sketch:type="MSShapeGroup"></path>
            <path d="M54,30.5 C54,31.881 52.881,33 51.5,33 C50.119,33 49,31.881 49,30.5 C49,29.119 50.119,28 51.5,28 C52.881,28 54,29.119 54,30.5" id="Fill-1475" fill="#FFFFFF" sketch:type="MSShapeGroup"></path>
            <path d="M20,14 C20,16.761 17.761,19 15,19 C12.239,19 10,16.761 10,14 C10,11.239 12.239,9 15,9 C17.761,9 20,11.239 20,14" id="Fill-1476" fill="#E6E6E6" sketch:type="MSShapeGroup"></path>
            <path d="M50,14 C50,16.761 47.761,19 45,19 C42.239,19 40,16.761 40,14 C40,11.239 42.239,9 45,9 C47.761,9 50,11.239 50,14" id="Fill-1477" fill="#E6E6E6" sketch:type="MSShapeGroup"></path>
        </g>
    </g>
</svg>