<?xml version="1.0" encoding="UTF-8" standalone="no"?>
<svg width="57px" height="47px" viewBox="0 0 57 47" version="1.1" xmlns="http://www.w3.org/2000/svg" xmlns:xlink="http://www.w3.org/1999/xlink" xmlns:sketch="http://www.bohemiancoding.com/sketch/ns">
    <!-- Generator: Sketch 3.2.2 (9983) - http://www.bohemiancoding.com/sketch -->
    <title>46 - Xbox One (Flat)</title>
    <desc>Created with Sketch.</desc>
    <defs></defs>
    <g id="Page-1" stroke="none" stroke-width="1" fill="none" fill-rule="evenodd" sketch:type="MSPage">
        <g id="46---Xbox-One-(Flat)" sketch:type="MSLayerGroup">
            <path d="M55.781,47 L1.219,47 C0.546,47 0,46.454 0,45.781 L0,26.219 C0,25.546 0.546,25 1.219,25 L55.781,25 C56.454,25 57,25.546 57,26.219 L57,45.781 C57,46.454 56.454,47 55.781,47" id="Fill-377" fill="#38454F" sketch:type="MSShapeGroup"></path>
            <path d="M57,30 L57,28 L28,28 L28,25 L26,25 L26,28 L0,28 L0,30 L26,30 L26,42 L0,42 L0,44 L26,44 L26,47 L28,47 L28,44 L57,44 L57,42 L28,42 L28,30 L57,30" id="Fill-378" fill="#283238" sketch:type="MSShapeGroup"></path>
            <path d="M0,35 L19,35 L19,37 L0,37 L0,35 Z" id="Fill-379" fill="#839494" sketch:type="MSShapeGroup"></path>
            <path d="M21,35 L23,35 L23,37 L21,37 L21,35 Z" id="Fill-380" fill="#839494" sketch:type="MSShapeGroup"></path>
            <path d="M52,36 C52,37.657 50.657,39 49,39 C47.343,39 46,37.657 46,36 C46,34.343 47.343,33 49,33 C50.657,33 52,34.343 52,36 L52,36 Z" id="Stroke-381" stroke="#E8EDEE" stroke-width="2" sketch:type="MSShapeGroup"></path>
            <path d="M28.144,16.356 L33.616,16.356 C34.602,16.356 35.555,16.708 36.303,17.35 L41.592,21.883 C41.945,22.186 42.463,22.238 42.857,21.989 C48.359,18.507 41.686,5.257 40.363,2.762 C40.223,2.498 39.992,2.3 39.711,2.198 L35.264,0.581 C34.874,0.439 34.44,0.492 34.095,0.722 L33.502,1.117 C33.268,1.272 32.994,1.356 32.713,1.356 L23.574,1.356 C23.294,1.356 23.019,1.272 22.785,1.117 L22.192,0.722 C21.847,0.492 21.414,0.439 21.024,0.581 L16.577,2.198 C16.295,2.3 16.065,2.498 15.924,2.762 C14.602,5.257 7.929,18.507 13.43,21.989 C13.824,22.238 14.342,22.186 14.696,21.883 L19.984,17.35 C20.732,16.708 21.685,16.356 22.671,16.356 L28.144,16.356" id="Fill-382" fill="#38454F" sketch:type="MSShapeGroup"></path>
            <path d="M56.068,24.61 L47.218,16.459 C47.144,16.4 47.052,16.367 46.956,16.367 L44.973,16.367 C45.122,18.788 44.605,20.882 42.857,21.989 C42.463,22.238 41.945,22.186 41.592,21.882 L36.303,17.35 C35.588,16.737 34.684,16.397 33.745,16.367 L22.542,16.367 C21.603,16.397 20.699,16.737 19.984,17.35 L14.696,21.882 C14.342,22.186 13.824,22.238 13.43,21.989 C11.682,20.882 11.166,18.788 11.314,16.367 L10.25,16.367 C10.155,16.367 10.063,16.4 9.989,16.459 L0.932,24.61 C0.623,24.857 0.798,25.356 1.194,25.356 L55.806,25.356 C56.202,25.356 56.377,24.857 56.068,24.61" id="Fill-383" fill="#283238" sketch:type="MSShapeGroup"></path>
            <path d="M28.144,16.356 L33.616,16.356 C34.602,16.356 35.555,16.708 36.303,17.35 L41.592,21.883 C41.945,22.186 42.463,22.238 42.857,21.989 C48.359,18.507 41.686,5.257 40.363,2.762 C40.223,2.498 39.992,2.3 39.711,2.198 L35.264,0.581 C34.874,0.439 34.44,0.492 34.095,0.722 L33.502,1.117 C33.268,1.272 32.994,1.356 32.713,1.356 L23.574,1.356 C23.294,1.356 23.019,1.272 22.785,1.117 L22.192,0.722 C21.847,0.492 21.414,0.439 21.024,0.581 L16.577,2.198 C16.295,2.3 16.065,2.498 15.924,2.762 C14.602,5.257 7.929,18.507 13.43,21.989 C13.824,22.238 14.342,22.186 14.696,21.883 L19.984,17.35 C20.732,16.708 21.685,16.356 22.671,16.356 L28.144,16.356" id="Fill-382" fill="#38454F" sketch:type="MSShapeGroup"></path>
            <path d="M56.068,24.61 L47.218,16.459 C47.144,16.4 47.052,16.367 46.956,16.367 L44.973,16.367 C45.122,18.788 44.605,20.882 42.857,21.989 C42.463,22.238 41.945,22.186 41.592,21.882 L36.303,17.35 C35.588,16.737 34.684,16.397 33.745,16.367 L22.542,16.367 C21.603,16.397 20.699,16.737 19.984,17.35 L14.696,21.882 C14.342,22.186 13.824,22.238 13.43,21.989 C11.682,20.882 11.166,18.788 11.314,16.367 L10.25,16.367 C10.155,16.367 10.063,16.4 9.989,16.459 L0.932,24.61 C0.623,24.857 0.798,25.356 1.194,25.356 L55.806,25.356 C56.202,25.356 56.377,24.857 56.068,24.61" id="Fill-383" fill="#283238" sketch:type="MSShapeGroup"></path>
            <path d="M37,12.5 C37,13.881 35.881,15 34.5,15 C33.119,15 32,13.881 32,12.5 C32,11.119 33.119,10 34.5,10 C35.881,10 37,11.119 37,12.5" id="Fill-384" fill="#283238" sketch:type="MSShapeGroup"></path>
            <path d="M22,6.5 C22,7.881 20.881,9 19.5,9 C18.119,9 17,7.881 17,6.5 C17,5.119 18.119,4 19.5,4 C20.881,4 22,5.119 22,6.5" id="Fill-385" fill="#283238" sketch:type="MSShapeGroup"></path>
            <path d="M27,11 L25,11 L25,9 L23,9 L23,11 L21,11 L21,13 L23,13 L23,15 L25,15 L25,13 L27,13 L27,11" id="Fill-386" fill="#283238" sketch:type="MSShapeGroup"></path>
            <path d="M32,5 L34,5 L34,7 L32,7 L32,5 Z" id="Fill-387" fill="#7383BF" sketch:type="MSShapeGroup"></path>
            <path d="M38,5 L40,5 L40,7 L38,7 L38,5 Z" id="Fill-388" fill="#D75A4A" sketch:type="MSShapeGroup"></path>
            <path d="M35,7 L37,7 L37,9 L35,9 L35,7 Z" id="Fill-389" fill="#61B972" sketch:type="MSShapeGroup"></path>
            <path d="M35,3 L37,3 L37,5 L35,5 L35,3 Z" id="Fill-390" fill="#ECBA16" sketch:type="MSShapeGroup"></path>
        </g>
    </g>
</svg>