<?xml version="1.0" encoding="UTF-8" standalone="no"?>
<svg width="60px" height="37px" viewBox="0 0 60 37" version="1.1" xmlns="http://www.w3.org/2000/svg" xmlns:xlink="http://www.w3.org/1999/xlink" xmlns:sketch="http://www.bohemiancoding.com/sketch/ns">
    <!-- Generator: Sketch 3.2.2 (9983) - http://www.bohemiancoding.com/sketch -->
    <title>22 - Blitz Watch (Flat)</title>
    <desc>Created with Sketch.</desc>
    <defs></defs>
    <g id="Page-1" stroke="none" stroke-width="1" fill="none" fill-rule="evenodd" sketch:type="MSPage">
        <g id="22---Blitz-Watch-(Flat)" sketch:type="MSLayerGroup">
            <path d="M0,9 L60,9 L60,37 L0,37 L0,9 Z" id="Fill-209" fill="#CB8252" sketch:type="MSShapeGroup"></path>
            <path d="M26,23 C26,29.075 21.075,34 15,34 C8.925,34 4,29.075 4,23 C4,16.925 8.925,12 15,12 C21.075,12 26,16.925 26,23" id="Fill-210" fill="#FFFFFF" sketch:type="MSShapeGroup"></path>
            <path d="M56,23 C56,29.075 51.075,34 45,34 C38.925,34 34,29.075 34,23 C34,16.925 38.925,12 45,12 C51.075,12 56,16.925 56,23" id="Fill-211" fill="#FFFFFF" sketch:type="MSShapeGroup"></path>
            <path d="M14,12 L16,12 L16,15 L14,15 L14,12 Z" id="Fill-212" fill="#D1D4D1" sketch:type="MSShapeGroup"></path>
            <path d="M14,31 L16,31 L16,34 L14,34 L14,31 Z" id="Fill-213" fill="#D1D4D1" sketch:type="MSShapeGroup"></path>
            <path d="M23,22 L26,22 L26,24 L23,24 L23,22 Z" id="Fill-214" fill="#D1D4D1" sketch:type="MSShapeGroup"></path>
            <path d="M4,22 L7,22 L7,24 L4,24 L4,22 Z" id="Fill-215" fill="#D1D4D1" sketch:type="MSShapeGroup"></path>
            <path d="M23.485,15.929 L22.071,14.515 L19.95,16.636 L21.364,18.05 L23.485,15.929" id="Fill-216" fill="#D1D4D1" sketch:type="MSShapeGroup"></path>
            <path d="M6.515,30.071 L7.929,31.485 L10.05,29.364 L8.636,27.95 L6.515,30.071" id="Fill-217" fill="#D1D4D1" sketch:type="MSShapeGroup"></path>
            <path d="M19.95,29.364 L22.071,31.485 L23.485,30.071 L21.364,27.95 L19.95,29.364" id="Fill-218" fill="#D1D4D1" sketch:type="MSShapeGroup"></path>
            <path d="M6.515,15.929 L8.636,18.05 L10.05,16.636 L7.929,14.515 L6.515,15.929" id="Fill-219" fill="#D1D4D1" sketch:type="MSShapeGroup"></path>
            <path d="M44,12 L46,12 L46,15 L44,15 L44,12 Z" id="Fill-220" fill="#D1D4D1" sketch:type="MSShapeGroup"></path>
            <path d="M44,31 L46,31 L46,34 L44,34 L44,31 Z" id="Fill-221" fill="#D1D4D1" sketch:type="MSShapeGroup"></path>
            <path d="M53,22 L56,22 L56,24 L53,24 L53,22 Z" id="Fill-222" fill="#D1D4D1" sketch:type="MSShapeGroup"></path>
            <path d="M34,22 L37,22 L37,24 L34,24 L34,22 Z" id="Fill-223" fill="#D1D4D1" sketch:type="MSShapeGroup"></path>
            <path d="M53.485,15.929 L52.071,14.515 L49.95,16.636 L51.364,18.05 L53.485,15.929" id="Fill-224" fill="#D1D4D1" sketch:type="MSShapeGroup"></path>
            <path d="M36.515,30.071 L37.929,31.485 L40.05,29.364 L38.636,27.95 L36.515,30.071" id="Fill-225" fill="#D1D4D1" sketch:type="MSShapeGroup"></path>
            <path d="M49.95,29.364 L52.071,31.485 L53.485,30.071 L51.364,27.95 L49.95,29.364" id="Fill-226" fill="#D1D4D1" sketch:type="MSShapeGroup"></path>
            <path d="M36.515,15.929 L38.636,18.05 L40.05,16.636 L37.929,14.515 L36.515,15.929" id="Fill-227" fill="#D1D4D1" sketch:type="MSShapeGroup"></path>
            <path d="M12.879,20.879 L15,18.757 L17.121,20.879 C18.293,22.05 18.293,23.95 17.121,25.121 C15.95,26.293 14.05,26.293 12.879,25.121 C11.707,23.95 11.707,22.05 12.879,20.879" id="Fill-228" fill="#7F5B53" sketch:type="MSShapeGroup"></path>
            <path d="M48,23 L48,26 L45,26 C43.343,26 42,24.657 42,23 C42,21.343 43.343,20 45,20 C46.657,20 48,21.343 48,23" id="Fill-229" fill="#7F5B53" sketch:type="MSShapeGroup"></path>
            <path d="M13,5 L17,5 L17,9 L13,9 L13,5 Z" id="Fill-230" fill="#ECF0F1" sketch:type="MSShapeGroup"></path>
            <path d="M43,5 L47,5 L47,9 L43,9 L43,5 Z" id="Fill-231" fill="#ECF0F1" sketch:type="MSShapeGroup"></path>
            <path d="M17.5,5 L12.5,5 C11.125,5 10,3.875 10,2.5 C10,1.125 11.125,0 12.5,0 L17.5,0 C18.875,0 20,1.125 20,2.5 C20,3.875 18.875,5 17.5,5" id="Fill-232" fill="#556080" sketch:type="MSShapeGroup"></path>
            <path d="M47.5,5 L42.5,5 C41.125,5 40,3.875 40,2.5 C40,1.125 41.125,0 42.5,0 L47.5,0 C48.875,0 50,1.125 50,2.5 C50,3.875 48.875,5 47.5,5" id="Fill-233" fill="#556080" sketch:type="MSShapeGroup"></path>
            <path d="M29,9 L31,9 L31,37 L29,37 L29,9 Z" id="Fill-495" fill="#805333" sketch:type="MSShapeGroup"></path>
        </g>
    </g>
</svg>