<?xml version="1.0" encoding="UTF-8" standalone="no"?>
<svg width="43px" height="57px" viewBox="0 0 43 57" version="1.1" xmlns="http://www.w3.org/2000/svg" xmlns:xlink="http://www.w3.org/1999/xlink" xmlns:sketch="http://www.bohemiancoding.com/sketch/ns">
    <!-- Generator: Sketch 3.2.2 (9983) - http://www.bohemiancoding.com/sketch -->
    <title>7 - Bomb (Flat)</title>
    <desc>Created with Sketch.</desc>
    <defs></defs>
    <g id="Page-1" stroke="none" stroke-width="1" fill="none" fill-rule="evenodd" sketch:type="MSPage">
        <g id="7---Bomb-(Flat)" sketch:type="MSLayerGroup">
            <path d="M43,34.5 C43,46.926 33.374,57 21.5,57 C9.626,57 0,46.926 0,34.5 C0,22.074 9.626,12 21.5,12 C33.374,12 43,22.074 43,34.5" id="Fill-26" fill="#2C2F38" sketch:type="MSShapeGroup"></path>
            <path d="M7.578,51.639 C11.329,54.98 16.188,57 21.5,57 C27.125,57 32.242,54.737 36.074,51.037 C33.354,46.845 28.072,44 22,44 C15.645,44 10.17,47.123 7.578,51.639" id="Fill-27" fill="#A5A5A4" sketch:type="MSShapeGroup"></path>
            <path d="M7,19 C6.609,19 6.227,19.033 5.849,19.082 C2.393,22.923 0.214,28.034 0.02,33.678 C1.67,35.704 4.183,37 7,37 C11.971,37 16,32.971 16,28 C16,23.029 11.971,19 7,19" id="Fill-28" fill="#A5A5A4" sketch:type="MSShapeGroup"></path>
            <path d="M36.02,19 C36.411,19 36.793,19.033 37.17,19.082 C40.627,22.923 42.806,28.034 43,33.678 C41.35,35.704 38.837,37 36.02,37 C31.049,37 27.02,32.971 27.02,28 C27.02,23.029 31.049,19 36.02,19" id="Fill-29" fill="#A5A5A4" sketch:type="MSShapeGroup"></path>
            <path d="M13,28 C13,30.209 11.209,32 9,32 C6.791,32 5,30.209 5,28 C5,25.791 6.791,24 9,24 C11.209,24 13,25.791 13,28" id="Fill-371" fill="#FFFFFF" sketch:type="MSShapeGroup"></path>
            <path d="M14.999,20 C14.784,20 14.568,19.931 14.385,19.788 C10.196,16.521 3.143,16.993 3.072,16.997 C2.529,17.047 2.042,16.624 2.002,16.072 C1.962,15.522 2.376,15.043 2.928,15.003 C3.247,14.977 10.826,14.476 15.615,18.212 C16.05,18.551 16.128,19.18 15.789,19.615 C15.591,19.868 15.297,20 14.999,20" id="Fill-372" fill="#E57E25" sketch:type="MSShapeGroup"></path>
            <path d="M29,20 C28.703,20 28.409,19.868 28.211,19.615 C27.872,19.18 27.95,18.551 28.385,18.212 C33.175,14.477 40.754,14.977 41.072,15.003 C41.623,15.043 42.037,15.522 41.997,16.071 C41.957,16.622 41.477,17.038 40.928,16.997 C40.859,16.992 33.792,16.531 29.615,19.788 C29.432,19.931 29.216,20 29,20" id="Fill-373" fill="#E57E25" sketch:type="MSShapeGroup"></path>
            <path d="M21.5,13.894 C22.2,13.894 22.892,13.932 23.575,14 L24,13.894 C22.292,9.935 27,2.894 27,2.894 L22.144,0.951 C22.057,0.917 21.958,0.934 21.895,1.003 C19.484,3.584 17.874,11.215 19.934,13.959 C20.451,13.921 20.973,13.894 21.5,13.894" id="Fill-374" fill="#2C2F38" sketch:type="MSShapeGroup"></path>
            <path d="M11,28 C11,28.552 10.552,29 10,29 C9.448,29 9,28.552 9,28 C9,27.448 9.448,27 10,27 C10.552,27 11,27.448 11,28" id="Fill-375" fill="#2C2F38" sketch:type="MSShapeGroup"></path>
            <path d="M30,28 C30,30.209 31.791,32 34,32 C36.209,32 38,30.209 38,28 C38,25.791 36.209,24 34,24 C31.791,24 30,25.791 30,28" id="Fill-387" fill="#FFFFFF" sketch:type="MSShapeGroup"></path>
            <path d="M32,28 C32,28.552 32.448,29 33,29 C33.552,29 34,28.552 34,28 C34,27.448 33.552,27 33,27 C32.448,27 32,27.448 32,28" id="Fill-388" fill="#2C2F38" sketch:type="MSShapeGroup"></path>
            <path d="M27.247,29.986 C24.335,27.02 19.305,27.094 16.512,30.228 C15.63,31.218 15,32.463 15,34 C15,34 15.667,40 22,40 C28.333,40 29,34 29,34 C29,33.862 28.989,33.73 28.979,33.597 C28.151,32.556 27.55,31.329 27.247,29.986" id="Fill-502" fill="#F0C419" sketch:type="MSShapeGroup"></path>
            <path d="M27.797,31.617 C27.17,31.257 26.524,31.054 25.86,31.02 C24.306,30.955 22.997,31.769 22.007,32.624 C21.061,31.775 19.946,31.041 18.545,31.041 L18.498,31.041 C17.414,31.054 16.34,31.509 15.24,32.413 C15.087,32.903 15,33.432 15,34 L15.723,34.69 C16.759,33.606 17.7,33.051 18.521,33.041 L18.542,33.041 C19.543,33.041 20.45,33.863 21.293,34.707 L22,35.414 L22.707,34.707 C23.461,33.953 24.597,32.964 25.757,33.018 C26.558,33.059 27.388,33.602 28.224,34.631 L29,34 C29,33.862 28.989,33.73 28.979,33.597 C28.501,32.996 28.11,32.328 27.797,31.617" id="Fill-503" fill="#181818" sketch:type="MSShapeGroup"></path>
            <path d="M22.144,0.951 C22.057,0.917 21.958,0.934 21.895,1.003 C20.969,1.994 20.163,3.733 19.636,5.651 L20,5.894 L24,6.894 L24.811,7.029 C25.784,4.718 27,2.894 27,2.894 L22.144,0.951" id="Fill-504" fill="#F0C419" sketch:type="MSShapeGroup"></path>
        </g>
    </g>
</svg>