<?xml version="1.0" encoding="UTF-8" standalone="no"?>
<svg width="58px" height="54px" viewBox="0 0 58 54" version="1.1" xmlns="http://www.w3.org/2000/svg" xmlns:xlink="http://www.w3.org/1999/xlink" xmlns:sketch="http://www.bohemiancoding.com/sketch/ns">
    <!-- Generator: Sketch 3.2.2 (9983) - http://www.bohemiancoding.com/sketch -->
    <title>18 - Cards (Flat)</title>
    <desc>Created with Sketch.</desc>
    <defs></defs>
    <g id="Page-1" stroke="none" stroke-width="1" fill="none" fill-rule="evenodd" sketch:type="MSPage">
        <g id="18---Cards-(Flat)" sketch:type="MSLayerGroup" transform="translate(-1.000000, 0.000000)">
            <path d="M18.714,46.799 L47.218,52.947 C48.474,53.218 49.712,52.42 49.983,51.163 L58.983,9.439 C59.254,8.183 58.455,6.945 57.199,6.674 L28.696,0.526 C27.44,0.255 26.202,1.053 25.931,2.309 L16.931,44.034 C16.66,45.29 17.458,46.528 18.714,46.799" id="Fill-345" fill="#EFEFEF" sketch:type="MSShapeGroup"></path>
            <path d="M18.714,46.799 C17.458,46.528 16.66,45.29 16.931,44.034 L25.305,5.21 L9.497,3.022 C8.224,2.846 7.05,3.735 6.874,5.008 L1.022,47.289 C0.846,48.562 1.735,49.737 3.008,49.913 L31.892,53.91 C33.165,54.086 34.339,53.197 34.515,51.924 L34.746,50.257 L18.714,46.799" id="Fill-346" fill="#E0E2E0" sketch:type="MSShapeGroup"></path>
            <path d="M35.58,37.754 C30.57,32.432 28.37,27.95 27.568,24.761 C26.632,21.036 29.16,16.485 32.929,15.744 C37.36,14.874 39.62,19.024 39.62,19.024 C39.62,19.024 43.39,16.175 47.068,18.794 C50.198,21.023 50.625,26.211 48.235,29.219 C46.191,31.794 42.339,34.971 35.58,37.754" id="Fill-469" fill="#C03A2B" sketch:type="MSShapeGroup"></path>
            <path d="M23.218,14.886 C22.884,14.563 22.539,14.238 22.18,13.91 C15.649,17.192 12.046,20.648 10.2,23.368 C8.042,26.547 8.857,31.689 12.144,33.677 C15.394,35.642 18.411,33.749 19.29,33.097 L23.218,14.886" id="Fill-470" fill="#2C2F38" sketch:type="MSShapeGroup"></path>
        </g>
    </g>
</svg>