<?xml version="1.0" encoding="UTF-8" standalone="no"?>
<svg width="58px" height="47px" viewBox="0 0 58 47" version="1.1" xmlns="http://www.w3.org/2000/svg" xmlns:xlink="http://www.w3.org/1999/xlink" xmlns:sketch="http://www.bohemiancoding.com/sketch/ns">
    <!-- Generator: Sketch 3.2.2 (9983) - http://www.bohemiancoding.com/sketch -->
    <title>24 - Checkmate (Flat)</title>
    <desc>Created with Sketch.</desc>
    <defs></defs>
    <g id="Page-1" stroke="none" stroke-width="1" fill="none" fill-rule="evenodd" sketch:type="MSPage">
        <g id="24---Checkmate-(Flat)" sketch:type="MSLayerGroup">
            <path d="M5.808,10.933 L5.166,12.429 L3.785,11.837 C3.141,11.561 2.378,11.902 2.079,12.598 L0.796,15.59 C0.497,16.286 0.776,17.075 1.419,17.351 L2.8,17.943 L2.159,19.439 C1.86,20.136 2.139,20.924 2.782,21.2 L4.696,22.021 C5.339,22.297 6.103,21.956 6.402,21.259 L7.044,19.763 L10.438,21.22 L12.804,15.706 L9.409,14.25 L10.051,12.754 C10.349,12.057 10.07,11.269 9.427,10.993 L7.513,10.172 C6.87,9.896 6.106,10.237 5.808,10.933" id="Fill-41" fill="#BE8400" sketch:type="MSShapeGroup"></path>
            <path d="M47.465,26.222 L41.945,39.089 L22.516,28.577 L26.458,19.387 L47.465,26.222" id="Fill-42" fill="#E5B55B" sketch:type="MSShapeGroup"></path>
            <path d="M22.257,16.497 L17.526,27.525 L10.292,26.159 C9.355,25.982 8.823,24.984 9.199,24.108 L14.043,12.817 C14.418,11.941 15.508,11.639 16.282,12.195 L22.257,16.497" id="Fill-196" fill="#E5B55B" sketch:type="MSShapeGroup"></path>
            <path d="M27.049,18.009 L21.924,29.956 C21.38,31.224 19.91,31.812 18.641,31.268 C17.372,30.723 16.785,29.253 17.329,27.984 L22.454,16.037 C22.999,14.769 24.469,14.181 25.737,14.726 L25.738,14.726 C27.006,15.27 27.594,16.74 27.049,18.009" id="Fill-197" fill="#BE8400" sketch:type="MSShapeGroup"></path>
            <path d="M52.584,29.507 L47.854,40.535 C47.2,42.058 45.437,42.763 43.914,42.109 C42.391,41.456 41.686,39.692 42.339,38.17 L47.07,27.141 C47.724,25.619 49.488,24.914 51.01,25.567 C52.533,26.22 53.238,27.984 52.584,29.507" id="Fill-198" fill="#D9A72E" sketch:type="MSShapeGroup"></path>
            <path d="M57.838,27.408 L49.953,45.788 C49.517,46.803 48.341,47.273 47.326,46.838 C46.311,46.402 45.841,45.226 46.277,44.211 L54.161,25.831 C54.597,24.816 55.773,24.346 56.788,24.781 C57.803,25.217 58.273,26.393 57.838,27.408" id="Fill-199" fill="#BA8100" sketch:type="MSShapeGroup"></path>
            <path d="M30.122,7.721 C29.75,7.308 29.118,7.277 28.71,7.644 L25.384,10.634 C24.973,11.003 24.938,11.636 25.308,12.046 C25.506,12.267 25.778,12.378 26.052,12.378 C26.29,12.378 26.529,12.293 26.72,12.122 L30.046,9.133 C30.457,8.764 30.491,8.131 30.122,7.721" id="Fill-261" fill="#D1D4D1" sketch:type="MSShapeGroup"></path>
            <path d="M32.674,6 C32.912,6 33.151,5.915 33.342,5.744 L36.668,2.755 C37.079,2.386 37.113,1.753 36.744,1.343 C36.373,0.929 35.74,0.899 35.332,1.267 L32.006,4.256 C31.595,4.625 31.56,5.258 31.93,5.668 C32.128,5.889 32.4,6 32.674,6" id="Fill-262" fill="#D1D4D1" sketch:type="MSShapeGroup"></path>
            <path d="M22.085,0.922 C21.711,0.516 21.079,0.491 20.672,0.864 L16.996,4.254 C16.59,4.629 16.564,5.261 16.938,5.667 C17.136,5.881 17.404,5.989 17.674,5.989 C17.916,5.989 18.159,5.901 18.352,5.725 L22.027,2.335 C22.434,1.96 22.459,1.328 22.085,0.922" id="Fill-263" fill="#D1D4D1" sketch:type="MSShapeGroup"></path>
            <path d="M26.783,5.099 C27.011,5.099 27.24,5.022 27.428,4.862 L28.955,3.571 C29.377,3.215 29.43,2.584 29.073,2.162 C28.717,1.74 28.086,1.687 27.664,2.044 L26.137,3.335 C25.715,3.691 25.662,4.322 26.019,4.744 C26.217,4.979 26.499,5.099 26.783,5.099" id="Fill-264" fill="#D1D4D1" sketch:type="MSShapeGroup"></path>
            <path d="M23.082,5.917 L19.264,9.146 C18.842,9.502 18.789,10.133 19.146,10.555 C19.344,10.789 19.626,10.909 19.91,10.909 C20.138,10.909 20.367,10.832 20.555,10.673 L24.373,7.444 C24.795,7.088 24.848,6.457 24.491,6.035 C24.135,5.613 23.504,5.56 23.082,5.917" id="Fill-265" fill="#D1D4D1" sketch:type="MSShapeGroup"></path>
            <path d="M35.633,9.957 C35.269,9.543 34.637,9.502 34.222,9.866 L30.465,13.166 C30.05,13.53 30.009,14.162 30.374,14.577 C30.571,14.802 30.848,14.917 31.125,14.917 C31.359,14.917 31.595,14.835 31.785,14.668 L35.542,11.368 C35.957,11.004 35.998,10.372 35.633,9.957" id="Fill-266" fill="#D1D4D1" sketch:type="MSShapeGroup"></path>
            <path d="M37.136,8.638 C37.333,8.862 37.609,8.977 37.887,8.977 C38.121,8.977 38.356,8.896 38.547,8.729 L39.66,7.751 C40.075,7.387 40.116,6.755 39.751,6.34 C39.387,5.926 38.755,5.885 38.34,6.249 L37.227,7.227 C36.812,7.591 36.771,8.223 37.136,8.638" id="Fill-267" fill="#D1D4D1" sketch:type="MSShapeGroup"></path>
            <path d="M40.778,12.458 C40.406,12.044 39.774,12.015 39.366,12.382 L36.04,15.371 C35.629,15.74 35.595,16.373 35.964,16.783 C36.162,17.004 36.435,17.115 36.708,17.115 C36.946,17.115 37.185,17.03 37.376,16.859 L40.702,13.87 C41.113,13.501 41.147,12.868 40.778,12.458" id="Fill-268" fill="#D1D4D1" sketch:type="MSShapeGroup"></path>
            <path d="M35.674,35.696 L40.842,24.068 L38.93,23.445 L33.909,34.741 L35.674,35.696" id="Fill-500" fill="#F9C97D" sketch:type="MSShapeGroup"></path>
            <path d="M32.091,33.758 L36.959,22.804 L35.047,22.182 L30.326,32.803 L32.091,33.758" id="Fill-501" fill="#F9C97D" sketch:type="MSShapeGroup"></path>
        </g>
    </g>
</svg>