<?xml version="1.0" encoding="UTF-8" standalone="no"?>
<svg width="54px" height="54px" viewBox="0 0 54 54" version="1.1" xmlns="http://www.w3.org/2000/svg" xmlns:xlink="http://www.w3.org/1999/xlink" xmlns:sketch="http://www.bohemiancoding.com/sketch/ns">
    <!-- Generator: Sketch 3.2.2 (9983) - http://www.bohemiancoding.com/sketch -->
    <title>23 - Chess Board (Flat)</title>
    <desc>Created with Sketch.</desc>
    <defs></defs>
    <g id="Page-1" stroke="none" stroke-width="1" fill="none" fill-rule="evenodd" sketch:type="MSPage">
        <g id="23---Chess-Board-(Flat)" sketch:type="MSLayerGroup">
            <path d="M0,0 L18,0 L18,18 L0,18 L0,0 Z" id="Fill-269" fill="#ECF0F1" sketch:type="MSShapeGroup"></path>
            <path d="M36,0 L54,0 L54,18 L36,18 L36,0 Z" id="Fill-270" fill="#ECF0F1" sketch:type="MSShapeGroup"></path>
            <path d="M0,18 L18,18 L18,36 L0,36 L0,18 Z" id="Fill-271" fill="#2C2F38" sketch:type="MSShapeGroup"></path>
            <path d="M18,18 L36,18 L36,36 L18,36 L18,18 Z" id="Fill-272" fill="#ECF0F1" sketch:type="MSShapeGroup"></path>
            <path d="M36,18 L54,18 L54,36 L36,36 L36,18 Z" id="Fill-273" fill="#2C2F38" sketch:type="MSShapeGroup"></path>
            <path d="M0,36 L18,36 L18,54 L0,54 L0,36 Z" id="Fill-274" fill="#ECF0F1" sketch:type="MSShapeGroup"></path>
            <path d="M36,36 L54,36 L54,54 L36,54 L36,36 Z" id="Fill-275" fill="#ECF0F1" sketch:type="MSShapeGroup"></path>
            <path d="M18,36 L36,36 L36,54 L18,54 L18,36 Z" id="Fill-276" fill="#2C2F38" sketch:type="MSShapeGroup"></path>
            <path d="M18,0 L36,0 L36,18 L18,18 L18,0 Z" id="Fill-277" fill="#2C2F38" sketch:type="MSShapeGroup"></path>
        </g>
    </g>
</svg>