<?xml version="1.0" encoding="UTF-8" standalone="no"?>
<svg width="54px" height="58px" viewBox="0 0 54 58" version="1.1" xmlns="http://www.w3.org/2000/svg" xmlns:xlink="http://www.w3.org/1999/xlink" xmlns:sketch="http://www.bohemiancoding.com/sketch/ns">
    <!-- Generator: Sketch 3.2.2 (9983) - http://www.bohemiancoding.com/sketch -->
    <title>8 - Chuck (Flat)</title>
    <desc>Created with Sketch.</desc>
    <defs></defs>
    <g id="Page-1" stroke="none" stroke-width="1" fill="none" fill-rule="evenodd" sketch:type="MSPage">
        <g id="8---Chuck-(Flat)" sketch:type="MSLayerGroup">
            <path d="M30.019,14 C36.503,8.401 30.296,1.175 29.183,0.147 C29.119,0.088 29.019,0.137 29.019,0.224 L29.019,1.42 C29.019,2.695 28.374,3.919 27.256,4.532 C26.478,4.958 25.609,5.055 25.019,4 C25.019,4 20.019,-2.917 13.019,4 C13.019,4 17.538,3.254 18.764,4.712 C19.188,5.216 19.013,5.992 18.472,6.367 C16.932,7.436 12.685,10.617 13.019,13 C13.019,13 21.479,7 23,12 L23.488,12.07 L30.019,14" id="Fill-17" fill="#2C2F38" sketch:type="MSShapeGroup"></path>
            <path d="M53.331,49.556 L49.058,39.523 C47.382,36.002 45.415,32.632 43.182,29.445 L31.924,33 L30.9,31.464 C30.4,30.714 30.726,29.694 31.568,29.373 L40.56,25.947 C39.996,25.24 39.422,24.541 38.83,23.856 L28.407,11.787 C27.15,10.332 24.885,10.362 23.668,11.85 L14.269,23.338 C13.875,23.82 13.633,24.118 13.443,24.35 C13.108,24.759 12.793,25.183 12.489,25.614 L22.356,29.373 C23.198,29.694 23.524,30.714 23.024,31.464 L22,33 L10.341,29.318 L10,30 C8.385,32.697 5.341,37.203 4.1,40.1 L0.445,49.938 C-0.311,51.701 0.702,53.719 2.566,54.168 L9.107,55.742 C19.868,58.332 31.079,58.42 41.879,56 L51.213,53.909 C53.152,53.474 54.186,51.351 53.331,49.556" id="Fill-25" fill="#F7E432" sketch:type="MSShapeGroup"></path>
            <path d="M22,33 L4.906,27.602 C3.978,27.309 3.623,26.184 4.213,25.411 L5.322,23.958 C5.699,23.464 6.357,23.277 6.938,23.498 L22.356,29.373 C23.198,29.694 23.524,30.714 23.024,31.464 L22,33" id="Fill-362" fill="#BF4A00" sketch:type="MSShapeGroup"></path>
            <path d="M28.898,37.71 C30.614,39.33 33,41.784 33.851,43.636 C33.971,43.898 33.955,44.195 33.841,44.46 C33.397,45.49 31.844,47.902 27,48 C22.156,47.902 20.603,45.49 20.159,44.46 C20.045,44.195 20.028,43.898 20.149,43.636 C21,41.784 23.386,39.33 25.102,37.71 C26.17,36.703 27.83,36.703 28.898,37.71" id="Fill-363" fill="#F0C419" sketch:type="MSShapeGroup"></path>
            <path d="M13.605,30.349 C12.623,31.262 12,32.554 12,34 C12,36.761 14.239,39 17,39 C19.761,39 22,36.761 22,34 C22,33.645 21.96,33.299 21.89,32.965 L13.605,30.349" id="Fill-364" fill="#FFFFFF" sketch:type="MSShapeGroup"></path>
            <path d="M31.924,33 L49.018,27.602 C49.946,27.309 50.301,26.184 49.711,25.411 L48.602,23.958 C48.225,23.464 47.567,23.277 46.986,23.498 L31.568,29.373 C30.726,29.694 30.4,30.714 30.9,31.464 L31.924,33" id="Fill-365" fill="#BF4A00" sketch:type="MSShapeGroup"></path>
            <path d="M40.32,30.349 C41.301,31.262 41.924,32.554 41.924,34 C41.924,36.761 39.686,39 36.924,39 C34.163,39 31.924,36.761 31.924,34 C31.924,33.645 31.964,33.299 32.034,32.965 L40.32,30.349" id="Fill-366" fill="#FFFFFF" sketch:type="MSShapeGroup"></path>
            <path d="M27,44.035 C25.787,44.035 24.574,43.711 23.492,43.062 L21.485,41.857 L22.515,40.143 L24.521,41.347 C26.049,42.265 27.95,42.265 29.479,41.347 L31.485,40.143 L32.515,41.857 L30.508,43.062 C29.426,43.711 28.213,44.035 27,44.035" id="Fill-367" fill="#020400" sketch:type="MSShapeGroup"></path>
            <path d="M19,35 C19,35.552 18.552,36 18,36 C17.448,36 17,35.552 17,35 C17,34.448 17.448,34 18,34 C18.552,34 19,34.448 19,35" id="Fill-368" fill="#2C2F38" sketch:type="MSShapeGroup"></path>
            <path d="M37,35 C37,35.552 36.552,36 36,36 C35.448,36 35,35.552 35,35 C35,34.448 35.448,34 36,34 C36.552,34 37,34.448 37,35" id="Fill-369" fill="#2C2F38" sketch:type="MSShapeGroup"></path>
            <path d="M45.946,55.089 C43.283,52.713 35.816,51 27,51 C17.791,51 10.056,52.87 7.732,55.411 L9.107,55.742 C19.868,58.332 31.079,58.42 41.879,56 L45.946,55.089" id="Fill-370" fill="#2C2F38" sketch:type="MSShapeGroup"></path>
        </g>
    </g>
</svg>