<?xml version="1.0" encoding="UTF-8" standalone="no"?>
<svg width="54px" height="45px" viewBox="0 0 54 45" version="1.1" xmlns="http://www.w3.org/2000/svg" xmlns:xlink="http://www.w3.org/1999/xlink" xmlns:sketch="http://www.bohemiancoding.com/sketch/ns">
    <!-- Generator: Sketch 3.2.2 (9983) - http://www.bohemiancoding.com/sketch -->
    <title>11 - Dominoes (Flat)</title>
    <desc>Created with Sketch.</desc>
    <defs></defs>
    <g id="Page-1" stroke="none" stroke-width="1" fill="none" fill-rule="evenodd" sketch:type="MSPage">
        <g id="11---Dominoes-(Flat)" sketch:type="MSLayerGroup">
            <path d="M18.6,44 L2.4,44 C1.074,44 0,42.926 0,41.6 L0,25.4 C0,24.075 1.074,23 2.4,23 L18.6,23 C19.926,23 21,24.075 21,25.4 L21,41.6 C21,42.926 19.926,44 18.6,44" id="Fill-306" fill="#D9A72E" sketch:type="MSShapeGroup"></path>
            <path d="M18.6,23 L2.4,23 C1.074,23 0,21.926 0,20.6 L0,4.4 C0,3.075 1.074,2 2.4,2 L18.6,2 C19.926,2 21,3.075 21,4.4 L21,20.6 C21,21.926 19.926,23 18.6,23" id="Fill-307" fill="#F9C97D" sketch:type="MSShapeGroup"></path>
            <path d="M25.788,4.212 L41.453,0.08 C42.734,-0.258 44.047,0.507 44.385,1.788 L48.518,17.453 C48.856,18.734 48.091,20.047 46.809,20.385 L31.145,24.518 C29.863,24.856 28.55,24.091 28.212,22.809 L24.08,7.145 C23.742,5.863 24.507,4.55 25.788,4.212" id="Fill-308" fill="#D9A72E" sketch:type="MSShapeGroup"></path>
            <path d="M31.145,24.518 L46.809,20.385 C48.091,20.047 49.404,20.812 49.742,22.094 L53.874,37.758 C54.212,39.04 53.448,40.352 52.166,40.691 L36.502,44.823 C35.22,45.161 33.907,44.396 33.569,43.115 L29.437,27.45 C29.099,26.169 29.863,24.856 31.145,24.518" id="Fill-309" fill="#F9C97D" sketch:type="MSShapeGroup"></path>
            <path d="M5,26 C3.896,26 3,26.895 3,28 C3,29.105 3.896,30 5,30 C6.104,30 7,29.105 7,28 C7,26.895 6.104,26 5,26" id="Fill-310" fill="#7C5A18" sketch:type="MSShapeGroup"></path>
            <path d="M16,26 C14.896,26 14,26.895 14,28 C14,29.105 14.896,30 16,30 C17.104,30 18,29.105 18,28 C18,26.895 17.104,26 16,26" id="Fill-311" fill="#7C5A18" sketch:type="MSShapeGroup"></path>
            <path d="M5,37 C3.896,37 3,37.895 3,39 C3,40.105 3.896,41 5,41 C6.104,41 7,40.105 7,39 C7,37.895 6.104,37 5,37" id="Fill-312" fill="#7C5A18" sketch:type="MSShapeGroup"></path>
            <path d="M16,37 C14.896,37 14,37.895 14,39 C14,40.105 14.896,41 16,41 C17.104,41 18,40.105 18,39 C18,37.895 17.104,37 16,37" id="Fill-313" fill="#7C5A18" sketch:type="MSShapeGroup"></path>
            <path d="M10.5,31.833 C9.396,31.833 8.5,32.729 8.5,33.833 C8.5,34.938 9.396,35.833 10.5,35.833 C11.604,35.833 12.5,34.938 12.5,33.833 C12.5,32.729 11.604,31.833 10.5,31.833" id="Fill-314" fill="#7C5A18" sketch:type="MSShapeGroup"></path>
            <path d="M5,5 C3.896,5 3,5.895 3,7 C3,8.105 3.896,9 5,9 C6.104,9 7,8.105 7,7 C7,5.895 6.104,5 5,5" id="Fill-315" fill="#7C5A18" sketch:type="MSShapeGroup"></path>
            <path d="M16,5 C14.896,5 14,5.895 14,7 C14,8.105 14.896,9 16,9 C17.104,9 18,8.105 18,7 C18,5.895 17.104,5 16,5" id="Fill-316" fill="#7C5A18" sketch:type="MSShapeGroup"></path>
            <path d="M5,16 C3.896,16 3,16.895 3,18 C3,19.105 3.896,20 5,20 C6.104,20 7,19.105 7,18 C7,16.895 6.104,16 5,16" id="Fill-317" fill="#7C5A18" sketch:type="MSShapeGroup"></path>
            <path d="M16,16 C14.896,16 14,16.895 14,18 C14,19.105 14.896,20 16,20 C17.104,20 18,19.105 18,18 C18,16.895 17.104,16 16,16" id="Fill-318" fill="#7C5A18" sketch:type="MSShapeGroup"></path>
            <path d="M34.318,18.51 C34.036,17.442 32.942,16.804 31.874,17.086 C30.805,17.368 30.168,18.462 30.45,19.53 C30.732,20.598 31.826,21.235 32.894,20.954 C33.962,20.672 34.599,19.578 34.318,18.51" id="Fill-319" fill="#7C5A18" sketch:type="MSShapeGroup"></path>
            <path d="M39.704,3.644 C38.636,3.926 37.998,5.02 38.28,6.088 C38.562,7.156 39.656,7.793 40.724,7.512 C41.792,7.23 42.429,6.136 42.148,5.068 C41.866,4 40.772,3.362 39.704,3.644" id="Fill-320" fill="#7C5A18" sketch:type="MSShapeGroup"></path>
            <path d="M36.724,13.91 C37.792,13.629 38.429,12.534 38.148,11.466 C37.866,10.398 36.772,9.761 35.704,10.043 C34.635,10.324 33.998,11.419 34.28,12.487 C34.562,13.555 35.656,14.192 36.724,13.91" id="Fill-321" fill="#7C5A18" sketch:type="MSShapeGroup"></path>
            <path d="M50.31,36.009 C50.029,34.941 48.934,34.304 47.866,34.585 C46.798,34.867 46.161,35.961 46.443,37.029 C46.724,38.097 47.819,38.735 48.887,38.453 C49.955,38.171 50.592,37.077 50.31,36.009" id="Fill-322" fill="#7C5A18" sketch:type="MSShapeGroup"></path>
            <path d="M37.23,37.391 C36.162,37.673 35.525,38.767 35.807,39.835 C36.088,40.903 37.182,41.541 38.25,41.259 C39.319,40.977 39.956,39.883 39.674,38.815 C39.392,37.747 38.298,37.109 37.23,37.391" id="Fill-323" fill="#7C5A18" sketch:type="MSShapeGroup"></path>
            <path d="M47.504,25.373 C47.223,24.305 46.128,23.668 45.06,23.949 C43.992,24.231 43.355,25.325 43.637,26.393 C43.918,27.461 45.013,28.099 46.081,27.817 C47.149,27.535 47.786,26.441 47.504,25.373" id="Fill-324" fill="#7C5A18" sketch:type="MSShapeGroup"></path>
            <path d="M36.868,28.179 C36.586,27.111 35.492,26.473 34.424,26.755 C33.356,27.037 32.719,28.131 33,29.199 C33.282,30.267 34.377,30.905 35.445,30.623 C36.513,30.341 37.15,29.247 36.868,28.179" id="Fill-325" fill="#7C5A18" sketch:type="MSShapeGroup"></path>
        </g>
    </g>
</svg>