<?xml version="1.0" encoding="UTF-8" standalone="no"?>
<svg width="60px" height="60px" viewBox="0 0 60 60" version="1.1" xmlns="http://www.w3.org/2000/svg" xmlns:xlink="http://www.w3.org/1999/xlink" xmlns:sketch="http://www.bohemiancoding.com/sketch/ns">
    <!-- Generator: Sketch 3.2.2 (9983) - http://www.bohemiancoding.com/sketch -->
    <title>41 - For the Horde (Flat)</title>
    <desc>Created with Sketch.</desc>
    <defs></defs>
    <g id="Page-1" stroke="none" stroke-width="1" fill="none" fill-rule="evenodd" sketch:type="MSPage">
        <g id="41---For-the-Horde-(Flat)" sketch:type="MSLayerGroup">
            <path d="M60,30 C60,46.569 46.568,60 30,60 C13.431,60 0,46.569 0,30 C0,13.432 13.431,0 30,0 C46.568,0 60,13.432 60,30" id="Fill-2" fill="#3D324C" sketch:type="MSShapeGroup"></path>
            <path id="Stroke-463" stroke="#020202" stroke-width="2" stroke-linejoin="round" sketch:type="MSShapeGroup"></path>
            <path d="M45,31 C44.41,28.048 45.868,25.066 48.561,23.72 L53.88,20.82 L53.738,20.606 C52.507,18.761 50.813,17.438 48.841,16.266 C47.954,15.739 47.144,15.335 46.507,14.598 C43.66,11.302 45,6 45,6 L38,9 L30,2 L22,9 L15,6 C15,6 16.34,11.302 13.493,14.598 C12.856,15.335 12.046,15.739 11.159,16.266 C9.188,17.438 7.493,18.761 6.262,20.606 L6.12,20.82 L11.439,23.72 C14.132,25.066 15.59,28.048 15,31 C15,31 6.188,28.563 5,27 L12,37 C12,37 19.875,32.188 22,45 C22,45 23,48.938 18,48 L25,59 C25,59 25.485,58.112 26.069,56.636 C28.627,50.181 27.985,42.935 24.665,36.836 C22.363,32.608 19.34,24.746 23,17 C23,17 24.313,14 30,14 C35.688,14 37,17 37,17 C40.66,24.746 37.637,32.608 35.335,36.836 C32.015,42.935 31.372,50.181 33.931,56.636 C34.515,58.112 35,59 35,59 L42,48 C37,48.938 38,45 38,45 C40.125,32.188 48,37 48,37 L55,27 C53.812,28.563 45,31 45,31" id="Fill-464" fill="#E64C3C" sketch:type="MSShapeGroup"></path>
            <path d="M35,25 L30,18 L25,25 L30,32 L35,25" id="Fill-465" fill="#E64C3C" sketch:type="MSShapeGroup"></path>
        </g>
    </g>
</svg>