<?xml version="1.0" encoding="UTF-8" standalone="no"?>
<svg width="53px" height="56px" viewBox="0 0 53 56" version="1.1" xmlns="http://www.w3.org/2000/svg" xmlns:xlink="http://www.w3.org/1999/xlink" xmlns:sketch="http://www.bohemiancoding.com/sketch/ns">
    <!-- Generator: Sketch 3.2.2 (9983) - http://www.bohemiancoding.com/sketch -->
    <title>50 - Game Manual (Flat)</title>
    <desc>Created with Sketch.</desc>
    <defs></defs>
    <g id="Page-1" stroke="none" stroke-width="1" fill="none" fill-rule="evenodd" sketch:type="MSPage">
        <g id="50---Game-Manual-(Flat)" sketch:type="MSLayerGroup">
            <path d="M53,56 L10,56 C7.239,56 5,53.761 5,51 C5,48.239 7.239,46 10,46 L53,46 L53,56" id="Fill-3" fill="#ECF0F1" sketch:type="MSShapeGroup"></path>
            <path d="M48,53 C48,53.552 48.448,54 49,54 L53,54 L53,52 L49,52 C48.448,52 48,52.448 48,53" id="Fill-4" fill="#D1D4D1" sketch:type="MSShapeGroup"></path>
            <path d="M49,48 C48.448,48 48,48.448 48,49 C48,49.552 48.448,50 49,50 L53,50 L53,48 L49,48" id="Fill-5" fill="#D1D4D1" sketch:type="MSShapeGroup"></path>
            <path d="M50.098,0 L7.902,0 C6.299,0 5,1.299 5,2.902 L5,51 C5,48.239 7.238,46 10,46 L53,46 L53,2.902 C53,1.299 51.701,0 50.098,0" id="Fill-6" fill="#98614A" sketch:type="MSShapeGroup"></path>
            <path d="M28,24 L35.071,16.929 C31.166,13.024 24.834,13.024 20.929,16.929 C17.024,20.834 17.024,27.166 20.929,31.071 C24.834,34.976 31.166,34.976 35.071,31.071 L28,24" id="Fill-68" fill="#F0C419" sketch:type="MSShapeGroup"></path>
            <path d="M29,19 C29,20.105 28.105,21 27,21 C25.895,21 25,20.105 25,19 C25,17.895 25.895,17 27,17 C28.105,17 29,17.895 29,19" id="Fill-69" fill="#FFFFFF" sketch:type="MSShapeGroup"></path>
            <path d="M37,23 L34,23 C33.448,23 33,23.448 33,24 C33,24.552 33.448,25 34,25 L37,25 C37.552,25 38,24.552 38,24 C38,23.448 37.552,23 37,23" id="Fill-70" fill="#FBD490" sketch:type="MSShapeGroup"></path>
            <path d="M43,23 L41,23 C40.448,23 40,23.448 40,24 C40,24.552 40.448,25 41,25 L43,25 C43.552,25 44,24.552 44,24 C44,23.448 43.552,23 43,23" id="Fill-71" fill="#FBD490" sketch:type="MSShapeGroup"></path>
            <path d="M9,32 C10.105,32 11,32.895 11,34 C11,35.105 10.105,36 9,36 C7.895,36 7,35.105 7,34 C7,32.895 7.895,32 9,32" id="Fill-526" fill="#38454F" sketch:type="MSShapeGroup"></path>
            <path d="M9,26 C10.105,26 11,26.895 11,28 C11,29.105 10.105,30 9,30 C7.895,30 7,29.105 7,28 C7,26.895 7.895,26 9,26" id="Fill-527" fill="#38454F" sketch:type="MSShapeGroup"></path>
            <path d="M9,20 C10.105,20 11,20.895 11,22 C11,23.105 10.105,24 9,24 C7.895,24 7,23.105 7,22 C7,20.895 7.895,20 9,20" id="Fill-528" fill="#38454F" sketch:type="MSShapeGroup"></path>
            <path d="M9,14 C10.105,14 11,14.895 11,16 C11,17.105 10.105,18 9,18 C7.895,18 7,17.105 7,16 C7,14.895 7.895,14 9,14" id="Fill-529" fill="#38454F" sketch:type="MSShapeGroup"></path>
            <path d="M0,16 C0,17.13 0.391,18.162 1.025,19 C1.43,18.466 1.937,18.021 2.52,17.685 C2.192,17.204 2,16.624 2,16 C2,14.346 3.346,13 5,13 C6.654,13 8,14.346 8,16 C8,16.553 8.447,17 9,17 C9.553,17 10,16.553 10,16 C10,13.243 7.757,11 5,11 C2.243,11 0,13.243 0,16" id="Fill-530" fill="#BDC3C7" sketch:type="MSShapeGroup"></path>
            <path d="M2.52,20.315 C3.254,20.739 4.093,21 5,21 L5,19 C3.97,19 3.06,19.522 2.52,20.315" id="Fill-531" fill="#95A5A5" sketch:type="MSShapeGroup"></path>
            <path d="M2.52,26.315 C3.254,26.739 4.093,27 5,27 L5,25 C3.97,25 3.06,25.522 2.52,26.315" id="Fill-532" fill="#95A5A5" sketch:type="MSShapeGroup"></path>
            <path d="M2.52,17.685 C1.937,18.021 1.43,18.466 1.025,19 C0.391,19.838 0,20.87 0,22 C0,23.13 0.391,24.162 1.025,25 C1.43,24.466 1.937,24.021 2.52,23.685 C2.192,23.204 2,22.624 2,22 C2,21.376 2.192,20.796 2.52,20.315 C3.06,19.522 3.97,19 5,19 C6.654,19 8,20.346 8,22 C8,22.553 8.447,23 9,23 C9.553,23 10,22.553 10,22 C10,19.243 7.757,17 5,17 C4.093,17 3.254,17.261 2.52,17.685" id="Fill-533" fill="#BDC3C7" sketch:type="MSShapeGroup"></path>
            <path d="M2.52,32.315 C3.254,32.739 4.093,33 5,33 L5,31 C3.97,31 3.06,31.522 2.52,32.315" id="Fill-534" fill="#95A5A5" sketch:type="MSShapeGroup"></path>
            <path d="M2.52,23.685 C1.937,24.021 1.43,24.466 1.025,25 C0.391,25.838 0,26.87 0,28 C0,29.13 0.391,30.162 1.025,31 C1.43,30.466 1.937,30.021 2.52,29.685 C2.192,29.204 2,28.624 2,28 C2,27.376 2.192,26.796 2.52,26.315 C3.06,25.522 3.97,25 5,25 C6.654,25 8,26.346 8,28 C8,28.553 8.447,29 9,29 C9.553,29 10,28.553 10,28 C10,25.243 7.757,23 5,23 C4.093,23 3.254,23.261 2.52,23.685" id="Fill-535" fill="#BDC3C7" sketch:type="MSShapeGroup"></path>
            <path d="M2.52,29.685 C1.937,30.021 1.43,30.466 1.025,31 C0.391,31.838 0,32.87 0,34 C0,36.757 2.243,39 5,39 L5,37 C3.346,37 2,35.654 2,34 C2,33.376 2.192,32.796 2.52,32.315 C3.06,31.522 3.97,31 5,31 C6.654,31 8,32.346 8,34 C8,34.553 8.447,35 9,35 C9.553,35 10,34.553 10,34 C10,31.243 7.757,29 5,29 C4.093,29 3.254,29.261 2.52,29.685" id="Fill-536" fill="#BDC3C7" sketch:type="MSShapeGroup"></path>
        </g>
    </g>
</svg>