<?xml version="1.0" encoding="UTF-8" standalone="no"?>
<svg width="30px" height="58px" viewBox="0 0 30 58" version="1.1" xmlns="http://www.w3.org/2000/svg" xmlns:xlink="http://www.w3.org/1999/xlink" xmlns:sketch="http://www.bohemiancoding.com/sketch/ns">
    <!-- Generator: Sketch 3.2.2 (9983) - http://www.bohemiancoding.com/sketch -->
    <title>30 - King (Flat)</title>
    <desc>Created with Sketch.</desc>
    <defs></defs>
    <g id="Page-1" stroke="none" stroke-width="1" fill="none" fill-rule="evenodd" sketch:type="MSPage">
        <g id="30---King-(Flat)" sketch:type="MSLayerGroup">
            <path d="M19.628,3 L18,3 L18,1.372 C18,0.614 17.386,0 16.628,0 L13.372,0 C12.614,0 12,0.614 12,1.372 L12,3 L10.372,3 C9.614,3 9,3.614 9,4.372 L9,6.628 C9,7.386 9.614,8 10.372,8 L12,8 L12,12 L18,12 L18,8 L19.628,8 C20.386,8 21,7.386 21,6.628 L21,4.372 C21,3.614 20.386,3 19.628,3" id="Fill-192" fill="#BE8400" sketch:type="MSShapeGroup"></path>
            <path d="M21,21 L9,21 L7.403,13.813 C7.196,12.883 7.904,12 8.857,12 L21.143,12 C22.096,12 22.804,12.883 22.597,13.813 L21,21" id="Fill-193" fill="#E5B55B" sketch:type="MSShapeGroup"></path>
            <path d="M24.001,47 L6,47 L8,26 L22.001,26 L24.001,47" id="Fill-247" fill="#E5B55B" sketch:type="MSShapeGroup"></path>
            <path d="M25,26 L5,26 C3.619,26 2.5,24.881 2.5,23.5 C2.5,22.119 3.619,21 5,21 L25,21 C26.381,21 27.5,22.119 27.5,23.5 C27.5,24.881 26.381,26 25,26" id="Fill-248" fill="#BE8400" sketch:type="MSShapeGroup"></path>
            <path d="M0,53 L30,53 L30,58 L0,58 L0,53 Z" id="Fill-249" fill="#BA8100" sketch:type="MSShapeGroup"></path>
            <path d="M28,53 L2,53 L2,50.157 C2,48.413 3.413,47 5.157,47 L24.843,47 C26.587,47 28,48.413 28,50.157 L28,53" id="Fill-250" fill="#D9A72E" sketch:type="MSShapeGroup"></path>
            <path d="M6.476,42 L23.524,42 L23.048,37 L6.952,37 L6.476,42" id="Fill-256" fill="#BE8400" sketch:type="MSShapeGroup"></path>
        </g>
    </g>
</svg>