<?xml version="1.0" encoding="UTF-8" standalone="no"?>
<svg width="50px" height="58px" viewBox="0 0 50 58" version="1.1" xmlns="http://www.w3.org/2000/svg" xmlns:xlink="http://www.w3.org/1999/xlink" xmlns:sketch="http://www.bohemiancoding.com/sketch/ns">
    <!-- Generator: Sketch 3.2.2 (9983) - http://www.bohemiancoding.com/sketch -->
    <title>10 - King Pig (Flat)</title>
    <desc>Created with Sketch.</desc>
    <defs></defs>
    <g id="Page-1" stroke="none" stroke-width="1" fill="none" fill-rule="evenodd" sketch:type="MSPage">
        <g id="10---King-Pig-(Flat)" sketch:type="MSLayerGroup" transform="translate(-1.000000, 0.000000)">
            <path d="M9.003,24.98 C-3.267,22.227 2.132,14.434 2.479,13.979 C2.479,13.979 7.711,7.104 14.003,18.98 L9.003,24.98" id="Fill-9" fill="#6BB550" sketch:type="MSShapeGroup"></path>
            <path d="M23.484,13.709 L25.105,13.014 C27.511,2.201 19.105,3.014 19.105,3.014 C19.105,3.014 10.65,4.875 18.009,15.866 C19.714,14.925 21.55,14.195 23.484,13.709" id="Fill-10" fill="#6BB550" sketch:type="MSShapeGroup"></path>
            <path d="M51,35 C51,47.703 40.702,58 28,58 C15.297,58 5,47.703 5,35 C5,22.298 15.297,12 28,12 C40.702,12 51,22.298 51,35" id="Fill-24" fill="#7DB94C" sketch:type="MSShapeGroup"></path>
            <path d="M28.001,43 C35.834,42.387 36.109,34.759 35.984,31.993 C35.952,31.287 35.822,30.583 35.537,29.936 C33.614,25.567 28.001,26 28.001,26 C28.001,26 23.048,25.809 20.85,29.278 C20.285,30.169 20.037,31.224 20.007,32.279 C19.925,35.249 20.423,42.407 28.001,43" id="Fill-329" fill="#A4E869" sketch:type="MSShapeGroup"></path>
            <path d="M20.007,32.279 C20.037,31.224 20.284,30.169 20.85,29.278 C21.17,28.773 21.553,28.353 21.966,27.991 C20.81,26.193 18.796,25 16.5,25 C12.91,25 10,27.91 10,31.5 C10,35.09 12.91,38 16.5,38 C17.993,38 19.363,37.492 20.461,36.646 C20.029,34.981 19.977,33.355 20.007,32.279" id="Fill-330" fill="#FFFFFF" sketch:type="MSShapeGroup"></path>
            <path d="M39.5,25 C37.237,25 35.245,26.158 34.081,27.913 C34.659,28.435 35.167,29.095 35.537,29.936 C35.822,30.583 35.952,31.287 35.984,31.993 C36.032,33.054 36.017,34.829 35.544,36.649 C36.64,37.493 38.009,38 39.5,38 C43.09,38 46,35.09 46,31.5 C46,27.91 43.09,25 39.5,25" id="Fill-331" fill="#FFFFFF" sketch:type="MSShapeGroup"></path>
            <path d="M18,31.5 C18,32.881 16.881,34 15.5,34 C14.119,34 13,32.881 13,31.5 C13,30.119 14.119,29 15.5,29 C16.881,29 18,30.119 18,31.5" id="Fill-332" fill="#2C2F38" sketch:type="MSShapeGroup"></path>
            <path d="M43,30.5 C43,31.881 41.881,33 40.5,33 C39.119,33 38,31.881 38,30.5 C38,29.119 39.119,28 40.5,28 C41.881,28 43,29.119 43,30.5" id="Fill-333" fill="#2C2F38" sketch:type="MSShapeGroup"></path>
            <path d="M27,33.5 C27,34.881 26.105,36 25,36 C23.895,36 23,34.881 23,33.5 C23,32.119 23.895,31 25,31 C26.105,31 27,32.119 27,33.5" id="Fill-334" fill="#1A4A13" sketch:type="MSShapeGroup"></path>
            <path d="M33,33.5 C33,34.881 32.105,36 31,36 C29.895,36 29,34.881 29,33.5 C29,32.119 29.895,31 31,31 C32.105,31 33,32.119 33,33.5" id="Fill-335" fill="#1A4A13" sketch:type="MSShapeGroup"></path>
            <path d="M28.001,43 C26.835,42.909 25.854,42.648 25,42.285 L25,46 C25,47.657 26.343,49 28,49 C29.657,49 31,47.657 31,46 L31,42.286 C30.146,42.648 29.166,42.909 28.001,43" id="Fill-336" fill="#FFFFFF" sketch:type="MSShapeGroup"></path>
            <path d="M25,42.285 C25.077,42.318 22.186,40.44 21.405,39.037 L21.402,39.035 L19.402,42.5 C18.574,43.934 19.066,45.769 20.5,46.598 C21.935,47.426 23.77,46.934 24.599,45.5 L25,44.804 L25,42.285" id="Fill-337" fill="#FFFFFF" sketch:type="MSShapeGroup"></path>
            <path d="M36.598,42.5 L34.602,39.042 C33.854,40.384 32.708,41.561 31,42.286 L31,44.804 L31.401,45.5 C32.23,46.934 34.065,47.426 35.5,46.598 C36.934,45.769 37.426,43.934 36.598,42.5" id="Fill-338" fill="#FFFFFF" sketch:type="MSShapeGroup"></path>
            <path d="M16,43 C16,43.552 15.552,44 15,44 C14.448,44 14,43.552 14,43 C14,42.448 14.448,42 15,42 C15.552,42 16,42.448 16,43" id="Fill-339" fill="#2C2F38" sketch:type="MSShapeGroup"></path>
            <path d="M13,41 C13,41.552 12.552,42 12,42 C11.448,42 11,41.552 11,41 C11,40.448 11.448,40 12,40 C12.552,40 13,40.448 13,41" id="Fill-340" fill="#2C2F38" sketch:type="MSShapeGroup"></path>
            <path d="M13,45 C13,45.552 12.552,46 12,46 C11.448,46 11,45.552 11,45 C11,44.448 11.448,44 12,44 C12.552,44 13,44.448 13,45" id="Fill-341" fill="#2C2F38" sketch:type="MSShapeGroup"></path>
            <path d="M40,43 C40,43.552 40.448,44 41,44 C41.552,44 42,43.552 42,43 C42,42.448 41.552,42 41,42 C40.448,42 40,42.448 40,43" id="Fill-342" fill="#2C2F38" sketch:type="MSShapeGroup"></path>
            <path d="M43,41 C43,41.552 43.448,42 44,42 C44.552,42 45,41.552 45,41 C45,40.448 44.552,40 44,40 C43.448,40 43,40.448 43,41" id="Fill-343" fill="#2C2F38" sketch:type="MSShapeGroup"></path>
            <path d="M43,45 C43,45.552 43.448,46 44,46 C44.552,46 45,45.552 45,45 C45,44.448 44.552,44 44,44 C43.448,44 43,44.448 43,45" id="Fill-344" fill="#2C2F38" sketch:type="MSShapeGroup"></path>
            <path d="M43.334,17.862 C44.547,12.9 49.386,4.181 49.99,3.129 C50.02,3.076 49.977,3.008 49.917,3.015 C46.478,3.424 42.064,8 42.064,8 L41.089,0.195 C41.08,0.128 40.993,0.107 40.955,0.164 L37.064,6 C34.435,1.461 32.615,0.286 32.17,0.051 C32.121,0.025 32.064,0.061 32.064,0.117 L32.064,12.365 C36.349,13.13 40.223,15.076 43.334,17.862" id="Fill-350" fill="#F0C419" sketch:type="MSShapeGroup"></path>
            <path d="M32.064,9.303 L44.531,14.29 C44.772,13.682 45.028,13.065 45.301,12.443 L32.064,7.148 L32.064,9.303" id="Fill-513" fill="#F29C1F" sketch:type="MSShapeGroup"></path>
        </g>
    </g>
</svg>