<?xml version="1.0" encoding="UTF-8" standalone="no"?>
<svg width="29px" height="56px" viewBox="0 0 29 56" version="1.1" xmlns="http://www.w3.org/2000/svg" xmlns:xlink="http://www.w3.org/1999/xlink" xmlns:sketch="http://www.bohemiancoding.com/sketch/ns">
    <!-- Generator: Sketch 3.2.2 (9983) - http://www.bohemiancoding.com/sketch -->
    <title>25 - Knight (Flat)</title>
    <desc>Created with Sketch.</desc>
    <defs></defs>
    <g id="Page-1" stroke="none" stroke-width="1" fill="none" fill-rule="evenodd" sketch:type="MSPage">
        <g id="25---Knight-(Flat)" sketch:type="MSLayerGroup">
            <path d="M27,56 L3,56 C1.895,56 1,55.105 1,54 C1,52.895 1.895,52 3,52 L27,52 C28.105,52 29,52.895 29,54 C29,55.105 28.105,56 27,56" id="Fill-203" fill="#BA8100" sketch:type="MSShapeGroup"></path>
            <path d="M21.114,30.685 C20.858,30.685 20.602,30.587 20.407,30.392 C20.017,30.001 20.017,29.368 20.407,28.978 L26.592,22.793 C26.982,22.402 27.615,22.402 28.006,22.793 C28.062,22.849 28.092,22.919 28.132,22.984 C28.29,21.231 28.308,19.486 28.17,17.776 C28.124,17.862 28.079,17.95 28.006,18.023 L21.821,24.207 C21.626,24.402 21.37,24.5 21.114,24.5 C20.858,24.5 20.602,24.402 20.407,24.207 C20.017,23.816 20.017,23.184 20.407,22.793 L26.592,16.608 C26.982,16.218 27.615,16.218 28.006,16.608 C28.028,16.631 28.036,16.66 28.056,16.684 C27.845,14.948 27.466,13.258 26.902,11.639 C26.861,11.707 26.829,11.78 26.769,11.839 L23.059,15.549 C22.863,15.744 22.607,15.842 22.352,15.842 C22.096,15.842 21.84,15.744 21.644,15.549 C21.254,15.158 21.254,14.525 21.644,14.135 L25.356,10.425 C25.621,10.159 25.996,10.089 26.333,10.184 C25.161,7.471 23.433,5 21.035,2.936 C18.674,0.905 16.786,0 16.786,0 L13.429,6.714 L8.746,0 L8.746,9.895 L0,20.143 C1.119,27.976 6.714,21.821 6.714,21.821 C9.582,23.99 15.107,18.464 15.107,18.464 C16.786,25.598 8.393,30.214 8.393,30.214 C2.098,35.67 5.036,47 5.036,47 L24.825,47 C24.337,45.255 25.401,37.391 26.449,31.948 L21.821,36.575 C21.626,36.771 21.37,36.868 21.114,36.868 C20.858,36.868 20.602,36.771 20.407,36.575 C20.017,36.185 20.017,35.552 20.407,35.161 L25.356,30.214 C25.746,29.823 26.379,29.823 26.769,30.214 C26.78,30.225 26.784,30.239 26.794,30.25 C26.928,29.623 27.06,29.039 27.184,28.546 C27.544,27.114 27.809,25.667 27.993,24.22 L21.821,30.392 C21.626,30.587 21.37,30.685 21.114,30.685" id="Fill-204" fill="#E5B55B" sketch:type="MSShapeGroup"></path>
            <path d="M25.356,30.214 L20.407,35.161 C20.017,35.552 20.017,36.185 20.407,36.575 C20.602,36.771 20.858,36.868 21.114,36.868 C21.37,36.868 21.626,36.771 21.821,36.575 L26.449,31.948 C26.565,31.346 26.68,30.782 26.794,30.25 C26.784,30.239 26.78,30.225 26.769,30.214 C26.379,29.823 25.746,29.823 25.356,30.214" id="Fill-205" fill="#F9C97D" sketch:type="MSShapeGroup"></path>
            <path d="M28.006,22.793 C27.615,22.402 26.982,22.402 26.592,22.793 L20.407,28.978 C20.017,29.368 20.017,30.001 20.407,30.392 C20.602,30.587 20.858,30.685 21.114,30.685 C21.37,30.685 21.626,30.587 21.821,30.392 L27.993,24.22 C28.045,23.808 28.095,23.396 28.132,22.984 C28.092,22.919 28.062,22.849 28.006,22.793" id="Fill-206" fill="#F9C97D" sketch:type="MSShapeGroup"></path>
            <path d="M26.592,16.608 L20.407,22.793 C20.017,23.184 20.017,23.816 20.407,24.207 C20.602,24.402 20.858,24.5 21.114,24.5 C21.37,24.5 21.626,24.402 21.821,24.207 L28.006,18.023 C28.079,17.95 28.124,17.862 28.17,17.776 C28.14,17.409 28.1,17.046 28.056,16.684 C28.036,16.66 28.028,16.631 28.006,16.608 C27.615,16.218 26.982,16.218 26.592,16.608" id="Fill-207" fill="#F9C97D" sketch:type="MSShapeGroup"></path>
            <path d="M25.356,10.425 L21.644,14.135 C21.254,14.525 21.254,15.158 21.644,15.549 C21.84,15.744 22.096,15.842 22.352,15.842 C22.607,15.842 22.863,15.744 23.059,15.549 L26.769,11.839 C26.829,11.78 26.861,11.707 26.902,11.639 C26.731,11.147 26.539,10.662 26.333,10.184 C25.996,10.089 25.621,10.159 25.356,10.425" id="Fill-208" fill="#F9C97D" sketch:type="MSShapeGroup"></path>
            <path d="M23,52 L7,52 C5.343,52 4,50.657 4,49 C4,47.343 5.343,46 7,46 L23,46 C24.657,46 26,47.343 26,49 C26,50.657 24.657,52 23,52" id="Fill-499" fill="#D9A72E" sketch:type="MSShapeGroup"></path>
        </g>
    </g>
</svg>