<?xml version="1.0" encoding="UTF-8" standalone="no"?>
<svg width="46px" height="58px" viewBox="0 0 46 58" version="1.1" xmlns="http://www.w3.org/2000/svg" xmlns:xlink="http://www.w3.org/1999/xlink" xmlns:sketch="http://www.bohemiancoding.com/sketch/ns">
    <!-- Generator: Sketch 3.2.2 (9983) - http://www.bohemiancoding.com/sketch -->
    <title>34 - Mario Fireflower (Flat)</title>
    <desc>Created with Sketch.</desc>
    <defs></defs>
    <g id="Page-1" stroke="none" stroke-width="1" fill="none" fill-rule="evenodd" sketch:type="MSPage">
        <g id="34---Mario-Fireflower-(Flat)" sketch:type="MSLayerGroup">
            <path d="M23,36 C10.102,36 0,28.094 0,18 C0,7.906 10.102,0 23,0 C35.897,0 46,7.906 46,18 C46,28.094 35.897,36 23,36" id="Fill-88" fill="#F0C419" sketch:type="MSShapeGroup"></path>
            <path d="M23,29 C14.629,29 7.818,23.87 7.818,18.036 C7.818,12.201 14.629,7.455 23,7.455 C31.371,7.455 38.181,12.201 38.181,18.036 C38.181,23.87 31.371,29 23,29" id="Fill-89" fill="#F18D46" sketch:type="MSShapeGroup"></path>
            <path d="M19,20 C18.447,20 18,19.552 18,19 L18,15 C18,14.448 18.447,14 19,14 C19.553,14 20,14.448 20,15 L20,19 C20,19.552 19.553,20 19,20" id="Fill-149" fill="#FFFFFF" sketch:type="MSShapeGroup"></path>
            <path d="M27,20 C26.447,20 26,19.552 26,19 L26,15 C26,14.448 26.447,14 27,14 C27.553,14 28,14.448 28,15 L28,19 C28,19.552 27.553,20 27,20" id="Fill-150" fill="#FFFFFF" sketch:type="MSShapeGroup"></path>
            <path d="M11,44 L11,44 C11,41.239 13.239,39 16,39 C18.761,39 21,41.239 21,44 L21,49 L16,49 C13.239,49 11,46.761 11,44" id="Fill-151" fill="#4C8056" sketch:type="MSShapeGroup"></path>
            <path d="M35,49 L35,49 C35,46.239 32.761,44 30,44 C27.239,44 25,46.239 25,49 L25,54 L30,54 C32.761,54 35,51.761 35,49" id="Fill-152" fill="#4C8056" sketch:type="MSShapeGroup"></path>
            <path d="M23,36 C22.325,36 21.659,35.973 21,35.931 L21,58 L25,58 L25,35.931 C24.341,35.973 23.675,36 23,36" id="Fill-153" fill="#7ED09E" sketch:type="MSShapeGroup"></path>
        </g>
    </g>
</svg>