<?xml version="1.0" encoding="UTF-8" standalone="no"?>
<svg width="54px" height="51px" viewBox="0 0 54 51" version="1.1" xmlns="http://www.w3.org/2000/svg" xmlns:xlink="http://www.w3.org/1999/xlink" xmlns:sketch="http://www.bohemiancoding.com/sketch/ns">
    <!-- Generator: Sketch 3.2.2 (9983) - http://www.bohemiancoding.com/sketch -->
    <title>39 - Mario Castle (Flat)</title>
    <desc>Created with Sketch.</desc>
    <defs></defs>
    <g id="Page-1" stroke="none" stroke-width="1" fill="none" fill-rule="evenodd" sketch:type="MSPage">
        <g id="39---Mario-Castle-(Flat)" sketch:type="MSLayerGroup">
            <path d="M54,51 L0,51 L0,20 L10,20 L10,29 L22,29 L22,20 L32,20 L32,29 L44,29 L44,20 L54,20 L54,51" id="Fill-107" fill="#AA5E32" sketch:type="MSShapeGroup"></path>
            <path d="M40,0 L40,4 L32,4 L32,0 L22,0 L22,4 L14,4 L14,0 L4,0 L4,20 L10,20 L10,29 L22,29 L22,20 L32,20 L32,29 L44,29 L44,20 L50,20 L50,0 L40,0" id="Fill-108" fill="#5B311B" sketch:type="MSShapeGroup"></path>
            <path d="M15,9 L21,9 L21,15 L15,15 L15,9 Z" id="Fill-109" fill="#AA5E32" sketch:type="MSShapeGroup"></path>
            <path d="M33,9 L39,9 L39,15 L33,15 L33,9 Z" id="Fill-110" fill="#AA5E32" sketch:type="MSShapeGroup"></path>
            <path d="M7,35 L13,35 L13,41 L7,41 L7,35 Z" id="Fill-111" fill="#F18D46" sketch:type="MSShapeGroup"></path>
            <path d="M41,35 L47,35 L47,41 L41,41 L41,35 Z" id="Fill-112" fill="#F18D46" sketch:type="MSShapeGroup"></path>
            <path d="M32,51 L22,51 L22,36.91 C22,35.303 23.303,34 24.91,34 L29.09,34 C30.697,34 32,35.303 32,36.91 L32,51" id="Fill-113" fill="#5B311B" sketch:type="MSShapeGroup"></path>
        </g>
    </g>
</svg>