<?xml version="1.0" encoding="UTF-8" standalone="no"?>
<svg width="48px" height="48px" viewBox="0 0 48 48" version="1.1" xmlns="http://www.w3.org/2000/svg" xmlns:xlink="http://www.w3.org/1999/xlink" xmlns:sketch="http://www.bohemiancoding.com/sketch/ns">
    <!-- Generator: Sketch 3.2.2 (9983) - http://www.bohemiancoding.com/sketch -->
    <title>40 - Mario Mushroom (Flat)</title>
    <desc>Created with Sketch.</desc>
    <defs></defs>
    <g id="Page-1" stroke="none" stroke-width="1" fill="none" fill-rule="evenodd" sketch:type="MSPage">
        <g id="40---Mario-Mushroom-(Flat)" sketch:type="MSLayerGroup">
            <path d="M24,32 C32.725,32 36.99,34.557 38.425,35.66 C39.206,36.26 40.141,36.664 41.125,36.704 C43.787,36.814 45.737,34.644 46.687,32.594 C47.966,29.836 47.955,26.642 46.883,23.797 C41.156,8.614 31.103,0.798 25.668,0.798 L22.668,0.798 C16.288,0.798 6.843,8.614 1.117,23.797 C0.045,26.642 0.034,29.836 1.312,32.594 C2.262,34.644 4.212,36.814 6.874,36.704 C7.859,36.664 8.794,36.26 9.575,35.66 C11.01,34.557 15.275,32 24,32" id="Fill-102" fill="#E57E25" sketch:type="MSShapeGroup"></path>
            <path d="M22,22 C22,25.866 18.866,29 15,29 C11.134,29 8,25.866 8,22 C8,18.134 11.134,15 15,15 C18.866,15 22,18.134 22,22" id="Fill-103" fill="#F0C419" sketch:type="MSShapeGroup"></path>
            <path d="M42,26 C42,28.209 40.209,30 38,30 C35.791,30 34,28.209 34,26 C34,23.791 35.791,22 38,22 C40.209,22 42,23.791 42,26" id="Fill-104" fill="#F0C419" sketch:type="MSShapeGroup"></path>
            <path d="M33.491,33.276 C31.193,32.565 28.092,32 24,32 C20.725,32 18.078,32.36 15.974,32.869 L14.734,41.682 C14.227,44.893 16.709,47.797 19.959,47.797 L29.577,47.797 C32.828,47.797 35.31,44.893 34.803,41.682 L33.491,33.276" id="Fill-105" fill="#FBD490" sketch:type="MSShapeGroup"></path>
            <path d="M40.426,11.377 C36.878,6.596 33.042,3.446 29.807,1.977 C27.535,3.266 26,5.702 26,8.5 C26,12.642 29.358,16 33.5,16 C36.622,16 39.297,14.091 40.426,11.377" id="Fill-106" fill="#F0C419" sketch:type="MSShapeGroup"></path>
        </g>
    </g>
</svg>