<?xml version="1.0" encoding="UTF-8" standalone="no"?>
<svg width="58px" height="58px" viewBox="0 0 58 58" version="1.1" xmlns="http://www.w3.org/2000/svg" xmlns:xlink="http://www.w3.org/1999/xlink" xmlns:sketch="http://www.bohemiancoding.com/sketch/ns">
    <!-- Generator: Sketch 3.2.2 (9983) - http://www.bohemiancoding.com/sketch -->
    <title>32 - Mario Pipe (Flat)</title>
    <desc>Created with Sketch.</desc>
    <defs></defs>
    <g id="Page-1" stroke="none" stroke-width="1" fill="none" fill-rule="evenodd" sketch:type="MSPage">
        <g id="32---Mario-Pipe-(Flat)" sketch:type="MSLayerGroup">
            <path d="M56.094,22 L37.906,22 C36.853,22 36,21.146 36,20.094 L36,1.906 C36,0.854 36.853,0 37.906,0 L56.094,0 C57.146,0 58,0.854 58,1.906 L58,20.094 C58,21.146 57.146,22 56.094,22" id="Fill-44" fill="#F0C419" sketch:type="MSShapeGroup"></path>
            <path d="M49.342,3 L45.384,3 C43.455,3 42,4.376 42,6.2 L42,8 L44,8 L44,6.2 C44,5.375 44.718,5 45.384,5 L49.342,5 C50.126,5 51,5.493 51,6.2 L51,8.583 C51,8.708 50.805,9 49,9 C47.262,9 46,10.521 46,12.617 L46,15 L48,15 L48,12.617 C48,11.967 48.267,11 49,11 C49.989,11 53,11 53,8.583 L53,6.2 C53,4.224 51.102,3 49.342,3" id="Fill-77" fill="#FBD490" sketch:type="MSShapeGroup"></path>
            <path d="M46,17 L48,17 L48,19 L46,19 L46,17 Z" id="Fill-78" fill="#FBD490" sketch:type="MSShapeGroup"></path>
            <path d="M4,37 L33,37 L33,58 L4,58 L4,37 Z" id="Fill-93" fill="#51B957" sketch:type="MSShapeGroup"></path>
            <path d="M35.246,37 L1.754,37 C0.785,37 0,36.215 0,35.246 L0,26.754 C0,25.785 0.785,25 1.754,25 L35.246,25 C36.215,25 37,25.785 37,26.754 L37,35.246 C37,36.215 36.215,37 35.246,37" id="Fill-94" fill="#43AA4A" sketch:type="MSShapeGroup"></path>
        </g>
    </g>
</svg>