<?xml version="1.0" encoding="UTF-8" standalone="no"?>
<svg width="50px" height="50px" viewBox="0 0 50 50" version="1.1" xmlns="http://www.w3.org/2000/svg" xmlns:xlink="http://www.w3.org/1999/xlink" xmlns:sketch="http://www.bohemiancoding.com/sketch/ns">
    <!-- Generator: Sketch 3.2.2 (9983) - http://www.bohemiancoding.com/sketch -->
    <title>37 - Mario (Flat)</title>
    <desc>Created with Sketch.</desc>
    <defs></defs>
    <g id="Page-1" stroke="none" stroke-width="1" fill="none" fill-rule="evenodd" sketch:type="MSPage">
        <g id="37---Mario-(Flat)" sketch:type="MSLayerGroup">
            <path d="M12.977,46.467 C14.906,45.224 16.862,43.221 18.082,42 C18.502,41.606 18.896,41.311 19.268,41.093 C20.363,42.823 22.518,44 25,44 C27.44,44 29.563,42.861 30.675,41.178 C31.002,41.386 31.345,41.647 31.708,41.989 C32.956,43.237 34.947,45.31 36.894,46.549 C41.807,43.362 45,38.262 45,32.5 C45,22.835 36.046,15 25,15 C13.954,15 5,22.835 5,32.5 C5,38.213 8.138,43.275 12.977,46.467" id="Fill-45" fill="#FDD7AD" sketch:type="MSShapeGroup"></path>
            <path d="M42.236,9.01 C38.905,5.441 34.482,2.906 30.966,1.284 C27.255,-0.428 22.981,-0.428 19.27,1.284 C15.754,2.906 11.331,5.441 8,9.01 C4.829,12.406 3.4,18.233 4.84,22.651 C5.123,23.52 5.5,24.345 6,25.03 L6.934,25.03 C10.139,19.107 17.013,15 25,15 C32.987,15 39.861,19.107 43.066,25.03 L44,25.03 C44.5,24.345 44.876,23.52 45.16,22.651 C46.6,18.233 45.407,12.406 42.236,9.01" id="Fill-114" fill="#C03A2B" sketch:type="MSShapeGroup"></path>
            <path d="M31.5,38.5 C31.5,41.538 28.59,44 25,44 C21.41,44 18.5,41.538 18.5,38.5 C18.5,35.463 21.41,33 25,33 C28.59,33 31.5,35.463 31.5,38.5" id="Fill-115" fill="#FB7B76" sketch:type="MSShapeGroup"></path>
            <path d="M31,25 C28.515,25 26.5,27.91 26.5,31.5 C26.5,32.085 26.558,32.649 26.659,33.188 C29.246,33.765 31.204,35.652 31.468,37.965 C33.733,37.626 35.5,34.862 35.5,31.5 C35.5,27.91 33.485,25 31,25" id="Fill-116" fill="#FFFFFF" sketch:type="MSShapeGroup"></path>
            <path d="M23.341,33.188 C23.442,32.649 23.5,32.085 23.5,31.5 C23.5,27.91 21.485,25 19,25 C16.515,25 14.5,27.91 14.5,31.5 C14.5,34.862 16.267,37.626 18.532,37.965 C18.796,35.652 20.754,33.765 23.341,33.188" id="Fill-117" fill="#FFFFFF" sketch:type="MSShapeGroup"></path>
            <path d="M5,32.5 C5,30.947 5.254,29.449 5.688,28.016 C2.52,28.179 0,30.792 0,34 C0,37.314 2.686,40 6,40 C6.31,40 6.612,39.969 6.909,39.924 C5.697,37.668 5,35.158 5,32.5" id="Fill-118" fill="#D3B292" sketch:type="MSShapeGroup"></path>
            <path d="M45,32.5 C45,30.947 44.746,29.449 44.312,28.016 C47.48,28.179 50,30.792 50,34 C50,37.314 47.314,40 44,40 C43.69,40 43.388,39.969 43.091,39.924 C44.303,37.668 45,35.158 45,32.5" id="Fill-119" fill="#D3B292" sketch:type="MSShapeGroup"></path>
            <path d="M23,25.185 C22.629,25.185 22.273,24.978 22.1,24.621 C20.559,21.439 16.715,20.104 13.531,21.644 C13.036,21.887 12.436,21.678 12.195,21.18 C11.955,20.683 12.162,20.085 12.659,19.844 C16.835,17.823 21.877,19.573 23.9,23.749 C24.141,24.246 23.933,24.844 23.436,25.085 C23.295,25.153 23.147,25.185 23,25.185" id="Fill-120" fill="#2C2F38" sketch:type="MSShapeGroup"></path>
            <path d="M31.708,41.989 C31.345,41.647 31.002,41.386 30.675,41.178 C29.563,42.861 27.44,44 25,44 C22.518,44 20.363,42.823 19.268,41.093 C18.896,41.311 18.502,41.606 18.082,42 C15.86,44.222 11.203,49.05 8.71,47.137 C12.035,49.93 19.758,50.693 22.359,49.367 C23.235,48.92 26.556,48.92 27.431,49.367 C30.033,50.693 37.675,49.93 41,47.137 C38.507,49.05 33.93,44.211 31.708,41.989" id="Fill-121" fill="#2C2F38" sketch:type="MSShapeGroup"></path>
            <path d="M29,31 C29,31.552 29.448,32 30,32 C30.552,32 31,31.552 31,31 C31,30.448 30.552,30 30,30 C29.448,30 29,30.448 29,31" id="Fill-122" fill="#2C2F38" sketch:type="MSShapeGroup"></path>
            <path d="M19,31 C19,31.552 19.448,32 20,32 C20.552,32 21,31.552 21,31 C21,30.448 20.552,30 20,30 C19.448,30 19,30.448 19,31" id="Fill-123" fill="#2C2F38" sketch:type="MSShapeGroup"></path>
            <path d="M33,8 C33,10.209 29.418,12 25,12 C20.582,12 17,10.209 17,8 C17,5.791 20.582,4 25,4 C29.418,4 33,5.791 33,8" id="Fill-124" fill="#FFFFFF" sketch:type="MSShapeGroup"></path>
            <path d="M28.969,5.844 C28.96,5.791 28.967,5.737 28.949,5.684 C28.944,5.671 28.934,5.662 28.929,5.649 C28.904,5.583 28.864,5.528 28.826,5.47 C28.793,5.417 28.766,5.362 28.724,5.318 C28.683,5.275 28.633,5.246 28.586,5.211 C28.53,5.169 28.477,5.125 28.414,5.095 C28.366,5.073 28.313,5.067 28.261,5.053 C28.187,5.032 28.115,5.01 28.036,5.007 C28.023,5.007 28.013,5 28,5 C27.946,5 27.899,5.023 27.848,5.031 C27.793,5.039 27.738,5.033 27.684,5.051 L25,5.946 L22.316,5.051 C22.262,5.033 22.207,5.039 22.152,5.031 C22.1,5.023 22.054,5 22,5 C21.987,5 21.977,5.007 21.964,5.007 C21.886,5.01 21.815,5.032 21.741,5.052 C21.688,5.067 21.634,5.073 21.585,5.096 C21.524,5.124 21.474,5.168 21.419,5.208 C21.37,5.244 21.317,5.274 21.276,5.318 C21.235,5.362 21.208,5.416 21.176,5.467 C21.137,5.527 21.096,5.582 21.071,5.65 C21.066,5.662 21.056,5.671 21.051,5.684 C21.033,5.737 21.04,5.791 21.031,5.844 C21.023,5.897 21,5.945 21,6 L21,10 C21,10.552 21.448,11 22,11 C22.552,11 23,10.552 23,10 L23,7.388 L24.684,7.949 C24.685,7.949 24.687,7.949 24.689,7.95 C24.788,7.982 24.893,8 25,8 C25.107,8 25.212,7.982 25.311,7.95 C25.313,7.949 25.315,7.949 25.316,7.949 L27,7.388 L27,10 C27,10.552 27.448,11 28,11 C28.552,11 29,10.552 29,10 L29,6 C29,5.945 28.977,5.897 28.969,5.844" id="Fill-136" fill="#C03A2B" sketch:type="MSShapeGroup"></path>
            <path d="M25.999,25.185 C25.853,25.185 25.705,25.153 25.564,25.085 C25.067,24.844 24.859,24.246 25.1,23.749 C27.122,19.573 32.164,17.821 36.341,19.844 C36.838,20.085 37.045,20.683 36.805,21.18 C36.565,21.677 35.966,21.886 35.469,21.644 C32.286,20.103 28.441,21.438 26.9,24.621 C26.727,24.978 26.371,25.185 25.999,25.185" id="Fill-157" fill="#2C2F38" sketch:type="MSShapeGroup"></path>
        </g>
    </g>
</svg>