<?xml version="1.0" encoding="UTF-8" standalone="no"?>
<svg width="42px" height="57px" viewBox="0 0 42 57" version="1.1" xmlns="http://www.w3.org/2000/svg" xmlns:xlink="http://www.w3.org/1999/xlink" xmlns:sketch="http://www.bohemiancoding.com/sketch/ns">
    <!-- Generator: Sketch 3.2.2 (9983) - http://www.bohemiancoding.com/sketch -->
    <title>6 - Matilda (Flat)</title>
    <desc>Created with Sketch.</desc>
    <defs></defs>
    <g id="Page-1" stroke="none" stroke-width="1" fill="none" fill-rule="evenodd" sketch:type="MSPage">
        <g id="6---Matilda-(Flat)" sketch:type="MSLayerGroup">
            <path d="M24,14.86 L19,14.86 L19,2.052 C19,1.394 19.534,0.86 20.193,0.86 L22.807,0.86 C23.466,0.86 24,1.394 24,2.052 L24,14.86" id="Fill-14" fill="#2C2F38" sketch:type="MSShapeGroup"></path>
            <path d="M19,14.86 L19,11.324 L15.573,6.095 C15.226,5.565 14.527,5.399 13.979,5.715 L11.702,7.03 C11.115,7.369 10.928,8.129 11.292,8.702 L15.926,16 C17.551,15.257 19,14.86 19,14.86" id="Fill-15" fill="#2C2F38" sketch:type="MSShapeGroup"></path>
            <path d="M24,14.719 L24,11.183 L27.427,5.954 C27.774,5.425 28.473,5.259 29.021,5.575 L31.298,6.89 C31.885,7.229 32.072,7.989 31.708,8.562 L27.074,15.86 C25.449,15.116 24,14.719 24,14.719" id="Fill-16" fill="#2C2F38" sketch:type="MSShapeGroup"></path>
            <path d="M40.599,30.328 C37.585,21.914 31.633,17.132 27.084,14.578 C23.339,12.475 18.758,12.475 15.014,14.578 C10.465,17.132 4.512,21.914 1.499,30.328 C-0.048,34.645 -0.404,39.346 0.884,43.747 C2.601,49.611 7.486,56.708 21.049,57 C34.611,56.708 39.497,49.611 41.213,43.747 C42.502,39.346 42.145,34.645 40.599,30.328" id="Fill-376" fill="#ECF0F1" sketch:type="MSShapeGroup"></path>
            <path d="M1.001,20 C0.644,20 0.299,19.81 0.119,19.473 C-0.142,18.986 0.041,18.38 0.527,18.119 C9.473,13.315 15.386,18.023 15.634,18.227 C16.061,18.577 16.123,19.207 15.773,19.634 C15.424,20.06 14.796,20.122 14.369,19.776 C14.157,19.606 9.192,15.738 1.473,19.881 C1.323,19.962 1.161,20 1.001,20" id="Fill-377" fill="#2C2F38" sketch:type="MSShapeGroup"></path>
            <path d="M14,25.5 C14,27.985 11.985,30 9.5,30 C7.015,30 5,27.985 5,25.5 C5,23.015 7.015,21 9.5,21 C11.985,21 14,23.015 14,25.5" id="Fill-378" fill="#FFFFFF" sketch:type="MSShapeGroup"></path>
            <path d="M40.999,20 C40.84,20 40.678,19.962 40.527,19.881 C32.805,15.735 27.838,19.609 27.63,19.776 C27.202,20.12 26.573,20.057 26.226,19.629 C25.878,19.201 25.94,18.575 26.366,18.227 C26.613,18.023 32.528,13.315 41.473,18.119 C41.96,18.38 42.143,18.986 41.881,19.473 C41.7,19.81 41.356,20 40.999,20" id="Fill-379" fill="#2C2F38" sketch:type="MSShapeGroup"></path>
            <path d="M28,25.5 C28,27.985 30.015,30 32.5,30 C34.985,30 37,27.985 37,25.5 C37,23.015 34.985,21 32.5,21 C30.015,21 28,23.015 28,25.5" id="Fill-380" fill="#FFFFFF" sketch:type="MSShapeGroup"></path>
            <path d="M30,36 C30,30.813 26.99,27.278 24.451,25.218 C22.429,23.578 19.571,23.578 17.549,25.218 C15.01,27.278 12,30.813 12,36 C12,36 11.5,43 15,43 L27,43 C30.5,43 30,36 30,36" id="Fill-381" fill="#F0C419" sketch:type="MSShapeGroup"></path>
            <path d="M12,26 C12,26.552 11.552,27 11,27 C10.448,27 10,26.552 10,26 C10,25.448 10.448,25 11,25 C11.552,25 12,25.448 12,26" id="Fill-382" fill="#2C2F38" sketch:type="MSShapeGroup"></path>
            <path d="M32,26 C32,26.552 31.552,27 31,27 C30.448,27 30,26.552 30,26 C30,25.448 30.448,25 31,25 C31.552,25 32,25.448 32,26" id="Fill-383" fill="#2C2F38" sketch:type="MSShapeGroup"></path>
            <path d="M21,46 C14.558,46 8.8,47.935 4.944,50.974 C8.032,54.256 13.007,56.827 21.049,57 C29.055,56.828 34.022,54.278 37.114,51.016 C33.258,47.952 27.473,46 21,46" id="Fill-384" fill="#DCDCC8" sketch:type="MSShapeGroup"></path>
            <path d="M9.5,30 C7.015,30 5,27.985 5,25.5 C5,24.58 5.279,23.725 5.753,23.013 C5.625,23.018 5.497,23.021 5.371,23.032 C3.86,25.092 2.511,27.5 1.499,30.328 C1.038,31.613 0.698,32.934 0.461,34.269 C1.741,35.927 3.743,37 6,37 C9.866,37 13,33.866 13,30 C13,29.484 12.94,28.982 12.834,28.498 C12.01,29.413 10.829,30 9.5,30" id="Fill-385" fill="#F9EEAD" sketch:type="MSShapeGroup"></path>
            <path d="M32.5,30 C34.985,30 37,27.985 37,25.5 C37,24.58 36.721,23.725 36.247,23.013 C36.375,23.018 36.503,23.021 36.629,23.032 C38.14,25.092 39.489,27.5 40.501,30.328 C40.961,31.613 41.302,32.934 41.539,34.269 C40.259,35.927 38.257,37 36,37 C32.134,37 29,33.866 29,30 C29,29.484 29.06,28.982 29.166,28.498 C29.99,29.413 31.171,30 32.5,30" id="Fill-386" fill="#F9EEAD" sketch:type="MSShapeGroup"></path>
            <path d="M29.428,40.932 C28.385,37.937 26.001,35 23,35 L19,35 C15.999,35 13.615,37.937 12.572,40.932 C12.891,41.785 13.383,42.488 14.119,42.806 C14.638,40.044 16.797,37 19,37 L23,37 C25.203,37 27.362,40.044 27.881,42.806 C28.617,42.488 29.108,41.785 29.428,40.932" id="Fill-505" fill="#2C2F38" sketch:type="MSShapeGroup"></path>
        </g>
    </g>
</svg>