<?xml version="1.0" encoding="UTF-8" standalone="no"?>
<svg width="50px" height="51px" viewBox="0 0 50 51" version="1.1" xmlns="http://www.w3.org/2000/svg" xmlns:xlink="http://www.w3.org/1999/xlink" xmlns:sketch="http://www.bohemiancoding.com/sketch/ns">
    <!-- Generator: Sketch 3.2.2 (9983) - http://www.bohemiancoding.com/sketch -->
    <title>45 - Megaman (Flat)</title>
    <desc>Created with Sketch.</desc>
    <defs></defs>
    <g id="Page-1" stroke="none" stroke-width="1" fill="none" fill-rule="evenodd" sketch:type="MSPage">
        <g id="45---Megaman-(Flat)" sketch:type="MSLayerGroup">
            <path d="M47.264,25.294 L44.701,23.741 L44.167,25.698 C44.131,31.287 42.623,36.447 40.09,40.63 L39.171,44 L42.168,43.965 C44.703,43.935 46.911,42.228 47.578,39.782 L49.799,31.646 C50.467,29.2 49.432,26.608 47.264,25.294" id="Fill-175" fill="#4882C5" sketch:type="MSShapeGroup"></path>
            <path d="M5.351,25.5 C5.351,24.922 5.372,24.35 5.403,23.782 L2.906,25.294 C0.738,26.608 -0.296,29.2 0.371,31.646 L2.593,39.782 C3.26,42.228 5.468,43.935 8.003,43.965 L11,44 L10.535,42.297 C7.31,37.81 5.351,31.936 5.351,25.5" id="Fill-176" fill="#4882C5" sketch:type="MSShapeGroup"></path>
            <path d="M45.357,19.206 C45.179,18.949 45.004,18.747 44.842,18.589 C44.46,18.217 43.948,18.009 43.414,17.999 C37.82,17.892 27.117,29.622 25.274,31.69 C25.125,31.857 24.875,31.857 24.726,31.69 C22.883,29.622 12.18,17.892 6.586,17.999 C6.052,18.009 5.54,18.217 5.158,18.589 C5.074,18.67 4.986,18.768 4.897,18.874 C4.432,20.988 4.18,23.208 4.18,25.5 C4.18,38.512 12.173,49.24 22.498,50.798 C22.711,50.827 22.92,50.863 23.138,50.886 C23.235,50.897 23.332,50.903 23.429,50.913 C23.905,50.955 24.39,50.983 24.888,50.994 C24.939,50.994 24.99,50.998 25.041,50.999 C25.489,50.998 25.918,50.974 26.348,50.95 C37.31,50.156 46,39.068 46,25.5 C46,23.328 45.776,21.22 45.357,19.206" id="Fill-177" fill="#FDD7AD" sketch:type="MSShapeGroup"></path>
            <path d="M14.5,25 C12.725,25 11.19,26.371 10.457,28.361 C10.005,29.592 9.988,30.941 10.245,32.226 L10.71,36.551 C10.879,37.394 11.618,38 12.477,38 L17.198,38 C18.193,38 19,37.193 19,36.198 L19,32 C19,28.686 16.985,25 14.5,25" id="Fill-178" fill="#FFFFFF" sketch:type="MSShapeGroup"></path>
            <path d="M35.578,25 C37.353,25 38.888,26.371 39.621,28.361 C40.073,29.592 40.09,30.941 39.833,32.226 L39.383,36.567 C39.215,37.409 38.476,38.016 37.616,38.016 L32.896,38.016 C31.901,38.016 31.094,37.209 31.094,36.214 L31,32 C31,28.686 33.093,25 35.578,25" id="Fill-179" fill="#FFFFFF" sketch:type="MSShapeGroup"></path>
            <path d="M18,32.5 C18,34.985 16.881,37 15.5,37 C14.119,37 13,34.985 13,32.5 C13,30.015 14.119,28 15.5,28 C16.881,28 18,30.015 18,32.5" id="Fill-180" fill="#2383BC" sketch:type="MSShapeGroup"></path>
            <path d="M37,32.5 C37,34.985 35.881,37 34.5,37 C33.119,37 32,34.985 32,32.5 C32,30.015 33.119,28 34.5,28 C35.881,28 37,30.015 37,32.5" id="Fill-181" fill="#2383BC" sketch:type="MSShapeGroup"></path>
            <path d="M30,46 L20,46 C19.447,46 19,45.552 19,45 C19,44.448 19.447,44 20,44 L30,44 C30.553,44 31,44.448 31,45 C31,45.552 30.553,46 30,46" id="Fill-182" fill="#A17E5D" sketch:type="MSShapeGroup"></path>
            <path d="M25,42 C24.744,42 24.488,41.902 24.293,41.707 L22.293,39.707 C21.902,39.316 21.902,38.684 22.293,38.293 C22.684,37.902 23.316,37.902 23.707,38.293 L25,39.586 L26.293,38.293 C26.684,37.902 27.316,37.902 27.707,38.293 C28.098,38.684 28.098,39.316 27.707,39.707 L25.707,41.707 C25.512,41.902 25.256,42 25,42" id="Fill-183" fill="#CEAD8D" sketch:type="MSShapeGroup"></path>
            <path d="M4.897,18.874 C4.986,18.768 5.074,18.67 5.158,18.589 C5.54,18.217 6.052,18.009 6.586,17.999 C12.18,17.892 22.883,29.622 24.726,31.69 C24.875,31.857 25.125,31.857 25.274,31.69 C27.117,29.622 37.82,17.892 43.414,17.999 C43.948,18.009 44.46,18.217 44.842,18.589 C45.004,18.747 45.179,18.949 45.357,19.206 C43.058,8.167 34.857,0 25.09,0 C14.519,0 5.785,9.568 4.382,21.989 C4.503,20.929 4.674,19.889 4.897,18.874" id="Fill-483" fill="#4882C5" sketch:type="MSShapeGroup"></path>
            <path d="M29,19.963 L21,19.963 L20,10.963 C23.21,9.679 26.79,9.679 30,10.963 L29,19.963" id="Fill-484" fill="#7FD0E0" sketch:type="MSShapeGroup"></path>
            <path d="M20.436,0.642 L20,5 C23.21,6.284 26.79,6.284 30,5 L29.559,0.59 C28.118,0.207 26.625,0 25.09,0 C23.489,0 21.933,0.227 20.436,0.642" id="Fill-485" fill="#7FD0E0" sketch:type="MSShapeGroup"></path>
            <path d="M15,30 C15,31.105 14.328,32 13.5,32 C12.672,32 12,31.105 12,30 C12,28.895 12.672,28 13.5,28 C14.328,28 15,28.895 15,30" id="Fill-537" fill="#FFFFFF" sketch:type="MSShapeGroup"></path>
            <path d="M36,29 C36,30.105 35.328,31 34.5,31 C33.672,31 33,30.105 33,29 C33,27.895 33.672,27 34.5,27 C35.328,27 36,27.895 36,29" id="Fill-538" fill="#FFFFFF" sketch:type="MSShapeGroup"></path>
        </g>
    </g>
</svg>