<?xml version="1.0" encoding="UTF-8" standalone="no"?>
<svg width="48px" height="43px" viewBox="0 0 48 43" version="1.1" xmlns="http://www.w3.org/2000/svg" xmlns:xlink="http://www.w3.org/1999/xlink" xmlns:sketch="http://www.bohemiancoding.com/sketch/ns">
    <!-- Generator: Sketch 3.2.2 (9983) - http://www.bohemiancoding.com/sketch -->
    <title>44 - Metroid Symbiote (Flat)</title>
    <desc>Created with Sketch.</desc>
    <defs></defs>
    <g id="Page-1" stroke="none" stroke-width="1" fill="none" fill-rule="evenodd" sketch:type="MSPage">
        <g id="44---Metroid-Symbiote-(Flat)" sketch:type="MSLayerGroup">
            <path d="M24,0 C12.126,0 0,15.25 0,28.437 C0,29.808 1.027,31 2.397,31 L5.062,31 C5.134,30.621 5.22,30.24 5.338,29.855 C5.755,28.509 6.8,27.386 8.176,27.08 C9.216,26.849 10.411,27.049 11.233,28.614 C11.621,29.354 11.684,30.224 11.444,31 L36.556,31 C36.315,30.224 36.379,29.354 36.767,28.614 C37.589,27.049 38.784,26.849 39.824,27.08 C41.2,27.386 42.245,28.509 42.662,29.855 C42.78,30.24 42.866,30.621 42.938,31 L45.735,31 C47.06,31 48,29.875 48,28.549 C48,16.167 35.909,0 24,0" id="Fill-47" fill="#40C7A9" sketch:type="MSShapeGroup"></path>
            <path d="M14.229,28 C14.135,27.733 14.021,27.472 13.889,27.22 C12.815,25.174 10.986,24 8.87,24 C8.43,24 7.977,24.051 7.524,24.151 C5.606,24.578 3.968,25.878 3.016,27.665 C3.482,15.971 14.399,3 24,3 C33.852,3 44.387,17.161 44.975,27.645 C44.021,25.869 42.388,24.576 40.475,24.151 C40.023,24.051 39.57,24 39.13,24 C37.014,24 35.185,25.174 34.111,27.221 C33.979,27.472 33.865,27.733 33.771,28 L14.229,28" id="Fill-48" fill="#C1F4E8" sketch:type="MSShapeGroup"></path>
            <path d="M9,43 C9,43 3.202,36.769 5.339,29.855 C5.755,28.509 6.8,27.386 8.176,27.08 C9.216,26.849 10.411,27.049 11.233,28.614 C11.848,29.786 11.652,31.283 10.716,32.219 C8.676,34.259 9,38 9,43" id="Fill-184" fill="#211F02" sketch:type="MSShapeGroup"></path>
            <path d="M21,31 C18.156,32.781 18,41 18,41 C13.687,36.75 15,31 15,31 L21,31" id="Fill-185" fill="#211F02" sketch:type="MSShapeGroup"></path>
            <path d="M39,43 C39,43 44.798,36.769 42.661,29.855 C42.245,28.509 41.2,27.386 39.824,27.08 C38.784,26.849 37.589,27.049 36.767,28.614 C36.152,29.786 36.348,31.283 37.284,32.219 C39.324,34.259 39,38 39,43" id="Fill-186" fill="#211F02" sketch:type="MSShapeGroup"></path>
            <path d="M27,31 C29.844,32.781 30,41 30,41 C34.312,36.75 33,31 33,31 L27,31" id="Fill-187" fill="#211F02" sketch:type="MSShapeGroup"></path>
            <path d="M29,9.5 C29,12.538 26.761,15 24,15 C21.239,15 19,12.538 19,9.5 C19,6.462 21.239,4 24,4 C26.761,4 29,6.462 29,9.5" id="Fill-188" fill="#E64C3C" sketch:type="MSShapeGroup"></path>
            <path d="M36,21.5 C36,24.538 33.761,27 31,27 C28.239,27 26,24.538 26,21.5 C26,18.462 28.239,16 31,16 C33.761,16 36,18.462 36,21.5" id="Fill-189" fill="#E64C3C" sketch:type="MSShapeGroup"></path>
            <path d="M22,21.5 C22,24.538 19.761,27 17,27 C14.239,27 12,24.538 12,21.5 C12,18.462 14.239,16 17,16 C19.761,16 22,18.462 22,21.5" id="Fill-190" fill="#E64C3C" sketch:type="MSShapeGroup"></path>
            <path d="M28.993,9.345 C28.994,9.397 29,9.448 29,9.5 C29,12.538 26.761,15 24,15 C21.239,15 19,12.538 19,9.5 C19,9.448 19.006,9.397 19.007,9.345 C16.592,10.78 15,13.224 15,16 C15,16.151 15.016,16.298 15.025,16.447 C15.631,16.16 16.298,16 17,16 C19.761,16 22,18.462 22,21.5 C22,22.283 21.849,23.025 21.581,23.699 C22.352,23.89 23.161,24 24,24 C24.839,24 25.648,23.89 26.419,23.699 C26.151,23.025 26,22.283 26,21.5 C26,18.462 28.239,16 31,16 C31.701,16 32.369,16.16 32.975,16.447 C32.984,16.298 33,16.151 33,16 C33,13.224 31.408,10.78 28.993,9.345" id="Fill-191" fill="#C03A2B" sketch:type="MSShapeGroup"></path>
        </g>
    </g>
</svg>