<?xml version="1.0" encoding="UTF-8" standalone="no"?>
<svg width="54px" height="54px" viewBox="0 0 54 54" version="1.1" xmlns="http://www.w3.org/2000/svg" xmlns:xlink="http://www.w3.org/1999/xlink" xmlns:sketch="http://www.bohemiancoding.com/sketch/ns">
    <!-- Generator: Sketch 3.2.2 (9983) - http://www.bohemiancoding.com/sketch -->
    <title>56 - Minecraft Zombie (Flat)</title>
    <desc>Created with Sketch.</desc>
    <defs></defs>
    <g id="Page-1" stroke="none" stroke-width="1" fill="none" fill-rule="evenodd" sketch:type="MSPage">
        <g id="56---Minecraft-Zombie-(Flat)" sketch:type="MSLayerGroup">
            <path d="M0,0 L54,0 L54,54 L0,54 L0,0 Z" id="Fill-59" fill="#83A46E" sketch:type="MSShapeGroup"></path>
            <path d="M18,38 L36,38 L36,42 L18,42 L18,38 Z" id="Fill-60" fill="#4C8056" sketch:type="MSShapeGroup"></path>
            <path d="M40,0 L0,0 L0,14 L6,14 L6,8 L23,8 L23,5 L40,5 L40,10 L54,10 L54,0 L40,0" id="Fill-61" fill="#4B783F" sketch:type="MSShapeGroup"></path>
            <path d="M49,42 L49,46 L11,46 L11,42 L0,42 L0,54 L54,54 L54,42 L49,42" id="Fill-62" fill="#476F37" sketch:type="MSShapeGroup"></path>
            <path d="M7,18 L25,18 L25,26 L7,26 L7,18 Z" id="Fill-523" fill="#222222" sketch:type="MSShapeGroup"></path>
            <path d="M30,18 L48,18 L48,26 L30,26 L30,18 Z" id="Fill-524" fill="#222222" sketch:type="MSShapeGroup"></path>
        </g>
    </g>
</svg>