<?xml version="1.0" encoding="UTF-8" standalone="no"?>
<svg width="59px" height="52px" viewBox="0 0 59 52" version="1.1" xmlns="http://www.w3.org/2000/svg" xmlns:xlink="http://www.w3.org/1999/xlink" xmlns:sketch="http://www.bohemiancoding.com/sketch/ns">
    <!-- Generator: Sketch 3.2.2 (9983) - http://www.bohemiancoding.com/sketch -->
    <title>57 - Minecraft Axe (Flat)</title>
    <desc>Created with Sketch.</desc>
    <defs></defs>
    <g id="Page-1" stroke="none" stroke-width="1" fill="none" fill-rule="evenodd" sketch:type="MSPage">
        <g id="57---Minecraft-Axe-(Flat)" sketch:type="MSLayerGroup">
            <path d="M3,52 C2.232,52 1.464,51.707 0.879,51.121 C-0.293,49.95 -0.293,48.05 0.879,46.879 L46.879,0.879 C47.464,0.293 48.232,0 49,0 C49.768,0 50.536,0.293 51.121,0.879 C52.293,2.05 52.293,3.95 51.121,5.121 L5.121,51.121 C4.536,51.707 3.768,52 3,52" id="Fill-158" fill="#715C3A" sketch:type="MSShapeGroup"></path>
            <path d="M56.898,13.485 L44.779,11.464 L34.622,21.62 C35.062,21.515 35.525,21.358 36.003,21.154 L36.013,34.217 C36.346,35.912 38.225,36.305 39.332,35.198 L57.535,16.995 C58.606,15.924 58.277,14.112 56.898,13.485" id="Fill-159" fill="#A5A5A4" sketch:type="MSShapeGroup"></path>
            <path d="M24.375,12.613 L31.946,15.551 C31.849,15.727 31.77,15.899 31.685,16.072 L39.104,8.654 L35.614,1.374 C34.98,0.378 33.586,0.225 32.752,1.06 L24.06,9.751 C23.225,10.586 23.379,11.979 24.375,12.613" id="Fill-160" fill="#A5A5A4" sketch:type="MSShapeGroup"></path>
        </g>
    </g>
</svg>