<?xml version="1.0" encoding="UTF-8" standalone="no"?>
<svg width="52px" height="52px" viewBox="0 0 52 52" version="1.1" xmlns="http://www.w3.org/2000/svg" xmlns:xlink="http://www.w3.org/1999/xlink" xmlns:sketch="http://www.bohemiancoding.com/sketch/ns">
    <!-- Generator: Sketch 3.2.2 (9983) - http://www.bohemiancoding.com/sketch -->
    <title>49 - Pacman (Flat)</title>
    <desc>Created with Sketch.</desc>
    <defs></defs>
    <g id="Page-1" stroke="none" stroke-width="1" fill="none" fill-rule="evenodd" sketch:type="MSPage">
        <g id="49---Pacman-(Flat)" sketch:type="MSLayerGroup">
            <path d="M41,27 L38,27 C37.448,27 37,26.552 37,26 C37,25.448 37.448,25 38,25 L41,25 C41.552,25 42,25.448 42,26 C42,26.552 41.552,27 41,27" id="Fill-72" fill="#FBD490" sketch:type="MSShapeGroup"></path>
            <path d="M51,27 L49,27 C48.448,27 48,26.552 48,26 C48,25.448 48.448,25 49,25 L51,25 C51.552,25 52,25.448 52,26 C52,26.552 51.552,27 51,27" id="Fill-73" fill="#FBD490" sketch:type="MSShapeGroup"></path>
            <path d="M44.385,44.385 C34.231,54.538 17.769,54.538 7.615,44.385 C-2.538,34.231 -2.538,17.769 7.615,7.615 C17.769,-2.538 34.231,-2.538 44.385,7.615 L26,26 L44.385,44.385" id="Fill-74" fill="#F0C419" sketch:type="MSShapeGroup"></path>
            <path d="M26,12 C26,13.657 24.657,15 23,15 C21.343,15 20,13.657 20,12 C20,10.343 21.343,9 23,9 C24.657,9 26,10.343 26,12" id="Fill-75" fill="#556080" sketch:type="MSShapeGroup"></path>
        </g>
    </g>
</svg>