<?xml version="1.0" encoding="UTF-8" standalone="no"?>
<svg width="30px" height="58px" viewBox="0 0 30 58" version="1.1" xmlns="http://www.w3.org/2000/svg" xmlns:xlink="http://www.w3.org/1999/xlink" xmlns:sketch="http://www.bohemiancoding.com/sketch/ns">
    <!-- Generator: Sketch 3.2.2 (9983) - http://www.bohemiancoding.com/sketch -->
    <title>26 - Pawn (Flat)</title>
    <desc>Created with Sketch.</desc>
    <defs></defs>
    <g id="Page-1" stroke="none" stroke-width="1" fill="none" fill-rule="evenodd" sketch:type="MSPage">
        <g id="26---Pawn-(Flat)" sketch:type="MSLayerGroup">
            <path d="M24,9 C24,13.971 19.971,18 15,18 C10.029,18 6,13.971 6,9 C6,4.029 10.029,0 15,0 C19.971,0 24,4.029 24,9" id="Fill-43" fill="#E5B55B" sketch:type="MSShapeGroup"></path>
            <path d="M24.001,47 L6,47 L8,29 L22.001,29 L24.001,47" id="Fill-244" fill="#E5B55B" sketch:type="MSShapeGroup"></path>
            <path d="M0,53 L30,53 L30,58 L0,58 L0,53 Z" id="Fill-245" fill="#BA8100" sketch:type="MSShapeGroup"></path>
            <path d="M28,53 L2,53 L2,50.157 C2,48.413 3.413,47 5.157,47 L24.843,47 C26.587,47 28,48.413 28,50.157 L28,53" id="Fill-246" fill="#D9A72E" sketch:type="MSShapeGroup"></path>
            <path d="M11,9 C10.448,9 10,8.553 10,8 C10,5.794 11.794,4 14,4 C14.552,4 15,4.447 15,5 C15,5.553 14.552,6 14,6 C12.897,6 12,6.898 12,8 C12,8.553 11.552,9 11,9" id="Fill-253" fill="#F9C97D" sketch:type="MSShapeGroup"></path>
            <path id="Fill-254" fill="#FFFFFF" sketch:type="MSShapeGroup"></path>
            <path id="Stroke-255" stroke="#0096E6" stroke-width="2" stroke-linecap="round" sketch:type="MSShapeGroup"></path>
            <path d="M6.555,42 L23.445,42 L22.889,37 L7.111,37 L6.555,42" id="Fill-260" fill="#BE8400" sketch:type="MSShapeGroup"></path>
            <path d="M24.5,29 L5.5,29 C3.575,29 2,27.425 2,25.5 C2,23.575 3.575,22 5.5,22 L24.5,22 C26.425,22 28,23.575 28,25.5 C28,27.425 26.425,29 24.5,29" id="Fill-327" fill="#BE8400" sketch:type="MSShapeGroup"></path>
            <path d="M15,18 C13.561,18 12.206,17.654 11,17.053 L11,22 L19,22 L19,17.053 C17.794,17.654 16.439,18 15,18" id="Fill-328" fill="#D9A72E" sketch:type="MSShapeGroup"></path>
        </g>
    </g>
</svg>