<?xml version="1.0" encoding="UTF-8" standalone="no"?>
<svg width="58px" height="58px" viewBox="0 0 58 58" version="1.1" xmlns="http://www.w3.org/2000/svg" xmlns:xlink="http://www.w3.org/1999/xlink" xmlns:sketch="http://www.bohemiancoding.com/sketch/ns">
    <!-- Generator: Sketch 3.2.2 (9983) - http://www.bohemiancoding.com/sketch -->
    <title>2 - Pig (Flat)</title>
    <desc>Created with Sketch.</desc>
    <defs></defs>
    <g id="Page-1" stroke="none" stroke-width="1" fill="none" fill-rule="evenodd" sketch:type="MSPage">
        <g id="2---Pig-(Flat)" sketch:type="MSLayerGroup">
            <path d="M58,29 C58,45.016 45.016,58 29,58 C12.984,58 0,45.016 0,29 C0,12.984 12.984,0 29,0 C45.016,0 58,12.984 58,29" id="Fill-38" fill="#7DB94C" sketch:type="MSShapeGroup"></path>
            <path d="M29.001,36.012 C36.834,35.399 37.109,27.771 36.984,25.005 C36.952,24.299 36.822,23.595 36.537,22.948 C34.614,18.579 29.001,19.012 29.001,19.012 C29.001,19.012 24.048,18.82 21.85,22.29 C21.285,23.181 21.036,24.235 21.007,25.291 C20.925,28.261 21.423,35.419 29.001,36.012" id="Fill-417" fill="#ACEB00" sketch:type="MSShapeGroup"></path>
            <path d="M45,38 C44.448,38 44,38.448 44,39 C44,39.552 44.448,40 45,40 C45.552,40 46,39.552 46,39 C46,38.448 45.552,38 45,38" id="Fill-418" fill="#2C2F38" sketch:type="MSShapeGroup"></path>
            <path d="M48,38 C48.552,38 49,37.552 49,37 C49,36.448 48.552,36 48,36 C47.448,36 47,36.448 47,37 C47,37.552 47.448,38 48,38" id="Fill-419" fill="#2C2F38" sketch:type="MSShapeGroup"></path>
            <path d="M48,40 C47.448,40 47,40.448 47,41 C47,41.552 47.448,42 48,42 C48.552,42 49,41.552 49,41 C49,40.448 48.552,40 48,40" id="Fill-420" fill="#2C2F38" sketch:type="MSShapeGroup"></path>
            <path d="M13,38 C12.448,38 12,38.448 12,39 C12,39.552 12.448,40 13,40 C13.552,40 14,39.552 14,39 C14,38.448 13.552,38 13,38" id="Fill-421" fill="#2C2F38" sketch:type="MSShapeGroup"></path>
            <path d="M10,36 C9.448,36 9,36.448 9,37 C9,37.552 9.448,38 10,38 C10.552,38 11,37.552 11,37 C11,36.448 10.552,36 10,36" id="Fill-422" fill="#2C2F38" sketch:type="MSShapeGroup"></path>
            <path d="M10,40 C9.448,40 9,40.448 9,41 C9,41.552 9.448,42 10,42 C10.552,42 11,41.552 11,41 C11,40.448 10.552,40 10,40" id="Fill-423" fill="#2C2F38" sketch:type="MSShapeGroup"></path>
            <path d="M21.007,25.291 C21.036,24.235 21.285,23.181 21.85,22.29 C21.983,22.079 22.128,21.882 22.281,21.697 C21.022,18.929 18.239,17 15,17 C10.582,17 7,20.582 7,25 C7,29.418 10.582,33 15,33 C17.663,33 20.015,31.694 21.469,29.693 C21.029,28.016 20.977,26.374 21.007,25.291" id="Fill-424" fill="#FFFFFF" sketch:type="MSShapeGroup"></path>
            <path d="M43,17 C39.783,17 37.016,18.904 35.746,21.642 C36.047,22.023 36.318,22.45 36.537,22.948 C36.822,23.595 36.952,24.299 36.984,25.005 C37.032,26.072 37.015,27.864 36.533,29.696 C37.987,31.695 40.339,33 43,33 C47.418,33 51,29.418 51,25 C51,20.582 47.418,17 43,17" id="Fill-425" fill="#FFFFFF" sketch:type="MSShapeGroup"></path>
            <path d="M29.001,36.012 C27.835,35.921 26.854,35.66 26,35.297 L26,41 C26,42.657 27.343,44 29,44 C30.657,44 32,42.657 32,41 L32,35.297 C31.146,35.66 30.166,35.921 29.001,36.012" id="Fill-426" fill="#FFFFFF" sketch:type="MSShapeGroup"></path>
            <path d="M39.598,37.5 L35.726,31.81 C34.97,33.272 33.773,34.57 31.912,35.331 C31.941,35.319 31.972,35.309 32,35.297 L32,36.997 L34.401,40.5 C35.23,41.934 37.065,42.426 38.5,41.597 C39.934,40.769 40.426,38.934 39.598,37.5" id="Fill-427" fill="#FFFFFF" sketch:type="MSShapeGroup"></path>
            <path d="M28,27 C28,28.657 27.105,30 26,30 C24.895,30 24,28.657 24,27 C24,25.343 24.895,24 26,24 C27.105,24 28,25.343 28,27" id="Fill-428" fill="#1A4A13" sketch:type="MSShapeGroup"></path>
            <path d="M34,27 C34,28.657 33.105,30 32,30 C30.895,30 30,28.657 30,27 C30,25.343 30.895,24 32,24 C33.105,24 34,25.343 34,27" id="Fill-429" fill="#1A4A13" sketch:type="MSShapeGroup"></path>
            <path d="M17,25 C17,26.657 15.657,28 14,28 C12.343,28 11,26.657 11,25 C11,23.343 12.343,22 14,22 C15.657,22 17,23.343 17,25" id="Fill-430" fill="#2C2F38" sketch:type="MSShapeGroup"></path>
            <path d="M47,25 C47,26.657 45.657,28 44,28 C42.343,28 41,26.657 41,25 C41,23.343 42.343,22 44,22 C45.657,22 47,23.343 47,25" id="Fill-431" fill="#2C2F38" sketch:type="MSShapeGroup"></path>
            <path d="M22.36,31.965 L18.402,37.5 C17.574,38.934 18.066,40.769 19.5,41.597 C20.935,42.426 22.77,41.934 23.599,40.5 L27.102,35.673 C24.723,35.031 23.253,33.612 22.36,31.965" id="Fill-432" fill="#FFFFFF" sketch:type="MSShapeGroup"></path>
        </g>
    </g>
</svg>