<?xml version="1.0" encoding="UTF-8" standalone="no"?>
<svg width="50px" height="52px" viewBox="0 0 50 52" version="1.1" xmlns="http://www.w3.org/2000/svg" xmlns:xlink="http://www.w3.org/1999/xlink" xmlns:sketch="http://www.bohemiancoding.com/sketch/ns">
    <!-- Generator: Sketch 3.2.2 (9983) - http://www.bohemiancoding.com/sketch -->
    <title>9 - Pigstache (Flat)</title>
    <desc>Created with Sketch.</desc>
    <defs></defs>
    <g id="Page-1" stroke="none" stroke-width="1" fill="none" fill-rule="evenodd" sketch:type="MSPage">
        <g id="9---Pigstache-(Flat)" sketch:type="MSLayerGroup" transform="translate(-1.000000, -1.000000)">
            <path d="M9.003,18.979 C-3.267,16.227 2.132,8.434 2.479,7.98 C2.479,7.98 7.711,1.104 14.003,12.979 L9.003,18.979" id="Fill-7" fill="#6BB550" sketch:type="MSShapeGroup"></path>
            <path d="M41.753,14.401 L42.95,15 C47.735,10.193 47.496,5.832 46.185,3.732 C44.719,1.383 41.737,0.451 39.094,1.28 C36.662,2.043 34.122,4.277 34.877,10.403 C37.408,11.332 39.728,12.697 41.753,14.401" id="Fill-8" fill="#6BB550" sketch:type="MSShapeGroup"></path>
            <path d="M51,30 C51,42.703 40.702,53 28,53 C15.297,53 5,42.703 5,30 C5,17.298 15.297,7 28,7 C40.702,7 51,17.298 51,30" id="Fill-351" fill="#7DB94C" sketch:type="MSShapeGroup"></path>
            <path d="M28.001,38 C35.834,37.387 36.109,29.759 35.984,26.993 C35.952,26.287 35.822,25.583 35.537,24.936 C33.614,20.567 28.001,21 28.001,21 C28.001,21 23.048,20.809 20.85,24.278 C20.285,25.169 20.037,26.224 20.007,27.279 C19.925,30.249 20.423,37.407 28.001,38" id="Fill-352" fill="#A4E869" sketch:type="MSShapeGroup"></path>
            <path d="M20.007,27.279 C20.037,26.224 20.284,25.169 20.85,24.278 C21.17,23.773 21.553,23.353 21.966,22.991 C20.81,21.193 18.796,20 16.5,20 C12.91,20 10,22.91 10,26.5 C10,30.09 12.91,33 16.5,33 C17.993,33 19.363,32.492 20.461,31.646 C20.029,29.981 19.977,28.355 20.007,27.279" id="Fill-353" fill="#FFFFFF" sketch:type="MSShapeGroup"></path>
            <path d="M39.5,20 C37.237,20 35.245,21.158 34.081,22.913 C34.659,23.435 35.167,24.095 35.537,24.936 C35.822,25.583 35.952,26.287 35.984,26.993 C36.032,28.054 36.017,29.829 35.544,31.649 C36.64,32.493 38.009,33 39.5,33 C43.09,33 46,30.09 46,26.5 C46,22.91 43.09,20 39.5,20" id="Fill-354" fill="#FFFFFF" sketch:type="MSShapeGroup"></path>
            <path d="M27,28.5 C27,29.881 26.105,31 25,31 C23.895,31 23,29.881 23,28.5 C23,27.119 23.895,26 25,26 C26.105,26 27,27.119 27,28.5" id="Fill-355" fill="#1A4A13" sketch:type="MSShapeGroup"></path>
            <path d="M33,28.5 C33,29.881 32.105,31 31,31 C29.895,31 29,29.881 29,28.5 C29,27.119 29.895,26 31,26 C32.105,26 33,27.119 33,28.5" id="Fill-356" fill="#1A4A13" sketch:type="MSShapeGroup"></path>
            <path d="M14,25 C14,25.552 13.552,26 13,26 C12.448,26 12,25.552 12,25 C12,24.448 12.448,24 13,24 C13.552,24 14,24.448 14,25" id="Fill-357" fill="#2C2F38" sketch:type="MSShapeGroup"></path>
            <path d="M44,25 C44,25.552 43.552,26 43,26 C42.448,26 42,25.552 42,25 C42,24.448 42.448,24 43,24 C43.552,24 44,24.448 44,25" id="Fill-358" fill="#2C2F38" sketch:type="MSShapeGroup"></path>
            <path d="M22,19 C21.744,19 21.488,18.902 21.293,18.707 C19.235,16.649 15.608,16.608 13.513,17.858 C13.036,18.14 12.425,17.986 12.142,17.513 C11.858,17.039 12.013,16.425 12.487,16.142 C15.217,14.511 19.899,14.486 22.707,17.293 C23.098,17.684 23.098,18.316 22.707,18.707 C22.512,18.902 22.256,19 22,19" id="Fill-359" fill="#587F33" sketch:type="MSShapeGroup"></path>
            <path d="M34,19 C33.744,19 33.488,18.902 33.293,18.707 C32.902,18.316 32.902,17.684 33.293,17.293 C35.85,14.735 40.34,14.229 43.516,16.144 C43.989,16.429 44.142,17.043 43.856,17.516 C43.571,17.988 42.957,18.142 42.484,17.856 C40.404,16.604 36.841,16.573 34.707,18.707 C34.512,18.902 34.256,19 34,19" id="Fill-360" fill="#587F33" sketch:type="MSShapeGroup"></path>
            <path d="M35.063,33.081 C34.062,35.5 32.041,37.684 28.001,38 C23.958,37.684 21.941,35.496 20.941,33.075 C20.347,33.833 14.21,41.758 14.966,44.875 C14.98,44.935 15.056,44.958 15.106,44.92 L18.85,42.113 C18.912,42.066 19,42.111 19,42.188 L19,45.105 C19,45.599 19.401,46 19.895,46 L26,46 L27.957,38.129 L28.043,38.129 L30,46 L36.105,46 C36.599,46 37,45.599 37,45.105 L37,42.188 C37,42.111 37.088,42.066 37.15,42.113 L40.894,44.92 C40.943,44.958 41.02,44.935 41.034,44.875 C41.787,41.769 35.695,33.888 35.063,33.081" id="Fill-361" fill="#E06B22" sketch:type="MSShapeGroup"></path>
        </g>
    </g>
</svg>