<?xml version="1.0" encoding="UTF-8" standalone="no"?>
<svg width="56px" height="56px" viewBox="0 0 56 56" version="1.1" xmlns="http://www.w3.org/2000/svg" xmlns:xlink="http://www.w3.org/1999/xlink" xmlns:sketch="http://www.bohemiancoding.com/sketch/ns">
    <!-- Generator: Sketch 3.2.2 (9983) - http://www.bohemiancoding.com/sketch -->
    <title>21 - Poker Chip (Flat)</title>
    <desc>Created with Sketch.</desc>
    <defs></defs>
    <g id="Page-1" stroke="none" stroke-width="1" fill="none" fill-rule="evenodd" sketch:type="MSPage">
        <g id="21---Poker-Chip-(Flat)" sketch:type="MSLayerGroup">
            <path d="M56,28 C56,43.464 43.464,56 28,56 C12.536,56 0,43.464 0,28 C0,12.536 12.536,0 28,0 C43.464,0 56,12.536 56,28" id="Fill-90" fill="#E64C3C" sketch:type="MSShapeGroup"></path>
            <path d="M28,14 C30.465,14 32.818,14.47 35,15.289 L35,0.882 C32.763,0.306 30.417,0 28,0 C25.583,0 23.237,0.306 21,0.882 L21,15.289 C23.182,14.47 25.535,14 28,14" id="Fill-278" fill="#3D324C" sketch:type="MSShapeGroup"></path>
            <path d="M28,42 C25.535,42 23.182,41.53 21,40.711 L21,55.118 C23.237,55.694 25.583,56 28,56 C30.417,56 32.763,55.694 35,55.118 L35,40.711 C32.818,41.53 30.465,42 28,42" id="Fill-279" fill="#3D324C" sketch:type="MSShapeGroup"></path>
            <path d="M42,28 C42,30.465 41.53,32.818 40.711,35 L55.118,35 C55.694,32.763 56,30.417 56,28 C56,25.583 55.694,23.237 55.118,21 L40.711,21 C41.53,23.183 42,25.535 42,28" id="Fill-280" fill="#3D324C" sketch:type="MSShapeGroup"></path>
            <path d="M14,28 C14,25.535 14.469,23.183 15.289,21 L0.882,21 C0.306,23.237 0,25.583 0,28 C0,30.417 0.306,32.763 0.882,35 L15.289,35 C14.469,32.818 14,30.465 14,28" id="Fill-281" fill="#3D324C" sketch:type="MSShapeGroup"></path>
            <path d="M28,49 C16.42,49 7,39.58 7,28 C7,16.42 16.42,7 28,7 C39.58,7 49,16.42 49,28 C49,39.58 39.58,49 28,49" id="Fill-496" fill="#C03A2B" sketch:type="MSShapeGroup"></path>
            <path d="M31.109,25.011 C31.353,24.494 31.5,23.922 31.5,23.313 C31.5,21.103 29.709,19.313 27.5,19.313 C25.291,19.313 23.5,21.103 23.5,23.313 C23.5,23.922 23.647,24.494 23.891,25.011 C21.734,25.07 20,26.828 20,29 C20,31.209 21.791,33 24,33 C24.968,33 25.843,32.643 26.535,32.071 C26.526,32.867 26.377,34.184 25.559,35.115 C24.896,35.868 23.867,36.25 22.5,36.25 C21.947,36.25 21.5,36.697 21.5,37.25 C21.5,37.803 21.947,38.25 22.5,38.25 C24.475,38.25 26.013,37.636 27.071,36.424 C28.277,35.044 28.516,33.24 28.535,32.129 C29.217,32.666 30.065,33 31,33 C33.209,33 35,31.209 35,29 C35,26.828 33.266,25.07 31.109,25.011" id="Fill-497" fill="#F0C419" sketch:type="MSShapeGroup"></path>
        </g>
    </g>
</svg>