<?xml version="1.0" encoding="UTF-8" standalone="no"?>
<svg width="58px" height="57px" viewBox="0 0 58 57" version="1.1" xmlns="http://www.w3.org/2000/svg" xmlns:xlink="http://www.w3.org/1999/xlink" xmlns:sketch="http://www.bohemiancoding.com/sketch/ns">
    <!-- Generator: Sketch 3.2.2 (9983) - http://www.bohemiancoding.com/sketch -->
    <title>12 - Puzzle (Flat)</title>
    <desc>Created with Sketch.</desc>
    <defs></defs>
    <g id="Page-1" stroke="none" stroke-width="1" fill="none" fill-rule="evenodd" sketch:type="MSPage">
        <g id="12---Puzzle-(Flat)" sketch:type="MSLayerGroup">
            <path d="M25,37 C26.539,37 27.938,37.584 29,38.537 L29,31.239 C29,29.45 27.55,28 25.761,28 L18.314,28 C19.932,26.925 21,25.088 21,23 C21,19.686 18.314,17 15,17 C11.686,17 9,19.686 9,23 C9,25.088 10.068,26.925 11.686,28 L3.238,28 C1.45,28 0,29.45 0,31.239 L0,39.686 C1.075,38.068 2.912,37 5,37 C8.314,37 11,39.686 11,43 C11,46.314 8.314,49 5,49 C2.912,49 1.075,47.932 0,46.314 L0,53.761 C0,55.55 1.45,57 3.238,57 L25.761,57 C27.55,57 29,55.55 29,53.761 L29,47.463 C27.938,48.416 26.539,49 25,49 C21.686,49 19,46.314 19,43 C19,39.686 21.686,37 25,37" id="Fill-348" fill="#E57E25" sketch:type="MSShapeGroup"></path>
            <path d="M26.832,14.385 C28.498,14.874 30.214,14.453 31.451,13.413 C31.348,13.767 31.255,14.081 31.182,14.33 L29.472,20.154 C29.052,21.581 29.869,23.078 31.297,23.497 L37.239,25.243 C35.696,25.721 34.413,26.937 33.924,28.603 C33.147,31.247 34.661,34.02 37.306,34.797 C39.95,35.573 42.723,34.059 43.499,31.415 C43.989,29.749 43.567,28.033 42.528,26.796 L49.268,28.776 C50.696,29.195 52.192,28.378 52.612,26.951 L54.591,20.21 C53.355,21.249 51.638,21.671 49.972,21.181 C47.328,20.405 45.814,17.632 46.591,14.988 C47.367,12.344 50.14,10.83 52.785,11.606 C54.451,12.096 55.666,13.378 56.145,14.921 L57.89,8.979 C58.309,7.552 57.492,6.055 56.065,5.636 L38.093,0.357 C36.666,-0.062 35.169,0.755 34.75,2.182 L33.274,7.208 C33.194,7.479 33.103,7.791 33.005,8.125 C32.526,6.582 31.311,5.299 29.645,4.81 C27,4.033 24.227,5.547 23.451,8.191 C22.674,10.835 24.188,13.608 26.832,14.385" id="Fill-349" fill="#F0C419" sketch:type="MSShapeGroup"></path>
        </g>
    </g>
</svg>