<?xml version="1.0" encoding="UTF-8" standalone="no"?>
<svg width="56px" height="56px" viewBox="0 0 56 56" version="1.1" xmlns="http://www.w3.org/2000/svg" xmlns:xlink="http://www.w3.org/1999/xlink" xmlns:sketch="http://www.bohemiancoding.com/sketch/ns">
    <!-- Generator: Sketch 3.2.2 (9983) - http://www.bohemiancoding.com/sketch -->
    <title>4 - Red (Flat)</title>
    <desc>Created with Sketch.</desc>
    <defs></defs>
    <g id="Page-1" stroke="none" stroke-width="1" fill="none" fill-rule="evenodd" sketch:type="MSPage">
        <g id="4---Red-(Flat)" sketch:type="MSLayerGroup">
            <path d="M9.001,34 C8.707,34 8.417,33.872 8.219,33.625 L4.219,28.625 C3.874,28.193 3.944,27.565 4.375,27.219 C4.808,26.873 5.435,26.943 5.781,27.375 L9.781,32.375 C10.126,32.807 10.056,33.435 9.625,33.781 C9.44,33.929 9.22,34 9.001,34" id="Fill-402" fill="#2C2F38" sketch:type="MSShapeGroup"></path>
            <path d="M9,34 L1,34 C0.447,34 0,33.553 0,33 C0,32.447 0.447,32 1,32 L9,32 C9.553,32 10,32.447 10,33 C10,33.553 9.553,34 9,34" id="Fill-403" fill="#2C2F38" sketch:type="MSShapeGroup"></path>
            <path d="M4.001,38 C3.707,38 3.417,37.872 3.219,37.625 C2.874,37.193 2.944,36.565 3.375,36.219 L8.375,32.219 C8.808,31.873 9.435,31.944 9.781,32.375 C10.126,32.807 10.056,33.435 9.625,33.781 L4.625,37.781 C4.44,37.929 4.22,38 4.001,38" id="Fill-404" fill="#2C2F38" sketch:type="MSShapeGroup"></path>
            <path d="M41.949,13 C41.949,13 41.387,12.877 40.449,12.7 C41.175,10.975 39.18,7.406 35.661,4.327 C31.836,0.98 27.667,-0.514 26.35,0.991 C25.286,2.207 26.41,5.008 28.897,7.804 C27.764,7.509 26.5,7.277 25.154,7.139 C20.097,6.621 15.855,7.593 15.679,9.309 C15.525,10.817 18.562,12.398 22.731,13.11 C21.432,13.737 20.203,14.522 19.091,15.48 C14.625,19.327 8.73,26.349 8.998,36.471 C9.161,42.668 12.544,48.263 17.886,51.406 C20.84,53.144 24.672,54.823 29.257,55.61 C34.873,56.574 40.709,55.802 45.636,52.938 C49.892,50.463 54.392,46.052 55.76,38.256 C55.952,37.159 56.013,36.042 55.997,34.928 C55.922,29.773 54.482,16.533 41.949,13" id="Fill-405" fill="#D81F2A" sketch:type="MSShapeGroup"></path>
            <path d="M37.522,23.333 L27.562,20.553 C26.601,21.593 26,22.972 26,24.5 C26,27.722 28.612,30.333 31.833,30.333 C35.055,30.333 37.667,27.722 37.667,24.5 C37.667,24.082 37.522,23.333 37.522,23.333" id="Fill-406" fill="#FFFFFF" sketch:type="MSShapeGroup"></path>
            <path d="M44.359,20.314 L37.951,22.948 C37.778,23.436 37.667,23.953 37.667,24.5 C37.667,27.077 39.756,29.167 42.333,29.167 C44.911,29.167 47,27.077 47,24.5 C47,22.652 45.917,21.07 44.359,20.314" id="Fill-407" fill="#FFFFFF" sketch:type="MSShapeGroup"></path>
            <path d="M36.828,20.833 C36.722,20.833 36.613,20.816 36.506,20.78 L28.172,17.947 C27.649,17.769 27.369,17.201 27.547,16.678 C27.725,16.156 28.289,15.875 28.816,16.053 L37.15,18.886 C37.673,19.065 37.953,19.632 37.775,20.155 C37.634,20.571 37.245,20.833 36.828,20.833" id="Fill-408" fill="#020103" sketch:type="MSShapeGroup"></path>
            <path d="M40.001,19.667 C39.699,19.667 39.402,19.531 39.205,19.273 C38.87,18.835 38.954,18.207 39.394,17.872 L42.888,15.205 C43.327,14.868 43.954,14.955 44.289,15.394 C44.624,15.832 44.54,16.46 44.101,16.795 L40.606,19.462 C40.426,19.601 40.212,19.667 40.001,19.667" id="Fill-409" fill="#020103" sketch:type="MSShapeGroup"></path>
            <path d="M33.328,25.667 C33.328,26.311 32.805,26.833 32.161,26.833 C31.517,26.833 30.994,26.311 30.994,25.667 C30.994,25.022 31.517,24.5 32.161,24.5 C32.805,24.5 33.328,25.022 33.328,25.667" id="Fill-410" fill="#2C2F38" sketch:type="MSShapeGroup"></path>
            <path d="M43.828,25.667 C43.828,26.311 43.305,26.833 42.661,26.833 C42.017,26.833 41.494,26.311 41.494,25.667 C41.494,25.022 42.017,24.5 42.661,24.5 C43.305,24.5 43.828,25.022 43.828,25.667" id="Fill-411" fill="#2C2F38" sketch:type="MSShapeGroup"></path>
            <path d="M30,35.9 L35.203,41.846 C36.251,43.044 37.994,43.348 39.386,42.575 L46,38.9 L30,35.9" id="Fill-433" fill="#F29C1F" sketch:type="MSShapeGroup"></path>
            <path d="M45.636,52.938 C46.096,52.67 46.559,52.375 47.02,52.061 C44.254,49.051 38.775,46.996 32.449,46.996 C26.424,46.996 21.175,48.862 18.299,51.639 C21.195,53.292 24.878,54.858 29.257,55.61 C34.873,56.574 40.709,55.802 45.636,52.938" id="Fill-434" fill="#E6CEBB" sketch:type="MSShapeGroup"></path>
            <path d="M48.732,41.833 C48.732,41.833 51.649,32.792 38.232,29 C38.232,29 29.482,31.406 28.899,37.167 C28.899,37.167 44.211,37.531 48.732,41.833" id="Fill-498" fill="#FCC628" sketch:type="MSShapeGroup"></path>
        </g>
    </g>
</svg>