<?xml version="1.0" encoding="UTF-8" standalone="no"?>
<svg width="30px" height="53px" viewBox="0 0 30 53" version="1.1" xmlns="http://www.w3.org/2000/svg" xmlns:xlink="http://www.w3.org/1999/xlink" xmlns:sketch="http://www.bohemiancoding.com/sketch/ns">
    <!-- Generator: Sketch 3.2.2 (9983) - http://www.bohemiancoding.com/sketch -->
    <title>29 - Rook (Flat)</title>
    <desc>Created with Sketch.</desc>
    <defs></defs>
    <g id="Page-1" stroke="none" stroke-width="1" fill="none" fill-rule="evenodd" sketch:type="MSPage">
        <g id="29---Rook-(Flat)" sketch:type="MSLayerGroup">
            <path d="M24.001,42 L6,42 L8,20 L22.001,20 L24.001,42" id="Fill-194" fill="#E5B55B" sketch:type="MSShapeGroup"></path>
            <path d="M25,20 L5,20 C3.619,20 2.5,18.881 2.5,17.5 C2.5,16.119 3.619,15 5,15 L25,15 C26.381,15 27.5,16.119 27.5,17.5 C27.5,18.881 26.381,20 25,20" id="Fill-195" fill="#BE8400" sketch:type="MSShapeGroup"></path>
            <path d="M0,48 L30,48 L30,53 L0,53 L0,48 Z" id="Fill-234" fill="#BA8100" sketch:type="MSShapeGroup"></path>
            <path d="M28,48 L2,48 L2,45.157 C2,43.413 3.413,42 5.157,42 L24.843,42 C26.587,42 28,43.413 28,45.157 L28,48" id="Fill-235" fill="#D9A72E" sketch:type="MSShapeGroup"></path>
            <path d="M24,0 L23,5 L18,5 L18,0 L12,0 L12,5 L8,5 L6,0 L2,0 L5,15 L25,15 L28,0 L24,0" id="Fill-251" fill="#E5B55B" sketch:type="MSShapeGroup"></path>
            <path d="M6.454,37 L23.546,37 L23.091,32 L6.909,32 L6.454,37" id="Fill-257" fill="#BE8400" sketch:type="MSShapeGroup"></path>
            <path d="M4.4,12 L25.6,12 L26.4,8 L3.6,8 L4.4,12" id="Fill-540" fill="#F9C97D" sketch:type="MSShapeGroup"></path>
        </g>
    </g>
</svg>