<?xml version="1.0" encoding="UTF-8" standalone="no"?>
<svg width="55px" height="58px" viewBox="0 0 55 58" version="1.1" xmlns="http://www.w3.org/2000/svg" xmlns:xlink="http://www.w3.org/1999/xlink" xmlns:sketch="http://www.bohemiancoding.com/sketch/ns">
    <!-- Generator: Sketch 3.2.2 (9983) - http://www.bohemiancoding.com/sketch -->
    <title>5 - The Blues (Flat)</title>
    <desc>Created with Sketch.</desc>
    <defs></defs>
    <g id="Page-1" stroke="none" stroke-width="1" fill="none" fill-rule="evenodd" sketch:type="MSPage">
        <g id="5---The-Blues-(Flat)" sketch:type="MSLayerGroup" transform="translate(-1.000000, -1.000000)">
            <path d="M41,45.998 L40.994,45.998 L40.988,45.998 L41,45.998" id="Fill-30" fill="#79B8CD" sketch:type="MSShapeGroup"></path>
            <path d="M52.988,35.998 C53.302,28.889 47.509,25.288 45.601,24.296 C46.222,23.211 46.124,21.582 45.233,20.157 C44.063,18.283 41.976,17.475 40.57,18.353 C39.214,19.199 38.964,21.169 40,22.998 C39.928,23.008 38.602,20.808 37.114,20.213 C35.063,19.393 32.901,19.974 32.286,21.513 C31.723,22.92 32.658,24.629 34.39,25.54 C31.966,27.309 28.765,30.671 29,35.998 C29,35.998 29.5,46.151 40.994,45.998 C52.488,46.151 52.988,35.998 52.988,35.998" id="Fill-31" fill="#79B8CD" sketch:type="MSShapeGroup"></path>
            <path d="M13,58.998 L12.994,58.998 L12.988,58.998 L13,58.998" id="Fill-32" fill="#79B8CD" sketch:type="MSShapeGroup"></path>
            <path d="M24.988,48.998 C25.302,41.889 19.509,38.288 17.601,37.296 C18.222,36.211 18.124,34.582 17.233,33.157 C16.063,31.283 13.975,30.475 12.57,31.353 C11.214,32.199 10.964,34.169 12,35.998 C11.928,36.008 10.602,33.808 9.114,33.213 C7.063,32.393 4.901,32.974 4.286,34.513 C3.723,35.92 4.658,37.629 6.389,38.54 C3.966,40.309 0.765,43.671 1,48.998 C1,48.998 1.5,59.151 12.994,58.998 C24.488,59.151 24.988,48.998 24.988,48.998" id="Fill-33" fill="#79B8CD" sketch:type="MSShapeGroup"></path>
            <path d="M14.012,28.998 L14.006,28.998 L14,28.998 L14.012,28.998" id="Fill-34" fill="#79B8CD" sketch:type="MSShapeGroup"></path>
            <path d="M26,18.998 C26.314,11.889 20.522,8.288 18.613,7.296 C19.234,6.211 19.136,4.582 18.246,3.157 C17.076,1.283 14.988,0.475 13.582,1.353 C12.227,2.199 11.976,4.169 13.012,5.998 C12.941,6.008 11.614,3.808 10.126,3.213 C8.075,2.393 5.914,2.974 5.298,4.513 C4.736,5.92 5.671,7.629 7.402,8.54 C4.979,10.309 1.777,13.671 2.012,18.998 C2.012,18.998 2.512,29.151 14.006,28.998 C25.5,29.151 26,18.998 26,18.998" id="Fill-35" fill="#79B8CD" sketch:type="MSShapeGroup"></path>
            <path d="M44,33.998 C44,33.998 37.875,35.873 38,37.998 C38,37.998 41,41.415 44,41.998 C44,41.998 53.381,39.813 55.7,38.237 C55.848,38.136 55.831,37.916 55.669,37.838 C54.023,37.049 46.693,33.63 44,33.998" id="Fill-389" fill="#F29C1F" sketch:type="MSShapeGroup"></path>
            <path d="M43,31.498 C43,33.431 41.433,34.998 39.5,34.998 C37.567,34.998 36,33.431 36,31.498 C36,29.565 37.567,27.998 39.5,27.998 C41.433,27.998 43,29.565 43,31.498" id="Fill-390" fill="#FFFFFF" sketch:type="MSShapeGroup"></path>
            <path d="M41,31.998 C41,32.551 40.552,32.998 40,32.998 C39.448,32.998 39,32.551 39,31.998 C39,31.446 39.448,30.998 40,30.998 C40.552,30.998 41,31.446 41,31.998" id="Fill-391" fill="#2C2F38" sketch:type="MSShapeGroup"></path>
            <path d="M16,46.998 C16,46.998 9.875,48.873 10,50.998 C10,50.998 13,54.415 16,54.998 C16,54.998 25.381,52.813 27.7,51.237 C27.848,51.136 27.831,50.916 27.669,50.838 C26.023,50.049 18.693,46.63 16,46.998" id="Fill-392" fill="#F29C1F" sketch:type="MSShapeGroup"></path>
            <path d="M15,44.498 C15,46.431 13.433,47.998 11.5,47.998 C9.567,47.998 8,46.431 8,44.498 C8,42.565 9.567,40.998 11.5,40.998 C13.433,40.998 15,42.565 15,44.498" id="Fill-393" fill="#FFFFFF" sketch:type="MSShapeGroup"></path>
            <path d="M13,44.998 C13,45.551 12.552,45.998 12,45.998 C11.448,45.998 11,45.551 11,44.998 C11,44.446 11.448,43.998 12,43.998 C12.552,43.998 13,44.446 13,44.998" id="Fill-394" fill="#2C2F38" sketch:type="MSShapeGroup"></path>
            <path d="M17.012,16.998 C17.012,16.998 10.887,18.873 11.012,20.998 C11.012,20.998 14.012,24.415 17.012,24.998 C17.012,24.998 26.393,22.813 28.712,21.237 C28.861,21.136 28.843,20.916 28.681,20.838 C27.036,20.049 19.705,16.63 17.012,16.998" id="Fill-395" fill="#F29C1F" sketch:type="MSShapeGroup"></path>
            <path d="M16.012,14.498 C16.012,16.431 14.445,17.998 12.512,17.998 C10.579,17.998 9.012,16.431 9.012,14.498 C9.012,12.565 10.579,10.998 12.512,10.998 C14.445,10.998 16.012,12.565 16.012,14.498" id="Fill-396" fill="#FFFFFF" sketch:type="MSShapeGroup"></path>
            <path d="M24,13.5 C24,15.433 22.433,17 20.5,17 C18.567,17 17,15.433 17,13.5 C17,11.567 18.567,10 20.5,10 C22.433,10 24,11.567 24,13.5" id="Fill-397" fill="#FFFFFF" sketch:type="MSShapeGroup"></path>
            <path d="M23,43.5 C23,45.433 21.433,47 19.5,47 C17.567,47 16,45.433 16,43.5 C16,41.567 17.567,40 19.5,40 C21.433,40 23,41.567 23,43.5" id="Fill-398" fill="#FFFFFF" sketch:type="MSShapeGroup"></path>
            <path d="M51,30.5 C51,32.433 49.433,34 47.5,34 C45.567,34 44,32.433 44,30.5 C44,28.567 45.567,27 47.5,27 C49.433,27 51,28.567 51,30.5" id="Fill-399" fill="#FFFFFF" sketch:type="MSShapeGroup"></path>
            <path d="M14.012,14.998 C14.012,15.551 13.565,15.998 13.012,15.998 C12.46,15.998 12.012,15.551 12.012,14.998 C12.012,14.446 12.46,13.998 13.012,13.998 C13.565,13.998 14.012,14.446 14.012,14.998" id="Fill-400" fill="#2C2F38" sketch:type="MSShapeGroup"></path>
            <path d="M21.012,13.998 C21.012,14.551 20.564,14.998 20.012,14.998 C19.46,14.998 19.012,14.551 19.012,13.998 C19.012,13.446 19.46,12.998 20.012,12.998 C20.564,12.998 21.012,13.446 21.012,13.998" id="Fill-401" fill="#2C2F38" sketch:type="MSShapeGroup"></path>
            <path d="M48,30.998 C48,31.551 47.552,31.998 47,31.998 C46.448,31.998 46,31.551 46,30.998 C46,30.446 46.448,29.998 47,29.998 C47.552,29.998 48,30.446 48,30.998" id="Fill-506" fill="#2C2F38" sketch:type="MSShapeGroup"></path>
            <path d="M20,43.998 C20,44.551 19.552,44.998 19,44.998 C18.448,44.998 18,44.551 18,43.998 C18,43.446 18.448,42.998 19,42.998 C19.552,42.998 20,43.446 20,43.998" id="Fill-507" fill="#2C2F38" sketch:type="MSShapeGroup"></path>
            <path d="M11.013,20.994 L11.013,20.999 C11.015,21.001 11.39,21.426 12.001,21.998 L27.187,21.998 C27.818,21.737 28.355,21.48 28.712,21.237 C28.861,21.136 28.843,20.916 28.681,20.838 C28.318,20.664 27.67,20.359 26.865,19.998 L11.4,19.998 C11.148,20.32 10.994,20.653 11.013,20.994" id="Fill-508" fill="#F3D55B" sketch:type="MSShapeGroup"></path>
            <path d="M38.988,38.998 L54.175,38.998 C54.806,38.737 55.343,38.48 55.7,38.237 C55.848,38.136 55.831,37.916 55.669,37.838 C55.306,37.664 54.657,37.359 53.853,36.998 L38.387,36.998 C38.135,37.321 37.98,37.656 38,37.998 C38,37.998 38.377,38.425 38.988,38.998" id="Fill-509" fill="#F3D55B" sketch:type="MSShapeGroup"></path>
            <path d="M10.988,51.998 L26.175,51.998 C26.806,51.737 27.343,51.48 27.7,51.237 C27.848,51.136 27.831,50.916 27.669,50.838 C27.306,50.664 26.657,50.359 25.853,49.998 L10.388,49.998 C10.135,50.321 9.98,50.656 10,50.998 C10,50.998 10.376,51.425 10.988,51.998" id="Fill-510" fill="#F3D55B" sketch:type="MSShapeGroup"></path>
        </g>
    </g>
</svg>