<?xml version="1.0" encoding="UTF-8" standalone="no"?>
<svg width="60px" height="60px" viewBox="0 0 60 60" version="1.1" xmlns="http://www.w3.org/2000/svg" xmlns:xlink="http://www.w3.org/1999/xlink" xmlns:sketch="http://www.bohemiancoding.com/sketch/ns">
    <!-- Generator: Sketch 3.2.2 (9983) - http://www.bohemiancoding.com/sketch -->
    <title>42 - The Triforce (Flat)</title>
    <desc>Created with Sketch.</desc>
    <defs></defs>
    <g id="Page-1" stroke="none" stroke-width="1" fill="none" fill-rule="evenodd" sketch:type="MSPage">
        <g id="42---The-Triforce-(Flat)" sketch:type="MSLayerGroup">
            <path d="M60,30 C60,46.569 46.568,60 30,60 C13.431,60 0,46.569 0,30 C0,13.432 13.431,0 30,0 C46.568,0 60,13.432 60,30" id="Fill-1" fill="#556080" sketch:type="MSShapeGroup"></path>
            <path d="M30,45.129 C29.514,45.129 29.121,44.736 29.121,44.25 L29.121,40.733 C29.121,40.247 29.514,39.853 30,39.853 C30.486,39.853 30.879,40.247 30.879,40.733 L30.879,44.25 C30.879,44.736 30.486,45.129 30,45.129" id="Fill-22" fill="#F0C419" sketch:type="MSShapeGroup"></path>
            <path d="M29.121,26.664 L24.724,18.75 L20.328,26.664 L29.121,26.664" id="Fill-444" fill="#F0C419" sketch:type="MSShapeGroup"></path>
            <path d="M39.672,26.664 L35.276,18.75 L30.879,26.664 L39.672,26.664" id="Fill-445" fill="#F0C419" sketch:type="MSShapeGroup"></path>
            <path d="M34.397,17.871 L30,9.957 L25.603,17.871 L34.397,17.871" id="Fill-446" fill="#F0C419" sketch:type="MSShapeGroup"></path>
            <path d="M30,31.06 L26.483,38.974 L30,41.612 L33.517,38.974 L30,31.06" id="Fill-447" fill="#F0C419" sketch:type="MSShapeGroup"></path>
            <path d="M19.422,15.233 C19.422,15.233 9.977,26.45 19.264,33.891 C20.058,34.527 21.232,34.586 21.983,33.9 C22.468,33.457 22.733,32.771 22.175,31.728 C21.844,31.111 21.312,30.627 20.702,30.281 C19.135,29.393 15.545,26.035 19.422,15.233" id="Fill-448" fill="#F0C419" sketch:type="MSShapeGroup"></path>
            <path d="M15.817,21.919 L4.5,16.991 L7.138,23.147 L15.332,23.951 C15.444,23.253 15.613,22.573 15.817,21.919" id="Fill-449" fill="#F0C419" sketch:type="MSShapeGroup"></path>
            <path d="M15.184,25.891 L4.5,27.543 L6.259,31.94 L15.546,28.551 C15.295,27.663 15.188,26.771 15.184,25.891" id="Fill-450" fill="#F0C419" sketch:type="MSShapeGroup"></path>
            <path d="M16.346,30.49 L8.896,35.457 L11.534,38.095 L17.482,32.147 C17.029,31.605 16.653,31.052 16.346,30.49" id="Fill-451" fill="#F0C419" sketch:type="MSShapeGroup"></path>
            <path d="M19.264,33.891 C19.177,33.821 19.103,33.749 19.019,33.678 L15.931,39.853 L19.448,39.853 L21.579,34.171 C20.854,34.544 19.928,34.423 19.264,33.891" id="Fill-452" fill="#F0C419" sketch:type="MSShapeGroup"></path>
            <path d="M40.578,15.233 C40.578,15.233 50.023,26.45 40.736,33.891 C39.942,34.527 38.768,34.586 38.017,33.9 C37.532,33.457 37.267,32.771 37.825,31.728 C38.156,31.111 38.688,30.627 39.298,30.281 C40.865,29.393 44.454,26.035 40.578,15.233" id="Fill-453" fill="#F0C419" sketch:type="MSShapeGroup"></path>
            <path d="M44.183,21.919 L55.5,16.991 L52.862,23.147 L44.668,23.951 C44.556,23.253 44.387,22.573 44.183,21.919" id="Fill-454" fill="#F0C419" sketch:type="MSShapeGroup"></path>
            <path d="M44.816,25.891 L55.5,27.543 L53.741,31.94 L44.454,28.551 C44.705,27.663 44.812,26.771 44.816,25.891" id="Fill-455" fill="#F0C419" sketch:type="MSShapeGroup"></path>
            <path d="M43.654,30.49 L51.104,35.457 L48.466,38.095 L42.518,32.147 C42.971,31.605 43.347,31.052 43.654,30.49" id="Fill-456" fill="#F0C419" sketch:type="MSShapeGroup"></path>
            <path d="M40.736,33.891 C40.823,33.821 40.897,33.749 40.981,33.678 L44.069,39.853 L40.552,39.853 L38.421,34.171 C39.146,34.544 40.072,34.423 40.736,33.891" id="Fill-457" fill="#F0C419" sketch:type="MSShapeGroup"></path>
            <path d="M18.57,51.285 C18.318,51.285 18.069,51.178 17.895,50.97 C17.602,50.62 16.175,48.799 16.907,47.317 C17.614,45.885 19.684,45.978 20.367,46.01 C20.732,46.013 24.206,46.121 24.705,48.464 C24.806,48.939 24.503,49.406 24.028,49.507 C23.553,49.606 23.086,49.305 22.984,48.83 C22.829,48.099 21.171,47.777 20.317,47.767 C19.017,47.708 18.553,47.957 18.484,48.096 C18.34,48.388 18.781,49.289 19.243,49.84 C19.555,50.212 19.506,50.767 19.134,51.079 C18.969,51.217 18.769,51.285 18.57,51.285" id="Fill-458" fill="#F0C419" sketch:type="MSShapeGroup"></path>
            <path d="M21.207,45.129 C20.982,45.129 20.757,45.043 20.585,44.872 C20.242,44.528 20.242,43.972 20.585,43.628 L23.223,40.99 C23.567,40.647 24.123,40.647 24.467,40.99 C24.81,41.334 24.81,41.89 24.467,42.234 L21.828,44.872 C21.657,45.043 21.432,45.129 21.207,45.129" id="Fill-459" fill="#F0C419" sketch:type="MSShapeGroup"></path>
            <path d="M41.43,51.285 C41.236,51.285 41.04,51.22 40.878,51.089 C40.501,50.783 40.442,50.231 40.747,49.854 C41.194,49.294 41.598,48.414 41.447,48.117 C41.368,47.96 40.893,47.707 39.604,47.766 C38.758,47.79 37.153,48.121 37.018,48.814 C36.925,49.291 36.461,49.601 35.987,49.509 C35.51,49.417 35.199,48.955 35.292,48.479 C35.742,46.166 39.156,46.018 39.544,46.009 C40.205,45.976 42.29,45.885 43.017,47.325 C43.762,48.801 42.396,50.61 42.115,50.958 C41.941,51.173 41.687,51.285 41.43,51.285" id="Fill-460" fill="#F0C419" sketch:type="MSShapeGroup"></path>
            <path d="M38.793,45.129 C38.568,45.129 38.343,45.043 38.171,44.872 L35.533,42.234 C35.19,41.89 35.19,41.334 35.533,40.99 C35.877,40.647 36.433,40.647 36.777,40.99 L39.415,43.628 C39.758,43.972 39.758,44.528 39.415,44.872 C39.243,45.043 39.018,45.129 38.793,45.129" id="Fill-461" fill="#F0C419" sketch:type="MSShapeGroup"></path>
            <path d="M28.241,44.25 L28.241,47.767 L30,53.043 L31.759,47.767 L31.759,44.25 L28.241,44.25" id="Fill-462" fill="#F0C419" sketch:type="MSShapeGroup"></path>
        </g>
    </g>
</svg>