<?xml version="1.0" encoding="UTF-8" standalone="no"?>
<svg width="45px" height="53px" viewBox="0 0 45 53" version="1.1" xmlns="http://www.w3.org/2000/svg" xmlns:xlink="http://www.w3.org/1999/xlink" xmlns:sketch="http://www.bohemiancoding.com/sketch/ns">
    <!-- Generator: Sketch 3.2.2 (9983) - http://www.bohemiancoding.com/sketch -->
    <title>38 - Yoshi (Flat)</title>
    <desc>Created with Sketch.</desc>
    <defs></defs>
    <g id="Page-1" stroke="none" stroke-width="1" fill="none" fill-rule="evenodd" sketch:type="MSPage">
        <g id="38---Yoshi-(Flat)" sketch:type="MSLayerGroup" transform="translate(-1.000000, 0.000000)">
            <path d="M41,35 C41,44.941 33.165,53 23.5,53 C13.835,53 6,44.941 6,35 C6,25.059 13.835,17 23.5,17 C33.165,17 41,25.059 41,35" id="Fill-125" fill="#4AC24E" sketch:type="MSShapeGroup"></path>
            <path d="M9.574,24.131 L8.202,23.101 C6.215,21.609 3.394,22.01 1.902,23.998 C0.409,25.985 0.811,28.806 2.798,30.298 L6.142,32.809 C6.525,29.57 7.747,26.604 9.574,24.131" id="Fill-126" fill="#38933B" sketch:type="MSShapeGroup"></path>
            <path d="M44.962,23.998 C43.47,22.01 40.649,21.609 38.662,23.101 L37.378,24.065 C39.215,26.527 40.445,29.485 40.844,32.717 L44.066,30.298 C46.053,28.806 46.455,25.985 44.962,23.998" id="Fill-127" fill="#38933B" sketch:type="MSShapeGroup"></path>
            <path d="M11.841,48.397 C8.264,45.101 6,40.328 6,35 C6,34.253 6.143,32.806 6.142,32.809 L4.802,31.803 C1.208,35.22 -4.038,42.86 12,49 L11.841,48.397" id="Fill-128" fill="#D1D4D1" sketch:type="MSShapeGroup"></path>
            <path d="M42.138,31.746 L40.847,32.715 C40.944,33.463 41,34.224 41,35 C41,40.328 38.736,45.101 35.159,48.397 L35,49 C51.127,42.826 45.732,35.135 42.138,31.746" id="Fill-129" fill="#D1D4D1" sketch:type="MSShapeGroup"></path>
            <path d="M23.5,17 C23.531,17 23.56,17.005 23.591,17.005 C23.838,15.774 23.979,14.471 23.979,13.114 C23.979,5.872 20.174,0 15.479,0 C10.785,0 6.979,5.872 6.979,13.114 C6.979,17.26 8.239,20.932 10.187,23.334 C13.397,19.463 18.165,17 23.5,17" id="Fill-130" fill="#45BB49" sketch:type="MSShapeGroup"></path>
            <path d="M23.5,17 C23.53,17 23.56,17.005 23.59,17.005 C23.714,16.391 23.812,15.759 23.877,15.11 C23.272,10.435 19.748,6.842 15.479,6.842 C11.22,6.842 7.702,10.419 7.085,15.08 C7.412,18.413 8.553,21.324 10.183,23.338 C13.393,19.464 18.164,17 23.5,17" id="Fill-131" fill="#FFFFFF" sketch:type="MSShapeGroup"></path>
            <path d="M37.263,23.907 C39.498,21.545 40.979,17.61 40.979,13.114 C40.979,5.872 37.174,0 32.479,0 C27.785,0 23.979,5.872 23.979,13.114 C23.979,14.486 24.125,15.803 24.378,17.046 C29.609,17.313 34.229,19.93 37.263,23.907" id="Fill-132" fill="#45BB49" sketch:type="MSShapeGroup"></path>
            <path d="M15.979,11.404 C15.316,11.404 14.683,11.57 14.104,11.864 C14.656,12.408 15,13.163 15,14 C15,15.657 13.657,17 12,17 C11.659,17 11.336,16.931 11.03,16.826 C11,17.104 10.979,17.387 10.979,17.676 C10.979,19.099 11.376,20.391 12.013,21.442 C14.483,19.227 17.558,17.722 20.955,17.211 C20.765,13.966 18.615,11.404 15.979,11.404" id="Fill-133" fill="#2C2F38" sketch:type="MSShapeGroup"></path>
            <path d="M19,33 C18.448,33 18,32.552 18,32 L18,25 C18,24.448 18.448,24 19,24 C19.552,24 20,24.448 20,25 L20,32 C20,32.552 19.552,33 19,33" id="Fill-134" fill="#38933B" sketch:type="MSShapeGroup"></path>
            <path d="M28,33 C27.448,33 27,32.552 27,32 L27,25 C27,24.448 27.448,24 28,24 C28.552,24 29,24.448 29,25 L29,32 C29,32.552 28.552,33 28,33" id="Fill-135" fill="#38933B" sketch:type="MSShapeGroup"></path>
            <path d="M37.266,23.911 C39.165,21.903 40.513,18.755 40.875,15.091 C40.262,10.425 36.742,6.842 32.479,6.842 C28.214,6.842 24.692,10.429 24.083,15.1 C24.149,15.767 24.25,16.415 24.379,17.046 C29.611,17.314 34.233,19.933 37.266,23.911" id="Fill-467" fill="#FFFFFF" sketch:type="MSShapeGroup"></path>
            <path d="M32.556,11.449 C32.832,11.903 33,12.43 33,13 C33,14.657 31.657,16 30,16 C28.997,16 28.115,15.503 27.571,14.748 C27.239,15.536 27.032,16.419 26.995,17.361 C30.295,18.049 33.249,19.701 35.591,22.007 C36.45,20.881 36.979,19.357 36.979,17.676 C36.979,14.457 35.045,11.808 32.556,11.449" id="Fill-468" fill="#2C2F38" sketch:type="MSShapeGroup"></path>
        </g>
    </g>
</svg>