<?xml version="1.0" encoding="UTF-8" standalone="no"?>
<svg width="58px" height="58px" viewBox="0 0 58 58" version="1.1" xmlns="http://www.w3.org/2000/svg" xmlns:xlink="http://www.w3.org/1999/xlink" xmlns:sketch="http://www.bohemiancoding.com/sketch/ns">
    <!-- Generator: Sketch 3.2.2 (9983) - http://www.bohemiancoding.com/sketch -->
    <title>99 - 404 Page (Flat)</title>
    <desc>Created with Sketch.</desc>
    <defs></defs>
    <g id="Page-1" stroke="none" stroke-width="1" fill="none" fill-rule="evenodd" sketch:type="MSPage">
        <g id="99---404-Page-(Flat)" sketch:type="MSLayerGroup">
            <path d="M0,0.04 L58,0.04 L58,58 L0,58 L0,0.04 Z" id="Fill-251" fill="#ECF0F1" sketch:type="MSShapeGroup"></path>
            <path d="M0,0.04 L58,0.04 L58,12 L0,12 L0,0.04 Z" id="Fill-252" fill="#BDC3C7" sketch:type="MSShapeGroup"></path>
            <path d="M54.707,3.707 L53.293,2.293 L51,4.586 L48.707,2.293 L47.293,3.707 L49.586,6 L47.293,8.293 L48.707,9.707 L51,7.414 L53.293,9.707 L54.707,8.293 L52.414,6 L54.707,3.707" id="Fill-262" fill="#7F8C8D" sketch:type="MSShapeGroup"></path>
            <path d="M3,3 L40,3 L40,9 L3,9 L3,3 Z" id="Fill-263" fill="#FFFFFF" sketch:type="MSShapeGroup"></path>
            <path d="M19,36 L16,36 L16,34 C16,33.448 15.552,33 15,33 C14.448,33 14,33.448 14,34 L14,36 L9,36 L9,26 C9,25.448 8.552,25 8,25 C7.448,25 7,25.448 7,26 L7,37 C7,37.552 7.448,38 8,38 L14,38 L14,46 C14,46.552 14.448,47 15,47 C15.552,47 16,46.552 16,46 L16,38 L19,38 C19.552,38 20,37.552 20,37 C20,36.448 19.552,36 19,36" id="Fill-719" fill="#BDC3C7" sketch:type="MSShapeGroup"></path>
            <path d="M50,36 L47,36 L47,34 C47,33.448 46.552,33 46,33 C45.448,33 45,33.448 45,34 L45,36 L40,36 L40,26 C40,25.448 39.552,25 39,25 C38.448,25 38,25.448 38,26 L38,37 C38,37.552 38.448,38 39,38 L45,38 L45,46 C45,46.552 45.448,47 46,47 C46.552,47 47,46.552 47,46 L47,38 L50,38 C50.552,38 51,37.552 51,37 C51,36.448 50.552,36 50,36" id="Fill-720" fill="#BDC3C7" sketch:type="MSShapeGroup"></path>
            <path d="M28.5,25 C24.916,25 22,27.916 22,31.5 L22,40.5 C22,44.084 24.916,47 28.5,47 C32.084,47 35,44.084 35,40.5 L35,31.5 C35,27.916 32.084,25 28.5,25 L28.5,25 Z M33,40.5 C33,42.981 30.981,45 28.5,45 C26.019,45 24,42.981 24,40.5 L24,31.5 C24,29.019 26.019,27 28.5,27 C30.981,27 33,29.019 33,31.5 L33,40.5 L33,40.5 Z" id="Fill-721" fill="#BDC3C7" sketch:type="MSShapeGroup"></path>
        </g>
    </g>
</svg>