<?xml version="1.0" encoding="UTF-8" standalone="no"?>
<svg width="58px" height="56px" viewBox="0 0 58 56" version="1.1" xmlns="http://www.w3.org/2000/svg" xmlns:xlink="http://www.w3.org/1999/xlink" xmlns:sketch="http://www.bohemiancoding.com/sketch/ns">
    <!-- Generator: Sketch 3.2.2 (9983) - http://www.bohemiancoding.com/sketch -->
    <title>12 - Align to Top (Flat)</title>
    <desc>Created with Sketch.</desc>
    <defs></defs>
    <g id="Page-1" stroke="none" stroke-width="1" fill="none" fill-rule="evenodd" sketch:type="MSPage">
        <g id="12---Align-to-Top-(Flat)" sketch:type="MSLayerGroup">
            <path d="M0,0 L58,0 L58,56 L0,56 L0,0 Z" id="Fill-550" fill="#ECF0F1" sketch:type="MSShapeGroup"></path>
            <path d="M9,9 L49,9 L49,19 L9,19 L9,9 Z" id="Fill-551" fill="#BDC3C7" sketch:type="MSShapeGroup"></path>
            <path d="M8,8 L50,8 L50,20 L8,20 L8,8 Z M10,18 L48,18 L48,10 L10,10 L10,18 Z" id="Fill-552" fill="#BDC3C7" sketch:type="MSShapeGroup"></path>
            <path d="M21,36.5 C20.744,36.5 20.488,36.402 20.293,36.207 C19.902,35.816 19.902,35.184 20.293,34.793 L28.293,26.793 C28.684,26.402 29.316,26.402 29.707,26.793 C30.098,27.184 30.098,27.816 29.707,28.207 L21.707,36.207 C21.512,36.402 21.256,36.5 21,36.5" id="Fill-553" fill="#BDC3C7" sketch:type="MSShapeGroup"></path>
            <path d="M37,36.5 C36.744,36.5 36.488,36.402 36.293,36.207 L28.293,28.207 C27.902,27.816 27.902,27.184 28.293,26.793 C28.684,26.402 29.316,26.402 29.707,26.793 L37.707,34.793 C38.098,35.184 38.098,35.816 37.707,36.207 C37.512,36.402 37.256,36.5 37,36.5" id="Fill-554" fill="#BDC3C7" sketch:type="MSShapeGroup"></path>
            <path d="M29,48.5 C28.447,48.5 28,48.053 28,47.5 L28,27.5 C28,26.947 28.447,26.5 29,26.5 C29.553,26.5 30,26.947 30,27.5 L30,47.5 C30,48.053 29.553,48.5 29,48.5" id="Fill-555" fill="#BDC3C7" sketch:type="MSShapeGroup"></path>
        </g>
    </g>
</svg>