<?xml version="1.0" encoding="UTF-8" standalone="no"?>
<svg width="58px" height="58px" viewBox="0 0 58 58" version="1.1" xmlns="http://www.w3.org/2000/svg" xmlns:xlink="http://www.w3.org/1999/xlink" xmlns:sketch="http://www.bohemiancoding.com/sketch/ns">
    <!-- Generator: Sketch 3.2.2 (9983) - http://www.bohemiancoding.com/sketch -->
    <title>79 - Call to Action (Flat)</title>
    <desc>Created with Sketch.</desc>
    <defs></defs>
    <g id="Page-1" stroke="none" stroke-width="1" fill="none" fill-rule="evenodd" sketch:type="MSPage">
        <g id="79---Call-to-Action-(Flat)" sketch:type="MSLayerGroup">
            <path d="M0,0 L58,0 L58,58 L0,58 L0,0 Z" id="Fill-168" fill="#ECF0F1" sketch:type="MSShapeGroup"></path>
            <path d="M0,0 L58,0 L58,12 L0,12 L0,0 Z" id="Fill-169" fill="#546A79" sketch:type="MSShapeGroup"></path>
            <path d="M9,6 C9,7.657 7.657,9 6,9 C4.343,9 3,7.657 3,6 C3,4.343 4.343,3 6,3 C7.657,3 9,4.343 9,6" id="Fill-170" fill="#ED7161" sketch:type="MSShapeGroup"></path>
            <path d="M18,6 C18,7.657 16.657,9 15,9 C13.343,9 12,7.657 12,6 C12,4.343 13.343,3 15,3 C16.657,3 18,4.343 18,6" id="Fill-171" fill="#F0C419" sketch:type="MSShapeGroup"></path>
            <path d="M27,6 C27,7.657 25.657,9 24,9 C22.343,9 21,7.657 21,6 C21,4.343 22.343,3 24,3 C25.657,3 27,4.343 27,6" id="Fill-172" fill="#4FBA6F" sketch:type="MSShapeGroup"></path>
            <path d="M5,17 L53,17 L53,41 L5,41 L5,17 Z" id="Fill-848" fill="#FFFFFF" sketch:type="MSShapeGroup"></path>
            <path d="M11,32 L25,32 L25,36 L11,36 L11,32 Z" id="Stroke-849" stroke="#BDC3C7" stroke-width="2" sketch:type="MSShapeGroup"></path>
            <path d="M5,45 L27,45 L27,52 L5,52 L5,45 Z" id="Fill-850" fill="#BDC3C7" sketch:type="MSShapeGroup"></path>
            <path d="M31,45 L53,45 L53,52 L31,52 L31,45 Z" id="Fill-851" fill="#24AE5F" sketch:type="MSShapeGroup"></path>
            <path d="M34,26 L11,26 M34,22 L11,22" id="Stroke-852" stroke="#BDC3C7" stroke-width="2" stroke-linecap="round" sketch:type="MSShapeGroup"></path>
        </g>
    </g>
</svg>