<?xml version="1.0" encoding="UTF-8" standalone="no"?>
<svg width="58px" height="57px" viewBox="0 0 58 57" version="1.1" xmlns="http://www.w3.org/2000/svg" xmlns:xlink="http://www.w3.org/1999/xlink" xmlns:sketch="http://www.bohemiancoding.com/sketch/ns">
    <!-- Generator: Sketch 3.2.2 (9983) - http://www.bohemiancoding.com/sketch -->
    <title>37 - Center (Flat)</title>
    <desc>Created with Sketch.</desc>
    <defs></defs>
    <g id="Page-1" stroke="none" stroke-width="1" fill="none" fill-rule="evenodd" sketch:type="MSPage">
        <g id="37---Center-(Flat)" sketch:type="MSLayerGroup">
            <path d="M0,0 L58,0 L58,57 L0,57 L0,0 Z" id="Fill-426" fill="#ECF0F1" sketch:type="MSShapeGroup"></path>
            <path d="M46,12 L12,12 C11.448,12 11,11.553 11,11 C11,10.447 11.448,10 12,10 L46,10 C46.552,10 47,10.447 47,11 C47,11.553 46.552,12 46,12" id="Fill-427" fill="#BDC3C7" sketch:type="MSShapeGroup"></path>
            <path d="M46,19 L12,19 C11.448,19 11,18.553 11,18 C11,17.447 11.448,17 12,17 L46,17 C46.552,17 47,17.447 47,18 C47,18.553 46.552,19 46,19" id="Fill-428" fill="#BDC3C7" sketch:type="MSShapeGroup"></path>
            <path d="M46,26 L12,26 C11.448,26 11,25.553 11,25 C11,24.447 11.448,24 12,24 L46,24 C46.552,24 47,24.447 47,25 C47,25.553 46.552,26 46,26" id="Fill-429" fill="#BDC3C7" sketch:type="MSShapeGroup"></path>
            <path d="M46,33 L12,33 C11.448,33 11,32.553 11,32 C11,31.447 11.448,31 12,31 L46,31 C46.552,31 47,31.447 47,32 C47,32.553 46.552,33 46,33" id="Fill-430" fill="#BDC3C7" sketch:type="MSShapeGroup"></path>
            <path d="M46,40 L12,40 C11.448,40 11,39.553 11,39 C11,38.447 11.448,38 12,38 L46,38 C46.552,38 47,38.447 47,39 C47,39.553 46.552,40 46,40" id="Fill-431" fill="#BDC3C7" sketch:type="MSShapeGroup"></path>
            <path d="M36,47 L22,47 C21.448,47 21,46.553 21,46 C21,45.447 21.448,45 22,45 L36,45 C36.552,45 37,45.447 37,46 C37,46.553 36.552,47 36,47" id="Fill-432" fill="#BDC3C7" sketch:type="MSShapeGroup"></path>
        </g>
    </g>
</svg>