<?xml version="1.0" encoding="UTF-8" standalone="no"?>
<svg width="58px" height="58px" viewBox="0 0 58 58" version="1.1" xmlns="http://www.w3.org/2000/svg" xmlns:xlink="http://www.w3.org/1999/xlink" xmlns:sketch="http://www.bohemiancoding.com/sketch/ns">
    <!-- Generator: Sketch 3.2.2 (9983) - http://www.bohemiancoding.com/sketch -->
    <title>87 - Content (Flat)</title>
    <desc>Created with Sketch.</desc>
    <defs></defs>
    <g id="Page-1" stroke="none" stroke-width="1" fill="none" fill-rule="evenodd" sketch:type="MSPage">
        <g id="87---Content-(Flat)" sketch:type="MSLayerGroup">
            <path d="M0,0 L58,0 L58,58 L0,58 L0,0 Z" id="Fill-761" fill="#ECF0F1" sketch:type="MSShapeGroup"></path>
            <path d="M0,0 L58,0 L58,12 L0,12 L0,0 Z" id="Fill-762" fill="#546A79" sketch:type="MSShapeGroup"></path>
            <path d="M9,6 C9,7.657 7.657,9 6,9 C4.343,9 3,7.657 3,6 C3,4.343 4.343,3 6,3 C7.657,3 9,4.343 9,6" id="Fill-763" fill="#ED7161" sketch:type="MSShapeGroup"></path>
            <path d="M18,6 C18,7.657 16.657,9 15,9 C13.343,9 12,7.657 12,6 C12,4.343 13.343,3 15,3 C16.657,3 18,4.343 18,6" id="Fill-764" fill="#F0C419" sketch:type="MSShapeGroup"></path>
            <path d="M27,6 C27,7.657 25.657,9 24,9 C22.343,9 21,7.657 21,6 C21,4.343 22.343,3 24,3 C25.657,3 27,4.343 27,6" id="Fill-765" fill="#4FBA6F" sketch:type="MSShapeGroup"></path>
            <path d="M5,17 L53,17 L53,53 L5,53 L5,17 Z" id="Fill-803" fill="#8697CB" sketch:type="MSShapeGroup"></path>
            <path d="M30,29 L39,29 C39.552,29 40,28.552 40,28 C40,27.448 39.552,27 39,27 L30,27 C29.448,27 29,27.448 29,28 C29,28.552 29.448,29 30,29" id="Fill-804" fill="#FFFFFF" sketch:type="MSShapeGroup"></path>
            <path d="M48,37 L30,37 C29.448,37 29,37.448 29,38 C29,38.552 29.448,39 30,39 L48,39 C48.552,39 49,38.552 49,38 C49,37.448 48.552,37 48,37" id="Fill-805" fill="#FFFFFF" sketch:type="MSShapeGroup"></path>
            <path d="M30,34 L48,34 C48.552,34 49,33.552 49,33 C49,32.448 48.552,32 48,32 L30,32 C29.448,32 29,32.448 29,33 C29,33.552 29.448,34 30,34" id="Fill-806" fill="#FFFFFF" sketch:type="MSShapeGroup"></path>
            <path d="M48,42 L30,42 C29.448,42 29,42.448 29,43 C29,43.552 29.448,44 30,44 L48,44 C48.552,44 49,43.552 49,43 C49,42.448 48.552,42 48,42" id="Fill-807" fill="#FFFFFF" sketch:type="MSShapeGroup"></path>
            <path d="M9,27 L27,27 L27,44 L9,44 L9,27 Z" id="Fill-808" fill="#556080" sketch:type="MSShapeGroup"></path>
        </g>
    </g>
</svg>