<?xml version="1.0" encoding="UTF-8" standalone="no"?>
<svg width="58px" height="58px" viewBox="0 0 58 58" version="1.1" xmlns="http://www.w3.org/2000/svg" xmlns:xlink="http://www.w3.org/1999/xlink" xmlns:sketch="http://www.bohemiancoding.com/sketch/ns">
    <!-- Generator: Sketch 3.2.2 (9983) - http://www.bohemiancoding.com/sketch -->
    <title>64 - Contact (Flat)</title>
    <desc>Created with Sketch.</desc>
    <defs></defs>
    <g id="Page-1" stroke="none" stroke-width="1" fill="none" fill-rule="evenodd" sketch:type="MSPage">
        <g id="64---Contact-(Flat)" sketch:type="MSLayerGroup">
            <path d="M0,0 L58,0 L58,58 L0,58 L0,0 Z" id="Fill-69" fill="#ECF0F1" sketch:type="MSShapeGroup"></path>
            <path d="M0,0 L58,0 L58,12 L0,12 L0,0 Z" id="Fill-70" fill="#546A79" sketch:type="MSShapeGroup"></path>
            <path d="M9,6 C9,7.657 7.657,9 6,9 C4.343,9 3,7.657 3,6 C3,4.343 4.343,3 6,3 C7.657,3 9,4.343 9,6" id="Fill-71" fill="#ED7161" sketch:type="MSShapeGroup"></path>
            <path d="M18,6 C18,7.657 16.657,9 15,9 C13.343,9 12,7.657 12,6 C12,4.343 13.343,3 15,3 C16.657,3 18,4.343 18,6" id="Fill-72" fill="#F0C419" sketch:type="MSShapeGroup"></path>
            <path d="M27,6 C27,7.657 25.657,9 24,9 C22.343,9 21,7.657 21,6 C21,4.343 22.343,3 24,3 C25.657,3 27,4.343 27,6" id="Fill-73" fill="#4FBA6F" sketch:type="MSShapeGroup"></path>
            <path d="M16,19 L39,19 L39,25 L16,25 L16,19 Z" id="Fill-917" fill="#FFFFFF" sketch:type="MSShapeGroup"></path>
            <path d="M16,19 L39,19 L39,25 L16,25 L16,19 Z" id="Stroke-918" stroke="#95A5A5" stroke-width="2" sketch:type="MSShapeGroup"></path>
            <path d="M16,30 L39,30 L39,36 L16,36 L16,30 Z" id="Fill-919" fill="#FFFFFF" sketch:type="MSShapeGroup"></path>
            <path d="M16,30 L39,30 L39,36 L16,36 L16,30 Z" id="Stroke-920" stroke="#95A5A5" stroke-width="2" sketch:type="MSShapeGroup"></path>
            <path d="M16,41 L51,41 L51,51 L16,51 L16,41 Z" id="Fill-921" fill="#FFFFFF" sketch:type="MSShapeGroup"></path>
            <path d="M16,41 L51,41 L51,51 L16,51 L16,41 Z" id="Stroke-922" stroke="#95A5A5" stroke-width="2" sketch:type="MSShapeGroup"></path>
            <path d="M6,19 L11,19 M6,30 L11,30 M6,41 L11,41" id="Stroke-923" stroke="#7F8C8D" stroke-width="2" stroke-linecap="round" sketch:type="MSShapeGroup"></path>
        </g>
    </g>
</svg>