<?xml version="1.0" encoding="UTF-8" standalone="no"?>
<svg width="58px" height="57px" viewBox="0 0 58 57" version="1.1" xmlns="http://www.w3.org/2000/svg" xmlns:xlink="http://www.w3.org/1999/xlink" xmlns:sketch="http://www.bohemiancoding.com/sketch/ns">
    <!-- Generator: Sketch 3.2.2 (9983) - http://www.bohemiancoding.com/sketch -->
    <title>21 - Decrease Line Height (Flat)</title>
    <desc>Created with Sketch.</desc>
    <defs></defs>
    <g id="Page-1" stroke="none" stroke-width="1" fill="none" fill-rule="evenodd" sketch:type="MSPage">
        <g id="21---Decrease-Line-Height-(Flat)" sketch:type="MSLayerGroup">
            <path d="M0,0 L58,0 L58,57 L0,57 L0,0 Z" id="Fill-525" fill="#ECF0F1" sketch:type="MSShapeGroup"></path>
            <path d="M48,47 L28,47 C27.447,47 27,46.553 27,46 C27,45.447 27.447,45 28,45 L48,45 C48.553,45 49,45.447 49,46 C49,46.553 48.553,47 48,47" id="Fill-526" fill="#BDC3C7" sketch:type="MSShapeGroup"></path>
            <path d="M41,40 L28,40 C27.447,40 27,39.553 27,39 C27,38.447 27.447,38 28,38 L41,38 C41.553,38 42,38.447 42,39 C42,39.553 41.553,40 41,40" id="Fill-527" fill="#BDC3C7" sketch:type="MSShapeGroup"></path>
            <path d="M48,33 L28,33 C27.447,33 27,32.553 27,32 C27,31.447 27.447,31 28,31 L48,31 C48.553,31 49,31.447 49,32 C49,32.553 48.553,33 48,33" id="Fill-528" fill="#BDC3C7" sketch:type="MSShapeGroup"></path>
            <path d="M46,26 L28,26 C27.447,26 27,25.553 27,25 C27,24.447 27.447,24 28,24 L46,24 C46.553,24 47,24.447 47,25 C47,25.553 46.553,26 46,26" id="Fill-529" fill="#BDC3C7" sketch:type="MSShapeGroup"></path>
            <path d="M42,19 L28,19 C27.447,19 27,18.553 27,18 C27,17.447 27.447,17 28,17 L42,17 C42.553,17 43,17.447 43,18 C43,18.553 42.553,19 42,19" id="Fill-530" fill="#BDC3C7" sketch:type="MSShapeGroup"></path>
            <path d="M48,12 L28,12 C27.447,12 27,11.553 27,11 C27,10.447 27.447,10 28,10 L48,10 C48.553,10 49,10.447 49,11 C49,11.553 48.553,12 48,12" id="Fill-531" fill="#BDC3C7" sketch:type="MSShapeGroup"></path>
            <path d="M15,27 C14.447,27 14,26.553 14,26 L14,9 C14,8.447 14.447,8 15,8 C15.553,8 16,8.447 16,9 L16,26 C16,26.553 15.553,27 15,27" id="Fill-532" fill="#BDC3C7" sketch:type="MSShapeGroup"></path>
            <path d="M15,27 C14.744,27 14.488,26.902 14.293,26.707 C13.902,26.316 13.902,25.684 14.293,25.293 L21.293,18.293 C21.684,17.902 22.316,17.902 22.707,18.293 C23.098,18.684 23.098,19.316 22.707,19.707 L15.707,26.707 C15.512,26.902 15.256,27 15,27" id="Fill-533" fill="#BDC3C7" sketch:type="MSShapeGroup"></path>
            <path d="M15,27 C14.744,27 14.488,26.902 14.293,26.707 L7.293,19.707 C6.902,19.316 6.902,18.684 7.293,18.293 C7.684,17.902 8.316,17.902 8.707,18.293 L15.707,25.293 C16.098,25.684 16.098,26.316 15.707,26.707 C15.512,26.902 15.256,27 15,27" id="Fill-534" fill="#BDC3C7" sketch:type="MSShapeGroup"></path>
            <path d="M15,49 C14.447,49 14,48.553 14,48 L14,31 C14,30.447 14.447,30 15,30 C15.553,30 16,30.447 16,31 L16,48 C16,48.553 15.553,49 15,49" id="Fill-535" fill="#BDC3C7" sketch:type="MSShapeGroup"></path>
            <path d="M8,39 C7.744,39 7.488,38.902 7.293,38.707 C6.902,38.316 6.902,37.684 7.293,37.293 L14.293,30.293 C14.684,29.902 15.316,29.902 15.707,30.293 C16.098,30.684 16.098,31.316 15.707,31.707 L8.707,38.707 C8.512,38.902 8.256,39 8,39" id="Fill-536" fill="#BDC3C7" sketch:type="MSShapeGroup"></path>
            <path d="M22,39 C21.744,39 21.488,38.902 21.293,38.707 L14.293,31.707 C13.902,31.316 13.902,30.684 14.293,30.293 C14.684,29.902 15.316,29.902 15.707,30.293 L22.707,37.293 C23.098,37.684 23.098,38.316 22.707,38.707 C22.512,38.902 22.256,39 22,39" id="Fill-537" fill="#BDC3C7" sketch:type="MSShapeGroup"></path>
        </g>
    </g>
</svg>