<?xml version="1.0" encoding="UTF-8" standalone="no"?>
<svg width="57px" height="57px" viewBox="0 0 57 57" version="1.1" xmlns="http://www.w3.org/2000/svg" xmlns:xlink="http://www.w3.org/1999/xlink" xmlns:sketch="http://www.bohemiancoding.com/sketch/ns">
    <!-- Generator: Sketch 3.2.2 (9983) - http://www.bohemiancoding.com/sketch -->
    <title>1 - Delete Formatting (Flat)</title>
    <desc>Created with Sketch.</desc>
    <defs></defs>
    <g id="Page-1" stroke="none" stroke-width="1" fill="none" fill-rule="evenodd" sketch:type="MSPage">
        <g id="1---Delete-Formatting-(Flat)" sketch:type="MSLayerGroup">
            <path d="M0,0 L57,0 L57,57 L0,57 L0,0 Z" id="Fill-688" fill="#ECF0F1" sketch:type="MSShapeGroup"></path>
            <path d="M49,47 L32,47 C31.447,47 31,46.553 31,46 C31,45.447 31.447,45 32,45 L49,45 C49.553,45 50,45.447 50,46 C50,46.553 49.553,47 49,47" id="Fill-700" fill="#BDC3C7" sketch:type="MSShapeGroup"></path>
            <path d="M46.259,21.341 L34.28,9.363 C33.292,8.374 31.691,8.374 30.703,9.363 L7.41,32.655 C6.422,33.643 6.422,35.245 7.41,36.233 L17.178,46 L25.178,46 L46.259,24.919 C47.247,23.931 47.247,22.329 46.259,21.341" id="Fill-1019" fill="#FFFFFF" sketch:type="MSShapeGroup"></path>
            <path d="M46.966,20.634 L34.987,8.655 C33.655,7.323 31.328,7.324 29.996,8.655 L6.703,31.947 C5.328,33.324 5.328,35.563 6.703,36.94 L16.764,47 L25.592,47 L35.317,37.274 C35.318,37.274 35.319,37.273 35.32,37.272 C35.321,37.272 35.321,37.27 35.322,37.27 L46.966,25.626 C48.343,24.25 48.342,22.01 46.966,20.634 L46.966,20.634 Z M24.764,45 L17.592,45 L8.117,35.525 C7.521,34.929 7.521,33.958 8.117,33.361 L19.056,22.423 L33.199,36.565 L24.764,45 L24.764,45 Z M45.552,24.212 L34.613,35.151 L20.47,21.009 L31.41,10.069 C31.987,9.494 32.994,9.492 33.573,10.069 L45.552,22.048 C46.148,22.645 46.148,23.615 45.552,24.212 L45.552,24.212 Z" id="Fill-1020" fill="#BDC3C7" sketch:type="MSShapeGroup"></path>
        </g>
    </g>
</svg>