<?xml version="1.0" encoding="UTF-8" standalone="no"?>
<svg width="58px" height="58px" viewBox="0 0 58 58" version="1.1" xmlns="http://www.w3.org/2000/svg" xmlns:xlink="http://www.w3.org/1999/xlink" xmlns:sketch="http://www.bohemiancoding.com/sketch/ns">
    <!-- Generator: Sketch 3.2.2 (9983) - http://www.bohemiancoding.com/sketch -->
    <title>70 - Download Message (Flat)</title>
    <desc>Created with Sketch.</desc>
    <defs></defs>
    <g id="Page-1" stroke="none" stroke-width="1" fill="none" fill-rule="evenodd" sketch:type="MSPage">
        <g id="70---Download-Message-(Flat)" sketch:type="MSLayerGroup">
            <path d="M0,0 L58,0 L58,58 L0,58 L0,0 Z" id="Fill-109" fill="#ECF0F1" sketch:type="MSShapeGroup"></path>
            <path d="M0,0 L58,0 L58,12 L0,12 L0,0 Z" id="Fill-110" fill="#546A79" sketch:type="MSShapeGroup"></path>
            <path d="M9,6 C9,7.657 7.657,9 6,9 C4.343,9 3,7.657 3,6 C3,4.343 4.343,3 6,3 C7.657,3 9,4.343 9,6" id="Fill-111" fill="#ED7161" sketch:type="MSShapeGroup"></path>
            <path d="M18,6 C18,7.657 16.657,9 15,9 C13.343,9 12,7.657 12,6 C12,4.343 13.343,3 15,3 C16.657,3 18,4.343 18,6" id="Fill-112" fill="#F0C419" sketch:type="MSShapeGroup"></path>
            <path d="M27,6 C27,7.657 25.657,9 24,9 C22.343,9 21,7.657 21,6 C21,4.343 22.343,3 24,3 C25.657,3 27,4.343 27,6" id="Fill-113" fill="#4FBA6F" sketch:type="MSShapeGroup"></path>
            <path d="M36,48 L22,48 C21.448,48 21,47.553 21,47 C21,46.447 21.448,46 22,46 L36,46 C36.552,46 37,46.447 37,47 C37,47.553 36.552,48 36,48" id="Fill-896" fill="#BDC3C7" sketch:type="MSShapeGroup"></path>
            <path d="M41,52 L16,52 C15.448,52 15,51.553 15,51 C15,50.447 15.448,50 16,50 L41,50 C41.552,50 42,50.447 42,51 C42,51.553 41.552,52 41,52" id="Fill-897" fill="#BDC3C7" sketch:type="MSShapeGroup"></path>
            <path d="M41,30 C41,36.627 35.627,42 29,42 C22.373,42 17,36.627 17,30 C17,23.373 22.373,18 29,18 C35.627,18 41,23.373 41,30" id="Fill-898" fill="#71C285" sketch:type="MSShapeGroup"></path>
            <path d="M34.707,30.293 C34.316,29.902 33.684,29.902 33.293,30.293 L30,33.586 L30,26 C30,25.447 29.552,25 29,25 C28.448,25 28,25.447 28,26 L28,33.586 L24.707,30.293 C24.316,29.902 23.684,29.902 23.293,30.293 C22.902,30.684 22.902,31.316 23.293,31.707 L28.292,36.706 C28.385,36.799 28.495,36.872 28.618,36.923 C28.74,36.973 28.87,37 29,37 C29.13,37 29.26,36.973 29.382,36.923 C29.505,36.872 29.615,36.799 29.708,36.706 L34.707,31.707 C35.098,31.316 35.098,30.684 34.707,30.293" id="Fill-899" fill="#FFFFFF" sketch:type="MSShapeGroup"></path>
        </g>
    </g>
</svg>