<?xml version="1.0" encoding="UTF-8" standalone="no"?>
<svg width="58px" height="58px" viewBox="0 0 58 58" version="1.1" xmlns="http://www.w3.org/2000/svg" xmlns:xlink="http://www.w3.org/1999/xlink" xmlns:sketch="http://www.bohemiancoding.com/sketch/ns">
    <!-- Generator: Sketch 3.2.2 (9983) - http://www.bohemiancoding.com/sketch -->
    <title>67 - Error Message (Flat)</title>
    <desc>Created with Sketch.</desc>
    <defs></defs>
    <g id="Page-1" stroke="none" stroke-width="1" fill="none" fill-rule="evenodd" sketch:type="MSPage">
        <g id="67---Error-Message-(Flat)" sketch:type="MSLayerGroup">
            <path d="M0,0 L58,0 L58,58 L0,58 L0,0 Z" id="Fill-54" fill="#ECF0F1" sketch:type="MSShapeGroup"></path>
            <path d="M0,0 L58,0 L58,12 L0,12 L0,0 Z" id="Fill-55" fill="#546A79" sketch:type="MSShapeGroup"></path>
            <path d="M9,6 C9,7.657 7.657,9 6,9 C4.343,9 3,7.657 3,6 C3,4.343 4.343,3 6,3 C7.657,3 9,4.343 9,6" id="Fill-56" fill="#ED7161" sketch:type="MSShapeGroup"></path>
            <path d="M18,6 C18,7.657 16.657,9 15,9 C13.343,9 12,7.657 12,6 C12,4.343 13.343,3 15,3 C16.657,3 18,4.343 18,6" id="Fill-57" fill="#F0C419" sketch:type="MSShapeGroup"></path>
            <path d="M27,6 C27,7.657 25.657,9 24,9 C22.343,9 21,7.657 21,6 C21,4.343 22.343,3 24,3 C25.657,3 27,4.343 27,6" id="Fill-58" fill="#4FBA6F" sketch:type="MSShapeGroup"></path>
            <path d="M35,48 L22,48 C21.448,48 21,47.553 21,47 C21,46.447 21.448,46 22,46 L35,46 C35.552,46 36,46.447 36,47 C36,47.553 35.552,48 35,48" id="Fill-907" fill="#BDC3C7" sketch:type="MSShapeGroup"></path>
            <path d="M40,52 L17,52 C16.448,52 16,51.553 16,51 C16,50.447 16.448,50 17,50 L40,50 C40.552,50 41,50.447 41,51 C41,51.553 40.552,52 40,52" id="Fill-908" fill="#BDC3C7" sketch:type="MSShapeGroup"></path>
            <path d="M17,30 C17,23.373 22.373,18 29,18 C35.627,18 41,23.373 41,30 C41,36.627 35.627,42 29,42 C22.373,42 17,36.627 17,30" id="Fill-909" fill="#ED7161" sketch:type="MSShapeGroup"></path>
            <path d="M30.414,30 L34.707,25.707 C35.098,25.316 35.098,24.684 34.707,24.293 C34.316,23.902 33.684,23.902 33.293,24.293 L29,28.586 L24.707,24.293 C24.316,23.902 23.684,23.902 23.293,24.293 C22.902,24.684 22.902,25.316 23.293,25.707 L27.586,30 L23.293,34.293 C22.902,34.684 22.902,35.316 23.293,35.707 C23.488,35.902 23.744,36 24,36 C24.256,36 24.512,35.902 24.707,35.707 L29,31.414 L33.293,35.707 C33.488,35.902 33.744,36 34,36 C34.256,36 34.512,35.902 34.707,35.707 C35.098,35.316 35.098,34.684 34.707,34.293 L30.414,30" id="Fill-910" fill="#FFFFFF" sketch:type="MSShapeGroup"></path>
        </g>
    </g>
</svg>