<?xml version="1.0" encoding="UTF-8" standalone="no"?>
<svg width="58px" height="58px" viewBox="0 0 58 58" version="1.1" xmlns="http://www.w3.org/2000/svg" xmlns:xlink="http://www.w3.org/1999/xlink" xmlns:sketch="http://www.bohemiancoding.com/sketch/ns">
    <!-- Generator: Sketch 3.2.2 (9983) - http://www.bohemiancoding.com/sketch -->
    <title>41 - Expand Window (Flat)</title>
    <desc>Created with Sketch.</desc>
    <defs></defs>
    <g id="Page-1" stroke="none" stroke-width="1" fill="none" fill-rule="evenodd" sketch:type="MSPage">
        <g id="41---Expand-Window-(Flat)" sketch:type="MSLayerGroup">
            <path d="M0,0 L58,0 L58,58 L0,58 L0,0 Z" id="Fill-208" fill="#ECF0F1" sketch:type="MSShapeGroup"></path>
            <path d="M0,0 L58,0 L58,12 L0,12 L0,0 Z" id="Fill-209" fill="#546A79" sketch:type="MSShapeGroup"></path>
            <path d="M9,6 C9,7.657 7.657,9 6,9 C4.343,9 3,7.657 3,6 C3,4.343 4.343,3 6,3 C7.657,3 9,4.343 9,6" id="Fill-210" fill="#ED7161" sketch:type="MSShapeGroup"></path>
            <path d="M18,6 C18,7.657 16.657,9 15,9 C13.343,9 12,7.657 12,6 C12,4.343 13.343,3 15,3 C16.657,3 18,4.343 18,6" id="Fill-211" fill="#F0C419" sketch:type="MSShapeGroup"></path>
            <path d="M27,6 C27,7.657 25.657,9 24,9 C22.343,9 21,7.657 21,6 C21,4.343 22.343,3 24,3 C25.657,3 27,4.343 27,6" id="Fill-212" fill="#4FBA6F" sketch:type="MSShapeGroup"></path>
            <path d="M6,53 C5.744,53 5.488,52.902 5.293,52.707 C4.902,52.316 4.902,51.684 5.293,51.293 L15.293,41.293 C15.684,40.902 16.316,40.902 16.707,41.293 C17.098,41.684 17.098,42.316 16.707,42.707 L6.707,52.707 C6.512,52.902 6.256,53 6,53" id="Fill-713" fill="#BDC3C7" sketch:type="MSShapeGroup"></path>
            <path d="M11,53 L6,53 C5.447,53 5,52.553 5,52 C5,51.447 5.447,51 6,51 L11,51 C11.553,51 12,51.447 12,52 C12,52.553 11.553,53 11,53" id="Fill-714" fill="#BDC3C7" sketch:type="MSShapeGroup"></path>
            <path d="M6,53 C5.447,53 5,52.553 5,52 L5,47 C5,46.447 5.447,46 6,46 C6.553,46 7,46.447 7,47 L7,52 C7,52.553 6.553,53 6,53" id="Fill-715" fill="#BDC3C7" sketch:type="MSShapeGroup"></path>
            <path d="M42,29 C41.744,29 41.488,28.902 41.293,28.707 C40.902,28.316 40.902,27.684 41.293,27.293 L51.293,17.293 C51.684,16.902 52.316,16.902 52.707,17.293 C53.098,17.684 53.098,18.316 52.707,18.707 L42.707,28.707 C42.512,28.902 42.256,29 42,29" id="Fill-716" fill="#BDC3C7" sketch:type="MSShapeGroup"></path>
            <path d="M52,19 L47,19 C46.447,19 46,18.553 46,18 C46,17.447 46.447,17 47,17 L52,17 C52.553,17 53,17.447 53,18 C53,18.553 52.553,19 52,19" id="Fill-717" fill="#BDC3C7" sketch:type="MSShapeGroup"></path>
            <path d="M52,24 C51.447,24 51,23.553 51,23 L51,18 C51,17.447 51.447,17 52,17 C52.553,17 53,17.447 53,18 L53,23 C53,23.553 52.553,24 52,24" id="Fill-718" fill="#BDC3C7" sketch:type="MSShapeGroup"></path>
        </g>
    </g>
</svg>