<?xml version="1.0" encoding="UTF-8" standalone="no"?>
<svg width="58px" height="58px" viewBox="0 0 58 58" version="1.1" xmlns="http://www.w3.org/2000/svg" xmlns:xlink="http://www.w3.org/1999/xlink" xmlns:sketch="http://www.bohemiancoding.com/sketch/ns">
    <!-- Generator: Sketch 3.2.2 (9983) - http://www.bohemiancoding.com/sketch -->
    <title>49 - Firefox (Flat)</title>
    <desc>Created with Sketch.</desc>
    <defs></defs>
    <g id="Page-1" stroke="none" stroke-width="1" fill="none" fill-rule="evenodd" sketch:type="MSPage">
        <g id="49---Firefox-(Flat)" sketch:type="MSLayerGroup">
            <path d="M0,0 L58,0 L58,58 L0,58 L0,0 Z" id="Fill-240" fill="#ECF0F1" sketch:type="MSShapeGroup"></path>
            <path d="M6,18 L18,18 L18,24 L6,24 L6,18 Z" id="Fill-977" fill="#FFFFFF" sketch:type="MSShapeGroup"></path>
            <path d="M6,29 L18,29 L18,35 L6,35 L6,29 Z" id="Fill-978" fill="#FFFFFF" sketch:type="MSShapeGroup"></path>
            <path d="M6,40 L18,40 L18,46 L6,46 L6,40 Z" id="Fill-979" fill="#FFFFFF" sketch:type="MSShapeGroup"></path>
            <path d="M23,18 L35,18 L35,24 L23,24 L23,18 Z" id="Fill-980" fill="#FFFFFF" sketch:type="MSShapeGroup"></path>
            <path d="M23,29 L35,29 L35,35 L23,35 L23,29 Z" id="Fill-981" fill="#FFFFFF" sketch:type="MSShapeGroup"></path>
            <path d="M23,40 L35,40 L35,46 L23,46 L23,40 Z" id="Fill-982" fill="#FFFFFF" sketch:type="MSShapeGroup"></path>
            <path d="M40,18 L52,18 L52,24 L40,24 L40,18 Z" id="Fill-983" fill="#FFFFFF" sketch:type="MSShapeGroup"></path>
            <path d="M40,29 L52,29 L52,35 L40,35 L40,29 Z" id="Fill-984" fill="#FFFFFF" sketch:type="MSShapeGroup"></path>
            <path d="M40,40 L52,40 L52,46 L40,46 L40,40 Z" id="Fill-985" fill="#FFFFFF" sketch:type="MSShapeGroup"></path>
            <path d="M0,0 L58,0 L58,12 L0,12 L0,0 Z" id="Fill-986" fill="#BDC3C7" sketch:type="MSShapeGroup"></path>
            <path d="M8,6 C8,7.105 7.105,8 6,8 C4.895,8 4,7.105 4,6 C4,4.895 4.895,4 6,4 C7.105,4 8,4.895 8,6" id="Fill-987" fill="#ED7161" sketch:type="MSShapeGroup"></path>
            <path d="M14,6 C14,7.105 13.105,8 12,8 C10.895,8 10,7.105 10,6 C10,4.895 10.895,4 12,4 C13.105,4 14,4.895 14,6" id="Fill-988" fill="#F0C419" sketch:type="MSShapeGroup"></path>
            <path d="M20,6 C20,7.105 19.105,8 18,8 C16.895,8 16,7.105 16,6 C16,4.895 16.895,4 18,4 C19.105,4 20,4.895 20,6" id="Fill-989" fill="#4FBA6F" sketch:type="MSShapeGroup"></path>
            <path d="M40,12 L25,12 L26.298,7.107 C26.717,5.849 27.894,5 29.22,5 L35.78,5 C37.106,5 38.283,5.849 38.702,7.107 L40,12" id="Fill-990" fill="#FFFFFF" sketch:type="MSShapeGroup"></path>
            <path d="M47,6 L46,6 L46,5 C46,4.447 45.552,4 45,4 C44.448,4 44,4.447 44,5 L44,6 L43,6 C42.448,6 42,6.447 42,7 C42,7.553 42.448,8 43,8 L44,8 L44,9 C44,9.553 44.448,10 45,10 C45.552,10 46,9.553 46,9 L46,8 L47,8 C47.552,8 48,7.553 48,7 C48,6.447 47.552,6 47,6" id="Fill-991" fill="#FFFFFF" sketch:type="MSShapeGroup"></path>
        </g>
    </g>
</svg>