<?xml version="1.0" encoding="UTF-8" standalone="no"?>
<svg width="58px" height="58px" viewBox="0 0 58 58" version="1.1" xmlns="http://www.w3.org/2000/svg" xmlns:xlink="http://www.w3.org/1999/xlink" xmlns:sketch="http://www.bohemiancoding.com/sketch/ns">
    <!-- Generator: Sketch 3.2.2 (9983) - http://www.bohemiancoding.com/sketch -->
    <title>84 - Grid (Flat)</title>
    <desc>Created with Sketch.</desc>
    <defs></defs>
    <g id="Page-1" stroke="none" stroke-width="1" fill="none" fill-rule="evenodd" sketch:type="MSPage">
        <g id="84---Grid-(Flat)" sketch:type="MSLayerGroup">
            <path d="M0,0 L58,0 L58,58 L0,58 L0,0 Z" id="Fill-776" fill="#ECF0F1" sketch:type="MSShapeGroup"></path>
            <path d="M0,0 L58,0 L58,12 L0,12 L0,0 Z" id="Fill-777" fill="#546A79" sketch:type="MSShapeGroup"></path>
            <path d="M9,6 C9,7.657 7.657,9 6,9 C4.343,9 3,7.657 3,6 C3,4.343 4.343,3 6,3 C7.657,3 9,4.343 9,6" id="Fill-778" fill="#ED7161" sketch:type="MSShapeGroup"></path>
            <path d="M18,6 C18,7.657 16.657,9 15,9 C13.343,9 12,7.657 12,6 C12,4.343 13.343,3 15,3 C16.657,3 18,4.343 18,6" id="Fill-779" fill="#F0C419" sketch:type="MSShapeGroup"></path>
            <path d="M27,6 C27,7.657 25.657,9 24,9 C22.343,9 21,7.657 21,6 C21,4.343 22.343,3 24,3 C25.657,3 27,4.343 27,6" id="Fill-780" fill="#4FBA6F" sketch:type="MSShapeGroup"></path>
            <path d="M5,18 L17,18 L17,32 L5,32 L5,18 Z" id="Fill-814" fill="#9777A8" sketch:type="MSShapeGroup"></path>
            <path d="M23,18 L35,18 L35,32 L23,32 L23,18 Z" id="Fill-815" fill="#F29C1F" sketch:type="MSShapeGroup"></path>
            <path d="M41,18 L53,18 L53,32 L41,32 L41,18 Z" id="Fill-816" fill="#FBD490" sketch:type="MSShapeGroup"></path>
            <path d="M5,38 L17,38 L17,52 L5,52 L5,38 Z" id="Fill-817" fill="#26B99A" sketch:type="MSShapeGroup"></path>
            <path d="M23,38 L35,38 L35,52 L23,52 L23,38 Z" id="Fill-818" fill="#ED7161" sketch:type="MSShapeGroup"></path>
            <path d="M41,38 L53,38 L53,52 L41,52 L41,38 Z" id="Fill-819" fill="#67B9CC" sketch:type="MSShapeGroup"></path>
        </g>
    </g>
</svg>