<?xml version="1.0" encoding="UTF-8" standalone="no"?>
<svg width="58px" height="58px" viewBox="0 0 58 58" version="1.1" xmlns="http://www.w3.org/2000/svg" xmlns:xlink="http://www.w3.org/1999/xlink" xmlns:sketch="http://www.bohemiancoding.com/sketch/ns">
    <!-- Generator: Sketch 3.2.2 (9983) - http://www.bohemiancoding.com/sketch -->
    <title>89 - Hero Header (Flat)</title>
    <desc>Created with Sketch.</desc>
    <defs></defs>
    <g id="Page-1" stroke="none" stroke-width="1" fill="none" fill-rule="evenodd" sketch:type="MSPage">
        <g id="89---Hero-Header-(Flat)" sketch:type="MSLayerGroup">
            <path d="M0,0 L58,0 L58,58 L0,58 L0,0 Z" id="Fill-751" fill="#ECF0F1" sketch:type="MSShapeGroup"></path>
            <path d="M0,0 L58,0 L58,12 L0,12 L0,0 Z" id="Fill-752" fill="#546A79" sketch:type="MSShapeGroup"></path>
            <path d="M9,6 C9,7.657 7.657,9 6,9 C4.343,9 3,7.657 3,6 C3,4.343 4.343,3 6,3 C7.657,3 9,4.343 9,6" id="Fill-753" fill="#ED7161" sketch:type="MSShapeGroup"></path>
            <path d="M18,6 C18,7.657 16.657,9 15,9 C13.343,9 12,7.657 12,6 C12,4.343 13.343,3 15,3 C16.657,3 18,4.343 18,6" id="Fill-754" fill="#F0C419" sketch:type="MSShapeGroup"></path>
            <path d="M27,6 C27,7.657 25.657,9 24,9 C22.343,9 21,7.657 21,6 C21,4.343 22.343,3 24,3 C25.657,3 27,4.343 27,6" id="Fill-755" fill="#4FBA6F" sketch:type="MSShapeGroup"></path>
            <path d="M6,47 L52,47 L52,52 L6,52 L6,47 Z" id="Fill-791" fill="#71C285" sketch:type="MSShapeGroup"></path>
            <path d="M6,18 L52,18 L52,29 L6,29 L6,18 Z" id="Fill-792" fill="#71C285" sketch:type="MSShapeGroup"></path>
            <path d="M7,34 L26,34 C26.552,34 27,33.552 27,33 C27,32.448 26.552,32 26,32 L7,32 C6.448,32 6,32.448 6,33 C6,33.552 6.448,34 7,34" id="Fill-793" fill="#BDC3C7" sketch:type="MSShapeGroup"></path>
            <path d="M7,38 L51,38 C51.552,38 52,37.552 52,37 C52,36.448 51.552,36 51,36 L7,36 C6.448,36 6,36.448 6,37 C6,37.552 6.448,38 7,38" id="Fill-794" fill="#BDC3C7" sketch:type="MSShapeGroup"></path>
            <path d="M51,40 L7,40 C6.448,40 6,40.448 6,41 C6,41.552 6.448,42 7,42 L51,42 C51.552,42 52,41.552 52,41 C52,40.448 51.552,40 51,40" id="Fill-795" fill="#BDC3C7" sketch:type="MSShapeGroup"></path>
        </g>
    </g>
</svg>