<?xml version="1.0" encoding="UTF-8" standalone="no"?>
<svg width="58px" height="58px" viewBox="0 0 58 58" version="1.1" xmlns="http://www.w3.org/2000/svg" xmlns:xlink="http://www.w3.org/1999/xlink" xmlns:sketch="http://www.bohemiancoding.com/sketch/ns">
    <!-- Generator: Sketch 3.2.2 (9983) - http://www.bohemiancoding.com/sketch -->
    <title>80 - Hero Message (Flat)</title>
    <desc>Created with Sketch.</desc>
    <defs></defs>
    <g id="Page-1" stroke="none" stroke-width="1" fill="none" fill-rule="evenodd" sketch:type="MSPage">
        <g id="80---Hero-Message-(Flat)" sketch:type="MSLayerGroup">
            <path d="M0,0 L58,0 L58,58 L0,58 L0,0 Z" id="Fill-173" fill="#ECF0F1" sketch:type="MSShapeGroup"></path>
            <path d="M0,0 L58,0 L58,12 L0,12 L0,0 Z" id="Fill-174" fill="#546A79" sketch:type="MSShapeGroup"></path>
            <path d="M9,6 C9,7.657 7.657,9 6,9 C4.343,9 3,7.657 3,6 C3,4.343 4.343,3 6,3 C7.657,3 9,4.343 9,6" id="Fill-175" fill="#ED7161" sketch:type="MSShapeGroup"></path>
            <path d="M18,6 C18,7.657 16.657,9 15,9 C13.343,9 12,7.657 12,6 C12,4.343 13.343,3 15,3 C16.657,3 18,4.343 18,6" id="Fill-176" fill="#F0C419" sketch:type="MSShapeGroup"></path>
            <path d="M27,6 C27,7.657 25.657,9 24,9 C22.343,9 21,7.657 21,6 C21,4.343 22.343,3 24,3 C25.657,3 27,4.343 27,6" id="Fill-177" fill="#4FBA6F" sketch:type="MSShapeGroup"></path>
            <path d="M5,17 L53,17 L53,53 L5,53 L5,17 Z" id="Fill-842" fill="#FFFFFF" sketch:type="MSShapeGroup"></path>
            <path d="M12,36 L44,36 C44.552,36 45,35.552 45,35 C45,34.448 44.552,34 44,34 L12,34 C11.448,34 11,34.448 11,35 C11,35.552 11.448,36 12,36" id="Fill-843" fill="#BDC3C7" sketch:type="MSShapeGroup"></path>
            <path d="M44,40 L12,40 C11.448,40 11,40.448 11,41 C11,41.552 11.448,42 12,42 L44,42 C44.552,42 45,41.552 45,41 C45,40.448 44.552,40 44,40" id="Fill-844" fill="#BDC3C7" sketch:type="MSShapeGroup"></path>
            <path d="M12,30 L21,30 C21.552,30 22,29.552 22,29 C22,28.448 21.552,28 21,28 L12,28 C11.448,28 11,28.448 11,29 C11,29.552 11.448,30 12,30" id="Fill-845" fill="#BDC3C7" sketch:type="MSShapeGroup"></path>
            <path d="M29,30 L32,30 C32.552,30 33,29.552 33,29 C33,28.448 32.552,28 32,28 L29,28 C28.448,28 28,28.448 28,29 C28,29.552 28.448,30 29,30" id="Fill-846" fill="#BDC3C7" sketch:type="MSShapeGroup"></path>
            <path d="M25,30 C25.26,30 25.52,29.89 25.71,29.71 C25.89,29.52 26,29.26 26,29 C26,28.74 25.89,28.48 25.71,28.29 C25.33,27.92 24.67,27.92 24.29,28.29 C24.11,28.48 24,28.74 24,29 C24,29.26 24.11,29.52 24.29,29.71 C24.48,29.89 24.74,30 25,30" id="Fill-847" fill="#BDC3C7" sketch:type="MSShapeGroup"></path>
        </g>
    </g>
</svg>