<?xml version="1.0" encoding="UTF-8" standalone="no"?>
<svg width="58px" height="58px" viewBox="0 0 58 58" version="1.1" xmlns="http://www.w3.org/2000/svg" xmlns:xlink="http://www.w3.org/1999/xlink" xmlns:sketch="http://www.bohemiancoding.com/sketch/ns">
    <!-- Generator: Sketch 3.2.2 (9983) - http://www.bohemiancoding.com/sketch -->
    <title>74 - Hero Video Header (Flat)</title>
    <desc>Created with Sketch.</desc>
    <defs></defs>
    <g id="Page-1" stroke="none" stroke-width="1" fill="none" fill-rule="evenodd" sketch:type="MSPage">
        <g id="74---Hero-Video-Header-(Flat)" sketch:type="MSLayerGroup">
            <path d="M0,0 L58,0 L58,58 L0,58 L0,0 Z" id="Fill-144" fill="#ECF0F1" sketch:type="MSShapeGroup"></path>
            <path d="M0,0 L58,0 L58,12 L0,12 L0,0 Z" id="Fill-145" fill="#546A79" sketch:type="MSShapeGroup"></path>
            <path d="M9,6 C9,7.657 7.657,9 6,9 C4.343,9 3,7.657 3,6 C3,4.343 4.343,3 6,3 C7.657,3 9,4.343 9,6" id="Fill-146" fill="#ED7161" sketch:type="MSShapeGroup"></path>
            <path d="M18,6 C18,7.657 16.657,9 15,9 C13.343,9 12,7.657 12,6 C12,4.343 13.343,3 15,3 C16.657,3 18,4.343 18,6" id="Fill-147" fill="#F0C419" sketch:type="MSShapeGroup"></path>
            <path d="M27,6 C27,7.657 25.657,9 24,9 C22.343,9 21,7.657 21,6 C21,4.343 22.343,3 24,3 C25.657,3 27,4.343 27,6" id="Fill-148" fill="#4FBA6F" sketch:type="MSShapeGroup"></path>
            <path d="M0,12 L58,12 L58,36 L0,36 L0,12 Z" id="Fill-271" fill="#95A5A5" sketch:type="MSShapeGroup"></path>
            <path d="M6,40 L18,40 L18,45 L6,45 L6,40 Z" id="Fill-873" fill="#8697CB" sketch:type="MSShapeGroup"></path>
            <path d="M40,40 L52,40 L52,45 L40,45 L40,40 Z" id="Fill-874" fill="#F0C419" sketch:type="MSShapeGroup"></path>
            <path d="M23,40 L35,40 L35,45 L23,45 L23,40 Z" id="Fill-875" fill="#71C285" sketch:type="MSShapeGroup"></path>
            <path d="M17,50 L7,50 C6.447,50 6,49.552 6,49 C6,48.448 6.447,48 7,48 L17,48 C17.553,48 18,48.448 18,49 C18,49.552 17.553,50 17,50" id="Fill-876" fill="#BDC3C7" sketch:type="MSShapeGroup"></path>
            <path d="M17,54 L7,54 C6.447,54 6,53.552 6,53 C6,52.448 6.447,52 7,52 L17,52 C17.553,52 18,52.448 18,53 C18,53.552 17.553,54 17,54" id="Fill-877" fill="#BDC3C7" sketch:type="MSShapeGroup"></path>
            <path d="M34,50 L24,50 C23.447,50 23,49.552 23,49 C23,48.448 23.447,48 24,48 L34,48 C34.553,48 35,48.448 35,49 C35,49.552 34.553,50 34,50" id="Fill-878" fill="#BDC3C7" sketch:type="MSShapeGroup"></path>
            <path d="M34,54 L24,54 C23.447,54 23,53.552 23,53 C23,52.448 23.447,52 24,52 L34,52 C34.553,52 35,52.448 35,53 C35,53.552 34.553,54 34,54" id="Fill-879" fill="#BDC3C7" sketch:type="MSShapeGroup"></path>
            <path d="M51,50 L41,50 C40.447,50 40,49.552 40,49 C40,48.448 40.447,48 41,48 L51,48 C51.553,48 52,48.448 52,49 C52,49.552 51.553,50 51,50" id="Fill-880" fill="#BDC3C7" sketch:type="MSShapeGroup"></path>
            <path d="M51,54 L41,54 C40.447,54 40,53.552 40,53 C40,52.448 40.447,52 41,52 L51,52 C51.553,52 52,52.448 52,53 C52,53.552 51.553,54 51,54" id="Fill-881" fill="#BDC3C7" sketch:type="MSShapeGroup"></path>
            <path d="M26,27.124 L26,20.876 C26,20.303 26.619,19.944 27.116,20.229 L32.514,23.33 C33.011,23.615 33.013,24.331 32.518,24.62 L27.121,27.768 C26.624,28.058 26,27.699 26,27.124" id="Fill-882" fill="#FFFFFF" sketch:type="MSShapeGroup"></path>
        </g>
    </g>
</svg>