<?xml version="1.0" encoding="UTF-8" standalone="no"?>
<svg width="58px" height="57px" viewBox="0 0 58 57" version="1.1" xmlns="http://www.w3.org/2000/svg" xmlns:xlink="http://www.w3.org/1999/xlink" xmlns:sketch="http://www.bohemiancoding.com/sketch/ns">
    <!-- Generator: Sketch 3.2.2 (9983) - http://www.bohemiancoding.com/sketch -->
    <title>29 - Increment Alignment left (Flat)</title>
    <desc>Created with Sketch.</desc>
    <defs></defs>
    <g id="Page-1" stroke="none" stroke-width="1" fill="none" fill-rule="evenodd" sketch:type="MSPage">
        <g id="29---Increment-Alignment-left-(Flat)" sketch:type="MSLayerGroup">
            <path d="M0,0 L58,0 L58,57 L0,57 L0,0 Z" id="Fill-443" fill="#ECF0F1" sketch:type="MSShapeGroup"></path>
            <path d="M33,12 L12,12 C11.448,12 11,11.553 11,11 C11,10.447 11.448,10 12,10 L33,10 C33.552,10 34,10.447 34,11 C34,11.553 33.552,12 33,12" id="Fill-444" fill="#BDC3C7" sketch:type="MSShapeGroup"></path>
            <path d="M33,19 L20,19 C19.448,19 19,18.553 19,18 C19,17.447 19.448,17 20,17 L33,17 C33.552,17 34,17.447 34,18 C34,18.553 33.552,19 33,19" id="Fill-445" fill="#BDC3C7" sketch:type="MSShapeGroup"></path>
            <path d="M33,26 L12,26 C11.448,26 11,25.553 11,25 C11,24.447 11.448,24 12,24 L33,24 C33.552,24 34,24.447 34,25 C34,25.553 33.552,26 33,26" id="Fill-446" fill="#BDC3C7" sketch:type="MSShapeGroup"></path>
            <path d="M33,33 L16,33 C15.448,33 15,32.553 15,32 C15,31.447 15.448,31 16,31 L33,31 C33.552,31 34,31.447 34,32 C34,32.553 33.552,33 33,33" id="Fill-447" fill="#BDC3C7" sketch:type="MSShapeGroup"></path>
            <path d="M33,40 L20,40 C19.448,40 19,39.553 19,39 C19,38.447 19.448,38 20,38 L33,38 C33.552,38 34,38.447 34,39 C34,39.553 33.552,40 33,40" id="Fill-448" fill="#BDC3C7" sketch:type="MSShapeGroup"></path>
            <path d="M33,47 L12,47 C11.448,47 11,46.553 11,46 C11,45.447 11.448,45 12,45 L33,45 C33.552,45 34,45.447 34,46 C34,46.553 33.552,47 33,47" id="Fill-449" fill="#BDC3C7" sketch:type="MSShapeGroup"></path>
            <path d="M40,47 C39.448,47 39,46.553 39,46 L39,11 C39,10.447 39.448,10 40,10 C40.552,10 41,10.447 41,11 L41,46 C41,46.553 40.552,47 40,47" id="Fill-450" fill="#BDC3C7" sketch:type="MSShapeGroup"></path>
            <path d="M43.999,30 C43.801,30 43.601,29.941 43.427,29.819 C42.974,29.503 42.864,28.879 43.181,28.427 L50.181,18.427 C50.498,17.975 51.121,17.865 51.573,18.181 C52.026,18.497 52.136,19.121 51.819,19.573 L44.819,29.573 C44.624,29.852 44.314,30 43.999,30" id="Fill-451" fill="#BDC3C7" sketch:type="MSShapeGroup"></path>
            <path d="M51.001,40 C50.685,40 50.375,39.852 50.181,39.573 L43.181,29.573 C42.864,29.121 42.974,28.497 43.427,28.181 C43.879,27.865 44.502,27.975 44.819,28.427 L51.819,38.427 C52.136,38.879 52.026,39.503 51.573,39.819 C51.399,39.941 51.199,40 51.001,40" id="Fill-452" fill="#BDC3C7" sketch:type="MSShapeGroup"></path>
        </g>
    </g>
</svg>