<?xml version="1.0" encoding="UTF-8" standalone="no"?>
<svg width="58px" height="57px" viewBox="0 0 58 57" version="1.1" xmlns="http://www.w3.org/2000/svg" xmlns:xlink="http://www.w3.org/1999/xlink" xmlns:sketch="http://www.bohemiancoding.com/sketch/ns">
    <!-- Generator: Sketch 3.2.2 (9983) - http://www.bohemiancoding.com/sketch -->
    <title>30 - Increment Alignment Right (Flat)</title>
    <desc>Created with Sketch.</desc>
    <defs></defs>
    <g id="Page-1" stroke="none" stroke-width="1" fill="none" fill-rule="evenodd" sketch:type="MSPage">
        <g id="30---Increment-Alignment-Right-(Flat)" sketch:type="MSLayerGroup">
            <path d="M0,0 L58,0 L58,57 L0,57 L0,0 Z" id="Fill-433" fill="#ECF0F1" sketch:type="MSShapeGroup"></path>
            <path d="M46,12 L25,12 C24.448,12 24,11.553 24,11 C24,10.447 24.448,10 25,10 L46,10 C46.552,10 47,10.447 47,11 C47,11.553 46.552,12 46,12" id="Fill-434" fill="#BDC3C7" sketch:type="MSShapeGroup"></path>
            <path d="M38,19 L25,19 C24.448,19 24,18.553 24,18 C24,17.447 24.448,17 25,17 L38,17 C38.552,17 39,17.447 39,18 C39,18.553 38.552,19 38,19" id="Fill-435" fill="#BDC3C7" sketch:type="MSShapeGroup"></path>
            <path d="M46,26 L25,26 C24.448,26 24,25.553 24,25 C24,24.447 24.448,24 25,24 L46,24 C46.552,24 47,24.447 47,25 C47,25.553 46.552,26 46,26" id="Fill-436" fill="#BDC3C7" sketch:type="MSShapeGroup"></path>
            <path d="M42,33 L25,33 C24.448,33 24,32.553 24,32 C24,31.447 24.448,31 25,31 L42,31 C42.552,31 43,31.447 43,32 C43,32.553 42.552,33 42,33" id="Fill-437" fill="#BDC3C7" sketch:type="MSShapeGroup"></path>
            <path d="M38,40 L25,40 C24.448,40 24,39.553 24,39 C24,38.447 24.448,38 25,38 L38,38 C38.552,38 39,38.447 39,39 C39,39.553 38.552,40 38,40" id="Fill-438" fill="#BDC3C7" sketch:type="MSShapeGroup"></path>
            <path d="M46,47 L25,47 C24.448,47 24,46.553 24,46 C24,45.447 24.448,45 25,45 L46,45 C46.552,45 47,45.447 47,46 C47,46.553 46.552,47 46,47" id="Fill-439" fill="#BDC3C7" sketch:type="MSShapeGroup"></path>
            <path d="M18,47 C17.448,47 17,46.553 17,46 L17,11 C17,10.447 17.448,10 18,10 C18.552,10 19,10.447 19,11 L19,46 C19,46.553 18.552,47 18,47" id="Fill-440" fill="#BDC3C7" sketch:type="MSShapeGroup"></path>
            <path d="M14.001,30 C13.685,30 13.375,29.852 13.181,29.573 L6.181,19.573 C5.864,19.121 5.974,18.497 6.427,18.181 C6.879,17.865 7.502,17.975 7.819,18.427 L14.819,28.427 C15.136,28.879 15.026,29.503 14.573,29.819 C14.399,29.941 14.199,30 14.001,30" id="Fill-441" fill="#BDC3C7" sketch:type="MSShapeGroup"></path>
            <path d="M6.999,40 C6.801,40 6.601,39.941 6.427,39.819 C5.974,39.503 5.864,38.879 6.181,38.427 L13.181,28.427 C13.498,27.975 14.121,27.865 14.573,28.181 C15.026,28.497 15.136,29.121 14.819,29.573 L7.819,39.573 C7.624,39.852 7.315,40 6.999,40" id="Fill-442" fill="#BDC3C7" sketch:type="MSShapeGroup"></path>
        </g>
    </g>
</svg>