<?xml version="1.0" encoding="UTF-8" standalone="no"?>
<svg width="58px" height="57px" viewBox="0 0 58 57" version="1.1" xmlns="http://www.w3.org/2000/svg" xmlns:xlink="http://www.w3.org/1999/xlink" xmlns:sketch="http://www.bohemiancoding.com/sketch/ns">
    <!-- Generator: Sketch 3.2.2 (9983) - http://www.bohemiancoding.com/sketch -->
    <title>24 - Insert From Left (Flat)</title>
    <desc>Created with Sketch.</desc>
    <defs></defs>
    <g id="Page-1" stroke="none" stroke-width="1" fill="none" fill-rule="evenodd" sketch:type="MSPage">
        <g id="24---Insert-From-Left-(Flat)" sketch:type="MSLayerGroup">
            <path d="M0,0 L58,0 L58,57 L0,57 L0,0 Z" id="Fill-480" fill="#ECF0F1" sketch:type="MSShapeGroup"></path>
            <path d="M46,10 L11,10 C10.447,10 10,9.553 10,9 C10,8.447 10.447,8 11,8 L46,8 C46.553,8 47,8.447 47,9 C47,9.553 46.553,10 46,10" id="Fill-481" fill="#BDC3C7" sketch:type="MSShapeGroup"></path>
            <path d="M46,17 L11,17 C10.447,17 10,16.553 10,16 C10,15.447 10.447,15 11,15 L46,15 C46.553,15 47,15.447 47,16 C47,16.553 46.553,17 46,17" id="Fill-482" fill="#BDC3C7" sketch:type="MSShapeGroup"></path>
            <path d="M46,26 L29,26 C28.447,26 28,25.553 28,25 C28,24.447 28.447,24 29,24 L46,24 C46.553,24 47,24.447 47,25 C47,25.553 46.553,26 46,26" id="Fill-483" fill="#BDC3C7" sketch:type="MSShapeGroup"></path>
            <path d="M46,33 L29,33 C28.447,33 28,32.553 28,32 C28,31.447 28.447,31 29,31 L46,31 C46.553,31 47,31.447 47,32 C47,32.553 46.553,33 46,33" id="Fill-484" fill="#BDC3C7" sketch:type="MSShapeGroup"></path>
            <path d="M46,42 L11,42 C10.447,42 10,41.553 10,41 C10,40.447 10.447,40 11,40 L46,40 C46.553,40 47,40.447 47,41 C47,41.553 46.553,42 46,42" id="Fill-485" fill="#BDC3C7" sketch:type="MSShapeGroup"></path>
            <path d="M46,49 L11,49 C10.447,49 10,48.553 10,48 C10,47.447 10.447,47 11,47 L46,47 C46.553,47 47,47.447 47,48 C47,48.553 46.553,49 46,49" id="Fill-486" fill="#BDC3C7" sketch:type="MSShapeGroup"></path>
            <path d="M22,29 L15,23 L15,26 L7,26 L7,32 L15,32 L15,35 L22,29" id="Fill-487" fill="#BDC3C7" sketch:type="MSShapeGroup"></path>
            <path d="M14,37.174 L14,33 L6,33 L6,25 L14,25 L14,20.826 L23.536,29 L14,37.174 L14,37.174 Z M8,31 L16,31 L16,32.826 L20.464,29 L16,25.174 L16,27 L8,27 L8,31 L8,31 Z" id="Fill-488" fill="#BDC3C7" sketch:type="MSShapeGroup"></path>
        </g>
    </g>
</svg>