<?xml version="1.0" encoding="UTF-8" standalone="no"?>
<svg width="58px" height="58px" viewBox="0 0 58 58" version="1.1" xmlns="http://www.w3.org/2000/svg" xmlns:xlink="http://www.w3.org/1999/xlink" xmlns:sketch="http://www.bohemiancoding.com/sketch/ns">
    <!-- Generator: Sketch 3.2.2 (9983) - http://www.bohemiancoding.com/sketch -->
    <title>50 - Internet Explorer (Flat)</title>
    <desc>Created with Sketch.</desc>
    <defs></defs>
    <g id="Page-1" stroke="none" stroke-width="1" fill="none" fill-rule="evenodd" sketch:type="MSPage">
        <g id="50---Internet-Explorer-(Flat)" sketch:type="MSLayerGroup">
            <path d="M0,0 L58,0 L58,58 L0,58 L0,0 Z" id="Fill-239" fill="#ECF0F1" sketch:type="MSShapeGroup"></path>
            <path d="M19,31 C19,33.761 16.761,36 14,36 C11.239,36 9,33.761 9,31 C9,28.239 11.239,26 14,26 C16.761,26 19,28.239 19,31" id="Fill-968" fill="#4FBA6F" sketch:type="MSShapeGroup"></path>
            <path d="M0,12 L58,12 L58,17 L0,17 L0,12 Z" id="Fill-969" fill="#FFFFFF" sketch:type="MSShapeGroup"></path>
            <path d="M0,0 L58,0 L58,12 L0,12 L0,0 Z" id="Fill-970" fill="#BDC3C7" sketch:type="MSShapeGroup"></path>
            <path d="M54.707,3.707 L53.293,2.293 L51,4.586 L48.707,2.293 L47.293,3.707 L49.586,6 L47.293,8.293 L48.707,9.707 L51,7.414 L53.293,9.707 L54.707,8.293 L52.414,6 L54.707,3.707" id="Fill-971" fill="#7F8C8D" sketch:type="MSShapeGroup"></path>
            <path d="M34,12 L36,12 L36,17 L34,17 L34,12 Z" id="Fill-972" fill="#BDC3C7" sketch:type="MSShapeGroup"></path>
            <path d="M24,33 L46,33 C46.552,33 47,32.553 47,32 C47,31.447 46.552,31 46,31 L24,31 C23.448,31 23,31.447 23,32 C23,32.553 23.448,33 24,33" id="Fill-973" fill="#BDC3C7" sketch:type="MSShapeGroup"></path>
            <path d="M46,37 L24,37 C23.448,37 23,37.447 23,38 C23,38.553 23.448,39 24,39 L46,39 C46.552,39 47,38.553 47,38 C47,37.447 46.552,37 46,37" id="Fill-974" fill="#BDC3C7" sketch:type="MSShapeGroup"></path>
            <path d="M24,27 L33,27 C33.552,27 34,26.553 34,26 C34,25.447 33.552,25 33,25 L24,25 C23.448,25 23,25.447 23,26 C23,26.553 23.448,27 24,27" id="Fill-975" fill="#BDC3C7" sketch:type="MSShapeGroup"></path>
            <path d="M37,27 C37.26,27 37.52,26.89 37.71,26.71 C37.89,26.519 38,26.26 38,26 C38,25.74 37.89,25.479 37.71,25.29 C37.34,24.92 36.66,24.92 36.29,25.29 C36.11,25.479 36,25.74 36,26 C36,26.26 36.11,26.519 36.29,26.71 C36.48,26.89 36.74,27 37,27" id="Fill-976" fill="#BDC3C7" sketch:type="MSShapeGroup"></path>
        </g>
    </g>
</svg>