<?xml version="1.0" encoding="UTF-8" standalone="no"?>
<svg width="58px" height="58px" viewBox="0 0 58 58" version="1.1" xmlns="http://www.w3.org/2000/svg" xmlns:xlink="http://www.w3.org/1999/xlink" xmlns:sketch="http://www.bohemiancoding.com/sketch/ns">
    <!-- Generator: Sketch 3.2.2 (9983) - http://www.bohemiancoding.com/sketch -->
    <title>82 - Isotope (Flat)</title>
    <desc>Created with Sketch.</desc>
    <defs></defs>
    <g id="Page-1" stroke="none" stroke-width="1" fill="none" fill-rule="evenodd" sketch:type="MSPage">
        <g id="82---Isotope-(Flat)" sketch:type="MSLayerGroup">
            <path d="M0,0 L58,0 L58,58 L0,58 L0,0 Z" id="Fill-786" fill="#ECF0F1" sketch:type="MSShapeGroup"></path>
            <path d="M0,0 L58,0 L58,12 L0,12 L0,0 Z" id="Fill-787" fill="#546A79" sketch:type="MSShapeGroup"></path>
            <path d="M9,6 C9,7.657 7.657,9 6,9 C4.343,9 3,7.657 3,6 C3,4.343 4.343,3 6,3 C7.657,3 9,4.343 9,6" id="Fill-788" fill="#ED7161" sketch:type="MSShapeGroup"></path>
            <path d="M18,6 C18,7.657 16.657,9 15,9 C13.343,9 12,7.657 12,6 C12,4.343 13.343,3 15,3 C16.657,3 18,4.343 18,6" id="Fill-789" fill="#F0C419" sketch:type="MSShapeGroup"></path>
            <path d="M27,6 C27,7.657 25.657,9 24,9 C22.343,9 21,7.657 21,6 C21,4.343 22.343,3 24,3 C25.657,3 27,4.343 27,6" id="Fill-790" fill="#4FBA6F" sketch:type="MSShapeGroup"></path>
            <path d="M4,44 L17,44 L17,54 L4,54 L4,44 Z" id="Fill-824" fill="#F0C419" sketch:type="MSShapeGroup"></path>
            <path d="M22,44 L35,44 L35,54 L22,54 L22,44 Z" id="Fill-825" fill="#F29C1F" sketch:type="MSShapeGroup"></path>
            <path d="M4,16 L17,16 L17,26 L4,26 L4,16 Z" id="Fill-826" fill="#8697CB" sketch:type="MSShapeGroup"></path>
            <path d="M22,16 L35,16 L35,26 L22,26 L22,16 Z" id="Fill-827" fill="#556080" sketch:type="MSShapeGroup"></path>
            <path d="M40,16 L53,16 L53,26 L40,26 L40,16 Z" id="Fill-828" fill="#9777A8" sketch:type="MSShapeGroup"></path>
            <path d="M4,30 L17,30 L17,40 L4,40 L4,30 Z" id="Fill-829" fill="#67B9CC" sketch:type="MSShapeGroup"></path>
            <path d="M40,44 L53,44 L53,54 L40,54 L40,44 Z" id="Fill-830" fill="#E57E25" sketch:type="MSShapeGroup"></path>
            <path d="M22,30 L35,30 L35,40 L22,40 L22,30 Z" id="Fill-831" fill="#26B99A" sketch:type="MSShapeGroup"></path>
            <path d="M40,30 L53,30 L53,40 L40,40 L40,30 Z" id="Fill-832" fill="#71C285" sketch:type="MSShapeGroup"></path>
        </g>
    </g>
</svg>