<?xml version="1.0" encoding="UTF-8" standalone="no"?>
<svg width="58px" height="58px" viewBox="0 0 58 58" version="1.1" xmlns="http://www.w3.org/2000/svg" xmlns:xlink="http://www.w3.org/1999/xlink" xmlns:sketch="http://www.bohemiancoding.com/sketch/ns">
    <!-- Generator: Sketch 3.2.2 (9983) - http://www.bohemiancoding.com/sketch -->
    <title>97 - Left Right Sidebar (Flat)</title>
    <desc>Created with Sketch.</desc>
    <defs></defs>
    <g id="Page-1" stroke="none" stroke-width="1" fill="none" fill-rule="evenodd" sketch:type="MSPage">
        <g id="97---Left-Right-Sidebar-(Flat)" sketch:type="MSLayerGroup">
            <path d="M0,0.04 L58,0.04 L58,58 L0,58 L0,0.04 Z" id="Fill-19" fill="#ECF0F1" sketch:type="MSShapeGroup"></path>
            <path d="M0,0.04 L58,0.04 L58,12 L0,12 L0,0.04 Z" id="Fill-20" fill="#546A79" sketch:type="MSShapeGroup"></path>
            <path d="M9,6 C9,7.657 7.657,9 6,9 C4.343,9 3,7.657 3,6 C3,4.343 4.343,3 6,3 C7.657,3 9,4.343 9,6" id="Fill-21" fill="#ED7161" sketch:type="MSShapeGroup"></path>
            <path d="M18,6 C18,7.657 16.657,9 15,9 C13.343,9 12,7.657 12,6 C12,4.343 13.343,3 15,3 C16.657,3 18,4.343 18,6" id="Fill-22" fill="#F0C419" sketch:type="MSShapeGroup"></path>
            <path d="M27,6 C27,7.657 25.657,9 24,9 C22.343,9 21,7.657 21,6 C21,4.343 22.343,3 24,3 C25.657,3 27,4.343 27,6" id="Fill-23" fill="#4FBA6F" sketch:type="MSShapeGroup"></path>
            <path d="M45,17 L53,17 L53,53 L45,53 L45,17 Z" id="Fill-722" fill="#BDC3C7" sketch:type="MSShapeGroup"></path>
            <path d="M5,17 L13,17 L13,53 L5,53 L5,17 Z" id="Fill-723" fill="#BDC3C7" sketch:type="MSShapeGroup"></path>
            <path d="M18,47 L40,47 L40,53 L18,53 L18,47 Z" id="Fill-724" fill="#71C285" sketch:type="MSShapeGroup"></path>
            <path d="M18,17 L40,17 L40,29 L18,29 L18,17 Z" id="Fill-725" fill="#71C285" sketch:type="MSShapeGroup"></path>
            <path d="M28,34 L19,34 C18.448,34 18,33.552 18,33 C18,32.448 18.448,32 19,32 L28,32 C28.552,32 29,32.448 29,33 C29,33.552 28.552,34 28,34" id="Fill-726" fill="#BDC3C7" sketch:type="MSShapeGroup"></path>
            <path d="M39,38 L19,38 C18.448,38 18,37.552 18,37 C18,36.448 18.448,36 19,36 L39,36 C39.552,36 40,36.448 40,37 C40,37.552 39.552,38 39,38" id="Fill-727" fill="#BDC3C7" sketch:type="MSShapeGroup"></path>
            <path d="M39,42 L19,42 C18.448,42 18,41.552 18,41 C18,40.448 18.448,40 19,40 L39,40 C39.552,40 40,40.448 40,41 C40,41.552 39.552,42 39,42" id="Fill-728" fill="#BDC3C7" sketch:type="MSShapeGroup"></path>
        </g>
    </g>
</svg>