<?xml version="1.0" encoding="UTF-8" standalone="no"?>
<svg width="58px" height="57px" viewBox="0 0 58 57" version="1.1" xmlns="http://www.w3.org/2000/svg" xmlns:xlink="http://www.w3.org/1999/xlink" xmlns:sketch="http://www.bohemiancoding.com/sketch/ns">
    <!-- Generator: Sketch 3.2.2 (9983) - http://www.bohemiancoding.com/sketch -->
    <title>33 - Lowercase (Flat)</title>
    <desc>Created with Sketch.</desc>
    <defs></defs>
    <g id="Page-1" stroke="none" stroke-width="1" fill="none" fill-rule="evenodd" sketch:type="MSPage">
        <g id="33---Lowercase-(Flat)" sketch:type="MSLayerGroup">
            <path d="M0,0 L58,0 L58,57 L0,57 L0,0 Z" id="Fill-603" fill="#ECF0F1" sketch:type="MSShapeGroup"></path>
            <path d="M6,46 C5.887,46 5.771,45.98 5.658,45.939 C5.14,45.751 4.871,45.178 5.06,44.658 L17.06,11.658 C17.249,11.14 17.822,10.873 18.342,11.061 C18.86,11.249 19.129,11.822 18.939,12.342 L6.939,45.342 C6.792,45.748 6.408,46 6,46" id="Fill-604" fill="#BDC3C7" sketch:type="MSShapeGroup"></path>
            <path d="M30,46 C29.592,46 29.208,45.748 29.06,45.342 L17.06,12.342 C16.871,11.822 17.14,11.249 17.658,11.061 C18.179,10.872 18.751,11.14 18.939,11.658 L30.939,44.658 C31.129,45.178 30.86,45.751 30.342,45.939 C30.229,45.98 30.113,46 30,46" id="Fill-605" fill="#BDC3C7" sketch:type="MSShapeGroup"></path>
            <path d="M35,46 C34.882,46 34.761,45.98 34.644,45.935 C34.128,45.738 33.869,45.16 34.065,44.644 L42.065,23.644 C42.263,23.128 42.839,22.867 43.356,23.065 C43.872,23.262 44.131,23.84 43.935,24.356 L35.935,45.356 C35.782,45.755 35.402,46 35,46" id="Fill-606" fill="#BDC3C7" sketch:type="MSShapeGroup"></path>
            <path d="M51,46 C50.598,46 50.218,45.755 50.065,45.356 L42.065,24.356 C41.869,23.84 42.128,23.262 42.644,23.065 C43.157,22.867 43.737,23.128 43.935,23.644 L51.935,44.644 C52.131,45.16 51.872,45.738 51.356,45.935 C51.239,45.98 51.118,46 51,46" id="Fill-607" fill="#BDC3C7" sketch:type="MSShapeGroup"></path>
            <path d="M25.637,34 L10.363,34 C9.81,34 9.363,33.553 9.363,33 C9.363,32.447 9.81,32 10.363,32 L25.637,32 C26.19,32 26.637,32.447 26.637,33 C26.637,33.553 26.19,34 25.637,34" id="Fill-608" fill="#BDC3C7" sketch:type="MSShapeGroup"></path>
            <path d="M47.952,38 L38.048,38 C37.495,38 37.048,37.553 37.048,37 C37.048,36.447 37.495,36 38.048,36 L47.952,36 C48.505,36 48.952,36.447 48.952,37 C48.952,37.553 48.505,38 47.952,38" id="Fill-609" fill="#BDC3C7" sketch:type="MSShapeGroup"></path>
            <path d="M43,20 C42.744,20 42.488,19.902 42.293,19.707 C41.902,19.316 41.902,18.684 42.293,18.293 L47.293,13.293 C47.684,12.902 48.316,12.902 48.707,13.293 C49.098,13.684 49.098,14.316 48.707,14.707 L43.707,19.707 C43.512,19.902 43.256,20 43,20" id="Fill-610" fill="#BDC3C7" sketch:type="MSShapeGroup"></path>
            <path d="M43,20 C42.744,20 42.488,19.902 42.293,19.707 L37.293,14.707 C36.902,14.316 36.902,13.684 37.293,13.293 C37.684,12.902 38.316,12.902 38.707,13.293 L43.707,18.293 C44.098,18.684 44.098,19.316 43.707,19.707 C43.512,19.902 43.256,20 43,20" id="Fill-611" fill="#BDC3C7" sketch:type="MSShapeGroup"></path>
            <path d="M43,20 C42.447,20 42,19.553 42,19 L42,9 C42,8.447 42.447,8 43,8 C43.553,8 44,8.447 44,9 L44,19 C44,19.553 43.553,20 43,20" id="Fill-612" fill="#BDC3C7" sketch:type="MSShapeGroup"></path>
        </g>
    </g>
</svg>