<?xml version="1.0" encoding="UTF-8" standalone="no"?>
<svg width="58px" height="58px" viewBox="0 0 58 58" version="1.1" xmlns="http://www.w3.org/2000/svg" xmlns:xlink="http://www.w3.org/1999/xlink" xmlns:sketch="http://www.bohemiancoding.com/sketch/ns">
    <!-- Generator: Sketch 3.2.2 (9983) - http://www.bohemiancoding.com/sketch -->
    <title>45 - Maximize (Flat)</title>
    <desc>Created with Sketch.</desc>
    <defs></defs>
    <g id="Page-1" stroke="none" stroke-width="1" fill="none" fill-rule="evenodd" sketch:type="MSPage">
        <g id="45---Maximize-(Flat)" sketch:type="MSLayerGroup">
            <path d="M0,0 L58,0 L58,58 L0,58 L0,0 Z" id="Fill-188" fill="#ECF0F1" sketch:type="MSShapeGroup"></path>
            <path d="M0,0 L58,0 L58,12 L0,12 L0,0 Z" id="Fill-189" fill="#546A79" sketch:type="MSShapeGroup"></path>
            <path d="M9,6 C9,7.657 7.657,9 6,9 C4.343,9 3,7.657 3,6 C3,4.343 4.343,3 6,3 C7.657,3 9,4.343 9,6" id="Fill-190" fill="#ED7161" sketch:type="MSShapeGroup"></path>
            <path d="M18,6 C18,7.657 16.657,9 15,9 C13.343,9 12,7.657 12,6 C12,4.343 13.343,3 15,3 C16.657,3 18,4.343 18,6" id="Fill-191" fill="#F0C419" sketch:type="MSShapeGroup"></path>
            <path d="M27,6 C27,7.657 25.657,9 24,9 C22.343,9 21,7.657 21,6 C21,4.343 22.343,3 24,3 C25.657,3 27,4.343 27,6" id="Fill-192" fill="#4FBA6F" sketch:type="MSShapeGroup"></path>
            <path d="M43,48 L41,48 C40.447,48 40,47.553 40,47 C40,46.447 40.447,46 41,46 C41,45.447 41.447,45 42,45 C42.553,45 43,45.447 43,46 L43,48" id="Fill-702" fill="#BDC3C7" sketch:type="MSShapeGroup"></path>
            <path d="M37.692,48 L36.038,48 C35.485,48 35.038,47.553 35.038,47 C35.038,46.447 35.485,46 36.038,46 L37.692,46 C38.245,46 38.692,46.447 38.692,47 C38.692,47.553 38.245,48 37.692,48 L37.692,48 Z M32.73,48 L31.077,48 C30.524,48 30.077,47.553 30.077,47 C30.077,46.447 30.524,46 31.077,46 L32.73,46 C33.283,46 33.731,46.447 33.731,47 C33.731,47.553 33.283,48 32.73,48 L32.73,48 Z" id="Fill-703" fill="#BDC3C7" sketch:type="MSShapeGroup"></path>
            <path d="M27.769,48 L26.115,48 C25.562,48 25.115,47.553 25.115,47 C25.115,46.447 25.562,46 26.115,46 L27.769,46 C28.322,46 28.769,46.447 28.769,47 C28.769,47.553 28.322,48 27.769,48 L27.769,48 Z M22.808,48 L21.154,48 C20.602,48 20.154,47.553 20.154,47 C20.154,46.447 20.602,46 21.154,46 L22.808,46 C23.36,46 23.808,46.447 23.808,47 C23.808,47.553 23.36,48 22.808,48 L22.808,48 Z M17.847,48 L16.192,48 C15.64,48 15.192,47.553 15.192,47 C15.192,46.447 15.64,46 16.192,46 L17.847,46 C18.399,46 18.847,46.447 18.847,47 C18.847,47.553 18.399,48 17.847,48 L17.847,48 Z M12.885,48 L11.231,48 C10.679,48 10.231,47.553 10.231,47 C10.231,46.447 10.679,46 11.231,46 L12.885,46 C13.437,46 13.885,46.447 13.885,47 C13.885,47.553 13.437,48 12.885,48 L12.885,48 Z M7.924,48 L6.269,48 C5.717,48 5.269,47.553 5.269,47 C5.269,46.447 5.717,46 6.269,46 L7.924,46 C8.477,46 8.924,46.447 8.924,47 C8.924,47.553 8.477,48 7.924,48 L7.924,48 Z M2.962,48 L1.308,48 C0.755,48 0.308,47.553 0.308,47 C0.308,46.447 0.755,46 1.308,46 L2.962,46 C3.515,46 3.962,46.447 3.962,47 C3.962,47.553 3.515,48 2.962,48 L2.962,48 Z" id="Fill-704" fill="#BDC3C7" sketch:type="MSShapeGroup"></path>
            <path d="M42,16 C41.447,16 41,15.553 41,15 C40.447,15 40,14.553 40,14 C40,13.447 40.447,13 41,13 L43,13 L43,15 C43,15.553 42.553,16 42,16" id="Fill-705" fill="#BDC3C7" sketch:type="MSShapeGroup"></path>
            <path d="M42,26.941 C41.447,26.941 41,26.494 41,25.941 L41,24.118 C41,23.565 41.447,23.118 42,23.118 C42.553,23.118 43,23.565 43,24.118 L43,25.941 C43,26.494 42.553,26.941 42,26.941 L42,26.941 Z M42,21.471 C41.447,21.471 41,21.023 41,20.471 L41,18.648 C41,18.095 41.447,17.648 42,17.648 C42.553,17.648 43,18.095 43,18.648 L43,20.471 C43,21.023 42.553,21.471 42,21.471 L42,21.471 Z" id="Fill-706" fill="#BDC3C7" sketch:type="MSShapeGroup"></path>
            <path d="M42,43.352 C41.447,43.352 41,42.905 41,42.353 L41,40.529 C41,39.977 41.447,39.529 42,39.529 C42.553,39.529 43,39.977 43,40.529 L43,42.353 C43,42.905 42.553,43.352 42,43.352 L42,43.352 Z M42,37.882 C41.447,37.882 41,37.435 41,36.882 L41,35.059 C41,34.506 41.447,34.059 42,34.059 C42.553,34.059 43,34.506 43,35.059 L43,36.882 C43,37.435 42.553,37.882 42,37.882 L42,37.882 Z M42,32.411 C41.447,32.411 41,31.964 41,31.411 L41,29.588 C41,29.035 41.447,28.588 42,28.588 C42.553,28.588 43,29.035 43,29.588 L43,31.411 C43,31.964 42.553,32.411 42,32.411 L42,32.411 Z" id="Fill-707" fill="#BDC3C7" sketch:type="MSShapeGroup"></path>
        </g>
    </g>
</svg>