<?xml version="1.0" encoding="UTF-8" standalone="no"?>
<svg width="58px" height="58px" viewBox="0 0 58 58" version="1.1" xmlns="http://www.w3.org/2000/svg" xmlns:xlink="http://www.w3.org/1999/xlink" xmlns:sketch="http://www.bohemiancoding.com/sketch/ns">
    <!-- Generator: Sketch 3.2.2 (9983) - http://www.bohemiancoding.com/sketch -->
    <title>42 - Minimize to Dock (Flat)</title>
    <desc>Created with Sketch.</desc>
    <defs></defs>
    <g id="Page-1" stroke="none" stroke-width="1" fill="none" fill-rule="evenodd" sketch:type="MSPage">
        <g id="42---Minimize-to-Dock-(Flat)" sketch:type="MSLayerGroup">
            <path d="M0,0 L58,0 L58,58 L0,58 L0,0 Z" id="Fill-218" fill="#ECF0F1" sketch:type="MSShapeGroup"></path>
            <path d="M0,0 L58,0 L58,12 L0,12 L0,0 Z" id="Fill-219" fill="#546A79" sketch:type="MSShapeGroup"></path>
            <path d="M9,6 C9,7.657 7.657,9 6,9 C4.343,9 3,7.657 3,6 C3,4.343 4.343,3 6,3 C7.657,3 9,4.343 9,6" id="Fill-220" fill="#ED7161" sketch:type="MSShapeGroup"></path>
            <path d="M18,6 C18,7.657 16.657,9 15,9 C13.343,9 12,7.657 12,6 C12,4.343 13.343,3 15,3 C16.657,3 18,4.343 18,6" id="Fill-221" fill="#F0C419" sketch:type="MSShapeGroup"></path>
            <path d="M27,6 C27,7.657 25.657,9 24,9 C22.343,9 21,7.657 21,6 C21,4.343 22.343,3 24,3 C25.657,3 27,4.343 27,6" id="Fill-222" fill="#4FBA6F" sketch:type="MSShapeGroup"></path>
            <path d="M52,53 C51.744,53 51.488,52.902 51.293,52.707 L41.293,42.707 C40.902,42.316 40.902,41.684 41.293,41.293 C41.684,40.902 42.316,40.902 42.707,41.293 L52.707,51.293 C53.098,51.684 53.098,52.316 52.707,52.707 C52.512,52.902 52.256,53 52,53" id="Fill-710" fill="#BDC3C7" sketch:type="MSShapeGroup"></path>
            <path d="M52,53 C51.447,53 51,52.553 51,52 L51,47 C51,46.447 51.447,46 52,46 C52.553,46 53,46.447 53,47 L53,52 C53,52.553 52.553,53 52,53" id="Fill-711" fill="#BDC3C7" sketch:type="MSShapeGroup"></path>
            <path d="M52,53 L47,53 C46.447,53 46,52.553 46,52 C46,51.447 46.447,51 47,51 L52,51 C52.553,51 53,51.447 53,52 C53,52.553 52.553,53 52,53" id="Fill-712" fill="#BDC3C7" sketch:type="MSShapeGroup"></path>
        </g>
    </g>
</svg>