<?xml version="1.0" encoding="UTF-8" standalone="no"?>
<svg width="59px" height="59px" viewBox="0 0 59 59" version="1.1" xmlns="http://www.w3.org/2000/svg" xmlns:xlink="http://www.w3.org/1999/xlink" xmlns:sketch="http://www.bohemiancoding.com/sketch/ns">
    <!-- Generator: Sketch 3.2.2 (9983) - http://www.bohemiancoding.com/sketch -->
    <title>46 - Minimize (Flat)</title>
    <desc>Created with Sketch.</desc>
    <defs></defs>
    <g id="Page-1" stroke="none" stroke-width="1" fill="none" fill-rule="evenodd" sketch:type="MSPage">
        <g id="46---Minimize-(Flat)" sketch:type="MSLayerGroup">
            <path d="M59,59 L57,59 C56.447,59 56,58.553 56,58 C56,57.447 56.447,57 57,57 C57,56.447 57.447,56 58,56 C58.553,56 59,56.447 59,57 L59,59" id="Fill-228" fill="#BDC3C7" sketch:type="MSShapeGroup"></path>
            <path d="M52.769,59 L50.654,59 C50.102,59 49.654,58.553 49.654,58 C49.654,57.447 50.102,57 50.654,57 L52.769,57 C53.322,57 53.769,57.447 53.769,58 C53.769,58.553 53.322,59 52.769,59 L52.769,59 Z M46.424,59 L44.308,59 C43.756,59 43.308,58.553 43.308,58 C43.308,57.447 43.756,57 44.308,57 L46.424,57 C46.977,57 47.424,57.447 47.424,58 C47.424,58.553 46.977,59 46.424,59 L46.424,59 Z" id="Fill-229" fill="#BDC3C7" sketch:type="MSShapeGroup"></path>
            <path d="M40.077,59 L37.962,59 C37.41,59 36.962,58.553 36.962,58 C36.962,57.447 37.41,57 37.962,57 L40.077,57 C40.629,57 41.077,57.447 41.077,58 C41.077,58.553 40.629,59 40.077,59 L40.077,59 Z M33.731,59 L31.616,59 C31.063,59 30.616,58.553 30.616,58 C30.616,57.447 31.063,57 31.616,57 L33.731,57 C34.283,57 34.731,57.447 34.731,58 C34.731,58.553 34.283,59 33.731,59 L33.731,59 Z M27.385,59 L25.269,59 C24.717,59 24.269,58.553 24.269,58 C24.269,57.447 24.717,57 25.269,57 L27.385,57 C27.937,57 28.385,57.447 28.385,58 C28.385,58.553 27.937,59 27.385,59 L27.385,59 Z M21.039,59 L18.923,59 C18.371,59 17.923,58.553 17.923,58 C17.923,57.447 18.371,57 18.923,57 L21.039,57 C21.591,57 22.039,57.447 22.039,58 C22.039,58.553 21.591,59 21.039,59 L21.039,59 Z M14.692,59 L12.577,59 C12.025,59 11.577,58.553 11.577,58 C11.577,57.447 12.025,57 12.577,57 L14.692,57 C15.245,57 15.692,57.447 15.692,58 C15.692,58.553 15.245,59 14.692,59 L14.692,59 Z M8.346,59 L6.231,59 C5.679,59 5.231,58.553 5.231,58 C5.231,57.447 5.679,57 6.231,57 L8.346,57 C8.898,57 9.346,57.447 9.346,58 C9.346,58.553 8.898,59 8.346,59 L8.346,59 Z" id="Fill-230" fill="#BDC3C7" sketch:type="MSShapeGroup"></path>
            <path d="M2,59 L0,59 L0,57 C0,56.447 0.448,56 1,56 C1.552,56 2,56.447 2,57 C2.552,57 3,57.447 3,58 C3,58.553 2.552,59 2,59" id="Fill-231" fill="#BDC3C7" sketch:type="MSShapeGroup"></path>
            <path d="M1,53.77 C0.448,53.77 0,53.322 0,52.769 L0,50.654 C0,50.102 0.448,49.654 1,49.654 C1.552,49.654 2,50.102 2,50.654 L2,52.769 C2,53.322 1.552,53.77 1,53.77" id="Fill-232" fill="#BDC3C7" sketch:type="MSShapeGroup"></path>
            <path d="M52.769,2 L50.653,2 C50.101,2 49.653,1.553 49.653,1 C49.653,0.447 50.101,0 50.653,0 L52.769,0 C53.321,0 53.769,0.447 53.769,1 C53.769,1.553 53.321,2 52.769,2" id="Fill-233" fill="#BDC3C7" sketch:type="MSShapeGroup"></path>
            <path d="M58,3 C57.447,3 57,2.553 57,2 C56.447,2 56,1.553 56,1 C56,0.447 56.447,0 57,0 L59,0 L59,2 C59,2.553 58.553,3 58,3" id="Fill-234" fill="#BDC3C7" sketch:type="MSShapeGroup"></path>
            <path d="M58,15.692 C57.447,15.692 57,15.245 57,14.692 L57,12.576 C57,12.023 57.447,11.576 58,11.576 C58.553,11.576 59,12.023 59,12.576 L59,14.692 C59,15.245 58.553,15.692 58,15.692 L58,15.692 Z M58,9.346 C57.447,9.346 57,8.898 57,8.346 L57,6.231 C57,5.678 57.447,5.231 58,5.231 C58.553,5.231 59,5.678 59,6.231 L59,8.346 C59,8.898 58.553,9.346 58,9.346 L58,9.346 Z" id="Fill-235" fill="#BDC3C7" sketch:type="MSShapeGroup"></path>
            <path d="M58,53.769 C57.447,53.769 57,53.321 57,52.769 L57,50.653 C57,50.101 57.447,49.653 58,49.653 C58.553,49.653 59,50.101 59,50.653 L59,52.769 C59,53.321 58.553,53.769 58,53.769 L58,53.769 Z M58,47.423 C57.447,47.423 57,46.976 57,46.423 L57,44.308 C57,43.755 57.447,43.308 58,43.308 C58.553,43.308 59,43.755 59,44.308 L59,46.423 C59,46.976 58.553,47.423 58,47.423 L58,47.423 Z M58,41.077 C57.447,41.077 57,40.63 57,40.077 L57,37.961 C57,37.408 57.447,36.961 58,36.961 C58.553,36.961 59,37.408 59,37.961 L59,40.077 C59,40.63 58.553,41.077 58,41.077 L58,41.077 Z M58,34.73 C57.447,34.73 57,34.283 57,33.731 L57,31.615 C57,31.063 57.447,30.615 58,30.615 C58.553,30.615 59,31.063 59,31.615 L59,33.731 C59,34.283 58.553,34.73 58,34.73 L58,34.73 Z M58,28.385 C57.447,28.385 57,27.938 57,27.385 L57,25.269 C57,24.716 57.447,24.269 58,24.269 C58.553,24.269 59,24.716 59,25.269 L59,27.385 C59,27.938 58.553,28.385 58,28.385 L58,28.385 Z M58,22.038 C57.447,22.038 57,21.591 57,21.038 L57,18.923 C57,18.37 57.447,17.923 58,17.923 C58.553,17.923 59,18.37 59,18.923 L59,21.038 C59,21.591 58.553,22.038 58,22.038 L58,22.038 Z" id="Fill-236" fill="#BDC3C7" sketch:type="MSShapeGroup"></path>
            <path d="M0,0 L45,0 L45,45 L0,45 L0,0 Z" id="Fill-701" fill="#ECF0F1" sketch:type="MSShapeGroup"></path>
            <path d="M0,0 L45,0 L45,12 L0,12 L0,0 Z" id="Fill-1005" fill="#546A79" sketch:type="MSShapeGroup"></path>
            <path d="M9,6 C9,7.657 7.657,9 6,9 C4.343,9 3,7.657 3,6 C3,4.343 4.343,3 6,3 C7.657,3 9,4.343 9,6" id="Fill-1006" fill="#ED7161" sketch:type="MSShapeGroup"></path>
            <path d="M18,6 C18,7.657 16.657,9 15,9 C13.343,9 12,7.657 12,6 C12,4.343 13.343,3 15,3 C16.657,3 18,4.343 18,6" id="Fill-1007" fill="#F0C419" sketch:type="MSShapeGroup"></path>
            <path d="M27,6 C27,7.657 25.657,9 24,9 C22.343,9 21,7.657 21,6 C21,4.343 22.343,3 24,3 C25.657,3 27,4.343 27,6" id="Fill-1008" fill="#4FBA6F" sketch:type="MSShapeGroup"></path>
        </g>
    </g>
</svg>