<?xml version="1.0" encoding="UTF-8" standalone="no"?>
<svg width="58px" height="58px" viewBox="0 0 58 58" version="1.1" xmlns="http://www.w3.org/2000/svg" xmlns:xlink="http://www.w3.org/1999/xlink" xmlns:sketch="http://www.bohemiancoding.com/sketch/ns">
    <!-- Generator: Sketch 3.2.2 (9983) - http://www.bohemiancoding.com/sketch -->
    <title>52 - Modal Window (Flat)</title>
    <desc>Created with Sketch.</desc>
    <defs></defs>
    <g id="Page-1" stroke="none" stroke-width="1" fill="none" fill-rule="evenodd" sketch:type="MSPage">
        <g id="52---Modal-Window-(Flat)" sketch:type="MSLayerGroup">
            <path d="M0,0 L58,0 L58,58 L0,58 L0,0 Z" id="Fill-198" fill="#8697CB" sketch:type="MSShapeGroup"></path>
            <path d="M0,0 L58,0 L58,12 L0,12 L0,0 Z" id="Fill-199" fill="#546A79" sketch:type="MSShapeGroup"></path>
            <path d="M9,6 C9,7.657 7.657,9 6,9 C4.343,9 3,7.657 3,6 C3,4.343 4.343,3 6,3 C7.657,3 9,4.343 9,6" id="Fill-200" fill="#ED7161" sketch:type="MSShapeGroup"></path>
            <path d="M18,6 C18,7.657 16.657,9 15,9 C13.343,9 12,7.657 12,6 C12,4.343 13.343,3 15,3 C16.657,3 18,4.343 18,6" id="Fill-201" fill="#F0C419" sketch:type="MSShapeGroup"></path>
            <path d="M27,6 C27,7.657 25.657,9 24,9 C22.343,9 21,7.657 21,6 C21,4.343 22.343,3 24,3 C25.657,3 27,4.343 27,6" id="Fill-202" fill="#4FBA6F" sketch:type="MSShapeGroup"></path>
            <path d="M8,19 L50,19 L50,49 L8,49 L8,19 Z" id="Fill-361" fill="#FFFFFF" sketch:type="MSShapeGroup"></path>
            <path d="M8,19 L50,19 L50,29 L8,29 L8,19 Z" id="Fill-362" fill="#556080" sketch:type="MSShapeGroup"></path>
            <path d="M12,23 L20,23 L20,25 L12,25 L12,23 Z" id="Fill-363" fill="#FFFFFF" sketch:type="MSShapeGroup"></path>
            <path d="M42,27 C41.744,27 41.488,26.902 41.293,26.707 C40.902,26.316 40.902,25.684 41.293,25.293 L45.293,21.293 C45.684,20.902 46.316,20.902 46.707,21.293 C47.098,21.684 47.098,22.316 46.707,22.707 L42.707,26.707 C42.512,26.902 42.256,27 42,27" id="Fill-364" fill="#FFFFFF" sketch:type="MSShapeGroup"></path>
            <path d="M46,27 C45.744,27 45.488,26.902 45.293,26.707 L41.293,22.707 C40.902,22.316 40.902,21.684 41.293,21.293 C41.684,20.902 42.316,20.902 42.707,21.293 L46.707,25.293 C47.098,25.684 47.098,26.316 46.707,26.707 C46.512,26.902 46.256,27 46,27" id="Fill-365" fill="#FFFFFF" sketch:type="MSShapeGroup"></path>
            <path d="M14,34 L29,34 L29,36 L14,36 L14,34 Z" id="Fill-366" fill="#BDC3C7" sketch:type="MSShapeGroup"></path>
            <path d="M14,38 L40,38 L40,40 L14,40 L14,38 Z" id="Fill-367" fill="#BDC3C7" sketch:type="MSShapeGroup"></path>
            <path d="M14,42 L40,42 L40,44 L14,44 L14,42 Z" id="Fill-368" fill="#BDC3C7" sketch:type="MSShapeGroup"></path>
        </g>
    </g>
</svg>