<?xml version="1.0" encoding="UTF-8" standalone="no"?>
<svg width="58px" height="58px" viewBox="0 0 58 58" version="1.1" xmlns="http://www.w3.org/2000/svg" xmlns:xlink="http://www.w3.org/1999/xlink" xmlns:sketch="http://www.bohemiancoding.com/sketch/ns">
    <!-- Generator: Sketch 3.2.2 (9983) - http://www.bohemiancoding.com/sketch -->
    <title>71 - Music Content (Flat)</title>
    <desc>Created with Sketch.</desc>
    <defs></defs>
    <g id="Page-1" stroke="none" stroke-width="1" fill="none" fill-rule="evenodd" sketch:type="MSPage">
        <g id="71---Music-Content-(Flat)" sketch:type="MSLayerGroup">
            <path d="M0,0 L58,0 L58,58 L0,58 L0,0 Z" id="Fill-158" fill="#ECF0F1" sketch:type="MSShapeGroup"></path>
            <path d="M0,0 L58,0 L58,12 L0,12 L0,0 Z" id="Fill-159" fill="#546A79" sketch:type="MSShapeGroup"></path>
            <path d="M9,6 C9,7.657 7.657,9 6,9 C4.343,9 3,7.657 3,6 C3,4.343 4.343,3 6,3 C7.657,3 9,4.343 9,6" id="Fill-160" fill="#ED7161" sketch:type="MSShapeGroup"></path>
            <path d="M18,6 C18,7.657 16.657,9 15,9 C13.343,9 12,7.657 12,6 C12,4.343 13.343,3 15,3 C16.657,3 18,4.343 18,6" id="Fill-161" fill="#F0C419" sketch:type="MSShapeGroup"></path>
            <path d="M27,6 C27,7.657 25.657,9 24,9 C22.343,9 21,7.657 21,6 C21,4.343 22.343,3 24,3 C25.657,3 27,4.343 27,6" id="Fill-162" fill="#4FBA6F" sketch:type="MSShapeGroup"></path>
            <path d="M5,17 L23,17 L23,35 L5,35 L5,17 Z" id="Fill-885" fill="#ED7161" sketch:type="MSShapeGroup"></path>
            <path d="M38,20 L29,20 C28.447,20 28,19.552 28,19 C28,18.448 28.447,18 29,18 L38,18 C38.553,18 39,18.448 39,19 C39,19.552 38.553,20 38,20" id="Fill-886" fill="#BDC3C7" sketch:type="MSShapeGroup"></path>
            <path d="M47,25 L29,25 C28.447,25 28,24.552 28,24 C28,23.448 28.447,23 29,23 L47,23 C47.553,23 48,23.448 48,24 C48,24.552 47.553,25 47,25" id="Fill-887" fill="#BDC3C7" sketch:type="MSShapeGroup"></path>
            <path d="M53,30 L29,30 C28.447,30 28,29.552 28,29 C28,28.448 28.447,28 29,28 L53,28 C53.553,28 54,28.448 54,29 C54,29.552 53.553,30 53,30" id="Fill-888" fill="#BDC3C7" sketch:type="MSShapeGroup"></path>
            <path d="M50,35 L29,35 C28.447,35 28,34.552 28,34 C28,33.448 28.447,33 29,33 L50,33 C50.553,33 51,33.448 51,34 C51,34.552 50.553,35 50,35" id="Fill-889" fill="#BDC3C7" sketch:type="MSShapeGroup"></path>
            <path d="M5,42 L53,42 L53,52 L5,52 L5,42 Z" id="Fill-890" fill="#D7DBDD" sketch:type="MSShapeGroup"></path>
            <path d="M18,20 L16,20 C16,19.448 15.553,19 15,19 C14.447,19 14,19.448 14,20 L14,25 L12.71,25 C10.63,25 9,26.577 9,28.591 C9,30.63 10.37,32 12.409,32 C14.523,32 16,30.275 16,27.807 L16,22 L18,22 C18.553,22 19,21.552 19,21 C19,20.448 18.553,20 18,20 L18,20 Z M14,27.807 C14,28.867 13.582,30 12.409,30 C11.461,30 11,29.539 11,28.591 C11,27.684 11.735,27 12.71,27 L14,27 L14,27.807 L14,27.807 Z" id="Fill-891" fill="#F0C419" sketch:type="MSShapeGroup"></path>
            <path d="M48,48 L18,48 C17.447,48 17,47.552 17,47 C17,46.448 17.447,46 18,46 L48,46 C48.553,46 49,46.448 49,47 C49,47.552 48.553,48 48,48" id="Fill-892" fill="#ECF0F1" sketch:type="MSShapeGroup"></path>
            <path d="M22,50 C21.447,50 21,49.552 21,49 L21,45 C21,44.448 21.447,44 22,44 C22.553,44 23,44.448 23,45 L23,49 C23,49.552 22.553,50 22,50" id="Fill-893" fill="#E57E25" sketch:type="MSShapeGroup"></path>
            <path d="M9,44 C8.447,44 8,44.448 8,45 L8,49 C8,49.552 8.447,50 9,50 C9.553,50 10,49.552 10,49 L10,45 C10,44.448 9.553,44 9,44" id="Fill-894" fill="#556080" sketch:type="MSShapeGroup"></path>
            <path d="M12,44 C11.447,44 11,44.448 11,45 L11,49 C11,49.552 11.447,50 12,50 C12.553,50 13,49.552 13,49 L13,45 C13,44.448 12.553,44 12,44" id="Fill-895" fill="#556080" sketch:type="MSShapeGroup"></path>
        </g>
    </g>
</svg>