<?xml version="1.0" encoding="UTF-8" standalone="no"?>
<svg width="58px" height="58px" viewBox="0 0 58 58" version="1.1" xmlns="http://www.w3.org/2000/svg" xmlns:xlink="http://www.w3.org/1999/xlink" xmlns:sketch="http://www.bohemiancoding.com/sketch/ns">
    <!-- Generator: Sketch 3.2.2 (9983) - http://www.bohemiancoding.com/sketch -->
    <title>65 - Profile Page (Flat)</title>
    <desc>Created with Sketch.</desc>
    <defs></defs>
    <g id="Page-1" stroke="none" stroke-width="1" fill="none" fill-rule="evenodd" sketch:type="MSPage">
        <g id="65---Profile-Page-(Flat)" sketch:type="MSLayerGroup">
            <path d="M0,0 L58,0 L58,58 L0,58 L0,0 Z" id="Fill-64" fill="#ECF0F1" sketch:type="MSShapeGroup"></path>
            <path d="M0,0 L58,0 L58,12 L0,12 L0,0 Z" id="Fill-65" fill="#546A79" sketch:type="MSShapeGroup"></path>
            <path d="M9,6 C9,7.657 7.657,9 6,9 C4.343,9 3,7.657 3,6 C3,4.343 4.343,3 6,3 C7.657,3 9,4.343 9,6" id="Fill-66" fill="#ED7161" sketch:type="MSShapeGroup"></path>
            <path d="M18,6 C18,7.657 16.657,9 15,9 C13.343,9 12,7.657 12,6 C12,4.343 13.343,3 15,3 C16.657,3 18,4.343 18,6" id="Fill-67" fill="#F0C419" sketch:type="MSShapeGroup"></path>
            <path d="M27,6 C27,7.657 25.657,9 24,9 C22.343,9 21,7.657 21,6 C21,4.343 22.343,3 24,3 C25.657,3 27,4.343 27,6" id="Fill-68" fill="#4FBA6F" sketch:type="MSShapeGroup"></path>
            <path d="M22,47 L35,47 C35.553,47 36,46.553 36,46 C36,45.447 35.553,45 35,45 L22,45 C21.447,45 21,45.447 21,46 C21,46.553 21.447,47 22,47" id="Fill-914" fill="#BDC3C7" sketch:type="MSShapeGroup"></path>
            <path d="M40,49 L17,49 C16.447,49 16,49.447 16,50 C16,50.553 16.447,51 17,51 L40,51 C40.553,51 41,50.553 41,50 C41,49.447 40.553,49 40,49" id="Fill-915" fill="#BDC3C7" sketch:type="MSShapeGroup"></path>
            <path d="M31.932,36.567 C31.485,36.344 31.202,35.886 31.202,35.386 L31.202,34.028 C31.3,33.918 31.411,33.775 31.53,33.607 C32.002,32.941 32.358,32.208 32.606,31.439 C33.049,31.302 33.376,30.892 33.376,30.405 L33.376,28.955 C33.376,28.636 33.235,28.351 33.014,28.152 L33.014,26.057 C33.014,26.057 33.445,22.795 29.028,22.795 C24.612,22.795 25.042,26.057 25.042,26.057 L25.042,28.152 C24.822,28.351 24.68,28.636 24.68,28.955 L24.68,30.405 C24.68,30.787 24.881,31.123 25.181,31.317 C25.543,32.894 26.492,34.028 26.492,34.028 L26.492,35.353 C26.492,35.836 26.228,36.28 25.804,36.512 L22.571,38.275 C22.35,38.396 22.153,38.546 21.974,38.714 C23.951,40.146 26.373,41 29,41 C31.623,41 34.041,40.149 36.016,38.722 C35.829,38.557 35.622,38.412 35.393,38.298 L31.932,36.567" id="Fill-916" fill="#FFFFFF" sketch:type="MSShapeGroup"></path>
            <path d="M41,29 C41,22.373 35.627,17 29,17 C22.373,17 17,22.373 17,29 C17,33 18.965,36.534 21.974,38.714 C22.153,38.546 22.35,38.396 22.571,38.275 L25.804,36.512 C26.228,36.28 26.492,35.836 26.492,35.353 L26.492,34.028 C26.492,34.028 25.543,32.894 25.181,31.317 C24.881,31.123 24.68,30.787 24.68,30.405 L24.68,28.955 C24.68,28.636 24.822,28.351 25.042,28.152 L25.042,26.057 C25.042,26.057 24.612,22.795 29.028,22.795 C33.445,22.795 33.014,26.057 33.014,26.057 L33.014,28.152 C33.235,28.351 33.376,28.636 33.376,28.955 L33.376,30.405 C33.376,30.892 33.049,31.302 32.606,31.439 C32.358,32.208 32.002,32.941 31.53,33.607 C31.411,33.775 31.3,33.918 31.202,34.028 L31.202,35.386 C31.202,35.886 31.485,36.344 31.932,36.567 L35.393,38.298 C35.614,38.408 35.813,38.549 35.994,38.707 C39.015,36.529 41,33.008 41,29" id="Fill-1013" fill="#556080" sketch:type="MSShapeGroup"></path>
        </g>
    </g>
</svg>