<?xml version="1.0" encoding="UTF-8" standalone="no"?>
<svg width="57px" height="57px" viewBox="0 0 57 57" version="1.1" xmlns="http://www.w3.org/2000/svg" xmlns:xlink="http://www.w3.org/1999/xlink" xmlns:sketch="http://www.bohemiancoding.com/sketch/ns">
    <!-- Generator: Sketch 3.2.2 (9983) - http://www.bohemiancoding.com/sketch -->
    <title>3 - Remove Style (Flat)</title>
    <desc>Created with Sketch.</desc>
    <defs></defs>
    <g id="Page-1" stroke="none" stroke-width="1" fill="none" fill-rule="evenodd" sketch:type="MSPage">
        <g id="3---Remove-Style-(Flat)" sketch:type="MSLayerGroup">
            <path d="M0,0 L57,0 L57,57 L0,57 L0,0 Z" id="Fill-686" fill="#ECF0F1" sketch:type="MSShapeGroup"></path>
            <path d="M32.155,17 C31.602,17 31.155,16.553 31.155,16 C31.155,11.037 27.118,7 22.155,7 C21.602,7 21.155,6.553 21.155,6 C21.155,5.447 21.602,5 22.155,5 C28.221,5 33.155,9.935 33.155,16 C33.155,16.553 32.708,17 32.155,17" id="Fill-689" fill="#BDC3C7" sketch:type="MSShapeGroup"></path>
            <path d="M22.155,51 C21.602,51 21.155,50.553 21.155,50 C21.155,49.447 21.602,49 22.155,49 L22.374,48.998 C27.461,48.916 30.201,45.252 31,42.139 C31.82,38.948 31.168,34.302 26.632,31.71 L16.686,26.026 C12.148,23.434 10.062,18.463 11.373,13.363 C12.656,8.367 16.792,5.085 21.907,5.002 L22.155,5 C22.708,5 23.155,5.447 23.155,6 C23.155,6.553 22.708,7 22.155,7 L21.936,7.002 C16.85,7.084 14.109,10.748 13.31,13.861 C12.49,17.052 13.143,21.698 17.679,24.29 L27.624,29.974 C32.162,32.566 34.248,37.537 32.938,42.637 C31.654,47.633 27.519,50.915 22.403,50.998 L22.155,51" id="Fill-690" fill="#BDC3C7" sketch:type="MSShapeGroup"></path>
            <path d="M22.155,51 C16.09,51 11.155,46.065 11.155,40 C11.155,39.447 11.602,39 12.155,39 C12.708,39 13.155,39.447 13.155,40 C13.155,44.963 17.192,49 22.155,49 C22.708,49 23.155,49.447 23.155,50 C23.155,50.553 22.708,51 22.155,51" id="Fill-691" fill="#BDC3C7" sketch:type="MSShapeGroup"></path>
            <path d="M46,34 C45.744,34 45.488,33.902 45.293,33.707 L36.293,24.707 C35.902,24.316 35.902,23.684 36.293,23.293 C36.684,22.902 37.316,22.902 37.707,23.293 L46.707,32.293 C47.098,32.684 47.098,33.316 46.707,33.707 C46.512,33.902 46.256,34 46,34" id="Fill-692" fill="#BDC3C7" sketch:type="MSShapeGroup"></path>
            <path d="M37,34 C36.744,34 36.488,33.902 36.293,33.707 C35.902,33.316 35.902,32.684 36.293,32.293 L45.293,23.293 C45.684,22.902 46.316,22.902 46.707,23.293 C47.098,23.684 47.098,24.316 46.707,24.707 L37.707,33.707 C37.512,33.902 37.256,34 37,34" id="Fill-693" fill="#BDC3C7" sketch:type="MSShapeGroup"></path>
        </g>
    </g>
</svg>