<?xml version="1.0" encoding="UTF-8" standalone="no"?>
<svg width="57px" height="58px" viewBox="0 0 57 58" version="1.1" xmlns="http://www.w3.org/2000/svg" xmlns:xlink="http://www.w3.org/1999/xlink" xmlns:sketch="http://www.bohemiancoding.com/sketch/ns">
    <!-- Generator: Sketch 3.2.2 (9983) - http://www.bohemiancoding.com/sketch -->
    <title>48 - Safari (Flat)</title>
    <desc>Created with Sketch.</desc>
    <defs></defs>
    <g id="Page-1" stroke="none" stroke-width="1" fill="none" fill-rule="evenodd" sketch:type="MSPage">
        <g id="48---Safari-(Flat)" sketch:type="MSLayerGroup">
            <path d="M0,0 L57,0 L57,58 L0,58 L0,0 Z" id="Fill-237" fill="#ECF0F1" sketch:type="MSShapeGroup"></path>
            <path d="M0,0 L57,0 L57,12 L0,12 L0,0 Z" id="Fill-238" fill="#BDC3C7" sketch:type="MSShapeGroup"></path>
            <path d="M39,19 L52,19 L52,29 L39,29 L39,19 Z" id="Fill-992" fill="#FFFFFF" sketch:type="MSShapeGroup"></path>
            <path d="M5,19 L18,19 L18,29 L5,29 L5,19 Z" id="Fill-993" fill="#FFFFFF" sketch:type="MSShapeGroup"></path>
            <path d="M22,19 L35,19 L35,29 L22,29 L22,19 Z" id="Fill-994" fill="#FFFFFF" sketch:type="MSShapeGroup"></path>
            <path d="M39,33 L52,33 L52,43 L39,43 L39,33 Z" id="Fill-995" fill="#FFFFFF" sketch:type="MSShapeGroup"></path>
            <path d="M5,33 L18,33 L18,43 L5,43 L5,33 Z" id="Fill-996" fill="#FFFFFF" sketch:type="MSShapeGroup"></path>
            <path d="M22,33 L35,33 L35,43 L22,43 L22,33 Z" id="Fill-997" fill="#FFFFFF" sketch:type="MSShapeGroup"></path>
            <path d="M44,8 L26,8 C24.9,8 24,7.1 24,6 C24,4.9 24.9,4 26,4 L44,4 C45.1,4 46,4.9 46,6 C46,7.1 45.1,8 44,8" id="Fill-998" fill="#FFFFFF" sketch:type="MSShapeGroup"></path>
            <path d="M7,6 C7,7.105 6.105,8 5,8 C3.895,8 3,7.105 3,6 C3,4.895 3.895,4 5,4 C6.105,4 7,4.895 7,6" id="Fill-999" fill="#ED7161" sketch:type="MSShapeGroup"></path>
            <path d="M13,6 C13,7.105 12.105,8 11,8 C9.895,8 9,7.105 9,6 C9,4.895 9.895,4 11,4 C12.105,4 13,4.895 13,6" id="Fill-1000" fill="#F0C419" sketch:type="MSShapeGroup"></path>
            <path d="M19,6 C19,7.105 18.105,8 17,8 C15.895,8 15,7.105 15,6 C15,4.895 15.895,4 17,4 C18.105,4 19,4.895 19,6" id="Fill-1001" fill="#4FBA6F" sketch:type="MSShapeGroup"></path>
        </g>
    </g>
</svg>