<?xml version="1.0" encoding="UTF-8" standalone="no"?>
<svg width="58px" height="58px" viewBox="0 0 58 58" version="1.1" xmlns="http://www.w3.org/2000/svg" xmlns:xlink="http://www.w3.org/1999/xlink" xmlns:sketch="http://www.bohemiancoding.com/sketch/ns">
    <!-- Generator: Sketch 3.2.2 (9983) - http://www.bohemiancoding.com/sketch -->
    <title>98 - Search Engine (Flat)</title>
    <desc>Created with Sketch.</desc>
    <defs></defs>
    <g id="Page-1" stroke="none" stroke-width="1" fill="none" fill-rule="evenodd" sketch:type="MSPage">
        <g id="98---Search-Engine-(Flat)" sketch:type="MSLayerGroup">
            <path d="M0,0.04 L58,0.04 L58,58 L0,58 L0,0.04 Z" id="Fill-9" fill="#ECF0F1" sketch:type="MSShapeGroup"></path>
            <path d="M0,0.04 L58,0.04 L58,12 L0,12 L0,0.04 Z" id="Fill-10" fill="#546A79" sketch:type="MSShapeGroup"></path>
            <path d="M9,6 C9,7.657 7.657,9 6,9 C4.343,9 3,7.657 3,6 C3,4.343 4.343,3 6,3 C7.657,3 9,4.343 9,6" id="Fill-11" fill="#ED7161" sketch:type="MSShapeGroup"></path>
            <path d="M18,6 C18,7.657 16.657,9 15,9 C13.343,9 12,7.657 12,6 C12,4.343 13.343,3 15,3 C16.657,3 18,4.343 18,6" id="Fill-12" fill="#F0C419" sketch:type="MSShapeGroup"></path>
            <path d="M27,6 C27,7.657 25.657,9 24,9 C22.343,9 21,7.657 21,6 C21,4.343 22.343,3 24,3 C25.657,3 27,4.343 27,6" id="Fill-13" fill="#4FBA6F" sketch:type="MSShapeGroup"></path>
            <path d="M10,27 L42,27 L42,33 L10,33 L10,27 Z" id="Fill-261" fill="#FFFFFF" sketch:type="MSShapeGroup"></path>
            <path d="M42,27 L48,27 L48,33 L42,33 L42,27 Z" id="Fill-264" fill="#95A5A5" sketch:type="MSShapeGroup"></path>
            <path d="M19,40 L27,40 L27,42 L19,42 L19,40 Z" id="Fill-265" fill="#BDC3C7" sketch:type="MSShapeGroup"></path>
            <path d="M31,40 L39,40 L39,42 L31,42 L31,40 Z" id="Fill-266" fill="#BDC3C7" sketch:type="MSShapeGroup"></path>
        </g>
    </g>
</svg>