<?xml version="1.0" encoding="UTF-8" standalone="no"?>
<svg width="58px" height="58px" viewBox="0 0 58 58" version="1.1" xmlns="http://www.w3.org/2000/svg" xmlns:xlink="http://www.w3.org/1999/xlink" xmlns:sketch="http://www.bohemiancoding.com/sketch/ns">
    <!-- Generator: Sketch 3.2.2 (9983) - http://www.bohemiancoding.com/sketch -->
    <title>63 - Settings (Flat)</title>
    <desc>Created with Sketch.</desc>
    <defs></defs>
    <g id="Page-1" stroke="none" stroke-width="1" fill="none" fill-rule="evenodd" sketch:type="MSPage">
        <g id="63---Settings-(Flat)" sketch:type="MSLayerGroup">
            <path d="M0,0 L58,0 L58,58 L0,58 L0,0 Z" id="Fill-74" fill="#ECF0F1" sketch:type="MSShapeGroup"></path>
            <path d="M0,0 L58,0 L58,12 L0,12 L0,0 Z" id="Fill-75" fill="#546A79" sketch:type="MSShapeGroup"></path>
            <path d="M9,6 C9,7.657 7.657,9 6,9 C4.343,9 3,7.657 3,6 C3,4.343 4.343,3 6,3 C7.657,3 9,4.343 9,6" id="Fill-76" fill="#ED7161" sketch:type="MSShapeGroup"></path>
            <path d="M18,6 C18,7.657 16.657,9 15,9 C13.343,9 12,7.657 12,6 C12,4.343 13.343,3 15,3 C16.657,3 18,4.343 18,6" id="Fill-77" fill="#F0C419" sketch:type="MSShapeGroup"></path>
            <path d="M27,6 C27,7.657 25.657,9 24,9 C22.343,9 21,7.657 21,6 C21,4.343 22.343,3 24,3 C25.657,3 27,4.343 27,6" id="Fill-78" fill="#4FBA6F" sketch:type="MSShapeGroup"></path>
            <path d="M47,29 L37.4,29 C35.2,29 33.4,27.2 33.4,25 C33.4,22.8 35.2,21 37.4,21 L47,21 C49.2,21 51,22.8 51,25 C51,27.2 49.2,29 47,29" id="Fill-924" fill="#BDC3C7" sketch:type="MSShapeGroup"></path>
            <path d="M41.4,25 C41.4,27.209 39.609,29 37.4,29 C35.191,29 33.4,27.209 33.4,25 C33.4,22.791 35.191,21 37.4,21 C39.609,21 41.4,22.791 41.4,25" id="Fill-925" fill="#7F8C8D" sketch:type="MSShapeGroup"></path>
            <path d="M37.4,48 L47,48 C49.2,48 51,46.2 51,44 C51,41.8 49.2,40 47,40 L37.4,40 C35.2,40 33.4,41.8 33.4,44 C33.4,46.2 35.2,48 37.4,48" id="Fill-926" fill="#BDC3C7" sketch:type="MSShapeGroup"></path>
            <path d="M43,44 C43,46.209 44.791,48 47,48 C49.209,48 51,46.209 51,44 C51,41.791 49.209,40 47,40 C44.791,40 43,41.791 43,44" id="Fill-927" fill="#26B99A" sketch:type="MSShapeGroup"></path>
            <path d="M16,24 L8,24 C7.447,24 7,23.553 7,23 C7,22.447 7.447,22 8,22 L16,22 C16.553,22 17,22.447 17,23 C17,23.553 16.553,24 16,24" id="Fill-928" fill="#7F8C8D" sketch:type="MSShapeGroup"></path>
            <path d="M25,29 L8,29 C7.447,29 7,28.553 7,28 C7,27.447 7.447,27 8,27 L25,27 C25.553,27 26,27.447 26,28 C26,28.553 25.553,29 25,29" id="Fill-929" fill="#7F8C8D" sketch:type="MSShapeGroup"></path>
            <path d="M16,42 L8,42 C7.447,42 7,41.553 7,41 C7,40.447 7.447,40 8,40 L16,40 C16.553,40 17,40.447 17,41 C17,41.553 16.553,42 16,42" id="Fill-930" fill="#7F8C8D" sketch:type="MSShapeGroup"></path>
            <path d="M25,47 L8,47 C7.447,47 7,46.553 7,46 C7,45.447 7.447,45 8,45 L25,45 C25.553,45 26,45.447 26,46 C26,46.553 25.553,47 25,47" id="Fill-931" fill="#7F8C8D" sketch:type="MSShapeGroup"></path>
        </g>
    </g>
</svg>