<?xml version="1.0" encoding="UTF-8" standalone="no"?>
<svg width="58px" height="58px" viewBox="0 0 58 58" version="1.1" xmlns="http://www.w3.org/2000/svg" xmlns:xlink="http://www.w3.org/1999/xlink" xmlns:sketch="http://www.bohemiancoding.com/sketch/ns">
    <!-- Generator: Sketch 3.2.2 (9983) - http://www.bohemiancoding.com/sketch -->
    <title>78 - Slider (Flat)</title>
    <desc>Created with Sketch.</desc>
    <defs></defs>
    <g id="Page-1" stroke="none" stroke-width="1" fill="none" fill-rule="evenodd" sketch:type="MSPage">
        <g id="78---Slider-(Flat)" sketch:type="MSLayerGroup">
            <path d="M0,0 L58,0 L58,58 L0,58 L0,0 Z" id="Fill-163" fill="#ECF0F1" sketch:type="MSShapeGroup"></path>
            <path d="M0,0 L58,0 L58,12 L0,12 L0,0 Z" id="Fill-164" fill="#546A79" sketch:type="MSShapeGroup"></path>
            <path d="M9,6 C9,7.657 7.657,9 6,9 C4.343,9 3,7.657 3,6 C3,4.343 4.343,3 6,3 C7.657,3 9,4.343 9,6" id="Fill-165" fill="#ED7161" sketch:type="MSShapeGroup"></path>
            <path d="M18,6 C18,7.657 16.657,9 15,9 C13.343,9 12,7.657 12,6 C12,4.343 13.343,3 15,3 C16.657,3 18,4.343 18,6" id="Fill-166" fill="#F0C419" sketch:type="MSShapeGroup"></path>
            <path d="M27,6 C27,7.657 25.657,9 24,9 C22.343,9 21,7.657 21,6 C21,4.343 22.343,3 24,3 C25.657,3 27,4.343 27,6" id="Fill-167" fill="#4FBA6F" sketch:type="MSShapeGroup"></path>
            <path d="M5,17 L53,17 L53,41 L5,41 L5,17 Z" id="Fill-853" fill="#FFFFFF" sketch:type="MSShapeGroup"></path>
            <path d="M22,33 L36,33 L36,37 L22,37 L22,33 Z" id="Fill-854" fill="#4FBA6F" sketch:type="MSShapeGroup"></path>
            <path d="M22,48.5 C22,49.881 20.881,51 19.5,51 C18.119,51 17,49.881 17,48.5 C17,47.119 18.119,46 19.5,46 C20.881,46 22,47.119 22,48.5" id="Fill-855" fill="#BDC3C7" sketch:type="MSShapeGroup"></path>
            <path d="M31,48.5 C31,49.881 29.881,51 28.5,51 C27.119,51 26,49.881 26,48.5 C26,47.119 27.119,46 28.5,46 C29.881,46 31,47.119 31,48.5" id="Fill-856" fill="#BDC3C7" sketch:type="MSShapeGroup"></path>
            <path d="M40,48.5 C40,49.881 38.881,51 37.5,51 C36.119,51 35,49.881 35,48.5 C35,47.119 36.119,46 37.5,46 C38.881,46 40,47.119 40,48.5" id="Fill-857" fill="#BDC3C7" sketch:type="MSShapeGroup"></path>
            <path d="M40.5,27 L17.5,27 C16.948,27 16.5,26.552 16.5,26 C16.5,25.448 16.948,25 17.5,25 L40.5,25 C41.052,25 41.5,25.448 41.5,26 C41.5,26.552 41.052,27 40.5,27" id="Fill-858" fill="#BDC3C7" sketch:type="MSShapeGroup"></path>
            <path d="M36.5,23 L21.5,23 C20.948,23 20.5,22.552 20.5,22 C20.5,21.448 20.948,21 21.5,21 L36.5,21 C37.052,21 37.5,21.448 37.5,22 C37.5,22.552 37.052,23 36.5,23" id="Fill-859" fill="#BDC3C7" sketch:type="MSShapeGroup"></path>
        </g>
    </g>
</svg>