<?xml version="1.0" encoding="UTF-8" standalone="no"?>
<svg width="57px" height="57px" viewBox="0 0 57 57" version="1.1" xmlns="http://www.w3.org/2000/svg" xmlns:xlink="http://www.w3.org/1999/xlink" xmlns:sketch="http://www.bohemiancoding.com/sketch/ns">
    <!-- Generator: Sketch 3.2.2 (9983) - http://www.bohemiancoding.com/sketch -->
    <title>4 - Styled Text (Flat)</title>
    <desc>Created with Sketch.</desc>
    <defs></defs>
    <g id="Page-1" stroke="none" stroke-width="1" fill="none" fill-rule="evenodd" sketch:type="MSPage">
        <g id="4---Styled-Text-(Flat)" sketch:type="MSLayerGroup">
            <path d="M0,0 L57,0 L57,57 L0,57 L0,0 Z" id="Fill-682" fill="#ECF0F1" sketch:type="MSShapeGroup"></path>
            <path d="M38.155,17 C37.602,17 37.155,16.553 37.155,16 C37.155,11.037 33.118,7 28.155,7 C27.602,7 27.155,6.553 27.155,6 C27.155,5.447 27.602,5 28.155,5 C34.221,5 39.155,9.935 39.155,16 C39.155,16.553 38.708,17 38.155,17" id="Fill-683" fill="#BDC3C7" sketch:type="MSShapeGroup"></path>
            <path d="M28.155,51 C27.602,51 27.155,50.553 27.155,50 C27.155,49.447 27.602,49 28.155,49 L28.374,48.998 C33.461,48.916 36.201,45.252 37,42.139 C37.82,38.948 37.168,34.302 32.632,31.71 L22.686,26.026 C18.148,23.434 16.062,18.463 17.373,13.363 C18.656,8.367 22.792,5.085 27.907,5.002 L28.155,5 C28.708,5 29.155,5.447 29.155,6 C29.155,6.553 28.708,7 28.155,7 L27.936,7.002 C22.85,7.084 20.109,10.748 19.31,13.861 C18.49,17.052 19.143,21.698 23.679,24.29 L33.624,29.974 C38.162,32.566 40.248,37.537 38.937,42.637 C37.654,47.633 33.519,50.915 28.403,50.998 L28.155,51" id="Fill-684" fill="#BDC3C7" sketch:type="MSShapeGroup"></path>
            <path d="M28.155,51 C22.09,51 17.155,46.065 17.155,40 C17.155,39.447 17.602,39 18.155,39 C18.708,39 19.155,39.447 19.155,40 C19.155,44.963 23.192,49 28.155,49 C28.708,49 29.155,49.447 29.155,50 C29.155,50.553 28.708,51 28.155,51" id="Fill-685" fill="#BDC3C7" sketch:type="MSShapeGroup"></path>
        </g>
    </g>
</svg>