<?xml version="1.0" encoding="UTF-8" standalone="no"?>
<svg width="58px" height="58px" viewBox="0 0 58 58" version="1.1" xmlns="http://www.w3.org/2000/svg" xmlns:xlink="http://www.w3.org/1999/xlink" xmlns:sketch="http://www.bohemiancoding.com/sketch/ns">
    <!-- Generator: Sketch 3.2.2 (9983) - http://www.bohemiancoding.com/sketch -->
    <title>68 - Success Message (Flat)</title>
    <desc>Created with Sketch.</desc>
    <defs></defs>
    <g id="Page-1" stroke="none" stroke-width="1" fill="none" fill-rule="evenodd" sketch:type="MSPage">
        <g id="68---Success-Message-(Flat)" sketch:type="MSLayerGroup">
            <path d="M0,0 L58,0 L58,58 L0,58 L0,0 Z" id="Fill-99" fill="#ECF0F1" sketch:type="MSShapeGroup"></path>
            <path d="M0,0 L58,0 L58,12 L0,12 L0,0 Z" id="Fill-100" fill="#546A79" sketch:type="MSShapeGroup"></path>
            <path d="M9,6 C9,7.657 7.657,9 6,9 C4.343,9 3,7.657 3,6 C3,4.343 4.343,3 6,3 C7.657,3 9,4.343 9,6" id="Fill-101" fill="#ED7161" sketch:type="MSShapeGroup"></path>
            <path d="M18,6 C18,7.657 16.657,9 15,9 C13.343,9 12,7.657 12,6 C12,4.343 13.343,3 15,3 C16.657,3 18,4.343 18,6" id="Fill-102" fill="#F0C419" sketch:type="MSShapeGroup"></path>
            <path d="M27,6 C27,7.657 25.657,9 24,9 C22.343,9 21,7.657 21,6 C21,4.343 22.343,3 24,3 C25.657,3 27,4.343 27,6" id="Fill-103" fill="#4FBA6F" sketch:type="MSShapeGroup"></path>
            <path d="M35,48 L22,48 C21.448,48 21,47.553 21,47 C21,46.447 21.448,46 22,46 L35,46 C35.552,46 36,46.447 36,47 C36,47.553 35.552,48 35,48" id="Fill-903" fill="#BDC3C7" sketch:type="MSShapeGroup"></path>
            <path d="M40,52 L17,52 C16.448,52 16,51.553 16,51 C16,50.447 16.448,50 17,50 L40,50 C40.552,50 41,50.447 41,51 C41,51.553 40.552,52 40,52" id="Fill-904" fill="#BDC3C7" sketch:type="MSShapeGroup"></path>
            <path d="M41,30 C41,36.627 35.627,42 29,42 C22.373,42 17,36.627 17,30 C17,23.373 22.373,18 29,18 C35.627,18 41,23.373 41,30" id="Fill-905" fill="#24AE5F" sketch:type="MSShapeGroup"></path>
            <path d="M35.707,26.293 C35.316,25.902 34.684,25.902 34.293,26.293 L28,32.586 L24.707,29.293 C24.316,28.902 23.684,28.902 23.293,29.293 C22.902,29.684 22.902,30.316 23.293,30.707 L27.293,34.707 C27.488,34.902 27.744,35 28,35 C28.256,35 28.512,34.902 28.707,34.707 L35.707,27.707 C36.098,27.316 36.098,26.684 35.707,26.293" id="Fill-906" fill="#FFFFFF" sketch:type="MSShapeGroup"></path>
        </g>
    </g>
</svg>