<?xml version="1.0" encoding="UTF-8" standalone="no"?>
<svg width="58px" height="57px" viewBox="0 0 58 57" version="1.1" xmlns="http://www.w3.org/2000/svg" xmlns:xlink="http://www.w3.org/1999/xlink" xmlns:sketch="http://www.bohemiancoding.com/sketch/ns">
    <!-- Generator: Sketch 3.2.2 (9983) - http://www.bohemiancoding.com/sketch -->
    <title>18 - Underline (Flat)</title>
    <desc>Created with Sketch.</desc>
    <defs></defs>
    <g id="Page-1" stroke="none" stroke-width="1" fill="none" fill-rule="evenodd" sketch:type="MSPage">
        <g id="18---Underline-(Flat)" sketch:type="MSLayerGroup">
            <path d="M0,0 L58,0 L58,57 L0,57 L0,0 Z" id="Fill-572" fill="#ECF0F1" sketch:type="MSShapeGroup"></path>
            <path d="M15,16 C14.448,16 14,15.553 14,15 L14,11 C14,10.447 14.448,10 15,10 C15.552,10 16,10.447 16,11 L16,15 C16,15.553 15.552,16 15,16" id="Fill-573" fill="#BDC3C7" sketch:type="MSShapeGroup"></path>
            <path d="M43,12 L15,12 C14.448,12 14,11.553 14,11 C14,10.447 14.448,10 15,10 L43,10 C43.552,10 44,10.447 44,11 C44,11.553 43.552,12 43,12" id="Fill-574" fill="#BDC3C7" sketch:type="MSShapeGroup"></path>
            <path d="M43,16 C42.448,16 42,15.553 42,15 L42,11 C42,10.447 42.448,10 43,10 C43.552,10 44,10.447 44,11 L44,15 C44,15.553 43.552,16 43,16" id="Fill-575" fill="#BDC3C7" sketch:type="MSShapeGroup"></path>
            <path d="M29,43 C28.448,43 28,42.553 28,42 L28,11 C28,10.447 28.448,10 29,10 C29.552,10 30,10.447 30,11 L30,42 C30,42.553 29.552,43 29,43" id="Fill-576" fill="#BDC3C7" sketch:type="MSShapeGroup"></path>
            <path d="M35,43 L23,43 C22.448,43 22,42.553 22,42 C22,41.447 22.448,41 23,41 L35,41 C35.552,41 36,41.447 36,42 C36,42.553 35.552,43 35,43" id="Fill-577" fill="#BDC3C7" sketch:type="MSShapeGroup"></path>
            <path d="M13,46 L45,46 L45,50 L13,50 L13,46 Z" id="Fill-594" fill="#BDC3C7" sketch:type="MSShapeGroup"></path>
        </g>
    </g>
</svg>