<?xml version="1.0" encoding="UTF-8" standalone="no"?>
<svg width="58px" height="58px" viewBox="0 0 58 58" version="1.1" xmlns="http://www.w3.org/2000/svg" xmlns:xlink="http://www.w3.org/1999/xlink" xmlns:sketch="http://www.bohemiancoding.com/sketch/ns">
    <!-- Generator: Sketch 3.2.2 (9983) - http://www.bohemiancoding.com/sketch -->
    <title>53 - Unlock (Flat)</title>
    <desc>Created with Sketch.</desc>
    <defs></defs>
    <g id="Page-1" stroke="none" stroke-width="1" fill="none" fill-rule="evenodd" sketch:type="MSPage">
        <g id="53---Unlock-(Flat)" sketch:type="MSLayerGroup">
            <path d="M0,0 L58,0 L58,58 L0,58 L0,0 Z" id="Fill-89" fill="#ECF0F1" sketch:type="MSShapeGroup"></path>
            <path d="M0,0 L58,0 L58,12 L0,12 L0,0 Z" id="Fill-90" fill="#546A79" sketch:type="MSShapeGroup"></path>
            <path d="M9,6 C9,7.657 7.657,9 6,9 C4.343,9 3,7.657 3,6 C3,4.343 4.343,3 6,3 C7.657,3 9,4.343 9,6" id="Fill-91" fill="#ED7161" sketch:type="MSShapeGroup"></path>
            <path d="M18,6 C18,7.657 16.657,9 15,9 C13.343,9 12,7.657 12,6 C12,4.343 13.343,3 15,3 C16.657,3 18,4.343 18,6" id="Fill-92" fill="#F0C419" sketch:type="MSShapeGroup"></path>
            <path d="M27,6 C27,7.657 25.657,9 24,9 C22.343,9 21,7.657 21,6 C21,4.343 22.343,3 24,3 C25.657,3 27,4.343 27,6" id="Fill-93" fill="#4FBA6F" sketch:type="MSShapeGroup"></path>
            <path d="M25,21 L19,21 C18.447,21 18,21.447 18,22 C18,22.553 18.447,23 19,23 L25,23 C25.553,23 26,22.553 26,22 C26,21.447 25.553,21 25,21" id="Fill-353" fill="#BDC3C7" sketch:type="MSShapeGroup"></path>
            <path d="M29,25 C28.447,25 28,25.447 28,26 L28,31 C28,31.553 28.447,32 29,32 C29.553,32 30,31.553 30,31 L30,26 C30,25.447 29.553,25 29,25" id="Fill-354" fill="#BDC3C7" sketch:type="MSShapeGroup"></path>
            <path d="M39,34 L33,34 C32.447,34 32,34.447 32,35 C32,35.553 32.447,36 33,36 L39,36 C39.553,36 40,35.553 40,35 C40,34.447 39.553,34 39,34" id="Fill-355" fill="#BDC3C7" sketch:type="MSShapeGroup"></path>
            <path d="M43,38 C42.447,38 42,38.447 42,39 L42,44 C42,44.553 42.447,45 43,45 C43.553,45 44,44.553 44,44 L44,39 C44,38.447 43.553,38 43,38" id="Fill-356" fill="#BDC3C7" sketch:type="MSShapeGroup"></path>
            <path d="M39,47 L33,47 C32.447,47 32,47.447 32,48 C32,48.553 32.447,49 33,49 L39,49 C39.553,49 40,48.553 40,48 C40,47.447 39.553,47 39,47" id="Fill-357" fill="#BDC3C7" sketch:type="MSShapeGroup"></path>
            <path d="M25,47 L19,47 C18.447,47 18,47.447 18,48 C18,48.553 18.447,49 19,49 L25,49 C25.553,49 26,48.553 26,48 C26,47.447 25.553,47 25,47" id="Fill-358" fill="#BDC3C7" sketch:type="MSShapeGroup"></path>
            <path d="M15,38 C14.447,38 14,38.447 14,39 L14,44 C14,44.553 14.447,45 15,45 C15.553,45 16,44.553 16,44 L16,39 C16,38.447 15.553,38 15,38" id="Fill-359" fill="#BDC3C7" sketch:type="MSShapeGroup"></path>
            <path d="M19,22 C19,24.209 17.209,26 15,26 C12.791,26 11,24.209 11,22 C11,19.791 12.791,18 15,18 C17.209,18 19,19.791 19,22" id="Fill-959" fill="#BDC3C7" sketch:type="MSShapeGroup"></path>
            <path d="M33,22 C33,24.209 31.209,26 29,26 C26.791,26 25,24.209 25,22 C25,19.791 26.791,18 29,18 C31.209,18 33,19.791 33,22" id="Fill-960" fill="#BDC3C7" sketch:type="MSShapeGroup"></path>
            <path d="M47,22 C47,24.209 45.209,26 43,26 C40.791,26 39,24.209 39,22 C39,19.791 40.791,18 43,18 C45.209,18 47,19.791 47,22" id="Fill-961" fill="#FFFFFF" sketch:type="MSShapeGroup"></path>
            <path d="M19,35 C19,37.209 17.209,39 15,39 C12.791,39 11,37.209 11,35 C11,32.791 12.791,31 15,31 C17.209,31 19,32.791 19,35" id="Fill-962" fill="#BDC3C7" sketch:type="MSShapeGroup"></path>
            <path d="M33,35 C33,37.209 31.209,39 29,39 C26.791,39 25,37.209 25,35 C25,32.791 26.791,31 29,31 C31.209,31 33,32.791 33,35" id="Fill-963" fill="#BDC3C7" sketch:type="MSShapeGroup"></path>
            <path d="M47,35 C47,37.209 45.209,39 43,39 C40.791,39 39,37.209 39,35 C39,32.791 40.791,31 43,31 C45.209,31 47,32.791 47,35" id="Fill-964" fill="#BDC3C7" sketch:type="MSShapeGroup"></path>
            <path d="M19,48 C19,50.209 17.209,52 15,52 C12.791,52 11,50.209 11,48 C11,45.791 12.791,44 15,44 C17.209,44 19,45.791 19,48" id="Fill-965" fill="#BDC3C7" sketch:type="MSShapeGroup"></path>
            <path d="M33,48 C33,50.209 31.209,52 29,52 C26.791,52 25,50.209 25,48 C25,45.791 26.791,44 29,44 C31.209,44 33,45.791 33,48" id="Fill-966" fill="#BDC3C7" sketch:type="MSShapeGroup"></path>
            <path d="M47,48 C47,50.209 45.209,52 43,52 C40.791,52 39,50.209 39,48 C39,45.791 40.791,44 43,44 C45.209,44 47,45.791 47,48" id="Fill-967" fill="#BDC3C7" sketch:type="MSShapeGroup"></path>
        </g>
    </g>
</svg>