<?xml version="1.0" encoding="UTF-8" standalone="no"?>
<svg width="58px" height="58px" viewBox="0 0 58 58" version="1.1" xmlns="http://www.w3.org/2000/svg" xmlns:xlink="http://www.w3.org/1999/xlink" xmlns:sketch="http://www.bohemiancoding.com/sketch/ns">
    <!-- Generator: Sketch 3.2.2 (9983) - http://www.bohemiancoding.com/sketch -->
    <title>54 - Upload (Flat)</title>
    <desc>Created with Sketch.</desc>
    <defs></defs>
    <g id="Page-1" stroke="none" stroke-width="1" fill="none" fill-rule="evenodd" sketch:type="MSPage">
        <g id="54---Upload-(Flat)" sketch:type="MSLayerGroup">
            <path d="M0,0 L58,0 L58,58 L0,58 L0,0 Z" id="Fill-193" fill="#ECF0F1" sketch:type="MSShapeGroup"></path>
            <path d="M0,0 L58,0 L58,12 L0,12 L0,0 Z" id="Fill-194" fill="#546A79" sketch:type="MSShapeGroup"></path>
            <path d="M9,6 C9,7.657 7.657,9 6,9 C4.343,9 3,7.657 3,6 C3,4.343 4.343,3 6,3 C7.657,3 9,4.343 9,6" id="Fill-195" fill="#ED7161" sketch:type="MSShapeGroup"></path>
            <path d="M18,6 C18,7.657 16.657,9 15,9 C13.343,9 12,7.657 12,6 C12,4.343 13.343,3 15,3 C16.657,3 18,4.343 18,6" id="Fill-196" fill="#F0C419" sketch:type="MSShapeGroup"></path>
            <path d="M27,6 C27,7.657 25.657,9 24,9 C22.343,9 21,7.657 21,6 C21,4.343 22.343,3 24,3 C25.657,3 27,4.343 27,6" id="Fill-197" fill="#4FBA6F" sketch:type="MSShapeGroup"></path>
            <path d="M9,20 L50,20 L50,50 L9,50 L9,20 Z" id="Fill-351" fill="#FFFFFF" sketch:type="MSShapeGroup"></path>
            <path d="M37,34 L30,34 L30,27 C30,26.447 29.553,26 29,26 C28.447,26 28,26.447 28,27 L28,34 L21,34 C20.447,34 20,34.447 20,35 C20,35.553 20.447,36 21,36 L28,36 L28,43 C28,43.553 28.447,44 29,44 C29.553,44 30,43.553 30,43 L30,36 L37,36 C37.553,36 38,35.553 38,35 C38,34.447 37.553,34 37,34" id="Fill-352" fill="#24AE5F" sketch:type="MSShapeGroup"></path>
        </g>
    </g>
</svg>