<?xml version="1.0" encoding="UTF-8" standalone="no"?>
<svg width="58px" height="58px" viewBox="0 0 58 58" version="1.1" xmlns="http://www.w3.org/2000/svg" xmlns:xlink="http://www.w3.org/1999/xlink" xmlns:sketch="http://www.bohemiancoding.com/sketch/ns">
    <!-- Generator: Sketch 3.2.2 (9983) - http://www.bohemiancoding.com/sketch -->
    <title>69 - Upload Message (Flat)</title>
    <desc>Created with Sketch.</desc>
    <defs></defs>
    <g id="Page-1" stroke="none" stroke-width="1" fill="none" fill-rule="evenodd" sketch:type="MSPage">
        <g id="69---Upload-Message-(Flat)" sketch:type="MSLayerGroup">
            <path d="M0,0 L58,0 L58,58 L0,58 L0,0 Z" id="Fill-104" fill="#ECF0F1" sketch:type="MSShapeGroup"></path>
            <path d="M0,0 L58,0 L58,12 L0,12 L0,0 Z" id="Fill-105" fill="#546A79" sketch:type="MSShapeGroup"></path>
            <path d="M9,6 C9,7.657 7.657,9 6,9 C4.343,9 3,7.657 3,6 C3,4.343 4.343,3 6,3 C7.657,3 9,4.343 9,6" id="Fill-106" fill="#ED7161" sketch:type="MSShapeGroup"></path>
            <path d="M18,6 C18,7.657 16.657,9 15,9 C13.343,9 12,7.657 12,6 C12,4.343 13.343,3 15,3 C16.657,3 18,4.343 18,6" id="Fill-107" fill="#F0C419" sketch:type="MSShapeGroup"></path>
            <path d="M27,6 C27,7.657 25.657,9 24,9 C22.343,9 21,7.657 21,6 C21,4.343 22.343,3 24,3 C25.657,3 27,4.343 27,6" id="Fill-108" fill="#4FBA6F" sketch:type="MSShapeGroup"></path>
            <path d="M35,48 L22,48 C21.448,48 21,47.553 21,47 C21,46.447 21.448,46 22,46 L35,46 C35.552,46 36,46.447 36,47 C36,47.553 35.552,48 35,48" id="Fill-900" fill="#BDC3C7" sketch:type="MSShapeGroup"></path>
            <path d="M40,52 L16,52 C15.448,52 15,51.553 15,51 C15,50.447 15.448,50 16,50 L40,50 C40.552,50 41,50.447 41,51 C41,51.553 40.552,52 40,52" id="Fill-901" fill="#BDC3C7" sketch:type="MSShapeGroup"></path>
            <path d="M17,30 C17,23.373 22.373,18 29,18 C35.627,18 41,23.373 41,30 C41,36.627 35.627,42 29,42 C22.373,42 17,36.627 17,30" id="Fill-902" fill="#0096E6" sketch:type="MSShapeGroup"></path>
            <path d="M34.707,29.293 L29.708,24.294 C29.615,24.201 29.505,24.128 29.382,24.077 C29.138,23.976 28.862,23.976 28.618,24.077 C28.495,24.128 28.385,24.201 28.292,24.294 L23.293,29.293 C22.902,29.684 22.902,30.316 23.293,30.707 C23.488,30.902 23.744,31 24,31 C24.256,31 24.512,30.902 24.707,30.707 L28,27.414 L28,35 C28,35.553 28.448,36 29,36 C29.552,36 30,35.553 30,35 L30,27.414 L33.293,30.707 C33.488,30.902 33.744,31 34,31 C34.256,31 34.512,30.902 34.707,30.707 C35.098,30.316 35.098,29.684 34.707,29.293" id="Fill-1011" fill="#FFFFFF" sketch:type="MSShapeGroup"></path>
        </g>
    </g>
</svg>