<?xml version="1.0" encoding="UTF-8" standalone="no"?>
<svg width="58px" height="57px" viewBox="0 0 58 57" version="1.1" xmlns="http://www.w3.org/2000/svg" xmlns:xlink="http://www.w3.org/1999/xlink" xmlns:sketch="http://www.bohemiancoding.com/sketch/ns">
    <!-- Generator: Sketch 3.2.2 (9983) - http://www.bohemiancoding.com/sketch -->
    <title>32 - Uppercase (Flat)</title>
    <desc>Created with Sketch.</desc>
    <defs></defs>
    <g id="Page-1" stroke="none" stroke-width="1" fill="none" fill-rule="evenodd" sketch:type="MSPage">
        <g id="32---Uppercase-(Flat)" sketch:type="MSLayerGroup">
            <path d="M0,0 L58,0 L58,57 L0,57 L0,0 Z" id="Fill-613" fill="#ECF0F1" sketch:type="MSShapeGroup"></path>
            <path d="M52,46 C51.592,46 51.208,45.748 51.061,45.342 L39.061,12.342 C38.871,11.822 39.14,11.249 39.658,11.061 C40.18,10.872 40.751,11.14 40.939,11.658 L52.939,44.658 C53.129,45.178 52.86,45.751 52.342,45.939 C52.228,45.98 52.113,46 52,46" id="Fill-615" fill="#BDC3C7" sketch:type="MSShapeGroup"></path>
            <path d="M28,46 C27.887,46 27.771,45.98 27.658,45.939 C27.14,45.751 26.871,45.178 27.061,44.658 L39.061,11.658 C39.249,11.14 39.821,10.873 40.342,11.061 C40.86,11.249 41.129,11.822 40.939,12.342 L28.939,45.342 C28.792,45.748 28.408,46 28,46" id="Fill-616" fill="#BDC3C7" sketch:type="MSShapeGroup"></path>
            <path d="M23,46 C22.598,46 22.218,45.755 22.065,45.356 L14.065,24.356 C13.869,23.84 14.128,23.262 14.643,23.065 C15.158,22.867 15.737,23.128 15.935,23.644 L23.935,44.644 C24.131,45.16 23.872,45.738 23.356,45.935 C23.239,45.98 23.118,46 23,46" id="Fill-617" fill="#BDC3C7" sketch:type="MSShapeGroup"></path>
            <path d="M7,46 C6.882,46 6.761,45.98 6.644,45.935 C6.128,45.738 5.869,45.16 6.065,44.644 L14.065,23.644 C14.262,23.128 14.84,22.867 15.356,23.065 C15.872,23.262 16.131,23.84 15.935,24.356 L7.935,45.356 C7.782,45.755 7.402,46 7,46" id="Fill-618" fill="#BDC3C7" sketch:type="MSShapeGroup"></path>
            <path d="M47.637,34 L32.363,34 C31.811,34 31.363,33.553 31.363,33 C31.363,32.447 31.811,32 32.363,32 L47.637,32 C48.189,32 48.637,32.447 48.637,33 C48.637,33.553 48.189,34 47.637,34" id="Fill-619" fill="#BDC3C7" sketch:type="MSShapeGroup"></path>
            <path d="M19.952,38 L10.048,38 C9.495,38 9.048,37.553 9.048,37 C9.048,36.447 9.495,36 10.048,36 L19.952,36 C20.505,36 20.952,36.447 20.952,37 C20.952,37.553 20.505,38 19.952,38" id="Fill-620" fill="#BDC3C7" sketch:type="MSShapeGroup"></path>
            <path d="M20,15 C19.744,15 19.488,14.902 19.293,14.707 L14.293,9.707 C13.902,9.316 13.902,8.684 14.293,8.293 C14.684,7.902 15.316,7.902 15.707,8.293 L20.707,13.293 C21.098,13.684 21.098,14.316 20.707,14.707 C20.512,14.902 20.256,15 20,15" id="Fill-621" fill="#BDC3C7" sketch:type="MSShapeGroup"></path>
            <path d="M10,15 C9.744,15 9.488,14.902 9.293,14.707 C8.902,14.316 8.902,13.684 9.293,13.293 L14.293,8.293 C14.684,7.902 15.316,7.902 15.707,8.293 C16.098,8.684 16.098,9.316 15.707,9.707 L10.707,14.707 C10.512,14.902 10.256,15 10,15" id="Fill-622" fill="#BDC3C7" sketch:type="MSShapeGroup"></path>
            <path d="M15,20 C14.447,20 14,19.553 14,19 L14,9 C14,8.447 14.447,8 15,8 C15.553,8 16,8.447 16,9 L16,19 C16,19.553 15.553,20 15,20" id="Fill-623" fill="#BDC3C7" sketch:type="MSShapeGroup"></path>
        </g>
    </g>
</svg>