<?xml version="1.0" encoding="UTF-8" standalone="no"?>
<svg width="58px" height="58px" viewBox="0 0 58 58" version="1.1" xmlns="http://www.w3.org/2000/svg" xmlns:xlink="http://www.w3.org/1999/xlink" xmlns:sketch="http://www.bohemiancoding.com/sketch/ns">
    <!-- Generator: Sketch 3.2.2 (9983) - http://www.bohemiancoding.com/sketch -->
    <title>56 - Web App (Flat)</title>
    <desc>Created with Sketch.</desc>
    <defs></defs>
    <g id="Page-1" stroke="none" stroke-width="1" fill="none" fill-rule="evenodd" sketch:type="MSPage">
        <g id="56---Web-App-(Flat)" sketch:type="MSLayerGroup">
            <path d="M0,0 L58,0 L58,58 L0,58 L0,0 Z" id="Fill-178" fill="#ECF0F1" sketch:type="MSShapeGroup"></path>
            <path d="M0,0 L58,0 L58,12 L0,12 L0,0 Z" id="Fill-179" fill="#546A79" sketch:type="MSShapeGroup"></path>
            <path d="M9,6 C9,7.657 7.657,9 6,9 C4.343,9 3,7.657 3,6 C3,4.343 4.343,3 6,3 C7.657,3 9,4.343 9,6" id="Fill-180" fill="#ED7161" sketch:type="MSShapeGroup"></path>
            <path d="M18,6 C18,7.657 16.657,9 15,9 C13.343,9 12,7.657 12,6 C12,4.343 13.343,3 15,3 C16.657,3 18,4.343 18,6" id="Fill-181" fill="#F0C419" sketch:type="MSShapeGroup"></path>
            <path d="M27,6 C27,7.657 25.657,9 24,9 C22.343,9 21,7.657 21,6 C21,4.343 22.343,3 24,3 C25.657,3 27,4.343 27,6" id="Fill-182" fill="#4FBA6F" sketch:type="MSShapeGroup"></path>
            <path d="M0,12 L12,12 L12,58 L0,58 L0,12 Z" id="Fill-300" fill="#556080" sketch:type="MSShapeGroup"></path>
            <path d="M4,19 L8,19 C8.552,19 9,18.553 9,18 C9,17.447 8.552,17 8,17 L4,17 C3.448,17 3,17.447 3,18 C3,18.553 3.448,19 4,19" id="Fill-301" fill="#768E9B" sketch:type="MSShapeGroup"></path>
            <path d="M8,22 L4,22 C3.448,22 3,22.447 3,23 C3,23.553 3.448,24 4,24 L8,24 C8.552,24 9,23.553 9,23 C9,22.447 8.552,22 8,22" id="Fill-302" fill="#768E9B" sketch:type="MSShapeGroup"></path>
            <path d="M8,27 L4,27 C3.448,27 3,27.447 3,28 C3,28.553 3.448,29 4,29 L8,29 C8.552,29 9,28.553 9,28 C9,27.447 8.552,27 8,27" id="Fill-303" fill="#768E9B" sketch:type="MSShapeGroup"></path>
            <path d="M8,32 L4,32 C3.448,32 3,32.447 3,33 C3,33.553 3.448,34 4,34 L8,34 C8.552,34 9,33.553 9,33 C9,32.447 8.552,32 8,32" id="Fill-304" fill="#768E9B" sketch:type="MSShapeGroup"></path>
            <path d="M8,37 L4,37 C3.448,37 3,37.447 3,38 C3,38.553 3.448,39 4,39 L8,39 C8.552,39 9,38.553 9,38 C9,37.447 8.552,37 8,37" id="Fill-305" fill="#768E9B" sketch:type="MSShapeGroup"></path>
            <path d="M8,42 L4,42 C3.448,42 3,42.447 3,43 C3,43.553 3.448,44 4,44 L8,44 C8.552,44 9,43.553 9,43 C9,42.447 8.552,42 8,42" id="Fill-306" fill="#768E9B" sketch:type="MSShapeGroup"></path>
            <path d="M8,47 L4,47 C3.448,47 3,47.447 3,48 C3,48.553 3.448,49 4,49 L8,49 C8.552,49 9,48.553 9,48 C9,47.447 8.552,47 8,47" id="Fill-307" fill="#768E9B" sketch:type="MSShapeGroup"></path>
            <path d="M8,52 L4,52 C3.448,52 3,52.447 3,53 C3,53.553 3.448,54 4,54 L8,54 C8.552,54 9,53.553 9,53 C9,52.447 8.552,52 8,52" id="Fill-308" fill="#768E9B" sketch:type="MSShapeGroup"></path>
            <path d="M18,18 L32,18 L32,32 L18,32 L18,18 Z" id="Fill-320" fill="#9777A8" sketch:type="MSShapeGroup"></path>
            <path d="M38,18 L52,18 L52,32 L38,32 L38,18 Z" id="Fill-321" fill="#F29C1F" sketch:type="MSShapeGroup"></path>
            <path d="M18,38 L32,38 L32,52 L18,52 L18,38 Z" id="Fill-322" fill="#26B99A" sketch:type="MSShapeGroup"></path>
            <path d="M38,38 L52,38 L52,52 L38,52 L38,38 Z" id="Fill-323" fill="#ED7161" sketch:type="MSShapeGroup"></path>
        </g>
    </g>
</svg>