<?xml version="1.0" encoding="UTF-8" standalone="no"?>
<svg width="56px" height="56px" viewBox="0 0 56 56" version="1.1" xmlns="http://www.w3.org/2000/svg" xmlns:xlink="http://www.w3.org/1999/xlink" xmlns:sketch="http://www.bohemiancoding.com/sketch/ns">
    <!-- Generator: Sketch 3.2.2 (9983) - http://www.bohemiancoding.com/sketch -->
    <title>140 - Align to Center (Flat)</title>
    <desc>Created with Sketch.</desc>
    <defs></defs>
    <g id="Page-1" stroke="none" stroke-width="1" fill="none" fill-rule="evenodd" sketch:type="MSPage">
        <g id="140---Align-to-Center-(Flat)" sketch:type="MSLayerGroup" transform="translate(-1.000000, -1.000000)">
            <path d="M2,57 C1.744,57 1.488,56.902 1.293,56.707 C0.902,56.316 0.902,55.684 1.293,55.293 L26.293,30.293 C26.684,29.902 27.316,29.902 27.707,30.293 C28.098,30.683 28.098,31.316 27.707,31.707 L2.707,56.707 C2.512,56.902 2.256,57 2,57" id="Fill-901" fill="#8697CB" sketch:type="MSShapeGroup"></path>
            <path d="M27,44 C26.448,44 26,43.552 26,43 L26,31 C26,30.448 26.448,30 27,30 C27.552,30 28,30.448 28,31 L28,43 C28,43.552 27.552,44 27,44" id="Fill-902" fill="#8697CB" sketch:type="MSShapeGroup"></path>
            <path id="Stroke-903" stroke="#8697CB" stroke-width="2" stroke-linecap="round" sketch:type="MSShapeGroup"></path>
            <path d="M27,32 L15,32 C14.448,32 14,31.552 14,31 C14,30.448 14.448,30 15,30 L27,30 C27.552,30 28,30.448 28,31 C28,31.552 27.552,32 27,32" id="Fill-924" fill="#8697CB" sketch:type="MSShapeGroup"></path>
            <path d="M27,28 C26.744,28 26.488,27.902 26.293,27.707 L1.293,2.707 C0.902,2.316 0.902,1.684 1.293,1.293 C1.684,0.902 2.316,0.902 2.707,1.293 L27.707,26.293 C28.098,26.683 28.098,27.316 27.707,27.707 C27.512,27.902 27.256,28 27,28" id="Fill-925" fill="#8697CB" sketch:type="MSShapeGroup"></path>
            <path d="M27,28 L15,28 C14.448,28 14,27.552 14,27 C14,26.448 14.448,26 15,26 L27,26 C27.552,26 28,26.448 28,27 C28,27.552 27.552,28 27,28" id="Fill-926" fill="#8697CB" sketch:type="MSShapeGroup"></path>
            <path id="Stroke-927" stroke="#8697CB" stroke-width="2" stroke-linecap="round" sketch:type="MSShapeGroup"></path>
            <path d="M27,28 C26.448,28 26,27.552 26,27 L26,15 C26,14.448 26.448,14 27,14 C27.552,14 28,14.448 28,15 L28,27 C28,27.552 27.552,28 27,28" id="Fill-928" fill="#8697CB" sketch:type="MSShapeGroup"></path>
            <path d="M31,28 C30.744,28 30.488,27.902 30.293,27.707 C29.902,27.316 29.902,26.683 30.293,26.293 L55.293,1.293 C55.684,0.902 56.316,0.902 56.707,1.293 C57.098,1.684 57.098,2.316 56.707,2.707 L31.707,27.707 C31.512,27.902 31.256,28 31,28" id="Fill-929" fill="#8697CB" sketch:type="MSShapeGroup"></path>
            <path d="M31,28 C30.448,28 30,27.552 30,27 L30,15 C30,14.448 30.448,14 31,14 C31.552,14 32,14.448 32,15 L32,27 C32,27.552 31.552,28 31,28" id="Fill-930" fill="#8697CB" sketch:type="MSShapeGroup"></path>
            <path id="Stroke-931" stroke="#8697CB" stroke-width="2" stroke-linecap="round" sketch:type="MSShapeGroup"></path>
            <path d="M43,28 L31,28 C30.448,28 30,27.552 30,27 C30,26.448 30.448,26 31,26 L43,26 C43.552,26 44,26.448 44,27 C44,27.552 43.552,28 43,28" id="Fill-932" fill="#8697CB" sketch:type="MSShapeGroup"></path>
            <path d="M56,57 C55.744,57 55.488,56.902 55.293,56.707 L30.293,31.707 C29.902,31.316 29.902,30.683 30.293,30.293 C30.684,29.902 31.316,29.902 31.707,30.293 L56.707,55.293 C57.098,55.684 57.098,56.316 56.707,56.707 C56.512,56.902 56.256,57 56,57" id="Fill-933" fill="#8697CB" sketch:type="MSShapeGroup"></path>
            <path d="M43,32 L31,32 C30.448,32 30,31.552 30,31 C30,30.448 30.448,30 31,30 L43,30 C43.552,30 44,30.448 44,31 C44,31.552 43.552,32 43,32" id="Fill-934" fill="#8697CB" sketch:type="MSShapeGroup"></path>
            <path id="Stroke-935" stroke="#8697CB" stroke-width="2" stroke-linecap="round" sketch:type="MSShapeGroup"></path>
            <path d="M31,44 C30.448,44 30,43.552 30,43 L30,31 C30,30.448 30.448,30 31,30 C31.552,30 32,30.448 32,31 L32,43 C32,43.552 31.552,44 31,44" id="Fill-936" fill="#8697CB" sketch:type="MSShapeGroup"></path>
        </g>
    </g>
</svg>