<?xml version="1.0" encoding="UTF-8" standalone="no"?>
<svg width="46px" height="58px" viewBox="0 0 46 58" version="1.1" xmlns="http://www.w3.org/2000/svg" xmlns:xlink="http://www.w3.org/1999/xlink" xmlns:sketch="http://www.bohemiancoding.com/sketch/ns">
    <!-- Generator: Sketch 3.2.2 (9983) - http://www.bohemiancoding.com/sketch -->
    <title>125 - Alternative Circuit (Flat)</title>
    <desc>Created with Sketch.</desc>
    <defs></defs>
    <g id="Page-1" stroke="none" stroke-width="1" fill="none" fill-rule="evenodd" sketch:type="MSPage">
        <g id="125---Alternative-Circuit-(Flat)" sketch:type="MSLayerGroup" transform="translate(0.000000, -1.000000)">
            <path d="M27,53 C26.744,53 26.488,52.902 26.293,52.707 L20.293,46.707 C19.902,46.316 19.902,45.683 20.293,45.293 C20.684,44.902 21.316,44.902 21.707,45.293 L27.707,51.293 C28.098,51.683 28.098,52.316 27.707,52.707 C27.512,52.902 27.256,53 27,53" id="Fill-273" fill="#546A79" sketch:type="MSShapeGroup"></path>
            <path d="M21,59 C20.744,59 20.488,58.902 20.293,58.707 C19.902,58.316 19.902,57.683 20.293,57.293 L26.293,51.293 C26.684,50.902 27.316,50.902 27.707,51.293 C28.098,51.683 28.098,52.316 27.707,52.707 L21.707,58.707 C21.512,58.902 21.256,59 21,59" id="Fill-274" fill="#546A79" sketch:type="MSShapeGroup"></path>
            <path d="M7,16.5 C6.447,16.5 6,16.052 6,15.5 L6,14 C6,13.447 6.447,13 7,13 C7.553,13 8,13.447 8,14 L8,15.5 C8,16.052 7.553,16.5 7,16.5" id="Fill-275" fill="#546A79" sketch:type="MSShapeGroup"></path>
            <path d="M7,27.789 C6.447,27.789 6,27.342 6,26.789 L6,24.907 C6,24.354 6.447,23.907 7,23.907 C7.553,23.907 8,24.354 8,24.907 L8,26.789 C8,27.342 7.553,27.789 7,27.789 L7,27.789 Z M7,22.144 C6.447,22.144 6,21.697 6,21.144 L6,19.263 C6,18.71 6.447,18.263 7,18.263 C7.553,18.263 8,18.71 8,19.263 L8,21.144 C8,21.697 7.553,22.144 7,22.144 L7,22.144 Z" id="Fill-276" fill="#546A79" sketch:type="MSShapeGroup"></path>
            <path d="M21.727,53 L19.845,53 C19.292,53 18.845,52.552 18.845,52 C18.845,51.447 19.292,51 19.845,51 L21.727,51 C22.279,51 22.727,51.447 22.727,52 C22.727,52.552 22.279,53 21.727,53 L21.727,53 Z M16.083,52.977 C16.06,52.977 16.035,52.975 16.012,52.973 C15.322,52.926 14.636,52.81 13.972,52.632 C13.437,52.488 13.121,51.94 13.265,51.407 C13.408,50.873 13.962,50.558 14.489,50.7 C15.031,50.846 15.591,50.939 16.152,50.979 C16.703,51.018 17.118,51.496 17.079,52.047 C17.042,52.574 16.604,52.977 16.083,52.977 L16.083,52.977 Z M10.873,51.019 C10.663,51.019 10.451,50.953 10.27,50.816 C9.441,50.188 8.71,49.446 8.094,48.61 C7.767,48.166 7.861,47.54 8.307,47.212 C8.753,46.885 9.377,46.979 9.705,47.425 C10.206,48.106 10.803,48.711 11.477,49.223 C11.918,49.556 12.005,50.183 11.671,50.623 C11.475,50.883 11.176,51.019 10.873,51.019 L10.873,51.019 Z M7.299,45.638 C6.852,45.638 6.445,45.336 6.33,44.883 C6.162,44.216 6.057,43.528 6.018,42.838 C5.986,42.286 6.407,41.814 6.959,41.783 C7.501,41.753 7.982,42.173 8.014,42.724 C8.046,43.288 8.132,43.849 8.269,44.392 C8.404,44.927 8.08,45.472 7.545,45.607 C7.463,45.628 7.38,45.638 7.299,45.638 L7.299,45.638 Z M7,40.019 C6.447,40.019 6,39.571 6,39.019 L6,37.137 C6,36.584 6.447,36.137 7,36.137 C7.553,36.137 8,36.584 8,37.137 L8,39.019 C8,39.571 7.553,40.019 7,40.019 L7,40.019 Z M7,34.374 C6.447,34.374 6,33.927 6,33.374 L6,30.552 C6,29.999 6.447,29.552 7,29.552 C7.553,29.552 8,29.999 8,30.552 L8,33.374 C8,33.927 7.553,34.374 7,34.374 L7,34.374 Z" id="Fill-277" fill="#546A79" sketch:type="MSShapeGroup"></path>
            <path d="M27,53 L25.5,53 C24.947,53 24.5,52.552 24.5,52 C24.5,51.447 24.947,51 25.5,51 L27,51 C27.553,51 28,51.447 28,52 C28,52.552 27.553,53 27,53" id="Fill-278" fill="#546A79" sketch:type="MSShapeGroup"></path>
            <path d="M25,15 C24.744,15 24.488,14.902 24.293,14.707 L18.293,8.707 C17.902,8.316 17.902,7.683 18.293,7.293 C18.684,6.902 19.316,6.902 19.707,7.293 L25.707,13.293 C26.098,13.683 26.098,14.316 25.707,14.707 C25.512,14.902 25.256,15 25,15" id="Fill-279" fill="#546A79" sketch:type="MSShapeGroup"></path>
            <path d="M19,9 C18.744,9 18.488,8.902 18.293,8.707 C17.902,8.316 17.902,7.683 18.293,7.293 L24.293,1.293 C24.684,0.902 25.316,0.902 25.707,1.293 C26.098,1.683 26.098,2.316 25.707,2.707 L19.707,8.707 C19.512,8.902 19.256,9 19,9" id="Fill-280" fill="#546A79" sketch:type="MSShapeGroup"></path>
            <path d="M39,47 C38.447,47 38,46.552 38,46 L38,17.774 C38,12.936 34.063,9 29.226,9 L19,9 C18.447,9 18,8.552 18,8 C18,7.447 18.447,7 19,7 L29.226,7 C35.167,7 40,11.833 40,17.774 L40,46 C40,46.552 39.553,47 39,47" id="Fill-281" fill="#546A79" sketch:type="MSShapeGroup"></path>
            <path d="M13,8 C13,11.314 10.314,14 7,14 C3.686,14 1,11.314 1,8 C1,4.686 3.686,2 7,2 C10.314,2 13,4.686 13,8" id="Fill-856" fill="#88C057" sketch:type="MSShapeGroup"></path>
            <path d="M7,15 C3.141,15 0,11.859 0,8 C0,4.141 3.141,1 7,1 C10.859,1 14,4.141 14,8 C14,11.859 10.859,15 7,15 L7,15 Z M7,3 C4.243,3 2,5.243 2,8 C2,10.757 4.243,13 7,13 C9.757,13 12,10.757 12,8 C12,5.243 9.757,3 7,3 L7,3 Z" id="Fill-857" fill="#88C057" sketch:type="MSShapeGroup"></path>
            <path d="M33,52 C33,48.686 35.686,46 39,46 C42.314,46 45,48.686 45,52 C45,55.314 42.314,58 39,58 C35.686,58 33,55.314 33,52" id="Fill-858" fill="#B1E97C" sketch:type="MSShapeGroup"></path>
            <path d="M39,59 C35.141,59 32,55.859 32,52 C32,48.141 35.141,45 39,45 C42.859,45 46,48.141 46,52 C46,55.859 42.859,59 39,59 L39,59 Z M39,47 C36.243,47 34,49.243 34,52 C34,54.757 36.243,57 39,57 C41.757,57 44,54.757 44,52 C44,49.243 41.757,47 39,47 L39,47 Z" id="Fill-859" fill="#B1E97C" sketch:type="MSShapeGroup"></path>
        </g>
    </g>
</svg>