<?xml version="1.0" encoding="UTF-8" standalone="no"?>
<svg width="47px" height="47px" viewBox="0 0 47 47" version="1.1" xmlns="http://www.w3.org/2000/svg" xmlns:xlink="http://www.w3.org/1999/xlink" xmlns:sketch="http://www.bohemiancoding.com/sketch/ns">
    <!-- Generator: Sketch 3.2.2 (9983) - http://www.bohemiancoding.com/sketch -->
    <title>154 - Arrow Bottom Left (Flat)</title>
    <desc>Created with Sketch.</desc>
    <defs></defs>
    <g id="Page-1" stroke="none" stroke-width="1" fill="none" fill-rule="evenodd" sketch:type="MSPage">
        <g id="154---Arrow-Bottom-Left-(Flat)" sketch:type="MSLayerGroup" transform="translate(-1.000000, -1.000000)" fill="#57B1E3">
            <path d="M2,48 C1.447,48 1,47.552 1,47 L1,20 C1,19.448 1.447,19 2,19 C2.553,19 3,19.448 3,20 L3,47 C3,47.552 2.553,48 2,48" id="Fill-226" sketch:type="MSShapeGroup"></path>
            <path d="M29,48 L2,48 C1.447,48 1,47.552 1,47 C1,46.448 1.447,46 2,46 L29,46 C29.553,46 30,46.448 30,47 C30,47.552 29.553,48 29,48" id="Fill-227" sketch:type="MSShapeGroup"></path>
            <path d="M2,48 C1.744,48 1.488,47.902 1.293,47.707 C0.902,47.316 0.902,46.683 1.293,46.293 L46.293,1.293 C46.684,0.902 47.316,0.902 47.707,1.293 C48.098,1.683 48.098,2.316 47.707,2.707 L2.707,47.707 C2.512,47.902 2.256,48 2,48" id="Fill-228" sketch:type="MSShapeGroup"></path>
        </g>
    </g>
</svg>