<?xml version="1.0" encoding="UTF-8" standalone="no"?>
<svg width="47px" height="47px" viewBox="0 0 47 47" version="1.1" xmlns="http://www.w3.org/2000/svg" xmlns:xlink="http://www.w3.org/1999/xlink" xmlns:sketch="http://www.bohemiancoding.com/sketch/ns">
    <!-- Generator: Sketch 3.2.2 (9983) - http://www.bohemiancoding.com/sketch -->
    <title>153 - Arrow Top Right (Flat)</title>
    <desc>Created with Sketch.</desc>
    <defs></defs>
    <g id="Page-1" stroke="none" stroke-width="1" fill="none" fill-rule="evenodd" sketch:type="MSPage">
        <g id="153---Arrow-Top-Right-(Flat)" sketch:type="MSLayerGroup" transform="translate(-1.000000, -1.000000)" fill="#57B1E3">
            <path d="M47,30 C46.447,30 46,29.552 46,29 L46,2 C46,1.448 46.447,1 47,1 C47.553,1 48,1.448 48,2 L48,29 C48,29.552 47.553,30 47,30" id="Fill-229" sketch:type="MSShapeGroup"></path>
            <path d="M47,3 L20,3 C19.447,3 19,2.552 19,2 C19,1.448 19.447,1 20,1 L47,1 C47.553,1 48,1.448 48,2 C48,2.552 47.553,3 47,3" id="Fill-230" sketch:type="MSShapeGroup"></path>
            <path d="M2,48 C1.744,48 1.488,47.902 1.293,47.707 C0.902,47.316 0.902,46.683 1.293,46.293 L46.293,1.293 C46.684,0.902 47.316,0.902 47.707,1.293 C48.098,1.683 48.098,2.316 47.707,2.707 L2.707,47.707 C2.512,47.902 2.256,48 2,48" id="Fill-231" sketch:type="MSShapeGroup"></path>
        </g>
    </g>
</svg>