<?xml version="1.0" encoding="UTF-8" standalone="no"?>
<svg width="47px" height="47px" viewBox="0 0 47 47" version="1.1" xmlns="http://www.w3.org/2000/svg" xmlns:xlink="http://www.w3.org/1999/xlink" xmlns:sketch="http://www.bohemiancoding.com/sketch/ns">
    <!-- Generator: Sketch 3.2.2 (9983) - http://www.bohemiancoding.com/sketch -->
    <title>151 - Arrow Bottom Right (Flat)</title>
    <desc>Created with Sketch.</desc>
    <defs></defs>
    <g id="Page-1" stroke="none" stroke-width="1" fill="none" fill-rule="evenodd" sketch:type="MSPage">
        <g id="151---Arrow-Bottom-Right-(Flat)" sketch:type="MSLayerGroup" transform="translate(-1.000000, -1.000000)" fill="#57B1E3">
            <path d="M47,48 L20,48 C19.447,48 19,47.552 19,47 C19,46.448 19.447,46 20,46 L47,46 C47.553,46 48,46.448 48,47 C48,47.552 47.553,48 47,48" id="Fill-235" sketch:type="MSShapeGroup"></path>
            <path d="M47,48 C46.447,48 46,47.552 46,47 L46,20 C46,19.448 46.447,19 47,19 C47.553,19 48,19.448 48,20 L48,47 C48,47.552 47.553,48 47,48" id="Fill-236" sketch:type="MSShapeGroup"></path>
            <path d="M47,48 C46.744,48 46.488,47.902 46.293,47.707 L1.293,2.707 C0.902,2.316 0.902,1.683 1.293,1.293 C1.684,0.902 2.316,0.902 2.707,1.293 L47.707,46.293 C48.098,46.683 48.098,47.316 47.707,47.707 C47.512,47.902 47.256,48 47,48" id="Fill-237" sketch:type="MSShapeGroup"></path>
        </g>
    </g>
</svg>