<?xml version="1.0" encoding="UTF-8" standalone="no"?>
<svg width="54px" height="42px" viewBox="0 0 54 42" version="1.1" xmlns="http://www.w3.org/2000/svg" xmlns:xlink="http://www.w3.org/1999/xlink" xmlns:sketch="http://www.bohemiancoding.com/sketch/ns">
    <!-- Generator: Sketch 3.2.2 (9983) - http://www.bohemiancoding.com/sketch -->
    <title>2 - Blocked Cycle (Flat)</title>
    <desc>Created with Sketch.</desc>
    <defs></defs>
    <g id="Page-1" stroke="none" stroke-width="1" fill="none" fill-rule="evenodd" sketch:type="MSPage">
        <g id="2---Blocked-Cycle-(Flat)" sketch:type="MSLayerGroup">
            <path d="M43,42 L41,42 C40.447,42 40,41.553 40,41 C40,40.447 40.447,40 41,40 L43,40 C43.553,40 44,40.447 44,41 C44,41.553 43.553,42 43,42 L43,42 Z M37,42 L35,42 C34.447,42 34,41.553 34,41 C34,40.447 34.447,40 35,40 L37,40 C37.553,40 38,40.447 38,41 C38,41.553 37.553,42 37,42 L37,42 Z M31,42 L29,42 C28.447,42 28,41.553 28,41 C28,40.447 28.447,40 29,40 L31,40 C31.553,40 32,40.447 32,41 C32,41.553 31.553,42 31,42 L31,42 Z M25,42 L23,42 C22.447,42 22,41.553 22,41 C22,40.447 22.447,40 23,40 L25,40 C25.553,40 26,40.447 26,41 C26,41.553 25.553,42 25,42 L25,42 Z M19,42 L17,42 C16.447,42 16,41.553 16,41 C16,40.447 16.447,40 17,40 L19,40 C19.553,40 20,40.447 20,41 C20,41.553 19.553,42 19,42 L19,42 Z M13,42 L11,42 C10.447,42 10,41.553 10,41 C10,40.447 10.447,40 11,40 L13,40 C13.553,40 14,40.447 14,41 C14,41.553 13.553,42 13,42 L13,42 Z M46.892,41.207 C46.503,41.207 46.134,40.979 45.972,40.599 C45.755,40.091 45.992,39.503 46.5,39.287 C47.05,39.053 47.579,38.762 48.074,38.422 C48.529,38.11 49.153,38.224 49.465,38.68 C49.777,39.135 49.662,39.758 49.207,40.07 C48.602,40.485 47.955,40.841 47.283,41.127 C47.155,41.182 47.022,41.207 46.892,41.207 L46.892,41.207 Z M51.408,37.394 C51.223,37.394 51.035,37.343 50.867,37.235 C50.403,36.935 50.269,36.317 50.568,35.852 C50.895,35.348 51.17,34.809 51.387,34.254 C51.588,33.74 52.171,33.485 52.683,33.686 C53.197,33.888 53.451,34.468 53.25,34.982 C52.983,35.662 52.647,36.319 52.25,36.936 C52.059,37.233 51.736,37.394 51.408,37.394 L51.408,37.394 Z M52.995,31.704 C52.457,31.704 52.012,31.275 51.996,30.732 C51.979,30.132 51.901,29.533 51.765,28.954 C51.639,28.416 51.972,27.878 52.509,27.751 C53.042,27.63 53.585,27.957 53.712,28.495 C53.879,29.206 53.975,29.939 53.996,30.676 C54.012,31.227 53.577,31.687 53.024,31.704 L52.995,31.704 L52.995,31.704 Z M51.075,26.118 C50.767,26.118 50.463,25.977 50.268,25.709 C49.913,25.224 49.509,24.773 49.066,24.368 C48.659,23.995 48.632,23.362 49.005,22.955 C49.378,22.549 50.01,22.52 50.418,22.893 C50.957,23.388 51.449,23.938 51.881,24.527 C52.207,24.973 52.11,25.599 51.665,25.925 C51.486,26.056 51.28,26.118 51.075,26.118 L51.075,26.118 Z M46.342,22.578 C46.23,22.578 46.116,22.559 46.005,22.52 C45.441,22.318 44.855,22.174 44.264,22.09 C43.717,22.013 43.337,21.506 43.414,20.959 C43.492,20.412 43.999,20.035 44.545,20.109 C45.27,20.212 45.987,20.39 46.679,20.637 C47.198,20.822 47.47,21.395 47.283,21.915 C47.138,22.323 46.752,22.578 46.342,22.578 L46.342,22.578 Z" id="Fill-731" fill="#B1E97C" sketch:type="MSShapeGroup"></path>
            <path d="M43,0 L11,0 C4.935,0 0,4.934 0,11 C0,17.065 4.935,22 11,22 L21.586,22 L14.293,29.293 C13.902,29.683 13.902,30.316 14.293,30.707 C14.488,30.902 14.744,31 15,31 C15.256,31 15.512,30.902 15.707,30.707 L24.706,21.708 C24.799,21.616 24.872,21.505 24.923,21.382 C25.024,21.138 25.024,20.862 24.923,20.618 C24.872,20.495 24.799,20.384 24.706,20.292 L15.707,11.293 C15.316,10.902 14.684,10.902 14.293,11.293 C13.902,11.683 13.902,12.316 14.293,12.707 L21.586,20 L11,20 C6.037,20 2,15.963 2,11 C2,6.037 6.037,2 11,2 L43,2 C43.553,2 44,1.553 44,1 C44,0.447 43.553,0 43,0" id="Fill-732" fill="#26B99A" sketch:type="MSShapeGroup"></path>
            <path d="M40,22 L38,22 C37.447,22 37,21.553 37,21 C37,20.447 37.447,20 38,20 L40,20 C40.553,20 41,20.447 41,21 C41,21.553 40.553,22 40,22 L40,22 Z M34,22 L32,22 C31.447,22 31,21.553 31,21 C31,20.447 31.447,20 32,20 L34,20 C34.553,20 35,20.447 35,21 C35,21.553 34.553,22 34,22 L34,22 Z" id="Fill-740" fill="#B1E97C" sketch:type="MSShapeGroup"></path>
            <path d="M28,28 C27.447,28 27,27.553 27,27 L27,15 C27,14.447 27.447,14 28,14 C28.553,14 29,14.447 29,15 L29,27 C29,27.553 28.553,28 28,28" id="Fill-741" fill="#26B99A" sketch:type="MSShapeGroup"></path>
        </g>
    </g>
</svg>