<?xml version="1.0" encoding="UTF-8" standalone="no"?>
<svg width="46px" height="58px" viewBox="0 0 46 58" version="1.1" xmlns="http://www.w3.org/2000/svg" xmlns:xlink="http://www.w3.org/1999/xlink" xmlns:sketch="http://www.bohemiancoding.com/sketch/ns">
    <!-- Generator: Sketch 3.2.2 (9983) - http://www.bohemiancoding.com/sketch -->
    <title>124 - Change Orientation (Flat)</title>
    <desc>Created with Sketch.</desc>
    <defs></defs>
    <g id="Page-1" stroke="none" stroke-width="1" fill="none" fill-rule="evenodd" sketch:type="MSPage">
        <g id="124---Change-Orientation-(Flat)" sketch:type="MSLayerGroup" transform="translate(0.000000, -1.000000)">
            <path d="M27,53 C26.744,53 26.488,52.902 26.293,52.707 L20.293,46.707 C19.902,46.316 19.902,45.683 20.293,45.293 C20.684,44.902 21.316,44.902 21.707,45.293 L27.707,51.293 C28.098,51.683 28.098,52.316 27.707,52.707 C27.512,52.902 27.256,53 27,53" id="Fill-63" fill="#546A79" sketch:type="MSShapeGroup"></path>
            <path d="M21,59 C20.744,59 20.488,58.902 20.293,58.707 C19.902,58.316 19.902,57.683 20.293,57.293 L26.293,51.293 C26.684,50.902 27.316,50.902 27.707,51.293 C28.098,51.683 28.098,52.316 27.707,52.707 L21.707,58.707 C21.512,58.902 21.256,59 21,59" id="Fill-64" fill="#546A79" sketch:type="MSShapeGroup"></path>
            <path d="M27,53 L16.774,53 C10.833,53 6,48.167 6,42.226 L6,14 C6,13.447 6.447,13 7,13 C7.553,13 8,13.447 8,14 L8,42.226 C8,47.063 11.937,51 16.774,51 L27,51 C27.553,51 28,51.447 28,52 C28,52.552 27.553,53 27,53" id="Fill-65" fill="#546A79" sketch:type="MSShapeGroup"></path>
            <path d="M25,15 C24.744,15 24.488,14.902 24.293,14.707 L18.293,8.707 C17.902,8.316 17.902,7.683 18.293,7.293 C18.684,6.902 19.316,6.902 19.707,7.293 L25.707,13.293 C26.098,13.683 26.098,14.316 25.707,14.707 C25.512,14.902 25.256,15 25,15" id="Fill-66" fill="#546A79" sketch:type="MSShapeGroup"></path>
            <path d="M19,9 C18.744,9 18.488,8.902 18.293,8.707 C17.902,8.316 17.902,7.683 18.293,7.293 L24.293,1.293 C24.684,0.902 25.316,0.902 25.707,1.293 C26.098,1.683 26.098,2.316 25.707,2.707 L19.707,8.707 C19.512,8.902 19.256,9 19,9" id="Fill-67" fill="#546A79" sketch:type="MSShapeGroup"></path>
            <path d="M39,47 C38.447,47 38,46.552 38,46 L38,44.5 C38,43.947 38.447,43.5 39,43.5 C39.553,43.5 40,43.947 40,44.5 L40,46 C40,46.552 39.553,47 39,47" id="Fill-68" fill="#546A79" sketch:type="MSShapeGroup"></path>
            <path d="M39,41.737 C38.447,41.737 38,41.29 38,40.737 L38,38.855 C38,38.303 38.447,37.855 39,37.855 C39.553,37.855 40,38.303 40,38.855 L40,40.737 C40,41.29 39.553,41.737 39,41.737 L39,41.737 Z M39,36.093 C38.447,36.093 38,35.646 38,35.093 L38,33.211 C38,32.658 38.447,32.211 39,32.211 C39.553,32.211 40,32.658 40,33.211 L40,35.093 C40,35.646 39.553,36.093 39,36.093 L39,36.093 Z" id="Fill-69" fill="#546A79" sketch:type="MSShapeGroup"></path>
            <path d="M39,30.448 C38.447,30.448 38,30.001 38,29.448 L38,26.626 C38,26.073 38.447,25.626 39,25.626 C39.553,25.626 40,26.073 40,26.626 L40,29.448 C40,30.001 39.553,30.448 39,30.448 L39,30.448 Z M39,23.863 C38.447,23.863 38,23.416 38,22.863 L38,20.981 C38,20.429 38.447,19.981 39,19.981 C39.553,19.981 40,20.429 40,20.981 L40,22.863 C40,23.416 39.553,23.863 39,23.863 L39,23.863 Z M38.983,18.219 C38.457,18.219 38.017,17.807 37.986,17.275 C37.954,16.712 37.868,16.151 37.73,15.607 C37.596,15.072 37.92,14.528 38.455,14.392 C38.989,14.259 39.534,14.582 39.67,15.117 C39.838,15.784 39.943,16.472 39.982,17.162 C40.014,17.714 39.593,18.185 39.041,18.217 C39.021,18.218 39.003,18.219 38.983,18.219 L38.983,18.219 Z M37.102,12.982 C36.794,12.982 36.491,12.842 36.295,12.575 C35.794,11.894 35.197,11.289 34.522,10.777 C34.082,10.444 33.995,9.816 34.329,9.377 C34.661,8.936 35.287,8.849 35.729,9.183 C36.559,9.812 37.29,10.554 37.906,11.389 C38.233,11.834 38.139,12.46 37.693,12.788 C37.515,12.919 37.308,12.982 37.102,12.982 L37.102,12.982 Z M31.771,9.334 C31.685,9.334 31.597,9.323 31.511,9.3 C30.969,9.154 30.409,9.06 29.848,9.021 C29.297,8.982 28.882,8.504 28.921,7.953 C28.96,7.402 29.442,6.984 29.988,7.026 C30.678,7.074 31.364,7.189 32.028,7.368 C32.562,7.512 32.879,8.06 32.735,8.593 C32.615,9.04 32.212,9.334 31.771,9.334 L31.771,9.334 Z M26.155,9 L24.273,9 C23.721,9 23.273,8.552 23.273,8 C23.273,7.447 23.721,7 24.273,7 L26.155,7 C26.708,7 27.155,7.447 27.155,8 C27.155,8.552 26.708,9 26.155,9 L26.155,9 Z" id="Fill-70" fill="#546A79" sketch:type="MSShapeGroup"></path>
            <path d="M20.5,9 L19,9 C18.447,9 18,8.552 18,8 C18,7.447 18.447,7 19,7 L20.5,7 C21.053,7 21.5,7.447 21.5,8 C21.5,8.552 21.053,9 20.5,9" id="Fill-71" fill="#546A79" sketch:type="MSShapeGroup"></path>
            <path d="M13,8 C13,11.314 10.314,14 7,14 C3.686,14 1,11.314 1,8 C1,4.686 3.686,2 7,2 C10.314,2 13,4.686 13,8" id="Fill-282" fill="#B1E97C" sketch:type="MSShapeGroup"></path>
            <path d="M7,15 C3.141,15 0,11.859 0,8 C0,4.141 3.141,1 7,1 C10.859,1 14,4.141 14,8 C14,11.859 10.859,15 7,15 L7,15 Z M7,3 C4.243,3 2,5.243 2,8 C2,10.757 4.243,13 7,13 C9.757,13 12,10.757 12,8 C12,5.243 9.757,3 7,3 L7,3 Z" id="Fill-283" fill="#B1E97C" sketch:type="MSShapeGroup"></path>
            <path d="M33,52 C33,48.686 35.686,46 39,46 C42.314,46 45,48.686 45,52 C45,55.314 42.314,58 39,58 C35.686,58 33,55.314 33,52" id="Fill-293" fill="#88C057" sketch:type="MSShapeGroup"></path>
            <path d="M39,59 C35.141,59 32,55.859 32,52 C32,48.141 35.141,45 39,45 C42.859,45 46,48.141 46,52 C46,55.859 42.859,59 39,59 L39,59 Z M39,47 C36.243,47 34,49.243 34,52 C34,54.757 36.243,57 39,57 C41.757,57 44,54.757 44,52 C44,49.243 41.757,47 39,47 L39,47 Z" id="Fill-294" fill="#88C057" sketch:type="MSShapeGroup"></path>
        </g>
    </g>
</svg>