<?xml version="1.0" encoding="UTF-8" standalone="no"?>
<svg width="46px" height="58px" viewBox="0 0 46 58" version="1.1" xmlns="http://www.w3.org/2000/svg" xmlns:xlink="http://www.w3.org/1999/xlink" xmlns:sketch="http://www.bohemiancoding.com/sketch/ns">
    <!-- Generator: Sketch 3.2.2 (9983) - http://www.bohemiancoding.com/sketch -->
    <title>126 - Circuit Cycle (Flat)</title>
    <desc>Created with Sketch.</desc>
    <defs></defs>
    <g id="Page-1" stroke="none" stroke-width="1" fill="none" fill-rule="evenodd" sketch:type="MSPage">
        <g id="126---Circuit-Cycle-(Flat)" sketch:type="MSLayerGroup" transform="translate(0.000000, -1.000000)">
            <path d="M27,53 C26.744,53 26.488,52.902 26.293,52.707 L20.293,46.707 C19.902,46.316 19.902,45.683 20.293,45.293 C20.684,44.902 21.316,44.902 21.707,45.293 L27.707,51.293 C28.098,51.683 28.098,52.316 27.707,52.707 C27.512,52.902 27.256,53 27,53" id="Fill-263" fill="#546A79" sketch:type="MSShapeGroup"></path>
            <path d="M21,59 C20.744,59 20.488,58.902 20.293,58.707 C19.902,58.316 19.902,57.683 20.293,57.293 L26.293,51.293 C26.684,50.902 27.316,50.902 27.707,51.293 C28.098,51.683 28.098,52.316 27.707,52.707 L21.707,58.707 C21.512,58.902 21.256,59 21,59" id="Fill-264" fill="#546A79" sketch:type="MSShapeGroup"></path>
            <path d="M27,53 L16.774,53 C10.833,53 6,48.167 6,42.226 L6,14 C6,13.447 6.448,13 7,13 C7.552,13 8,13.447 8,14 L8,42.226 C8,47.063 11.936,51 16.774,51 L27,51 C27.552,51 28,51.447 28,52 C28,52.552 27.552,53 27,53" id="Fill-269" fill="#546A79" sketch:type="MSShapeGroup"></path>
            <path d="M25,15 C24.744,15 24.488,14.902 24.293,14.707 L18.293,8.707 C17.902,8.316 17.902,7.683 18.293,7.293 C18.684,6.902 19.316,6.902 19.707,7.293 L25.707,13.293 C26.098,13.683 26.098,14.316 25.707,14.707 C25.512,14.902 25.256,15 25,15" id="Fill-270" fill="#546A79" sketch:type="MSShapeGroup"></path>
            <path d="M19,9 C18.744,9 18.488,8.902 18.293,8.707 C17.902,8.316 17.902,7.683 18.293,7.293 L24.293,1.293 C24.684,0.902 25.316,0.902 25.707,1.293 C26.098,1.683 26.098,2.316 25.707,2.707 L19.707,8.707 C19.512,8.902 19.256,9 19,9" id="Fill-271" fill="#546A79" sketch:type="MSShapeGroup"></path>
            <path d="M39,47 C38.448,47 38,46.552 38,46 L38,17.774 C38,12.936 34.064,9 29.226,9 L19,9 C18.448,9 18,8.552 18,8 C18,7.447 18.448,7 19,7 L29.226,7 C35.166,7 40,11.833 40,17.774 L40,46 C40,46.552 39.552,47 39,47" id="Fill-272" fill="#546A79" sketch:type="MSShapeGroup"></path>
            <path d="M13,8 C13,11.314 10.314,14 7,14 C3.686,14 1,11.314 1,8 C1,4.686 3.686,2 7,2 C10.314,2 13,4.686 13,8" id="Fill-852" fill="#B1E97C" sketch:type="MSShapeGroup"></path>
            <path d="M7,15 C3.14,15 0,11.859 0,8 C0,4.141 3.14,1 7,1 C10.86,1 14,4.141 14,8 C14,11.859 10.86,15 7,15 L7,15 Z M7,3 C4.243,3 2,5.243 2,8 C2,10.757 4.243,13 7,13 C9.757,13 12,10.757 12,8 C12,5.243 9.757,3 7,3 L7,3 Z" id="Fill-853" fill="#B1E97C" sketch:type="MSShapeGroup"></path>
            <path d="M33,52 C33,48.686 35.686,46 39,46 C42.314,46 45,48.686 45,52 C45,55.314 42.314,58 39,58 C35.686,58 33,55.314 33,52" id="Fill-854" fill="#B1E97C" sketch:type="MSShapeGroup"></path>
            <path d="M39,59 C35.14,59 32,55.859 32,52 C32,48.141 35.14,45 39,45 C42.859,45 46,48.141 46,52 C46,55.859 42.859,59 39,59 L39,59 Z M39,47 C36.243,47 34,49.243 34,52 C34,54.757 36.243,57 39,57 C41.757,57 44,54.757 44,52 C44,49.243 41.757,47 39,47 L39,47 Z" id="Fill-855" fill="#B1E97C" sketch:type="MSShapeGroup"></path>
        </g>
    </g>
</svg>