<?xml version="1.0" encoding="UTF-8" standalone="no"?>
<svg width="54px" height="60px" viewBox="0 0 54 60" version="1.1" xmlns="http://www.w3.org/2000/svg" xmlns:xlink="http://www.w3.org/1999/xlink" xmlns:sketch="http://www.bohemiancoding.com/sketch/ns">
    <!-- Generator: Sketch 3.2.2 (9983) - http://www.bohemiancoding.com/sketch -->
    <title>9 - Curved Cycle (Flat)</title>
    <desc>Created with Sketch.</desc>
    <defs></defs>
    <g id="Page-1" stroke="none" stroke-width="1" fill="none" fill-rule="evenodd" sketch:type="MSPage">
        <g id="9---Curved-Cycle-(Flat)" sketch:type="MSLayerGroup" transform="translate(0.000000, -1.000000)" fill="#26B99A">
            <path d="M43,32 L11,32 C10.448,32 10,31.553 10,31 C10,30.447 10.448,30 11,30 L43,30 C47.962,30 52,25.963 52,21 C52,16.037 47.962,12 43,12 L11,12 C10.448,12 10,11.553 10,11 C10,10.447 10.448,10 11,10 L43,10 C49.065,10 54,14.935 54,21 C54,27.065 49.065,32 43,32" id="Fill-703" sketch:type="MSShapeGroup"></path>
            <path d="M43,52 L11,52 C4.935,52 0,47.065 0,41 C0,34.934 4.935,30 11,30 C11.552,30 12,30.447 12,31 C12,31.553 11.552,32 11,32 C6.038,32 2,36.037 2,41 C2,45.963 6.038,50 11,50 L43,50 C43.552,50 44,50.447 44,51 C44,51.553 43.552,52 43,52" id="Fill-704" sketch:type="MSShapeGroup"></path>
            <path d="M11,12 C10.744,12 10.488,11.902 10.293,11.707 C9.902,11.316 9.902,10.683 10.293,10.293 L19.293,1.293 C19.684,0.902 20.316,0.902 20.707,1.293 C21.098,1.683 21.098,2.316 20.707,2.707 L11.707,11.707 C11.512,11.902 11.256,12 11,12" id="Fill-705" sketch:type="MSShapeGroup"></path>
            <path d="M20,21 C19.744,21 19.488,20.902 19.293,20.707 L10.293,11.707 C9.902,11.316 9.902,10.683 10.293,10.293 C10.684,9.902 11.316,9.902 11.707,10.293 L20.707,19.293 C21.098,19.683 21.098,20.316 20.707,20.707 C20.512,20.902 20.256,21 20,21" id="Fill-706" sketch:type="MSShapeGroup"></path>
            <path d="M34,61 C33.744,61 33.488,60.902 33.293,60.707 C32.902,60.316 32.902,59.683 33.293,59.293 L42.293,50.293 C42.684,49.902 43.316,49.902 43.707,50.293 C44.098,50.683 44.098,51.316 43.707,51.707 L34.707,60.707 C34.512,60.902 34.256,61 34,61" id="Fill-707" sketch:type="MSShapeGroup"></path>
            <path d="M43,52 C42.744,52 42.488,51.902 42.293,51.707 L33.293,42.707 C32.902,42.316 32.902,41.683 33.293,41.293 C33.684,40.902 34.316,40.902 34.707,41.293 L43.707,50.293 C44.098,50.683 44.098,51.316 43.707,51.707 C43.512,51.902 43.256,52 43,52" id="Fill-708" sketch:type="MSShapeGroup"></path>
        </g>
    </g>
</svg>