<?xml version="1.0" encoding="UTF-8" standalone="no"?>
<svg width="54px" height="51px" viewBox="0 0 54 51" version="1.1" xmlns="http://www.w3.org/2000/svg" xmlns:xlink="http://www.w3.org/1999/xlink" xmlns:sketch="http://www.bohemiancoding.com/sketch/ns">
    <!-- Generator: Sketch 3.2.2 (9983) - http://www.bohemiancoding.com/sketch -->
    <title>5 - Detour Cycle (Flat)</title>
    <desc>Created with Sketch.</desc>
    <defs></defs>
    <g id="Page-1" stroke="none" stroke-width="1" fill="none" fill-rule="evenodd" sketch:type="MSPage">
        <g id="5---Detour-Cycle-(Flat)" sketch:type="MSLayerGroup">
            <path d="M43,22 L11,22 C10.447,22 10,21.553 10,21 C10,20.447 10.447,20 11,20 L43,20 C47.963,20 52,15.963 52,11 C52,6.037 47.963,2 43,2 L11,2 C10.447,2 10,1.553 10,1 C10,0.447 10.447,0 11,0 L43,0 C49.065,0 54,4.934 54,11 C54,17.065 49.065,22 43,22" id="Fill-709" fill="#26B99A" sketch:type="MSShapeGroup"></path>
            <path d="M43,42 L11,42 C4.935,42 0,37.065 0,31 C0,24.935 4.935,20 11,20 C11.553,20 12,20.447 12,21 C12,21.553 11.553,22 11,22 C6.037,22 2,26.037 2,31 C2,35.963 6.037,40 11,40 L43,40 C43.553,40 44,40.447 44,41 C44,41.553 43.553,42 43,42" id="Fill-710" fill="#26B99A" sketch:type="MSShapeGroup"></path>
            <path d="M34,51 C33.744,51 33.488,50.902 33.293,50.707 C32.902,50.316 32.902,49.684 33.293,49.293 L42.293,40.293 C42.684,39.902 43.316,39.902 43.707,40.293 C44.098,40.684 44.098,41.316 43.707,41.707 L34.707,50.707 C34.512,50.902 34.256,51 34,51" id="Fill-711" fill="#26B99A" sketch:type="MSShapeGroup"></path>
            <path d="M43,42 C42.744,42 42.488,41.902 42.293,41.707 L33.293,32.707 C32.902,32.316 32.902,31.684 33.293,31.293 C33.684,30.902 34.316,30.902 34.707,31.293 L43.707,40.293 C44.098,40.684 44.098,41.316 43.707,41.707 C43.512,41.902 43.256,42 43,42" id="Fill-712" fill="#26B99A" sketch:type="MSShapeGroup"></path>
            <path d="M49,11 C49,14.314 46.314,17 43,17 C39.686,17 37,14.314 37,11 C37,7.686 39.686,5 43,5 C46.314,5 49,7.686 49,11" id="Fill-725" fill="#F0C419" sketch:type="MSShapeGroup"></path>
            <path d="M43,18 C39.141,18 36,14.859 36,11 C36,7.141 39.141,4 43,4 C46.859,4 50,7.141 50,11 C50,14.859 46.859,18 43,18 L43,18 Z M43,6 C40.243,6 38,8.243 38,11 C38,13.757 40.243,16 43,16 C45.757,16 48,13.757 48,11 C48,8.243 45.757,6 43,6 L43,6 Z" id="Fill-726" fill="#F0C419" sketch:type="MSShapeGroup"></path>
        </g>
    </g>
</svg>