<?xml version="1.0" encoding="UTF-8" standalone="no"?>
<svg width="54px" height="54px" viewBox="0 0 54 54" version="1.1" xmlns="http://www.w3.org/2000/svg" xmlns:xlink="http://www.w3.org/1999/xlink" xmlns:sketch="http://www.bohemiancoding.com/sketch/ns">
    <!-- Generator: Sketch 3.2.2 (9983) - http://www.bohemiancoding.com/sketch -->
    <title>96 - Diagonal Left Up (Flat)</title>
    <desc>Created with Sketch.</desc>
    <defs></defs>
    <g id="Page-1" stroke="none" stroke-width="1" fill="none" fill-rule="evenodd" sketch:type="MSPage">
        <g id="96---Diagonal-Left-Up-(Flat)" sketch:type="MSLayerGroup">
            <path d="M1,1 L53,1 L53,53 L1,53 L1,1 Z" id="Fill-362" fill="#57B1E3" sketch:type="MSShapeGroup"></path>
            <path d="M0,0 L54,0 L54,54 L0,54 L0,0 Z M2,52 L52,52 L52,2 L2,2 L2,52 Z" id="Fill-363" fill="#57B1E3" sketch:type="MSShapeGroup"></path>
            <path d="M36.385,37.385 C36.129,37.385 35.873,37.287 35.678,37.092 L17.293,18.707 C16.902,18.316 16.902,17.684 17.293,17.293 C17.684,16.902 18.316,16.902 18.707,17.293 L37.092,35.678 C37.482,36.068 37.482,36.701 37.092,37.092 C36.896,37.287 36.641,37.385 36.385,37.385" id="Fill-364" fill="#FFFFFF" sketch:type="MSShapeGroup"></path>
            <path d="M19,32.142 L17,32.142 L17,17 L32.142,17 L32.142,19 L19,19 L19,32.142" id="Fill-365" fill="#FFFFFF" sketch:type="MSShapeGroup"></path>
        </g>
    </g>
</svg>