<?xml version="1.0" encoding="UTF-8" standalone="no"?>
<svg width="54px" height="54px" viewBox="0 0 54 54" version="1.1" xmlns="http://www.w3.org/2000/svg" xmlns:xlink="http://www.w3.org/1999/xlink" xmlns:sketch="http://www.bohemiancoding.com/sketch/ns">
    <!-- Generator: Sketch 3.2.2 (9983) - http://www.bohemiancoding.com/sketch -->
    <title>93 - Diagonal Left Down (Flat)</title>
    <desc>Created with Sketch.</desc>
    <defs></defs>
    <g id="Page-1" stroke="none" stroke-width="1" fill="none" fill-rule="evenodd" sketch:type="MSPage">
        <g id="93---Diagonal-Left-Down-(Flat)" sketch:type="MSLayerGroup">
            <path d="M1,1 L53,1 L53,53 L1,53 L1,1 Z" id="Fill-374" fill="#57B1E3" sketch:type="MSShapeGroup"></path>
            <path d="M0,0 L54,0 L54,54 L0,54 L0,0 Z M2,52 L52,52 L52,2 L2,2 L2,52 Z" id="Fill-375" fill="#57B1E3" sketch:type="MSShapeGroup"></path>
            <path d="M18,37 C17.744,37 17.488,36.902 17.293,36.707 C16.902,36.316 16.902,35.684 17.293,35.293 L35.678,16.908 C36.068,16.518 36.701,16.518 37.092,16.908 C37.482,17.299 37.482,17.932 37.092,18.322 L18.707,36.707 C18.512,36.902 18.256,37 18,37" id="Fill-376" fill="#FFFFFF" sketch:type="MSShapeGroup"></path>
            <path d="M32.143,37 L17,37 L17,21.857 L19,21.857 L19,35 L32.143,35 L32.143,37" id="Fill-377" fill="#FFFFFF" sketch:type="MSShapeGroup"></path>
        </g>
    </g>
</svg>