<?xml version="1.0" encoding="UTF-8" standalone="no"?>
<svg width="54px" height="54px" viewBox="0 0 54 54" version="1.1" xmlns="http://www.w3.org/2000/svg" xmlns:xlink="http://www.w3.org/1999/xlink" xmlns:sketch="http://www.bohemiancoding.com/sketch/ns">
    <!-- Generator: Sketch 3.2.2 (9983) - http://www.bohemiancoding.com/sketch -->
    <title>94 - Diagonal Right Up (Flat)</title>
    <desc>Created with Sketch.</desc>
    <defs></defs>
    <g id="Page-1" stroke="none" stroke-width="1" fill="none" fill-rule="evenodd" sketch:type="MSPage">
        <g id="94---Diagonal-Right-Up-(Flat)" sketch:type="MSLayerGroup">
            <path d="M1,1 L53,1 L53,53 L1,53 L1,1 Z" id="Fill-370" fill="#57B1E3" sketch:type="MSShapeGroup"></path>
            <path d="M0,0 L54,0 L54,54 L0,54 L0,0 Z M2,52 L52,52 L52,2 L2,2 L2,52 Z" id="Fill-371" fill="#57B1E3" sketch:type="MSShapeGroup"></path>
            <path d="M17.615,37.385 C17.359,37.385 17.103,37.287 16.908,37.092 C16.518,36.701 16.518,36.068 16.908,35.678 L35.293,17.293 C35.684,16.902 36.316,16.902 36.707,17.293 C37.098,17.684 37.098,18.316 36.707,18.707 L18.322,37.092 C18.127,37.287 17.871,37.385 17.615,37.385" id="Fill-372" fill="#FFFFFF" sketch:type="MSShapeGroup"></path>
            <path d="M37,32.142 L35,32.142 L35,19 L21.857,19 L21.857,17 L37,17 L37,32.142" id="Fill-373" fill="#FFFFFF" sketch:type="MSShapeGroup"></path>
        </g>
    </g>
</svg>