<?xml version="1.0" encoding="UTF-8" standalone="no"?>
<svg width="54px" height="54px" viewBox="0 0 54 54" version="1.1" xmlns="http://www.w3.org/2000/svg" xmlns:xlink="http://www.w3.org/1999/xlink" xmlns:sketch="http://www.bohemiancoding.com/sketch/ns">
    <!-- Generator: Sketch 3.2.2 (9983) - http://www.bohemiancoding.com/sketch -->
    <title>95 - Diagonal Right Down (Flat)</title>
    <desc>Created with Sketch.</desc>
    <defs></defs>
    <g id="Page-1" stroke="none" stroke-width="1" fill="none" fill-rule="evenodd" sketch:type="MSPage">
        <g id="95---Diagonal-Right-Down-(Flat)" sketch:type="MSLayerGroup">
            <path d="M1,1 L53,1 L53,53 L1,53 L1,1 Z" id="Fill-366" fill="#57B1E3" sketch:type="MSShapeGroup"></path>
            <path d="M0,0 L54,0 L54,54 L0,54 L0,0 Z M2,52 L52,52 L52,2 L2,2 L2,52 Z" id="Fill-367" fill="#57B1E3" sketch:type="MSShapeGroup"></path>
            <path d="M36,37 C35.744,37 35.488,36.902 35.293,36.707 L16.908,18.322 C16.518,17.932 16.518,17.299 16.908,16.908 C17.299,16.518 17.932,16.518 18.322,16.908 L36.707,35.293 C37.098,35.684 37.098,36.316 36.707,36.707 C36.512,36.902 36.256,37 36,37" id="Fill-368" fill="#FFFFFF" sketch:type="MSShapeGroup"></path>
            <path d="M37,37 L21.857,37 L21.857,35 L35,35 L35,21.857 L37,21.857 L37,37" id="Fill-369" fill="#FFFFFF" sketch:type="MSShapeGroup"></path>
        </g>
    </g>
</svg>