<?xml version="1.0" encoding="UTF-8" standalone="no"?>
<svg width="46px" height="58px" viewBox="0 0 46 58" version="1.1" xmlns="http://www.w3.org/2000/svg" xmlns:xlink="http://www.w3.org/1999/xlink" xmlns:sketch="http://www.bohemiancoding.com/sketch/ns">
    <!-- Generator: Sketch 3.2.2 (9983) - http://www.bohemiancoding.com/sketch -->
    <title>127 - Divide (Flat)</title>
    <desc>Created with Sketch.</desc>
    <defs></defs>
    <g id="Page-1" stroke="none" stroke-width="1" fill="none" fill-rule="evenodd" sketch:type="MSPage">
        <g id="127---Divide-(Flat)" sketch:type="MSLayerGroup" transform="translate(-1.000000, 0.000000)">
            <path d="M14,51 C14,47.686 11.314,45 8,45 C4.686,45 2,47.686 2,51 C2,54.314 4.686,57 8,57 C11.314,57 14,54.314 14,51" id="Fill-17" fill="#F3D55B" sketch:type="MSShapeGroup"></path>
            <path d="M8,58 C4.14,58 1,54.859 1,51 C1,47.141 4.14,44 8,44 C11.86,44 15,47.141 15,51 C15,54.859 11.86,58 8,58 L8,58 Z M8,46 C5.243,46 3,48.243 3,51 C3,53.757 5.243,56 8,56 C10.757,56 13,53.757 13,51 C13,48.243 10.757,46 8,46 L8,46 Z" id="Fill-18" fill="#F3D55B" sketch:type="MSShapeGroup"></path>
            <path d="M46,51 C46,47.686 43.314,45 40,45 C36.686,45 34,47.686 34,51 C34,54.314 36.686,57 40,57 C43.314,57 46,54.314 46,51" id="Fill-19" fill="#F29C1F" sketch:type="MSShapeGroup"></path>
            <path d="M40,58 C36.14,58 33,54.859 33,51 C33,47.141 36.14,44 40,44 C43.86,44 47,47.141 47,51 C47,54.859 43.86,58 40,58 L40,58 Z M40,46 C37.243,46 35,48.243 35,51 C35,53.757 37.243,56 40,56 C42.757,56 45,53.757 45,51 C45,48.243 42.757,46 40,46 L40,46 Z" id="Fill-20" fill="#F29C1F" sketch:type="MSShapeGroup"></path>
            <path d="M8,46 C7.448,46 7,45.552 7,45 L7,43.5 C7,42.947 7.448,42.5 8,42.5 C8.552,42.5 9,42.947 9,43.5 L9,45 C9,45.552 8.552,46 8,46" id="Fill-242" fill="#546A79" sketch:type="MSShapeGroup"></path>
            <path d="M8,41.185 C7.448,41.185 7,40.738 7,40.185 L7,38.528 C7,37.975 7.448,37.528 8,37.528 C8.552,37.528 9,37.975 9,38.528 L9,40.185 C9,40.738 8.552,41.185 8,41.185 L8,41.185 Z M8,36.214 C7.448,36.214 7,35.766 7,35.214 L7,33.556 C7,33.004 7.448,32.557 8,32.557 C8.552,32.557 9,33.004 9,33.556 L9,35.214 C9,35.766 8.552,36.214 8,36.214 L8,36.214 Z" id="Fill-243" fill="#546A79" sketch:type="MSShapeGroup"></path>
            <path d="M8,31.243 C7.448,31.243 7,30.796 7,30.243 L7,27.758 C7,27.205 7.448,26.758 8,26.758 C8.552,26.758 9,27.205 9,27.758 L9,30.243 C9,30.796 8.552,31.243 8,31.243 L8,31.243 Z M8,25.443 C7.448,25.443 7,24.996 7,24.443 L7,22.786 C7,22.233 7.448,21.786 8,21.786 C8.552,21.786 9,22.233 9,22.786 L9,24.443 C9,24.996 8.552,25.443 8,25.443 L8,25.443 Z M8,20.472 C7.448,20.472 7,20.024 7,19.472 L7,17.814 C7,17.262 7.448,16.814 8,16.814 C8.552,16.814 9,17.262 9,17.814 L9,19.472 C9,20.024 8.552,20.472 8,20.472 L8,20.472 Z" id="Fill-244" fill="#546A79" sketch:type="MSShapeGroup"></path>
            <path d="M8,15.5 C7.448,15.5 7,15.052 7,14.5 L7,13 C7,12.447 7.448,12 8,12 C8.552,12 9,12.447 9,13 L9,14.5 C9,15.052 8.552,15.5 8,15.5" id="Fill-245" fill="#546A79" sketch:type="MSShapeGroup"></path>
            <path d="M40,46 C39.448,46 39,45.552 39,45 C39,44.53 38.978,44.057 38.935,43.594 C38.884,43.044 39.288,42.556 39.838,42.505 C40.394,42.453 40.875,42.858 40.926,43.408 C40.975,43.933 41,44.469 41,45 C41,45.552 40.552,46 40,46" id="Fill-246" fill="#546A79" sketch:type="MSShapeGroup"></path>
            <path d="M39.229,41.075 C38.807,41.075 38.415,40.806 38.278,40.382 C38.11,39.864 37.913,39.348 37.689,38.852 C37.463,38.349 37.688,37.757 38.192,37.53 C38.695,37.304 39.288,37.529 39.514,38.032 C39.767,38.597 39.992,39.181 40.181,39.769 C40.351,40.294 40.062,40.857 39.537,41.027 C39.435,41.059 39.331,41.075 39.229,41.075 L39.229,41.075 Z M36.831,36.431 C36.526,36.431 36.225,36.293 36.029,36.03 C35.702,35.594 35.348,35.17 34.976,34.77 C34.6,34.366 34.623,33.733 35.026,33.357 C35.431,32.981 36.062,33.004 36.44,33.407 C36.861,33.859 37.261,34.339 37.63,34.833 C37.961,35.275 37.871,35.902 37.428,36.232 C37.248,36.367 37.039,36.431 36.831,36.431 L36.831,36.431 Z" id="Fill-247" fill="#546A79" sketch:type="MSShapeGroup"></path>
            <path d="M33.064,32.81 C32.869,32.81 32.671,32.754 32.498,32.634 C31.82,32.167 31.103,31.757 30.368,31.413 C29.867,31.18 29.651,30.584 29.884,30.084 C30.118,29.582 30.713,29.368 31.213,29.601 C32.05,29.991 32.863,30.457 33.632,30.987 C34.087,31.3 34.202,31.923 33.889,32.378 C33.695,32.659 33.382,32.81 33.064,32.81 L33.064,32.81 Z M27.485,30.379 C27.414,30.379 27.341,30.371 27.268,30.355 C26.731,30.236 26.188,30.147 25.653,30.09 C25.103,30.031 24.706,29.539 24.765,28.989 C24.823,28.44 25.32,28.042 25.865,28.102 C26.474,28.166 27.092,28.268 27.701,28.402 C28.24,28.522 28.58,29.056 28.461,29.595 C28.357,30.061 27.944,30.379 27.485,30.379 L27.485,30.379 Z M22.267,29.907 C22.231,29.907 22.195,29.905 22.159,29.901 C21.547,29.836 20.93,29.735 20.324,29.602 C19.785,29.484 19.444,28.951 19.562,28.411 C19.682,27.872 20.216,27.533 20.754,27.649 C21.288,27.767 21.832,27.855 22.371,27.913 C22.92,27.972 23.318,28.464 23.259,29.014 C23.205,29.526 22.771,29.907 22.267,29.907 L22.267,29.907 Z M17.229,28.504 C17.087,28.504 16.944,28.473 16.807,28.41 C15.966,28.017 15.152,27.553 14.387,27.027 C13.932,26.715 13.816,26.093 14.128,25.638 C14.442,25.181 15.063,25.065 15.519,25.379 C16.193,25.841 16.911,26.251 17.653,26.598 C18.153,26.831 18.37,27.427 18.136,27.927 C17.966,28.291 17.606,28.504 17.229,28.504 L17.229,28.504 Z M12.305,24.925 C12.038,24.925 11.771,24.818 11.574,24.607 C11.151,24.155 10.75,23.676 10.381,23.183 C10.05,22.741 10.14,22.114 10.582,21.783 C11.026,21.451 11.651,21.544 11.982,21.984 C12.308,22.42 12.662,22.843 13.035,23.242 C13.413,23.645 13.391,24.278 12.987,24.655 C12.795,24.836 12.549,24.925 12.305,24.925 L12.305,24.925 Z M9.408,20.576 C9.027,20.576 8.663,20.357 8.496,19.987 C8.242,19.426 8.017,18.842 7.826,18.253 C7.656,17.727 7.944,17.163 8.469,16.993 C8.994,16.822 9.559,17.11 9.728,17.636 C9.897,18.156 10.096,18.67 10.319,19.165 C10.546,19.668 10.322,20.261 9.818,20.487 C9.685,20.548 9.545,20.576 9.408,20.576 L9.408,20.576 Z" id="Fill-248" fill="#546A79" sketch:type="MSShapeGroup"></path>
            <path d="M8.068,15.499 C7.558,15.499 7.122,15.11 7.074,14.592 C7.025,14.066 7,13.531 7,13 C7,12.447 7.448,12 8,12 C8.552,12 9,12.447 9,13 C9,13.47 9.022,13.942 9.065,14.406 C9.116,14.956 8.712,15.443 8.162,15.495 C8.13,15.498 8.099,15.499 8.068,15.499" id="Fill-249" fill="#546A79" sketch:type="MSShapeGroup"></path>
            <path d="M8,46 C7.744,46 7.488,45.902 7.293,45.707 C6.902,45.316 6.902,44.683 7.293,44.293 L13.293,38.293 C13.684,37.902 14.316,37.902 14.707,38.293 C15.098,38.683 15.098,39.316 14.707,39.707 L8.707,45.707 C8.512,45.902 8.256,46 8,46" id="Fill-265" fill="#546A79" sketch:type="MSShapeGroup"></path>
            <path d="M8,46 C7.744,46 7.488,45.902 7.293,45.707 L1.293,39.707 C0.902,39.316 0.902,38.683 1.293,38.293 C1.684,37.902 2.316,37.902 2.707,38.293 L8.707,44.293 C9.098,44.683 9.098,45.316 8.707,45.707 C8.512,45.902 8.256,46 8,46" id="Fill-266" fill="#546A79" sketch:type="MSShapeGroup"></path>
            <path d="M40,46 C39.744,46 39.488,45.902 39.293,45.707 C38.902,45.316 38.902,44.683 39.293,44.293 L45.293,38.293 C45.684,37.902 46.316,37.902 46.707,38.293 C47.098,38.683 47.098,39.316 46.707,39.707 L40.707,45.707 C40.512,45.902 40.256,46 40,46" id="Fill-267" fill="#546A79" sketch:type="MSShapeGroup"></path>
            <path d="M40,46 C39.744,46 39.488,45.902 39.293,45.707 L33.293,39.707 C32.902,39.316 32.902,38.683 33.293,38.293 C33.684,37.902 34.316,37.902 34.707,38.293 L40.707,44.293 C41.098,44.683 41.098,45.316 40.707,45.707 C40.512,45.902 40.256,46 40,46" id="Fill-268" fill="#546A79" sketch:type="MSShapeGroup"></path>
            <path d="M14,7 C14,3.686 11.314,1 8,1 C4.686,1 2,3.686 2,7 C2,10.314 4.686,13 8,13 C11.314,13 14,10.314 14,7" id="Fill-850" fill="#F0785A" sketch:type="MSShapeGroup"></path>
            <path d="M8,14 C4.14,14 1,10.859 1,7 C1,3.141 4.14,0 8,0 C11.86,0 15,3.141 15,7 C15,10.859 11.86,14 8,14 L8,14 Z M8,2 C5.243,2 3,4.243 3,7 C3,9.757 5.243,12 8,12 C10.757,12 13,9.757 13,7 C13,4.243 10.757,2 8,2 L8,2 Z" id="Fill-851" fill="#F0785A" sketch:type="MSShapeGroup"></path>
        </g>
    </g>
</svg>