<?xml version="1.0" encoding="UTF-8" standalone="no"?>
<svg width="47px" height="58px" viewBox="0 0 47 58" version="1.1" xmlns="http://www.w3.org/2000/svg" xmlns:xlink="http://www.w3.org/1999/xlink" xmlns:sketch="http://www.bohemiancoding.com/sketch/ns">
    <!-- Generator: Sketch 3.2.2 (9983) - http://www.bohemiancoding.com/sketch -->
    <title>116 - Divide and Evolve (Flat)</title>
    <desc>Created with Sketch.</desc>
    <defs></defs>
    <g id="Page-1" stroke="none" stroke-width="1" fill="none" fill-rule="evenodd" sketch:type="MSPage">
        <g id="116---Divide-and-Evolve-(Flat)" sketch:type="MSLayerGroup">
            <path d="M39,21 L41,21 L41,45 L39,45 L39,21 Z" id="Fill-51" fill="#546A79" sketch:type="MSShapeGroup"></path>
            <path d="M34,28 C33.744,28 33.488,27.902 33.293,27.707 C32.902,27.316 32.902,26.683 33.293,26.293 L39.293,20.293 C39.684,19.902 40.316,19.902 40.707,20.293 C41.098,20.683 41.098,21.316 40.707,21.707 L34.707,27.707 C34.512,27.902 34.256,28 34,28" id="Fill-52" fill="#546A79" sketch:type="MSShapeGroup"></path>
            <path d="M46,28 C45.744,28 45.488,27.902 45.293,27.707 L39.293,21.707 C38.902,21.316 38.902,20.683 39.293,20.293 C39.684,19.902 40.316,19.902 40.707,20.293 L46.707,26.293 C47.098,26.683 47.098,27.316 46.707,27.707 C46.512,27.902 46.256,28 46,28" id="Fill-53" fill="#546A79" sketch:type="MSShapeGroup"></path>
            <path d="M27,52 C26.744,52 26.488,51.902 26.293,51.707 L20.293,45.707 C19.902,45.316 19.902,44.683 20.293,44.293 C20.684,43.902 21.316,43.902 21.707,44.293 L27.707,50.293 C28.098,50.683 28.098,51.316 27.707,51.707 C27.512,51.902 27.256,52 27,52" id="Fill-54" fill="#546A79" sketch:type="MSShapeGroup"></path>
            <path d="M21,58 C20.744,58 20.488,57.902 20.293,57.707 C19.902,57.316 19.902,56.683 20.293,56.293 L26.293,50.293 C26.684,49.902 27.316,49.902 27.707,50.293 C28.098,50.683 28.098,51.316 27.707,51.707 L21.707,57.707 C21.512,57.902 21.256,58 21,58" id="Fill-55" fill="#546A79" sketch:type="MSShapeGroup"></path>
            <path d="M26.19,52 L24.189,52 C23.637,52 23.19,51.552 23.19,51 C23.19,50.447 23.637,50 24.189,50 L26.19,50 C26.742,50 27.189,50.447 27.189,51 C27.189,51.552 26.742,52 26.19,52 L26.19,52 Z M20.19,52 L18.189,52 C17.637,52 17.19,51.552 17.19,51 C17.19,50.447 17.637,50 18.189,50 L20.19,50 C20.742,50 21.189,50.447 21.189,51 C21.189,51.552 20.742,52 20.19,52 L20.19,52 Z M14.221,51.664 C14.134,51.664 14.047,51.653 13.959,51.63 C12.893,51.342 11.879,50.891 10.948,50.291 C10.484,49.991 10.35,49.373 10.649,48.908 C10.949,48.445 11.567,48.311 12.031,48.609 C12.79,49.098 13.613,49.465 14.481,49.698 C15.014,49.843 15.33,50.391 15.185,50.925 C15.065,51.371 14.662,51.664 14.221,51.664 L14.221,51.664 Z M8.656,47.668 C8.333,47.668 8.018,47.513 7.825,47.225 C7.415,46.614 7.066,45.961 6.791,45.283 C6.583,44.771 6.829,44.187 7.341,43.979 C7.85,43.771 8.435,44.019 8.644,44.529 C8.868,45.081 9.151,45.613 9.485,46.11 C9.793,46.569 9.671,47.19 9.212,47.498 C9.041,47.613 8.847,47.668 8.656,47.668 L8.656,47.668 Z M7,42 C6.448,42 6,41.553 6,41 L6,39 C6,38.447 6.448,38 7,38 C7.552,38 8,38.447 8,39 L8,41 C8,41.553 7.552,42 7,42 L7,42 Z M7,36 C6.448,36 6,35.553 6,35 L6,32 C6,31.447 6.448,31 7,31 C7.552,31 8,31.447 8,32 L8,35 C8,35.553 7.552,36 7,36 L7,36 Z M7,29 C6.448,29 6,28.552 6,28 L6,26 C6,25.447 6.448,25 7,25 C7.552,25 8,25.447 8,26 L8,28 C8,28.552 7.552,29 7,29 L7,29 Z M7,23 C6.448,23 6,22.552 6,22 L6,20 C6,19.447 6.448,19 7,19 C7.552,19 8,19.447 8,20 L8,22 C8,22.552 7.552,23 7,23 L7,23 Z M7,17 C6.448,17 6,16.552 6,16 L6,13 C6,12.447 6.448,12 7,12 C7.552,12 8,12.447 8,13 L8,16 C8,16.552 7.552,17 7,17 L7,17 Z" id="Fill-56" fill="#546A79" sketch:type="MSShapeGroup"></path>
            <path d="M46,7 C46,10.314 43.314,13 40,13 C36.686,13 34,10.314 34,7 C34,3.686 36.686,1 40,1 C43.314,1 46,3.686 46,7" id="Fill-328" fill="#57B1E3" sketch:type="MSShapeGroup"></path>
            <path d="M40,14 C36.14,14 33,10.859 33,7 C33,3.141 36.14,0 40,0 C43.859,0 47,3.141 47,7 C47,10.859 43.859,14 40,14 L40,14 Z M40,2 C37.243,2 35,4.243 35,7 C35,9.757 37.243,12 40,12 C42.757,12 45,9.757 45,7 C45,4.243 42.757,2 40,2 L40,2 Z" id="Fill-329" fill="#57B1E3" sketch:type="MSShapeGroup"></path>
            <path d="M46,51 C46,54.314 43.314,57 40,57 C36.686,57 34,54.314 34,51 C34,47.686 36.686,45 40,45 C43.314,45 46,47.686 46,51" id="Fill-330" fill="#4C98BC" sketch:type="MSShapeGroup"></path>
            <path d="M40,58 C36.14,58 33,54.859 33,51 C33,47.141 36.14,44 40,44 C43.859,44 47,47.141 47,51 C47,54.859 43.859,58 40,58 L40,58 Z M40,46 C37.243,46 35,48.243 35,51 C35,53.757 37.243,56 40,56 C42.757,56 45,53.757 45,51 C45,48.243 42.757,46 40,46 L40,46 Z" id="Fill-331" fill="#4C98BC" sketch:type="MSShapeGroup"></path>
            <path d="M13,7 C13,10.314 10.314,13 7,13 C3.686,13 1,10.314 1,7 C1,3.686 3.686,1 7,1 C10.314,1 13,3.686 13,7" id="Fill-332" fill="#3B7995" sketch:type="MSShapeGroup"></path>
            <path d="M7,14 C3.14,14 0,10.859 0,7 C0,3.141 3.14,0 7,0 C10.86,0 14,3.141 14,7 C14,10.859 10.86,14 7,14 L7,14 Z M7,2 C4.243,2 2,4.243 2,7 C2,9.757 4.243,12 7,12 C9.757,12 12,9.757 12,7 C12,4.243 9.757,2 7,2 L7,2 Z" id="Fill-333" fill="#3B7995" sketch:type="MSShapeGroup"></path>
        </g>
    </g>
</svg>