<?xml version="1.0" encoding="UTF-8" standalone="no"?>
<svg width="50px" height="54px" viewBox="0 0 50 54" version="1.1" xmlns="http://www.w3.org/2000/svg" xmlns:xlink="http://www.w3.org/1999/xlink" xmlns:sketch="http://www.bohemiancoding.com/sketch/ns">
    <!-- Generator: Sketch 3.2.2 (9983) - http://www.bohemiancoding.com/sketch -->
    <title>12 - Downward (Flat)</title>
    <desc>Created with Sketch.</desc>
    <defs></defs>
    <g id="Page-1" stroke="none" stroke-width="1" fill="none" fill-rule="evenodd" sketch:type="MSPage">
        <g id="12---Downward-(Flat)" sketch:type="MSLayerGroup" fill="#26B99A">
            <path d="M14.873,31.995 L2.825,31.995 L22.904,51.966 L42.984,31.995 L30.936,31.995 C30.936,31.995 26.645,14.26 47,2.146 C47,2.146 31.464,-0.874 20.206,12.656 C20.206,12.656 14.475,18.785 14.873,31.995" id="Fill-681" sketch:type="MSShapeGroup"></path>
            <path d="M22.904,53.377 L0.4,30.995 L13.854,30.995 C13.762,18.236 19.236,12.229 19.476,11.973 C27.515,2.309 37.756,0.858 43.142,0.858 C45.588,0.858 47.127,1.152 47.19,1.165 L49.765,1.665 L47.512,3.006 C30.194,13.312 31.217,27.521 31.764,30.995 L45.408,30.995 L22.904,53.377 L22.904,53.377 Z M5.248,32.995 L22.904,50.557 L40.561,32.995 L30.149,32.995 L29.965,32.23 C29.922,32.054 26.084,15.148 44.006,2.872 C39.222,2.722 28.986,3.667 20.975,13.295 C20.884,13.395 15.493,19.384 15.872,31.965 L15.902,32.995 L5.248,32.995 L5.248,32.995 Z" id="Fill-682" sketch:type="MSShapeGroup"></path>
        </g>
    </g>
</svg>