<?xml version="1.0" encoding="UTF-8" standalone="no"?>
<svg width="56px" height="48px" viewBox="0 0 56 48" version="1.1" xmlns="http://www.w3.org/2000/svg" xmlns:xlink="http://www.w3.org/1999/xlink" xmlns:sketch="http://www.bohemiancoding.com/sketch/ns">
    <!-- Generator: Sketch 3.2.2 (9983) - http://www.bohemiancoding.com/sketch -->
    <title>70 - Download (Flat)</title>
    <desc>Created with Sketch.</desc>
    <defs></defs>
    <g id="Page-1" stroke="none" stroke-width="1" fill="none" fill-rule="evenodd" sketch:type="MSPage">
        <g id="70---Download-(Flat)" sketch:type="MSLayerGroup" fill="#4FBA6F">
            <path d="M28,40 C27.448,40 27,39.553 27,39 L27,1 C27,0.447 27.448,0 28,0 C28.552,0 29,0.447 29,1 L29,39 C29,39.553 28.552,40 28,40" id="Fill-460" sketch:type="MSShapeGroup"></path>
            <path d="M28,40 C27.744,40 27.488,39.902 27.293,39.707 C26.902,39.316 26.902,38.684 27.293,38.293 L39.293,26.293 C39.684,25.902 40.316,25.902 40.707,26.293 C41.098,26.684 41.098,27.316 40.707,27.707 L28.707,39.707 C28.512,39.902 28.256,40 28,40" id="Fill-461" sketch:type="MSShapeGroup"></path>
            <path d="M28,40 C27.744,40 27.488,39.902 27.293,39.707 L15.293,27.707 C14.902,27.316 14.902,26.684 15.293,26.293 C15.684,25.902 16.316,25.902 16.707,26.293 L28.707,38.293 C29.098,38.684 29.098,39.316 28.707,39.707 C28.512,39.902 28.256,40 28,40" id="Fill-462" sketch:type="MSShapeGroup"></path>
            <path d="M28,40 C27.744,40 27.488,39.902 27.293,39.707 L15.293,27.707 C14.902,27.316 14.902,26.684 15.293,26.293 C15.684,25.902 16.316,25.902 16.707,26.293 L28.707,38.293 C29.098,38.684 29.098,39.316 28.707,39.707 C28.512,39.902 28.256,40 28,40" id="Fill-463" sketch:type="MSShapeGroup"></path>
            <path d="M56,48 L0,48 L0,35 C0,34.447 0.448,34 1,34 C1.552,34 2,34.447 2,35 L2,46 L54,46 L54,35 C54,34.447 54.448,34 55,34 C55.552,34 56,34.447 56,35 L56,48" id="Fill-464" sketch:type="MSShapeGroup"></path>
        </g>
    </g>
</svg>