<?xml version="1.0" encoding="UTF-8" standalone="no"?>
<svg width="53px" height="53px" viewBox="0 0 53 53" version="1.1" xmlns="http://www.w3.org/2000/svg" xmlns:xlink="http://www.w3.org/1999/xlink" xmlns:sketch="http://www.bohemiancoding.com/sketch/ns">
    <!-- Generator: Sketch 3.2.2 (9983) - http://www.bohemiancoding.com/sketch -->
    <title>38 - Drag Bottom Left (Flat)</title>
    <desc>Created with Sketch.</desc>
    <defs></defs>
    <g id="Page-1" stroke="none" stroke-width="1" fill="none" fill-rule="evenodd" sketch:type="MSPage">
        <g id="38---Drag-Bottom-Left-(Flat)" sketch:type="MSLayerGroup" transform="translate(-1.000000, 0.000000)">
            <path d="M2,53 C1.448,53 1,52.553 1,52 L1,33.454 C1,32.901 1.448,32.454 2,32.454 C2.552,32.454 3,32.901 3,33.454 L3,52 C3,52.553 2.552,53 2,53" id="Fill-589" fill="#546A79" sketch:type="MSShapeGroup"></path>
            <path d="M2,53 C1.744,53 1.488,52.902 1.293,52.707 C0.902,52.316 0.902,51.683 1.293,51.293 L29.111,23.475 C29.502,23.084 30.135,23.084 30.525,23.475 C30.916,23.865 30.916,24.498 30.525,24.888 L2.707,52.707 C2.512,52.902 2.256,53 2,53" id="Fill-592" fill="#546A79" sketch:type="MSShapeGroup"></path>
            <path d="M20.545,53 L2,53 C1.448,53 1,52.553 1,52 C1,51.447 1.448,51 2,51 L20.545,51 C21.098,51 21.545,51.447 21.545,52 C21.545,52.553 21.098,53 20.545,53" id="Fill-593" fill="#546A79" sketch:type="MSShapeGroup"></path>
            <path d="M30,1 L53,1 L53,24 L30,24 L30,1 Z" id="Fill-594" fill="#B1E97C" sketch:type="MSShapeGroup"></path>
            <path d="M29,0 L54,0 L54,25 L29,25 L29,0 Z M31,23 L52,23 L52,2 L31,2 L31,23 Z" id="Fill-595" fill="#B1E97C" sketch:type="MSShapeGroup"></path>
        </g>
    </g>
</svg>