<?xml version="1.0" encoding="UTF-8" standalone="no"?>
<svg width="53px" height="53px" viewBox="0 0 53 53" version="1.1" xmlns="http://www.w3.org/2000/svg" xmlns:xlink="http://www.w3.org/1999/xlink" xmlns:sketch="http://www.bohemiancoding.com/sketch/ns">
    <!-- Generator: Sketch 3.2.2 (9983) - http://www.bohemiancoding.com/sketch -->
    <title>37 - Drag Top Lft (Flat)</title>
    <desc>Created with Sketch.</desc>
    <defs></defs>
    <g id="Page-1" stroke="none" stroke-width="1" fill="none" fill-rule="evenodd" sketch:type="MSPage">
        <g id="37---Drag-Top-Lft-(Flat)" sketch:type="MSLayerGroup" transform="translate(-1.000000, -1.000000)">
            <path d="M29.818,30.818 C29.562,30.818 29.307,30.721 29.111,30.525 L1.293,2.707 C0.902,2.316 0.902,1.683 1.293,1.293 C1.684,0.902 2.316,0.902 2.707,1.293 L30.525,29.111 C30.916,29.502 30.916,30.135 30.525,30.525 C30.33,30.721 30.074,30.818 29.818,30.818" id="Fill-596" fill="#546A79" sketch:type="MSShapeGroup"></path>
            <path d="M20.545,3 L2,3 C1.448,3 1,2.553 1,2 C1,1.447 1.448,1 2,1 L20.545,1 C21.098,1 21.545,1.447 21.545,2 C21.545,2.553 21.098,3 20.545,3" id="Fill-597" fill="#546A79" sketch:type="MSShapeGroup"></path>
            <path d="M2,21.546 C1.448,21.546 1,21.099 1,20.546 L1,2 C1,1.447 1.448,1 2,1 C2.552,1 3,1.447 3,2 L3,20.546 C3,21.099 2.552,21.546 2,21.546" id="Fill-598" fill="#546A79" sketch:type="MSShapeGroup"></path>
            <path d="M30,30 L53,30 L53,53 L30,53 L30,30 Z" id="Fill-599" fill="#B1E97C" sketch:type="MSShapeGroup"></path>
            <path d="M29,29 L54,29 L54,54 L29,54 L29,29 Z M31,52 L52,52 L52,31 L31,31 L31,52 Z" id="Fill-600" fill="#B1E97C" sketch:type="MSShapeGroup"></path>
        </g>
    </g>
</svg>