<?xml version="1.0" encoding="UTF-8" standalone="no"?>
<svg width="53px" height="53px" viewBox="0 0 53 53" version="1.1" xmlns="http://www.w3.org/2000/svg" xmlns:xlink="http://www.w3.org/1999/xlink" xmlns:sketch="http://www.bohemiancoding.com/sketch/ns">
    <!-- Generator: Sketch 3.2.2 (9983) - http://www.bohemiancoding.com/sketch -->
    <title>40 - Drag Top Left (Flat)</title>
    <desc>Created with Sketch.</desc>
    <defs></defs>
    <g id="Page-1" stroke="none" stroke-width="1" fill="none" fill-rule="evenodd" sketch:type="MSPage">
        <g id="40---Drag-Top-Left-(Flat)" sketch:type="MSLayerGroup" transform="translate(0.000000, -1.000000)">
            <path d="M24.182,30.818 C23.926,30.818 23.67,30.721 23.475,30.525 C23.084,30.135 23.084,29.502 23.475,29.111 L51.293,1.293 C51.684,0.902 52.316,0.902 52.707,1.293 C53.098,1.683 53.098,2.316 52.707,2.707 L24.889,30.525 C24.693,30.721 24.437,30.818 24.182,30.818" id="Fill-581" fill="#546A79" sketch:type="MSShapeGroup"></path>
            <path d="M52,21.546 C51.448,21.546 51,21.099 51,20.546 L51,2 C51,1.447 51.448,1 52,1 C52.552,1 53,1.447 53,2 L53,20.546 C53,21.099 52.552,21.546 52,21.546" id="Fill-582" fill="#546A79" sketch:type="MSShapeGroup"></path>
            <path d="M52,3 L33.455,3 C32.902,3 32.455,2.553 32.455,2 C32.455,1.447 32.902,1 33.455,1 L52,1 C52.552,1 53,1.447 53,2 C53,2.553 52.552,3 52,3" id="Fill-583" fill="#546A79" sketch:type="MSShapeGroup"></path>
            <path d="M1,30 L24,30 L24,53 L1,53 L1,30 Z" id="Fill-584" fill="#B1E97C" sketch:type="MSShapeGroup"></path>
            <path d="M0,29 L25,29 L25,54 L0,54 L0,29 Z M2,52 L23,52 L23,31 L2,31 L2,52 Z" id="Fill-585" fill="#B1E97C" sketch:type="MSShapeGroup"></path>
        </g>
    </g>
</svg>