<?xml version="1.0" encoding="UTF-8" standalone="no"?>
<svg width="55px" height="55px" viewBox="0 0 55 55" version="1.1" xmlns="http://www.w3.org/2000/svg" xmlns:xlink="http://www.w3.org/1999/xlink" xmlns:sketch="http://www.bohemiancoding.com/sketch/ns">
    <!-- Generator: Sketch 3.2.2 (9983) - http://www.bohemiancoding.com/sketch -->
    <title>36 - Drag Top Right (Flat)</title>
    <desc>Created with Sketch.</desc>
    <defs></defs>
    <g id="Page-1" stroke="none" stroke-width="1" fill="none" fill-rule="evenodd" sketch:type="MSPage">
        <g id="36---Drag-Top-Right-(Flat)" sketch:type="MSLayerGroup" transform="translate(0.000000, -1.000000)">
            <path d="M18.071,38.929 C17.815,38.929 17.559,38.831 17.364,38.636 C16.973,38.245 16.973,37.612 17.364,37.221 L53.293,1.293 C53.684,0.902 54.316,0.902 54.707,1.293 C55.098,1.683 55.098,2.316 54.707,2.707 L18.778,38.636 C18.582,38.831 18.327,38.929 18.071,38.929" id="Fill-601" fill="#546A79" sketch:type="MSShapeGroup"></path>
            <path d="M54,21.546 C53.447,21.546 53,21.099 53,20.546 L53,2 C53,1.447 53.447,1 54,1 C54.553,1 55,1.447 55,2 L55,20.546 C55,21.099 54.553,21.546 54,21.546" id="Fill-602" fill="#546A79" sketch:type="MSShapeGroup"></path>
            <path d="M54,3 L35.455,3 C34.902,3 34.455,2.553 34.455,2 C34.455,1.447 34.902,1 35.455,1 L54,1 C54.553,1 55,1.447 55,2 C55,2.553 54.553,3 54,3" id="Fill-603" fill="#546A79" sketch:type="MSShapeGroup"></path>
            <path d="M21,45 C21,50.523 16.523,55 11,55 C5.477,55 1,50.523 1,45 C1,39.477 5.477,35 11,35 C16.523,35 21,39.477 21,45" id="Fill-604" fill="#F18D46" sketch:type="MSShapeGroup"></path>
            <path d="M11,56 C4.935,56 0,51.065 0,45 C0,38.934 4.935,34 11,34 C17.065,34 22,38.934 22,45 C22,51.065 17.065,56 11,56 L11,56 Z M11,36 C6.038,36 2,40.037 2,45 C2,49.963 6.038,54 11,54 C15.962,54 20,49.963 20,45 C20,40.037 15.962,36 11,36 L11,36 Z" id="Fill-605" fill="#F18D46" sketch:type="MSShapeGroup"></path>
        </g>
    </g>
</svg>