<?xml version="1.0" encoding="UTF-8" standalone="no"?>
<svg width="59px" height="29px" viewBox="0 0 59 29" version="1.1" xmlns="http://www.w3.org/2000/svg" xmlns:xlink="http://www.w3.org/1999/xlink" xmlns:sketch="http://www.bohemiancoding.com/sketch/ns">
    <!-- Generator: Sketch 3.2.2 (9983) - http://www.bohemiancoding.com/sketch -->
    <title>41 - Drag Object Left (Flat)</title>
    <desc>Created with Sketch.</desc>
    <defs></defs>
    <g id="Page-1" stroke="none" stroke-width="1" fill="none" fill-rule="evenodd" sketch:type="MSPage">
        <g id="41---Drag-Object-Left-(Flat)" sketch:type="MSLayerGroup" transform="translate(-1.000000, 0.000000)">
            <path d="M37,15.772 L2,15.772 C1.447,15.772 1,15.325 1,14.772 C1,14.22 1.447,13.772 2,13.772 L37,13.772 C37.553,13.772 38,14.22 38,14.772 C38,15.325 37.553,15.772 37,15.772" id="Fill-636" fill="#546A79" sketch:type="MSShapeGroup"></path>
            <path d="M2,15.772 C1.742,15.772 1.485,15.674 1.29,15.476 C0.901,15.084 0.903,14.451 1.296,14.062 L14.409,1.062 C14.802,0.674 15.435,0.676 15.823,1.068 C16.212,1.461 16.21,2.094 15.817,2.482 L2.704,15.482 C2.509,15.676 2.255,15.772 2,15.772" id="Fill-637" fill="#546A79" sketch:type="MSShapeGroup"></path>
            <path d="M15.113,29 C14.855,29 14.599,28.901 14.403,28.704 L1.29,15.476 C0.901,15.084 0.903,14.451 1.296,14.062 C1.689,13.674 2.322,13.676 2.71,14.068 L15.823,27.296 C16.212,27.688 16.21,28.321 15.817,28.71 C15.622,28.903 15.368,29 15.113,29" id="Fill-638" fill="#546A79" sketch:type="MSShapeGroup"></path>
            <path d="M37,3.773 L59,3.773 L59,25.773 L37,25.773 L37,3.773 Z" id="Fill-639" fill="#48A0DC" sketch:type="MSShapeGroup"></path>
            <path d="M36,2.772 L60,2.772 L60,26.772 L36,26.772 L36,2.772 Z M38,24.772 L58,24.772 L58,4.772 L38,4.772 L38,24.772 Z" id="Fill-640" fill="#48A0DC" sketch:type="MSShapeGroup"></path>
        </g>
    </g>
</svg>