<?xml version="1.0" encoding="UTF-8" standalone="no"?>
<svg width="53px" height="53px" viewBox="0 0 53 53" version="1.1" xmlns="http://www.w3.org/2000/svg" xmlns:xlink="http://www.w3.org/1999/xlink" xmlns:sketch="http://www.bohemiancoding.com/sketch/ns">
    <!-- Generator: Sketch 3.2.2 (9983) - http://www.bohemiancoding.com/sketch -->
    <title>39 - Drag Bottom Right (Flat)</title>
    <desc>Created with Sketch.</desc>
    <defs></defs>
    <g id="Page-1" stroke="none" stroke-width="1" fill="none" fill-rule="evenodd" sketch:type="MSPage">
        <g id="39---Drag-Bottom-Right-(Flat)" sketch:type="MSLayerGroup">
            <path d="M52,53 C51.744,53 51.488,52.902 51.293,52.707 L23.475,24.889 C23.084,24.498 23.084,23.865 23.475,23.474 C23.865,23.084 24.498,23.084 24.889,23.474 L52.707,51.293 C53.098,51.683 53.098,52.316 52.707,52.707 C52.512,52.902 52.256,53 52,53" id="Fill-586" fill="#546A79" sketch:type="MSShapeGroup"></path>
            <path d="M52,53 L33.455,53 C32.902,53 32.455,52.553 32.455,52 C32.455,51.447 32.902,51 33.455,51 L52,51 C52.552,51 53,51.447 53,52 C53,52.553 52.552,53 52,53" id="Fill-587" fill="#546A79" sketch:type="MSShapeGroup"></path>
            <path d="M52,53 C51.448,53 51,52.553 51,52 L51,33.454 C51,32.901 51.448,32.454 52,32.454 C52.552,32.454 53,32.901 53,33.454 L53,52 C53,52.553 52.552,53 52,53" id="Fill-588" fill="#546A79" sketch:type="MSShapeGroup"></path>
            <path d="M1,1 L24,1 L24,24 L1,24 L1,1 Z" id="Fill-590" fill="#B1E97C" sketch:type="MSShapeGroup"></path>
            <path d="M0,0 L25,0 L25,25 L0,25 L0,0 Z M2,23 L23,23 L23,2 L2,2 L2,23 Z" id="Fill-591" fill="#B1E97C" sketch:type="MSShapeGroup"></path>
        </g>
    </g>
</svg>