<?xml version="1.0" encoding="UTF-8" standalone="no"?>
<svg width="60px" height="60px" viewBox="0 0 60 60" version="1.1" xmlns="http://www.w3.org/2000/svg" xmlns:xlink="http://www.w3.org/1999/xlink" xmlns:sketch="http://www.bohemiancoding.com/sketch/ns">
    <!-- Generator: Sketch 3.2.2 (9983) - http://www.bohemiancoding.com/sketch -->
    <title>82 - Expand Nucleum (Flat)</title>
    <desc>Created with Sketch.</desc>
    <defs></defs>
    <g id="Page-1" stroke="none" stroke-width="1" fill="none" fill-rule="evenodd" sketch:type="MSPage">
        <g id="82---Expand-Nucleum-(Flat)" sketch:type="MSLayerGroup" transform="translate(-1.000000, -1.000000)">
            <path d="M57,31 C57,45.359 45.359,57 31,57 C16.641,57 5,45.359 5,31 C5,16.641 16.641,5 31,5 C45.359,5 57,16.641 57,31" id="Fill-458" fill="#F29C1F" sketch:type="MSShapeGroup"></path>
            <path d="M31,58 C16.112,58 4,45.888 4,31 C4,16.112 16.112,4 31,4 C45.888,4 58,16.112 58,31 C58,45.888 45.888,58 31,58 L31,58 Z M31,6 C17.215,6 6,17.215 6,31 C6,44.785 17.215,56 31,56 C44.785,56 56,44.785 56,31 C56,17.215 44.785,6 31,6 L31,6 Z" id="Fill-459" fill="#F29C1F" sketch:type="MSShapeGroup"></path>
            <path d="M2,61 C1.744,61 1.488,60.902 1.293,60.707 C0.902,60.316 0.902,59.683 1.293,59.293 L18.293,42.293 C18.684,41.902 19.316,41.902 19.707,42.293 C20.098,42.684 20.098,43.316 19.707,43.707 L2.707,60.707 C2.512,60.902 2.256,61 2,61" id="Fill-840" fill="#F3D55B" sketch:type="MSShapeGroup"></path>
            <path d="M16.143,61 L1,61 L1,45.857 L3,45.857 L3,59 L16.143,59 L16.143,61" id="Fill-841" fill="#F3D55B" sketch:type="MSShapeGroup"></path>
            <path d="M43,20 C42.744,20 42.488,19.902 42.293,19.707 C41.902,19.316 41.902,18.684 42.293,18.293 L59.293,1.293 C59.684,0.902 60.316,0.902 60.707,1.293 C61.098,1.683 61.098,2.316 60.707,2.707 L43.707,19.707 C43.512,19.902 43.256,20 43,20" id="Fill-842" fill="#F3D55B" sketch:type="MSShapeGroup"></path>
            <path d="M61,16.142 L59,16.142 L59,3 L45.857,3 L45.857,1 L61,1 L61,16.142" id="Fill-843" fill="#F3D55B" sketch:type="MSShapeGroup"></path>
            <path d="M41,31 C41,36.523 36.523,41 31,41 C25.477,41 21,36.523 21,31 C21,25.477 25.477,21 31,21 C36.523,21 41,25.477 41,31" id="Fill-844" fill="#E64C3C" sketch:type="MSShapeGroup"></path>
            <path d="M31,42 C24.935,42 20,37.065 20,31 C20,24.934 24.935,20 31,20 C37.065,20 42,24.934 42,31 C42,37.065 37.065,42 31,42 L31,42 Z M31,22 C26.037,22 22,26.037 22,31 C22,35.963 26.037,40 31,40 C35.963,40 40,35.963 40,31 C40,26.037 35.963,22 31,22 L31,22 Z" id="Fill-845" fill="#E64C3C" sketch:type="MSShapeGroup"></path>
        </g>
    </g>
</svg>