<?xml version="1.0" encoding="UTF-8" standalone="no"?>
<svg width="53px" height="53px" viewBox="0 0 53 53" version="1.1" xmlns="http://www.w3.org/2000/svg" xmlns:xlink="http://www.w3.org/1999/xlink" xmlns:sketch="http://www.bohemiancoding.com/sketch/ns">
    <!-- Generator: Sketch 3.2.2 (9983) - http://www.bohemiancoding.com/sketch -->
    <title>147 - Expand Square (Flat)</title>
    <desc>Created with Sketch.</desc>
    <defs></defs>
    <g id="Page-1" stroke="none" stroke-width="1" fill="none" fill-rule="evenodd" sketch:type="MSPage">
        <g id="147---Expand-Square-(Flat)" sketch:type="MSLayerGroup" transform="translate(-1.000000, -1.000000)">
            <path d="M35,21 C34.744,21 34.488,20.902 34.293,20.707 C33.902,20.316 33.902,19.683 34.293,19.293 L52.293,1.293 C52.684,0.902 53.316,0.902 53.707,1.293 C54.098,1.683 54.098,2.316 53.707,2.707 L35.707,20.707 C35.512,20.902 35.256,21 35,21" id="Fill-144" fill="#26B99A" sketch:type="MSShapeGroup"></path>
            <path d="M2,54 C1.744,54 1.488,53.902 1.293,53.707 C0.902,53.316 0.902,52.683 1.293,52.293 L19.293,34.293 C19.684,33.902 20.316,33.902 20.707,34.293 C21.098,34.683 21.098,35.316 20.707,35.707 L2.707,53.707 C2.512,53.902 2.256,54 2,54" id="Fill-145" fill="#26B99A" sketch:type="MSShapeGroup"></path>
            <path d="M53,54 C52.744,54 52.488,53.902 52.293,53.707 L34.292,35.706 C33.902,35.316 33.902,34.683 34.292,34.292 C34.683,33.902 35.316,33.902 35.706,34.292 L53.707,52.293 C54.098,52.683 54.098,53.316 53.707,53.707 C53.512,53.902 53.256,54 53,54" id="Fill-146" fill="#26B99A" sketch:type="MSShapeGroup"></path>
            <path d="M19.998,20.998 C19.743,20.998 19.487,20.901 19.291,20.706 L1.293,2.707 C0.902,2.316 0.902,1.683 1.293,1.293 C1.684,0.902 2.316,0.902 2.707,1.293 L20.706,19.292 C21.096,19.682 21.096,20.315 20.706,20.706 C20.51,20.901 20.254,20.998 19.998,20.998" id="Fill-147" fill="#26B99A" sketch:type="MSShapeGroup"></path>
            <path d="M14,3 L2,3 C1.448,3 1,2.552 1,2 C1,1.448 1.448,1 2,1 L14,1 C14.552,1 15,1.448 15,2 C15,2.552 14.552,3 14,3" id="Fill-148" fill="#26B99A" sketch:type="MSShapeGroup"></path>
            <path d="M2,15 C1.448,15 1,14.552 1,14 L1,2 C1,1.448 1.448,1 2,1 C2.552,1 3,1.448 3,2 L3,14 C3,14.552 2.552,15 2,15" id="Fill-149" fill="#26B99A" sketch:type="MSShapeGroup"></path>
            <path d="M53,54 L41,54 C40.448,54 40,53.552 40,53 C40,52.448 40.448,52 41,52 L53,52 C53.552,52 54,52.448 54,53 C54,53.552 53.552,54 53,54" id="Fill-150" fill="#26B99A" sketch:type="MSShapeGroup"></path>
            <path d="M53,54 C52.448,54 52,53.552 52,53 L52,41 C52,40.448 52.448,40 53,40 C53.552,40 54,40.448 54,41 L54,53 C54,53.552 53.552,54 53,54" id="Fill-151" fill="#26B99A" sketch:type="MSShapeGroup"></path>
            <path d="M2,54 C1.448,54 1,53.552 1,53 L1,41 C1,40.448 1.448,40 2,40 C2.552,40 3,40.448 3,41 L3,53 C3,53.552 2.552,54 2,54" id="Fill-152" fill="#26B99A" sketch:type="MSShapeGroup"></path>
            <path d="M14,54 L2,54 C1.448,54 1,53.552 1,53 C1,52.448 1.448,52 2,52 L14,52 C14.552,52 15,52.448 15,53 C15,53.552 14.552,54 14,54" id="Fill-153" fill="#26B99A" sketch:type="MSShapeGroup"></path>
            <path d="M53,15 C52.448,15 52,14.552 52,14 L52,2 C52,1.448 52.448,1 53,1 C53.552,1 54,1.448 54,2 L54,14 C54,14.552 53.552,15 53,15" id="Fill-154" fill="#26B99A" sketch:type="MSShapeGroup"></path>
            <path d="M53,3 L41,3 C40.448,3 40,2.552 40,2 C40,1.448 40.448,1 41,1 L53,1 C53.552,1 54,1.448 54,2 C54,2.552 53.552,3 53,3" id="Fill-155" fill="#26B99A" sketch:type="MSShapeGroup"></path>
            <path d="M20,20 L35,20 L35,35 L20,35 L20,20 Z" id="Fill-156" fill="#B1E97C" sketch:type="MSShapeGroup"></path>
            <path d="M19,19 L36,19 L36,36 L19,36 L19,19 Z M21,34 L34,34 L34,21 L21,21 L21,34 Z" id="Fill-157" fill="#B1E97C" sketch:type="MSShapeGroup"></path>
        </g>
    </g>
</svg>