<?xml version="1.0" encoding="UTF-8" standalone="no"?>
<svg width="60px" height="42px" viewBox="0 0 60 42" version="1.1" xmlns="http://www.w3.org/2000/svg" xmlns:xlink="http://www.w3.org/1999/xlink" xmlns:sketch="http://www.bohemiancoding.com/sketch/ns">
    <!-- Generator: Sketch 3.2.2 (9983) - http://www.bohemiancoding.com/sketch -->
    <title>51 - Finish Shuffle (Flat)</title>
    <desc>Created with Sketch.</desc>
    <defs></defs>
    <g id="Page-1" stroke="none" stroke-width="1" fill="none" fill-rule="evenodd" sketch:type="MSPage">
        <g id="51---Finish-Shuffle-(Flat)" sketch:type="MSLayerGroup" transform="translate(0.000000, -1.000000)">
            <path d="M9,9 L1,9 C0.447,9 0,9.447 0,10 C0,10.553 0.447,11 1,11 L9,11 C15.065,11 20,15.934 20,22 C20,28.065 15.065,33 9,33 L1,33 C0.447,33 0,33.447 0,34 C0,34.553 0.447,35 1,35 L9,35 C16.168,35 22,29.168 22,22 C22,14.832 16.168,9 9,9" id="Fill-542" fill="#26B99A" sketch:type="MSShapeGroup"></path>
            <path d="M59.923,33.618 C59.872,33.495 59.799,33.384 59.706,33.292 L51.707,25.293 C51.316,24.902 50.684,24.902 50.293,25.293 C49.902,25.684 49.902,26.316 50.293,26.707 L56.586,33 L33,33 C26.935,33 22,28.065 22,22 C22,15.934 26.935,11 33,11 L56.586,11 L50.293,17.293 C49.902,17.683 49.902,18.316 50.293,18.707 C50.488,18.902 50.744,19 51,19 C51.256,19 51.512,18.902 51.707,18.707 L59.706,10.708 C59.799,10.616 59.872,10.505 59.923,10.382 C60.024,10.137 60.024,9.862 59.923,9.618 C59.872,9.495 59.799,9.384 59.706,9.292 L51.707,1.293 C51.316,0.902 50.684,0.902 50.293,1.293 C49.902,1.684 49.902,2.316 50.293,2.707 L56.586,9 L33,9 C25.832,9 20,14.832 20,22 C20,29.168 25.832,35 33,35 L56.586,35 L50.293,41.293 C49.902,41.683 49.902,42.316 50.293,42.707 C50.488,42.902 50.744,43 51,43 C51.256,43 51.512,42.902 51.707,42.707 L59.706,34.708 C59.799,34.616 59.872,34.505 59.923,34.382 C60.024,34.137 60.024,33.862 59.923,33.618" id="Fill-543" fill="#26B99A" sketch:type="MSShapeGroup"></path>
            <path d="M36,23 L34,23 C33.447,23 33,22.553 33,22 C33,21.447 33.447,21 34,21 L36,21 C36.553,21 37,21.447 37,22 C37,22.553 36.553,23 36,23 L36,23 Z M30,23 L28,23 C27.447,23 27,22.553 27,22 C27,21.447 27.447,21 28,21 L30,21 C30.553,21 31,21.447 31,22 C31,22.553 30.553,23 30,23 L30,23 Z M24,23 L22,23 C21.447,23 21,22.553 21,22 C21,21.447 21.447,21 22,21 L24,21 C24.553,21 25,21.447 25,22 C25,22.553 24.553,23 24,23 L24,23 Z M18,23 L16,23 C15.447,23 15,22.553 15,22 C15,21.447 15.447,21 16,21 L18,21 C18.553,21 19,21.447 19,22 C19,22.553 18.553,23 18,23 L18,23 Z M12,23 L10,23 C9.447,23 9,22.553 9,22 C9,21.447 9.447,21 10,21 L12,21 C12.553,21 13,21.447 13,22 C13,22.553 12.553,23 12,23 L12,23 Z M6,23 L4,23 C3.447,23 3,22.553 3,22 C3,21.447 3.447,21 4,21 L6,21 C6.553,21 7,21.447 7,22 C7,22.553 6.553,23 6,23 L6,23 Z" id="Fill-578" fill="#B1E97C" sketch:type="MSShapeGroup"></path>
            <path d="M39,23 C38.744,23 38.488,22.902 38.293,22.707 L32.293,16.707 C31.902,16.316 31.902,15.683 32.293,15.293 C32.684,14.902 33.316,14.902 33.707,15.293 L39.707,21.293 C40.098,21.683 40.098,22.316 39.707,22.707 C39.512,22.902 39.256,23 39,23" id="Fill-579" fill="#B1E97C" sketch:type="MSShapeGroup"></path>
            <path d="M33,29 C32.744,29 32.488,28.902 32.293,28.707 C31.902,28.316 31.902,27.683 32.293,27.293 L38.293,21.293 C38.684,20.902 39.316,20.902 39.707,21.293 C40.098,21.683 40.098,22.316 39.707,22.707 L33.707,28.707 C33.512,28.902 33.256,29 33,29" id="Fill-580" fill="#B1E97C" sketch:type="MSShapeGroup"></path>
        </g>
    </g>
</svg>