<?xml version="1.0" encoding="UTF-8" standalone="no"?>
<svg width="53px" height="53px" viewBox="0 0 53 53" version="1.1" xmlns="http://www.w3.org/2000/svg" xmlns:xlink="http://www.w3.org/1999/xlink" xmlns:sketch="http://www.bohemiancoding.com/sketch/ns">
    <!-- Generator: Sketch 3.2.2 (9983) - http://www.bohemiancoding.com/sketch -->
    <title>146 - Focus on Object (Flat)</title>
    <desc>Created with Sketch.</desc>
    <defs></defs>
    <g id="Page-1" stroke="none" stroke-width="1" fill="none" fill-rule="evenodd" sketch:type="MSPage">
        <g id="146---Focus-on-Object-(Flat)" sketch:type="MSLayerGroup" transform="translate(-1.000000, -1.000000)">
            <path d="M35,21 C34.744,21 34.488,20.902 34.293,20.707 C33.902,20.316 33.902,19.683 34.293,19.293 L52.293,1.293 C52.684,0.902 53.316,0.902 53.707,1.293 C54.098,1.683 54.098,2.316 53.707,2.707 L35.707,20.707 C35.512,20.902 35.256,21 35,21" id="Fill-104" fill="#26B99A" sketch:type="MSShapeGroup"></path>
            <path d="M2,54 C1.744,54 1.488,53.902 1.293,53.707 C0.902,53.316 0.902,52.683 1.293,52.293 L19.293,34.293 C19.684,33.902 20.316,33.902 20.707,34.293 C21.098,34.683 21.098,35.316 20.707,35.707 L2.707,53.707 C2.512,53.902 2.256,54 2,54" id="Fill-105" fill="#26B99A" sketch:type="MSShapeGroup"></path>
            <path d="M53,54 C52.744,54 52.488,53.902 52.293,53.707 L34.292,35.706 C33.902,35.316 33.902,34.683 34.292,34.292 C34.683,33.902 35.316,33.902 35.706,34.292 L53.707,52.293 C54.098,52.683 54.098,53.316 53.707,53.707 C53.512,53.902 53.256,54 53,54" id="Fill-106" fill="#26B99A" sketch:type="MSShapeGroup"></path>
            <path d="M19.998,20.998 C19.743,20.998 19.487,20.901 19.291,20.706 L1.293,2.707 C0.902,2.316 0.902,1.683 1.293,1.293 C1.684,0.902 2.316,0.902 2.707,1.293 L20.706,19.292 C21.096,19.682 21.096,20.315 20.706,20.706 C20.51,20.901 20.254,20.998 19.998,20.998" id="Fill-107" fill="#26B99A" sketch:type="MSShapeGroup"></path>
            <path d="M19.998,20.998 L7.998,20.998 C7.446,20.998 6.998,20.551 6.998,19.998 C6.998,19.446 7.446,18.998 7.998,18.998 L19.998,18.998 C20.551,18.998 20.998,19.446 20.998,19.998 C20.998,20.551 20.551,20.998 19.998,20.998" id="Fill-108" fill="#26B99A" sketch:type="MSShapeGroup"></path>
            <path d="M19.998,20.998 C19.446,20.998 18.998,20.551 18.998,19.998 L18.998,7.998 C18.998,7.446 19.446,6.998 19.998,6.998 C20.551,6.998 20.998,7.446 20.998,7.998 L20.998,19.998 C20.998,20.551 20.551,20.998 19.998,20.998" id="Fill-109" fill="#26B99A" sketch:type="MSShapeGroup"></path>
            <path d="M47,36 L35,36 C34.447,36 34,35.552 34,34.999 C34,34.447 34.447,33.999 35,33.999 L47,33.999 C47.553,33.999 48,34.447 48,34.999 C48,35.552 47.553,36 47,36" id="Fill-110" fill="#26B99A" sketch:type="MSShapeGroup"></path>
            <path d="M35,48 C34.447,48 34,47.552 34,46.999 L34,34.999 C34,34.447 34.447,33.999 35,33.999 C35.552,33.999 35.999,34.447 35.999,34.999 L35.999,46.999 C35.999,47.552 35.552,48 35,48" id="Fill-111" fill="#26B99A" sketch:type="MSShapeGroup"></path>
            <path d="M20,48 C19.448,48 19,47.552 19,47 L19,35 C19,34.448 19.448,34 20,34 C20.552,34 21,34.448 21,35 L21,47 C21,47.552 20.552,48 20,48" id="Fill-112" fill="#26B99A" sketch:type="MSShapeGroup"></path>
            <path d="M20,36 L8,36 C7.448,36 7,35.552 7,35 C7,34.448 7.448,34 8,34 L20,34 C20.552,34 21,34.448 21,35 C21,35.552 20.552,36 20,36" id="Fill-113" fill="#26B99A" sketch:type="MSShapeGroup"></path>
            <path d="M35,21 C34.448,21 34,20.552 34,20 L34,8 C34,7.448 34.448,7 35,7 C35.552,7 36,7.448 36,8 L36,20 C36,20.552 35.552,21 35,21" id="Fill-114" fill="#26B99A" sketch:type="MSShapeGroup"></path>
            <path d="M47,21 L35,21 C34.448,21 34,20.552 34,20 C34,19.448 34.448,19 35,19 L47,19 C47.553,19 48,19.448 48,20 C48,20.552 47.553,21 47,21" id="Fill-115" fill="#26B99A" sketch:type="MSShapeGroup"></path>
            <path d="M34,27.5 C34,31.09 31.09,34 27.5,34 C23.91,34 21,31.09 21,27.5 C21,23.91 23.91,21 27.5,21 C31.09,21 34,23.91 34,27.5" id="Fill-158" fill="#B1E97C" sketch:type="MSShapeGroup"></path>
            <path d="M27.5,35 C23.364,35 20,31.636 20,27.5 C20,23.364 23.364,20 27.5,20 C31.636,20 35,23.364 35,27.5 C35,31.636 31.636,35 27.5,35 L27.5,35 Z M27.5,22 C24.467,22 22,24.467 22,27.5 C22,30.533 24.467,33 27.5,33 C30.533,33 33,30.533 33,27.5 C33,24.467 30.533,22 27.5,22 L27.5,22 Z" id="Fill-159" fill="#B1E97C" sketch:type="MSShapeGroup"></path>
        </g>
    </g>
</svg>