<?xml version="1.0" encoding="UTF-8" standalone="no"?>
<svg width="48px" height="60px" viewBox="0 0 48 60" version="1.1" xmlns="http://www.w3.org/2000/svg" xmlns:xlink="http://www.w3.org/1999/xlink" xmlns:sketch="http://www.bohemiancoding.com/sketch/ns">
    <!-- Generator: Sketch 3.2.2 (9983) - http://www.bohemiancoding.com/sketch -->
    <title>101 - Half Orbit (Flat)</title>
    <desc>Created with Sketch.</desc>
    <defs></defs>
    <g id="Page-1" stroke="none" stroke-width="1" fill="none" fill-rule="evenodd" sketch:type="MSPage">
        <g id="101---Half-Orbit-(Flat)" sketch:type="MSLayerGroup" transform="translate(0.000000, -1.000000)">
            <path d="M24,59 C23.452,59 23.006,58.558 23,58.01 C22.994,57.458 23.438,57.006 23.99,57 L24.275,56.997 L24.286,56.997 C24.834,56.997 25.28,57.438 25.286,57.986 C25.292,58.539 24.849,58.991 24.297,58.997 L24.01,59 L24,59 L24,59 Z M28.259,58.606 C27.787,58.606 27.367,58.271 27.277,57.791 C27.175,57.249 27.532,56.725 28.075,56.624 C28.704,56.505 29.331,56.359 29.937,56.189 C30.464,56.042 31.02,56.35 31.169,56.883 C31.318,57.414 31.008,57.966 30.476,58.115 C29.814,58.301 29.131,58.46 28.444,58.589 C28.382,58.6 28.32,58.606 28.259,58.606 L28.259,58.606 Z M33.944,56.746 C33.572,56.746 33.215,56.538 33.042,56.18 C32.803,55.682 33.012,55.085 33.51,54.845 C34.085,54.568 34.653,54.264 35.196,53.942 C35.675,53.661 36.285,53.818 36.566,54.293 C36.848,54.769 36.69,55.382 36.216,55.663 C35.623,56.015 35.004,56.346 34.377,56.647 C34.237,56.715 34.09,56.746 33.944,56.746 L33.944,56.746 Z M38.952,53.478 C38.671,53.478 38.391,53.36 38.193,53.13 C37.834,52.71 37.882,52.079 38.301,51.72 C38.786,51.304 39.257,50.864 39.699,50.413 C40.087,50.016 40.72,50.014 41.113,50.399 C41.508,50.786 41.514,51.42 41.127,51.813 C40.644,52.306 40.131,52.785 39.604,53.237 C39.414,53.399 39.183,53.478 38.952,53.478 L38.952,53.478 Z M42.954,49.032 C42.759,49.032 42.562,48.975 42.389,48.856 C41.934,48.544 41.818,47.921 42.131,47.466 C42.492,46.939 42.835,46.394 43.147,45.843 C43.418,45.362 44.028,45.193 44.511,45.468 C44.991,45.74 45.159,46.35 44.886,46.831 C44.546,47.431 44.173,48.024 43.779,48.598 C43.586,48.881 43.272,49.032 42.954,49.032 L42.954,49.032 Z M45.678,43.704 C45.566,43.704 45.453,43.685 45.342,43.646 C44.822,43.461 44.551,42.889 44.735,42.368 C44.949,41.769 45.138,41.155 45.297,40.542 C45.435,40.008 45.981,39.681 46.516,39.825 C47.05,39.964 47.371,40.509 47.232,41.044 C47.06,41.713 46.853,42.385 46.62,43.04 C46.474,43.449 46.089,43.704 45.678,43.704 L45.678,43.704 Z M46.928,37.854 C46.901,37.854 46.874,37.853 46.848,37.852 C46.297,37.807 45.886,37.325 45.93,36.775 C45.977,36.191 46,35.595 46,35 L46,34.857 C46,34.305 46.447,33.857 47,33.857 C47.553,33.857 48,34.305 48,34.857 L48,35 C48,35.647 47.975,36.298 47.924,36.933 C47.882,37.457 47.444,37.854 46.928,37.854 L46.928,37.854 Z M46.631,31.88 C46.156,31.88 45.735,31.541 45.647,31.057 C45.534,30.431 45.393,29.804 45.226,29.194 C45.08,28.662 45.394,28.112 45.927,27.966 C46.454,27.825 47.009,28.134 47.155,28.667 C47.337,29.333 47.492,30.017 47.616,30.702 C47.714,31.246 47.353,31.766 46.81,31.864 C46.749,31.875 46.689,31.88 46.631,31.88 L46.631,31.88 Z M44.809,26.185 C44.434,26.185 44.074,25.974 43.903,25.613 C43.633,25.042 43.333,24.473 43.011,23.921 C42.733,23.443 42.895,22.831 43.371,22.553 C43.848,22.276 44.461,22.436 44.739,22.913 C45.089,23.514 45.416,24.135 45.712,24.758 C45.948,25.257 45.734,25.853 45.235,26.09 C45.098,26.155 44.951,26.185 44.809,26.185 L44.809,26.185 Z M41.571,21.157 C41.287,21.157 41.005,21.037 40.808,20.804 C40.395,20.315 39.957,19.843 39.509,19.396 C39.117,19.008 39.115,18.374 39.505,17.982 C39.896,17.592 40.528,17.589 40.919,17.978 C41.408,18.464 41.884,18.979 42.333,19.51 C42.69,19.932 42.638,20.563 42.217,20.92 C42.028,21.079 41.799,21.157 41.571,21.157 L41.571,21.157 Z M37.146,17.126 C36.948,17.126 36.748,17.067 36.573,16.945 C36.06,16.585 35.518,16.24 34.962,15.921 C34.482,15.645 34.317,15.034 34.593,14.556 C34.868,14.076 35.48,13.912 35.958,14.186 C36.566,14.536 37.159,14.913 37.722,15.306 C38.174,15.624 38.283,16.247 37.967,16.7 C37.771,16.977 37.462,17.126 37.146,17.126 L37.146,17.126 Z M31.839,14.37 C31.726,14.37 31.61,14.35 31.498,14.31 C30.896,14.092 30.282,13.899 29.674,13.738 C29.141,13.597 28.822,13.049 28.964,12.514 C29.105,11.981 29.656,11.667 30.187,11.805 C30.853,11.981 31.522,12.191 32.18,12.43 C32.699,12.618 32.967,13.191 32.779,13.711 C32.632,14.117 32.248,14.37 31.839,14.37 L31.839,14.37 Z M25.997,13.086 C25.969,13.086 25.939,13.085 25.91,13.082 C25.277,13.027 24.635,13 24,13 C23.447,13 23,12.552 23,12 C23,11.447 23.447,11 24,11 C24.691,11 25.392,11.03 26.082,11.09 C26.632,11.137 27.04,11.621 26.992,12.172 C26.947,12.692 26.511,13.086 25.997,13.086 L25.997,13.086 Z" id="Fill-824" fill="#687492" sketch:type="MSShapeGroup"></path>
            <path d="M18,9 C17.744,9 17.488,8.902 17.293,8.707 C16.902,8.316 16.902,7.683 17.293,7.293 L23.293,1.293 C23.684,0.902 24.316,0.902 24.707,1.293 C25.098,1.683 25.098,2.316 24.707,2.707 L18.707,8.707 C18.512,8.902 18.256,9 18,9" id="Fill-831" fill="#99527E" sketch:type="MSShapeGroup"></path>
            <path d="M30,9 C29.744,9 29.488,8.902 29.293,8.707 L23.293,2.707 C22.902,2.316 22.902,1.683 23.293,1.293 C23.684,0.902 24.316,0.902 24.707,1.293 L30.707,7.293 C31.098,7.683 31.098,8.316 30.707,8.707 C30.512,8.902 30.256,9 30,9" id="Fill-832" fill="#99527E" sketch:type="MSShapeGroup"></path>
            <path d="M24,58 C11.297,58 1,47.702 1,35 C1,22.297 11.297,12 24,12" id="Fill-837" fill="#CC66A1" sketch:type="MSShapeGroup"></path>
            <path d="M24,59 C10.767,59 0,48.233 0,35 C0,21.766 10.767,11 24,11 C24.553,11 25,11.447 25,12 C25,12.552 24.553,13 24,13 C11.869,13 2,22.869 2,35 C2,47.131 11.869,57 24,57 C24.553,57 25,57.447 25,58 C25,58.553 24.553,59 24,59" id="Fill-838" fill="#CC66A1" sketch:type="MSShapeGroup"></path>
            <path d="M24,61 C23.447,61 23,60.553 23,60 L23,2 C23,1.447 23.447,1 24,1 C24.553,1 25,1.447 25,2 L25,60 C25,60.553 24.553,61 24,61" id="Fill-839" fill="#99527E" sketch:type="MSShapeGroup"></path>
        </g>
    </g>
</svg>