<?xml version="1.0" encoding="UTF-8" standalone="no"?>
<svg width="49px" height="52px" viewBox="0 0 49 52" version="1.1" xmlns="http://www.w3.org/2000/svg" xmlns:xlink="http://www.w3.org/1999/xlink" xmlns:sketch="http://www.bohemiancoding.com/sketch/ns">
    <!-- Generator: Sketch 3.2.2 (9983) - http://www.bohemiancoding.com/sketch -->
    <title>58 - Half SPin (Flat)</title>
    <desc>Created with Sketch.</desc>
    <defs></defs>
    <g id="Page-1" stroke="none" stroke-width="1" fill="none" fill-rule="evenodd" sketch:type="MSPage">
        <g id="58---Half-SPin-(Flat)" sketch:type="MSLayerGroup">
            <path d="M6.498,39.93 C6.22,39.93 5.944,39.814 5.746,39.589 C-2.241,30.487 -1.831,16.691 6.681,8.181 C10.991,3.87 16.723,1.5 22.831,1.5 L22.949,1.5 C29.083,1.53 34.858,3.943 39.207,8.293 C39.598,8.683 39.598,9.316 39.207,9.707 C38.817,10.098 38.184,10.098 37.793,9.707 C33.818,5.732 28.543,3.528 22.939,3.5 L22.831,3.5 C17.257,3.5 12.028,5.662 8.095,9.595 C0.327,17.362 -0.045,29.958 7.249,38.27 C7.613,38.685 7.572,39.317 7.157,39.682 C6.967,39.848 6.732,39.93 6.498,39.93" id="Fill-516" fill="#26B99A" sketch:type="MSShapeGroup"></path>
            <path d="M26.429,50.497 C25.881,50.497 25.435,50.056 25.429,49.508 C25.423,48.955 25.866,48.503 26.418,48.497 C27.048,48.49 27.689,48.454 28.322,48.389 C28.868,48.349 29.363,48.732 29.419,49.281 C29.476,49.831 29.076,50.322 28.527,50.379 C27.832,50.45 27.13,50.49 26.439,50.497 L26.429,50.497 L26.429,50.497 Z M22.448,50.184 C22.393,50.184 22.336,50.18 22.279,50.171 C21.599,50.055 20.912,49.906 20.237,49.727 C19.703,49.586 19.385,49.039 19.526,48.505 C19.667,47.971 20.214,47.653 20.748,47.794 C21.365,47.957 21.993,48.093 22.614,48.198 C23.159,48.291 23.525,48.807 23.433,49.351 C23.35,49.84 22.927,50.184 22.448,50.184 L22.448,50.184 Z M32.344,49.617 C31.911,49.617 31.512,49.334 31.384,48.897 C31.229,48.367 31.534,47.812 32.063,47.657 C32.668,47.48 33.275,47.272 33.868,47.038 C34.381,46.835 34.962,47.087 35.165,47.599 C35.368,48.113 35.117,48.694 34.603,48.897 C33.954,49.154 33.288,49.383 32.625,49.577 C32.531,49.604 32.436,49.617 32.344,49.617 L32.344,49.617 Z M16.741,48.393 C16.598,48.393 16.453,48.363 16.315,48.299 C15.685,48.002 15.062,47.674 14.466,47.323 C13.991,47.043 13.831,46.43 14.112,45.954 C14.392,45.476 15.004,45.318 15.481,45.599 C16.024,45.919 16.591,46.218 17.167,46.488 C17.666,46.724 17.881,47.319 17.646,47.819 C17.476,48.182 17.116,48.393 16.741,48.393 L16.741,48.393 Z M37.798,47.161 C37.466,47.161 37.141,46.996 36.951,46.693 C36.657,46.225 36.797,45.608 37.265,45.314 C37.8,44.977 38.327,44.611 38.83,44.225 C39.268,43.889 39.895,43.971 40.232,44.41 C40.568,44.848 40.486,45.475 40.048,45.811 C39.496,46.235 38.917,46.638 38.33,47.008 C38.165,47.111 37.98,47.161 37.798,47.161 L37.798,47.161 Z M11.725,45.138 C11.494,45.138 11.261,45.057 11.072,44.894 C10.635,44.517 10.208,44.122 9.793,43.707 C9.403,43.316 9.403,42.683 9.793,42.293 C10.184,41.902 10.817,41.902 11.207,42.293 C11.587,42.673 11.978,43.035 12.379,43.381 C12.797,43.741 12.844,44.373 12.483,44.791 C12.285,45.02 12.006,45.138 11.725,45.138 L11.725,45.138 Z M42.376,43.309 C42.137,43.309 41.897,43.224 41.706,43.051 C41.296,42.681 41.265,42.048 41.635,41.639 C42.061,41.168 42.469,40.673 42.849,40.168 C43.181,39.726 43.808,39.639 44.249,39.969 C44.691,40.301 44.78,40.928 44.448,41.369 C44.032,41.923 43.584,42.465 43.118,42.98 C42.92,43.198 42.649,43.309 42.376,43.309 L42.376,43.309 Z M45.741,38.368 C45.592,38.368 45.441,38.335 45.298,38.265 C44.804,38.019 44.601,37.419 44.846,36.925 C45.125,36.359 45.383,35.772 45.612,35.179 C45.81,34.663 46.391,34.41 46.904,34.604 C47.419,34.803 47.677,35.382 47.478,35.897 C47.227,36.548 46.945,37.192 46.638,37.811 C46.464,38.164 46.11,38.368 45.741,38.368 L45.741,38.368 Z M47.631,32.695 C47.571,32.695 47.509,32.69 47.447,32.679 C46.904,32.577 46.546,32.056 46.647,31.513 C46.763,30.89 46.852,30.254 46.91,29.622 C46.96,29.072 47.446,28.665 47.998,28.719 C48.548,28.77 48.953,29.257 48.901,29.807 C48.837,30.499 48.74,31.196 48.613,31.878 C48.524,32.359 48.104,32.695 47.631,32.695 L47.631,32.695 Z M47.914,26.72 C47.401,26.72 46.964,26.328 46.918,25.807 C46.863,25.176 46.777,24.539 46.665,23.915 C46.567,23.372 46.929,22.851 47.473,22.754 C48.015,22.655 48.536,23.016 48.634,23.561 C48.756,24.244 48.85,24.94 48.911,25.632 C48.96,26.182 48.553,26.667 48.002,26.716 C47.973,26.719 47.943,26.72 47.914,26.72 L47.914,26.72 Z M46.589,20.887 C46.185,20.887 45.804,20.64 45.653,20.238 C45.43,19.644 45.178,19.054 44.902,18.483 C44.662,17.986 44.871,17.389 45.368,17.148 C45.864,16.91 46.463,17.116 46.703,17.614 C47.005,18.238 47.282,18.885 47.525,19.535 C47.72,20.053 47.457,20.629 46.94,20.823 C46.825,20.866 46.706,20.887 46.589,20.887 L46.589,20.887 Z M43.749,15.623 C43.44,15.623 43.136,15.48 42.94,15.213 C42.567,14.701 42.165,14.2 41.746,13.724 C41.381,13.309 41.422,12.677 41.837,12.312 C42.252,11.948 42.884,11.99 43.248,12.403 C43.707,12.925 44.147,13.474 44.556,14.033 C44.881,14.479 44.784,15.104 44.338,15.431 C44.16,15.56 43.954,15.623 43.749,15.623 L43.749,15.623 Z" id="Fill-517" fill="#A4E869" sketch:type="MSShapeGroup"></path>
            <path d="M19.5,44 L10.5,44 C9.948,44 9.5,43.553 9.5,43 C9.5,42.447 9.948,42 10.5,42 L19.5,42 C20.053,42 20.5,42.447 20.5,43 C20.5,43.553 20.053,44 19.5,44" id="Fill-518" fill="#A4E869" sketch:type="MSShapeGroup"></path>
            <path d="M10.5,52 C9.948,52 9.5,51.553 9.5,51 L9.5,43 C9.5,42.447 9.948,42 10.5,42 C11.053,42 11.5,42.447 11.5,43 L11.5,51 C11.5,51.553 11.053,52 10.5,52" id="Fill-519" fill="#A4E869" sketch:type="MSShapeGroup"></path>
            <path d="M38.5,10 L29.5,10 C28.948,10 28.5,9.553 28.5,9 C28.5,8.447 28.948,8 29.5,8 L38.5,8 C39.053,8 39.5,8.447 39.5,9 C39.5,9.553 39.053,10 38.5,10" id="Fill-520" fill="#26B99A" sketch:type="MSShapeGroup"></path>
            <path d="M38.5,10 C37.948,10 37.5,9.553 37.5,9 L37.5,1 C37.5,0.447 37.948,0 38.5,0 C39.053,0 39.5,0.447 39.5,1 L39.5,9 C39.5,9.553 39.053,10 38.5,10" id="Fill-521" fill="#26B99A" sketch:type="MSShapeGroup"></path>
        </g>
    </g>
</svg>