<?xml version="1.0" encoding="UTF-8" standalone="no"?>
<svg width="53px" height="46px" viewBox="0 0 53 46" version="1.1" xmlns="http://www.w3.org/2000/svg" xmlns:xlink="http://www.w3.org/1999/xlink" xmlns:sketch="http://www.bohemiancoding.com/sketch/ns">
    <!-- Generator: Sketch 3.2.2 (9983) - http://www.bohemiancoding.com/sketch -->
    <title>64 - Half Circuit (Flat)</title>
    <desc>Created with Sketch.</desc>
    <defs></defs>
    <g id="Page-1" stroke="none" stroke-width="1" fill="none" fill-rule="evenodd" sketch:type="MSPage">
        <g id="64---Half-Circuit-(Flat)" sketch:type="MSLayerGroup" transform="translate(-1.000000, 0.000000)">
            <path d="M9,24 C8.447,24 8,23.553 8,23 C8,22.303 8.031,21.602 8.094,20.914 C8.144,20.364 8.643,19.953 9.18,20.008 C9.73,20.058 10.136,20.544 10.086,21.094 C10.029,21.722 10,22.363 10,23 C10,23.553 9.553,24 9,24 L9,24 Z M52.971,22.856 C52.442,22.856 52.001,22.442 51.973,21.909 C51.939,21.269 51.878,20.631 51.788,20.009 C51.71,19.462 52.09,18.956 52.637,18.877 C53.184,18.8 53.69,19.179 53.769,19.725 C53.866,20.406 53.934,21.105 53.971,21.804 C53.999,22.355 53.575,22.826 53.024,22.855 C53.006,22.856 52.988,22.856 52.971,22.856 L52.971,22.856 Z M9.809,18.075 C9.72,18.075 9.629,18.063 9.539,18.038 C9.008,17.891 8.696,17.339 8.845,16.807 C9.03,16.138 9.251,15.469 9.498,14.82 C9.695,14.305 10.276,14.046 10.789,14.242 C11.306,14.439 11.563,15.017 11.367,15.533 C11.142,16.124 10.94,16.733 10.77,17.344 C10.647,17.786 10.246,18.075 9.809,18.075 L9.809,18.075 Z M51.856,16.982 C51.438,16.982 51.049,16.719 50.908,16.301 C50.707,15.701 50.475,15.103 50.219,14.524 C49.996,14.019 50.225,13.429 50.729,13.205 C51.239,12.984 51.825,13.212 52.049,13.716 C52.329,14.351 52.583,15.006 52.805,15.664 C52.981,16.187 52.698,16.755 52.175,16.931 C52.069,16.966 51.962,16.982 51.856,16.982 L51.856,16.982 Z M12.187,12.589 C12.01,12.589 11.83,12.542 11.668,12.443 C11.196,12.156 11.046,11.541 11.333,11.069 C11.694,10.475 12.087,9.891 12.499,9.334 C12.828,8.891 13.454,8.797 13.898,9.126 C14.342,9.455 14.435,10.081 14.106,10.525 C13.73,11.033 13.372,11.565 13.042,12.108 C12.853,12.418 12.524,12.589 12.187,12.589 L12.187,12.589 Z M49.196,11.629 C48.877,11.629 48.562,11.477 48.369,11.192 C48.014,10.67 47.628,10.157 47.224,9.666 C46.873,9.239 46.935,8.609 47.36,8.258 C47.788,7.907 48.417,7.968 48.769,8.394 C49.211,8.932 49.633,9.494 50.021,10.065 C50.333,10.522 50.215,11.144 49.759,11.455 C49.586,11.572 49.39,11.629 49.196,11.629 L49.196,11.629 Z M15.957,7.946 C15.69,7.946 15.425,7.84 15.227,7.63 C14.85,7.227 14.87,6.595 15.273,6.217 C15.777,5.743 16.312,5.286 16.86,4.858 C17.296,4.517 17.924,4.595 18.264,5.031 C18.604,5.467 18.526,6.095 18.091,6.435 C17.59,6.826 17.102,7.243 16.641,7.676 C16.448,7.856 16.202,7.946 15.957,7.946 L15.957,7.946 Z M45.188,7.186 C44.961,7.186 44.732,7.109 44.544,6.95 C44.059,6.54 43.55,6.148 43.033,5.787 C42.58,5.471 42.471,4.847 42.787,4.394 C43.104,3.941 43.727,3.831 44.18,4.148 C44.746,4.545 45.303,4.974 45.835,5.423 C46.257,5.778 46.31,6.409 45.953,6.832 C45.756,7.065 45.474,7.186 45.188,7.186 L45.188,7.186 Z M20.835,4.484 C20.475,4.484 20.126,4.289 19.947,3.947 C19.692,3.458 19.882,2.853 20.371,2.598 C20.984,2.277 21.622,1.98 22.266,1.717 C22.773,1.504 23.361,1.75 23.57,2.262 C23.78,2.772 23.536,3.356 23.025,3.566 C22.438,3.807 21.856,4.078 21.297,4.371 C21.149,4.448 20.991,4.484 20.835,4.484 L20.835,4.484 Z M40.14,3.982 C40.001,3.982 39.86,3.954 39.726,3.892 C39.143,3.627 38.547,3.387 37.955,3.179 C37.434,2.996 37.16,2.426 37.343,1.904 C37.525,1.384 38.096,1.105 38.617,1.292 C39.265,1.518 39.917,1.781 40.556,2.072 C41.058,2.302 41.279,2.894 41.051,3.397 C40.883,3.766 40.519,3.982 40.14,3.982 L40.14,3.982 Z M26.461,2.469 C25.998,2.469 25.582,2.145 25.483,1.674 C25.37,1.134 25.716,0.603 26.257,0.49 C26.933,0.349 27.627,0.235 28.318,0.154 C28.872,0.091 29.364,0.484 29.428,1.031 C29.492,1.58 29.1,2.076 28.551,2.141 C27.919,2.215 27.285,2.318 26.667,2.447 C26.598,2.462 26.529,2.469 26.461,2.469 L26.461,2.469 Z M34.415,2.264 C34.364,2.264 34.312,2.26 34.261,2.252 C33.633,2.154 32.995,2.084 32.363,2.044 C31.811,2.009 31.394,1.533 31.429,0.982 C31.464,0.431 31.948,0.016 32.49,0.048 C33.183,0.092 33.881,0.169 34.567,0.275 C35.113,0.36 35.487,0.871 35.402,1.417 C35.325,1.911 34.899,2.264 34.415,2.264 L34.415,2.264 Z" id="Fill-1" fill="#FF5364" sketch:type="MSShapeGroup"></path>
            <path d="M31,46 C18.317,46 8,35.682 8,23 C8,22.447 8.447,22 9,22 C9.553,22 10,22.447 10,23 C10,34.579 19.421,44 31,44 C42.579,44 52,34.579 52,23 C52,22.447 52.447,22 53,22 C53.553,22 54,22.447 54,23 C54,35.682 43.683,46 31,46" id="Fill-493" fill="#546A79" sketch:type="MSShapeGroup"></path>
            <path d="M2,31 C1.744,31 1.488,30.902 1.293,30.707 C0.902,30.316 0.902,29.683 1.293,29.293 L8.293,22.293 C8.684,21.902 9.316,21.902 9.707,22.293 C10.098,22.683 10.098,23.316 9.707,23.707 L2.707,30.707 C2.512,30.902 2.256,31 2,31" id="Fill-494" fill="#546A79" sketch:type="MSShapeGroup"></path>
            <path d="M16,31 C15.744,31 15.488,30.902 15.293,30.707 L8.293,23.707 C7.902,23.316 7.902,22.683 8.293,22.293 C8.684,21.902 9.316,21.902 9.707,22.293 L16.707,29.293 C17.098,29.683 17.098,30.316 16.707,30.707 C16.512,30.902 16.256,31 16,31" id="Fill-495" fill="#546A79" sketch:type="MSShapeGroup"></path>
        </g>
    </g>
</svg>