<?xml version="1.0" encoding="UTF-8" standalone="no"?>
<svg width="59px" height="58px" viewBox="0 0 59 58" version="1.1" xmlns="http://www.w3.org/2000/svg" xmlns:xlink="http://www.w3.org/1999/xlink" xmlns:sketch="http://www.bohemiancoding.com/sketch/ns">
    <!-- Generator: Sketch 3.2.2 (9983) - http://www.bohemiancoding.com/sketch -->
    <title>114 - Horizontal Cycle (Flat)</title>
    <desc>Created with Sketch.</desc>
    <defs></defs>
    <g id="Page-1" stroke="none" stroke-width="1" fill="none" fill-rule="evenodd" sketch:type="MSPage">
        <g id="114---Horizontal-Cycle-(Flat)" sketch:type="MSLayerGroup">
            <path d="M8,45 L6,45 L6,28 L23,28 L23,30 L8,30 L8,45" id="Fill-685" fill="#546A79" sketch:type="MSShapeGroup"></path>
            <path d="M53,30 L35,30 L35,28 L51,28 L51,13 L53,13 L53,30" id="Fill-686" fill="#546A79" sketch:type="MSShapeGroup"></path>
            <path d="M1,51 C1,47.686 3.686,45 7,45 C10.314,45 13,47.686 13,51 C13,54.314 10.314,57 7,57 C3.686,57 1,54.314 1,51" id="Fill-894" fill="#F0785A" sketch:type="MSShapeGroup"></path>
            <path d="M7,58 C3.141,58 0,54.859 0,51 C0,47.141 3.141,44 7,44 C10.859,44 14,47.141 14,51 C14,54.859 10.859,58 7,58 L7,58 Z M7,46 C4.243,46 2,48.243 2,51 C2,53.757 4.243,56 7,56 C9.757,56 12,53.757 12,51 C12,48.243 9.757,46 7,46 L7,46 Z" id="Fill-895" fill="#F0785A" sketch:type="MSShapeGroup"></path>
            <path d="M23,29 C23,25.686 25.686,23 29,23 C32.314,23 35,25.686 35,29 C35,32.314 32.314,35 29,35 C25.686,35 23,32.314 23,29" id="Fill-896" fill="#F29C1F" sketch:type="MSShapeGroup"></path>
            <path d="M29,36 C25.141,36 22,32.859 22,29 C22,25.141 25.141,22 29,22 C32.859,22 36,25.141 36,29 C36,32.859 32.859,36 29,36 L29,36 Z M29,24 C26.243,24 24,26.243 24,29 C24,31.757 26.243,34 29,34 C31.757,34 34,31.757 34,29 C34,26.243 31.757,24 29,24 L29,24 Z" id="Fill-897" fill="#F29C1F" sketch:type="MSShapeGroup"></path>
            <path d="M46,7 C46,3.686 48.686,1 52,1 C55.314,1 58,3.686 58,7 C58,10.314 55.314,13 52,13 C48.686,13 46,10.314 46,7" id="Fill-898" fill="#F3D55B" sketch:type="MSShapeGroup"></path>
            <path d="M52,14 C48.141,14 45,10.859 45,7 C45,3.141 48.141,0 52,0 C55.859,0 59,3.141 59,7 C59,10.859 55.859,14 52,14 L52,14 Z M52,2 C49.243,2 47,4.243 47,7 C47,9.757 49.243,12 52,12 C54.757,12 57,9.757 57,7 C57,4.243 54.757,2 52,2 L52,2 Z" id="Fill-899" fill="#F3D55B" sketch:type="MSShapeGroup"></path>
        </g>
    </g>
</svg>