<?xml version="1.0" encoding="UTF-8" standalone="no"?>
<svg width="60px" height="39px" viewBox="0 0 60 39" version="1.1" xmlns="http://www.w3.org/2000/svg" xmlns:xlink="http://www.w3.org/1999/xlink" xmlns:sketch="http://www.bohemiancoding.com/sketch/ns">
    <!-- Generator: Sketch 3.2.2 (9983) - http://www.bohemiancoding.com/sketch -->
    <title>138 - Horizontal Both Ways (Flat)</title>
    <desc>Created with Sketch.</desc>
    <defs></defs>
    <g id="Page-1" stroke="none" stroke-width="1" fill="none" fill-rule="evenodd" sketch:type="MSPage">
        <g id="138---Horizontal-Both-Ways-(Flat)" sketch:type="MSLayerGroup" transform="translate(-1.000000, -1.000000)" fill="#8697CB">
            <path d="M40,15 L2,15 C1.448,15 1,14.552 1,14 C1,13.448 1.448,13 2,13 L40,13 C40.552,13 41,13.448 41,14 C41,14.552 40.552,15 40,15" id="Fill-937" sketch:type="MSShapeGroup"></path>
            <path d="M14,27 C13.744,27 13.488,26.902 13.293,26.707 L1.293,14.707 C0.902,14.316 0.902,13.683 1.293,13.293 C1.684,12.902 2.316,12.902 2.707,13.293 L14.707,25.293 C15.098,25.683 15.098,26.316 14.707,26.707 C14.512,26.902 14.256,27 14,27" id="Fill-938" sketch:type="MSShapeGroup"></path>
            <path d="M2,15 C1.744,15 1.488,14.902 1.293,14.707 C0.902,14.316 0.902,13.683 1.293,13.293 L13.293,1.293 C13.684,0.902 14.316,0.902 14.707,1.293 C15.098,1.683 15.098,2.316 14.707,2.707 L2.707,14.707 C2.512,14.902 2.256,15 2,15" id="Fill-939" sketch:type="MSShapeGroup"></path>
            <path d="M2,15 C1.744,15 1.488,14.902 1.293,14.707 C0.902,14.316 0.902,13.683 1.293,13.293 L13.293,1.293 C13.684,0.902 14.316,0.902 14.707,1.293 C15.098,1.683 15.098,2.316 14.707,2.707 L2.707,14.707 C2.512,14.902 2.256,15 2,15" id="Fill-940" sketch:type="MSShapeGroup"></path>
            <path d="M60,28 L22,28 C21.448,28 21,27.552 21,27 C21,26.448 21.448,26 22,26 L60,26 C60.552,26 61,26.448 61,27 C61,27.552 60.552,28 60,28" id="Fill-941" sketch:type="MSShapeGroup"></path>
            <path d="M60,28 C59.744,28 59.488,27.902 59.293,27.707 L47.293,15.707 C46.902,15.316 46.902,14.684 47.293,14.293 C47.684,13.902 48.316,13.902 48.707,14.293 L60.707,26.293 C61.098,26.684 61.098,27.316 60.707,27.707 C60.512,27.902 60.256,28 60,28" id="Fill-942" sketch:type="MSShapeGroup"></path>
            <path d="M48,40 C47.744,40 47.488,39.902 47.293,39.707 C46.902,39.316 46.902,38.684 47.293,38.293 L59.293,26.293 C59.684,25.902 60.316,25.902 60.707,26.293 C61.098,26.684 61.098,27.316 60.707,27.707 L48.707,39.707 C48.512,39.902 48.256,40 48,40" id="Fill-943" sketch:type="MSShapeGroup"></path>
            <path d="M48,40 C47.744,40 47.488,39.902 47.293,39.707 C46.902,39.316 46.902,38.684 47.293,38.293 L59.293,26.293 C59.684,25.902 60.316,25.902 60.707,26.293 C61.098,26.684 61.098,27.316 60.707,27.707 L48.707,39.707 C48.512,39.902 48.256,40 48,40" id="Fill-944" sketch:type="MSShapeGroup"></path>
        </g>
    </g>
</svg>