<?xml version="1.0" encoding="UTF-8" standalone="no"?>
<svg width="54px" height="48px" viewBox="0 0 54 48" version="1.1" xmlns="http://www.w3.org/2000/svg" xmlns:xlink="http://www.w3.org/1999/xlink" xmlns:sketch="http://www.bohemiancoding.com/sketch/ns">
    <!-- Generator: Sketch 3.2.2 (9983) - http://www.bohemiancoding.com/sketch -->
    <title>102 - Import In (Flat)</title>
    <desc>Created with Sketch.</desc>
    <defs></defs>
    <g id="Page-1" stroke="none" stroke-width="1" fill="none" fill-rule="evenodd" sketch:type="MSPage">
        <g id="102---Import-In-(Flat)" sketch:type="MSLayerGroup">
            <path d="M47,24 C47,36.702 36.703,47 24,47 C11.297,47 1,36.702 1,24 C1,11.297 11.297,1 24,1 C36.703,1 47,11.297 47,24" id="Fill-822" fill="#CC66A1" sketch:type="MSShapeGroup"></path>
            <path d="M24,48 C10.767,48 0,37.233 0,24 C0,10.766 10.767,0 24,0 C37.233,0 48,10.766 48,24 C48,37.233 37.233,48 24,48 L24,48 Z M24,2 C11.869,2 2,11.869 2,24 C2,36.131 11.869,46 24,46 C36.131,46 46,36.131 46,24 C46,11.869 36.131,2 24,2 L24,2 Z" id="Fill-823" fill="#CC66A1" sketch:type="MSShapeGroup"></path>
            <path d="M53,36 L22,36 C21.447,36 21,35.553 21,35 C21,34.447 21.447,34 22,34 L53,34 C53.553,34 54,34.447 54,35 C54,35.553 53.553,36 53,36" id="Fill-825" fill="#99527E" sketch:type="MSShapeGroup"></path>
            <path d="M28,42 C27.744,42 27.488,41.902 27.293,41.707 L21.293,35.707 C20.902,35.316 20.902,34.683 21.293,34.293 C21.684,33.902 22.316,33.902 22.707,34.293 L28.707,40.293 C29.098,40.683 29.098,41.316 28.707,41.707 C28.512,41.902 28.256,42 28,42" id="Fill-826" fill="#99527E" sketch:type="MSShapeGroup"></path>
            <path d="M22,36 C21.744,36 21.488,35.902 21.293,35.707 C20.902,35.316 20.902,34.683 21.293,34.293 L27.293,28.293 C27.684,27.902 28.316,27.902 28.707,28.293 C29.098,28.683 29.098,29.316 28.707,29.707 L22.707,35.707 C22.512,35.902 22.256,36 22,36" id="Fill-827" fill="#99527E" sketch:type="MSShapeGroup"></path>
            <path d="M53,16 L22,16 C21.447,16 21,15.552 21,15 C21,14.447 21.447,14 22,14 L53,14 C53.553,14 54,14.447 54,15 C54,15.552 53.553,16 53,16" id="Fill-828" fill="#99527E" sketch:type="MSShapeGroup"></path>
            <path d="M28,22 C27.744,22 27.488,21.902 27.293,21.707 L21.293,15.707 C20.902,15.316 20.902,14.683 21.293,14.293 C21.684,13.902 22.316,13.902 22.707,14.293 L28.707,20.293 C29.098,20.683 29.098,21.316 28.707,21.707 C28.512,21.902 28.256,22 28,22" id="Fill-829" fill="#99527E" sketch:type="MSShapeGroup"></path>
            <path d="M22,16 C21.744,16 21.488,15.902 21.293,15.707 C20.902,15.316 20.902,14.683 21.293,14.293 L27.293,8.293 C27.684,7.902 28.316,7.902 28.707,8.293 C29.098,8.683 29.098,9.316 28.707,9.707 L22.707,15.707 C22.512,15.902 22.256,16 22,16" id="Fill-830" fill="#99527E" sketch:type="MSShapeGroup"></path>
        </g>
    </g>
</svg>