<?xml version="1.0" encoding="UTF-8" standalone="no"?>
<svg width="54px" height="54px" viewBox="0 0 54 54" version="1.1" xmlns="http://www.w3.org/2000/svg" xmlns:xlink="http://www.w3.org/1999/xlink" xmlns:sketch="http://www.bohemiancoding.com/sketch/ns">
    <!-- Generator: Sketch 3.2.2 (9983) - http://www.bohemiancoding.com/sketch -->
    <title>99 - Left (Flat)</title>
    <desc>Created with Sketch.</desc>
    <defs></defs>
    <g id="Page-1" stroke="none" stroke-width="1" fill="none" fill-rule="evenodd" sketch:type="MSPage">
        <g id="99---Left-(Flat)" sketch:type="MSLayerGroup">
            <path d="M1,1 L53,1 L53,53 L1,53 L1,1 Z" id="Fill-350" fill="#AD4038" sketch:type="MSShapeGroup"></path>
            <path d="M0,0 L54,0 L54,54 L0,54 L0,0 Z M2,52 L52,52 L52,2 L2,2 L2,52 Z" id="Fill-351" fill="#AD4038" sketch:type="MSShapeGroup"></path>
            <path d="M40,28 L14,28 C13.448,28 13,27.553 13,27 C13,26.447 13.448,26 14,26 L40,26 C40.552,26 41,26.447 41,27 C41,27.553 40.552,28 40,28" id="Fill-352" fill="#FFFFFF" sketch:type="MSShapeGroup"></path>
            <path d="M22.293,37.707 L11.586,27 L22.293,16.293 L23.707,17.707 L14.414,27 L23.707,36.293 L22.293,37.707" id="Fill-353" fill="#FFFFFF" sketch:type="MSShapeGroup"></path>
        </g>
    </g>
</svg>