<?xml version="1.0" encoding="UTF-8" standalone="no"?>
<svg width="54px" height="34px" viewBox="0 0 54 34" version="1.1" xmlns="http://www.w3.org/2000/svg" xmlns:xlink="http://www.w3.org/1999/xlink" xmlns:sketch="http://www.bohemiancoding.com/sketch/ns">
    <!-- Generator: Sketch 3.2.2 (9983) - http://www.bohemiancoding.com/sketch -->
    <title>156 - Move to Right (Flat)</title>
    <desc>Created with Sketch.</desc>
    <defs></defs>
    <g id="Page-1" stroke="none" stroke-width="1" fill="none" fill-rule="evenodd" sketch:type="MSPage">
        <g id="156---Move-to-Right-(Flat)" sketch:type="MSLayerGroup" transform="translate(0.000000, -1.000000)" fill="#57B1E3">
            <path d="M53,19 L8,19 C7.448,19 7,18.552 7,18 C7,17.448 7.448,17 8,17 L53,17 C53.553,17 54,17.448 54,18 C54,18.552 53.553,19 53,19" id="Fill-122" sketch:type="MSShapeGroup"></path>
            <path d="M8,19 C7.744,19 7.488,18.902 7.293,18.707 C6.902,18.316 6.902,17.683 7.293,17.293 L23.293,1.293 C23.684,0.902 24.316,0.902 24.707,1.293 C25.098,1.683 25.098,2.316 24.707,2.707 L8.707,18.707 C8.512,18.902 8.256,19 8,19" id="Fill-123" sketch:type="MSShapeGroup"></path>
            <path d="M24,35 C23.744,35 23.488,34.902 23.293,34.707 L7.293,18.707 C6.902,18.316 6.902,17.683 7.293,17.293 C7.684,16.902 8.316,16.902 8.707,17.293 L24.707,33.293 C25.098,33.683 25.098,34.316 24.707,34.707 C24.512,34.902 24.256,35 24,35" id="Fill-124" sketch:type="MSShapeGroup"></path>
            <path d="M1,35 C0.448,35 0,34.552 0,34 L0,2 C0,1.448 0.448,1 1,1 C1.552,1 2,1.448 2,2 L2,34 C2,34.552 1.552,35 1,35" id="Fill-125" sketch:type="MSShapeGroup"></path>
        </g>
    </g>
</svg>