<?xml version="1.0" encoding="UTF-8" standalone="no"?>
<svg width="34px" height="54px" viewBox="0 0 34 54" version="1.1" xmlns="http://www.w3.org/2000/svg" xmlns:xlink="http://www.w3.org/1999/xlink" xmlns:sketch="http://www.bohemiancoding.com/sketch/ns">
    <!-- Generator: Sketch 3.2.2 (9983) - http://www.bohemiancoding.com/sketch -->
    <title>158 - Move to Top (Flat)</title>
    <desc>Created with Sketch.</desc>
    <defs></defs>
    <g id="Page-1" stroke="none" stroke-width="1" fill="none" fill-rule="evenodd" sketch:type="MSPage">
        <g id="158---Move-to-Top-(Flat)" sketch:type="MSLayerGroup" transform="translate(-1.000000, 0.000000)" fill="#57B1E3">
            <path d="M18,54 C17.448,54 17,53.552 17,53 L17,8 C17,7.448 17.448,7 18,7 C18.552,7 19,7.448 19,8 L19,53 C19,53.552 18.552,54 18,54" id="Fill-83" sketch:type="MSShapeGroup"></path>
            <path d="M2,25 C1.744,25 1.488,24.902 1.293,24.707 C0.902,24.316 0.902,23.683 1.293,23.293 L17.293,7.293 C17.684,6.902 18.316,6.902 18.707,7.293 C19.098,7.683 19.098,8.316 18.707,8.707 L2.707,24.707 C2.512,24.902 2.256,25 2,25" id="Fill-84" sketch:type="MSShapeGroup"></path>
            <path d="M34,25 C33.744,25 33.488,24.902 33.293,24.707 L17.293,8.707 C16.902,8.316 16.902,7.683 17.293,7.293 C17.684,6.902 18.316,6.902 18.707,7.293 L34.707,23.293 C35.098,23.683 35.098,24.316 34.707,24.707 C34.512,24.902 34.256,25 34,25" id="Fill-116" sketch:type="MSShapeGroup"></path>
            <path d="M34,2 L2,2 C1.448,2 1,1.552 1,1 C1,0.448 1.448,0 2,0 L34,0 C34.552,0 35,0.448 35,1 C35,1.552 34.552,2 34,2" id="Fill-117" sketch:type="MSShapeGroup"></path>
        </g>
    </g>
</svg>