<?xml version="1.0" encoding="UTF-8" standalone="no"?>
<svg width="60px" height="60px" viewBox="0 0 60 60" version="1.1" xmlns="http://www.w3.org/2000/svg" xmlns:xlink="http://www.w3.org/1999/xlink" xmlns:sketch="http://www.bohemiancoding.com/sketch/ns">
    <!-- Generator: Sketch 3.2.2 (9983) - http://www.bohemiancoding.com/sketch -->
    <title>142 - Move Object (Flat)</title>
    <desc>Created with Sketch.</desc>
    <defs></defs>
    <g id="Page-1" stroke="none" stroke-width="1" fill="none" fill-rule="evenodd" sketch:type="MSPage">
        <g id="142---Move-Object-(Flat)" sketch:type="MSLayerGroup" transform="translate(-1.000000, -1.000000)">
            <path d="M31,61 C30.447,61 30,60.552 30,60 L30,39 C30,38.448 30.447,38 31,38 C31.553,38 32,38.448 32,39 L32,60 C32,60.552 31.553,61 31,61" id="Fill-198" fill="#26B99A" sketch:type="MSShapeGroup"></path>
            <path d="M31,24 C30.447,24 30,23.552 30,23 L30,2 C30,1.448 30.447,1 31,1 C31.553,1 32,1.448 32,2 L32,23 C32,23.552 31.553,24 31,24" id="Fill-199" fill="#26B99A" sketch:type="MSShapeGroup"></path>
            <path d="M41,13 C40.744,13 40.488,12.902 40.293,12.707 L30.293,2.707 C29.902,2.316 29.902,1.683 30.293,1.293 C30.684,0.902 31.316,0.902 31.707,1.293 L41.707,11.293 C42.098,11.683 42.098,12.316 41.707,12.707 C41.512,12.902 41.256,13 41,13" id="Fill-200" fill="#26B99A" sketch:type="MSShapeGroup"></path>
            <path d="M21,13 C20.744,13 20.488,12.902 20.293,12.707 C19.902,12.316 19.902,11.683 20.293,11.293 L30.293,1.293 C30.684,0.902 31.316,0.902 31.707,1.293 C32.098,1.683 32.098,2.316 31.707,2.707 L21.707,12.707 C21.512,12.902 21.256,13 21,13" id="Fill-201" fill="#26B99A" sketch:type="MSShapeGroup"></path>
            <path d="M31,61 C30.744,61 30.488,60.902 30.293,60.707 L20.293,50.707 C19.902,50.316 19.902,49.683 20.293,49.293 C20.684,48.902 21.316,48.902 21.707,49.293 L31.707,59.293 C32.098,59.683 32.098,60.316 31.707,60.707 C31.512,60.902 31.256,61 31,61" id="Fill-202" fill="#26B99A" sketch:type="MSShapeGroup"></path>
            <path d="M31,61 C30.744,61 30.488,60.902 30.293,60.707 C29.902,60.316 29.902,59.683 30.293,59.293 L40.293,49.293 C40.684,48.902 41.316,48.902 41.707,49.293 C42.098,49.683 42.098,50.316 41.707,50.707 L31.707,60.707 C31.512,60.902 31.256,61 31,61" id="Fill-203" fill="#26B99A" sketch:type="MSShapeGroup"></path>
            <path d="M23,32 L2,32 C1.447,32 1,31.552 1,31 C1,30.448 1.447,30 2,30 L23,30 C23.553,30 24,30.448 24,31 C24,31.552 23.553,32 23,32" id="Fill-204" fill="#26B99A" sketch:type="MSShapeGroup"></path>
            <path d="M60,32 L39,32 C38.447,32 38,31.552 38,31 C38,30.448 38.447,30 39,30 L60,30 C60.553,30 61,30.448 61,31 C61,31.552 60.553,32 60,32" id="Fill-205" fill="#26B99A" sketch:type="MSShapeGroup"></path>
            <path d="M50,42 C49.744,42 49.488,41.902 49.293,41.707 C48.902,41.316 48.902,40.683 49.293,40.293 L59.293,30.293 C59.684,29.902 60.316,29.902 60.707,30.293 C61.098,30.684 61.098,31.316 60.707,31.707 L50.707,41.707 C50.512,41.902 50.256,42 50,42" id="Fill-206" fill="#26B99A" sketch:type="MSShapeGroup"></path>
            <path d="M60,32 C59.744,32 59.488,31.902 59.293,31.707 L49.293,21.707 C48.902,21.316 48.902,20.683 49.293,20.293 C49.684,19.902 50.316,19.902 50.707,20.293 L60.707,30.293 C61.098,30.684 61.098,31.316 60.707,31.707 C60.512,31.902 60.256,32 60,32" id="Fill-207" fill="#26B99A" sketch:type="MSShapeGroup"></path>
            <path d="M2,32 C1.744,32 1.488,31.902 1.293,31.707 C0.902,31.316 0.902,30.684 1.293,30.293 L11.293,20.293 C11.684,19.902 12.316,19.902 12.707,20.293 C13.098,20.683 13.098,21.316 12.707,21.707 L2.707,31.707 C2.512,31.902 2.256,32 2,32" id="Fill-208" fill="#26B99A" sketch:type="MSShapeGroup"></path>
            <path d="M12,42 C11.744,42 11.488,41.902 11.293,41.707 L1.293,31.707 C0.902,31.316 0.902,30.684 1.293,30.293 C1.684,29.902 2.316,29.902 2.707,30.293 L12.707,40.293 C13.098,40.683 13.098,41.316 12.707,41.707 C12.512,41.902 12.256,42 12,42" id="Fill-209" fill="#26B99A" sketch:type="MSShapeGroup"></path>
            <path d="M31,39 L31,39 C26.582,39 23,35.418 23,31 C23,26.582 26.582,23 31,23 C35.418,23 39,26.582 39,31 C39,35.418 35.418,39 31,39" id="Fill-210" fill="#B1E97C" sketch:type="MSShapeGroup"></path>
            <path d="M31,40 C26.037,40 22,35.962 22,31 C22,26.037 26.037,22 31,22 C35.963,22 40,26.037 40,31 C40,35.962 35.963,40 31,40 L31,40 Z M31,24 C27.141,24 24,27.14 24,31 C24,34.86 27.141,38 31,38 C34.859,38 38,34.86 38,31 C38,27.14 34.859,24 31,24 L31,24 Z" id="Fill-211" fill="#B1E97C" sketch:type="MSShapeGroup"></path>
        </g>
    </g>
</svg>