<?xml version="1.0" encoding="UTF-8" standalone="no"?>
<svg width="56px" height="54px" viewBox="0 0 56 54" version="1.1" xmlns="http://www.w3.org/2000/svg" xmlns:xlink="http://www.w3.org/1999/xlink" xmlns:sketch="http://www.bohemiancoding.com/sketch/ns">
    <!-- Generator: Sketch 3.2.2 (9983) - http://www.bohemiancoding.com/sketch -->
    <title>112 - Multiply and Expand (Flat)</title>
    <desc>Created with Sketch.</desc>
    <defs></defs>
    <g id="Page-1" stroke="none" stroke-width="1" fill="none" fill-rule="evenodd" sketch:type="MSPage">
        <g id="112---Multiply-and-Expand-(Flat)" sketch:type="MSLayerGroup">
            <path d="M27,27 L29,27 L29,41 L27,41 L27,27 Z" id="Fill-27" fill="#546A79" sketch:type="MSShapeGroup"></path>
            <path d="M28,29.414 L0.293,1.707 L1.707,0.293 L28,26.586 L54.293,0.293 L55.707,1.707 L28,29.414" id="Fill-28" fill="#546A79" sketch:type="MSShapeGroup"></path>
            <path d="M27,6 L29,6 L29,28 L27,28 L27,6 Z" id="Fill-29" fill="#546A79" sketch:type="MSShapeGroup"></path>
            <path d="M55,2 L48,2 C47.447,2 47,1.553 47,1 C47,0.447 47.447,0 48,0 L55,0 C55.553,0 56,0.447 56,1 C56,1.553 55.553,2 55,2" id="Fill-30" fill="#546A79" sketch:type="MSShapeGroup"></path>
            <path d="M55,9 C54.447,9 54,8.552 54,8 L54,1 C54,0.447 54.447,0 55,0 C55.553,0 56,0.447 56,1 L56,8 C56,8.552 55.553,9 55,9" id="Fill-31" fill="#546A79" sketch:type="MSShapeGroup"></path>
            <path d="M1,9 C0.447,9 0,8.552 0,8 L0,1 C0,0.447 0.447,0 1,0 C1.553,0 2,0.447 2,1 L2,8 C2,8.552 1.553,9 1,9" id="Fill-32" fill="#546A79" sketch:type="MSShapeGroup"></path>
            <path d="M8,2 L1,2 C0.447,2 0,1.553 0,1 C0,0.447 0.447,0 1,0 L8,0 C8.553,0 9,0.447 9,1 C9,1.553 8.553,2 8,2" id="Fill-33" fill="#546A79" sketch:type="MSShapeGroup"></path>
            <path d="M21,14 C20.744,14 20.488,13.902 20.293,13.707 C19.902,13.316 19.902,12.683 20.293,12.293 L27.293,5.293 C27.684,4.902 28.316,4.902 28.707,5.293 C29.098,5.683 29.098,6.316 28.707,6.707 L21.707,13.707 C21.512,13.902 21.256,14 21,14" id="Fill-34" fill="#546A79" sketch:type="MSShapeGroup"></path>
            <path d="M35,14 C34.744,14 34.488,13.902 34.293,13.707 L27.293,6.707 C26.902,6.316 26.902,5.683 27.293,5.293 C27.684,4.902 28.316,4.902 28.707,5.293 L35.707,12.293 C36.098,12.683 36.098,13.316 35.707,13.707 C35.512,13.902 35.256,14 35,14" id="Fill-35" fill="#546A79" sketch:type="MSShapeGroup"></path>
            <path d="M22,47 C22,43.686 24.686,41 28,41 C31.314,41 34,43.686 34,47 C34,50.314 31.314,53 28,53 C24.686,53 22,50.314 22,47" id="Fill-687" fill="#F18D46" sketch:type="MSShapeGroup"></path>
            <path d="M28,54 C24.141,54 21,50.859 21,47 C21,43.141 24.141,40 28,40 C31.859,40 35,43.141 35,47 C35,50.859 31.859,54 28,54 L28,54 Z M28,42 C25.243,42 23,44.243 23,47 C23,49.757 25.243,52 28,52 C30.757,52 33,49.757 33,47 C33,44.243 30.757,42 28,42 L28,42 Z" id="Fill-688" fill="#F18D46" sketch:type="MSShapeGroup"></path>
        </g>
    </g>
</svg>