<?xml version="1.0" encoding="UTF-8" standalone="no"?>
<svg width="46px" height="58px" viewBox="0 0 46 58" version="1.1" xmlns="http://www.w3.org/2000/svg" xmlns:xlink="http://www.w3.org/1999/xlink" xmlns:sketch="http://www.bohemiancoding.com/sketch/ns">
    <!-- Generator: Sketch 3.2.2 (9983) - http://www.bohemiancoding.com/sketch -->
    <title>130 - Multiply Object (Flat)</title>
    <desc>Created with Sketch.</desc>
    <defs></defs>
    <g id="Page-1" stroke="none" stroke-width="1" fill="none" fill-rule="evenodd" sketch:type="MSPage">
        <g id="130---Multiply-Object-(Flat)" sketch:type="MSLayerGroup" transform="translate(-1.000000, 0.000000)">
            <path d="M14,7 C14,10.314 11.314,13 8,13 C4.686,13 2,10.314 2,7 C2,3.686 4.686,1 8,1 C11.314,1 14,3.686 14,7" id="Fill-9" fill="#7D6599" sketch:type="MSShapeGroup"></path>
            <path d="M8,14 C4.14,14 1,10.859 1,7 C1,3.141 4.14,0 8,0 C11.86,0 15,3.141 15,7 C15,10.859 11.86,14 8,14 L8,14 Z M8,2 C5.243,2 3,4.243 3,7 C3,9.757 5.243,12 8,12 C10.757,12 13,9.757 13,7 C13,4.243 10.757,2 8,2 L8,2 Z" id="Fill-10" fill="#7D6599" sketch:type="MSShapeGroup"></path>
            <path d="M46,7 C46,10.314 43.314,13 40,13 C36.686,13 34,10.314 34,7 C34,3.686 36.686,1 40,1 C43.314,1 46,3.686 46,7" id="Fill-11" fill="#CC66A1" sketch:type="MSShapeGroup"></path>
            <path d="M40,14 C36.14,14 33,10.859 33,7 C33,3.141 36.14,0 40,0 C43.86,0 47,3.141 47,7 C47,10.859 43.86,14 40,14 L40,14 Z M40,2 C37.243,2 35,4.243 35,7 C35,9.757 37.243,12 40,12 C42.757,12 45,9.757 45,7 C45,4.243 42.757,2 40,2 L40,2 Z" id="Fill-12" fill="#CC66A1" sketch:type="MSShapeGroup"></path>
            <path d="M7,12 L9,12 L9,45 L7,45 L7,12 Z" id="Fill-238" fill="#546A79" sketch:type="MSShapeGroup"></path>
            <path d="M9,45 L7,45 C7,35.626 14.626,28 24,28 C32.271,28 39,21.271 39,13 L41,13 C41,22.374 33.374,30 24,30 C15.729,30 9,36.729 9,45" id="Fill-239" fill="#546A79" sketch:type="MSShapeGroup"></path>
            <path d="M2,20 C1.744,20 1.488,19.902 1.293,19.707 C0.902,19.316 0.902,18.683 1.293,18.293 L7.293,12.293 C7.684,11.902 8.316,11.902 8.707,12.293 C9.098,12.683 9.098,13.316 8.707,13.707 L2.707,19.707 C2.512,19.902 2.256,20 2,20" id="Fill-252" fill="#546A79" sketch:type="MSShapeGroup"></path>
            <path d="M14,20 C13.744,20 13.488,19.902 13.293,19.707 L7.293,13.707 C6.902,13.316 6.902,12.683 7.293,12.293 C7.684,11.902 8.316,11.902 8.707,12.293 L14.707,18.293 C15.098,18.683 15.098,19.316 14.707,19.707 C14.512,19.902 14.256,20 14,20" id="Fill-253" fill="#546A79" sketch:type="MSShapeGroup"></path>
            <path d="M34,20 C33.744,20 33.488,19.902 33.293,19.707 C32.902,19.316 32.902,18.683 33.293,18.293 L39.293,12.293 C39.684,11.902 40.316,11.902 40.707,12.293 C41.098,12.683 41.098,13.316 40.707,13.707 L34.707,19.707 C34.512,19.902 34.256,20 34,20" id="Fill-257" fill="#546A79" sketch:type="MSShapeGroup"></path>
            <path d="M46,20 C45.744,20 45.488,19.902 45.293,19.707 L39.293,13.707 C38.902,13.316 38.902,12.683 39.293,12.293 C39.684,11.902 40.316,11.902 40.707,12.293 L46.707,18.293 C47.098,18.683 47.098,19.316 46.707,19.707 C46.512,19.902 46.256,20 46,20" id="Fill-258" fill="#546A79" sketch:type="MSShapeGroup"></path>
            <path d="M14,51 C14,54.314 11.314,57 8,57 C4.686,57 2,54.314 2,51 C2,47.686 4.686,45 8,45 C11.314,45 14,47.686 14,51" id="Fill-846" fill="#687492" sketch:type="MSShapeGroup"></path>
            <path d="M8,58 C4.14,58 1,54.859 1,51 C1,47.141 4.14,44 8,44 C11.86,44 15,47.141 15,51 C15,54.859 11.86,58 8,58 L8,58 Z M8,46 C5.243,46 3,48.243 3,51 C3,53.757 5.243,56 8,56 C10.757,56 13,53.757 13,51 C13,48.243 10.757,46 8,46 L8,46 Z" id="Fill-847" fill="#687492" sketch:type="MSShapeGroup"></path>
        </g>
    </g>
</svg>