<?xml version="1.0" encoding="UTF-8" standalone="no"?>
<svg width="46px" height="58px" viewBox="0 0 46 58" version="1.1" xmlns="http://www.w3.org/2000/svg" xmlns:xlink="http://www.w3.org/1999/xlink" xmlns:sketch="http://www.bohemiancoding.com/sketch/ns">
    <!-- Generator: Sketch 3.2.2 (9983) - http://www.bohemiancoding.com/sketch -->
    <title>128 - Multiply and Compare (Flat)</title>
    <desc>Created with Sketch.</desc>
    <defs></defs>
    <g id="Page-1" stroke="none" stroke-width="1" fill="none" fill-rule="evenodd" sketch:type="MSPage">
        <g id="128---Multiply-and-Compare-(Flat)" sketch:type="MSLayerGroup" transform="translate(-1.000000, 0.000000)">
            <path d="M14,7 C14,10.314 11.314,13 8,13 C4.686,13 2,10.314 2,7 C2,3.686 4.686,1 8,1 C11.314,1 14,3.686 14,7" id="Fill-5" fill="#4C98BC" sketch:type="MSShapeGroup"></path>
            <path d="M8,14 C4.14,14 1,10.859 1,7 C1,3.141 4.14,0 8,0 C11.86,0 15,3.141 15,7 C15,10.859 11.86,14 8,14 L8,14 Z M8,2 C5.243,2 3,4.243 3,7 C3,9.757 5.243,12 8,12 C10.757,12 13,9.757 13,7 C13,4.243 10.757,2 8,2 L8,2 Z" id="Fill-6" fill="#4C98BC" sketch:type="MSShapeGroup"></path>
            <path d="M46,7 C46,10.314 43.314,13 40,13 C36.686,13 34,10.314 34,7 C34,3.686 36.686,1 40,1 C43.314,1 46,3.686 46,7" id="Fill-7" fill="#57B1E3" sketch:type="MSShapeGroup"></path>
            <path d="M40,14 C36.14,14 33,10.859 33,7 C33,3.141 36.14,0 40,0 C43.86,0 47,3.141 47,7 C47,10.859 43.86,14 40,14 L40,14 Z M40,2 C37.243,2 35,4.243 35,7 C35,9.757 37.243,12 40,12 C42.757,12 45,9.757 45,7 C45,4.243 42.757,2 40,2 L40,2 Z" id="Fill-8" fill="#57B1E3" sketch:type="MSShapeGroup"></path>
            <path d="M7,13 L9,13 L9,45 L7,45 L7,13 Z" id="Fill-72" fill="#546A79" sketch:type="MSShapeGroup"></path>
            <path d="M39.932,15.499 C39.901,15.499 39.87,15.498 39.838,15.495 C39.288,15.443 38.884,14.956 38.935,14.406 C38.978,13.942 39,13.47 39,13 C39,12.447 39.448,12 40,12 C40.552,12 41,12.447 41,13 C41,13.531 40.975,14.066 40.926,14.592 C40.878,15.11 40.442,15.499 39.932,15.499" id="Fill-73" fill="#546A79" sketch:type="MSShapeGroup"></path>
            <path d="M35.708,24.911 C35.464,24.911 35.219,24.822 35.026,24.642 C34.623,24.266 34.6,23.634 34.976,23.229 C35.348,22.83 35.702,22.406 36.029,21.97 C36.359,21.527 36.985,21.435 37.428,21.767 C37.871,22.098 37.961,22.725 37.63,23.167 C37.261,23.661 36.861,24.141 36.44,24.593 C36.243,24.804 35.976,24.911 35.708,24.911 L35.708,24.911 Z M38.601,20.557 C38.464,20.557 38.325,20.529 38.192,20.47 C37.688,20.243 37.463,19.651 37.689,19.147 C37.913,18.651 38.11,18.135 38.278,17.618 C38.448,17.092 39.009,16.806 39.537,16.973 C40.062,17.142 40.351,17.706 40.181,18.231 C39.992,18.819 39.767,19.403 39.514,19.968 C39.347,20.338 38.982,20.557 38.601,20.557 L38.601,20.557 Z" id="Fill-74" fill="#546A79" sketch:type="MSShapeGroup"></path>
            <path d="M8.777,41.056 C8.675,41.056 8.572,41.04 8.469,41.007 C7.944,40.837 7.656,40.272 7.826,39.747 C8.017,39.158 8.242,38.574 8.496,38.013 C8.723,37.509 9.316,37.284 9.818,37.513 C10.322,37.739 10.546,38.332 10.319,38.835 C10.096,39.33 9.897,39.844 9.728,40.364 C9.592,40.787 9.199,41.056 8.777,41.056 L8.777,41.056 Z M11.181,36.416 C10.972,36.416 10.762,36.352 10.582,36.217 C10.14,35.885 10.05,35.259 10.381,34.816 C10.75,34.324 11.151,33.845 11.574,33.392 C11.951,32.988 12.584,32.968 12.987,33.345 C13.391,33.722 13.413,34.354 13.035,34.758 C12.662,35.157 12.308,35.58 11.982,36.016 C11.786,36.277 11.485,36.416 11.181,36.416 L11.181,36.416 Z M14.954,32.797 C14.635,32.797 14.322,32.645 14.128,32.362 C13.816,31.907 13.932,31.285 14.387,30.973 C15.152,30.447 15.966,29.982 16.807,29.59 C17.307,29.358 17.902,29.571 18.136,30.073 C18.37,30.573 18.153,31.169 17.653,31.402 C16.911,31.749 16.193,32.159 15.519,32.621 C15.346,32.74 15.149,32.797 14.954,32.797 L14.954,32.797 Z M20.538,30.374 C20.079,30.374 19.665,30.056 19.562,29.589 C19.444,29.049 19.785,28.516 20.324,28.397 C20.93,28.265 21.547,28.164 22.159,28.098 C22.697,28.041 23.201,28.437 23.259,28.986 C23.318,29.536 22.92,30.028 22.371,30.087 C21.832,30.144 21.288,30.233 20.754,30.351 C20.682,30.366 20.609,30.374 20.538,30.374 L20.538,30.374 Z M25.757,29.904 C25.253,29.904 24.819,29.523 24.765,29.01 C24.706,28.461 25.103,27.969 25.653,27.91 C26.188,27.852 26.731,27.764 27.268,27.644 C27.806,27.53 28.341,27.865 28.461,28.405 C28.58,28.944 28.24,29.477 27.701,29.598 C27.092,29.732 26.474,29.834 25.865,29.898 C25.829,29.902 25.793,29.904 25.757,29.904 L25.757,29.904 Z M30.791,28.493 C30.415,28.493 30.054,28.28 29.884,27.916 C29.651,27.416 29.867,26.82 30.368,26.587 C31.103,26.243 31.82,25.833 32.498,25.366 C32.952,25.05 33.576,25.168 33.889,25.622 C34.202,26.077 34.087,26.7 33.632,27.013 C32.863,27.543 32.05,28.009 31.213,28.399 C31.077,28.463 30.933,28.493 30.791,28.493 L30.791,28.493 Z" id="Fill-75" fill="#546A79" sketch:type="MSShapeGroup"></path>
            <path d="M8,46 C7.448,46 7,45.552 7,45 C7,44.469 7.025,43.933 7.074,43.408 C7.125,42.858 7.602,42.451 8.162,42.505 C8.712,42.556 9.116,43.044 9.065,43.594 C9.022,44.057 9,44.53 9,45 C9,45.552 8.552,46 8,46" id="Fill-76" fill="#546A79" sketch:type="MSShapeGroup"></path>
            <path d="M2,20 C1.744,20 1.488,19.902 1.293,19.707 C0.902,19.316 0.902,18.683 1.293,18.293 L7.293,12.293 C7.684,11.902 8.316,11.902 8.707,12.293 C9.098,12.683 9.098,13.316 8.707,13.707 L2.707,19.707 C2.512,19.902 2.256,20 2,20" id="Fill-77" fill="#546A79" sketch:type="MSShapeGroup"></path>
            <path d="M14,20 C13.744,20 13.488,19.902 13.293,19.707 L7.293,13.707 C6.902,13.316 6.902,12.683 7.293,12.293 C7.684,11.902 8.316,11.902 8.707,12.293 L14.707,18.293 C15.098,18.683 15.098,19.316 14.707,19.707 C14.512,19.902 14.256,20 14,20" id="Fill-78" fill="#546A79" sketch:type="MSShapeGroup"></path>
            <path d="M14,51 C14,54.314 11.314,57 8,57 C4.686,57 2,54.314 2,51 C2,47.686 4.686,45 8,45 C11.314,45 14,47.686 14,51" id="Fill-240" fill="#3B7995" sketch:type="MSShapeGroup"></path>
            <path d="M8,58 C4.14,58 1,54.859 1,51 C1,47.141 4.14,44 8,44 C11.86,44 15,47.141 15,51 C15,54.859 11.86,58 8,58 L8,58 Z M8,46 C5.243,46 3,48.243 3,51 C3,53.757 5.243,56 8,56 C10.757,56 13,53.757 13,51 C13,48.243 10.757,46 8,46 L8,46 Z" id="Fill-241" fill="#3B7995" sketch:type="MSShapeGroup"></path>
        </g>
    </g>
</svg>