<?xml version="1.0" encoding="UTF-8" standalone="no"?>
<svg width="60px" height="54px" viewBox="0 0 60 54" version="1.1" xmlns="http://www.w3.org/2000/svg" xmlns:xlink="http://www.w3.org/1999/xlink" xmlns:sketch="http://www.bohemiancoding.com/sketch/ns">
    <!-- Generator: Sketch 3.2.2 (9983) - http://www.bohemiancoding.com/sketch -->
    <title>55 - Repeat (Flat)</title>
    <desc>Created with Sketch.</desc>
    <defs></defs>
    <g id="Page-1" stroke="none" stroke-width="1" fill="none" fill-rule="evenodd" sketch:type="MSPage">
        <g id="55---Repeat-(Flat)" sketch:type="MSLayerGroup" transform="translate(0.000000, -1.000000)">
            <path d="M54.011,41.002 C53.755,41.002 53.499,40.904 53.304,40.709 C52.913,40.319 52.913,39.685 53.304,39.295 C56.332,36.264 58,32.252 58,28 C58,19.178 50.822,12 42,12 L18,12 C17.447,12 17,11.553 17,11 C17,10.447 17.447,10 18,10 L42,10 C51.925,10 60,18.075 60,28 C60,32.786 58.124,37.3 54.718,40.709 C54.522,40.904 54.267,41.002 54.011,41.002" id="Fill-534" fill="#26B99A" sketch:type="MSShapeGroup"></path>
            <path d="M42,46 L18,46 C8.075,46 0,37.925 0,28 C0,23.741 1.529,19.603 4.307,16.348 C4.665,15.927 5.298,15.877 5.717,16.236 C6.137,16.595 6.187,17.226 5.828,17.646 C3.359,20.54 2,24.217 2,28 C2,36.822 9.178,44 18,44 L42,44 C42.553,44 43,44.447 43,45 C43,45.553 42.553,46 42,46" id="Fill-535" fill="#A4E869" sketch:type="MSShapeGroup"></path>
            <path d="M18,12 C17.744,12 17.488,11.902 17.293,11.707 C16.902,11.316 16.902,10.684 17.293,10.293 L26.293,1.293 C26.684,0.902 27.316,0.902 27.707,1.293 C28.098,1.684 28.098,2.316 27.707,2.707 L18.707,11.707 C18.512,11.902 18.256,12 18,12" id="Fill-536" fill="#26B99A" sketch:type="MSShapeGroup"></path>
            <path d="M27,21 C26.744,21 26.488,20.902 26.293,20.707 L17.293,11.707 C16.902,11.316 16.902,10.684 17.293,10.293 C17.684,9.902 18.316,9.902 18.707,10.293 L27.707,19.293 C28.098,19.684 28.098,20.316 27.707,20.707 C27.512,20.902 27.256,21 27,21" id="Fill-537" fill="#26B99A" sketch:type="MSShapeGroup"></path>
            <path d="M35,55 C34.744,55 34.488,54.902 34.293,54.707 C33.902,54.316 33.902,53.683 34.293,53.293 L43.293,44.293 C43.684,43.902 44.316,43.902 44.707,44.293 C45.098,44.683 45.098,45.316 44.707,45.707 L35.707,54.707 C35.512,54.902 35.256,55 35,55" id="Fill-538" fill="#A4E869" sketch:type="MSShapeGroup"></path>
            <path d="M44,46 C43.744,46 43.488,45.902 43.293,45.707 L34.293,36.707 C33.902,36.316 33.902,35.683 34.293,35.293 C34.684,34.902 35.316,34.902 35.707,35.293 L44.707,44.293 C45.098,44.683 45.098,45.316 44.707,45.707 C44.512,45.902 44.256,46 44,46" id="Fill-539" fill="#A4E869" sketch:type="MSShapeGroup"></path>
        </g>
    </g>
</svg>