<?xml version="1.0" encoding="UTF-8" standalone="no"?>
<svg width="54px" height="54px" viewBox="0 0 54 54" version="1.1" xmlns="http://www.w3.org/2000/svg" xmlns:xlink="http://www.w3.org/1999/xlink" xmlns:sketch="http://www.bohemiancoding.com/sketch/ns">
    <!-- Generator: Sketch 3.2.2 (9983) - http://www.bohemiancoding.com/sketch -->
    <title>90 - Right (Flat)</title>
    <desc>Created with Sketch.</desc>
    <defs></defs>
    <g id="Page-1" stroke="none" stroke-width="1" fill="none" fill-rule="evenodd" sketch:type="MSPage">
        <g id="90---Right-(Flat)" sketch:type="MSLayerGroup">
            <path d="M27,53 L27,53 C12.641,53 1,41.359 1,27 C1,12.641 12.641,1 27,1 C41.359,1 53,12.641 53,27 C53,41.359 41.359,53 27,53" id="Fill-402" fill="#9B507E" sketch:type="MSShapeGroup"></path>
            <path d="M27,54 C12.112,54 0,41.888 0,27 C0,12.112 12.112,0 27,0 C41.888,0 54,12.112 54,27 C54,41.888 41.888,54 27,54 L27,54 Z M27,2 C13.215,2 2,13.215 2,27 C2,40.785 13.215,52 27,52 C40.785,52 52,40.785 52,27 C52,13.215 40.785,2 27,2 L27,2 Z" id="Fill-403" fill="#9B507E" sketch:type="MSShapeGroup"></path>
            <path d="M39,28 L13,28 C12.448,28 12,27.553 12,27 C12,26.447 12.448,26 13,26 L39,26 C39.552,26 40,26.447 40,27 C40,27.553 39.552,28 39,28" id="Fill-404" fill="#FFFFFF" sketch:type="MSShapeGroup"></path>
            <path d="M30.707,37.707 L29.293,36.293 L38.586,27 L29.293,17.707 L30.707,16.293 L41.414,27 L30.707,37.707" id="Fill-405" fill="#FFFFFF" sketch:type="MSShapeGroup"></path>
        </g>
    </g>
</svg>