<?xml version="1.0" encoding="UTF-8" standalone="no"?>
<svg width="54px" height="60px" viewBox="0 0 54 60" version="1.1" xmlns="http://www.w3.org/2000/svg" xmlns:xlink="http://www.w3.org/1999/xlink" xmlns:sketch="http://www.bohemiancoding.com/sketch/ns">
    <!-- Generator: Sketch 3.2.2 (9983) - http://www.bohemiancoding.com/sketch -->
    <title>6 - Semicycle (Flat)</title>
    <desc>Created with Sketch.</desc>
    <defs></defs>
    <g id="Page-1" stroke="none" stroke-width="1" fill="none" fill-rule="evenodd" sketch:type="MSPage">
        <g id="6---Semicycle-(Flat)" sketch:type="MSLayerGroup" transform="translate(0.000000, -1.000000)" fill="#26B99A">
            <path d="M43,32 L41,32 C40.448,32 40,31.553 40,31 C40,30.447 40.448,30 41,30 L43,30 C43.552,30 44,30.447 44,31 C44,31.553 43.552,32 43,32 L43,32 Z M37,32 L35,32 C34.448,32 34,31.553 34,31 C34,30.447 34.448,30 35,30 L37,30 C37.552,30 38,30.447 38,31 C38,31.553 37.552,32 37,32 L37,32 Z M31,32 L29,32 C28.448,32 28,31.553 28,31 C28,30.447 28.448,30 29,30 L31,30 C31.552,30 32,30.447 32,31 C32,31.553 31.552,32 31,32 L31,32 Z M25,32 L23,32 C22.448,32 22,31.553 22,31 C22,30.447 22.448,30 23,30 L25,30 C25.552,30 26,30.447 26,31 C26,31.553 25.552,32 25,32 L25,32 Z M19,32 L17,32 C16.448,32 16,31.553 16,31 C16,30.447 16.448,30 17,30 L19,30 C19.552,30 20,30.447 20,31 C20,31.553 19.552,32 19,32 L19,32 Z M13,32 L11,32 C10.448,32 10,31.553 10,31 C10,30.447 10.448,30 11,30 L13,30 C13.552,30 14,30.447 14,31 C14,31.553 13.552,32 13,32 L13,32 Z M46.892,31.207 C46.503,31.207 46.134,30.979 45.972,30.599 C45.755,30.091 45.992,29.503 46.5,29.287 C47.05,29.053 47.579,28.762 48.074,28.422 C48.529,28.11 49.153,28.225 49.465,28.68 C49.777,29.135 49.662,29.758 49.207,30.07 C48.602,30.485 47.955,30.841 47.283,31.127 C47.155,31.182 47.023,31.207 46.892,31.207 L46.892,31.207 Z M51.408,27.394 C51.223,27.394 51.035,27.343 50.867,27.235 C50.403,26.935 50.269,26.317 50.568,25.852 C50.894,25.348 51.17,24.809 51.387,24.254 C51.588,23.74 52.171,23.485 52.683,23.686 C53.197,23.888 53.451,24.468 53.25,24.982 C52.983,25.662 52.648,26.319 52.25,26.936 C52.059,27.233 51.736,27.394 51.408,27.394 L51.408,27.394 Z M52.995,21.704 C52.457,21.704 52.012,21.275 51.996,20.732 C51.979,20.132 51.901,19.533 51.765,18.954 C51.639,18.416 51.972,17.878 52.509,17.751 C53.043,17.628 53.585,17.957 53.712,18.495 C53.879,19.206 53.975,19.939 53.996,20.676 C54.012,21.227 53.577,21.687 53.024,21.704 L52.995,21.704 L52.995,21.704 Z M51.075,16.118 C50.767,16.118 50.463,15.977 50.268,15.709 C49.913,15.224 49.509,14.773 49.066,14.368 C48.659,13.995 48.632,13.362 49.005,12.955 C49.378,12.549 50.01,12.52 50.418,12.893 C50.957,13.388 51.449,13.938 51.881,14.527 C52.207,14.973 52.11,15.599 51.665,15.925 C51.486,16.056 51.28,16.118 51.075,16.118 L51.075,16.118 Z M46.341,12.578 C46.229,12.578 46.115,12.559 46.005,12.52 C45.44,12.318 44.853,12.174 44.263,12.09 C43.716,12.013 43.335,11.506 43.413,10.959 C43.49,10.412 43.999,10.035 44.543,10.109 C45.268,10.212 45.986,10.39 46.677,10.637 C47.197,10.822 47.469,11.395 47.282,11.914 C47.137,12.323 46.752,12.578 46.341,12.578 L46.341,12.578 Z M40.408,12 L38.408,12 C37.856,12 37.408,11.553 37.408,11 C37.408,10.447 37.856,10 38.408,10 L40.408,10 C40.96,10 41.408,10.447 41.408,11 C41.408,11.553 40.96,12 40.408,12 L40.408,12 Z M34.408,12 L32.408,12 C31.856,12 31.408,11.553 31.408,11 C31.408,10.447 31.856,10 32.408,10 L34.408,10 C34.96,10 35.408,10.447 35.408,11 C35.408,11.553 34.96,12 34.408,12 L34.408,12 Z M28.408,12 L26.408,12 C25.856,12 25.408,11.553 25.408,11 C25.408,10.447 25.856,10 26.408,10 L28.408,10 C28.96,10 29.408,10.447 29.408,11 C29.408,11.553 28.96,12 28.408,12 L28.408,12 Z M22.408,12 L20.408,12 C19.856,12 19.408,11.553 19.408,11 C19.408,10.447 19.856,10 20.408,10 L22.408,10 C22.96,10 23.408,10.447 23.408,11 C23.408,11.553 22.96,12 22.408,12 L22.408,12 Z M16.408,12 L14.408,12 C13.856,12 13.408,11.553 13.408,11 C13.408,10.447 13.856,10 14.408,10 L16.408,10 C16.96,10 17.408,10.447 17.408,11 C17.408,11.553 16.96,12 16.408,12 L16.408,12 Z" id="Fill-713" sketch:type="MSShapeGroup"></path>
            <path d="M43,52 L41,52 C40.448,52 40,51.553 40,51 C40,50.447 40.448,50 41,50 L43,50 C43.552,50 44,50.447 44,51 C44,51.553 43.552,52 43,52 L43,52 Z M37,52 L35,52 C34.448,52 34,51.553 34,51 C34,50.447 34.448,50 35,50 L37,50 C37.552,50 38,50.447 38,51 C38,51.553 37.552,52 37,52 L37,52 Z M31,52 L29,52 C28.448,52 28,51.553 28,51 C28,50.447 28.448,50 29,50 L31,50 C31.552,50 32,50.447 32,51 C32,51.553 31.552,52 31,52 L31,52 Z M25,52 L23,52 C22.448,52 22,51.553 22,51 C22,50.447 22.448,50 23,50 L25,50 C25.552,50 26,50.447 26,51 C26,51.553 25.552,52 25,52 L25,52 Z M19,52 L17,52 C16.448,52 16,51.553 16,51 C16,50.447 16.448,50 17,50 L19,50 C19.552,50 20,50.447 20,51 C20,51.553 19.552,52 19,52 L19,52 Z M13,52 L11,52 C10.448,52 10,51.553 10,51 C10,50.447 10.448,50 11,50 L13,50 C13.552,50 14,50.447 14,51 C14,51.553 13.552,52 13,52 L13,52 Z M7.108,51.207 C6.977,51.207 6.844,51.182 6.716,51.127 C6.047,50.842 5.4,50.486 4.794,50.071 C4.338,49.759 4.222,49.137 4.534,48.681 C4.847,48.227 5.47,48.109 5.924,48.421 C6.422,48.763 6.952,49.054 7.5,49.287 C8.008,49.504 8.245,50.091 8.028,50.598 C7.866,50.979 7.497,51.207 7.108,51.207 L7.108,51.207 Z M2.591,47.395 C2.263,47.395 1.941,47.233 1.75,46.936 C1.353,46.321 1.017,45.664 0.749,44.983 C0.547,44.469 0.8,43.889 1.315,43.687 C1.829,43.488 2.409,43.738 2.611,44.253 C2.83,44.809 3.106,45.348 3.431,45.852 C3.73,46.317 3.596,46.935 3.132,47.235 C2.964,47.343 2.777,47.395 2.591,47.395 L2.591,47.395 Z M1.005,41.704 L0.975,41.704 C0.423,41.687 -0.011,41.226 0.005,40.675 C0.026,39.941 0.122,39.209 0.289,38.497 C0.415,37.96 0.955,37.627 1.49,37.751 C2.028,37.877 2.362,38.415 2.236,38.952 C2.1,39.535 2.021,40.134 2.004,40.733 C1.988,41.275 1.543,41.704 1.005,41.704 L1.005,41.704 Z M2.925,36.118 C2.72,36.118 2.514,36.055 2.335,35.926 C1.89,35.6 1.792,34.974 2.119,34.528 C2.549,33.939 3.042,33.389 3.582,32.893 C3.99,32.519 4.622,32.549 4.995,32.955 C5.368,33.362 5.341,33.995 4.934,34.368 C4.49,34.774 4.086,35.226 3.733,35.708 C3.537,35.976 3.233,36.118 2.925,36.118 L2.925,36.118 Z M7.659,32.578 C7.248,32.578 6.864,32.323 6.717,31.914 C6.532,31.394 6.803,30.822 7.323,30.637 C8.014,30.389 8.732,30.212 9.457,30.109 C10.003,30.036 10.51,30.412 10.587,30.959 C10.665,31.506 10.284,32.012 9.737,32.09 C9.146,32.174 8.56,32.318 7.996,32.519 C7.884,32.56 7.771,32.578 7.659,32.578 L7.659,32.578 Z" id="Fill-714" sketch:type="MSShapeGroup"></path>
            <path d="M11,12 C10.744,12 10.488,11.902 10.293,11.707 C9.902,11.316 9.902,10.683 10.293,10.293 L19.293,1.293 C19.684,0.902 20.316,0.902 20.707,1.293 C21.098,1.683 21.098,2.316 20.707,2.707 L11.707,11.707 C11.512,11.902 11.256,12 11,12" id="Fill-715" sketch:type="MSShapeGroup"></path>
            <path d="M20,21 C19.744,21 19.488,20.902 19.293,20.707 L10.293,11.707 C9.902,11.316 9.902,10.683 10.293,10.293 C10.684,9.902 11.316,9.902 11.707,10.293 L20.707,19.293 C21.098,19.683 21.098,20.316 20.707,20.707 C20.512,20.902 20.256,21 20,21" id="Fill-716" sketch:type="MSShapeGroup"></path>
            <path d="M34,61 C33.744,61 33.488,60.902 33.293,60.707 C32.902,60.316 32.902,59.683 33.293,59.293 L42.293,50.293 C42.684,49.902 43.316,49.902 43.707,50.293 C44.098,50.683 44.098,51.316 43.707,51.707 L34.707,60.707 C34.512,60.902 34.256,61 34,61" id="Fill-717" sketch:type="MSShapeGroup"></path>
            <path d="M43,52 C42.744,52 42.488,51.902 42.293,51.707 L33.293,42.707 C32.902,42.316 32.902,41.683 33.293,41.293 C33.684,40.902 34.316,40.902 34.707,41.293 L43.707,50.293 C44.098,50.683 44.098,51.316 43.707,51.707 C43.512,51.902 43.256,52 43,52" id="Fill-718" sketch:type="MSShapeGroup"></path>
        </g>
    </g>
</svg>