<?xml version="1.0" encoding="UTF-8" standalone="no"?>
<svg width="60px" height="42px" viewBox="0 0 60 42" version="1.1" xmlns="http://www.w3.org/2000/svg" xmlns:xlink="http://www.w3.org/1999/xlink" xmlns:sketch="http://www.bohemiancoding.com/sketch/ns">
    <!-- Generator: Sketch 3.2.2 (9983) - http://www.bohemiancoding.com/sketch -->
    <title>54 - Shuffle (Flat)</title>
    <desc>Created with Sketch.</desc>
    <defs></defs>
    <g id="Page-1" stroke="none" stroke-width="1" fill="none" fill-rule="evenodd" sketch:type="MSPage">
        <g id="54---Shuffle-(Flat)" sketch:type="MSLayerGroup" transform="translate(0.000000, -1.000000)" fill="#26B99A">
            <path d="M9,9 L1,9 C0.447,9 0,9.447 0,10 C0,10.553 0.447,11 1,11 L9,11 C15.065,11 20,15.934 20,22 C20,28.065 15.065,33 9,33 L1,33 C0.447,33 0,33.447 0,34 C0,34.553 0.447,35 1,35 L9,35 C16.168,35 22,29.168 22,22 C22,14.832 16.168,9 9,9" id="Fill-540" sketch:type="MSShapeGroup"></path>
            <path d="M59.923,33.618 C59.872,33.495 59.799,33.384 59.706,33.292 L51.707,25.293 C51.316,24.902 50.684,24.902 50.293,25.293 C49.902,25.684 49.902,26.316 50.293,26.707 L56.586,33 L33,33 C26.935,33 22,28.065 22,22 C22,15.934 26.935,11 33,11 L56.586,11 L50.293,17.293 C49.902,17.683 49.902,18.316 50.293,18.707 C50.488,18.902 50.744,19 51,19 C51.256,19 51.512,18.902 51.707,18.707 L59.706,10.708 C59.799,10.616 59.872,10.505 59.923,10.382 C60.024,10.137 60.024,9.862 59.923,9.618 C59.872,9.495 59.799,9.384 59.706,9.292 L51.707,1.293 C51.316,0.902 50.684,0.902 50.293,1.293 C49.902,1.684 49.902,2.316 50.293,2.707 L56.586,9 L33,9 C25.832,9 20,14.832 20,22 C20,29.168 25.832,35 33,35 L56.586,35 L50.293,41.293 C49.902,41.683 49.902,42.316 50.293,42.707 C50.488,42.902 50.744,43 51,43 C51.256,43 51.512,42.902 51.707,42.707 L59.706,34.708 C59.799,34.616 59.872,34.505 59.923,34.382 C60.024,34.137 60.024,33.862 59.923,33.618" id="Fill-541" sketch:type="MSShapeGroup"></path>
        </g>
    </g>
</svg>