<?xml version="1.0" encoding="UTF-8" standalone="no"?>
<svg width="54px" height="42px" viewBox="0 0 54 42" version="1.1" xmlns="http://www.w3.org/2000/svg" xmlns:xlink="http://www.w3.org/1999/xlink" xmlns:sketch="http://www.bohemiancoding.com/sketch/ns">
    <!-- Generator: Sketch 3.2.2 (9983) - http://www.bohemiancoding.com/sketch -->
    <title>1 - Successfull Cycle (Flat)</title>
    <desc>Created with Sketch.</desc>
    <defs></defs>
    <g id="Page-1" stroke="none" stroke-width="1" fill="none" fill-rule="evenodd" sketch:type="MSPage">
        <g id="1---Successfull-Cycle-(Flat)" sketch:type="MSLayerGroup">
            <path d="M22,22 L11,22 C4.935,22 0,17.065 0,11 C0,4.934 4.935,0 11,0 L43,0 C43.553,0 44,0.447 44,1 C44,1.553 43.553,2 43,2 L11,2 C6.037,2 2,6.037 2,11 C2,15.963 6.037,20 11,20 L22,20 C22.553,20 23,20.447 23,21 C23,21.553 22.553,22 22,22" id="Fill-742" fill="#26B99A" sketch:type="MSShapeGroup"></path>
            <path d="M43,42 L11,42 C10.447,42 10,41.553 10,41 C10,40.447 10.447,40 11,40 L43,40 C47.963,40 52,35.963 52,31 C52,26.037 47.963,22 43,22 C42.447,22 42,21.553 42,21 C42,20.447 42.447,20 43,20 C49.065,20 54,24.935 54,31 C54,37.065 49.065,42 43,42" id="Fill-743" fill="#26B99A" sketch:type="MSShapeGroup"></path>
            <path d="M22,22 C21.744,22 21.488,21.902 21.293,21.707 L12.293,12.707 C11.902,12.316 11.902,11.683 12.293,11.293 C12.684,10.902 13.316,10.902 13.707,11.293 L22.707,20.293 C23.098,20.683 23.098,21.316 22.707,21.707 C22.512,21.902 22.256,22 22,22" id="Fill-744" fill="#26B99A" sketch:type="MSShapeGroup"></path>
            <path d="M13,31 C12.744,31 12.488,30.902 12.293,30.707 C11.902,30.316 11.902,29.683 12.293,29.293 L21.293,20.293 C21.684,19.902 22.316,19.902 22.707,20.293 C23.098,20.683 23.098,21.316 22.707,21.707 L13.707,30.707 C13.512,30.902 13.256,31 13,31" id="Fill-745" fill="#26B99A" sketch:type="MSShapeGroup"></path>
            <path d="M44,22 L37,22 C36.447,22 36,21.553 36,21 C36,20.447 36.447,20 37,20 L44,20 C44.553,20 45,20.447 45,21 C45,21.553 44.553,22 44,22" id="Fill-746" fill="#26B99A" sketch:type="MSShapeGroup"></path>
            <path d="M37,21 C37,23.761 34.761,26 32,26 C29.239,26 27,23.761 27,21 C27,18.238 29.239,16 32,16 C34.761,16 37,18.238 37,21" id="Fill-747" fill="#B1E97C" sketch:type="MSShapeGroup"></path>
            <path d="M32,27 C28.691,27 26,24.308 26,21 C26,17.691 28.691,15 32,15 C35.309,15 38,17.691 38,21 C38,24.308 35.309,27 32,27 L32,27 Z M32,17 C29.794,17 28,18.794 28,21 C28,23.206 29.794,25 32,25 C34.206,25 36,23.206 36,21 C36,18.794 34.206,17 32,17 L32,17 Z" id="Fill-748" fill="#B1E97C" sketch:type="MSShapeGroup"></path>
        </g>
    </g>
</svg>