<?xml version="1.0" encoding="UTF-8" standalone="no"?>
<svg width="53px" height="46px" viewBox="0 0 53 46" version="1.1" xmlns="http://www.w3.org/2000/svg" xmlns:xlink="http://www.w3.org/1999/xlink" xmlns:sketch="http://www.bohemiancoding.com/sketch/ns">
    <!-- Generator: Sketch 3.2.2 (9983) - http://www.bohemiancoding.com/sketch -->
    <title>62 - Unfinished Circuit (Flat)</title>
    <desc>Created with Sketch.</desc>
    <defs></defs>
    <g id="Page-1" stroke="none" stroke-width="1" fill="none" fill-rule="evenodd" sketch:type="MSPage">
        <g id="62---Unfinished-Circuit-(Flat)" sketch:type="MSLayerGroup" transform="translate(-1.000000, 0.000000)" fill="#26B99A">
            <path d="M31,46 C18.317,46 8,35.682 8,23 C8,22.447 8.447,22 9,22 C9.553,22 10,22.447 10,23 C10,34.579 19.421,44 31,44 C42.579,44 52,34.579 52,23 C52,22.447 52.447,22 53,22 C53.553,22 54,22.447 54,23 C54,35.682 43.683,46 31,46" id="Fill-500" sketch:type="MSShapeGroup"></path>
            <path d="M2,31 C1.744,31 1.488,30.902 1.293,30.707 C0.902,30.316 0.902,29.683 1.293,29.293 L8.293,22.293 C8.684,21.902 9.316,21.902 9.707,22.293 C10.098,22.683 10.098,23.316 9.707,23.707 L2.707,30.707 C2.512,30.902 2.256,31 2,31" id="Fill-501" sketch:type="MSShapeGroup"></path>
            <path d="M16,31 C15.744,31 15.488,30.902 15.293,30.707 L8.293,23.707 C7.902,23.316 7.902,22.683 8.293,22.293 C8.684,21.902 9.316,21.902 9.707,22.293 L16.707,29.293 C17.098,29.683 17.098,30.316 16.707,30.707 C16.512,30.902 16.256,31 16,31" id="Fill-502" sketch:type="MSShapeGroup"></path>
            <path d="M52.852,21.435 C52.351,21.435 51.919,21.06 51.859,20.551 C51.785,19.919 51.682,19.285 51.553,18.667 C51.439,18.127 51.785,17.597 52.326,17.483 C52.866,17.371 53.396,17.715 53.51,18.257 C53.651,18.933 53.765,19.627 53.846,20.318 C53.91,20.867 53.518,21.363 52.969,21.428 C52.93,21.432 52.89,21.435 52.852,21.435 L52.852,21.435 Z M51.358,15.645 C50.965,15.645 50.592,15.412 50.434,15.025 C50.192,14.438 49.922,13.856 49.629,13.297 C49.374,12.807 49.563,12.203 50.053,11.947 C50.541,11.692 51.146,11.881 51.402,12.371 C51.723,12.984 52.019,13.622 52.283,14.266 C52.493,14.776 52.249,15.36 51.738,15.57 C51.614,15.621 51.485,15.645 51.358,15.645 L51.358,15.645 Z M48.354,10.475 C48.057,10.475 47.763,10.344 47.565,10.091 C47.174,9.59 46.757,9.102 46.324,8.641 C45.946,8.238 45.967,7.605 46.37,7.227 C46.772,6.851 47.404,6.871 47.783,7.273 C48.257,7.777 48.714,8.311 49.142,8.86 C49.481,9.296 49.404,9.924 48.969,10.264 C48.786,10.406 48.569,10.475 48.354,10.475 L48.354,10.475 Z M44.069,6.303 C43.862,6.303 43.654,6.239 43.475,6.106 C42.967,5.73 42.435,5.372 41.892,5.042 C41.42,4.755 41.27,4.14 41.557,3.668 C41.844,3.196 42.459,3.046 42.931,3.333 C43.525,3.694 44.109,4.087 44.666,4.499 C45.109,4.828 45.202,5.454 44.874,5.898 C44.678,6.163 44.376,6.303 44.069,6.303 L44.069,6.303 Z M38.823,3.432 C38.704,3.432 38.584,3.412 38.467,3.367 C37.876,3.142 37.267,2.94 36.656,2.77 C36.125,2.623 35.813,2.071 35.962,1.539 C36.109,1.007 36.662,0.694 37.193,0.845 C37.862,1.03 38.531,1.251 39.18,1.498 C39.696,1.695 39.954,2.273 39.758,2.789 C39.605,3.187 39.226,3.432 38.823,3.432 L38.823,3.432 Z M32.997,2.09 C32.967,2.09 32.937,2.089 32.906,2.086 C32.278,2.029 31.637,2 31,2 C30.447,2 30,1.553 30,1 C30,0.447 30.447,0 31,0 C31.697,0 32.398,0.031 33.086,0.094 C33.637,0.143 34.042,0.63 33.992,1.18 C33.945,1.699 33.509,2.09 32.997,2.09 L32.997,2.09 Z" id="Fill-503" sketch:type="MSShapeGroup"></path>
        </g>
    </g>
</svg>