<?xml version="1.0" encoding="UTF-8" standalone="no"?>
<svg width="54px" height="54px" viewBox="0 0 54 54" version="1.1" xmlns="http://www.w3.org/2000/svg" xmlns:xlink="http://www.w3.org/1999/xlink" xmlns:sketch="http://www.bohemiancoding.com/sketch/ns">
    <!-- Generator: Sketch 3.2.2 (9983) - http://www.bohemiancoding.com/sketch -->
    <title>98 - Up (Flat)</title>
    <desc>Created with Sketch.</desc>
    <defs></defs>
    <g id="Page-1" stroke="none" stroke-width="1" fill="none" fill-rule="evenodd" sketch:type="MSPage">
        <g id="98---Up-(Flat)" sketch:type="MSLayerGroup">
            <path d="M1,1 L53,1 L53,53 L1,53 L1,1 Z" id="Fill-354" fill="#AD4038" sketch:type="MSShapeGroup"></path>
            <path d="M0,0 L54,0 L54,54 L0,54 L0,0 Z M2,52 L52,52 L52,2 L2,2 L2,52 Z" id="Fill-355" fill="#AD4038" sketch:type="MSShapeGroup"></path>
            <path d="M27,41.5 C26.448,41.5 26,41.053 26,40.5 L26,14.5 C26,13.947 26.448,13.5 27,13.5 C27.552,13.5 28,13.947 28,14.5 L28,40.5 C28,41.053 27.552,41.5 27,41.5" id="Fill-356" fill="#FFFFFF" sketch:type="MSShapeGroup"></path>
            <path d="M36.293,24.207 L27,14.914 L17.707,24.207 L16.293,22.793 L27,12.086 L37.707,22.793 L36.293,24.207" id="Fill-357" fill="#FFFFFF" sketch:type="MSShapeGroup"></path>
        </g>
    </g>
</svg>