<?xml version="1.0" encoding="UTF-8" standalone="no"?>
<svg width="58px" height="58px" viewBox="0 0 58 58" version="1.1" xmlns="http://www.w3.org/2000/svg" xmlns:xlink="http://www.w3.org/1999/xlink" xmlns:sketch="http://www.bohemiancoding.com/sketch/ns">
    <!-- Generator: Sketch 3.2.2 (9983) - http://www.bohemiancoding.com/sketch -->
    <title>50 - 6 Pack (Flat)</title>
    <desc>Created with Sketch.</desc>
    <defs></defs>
    <g id="Page-1" stroke="none" stroke-width="1" fill="none" fill-rule="evenodd" sketch:type="MSPage">
        <g id="50---6-Pack-(Flat)" sketch:type="MSLayerGroup">
            <path d="M0,23 L58,23 L58,58 L0,58 L0,23 Z" id="Fill-1234" fill="#A98258" sketch:type="MSShapeGroup"></path>
            <path d="M49,42 L45,46 L49,50 L47,52 L58,52 L58,40 L47,40 L49,42" id="Fill-1235" fill="#F4D5BD" sketch:type="MSShapeGroup"></path>
            <path d="M15.688,5 L4.312,5 C4.14,5 4,4.86 4,4.688 L4,2.811 C4,1.259 5.259,0 6.811,0 L13.189,0 C14.741,0 16,1.259 16,2.811 L16,4.688 C16,4.86 15.86,5 15.688,5" id="Fill-1236" fill="#F0C419" sketch:type="MSShapeGroup"></path>
            <path d="M6,3 L8,3 L8,5 L6,5 L6,3 Z" id="Fill-1237" fill="#AA891D" sketch:type="MSShapeGroup"></path>
            <path d="M9,3 L11,3 L11,5 L9,5 L9,3 Z" id="Fill-1238" fill="#AA891D" sketch:type="MSShapeGroup"></path>
            <path d="M12,3 L14,3 L14,5 L12,5 L12,3 Z" id="Fill-1239" fill="#AA891D" sketch:type="MSShapeGroup"></path>
            <path d="M34.688,5 L23.312,5 C23.14,5 23,4.86 23,4.688 L23,2.811 C23,1.259 24.259,0 25.811,0 L32.189,0 C33.741,0 35,1.259 35,2.811 L35,4.688 C35,4.86 34.86,5 34.688,5" id="Fill-1240" fill="#F0C419" sketch:type="MSShapeGroup"></path>
            <path d="M25,3 L27,3 L27,5 L25,5 L25,3 Z" id="Fill-1241" fill="#AA891D" sketch:type="MSShapeGroup"></path>
            <path d="M28,3 L30,3 L30,5 L28,5 L28,3 Z" id="Fill-1242" fill="#AA891D" sketch:type="MSShapeGroup"></path>
            <path d="M31,3 L33,3 L33,5 L31,5 L31,3 Z" id="Fill-1243" fill="#AA891D" sketch:type="MSShapeGroup"></path>
            <path d="M53.688,5 L42.312,5 C42.14,5 42,4.86 42,4.688 L42,2.811 C42,1.259 43.259,0 44.811,0 L51.189,0 C52.741,0 54,1.259 54,2.811 L54,4.688 C54,4.86 53.86,5 53.688,5" id="Fill-1244" fill="#F0C419" sketch:type="MSShapeGroup"></path>
            <path d="M44,3 L46,3 L46,5 L44,5 L44,3 Z" id="Fill-1245" fill="#AA891D" sketch:type="MSShapeGroup"></path>
            <path d="M47,3 L49,3 L49,5 L47,5 L47,3 Z" id="Fill-1246" fill="#AA891D" sketch:type="MSShapeGroup"></path>
            <path d="M50,3 L52,3 L52,5 L50,5 L50,3 Z" id="Fill-1247" fill="#AA891D" sketch:type="MSShapeGroup"></path>
            <path d="M56,23 L56,21.236 C56,19.866 55.226,18.613 54,18 C52.774,17.387 52,16.134 52,14.764 L52,5 L44,5 L44,14.764 C44,16.134 43.226,17.387 42,18 C40.774,18.613 40,19.866 40,21.236 L40,23 L56,23" id="Fill-1248" fill="#6A3006" sketch:type="MSShapeGroup"></path>
            <path d="M37,23 L37,21.236 C37,19.866 36.226,18.613 35,18 C33.774,17.387 33,16.134 33,14.764 L33,5 L25,5 L25,14.764 C25,16.134 24.226,17.387 23,18 C21.774,18.613 21,19.866 21,21.236 L21,23 L37,23" id="Fill-1249" fill="#6A3006" sketch:type="MSShapeGroup"></path>
            <path d="M18,23 L18,21.236 C18,19.866 17.226,18.613 16,18 C14.774,17.387 14,16.134 14,14.764 L14,5 L6,5 L6,14.764 C6,16.134 5.226,17.387 4,18 C2.774,18.613 2,19.866 2,21.236 L2,23 L18,23" id="Fill-1250" fill="#6A3006" sketch:type="MSShapeGroup"></path>
            <path d="M0,54 L10,54 L10,56 L0,56 L0,54 Z" id="Fill-1376" fill="#7C5F42" sketch:type="MSShapeGroup"></path>
            <path d="M0,51 L8,51 L8,53 L0,53 L0,51 Z" id="Fill-1377" fill="#7C5F42" sketch:type="MSShapeGroup"></path>
            <path d="M0,48 L6,48 L6,50 L0,50 L0,48 Z" id="Fill-1378" fill="#7C5F42" sketch:type="MSShapeGroup"></path>
            <path d="M0,45 L4,45 L4,47 L0,47 L0,45 Z" id="Fill-1379" fill="#7C5F42" sketch:type="MSShapeGroup"></path>
        </g>
    </g>
</svg>