<?xml version="1.0" encoding="UTF-8" standalone="no"?>
<svg width="60px" height="60px" viewBox="0 0 60 60" version="1.1" xmlns="http://www.w3.org/2000/svg" xmlns:xlink="http://www.w3.org/1999/xlink" xmlns:sketch="http://www.bohemiancoding.com/sketch/ns">
    <!-- Generator: Sketch 3.2.2 (9983) - http://www.bohemiancoding.com/sketch -->
    <title>87 - Analitics (Flat)</title>
    <desc>Created with Sketch.</desc>
    <defs></defs>
    <g id="Page-1" stroke="none" stroke-width="1" fill="none" fill-rule="evenodd" sketch:type="MSPage">
        <g id="87---Analitics-(Flat)" sketch:type="MSLayerGroup" transform="translate(1.000000, 1.000000)">
            <path d="M11,40 L17,40 L17,58 L11,58 L11,40 Z" id="Fill-726" fill="#BDC3C7" sketch:type="MSShapeGroup"></path>
            <path d="M1,35 L7,35 L7,58 L1,58 L1,35 Z" id="Fill-727" fill="#BDC3C7" sketch:type="MSShapeGroup"></path>
            <path d="M31,27 L37,27 L37,58 L31,58 L31,27 Z" id="Fill-728" fill="#BDC3C7" sketch:type="MSShapeGroup"></path>
            <path d="M21,19 L27,19 L27,58 L21,58 L21,19 Z" id="Fill-729" fill="#BDC3C7" sketch:type="MSShapeGroup"></path>
            <path d="M51,44 L57,44 L57,58 L51,58 L51,44 Z" id="Fill-730" fill="#BDC3C7" sketch:type="MSShapeGroup"></path>
            <path d="M41,23 L47,23 L47,58 L41,58 L41,23 Z" id="Fill-731" fill="#BDC3C7" sketch:type="MSShapeGroup"></path>
            <path d="M1,44 L7,44 M11,49 L17,49 M21,28 L27,28 M31,36 L37,36 M41,40 L47,40 M51,51 L57,51" id="Stroke-745" stroke="#26B99A" stroke-width="2" stroke-linecap="round" sketch:type="MSShapeGroup"></path>
            <path d="M43,11 L51,11" id="Path" stroke="#D1D4D1" stroke-width="2" stroke-linecap="round" sketch:type="MSShapeGroup"></path>
            <path d="M53,6 L56,6" id="Path" stroke="#D1D4D1" stroke-width="2" stroke-linecap="round" sketch:type="MSShapeGroup"></path>
            <path d="M43,6 L45,6" id="Path" stroke="#D1D4D1" stroke-width="2" stroke-linecap="round" sketch:type="MSShapeGroup"></path>
            <circle id="Oval-21" fill="#D1D4D1" sketch:type="MSShapeGroup" cx="49" cy="6" r="1"></circle>
            <circle id="Oval-21" fill="#D1D4D1" sketch:type="MSShapeGroup" cx="55" cy="11" r="1"></circle>
            <path d="M58,58 L0,58" id="Path" stroke="#556080" stroke-width="2" stroke-linecap="round" sketch:type="MSShapeGroup"></path>
            <path d="M0,0 L58,0" id="Path" stroke="#556080" stroke-width="2" stroke-linecap="round" sketch:type="MSShapeGroup"></path>
        </g>
    </g>
</svg>