<?xml version="1.0" encoding="UTF-8" standalone="no"?>
<svg width="58px" height="58px" viewBox="0 0 58 58" version="1.1" xmlns="http://www.w3.org/2000/svg" xmlns:xlink="http://www.w3.org/1999/xlink" xmlns:sketch="http://www.bohemiancoding.com/sketch/ns">
    <!-- Generator: Sketch 3.2.2 (9983) - http://www.bohemiancoding.com/sketch -->
    <title>67 - ATM (Flat)</title>
    <desc>Created with Sketch.</desc>
    <defs></defs>
    <g id="Page-1" stroke="none" stroke-width="1" fill="none" fill-rule="evenodd" sketch:type="MSPage">
        <g id="67---ATM-(Flat)" sketch:type="MSLayerGroup">
            <path d="M58,4 L58,0 L0,0 L0,5 L0.001,5 L0.001,58 L58.001,58 L58.001,4 L58,4" id="Fill-185" fill="#556080" sketch:type="MSShapeGroup"></path>
            <path d="M55.62,13 L2.38,13 C1.065,13 0,14.065 0,15.38 L0,26.62 C0,27.935 1.065,29 2.38,29 L4,29 L4,20 L54,20 L54,29 L55.62,29 C56.935,29 58,27.935 58,26.62 L58,15.38 C58,14.065 56.935,13 55.62,13" id="Fill-1354" fill="#2C2F38" sketch:type="MSShapeGroup"></path>
            <path d="M2.38,9 C1.065,9 0,10.065 0,11.38 L0,15.38 L2.38,15 L55.62,15 L58,15.38 L58,11.38 C58,10.065 56.935,9 55.62,9 L2.38,9 Z" id="Fill-1371" fill="#ECF0F1" sketch:type="MSShapeGroup"></path>
            <path d="M55.62,13 L2.38,13 C1.065,13 0,14.065 0,15.38 L0,20 L58,20 L58,15.38 C58,14.065 56.935,13 55.62,13" id="Fill-1938" fill="#BDC3C7" sketch:type="MSShapeGroup"></path>
            <path d="M41,28 C41,34.627 35.627,40 29,40 C22.373,40 17,34.627 17,28 C17,26.594 17.254,25.251 17.701,24 L4,24 L4,46 L54,46 L54,24 L40.299,24 C40.746,25.251 41,26.594 41,28" id="Fill-2152" fill="#E8E8D3" sketch:type="MSShapeGroup"></path>
            <path d="M31.292,30.158 C31.548,29.856 31.666,29.463 31.623,29.053 C31.577,28.614 31.351,28.206 31.002,27.935 L30,27.156 L30,31.033 C30.494,30.858 30.944,30.569 31.292,30.158" id="Fill-2153" fill="#6D8C60" sketch:type="MSShapeGroup"></path>
            <path d="M30,24.623 L32.229,26.356 C33.006,26.96 33.51,27.867 33.612,28.845 C33.712,29.802 33.43,30.727 32.819,31.45 C32.085,32.318 31.091,32.896 30,33.118 L30,34 C30,34.553 29.552,35 29,35 C28.448,35 28,34.553 28,34 L28,33.122 C25.721,32.657 24,30.637 24,28.223 C24,27.67 24.448,27.223 25,27.223 C25.552,27.223 26,27.67 26,28.223 C26,29.525 26.839,30.624 28,31.038 L28,25.6 L25.943,24 L17.701,24 C17.254,25.251 17,26.594 17,28 C17,34.627 22.373,40 29,40 C35.627,40 41,34.627 41,28 C41,26.594 40.746,25.251 40.299,24 L30,24 L30,24.623" id="Fill-2154" fill="#6D8C60" sketch:type="MSShapeGroup"></path>
            <path d="M31.002,27.935 C31.351,28.206 31.577,28.614 31.623,29.053 C31.666,29.463 31.548,29.856 31.292,30.158 C30.944,30.569 30.494,30.858 30,31.033 L30,33.118 C31.091,32.896 32.085,32.318 32.819,31.45 C33.43,30.727 33.712,29.802 33.612,28.845 C33.51,27.867 33.006,26.96 32.229,26.356 L30,24.623 L30,27.156 L31.002,27.935" id="Fill-2155" fill="#E8E8D3" sketch:type="MSShapeGroup"></path>
            <path d="M28,24 L25.943,24 L28,25.6 L28,24" id="Fill-2156" fill="#E8E8D3" sketch:type="MSShapeGroup"></path>
            <path d="M26,28.223 C26,27.67 25.552,27.223 25,27.223 C24.448,27.223 24,27.67 24,28.223 C24,30.637 25.721,32.657 28,33.122 L28,31.038 C26.839,30.624 26,29.525 26,28.223" id="Fill-2157" fill="#E8E8D3" sketch:type="MSShapeGroup"></path>
            <path d="M28,33.122 L28,34 C28,34.553 28.448,35 29,35 C29.552,35 30,34.553 30,34 L30,33.118 C29.674,33.185 29.339,33.223 29,33.223 C28.658,33.223 28.323,33.188 28,33.122" id="Fill-2158" fill="#E8E8D3" sketch:type="MSShapeGroup"></path>
            <path d="M30,24 L29.199,24 L30,24.623 L30,24" id="Fill-2159" fill="#E8E8D3" sketch:type="MSShapeGroup"></path>
            <path d="M30,31.033 L30,27.156 L28,25.6 L28,31.038 C28.314,31.15 28.648,31.223 29,31.223 C29.347,31.223 29.681,31.147 30,31.033" id="Fill-2160" fill="#E8E8D3" sketch:type="MSShapeGroup"></path>
            <path d="M30,27.156 L30,24.623 L29.199,24 L28,24 L28,25.6 L30,27.156" id="Fill-2161" fill="#E8E8D3" sketch:type="MSShapeGroup"></path>
            <path d="M29,31.223 C28.648,31.223 28.314,31.15 28,31.038 L28,33.122 C28.323,33.188 28.658,33.223 29,33.223 C29.339,33.223 29.674,33.185 30,33.118 L30,31.033 C29.681,31.147 29.347,31.223 29,31.223" id="Fill-2162" fill="#E8E8D3" sketch:type="MSShapeGroup"></path>
            <path d="M4,24 L17.701,24 C18.232,22.512 19.039,21.154 20.074,20 L4,20 L4,24" id="Fill-2163" fill="#B5B39A" sketch:type="MSShapeGroup"></path>
            <path d="M37.926,20 C38.961,21.154 39.768,22.512 40.299,24 L54,24 L54,20 L37.926,20" id="Fill-2164" fill="#B5B39A" sketch:type="MSShapeGroup"></path>
            <path d="M26.493,20.406 C26.208,21.047 26.421,21.839 26.999,22.288 L28,23.067 L28,20 L26.576,20 C26.576,20.136 26.552,20.274 26.493,20.406" id="Fill-2165" fill="#3A4C31" sketch:type="MSShapeGroup"></path>
            <path d="M37.926,20 L30,20 L30,24 L40.299,24 C39.768,22.512 38.961,21.154 37.926,20" id="Fill-2166" fill="#3A4C31" sketch:type="MSShapeGroup"></path>
            <path d="M24.527,20 L20.074,20 C19.039,21.154 18.232,22.512 17.701,24 L25.943,24 L25.771,23.866 C24.594,22.951 24.113,21.383 24.527,20" id="Fill-2167" fill="#3A4C31" sketch:type="MSShapeGroup"></path>
            <path d="M28,20 L28,23.067 L26.999,22.288 C26.421,21.839 26.208,21.047 26.493,20.406 C26.552,20.274 26.576,20.136 26.576,20 L24.527,20 C24.113,21.383 24.594,22.951 25.771,23.866 L25.943,24 L30,24 L30,20 L28,20" id="Fill-2168" fill="#B5B39A" sketch:type="MSShapeGroup"></path>
            <path d="M4,46 L54,46 L54,49 L4,49 L4,46 Z" id="Fill-2169" fill="#CECDB2" sketch:type="MSShapeGroup"></path>
            <path d="M4,49 L54,49 L54,52 L4,52 L4,49 Z" id="Fill-2170" fill="#B5B39A" sketch:type="MSShapeGroup"></path>
            <path d="M10,46 L4,46 L4,40 C7.314,40 10,42.686 10,46" id="Fill-2171" fill="#6D8C60" sketch:type="MSShapeGroup"></path>
            <path d="M54,46 L48,46 C48,42.686 50.686,40 54,40 L54,46" id="Fill-2172" fill="#6D8C60" sketch:type="MSShapeGroup"></path>
            <path d="M4,46 L10,46 L10,49 L4,49 L4,46 Z" id="Fill-2173" fill="#516B45" sketch:type="MSShapeGroup"></path>
            <path d="M4,49 L10,49 L10,52 L4,52 L4,49 Z" id="Fill-2174" fill="#3A4C31" sketch:type="MSShapeGroup"></path>
            <path d="M48,46 L54,46 L54,49 L48,49 L48,46 Z" id="Fill-2175" fill="#516B45" sketch:type="MSShapeGroup"></path>
            <path d="M48,49 L54,49 L54,52 L48,52 L48,49 Z" id="Fill-2176" fill="#3A4C31" sketch:type="MSShapeGroup"></path>
        </g>
    </g>
</svg>