<?xml version="1.0" encoding="UTF-8" standalone="no"?>
<svg width="58px" height="55px" viewBox="0 0 58 55" version="1.1" xmlns="http://www.w3.org/2000/svg" xmlns:xlink="http://www.w3.org/1999/xlink" xmlns:sketch="http://www.bohemiancoding.com/sketch/ns">
    <!-- Generator: Sketch 3.2.2 (9983) - http://www.bohemiancoding.com/sketch -->
    <title>134 - Bank (Flat)</title>
    <desc>Created with Sketch.</desc>
    <defs></defs>
    <g id="Page-1" stroke="none" stroke-width="1" fill="none" fill-rule="evenodd" sketch:type="MSPage">
        <g id="134---Bank-(Flat)" sketch:type="MSLayerGroup">
            <path d="M57,21 L1,21 L3,17 L55,17 L57,21" id="Fill-607" fill="#FFF2DB" sketch:type="MSShapeGroup"></path>
            <path d="M48,17 L29,6 L10,17 L48,17" id="Fill-608" fill="#BCAA91" sketch:type="MSShapeGroup"></path>
            <path d="M12,11 L10,16.931 C10,16.962 10.033,16.981 10.06,16.966 L20.364,11 L12,11" id="Fill-609" fill="#DBCDB8" sketch:type="MSShapeGroup"></path>
            <path d="M37.636,11 L47.94,16.966 C47.967,16.981 48,16.962 48,16.931 L46,11 L37.636,11" id="Fill-610" fill="#DBCDB8" sketch:type="MSShapeGroup"></path>
            <path d="M29,6 L37.636,11 L44.5,11 C44.5,5 37.594,0 29,0 C20.405,0 13.375,5 13.375,11 L20.364,11 L29,6" id="Fill-611" fill="#FFF2DB" sketch:type="MSShapeGroup"></path>
            <path d="M0,51 L58,51 L58,55 L0,55 L0,51 Z" id="Fill-612" fill="#DBCDB8" sketch:type="MSShapeGroup"></path>
            <path d="M1,47 L57,47 L57,51 L1,51 L1,47 Z" id="Fill-613" fill="#FFF2DB" sketch:type="MSShapeGroup"></path>
            <path d="M11,24 L11,21 L3,21 L3,24 C3,24.552 3.448,25 4,25 C4.552,25 5,25.448 5,26 L5,42 C5,42.552 4.552,43 4,43 C3.448,43 3,43.448 3,44 L3,47 L11,47 L11,44 C11,43.448 10.552,43 10,43 C9.448,43 9,42.552 9,42 L9,26 C9,25.448 9.448,25 10,25 C10.552,25 11,24.552 11,24" id="Fill-614" fill="#DBCDB8" sketch:type="MSShapeGroup"></path>
            <path d="M22,24 L22,21 L14,21 L14,24 C14,24.552 14.448,25 15,25 C15.552,25 16,25.448 16,26 L16,42 C16,42.552 15.552,43 15,43 C14.448,43 14,43.448 14,44 L14,47 L22,47 L22,44 C22,43.448 21.552,43 21,43 C20.448,43 20,42.552 20,42 L20,26 C20,25.448 20.448,25 21,25 C21.552,25 22,24.552 22,24" id="Fill-615" fill="#DBCDB8" sketch:type="MSShapeGroup"></path>
            <path d="M33,24 L33,21 L25,21 L25,24 C25,24.552 25.448,25 26,25 C26.552,25 27,25.448 27,26 L27,42 C27,42.552 26.552,43 26,43 C25.448,43 25,43.448 25,44 L25,47 L33,47 L33,44 C33,43.448 32.552,43 32,43 C31.448,43 31,42.552 31,42 L31,26 C31,25.448 31.448,25 32,25 C32.552,25 33,24.552 33,24" id="Fill-616" fill="#DBCDB8" sketch:type="MSShapeGroup"></path>
            <path d="M44,24 L44,21 L36,21 L36,24 C36,24.552 36.448,25 37,25 C37.552,25 38,25.448 38,26 L38,42 C38,42.552 37.552,43 37,43 C36.448,43 36,43.448 36,44 L36,47 L44,47 L44,44 C44,43.448 43.552,43 43,43 C42.448,43 42,42.552 42,42 L42,26 C42,25.448 42.448,25 43,25 C43.552,25 44,24.552 44,24" id="Fill-617" fill="#DBCDB8" sketch:type="MSShapeGroup"></path>
            <path d="M55,24 L55,21 L47,21 L47,24 C47,24.552 47.448,25 48,25 C48.552,25 49,25.448 49,26 L49,42 C49,42.552 48.552,43 48,43 C47.448,43 47,43.448 47,44 L47,47 L55,47 L55,44 C55,43.448 54.552,43 54,43 C53.448,43 53,42.552 53,42 L53,26 C53,25.448 53.448,25 54,25 C54.552,25 55,24.552 55,24" id="Fill-618" fill="#DBCDB8" sketch:type="MSShapeGroup"></path>
        </g>
    </g>
</svg>