<?xml version="1.0" encoding="UTF-8" standalone="no"?>
<svg width="56px" height="56px" viewBox="0 0 56 56" version="1.1" xmlns="http://www.w3.org/2000/svg" xmlns:xlink="http://www.w3.org/1999/xlink" xmlns:sketch="http://www.bohemiancoding.com/sketch/ns">
    <!-- Generator: Sketch 3.2.2 (9983) - http://www.bohemiancoding.com/sketch -->
    <title>123 - Barbershop (Flat)</title>
    <desc>Created with Sketch.</desc>
    <defs></defs>
    <g id="Page-1" stroke="none" stroke-width="1" fill="none" fill-rule="evenodd" sketch:type="MSPage">
        <g id="123---Barbershop-(Flat)" sketch:type="MSLayerGroup">
            <path d="M0,11 L56,11 L56,56 L0,56 L0,11 Z" id="Fill-229" fill="#DBCDB8" sketch:type="MSShapeGroup"></path>
            <path d="M0,5 L56,5 L56,11 L0,11 L0,5 Z" id="Fill-912" fill="#DBCDB8" sketch:type="MSShapeGroup"></path>
            <path d="M3,0 L53,0 L53,5 L3,5 L3,0 Z" id="Fill-913" fill="#FFF2DB" sketch:type="MSShapeGroup"></path>
            <path d="M4,21 L4,21 C1.791,21 0,19.209 0,17 L0,11 L8,11 L8,17 C8,19.209 6.209,21 4,21" id="Fill-918" fill="#F1786C" sketch:type="MSShapeGroup"></path>
            <path d="M12,21 L12,21 C9.791,21 8,19.209 8,17 L8,11 L16,11 L16,17 C16,19.209 14.209,21 12,21" id="Fill-919" fill="#FFFCF4" sketch:type="MSShapeGroup"></path>
            <path d="M20,21 L20,21 C17.791,21 16,19.209 16,17 L16,11 L24,11 L24,17 C24,19.209 22.209,21 20,21" id="Fill-920" fill="#F1786C" sketch:type="MSShapeGroup"></path>
            <path d="M28,21 L28,21 C25.791,21 24,19.209 24,17 L24,11 L32,11 L32,17 C32,19.209 30.209,21 28,21" id="Fill-921" fill="#FFFCF4" sketch:type="MSShapeGroup"></path>
            <path d="M36,21 L36,21 C33.791,21 32,19.209 32,17 L32,11 L40,11 L40,17 C40,19.209 38.209,21 36,21" id="Fill-922" fill="#F1786C" sketch:type="MSShapeGroup"></path>
            <path d="M44,21 L44,21 C41.791,21 40,19.209 40,17 L40,11 L48,11 L48,17 C48,19.209 46.209,21 44,21" id="Fill-923" fill="#FFFCF4" sketch:type="MSShapeGroup"></path>
            <path d="M52,21 L52,21 C49.791,21 48,19.209 48,17 L48,11 L56,11 L56,17 C56,19.209 54.209,21 52,21" id="Fill-924" fill="#F1786C" sketch:type="MSShapeGroup"></path>
            <path d="M14,27 L29,27 L29,55 L14,55 L14,27 Z" id="Fill-925" fill="#90BAE1" sketch:type="MSShapeGroup"></path>
            <path d="M15,28 L28,28 L28,54 L15,54 L15,28 Z M13,56 L30,56 L30,26 L13,26 L13,56 Z" id="Fill-926" fill="#7F6E5D" sketch:type="MSShapeGroup"></path>
            <path d="M29,27 L44,27 L44,55 L29,55 L29,27 Z" id="Fill-927" fill="#90BAE1" sketch:type="MSShapeGroup"></path>
            <path d="M30,28 L43,28 L43,54 L30,54 L30,28 Z M28,56 L45,56 L45,26 L28,26 L28,56 Z" id="Fill-928" fill="#7F6E5D" sketch:type="MSShapeGroup"></path>
            <path d="M34,33 L32,35 M40,33 L32,41 M40,39 L32,47 M20,33 L18,35 M26,33 L18,41 M26,39 L18,47" id="Stroke-929" stroke="#D0E8F9" stroke-width="2" stroke-linecap="round" sketch:type="MSShapeGroup"></path>
            <path d="M6,35 C5.447,35 5,34.553 5,34 L5,31 C5,30.447 5.447,30 6,30 C6.553,30 7,30.447 7,31 L7,34 C7,34.553 6.553,35 6,35" id="Fill-954" fill="#FFFCF4" sketch:type="MSShapeGroup"></path>
            <path d="M9,28 C9,29.657 7.657,31 6,31 C4.343,31 3,29.657 3,28 C3,26.343 4.343,25 6,25 C7.657,25 9,26.343 9,28" id="Fill-955" fill="#E64C3C" sketch:type="MSShapeGroup"></path>
            <path d="M4,34 L8,34 L8,56 L4,56 L4,34 Z" id="Fill-2127" fill="#FFFCF4" sketch:type="MSShapeGroup"></path>
            <path d="M8,34.681 L4,37.396 L4,40.979 L8,38.265 L8,34.681" id="Fill-2128" fill="#E64C3C" sketch:type="MSShapeGroup"></path>
            <path d="M8,41.823 L4,44.537 L4,48.121 L8,45.407 L8,41.823" id="Fill-2129" fill="#50508A" sketch:type="MSShapeGroup"></path>
            <path d="M8,49.021 L4,51.735 L4,55.319 L8,52.604 L8,49.021" id="Fill-2130" fill="#E64C3C" sketch:type="MSShapeGroup"></path>
        </g>
    </g>
</svg>