<?xml version="1.0" encoding="UTF-8" standalone="no"?>
<svg width="58px" height="48px" viewBox="0 0 58 48" version="1.1" xmlns="http://www.w3.org/2000/svg" xmlns:xlink="http://www.w3.org/1999/xlink" xmlns:sketch="http://www.bohemiancoding.com/sketch/ns">
    <!-- Generator: Sketch 3.2.2 (9983) - http://www.bohemiancoding.com/sketch -->
    <title>49 - Barcode (Flat)</title>
    <desc>Created with Sketch.</desc>
    <defs></defs>
    <g id="Page-1" stroke="none" stroke-width="1" fill="none" fill-rule="evenodd" sketch:type="MSPage">
        <g id="49---Barcode-(Flat)" sketch:type="MSLayerGroup">
            <path d="M0,0 L58,0 L58,48 L0,48 L0,0 Z" id="Fill-204" fill="#F0EDE0" sketch:type="MSShapeGroup"></path>
            <path d="M4,5 L4,42 M54,5 L54,42 M8,5 L8,34 M11,5 L11,34 M16,5 L16,34 M19,5 L19,34 M22,5 L22,34 M28,5 L28,34 M33,5 L33,34 M36,5 L36,34 M41,5 L41,34 M44,5 L44,34 M50,5 L50,34 M8,40 L8,39 M11,40 L11,39 M14,40 L14,39 M17,40 L17,39 M20,40 L20,39 M23,40 L23,39 M26,40 L26,39 M29,40 L29,39 M32,40 L32,39 M35,40 L35,39 M38,40 L38,39 M41,40 L41,39 M44,40 L44,39 M47,40 L47,39 M50,40 L50,39" id="Stroke-1372" stroke="#556080" stroke-width="2" stroke-linecap="round" sketch:type="MSShapeGroup"></path>
        </g>
    </g>
</svg>