<?xml version="1.0" encoding="UTF-8" standalone="no"?>
<svg width="55px" height="56px" viewBox="0 0 55 56" version="1.1" xmlns="http://www.w3.org/2000/svg" xmlns:xlink="http://www.w3.org/1999/xlink" xmlns:sketch="http://www.bohemiancoding.com/sketch/ns">
    <!-- Generator: Sketch 3.2.2 (9983) - http://www.bohemiancoding.com/sketch -->
    <title>162 - Bitcoin (Flat)</title>
    <desc>Created with Sketch.</desc>
    <defs></defs>
    <g id="Page-1" stroke="none" stroke-width="1" fill="none" fill-rule="evenodd" sketch:type="MSPage">
        <g id="162---Bitcoin-(Flat)" sketch:type="MSLayerGroup">
            <path d="M30.5,56 C16.969,56 6,43.464 6,28 C6,12.536 16.969,0 30.5,0 C44.031,0 55,12.536 55,28 C55,43.464 44.031,56 30.5,56" id="Fill-345" fill="#FCC62B" sketch:type="MSShapeGroup"></path>
            <path d="M6,28 C6,13.698 15.385,1.908 27.5,0.216 C26.516,0.079 25.516,0 24.5,0 C10.969,0 0,12.536 0,28 C0,43.464 10.969,56 24.5,56 C25.516,56 26.516,55.921 27.5,55.784 C15.385,54.092 6,42.302 6,28" id="Fill-346" fill="#E5AF17" sketch:type="MSShapeGroup"></path>
            <path d="M5.999,29.001 L0,29.001 C0.021,29.674 0.059,30.342 0.12,31.001 L6.123,31.001 C6.061,30.341 6.02,29.675 5.999,29.001" id="Fill-347" fill="#CE9811" sketch:type="MSShapeGroup"></path>
            <path d="M6.227,24.001 L0.231,24.001 C0.149,24.661 0.089,25.328 0.047,26.001 L6.047,26.001 C6.088,25.328 6.145,24.66 6.227,24.001" id="Fill-348" fill="#CE9811" sketch:type="MSShapeGroup"></path>
            <path d="M6.549,34.001 L0.549,34.001 C0.678,34.678 0.828,35.344 0.999,36.001 L6.998,36.001 C6.827,35.345 6.678,34.677 6.549,34.001" id="Fill-349" fill="#CE9811" sketch:type="MSShapeGroup"></path>
            <path d="M7.948,39.001 L1.944,39.001 C2.199,39.683 2.481,40.349 2.781,41.001 L8.783,41.001 C8.483,40.349 8.203,39.683 7.948,39.001" id="Fill-350" fill="#CE9811" sketch:type="MSShapeGroup"></path>
            <path d="M7.273,19.001 L1.279,19.001 C1.084,19.659 0.903,20.323 0.75,21.001 L6.757,21.001 C6.909,20.325 7.078,19.657 7.273,19.001" id="Fill-351" fill="#CE9811" sketch:type="MSShapeGroup"></path>
            <path d="M9.264,14.001 L3.263,14.001 C2.934,14.653 2.623,15.318 2.339,16.001 L8.343,16.001 C8.627,15.319 8.934,14.652 9.264,14.001" id="Fill-352" fill="#CE9811" sketch:type="MSShapeGroup"></path>
            <path d="M13.345,8.001 L7.337,8.001 C6.769,8.638 6.228,9.305 5.715,10.001 L11.721,10.001 C12.234,9.305 12.776,8.638 13.345,8.001" id="Fill-353" fill="#CE9811" sketch:type="MSShapeGroup"></path>
            <path d="M19.459,3.001 L13.446,3.001 C12.424,3.592 11.443,4.26 10.51,5.001 L16.519,5.001 C17.453,4.26 18.436,3.591 19.459,3.001" id="Fill-354" fill="#CE9811" sketch:type="MSShapeGroup"></path>
            <path d="M11.02,45.001 L5.017,45.001 C5.481,45.694 5.971,46.362 6.489,47.001 L12.496,47.001 C11.978,46.362 11.485,45.695 11.02,45.001" id="Fill-355" fill="#CE9811" sketch:type="MSShapeGroup"></path>
            <path d="M9.334,50.001 C10.138,50.725 10.978,51.396 11.858,52.001 L17.873,52.001 C16.988,51.394 16.139,50.728 15.332,50.001 L9.334,50.001" id="Fill-356" fill="#CE9811" sketch:type="MSShapeGroup"></path>
            <path d="M30.585,50.524 L30.5,50.524 C29.8,50.524 29.095,50.482 28.405,50.4 C27.857,50.334 27.465,49.836 27.531,49.288 C27.596,48.74 28.078,48.357 28.643,48.414 C29.253,48.487 29.879,48.524 30.5,48.524 C31.053,48.524 31.542,48.972 31.542,49.524 C31.542,50.076 31.138,50.524 30.585,50.524 L30.585,50.524 Z M36.401,49.447 C35.997,49.447 35.616,49.2 35.465,48.799 C35.27,48.283 35.532,47.706 36.048,47.511 C36.626,47.293 37.201,47.038 37.754,46.754 C38.248,46.5 38.848,46.695 39.101,47.186 C39.353,47.677 39.16,48.28 38.668,48.532 C38.047,48.852 37.403,49.138 36.753,49.382 C36.637,49.426 36.518,49.447 36.401,49.447 L36.401,49.447 Z M22.866,48.683 C22.713,48.683 22.559,48.648 22.415,48.574 C21.796,48.261 21.188,47.908 20.605,47.526 C20.143,47.224 20.014,46.604 20.316,46.142 C20.62,45.681 21.238,45.551 21.701,45.854 C22.222,46.195 22.767,46.511 23.319,46.791 C23.812,47.041 24.008,47.643 23.758,48.135 C23.583,48.482 23.231,48.683 22.866,48.683 L22.866,48.683 Z M42.976,45.125 C42.722,45.125 42.468,45.029 42.273,44.836 C41.88,44.448 41.876,43.815 42.265,43.422 C42.701,42.981 43.124,42.509 43.523,42.019 C43.871,41.591 44.5,41.525 44.929,41.874 C45.358,42.223 45.422,42.853 45.074,43.281 C44.634,43.821 44.167,44.342 43.687,44.828 C43.492,45.026 43.234,45.125 42.976,45.125 L42.976,45.125 Z M16.757,43.718 C16.467,43.718 16.181,43.593 15.983,43.352 C15.552,42.827 15.136,42.267 14.745,41.688 C14.435,41.23 14.555,40.609 15.012,40.299 C15.471,39.991 16.091,40.11 16.401,40.568 C16.758,41.096 17.138,41.606 17.53,42.083 C17.879,42.511 17.818,43.141 17.39,43.491 C17.205,43.644 16.98,43.718 16.757,43.718 L16.757,43.718 Z M47.37,38.579 C47.237,38.579 47.101,38.552 46.971,38.496 C46.465,38.275 46.233,37.685 46.454,37.179 C46.705,36.603 46.934,36.007 47.136,35.41 C47.312,34.887 47.88,34.605 48.403,34.781 C48.926,34.958 49.208,35.525 49.031,36.048 C48.811,36.7 48.561,37.349 48.288,37.978 C48.124,38.354 47.756,38.579 47.37,38.579 L47.37,38.579 Z M12.945,36.812 C12.529,36.812 12.14,36.551 11.999,36.135 C11.777,35.486 11.58,34.818 11.414,34.152 C11.281,33.616 11.607,33.074 12.143,32.94 C12.678,32.805 13.221,33.133 13.355,33.669 C13.507,34.28 13.687,34.893 13.891,35.489 C14.07,36.011 13.791,36.58 13.268,36.758 C13.161,36.795 13.052,36.812 12.945,36.812 L12.945,36.812 Z M49.261,30.915 C49.236,30.915 49.209,30.914 49.183,30.912 C48.632,30.87 48.22,30.389 48.263,29.838 C48.31,29.235 48.333,28.617 48.333,28 C48.333,27.448 48.781,26.967 49.333,26.967 C49.886,26.967 50.333,27.382 50.333,27.935 L50.333,28 C50.333,28.668 50.308,29.339 50.257,29.992 C50.216,30.517 49.779,30.915 49.261,30.915 L49.261,30.915 Z M11.667,29.011 C11.114,29.011 10.667,28.575 10.667,28.022 L10.667,28 C10.667,27.325 10.694,26.64 10.747,25.964 C10.79,25.413 11.281,25.009 11.822,25.045 C12.373,25.089 12.784,25.57 12.741,26.121 C12.692,26.745 12.667,27.377 12.667,28 C12.667,28.552 12.219,29.011 11.667,29.011 L11.667,29.011 Z M48.603,23.047 C48.156,23.047 47.748,22.745 47.634,22.291 C47.481,21.68 47.299,21.068 47.094,20.472 C46.916,19.949 47.194,19.38 47.715,19.201 C48.244,19.02 48.807,19.3 48.987,19.822 C49.209,20.472 49.407,21.139 49.574,21.804 C49.708,22.34 49.383,22.883 48.847,23.017 C48.765,23.038 48.684,23.047 48.603,23.047 L48.603,23.047 Z M12.931,21.23 C12.825,21.23 12.716,21.213 12.61,21.177 C12.087,21 11.807,20.432 11.984,19.909 C12.206,19.255 12.458,18.606 12.732,17.979 C12.955,17.474 13.541,17.242 14.049,17.466 C14.555,17.687 14.786,18.277 14.564,18.783 C14.312,19.356 14.082,19.952 13.878,20.551 C13.737,20.968 13.348,21.23 12.931,21.23 L12.931,21.23 Z M45.403,15.837 C45.083,15.837 44.767,15.683 44.574,15.397 C44.222,14.878 43.841,14.369 43.443,13.885 C43.092,13.458 43.154,12.828 43.58,12.477 C44.007,12.126 44.636,12.188 44.988,12.614 C45.425,13.146 45.843,13.706 46.23,14.276 C46.54,14.733 46.419,15.355 45.962,15.665 C45.791,15.781 45.596,15.837 45.403,15.837 L45.403,15.837 Z M16.728,14.317 C16.506,14.317 16.282,14.244 16.096,14.092 C15.668,13.742 15.605,13.112 15.955,12.685 C16.394,12.146 16.862,11.627 17.344,11.141 C17.734,10.748 18.367,10.747 18.758,11.135 C19.151,11.523 19.153,12.157 18.764,12.549 C18.327,12.99 17.903,13.461 17.503,13.95 C17.306,14.192 17.018,14.317 16.728,14.317 L16.728,14.317 Z M39.81,10.287 C39.623,10.287 39.434,10.234 39.265,10.125 C38.741,9.783 38.196,9.469 37.645,9.191 C37.152,8.943 36.954,8.341 37.203,7.848 C37.451,7.355 38.05,7.155 38.545,7.405 C39.162,7.716 39.771,8.067 40.357,8.449 C40.82,8.75 40.951,9.37 40.649,9.833 C40.458,10.126 40.137,10.287 39.81,10.287 L39.81,10.287 Z M22.828,9.337 C22.463,9.337 22.113,9.139 21.936,8.792 C21.685,8.3 21.88,7.698 22.372,7.447 C22.996,7.128 23.641,6.844 24.289,6.602 C24.811,6.407 25.382,6.67 25.576,7.188 C25.769,7.705 25.506,8.281 24.99,8.475 C24.413,8.69 23.837,8.944 23.282,9.228 C23.136,9.302 22.981,9.337 22.828,9.337 L22.828,9.337 Z M32.434,7.588 C32.396,7.588 32.357,7.586 32.318,7.581 C31.716,7.511 31.105,7.476 30.5,7.476 C29.948,7.476 29.479,7.028 29.479,6.476 C29.479,5.924 29.904,5.476 30.457,5.476 L30.5,5.476 C31.181,5.476 31.871,5.516 32.548,5.595 C33.097,5.658 33.49,6.154 33.426,6.703 C33.368,7.212 32.935,7.588 32.434,7.588 L32.434,7.588 Z" id="Fill-357" fill="#FFD947" sketch:type="MSShapeGroup"></path>
            <path d="M37.954,26.084 C39.52,24.977 40.312,23.357 40.312,21.253 C40.312,19.468 39.705,17.955 38.509,16.759 C37.312,15.563 35.744,14.956 33.849,14.956 L23.745,14.956 C23.14,14.956 22.749,15.348 22.749,15.953 C22.749,16.559 23.14,16.951 23.745,16.951 L26.061,16.948 L26.063,31.457 L23.053,31.457 C22.503,31.457 22.053,31.907 22.053,32.457 C22.053,33.007 22.503,33.458 23.053,33.458 L26.064,33.458 L26.064,37.151 L23.745,37.151 C23.14,37.151 22.749,37.542 22.749,38.148 C22.749,38.753 23.14,39.145 23.745,39.145 L35.174,39.145 C37.314,39.145 39.001,38.526 40.187,37.304 C41.369,36.086 41.968,34.509 41.968,32.615 C41.968,29.213 40.619,27.022 37.954,26.084 L37.954,26.084 Z M28.053,16.951 L33.849,16.951 C35.247,16.951 36.318,17.341 37.123,18.145 C37.927,18.95 38.318,19.945 38.318,21.187 C38.318,22.433 37.92,23.451 37.1,24.302 C36.285,25.147 35.276,25.557 34.015,25.557 L28.055,25.56 L28.053,16.956 C28.053,16.956 28.011,16.951 28.053,16.951 L28.053,16.951 Z M38.713,35.89 C37.865,36.739 36.707,37.151 35.174,37.151 L28.055,37.155 L28.054,33.458 L32.053,33.458 C32.603,33.458 33.053,33.007 33.053,32.457 C33.053,31.907 32.603,31.457 32.053,31.457 L28.054,31.457 L28.053,27.557 C28.053,27.557 28.01,27.551 28.052,27.551 L35.174,27.551 C36.707,27.551 37.865,27.963 38.713,28.812 C39.562,29.661 39.974,30.819 39.974,32.351 C39.974,33.883 39.562,35.041 38.713,35.89 L38.713,35.89 Z" id="Fill-374" fill="#CE9811" sketch:type="MSShapeGroup"></path>
        </g>
    </g>
</svg>