<?xml version="1.0" encoding="UTF-8" standalone="no"?>
<svg width="58px" height="56px" viewBox="0 0 58 56" version="1.1" xmlns="http://www.w3.org/2000/svg" xmlns:xlink="http://www.w3.org/1999/xlink" xmlns:sketch="http://www.bohemiancoding.com/sketch/ns">
    <!-- Generator: Sketch 3.2.2 (9983) - http://www.bohemiancoding.com/sketch -->
    <title>47 - Bussiness Briefcase (Flat)</title>
    <desc>Created with Sketch.</desc>
    <defs></defs>
    <g id="Page-1" stroke="none" stroke-width="1" fill="none" fill-rule="evenodd" sketch:type="MSPage">
        <g id="47---Bussiness-Briefcase-(Flat)" sketch:type="MSLayerGroup">
            <path d="M55.6,12.2 C54.561,11.421 53.298,11 52,11 L6,11 C4.702,11 3.439,11.421 2.4,12.2 C0.889,13.333 0,15.111 0,17 L0,49 L2.388,49 C4.935,49 7,51.065 7,53.612 L7,56 L51,56 L51,53.612 C51,51.065 53.065,49 55.612,49 L58,49 L58,17 C58,15.111 57.111,13.333 55.6,12.2" id="Fill-82" fill="#86573F" sketch:type="MSShapeGroup"></path>
            <path d="M11.181,8 L8.819,8 C7.815,8 7,8.814 7,9.819 L7,40 C7,41.657 8.343,43 10,43 C11.657,43 13,41.657 13,40 L13,9.819 C13,8.814 12.185,8 11.181,8" id="Fill-83" fill="#A06646" sketch:type="MSShapeGroup"></path>
            <path d="M49.181,8 L46.819,8 C45.815,8 45,8.814 45,9.819 L45,40 C45,41.657 46.343,43 48,43 C49.657,43 51,41.657 51,40 L51,9.819 C51,8.814 50.185,8 49.181,8" id="Fill-84" fill="#A06646" sketch:type="MSShapeGroup"></path>
            <path d="M7,56 L4.422,56 C1.98,56 0,54.02 0,51.578 L0,49 L2.388,49 C4.935,49 7,51.065 7,53.612 L7,56" id="Fill-860" fill="#CBB292" sketch:type="MSShapeGroup"></path>
            <path d="M58,49 L58,51.578 C58,54.02 56.02,56 53.578,56 L51,56 L51,53.612 C51,51.065 53.065,49 55.612,49 L58,49" id="Fill-861" fill="#CBB292" sketch:type="MSShapeGroup"></path>
            <path d="M16,8 L24,8 L24,11 L16,11 L16,8 Z" id="Fill-1386" fill="#D6DADB" sketch:type="MSShapeGroup"></path>
            <path d="M34,8 L42,8 L42,11 L34,11 L34,8 Z" id="Fill-1387" fill="#D6DADB" sketch:type="MSShapeGroup"></path>
            <path d="M36,5.444 L36,8 L40,8 L40,5.889 C40,2.636 37.364,0 34.111,0 L23.889,0 C20.636,0 18,2.636 18,5.889 L18,8 L22,8 L22,5.444 C22,4.331 23.131,3.575 24.159,4 C27.259,5.281 30.741,5.281 33.841,4 C34.87,3.575 36,4.331 36,5.444" id="Fill-1388" fill="#7B675F" sketch:type="MSShapeGroup"></path>
            <path d="M24,20 L34,20 L34,24 L24,24 L24,20 Z" id="Fill-1400" fill="#CBB292" sketch:type="MSShapeGroup"></path>
            <path d="M0,32 L5,32 L5,34 L0,34 L0,32 Z" id="Fill-1407" fill="#583728" sketch:type="MSShapeGroup"></path>
            <path d="M53,32 L58,32 L58,34 L53,34 L53,32 Z" id="Fill-1408" fill="#583728" sketch:type="MSShapeGroup"></path>
            <path d="M15,32 L43,32 L43,34 L15,34 L15,32 Z" id="Fill-1409" fill="#583728" sketch:type="MSShapeGroup"></path>
            <path d="M11,24 C11,24.552 10.552,25 10,25 C9.448,25 9,24.552 9,24 C9,23.448 9.448,23 10,23 C10.552,23 11,23.448 11,24" id="Fill-1410" fill="#4B3021" sketch:type="MSShapeGroup"></path>
            <path d="M11,39 C11,39.552 10.552,40 10,40 C9.448,40 9,39.552 9,39 C9,38.448 9.448,38 10,38 C10.552,38 11,38.448 11,39" id="Fill-1411" fill="#4B3021" sketch:type="MSShapeGroup"></path>
            <path d="M49,24 C49,24.552 48.552,25 48,25 C47.448,25 47,24.552 47,24 C47,23.448 47.448,23 48,23 C48.552,23 49,23.448 49,24" id="Fill-1412" fill="#4B3021" sketch:type="MSShapeGroup"></path>
            <path d="M49,39 C49,39.552 48.552,40 48,40 C47.448,40 47,39.552 47,39 C47,38.448 47.448,38 48,38 C48.552,38 49,38.448 49,39" id="Fill-1413" fill="#4B3021" sketch:type="MSShapeGroup"></path>
            <path d="M28,34 L30,34 L30,56 L28,56 L28,34 Z" id="Fill-1414" fill="#583728" sketch:type="MSShapeGroup"></path>
            <path d="M10,33 C9.448,33 9,32.553 9,32 L9,28 C9,27.447 9.448,27 10,27 C10.552,27 11,27.447 11,28 L11,32 C11,32.553 10.552,33 10,33" id="Fill-2230" fill="#CBB292" sketch:type="MSShapeGroup"></path>
            <path d="M48,33 C47.448,33 47,32.553 47,32 L47,28 C47,27.447 47.448,27 48,27 C48.552,27 49,27.447 49,28 L49,32 C49,32.553 48.552,33 48,33" id="Fill-2231" fill="#CBB292" sketch:type="MSShapeGroup"></path>
            <path d="M13,29 L13,31 L14,31 L14,35 L6,35 L6,31 L7,31 L7,29 L4,29 L4,37 L16,37 L16,29 L13,29" id="Fill-2232" fill="#CBB292" sketch:type="MSShapeGroup"></path>
            <path d="M51,29 L51,31 L52,31 L52,35 L44,35 L44,31 L45,31 L45,29 L42,29 L42,37 L54,37 L54,29 L51,29" id="Fill-2233" fill="#CBB292" sketch:type="MSShapeGroup"></path>
        </g>
    </g>
</svg>