<?xml version="1.0" encoding="UTF-8" standalone="no"?>
<svg width="45px" height="56px" viewBox="0 0 45 56" version="1.1" xmlns="http://www.w3.org/2000/svg" xmlns:xlink="http://www.w3.org/1999/xlink" xmlns:sketch="http://www.bohemiancoding.com/sketch/ns">
    <!-- Generator: Sketch 3.2.2 (9983) - http://www.bohemiancoding.com/sketch -->
    <title>63 - Calculator (Flat)</title>
    <desc>Created with Sketch.</desc>
    <defs></defs>
    <g id="Page-1" stroke="none" stroke-width="1" fill="none" fill-rule="evenodd" sketch:type="MSPage">
        <g id="63---Calculator-(Flat)" sketch:type="MSLayerGroup">
            <path d="M0,0 L45,0 L45,56 L0,56 L0,0 Z" id="Fill-1251" fill="#C9C9BA" sketch:type="MSShapeGroup"></path>
            <path d="M3,5 L42,5 L42,17 L3,17 L3,5 Z" id="Fill-1252" fill="#98A5A8" sketch:type="MSShapeGroup"></path>
            <path d="M33,32 L42,32 L42,52 L33,52 L33,32 Z" id="Fill-1253" fill="#F29C1F" sketch:type="MSShapeGroup"></path>
            <path d="M3,21 L11,21 L11,30 L3,30 L3,21 Z" id="Fill-1254" fill="#575C55" sketch:type="MSShapeGroup"></path>
            <path d="M13,21 L21,21 L21,30 L13,30 L13,21 Z" id="Fill-1255" fill="#575C55" sketch:type="MSShapeGroup"></path>
            <path d="M23,21 L31,21 L31,30 L23,30 L23,21 Z" id="Fill-1256" fill="#575C55" sketch:type="MSShapeGroup"></path>
            <path d="M33,21 L42,21 L42,30 L33,30 L33,21 Z" id="Fill-1257" fill="#FFFEF9" sketch:type="MSShapeGroup"></path>
            <path d="M3,32 L11,32 L11,41 L3,41 L3,32 Z" id="Fill-1258" fill="#575C55" sketch:type="MSShapeGroup"></path>
            <path d="M13,32 L21,32 L21,41 L13,41 L13,32 Z" id="Fill-1259" fill="#575C55" sketch:type="MSShapeGroup"></path>
            <path d="M23,32 L31,32 L31,41 L23,41 L23,32 Z" id="Fill-1260" fill="#575C55" sketch:type="MSShapeGroup"></path>
            <path d="M3,43 L11,43 L11,52 L3,52 L3,43 Z" id="Fill-1261" fill="#575C55" sketch:type="MSShapeGroup"></path>
            <path d="M13,43 L21,43 L21,52 L13,52 L13,43 Z" id="Fill-1262" fill="#575C55" sketch:type="MSShapeGroup"></path>
            <path d="M23,43 L31,43 L31,52 L23,52 L23,43 Z" id="Fill-1263" fill="#575C55" sketch:type="MSShapeGroup"></path>
            <path d="M34.382,7.577 C34.138,7.476 33.862,7.476 33.618,7.577 C33.495,7.628 33.385,7.701 33.292,7.794 L32.293,8.793 C31.902,9.184 31.902,9.816 32.293,10.207 C32.488,10.402 32.744,10.5 33,10.5 L33,13.5 C33,14.053 33.448,14.5 34,14.5 C34.552,14.5 35,14.053 35,13.5 L35,8.5 C35,8.37 34.973,8.24 34.923,8.118 C34.822,7.873 34.627,7.678 34.382,7.577" id="Fill-2259" fill="#49686D" sketch:type="MSShapeGroup"></path>
            <path d="M38.923,8.118 C38.822,7.873 38.627,7.678 38.382,7.577 C38.138,7.476 37.862,7.476 37.618,7.577 C37.495,7.628 37.385,7.701 37.292,7.794 L36.293,8.793 C35.902,9.184 35.902,9.816 36.293,10.207 C36.488,10.402 36.744,10.5 37,10.5 L37,13.5 C37,14.053 37.448,14.5 38,14.5 C38.552,14.5 39,14.053 39,13.5 L39,8.5 C39,8.37 38.973,8.24 38.923,8.118" id="Fill-2260" fill="#49686D" sketch:type="MSShapeGroup"></path>
        </g>
    </g>
</svg>