<?xml version="1.0" encoding="UTF-8" standalone="no"?>
<svg width="58px" height="58px" viewBox="0 0 58 58" version="1.1" xmlns="http://www.w3.org/2000/svg" xmlns:xlink="http://www.w3.org/1999/xlink" xmlns:sketch="http://www.bohemiancoding.com/sketch/ns">
    <!-- Generator: Sketch 3.2.2 (9983) - http://www.bohemiancoding.com/sketch -->
    <title>169 - Coins (Flat)</title>
    <desc>Created with Sketch.</desc>
    <defs></defs>
    <g id="Page-1" stroke="none" stroke-width="1" fill="none" fill-rule="evenodd" sketch:type="MSPage">
        <g id="169---Coins-(Flat)" sketch:type="MSLayerGroup">
            <path d="M52,29.211 L52,30.448 C52,37.38 40.359,43 26,43 C18.073,43 10.98,41.286 6.212,38.585 C7.82,44.831 18.748,50 32,50 C46.359,50 58,43.932 58,37 C58,33.952 55.744,31.266 52,29.211" id="Fill-145" fill="#FCC62B" sketch:type="MSShapeGroup"></path>
            <path d="M32,50 C17.641,50 6,43.932 6,37 L6,45.448 C6,52.38 17.641,58 32,58 C46.359,58 58,52.38 58,45.448 L58,37 C58,43.932 46.359,50 32,50" id="Fill-146" fill="#E5AF17" sketch:type="MSShapeGroup"></path>
            <path d="M9,51.349 C9.59,51.888 10.259,52.404 11,52.893 L11,44.603 C10.259,44.093 9.59,43.557 9,43 L9,51.349" id="Fill-147" fill="#CE9811" sketch:type="MSShapeGroup"></path>
            <path d="M53,44.603 L53,52.893 C53.741,52.404 54.41,51.888 55,51.349 L55,43 C54.41,43.557 53.741,44.093 53,44.603" id="Fill-148" fill="#CE9811" sketch:type="MSShapeGroup"></path>
            <path d="M13,54.06 C13.632,54.386 14.3,54.696 15,54.988 L15,46.796 C14.3,46.488 13.632,46.162 13,45.821 L13,54.06" id="Fill-149" fill="#CE9811" sketch:type="MSShapeGroup"></path>
            <path d="M49,54.988 C49.7,54.696 50.368,54.386 51,54.06 L51,45.821 C50.368,46.162 49.7,46.488 49,46.796 L49,54.988" id="Fill-150" fill="#CE9811" sketch:type="MSShapeGroup"></path>
            <path d="M17,55.745 C17.646,55.966 18.313,56.172 19,56.364 L19,48.25 C18.313,48.046 17.646,47.827 17,47.594 L17,55.745" id="Fill-151" fill="#CE9811" sketch:type="MSShapeGroup"></path>
            <path d="M45,56.364 C45.687,56.172 46.354,55.966 47,55.745 L47,47.594 C46.354,47.827 45.687,48.046 45,48.25 L45,56.364" id="Fill-152" fill="#CE9811" sketch:type="MSShapeGroup"></path>
            <path d="M22,57.084 C22.653,57.216 23.321,57.333 24,57.439 L24,49.395 C23.321,49.282 22.653,49.156 22,49.016 L22,57.084" id="Fill-153" fill="#CE9811" sketch:type="MSShapeGroup"></path>
            <path d="M40,57.439 C40.679,57.333 41.347,57.216 42,57.084 L42,49.016 C41.347,49.156 40.679,49.282 40,49.395 L40,57.439" id="Fill-154" fill="#CE9811" sketch:type="MSShapeGroup"></path>
            <path d="M28,57.899 C28.658,57.948 29.327,57.982 30,58.007 L30,50.004 C29.327,49.977 28.658,49.941 28,49.888 L28,57.899" id="Fill-155" fill="#CE9811" sketch:type="MSShapeGroup"></path>
            <path d="M34,58.007 C34.674,57.982 35.342,57.948 36,57.899 L36,49.888 C35.342,49.941 34.674,49.977 34,50.004 L34,58.007" id="Fill-156" fill="#CE9811" sketch:type="MSShapeGroup"></path>
            <path d="M26,34.993 C11.641,34.993 0,28.925 0,21.993 L0,30.441 C0,37.374 11.641,42.993 26,42.993 C40.359,42.993 52,37.374 52,30.441 L52,21.993 C52,28.925 40.359,34.993 26,34.993" id="Fill-157" fill="#E5AF17" sketch:type="MSShapeGroup"></path>
            <path d="M3,36.342 C3.59,36.881 4.259,37.397 5,37.887 L5,29.596 C4.259,29.086 3.59,28.551 3,27.993 L3,36.342" id="Fill-158" fill="#CE9811" sketch:type="MSShapeGroup"></path>
            <path d="M47,29.596 L47,37.887 C47.741,37.397 48.41,36.881 49,36.342 L49,27.993 C48.41,28.551 47.741,29.086 47,29.596" id="Fill-159" fill="#CE9811" sketch:type="MSShapeGroup"></path>
            <path d="M7,39.053 C7.632,39.379 8.3,39.689 9,39.981 L9,31.789 C8.3,31.481 7.632,31.156 7,30.814 L7,39.053" id="Fill-160" fill="#CE9811" sketch:type="MSShapeGroup"></path>
            <path d="M43,39.981 C43.7,39.689 44.368,39.379 45,39.053 L45,30.814 C44.368,31.156 43.7,31.481 43,31.789 L43,39.981" id="Fill-161" fill="#CE9811" sketch:type="MSShapeGroup"></path>
            <path d="M11,40.738 C11.646,40.959 12.313,41.165 13,41.357 L13,33.243 C12.313,33.039 11.646,32.82 11,32.587 L11,40.738" id="Fill-162" fill="#CE9811" sketch:type="MSShapeGroup"></path>
            <path d="M39,41.357 C39.687,41.165 40.354,40.959 41,40.738 L41,32.587 C40.354,32.82 39.687,33.039 39,33.243 L39,41.357" id="Fill-163" fill="#CE9811" sketch:type="MSShapeGroup"></path>
            <path d="M16,42.077 C16.653,42.209 17.321,42.327 18,42.432 L18,34.388 C17.321,34.275 16.653,34.149 16,34.009 L16,42.077" id="Fill-164" fill="#CE9811" sketch:type="MSShapeGroup"></path>
            <path d="M34,42.432 C34.679,42.327 35.347,42.209 36,42.077 L36,34.009 C35.347,34.149 34.679,34.275 34,34.388 L34,42.432" id="Fill-165" fill="#CE9811" sketch:type="MSShapeGroup"></path>
            <path d="M22,42.892 C22.658,42.942 23.327,42.975 24,43 L24,34.997 C23.327,34.97 22.658,34.934 22,34.881 L22,42.892" id="Fill-166" fill="#CE9811" sketch:type="MSShapeGroup"></path>
            <path d="M28,43 C28.674,42.975 29.342,42.942 30,42.892 L30,34.881 C29.342,34.934 28.674,34.97 28,34.997 L28,43" id="Fill-167" fill="#CE9811" sketch:type="MSShapeGroup"></path>
            <path d="M51.317,33.302 C48.64,38.858 38.325,43 26,43 C21.396,43 17.074,42.42 13.323,41.406 C16.951,43.87 23.408,45.966 32,45.966 C45.682,45.966 54,40.655 54,37 C54,35.781 53.061,34.487 51.317,33.302" id="Fill-168" fill="#FFD947" sketch:type="MSShapeGroup"></path>
            <path d="M31,33 C16.641,33 5,27.38 5,20.448 L5,14.796 C1.859,16.765 0,19.233 0,22 C0,28.932 11.641,35 26,35 C32.914,35 39.192,33.591 43.849,31.359 C40.058,32.401 35.675,33 31,33" id="Fill-249" fill="#FFD947" sketch:type="MSShapeGroup"></path>
            <path d="M31,24.993 C16.641,24.993 5,18.925 5,11.993 L5,20.441 C5,27.374 16.641,32.993 31,32.993 C45.359,32.993 57,27.374 57,20.441 L57,11.993 C57,18.925 45.359,24.993 31,24.993" id="Fill-2082" fill="#E5AF17" sketch:type="MSShapeGroup"></path>
            <path d="M8,26.342 C8.59,26.881 9.259,27.397 10,27.887 L10,19.596 C9.259,19.086 8.59,18.551 8,17.993 L8,26.342" id="Fill-2083" fill="#CE9811" sketch:type="MSShapeGroup"></path>
            <path d="M52,19.596 L52,27.887 C52.741,27.397 53.41,26.881 54,26.342 L54,17.993 C53.41,18.551 52.741,19.086 52,19.596" id="Fill-2084" fill="#CE9811" sketch:type="MSShapeGroup"></path>
            <path d="M12,29.053 C12.632,29.379 13.3,29.689 14,29.981 L14,21.789 C13.3,21.481 12.632,21.156 12,20.814 L12,29.053" id="Fill-2085" fill="#CE9811" sketch:type="MSShapeGroup"></path>
            <path d="M48,29.981 C48.7,29.689 49.368,29.379 50,29.053 L50,20.814 C49.368,21.156 48.7,21.481 48,21.789 L48,29.981" id="Fill-2086" fill="#CE9811" sketch:type="MSShapeGroup"></path>
            <path d="M16,30.738 C16.646,30.958 17.313,31.165 18,31.357 L18,23.243 C17.313,23.039 16.646,22.82 16,22.587 L16,30.738" id="Fill-2087" fill="#CE9811" sketch:type="MSShapeGroup"></path>
            <path d="M44,31.357 C44.687,31.165 45.354,30.958 46,30.738 L46,22.587 C45.354,22.82 44.687,23.039 44,23.243 L44,31.357" id="Fill-2088" fill="#CE9811" sketch:type="MSShapeGroup"></path>
            <path d="M21,32.077 C21.653,32.209 22.321,32.326 23,32.432 L23,24.388 C22.321,24.275 21.653,24.149 21,24.009 L21,32.077" id="Fill-2089" fill="#CE9811" sketch:type="MSShapeGroup"></path>
            <path d="M39,32.432 C39.679,32.326 40.347,32.209 41,32.077 L41,24.009 C40.347,24.149 39.679,24.275 39,24.388 L39,32.432" id="Fill-2090" fill="#CE9811" sketch:type="MSShapeGroup"></path>
            <path d="M27,32.893 C27.658,32.942 28.327,32.975 29,33 L29,24.997 C28.327,24.97 27.658,24.934 27,24.881 L27,32.893" id="Fill-2091" fill="#CE9811" sketch:type="MSShapeGroup"></path>
            <path d="M33,33 C33.674,32.975 34.342,32.942 35,32.893 L35,24.881 C34.342,24.934 33.674,24.97 33,24.997 L33,33" id="Fill-2092" fill="#CE9811" sketch:type="MSShapeGroup"></path>
            <path d="M57,12 C57,18.932 45.359,25 31,25 C16.641,25 5,18.932 5,12 C5,5.068 16.641,0 31,0 C45.359,0 57,5.068 57,12" id="Fill-2093" fill="#FCC62B" sketch:type="MSShapeGroup"></path>
            <path d="M31,20.966 C17.318,20.966 9,15.655 9,12 C9,8.345 17.318,3 31,3 C44.682,3 53,8.345 53,12 C53,15.655 44.682,20.966 31,20.966" id="Fill-2094" fill="#FFD947" sketch:type="MSShapeGroup"></path>
            <path d="M37.78,13.36 C38.601,13.186 39.082,12.68 38.904,12.103 L38.715,11.487 C38.575,11.034 38.034,10.655 37.371,10.468 C36.47,8.54 34.17,7.843 30.753,7.843 C30.592,7.843 30.433,7.846 30.277,7.853 C29.112,7.901 27.949,7.787 27.041,7.456 C26.672,7.321 26.37,7.179 26.171,7.033 C26.081,6.966 25.863,7.009 25.863,7.093 C25.863,7.239 25.874,7.412 25.906,7.604 C26.03,8.351 25.882,8.239 25.145,8.983 C24.716,9.417 24.375,9.917 24.129,10.47 C23.469,10.658 22.931,11.035 22.792,11.487 L22.603,12.103 C22.425,12.68 22.906,13.186 23.726,13.36 C23.961,14.834 24.963,16.132 27.15,16.845 L27.03,17.883 C26.999,18.159 26.759,18.416 26.411,18.542 L22,20.134 C24.576,20.673 27.512,21 30.753,21 C33.949,21 36.848,20.683 39.398,20.157 L35.083,18.544 C34.742,18.417 34.509,18.163 34.477,17.89 L34.357,16.845 C36.544,16.132 37.546,14.834 37.78,13.36" id="Fill-2095" fill="#F0C419" sketch:type="MSShapeGroup"></path>
        </g>
    </g>
</svg>