<?xml version="1.0" encoding="UTF-8" standalone="no"?>
<svg width="58px" height="37px" viewBox="0 0 58 37" version="1.1" xmlns="http://www.w3.org/2000/svg" xmlns:xlink="http://www.w3.org/1999/xlink" xmlns:sketch="http://www.bohemiancoding.com/sketch/ns">
    <!-- Generator: Sketch 3.2.2 (9983) - http://www.bohemiancoding.com/sketch -->
    <title>170 - Coin (Flat)</title>
    <desc>Created with Sketch.</desc>
    <defs></defs>
    <g id="Page-1" stroke="none" stroke-width="1" fill="none" fill-rule="evenodd" sketch:type="MSPage">
        <g id="170---Coin-(Flat)" sketch:type="MSLayerGroup">
            <path d="M58,14 C58,21.732 45.016,28 29,28 C12.984,28 0,21.732 0,14 C0,6.268 12.984,0 29,0 C45.016,0 58,6.268 58,14" id="Fill-243" fill="#D6DEE4" sketch:type="MSShapeGroup"></path>
            <path d="M29,24 C13.739,24 4,18.077 4,14 C4,9.923 13.739,4 29,4 C44.261,4 54,9.923 54,14 C54,18.077 44.261,24 29,24" id="Fill-244" fill="#BFC9D1" sketch:type="MSShapeGroup"></path>
            <path d="M37.541,14.713 C38.538,14.502 39.123,13.887 38.907,13.186 L38.677,12.437 C38.508,11.886 37.85,11.426 37.044,11.198 C35.948,8.855 33.153,8.008 29,8.008 C28.803,8.008 28.61,8.011 28.421,8.019 C27.005,8.078 25.591,7.94 24.488,7.537 C24.039,7.373 23.672,7.201 23.43,7.022 C23.321,6.942 23.056,6.993 23.056,7.095 C23.056,7.273 23.069,7.484 23.108,7.717 C23.259,8.625 23.079,8.488 22.183,9.394 C21.661,9.92 21.247,10.528 20.947,11.2 C20.146,11.429 19.492,11.888 19.323,12.437 L19.093,13.186 C18.877,13.887 19.462,14.502 20.459,14.713 C20.743,16.506 21.962,18.083 24.62,18.95 L24.475,20.211 C24.436,20.547 24.145,20.859 23.722,21.012 L18.36,22.947 C21.492,23.603 25.06,24 29,24 C32.884,24 36.408,23.615 39.508,22.976 L34.263,21.015 C33.848,20.86 33.565,20.552 33.526,20.22 L33.38,18.95 C36.038,18.083 37.257,16.506 37.541,14.713" id="Fill-245" fill="#E9EFF6" sketch:type="MSShapeGroup"></path>
            <path d="M29,28 C12.984,28 0,21.732 0,14 L0,23 C0,30.732 12.984,37 29,37 C45.016,37 58,30.732 58,23 L58,14 C58,21.732 45.016,28 29,28" id="Fill-2040" fill="#A0AAB4" sketch:type="MSShapeGroup"></path>
            <path d="M3,20.202 L3,29.202 C3.591,29.778 4.257,30.332 5,30.86 L5,21.86 C4.257,21.332 3.591,20.778 3,20.202" id="Fill-2041" fill="#BFC9D1" sketch:type="MSShapeGroup"></path>
            <path d="M53,21.86 L53,30.86 C53.743,30.332 54.409,29.778 55,29.202 L55,20.202 C54.409,20.778 53.743,21.332 53,21.86" id="Fill-2042" fill="#BFC9D1" sketch:type="MSShapeGroup"></path>
            <path d="M7,23.116 L7,32.116 C7.632,32.471 8.299,32.81 9,33.132 L9,24.132 C8.299,23.81 7.632,23.471 7,23.116" id="Fill-2043" fill="#BFC9D1" sketch:type="MSShapeGroup"></path>
            <path d="M49,24.132 L49,33.132 C49.701,32.81 50.369,32.471 51,32.116 L51,23.116 C50.369,23.471 49.701,23.81 49,24.132" id="Fill-2044" fill="#BFC9D1" sketch:type="MSShapeGroup"></path>
            <path d="M11,24.972 L11,33.973 C11.646,34.22 12.311,34.455 13,34.675 L13,25.675 C12.311,25.455 11.646,25.22 11,24.972" id="Fill-2045" fill="#BFC9D1" sketch:type="MSShapeGroup"></path>
            <path d="M45,25.675 L45,34.675 C45.689,34.455 46.354,34.22 47,33.973 L47,24.972 C46.354,25.22 45.689,25.455 45,25.675" id="Fill-2046" fill="#BFC9D1" sketch:type="MSShapeGroup"></path>
            <path d="M15,26.261 L15,35.261 C15.651,35.435 16.32,35.595 17,35.744 L17,26.744 C16.32,26.595 15.651,26.435 15,26.261" id="Fill-2047" fill="#BFC9D1" sketch:type="MSShapeGroup"></path>
            <path d="M41,26.744 L41,35.744 C41.681,35.595 42.349,35.435 43,35.261 L43,26.261 C42.349,26.435 41.681,26.595 41,26.744" id="Fill-2048" fill="#BFC9D1" sketch:type="MSShapeGroup"></path>
            <path d="M20,27.309 L20,36.309 C20.657,36.413 21.323,36.506 22,36.587 L22,27.587 C21.323,27.506 20.657,27.413 20,27.309" id="Fill-2049" fill="#BFC9D1" sketch:type="MSShapeGroup"></path>
            <path d="M36,27.587 L36,36.587 C36.677,36.506 37.343,36.413 38,36.309 L38,27.309 C37.343,27.413 36.677,27.506 36,27.587" id="Fill-2050" fill="#BFC9D1" sketch:type="MSShapeGroup"></path>
            <path d="M25,27.864 L25,36.864 C25.66,36.908 26.327,36.941 27,36.963 L27,27.963 C26.327,27.941 25.66,27.908 25,27.864" id="Fill-2051" fill="#BFC9D1" sketch:type="MSShapeGroup"></path>
            <path d="M31,27.963 L31,36.963 C31.673,36.941 32.34,36.908 33,36.864 L33,27.864 C32.34,27.908 31.673,27.941 31,27.963" id="Fill-2052" fill="#BFC9D1" sketch:type="MSShapeGroup"></path>
        </g>
    </g>
</svg>