<?xml version="1.0" encoding="UTF-8" standalone="no"?>
<svg width="58px" height="59px" viewBox="0 0 58 59" version="1.1" xmlns="http://www.w3.org/2000/svg" xmlns:xlink="http://www.w3.org/1999/xlink" xmlns:sketch="http://www.bohemiancoding.com/sketch/ns">
    <!-- Generator: Sketch 3.2.2 (9983) - http://www.bohemiancoding.com/sketch -->
    <title>160 - Coin Toss (Flat)</title>
    <desc>Created with Sketch.</desc>
    <defs></defs>
    <g id="Page-1" stroke="none" stroke-width="1" fill="none" fill-rule="evenodd" sketch:type="MSPage">
        <g id="160---Coin-Toss-(Flat)" sketch:type="MSLayerGroup">
            <path d="M46.248,7.65 C55.816,17.218 54.708,33.838 43.773,44.773 C32.838,55.708 16.218,56.816 6.65,47.248 C-2.918,37.68 -1.81,21.059 9.125,10.125 C20.059,-0.81 36.68,-1.918 46.248,7.65" id="Fill-375" fill="#BFC9D1" sketch:type="MSShapeGroup"></path>
            <path d="M23.816,48.672 C23.265,48.672 22.818,48.227 22.816,47.676 C22.814,47.124 23.26,46.674 23.812,46.672 C24.437,46.67 25.07,46.637 25.696,46.574 C26.248,46.523 26.736,46.92 26.791,47.47 C26.846,48.019 26.445,48.509 25.895,48.564 C25.206,48.633 24.508,48.67 23.82,48.672 L23.816,48.672 L23.816,48.672 Z M17.961,47.775 C17.859,47.775 17.755,47.759 17.652,47.726 C16.986,47.509 16.329,47.254 15.699,46.966 C15.197,46.737 14.975,46.144 15.205,45.641 C15.434,45.138 16.027,44.917 16.53,45.147 C17.09,45.403 17.676,45.63 18.27,45.823 C18.795,45.994 19.083,46.558 18.912,47.083 C18.775,47.506 18.383,47.775 17.961,47.775 L17.961,47.775 Z M31.559,47.17 C31.158,47.17 30.781,46.928 30.627,46.533 C30.426,46.019 30.68,45.438 31.195,45.238 C31.777,45.011 32.36,44.753 32.93,44.472 C33.426,44.229 34.025,44.432 34.269,44.927 C34.513,45.422 34.31,46.021 33.815,46.266 C33.194,46.572 32.557,46.853 31.921,47.101 C31.802,47.147 31.679,47.17 31.559,47.17 L31.559,47.17 Z M11.235,43.685 C10.996,43.685 10.758,43.598 10.568,43.421 C10.544,43.398 10.499,43.353 10.477,43.327 C10.033,42.886 9.57,42.366 9.147,41.83 C8.805,41.396 8.879,40.767 9.313,40.425 C9.747,40.084 10.375,40.157 10.717,40.591 C11.092,41.066 11.502,41.527 11.936,41.961 C12.322,42.347 12.338,42.981 11.959,43.374 C11.76,43.58 11.498,43.685 11.235,43.685 L11.235,43.685 Z M38.324,43.1 C38.041,43.1 37.76,42.98 37.563,42.749 C37.204,42.329 37.254,41.698 37.674,41.339 C38.15,40.933 38.616,40.502 39.059,40.059 C39.45,39.669 40.089,39.663 40.48,40.053 C40.87,40.443 40.876,41.07 40.485,41.461 L40.473,41.473 C39.993,41.954 39.488,42.42 38.973,42.86 C38.784,43.021 38.553,43.1 38.324,43.1 L38.324,43.1 Z M43.434,37.082 C43.258,37.082 43.081,37.036 42.919,36.938 C42.446,36.654 42.293,36.04 42.578,35.566 C42.904,35.023 43.21,34.463 43.486,33.9 C43.73,33.406 44.329,33.202 44.825,33.444 C45.32,33.688 45.524,34.288 45.281,34.783 C44.98,35.396 44.647,36.005 44.292,36.597 C44.104,36.909 43.773,37.082 43.434,37.082 L43.434,37.082 Z M7.141,36.993 C6.721,36.993 6.329,36.726 6.191,36.305 C5.976,35.647 5.794,34.968 5.65,34.285 C5.536,33.744 5.882,33.214 6.423,33.101 C6.967,32.989 7.494,33.333 7.607,33.874 C7.736,34.485 7.898,35.094 8.091,35.681 C8.264,36.206 7.978,36.771 7.453,36.943 C7.35,36.977 7.244,36.993 7.141,36.993 L7.141,36.993 Z M46.285,29.726 C46.222,29.726 46.157,29.72 46.093,29.708 C45.551,29.602 45.197,29.077 45.303,28.535 C45.424,27.914 45.516,27.286 45.577,26.667 C45.631,26.118 46.121,25.716 46.67,25.771 C47.22,25.825 47.622,26.314 47.567,26.864 C47.5,27.545 47.399,28.236 47.266,28.917 C47.172,29.395 46.754,29.726 46.285,29.726 L46.285,29.726 Z M6.323,29.162 C6.291,29.162 6.258,29.161 6.226,29.157 C5.676,29.104 5.273,28.615 5.327,28.065 C5.393,27.384 5.494,26.693 5.625,26.011 C5.731,25.469 6.254,25.115 6.797,25.219 C7.34,25.324 7.694,25.849 7.589,26.391 C7.469,27.012 7.378,27.64 7.317,28.259 C7.268,28.775 6.832,29.162 6.323,29.162 L6.323,29.162 Z M46.273,21.848 C45.81,21.848 45.394,21.523 45.295,21.051 C45.169,20.44 45.007,19.832 44.815,19.243 C44.643,18.718 44.93,18.154 45.455,17.982 C45.983,17.812 46.545,18.099 46.716,18.623 C46.931,19.281 47.112,19.961 47.253,20.644 C47.366,21.185 47.019,21.714 46.478,21.827 C46.409,21.841 46.341,21.848 46.273,21.848 L46.273,21.848 Z M8.5,21.582 C8.352,21.582 8.202,21.549 8.06,21.48 C7.565,21.237 7.359,20.638 7.603,20.142 C7.904,19.527 8.236,18.916 8.589,18.327 C8.873,17.853 9.488,17.7 9.961,17.984 C10.435,18.268 10.588,18.882 10.304,19.356 C9.98,19.896 9.675,20.457 9.398,21.022 C9.225,21.376 8.87,21.582 8.5,21.582 L8.5,21.582 Z M13.106,15.14 C12.852,15.14 12.599,15.046 12.407,14.855 C12.017,14.465 12,13.849 12.391,13.458 L13.098,14.166 L12.409,13.44 C12.899,12.95 13.396,12.49 13.901,12.058 C14.321,11.699 14.952,11.748 15.311,12.167 C15.67,12.587 15.621,13.218 15.201,13.577 C14.735,13.976 14.276,14.4 13.838,14.838 C13.639,15.038 13.372,15.14 13.106,15.14 L13.106,15.14 Z M42.985,14.711 C42.689,14.711 42.396,14.58 42.198,14.329 C41.817,13.844 41.401,13.375 40.961,12.936 C40.571,12.545 40.549,11.891 40.94,11.5 C41.331,11.11 41.942,11.088 42.333,11.479 L41.625,12.187 L42.363,11.51 C42.871,12.017 43.34,12.545 43.771,13.093 C44.112,13.527 44.037,14.155 43.603,14.497 C43.419,14.641 43.201,14.711 42.985,14.711 L42.985,14.711 Z M19.499,10.542 C19.131,10.542 18.776,10.338 18.602,9.986 C18.357,9.491 18.559,8.891 19.054,8.646 C19.67,8.341 20.307,8.059 20.946,7.808 C21.46,7.604 22.04,7.859 22.242,8.374 C22.444,8.888 22.19,9.468 21.676,9.669 C21.09,9.9 20.507,10.158 19.942,10.438 C19.799,10.509 19.648,10.542 19.499,10.542 L19.499,10.542 Z M36.754,9.829 C36.616,9.829 36.476,9.8 36.342,9.739 C35.778,9.483 35.192,9.257 34.6,9.066 C34.075,8.896 33.786,8.333 33.956,7.807 C34.125,7.282 34.689,6.994 35.214,7.163 C35.878,7.377 36.536,7.631 37.168,7.918 C37.671,8.146 37.894,8.739 37.666,9.242 C37.498,9.611 37.135,9.829 36.754,9.829 L36.754,9.829 Z M27.071,8.331 C26.564,8.331 26.129,7.947 26.077,7.433 C26.021,6.883 26.421,6.392 26.97,6.336 C27.659,6.266 28.357,6.229 29.046,6.225 L29.051,6.225 C29.601,6.225 30.048,6.669 30.051,7.22 C30.054,7.772 29.609,8.222 29.057,8.225 C28.432,8.229 27.798,8.262 27.173,8.326 C27.139,8.33 27.104,8.331 27.071,8.331 L27.071,8.331 Z" id="Fill-376" fill="#E9EFF6" sketch:type="MSShapeGroup"></path>
            <path d="M5.57,57.57 C2.813,57.57 0.57,55.327 0.57,52.57 C0.57,52.018 1.018,51.57 1.57,51.57 C2.122,51.57 2.57,52.018 2.57,52.57 C2.57,54.224 3.916,55.57 5.57,55.57 C6.122,55.57 6.57,56.018 6.57,56.57 C6.57,57.122 6.122,57.57 5.57,57.57" id="Fill-377" fill="#BFC9D1" sketch:type="MSShapeGroup"></path>
            <path d="M55.57,7.57 C55.018,7.57 54.57,7.122 54.57,6.57 C54.57,4.364 53.224,2.57 51.57,2.57 C51.018,2.57 50.57,2.122 50.57,1.57 C50.57,1.018 51.018,0.57 51.57,0.57 C54.327,0.57 56.57,3.261 56.57,6.57 C56.57,7.122 56.122,7.57 55.57,7.57" id="Fill-378" fill="#BFC9D1" sketch:type="MSShapeGroup"></path>
            <path d="M45.57,56.57 C45.018,56.57 44.57,56.122 44.57,55.57 C44.57,55.018 45.018,54.57 45.57,54.57 C50.532,54.57 54.57,50.532 54.57,45.57 C54.57,45.018 55.018,44.57 55.57,44.57 C56.122,44.57 56.57,45.018 56.57,45.57 C56.57,51.635 51.635,56.57 45.57,56.57" id="Fill-379" fill="#BFC9D1" sketch:type="MSShapeGroup"></path>
            <path d="M52.57,58.57 C52.018,58.57 51.57,58.122 51.57,57.57 C51.57,57.018 52.018,56.57 52.57,56.57 C54.196,56.57 55.57,55.654 55.57,54.57 C55.57,54.018 56.018,53.57 56.57,53.57 C57.122,53.57 57.57,54.018 57.57,54.57 C57.57,56.775 55.327,58.57 52.57,58.57" id="Fill-380" fill="#BFC9D1" sketch:type="MSShapeGroup"></path>
            <path d="M43.849,44.773 C33.735,54.886 18.763,56.586 9,49.216 C9.599,50.009 10.25,50.772 10.968,51.49 C20.536,61.058 37.157,59.95 48.091,49.016 C59.026,38.081 60.134,21.46 50.566,11.892 C49.847,11.174 49.085,10.523 48.292,9.924 C55.662,19.687 53.962,34.66 43.849,44.773" id="Fill-393" fill="#A0AAB4" sketch:type="MSShapeGroup"></path>
            <path d="M44.527,44.037 L48.783,48.293 C49.244,47.802 49.69,47.304 50.113,46.794 L45.863,42.544 C45.44,43.054 44.987,43.547 44.527,44.037" id="Fill-394" fill="#BFC9D1" sketch:type="MSShapeGroup"></path>
            <path d="M40.826,47.407 L45.084,51.665 C45.609,51.257 46.123,50.828 46.628,50.381 L42.377,46.129 C41.87,46.577 41.352,46.998 40.826,47.407" id="Fill-395" fill="#BFC9D1" sketch:type="MSShapeGroup"></path>
            <path d="M47.677,40.115 L51.931,44.37 C52.318,43.801 52.683,43.223 53.027,42.637 L48.78,38.391 C48.438,38.975 48.062,39.547 47.677,40.115" id="Fill-396" fill="#BFC9D1" sketch:type="MSShapeGroup"></path>
            <path d="M50.22,35.588 L54.48,39.848 C54.781,39.185 55.053,38.516 55.303,37.842 L51.049,33.588 C50.8,34.261 50.521,34.927 50.22,35.588" id="Fill-397" fill="#BFC9D1" sketch:type="MSShapeGroup"></path>
            <path d="M36.551,50.203 L40.807,54.46 C41.41,54.133 42.008,53.791 42.596,53.42 L38.337,49.161 C37.75,49.532 37.154,49.877 36.551,50.203" id="Fill-398" fill="#BFC9D1" sketch:type="MSShapeGroup"></path>
            <path d="M31.614,52.337 L35.869,56.592 C36.562,56.364 37.253,56.114 37.937,55.831 L33.683,51.578 C32.999,51.86 32.308,52.11 31.614,52.337" id="Fill-399" fill="#BFC9D1" sketch:type="MSShapeGroup"></path>
            <path d="M24.486,53.694 L28.745,57.953 C29.596,57.905 30.451,57.816 31.306,57.686 L27.045,53.425 C26.19,53.554 25.337,53.647 24.486,53.694" id="Fill-400" fill="#BFC9D1" sketch:type="MSShapeGroup"></path>
            <path d="M16.619,52.898 L20.889,57.168 C22.029,57.474 23.195,57.695 24.379,57.831 L20.111,53.562 C18.925,53.424 17.759,53.206 16.619,52.898" id="Fill-401" fill="#BFC9D1" sketch:type="MSShapeGroup"></path>
            <path d="M52.298,29.181 L56.55,33.432 C56.712,32.615 56.837,31.796 56.924,30.978 L52.666,26.72 C52.58,27.54 52.46,28.361 52.298,29.181" id="Fill-402" fill="#BFC9D1" sketch:type="MSShapeGroup"></path>
            <path d="M57.033,26.845 C56.977,25.765 56.857,24.697 56.663,23.646 L52.383,19.366 C52.582,20.431 52.734,21.508 52.792,22.603 L57.033,26.845" id="Fill-403" fill="#BFC9D1" sketch:type="MSShapeGroup"></path>
        </g>
    </g>
</svg>