<?xml version="1.0" encoding="UTF-8" standalone="no"?>
<svg width="58px" height="42px" viewBox="0 0 58 42" version="1.1" xmlns="http://www.w3.org/2000/svg" xmlns:xlink="http://www.w3.org/1999/xlink" xmlns:sketch="http://www.bohemiancoding.com/sketch/ns">
    <!-- Generator: Sketch 3.2.2 (9983) - http://www.bohemiancoding.com/sketch -->
    <title>147 - Credit Card (Flat)</title>
    <desc>Created with Sketch.</desc>
    <defs></defs>
    <g id="Page-1" stroke="none" stroke-width="1" fill="none" fill-rule="evenodd" sketch:type="MSPage">
        <g id="147---Credit-Card-(Flat)" sketch:type="MSLayerGroup">
            <path d="M54.783,42 L3.217,42 C1.44,42 0,40.56 0,38.783 L0,3.217 C0,1.44 1.44,0 3.217,0 L54.783,0 C56.56,0 58,1.44 58,3.217 L58,38.783 C58,40.56 56.56,42 54.783,42" id="Fill-619" fill="#D1D4D1" sketch:type="MSShapeGroup"></path>
            <path d="M0,5 L58,5 L58,13 L0,13 L0,5 Z" id="Fill-620" fill="#A5A5A4" sketch:type="MSShapeGroup"></path>
            <path d="M7,19 L15,19 M19,19 L27,19 M7,24 L8,24 M12,24 L14,24 M18,24 L19,24 M23,24 L25,24 M46,24 L47,24 M31,19 L39,19 M43,19 L51,19 M33,24 L38,24" id="Stroke-621" stroke="#FFFFFF" stroke-width="2" stroke-linecap="round" sketch:type="MSShapeGroup"></path>
            <path d="M33.362,36 C33.931,35.764 34.5,35.529 35.069,35.293 C34.134,34.509 33.199,33.726 32.263,32.942 C31.282,32.12 29.859,33.527 30.849,34.356 C31.785,35.14 32.72,35.924 33.655,36.707 C34.317,37.262 35.331,36.918 35.362,36 C35.435,33.833 35.539,31.257 37.71,30.127 C38.855,29.532 37.843,27.806 36.701,28.4 C33.856,29.881 33.459,33.112 33.362,36 Z" id="Fill-622" fill="#4482C3" sketch:type="MSShapeGroup"></path>
            <path d="M37.701,33.08 C39.803,35.365 42.591,34.297 44.88,32.893 C44.424,32.773 43.968,32.654 43.512,32.534 C44.065,33.52 44.75,34.025 45.804,34.406 C46.713,34.734 49.891,33.186 50.137,33.523 C50.889,34.553 52.625,33.557 51.864,32.513 C51.44,31.934 51.004,31.451 50.231,31.392 C48.774,31.283 46.274,33.367 45.239,31.524 C44.977,31.057 44.33,30.884 43.871,31.166 C42.455,32.035 40.604,33.284 39.115,31.666 C38.24,30.714 36.829,32.133 37.701,33.08" id="Fill-623" fill="#4482C3" sketch:type="MSShapeGroup"></path>
        </g>
    </g>
</svg>