<?xml version="1.0" encoding="UTF-8" standalone="no"?>
<svg width="59px" height="52px" viewBox="0 0 59 52" version="1.1" xmlns="http://www.w3.org/2000/svg" xmlns:xlink="http://www.w3.org/1999/xlink" xmlns:sketch="http://www.bohemiancoding.com/sketch/ns">
    <!-- Generator: Sketch 3.2.2 (9983) - http://www.bohemiancoding.com/sketch -->
    <title>11 - Deliver Heavy Load (Flat)</title>
    <desc>Created with Sketch.</desc>
    <defs></defs>
    <g id="Page-1" stroke="none" stroke-width="1" fill="none" fill-rule="evenodd" sketch:type="MSPage">
        <g id="11---Deliver-Heavy-Load-(Flat)" sketch:type="MSLayerGroup">
            <path d="M27,18 L45,18 L45,36 L27,36 L27,18 Z" id="Fill-85" fill="#8F6127" sketch:type="MSShapeGroup"></path>
            <path d="M32,15 L40,15 L40,38.569 L32,38.569 L32,15 Z M34,36.569 L38,36.569 L38,17 L34,17 L34,36.569 Z" id="Fill-86" fill="#70491E" sketch:type="MSShapeGroup"></path>
            <path d="M23,48 C23,50.209 21.209,52 19,52 C16.791,52 15,50.209 15,48 C15,45.791 16.791,44 19,44 C21.209,44 23,45.791 23,48" id="Fill-196" fill="#556080" sketch:type="MSShapeGroup"></path>
            <path d="M53,48 C53,50.209 51.209,52 49,52 C46.791,52 45,50.209 45,48 C45,45.791 46.791,44 49,44 C51.209,44 53,45.791 53,48" id="Fill-197" fill="#556080" sketch:type="MSShapeGroup"></path>
            <path d="M4,3 L9,3 M9,3 L9,43 M9,43 L58,43" id="Stroke-1706" stroke="#556080" stroke-width="2" stroke-linecap="round" sketch:type="MSShapeGroup"></path>
            <path d="M27,36 L51,36 L51,42 L27,42 L27,36 Z" id="Fill-2202" fill="#CA965A" sketch:type="MSShapeGroup"></path>
            <path d="M21,18 L27,18 L27,42 L21,42 L21,18 Z" id="Fill-2203" fill="#AD7E4E" sketch:type="MSShapeGroup"></path>
            <path d="M21,12 L45,12 L45,18 L21,18 L21,12 Z" id="Fill-2204" fill="#CA965A" sketch:type="MSShapeGroup"></path>
            <path d="M45,12 L51,12 L51,36 L45,36 L45,12 Z" id="Fill-2205" fill="#AD7E4E" sketch:type="MSShapeGroup"></path>
            <path d="M6,3 C6,4.657 4.657,6 3,6 C1.343,6 0,4.657 0,3 C0,1.343 1.343,0 3,0 C4.657,0 6,1.343 6,3" id="Fill-2206" fill="#D8625E" sketch:type="MSShapeGroup"></path>
            <path d="M49,34 C49,33.447 48.553,33 48,33 C47.447,33 47,33.447 47,34 L47,36 L49,36 L49,34" id="Fill-2219" fill="#CA965A" sketch:type="MSShapeGroup"></path>
            <path d="M43,14 C42.447,14 42,14.447 42,15 C42,15.553 42.447,16 43,16 L45,16 L45,14 L43,14" id="Fill-2220" fill="#AD7E4E" sketch:type="MSShapeGroup"></path>
            <path d="M29,40 C29.553,40 30,39.553 30,39 C30,38.447 29.553,38 29,38 L27,38 L27,40 L29,40" id="Fill-2221" fill="#AD7E4E" sketch:type="MSShapeGroup"></path>
            <path d="M23,20 C23,20.553 23.447,21 24,21 C24.553,21 25,20.553 25,20 L25,18 L23,18 L23,20" id="Fill-2222" fill="#CA965A" sketch:type="MSShapeGroup"></path>
        </g>
    </g>
</svg>