<?xml version="1.0" encoding="UTF-8" standalone="no"?>
<svg width="58px" height="58px" viewBox="0 0 58 58" version="1.1" xmlns="http://www.w3.org/2000/svg" xmlns:xlink="http://www.w3.org/1999/xlink" xmlns:sketch="http://www.bohemiancoding.com/sketch/ns">
    <!-- Generator: Sketch 3.2.2 (9983) - http://www.bohemiancoding.com/sketch -->
    <title>60 - Delivery Box (Flat)</title>
    <desc>Created with Sketch.</desc>
    <defs></defs>
    <g id="Page-1" stroke="none" stroke-width="1" fill="none" fill-rule="evenodd" sketch:type="MSPage">
        <g id="60---Delivery-Box-(Flat)" sketch:type="MSLayerGroup">
            <path d="M48,0 L10,0 L0,16 L0,58 L58,58 L58,16 L48,0" id="Fill-170" fill="#A98258" sketch:type="MSShapeGroup"></path>
            <path d="M10,0 L0,16 L58,16 L48,0 L10,0" id="Fill-171" fill="#DAAE86" sketch:type="MSShapeGroup"></path>
            <path d="M33,54 L29,50 L25,54 L23,52 L23,58 L35,58 L35,52 L33,54" id="Fill-1107" fill="#D8B18B" sketch:type="MSShapeGroup"></path>
            <path d="M20,30 L38,30 L38,46 L20,46 L20,30 Z" id="Fill-1108" fill="#E8D5B2" sketch:type="MSShapeGroup"></path>
            <path d="M30,41 L24,41 C23.448,41 23,41.447 23,42 C23,42.553 23.448,43 24,43 L30,43 C30.552,43 31,42.553 31,42 C31,41.447 30.552,41 30,41" id="Fill-1109" fill="#D4C3A5" sketch:type="MSShapeGroup"></path>
            <path d="M34,41 L33,41 C32.448,41 32,41.447 32,42 C32,42.553 32.448,43 33,43 L34,43 C34.552,43 35,42.553 35,42 C35,41.447 34.552,41 34,41" id="Fill-1110" fill="#D4C3A5" sketch:type="MSShapeGroup"></path>
            <path d="M28,35 L34,35 C34.552,35 35,34.553 35,34 C35,33.447 34.552,33 34,33 L28,33 C27.448,33 27,33.447 27,34 C27,34.553 27.448,35 28,35" id="Fill-1111" fill="#D4C3A5" sketch:type="MSShapeGroup"></path>
            <path d="M34,37 L32,37 C31.448,37 31,37.447 31,38 C31,38.553 31.448,39 32,39 L34,39 C34.552,39 35,38.553 35,38 C35,37.447 34.552,37 34,37" id="Fill-1112" fill="#D4C3A5" sketch:type="MSShapeGroup"></path>
            <path d="M24,39 L26,39 C26.552,39 27,38.553 27,38 C27,37.447 26.552,37 26,37 L24,37 C23.448,37 23,37.447 23,38 C23,38.553 23.448,39 24,39" id="Fill-1113" fill="#D4C3A5" sketch:type="MSShapeGroup"></path>
            <path d="M24,35 L25,35 C25.552,35 26,34.553 26,34 C26,33.447 25.552,33 25,33 L24,33 C23.448,33 23,33.447 23,34 C23,34.553 23.448,35 24,35" id="Fill-1114" fill="#D4C3A5" sketch:type="MSShapeGroup"></path>
            <path d="M28.29,37.29 C28.11,37.479 28,37.729 28,38 C28,38.27 28.11,38.52 28.29,38.71 C28.48,38.89 28.74,39 29,39 C29.26,39 29.52,38.89 29.71,38.71 C29.89,38.52 30,38.26 30,38 C30,37.74 29.89,37.479 29.71,37.29 C29.33,36.92 28.66,36.92 28.29,37.29" id="Fill-1115" fill="#D4C3A5" sketch:type="MSShapeGroup"></path>
            <path d="M23,0 L35,0 L35,16 L23,16 L23,0 Z" id="Fill-1975" fill="#F4D5BD" sketch:type="MSShapeGroup"></path>
            <path d="M25,21 L29,25 L33,21 L35,23 L35,16 L23,16 L23,23 L25,21" id="Fill-1976" fill="#D8B18B" sketch:type="MSShapeGroup"></path>
        </g>
    </g>
</svg>