<?xml version="1.0" encoding="UTF-8" standalone="no"?>
<svg width="59px" height="52px" viewBox="0 0 59 52" version="1.1" xmlns="http://www.w3.org/2000/svg" xmlns:xlink="http://www.w3.org/1999/xlink" xmlns:sketch="http://www.bohemiancoding.com/sketch/ns">
    <!-- Generator: Sketch 3.2.2 (9983) - http://www.bohemiancoding.com/sketch -->
    <title>12 - Deliver Items (Flat)</title>
    <desc>Created with Sketch.</desc>
    <defs></defs>
    <g id="Page-1" stroke="none" stroke-width="1" fill="none" fill-rule="evenodd" sketch:type="MSPage">
        <g id="12---Deliver-Items-(Flat)" sketch:type="MSLayerGroup">
            <path d="M15,1 L30,1 L30,43 L15,43 L15,1 Z" id="Fill-108" fill="#E8D5B2" sketch:type="MSShapeGroup"></path>
            <path d="M30,22 L56,22 L56,43 L30,43 L30,22 Z" id="Fill-109" fill="#A98258" sketch:type="MSShapeGroup"></path>
            <path d="M51,11.5 C51,17.299 46.299,22 40.5,22 C34.701,22 30,17.299 30,11.5 C30,5.701 34.701,1 40.5,1 C46.299,1 51,5.701 51,11.5" id="Fill-110" fill="#8697CB" sketch:type="MSShapeGroup"></path>
            <path d="M20,1 L25,1 L25,7 L20,7 L20,1 Z" id="Fill-111" fill="#CBB292" sketch:type="MSShapeGroup"></path>
            <path d="M40,22 L45,22 L45,28 L40,28 L40,22 Z" id="Fill-112" fill="#F4D5BD" sketch:type="MSShapeGroup"></path>
            <path d="M23,48 C23,50.209 21.209,52 19,52 C16.791,52 15,50.209 15,48 C15,45.791 16.791,44 19,44 C21.209,44 23,45.791 23,48" id="Fill-1703" fill="#556080" sketch:type="MSShapeGroup"></path>
            <path d="M53,48 C53,50.209 51.209,52 49,52 C46.791,52 45,50.209 45,48 C45,45.791 46.791,44 49,44 C51.209,44 53,45.791 53,48" id="Fill-1704" fill="#556080" sketch:type="MSShapeGroup"></path>
            <path d="M9,43 L58,43" id="Stroke-1705" stroke="#BDC3C7" stroke-width="2" stroke-linecap="round" sketch:type="MSShapeGroup"></path>
            <path d="M4,3 L9,3" id="Path" stroke="#BDC3C7" stroke-width="2" stroke-linecap="round" sketch:type="MSShapeGroup"></path>
            <path d="M9,3 L9,43" id="Path" stroke="#BDC3C7" stroke-width="2" stroke-linecap="round" sketch:type="MSShapeGroup"></path>
            <path d="M6,3 C6,4.657 4.657,6 3,6 C1.343,6 0,4.657 0,3 C0,1.343 1.343,0 3,0 C4.657,0 6,1.343 6,3" id="Fill-2196" fill="#D8625E" sketch:type="MSShapeGroup"></path>
        </g>
    </g>
</svg>