<?xml version="1.0" encoding="UTF-8" standalone="no"?>
<svg width="58px" height="59px" viewBox="0 0 58 59" version="1.1" xmlns="http://www.w3.org/2000/svg" xmlns:xlink="http://www.w3.org/1999/xlink" xmlns:sketch="http://www.bohemiancoding.com/sketch/ns">
    <!-- Generator: Sketch 3.2.2 (9983) - http://www.bohemiancoding.com/sketch -->
    <title>115 - Financial Presentation (Flat)</title>
    <desc>Created with Sketch.</desc>
    <defs></defs>
    <g id="Page-1" stroke="none" stroke-width="1" fill="none" fill-rule="evenodd" sketch:type="MSPage">
        <g id="115---Financial-Presentation-(Flat)" sketch:type="MSLayerGroup">
            <path d="M0,0 L58,0 L58,6 L0,6 L0,0 Z" id="Fill-667" fill="#556080" sketch:type="MSShapeGroup"></path>
            <path d="M2,6 L56,6 L56,48 L2,48 L2,6 Z" id="Fill-668" fill="#ECF0F1" sketch:type="MSShapeGroup"></path>
            <path d="M9,24.222 C9,26.431 10.791,28.222 13,28.222 C14.225,28.222 15.321,27.672 16.055,26.804 C16.986,25.703 16.753,24.03 15.615,23.145 L10.385,19.077 C9.247,18.192 9.014,16.519 9.945,15.418 C10.679,14.551 11.775,14 13,14 C15.209,14 17,15.791 17,18 M13,12.222 L13,14 M13,28.222 L13,30" id="Stroke-824" stroke="#24AE5F" stroke-width="2" stroke-linecap="round" sketch:type="MSShapeGroup"></path>
            <path d="M50,15 L42,15 C41.447,15 41,14.553 41,14 C41,13.447 41.447,13 42,13 L50,13 C50.553,13 51,13.447 51,14 C51,14.553 50.553,15 50,15" id="Fill-825" fill="#E57E25" sketch:type="MSShapeGroup"></path>
            <path d="M50,21 L35,21 C34.447,21 34,20.553 34,20 C34,19.447 34.447,19 35,19 L50,19 C50.553,19 51,19.447 51,20 C51,20.553 50.553,21 50,21" id="Fill-826" fill="#F0C419" sketch:type="MSShapeGroup"></path>
            <path d="M50,27 L38,27 C37.447,27 37,26.553 37,26 C37,25.447 37.447,25 38,25 L50,25 C50.553,25 51,25.447 51,26 C51,26.553 50.553,27 50,27" id="Fill-827" fill="#F3D55B" sketch:type="MSShapeGroup"></path>
            <path d="M50,33 L45,33 C44.447,33 44,32.553 44,32 C44,31.447 44.447,31 45,31 L50,31 C50.553,31 51,31.447 51,32 C51,32.553 50.553,33 50,33" id="Fill-828" fill="#E64C3C" sketch:type="MSShapeGroup"></path>
            <path d="M50,40 L42,40 C41.447,40 41,39.553 41,39 C41,38.447 41.447,38 42,38 L50,38 C50.553,38 51,38.447 51,39 C51,39.553 50.553,40 50,40" id="Fill-829" fill="#C03A2B" sketch:type="MSShapeGroup"></path>
            <path d="M9,41 L17,41 M19,36 L22,36 M9,36 L11,36 M50,11 L50,42" id="Stroke-830" stroke="#D1D4D1" stroke-width="2" stroke-linecap="round" sketch:type="MSShapeGroup"></path>
            <path d="M0,48 L58,48 L0,48 Z" id="Path" stroke="#556080" stroke-width="2" stroke-linecap="round" sketch:type="MSShapeGroup"></path>
            <circle id="Oval-7" fill="#D1D4D1" sketch:type="MSShapeGroup" cx="15" cy="36" r="1"></circle>
            <circle id="Oval-7" fill="#D1D4D1" sketch:type="MSShapeGroup" cx="22" cy="41" r="1"></circle>
            <path d="M29,48 L29,51 L29,48 Z" id="Path" stroke="#556080" stroke-width="2" stroke-linecap="round" sketch:type="MSShapeGroup"></path>
            <path d="M32,55 C32,56.657 30.657,58 29,58 C27.343,58 26,56.657 26,55 C26,53.343 27.343,52 29,52 C30.657,52 32,53.343 32,55 L32,55 Z" id="Path" stroke="#556080" stroke-width="2" stroke-linecap="round" sketch:type="MSShapeGroup"></path>
        </g>
    </g>
</svg>