<?xml version="1.0" encoding="UTF-8" standalone="no"?>
<svg width="60px" height="58px" viewBox="0 0 60 58" version="1.1" xmlns="http://www.w3.org/2000/svg" xmlns:xlink="http://www.w3.org/1999/xlink" xmlns:sketch="http://www.bohemiancoding.com/sketch/ns">
    <!-- Generator: Sketch 3.2.2 (9983) - http://www.bohemiancoding.com/sketch -->
    <title>167 - Flip Coin (Flat)</title>
    <desc>Created with Sketch.</desc>
    <defs></defs>
    <g id="Page-1" stroke="none" stroke-width="1" fill="none" fill-rule="evenodd" sketch:type="MSPage">
        <g id="167---Flip-Coin-(Flat)" sketch:type="MSLayerGroup">
            <path d="M36,58 C28.268,58 22,45.016 22,29 C22,12.984 28.268,0 36,0 C43.732,0 50,12.984 50,29 C50,45.016 43.732,58 36,58" id="Fill-246" fill="#FFC9A5" sketch:type="MSShapeGroup"></path>
            <path d="M26,29 C26,13.739 31.923,4 36,4 C40.077,4 46,13.739 46,29 C46,44.261 40.077,54 36,54 C31.923,54 26,44.261 26,29" id="Fill-247" fill="#DF9062" sketch:type="MSShapeGroup"></path>
            <path d="M35.287,37.541 C35.498,38.538 36.113,39.123 36.815,38.907 L37.563,38.677 C38.114,38.508 38.574,37.85 38.802,37.044 C41.145,35.948 41.993,33.153 41.993,29 C41.993,28.803 41.989,28.61 41.981,28.421 C41.922,27.005 42.06,25.591 42.463,24.488 C42.627,24.039 42.799,23.672 42.977,23.43 C43.058,23.321 43.007,23.056 42.904,23.056 C42.727,23.056 42.516,23.069 42.283,23.108 C41.375,23.259 41.512,23.079 40.606,22.183 C40.08,21.661 39.472,21.247 38.8,20.947 C38.571,20.146 38.112,19.492 37.563,19.323 L36.815,19.093 C36.113,18.877 35.498,19.462 35.287,20.458 C33.494,20.743 31.917,21.962 31.05,24.62 L29.789,24.475 C29.453,24.436 29.141,24.145 28.988,23.722 L27.053,18.36 C26.397,21.492 26,25.06 26,29 C26,32.884 26.385,36.408 27.024,39.508 L28.985,34.263 C29.14,33.848 29.449,33.565 29.78,33.526 L31.05,33.38 C31.917,36.038 33.494,37.257 35.287,37.541" id="Fill-248" fill="#FFD7BD" sketch:type="MSShapeGroup"></path>
            <path d="M9,45.905 C8.448,45.905 8,46.353 8,46.905 L8,50.402 C5.013,49.119 2,47.047 2,43.905 C2,41.748 3.932,39.614 7.44,37.898 C7.935,37.656 8.141,37.057 7.898,36.561 C7.656,36.065 7.058,35.859 6.561,36.102 C1.138,38.754 0,41.81 0,43.905 C0,46.324 1.278,49.623 7.011,52.147 L4.4,54.105 C3.958,54.437 3.869,55.063 4.2,55.505 C4.397,55.767 4.697,55.905 5.001,55.905 C5.21,55.905 5.42,55.84 5.6,55.705 L9.6,52.705 C9.619,52.691 9.628,52.669 9.646,52.653 C9.699,52.608 9.74,52.556 9.782,52.501 C9.82,52.451 9.858,52.403 9.886,52.348 C9.907,52.306 9.922,52.263 9.937,52.218 C9.938,52.216 9.94,52.214 9.94,52.211 C9.945,52.199 9.942,52.186 9.946,52.173 C9.965,52.106 9.982,52.042 9.986,51.973 C9.988,51.949 10,51.929 10,51.905 L10,46.905 C10,46.353 9.552,45.905 9,45.905" id="Fill-294" fill="#D1D4D1" sketch:type="MSShapeGroup"></path>
            <path d="M52.989,4.853 L55.6,2.895 C56.042,2.563 56.131,1.937 55.8,1.495 C55.469,1.054 54.844,0.962 54.4,1.295 L50.4,4.295 C50.381,4.309 50.372,4.331 50.354,4.347 C50.301,4.392 50.26,4.444 50.218,4.499 C50.18,4.55 50.142,4.597 50.114,4.652 C50.093,4.695 50.078,4.737 50.063,4.783 C50.062,4.785 50.06,4.786 50.06,4.789 C50.055,4.801 50.058,4.814 50.054,4.827 C50.035,4.894 50.019,4.958 50.014,5.027 C50.012,5.05 50,5.071 50,5.095 L50,10.095 C50,10.647 50.448,11.095 51,11.095 C51.552,11.095 52,10.647 52,10.095 L52,6.598 C54.987,7.881 58,9.953 58,13.095 C58,15.252 56.068,17.386 52.56,19.102 C52.065,19.344 51.859,19.943 52.102,20.439 C52.275,20.794 52.631,21 53.001,21 C53.148,21 53.298,20.967 53.44,20.898 C58.862,18.246 60,15.19 60,13.095 C60,10.676 58.722,7.377 52.989,4.853" id="Fill-295" fill="#D1D4D1" sketch:type="MSShapeGroup"></path>
            <path d="M22,29 C22,12.984 28.268,0 36,0 L27,0 C19.268,0 13,12.984 13,29 C13,45.016 19.268,58 27,58 L36,58 C28.268,58 22,45.016 22,29" id="Fill-2069" fill="#F3B289" sketch:type="MSShapeGroup"></path>
            <path d="M29.798,3 L20.798,3 C20.222,3.591 19.668,4.257 19.14,5 L28.14,5 C28.668,4.257 29.222,3.591 29.798,3" id="Fill-2070" fill="#DF9062" sketch:type="MSShapeGroup"></path>
            <path d="M28.14,53 L19.14,53 C19.668,53.743 20.222,54.409 20.798,55 L29.798,55 C29.222,54.409 28.668,53.743 28.14,53" id="Fill-2071" fill="#DF9062" sketch:type="MSShapeGroup"></path>
            <path d="M26.884,7 L17.884,7 C17.529,7.631 17.19,8.299 16.868,9 L25.868,9 C26.19,8.299 26.529,7.631 26.884,7" id="Fill-2072" fill="#DF9062" sketch:type="MSShapeGroup"></path>
            <path d="M25.868,49 L16.868,49 C17.19,49.701 17.529,50.369 17.884,51 L26.884,51 C26.529,50.369 26.19,49.701 25.868,49" id="Fill-2073" fill="#DF9062" sketch:type="MSShapeGroup"></path>
            <path d="M25.028,11 L16.028,11 C15.78,11.646 15.545,12.311 15.325,13 L24.325,13 C24.545,12.311 24.78,11.646 25.028,11" id="Fill-2074" fill="#DF9062" sketch:type="MSShapeGroup"></path>
            <path d="M24.325,45 L15.325,45 C15.545,45.689 15.78,46.354 16.028,47 L25.028,47 C24.78,46.354 24.545,45.689 24.325,45" id="Fill-2075" fill="#DF9062" sketch:type="MSShapeGroup"></path>
            <path d="M23.739,15 L14.739,15 C14.565,15.651 14.405,16.32 14.256,17 L23.256,17 C23.405,16.32 23.565,15.651 23.739,15" id="Fill-2076" fill="#DF9062" sketch:type="MSShapeGroup"></path>
            <path d="M23.256,41 L14.256,41 C14.405,41.681 14.565,42.349 14.739,43 L23.739,43 C23.565,42.349 23.405,41.681 23.256,41" id="Fill-2077" fill="#DF9062" sketch:type="MSShapeGroup"></path>
            <path d="M22.691,20 L13.691,20 C13.587,20.657 13.494,21.323 13.413,22 L22.413,22 C22.494,21.323 22.587,20.657 22.691,20" id="Fill-2078" fill="#DF9062" sketch:type="MSShapeGroup"></path>
            <path d="M22.413,36 L13.413,36 C13.494,36.677 13.587,37.343 13.691,38 L22.691,38 C22.587,37.343 22.494,36.677 22.413,36" id="Fill-2079" fill="#DF9062" sketch:type="MSShapeGroup"></path>
            <path d="M22.136,25 L13.136,25 C13.092,25.66 13.059,26.327 13.037,27 L22.037,27 C22.059,26.327 22.092,25.66 22.136,25" id="Fill-2080" fill="#DF9062" sketch:type="MSShapeGroup"></path>
            <path d="M22.037,31 L13.037,31 C13.059,31.673 13.092,32.34 13.136,33 L22.136,33 C22.092,32.34 22.059,31.673 22.037,31" id="Fill-2081" fill="#DF9062" sketch:type="MSShapeGroup"></path>
        </g>
    </g>
</svg>