<?xml version="1.0" encoding="UTF-8" standalone="no"?>
<svg width="58px" height="58px" viewBox="0 0 58 58" version="1.1" xmlns="http://www.w3.org/2000/svg" xmlns:xlink="http://www.w3.org/1999/xlink" xmlns:sketch="http://www.bohemiancoding.com/sketch/ns">
    <!-- Generator: Sketch 3.2.2 (9983) - http://www.bohemiancoding.com/sketch -->
    <title>58 - Fragile Goods (Flat)</title>
    <desc>Created with Sketch.</desc>
    <defs></defs>
    <g id="Page-1" stroke="none" stroke-width="1" fill="none" fill-rule="evenodd" sketch:type="MSPage">
        <g id="58---Fragile-Goods-(Flat)" sketch:type="MSLayerGroup">
            <path d="M48,0 L10,0 L0,16 L0,58 L58,58 L58,16 L48,0" id="Fill-1116" fill="#A98258" sketch:type="MSShapeGroup"></path>
            <path d="M35,27 L23,27 C21.9,27 21,26.1 21,25 C21,23.9 21.9,23 23,23 L35,23 C36.1,23 37,23.9 37,25 C37,26.1 36.1,27 35,27" id="Fill-1199" fill="#5B4631" sketch:type="MSShapeGroup"></path>
            <path d="M37,51 L21,51 C20.448,51 20,51.447 20,52 C20,52.553 20.448,53 21,53 L37,53 C37.552,53 38,52.553 38,52 C38,51.447 37.552,51 37,51" id="Fill-1200" fill="#E8D5B2" sketch:type="MSShapeGroup"></path>
            <path d="M21,43 C21.256,43 21.512,42.902 21.707,42.707 L23,41.414 L23,48 C23,48.553 23.448,49 24,49 C24.552,49 25,48.553 25,48 L25,41.414 L26.293,42.707 C26.488,42.902 26.744,43 27,43 C27.256,43 27.512,42.902 27.707,42.707 C28.098,42.316 28.098,41.684 27.707,41.293 L24.708,38.294 C24.615,38.201 24.505,38.128 24.382,38.077 C24.138,37.976 23.862,37.976 23.618,38.077 C23.495,38.128 23.385,38.201 23.292,38.294 L20.293,41.293 C19.902,41.684 19.902,42.316 20.293,42.707 C20.488,42.902 20.744,43 21,43" id="Fill-1201" fill="#E8D5B2" sketch:type="MSShapeGroup"></path>
            <path d="M31,43 C31.256,43 31.512,42.902 31.707,42.707 L33,41.414 L33,48 C33,48.553 33.448,49 34,49 C34.552,49 35,48.553 35,48 L35,41.414 L36.293,42.707 C36.488,42.902 36.744,43 37,43 C37.256,43 37.512,42.902 37.707,42.707 C38.098,42.316 38.098,41.684 37.707,41.293 L34.708,38.294 C34.615,38.201 34.505,38.128 34.382,38.077 C34.138,37.976 33.862,37.976 33.618,38.077 C33.495,38.128 33.385,38.201 33.292,38.294 L30.293,41.293 C29.902,41.684 29.902,42.316 30.293,42.707 C30.488,42.902 30.744,43 31,43" id="Fill-1202" fill="#E8D5B2" sketch:type="MSShapeGroup"></path>
            <path d="M10,0 L0,16 L58,16 L48,0 L10,0" id="Fill-1979" fill="#DAAE86" sketch:type="MSShapeGroup"></path>
            <path d="M28,0 L30,0 L30,16 L28,16 L28,0 Z" id="Fill-2038" fill="#F4D5BD" sketch:type="MSShapeGroup"></path>
        </g>
    </g>
</svg>