<?xml version="1.0" encoding="UTF-8" standalone="no"?>
<svg width="58px" height="56px" viewBox="0 0 58 56" version="1.1" xmlns="http://www.w3.org/2000/svg" xmlns:xlink="http://www.w3.org/1999/xlink" xmlns:sketch="http://www.bohemiancoding.com/sketch/ns">
    <!-- Generator: Sketch 3.2.2 (9983) - http://www.bohemiancoding.com/sketch -->
    <title>152 - Get Money (Flat)</title>
    <desc>Created with Sketch.</desc>
    <defs></defs>
    <g id="Page-1" stroke="none" stroke-width="1" fill="none" fill-rule="evenodd" sketch:type="MSPage">
        <g id="152---Get-Money-(Flat)" sketch:type="MSLayerGroup">
            <path d="M57.645,34.569 C56.392,32.824 55.353,32.409 51,34.698 L42.326,40 C41.336,40.526 39.746,40.799 37.987,40.934 C37.988,40.957 38,40.976 38,41 C38,41.552 37.553,42 37,42 L20,42 C17,42 17,43.505 17,44 C17,44.552 16.553,45 16,45 C15.447,45 15,44.552 15,44 C15,41.495 16.869,40 20,40 L34.236,40 C34.772,39.441 34.859,38.582 33.974,37.261 C32.568,35.163 30.144,33.972 27.619,33.972 L23.718,33.972 C21.444,33.972 19.201,33.296 17.386,31.927 C13.149,28.733 5,29 5,29 L5,53 L19,53 C20.997,53 22.992,52.849 24.966,52.549 L38,50.567 C38.445,50.567 38.877,50.515 39.295,50.422 C39.302,50.421 39.308,50.42 39.315,50.419 C40.37,50.271 41.334,49.737 42.104,49 L57.3,37.166 C58.074,36.524 58.231,35.386 57.645,34.569" id="Fill-792" fill="#FAC176" sketch:type="MSShapeGroup"></path>
            <path d="M30.725,41.01 C30.359,41.005 30.014,41 29.718,41 C29.718,41 30.135,41.028 30.725,41.01" id="Fill-793" fill="#0096E6" sketch:type="MSShapeGroup"></path>
            <path d="M15,44 C15,44.552 15.447,45 16,45 C16.553,45 17,44.552 17,44 C17,43.505 17,42 20,42 L37,42 C37.553,42 38,41.552 38,41 C38,40.976 37.988,40.957 37.987,40.934 C35.499,41.125 32.68,41.042 30.725,41.01 C30.135,41.028 29.718,41 29.718,41 C30.014,41 30.359,41.005 30.725,41.01 C31.808,40.979 33.475,40.794 34.236,40 L20,40 C16.869,40 15,41.495 15,44" id="Fill-794" fill="#E2AB69" sketch:type="MSShapeGroup"></path>
            <path d="M49,8 C49,12.418 45.418,16 41,16 C36.582,16 33,12.418 33,8 C33,3.582 36.582,0 41,0 C45.418,0 49,3.582 49,8" id="Fill-795" fill="#E5AF17" sketch:type="MSShapeGroup"></path>
            <path d="M21.806,33.803 C22.435,33.911 23.074,33.972 23.718,33.972 L27.619,33.972 C28.252,33.972 28.879,34.047 29.485,34.192 C32.155,32.896 34,30.167 34,27 C34,22.582 30.418,19 26,19 C21.582,19 18,22.582 18,27 C18,29.878 19.525,32.394 21.806,33.803" id="Fill-796" fill="#E5AF17" sketch:type="MSShapeGroup"></path>
            <path d="M30,27 C30,29.209 28.209,31 26,31 C23.791,31 22,29.209 22,27 C22,24.791 23.791,23 26,23 C28.209,23 30,24.791 30,27" id="Fill-1816" fill="#FCC62B" sketch:type="MSShapeGroup"></path>
            <path d="M45,8 C45,10.209 43.209,12 41,12 C38.791,12 37,10.209 37,8 C37,5.791 38.791,4 41,4 C43.209,4 45,5.791 45,8" id="Fill-1818" fill="#FCC62B" sketch:type="MSShapeGroup"></path>
            <path d="M0,25.972 L5,25.972 L5,56 L0,56 L0,25.972 Z" id="Fill-2097" fill="#556080" sketch:type="MSShapeGroup"></path>
        </g>
    </g>
</svg>