<?xml version="1.0" encoding="UTF-8" standalone="no"?>
<svg width="58px" height="58px" viewBox="0 0 58 58" version="1.1" xmlns="http://www.w3.org/2000/svg" xmlns:xlink="http://www.w3.org/1999/xlink" xmlns:sketch="http://www.bohemiancoding.com/sketch/ns">
    <!-- Generator: Sketch 3.2.2 (9983) - http://www.bohemiancoding.com/sketch -->
    <title>59 - Goods Box (Flat)</title>
    <desc>Created with Sketch.</desc>
    <defs></defs>
    <g id="Page-1" stroke="none" stroke-width="1" fill="none" fill-rule="evenodd" sketch:type="MSPage">
        <g id="59---Goods-Box-(Flat)" sketch:type="MSLayerGroup">
            <path d="M48,0 L10,0 L0,16 L0,58 L58,58 L58,16 L48,0" id="Fill-1977" fill="#A98258" sketch:type="MSShapeGroup"></path>
            <path d="M10,0 L0,16 L58,16 L48,0 L10,0" id="Fill-1978" fill="#DAAE86" sketch:type="MSShapeGroup"></path>
            <path d="M33,54 L29,50 L25,54 L23,52 L23,58 L35,58 L35,52 L33,54" id="Fill-1980" fill="#D8B18B" sketch:type="MSShapeGroup"></path>
            <path d="M23,0 L35,0 L35,16 L23,16 L23,0 Z" id="Fill-1981" fill="#F4D5BD" sketch:type="MSShapeGroup"></path>
            <path d="M25,21 L29,25 L33,21 L35,23 L35,16 L23,16 L23,23 L25,21" id="Fill-1982" fill="#D8B18B" sketch:type="MSShapeGroup"></path>
        </g>
    </g>
</svg>