<?xml version="1.0" encoding="UTF-8" standalone="no"?>
<svg width="60px" height="60px" viewBox="0 0 60 60" version="1.1" xmlns="http://www.w3.org/2000/svg" xmlns:xlink="http://www.w3.org/1999/xlink" xmlns:sketch="http://www.bohemiancoding.com/sketch/ns">
    <!-- Generator: Sketch 3.2.2 (9983) - http://www.bohemiancoding.com/sketch -->
    <title>93 - Graph (Flat)</title>
    <desc>Created with Sketch.</desc>
    <defs></defs>
    <g id="Page-1" stroke="none" stroke-width="1" fill="none" fill-rule="evenodd" sketch:type="MSPage">
        <g id="93---Graph-(Flat)" sketch:type="MSLayerGroup" transform="translate(1.000000, 1.000000)">
            <path d="M17.306,32.28 L12.293,37.293 C11.902,37.684 11.902,38.316 12.293,38.707 C12.488,38.902 12.744,39 13,39 C13.256,39 13.512,38.902 13.707,38.707 L18.72,33.694 C19.11,33.304 19.11,32.671 18.72,32.28 C18.329,31.89 17.696,31.89 17.306,32.28" id="Fill-190" fill="#9777A8" sketch:type="MSShapeGroup"></path>
            <path d="M26.694,32.28 C26.304,31.89 25.671,31.89 25.28,32.28 C24.89,32.671 24.89,33.304 25.28,33.694 L31.306,39.72 C31.501,39.915 31.757,40.013 32.013,40.013 C32.269,40.013 32.524,39.915 32.72,39.72 C33.11,39.329 33.11,38.696 32.72,38.306 L26.694,32.28" id="Fill-191" fill="#9777A8" sketch:type="MSShapeGroup"></path>
            <path d="M49.707,29.293 C49.316,28.902 48.684,28.902 48.293,29.293 L38.293,39.293 C37.902,39.684 37.902,40.316 38.293,40.707 C38.488,40.902 38.744,41 39,41 C39.256,41 39.512,40.902 39.707,40.707 L49.707,30.707 C50.098,30.316 50.098,29.684 49.707,29.293" id="Fill-192" fill="#9777A8" sketch:type="MSShapeGroup"></path>
            <path d="M2,0 L2,58 M0,56 L58,56" id="Stroke-717" stroke="#556080" stroke-width="2" stroke-linecap="round" sketch:type="MSShapeGroup"></path>
            <path d="M6,27 L8,27 M6,23 L8,23 M6,19 L8,19 M6,15 L8,15 M6,11 L8,11 M6,7 L8,7 M6,3 L8,3" id="Stroke-718" stroke="#BDC3C7" stroke-width="2" stroke-linecap="round" sketch:type="MSShapeGroup"></path>
            <path d="M15.012,41.988 C15.012,44.749 12.774,46.988 10.012,46.988 C7.251,46.988 5.012,44.749 5.012,41.988 C5.012,39.226 7.251,36.988 10.012,36.988 C12.774,36.988 15.012,39.226 15.012,41.988" id="Fill-736" fill="#F29C1F" sketch:type="MSShapeGroup"></path>
            <path d="M27,30 C27,32.761 24.761,35 22,35 C19.239,35 17,32.761 17,30 C17,27.239 19.239,25 22,25 C24.761,25 27,27.239 27,30" id="Fill-737" fill="#71C285" sketch:type="MSShapeGroup"></path>
            <path d="M58,27 C58,29.761 55.761,32 53,32 C50.239,32 48,29.761 48,27 C48,24.239 50.239,22 53,22 C55.761,22 58,24.239 58,27" id="Fill-738" fill="#71C285" sketch:type="MSShapeGroup"></path>
            <path d="M40,43 C40,45.761 37.761,48 35,48 C32.239,48 30,45.761 30,43 C30,40.239 32.239,38 35,38 C37.761,38 40,40.239 40,43" id="Fill-739" fill="#F29C1F" sketch:type="MSShapeGroup"></path>
        </g>
    </g>
</svg>