<?xml version="1.0" encoding="UTF-8" standalone="no"?>
<svg width="58px" height="58px" viewBox="0 0 58 58" version="1.1" xmlns="http://www.w3.org/2000/svg" xmlns:xlink="http://www.w3.org/1999/xlink" xmlns:sketch="http://www.bohemiancoding.com/sketch/ns">
    <!-- Generator: Sketch 3.2.2 (9983) - http://www.bohemiancoding.com/sketch -->
    <title>127 - Grocery Store (Flat)</title>
    <desc>Created with Sketch.</desc>
    <defs></defs>
    <g id="Page-1" stroke="none" stroke-width="1" fill="none" fill-rule="evenodd" sketch:type="MSPage">
        <g id="127---Grocery-Store-(Flat)" sketch:type="MSLayerGroup">
            <path d="M3,11 L54,11 L54,41 L3,41 L3,11 Z" id="Fill-134" fill="#F9EBB0" sketch:type="MSShapeGroup"></path>
            <path d="M56,41 L2,41 L0,52 L2,58 L56,58 L58,52 L56,41" id="Fill-138" fill="#7F5B53" sketch:type="MSShapeGroup"></path>
            <path d="M17,0 L14,0 L14,0.001 C7.502,0.012 1.839,4.373 0.104,10.637 C-0.109,11.406 0.189,11 0.378,11 L29,11 L29,0 L17,0" id="Fill-139" fill="#71C285" sketch:type="MSShapeGroup"></path>
            <path d="M45,11 L57.645,11 C57.823,11 58.047,11.172 57.903,10.659 L57.896,10.636 C56.277,4.689 51.075,0.473 45,0.043 L45,0 L29,0 L29,11 L45,11" id="Fill-140" fill="#F3D55B" sketch:type="MSShapeGroup"></path>
            <path d="M16.999,37.972 L9,29.973 L10.126,28.847 C13.922,25.051 20.078,25.051 23.874,28.847 L25,29.973 L17.001,37.972 C17,37.973 17,37.973 16.999,37.972" id="Fill-1292" fill="#BDC3C7" sketch:type="MSShapeGroup"></path>
            <path d="M15,37.973 L19,37.973 L19,40.973 L15,40.973 L15,37.973 Z" id="Fill-1293" fill="#A5A5A4" sketch:type="MSShapeGroup"></path>
            <path d="M42,37 C42,38.657 40.657,40 39,40 C37.343,40 36,38.657 36,37 C36,35.343 37.343,34 39,34 C40.657,34 42,35.343 42,37" id="Fill-1294" fill="#13A085" sketch:type="MSShapeGroup"></path>
            <path d="M48,37 C48,38.657 46.657,40 45,40 C43.343,40 42,38.657 42,37 C42,35.343 43.343,34 45,34 C46.657,34 48,35.343 48,37" id="Fill-1295" fill="#4C8056" sketch:type="MSShapeGroup"></path>
            <path d="M45,32 C45,33.657 43.657,35 42,35 C40.343,35 39,33.657 39,32 C39,30.343 40.343,29 42,29 C43.657,29 45,30.343 45,32" id="Fill-1296" fill="#71C285" sketch:type="MSShapeGroup"></path>
            <path d="M29,11 L15,11 C16.158,4.63 21.706,0 28.18,0 L29,0 L29,11" id="Fill-1322" fill="#F3D55B" sketch:type="MSShapeGroup"></path>
            <path d="M43,11 L29,11 L29,0 L29.82,0 C36.294,0 41.842,4.63 43,11" id="Fill-1323" fill="#71C285" sketch:type="MSShapeGroup"></path>
            <path d="M8,20 L7,20 C3.134,20 0,16.866 0,13 L0,11.16 C0,11.072 0.072,11 0.16,11 L15,11 L15,13 C15,16.866 11.866,20 8,20" id="Fill-1324" fill="#68AD77" sketch:type="MSShapeGroup"></path>
            <path d="M22,20 L22,20 C18.134,20 15,16.866 15,13 L15,11 L29,11 L29,13 C29,16.866 25.866,20 22,20" id="Fill-1325" fill="#DDC357" sketch:type="MSShapeGroup"></path>
            <path d="M36,20 L36,20 C32.134,20 29,16.866 29,13 L29,11 L43,11 L43,13 C43,16.866 39.866,20 36,20" id="Fill-1326" fill="#68AD77" sketch:type="MSShapeGroup"></path>
            <path d="M51,20 L50,20 C46.134,20 43,16.866 43,13 L43,11 L57.84,11 C57.928,11 58,11.072 58,11.16 L58,13 C58,16.866 54.866,20 51,20" id="Fill-1327" fill="#DDC357" sketch:type="MSShapeGroup"></path>
            <path d="M2,17.894 L2,41 L6,41 L6,19.92 C4.442,19.697 3.05,18.967 2,17.894" id="Fill-1344" fill="#7F6E5D" sketch:type="MSShapeGroup"></path>
            <path d="M52,19.92 L52,41 L56,41 L56,17.894 C54.95,18.967 53.558,19.697 52,19.92" id="Fill-1345" fill="#7F6E5D" sketch:type="MSShapeGroup"></path>
            <path d="M0,52 L2,58 L21,58 L19,52 L0,52" id="Fill-1916" fill="#805333" sketch:type="MSShapeGroup"></path>
            <path d="M39,52 L37,58 L56,58 L58,52 L39,52" id="Fill-1917" fill="#805333" sketch:type="MSShapeGroup"></path>
            <path d="M37,58 L21,58 L19,52 L39,52 L37,58" id="Fill-1918" fill="#563621" sketch:type="MSShapeGroup"></path>
            <path d="M16.999,37.972 C17,37.973 17,37.973 17.001,37.972 L18,36.973 L18,29.974 C18,29.421 17.552,28.974 17,28.974 C16.448,28.974 16,29.421 16,29.974 L16,36.973 L16.999,37.972" id="Fill-2112" fill="#ECF0F1" sketch:type="MSShapeGroup"></path>
            <path d="M24,38.974 L10,38.974 C9.448,38.974 9,38.526 9,37.974 C9,37.421 9.448,36.974 10,36.974 L24,36.974 C24.552,36.974 25,37.421 25,37.974 C25,38.526 24.552,38.974 24,38.974" id="Fill-2113" fill="#D1D4D1" sketch:type="MSShapeGroup"></path>
            <path d="M21,41 L2,41 L0,52 L19,52 L21,41" id="Fill-2121" fill="#24AE5F" sketch:type="MSShapeGroup"></path>
            <path d="M58,52 L56,41 L37,41 L39,52 L58,52" id="Fill-2122" fill="#71C285" sketch:type="MSShapeGroup"></path>
            <path d="M37,41 L21,41 L19,52 L39,52 L37,41" id="Fill-2123" fill="#4C8056" sketch:type="MSShapeGroup"></path>
        </g>
    </g>
</svg>