<?xml version="1.0" encoding="UTF-8" standalone="no"?>
<svg width="60px" height="60px" viewBox="0 0 60 60" version="1.1" xmlns="http://www.w3.org/2000/svg" xmlns:xlink="http://www.w3.org/1999/xlink" xmlns:sketch="http://www.bohemiancoding.com/sketch/ns">
    <!-- Generator: Sketch 3.2.2 (9983) - http://www.bohemiancoding.com/sketch -->
    <title>128 - Hot Dog Stand (Flat)</title>
    <desc>Created with Sketch.</desc>
    <defs></defs>
    <g id="Page-1" stroke="none" stroke-width="1" fill="none" fill-rule="evenodd" sketch:type="MSPage">
        <g id="128---Hot-Dog-Stand-(Flat)" sketch:type="MSLayerGroup">
            <path d="M31,0 C30.448,0 30,0.447 30,1 L30,29 C30,29.553 30.448,30 31,30 C31.552,30 32,29.553 32,29 L32,1 C32,0.447 31.552,0 31,0" id="Fill-1346" fill="#556080" sketch:type="MSShapeGroup"></path>
            <path d="M15,27 L1,27 C0.448,27 0,27.447 0,28 C0,28.553 0.448,29 1,29 L7,29 L7,33 L4,33 L4,44 L12,44 L12,33 L9,33 L9,29 L15,29 C15.552,29 16,28.553 16,28 C16,27.447 15.552,27 15,27" id="Fill-1347" fill="#556080" sketch:type="MSShapeGroup"></path>
            <path d="M50,38 C49.448,38 49,37.553 49,37 C49,31.486 53.486,27 59,27 C59.552,27 60,27.447 60,28 C60,28.553 59.552,29 59,29 C54.589,29 51,32.589 51,37 C51,37.553 50.552,38 50,38" id="Fill-1348" fill="#556080" sketch:type="MSShapeGroup"></path>
            <path d="M12,34 L12,54 L49.779,54 C49.849,53.922 49.922,53.849 50,53.779 L50,34 L12,34" id="Fill-1349" fill="#F3D55B" sketch:type="MSShapeGroup"></path>
            <path d="M16,50 L46,50 L46,38 L16,38 L16,50 Z" id="Fill-1350" fill="#C03A2B" sketch:type="MSShapeGroup"></path>
            <path d="M28,29 L34,29 L34,34 L28,34 L28,29 Z" id="Fill-1351" fill="#556080" sketch:type="MSShapeGroup"></path>
            <path d="M40,28 L40,26 C40,25.447 39.552,25 39,25 C38.448,25 38,25.447 38,26 L38,28 L37,28 L37,34 L41,34 L41,28 L40,28" id="Fill-1352" fill="#C03A2B" sketch:type="MSShapeGroup"></path>
            <path d="M47,28 L47,26 C47,25.447 46.552,25 46,25 C45.448,25 45,25.447 45,26 L45,28 L44,28 L44,34 L48,34 L48,28 L47,28" id="Fill-1353" fill="#F0C419" sketch:type="MSShapeGroup"></path>
            <path d="M18,18 C18,17.981 18.002,17.963 18.002,17.944 C18.002,17.943 18.001,17.942 18,17.942 L18,18" id="Fill-2101" fill="#F0C419" sketch:type="MSShapeGroup"></path>
            <path d="M18.002,17.944 C21.319,21.941 27.684,21.941 31,17.942 L31,3 C23.831,3 18.029,9.679 18.002,17.944" id="Fill-2102" fill="#F0C419" sketch:type="MSShapeGroup"></path>
            <path d="M30,3 C16.775,3 6.051,9.686 6.002,17.944 C9.319,21.941 14.684,21.941 18,17.941 L18,18 C18,9.709 23.815,3 31,3 L30,3" id="Fill-2103" fill="#D25627" sketch:type="MSShapeGroup"></path>
            <path d="M6,18 C6,17.981 6.002,17.963 6.002,17.944 C6.002,17.943 6.001,17.942 6,17.941 L6,18" id="Fill-2104" fill="#D25627" sketch:type="MSShapeGroup"></path>
            <path d="M44,18 C44,17.981 43.998,17.963 43.998,17.944 C43.998,17.943 43.999,17.942 44,17.942 L44,18" id="Fill-2105" fill="#D25627" sketch:type="MSShapeGroup"></path>
            <path d="M43.998,17.944 C40.681,21.941 34.316,21.941 31,17.942 L31,3 C38.169,3 43.971,9.679 43.998,17.944" id="Fill-2106" fill="#D25627" sketch:type="MSShapeGroup"></path>
            <path d="M32,3 C45.225,3 55.949,9.686 55.998,17.944 C52.681,21.941 47.316,21.941 44,17.941 L44,18 C44,9.709 38.185,3 31,3 L32,3" id="Fill-2107" fill="#F0C419" sketch:type="MSShapeGroup"></path>
            <path d="M56,18 C56,17.981 55.998,17.963 55.998,17.944 C55.999,17.943 55.999,17.942 56,17.941 L56,18" id="Fill-2108" fill="#F0C419" sketch:type="MSShapeGroup"></path>
            <path d="M54,56 C54,57.657 52.657,59 51,59 C49.343,59 48,57.657 48,56 C48,54.343 49.343,53 51,53 C52.657,53 54,54.343 54,56" id="Fill-2109" fill="#556080" sketch:type="MSShapeGroup"></path>
            <path d="M18,49.5 C17.173,49.5 16.5,50.173 16.5,51 C16.5,51.827 17.173,52.5 18,52.5 C18.827,52.5 19.5,51.827 19.5,51 C19.5,50.173 18.827,49.5 18,49.5 L18,49.5 Z M18,51.5 C17.724,51.5 17.5,51.275 17.5,51 C17.5,50.725 17.724,50.5 18,50.5 C18.276,50.5 18.5,50.725 18.5,51 C18.5,51.275 18.276,51.5 18,51.5 L18,51.5 Z" id="Fill-2110" fill="#556080" sketch:type="MSShapeGroup"></path>
            <path d="M24.379,57.341 C25.998,55.713 27,53.472 27,51 C27,48.528 25.998,46.287 24.379,44.659 C24.373,44.652 24.371,44.643 24.364,44.636 C24.357,44.629 24.347,44.627 24.34,44.62 C22.712,43.002 20.471,42 18,42 C15.529,42 13.288,43.002 11.66,44.62 C11.653,44.627 11.643,44.629 11.636,44.636 C11.629,44.643 11.627,44.652 11.621,44.659 C10.002,46.287 9,48.528 9,51 C9,53.472 10.002,55.713 11.621,57.341 C11.627,57.348 11.629,57.357 11.636,57.364 C11.643,57.371 11.653,57.373 11.66,57.38 C13.288,58.998 15.529,60 18,60 C20.471,60 22.712,58.998 24.34,57.38 C24.347,57.373 24.357,57.371 24.364,57.364 C24.371,57.357 24.373,57.348 24.379,57.341 L24.379,57.341 Z M21.536,53.121 C21.145,52.731 20.512,52.731 20.122,53.121 C19.731,53.512 19.731,54.145 20.122,54.535 L22.184,56.598 C21.269,57.284 20.183,57.75 19,57.92 L19,55 C19,54.447 18.552,54 18,54 C17.448,54 17,54.447 17,55 L17,57.92 C15.817,57.75 14.731,57.284 13.816,56.598 L15.878,54.535 C16.269,54.145 16.269,53.512 15.878,53.121 C15.488,52.731 14.854,52.731 14.464,53.121 L12.402,55.184 C11.716,54.269 11.25,53.183 11.08,52 L14,52 C14.552,52 15,51.553 15,51 C15,50.447 14.552,50 14,50 L11.08,50 C11.25,48.817 11.716,47.731 12.402,46.816 L14.464,48.879 C14.66,49.074 14.915,49.172 15.171,49.172 C15.427,49.172 15.683,49.074 15.878,48.879 C16.269,48.488 16.269,47.856 15.878,47.465 L13.816,45.402 C14.731,44.716 15.817,44.25 17,44.08 L17,47 C17,47.553 17.448,48 18,48 C18.552,48 19,47.553 19,47 L19,44.08 C20.183,44.25 21.269,44.716 22.184,45.402 L20.122,47.465 C19.731,47.856 19.731,48.488 20.122,48.879 C20.317,49.074 20.573,49.172 20.829,49.172 C21.085,49.172 21.341,49.074 21.536,48.879 L23.598,46.816 C24.284,47.731 24.75,48.817 24.92,50 L22,50 C21.448,50 21,50.447 21,51 C21,51.553 21.448,52 22,52 L24.92,52 C24.75,53.183 24.284,54.269 23.598,55.184 L21.536,53.121 L21.536,53.121 Z" id="Fill-2111" fill="#556080" sketch:type="MSShapeGroup"></path>
        </g>
    </g>
</svg>