<?xml version="1.0" encoding="UTF-8" standalone="no"?>
<svg width="60px" height="55px" viewBox="0 0 60 55" version="1.1" xmlns="http://www.w3.org/2000/svg" xmlns:xlink="http://www.w3.org/1999/xlink" xmlns:sketch="http://www.bohemiancoding.com/sketch/ns">
    <!-- Generator: Sketch 3.2.2 (9983) - http://www.bohemiancoding.com/sketch -->
    <title>90 - Increasing Stats (Flat)</title>
    <desc>Created with Sketch.</desc>
    <defs></defs>
    <g id="Page-1" stroke="none" stroke-width="1" fill="none" fill-rule="evenodd" sketch:type="MSPage">
        <g id="90---Increasing-Stats-(Flat)" sketch:type="MSLayerGroup" transform="translate(1.000000, 1.000000)">
            <path d="M2,39 L12,39 L12,53 L2,53 L2,39 Z" id="Fill-176" fill="#7ED09E" sketch:type="MSShapeGroup"></path>
            <path d="M17,30 L27,30 L27,53 L17,53 L17,30 Z" id="Fill-177" fill="#71C285" sketch:type="MSShapeGroup"></path>
            <path d="M32,22 L42,22 L42,53 L32,53 L32,22 Z" id="Fill-178" fill="#4FBA6F" sketch:type="MSShapeGroup"></path>
            <path d="M47,14 L57,14 L57,53 L47,53 L47,14 Z" id="Fill-179" fill="#24AE5F" sketch:type="MSShapeGroup"></path>
            <path d="M0,53 L58,53" id="Stroke-720" stroke="#556080" stroke-width="2" stroke-linecap="round" sketch:type="MSShapeGroup"></path>
            <path d="M7.029,23.33 L46,0.83 M46,0.83 L37.438,0 M42.438,8.66 L46,0.83" id="Stroke-721" stroke="#BDC3C7" stroke-width="2" stroke-linecap="round" sketch:type="MSShapeGroup"></path>
        </g>
    </g>
</svg>