<?xml version="1.0" encoding="UTF-8" standalone="no"?>
<svg width="59px" height="55px" viewBox="0 0 59 55" version="1.1" xmlns="http://www.w3.org/2000/svg" xmlns:xlink="http://www.w3.org/1999/xlink" xmlns:sketch="http://www.bohemiancoding.com/sketch/ns">
    <!-- Generator: Sketch 3.2.2 (9983) - http://www.bohemiancoding.com/sketch -->
    <title>42 - Insert Card (Flat)</title>
    <desc>Created with Sketch.</desc>
    <defs></defs>
    <g id="Page-1" stroke="none" stroke-width="1" fill="none" fill-rule="evenodd" sketch:type="MSPage">
        <g id="42---Insert-Card-(Flat)" sketch:type="MSLayerGroup">
            <path d="M52,26 L46,32 M52,26 L58,32 M52,26 L52,54" id="Stroke-1419" stroke="#88C057" stroke-width="2" stroke-linecap="round" sketch:type="MSShapeGroup"></path>
            <path d="M0,5 L46,5 L46,0 L0,0 L0,5 Z" id="Fill-1889" fill="#2C2F38" sketch:type="MSShapeGroup"></path>
            <path d="M3,3 L3,50.783 C3,52.56 4.44,54 6.217,54 L39.783,54 C41.56,54 43,52.56 43,50.783 L43,3 L3,3" id="Fill-1890" fill="#D6A35F" sketch:type="MSShapeGroup"></path>
            <path d="M9,14 L15,14 L15,22 L9,22 L9,14 Z" id="Fill-1891" fill="#ECF0F1" sketch:type="MSShapeGroup"></path>
            <path d="M9,26 L15,26 L15,34 L9,34 L9,26 Z" id="Fill-1892" fill="#ECF0F1" sketch:type="MSShapeGroup"></path>
            <path d="M9,38 L15,38 L15,46 L9,46 L9,38 Z" id="Fill-1893" fill="#ECF0F1" sketch:type="MSShapeGroup"></path>
            <path d="M35,33 C34.447,33 34,32.553 34,32 L34,23 C34,22.447 34.447,22 35,22 C35.553,22 36,22.447 36,23 L36,32 C36,32.553 35.553,33 35,33" id="Fill-1894" fill="#AD8049" sketch:type="MSShapeGroup"></path>
            <path d="M35,46 C34.447,46 34,45.553 34,45 L34,36 C34,35.447 34.447,35 35,35 C35.553,35 36,35.447 36,36 L36,45 C36,45.553 35.553,46 35,46" id="Fill-1895" fill="#AD8049" sketch:type="MSShapeGroup"></path>
            <path d="M30,25 C29.447,25 29,24.553 29,24 L29,23 C29,22.447 29.447,22 30,22 C30.553,22 31,22.447 31,23 L31,24 C31,24.553 30.553,25 30,25" id="Fill-1896" fill="#AD8049" sketch:type="MSShapeGroup"></path>
            <path d="M30,31 C29.447,31 29,30.553 29,30 L29,28 C29,27.447 29.447,27 30,27 C30.553,27 31,27.447 31,28 L31,30 C31,30.553 30.553,31 30,31" id="Fill-1897" fill="#AD8049" sketch:type="MSShapeGroup"></path>
            <path d="M30,36 C29.447,36 29,35.553 29,35 L29,34 C29,33.447 29.447,33 30,33 C30.553,33 31,33.447 31,34 L31,35 C31,35.553 30.553,36 30,36" id="Fill-1898" fill="#AD8049" sketch:type="MSShapeGroup"></path>
            <path d="M30,42 C29.447,42 29,41.553 29,41 L29,39 C29,38.447 29.447,38 30,38 C30.553,38 31,38.447 31,39 L31,41 C31,41.553 30.553,42 30,42" id="Fill-1899" fill="#AD8049" sketch:type="MSShapeGroup"></path>
            <path d="M30,46 C29.74,46 29.479,45.89 29.29,45.71 C29.109,45.52 29,45.26 29,45 C29,44.74 29.109,44.479 29.29,44.29 C29.67,43.92 30.34,43.92 30.71,44.29 C30.89,44.479 31,44.74 31,45 C31,45.27 30.89,45.52 30.71,45.71 C30.52,45.89 30.27,46 30,46" id="Fill-1900" fill="#AD8049" sketch:type="MSShapeGroup"></path>
            <path d="M9,3 L15,3 L15,10 L9,10 L9,3 Z" id="Fill-1901" fill="#ECF0F1" sketch:type="MSShapeGroup"></path>
            <path d="M26,4 L26,16.745 C26,17.438 26.562,18 27.255,18 L36.745,18 C37.438,18 38,17.438 38,16.745 L38,4 L26,4 L26,4 Z" id="Fill-1902" fill="#F0C419" sketch:type="MSShapeGroup"></path>
            <path d="M26,4 L26,16.745 C26,17.438 26.562,18 27.255,18 L36.745,18 C37.438,18 38,17.438 38,16.745 L38,4 L26,4 L26,4 Z" id="Stroke-1903" stroke="#F3D55B" stroke-width="2" stroke-linecap="round" sketch:type="MSShapeGroup"></path>
            <path d="M36.745,18 C37.438,18 38,17.438 38,16.745 L38,9.255 C38,8.562 37.438,8 36.745,8 L27.255,8 C26.562,8 26,8.562 26,9.255 L26,10.745 C26,11.438 26.562,12 27.255,12 L32.745,12 C33.438,12 34,12.562 34,13.255 L34,16.745 C34,17.438 34.562,18 35.255,18 L36.745,18 L36.745,18 Z" id="Fill-1904" fill="#F0C419" sketch:type="MSShapeGroup"></path>
            <path d="M36.745,18 C37.438,18 38,17.438 38,16.745 L38,9.255 C38,8.562 37.438,8 36.745,8 L27.255,8 C26.562,8 26,8.562 26,9.255 L26,10.745 C26,11.438 26.562,12 27.255,12 L32.745,12 C33.438,12 34,12.562 34,13.255 L34,16.745 C34,17.438 34.562,18 35.255,18 L36.745,18 L36.745,18 Z" id="Stroke-1905" stroke="#F3D55B" stroke-width="2" stroke-linecap="round" sketch:type="MSShapeGroup"></path>
            <path d="M30,12 L30,18" id="Fill-1906" fill="#F0C419" sketch:type="MSShapeGroup"></path>
            <path d="M30,12 L30,18" id="Stroke-1907" stroke="#F3D55B" stroke-width="2" stroke-linecap="round" sketch:type="MSShapeGroup"></path>
            <path d="M34,8 L34,4" id="Fill-1908" fill="#F0C419" sketch:type="MSShapeGroup"></path>
            <path d="M34,8 L34,4" id="Stroke-1909" stroke="#F3D55B" stroke-width="2" stroke-linecap="round" sketch:type="MSShapeGroup"></path>
            <path d="M30,8 L30,4" id="Fill-1910" fill="#F0C419" sketch:type="MSShapeGroup"></path>
            <path d="M30,8 L30,4" id="Stroke-1911" stroke="#F3D55B" stroke-width="2" stroke-linecap="round" sketch:type="MSShapeGroup"></path>
        </g>
    </g>
</svg>