<?xml version="1.0" encoding="UTF-8" standalone="no"?>
<svg width="58px" height="58px" viewBox="0 0 58 58" version="1.1" xmlns="http://www.w3.org/2000/svg" xmlns:xlink="http://www.w3.org/1999/xlink" xmlns:sketch="http://www.bohemiancoding.com/sketch/ns">
    <!-- Generator: Sketch 3.2.2 (9983) - http://www.bohemiancoding.com/sketch -->
    <title>151 - Insert a Coin (Flat)</title>
    <desc>Created with Sketch.</desc>
    <defs></defs>
    <g id="Page-1" stroke="none" stroke-width="1" fill="none" fill-rule="evenodd" sketch:type="MSPage">
        <g id="151---Insert-a-Coin-(Flat)" sketch:type="MSLayerGroup">
            <path d="M52,15.568 C47.839,6.887 39.772,1 30.5,1 C16.969,1 6,13.536 6,29 C6,44.464 16.969,57 30.5,57 C39.772,57 47.839,51.113 52,42.432 L52,15.568" id="Fill-241" fill="#F4D597" sketch:type="MSShapeGroup"></path>
            <path d="M6,29 C6,14.698 15.385,2.908 27.5,1.216 C26.516,1.079 25.516,1 24.5,1 C10.969,1 0,13.536 0,29 C0,44.464 10.969,57 24.5,57 C25.516,57 26.516,56.921 27.5,56.784 C15.385,55.092 6,43.302 6,29" id="Fill-757" fill="#ECBB63" sketch:type="MSShapeGroup"></path>
            <path d="M5.998,30 L0,30 C0.021,30.673 0.058,31.341 0.12,32 L6.122,32 C6.061,31.34 6.019,30.674 5.998,30" id="Fill-758" fill="#F6D28B" sketch:type="MSShapeGroup"></path>
            <path d="M6.227,25 L0.231,25 C0.148,25.66 0.089,26.327 0.047,27 L6.046,27 C6.088,26.328 6.145,25.659 6.227,25" id="Fill-759" fill="#F6D28B" sketch:type="MSShapeGroup"></path>
            <path d="M6.548,35 L0.548,35 C0.677,35.677 0.827,36.344 0.999,37 L6.998,37 C6.827,36.344 6.678,35.677 6.548,35" id="Fill-760" fill="#F6D28B" sketch:type="MSShapeGroup"></path>
            <path d="M7.947,40 L1.943,40 C2.198,40.682 2.48,41.348 2.78,42 L8.782,42 C8.482,41.348 8.203,40.682 7.947,40" id="Fill-761" fill="#F6D28B" sketch:type="MSShapeGroup"></path>
            <path d="M7.273,20 L1.279,20 C1.084,20.658 0.902,21.322 0.75,22 L6.756,22 C6.909,21.324 7.078,20.656 7.273,20" id="Fill-762" fill="#F6D28B" sketch:type="MSShapeGroup"></path>
            <path d="M9.264,15 L3.264,15 C2.934,15.652 2.623,16.317 2.339,17 L8.343,17 C8.627,16.318 8.935,15.651 9.264,15" id="Fill-763" fill="#F6D28B" sketch:type="MSShapeGroup"></path>
            <path d="M13.345,9 L7.338,9 C6.77,9.637 6.228,10.304 5.716,11 L11.721,11 C12.234,10.304 12.776,9.637 13.345,9" id="Fill-764" fill="#F6D28B" sketch:type="MSShapeGroup"></path>
            <path d="M19.46,4 L13.447,4 C12.425,4.591 11.444,5.259 10.511,6 L16.52,6 C17.455,5.259 18.437,4.59 19.46,4" id="Fill-765" fill="#F6D28B" sketch:type="MSShapeGroup"></path>
            <path d="M11.019,46 L5.016,46 C5.479,46.693 5.97,47.361 6.488,48 L12.495,48 C11.976,47.36 11.484,46.694 11.019,46" id="Fill-766" fill="#F6D28B" sketch:type="MSShapeGroup"></path>
            <path d="M9.333,51 C10.136,51.724 10.977,52.395 11.856,53 L17.871,53 C16.987,52.393 16.137,51.727 15.33,51 L9.333,51" id="Fill-767" fill="#F6D28B" sketch:type="MSShapeGroup"></path>
            <path d="M30.584,51.524 L30.5,51.524 C29.8,51.524 29.095,51.482 28.404,51.4 C27.856,51.334 27.465,50.836 27.53,50.288 C27.596,49.74 28.077,49.357 28.643,49.414 C29.253,49.487 29.879,49.524 30.5,49.524 C31.053,49.524 31.542,49.972 31.542,50.524 C31.542,51.076 31.137,51.524 30.584,51.524 L30.584,51.524 Z M36.398,50.447 C35.994,50.447 35.613,50.2 35.463,49.799 C35.268,49.283 35.529,48.706 36.046,48.511 C36.623,48.293 37.197,48.039 37.752,47.754 C38.245,47.5 38.847,47.696 39.099,48.187 C39.351,48.678 39.157,49.281 38.666,49.533 C38.044,49.853 37.399,50.138 36.751,50.382 C36.635,50.426 36.516,50.447 36.398,50.447 L36.398,50.447 Z M22.865,49.683 C22.713,49.683 22.559,49.648 22.414,49.574 C21.796,49.261 21.188,48.908 20.604,48.526 C20.143,48.224 20.014,47.604 20.315,47.142 C20.619,46.681 21.238,46.551 21.7,46.854 C22.222,47.195 22.767,47.511 23.318,47.791 C23.812,48.041 24.008,48.643 23.758,49.135 C23.582,49.482 23.23,49.683 22.865,49.683 L22.865,49.683 Z M42.975,46.126 C42.721,46.126 42.467,46.03 42.272,45.837 C41.879,45.45 41.875,44.816 42.263,44.423 C42.701,43.98 43.124,43.508 43.521,43.02 C43.869,42.593 44.499,42.526 44.928,42.875 C45.356,43.224 45.421,43.854 45.072,44.282 C44.635,44.819 44.169,45.34 43.687,45.829 C43.49,46.027 43.232,46.126 42.975,46.126 L42.975,46.126 Z M16.759,44.717 C16.469,44.717 16.183,44.592 15.984,44.351 C15.554,43.826 15.138,43.266 14.746,42.687 C14.437,42.229 14.557,41.608 15.014,41.298 C15.473,40.989 16.093,41.109 16.402,41.567 C16.76,42.095 17.14,42.605 17.531,43.083 C17.881,43.51 17.819,44.14 17.392,44.49 C17.206,44.643 16.981,44.717 16.759,44.717 L16.759,44.717 Z M47.368,39.581 C47.235,39.581 47.1,39.554 46.97,39.498 C46.464,39.277 46.231,38.687 46.452,38.181 C46.703,37.604 46.933,37.009 47.135,36.412 C47.312,35.889 47.879,35.608 48.401,35.783 C48.925,35.96 49.206,36.527 49.029,37.05 C48.81,37.702 48.56,38.351 48.286,38.98 C48.122,39.356 47.755,39.581 47.368,39.581 L47.368,39.581 Z M12.945,37.812 C12.529,37.812 12.141,37.55 11.999,37.135 C11.777,36.485 11.58,35.818 11.414,35.152 C11.281,34.616 11.607,34.073 12.144,33.94 C12.678,33.805 13.222,34.133 13.355,34.668 C13.508,35.28 13.688,35.892 13.892,36.488 C14.07,37.011 13.791,37.579 13.269,37.758 C13.161,37.794 13.053,37.812 12.945,37.812 L12.945,37.812 Z M49.261,31.917 C49.235,31.917 49.209,31.916 49.183,31.914 C48.632,31.871 48.22,31.39 48.263,30.839 C48.31,30.236 48.333,29.618 48.333,29 C48.333,28.448 48.78,27.968 49.333,27.968 C49.886,27.968 50.333,28.384 50.333,28.936 L50.333,29 C50.333,29.669 50.308,30.34 50.257,30.994 C50.216,31.518 49.778,31.917 49.261,31.917 L49.261,31.917 Z M11.667,30.011 C11.114,30.011 10.667,29.574 10.667,29.021 L10.667,29 C10.667,28.325 10.694,27.639 10.747,26.963 C10.791,26.413 11.282,26.005 11.822,26.044 C12.373,26.088 12.784,26.569 12.741,27.12 C12.692,27.744 12.667,28.377 12.667,29 C12.667,29.552 12.22,30.011 11.667,30.011 L11.667,30.011 Z M48.604,24.049 C48.156,24.049 47.748,23.746 47.635,23.292 C47.481,22.682 47.3,22.07 47.095,21.473 C46.916,20.951 47.194,20.382 47.717,20.203 C48.238,20.022 48.808,20.302 48.987,20.824 C49.21,21.474 49.407,22.141 49.574,22.806 C49.709,23.341 49.384,23.884 48.848,24.019 C48.766,24.039 48.685,24.049 48.604,24.049 L48.604,24.049 Z M12.932,22.23 C12.825,22.23 12.717,22.212 12.61,22.177 C12.088,21.999 11.808,21.432 11.984,20.908 C12.206,20.254 12.458,19.605 12.732,18.979 C12.954,18.474 13.541,18.24 14.05,18.465 C14.556,18.687 14.786,19.277 14.564,19.783 C14.312,20.356 14.082,20.951 13.879,21.551 C13.737,21.967 13.349,22.23 12.932,22.23 L12.932,22.23 Z M45.404,16.837 C45.084,16.837 44.769,16.684 44.575,16.398 C44.224,15.878 43.843,15.37 43.444,14.885 C43.094,14.459 43.155,13.829 43.581,13.478 C44.009,13.127 44.638,13.188 44.989,13.615 C45.427,14.146 45.845,14.706 46.231,15.277 C46.541,15.734 46.421,16.355 45.964,16.666 C45.792,16.782 45.598,16.837 45.404,16.837 L45.404,16.837 Z M16.729,15.316 C16.508,15.316 16.283,15.243 16.098,15.091 C15.67,14.741 15.606,14.111 15.956,13.684 C16.396,13.146 16.863,12.626 17.346,12.14 C17.735,11.747 18.368,11.746 18.76,12.134 C19.152,12.522 19.154,13.156 18.766,13.548 C18.328,13.989 17.904,14.46 17.505,14.949 C17.308,15.191 17.02,15.316 16.729,15.316 L16.729,15.316 Z M39.811,11.288 C39.623,11.288 39.434,11.235 39.266,11.125 C38.742,10.784 38.197,10.47 37.646,10.192 C37.152,9.943 36.954,9.342 37.203,8.849 C37.451,8.355 38.05,8.157 38.546,8.406 C39.163,8.717 39.772,9.068 40.357,9.45 C40.82,9.752 40.951,10.372 40.649,10.834 C40.457,11.128 40.137,11.288 39.811,11.288 L39.811,11.288 Z M22.829,10.337 C22.465,10.337 22.114,10.138 21.937,9.791 C21.687,9.299 21.882,8.697 22.374,8.446 C22.999,8.127 23.644,7.843 24.29,7.602 C24.813,7.408 25.384,7.671 25.577,8.188 C25.771,8.705 25.508,9.281 24.991,9.475 C24.415,9.69 23.84,9.943 23.282,10.228 C23.137,10.302 22.981,10.337 22.829,10.337 L22.829,10.337 Z M32.436,8.588 C32.397,8.588 32.358,8.586 32.318,8.582 C31.719,8.512 31.106,8.476 30.5,8.476 C29.947,8.476 29.479,8.029 29.479,7.477 C29.479,6.924 29.905,6.477 30.458,6.477 L30.458,7.477 L30.471,6.477 C31.176,6.495 31.874,6.516 32.551,6.595 C33.099,6.659 33.492,7.156 33.428,7.704 C33.368,8.213 32.937,8.588 32.436,8.588 L32.436,8.588 Z" id="Fill-788" fill="#EFC06D" sketch:type="MSShapeGroup"></path>
            <path d="M53.344,0 L44.656,0 C42.561,0 40.81,1.393 40.226,3.296 C45.242,5.779 49.39,10.123 52,15.568 L52,42.432 C49.39,47.877 45.242,52.221 40.226,54.704 C40.81,56.607 42.561,58 44.656,58 L53.344,58 C55.916,58 58,55.915 58,53.344 L58,4.656 C58,2.084 55.916,0 53.344,0" id="Fill-789" fill="#A5A5A4" sketch:type="MSShapeGroup"></path>
            <path d="M46,50.673 L46,52.603 C46,53.375 46.625,54 47.397,54 L50.603,54 C51.375,54 52,53.375 52,52.603 L52,42.432 C50.479,45.604 48.432,48.398 46,50.673" id="Fill-790" fill="#556080" sketch:type="MSShapeGroup"></path>
            <path d="M50.603,4 L47.397,4 C46.625,4 46,4.625 46,5.397 L46,7.327 C48.432,9.602 50.479,12.396 52,15.568 L52,5.397 C52,4.625 51.375,4 50.603,4" id="Fill-791" fill="#556080" sketch:type="MSShapeGroup"></path>
        </g>
    </g>
</svg>