<?xml version="1.0" encoding="UTF-8" standalone="no"?>
<svg width="55px" height="47px" viewBox="0 0 55 47" version="1.1" xmlns="http://www.w3.org/2000/svg" xmlns:xlink="http://www.w3.org/1999/xlink" xmlns:sketch="http://www.bohemiancoding.com/sketch/ns">
    <!-- Generator: Sketch 3.2.2 (9983) - http://www.bohemiancoding.com/sketch -->
    <title>64 - Money Clip (Flat)</title>
    <desc>Created with Sketch.</desc>
    <defs></defs>
    <g id="Page-1" stroke="none" stroke-width="1" fill="none" fill-rule="evenodd" sketch:type="MSPage">
        <g id="64---Money-Clip-(Flat)" sketch:type="MSLayerGroup">
            <path d="M7,15 L30,15 L36,21 L36,24 L30,30 L7,30 L7,47 L52,47 L52,0 L7,0 L7,15 Z" id="Fill-210" fill="#EBEBD6" sketch:type="MSShapeGroup"></path>
            <path d="M52,0 L55,0 L55,47 L52,47 L52,0 Z" id="Fill-1211" fill="#BFBDA3" sketch:type="MSShapeGroup"></path>
            <path d="M4,30 C0.914550781,29.939209 0,31.8 0,34 C0,36.2 1.8,38 4,38 L7,38 L7,30 L4,30 Z" id="Fill-1212" fill="#BDC3C7" sketch:type="MSShapeGroup"></path>
            <path d="M9.592,31.987 L7,31.987 L7,41.975 C13.937,41.789 19.899,37.78 22.904,31.987 L9.592,31.987" id="Fill-1213" fill="#6D8C60" sketch:type="MSShapeGroup"></path>
            <path d="M7,5.025 L7,15 L22.923,15 C19.914,9.21 13.936,5.211 7,5.025" id="Fill-1214" fill="#6D8C60" sketch:type="MSShapeGroup"></path>
            <path d="M10,30 L7,30 L7,31.987 L22.904,31.987 C23.238,31.344 23.545,30.685 23.803,30 L10,30" id="Fill-1215" fill="#56704A" sketch:type="MSShapeGroup"></path>
            <path d="M30,16.987 L29,16.987 L29,31.987 L30,31.987 C33.314,31.987 36,29.301 36,25.987 L36,22.987 C36,19.674 33.314,16.987 30,16.987" id="Fill-1216" fill="#C9C8B3" sketch:type="MSShapeGroup"></path>
            <path d="M52,39 C47.582,39 44,42.582 44,47 L52,47 L52,39" id="Fill-1217" fill="#6D8C60" sketch:type="MSShapeGroup"></path>
            <path d="M44,0 C44,4.418 47.582,8 52,8 L52,0 L44,0" id="Fill-1218" fill="#6D8C60" sketch:type="MSShapeGroup"></path>
            <path d="M4.751,15 C2.127,15 0,17.127 0,19.751 L0,34 C0,31.8 1.8,30 4,30 L29,30 L29,15 L4.751,15" id="Fill-2236" fill="#D1D4D1" sketch:type="MSShapeGroup"></path>
            <path d="M30,15 L29,15 L29,30 L30,30 C33.314,30 36,27.314 36,24 L36,21 C36,17.686 33.314,15 30,15" id="Fill-2237" fill="#ECF0F1" sketch:type="MSShapeGroup"></path>
            <path d="M22.904,31.987 L29,31.987 L29,30 L23.803,30 C23.545,30.685 23.238,31.344 22.904,31.987" id="Fill-2238" fill="#C9C8B3" sketch:type="MSShapeGroup"></path>
        </g>
    </g>
</svg>