<?xml version="1.0" encoding="UTF-8" standalone="no"?>
<svg width="56px" height="47px" viewBox="0 0 56 47" version="1.1" xmlns="http://www.w3.org/2000/svg" xmlns:xlink="http://www.w3.org/1999/xlink" xmlns:sketch="http://www.bohemiancoding.com/sketch/ns">
    <!-- Generator: Sketch 3.2.2 (9983) - http://www.bohemiancoding.com/sketch -->
    <title>155 - Money Stack (Flat)</title>
    <desc>Created with Sketch.</desc>
    <defs></defs>
    <g id="Page-1" stroke="none" stroke-width="1" fill="none" fill-rule="evenodd" sketch:type="MSPage">
        <g id="155---Money-Stack-(Flat)" sketch:type="MSLayerGroup">
            <path d="M0,0 L56,0 L56,32 L0,32 L0,0 Z" id="Fill-422" fill="#EBEBD6" sketch:type="MSShapeGroup"></path>
            <path d="M0,32 L56,32 L56,35 L0,35 L0,32 Z" id="Fill-423" fill="#D1D0B8" sketch:type="MSShapeGroup"></path>
            <path d="M0,35 L56,35 L56,38 L0,38 L0,35 Z" id="Fill-424" fill="#BFBDA3" sketch:type="MSShapeGroup"></path>
            <path d="M0,38 L56,38 L56,41 L0,41 L0,38 Z" id="Fill-425" fill="#D1D0B8" sketch:type="MSShapeGroup"></path>
            <path d="M0,41 L56,41 L56,44 L0,44 L0,41 Z" id="Fill-426" fill="#BFBDA3" sketch:type="MSShapeGroup"></path>
            <path d="M0,44 L56,44 L56,47 L0,47 L0,44 Z" id="Fill-427" fill="#D1D0B8" sketch:type="MSShapeGroup"></path>
            <path d="M41,16 C41,23.18 35.18,29 28,29 C20.82,29 15,23.18 15,16 C15,8.82 20.82,3 28,3 C35.18,3 41,8.82 41,16" id="Fill-428" fill="#EBEBD6" sketch:type="MSShapeGroup"></path>
            <path d="M21.094,27 C17.438,24.699 15,20.639 15,16 C15,11.361 17.438,7.301 21.094,5 L10.975,5 C10.99,5.165 11,5.331 11,5.5 C11,8.538 8.537,11 5.5,11 C5.331,11 5.165,10.99 5,10.975 L5,21.025 C5.165,21.01 5.331,21 5.5,21 C8.537,21 11,23.462 11,26.5 C11,26.669 10.99,26.835 10.975,27 L21.094,27" id="Fill-429" fill="#6D8C60" sketch:type="MSShapeGroup"></path>
            <path d="M50.5,11 C47.463,11 45,8.538 45,5.5 C45,5.331 45.01,5.165 45.025,5 L34.906,5 C38.562,7.301 41,11.361 41,16 C41,20.639 38.562,24.699 34.906,27 L45.025,27 C45.01,26.835 45,26.669 45,26.5 C45,23.462 47.463,21 50.5,21 C50.669,21 50.835,21.01 51,21.025 L51,10.975 C50.835,10.99 50.669,11 50.5,11" id="Fill-430" fill="#6D8C60" sketch:type="MSShapeGroup"></path>
            <path d="M5.5,8 C4.121,8 3,6.879 3,5.5 C3,4.121 4.121,3 5.5,3 C6.879,3 8,4.121 8,5.5 C8,6.879 6.879,8 5.5,8" id="Fill-431" fill="#6D8C60" sketch:type="MSShapeGroup"></path>
            <path d="M50.5,8 C49.121,8 48,6.879 48,5.5 C48,4.121 49.121,3 50.5,3 C51.879,3 53,4.121 53,5.5 C53,6.879 51.879,8 50.5,8" id="Fill-432" fill="#6D8C60" sketch:type="MSShapeGroup"></path>
            <path d="M5.5,29 C4.121,29 3,27.879 3,26.5 C3,25.121 4.121,24 5.5,24 C6.879,24 8,25.121 8,26.5 C8,27.879 6.879,29 5.5,29" id="Fill-433" fill="#6D8C60" sketch:type="MSShapeGroup"></path>
            <path d="M50.5,29 C49.121,29 48,27.879 48,26.5 C48,25.121 49.121,24 50.5,24 C51.879,24 53,25.121 53,26.5 C53,27.879 51.879,29 50.5,29" id="Fill-434" fill="#6D8C60" sketch:type="MSShapeGroup"></path>
            <path d="M32.957,17.529 C36.913,15.852 32,11 32,11 C27.917,7.458 23,10 23,10 C22.751,10.852 23.496,13.351 24.306,13.638 C23.497,14.526 23,15.704 23,17 C23,18.625 24.7,19.313 24.871,19.807 C24.954,20.049 24.996,20.3 25,20.552 C25.012,21.297 24.627,21.995 24.076,22.497 L19.987,26.223 C22.196,27.957 24.974,29 28,29 C31.026,29 33.804,27.957 36.013,26.223 L31.955,22.53 C31.288,21.924 30.884,21.029 31.04,20.142 C31.062,20.016 31.093,19.891 31.135,19.768 C31.243,19.447 32.918,17.876 32.957,17.529" id="Fill-435" fill="#6D8C60" sketch:type="MSShapeGroup"></path>
        </g>
    </g>
</svg>