<?xml version="1.0" encoding="UTF-8" standalone="no"?>
<svg width="58px" height="56px" viewBox="0 0 58 56" version="1.1" xmlns="http://www.w3.org/2000/svg" xmlns:xlink="http://www.w3.org/1999/xlink" xmlns:sketch="http://www.bohemiancoding.com/sketch/ns">
    <!-- Generator: Sketch 3.2.2 (9983) - http://www.bohemiancoding.com/sketch -->
    <title>43 - Money Suitcase (Flat)</title>
    <desc>Created with Sketch.</desc>
    <defs></defs>
    <g id="Page-1" stroke="none" stroke-width="1" fill="none" fill-rule="evenodd" sketch:type="MSPage">
        <g id="43---Money-Suitcase-(Flat)" sketch:type="MSLayerGroup">
            <path d="M5.001,12 C4.634,12 4.281,11.798 4.106,11.447 C3.858,10.953 4.059,10.353 4.553,10.105 L10.553,7.105 C11.048,6.86 11.646,7.059 11.895,7.553 C12.142,8.047 11.941,8.647 11.447,8.895 L5.447,11.895 C5.304,11.966 5.151,12 5.001,12" id="Fill-64" fill="#BDC3C7" sketch:type="MSShapeGroup"></path>
            <path d="M52.999,12 C52.849,12 52.696,11.966 52.553,11.895 L46.553,8.895 C46.059,8.647 45.858,8.047 46.106,7.553 C46.354,7.059 46.954,6.86 47.447,7.105 L53.447,10.105 C53.941,10.353 54.142,10.953 53.894,11.447 C53.719,11.798 53.366,12 52.999,12" id="Fill-65" fill="#BDC3C7" sketch:type="MSShapeGroup"></path>
            <path d="M16,8 L24,8 L24,11 L16,11 L16,8 Z" id="Fill-1392" fill="#ECF0F1" sketch:type="MSShapeGroup"></path>
            <path d="M34,8 L42,8 L42,11 L34,11 L34,8 Z" id="Fill-1393" fill="#ECF0F1" sketch:type="MSShapeGroup"></path>
            <path d="M36,5.444 L36,8 L40,8 L40,5.889 C40,2.636 37.364,0 34.111,0 L23.889,0 C20.636,0 18,2.636 18,5.889 L18,8 L22,8 L22,5.444 C22,4.331 23.13,3.575 24.159,4 C27.259,5.281 30.741,5.281 33.841,4 C34.87,3.575 36,4.331 36,5.444" id="Fill-1394" fill="#BDC3C7" sketch:type="MSShapeGroup"></path>
            <path d="M53.426,53 L4.574,53 C2.048,53 0,50.952 0,48.426 L0,15.574 C0,13.048 2.048,11 4.574,11 L53.426,11 C55.952,11 58,13.048 58,15.574 L58,48.426 C58,50.952 55.952,53 53.426,53" id="Fill-1402" fill="#D1D3D3" sketch:type="MSShapeGroup"></path>
            <path d="M4,53 L11,53 L11,56 L4,56 L4,53 Z" id="Fill-1403" fill="#ECF0F1" sketch:type="MSShapeGroup"></path>
            <path d="M47,53 L54,53 L54,56 L47,56 L47,53 Z" id="Fill-1404" fill="#ECF0F1" sketch:type="MSShapeGroup"></path>
            <path d="M13,11 L12,11 C11.447,11 11,10.553 11,10 C11,9.447 11.447,9 12,9 L13,9 C13.553,9 14,9.447 14,10 C14,10.553 13.553,11 13,11" id="Fill-1405" fill="#BDC3C7" sketch:type="MSShapeGroup"></path>
            <path d="M46,11 L45,11 C44.447,11 44,10.553 44,10 C44,9.447 44.447,9 45,9 L46,9 C46.553,9 47,9.447 47,10 C47,10.553 46.553,11 46,11" id="Fill-1406" fill="#BDC3C7" sketch:type="MSShapeGroup"></path>
            <path d="M0,21 L58,21 L58,23 L0,23 L0,21 Z" id="Fill-2253" fill="#ECF0F1" sketch:type="MSShapeGroup"></path>
            <path d="M0,24 L58,24 L58,26 L0,26 L0,24 Z" id="Fill-2254" fill="#ECF0F1" sketch:type="MSShapeGroup"></path>
            <path d="M0,18 L58,18 L58,20 L0,20 L0,18 Z" id="Fill-2255" fill="#ECF0F1" sketch:type="MSShapeGroup"></path>
            <path d="M0,44 L58,44 L58,46 L0,46 L0,44 Z" id="Fill-2256" fill="#ECF0F1" sketch:type="MSShapeGroup"></path>
            <path d="M0,41 L58,41 L58,43 L0,43 L0,41 Z" id="Fill-2257" fill="#ECF0F1" sketch:type="MSShapeGroup"></path>
            <path d="M0,38 L58,38 L58,40 L0,40 L0,38 Z" id="Fill-2258" fill="#ECF0F1" sketch:type="MSShapeGroup"></path>
        </g>
    </g>
</svg>