<?xml version="1.0" encoding="UTF-8" standalone="no"?>
<svg width="60px" height="58px" viewBox="0 0 60 58" version="1.1" xmlns="http://www.w3.org/2000/svg" xmlns:xlink="http://www.w3.org/1999/xlink" xmlns:sketch="http://www.bohemiancoding.com/sketch/ns">
    <!-- Generator: Sketch 3.2.2 (9983) - http://www.bohemiancoding.com/sketch -->
    <title>150 - Piggy Bank (Flat)</title>
    <desc>Created with Sketch.</desc>
    <defs></defs>
    <g id="Page-1" stroke="none" stroke-width="1" fill="none" fill-rule="evenodd" sketch:type="MSPage">
        <g id="150---Piggy-Bank-(Flat)" sketch:type="MSLayerGroup">
            <path d="M53.703,33.876 C53.611,33.883 53.524,33.904 53.43,33.904 C51.498,33.904 49.93,32.337 49.93,30.404 C49.93,28.93 50.843,27.675 52.132,27.159 C50.231,22.069 46.605,18.263 42.058,15.868 C42.054,15.867 42.05,15.866 42.046,15.865 C41.402,17.42 40.438,18.809 39.221,19.935 C34.56,17.482 28.871,17.705 24.392,20.586 C22.6,19.198 21.241,17.29 20.514,15.094 C20.49,15.035 20.459,14.982 20.439,14.92 C19,15.37 17.737,15.814 16.922,16.154 C12.729,14.451 9.802,13.716 7.239,14 C6.874,14.041 6.805,14.527 7.136,14.686 C9.467,15.808 9.875,18.778 10.922,21 C7.879,23.933 7.58,26.063 7.044,29.904 L4.914,29.904 C2.044,29.904 0.914,32.23 0.914,35.1 L0.914,38.707 C0.914,41.577 2.044,43.904 4.914,43.904 L6.227,43.904 C9.209,52.577 19.68,57.219 30.664,57.219 C44.057,57.219 53.931,49.502 53.931,37.904 C53.931,36.506 53.85,35.166 53.703,33.876" id="Fill-240" fill="#FFAEC9" sketch:type="MSShapeGroup"></path>
            <path d="M16.922,28.404 C16.922,29.784 15.803,30.904 14.422,30.904 C13.042,30.904 11.922,29.784 11.922,28.404 C11.922,27.023 13.042,25.904 14.422,25.904 C15.803,25.904 16.922,27.023 16.922,28.404" id="Fill-489" fill="#FFFFFF" sketch:type="MSShapeGroup"></path>
            <path d="M58.931,31.904 C58.931,34.667 56.694,36.904 53.931,36.904 M58.931,31.904 C58.931,29.14 56.694,26.904 53.931,26.904 M56.931,30.404 C56.931,32.337 55.364,33.904 53.43,33.904 C51.497,33.904 49.93,32.337 49.93,30.404 C49.93,28.471 51.497,26.904 53.43,26.904 C55.364,26.904 56.931,28.471 56.931,30.404 L56.931,30.404 Z M56.901,24.902 C57.583,26.425 57.628,28.224 56.875,29.862" id="Stroke-490" stroke="#E584A4" stroke-width="2" stroke-linecap="round" sketch:type="MSShapeGroup"></path>
            <path d="M49.649,49.646 C47.235,52.436 43.911,54.557 39.947,55.833 L40.243,56.818 C40.453,57.52 41.099,58 41.831,58 L47.848,58 C50.166,58 51.788,55.708 51.017,53.521 L49.649,49.646" id="Fill-491" fill="#E584A4" sketch:type="MSShapeGroup"></path>
            <path d="M9.878,49.757 L8.264,53.791 C7.458,55.807 8.943,58 11.114,58 L17.854,58 C18.293,58 18.688,57.733 18.851,57.325 L19.576,55.511 C15.747,54.26 12.373,52.335 9.878,49.757" id="Fill-492" fill="#E584A4" sketch:type="MSShapeGroup"></path>
            <path d="M19.205,50.98 C22.922,52.625 26.86,53.438 31.922,53" id="Stroke-493" stroke="#E584A4" stroke-width="2" stroke-linecap="round" sketch:type="MSShapeGroup"></path>
            <path d="M42.792,23.569 C42.537,23.569 42.281,23.472 42.085,23.276 C36.721,17.913 27.994,17.913 22.629,23.276 C22.239,23.667 21.606,23.667 21.215,23.276 C20.825,22.886 20.825,22.253 21.215,21.862 C27.359,15.719 37.356,15.719 43.5,21.862 C43.89,22.253 43.89,22.886 43.5,23.276 C43.304,23.472 43.048,23.569 42.792,23.569" id="Fill-2098" fill="#E584A4" sketch:type="MSShapeGroup"></path>
            <path d="M23.606,19.905 C28.501,16.632 34.834,16.402 39.938,19.202 C41.786,17.163 42.922,14.469 42.922,11.5 C42.922,5.149 37.774,0 31.422,0 C25.071,0 19.922,5.149 19.922,11.5 C19.922,14.826 21.347,17.807 23.606,19.905" id="Fill-2099" fill="#FFD947" sketch:type="MSShapeGroup"></path>
            <path d="M27.704,17.96 C30.329,17.153 33.121,17.053 35.792,17.646 C37.73,16.29 39,14.045 39,11.5 C39,7.358 35.642,4 31.5,4 C27.358,4 24,7.358 24,11.5 C24,14.255 25.49,16.656 27.704,17.96" id="Fill-2100" fill="#F4BF19" sketch:type="MSShapeGroup"></path>
        </g>
    </g>
</svg>