<?xml version="1.0" encoding="UTF-8" standalone="no"?>
<svg width="53px" height="54px" viewBox="0 0 53 54" version="1.1" xmlns="http://www.w3.org/2000/svg" xmlns:xlink="http://www.w3.org/1999/xlink" xmlns:sketch="http://www.bohemiancoding.com/sketch/ns">
    <!-- Generator: Sketch 3.2.2 (9983) - http://www.bohemiancoding.com/sketch -->
    <title>149 - Poor (Flat)</title>
    <desc>Created with Sketch.</desc>
    <defs></defs>
    <g id="Page-1" stroke="none" stroke-width="1" fill="none" fill-rule="evenodd" sketch:type="MSPage">
        <g id="149---Poor-(Flat)" sketch:type="MSLayerGroup">
            <path d="M24.759,17.169 C23.478,17.169 22.198,16.682 21.224,15.707 C20.833,15.316 20.833,14.684 21.224,14.293 C21.614,13.902 22.247,13.902 22.638,14.293 C23.807,15.462 25.71,15.462 26.88,14.293 C27.271,13.902 27.904,13.902 28.294,14.293 C28.685,14.684 28.685,15.316 28.294,15.707 C27.32,16.682 26.04,17.169 24.759,17.169" id="Fill-143" fill="#4C4031" sketch:type="MSShapeGroup"></path>
            <path d="M30.135,42.146 L22.838,20.67 C22.235,18.896 21.829,17.06 21.629,15.196 L21.111,10.384 C21.065,9.958 21.065,9.529 21.116,9.104 C21.181,8.565 21.251,7.792 21.282,7.704 C21.637,6.674 22.311,5.242 23.506,4.23 C24.668,3.246 24.369,1.397 22.924,0.918 C20.842,0.229 18.295,0.015 16.168,1.715 C15.438,2.298 14.423,2.298 13.693,1.715 C11.566,0.015 9.019,0.229 6.937,0.918 C5.492,1.397 5.193,3.246 6.355,4.23 C7.551,5.242 8.224,6.674 8.579,7.704 C8.647,7.898 8.714,8.969 8.819,9.555 C8.886,9.928 8.931,10.302 8.931,10.681 L8.931,14.169 C8.931,16.709 8.551,19.234 7.805,21.662 L1.55,42 C-1.329,48.575 3.014,53.49 10.175,53.975 C10.425,53.991 10.677,54 10.931,54 L20.578,54 C20.831,54 21.083,53.991 21.333,53.975 C28.432,53.495 32.815,48.737 30.135,42.146" id="Fill-144" fill="#C7B6A1" sketch:type="MSShapeGroup"></path>
            <path d="M52.931,47.096 C52.931,48.148 48.901,49 43.931,49 C38.96,49 34.931,48.148 34.931,47.096 C34.931,46.045 38.96,44 43.931,44 C48.901,44 52.931,46.045 52.931,47.096" id="Fill-479" fill="#FCC62B" sketch:type="MSShapeGroup"></path>
            <path d="M43.931,49 C38.96,49 34.931,48.148 34.931,47.096 L34.931,51.097 C34.933,52.148 38.962,53 43.931,53 C48.9,53 52.928,52.148 52.93,51.097 L52.931,47.096 C52.931,48.148 48.901,49 43.931,49" id="Fill-480" fill="#E5AF17" sketch:type="MSShapeGroup"></path>
            <path d="M34.931,47.095 L34.931,47.096 L34.931,47.095" id="Fill-481" fill="#E5AF17" sketch:type="MSShapeGroup"></path>
            <path d="M21.931,16 L8.931,16 C8.378,16 7.931,15.552 7.931,15 C7.931,14.448 8.378,14 8.931,14 L21.931,14 C22.483,14 22.931,14.448 22.931,15 C22.931,15.552 22.483,16 21.931,16" id="Fill-494" fill="#6A5A45" sketch:type="MSShapeGroup"></path>
            <path d="M21.931,13 L8.931,13 C8.378,13 7.931,12.552 7.931,12 C7.931,11.448 8.378,11 8.931,11 L21.931,11 C22.483,11 22.931,11.448 22.931,12 C22.931,12.552 22.483,13 21.931,13" id="Fill-495" fill="#6A5A45" sketch:type="MSShapeGroup"></path>
            <path d="M21.931,10 L8.931,10 C8.378,10 7.931,9.552 7.931,9 C7.931,8.448 8.378,8 8.931,8 L21.931,8 C22.483,8 22.931,8.448 22.931,9 C22.931,9.552 22.483,10 21.931,10" id="Fill-496" fill="#6A5A45" sketch:type="MSShapeGroup"></path>
            <path d="M8.931,50 C6.174,50 3.931,47.309 3.931,44 C3.931,43.448 4.378,43 4.931,43 C5.483,43 5.931,43.448 5.931,44 C5.931,46.206 7.276,48 8.931,48 C9.483,48 9.931,48.448 9.931,49 C9.931,49.552 9.483,50 8.931,50" id="Fill-504" fill="#DBCCBA" sketch:type="MSShapeGroup"></path>
        </g>
    </g>
</svg>