<?xml version="1.0" encoding="UTF-8" standalone="no"?>
<svg width="55px" height="56px" viewBox="0 0 55 56" version="1.1" xmlns="http://www.w3.org/2000/svg" xmlns:xlink="http://www.w3.org/1999/xlink" xmlns:sketch="http://www.bohemiancoding.com/sketch/ns">
    <!-- Generator: Sketch 3.2.2 (9983) - http://www.bohemiancoding.com/sketch -->
    <title>164 - Pound (Flat)</title>
    <desc>Created with Sketch.</desc>
    <defs></defs>
    <g id="Page-1" stroke="none" stroke-width="1" fill="none" fill-rule="evenodd" sketch:type="MSPage">
        <g id="164---Pound-(Flat)" sketch:type="MSLayerGroup">
            <path d="M30.5,56 C16.969,56 6,43.464 6,28 C6,12.536 16.969,0 30.5,0 C44.031,0 55,12.536 55,28 C55,43.464 44.031,56 30.5,56" id="Fill-306" fill="#E7D08C" sketch:type="MSShapeGroup"></path>
            <path d="M6,28 C6,13.698 15.385,1.908 27.5,0.216 C26.516,0.079 25.516,0 24.5,0 C10.969,0 0,12.536 0,28 C0,43.464 10.969,56 24.5,56 C25.516,56 26.516,55.921 27.5,55.784 C15.385,54.092 6,42.302 6,28" id="Fill-307" fill="#AC946C" sketch:type="MSShapeGroup"></path>
            <path d="M5.998,29.001 L0,29.001 C0.021,29.674 0.058,30.342 0.12,31.001 L6.122,31.001 C6.061,30.341 6.019,29.675 5.998,29.001" id="Fill-308" fill="#B89E70" sketch:type="MSShapeGroup"></path>
            <path d="M6.227,24.001 L0.231,24.001 C0.148,24.661 0.088,25.328 0.047,26.001 L6.046,26.001 C6.088,25.328 6.144,24.66 6.227,24.001" id="Fill-309" fill="#B89E70" sketch:type="MSShapeGroup"></path>
            <path d="M6.549,34.001 L0.548,34.001 C0.677,34.678 0.828,35.344 0.999,36.001 L6.998,36.001 C6.827,35.345 6.678,34.677 6.549,34.001" id="Fill-310" fill="#B89E70" sketch:type="MSShapeGroup"></path>
            <path d="M7.948,39.001 L1.944,39.001 C2.199,39.683 2.48,40.349 2.78,41.001 L8.782,41.001 C8.482,40.349 8.203,39.683 7.948,39.001" id="Fill-311" fill="#B89E70" sketch:type="MSShapeGroup"></path>
            <path d="M7.272,19.001 L1.278,19.001 C1.083,19.659 0.902,20.323 0.749,21.001 L6.756,21.001 C6.908,20.325 7.078,19.657 7.272,19.001" id="Fill-312" fill="#B89E70" sketch:type="MSShapeGroup"></path>
            <path d="M9.263,14.001 L3.263,14.001 C2.933,14.653 2.622,15.318 2.338,16.001 L8.343,16.001 C8.627,15.319 8.934,14.652 9.263,14.001" id="Fill-313" fill="#B89E70" sketch:type="MSShapeGroup"></path>
            <path d="M13.344,8.001 L7.337,8.001 C6.769,8.638 6.227,9.305 5.715,10.001 L11.72,10.001 C12.233,9.305 12.775,8.638 13.344,8.001" id="Fill-314" fill="#B89E70" sketch:type="MSShapeGroup"></path>
            <path d="M19.458,3.001 L13.445,3.001 C12.424,3.592 11.443,4.26 10.51,5.001 L16.518,5.001 C17.453,4.26 18.435,3.591 19.458,3.001" id="Fill-315" fill="#B89E70" sketch:type="MSShapeGroup"></path>
            <path d="M11.02,45.001 L5.016,45.001 C5.48,45.694 5.971,46.362 6.488,47.001 L12.495,47.001 C11.977,46.362 11.484,45.695 11.02,45.001" id="Fill-316" fill="#B89E70" sketch:type="MSShapeGroup"></path>
            <path d="M9.334,50.001 C10.137,50.725 10.978,51.396 11.858,52.001 L17.872,52.001 C16.988,51.394 16.138,50.728 15.331,50.001 L9.334,50.001" id="Fill-317" fill="#B89E70" sketch:type="MSShapeGroup"></path>
            <path d="M30.585,50.524 L30.5,50.524 C29.8,50.524 29.095,50.482 28.404,50.4 C27.856,50.334 27.465,49.836 27.53,49.288 C27.596,48.74 28.077,48.357 28.643,48.414 C29.253,48.487 29.879,48.524 30.5,48.524 C31.053,48.524 31.542,48.972 31.542,49.524 C31.542,50.076 31.138,50.524 30.585,50.524 L30.585,50.524 Z M36.4,49.447 C35.996,49.447 35.615,49.2 35.465,48.799 C35.269,48.283 35.531,47.706 36.048,47.511 C36.626,47.293 37.2,47.038 37.754,46.754 C38.247,46.5 38.848,46.695 39.101,47.186 C39.353,47.677 39.159,48.28 38.668,48.532 C38.047,48.852 37.402,49.138 36.753,49.382 C36.637,49.426 36.518,49.447 36.4,49.447 L36.4,49.447 Z M22.865,48.683 C22.713,48.683 22.559,48.648 22.414,48.574 C21.796,48.261 21.188,47.908 20.604,47.526 C20.143,47.224 20.014,46.604 20.315,46.142 C20.619,45.681 21.237,45.551 21.7,45.854 C22.222,46.195 22.767,46.511 23.318,46.791 C23.812,47.041 24.008,47.643 23.758,48.135 C23.582,48.482 23.231,48.683 22.865,48.683 L22.865,48.683 Z M42.976,45.125 C42.722,45.125 42.468,45.029 42.273,44.836 C41.88,44.448 41.876,43.815 42.265,43.422 C42.7,42.981 43.123,42.509 43.523,42.019 C43.87,41.591 44.5,41.525 44.929,41.874 C45.357,42.223 45.422,42.853 45.073,43.281 C44.634,43.821 44.167,44.342 43.687,44.828 C43.491,45.026 43.233,45.125 42.976,45.125 L42.976,45.125 Z M16.757,43.718 C16.467,43.718 16.181,43.593 15.982,43.352 C15.552,42.827 15.136,42.267 14.744,41.688 C14.435,41.23 14.555,40.609 15.012,40.299 C15.471,39.991 16.091,40.11 16.4,40.568 C16.758,41.096 17.138,41.606 17.529,42.083 C17.879,42.511 17.817,43.141 17.39,43.491 C17.204,43.644 16.979,43.718 16.757,43.718 L16.757,43.718 Z M47.369,38.579 C47.236,38.579 47.101,38.552 46.971,38.496 C46.465,38.275 46.232,37.685 46.453,37.179 C46.704,36.603 46.934,36.007 47.136,35.41 C47.312,34.887 47.88,34.605 48.402,34.781 C48.926,34.958 49.207,35.525 49.03,36.048 C48.81,36.7 48.561,37.349 48.287,37.978 C48.123,38.354 47.756,38.579 47.369,38.579 L47.369,38.579 Z M12.944,36.812 C12.528,36.812 12.14,36.551 11.998,36.135 C11.776,35.486 11.579,34.818 11.413,34.152 C11.28,33.616 11.606,33.074 12.143,32.94 C12.678,32.805 13.221,33.133 13.354,33.669 C13.507,34.28 13.687,34.893 13.891,35.489 C14.069,36.011 13.79,36.58 13.268,36.758 C13.16,36.795 13.052,36.812 12.944,36.812 L12.944,36.812 Z M49.261,30.915 C49.235,30.915 49.209,30.914 49.183,30.912 C48.632,30.87 48.22,30.389 48.263,29.838 C48.31,29.235 48.333,28.617 48.333,28 C48.333,27.448 48.78,26.967 49.333,26.967 C49.886,26.967 50.333,27.382 50.333,27.935 L50.333,28 C50.333,28.668 50.308,29.339 50.257,29.992 C50.216,30.517 49.778,30.915 49.261,30.915 L49.261,30.915 Z M11.666,29.011 C11.113,29.011 10.666,28.575 10.666,28.022 L10.666,28 C10.666,27.325 10.693,26.64 10.746,25.964 C10.789,25.413 11.28,25.009 11.821,25.045 C12.372,25.089 12.783,25.57 12.74,26.121 C12.691,26.745 12.666,27.377 12.666,28 C12.666,28.552 12.219,29.011 11.666,29.011 L11.666,29.011 Z M48.602,23.047 C48.155,23.047 47.747,22.745 47.634,22.291 C47.481,21.68 47.299,21.068 47.094,20.472 C46.915,19.949 47.193,19.38 47.715,19.201 C48.243,19.02 48.807,19.3 48.986,19.822 C49.209,20.472 49.406,21.139 49.573,21.804 C49.708,22.34 49.383,22.883 48.847,23.017 C48.765,23.038 48.684,23.047 48.602,23.047 L48.602,23.047 Z M12.931,21.23 C12.824,21.23 12.716,21.213 12.609,21.177 C12.087,21 11.807,20.432 11.983,19.909 C12.205,19.255 12.457,18.606 12.731,17.979 C12.954,17.474 13.54,17.242 14.049,17.466 C14.555,17.687 14.785,18.277 14.563,18.783 C14.312,19.356 14.081,19.952 13.878,20.551 C13.736,20.968 13.348,21.23 12.931,21.23 L12.931,21.23 Z M45.402,15.837 C45.082,15.837 44.767,15.683 44.573,15.397 C44.222,14.878 43.841,14.369 43.442,13.885 C43.092,13.458 43.153,12.828 43.579,12.477 C44.007,12.126 44.636,12.188 44.987,12.614 C45.425,13.146 45.843,13.706 46.229,14.276 C46.539,14.733 46.419,15.355 45.962,15.665 C45.79,15.781 45.596,15.837 45.402,15.837 L45.402,15.837 Z M16.727,14.317 C16.506,14.317 16.281,14.244 16.096,14.092 C15.668,13.742 15.604,13.112 15.954,12.685 C16.394,12.146 16.861,11.627 17.344,11.141 C17.733,10.748 18.366,10.747 18.758,11.135 C19.15,11.523 19.152,12.157 18.764,12.549 C18.326,12.99 17.902,13.461 17.503,13.95 C17.306,14.192 17.018,14.317 16.727,14.317 L16.727,14.317 Z M39.81,10.287 C39.622,10.287 39.434,10.234 39.265,10.125 C38.74,9.783 38.195,9.469 37.645,9.191 C37.151,8.943 36.953,8.341 37.202,7.848 C37.45,7.355 38.05,7.155 38.545,7.405 C39.161,7.716 39.771,8.067 40.356,8.449 C40.819,8.75 40.95,9.37 40.648,9.833 C40.457,10.126 40.137,10.287 39.81,10.287 L39.81,10.287 Z M22.827,9.337 C22.463,9.337 22.112,9.139 21.936,8.792 C21.685,8.3 21.88,7.698 22.371,7.447 C22.995,7.128 23.641,6.844 24.288,6.602 C24.81,6.407 25.382,6.67 25.575,7.188 C25.769,7.705 25.506,8.281 24.989,8.475 C24.412,8.69 23.837,8.944 23.281,9.228 C23.136,9.302 22.981,9.337 22.827,9.337 L22.827,9.337 Z M32.434,7.588 C32.396,7.588 32.356,7.586 32.317,7.581 C31.716,7.511 31.104,7.476 30.5,7.476 C29.947,7.476 29.479,7.028 29.479,6.476 C29.479,5.924 29.903,5.476 30.456,5.476 L30.5,5.476 C31.181,5.476 31.87,5.516 32.548,5.595 C33.097,5.658 33.489,6.154 33.426,6.703 C33.367,7.212 32.935,7.588 32.434,7.588 L32.434,7.588 Z" id="Fill-318" fill="#C7B77F" sketch:type="MSShapeGroup"></path>
            <path d="M38.578,31.762 C37.979,31.762 37.592,32.15 37.592,32.749 C37.592,33.724 37.3,34.49 36.699,35.091 C36.098,35.692 35.385,35.984 34.52,35.984 L27.075,35.984 C27.823,34.948 28.201,33.539 28.201,31.776 L28.206,26.918 L32.085,26.918 C32.684,26.918 33.072,26.531 33.072,25.931 C33.072,25.331 32.684,24.944 32.085,24.944 L28.201,24.939 L28.201,20.412 C28.201,18.893 28.518,17.738 29.143,16.978 C29.752,16.238 30.544,15.878 31.565,15.878 C32.605,15.878 33.424,16.192 34.064,16.831 C34.69,17.475 34.994,18.327 34.994,19.437 C34.994,20.037 35.382,20.424 35.981,20.424 C36.581,20.424 36.968,20.037 36.968,19.437 C36.968,17.817 36.468,16.477 35.48,15.453 C34.489,14.425 33.171,13.905 31.565,13.905 C29.947,13.905 28.628,14.488 27.643,15.643 C26.703,16.768 26.227,18.373 26.227,20.412 L26.222,24.944 L23.968,24.944 C23.368,24.944 22.98,25.331 22.98,25.931 C22.98,26.531 23.368,26.918 23.968,26.918 L26.227,26.923 L26.227,31.776 C26.227,33.185 25.928,34.256 25.338,34.96 C24.761,35.649 24.047,35.984 23.156,35.984 C22.556,35.984 22.169,36.37 22.169,36.97 C22.169,37.57 22.556,37.958 23.156,37.958 L34.52,37.958 C35.953,37.958 37.165,37.458 38.125,36.475 C39.081,35.495 39.566,34.242 39.566,32.749 C39.566,32.15 39.178,31.762 38.578,31.762" id="Fill-371" fill="#FFF4B6" sketch:type="MSShapeGroup"></path>
        </g>
    </g>
</svg>