<?xml version="1.0" encoding="UTF-8" standalone="no"?>
<svg width="36px" height="59px" viewBox="0 0 36 59" version="1.1" xmlns="http://www.w3.org/2000/svg" xmlns:xlink="http://www.w3.org/1999/xlink" xmlns:sketch="http://www.bohemiancoding.com/sketch/ns">
    <!-- Generator: Sketch 3.2.2 (9983) - http://www.bohemiancoding.com/sketch -->
    <title>40 - Price Tag (Flat)</title>
    <desc>Created with Sketch.</desc>
    <defs></defs>
    <g id="Page-1" stroke="none" stroke-width="1" fill="none" fill-rule="evenodd" sketch:type="MSPage">
        <g id="40---Price-Tag-(Flat)" sketch:type="MSLayerGroup">
            <path d="M34.44,5 L1.56,5 C0.699,5 0,5.699 0,6.56 L0,57.44 C0,58.301 0.699,59 1.56,59 L34.44,59 C35.301,59 36,58.301 36,57.44 L36,6.56 C36,5.699 35.301,5 34.44,5 L34.44,5 Z M18,17 C15.791,17 14,15.209 14,13 C14,10.791 15.791,9 18,9 C20.209,9 22,10.791 22,13 C22,15.209 20.209,17 18,17 L18,17 Z" id="Fill-1434" fill="#E8D5B2" sketch:type="MSShapeGroup"></path>
            <path d="M21,30 C21,30.553 21.448,31 22,31 C22.552,31 23,30.553 23,30 C23,27.586 21.279,25.566 19,25.101 L19,24 C19,23.447 18.552,23 18,23 C17.448,23 17,23.447 17,24 L17,25.104 C15.909,25.327 14.915,25.905 14.182,26.773 C13.57,27.494 13.288,28.419 13.388,29.375 C13.489,30.354 13.994,31.262 14.771,31.866 L17,33.6 L17,39.038 C15.839,38.624 15,37.525 15,36.223 C15,35.67 14.552,35.223 14,35.223 C13.448,35.223 13,35.67 13,36.223 C13,38.637 14.721,40.657 17,41.122 L17,42 C17,42.553 17.448,43 18,43 C18.552,43 19,42.553 19,42 L19,41.118 C20.091,40.896 21.085,40.318 21.819,39.45 C22.43,38.727 22.712,37.802 22.612,36.845 C22.51,35.867 22.006,34.96 21.229,34.356 L19,32.623 L19,27.184 C20.161,27.598 21,28.698 21,30 L21,30 Z M20.002,35.935 C20.351,36.206 20.577,36.614 20.623,37.053 C20.666,37.463 20.548,37.856 20.292,38.158 C19.944,38.569 19.494,38.858 19,39.033 L19,35.156 L20.002,35.935 L20.002,35.935 Z M15.999,30.288 C15.649,30.016 15.423,29.607 15.377,29.168 C15.335,28.759 15.452,28.367 15.708,28.065 C16.056,27.653 16.506,27.365 17,27.189 L17,31.067 L15.999,30.288 L15.999,30.288 Z" id="Fill-1435" fill="#46B29D" sketch:type="MSShapeGroup"></path>
            <path d="M26,47 L10,47 C9.448,47 9,46.553 9,46 C9,45.447 9.448,45 10,45 L26,45 C26.552,45 27,45.447 27,46 C27,46.553 26.552,47 26,47" id="Fill-1436" fill="#CBB292" sketch:type="MSShapeGroup"></path>
            <path d="M26,50 L10,50 C9.448,50 9,49.553 9,49 C9,48.447 9.448,48 10,48 L26,48 C26.552,48 27,48.447 27,49 C27,49.553 26.552,50 26,50" id="Fill-1437" fill="#CBB292" sketch:type="MSShapeGroup"></path>
            <path d="M18,5 C13.582,5 10,8.582 10,13 C10,17.418 13.582,21 18,21 C22.418,21 26,17.418 26,13 C26,8.582 22.418,5 18,5 L18,5 Z M18,17 C15.791,17 14,15.209 14,13 C14,10.791 15.791,9 18,9 C20.209,9 22,10.791 22,13 C22,15.209 20.209,17 18,17 L18,17 Z" id="Fill-2188" fill="#CBB292" sketch:type="MSShapeGroup"></path>
            <path d="M18,14 C17.447,14 17,13.553 17,13 L17,1 C17,0.447 17.447,0 18,0 C18.553,0 19,0.447 19,1 L19,13 C19,13.553 18.553,14 18,14" id="Fill-2189" fill="#D75A4A" sketch:type="MSShapeGroup"></path>
            <path d="M0,53 L0,57.44 C0,58.301 0.699,59 1.56,59 L34.44,59 C35.301,59 36,58.301 36,57.44 L36,53 L0,53" id="Fill-2190" fill="#CBB292" sketch:type="MSShapeGroup"></path>
        </g>
    </g>
</svg>