<?xml version="1.0" encoding="UTF-8" standalone="no"?>
<svg width="57px" height="47px" viewBox="0 0 57 47" version="1.1" xmlns="http://www.w3.org/2000/svg" xmlns:xlink="http://www.w3.org/1999/xlink" xmlns:sketch="http://www.bohemiancoding.com/sketch/ns">
    <!-- Generator: Sketch 3.2.2 (9983) - http://www.bohemiancoding.com/sketch -->
    <title>132 - Record (Flat)</title>
    <desc>Created with Sketch.</desc>
    <defs></defs>
    <g id="Page-1" stroke="none" stroke-width="1" fill="none" fill-rule="evenodd" sketch:type="MSPage">
        <g id="132---Record-(Flat)" sketch:type="MSLayerGroup">
            <path d="M23,8 L20,0 L0,0 L0,47 L48,47 L48,8 L23,8" id="Fill-512" fill="#F3D55B" sketch:type="MSShapeGroup"></path>
            <path d="M48,12 L57,12 L48.062,46.761 C48.052,46.796 48,46.79 48,46.753 L48,12" id="Fill-513" fill="#F0C419" sketch:type="MSShapeGroup"></path>
            <path d="M6,28 L28,28 L28,41 L6,41 L6,28 Z" id="Fill-514" fill="#F6F1E2" sketch:type="MSShapeGroup"></path>
            <path d="M19,38 L10,38 C9.447,38 9,37.553 9,37 C9,36.447 9.447,36 10,36 L19,36 C19.553,36 20,36.447 20,37 C20,37.553 19.553,38 19,38" id="Fill-515" fill="#D6D1BB" sketch:type="MSShapeGroup"></path>
            <path d="M14,33 L10,33 C9.447,33 9,32.553 9,32 C9,31.447 9.447,31 10,31 L14,31 C14.553,31 15,31.447 15,32 C15,32.553 14.553,33 14,33" id="Fill-516" fill="#D6D1BB" sketch:type="MSShapeGroup"></path>
            <path d="M24,33 L22,33 C21.447,33 21,32.553 21,32 C21,31.447 21.447,31 22,31 L24,31 C24.553,31 25,31.447 25,32 C25,32.553 24.553,33 24,33" id="Fill-517" fill="#D6D1BB" sketch:type="MSShapeGroup"></path>
            <path d="M23,38 C22.73,38 22.479,37.89 22.29,37.7 C22.109,37.52 22,37.27 22,37 C22,36.729 22.109,36.479 22.29,36.29 C22.66,35.92 23.34,35.92 23.71,36.29 C23.89,36.479 24,36.74 24,37 C24,37.26 23.89,37.52 23.71,37.71 C23.52,37.89 23.26,38 23,38" id="Fill-518" fill="#D6D1BB" sketch:type="MSShapeGroup"></path>
            <path d="M18,33 C17.74,33 17.48,32.89 17.29,32.71 C17.109,32.52 17,32.26 17,32 C17,31.74 17.109,31.479 17.29,31.29 C17.649,30.92 18.34,30.92 18.71,31.29 C18.89,31.479 19,31.729 19,32 C19,32.26 18.89,32.52 18.71,32.71 C18.52,32.89 18.26,33 18,33" id="Fill-519" fill="#D6D1BB" sketch:type="MSShapeGroup"></path>
        </g>
    </g>
</svg>