<?xml version="1.0" encoding="UTF-8" standalone="no"?>
<svg width="57px" height="58px" viewBox="0 0 57 58" version="1.1" xmlns="http://www.w3.org/2000/svg" xmlns:xlink="http://www.w3.org/1999/xlink" xmlns:sketch="http://www.bohemiancoding.com/sketch/ns">
    <!-- Generator: Sketch 3.2.2 (9983) - http://www.bohemiancoding.com/sketch -->
    <title>148 - Rich (Flat)</title>
    <desc>Created with Sketch.</desc>
    <defs></defs>
    <g id="Page-1" stroke="none" stroke-width="1" fill="none" fill-rule="evenodd" sketch:type="MSPage">
        <g id="148---Rich-(Flat)" sketch:type="MSLayerGroup" transform="translate(0.000000, -1.000000)">
            <path d="M32.801,19.169 C31.52,19.169 30.24,18.682 29.265,17.707 C28.875,17.316 28.875,16.684 29.265,16.293 C29.656,15.902 30.289,15.902 30.679,16.293 C31.848,17.462 33.751,17.462 34.922,16.293 C35.313,15.902 35.945,15.902 36.336,16.293 C36.727,16.684 36.727,17.316 36.336,17.707 C35.362,18.682 34.081,19.169 32.801,19.169" id="Fill-141" fill="#4C4031" sketch:type="MSShapeGroup"></path>
            <path d="M39,40.69 L39,36.689 C39,35.842 41.617,34.352 45.232,33.804 C43.972,31.092 42.072,28.637 39.576,26.723 L32.328,21.796 C31.949,21.505 31.544,21.239 31.122,21 C30.567,19.307 30.185,17.561 29.995,15.789 L29.477,10.977 C29.431,10.551 29.431,10.122 29.482,9.697 C29.546,9.157 29.617,8.385 29.647,8.297 C29.71,8.115 29.796,7.909 29.88,7.707 C30.292,6.893 30.79,6.041 31.303,5.408 C31.483,5.207 31.66,5.002 31.872,4.822 C33.034,3.839 32.735,1.99 31.29,1.511 C30.503,1.251 29.649,1.059 28.777,1.012 C28.694,1.008 28.61,1.015 28.527,1.013 C28.328,1.008 28.128,1.001 27.928,1.014 C26.758,1.083 25.581,1.454 24.51,2.31 C24.151,2.597 23.723,2.74 23.294,2.745 C22.859,2.744 22.423,2.599 22.059,2.308 C20.729,1.245 19.236,0.931 17.794,1.012 C16.922,1.059 16.069,1.251 15.282,1.511 C13.837,1.989 13.538,3.839 14.7,4.822 C14.822,4.926 14.952,5.058 15.083,5.196 C15.124,5.237 15.164,5.277 15.203,5.319 C15.374,5.506 15.548,5.716 15.725,5.94 C16.309,6.743 16.707,7.607 16.945,8.297 C17.012,8.491 17.08,9.562 17.185,10.148 C17.252,10.521 17.296,10.895 17.296,11.274 L17.296,14.762 C17.296,16.799 17.041,18.824 16.559,20.8 C16.084,21.034 15.624,21.299 15.202,21.63 L8.154,26.764 C1.221,32.215 -1.113,41.829 2.876,49.695 C4.539,52.975 6.844,55.792 9.551,55.975 C9.801,55.991 10.052,56 10.306,56 L30,56 C29.751,55.584 29.548,55.097 29.387,54.578 C29.491,54.574 29.595,54.574 29.698,54.567 C36.221,54.126 40.435,50.069 39,44.302 L39,40.69" id="Fill-142" fill="#C7B6A1" sketch:type="MSShapeGroup"></path>
            <path d="M48,42.593 C43.029,42.593 39,41.74 39,40.689 L39,44.69 C39.003,45.741 43.031,46.593 48,46.593 C52.969,46.593 56.997,45.741 57,44.69 L57,40.689 C57,41.74 52.971,42.593 48,42.593" id="Fill-482" fill="#D19C18" sketch:type="MSShapeGroup"></path>
            <path d="M39,40.688 L39,40.689 L39,40.688" id="Fill-483" fill="#D19C18" sketch:type="MSShapeGroup"></path>
            <path d="M57,36.689 C57,37.74 52.971,38.593 48,38.593 C43.029,38.593 39,37.74 39,36.689 C39,35.637 43.029,33.593 48,33.593 C52.971,33.593 57,35.637 57,36.689" id="Fill-485" fill="#FCC62B" sketch:type="MSShapeGroup"></path>
            <path d="M48,38.593 C43.029,38.593 39,37.74 39,36.689 L39,40.69 C39.003,41.741 43.031,42.593 48,42.593 C52.969,42.593 56.997,41.741 57,40.69 L57,36.689 C57,37.74 52.971,38.593 48,38.593" id="Fill-486" fill="#E5AF17" sketch:type="MSShapeGroup"></path>
            <path d="M39,36.687 L39,36.689 L39,36.687" id="Fill-487" fill="#E5AF17" sketch:type="MSShapeGroup"></path>
            <path d="M30,18 L17,18 C16.448,18 16,17.552 16,17 C16,16.448 16.448,16 17,16 L30,16 C30.552,16 31,16.448 31,17 C31,17.552 30.552,18 30,18" id="Fill-497" fill="#6A5A45" sketch:type="MSShapeGroup"></path>
            <path d="M30,15 L17,15 C16.448,15 16,14.552 16,14 C16,13.448 16.448,13 17,13 L30,13 C30.552,13 31,13.448 31,14 C31,14.552 30.552,15 30,15" id="Fill-498" fill="#6A5A45" sketch:type="MSShapeGroup"></path>
            <path d="M30,12 L17,12 C16.448,12 16,11.552 16,11 C16,10.448 16.448,10 17,10 L30,10 C30.552,10 31,10.448 31,11 C31,11.552 30.552,12 30,12" id="Fill-499" fill="#6A5A45" sketch:type="MSShapeGroup"></path>
            <path d="M48,54.593 C45.987,54.593 44.135,54.451 42.637,54.215 C42.177,55.592 41.301,56.775 40.159,57.621 C41.702,58.201 44.633,58.593 48,58.593 C52.969,58.593 56.997,57.741 57,56.69 L57,52.689 C57,53.74 52.971,54.593 48,54.593" id="Fill-500" fill="#E5AF17" sketch:type="MSShapeGroup"></path>
            <path d="M48,46.593 C43.029,46.593 39,45.74 39,44.689 L39,45.683 C40.846,46.561 42.242,48.22 42.767,50.236 C44.242,50.459 46.046,50.593 48,50.593 C52.969,50.593 56.997,49.741 57,48.69 L57,44.689 C57,45.74 52.971,46.593 48,46.593" id="Fill-501" fill="#E5AF17" sketch:type="MSShapeGroup"></path>
            <path d="M48,50.593 C46.046,50.593 44.242,50.459 42.767,50.236 C42.914,50.8 43,51.389 43,52 C43,52.775 42.869,53.518 42.637,54.215 C44.135,54.451 45.987,54.593 48,54.593 C52.969,54.593 56.997,53.741 57,52.69 L57,48.689 C57,49.74 52.971,50.593 48,50.593" id="Fill-502" fill="#D19C18" sketch:type="MSShapeGroup"></path>
            <path d="M43,52 C43,55.866 39.866,59 36,59 C32.134,59 29,55.866 29,52 C29,48.134 32.134,45 36,45 C39.866,45 43,48.134 43,52" id="Fill-503" fill="#FCC62B" sketch:type="MSShapeGroup"></path>
            <path d="M8,42 C7.448,42 7,41.552 7,41 C7,34.131 14.589,26 21,26 C21.552,26 22,26.448 22,27 C22,27.552 21.552,28 21,28 C15.729,28 9,35.29 9,41 C9,41.552 8.552,42 8,42" id="Fill-505" fill="#DBCCBA" sketch:type="MSShapeGroup"></path>
        </g>
    </g>
</svg>