<?xml version="1.0" encoding="UTF-8" standalone="no"?>
<svg width="60px" height="57px" viewBox="0 0 60 57" version="1.1" xmlns="http://www.w3.org/2000/svg" xmlns:xlink="http://www.w3.org/1999/xlink" xmlns:sketch="http://www.bohemiancoding.com/sketch/ns">
    <!-- Generator: Sketch 3.2.2 (9983) - http://www.bohemiancoding.com/sketch -->
    <title>30 - Shopping Cart (Flat)</title>
    <desc>Created with Sketch.</desc>
    <defs></defs>
    <g id="Page-1" stroke="none" stroke-width="1" fill="none" fill-rule="evenodd" sketch:type="MSPage">
        <g id="30---Shopping-Cart-(Flat)" sketch:type="MSLayerGroup" transform="translate(1.000000, 1.000000)">
            <path d="M5,11 L58,11 L58,39 L5,39 L5,11 Z" id="Fill-1468" fill="#4FBA6F" sketch:type="MSShapeGroup"></path>
            <path d="M5,11 L58,11 L58,39 L5,39 L5,11 Z" id="Stroke-1469" stroke="#5E5F62" stroke-width="2" stroke-linecap="round" sketch:type="MSShapeGroup"></path>
            <path d="M0,0 L5,0 M5,0 L5,11 M5,39 L5,47" id="Stroke-1470" stroke="#5E5F62" stroke-width="2" stroke-linecap="round" sketch:type="MSShapeGroup"></path>
            <path d="M19,52 C19,54.209 17.209,56 15,56 C12.791,56 11,54.209 11,52 C11,49.791 12.791,48 15,48 C17.209,48 19,49.791 19,52" id="Fill-1471" fill="#556080" sketch:type="MSShapeGroup"></path>
            <path d="M46,52 C46,54.209 44.209,56 42,56 C39.791,56 38,54.209 38,52 C38,49.791 39.791,48 42,48 C44.209,48 46,49.791 46,52" id="Fill-1472" fill="#556080" sketch:type="MSShapeGroup"></path>
            <path d="M5,47 L51,47" id="Stroke-1473" stroke="#5E5F62" stroke-width="2" stroke-linecap="round" sketch:type="MSShapeGroup"></path>
        </g>
    </g>
</svg>