<?xml version="1.0" encoding="UTF-8" standalone="no"?>
<svg width="44px" height="58px" viewBox="0 0 44 58" version="1.1" xmlns="http://www.w3.org/2000/svg" xmlns:xlink="http://www.w3.org/1999/xlink" xmlns:sketch="http://www.bohemiancoding.com/sketch/ns">
    <!-- Generator: Sketch 3.2.2 (9983) - http://www.bohemiancoding.com/sketch -->
    <title>136 - Stamp (Flat)</title>
    <desc>Created with Sketch.</desc>
    <defs></defs>
    <g id="Page-1" stroke="none" stroke-width="1" fill="none" fill-rule="evenodd" sketch:type="MSPage">
        <g id="136---Stamp-(Flat)" sketch:type="MSLayerGroup">
            <path d="M0,48 L44,48 L44,54 L0,54 L0,48 Z" id="Fill-509" fill="#C8A06B" sketch:type="MSShapeGroup"></path>
            <path d="M3,44 L41,44 L41,48 L3,48 L3,44 Z" id="Fill-510" fill="#DFB187" sketch:type="MSShapeGroup"></path>
            <path d="M24,44 L18,44 L13.903,7.949 C13.422,3.712 16.736,0 21,0 C25.264,0 28.578,3.712 28.097,7.949 L24,44" id="Fill-511" fill="#FAC176" sketch:type="MSShapeGroup"></path>
            <path d="M37,58 L7,58 C4.791,58 3,56.209 3,54 L41,54 C41,56.209 39.209,58 37,58" id="Fill-524" fill="#645C59" sketch:type="MSShapeGroup"></path>
        </g>
    </g>
</svg>