<?xml version="1.0" encoding="UTF-8" standalone="no"?>
<svg width="58px" height="58px" viewBox="0 0 58 58" version="1.1" xmlns="http://www.w3.org/2000/svg" xmlns:xlink="http://www.w3.org/1999/xlink" xmlns:sketch="http://www.bohemiancoding.com/sketch/ns">
    <!-- Generator: Sketch 3.2.2 (9983) - http://www.bohemiancoding.com/sketch -->
    <title>45 - Suitcase (Flat)</title>
    <desc>Created with Sketch.</desc>
    <defs></defs>
    <g id="Page-1" stroke="none" stroke-width="1" fill="none" fill-rule="evenodd" sketch:type="MSPage">
        <g id="45---Suitcase-(Flat)" sketch:type="MSLayerGroup">
            <path d="M54.841,18 L3.159,18 C1.414,18 0,16.586 0,14.841 L0,52.659 C0,53.952 1.048,55 2.341,55 L55.659,55 C56.952,55 58,53.952 58,52.659 L58,14.841 C58,16.586 56.586,18 54.841,18" id="Fill-68" fill="#5E5D58" sketch:type="MSShapeGroup"></path>
            <path d="M6.018,58 L3.982,58 C3.44,58 3,57.56 3,57.018 L3,55 L7,55 L7,57.018 C7,57.56 6.56,58 6.018,58" id="Fill-1380" fill="#3F3E3A" sketch:type="MSShapeGroup"></path>
            <path d="M54.018,58 L51.982,58 C51.44,58 51,57.56 51,57.018 L51,55 L55,55 L55,57.018 C55,57.56 54.56,58 54.018,58" id="Fill-1381" fill="#3F3E3A" sketch:type="MSShapeGroup"></path>
            <path d="M11,18 L20,18 L20,55 L11,55 L11,18 Z" id="Fill-1382" fill="#686763" sketch:type="MSShapeGroup"></path>
            <path d="M38,18 L47,18 L47,55 L38,55 L38,18 Z" id="Fill-1383" fill="#686763" sketch:type="MSShapeGroup"></path>
            <path d="M54.841,6 L38,6 L38,12 L34,12 L34,6 L24,6 L24,12 L20,12 L20,6 L3.159,6 C1.414,6 0,7.414 0,9.159 L0,14.841 C0,16.586 1.414,18 3.159,18 L54.841,18 C56.586,18 58,16.586 58,14.841 L58,9.159 C58,7.414 56.586,6 54.841,6 L54.841,6 Z M5,10 L13,10 L13,14 L5,14 L5,10 Z" id="Fill-2235" fill="#3F3E3A" sketch:type="MSShapeGroup"></path>
            <path d="M53,11 L58,11 L58,13 L53,13 L53,11 Z" id="Fill-2240" fill="#5E5D58" sketch:type="MSShapeGroup"></path>
            <path d="M5,10 L13,10 L13,14 L5,14 L5,10 Z" id="Fill-2241" fill="#FFD16C" sketch:type="MSShapeGroup"></path>
            <path d="M13,11 L45,11 L45,13 L13,13 L13,11 Z" id="Fill-2242" fill="#5E5D58" sketch:type="MSShapeGroup"></path>
            <path d="M0,11 L5,11 L5,13 L0,13 L0,11 Z" id="Fill-2243" fill="#5E5D58" sketch:type="MSShapeGroup"></path>
            <path d="M8,10 L8,14" id="Stroke-2244" stroke="#B19046" stroke-width="2" sketch:type="MSShapeGroup"></path>
            <path d="M45,10 L53,10 L53,14 L45,14 L45,10 Z" id="Fill-2245" fill="#FFD16C" sketch:type="MSShapeGroup"></path>
            <path d="M50,14 L50,10" id="Stroke-2246" stroke="#B19046" stroke-width="2" sketch:type="MSShapeGroup"></path>
            <path d="M20,3.364 L20,13 L24,13 L24,4.633 C24,4.283 24.284,4 24.633,4 L33.367,4 C33.716,4 34,4.283 34,4.633 L34,13 L38,13 L38,3.364 C38,1.506 36.494,0 34.636,0 L23.364,0 C21.506,0 20,1.506 20,3.364" id="Fill-2247" fill="#B19046" sketch:type="MSShapeGroup"></path>
        </g>
    </g>
</svg>