<?xml version="1.0" encoding="UTF-8" standalone="no"?>
<svg width="59px" height="59px" viewBox="0 0 59 59" version="1.1" xmlns="http://www.w3.org/2000/svg" xmlns:xlink="http://www.w3.org/1999/xlink" xmlns:sketch="http://www.bohemiancoding.com/sketch/ns">
    <!-- Generator: Sketch 3.2.2 (9983) - http://www.bohemiancoding.com/sketch -->
    <title>32 - Torn Price Tag (Flat)</title>
    <desc>Created with Sketch.</desc>
    <defs></defs>
    <g id="Page-1" stroke="none" stroke-width="1" fill="none" fill-rule="evenodd" sketch:type="MSPage">
        <g id="32---Torn-Price-Tag-(Flat)" sketch:type="MSLayerGroup" transform="translate(0.000000, -1.000000)">
            <path d="M30.72,6 L16,21 L16,26 L21,26 L21.038,33 L27,33 L27,40 L33,40 L33,45 L39.776,44.98 L54,30.28 L54,6 L30.72,6 L30.72,6 Z M44,20 C41.791,20 40,18.209 40,16 C40,13.791 41.791,12 44,12 C46.209,12 48,13.791 48,16 C48,18.209 46.209,20 44,20 L44,20 Z" id="Fill-113" fill="#E8D5B2" sketch:type="MSShapeGroup"></path>
            <path d="M44,8 C39.582,8 36,11.582 36,16 C36,20.418 39.582,24 44,24 C48.418,24 52,20.418 52,16 C52,11.582 48.418,8 44,8 L44,8 Z M44,20 C41.791,20 40,18.209 40,16 C40,13.791 41.791,12 44,12 C46.209,12 48,13.791 48,16 C48,18.209 46.209,20 44,20 L44,20 Z" id="Fill-114" fill="#CBB292" sketch:type="MSShapeGroup"></path>
            <path d="M26,51.065 L26,46 L20,46 L20,39 L14,39 L14,31.974 L8,31.974 L8,28.031 L0.741,35.377 C-0.247,36.365 -0.247,37.966 0.741,38.953 L22.047,59.26 C23.034,60.247 24.635,60.247 25.623,59.259 L33.725,51.065 L26,51.065" id="Fill-1466" fill="#E8D5B2" sketch:type="MSShapeGroup"></path>
            <path d="M44,17 C43.744,17 43.488,16.902 43.293,16.707 C42.902,16.316 42.902,15.684 43.293,15.293 L57.293,1.293 C57.684,0.902 58.316,0.902 58.707,1.293 C59.098,1.684 59.098,2.316 58.707,2.707 L44.707,16.707 C44.512,16.902 44.256,17 44,17" id="Fill-1913" fill="#D75A4A" sketch:type="MSShapeGroup"></path>
        </g>
    </g>
</svg>