<?xml version="1.0" encoding="UTF-8" standalone="no"?>
<svg width="58px" height="58px" viewBox="0 0 58 58" version="1.1" xmlns="http://www.w3.org/2000/svg" xmlns:xlink="http://www.w3.org/1999/xlink" xmlns:sketch="http://www.bohemiancoding.com/sketch/ns">
    <!-- Generator: Sketch 3.2.2 (9983) - http://www.bohemiancoding.com/sketch -->
    <title>70 - Verdict (Flat)</title>
    <desc>Created with Sketch.</desc>
    <defs></defs>
    <g id="Page-1" stroke="none" stroke-width="1" fill="none" fill-rule="evenodd" sketch:type="MSPage">
        <g id="70---Verdict-(Flat)" sketch:type="MSLayerGroup">
            <path d="M22.631,12.648 L21.553,11.57 C21.07,11.087 21.07,10.303 21.553,9.82 L30.409,0.963 C30.892,0.48 31.676,0.48 32.159,0.963 L33.238,2.042 C33.721,2.525 33.721,3.309 33.238,3.792 L24.381,12.648 C23.898,13.131 23.114,13.131 22.631,12.648" id="Fill-891" fill="#744716" sketch:type="MSShapeGroup"></path>
            <path d="M42.43,32.447 L41.352,31.369 C40.869,30.886 40.869,30.102 41.352,29.619 L50.208,20.763 C50.691,20.279 51.475,20.279 51.958,20.763 L53.037,21.841 C53.52,22.324 53.52,23.108 53.037,23.591 L44.18,32.447 C43.697,32.931 42.913,32.931 42.43,32.447" id="Fill-892" fill="#744716" sketch:type="MSShapeGroup"></path>
            <path d="M50.208,19.012 L48.962,17.766 C48.575,17.379 47.939,17.365 47.556,17.757 C47.167,18.156 46.527,18.159 46.134,17.766 L36.234,7.866 C35.847,7.479 35.833,6.844 36.225,6.461 C36.625,6.071 36.628,5.432 36.234,5.038 L34.988,3.792 C34.505,3.308 33.721,3.308 33.238,3.792 L24.381,12.648 C23.898,13.131 23.898,13.915 24.381,14.399 L25.627,15.645 C26.015,16.032 26.65,16.046 27.033,15.654 C27.423,15.254 28.062,15.251 28.456,15.645 L30.052,17.241 C30.733,17.922 30.733,19.025 30.052,19.705 L22.092,27.666 L20.678,26.251 C19.897,25.47 18.63,25.47 17.849,26.251 C17.068,27.032 17.068,28.299 17.849,29.08 L19.263,30.494 L9.488,40.269 C8.832,40.925 8.01,41.391 7.109,41.616 L4.204,42.342 C3.304,42.567 2.482,43.033 1.825,43.689 L1.5,44.015 C0.54,44.975 0,46.278 0,47.636 C0,48.994 0.54,50.297 1.5,51.258 L2.743,52.5 C3.703,53.461 5.006,54 6.364,54 C7.722,54 9.025,53.461 9.985,52.5 L10.311,52.175 C10.967,51.518 11.433,50.696 11.658,49.796 L12.384,46.891 C12.609,45.99 13.075,45.168 13.731,44.512 L23.506,34.737 L24.92,36.151 C25.701,36.932 26.968,36.932 27.749,36.151 C28.53,35.37 28.53,34.103 27.749,33.322 L26.335,31.908 L34.295,23.948 C34.975,23.267 36.078,23.267 36.759,23.948 L38.355,25.544 C38.743,25.932 38.756,26.567 38.364,26.95 C37.965,27.34 37.962,27.979 38.355,28.373 L39.602,29.619 C40.085,30.102 40.869,30.102 41.352,29.619 L50.208,20.763 C50.692,20.279 50.692,19.495 50.208,19.012" id="Fill-893" fill="#9D714B" sketch:type="MSShapeGroup"></path>
            <path d="M58,58 L37,58 C37,54.686 39.686,52 43,52 L52,52 C55.314,52 58,54.686 58,58" id="Fill-894" fill="#9D714B" sketch:type="MSShapeGroup"></path>
            <path d="M54,52 L41,52 C40.448,52 40,51.553 40,51 C40,50.447 40.448,50 41,50 L54,50 C54.552,50 55,50.447 55,51 C55,51.553 54.552,52 54,52" id="Fill-895" fill="#744818" sketch:type="MSShapeGroup"></path>
        </g>
    </g>
</svg>