<?xml version="1.0" encoding="UTF-8" standalone="no"?>
<svg width="58px" height="46px" viewBox="0 0 58 46" version="1.1" xmlns="http://www.w3.org/2000/svg" xmlns:xlink="http://www.w3.org/1999/xlink" xmlns:sketch="http://www.bohemiancoding.com/sketch/ns">
    <!-- Generator: Sketch 3.2.2 (9983) - http://www.bohemiancoding.com/sketch -->
    <title>66 - Wallet (Flat)</title>
    <desc>Created with Sketch.</desc>
    <defs></defs>
    <g id="Page-1" stroke="none" stroke-width="1" fill="none" fill-rule="evenodd" sketch:type="MSPage">
        <g id="66---Wallet-(Flat)" sketch:type="MSLayerGroup">
            <path d="M58,31 L50,31 C45.582,31 42,27.418 42,23 C42,18.582 45.582,15 50,15 L58,15 L58,31" id="Fill-212" fill="#44312A" sketch:type="MSShapeGroup"></path>
            <path d="M54,23 C54,25.209 52.209,27 50,27 C47.791,27 46,25.209 46,23 C46,20.791 47.791,19 50,19 C52.209,19 54,20.791 54,23" id="Fill-1356" fill="#BDC3C7" sketch:type="MSShapeGroup"></path>
            <path d="M52,43.524 C52,44.892 50.892,46 49.524,46 L55.524,46 C56.892,46 58,44.892 58,43.524 L58,31 L52,31 L52,43.524" id="Fill-1357" fill="#63493E" sketch:type="MSShapeGroup"></path>
            <path d="M55.524,0 L49.524,0 C50.892,0 52,1.108 52,2.476 L52,15 L58,15 L58,2.476 C58,1.108 56.892,0 55.524,0" id="Fill-1358" fill="#63493E" sketch:type="MSShapeGroup"></path>
            <path d="M50,31 C45.582,31 42,27.418 42,23 C42,18.582 45.582,15 50,15 L52,15 L52,2.476 C52,1.108 50.892,0 49.524,0 L2.476,0 C1.108,0 0,1.108 0,2.476 L0,43.524 C0,44.892 1.108,46 2.476,46 L49.524,46 C50.892,46 52,44.892 52,43.524 L52,31 L50,31" id="Fill-1359" fill="#7D5F4F" sketch:type="MSShapeGroup"></path>
            <path d="M48,35.83 C47.74,35.83 47.479,35.729 47.29,35.54 C47.109,35.35 47,35.1 47,34.83 C47,34.569 47.109,34.31 47.29,34.13 C47.66,33.75 48.33,33.75 48.71,34.13 C48.89,34.31 49,34.569 49,34.83 C49,35.1 48.89,35.35 48.71,35.54 C48.519,35.729 48.26,35.83 48,35.83" id="Fill-1360" fill="#937669" sketch:type="MSShapeGroup"></path>
            <path d="M47,38.42 C47,37.859 47.45,37.42 48,37.42 C48.55,37.42 49,37.859 49,38.42 C49,38.97 48.55,39.42 48,39.42 C47.45,39.42 47,38.97 47,38.42" id="Fill-1361" fill="#937669" sketch:type="MSShapeGroup"></path>
            <path d="M48,43 C47.73,43 47.479,42.89 47.29,42.7 C47.109,42.519 47,42.26 47,42 C47,41.74 47.109,41.479 47.29,41.29 C47.66,40.92 48.33,40.92 48.71,41.29 C48.89,41.479 49,41.74 49,42 C49,42.26 48.89,42.519 48.71,42.71 C48.519,42.89 48.26,43 48,43" id="Fill-1362" fill="#937669" sketch:type="MSShapeGroup"></path>
            <path d="M43,42 C43,41.45 43.45,41 44,41 C44.55,41 45,41.45 45,42 C45,42.55 44.55,43 44,43 C43.45,43 43,42.55 43,42 L43,42 Z M39,42 C39,41.45 39.45,41 40,41 C40.55,41 41,41.45 41,42 C41,42.55 40.55,43 40,43 C39.45,43 39,42.55 39,42 L39,42 Z M35,42 C35,41.45 35.45,41 36,41 C36.55,41 37,41.45 37,42 C37,42.55 36.55,43 36,43 C35.45,43 35,42.55 35,42 L35,42 Z M31,42 C31,41.45 31.45,41 32,41 C32.55,41 33,41.45 33,42 C33,42.55 32.55,43 32,43 C31.45,43 31,42.55 31,42 L31,42 Z M27,42 C27,41.45 27.45,41 28,41 C28.55,41 29,41.45 29,42 C29,42.55 28.55,43 28,43 C27.45,43 27,42.55 27,42 L27,42 Z M23,42 C23,41.45 23.45,41 24,41 C24.55,41 25,41.45 25,42 C25,42.55 24.55,43 24,43 C23.45,43 23,42.55 23,42 L23,42 Z M19,42 C19,41.45 19.45,41 20,41 C20.55,41 21,41.45 21,42 C21,42.55 20.55,43 20,43 C19.45,43 19,42.55 19,42 L19,42 Z M15,42 C15,41.45 15.45,41 16,41 C16.55,41 17,41.45 17,42 C17,42.55 16.55,43 16,43 C15.45,43 15,42.55 15,42 L15,42 Z M11,42 C11,41.45 11.45,41 12,41 C12.55,41 13,41.45 13,42 C13,42.55 12.55,43 12,43 C11.45,43 11,42.55 11,42 L11,42 Z M7,42 C7,41.45 7.45,41 8,41 C8.55,41 9,41.45 9,42 C9,42.55 8.55,43 8,43 C7.45,43 7,42.55 7,42 L7,42 Z" id="Fill-1363" fill="#937669" sketch:type="MSShapeGroup"></path>
            <path d="M4,43 C3.74,43 3.48,42.89 3.29,42.71 C3.11,42.519 3,42.26 3,42 C3,41.74 3.11,41.479 3.29,41.29 C3.67,40.92 4.33,40.92 4.71,41.29 C4.89,41.479 5,41.74 5,42 C5,42.26 4.89,42.519 4.71,42.71 C4.52,42.89 4.26,43 4,43" id="Fill-1364" fill="#937669" sketch:type="MSShapeGroup"></path>
            <path d="M3,38.2 C3,37.649 3.45,37.2 4,37.2 C4.55,37.2 5,37.649 5,38.2 C5,38.75 4.55,39.2 4,39.2 C3.45,39.2 3,38.75 3,38.2 L3,38.2 Z M3,34.399 C3,33.85 3.45,33.399 4,33.399 C4.55,33.399 5,33.85 5,34.399 C5,34.95 4.55,35.399 4,35.399 C3.45,35.399 3,34.95 3,34.399 L3,34.399 Z M3,30.6 C3,30.05 3.45,29.6 4,29.6 C4.55,29.6 5,30.05 5,30.6 C5,31.149 4.55,31.6 4,31.6 C3.45,31.6 3,31.149 3,30.6 L3,30.6 Z M3,26.8 C3,26.25 3.45,25.8 4,25.8 C4.55,25.8 5,26.25 5,26.8 C5,27.35 4.55,27.8 4,27.8 C3.45,27.8 3,27.35 3,26.8 L3,26.8 Z M3,23 C3,22.45 3.45,22 4,22 C4.55,22 5,22.45 5,23 C5,23.55 4.55,24 4,24 C3.45,24 3,23.55 3,23 L3,23 Z M3,19.2 C3,18.649 3.45,18.2 4,18.2 C4.55,18.2 5,18.649 5,19.2 C5,19.75 4.55,20.2 4,20.2 C3.45,20.2 3,19.75 3,19.2 L3,19.2 Z M3,15.399 C3,14.85 3.45,14.399 4,14.399 C4.55,14.399 5,14.85 5,15.399 C5,15.95 4.55,16.399 4,16.399 C3.45,16.399 3,15.95 3,15.399 L3,15.399 Z M3,11.6 C3,11.05 3.45,10.6 4,10.6 C4.55,10.6 5,11.05 5,11.6 C5,12.149 4.55,12.6 4,12.6 C3.45,12.6 3,12.149 3,11.6 L3,11.6 Z M3,7.8 C3,7.25 3.45,6.8 4,6.8 C4.55,6.8 5,7.25 5,7.8 C5,8.35 4.55,8.8 4,8.8 C3.45,8.8 3,8.35 3,7.8 L3,7.8 Z" id="Fill-1365" fill="#937669" sketch:type="MSShapeGroup"></path>
            <path d="M4,5 C3.73,5 3.48,4.89 3.29,4.7 C3.11,4.52 3,4.26 3,4 C3,3.729 3.11,3.479 3.29,3.29 C3.66,2.92 4.33,2.92 4.71,3.29 C4.89,3.479 5,3.74 5,4 C5,4.26 4.89,4.52 4.71,4.71 C4.52,4.89 4.26,5 4,5" id="Fill-1366" fill="#937669" sketch:type="MSShapeGroup"></path>
            <path d="M43,4 C43,3.45 43.45,3 44,3 C44.55,3 45,3.45 45,4 C45,4.55 44.55,5 44,5 C43.45,5 43,4.55 43,4 L43,4 Z M39,4 C39,3.45 39.45,3 40,3 C40.55,3 41,3.45 41,4 C41,4.55 40.55,5 40,5 C39.45,5 39,4.55 39,4 L39,4 Z M35,4 C35,3.45 35.45,3 36,3 C36.55,3 37,3.45 37,4 C37,4.55 36.55,5 36,5 C35.45,5 35,4.55 35,4 L35,4 Z M31,4 C31,3.45 31.45,3 32,3 C32.55,3 33,3.45 33,4 C33,4.55 32.55,5 32,5 C31.45,5 31,4.55 31,4 L31,4 Z M27,4 C27,3.45 27.45,3 28,3 C28.55,3 29,3.45 29,4 C29,4.55 28.55,5 28,5 C27.45,5 27,4.55 27,4 L27,4 Z M23,4 C23,3.45 23.45,3 24,3 C24.55,3 25,3.45 25,4 C25,4.55 24.55,5 24,5 C23.45,5 23,4.55 23,4 L23,4 Z M19,4 C19,3.45 19.45,3 20,3 C20.55,3 21,3.45 21,4 C21,4.55 20.55,5 20,5 C19.45,5 19,4.55 19,4 L19,4 Z M15,4 C15,3.45 15.45,3 16,3 C16.55,3 17,3.45 17,4 C17,4.55 16.55,5 16,5 C15.45,5 15,4.55 15,4 L15,4 Z M11,4 C11,3.45 11.45,3 12,3 C12.55,3 13,3.45 13,4 C13,4.55 12.55,5 12,5 C11.45,5 11,4.55 11,4 L11,4 Z M7,4 C7,3.45 7.45,3 8,3 C8.55,3 9,3.45 9,4 C9,4.55 8.55,5 8,5 C7.45,5 7,4.55 7,4 L7,4 Z" id="Fill-1367" fill="#937669" sketch:type="MSShapeGroup"></path>
            <path d="M48,5 C47.73,5 47.479,4.89 47.29,4.7 C47.109,4.52 47,4.26 47,4 C47,3.74 47.109,3.479 47.29,3.29 C47.66,2.92 48.33,2.92 48.71,3.29 C48.89,3.479 49,3.729 49,4 C49,4.26 48.89,4.52 48.71,4.71 C48.519,4.89 48.26,5 48,5" id="Fill-1368" fill="#937669" sketch:type="MSShapeGroup"></path>
            <path d="M47,7.58 C47,7.03 47.45,6.59 48,6.59 C48.55,6.59 49,7.03 49,7.58 C49,8.14 48.55,8.58 48,8.58 C47.45,8.58 47,8.14 47,7.58" id="Fill-1369" fill="#937669" sketch:type="MSShapeGroup"></path>
            <path d="M48,12.17 C47.73,12.17 47.479,12.06 47.29,11.87 C47.109,11.689 47,11.439 47,11.17 C47,10.899 47.109,10.64 47.3,10.46 C47.66,10.09 48.34,10.09 48.71,10.46 C48.89,10.649 49,10.899 49,11.17 C49,11.43 48.89,11.689 48.71,11.87 C48.519,12.06 48.269,12.17 48,12.17" id="Fill-1370" fill="#937669" sketch:type="MSShapeGroup"></path>
            <path d="M51.024,21.825 C51.024,22.798 50.235,23.587 49.262,23.587 C48.289,23.587 47.5,22.798 47.5,21.825 C47.5,20.851 48.289,20.062 49.262,20.062 C50.235,20.062 51.024,20.851 51.024,21.825" id="Fill-2239" fill="#FFFFFF" sketch:type="MSShapeGroup"></path>
        </g>
    </g>
</svg>