<?xml version="1.0" encoding="UTF-8" standalone="no"?>
<svg width="58px" height="58px" viewBox="0 0 58 58" version="1.1" xmlns="http://www.w3.org/2000/svg" xmlns:xlink="http://www.w3.org/1999/xlink" xmlns:sketch="http://www.bohemiancoding.com/sketch/ns">
    <!-- Generator: Sketch 3.2.2 (9983) - http://www.bohemiancoding.com/sketch -->
    <title>56 - Wooden Crate (Flat)</title>
    <desc>Created with Sketch.</desc>
    <defs></defs>
    <g id="Page-1" stroke="none" stroke-width="1" fill="none" fill-rule="evenodd" sketch:type="MSPage">
        <g id="56---Wooden-Crate-(Flat)" sketch:type="MSLayerGroup">
            <path d="M10,10 L48,10 L48,48 L10,48 L10,10 Z" id="Fill-209" fill="#8F6127" sketch:type="MSShapeGroup"></path>
            <path d="M10,0 L58,0 L58,10 L10,10 L10,0 Z" id="Fill-1117" fill="#AD7E4E" sketch:type="MSShapeGroup"></path>
            <path d="M48,10 L58,10 L58,58 L48,58 L48,10 Z" id="Fill-1118" fill="#CA965A" sketch:type="MSShapeGroup"></path>
            <path d="M0,48 L48,48 L48,58 L0,58 L0,48 Z" id="Fill-1119" fill="#AD7E4E" sketch:type="MSShapeGroup"></path>
            <path d="M0,0 L10,0 L10,48 L0,48 L0,0 Z" id="Fill-1120" fill="#CA965A" sketch:type="MSShapeGroup"></path>
            <path d="M54,4 C54.552,4 55,3.552 55,3 C55,2.448 54.552,2 54,2 C53.448,2 53,2.448 53,3 C53,3.552 53.448,4 54,4" id="Fill-1121" fill="#E6E7E8" sketch:type="MSShapeGroup"></path>
            <path d="M50,4 C50.552,4 51,3.552 51,3 C51,2.448 50.552,2 50,2 C49.448,2 49,2.448 49,3 C49,3.552 49.448,4 50,4" id="Fill-1122" fill="#E6E7E8" sketch:type="MSShapeGroup"></path>
            <path d="M55,7 C55,6.448 54.552,6 54,6 C53.448,6 53,6.448 53,7 C53,7.552 53.448,8 54,8 C54.552,8 55,7.552 55,7" id="Fill-1123" fill="#E6E7E8" sketch:type="MSShapeGroup"></path>
            <path d="M51,7 C51,6.448 50.552,6 50,6 C49.448,6 49,6.448 49,7 C49,7.552 49.448,8 50,8 C50.552,8 51,7.552 51,7" id="Fill-1124" fill="#E6E7E8" sketch:type="MSShapeGroup"></path>
            <path d="M55,53 C54.448,53 54,53.448 54,54 C54,54.552 54.448,55 55,55 C55.552,55 56,54.552 56,54 C56,53.448 55.552,53 55,53" id="Fill-1125" fill="#E6E7E8" sketch:type="MSShapeGroup"></path>
            <path d="M54,50 C54,50.552 54.448,51 55,51 C55.552,51 56,50.552 56,50 C56,49.448 55.552,49 55,49 C54.448,49 54,49.448 54,50" id="Fill-1126" fill="#E6E7E8" sketch:type="MSShapeGroup"></path>
            <path d="M51,53 C50.448,53 50,53.448 50,54 C50,54.552 50.448,55 51,55 C51.552,55 52,54.552 52,54 C52,53.448 51.552,53 51,53" id="Fill-1127" fill="#E6E7E8" sketch:type="MSShapeGroup"></path>
            <path d="M51,49 C50.448,49 50,49.448 50,50 C50,50.552 50.448,51 51,51 C51.552,51 52,50.552 52,50 C52,49.448 51.552,49 51,49" id="Fill-1128" fill="#E6E7E8" sketch:type="MSShapeGroup"></path>
            <path d="M4,54 C3.448,54 3,54.448 3,55 C3,55.552 3.448,56 4,56 C4.552,56 5,55.552 5,55 C5,54.448 4.552,54 4,54" id="Fill-1129" fill="#E6E7E8" sketch:type="MSShapeGroup"></path>
            <path d="M8,54 C7.448,54 7,54.448 7,55 C7,55.552 7.448,56 8,56 C8.552,56 9,55.552 9,55 C9,54.448 8.552,54 8,54" id="Fill-1130" fill="#E6E7E8" sketch:type="MSShapeGroup"></path>
            <path d="M4,50 C3.448,50 3,50.448 3,51 C3,51.552 3.448,52 4,52 C4.552,52 5,51.552 5,51 C5,50.448 4.552,50 4,50" id="Fill-1131" fill="#E6E7E8" sketch:type="MSShapeGroup"></path>
            <path d="M8,50 C7.448,50 7,50.448 7,51 C7,51.552 7.448,52 8,52 C8.552,52 9,51.552 9,51 C9,50.448 8.552,50 8,50" id="Fill-1132" fill="#E6E7E8" sketch:type="MSShapeGroup"></path>
            <path d="M3,5 C3.552,5 4,4.552 4,4 C4,3.448 3.552,3 3,3 C2.448,3 2,3.448 2,4 C2,4.552 2.448,5 3,5" id="Fill-1133" fill="#E6E7E8" sketch:type="MSShapeGroup"></path>
            <path d="M4,8 C4,7.448 3.552,7 3,7 C2.448,7 2,7.448 2,8 C2,8.552 2.448,9 3,9 C3.552,9 4,8.552 4,8" id="Fill-1134" fill="#E6E7E8" sketch:type="MSShapeGroup"></path>
            <path d="M7,5 C7.552,5 8,4.552 8,4 C8,3.448 7.552,3 7,3 C6.448,3 6,3.448 6,4 C6,4.552 6.448,5 7,5" id="Fill-1135" fill="#E6E7E8" sketch:type="MSShapeGroup"></path>
            <path d="M8,8 C8,7.448 7.552,7 7,7 C6.448,7 6,7.448 6,8 C6,8.552 6.448,9 7,9 C7.552,9 8,8.552 8,8" id="Fill-1136" fill="#E6E7E8" sketch:type="MSShapeGroup"></path>
            <path d="M38.459,48 L48,38.459 L48,27.146 L27.146,48 L38.459,48" id="Fill-1137" fill="#70491E" sketch:type="MSShapeGroup"></path>
            <path d="M48,15.832 L48,10 L42.518,10 L10,42.518 L10,48 L15.832,48 L48,15.832" id="Fill-1138" fill="#70491E" sketch:type="MSShapeGroup"></path>
            <path d="M10,31.205 L31.205,10 L19.891,10 L10,19.891 L10,31.205" id="Fill-1139" fill="#70491E" sketch:type="MSShapeGroup"></path>
        </g>
    </g>
</svg>