<?xml version="1.0" encoding="UTF-8" standalone="no"?>
<svg width="59px" height="60px" viewBox="0 0 59 60" version="1.1" xmlns="http://www.w3.org/2000/svg" xmlns:xlink="http://www.w3.org/1999/xlink" xmlns:sketch="http://www.bohemiancoding.com/sketch/ns">
    <!-- Generator: Sketch 3.2.2 (9983) - http://www.bohemiancoding.com/sketch -->
    <title>17 - Asteroid Impact (Flat)</title>
    <desc>Created with Sketch.</desc>
    <defs></defs>
    <g id="Page-1" stroke="none" stroke-width="1" fill="none" fill-rule="evenodd" sketch:type="MSPage">
        <g id="17---Asteroid-Impact-(Flat)" sketch:type="MSLayerGroup" transform="translate(0.000000, -1.000000)">
            <path d="M44.5,24 C39.806,24 36,20.194 36,15.5 C36,13.986 36.4,12.567 37.094,11.335 C34.928,10.278 32.562,9.54 30.041,9.204 C17.45,7.526 5.882,16.373 4.204,28.964 C2.526,41.555 11.373,53.123 23.964,54.801 C36.555,56.479 48.123,47.633 49.801,35.041 C50.36,30.849 49.746,26.772 48.221,23.133 C47.096,23.683 45.836,24 44.5,24" id="Fill-79" fill="#285680" sketch:type="MSShapeGroup"></path>
            <path d="M41.72,36.737 C40.239,35.967 39.685,33.74 38.24,32.222 C38.074,32.048 37.838,31.961 37.599,31.93 C35.828,31.702 35.031,30.355 33.839,31.251 C32.946,31.922 31.943,31.513 31.631,30.44 C31.53,30.09 31.351,29.778 30.708,29.58 C30.22,29.43 29.982,28.877 30.159,28.397 C30.161,28.391 30.164,28.384 30.166,28.377 C30.402,27.736 29.077,27.834 28.403,27.946 C28.215,27.977 28.855,27.215 28.645,27.34 C27.817,27.828 26.788,26.984 26.833,26.024 L27.695,9.011 C23.661,8.885 19.796,9.828 16.398,11.598 L16.396,11.599 C16.323,11.638 16.298,11.734 16.337,11.806 C17.899,14.676 18.214,16.185 18.042,19.532 C18.033,19.717 18.065,19.901 18.143,20.069 C19.499,22.992 21.244,27.951 24.224,29.093 C25.673,29.649 27.012,29.44 28.385,30.112 C28.532,30.184 28.746,30.351 28.838,30.487 C29.536,31.507 29.134,33.004 29.826,33.37 C30.374,33.66 30.686,34.251 30.452,34.824 C29.497,37.168 30.323,39.848 32.544,41.687 C34.108,42.982 32.807,45.982 31.491,48.338 C31.021,49.18 31.859,50.153 32.768,49.83 C34.205,49.319 35.395,48.578 36.772,47.393 C38.77,45.675 39.201,43.804 41.181,42.346 C41.203,42.329 41.219,42.309 41.228,42.283 C41.734,40.8 43.306,37.561 41.72,36.737" id="Fill-80" fill="#FAC176" sketch:type="MSShapeGroup"></path>
            <path d="M44.5,24 C39.806,24 36,20.194 36,15.5 C36,13.986 36.4,12.567 37.094,11.335 C34.928,10.278 32.562,9.54 30.041,9.204 C26.929,8.789 23.881,9.02 21.027,9.789 C19.415,12.222 19.101,15.421 22.244,19.449 C22.244,19.449 15.15,28.092 24.853,31.191 C24.853,31.191 30.724,47.417 41.814,29.886 C41.814,29.886 40.346,42.688 48.337,40.323 C48.381,40.31 48.418,40.291 48.461,40.278 C49.097,38.625 49.557,36.874 49.801,35.041 C50.36,30.849 49.746,26.772 48.221,23.133 C47.096,23.683 45.836,24 44.5,24" id="Fill-81" fill="#F3D55B" sketch:type="MSShapeGroup"></path>
            <path d="M11,54 L9.414,54 L7,51.586 L7,50 C7,49.447 6.552,49 6,49 C5.448,49 5,49.447 5,50 L5,51.586 L2.586,54 L1,54 C0.448,54 0,54.447 0,55 C0,55.553 0.448,56 1,56 L2.586,56 L5,58.414 L5,60 C5,60.553 5.448,61 6,61 C6.552,61 7,60.553 7,60 L7,58.414 L9.414,56 L11,56 C11.552,56 12,55.553 12,55 C12,54.447 11.552,54 11,54" id="Fill-765" fill="#F3D55B" sketch:type="MSShapeGroup"></path>
            <path d="M56,42 C55.448,42 55,42.448 55,43 C55,43.552 55.448,44 56,44 C56.552,44 57,43.552 57,43 C57,42.448 56.552,42 56,42" id="Fill-766" fill="#F3D55B" sketch:type="MSShapeGroup"></path>
            <path d="M50,56 C49.448,56 49,56.448 49,57 C49,57.552 49.448,58 50,58 C50.552,58 51,57.552 51,57 C51,56.448 50.552,56 50,56" id="Fill-767" fill="#F3D55B" sketch:type="MSShapeGroup"></path>
            <path d="M34,57 C33.448,57 33,57.448 33,58 C33,58.552 33.448,59 34,59 C34.552,59 35,58.552 35,58 C35,57.448 34.552,57 34,57" id="Fill-768" fill="#F3D55B" sketch:type="MSShapeGroup"></path>
            <path d="M7,9 C7.552,9 8,8.552 8,8 C8,7.448 7.552,7 7,7 C6.448,7 6,7.448 6,8 C6,8.552 6.448,9 7,9" id="Fill-769" fill="#F3D55B" sketch:type="MSShapeGroup"></path>
            <path d="M2.125,49 C2.677,49 3.125,48.552 3.125,48 C3.125,47.448 2.677,47 2.125,47 C1.573,47 1.125,47.448 1.125,48 C1.125,48.552 1.573,49 2.125,49" id="Fill-770" fill="#F3D55B" sketch:type="MSShapeGroup"></path>
            <path d="M21,47 C21.042,46.042 19.333,44.583 19,44 C18.667,43.417 14.75,42.375 12,40 C9.25,37.625 11.792,38.375 11,36 C10.945,35.835 10.902,35.673 10.868,35.514 C10.431,33.416 8.831,31.764 6.697,31.56 C5.775,31.471 4.845,31.381 4.012,31.299 C3.689,41.45 10.106,50.548 19.567,53.769 C19.7,53.543 19.843,53.288 20,53 C21.25,50.708 20.75,50.042 21,49 C21.25,47.958 20.958,47.958 21,47" id="Fill-771" fill="#88C057" sketch:type="MSShapeGroup"></path>
            <path d="M44.5,24 C39.806,24 36,20.194 36,15.5 C36,13.986 36.4,12.567 37.094,11.335 C34.928,10.278 32.562,9.54 30.041,9.204 C28.952,9.059 27.871,8.998 26.803,9.006 C26.448,9.48 26.219,9.949 26.136,10.399 C25.894,11.711 26.842,13.265 27.679,14.34 L29.606,16.81 L27.619,19.231 C26.909,20.095 25.745,22.247 26.05,23.277 C26.198,23.778 27.096,24.346 28.393,24.762 L30.228,25.346 L30.883,27.158 C31.406,28.603 33.139,31.416 34.449,31.416 C35.56,31.416 37.903,29.76 40.856,25.093 L48.052,27.631 C47.764,30.142 48.191,33.442 48.77,33.994 C48.77,33.994 48.797,34 48.857,34 C48.961,34 49.192,33.982 49.575,33.869 C49.703,33.831 49.811,33.775 49.931,33.731 C50.214,30.001 49.587,26.391 48.221,23.133 C47.096,23.683 45.836,24 44.5,24" id="Fill-1129" fill="#FDD7AD" sketch:type="MSShapeGroup"></path>
            <path d="M45.664,25.57 C43.406,27.36 39.216,25.837 36.307,22.167 C33.397,18.497 32.869,14.07 35.127,12.279 C37.386,10.489 41.575,12.012 44.485,15.682 C47.395,19.352 47.923,23.779 45.664,25.57" id="Fill-1130" fill="#E64C3C" sketch:type="MSShapeGroup"></path>
            <path d="M51,24 C51,24.552 51.448,25 52,25 C52.552,25 53,24.552 53,24 C53,23.448 52.552,23 52,23 C51.448,23 51,23.448 51,24" id="Fill-1131" fill="#F29C1F" sketch:type="MSShapeGroup"></path>
            <path d="M52,28 C52,28.552 52.448,29 53,29 C53.552,29 54,28.552 54,28 C54,27.448 53.552,27 53,27 C52.448,27 52,27.448 52,28" id="Fill-1132" fill="#F29C1F" sketch:type="MSShapeGroup"></path>
            <path d="M55,24 C55,24.552 55.448,25 56,25 C56.552,25 57,24.552 57,24 C57,23.448 56.552,23 56,23 C55.448,23 55,23.448 55,24" id="Fill-1133" fill="#556080" sketch:type="MSShapeGroup"></path>
            <path d="M37,5 C37,5.552 37.448,6 38,6 C38.552,6 39,5.552 39,5 C39,4.448 38.552,4 38,4 C37.448,4 37,4.448 37,5" id="Fill-1134" fill="#F29C1F" sketch:type="MSShapeGroup"></path>
            <path d="M43,3 C43,3.552 43.448,4 44,4 C44.552,4 45,3.552 45,3 C45,2.448 44.552,2 44,2 C43.448,2 43,2.448 43,3" id="Fill-1135" fill="#556080" sketch:type="MSShapeGroup"></path>
            <path d="M55,17 C55,17.552 55.448,18 56,18 C56.552,18 57,17.552 57,17 C57,16.448 56.552,16 56,16 C55.448,16 55,16.448 55,17" id="Fill-1136" fill="#556080" sketch:type="MSShapeGroup"></path>
            <path d="M33,7 C33,7.552 33.448,8 34,8 C34.552,8 35,7.552 35,7 C35,6.448 34.552,6 34,6 C33.448,6 33,6.448 33,7" id="Fill-1137" fill="#556080" sketch:type="MSShapeGroup"></path>
            <path d="M30,12 C30,12.552 30.448,13 31,13 C31.552,13 32,12.552 32,12 C32,11.448 31.552,11 31,11 C30.448,11 30,11.448 30,12" id="Fill-1138" fill="#F29C1F" sketch:type="MSShapeGroup"></path>
            <path d="M30,19 C30,19.552 30.448,20 31,20 C31.552,20 32,19.552 32,19 C32,18.448 31.552,18 31,18 C30.448,18 30,18.448 30,19" id="Fill-1139" fill="#F29C1F" sketch:type="MSShapeGroup"></path>
            <path d="M34,24 C34,24.552 34.448,25 35,25 C35.552,25 36,24.552 36,24 C36,23.448 35.552,23 35,23 C34.448,23 34,23.448 34,24" id="Fill-1140" fill="#F29C1F" sketch:type="MSShapeGroup"></path>
            <path d="M41,28 C41,28.552 41.448,29 42,29 C42.552,29 43,28.552 43,28 C43,27.448 42.552,27 42,27 C41.448,27 41,27.448 41,28" id="Fill-1141" fill="#F29C1F" sketch:type="MSShapeGroup"></path>
            <path d="M27,4 C27,4.552 27.448,5 28,5 C28.552,5 29,4.552 29,4 C29,3.448 28.552,3 28,3 C27.448,3 27,3.448 27,4" id="Fill-1142" fill="#F29C1F" sketch:type="MSShapeGroup"></path>
            <path d="M33,3 C33,3.552 33.448,4 34,4 C34.552,4 35,3.552 35,3 C35,2.448 34.552,2 34,2 C33.448,2 33,2.448 33,3" id="Fill-1143" fill="#556080" sketch:type="MSShapeGroup"></path>
            <path d="M53,15.5 C53,20.194 49.194,24 44.5,24 C39.806,24 36,20.194 36,15.5 C36,10.806 39.806,7 44.5,7 C49.194,7 53,10.806 53,15.5" id="Fill-1144" fill="#CBB292" sketch:type="MSShapeGroup"></path>
            <path d="M33,16 C33.552,16 34,15.553 34,15 C34,14.447 33.552,14 33,14 L30.303,14 L27.555,12.168 C27.095,11.862 26.474,11.986 26.168,12.445 C25.862,12.905 25.986,13.525 26.445,13.832 L28.613,15.277 L27.168,17.445 C26.862,17.905 26.986,18.525 27.445,18.832 C27.616,18.945 27.809,19 27.999,19 C28.322,19 28.639,18.844 28.832,18.555 L30.535,16 L33,16" id="Fill-1145" fill="#E64C3C" sketch:type="MSShapeGroup"></path>
            <path d="M39.447,24.106 C38.952,23.859 38.352,24.059 38.105,24.553 L37.382,26 L35,26 C34.448,26 34,26.447 34,27 C34,27.553 34.448,28 35,28 L37.279,28 L38.051,30.316 C38.191,30.735 38.581,31 39,31 C39.104,31 39.211,30.983 39.316,30.948 C39.84,30.774 40.123,30.208 39.949,29.684 L39.08,27.077 L39.894,25.447 C40.142,24.953 39.941,24.353 39.447,24.106" id="Fill-1146" fill="#E64C3C" sketch:type="MSShapeGroup"></path>
            <path d="M46,26 C45.448,26 45,26.447 45,27 L45,31 C45,31.553 45.448,32 46,32 C46.552,32 47,31.553 47,31 L47,27 C47,26.447 46.552,26 46,26" id="Fill-1147" fill="#E64C3C" sketch:type="MSShapeGroup"></path>
            <path d="M34.644,19.571 C34.336,19.111 33.716,18.988 33.257,19.294 L30.445,21.168 C29.986,21.475 29.862,22.095 30.168,22.555 C30.361,22.844 30.678,23 31.001,23 C31.191,23 31.384,22.945 31.555,22.832 L34.366,20.958 C34.826,20.651 34.95,20.031 34.644,19.571" id="Fill-1148" fill="#E64C3C" sketch:type="MSShapeGroup"></path>
            <path d="M44.5,7 C43.261,7 42.087,7.271 41.025,7.748 C41.154,9.563 42.652,11 44.5,11 C46.348,11 47.845,9.563 47.975,7.748 C46.913,7.271 45.739,7 44.5,7" id="Fill-1149" fill="#7F6E5D" sketch:type="MSShapeGroup"></path>
            <path d="M50.788,21.205 C50.229,19.355 48.532,18 46.5,18 C44.015,18 42,20.015 42,22.5 C42,22.907 42.071,23.294 42.173,23.669 C42.913,23.88 43.692,24 44.5,24 C46.996,24 49.233,22.918 50.788,21.205" id="Fill-1150" fill="#7F6E5D" sketch:type="MSShapeGroup"></path>
            <path d="M48,5 C47.744,5 47.488,4.902 47.293,4.707 C46.902,4.316 46.902,3.684 47.293,3.293 L49.293,1.293 C49.684,0.902 50.316,0.902 50.707,1.293 C51.098,1.684 51.098,2.316 50.707,2.707 L48.707,4.707 C48.512,4.902 48.256,5 48,5" id="Fill-1151" fill="#F3D55B" sketch:type="MSShapeGroup"></path>
            <path d="M53,8 C52.744,8 52.488,7.902 52.293,7.707 C51.902,7.316 51.902,6.684 52.293,6.293 L57.293,1.293 C57.684,0.902 58.316,0.902 58.707,1.293 C59.098,1.684 59.098,2.316 58.707,2.707 L53.707,7.707 C53.512,7.902 53.256,8 53,8" id="Fill-1152" fill="#F3D55B" sketch:type="MSShapeGroup"></path>
            <path d="M56,13 C55.744,13 55.488,12.902 55.293,12.707 C54.902,12.316 54.902,11.684 55.293,11.293 L57.293,9.293 C57.684,8.902 58.316,8.902 58.707,9.293 C59.098,9.684 59.098,10.316 58.707,10.707 L56.707,12.707 C56.512,12.902 56.256,13 56,13" id="Fill-1153" fill="#F3D55B" sketch:type="MSShapeGroup"></path>
        </g>
    </g>
</svg>