<?xml version="1.0" encoding="UTF-8" standalone="no"?>
<svg width="59px" height="56px" viewBox="0 0 59 56" version="1.1" xmlns="http://www.w3.org/2000/svg" xmlns:xlink="http://www.w3.org/1999/xlink" xmlns:sketch="http://www.bohemiancoding.com/sketch/ns">
    <!-- Generator: Sketch 3.2.2 (9983) - http://www.bohemiancoding.com/sketch -->
    <title>50 - Astronaut (Flat)</title>
    <desc>Created with Sketch.</desc>
    <defs></defs>
    <g id="Page-1" stroke="none" stroke-width="1" fill="none" fill-rule="evenodd" sketch:type="MSPage">
        <g id="50---Astronaut-(Flat)" sketch:type="MSLayerGroup">
            <path d="M43.857,6.485 C43.685,6.787 43.373,7 43,7 C40.243,7 38,9.243 38,12 C38,12.552 37.552,13 37,13 C36.448,13 36,12.552 36,12 C36,8.472 38.626,5.553 42.025,5.076 C38.573,2.688 34.446,1.218 30,1.026 L30,5.826 C30,6.378 29.552,6.826 29,6.826 C28.448,6.826 28,6.378 28,5.826 L28,1.026 C23.554,1.218 19.427,2.688 15.975,5.076 C19.374,5.553 22,8.472 22,12 C22,12.552 21.552,13 21,13 C20.448,13 20,12.552 20,12 C20,9.243 17.757,7 15,7 C14.627,7 14.315,6.787 14.143,6.485 C9.171,10.712 6,17.002 6,24 L6,40.936 C11.594,46.472 20.044,50 29.5,50 C38.409,50 46.424,46.868 52,41.875 L52,24 C52,17.002 48.829,10.712 43.857,6.485" id="Fill-153" fill="#D1D4D1" sketch:type="MSShapeGroup"></path>
            <path d="M36,12 C36,12.552 36.448,13 37,13 C37.552,13 38,12.552 38,12 C38,9.243 40.243,7 43,7 C43.373,7 43.685,6.787 43.857,6.485 C43.27,5.986 42.659,5.515 42.025,5.076 C38.626,5.553 36,8.472 36,12" id="Fill-154" fill="#ECF0F1" sketch:type="MSShapeGroup"></path>
            <path d="M15,7 C17.757,7 20,9.243 20,12 C20,12.552 20.448,13 21,13 C21.552,13 22,12.552 22,12 C22,8.472 19.374,5.553 15.975,5.076 C15.34,5.515 14.73,5.986 14.143,6.485 C14.315,6.787 14.627,7 15,7" id="Fill-155" fill="#ECF0F1" sketch:type="MSShapeGroup"></path>
            <path d="M29,6.826 C29.552,6.826 30,6.378 30,5.826 L30,1.026 C29.668,1.011 29.335,1 29,1 C28.665,1 28.332,1.011 28,1.026 L28,5.826 C28,6.378 28.448,6.826 29,6.826" id="Fill-156" fill="#ECF0F1" sketch:type="MSShapeGroup"></path>
            <path d="M29.5,50 C21.182,50 13.645,47.269 8.143,42.843 L8.143,49.471 C13.112,54.388 20.617,56 29.016,56 C36.928,56 44.047,54.74 49,50.305 L49,44.212 C43.713,47.823 36.919,50 29.5,50" id="Fill-235" fill="#E6E7E8" sketch:type="MSShapeGroup"></path>
            <path d="M3.658,22.029 C2.675,22.194 2,23.124 2,24.122 L2,26.611 C2,26.826 1.826,27 1.61,27 C0.721,27 0,27.721 0,28.611 L0,31.779 C0,32.453 0.547,33 1.221,33 L1.61,33 C1.826,33 2,33.174 2,33.39 L2,35.878 C2,36.876 2.675,37.806 3.658,37.971 C4.907,38.181 6,37.212 6,36 L6,24 C6,22.788 4.907,21.819 3.658,22.029" id="Fill-236" fill="#ECF0F1" sketch:type="MSShapeGroup"></path>
            <path d="M3,31 C2.74,31 2.48,30.89 2.29,30.71 C2.11,30.52 2,30.26 2,30 C2,29.74 2.11,29.48 2.29,29.29 C2.67,28.92 3.34,28.92 3.71,29.29 C3.89,29.48 4,29.74 4,30 C4,30.26 3.89,30.52 3.71,30.71 C3.52,30.89 3.26,31 3,31" id="Fill-237" fill="#A5A5A4" sketch:type="MSShapeGroup"></path>
            <path d="M54.342,37.971 C55.325,37.806 56,36.876 56,35.879 L56,33.767 C56,33.343 56.343,33 56.767,33 L56.779,33 C57.453,33 58,32.453 58,31.779 L58,28.221 C58,27.547 57.453,27 56.779,27 L56.767,27 C56.343,27 56,26.657 56,26.233 L56,24.122 C56,23.124 55.325,22.194 54.342,22.029 C53.093,21.819 52,22.788 52,24 L52,36 C52,37.212 53.093,38.181 54.342,37.971" id="Fill-238" fill="#ECF0F1" sketch:type="MSShapeGroup"></path>
            <path d="M55,31 C54.74,31 54.48,30.89 54.29,30.71 C54.11,30.52 54,30.27 54,30 C54,29.73 54.11,29.48 54.29,29.29 C54.66,28.92 55.34,28.92 55.71,29.29 C55.89,29.48 56,29.74 56,30 C56,30.26 55.89,30.52 55.71,30.71 C55.52,30.89 55.26,31 55,31" id="Fill-239" fill="#A5A5A4" sketch:type="MSShapeGroup"></path>
            <path d="M58,5 L56.414,5 L54,2.586 L54,1 C54,0.448 53.552,0 53,0 C52.448,0 52,0.448 52,1 L52,2.586 L49.586,5 L48,5 C47.448,5 47,5.448 47,6 C47,6.552 47.448,7 48,7 L49.586,7 L52,9.414 L52,11 C52,11.552 52.448,12 53,12 C53.552,12 54,11.552 54,11 L54,9.414 L56.414,7 L58,7 C58.552,7 59,6.552 59,6 C59,5.448 58.552,5 58,5" id="Fill-327" fill="#F3D55B" sketch:type="MSShapeGroup"></path>
            <path d="M29,8 C16.35,8 6,16.92 6,26.379 L6,39.041 C11.594,43.181 20.044,47 29.5,47 C38.409,47 46.424,43.476 52,39.744 L52,26.379 C52,16.92 41.65,8 29,8" id="Fill-1075" fill="#ECF0F1" sketch:type="MSShapeGroup"></path>
            <path d="M29,11 C16.35,11 6,18.548 6,26.551 L6,37.266 C11.594,40.768 20.044,44 29.5,44 C38.409,44 46.424,41.019 52,37.86 L52,26.551 C52,18.548 41.65,11 29,11" id="Fill-1076" fill="#38454F" sketch:type="MSShapeGroup"></path>
            <path d="M15.095,14.353 C9.578,17.302 6,21.847 6,26.551 L6,37.266 C8.393,38.763 11.311,40.21 14.603,41.377 C15.489,37.046 16,31.953 16,26.5 C16,22.155 15.674,18.039 15.095,14.353" id="Fill-1077" fill="#475B68" sketch:type="MSShapeGroup"></path>
            <path d="M52,26.551 C52,21.847 48.422,17.302 42.905,14.353 C42.325,18.039 42,22.155 42,26.5 C42,32.07 42.535,37.263 43.455,41.653 C46.681,40.577 49.572,39.235 52,37.86 L52,26.551" id="Fill-1078" fill="#475B68" sketch:type="MSShapeGroup"></path>
            <path d="M8.143,42.843 L8.143,45.471 C13.112,50.388 20.617,52 29.016,52 C36.928,52 44.047,50.74 49,46.305 L49,44.212 C43.713,47.823 36.919,50 29.5,50 C21.182,50 13.645,47.269 8.143,42.843" id="Fill-1079" fill="#FFFFFF" sketch:type="MSShapeGroup"></path>
            <path d="M26.999,20.198 C26.491,20.198 26.057,19.813 26.005,19.297 C25.95,18.748 26.351,18.258 26.9,18.203 C28.242,18.068 29.621,18 31,18 C31.552,18 32,18.448 32,19 C32,19.552 31.552,20 31,20 C29.687,20 28.375,20.065 27.1,20.193 C27.066,20.196 27.032,20.198 26.999,20.198" id="Fill-1104" fill="#546A79" sketch:type="MSShapeGroup"></path>
            <path d="M11,31 C10.448,31 10,30.552 10,30 C10,24.972 14.284,20.998 21.754,19.096 C22.288,18.96 22.833,19.283 22.97,19.819 C23.106,20.354 22.782,20.898 22.247,21.035 C15.735,22.692 12,25.96 12,30 C12,30.552 11.552,31 11,31" id="Fill-1105" fill="#546A79" sketch:type="MSShapeGroup"></path>
        </g>
    </g>
</svg>