<?xml version="1.0" encoding="UTF-8" standalone="no"?>
<svg width="60px" height="58px" viewBox="0 0 60 58" version="1.1" xmlns="http://www.w3.org/2000/svg" xmlns:xlink="http://www.w3.org/1999/xlink" xmlns:sketch="http://www.bohemiancoding.com/sketch/ns">
    <!-- Generator: Sketch 3.2.2 (9983) - http://www.bohemiancoding.com/sketch -->
    <title>4 - Avatar Ship (Flat)</title>
    <desc>Created with Sketch.</desc>
    <defs></defs>
    <g id="Page-1" stroke="none" stroke-width="1" fill="none" fill-rule="evenodd" sketch:type="MSPage">
        <g id="4---Avatar-Ship-(Flat)" sketch:type="MSLayerGroup">
            <path d="M37,11 L23,11 L26,0 L34,0 L37,11" id="Fill-14" fill="#8697CB" sketch:type="MSShapeGroup"></path>
            <path d="M39,25 L21,25 L25,32 L22,35 L27,39 L27,35 L33,35 L33,39 L38,35 L35,32 L39,25" id="Fill-15" fill="#CBB292" sketch:type="MSShapeGroup"></path>
            <path d="M23,11 L37,11 L37,17 L23,17 L23,11 Z" id="Fill-16" fill="#CBB292" sketch:type="MSShapeGroup"></path>
            <path d="M28,36.104 L32,36.104 L32,50.876 L28,50.876 L28,36.104 Z" id="Fill-17" fill="#CBB292" sketch:type="MSShapeGroup"></path>
            <path d="M39.838,25 C39.302,23.774 39,22.423 39,21 C39,19.577 39.302,18.226 39.838,17 L31,17 L31,11 L34.535,11 L31,2.697 L31,0 L29,0 L29,2.697 L25.465,11 L29,11 L29,17 L20.158,17 C21.269,19.546 21.269,22.454 20.158,25 L29,25 L29,35 L27,35 L27,52 L29,52 L29,54 L23,54 L23,58 L26,58 L26,57 L34,57 L34,58 L37,58 L37,54 L31,54 L31,52 L33,52 L33,35 L31,35 L31,25 L39.838,25 L39.838,25 Z M29,47 L31,47 L31,50 L29,50 L29,47 Z M29,42 L31,42 L31,45 L29,45 L29,42 Z M29,37 L31,37 L31,40 L29,40 L29,37 Z" id="Fill-18" fill="#556080" sketch:type="MSShapeGroup"></path>
            <path d="M25,22 C25,22.552 24.552,23 24,23 C23.448,23 23,22.552 23,22 C23,21.448 23.448,21 24,21 C24.552,21 25,21.448 25,22" id="Fill-989" fill="#8697CB" sketch:type="MSShapeGroup"></path>
            <path d="M29,22 C29,22.552 28.552,23 28,23 C27.448,23 27,22.552 27,22 C27,21.448 27.448,21 28,21 C28.552,21 29,21.448 29,22" id="Fill-990" fill="#8697CB" sketch:type="MSShapeGroup"></path>
            <path d="M33,22 C33,22.552 32.552,23 32,23 C31.448,23 31,22.552 31,22 C31,21.448 31.448,21 32,21 C32.552,21 33,21.448 33,22" id="Fill-991" fill="#8697CB" sketch:type="MSShapeGroup"></path>
            <path d="M37,22 C37,22.552 36.552,23 36,23 C35.448,23 35,22.552 35,22 C35,21.448 35.448,21 36,21 C36.552,21 37,21.448 37,22" id="Fill-992" fill="#8697CB" sketch:type="MSShapeGroup"></path>
            <path d="M11,32 C8.062,32 5.299,30.856 3.222,28.778 C-1.067,24.489 -1.067,17.511 3.222,13.222 C5.299,11.144 8.062,10 11,10 C13.938,10 16.701,11.144 18.778,13.222 C23.067,17.511 23.067,24.489 18.778,28.778 C16.701,30.856 13.938,32 11,32 L11,32 Z M11,12 C8.596,12 6.336,12.936 4.636,14.636 C1.127,18.145 1.127,23.855 4.636,27.364 C6.336,29.065 8.596,30 11,30 C13.404,30 15.664,29.065 17.364,27.364 C20.873,23.855 20.873,18.145 17.364,14.636 C15.664,12.936 13.404,12 11,12 L11,12 Z" id="Fill-1197" fill="#8697CB" sketch:type="MSShapeGroup"></path>
            <path d="M11.707,21.707 C11.317,22.098 10.683,22.098 10.293,21.707 C9.902,21.317 9.902,20.683 10.293,20.293 C10.683,19.902 11.317,19.902 11.707,20.293 C12.098,20.683 12.098,21.317 11.707,21.707" id="Fill-1198" fill="#D1D4D1" sketch:type="MSShapeGroup"></path>
            <path d="M49,32 C42.935,32 38,27.065 38,21 C38,14.935 42.935,10 49,10 C55.065,10 60,14.935 60,21 C60,27.065 55.065,32 49,32 L49,32 Z M49,12 C44.037,12 40,16.037 40,21 C40,25.963 44.037,30 49,30 C53.963,30 58,25.963 58,21 C58,16.037 53.963,12 49,12 L49,12 Z" id="Fill-1199" fill="#8697CB" sketch:type="MSShapeGroup"></path>
            <path d="M17.364,13.222 L13.013,17.573 C11.491,16.714 9.438,16.904 8.172,18.172 C7.646,18.697 7.298,19.346 7.126,20.05 L1.05,20.05 C0.497,20.05 0.05,20.497 0.05,21.05 C0.05,21.602 0.497,22.05 1.05,22.05 L7.157,22.05 C7.337,22.714 7.672,23.329 8.172,23.828 C8.671,24.328 9.286,24.663 9.95,24.843 L9.95,30.95 C9.95,31.503 10.397,31.95 10.95,31.95 C11.503,31.95 11.95,31.503 11.95,30.95 L11.95,24.874 C12.654,24.702 13.303,24.354 13.828,23.828 C14.584,23.073 15,22.068 15,21 C15,20.275 14.794,19.587 14.435,18.979 L18.778,14.636 C19.169,14.245 19.169,13.612 18.778,13.222 C18.388,12.831 17.755,12.831 17.364,13.222 L17.364,13.222 Z M12.414,22.414 C11.658,23.17 10.342,23.17 9.586,22.414 C9.208,22.036 9,21.534 9,21 C9,20.466 9.208,19.964 9.586,19.586 C9.964,19.208 10.466,19 11,19 C11.534,19 12.036,19.208 12.414,19.586 C12.792,19.964 13,20.466 13,21 C13,21.534 12.792,22.036 12.414,22.414 L12.414,22.414 Z" id="Fill-1200" fill="#556080" sketch:type="MSShapeGroup"></path>
            <path d="M59,20 L52.858,20 C52.411,18.28 50.859,17 49,17 C48.242,17 47.539,17.224 46.935,17.592 L42.636,13.293 C42.245,12.902 41.612,12.902 41.222,13.293 C40.831,13.684 40.831,14.316 41.222,14.707 L45.542,19.027 C45.207,19.612 45,20.279 45,21 C45,21.721 45.207,22.388 45.542,22.973 L41.222,27.293 C40.831,27.684 40.831,28.316 41.222,28.707 C41.417,28.902 41.673,29 41.929,29 C42.185,29 42.44,28.902 42.636,28.707 L46.935,24.408 C47.539,24.776 48.242,25 49,25 C50.859,25 52.411,23.721 52.858,22 L59,22 C59.553,22 60,21.553 60,21 C60,20.447 59.553,20 59,20 L59,20 Z M49,23 C47.897,23 47,22.103 47,21 C47,19.898 47.897,19 49,19 C50.102,19 51,19.898 51,21 C51,22.103 50.102,23 49,23 L49,23 Z" id="Fill-1201" fill="#556080" sketch:type="MSShapeGroup"></path>
            <path d="M49,22 C48.448,22 48,21.552 48,21 C48,20.448 48.448,20 49,20 C49.552,20 50,20.448 50,21 C50,21.552 49.552,22 49,22" id="Fill-1202" fill="#D1D4D1" sketch:type="MSShapeGroup"></path>
        </g>
    </g>
</svg>