<?xml version="1.0" encoding="UTF-8" standalone="no"?>
<svg width="58px" height="57px" viewBox="0 0 58 57" version="1.1" xmlns="http://www.w3.org/2000/svg" xmlns:xlink="http://www.w3.org/1999/xlink" xmlns:sketch="http://www.bohemiancoding.com/sketch/ns">
    <!-- Generator: Sketch 3.2.2 (9983) - http://www.bohemiancoding.com/sketch -->
    <title>13 - Commercial Satellite (Flat)</title>
    <desc>Created with Sketch.</desc>
    <defs></defs>
    <g id="Page-1" stroke="none" stroke-width="1" fill="none" fill-rule="evenodd" sketch:type="MSPage">
        <g id="13---Commercial-Satellite-(Flat)" sketch:type="MSLayerGroup">
            <path d="M19.293,22.736 L23.977,22.736 L25.378,24.138 C25.769,24.528 26.401,24.528 26.792,24.138 C27.183,23.747 27.183,23.114 26.792,22.724 L25.391,21.322 L25.391,16.639 C25.391,16.086 24.943,15.639 24.391,15.639 C23.838,15.639 23.391,16.086 23.391,16.639 L23.391,20.736 L19.293,20.736 C18.74,20.736 18.293,21.183 18.293,21.736 C18.293,22.289 18.74,22.736 19.293,22.736" id="Fill-45" fill="#95A5A5" sketch:type="MSShapeGroup"></path>
            <path d="M23.8,17.23 L23.8,17.229 L13.193,6.623 L11.779,8.037 L22.385,18.644 L23.8,17.23" id="Fill-46" fill="#F3D55B" sketch:type="MSShapeGroup"></path>
            <path d="M25.214,15.815 L25.214,15.816 L26.628,14.401 L16.021,3.795 L14.607,5.209 L25.214,15.815" id="Fill-47" fill="#F3D55B" sketch:type="MSShapeGroup"></path>
            <path d="M19.557,21.473 L19.557,21.473 L20.971,20.058 L10.365,9.451 L8.95,10.866 L19.557,21.473" id="Fill-48" fill="#F3D55B" sketch:type="MSShapeGroup"></path>
            <path d="M28.042,12.987 L28.042,12.987 L30.164,10.866 L19.557,0.259 L17.435,2.381 L17.436,2.381 L28.042,12.987" id="Fill-49" fill="#F3D55B" sketch:type="MSShapeGroup"></path>
            <path d="M4.708,15.108 L4.708,15.108 L2.586,17.23 L13.193,27.836 L15.315,25.715 L15.314,25.715 L4.708,15.108" id="Fill-50" fill="#F3D55B" sketch:type="MSShapeGroup"></path>
            <path d="M16.728,24.301 L16.729,24.301 L18.143,22.887 L7.536,12.28 L6.122,13.694 L16.728,24.301" id="Fill-51" fill="#F3D55B" sketch:type="MSShapeGroup"></path>
            <path d="M26.628,14.401 L26.628,14.401 L28.042,12.987 L17.436,2.381 L17.435,2.381 L16.021,3.795 L26.628,14.401" id="Fill-52" fill="#CBB292" sketch:type="MSShapeGroup"></path>
            <path d="M23.8,17.229 L23.8,17.23 L25.214,15.816 L25.214,15.815 L14.607,5.209 L13.193,6.623 L23.8,17.229" id="Fill-53" fill="#CBB292" sketch:type="MSShapeGroup"></path>
            <path d="M22.385,18.644 L11.779,8.037 L10.365,9.451 L20.971,20.058 L22.385,18.644" id="Fill-54" fill="#CBB292" sketch:type="MSShapeGroup"></path>
            <path d="M18.143,22.887 L18.143,22.887 L19.557,21.473 L8.95,10.866 L7.536,12.28 L18.143,22.887" id="Fill-55" fill="#CBB292" sketch:type="MSShapeGroup"></path>
            <path d="M4.708,15.108 L15.314,25.715 L16.729,24.301 L16.728,24.301 L6.122,13.694 L4.708,15.108" id="Fill-56" fill="#CBB292" sketch:type="MSShapeGroup"></path>
            <path d="M41.098,33 L36.414,33 L35.013,31.599 C34.622,31.208 33.989,31.208 33.599,31.599 C33.208,31.989 33.208,32.622 33.599,33.013 L35,34.414 L35,39.098 C35,39.65 35.447,40.098 36,40.098 C36.553,40.098 37,39.65 37,39.098 L37,35 L41.098,35 C41.65,35 42.098,34.553 42.098,34 C42.098,33.447 41.65,33 41.098,33" id="Fill-57" fill="#95A5A5" sketch:type="MSShapeGroup"></path>
            <path d="M21.132,50.958 L6.99,36.815 L12.647,33.987 L23.961,45.301 L21.132,50.958" id="Fill-622" fill="#556080" sketch:type="MSShapeGroup"></path>
            <path d="M55.87,2.257 C54.359,0.746 51.725,0.744 50.213,2.257 C48.9,3.571 48.707,5.574 49.607,7.106 L48.092,8.621 C47.701,9.012 47.701,9.645 48.092,10.035 C48.287,10.231 48.543,10.328 48.799,10.328 C49.055,10.328 49.31,10.231 49.506,10.035 L51.02,8.521 C51.629,8.88 52.317,9.085 53.041,9.085 C54.109,9.085 55.114,8.669 55.87,7.914 C56.626,7.158 57.042,6.154 57.042,5.086 C57.042,4.017 56.626,3.013 55.87,2.257 L55.87,2.257 Z M54.456,6.5 C53.7,7.253 52.383,7.254 51.627,6.5 C50.848,5.72 50.848,4.451 51.627,3.671 C52.005,3.293 52.507,3.085 53.041,3.085 C53.576,3.085 54.078,3.293 54.456,3.671 C54.834,4.049 55.042,4.551 55.042,5.086 C55.042,5.62 54.834,6.122 54.456,6.5 L54.456,6.5 Z" id="Fill-713" fill="#8697CB" sketch:type="MSShapeGroup"></path>
            <path d="M36.591,38.507 L36.591,38.507 L47.197,49.113 L48.612,47.699 L38.005,37.092 L36.591,38.507" id="Fill-717" fill="#F3D55B" sketch:type="MSShapeGroup"></path>
            <path d="M35.177,39.921 L35.177,39.921 L33.763,41.335 L44.369,51.941 L44.369,51.942 L45.783,50.527 L35.177,39.921" id="Fill-718" fill="#F3D55B" sketch:type="MSShapeGroup"></path>
            <path d="M40.834,34.264 L40.834,34.263 L39.419,35.678 L50.026,46.285 L51.44,44.87 L40.834,34.264" id="Fill-719" fill="#F3D55B" sketch:type="MSShapeGroup"></path>
            <path d="M32.349,42.749 L32.349,42.749 L30.227,44.87 L40.834,55.477 L42.955,53.356 L32.349,42.749" id="Fill-720" fill="#F3D55B" sketch:type="MSShapeGroup"></path>
            <path d="M55.683,40.628 L55.683,40.628 L57.804,38.506 L47.198,27.9 L45.076,30.021 L45.076,30.022 L55.683,40.628" id="Fill-721" fill="#F3D55B" sketch:type="MSShapeGroup"></path>
            <path d="M43.662,31.436 L43.662,31.436 L42.248,32.85 L52.854,43.456 L54.269,42.042 L43.662,31.436" id="Fill-722" fill="#F3D55B" sketch:type="MSShapeGroup"></path>
            <path d="M33.763,41.335 L33.763,41.335 L32.349,42.749 L42.955,53.356 L44.369,51.942 L44.369,51.941 L33.763,41.335" id="Fill-723" fill="#CBB292" sketch:type="MSShapeGroup"></path>
            <path d="M36.591,38.507 L36.591,38.507 L35.177,39.921 L45.783,50.527 L47.197,49.113 L36.591,38.507" id="Fill-724" fill="#CBB292" sketch:type="MSShapeGroup"></path>
            <path d="M38.005,37.092 L48.612,47.699 L50.026,46.285 L39.419,35.678 L38.005,37.092" id="Fill-725" fill="#CBB292" sketch:type="MSShapeGroup"></path>
            <path d="M42.248,32.85 L42.248,32.85 L40.834,34.263 L40.834,34.264 L51.44,44.87 L52.855,43.456 L42.248,32.85" id="Fill-726" fill="#CBB292" sketch:type="MSShapeGroup"></path>
            <path d="M55.683,40.628 L45.076,30.022 L45.076,30.021 L43.662,31.435 L54.269,42.042 L55.683,40.628" id="Fill-727" fill="#CBB292" sketch:type="MSShapeGroup"></path>
            <path d="M43.142,23.47 L22.636,43.976 L14.151,35.491 L34.657,14.985 C36.99,12.651 40.809,12.651 43.142,14.985 C45.476,17.318 45.476,21.137 43.142,23.47" id="Fill-728" fill="#E6E7E8" sketch:type="MSShapeGroup"></path>
            <path d="M43.142,3.671 C40.018,6.795 40.018,11.861 43.142,14.985 C46.266,18.109 51.332,18.109 54.456,14.985 L43.142,3.671" id="Fill-729" fill="#556080" sketch:type="MSShapeGroup"></path>
            <path d="M11,55 C10.448,55 10,55.448 10,56 C10,56.552 10.448,57 11,57 C11.552,57 12,56.552 12,56 C12,55.448 11.552,55 11,55" id="Fill-730" fill="#F18D46" sketch:type="MSShapeGroup"></path>
            <path d="M4,52 C3.448,52 3,52.448 3,53 C3,53.552 3.448,54 4,54 C4.552,54 5,53.552 5,53 C5,52.448 4.552,52 4,52" id="Fill-731" fill="#F18D46" sketch:type="MSShapeGroup"></path>
            <path d="M6,50 C5.448,50 5,50.448 5,51 C5,51.552 5.448,52 6,52 C6.552,52 7,51.552 7,51 C7,50.448 6.552,50 6,50" id="Fill-732" fill="#F18D46" sketch:type="MSShapeGroup"></path>
            <path d="M8,48 C7.448,48 7,48.448 7,49 C7,49.552 7.448,50 8,50 C8.552,50 9,49.552 9,49 C9,48.448 8.552,48 8,48" id="Fill-733" fill="#F18D46" sketch:type="MSShapeGroup"></path>
            <path d="M11,47 C11,46.448 10.552,46 10,46 C9.448,46 9,46.448 9,47 C9,47.552 9.448,48 10,48 C10.552,48 11,47.552 11,47" id="Fill-734" fill="#F18D46" sketch:type="MSShapeGroup"></path>
            <path d="M13.242,48.03 C12.705,47.893 12.163,48.221 12.03,48.758 L11.03,52.758 C10.895,53.293 11.222,53.836 11.758,53.97 C11.839,53.99 11.921,54 12.001,54 C12.449,54 12.856,53.697 12.97,53.242 L13.97,49.242 C14.104,48.707 13.778,48.164 13.242,48.03" id="Fill-735" fill="#F18D46" sketch:type="MSShapeGroup"></path>
            <path d="M1,45 C0.448,45 0,45.448 0,46 C0,46.552 0.448,47 1,47 C1.552,47 2,46.552 2,46 C2,45.448 1.552,45 1,45" id="Fill-736" fill="#F18D46" sketch:type="MSShapeGroup"></path>
            <path d="M3.999,46 C4.079,46 4.161,45.99 4.242,45.97 L8.242,44.97 C8.778,44.836 9.104,44.293 8.97,43.758 C8.836,43.222 8.292,42.894 7.758,43.03 L3.758,44.03 C3.222,44.164 2.895,44.707 3.03,45.242 C3.144,45.697 3.551,46 3.999,46" id="Fill-737" fill="#F18D46" sketch:type="MSShapeGroup"></path>
            <path d="M19.037,40.377 L17.623,38.963 L25.293,31.293 L26.707,32.707 L19.037,40.377" id="Fill-738" fill="#95A5A5" sketch:type="MSShapeGroup"></path>
        </g>
    </g>
</svg>