<?xml version="1.0" encoding="UTF-8" standalone="no"?>
<svg width="59px" height="58px" viewBox="0 0 59 58" version="1.1" xmlns="http://www.w3.org/2000/svg" xmlns:xlink="http://www.w3.org/1999/xlink" xmlns:sketch="http://www.bohemiancoding.com/sketch/ns">
    <!-- Generator: Sketch 3.2.2 (9983) - http://www.bohemiancoding.com/sketch -->
    <title>14 - Curiosity Rover (Flat)</title>
    <desc>Created with Sketch.</desc>
    <defs></defs>
    <g id="Page-1" stroke="none" stroke-width="1" fill="none" fill-rule="evenodd" sketch:type="MSPage">
        <g id="14---Curiosity-Rover-(Flat)" sketch:type="MSLayerGroup">
            <path d="M35,28 C34.447,28 34,27.553 34,27 L34,20 C34,19.447 34.447,19 35,19 C35.553,19 36,19.447 36,20 L36,27 C36,27.553 35.553,28 35,28" id="Fill-58" fill="#A5A5A4" sketch:type="MSShapeGroup"></path>
            <path d="M27,28 C26.447,28 26,27.553 26,27 L26,12 C26,11.447 26.447,11 27,11 C27.553,11 28,11.447 28,12 L28,27 C28,27.553 27.553,28 27,28" id="Fill-59" fill="#A5A5A4" sketch:type="MSShapeGroup"></path>
            <path d="M5,18.142 L5,9 C5,8.447 4.553,8 4,8 C3.447,8 3,8.447 3,9 L3,18.142 C1.279,18.589 0,20.141 0,22 C0,22.553 0.447,23 1,23 C1.553,23 2,22.553 2,22 C2,20.898 2.897,20 4,20 C5.102,20 6,20.898 6,22 C6,22.553 6.447,23 7,23 C7.553,23 8,22.553 8,22 C8,20.141 6.72,18.589 5,18.142" id="Fill-60" fill="#546A79" sketch:type="MSShapeGroup"></path>
            <path d="M17,21 C16.447,21 16,21.447 16,22 L16,27 C16,27.553 16.447,28 17,28 C17.553,28 18,27.553 18,27 L18,22 C18,21.447 17.553,21 17,21" id="Fill-61" fill="#546A79" sketch:type="MSShapeGroup"></path>
            <path d="M6.825,7.411 C6.435,7.021 5.802,7.021 5.411,7.411 C5.02,7.802 5.02,8.435 5.411,8.825 L14.173,17.587 C14.368,17.782 14.624,17.88 14.88,17.88 C15.136,17.88 15.392,17.782 15.587,17.587 C15.977,17.196 15.977,16.564 15.587,16.173 L6.825,7.411" id="Fill-62" fill="#546A79" sketch:type="MSShapeGroup"></path>
            <path d="M32,15 L38,15 L38,21 L32,21 L32,15 Z M34,19 L36,19 L36,17 L34,17 L34,19 Z" id="Fill-63" fill="#556080" sketch:type="MSShapeGroup"></path>
            <path d="M48.707,14.293 C48.451,14.293 48.195,14.195 48,14 C47.609,13.609 47.609,12.977 48,12.586 L52.052,8.534 C52.442,8.144 53.075,8.144 53.466,8.534 C53.856,8.925 53.856,9.558 53.466,9.948 L49.414,14 C49.219,14.195 48.963,14.293 48.707,14.293" id="Fill-64" fill="#8697CB" sketch:type="MSShapeGroup"></path>
            <path d="M54.879,11.121 C52.673,11.121 50.879,9.327 50.879,7.121 C50.879,4.915 52.673,3.121 54.879,3.121 C57.085,3.121 58.879,4.915 58.879,7.121 C58.879,9.327 57.085,11.121 54.879,11.121 L54.879,11.121 Z M54.879,5.121 C53.776,5.121 52.879,6.019 52.879,7.121 C52.879,8.224 53.776,9.121 54.879,9.121 C55.981,9.121 56.879,8.224 56.879,7.121 C56.879,6.019 55.981,5.121 54.879,5.121 L54.879,5.121 Z" id="Fill-65" fill="#8697CB" sketch:type="MSShapeGroup"></path>
            <path d="M47,21 L47,27" id="Fill-66" fill="#A5A5A4" sketch:type="MSShapeGroup"></path>
            <path d="M47,28 C46.447,28 46,27.553 46,27 L46,21 C46,20.447 46.447,20 47,20 C47.553,20 48,20.447 48,21 L48,27 C48,27.553 47.553,28 47,28" id="Fill-67" fill="#A5A5A4" sketch:type="MSShapeGroup"></path>
            <path d="M49,27 L9,27 L1,38 L3.646,49 L54.354,49 L57,38 L49,27" id="Fill-68" fill="#BDC3C7" sketch:type="MSShapeGroup"></path>
            <path d="M53.364,33 L49,27 L9,27 L4.636,33 L53.364,33" id="Fill-69" fill="#ECF0F1" sketch:type="MSShapeGroup"></path>
            <path d="M19,33 L23,33 L23,37 L19,37 L19,33 Z" id="Fill-70" fill="#D1D4D1" sketch:type="MSShapeGroup"></path>
            <path d="M27,33 L31,33 L31,37 L27,37 L27,33 Z" id="Fill-71" fill="#D1D4D1" sketch:type="MSShapeGroup"></path>
            <path d="M35,33 L39,33 L39,37 L35,37 L35,33 Z" id="Fill-72" fill="#D1D4D1" sketch:type="MSShapeGroup"></path>
            <path d="M17.353,50.171 C16.495,49.607 16.495,48.393 17.353,47.829 C18.571,47.029 17.951,45.199 16.476,45.238 C15.436,45.266 14.691,44.283 15.04,43.343 C15.535,42.01 13.912,40.879 12.743,41.742 C11.918,42.351 10.714,41.976 10.42,41.019 C10.003,39.661 7.997,39.661 7.58,41.019 C7.286,41.976 6.082,42.351 5.257,41.742 C4.088,40.879 2.465,42.01 2.96,43.343 C3.309,44.283 2.564,45.266 1.524,45.238 C0.049,45.199 -0.571,47.029 0.647,47.829 C1.505,48.393 1.505,49.607 0.647,50.171 C-0.571,50.971 0.049,52.801 1.524,52.762 C2.564,52.734 3.309,53.717 2.96,54.657 C2.465,55.99 4.088,57.121 5.257,56.258 C6.082,55.649 7.286,56.024 7.58,56.981 C7.997,58.34 10.003,58.34 10.42,56.981 C10.714,56.024 11.918,55.649 12.743,56.258 C13.912,57.121 15.535,55.99 15.04,54.657 C14.691,53.717 15.436,52.734 16.476,52.762 C17.951,52.801 18.571,50.971 17.353,50.171 L17.353,50.171 Z M9,52 C7.343,52 6,50.657 6,49 C6,47.343 7.343,46 9,46 C10.657,46 12,47.343 12,49 C12,50.657 10.657,52 9,52 L9,52 Z" id="Fill-676" fill="#556080" sketch:type="MSShapeGroup"></path>
            <path d="M57.353,50.171 C56.495,49.607 56.495,48.393 57.353,47.829 C58.571,47.029 57.951,45.199 56.476,45.238 C55.436,45.266 54.691,44.283 55.04,43.343 C55.535,42.01 53.912,40.879 52.743,41.742 C51.918,42.351 50.714,41.976 50.42,41.019 C50.003,39.661 47.997,39.661 47.58,41.019 C47.286,41.976 46.082,42.351 45.257,41.742 C44.088,40.879 42.465,42.01 42.96,43.343 C43.309,44.283 42.564,45.266 41.524,45.238 C40.049,45.199 39.429,47.029 40.647,47.829 C41.505,48.393 41.505,49.607 40.647,50.171 C39.429,50.971 40.049,52.801 41.524,52.762 C42.564,52.734 43.309,53.717 42.96,54.657 C42.465,55.99 44.088,57.121 45.257,56.258 C46.082,55.649 47.286,56.024 47.58,56.981 C47.997,58.34 50.003,58.34 50.42,56.981 C50.714,56.024 51.918,55.649 52.743,56.258 C53.912,57.121 55.535,55.99 55.04,54.657 C54.691,53.717 55.436,52.734 56.476,52.762 C57.951,52.801 58.571,50.971 57.353,50.171 L57.353,50.171 Z M49,52 C47.343,52 46,50.657 46,49 C46,47.343 47.343,46 49,46 C50.657,46 52,47.343 52,49 C52,50.657 50.657,52 49,52 L49,52 Z" id="Fill-677" fill="#556080" sketch:type="MSShapeGroup"></path>
            <path d="M37.353,50.171 C36.495,49.607 36.495,48.393 37.353,47.829 C38.571,47.029 37.951,45.199 36.476,45.238 C35.436,45.266 34.691,44.283 35.04,43.343 C35.535,42.01 33.912,40.879 32.743,41.742 C31.918,42.351 30.714,41.976 30.42,41.019 C30.003,39.661 27.997,39.661 27.58,41.019 C27.286,41.976 26.082,42.351 25.257,41.742 C24.088,40.879 22.465,42.01 22.96,43.343 C23.309,44.283 22.564,45.266 21.524,45.238 C20.049,45.199 19.429,47.029 20.647,47.829 C21.505,48.393 21.505,49.607 20.647,50.171 C19.429,50.971 20.049,52.801 21.524,52.762 C22.564,52.734 23.309,53.717 22.96,54.657 C22.465,55.99 24.088,57.121 25.257,56.258 C26.082,55.649 27.286,56.024 27.58,56.981 C27.997,58.34 30.003,58.34 30.42,56.981 C30.714,56.024 31.918,55.649 32.743,56.258 C33.912,57.121 35.535,55.99 35.04,54.657 C34.691,53.717 35.436,52.734 36.476,52.762 C37.951,52.801 38.571,50.971 37.353,50.171 L37.353,50.171 Z M29,52 C27.343,52 26,50.657 26,49 C26,47.343 27.343,46 29,46 C30.657,46 32,47.343 32,49 C32,50.657 30.657,52 29,52 L29,52 Z" id="Fill-678" fill="#556080" sketch:type="MSShapeGroup"></path>
            <path d="M43.758,6.929 L42.343,8.343 C39.225,11.462 39.225,16.538 42.343,19.657 C43.854,21.168 45.863,22 48,22 C50.137,22 52.145,21.168 53.658,19.657 L55.071,18.242 L43.758,6.929" id="Fill-712" fill="#556080" sketch:type="MSShapeGroup"></path>
            <path d="M20,19 C20,20.657 18.657,22 17,22 C15.343,22 14,20.657 14,19 C14,17.343 15.343,16 17,16 C18.657,16 20,17.343 20,19" id="Fill-714" fill="#556080" sketch:type="MSShapeGroup"></path>
            <path d="M7,6 C7,7.657 5.657,9 4,9 C2.343,9 1,7.657 1,6 C1,4.343 2.343,3 4,3 C5.657,3 7,4.343 7,6" id="Fill-715" fill="#556080" sketch:type="MSShapeGroup"></path>
            <path d="M16,0 L38,0 L38,12 L16,12 L16,0 Z" id="Fill-716" fill="#556080" sketch:type="MSShapeGroup"></path>
            <path d="M35,6 C35,7.657 33.657,9 32,9 C30.343,9 29,7.657 29,6 C29,4.343 30.343,3 32,3 C33.657,3 35,4.343 35,6" id="Fill-1071" fill="#ED7161" sketch:type="MSShapeGroup"></path>
            <path d="M25,6 C25,7.657 23.657,9 22,9 C20.343,9 19,7.657 19,6 C19,4.343 20.343,3 22,3 C23.657,3 25,4.343 25,6" id="Fill-1072" fill="#F18D46" sketch:type="MSShapeGroup"></path>
            <path d="M12,49 C12,50.657 10.657,52 9,52 C7.343,52 6,50.657 6,49 C6,47.343 7.343,46 9,46 C10.657,46 12,47.343 12,49" id="Fill-1158" fill="#CBB292" sketch:type="MSShapeGroup"></path>
            <path d="M32,49 C32,50.657 30.657,52 29,52 C27.343,52 26,50.657 26,49 C26,47.343 27.343,46 29,46 C30.657,46 32,47.343 32,49" id="Fill-1159" fill="#CBB292" sketch:type="MSShapeGroup"></path>
            <path d="M52,49 C52,50.657 50.657,52 49,52 C47.343,52 46,50.657 46,49 C46,47.343 47.343,46 49,46 C50.657,46 52,47.343 52,49" id="Fill-1160" fill="#CBB292" sketch:type="MSShapeGroup"></path>
        </g>
    </g>
</svg>