<?xml version="1.0" encoding="UTF-8" standalone="no"?>
<svg width="61px" height="60px" viewBox="0 0 61 60" version="1.1" xmlns="http://www.w3.org/2000/svg" xmlns:xlink="http://www.w3.org/1999/xlink" xmlns:sketch="http://www.bohemiancoding.com/sketch/ns">
    <!-- Generator: Sketch 3.2.2 (9983) - http://www.bohemiancoding.com/sketch -->
    <title>1 - Death Star (Flat)</title>
    <desc>Created with Sketch.</desc>
    <defs></defs>
    <g id="Page-1" stroke="none" stroke-width="1" fill="none" fill-rule="evenodd" sketch:type="MSPage">
        <g id="1---Death-Star-(Flat)" sketch:type="MSLayerGroup">
            <path d="M4,28 L56,28 L56,32 L4,32 L4,28 Z" id="Fill-1" fill="#556080" sketch:type="MSShapeGroup"></path>
            <path d="M59.998,27.932 C58.93,12.269 45.787,0 30.076,0 C14.366,0 1.224,12.269 0.154,27.932 L0.082,29 L60.07,29 L59.998,27.932" id="Fill-2" fill="#8697CB" sketch:type="MSShapeGroup"></path>
            <path d="M0.154,32.068 C1.224,47.731 14.366,60 30.076,60 C45.787,60 58.93,47.731 59.998,32.068 L60.07,31 L0.082,31 L0.154,32.068" id="Fill-3" fill="#8697CB" sketch:type="MSShapeGroup"></path>
            <path d="M40.076,15 C40.076,20.523 35.599,25 30.076,25 C24.553,25 20.076,20.523 20.076,15 C20.076,9.477 24.553,5 30.076,5 C35.599,5 40.076,9.477 40.076,15 L40.076,15 Z" id="Fill-1028" fill="#556080" sketch:type="MSShapeGroup"></path>
            <path d="M40.076,15 C40.076,20.523 35.599,25 30.076,25 C24.553,25 20.076,20.523 20.076,15 C20.076,9.477 24.553,5 30.076,5 C35.599,5 40.076,9.477 40.076,15 L40.076,15 Z" id="Stroke-1029" stroke="#E6E7E8" stroke-width="2" stroke-linecap="round" sketch:type="MSShapeGroup"></path>
            <path d="M40.076,14 L35.986,14 C35.832,13.091 35.476,12.252 34.962,11.529 L37.854,8.636 C38.245,8.245 38.245,7.612 37.854,7.222 C37.464,6.831 36.831,6.831 36.44,7.222 L33.548,10.115 C32.825,9.6 31.986,9.244 31.076,9.09 L31.076,5 C31.076,4.447 30.629,4 30.076,4 C29.523,4 29.076,4.447 29.076,5 L29.076,9.09 C28.167,9.244 27.327,9.6 26.605,10.115 L23.712,7.222 C23.321,6.831 22.688,6.831 22.298,7.222 C21.907,7.612 21.907,8.245 22.298,8.636 L25.191,11.529 C24.676,12.251 24.32,13.091 24.166,14 L20.076,14 C19.523,14 19.076,14.447 19.076,15 C19.076,15.553 19.523,16 20.076,16 L24.166,16 C24.32,16.909 24.676,17.749 25.191,18.471 L22.298,21.364 C21.907,21.755 21.907,22.388 22.298,22.778 C22.493,22.974 22.749,23.071 23.005,23.071 C23.261,23.071 23.517,22.974 23.712,22.778 L26.605,19.885 C27.327,20.4 28.167,20.756 29.076,20.91 L29.076,25 C29.076,25.553 29.523,26 30.076,26 C30.629,26 31.076,25.553 31.076,25 L31.076,20.91 C31.986,20.756 32.825,20.4 33.548,19.885 L36.44,22.778 C36.636,22.974 36.892,23.071 37.147,23.071 C37.403,23.071 37.659,22.974 37.854,22.778 C38.245,22.388 38.245,21.755 37.854,21.364 L34.962,18.471 C35.476,17.749 35.832,16.909 35.986,16 L40.076,16 C40.629,16 41.076,15.553 41.076,15 C41.076,14.447 40.629,14 40.076,14 L40.076,14 Z M30.076,19 C27.87,19 26.076,17.206 26.076,15 C26.076,12.794 27.87,11 30.076,11 C32.282,11 34.076,12.794 34.076,15 C34.076,17.206 32.282,19 30.076,19 L30.076,19 Z" id="Fill-1030" fill="#ECF0F1" sketch:type="MSShapeGroup"></path>
            <path d="M30.076,14 C29.524,14 29.076,14.448 29.076,15 C29.076,15.552 29.524,16 30.076,16 C30.629,16 31.076,15.552 31.076,15 C31.076,14.448 30.629,14 30.076,14" id="Fill-1031" fill="#ECF0F1" sketch:type="MSShapeGroup"></path>
            <path d="M14.076,40 C14.076,39.447 13.629,39 13.076,39 L3.565,39 C3.343,38.343 3.144,37.674 2.97,37 L16.076,37 C16.629,37 17.076,36.553 17.076,36 C17.076,35.447 16.629,35 16.076,35 L0.478,35 L0.731,36.206 C1.026,37.609 1.426,39.002 1.919,40.345 L2.159,41 L13.076,41 C13.629,41 14.076,40.553 14.076,40" id="Fill-1032" fill="#556080" sketch:type="MSShapeGroup"></path>
            <path d="M49.076,36 C49.076,36.553 49.523,37 50.076,37 L57.183,37 C57.009,37.676 56.811,38.344 56.588,39 L46.076,39 C45.523,39 45.076,39.447 45.076,40 C45.076,40.553 45.523,41 46.076,41 L57.994,41 L58.234,40.345 C58.726,39.008 59.125,37.615 59.422,36.206 L59.676,35 L50.076,35 C49.523,35 49.076,35.447 49.076,36" id="Fill-1033" fill="#556080" sketch:type="MSShapeGroup"></path>
            <path d="M20.076,48 L8.642,48 C8.099,47.354 7.586,46.685 7.106,46 L15.076,46 C15.629,46 16.076,45.553 16.076,45 C16.076,44.447 15.629,44 15.076,44 L3.485,44 L4.405,45.519 C5.281,46.963 6.297,48.354 7.426,49.655 L7.725,50 L20.076,50 C20.629,50 21.076,49.553 21.076,49 C21.076,48.447 20.629,48 20.076,48" id="Fill-1034" fill="#556080" sketch:type="MSShapeGroup"></path>
            <path d="M38.076,45 C38.076,45.553 38.523,46 39.076,46 L53.047,46 C52.567,46.685 52.055,47.354 51.512,48 L43.076,48 C42.523,48 42.076,48.447 42.076,49 C42.076,49.553 42.523,50 43.076,50 L52.429,50 L52.728,49.655 C53.857,48.354 54.873,46.962 55.747,45.518 L56.666,44 L39.076,44 C38.523,44 38.076,44.447 38.076,45" id="Fill-1035" fill="#556080" sketch:type="MSShapeGroup"></path>
            <path d="M20.076,53 L13.81,53 C13.257,53 12.81,53.447 12.81,54 C12.81,54.553 13.257,55 13.81,55 L20.076,55 C20.629,55 21.076,54.553 21.076,54 C21.076,53.447 20.629,53 20.076,53" id="Fill-1036" fill="#556080" sketch:type="MSShapeGroup"></path>
            <path d="M46.343,53 L38.076,53 C37.523,53 37.076,53.447 37.076,54 C37.076,54.553 37.523,55 38.076,55 L46.343,55 C46.896,55 47.343,54.553 47.343,54 C47.343,53.447 46.896,53 46.343,53" id="Fill-1037" fill="#556080" sketch:type="MSShapeGroup"></path>
            <path d="M47.076,21 L56.588,21 C56.811,21.656 57.009,22.324 57.183,23 L51.076,23 C50.523,23 50.076,23.447 50.076,24 C50.076,24.553 50.523,25 51.076,25 L59.676,25 L59.422,23.794 C59.125,22.385 58.726,20.992 58.234,19.655 L57.994,19 L47.076,19 C46.523,19 46.076,19.447 46.076,20 C46.076,20.553 46.523,21 47.076,21" id="Fill-1038" fill="#556080" sketch:type="MSShapeGroup"></path>
            <path d="M11.076,24 C11.076,23.447 10.629,23 10.076,23 L2.97,23 C3.144,22.326 3.343,21.657 3.565,21 L14.076,21 C14.629,21 15.076,20.553 15.076,20 C15.076,19.447 14.629,19 14.076,19 L2.159,19 L1.919,19.655 C1.426,20.998 1.026,22.391 0.731,23.794 L0.478,25 L10.076,25 C10.629,25 11.076,24.553 11.076,24" id="Fill-1039" fill="#556080" sketch:type="MSShapeGroup"></path>
            <path d="M48.076,16 L54.892,16 C55.444,16 55.892,15.553 55.892,15 C55.892,14.447 55.444,14 54.892,14 L48.076,14 C47.523,14 47.076,14.447 47.076,15 C47.076,15.553 47.523,16 48.076,16" id="Fill-1040" fill="#556080" sketch:type="MSShapeGroup"></path>
            <path d="M5.261,16 L11.076,16 C11.629,16 12.076,15.553 12.076,15 C12.076,14.447 11.629,14 11.076,14 L5.261,14 C4.708,14 4.261,14.447 4.261,15 C4.261,15.553 4.708,16 5.261,16" id="Fill-1041" fill="#556080" sketch:type="MSShapeGroup"></path>
        </g>
    </g>
</svg>