<?xml version="1.0" encoding="UTF-8" standalone="no"?>
<svg width="58px" height="58px" viewBox="0 0 58 58" version="1.1" xmlns="http://www.w3.org/2000/svg" xmlns:xlink="http://www.w3.org/1999/xlink" xmlns:sketch="http://www.bohemiancoding.com/sketch/ns">
    <!-- Generator: Sketch 3.2.2 (9983) - http://www.bohemiancoding.com/sketch -->
    <title>31 - Europa (Flat)</title>
    <desc>Created with Sketch.</desc>
    <defs></defs>
    <g id="Page-1" stroke="none" stroke-width="1" fill="none" fill-rule="evenodd" sketch:type="MSPage">
        <g id="31---Europa-(Flat)" sketch:type="MSLayerGroup">
            <path d="M58,29 C58,45.016 45.016,58 29,58 C12.984,58 0,45.016 0,29 C0,12.984 12.984,0 29,0 C45.016,0 58,12.984 58,29" id="Fill-137" fill="#7F6E5D" sketch:type="MSShapeGroup"></path>
            <path d="M22.634,12.848 C24.188,15.457 21.603,19.864 16.858,22.691 C12.113,25.517 7.006,25.693 5.452,23.084 C3.897,20.474 6.483,16.067 11.228,13.241 C15.973,10.414 21.079,10.238 22.634,12.848" id="Fill-138" fill="#AF8066" sketch:type="MSShapeGroup"></path>
            <path d="M36.806,37.731 C35.871,40.621 33.409,42.413 31.307,41.733 C29.205,41.053 28.259,38.159 29.194,35.269 C30.129,32.379 32.591,30.587 34.693,31.267 C36.794,31.947 37.741,34.841 36.806,37.731" id="Fill-139" fill="#AF8066" sketch:type="MSShapeGroup"></path>
            <path d="M47.127,18.994 C46.267,20.073 44.168,19.832 42.441,18.455 C40.714,17.077 40.012,15.086 40.873,14.006 C41.733,12.927 43.831,13.168 45.559,14.545 C47.286,15.923 47.988,17.914 47.127,18.994" id="Fill-140" fill="#AF8066" sketch:type="MSShapeGroup"></path>
            <path d="M23.661,44.513 C24.692,45.432 24.336,47.514 22.866,49.163 C21.397,50.813 19.37,51.405 18.339,50.487 C17.308,49.568 17.664,47.486 19.134,45.837 C20.603,44.188 22.63,43.595 23.661,44.513" id="Fill-141" fill="#AF8066" sketch:type="MSShapeGroup"></path>
            <path d="M13.456,37.514 C12.761,38.707 10.65,38.772 8.741,37.66 C6.833,36.548 5.849,34.679 6.544,33.486 C7.239,32.293 9.35,32.228 11.259,33.34 C13.167,34.452 14.151,36.321 13.456,37.514" id="Fill-142" fill="#AF8066" sketch:type="MSShapeGroup"></path>
            <path d="M49.821,45.317 C50.229,46.635 48.85,48.235 46.74,48.888 C44.629,49.542 42.588,49.002 42.179,47.684 C41.771,46.365 43.15,44.766 45.26,44.112 C47.371,43.458 49.412,43.998 49.821,45.317" id="Fill-143" fill="#AF8066" sketch:type="MSShapeGroup"></path>
            <path d="M32,3.5 C32,4.881 30.209,6 28,6 C25.791,6 24,4.881 24,3.5 C24,2.119 25.791,1 28,1 C30.209,1 32,2.119 32,3.5" id="Fill-144" fill="#AF8066" sketch:type="MSShapeGroup"></path>
            <path d="M41,18 L39.414,18 L37,15.586 L37,14 C37,13.448 36.553,13 36,13 C35.447,13 35,13.448 35,14 L35,15.586 L32.586,18 L31,18 C30.447,18 30,18.448 30,19 C30,19.552 30.447,20 31,20 L32.586,20 L35,22.414 L35,24 C35,24.552 35.447,25 36,25 C36.553,25 37,24.552 37,24 L37,22.414 L39.414,20 L41,20 C41.553,20 42,19.552 42,19 C42,18.448 41.553,18 41,18" id="Fill-600" fill="#F3D55B" sketch:type="MSShapeGroup"></path>
            <path d="M12.646,37.81 C12.259,37.914 11.936,38.162 11.735,38.509 C11.534,38.856 11.481,39.261 11.585,39.647 C11.761,40.302 12.355,40.759 13.033,40.759 C13.164,40.759 13.295,40.742 13.422,40.708 C14.221,40.494 14.696,39.67 14.483,38.871 C14.273,38.089 13.436,37.598 12.646,37.81" id="Fill-601" fill="#F3D55B" sketch:type="MSShapeGroup"></path>
            <path d="M37.612,46.551 C37.225,46.654 36.9,46.903 36.7,47.25 C36.5,47.597 36.447,48.002 36.551,48.388 C36.727,49.043 37.322,49.5 38,49.5 C38.131,49.5 38.261,49.483 38.389,49.449 C39.187,49.234 39.662,48.411 39.448,47.611 C39.238,46.83 38.395,46.338 37.612,46.551" id="Fill-602" fill="#F3D55B" sketch:type="MSShapeGroup"></path>
            <path d="M50.449,25.612 C50.239,24.831 49.4,24.341 48.611,24.551 C47.813,24.766 47.338,25.589 47.551,26.388 C47.727,27.043 48.321,27.5 48.999,27.5 C49.13,27.5 49.261,27.483 49.389,27.449 C50.187,27.234 50.662,26.411 50.449,25.612" id="Fill-603" fill="#F3D55B" sketch:type="MSShapeGroup"></path>
            <path d="M22.999,11.5 C23.13,11.5 23.261,11.483 23.389,11.449 C24.187,11.234 24.662,10.411 24.449,9.612 C24.239,8.83 23.401,8.341 22.611,8.551 C21.813,8.766 21.338,9.589 21.551,10.388 C21.727,11.043 22.321,11.5 22.999,11.5" id="Fill-604" fill="#F3D55B" sketch:type="MSShapeGroup"></path>
            <path d="M22.611,48.551 C21.813,48.766 21.338,49.589 21.551,50.388 C21.727,51.043 22.321,51.5 22.999,51.5 C23.13,51.5 23.261,51.483 23.389,51.449 C24.187,51.234 24.662,50.411 24.449,49.612 C24.239,48.831 23.401,48.339 22.611,48.551" id="Fill-605" fill="#F3D55B" sketch:type="MSShapeGroup"></path>
            <path d="M26,31 L25,31 L25,30 C25,29.448 24.553,29 24,29 C23.447,29 23,29.448 23,30 L23,31 L22,31 C21.447,31 21,31.448 21,32 C21,32.552 21.447,33 22,33 L23,33 L23,34 C23,34.552 23.447,35 24,35 C24.553,35 25,34.552 25,34 L25,33 L26,33 C26.553,33 27,32.552 27,32 C27,31.448 26.553,31 26,31" id="Fill-606" fill="#F3D55B" sketch:type="MSShapeGroup"></path>
            <path d="M15,15 L14,15 L14,14 C14,13.448 13.553,13 13,13 C12.447,13 12,13.448 12,14 L12,15 L11,15 C10.447,15 10,15.448 10,16 C10,16.552 10.447,17 11,17 L12,17 L12,18 C12,18.552 12.447,19 13,19 C13.553,19 14,18.552 14,18 L14,17 L15,17 C15.553,17 16,16.552 16,16 C16,15.448 15.553,15 15,15" id="Fill-607" fill="#F3D55B" sketch:type="MSShapeGroup"></path>
            <path d="M48,38 L47,38 L47,37 C47,36.448 46.553,36 46,36 C45.447,36 45,36.448 45,37 L45,38 L44,38 C43.447,38 43,38.448 43,39 C43,39.552 43.447,40 44,40 L45,40 L45,41 C45,41.552 45.447,42 46,42 C46.553,42 47,41.552 47,41 L47,40 L48,40 C48.553,40 49,39.552 49,39 C49,38.448 48.553,38 48,38" id="Fill-608" fill="#F3D55B" sketch:type="MSShapeGroup"></path>
            <path d="M34,7 L35,7 L35,8 C35,8.552 35.447,9 36,9 C36.553,9 37,8.552 37,8 L37,7 L38,7 C38.553,7 39,6.552 39,6 C39,5.448 38.553,5 38,5 L37,5 L37,4 C37,3.448 36.553,3 36,3 C35.447,3 35,3.448 35,4 L35,5 L34,5 C33.447,5 33,5.448 33,6 C33,6.552 33.447,7 34,7" id="Fill-609" fill="#F3D55B" sketch:type="MSShapeGroup"></path>
        </g>
    </g>
</svg>