<?xml version="1.0" encoding="UTF-8" standalone="no"?>
<svg width="59px" height="56px" viewBox="0 0 59 56" version="1.1" xmlns="http://www.w3.org/2000/svg" xmlns:xlink="http://www.w3.org/1999/xlink" xmlns:sketch="http://www.bohemiancoding.com/sketch/ns">
    <!-- Generator: Sketch 3.2.2 (9983) - http://www.bohemiancoding.com/sketch -->
    <title>28 - Gagarin (Flat)</title>
    <desc>Created with Sketch.</desc>
    <defs></defs>
    <g id="Page-1" stroke="none" stroke-width="1" fill="none" fill-rule="evenodd" sketch:type="MSPage">
        <g id="28---Gagarin-(Flat)" sketch:type="MSLayerGroup">
            <path d="M43.857,6.485 C43.685,6.787 43.373,7 43,7 C40.243,7 38,9.243 38,12 C38,12.552 37.552,13 37,13 C36.448,13 36,12.552 36,12 C36,8.472 38.626,5.553 42.025,5.076 C38.573,2.688 34.446,1.218 30,1.026 L30,5.826 C30,6.378 29.552,6.826 29,6.826 C28.448,6.826 28,6.378 28,5.826 L28,1.026 C23.554,1.218 19.427,2.688 15.975,5.076 C19.374,5.553 22,8.472 22,12 C22,12.552 21.552,13 21,13 C20.448,13 20,12.552 20,12 C20,9.243 17.757,7 15,7 C14.627,7 14.315,6.787 14.143,6.485 C9.171,10.712 6,17.002 6,24 L6,40.936 C11.594,46.472 20.044,50 29.5,50 C38.409,50 46.424,46.868 52,41.875 L52,24 C52,17.002 48.829,10.712 43.857,6.485" id="Fill-99" fill="#D1D4D1" sketch:type="MSShapeGroup"></path>
            <path d="M36,12 C36,12.552 36.448,13 37,13 C37.552,13 38,12.552 38,12 C38,9.243 40.243,7 43,7 C43.373,7 43.685,6.787 43.857,6.485 C43.27,5.986 42.659,5.515 42.025,5.076 C38.626,5.553 36,8.472 36,12" id="Fill-100" fill="#ECF0F1" sketch:type="MSShapeGroup"></path>
            <path d="M15,7 C17.757,7 20,9.243 20,12 C20,12.552 20.448,13 21,13 C21.552,13 22,12.552 22,12 C22,8.472 19.374,5.553 15.975,5.076 C15.34,5.515 14.73,5.986 14.143,6.485 C14.315,6.787 14.627,7 15,7" id="Fill-101" fill="#ECF0F1" sketch:type="MSShapeGroup"></path>
            <path d="M29,6.826 C29.552,6.826 30,6.378 30,5.826 L30,1.026 C29.668,1.011 29.335,1 29,1 C28.665,1 28.332,1.011 28,1.026 L28,5.826 C28,6.378 28.448,6.826 29,6.826" id="Fill-102" fill="#ECF0F1" sketch:type="MSShapeGroup"></path>
            <path d="M29.5,50 C21.182,50 13.645,47.269 8.143,42.843 L8.143,49.471 C13.112,54.388 20.617,56 29.015,56 C36.928,56 44.047,54.74 49,50.305 L49,44.212 C43.713,47.823 36.919,50 29.5,50" id="Fill-103" fill="#E6E7E8" sketch:type="MSShapeGroup"></path>
            <path d="M3.658,22.029 C2.675,22.194 2,23.124 2,24.122 L2,26.611 C2,26.826 1.826,27 1.61,27 C0.721,27 0,27.721 0,28.61 L0,31.779 C0,32.453 0.547,33 1.221,33 L1.61,33 C1.826,33 2,33.174 2,33.39 L2,35.878 C2,36.876 2.675,37.806 3.658,37.971 C4.907,38.181 6,37.212 6,36 L6,24 C6,22.788 4.907,21.819 3.658,22.029" id="Fill-104" fill="#ECF0F1" sketch:type="MSShapeGroup"></path>
            <path d="M3,31 C2.74,31 2.48,30.89 2.29,30.71 C2.11,30.52 2,30.26 2,30 C2,29.74 2.11,29.48 2.29,29.29 C2.67,28.92 3.34,28.92 3.71,29.29 C3.89,29.48 4,29.74 4,30 C4,30.26 3.89,30.52 3.71,30.71 C3.52,30.89 3.26,31 3,31" id="Fill-105" fill="#A5A5A4" sketch:type="MSShapeGroup"></path>
            <path d="M54.342,37.971 C55.325,37.806 56,36.876 56,35.879 L56,33.767 C56,33.343 56.343,33 56.767,33 L56.779,33 C57.453,33 58,32.453 58,31.779 L58,28.221 C58,27.547 57.453,27 56.779,27 L56.767,27 C56.343,27 56,26.657 56,26.233 L56,24.122 C56,23.124 55.325,22.194 54.342,22.029 C53.093,21.819 52,22.788 52,24 L52,36 C52,37.212 53.093,38.181 54.342,37.971" id="Fill-106" fill="#ECF0F1" sketch:type="MSShapeGroup"></path>
            <path d="M55,31 C54.74,31 54.48,30.89 54.29,30.71 C54.11,30.52 54,30.27 54,30 C54,29.73 54.11,29.48 54.29,29.29 C54.66,28.92 55.34,28.92 55.71,29.29 C55.89,29.48 56,29.74 56,30 C56,30.26 55.89,30.52 55.71,30.71 C55.52,30.89 55.26,31 55,31" id="Fill-107" fill="#A5A5A4" sketch:type="MSShapeGroup"></path>
            <path d="M58,5 L56.414,5 L54,2.586 L54,1 C54,0.448 53.552,0 53,0 C52.448,0 52,0.448 52,1 L52,2.586 L49.586,5 L48,5 C47.448,5 47,5.448 47,6 C47,6.552 47.448,7 48,7 L49.586,7 L52,9.414 L52,11 C52,11.552 52.448,12 53,12 C53.552,12 54,11.552 54,11 L54,9.414 L56.414,7 L58,7 C58.552,7 59,6.552 59,6 C59,5.448 58.552,5 58,5" id="Fill-108" fill="#F3D55B" sketch:type="MSShapeGroup"></path>
            <path d="M29,8 C16.35,8 6,16.92 6,26.379 L6,39.041 C11.594,43.181 20.044,47 29.5,47 C38.409,47 46.424,43.476 52,39.744 L52,26.379 C52,16.92 41.65,8 29,8" id="Fill-109" fill="#ECF0F1" sketch:type="MSShapeGroup"></path>
            <path d="M8.143,42.843 L8.143,45.471 C13.112,50.388 20.617,52 29.015,52 C36.928,52 44.047,50.74 49,46.305 L49,44.212 C43.713,47.823 36.919,50 29.5,50 C21.182,50 13.645,47.269 8.143,42.843" id="Fill-110" fill="#FFFFFF" sketch:type="MSShapeGroup"></path>
            <path d="M29,12 C16.35,12 6,19.548 6,27.551 L6,38.266 C11.594,41.768 20.044,45 29.5,45 C38.409,45 46.424,42.019 52,38.86 L52,27.551 C52,19.548 41.65,12 29,12" id="Fill-346" fill="#38454F" sketch:type="MSShapeGroup"></path>
            <path d="M46,34 L45,34 L45,26 L46,26 C48.209,26 50,27.791 50,30 C50,32.209 48.209,34 46,34" id="Fill-347" fill="#FAC176" sketch:type="MSShapeGroup"></path>
            <path d="M12,34 L13,34 L13,26 L12,26 C9.791,26 8,27.791 8,30 C8,32.209 9.791,34 12,34" id="Fill-348" fill="#FAC176" sketch:type="MSShapeGroup"></path>
            <path d="M37.503,15.699 C38.532,15.224 39.748,15.596 40.36,16.549 L45.15,24 C46.054,21.539 46.053,19.165 45.599,17.032 C41.404,14.001 35.509,12 29,12 C22.325,12 16.293,14.102 12.081,17.263 C11.857,19.38 12.065,21.708 13.15,24 L18.861,16.466 C19.528,15.586 20.715,15.245 21.722,15.699 C23.482,16.492 26.037,17 29.65,17 C33.262,17 35.785,16.492 37.503,15.699" id="Fill-349" fill="#AF8066" sketch:type="MSShapeGroup"></path>
            <path d="M40.525,43.529 L41,43.358 C44.442,41.775 45,38.333 45,34.544 L45,24.122 L44.952,23.693 L40.36,16.549 C39.748,15.596 38.532,15.224 37.503,15.699 C35.785,16.492 33.262,17 29.65,17 C26.037,17 23.482,16.492 21.722,15.699 C20.715,15.245 19.528,15.586 18.861,16.466 L13.15,24 C13.109,23.915 13.085,23.829 13.047,23.743 L13,24.122 L13,34.126 C13,37.801 13.713,41.16 17,42.804 L19.442,43.805 C22.591,44.55 25.975,45 29.5,45 C33.388,45 37.106,44.432 40.525,43.529" id="Fill-1057" fill="#FDD7AD" sketch:type="MSShapeGroup"></path>
            <path d="M33,31 C33,30.448 33.448,30 34,30 C34.552,30 35,30.448 35,31 C35,31.552 34.552,32 34,32 C33.448,32 33,31.552 33,31" id="Fill-1058" fill="#F6EFCA" sketch:type="MSShapeGroup"></path>
            <path d="M25,32 C25,31.448 25.448,31 26,31 C26.552,31 27,31.448 27,32 C27,32.552 26.552,33 26,33 C25.448,33 25,32.552 25,32" id="Fill-1059" fill="#F6EFCA" sketch:type="MSShapeGroup"></path>
            <path d="M23,34 C23,33.448 23.448,33 24,33 C24.552,33 25,33.448 25,34 C25,34.552 24.552,35 24,35 C23.448,35 23,34.552 23,34" id="Fill-1060" fill="#F6EFCA" sketch:type="MSShapeGroup"></path>
            <path d="M35,33 C35,32.448 35.448,32 36,32 C36.552,32 37,32.448 37,33 C37,33.552 36.552,34 36,34 C35.448,34 35,33.552 35,33" id="Fill-1061" fill="#F6EFCA" sketch:type="MSShapeGroup"></path>
            <path d="M29,28 L29,31 M29,31 L29.154,31 C32.213,31 32.623,35.614 29.583,35.966 C29.392,35.989 29.197,36 29,36" id="Stroke-1062" stroke="#FAC176" stroke-width="2" stroke-linecap="round" sketch:type="MSShapeGroup"></path>
            <path d="M22,26.5 C22,27.328 21.328,28 20.5,28 C19.672,28 19,27.328 19,26.5 C19,25.672 19.672,25 20.5,25 C21.328,25 22,25.672 22,26.5" id="Fill-1063" fill="#59474E" sketch:type="MSShapeGroup"></path>
            <path d="M39,26.5 C39,27.328 38.328,28 37.5,28 C36.672,28 36,27.328 36,26.5 C36,25.672 36.672,25 37.5,25 C38.328,25 39,25.672 39,26.5" id="Fill-1064" fill="#59474E" sketch:type="MSShapeGroup"></path>
            <path d="M46,29 L46,31 M12,29 L12,31" id="Stroke-1065" stroke="#F6EFCA" stroke-width="2" stroke-linecap="round" sketch:type="MSShapeGroup"></path>
            <path d="M28,42 L30,42" id="Stroke-1066" stroke="#FAC176" stroke-width="2" stroke-linecap="round" sketch:type="MSShapeGroup"></path>
            <path d="M26,39 L32,39" id="Stroke-1067" stroke="#F0785A" stroke-width="2" stroke-linecap="round" sketch:type="MSShapeGroup"></path>
            <path d="M19,20 L25,20 M33,20 L39,20" id="Stroke-1068" stroke="#FAC176" stroke-width="2" stroke-linecap="round" sketch:type="MSShapeGroup"></path>
        </g>
    </g>
</svg>