<?xml version="1.0" encoding="UTF-8" standalone="no"?>
<svg width="56px" height="58px" viewBox="0 0 56 58" version="1.1" xmlns="http://www.w3.org/2000/svg" xmlns:xlink="http://www.w3.org/1999/xlink" xmlns:sketch="http://www.bohemiancoding.com/sketch/ns">
    <!-- Generator: Sketch 3.2.2 (9983) - http://www.bohemiancoding.com/sketch -->
    <title>16 - Hubble Telescope (Flat)</title>
    <desc>Created with Sketch.</desc>
    <defs></defs>
    <g id="Page-1" stroke="none" stroke-width="1" fill="none" fill-rule="evenodd" sketch:type="MSPage">
        <g id="16---Hubble-Telescope-(Flat)" sketch:type="MSLayerGroup">
            <path d="M31,47 C30.448,47 30,46.553 30,46 L30,42 C30,41.447 30.448,41 31,41 C31.552,41 32,41.447 32,42 L32,46 C32,46.553 31.552,47 31,47" id="Fill-683" fill="#ECF0F1" sketch:type="MSShapeGroup"></path>
            <path d="M27,47 C26.448,47 26,46.553 26,46 L26,42 C26,41.447 26.448,41 27,41 C27.552,41 28,41.447 28,42 L28,46 C28,46.553 27.552,47 27,47" id="Fill-684" fill="#ECF0F1" sketch:type="MSShapeGroup"></path>
            <path d="M27,17 C26.448,17 26,16.553 26,16 L26,12 C26,11.447 26.448,11 27,11 C27.552,11 28,11.447 28,12 L28,16 C28,16.553 27.552,17 27,17" id="Fill-685" fill="#ECF0F1" sketch:type="MSShapeGroup"></path>
            <path d="M31,17 C30.448,17 30,16.553 30,16 L30,12 C30,11.447 30.448,11 31,11 C31.552,11 32,11.447 32,12 L32,16 C32,16.553 31.552,17 31,17" id="Fill-686" fill="#ECF0F1" sketch:type="MSShapeGroup"></path>
            <path d="M37,15 L51,15 L51,43 L37,43 L37,15 Z" id="Fill-687" fill="#ECF0F1" sketch:type="MSShapeGroup"></path>
            <path d="M51,16 L51,42 C53.761,42 56,36.18 56,29 C56,21.82 53.761,16 51,16" id="Fill-688" fill="#8697CB" sketch:type="MSShapeGroup"></path>
            <path d="M20,16 L37,16 L37,42 L20,42 L20,16 Z" id="Fill-689" fill="#CBB292" sketch:type="MSShapeGroup"></path>
            <path d="M4,18 L20,18 L20,40 L4,40 L4,18 Z" id="Fill-690" fill="#ECF0F1" sketch:type="MSShapeGroup"></path>
            <path d="M0,19 L4,19 L4,24 L0,24 L0,19 Z" id="Fill-691" fill="#D1D4D1" sketch:type="MSShapeGroup"></path>
            <path d="M0,34 L4,34 L4,39 L0,39 L0,34 Z" id="Fill-692" fill="#D1D4D1" sketch:type="MSShapeGroup"></path>
            <path d="M0,27 L4,27 M0,31 L4,31" id="Stroke-693" stroke="#556080" stroke-width="2" sketch:type="MSShapeGroup"></path>
            <path d="M7,33 L10,33 L10,40 L7,40 L7,33 Z" id="Fill-694" fill="#BDC3C7" sketch:type="MSShapeGroup"></path>
            <path d="M14,33 L17,33 L17,40 L14,40 L14,33 Z" id="Fill-696" fill="#BDC3C7" sketch:type="MSShapeGroup"></path>
            <path d="M33,21 L37,21 L37,37 L33,37 L33,21 Z" id="Fill-697" fill="#F6EFCA" sketch:type="MSShapeGroup"></path>
            <path d="M20,20 L24,20 L24,24 L20,24 L20,20 Z" id="Fill-698" fill="#F6EFCA" sketch:type="MSShapeGroup"></path>
            <path d="M20,27 L24,27 L24,31 L20,31 L20,27 Z" id="Fill-699" fill="#F6EFCA" sketch:type="MSShapeGroup"></path>
            <path d="M20,34 L24,34 L24,38 L20,38 L20,34 Z" id="Fill-700" fill="#F6EFCA" sketch:type="MSShapeGroup"></path>
            <path d="M7,18 L17,18 L17,23 L7,23 L7,18 Z" id="Fill-704" fill="#BDC3C7" sketch:type="MSShapeGroup"></path>
            <path d="M41,23 C41,23.552 40.552,24 40,24 C39.448,24 39,23.552 39,23 C39,22.448 39.448,22 40,22 C40.552,22 41,22.448 41,23" id="Fill-833" fill="#A5A5A4" sketch:type="MSShapeGroup"></path>
            <path d="M41,19 C41,19.552 40.552,20 40,20 C39.448,20 39,19.552 39,19 C39,18.448 39.448,18 40,18 C40.552,18 41,18.448 41,19" id="Fill-834" fill="#A5A5A4" sketch:type="MSShapeGroup"></path>
            <path d="M41,27 C41,27.552 40.552,28 40,28 C39.448,28 39,27.552 39,27 C39,26.448 39.448,26 40,26 C40.552,26 41,26.448 41,27" id="Fill-835" fill="#A5A5A4" sketch:type="MSShapeGroup"></path>
            <path d="M41,31 C41,31.552 40.552,32 40,32 C39.448,32 39,31.552 39,31 C39,30.448 39.448,30 40,30 C40.552,30 41,30.448 41,31" id="Fill-836" fill="#A5A5A4" sketch:type="MSShapeGroup"></path>
            <path d="M41,35 C41,35.552 40.552,36 40,36 C39.448,36 39,35.552 39,35 C39,34.448 39.448,34 40,34 C40.552,34 41,34.448 41,35" id="Fill-837" fill="#A5A5A4" sketch:type="MSShapeGroup"></path>
            <path d="M41,39 C41,39.552 40.552,40 40,40 C39.448,40 39,39.552 39,39 C39,38.448 39.448,38 40,38 C40.552,38 41,38.448 41,39" id="Fill-838" fill="#A5A5A4" sketch:type="MSShapeGroup"></path>
            <path d="M2,46 L56,46 L56,58 L2,58 L2,46 Z" id="Fill-1154" fill="#0096E6" sketch:type="MSShapeGroup"></path>
            <path d="M2,0 L56,0 L56,12 L2,12 L2,0 Z" id="Fill-1155" fill="#0096E6" sketch:type="MSShapeGroup"></path>
            <path d="M51,46 L49,46 L49,51 L45,51 L45,46 L43,46 L43,51 L39,51 L39,46 L37,46 L37,51 L33,51 L33,46 L31,46 L31,51 L27,51 L27,46 L25,46 L25,51 L21,51 L21,46 L19,46 L19,51 L15,51 L15,46 L13,46 L13,51 L9,51 L9,46 L7,46 L7,51 L2,51 L2,53 L7,53 L7,58 L9,58 L9,53 L13,53 L13,58 L15,58 L15,53 L19,53 L19,58 L21,58 L21,53 L25,53 L25,58 L27,58 L27,53 L31,53 L31,58 L33,58 L33,53 L37,53 L37,58 L39,58 L39,53 L43,53 L43,58 L45,58 L45,53 L49,53 L49,58 L51,58 L51,53 L56,53 L56,51 L51,51 L51,46" id="Fill-1156" fill="#556080" sketch:type="MSShapeGroup"></path>
            <path d="M51,5 L51,0 L49,0 L49,5 L45,5 L45,0 L43,0 L43,5 L39,5 L39,0 L37,0 L37,5 L33,5 L33,0 L31,0 L31,5 L27,5 L27,0 L25,0 L25,5 L21,5 L21,0 L19,0 L19,5 L15,5 L15,0 L13,0 L13,5 L9,5 L9,0 L7,0 L7,5 L2,5 L2,7 L7,7 L7,12 L9,12 L9,7 L13,7 L13,12 L15,12 L15,7 L19,7 L19,12 L21,12 L21,7 L25,7 L25,12 L27,12 L27,7 L31,7 L31,12 L33,12 L33,7 L37,7 L37,12 L39,12 L39,7 L43,7 L43,12 L45,12 L45,7 L49,7 L49,12 L51,12 L51,7 L56,7 L56,5 L51,5" id="Fill-1157" fill="#556080" sketch:type="MSShapeGroup"></path>
        </g>
    </g>
</svg>