<?xml version="1.0" encoding="UTF-8" standalone="no"?>
<svg width="58px" height="58px" viewBox="0 0 58 58" version="1.1" xmlns="http://www.w3.org/2000/svg" xmlns:xlink="http://www.w3.org/1999/xlink" xmlns:sketch="http://www.bohemiancoding.com/sketch/ns">
    <!-- Generator: Sketch 3.2.2 (9983) - http://www.bohemiancoding.com/sketch -->
    <title>45 - Jupiter (Flat)</title>
    <desc>Created with Sketch.</desc>
    <defs></defs>
    <g id="Page-1" stroke="none" stroke-width="1" fill="none" fill-rule="evenodd" sketch:type="MSPage">
        <g id="45---Jupiter-(Flat)" sketch:type="MSLayerGroup">
            <path d="M3.77,31 C7.344,31 10.821,30.022 13.826,28.172 C16.134,26.751 18.96,26 22,26 C25.04,26 27.866,26.751 30.174,28.172 C33.179,30.022 36.657,31 40.23,31 L57.846,31 C57.873,31 57.896,31.013 57.922,31.016 C57.968,30.349 58,29.678 58,29 C58,28.322 57.968,27.651 57.922,26.984 C57.896,26.986 57.873,27 57.846,27 L39,27 C38.447,27 38,26.552 38,26 C38,25.447 38.447,25 39,25 L57.719,25 C57.53,23.632 57.245,22.296 56.872,20.996 C56.782,21.023 56.691,21.053 56.592,21.053 L27,21.053 C26.447,21.053 26,20.605 26,20.053 C26,19.5 26.447,19.053 27,19.053 L56.248,19.053 C55.724,17.615 55.084,16.234 54.348,14.913 C54.201,14.998 54.04,15.06 53.858,15.06 L48,15.06 C47.447,15.06 47,14.612 47,14.06 C47,13.507 47.447,13.06 48,13.06 L53.223,13.06 C48.036,5.194 39.127,0 29,0 C21.265,0 14.242,3.035 9.043,7.971 L17.062,7.971 C17.615,7.971 18.062,8.419 18.062,8.971 C18.062,9.523 17.615,9.971 17.062,9.971 L8.029,9.971 C7.769,9.971 7.537,9.865 7.359,9.703 C6.42,10.755 5.557,11.877 4.777,13.06 L10,13.06 C10.553,13.06 11,13.507 11,14.06 C11,14.612 10.553,15.06 10,15.06 L4.142,15.06 C3.96,15.06 3.799,14.998 3.652,14.913 C3.098,15.908 2.601,16.938 2.165,18 L7.858,18 C8.411,18 8.858,18.448 8.858,19 C8.858,19.552 8.411,20 7.858,20 L2,20 C1.808,20 1.638,19.931 1.486,19.838 C1.137,20.887 0.84,21.961 0.611,23.06 L14,23.06 C14.553,23.06 15,23.507 15,24.06 C15,24.612 14.553,25.06 14,25.06 L0.42,25.06 C0.369,25.06 0.326,25.038 0.277,25.031 C0.099,26.329 0,27.653 0,29 C0,29.678 0.032,30.349 0.077,31.016 C0.104,31.013 0.127,31 0.154,31 L3.77,31" id="Fill-167" fill="#CBB292" sketch:type="MSShapeGroup"></path>
            <path d="M30.174,43.828 C27.866,45.249 25.04,46 22,46 C18.96,46 16.134,45.249 13.826,43.828 C10.821,41.978 7.344,41 3.77,41 L2.601,41 C3.289,42.511 4.097,43.955 5.023,45.314 C5.223,45.171 5.473,45.097 5.736,45.134 C7.699,45.403 9.539,46.06 11.205,47.086 C14.301,48.992 18.033,50 22,50 C25.967,50 29.699,48.992 32.795,47.086 C35.012,45.721 37.582,45 40.229,45 L52.488,45 C52.704,45 52.893,45.083 53.057,45.199 C53.951,43.875 54.731,42.468 55.399,41 L40.23,41 C36.657,41 33.179,41.978 30.174,43.828" id="Fill-168" fill="#FBD490" sketch:type="MSShapeGroup"></path>
            <path d="M29.125,29.875 C27.134,28.648 24.67,28 22,28 C19.33,28 16.866,28.648 14.875,29.875 C11.554,31.919 7.714,33 3.77,33 L0.281,33 C0.572,35.105 1.083,37.138 1.8,39.074 C1.914,39.029 2.035,39 2.165,39 L3.77,39 C7.714,39 11.554,40.081 14.875,42.125 C16.866,43.352 19.33,44 22,44 C24.67,44 27.134,43.352 29.125,42.125 C32.446,40.081 36.286,39 40.23,39 L55.835,39 C55.964,39 56.086,39.029 56.2,39.074 C56.917,37.138 57.428,35.105 57.719,33 L40.23,33 C36.286,33 32.446,31.919 29.125,29.875" id="Fill-169" fill="#D6BFA5" sketch:type="MSShapeGroup"></path>
            <path d="M41,26 C41,36.493 32.493,45 22,45 C11.507,45 3,36.493 3,26 C3,15.507 11.507,7 22,7 C32.493,7 41,15.507 41,26" id="Fill-170" fill="#D6BFA5" sketch:type="MSShapeGroup"></path>
            <path d="M33.844,48.789 C30.433,50.89 26.337,52 22,52 C17.663,52 13.567,50.89 10.156,48.789 C9.031,48.096 7.809,47.608 6.519,47.315 C11.836,53.835 19.931,58 29,58 C34.363,58 39.383,56.538 43.692,54 L34,54 C33.447,54 33,53.552 33,53 C33,52.448 33.447,52 34,52 L45.146,52 C45.51,52 45.815,52.205 45.99,52.496 C48.146,50.934 50.076,49.084 51.729,47 L40.229,47 C37.952,47 35.744,47.619 33.844,48.789" id="Fill-171" fill="#CBB292" sketch:type="MSShapeGroup"></path>
            <path d="M31,23 C31,29.627 25.627,35 19,35 C12.373,35 7,29.627 7,23 C7,16.373 12.373,11 19,11 C25.627,11 31,16.373 31,23" id="Fill-172" fill="#E5C5A5" sketch:type="MSShapeGroup"></path>
            <path d="M40.229,45 C37.582,45 35.012,45.721 32.795,47.086 C29.699,48.992 25.967,50 22,50 C18.033,50 14.301,48.992 11.205,47.086 C9.539,46.06 7.699,45.403 5.736,45.134 C5.473,45.097 5.223,45.171 5.023,45.314 C5.493,46.003 5.993,46.67 6.519,47.315 C7.809,47.608 9.031,48.096 10.156,48.789 C13.567,50.89 17.663,52 22,52 C26.337,52 30.433,50.89 33.844,48.789 C35.744,47.619 37.952,47 40.229,47 L51.729,47 C52.192,46.416 52.639,45.819 53.057,45.199 C52.893,45.083 52.704,45 52.488,45 L40.229,45" id="Fill-173" fill="#AF8066" sketch:type="MSShapeGroup"></path>
            <path d="M57.846,31 L40.23,31 C36.657,31 33.179,30.022 30.174,28.172 C27.866,26.751 25.04,26 22,26 C18.96,26 16.134,26.751 13.826,28.172 C10.821,30.022 7.344,31 3.77,31 L0.154,31 C0.127,31 0.104,31.013 0.077,31.016 C0.123,31.684 0.191,32.345 0.281,33 L3.77,33 C7.714,33 11.554,31.919 14.875,29.875 C16.866,28.648 19.33,28 22,28 C24.67,28 27.134,28.648 29.125,29.875 C32.446,31.919 36.286,33 40.23,33 L57.719,33 C57.809,32.345 57.877,31.684 57.922,31.016 C57.896,31.013 57.873,31 57.846,31" id="Fill-174" fill="#AF8066" sketch:type="MSShapeGroup"></path>
            <path d="M40.23,39 C36.286,39 32.446,40.081 29.125,42.125 C27.134,43.352 24.67,44 22,44 C19.33,44 16.866,43.352 14.875,42.125 C11.554,40.081 7.714,39 3.77,39 L2.165,39 C2.035,39 1.914,39.029 1.8,39.074 C2.043,39.728 2.313,40.369 2.601,41 L3.77,41 C7.344,41 10.821,41.978 13.826,43.828 C16.134,45.249 18.96,46 22,46 C25.04,46 27.866,45.249 30.174,43.828 C33.179,41.978 36.657,41 40.23,41 L55.399,41 C55.687,40.369 55.957,39.728 56.2,39.074 C56.086,39.029 55.964,39 55.835,39 L40.23,39" id="Fill-175" fill="#AF8066" sketch:type="MSShapeGroup"></path>
            <path d="M45.146,52 L34,52 C33.447,52 33,52.448 33,53 C33,53.552 33.447,54 34,54 L43.692,54 C44.483,53.534 45.249,53.032 45.99,52.496 C45.815,52.205 45.51,52 45.146,52" id="Fill-176" fill="#AF8066" sketch:type="MSShapeGroup"></path>
            <path d="M38,26 C38,26.552 38.447,27 39,27 L57.846,27 C57.873,27 57.896,26.986 57.922,26.984 C57.877,26.316 57.809,25.654 57.719,25 L39,25 C38.447,25 38,25.447 38,26" id="Fill-177" fill="#AF8066" sketch:type="MSShapeGroup"></path>
            <path d="M26,20.053 C26,20.605 26.447,21.053 27,21.053 L56.592,21.053 C56.691,21.053 56.782,21.023 56.872,20.996 C56.684,20.34 56.481,19.689 56.248,19.053 L27,19.053 C26.447,19.053 26,19.5 26,20.053" id="Fill-178" fill="#AF8066" sketch:type="MSShapeGroup"></path>
            <path d="M14,25.06 C14.553,25.06 15,24.612 15,24.06 C15,23.507 14.553,23.06 14,23.06 L0.611,23.06 C0.476,23.708 0.368,24.367 0.277,25.031 C0.326,25.038 0.369,25.06 0.42,25.06 L14,25.06" id="Fill-179" fill="#AF8066" sketch:type="MSShapeGroup"></path>
            <path d="M47,14.06 C47,14.612 47.447,15.06 48,15.06 L53.858,15.06 C54.04,15.06 54.201,14.998 54.348,14.913 C53.996,14.28 53.62,13.662 53.223,13.06 L48,13.06 C47.447,13.06 47,13.507 47,14.06" id="Fill-180" fill="#AF8066" sketch:type="MSShapeGroup"></path>
            <path d="M10,15.06 C10.553,15.06 11,14.612 11,14.06 C11,13.507 10.553,13.06 10,13.06 L4.777,13.06 C4.38,13.662 4.004,14.28 3.652,14.913 C3.799,14.998 3.96,15.06 4.142,15.06 L10,15.06" id="Fill-181" fill="#AF8066" sketch:type="MSShapeGroup"></path>
            <path d="M7.858,20 C8.411,20 8.858,19.552 8.858,19 C8.858,18.448 8.411,18 7.858,18 L2.165,18 C1.918,18.602 1.693,19.216 1.486,19.838 C1.638,19.931 1.808,20 2,20 L7.858,20" id="Fill-182" fill="#AF8066" sketch:type="MSShapeGroup"></path>
            <path d="M17.062,9.971 C17.615,9.971 18.062,9.523 18.062,8.971 C18.062,8.419 17.615,7.971 17.062,7.971 L9.043,7.971 C8.458,8.525 7.895,9.102 7.359,9.703 C7.537,9.865 7.769,9.971 8.029,9.971 L17.062,9.971" id="Fill-183" fill="#AF8066" sketch:type="MSShapeGroup"></path>
            <path d="M41.393,10 L39.147,10 C39.09,10 39.073,9.918 39.127,9.9 C40.024,9.604 40.64,8.691 40.473,7.664 C40.313,6.681 39.389,6 38.393,6 L33.5,6 C32.412,6 31.527,6.869 31.501,7.951 C31.5,7.978 31.479,8 31.452,8 L28.607,8 C27.611,8 26.687,8.681 26.527,9.664 C26.36,10.691 26.976,11.604 27.872,11.9 C27.927,11.917 27.91,12 27.852,12 L24.607,12 C23.611,12 22.687,12.681 22.527,13.664 C22.323,14.917 23.285,16 24.5,16 L34.5,16 C35.588,16 36.473,15.131 36.499,14.049 C36.5,14.022 36.521,14 36.548,14 L41.5,14 C42.715,14 43.677,12.917 43.473,11.664 C43.313,10.681 42.389,10 41.393,10" id="Fill-365" fill="#FBD490" sketch:type="MSShapeGroup"></path>
            <path d="M22,41 C17.663,41 14,38.71 14,36 C14,33.29 17.663,31 22,31 C26.337,31 30,33.29 30,36 C30,38.71 26.337,41 22,41" id="Fill-366" fill="#FBD490" sketch:type="MSShapeGroup"></path>
            <path d="M5,4 C5,4.552 4.552,5 4,5 C3.448,5 3,4.552 3,4 C3,3.448 3.448,3 4,3 C4.552,3 5,3.448 5,4" id="Fill-367" fill="#F3D55B" sketch:type="MSShapeGroup"></path>
            <path d="M19,19 C19,19.552 18.552,20 18,20 C17.448,20 17,19.552 17,19 C17,18.448 17.448,18 18,18 C18.552,18 19,18.448 19,19" id="Fill-368" fill="#F3D55B" sketch:type="MSShapeGroup"></path>
            <path d="M22,23 C22,23.552 21.552,24 21,24 C20.448,24 20,23.552 20,23 C20,22.448 20.448,22 21,22 C21.552,22 22,22.448 22,23" id="Fill-369" fill="#F3D55B" sketch:type="MSShapeGroup"></path>
            <path d="M41,36 C41,36.552 40.552,37 40,37 C39.448,37 39,36.552 39,36 C39,35.448 39.448,35 40,35 C40.552,35 41,35.448 41,36" id="Fill-370" fill="#F3D55B" sketch:type="MSShapeGroup"></path>
            <path d="M8,55 C8,55.552 7.552,56 7,56 C6.448,56 6,55.552 6,55 C6,54.448 6.448,54 7,54 C7.552,54 8,54.448 8,55" id="Fill-371" fill="#F3D55B" sketch:type="MSShapeGroup"></path>
            <path d="M3,48 C3,48.552 2.552,49 2,49 C1.448,49 1,48.552 1,48 C1,47.448 1.448,47 2,47 C2.552,47 3,47.448 3,48" id="Fill-372" fill="#F3D55B" sketch:type="MSShapeGroup"></path>
            <path d="M14,1 C14,1.552 13.552,2 13,2 C12.448,2 12,1.552 12,1 C12,0.448 12.448,0 13,0 C13.552,0 14,0.448 14,1" id="Fill-373" fill="#F3D55B" sketch:type="MSShapeGroup"></path>
            <path d="M48,11 C48,11.552 47.552,12 47,12 C46.448,12 46,11.552 46,11 C46,10.448 46.448,10 47,10 C47.552,10 48,10.448 48,11" id="Fill-412" fill="#F3D55B" sketch:type="MSShapeGroup"></path>
            <path d="M56,54 C56,54.552 55.552,55 55,55 C54.448,55 54,54.552 54,54 C54,53.448 54.448,53 55,53 C55.552,53 56,53.448 56,54" id="Fill-413" fill="#F3D55B" sketch:type="MSShapeGroup"></path>
        </g>
    </g>
</svg>