<?xml version="1.0" encoding="UTF-8" standalone="no"?>
<svg width="58px" height="56px" viewBox="0 0 58 56" version="1.1" xmlns="http://www.w3.org/2000/svg" xmlns:xlink="http://www.w3.org/1999/xlink" xmlns:sketch="http://www.bohemiancoding.com/sketch/ns">
    <!-- Generator: Sketch 3.2.2 (9983) - http://www.bohemiancoding.com/sketch -->
    <title>26 - Kepler (Flat)</title>
    <desc>Created with Sketch.</desc>
    <defs></defs>
    <g id="Page-1" stroke="none" stroke-width="1" fill="none" fill-rule="evenodd" sketch:type="MSPage">
        <g id="26---Kepler-(Flat)" sketch:type="MSLayerGroup">
            <path d="M10.38,7.109 C11.942,5.966 14.156,6.085 15.565,7.494 C17.121,9.05 17.121,11.595 15.565,13.151 L8.494,20.222 C6.938,21.778 6.938,24.323 8.494,25.879 C10.049,27.434 12.595,27.434 14.151,25.879 L26.172,13.858 C27.727,12.302 30.273,12.302 31.828,13.858 C33.384,15.414 33.384,17.959 31.828,19.515 L15.565,35.778 C14.009,37.334 14.009,39.879 15.565,41.435 C17.121,42.991 19.666,42.991 21.222,41.435 L41.728,20.929 C43.284,19.373 45.829,19.373 47.385,20.929 C48.94,22.485 48.94,25.03 47.385,26.586 L33.243,40.728 C31.687,42.284 31.687,44.829 33.243,46.385 C34.798,47.94 37.344,47.94 38.899,46.385 L43.849,41.435 C45.405,39.879 47.95,39.879 49.506,41.435 C50.915,42.844 51.034,45.058 49.891,46.62 C59.706,35.625 59.352,18.753 48.799,8.201 C38.246,-2.352 21.375,-2.706 10.38,7.109" id="Fill-354" fill="#88C057" sketch:type="MSShapeGroup"></path>
            <path d="M50.237,46.046 C50.247,46.025 50.259,46.005 50.269,45.985 C50.357,45.801 50.427,45.61 50.485,45.417 C50.498,45.375 50.511,45.333 50.523,45.291 C50.57,45.114 50.603,44.934 50.626,44.753 C50.634,44.686 50.64,44.62 50.645,44.554 C50.658,44.391 50.661,44.228 50.654,44.066 C50.649,43.974 50.639,43.883 50.628,43.791 C50.612,43.65 50.593,43.51 50.562,43.371 C50.536,43.254 50.498,43.141 50.461,43.027 C50.424,42.913 50.391,42.797 50.344,42.685 C50.284,42.545 50.206,42.411 50.129,42.276 C50.083,42.195 50.045,42.11 49.993,42.032 C49.852,41.822 49.691,41.621 49.506,41.435 C47.95,39.879 45.405,39.879 43.849,41.435 L38.899,46.385 C37.344,47.94 34.798,47.94 33.243,46.385 C31.687,44.829 31.687,42.284 33.243,40.728 L47.385,26.586 C48.94,25.03 48.94,22.485 47.385,20.929 C45.829,19.373 43.284,19.373 41.728,20.929 L21.222,41.435 C19.666,42.991 17.121,42.991 15.565,41.435 C14.009,39.879 14.009,37.334 15.565,35.778 L31.828,19.515 C33.384,17.959 33.384,15.414 31.828,13.858 C30.273,12.302 27.727,12.302 26.172,13.858 L14.151,25.879 C12.595,27.434 10.049,27.434 8.494,25.879 C6.938,24.323 6.938,21.778 8.494,20.222 L15.565,13.151 C17.121,11.595 17.121,9.05 15.565,7.494 C15.379,7.308 15.178,7.148 14.968,7.007 C14.89,6.955 14.805,6.917 14.724,6.871 C14.589,6.794 14.455,6.716 14.315,6.656 C14.203,6.609 14.088,6.576 13.973,6.539 C13.859,6.502 13.745,6.464 13.629,6.438 C13.49,6.407 13.35,6.388 13.209,6.372 C13.117,6.361 13.026,6.351 12.934,6.346 C12.772,6.339 12.609,6.342 12.446,6.355 C12.38,6.36 12.314,6.366 12.247,6.374 C12.066,6.397 11.886,6.43 11.709,6.477 C11.667,6.489 11.625,6.502 11.583,6.515 C11.39,6.573 11.199,6.643 11.015,6.731 C10.994,6.741 10.975,6.753 10.954,6.763 C10.756,6.863 10.563,6.975 10.38,7.109 C10.218,7.228 10.055,7.347 9.908,7.494 L8.494,8.908 C8.414,8.988 8.355,9.081 8.283,9.166 C-1.722,20.155 -1.418,37.18 9.201,47.799 C19.82,58.418 36.845,58.722 47.834,48.717 C47.919,48.645 48.012,48.586 48.092,48.506 L49.506,47.092 C49.653,46.945 49.772,46.782 49.891,46.62 C50.025,46.437 50.137,46.244 50.237,46.046" id="Fill-355" fill="#556080" sketch:type="MSShapeGroup"></path>
            <path d="M56,2 C56,2.552 55.552,3 55,3 C54.448,3 54,2.552 54,2 C54,1.448 54.448,1 55,1 C55.552,1 56,1.448 56,2" id="Fill-591" fill="#F3D55B" sketch:type="MSShapeGroup"></path>
            <path d="M56,52 C56,52.552 55.552,53 55,53 C54.448,53 54,52.552 54,52 C54,51.448 54.448,51 55,51 C55.552,51 56,51.448 56,52" id="Fill-592" fill="#F3D55B" sketch:type="MSShapeGroup"></path>
            <path d="M58,44 C58,44.552 57.552,45 57,45 C56.448,45 56,44.552 56,44 C56,43.448 56.448,43 57,43 C57.552,43 58,43.448 58,44" id="Fill-593" fill="#F3D55B" sketch:type="MSShapeGroup"></path>
            <path d="M7,3 C7,3.552 6.552,4 6,4 C5.448,4 5,3.552 5,3 C5,2.448 5.448,2 6,2 C6.552,2 7,2.448 7,3" id="Fill-594" fill="#F3D55B" sketch:type="MSShapeGroup"></path>
            <path d="M8,52 C8,52.552 7.552,53 7,53 C6.448,53 6,52.552 6,52 C6,51.448 6.448,51 7,51 C7.552,51 8,51.448 8,52" id="Fill-595" fill="#F3D55B" sketch:type="MSShapeGroup"></path>
            <path d="M2,43 C2,43.552 1.552,44 1,44 C0.448,44 0,43.552 0,43 C0,42.448 0.448,42 1,42 C1.552,42 2,42.448 2,43" id="Fill-596" fill="#F3D55B" sketch:type="MSShapeGroup"></path>
        </g>
    </g>
</svg>