<?xml version="1.0" encoding="UTF-8" standalone="no"?>
<svg width="58px" height="58px" viewBox="0 0 58 58" version="1.1" xmlns="http://www.w3.org/2000/svg" xmlns:xlink="http://www.w3.org/1999/xlink" xmlns:sketch="http://www.bohemiancoding.com/sketch/ns">
    <!-- Generator: Sketch 3.2.2 (9983) - http://www.bohemiancoding.com/sketch -->
    <title>46 - Mars (Flat)</title>
    <desc>Created with Sketch.</desc>
    <defs></defs>
    <g id="Page-1" stroke="none" stroke-width="1" fill="none" fill-rule="evenodd" sketch:type="MSPage">
        <g id="46---Mars-(Flat)" sketch:type="MSLayerGroup">
            <path d="M41.618,29 C41.618,28.448 42.065,28 42.618,28 L57.975,28 C57.867,24.819 57.252,21.767 56.2,18.926 C56.086,18.971 55.964,19 55.835,19 L31.263,19 C30.71,19 30.263,18.552 30.263,18 C30.263,17.448 30.71,17 31.263,17 L55.399,17 C54.68,15.42 53.825,13.915 52.845,12.502 C52.671,12.794 52.365,13 52,13 L42,13 C41.448,13 41,12.552 41,12 C41,11.448 41.448,11 42,11 L51.729,11 C46.417,4.302 38.213,0 29,0 C17.265,0 7.166,6.974 2.601,17 L24.661,17 C25.213,17 25.661,17.448 25.661,18 C25.661,18.552 25.213,19 24.661,19 L2.165,19 C2.036,19 1.914,18.971 1.8,18.926 C0.748,21.767 0.133,24.819 0.025,28 L8.737,28 C9.29,28 9.737,28.448 9.737,29 C9.737,29.552 9.29,30 8.737,30 L0.025,30 C0.146,33.563 0.906,36.962 2.199,40.087 C2.323,40.032 2.457,40 2.601,40 L22.943,40 C23.495,40 23.943,40.448 23.943,41 C23.943,41.552 23.495,42 22.943,42 L3.079,42 C4.904,45.632 7.463,48.831 10.571,51.392 C10.754,51.159 11.026,51 11.345,51 L32.806,51 C33.358,51 33.806,51.448 33.806,52 C33.806,52.552 33.358,53 32.806,53 L12.719,53 C17.361,56.155 22.965,58 29,58 C35.035,58 40.639,56.155 45.281,53 L39.203,53 C38.651,53 38.203,52.552 38.203,52 C38.203,51.448 38.651,51 39.203,51 L46.655,51 C46.974,51 47.246,51.159 47.429,51.392 C50.537,48.831 53.096,45.632 54.921,42 L29.174,42 C28.622,42 28.174,41.552 28.174,41 C28.174,40.448 28.622,40 29.174,40 L55.399,40 C55.543,40 55.677,40.032 55.8,40.086 C57.094,36.962 57.854,33.563 57.975,30 L42.618,30 C42.065,30 41.618,29.552 41.618,29" id="Fill-184" fill="#C68630" sketch:type="MSShapeGroup"></path>
            <path d="M44,25.5 C44,36.822 34.822,46 23.5,46 C12.178,46 3,36.822 3,25.5 C3,14.178 12.178,5 23.5,5 C34.822,5 44,14.178 44,25.5" id="Fill-185" fill="#DC9628" sketch:type="MSShapeGroup"></path>
            <path d="M33,24 C33,30.627 27.627,36 21,36 C14.373,36 9,30.627 9,24 C9,17.373 14.373,12 21,12 C27.627,12 33,17.373 33,24" id="Fill-186" fill="#EEAF4B" sketch:type="MSShapeGroup"></path>
            <path d="M29.174,40 C28.622,40 28.174,40.448 28.174,41 C28.174,41.552 28.622,42 29.174,42 L54.921,42 C55.236,41.374 55.531,40.737 55.8,40.086 C55.677,40.032 55.543,40 55.399,40 L29.174,40" id="Fill-187" fill="#FAC176" sketch:type="MSShapeGroup"></path>
            <path d="M23.943,41 C23.943,40.448 23.495,40 22.943,40 L2.601,40 C2.457,40 2.323,40.032 2.199,40.087 C2.469,40.737 2.764,41.374 3.079,42 L22.943,42 C23.495,42 23.943,41.552 23.943,41" id="Fill-188" fill="#F18D46" sketch:type="MSShapeGroup"></path>
            <path d="M9.737,29 C9.737,28.448 9.29,28 8.737,28 L0.025,28 C0.014,28.333 0,28.665 0,29 C0,29.335 0.014,29.667 0.025,30 L8.737,30 C9.29,30 9.737,29.552 9.737,29" id="Fill-189" fill="#F3D55B" sketch:type="MSShapeGroup"></path>
            <path d="M41,12 C41,12.552 41.448,13 42,13 L52,13 C52.365,13 52.671,12.794 52.845,12.502 C52.49,11.989 52.116,11.489 51.729,11 L42,11 C41.448,11 41,11.448 41,12" id="Fill-190" fill="#F09372" sketch:type="MSShapeGroup"></path>
            <path d="M57.975,28 L42.618,28 C42.065,28 41.618,28.448 41.618,29 C41.618,29.552 42.065,30 42.618,30 L57.975,30 C57.986,29.667 58,29.335 58,29 C58,28.665 57.986,28.333 57.975,28" id="Fill-191" fill="#F29C1F" sketch:type="MSShapeGroup"></path>
            <path d="M33.806,52 C33.806,51.448 33.358,51 32.806,51 L11.345,51 C11.026,51 10.754,51.159 10.571,51.392 C11.261,51.96 11.978,52.496 12.719,53 L32.806,53 C33.358,53 33.806,52.552 33.806,52" id="Fill-192" fill="#FAC176" sketch:type="MSShapeGroup"></path>
            <path d="M46.655,51 L39.203,51 C38.651,51 38.203,51.448 38.203,52 C38.203,52.552 38.651,53 39.203,53 L45.281,53 C46.022,52.496 46.739,51.96 47.429,51.392 C47.246,51.159 46.974,51 46.655,51" id="Fill-193" fill="#F18D46" sketch:type="MSShapeGroup"></path>
            <path d="M30.263,18 C30.263,18.552 30.71,19 31.263,19 L55.835,19 C55.964,19 56.086,18.971 56.2,18.926 C55.957,18.272 55.687,17.631 55.399,17 L31.263,17 C30.71,17 30.263,17.448 30.263,18" id="Fill-194" fill="#FAC176" sketch:type="MSShapeGroup"></path>
            <path d="M24.661,19 C25.213,19 25.661,18.552 25.661,18 C25.661,17.448 25.213,17 24.661,17 L2.601,17 C2.313,17.631 2.043,18.272 1.8,18.926 C1.914,18.971 2.036,19 2.165,19 L24.661,19" id="Fill-195" fill="#F3D55B" sketch:type="MSShapeGroup"></path>
            <path d="M4,3 C3.448,3 3,3.448 3,4 C3,4.552 3.448,5 4,5 C4.552,5 5,4.552 5,4 C5,3.448 4.552,3 4,3" id="Fill-414" fill="#F3D55B" sketch:type="MSShapeGroup"></path>
            <path d="M7,54 C6.448,54 6,54.448 6,55 C6,55.552 6.448,56 7,56 C7.552,56 8,55.552 8,55 C8,54.448 7.552,54 7,54" id="Fill-415" fill="#F3D55B" sketch:type="MSShapeGroup"></path>
            <path d="M2,47 C1.448,47 1,47.448 1,48 C1,48.552 1.448,49 2,49 C2.552,49 3,48.552 3,48 C3,47.448 2.552,47 2,47" id="Fill-416" fill="#F3D55B" sketch:type="MSShapeGroup"></path>
            <path d="M13,0 C12.448,0 12,0.448 12,1 C12,1.552 12.448,2 13,2 C13.552,2 14,1.552 14,1 C14,0.448 13.552,0 13,0" id="Fill-417" fill="#F3D55B" sketch:type="MSShapeGroup"></path>
            <path d="M53,3 C52.448,3 52,3.448 52,4 C52,4.552 52.448,5 53,5 C53.552,5 54,4.552 54,4 C54,3.448 53.552,3 53,3" id="Fill-418" fill="#F3D55B" sketch:type="MSShapeGroup"></path>
            <path d="M35.625,28 L15.349,28 C14.796,28 14.349,28.448 14.349,29 C14.349,29.552 14.796,30 15.349,30 L35.625,30 C36.178,30 36.625,29.552 36.625,29 C36.625,28.448 36.178,28 35.625,28" id="Fill-440" fill="#F3D55B" sketch:type="MSShapeGroup"></path>
            <path d="M42,34 L21.723,34 C21.171,34 20.723,34.448 20.723,35 C20.723,35.552 21.171,36 21.723,36 L42,36 C42.552,36 43,35.552 43,35 C43,34.448 42.552,34 42,34" id="Fill-441" fill="#F0C419" sketch:type="MSShapeGroup"></path>
            <path d="M36.277,47 L16,47 C15.448,47 15,46.552 15,46 C15,45.448 15.448,45 16,45 L36.277,45 C36.829,45 37.277,45.448 37.277,46 C37.277,46.552 36.829,47 36.277,47" id="Fill-442" fill="#FAC176" sketch:type="MSShapeGroup"></path>
            <path d="M34,24 L24,24 C23.448,24 23,23.552 23,23 C23,22.448 23.448,22 24,22 L34,22 C34.552,22 35,22.448 35,23 C35,23.552 34.552,24 34,24" id="Fill-443" fill="#F3D55B" sketch:type="MSShapeGroup"></path>
            <path d="M15,22 L5,22 C4.448,22 4,22.448 4,23 C4,23.552 4.448,24 5,24 L15,24 C15.552,24 16,23.552 16,23 C16,22.448 15.552,22 15,22" id="Fill-444" fill="#F0C419" sketch:type="MSShapeGroup"></path>
            <path d="M33,13 L23,13 C22.448,13 22,12.552 22,12 C22,11.448 22.448,11 23,11 L33,11 C33.552,11 34,11.448 34,12 C34,12.552 33.552,13 33,13" id="Fill-445" fill="#F3D55B" sketch:type="MSShapeGroup"></path>
            <path d="M26.623,7 L16.206,7 C15.654,7 15.206,6.552 15.206,6 C15.206,5.448 15.654,5 16.206,5 L26.623,5 C27.175,5 27.623,5.448 27.623,6 C27.623,6.552 27.175,7 26.623,7" id="Fill-446" fill="#F3D55B" sketch:type="MSShapeGroup"></path>
            <path d="M41.9,7 L33.567,7 C33.015,7 32.567,6.552 32.567,6 C32.567,5.448 33.015,5 33.567,5 L41.9,5 C42.453,5 42.9,5.448 42.9,6 C42.9,6.552 42.453,7 41.9,7" id="Fill-447" fill="#F3D55B" sketch:type="MSShapeGroup"></path>
        </g>
    </g>
</svg>