<?xml version="1.0" encoding="UTF-8" standalone="no"?>
<svg width="58px" height="58px" viewBox="0 0 58 58" version="1.1" xmlns="http://www.w3.org/2000/svg" xmlns:xlink="http://www.w3.org/1999/xlink" xmlns:sketch="http://www.bohemiancoding.com/sketch/ns">
    <!-- Generator: Sketch 3.2.2 (9983) - http://www.bohemiancoding.com/sketch -->
    <title>44 - Mercury (Flat)</title>
    <desc>Created with Sketch.</desc>
    <defs></defs>
    <g id="Page-1" stroke="none" stroke-width="1" fill="none" fill-rule="evenodd" sketch:type="MSPage">
        <g id="44---Mercury-(Flat)" sketch:type="MSLayerGroup">
            <path d="M57.236,22.478 L43.349,26.199 L42.831,24.268 L56.735,20.542 C55.816,17.524 54.45,14.756 52.719,12.301 L30.609,18.225 L30.092,16.293 L51.401,10.584 C48.702,7.308 45.33,4.685 41.552,2.869 L5.099,12.637 C2.729,16.099 1.117,20.056 0.415,24.245 L4.596,23.125 L5.113,25.057 L0.139,26.39 C-0.134,29.383 0.061,32.461 0.773,35.537 L36.585,25.941 L37.102,27.873 L1.296,37.468 C1.684,38.733 2.131,39.965 2.669,41.138 C5.432,40.687 6.837,44.054 5.438,45.909 C5.602,46.137 5.783,46.349 5.953,46.572 L21.2,42.487 L21.718,44.419 L7.351,48.268 C9.921,51.153 13.029,53.484 16.478,55.14 L38.706,49.185 L39.224,51.116 L19.518,56.396 C24.812,58.237 30.69,58.579 36.512,57.019 C42.341,55.457 47.274,52.224 50.941,47.976 L44.505,49.701 L43.987,47.769 L52.941,45.37 C53.092,45.149 53.245,44.93 53.39,44.706 C52.547,43.175 52.891,40.932 55.08,40.346 C55.307,40.285 55.526,40.25 55.737,40.238 C56.463,38.513 57.002,36.709 57.386,34.862 L51.122,36.54 L50.604,34.608 L57.752,32.693 C58.182,29.367 58.034,25.921 57.236,22.478" id="Fill-157" fill="#5E5F62" sketch:type="MSShapeGroup"></path>
            <path d="M57.236,22.478 L43.349,26.199 L42.831,24.268 L56.735,20.542 C55.816,17.524 54.45,14.756 52.719,12.301 L30.609,18.225 L30.092,16.293 L51.401,10.584 C48.702,7.308 45.33,4.685 41.552,2.869 L5.099,12.637 C2.729,16.099 1.117,20.056 0.415,24.245 L4.596,23.125 L5.113,25.057 L0.139,26.39 C-0.134,29.383 0.061,32.461 0.773,35.537 L36.585,25.941 L37.102,27.873 L1.296,37.468 C1.684,38.733 2.131,39.965 2.669,41.138 C5.432,40.687 6.837,44.054 5.438,45.909 C5.602,46.137 5.783,46.349 5.953,46.572 L21.2,42.487 L21.718,44.419 L7.351,48.268 C9.921,51.153 13.029,53.484 16.478,55.14 L38.706,49.185 L39.224,51.116 L19.518,56.396 C24.812,58.237 30.69,58.579 36.512,57.019 C42.341,55.457 47.274,52.224 50.941,47.976 L44.505,49.701 L43.987,47.769 L52.941,45.37 C53.092,45.149 53.245,44.93 53.39,44.706 C52.547,43.175 52.891,40.932 55.08,40.346 C55.307,40.285 55.526,40.25 55.737,40.238 C56.463,38.513 57.002,36.709 57.386,34.862 L51.122,36.54 L50.604,34.608 L57.752,32.693 C58.182,29.367 58.034,25.921 57.236,22.478" id="Fill-157" fill="#5E5F62" sketch:type="MSShapeGroup"></path>
            <path d="M21.501,0.995 C19.638,1.494 17.87,2.168 16.202,2.986 C16.262,4.22 15.641,5.464 14.095,5.878 C13.224,6.111 12.479,5.963 11.888,5.599 C10.11,6.9 8.503,8.392 7.083,10.035 L38.521,1.611 C33.221,-0.235 27.33,-0.567 21.501,0.995" id="Fill-158" fill="#5E5F62" sketch:type="MSShapeGroup"></path>
            <path d="M45,27.5 C45,38.822 35.822,48 24.5,48 C13.178,48 4,38.822 4,27.5 C4,16.178 13.178,7 24.5,7 C35.822,7 45,16.178 45,27.5" id="Fill-159" fill="#77797F" sketch:type="MSShapeGroup"></path>
            <path d="M32,26.5 C32,32.851 26.851,38 20.5,38 C14.149,38 9,32.851 9,26.5 C9,20.149 14.149,15 20.5,15 C26.851,15 32,20.149 32,26.5" id="Fill-160" fill="#868C9B" sketch:type="MSShapeGroup"></path>
            <path d="M2.977,2.298 C3.12,2.831 2.803,3.38 2.27,3.523 C1.737,3.666 1.188,3.349 1.045,2.816 C0.902,2.282 1.219,1.734 1.752,1.591 C2.286,1.448 2.834,1.764 2.977,2.298" id="Fill-469" fill="#F3D55B" sketch:type="MSShapeGroup"></path>
            <path d="M10.977,56.297 C11.12,56.831 10.804,57.379 10.27,57.522 C9.737,57.665 9.189,57.349 9.046,56.815 C8.903,56.282 9.219,55.733 9.753,55.59 C10.286,55.447 10.835,55.764 10.977,56.297" id="Fill-470" fill="#F3D55B" sketch:type="MSShapeGroup"></path>
            <path d="M55.977,51.298 C56.12,51.831 55.804,52.379 55.27,52.522 C54.737,52.665 54.188,52.349 54.045,51.815 C53.903,51.282 54.219,50.734 54.752,50.591 C55.286,50.448 55.834,50.764 55.977,51.298" id="Fill-471" fill="#F3D55B" sketch:type="MSShapeGroup"></path>
            <path d="M2.977,54.298 C3.12,54.831 2.804,55.379 2.27,55.522 C1.737,55.665 1.188,55.349 1.045,54.815 C0.902,54.282 1.219,53.734 1.752,53.591 C2.286,53.448 2.834,53.764 2.977,54.298" id="Fill-484" fill="#F3D55B" sketch:type="MSShapeGroup"></path>
            <path d="M7.271,5.844 C7.414,6.377 7.097,6.925 6.564,7.068 C6.03,7.211 5.482,6.895 5.339,6.361 C5.196,5.828 5.512,5.279 6.046,5.137 C6.579,4.994 7.128,5.31 7.271,5.844" id="Fill-485" fill="#F3D55B" sketch:type="MSShapeGroup"></path>
            <path d="M52.977,3.298 C53.12,3.831 52.803,4.38 52.27,4.523 C51.736,4.666 51.188,4.349 51.045,3.815 C50.902,3.282 51.219,2.734 51.752,2.591 C52.286,2.448 52.834,2.764 52.977,3.298" id="Fill-486" fill="#F3D55B" sketch:type="MSShapeGroup"></path>
            <path d="M51.538,34.358 C51.533,34.3 51.536,34.24 51.528,34.183 C51.296,32.42 49.922,30.636 47.744,30.636 C47.387,30.636 47.019,30.687 46.651,30.785 C44.393,31.39 43.605,33.362 43.827,35.049 C43.884,35.482 44.011,35.915 44.201,36.324 L28.08,40.644 C27.474,39.46 26.327,38.523 24.752,38.523 C24.394,38.523 24.027,38.573 23.659,38.671 C21.552,39.236 20.738,40.987 20.816,42.59 L5.953,46.572 C6.399,47.157 6.865,47.722 7.351,48.268 L21.376,44.51 C22.001,45.621 23.112,46.482 24.619,46.482 C24.977,46.482 25.344,46.432 25.712,46.333 C27.744,45.788 28.577,44.138 28.564,42.584 L45.641,38.008 C46.192,38.368 46.849,38.596 47.611,38.596 C47.969,38.596 48.336,38.545 48.704,38.447 C49.918,38.121 50.695,37.396 51.131,36.538 L57.386,34.862 C57.535,34.145 57.658,33.423 57.752,32.693 L51.538,34.358 L51.538,34.358 Z M25.194,44.401 C23.822,44.766 22.952,43.693 22.817,42.674 C22.767,42.287 22.715,40.995 24.177,40.603 C24.376,40.55 24.569,40.523 24.752,40.523 C25.826,40.523 26.438,41.46 26.554,42.33 C26.604,42.717 26.656,44.009 25.194,44.401 L25.194,44.401 Z M48.186,36.515 C46.815,36.882 45.944,35.807 45.81,34.788 C45.759,34.401 45.707,33.108 47.169,32.717 C47.368,32.664 47.562,32.636 47.744,32.636 C48.818,32.636 49.431,33.573 49.546,34.444 C49.597,34.831 49.648,36.123 48.186,36.515 L48.186,36.515 Z" id="Fill-1045" fill="#7684A3" sketch:type="MSShapeGroup"></path>
            <path d="M38.521,1.611 L7.083,10.035 C6.368,10.862 5.715,11.737 5.099,12.637 L41.552,2.869 C40.566,2.396 39.556,1.972 38.521,1.611" id="Fill-1046" fill="#7684A3" sketch:type="MSShapeGroup"></path>
            <path d="M8.042,27.112 C8.398,27.112 8.766,27.063 9.134,26.964 C11.166,26.419 11.999,24.769 11.986,23.215 L23.714,20.072 C24.297,21.328 25.481,22.344 27.124,22.344 C27.481,22.344 27.849,22.294 28.217,22.195 C30.399,21.611 31.198,19.753 31.05,18.106 L52.719,12.301 C52.302,11.708 51.858,11.139 51.401,10.584 L30.414,16.207 C29.774,15.169 28.696,14.385 27.257,14.385 C26.899,14.385 26.532,14.435 26.164,14.534 C24.207,15.058 23.358,16.609 23.309,18.111 L11.502,21.274 C10.896,20.091 9.749,19.153 8.173,19.153 C7.816,19.153 7.449,19.203 7.081,19.302 C4.974,19.867 4.16,21.619 4.238,23.221 L0.415,24.245 C0.296,24.954 0.204,25.669 0.139,26.39 L4.798,25.141 C5.424,26.252 6.534,27.112 8.042,27.112 L8.042,27.112 Z M26.682,16.465 C26.881,16.412 27.074,16.385 27.257,16.385 C28.331,16.385 28.943,17.322 29.059,18.193 C29.109,18.58 29.161,19.872 27.699,20.264 C26.329,20.631 25.457,19.555 25.322,18.537 C25.271,18.15 25.22,16.857 26.682,16.465 L26.682,16.465 Z M7.599,21.233 C7.798,21.18 7.991,21.153 8.173,21.153 C9.248,21.153 9.86,22.09 9.976,22.961 C10.026,23.348 10.079,24.64 8.616,25.032 C7.237,25.4 6.374,24.322 6.239,23.305 C6.188,22.918 6.136,21.625 7.599,21.233 L7.599,21.233 Z" id="Fill-1047" fill="#7684A3" sketch:type="MSShapeGroup"></path>
            <path d="M44.958,47.333 C44.726,45.569 43.352,43.785 41.173,43.785 C40.815,43.785 40.448,43.835 40.08,43.934 C37.821,44.539 37.034,46.511 37.257,48.197 C37.314,48.63 37.441,49.064 37.631,49.473 L16.478,55.14 C17.466,55.615 18.48,56.035 19.518,56.396 L39.071,51.157 C39.622,51.517 40.279,51.744 41.041,51.744 C41.398,51.744 41.766,51.694 42.134,51.595 C43.349,51.27 44.126,50.545 44.561,49.685 L50.941,47.976 C51.658,47.145 52.324,46.274 52.941,45.37 L44.967,47.506 C44.962,47.449 44.966,47.39 44.958,47.333 L44.958,47.333 Z M41.616,49.664 C40.245,50.029 39.374,48.955 39.239,47.936 C39.188,47.549 39.136,46.257 40.598,45.865 C40.797,45.812 40.99,45.785 41.173,45.785 C42.247,45.785 42.86,46.722 42.975,47.593 C43.025,47.98 43.078,49.272 41.616,49.664 L41.616,49.664 Z" id="Fill-1048" fill="#7684A3" sketch:type="MSShapeGroup"></path>
            <path d="M39.785,29.995 C40.143,29.995 40.51,29.944 40.878,29.846 C42.911,29.301 43.743,27.651 43.73,26.097 L57.236,22.478 C57.161,22.152 57.106,21.827 57.018,21.501 C56.932,21.177 56.832,20.86 56.735,20.542 L43.246,24.156 C42.64,22.973 41.493,22.035 39.918,22.035 C39.56,22.035 39.193,22.085 38.825,22.184 C36.718,22.749 35.904,24.501 35.982,26.103 L0.773,35.537 C0.849,35.862 0.908,36.188 0.995,36.513 C1.082,36.838 1.198,37.148 1.296,37.468 L36.542,28.023 C37.168,29.134 38.278,29.995 39.785,29.995 L39.785,29.995 Z M39.343,24.116 C39.542,24.063 39.735,24.035 39.918,24.035 C40.992,24.035 41.604,24.973 41.72,25.843 C41.77,26.23 41.822,27.523 40.36,27.914 C38.988,28.279 38.118,27.206 37.983,26.187 C37.933,25.8 37.881,24.508 39.343,24.116 L39.343,24.116 Z" id="Fill-1049" fill="#7684A3" sketch:type="MSShapeGroup"></path>
            <path d="M51.538,34.358 C51.533,34.3 51.536,34.24 51.528,34.183 C51.296,32.42 49.922,30.636 47.744,30.636 C47.387,30.636 47.019,30.687 46.651,30.785 C44.393,31.39 43.605,33.362 43.827,35.049 C43.884,35.482 44.011,35.915 44.201,36.324 L28.08,40.644 C27.474,39.46 26.327,38.523 24.752,38.523 C24.394,38.523 24.027,38.573 23.659,38.671 C21.552,39.236 20.738,40.987 20.816,42.59 L5.953,46.572 C6.399,47.157 6.865,47.722 7.351,48.268 L21.376,44.51 C22.001,45.621 23.112,46.482 24.619,46.482 C24.977,46.482 25.344,46.432 25.712,46.333 C27.744,45.788 28.577,44.138 28.564,42.584 L45.641,38.008 C46.192,38.368 46.849,38.596 47.611,38.596 C47.969,38.596 48.336,38.545 48.704,38.447 C49.918,38.121 50.695,37.396 51.131,36.538 L57.386,34.862 C57.535,34.145 57.658,33.423 57.752,32.693 L51.538,34.358 L51.538,34.358 Z M25.194,44.401 C23.822,44.766 22.952,43.693 22.817,42.674 C22.767,42.287 22.715,40.995 24.177,40.603 C24.376,40.55 24.569,40.523 24.752,40.523 C25.826,40.523 26.438,41.46 26.554,42.33 C26.604,42.717 26.656,44.009 25.194,44.401 L25.194,44.401 Z M48.186,36.515 C46.815,36.882 45.944,35.807 45.81,34.788 C45.759,34.401 45.707,33.108 47.169,32.717 C47.368,32.664 47.562,32.636 47.744,32.636 C48.818,32.636 49.431,33.573 49.546,34.444 C49.597,34.831 49.648,36.123 48.186,36.515 L48.186,36.515 Z" id="Fill-1045" fill="#7684A3" sketch:type="MSShapeGroup"></path>
            <path d="M38.521,1.611 L7.083,10.035 C6.368,10.862 5.715,11.737 5.099,12.637 L41.552,2.869 C40.566,2.396 39.556,1.972 38.521,1.611" id="Fill-1046" fill="#7684A3" sketch:type="MSShapeGroup"></path>
            <path d="M8.042,27.112 C8.398,27.112 8.766,27.063 9.134,26.964 C11.166,26.419 11.999,24.769 11.986,23.215 L23.714,20.072 C24.297,21.328 25.481,22.344 27.124,22.344 C27.481,22.344 27.849,22.294 28.217,22.195 C30.399,21.611 31.198,19.753 31.05,18.106 L52.719,12.301 C52.302,11.708 51.858,11.139 51.401,10.584 L30.414,16.207 C29.774,15.169 28.696,14.385 27.257,14.385 C26.899,14.385 26.532,14.435 26.164,14.534 C24.207,15.058 23.358,16.609 23.309,18.111 L11.502,21.274 C10.896,20.091 9.749,19.153 8.173,19.153 C7.816,19.153 7.449,19.203 7.081,19.302 C4.974,19.867 4.16,21.619 4.238,23.221 L0.415,24.245 C0.296,24.954 0.204,25.669 0.139,26.39 L4.798,25.141 C5.424,26.252 6.534,27.112 8.042,27.112 L8.042,27.112 Z M26.682,16.465 C26.881,16.412 27.074,16.385 27.257,16.385 C28.331,16.385 28.943,17.322 29.059,18.193 C29.109,18.58 29.161,19.872 27.699,20.264 C26.329,20.631 25.457,19.555 25.322,18.537 C25.271,18.15 25.22,16.857 26.682,16.465 L26.682,16.465 Z M7.599,21.233 C7.798,21.18 7.991,21.153 8.173,21.153 C9.248,21.153 9.86,22.09 9.976,22.961 C10.026,23.348 10.079,24.64 8.616,25.032 C7.237,25.4 6.374,24.322 6.239,23.305 C6.188,22.918 6.136,21.625 7.599,21.233 L7.599,21.233 Z" id="Fill-1047" fill="#7684A3" sketch:type="MSShapeGroup"></path>
            <path d="M44.958,47.333 C44.726,45.569 43.352,43.785 41.173,43.785 C40.815,43.785 40.448,43.835 40.08,43.934 C37.821,44.539 37.034,46.511 37.257,48.197 C37.314,48.63 37.441,49.064 37.631,49.473 L16.478,55.14 C17.466,55.615 18.48,56.035 19.518,56.396 L39.071,51.157 C39.622,51.517 40.279,51.744 41.041,51.744 C41.398,51.744 41.766,51.694 42.134,51.595 C43.349,51.27 44.126,50.545 44.561,49.685 L50.941,47.976 C51.658,47.145 52.324,46.274 52.941,45.37 L44.967,47.506 C44.962,47.449 44.966,47.39 44.958,47.333 L44.958,47.333 Z M41.616,49.664 C40.245,50.029 39.374,48.955 39.239,47.936 C39.188,47.549 39.136,46.257 40.598,45.865 C40.797,45.812 40.99,45.785 41.173,45.785 C42.247,45.785 42.86,46.722 42.975,47.593 C43.025,47.98 43.078,49.272 41.616,49.664 L41.616,49.664 Z" id="Fill-1048" fill="#7684A3" sketch:type="MSShapeGroup"></path>
            <path d="M39.785,29.995 C40.143,29.995 40.51,29.944 40.878,29.846 C42.911,29.301 43.743,27.651 43.73,26.097 L57.236,22.478 C57.161,22.152 57.106,21.827 57.018,21.501 C56.932,21.177 56.832,20.86 56.735,20.542 L43.246,24.156 C42.64,22.973 41.493,22.035 39.918,22.035 C39.56,22.035 39.193,22.085 38.825,22.184 C36.718,22.749 35.904,24.501 35.982,26.103 L0.773,35.537 C0.849,35.862 0.908,36.188 0.995,36.513 C1.082,36.838 1.198,37.148 1.296,37.468 L36.542,28.023 C37.168,29.134 38.278,29.995 39.785,29.995 L39.785,29.995 Z M39.343,24.116 C39.542,24.063 39.735,24.035 39.918,24.035 C40.992,24.035 41.604,24.973 41.72,25.843 C41.77,26.23 41.822,27.523 40.36,27.914 C38.988,28.279 38.118,27.206 37.983,26.187 C37.933,25.8 37.881,24.508 39.343,24.116 L39.343,24.116 Z" id="Fill-1049" fill="#7684A3" sketch:type="MSShapeGroup"></path>
        </g>
    </g>
</svg>