<?xml version="1.0" encoding="UTF-8" standalone="no"?>
<svg width="59px" height="59px" viewBox="0 0 59 59" version="1.1" xmlns="http://www.w3.org/2000/svg" xmlns:xlink="http://www.w3.org/1999/xlink" xmlns:sketch="http://www.bohemiancoding.com/sketch/ns">
    <!-- Generator: Sketch 3.2.2 (9983) - http://www.bohemiancoding.com/sketch -->
    <title>18 - Meteorite Impact (Flat)</title>
    <desc>Created with Sketch.</desc>
    <defs></defs>
    <g id="Page-1" stroke="none" stroke-width="1" fill="none" fill-rule="evenodd" sketch:type="MSPage">
        <g id="18---Meteorite-Impact-(Flat)" sketch:type="MSLayerGroup">
            <path d="M58,30 C58,46.016 45.016,59 29,59 C12.984,59 0,46.016 0,30 C0,13.984 12.984,1 29,1 C45.016,1 58,13.984 58,30" id="Fill-90" fill="#285680" sketch:type="MSShapeGroup"></path>
            <path d="M29,1 C24.97,1 21.134,1.823 17.646,3.308 C17.488,4.258 16.695,5.879 16.719,6.395 C16.831,6.417 24.092,-1.005 23.191,4.005 C22.61,7.23 16.675,7.211 16.93,10.458 C23.166,12.903 25.341,5.815 30.637,5.845 C32.404,5.854 36.929,3.061 37.793,3.63 C41.289,5.933 36.993,14.097 34.319,11.38 C31.747,8.807 28.076,12.281 28.241,16.292 C29.579,16.351 30.149,12.495 31.352,13.782 C32.676,15.199 32.198,18.052 30.366,18.707 C28.523,19.366 21.289,13.817 23.066,18.023 C25.02,22.691 17.212,26.298 25.094,24.416 C28.81,23.526 27.576,26.353 29.328,27.702 C31.416,29.305 30.491,25.488 32.014,26.069 C34.229,26.926 31.634,29.134 35.102,27.531 C39.171,25.675 37.643,28.569 38.888,30.461 C41.224,33.993 46.965,37.383 49.974,32.715 C50.684,31.615 50.229,22.908 54.695,28.748 C57.531,32.459 56.557,24.365 56.941,22.24 C53.547,9.993 42.327,1 29,1" id="Fill-91" fill="#24AE5F" sketch:type="MSShapeGroup"></path>
            <path d="M32.918,43.082 L27.57,39.074 L23.985,39.215 L20.267,38.044 L17.355,36.037 L10.752,37.562 L8.03,38.882 L5,42.963 L6.072,47.747 C6.379,48.142 6.695,48.529 7.021,48.907 L12.63,51.526 L16.415,52.037 L18.667,56.659 L18.734,57.124 C21.926,58.333 25.384,59 29,59 C31.494,59 33.914,58.685 36.224,58.092 L36.985,53.548 L40.444,50.741 L41.881,46.259 L34.659,46.23 L32.918,43.082" id="Fill-92" fill="#FAC176" sketch:type="MSShapeGroup"></path>
            <path d="M0.375,34.647 C0.513,34.635 0.531,34.623 0.544,34.611 C1.84,33.315 2.921,33.098 4.001,31.153 C5.082,29.208 3.785,29.208 4.001,25.967 C4.217,22.725 3.785,24.238 4.001,20.78 C4.079,19.536 3.948,18.852 2.437,18.363 C0.873,21.926 0,25.86 0,30 C0,31.582 0.131,33.133 0.375,34.647" id="Fill-93" fill="#88C057" sketch:type="MSShapeGroup"></path>
            <path d="M30,54 C28.917,53.917 24.917,52.667 24,51 C23.083,49.333 21.083,46.5 21,47 C20.943,47.34 11.889,44.257 5.669,42.062 L5,42.963 L6.072,47.747 C6.379,48.142 6.695,48.529 7.021,48.907 L12.63,51.526 L16.415,52.037 L18.667,56.659 L18.734,57.124 C21.926,58.333 25.384,59 29,59 C31.494,59 33.914,58.685 36.224,58.092 L36.801,54.647 C36.292,54.488 35.705,54.278 35,54 C32.25,52.917 31.083,54.083 30,54" id="Fill-94" fill="#FAC176" sketch:type="MSShapeGroup"></path>
            <path d="M40.444,50.741 L41.881,46.259 L34.659,46.23 L32.918,43.082 L27.57,39.074 L23.985,39.215 L20.267,38.044 L17.355,36.037 L10.752,37.562 L8.03,38.882 L5.669,42.062 C11.889,44.257 20.943,47.34 21,47 C21.083,46.5 23.083,49.333 24,51 C24.917,52.667 28.917,53.917 30,54 C31.083,54.083 32.25,52.917 35,54 C35.705,54.278 36.292,54.488 36.801,54.647 L36.985,53.548 L40.444,50.741" id="Fill-95" fill="#88C057" sketch:type="MSShapeGroup"></path>
            <path d="M35.29,1.692 C32.244,3.532 29.026,6.907 33,12 C33,12 27.562,18.625 35,21 C35,21 39.5,33.438 48,20 C48,20 46.875,29.813 53,28 C55.381,27.295 56.659,25.626 57.34,23.851 C54.958,12.819 46.302,4.128 35.29,1.692" id="Fill-1099" fill="#FAC176" sketch:type="MSShapeGroup"></path>
            <path d="M51.597,25.224 C51.552,25.224 51.531,25.219 51.531,25.219 C51.087,24.796 50.76,22.267 50.98,20.342 L45.465,18.396 C43.202,21.974 41.405,23.243 40.554,23.243 C39.55,23.243 38.222,21.087 37.821,19.98 L37.319,18.591 L35.913,18.143 C34.918,17.824 34.229,17.389 34.116,17.005 C33.883,16.215 34.775,14.565 35.319,13.903 L36.842,12.048 L35.365,10.154 C34.723,9.331 33.997,8.14 34.182,7.134 C34.312,6.428 34.899,5.662 35.863,4.923 C44.837,7.372 51.873,14.508 54.183,23.531 C53.708,24.352 53.059,24.854 52.148,25.123 C51.854,25.21 51.677,25.224 51.598,25.224 C51.598,25.224 51.598,25.224 51.597,25.224" id="Fill-1100" fill="#F18D46" sketch:type="MSShapeGroup"></path>
            <path d="M52,21 C52.552,21 53,20.552 53,20 C53,19.448 52.552,19 52,19 C51.448,19 51,19.448 51,20 C51,20.552 51.448,21 52,21" id="Fill-1114" fill="#E64C3C" sketch:type="MSShapeGroup"></path>
            <path d="M39,8 C39.552,8 40,7.552 40,7 C40,6.448 39.552,6 39,6 C38.448,6 38,6.448 38,7 C38,7.552 38.448,8 39,8" id="Fill-1115" fill="#E64C3C" sketch:type="MSShapeGroup"></path>
            <path d="M38,13 C38.552,13 39,12.552 39,12 C39,11.448 38.552,11 38,11 C37.448,11 37,11.448 37,12 C37,12.552 37.448,13 38,13" id="Fill-1116" fill="#E64C3C" sketch:type="MSShapeGroup"></path>
            <path d="M39,18 C39.552,18 40,17.552 40,17 C40,16.448 39.552,16 39,16 C38.448,16 38,16.448 38,17 C38,17.552 38.448,18 39,18" id="Fill-1117" fill="#E64C3C" sketch:type="MSShapeGroup"></path>
            <path d="M44,22 C44.552,22 45,21.552 45,21 C45,20.448 44.552,20 44,20 C43.448,20 43,20.448 43,21 C43,21.552 43.448,22 44,22" id="Fill-1118" fill="#E64C3C" sketch:type="MSShapeGroup"></path>
            <path d="M49.15,18.762 C47.419,20.134 44.208,18.967 41.978,16.154 C39.747,13.341 39.343,9.948 41.074,8.575 C42.805,7.203 46.016,8.371 48.247,11.183 C50.477,13.996 50.882,17.389 49.15,18.762" id="Fill-1119" fill="#E64C3C" sketch:type="MSShapeGroup"></path>
            <path d="M53,11.5 C53,14.538 50.538,17 47.5,17 C44.462,17 42,14.538 42,11.5 C42,8.462 44.462,6 47.5,6 C50.538,6 53,8.462 53,11.5" id="Fill-1120" fill="#F0C419" sketch:type="MSShapeGroup"></path>
            <path d="M58,9 C58.552,9 59,8.552 59,8 C59,7.448 58.552,7 58,7 C57.448,7 57,7.448 57,8 C57,8.552 57.448,9 58,9" id="Fill-1121" fill="#F0C419" sketch:type="MSShapeGroup"></path>
            <path d="M56,11 C56.552,11 57,10.552 57,10 C57,9.448 56.552,9 56,9 C55.448,9 55,9.448 55,10 C55,10.552 55.448,11 56,11" id="Fill-1122" fill="#F0C419" sketch:type="MSShapeGroup"></path>
            <path d="M58,2 C58.552,2 59,1.552 59,1 C59,0.448 58.552,0 58,0 C57.448,0 57,0.448 57,1 C57,1.552 57.448,2 58,2" id="Fill-1123" fill="#F0C419" sketch:type="MSShapeGroup"></path>
            <path d="M56,4 C56.552,4 57,3.552 57,3 C57,2.448 56.552,2 56,2 C55.448,2 55,2.448 55,3 C55,3.552 55.448,4 56,4" id="Fill-1124" fill="#F0C419" sketch:type="MSShapeGroup"></path>
            <path d="M54,6 C54.552,6 55,5.552 55,5 C55,4.448 54.552,4 54,4 C53.448,4 53,4.448 53,5 C53,5.552 53.448,6 54,6" id="Fill-1125" fill="#F0C419" sketch:type="MSShapeGroup"></path>
            <path d="M52,8 C52.552,8 53,7.552 53,7 C53,6.448 52.552,6 52,6 C51.448,6 51,6.448 51,7 C51,7.552 51.448,8 52,8" id="Fill-1126" fill="#F0C419" sketch:type="MSShapeGroup"></path>
            <path d="M51,2 C51.552,2 52,1.552 52,1 C52,0.448 51.552,0 51,0 C50.448,0 50,0.448 50,1 C50,1.552 50.448,2 51,2" id="Fill-1127" fill="#F0C419" sketch:type="MSShapeGroup"></path>
            <path d="M49,4 C49.552,4 50,3.552 50,3 C50,2.448 49.552,2 49,2 C48.448,2 48,2.448 48,3 C48,3.552 48.448,4 49,4" id="Fill-1128" fill="#F0C419" sketch:type="MSShapeGroup"></path>
        </g>
    </g>
</svg>