<?xml version="1.0" encoding="UTF-8" standalone="no"?>
<svg width="59px" height="59px" viewBox="0 0 59 59" version="1.1" xmlns="http://www.w3.org/2000/svg" xmlns:xlink="http://www.w3.org/1999/xlink" xmlns:sketch="http://www.bohemiancoding.com/sketch/ns">
    <!-- Generator: Sketch 3.2.2 (9983) - http://www.bohemiancoding.com/sketch -->
    <title>9 - Meteorite (Flat)</title>
    <desc>Created with Sketch.</desc>
    <defs></defs>
    <g id="Page-1" stroke="none" stroke-width="1" fill="none" fill-rule="evenodd" sketch:type="MSPage">
        <g id="9---Meteorite-(Flat)" sketch:type="MSLayerGroup" transform="translate(-1.000000, -1.000000)">
            <path d="M30.827,57.133 C30.937,56.898 42.675,47.602 37.827,39.133 C33.326,31.269 35.848,25.877 31.002,25.753 C27.796,25.671 24.602,25.279 21.437,24.755 C14.568,23.617 4.761,23.161 5.827,30.133 C7.452,40.758 -5.048,35.133 4.827,49.133 C7.918,53.515 20.397,65.43 30.827,57.133" id="Fill-789" fill="#CBB292" sketch:type="MSShapeGroup"></path>
            <path d="M39.121,21.879 C38.73,21.488 38.098,21.488 37.707,21.879 L36.293,23.293 C35.902,23.684 35.902,24.316 36.293,24.707 C36.488,24.902 36.744,25 37,25 C37.256,25 37.512,24.902 37.707,24.707 L39.121,23.293 C39.512,22.902 39.512,22.269 39.121,21.879" id="Fill-790" fill="#F0C419" sketch:type="MSShapeGroup"></path>
            <path d="M49.505,11.494 C49.7,11.69 49.956,11.787 50.212,11.787 C50.468,11.787 50.724,11.69 50.919,11.494 L53.869,8.545 C54.259,8.154 54.259,7.521 53.869,7.131 C53.478,6.74 52.845,6.74 52.455,7.131 L49.505,10.08 C49.114,10.471 49.114,11.104 49.505,11.494" id="Fill-791" fill="#F0C419" sketch:type="MSShapeGroup"></path>
            <path d="M45.081,14.505 L42.131,17.454 C41.741,17.845 41.741,18.478 42.131,18.868 C42.327,19.064 42.582,19.161 42.838,19.161 C43.094,19.161 43.35,19.064 43.545,18.868 L46.495,15.919 C46.886,15.528 46.886,14.895 46.495,14.505 C46.104,14.114 45.472,14.114 45.081,14.505" id="Fill-792" fill="#F0C419" sketch:type="MSShapeGroup"></path>
            <path d="M59.707,1.293 C59.316,0.902 58.684,0.902 58.293,1.293 L56.879,2.707 C56.488,3.098 56.488,3.731 56.879,4.121 C57.074,4.316 57.33,4.414 57.586,4.414 C57.842,4.414 58.098,4.316 58.293,4.121 L59.707,2.707 C60.098,2.316 60.098,1.684 59.707,1.293" id="Fill-793" fill="#F0C419" sketch:type="MSShapeGroup"></path>
            <path d="M41.121,26.879 C40.73,26.488 40.098,26.488 39.707,26.879 L38.293,28.293 C37.902,28.684 37.902,29.316 38.293,29.707 C38.488,29.902 38.744,30 39,30 C39.256,30 39.512,29.902 39.707,29.707 L41.121,28.293 C41.512,27.902 41.512,27.27 41.121,26.879" id="Fill-794" fill="#F0C419" sketch:type="MSShapeGroup"></path>
            <path d="M45.927,20.658 L43.439,23.146 C43.048,23.537 43.048,24.17 43.439,24.56 C43.634,24.756 43.89,24.854 44.146,24.854 C44.402,24.854 44.658,24.756 44.853,24.56 L47.341,22.072 C47.731,21.682 47.731,21.049 47.341,20.658 C46.95,20.268 46.317,20.268 45.927,20.658" id="Fill-795" fill="#F0C419" sketch:type="MSShapeGroup"></path>
            <path d="M53.561,15.853 C53.952,15.462 53.952,14.829 53.561,14.438 C53.17,14.048 52.538,14.048 52.147,14.438 L49.659,16.927 C49.269,17.317 49.269,17.95 49.659,18.341 C49.854,18.536 50.11,18.634 50.366,18.634 C50.622,18.634 50.878,18.536 51.073,18.341 L53.561,15.853" id="Fill-796" fill="#F0C419" sketch:type="MSShapeGroup"></path>
            <path d="M57.293,9.293 L55.879,10.707 C55.488,11.098 55.488,11.731 55.879,12.121 C56.074,12.316 56.33,12.414 56.586,12.414 C56.842,12.414 57.098,12.316 57.293,12.121 L58.707,10.707 C59.098,10.316 59.098,9.684 58.707,9.293 C58.316,8.902 57.684,8.902 57.293,9.293" id="Fill-797" fill="#F0C419" sketch:type="MSShapeGroup"></path>
            <path d="M31.707,19.879 L30.293,21.293 C29.902,21.684 29.902,22.316 30.293,22.707 C30.488,22.902 30.744,23 31,23 C31.256,23 31.512,22.902 31.707,22.707 L33.121,21.293 C33.512,20.902 33.512,20.269 33.121,19.879 C32.73,19.488 32.098,19.488 31.707,19.879" id="Fill-798" fill="#F0C419" sketch:type="MSShapeGroup"></path>
            <path d="M41.659,11.341 C41.854,11.536 42.11,11.634 42.366,11.634 C42.622,11.634 42.878,11.536 43.073,11.341 L45.561,8.852 C45.952,8.462 45.952,7.829 45.561,7.439 C45.17,7.048 44.538,7.048 44.147,7.439 L41.659,9.927 C41.269,10.317 41.269,10.95 41.659,11.341" id="Fill-799" fill="#F0C419" sketch:type="MSShapeGroup"></path>
            <path d="M36.853,17.561 L39.341,15.072 C39.731,14.682 39.731,14.049 39.341,13.658 C38.95,13.268 38.317,13.268 37.927,13.658 L35.439,16.146 C35.048,16.537 35.048,17.17 35.439,17.561 C35.634,17.756 35.89,17.854 36.146,17.854 C36.402,17.854 36.658,17.756 36.853,17.561" id="Fill-800" fill="#F0C419" sketch:type="MSShapeGroup"></path>
            <path d="M48.586,5.414 C48.842,5.414 49.098,5.316 49.293,5.121 L50.707,3.707 C51.098,3.316 51.098,2.684 50.707,2.293 C50.316,1.902 49.684,1.902 49.293,2.293 L47.879,3.707 C47.488,4.098 47.488,4.731 47.879,5.121 C48.074,5.316 48.33,5.414 48.586,5.414" id="Fill-801" fill="#F0C419" sketch:type="MSShapeGroup"></path>
            <path d="M26.707,17.879 L25.293,19.293 C24.902,19.684 24.902,20.316 25.293,20.707 C25.488,20.902 25.744,21 26,21 C26.256,21 26.512,20.902 26.707,20.707 L28.121,19.293 C28.512,18.902 28.512,18.27 28.121,17.879 C27.73,17.488 27.098,17.488 26.707,17.879" id="Fill-802" fill="#F0C419" sketch:type="MSShapeGroup"></path>
            <path d="M31.271,14.729 C31.467,14.924 31.723,15.021 31.978,15.021 C32.234,15.021 32.49,14.924 32.685,14.729 L35.728,11.686 C36.119,11.295 36.119,10.662 35.728,10.272 C35.338,9.881 34.705,9.881 34.314,10.272 L31.271,13.315 C30.881,13.705 30.881,14.338 31.271,14.729" id="Fill-803" fill="#F0C419" sketch:type="MSShapeGroup"></path>
            <path d="M39.586,7.414 C39.842,7.414 40.098,7.316 40.293,7.121 L41.707,5.707 C42.098,5.316 42.098,4.684 41.707,4.293 C41.316,3.902 40.684,3.902 40.293,4.293 L38.879,5.707 C38.488,6.098 38.488,6.731 38.879,7.121 C39.074,7.316 39.33,7.414 39.586,7.414" id="Fill-804" fill="#F0C419" sketch:type="MSShapeGroup"></path>
            <path d="M41.707,35.707 L43.121,34.293 C43.512,33.902 43.512,33.27 43.121,32.879 C42.73,32.488 42.098,32.488 41.707,32.879 L40.293,34.293 C39.902,34.684 39.902,35.316 40.293,35.707 C40.488,35.902 40.744,36 41,36 C41.256,36 41.512,35.902 41.707,35.707" id="Fill-805" fill="#F0C419" sketch:type="MSShapeGroup"></path>
            <path d="M49.314,25.272 L46.271,28.315 C45.881,28.705 45.881,29.338 46.271,29.729 C46.467,29.924 46.723,30.021 46.978,30.021 C47.234,30.021 47.49,29.924 47.685,29.729 L50.728,26.686 C51.119,26.295 51.119,25.662 50.728,25.272 C50.338,24.881 49.705,24.881 49.314,25.272" id="Fill-806" fill="#F0C419" sketch:type="MSShapeGroup"></path>
            <path d="M55.293,19.293 L53.879,20.707 C53.488,21.098 53.488,21.731 53.879,22.121 C54.074,22.316 54.33,22.414 54.586,22.414 C54.842,22.414 55.098,22.316 55.293,22.121 L56.707,20.707 C57.098,20.316 57.098,19.684 56.707,19.293 C56.316,18.902 55.684,18.902 55.293,19.293" id="Fill-807" fill="#F0C419" sketch:type="MSShapeGroup"></path>
            <path d="M13.707,16.879 L12.293,18.293 C11.902,18.684 11.902,19.316 12.293,19.707 C12.488,19.902 12.744,20 13,20 C13.256,20 13.512,19.902 13.707,19.707 L15.121,18.293 C15.512,17.902 15.512,17.269 15.121,16.879 C14.73,16.488 14.098,16.488 13.707,16.879" id="Fill-808" fill="#F0C419" sketch:type="MSShapeGroup"></path>
            <path d="M20.228,11.772 C19.838,11.381 19.205,11.381 18.814,11.772 L16.771,13.815 C16.381,14.205 16.381,14.838 16.771,15.229 C16.967,15.424 17.223,15.522 17.478,15.522 C17.734,15.522 17.99,15.424 18.185,15.229 L20.228,13.186 C20.619,12.795 20.619,12.162 20.228,11.772" id="Fill-809" fill="#F0C419" sketch:type="MSShapeGroup"></path>
            <path d="M24.707,7.293 C24.316,6.902 23.684,6.902 23.293,7.293 L21.879,8.707 C21.488,9.098 21.488,9.731 21.879,10.121 C22.074,10.316 22.33,10.414 22.586,10.414 C22.842,10.414 23.098,10.316 23.293,10.121 L24.707,8.707 C25.098,8.316 25.098,7.684 24.707,7.293" id="Fill-810" fill="#F0C419" sketch:type="MSShapeGroup"></path>
            <path d="M42.707,46.879 L41.293,48.293 C40.902,48.684 40.902,49.316 41.293,49.707 C41.488,49.902 41.744,50 42,50 C42.256,50 42.512,49.902 42.707,49.707 L44.121,48.293 C44.512,47.902 44.512,47.269 44.121,46.879 C43.73,46.488 43.098,46.488 42.707,46.879" id="Fill-811" fill="#F0C419" sketch:type="MSShapeGroup"></path>
            <path d="M47.814,41.772 L45.771,43.815 C45.381,44.205 45.381,44.838 45.771,45.229 C45.967,45.424 46.223,45.522 46.478,45.522 C46.734,45.522 46.99,45.424 47.185,45.229 L49.228,43.186 C49.619,42.795 49.619,42.162 49.228,41.772 C48.838,41.381 48.205,41.381 47.814,41.772" id="Fill-812" fill="#F0C419" sketch:type="MSShapeGroup"></path>
            <path d="M52.293,37.293 L50.879,38.707 C50.488,39.098 50.488,39.731 50.879,40.121 C51.074,40.316 51.33,40.414 51.586,40.414 C51.842,40.414 52.098,40.316 52.293,40.121 L53.707,38.707 C54.098,38.316 54.098,37.684 53.707,37.293 C53.316,36.902 52.684,36.902 52.293,37.293" id="Fill-813" fill="#F0C419" sketch:type="MSShapeGroup"></path>
            <path d="M43.707,38.879 L42.293,40.293 C41.902,40.684 41.902,41.316 42.293,41.707 C42.488,41.902 42.744,42 43,42 C43.256,42 43.512,41.902 43.707,41.707 L45.121,40.293 C45.512,39.902 45.512,39.27 45.121,38.879 C44.73,38.488 44.098,38.488 43.707,38.879" id="Fill-814" fill="#F0C419" sketch:type="MSShapeGroup"></path>
            <path d="M48.814,33.771 L46.771,35.815 C46.381,36.205 46.381,36.838 46.771,37.229 C46.967,37.424 47.223,37.521 47.478,37.521 C47.734,37.521 47.99,37.424 48.185,37.229 L50.228,35.186 C50.619,34.795 50.619,34.162 50.228,33.771 C49.838,33.381 49.205,33.381 48.814,33.771" id="Fill-815" fill="#F0C419" sketch:type="MSShapeGroup"></path>
            <path d="M53.293,29.293 L51.879,30.707 C51.488,31.098 51.488,31.731 51.879,32.121 C52.074,32.316 52.33,32.414 52.586,32.414 C52.842,32.414 53.098,32.316 53.293,32.121 L54.707,30.707 C55.098,30.316 55.098,29.684 54.707,29.293 C54.316,28.902 53.684,28.902 53.293,29.293" id="Fill-816" fill="#F0C419" sketch:type="MSShapeGroup"></path>
            <path d="M20.707,16.879 L19.293,18.293 C18.902,18.684 18.902,19.316 19.293,19.707 C19.488,19.902 19.744,20 20,20 C20.256,20 20.512,19.902 20.707,19.707 L22.121,18.293 C22.512,17.902 22.512,17.269 22.121,16.879 C21.73,16.488 21.098,16.488 20.707,16.879" id="Fill-817" fill="#F0C419" sketch:type="MSShapeGroup"></path>
            <path d="M27.228,13.186 C27.619,12.795 27.619,12.162 27.228,11.772 C26.838,11.381 26.205,11.381 25.814,11.772 L23.771,13.815 C23.381,14.205 23.381,14.838 23.771,15.229 C23.967,15.424 24.223,15.522 24.478,15.522 C24.734,15.522 24.99,15.424 25.185,15.229 L27.228,13.186" id="Fill-818" fill="#F0C419" sketch:type="MSShapeGroup"></path>
            <path d="M31.707,8.707 C32.098,8.316 32.098,7.684 31.707,7.293 C31.316,6.902 30.684,6.902 30.293,7.293 L28.879,8.707 C28.488,9.098 28.488,9.731 28.879,10.121 C29.074,10.316 29.33,10.414 29.586,10.414 C29.842,10.414 30.098,10.316 30.293,10.121 L31.707,8.707" id="Fill-819" fill="#F0C419" sketch:type="MSShapeGroup"></path>
            <path d="M16.94,44.214 C16.55,43.823 15.917,43.823 15.526,44.214 C14.392,45.347 12.417,45.347 11.284,44.214 C10.717,43.648 10.405,42.894 10.405,42.093 C10.405,41.291 10.717,40.538 11.284,39.972 C11.674,39.581 11.674,38.948 11.284,38.558 C10.893,38.167 10.26,38.167 9.87,38.558 C8.925,39.502 8.405,40.757 8.405,42.093 C8.405,43.429 8.925,44.684 9.87,45.628 C10.814,46.572 12.069,47.093 13.405,47.093 C14.741,47.093 15.996,46.572 16.94,45.628 C17.331,45.237 17.331,44.605 16.94,44.214" id="Fill-820" fill="#7F6E5D" sketch:type="MSShapeGroup"></path>
            <path d="M15.991,34.093 C18.748,34.093 20.991,31.85 20.991,29.093 C20.991,28.54 20.543,28.093 19.991,28.093 C19.438,28.093 18.991,28.54 18.991,29.093 C18.991,30.747 17.645,32.093 15.991,32.093 C14.336,32.093 12.991,30.747 12.991,29.093 C12.991,28.54 12.543,28.093 11.991,28.093 C11.438,28.093 10.991,28.54 10.991,29.093 C10.991,31.85 13.234,34.093 15.991,34.093" id="Fill-821" fill="#7F6E5D" sketch:type="MSShapeGroup"></path>
            <path d="M24.991,38.919 C26.271,38.919 27.552,38.432 28.526,37.457 C30.476,35.508 30.476,32.335 28.526,30.386 C28.136,29.995 27.503,29.995 27.112,30.386 C26.722,30.776 26.722,31.409 27.112,31.8 C28.282,32.97 28.282,34.873 27.112,36.043 C25.941,37.213 24.039,37.212 22.87,36.043 C22.479,35.652 21.846,35.652 21.456,36.043 C21.065,36.434 21.065,37.066 21.456,37.457 C22.43,38.432 23.71,38.919 24.991,38.919" id="Fill-822" fill="#7F6E5D" sketch:type="MSShapeGroup"></path>
            <path d="M21.991,49.093 C19.234,49.093 16.991,51.336 16.991,54.093 C16.991,54.646 17.438,55.093 17.991,55.093 C18.543,55.093 18.991,54.646 18.991,54.093 C18.991,52.439 20.336,51.093 21.991,51.093 C23.645,51.093 24.991,52.439 24.991,54.093 C24.991,54.646 25.438,55.093 25.991,55.093 C26.543,55.093 26.991,54.646 26.991,54.093 C26.991,51.336 24.748,49.093 21.991,49.093" id="Fill-823" fill="#7F6E5D" sketch:type="MSShapeGroup"></path>
            <path d="M31.991,48.093 C30.336,48.093 28.991,46.747 28.991,45.093 C28.991,43.439 30.336,42.093 31.991,42.093 C32.543,42.093 32.991,41.646 32.991,41.093 C32.991,40.54 32.543,40.093 31.991,40.093 C29.234,40.093 26.991,42.336 26.991,45.093 C26.991,47.85 29.234,50.093 31.991,50.093 C32.543,50.093 32.991,49.646 32.991,49.093 C32.991,48.54 32.543,48.093 31.991,48.093" id="Fill-824" fill="#7F6E5D" sketch:type="MSShapeGroup"></path>
        </g>
    </g>
</svg>