<?xml version="1.0" encoding="UTF-8" standalone="no"?>
<svg width="59px" height="56px" viewBox="0 0 59 56" version="1.1" xmlns="http://www.w3.org/2000/svg" xmlns:xlink="http://www.w3.org/1999/xlink" xmlns:sketch="http://www.bohemiancoding.com/sketch/ns">
    <!-- Generator: Sketch 3.2.2 (9983) - http://www.bohemiancoding.com/sketch -->
    <title>29 - Monkey Astronaut (Flat)</title>
    <desc>Created with Sketch.</desc>
    <defs></defs>
    <g id="Page-1" stroke="none" stroke-width="1" fill="none" fill-rule="evenodd" sketch:type="MSPage">
        <g id="29---Monkey-Astronaut-(Flat)" sketch:type="MSLayerGroup">
            <path d="M43.857,6.485 C43.685,6.787 43.373,7 43,7 C40.243,7 38,9.243 38,12 C38,12.552 37.552,13 37,13 C36.448,13 36,12.552 36,12 C36,8.472 38.626,5.553 42.025,5.076 C38.573,2.688 34.446,1.218 30,1.026 L30,5.826 C30,6.378 29.552,6.826 29,6.826 C28.448,6.826 28,6.378 28,5.826 L28,1.026 C23.554,1.218 19.427,2.688 15.975,5.076 C19.374,5.553 22,8.472 22,12 C22,12.552 21.552,13 21,13 C20.448,13 20,12.552 20,12 C20,9.243 17.757,7 15,7 C14.627,7 14.315,6.787 14.143,6.485 C9.171,10.712 6,17.002 6,24 L6,40.936 C11.594,46.472 20.044,50 29.5,50 C38.409,50 46.424,46.868 52,41.875 L52,24 C52,17.002 48.829,10.712 43.857,6.485" id="Fill-111" fill="#D1D4D1" sketch:type="MSShapeGroup"></path>
            <path d="M36,12 C36,12.552 36.448,13 37,13 C37.552,13 38,12.552 38,12 C38,9.243 40.243,7 43,7 C43.373,7 43.685,6.787 43.857,6.485 C43.27,5.986 42.659,5.515 42.025,5.076 C38.626,5.553 36,8.472 36,12" id="Fill-112" fill="#ECF0F1" sketch:type="MSShapeGroup"></path>
            <path d="M15,7 C17.757,7 20,9.243 20,12 C20,12.552 20.448,13 21,13 C21.552,13 22,12.552 22,12 C22,8.472 19.374,5.553 15.975,5.076 C15.34,5.515 14.73,5.986 14.143,6.485 C14.315,6.787 14.627,7 15,7" id="Fill-113" fill="#ECF0F1" sketch:type="MSShapeGroup"></path>
            <path d="M29,6.826 C29.552,6.826 30,6.378 30,5.826 L30,1.026 C29.668,1.011 29.335,1 29,1 C28.665,1 28.332,1.011 28,1.026 L28,5.826 C28,6.378 28.448,6.826 29,6.826" id="Fill-114" fill="#ECF0F1" sketch:type="MSShapeGroup"></path>
            <path d="M29.5,50 C21.182,50 13.645,47.269 8.143,42.843 L8.143,49.471 C13.112,54.388 20.617,56 29.015,56 C36.928,56 44.047,54.74 49,50.305 L49,44.212 C43.713,47.823 36.919,50 29.5,50" id="Fill-115" fill="#E6E7E8" sketch:type="MSShapeGroup"></path>
            <path d="M3.658,22.029 C2.675,22.194 2,23.124 2,24.122 L2,26.611 C2,26.826 1.826,27 1.61,27 C0.721,27 0,27.721 0,28.61 L0,31.779 C0,32.453 0.547,33 1.221,33 L1.61,33 C1.826,33 2,33.174 2,33.39 L2,35.878 C2,36.876 2.675,37.806 3.658,37.971 C4.907,38.181 6,37.212 6,36 L6,24 C6,22.788 4.907,21.819 3.658,22.029" id="Fill-116" fill="#ECF0F1" sketch:type="MSShapeGroup"></path>
            <path d="M3,31 C2.74,31 2.48,30.89 2.29,30.71 C2.11,30.52 2,30.26 2,30 C2,29.74 2.11,29.48 2.29,29.29 C2.67,28.92 3.34,28.92 3.71,29.29 C3.89,29.48 4,29.74 4,30 C4,30.26 3.89,30.52 3.71,30.71 C3.52,30.89 3.26,31 3,31" id="Fill-117" fill="#A5A5A4" sketch:type="MSShapeGroup"></path>
            <path d="M54.342,37.971 C55.325,37.806 56,36.876 56,35.879 L56,33.767 C56,33.343 56.343,33 56.767,33 L56.779,33 C57.453,33 58,32.453 58,31.779 L58,28.221 C58,27.547 57.453,27 56.779,27 L56.767,27 C56.343,27 56,26.657 56,26.233 L56,24.122 C56,23.124 55.325,22.194 54.342,22.029 C53.093,21.819 52,22.788 52,24 L52,36 C52,37.212 53.093,38.181 54.342,37.971" id="Fill-118" fill="#ECF0F1" sketch:type="MSShapeGroup"></path>
            <path d="M55,31 C54.74,31 54.48,30.89 54.29,30.71 C54.11,30.52 54,30.27 54,30 C54,29.73 54.11,29.48 54.29,29.29 C54.66,28.92 55.34,28.92 55.71,29.29 C55.89,29.48 56,29.74 56,30 C56,30.26 55.89,30.52 55.71,30.71 C55.52,30.89 55.26,31 55,31" id="Fill-119" fill="#A5A5A4" sketch:type="MSShapeGroup"></path>
            <path d="M58,5 L56.414,5 L54,2.586 L54,1 C54,0.448 53.552,0 53,0 C52.448,0 52,0.448 52,1 L52,2.586 L49.586,5 L48,5 C47.448,5 47,5.448 47,6 C47,6.552 47.448,7 48,7 L49.586,7 L52,9.414 L52,11 C52,11.552 52.448,12 53,12 C53.552,12 54,11.552 54,11 L54,9.414 L56.414,7 L58,7 C58.552,7 59,6.552 59,6 C59,5.448 58.552,5 58,5" id="Fill-120" fill="#F3D55B" sketch:type="MSShapeGroup"></path>
            <path d="M29,8 C16.35,8 6,16.92 6,26.379 L6,39.041 C11.594,43.181 20.044,47 29.5,47 C38.409,47 46.424,43.476 52,39.744 L52,26.379 C52,16.92 41.65,8 29,8" id="Fill-121" fill="#ECF0F1" sketch:type="MSShapeGroup"></path>
            <path d="M29,11 C16.35,11 6,18.548 6,26.551 L6,37.266 C11.594,40.768 20.044,44 29.5,44 C38.409,44 46.424,41.019 52,37.86 L52,26.551 C52,18.548 41.65,11 29,11" id="Fill-122" fill="#38454F" sketch:type="MSShapeGroup"></path>
            <path d="M8.143,42.843 L8.143,45.471 C13.112,50.388 20.617,52 29.015,52 C36.928,52 44.047,50.74 49,46.305 L49,44.212 C43.713,47.823 36.919,50 29.5,50 C21.182,50 13.645,47.269 8.143,42.843" id="Fill-123" fill="#FFFFFF" sketch:type="MSShapeGroup"></path>
            <path d="M26.999,20.198 C26.491,20.198 26.057,19.813 26.005,19.297 C25.95,18.748 26.351,18.258 26.9,18.203 C28.242,18.068 29.621,18 31,18 C31.552,18 32,18.448 32,19 C32,19.552 31.552,20 31,20 C29.687,20 28.375,20.065 27.1,20.193 C27.066,20.196 27.032,20.198 26.999,20.198" id="Fill-124" fill="#546A79" sketch:type="MSShapeGroup"></path>
            <path d="M26.908,11.073 C26.338,11.111 25.775,11.164 25.218,11.231 C25.125,11.242 25.033,11.255 24.94,11.267 C23.759,11.421 22.608,11.638 21.496,11.916 C21.452,11.927 21.407,11.937 21.363,11.948 C20.801,12.091 20.25,12.249 19.709,12.421 C19.674,12.432 19.639,12.444 19.603,12.455 C17.911,13 16.325,13.68 14.878,14.473 C11.832,17.846 9.965,22.304 9.965,27.207 C9.965,32.452 12.088,37.201 15.519,40.644 L17.778,42.38 C21.387,43.376 25.346,44 29.5,44 C33.113,44 36.575,43.504 39.791,42.71 L42.48,40.644 C45.912,37.201 48.034,32.452 48.034,27.207 C48.034,22.305 46.169,17.847 43.125,14.474 L43.124,14.474 C41.677,13.682 40.091,13.001 38.4,12.456 C38.363,12.444 38.327,12.432 38.291,12.421 C37.75,12.249 37.199,12.091 36.638,11.949 C36.594,11.937 36.55,11.927 36.506,11.916 C35.394,11.639 34.243,11.421 33.062,11.267 C32.968,11.255 32.875,11.242 32.782,11.231 C32.225,11.164 31.661,11.111 31.092,11.073 C30.991,11.066 30.889,11.062 30.788,11.056 C30.197,11.022 29.602,11 29,11 C28.398,11 27.804,11.022 27.214,11.056 C27.112,11.062 27.009,11.066 26.908,11.073" id="Fill-1043" fill="#59474E" sketch:type="MSShapeGroup"></path>
            <path d="M42.416,41.983 C42.458,41.568 42.483,41.138 42.483,40.69 C42.483,38.786 42.083,37.237 41.371,35.981 C43.551,33.468 44.862,30.283 44.862,26.81 C44.862,18.707 37.76,12.138 29,12.138 C20.24,12.138 13.138,18.707 13.138,26.81 C13.138,30.283 14.449,33.468 16.629,35.981 C15.917,37.237 15.517,38.786 15.517,40.69 C15.517,41.041 15.543,41.373 15.57,41.704 C19.747,43.084 24.479,44 29.5,44 C34.119,44 38.493,43.195 42.416,41.983" id="Fill-1050" fill="#AF8066" sketch:type="MSShapeGroup"></path>
            <path d="M18.69,21.575 C21.479,18.785 25.994,18.785 28.784,21.575 M28.784,21.575 C31.574,18.785 36.089,18.785 38.879,21.575" id="Stroke-1051" stroke="#59474E" stroke-width="2" stroke-linecap="round" sketch:type="MSShapeGroup"></path>
            <path d="M25.034,27.414 C25.034,29.166 23.614,30.586 21.862,30.586 C20.11,30.586 18.69,29.166 18.69,27.414 C18.69,25.662 20.11,24.241 21.862,24.241 C23.614,24.241 25.034,25.662 25.034,27.414" id="Fill-1052" fill="#FFFFFF" sketch:type="MSShapeGroup"></path>
            <path d="M39.31,27.414 C39.31,29.166 37.89,30.586 36.138,30.586 C34.386,30.586 32.965,29.166 32.965,27.414 C32.965,25.662 34.386,24.241 36.138,24.241 C37.89,24.241 39.31,25.662 39.31,27.414" id="Fill-1053" fill="#FFFFFF" sketch:type="MSShapeGroup"></path>
            <path d="M37.559,36.265 C35.215,33.921 31.527,33.734 28.96,35.691 C26.394,33.734 22.705,33.921 20.362,36.265 C19.971,36.656 19.971,37.289 20.362,37.679 C20.752,38.07 21.385,38.07 21.776,37.679 C23.485,35.971 26.214,35.925 28,37.505 L28,41.69 C28,42.242 28.448,42.69 29,42.69 C29.552,42.69 30,42.242 30,41.69 L30,37.44 C31.787,35.93 34.46,35.996 36.144,37.679 C36.34,37.875 36.596,37.972 36.852,37.972 C37.107,37.972 37.363,37.875 37.559,37.679 C37.949,37.289 37.949,36.656 37.559,36.265" id="Fill-1054" fill="#7F5B53" sketch:type="MSShapeGroup"></path>
            <path d="M23.448,27.414 C23.448,27.852 23.093,28.207 22.655,28.207 C22.217,28.207 21.862,27.852 21.862,27.414 C21.862,26.976 22.217,26.621 22.655,26.621 C23.093,26.621 23.448,26.976 23.448,27.414" id="Fill-1055" fill="#38454F" sketch:type="MSShapeGroup"></path>
            <path d="M36.138,27.414 C36.138,27.852 35.783,28.207 35.345,28.207 C34.907,28.207 34.552,27.852 34.552,27.414 C34.552,26.976 34.907,26.621 35.345,26.621 C35.783,26.621 36.138,26.976 36.138,27.414" id="Fill-1056" fill="#38454F" sketch:type="MSShapeGroup"></path>
        </g>
    </g>
</svg>