<?xml version="1.0" encoding="UTF-8" standalone="no"?>
<svg width="58px" height="59px" viewBox="0 0 58 59" version="1.1" xmlns="http://www.w3.org/2000/svg" xmlns:xlink="http://www.w3.org/1999/xlink" xmlns:sketch="http://www.bohemiancoding.com/sketch/ns">
    <!-- Generator: Sketch 3.2.2 (9983) - http://www.bohemiancoding.com/sketch -->
    <title>21 - Moon Rover (Flat)</title>
    <desc>Created with Sketch.</desc>
    <defs></defs>
    <g id="Page-1" stroke="none" stroke-width="1" fill="none" fill-rule="evenodd" sketch:type="MSPage">
        <g id="21---Moon-Rover-(Flat)" sketch:type="MSLayerGroup" transform="translate(0.000000, -1.000000)">
            <path d="M33,5 C33,2.794 31.206,1 29,1 C26.794,1 25,2.794 25,5 C25,6.858 26.28,8.411 28,8.858 L28,13 C28,13.552 28.447,14 29,14 C29.553,14 30,13.552 30,13 L30,8.858 C31.72,8.411 33,6.858 33,5 L33,5 Z M29,7 C27.897,7 27,6.103 27,5 C27,3.897 27.897,3 29,3 C30.103,3 31,3.897 31,5 C31,6.103 30.103,7 29,7 L29,7 Z" id="Fill-25" fill="#E4C05C" sketch:type="MSShapeGroup"></path>
            <path d="M40.639,1.23 C40.211,0.877 39.582,0.938 39.23,1.362 C38.878,1.787 38.937,2.417 39.361,2.77 C40.418,3.646 41,4.793 41,6 C41,7.207 40.418,8.354 39.361,9.23 C38.937,9.583 38.878,10.213 39.23,10.638 C39.428,10.877 39.713,11 40.001,11 C40.226,11 40.451,10.924 40.639,10.77 C42.161,9.507 43,7.813 43,6 C43,4.187 42.161,2.493 40.639,1.23" id="Fill-26" fill="#ECF0F1" sketch:type="MSShapeGroup"></path>
            <path d="M46.639,1.23 C46.211,0.877 45.582,0.938 45.23,1.362 C44.878,1.787 44.937,2.417 45.361,2.77 C46.418,3.646 47,4.793 47,6 C47,7.207 46.418,8.354 45.361,9.23 C44.937,9.583 44.878,10.213 45.23,10.638 C45.428,10.877 45.713,11 46.001,11 C46.226,11 46.451,10.924 46.639,10.77 C48.161,9.507 49,7.813 49,6 C49,4.187 48.161,2.493 46.639,1.23" id="Fill-27" fill="#ECF0F1" sketch:type="MSShapeGroup"></path>
            <path d="M18.77,1.362 C18.418,0.937 17.788,0.877 17.361,1.23 C15.839,2.493 15,4.187 15,6 C15,7.813 15.839,9.507 17.361,10.77 C17.549,10.925 17.774,11 17.999,11 C18.287,11 18.572,10.877 18.77,10.638 C19.122,10.213 19.063,9.583 18.639,9.23 C17.582,8.354 17,7.207 17,6 C17,4.793 17.582,3.646 18.639,2.77 C19.063,2.417 19.122,1.787 18.77,1.362" id="Fill-28" fill="#ECF0F1" sketch:type="MSShapeGroup"></path>
            <path d="M12.77,1.362 C12.418,0.937 11.789,0.877 11.361,1.23 C9.839,2.493 9,4.187 9,6 C9,7.813 9.839,9.507 11.361,10.77 C11.549,10.925 11.774,11 11.999,11 C12.287,11 12.572,10.877 12.77,10.638 C13.122,10.213 13.063,9.583 12.639,9.23 C11.582,8.354 11,7.207 11,6 C11,4.793 11.582,3.646 12.639,2.77 C13.063,2.417 13.122,1.787 12.77,1.362" id="Fill-29" fill="#ECF0F1" sketch:type="MSShapeGroup"></path>
            <path d="M6,13 L10,13 L10,19 L6,19 L6,13 Z" id="Fill-30" fill="#556080" sketch:type="MSShapeGroup"></path>
            <path d="M51,20 C50.447,20 50,19.552 50,19 L50,16 C50,15.448 50.447,15 51,15 C51.553,15 52,15.448 52,16 L52,19 C52,19.552 51.553,20 51,20" id="Fill-31" fill="#556080" sketch:type="MSShapeGroup"></path>
            <path d="M26,13 L32,13 L32,19 L26,19 L26,13 Z" id="Fill-32" fill="#556080" sketch:type="MSShapeGroup"></path>
            <path d="M57,25 C56.447,25 56,24.552 56,24 L56,2 C56,1.448 56.447,1 57,1 C57.553,1 58,1.448 58,2 L58,24 C58,24.552 57.553,25 57,25" id="Fill-33" fill="#556080" sketch:type="MSShapeGroup"></path>
            <path d="M4,43 L54,43 L54,53 L4,53 L4,43 Z" id="Fill-34" fill="#BDC3C7" sketch:type="MSShapeGroup"></path>
            <path d="M0,24 L58,24 L58,43 L0,43 L0,24 Z" id="Fill-227" fill="#ECF0F1" sketch:type="MSShapeGroup"></path>
            <path d="M5,39 C5,39.552 4.552,40 4,40 C3.448,40 3,39.552 3,39 C3,38.448 3.448,38 4,38 C4.552,38 5,38.448 5,39" id="Fill-567" fill="#BDC3C7" sketch:type="MSShapeGroup"></path>
            <path d="M9,39 C9,39.552 8.552,40 8,40 C7.448,40 7,39.552 7,39 C7,38.448 7.448,38 8,38 C8.552,38 9,38.448 9,39" id="Fill-568" fill="#BDC3C7" sketch:type="MSShapeGroup"></path>
            <path d="M13,39 C13,39.552 12.552,40 12,40 C11.448,40 11,39.552 11,39 C11,38.448 11.448,38 12,38 C12.552,38 13,38.448 13,39" id="Fill-569" fill="#BDC3C7" sketch:type="MSShapeGroup"></path>
            <path d="M17,39 C17,39.552 16.552,40 16,40 C15.448,40 15,39.552 15,39 C15,38.448 15.448,38 16,38 C16.552,38 17,38.448 17,39" id="Fill-570" fill="#BDC3C7" sketch:type="MSShapeGroup"></path>
            <path d="M21,39 C21,39.552 20.552,40 20,40 C19.448,40 19,39.552 19,39 C19,38.448 19.448,38 20,38 C20.552,38 21,38.448 21,39" id="Fill-571" fill="#BDC3C7" sketch:type="MSShapeGroup"></path>
            <path d="M25,39 C25,39.552 24.552,40 24,40 C23.448,40 23,39.552 23,39 C23,38.448 23.448,38 24,38 C24.552,38 25,38.448 25,39" id="Fill-572" fill="#BDC3C7" sketch:type="MSShapeGroup"></path>
            <path d="M29,39 C29,39.552 28.552,40 28,40 C27.448,40 27,39.552 27,39 C27,38.448 27.448,38 28,38 C28.552,38 29,38.448 29,39" id="Fill-573" fill="#BDC3C7" sketch:type="MSShapeGroup"></path>
            <path d="M33,39 C33,39.552 32.552,40 32,40 C31.448,40 31,39.552 31,39 C31,38.448 31.448,38 32,38 C32.552,38 33,38.448 33,39" id="Fill-574" fill="#BDC3C7" sketch:type="MSShapeGroup"></path>
            <path d="M33,35 C33,35.552 32.552,36 32,36 C31.448,36 31,35.552 31,35 C31,34.448 31.448,34 32,34 C32.552,34 33,34.448 33,35" id="Fill-575" fill="#BDC3C7" sketch:type="MSShapeGroup"></path>
            <path d="M33,31 C33,31.552 32.552,32 32,32 C31.448,32 31,31.552 31,31 C31,30.448 31.448,30 32,30 C32.552,30 33,30.448 33,31" id="Fill-576" fill="#BDC3C7" sketch:type="MSShapeGroup"></path>
            <path d="M33,27 C33,27.552 32.552,28 32,28 C31.448,28 31,27.552 31,27 C31,26.448 31.448,26 32,26 C32.552,26 33,26.448 33,27" id="Fill-577" fill="#BDC3C7" sketch:type="MSShapeGroup"></path>
            <path d="M11.104,46.792 L11.104,46.792 C11.333,47.537 12.27,47.829 12.911,47.355 C13.821,46.684 15.083,47.563 14.698,48.6 C14.427,49.332 15.006,50.096 15.814,50.074 C16.962,50.044 17.444,51.467 16.497,52.089 C15.829,52.528 15.829,53.472 16.497,53.911 C17.444,54.533 16.962,55.956 15.814,55.926 C15.006,55.904 14.427,56.669 14.698,57.4 C15.083,58.437 13.821,59.316 12.911,58.645 C12.27,58.172 11.333,58.463 11.104,59.208 C10.78,60.264 9.22,60.264 8.896,59.208 C8.667,58.463 7.73,58.172 7.089,58.645 C6.179,59.316 4.917,58.437 5.302,57.4 C5.573,56.669 4.994,55.904 4.186,55.926 C3.038,55.956 2.556,54.533 3.503,53.911 C4.17,53.472 4.17,52.528 3.503,52.089 C2.556,51.467 3.038,50.044 4.186,50.074 C4.994,50.096 5.573,49.332 5.302,48.6 C4.917,47.563 6.179,46.684 7.089,47.355 C7.73,47.829 8.667,47.537 8.896,46.792 C9.22,45.736 10.78,45.736 11.104,46.792" id="Fill-667" fill="#556080" sketch:type="MSShapeGroup"></path>
            <path d="M13,53 C13,54.657 11.657,56 10,56 C8.343,56 7,54.657 7,53 C7,51.343 8.343,50 10,50 C11.657,50 13,51.343 13,53" id="Fill-668" fill="#8697CB" sketch:type="MSShapeGroup"></path>
            <path d="M49.104,46.792 L49.104,46.792 C49.333,47.537 50.27,47.829 50.911,47.355 C51.821,46.684 53.083,47.563 52.698,48.6 C52.427,49.332 53.006,50.096 53.814,50.074 C54.962,50.044 55.444,51.467 54.497,52.089 C53.829,52.528 53.829,53.472 54.497,53.911 C55.444,54.533 54.962,55.956 53.814,55.926 C53.006,55.904 52.427,56.669 52.698,57.4 C53.083,58.437 51.821,59.316 50.911,58.645 C50.27,58.172 49.333,58.463 49.104,59.208 C48.78,60.264 47.22,60.264 46.896,59.208 C46.667,58.463 45.73,58.172 45.089,58.645 C44.179,59.316 42.917,58.437 43.302,57.4 C43.573,56.669 42.994,55.904 42.186,55.926 C41.038,55.956 40.556,54.533 41.503,53.911 C42.17,53.472 42.17,52.528 41.503,52.089 C40.556,51.467 41.038,50.044 42.186,50.074 C42.994,50.096 43.573,49.332 43.302,48.6 C42.917,47.563 44.179,46.684 45.089,47.355 C45.73,47.829 46.667,47.537 46.896,46.792 C47.22,45.736 48.78,45.736 49.104,46.792" id="Fill-669" fill="#556080" sketch:type="MSShapeGroup"></path>
            <path d="M51,53 C51,54.657 49.657,56 48,56 C46.343,56 45,54.657 45,53 C45,51.343 46.343,50 48,50 C49.657,50 51,51.343 51,53" id="Fill-670" fill="#8697CB" sketch:type="MSShapeGroup"></path>
            <path d="M4,19 L54,19 L54,24 L4,24 L4,19 Z" id="Fill-671" fill="#8697CB" sketch:type="MSShapeGroup"></path>
            <path d="M47,24 L53,24 L53,30 L47,30 L47,24 Z" id="Fill-672" fill="#BDC3C7" sketch:type="MSShapeGroup"></path>
            <path d="M0,24 L6,24 L6,30 L0,30 L0,24 Z" id="Fill-673" fill="#BDC3C7" sketch:type="MSShapeGroup"></path>
            <path d="M29,36 L0,36 L0,34 L27,34 L27,24 L29,24 L29,36" id="Fill-674" fill="#BDC3C7" sketch:type="MSShapeGroup"></path>
            <path d="M25,47 L33,47 L33,53 L25,53 L25,47 Z" id="Fill-675" fill="#ECF0F1" sketch:type="MSShapeGroup"></path>
        </g>
    </g>
</svg>