<?xml version="1.0" encoding="UTF-8" standalone="no"?>
<svg width="55px" height="57px" viewBox="0 0 55 57" version="1.1" xmlns="http://www.w3.org/2000/svg" xmlns:xlink="http://www.w3.org/1999/xlink" xmlns:sketch="http://www.bohemiancoding.com/sketch/ns">
    <!-- Generator: Sketch 3.2.2 (9983) - http://www.bohemiancoding.com/sketch -->
    <title>34 - Moon (Flat)</title>
    <desc>Created with Sketch.</desc>
    <defs></defs>
    <g id="Page-1" stroke="none" stroke-width="1" fill="none" fill-rule="evenodd" sketch:type="MSPage">
        <g id="34---Moon-(Flat)" sketch:type="MSLayerGroup">
            <path d="M49,34 C49,46.703 38.702,57 26,57 C13.297,57 3,46.703 3,34 C3,21.297 13.297,11 26,11 C38.702,11 49,21.297 49,34" id="Fill-289" fill="#A5A5A4" sketch:type="MSShapeGroup"></path>
            <path d="M26,11 L26,1" id="Stroke-290" stroke="#8697CB" stroke-width="2" sketch:type="MSShapeGroup"></path>
            <path d="M27,1 L35,1 L35,7 L27,7 L27,1 Z" id="Fill-291" fill="#48A0DC" sketch:type="MSShapeGroup"></path>
            <path d="M41,31.5 C41,34.538 38.538,37 35.5,37 C32.462,37 30,34.538 30,31.5 C30,28.462 32.462,26 35.5,26 C38.538,26 41,28.462 41,31.5" id="Fill-292" fill="#D1D4D1" sketch:type="MSShapeGroup"></path>
            <path d="M4.548,25.705 C5.74,27.108 7.515,28 9.5,28 C13.09,28 16,25.09 16,21.5 C16,18.877 14.443,16.622 12.206,15.595 C8.789,18.16 6.115,21.657 4.548,25.705" id="Fill-293" fill="#5E5F62" sketch:type="MSShapeGroup"></path>
            <path d="M17.5,45 C13.934,45 11.041,47.873 11.003,51.431 C13.964,53.98 17.578,55.789 21.564,56.568 C23.048,55.377 24,53.551 24,51.5 C24,47.91 21.09,45 17.5,45" id="Fill-294" fill="#BDC3C7" sketch:type="MSShapeGroup"></path>
            <path d="M9,7 C9,7.552 8.552,8 8,8 C7.448,8 7,7.552 7,7 C7,6.448 7.448,6 8,6 C8.552,6 9,6.448 9,7" id="Fill-295" fill="#F18D46" sketch:type="MSShapeGroup"></path>
            <path d="M2,50 C2,50.552 1.552,51 1,51 C0.448,51 0,50.552 0,50 C0,49.448 0.448,49 1,49 C1.552,49 2,49.448 2,50" id="Fill-296" fill="#F18D46" sketch:type="MSShapeGroup"></path>
            <path d="M50,55 C50,55.552 49.552,56 49,56 C48.448,56 48,55.552 48,55 C48,54.448 48.448,54 49,54 C49.552,54 50,54.448 50,55" id="Fill-297" fill="#F18D46" sketch:type="MSShapeGroup"></path>
            <path d="M18,34 C17.448,34 17,34.448 17,35 C17,35.552 17.448,36 18,36 C18.552,36 19,35.552 19,35 C19,34.448 18.552,34 18,34" id="Fill-303" fill="#F3D55B" sketch:type="MSShapeGroup"></path>
            <path d="M25,27 C24.448,27 24,27.448 24,28 C24,28.552 24.448,29 25,29 C25.552,29 26,28.552 26,28 C26,27.448 25.552,27 25,27" id="Fill-304" fill="#F3D55B" sketch:type="MSShapeGroup"></path>
            <path d="M11,40 C10.448,40 10,40.448 10,41 C10,41.552 10.448,42 11,42 C11.552,42 12,41.552 12,41 C12,40.448 11.552,40 11,40" id="Fill-305" fill="#F3D55B" sketch:type="MSShapeGroup"></path>
            <path d="M7,33 C6.448,33 6,33.448 6,34 C6,34.552 6.448,35 7,35 C7.552,35 8,34.552 8,34 C8,33.448 7.552,33 7,33" id="Fill-306" fill="#F3D55B" sketch:type="MSShapeGroup"></path>
            <path d="M30,48 C29.448,48 29,48.448 29,49 C29,49.552 29.448,50 30,50 C30.552,50 31,49.552 31,49 C31,48.448 30.552,48 30,48" id="Fill-307" fill="#F3D55B" sketch:type="MSShapeGroup"></path>
            <path d="M36,20 C35.448,20 35,20.448 35,21 C35,21.552 35.448,22 36,22 C36.552,22 37,21.552 37,21 C37,20.448 36.552,20 36,20" id="Fill-308" fill="#F3D55B" sketch:type="MSShapeGroup"></path>
            <path d="M20,15 C19.448,15 19,15.448 19,16 C19,16.552 19.448,17 20,17 C20.552,17 21,16.552 21,16 C21,15.448 20.552,15 20,15" id="Fill-309" fill="#F3D55B" sketch:type="MSShapeGroup"></path>
            <path d="M27,18 C26.448,18 26,18.448 26,19 C26,19.552 26.448,20 27,20 C27.552,20 28,19.552 28,19 C28,18.448 27.552,18 27,18" id="Fill-310" fill="#F3D55B" sketch:type="MSShapeGroup"></path>
            <path d="M38,45 C37.448,45 37,45.448 37,46 C37,46.552 37.448,47 38,47 C38.552,47 39,46.552 39,46 C39,45.448 38.552,45 38,45" id="Fill-311" fill="#F3D55B" sketch:type="MSShapeGroup"></path>
            <path d="M54,5 L52.414,5 L50,2.586 L50,1 C50,0.448 49.553,0 49,0 C48.447,0 48,0.448 48,1 L48,2.586 L45.586,5 L44,5 C43.447,5 43,5.448 43,6 C43,6.552 43.447,7 44,7 L45.586,7 L48,9.414 L48,11 C48,11.552 48.447,12 49,12 C49.553,12 50,11.552 50,11 L50,9.414 L52.414,7 L54,7 C54.553,7 55,6.552 55,6 C55,5.448 54.553,5 54,5" id="Fill-320" fill="#F3D55B" sketch:type="MSShapeGroup"></path>
        </g>
    </g>
</svg>