<?xml version="1.0" encoding="UTF-8" standalone="no"?>
<svg width="55px" height="56px" viewBox="0 0 55 56" version="1.1" xmlns="http://www.w3.org/2000/svg" xmlns:xlink="http://www.w3.org/1999/xlink" xmlns:sketch="http://www.bohemiancoding.com/sketch/ns">
    <!-- Generator: Sketch 3.2.2 (9983) - http://www.bohemiancoding.com/sketch -->
    <title>42 - Neptune (Flat)</title>
    <desc>Created with Sketch.</desc>
    <defs></defs>
    <g id="Page-1" stroke="none" stroke-width="1" fill="none" fill-rule="evenodd" sketch:type="MSPage">
        <g id="42---Neptune-(Flat)" sketch:type="MSLayerGroup" transform="translate(-1.000000, 0.000000)">
            <path d="M52,31 C52,44.255 41.255,55 28,55 C14.745,55 4,44.255 4,31 C4,17.745 14.745,7 28,7 C41.255,7 52,17.745 52,31" id="Fill-164" fill="#8697CB" sketch:type="MSShapeGroup"></path>
            <path d="M44,29.5 C44,39.717 35.717,48 25.5,48 C15.283,48 7,39.717 7,29.5 C7,19.283 15.283,11 25.5,11 C35.717,11 44,19.283 44,29.5" id="Fill-165" fill="#92A8DD" sketch:type="MSShapeGroup"></path>
            <path d="M32,27 C32,33.075 27.075,38 21,38 C14.925,38 10,33.075 10,27 C10,20.925 14.925,16 21,16 C27.075,16 32,20.925 32,27" id="Fill-166" fill="#A4B9ED" sketch:type="MSShapeGroup"></path>
            <path d="M55,5 L53.414,5 L51,2.586 L51,1 C51,0.448 50.553,0 50,0 C49.447,0 49,0.448 49,1 L49,2.586 L46.586,5 L45,5 C44.447,5 44,5.448 44,6 C44,6.552 44.447,7 45,7 L46.586,7 L49,9.414 L49,11 C49,11.552 49.447,12 50,12 C50.553,12 51,11.552 51,11 L51,9.414 L53.414,7 L55,7 C55.553,7 56,6.552 56,6 C56,5.448 55.553,5 55,5" id="Fill-324" fill="#F3D55B" sketch:type="MSShapeGroup"></path>
            <path d="M7.966,5.741 C8.109,6.275 7.792,6.823 7.259,6.966 C6.725,7.109 6.177,6.792 6.034,6.259 C5.891,5.725 6.208,5.177 6.741,5.034 C7.275,4.891 7.823,5.208 7.966,5.741" id="Fill-477" fill="#F3D55B" sketch:type="MSShapeGroup"></path>
            <path d="M54.966,20.741 C55.109,21.274 54.792,21.823 54.259,21.966 C53.725,22.109 53.177,21.792 53.034,21.259 C52.891,20.725 53.208,20.177 53.741,20.034 C54.275,19.891 54.823,20.208 54.966,20.741" id="Fill-478" fill="#F3D55B" sketch:type="MSShapeGroup"></path>
            <path d="M42.966,2.741 C43.109,3.275 42.792,3.823 42.259,3.966 C41.725,4.109 41.177,3.792 41.034,3.259 C40.891,2.725 41.208,2.177 41.741,2.034 C42.275,1.891 42.823,2.208 42.966,2.741" id="Fill-479" fill="#F3D55B" sketch:type="MSShapeGroup"></path>
            <path d="M33.966,12.741 C34.109,13.275 33.792,13.823 33.259,13.966 C32.725,14.109 32.177,13.792 32.034,13.259 C31.891,12.725 32.208,12.177 32.741,12.034 C33.275,11.891 33.823,12.208 33.966,12.741" id="Fill-480" fill="#F3D55B" sketch:type="MSShapeGroup"></path>
            <path d="M36.966,45.741 C37.109,46.275 36.792,46.823 36.259,46.966 C35.725,47.109 35.177,46.792 35.034,46.259 C34.891,45.725 35.208,45.177 35.741,45.034 C36.275,44.891 36.823,45.208 36.966,45.741" id="Fill-481" fill="#F3D55B" sketch:type="MSShapeGroup"></path>
            <path d="M4.966,54.741 C5.109,55.275 4.792,55.823 4.259,55.966 C3.725,56.109 3.177,55.792 3.034,55.259 C2.891,54.725 3.208,54.177 3.741,54.034 C4.275,53.891 4.823,54.208 4.966,54.741" id="Fill-482" fill="#F3D55B" sketch:type="MSShapeGroup"></path>
            <path d="M2.966,43.741 C3.109,44.275 2.792,44.823 2.259,44.966 C1.725,45.109 1.177,44.792 1.034,44.259 C0.891,43.725 1.208,43.177 1.741,43.034 C2.275,42.891 2.823,43.208 2.966,43.741" id="Fill-483" fill="#F3D55B" sketch:type="MSShapeGroup"></path>
            <path d="M33.5,23.444 C30.986,23.444 29.507,21.854 29.049,19.971 C28.793,18.918 27.606,18.34 26.654,18.859 C24.541,20.009 23.086,22.214 23.004,24.77 C22.88,28.605 26.042,31.934 29.878,31.999 C33.8,32.066 37,28.906 37,25 C37,24.939 36.999,24.878 36.998,24.818 C36.969,23.745 35.912,22.964 34.88,23.259 C34.462,23.378 34.003,23.444 33.5,23.444" id="Fill-489" fill="#556080" sketch:type="MSShapeGroup"></path>
            <path d="M9.075,16.249 C9.434,18.376 11.271,20 13.5,20 C15.985,20 18,17.985 18,15.5 C18,13.373 16.52,11.601 14.536,11.131 C12.458,12.542 10.618,14.273 9.075,16.249" id="Fill-490" fill="#556080" sketch:type="MSShapeGroup"></path>
            <path d="M45.507,22.186 C44.018,22.916 42.223,22.303 41.493,20.814 M28,11 C28,12.658 26.658,14 25,14 M24,36 C24,37.658 22.658,39 21,39 M40.688,31.54 C42.22,32.175 42.946,33.928 42.312,35.46 M11.146,31 C12.678,31.634 13.405,33.387 12.771,34.92" id="Stroke-491" stroke="#556080" stroke-width="2" stroke-linecap="round" sketch:type="MSShapeGroup"></path>
        </g>
    </g>
</svg>