<?xml version="1.0" encoding="UTF-8" standalone="no"?>
<svg width="38px" height="57px" viewBox="0 0 38 57" version="1.1" xmlns="http://www.w3.org/2000/svg" xmlns:xlink="http://www.w3.org/1999/xlink" xmlns:sketch="http://www.bohemiancoding.com/sketch/ns">
    <!-- Generator: Sketch 3.2.2 (9983) - http://www.bohemiancoding.com/sketch -->
    <title>22 - S.E.T.I Dish (Flat)</title>
    <desc>Created with Sketch.</desc>
    <defs></defs>
    <g id="Page-1" stroke="none" stroke-width="1" fill="none" fill-rule="evenodd" sketch:type="MSPage">
        <g id="22---S.E.T.I-Dish-(Flat)" sketch:type="MSLayerGroup">
            <path d="M30,29.414 L7.586,7 L24.409,7 L23.759,10.592 L27.229,14.062 L30,13.354 L30,29.414 L30,29.414 Z M12.414,9 L28,24.586 L28,15.929 L26.62,16.281 L21.604,11.266 L22.015,9 L12.414,9 L12.414,9 Z" id="Fill-662" fill="#8697CB" sketch:type="MSShapeGroup"></path>
            <path d="M14.954,27 C14.954,29.761 12.715,32 9.954,32 C7.193,32 4.954,29.761 4.954,27 C4.954,24.239 7.193,22 9.954,22 C12.715,22 14.954,24.239 14.954,27 L14.954,27 Z" id="Fill-663" fill="#8697CB" sketch:type="MSShapeGroup"></path>
            <path d="M14.954,27 C14.954,29.761 12.715,32 9.954,32 C7.193,32 4.954,29.761 4.954,27 C4.954,24.239 7.193,22 9.954,22 C12.715,22 14.954,24.239 14.954,27 L14.954,27 Z" id="Stroke-664" stroke="#556080" stroke-width="2" stroke-linecap="round" sketch:type="MSShapeGroup"></path>
            <path d="M10,32 L10,41" id="Stroke-665" stroke="#556080" stroke-width="2" stroke-linecap="round" sketch:type="MSShapeGroup"></path>
            <path d="M4,0.586 L3.293,1.293 C0.333,4.254 -0.266,14.82 5.577,24 L6.246,25.05 L7.127,24.17 C7.884,23.416 8.888,23 9.954,23 C12.16,23 13.954,24.794 13.954,27 C13.954,28.129 13.482,29.178 12.626,29.954 L11.702,30.79 L12.718,31.51 C19.477,36.306 26.446,36.824 29.129,36.824 L29.13,36.824 C32.599,36.824 35.361,36.053 36.707,34.707 L37.414,34 L4,0.586" id="Fill-666" fill="#556080" sketch:type="MSShapeGroup"></path>
            <path d="M33.996,8.101 L32.581,13.757 L26.924,15.172 L22.682,10.929 L24.096,5.272 L29.753,3.858 L33.996,8.101" id="Fill-1213" fill="#F0C419" sketch:type="MSShapeGroup"></path>
            <path d="M7.024,42.902 L6,45 L14,45 L12.938,42.875 C11.717,40.43 8.223,40.446 7.024,42.902" id="Fill-1214" fill="#ECF0F1" sketch:type="MSShapeGroup"></path>
            <path d="M0,53 L20,53 L20,57 L0,57 L0,53 Z" id="Fill-1215" fill="#A5A5A4" sketch:type="MSShapeGroup"></path>
            <path d="M3,45 L17,45 L17,53 L3,53 L3,45 Z" id="Fill-1216" fill="#D1D4D1" sketch:type="MSShapeGroup"></path>
        </g>
    </g>
</svg>