<?xml version="1.0" encoding="UTF-8" standalone="no"?>
<svg width="58px" height="58px" viewBox="0 0 58 58" version="1.1" xmlns="http://www.w3.org/2000/svg" xmlns:xlink="http://www.w3.org/1999/xlink" xmlns:sketch="http://www.bohemiancoding.com/sketch/ns">
    <!-- Generator: Sketch 3.2.2 (9983) - http://www.bohemiancoding.com/sketch -->
    <title>43 - Saturn (Flat)</title>
    <desc>Created with Sketch.</desc>
    <defs></defs>
    <g id="Page-1" stroke="none" stroke-width="1" fill="none" fill-rule="evenodd" sketch:type="MSPage">
        <g id="43---Saturn-(Flat)" sketch:type="MSLayerGroup">
            <path d="M50,28.5 C50,39.822 40.822,49 29.5,49 C18.178,49 9,39.822 9,28.5 C9,17.178 18.178,8 29.5,8 C40.822,8 50,17.178 50,28.5" id="Fill-161" fill="#F9C38A" sketch:type="MSShapeGroup"></path>
            <path d="M41,25.5 C41,33.508 34.508,40 26.5,40 C18.492,40 12,33.508 12,25.5 C12,17.492 18.492,11 26.5,11 C34.508,11 41,17.492 41,25.5" id="Fill-162" fill="#FFD199" sketch:type="MSShapeGroup"></path>
            <path d="M31,21.5 C31,25.642 27.642,29 23.5,29 C19.358,29 16,25.642 16,21.5 C16,17.358 19.358,14 23.5,14 C27.642,14 31,17.358 31,21.5" id="Fill-163" fill="#FFD8AE" sketch:type="MSShapeGroup"></path>
            <path d="M12,8 L10.414,8 L8,5.586 L8,4 C8,3.448 7.553,3 7,3 C6.447,3 6,3.448 6,4 L6,5.586 L3.586,8 L2,8 C1.447,8 1,8.448 1,9 C1,9.552 1.447,10 2,10 L3.586,10 L6,12.414 L6,14 C6,14.552 6.447,15 7,15 C7.553,15 8,14.552 8,14 L8,12.414 L10.414,10 L12,10 C12.553,10 13,9.552 13,9 C13,8.448 12.553,8 12,8" id="Fill-323" fill="#F3D55B" sketch:type="MSShapeGroup"></path>
            <path d="M50.966,54.741 C51.109,55.275 50.792,55.823 50.259,55.966 C49.725,56.109 49.177,55.792 49.034,55.259 C48.891,54.725 49.208,54.177 49.741,54.034 C50.275,53.891 50.823,54.208 50.966,54.741" id="Fill-472" fill="#F3D55B" sketch:type="MSShapeGroup"></path>
            <path d="M55.966,34.741 C56.109,35.275 55.792,35.823 55.259,35.966 C54.725,36.109 54.177,35.792 54.034,35.259 C53.891,34.725 54.208,34.177 54.741,34.034 C55.275,33.891 55.823,34.208 55.966,34.741" id="Fill-473" fill="#F3D55B" sketch:type="MSShapeGroup"></path>
            <path d="M5.966,23.741 C6.109,24.275 5.792,24.823 5.259,24.966 C4.725,25.109 4.177,24.792 4.034,24.259 C3.891,23.725 4.208,23.177 4.741,23.034 C5.275,22.891 5.823,23.208 5.966,23.741" id="Fill-474" fill="#F3D55B" sketch:type="MSShapeGroup"></path>
            <path d="M24.966,24.741 C25.109,25.275 24.792,25.823 24.259,25.966 C23.725,26.109 23.177,25.792 23.034,25.259 C22.891,24.725 23.208,24.177 23.741,24.034 C24.275,23.891 24.823,24.208 24.966,24.741" id="Fill-475" fill="#F3D55B" sketch:type="MSShapeGroup"></path>
            <path d="M31.966,55.741 C32.109,56.274 31.792,56.823 31.259,56.966 C30.726,57.109 30.177,56.792 30.034,56.259 C29.891,55.725 30.208,55.177 30.741,55.034 C31.275,54.891 31.823,55.207 31.966,55.741" id="Fill-476" fill="#F3D55B" sketch:type="MSShapeGroup"></path>
            <path d="M34.965,9.313 C34.965,9.313 34.96,9.317 34.961,9.318 C35.031,9.344 34.965,9.313 34.965,9.313" id="Fill-487" fill="#F9EBB0" sketch:type="MSShapeGroup"></path>
            <path id="Fill-488" fill="#F9EBB0" sketch:type="MSShapeGroup"></path>
            <path d="M57.395,0.605 C56.115,-0.674 49.495,3.704 40.64,11.318 C41.219,11.695 41.773,12.106 42.31,12.538 C48.229,7.495 52.495,4.478 54.688,3.312 C52.664,7.121 45.088,17.155 30.929,31.314 C16.771,45.472 6.737,53.048 2.928,55.072 C4.19,52.697 7.612,47.901 13.44,41.196 C13.014,40.658 12.608,40.103 12.236,39.524 C3.826,49.125 -1.13,56.428 0.221,57.779 C2.173,59.732 16.555,48.516 32.343,32.728 C48.131,16.94 59.347,2.558 57.395,0.605" id="Fill-1074" fill="#F9EBB0" sketch:type="MSShapeGroup"></path>
        </g>
    </g>
</svg>