<?xml version="1.0" encoding="UTF-8" standalone="no"?>
<svg width="60px" height="60px" viewBox="0 0 60 60" version="1.1" xmlns="http://www.w3.org/2000/svg" xmlns:xlink="http://www.w3.org/1999/xlink" xmlns:sketch="http://www.bohemiancoding.com/sketch/ns">
    <!-- Generator: Sketch 3.2.2 (9983) - http://www.bohemiancoding.com/sketch -->
    <title>27 - Solar System (Flat)</title>
    <desc>Created with Sketch.</desc>
    <defs></defs>
    <g id="Page-1" stroke="none" stroke-width="1" fill="none" fill-rule="evenodd" sketch:type="MSPage">
        <g id="27---Solar-System-(Flat)" sketch:type="MSLayerGroup">
            <path d="M30,50 C41.028,50 50,41.028 50,30 C50,18.972 41.028,10 30,10 C26.407,10 22.864,10.984 19.754,12.846 C19.28,13.129 19.126,13.743 19.41,14.217 C19.694,14.691 20.307,14.846 20.781,14.562 C23.581,12.886 26.769,12 30,12 C39.925,12 48,20.075 48,30 C48,39.925 39.925,48 30,48 C20.075,48 12,39.925 12,30 C12,26.281 13.137,22.703 15.288,19.651 C15.606,19.2 15.498,18.576 15.047,18.258 C14.594,17.94 13.971,18.047 13.653,18.499 C11.263,21.889 10,25.866 10,30 C10,41.028 18.972,50 30,50" id="Fill-96" fill="#E6E6E6" sketch:type="MSShapeGroup"></path>
            <path d="M54.712,12.997 C54.398,12.541 53.775,12.426 53.322,12.741 C52.867,13.054 52.752,13.677 53.066,14.131 C56.294,18.814 58,24.301 58,30 C58,45.44 45.439,58 30,58 C23.601,58 17.574,55.892 12.569,51.904 C12.138,51.56 11.509,51.631 11.164,52.063 C10.819,52.495 10.891,53.124 11.323,53.468 C16.685,57.741 23.144,60 30,60 C46.542,60 60,46.542 60,30 C60,23.894 58.171,18.014 54.712,12.997" id="Fill-97" fill="#E6E6E6" sketch:type="MSShapeGroup"></path>
            <path d="M2,30 C2,14.561 14.56,2 30,2 C35.216,2 40.309,3.448 44.728,6.188 C45.196,6.478 45.813,6.333 46.105,5.865 C46.396,5.396 46.251,4.779 45.782,4.488 C41.045,1.552 35.588,0 30,0 C13.458,0 0,13.458 0,30 C0,36.328 1.954,42.385 5.651,47.516 C5.847,47.787 6.153,47.931 6.464,47.931 C6.666,47.931 6.871,47.87 7.047,47.743 C7.496,47.419 7.597,46.794 7.274,46.347 C3.824,41.559 2,35.906 2,30" id="Fill-98" fill="#E6E6E6" sketch:type="MSShapeGroup"></path>
            <path d="M39,30 C39,34.971 34.971,39 30,39 C25.029,39 21,34.971 21,30 C21,25.029 25.029,21 30,21 C34.971,21 39,25.029 39,30" id="Fill-350" fill="#F0C419" sketch:type="MSShapeGroup"></path>
            <path d="M56,9 C56,12.314 53.314,15 50,15 C46.686,15 44,12.314 44,9 C44,5.686 46.686,3 50,3 C53.314,3 56,5.686 56,9" id="Fill-351" fill="#4482C3" sketch:type="MSShapeGroup"></path>
            <path d="M21,16 C21,18.209 19.209,20 17,20 C14.791,20 13,18.209 13,16 C13,13.791 14.791,12 17,12 C19.209,12 21,13.791 21,16" id="Fill-352" fill="#F0785A" sketch:type="MSShapeGroup"></path>
            <path d="M13,50 C13,52.209 11.209,54 9,54 C6.791,54 5,52.209 5,50 C5,47.791 6.791,46 9,46 C11.209,46 13,47.791 13,50" id="Fill-353" fill="#AF8066" sketch:type="MSShapeGroup"></path>
            <path d="M36,36 C36,36.552 35.552,37 35,37 C34.448,37 34,36.552 34,36 C34,35.448 34.448,35 35,35 C35.552,35 36,35.448 36,36" id="Fill-540" fill="#E57E25" sketch:type="MSShapeGroup"></path>
            <path d="M38,34 C38,34.552 37.552,35 37,35 C36.448,35 36,34.552 36,34 C36,33.448 36.448,33 37,33 C37.552,33 38,33.448 38,34" id="Fill-541" fill="#E57E25" sketch:type="MSShapeGroup"></path>
            <path d="M34,34 C34,34.552 33.552,35 33,35 C32.448,35 32,34.552 32,34 C32,33.448 32.448,33 33,33 C33.552,33 34,33.448 34,34" id="Fill-542" fill="#E57E25" sketch:type="MSShapeGroup"></path>
            <path d="M36,32 C36,32.552 35.552,33 35,33 C34.448,33 34,32.552 34,32 C34,31.448 34.448,31 35,31 C35.552,31 36,31.448 36,32" id="Fill-543" fill="#E57E25" sketch:type="MSShapeGroup"></path>
            <path d="M38,30 C38,30.552 37.552,31 37,31 C36.448,31 36,30.552 36,30 C36,29.448 36.448,29 37,29 C37.552,29 38,29.448 38,30" id="Fill-544" fill="#E57E25" sketch:type="MSShapeGroup"></path>
            <path d="M56,56 C56,56.552 55.552,57 55,57 C54.448,57 54,56.552 54,56 C54,55.448 54.448,55 55,55 C55.552,55 56,55.448 56,56" id="Fill-545" fill="#F3D55B" sketch:type="MSShapeGroup"></path>
            <path d="M59,50 C59,50.552 58.552,51 58,51 C57.448,51 57,50.552 57,50 C57,49.448 57.448,49 58,49 C58.552,49 59,49.448 59,50" id="Fill-546" fill="#F3D55B" sketch:type="MSShapeGroup"></path>
            <path d="M6,9 C6,9.552 5.552,10 5,10 C4.448,10 4,9.552 4,9 C4,8.448 4.448,8 5,8 C5.552,8 6,8.448 6,9" id="Fill-547" fill="#F3D55B" sketch:type="MSShapeGroup"></path>
            <path d="M5,2 C5,2.552 4.552,3 4,3 C3.448,3 3,2.552 3,2 C3,1.448 3.448,1 4,1 C4.552,1 5,1.448 5,2" id="Fill-548" fill="#F3D55B" sketch:type="MSShapeGroup"></path>
            <path d="M13,2 C13,2.552 12.552,3 12,3 C11.448,3 11,2.552 11,2 C11,1.448 11.448,1 12,1 C12.552,1 13,1.448 13,2" id="Fill-549" fill="#F3D55B" sketch:type="MSShapeGroup"></path>
            <path d="M3,57 C3,57.552 2.552,58 2,58 C1.448,58 1,57.552 1,57 C1,56.448 1.448,56 2,56 C2.552,56 3,56.448 3,57" id="Fill-550" fill="#F3D55B" sketch:type="MSShapeGroup"></path>
            <path d="M46,1 C46,1.552 45.552,2 45,2 C44.448,2 44,1.552 44,1 C44,0.448 44.448,0 45,0 C45.552,0 46,0.448 46,1" id="Fill-551" fill="#F3D55B" sketch:type="MSShapeGroup"></path>
            <path d="M33,6 C33,6.552 32.552,7 32,7 C31.448,7 31,6.552 31,6 C31,5.448 31.448,5 32,5 C32.552,5 33,5.448 33,6" id="Fill-552" fill="#F3D55B" sketch:type="MSShapeGroup"></path>
            <path d="M54,41 C54,41.552 53.552,42 53,42 C52.448,42 52,41.552 52,41 C52,40.448 52.448,40 53,40 C53.552,40 54,40.448 54,41" id="Fill-553" fill="#F3D55B" sketch:type="MSShapeGroup"></path>
            <path d="M7,29 C7,29.552 6.552,30 6,30 C5.448,30 5,29.552 5,29 C5,28.448 5.448,28 6,28 C6.552,28 7,28.448 7,29" id="Fill-554" fill="#F3D55B" sketch:type="MSShapeGroup"></path>
            <path d="M32,36 C32,36.552 31.552,37 31,37 C30.448,37 30,36.552 30,36 C30,35.448 30.448,35 31,35 C31.552,35 32,35.448 32,36" id="Fill-555" fill="#E57E25" sketch:type="MSShapeGroup"></path>
            <path d="M34,30 C34,30.552 33.552,31 33,31 C32.448,31 32,30.552 32,30 C32,29.448 32.448,29 33,29 C33.552,29 34,29.448 34,30" id="Fill-556" fill="#E57E25" sketch:type="MSShapeGroup"></path>
        </g>
    </g>
</svg>