<?xml version="1.0" encoding="UTF-8" standalone="no"?>
<svg width="59px" height="59px" viewBox="0 0 59 59" version="1.1" xmlns="http://www.w3.org/2000/svg" xmlns:xlink="http://www.w3.org/1999/xlink" xmlns:sketch="http://www.bohemiancoding.com/sketch/ns">
    <!-- Generator: Sketch 3.2.2 (9983) - http://www.bohemiancoding.com/sketch -->
    <title>48 - Spaceship Launch Pad (Flat)</title>
    <desc>Created with Sketch.</desc>
    <defs></defs>
    <g id="Page-1" stroke="none" stroke-width="1" fill="none" fill-rule="evenodd" sketch:type="MSPage">
        <g id="48---Spaceship-Launch-Pad-(Flat)" sketch:type="MSLayerGroup">
            <path d="M35,35 L45,45 L45,16 L35,16 L35,35" id="Fill-130" fill="#ECF0F1" sketch:type="MSShapeGroup"></path>
            <path d="M40,7 C37.431,8.541 35.708,11.11 35.184,14 L44.816,14 C44.292,11.11 42.569,8.541 40,7" id="Fill-131" fill="#ECF0F1" sketch:type="MSShapeGroup"></path>
            <path d="M10,7 C7.431,8.541 5.708,11.11 5.184,14 L14.816,14 C14.292,11.11 12.569,8.541 10,7" id="Fill-132" fill="#ECF0F1" sketch:type="MSShapeGroup"></path>
            <path d="M5,45 L15,35 L15,16 L5,16 L5,45" id="Fill-133" fill="#ECF0F1" sketch:type="MSShapeGroup"></path>
            <path d="M35.184,14 C35.076,14.6 35,15.209 35,15.831 L35,16 L45,16 L45,15.831 C45,15.209 44.924,14.6 44.816,14 L35.184,14" id="Fill-134" fill="#D1D4D1" sketch:type="MSShapeGroup"></path>
            <path d="M5.184,14 C5.076,14.6 5,15.209 5,15.831 L5,16 L15,16 L15,15.831 C15,15.209 14.924,14.6 14.816,14 L5.184,14" id="Fill-135" fill="#D1D4D1" sketch:type="MSShapeGroup"></path>
            <path d="M45,17 L51,17 M45,36 L51,36" id="Stroke-136" stroke="#BDC3C7" stroke-width="2" sketch:type="MSShapeGroup"></path>
            <path d="M32,48.961 L30,43.961 L30,30 L35,35 L35,17.662 C35,10.586 31.369,4.018 25.406,0.25 C25.161,0.095 24.839,0.095 24.594,0.25 C18.631,4.018 15,10.586 15,17.662 L15,35 L20,30 L20,43.961 L18,48.961 L18,52 L32,52 L32,48.961" id="Fill-233" fill="#F18D46" sketch:type="MSShapeGroup"></path>
            <path d="M46,58 L34,58 C33.681,58 33.499,57.636 33.69,57.381 L35,52 L45,52 L46.31,57.381 C46.501,57.636 46.319,58 46,58" id="Fill-419" fill="#38454F" sketch:type="MSShapeGroup"></path>
            <path d="M16,58 L4,58 C3.681,58 3.499,57.636 3.69,57.381 L5,52 L15,52 L16.31,57.381 C16.501,57.636 16.319,58 16,58" id="Fill-420" fill="#38454F" sketch:type="MSShapeGroup"></path>
            <path d="M30,43.961 L30,17.961 C30,14.842 28.761,11.85 26.555,9.644 C25.696,8.785 24.304,8.785 23.445,9.644 C21.239,11.85 20,14.842 20,17.961 L20,43.961 L18,48.961 L18,52 L32,52 L32,48.961 L30,43.961" id="Fill-421" fill="#ECF0F1" sketch:type="MSShapeGroup"></path>
            <path d="M32,52 L50,52 L50,50 L30,30 L30,43.961 L32,48.961 L32,52" id="Fill-422" fill="#D1D4D1" sketch:type="MSShapeGroup"></path>
            <path d="M18,51.961 L18,48.961 L20,43.961 L20,30 L0,50 L0,52 L18,52 L18,51.961" id="Fill-423" fill="#D1D4D1" sketch:type="MSShapeGroup"></path>
            <path d="M51,7 L58,7 L58,58 L51,58 L51,7 Z M58,15 L51,22 L58,15 Z M51,22 L58,29 L51,22 Z M58,29 L51,36 L58,29 Z M51,36 L58,43 L51,36 Z M58,42 L51,49 L58,42 Z M51,49 L58,56 L51,49 Z M58,15 L51,8 L58,15 Z M52,1 L57,1 L57,7 L52,7 L52,1 Z" id="Stroke-424" stroke="#BDC3C7" stroke-width="2" sketch:type="MSShapeGroup"></path>
            <path d="M2,48 L0,50 L0,52 L18,52 L18,48.961 L18.384,48 L2,48" id="Fill-425" fill="#546A79" sketch:type="MSShapeGroup"></path>
            <path d="M32,48.961 L32,52 L50,52 L50,50 L48,48 L31.615,48 L32,48.961" id="Fill-426" fill="#546A79" sketch:type="MSShapeGroup"></path>
            <path d="M27,19 L23,19 L23,17 C23,15.895 23.895,15 25,15 C26.105,15 27,15.895 27,17 L27,19" id="Fill-427" fill="#38454F" sketch:type="MSShapeGroup"></path>
            <path d="M23,42 L23,45 M27,42 L27,45" id="Stroke-428" stroke="#38454F" stroke-width="2" sketch:type="MSShapeGroup"></path>
            <path d="M30,55 L20,55 L21,52 L29,52 L30,55" id="Fill-429" fill="#38454F" sketch:type="MSShapeGroup"></path>
            <path d="M25,51.961 L25,47.961" id="Stroke-1101" stroke="#38454F" stroke-width="2" sketch:type="MSShapeGroup"></path>
        </g>
    </g>
</svg>