<?xml version="1.0" encoding="UTF-8" standalone="no"?>
<svg width="54px" height="58px" viewBox="0 0 54 58" version="1.1" xmlns="http://www.w3.org/2000/svg" xmlns:xlink="http://www.w3.org/1999/xlink" xmlns:sketch="http://www.bohemiancoding.com/sketch/ns">
    <!-- Generator: Sketch 3.2.2 (9983) - http://www.bohemiancoding.com/sketch -->
    <title>47 - Spaceship (Flat)</title>
    <desc>Created with Sketch.</desc>
    <defs></defs>
    <g id="Page-1" stroke="none" stroke-width="1" fill="none" fill-rule="evenodd" sketch:type="MSPage">
        <g id="47---Spaceship-(Flat)" sketch:type="MSLayerGroup">
            <path d="M35,48 L35,39 C35,38.448 35.448,38 36,38 C36.552,38 37,38.448 37,39 L37,41 L49.881,41 C48.817,36.701 43.568,32.885 39.954,30.368 C38.443,29.316 37.828,27.644 37,26 C35.439,22.901 33.803,18.521 33.231,15.086 L32.7,12.019 C32.644,12.028 32.589,12.042 32.533,12.042 C32.204,12.042 31.882,11.881 31.691,11.583 C30.634,9.942 29.083,9 27.436,9 C25.833,9 24.31,9.896 23.259,11.458 C23.032,11.794 22.636,11.945 22.26,11.881 L21.706,15.086 C21.133,18.521 19.561,22.901 18,26 C17.172,27.644 16.493,29.316 14.982,30.368 C11.368,32.885 6.178,36.701 5.118,41 L18,41 L18,39 C18,38.448 18.448,38 19,38 C19.552,38 20,38.448 20,39 L20,48 C20,48.478 19.657,48.859 19.209,48.958 C19.267,48.984 19.33,49 19.397,49 L21.406,49 C21.597,49 21.768,49.118 21.837,49.296 L22.759,51.704 C22.827,51.882 22.998,52 23.189,52 L31.747,52 C31.938,52 32.109,51.882 32.177,51.704 L33.099,49.296 C33.168,49.118 33.339,49 33.53,49 L35.539,49 C35.613,49 35.68,48.979 35.742,48.948 C35.318,48.832 35,48.461 35,48" id="Fill-125" fill="#38454F" sketch:type="MSShapeGroup"></path>
            <path d="M37,46.008 C37.009,46.006 37.017,46.001 37.026,46 L49.519,44.996 C49.791,44.974 50,44.747 50,44.475 L50,43 L37,43 L37,46.008" id="Fill-126" fill="#38454F" sketch:type="MSShapeGroup"></path>
            <path d="M5,43 L5,44.475 C5,44.748 5.209,44.974 5.481,44.996 L17.911,45.999 C17.943,46.003 17.969,46.02 18,46.026 L18,43 L5,43" id="Fill-127" fill="#38454F" sketch:type="MSShapeGroup"></path>
            <path d="M20,48 L20,39 C20,38.448 19.552,38 19,38 C18.448,38 18,38.448 18,39 L18,41 L5.118,41 C5.076,41.17 5.029,41.339 5,41.511 L5,43 L18,43 L18,46.026 C18.535,46.127 18.936,46.583 18.936,47.137 L18.936,48.539 C18.936,48.726 19.049,48.886 19.209,48.958 C19.657,48.859 20,48.478 20,48" id="Fill-128" fill="#546A79" sketch:type="MSShapeGroup"></path>
            <path d="M49.881,41 L37,41 L37,39 C37,38.448 36.552,38 36,38 C35.448,38 35,38.448 35,39 L35,48 C35,48.461 35.318,48.832 35.742,48.948 C35.893,48.872 36,48.72 36,48.539 L36,47.138 C36,46.561 36.431,46.081 37,46.008 L37,43 L50,43 L50,41.511 C49.971,41.339 49.923,41.17 49.881,41" id="Fill-129" fill="#546A79" sketch:type="MSShapeGroup"></path>
            <path d="M53,5 L51.414,5 L49,2.586 L49,1 C49,0.448 48.552,0 48,0 C47.448,0 47,0.448 47,1 L47,2.586 L44.586,5 L43,5 C42.448,5 42,5.448 42,6 C42,6.552 42.448,7 43,7 L44.586,7 L47,9.414 L47,11 C47,11.552 47.448,12 48,12 C48.552,12 49,11.552 49,11 L49,9.414 L51.414,7 L53,7 C53.552,7 54,6.552 54,6 C54,5.448 53.552,5 53,5" id="Fill-374" fill="#F3D55B" sketch:type="MSShapeGroup"></path>
            <path d="M43,9.5 C42.173,9.5 41.5,10.173 41.5,11 C41.5,11.827 42.173,12.5 43,12.5 C43.827,12.5 44.5,11.827 44.5,11 C44.5,10.173 43.827,9.5 43,9.5" id="Fill-375" fill="#F3D55B" sketch:type="MSShapeGroup"></path>
            <path d="M2,30.5 C1.173,30.5 0.5,31.173 0.5,32 C0.5,32.827 1.173,33.5 2,33.5 C2.827,33.5 3.5,32.827 3.5,32 C3.5,31.173 2.827,30.5 2,30.5" id="Fill-376" fill="#F3D55B" sketch:type="MSShapeGroup"></path>
            <path d="M3,5.5 C2.173,5.5 1.5,6.173 1.5,7 C1.5,7.827 2.173,8.5 3,8.5 C3.827,8.5 4.5,7.827 4.5,7 C4.5,6.173 3.827,5.5 3,5.5" id="Fill-377" fill="#F3D55B" sketch:type="MSShapeGroup"></path>
            <path d="M14,14.5 C13.173,14.5 12.5,15.173 12.5,16 C12.5,16.827 13.173,17.5 14,17.5 C14.827,17.5 15.5,16.827 15.5,16 C15.5,15.173 14.827,14.5 14,14.5" id="Fill-378" fill="#F3D55B" sketch:type="MSShapeGroup"></path>
            <path d="M51,28.5 C50.173,28.5 49.5,29.173 49.5,30 C49.5,30.827 50.173,31.5 51,31.5 C51.827,31.5 52.5,30.827 52.5,30 C52.5,29.173 51.827,28.5 51,28.5" id="Fill-379" fill="#F3D55B" sketch:type="MSShapeGroup"></path>
            <path d="M10,51.5 C9.173,51.5 8.5,52.173 8.5,53 C8.5,53.827 9.173,54.5 10,54.5 C10.827,54.5 11.5,53.827 11.5,53 C11.5,52.173 10.827,51.5 10,51.5" id="Fill-380" fill="#F3D55B" sketch:type="MSShapeGroup"></path>
            <path d="M49,52.5 C48.173,52.5 47.5,53.173 47.5,54 C47.5,54.827 48.173,55.5 49,55.5 C49.827,55.5 50.5,54.827 50.5,54 C50.5,53.173 49.827,52.5 49,52.5" id="Fill-381" fill="#F3D55B" sketch:type="MSShapeGroup"></path>
            <path d="M22.936,54 C22.384,54 21.936,54.448 21.936,55 L21.936,56 C21.936,56.552 22.384,57 22.936,57 C23.488,57 23.936,56.552 23.936,56 L23.936,55 C23.936,54.448 23.488,54 22.936,54" id="Fill-430" fill="#E57E25" sketch:type="MSShapeGroup"></path>
            <path d="M25.936,54 C25.384,54 24.936,54.448 24.936,55 L24.936,57 C24.936,57.552 25.384,58 25.936,58 C26.488,58 26.936,57.552 26.936,57 L26.936,55 C26.936,54.448 26.488,54 25.936,54" id="Fill-431" fill="#E57E25" sketch:type="MSShapeGroup"></path>
            <path d="M28.936,54 C28.384,54 27.936,54.448 27.936,55 L27.936,57 C27.936,57.552 28.384,58 28.936,58 C29.488,58 29.936,57.552 29.936,57 L29.936,55 C29.936,54.448 29.488,54 28.936,54" id="Fill-432" fill="#E57E25" sketch:type="MSShapeGroup"></path>
            <path d="M31.936,54 C31.384,54 30.936,54.448 30.936,55 L30.936,56 C30.936,56.552 31.384,57 31.936,57 C32.488,57 32.936,56.552 32.936,56 L32.936,55 C32.936,54.448 32.488,54 31.936,54" id="Fill-433" fill="#E57E25" sketch:type="MSShapeGroup"></path>
            <path d="M27.436,7 C29.198,7 30.859,7.724 32.184,9.031 L31.716,6.327 C31.284,3.737 30.191,2.565 28.555,0.536 C27.997,-0.155 26.939,-0.155 26.382,0.536 C24.745,2.565 23.652,3.737 23.22,6.327 L22.766,8.953 C24.079,7.697 25.713,7 27.436,7" id="Fill-434" fill="#38454F" sketch:type="MSShapeGroup"></path>
            <path d="M27.436,9 C29.083,9 30.634,9.942 31.691,11.583 C31.882,11.881 32.204,12.042 32.533,12.042 C32.589,12.042 32.644,12.028 32.7,12.019 L32.184,9.031 C30.859,7.724 29.198,7 27.436,7 C25.713,7 24.079,7.697 22.766,8.953 L22.26,11.881 C22.636,11.945 23.032,11.794 23.259,11.458 C24.31,9.896 25.833,9 27.436,9" id="Fill-435" fill="#8697CB" sketch:type="MSShapeGroup"></path>
            <path d="M32,40 L23,40 C22.448,40 22,40.448 22,41 C22,41.552 22.448,42 23,42 L32,42 C32.552,42 33,41.552 33,41 C33,40.448 32.552,40 32,40" id="Fill-436" fill="#546A79" sketch:type="MSShapeGroup"></path>
            <path d="M32,35 L23,35 C22.448,35 22,35.448 22,36 C22,36.552 22.448,37 23,37 L32,37 C32.552,37 33,36.552 33,36 C33,35.448 32.552,35 32,35" id="Fill-437" fill="#546A79" sketch:type="MSShapeGroup"></path>
            <path d="M23,32 L32,32 C32.552,32 33,31.552 33,31 C33,30.448 32.552,30 32,30 L23,30 C22.448,30 22,30.448 22,31 C22,31.552 22.448,32 23,32" id="Fill-438" fill="#546A79" sketch:type="MSShapeGroup"></path>
            <path d="M31,44 L24,44 C23.448,44 23,44.448 23,45 L23,47 C23,47.552 23.448,48 24,48 C24.552,48 25,47.552 25,47 L25,46 L30,46 L30,47 C30,47.552 30.448,48 31,48 C31.552,48 32,47.552 32,47 L32,45 C32,44.448 31.552,44 31,44" id="Fill-439" fill="#546A79" sketch:type="MSShapeGroup"></path>
            <path d="M39.954,30.368 C38.443,29.316 37.828,27.644 37,26 C35.44,22.903 33.806,18.528 33.232,15.094 C32.535,21.77 32.512,36.935 46.679,37 C47.043,37.002 47.38,36.99 47.705,36.972 C45.562,34.348 42.388,32.063 39.954,30.368" id="Fill-1102" fill="#546A79" sketch:type="MSShapeGroup"></path>
            <path d="M21.743,14.87 L21.706,15.086 C21.133,18.521 19.561,22.901 18,26 C17.172,27.644 16.493,29.316 14.982,30.368 C12.549,32.062 9.402,34.347 7.278,36.97 C7.608,36.989 7.95,37.002 8.321,37 C22.653,36.934 22.462,21.419 21.743,14.87" id="Fill-1103" fill="#546A79" sketch:type="MSShapeGroup"></path>
        </g>
    </g>
</svg>