<?xml version="1.0" encoding="UTF-8" standalone="no"?>
<svg width="59px" height="60px" viewBox="0 0 59 60" version="1.1" xmlns="http://www.w3.org/2000/svg" xmlns:xlink="http://www.w3.org/1999/xlink" xmlns:sketch="http://www.bohemiancoding.com/sketch/ns">
    <!-- Generator: Sketch 3.2.2 (9983) - http://www.bohemiancoding.com/sketch -->
    <title>38 - Sputnik (Flat)</title>
    <desc>Created with Sketch.</desc>
    <defs></defs>
    <g id="Page-1" stroke="none" stroke-width="1" fill="none" fill-rule="evenodd" sketch:type="MSPage">
        <g id="38---Sputnik-(Flat)" sketch:type="MSLayerGroup">
            <path d="M58,60 C57.91,60 57.818,59.988 57.727,59.962 L20.727,49.45 C20.195,49.299 19.887,48.746 20.038,48.214 C20.189,47.683 20.74,47.376 21.273,47.526 L58.273,58.038 C58.805,58.189 59.113,58.742 58.962,59.273 C58.837,59.713 58.436,60 58,60" id="Fill-196" fill="#D1D4D1" sketch:type="MSShapeGroup"></path>
            <path d="M33.749,30.085 C33.248,30.085 32.816,29.709 32.757,29.199 C32.695,28.65 33.089,28.155 33.637,28.092 L51.886,26.006 C52.429,25.943 52.93,26.338 52.994,26.886 C53.056,27.435 52.662,27.931 52.114,27.994 L33.865,30.079 C33.826,30.083 33.788,30.085 33.749,30.085" id="Fill-197" fill="#D1D4D1" sketch:type="MSShapeGroup"></path>
            <path d="M58.001,43 C57.939,43 57.877,42.995 57.815,42.983 L32.94,38.294 C32.397,38.191 32.04,37.668 32.142,37.125 C32.245,36.583 32.768,36.227 33.31,36.328 L58.185,41.017 C58.728,41.12 59.085,41.643 58.983,42.185 C58.892,42.666 58.473,43 58.001,43" id="Fill-198" fill="#D1D4D1" sketch:type="MSShapeGroup"></path>
            <path d="M26.999,19.273 C26.541,19.273 26.128,18.957 26.024,18.492 C25.903,17.953 26.243,17.418 26.781,17.297 L54.781,11.024 C55.321,10.902 55.855,11.242 55.976,11.781 C56.097,12.32 55.757,12.855 55.219,12.976 L27.219,19.249 C27.145,19.265 27.071,19.273 26.999,19.273" id="Fill-199" fill="#D1D4D1" sketch:type="MSShapeGroup"></path>
            <path d="M36,5 L34.414,5 L32,2.586 L32,1 C32,0.448 31.552,0 31,0 C30.448,0 30,0.448 30,1 L30,2.586 L27.586,5 L26,5 C25.448,5 25,5.448 25,6 C25,6.552 25.448,7 26,7 L27.586,7 L30,9.414 L30,11 C30,11.552 30.448,12 31,12 C31.552,12 32,11.552 32,11 L32,9.414 L34.414,7 L36,7 C36.552,7 37,6.552 37,6 C37,5.448 36.552,5 36,5" id="Fill-322" fill="#F3D55B" sketch:type="MSShapeGroup"></path>
            <path d="M34,32 C34,41.389 26.389,49 17,49 C7.611,49 0,41.389 0,32 C0,22.611 7.611,15 17,15 C26.389,15 34,22.611 34,32" id="Fill-507" fill="#546A79" sketch:type="MSShapeGroup"></path>
            <path d="M17,15 C7.671,15 0.106,22.516 0.009,31.821 C5.551,32.579 11.626,33 18,33 C23.617,33 29.003,32.674 33.996,32.078 C33.996,32.052 34,32.026 34,32 C34,22.611 26.389,15 17,15" id="Fill-508" fill="#38454F" sketch:type="MSShapeGroup"></path>
            <path d="M8,25 C8,25.552 7.552,26 7,26 C6.448,26 6,25.552 6,25 C6,24.448 6.448,24 7,24 C7.552,24 8,24.448 8,25" id="Fill-557" fill="#546A79" sketch:type="MSShapeGroup"></path>
            <path d="M9,29 C9,29.552 8.552,30 8,30 C7.448,30 7,29.552 7,29 C7,28.448 7.448,28 8,28 C8.552,28 9,28.448 9,29" id="Fill-558" fill="#546A79" sketch:type="MSShapeGroup"></path>
            <path d="M12,26 C12,26.552 11.552,27 11,27 C10.448,27 10,26.552 10,26 C10,25.448 10.448,25 11,25 C11.552,25 12,25.448 12,26" id="Fill-559" fill="#546A79" sketch:type="MSShapeGroup"></path>
            <path d="M5,28 C5,28.552 4.552,29 4,29 C3.448,29 3,28.552 3,28 C3,27.448 3.448,27 4,27 C4.552,27 5,27.448 5,28" id="Fill-560" fill="#546A79" sketch:type="MSShapeGroup"></path>
            <path d="M11,21 C11,21.552 10.552,22 10,22 C9.448,22 9,21.552 9,21 C9,20.448 9.448,20 10,20 C10.552,20 11,20.448 11,21" id="Fill-561" fill="#546A79" sketch:type="MSShapeGroup"></path>
        </g>
    </g>
</svg>