<?xml version="1.0" encoding="UTF-8" standalone="no"?>
<svg width="60px" height="60px" viewBox="0 0 60 60" version="1.1" xmlns="http://www.w3.org/2000/svg" xmlns:xlink="http://www.w3.org/1999/xlink" xmlns:sketch="http://www.bohemiancoding.com/sketch/ns">
    <!-- Generator: Sketch 3.2.2 (9983) - http://www.bohemiancoding.com/sketch -->
    <title>35 - Sun (Flat)</title>
    <desc>Created with Sketch.</desc>
    <defs></defs>
    <g id="Page-1" stroke="none" stroke-width="1" fill="none" fill-rule="evenodd" sketch:type="MSPage">
        <g id="35---Sun-(Flat)" sketch:type="MSLayerGroup">
            <path d="M52.1,30 C52.1,42.206 42.206,52.101 30,52.101 C17.794,52.101 7.899,42.206 7.899,30 C7.899,17.794 17.794,7.9 30,7.9 C42.206,7.9 52.1,17.794 52.1,30" id="Fill-148" fill="#F3D55B" sketch:type="MSShapeGroup"></path>
            <path d="M47.1,30 C47.1,39.444 39.444,47.101 30,47.101 C20.556,47.101 12.899,39.444 12.899,30 C12.899,20.556 20.556,12.9 30,12.9 C39.444,12.9 47.1,20.556 47.1,30" id="Fill-149" fill="#F0C419" sketch:type="MSShapeGroup"></path>
            <path d="M40,30 C40,35.523 35.523,40 30,40 C24.477,40 20,35.523 20,30 C20,24.477 24.477,20 30,20 C35.523,20 40,24.477 40,30" id="Fill-240" fill="#EDA71B" sketch:type="MSShapeGroup"></path>
            <path d="M30,8 C29.447,8 29,8.448 29,9 L29,11 C29,11.552 29.447,12 30,12 C30.553,12 31,11.552 31,11 L31,9 C31,8.448 30.553,8 30,8" id="Fill-241" fill="#F0C419" sketch:type="MSShapeGroup"></path>
            <path d="M30,48 C29.447,48 29,48.448 29,49 L29,51 C29,51.552 29.447,52 30,52 C30.553,52 31,51.552 31,51 L31,49 C31,48.448 30.553,48 30,48" id="Fill-242" fill="#F0C419" sketch:type="MSShapeGroup"></path>
            <path d="M51,29 L49,29 C48.447,29 48,29.448 48,30 C48,30.552 48.447,31 49,31 L51,31 C51.553,31 52,30.552 52,30 C52,29.448 51.553,29 51,29" id="Fill-243" fill="#F0C419" sketch:type="MSShapeGroup"></path>
            <path d="M12,30 C12,29.448 11.553,29 11,29 L9,29 C8.447,29 8,29.448 8,30 C8,30.552 8.447,31 9,31 L11,31 C11.553,31 12,30.552 12,30" id="Fill-244" fill="#F0C419" sketch:type="MSShapeGroup"></path>
            <path d="M44.143,14.443 L42.727,15.857 C42.337,16.248 42.337,16.881 42.727,17.272 C42.923,17.467 43.179,17.565 43.435,17.565 C43.69,17.565 43.946,17.467 44.142,17.273 L45.557,15.858 C45.947,15.468 45.947,14.835 45.557,14.444 C45.166,14.053 44.533,14.054 44.143,14.443" id="Fill-245" fill="#F0C419" sketch:type="MSShapeGroup"></path>
            <path d="M15.858,42.728 L14.443,44.142 C14.053,44.532 14.053,45.165 14.443,45.556 C14.639,45.751 14.894,45.849 15.15,45.849 C15.406,45.849 15.662,45.751 15.857,45.557 L17.272,44.143 C17.663,43.752 17.663,43.119 17.272,42.728 C16.882,42.337 16.249,42.338 15.858,42.728" id="Fill-246" fill="#F0C419" sketch:type="MSShapeGroup"></path>
            <path d="M44.142,42.728 C43.751,42.338 43.118,42.337 42.727,42.728 C42.337,43.119 42.337,43.752 42.727,44.143 L44.143,45.557 C44.338,45.751 44.594,45.849 44.85,45.849 C45.106,45.849 45.361,45.751 45.557,45.556 C45.947,45.165 45.947,44.532 45.557,44.142 L44.142,42.728" id="Fill-247" fill="#F0C419" sketch:type="MSShapeGroup"></path>
            <path d="M15.857,14.443 C15.467,14.054 14.834,14.053 14.443,14.444 C14.053,14.835 14.053,15.468 14.443,15.858 L15.858,17.273 C16.054,17.467 16.31,17.565 16.565,17.565 C16.821,17.565 17.077,17.467 17.272,17.272 C17.663,16.881 17.663,16.248 17.272,15.857 L15.857,14.443" id="Fill-248" fill="#F0C419" sketch:type="MSShapeGroup"></path>
            <path d="M38.596,9.749 C38.089,9.534 37.501,9.77 37.284,10.279 L36.503,12.12 C36.287,12.628 36.524,13.215 37.033,13.431 C37.161,13.485 37.293,13.511 37.424,13.511 C37.812,13.511 38.183,13.282 38.345,12.901 L39.126,11.06 C39.342,10.552 39.104,9.965 38.596,9.749" id="Fill-249" fill="#F0C419" sketch:type="MSShapeGroup"></path>
            <path d="M22.967,46.569 C22.458,46.355 21.872,46.59 21.655,47.099 L20.874,48.94 C20.658,49.448 20.895,50.035 21.404,50.251 C21.532,50.305 21.664,50.331 21.795,50.331 C22.184,50.331 22.554,50.102 22.716,49.721 L23.497,47.88 C23.713,47.372 23.476,46.785 22.967,46.569" id="Fill-250" fill="#F0C419" sketch:type="MSShapeGroup"></path>
            <path d="M49.722,37.285 L47.88,36.503 C47.372,36.288 46.784,36.524 46.568,37.033 C46.352,37.542 46.59,38.128 47.099,38.344 L48.94,39.126 C49.068,39.18 49.2,39.206 49.331,39.206 C49.72,39.206 50.09,38.977 50.252,38.596 C50.468,38.088 50.23,37.501 49.722,37.285" id="Fill-251" fill="#F0C419" sketch:type="MSShapeGroup"></path>
            <path d="M12.901,21.656 L11.06,20.874 C10.552,20.659 9.965,20.895 9.748,21.404 C9.532,21.912 9.769,22.499 10.278,22.715 L12.12,23.497 C12.248,23.551 12.38,23.577 12.511,23.577 C12.899,23.577 13.269,23.348 13.432,22.967 C13.647,22.459 13.41,21.872 12.901,21.656" id="Fill-252" fill="#F0C419" sketch:type="MSShapeGroup"></path>
            <path d="M47.616,23.723 C47.741,23.723 47.868,23.699 47.991,23.649 L49.846,22.9 C50.357,22.693 50.604,22.11 50.397,21.598 C50.19,21.085 49.608,20.84 49.096,21.045 L47.241,21.795 C46.729,22.002 46.482,22.585 46.689,23.097 C46.847,23.486 47.221,23.723 47.616,23.723" id="Fill-253" fill="#F0C419" sketch:type="MSShapeGroup"></path>
            <path d="M12.009,36.03 L10.154,36.779 C9.643,36.986 9.396,37.569 9.602,38.081 C9.76,38.471 10.134,38.707 10.529,38.707 C10.654,38.707 10.781,38.683 10.904,38.634 L12.759,37.884 C13.27,37.677 13.518,37.094 13.31,36.583 C13.103,36.07 12.521,35.825 12.009,36.03" id="Fill-254" fill="#F0C419" sketch:type="MSShapeGroup"></path>
            <path d="M38.044,47.081 C37.837,46.569 37.254,46.323 36.742,46.529 C36.23,46.736 35.983,47.319 36.19,47.831 L36.94,49.686 C37.098,50.075 37.472,50.311 37.867,50.311 C37.992,50.311 38.119,50.287 38.242,50.238 C38.754,50.031 39.001,49.448 38.794,48.936 L38.044,47.081" id="Fill-255" fill="#F0C419" sketch:type="MSShapeGroup"></path>
            <path d="M23.06,9.994 C22.852,9.481 22.269,9.237 21.758,9.441 C21.246,9.648 20.999,10.231 21.206,10.744 L21.956,12.598 C22.113,12.987 22.487,13.224 22.883,13.224 C23.008,13.224 23.135,13.2 23.258,13.15 C23.769,12.943 24.017,12.36 23.81,11.848 L23.06,9.994" id="Fill-256" fill="#F0C419" sketch:type="MSShapeGroup"></path>
            <path d="M30,14 C29.48,14 29.059,14.421 29.059,14.941 L29.059,16.823 C29.059,17.343 29.48,17.765 30,17.765 C30.52,17.765 30.941,17.343 30.941,16.823 L30.941,14.941 C30.941,14.421 30.52,14 30,14" id="Fill-257" fill="#EDA71B" sketch:type="MSShapeGroup"></path>
            <path d="M30,42.235 C29.48,42.235 29.059,42.657 29.059,43.177 L29.059,45.059 C29.059,45.579 29.48,46 30,46 C30.52,46 30.941,45.579 30.941,45.059 L30.941,43.177 C30.941,42.657 30.52,42.235 30,42.235" id="Fill-258" fill="#EDA71B" sketch:type="MSShapeGroup"></path>
            <path d="M45.059,29.059 L43.177,29.059 C42.656,29.059 42.235,29.48 42.235,30 C42.235,30.52 42.656,30.941 43.177,30.941 L45.059,30.941 C45.579,30.941 46,30.52 46,30 C46,29.48 45.579,29.059 45.059,29.059" id="Fill-259" fill="#EDA71B" sketch:type="MSShapeGroup"></path>
            <path d="M17.765,30 C17.765,29.48 17.344,29.059 16.823,29.059 L14.941,29.059 C14.421,29.059 14,29.48 14,30 C14,30.52 14.421,30.941 14.941,30.941 L16.823,30.941 C17.344,30.941 17.765,30.52 17.765,30" id="Fill-260" fill="#EDA71B" sketch:type="MSShapeGroup"></path>
            <path d="M39.317,21.624 C39.558,21.624 39.799,21.532 39.982,21.348 L41.313,20.018 C41.681,19.65 41.681,19.054 41.313,18.687 C40.946,18.319 40.35,18.319 39.982,18.687 L38.652,20.018 C38.284,20.385 38.284,20.981 38.652,21.348 C38.835,21.532 39.076,21.624 39.317,21.624" id="Fill-261" fill="#EDA71B" sketch:type="MSShapeGroup"></path>
            <path d="M20.017,38.652 L18.687,39.983 C18.319,40.35 18.319,40.946 18.687,41.313 C18.87,41.497 19.111,41.589 19.352,41.589 C19.593,41.589 19.834,41.497 20.017,41.313 L21.348,39.983 C21.716,39.615 21.716,39.019 21.348,38.652 C20.981,38.284 20.385,38.284 20.017,38.652" id="Fill-262" fill="#EDA71B" sketch:type="MSShapeGroup"></path>
            <path d="M39.982,38.652 C39.615,38.284 39.019,38.284 38.652,38.652 C38.284,39.019 38.284,39.615 38.652,39.983 L39.982,41.313 C40.166,41.497 40.407,41.589 40.648,41.589 C40.889,41.589 41.13,41.497 41.313,41.313 C41.681,40.946 41.681,40.35 41.313,39.983 L39.982,38.652" id="Fill-263" fill="#EDA71B" sketch:type="MSShapeGroup"></path>
            <path d="M20.017,18.687 C19.65,18.319 19.054,18.319 18.687,18.687 C18.319,19.054 18.319,19.65 18.687,20.018 L20.017,21.348 C20.201,21.532 20.442,21.624 20.683,21.624 C20.924,21.624 21.164,21.532 21.348,21.348 C21.716,20.981 21.716,20.385 21.348,20.018 L20.017,18.687" id="Fill-264" fill="#EDA71B" sketch:type="MSShapeGroup"></path>
            <path d="M36.252,15.272 C35.774,15.069 35.221,15.292 35.017,15.771 L34.282,17.503 C34.079,17.982 34.302,18.534 34.781,18.737 C34.902,18.788 35.026,18.813 35.149,18.813 C35.515,18.813 35.863,18.597 36.016,18.239 L36.751,16.506 C36.954,16.028 36.731,15.475 36.252,15.272" id="Fill-265" fill="#EDA71B" sketch:type="MSShapeGroup"></path>
            <path d="M25.219,41.263 C24.741,41.061 24.187,41.282 23.984,41.762 L23.249,43.494 C23.046,43.972 23.269,44.525 23.748,44.728 C23.869,44.779 23.993,44.803 24.116,44.803 C24.482,44.803 24.83,44.588 24.982,44.229 L25.718,42.497 C25.921,42.018 25.698,41.466 25.219,41.263" id="Fill-266" fill="#EDA71B" sketch:type="MSShapeGroup"></path>
            <path d="M44.23,35.018 L42.496,34.282 C42.019,34.08 41.466,34.302 41.262,34.781 C41.059,35.26 41.282,35.812 41.761,36.015 L43.495,36.75 C43.615,36.801 43.739,36.825 43.862,36.825 C44.228,36.825 44.576,36.61 44.729,36.251 C44.932,35.773 44.709,35.22 44.23,35.018" id="Fill-267" fill="#EDA71B" sketch:type="MSShapeGroup"></path>
            <path d="M15.77,24.983 L17.504,25.718 C17.624,25.769 17.748,25.793 17.871,25.793 C18.237,25.793 18.585,25.578 18.738,25.219 C18.941,24.74 18.718,24.188 18.239,23.985 L16.505,23.25 C16.027,23.048 15.475,23.27 15.271,23.749 C15.068,24.228 15.291,24.78 15.77,24.983" id="Fill-268" fill="#EDA71B" sketch:type="MSShapeGroup"></path>
            <path d="M41.345,25.266 C41.493,25.632 41.845,25.855 42.217,25.855 C42.335,25.855 42.454,25.832 42.57,25.786 L44.315,25.08 C44.797,24.886 45.029,24.337 44.835,23.855 C44.64,23.373 44.092,23.142 43.609,23.335 L41.864,24.04 C41.382,24.235 41.15,24.784 41.345,25.266" id="Fill-269" fill="#EDA71B" sketch:type="MSShapeGroup"></path>
            <path d="M18.655,34.432 C18.46,33.95 17.913,33.718 17.43,33.912 L15.685,34.618 C15.203,34.813 14.971,35.361 15.165,35.843 C15.313,36.21 15.665,36.432 16.038,36.432 C16.155,36.432 16.275,36.409 16.391,36.363 L18.136,35.658 C18.618,35.463 18.85,34.914 18.655,34.432" id="Fill-270" fill="#EDA71B" sketch:type="MSShapeGroup"></path>
            <path d="M35.808,41.713 C35.613,41.231 35.065,41 34.583,41.194 C34.101,41.389 33.869,41.937 34.063,42.419 L34.769,44.164 C34.917,44.53 35.269,44.753 35.641,44.753 C35.759,44.753 35.879,44.73 35.995,44.684 C36.476,44.489 36.709,43.94 36.514,43.458 L35.808,41.713" id="Fill-271" fill="#EDA71B" sketch:type="MSShapeGroup"></path>
            <path d="M25.231,15.534 C25.036,15.052 24.488,14.821 24.005,15.014 C23.524,15.209 23.291,15.757 23.486,16.239 L24.192,17.985 C24.34,18.351 24.692,18.573 25.064,18.573 C25.182,18.573 25.301,18.551 25.417,18.505 C25.899,18.31 26.131,17.761 25.937,17.279 L25.231,15.534" id="Fill-272" fill="#EDA71B" sketch:type="MSShapeGroup"></path>
            <path d="M30,0 C29.447,0 29,0.448 29,1 L29,6 C29,6.552 29.447,7 30,7 C30.553,7 31,6.552 31,6 L31,1 C31,0.448 30.553,0 30,0" id="Fill-273" fill="#F3D55B" sketch:type="MSShapeGroup"></path>
            <path d="M30,53 C29.447,53 29,53.448 29,54 L29,59 C29,59.552 29.447,60 30,60 C30.553,60 31,59.552 31,59 L31,54 C31,53.448 30.553,53 30,53" id="Fill-274" fill="#F3D55B" sketch:type="MSShapeGroup"></path>
            <path d="M59,29 L54,29 C53.447,29 53,29.448 53,30 C53,30.552 53.447,31 54,31 L59,31 C59.553,31 60,30.552 60,30 C60,29.448 59.553,29 59,29" id="Fill-275" fill="#F3D55B" sketch:type="MSShapeGroup"></path>
            <path d="M7,30 C7,29.448 6.553,29 6,29 L1,29 C0.447,29 0,29.448 0,30 C0,30.552 0.447,31 1,31 L6,31 C6.553,31 7,30.552 7,30" id="Fill-276" fill="#F3D55B" sketch:type="MSShapeGroup"></path>
            <path d="M46.971,14.029 C47.227,14.029 47.482,13.932 47.678,13.736 L51.213,10.201 C51.603,9.81 51.603,9.178 51.213,8.787 C50.822,8.397 50.189,8.397 49.799,8.787 L46.264,12.322 C45.873,12.713 45.873,13.346 46.264,13.736 C46.459,13.932 46.715,14.029 46.971,14.029" id="Fill-277" fill="#F3D55B" sketch:type="MSShapeGroup"></path>
            <path d="M12.322,46.264 L8.787,49.799 C8.396,50.19 8.396,50.822 8.787,51.213 C8.982,51.408 9.238,51.506 9.494,51.506 C9.75,51.506 10.006,51.408 10.201,51.213 L13.736,47.678 C14.127,47.287 14.127,46.654 13.736,46.264 C13.346,45.873 12.713,45.873 12.322,46.264" id="Fill-278" fill="#F3D55B" sketch:type="MSShapeGroup"></path>
            <path d="M47.678,46.264 C47.287,45.873 46.654,45.873 46.264,46.264 C45.873,46.654 45.873,47.287 46.264,47.678 L49.799,51.213 C49.994,51.408 50.25,51.506 50.506,51.506 C50.762,51.506 51.018,51.408 51.213,51.213 C51.603,50.822 51.603,50.19 51.213,49.799 L47.678,46.264" id="Fill-279" fill="#F3D55B" sketch:type="MSShapeGroup"></path>
            <path d="M10.201,8.787 C9.81,8.397 9.178,8.397 8.787,8.787 C8.396,9.178 8.396,9.81 8.787,10.201 L12.322,13.736 C12.518,13.932 12.773,14.029 13.029,14.029 C13.285,14.029 13.541,13.932 13.736,13.736 C14.127,13.346 14.127,12.713 13.736,12.322 L10.201,8.787" id="Fill-280" fill="#F3D55B" sketch:type="MSShapeGroup"></path>
            <path d="M41.722,2.385 C41.214,2.169 40.627,2.405 40.41,2.915 L38.457,7.517 C38.241,8.025 38.479,8.612 38.987,8.828 C39.115,8.882 39.247,8.908 39.378,8.908 C39.767,8.908 40.137,8.679 40.299,8.298 L42.252,3.696 C42.468,3.188 42.23,2.601 41.722,2.385" id="Fill-281" fill="#F3D55B" sketch:type="MSShapeGroup"></path>
            <path d="M21.013,51.172 C20.504,50.957 19.918,51.193 19.701,51.702 L17.748,56.304 C17.532,56.813 17.769,57.399 18.278,57.615 C18.406,57.669 18.538,57.695 18.669,57.695 C19.058,57.695 19.428,57.466 19.59,57.085 L21.543,52.483 C21.759,51.975 21.521,51.388 21.013,51.172" id="Fill-282" fill="#F3D55B" sketch:type="MSShapeGroup"></path>
            <path d="M57.085,40.411 L52.482,38.457 C51.978,38.242 51.388,38.478 51.171,38.987 C50.955,39.495 51.192,40.082 51.701,40.298 L56.304,42.252 C56.431,42.306 56.563,42.332 56.694,42.332 C57.083,42.332 57.453,42.103 57.615,41.722 C57.831,41.213 57.594,40.627 57.085,40.411" id="Fill-283" fill="#F3D55B" sketch:type="MSShapeGroup"></path>
            <path d="M2.915,19.589 L7.518,21.543 C7.644,21.597 7.777,21.623 7.908,21.623 C8.297,21.623 8.667,21.394 8.829,21.013 C9.045,20.505 8.808,19.918 8.299,19.702 L3.696,17.749 C3.192,17.534 2.602,17.769 2.385,18.278 C2.169,18.787 2.406,19.374 2.915,19.589" id="Fill-284" fill="#F3D55B" sketch:type="MSShapeGroup"></path>
            <path d="M51.325,21.224 C51.482,21.613 51.856,21.85 52.252,21.85 C52.377,21.85 52.504,21.826 52.627,21.776 L57.264,19.903 C57.775,19.696 58.023,19.114 57.815,18.602 C57.609,18.089 57.025,17.844 56.514,18.049 L51.877,19.922 C51.365,20.129 51.118,20.711 51.325,21.224" id="Fill-285" fill="#F3D55B" sketch:type="MSShapeGroup"></path>
            <path d="M8.675,38.456 C8.468,37.942 7.886,37.698 7.373,37.903 L2.736,39.776 C2.225,39.983 1.977,40.565 2.185,41.078 C2.342,41.467 2.716,41.704 3.111,41.704 C3.236,41.704 3.363,41.68 3.486,41.63 L8.123,39.757 C8.635,39.55 8.882,38.968 8.675,38.456" id="Fill-286" fill="#F3D55B" sketch:type="MSShapeGroup"></path>
            <path d="M39.917,51.717 C39.71,51.205 39.127,50.959 38.615,51.165 C38.104,51.372 37.856,51.954 38.063,52.466 L39.936,57.103 C40.094,57.492 40.468,57.729 40.863,57.729 C40.988,57.729 41.115,57.705 41.238,57.655 C41.75,57.448 41.997,56.866 41.79,56.354 L39.917,51.717" id="Fill-287" fill="#F3D55B" sketch:type="MSShapeGroup"></path>
            <path d="M20.063,2.577 C19.856,2.064 19.274,1.817 18.762,2.024 C18.25,2.231 18.003,2.814 18.21,3.326 L20.083,7.961 C20.24,8.351 20.614,8.587 21.01,8.587 C21.135,8.587 21.262,8.564 21.385,8.514 C21.896,8.307 22.144,7.724 21.936,7.212 L20.063,2.577" id="Fill-288" fill="#F3D55B" sketch:type="MSShapeGroup"></path>
        </g>
    </g>
</svg>