<?xml version="1.0" encoding="UTF-8" standalone="no"?>
<svg width="59px" height="59px" viewBox="0 0 59 59" version="1.1" xmlns="http://www.w3.org/2000/svg" xmlns:xlink="http://www.w3.org/1999/xlink" xmlns:sketch="http://www.bohemiancoding.com/sketch/ns">
    <!-- Generator: Sketch 3.2.2 (9983) - http://www.bohemiancoding.com/sketch -->
    <title>7 - The Enterprise (Flat)</title>
    <desc>Created with Sketch.</desc>
    <defs></defs>
    <g id="Page-1" stroke="none" stroke-width="1" fill="none" fill-rule="evenodd" sketch:type="MSPage">
        <g id="7---The-Enterprise-(Flat)" sketch:type="MSLayerGroup" transform="translate(1.000000, 0.000000)">
            <path d="M49.778,23.778 C50.169,23.388 50.802,23.388 51.192,23.778 L53.985,26.571 C59.315,20.536 59.315,11.464 53.985,5.429 L51.192,8.222 C50.997,8.417 50.741,8.515 50.485,8.515 C50.229,8.515 49.974,8.417 49.778,8.222 C49.388,7.831 49.388,7.198 49.778,6.808 L52.571,4.015 C46.536,-1.315 37.464,-1.315 31.429,4.015 L34.222,6.808 C34.612,7.198 34.612,7.831 34.222,8.222 C34.026,8.417 33.77,8.515 33.515,8.515 C33.259,8.515 33.003,8.417 32.808,8.222 L30.015,5.429 C24.464,11.713 24.677,21.304 30.686,27.314 C36.696,33.323 46.287,33.536 52.571,27.985 L49.778,25.192 C49.388,24.802 49.388,24.169 49.778,23.778" id="Fill-21" fill="#8697CB" sketch:type="MSShapeGroup"></path>
            <path d="M3.816,35.799 L0.308,39.308 M15.586,42.414 L14.042,43.958 M22.201,54.184 L18.692,57.692" id="Stroke-22" stroke="#0096E6" stroke-width="2" stroke-linecap="round" sketch:type="MSShapeGroup"></path>
            <path d="M50.485,7.515 C55.172,12.201 55.172,19.799 50.485,24.485 C45.799,29.172 38.201,29.172 33.515,24.485 C28.828,19.799 28.828,12.201 33.515,7.515 C38.201,2.828 45.799,2.828 50.485,7.515" id="Fill-850" fill="#B2BDD3" sketch:type="MSShapeGroup"></path>
            <path d="M27.274,22.241 L19.373,30.142 C17.803,31.712 17.29,33.933 17.823,35.934 L19.373,34.385 C20.539,33.218 22.448,33.218 23.615,34.385 C24.782,35.552 24.782,37.461 23.615,38.627 L22.066,40.177 C24.067,40.709 26.288,40.197 27.858,38.627 L35.759,30.726 C33.917,29.946 32.188,28.815 30.686,27.314 C29.185,25.812 28.054,24.083 27.274,22.241" id="Fill-851" fill="#556080" sketch:type="MSShapeGroup"></path>
            <path d="M34.929,23.071 L33.515,24.485" id="Stroke-852" stroke="#0096E6" stroke-width="2" stroke-linecap="round" sketch:type="MSShapeGroup"></path>
            <path d="M34.222,6.808 L31.429,4.015 C31.179,4.235 30.925,4.448 30.686,4.686 C30.448,4.925 30.235,5.179 30.015,5.429 L34.222,9.636 C34.417,9.831 34.673,9.929 34.929,9.929 C35.185,9.929 35.44,9.831 35.636,9.636 C36.026,9.245 36.026,8.612 35.636,8.222 L34.222,6.808" id="Fill-853" fill="#E6E7E8" sketch:type="MSShapeGroup"></path>
            <path d="M49.778,22.364 C49.388,21.974 48.755,21.974 48.364,22.364 C47.974,22.755 47.974,23.388 48.364,23.778 L52.571,27.985 C52.821,27.765 53.075,27.552 53.314,27.314 C53.552,27.075 53.765,26.821 53.985,26.571 L49.778,22.364" id="Fill-854" fill="#E6E7E8" sketch:type="MSShapeGroup"></path>
            <path d="M49.071,9.929 C49.327,9.929 49.583,9.831 49.778,9.636 L53.985,5.429 C53.765,5.179 53.552,4.925 53.314,4.686 C53.075,4.448 52.821,4.235 52.571,4.015 L48.364,8.222 C47.974,8.612 47.974,9.245 48.364,9.636 C48.56,9.831 48.815,9.929 49.071,9.929" id="Fill-855" fill="#E6E7E8" sketch:type="MSShapeGroup"></path>
            <path d="M42,3 C41.448,3 41,3.447 41,4 L41,6 C41,6.553 41.448,7 42,7 C42.552,7 43,6.553 43,6 L43,4 C43,3.447 42.552,3 42,3" id="Fill-856" fill="#E6E7E8" sketch:type="MSShapeGroup"></path>
            <path d="M42,25 C41.448,25 41,25.447 41,26 L41,28 C41,28.553 41.448,29 42,29 C42.552,29 43,28.553 43,28 L43,26 C43,25.447 42.552,25 42,25" id="Fill-857" fill="#E6E7E8" sketch:type="MSShapeGroup"></path>
            <path d="M54,15 L52,15 C51.448,15 51,15.447 51,16 C51,16.553 51.448,17 52,17 L54,17 C54.552,17 55,16.553 55,16 C55,15.447 54.552,15 54,15" id="Fill-858" fill="#E6E7E8" sketch:type="MSShapeGroup"></path>
            <path d="M32,15 L30,15 C29.448,15 29,15.447 29,16 C29,16.553 29.448,17 30,17 L32,17 C32.552,17 33,16.553 33,16 C33,15.447 32.552,15 32,15" id="Fill-859" fill="#E6E7E8" sketch:type="MSShapeGroup"></path>
            <path d="M44.121,13.879 C45.293,15.05 45.293,16.95 44.121,18.121 C42.95,19.293 41.05,19.293 39.879,18.121 C38.707,16.95 38.707,15.05 39.879,13.879 C41.05,12.707 42.95,12.707 44.121,13.879" id="Fill-860" fill="#E6E7E8" sketch:type="MSShapeGroup"></path>
            <path d="M21.494,22.364 L8.766,35.092 L4.523,30.849 L17.251,18.121 C18.423,16.95 20.322,16.95 21.494,18.121 C22.665,19.293 22.665,21.192 21.494,22.364" id="Fill-861" fill="#8697CB" sketch:type="MSShapeGroup"></path>
            <path d="M8.059,34.385 L5.23,37.213 L2.402,34.385 L5.23,31.556 L8.059,34.385" id="Fill-862" fill="#B2BDD3" sketch:type="MSShapeGroup"></path>
            <path d="M20.08,40.749 L17,43.828 L14.172,41 L17.251,37.92 L20.08,40.749" id="Fill-863" fill="#B2BDD3" sketch:type="MSShapeGroup"></path>
            <path d="M35.636,36.506 L22.908,49.234 L27.151,53.477 L39.879,40.749 C41.05,39.577 41.05,37.678 39.879,36.506 C38.707,35.335 36.808,35.335 35.636,36.506" id="Fill-864" fill="#8697CB" sketch:type="MSShapeGroup"></path>
            <path d="M14.423,20.949 L18.665,25.192 L20.08,23.778 L15.837,19.535 L14.423,20.949" id="Fill-865" fill="#D1D4D1" sketch:type="MSShapeGroup"></path>
            <path d="M34.222,37.92 L32.808,39.334 L37.05,43.577 L38.464,42.163 L34.222,37.92" id="Fill-866" fill="#D1D4D1" sketch:type="MSShapeGroup"></path>
            <path d="M23.615,49.941 L20.787,52.77 L23.615,55.598 L26.444,52.77 L23.615,49.941" id="Fill-867" fill="#B2BDD3" sketch:type="MSShapeGroup"></path>
            <path d="M17.958,25.9 L20.787,28.728 L23.615,25.9 L20.787,23.071 L17.958,25.9" id="Fill-868" fill="#B2BDD3" sketch:type="MSShapeGroup"></path>
            <path d="M32.1,34.385 L29.272,37.213 L32.1,40.042 L34.929,37.213 L32.1,34.385" id="Fill-869" fill="#B2BDD3" sketch:type="MSShapeGroup"></path>
            <path d="M55,54 C55,54.552 54.552,55 54,55 C53.448,55 53,54.552 53,54 C53,53.448 53.448,53 54,53 C54.552,53 55,53.448 55,54" id="Fill-877" fill="#F3D55B" sketch:type="MSShapeGroup"></path>
            <path d="M52,40 C52,40.552 51.552,41 51,41 C50.448,41 50,40.552 50,40 C50,39.448 50.448,39 51,39 C51.552,39 52,39.448 52,40" id="Fill-878" fill="#F3D55B" sketch:type="MSShapeGroup"></path>
            <path d="M39,53 C39,53.552 38.552,54 38,54 C37.448,54 37,53.552 37,53 C37,52.448 37.448,52 38,52 C38.552,52 39,52.448 39,53" id="Fill-879" fill="#F3D55B" sketch:type="MSShapeGroup"></path>
            <path d="M15,9 C15,9.552 14.552,10 14,10 C13.448,10 13,9.552 13,9 C13,8.448 13.448,8 14,8 C14.552,8 15,8.448 15,9" id="Fill-880" fill="#F3D55B" sketch:type="MSShapeGroup"></path>
            <path d="M5,46 C5,46.552 4.552,47 4,47 C3.448,47 3,46.552 3,46 C3,45.448 3.448,45 4,45 C4.552,45 5,45.448 5,46" id="Fill-881" fill="#F3D55B" sketch:type="MSShapeGroup"></path>
            <path d="M23.615,38.627 L20.787,41.456 L16.544,37.213 L19.373,34.385 C20.539,33.218 22.448,33.218 23.615,34.385 C24.782,35.552 24.782,37.461 23.615,38.627" id="Fill-1186" fill="#8697CB" sketch:type="MSShapeGroup"></path>
            <path d="M28.565,30.435 C28.309,30.435 28.053,30.337 27.858,30.142 C27.467,29.751 27.467,29.118 27.858,28.727 L34.222,22.364 C34.612,21.974 35.245,21.974 35.636,22.364 C36.026,22.755 36.026,23.388 35.636,23.778 L29.272,30.142 C29.077,30.337 28.821,30.435 28.565,30.435" id="Fill-1187" fill="#ECF0F1" sketch:type="MSShapeGroup"></path>
        </g>
    </g>
</svg>