<?xml version="1.0" encoding="UTF-8" standalone="no"?>
<svg width="54px" height="56px" viewBox="0 0 54 56" version="1.1" xmlns="http://www.w3.org/2000/svg" xmlns:xlink="http://www.w3.org/1999/xlink" xmlns:sketch="http://www.bohemiancoding.com/sketch/ns">
    <!-- Generator: Sketch 3.2.2 (9983) - http://www.bohemiancoding.com/sketch -->
    <title>49 - UFO (Flat)</title>
    <desc>Created with Sketch.</desc>
    <defs></defs>
    <g id="Page-1" stroke="none" stroke-width="1" fill="none" fill-rule="evenodd" sketch:type="MSPage">
        <g id="49---UFO-(Flat)" sketch:type="MSLayerGroup">
            <path d="M45,17.222 C45,7.711 37.165,0 27.5,0 C17.835,0 10,7.711 10,17.222 C10,17.222 26.771,25.116 45,17.222" id="Fill-356" fill="#546A79" sketch:type="MSShapeGroup"></path>
            <path d="M45,17.222 C45,7.711 37.165,0 27.5,0 C17.835,0 10,7.711 10,17.222 C10,17.222 26.771,25.116 45,17.222" id="Fill-356" fill="#546A79" sketch:type="MSShapeGroup"></path>
            <path d="M43.659,10 L43.371,10 C44.406,12.199 45,14.64 45,17.222 C26.771,25.116 10,17.222 10,17.222 C10,14.64 10.594,12.199 11.629,10 L11.489,10 C4.541,12.164 0,16.951 0,21 C0,27.607 12.088,33 27,33 C41.912,33 54,27.607 54,21 C54,17.177 49.959,12.19 43.659,10" id="Fill-363" fill="#38454F" sketch:type="MSShapeGroup"></path>
            <path id="Stroke-357" stroke="#F3D55B" stroke-width="2" stroke-linecap="round" stroke-linejoin="round" sketch:type="MSShapeGroup"></path>
            <path d="M10,51.291 C9.883,51.291 9.764,51.27 9.648,51.226 C9.131,51.032 8.87,50.455 9.064,49.938 L14.064,36.648 C14.258,36.131 14.836,35.871 15.352,36.064 C15.869,36.258 16.13,36.835 15.936,37.352 L10.936,50.642 C10.785,51.043 10.404,51.291 10,51.291" id="Fill-358" fill="#F3D55B" sketch:type="MSShapeGroup"></path>
            <path d="M47,51.291 C46.596,51.291 46.215,51.043 46.064,50.642 L41.064,37.352 C40.87,36.835 41.131,36.258 41.648,36.064 C42.162,35.872 42.742,36.131 42.936,36.648 L47.936,49.938 C48.13,50.455 47.869,51.032 47.352,51.226 C47.236,51.27 47.117,51.291 47,51.291" id="Fill-359" fill="#F3D55B" sketch:type="MSShapeGroup"></path>
            <path d="M22.001,56 C21.956,56 21.911,55.997 21.865,55.991 C21.318,55.916 20.935,55.412 21.009,54.865 L22.979,40.419 C23.054,39.872 23.56,39.491 24.105,39.564 C24.652,39.638 25.035,40.142 24.96,40.69 L22.991,55.135 C22.922,55.636 22.494,56 22.001,56" id="Fill-360" fill="#F3D55B" sketch:type="MSShapeGroup"></path>
            <path d="M34.998,56 C34.506,56 34.078,55.637 34.009,55.135 L32.04,40.69 C31.965,40.142 32.348,39.638 32.895,39.564 C33.439,39.491 33.946,39.871 34.021,40.419 L35.991,54.865 C36.065,55.412 35.682,55.916 35.135,55.991 C35.089,55.997 35.044,56 34.998,56" id="Fill-361" fill="#F3D55B" sketch:type="MSShapeGroup"></path>
            <path d="M16.822,14.905 C16.752,14.905 16.681,14.898 16.609,14.883 C16.07,14.766 15.727,14.233 15.844,13.693 C16.949,8.594 21.712,4.745 26.925,4.741 L26.926,4.741 C27.477,4.741 27.925,5.188 27.926,5.74 C27.926,6.292 27.479,6.74 26.927,6.741 C22.633,6.744 18.709,9.916 17.799,14.117 C17.697,14.585 17.283,14.905 16.822,14.905" id="Fill-362" fill="#F3D55B" sketch:type="MSShapeGroup"></path>
            <path d="M43.659,10 L43.371,10 C44.406,12.199 45,14.64 45,17.222 C26.771,25.116 10,17.222 10,17.222 C10,14.64 10.594,12.199 11.629,10 L11.489,10 C4.541,12.164 0,16.951 0,21 C0,27.607 12.088,33 27,33 C41.912,33 54,27.607 54,21 C54,17.177 49.959,12.19 43.659,10" id="Fill-363" fill="#38454F" sketch:type="MSShapeGroup"></path>
            <path d="M32,27 C32,28.105 30.433,29 28.5,29 C26.567,29 25,28.105 25,27 C25,25.895 26.567,25 28.5,25 C30.433,25 32,25.895 32,27" id="Fill-364" fill="#8697CB" sketch:type="MSShapeGroup"></path>
            <path d="M14.945,24.752 C14.637,25.807 13.103,26.287 11.52,25.823 C9.937,25.36 8.904,24.129 9.213,23.074 C9.522,22.019 11.056,21.539 12.639,22.002 C14.221,22.465 15.254,23.696 14.945,24.752" id="Fill-1042" fill="#8697CB" sketch:type="MSShapeGroup"></path>
            <path d="M42.055,23.926 C42.363,24.981 43.897,25.461 45.48,24.998 C47.063,24.535 48.095,23.304 47.787,22.248 C47.478,21.193 45.944,20.713 44.361,21.177 C42.778,21.64 41.746,22.871 42.055,23.926" id="Fill-1044" fill="#8697CB" sketch:type="MSShapeGroup"></path>
        </g>
    </g>
</svg>