<?xml version="1.0" encoding="UTF-8" standalone="no"?>
<svg width="55px" height="60px" viewBox="0 0 55 60" version="1.1" xmlns="http://www.w3.org/2000/svg" xmlns:xlink="http://www.w3.org/1999/xlink" xmlns:sketch="http://www.bohemiancoding.com/sketch/ns">
    <!-- Generator: Sketch 3.2.2 (9983) - http://www.bohemiancoding.com/sketch -->
    <title>40 - Uranus (Flat)</title>
    <desc>Created with Sketch.</desc>
    <defs></defs>
    <g id="Page-1" stroke="none" stroke-width="1" fill="none" fill-rule="evenodd" sketch:type="MSPage">
        <g id="40---Uranus-(Flat)" sketch:type="MSLayerGroup">
            <path d="M50.798,33.039 C49.12,45.63 37.552,54.477 24.961,52.798 C12.37,51.12 3.523,39.553 5.202,26.961 C6.88,14.37 18.447,5.523 31.039,7.202 C43.63,8.88 52.477,20.448 50.798,33.039" id="Fill-200" fill="#9FBDC2" sketch:type="MSShapeGroup"></path>
            <path d="M41.838,30.654 C40.507,40.64 31.332,47.656 21.346,46.326 C11.36,44.995 4.343,35.82 5.674,25.834 C7.005,15.848 16.18,8.831 26.166,10.162 C36.152,11.493 43.169,20.668 41.838,30.654" id="Fill-201" fill="#9FCACC" sketch:type="MSShapeGroup"></path>
            <path d="M35.382,28.694 C34.306,36.763 26.893,42.432 18.824,41.357 C10.755,40.281 5.086,32.868 6.161,24.799 C7.236,16.73 14.65,11.061 22.719,12.136 C30.788,13.212 36.457,20.625 35.382,28.694" id="Fill-202" fill="#ADD7DB" sketch:type="MSShapeGroup"></path>
            <path d="M51,52 L48,52 L47,51 L47,48 C47,47.448 46.552,47 46,47 C45.448,47 45,47.448 45,48 L45,51 L44,52 L41,52 C40.448,52 40,52.448 40,53 C40,53.552 40.448,54 41,54 L44,54 L45,55 L45,58 C45,58.552 45.448,59 46,59 C46.552,59 47,58.552 47,58 L47,55 L48,54 L51,54 C51.552,54 52,53.552 52,53 C52,52.448 51.552,52 51,52" id="Fill-328" fill="#F3D55B" sketch:type="MSShapeGroup"></path>
            <path d="M4,5 C4,5.552 3.552,6 3,6 C2.448,6 2,5.552 2,5 C2,4.448 2.448,4 3,4 C3.552,4 4,4.448 4,5" id="Fill-449" fill="#F3D55B" sketch:type="MSShapeGroup"></path>
            <path d="M7,56 C7,56.552 6.552,57 6,57 C5.448,57 5,56.552 5,56 C5,55.448 5.448,55 6,55 C6.552,55 7,55.448 7,56" id="Fill-450" fill="#F3D55B" sketch:type="MSShapeGroup"></path>
            <path d="M2,49 C2,49.552 1.552,50 1,50 C0.448,50 0,49.552 0,49 C0,48.448 0.448,48 1,48 C1.552,48 2,48.448 2,49" id="Fill-457" fill="#ECF0F1" sketch:type="MSShapeGroup"></path>
            <path d="M13,2 C13,2.552 12.552,3 12,3 C11.448,3 11,2.552 11,2 C11,1.448 11.448,1 12,1 C12.552,1 13,1.448 13,2" id="Fill-458" fill="#F3D55B" sketch:type="MSShapeGroup"></path>
            <path d="M53,5 C53,5.552 52.552,6 52,6 C51.448,6 51,5.552 51,5 C51,4.448 51.448,4 52,4 C52.552,4 53,4.448 53,5" id="Fill-459" fill="#F3D55B" sketch:type="MSShapeGroup"></path>
            <path d="M55,53.003 C55,53.555 54.552,54.003 54,54.003 C53.448,54.003 53,53.555 53,53.003 C53,52.45 53.448,52.003 54,52.003 C54.552,52.003 55,52.45 55,53.003" id="Fill-466" fill="#F3D55B" sketch:type="MSShapeGroup"></path>
            <path d="M43.5,40.375 C43.5,40.927 43.052,41.375 42.5,41.375 C41.948,41.375 41.5,40.927 41.5,40.375 C41.5,39.823 41.948,39.375 42.5,39.375 C43.052,39.375 43.5,39.823 43.5,40.375" id="Fill-467" fill="#F3D55B" sketch:type="MSShapeGroup"></path>
            <path d="M13,26.75 C13,27.302 12.552,27.75 12,27.75 C11.448,27.75 11,27.302 11,26.75 C11,26.198 11.448,25.75 12,25.75 C12.552,25.75 13,26.198 13,26.75" id="Fill-468" fill="#F3D55B" sketch:type="MSShapeGroup"></path>
            <path d="M27.526,52.992 C25.753,57.047 24.358,58.031 23.803,57.953 C23.155,57.866 21.783,56.057 21.234,49.83 C20.747,44.309 21.037,37.079 22.051,29.472 C24.309,12.533 28.967,2.179 31.202,2.443 C31.721,2.513 32.748,3.703 33.407,7.644 C34.086,7.807 34.75,8.002 35.402,8.223 C35.451,8.077 35.478,7.922 35.453,7.758 C34.743,3.111 33.439,0.724 31.466,0.461 C26.009,-0.26 21.662,17.254 20.068,29.207 C19.036,36.957 18.742,44.343 19.242,50.005 C19.796,56.288 21.242,59.629 23.539,59.935 C23.656,59.951 23.772,59.959 23.888,59.959 C25.806,59.959 27.645,57.83 29.499,53.473 C29.573,53.3 29.577,53.12 29.552,52.946 C28.883,52.991 28.207,53.007 27.526,52.992" id="Fill-1073" fill="#ECF0F1" sketch:type="MSShapeGroup"></path>
        </g>
    </g>
</svg>