<?xml version="1.0" encoding="UTF-8" standalone="no"?>
<svg width="60px" height="60px" viewBox="0 0 60 60" version="1.1" xmlns="http://www.w3.org/2000/svg" xmlns:xlink="http://www.w3.org/1999/xlink" xmlns:sketch="http://www.bohemiancoding.com/sketch/ns">
    <!-- Generator: Sketch 3.2.2 (9983) - http://www.bohemiancoding.com/sketch -->
    <title>33 - Ursa Minor (Flat)</title>
    <desc>Created with Sketch.</desc>
    <defs></defs>
    <g id="Page-1" stroke="none" stroke-width="1" fill="none" fill-rule="evenodd" sketch:type="MSPage">
        <g id="33---Ursa-Minor-(Flat)" sketch:type="MSLayerGroup">
            <path d="M60,30 C60,46.569 46.568,60 30,60 C13.432,60 0,46.569 0,30 C0,13.432 13.432,0 30,0 C46.568,0 60,13.432 60,30" id="Fill-147" fill="#556080" sketch:type="MSShapeGroup"></path>
            <path d="M11,53 C10.448,53 10,53.448 10,54 C10,54.552 10.448,55 11,55 C11.552,55 12,54.552 12,54 C12,53.448 11.552,53 11,53" id="Fill-298" fill="#F3D55B" sketch:type="MSShapeGroup"></path>
            <path d="M6,25 C5.448,25 5,25.448 5,26 C5,26.552 5.448,27 6,27 C6.552,27 7,26.552 7,26 C7,25.448 6.552,25 6,25" id="Fill-299" fill="#F3D55B" sketch:type="MSShapeGroup"></path>
            <path d="M26,24 C25.448,24 25,24.448 25,25 C25,25.552 25.448,26 26,26 C26.552,26 27,25.552 27,25 C27,24.448 26.552,24 26,24" id="Fill-300" fill="#F3D55B" sketch:type="MSShapeGroup"></path>
            <path d="M48,5 C47.448,5 47,5.448 47,6 C47,6.552 47.448,7 48,7 C48.552,7 49,6.552 49,6 C49,5.448 48.552,5 48,5" id="Fill-301" fill="#F3D55B" sketch:type="MSShapeGroup"></path>
            <path d="M53,25 C52.448,25 52,25.448 52,26 C52,26.552 52.448,27 53,27 C53.552,27 54,26.552 54,26 C54,25.448 53.552,25 53,25" id="Fill-302" fill="#F3D55B" sketch:type="MSShapeGroup"></path>
            <path d="M55.828,44.828 C54.266,46.391 51.734,46.391 50.172,44.828 C48.609,43.266 48.609,40.734 50.172,39.172 C51.734,37.61 54.266,37.61 55.828,39.172 C57.391,40.734 57.391,43.266 55.828,44.828" id="Fill-312" fill="#8697CB" sketch:type="MSShapeGroup"></path>
            <path d="M43.1,57.828 C41.538,59.391 39.006,59.391 37.444,57.828 C35.882,56.266 35.882,53.734 37.444,52.172 C39.006,50.609 41.538,50.609 43.1,52.172 C44.663,53.734 44.663,56.266 43.1,57.828" id="Fill-313" fill="#8697CB" sketch:type="MSShapeGroup"></path>
            <path d="M27.828,41.828 C26.266,43.391 23.734,43.391 22.172,41.828 C20.609,40.266 20.609,37.734 22.172,36.172 C23.734,34.61 26.266,34.61 27.828,36.172 C29.391,37.734 29.391,40.266 27.828,41.828" id="Fill-314" fill="#8697CB" sketch:type="MSShapeGroup"></path>
            <path d="M40.979,29.536 C39.027,31.488 35.861,31.488 33.908,29.536 C31.956,27.583 31.956,24.417 33.908,22.465 C35.861,20.512 39.027,20.512 40.979,22.465 C42.932,24.417 42.932,27.583 40.979,29.536" id="Fill-315" fill="#8697CB" sketch:type="MSShapeGroup"></path>
            <path d="M34.302,29.857 L27.9,36.259 M50.049,39.321 L40.585,29.857 M43.1,52.172 L50.321,44.951 M27.428,42.156 L37.444,52.172" id="Stroke-316" stroke="#8697CB" stroke-width="2" stroke-linecap="round" sketch:type="MSShapeGroup"></path>
            <path d="M28,10 C28,11.657 26.657,13 25,13 C23.343,13 22,11.657 22,10 C22,8.343 23.343,7 25,7 C26.657,7 28,8.343 28,10" id="Fill-317" fill="#8697CB" sketch:type="MSShapeGroup"></path>
            <path d="M9,6 C9,7.657 7.657,9 6,9 C4.343,9 3,7.657 3,6 C3,4.343 4.343,3 6,3 C7.657,3 9,4.343 9,6" id="Fill-318" fill="#8697CB" sketch:type="MSShapeGroup"></path>
            <path d="M37,23 L27,12 M22,9 L9,6" id="Stroke-319" stroke="#8697CB" stroke-width="2" stroke-linecap="round" sketch:type="MSShapeGroup"></path>
            <path d="M26.828,40.828 C25.818,41.838 24.181,41.838 23.172,40.828 C22.162,39.819 22.162,38.181 23.172,37.172 C24.181,36.162 25.818,36.162 26.828,37.172 C27.838,38.181 27.838,39.819 26.828,40.828" id="Fill-1085" fill="#F3D55B" sketch:type="MSShapeGroup"></path>
            <path d="M42.1,56.828 C41.091,57.838 39.453,57.838 38.444,56.828 C37.434,55.819 37.434,54.181 38.444,53.172 C39.453,52.162 41.091,52.162 42.1,53.172 C43.11,54.181 43.11,55.819 42.1,56.828" id="Fill-1086" fill="#F3D55B" sketch:type="MSShapeGroup"></path>
            <path d="M54.328,43.328 C53.595,44.062 52.405,44.062 51.672,43.328 C50.938,42.595 50.938,41.405 51.672,40.672 C52.405,39.938 53.595,39.938 54.328,40.672 C55.062,41.405 55.062,42.595 54.328,43.328" id="Fill-1087" fill="#F3D55B" sketch:type="MSShapeGroup"></path>
            <path d="M39.479,28.036 C38.355,29.16 36.532,29.16 35.408,28.036 C34.284,26.911 34.284,25.089 35.408,23.965 C36.532,22.84 38.355,22.84 39.479,23.965 C40.603,25.089 40.603,26.911 39.479,28.036" id="Fill-1088" fill="#F3D55B" sketch:type="MSShapeGroup"></path>
            <path d="M26,10 C26,10.552 25.552,11 25,11 C24.448,11 24,10.552 24,10 C24,9.448 24.448,9 25,9 C25.552,9 26,9.448 26,10" id="Fill-1089" fill="#F3D55B" sketch:type="MSShapeGroup"></path>
            <path d="M7,6 C7,6.552 6.552,7 6,7 C5.448,7 5,6.552 5,6 C5,5.448 5.448,5 6,5 C6.552,5 7,5.448 7,6" id="Fill-1090" fill="#F3D55B" sketch:type="MSShapeGroup"></path>
        </g>
    </g>
</svg>