<?xml version="1.0" encoding="UTF-8" standalone="no"?>
<svg width="46px" height="58px" viewBox="0 0 46 58" version="1.1" xmlns="http://www.w3.org/2000/svg" xmlns:xlink="http://www.w3.org/1999/xlink" xmlns:sketch="http://www.bohemiancoding.com/sketch/ns">
    <!-- Generator: Sketch 3.2.2 (9983) - http://www.bohemiancoding.com/sketch -->
    <title>225 - Apple (Flat)</title>
    <desc>Created with Sketch.</desc>
    <defs></defs>
    <g id="Page-1" stroke="none" stroke-width="1" fill="none" fill-rule="evenodd" sketch:type="MSPage">
        <g id="225---Apple-(Flat)" sketch:type="MSLayerGroup">
            <path d="M26.178,17.173 C24.113,17.684 21.95,17.684 19.886,17.173 C9.129,14.513 0.124,15.533 0.228,35.815 C0.282,46.206 10.011,59.678 20.237,57.373 C22.071,56.959 23.992,56.959 25.826,57.373 C36.052,59.678 45.782,46.206 45.835,35.815 C45.939,15.533 36.934,14.513 26.178,17.173" id="Fill-118" fill="#D13834" sketch:type="MSShapeGroup"></path>
            <path d="M5.227,29.633 C5.227,24.658 8.806,20.633 13.227,20.633" id="Stroke-119" stroke="#F85B57" stroke-width="2" stroke-linecap="round" sketch:type="MSShapeGroup"></path>
            <path d="M22.961,19.958 C22.811,15.221 20.938,9.705 16.511,7.344" id="Stroke-120" stroke="#4C312C" stroke-width="2" stroke-linecap="round" sketch:type="MSShapeGroup"></path>
            <path d="M26.614,22 C24.545,24.069 21.197,24.069 19.128,22" id="Stroke-121" stroke="#994530" stroke-width="2" stroke-linecap="round" sketch:type="MSShapeGroup"></path>
            <path d="M22,14 L22.609,9.914 C23.251,5.599 26.639,2.211 30.954,1.568 L35.04,0.959 L34.432,5.046 C33.789,9.361 30.401,12.749 26.086,13.391 L22,14" id="Fill-122" fill="#659C35" sketch:type="MSShapeGroup"></path>
        </g>
    </g>
</svg>