<?xml version="1.0" encoding="UTF-8" standalone="no"?>
<svg width="50px" height="50px" viewBox="0 0 50 50" version="1.1" xmlns="http://www.w3.org/2000/svg" xmlns:xlink="http://www.w3.org/1999/xlink" xmlns:sketch="http://www.bohemiancoding.com/sketch/ns">
    <!-- Generator: Sketch 3.2.2 (9983) - http://www.bohemiancoding.com/sketch -->
    <title>18 - Asian Rice (Flat)</title>
    <desc>Created with Sketch.</desc>
    <defs></defs>
    <g id="Page-1" stroke="none" stroke-width="1" fill="none" fill-rule="evenodd" sketch:type="MSPage">
        <g id="18---Asian-Rice-(Flat)" sketch:type="MSLayerGroup" transform="translate(0.000000, 1.000000)">
            <path d="M39.96,0.331 C36.815,9.28 36.599,9.896 33.455,18.844" id="Stroke-1835" stroke="#C69063" stroke-width="2" stroke-linecap="round" sketch:type="MSShapeGroup"></path>
            <path d="M24,49 L30.744,49 C31.736,49 32.348,47.917 31.836,47.068 L31.826,47.05 C31.117,45.873 30.979,44.393 31.611,43.173 C32.162,42.107 33.06,41.226 34.189,40.687 C41.909,37.001 47.382,32.883 47.951,24.481 C48.005,23.685 47.379,23 46.581,23 L1.419,23 C0.621,23 -0.005,23.685 0.049,24.481 C0.618,32.883 6.091,37.001 13.811,40.687 C14.94,41.226 15.838,42.107 16.389,43.173 C17.021,44.393 16.883,45.873 16.174,47.05 L16.164,47.068 C15.652,47.917 16.264,49 17.256,49 L24,49" id="Fill-1836" fill="#E6E6E6" sketch:type="MSShapeGroup"></path>
            <path d="M16.649,12.454 C15.873,11.178 13.345,7.956 10.784,7.119 C10.784,7.119 8.422,12.728 11.899,16.087 C11.933,16.121 11.968,16.154 12.003,16.186 C14.501,18.522 18.426,15.377 16.649,12.454" id="Fill-1837" fill="#659C35" sketch:type="MSShapeGroup"></path>
            <path d="M42.831,22.229 C42.221,22.236 41.924,21.487 42.374,21.075 C42.855,20.635 42.48,19.837 41.834,19.927 C41.23,20.011 40.841,19.305 41.236,18.84 C41.658,18.343 41.186,17.599 40.557,17.769 C39.968,17.928 39.494,17.276 39.827,16.765 C40.184,16.219 39.622,15.54 39.019,15.788 C38.455,16.02 37.903,15.432 38.169,14.883 C38.454,14.297 37.812,13.694 37.245,14.015 C36.714,14.316 36.093,13.802 36.289,13.224 C36.498,12.607 35.785,12.089 35.263,12.479 C34.774,12.844 34.093,12.411 34.215,11.814 C34.345,11.175 33.573,10.751 33.104,11.203 C32.664,11.626 31.935,11.283 31.981,10.675 C32.03,10.025 31.211,9.7 30.802,10.208 C30.419,10.683 29.652,10.434 29.621,9.824 C29.589,9.173 28.736,8.954 28.393,9.509 C28.073,10.028 27.281,9.877 27.174,9.276 C27.06,8.635 26.186,8.524 25.916,9.118 C25.663,9.673 24.859,9.622 24.677,9.04 C24.484,8.417 23.603,8.417 23.409,9.04 C23.228,9.622 22.423,9.673 22.171,9.118 C21.901,8.524 21.027,8.635 20.913,9.276 C20.806,9.877 20.014,10.028 19.694,9.509 C19.351,8.954 18.498,9.173 18.465,9.824 C18.435,10.434 17.668,10.683 17.285,10.208 C16.876,9.7 16.057,10.025 16.106,10.675 C16.126,10.936 15.998,11.144 15.816,11.267 C16.175,11.733 16.465,12.151 16.649,12.454 C18.426,15.377 14.501,18.522 12.002,16.186 C11.968,16.154 11.933,16.121 11.899,16.087 C11.224,15.435 10.773,14.698 10.479,13.934 C10.043,13.958 9.693,14.423 9.917,14.883 C10.184,15.432 9.632,16.02 9.068,15.788 C8.465,15.54 7.903,16.219 8.259,16.765 C8.593,17.276 8.119,17.928 7.53,17.769 C6.901,17.599 6.429,18.343 6.851,18.84 C7.245,19.305 6.857,20.011 6.253,19.927 C5.607,19.837 5.232,20.635 5.713,21.075 C6.163,21.487 5.866,22.236 5.256,22.229 C4.802,22.223 4.54,22.626 4.598,23 L43.489,23 C43.547,22.626 43.285,22.223 42.831,22.229" id="Fill-1838" fill="#FAF6E5" sketch:type="MSShapeGroup"></path>
            <path d="M24,14 L23,15" id="Stroke-1839" stroke="#ED7161" stroke-width="2" stroke-linecap="round" sketch:type="MSShapeGroup"></path>
            <path d="M48.849,1.072 C43.262,8.737 40.826,12.079 35.239,19.743" id="Stroke-1840" stroke="#C69063" stroke-width="2" stroke-linecap="round" sketch:type="MSShapeGroup"></path>
            <path d="M19,17 L20,18 M24,20 L25,19 M28,15 L29,16 M30,19 L29,20 M12,19 L11,20 M17,20 L16,20" id="Stroke-1841" stroke="#ED7161" stroke-width="2" stroke-linecap="round" sketch:type="MSShapeGroup"></path>
            <path d="M10.689,33.748 C13.481,36.087 16.78,37.731 20.162,39.036 M6.396,28.196 C6.832,29.202 7.396,30.151 8.061,31.021" id="Stroke-1842" stroke="#FFFFFF" stroke-width="2" stroke-linecap="round" sketch:type="MSShapeGroup"></path>
        </g>
    </g>
</svg>