<?xml version="1.0" encoding="UTF-8" standalone="no"?>
<svg width="32px" height="57px" viewBox="0 0 32 57" version="1.1" xmlns="http://www.w3.org/2000/svg" xmlns:xlink="http://www.w3.org/1999/xlink" xmlns:sketch="http://www.bohemiancoding.com/sketch/ns">
    <!-- Generator: Sketch 3.2.2 (9983) - http://www.bohemiancoding.com/sketch -->
    <title>184 - Asparagus (Flat)</title>
    <desc>Created with Sketch.</desc>
    <defs></defs>
    <g id="Page-1" stroke="none" stroke-width="1" fill="none" fill-rule="evenodd" sketch:type="MSPage">
        <g id="184---Asparagus-(Flat)" sketch:type="MSLayerGroup" transform="translate(1.000000, 0.000000)">
            <path d="M7.069,34.083 L26.777,34.083 L26.777,40.625 L7.069,40.625 L7.069,34.083 Z" id="Fill-390" fill="#88C057" sketch:type="MSShapeGroup"></path>
            <path d="M4.67,37.625 L26.777,37.625" id="Stroke-391" stroke="#A46F3E" stroke-width="2" stroke-linecap="round" sketch:type="MSShapeGroup"></path>
            <path d="M11.742,19.3 L10.762,20.624 L10.762,34.625 L14.762,34.625 L14.762,20.624 L15.742,19.3 C18.952,14.967 18.952,9.045 15.742,4.712 L12.703,0.609 L10.703,3.309 L11.742,4.712 C14.952,9.045 14.952,14.967 11.742,19.3" id="Fill-392" fill="#88C057" sketch:type="MSShapeGroup"></path>
            <path d="M10.762,40.625 L10.762,55.619 C10.762,56.174 11.212,56.625 11.768,56.625 L13.755,56.625 C14.311,56.625 14.762,56.174 14.762,55.619 L14.762,40.625 L10.762,40.625" id="Fill-393" fill="#88C057" sketch:type="MSShapeGroup"></path>
            <path d="M7.115,41.639 L7.115,55.61 C7.115,56.171 7.569,56.625 8.129,56.625 L10.1,56.625 C10.66,56.625 11.115,56.171 11.115,55.61 L11.115,41.639 C11.115,41.079 10.66,40.625 10.1,40.625 L8.129,40.625 C7.569,40.625 7.115,41.079 7.115,41.639" id="Fill-394" fill="#659C35" sketch:type="MSShapeGroup"></path>
            <path d="M7.115,21.118 L7.115,33.61 C7.115,34.17 7.569,34.625 8.129,34.625 L10.1,34.625 C10.66,34.625 11.115,34.17 11.115,33.61 L11.115,20.959 C11.115,20.741 11.184,20.53 11.314,20.355 L11.648,19.904 C15.123,15.212 15.123,8.8 11.647,4.108 L9.055,0.609 L6.464,4.108 C2.988,8.8 2.988,15.212 6.464,19.904 L6.915,20.514 C7.045,20.689 7.115,20.901 7.115,21.118" id="Fill-395" fill="#659C35" sketch:type="MSShapeGroup"></path>
            <path d="M15.758,19.3 L14.777,20.624 L14.777,34.625 L18.777,34.625 L18.777,20.624 L19.758,19.3 C22.967,14.967 22.967,9.045 19.758,4.712 L16.718,0.609 L14.718,3.309 L15.758,4.712 C18.967,9.045 18.967,14.967 15.758,19.3" id="Fill-396" fill="#659C35" sketch:type="MSShapeGroup"></path>
            <path d="M14.777,40.625 L14.777,55.605 C14.777,56.168 15.234,56.625 15.797,56.625 L17.758,56.625 C18.321,56.625 18.777,56.168 18.777,55.605 L18.777,40.625 L14.777,40.625" id="Fill-397" fill="#659C35" sketch:type="MSShapeGroup"></path>
            <path d="M19.65,19.325 L18.669,20.648 L18.669,34.625 L22.669,34.625 L22.669,20.648 L23.65,19.325 C26.859,14.992 26.859,9.07 23.65,4.737 L20.61,0.634 L18.61,3.334 L19.65,4.737 C22.859,9.07 22.859,14.992 19.65,19.325" id="Fill-398" fill="#88C057" sketch:type="MSShapeGroup"></path>
            <path d="M18.669,40.625 L18.669,55.633 C18.669,56.194 19.125,56.65 19.686,56.65 L21.653,56.65 C22.214,56.65 22.669,56.194 22.669,55.633 L22.669,40.625 L18.669,40.625" id="Fill-399" fill="#88C057" sketch:type="MSShapeGroup"></path>
            <path d="M23.654,19.325 L22.673,20.648 L22.673,34.625 L25.646,34.625 C26.213,34.625 26.673,34.165 26.673,33.598 L26.673,20.648 L27.654,19.325 C30.863,14.992 30.863,9.07 27.654,4.737 L24.614,0.634 L22.614,3.334 L23.654,4.737 C26.863,9.07 26.863,14.992 23.654,19.325" id="Fill-400" fill="#659C35" sketch:type="MSShapeGroup"></path>
            <path d="M22.673,40.625 L22.673,55.623 C22.673,56.19 23.133,56.65 23.7,56.65 L25.647,56.65 C26.214,56.65 26.673,56.19 26.673,55.623 L26.673,41.663 C26.673,41.089 26.209,40.625 25.635,40.625 L22.673,40.625" id="Fill-401" fill="#659C35" sketch:type="MSShapeGroup"></path>
            <path d="M4.777,37.625 L0.656,41.746 M0.656,33.504 L4.777,37.625" id="Stroke-402" stroke="#A46F3E" stroke-width="2" stroke-linecap="round" sketch:type="MSShapeGroup"></path>
            <path d="M11.777,10.625 L8.777,7.625 L5.777,10.625 M11.777,15.625 L8.777,12.625 L5.777,15.625" id="Stroke-403" stroke="#436B1C" stroke-width="2" stroke-linecap="round" sketch:type="MSShapeGroup"></path>
            <path d="M6.777,34.625 L26.777,34.625 M6.777,40.625 L26.777,40.625" id="Stroke-404" stroke="#A46F3E" stroke-width="2" stroke-linecap="round" sketch:type="MSShapeGroup"></path>
        </g>
    </g>
</svg>