<?xml version="1.0" encoding="UTF-8" standalone="no"?>
<svg width="52px" height="52px" viewBox="0 0 52 52" version="1.1" xmlns="http://www.w3.org/2000/svg" xmlns:xlink="http://www.w3.org/1999/xlink" xmlns:sketch="http://www.bohemiancoding.com/sketch/ns">
    <!-- Generator: Sketch 3.2.2 (9983) - http://www.bohemiancoding.com/sketch -->
    <title>215 - Avocado (Flat)</title>
    <desc>Created with Sketch.</desc>
    <defs></defs>
    <g id="Page-1" stroke="none" stroke-width="1" fill="none" fill-rule="evenodd" sketch:type="MSPage">
        <g id="215---Avocado-(Flat)" sketch:type="MSLayerGroup" transform="translate(0.000000, 1.000000)">
            <path d="M40.947,3.556 C43.468,0.284 47.619,-0.738 50.227,1.272" id="Stroke-230" stroke="#4C312C" stroke-width="2" stroke-linecap="round" sketch:type="MSShapeGroup"></path>
            <path d="M6.984,48.287 L6.984,48.287 C-1.12,42.503 -0.793,31.247 4.638,22.429 C6.623,19.206 9.342,16.499 12.423,14.298 L27.005,3.882 C30.821,0.578 35.264,-0.329 39.516,2.706 C43.768,5.74 44.355,10.237 42.47,14.92 L37.36,32.096 C36.281,35.724 34.604,39.176 32.201,42.101 C25.628,50.103 15.089,54.072 6.984,48.287" id="Fill-231" fill="#436B1C" sketch:type="MSShapeGroup"></path>
            <path d="M9.653,44.549 L9.653,44.549 C3.695,40.297 4.541,31.174 9.202,23.755 C10.906,21.043 13.15,18.709 15.646,16.767 L23.537,11.727 C25.96,10.179 28.351,8.574 30.587,6.767 C32.813,4.967 34.737,4.208 37.192,5.961 C39.711,7.759 39.563,9.895 38.52,12.69 C37.867,14.438 37.296,16.22 36.855,18.033 L33.977,29.85 C32.952,32.842 31.474,35.723 29.464,38.216 C23.963,45.035 15.61,48.801 9.653,44.549" id="Fill-232" fill="#F9EB80" sketch:type="MSShapeGroup"></path>
            <path d="M24.094,36.994 C21.262,40.962 16.284,42.266 12.977,39.906 C9.67,37.545 9.285,32.415 12.117,28.446 C14.95,24.477 22.492,19.581 25.799,21.941 C29.106,24.301 26.927,33.025 24.094,36.994" id="Fill-233" fill="#A46F3E" sketch:type="MSShapeGroup"></path>
            <path d="M15.417,34.037 C15.554,34.854 15.002,35.627 14.185,35.763 C13.368,35.9 12.595,35.348 12.458,34.531 C12.322,33.714 12.874,32.941 13.691,32.804 C14.508,32.668 15.281,33.22 15.417,34.037" id="Fill-234" fill="#DC9628" sketch:type="MSShapeGroup"></path>
            <path d="M19.444,30.83 C19.581,31.646 19.029,32.419 18.212,32.556 C17.395,32.693 16.622,32.141 16.485,31.324 C16.349,30.507 16.9,29.734 17.717,29.597 C18.534,29.46 19.307,30.012 19.444,30.83" id="Fill-235" fill="#DC9628" sketch:type="MSShapeGroup"></path>
            <path d="M19.857,36.336 C19.994,37.154 19.442,37.927 18.625,38.063 C17.808,38.2 17.035,37.648 16.898,36.831 C16.762,36.014 17.313,35.241 18.13,35.104 C18.948,34.968 19.721,35.52 19.857,36.336" id="Fill-236" fill="#DC9628" sketch:type="MSShapeGroup"></path>
        </g>
    </g>
</svg>