<?xml version="1.0" encoding="UTF-8" standalone="no"?>
<svg width="57px" height="57px" viewBox="0 0 57 57" version="1.1" xmlns="http://www.w3.org/2000/svg" xmlns:xlink="http://www.w3.org/1999/xlink" xmlns:sketch="http://www.bohemiancoding.com/sketch/ns">
    <!-- Generator: Sketch 3.2.2 (9983) - http://www.bohemiancoding.com/sketch -->
    <title>83 - Baguette (Flat)</title>
    <desc>Created with Sketch.</desc>
    <defs></defs>
    <g id="Page-1" stroke="none" stroke-width="1" fill="none" fill-rule="evenodd" sketch:type="MSPage">
        <g id="Icons" sketch:type="MSArtboardGroup" transform="translate(-962.000000, -2038.000000)">
            <g id="83---Baguette-(Flat)" sketch:type="MSLayerGroup" transform="translate(962.000000, 2037.000000)">
                <path d="M7.339,40.648 C7.217,40.977 7.035,41.279 6.791,41.531 C2.06,46.41 -1.791,53.264 0.873,55.928 C3.607,58.662 11.686,58.115 16.583,53.218 L51.583,18.218 C56.48,13.321 57.616,4.652 54.882,1.919 C52.162,-0.802 44.972,2.848 39.768,8.543 C39.718,8.598 39.662,8.641 39.595,8.675 C39.098,8.923 36.803,10.097 35.825,11.075 C34.071,12.83 33.155,15.064 33.098,17.215 C30.946,17.273 28.712,18.188 26.958,19.943 C25.204,21.697 24.288,23.931 24.231,26.083 C22.079,26.14 19.845,27.055 18.091,28.81 C16.336,30.564 15.421,32.798 15.363,34.95 C13.212,35.007 10.978,35.923 9.224,37.677 C8.266,38.634 7.746,39.545 7.339,40.648" id="Fill-536" fill="#D99F4C" sketch:type="MSShapeGroup"></path>
                <path d="M39.768,8.543 C39.718,8.598 39.662,8.641 39.595,8.675 C39.433,8.756 39.071,8.942 38.635,9.18 C38.621,9.471 38.626,9.746 38.655,9.988 C38.858,11.672 39.93,13.144 41.755,14.249 C41.917,14.346 42.094,14.393 42.271,14.393 C42.609,14.393 42.94,14.222 43.128,13.911 C43.414,13.438 43.262,12.824 42.79,12.538 C41.898,11.998 40.801,11.076 40.64,9.748 C40.513,8.702 40.989,7.529 42.012,6.327 C41.238,7.021 40.484,7.76 39.768,8.543" id="Fill-537" fill="#EBC494" sketch:type="MSShapeGroup"></path>
                <path d="M34.735,22.237 C34.902,22.343 35.088,22.394 35.271,22.394 C35.601,22.394 35.925,22.229 36.116,21.931 C36.413,21.465 36.275,20.847 35.809,20.55 C34.554,19.751 33.768,18.442 33.595,16.864 C33.455,15.589 33.714,14.269 34.302,13.066 C33.543,14.381 33.135,15.815 33.098,17.215 C32.619,17.228 32.137,17.29 31.656,17.388 C31.964,19.443 33.043,21.16 34.735,22.237" id="Fill-538" fill="#EBC494" sketch:type="MSShapeGroup"></path>
                <path d="M25.73,31.234 C25.898,31.342 26.086,31.394 26.271,31.394 C26.599,31.394 26.922,31.232 27.113,30.935 C27.412,30.471 27.278,29.853 26.814,29.552 C25.218,28.525 24.744,27 24.627,25.901 C24.491,24.629 24.769,23.275 25.372,22.036 C24.651,23.323 24.267,24.719 24.231,26.082 C23.711,26.096 23.186,26.163 22.664,26.277 C22.933,28.369 24.012,30.126 25.73,31.234" id="Fill-539" fill="#EBC494" sketch:type="MSShapeGroup"></path>
                <path d="M17.792,39.27 C17.944,39.354 18.109,39.393 18.271,39.393 C18.625,39.393 18.967,39.206 19.149,38.874 C19.415,38.39 19.237,37.781 18.753,37.517 C17.009,36.562 16.025,35.379 15.828,34 C15.69,33.034 15.953,31.946 16.547,30.835 C15.8,32.141 15.401,33.562 15.363,34.95 C14.924,34.961 14.481,35.018 14.039,35.101 C14.433,36.399 15.42,37.971 17.792,39.27" id="Fill-540" fill="#EBC494" sketch:type="MSShapeGroup"></path>
                <path d="M8.686,47.204 C8.863,47.332 9.068,47.393 9.271,47.393 C9.582,47.393 9.886,47.25 10.083,46.979 C10.406,46.532 10.305,45.907 9.858,45.583 C8.073,44.292 7.114,42.973 7.009,41.664 C6.998,41.528 6.999,41.39 7.007,41.252 C6.939,41.347 6.873,41.445 6.791,41.531 C6.284,42.054 5.79,42.603 5.31,43.164 C5.816,44.588 6.943,45.943 8.686,47.204" id="Fill-541" fill="#EBC494" sketch:type="MSShapeGroup"></path>
            </g>
        </g>
    </g>
</svg>