<?xml version="1.0" encoding="UTF-8" standalone="no"?>
<svg width="46px" height="52px" viewBox="0 0 46 52" version="1.1" xmlns="http://www.w3.org/2000/svg" xmlns:xlink="http://www.w3.org/1999/xlink" xmlns:sketch="http://www.bohemiancoding.com/sketch/ns">
    <!-- Generator: Sketch 3.2.2 (9983) - http://www.bohemiancoding.com/sketch -->
    <title>143 - Beer Pint (Flat)</title>
    <desc>Created with Sketch.</desc>
    <defs></defs>
    <g id="Page-1" stroke="none" stroke-width="1" fill="none" fill-rule="evenodd" sketch:type="MSPage">
        <g id="143---Beer-Pint-(Flat)" sketch:type="MSLayerGroup">
            <path d="M41.932,20.232 L35.932,20.232 L35.932,24.231 L39.932,24.231 C41.032,24.231 41.932,25.132 41.932,26.232 L41.932,36.231 C41.932,37.332 41.032,38.232 39.932,38.232 L35.932,38.232 L35.932,42.231 L41.932,42.231 C44.132,42.231 45.932,40.432 45.932,38.232 L45.932,24.231 C45.932,22.031 44.132,20.232 41.932,20.232" id="Fill-860" fill="#E6E6E6" sketch:type="MSShapeGroup"></path>
            <path d="M29.932,4 C28.549,4 27.28,4.472 26.265,5.258 C25.269,3.325 23.257,2 20.932,2 C20.084,2 19.277,2.178 18.546,2.496 C17.356,0.978 15.51,0 13.432,0 C10.308,0 7.7,2.205 7.076,5.144 C6.707,5.057 6.328,5 5.932,5 C3.171,5 0.932,7.238 0.932,10 L0.932,18 C0.932,19.1 1.832,20 2.932,20 L3.932,20 C5.032,20 5.932,19.1 5.932,18 L5.932,16.404 C6.538,16.774 7.242,17 8,17 L9.967,17 C11.242,17 12.369,16.385 13.103,15.448 C14.192,16.987 15.982,18 18,18 C21.3,18 24,15.3 24,12 L35.583,12 C35.805,11.373 35.932,10.702 35.932,10 C35.932,6.686 33.246,4 29.932,4" id="Fill-861" fill="#E6E6E6" sketch:type="MSShapeGroup"></path>
            <path d="M24,12 C24,15.3 21.3,18 18,18 C15.982,18 14.192,16.987 13.103,15.448 C12.369,16.385 11.242,17 9.967,17 L8,17 C7.242,17 6.538,16.774 5.932,16.404 L5.932,47 C5.932,49.75 8.182,52 10.932,52 L30.932,52 C33.682,52 35.932,49.75 35.932,47 L35.932,12 L24,12" id="Fill-862" fill="#F4C44E" sketch:type="MSShapeGroup"></path>
            <path d="M11.932,25 C11.932,23.35 10.582,22 8.932,22 C7.282,22 5.932,23.35 5.932,25 L5.932,46 L11.932,46 L11.932,25" id="Fill-863" fill="#F9DA49" sketch:type="MSShapeGroup"></path>
            <path d="M17.932,25 C17.932,23.35 16.582,22 14.932,22 C13.282,22 11.932,23.35 11.932,25 L11.932,46 L17.932,46 L17.932,25" id="Fill-864" fill="#EEAF4B" sketch:type="MSShapeGroup"></path>
            <path d="M23.932,25 C23.932,23.35 22.582,22 20.932,22 C19.282,22 17.932,23.35 17.932,25 L17.932,46 L23.932,46 L23.932,25" id="Fill-865" fill="#F9DA49" sketch:type="MSShapeGroup"></path>
            <path d="M29.932,25 C29.932,23.35 28.582,22 26.932,22 C25.282,22 23.932,23.35 23.932,25 L23.932,46 L29.932,46 L29.932,25" id="Fill-866" fill="#EEAF4B" sketch:type="MSShapeGroup"></path>
            <path d="M35.932,25 C35.932,23.35 34.582,22 32.932,22 C31.282,22 29.932,23.35 29.932,25 L29.932,46 L35.932,46 L35.932,25" id="Fill-867" fill="#F9DA49" sketch:type="MSShapeGroup"></path>
        </g>
    </g>
</svg>