<?xml version="1.0" encoding="UTF-8" standalone="no"?>
<svg width="49px" height="53px" viewBox="0 0 49 53" version="1.1" xmlns="http://www.w3.org/2000/svg" xmlns:xlink="http://www.w3.org/1999/xlink" xmlns:sketch="http://www.bohemiancoding.com/sketch/ns">
    <!-- Generator: Sketch 3.2.2 (9983) - http://www.bohemiancoding.com/sketch -->
    <title>207 - Bell Pepper (Flat)</title>
    <desc>Created with Sketch.</desc>
    <defs></defs>
    <g id="Page-1" stroke="none" stroke-width="1" fill="none" fill-rule="evenodd" sketch:type="MSPage">
        <g id="207---Bell-Pepper-(Flat)" sketch:type="MSLayerGroup">
            <path d="M33.468,0.633 C30.311,1.275 27.81,2.598 26.037,4.625 C24.653,6.207 23.936,7.955 23.567,9.495 C24.729,9.446 25.897,9.436 27.049,9.436 C27.35,8.562 27.815,7.648 28.542,6.817 C29.709,5.484 31.371,4.556 33.493,4.027 C33.519,2.894 33.533,1.75 33.468,0.633" id="Fill-237" fill="#6A3311" sketch:type="MSShapeGroup"></path>
            <path d="M24.228,52.633 L24.228,52.633 C18.177,52.633 13.227,47.683 13.227,41.633 L13.227,19.633 C13.227,13.583 18.177,8.633 24.228,8.633 C30.277,8.633 35.227,13.583 35.227,19.633 L35.227,41.633 C35.227,47.683 30.277,52.633 24.228,52.633" id="Fill-238" fill="#A4E869" sketch:type="MSShapeGroup"></path>
            <path d="M37.227,8.633 C34.798,8.633 32.553,9.441 30.727,10.789 C33.447,12.796 35.227,16.013 35.227,19.633 L35.227,41.633 C35.227,45.253 33.447,48.47 30.727,50.478 C32.553,51.825 34.798,52.633 37.227,52.633 C43.278,52.633 46.227,47.683 46.227,41.633 L48.227,19.633 C48.227,13.583 43.278,8.633 37.227,8.633" id="Fill-239" fill="#E3E82A" sketch:type="MSShapeGroup"></path>
            <path d="M11.227,8.633 C13.657,8.633 15.902,9.441 17.727,10.789 C15.008,12.796 13.227,16.013 13.227,19.633 L13.227,41.633 C13.227,45.253 15.008,48.47 17.727,50.478 C15.902,51.825 13.657,52.633 11.227,52.633 C5.177,52.633 2.227,47.683 2.227,41.633 L0.228,19.633 C0.228,13.583 5.177,8.633 11.227,8.633" id="Fill-240" fill="#88C057" sketch:type="MSShapeGroup"></path>
        </g>
    </g>
</svg>