<?xml version="1.0" encoding="UTF-8" standalone="no"?>
<svg width="57px" height="57px" viewBox="0 0 57 57" version="1.1" xmlns="http://www.w3.org/2000/svg" xmlns:xlink="http://www.w3.org/1999/xlink" xmlns:sketch="http://www.bohemiancoding.com/sketch/ns">
    <!-- Generator: Sketch 3.2.2 (9983) - http://www.bohemiancoding.com/sketch -->
    <title>92 - Biscuit (Flat)</title>
    <desc>Created with Sketch.</desc>
    <defs></defs>
    <g id="Page-1" stroke="none" stroke-width="1" fill="none" fill-rule="evenodd" sketch:type="MSPage">
        <g id="Icons" sketch:type="MSArtboardGroup" transform="translate(-1082.000000, -1918.000000)">
            <g id="92---Biscuit-(Flat)" sketch:type="MSLayerGroup" transform="translate(1082.000000, 1918.000000)">
                <path d="M37.58,5.641 C36.831,4.892 35.802,4.593 34.83,4.744 C34.316,4.824 33.883,4.39 33.963,3.876 C34.149,2.679 33.652,1.396 32.473,0.656 C31.464,0.022 30.128,0.028 29.124,0.669 C27.972,1.404 27.481,2.66 27.65,3.839 C27.726,4.372 27.285,4.815 26.752,4.739 C25.79,4.6 24.778,4.901 24.038,5.641 C23.298,6.381 22.998,7.393 23.136,8.355 C23.213,8.887 22.77,9.329 22.238,9.253 C21.277,9.115 20.264,9.415 19.524,10.155 C18.785,10.895 18.484,11.907 18.622,12.869 C18.699,13.401 18.256,13.843 17.724,13.767 C16.763,13.628 15.75,13.929 15.01,14.669 C14.271,15.409 13.97,16.421 14.108,17.383 C14.185,17.915 13.742,18.357 13.21,18.281 C12.249,18.142 11.236,18.443 10.496,19.183 C9.757,19.923 9.456,20.935 9.594,21.897 C9.671,22.429 9.228,22.871 8.696,22.795 C7.735,22.656 6.722,22.957 5.982,23.697 C5.243,24.437 4.942,25.449 5.08,26.411 C5.157,26.944 4.714,27.385 4.181,27.308 C2.994,27.139 1.731,27.637 0.998,28.803 C0.367,29.807 0.367,31.131 0.999,32.135 C1.734,33.303 3.001,33.8 4.189,33.626 C4.718,33.549 5.159,33.988 5.081,34.517 C4.94,35.481 5.24,36.497 5.982,37.239 C6.724,37.981 7.741,38.281 8.705,38.14 C9.233,38.063 9.673,38.503 9.595,39.031 C9.454,39.995 9.754,41.011 10.496,41.753 C11.238,42.495 12.255,42.795 13.219,42.654 C13.747,42.577 14.187,43.017 14.109,43.544 C13.968,44.509 14.268,45.525 15.01,46.267 C15.752,47.009 16.769,47.309 17.733,47.168 C18.261,47.091 18.701,47.531 18.623,48.058 C18.482,49.023 18.782,50.039 19.524,50.781 C20.266,51.523 21.282,51.823 22.247,51.682 C22.775,51.604 23.214,52.046 23.137,52.574 C22.964,53.755 23.455,55.015 24.608,55.752 C25.613,56.394 26.95,56.401 27.96,55.766 C29.137,55.026 29.634,53.746 29.45,52.551 C29.371,52.034 29.804,51.599 30.321,51.678 C31.292,51.828 32.318,51.529 33.066,50.781 C33.814,50.033 34.113,49.006 33.964,48.035 C33.884,47.52 34.319,47.085 34.835,47.164 C35.806,47.314 36.832,47.015 37.58,46.267 C38.328,45.519 38.627,44.492 38.478,43.521 C38.398,43.005 38.833,42.571 39.349,42.651 C40.32,42.8 41.346,42.501 42.094,41.753 C42.842,41.005 43.141,39.978 42.992,39.007 C42.912,38.491 43.347,38.057 43.863,38.136 C44.834,38.286 45.86,37.987 46.608,37.239 C47.356,36.491 47.655,35.464 47.506,34.493 C47.426,33.977 47.861,33.543 48.377,33.622 C49.348,33.772 50.374,33.473 51.122,32.725 C51.87,31.977 52.169,30.95 52.02,29.979 C51.94,29.463 52.376,29.029 52.892,29.109 C54.088,29.292 55.368,28.796 56.107,27.618 C56.737,26.616 56.737,25.291 56.107,24.289 C55.366,23.111 54.084,22.614 52.887,22.8 C52.373,22.88 51.939,22.448 52.019,21.933 C52.17,20.961 51.871,19.932 51.122,19.183 C50.373,18.434 49.344,18.135 48.372,18.286 C47.858,18.366 47.425,17.933 47.505,17.42 C47.656,16.447 47.358,15.418 46.608,14.669 C45.859,13.92 44.83,13.621 43.857,13.772 C43.344,13.852 42.911,13.419 42.991,12.906 C43.142,11.933 42.844,10.904 42.094,10.155 C41.345,9.406 40.316,9.107 39.344,9.258 C38.83,9.338 38.397,8.905 38.477,8.392 C38.628,7.419 38.329,6.39 37.58,5.641" id="Fill-1223" fill="#E69441" sketch:type="MSShapeGroup"></path>
                <path d="M7.321,29.972 L6.968,30.325 C6.577,30.716 6.577,31.349 6.968,31.739 C7.163,31.934 7.419,32.032 7.675,32.032 C7.931,32.032 8.187,31.934 8.382,31.739 L8.735,31.386 C9.126,30.995 9.126,30.362 8.735,29.972 C8.345,29.581 7.712,29.581 7.321,29.972" id="Fill-1224" fill="#BC633C" sketch:type="MSShapeGroup"></path>
                <path d="M16.164,23.958 L16.518,23.604 C16.908,23.214 16.908,22.581 16.518,22.19 C16.127,21.8 15.494,21.8 15.104,22.19 L14.75,22.544 C14.359,22.934 14.359,23.567 14.75,23.958 C14.945,24.153 15.201,24.251 15.457,24.251 C15.713,24.251 15.969,24.153 16.164,23.958" id="Fill-1225" fill="#BC633C" sketch:type="MSShapeGroup"></path>
                <path d="M12.272,27.848 L12.626,27.495 C13.017,27.104 13.017,26.471 12.626,26.081 C12.235,25.69 11.603,25.69 11.212,26.081 L10.858,26.434 C10.468,26.825 10.468,27.458 10.858,27.848 C11.054,28.044 11.31,28.141 11.565,28.141 C11.821,28.141 12.077,28.044 12.272,27.848" id="Fill-1226" fill="#BC633C" sketch:type="MSShapeGroup"></path>
                <path d="M27.129,12.579 C27.385,12.579 27.641,12.481 27.836,12.286 L28.19,11.931 C28.581,11.541 28.581,10.908 28.19,10.517 C27.8,10.127 27.167,10.127 26.776,10.517 L26.422,10.872 C26.031,11.263 26.031,11.895 26.422,12.286 C26.617,12.481 26.873,12.579 27.129,12.579" id="Fill-1227" fill="#BC633C" sketch:type="MSShapeGroup"></path>
                <path d="M20.055,20.067 L20.408,19.714 C20.799,19.323 20.799,18.69 20.408,18.3 C20.018,17.909 19.385,17.909 18.994,18.3 L18.641,18.653 C18.25,19.044 18.25,19.677 18.641,20.067 C18.836,20.263 19.092,20.36 19.348,20.36 C19.604,20.36 19.859,20.263 20.055,20.067" id="Fill-1228" fill="#BC633C" sketch:type="MSShapeGroup"></path>
                <path d="M23.238,16.469 C23.494,16.469 23.75,16.372 23.945,16.177 L24.299,15.823 C24.689,15.432 24.689,14.8 24.299,14.409 C23.908,14.018 23.275,14.018 22.885,14.409 L22.531,14.763 C22.141,15.153 22.141,15.786 22.531,16.177 C22.727,16.372 22.982,16.469 23.238,16.469" id="Fill-1229" fill="#BC633C" sketch:type="MSShapeGroup"></path>
                <path d="M31.02,8.687 C31.275,8.687 31.531,8.59 31.727,8.394 L32.08,8.041 C32.471,7.65 32.471,7.017 32.08,6.627 C31.689,6.236 31.057,6.236 30.666,6.627 L30.312,6.98 C29.922,7.371 29.922,8.004 30.312,8.394 C30.508,8.59 30.764,8.687 31.02,8.687" id="Fill-1230" fill="#BC633C" sketch:type="MSShapeGroup"></path>
                <path d="M11.835,34.486 L11.481,34.841 C11.092,35.231 11.092,35.865 11.483,36.255 C11.679,36.449 11.934,36.547 12.189,36.547 C12.446,36.547 12.702,36.449 12.897,36.253 L13.251,35.898 C13.641,35.508 13.641,34.874 13.249,34.484 C12.858,34.096 12.226,34.094 11.835,34.486" id="Fill-1231" fill="#BC633C" sketch:type="MSShapeGroup"></path>
                <path d="M16.787,32.362 L17.141,32.009 C17.531,31.618 17.531,30.985 17.141,30.595 C16.75,30.204 16.117,30.204 15.727,30.595 L15.373,30.948 C14.982,31.339 14.982,31.972 15.373,32.362 C15.568,32.557 15.824,32.655 16.08,32.655 C16.336,32.655 16.592,32.557 16.787,32.362" id="Fill-1232" fill="#BC633C" sketch:type="MSShapeGroup"></path>
                <path d="M20.678,28.472 L21.031,28.118 C21.422,27.727 21.422,27.095 21.031,26.704 C20.641,26.313 20.008,26.313 19.617,26.704 L19.264,27.057 C18.873,27.448 18.873,28.081 19.264,28.472 C19.459,28.667 19.715,28.765 19.971,28.765 C20.227,28.765 20.482,28.667 20.678,28.472" id="Fill-1233" fill="#BC633C" sketch:type="MSShapeGroup"></path>
                <path d="M24.568,24.581 L24.922,24.227 C25.313,23.837 25.313,23.204 24.922,22.813 C24.531,22.423 23.898,22.423 23.508,22.813 L23.154,23.167 C22.764,23.557 22.764,24.19 23.154,24.581 C23.35,24.776 23.605,24.874 23.861,24.874 C24.117,24.874 24.373,24.776 24.568,24.581" id="Fill-1234" fill="#BC633C" sketch:type="MSShapeGroup"></path>
                <path d="M31.29,15.031 L30.936,15.385 C30.545,15.776 30.545,16.409 30.936,16.8 C31.131,16.995 31.387,17.093 31.643,17.093 C31.898,17.093 32.154,16.995 32.35,16.8 L32.704,16.445 C33.095,16.055 33.095,15.422 32.704,15.031 C32.313,14.641 31.681,14.641 31.29,15.031" id="Fill-1235" fill="#BC633C" sketch:type="MSShapeGroup"></path>
                <path d="M27.398,18.923 L27.045,19.276 C26.654,19.667 26.654,20.3 27.045,20.69 C27.24,20.886 27.496,20.983 27.752,20.983 C28.008,20.983 28.264,20.886 28.459,20.69 L28.813,20.337 C29.203,19.946 29.203,19.313 28.813,18.923 C28.422,18.532 27.789,18.532 27.398,18.923" id="Fill-1236" fill="#BC633C" sketch:type="MSShapeGroup"></path>
                <path d="M35.534,13.201 C35.79,13.201 36.046,13.103 36.241,12.908 L36.595,12.555 C36.985,12.164 36.985,11.531 36.595,11.14 C36.204,10.75 35.571,10.75 35.181,11.14 L34.827,11.494 C34.437,11.885 34.437,12.517 34.827,12.908 C35.022,13.103 35.278,13.201 35.534,13.201" id="Fill-1237" fill="#BC633C" sketch:type="MSShapeGroup"></path>
                <path d="M16.35,39 L15.996,39.353 C15.605,39.744 15.605,40.377 15.996,40.767 C16.191,40.963 16.447,41.06 16.703,41.06 C16.959,41.06 17.215,40.963 17.41,40.767 L17.764,40.414 C18.154,40.023 18.154,39.391 17.764,39 C17.373,38.609 16.74,38.609 16.35,39" id="Fill-1238" fill="#BC633C" sketch:type="MSShapeGroup"></path>
                <path d="M21.301,36.877 L21.654,36.523 C22.045,36.133 22.045,35.5 21.654,35.109 C21.264,34.719 20.631,34.719 20.24,35.109 L19.887,35.463 C19.496,35.853 19.496,36.486 19.887,36.877 C20.082,37.072 20.338,37.17 20.594,37.17 C20.85,37.17 21.105,37.072 21.301,36.877" id="Fill-1239" fill="#BC633C" sketch:type="MSShapeGroup"></path>
                <path d="M25.191,32.985 L25.545,32.632 C25.936,32.241 25.936,31.608 25.545,31.218 C25.154,30.827 24.521,30.827 24.131,31.218 L23.777,31.571 C23.387,31.962 23.387,32.594 23.777,32.985 C23.973,33.18 24.229,33.278 24.484,33.278 C24.74,33.278 24.996,33.18 25.191,32.985" id="Fill-1240" fill="#BC633C" sketch:type="MSShapeGroup"></path>
                <path d="M32.972,25.205 L33.326,24.851 C33.718,24.462 33.718,23.828 33.328,23.437 C32.938,23.046 32.305,23.046 31.914,23.435 L31.56,23.789 C31.168,24.179 31.168,24.812 31.558,25.203 C31.753,25.399 32.009,25.497 32.266,25.497 C32.521,25.497 32.776,25.399 32.972,25.205" id="Fill-1241" fill="#BC633C" sketch:type="MSShapeGroup"></path>
                <path d="M29.082,29.095 L29.436,28.741 C29.826,28.35 29.826,27.718 29.436,27.327 C29.045,26.936 28.412,26.936 28.021,27.327 L27.668,27.681 C27.277,28.071 27.277,28.704 27.668,29.095 C27.863,29.29 28.119,29.388 28.375,29.388 C28.631,29.388 28.887,29.29 29.082,29.095" id="Fill-1242" fill="#BC633C" sketch:type="MSShapeGroup"></path>
                <path d="M36.864,21.313 L37.218,20.96 C37.608,20.569 37.608,19.936 37.218,19.546 C36.827,19.155 36.194,19.155 35.804,19.546 L35.45,19.899 C35.06,20.29 35.06,20.923 35.45,21.313 C35.646,21.509 35.901,21.606 36.157,21.606 C36.413,21.606 36.669,21.509 36.864,21.313" id="Fill-1243" fill="#BC633C" sketch:type="MSShapeGroup"></path>
                <path d="M40.756,17.422 L41.109,17.067 C41.499,16.677 41.499,16.043 41.107,15.653 C40.716,15.265 40.083,15.265 39.693,15.655 L39.34,16.01 C38.95,16.4 38.95,17.034 39.342,17.424 C39.537,17.618 39.792,17.716 40.048,17.716 C40.305,17.716 40.561,17.618 40.756,17.422" id="Fill-1244" fill="#BC633C" sketch:type="MSShapeGroup"></path>
                <path d="M20.863,43.513 L20.51,43.867 C20.119,44.258 20.119,44.89 20.51,45.281 C20.705,45.476 20.961,45.574 21.217,45.574 C21.473,45.574 21.729,45.476 21.924,45.281 L22.277,44.928 C22.668,44.537 22.668,43.904 22.277,43.513 C21.887,43.123 21.254,43.123 20.863,43.513" id="Fill-1245" fill="#BC633C" sketch:type="MSShapeGroup"></path>
                <path d="M29.706,37.5 L30.06,37.146 C30.45,36.756 30.45,36.123 30.06,35.732 C29.669,35.342 29.036,35.342 28.646,35.732 L28.292,36.086 C27.901,36.476 27.901,37.109 28.292,37.5 C28.487,37.695 28.743,37.793 28.999,37.793 C29.255,37.793 29.511,37.695 29.706,37.5" id="Fill-1246" fill="#BC633C" sketch:type="MSShapeGroup"></path>
                <path d="M25.814,41.391 L26.168,41.037 C26.559,40.646 26.559,40.014 26.168,39.623 C25.777,39.232 25.145,39.232 24.754,39.623 L24.4,39.976 C24.01,40.367 24.01,41 24.4,41.391 C24.596,41.586 24.852,41.683 25.107,41.683 C25.363,41.683 25.619,41.586 25.814,41.391" id="Fill-1247" fill="#BC633C" sketch:type="MSShapeGroup"></path>
                <path d="M41.378,25.827 L41.731,25.474 C42.122,25.083 42.122,24.45 41.731,24.059 C41.341,23.669 40.708,23.669 40.317,24.059 L39.964,24.413 C39.573,24.804 39.573,25.436 39.964,25.827 C40.159,26.022 40.415,26.12 40.671,26.12 C40.927,26.12 41.183,26.022 41.378,25.827" id="Fill-1248" fill="#BC633C" sketch:type="MSShapeGroup"></path>
                <path d="M33.597,33.609 L33.95,33.256 C34.341,32.865 34.341,32.232 33.95,31.842 C33.56,31.451 32.927,31.451 32.536,31.842 L32.183,32.195 C31.792,32.586 31.792,33.219 32.183,33.609 C32.378,33.804 32.634,33.902 32.89,33.902 C33.146,33.902 33.401,33.804 33.597,33.609" id="Fill-1249" fill="#BC633C" sketch:type="MSShapeGroup"></path>
                <path d="M37.488,29.718 L37.842,29.363 C38.231,28.973 38.231,28.339 37.84,27.949 C37.449,27.56 36.816,27.56 36.426,27.951 L36.072,28.305 C35.683,28.696 35.683,29.33 36.074,29.72 C36.27,29.914 36.524,30.012 36.78,30.012 C37.037,30.012 37.293,29.914 37.488,29.718" id="Fill-1250" fill="#BC633C" sketch:type="MSShapeGroup"></path>
                <path d="M45.27,21.936 L45.623,21.583 C46.014,21.192 46.014,20.559 45.623,20.169 C45.232,19.778 44.6,19.778 44.209,20.169 L43.855,20.522 C43.465,20.913 43.465,21.546 43.855,21.936 C44.051,22.132 44.307,22.229 44.563,22.229 C44.818,22.229 45.074,22.132 45.27,21.936" id="Fill-1251" fill="#BC633C" sketch:type="MSShapeGroup"></path>
                <path d="M25.378,48.027 L25.024,48.381 C24.634,48.771 24.634,49.404 25.024,49.795 C25.22,49.99 25.476,50.088 25.731,50.088 C25.987,50.088 26.243,49.99 26.438,49.795 L26.792,49.441 C27.183,49.051 27.183,48.418 26.792,48.027 C26.401,47.637 25.769,47.637 25.378,48.027" id="Fill-1252" fill="#BC633C" sketch:type="MSShapeGroup"></path>
                <path d="M33.159,40.246 L32.806,40.599 C32.415,40.99 32.415,41.623 32.806,42.013 C33.001,42.209 33.257,42.306 33.513,42.306 C33.769,42.306 34.024,42.209 34.22,42.013 L34.573,41.66 C34.964,41.269 34.964,40.636 34.573,40.246 C34.183,39.855 33.55,39.855 33.159,40.246" id="Fill-1253" fill="#BC633C" sketch:type="MSShapeGroup"></path>
                <path d="M29.269,44.137 L28.915,44.49 C28.524,44.881 28.524,45.514 28.915,45.904 C29.11,46.099 29.366,46.197 29.622,46.197 C29.878,46.197 30.134,46.099 30.329,45.904 L30.683,45.551 C31.073,45.16 31.073,44.527 30.683,44.137 C30.292,43.746 29.659,43.746 29.269,44.137" id="Fill-1254" fill="#BC633C" sketch:type="MSShapeGroup"></path>
                <path d="M37.05,36.355 L36.696,36.709 C36.306,37.099 36.306,37.732 36.696,38.123 C36.892,38.318 37.147,38.416 37.403,38.416 C37.659,38.416 37.915,38.318 38.11,38.123 L38.464,37.769 C38.854,37.379 38.854,36.746 38.464,36.355 C38.073,35.965 37.44,35.965 37.05,36.355" id="Fill-1255" fill="#BC633C" sketch:type="MSShapeGroup"></path>
                <path d="M44.832,28.573 L44.478,28.928 C44.087,29.318 44.087,29.951 44.478,30.342 C44.673,30.537 44.929,30.635 45.185,30.635 C45.44,30.635 45.696,30.537 45.892,30.342 L46.246,29.987 C46.637,29.597 46.637,28.964 46.246,28.573 C45.855,28.182 45.223,28.182 44.832,28.573" id="Fill-1256" fill="#BC633C" sketch:type="MSShapeGroup"></path>
                <path d="M40.94,32.465 L40.587,32.818 C40.196,33.209 40.196,33.842 40.587,34.232 C40.782,34.428 41.038,34.525 41.294,34.525 C41.55,34.525 41.806,34.428 42.001,34.232 L42.354,33.879 C42.745,33.488 42.745,32.855 42.354,32.465 C41.964,32.074 41.331,32.074 40.94,32.465" id="Fill-1257" fill="#BC633C" sketch:type="MSShapeGroup"></path>
                <path d="M50.137,24.682 C49.746,24.292 49.113,24.292 48.723,24.682 L48.369,25.036 C47.979,25.427 47.979,26.059 48.369,26.45 C48.564,26.645 48.82,26.743 49.076,26.743 C49.332,26.743 49.588,26.645 49.783,26.45 L50.137,26.096 C50.527,25.706 50.527,25.073 50.137,24.682" id="Fill-1258" fill="#BC633C" sketch:type="MSShapeGroup"></path>
            </g>
        </g>
    </g>
</svg>