<?xml version="1.0" encoding="UTF-8" standalone="no"?>
<svg width="44px" height="54px" viewBox="0 0 44 54" version="1.1" xmlns="http://www.w3.org/2000/svg" xmlns:xlink="http://www.w3.org/1999/xlink" xmlns:sketch="http://www.bohemiancoding.com/sketch/ns">
    <!-- Generator: Sketch 3.2.2 (9983) - http://www.bohemiancoding.com/sketch -->
    <title>219 - Bitten Apple (Flat)</title>
    <desc>Created with Sketch.</desc>
    <defs></defs>
    <g id="Page-1" stroke="none" stroke-width="1" fill="none" fill-rule="evenodd" sketch:type="MSPage">
        <g id="219---Bitten-Apple-(Flat)" sketch:type="MSLayerGroup">
            <path d="M22.976,14.543 C23.179,9 26.919,4.646 31.337,4.807" id="Stroke-113" stroke="#4C312C" stroke-width="2" stroke-linecap="round" sketch:type="MSShapeGroup"></path>
            <path d="M22.022,9.427 L21.612,6.672 C21.178,3.762 18.893,1.477 15.983,1.043 L13.228,0.633 L13.638,3.389 C14.071,6.299 16.356,8.584 19.266,9.017 L22.022,9.427" id="Fill-114" fill="#659C35" sketch:type="MSShapeGroup"></path>
            <path d="M40.228,36.683 C40.228,35.997 40.404,35.354 40.712,34.793 C41.098,34.09 41.098,33.276 40.712,32.573 C40.404,32.012 40.228,31.37 40.228,30.683 C40.228,30.023 40.387,29.401 40.671,28.852 C41.002,28.21 41.037,27.465 40.721,26.816 C40.407,26.171 40.228,25.45 40.228,24.683 C40.228,24.339 40.263,24.003 40.329,23.678 C40.295,23.678 40.262,23.683 40.228,23.683 C36.914,23.683 34.228,20.997 34.228,17.683 C34.228,17.081 34.317,16.499 34.482,15.951 C34.91,14.536 33.746,13.112 32.27,13.202 C30.504,13.31 28.634,13.638 26.701,14.096 C24.264,14.674 21.728,14.653 19.29,14.079 C8.799,11.607 0.126,12.959 0.228,32.866 C0.284,43.655 10.773,56.714 21.418,52.982 C22.472,52.613 23.601,52.617 24.655,52.985 C31.963,55.541 39.192,50.183 43.024,43.082 C43.592,42.028 43.222,40.731 42.191,40.122 C41.016,39.427 40.228,38.148 40.228,36.683" id="Fill-115" fill="#E6E6E6" sketch:type="MSShapeGroup"></path>
            <path d="M19.176,35.866 C18.905,37.111 17.676,37.901 16.431,37.63 C15.185,37.359 14.395,36.129 14.666,34.884 C14.937,33.639 18.533,27.854 18.557,27.859 C18.557,27.859 19.447,34.62 19.176,35.866" id="Fill-116" fill="#4C312C" sketch:type="MSShapeGroup"></path>
            <path d="M26.279,35.866 C26.55,37.111 27.779,37.901 29.025,37.63 C30.27,37.359 31.06,36.129 30.789,34.884 C30.518,33.639 26.922,27.854 26.898,27.859 C26.898,27.859 26.008,34.62 26.279,35.866" id="Fill-117" fill="#4C312C" sketch:type="MSShapeGroup"></path>
        </g>
    </g>
</svg>