<?xml version="1.0" encoding="UTF-8" standalone="no"?>
<svg width="54px" height="48px" viewBox="0 0 54 48" version="1.1" xmlns="http://www.w3.org/2000/svg" xmlns:xlink="http://www.w3.org/1999/xlink" xmlns:sketch="http://www.bohemiancoding.com/sketch/ns">
    <!-- Generator: Sketch 3.2.2 (9983) - http://www.bohemiancoding.com/sketch -->
    <title>217 - Blueberries (Flat)</title>
    <desc>Created with Sketch.</desc>
    <defs></defs>
    <g id="Page-1" stroke="none" stroke-width="1" fill="none" fill-rule="evenodd" sketch:type="MSPage">
        <g id="217---Blueberries-(Flat)" sketch:type="MSLayerGroup">
            <path d="M39.912,0.433 C32.388,0.433 26.289,6.532 26.289,14.056 C26.289,16.299 26.841,18.409 27.801,20.275 C29.297,19.71 30.911,19.387 32.604,19.387 C37.886,19.387 42.455,22.398 44.716,26.792 C49.866,24.847 53.535,19.887 53.535,14.056 C53.535,6.532 47.436,0.433 39.912,0.433" id="Fill-133" fill="#003879" sketch:type="MSShapeGroup"></path>
            <path d="M18.981,33.01 C18.981,27.358 22.424,22.511 27.326,20.449 C26.399,13.827 20.728,8.726 13.85,8.726 C6.327,8.726 0.228,14.825 0.228,22.349 C0.228,29.872 6.327,35.972 13.85,35.972 C15.722,35.972 17.505,35.593 19.129,34.91 C19.042,34.287 18.981,33.656 18.981,33.01" id="Fill-134" fill="#1A49C1" sketch:type="MSShapeGroup"></path>
            <path d="M47.63,33.01 C47.63,41.198 40.992,47.835 32.804,47.835 C24.617,47.835 17.979,41.198 17.979,33.01 C17.979,24.822 24.617,18.185 32.804,18.185 C40.992,18.185 47.63,24.822 47.63,33.01" id="Fill-135" fill="#415CCE" sketch:type="MSShapeGroup"></path>
            <path d="M35.824,28.633 L33.659,26.794 C32.96,26.201 31.922,26.151 31.171,26.669 L28.329,28.633 M26.478,25.077 L28.833,25.077 C29.697,25.077 30.482,24.56 30.642,23.923 L31.092,22.135 M33.454,22.135 L33.58,23.58 C33.634,24.192 34.319,24.745 35.174,24.821 L38.068,25.077 M16.983,18.131 L14.818,16.292 C14.119,15.699 13.081,15.649 12.33,16.167 L9.489,18.131 M7.637,14.575 L9.992,14.575 C10.856,14.575 11.641,14.058 11.801,13.421 L12.252,11.633 M14.613,11.633 L14.739,13.078 C14.793,13.689 15.478,14.243 16.333,14.319 L19.227,14.575" id="Stroke-136" stroke="#121C60" stroke-width="2" stroke-linecap="round" stroke-linejoin="round" sketch:type="MSShapeGroup"></path>
            <path d="M42.983,9.633 L40.818,7.794 C40.119,7.201 39.081,7.151 38.33,7.669 L35.488,9.633 M33.637,6.077 L35.992,6.077 C36.856,6.077 37.641,5.56 37.801,4.923 L38.252,3.135 M40.613,3.135 L40.739,4.58 C40.793,5.191 41.478,5.745 42.333,5.821 L45.227,6.077" id="Stroke-137" stroke="#091135" stroke-width="2" stroke-linecap="round" stroke-linejoin="round" sketch:type="MSShapeGroup"></path>
            <path d="M4.125,20.187 C4.125,20.187 3.5,26.391 7.25,28.633" id="Stroke-138" stroke="#3265D6" stroke-width="2" stroke-linecap="round" stroke-linejoin="round" sketch:type="MSShapeGroup"></path>
            <path d="M21.453,31.341 C21.453,31.341 20.828,37.545 24.578,39.787" id="Stroke-139" stroke="#447CE0" stroke-width="2" stroke-linecap="round" stroke-linejoin="round" sketch:type="MSShapeGroup"></path>
            <path d="M30.801,7.88 C30.801,7.879 27.556,13.204 29.969,16.847" id="Stroke-140" stroke="#1951A3" stroke-width="2" stroke-linecap="round" stroke-linejoin="round" sketch:type="MSShapeGroup"></path>
        </g>
    </g>
</svg>