<?xml version="1.0" encoding="UTF-8" standalone="no"?>
<svg width="30px" height="58px" viewBox="0 0 30 58" version="1.1" xmlns="http://www.w3.org/2000/svg" xmlns:xlink="http://www.w3.org/1999/xlink" xmlns:sketch="http://www.bohemiancoding.com/sketch/ns">
    <!-- Generator: Sketch 3.2.2 (9983) - http://www.bohemiancoding.com/sketch -->
    <title>131 - Boiled Egg (Flat)</title>
    <desc>Created with Sketch.</desc>
    <defs></defs>
    <g id="Page-1" stroke="none" stroke-width="1" fill="none" fill-rule="evenodd" sketch:type="MSPage">
        <g id="131---Boiled-Egg-(Flat)" sketch:type="MSLayerGroup">
            <path d="M15.484,26.926 C20.311,26.926 24.75,26.139 28.34,24.828 C28.766,22.839 29,20.723 29,18.525 C29,7.047 21.267,0 14.983,0 C9.636,0 0.967,7.047 0.967,18.525 C0.967,20.566 1.173,22.533 1.543,24.396 C5.302,25.964 10.152,26.926 15.484,26.926" id="Fill-993" fill="#FBD490" sketch:type="MSShapeGroup"></path>
            <path d="M14.983,0 C10.648,0 4.129,3.924 1.818,12.312 C1.95,12.37 2.038,12.408 2.038,12.408 L7.223,9.297 C7.223,9.297 9.945,14.871 10.334,15.519 C10.723,16.167 13.445,12.408 13.445,12.408 L17.593,17.593 L21.741,9.297 L24.852,13.445 L27.725,10.572 C25.273,3.108 19.718,0 14.983,0" id="Fill-994" fill="#F4F4DC" sketch:type="MSShapeGroup"></path>
            <path d="M23,50.604 C19.032,50.325 17,47.039 17,43.062 L17,42.119 C17,40.853 17.743,39.695 18.908,39.199 C24.8,36.692 29.772,30.217 29.772,22.61 C29.772,22.12 29.566,21.213 29.494,21.24 C29.19,21.355 28.931,21.546 28.729,21.785 C28.63,22.517 28.514,23.241 28.363,23.942 C24.901,25.206 20.621,25.965 15.966,25.965 C15.773,25.965 15.585,25.955 15.394,25.952 C15.262,25.954 15.133,25.961 15,25.961 C10.537,25.941 6.4,25.274 2.936,24.148 C2.297,23.941 1.82,23.391 1.707,22.729 C1.706,22.721 1.705,22.714 1.703,22.707 C1.59,22.039 1.14,21.479 0.506,21.24 C0.434,21.213 0.228,22.12 0.228,22.61 C0.228,30.217 5.2,36.692 11.092,39.199 C12.257,39.695 13,40.853 13,42.119 L13,43.062 C13,47.039 10.968,50.325 7,50.604 C0.767,51.041 0.828,52.264 0.828,53.965 C0.828,56.434 3.575,57.943 15,57.964 C26.425,57.943 29.172,56.434 29.172,53.965 C29.172,52.264 29.233,51.041 23,50.604" id="Fill-995" fill="#E6E6E6" sketch:type="MSShapeGroup"></path>
        </g>
    </g>
</svg>