<?xml version="1.0" encoding="UTF-8" standalone="no"?>
<svg width="49px" height="48px" viewBox="0 0 49 48" version="1.1" xmlns="http://www.w3.org/2000/svg" xmlns:xlink="http://www.w3.org/1999/xlink" xmlns:sketch="http://www.bohemiancoding.com/sketch/ns">
    <!-- Generator: Sketch 3.2.2 (9983) - http://www.bohemiancoding.com/sketch -->
    <title>130 - Boiling Pot (Flat)</title>
    <desc>Created with Sketch.</desc>
    <defs></defs>
    <g id="Page-1" stroke="none" stroke-width="1" fill="none" fill-rule="evenodd" sketch:type="MSPage">
        <g id="130---Boiling-Pot-(Flat)" sketch:type="MSLayerGroup" transform="translate(0.000000, 1.000000)">
            <path d="M36.186,47 L12.814,47 C9.051,47 6,43.949 6,40.186 L6,11 L43,11 L43,40.186 C43,43.949 39.949,47 36.186,47" id="Fill-917" fill="#E6E6E6" sketch:type="MSShapeGroup"></path>
            <path d="M0,11 L49,11" id="Stroke-918" stroke="#D2D5D7" stroke-width="2" sketch:type="MSShapeGroup"></path>
            <path d="M43,8 L6,8 C6,5.791 7.791,4 10,4 L39,4 C41.209,4 43,5.791 43,8" id="Fill-919" fill="#D2D5D7" sketch:type="MSShapeGroup"></path>
            <path d="M29,4 L20,4 C20,1.791 21.791,0 24,0 L25,0 C27.209,0 29,1.791 29,4 L29,4 Z" id="Stroke-920" stroke="#D2D5D7" stroke-width="2" sketch:type="MSShapeGroup"></path>
            <path d="M6,40 L6,40.186 C6,43.949 9.051,47 12.814,47 L36.186,47 C39.949,47 43,43.949 43,40.186 L43,40 L6,40" id="Fill-921" fill="#D2D5D7" sketch:type="MSShapeGroup"></path>
            <path d="M9,36 L19,36 M9,32 L16,32 M9,28 L14,28" id="Stroke-922" stroke="#FFFFFF" stroke-width="2" stroke-linecap="round" sketch:type="MSShapeGroup"></path>
        </g>
    </g>
</svg>