<?xml version="1.0" encoding="UTF-8" standalone="no"?>
<svg width="35px" height="46px" viewBox="0 0 35 46" version="1.1" xmlns="http://www.w3.org/2000/svg" xmlns:xlink="http://www.w3.org/1999/xlink" xmlns:sketch="http://www.bohemiancoding.com/sketch/ns">
    <!-- Generator: Sketch 3.2.2 (9983) - http://www.bohemiancoding.com/sketch -->
    <title>150 - Brandy Glass (Flat)</title>
    <desc>Created with Sketch.</desc>
    <defs></defs>
    <g id="Page-1" stroke="none" stroke-width="1" fill="none" fill-rule="evenodd" sketch:type="MSPage">
        <g id="150---Brandy-Glass-(Flat)" sketch:type="MSLayerGroup" transform="translate(1.000000, 1.000000)">
            <path d="M16.013,25.274 L16.013,41.275" id="Fill-788" fill="#DAE7EF" sketch:type="MSShapeGroup"></path>
            <path d="M16.013,25.274 L16.013,41.275" id="Stroke-789" stroke="#BBD7EB" stroke-width="2" stroke-linecap="round" stroke-linejoin="round" sketch:type="MSShapeGroup"></path>
            <path d="M31.797,5.43 L31.797,5.43 C31.476,4.548 30.798,3.875 29.966,3.531 C29.987,3.612 30.013,3.692 30.013,3.775 C30.013,5.708 23.969,7.274 16.513,7.274 C9.057,7.274 3.013,5.708 3.013,3.775 C3.013,3.692 3.039,3.612 3.06,3.531 C2.227,3.875 1.55,4.548 1.229,5.43 C-0.021,8.868 0.067,12.695 1.668,15.984 C4.344,21.484 9.986,25.274 16.513,25.274 C23.04,25.274 28.682,21.484 31.358,15.984 C32.959,12.695 33.047,8.868 31.797,5.43 L31.797,5.43 Z" id="Fill-790" fill="#DAE7EF" sketch:type="MSShapeGroup"></path>
            <path d="M31.797,5.43 L31.797,5.43 C31.476,4.548 30.798,3.875 29.966,3.531 C29.987,3.612 30.013,3.692 30.013,3.775 C30.013,5.708 23.969,7.274 16.513,7.274 C9.057,7.274 3.013,5.708 3.013,3.775 C3.013,3.692 3.039,3.612 3.06,3.531 C2.227,3.875 1.55,4.548 1.229,5.43 C-0.021,8.868 0.067,12.695 1.668,15.984 C4.344,21.484 9.986,25.274 16.513,25.274 C23.04,25.274 28.682,21.484 31.358,15.984 C32.959,12.695 33.047,8.868 31.797,5.43 L31.797,5.43 Z" id="Stroke-791" stroke="#BBD7EB" stroke-linecap="round" stroke-linejoin="round" sketch:type="MSShapeGroup"></path>
            <path d="M16.513,18.417 C9.004,18.417 2.747,17.03 1.333,15.191 C1.441,15.457 1.541,15.725 1.668,15.984 C4.344,21.484 9.986,25.274 16.513,25.274 C23.04,25.274 28.682,21.484 31.358,15.984 C31.485,15.725 31.585,15.457 31.693,15.191 C30.279,17.03 24.022,18.417 16.513,18.417" id="Fill-797" fill="#6A3311" sketch:type="MSShapeGroup"></path>
            <path d="M27.013,41.774 C27.013,43.155 22.088,44.275 16.013,44.275 C9.938,44.275 5.013,43.155 5.013,41.774 C5.013,40.394 9.938,39.275 16.013,39.275 C22.088,39.275 27.013,40.394 27.013,41.774 L27.013,41.774 Z" id="Fill-792" fill="#DAE7EF" sketch:type="MSShapeGroup"></path>
            <path d="M27.013,41.774 C27.013,43.155 22.088,44.275 16.013,44.275 C9.938,44.275 5.013,43.155 5.013,41.774 C5.013,40.394 9.938,39.275 16.013,39.275 C22.088,39.275 27.013,40.394 27.013,41.774 L27.013,41.774 Z" id="Stroke-793" stroke="#BBD7EB" stroke-linecap="round" stroke-linejoin="round" sketch:type="MSShapeGroup"></path>
            <path d="M30.013,3.775 C30.013,5.708 23.969,7.274 16.513,7.274 C9.057,7.274 3.013,5.708 3.013,3.775 C3.013,1.842 9.057,0.275 16.513,0.275 C23.969,0.275 30.013,1.842 30.013,3.775 L30.013,3.775 Z" id="Fill-794" fill="#DAE7EF" sketch:type="MSShapeGroup"></path>
            <path d="M30.013,3.775 C30.013,5.708 23.969,7.274 16.513,7.274 C9.057,7.274 3.013,5.708 3.013,3.775 C3.013,1.842 9.057,0.275 16.513,0.275 C23.969,0.275 30.013,1.842 30.013,3.775 L30.013,3.775 Z" id="Stroke-795" stroke="#BBD7EB" stroke-linecap="round" stroke-linejoin="round" sketch:type="MSShapeGroup"></path>
            <path d="M31.995,14.4530001 C31.995,16.697616 25.064,18.5170003 16.513,18.5170003 C7.962,18.5170003 1.031,16.697616 1.031,14.4530001 C1.031,12.2083842 7.962,10.389 16.513,10.389 C25.064,10.389 31.995,12.2083842 31.995,14.4530001" id="Fill-796" fill="#894C3F" sketch:type="MSShapeGroup"></path>
            <path d="M19.68,21.545 C19.68,22.098 20.127,22.545 20.68,22.545 C21.232,22.545 21.68,22.098 21.68,21.545 C21.68,20.993 21.232,20.545 20.68,20.545 C20.127,20.545 19.68,20.993 19.68,21.545" id="Fill-798" fill="#994530" sketch:type="MSShapeGroup"></path>
            <path d="M10.865,21.108 C10.865,21.66 11.313,22.108 11.865,22.108 C12.417,22.108 12.865,21.66 12.865,21.108 C12.865,20.556 12.417,20.108 11.865,20.108 C11.313,20.108 10.865,20.556 10.865,21.108" id="Fill-799" fill="#994530" sketch:type="MSShapeGroup"></path>
        </g>
    </g>
</svg>