<?xml version="1.0" encoding="UTF-8" standalone="no"?>
<svg width="55px" height="56px" viewBox="0 0 55 56" version="1.1" xmlns="http://www.w3.org/2000/svg" xmlns:xlink="http://www.w3.org/1999/xlink" xmlns:sketch="http://www.bohemiancoding.com/sketch/ns">
    <!-- Generator: Sketch 3.2.2 (9983) - http://www.bohemiancoding.com/sketch -->
    <title>82 - Bread Loaves (Flat)</title>
    <desc>Created with Sketch.</desc>
    <defs></defs>
    <g id="Page-1" stroke="none" stroke-width="1" fill="none" fill-rule="evenodd" sketch:type="MSPage">
        <g id="Icons" sketch:type="MSArtboardGroup" transform="translate(-1083.000000, -2039.000000)">
            <g id="82---Bread-Loaves-(Flat)" sketch:type="MSLayerGroup" transform="translate(1082.000000, 2039.000000)">
                <path d="M7.842,52.679 C-1.942,48.217 10.941,36.108 14.585,31.243 C19.636,24.499 25.875,18.298 32.733,13.395 C36.248,10.882 42.401,4.974 46.964,4.893 C51.606,4.809 51.763,10.109 50.365,12.769 C46.888,19.382 42.299,25.469 37.17,30.869 C35.209,32.934 11.132,55.969 7.842,52.679" id="Fill-1122" fill="#FBD490" sketch:type="MSShapeGroup"></path>
                <path d="M11.057,35.492 C12.459,33.82 13.759,32.345 14.585,31.243 C19.636,24.499 25.875,18.298 32.733,13.395 C33.456,12.878 34.295,12.214 35.205,11.49 C36.285,9.856 37.296,8.179 38.203,6.452 C39.331,4.306 39.205,0.031 35.46,0.098 C31.779,0.164 26.815,4.93 23.98,6.957 C18.448,10.912 13.415,15.914 9.341,21.355 C6.401,25.279 -3.991,35.047 3.901,38.646 C4.803,39.548 7.642,37.996 11.057,35.492" id="Fill-1123" fill="#EEAF4B" sketch:type="MSShapeGroup"></path>
                <path d="M52.925,17.259 C52.023,16.357 49.184,17.909 45.769,20.413 C45.636,20.572 45.51,20.719 45.38,20.874 C42.892,24.411 40.125,27.757 37.17,30.869 C37.022,31.025 36.735,31.313 36.353,31.688 C33.545,34.7 30.507,37.517 27.306,40.067 C25.266,41.872 23.093,43.737 20.954,45.474 C20.129,46.775 19.337,48.094 18.623,49.453 C17.495,51.599 17.621,55.874 21.366,55.807 C25.047,55.741 30.01,50.975 32.846,48.948 C38.378,44.993 43.411,39.991 47.486,34.55 C50.425,30.626 60.817,20.858 52.925,17.259" id="Fill-1124" fill="#EEAF4B" sketch:type="MSShapeGroup"></path>
                <path d="M17.686,43.37 C16.418,44.639 14.365,44.639 13.097,43.37 C11.828,42.102 9.775,42.102 8.507,43.37 M23.806,37.251 C22.537,38.52 20.485,38.52 19.216,37.251 C17.948,35.983 15.895,35.983 14.626,37.251 M29.925,31.131 C28.657,32.4 26.604,32.4 25.336,31.131 C24.067,29.863 22.015,29.863 20.746,31.131 M36.045,25.012 C34.776,26.28 32.724,26.28 31.455,25.012 C30.187,23.743 28.134,23.743 26.866,25.012 M42.164,18.892 C40.896,20.161 38.843,20.161 37.575,18.892 C36.306,17.624 34.254,17.624 32.985,18.892" id="Stroke-1125" stroke="#F1B501" stroke-width="2" stroke-linecap="round" sketch:type="MSShapeGroup"></path>
                <path d="M31.815,10.589 C30.696,11.708 28.885,11.708 27.766,10.589 C26.647,9.47 24.837,9.47 23.718,10.589 M23.161,17.788 C22.042,18.907 20.231,18.907 19.112,17.788 C17.993,16.67 16.182,16.67 15.063,17.788 M15.588,26.443 C14.469,27.562 12.658,27.562 11.54,26.443 C10.421,25.324 8.61,25.324 7.491,26.443 M50.195,28.969 C49.076,30.088 47.265,30.088 46.146,28.969 C45.027,27.85 43.216,27.85 42.097,28.969 M41.54,36.168 C40.422,37.287 38.611,37.287 37.492,36.168 C36.373,35.049 34.562,35.049 33.443,36.168 M33.968,44.823 C32.849,45.942 31.038,45.942 29.919,44.823 C28.8,43.703 26.989,43.703 25.87,44.823" id="Stroke-1126" stroke="#FBD490" stroke-width="2" stroke-linecap="round" sketch:type="MSShapeGroup"></path>
                <path d="M46.754,12.773 C45.697,13.83 43.986,13.83 42.93,12.773 C41.873,11.716 40.162,11.716 39.105,12.773" id="Stroke-1127" stroke="#F1B501" stroke-width="2" stroke-linecap="round" sketch:type="MSShapeGroup"></path>
            </g>
        </g>
    </g>
</svg>