<?xml version="1.0" encoding="UTF-8" standalone="no"?>
<svg width="55px" height="57px" viewBox="0 0 55 57" version="1.1" xmlns="http://www.w3.org/2000/svg" xmlns:xlink="http://www.w3.org/1999/xlink" xmlns:sketch="http://www.bohemiancoding.com/sketch/ns">
    <!-- Generator: Sketch 3.2.2 (9983) - http://www.bohemiancoding.com/sketch -->
    <title>161 - Bread Knife (Flat)</title>
    <desc>Created with Sketch.</desc>
    <defs></defs>
    <g id="Page-1" stroke="none" stroke-width="1" fill="none" fill-rule="evenodd" sketch:type="MSPage">
        <g id="161---Bread-Knife-(Flat)" sketch:type="MSLayerGroup">
            <path d="M35.732,21.108 C35.732,21.108 37.172,19.731 40.354,18.38 C43.365,17.102 46.154,15.309 48.455,12.985 C49.397,12.032 50.299,10.955 50.988,9.797 C50.988,9.797 51.586,8.235 53.999,8.715 C53.999,8.715 55.317,6.622 51.621,2.926 L49.243,0.548 L32.207,17.584 L35.732,21.108" id="Fill-723" fill="#A46F3E" sketch:type="MSShapeGroup"></path>
            <path d="M39.328,15.822 C39.328,16.51 38.77,17.068 38.082,17.068 C37.393,17.068 36.835,16.51 36.835,15.822 C36.835,15.133 37.393,14.575 38.082,14.575 C38.77,14.575 39.328,15.133 39.328,15.822" id="Fill-724" fill="#D2D5D7" sketch:type="MSShapeGroup"></path>
            <path d="M49.901,6.423 C49.901,7.111 49.344,7.669 48.655,7.669 C47.967,7.669 47.409,7.111 47.409,6.423 C47.409,5.734 47.967,5.177 48.655,5.177 C49.344,5.177 49.901,5.734 49.901,6.423" id="Fill-725" fill="#D2D5D7" sketch:type="MSShapeGroup"></path>
            <path d="M1.219,54.674 C2.886,56.85 5.893,57.214 8.007,55.763 C8.499,55.427 9.012,55.126 9.566,54.907 C10.478,54.546 11.17,53.939 10.786,52.556 C10.288,50.759 11.339,49.708 13.136,50.206 C14.934,50.705 15.984,49.654 15.486,47.857 C14.987,46.059 16.038,45.008 17.836,45.507 C19.633,46.005 20.684,44.954 20.185,43.157 C19.687,41.36 20.738,40.309 22.535,40.807 C24.332,41.306 25.383,40.255 24.885,38.458 C24.386,36.66 25.437,35.609 27.234,36.108 C29.032,36.606 30.083,35.555 29.584,33.758 C29.085,31.961 30.136,30.91 31.934,31.409 C33.731,31.907 34.782,30.856 34.283,29.059 C33.785,27.261 34.836,26.21 36.633,26.709 C37.917,27.065 38.82,26.631 39.05,25.698 C39.216,25.023 38.938,24.314 38.446,23.822 L32.207,17.584 L1.793,47.998 C0.004,49.787 -0.32,52.665 1.219,54.674" id="Fill-726" fill="#D2D5D7" sketch:type="MSShapeGroup"></path>
        </g>
    </g>
</svg>