<?xml version="1.0" encoding="UTF-8" standalone="no"?>
<svg width="57px" height="56px" viewBox="0 0 57 56" version="1.1" xmlns="http://www.w3.org/2000/svg" xmlns:xlink="http://www.w3.org/1999/xlink" xmlns:sketch="http://www.bohemiancoding.com/sketch/ns">
    <!-- Generator: Sketch 3.2.2 (9983) - http://www.bohemiancoding.com/sketch -->
    <title>202 - Broccoli (Flat)</title>
    <desc>Created with Sketch.</desc>
    <defs></defs>
    <g id="Page-1" stroke="none" stroke-width="1" fill="none" fill-rule="evenodd" sketch:type="MSPage">
        <g id="202---Broccoli-(Flat)" sketch:type="MSLayerGroup">
            <path d="M45.388,13.155 C45.388,12.16 44.824,11.304 44.001,10.849 C44.39,10.053 44.615,9.164 44.615,8.222 C44.615,4.869 41.848,2.151 38.435,2.151 C37.543,2.151 36.697,2.34 35.931,2.675 C35.018,1.439 33.541,0.633 31.869,0.633 C29.974,0.633 28.325,1.665 27.47,3.187 C26.528,2.537 25.382,2.151 24.143,2.151 C20.943,2.151 18.349,4.699 18.349,7.843 C18.349,8.078 18.368,8.308 18.396,8.536 C16.123,9.305 14.487,11.419 14.487,13.914 C14.487,15.86 15.482,17.576 16.998,18.602 C16.393,19.417 16.032,20.417 16.032,21.503 C16.032,24.228 18.28,26.436 21.053,26.436 C22.214,26.436 23.28,26.045 24.13,25.396 C25.25,26.942 27.086,27.954 29.165,27.954 C31.363,27.954 33.288,26.823 34.384,25.125 C35.121,26.362 36.484,27.195 38.049,27.195 C40.395,27.195 42.298,25.326 42.298,23.021 C42.298,22.504 42.197,22.011 42.022,21.554 C43.546,20.919 44.615,19.437 44.615,17.708 C44.615,16.89 44.372,16.129 43.957,15.485 C44.805,15.036 45.388,14.167 45.388,13.155" id="Fill-173" fill="#88C057" sketch:type="MSShapeGroup"></path>
            <path d="M23.074,25.999 C22.454,26.27 21.776,26.436 21.053,26.436 C18.28,26.436 16.032,24.228 16.032,21.503 C16.032,20.417 16.393,19.417 16.998,18.602 C15.482,17.576 14.487,15.86 14.487,13.914 C14.487,12.972 14.722,12.084 15.135,11.302 C13.478,10.318 11.296,10.516 9.866,11.921 C9.74,12.045 9.627,12.176 9.52,12.31 C7.912,11.54 5.92,11.807 4.585,13.119 C3.544,14.142 3.149,15.558 3.396,16.881 C2.642,16.997 1.917,17.336 1.336,17.907 C-0.123,19.339 -0.123,21.662 1.336,23.094 C1.946,23.694 2.715,24.039 3.51,24.137 C3.272,25.529 3.695,27.008 4.788,28.083 C5.944,29.218 7.561,29.618 9.046,29.291 C8.772,30.322 9.043,31.464 9.866,32.272 C11.1,33.484 13.1,33.484 14.334,32.272 C14.611,32 14.822,31.689 14.974,31.358 C16.115,31.812 17.471,31.584 18.396,30.676 C18.834,30.246 19.113,29.72 19.24,29.167 C19.926,29.369 20.697,29.213 21.239,28.681 C21.771,28.158 21.934,27.417 21.744,26.751 C22.221,26.588 22.662,26.32 23.074,25.999" id="Fill-174" fill="#659C35" sketch:type="MSShapeGroup"></path>
            <path d="M55.726,18.705 C55.6,18.582 55.466,18.47 55.33,18.365 C56.114,16.786 55.842,14.829 54.507,13.518 C53.466,12.495 52.024,12.106 50.677,12.35 C50.559,11.609 50.214,10.896 49.633,10.325 C48.175,8.893 45.81,8.893 44.352,10.325 C44.257,10.419 44.179,10.523 44.096,10.624 C44.063,10.699 44.036,10.776 44,10.849 C44.825,11.304 45.388,12.16 45.388,13.155 C45.388,14.167 44.805,15.036 43.958,15.484 C44.372,16.129 44.615,16.89 44.615,17.708 C44.615,19.437 43.546,20.919 42.022,21.553 C42.197,22.011 42.298,22.504 42.298,23.021 C42.298,25.326 40.395,27.195 38.049,27.195 C37.499,27.195 36.977,27.087 36.496,26.9 C36.548,26.959 36.578,27.029 36.635,27.085 C37.073,27.515 37.608,27.79 38.171,27.914 C37.965,28.588 38.124,29.346 38.666,29.878 C39.198,30.401 39.953,30.561 40.629,30.375 C40.85,30.994 41.208,31.577 41.712,32.073 C43.507,33.836 46.416,33.836 48.211,32.073 C48.68,31.612 49.024,31.075 49.248,30.504 C50.388,30.682 51.597,30.343 52.476,29.479 C53.472,28.5 53.787,27.106 53.422,25.864 C54.265,25.72 55.074,25.331 55.726,24.69 C57.408,23.038 57.408,20.358 55.726,18.705" id="Fill-175" fill="#659C35" sketch:type="MSShapeGroup"></path>
            <path d="M40.629,30.375 C39.953,30.561 39.198,30.401 38.666,29.878 C38.349,29.567 38.163,29.178 38.104,28.774 C38.072,28.549 37.995,28.332 37.883,28.139 C33.964,32.184 31.228,39.633 31.228,39.633 C32.528,35.007 32.324,30.392 31.921,27.312 C31.091,27.721 30.156,27.954 29.165,27.954 C28.199,27.954 27.29,27.728 26.476,27.339 C28.228,33.53 27.228,43.633 27.228,43.633 C25.354,36.138 21.233,31.452 19.286,29.575 C19.147,29.684 19.022,29.809 18.934,29.967 C18.794,30.222 18.615,30.461 18.396,30.676 C17.471,31.584 16.115,31.812 14.975,31.358 C14.822,31.689 14.611,32 14.334,32.272 C14.004,32.596 13.617,32.827 13.207,32.978 C18.228,32.978 23.987,42.972 24.73,53.633 C24.784,54.417 25.441,55.025 26.228,55.025 L31.228,55.025 C31.997,55.025 32.64,54.448 32.726,53.684 C33.185,49.627 34.603,32.672 42.473,32.672 C42.204,32.501 41.947,32.304 41.712,32.073 C41.208,31.577 40.85,30.994 40.629,30.375" id="Fill-176" fill="#436B1C" sketch:type="MSShapeGroup"></path>
            <path d="M23.71,13.633 C21.703,12.849 20.712,10.586 21.496,8.579 C22.28,6.572 24.543,5.58 26.551,6.365" id="Stroke-177" stroke="#659C35" stroke-width="2" stroke-linecap="round" stroke-linejoin="round" sketch:type="MSShapeGroup"></path>
            <path d="M52.898,18.633 C53.763,20.607 52.864,22.908 50.89,23.773 C48.916,24.637 46.615,23.738 45.751,21.764" id="Stroke-178" stroke="#88C057" stroke-width="2" stroke-linecap="round" stroke-linejoin="round" sketch:type="MSShapeGroup"></path>
            <path d="M39.021,15.811 C40.082,17.687 39.42,20.067 37.544,21.127 C35.668,22.187 33.288,21.526 32.228,19.65 M35.642,14.033 C34.704,15.972 32.37,16.784 30.431,15.845 C28.491,14.906 27.679,12.573 28.618,10.633 M28.098,19.506 C27.235,21.48 24.935,22.381 22.96,21.518 C20.985,20.655 20.084,18.354 20.948,16.38 M38.646,4.55 C40.018,6.212 39.782,8.671 38.12,10.043 C36.458,11.414 33.999,11.178 32.627,9.516" id="Stroke-179" stroke="#659C35" stroke-width="2" stroke-linecap="round" stroke-linejoin="round" sketch:type="MSShapeGroup"></path>
            <path d="M13.746,20.567 C12.936,22.564 10.66,23.526 8.663,22.716 C6.667,21.905 5.705,19.63 6.515,17.633" id="Stroke-180" stroke="#88C057" stroke-width="2" stroke-linecap="round" stroke-linejoin="round" sketch:type="MSShapeGroup"></path>
        </g>
    </g>
</svg>