<?xml version="1.0" encoding="UTF-8" standalone="no"?>
<svg width="56px" height="54px" viewBox="0 0 56 54" version="1.1" xmlns="http://www.w3.org/2000/svg" xmlns:xlink="http://www.w3.org/1999/xlink" xmlns:sketch="http://www.bohemiancoding.com/sketch/ns">
    <!-- Generator: Sketch 3.2.2 (9983) - http://www.bohemiancoding.com/sketch -->
    <title>198 - Cabbage (Flat)</title>
    <desc>Created with Sketch.</desc>
    <defs></defs>
    <g id="Page-1" stroke="none" stroke-width="1" fill="none" fill-rule="evenodd" sketch:type="MSPage">
        <g id="198---Cabbage-(Flat)" sketch:type="MSLayerGroup">
            <path d="M47.227,45.633 C55.138,37.96 57.455,25.82 52.4,16.076 C51.951,15.211 51.769,14.214 52.042,13.279 C52.233,12.622 52.585,11.954 53.227,11.633 C53.227,11.633 51.311,8.133 47.227,12.633 C47.227,12.633 39.644,18.55 47.227,28.633 C47.227,28.633 51.04,32.164 48.228,41.633 L47.227,45.633" id="Fill-279" fill="#659C35" sketch:type="MSShapeGroup"></path>
            <path d="M47.227,45.633 L48.228,41.633 C51.04,32.164 47.227,28.633 47.227,28.633 C39.644,18.55 47.227,12.633 47.227,12.633 C47.861,11.935 48.436,11.448 48.965,11.092 C44.385,5.907 37.69,2.633 30.228,2.633 C28.739,2.633 27.284,2.771 25.867,3.02 C24.566,0.125 22.228,0.633 22.228,0.633 C20.22,0.633 19.857,3.705 19.792,4.916 C17.042,6.181 14.56,7.927 12.458,10.052 C11.343,11.069 10.311,12.18 9.39,13.382 C9.482,13.394 9.575,13.408 9.665,13.419 C1.625,12.231 0.423,15.521 0.249,16.446 C0.224,16.583 0.222,16.721 0.238,16.859 C0.505,19.081 2.034,20.276 3.027,20.828 C3.534,21.109 3.77,21.694 3.652,22.261 C-1.164,45.413 26.883,62.512 45.093,47.842 C45.21,47.749 45.297,47.637 45.372,47.52 C45.967,47.066 47.319,45.544 47.227,45.633" id="Fill-280" fill="#A4E869" sketch:type="MSShapeGroup"></path>
            <path d="M10.102,13.479 C10.138,13.485 10.17,13.49 10.207,13.499 C10.892,13.659 17.762,15.498 20.091,25.188 C20.091,25.188 20.573,29.411 25.146,30.363 C25.344,30.404 25.545,30.355 25.748,30.343 C28.688,30.162 35.167,28.314 35.106,35.803 C35.106,35.803 32.86,45.906 44.217,45.488 C44.468,45.479 44.724,45.538 44.94,45.667 C44.957,45.677 44.968,45.691 44.984,45.701 C50.599,30.287 38.227,28.633 38.227,28.633 C38.227,28.633 23.977,28.008 26.227,13.633 C28.477,-0.742 22.228,0.633 22.228,0.633 C19.728,0.633 19.777,5.403 19.777,5.403 C15.667,7.072 12.081,9.868 9.39,13.382 C9.628,13.414 9.851,13.438 10.102,13.479" id="Fill-281" fill="#88C057" sketch:type="MSShapeGroup"></path>
            <path d="M45.093,47.842 C26.883,62.512 -1.164,45.413 3.652,22.261 C3.77,21.694 3.534,21.109 3.027,20.828 C2.034,20.276 0.505,19.081 0.238,16.859 C0.222,16.721 0.224,16.583 0.249,16.446 C0.426,15.504 1.652,12.097 10.102,13.479 C10.138,13.485 10.17,13.491 10.207,13.499 C10.892,13.659 17.762,15.498 20.091,25.188 C20.091,25.188 20.573,29.411 25.146,30.363 C25.344,30.404 25.545,30.355 25.748,30.343 C28.688,30.162 35.167,28.314 35.106,35.803 C35.106,35.803 32.86,45.906 44.217,45.488 C44.468,45.479 44.724,45.538 44.94,45.667 C45.733,46.138 45.811,47.264 45.093,47.842" id="Fill-282" fill="#659C35" sketch:type="MSShapeGroup"></path>
        </g>
    </g>
</svg>