<?xml version="1.0" encoding="UTF-8" standalone="no"?>
<svg width="54px" height="55px" viewBox="0 0 54 55" version="1.1" xmlns="http://www.w3.org/2000/svg" xmlns:xlink="http://www.w3.org/1999/xlink" xmlns:sketch="http://www.bohemiancoding.com/sketch/ns">
    <!-- Generator: Sketch 3.2.2 (9983) - http://www.bohemiancoding.com/sketch -->
    <title>167 - Cake Knife (Flat)</title>
    <desc>Created with Sketch.</desc>
    <defs></defs>
    <g id="Page-1" stroke="none" stroke-width="1" fill="none" fill-rule="evenodd" sketch:type="MSPage">
        <g id="167---Cake-Knife-(Flat)" sketch:type="MSLayerGroup">
            <path d="M53.896,6.489 C53.896,6.489 53.828,4.7 51.928,2.8 L51.927,2.8 C51.927,2.8 50.037,0.802 48.238,0.833 C48.238,0.833 37.852,5.296 30.161,18.91 C30.161,18.91 30.228,20.699 32.128,22.599 L32.129,22.598 C32.129,22.598 34.02,24.597 35.818,24.566 C35.818,24.566 46.204,20.103 53.896,6.489" id="Fill-459" fill="#A46F3E" sketch:type="MSShapeGroup"></path>
            <path d="M22.945,30.916 L30.973,22.887" id="Fill-460" fill="#D2D5D7" sketch:type="MSShapeGroup"></path>
            <path d="M22.945,30.916 L30.973,22.887" id="Stroke-461" stroke="#D2D5D7" stroke-width="2" stroke-linecap="round" sketch:type="MSShapeGroup"></path>
            <path d="M22.32,27.332 L27.518,32.53 C29.783,34.795 29.783,38.502 27.518,40.767 L16.433,51.851 C12.739,55.546 6.693,55.546 2.999,51.851 C-0.696,48.157 -0.696,42.111 2.999,38.416 L14.083,27.332 C16.348,25.067 20.055,25.067 22.32,27.332" id="Fill-462" fill="#E6E6E6" sketch:type="MSShapeGroup"></path>
            <path d="M6.004,49.446 C3.341,46.605 3.728,42.633 6.675,39.785" id="Stroke-463" stroke="#FFFFFF" stroke-width="2" stroke-linecap="round" sketch:type="MSShapeGroup"></path>
            <path d="M23.556,33.133 L25.524,31.165" id="Fill-464" fill="#D2D5D7" sketch:type="MSShapeGroup"></path>
            <path d="M25.213,30.225 C25.069,30.273 24.931,30.343 24.816,30.458 L22.849,32.426 C22.458,32.816 22.458,33.449 22.849,33.84 C23.044,34.035 23.3,34.133 23.556,34.133 C23.812,34.133 24.068,34.035 24.263,33.84 L26.231,31.872 C26.345,31.757 26.416,31.619 26.463,31.475 L25.213,30.225" id="Fill-465" fill="#D2D5D7" sketch:type="MSShapeGroup"></path>
            <path d="M20.728,30.305 L22.695,28.337" id="Fill-466" fill="#D2D5D7" sketch:type="MSShapeGroup"></path>
            <path d="M22.385,27.397 C22.241,27.445 22.103,27.515 21.988,27.63 L20.021,29.597 C19.63,29.988 19.63,30.621 20.021,31.012 C20.216,31.207 20.472,31.305 20.728,31.305 C20.983,31.305 21.239,31.207 21.435,31.012 L23.402,29.044 C23.517,28.929 23.587,28.791 23.635,28.647 L22.385,27.397" id="Fill-467" fill="#D2D5D7" sketch:type="MSShapeGroup"></path>
            <path d="M48.664,3.233 C48.272,2.844 47.64,2.844 47.25,3.234 L44.921,5.564 C44.53,5.955 44.53,6.588 44.921,6.978 C45.116,7.174 45.372,7.271 45.628,7.271 C45.884,7.271 46.14,7.174 46.335,6.978 L48.665,4.648 C49.055,4.257 49.055,3.624 48.664,3.233" id="Fill-468" fill="#C18757" sketch:type="MSShapeGroup"></path>
            <path d="M43.821,9.492 C44.211,9.101 44.211,8.469 43.821,8.078 C43.43,7.687 42.797,7.687 42.407,8.078 L35.792,14.692 C35.402,15.083 35.402,15.716 35.792,16.106 C35.987,16.302 36.244,16.399 36.499,16.399 C36.755,16.399 37.011,16.302 37.206,16.106 L43.821,9.492" id="Fill-469" fill="#C18757" sketch:type="MSShapeGroup"></path>
            <path d="M39.199,16.942 L36.833,19.308 C36.443,19.699 36.443,20.333 36.833,20.723 C37.029,20.918 37.285,21.016 37.541,21.016 C37.796,21.016 38.053,20.918 38.248,20.723 L40.614,18.356 C41.004,17.966 41.004,17.332 40.614,16.942 C40.223,16.552 39.59,16.552 39.199,16.942" id="Fill-470" fill="#C18757" sketch:type="MSShapeGroup"></path>
            <path d="M46.849,9.293 L42.028,14.114 C41.637,14.505 41.637,15.138 42.028,15.528 C42.223,15.724 42.479,15.821 42.735,15.821 C42.991,15.821 43.247,15.724 43.442,15.528 L48.263,10.707 C48.654,10.316 48.654,9.683 48.263,9.293 C47.873,8.902 47.24,8.902 46.849,9.293" id="Fill-471" fill="#C18757" sketch:type="MSShapeGroup"></path>
            <path d="M33.543,16.942 L30.94,19.546 C30.549,19.936 30.549,20.569 30.94,20.96 C31.135,21.155 31.391,21.253 31.646,21.253 C31.902,21.253 32.158,21.155 32.354,20.96 L34.957,18.356 C35.348,17.966 35.348,17.333 34.957,16.942 C34.566,16.552 33.934,16.552 33.543,16.942" id="Fill-472" fill="#C18757" sketch:type="MSShapeGroup"></path>
            <path d="M51.702,5.853 C51.312,5.463 50.678,5.463 50.288,5.853 L49.099,7.043 C48.708,7.433 48.708,8.066 49.099,8.457 C49.294,8.652 49.55,8.75 49.806,8.75 C50.062,8.75 50.318,8.652 50.513,8.457 L51.702,7.267 C52.093,6.877 52.093,6.244 51.702,5.853" id="Fill-473" fill="#C18757" sketch:type="MSShapeGroup"></path>
        </g>
    </g>
</svg>