<?xml version="1.0" encoding="UTF-8" standalone="no"?>
<svg width="54px" height="54px" viewBox="0 0 54 54" version="1.1" xmlns="http://www.w3.org/2000/svg" xmlns:xlink="http://www.w3.org/1999/xlink" xmlns:sketch="http://www.bohemiancoding.com/sketch/ns">
    <!-- Generator: Sketch 3.2.2 (9983) - http://www.bohemiancoding.com/sketch -->
    <title>68 - Candy (Flat)</title>
    <desc>Created with Sketch.</desc>
    <defs></defs>
    <g id="Page-1" stroke="none" stroke-width="1" fill="none" fill-rule="evenodd" sketch:type="MSPage">
        <g id="68---Candy-(Flat)" sketch:type="MSLayerGroup">
            <path d="M42.514,3.408 C42.037,3.557 41.589,3.109 41.738,2.632 L42.258,0.962 C42.426,0.423 41.841,-0.035 41.356,0.252 C39.918,1.104 37.797,2.52 37.345,3.697 L35.36,13.505 C30.443,11.39 23.517,13.184 18.349,18.352 C13.197,23.504 11.397,30.403 13.48,35.318 L4.559,36.64 C3.288,37.129 1.808,39.25 0.914,40.702 C0.609,41.197 1.079,41.804 1.634,41.631 L3.236,41.132 C3.714,40.983 4.163,41.432 4.014,41.911 L3.389,43.915 C3.241,44.394 3.69,44.843 4.168,44.694 L6.172,44.069 C6.651,43.92 7.1,44.369 6.951,44.847 L6.326,46.852 C6.177,47.33 6.626,47.779 7.105,47.63 L9.109,47.006 C9.587,46.857 10.036,47.306 9.888,47.784 L9.263,49.789 C9.114,50.267 9.563,50.716 10.041,50.567 L12.046,49.943 C12.524,49.794 12.973,50.243 12.824,50.721 L12.326,52.323 C12.153,52.878 12.76,53.348 13.255,53.043 C14.707,52.148 16.828,50.669 17.317,49.398 L18.687,40.351 C23.581,42.249 30.314,40.424 35.368,35.371 C40.437,30.301 42.26,23.54 40.332,18.643 L50.26,16.612 C51.408,16.171 52.784,14.141 53.641,12.708 C53.953,12.185 53.455,11.555 52.874,11.736 L51.325,12.219 C50.848,12.368 50.4,11.92 50.548,11.442 L51.174,9.432 C51.323,8.955 50.875,8.507 50.398,8.656 L48.388,9.282 C47.911,9.431 47.463,8.982 47.612,8.505 L48.238,6.496 C48.386,6.018 47.938,5.571 47.461,5.719 L45.451,6.345 C44.974,6.494 44.526,6.046 44.675,5.569 L45.301,3.559 C45.449,3.082 45.001,2.634 44.524,2.782 L42.514,3.408" id="Fill-1113" fill="#D13834" sketch:type="MSShapeGroup"></path>
            <path d="M32.6,20.911 C31.125,19.436 29.243,18.62 27.315,18.456 L23.451,14.591 C21.658,15.524 19.922,16.779 18.349,18.352 C16.648,20.053 15.321,21.946 14.369,23.894 L18.125,27.65 C18.29,29.576 19.105,31.457 20.58,32.932 C22.054,34.406 23.935,35.221 25.861,35.386 L29.824,39.349 C31.773,38.399 33.666,37.073 35.368,35.371 C36.94,33.799 38.199,32.063 39.131,30.272 L35.055,26.196 C34.891,24.268 34.075,22.386 32.6,20.911" id="Fill-1114" fill="#F9D70B" sketch:type="MSShapeGroup"></path>
            <path d="M29.772,23.739 C31.529,25.497 31.529,28.346 29.772,30.103 C28.015,31.86 25.165,31.86 23.408,30.103 C21.651,28.346 21.651,25.497 23.408,23.739 C25.165,21.982 28.015,21.982 29.772,23.739" id="Fill-1115" fill="#3DABEF" sketch:type="MSShapeGroup"></path>
            <path d="M38.125,16.112 C39.668,14.287 40.78,14.845 43,14.568 M37.311,15.395 C39.676,14.072 41.15,10.868 40.78,7.909 M15.186,37.909 C13.643,39.734 12.531,39.176 10.311,39.454 M16,38.626 C13.635,39.949 12.161,43.153 12.531,46.112" id="Stroke-1116" stroke="#F85B57" stroke-width="2" stroke-linecap="round" sketch:type="MSShapeGroup"></path>
        </g>
    </g>
</svg>