<?xml version="1.0" encoding="UTF-8" standalone="no"?>
<svg width="42px" height="58px" viewBox="0 0 42 58" version="1.1" xmlns="http://www.w3.org/2000/svg" xmlns:xlink="http://www.w3.org/1999/xlink" xmlns:sketch="http://www.bohemiancoding.com/sketch/ns">
    <!-- Generator: Sketch 3.2.2 (9983) - http://www.bohemiancoding.com/sketch -->
    <title>226 - Carrot (Flat)</title>
    <desc>Created with Sketch.</desc>
    <defs></defs>
    <g id="Page-1" stroke="none" stroke-width="1" fill="none" fill-rule="evenodd" sketch:type="MSPage">
        <g id="226---Carrot-(Flat)" sketch:type="MSLayerGroup">
            <path d="M22.03,10.019 L19.094,10.633 L16.227,2.088 L21.228,0.633 L22.03,10.019" id="Fill-1986" fill="#659C35" sketch:type="MSShapeGroup"></path>
            <path d="M28.332,9.098 C29.407,8.12 30.224,6.937 30.641,5.544 C25.184,3.513 23.484,6.146 23.484,6.146 C23.405,5.077 22.597,4.623 21.56,4.518 L22.03,10.019 L19.094,10.633 L19.093,10.631 L17.337,5.396 C16.814,5.661 16.46,5.935 16.444,6.146 C16.444,6.146 14.744,3.513 9.288,5.544 C9.716,6.977 10.554,8.198 11.676,9.191 C7.289,9.812 3.257,11.322 1.227,15.035 C11.505,18.11 14.563,13.153 14.563,13.153 C15.186,19.889 20.404,21.878 21.193,22.153 C21.982,21.878 27.2,19.889 27.823,13.153 C27.823,13.153 28.95,18.11 39.227,15.035 C36.964,11.296 32.732,9.715 28.332,9.098" id="Fill-1987" fill="#88C057" sketch:type="MSShapeGroup"></path>
            <path d="M37.515,15.556 C37.5,15.538 37.488,15.518 37.473,15.5 C28.826,17.522 27.823,13.153 27.823,13.153 C27.2,19.889 21.982,21.878 21.193,22.153 C20.404,21.878 15.186,19.889 14.563,13.153 C14.563,13.153 12.009,17.213 3.838,15.653 C3.819,15.671 3.801,15.688 3.782,15.706 C3.806,15.709 3.832,15.716 3.856,15.72 C1.43,18.16 0.151,21.948 0.151,27.684 C0.151,40.507 13.037,57.633 20.689,57.633 C28.341,57.633 41.227,40.507 41.227,27.684 C41.227,21.842 39.899,18.02 37.385,15.585 C37.427,15.577 37.473,15.565 37.515,15.556" id="Fill-1988" fill="#E22F37" sketch:type="MSShapeGroup"></path>
            <path d="M9.484,21.305 C9.362,20.915 8.809,20.915 8.688,21.305 C8.688,21.305 7.172,26.599 7.172,27.11 C7.172,27.622 7.371,28.102 7.732,28.464 C8.094,28.826 8.574,29.024 9.086,29.024 C9.597,29.024 10.078,28.826 10.439,28.464 C10.801,28.102 11,27.622 11,27.11 C11,26.599 9.484,21.305 9.484,21.305" id="Fill-1989" fill="#994530" sketch:type="MSShapeGroup"></path>
            <path d="M21.312,25.305 C21.191,24.915 20.638,24.915 20.516,25.305 C20.516,25.305 19,30.599 19,31.11 C19,31.622 19.199,32.102 19.561,32.464 C19.922,32.826 20.403,33.024 20.914,33.024 C21.426,33.024 21.906,32.826 22.268,32.464 C22.629,32.102 22.828,31.622 22.828,31.11 C22.828,30.599 21.312,25.305 21.312,25.305" id="Fill-1990" fill="#994530" sketch:type="MSShapeGroup"></path>
            <path d="M32.484,21.293 C32.362,20.902 31.809,20.902 31.688,21.293 C31.688,21.293 30.172,26.586 30.172,27.098 C30.172,27.609 30.371,28.09 30.732,28.452 C31.094,28.813 31.574,29.012 32.086,29.012 C32.597,29.012 33.078,28.813 33.439,28.452 C33.801,28.09 34,27.609 34,27.098 C34,26.586 32.484,21.293 32.484,21.293" id="Fill-1991" fill="#994530" sketch:type="MSShapeGroup"></path>
            <path d="M14.312,34.318 C14.191,33.927 13.638,33.927 13.516,34.318 C13.516,34.318 12,39.611 12,40.123 C12,40.634 12.199,41.115 12.561,41.476 C12.922,41.838 13.403,42.037 13.914,42.037 C14.426,42.037 14.906,41.838 15.268,41.476 C15.629,41.115 15.828,40.634 15.828,40.123 C15.828,39.611 14.312,34.318 14.312,34.318" id="Fill-1992" fill="#994530" sketch:type="MSShapeGroup"></path>
            <path d="M21.312,43.293 C21.191,42.902 20.638,42.902 20.516,43.293 C20.516,43.293 19,48.586 19,49.098 C19,49.609 19.199,50.09 19.561,50.452 C19.922,50.813 20.403,51.012 20.914,51.012 C21.426,51.012 21.906,50.813 22.268,50.452 C22.629,50.09 22.828,49.609 22.828,49.098 C22.828,48.586 21.312,43.293 21.312,43.293" id="Fill-1993" fill="#994530" sketch:type="MSShapeGroup"></path>
            <path d="M28.312,34.305 C28.191,33.915 27.637,33.915 27.516,34.305 C27.516,34.305 26,39.599 26,40.11 C26,40.622 26.199,41.102 26.561,41.464 C26.922,41.826 27.403,42.024 27.914,42.024 C28.426,42.024 28.906,41.826 29.268,41.464 C29.629,41.102 29.828,40.622 29.828,40.11 C29.828,39.599 28.312,34.305 28.312,34.305" id="Fill-1994" fill="#994530" sketch:type="MSShapeGroup"></path>
        </g>
    </g>
</svg>