<?xml version="1.0" encoding="UTF-8" standalone="no"?>
<svg width="51px" height="52px" viewBox="0 0 51 52" version="1.1" xmlns="http://www.w3.org/2000/svg" xmlns:xlink="http://www.w3.org/1999/xlink" xmlns:sketch="http://www.bohemiancoding.com/sketch/ns">
    <!-- Generator: Sketch 3.2.2 (9983) - http://www.bohemiancoding.com/sketch -->
    <title>32 - Cheddar (Flat)</title>
    <desc>Created with Sketch.</desc>
    <defs></defs>
    <g id="Page-1" stroke="none" stroke-width="1" fill="none" fill-rule="evenodd" sketch:type="MSPage">
        <g id="32---Cheddar-(Flat)" sketch:type="MSLayerGroup">
            <path d="M47.616,33.409 C48.004,32.979 48.551,32.708 49.202,32.654 C49.42,32.637 49.649,32.643 49.888,32.675 C50.086,32.703 50.282,32.752 50.475,32.815 C50.654,32.87 50.827,32.943 51,33.022 L51,30.787 C51,28.912 50.129,27.143 48.643,26 L31.232,9.53 C30.683,9.982 29.89,10.135 28.995,9.859 C27.341,9.347 26,7.59 26,5.936 C26,5.511 26.091,5.136 26.251,4.818 L23.272,2 C21.1,0.344 18.662,-0.016 17,0.711 L2.172,7.863 C0.831,8.442 0,9.803 0,11.303 L0,11.312 L0,27.059 C0.463,26.974 0.976,26.993 1.527,27.163 C3.445,27.757 5,29.793 5,31.711 C5,33.629 3.445,34.703 1.527,34.109 C0.976,33.939 0.463,33.64 0,33.269 L0,35.432 C0,37.12 1.149,38.591 2.786,39 L46.43,51.857 C48.751,52.438 51,50.682 51,48.289 L51,39.948 L50.999,39.948 C50.06,39.796 49.149,39.271 48.432,38.531 C48.416,38.515 48.403,38.496 48.388,38.48 C48.227,38.31 48.073,38.133 47.935,37.944 C47.889,37.882 47.854,37.813 47.811,37.748 C47.711,37.598 47.608,37.45 47.524,37.291 C47.457,37.166 47.409,37.034 47.353,36.904 C47.307,36.798 47.252,36.696 47.215,36.588 C47.13,36.346 47.066,36.099 47.025,35.849 C46.984,35.598 46.968,35.355 46.975,35.124 C46.989,34.662 47.096,34.245 47.282,33.892 C47.374,33.714 47.486,33.553 47.616,33.409" id="Fill-1597" fill="#EEAF4B" sketch:type="MSShapeGroup"></path>
            <path d="M49.888,32.675 C50.267,32.727 50.639,32.856 51,33.022 L51,30.787 C51,29.053 49.788,27.554 48.092,27.191 L28.925,21.483 C28.935,21.585 28.955,21.688 28.955,21.79 C28.955,23.445 27.614,24.371 25.96,23.859 C24.305,23.347 22.964,21.59 22.964,19.936 C22.964,19.858 22.981,19.789 22.987,19.714 L1.937,13.445 C0.765,13.22 0.19,12.329 0.066,11.318 L0,11.303 L0,27.059 C0.463,26.974 0.976,26.993 1.527,27.163 C3.445,27.757 5,29.793 5,31.711 C5,33.629 3.445,34.703 1.527,34.109 C0.976,33.939 0.463,33.64 0,33.269 L0,35.432 C0,37.12 1.149,38.591 2.786,39 L46.43,51.857 C48.751,52.438 51,50.682 51,48.289 L51,39.948 C49.12,39.645 47.351,37.833 47.025,35.849 C46.695,33.836 47.976,32.414 49.888,32.675" id="Fill-1598" fill="#FCDF76" sketch:type="MSShapeGroup"></path>
            <path d="M25.816,32.36 C25.816,34.614 23.989,35.876 21.735,35.178 C19.481,34.481 17.655,32.088 17.655,29.834 C17.655,27.581 19.481,26.319 21.735,27.016 C23.989,27.714 25.816,30.107 25.816,32.36" id="Fill-1599" fill="#F4C44E" sketch:type="MSShapeGroup"></path>
            <path d="M21.735,27.016 C20.063,26.499 18.629,27.063 17.999,28.308 C18.629,29.944 20.063,31.396 21.735,31.913 C23.408,32.431 24.841,31.867 25.472,30.622 C24.841,28.986 23.408,27.534 21.735,27.016" id="Fill-1600" fill="#EEAF4B" sketch:type="MSShapeGroup"></path>
            <path d="M42.713,37.893 C42.713,39.471 41.434,40.354 39.857,39.865 C38.279,39.377 37,37.702 37,36.125 C37,34.547 38.279,33.664 39.857,34.152 C41.434,34.641 42.713,36.315 42.713,37.893" id="Fill-1601" fill="#F4C44E" sketch:type="MSShapeGroup"></path>
            <path d="M14.713,35.893 C14.713,37.471 13.434,38.354 11.857,37.865 C10.279,37.377 9,35.702 9,34.125 C9,32.547 10.279,31.664 11.857,32.152 C13.434,32.64 14.713,34.315 14.713,35.893" id="Fill-1602" fill="#EEAF4B" sketch:type="MSShapeGroup"></path>
            <path d="M34.713,43.519 C34.713,44.544 33.882,45.118 32.857,44.801 C31.831,44.483 31,43.395 31,42.369 C31,41.344 31.831,40.77 32.857,41.087 C33.882,41.405 34.713,42.493 34.713,43.519" id="Fill-1603" fill="#EEAF4B" sketch:type="MSShapeGroup"></path>
            <path d="M34,31.63 C34,32.656 33.169,33.23 32.143,32.913 C31.118,32.595 30.287,31.507 30.287,30.481 C30.287,29.456 31.118,28.882 32.143,29.199 C33.169,29.516 34,30.605 34,31.63" id="Fill-1604" fill="#EEAF4B" sketch:type="MSShapeGroup"></path>
            <path d="M9,21.128 C9,22.255 8.087,22.886 6.96,22.537 C5.833,22.188 4.919,20.992 4.919,19.865 C4.919,18.738 5.833,18.108 6.96,18.456 C8.087,18.805 9,20.002 9,21.128" id="Fill-1605" fill="#F4C44E" sketch:type="MSShapeGroup"></path>
            <path d="M28.955,21.791 C28.955,23.445 27.614,24.371 25.96,23.859 C24.305,23.347 22.964,21.591 22.964,19.936 C22.964,18.282 24.305,17.356 25.96,17.868 C27.614,18.38 28.955,20.136 28.955,21.791" id="Fill-1606" fill="#F4C44E" sketch:type="MSShapeGroup"></path>
        </g>
    </g>
</svg>