<?xml version="1.0" encoding="UTF-8" standalone="no"?>
<svg width="55px" height="50px" viewBox="0 0 55 50" version="1.1" xmlns="http://www.w3.org/2000/svg" xmlns:xlink="http://www.w3.org/1999/xlink" xmlns:sketch="http://www.bohemiancoding.com/sketch/ns">
    <!-- Generator: Sketch 3.2.2 (9983) - http://www.bohemiancoding.com/sketch -->
    <title>174 - Chef Knife (Flat)</title>
    <desc>Created with Sketch.</desc>
    <defs></defs>
    <g id="Page-1" stroke="none" stroke-width="1" fill="none" fill-rule="evenodd" sketch:type="MSPage">
        <g id="174---Chef-Knife-(Flat)" sketch:type="MSLayerGroup">
            <path d="M32.279,23.089 C32.279,23.089 37.269,22.743 41.75,19.423 C41.75,19.423 47.214,14.83 50.201,9.811 C50.201,9.811 50.921,7.93 53.825,8.509 C53.825,8.509 56.263,6.841 51.814,2.392 L49.492,0.069 L29.375,20.186 L32.279,23.089" id="Fill-220" fill="#A46F3E" sketch:type="MSShapeGroup"></path>
            <path d="M37.176,27.986 C21.065,44.097 8.49,51.232 0.227,49.334 L29.375,20.186 L37.176,27.986" id="Fill-221" fill="#D2D5D7" sketch:type="MSShapeGroup"></path>
            <path d="M37.679,18.133 C37.679,18.961 37.007,19.633 36.179,19.633 C35.351,19.633 34.679,18.961 34.679,18.133 C34.679,17.305 35.351,16.633 36.179,16.633 C37.007,16.633 37.679,17.305 37.679,18.133" id="Fill-222" fill="#D2D5D7" sketch:type="MSShapeGroup"></path>
            <path d="M49.679,6.133 C49.679,6.961 49.007,7.633 48.179,7.633 C47.351,7.633 46.679,6.961 46.679,6.133 C46.679,5.305 47.351,4.633 48.179,4.633 C49.007,4.633 49.679,5.305 49.679,6.133" id="Fill-223" fill="#D2D5D7" sketch:type="MSShapeGroup"></path>
            <path d="M33.986,24.911 C19.601,38.697 13.799,42.205 4.694,44.867 L1.842,47.72 C13.217,44.777 19.035,42.01 35.371,26.354 L33.986,24.911" id="Fill-224" fill="#E6E6E6" sketch:type="MSShapeGroup"></path>
        </g>
    </g>
</svg>