<?xml version="1.0" encoding="UTF-8" standalone="no"?>
<svg width="56px" height="54px" viewBox="0 0 56 54" version="1.1" xmlns="http://www.w3.org/2000/svg" xmlns:xlink="http://www.w3.org/1999/xlink" xmlns:sketch="http://www.bohemiancoding.com/sketch/ns">
    <!-- Generator: Sketch 3.2.2 (9983) - http://www.bohemiancoding.com/sketch -->
    <title>20 - Chef Hat (Flat)</title>
    <desc>Created with Sketch.</desc>
    <defs></defs>
    <g id="Page-1" stroke="none" stroke-width="1" fill="none" fill-rule="evenodd" sketch:type="MSPage">
        <g id="20---Chef-Hat-(Flat)" sketch:type="MSLayerGroup" transform="translate(-1.000000, 0.000000)">
            <path d="M45.639,5.106 C43.56,4.837 41.579,5.094 39.77,5.718 C37.432,2.268 33.481,0 29,0 C24.519,0 20.568,2.268 18.23,5.718 C16.421,5.094 14.44,4.837 12.361,5.106 C5.995,5.93 1.055,11.468 1,17.887 C0.948,24.03 5.158,29.199 10.851,30.616 C12.762,31.091 14.164,32.719 14.351,34.68 L15.668,48.513 C15.856,50.49 19.503,52 19.503,52 C25.576,54.558 32.424,54.558 38.497,52 C38.497,52 42.144,50.49 42.332,48.513 L43.649,34.68 C43.836,32.719 45.238,31.091 47.149,30.616 C52.842,29.199 57.052,24.03 57,17.887 C56.945,11.468 52.005,5.93 45.639,5.106" id="Fill-1823" fill="#EDEDED" sketch:type="MSShapeGroup"></path>
            <path d="M29,49 C24.124,49 19.506,47.699 15.37,45.383 L15.668,48.513 C15.856,50.49 19.503,52 19.503,52 C25.576,54.558 32.424,54.558 38.497,52 C38.497,52 42.144,50.49 42.332,48.513 L42.63,45.383 C38.494,47.699 33.876,49 29,49" id="Fill-1824" fill="#E6E6E6" sketch:type="MSShapeGroup"></path>
            <path d="M19,34 L20,42 M26,36 L26,44 M39,34 L38,42 M32,36 L32,44" id="Stroke-1825" stroke="#FFFFFF" stroke-width="2" stroke-linecap="round" sketch:type="MSShapeGroup"></path>
            <path d="M24,6 C24,6 28.75,2.333 34,6" id="Stroke-1826" stroke="#D2D5D7" stroke-width="2" stroke-linecap="round" sketch:type="MSShapeGroup"></path>
            <path d="M44.042,5.044 C42.54,5.044 41.104,5.312 39.762,5.782 C37.436,2.32 33.485,0.041 29,0.041 C24.526,0.041 20.581,2.309 18.253,5.757 C16.931,5.302 15.518,5.044 14.042,5.044 C6.885,5.044 1.083,10.845 1.083,18.002 C1.083,25.159 6.885,30.961 14.042,30.961 C15.494,30.961 16.885,30.711 18.189,30.271 C20.057,31.315 22.207,31.916 24.5,31.916 C26.629,31.916 28.633,31.393 30.406,30.483 C32.436,31.804 34.855,32.579 37.458,32.579 C39.742,32.579 41.885,31.983 43.749,30.946 C43.847,30.948 43.943,30.961 44.042,30.961 C51.198,30.961 57,25.159 57,18.002 C57,10.845 51.198,5.044 44.042,5.044" id="Fill-1827" fill="#E6E6E6" sketch:type="MSShapeGroup"></path>
            <path d="M7,16 C7,16 8.333,9.917 16,10" id="Stroke-1828" stroke="#FFFFFF" stroke-width="2" stroke-linecap="round" sketch:type="MSShapeGroup"></path>
        </g>
    </g>
</svg>