<?xml version="1.0" encoding="UTF-8" standalone="no"?>
<svg width="50px" height="51px" viewBox="0 0 50 51" version="1.1" xmlns="http://www.w3.org/2000/svg" xmlns:xlink="http://www.w3.org/1999/xlink" xmlns:sketch="http://www.bohemiancoding.com/sketch/ns">
    <!-- Generator: Sketch 3.2.2 (9983) - http://www.bohemiancoding.com/sketch -->
    <title>196 - Chilli Pepper (Flat)</title>
    <desc>Created with Sketch.</desc>
    <defs></defs>
    <g id="Page-1" stroke="none" stroke-width="1" fill="none" fill-rule="evenodd" sketch:type="MSPage">
        <g id="196---Chilli-Pepper-(Flat)" sketch:type="MSLayerGroup" transform="translate(0.000000, 1.000000)">
            <path d="M43.354,0.803 C46.517,1.959 45.534,4.793 43.685,6.718" id="Stroke-416" stroke="#659C35" stroke-width="2" stroke-linecap="round" sketch:type="MSShapeGroup"></path>
            <path d="M32.621,15.106 C32.484,15.573 32.349,16.069 32.221,16.633 C28.721,32.05 15.849,40.183 1.334,48.222 C0.67,48.59 0.579,49.725 1.231,49.627 C10.584,48.221 34.993,50.592 46.933,22.614 C46.933,22.614 53.096,9.758 45.221,7.633 C45.221,7.633 34.333,2.518 32.621,15.106" id="Fill-417" fill="#D13834" sketch:type="MSShapeGroup"></path>
            <path d="M49.357,17.412 C50.25,13.377 50.217,8.544 45.518,7.276 C45.518,7.276 34.883,2.29 32.328,13.591 C34.818,13.402 38.156,12.901 39.089,11.562 C39.089,11.562 41.299,13.772 40.161,16.92 C40.161,16.92 44.848,16.384 44.446,12.634 C44.446,12.634 47.326,15.112 46.589,19.063 C46.589,19.063 47.979,18.642 49.357,17.412" id="Fill-418" fill="#88C057" sketch:type="MSShapeGroup"></path>
            <path d="M40.061,22.05 C40.061,22.05 37.811,37.55 15.311,44.8" id="Stroke-419" stroke="#F85B57" stroke-width="2" stroke-linecap="round" sketch:type="MSShapeGroup"></path>
        </g>
    </g>
</svg>