<?xml version="1.0" encoding="UTF-8" standalone="no"?>
<svg width="54px" height="54px" viewBox="0 0 54 54" version="1.1" xmlns="http://www.w3.org/2000/svg" xmlns:xlink="http://www.w3.org/1999/xlink" xmlns:sketch="http://www.bohemiancoding.com/sketch/ns">
    <!-- Generator: Sketch 3.2.2 (9983) - http://www.bohemiancoding.com/sketch -->
    <title>133 - Chocolate Candy (Flat)</title>
    <desc>Created with Sketch.</desc>
    <defs></defs>
    <g id="Page-1" stroke="none" stroke-width="1" fill="none" fill-rule="evenodd" sketch:type="MSPage">
        <g id="133---Chocolate-Candy-(Flat)" sketch:type="MSLayerGroup">
            <path d="M48.928,19.225 L53.083,17.444 C53.565,17.238 53.878,16.763 53.878,16.239 L53.878,14.173 C53.878,13.448 53.29,12.861 52.566,12.861 L50.947,12.861 C50.222,12.861 49.635,12.273 49.635,11.549 L49.635,9.93 C49.635,9.206 49.048,8.618 48.323,8.618 L46.704,8.618 C45.98,8.618 45.392,8.031 45.392,7.307 L45.392,5.687 C45.392,4.963 44.805,4.376 44.081,4.376 L42.462,4.376 C41.737,4.376 41.15,3.788 41.15,3.064 L41.15,1.445 C41.15,0.72 40.562,0.133 39.838,0.133 L37.772,0.133 C37.247,0.133 36.773,0.446 36.566,0.928 L34.786,5.083 C25.849,15.901 15.905,25.845 5.087,34.781 L0.901,36.575 C0.438,36.774 0.138,37.229 0.138,37.733 L0.138,39.886 C0.138,40.581 0.701,41.145 1.397,41.145 L3.121,41.145 C3.816,41.145 4.38,41.709 4.38,42.405 L4.38,44.128 C4.38,44.824 4.944,45.388 5.64,45.388 L7.363,45.388 C8.059,45.388 8.623,45.952 8.623,46.647 L8.623,48.371 C8.623,49.067 9.187,49.63 9.882,49.63 L11.606,49.63 C12.302,49.63 12.865,50.194 12.865,50.89 L12.865,52.614 C12.865,53.309 13.429,53.873 14.125,53.873 L16.278,53.873 C16.781,53.873 17.237,53.573 17.435,53.11 L19.229,48.923 C28.166,38.105 38.11,28.161 48.928,19.225" id="Fill-913" fill="#6A3311" sketch:type="MSShapeGroup"></path>
            <path d="M38.321,7.204 L36.907,8.618 M41.15,10.032 L39.736,11.447 M43.978,12.861 L42.564,14.275 M46.807,15.689 L45.392,17.104 M8.623,36.903 L7.209,38.317 M11.451,39.731 L10.037,41.145 M14.28,42.559 L12.865,43.974 M17.108,45.388 L15.694,46.802" id="Stroke-914" stroke="#A46F3E" stroke-width="2" stroke-linecap="round" sketch:type="MSShapeGroup"></path>
            <path d="M28.306,38.627 C33.117,33.488 38.17,28.58 43.451,23.921 L25.71,15.379 C20.898,20.518 15.845,25.426 10.564,30.085 L28.306,38.627" id="Fill-915" fill="#F9D70B" sketch:type="MSShapeGroup"></path>
            <path d="M31.604,30.892 C29.456,33.04 25.974,33.04 23.826,30.892 C21.678,28.744 21.678,25.262 23.826,23.114 C25.974,20.966 29.456,20.966 31.604,23.114 C33.752,25.262 33.752,28.744 31.604,30.892" id="Fill-916" fill="#ED3F32" sketch:type="MSShapeGroup"></path>
        </g>
    </g>
</svg>