<?xml version="1.0" encoding="UTF-8" standalone="no"?>
<svg width="26px" height="59px" viewBox="0 0 26 59" version="1.1" xmlns="http://www.w3.org/2000/svg" xmlns:xlink="http://www.w3.org/1999/xlink" xmlns:sketch="http://www.bohemiancoding.com/sketch/ns">
    <!-- Generator: Sketch 3.2.2 (9983) - http://www.bohemiancoding.com/sketch -->
    <title>103 - Circular Icecream (Flat)</title>
    <desc>Created with Sketch.</desc>
    <defs></defs>
    <g id="Page-1" stroke="none" stroke-width="1" fill="none" fill-rule="evenodd" sketch:type="MSPage">
        <g id="103---Circular-Icecream-(Flat)" sketch:type="MSLayerGroup">
            <path d="M13.671,40.804 L13.39,40.963 C13.299,41.013 13.204,41.042 13.11,41.082 C11.717,41.944 9.876,41.518 9,40.138 L9,55.302 C9,56.402 9.9,57.302 11,57.302 L15,57.302 C16.1,57.302 17,56.402 17,55.302 L17,39.154 L13.671,40.804 L13.671,40.804 Z" id="Fill-1158" fill="#FBD490" sketch:type="MSShapeGroup"></path>
            <path d="M13.671,40.804 L13.39,40.963 C13.299,41.013 13.204,41.042 13.11,41.082 C11.717,41.944 9.876,41.518 9,40.138 L9,55.302 C9,56.402 9.9,57.302 11,57.302 L15,57.302 C16.1,57.302 17,56.402 17,55.302 L17,39.154 L13.671,40.804 L13.671,40.804 Z" id="Stroke-1159" stroke="#FBD490" stroke-width="2" stroke-linecap="round" sketch:type="MSShapeGroup"></path>
            <path d="M9.02,47.98 C9.02,47.98 12.687,49.745 12.22,51.745 C11.753,53.745 15.487,55.568 17.02,55.98 M17.02,49.359 C15.087,49.359 13.52,48.239 13.52,46.859 C13.52,45.478 15.087,44.359 17.02,44.359" id="Stroke-1160" stroke="#EEAF4B" stroke-width="2" stroke-linecap="round" sketch:type="MSShapeGroup"></path>
            <path d="M1.373,10.554 L1.373,10.554 C0.503,9.152 0.937,7.293 2.338,6.422 L12.827,1.224 C14.229,0.353 16.088,0.787 16.959,2.188 L16.959,2.189 C17.829,3.59 17.395,5.449 15.994,6.32 L5.505,11.518 C4.104,12.389 2.244,11.955 1.373,10.554" id="Fill-1161" fill="#4C312C" sketch:type="MSShapeGroup"></path>
            <path d="M8.825,40.115 L8.825,40.115 C7.954,38.714 8.388,36.855 9.79,35.984 L20.279,30.786 C21.68,29.915 23.539,30.349 24.41,31.75 C25.281,33.152 24.847,35.011 23.446,35.882 L12.957,41.08 C11.555,41.951 9.696,41.517 8.825,40.115" id="Fill-1162" fill="#6A3311" sketch:type="MSShapeGroup"></path>
            <path d="M1.242,17.136 L1.242,17.136 C0.417,15.707 0.911,13.863 2.34,13.038 L20.43,4.037 C21.859,3.212 23.703,3.706 24.528,5.135 C25.354,6.564 24.859,8.408 23.43,9.234 L5.34,18.234 C3.911,19.059 2.067,18.565 1.242,17.136" id="Fill-1163" fill="#6A3311" sketch:type="MSShapeGroup"></path>
            <path d="M1.242,23.8 L1.242,23.8 C0.417,22.371 0.911,20.527 2.34,19.702 L20.43,10.701 C21.859,9.876 23.703,10.37 24.528,11.799 C25.354,13.228 24.859,15.072 23.43,15.897 L5.34,24.898 C3.911,25.723 2.067,25.229 1.242,23.8" id="Fill-1164" fill="#4C312C" sketch:type="MSShapeGroup"></path>
            <path d="M1.242,30.477 L1.242,30.477 C0.417,29.048 0.911,27.204 2.34,26.379 L20.43,17.378 C21.859,16.553 23.703,17.047 24.528,18.476 C25.354,19.905 24.859,21.749 23.43,22.574 L5.34,31.575 C3.911,32.4 2.067,31.906 1.242,30.477" id="Fill-1165" fill="#6A3311" sketch:type="MSShapeGroup"></path>
            <path d="M1.381,37.062 L1.381,37.062 C0.556,35.633 1.05,33.789 2.479,32.964 L20.66,23.964 C22.089,23.138 23.933,23.633 24.758,25.062 C25.583,26.49 25.089,28.334 23.66,29.16 L5.479,38.16 C4.051,38.985 2.206,38.491 1.381,37.062" id="Fill-1166" fill="#4C312C" sketch:type="MSShapeGroup"></path>
            <path d="M4.843,15.181 L6.843,14.181" id="Stroke-1167" stroke="#E22F37" stroke-width="2" stroke-linecap="round" sketch:type="MSShapeGroup"></path>
            <path d="M19.843,21.181 L21.843,20.181" id="Stroke-1168" stroke="#6F58A8" stroke-width="2" stroke-linecap="round" sketch:type="MSShapeGroup"></path>
            <path d="M19.843,34.181 L21.843,33.181" id="Stroke-1169" stroke="#79E09B" stroke-width="2" stroke-linecap="round" sketch:type="MSShapeGroup"></path>
            <path d="M11.843,5.181 L13.843,4.181" id="Stroke-1170" stroke="#F9D70B" stroke-width="2" stroke-linecap="round" sketch:type="MSShapeGroup"></path>
        </g>
    </g>
</svg>