<?xml version="1.0" encoding="UTF-8" standalone="no"?>
<svg width="37px" height="46px" viewBox="0 0 37 46" version="1.1" xmlns="http://www.w3.org/2000/svg" xmlns:xlink="http://www.w3.org/1999/xlink" xmlns:sketch="http://www.bohemiancoding.com/sketch/ns">
    <!-- Generator: Sketch 3.2.2 (9983) - http://www.bohemiancoding.com/sketch -->
    <title>75 - Cocoa Butter (Flat)</title>
    <desc>Created with Sketch.</desc>
    <defs></defs>
    <g id="Page-1" stroke="none" stroke-width="1" fill="none" fill-rule="evenodd" sketch:type="MSPage">
        <g id="Icons" sketch:type="MSArtboardGroup" transform="translate(-732.000000, -2164.000000)">
            <g id="75---Cocoa-Butter-(Flat)" sketch:type="MSLayerGroup" transform="translate(732.000000, 2164.000000)">
                <path d="M32.698,10.075 L32.698,9.085 L4.302,9.085 L4.302,10.088 C3.565,12.584 0,13.677 0,19.41 L0,34.038 C0,40.161 4.964,45.125 11.086,45.125 L25.914,45.125 C32.036,45.125 37,40.161 37,34.038 L37,19.41 C37,13.667 33.421,12.588 32.698,10.075" id="Fill-2067" fill="#6A3311" sketch:type="MSShapeGroup"></path>
                <path d="M8,13.372 C6.968,14.695 6,16.422 6,19.41 L6,34.038" id="Stroke-2068" stroke="#A46F3E" stroke-width="2" stroke-linecap="round" sketch:type="MSShapeGroup"></path>
                <path d="M35.951,36 L20,36 L20,19 L36.424,19 C36.742,19 37,19.258 37,19.576 L37,34.951 C37,35.53 36.531,36 35.951,36" id="Fill-2069" fill="#FFFFFF" sketch:type="MSShapeGroup"></path>
                <path d="M35.951,30.944 L26.904,30.944 L26.904,24.023 L36.424,24.023 C36.742,24.023 37,24.281 37,24.6 L37,29.895 C37,30.475 36.531,30.944 35.951,30.944" id="Fill-2070" fill="#E22F37" sketch:type="MSShapeGroup"></path>
                <path d="M33.885,9 L3.099,9 C1.94,9 1,8.06 1,6.901 L1,2.099 C1,0.94 1.94,0 3.099,0 L33.885,0 C35.045,0 35.984,0.94 35.984,2.099 L35.984,6.901 C35.984,8.06 35.045,9 33.885,9" id="Fill-2071" fill="#E6E6E6" sketch:type="MSShapeGroup"></path>
            </g>
        </g>
    </g>
</svg>