<?xml version="1.0" encoding="UTF-8" standalone="no"?>
<svg width="48px" height="58px" viewBox="0 0 48 58" version="1.1" xmlns="http://www.w3.org/2000/svg" xmlns:xlink="http://www.w3.org/1999/xlink" xmlns:sketch="http://www.bohemiancoding.com/sketch/ns">
    <!-- Generator: Sketch 3.2.2 (9983) - http://www.bohemiancoding.com/sketch -->
    <title>61 - Coffee Grinder (Flat)</title>
    <desc>Created with Sketch.</desc>
    <defs></defs>
    <g id="Page-1" stroke="none" stroke-width="1" fill="none" fill-rule="evenodd" sketch:type="MSPage">
        <g id="61---Coffee-Grinder-(Flat)" sketch:type="MSLayerGroup">
            <path d="M44.869,52 L44,52 L41.129,32.859 C41.061,32.407 41.411,32 41.869,32 C43.186,32 44.447,31.219 44.847,29.964 C45.502,27.911 43.963,26 42,26 L6.131,26 C4.673,26 3.332,26.982 3.056,28.414 C2.689,30.318 4,32 6,32 L6.099,32 C6.573,32 6.937,32.422 6.866,32.891 L4,52 L3.131,52 C1.68,52 0.343,52.972 0.06,54.395 C-0.319,56.307 1.152,58 3,58 L45,58 C46.848,58 48.32,56.307 47.94,54.395 C47.657,52.972 46.319,52 44.869,52" id="Fill-1287" fill="#874F31" sketch:type="MSShapeGroup"></path>
            <path d="M24,11 C15.163,11 8,17.164 8,26 L40,26 C40,17.164 32.837,11 24,11" id="Fill-1288" fill="#EFE8D5" sketch:type="MSShapeGroup"></path>
            <path d="M44,7 L44,7 C44,8.925 43.766,9 40.5,9 L38,9 L40,9 L27,9 C24.016,9 24,10.016 24,11" id="Stroke-1289" stroke="#D2D5D7" stroke-width="2" stroke-linecap="round" sketch:type="MSShapeGroup"></path>
            <path d="M47,3.5 C47,5.433 45.433,7 43.5,7 C41.567,7 40,5.433 40,3.5 C40,1.567 41.567,0 43.5,0 C45.433,0 47,1.567 47,3.5" id="Fill-1290" fill="#4C312C" sketch:type="MSShapeGroup"></path>
            <path d="M9.875,45 L9,52 L39,52 L38.125,45 L9.875,45" id="Fill-1291" fill="#AF765D" sketch:type="MSShapeGroup"></path>
            <path d="M37.875,43 L37,36 L11,36 L10.125,43 L37.875,43" id="Fill-1292" fill="#AF765D" sketch:type="MSShapeGroup"></path>
            <path d="M21,39.292 L26,39.292 M21,48.5 L26,48.5" id="Stroke-1293" stroke="#D2D5D7" stroke-width="2" stroke-linecap="round" sketch:type="MSShapeGroup"></path>
            <path d="M16.155,16.999 C15.225,17.674 14.488,18.537 14,19.616 M24,15 C22.958,15 21.952,15.066 21,15.207" id="Stroke-1294" stroke="#FFFFFF" stroke-width="2" stroke-linecap="round" sketch:type="MSShapeGroup"></path>
            <path d="M25,32 L31,32 M35,32 L37,32" id="Stroke-1295" stroke="#A46F3E" stroke-width="2" stroke-linecap="round" sketch:type="MSShapeGroup"></path>
        </g>
    </g>
</svg>