<?xml version="1.0" encoding="UTF-8" standalone="no"?>
<svg width="36px" height="54px" viewBox="0 0 36 54" version="1.1" xmlns="http://www.w3.org/2000/svg" xmlns:xlink="http://www.w3.org/1999/xlink" xmlns:sketch="http://www.bohemiancoding.com/sketch/ns">
    <!-- Generator: Sketch 3.2.2 (9983) - http://www.bohemiancoding.com/sketch -->
    <title>139 - Coffee Cup (Flat)</title>
    <desc>Created with Sketch.</desc>
    <defs></defs>
    <g id="Page-1" stroke="none" stroke-width="1" fill="none" fill-rule="evenodd" sketch:type="MSPage">
        <g id="139---Coffee-Cup-(Flat)" sketch:type="MSLayerGroup">
            <path d="M32,10 L4,10 C2.9,10 2,9.1 2,8 L2,7 C2,5.9 2.9,5 4,5 L32,5 C33.1,5 34,5.9 34,7 L34,8 C34,9.1 33.1,10 32,10" id="Fill-529" fill="#E6E6E6" sketch:type="MSShapeGroup"></path>
            <path d="M7,5 L7,0 L11,0 L14,5 L7,5" id="Fill-530" fill="#D2D5D7" sketch:type="MSShapeGroup"></path>
            <path d="M32,25 L33,20 L3,20 L4,25 L32,25" id="Fill-531" fill="#E6E6E6" sketch:type="MSShapeGroup"></path>
            <path d="M5.941,45 L7,54 L30,54 L31,45 L5.941,45" id="Fill-532" fill="#E6E6E6" sketch:type="MSShapeGroup"></path>
            <path d="M33,45 L4,45 L2,25 L34,25 L33,45" id="Fill-533" fill="#F85B57" sketch:type="MSShapeGroup"></path>
            <path d="M27,35 C27,38.314 22.971,41 18,41 C13.029,41 9,38.314 9,35 C9,31.686 13.029,29 18,29 C22.971,29 27,31.686 27,35" id="Fill-534" fill="#F9DA49" sketch:type="MSShapeGroup"></path>
            <path d="M34,20 L2,20 C0.9,20 0,19.1 0,18 L0,12 C0,10.9 0.9,10 2,10 L34,10 C35.1,10 36,10.9 36,12 L36,18 C36,19.1 35.1,20 34,20" id="Fill-535" fill="#D2D5D7" sketch:type="MSShapeGroup"></path>
        </g>
    </g>
</svg>