<?xml version="1.0" encoding="UTF-8" standalone="no"?>
<svg width="49px" height="47px" viewBox="0 0 49 47" version="1.1" xmlns="http://www.w3.org/2000/svg" xmlns:xlink="http://www.w3.org/1999/xlink" xmlns:sketch="http://www.bohemiancoding.com/sketch/ns">
    <!-- Generator: Sketch 3.2.2 (9983) - http://www.bohemiancoding.com/sketch -->
    <title>182 - Coffee Beans (Flat)</title>
    <desc>Created with Sketch.</desc>
    <defs></defs>
    <g id="Page-1" stroke="none" stroke-width="1" fill="none" fill-rule="evenodd" sketch:type="MSPage">
        <g id="182---Coffee-Beans-(Flat)" sketch:type="MSLayerGroup" transform="translate(-1.000000, 0.000000)">
            <path d="M48.434,32.361 L47.292,31.07 C37.746,20.275 22.125,20.275 12.578,31.07 L11.436,32.361 C10.063,33.913 10.063,36.06 11.436,37.612 L12.578,38.904 C22.125,49.698 37.746,49.698 47.292,38.904 L48.434,37.612 C49.807,36.06 49.807,33.913 48.434,32.361" id="Fill-408" fill="#6A3311" sketch:type="MSShapeGroup"></path>
            <path d="M31.169,23.01 C31.155,9.432 20.414,-0.758 6.579,0.091 L4.858,0.197 C2.79,0.323 1.272,1.841 1.145,3.91 L1.04,5.63 C0.388,16.247 6.24,25.039 15.132,28.564 C19.83,24.548 25.538,22.694 31.169,23.01" id="Fill-409" fill="#4C312C" sketch:type="MSShapeGroup"></path>
            <path d="M48.756,34.256 C43.791,39.22 35.711,39.22 30.746,34.256 C25.318,28.828 16.707,28.479 10.868,33.206 C10.414,34.07 10.307,35.025 10.545,35.936 C10.752,35.906 10.954,35.829 11.113,35.67 C16.051,30.732 24.395,30.732 29.332,35.67 C32.204,38.543 35.978,39.979 39.751,39.979 C43.049,39.979 46.346,38.881 49.042,36.687 C49.469,35.83 49.559,34.888 49.313,33.992 C49.11,34.023 48.912,34.099 48.756,34.256" id="Fill-410" fill="#753D1F" sketch:type="MSShapeGroup"></path>
            <path d="M21.097,24.389 C18.573,22.055 18.086,18.996 17.57,15.757 C17.253,13.769 16.926,11.714 16.117,9.729 C14.02,4.584 9.2,0.99 3.828,0.403 C2.911,0.696 2.17,1.291 1.7,2.094 C1.867,2.22 2.065,2.309 2.29,2.309 C7.461,2.312 12.273,5.596 14.266,10.484 C14.986,12.256 15.296,14.195 15.595,16.072 C16.126,19.407 16.682,22.852 19.496,25.617 C20.101,25.296 20.714,25.003 21.336,24.741 C21.283,24.612 21.206,24.49 21.097,24.389" id="Fill-411" fill="#684B47" sketch:type="MSShapeGroup"></path>
        </g>
    </g>
</svg>