<?xml version="1.0" encoding="UTF-8" standalone="no"?>
<svg width="56px" height="57px" viewBox="0 0 56 57" version="1.1" xmlns="http://www.w3.org/2000/svg" xmlns:xlink="http://www.w3.org/1999/xlink" xmlns:sketch="http://www.bohemiancoding.com/sketch/ns">
    <!-- Generator: Sketch 3.2.2 (9983) - http://www.bohemiancoding.com/sketch -->
    <title>66 - Cookies (Flat)</title>
    <desc>Created with Sketch.</desc>
    <defs></defs>
    <g id="Page-1" stroke="none" stroke-width="1" fill="none" fill-rule="evenodd" sketch:type="MSPage">
        <g id="66---Cookies-(Flat)" sketch:type="MSLayerGroup" transform="translate(1.000000, 1.000000)">
            <path d="M13.5,34 C13.5,22.678 22.678,13.5 34,13.5 C34.244,13.5 34.48,13.528 34.721,13.536 C32.63,6.012 25.923,0.5 17.955,0.5 C8.315,0.5 0.5,8.559 0.5,18.5 C0.5,26.886 6.069,33.912 13.596,35.911 C13.538,35.281 13.5,34.645 13.5,34 L13.5,34 Z" id="Fill-1073" fill="#6A3311" sketch:type="MSShapeGroup"></path>
            <path d="M13.5,34 C13.5,22.678 22.678,13.5 34,13.5 C34.244,13.5 34.48,13.528 34.721,13.536 C32.63,6.012 25.923,0.5 17.955,0.5 C8.315,0.5 0.5,8.559 0.5,18.5 C0.5,26.886 6.069,33.912 13.596,35.911 C13.538,35.281 13.5,34.645 13.5,34 L13.5,34 Z" id="Stroke-1074" stroke="#6A3311" stroke-width="2" sketch:type="MSShapeGroup"></path>
            <path d="M13.5,34 C13.5,22.678 22.678,13.5 34,13.5 C34.244,13.5 34.48,13.528 34.721,13.536 C32.63,6.012 25.923,0.5 17.955,0.5 C8.315,0.5 0.5,8.559 0.5,18.5 C0.5,26.886 6.069,33.912 13.596,35.911 C13.538,35.281 13.5,34.645 13.5,34 L13.5,34 Z" id="Fill-1075" fill="#6A3311" sketch:type="MSShapeGroup"></path>
            <path d="M13.5,34 C13.5,22.678 22.678,13.5 34,13.5 C34.244,13.5 34.48,13.528 34.721,13.536 C32.63,6.012 25.923,0.5 17.955,0.5 C8.315,0.5 0.5,8.559 0.5,18.5 C0.5,26.886 6.069,33.912 13.596,35.911 C13.538,35.281 13.5,34.645 13.5,34 L13.5,34 Z" id="Stroke-1076" stroke="#6A3311" stroke-width="2" sketch:type="MSShapeGroup"></path>
            <path d="M14.994,26.339 C15.611,24.812 16.409,23.381 17.357,22.062 C16.945,20.588 15.606,19.5 14,19.5 C12.067,19.5 10.5,21.067 10.5,23 C10.5,24.933 12.067,26.5 14,26.5 C14.348,26.5 14.677,26.433 14.994,26.339" id="Fill-1077" fill="#8C572C" sketch:type="MSShapeGroup"></path>
            <path d="M1.5,15.5 C1.5,15.5 3.25,17.062 6.5,17.5" id="Fill-1078" fill="#A46F3E" sketch:type="MSShapeGroup"></path>
            <path d="M1.5,15.5 C1.5,15.5 3.25,17.062 6.5,17.5" id="Stroke-1079" stroke="#A46F3E" stroke-width="2" stroke-linecap="round" sketch:type="MSShapeGroup"></path>
            <path d="M6.5,13.5 C6.5,15.158 5.158,16.5 3.5,16.5" id="Fill-1080" fill="#A46F3E" sketch:type="MSShapeGroup"></path>
            <path d="M6.5,13.5 C6.5,15.158 5.158,16.5 3.5,16.5" id="Stroke-1081" stroke="#A46F3E" stroke-width="2" stroke-linecap="round" sketch:type="MSShapeGroup"></path>
            <path d="M18.5,9 C18.5,10.933 16.933,12.5 15,12.5 C13.067,12.5 11.5,10.933 11.5,9 C11.5,7.067 13.067,5.5 15,5.5 C16.933,5.5 18.5,7.067 18.5,9" id="Fill-1082" fill="#4C312C" sketch:type="MSShapeGroup"></path>
            <path d="M27.5,3.5 C27.5,3.5 27.813,8 24.5,9.5 C24.5,9.5 22.437,9.937 22.5,11.5" id="Fill-1083" fill="#A46F3E" sketch:type="MSShapeGroup"></path>
            <path d="M27.5,3.5 C27.5,3.5 27.813,8 24.5,9.5 C24.5,9.5 22.437,9.937 22.5,11.5" id="Stroke-1084" stroke="#A46F3E" stroke-width="2" stroke-linecap="round" sketch:type="MSShapeGroup"></path>
            <path d="M26.5,7.5 C26.5,7.5 22.875,6.25 22.5,6.5" id="Fill-1085" fill="#A46F3E" sketch:type="MSShapeGroup"></path>
            <path d="M26.5,7.5 C26.5,7.5 22.875,6.25 22.5,6.5" id="Stroke-1086" stroke="#A46F3E" stroke-width="2" stroke-linecap="round" sketch:type="MSShapeGroup"></path>
            <path d="M51.384,41.767 C49.078,40.838 47.962,38.217 48.891,35.912 C49.335,34.809 50.171,33.989 51.17,33.524 C49.464,32.498 48.698,30.367 49.466,28.462 C49.636,28.039 49.882,27.674 50.161,27.345 C49.719,27.283 49.276,27.172 48.843,26.998 C45.961,25.837 44.566,22.56 45.727,19.679 C45.987,19.034 46.357,18.468 46.8,17.985 C45.724,17.126 44.545,16.362 43.269,15.715 C33.171,10.596 20.834,14.632 15.715,24.731 C10.596,34.829 14.633,47.166 24.731,52.285 C34.829,57.404 47.166,53.367 52.285,43.269 C52.485,42.873 52.647,42.469 52.82,42.067 C52.339,42.041 51.855,41.957 51.384,41.767 L51.384,41.767 Z" id="Fill-1087" fill="#A46F3E" sketch:type="MSShapeGroup"></path>
            <path d="M51.384,41.767 C49.078,40.838 47.962,38.217 48.891,35.912 C49.335,34.809 50.171,33.989 51.17,33.524 C49.464,32.498 48.698,30.367 49.466,28.462 C49.636,28.039 49.882,27.674 50.161,27.345 C49.719,27.283 49.276,27.172 48.843,26.998 C45.961,25.837 44.566,22.56 45.727,19.679 C45.987,19.034 46.357,18.468 46.8,17.985 C45.724,17.126 44.545,16.362 43.269,15.715 C33.171,10.596 20.834,14.632 15.715,24.731 C10.596,34.829 14.633,47.166 24.731,52.285 C34.829,57.404 47.166,53.367 52.285,43.269 C52.485,42.873 52.647,42.469 52.82,42.067 C52.339,42.041 51.855,41.957 51.384,41.767 L51.384,41.767 Z" id="Stroke-1088" stroke="#A46F3E" stroke-width="2" sketch:type="MSShapeGroup"></path>
            <path d="M35.827,27.078 C34.953,28.802 32.847,29.491 31.123,28.617 C29.399,27.743 28.709,25.637 29.583,23.913 C30.458,22.189 32.564,21.5 34.288,22.374 C36.012,23.248 36.701,25.354 35.827,27.078" id="Fill-1089" fill="#6A3311" sketch:type="MSShapeGroup"></path>
            <path d="M29.497,39.565 C28.623,41.289 26.517,41.979 24.793,41.105 C23.069,40.231 22.38,38.124 23.253,36.4 C24.128,34.676 26.234,33.987 27.958,34.861 C29.682,35.735 30.371,37.841 29.497,39.565" id="Fill-1090" fill="#4C312C" sketch:type="MSShapeGroup"></path>
            <path d="M42.449,42.768 C41.575,44.492 39.469,45.18 37.745,44.306 C36.02,43.433 35.331,41.327 36.205,39.602 C37.079,37.878 39.185,37.189 40.909,38.063 C42.634,38.937 43.323,41.043 42.449,42.768" id="Fill-1091" fill="#8C572C" sketch:type="MSShapeGroup"></path>
            <path d="M39.033,53.929 C39.783,52.45 38.395,50.242 35.93,48.992" id="Stroke-1092" stroke="#8C572C" stroke-width="2" stroke-linecap="round" stroke-linejoin="round" sketch:type="MSShapeGroup"></path>
            <path d="M37.911,14.12 C36.911,16.092 37.698,18.497 39.67,19.496" id="Stroke-1093" stroke="#4C312C" stroke-width="2" stroke-linecap="round" sketch:type="MSShapeGroup"></path>
            <path d="M21.28,29.234 C19.802,28.484 19.211,26.68 19.961,25.202 C18.961,27.173 16.557,27.96 14.585,26.961 M30.138,44.935 C30.138,44.935 27.038,44.555 25.654,47.147 C25.654,47.147 23.342,50.74 20.278,48.906" id="Stroke-1094" stroke="#8C572C" stroke-width="2" stroke-linecap="round" stroke-linejoin="round" sketch:type="MSShapeGroup"></path>
        </g>
    </g>
</svg>