<?xml version="1.0" encoding="UTF-8" standalone="no"?>
<svg width="52px" height="48px" viewBox="0 0 52 48" version="1.1" xmlns="http://www.w3.org/2000/svg" xmlns:xlink="http://www.w3.org/1999/xlink" xmlns:sketch="http://www.bohemiancoding.com/sketch/ns">
    <!-- Generator: Sketch 3.2.2 (9983) - http://www.bohemiancoding.com/sketch -->
    <title>162 - Corkscrew (Flat)</title>
    <desc>Created with Sketch.</desc>
    <defs></defs>
    <g id="Page-1" stroke="none" stroke-width="1" fill="none" fill-rule="evenodd" sketch:type="MSPage">
        <g id="162---Corkscrew-(Flat)" sketch:type="MSLayerGroup">
            <path d="M25.228,30.698 C29.228,32.08 29.228,34.316 25.228,35.698 M25.228,20.698 C29.228,22.08 29.228,24.316 25.228,25.698 M25.228,30.698 C21.228,29.316 21.228,27.08 25.228,25.698 M25.228,40.698 C28.2,41.604 27.977,44.397 26.637,46.633 M25.228,40.698 C21.228,39.316 21.228,37.08 25.228,35.698" id="Stroke-713" stroke="#D2D5D7" stroke-width="2" stroke-linecap="round" sketch:type="MSShapeGroup"></path>
            <path d="M45.728,12.698 L41.148,13.94 C38.573,14.638 35.947,15.152 33.291,15.398 C28.946,15.8 24.577,15.864 20.226,15.588 C15.936,15.317 11.703,14.468 7.582,13.247 L5.728,12.698 C2.702,12.698 0.228,11.223 0.228,8.198 C0.228,5.173 2.702,3.698 5.728,3.698 L7.582,3.148 C11.703,1.927 15.936,1.079 20.226,0.808 C23.642,0.591 27.069,0.584 30.487,0.785 C34.555,1.025 38.578,1.759 42.511,2.825 L45.728,3.698 C48.752,3.698 51.228,5.173 51.228,8.198 C51.228,11.223 48.752,12.698 45.728,12.698" id="Fill-714" fill="#6A3311" sketch:type="MSShapeGroup"></path>
            <path d="M25.228,20.698 L25.228,15.633" id="Stroke-715" stroke="#D2D5D7" stroke-width="2" stroke-linecap="round" sketch:type="MSShapeGroup"></path>
            <path d="M22.237,1.565 C22.267,1.769 22.952,6.094 28.358,6.704 L28.359,6.704 C28.469,6.704 35.123,6.983 35.228,14.684 C35.23,14.871 35.167,15.037 35.08,15.188 C36.564,14.984 38.036,14.702 39.494,14.356 C39.477,14.337 39.452,14.329 39.436,14.308 C33.747,6.928 38.472,2.04 38.52,1.992 C38.556,1.956 38.602,1.94 38.641,1.911 C35.952,1.349 33.231,0.947 30.487,0.785 C27.506,0.609 24.518,0.602 21.535,0.745 C21.898,0.855 22.184,1.165 22.237,1.565" id="Fill-716" fill="#874F31" sketch:type="MSShapeGroup"></path>
            <path d="M39.939,3.4 C39.781,3.564 36.447,7.154 41.02,13.088 C41.212,13.338 41.253,13.646 41.185,13.93 L44.305,13.084 C44.256,12.965 44.228,12.835 44.228,12.698 L44.228,3.698 C44.228,3.561 44.256,3.431 44.305,3.312 L42.511,2.825 C41.709,2.608 40.9,2.414 40.091,2.225 C40.297,2.603 40.256,3.079 39.939,3.4" id="Fill-717" fill="#874F31" sketch:type="MSShapeGroup"></path>
            <path d="M5.228,3.713 C2.435,3.869 0.228,5.342 0.228,8.198 C0.228,11.054 2.435,12.527 5.228,12.682 L5.228,3.713" id="Fill-718" fill="#874F31" sketch:type="MSShapeGroup"></path>
            <path d="M8.271,13.406 C8.396,12.999 8.526,12.293 8.666,11.545 C9.268,8.31 9.856,5.777 11.471,5.031 C11.941,4.813 12.699,4.666 13.635,5.204 C14.092,5.465 14.716,5.727 15.102,5.498 C15.859,5.044 16.16,2.98 16.124,1.727 C16.119,1.548 16.175,1.386 16.254,1.238 C13.323,1.658 10.425,2.306 7.582,3.148 L7.131,3.282 C7.19,3.41 7.228,3.548 7.228,3.698 L7.228,12.698 C7.228,12.848 7.19,12.986 7.131,13.114 L7.582,13.247 C7.809,13.315 8.04,13.368 8.268,13.433 C8.27,13.424 8.268,13.415 8.271,13.406" id="Fill-719" fill="#874F31" sketch:type="MSShapeGroup"></path>
            <path d="M33.228,14.712 C33.148,8.848 28.43,8.701 28.229,8.698 C22.525,8.058 20.527,3.925 20.255,1.827 C20.193,1.351 20.485,0.928 20.919,0.774 C20.688,0.787 20.456,0.793 20.226,0.807 C19.434,0.858 18.646,0.947 17.859,1.035 C18.012,1.205 18.116,1.421 18.124,1.667 C18.146,2.381 18.152,5.999 16.131,7.212 C15.461,7.615 14.31,7.896 12.641,6.938 C12.552,6.888 12.396,6.809 12.31,6.847 C11.505,7.219 10.894,10.507 10.632,11.911 C10.479,12.732 10.346,13.442 10.194,13.955 C11.807,14.364 13.437,14.698 15.077,14.97 C15.07,14.871 15.063,14.771 15.088,14.669 C15.346,13.596 15.979,12.677 16.87,12.081 C17.786,11.469 18.864,11.267 19.903,11.518 C20.636,11.694 21.668,12.072 22.425,12.878 C23.157,13.656 23.426,14.661 23.218,15.719 C26.577,15.812 29.941,15.708 33.291,15.398 C33.361,15.392 33.43,15.381 33.5,15.374 C33.338,15.199 33.231,14.97 33.228,14.712" id="Fill-720" fill="#874F31" sketch:type="MSShapeGroup"></path>
            <path d="M46.228,3.713 L46.228,12.682 C49.02,12.527 51.228,11.054 51.228,8.198 C51.228,5.342 49.02,3.869 46.228,3.713" id="Fill-721" fill="#874F31" sketch:type="MSShapeGroup"></path>
            <path d="M21.255,15.399 C21.365,14.939 21.274,14.573 20.968,14.247 C20.641,13.9 20.098,13.622 19.437,13.464 C18.941,13.345 18.429,13.445 17.98,13.744 C17.509,14.059 17.173,14.554 17.033,15.135 C17.021,15.186 16.99,15.225 16.97,15.272 C18.051,15.412 19.137,15.519 20.226,15.588 C20.566,15.61 20.906,15.615 21.246,15.633 C21.246,15.555 21.236,15.478 21.255,15.399" id="Fill-722" fill="#874F31" sketch:type="MSShapeGroup"></path>
        </g>
    </g>
</svg>