<?xml version="1.0" encoding="UTF-8" standalone="no"?>
<svg width="26px" height="58px" viewBox="0 0 26 58" version="1.1" xmlns="http://www.w3.org/2000/svg" xmlns:xlink="http://www.w3.org/1999/xlink" xmlns:sketch="http://www.bohemiancoding.com/sketch/ns">
    <!-- Generator: Sketch 3.2.2 (9983) - http://www.bohemiancoding.com/sketch -->
    <title>199 - Cucumber (Flat)</title>
    <desc>Created with Sketch.</desc>
    <defs></defs>
    <g id="Page-1" stroke="none" stroke-width="1" fill="none" fill-rule="evenodd" sketch:type="MSPage">
        <g id="199---Cucumber-(Flat)" sketch:type="MSLayerGroup">
            <path d="M22.87,42.971 C22.676,41.808 22.512,40.642 22.366,39.474 C22.512,39.417 22.654,39.347 22.787,39.253 C23.689,38.617 23.905,37.369 23.268,36.466 C22.951,36.016 22.482,35.737 21.979,35.649 C21.894,34.565 21.827,33.479 21.783,32.393 C21.964,32.332 22.141,32.254 22.305,32.139 C23.208,31.502 23.423,30.254 22.787,29.352 C22.517,28.97 22.136,28.719 21.721,28.596 C21.726,27.583 21.743,26.571 21.785,25.56 C22.031,25.503 22.271,25.401 22.49,25.246 C23.392,24.61 23.608,23.362 22.971,22.459 C22.729,22.116 22.398,21.874 22.032,21.738 C22.123,20.687 22.23,19.638 22.36,18.591 C23.269,18.403 23.953,17.598 23.953,16.633 C23.953,15.875 23.526,15.223 22.904,14.884 C23.062,13.951 23.234,13.019 23.423,12.091 C24.487,12.044 25.337,11.174 25.337,10.099 C25.337,9.257 24.816,8.54 24.079,8.245 C24.164,3.917 20.967,0.633 16.27,0.633 C13.805,0.633 11.587,1.962 9.774,3.625 C9.441,3.375 9.032,3.223 8.584,3.223 C7.479,3.223 6.584,4.119 6.584,5.223 C6.584,5.751 6.792,6.227 7.126,6.585 C6.504,7.41 5.994,8.176 5.617,8.789 C5.379,8.689 5.118,8.633 4.844,8.633 C3.739,8.633 2.844,9.528 2.844,10.633 C2.844,11.348 3.222,11.971 3.786,12.324 C3.479,13.069 3.211,13.845 2.977,14.646 C2.932,14.644 2.889,14.633 2.844,14.633 C1.739,14.633 0.844,15.528 0.844,16.633 C0.844,17.482 1.375,18.203 2.121,18.493 C1.957,19.533 1.837,20.596 1.752,21.673 C1.516,21.731 1.286,21.829 1.075,21.978 C0.172,22.614 -0.043,23.862 0.593,24.765 C0.85,25.128 1.207,25.374 1.599,25.504 C1.594,26.537 1.614,27.569 1.657,28.597 C1.455,28.657 1.257,28.742 1.075,28.87 C0.172,29.507 -0.043,30.755 0.593,31.657 C0.918,32.117 1.402,32.396 1.918,32.478 C2.021,33.593 2.145,34.684 2.281,35.742 C2.113,35.802 1.949,35.876 1.796,35.984 C0.893,36.621 0.677,37.869 1.314,38.771 C1.684,39.297 2.262,39.581 2.858,39.609 C3.029,40.618 3.204,41.57 3.378,42.455 C3.163,42.556 2.961,42.691 2.787,42.873 C2.021,43.668 2.045,44.934 2.841,45.7 C3.22,46.066 3.708,46.246 4.196,46.254 C4.572,47.849 4.845,48.818 4.875,48.909 C4.937,49.095 5.003,49.273 5.067,49.454 C5.035,49.483 5,49.505 4.97,49.536 C4.204,50.332 4.228,51.598 5.024,52.364 C5.468,52.792 6.058,52.964 6.626,52.903 C8.362,55.877 10.771,57.633 14.344,57.633 C19.046,57.633 22.979,54.17 23.719,49.668 C23.863,48.789 23.796,47.888 23.625,47.013 L23.593,46.848 C23.881,46.748 24.152,46.589 24.378,46.354 C25.144,45.558 25.12,44.292 24.324,43.526 C23.918,43.136 23.391,42.953 22.87,42.971" id="Fill-277" fill="#436B1C" sketch:type="MSShapeGroup"></path>
            <path d="M11.954,8.633 C11.954,7.874 12.569,7.258 13.329,7.258 C14.088,7.258 14.704,7.874 14.704,8.633 M15.844,15.008 C15.844,14.249 16.459,13.633 17.219,13.633 C17.978,13.633 18.594,14.249 18.594,15.008 M6.404,31.965 C6.404,31.206 7.019,30.59 7.779,30.59 C8.538,30.59 9.154,31.206 9.154,31.965 M15.094,50.008 C15.094,49.249 15.709,48.633 16.469,48.633 C17.228,48.633 17.844,49.249 17.844,50.008 M14.844,25.633 C14.844,24.874 15.459,24.258 16.219,24.258 C16.978,24.258 17.594,24.874 17.594,25.633 M8.779,43.635 C8.779,42.875 9.394,42.26 10.154,42.26 C10.913,42.26 11.529,42.875 11.529,43.635 M8.844,20.008 C8.844,19.249 9.459,18.633 10.219,18.633 C10.978,18.633 11.594,19.249 11.594,20.008 M15.094,35.633 C15.094,34.874 15.709,34.258 16.469,34.258 C17.228,34.258 17.844,34.874 17.844,35.633" id="Stroke-278" stroke="#659C35" stroke-width="2" stroke-linecap="round" sketch:type="MSShapeGroup"></path>
        </g>
    </g>
</svg>