<?xml version="1.0" encoding="UTF-8" standalone="no"?>
<svg width="49px" height="51px" viewBox="0 0 49 51" version="1.1" xmlns="http://www.w3.org/2000/svg" xmlns:xlink="http://www.w3.org/1999/xlink" xmlns:sketch="http://www.bohemiancoding.com/sketch/ns">
    <!-- Generator: Sketch 3.2.2 (9983) - http://www.bohemiancoding.com/sketch -->
    <title>120 - Cupcake (Flat)</title>
    <desc>Created with Sketch.</desc>
    <defs></defs>
    <g id="Page-1" stroke="none" stroke-width="1" fill="none" fill-rule="evenodd" sketch:type="MSPage">
        <g id="120---Cupcake-(Flat)" sketch:type="MSLayerGroup" transform="translate(-1.000000, 0.000000)">
            <path d="M18.539,7.976 C18.539,3.567 21.597,0 25.376,0 L26.515,0 C30.294,0 33.352,3.567 33.352,7.976 C33.352,12.066 30.036,15.382 25.945,15.382 C21.855,15.382 18.539,12.066 18.539,7.976" id="Fill-899" fill="#ED3F32" sketch:type="MSShapeGroup"></path>
            <path d="M27.133,2.382 C27.133,3.65 28.158,4.675 29.426,4.675" id="Stroke-900" stroke="#FFFFFF" stroke-width="2" stroke-linecap="round" sketch:type="MSShapeGroup"></path>
            <path d="M1.85,30.346 C1.157,30.749 0.859,31.599 1.063,32.374 L1.18,32.82 C2.211,36.755 3.878,40.481 6.105,43.856 C8.053,46.811 10.943,49.056 14.313,50.136 C14.785,50.288 15.178,50.382 15.426,50.382 L35.426,50.382 C35.676,50.382 36.076,50.285 36.555,50.13 C39.918,49.043 42.803,46.804 44.75,43.853 C46.974,40.48 48.639,36.757 49.671,32.827 L49.791,32.37 C49.994,31.597 49.698,30.749 49.008,30.346 C46.705,29.004 43.801,29.063 41.552,30.526 C40.881,30.962 39.99,30.976 39.322,30.536 C36.976,28.994 33.909,28.998 31.566,30.546 C30.895,30.989 30.057,30.989 29.386,30.546 C27.037,28.993 23.96,28.994 21.611,30.55 C20.943,30.992 20.108,30.995 19.439,30.554 C17.053,28.986 13.921,28.992 11.54,30.57 C10.884,31.005 10.063,31.001 9.407,30.567 C7.137,29.065 4.186,28.991 1.85,30.346" id="Fill-901" fill="#F4C44E" sketch:type="MSShapeGroup"></path>
            <path d="M39.869,19.508 C40.224,18.705 40.426,17.818 40.426,16.882 C40.426,13.292 37.516,10.382 33.926,10.382 C33.639,10.382 33.261,10.435 32.901,10.501 C31.867,13.346 29.148,15.382 25.945,15.382 C22.742,15.382 20.022,13.345 18.989,10.498 C18.611,10.434 18.217,10.382 17.926,10.382 C14.336,10.382 11.426,13.292 11.426,16.882 C11.426,17.778 11.607,18.631 11.935,19.407 C7.194,19.663 3.426,23.578 3.426,28.382 C3.426,28.813 3.466,29.233 3.525,29.648 C5.918,28.985 8.592,29.578 10.476,31.434 C13.254,28.698 17.749,28.698 20.527,31.434 C23.276,28.698 27.727,28.698 30.476,31.434 C33.226,28.698 37.676,28.698 40.426,31.434 C42.297,29.582 44.95,28.988 47.327,29.644 C47.385,29.231 47.426,28.812 47.426,28.382 C47.426,23.904 44.152,20.2 39.869,19.508" id="Fill-902" fill="#F4E6D0" sketch:type="MSShapeGroup"></path>
        </g>
    </g>
</svg>