<?xml version="1.0" encoding="UTF-8" standalone="no"?>
<svg width="59px" height="50px" viewBox="0 0 59 50" version="1.1" xmlns="http://www.w3.org/2000/svg" xmlns:xlink="http://www.w3.org/1999/xlink" xmlns:sketch="http://www.bohemiancoding.com/sketch/ns">
    <!-- Generator: Sketch 3.2.2 (9983) - http://www.bohemiancoding.com/sketch -->
    <title>118 - Doughnut (Flat)</title>
    <desc>Created with Sketch.</desc>
    <defs></defs>
    <g id="Page-1" stroke="none" stroke-width="1" fill="none" fill-rule="evenodd" sketch:type="MSPage">
        <g id="118---Doughnut-(Flat)" sketch:type="MSLayerGroup">
            <path d="M57.664,20.52 C57.664,9.474 44.904,0.52 29.164,0.52 C13.424,0.52 0.664,9.474 0.664,20.52 L0.664,29.516 L0.664,29.52 C0.664,40.566 13.424,49.52 29.164,49.52 C44.904,49.52 57.664,40.566 57.664,29.52 L57.664,29.516 L57.664,20.52 L57.664,20.52 Z M29.664,25.52 C24.141,25.52 19.664,22.834 19.664,19.52 C19.664,16.206 24.141,13.52 29.664,13.52 C35.186,13.52 39.664,16.206 39.664,19.52 C39.664,22.834 35.186,25.52 29.664,25.52 L29.664,25.52 Z" id="Fill-2167" fill="#EEAF4B" sketch:type="MSShapeGroup"></path>
            <path d="M29.664,19.323 C33.255,19.323 36.558,20.041 39.228,21.24 C39.503,20.695 39.664,20.121 39.664,19.523 C39.664,16.209 35.186,13.523 29.664,13.523 C24.141,13.523 19.664,16.209 19.664,19.523 C19.664,20.121 19.825,20.695 20.099,21.24 C22.769,20.041 26.072,19.323 29.664,19.323" id="Fill-2168" fill="#FBD490" sketch:type="MSShapeGroup"></path>
            <path d="M58.274,18.354 C56.467,8.008 44.005,0 28.991,0 C14.609,0 2.699,7.348 0.152,17.06 C-0.385,19.106 0.539,21.23 2.337,22.404 C3.763,23.335 3.435,30.454 3.812,31.98 C4.069,33.017 4.85,33.875 5.913,34.116 C7.483,34.472 11.452,33.768 12.202,36.502 C12.315,36.911 12.427,37.303 12.48,37.694 C12.606,38.639 13.581,39.225 14.465,38.824 C15.347,38.423 16.882,36.426 18.524,36.169 C24.2,35.282 21.485,40.57 22.728,42.381 C23.38,43.331 24.622,43.616 25.67,43.106 C26.596,42.656 26.767,40.244 28.744,40.276 C31.267,40.317 30.735,42.619 31.607,43.007 C32.75,43.517 34.146,43.217 34.875,42.218 C36.131,40.499 37.229,36.417 39.543,36.169 C42.531,35.848 43.167,38.481 44.129,38.977 C44.944,39.398 45.912,38.925 46.033,38.032 C46.308,36.005 46.899,32.094 52.154,33.627 C52.926,33.852 53.505,32.826 53.703,32.062 C54.368,29.502 54.948,22.938 56.655,21.922 C57.902,21.18 58.52,19.761 58.274,18.354 L58.274,18.354 Z M29.664,25.52 C24.141,25.52 19.664,22.834 19.664,19.52 C19.664,16.206 24.141,13.52 29.664,13.52 C35.186,13.52 39.664,16.206 39.664,19.52 C39.664,22.834 35.186,25.52 29.664,25.52 L29.664,25.52 Z" id="Fill-2169" fill="#E6E6E6" sketch:type="MSShapeGroup"></path>
        </g>
    </g>
</svg>