<?xml version="1.0" encoding="UTF-8" standalone="no"?>
<svg width="57px" height="60px" viewBox="0 0 57 60" version="1.1" xmlns="http://www.w3.org/2000/svg" xmlns:xlink="http://www.w3.org/1999/xlink" xmlns:sketch="http://www.bohemiancoding.com/sketch/ns">
    <!-- Generator: Sketch 3.2.2 (9983) - http://www.bohemiancoding.com/sketch -->
    <title>197 - Eggplant (Flat)</title>
    <desc>Created with Sketch.</desc>
    <defs></defs>
    <g id="Page-1" stroke="none" stroke-width="1" fill="none" fill-rule="evenodd" sketch:type="MSPage">
        <g id="197---Eggplant-(Flat)" sketch:type="MSLayerGroup" transform="translate(0.000000, 1.000000)">
            <path d="M50.05,18.594 C50.054,18.597 50.057,18.6 50.062,18.603 L50.04,18.588 C50.043,18.59 50.047,18.591 50.05,18.594 C48.978,17.834 48.545,16.6 49.085,15.831 C48.543,16.604 47.227,16.615 46.146,15.856 C45.065,15.097 44.627,13.856 45.169,13.084 C44.627,13.856 43.312,13.867 42.23,13.109 C41.149,12.35 40.712,11.109 41.254,10.337 C40.753,11.05 39.595,11.105 38.57,10.514 C37.039,11.628 35.339,13.139 33.476,15.193 C33.476,15.193 25.409,22.73 14.031,24.805 C12.979,24.997 11.934,25.252 10.954,25.678 C10.514,25.869 9.536,26.38 9.536,26.38 C2.838,30.085 -0.737,37.989 1.364,45.703 C3.25,52.629 9.156,57.37 15.882,58.116 C18.967,58.458 22.072,57.785 24.882,56.465 C31.138,53.527 43.896,45.047 49.172,23.355 C49.172,23.355 49.968,21.39 50.536,18.841 C50.37,18.779 50.206,18.702 50.05,18.594" id="Fill-322" fill="#583E68" sketch:type="MSShapeGroup"></path>
            <path d="M54.779,0.633 C56.467,4.655 53.08,6.292 49.764,6.292" id="Stroke-323" stroke="#6A3311" stroke-width="2" stroke-linecap="round" sketch:type="MSShapeGroup"></path>
            <path d="M38.293,10.346 C37.299,9.649 37.033,8.312 37.7,7.362 C38.367,6.411 39.714,6.207 40.708,6.904 C42.842,3.862 46.686,4.131 49.868,6.364 C53.05,8.596 54.488,12.033 52.354,15.075 C53.349,15.773 53.614,17.109 52.947,18.059 C52.28,19.01 51.034,19.286 50.04,18.588 L50.061,18.603 C48.98,17.845 48.543,16.604 49.085,15.831 C48.543,16.604 47.227,16.615 46.146,15.856 C45.065,15.097 44.627,13.856 45.169,13.084 C44.627,13.856 43.311,13.867 42.23,13.109 C41.149,12.35 40.712,11.109 41.254,10.337 C40.712,11.109 39.396,11.12 38.315,10.362" id="Fill-324" fill="#659C35" sketch:type="MSShapeGroup"></path>
            <path d="M7.861,36.279 C6.124,40.273 6.219,45.188 8.509,48.948 M13.936,30.127 C12.361,30.768 10.963,31.794 9.855,33.081" id="Stroke-325" stroke="#6F58A8" stroke-width="2" stroke-linecap="round" sketch:type="MSShapeGroup"></path>
        </g>
    </g>
</svg>