<?xml version="1.0" encoding="UTF-8" standalone="no"?>
<svg width="54px" height="43px" viewBox="0 0 54 43" version="1.1" xmlns="http://www.w3.org/2000/svg" xmlns:xlink="http://www.w3.org/1999/xlink" xmlns:sketch="http://www.bohemiancoding.com/sketch/ns">
    <!-- Generator: Sketch 3.2.2 (9983) - http://www.bohemiancoding.com/sketch -->
    <title>45 - Eggs (Flat)</title>
    <desc>Created with Sketch.</desc>
    <defs></defs>
    <g id="Page-1" stroke="none" stroke-width="1" fill="none" fill-rule="evenodd" sketch:type="MSPage">
        <g id="45---Eggs-(Flat)" sketch:type="MSLayerGroup">
            <path d="M43,28.5 C43,21.044 28.897,15 15.12,15 C-3.958,15 -4,41.966 14.172,41.966 C14.492,41.966 14.807,42 15.12,42 C28.897,42 43,35.956 43,28.5" id="Fill-1328" fill="#FAF6E5" sketch:type="MSShapeGroup"></path>
            <path d="M40.5,0 C35.085,0 30.418,7.44 28.266,16.79 C36.627,19.119 43,23.489 43,28.5 C43,32.79 38.327,36.609 31.738,39.082 C39.472,45.672 53.966,42.155 53.966,28.828 C53.966,28.508 54,28.193 54,27.88 C54,14.103 47.956,0 40.5,0" id="Fill-1329" fill="#EBCBA2" sketch:type="MSShapeGroup"></path>
            <path d="M5.014,29.001 C4.997,29.001 4.981,29.001 4.965,29 C4.413,28.974 3.987,28.505 4.014,27.953 C4.178,24.56 5.785,21.548 8.424,19.686 C8.875,19.369 9.498,19.476 9.817,19.928 C10.136,20.379 10.027,21.003 9.576,21.321 C7.444,22.824 6.146,25.276 6.012,28.049 C5.985,28.584 5.544,29.001 5.014,29.001" id="Fill-1330" fill="#FFFFFF" sketch:type="MSShapeGroup"></path>
            <path d="M11.999,20.094 C11.562,20.094 11.161,19.805 11.037,19.364 C10.888,18.833 11.197,18.28 11.729,18.131 C12.852,17.815 14.069,17.655 15.35,17.655 C15.902,17.655 16.35,18.102 16.35,18.655 C16.35,19.208 15.902,19.655 15.35,19.655 C14.253,19.655 13.217,19.79 12.271,20.057 C12.181,20.082 12.089,20.094 11.999,20.094" id="Fill-1331" fill="#FFFFFF" sketch:type="MSShapeGroup"></path>
            <path d="M48,15 C47.568,15 47.17,14.719 47.041,14.284 C46.521,12.529 45.79,10.935 44.871,9.549 C44.565,9.088 44.691,8.468 45.151,8.163 C45.612,7.854 46.231,7.983 46.537,8.443 C47.566,9.996 48.382,11.769 48.959,13.716 C49.116,14.245 48.813,14.802 48.284,14.959 C48.19,14.987 48.094,15 48,15" id="Fill-1332" fill="#FAF6E5" sketch:type="MSShapeGroup"></path>
            <path d="M43,6.904 C42.769,6.904 42.536,6.824 42.347,6.661 C40.877,5.394 39.673,4.945 39.661,4.94 C39.144,4.752 38.875,4.18 39.062,3.661 C39.248,3.144 39.817,2.875 40.335,3.058 C40.398,3.08 41.878,3.616 43.653,5.147 C44.071,5.508 44.118,6.139 43.757,6.557 C43.56,6.787 43.28,6.904 43,6.904" id="Fill-1333" fill="#FAF6E5" sketch:type="MSShapeGroup"></path>
        </g>
    </g>
</svg>