<?xml version="1.0" encoding="UTF-8" standalone="no"?>
<svg width="48px" height="48px" viewBox="0 0 48 48" version="1.1" xmlns="http://www.w3.org/2000/svg" xmlns:xlink="http://www.w3.org/1999/xlink" xmlns:sketch="http://www.bohemiancoding.com/sketch/ns">
    <!-- Generator: Sketch 3.2.2 (9983) - http://www.bohemiancoding.com/sketch -->
    <title>23 - Flour (Flat)</title>
    <desc>Created with Sketch.</desc>
    <defs></defs>
    <g id="Page-1" stroke="none" stroke-width="1" fill="none" fill-rule="evenodd" sketch:type="MSPage">
        <g id="23---Flour-(Flat)" sketch:type="MSLayerGroup" transform="translate(-1.000000, 0.000000)">
            <path d="M45.466,41.314 C45.466,41.126 45.477,40.939 45.456,40.748 L42.634,17.489 L35.128,16.591 C29.94,17.353 18.331,17.339 13.152,16.55 L6.766,17.576 L4.505,40.798 C4.484,40.982 4.495,41.16 4.495,41.341 L1.416,44.42 C0.432,45.404 1.267,47.073 2.644,46.877 L8.081,46.1 C8.176,46.127 8.263,46.168 8.359,46.19 C18.942,48.541 29.905,48.602 40.513,46.369 L41.547,46.151 C41.626,46.135 41.696,46.101 41.773,46.081 L47.343,46.877 C48.72,47.073 49.555,45.404 48.571,44.42 L45.466,41.314 Z" id="Fill-1894" fill="#AF875C" sketch:type="MSShapeGroup"></path>
            <path d="M42.782,17.467 L35.128,18.591 C29.94,19.353 18.331,19.339 13.152,18.55 L6.05,17.467 C4.925,17.467 4.013,16.855 4.013,16.1 L4.013,15.901 C4.013,13.441 6.987,11 10.655,11 L38.178,11 C41.846,11 44.82,13.441 44.82,15.901 L44.82,16.1 C44.82,16.855 43.908,17.467 42.782,17.467" id="Fill-1892" fill="#96683B" sketch:type="MSShapeGroup"></path>
            <path d="M24.5,0 C15.179,1.125 10,11 10,11 L39,11 C39,11 33.821,1.125 24.5,0" id="Fill-1893" fill="#E6E6E6" sketch:type="MSShapeGroup"></path>
            <path d="M31,6.866 C31,7.492 30.492,8 29.866,8 C29.24,8 28.733,7.492 28.733,6.866 C28.733,6.24 29.24,5.733 29.866,5.733 C30.492,5.733 31,6.24 31,6.866" id="Fill-1895" fill="#FFFFFF" sketch:type="MSShapeGroup"></path>
            <path d="M24.199,6.866 C24.199,7.492 23.691,8 23.065,8 C22.439,8 21.932,7.492 21.932,6.866 C21.932,6.24 22.439,5.733 23.065,5.733 C23.691,5.733 24.199,6.24 24.199,6.866" id="Fill-1896" fill="#FFFFFF" sketch:type="MSShapeGroup"></path>
            <path d="M27.599,4.599 C27.599,5.225 27.092,5.733 26.466,5.733 C25.84,5.733 25.332,5.225 25.332,4.599 C25.332,3.973 25.84,3.466 26.466,3.466 C27.092,3.466 27.599,3.973 27.599,4.599" id="Fill-1897" fill="#FFFFFF" sketch:type="MSShapeGroup"></path>
            <path d="M23.809,38.422 L21.318,38.422 C18.368,38.422 15.976,36.031 15.976,33.081 L15.976,30.59 L18.468,30.59 C21.418,30.59 23.809,32.981 23.809,35.931 L23.809,38.422" id="Fill-1898" fill="#F9D70B" sketch:type="MSShapeGroup"></path>
            <path d="M27.291,38.422 L29.782,38.422 C32.732,38.422 35.124,36.031 35.124,33.081 L35.124,30.59 L32.632,30.59 C29.682,30.59 27.291,32.981 27.291,35.931 L27.291,38.422" id="Fill-1899" fill="#F9D70B" sketch:type="MSShapeGroup"></path>
            <path d="M25.543,34.506 L27.305,32.744 C29.391,30.658 29.391,27.276 27.305,25.19 L25.543,23.428 L23.781,25.19 C21.695,27.276 21.695,30.658 23.781,32.744 L25.543,34.506" id="Fill-1900" fill="#F9D70B" sketch:type="MSShapeGroup"></path>
        </g>
    </g>
</svg>