<?xml version="1.0" encoding="UTF-8" standalone="no"?>
<svg width="39px" height="52px" viewBox="0 0 39 52" version="1.1" xmlns="http://www.w3.org/2000/svg" xmlns:xlink="http://www.w3.org/1999/xlink" xmlns:sketch="http://www.bohemiancoding.com/sketch/ns">
    <!-- Generator: Sketch 3.2.2 (9983) - http://www.bohemiancoding.com/sketch -->
    <title>90 - French Fries (Flat)</title>
    <desc>Created with Sketch.</desc>
    <defs></defs>
    <g id="Page-1" stroke="none" stroke-width="1" fill="none" fill-rule="evenodd" sketch:type="MSPage">
        <g id="Icons" sketch:type="MSArtboardGroup" transform="translate(-131.000000, -2041.000000)">
            <g id="90---French-Fries-(Flat)" sketch:type="MSLayerGroup" transform="translate(130.000000, 2041.000000)">
                <path d="M20.426,23.726 C21.189,23.726 22.058,23.612 22.963,23.396 L22.963,0 L17.963,0 L17.963,23.414 C18.841,23.618 19.684,23.726 20.426,23.726" id="Fill-2194" fill="#FAB900" sketch:type="MSShapeGroup"></path>
                <path d="M27.963,21.182 L27.963,5 L22.963,5 L22.963,23 C24.652,22.598 26.464,22.232 27.963,21.182" id="Fill-2195" fill="#FDEC07" sketch:type="MSShapeGroup"></path>
                <path d="M30.178,19.068 C30.868,18.105 31.854,17.42 32.963,17.102 L32.963,9 L27.963,9 L27.963,21 C28.838,20.388 29.608,19.863 30.178,19.068" id="Fill-2196" fill="#E09A09" sketch:type="MSShapeGroup"></path>
                <path d="M34.344,16.901 L37.204,16.901 C37.471,16.901 37.722,16.952 37.963,17.023 L37.963,12 L32.963,12 L32.963,17.102 C33.408,16.975 33.87,16.901 34.344,16.901" id="Fill-2197" fill="#FDEC07" sketch:type="MSShapeGroup"></path>
                <path d="M17.963,23 L17.963,5 L12.963,5 L12.963,21.231 C14.47,22.271 16.281,22.609 17.963,23" id="Fill-2198" fill="#FDEC07" sketch:type="MSShapeGroup"></path>
                <path d="M10.679,19.068 C11.265,19.885 12.061,20.377 12.963,21 L12.963,9 L7.963,9 L7.963,17.124 C9.044,17.45 10.004,18.125 10.679,19.068" id="Fill-2199" fill="#F9B700" sketch:type="MSShapeGroup"></path>
                <path d="M3.654,16.901 L6.513,16.901 C7.012,16.901 7.498,16.984 7.963,17.124 L7.963,12 L2.963,12 L2.963,16.999 C3.184,16.941 3.413,16.901 3.654,16.901" id="Fill-2200" fill="#FDEC07" sketch:type="MSShapeGroup"></path>
                <path d="M34.344,16.402 C32.701,16.402 31.153,17.188 30.205,18.529 C28.146,21.445 23.456,23.226 20.426,23.226 C17.396,23.226 12.712,21.445 10.652,18.529 C9.704,17.188 8.156,16.402 6.513,16.402 L3.654,16.402 C1.992,16.402 1.001,17.854 1.001,19.533 L1,19.708 C0.976,29.499 2.607,39.224 5.824,48.472 L6.049,49.118 C6.505,50.428 8.012,51.5 9.398,51.5 L31.459,51.5 C33.231,51.5 34.743,50.219 35.034,48.472 C38.295,39.228 39.928,29.488 39.858,19.685 L39.857,19.533 C39.857,17.854 38.866,16.402 37.204,16.402 L34.344,16.402" id="Fill-2201" fill="#D32500" sketch:type="MSShapeGroup"></path>
                <path d="M37.204,21.798 L34.344,21.798 C32.701,21.798 31.153,22.584 30.205,23.926 C28.146,26.841 23.456,28.623 20.426,28.623 C17.396,28.623 12.712,26.841 10.652,23.926 C9.704,22.584 8.156,21.798 6.513,21.798 L3.654,21.798 C2.296,21.798 1.397,22.773 1.109,24.043 C1.504,32.363 3.082,40.591 5.824,48.472 C5.824,48.472 14.478,46.5 20.463,46.5 C26.442,46.5 34.998,48.688 35.034,48.472 C37.805,40.617 39.387,32.404 39.761,24.1 C39.488,22.801 38.582,21.798 37.204,21.798" id="Fill-2202" fill="#F65E30" sketch:type="MSShapeGroup"></path>
                <path d="M27.963,37.5 C27.963,40.261 24.829,42.5 20.963,42.5 C17.097,42.5 13.963,40.261 13.963,37.5 C13.963,34.739 17.097,32.5 20.963,32.5 C24.829,32.5 27.963,34.739 27.963,37.5" id="Fill-2203" fill="#FAC84D" sketch:type="MSShapeGroup"></path>
            </g>
        </g>
    </g>
</svg>