<?xml version="1.0" encoding="UTF-8" standalone="no"?>
<svg width="32px" height="54px" viewBox="0 0 32 54" version="1.1" xmlns="http://www.w3.org/2000/svg" xmlns:xlink="http://www.w3.org/1999/xlink" xmlns:sketch="http://www.bohemiancoding.com/sketch/ns">
    <!-- Generator: Sketch 3.2.2 (9983) - http://www.bohemiancoding.com/sketch -->
    <title>96 - Frosted Icecream (Flat)</title>
    <desc>Created with Sketch.</desc>
    <defs></defs>
    <g id="Page-1" stroke="none" stroke-width="1" fill="none" fill-rule="evenodd" sketch:type="MSPage">
        <g id="Icons" sketch:type="MSArtboardGroup" transform="translate(-613.000000, -1921.000000)">
            <g id="96---Frosted-Icecream-(Flat)" sketch:type="MSLayerGroup" transform="translate(613.000000, 1921.000000)">
                <path d="M15.714,0.792 C2.541,0.792 0,12.003 0,15.761 C0,18.799 1.407,21.261 3.143,21.261 C4.879,21.261 6.286,20.299 6.286,17.261 C6.286,20.299 7.693,21.261 9.429,21.261 C11.164,21.261 12.571,20.299 12.571,17.261 C12.571,20.299 13.979,21.261 15.714,21.261 C17.45,21.261 18.857,20.299 18.857,17.261 C18.857,20.299 20.264,21.261 22,21.261 C23.736,21.261 25.143,20.299 25.143,17.261 C25.143,20.299 26.55,21.261 28.286,21.261 C30.021,21.261 31.429,18.799 31.429,15.761 C31.429,11.453 28.914,0.792 15.714,0.792" id="Fill-542" fill="#F2ECD3" sketch:type="MSShapeGroup"></path>
                <path d="M25.288,17.896 L24.998,17.896 C24.61,19.801 23.423,20.47 22,20.47 C20.577,20.47 19.39,19.801 19.002,17.896 L18.712,17.896 C18.325,19.801 17.137,20.47 15.714,20.47 C14.292,20.47 13.104,19.801 12.716,17.896 L12.426,17.896 C12.039,19.801 10.851,20.47 9.429,20.47 C8.028,20.47 6.855,19.821 6.449,17.983 C6.324,18.018 6.205,18.064 6.093,18.122 C5.891,18.927 5.536,19.489 5.073,19.858 C5.079,20.06 5.115,20.266 5.193,20.47 L10.224,35.47 L16.249,53.47 L22.273,35.47 L27.304,20.47 C27.32,20.427 27.327,20.384 27.336,20.341 C26.351,20.084 25.584,19.355 25.288,17.896" id="Fill-543" fill="#FBD490" sketch:type="MSShapeGroup"></path>
                <path d="M22.971,22.414 L21.556,23.828 L22.971,25.243 L24.385,23.828 L22.971,22.414" id="Fill-544" fill="#EEAF4B" sketch:type="MSShapeGroup"></path>
                <path d="M17.314,22.414 L15.899,21 L14.485,22.414 L15.899,23.828 L17.314,22.414" id="Fill-545" fill="#EEAF4B" sketch:type="MSShapeGroup"></path>
                <path d="M18.728,26.657 L20.142,25.243 L18.728,23.828 L17.314,25.243 L18.728,26.657" id="Fill-546" fill="#EEAF4B" sketch:type="MSShapeGroup"></path>
                <path d="M20.142,28.071 L21.556,29.485 L22.971,28.071 L21.556,26.657 L20.142,28.071" id="Fill-547" fill="#EEAF4B" sketch:type="MSShapeGroup"></path>
                <path d="M13.071,23.828 L11.657,22.414 L10.243,23.828 L11.657,25.243 L13.071,23.828" id="Fill-548" fill="#EEAF4B" sketch:type="MSShapeGroup"></path>
                <path d="M14.485,28.071 L15.899,26.657 L14.485,25.243 L13.071,26.657 L14.485,28.071" id="Fill-549" fill="#EEAF4B" sketch:type="MSShapeGroup"></path>
                <path d="M18.728,29.485 L17.314,28.071 L15.899,29.485 L17.314,30.899 L18.728,29.485" id="Fill-550" fill="#EEAF4B" sketch:type="MSShapeGroup"></path>
                <path d="M18.728,32.313 L20.142,33.728 L21.556,32.313 L20.142,30.899 L18.728,32.313" id="Fill-551" fill="#EEAF4B" sketch:type="MSShapeGroup"></path>
                <path d="M11.657,28.071 L10.243,26.657 L8.828,28.071 L10.243,29.485 L11.657,28.071" id="Fill-552" fill="#EEAF4B" sketch:type="MSShapeGroup"></path>
                <path d="M13.071,29.485 L11.657,30.899 L13.071,32.313 L14.485,30.899 L13.071,29.485" id="Fill-553" fill="#EEAF4B" sketch:type="MSShapeGroup"></path>
                <path d="M17.314,33.728 L15.899,32.313 L14.485,33.728 L15.899,35.142 L17.314,33.728" id="Fill-554" fill="#EEAF4B" sketch:type="MSShapeGroup"></path>
                <path d="M17.314,36.556 L18.728,37.97 L20.142,36.556 L18.728,35.142 L17.314,36.556" id="Fill-555" fill="#EEAF4B" sketch:type="MSShapeGroup"></path>
                <path d="M13.071,35.142 L11.657,33.728 L10.243,35.142 L11.657,36.556 L13.071,35.142" id="Fill-556" fill="#EEAF4B" sketch:type="MSShapeGroup"></path>
                <path d="M14.485,39.385 L15.899,37.97 L14.485,36.556 L13.071,37.97 L14.485,39.385" id="Fill-557" fill="#EEAF4B" sketch:type="MSShapeGroup"></path>
                <path d="M15.899,40.799 L17.314,42.213 L18.728,40.799 L17.314,39.385 L15.899,40.799" id="Fill-558" fill="#EEAF4B" sketch:type="MSShapeGroup"></path>
                <path d="M14.485,45.042 L15.899,46.456 L17.314,45.042 L15.899,43.627 L14.485,45.042" id="Fill-559" fill="#EEAF4B" sketch:type="MSShapeGroup"></path>
                <path d="M7.195,26.437 L7.414,26.657 L8.828,25.243 L7.414,23.828 L6.595,24.648 L7.195,26.437" id="Fill-560" fill="#EEAF4B" sketch:type="MSShapeGroup"></path>
                <path d="M13.071,40.799 L12.274,41.596 L12.896,43.452 L13.071,43.627 L14.485,42.213 L13.071,40.799" id="Fill-561" fill="#EEAF4B" sketch:type="MSShapeGroup"></path>
                <path d="M12.378,5.371 L10.556,8.124" id="Stroke-562" stroke="#9777A8" stroke-width="2" stroke-linecap="round" stroke-linejoin="round" sketch:type="MSShapeGroup"></path>
                <path d="M21.662,10.996 L24.458,13.792" id="Stroke-563" stroke="#00D7EC" stroke-width="2" stroke-linecap="round" stroke-linejoin="round" sketch:type="MSShapeGroup"></path>
                <path d="M17.062,12.801 L14.3,13.699" id="Stroke-564" stroke="#E22F37" stroke-width="2" stroke-linecap="round" stroke-linejoin="round" sketch:type="MSShapeGroup"></path>
                <path d="M8.734,10.878 L10.59,11.818" id="Stroke-565" stroke="#F1B501" stroke-width="2" stroke-linecap="round" stroke-linejoin="round" sketch:type="MSShapeGroup"></path>
                <path d="M17.003,6.337 L17.943,8.192" id="Stroke-566" stroke="#79E09B" stroke-width="2" stroke-linecap="round" stroke-linejoin="round" sketch:type="MSShapeGroup"></path>
            </g>
        </g>
    </g>
</svg>