<?xml version="1.0" encoding="UTF-8" standalone="no"?>
<svg width="50px" height="51px" viewBox="0 0 50 51" version="1.1" xmlns="http://www.w3.org/2000/svg" xmlns:xlink="http://www.w3.org/1999/xlink" xmlns:sketch="http://www.bohemiancoding.com/sketch/ns">
    <!-- Generator: Sketch 3.2.2 (9983) - http://www.bohemiancoding.com/sketch -->
    <title>119 - Frosted Cupcake (Flat)</title>
    <desc>Created with Sketch.</desc>
    <defs></defs>
    <g id="Page-1" stroke="none" stroke-width="1" fill="none" fill-rule="evenodd" sketch:type="MSPage">
        <g id="119---Frosted-Cupcake-(Flat)" sketch:type="MSLayerGroup">
            <path d="M0,31.434 L9.263,48.466 C9.707,49.621 10.816,50.382 12.053,50.382 L37.947,50.382 C39.184,50.382 40.293,49.621 40.737,48.466 L50,31.434 C47.236,28.698 42.764,28.698 40,31.434 C37.25,28.698 32.8,28.698 30.05,31.434 C27.301,28.698 22.851,28.698 20.101,31.434 C17.323,28.698 12.828,28.698 10.051,31.434 C7.273,28.698 2.778,28.698 0,31.434" id="Fill-903" fill="#FBD490" sketch:type="MSShapeGroup"></path>
            <path d="M39.443,19.508 C39.799,18.705 40,17.818 40,16.882 C40,13.292 37.09,10.382 33.5,10.382 C33.213,10.382 32.835,10.435 32.475,10.501 C32.762,9.712 32.926,8.864 32.926,7.976 C32.926,3.567 29.868,0 26.089,0 L24.95,0 C21.171,0 18.113,3.567 18.113,7.976 C18.113,8.863 18.277,9.71 18.563,10.498 C18.185,10.434 17.791,10.382 17.5,10.382 C13.91,10.382 11,13.292 11,16.882 C11,17.778 11.181,18.631 11.509,19.407 C6.768,19.663 3,23.578 3,28.382 C3,28.813 3.041,29.233 3.099,29.648 C5.492,28.985 8.166,29.578 10.051,31.434 C12.828,28.698 17.323,28.698 20.101,31.434 C22.851,28.698 27.301,28.698 30.05,31.434 C32.8,28.698 37.25,28.698 40,31.434 C41.871,29.582 44.524,28.988 46.901,29.644 C46.96,29.231 47,28.812 47,28.382 C47,23.904 43.726,20.2 39.443,19.508" id="Fill-904" fill="#F9F2E8" sketch:type="MSShapeGroup"></path>
            <path d="M11,35.382 L14,46.382 M39,35.382 L36,46.382 M30,35.382 L29,46.382 M20,35.382 L21,46.382" id="Stroke-905" stroke="#D8A65D" stroke-width="2" stroke-linecap="round" stroke-linejoin="round" sketch:type="MSShapeGroup"></path>
            <path d="M26.342,18.895 L30.658,17.727" id="Stroke-906" stroke="#A4E869" stroke-width="2" stroke-linecap="round" stroke-linejoin="round" sketch:type="MSShapeGroup"></path>
            <path d="M13,24.607 L10,23.607" id="Stroke-907" stroke="#E53384" stroke-width="2" stroke-linecap="round" stroke-linejoin="round" sketch:type="MSShapeGroup"></path>
            <path d="M20.709,20.382 L20.625,21.794" id="Stroke-908" stroke="#ED7161" stroke-width="2" stroke-linecap="round" stroke-linejoin="round" sketch:type="MSShapeGroup"></path>
            <path d="M38,25.382 L39,26.382" id="Stroke-909" stroke="#ED3F32" stroke-width="2" stroke-linecap="round" stroke-linejoin="round" sketch:type="MSShapeGroup"></path>
            <path d="M28.5,25.382 L29.5,26.382" id="Stroke-910" stroke="#F9D70B" stroke-width="2" stroke-linecap="round" stroke-linejoin="round" sketch:type="MSShapeGroup"></path>
            <path d="M25.814,5.066 L26.814,9.066" id="Stroke-911" stroke="#6F58A8" stroke-width="2" stroke-linecap="round" stroke-linejoin="round" sketch:type="MSShapeGroup"></path>
            <path d="M21,13.611 L22,14.611" id="Stroke-912" stroke="#3DABEF" stroke-width="2" stroke-linecap="round" stroke-linejoin="round" sketch:type="MSShapeGroup"></path>
        </g>
    </g>
</svg>