<?xml version="1.0" encoding="UTF-8" standalone="no"?>
<svg width="55px" height="34px" viewBox="0 0 55 34" version="1.1" xmlns="http://www.w3.org/2000/svg" xmlns:xlink="http://www.w3.org/1999/xlink" xmlns:sketch="http://www.bohemiancoding.com/sketch/ns">
    <!-- Generator: Sketch 3.2.2 (9983) - http://www.bohemiancoding.com/sketch -->
    <title>111 - Frosted Pie (Flat)</title>
    <desc>Created with Sketch.</desc>
    <defs></defs>
    <g id="Page-1" stroke="none" stroke-width="1" fill="none" fill-rule="evenodd" sketch:type="MSPage">
        <g id="111---Frosted-Pie-(Flat)" sketch:type="MSLayerGroup" transform="translate(0.000000, 1.000000)">
            <path d="M48.471,21.284 C44.625,21.267 41.515,19.037 41.515,16.286 C41.515,19.047 38.381,21.286 34.515,21.286 C30.649,21.286 27.515,19.047 27.515,16.286 C27.515,19.047 24.381,21.286 20.515,21.286 C16.649,21.286 13.515,19.047 13.515,16.286 C13.515,19.047 10.381,21.286 6.515,21.286 L6.438,21.286 L8.939,23.683 C10.609,25.283 11.078,26.07 12.522,27.878 C14.719,30.63 17.076,32.286 20.684,32.286 L34.268,32.286 C37.876,32.286 40.233,30.63 42.431,27.878 C43.874,26.07 44.343,25.283 46.013,23.683 L48.515,21.286 L48.438,21.286 C48.449,21.286 48.46,21.284 48.471,21.284" id="Fill-1034" fill="#FBD490" sketch:type="MSShapeGroup"></path>
            <path d="M48.515,21.286 C48.5,21.286 48.486,21.284 48.471,21.284 C48.46,21.284 48.449,21.286 48.438,21.286 L48.515,21.286" id="Fill-1035" fill="#F9F2E8" sketch:type="MSShapeGroup"></path>
            <path d="M54.515,15.132 C54.515,13.828 53.552,12.7 51.893,11.743 C51.96,11.434 52,11.115 52,10.786 C52,8.301 49.985,6.286 47.5,6.286 C46.445,6.286 45.488,6.664 44.72,7.272 C44.096,5.536 42.451,4.286 40.5,4.286 C39.288,4.286 38.193,4.771 37.383,5.55 C36.606,4.203 35.167,3.286 33.5,3.286 C33.318,3.286 33.142,3.308 32.965,3.33 L33.286,3.06 L30.71,0 L27.889,2.375 C27.6,2.322 27.305,2.286 27,2.286 C25.432,2.286 24.05,3.022 23.134,4.152 C22.392,3.613 21.487,3.286 20.5,3.286 C18.833,3.286 17.394,4.203 16.616,5.55 C15.807,4.771 14.712,4.286 13.5,4.286 C11.934,4.286 10.575,5.099 9.773,6.314 L4.548,4.382 L3.373,7.558 C2.529,8.376 2,9.518 2,10.786 C2,11.217 2.08,11.625 2.193,12.019 C0.799,12.916 0,13.953 0,15.132 C0,18.531 2.882,21.286 6.438,21.286 L6.515,21.286 C10.381,21.286 13.515,19.047 13.515,16.286 C13.515,19.047 16.649,21.286 20.515,21.286 C24.381,21.286 27.515,19.047 27.515,16.286 C27.515,19.047 30.649,21.286 34.515,21.286 C38.381,21.286 41.515,19.047 41.515,16.286 C41.515,19.037 44.625,21.267 48.471,21.284 C52.009,21.267 54.515,18.52 54.515,15.132" id="Fill-1036" fill="#F9F2E8" sketch:type="MSShapeGroup"></path>
            <path d="M19.418,14.083 L16.203,11.704 L18.582,8.489 L21.797,10.868 L19.418,14.083 L19.418,14.083 Z" id="Stroke-1037" stroke="#A4E869" stroke-width="2" stroke-linecap="round" stroke-linejoin="round" sketch:type="MSShapeGroup"></path>
            <path d="M48.367,15.437 L44.444,14.653 L45.228,10.73 L49.15,11.514 L48.367,15.437 L48.367,15.437 Z" id="Stroke-1038" stroke="#6F58A8" stroke-width="2" stroke-linecap="round" stroke-linejoin="round" sketch:type="MSShapeGroup"></path>
            <path d="M8.024,11.937 L2.508,9.898 L4.548,4.382 L10.063,6.422 L8.024,11.937 L8.024,11.937 Z" id="Stroke-1039" stroke="#3DABEF" stroke-width="2" stroke-linecap="round" stroke-linejoin="round" sketch:type="MSShapeGroup"></path>
            <path d="M33.821,17.551 L32.734,13.702 L36.584,12.615 L37.671,16.465 L33.821,17.551 L33.821,17.551 Z" id="Stroke-1040" stroke="#659C35" stroke-width="2" stroke-linecap="round" stroke-linejoin="round" sketch:type="MSShapeGroup"></path>
            <path d="M30.226,5.636 L27.65,2.576 L30.71,0 L33.286,3.06 L30.226,5.636 L30.226,5.636 Z" id="Stroke-1041" stroke="#ED3F32" stroke-width="2" stroke-linecap="round" stroke-linejoin="round" sketch:type="MSShapeGroup"></path>
        </g>
    </g>
</svg>