<?xml version="1.0" encoding="UTF-8" standalone="no"?>
<svg width="57px" height="35px" viewBox="0 0 57 35" version="1.1" xmlns="http://www.w3.org/2000/svg" xmlns:xlink="http://www.w3.org/1999/xlink" xmlns:sketch="http://www.bohemiancoding.com/sketch/ns">
    <!-- Generator: Sketch 3.2.2 (9983) - http://www.bohemiancoding.com/sketch -->
    <title>129 - Frying Pot (Flat)</title>
    <desc>Created with Sketch.</desc>
    <defs></defs>
    <g id="Page-1" stroke="none" stroke-width="1" fill="none" fill-rule="evenodd" sketch:type="MSPage">
        <g id="129---Frying-Pot-(Flat)" sketch:type="MSLayerGroup" transform="translate(1.000000, 1.000000)">
            <path d="M43.828,34 L11.172,34 C8.316,34 6,31.671 6,28.798 L6,16.336 C6,15.462 5.764,14.604 5.316,13.854 L3.685,11.12 C3.391,10.627 3.744,10 4.316,10 L50.684,10 C51.256,10 51.609,10.627 51.315,11.12 L49.684,13.854 C49.236,14.604 49,15.462 49,16.336 L49,28.798 C49,31.671 46.684,34 43.828,34" id="Fill-923" fill="#D2D5D7" sketch:type="MSShapeGroup"></path>
            <path d="M10,5 L45,5 C46.585,5 50.197,8.861 50.197,8.861 C50.493,9.362 50.137,10 49.562,10 L5.438,10 C4.863,10 4.507,9.362 4.803,8.861 C4.803,8.861 8.415,5 10,5" id="Fill-924" fill="#E6E6E6" sketch:type="MSShapeGroup"></path>
            <path d="M33.5,5 L20.5,5 C20.5,2.239 22.739,0 25.5,0 L28.5,0 C31.261,0 33.5,2.239 33.5,5 L33.5,5 Z" id="Stroke-925" stroke="#E6E6E6" stroke-width="2" sketch:type="MSShapeGroup"></path>
            <path d="M53,17 L49,17 L49,21 L53,21 C54.1,21 55,20.1 55,19 C55,17.9 54.1,17 53,17 L53,17 Z M2,21 L6,21 L6,17 L2,17 C0.9,17 0,17.9 0,19 C0,20.1 0.9,21 2,21 L2,21 Z" id="Stroke-926" stroke="#D2D5D7" stroke-width="2" sketch:type="MSShapeGroup"></path>
            <path d="M10,29 L20,29 M10,25 L17,25 M10,21 L15,21" id="Stroke-927" stroke="#FFFFFF" stroke-width="2" stroke-linecap="round" sketch:type="MSShapeGroup"></path>
        </g>
    </g>
</svg>