<?xml version="1.0" encoding="UTF-8" standalone="no"?>
<svg width="52px" height="57px" viewBox="0 0 52 57" version="1.1" xmlns="http://www.w3.org/2000/svg" xmlns:xlink="http://www.w3.org/1999/xlink" xmlns:sketch="http://www.bohemiancoding.com/sketch/ns">
    <!-- Generator: Sketch 3.2.2 (9983) - http://www.bohemiancoding.com/sketch -->
    <title>210 - Garlic (Flat)</title>
    <desc>Created with Sketch.</desc>
    <defs></defs>
    <g id="Page-1" stroke="none" stroke-width="1" fill="none" fill-rule="evenodd" sketch:type="MSPage">
        <g id="210---Garlic-(Flat)" sketch:type="MSLayerGroup">
            <path d="M26.696,50.334 L22.729,54.308 M26.696,50.334 L26.696,55.633 M26.696,50.334 L30.663,54.308 M26.696,50.334 L33.307,51.659 M26.696,50.445 L20.085,51.549" id="Stroke-184" stroke="#A46F3E" stroke-width="2" stroke-linecap="round" sketch:type="MSShapeGroup"></path>
            <path d="M28.006,0.195 L26.305,1.008 C26.305,1.008 30.31,20.39 22.177,31.581 C14.983,41.478 21.915,51.4 29.039,51.4 L32.319,51.4 C32.529,51.4 32.739,51.347 32.946,51.375 C41.923,52.619 50.937,34.806 37.989,22.14 C32.022,15.92 31.089,11.241 28.349,1.423 L28.006,0.195" id="Fill-185" fill="#D3D3D3" sketch:type="MSShapeGroup"></path>
            <path d="M22.177,31.581 C28.109,23.42 27.584,10.91 26.865,4.73 C23.29,12.521 23.001,15.489 16.836,20.045 C9.875,24.846 7.516,31.96 7.908,38.02 C7.883,38.354 8.353,51.51 19.227,51.333 C21.086,51.302 22.837,50.829 24.384,49.979 C19.499,46.895 16.615,39.232 22.177,31.581" id="Fill-186" fill="#E6E6E6" sketch:type="MSShapeGroup"></path>
            <path d="M42.283,20.045 C37.354,16.402 33.838,14.525 30.798,9.94 C32.315,14.607 34.059,18.043 37.989,22.14 C49.093,33.001 44.043,47.637 36.719,50.805 C37.727,51.122 38.787,51.314 39.892,51.333 C50.766,51.51 51.236,38.354 51.211,38.02 C51.603,31.96 49.244,24.846 42.283,20.045" id="Fill-187" fill="#E6E6E6" sketch:type="MSShapeGroup"></path>
            <path d="M7.848,38.02 C7.455,31.96 9.815,24.846 16.776,20.045 C19.853,17.77 21.466,15.891 22.755,13.61 C19.288,15.884 14.807,17.551 11.433,20.045 C4.472,24.846 -0.142,31.96 0.251,38.02 C0.226,38.354 -0.064,51.333 13.824,51.333 C14.659,51.333 15.467,51.212 16.247,51.017 C8.208,49.035 7.825,38.322 7.848,38.02" id="Fill-188" fill="#D3D3D3" sketch:type="MSShapeGroup"></path>
        </g>
    </g>
</svg>