<?xml version="1.0" encoding="UTF-8" standalone="no"?>
<svg width="30px" height="56px" viewBox="0 0 30 56" version="1.1" xmlns="http://www.w3.org/2000/svg" xmlns:xlink="http://www.w3.org/1999/xlink" xmlns:sketch="http://www.bohemiancoding.com/sketch/ns">
    <!-- Generator: Sketch 3.2.2 (9983) - http://www.bohemiancoding.com/sketch -->
    <title>98 - Gelato (Flat)</title>
    <desc>Created with Sketch.</desc>
    <defs></defs>
    <g id="Page-1" stroke="none" stroke-width="1" fill="none" fill-rule="evenodd" sketch:type="MSPage">
        <g id="Icons" sketch:type="MSArtboardGroup" transform="translate(-375.000000, -1918.000000)">
            <g id="98---Gelato-(Flat)" sketch:type="MSLayerGroup" transform="translate(375.000000, 1918.000000)">
                <path d="M14.293,10.576 L14.794,4.597 L7.073,0.939" id="Stroke-600" stroke="#D2D5D7" stroke-width="2" stroke-linecap="round" stroke-linejoin="round" sketch:type="MSShapeGroup"></path>
                <path d="M9.249,14.779 C9.969,12.918 11.607,11.523 13.607,11.131 C13.183,9.083 11.369,7.543 9.196,7.543 C6.708,7.543 4.691,9.56 4.691,12.048 C4.691,12.737 4.851,13.388 5.128,13.972 C5.538,13.849 5.973,13.781 6.424,13.781 C7.53,13.781 8.54,14.183 9.323,14.846 C9.297,14.824 9.275,14.8 9.249,14.779" id="Fill-601" fill="#ED3F32" sketch:type="MSShapeGroup"></path>
                <path d="M20.488,7.747 C18.371,7.747 16.6,9.209 16.117,11.177 C18.181,11.672 19.82,13.25 20.4,15.281 C21.225,14.362 22.418,13.781 23.749,13.781 C24.067,13.781 24.377,13.814 24.677,13.877 C24.874,13.372 24.992,12.827 24.992,12.252 C24.992,9.764 22.975,7.747 20.488,7.747" id="Fill-602" fill="#9777A8" sketch:type="MSShapeGroup"></path>
                <path d="M10.911,17.939 C10.733,15.613 8.795,13.781 6.424,13.781 C4.053,13.781 2.114,15.613 1.937,17.939 L10.911,17.939" id="Fill-603" fill="#EF771D" sketch:type="MSShapeGroup"></path>
                <path d="M10.909,17.939 L20.534,17.939 C20.594,17.601 20.631,17.255 20.631,16.899 C20.631,13.646 17.993,11.009 14.74,11.009 C12.235,11.009 10.101,12.575 9.249,14.779 C10.188,15.537 10.811,16.664 10.909,17.939" id="Fill-604" fill="#00D7EC" sketch:type="MSShapeGroup"></path>
                <path d="M20.529,17.939 L28.236,17.939 C28.059,15.613 26.12,13.781 23.749,13.781 C22.418,13.781 21.225,14.362 20.4,15.281 C20.547,15.795 20.631,16.337 20.631,16.899 C20.631,17.255 20.59,17.6 20.529,17.939" id="Fill-605" fill="#E3E82A" sketch:type="MSShapeGroup"></path>
                <path d="M23.794,55.939 L6.794,55.939 C5.013,55.939 4.12,53.784 5.38,52.525 C5.755,52.15 6.264,51.939 6.794,51.939 L23.794,51.939 C24.325,51.939 24.834,52.15 25.209,52.525 C26.469,53.784 25.576,55.939 23.794,55.939" id="Fill-606" fill="#E6E6E6" sketch:type="MSShapeGroup"></path>
                <path d="M29.101,17.939 L1.101,17.939 C-0.399,23.105 4.1,26.939 4.1,26.939 C6.515,29.513 8.7,31.926 10.239,34.358 C9.337,35.474 8.794,36.892 8.794,38.439 C8.794,40.865 10.127,42.977 12.097,44.094 C11.828,45.038 11.734,46.182 11.429,47.329 C11.278,47.9 11.272,48.468 11.38,49 L9.5,49 C8.675,49 8,49.675 8,50.5 C8,51.325 8.675,52 9.5,52 L20.5,52 C21.325,52 22,51.325 22,50.5 C22,49.675 21.325,49 20.5,49 L18.689,49 C18.783,48.532 18.8,48.041 18.691,47.538 C18.44,46.382 18.441,45.223 18.153,44.27 C20.308,43.211 21.794,41.001 21.794,38.439 C21.794,36.771 21.161,35.254 20.128,34.103 C21.656,31.757 23.77,29.423 26.101,26.939 C26.101,26.939 30.601,23.105 29.101,17.939 L29.101,17.939 Z M15.294,35.939 C16.675,35.939 17.794,37.058 17.794,38.439 C17.794,39.819 16.675,40.939 15.294,40.939 C13.914,40.939 12.794,39.819 12.794,38.439 C12.794,37.058 13.914,35.939 15.294,35.939 L15.294,35.939 Z" id="Fill-607" fill="#DAE7EF" sketch:type="MSShapeGroup"></path>
                <path d="M29.101,17.939 L1.101,17.939 C-0.399,23.105 4.1,26.939 4.1,26.939 C6.515,29.513 8.7,31.926 10.239,34.358 C9.337,35.474 8.794,36.892 8.794,38.439 C8.794,40.865 10.127,42.977 12.097,44.094 C11.828,45.038 11.734,46.182 11.429,47.329 C11.278,47.9 11.272,48.468 11.38,49 L9.5,49 C8.675,49 8,49.675 8,50.5 C8,51.325 8.675,52 9.5,52 L20.5,52 C21.325,52 22,51.325 22,50.5 C22,49.675 21.325,49 20.5,49 L18.689,49 C18.783,48.532 18.8,48.041 18.691,47.538 C18.44,46.382 18.441,45.223 18.153,44.27 C20.308,43.211 21.794,41.001 21.794,38.439 C21.794,36.771 21.161,35.254 20.128,34.103 C21.656,31.757 23.77,29.423 26.101,26.939 C26.101,26.939 30.601,23.105 29.101,17.939 L29.101,17.939 Z M15.294,35.939 C16.675,35.939 17.794,37.058 17.794,38.439 C17.794,39.819 16.675,40.939 15.294,40.939 C13.914,40.939 12.794,39.819 12.794,38.439 C12.794,37.058 13.914,35.939 15.294,35.939 L15.294,35.939 Z" id="Stroke-608" stroke="#BBD7EB" sketch:type="MSShapeGroup"></path>
            </g>
        </g>
    </g>
</svg>