<?xml version="1.0" encoding="UTF-8" standalone="no"?>
<svg width="34px" height="51px" viewBox="0 0 34 51" version="1.1" xmlns="http://www.w3.org/2000/svg" xmlns:xlink="http://www.w3.org/1999/xlink" xmlns:sketch="http://www.bohemiancoding.com/sketch/ns">
    <!-- Generator: Sketch 3.2.2 (9983) - http://www.bohemiancoding.com/sketch -->
    <title>160 - Glass of Water (Flat)</title>
    <desc>Created with Sketch.</desc>
    <defs></defs>
    <g id="Page-1" stroke="none" stroke-width="1" fill="none" fill-rule="evenodd" sketch:type="MSPage">
        <g id="160---Glass-of-Water-(Flat)" sketch:type="MSLayerGroup" transform="translate(1.000000, 0.000000)">
            <path d="M23.231,49.633 L9.26,49.633 C-0.234,49.633 0.231,2.503 0.231,2.503 C0.231,0.01 32.26,0.01 32.26,2.503 C32.26,2.503 32.766,49.633 23.231,49.633 L23.231,49.633 Z" id="Fill-642" fill="#DAE7EF" sketch:type="MSShapeGroup"></path>
            <path d="M23.231,49.633 L9.26,49.633 C-0.234,49.633 0.231,2.503 0.231,2.503 C0.231,0.01 32.26,0.01 32.26,2.503 C32.26,2.503 32.766,49.633 23.231,49.633 L23.231,49.633 Z" id="Stroke-643" stroke="#BBD7EB" sketch:type="MSShapeGroup"></path>
            <path d="M31.651,18.907 C31.62,18.939 31.589,18.969 31.558,19 C28.824,21.693 26.99,21.68 24.287,18.976 C21.501,21.762 19.21,21.783 16.476,19.049 C13.69,21.835 11.399,21.857 8.665,19.122 C5.879,21.908 3.588,21.641 0.854,18.907 L0.671,19.016 C1.445,32.603 3.553,49.633 9.26,49.633 L23.231,49.633 C28.952,49.633 31.057,32.672 31.827,19.099 L31.651,18.907" id="Fill-644" fill="#BBD7EB" sketch:type="MSShapeGroup"></path>
            <path d="M20.5,26.907 C20.5,27.46 20.052,27.907 19.5,27.907 C18.948,27.907 18.5,27.46 18.5,26.907 C18.5,26.355 18.948,25.907 19.5,25.907 C20.052,25.907 20.5,26.355 20.5,26.907" id="Fill-645" fill="#FFFFFF" sketch:type="MSShapeGroup"></path>
            <path d="M22.5,31.907 C22.5,32.46 22.052,32.907 21.5,32.907 C20.948,32.907 20.5,32.46 20.5,31.907 C20.5,31.355 20.948,30.907 21.5,30.907 C22.052,30.907 22.5,31.355 22.5,31.907" id="Fill-646" fill="#FFFFFF" sketch:type="MSShapeGroup"></path>
            <path d="M25.5,36.907 C25.5,37.46 25.052,37.907 24.5,37.907 C23.948,37.907 23.5,37.46 23.5,36.907 C23.5,36.355 23.948,35.907 24.5,35.907 C25.052,35.907 25.5,36.355 25.5,36.907" id="Fill-647" fill="#FFFFFF" sketch:type="MSShapeGroup"></path>
            <path d="M17.5,33.907 C17.5,34.46 17.052,34.907 16.5,34.907 C15.948,34.907 15.5,34.46 15.5,33.907 C15.5,33.355 15.948,32.907 16.5,32.907 C17.052,32.907 17.5,33.355 17.5,33.907" id="Fill-648" fill="#FFFFFF" sketch:type="MSShapeGroup"></path>
            <path d="M24.5,25.907 C24.5,26.46 24.052,26.907 23.5,26.907 C22.948,26.907 22.5,26.46 22.5,25.907 C22.5,25.355 22.948,24.907 23.5,24.907 C24.052,24.907 24.5,25.355 24.5,25.907" id="Fill-649" fill="#FFFFFF" sketch:type="MSShapeGroup"></path>
            <path d="M12.868,31.415 L10.676,33.464 C9.872,34.215 8.6,34.172 7.849,33.368 L5.801,31.176 C5.05,30.372 5.093,29.1 5.897,28.349 L8.089,26.301 C8.893,25.55 10.165,25.593 10.916,26.397 L12.964,28.589 C13.715,29.392 13.672,30.664 12.868,31.415" id="Fill-650" fill="#8AB6CE" sketch:type="MSShapeGroup"></path>
            <path d="M21.868,44.651 L19.676,46.699 C18.872,47.45 17.6,47.407 16.849,46.603 L14.801,44.411 C14.05,43.607 14.093,42.335 14.897,41.584 L17.089,39.536 C17.893,38.785 19.165,38.828 19.916,39.632 L21.964,41.824 C22.715,42.628 22.672,43.9 21.868,44.651" id="Fill-651" fill="#8AB6CE" sketch:type="MSShapeGroup"></path>
            <path d="M9.5,40 C9.5,40.552 9.052,41 8.5,41 C7.948,41 7.5,40.552 7.5,40 C7.5,39.448 7.948,39 8.5,39 C9.052,39 9.5,39.448 9.5,40" id="Fill-652" fill="#FFFFFF" sketch:type="MSShapeGroup"></path>
            <path d="M11.5,46 C11.5,46.552 11.052,47 10.5,47 C9.948,47 9.5,46.552 9.5,46 C9.5,45.448 9.948,45 10.5,45 C11.052,45 11.5,45.448 11.5,46" id="Fill-653" fill="#FFFFFF" sketch:type="MSShapeGroup"></path>
        </g>
    </g>
</svg>