<?xml version="1.0" encoding="UTF-8" standalone="no"?>
<svg width="57px" height="55px" viewBox="0 0 57 55" version="1.1" xmlns="http://www.w3.org/2000/svg" xmlns:xlink="http://www.w3.org/1999/xlink" xmlns:sketch="http://www.bohemiancoding.com/sketch/ns">
    <!-- Generator: Sketch 3.2.2 (9983) - http://www.bohemiancoding.com/sketch -->
    <title>230 - Grapes (Flat)</title>
    <desc>Created with Sketch.</desc>
    <defs></defs>
    <g id="Page-1" stroke="none" stroke-width="1" fill="none" fill-rule="evenodd" sketch:type="MSPage">
        <g id="230---Grapes-(Flat)" sketch:type="MSLayerGroup">
            <path d="M12.227,48.633 C12.227,51.947 9.541,54.633 6.227,54.633 C2.914,54.633 0.227,51.947 0.227,48.633 C0.227,45.319 2.914,42.633 6.227,42.633 C9.541,42.633 12.227,45.319 12.227,48.633" id="Fill-15" fill="#9777A8" sketch:type="MSShapeGroup"></path>
            <path d="M16.228,27.633 C16.228,30.947 13.541,33.633 10.228,33.633 C6.914,33.633 4.228,30.947 4.228,27.633 C4.228,24.319 6.914,21.633 10.228,21.633 C13.541,21.633 16.228,24.319 16.228,27.633" id="Fill-16" fill="#583E68" sketch:type="MSShapeGroup"></path>
            <path d="M16.228,40.633 C13.65,40.633 11.458,42.262 10.609,44.543 C11.61,45.615 12.227,47.05 12.227,48.633 C12.227,49.369 12.089,50.071 11.846,50.723 C12.941,51.896 14.496,52.633 16.228,52.633 C19.541,52.633 22.228,49.947 22.228,46.633 C22.228,43.319 19.541,40.633 16.228,40.633" id="Fill-17" fill="#583E68" sketch:type="MSShapeGroup"></path>
            <path d="M10.609,44.543 C11.203,42.947 12.462,41.685 14.043,41.062 C14.156,40.603 14.227,40.127 14.227,39.633 C14.227,36.319 11.541,33.633 8.227,33.633 C4.914,33.633 2.227,36.319 2.227,39.633 C2.227,41.016 2.7,42.286 3.486,43.3 C4.308,42.876 5.239,42.633 6.227,42.633 C8.158,42.633 9.87,43.548 10.968,44.964 C10.855,44.819 10.735,44.678 10.609,44.543" id="Fill-18" fill="#6F58A8" sketch:type="MSShapeGroup"></path>
            <path d="M26.227,37.633 C23.37,37.633 20.983,39.633 20.379,42.308 C21.516,43.4 22.228,44.932 22.228,46.633 C22.228,47.089 22.172,47.531 22.076,47.958 C23.154,48.993 24.615,49.633 26.227,49.633 C29.541,49.633 32.227,46.947 32.227,43.633 C32.227,40.319 29.541,37.633 26.227,37.633" id="Fill-19" fill="#6F58A8" sketch:type="MSShapeGroup"></path>
            <path d="M23.599,38.261 C23.989,37.465 24.227,36.58 24.227,35.633 C24.227,32.319 21.541,29.633 18.227,29.633 C17.296,29.633 16.416,29.85 15.63,30.23 C15.04,31.455 14.049,32.445 12.825,33.036 C12.507,33.696 12.306,34.423 12.25,35.19 C13.462,36.288 14.227,37.869 14.227,39.633 C14.227,39.781 14.21,39.924 14.198,40.069 C14.478,40.324 14.786,40.549 15.11,40.748 C15.473,40.68 15.844,40.633 16.228,40.633 C17.377,40.633 18.448,40.962 19.36,41.523 C19.893,41.421 20.39,41.229 20.863,40.997 C21.449,39.807 22.408,38.845 23.599,38.261" id="Fill-20" fill="#9777A8" sketch:type="MSShapeGroup"></path>
            <path d="M28.228,27.633 C27.453,27.633 26.722,27.795 26.043,28.062 C25.625,29.763 24.492,31.182 22.969,31.966 C22.969,31.965 22.968,31.965 22.968,31.965 C23.755,32.979 24.227,34.25 24.227,35.633 C24.227,36.368 24.081,37.063 23.835,37.71 C23.932,37.815 24.038,37.913 24.142,38.011 C24.792,37.769 25.493,37.633 26.227,37.633 C27.81,37.633 29.245,38.25 30.317,39.251 C32.599,38.402 34.228,36.21 34.228,33.633 C34.228,30.319 31.541,27.633 28.228,27.633" id="Fill-21" fill="#583E68" sketch:type="MSShapeGroup"></path>
            <path d="M36.227,33.633 C35.514,33.633 34.833,33.763 34.199,33.992 C34.054,36.41 32.491,38.442 30.317,39.251 C30.304,39.239 30.289,39.228 30.276,39.216 C31.472,40.312 32.227,41.882 32.227,43.633 C32.227,43.783 32.216,43.929 32.205,44.076 C33.27,45.041 34.678,45.633 36.227,45.633 C39.541,45.633 42.227,42.947 42.227,39.633 C42.227,36.319 39.541,33.633 36.227,33.633" id="Fill-22" fill="#9777A8" sketch:type="MSShapeGroup"></path>
            <path d="M38.227,23.633 C37.849,23.633 37.48,23.672 37.121,23.739 C36.669,26.165 34.759,28.074 32.334,28.527 C32.293,28.744 32.267,28.966 32.25,29.19 C33.462,30.288 34.228,31.869 34.228,33.633 C34.228,33.778 34.204,33.917 34.194,34.06 C34.218,34.03 35.521,33.633 36.227,33.633 C37.81,33.633 39.245,34.25 40.317,35.251 C42.599,34.402 44.227,32.211 44.227,29.633 C44.227,26.319 41.541,23.633 38.227,23.633" id="Fill-23" fill="#583E68" sketch:type="MSShapeGroup"></path>
            <path d="M25.228,10.633 C22.766,10.633 20.653,12.117 19.727,14.238 C20.047,14.972 20.227,15.781 20.227,16.633 C20.227,17.485 20.047,18.294 19.727,19.028 C19.992,19.634 20.362,20.18 20.801,20.662 C22.323,20.807 23.675,21.523 24.651,22.59 C24.842,22.608 25.032,22.633 25.228,22.633 C25.228,19.319 27.914,16.633 31.228,16.633 C31.228,13.319 28.541,10.633 25.228,10.633" id="Fill-24" fill="#9777A8" sketch:type="MSShapeGroup"></path>
            <path d="M14.227,10.633 C10.914,10.633 8.227,13.319 8.227,16.633 C8.227,18.76 9.337,20.624 11.006,21.689 C11.897,21.805 12.725,22.115 13.449,22.577 C13.704,22.61 13.963,22.633 14.227,22.633 C17.541,22.633 20.227,19.947 20.227,16.633 C20.227,13.319 17.541,10.633 14.227,10.633" id="Fill-25" fill="#6F58A8" sketch:type="MSShapeGroup"></path>
            <path d="M25.284,23.413 C25.281,23.409 25.279,23.404 25.277,23.4 C24.21,21.737 22.349,20.633 20.227,20.633 C19.597,20.633 18.994,20.738 18.423,20.918 C17.762,21.566 16.952,22.062 16.049,22.35 C15.593,22.796 15.198,23.305 14.902,23.876 C15.73,24.905 16.228,26.21 16.228,27.633 C16.228,28.581 15.999,29.471 15.608,30.268 C15.614,30.254 15.624,30.243 15.63,30.23 C16.416,29.85 17.296,29.633 18.227,29.633 C20.158,29.633 21.872,30.549 22.969,31.966 C24.903,30.97 26.227,28.958 26.227,26.633 C26.227,26.368 26.203,26.108 26.17,25.852 C25.709,25.129 25.4,24.302 25.284,23.413" id="Fill-26" fill="#6F58A8" sketch:type="MSShapeGroup"></path>
            <path d="M31.228,16.633 C27.914,16.633 25.228,19.319 25.228,22.633 C25.228,24.731 26.306,26.576 27.938,27.648 C28.035,27.643 28.13,27.633 28.228,27.633 C29.443,27.633 30.572,27.997 31.517,28.618 C34.695,28.466 37.228,25.849 37.228,22.633 C37.228,19.319 34.541,16.633 31.228,16.633" id="Fill-27" fill="#6F58A8" sketch:type="MSShapeGroup"></path>
            <path d="M56.227,25.633 C49.595,25.633 44.227,20.266 44.227,13.633 C50.86,13.633 56.227,19 56.227,25.633" id="Fill-28" fill="#88C057" sketch:type="MSShapeGroup"></path>
            <path d="M48.227,0.633 C48.227,10.03 41.966,17.633 34.228,17.633" id="Stroke-29" stroke="#7A3726" stroke-width="2" sketch:type="MSShapeGroup"></path>
        </g>
    </g>
</svg>