<?xml version="1.0" encoding="UTF-8" standalone="no"?>
<svg width="43px" height="55px" viewBox="0 0 43 55" version="1.1" xmlns="http://www.w3.org/2000/svg" xmlns:xlink="http://www.w3.org/1999/xlink" xmlns:sketch="http://www.bohemiancoding.com/sketch/ns">
    <!-- Generator: Sketch 3.2.2 (9983) - http://www.bohemiancoding.com/sketch -->
    <title>140 - Groceries (Flat)</title>
    <desc>Created with Sketch.</desc>
    <defs></defs>
    <g id="Page-1" stroke="none" stroke-width="1" fill="none" fill-rule="evenodd" sketch:type="MSPage">
        <g id="140---Groceries-(Flat)" sketch:type="MSLayerGroup" transform="translate(0.000000, -1.000000)">
            <path d="M5.307,19.913 C4.477,18.567 3.02,17.282 1.347,17.334" id="Stroke-2048" stroke="#436B1C" stroke-width="2" stroke-linecap="round" sketch:type="MSShapeGroup"></path>
            <path d="M25.774,7.597 C25.64,5.648 24.021,4.109 22.039,4.109 L22.022,4.109 C22.057,3.815 22.037,3.503 21.942,3.177 C21.673,2.263 20.87,1.561 19.923,1.449 C19.147,1.356 18.435,1.635 17.936,2.128 C17.461,1.699 16.838,1.431 16.148,1.431 C14.67,1.431 13.471,2.63 13.471,4.109 C13.471,4.113 13.472,4.118 13.472,4.122 C11.675,4.259 10.258,5.757 10.258,7.589 C10.258,7.869 10.294,8.14 10.357,8.401 C8.218,8.49 6.509,10.248 6.509,12.409 C6.509,13.141 6.708,13.825 7.051,14.416 C6.393,14.956 5.974,15.776 5.974,16.693 C5.974,17.531 6.329,18.281 6.891,18.817 C9.304,16.846 11.837,23.438 14.821,28.701 C15.812,30.449 26.519,28.587 27.372,29.673 C28.344,28.8 28.971,13.579 28.999,12.243 C29.043,10.096 27.682,8.266 25.774,7.597" id="Fill-2049" fill="#88C057" sketch:type="MSShapeGroup"></path>
            <path id="Stroke-2050" stroke="#000000" stroke-width="2" stroke-linecap="round" sketch:type="MSShapeGroup"></path>
            <path d="M27.144,27.533 L27.856,27.105 C29.176,26.314 30.824,26.314 32.144,27.105 L32.856,27.533 C34.176,28.324 35.824,28.324 37.144,27.533 L39.159,26.637 C39.455,25.811 39.66,25.214 39.743,24.948 C41.623,18.901 42.834,12.534 42.999,6.184 C43.065,3.63 40.952,-0.353 37.443,1.456 C33.994,3.234 31.524,10.054 29.788,13.291 C27.322,17.892 25.372,22.896 23.983,27.995 C25.041,28.262 26.18,28.111 27.144,27.533" id="Fill-2051" fill="#EEAF4B" sketch:type="MSShapeGroup"></path>
            <path d="M1.145,26.506 L2.49,27.313 C4.035,28.24 5.965,28.24 7.51,27.313 L7.856,27.105 C9.176,26.314 10.824,26.314 12.144,27.105 L12.856,27.533 C13.631,27.998 14.519,28.182 15.388,28.101 C16.028,26.034 15.812,23.449 14.821,21.701 C11.485,15.816 8.71,17.016 6.04,19.57 C5.528,20.061 4.902,20.42 4.22,20.615 C1.292,21.451 -0.869,22.821 0.359,26.548 C0.577,26.389 0.879,26.346 1.145,26.506" id="Fill-2052" fill="#ED3F32" sketch:type="MSShapeGroup"></path>
            <path d="M36.682,20.905 C36.192,22.349 34.626,23.121 33.182,22.631 C31.738,22.14 30.173,22.912 29.682,24.356 M39.048,13.937 C38.557,15.381 36.992,16.153 35.548,15.663 C34.104,15.172 32.538,15.944 32.048,17.389 M40.247,7.544 C39.838,8.748 38.534,9.391 37.33,8.982 C36.126,8.574 34.822,9.217 34.413,10.421" id="Stroke-2053" stroke="#A46F3E" stroke-width="2" stroke-linecap="round" sketch:type="MSShapeGroup"></path>
            <path d="M17.461,15.095 C16.516,16.352 15.024,17.84 15.599,20.468 L17.143,27.533 L17.144,27.533 L17.856,27.105 C19.176,26.314 20.824,26.314 22.144,27.105 L22.856,27.533 C23.437,27.881 23.983,27.995 23.983,27.995 C25.025,24.172 26.381,20.403 28.034,16.816 C27.26,14.88 25.608,14.233 24.408,13.569 C24.401,13.565 24.394,13.562 24.388,13.558 C23.628,13.123 23.581,12.084 24.153,11.422 C24.377,11.161 24.482,10.802 24.403,10.441 L24.282,9.889 C24.15,9.281 23.544,8.893 22.936,9.026 L16.861,10.354 C16.253,10.487 15.865,11.092 15.997,11.7 L16.118,12.252 C16.198,12.62 16.452,12.905 16.774,13.044 C17.514,13.363 17.964,14.188 17.586,14.899 C17.55,14.966 17.508,15.031 17.461,15.095" id="Fill-2054" fill="#DAE7EF" sketch:type="MSShapeGroup"></path>
            <path d="M23.836,11.899 L16.958,13.403 C16.198,13.569 15.441,13.083 15.275,12.324 L15.176,11.872 C15.01,11.112 15.496,10.355 16.255,10.189 L23.134,8.686 C23.893,8.52 24.651,9.005 24.816,9.765 L24.915,10.217 C25.081,10.976 24.596,11.733 23.836,11.899" id="Fill-2055" fill="#FFFFFF" sketch:type="MSShapeGroup"></path>
            <path d="M40.906,26.331 L39.161,51.36 C39.033,53.859 36.97,55.819 34.468,55.819 L6.397,55.819 C3.895,55.819 1.832,53.859 1.704,51.36 L0.001,27.153 C-0.028,26.584 0.589,26.213 1.078,26.506 L2.423,27.313 C3.968,28.24 5.898,28.24 7.443,27.313 L7.789,27.105 C9.108,26.314 10.757,26.314 12.076,27.105 L12.789,27.533 C14.108,28.324 15.757,28.324 17.076,27.533 L17.789,27.105 C19.108,26.314 20.757,26.314 22.076,27.105 L22.789,27.533 C24.108,28.324 25.757,28.324 27.076,27.533 L27.789,27.105 C29.108,26.314 30.757,26.314 32.076,27.105 L32.789,27.533 C34.108,28.324 35.757,28.324 37.076,27.533 L40.464,26.027 C40.678,25.932 40.918,26.097 40.906,26.331" id="Fill-2056" fill="#FBD490" sketch:type="MSShapeGroup"></path>
            <path d="M5,42 L12,42 M5,46 L14,46 M5,50 L16,50 M20,50 L22,50" id="Stroke-2057" stroke="#E0B877" stroke-width="2" stroke-linecap="round" sketch:type="MSShapeGroup"></path>
        </g>
    </g>
</svg>