<?xml version="1.0" encoding="UTF-8" standalone="no"?>
<svg width="57px" height="57px" viewBox="0 0 57 57" version="1.1" xmlns="http://www.w3.org/2000/svg" xmlns:xlink="http://www.w3.org/1999/xlink" xmlns:sketch="http://www.bohemiancoding.com/sketch/ns">
    <!-- Generator: Sketch 3.2.2 (9983) - http://www.bohemiancoding.com/sketch -->
    <title>208 - Group (Flat)</title>
    <desc>Created with Sketch.</desc>
    <defs></defs>
    <g id="Page-1" stroke="none" stroke-width="1" fill="none" fill-rule="evenodd" sketch:type="MSPage">
        <g id="208---Group-(Flat)" sketch:type="MSLayerGroup" transform="translate(0.000000, -1.000000)">
            <path d="M34.904,23.621 C34.904,23.621 47.246,16.305 55.082,26.643 C55.082,26.643 57.115,28.993 55.552,31.243 C54.016,33.455 50.585,32.985 48.876,30.64 C47.335,28.525 43.621,25.84 34.904,23.621" id="Fill-1995" fill="#88C057" sketch:type="MSShapeGroup"></path>
            <path d="M34.904,23.621 C34.904,23.621 42.41,11.469 32.759,4.32 C32.759,4.32 29.574,1.457 26.698,2.476 C24.022,3.423 23.952,7.154 26.414,8.565 C29.111,10.112 32.807,13.976 34.904,23.621" id="Fill-1996" fill="#88C057" sketch:type="MSShapeGroup"></path>
            <path d="M54.823,27.279 C54.823,27.279 54.891,27.364 54.978,27.484 C55.234,27.254 55.484,27.006 55.71,26.716 C57.794,24.046 56.124,21.98 56.124,21.98 C49.938,12.674 35.54,22.787 35.54,22.787 C36.233,22.835 36.88,22.896 37.508,22.963 C41.625,21.461 49.329,20.031 54.823,27.279" id="Fill-1997" fill="#88C057" sketch:type="MSShapeGroup"></path>
            <path d="M32.759,4.32 C40.204,9.834 37.44,18.322 35.787,21.916 C35.79,21.997 35.796,22.069 35.799,22.151 C35.799,22.151 46.074,7.916 37.354,2.315 C37.354,2.315 34.575,-0.062 31.355,1.575 C30.802,1.855 30.325,2.219 29.927,2.631 C31.538,3.225 32.759,4.32 32.759,4.32" id="Fill-1998" fill="#A4E869" sketch:type="MSShapeGroup"></path>
            <path d="M50.677,6.943 C47.03,4.58 42.401,8.149 42.401,8.149 C41.633,9.069 40.936,10.059 40.293,11.076 C39.655,15.725 36.625,20.749 35.12,23.01 C35.031,23.323 34.956,23.599 34.904,23.797 C36.649,22.625 41.732,19.454 46.728,18.633 C47.968,17.81 49.15,16.907 50.179,15.927 C55.695,10.677 50.677,6.943 50.677,6.943" id="Fill-1999" fill="#659C35" sketch:type="MSShapeGroup"></path>
            <path d="M34.904,23.621 C34.904,23.621 47.246,16.305 55.082,26.643 C55.082,26.643 57.115,28.993 55.552,31.243 C54.016,33.455 50.585,32.985 48.876,30.64 C47.335,28.525 43.621,25.84 34.904,23.621" id="Fill-2000" fill="#A4E869" sketch:type="MSShapeGroup"></path>
            <path d="M35.595,22.514 C35.314,23.061 35.123,23.371 35.123,23.371 C35.123,23.371 35.59,23.095 36.394,22.727 C36.133,22.656 35.871,22.584 35.595,22.514" id="Fill-2001" fill="#F2681C" sketch:type="MSShapeGroup"></path>
            <path d="M42.027,29.089 C42.448,27.917 42.422,26.755 42.159,25.661 C40.28,24.872 37.973,24.096 35.123,23.371 C34.432,20.194 33.566,17.655 32.622,15.609 C31.319,15.156 29.894,14.995 28.451,15.513 C23.926,17.138 4.029,45.768 0.307,55.75 C-0.043,56.688 0.694,57.425 1.633,57.075 C11.615,53.354 40.402,33.614 42.027,29.089" id="Fill-2002" fill="#ED8F1F" sketch:type="MSShapeGroup"></path>
            <path d="M8.455,47.669 C7.781,47.348 7.126,46.955 6.508,46.501 C6.062,46.174 5.437,46.271 5.11,46.716 C4.784,47.161 4.88,47.787 5.325,48.114 C6.043,48.641 6.807,49.099 7.592,49.474 C7.731,49.541 7.878,49.572 8.023,49.572 C8.396,49.572 8.754,49.362 8.926,49.003 C9.164,48.504 8.953,47.907 8.455,47.669" id="Fill-2003" fill="#DD7017" sketch:type="MSShapeGroup"></path>
            <path d="M39.379,28.637 C37.333,27.857 35.435,26.455 33.738,24.47 C33.379,24.049 32.748,24 32.328,24.359 C31.908,24.718 31.858,25.35 32.217,25.769 C34.134,28.011 36.304,29.605 38.668,30.506 C38.785,30.551 38.905,30.572 39.023,30.572 C39.426,30.572 39.806,30.327 39.958,29.927 C40.155,29.412 39.895,28.834 39.379,28.637" id="Fill-2004" fill="#DD7017" sketch:type="MSShapeGroup"></path>
            <path d="M22.941,20.761 C23.33,20.862 23.642,21.189 23.689,21.615 C23.867,23.247 24.711,25.361 26.193,26.407 C26.644,26.726 26.752,27.349 26.434,27.801 C26.239,28.077 25.93,28.224 25.616,28.224 C25.417,28.224 25.215,28.165 25.04,28.041 C23.039,26.63 22.044,24.094 21.756,22.193" id="Fill-2005" fill="#DD7017" sketch:type="MSShapeGroup"></path>
            <path d="M25.04,28.041 C25.215,28.165 25.417,28.224 25.616,28.224 C25.93,28.224 26.239,28.077 26.434,27.801 C26.752,27.349 26.644,26.726 26.193,26.407 C24.711,25.361 23.867,23.247 23.689,21.615 C23.642,21.189 23.33,20.862 22.941,20.761 C22.555,21.219 22.162,21.692 21.756,22.193 C22.044,24.094 23.039,26.63 25.04,28.041" id="Fill-2006" fill="#DD7017" sketch:type="MSShapeGroup"></path>
            <path d="M30.567,39.39 C28.677,39.084 26.198,38.088 24.809,36.119 C24.491,35.668 24.599,35.044 25.05,34.726 C25.5,34.407 26.125,34.515 26.444,34.967 C27.489,36.448 29.603,37.292 31.236,37.472 C31.674,37.52 32.002,37.846 32.092,38.254" id="Fill-2007" fill="#DD7017" sketch:type="MSShapeGroup"></path>
            <path d="M31.236,37.472 C29.603,37.292 27.489,36.448 26.444,34.967 C26.125,34.515 25.5,34.407 25.05,34.726 C24.599,35.044 24.491,35.668 24.809,36.119 C26.198,38.088 28.677,39.084 30.567,39.39 C31.086,39.008 31.595,38.629 32.092,38.254 C32.002,37.846 31.674,37.52 31.236,37.472" id="Fill-2008" fill="#DD7017" sketch:type="MSShapeGroup"></path>
            <path d="M14.975,31.223 C15.375,31.317 15.695,31.647 15.743,32.08 C15.855,33.105 16.377,34.429 17.292,35.074 C17.743,35.393 17.851,36.017 17.532,36.468 C17.337,36.744 17.028,36.891 16.714,36.891 C16.515,36.891 16.314,36.832 16.139,36.708 C14.811,35.771 14.098,34.147 13.839,32.843" id="Fill-2009" fill="#DD7017" sketch:type="MSShapeGroup"></path>
            <path d="M16.139,36.708 C16.314,36.832 16.515,36.891 16.714,36.891 C17.028,36.891 17.337,36.744 17.532,36.468 C17.851,36.017 17.743,35.393 17.292,35.074 C16.377,34.429 15.855,33.105 15.743,32.08 C15.695,31.647 15.375,31.317 14.975,31.223 C14.596,31.758 14.218,32.298 13.839,32.843 C14.098,34.147 14.811,35.771 16.139,36.708" id="Fill-2010" fill="#DD7017" sketch:type="MSShapeGroup"></path>
            <path d="M18.243,47.86 C16.886,47.683 15,46.972 13.958,45.495 C13.64,45.043 13.747,44.42 14.198,44.102 C14.65,43.782 15.274,43.891 15.592,44.342 C16.237,45.256 17.56,45.779 18.586,45.891 C19.135,45.951 19.531,46.445 19.471,46.994 C19.468,47.025 19.451,47.051 19.445,47.081" id="Fill-2011" fill="#DD7017" sketch:type="MSShapeGroup"></path>
            <path d="M18.586,45.891 C17.56,45.779 16.237,45.256 15.592,44.342 C15.274,43.891 14.65,43.782 14.198,44.102 C13.747,44.42 13.64,45.043 13.958,45.495 C15,46.972 16.886,47.683 18.243,47.86 C18.643,47.603 19.044,47.342 19.445,47.081 C19.451,47.051 19.468,47.025 19.471,46.994 C19.531,46.445 19.135,45.951 18.586,45.891" id="Fill-2012" fill="#DD7017" sketch:type="MSShapeGroup"></path>
        </g>
    </g>
</svg>