<?xml version="1.0" encoding="UTF-8" standalone="no"?>
<svg width="59px" height="47px" viewBox="0 0 59 47" version="1.1" xmlns="http://www.w3.org/2000/svg" xmlns:xlink="http://www.w3.org/1999/xlink" xmlns:sketch="http://www.bohemiancoding.com/sketch/ns">
    <!-- Generator: Sketch 3.2.2 (9983) - http://www.bohemiancoding.com/sketch -->
    <title>87 - Hamburger (Flat)</title>
    <desc>Created with Sketch.</desc>
    <defs></defs>
    <g id="Page-1" stroke="none" stroke-width="1" fill="none" fill-rule="evenodd" sketch:type="MSPage">
        <g id="Icons" sketch:type="MSArtboardGroup" transform="translate(-481.000000, -2046.000000)">
            <g id="87---Hamburger-(Flat)" sketch:type="MSLayerGroup" transform="translate(481.000000, 2046.000000)">
                <path d="M56,27 L3,27 C1.35,27 0,25.65 0,24 C0,22.35 1.35,21 3,21 L56,21 C57.65,21 59,22.35 59,24 C59,25.65 57.65,27 56,27" id="Fill-1747" fill="#6A3311" sketch:type="MSShapeGroup"></path>
                <path d="M54,33 L5,33 C3.35,33 2,31.65 2,30 C2,28.35 3.35,27 5,27 L54,27 C55.65,27 57,28.35 57,30 C57,31.65 55.65,33 54,33" id="Fill-1748" fill="#8E4A28" sketch:type="MSShapeGroup"></path>
                <path d="M32.293,25.912 C31.856,26.35 31.144,26.35 30.707,25.912 C29.49,24.696 27.51,24.696 26.293,25.912 C25.856,26.35 25.144,26.35 24.707,25.912 C23.49,24.696 21.51,24.696 20.293,25.912 C19.868,26.336 19.132,26.336 18.707,25.912 C17.49,24.696 15.51,24.696 14.293,25.912 C13.868,26.336 13.132,26.336 12.707,25.912 C11.49,24.696 9.51,24.696 8.293,25.912 C7.855,26.35 7.144,26.35 6.707,25.912 C5.527,24.733 3.473,24.733 2.293,25.912 C1.902,26.303 1.902,26.936 2.293,27.326 C2.684,27.717 3.316,27.717 3.707,27.326 C4.144,26.889 4.855,26.889 5.293,27.326 C6.51,28.543 8.49,28.543 9.707,27.326 C10.144,26.889 10.856,26.889 11.293,27.326 C12.51,28.543 14.49,28.543 15.707,27.326 C16.132,26.903 16.868,26.903 17.293,27.326 C18.51,28.543 20.49,28.543 21.707,27.326 C22.132,26.903 22.868,26.903 23.293,27.326 C24.51,28.543 26.49,28.543 27.707,27.326 C28.144,26.889 28.856,26.889 29.293,27.326 C29.883,27.916 30.666,28.242 31.5,28.242 C32.333,28.242 33.117,27.916 33.707,27.326 C34.098,26.936 34.098,26.303 33.707,25.912 C33.316,25.522 32.684,25.522 32.293,25.912" id="Fill-1749" fill="#E3E82A" sketch:type="MSShapeGroup"></path>
                <path d="M39.707,25.912 C39.316,25.522 38.684,25.522 38.293,25.912 C37.868,26.336 37.132,26.336 36.707,25.912 C35.49,24.696 33.51,24.696 32.293,25.912 C31.902,26.303 31.902,26.936 32.293,27.326 C32.684,27.717 33.316,27.717 33.707,27.326 C34.132,26.903 34.868,26.903 35.293,27.326 C35.901,27.935 36.701,28.24 37.5,28.24 C38.299,28.24 39.099,27.935 39.707,27.326 C40.098,26.936 40.098,26.303 39.707,25.912" id="Fill-1750" fill="#E3E82A" sketch:type="MSShapeGroup"></path>
                <path d="M45.707,25.912 C45.316,25.522 44.684,25.522 44.293,25.912 C43.868,26.336 43.132,26.336 42.707,25.912 C41.49,24.696 39.51,24.696 38.293,25.912 C37.902,26.303 37.902,26.936 38.293,27.326 C38.684,27.717 39.316,27.717 39.707,27.326 C40.132,26.903 40.868,26.903 41.293,27.326 C41.901,27.935 42.701,28.24 43.5,28.24 C44.299,28.24 45.099,27.935 45.707,27.326 C46.098,26.936 46.098,26.303 45.707,25.912" id="Fill-1751" fill="#E3E82A" sketch:type="MSShapeGroup"></path>
                <path d="M51.707,25.912 C51.316,25.522 50.684,25.522 50.293,25.912 C49.868,26.336 49.132,26.336 48.707,25.912 C47.49,24.696 45.51,24.696 44.293,25.912 C43.902,26.303 43.902,26.936 44.293,27.326 C44.684,27.717 45.316,27.717 45.707,27.326 C46.132,26.903 46.868,26.903 47.293,27.326 C47.901,27.935 48.701,28.24 49.5,28.24 C50.299,28.24 51.099,27.935 51.707,27.326 C52.098,26.936 52.098,26.303 51.707,25.912" id="Fill-1752" fill="#E3E82A" sketch:type="MSShapeGroup"></path>
                <path d="M57.707,25.912 C57.316,25.522 56.684,25.522 56.293,25.912 C55.868,26.336 55.132,26.336 54.707,25.912 C53.49,24.696 51.51,24.696 50.293,25.912 C49.902,26.303 49.902,26.936 50.293,27.326 C50.684,27.717 51.316,27.717 51.707,27.326 C52.132,26.903 52.868,26.903 53.293,27.326 C53.901,27.935 54.701,28.24 55.5,28.24 C56.299,28.24 57.099,27.935 57.707,27.326 C58.098,26.936 58.098,26.303 57.707,25.912" id="Fill-1753" fill="#E3E82A" sketch:type="MSShapeGroup"></path>
                <path d="M44.295,47 L14.695,47 C11.892,47 9.405,45.204 8.524,42.543 L6,34.924 L52.973,34.924 L50.47,42.531 C49.593,45.198 47.103,47 44.295,47" id="Fill-1754" fill="#D28F1B" sketch:type="MSShapeGroup"></path>
                <path d="M15.555,38.092 C15.094,37.785 14.475,37.909 14.168,38.369 C13.862,38.829 13.986,39.449 14.445,39.756 L17.445,41.756 C17.616,41.869 17.809,41.924 17.999,41.924 C18.322,41.924 18.639,41.767 18.832,41.478 C19.138,41.018 19.014,40.398 18.555,40.092 L15.555,38.092" id="Fill-1755" fill="#FCC66F" sketch:type="MSShapeGroup"></path>
                <path d="M24.447,38.029 C23.952,37.783 23.352,37.982 23.105,38.476 L22.106,40.477 C21.858,40.971 22.059,41.571 22.553,41.818 C22.696,41.89 22.849,41.924 22.999,41.924 C23.366,41.924 23.719,41.721 23.895,41.371 L24.894,39.371 C25.142,38.877 24.941,38.276 24.447,38.029" id="Fill-1756" fill="#FCC66F" sketch:type="MSShapeGroup"></path>
                <path d="M28.894,41.476 C28.648,40.983 28.048,40.783 27.553,41.029 C27.059,41.276 26.858,41.877 27.105,42.371 L28.106,44.371 C28.281,44.721 28.634,44.924 29.001,44.924 C29.151,44.924 29.304,44.89 29.447,44.818 C29.941,44.571 30.142,43.971 29.895,43.477 L28.894,41.476" id="Fill-1757" fill="#FCC66F" sketch:type="MSShapeGroup"></path>
                <path d="M34.447,37.029 C33.952,36.783 33.352,36.982 33.105,37.477 L32.106,39.476 C31.858,39.97 32.059,40.571 32.553,40.818 C32.696,40.889 32.849,40.924 32.999,40.924 C33.366,40.924 33.719,40.722 33.894,40.371 L34.894,38.371 C35.142,37.877 34.941,37.276 34.447,37.029" id="Fill-1758" fill="#FCC66F" sketch:type="MSShapeGroup"></path>
                <path d="M39.894,40.477 C39.647,39.982 39.048,39.783 38.553,40.029 C38.059,40.276 37.858,40.877 38.106,41.371 L39.105,43.371 C39.281,43.722 39.634,43.924 40.001,43.924 C40.151,43.924 40.304,43.889 40.447,43.818 C40.941,43.571 41.142,42.97 40.894,42.476 L39.894,40.477" id="Fill-1759" fill="#FCC66F" sketch:type="MSShapeGroup"></path>
                <path d="M45.447,37.029 C44.952,36.783 44.352,36.982 44.106,37.477 L43.106,39.476 C42.858,39.97 43.059,40.571 43.553,40.818 C43.696,40.889 43.849,40.924 43.999,40.924 C44.366,40.924 44.719,40.722 44.894,40.371 L45.894,38.371 C46.142,37.877 45.941,37.276 45.447,37.029" id="Fill-1760" fill="#FCC66F" sketch:type="MSShapeGroup"></path>
                <path d="M51,34 L51,31.904 C51,30.852 49.769,30 48.25,30 C46.731,30 45.5,30.852 45.5,31.904 C45.5,30.852 44.269,30 42.75,30 C41.231,30 40,30.852 40,31.904 C40,30.852 38.769,30 37.25,30 C35.731,30 34.5,30.852 34.5,31.904 C34.5,30.852 33.269,30 31.75,30 C30.231,30 29,30.852 29,31.904 C29,30.852 27.769,30 26.25,30 C24.731,30 23.5,30.852 23.5,31.904 C23.5,30.852 22.269,30 20.75,30 C19.231,30 18,30.852 18,31.904 C18,30.852 16.769,30 15.25,30 C13.731,30 12.5,30.852 12.5,31.904 C12.5,30.852 11.269,30 9.75,30 C8.231,30 7,30.852 7,31.904 L7,34 L51,34" id="Fill-1761" fill="#88C057" sketch:type="MSShapeGroup"></path>
                <path d="M53,35 L53,34.25 C53,33.007 51.685,32 50.062,32 C48.44,32 47.125,33.007 47.125,34.25 C47.125,33.007 45.81,32 44.188,32 C42.565,32 41.25,33.007 41.25,34.25 C41.25,33.007 39.935,32 38.312,32 C36.69,32 35.375,33.007 35.375,34.25 C35.375,33.007 34.06,32 32.437,32 C30.815,32 29.5,33.007 29.5,34.25 C29.5,33.007 28.185,32 26.562,32 C24.94,32 23.625,33.007 23.625,34.25 C23.625,33.007 22.31,32 20.687,32 C19.065,32 17.75,33.007 17.75,34.25 C17.75,33.007 16.435,32 14.812,32 C13.19,32 11.875,33.007 11.875,34.25 C11.875,33.007 10.56,32 8.937,32 C7.315,32 6,33.007 6,34.25 L6,35 L53,35" id="Fill-1762" fill="#659C35" sketch:type="MSShapeGroup"></path>
                <path d="M54.728,21 L3.728,21 C3.175,21 2.728,20.552 2.728,20 C2.728,19.447 3.175,19 3.728,19 L54.728,19 C55.28,19 55.728,19.447 55.728,20 C55.728,20.552 55.28,21 54.728,21" id="Fill-1763" fill="#F9EB80" sketch:type="MSShapeGroup"></path>
                <path d="M53.372,19 C50.875,8.118 41.139,0 29.5,0 C17.861,0 8.125,8.118 5.628,19 L53.372,19" id="Fill-1764" fill="#D28F1B" sketch:type="MSShapeGroup"></path>
                <path d="M45.555,12.168 L42.555,10.168 C42.094,9.862 41.474,9.986 41.168,10.445 C40.862,10.905 40.986,11.525 41.445,11.832 L44.445,13.832 C44.616,13.945 44.809,14 44.999,14 C45.322,14 45.639,13.844 45.832,13.555 C46.138,13.095 46.014,12.475 45.555,12.168" id="Fill-1765" fill="#EFDFA0" sketch:type="MSShapeGroup"></path>
                <path d="M37.447,11.105 C36.952,10.859 36.352,11.059 36.105,11.552 L35.106,13.553 C34.858,14.047 35.059,14.647 35.553,14.894 C35.696,14.966 35.849,15 35.999,15 C36.366,15 36.719,14.798 36.894,14.447 L37.894,12.447 C38.142,11.953 37.941,11.352 37.447,11.105" id="Fill-1766" fill="#EFDFA0" sketch:type="MSShapeGroup"></path>
                <path d="M33.894,6.553 C33.647,6.059 33.047,5.86 32.553,6.105 C32.059,6.352 31.858,6.953 32.106,7.447 L33.105,9.447 C33.281,9.798 33.634,10 34.001,10 C34.151,10 34.304,9.966 34.447,9.894 C34.941,9.647 35.142,9.047 34.894,8.552 L33.894,6.553" id="Fill-1767" fill="#EFDFA0" sketch:type="MSShapeGroup"></path>
                <path d="M27.447,12.105 C26.952,11.86 26.353,12.059 26.105,12.553 L25.106,14.552 C24.858,15.047 25.059,15.647 25.553,15.894 C25.696,15.966 25.849,16 25.999,16 C26.366,16 26.719,15.798 26.895,15.447 L27.894,13.447 C28.142,12.953 27.941,12.352 27.447,12.105" id="Fill-1768" fill="#EFDFA0" sketch:type="MSShapeGroup"></path>
                <path d="M28.447,3.105 C27.952,2.859 27.352,3.059 27.105,3.553 L26.105,5.552 C25.858,6.047 26.059,6.647 26.553,6.894 C26.696,6.966 26.849,7 26.999,7 C27.366,7 27.719,6.798 27.894,6.447 L28.894,4.447 C29.142,3.953 28.941,3.352 28.447,3.105" id="Fill-1769" fill="#EFDFA0" sketch:type="MSShapeGroup"></path>
                <path d="M20.895,8.552 C20.647,8.058 20.047,7.859 19.553,8.105 C19.059,8.352 18.858,8.953 19.106,9.447 L20.105,11.447 C20.281,11.798 20.634,12 21.001,12 C21.151,12 21.304,11.966 21.447,11.894 C21.941,11.647 22.142,11.047 21.894,10.553 L20.895,8.552" id="Fill-1770" fill="#EFDFA0" sketch:type="MSShapeGroup"></path>
                <path d="M16.447,12.105 C15.951,11.86 15.352,12.059 15.105,12.553 L14.105,14.552 C13.858,15.047 14.059,15.647 14.553,15.894 C14.696,15.966 14.849,16 14.999,16 C15.366,16 15.719,15.798 15.894,15.447 L16.894,13.447 C17.142,12.953 16.941,12.352 16.447,12.105" id="Fill-1771" fill="#EFDFA0" sketch:type="MSShapeGroup"></path>
                <path d="M41.796,26.229 L37,19.998 L46.593,19.998 L41.796,26.229" id="Fill-1772" fill="#F9EB80" sketch:type="MSShapeGroup"></path>
            </g>
        </g>
    </g>
</svg>