<?xml version="1.0" encoding="UTF-8" standalone="no"?>
<svg width="60px" height="54px" viewBox="0 0 60 54" version="1.1" xmlns="http://www.w3.org/2000/svg" xmlns:xlink="http://www.w3.org/1999/xlink" xmlns:sketch="http://www.bohemiancoding.com/sketch/ns">
    <!-- Generator: Sketch 3.2.2 (9983) - http://www.bohemiancoding.com/sketch -->
    <title>59 - Hot Dish (Flat)</title>
    <desc>Created with Sketch.</desc>
    <defs></defs>
    <g id="Page-1" stroke="none" stroke-width="1" fill="none" fill-rule="evenodd" sketch:type="MSPage">
        <g id="59---Hot-Dish-(Flat)" sketch:type="MSLayerGroup" transform="translate(1.000000, 1.000000)">
            <path d="M53.721,41.268 C53.904,42.486 54,43.731 54,45 C37.567,48.944 20.433,48.944 4,45 C4,43.731 4.096,42.486 4.278,41.268 C1.567,42.729 0,44.254 0,45.5 C0,49.09 12.984,52 29,52 C45.016,52 58,49.09 58,45.5 C58,44.254 56.433,42.729 53.721,41.268 L53.721,41.268 Z" id="Fill-1677" fill="#D2D5D7" sketch:type="MSShapeGroup"></path>
            <path d="M53.721,41.268 C53.904,42.486 54,43.731 54,45 C37.567,48.944 20.433,48.944 4,45 C4,43.731 4.096,42.486 4.278,41.268 C1.567,42.729 0,44.254 0,45.5 C0,49.09 12.984,52 29,52 C45.016,52 58,49.09 58,45.5 C58,44.254 56.433,42.729 53.721,41.268 L53.721,41.268 Z" id="Stroke-1678" stroke="#E6E6E6" sketch:type="MSShapeGroup"></path>
            <path d="M4,45 C4,31.193 15.193,20 29,20 C42.807,20 54,31.193 54,45 C37.567,48.944 20.433,48.944 4,45 L4,45 Z" id="Fill-1679" fill="#E6E6E6" sketch:type="MSShapeGroup"></path>
            <path d="M18.057,6.805 C19.465,8.214 19.465,10.493 18.057,11.903 C16.648,13.311 16.648,15.591 18.057,17 M40.057,6.805 C41.465,8.214 41.465,10.493 40.057,11.903 C38.648,13.311 38.648,15.591 40.057,17 M29.057,0.805 C30.465,2.214 30.465,4.493 29.057,5.903 C27.648,7.311 27.648,9.591 29.057,11" id="Stroke-1681" stroke="#E6E6E6" stroke-width="2" stroke-linecap="round" stroke-linejoin="round" sketch:type="MSShapeGroup"></path>
            <path d="M32.771,20.283 C32.909,19.878 33,19.452 33,19 C33,16.791 31.209,15 29,15 C26.791,15 25,16.791 25,19 C25,19.452 25.091,19.878 25.229,20.283" id="Stroke-1682" stroke="#D2D5D7" stroke-width="2" stroke-linecap="round" sketch:type="MSShapeGroup"></path>
            <path d="M24.346,24.513 C25.872,24.169 27.436,23.999 29,24 M9,41 C10.064,35.167 13.524,29.802 18.66,26.76" id="Stroke-1683" stroke="#FFFFFF" stroke-width="2" stroke-linecap="round" sketch:type="MSShapeGroup"></path>
        </g>
    </g>
</svg>