<?xml version="1.0" encoding="UTF-8" standalone="no"?>
<svg width="59px" height="58px" viewBox="0 0 59 58" version="1.1" xmlns="http://www.w3.org/2000/svg" xmlns:xlink="http://www.w3.org/1999/xlink" xmlns:sketch="http://www.bohemiancoding.com/sketch/ns">
    <!-- Generator: Sketch 3.2.2 (9983) - http://www.bohemiancoding.com/sketch -->
    <title>84 - Hot Dog (Flat)</title>
    <desc>Created with Sketch.</desc>
    <defs></defs>
    <g id="Page-1" stroke="none" stroke-width="1" fill="none" fill-rule="evenodd" sketch:type="MSPage">
        <g id="Icons" sketch:type="MSArtboardGroup" transform="translate(-841.000000, -2038.000000)">
            <g id="84---Hot-Dog-(Flat)" sketch:type="MSLayerGroup" transform="translate(840.000000, 2037.000000)">
                <path d="M18.222,18.222 L28.406,8.037 C38.735,-2.292 46.396,2.017 46.396,2.017 C46.994,2.616 46.651,3.939 45.632,4.957 L4.957,45.632 C3.939,46.65 2.616,46.994 2.018,46.396 C2.018,46.396 -2.292,38.735 8.037,28.406 L18.222,18.222" id="Fill-512" fill="#D99F4C" sketch:type="MSShapeGroup"></path>
                <path d="M42.31,40.81 L32.24,50.88 C22.028,61.093 14.386,56.764 14.386,56.764 C13.788,56.166 14.122,54.852 15.129,53.845 L55.345,13.629 C56.352,12.622 57.666,12.287 58.264,12.886 C58.264,12.886 62.593,20.528 52.38,30.74 L42.31,40.81" id="Fill-513" fill="#D99F4C" sketch:type="MSShapeGroup"></path>
                <path d="M57.078,12.238 L12.239,57.078 C9.676,59.64 5.484,59.64 2.922,57.078 C0.359,54.516 0.359,50.323 2.922,47.761 L47.761,2.921 C50.324,0.359 54.516,0.359 57.078,2.921 C59.641,5.484 59.641,9.676 57.078,12.238" id="Fill-514" fill="#6A3311" sketch:type="MSShapeGroup"></path>
                <path d="M48.782,27.5 C48.782,28.328 48.11,29 47.282,29 C46.453,29 45.782,28.328 45.782,27.5 C45.782,26.672 46.453,26 47.282,26 C48.11,26 48.782,26.672 48.782,27.5" id="Fill-515" fill="#EFDFA0" sketch:type="MSShapeGroup"></path>
                <path d="M33.782,44.5 C33.782,45.328 33.11,46 32.282,46 C31.453,46 30.782,45.328 30.782,44.5 C30.782,43.672 31.453,43 32.282,43 C33.11,43 33.782,43.672 33.782,44.5" id="Fill-516" fill="#EFDFA0" sketch:type="MSShapeGroup"></path>
                <path d="M44.782,35 C44.782,35.552 44.334,36 43.782,36 C43.23,36 42.782,35.552 42.782,35 C42.782,34.448 43.23,34 43.782,34 C44.334,34 44.782,34.448 44.782,35" id="Fill-517" fill="#EFDFA0" sketch:type="MSShapeGroup"></path>
                <path d="M24.782,51 C24.782,51.552 24.334,52 23.782,52 C23.23,52 22.782,51.552 22.782,51 C22.782,50.448 23.23,50 23.782,50 C24.334,50 24.782,50.448 24.782,51" id="Fill-518" fill="#EFDFA0" sketch:type="MSShapeGroup"></path>
                <path d="M54.782,23 C54.782,23.552 54.334,24 53.782,24 C53.23,24 52.782,23.552 52.782,23 C52.782,22.448 53.23,22 53.782,22 C54.334,22 54.782,22.448 54.782,23" id="Fill-519" fill="#EFDFA0" sketch:type="MSShapeGroup"></path>
                <path d="M37.782,37 C37.782,37.552 37.334,38 36.782,38 C36.23,38 35.782,37.552 35.782,37 C35.782,36.448 36.23,36 36.782,36 C37.334,36 37.782,36.448 37.782,37" id="Fill-520" fill="#EFDFA0" sketch:type="MSShapeGroup"></path>
                <path d="M32.282,11 C32.282,11.828 31.61,12.5 30.782,12.5 C29.953,12.5 29.282,11.828 29.282,11 C29.282,10.172 29.953,9.5 30.782,9.5 C31.61,9.5 32.282,10.172 32.282,11" id="Fill-521" fill="#EFDFA0" sketch:type="MSShapeGroup"></path>
                <path d="M17.282,28 C17.282,28.828 16.61,29.5 15.782,29.5 C14.953,29.5 14.282,28.828 14.282,28 C14.282,27.172 14.953,26.5 15.782,26.5 C16.61,26.5 17.282,27.172 17.282,28" id="Fill-522" fill="#EFDFA0" sketch:type="MSShapeGroup"></path>
                <path d="M28.282,18.5 C28.282,19.052 27.834,19.5 27.282,19.5 C26.73,19.5 26.282,19.052 26.282,18.5 C26.282,17.948 26.73,17.5 27.282,17.5 C27.834,17.5 28.282,17.948 28.282,18.5" id="Fill-523" fill="#EFDFA0" sketch:type="MSShapeGroup"></path>
                <path d="M8.282,34.5 C8.282,35.052 7.834,35.5 7.282,35.5 C6.73,35.5 6.282,35.052 6.282,34.5 C6.282,33.948 6.73,33.5 7.282,33.5 C7.834,33.5 8.282,33.948 8.282,34.5" id="Fill-524" fill="#EFDFA0" sketch:type="MSShapeGroup"></path>
                <path d="M38.282,6.5 C38.282,7.052 37.834,7.5 37.282,7.5 C36.73,7.5 36.282,7.052 36.282,6.5 C36.282,5.948 36.73,5.5 37.282,5.5 C37.834,5.5 38.282,5.948 38.282,6.5" id="Fill-525" fill="#EFDFA0" sketch:type="MSShapeGroup"></path>
                <path d="M21.282,20.5 C21.282,21.052 20.834,21.5 20.282,21.5 C19.73,21.5 19.282,21.052 19.282,20.5 C19.282,19.948 19.73,19.5 20.282,19.5 C20.834,19.5 21.282,19.948 21.282,20.5" id="Fill-526" fill="#EFDFA0" sketch:type="MSShapeGroup"></path>
                <path d="M52.558,4.442 C51.385,4.442 50.436,5.391 50.436,6.563 C50.436,7.736 49.488,8.685 48.315,8.685 C47.143,8.685 46.194,9.633 46.194,10.806 C46.194,11.979 45.245,12.927 44.072,12.927 C42.9,12.927 41.951,13.876 41.951,15.049 C41.951,16.221 41.002,17.17 39.83,17.17 C38.657,17.17 37.708,18.119 37.708,19.291 C37.708,20.464 36.76,21.413 35.587,21.413 C34.415,21.413 33.466,22.362 33.466,23.534 C33.466,24.707 32.517,25.655 31.344,25.655 C30.172,25.655 29.223,26.604 29.223,27.777 C29.223,28.949 28.274,29.898 27.102,29.898 C25.929,29.898 24.981,30.847 24.981,32.019 C24.981,33.192 24.032,34.141 22.859,34.141 C21.687,34.141 20.738,35.089 20.738,36.262 C20.738,37.435 19.789,38.383 18.617,38.383 C17.444,38.383 16.495,39.332 16.495,40.505 C16.495,41.677 15.547,42.626 14.374,42.626 C13.201,42.626 12.253,43.575 12.253,44.747 C12.253,45.92 11.304,46.869 10.131,46.869 C8.959,46.869 8.01,47.817 8.01,48.99 C8.01,50.162 7.061,51.111 5.889,51.111 C4.716,51.111 3.767,52.06 3.767,53.233" id="Stroke-527" stroke="#F9D70B" stroke-width="2" stroke-linecap="round" sketch:type="MSShapeGroup"></path>
                <path d="M55.453,7.337 C54.28,7.337 53.332,8.286 53.332,9.459 C53.332,10.631 52.383,11.58 51.21,11.58 C50.038,11.58 49.089,12.529 49.089,13.701 C49.089,14.874 48.14,15.823 46.968,15.823 C45.795,15.823 44.846,16.772 44.846,17.944 C44.846,19.116 43.898,20.065 42.725,20.065 C41.552,20.065 40.604,21.014 40.604,22.187 C40.604,23.359 39.655,24.308 38.482,24.308 C37.31,24.308 36.361,25.257 36.361,26.429 C36.361,27.602 35.412,28.551 34.24,28.551 C33.067,28.551 32.118,29.499 32.118,30.672 C32.118,31.844 31.17,32.793 29.997,32.793 C28.825,32.793 27.876,33.742 27.876,34.915 C27.876,36.087 26.927,37.036 25.754,37.036 C24.582,37.036 23.633,37.985 23.633,39.157 C23.633,40.33 22.684,41.279 21.512,41.279 C20.339,41.279 19.39,42.227 19.39,43.4 C19.39,44.572 18.442,45.521 17.269,45.521 C16.097,45.521 15.148,46.47 15.148,47.643 C15.148,48.815 14.199,49.764 13.026,49.764 C11.854,49.764 10.905,50.713 10.905,51.885 C10.905,53.057 9.956,54.006 8.784,54.006 C7.611,54.006 6.662,54.955 6.662,56.128" id="Stroke-528" stroke="#ED3F32" stroke-width="2" stroke-linecap="round" sketch:type="MSShapeGroup"></path>
            </g>
        </g>
    </g>
</svg>