<?xml version="1.0" encoding="UTF-8" standalone="no"?>
<svg width="58px" height="59px" viewBox="0 0 58 59" version="1.1" xmlns="http://www.w3.org/2000/svg" xmlns:xlink="http://www.w3.org/1999/xlink" xmlns:sketch="http://www.bohemiancoding.com/sketch/ns">
    <!-- Generator: Sketch 3.2.2 (9983) - http://www.bohemiancoding.com/sketch -->
    <title>25 - Kebap (Flat)</title>
    <desc>Created with Sketch.</desc>
    <defs></defs>
    <g id="Page-1" stroke="none" stroke-width="1" fill="none" fill-rule="evenodd" sketch:type="MSPage">
        <g id="25---Kebap-(Flat)" sketch:type="MSLayerGroup" transform="translate(1.000000, 1.000000)">
            <path d="M10.367,34.059 L5.713,38.713 M44.426,0 L42.423,2.003 M55.74,11.314 L51.615,15.438" id="Stroke-1801" stroke="#D2D5D7" stroke-width="2" stroke-linecap="round" sketch:type="MSShapeGroup"></path>
            <path d="M13.314,36.769 L7.657,31.113 C7.268,30.724 7.268,30.087 7.657,29.698 L9.778,27.577 C10.167,27.188 10.804,27.188 11.192,27.577 L16.849,33.234 C17.238,33.623 17.238,34.259 16.849,34.648 L14.728,36.769 C14.339,37.158 13.703,37.158 13.314,36.769 L13.314,36.769 Z" id="Fill-1802" fill="#6A3311" sketch:type="MSShapeGroup"></path>
            <path d="M13.314,36.769 L7.657,31.113 C7.268,30.724 7.268,30.087 7.657,29.698 L9.778,27.577 C10.167,27.188 10.804,27.188 11.192,27.577 L16.849,33.234 C17.238,33.623 17.238,34.259 16.849,34.648 L14.728,36.769 C14.339,37.158 13.703,37.158 13.314,36.769 L13.314,36.769 Z" id="Stroke-1803" stroke="#6A3311" stroke-width="2" sketch:type="MSShapeGroup"></path>
            <path d="M21.092,30.405 C19.139,32.358 15.973,32.358 14.021,30.405 C12.068,28.453 12.068,25.287 14.021,23.334 C15.973,21.382 19.139,21.382 21.092,23.334 C23.044,25.287 23.044,28.453 21.092,30.405" id="Fill-1804" fill="#ED3F32" sketch:type="MSShapeGroup"></path>
            <path d="M23.92,26.163 L18.263,20.506 C17.875,20.117 17.875,19.481 18.263,19.092 L20.385,16.97 C20.774,16.582 21.41,16.582 21.799,16.97 L27.456,22.627 C27.845,23.016 27.845,23.653 27.456,24.041 L25.334,26.163 C24.946,26.552 24.309,26.552 23.92,26.163 L23.92,26.163 Z" id="Fill-1805" fill="#6A3311" sketch:type="MSShapeGroup"></path>
            <path d="M23.92,26.163 L18.263,20.506 C17.875,20.117 17.875,19.481 18.263,19.092 L20.385,16.97 C20.774,16.582 21.41,16.582 21.799,16.97 L27.456,22.627 C27.845,23.016 27.845,23.653 27.456,24.041 L25.334,26.163 C24.946,26.552 24.309,26.552 23.92,26.163 L23.92,26.163 Z" id="Stroke-1806" stroke="#6A3311" stroke-width="2" sketch:type="MSShapeGroup"></path>
            <path d="M31.698,19.799 C29.746,21.752 26.58,21.752 24.627,19.799 C22.675,17.846 22.675,14.68 24.627,12.728 C26.58,10.775 29.746,10.775 31.698,12.728 C33.651,14.68 33.651,17.846 31.698,19.799" id="Fill-1807" fill="#ED3F32" sketch:type="MSShapeGroup"></path>
            <path d="M34.527,15.556 L28.87,9.899 C28.481,9.51 28.481,8.874 28.87,8.485 L30.991,6.364 C31.38,5.975 32.017,5.975 32.406,6.364 L38.062,12.021 C38.451,12.41 38.451,13.046 38.062,13.435 L35.941,15.556 C35.552,15.945 34.916,15.945 34.527,15.556 L34.527,15.556 Z" id="Fill-1808" fill="#6A3311" sketch:type="MSShapeGroup"></path>
            <path d="M34.527,15.556 L28.87,9.899 C28.481,9.51 28.481,8.874 28.87,8.485 L30.991,6.364 C31.38,5.975 32.017,5.975 32.406,6.364 L38.062,12.021 C38.451,12.41 38.451,13.046 38.062,13.435 L35.941,15.556 C35.552,15.945 34.916,15.945 34.527,15.556 L34.527,15.556 Z" id="Stroke-1809" stroke="#6A3311" stroke-width="2" sketch:type="MSShapeGroup"></path>
            <path d="M42.305,9.192 C40.352,11.145 37.187,11.145 35.234,9.192 C33.281,7.24 33.281,4.074 35.234,2.121 C37.187,0.169 40.352,0.169 42.305,2.121 C44.258,4.074 44.258,7.24 42.305,9.192" id="Fill-1810" fill="#ED3F32" sketch:type="MSShapeGroup"></path>
            <path d="M17.159,49.895 L13.432,53.622" id="Stroke-1811" stroke="#D2D5D7" stroke-width="2" stroke-linecap="round" sketch:type="MSShapeGroup"></path>
            <path d="M20.627,45.426 L20.627,39.426 C20.627,38.876 21.077,38.426 21.627,38.426 L27.627,38.426 C28.177,38.426 28.627,38.876 28.627,39.426 L28.627,45.426 C28.627,45.976 28.177,46.426 27.627,46.426 L21.627,46.426 C21.077,46.426 20.627,45.976 20.627,45.426" id="Fill-1812" fill="#F9DA49" sketch:type="MSShapeGroup"></path>
            <path d="M18.926,51.663 L15.391,48.127 C14.419,47.155 14.419,45.564 15.391,44.592 C16.363,43.619 17.954,43.619 18.926,44.592 L22.462,48.127 C23.434,49.1 23.434,50.691 22.462,51.663 C21.49,52.635 19.899,52.635 18.926,51.663 L18.926,51.663 Z" id="Fill-1813" fill="#436B1C" sketch:type="MSShapeGroup"></path>
            <path d="M18.926,51.663 L15.391,48.127 C14.419,47.155 14.419,45.564 15.391,44.592 C16.363,43.619 17.954,43.619 18.926,44.592 L22.462,48.127 C23.434,49.1 23.434,50.691 22.462,51.663 C21.49,52.635 19.899,52.635 18.926,51.663 L18.926,51.663 Z" id="Stroke-1814" stroke="#436B1C" stroke-width="2" sketch:type="MSShapeGroup"></path>
            <path d="M30.638,39.951 L27.102,36.416 C26.13,35.443 26.13,33.853 27.102,32.881 C28.075,31.908 29.666,31.908 30.638,32.881 L34.173,36.416 C35.146,37.388 35.146,38.979 34.173,39.951 C33.201,40.924 31.61,40.924 30.638,39.951 L30.638,39.951 Z" id="Fill-1815" fill="#659C35" sketch:type="MSShapeGroup"></path>
            <path d="M30.638,39.951 L27.102,36.416 C26.13,35.443 26.13,33.853 27.102,32.881 C28.075,31.908 29.666,31.908 30.638,32.881 L34.173,36.416 C35.146,37.388 35.146,38.979 34.173,39.951 C33.201,40.924 31.61,40.924 30.638,39.951 L30.638,39.951 Z" id="Stroke-1816" stroke="#659C35" stroke-width="2" sketch:type="MSShapeGroup"></path>
            <path d="M39.719,26.334 L39.719,20.334 C39.719,19.784 40.169,19.334 40.719,19.334 L46.719,19.334 C47.269,19.334 47.719,19.784 47.719,20.334 L47.719,26.334 C47.719,26.884 47.269,27.334 46.719,27.334 L40.719,27.334 C40.169,27.334 39.719,26.884 39.719,26.334" id="Fill-1817" fill="#F9DA49" sketch:type="MSShapeGroup"></path>
            <path d="M5.707,38.713 C6.878,39.885 6.878,41.784 5.707,42.956 C4.535,44.127 2.635,44.127 1.464,42.956 C0.292,41.784 0.292,39.885 1.464,38.713" id="Stroke-1818" stroke="#D2D5D7" stroke-width="2" stroke-linecap="round" sketch:type="MSShapeGroup"></path>
            <path d="M40.184,33.941 C38.231,35.894 35.065,35.894 33.113,33.941 C31.16,31.988 31.16,28.823 33.113,26.87 C35.065,24.917 38.231,24.917 40.184,26.87 C42.136,28.823 42.136,31.988 40.184,33.941" id="Fill-1819" fill="#ED3F32" sketch:type="MSShapeGroup"></path>
            <path d="M13.432,53.622 C13.432,55.279 12.088,56.622 10.432,56.622 C8.775,56.622 7.432,55.279 7.432,53.622 C7.432,51.965 8.775,50.622 10.432,50.622" id="Stroke-1820" stroke="#D2D5D7" stroke-width="2" stroke-linecap="round" sketch:type="MSShapeGroup"></path>
            <path d="M49.73,20.859 L46.194,17.324 C45.222,16.352 45.222,14.761 46.194,13.788 C47.166,12.816 48.757,12.816 49.73,13.788 L53.265,17.324 C54.237,18.296 54.237,19.887 53.265,20.859 C52.293,21.832 50.702,21.832 49.73,20.859 L49.73,20.859 Z" id="Fill-1821" fill="#A4E869" sketch:type="MSShapeGroup"></path>
            <path d="M49.73,20.859 L46.194,17.324 C45.222,16.352 45.222,14.761 46.194,13.788 C47.166,12.816 48.757,12.816 49.73,13.788 L53.265,17.324 C54.237,18.296 54.237,19.887 53.265,20.859 C52.293,21.832 50.702,21.832 49.73,20.859 L49.73,20.859 Z" id="Stroke-1822" stroke="#A4E869" stroke-width="2" sketch:type="MSShapeGroup"></path>
        </g>
    </g>
</svg>