<?xml version="1.0" encoding="UTF-8" standalone="no"?>
<svg width="52px" height="53px" viewBox="0 0 52 53" version="1.1" xmlns="http://www.w3.org/2000/svg" xmlns:xlink="http://www.w3.org/1999/xlink" xmlns:sketch="http://www.bohemiancoding.com/sketch/ns">
    <!-- Generator: Sketch 3.2.2 (9983) - http://www.bohemiancoding.com/sketch -->
    <title>15 - Kitchen Glove (Flat)</title>
    <desc>Created with Sketch.</desc>
    <defs></defs>
    <g id="Page-1" stroke="none" stroke-width="1" fill="none" fill-rule="evenodd" sketch:type="MSPage">
        <g id="15---Kitchen-Glove-(Flat)" sketch:type="MSLayerGroup" transform="translate(0.000000, -1.000000)">
            <path d="M12,45.124 L12,54 L46,54 L46,18.459 C46,8.981 38.247,0.874 28.77,1.001 C19.525,1.126 12,8.726 12,18 L12,23.527 C12,23.913 11.534,24.106 11.261,23.833 C8.927,21.5 5.174,21.077 2.555,23.084 C-0.616,25.513 -0.835,30.122 1.896,32.854 C1.896,32.854 7.251,38.12 10.175,40.88 C11.342,41.982 12,43.519 12,45.124" id="Fill-1908" fill="#FBD490" sketch:type="MSShapeGroup"></path>
            <path d="M12,48 L46,48 L46,54 L12,54 L12,48 Z" id="Fill-1909" fill="#F85B57" sketch:type="MSShapeGroup"></path>
            <path d="M46,41 L52,41 L52,45 L46,45 L46,41 Z" id="Fill-1910" fill="#F85B57" sketch:type="MSShapeGroup"></path>
            <path d="M26,32 L21,37 M21,32 L26,37 M37,32 L32,37 M32,32 L37,37 M22,40 L17,45 M17,40 L22,45 M32,40 L27,45 M27,40 L32,45 M42,40 L37,45 M37,40 L42,45" id="Stroke-1911" stroke="#FAF6E5" stroke-width="2" sketch:type="MSShapeGroup"></path>
            <path d="M11.56,23.957 L15.226,27.28" id="Stroke-1912" stroke="#FAF6E5" stroke-width="2" stroke-linecap="round" sketch:type="MSShapeGroup"></path>
        </g>
    </g>
</svg>