<?xml version="1.0" encoding="UTF-8" standalone="no"?>
<svg width="44px" height="56px" viewBox="0 0 44 56" version="1.1" xmlns="http://www.w3.org/2000/svg" xmlns:xlink="http://www.w3.org/1999/xlink" xmlns:sketch="http://www.bohemiancoding.com/sketch/ns">
    <!-- Generator: Sketch 3.2.2 (9983) - http://www.bohemiancoding.com/sketch -->
    <title>142 - Kitchen Scale (Flat)</title>
    <desc>Created with Sketch.</desc>
    <defs></defs>
    <g id="Page-1" stroke="none" stroke-width="1" fill="none" fill-rule="evenodd" sketch:type="MSPage">
        <g id="142---Kitchen-Scale-(Flat)" sketch:type="MSLayerGroup">
            <path d="M44,0 C44,7.456 34.15,15 22,15 C9.85,15 0,7.456 0,0 L44,0" id="Fill-2038" fill="#E6E6E6" sketch:type="MSShapeGroup"></path>
            <path d="M21.969,19 C24.132,19 26.172,19.506 28,20.384 L28,14.37 C26.092,14.774 24.081,15 22,15 C19.919,15 17.908,14.774 16,14.37 L16,20.354 C17.812,19.495 19.83,19 21.969,19" id="Fill-2039" fill="#A5A5A5" sketch:type="MSShapeGroup"></path>
            <path d="M10,51 C10,53.211 8.211,55 6,55 M35,51 C35,53.211 36.789,55 39,55" id="Stroke-2040" stroke="#D2D5D7" stroke-width="2" stroke-linecap="round" sketch:type="MSShapeGroup"></path>
            <path d="M34.026,40 C31.603,44.145 27.117,46.938 21.969,46.938 C16.821,46.938 12.335,44.145 9.912,40 L4.858,40 C2.876,40 1.497,41.969 2.174,43.831 L4.781,51 L40.219,51 L42.826,43.831 C43.503,41.969 42.124,40 40.142,40 L34.026,40" id="Fill-2041" fill="#38454F" sketch:type="MSShapeGroup"></path>
            <path d="M13.818,8.809 C16.104,9.656 18.569,10.001 21,10 M9,4 C9.03,5.125 9.616,6.124 10.447,6.861" id="Stroke-2042" stroke="#FFFFFF" stroke-width="2" stroke-linecap="round" sketch:type="MSShapeGroup"></path>
            <path d="M35.938,32.969 C35.938,40.684 29.684,46.938 21.969,46.938 C14.254,46.938 8,40.684 8,32.969 C8,25.254 14.254,19 21.969,19 C29.684,19 35.938,25.254 35.938,32.969" id="Fill-2043" fill="#E6E6E6" sketch:type="MSShapeGroup"></path>
            <path d="M35.938,32.969 C35.938,40.684 29.684,46.938 21.969,46.938 C14.254,46.938 8,40.684 8,32.969 C8,25.254 14.254,19 21.969,19 C29.684,19 35.938,25.254 35.938,32.969 L35.938,32.969 Z" id="Fill-2044" fill="#DAE7EF" sketch:type="MSShapeGroup"></path>
            <path d="M35.938,32.969 C35.938,40.684 29.684,46.938 21.969,46.938 C14.254,46.938 8,40.684 8,32.969 C8,25.254 14.254,19 21.969,19 C29.684,19 35.938,25.254 35.938,32.969 L35.938,32.969 Z" id="Stroke-2045" stroke="#BBD7EB" sketch:type="MSShapeGroup"></path>
            <path d="M24.047,34.384 L24.047,34.384 C22.364,34.384 21,33.02 21,31.337 C21,29.999 26.566,27.15 28.845,26.039 C29.165,25.883 29.5,26.218 29.345,26.538 C28.234,28.817 25.385,34.384 24.047,34.384" id="Fill-2046" fill="#ED3F32" sketch:type="MSShapeGroup"></path>
            <path d="M21,23 L22,23 M21,42 L22,42 M12,32 L13,32 M31,32 L32,32" id="Stroke-2047" stroke="#FFFFFF" stroke-width="2" stroke-linecap="round" sketch:type="MSShapeGroup"></path>
        </g>
    </g>
</svg>