<?xml version="1.0" encoding="UTF-8" standalone="no"?>
<svg width="55px" height="55px" viewBox="0 0 55 55" version="1.1" xmlns="http://www.w3.org/2000/svg" xmlns:xlink="http://www.w3.org/1999/xlink" xmlns:sketch="http://www.bohemiancoding.com/sketch/ns">
    <!-- Generator: Sketch 3.2.2 (9983) - http://www.bohemiancoding.com/sketch -->
    <title>170 - Ladle (Flat)</title>
    <desc>Created with Sketch.</desc>
    <defs></defs>
    <g id="Page-1" stroke="none" stroke-width="1" fill="none" fill-rule="evenodd" sketch:type="MSPage">
        <g id="170---Ladle-(Flat)" sketch:type="MSLayerGroup">
            <path d="M22.387,33.133 L32.922,22.598" id="Stroke-448" stroke="#D2D5D7" stroke-width="2" sketch:type="MSShapeGroup"></path>
            <path d="M21.188,30.479 C22.946,32.236 29.32,42.853 21.542,50.631 C13.749,58.424 2.44,52.742 0.682,50.985 C-1.075,49.227 2.444,42.859 8.107,37.196 C13.769,31.534 19.431,28.721 21.188,30.479" id="Fill-449" fill="#E6E6E6" sketch:type="MSShapeGroup"></path>
            <path d="M21.188,30.479 C22.946,32.236 20.133,37.898 14.471,43.56 C8.808,49.223 2.44,52.742 0.682,50.985 C-1.075,49.227 2.444,42.859 8.107,37.196 C13.769,31.534 19.431,28.721 21.188,30.479" id="Fill-450" fill="#D2D5D7" sketch:type="MSShapeGroup"></path>
            <path d="M19.128,48.459 C17.073,50.523 14.083,51.315 11.235,50.988" id="Stroke-451" stroke="#FFFFFF" stroke-width="2" stroke-linecap="round" sketch:type="MSShapeGroup"></path>
            <path d="M54.227,6.489 C54.227,6.489 54.16,4.7 52.26,2.8 L52.259,2.8 C52.259,2.8 50.368,0.802 48.57,0.833 C48.57,0.833 38.184,5.296 30.493,18.91 C30.493,18.91 30.56,20.699 32.46,22.599 L32.461,22.598 C32.461,22.598 34.352,24.597 36.15,24.566 C36.15,24.566 46.536,20.103 54.227,6.489" id="Fill-452" fill="#A46F3E" sketch:type="MSShapeGroup"></path>
            <path d="M48.997,3.234 C48.606,2.844 47.973,2.844 47.582,3.234 L45.252,5.564 C44.862,5.954 44.862,6.588 45.252,6.978 C45.447,7.174 45.704,7.271 45.959,7.271 C46.215,7.271 46.471,7.174 46.667,6.978 L48.997,4.648 C49.387,4.258 49.387,3.624 48.997,3.234" id="Fill-453" fill="#C18757" sketch:type="MSShapeGroup"></path>
            <path d="M44.153,9.492 C44.544,9.101 44.544,8.469 44.153,8.078 C43.762,7.687 43.129,7.687 42.739,8.078 L36.124,14.692 C35.734,15.083 35.734,15.716 36.124,16.106 C36.32,16.302 36.576,16.399 36.831,16.399 C37.087,16.399 37.343,16.302 37.539,16.106 L44.153,9.492" id="Fill-454" fill="#C18757" sketch:type="MSShapeGroup"></path>
            <path d="M39.532,16.942 L37.165,19.308 C36.775,19.699 36.775,20.333 37.166,20.723 C37.361,20.918 37.617,21.016 37.873,21.016 C38.128,21.016 38.385,20.918 38.58,20.723 L40.946,18.356 C41.336,17.966 41.336,17.333 40.946,16.942 C40.555,16.552 39.922,16.552 39.532,16.942" id="Fill-455" fill="#C18757" sketch:type="MSShapeGroup"></path>
            <path d="M47.181,9.293 L42.36,14.114 C41.969,14.505 41.969,15.138 42.36,15.528 C42.555,15.724 42.811,15.821 43.067,15.821 C43.323,15.821 43.579,15.724 43.774,15.528 L48.595,10.707 C48.986,10.316 48.986,9.683 48.595,9.293 C48.205,8.902 47.572,8.902 47.181,9.293" id="Fill-456" fill="#C18757" sketch:type="MSShapeGroup"></path>
            <path d="M33.874,16.942 L31.271,19.546 C30.88,19.936 30.88,20.569 31.271,20.96 C31.466,21.155 31.722,21.253 31.978,21.253 C32.234,21.253 32.49,21.155 32.685,20.96 L35.289,18.356 C35.679,17.966 35.679,17.333 35.289,16.942 C34.898,16.552 34.265,16.552 33.874,16.942" id="Fill-457" fill="#C18757" sketch:type="MSShapeGroup"></path>
            <path d="M52.034,5.853 C51.644,5.463 51.01,5.463 50.62,5.853 L49.431,7.043 C49.04,7.433 49.04,8.066 49.431,8.457 C49.626,8.652 49.882,8.75 50.138,8.75 C50.394,8.75 50.65,8.652 50.845,8.457 L52.034,7.267 C52.425,6.877 52.425,6.244 52.034,5.853" id="Fill-458" fill="#C18757" sketch:type="MSShapeGroup"></path>
        </g>
    </g>
</svg>