<?xml version="1.0" encoding="UTF-8" standalone="no"?>
<svg width="51px" height="51px" viewBox="0 0 51 51" version="1.1" xmlns="http://www.w3.org/2000/svg" xmlns:xlink="http://www.w3.org/1999/xlink" xmlns:sketch="http://www.bohemiancoding.com/sketch/ns">
    <!-- Generator: Sketch 3.2.2 (9983) - http://www.bohemiancoding.com/sketch -->
    <title>221 - Lemon Juice (Flat)</title>
    <desc>Created with Sketch.</desc>
    <defs></defs>
    <g id="Page-1" stroke="none" stroke-width="1" fill="none" fill-rule="evenodd" sketch:type="MSPage">
        <g id="221---Lemon-Juice-(Flat)" sketch:type="MSLayerGroup">
            <path d="M29.077,0.633 L29.077,42.633 C40.675,42.633 50.077,33.231 50.077,21.633 C50.077,10.035 40.675,0.633 29.077,0.633" id="Fill-104" fill="#F9D70B" sketch:type="MSShapeGroup"></path>
            <path d="M8.228,30.01 C8.228,32.219 6.437,34.01 4.228,34.01 C2.019,34.01 0.228,32.219 0.228,30.01 C0.228,28.421 2.296,24.292 3.458,22.097 C3.785,21.479 4.67,21.479 4.997,22.097 C6.16,24.292 8.228,28.421 8.228,30.01" id="Fill-105" fill="#F1B501" sketch:type="MSShapeGroup"></path>
            <path d="M22.228,46.633 C22.228,48.842 20.437,50.633 18.228,50.633 C16.018,50.633 14.228,48.842 14.228,46.633 C14.228,45.045 16.296,40.915 17.458,38.72 C17.785,38.102 18.67,38.102 18.997,38.72 C20.16,40.915 22.228,45.045 22.228,46.633" id="Fill-106" fill="#F9DA49" sketch:type="MSShapeGroup"></path>
            <path d="M29.077,8.409 C20.887,2.687 9.538,3.463 2.228,10.773 L29.077,37.622 L29.077,8.409" id="Fill-107" fill="#F1B501" sketch:type="MSShapeGroup"></path>
            <path d="M29.077,13.583 C22.436,6.964 11.688,6.969 5.056,13.601 L29.077,37.622 L29.077,13.583" id="Fill-108" fill="#F9DA49" sketch:type="MSShapeGroup"></path>
            <path d="M29.077,13.583 C28.844,13.351 28.596,13.146 28.354,12.931 L18.077,23.208 L18.077,8.67 C17.945,8.663 17.813,8.656 17.681,8.652 L16.463,8.652 C16.334,8.656 16.206,8.663 16.077,8.67 L16.077,24.623 L18.077,26.622 L29.047,26.622 L29.047,24.622 L19.491,24.622 L29.077,15.037 L29.077,13.583" id="Fill-109" fill="#F9EB80" sketch:type="MSShapeGroup"></path>
            <path d="M29.077,0.633 L29.077,42.633 C40.675,42.633 50.077,33.231 50.077,21.633 C50.077,10.035 40.675,0.633 29.077,0.633" id="Fill-110" fill="#F1B501" sketch:type="MSShapeGroup"></path>
            <path d="M29.077,4.633 L29.077,38.633 C38.466,38.633 46.077,31.022 46.077,21.633 C46.077,12.244 38.466,4.633 29.077,4.633" id="Fill-111" fill="#F9EB80" sketch:type="MSShapeGroup"></path>
            <path d="M41.771,10.354 C41.685,10.256 41.598,10.16 41.51,10.065 L40.644,9.2 C40.55,9.112 40.454,9.025 40.357,8.939 L29.077,20.22 L29.077,23.047 L40.357,34.327 C40.455,34.24 40.551,34.153 40.647,34.063 L41.507,33.203 C41.596,33.107 41.684,33.011 41.771,32.913 L31.491,22.633 L46.026,22.633 C46.046,22.3 46.077,21.971 46.077,21.633 C46.077,21.295 46.046,20.966 46.026,20.633 L31.491,20.633 L41.771,10.354" id="Fill-112" fill="#F9DA49" sketch:type="MSShapeGroup"></path>
        </g>
    </g>
</svg>