<?xml version="1.0" encoding="UTF-8" standalone="no"?>
<svg width="56px" height="56px" viewBox="0 0 56 56" version="1.1" xmlns="http://www.w3.org/2000/svg" xmlns:xlink="http://www.w3.org/1999/xlink" xmlns:sketch="http://www.bohemiancoding.com/sketch/ns">
    <!-- Generator: Sketch 3.2.2 (9983) - http://www.bohemiancoding.com/sketch -->
    <title>39 - Marguerita (Flat)</title>
    <desc>Created with Sketch.</desc>
    <defs></defs>
    <g id="Page-1" stroke="none" stroke-width="1" fill="none" fill-rule="evenodd" sketch:type="MSPage">
        <g id="39---Marguerita-(Flat)" sketch:type="MSLayerGroup">
            <path d="M28,0 C12.536,0 0,12.536 0,28 C0,35.627 3.053,42.538 8,47.588 L8,51 C8,52.1 8.9,53 10,53 C11.1,53 12,52.1 12,51 L12,50.972 C16.536,54.138 22.049,56 28,56 C43.464,56 56,43.464 56,28 C56,12.536 43.464,0 28,0" id="Fill-1416" fill="#FFCE72" sketch:type="MSShapeGroup"></path>
            <path d="M52,28 C52,14.745 41.255,4 28,4 C24.803,4 21.754,4.63 18.965,5.765 C18.937,6.019 18.942,6.278 19,6.536 C20.102,11.406 17.344,13.109 15.727,13 C13.966,12.881 13.448,10.294 13.372,8.979 C7.674,13.367 4,20.252 4,28 C4,32.905 5.474,37.464 8,41.264 L8,51 C8,52.1 8.9,53 10,53 C11.1,53 12,52.1 12,51 L12,45.884 C16.246,49.685 21.852,52 28,52 C29.119,52 30.218,51.917 31.296,51.769 C31.29,51.937 31.27,52.109 31.237,52.282 C31.016,53.415 31.028,54.825 33.516,54.993 C35.133,55.103 37.766,53.799 35.516,51.215 C35.42,51.105 35.362,50.983 35.317,50.86 C44.993,47.766 52,38.702 52,28" id="Fill-1417" fill="#FFF1C6" sketch:type="MSShapeGroup"></path>
            <path d="M46.332,25.326 C45.644,25.397 45.031,24.898 44.96,24.211 C44.89,23.524 44.276,23.024 43.589,23.095 C42.902,23.166 42.288,22.667 42.218,21.98 C42.147,21.292 41.534,20.794 40.846,20.864 M29.2,10.599 C29.006,11.263 28.313,11.643 27.65,11.449 C26.986,11.256 26.293,11.636 26.1,12.3 C25.906,12.963 25.213,13.343 24.55,13.15 C23.887,12.956 23.193,13.337 23,14 M15,33.079 C14.319,33.198 13.672,32.744 13.553,32.064 C13.433,31.383 12.786,30.93 12.105,31.049 C11.425,31.168 10.777,30.714 10.658,30.034 C10.538,29.353 9.891,28.899 9.211,29.019 M24.625,21.905 C24.799,22.574 24.398,23.255 23.729,23.429 C23.06,23.602 22.66,24.283 22.833,24.952 C23.006,25.621 22.605,26.303 21.937,26.476 C21.268,26.649 20.867,27.331 21.04,28 M31,33 C30.807,33.663 30.113,34.044 29.45,33.85 C28.787,33.657 28.094,34.037 27.9,34.7 C27.707,35.364 27.014,35.744 26.35,35.55 C25.687,35.357 24.994,35.737 24.8,36.4" id="Stroke-1418" stroke="#659C35" stroke-width="2" stroke-linecap="round" sketch:type="MSShapeGroup"></path>
            <path d="M30.899,45.661 L28.51,43.644 C27.904,43.132 27.827,42.226 28.339,41.62 L29.066,40.759 C29.577,40.153 30.484,40.076 31.09,40.588 L33.479,42.604 C34.086,43.116 34.162,44.023 33.65,44.629 L32.924,45.49 C32.412,46.096 31.505,46.173 30.899,45.661" id="Fill-1419" fill="#CF6D61" sketch:type="MSShapeGroup"></path>
            <path d="M39.873,16.583 L36.791,17.11 C36.009,17.245 35.267,16.719 35.133,15.937 L34.943,14.826 C34.809,14.045 35.334,13.302 36.116,13.168 L39.198,12.64 C39.98,12.506 40.723,13.032 40.857,13.814 L41.047,14.924 C41.181,15.706 40.655,16.449 39.873,16.583" id="Fill-1420" fill="#C9604D" sketch:type="MSShapeGroup"></path>
            <path d="M32.401,28.192 L29.281,27.995 C28.489,27.945 27.888,27.262 27.938,26.47 L28.009,25.346 C28.059,24.554 28.742,23.953 29.534,24.003 L32.654,24.2 C33.446,24.25 34.047,24.933 33.997,25.725 L33.926,26.849 C33.876,27.641 33.193,28.242 32.401,28.192" id="Fill-1421" fill="#C9604D" sketch:type="MSShapeGroup"></path>
            <path d="M18.401,42.192 L15.281,41.995 C14.489,41.945 13.888,41.262 13.938,40.47 L14.009,39.346 C14.059,38.554 14.742,37.953 15.534,38.003 L18.654,38.2 C19.446,38.25 20.047,38.933 19.997,39.725 L19.926,40.849 C19.876,41.641 19.193,42.242 18.401,42.192" id="Fill-1422" fill="#C9604D" sketch:type="MSShapeGroup"></path>
            <path d="M44.466,36.192 L41.346,35.995 C40.554,35.945 39.953,35.262 40.003,34.47 L40.074,33.346 C40.124,32.554 40.807,31.953 41.599,32.003 L44.719,32.2 C45.511,32.25 46.112,32.933 46.062,33.725 L45.991,34.849 C45.941,35.641 45.258,36.242 44.466,36.192" id="Fill-1423" fill="#C9604D" sketch:type="MSShapeGroup"></path>
            <path d="M14.168,24.868 L11.119,24.176 C10.345,24 9.86,23.231 10.036,22.457 L10.566,20.119 C10.742,19.345 11.511,18.86 12.285,19.036 L15.335,19.728 C16.108,19.903 16.593,20.673 16.418,21.447 L15.887,23.784 C15.712,24.558 14.942,25.043 14.168,24.868" id="Fill-1424" fill="#C9604D" sketch:type="MSShapeGroup"></path>
        </g>
    </g>
</svg>