<?xml version="1.0" encoding="UTF-8" standalone="no"?>
<svg width="47px" height="53px" viewBox="0 0 47 53" version="1.1" xmlns="http://www.w3.org/2000/svg" xmlns:xlink="http://www.w3.org/1999/xlink" xmlns:sketch="http://www.bohemiancoding.com/sketch/ns">
    <!-- Generator: Sketch 3.2.2 (9983) - http://www.bohemiancoding.com/sketch -->
    <title>148 - Martini Glass (Flat)</title>
    <desc>Created with Sketch.</desc>
    <defs></defs>
    <g id="Page-1" stroke="none" stroke-width="1" fill="none" fill-rule="evenodd" sketch:type="MSPage">
        <g id="148---Martini-Glass-(Flat)" sketch:type="MSLayerGroup">
            <path d="M37,49.5 C37,50.881 32.075,52 26,52 C19.925,52 15,50.881 15,49.5 C15,48.119 19.925,47 26,47 C32.075,47 37,48.119 37,49.5 L37,49.5 Z" id="Fill-881" fill="#DAE7EF" sketch:type="MSShapeGroup"></path>
            <path d="M37,49.5 C37,50.881 32.075,52 26,52 C19.925,52 15,50.881 15,49.5 C15,48.119 19.925,47 26,47 C32.075,47 37,48.119 37,49.5 L37,49.5 Z" id="Stroke-882" stroke="#BBD7EB" stroke-linecap="round" stroke-linejoin="round" sketch:type="MSShapeGroup"></path>
            <path d="M26,34.141 L26,49.141" id="Fill-883" fill="#DAE7EF" sketch:type="MSShapeGroup"></path>
            <path d="M26,34.141 L26,49.141" id="Stroke-884" stroke="#BBD7EB" stroke-width="2" stroke-linecap="round" stroke-linejoin="round" sketch:type="MSShapeGroup"></path>
            <path d="M7,10 C7,11.454 9.847,12.572 14.244,13.253 C14.724,12.27 15,11.169 15,10.002 C15,5.895 11.67,2.565 7.562,2.565 C3.455,2.565 0.125,5.895 0.125,10.002 C0.125,14.11 3.455,17.44 7.562,17.44 C8.671,17.44 9.719,17.19 10.664,16.756 C8.505,13.674 7,11.124 7,10" id="Fill-885" fill="#A4E869" sketch:type="MSShapeGroup"></path>
            <path d="M25.5,5 C21.122,5 17.106,5.464 13.938,6.187 C14.608,7.303 15,8.606 15,10.002 C15,11.169 14.724,12.27 14.244,13.253 C10.144,12.618 7.395,11.603 7.041,10.29 C7.049,10.339 7.049,10.381 7.062,10.435 C7.071,10.476 7.082,10.518 7.093,10.561 C7.135,10.716 7.188,10.882 7.258,11.064 C7.264,11.079 7.268,11.092 7.274,11.107 C7.354,11.31 7.453,11.531 7.565,11.764 C7.588,11.811 7.612,11.859 7.636,11.908 C7.746,12.129 7.867,12.36 8.002,12.605 C8.012,12.624 8.021,12.641 8.031,12.66 C8.185,12.935 8.354,13.226 8.537,13.527 C8.556,13.559 8.576,13.592 8.595,13.623 C8.775,13.919 8.966,14.224 9.17,14.541 C9.175,14.55 9.181,14.558 9.187,14.567 C9.63,15.254 10.127,15.989 10.664,16.756 C14.41,22.101 20.131,29.051 23.424,32.968 C24.758,34.555 27.206,34.527 28.5,32.908 C33.445,26.726 44,13.159 44,10 C44,7.515 35.717,5 25.5,5 L25.5,5 Z" id="Fill-886" fill="#DAE7EF" sketch:type="MSShapeGroup"></path>
            <path d="M25.5,5 C21.122,5 17.106,5.464 13.938,6.187 C14.608,7.303 15,8.606 15,10.002 C15,11.169 14.724,12.27 14.244,13.253 C10.144,12.618 7.395,11.603 7.041,10.29 C7.049,10.339 7.049,10.381 7.062,10.435 C7.071,10.476 7.082,10.518 7.093,10.561 C7.135,10.716 7.188,10.882 7.258,11.064 C7.264,11.079 7.268,11.092 7.274,11.107 C7.354,11.31 7.453,11.531 7.565,11.764 C7.588,11.811 7.612,11.859 7.636,11.908 C7.746,12.129 7.867,12.36 8.002,12.605 C8.012,12.624 8.021,12.641 8.031,12.66 C8.185,12.935 8.354,13.226 8.537,13.527 C8.556,13.559 8.576,13.592 8.595,13.623 C8.775,13.919 8.966,14.224 9.17,14.541 C9.175,14.55 9.181,14.558 9.187,14.567 C9.63,15.254 10.127,15.989 10.664,16.756 C14.41,22.101 20.131,29.051 23.424,32.968 C24.758,34.555 27.206,34.527 28.5,32.908 C33.445,26.726 44,13.159 44,10 C44,7.515 35.717,5 25.5,5 L25.5,5 Z" id="Stroke-887" stroke="#BBD7EB" stroke-linecap="round" stroke-linejoin="round" sketch:type="MSShapeGroup"></path>
            <path d="M37.691,20.896 C37.691,22.058 31.937,23 26,23 C20.063,23 13.701,22.058 13.701,20.896 C13.701,19.733 20.063,19 26,19 C31.937,19 37.691,19.733 37.691,20.896" id="Fill-888" fill="#F9EB80" sketch:type="MSShapeGroup"></path>
            <path d="M25.942,23 C20.825,23 15.404,22.3 14,21.362 C17.276,25.645 20.965,30.112 23.366,32.968 C24.7,34.555 27.147,34.527 28.442,32.908 C30.724,30.055 34.2,25.629 37.283,21.379 C35.969,22.308 31.028,23 25.942,23" id="Fill-889" fill="#F2E69C" sketch:type="MSShapeGroup"></path>
            <path d="M36.924,13.227 C37.939,13.066 38.874,12.883 39.701,12.676 L42.663,8.254 C42.179,7.936 41.583,7.629 40.868,7.338 L36.924,13.227" id="Fill-890" fill="#FBD490" sketch:type="MSShapeGroup"></path>
            <path d="M36.924,13.227 L25.396,30.438 C25.089,30.897 25.212,31.518 25.67,31.826 C25.841,31.94 26.035,31.995 26.226,31.995 C26.548,31.995 26.865,31.84 27.058,31.552 L39.701,12.676 C38.874,12.883 37.939,13.066 36.924,13.227" id="Fill-891" fill="#B0D9EB" sketch:type="MSShapeGroup"></path>
            <path d="M25.5,5 C21.122,5 17.106,5.464 13.938,6.187 C14.608,7.303 15,8.606 15,10.002 C15,11.169 14.724,12.27 14.244,13.253 C17.365,13.735 21.259,14 25.5,14 C35.717,14 44,12.485 44,10 C44,7.515 35.717,5 25.5,5 L25.5,5 Z" id="Fill-892" fill="#DAE7EF" sketch:type="MSShapeGroup"></path>
            <path d="M25.5,5 C21.122,5 17.106,5.464 13.938,6.187 C14.608,7.303 15,8.606 15,10.002 C15,11.169 14.724,12.27 14.244,13.253 C17.365,13.735 21.259,14 25.5,14 C35.717,14 44,12.485 44,10 C44,7.515 35.717,5 25.5,5 L25.5,5 Z" id="Stroke-893" stroke="#BBD7EB" stroke-linecap="round" stroke-linejoin="round" sketch:type="MSShapeGroup"></path>
            <path d="M46.411,0.861 C45.952,0.555 45.33,0.676 45.023,1.135 L40.764,7.495 C41.436,7.624 42.074,7.923 42.584,8.372 L46.685,2.249 C46.992,1.79 46.869,1.169 46.411,0.861" id="Fill-894" fill="#FBD490" sketch:type="MSShapeGroup"></path>
            <path id="Fill-895" fill="#F9D70B" sketch:type="MSShapeGroup"></path>
            <path d="M31.453,21.362 L25.396,30.438 C25.089,30.897 25.212,31.518 25.67,31.826 C25.841,31.94 26.035,31.995 26.226,31.995 C26.548,31.995 26.865,31.84 27.058,31.552 L34.051,21.078 C33.249,21.192 32.375,21.288 31.453,21.362" id="Fill-896" fill="#F9D70B" sketch:type="MSShapeGroup"></path>
            <path id="Fill-897" fill="#F9D70B" sketch:type="MSShapeGroup"></path>
            <path d="M40.119,12.052 L43.054,7.651 C42.588,7.348 41.99,7.044 41.25,6.75 L37.302,12.663 C38.375,12.481 39.313,12.274 40.119,12.052" id="Fill-898" fill="#FBD490" sketch:type="MSShapeGroup"></path>
        </g>
    </g>
</svg>