<?xml version="1.0" encoding="UTF-8" standalone="no"?>
<svg width="53px" height="53px" viewBox="0 0 53 53" version="1.1" xmlns="http://www.w3.org/2000/svg" xmlns:xlink="http://www.w3.org/1999/xlink" xmlns:sketch="http://www.bohemiancoding.com/sketch/ns">
    <!-- Generator: Sketch 3.2.2 (9983) - http://www.bohemiancoding.com/sketch -->
    <title>73 - Mashed Potatoes (Flat)</title>
    <desc>Created with Sketch.</desc>
    <defs></defs>
    <g id="Page-1" stroke="none" stroke-width="1" fill="none" fill-rule="evenodd" sketch:type="MSPage">
        <g id="Icons" sketch:type="MSArtboardGroup" transform="translate(-963.000000, -2161.000000)">
            <g id="73---Mashed-Potatoes-(Flat)" sketch:type="MSLayerGroup" transform="translate(963.000000, 2161.000000)">
                <path d="M53,26.5 C53,41.135 41.135,53 26.5,53 C11.865,53 0,41.135 0,26.5 C0,11.864 11.865,0 26.5,0 C41.135,0 53,11.864 53,26.5" id="Fill-836" fill="#D2D5D7" sketch:type="MSShapeGroup"></path>
                <path d="M50,26.5 C50,39.479 39.479,50 26.5,50 C13.521,50 3,39.479 3,26.5 C3,13.521 13.521,3 26.5,3 C39.479,3 50,13.521 50,26.5" id="Fill-837" fill="#F2F2F2" sketch:type="MSShapeGroup"></path>
                <path d="M17.009,17.264 C18.291,20.169 17.21,23.46 14.595,24.613 C11.98,25.766 8.821,24.346 7.539,21.44 C6.258,18.535 7.339,15.244 9.954,14.091 C12.569,12.938 15.727,14.358 17.009,17.264" id="Fill-838" fill="#F9D70B" sketch:type="MSShapeGroup"></path>
                <path d="M36.009,17.25 C37.291,20.155 36.21,23.446 33.595,24.599 C30.98,25.752 27.821,24.332 26.539,21.426 C25.258,18.521 26.339,15.231 28.954,14.077 C31.569,12.924 34.727,14.344 36.009,17.25" id="Fill-839" fill="#F9DA49" sketch:type="MSShapeGroup"></path>
                <path d="M21.009,26.573 C22.291,29.479 21.21,32.769 18.595,33.923 C15.98,35.076 12.821,33.656 11.539,30.75 C10.258,27.844 11.339,24.554 13.954,23.401 C16.569,22.247 19.727,23.668 21.009,26.573" id="Fill-840" fill="#EEAF4B" sketch:type="MSShapeGroup"></path>
                <path d="M30.94,27 L24.062,32.643" id="Stroke-841" stroke="#ED3F32" stroke-width="2" stroke-linecap="round" sketch:type="MSShapeGroup"></path>
                <path d="M30.878,30.931 L24,36.575" id="Stroke-842" stroke="#436B1C" stroke-width="2" stroke-linecap="round" sketch:type="MSShapeGroup"></path>
                <path d="M35.729,30.832 L29.833,35.669" id="Stroke-843" stroke="#88C057" stroke-width="2" stroke-linecap="round" sketch:type="MSShapeGroup"></path>
                <path d="M34.684,35.57 L27.806,41.214" id="Stroke-844" stroke="#A4E869" stroke-width="2" stroke-linecap="round" sketch:type="MSShapeGroup"></path>
                <path d="M26.539,21.426 C25.262,18.53 26.334,15.254 28.93,14.091 C27.604,11.295 24.519,9.945 21.954,11.077 C19.339,12.231 18.258,15.521 19.539,18.426 C20.821,21.332 23.98,22.752 26.595,21.599 C26.603,21.595 26.61,21.589 26.618,21.585 C26.593,21.532 26.563,21.481 26.539,21.426" id="Fill-845" fill="#EEAF4B" sketch:type="MSShapeGroup"></path>
            </g>
        </g>
    </g>
</svg>