<?xml version="1.0" encoding="UTF-8" standalone="no"?>
<svg width="56px" height="56px" viewBox="0 0 56 56" version="1.1" xmlns="http://www.w3.org/2000/svg" xmlns:xlink="http://www.w3.org/1999/xlink" xmlns:sketch="http://www.bohemiancoding.com/sketch/ns">
    <!-- Generator: Sketch 3.2.2 (9983) - http://www.bohemiancoding.com/sketch -->
    <title>8 - Meat Chunk (Flat)</title>
    <desc>Created with Sketch.</desc>
    <defs></defs>
    <g id="Page-1" stroke="none" stroke-width="1" fill="none" fill-rule="evenodd" sketch:type="MSPage">
        <g id="Icons" sketch:type="MSArtboardGroup" transform="translate(-362.000000, -2999.000000)">
            <g id="8---Meat-Chunk-(Flat)" sketch:type="MSLayerGroup" transform="translate(362.000000, 2999.000000)">
                <path d="M55.227,23.4 C52.884,25.743 45.919,22.578 39.671,16.329 C33.423,10.081 30.257,3.116 32.6,0.773 C34.943,-1.57 41.908,1.596 48.156,7.844 C54.405,14.092 57.57,21.057 55.227,23.4" id="Fill-2241" fill="#C56458" sketch:type="MSShapeGroup"></path>
                <path d="M42.5,13.501 C40.118,11.119 38.452,8.855 37.38,7.015 C36.823,6.06 37.887,4.996 38.842,5.553 C40.683,6.625 42.946,8.291 45.328,10.672 C47.71,13.054 49.376,15.318 50.448,17.158 C51.004,18.113 49.94,19.177 48.985,18.621 C47.145,17.548 44.881,15.883 42.5,13.501" id="Fill-2242" fill="#FBD490" sketch:type="MSShapeGroup"></path>
                <path d="M39.671,16.329 C33.423,10.081 30.257,3.116 32.6,0.773 C24.204,9.169 15.038,28.466 21.286,34.714 C27.535,40.963 46.831,31.796 55.227,23.4 C52.884,25.743 45.919,22.578 39.671,16.329" id="Fill-2243" fill="#773F3A" sketch:type="MSShapeGroup"></path>
                <path d="M22.693,35.751 C22.172,35.468 21.699,35.127 21.286,34.714 C20.741,34.168 20.319,33.518 19.998,32.789 L13.126,39.661 C10.785,42.002 7.553,43.214 4.25,43.008 C3.866,42.984 3.467,43.015 3.06,43.108 C1.616,43.438 0.441,44.608 0.109,46.052 C-0.493,48.673 1.482,51 4,51 C4.05,51 4.096,50.987 4.146,50.986 C3.858,52.081 3.858,53.289 5.463,54.869 C6.178,55.573 7.12,56.029 8.123,55.998 C10.276,55.933 12,54.168 12,52 L12,51.955 C11.963,48.65 13.014,45.43 15.352,43.092 L22.693,35.751" id="Fill-2244" fill="#FBD490" sketch:type="MSShapeGroup"></path>
                <path d="M38.311,20.666 C37.362,20.018 36.375,19.2 35.42,18.245 C34.465,17.291 33.648,16.304 32.999,15.354 C31.697,13.449 28.817,13.579 27.685,15.59 C27.045,16.726 26.47,17.911 26,19.085 M23.63,28 C23.629,29.334 23.954,30.457 24.711,31.214 C26.949,33.452 32.381,31.917 37,29.316" id="Stroke-2245" stroke="#994530" stroke-width="2" stroke-linecap="round" sketch:type="MSShapeGroup"></path>
            </g>
        </g>
    </g>
</svg>