<?xml version="1.0" encoding="UTF-8" standalone="no"?>
<svg width="28px" height="58px" viewBox="0 0 28 58" version="1.1" xmlns="http://www.w3.org/2000/svg" xmlns:xlink="http://www.w3.org/1999/xlink" xmlns:sketch="http://www.bohemiancoding.com/sketch/ns">
    <!-- Generator: Sketch 3.2.2 (9983) - http://www.bohemiancoding.com/sketch -->
    <title>104 - Melting Icecream (Flat)</title>
    <desc>Created with Sketch.</desc>
    <defs></defs>
    <g id="Page-1" stroke="none" stroke-width="1" fill="none" fill-rule="evenodd" sketch:type="MSPage">
        <g id="104---Melting-Icecream-(Flat)" sketch:type="MSLayerGroup">
            <path d="M13.975,56.395 L12.975,56.395 C11.875,56.395 10.975,55.495 10.975,54.395 L10.975,46.395 L15.975,46.395 L15.975,54.395 C15.975,55.495 15.075,56.395 13.975,56.395 L13.975,56.395 Z" id="Fill-1" fill="#FBD490" sketch:type="MSShapeGroup"></path>
            <path d="M13.975,56.395 L12.975,56.395 C11.875,56.395 10.975,55.495 10.975,54.395 L10.975,46.395 L15.975,46.395 L15.975,54.395 C15.975,55.495 15.075,56.395 13.975,56.395 L13.975,56.395 Z" id="Stroke-2" stroke="#FBD490" stroke-width="2" stroke-linecap="round" sketch:type="MSShapeGroup"></path>
            <path d="M27.381,13.531 C27.381,6.302 21.467,0.388 14.238,0.388 L13.143,0.388 C5.914,0.388 0,6.302 0,13.531 L0,42.463 C0,44.631 1.757,46.388 3.925,46.388 L23.456,46.388 C25.624,46.388 27.381,44.631 27.381,42.463 L27.381,13.531" id="Fill-3" fill="#F96C7E" sketch:type="MSShapeGroup"></path>
            <path d="M21.989,20.196 L21.989,25.128 C21.989,26.636 20.755,27.869 19.248,27.869 C17.741,27.869 16.508,26.636 16.508,25.128 L16.508,20.196 M12.469,33.946 L12.469,36.686 C12.469,38.193 11.236,39.426 9.729,39.426 C8.222,39.426 6.989,38.193 6.989,36.686 L6.989,33.946 M12.046,11.388 L12.046,14.128 C12.046,15.636 10.813,16.869 9.306,16.869 C7.799,16.869 6.565,15.636 6.565,14.128 L6.565,11.388" id="Stroke-4" stroke="#F8B7C2" stroke-width="2" stroke-linecap="round" sketch:type="MSShapeGroup"></path>
        </g>
    </g>
</svg>