<?xml version="1.0" encoding="UTF-8" standalone="no"?>
<svg width="33px" height="57px" viewBox="0 0 33 57" version="1.1" xmlns="http://www.w3.org/2000/svg" xmlns:xlink="http://www.w3.org/1999/xlink" xmlns:sketch="http://www.bohemiancoding.com/sketch/ns">
    <!-- Generator: Sketch 3.2.2 (9983) - http://www.bohemiancoding.com/sketch -->
    <title>48 - Milk (Flat)</title>
    <desc>Created with Sketch.</desc>
    <defs></defs>
    <g id="Page-1" stroke="none" stroke-width="1" fill="none" fill-rule="evenodd" sketch:type="MSPage">
        <g id="48---Milk-(Flat)" sketch:type="MSLayerGroup">
            <path d="M14,57 L0,51 L0,18 L14,23 L14,57" id="Fill-1340" fill="#C6C6C6" sketch:type="MSShapeGroup"></path>
            <path d="M33,52 L14,57 L14,23 L33,18 L33,52" id="Fill-1341" fill="#E6E6E6" sketch:type="MSShapeGroup"></path>
            <path d="M26,4 L7,8 L7,4 L26,0 L26,4" id="Fill-1342" fill="#E2E2E2" sketch:type="MSShapeGroup"></path>
            <path d="M14,23 L0,18 L7,8 L14,23" id="Fill-1343" fill="#D1D1D1" sketch:type="MSShapeGroup"></path>
            <path d="M33,18 L14,23 L7,8 L26,4 L33,18" id="Fill-1344" fill="#EBEBEB" sketch:type="MSShapeGroup"></path>
            <path d="M33,37 L14,52 L14,37 L33,21 L33,37" id="Fill-1345" fill="#3DABEF" sketch:type="MSShapeGroup"></path>
            <path d="M0,46 L14,52 L14,37 L0,31 L0,46" id="Fill-1346" fill="#2B9DD6" sketch:type="MSShapeGroup"></path>
            <path d="M22.214,16.875 L22.214,16.875 C19.997,17.455 19.258,15.452 18.91,14.121 C18.562,12.791 18.226,10.683 20.443,10.103 C22.66,9.523 23.399,11.526 23.747,12.856 C24.095,14.186 24.431,16.295 22.214,16.875" id="Fill-1347" fill="#FFFFFF" sketch:type="MSShapeGroup"></path>
            <path d="M22,4.842 L24,4.421 L24,0.421 L22,0.842 L22,4.842" id="Fill-1348" fill="#EDEDED" sketch:type="MSShapeGroup"></path>
            <path d="M18,5.684 L20,5.263 L20,1.263 L18,1.684 L18,5.684" id="Fill-1349" fill="#EDEDED" sketch:type="MSShapeGroup"></path>
            <path d="M14,6.526 L16,6.105 L16,2.105 L14,2.526 L14,6.526" id="Fill-1350" fill="#EDEDED" sketch:type="MSShapeGroup"></path>
            <path d="M10,7.368 L12,6.947 L12,2.947 L10,3.368 L10,7.368" id="Fill-1351" fill="#EDEDED" sketch:type="MSShapeGroup"></path>
        </g>
    </g>
</svg>