<?xml version="1.0" encoding="UTF-8" standalone="no"?>
<svg width="43px" height="56px" viewBox="0 0 43 56" version="1.1" xmlns="http://www.w3.org/2000/svg" xmlns:xlink="http://www.w3.org/1999/xlink" xmlns:sketch="http://www.bohemiancoding.com/sketch/ns">
    <!-- Generator: Sketch 3.2.2 (9983) - http://www.bohemiancoding.com/sketch -->
    <title>121 - Mixer (Flat)</title>
    <desc>Created with Sketch.</desc>
    <defs></defs>
    <g id="Page-1" stroke="none" stroke-width="1" fill="none" fill-rule="evenodd" sketch:type="MSPage">
        <g id="121---Mixer-(Flat)" sketch:type="MSLayerGroup">
            <path d="M40,15 L35.714,15 L32.208,38 L40,38 C41.1,38 42,37.1 42,36 L42,17 C42,15.9 41.1,15 40,15 L40,15 Z" id="Stroke-846" stroke="#BBD7EB" stroke-width="2" sketch:type="MSShapeGroup"></path>
            <path d="M26.922,45 L11.292,45 C9.378,45 7.73,43.649 7.354,41.772 L5,19 L1.09,13.135 C0.197,11.795 1.157,10 2.768,10 L32.521,10 C34.409,10 35.909,11.588 35.802,13.473 L31.867,40.329 C31.717,42.951 29.547,45 26.922,45 L26.922,45 Z" id="Fill-847" fill="#DAE7EF" sketch:type="MSShapeGroup"></path>
            <path d="M26.922,45 L11.292,45 C9.378,45 7.73,43.649 7.354,41.772 L5,19 L1.09,13.135 C0.197,11.795 1.157,10 2.768,10 L32.521,10 C34.409,10 35.909,11.588 35.802,13.473 L31.867,40.329 C31.717,42.951 29.547,45 26.922,45 L26.922,45 Z" id="Stroke-848" stroke="#BBD7EB" sketch:type="MSShapeGroup"></path>
            <path d="M35,56 L3,56 L3,47 C3,45.9 3.9,45 5,45 L33,45 C34.1,45 35,45.9 35,47 L35,56" id="Fill-849" fill="#D2D5D7" sketch:type="MSShapeGroup"></path>
            <path d="M32,10 L6,10 L6,7 C6,5.9 6.9,5 8,5 L30,5 C31.1,5 32,5.9 32,7 L32,10" id="Fill-850" fill="#38454F" sketch:type="MSShapeGroup"></path>
            <path d="M27,5 L11,5 L11,2 C11,0.9 11.9,0 13,0 L25,0 C26.1,0 27,0.9 27,2 L27,5" id="Fill-851" fill="#546A79" sketch:type="MSShapeGroup"></path>
            <path d="M12,50.5 C12,51.881 10.881,53 9.5,53 C8.119,53 7,51.881 7,50.5 C7,49.119 8.119,48 9.5,48 C10.881,48 12,49.119 12,50.5" id="Fill-852" fill="#FAF6E5" sketch:type="MSShapeGroup"></path>
            <path d="M31,50.5 C31,51.881 29.881,53 28.5,53 C27.119,53 26,51.881 26,50.5 C26,49.119 27.119,48 28.5,48 C29.881,48 31,49.119 31,50.5" id="Fill-853" fill="#FAF6E5" sketch:type="MSShapeGroup"></path>
            <path d="M17,48 L17,53 M21,48 L21,53" id="Stroke-854" stroke="#38454F" stroke-width="2" stroke-linecap="round" sketch:type="MSShapeGroup"></path>
            <path d="M11,23 L15,23 M11,27 L13,27 M11,39 L15,39 M11,31 L15,31 M11,35 L13,35" id="Stroke-855" stroke="#BBD7EB" stroke-width="2" stroke-linecap="round" sketch:type="MSShapeGroup"></path>
        </g>
    </g>
</svg>