<?xml version="1.0" encoding="UTF-8" standalone="no"?>
<svg width="45px" height="47px" viewBox="0 0 45 47" version="1.1" xmlns="http://www.w3.org/2000/svg" xmlns:xlink="http://www.w3.org/1999/xlink" xmlns:sketch="http://www.bohemiancoding.com/sketch/ns">
    <!-- Generator: Sketch 3.2.2 (9983) - http://www.bohemiancoding.com/sketch -->
    <title>193 - Mushrooms (Flat)</title>
    <desc>Created with Sketch.</desc>
    <defs></defs>
    <g id="Page-1" stroke="none" stroke-width="1" fill="none" fill-rule="evenodd" sketch:type="MSPage">
        <g id="193---Mushrooms-(Flat)" sketch:type="MSLayerGroup">
            <path d="M11.486,1.143 C9.082,2.125 6.969,3.706 5.35,5.737 C3.991,7.744 3.92,9.34 4.646,10.635 C5.8,12.176 8.004,12.493 9.545,11.339 C10.163,10.683 11.563,9.628 11.611,9.687 C12.271,10.501 13.612,12.364 13.455,13.874 C13.455,13.874 13.243,15.476 14.785,15.295 C14.873,15.285 14.957,15.247 15.028,15.194 L17.054,13.677 L17.924,13.026 C17.995,12.973 18.055,12.902 18.089,12.821 C18.698,11.393 17.101,11.145 17.101,11.145 C15.607,10.87 14.198,9.058 13.602,8.196 C13.561,8.136 14.911,7.137 15.681,6.746 C17.221,5.592 17.538,3.388 16.385,1.847 C15.383,0.672 13.906,0.182 11.486,1.143" id="Fill-250" fill="#D7CC56" sketch:type="MSShapeGroup"></path>
            <path d="M33.687,4.911 C31.497,3.115 28.884,1.91 26.095,1.411 C23.465,1.149 21.897,1.91 21.032,3.279 C20.153,5.186 20.994,7.464 22.9,8.343 C23.85,8.595 25.589,9.391 25.557,9.467 C25.119,10.522 24.029,12.775 22.499,13.409 C22.499,13.409 20.852,14.038 21.827,15.422 C21.882,15.501 21.962,15.563 22.049,15.603 L23.126,16.1 L24.556,16.759 L25.633,17.255 C25.721,17.296 25.819,17.316 25.915,17.307 C27.601,17.149 27.01,15.489 27.01,15.489 C26.498,13.913 27.503,11.621 28.021,10.603 C28.057,10.531 29.716,11.308 30.492,11.843 C32.398,12.721 34.676,11.881 35.555,9.975 C36.162,8.404 35.866,6.733 33.687,4.911" id="Fill-251" fill="#F9EB80" sketch:type="MSShapeGroup"></path>
            <path d="M40.164,15.375 C37.579,15.133 34.974,15.559 32.6,16.61 C30.466,17.761 29.665,19.144 29.71,20.628 C30.02,22.527 31.828,23.828 33.727,23.517 C34.579,23.222 36.309,22.934 36.324,23.008 C36.532,24.035 36.859,26.307 36.021,27.573 C36.021,27.573 35.093,28.896 36.544,29.448 C36.627,29.48 36.718,29.486 36.806,29.471 L37.879,29.296 L39.304,29.063 L40.377,28.888 C40.464,28.874 40.549,28.839 40.618,28.783 C41.818,27.798 40.517,26.839 40.517,26.839 C39.319,25.905 38.907,23.647 38.778,22.607 C38.769,22.535 40.429,22.273 41.292,22.282 C43.192,21.972 44.492,20.165 44.182,18.265 C43.838,16.76 42.755,15.642 40.164,15.375" id="Fill-252" fill="#D7CC56" sketch:type="MSShapeGroup"></path>
            <path d="M8.793,33.001 C6.489,34.2 4.532,35.971 3.107,38.142 C1.939,40.266 2.016,41.863 2.859,43.084 C4.15,44.512 6.374,44.624 7.801,43.333 C8.357,42.623 9.653,41.443 9.706,41.497 C10.438,42.247 11.945,43.978 11.929,45.496 C11.929,45.496 11.866,47.111 13.385,46.788 C13.471,46.77 13.551,46.725 13.617,46.666 L16.301,44.239 C16.366,44.179 16.419,44.104 16.446,44.02 C16.92,42.541 15.307,42.442 15.307,42.442 C13.794,42.306 12.224,40.632 11.551,39.829 C11.504,39.773 12.756,38.653 13.487,38.192 C14.914,36.902 15.026,34.677 13.735,33.25 C12.63,32.172 11.114,31.82 8.793,33.001" id="Fill-253" fill="#D7CC56" sketch:type="MSShapeGroup"></path>
            <path d="M22.969,20.819 C25.373,21.801 27.486,23.382 29.104,25.413 C30.464,27.42 30.535,29.017 29.808,30.311 C28.655,31.852 26.451,32.169 24.91,31.016 C24.292,30.359 22.891,29.304 22.844,29.363 C22.184,30.177 20.843,32.04 21,33.55 C21,33.55 21.212,35.153 19.67,34.971 C19.582,34.961 19.498,34.924 19.427,34.871 L16.531,32.702 C16.46,32.649 16.4,32.579 16.366,32.497 C15.757,31.069 17.354,30.821 17.354,30.821 C18.848,30.546 20.257,28.734 20.853,27.873 C20.894,27.812 19.544,26.813 18.774,26.422 C17.234,25.268 16.917,23.064 18.07,21.523 C19.072,20.348 20.549,19.858 22.969,20.819" id="Fill-254" fill="#D7CC56" sketch:type="MSShapeGroup"></path>
            <path d="M1.622,20.331 C3.246,18.999 5.184,18.106 7.251,17.737 C9.201,17.542 10.364,18.106 11.005,19.121 C11.656,20.535 11.033,22.224 9.62,22.875 C8.916,23.063 7.626,23.652 7.65,23.709 C7.975,24.491 8.783,26.162 9.918,26.632 C9.918,26.632 11.138,27.098 10.416,28.124 C10.375,28.183 10.316,28.228 10.251,28.258 L9.453,28.626 L8.392,29.115 L7.594,29.483 C7.529,29.513 7.456,29.528 7.385,29.522 C6.135,29.405 6.573,28.173 6.573,28.173 C6.953,27.005 6.207,25.306 5.823,24.551 C5.797,24.498 4.566,25.074 3.992,25.47 C2.578,26.122 0.889,25.499 0.238,24.085 C-0.213,22.921 0.007,21.682 1.622,20.331" id="Fill-255" fill="#F9EB80" sketch:type="MSShapeGroup"></path>
            <path d="M32.831,33.448 C34.917,33.691 36.905,34.465 38.607,35.696 C40.101,36.964 40.503,38.192 40.217,39.358 C39.653,40.809 38.005,41.533 36.554,40.969 C35.93,40.592 34.611,40.074 34.586,40.13 C34.249,40.907 33.609,42.649 34.058,43.792 C34.058,43.792 34.57,44.994 33.33,45.187 C33.259,45.198 33.186,45.187 33.119,45.161 L32.3,44.842 L31.212,44.419 L30.393,44.1 C30.326,44.074 30.265,44.032 30.22,43.976 C29.436,42.995 30.626,42.456 30.626,42.456 C31.73,41.918 32.435,40.201 32.712,39.401 C32.732,39.345 31.463,38.859 30.779,38.721 C29.328,38.157 28.604,36.509 29.168,35.058 C29.693,33.925 30.738,33.223 32.831,33.448" id="Fill-256" fill="#F9EB80" sketch:type="MSShapeGroup"></path>
        </g>
    </g>
</svg>