<?xml version="1.0" encoding="UTF-8" standalone="no"?>
<svg width="34px" height="46px" viewBox="0 0 34 46" version="1.1" xmlns="http://www.w3.org/2000/svg" xmlns:xlink="http://www.w3.org/1999/xlink" xmlns:sketch="http://www.bohemiancoding.com/sketch/ns">
    <!-- Generator: Sketch 3.2.2 (9983) - http://www.bohemiancoding.com/sketch -->
    <title>74 - Mustard (Flat)</title>
    <desc>Created with Sketch.</desc>
    <defs></defs>
    <g id="Page-1" stroke="none" stroke-width="1" fill="none" fill-rule="evenodd" sketch:type="MSPage">
        <g id="Icons" sketch:type="MSArtboardGroup" transform="translate(-855.000000, -2165.000000)">
            <g id="74---Mustard-(Flat)" sketch:type="MSLayerGroup" transform="translate(855.000000, 2165.000000)">
                <path d="M27,6.422 L27,6 C28.1,6 29,5.1 29,4 L29,2 C29,0.9 28.1,0 27,0 L6,0 C4.9,0 4,0.9 4,2 L4,4 C4,5.1 4.9,6 6,6 L7,6 L7,6.422 C7,10.312 0,8.25 0,15.422 L0,37.617 C0,42.246 3.753,46 8.383,46 L25.617,46 C30.247,46 34,42.246 34,37.617 L34,15.422 C34,8.25 27,10.312 27,6.422" id="Fill-813" fill="#F9DA49" sketch:type="MSShapeGroup"></path>
                <path d="M27,0 L6,0 C4.9,0 4,0.9 4,2 L4,4 C4,5.1 4.9,6 6,6 L27,6 C28.1,6 29,5.1 29,4 L29,2 C29,0.9 28.1,0 27,0" id="Fill-814" fill="#38454F" sketch:type="MSShapeGroup"></path>
                <path d="M0,17 L34,17 L34,38 L0,38 L0,17 Z" id="Fill-815" fill="#F9EB80" sketch:type="MSShapeGroup"></path>
                <path d="M12.5,34 C8.91,34 6,31.09 6,27.5 C6,23.91 8.91,21 12.5,21 M21.5,21 C25.09,21 28,23.91 28,27.5 C28,31.09 25.09,34 21.5,34" id="Stroke-816" stroke="#DC9628" stroke-width="2" stroke-linecap="round" sketch:type="MSShapeGroup"></path>
            </g>
        </g>
    </g>
</svg>