<?xml version="1.0" encoding="UTF-8" standalone="no"?>
<svg width="47px" height="58px" viewBox="0 0 47 58" version="1.1" xmlns="http://www.w3.org/2000/svg" xmlns:xlink="http://www.w3.org/1999/xlink" xmlns:sketch="http://www.bohemiancoding.com/sketch/ns">
    <!-- Generator: Sketch 3.2.2 (9983) - http://www.bohemiancoding.com/sketch -->
    <title>14 - Octopus (Flat)</title>
    <desc>Created with Sketch.</desc>
    <defs></defs>
    <g id="Page-1" stroke="none" stroke-width="1" fill="none" fill-rule="evenodd" sketch:type="MSPage">
        <g id="14---Octopus-(Flat)" sketch:type="MSLayerGroup">
            <path d="M46.045,46.796 C46.045,52.43 44.064,55 41.62,55 C39.176,55 37.195,52.43 37.195,46.796 C37.195,41.161 41.581,35 44.025,35 C46.469,35 46.045,41.161 46.045,46.796" id="Fill-1901" fill="#D75A4A" sketch:type="MSShapeGroup"></path>
            <path d="M23.717,57.256 C26.823,58.266 29.614,58.245 29.951,57.21 L30.967,54.085 C31.303,53.05 29.058,51.392 25.952,50.382 C22.846,49.372 20.055,49.393 19.718,50.428 L18.702,53.552 C18.366,54.588 20.611,56.246 23.717,57.256" id="Fill-1902" fill="#D75A4A" sketch:type="MSShapeGroup"></path>
            <path d="M3.622,43.62 C5.404,46.007 7.495,47.461 8.29,46.867 L10.692,45.074 C11.488,44.48 10.688,42.063 8.906,39.675 C7.123,37.288 5.033,35.834 4.238,36.428 L1.836,38.221 C1.04,38.815 1.84,41.232 3.622,43.62" id="Fill-1903" fill="#D75A4A" sketch:type="MSShapeGroup"></path>
            <path d="M22.366,32.599 C20.061,30.71 17.682,29.803 17.053,30.571 L15.154,32.89 C14.525,33.658 15.883,35.811 18.188,37.699 C20.493,39.587 22.871,40.495 23.501,39.727 L25.4,37.408 C26.029,36.64 24.671,34.486 22.366,32.599" id="Fill-1904" fill="#D75A4A" sketch:type="MSShapeGroup"></path>
            <path d="M0.42,22.096 C0.128,25.061 0.693,27.544 1.681,27.641 L4.663,27.935 C5.652,28.033 6.69,25.708 6.982,22.743 C7.274,19.778 6.71,17.295 5.722,17.198 L2.739,16.904 C1.751,16.807 0.713,19.131 0.42,22.096" id="Fill-1905" fill="#D75A4A" sketch:type="MSShapeGroup"></path>
            <path d="M37.195,46.796 C37.195,41.976 41.051,35.974 43,35.204 C36.531,36.527 29.081,39.176 25.188,37.667 L23.501,39.727 C22.871,40.495 20.493,39.587 18.188,37.699 C15.883,35.811 14.524,33.658 15.154,32.89 L16.91,30.745 C11.166,21.628 12.431,7.46 13.576,1.324 C13.722,0.54 12.821,0.035 12.314,0.619 C8.969,4.481 5.872,10.455 4.234,17.051 L5.722,17.198 C6.71,17.295 7.274,19.778 6.982,22.743 C6.69,25.708 5.652,28.033 4.663,27.935 L3.037,27.775 C3.138,30.685 3.62,33.567 4.577,36.305 C5.53,36.198 7.336,37.573 8.906,39.675 C10.688,42.063 11.488,44.48 10.692,45.074 L10.271,45.389 C12.632,47.732 15.641,49.766 19.419,51.348 L19.718,50.428 C20.055,49.393 22.846,49.372 25.952,50.382 C29.058,51.392 31.303,53.05 30.967,54.085 L30.881,54.348 C34.116,54.796 37.686,55.025 41.62,55 C39.176,55 37.195,52.43 37.195,46.796" id="Fill-1906" fill="#ED7161" sketch:type="MSShapeGroup"></path>
            <path d="M21.402,53 C23.703,53.158 26.041,53.689 28,54.952 M5.039,39.562 C6.319,40.87 7.327,42.472 8.09,44.131 M21.683,36.694 C20.303,35.777 19.079,34.608 18.027,33.332 M4.183,19.81 C4.298,21.653 3.968,23.538 3.437,25.3" id="Stroke-1907" stroke="#E87474" stroke-width="2" stroke-linecap="round" sketch:type="MSShapeGroup"></path>
        </g>
    </g>
</svg>