<?xml version="1.0" encoding="UTF-8" standalone="no"?>
<svg width="54px" height="52px" viewBox="0 0 54 52" version="1.1" xmlns="http://www.w3.org/2000/svg" xmlns:xlink="http://www.w3.org/1999/xlink" xmlns:sketch="http://www.bohemiancoding.com/sketch/ns">
    <!-- Generator: Sketch 3.2.2 (9983) - http://www.bohemiancoding.com/sketch -->
    <title>3 - Olio Jug (Flat)</title>
    <desc>Created with Sketch.</desc>
    <defs></defs>
    <g id="Page-1" stroke="none" stroke-width="1" fill="none" fill-rule="evenodd" sketch:type="MSPage">
        <g id="3---Olio-Jug-(Flat)" sketch:type="MSLayerGroup" transform="translate(1.000000, 1.000000)">
            <path d="M52,26.023 L52,30.023 M52,34.023 L52,36.023 M52,40.023 L52,41.023" id="Stroke-2269" stroke="#F9D70B" stroke-width="2" stroke-linecap="round" sketch:type="MSShapeGroup"></path>
            <path d="M49.61,21.565 L51.731,19.443 L35.696,3.408 C31.648,-0.64 25.106,-1.185 20.697,2.466 C15.637,6.655 15.375,14.2 19.911,18.737 L22.74,21.565 L22.347,21.958 C16.415,18.596 8.686,19.581 3.828,24.948 C-1.287,30.597 -1.274,39.448 3.856,45.084 C9.661,51.459 19.541,51.634 25.568,45.606 C30.445,40.73 31.247,33.336 28.003,27.615 L34.105,21.513 C38.326,17.293 45.184,17.202 49.435,21.392 C49.493,21.449 49.552,21.506 49.61,21.565 L49.61,21.565 Z M27.411,19.722 C27.174,19.959 26.791,19.959 26.554,19.722 L22.74,15.908 C19.796,12.964 20.027,8.03 23.433,5.399 C26.248,3.224 30.296,3.665 32.812,6.181 L36.453,9.823 C36.69,10.059 36.69,10.443 36.453,10.68 L27.411,19.722 L27.411,19.722 Z" id="Fill-2270" fill="#DAE7EF" sketch:type="MSShapeGroup"></path>
            <path d="M49.61,21.565 L51.731,19.443 L35.696,3.408 C31.648,-0.64 25.106,-1.185 20.697,2.466 C15.637,6.655 15.375,14.2 19.911,18.737 L22.74,21.565 L22.347,21.958 C16.415,18.596 8.686,19.581 3.828,24.948 C-1.287,30.597 -1.274,39.448 3.856,45.084 C9.661,51.459 19.541,51.634 25.568,45.606 C30.445,40.73 31.247,33.336 28.003,27.615 L34.105,21.513 C38.326,17.293 45.184,17.202 49.435,21.392 C49.493,21.449 49.552,21.506 49.61,21.565 L49.61,21.565 Z M27.411,19.722 C27.174,19.959 26.791,19.959 26.554,19.722 L22.74,15.908 C19.796,12.964 20.027,8.03 23.433,5.399 C26.248,3.224 30.296,3.665 32.812,6.181 L36.453,9.823 C36.69,10.059 36.69,10.443 36.453,10.68 L27.411,19.722 L27.411,19.722 Z" id="Stroke-2271" stroke="#BBD7EB" sketch:type="MSShapeGroup"></path>
            <path d="M13.548,44.793 C10.743,44.793 8.106,43.701 6.123,41.718 C5.732,41.327 5.732,40.694 6.123,40.303 C6.514,39.913 7.146,39.913 7.537,40.303 C10.852,43.619 16.243,43.617 19.558,40.303 C19.948,39.913 20.581,39.913 20.972,40.303 C21.362,40.694 21.362,41.327 20.972,41.718 C18.988,43.701 16.352,44.793 13.548,44.793" id="Fill-2288" fill="#FFFFFF" sketch:type="MSShapeGroup"></path>
        </g>
    </g>
</svg>