<?xml version="1.0" encoding="UTF-8" standalone="no"?>
<svg width="55px" height="48px" viewBox="0 0 55 48" version="1.1" xmlns="http://www.w3.org/2000/svg" xmlns:xlink="http://www.w3.org/1999/xlink" xmlns:sketch="http://www.bohemiancoding.com/sketch/ns">
    <!-- Generator: Sketch 3.2.2 (9983) - http://www.bohemiancoding.com/sketch -->
    <title>204 - Olives (Flat)</title>
    <desc>Created with Sketch.</desc>
    <defs></defs>
    <g id="Page-1" stroke="none" stroke-width="1" fill="none" fill-rule="evenodd" sketch:type="MSPage">
        <g id="204---Olives-(Flat)" sketch:type="MSLayerGroup">
            <path d="M40.604,0.433 C33.081,0.433 26.981,6.532 26.981,14.056 C26.981,16.299 27.533,18.409 28.493,20.275 C29.989,19.71 31.603,19.387 33.297,19.387 C38.578,19.387 43.147,22.398 45.408,26.792 C50.558,24.847 54.227,19.886 54.227,14.056 C54.227,6.532 48.128,0.433 40.604,0.433" id="Fill-154" fill="#436B1C" sketch:type="MSShapeGroup"></path>
            <path d="M41.227,8.833 C39.571,8.833 38.227,7.893 38.227,6.733 C38.227,5.573 39.571,4.633 41.227,4.633 C42.884,4.633 44.227,5.573 44.227,6.733" id="Fill-155" fill="#D13834" sketch:type="MSShapeGroup"></path>
            <path d="M41.227,8.833 C39.571,8.833 38.227,7.893 38.227,6.733 C38.227,5.573 39.571,4.633 41.227,4.633 C42.884,4.633 44.227,5.573 44.227,6.733" id="Stroke-156" stroke="#659C35" stroke-width="2" stroke-linecap="round" stroke-linejoin="round" sketch:type="MSShapeGroup"></path>
            <path d="M19.674,33.01 C19.674,27.358 23.116,22.511 28.018,20.449 C27.092,13.827 21.42,8.725 14.543,8.725 C7.019,8.725 0.92,14.824 0.92,22.348 C0.92,29.872 7.019,35.972 14.543,35.972 C16.415,35.972 18.198,35.593 19.821,34.91 C19.734,34.287 19.674,33.656 19.674,33.01" id="Fill-157" fill="#659C35" sketch:type="MSShapeGroup"></path>
            <path d="M15.227,18.233 C13.571,18.233 12.227,17.293 12.227,16.133 C12.227,14.973 13.571,14.033 15.227,14.033 C16.884,14.033 18.227,14.973 18.227,16.133" id="Fill-158" fill="#ED3F32" sketch:type="MSShapeGroup"></path>
            <path d="M15.227,18.233 C13.571,18.233 12.227,17.293 12.227,16.133 C12.227,14.973 13.571,14.033 15.227,14.033 C16.884,14.033 18.227,14.973 18.227,16.133" id="Stroke-159" stroke="#436B1C" stroke-width="2" stroke-linecap="round" stroke-linejoin="round" sketch:type="MSShapeGroup"></path>
            <path d="M47.87,33.01 C47.87,40.948 41.435,47.383 33.497,47.383 C25.559,47.383 19.124,40.948 19.124,33.01 C19.124,25.072 25.559,18.637 33.497,18.637 C41.435,18.637 47.87,25.072 47.87,33.01" id="Fill-160" fill="#88C057" sketch:type="MSShapeGroup"></path>
            <path d="M24.531,36.471 C24.167,35.44 23.981,34.349 23.981,33.256 M33.604,42.879 C30.835,42.88 28.16,41.658 26.342,39.57" id="Stroke-161" stroke="#A4E869" stroke-width="2" stroke-linecap="round" sketch:type="MSShapeGroup"></path>
            <path d="M34.227,27.833 C32.571,27.833 31.227,26.893 31.227,25.733 C31.227,24.573 32.571,23.633 34.227,23.633 C35.884,23.633 37.227,24.573 37.227,25.733" id="Fill-162" fill="#ED3F32" sketch:type="MSShapeGroup"></path>
            <path d="M34.227,27.833 C32.571,27.833 31.227,26.893 31.227,25.733 C31.227,24.573 32.571,23.633 34.227,23.633 C35.884,23.633 37.227,24.573 37.227,25.733" id="Stroke-163" stroke="#659C35" stroke-width="2" stroke-linecap="round" stroke-linejoin="round" sketch:type="MSShapeGroup"></path>
        </g>
    </g>
</svg>