<?xml version="1.0" encoding="UTF-8" standalone="no"?>
<svg width="44px" height="57px" viewBox="0 0 44 57" version="1.1" xmlns="http://www.w3.org/2000/svg" xmlns:xlink="http://www.w3.org/1999/xlink" xmlns:sketch="http://www.bohemiancoding.com/sketch/ns">
    <!-- Generator: Sketch 3.2.2 (9983) - http://www.bohemiancoding.com/sketch -->
    <title>201 - Onion (Flat)</title>
    <desc>Created with Sketch.</desc>
    <defs></defs>
    <g id="Page-1" stroke="none" stroke-width="1" fill="none" fill-rule="evenodd" sketch:type="MSPage">
        <g id="201---Onion-(Flat)" sketch:type="MSLayerGroup">
            <path d="M22.228,49.633 L18.027,53.833 M22.228,49.633 L22.228,55.233 M22.228,49.633 L26.427,53.833 M22.228,49.633 L29.228,51.033 M22.228,49.633 L15.228,50.8" id="Stroke-181" stroke="#A5A5A5" stroke-width="2" stroke-linecap="round" sketch:type="MSShapeGroup"></path>
            <path d="M23.228,6.709 L23.228,0.633 L19.228,2.633 L19.228,6.79 C8.296,8.058 -0.139,17.512 0.24,28.869 C0.605,39.826 9.406,48.907 20.348,49.59 C32.847,50.37 43.228,40.464 43.228,28.133 C43.228,16.765 34.399,7.482 23.228,6.709" id="Fill-182" fill="#E9D3EB" sketch:type="MSShapeGroup"></path>
            <path d="M9.164,18.633 C2.12,32.133 11.819,46.44 22.228,49.836 M35.291,18.633 C42.335,32.133 32.636,46.44 22.228,49.836 M15.547,16.633 C11.675,29.7 17.006,46.549 22.727,49.836 M28.908,16.633 C32.78,29.7 27.449,46.549 21.728,49.836 M22.228,49.633 L22.228,12.633" id="Stroke-183" stroke="#9777A8" stroke-width="2" stroke-linecap="round" stroke-linejoin="round" sketch:type="MSShapeGroup"></path>
        </g>
    </g>
</svg>