<?xml version="1.0" encoding="UTF-8" standalone="no"?>
<svg width="54px" height="46px" viewBox="0 0 54 46" version="1.1" xmlns="http://www.w3.org/2000/svg" xmlns:xlink="http://www.w3.org/1999/xlink" xmlns:sketch="http://www.bohemiancoding.com/sketch/ns">
    <!-- Generator: Sketch 3.2.2 (9983) - http://www.bohemiancoding.com/sketch -->
    <title>164 - Ornating Knife (Flat)</title>
    <desc>Created with Sketch.</desc>
    <defs></defs>
    <g id="Page-1" stroke="none" stroke-width="1" fill="none" fill-rule="evenodd" sketch:type="MSPage">
        <g id="164---Ornating-Knife-(Flat)" sketch:type="MSLayerGroup">
            <path d="M28.391,28.039 L25.822,25.47 C25.359,25.008 25.359,24.258 25.822,23.796 L48.618,1 C49.785,-0.167 51.694,-0.167 52.861,1 C54.028,2.167 54.028,4.076 52.861,5.242 L30.064,28.039 C29.602,28.501 28.853,28.501 28.391,28.039" id="Fill-707" fill="#546A79" sketch:type="MSShapeGroup"></path>
            <path d="M35.987,29.957 L23.895,17.866 C23.526,17.497 22.928,17.496 22.557,17.864 L0.067,40.198 C7.487,47.618 19.517,47.618 26.937,40.198 L35.981,31.303 C36.357,30.934 36.359,30.33 35.987,29.957" id="Fill-708" fill="#FAF6E5" sketch:type="MSShapeGroup"></path>
            <path d="M45.277,12.826 L46.857,11.246 L40.493,9.125 L38.912,10.705 L45.277,12.826" id="Fill-709" fill="#7092A0" sketch:type="MSShapeGroup"></path>
            <path d="M42.312,15.792 L43.892,14.211 L37.528,12.09 L35.948,13.67 L42.312,15.792" id="Fill-710" fill="#7092A0" sketch:type="MSShapeGroup"></path>
        </g>
    </g>
</svg>