<?xml version="1.0" encoding="UTF-8" standalone="no"?>
<svg width="57px" height="50px" viewBox="0 0 57 50" version="1.1" xmlns="http://www.w3.org/2000/svg" xmlns:xlink="http://www.w3.org/1999/xlink" xmlns:sketch="http://www.bohemiancoding.com/sketch/ns">
    <!-- Generator: Sketch 3.2.2 (9983) - http://www.bohemiancoding.com/sketch -->
    <title>115 - Pancakes (Flat)</title>
    <desc>Created with Sketch.</desc>
    <defs></defs>
    <g id="Page-1" stroke="none" stroke-width="1" fill="none" fill-rule="evenodd" sketch:type="MSPage">
        <g id="115---Pancakes-(Flat)" sketch:type="MSLayerGroup" transform="translate(0.000000, 1.000000)">
            <path d="M31.873,9.533 C30.332,11.074 26.769,11.36 25.894,10.463 C25.086,9.655 25.283,6.026 26.824,4.485 C28.365,2.944 30.199,3.077 31.74,4.618 C33.281,6.159 33.413,7.993 31.873,9.533" id="Fill-2129" fill="#D75A4A" sketch:type="MSShapeGroup"></path>
            <path d="M8,46.156 L49,46.156 L49,48.97 L8,48.97 L8,46.156 Z" id="Fill-2130" fill="#C9C9C9" sketch:type="MSShapeGroup"></path>
            <path d="M51.889,46.156 L5,46.156 C4.831,46.156 4.669,46.089 4.55,45.969 L0.822,41.055 C0.422,40.655 0.705,39.969 1.272,39.969 L56.363,39.969 C56.958,39.969 57.227,40.713 56.77,41.094 L52.296,46.008 C52.182,46.104 52.038,46.156 51.889,46.156" id="Fill-2131" fill="#E6E6E6" sketch:type="MSShapeGroup"></path>
            <path d="M21,30.969 C19.343,30.969 18,32.313 18,33.969 C18,35.626 19.343,36.969 21,36.969 C22.657,36.969 24,35.626 24,33.969 C24,32.313 22.657,30.969 21,30.969 L21,30.969 Z M21,30.969 C19.343,30.969 18,32.313 18,33.969 C18,35.626 19.343,36.969 21,36.969 C22.657,36.969 24,35.626 24,33.969 C24,32.313 22.657,30.969 21,30.969 L21,30.969 Z" id="Stroke-2132" stroke="#231F1F" stroke-width="2" sketch:type="MSShapeGroup"></path>
            <path d="M18,23.969 L18,19.969 L8.5,19.969 C7.125,19.969 6,21.094 6,22.469 C6,23.844 7.125,24.969 8.5,24.969 L18.185,24.969 C18.073,24.655 18,24.322 18,23.969" id="Fill-2133" fill="#EEAF4B" sketch:type="MSShapeGroup"></path>
            <path d="M49.5,19.969 L29.815,19.969 C29.399,21.129 28.298,21.969 27,21.969 C25.702,21.969 24.601,21.129 24.185,19.969 L24,19.969 L24,23.969 C24,24.322 23.927,24.655 23.815,24.969 L49.5,24.969 C50.875,24.969 52,23.844 52,22.469 C52,21.094 50.875,19.969 49.5,19.969" id="Fill-2134" fill="#EEAF4B" sketch:type="MSShapeGroup"></path>
            <path d="M18,15.969 C18,17.619 16.65,18.969 15,18.969 C13.35,18.969 12,17.619 12,15.969 L12,14.969 L8.5,14.969 C7.125,14.969 6,16.094 6,17.469 C6,18.844 7.125,19.969 8.5,19.969 L18,19.969 L18,15.969" id="Fill-2135" fill="#FBD490" sketch:type="MSShapeGroup"></path>
            <path d="M49.5,14.969 L30,14.969 L30,18.969 C30,19.322 29.927,19.655 29.815,19.969 L49.5,19.969 C50.875,19.969 52,18.844 52,17.469 C52,16.094 50.875,14.969 49.5,14.969" id="Fill-2136" fill="#FBD490" sketch:type="MSShapeGroup"></path>
            <path d="M49.5,24.969 L23.815,24.969 C23.399,26.129 22.298,26.969 21,26.969 C19.702,26.969 18.601,26.129 18.185,24.969 L8.5,24.969 C7.125,24.969 6,26.094 6,27.469 C6,28.844 7.125,29.969 8.5,29.969 L49.5,29.969 C50.875,29.969 52,28.844 52,27.469 C52,26.094 50.875,24.969 49.5,24.969" id="Fill-2137" fill="#FBD490" sketch:type="MSShapeGroup"></path>
            <path d="M49.5,29.969 L8.5,29.969 C7.125,29.969 6,31.094 6,32.469 C6,33.844 7.125,34.969 8.5,34.969 L18.184,34.969 C18.072,34.655 18,34.322 18,33.969 C18,32.313 19.343,30.969 21,30.969 C22.657,30.969 24,32.313 24,33.969 C24,34.322 23.928,34.655 23.816,34.969 L49.5,34.969 C50.875,34.969 52,33.844 52,32.469 C52,31.094 50.875,29.969 49.5,29.969" id="Fill-2138" fill="#EEAF4B" sketch:type="MSShapeGroup"></path>
            <path d="M49.5,34.969 L23.816,34.969 C23.403,36.132 22.304,36.969 21,36.969 C19.696,36.969 18.597,36.132 18.184,34.969 L8.5,34.969 C7.125,34.969 6,36.094 6,37.469 C6,38.844 7.125,39.969 8.5,39.969 L49.5,39.969 C50.875,39.969 52,38.844 52,37.469 C52,36.094 50.875,34.969 49.5,34.969" id="Fill-2139" fill="#FBD490" sketch:type="MSShapeGroup"></path>
            <path d="M51,10.969 L7,10.969 L7,14.969 L12,14.969 L12,15.969 C12,17.619 13.35,18.969 15,18.969 C16.65,18.969 18,17.619 18,15.969 L18,23.969 C18,25.619 19.35,26.969 21,26.969 C22.65,26.969 24,25.619 24,23.969 L24,18.969 C24,20.619 25.35,21.969 27,21.969 C28.65,21.969 30,20.619 30,18.969 L30,14.969 L51,14.969 L51,10.969" id="Fill-2140" fill="#7A3726" sketch:type="MSShapeGroup"></path>
            <path d="M32.097,4.903 C33.452,3.548 35.645,3.548 37,4.903" id="Stroke-2141" stroke="#88C057" stroke-width="2" stroke-linecap="round" sketch:type="MSShapeGroup"></path>
            <path d="M31.948,0 C33.303,1.355 33.303,3.548 31.948,4.903" id="Stroke-2142" stroke="#659C35" stroke-width="2" stroke-linecap="round" sketch:type="MSShapeGroup"></path>
            <path d="M24,33.969 C24,35.626 22.657,36.969 21,36.969 C19.343,36.969 18,35.626 18,33.969 C18,32.313 19.343,30.969 21,30.969 C22.657,30.969 24,32.313 24,33.969" id="Fill-2143" fill="#7A3726" sketch:type="MSShapeGroup"></path>
        </g>
    </g>
</svg>