<?xml version="1.0" encoding="UTF-8" standalone="no"?>
<svg width="58px" height="59px" viewBox="0 0 58 59" version="1.1" xmlns="http://www.w3.org/2000/svg" xmlns:xlink="http://www.w3.org/1999/xlink" xmlns:sketch="http://www.bohemiancoding.com/sketch/ns">
    <!-- Generator: Sketch 3.2.2 (9983) - http://www.bohemiancoding.com/sketch -->
    <title>62 - Pasta (Flat)</title>
    <desc>Created with Sketch.</desc>
    <defs></defs>
    <g id="Page-1" stroke="none" stroke-width="1" fill="none" fill-rule="evenodd" sketch:type="MSPage">
        <g id="62---Pasta-(Flat)" sketch:type="MSLayerGroup">
            <path d="M25.247,13.565 L24.336,15.387 C23.066,17.927 21.395,20.245 19.387,22.253 L5.212,36.428 L0.018,38.794 C-0.229,40.858 2.157,43.411 4.132,43.408 C4.364,43.408 4.574,43.613 4.574,43.846 C4.567,45.669 5.856,46.958 7.679,46.951 C7.936,46.95 8.118,47.131 8.116,47.388 C8.11,49.211 9.399,50.501 11.222,50.494 C11.479,50.493 11.66,50.674 11.66,50.931 C11.653,52.754 12.942,54.044 14.765,54.037 C14.997,54.036 15.203,54.246 15.202,54.479 C15.199,56.453 17.753,58.84 19.817,58.593 L22.153,53.428 L36.357,39.224 C38.365,37.216 40.683,35.545 43.223,34.275 L45.046,33.364 L25.247,13.565" id="Fill-1195" fill="#516572" sketch:type="MSShapeGroup"></path>
            <path d="M28.075,13.565 L40,2 M45.046,30.535 L56,19" id="Stroke-1196" stroke="#EEAF4B" stroke-width="2" sketch:type="MSShapeGroup"></path>
            <path d="M30.196,15.686 L45.046,0.837" id="Stroke-1197" stroke="#F9EB80" stroke-width="2" sketch:type="MSShapeGroup"></path>
            <path d="M32.318,17.807 L49.288,0.837" id="Stroke-1198" stroke="#EEAF4B" stroke-width="2" sketch:type="MSShapeGroup"></path>
            <path d="M34.439,19.929 L52.117,2.251" id="Stroke-1199" stroke="#F9EB80" stroke-width="2" sketch:type="MSShapeGroup"></path>
            <path d="M36.56,22.05 L54.238,4.372" id="Stroke-1200" stroke="#EEAF4B" stroke-width="2" sketch:type="MSShapeGroup"></path>
            <path d="M38.682,24.172 L55.652,7.201" id="Stroke-1201" stroke="#F9EB80" stroke-width="2" sketch:type="MSShapeGroup"></path>
            <path d="M40.803,26.293 L57.066,10.029" id="Stroke-1202" stroke="#EEAF4B" stroke-width="2" sketch:type="MSShapeGroup"></path>
            <path d="M42.924,28.414 L57,14" id="Stroke-1203" stroke="#F9EB80" stroke-width="2" sketch:type="MSShapeGroup"></path>
            <path d="M25.212,33.5 L23.267,34.037 C20.986,34.377 19.195,36.168 18.856,38.449 L18.319,40.393 L20.263,39.856 C22.544,39.516 24.335,37.725 24.675,35.444 L25.212,33.5" id="Fill-1204" fill="#F1B501" sketch:type="MSShapeGroup"></path>
            <path d="M17.025,30.009 L16.03,31.764 C14.657,33.617 14.657,36.15 16.03,38.003 L17.025,39.758 L18.02,38.003 C19.393,36.15 19.393,33.617 18.02,31.764 L17.025,30.009" id="Fill-1205" fill="#F1B501" sketch:type="MSShapeGroup"></path>
            <path d="M28.707,42.025 L26.952,41.029 C25.099,39.657 22.566,39.657 20.713,41.029 L18.958,42.025 L20.713,43.02 C22.566,44.393 25.099,44.393 26.952,43.02 L28.707,42.025" id="Fill-1206" fill="#F1B501" sketch:type="MSShapeGroup"></path>
            <path d="M20.297,29.828 L23.806,26.319 M23.642,30.726 L28.028,26.339 M28.227,34.626 L32.613,30.24 M28.29,30.303 L32.238,26.355 M28.782,38.314 L32.291,34.805" id="Stroke-1207" stroke="#F1B501" stroke-width="2" stroke-linecap="round" sketch:type="MSShapeGroup"></path>
            <path d="M6.978,37.49 L5.564,38.904 M9.099,39.612 L7.685,41.026 M11.221,41.733 L9.807,43.147 M13.342,43.854 L11.928,45.268 M15.463,45.975 L14.049,47.39 M17.585,48.097 L16.171,49.511 M19.706,50.218 L18.292,51.633 M21.827,52.339 L20.413,53.754" id="Stroke-1208" stroke="#F4C44E" stroke-width="2" sketch:type="MSShapeGroup"></path>
        </g>
    </g>
</svg>