<?xml version="1.0" encoding="UTF-8" standalone="no"?>
<svg width="48px" height="56px" viewBox="0 0 48 56" version="1.1" xmlns="http://www.w3.org/2000/svg" xmlns:xlink="http://www.w3.org/1999/xlink" xmlns:sketch="http://www.bohemiancoding.com/sketch/ns">
    <!-- Generator: Sketch 3.2.2 (9983) - http://www.bohemiancoding.com/sketch -->
    <title>220 - Peach (Flat)</title>
    <desc>Created with Sketch.</desc>
    <defs></defs>
    <g id="Page-1" stroke="none" stroke-width="1" fill="none" fill-rule="evenodd" sketch:type="MSPage">
        <g id="220---Peach-(Flat)" sketch:type="MSLayerGroup">
            <path d="M37.188,12.555 C35.41,13.211 33.466,13.463 31.493,13.226 L26.423,12.617 L28.136,8.732 C26.707,8.461 25.235,8.313 23.727,8.313 C10.749,8.313 0.228,18.835 0.228,31.813 C0.228,44.792 10.749,55.313 23.727,55.313 C36.706,55.313 47.227,44.792 47.227,31.813 C47.227,23.843 43.256,16.804 37.188,12.555" id="Fill-123" fill="#E58D51" sketch:type="MSShapeGroup"></path>
            <path d="M6.132,26.339 C5.037,30.068 5.166,34.107 6.452,37.771 M10.326,19.06 C9.341,20.093 8.483,21.245 7.774,22.484" id="Stroke-124" stroke="#FBD490" stroke-width="2" stroke-linecap="round" sketch:type="MSShapeGroup"></path>
            <path d="M36.352,51.63 C38.743,50.103 40.844,48.16 42.541,45.896 C43.35,43.664 43.794,41.293 43.866,38.995 C44.093,31.779 40.798,23.526 32.923,21.356 L32.906,21.419 C32.896,21.414 32.889,21.405 32.879,21.4 C32.783,21.359 30.494,20.406 26.41,20.319 C22.901,20.245 19.863,19.793 18.203,15 C18.018,14.466 17.44,14.185 16.908,14.371 C16.378,14.559 16.099,15.144 16.285,15.679 C18.371,21.702 22.583,22.292 26.367,22.372 C30.002,22.449 32.047,23.275 32.093,23.294 C32.221,23.348 32.354,23.374 32.484,23.374 C32.487,23.374 32.49,23.372 32.493,23.372 C39.221,25.295 42.036,32.554 41.835,38.93 C41.688,43.598 39.918,48.619 36.352,51.63" id="Fill-125" fill="#CE6B29" sketch:type="MSShapeGroup"></path>
            <path d="M27.628,17.633 L26.028,17.633 L25.227,11.633 L28.427,11.633 L27.628,17.633" id="Fill-126" fill="#A46F3E" sketch:type="MSShapeGroup"></path>
            <path d="M46.227,1.33 L41.158,0.721 C35.804,0.078 30.659,3.01 28.483,7.944 L26.423,12.617 L31.493,13.226 C36.847,13.869 41.992,10.937 44.167,6.002 L46.227,1.33" id="Fill-127" fill="#659C35" sketch:type="MSShapeGroup"></path>
            <path d="M26.423,12.617 L28.689,12.889 L38.765,6.477 C39.231,6.181 39.368,5.562 39.071,5.096 C38.775,4.631 38.157,4.493 37.69,4.79 L26.826,11.703 L26.423,12.617" id="Fill-128" fill="#88C057" sketch:type="MSShapeGroup"></path>
        </g>
    </g>
</svg>