<?xml version="1.0" encoding="UTF-8" standalone="no"?>
<svg width="37px" height="59px" viewBox="0 0 37 59" version="1.1" xmlns="http://www.w3.org/2000/svg" xmlns:xlink="http://www.w3.org/1999/xlink" xmlns:sketch="http://www.bohemiancoding.com/sketch/ns">
    <!-- Generator: Sketch 3.2.2 (9983) - http://www.bohemiancoding.com/sketch -->
    <title>218 - Pear (Flat)</title>
    <desc>Created with Sketch.</desc>
    <defs></defs>
    <g id="Page-1" stroke="none" stroke-width="1" fill="none" fill-rule="evenodd" sketch:type="MSPage">
        <g id="218---Pear-(Flat)" sketch:type="MSLayerGroup" transform="translate(0.000000, 1.000000)">
            <path d="M17.974,6.951 C17.464,4.2 16.14,1.115 14.012,0.046" id="Stroke-129" stroke="#659C35" stroke-width="2" stroke-linecap="round" sketch:type="MSShapeGroup"></path>
            <path d="M20.227,8.628 C19.011,9.845 17.173,9.975 16.117,8.919" id="Stroke-130" stroke="#000000" stroke-width="2" stroke-linecap="round" sketch:type="MSShapeGroup"></path>
            <path d="M18.293,4.654 C20.531,4.628 22.735,5.827 23.84,7.918 C24.783,9.702 25.236,11.862 25.833,13.773 C26.676,16.472 27.29,19.248 28.149,21.936 C29.038,24.718 30.664,27.328 32.053,29.882 C33.258,32.1 34.777,34.321 35.556,36.73 C36.569,39.864 36.402,43.336 35.284,46.42 C33.217,52.121 27.961,55.877 22.089,56.877 C20.842,57.09 19.568,57.189 18.293,57.183 L18.228,57.183 C16.952,57.189 15.679,57.09 14.431,56.877 C8.56,55.877 3.304,52.121 1.237,46.42 C0.118,43.336 -0.048,39.864 0.965,36.73 C1.744,34.321 3.263,32.1 4.468,29.882 C5.857,27.328 7.483,24.718 8.372,21.936 C9.23,19.248 9.844,16.472 10.687,13.773 C11.285,11.862 11.738,9.702 12.68,7.918 C13.785,5.827 15.989,4.628 18.228,4.654" id="Fill-131" fill="#D7CC56" sketch:type="MSShapeGroup"></path>
            <path d="M7.262,45.874 C8.343,48.335 10.564,50.022 13.158,50.633 M6.952,37.378 C6.705,38.354 6.536,39.35 6.456,40.354" id="Stroke-132" stroke="#E3E82A" stroke-width="2" stroke-linecap="round" sketch:type="MSShapeGroup"></path>
        </g>
    </g>
</svg>