<?xml version="1.0" encoding="UTF-8" standalone="no"?>
<svg width="45px" height="57px" viewBox="0 0 45 57" version="1.1" xmlns="http://www.w3.org/2000/svg" xmlns:xlink="http://www.w3.org/1999/xlink" xmlns:sketch="http://www.bohemiancoding.com/sketch/ns">
    <!-- Generator: Sketch 3.2.2 (9983) - http://www.bohemiancoding.com/sketch -->
    <title>72 - Pickles (Flat)</title>
    <desc>Created with Sketch.</desc>
    <defs></defs>
    <g id="Page-1" stroke="none" stroke-width="1" fill="none" fill-rule="evenodd" sketch:type="MSPage">
        <g id="Icons" sketch:type="MSArtboardGroup" transform="translate(-1089.000000, -2159.000000)">
            <g id="72---Pickles-(Flat)" sketch:type="MSLayerGroup" transform="translate(1090.000000, 2159.000000)">
                <path d="M36,7.422 L36,7 C37.1,7 38,6.1 38,5 L38,3 C38,1.9 37.1,1 36,1 L6,1 C4.9,1 4,1.9 4,3 L4,5 C4,6.1 4.9,7 6,7 L7,7 L7,7.422 C7,11.312 0,9.25 0,16.422 L0,47.617 C0,52.246 3.753,56 8.383,56 L34.617,56 C39.247,56 43,52.246 43,47.617 L43,16.422 C43,9.25 36,11.312 36,7.422 L36,7.422 Z" id="Fill-1177" fill="#DAE7EF" sketch:type="MSShapeGroup"></path>
                <path d="M36,7.422 L36,7 C37.1,7 38,6.1 38,5 L38,3 C38,1.9 37.1,1 36,1 L6,1 C4.9,1 4,1.9 4,3 L4,5 C4,6.1 4.9,7 6,7 L7,7 L7,7.422 C7,11.312 0,9.25 0,16.422 L0,47.617 C0,52.246 3.753,56 8.383,56 L34.617,56 C39.247,56 43,52.246 43,47.617 L43,16.422 C43,9.25 36,11.312 36,7.422 L36,7.422 Z" id="Stroke-1178" stroke="#BBD7EB" sketch:type="MSShapeGroup"></path>
                <path d="M36.882,0 L5.118,0 C3.953,0 3,0.953 3,2.117 L3,5.882 C3,7.047 3.953,8 5.118,8 L36.882,8 C38.047,8 39,7.047 39,5.882 L39,2.117 C39,0.953 38.047,0 36.882,0" id="Fill-1179" fill="#546A79" sketch:type="MSShapeGroup"></path>
                <path d="M18,46.5 C18,50.09 14.642,53 10.5,53 C6.358,53 3,50.09 3,46.5 C3,42.91 6.358,40 10.5,40 C14.642,40 18,42.91 18,46.5" id="Fill-1180" fill="#88C057" sketch:type="MSShapeGroup"></path>
                <path d="M27,43 C27,45.209 24.985,47 22.5,47 C20.015,47 18,45.209 18,43 C18,40.791 20.015,39 22.5,39 C24.985,39 27,40.791 27,43" id="Fill-1181" fill="#A4E869" sketch:type="MSShapeGroup"></path>
                <path d="M24,50.5 C24,51.88 22.657,53 21,53 C19.343,53 18,51.88 18,50.5 C18,49.119 19.343,48 21,48 C22.657,48 24,49.119 24,50.5" id="Fill-1182" fill="#436B1C" sketch:type="MSShapeGroup"></path>
                <path d="M40,37.571 C40,40.648 37.314,43.143 34,43.143 C30.686,43.143 28,40.648 28,37.571 C28,34.494 30.686,32 34,32 C37.314,32 40,34.494 40,37.571" id="Fill-1183" fill="#88C057" sketch:type="MSShapeGroup"></path>
                <path d="M35,52 L30,52 C27.8,52 26,50.2 26,48 C26,45.8 27.8,44 30,44 L35,44 C37.2,44 39,45.8 39,48 C39,50.2 37.2,52 35,52" id="Fill-1184" fill="#659C35" sketch:type="MSShapeGroup"></path>
                <path d="M40,20.5 C40,26.299 36.866,31 33,31 C29.134,31 26,26.299 26,20.5 C26,14.701 29.134,10 33,10 C36.866,10 40,14.701 40,20.5" id="Fill-1185" fill="#A4E869" sketch:type="MSShapeGroup"></path>
                <path d="M10,28 L10,28 C7.8,28 6,26.2 6,24 L6,17 C6,14.8 7.8,13 10,13 C12.2,13 14,14.8 14,17 L14,24 C14,26.2 12.2,28 10,28" id="Fill-1186" fill="#659C35" sketch:type="MSShapeGroup"></path>
                <path d="M25,23.5 C25,25.985 22.761,28 20,28 C17.239,28 15,25.985 15,23.5 C15,21.014 17.239,19 20,19 C22.761,19 25,21.014 25,23.5" id="Fill-1187" fill="#88C057" sketch:type="MSShapeGroup"></path>
                <path d="M26,14 C26,16.209 24.209,18 22,18 C19.791,18 18,16.209 18,14 C18,11.791 19.791,10 22,10 C24.209,10 26,11.791 26,14" id="Fill-1188" fill="#659C35" sketch:type="MSShapeGroup"></path>
                <path d="M23.286,38.428 L6.714,38.428 C4.121,38.428 2,36.307 2,33.714 C2,31.121 4.121,29 6.714,29 L23.286,29 C25.879,29 28,31.121 28,33.714 C28,36.307 25.879,38.428 23.286,38.428" id="Fill-1189" fill="#436B1C" sketch:type="MSShapeGroup"></path>
            </g>
        </g>
    </g>
</svg>