<?xml version="1.0" encoding="UTF-8" standalone="no"?>
<svg width="49px" height="48px" viewBox="0 0 49 48" version="1.1" xmlns="http://www.w3.org/2000/svg" xmlns:xlink="http://www.w3.org/1999/xlink" xmlns:sketch="http://www.bohemiancoding.com/sketch/ns">
    <!-- Generator: Sketch 3.2.2 (9983) - http://www.bohemiancoding.com/sketch -->
    <title>19 - Piled Dishes (Flat)</title>
    <desc>Created with Sketch.</desc>
    <defs></defs>
    <g id="Page-1" stroke="none" stroke-width="1" fill="none" fill-rule="evenodd" sketch:type="MSPage">
        <g id="19---Piled-Dishes-(Flat)" sketch:type="MSLayerGroup">
            <path d="M8.315,29.267 C6.909,27.646 5.703,25.806 4.776,23.749 C4.776,23.749 4.74,23.669 4.722,23.629 C4.541,23.227 4.567,22.745 4.771,22.203 C2.364,23.071 0.959,24.114 0.959,25.237 C0.959,27.008 4.452,28.581 9.862,29.579 C9.327,29.481 8.81,29.376 8.315,29.267" id="Fill-1829" fill="#D2D5D7" sketch:type="MSShapeGroup"></path>
            <path d="M46.042,5.156 C46.042,5.156 46.006,5.075 45.987,5.035 C45.033,2.918 38.741,3.578 30.697,6.336 C34.522,8.123 37.955,10.036 40.734,11.88 C37.442,14.305 32.859,16.942 27.599,19.312 C20.911,22.325 14.623,24.234 10.317,24.742 C9.803,24.559 9.327,24.369 8.906,24.171 C7.922,22.809 7.105,21.34 6.447,19.805 C4.963,21.367 4.305,22.704 4.722,23.629 C4.74,23.669 4.776,23.749 4.776,23.749 C5.703,25.806 6.909,27.646 8.315,29.267 C12.341,30.156 17.701,30.7 23.59,30.7 C32.375,30.7 39.985,29.49 43.735,27.725 C48.326,21.373 49.492,12.814 46.042,5.156" id="Fill-1830" fill="#FBD490" sketch:type="MSShapeGroup"></path>
            <path d="M43.735,27.725 C39.985,29.49 32.375,30.7 23.59,30.7 C18.421,30.7 13.659,30.281 9.85,29.577 C9.386,29.491 8.942,29.4 8.507,29.306 C8.445,29.292 8.376,29.28 8.315,29.267 C8.314,29.266 8.313,29.264 8.312,29.262 C3.797,28.264 0.959,26.832 0.959,25.237 L0.959,25.369 C0.959,37.868 11.091,48 23.59,48 C36.088,48 46.22,37.868 46.22,25.369 L46.22,25.237 C46.22,24.885 46.077,24.542 45.814,24.209 C45.227,25.436 44.537,26.616 43.735,27.725" id="Fill-1831" fill="#E6E6E6" sketch:type="MSShapeGroup"></path>
            <path d="M46.042,5.156 C46.042,5.156 46.006,5.075 45.987,5.035 C45.832,4.691 45.537,4.421 45.116,4.221 C45.537,4.421 45.832,4.691 45.987,5.035 C47.227,7.786 38.994,14.178 27.599,19.312 C16.205,24.446 5.963,26.379 4.722,23.63 C4.741,23.67 4.776,23.749 4.776,23.749 C5.703,25.806 6.909,27.646 8.315,29.267 C12.341,30.156 17.701,30.7 23.59,30.7 C32.375,30.7 39.985,29.49 43.735,27.725 C48.326,21.373 49.492,12.814 46.042,5.156" id="Fill-1832" fill="#FAF6E5" sketch:type="MSShapeGroup"></path>
            <path d="M10.317,24.742 C14.623,24.234 20.911,22.325 27.599,19.312 C32.859,16.942 37.442,14.305 40.734,11.88 C37.675,9.849 33.828,7.734 29.531,5.798 C18.136,0.664 7.893,-1.269 6.654,1.482 C6.636,1.522 6.6,1.602 6.6,1.602 C3.149,9.26 4.315,17.819 8.906,24.171 C9.327,24.369 9.803,24.559 10.317,24.742" id="Fill-1833" fill="#E6E6E6" sketch:type="MSShapeGroup"></path>
            <path d="M25.043,15.759 C26.877,16.585 28.681,17.327 30.423,17.982 C34.498,15.98 38.047,13.86 40.734,11.88 C37.675,9.849 33.828,7.734 29.531,5.798 C18.136,0.664 7.893,-1.269 6.654,1.482 C5.415,4.232 13.648,10.624 25.043,15.759" id="Fill-1834" fill="#D2D5D7" sketch:type="MSShapeGroup"></path>
        </g>
    </g>
</svg>