<?xml version="1.0" encoding="UTF-8" standalone="no"?>
<svg width="56px" height="51px" viewBox="0 0 56 51" version="1.1" xmlns="http://www.w3.org/2000/svg" xmlns:xlink="http://www.w3.org/1999/xlink" xmlns:sketch="http://www.bohemiancoding.com/sketch/ns">
    <!-- Generator: Sketch 3.2.2 (9983) - http://www.bohemiancoding.com/sketch -->
    <title>36 - Pizza Box (Flat)</title>
    <desc>Created with Sketch.</desc>
    <defs></defs>
    <g id="Page-1" stroke="none" stroke-width="1" fill="none" fill-rule="evenodd" sketch:type="MSPage">
        <g id="36---Pizza-Box-(Flat)" sketch:type="MSLayerGroup">
            <path d="M55.846,43.344 L48.097,23.411 C48.04,23.17 47.825,23 47.577,23 L8.423,23 C8.175,23 7.96,23.17 7.903,23.411 L0.154,43.344 C0.075,43.679 0.33,44 0.674,44 L22.602,44 C22.861,44 23.068,44.19 23.126,44.442 C23.588,46.47 25.583,48 28,48 C30.417,48 32.412,46.47 32.874,44.442 C32.932,44.19 33.139,44 33.398,44 L55.326,44 C55.67,44 55.925,43.679 55.846,43.344" id="Fill-1786" fill="#D8CBAB" sketch:type="MSShapeGroup"></path>
            <path d="M33.429,44 C33.152,44 32.931,44.203 32.867,44.472 C32.392,46.485 30.405,48 28,48 C25.595,48 23.608,46.485 23.133,44.472 C23.069,44.203 22.848,44 22.571,44 L0.253,44 C0.113,44 0,44.113 0,44.253 L0,50.411 C0,50.736 0.264,51 0.589,51 L55.411,51 C55.736,51 56,50.736 56,50.411 L56,44.127 C56,44.057 55.943,44 55.872,44 L33.429,44" id="Fill-1787" fill="#FAF6E5" sketch:type="MSShapeGroup"></path>
            <path d="M9.486,44 L22.571,44 C22.848,44 23.069,44.202 23.133,44.472 C23.608,46.485 25.595,48 28,48 C30.405,48 32.392,46.485 32.867,44.472 C32.931,44.202 33.152,44 33.429,44 L46.514,44 C49.941,41.925 52,37.901 52,35 C52,28.372 41.255,23 28,23 C14.745,23 4,28.372 4,35 C4,37.901 6.059,41.925 9.486,44" id="Fill-1788" fill="#FAF9D2" sketch:type="MSShapeGroup"></path>
            <path d="M53,0 L3,0 L3,3 L25.071,3 C25.025,3.161 25,3.328 25,3.5 C25,4.88 26.567,6 28.5,6 C30.433,6 32,4.88 32,3.5 C32,3.328 31.975,3.161 31.929,3 L53,3 L53,0" id="Fill-1789" fill="#FAF6E5" sketch:type="MSShapeGroup"></path>
            <path d="M31.929,3 C31.975,3.161 32,3.328 32,3.5 C32,4.88 30.433,6 28.5,6 C26.567,6 25,4.88 25,3.5 C25,3.328 25.025,3.161 25.071,3 L3.948,3 L8.493,23 L48.07,23 L53,3 L31.929,3" id="Fill-1790" fill="#E8DFC5" sketch:type="MSShapeGroup"></path>
            <path d="M16,38 C16,39.104 14.657,40 13,40 C11.343,40 10,39.104 10,38 C10,36.895 11.343,36 13,36 C14.657,36 16,36.895 16,38" id="Fill-1791" fill="#CD6E61" sketch:type="MSShapeGroup"></path>
            <path d="M19,30 C19,31.104 17.657,32 16,32 C14.343,32 13,31.104 13,30 C13,28.895 14.343,28 16,28 C17.657,28 19,28.895 19,30" id="Fill-1792" fill="#773F3A" sketch:type="MSShapeGroup"></path>
            <path d="M29,28 C29,29.104 27.657,30 26,30 C24.343,30 23,29.104 23,28 C23,26.895 24.343,26 26,26 C27.657,26 29,26.895 29,28" id="Fill-1793" fill="#CD6E61" sketch:type="MSShapeGroup"></path>
            <path d="M39,29 C39,30.104 37.657,31 36,31 C34.343,31 33,30.104 33,29 C33,27.895 34.343,27 36,27 C37.657,27 39,27.895 39,29" id="Fill-1794" fill="#773F3A" sketch:type="MSShapeGroup"></path>
            <path d="M48,33 C48,34.104 46.657,35 45,35 C43.343,35 42,34.104 42,33 C42,31.895 43.343,31 45,31 C46.657,31 48,31.895 48,33" id="Fill-1795" fill="#CD6E61" sketch:type="MSShapeGroup"></path>
            <path d="M42,39 C42,40.104 40.657,41 39,41 C37.343,41 36,40.104 36,39 C36,37.895 37.343,37 39,37 C40.657,37 42,37.895 42,39" id="Fill-1796" fill="#CD6E61" sketch:type="MSShapeGroup"></path>
            <path d="M31,41 C31,42.104 29.657,43 28,43 C26.343,43 25,42.104 25,41 C25,39.895 26.343,39 28,39 C29.657,39 31,39.895 31,41" id="Fill-1797" fill="#773F3A" sketch:type="MSShapeGroup"></path>
            <path d="M21,38.246 C20.935,38.553 20.635,38.749 20.328,38.684 C20.021,38.62 19.72,38.816 19.655,39.123 C19.591,39.43 19.29,39.626 18.983,39.561 C18.676,39.497 18.375,39.693 18.31,40 M11.69,33.246 C11.625,33.553 11.324,33.749 11.017,33.684 C10.71,33.62 10.409,33.816 10.345,34.123 C10.28,34.43 9.979,34.626 9.672,34.561 C9.365,34.497 9.065,34.693 9,35 M32.759,36.543 C32.459,36.633 32.143,36.463 32.052,36.163 C31.961,35.863 31.645,35.693 31.345,35.783 C31.044,35.874 30.728,35.704 30.638,35.404 C30.547,35.103 30.231,34.934 29.93,35.024 M32.079,28.09 C31.929,28.366 31.585,28.468 31.31,28.318 C31.034,28.168 30.69,28.269 30.54,28.545 C30.39,28.821 30.045,28.922 29.77,28.773 C29.494,28.623 29.15,28.724 29,29 M44,36.025 C43.806,36.271 43.45,36.315 43.203,36.121 C42.956,35.927 42.6,35.971 42.406,36.217 C42.213,36.464 41.856,36.507 41.609,36.314 C41.362,36.12 41.006,36.163 40.812,36.41 M24,33.543 C23.7,33.633 23.383,33.463 23.293,33.163 C23.202,32.863 22.886,32.693 22.585,32.783 C22.285,32.874 21.969,32.704 21.878,32.404 C21.788,32.103 21.471,31.934 21.171,32.024" id="Stroke-1798" stroke="#88C057" stroke-width="2" stroke-linecap="round" sketch:type="MSShapeGroup"></path>
            <path d="M28,23 C14.745,23 4,28.372 4,35 C4,37.901 6.059,41.925 9.486,44 L12.256,44 C11.452,43.429 10.717,42.771 10.084,42 L10.077,42 C7.515,40.221 6,37.117 6,35 C6,32.627 8.159,30.186 11.924,28.303 C16.185,26.173 21.894,25 28,25 C34.106,25 39.815,26.173 44.076,28.303 C47.841,30.186 50,32.627 50,35 C50,37.037 48.588,39.975 46.2,41.78 C46.193,41.79 46.186,41.8 46.179,41.811 C45.854,42.272 45.476,42.786 45.021,43.143 C44.631,43.45 44.247,43.735 43.85,44 L46.514,44 C49.941,41.925 52,37.901 52,35 C52,28.372 41.255,23 28,23" id="Fill-1799" fill="#FBD490" sketch:type="MSShapeGroup"></path>
            <path d="M23.943,10 C25.352,11.408 25.352,13.688 23.943,15.097 C22.535,16.506 22.535,18.786 23.943,20.195 M13.057,10 C14.465,11.408 14.465,13.688 13.057,15.097 C11.648,16.506 11.648,18.786 13.057,20.195 M18.943,7 C20.352,8.408 20.352,10.688 18.943,12.097 C17.535,13.506 17.535,15.786 18.943,17.195" id="Stroke-1800" stroke="#FFFFFF" stroke-width="2" stroke-linecap="round" stroke-linejoin="round" sketch:type="MSShapeGroup"></path>
        </g>
    </g>
</svg>