<?xml version="1.0" encoding="UTF-8" standalone="no"?>
<svg width="54px" height="44px" viewBox="0 0 54 44" version="1.1" xmlns="http://www.w3.org/2000/svg" xmlns:xlink="http://www.w3.org/1999/xlink" xmlns:sketch="http://www.bohemiancoding.com/sketch/ns">
    <!-- Generator: Sketch 3.2.2 (9983) - http://www.bohemiancoding.com/sketch -->
    <title>209 - Potatoes (Flat)</title>
    <desc>Created with Sketch.</desc>
    <defs></defs>
    <g id="Page-1" stroke="none" stroke-width="1" fill="none" fill-rule="evenodd" sketch:type="MSPage">
        <g id="209---Potatoes-(Flat)" sketch:type="MSLayerGroup">
            <path d="M44.509,32.538 C43.381,40.187 33.829,45.114 23.175,43.542 C12.521,41.969 4.799,34.494 5.927,26.845 C6.605,22.25 8.698,19.292 14.166,18.963 C19.435,18.646 26.583,21.806 30.838,22.434 C41.492,24.006 45.638,24.889 44.509,32.538" id="Fill-189" fill="#A46F3E" sketch:type="MSShapeGroup"></path>
            <path d="M52.748,14.132 C50.791,6.652 46.63,7.464 36.211,10.19 C32.051,11.279 24.236,11.171 19.512,13.527 C16.629,14.965 15.184,16.785 14.716,18.952 C19.924,18.867 26.728,21.828 30.838,22.434 C39.885,23.769 44.223,24.623 44.64,29.528 C50.777,25.695 54.204,19.696 52.748,14.132" id="Fill-190" fill="#994530" sketch:type="MSShapeGroup"></path>
            <path d="M14.7242081,19.9503168 C15.2018356,17.6595169 16.6765616,15.7355411 19.6188694,14.2153887 C21.1731999,13.4130274 23.0551339,12.8823483 25.0330016,12.4912104 C21.8824972,9.20988011 18.0104486,4.16948621 14.0159315,2.02985591 C9.04983017,-0.630939277 5.67071768,0.923041226 2.67534011,4.72765063 C-1.73863196,10.3357231 0.00858657938,19.568693 6.37491207,26.6060047 C7.32200249,22.7453674 9.56725996,20.310798 14.4527361,20.0063446 C15.3294071,19.952431 16.2611889,20.0021161 17.2184851,20.115229 C16.3612049,20.0031733 15.5233157,19.9365741 14.7242081,19.9503168" id="Fill-191" fill="#6A3311" sketch:type="MSShapeGroup"></path>
            <path d="M12.228,27.633 L13.228,31.633 M34.228,14.633 L35.228,18.633 M30.228,37.339 L26.801,39.633" id="Stroke-192" stroke="#6A3311" stroke-width="2" stroke-linecap="round" sketch:type="MSShapeGroup"></path>
            <path d="M12.654,6.339 L9.227,8.633" id="Stroke-193" stroke="#A46F3E" stroke-width="2" stroke-linecap="round" sketch:type="MSShapeGroup"></path>
            <path d="M29.502,29.326 L25.526,28.234" id="Stroke-194" stroke="#6A3311" stroke-width="2" stroke-linecap="round" sketch:type="MSShapeGroup"></path>
            <path d="M8.714,15.833 L5.227,13.633" id="Stroke-195" stroke="#A46F3E" stroke-width="2" stroke-linecap="round" sketch:type="MSShapeGroup"></path>
            <path d="M48.281,18.633 L45.228,21.404" id="Stroke-196" stroke="#6A3311" stroke-width="2" stroke-linecap="round" sketch:type="MSShapeGroup"></path>
        </g>
    </g>
</svg>