<?xml version="1.0" encoding="UTF-8" standalone="no"?>
<svg width="57px" height="51px" viewBox="0 0 57 51" version="1.1" xmlns="http://www.w3.org/2000/svg" xmlns:xlink="http://www.w3.org/1999/xlink" xmlns:sketch="http://www.bohemiancoding.com/sketch/ns">
    <!-- Generator: Sketch 3.2.2 (9983) - http://www.bohemiancoding.com/sketch -->
    <title>127 - Pressure Pot (Flat)</title>
    <desc>Created with Sketch.</desc>
    <defs></defs>
    <g id="Page-1" stroke="none" stroke-width="1" fill="none" fill-rule="evenodd" sketch:type="MSPage">
        <g id="127---Pressure-Pot-(Flat)" sketch:type="MSLayerGroup" transform="translate(1.000000, 1.000000)">
            <path d="M53,19 L49,19 L49,23 L53,23 C54.1,23 55,22.1 55,21 C55,19.9 54.1,19 53,19 L53,19 Z M2,23 L6,23 L6,19 L2,19 C0.9,19 0,19.9 0,21 C0,22.1 0.9,23 2,23 L2,23 Z" id="Stroke-934" stroke="#D2D5D7" stroke-width="2" sketch:type="MSShapeGroup"></path>
            <path d="M50.197,10.861 C50.197,10.861 46.584,7 45,7 L32.191,7 C31.153,5.208 29.22,4 27,4 C24.78,4 22.847,5.208 21.809,7 L10,7 C8.415,7 4.803,10.861 4.803,10.861 C4.507,11.362 4.863,12 5.438,12 L21.349,12 C22.173,14.329 24.389,16 27,16 C29.611,16 31.827,14.329 32.651,12 L49.562,12 C50.137,12 50.493,11.362 50.197,10.861" id="Fill-935" fill="#E6E6E6" sketch:type="MSShapeGroup"></path>
            <path d="M50.684,12 L32.651,12 C31.827,14.329 29.611,16 27,16 C24.389,16 22.173,14.329 21.349,12 L4.316,12 C3.744,12 3.391,12.627 3.685,13.12 L5.316,15.854 C5.764,16.604 6,17.462 6,18.336 L6,44 C6,46.872 8.316,49.201 11.172,49.201 L43.828,49.201 C46.684,49.201 49,46.872 49,44 L49,18.336 C49,17.462 49.236,16.604 49.684,15.854 L51.315,13.12 C51.609,12.627 51.256,12 50.684,12" id="Fill-936" fill="#D2D5D7" sketch:type="MSShapeGroup"></path>
            <path d="M32,0 L22,0 C19.239,0 17,2.238 17,5 L17,7 L21.809,7 C22.847,5.208 24.78,4 27,4 C29.22,4 31.153,5.208 32.191,7 L37,7 L37,5 C37,2.238 34.761,0 32,0 L32,0 Z" id="Stroke-937" stroke="#E6E6E6" stroke-width="2" sketch:type="MSShapeGroup"></path>
            <path d="M33,10 C33,13.314 30.314,16 27,16 C23.686,16 21,13.314 21,10 C21,6.686 23.686,4 27,4 C30.314,4 33,6.686 33,10" id="Fill-938" fill="#FFFFFF" sketch:type="MSShapeGroup"></path>
            <path d="M9,45 L19,45 M9,41 L16,41" id="Stroke-939" stroke="#FFFFFF" stroke-width="2" stroke-linecap="round" sketch:type="MSShapeGroup"></path>
            <path d="M27,10 L30,7" id="Stroke-940" stroke="#38454F" stroke-width="2" sketch:type="MSShapeGroup"></path>
            <path d="M9,37 L14,37" id="Stroke-941" stroke="#FFFFFF" stroke-width="2" stroke-linecap="round" sketch:type="MSShapeGroup"></path>
        </g>
    </g>
</svg>