<?xml version="1.0" encoding="UTF-8" standalone="no"?>
<svg width="43px" height="58px" viewBox="0 0 43 58" version="1.1" xmlns="http://www.w3.org/2000/svg" xmlns:xlink="http://www.w3.org/1999/xlink" xmlns:sketch="http://www.bohemiancoding.com/sketch/ns">
    <!-- Generator: Sketch 3.2.2 (9983) - http://www.bohemiancoding.com/sketch -->
    <title>229 - Radish (Flat)</title>
    <desc>Created with Sketch.</desc>
    <defs></defs>
    <g id="Page-1" stroke="none" stroke-width="1" fill="none" fill-rule="evenodd" sketch:type="MSPage">
        <g id="229---Radish-(Flat)" sketch:type="MSLayerGroup">
            <path d="M24.009,57.633 C23.381,51.523 20.37,48.833 14.416,43.929 C9.563,39.932 8.549,37.083 8.935,31.596 C9.706,20.633 24.009,20.633 24.009,20.633 L23.86,20.633 C23.86,20.633 38.164,20.633 38.934,31.596 C39.32,37.083 38.306,39.932 33.453,43.929 C27.499,48.833 24.488,51.523 23.86,57.633 L24.009,57.633" id="Fill-30" fill="#D75A4A" sketch:type="MSShapeGroup"></path>
            <path d="M20.935,15.853 L15.936,16.898 C10.658,18.002 5.279,15.527 2.684,10.8 L0.227,6.323 L5.226,5.277 C10.504,4.173 15.883,6.649 18.478,11.376 L20.935,15.853" id="Fill-31" fill="#88C057" sketch:type="MSShapeGroup"></path>
            <path d="M42.935,0.633 L37.884,1.385 C32.55,2.18 28.363,6.367 27.569,11.701 L26.816,16.751 L31.867,15.999 C37.201,15.205 41.388,11.017 42.182,5.684 L42.935,0.633" id="Fill-32" fill="#659C35" sketch:type="MSShapeGroup"></path>
            <path d="M22.935,11.633 C22.935,11.633 23.31,17.008 24.935,19.633" id="Stroke-33" stroke="#7A3726" stroke-width="2" stroke-linecap="round" sketch:type="MSShapeGroup"></path>
            <path d="M33.453,43.929 C33.502,43.889 33.544,43.851 33.592,43.811 C31.403,40.895 27.927,39 24,39 C20.042,39 16.543,40.924 14.357,43.879 C14.378,43.896 14.396,43.912 14.416,43.929 C20.181,48.677 23.179,51.359 23.935,57.069 C24.69,51.359 27.688,48.677 33.453,43.929" id="Fill-34" fill="#E6E6E6" sketch:type="MSShapeGroup"></path>
            <path d="M24.009,57.633 C23.989,57.438 23.959,57.257 23.935,57.069 C23.91,57.257 23.88,57.438 23.86,57.633 L24.009,57.633" id="Fill-35" fill="#E6E6E6" sketch:type="MSShapeGroup"></path>
        </g>
    </g>
</svg>