<?xml version="1.0" encoding="UTF-8" standalone="no"?>
<svg width="44px" height="57px" viewBox="0 0 44 57" version="1.1" xmlns="http://www.w3.org/2000/svg" xmlns:xlink="http://www.w3.org/1999/xlink" xmlns:sketch="http://www.bohemiancoding.com/sketch/ns">
    <!-- Generator: Sketch 3.2.2 (9983) - http://www.bohemiancoding.com/sketch -->
    <title>227 - Raspberry (Flat)</title>
    <desc>Created with Sketch.</desc>
    <defs></defs>
    <g id="Page-1" stroke="none" stroke-width="1" fill="none" fill-rule="evenodd" sketch:type="MSPage">
        <g id="227---Raspberry-(Flat)" sketch:type="MSLayerGroup">
            <path d="M40.884,32.633 C42.3,31.638 43.227,29.995 43.227,28.133 C43.227,25.995 42.005,24.146 40.222,23.236 C40.223,23.201 40.227,23.168 40.227,23.133 C40.227,20.555 38.452,18.398 36.059,17.802 C35.463,15.409 33.305,13.633 30.727,13.633 C28.291,13.633 26.227,15.22 25.505,17.415 C24.558,15.755 22.775,14.633 20.727,14.633 C18.865,14.633 17.223,15.561 16.227,16.977 C15.232,15.561 13.59,14.633 11.727,14.633 C9.557,14.633 7.686,15.893 6.792,17.719 C4.201,18.164 2.228,20.415 2.228,23.133 C2.228,23.684 2.311,24.214 2.461,24.715 C1.108,25.717 0.228,27.32 0.228,29.133 C0.228,30.972 1.133,32.596 2.52,33.595 C1.714,34.551 1.227,35.785 1.227,37.133 C1.227,39.877 3.24,42.146 5.868,42.56 C5.46,43.328 5.228,44.203 5.228,45.133 C5.228,47.711 7.003,49.868 9.396,50.464 C9.992,52.857 12.15,54.633 14.727,54.633 C15.886,54.633 16.96,54.273 17.846,53.661 C18.762,55.426 20.602,56.633 22.727,56.633 C24.675,56.633 26.382,55.618 27.359,54.091 C28.077,54.435 28.878,54.633 29.727,54.633 C32.604,54.633 34.962,52.423 35.203,49.609 C38.018,49.367 40.227,47.01 40.227,44.133 C40.227,43.452 40.098,42.802 39.871,42.199 C41.844,41.364 43.227,39.41 43.227,37.133 C43.227,35.271 42.3,33.628 40.884,32.633" id="Fill-45" fill="#C62A6A" sketch:type="MSShapeGroup"></path>
            <path d="M20.703,0.633 C20.703,0.633 20.746,0.649 20.809,0.674 C20.871,0.649 20.914,0.633 20.914,0.633 L20.703,0.633" id="Fill-46" fill="#659C35" sketch:type="MSShapeGroup"></path>
            <path d="M7.333,16.854 C8.335,15.512 9.923,14.633 11.727,14.633 C13.59,14.633 15.232,15.561 16.227,16.977 C17.223,15.561 18.865,14.633 20.727,14.633 C22.775,14.633 24.558,15.755 25.505,17.415 C26.227,15.22 28.291,13.633 30.727,13.633 C32.656,13.633 34.349,14.628 35.329,16.131 C37.653,14.407 39.378,12.226 40.227,9.633 C30.303,6.258 27.211,10.633 27.211,10.633 C26.61,3.239 21.57,0.975 20.809,0.674 C20.047,0.975 15.008,3.239 14.406,10.633 C14.406,10.633 11.315,6.258 1.39,9.633 C2.362,12.602 4.478,15.035 7.333,16.854" id="Fill-47" fill="#659C35" sketch:type="MSShapeGroup"></path>
            <path d="M14.106,23.305 C15.454,27.38 10.128,30.494 7.227,27.343 M35.013,35.633 C36.361,39.708 31.035,42.821 28.135,39.67 M18.227,38.986 C16.8,43.034 10.683,42.237 10.317,37.97 M27.227,29.649 C25.8,33.697 19.683,32.9 19.317,28.633 M26.256,44.633 C27.446,48.757 22.004,51.663 19.227,48.402 M37.227,25.327 C34.34,28.502 29.013,25.392 30.333,21.317" id="Stroke-48" stroke="#E53384" stroke-width="2" stroke-linecap="round" sketch:type="MSShapeGroup"></path>
        </g>
    </g>
</svg>