<?xml version="1.0" encoding="UTF-8" standalone="no"?>
<svg width="58px" height="32px" viewBox="0 0 58 32" version="1.1" xmlns="http://www.w3.org/2000/svg" xmlns:xlink="http://www.w3.org/1999/xlink" xmlns:sketch="http://www.bohemiancoding.com/sketch/ns">
    <!-- Generator: Sketch 3.2.2 (9983) - http://www.bohemiancoding.com/sketch -->
    <title>43 - Risotto (Flat)</title>
    <desc>Created with Sketch.</desc>
    <defs></defs>
    <g id="Page-1" stroke="none" stroke-width="1" fill="none" fill-rule="evenodd" sketch:type="MSPage">
        <g id="43---Risotto-(Flat)" sketch:type="MSLayerGroup" transform="translate(-1.000000, -1.000000)">
            <path d="M51,33 L9,33 C7.175,33 7.462,30.118 6.401,28.633 L1.14,25.468 C0.701,24.854 1.141,24 1.896,24 L58.07,24 C58.825,24 59.264,24.854 58.825,25.468 L53.599,28.633 C52.538,30.118 52.825,33 51,33" id="Fill-1691" fill="#E6E6E6" sketch:type="MSShapeGroup"></path>
            <path d="M54.055,22.553 C53.45,22.143 53.08,21.467 53.154,20.741 C53.179,20.5 53.173,20.261 53.11,20.055 C52.878,19.294 52.233,18.685 51.458,18.505 C51.1,18.422 50.432,18.455 50.432,18.439 C50.432,17.414 49.6,16.582 48.574,16.582 C48.168,16.582 47.646,16.407 47.646,16.117 C47.646,14.881 46.676,13.879 45.457,13.809 C45.334,13.955 45.182,14.078 44.986,14.135 L42.102,14.961 C41.573,15.113 41.017,14.804 40.865,14.276 L40.337,12.434 C38.487,12.314 36.694,12.25 34.976,12.241 C34.851,13.783 33.574,15 32,15 C30.484,15 29.244,13.872 29.042,12.411 C26.824,12.549 24.759,12.756 22.891,13.008 L20.445,15.722 C20.134,16.067 19.602,16.094 19.256,15.783 L18.278,14.902 C17.955,14.611 17.922,14.131 18.173,13.788 C16.214,14.173 14.6,14.571 13.385,14.905 L12.542,16.513 C12.287,17 11.68,17.19 11.193,16.935 L9.03,15.801 C8.883,16.004 8.801,16.231 8.839,16.484 C9.049,17.888 7.598,19.019 6.743,19.049 C6.039,19.072 5.823,20.521 5.857,21.225 C5.863,21.346 4,22.057 4,23.082 C4,23.359 4.061,23.62 4.169,23.854 C4.192,23.902 4.196,23.951 4.213,24 L55.015,24 C54.89,23.401 54.544,22.884 54.055,22.553" id="Fill-1692" fill="#FBD490" sketch:type="MSShapeGroup"></path>
            <path d="M14.482,19.38 C14.288,19.38 14.093,19.323 13.92,19.206 C13.464,18.894 13.346,18.272 13.657,17.816 L14.438,16.671 C14.749,16.214 15.372,16.098 15.828,16.408 C16.284,16.72 16.402,17.342 16.091,17.798 L15.31,18.943 C15.116,19.227 14.802,19.38 14.482,19.38" id="Fill-1693" fill="#F8E2BF" sketch:type="MSShapeGroup"></path>
            <path d="M11.193,16.935 L8.535,15.542 C8.048,15.287 7.858,14.68 8.114,14.193 L9.506,11.535 C9.761,11.048 10.369,10.858 10.856,11.113 L13.513,12.506 C14,12.761 14.19,13.368 13.935,13.856 L12.542,16.513 C12.287,17 11.68,17.19 11.193,16.935" id="Fill-1694" fill="#EB5E35" sketch:type="MSShapeGroup"></path>
            <path d="M11.813,21.728 C11.635,21.728 11.453,21.681 11.289,21.579 L10.108,20.85 C9.639,20.56 9.493,19.945 9.783,19.474 C10.072,19.005 10.687,18.856 11.159,19.149 L12.34,19.878 C12.81,20.168 12.955,20.783 12.665,21.254 C12.477,21.559 12.148,21.728 11.813,21.728" id="Fill-1695" fill="#F8E2BF" sketch:type="MSShapeGroup"></path>
            <path d="M16.523,23.392 C16.482,23.392 16.441,23.389 16.399,23.384 C15.852,23.316 15.462,22.816 15.53,22.268 L15.701,20.891 C15.769,20.344 16.268,19.952 16.816,20.022 C17.364,20.09 17.754,20.59 17.685,21.138 L17.515,22.514 C17.452,23.021 17.021,23.392 16.523,23.392" id="Fill-1696" fill="#F8E2BF" sketch:type="MSShapeGroup"></path>
            <path d="M19.902,19.837 C19.876,19.837 19.851,19.836 19.824,19.834 L18.441,19.726 C17.891,19.683 17.479,19.203 17.521,18.652 C17.565,18.101 18.047,17.685 18.596,17.732 L19.979,17.84 C20.529,17.883 20.941,18.363 20.898,18.914 C20.857,19.438 20.42,19.837 19.902,19.837" id="Fill-1697" fill="#F8E2BF" sketch:type="MSShapeGroup"></path>
            <path d="M23.75,22.871 C23.556,22.871 23.36,22.814 23.187,22.697 C22.731,22.387 22.613,21.764 22.925,21.307 L23.706,20.161 C24.018,19.703 24.639,19.589 25.096,19.898 C25.552,20.209 25.67,20.831 25.358,21.288 L24.577,22.434 C24.384,22.719 24.069,22.871 23.75,22.871" id="Fill-1698" fill="#F8E2BF" sketch:type="MSShapeGroup"></path>
            <path d="M24.07,18.233 C23.892,18.233 23.71,18.185 23.546,18.084 L22.365,17.355 C21.896,17.065 21.75,16.45 22.04,15.979 C22.329,15.51 22.943,15.361 23.416,15.654 L24.597,16.383 C25.066,16.673 25.212,17.288 24.922,17.759 C24.733,18.064 24.405,18.233 24.07,18.233" id="Fill-1699" fill="#F8E2BF" sketch:type="MSShapeGroup"></path>
            <path d="M46.07,21.724 C45.876,21.724 45.68,21.668 45.508,21.551 C45.052,21.239 44.934,20.617 45.245,20.161 L46.027,19.015 C46.338,18.558 46.963,18.441 47.417,18.752 C47.873,19.063 47.991,19.685 47.68,20.141 L46.898,21.288 C46.704,21.572 46.39,21.724 46.07,21.724" id="Fill-1700" fill="#F8E2BF" sketch:type="MSShapeGroup"></path>
            <path d="M43.861,18.728 C43.683,18.728 43.501,18.681 43.337,18.579 L42.156,17.85 C41.687,17.56 41.541,16.945 41.831,16.474 C42.119,16.006 42.735,15.856 43.207,16.149 L44.388,16.878 C44.857,17.168 45.003,17.783 44.713,18.254 C44.524,18.559 44.196,18.728 43.861,18.728" id="Fill-1701" fill="#F8E2BF" sketch:type="MSShapeGroup"></path>
            <path d="M29.456,17.492 C29.431,17.492 29.404,17.491 29.378,17.489 L27.994,17.382 C27.443,17.339 27.031,16.858 27.074,16.308 C27.117,15.757 27.586,15.35 28.148,15.388 L29.532,15.495 C30.083,15.538 30.495,16.018 30.452,16.569 C30.411,17.094 29.974,17.492 29.456,17.492" id="Fill-1702" fill="#F8E2BF" sketch:type="MSShapeGroup"></path>
            <path d="M40.459,25.059 C40.433,25.059 40.406,25.058 40.38,25.057 L38.997,24.948 C38.446,24.905 38.035,24.424 38.078,23.873 C38.121,23.322 38.613,22.925 39.153,22.954 L40.536,23.062 C41.087,23.105 41.498,23.587 41.455,24.138 C41.414,24.662 40.976,25.059 40.459,25.059" id="Fill-1703" fill="#F8E2BF" sketch:type="MSShapeGroup"></path>
            <path d="M30.072,22 C29.986,22 29.899,21.989 29.812,21.966 L28.473,21.606 C27.938,21.464 27.622,20.915 27.766,20.382 C27.909,19.848 28.46,19.531 28.99,19.675 L30.33,20.034 C30.864,20.177 31.181,20.726 31.037,21.259 C30.917,21.706 30.514,22 30.072,22" id="Fill-1704" fill="#F8E2BF" sketch:type="MSShapeGroup"></path>
            <path d="M35.251,21.42 C34.826,21.42 34.433,21.148 34.298,20.722 C34.131,20.196 34.422,19.634 34.948,19.467 L36.271,19.047 C36.803,18.878 37.361,19.172 37.527,19.697 C37.694,20.223 37.403,20.786 36.877,20.953 L35.554,21.373 C35.453,21.405 35.351,21.42 35.251,21.42" id="Fill-1705" fill="#F8E2BF" sketch:type="MSShapeGroup"></path>
            <path d="M33.071,19 C32.815,19 32.558,18.901 32.362,18.705 C31.973,18.313 31.975,17.68 32.366,17.291 L33.351,16.312 C33.742,15.922 34.375,15.925 34.765,16.316 C35.154,16.708 35.152,17.342 34.761,17.73 L33.776,18.709 C33.581,18.903 33.326,19 33.071,19" id="Fill-1706" fill="#F8E2BF" sketch:type="MSShapeGroup"></path>
            <path d="M41.07,21.342 C40.628,21.342 40.223,21.046 40.104,20.598 L39.75,19.256 C39.609,18.722 39.928,18.174 40.461,18.033 C40.993,17.891 41.543,18.209 41.684,18.744 L42.038,20.086 C42.179,20.62 41.86,21.168 41.327,21.308 C41.241,21.331 41.155,21.342 41.07,21.342" id="Fill-1707" fill="#F8E2BF" sketch:type="MSShapeGroup"></path>
            <path d="M38.242,15.998 C38.216,15.998 38.19,15.997 38.163,15.995 L36.779,15.887 C36.229,15.844 35.817,15.362 35.86,14.811 C35.903,14.26 36.392,13.855 36.935,13.893 L38.319,14.001 C38.87,14.044 39.281,14.525 39.238,15.076 C39.197,15.6 38.759,15.998 38.242,15.998" id="Fill-1708" fill="#F8E2BF" sketch:type="MSShapeGroup"></path>
            <path d="M40.865,14.276 L40.039,11.392 C39.887,10.863 40.196,10.306 40.724,10.155 L43.608,9.328 C44.137,9.177 44.693,9.485 44.845,10.014 L45.672,12.898 C45.823,13.427 45.515,13.983 44.986,14.135 L42.102,14.961 C41.573,15.113 41.017,14.804 40.865,14.276" id="Fill-1709" fill="#F8994D" sketch:type="MSShapeGroup"></path>
            <path d="M25.155,7.275 L24.328,4.391 C24.177,3.863 24.485,3.306 25.014,3.155 L27.898,2.328 C28.427,2.177 28.983,2.485 29.135,3.014 L29.961,5.898 C30.113,6.427 29.804,6.983 29.276,7.135 L26.392,7.961 C25.863,8.113 25.307,7.804 25.155,7.275" id="Fill-1710" fill="#FDD807" sketch:type="MSShapeGroup"></path>
            <path d="M35,12 C35,13.657 33.657,15 32,15 C30.343,15 29,13.657 29,12 C29,10.343 30.343,9 32,9 C33.657,9 35,10.343 35,12" id="Fill-1711" fill="#F7A36E" sketch:type="MSShapeGroup"></path>
            <path d="M19,8 C19,9.657 17.657,11 16,11 C14.343,11 13,9.657 13,8 C13,6.343 14.343,5 16,5 C17.657,5 19,6.343 19,8" id="Fill-1712" fill="#FBB50C" sketch:type="MSShapeGroup"></path>
            <path d="M24.674,11.029 L20.445,15.722 C20.134,16.067 19.602,16.094 19.256,15.783 L18.278,14.902 C17.933,14.591 17.905,14.058 18.216,13.713 L22.445,9.021 C22.756,8.676 23.289,8.648 23.634,8.959 L24.612,9.841 C24.957,10.152 24.985,10.684 24.674,11.029" id="Fill-1713" fill="#71B43D" sketch:type="MSShapeGroup"></path>
            <path d="M36.221,8.516 L34.052,2.583 C33.892,2.147 34.116,1.663 34.553,1.504 L35.789,1.051 C36.226,0.892 36.709,1.116 36.869,1.553 L39.039,7.485 C39.198,7.922 38.974,8.405 38.537,8.565 L37.301,9.017 C36.864,9.176 36.381,8.952 36.221,8.516" id="Fill-1714" fill="#98DF2A" sketch:type="MSShapeGroup"></path>
            <path d="M18.985,29 L50,29 M10,29 L14.071,29" id="Stroke-1715" stroke="#FFFFFF" stroke-width="2" stroke-linecap="round" sketch:type="MSShapeGroup"></path>
        </g>
    </g>
</svg>