<?xml version="1.0" encoding="UTF-8" standalone="no"?>
<svg width="51px" height="56px" viewBox="0 0 51 56" version="1.1" xmlns="http://www.w3.org/2000/svg" xmlns:xlink="http://www.w3.org/1999/xlink" xmlns:sketch="http://www.bohemiancoding.com/sketch/ns">
    <!-- Generator: Sketch 3.2.2 (9983) - http://www.bohemiancoding.com/sketch -->
    <title>183 - Salad (Flat)</title>
    <desc>Created with Sketch.</desc>
    <defs></defs>
    <g id="Page-1" stroke="none" stroke-width="1" fill="none" fill-rule="evenodd" sketch:type="MSPage">
        <g id="183---Salad-(Flat)" sketch:type="MSLayerGroup">
            <path d="M39.784,27.163 C41.335,27.53 43.03,27.523 44.838,26.76 C47.946,25.449 50.156,22.468 50.226,19.095 C50.304,15.317 47.907,12.095 44.549,10.918 C44.313,7.488 41.463,4.777 37.974,4.777 C37.964,4.777 37.954,4.779 37.944,4.779 C38.006,4.26 37.971,3.71 37.803,3.138 C37.331,1.529 35.916,0.293 34.25,0.095 C32.884,-0.067 31.63,0.423 30.752,1.291 C29.916,0.537 28.82,0.064 27.605,0.064 C25.002,0.064 22.892,2.174 22.892,4.777 C22.892,4.785 22.895,4.793 22.895,4.801 C19.731,5.041 17.237,7.679 17.237,10.904 C17.237,11.397 17.301,11.874 17.411,12.333 C13.646,12.49 10.638,15.583 10.638,19.388 C10.638,20.676 10.989,21.881 11.591,22.921 C10.434,23.872 9.696,25.314 9.696,26.928 C9.696,29.186 11.141,31.101 13.155,31.812 C12.895,41.03 16.184,46.467 22.547,53.792 C22.661,53.924 22.776,54.055 22.892,54.186 C22.917,54.214 22.942,54.242 22.967,54.27 C25.613,57.24 31.581,54.966 30.297,51.201 C23.442,31.092 44.572,33.998 44.572,33.998 C44.572,33.998 45.176,27.915 39.725,27.63 C39.732,27.478 39.739,27.326 39.746,27.173 C39.759,27.171 39.771,27.166 39.784,27.163" id="Fill-405" fill="#88C057" sketch:type="MSShapeGroup"></path>
            <path d="M22.967,54.27 C22.942,54.242 22.917,54.214 22.892,54.186 C22.776,54.055 22.661,53.924 22.547,53.792 C16.184,46.467 12.895,41.03 13.155,31.812 C11.141,31.101 9.696,29.186 9.696,26.928 C9.696,25.314 10.434,23.872 11.591,22.921 C10.989,21.881 10.638,20.676 10.638,19.388 C10.638,15.583 13.646,12.49 17.411,12.333 C17.301,11.874 17.237,11.397 17.237,10.904 C17.237,8.342 18.813,6.156 21.046,5.243 C20.897,4.758 20.709,4.269 20.462,3.78 C19.231,1.338 17.063,-0.194 15.084,0.127 C13.453,0.393 12.312,1.724 11.821,3.513 C10.454,2.593 8.936,2.234 7.564,2.718 C4.625,3.753 3.698,7.979 5.381,11.892 C5.386,11.904 5.393,11.914 5.398,11.926 C2.213,13.448 1.365,17.973 3.385,22.055 C3.679,22.65 4.023,23.197 4.396,23.701 C0.877,25.156 -0.052,29.574 2.164,33.435 C2.873,34.669 3.818,35.686 4.871,36.452 C4.374,37.644 4.482,39.11 5.273,40.461 C6.337,42.277 8.331,43.355 10.199,43.343 C13.482,49.79 17.51,52.291 23.609,54.878 C23.673,54.905 23.737,54.932 23.801,54.958 C23.502,54.769 23.216,54.55 22.967,54.27" id="Fill-406" fill="#659C35" sketch:type="MSShapeGroup"></path>
            <path d="M25.358,24.483 C25.416,24.355 25.443,24.221 25.445,24.089 C26.162,22.285 27.026,20.771 27.923,19.508 C32.407,18.576 35.791,19.977 35.865,20.009 C35.996,20.066 36.132,20.093 36.265,20.093 C36.649,20.093 37.017,19.869 37.182,19.495 C37.403,18.989 37.173,18.399 36.668,18.177 C36.529,18.117 33.77,16.939 29.803,17.228 C31.74,15.207 33.442,14.29 33.695,14.161 C35.148,13.466 37.271,14.365 37.968,14.771 C38.127,14.865 38.301,14.909 38.474,14.909 C38.815,14.909 39.149,14.733 39.336,14.417 C39.616,13.941 39.459,13.329 38.982,13.048 C38.869,12.979 36.621,11.68 34.318,11.941 C34.514,11.13 34.952,10.393 35.175,10.096 C35.51,9.658 35.426,9.031 34.987,8.696 C34.551,8.361 33.921,8.443 33.586,8.883 C33.523,8.964 32.211,10.704 32.214,12.707 C30.759,13.598 27,16.299 24.37,21.727 C24.229,22.019 24.091,22.333 23.955,22.647 C21.227,20.782 21.676,17.464 21.701,17.303 C21.786,16.76 21.415,16.249 20.87,16.162 C20.326,16.075 19.812,16.447 19.726,16.992 C19.436,18.807 19.852,22.547 23.221,24.556 C22.477,26.744 21.913,29.356 21.739,32.44 C21.718,32.537 21.715,32.631 21.723,32.727 C21.619,34.888 21.719,37.285 22.067,39.91 C20.798,39.211 20.219,38.191 20.182,38.122 C19.921,37.637 19.318,37.452 18.833,37.708 C18.345,37.965 18.156,38.57 18.414,39.059 C18.467,39.159 19.664,41.372 22.431,42.228 C23.152,46.183 24.438,50.625 26.515,55.611 C27.2,55.565 27.867,55.385 28.457,55.091 C28.454,55.083 28.456,55.074 28.452,55.065 C26.271,49.876 24.955,45.305 24.255,41.267 C24.252,41.243 24.249,41.22 24.244,41.197 C23.724,38.167 23.555,35.444 23.653,33.005 C25.053,30.617 29.168,30.521 29.21,30.521 C29.762,30.512 30.203,30.059 30.195,29.507 C30.188,28.959 29.742,28.521 29.196,28.521 L29.185,28.521 C29.022,28.522 26.17,28.584 23.909,30.002 C24.185,28.022 24.644,26.269 25.213,24.71 C25.269,24.642 25.32,24.568 25.358,24.483" id="Fill-407" fill="#659C35" sketch:type="MSShapeGroup"></path>
        </g>
    </g>
</svg>