<?xml version="1.0" encoding="UTF-8" standalone="no"?>
<svg width="58px" height="58px" viewBox="0 0 58 58" version="1.1" xmlns="http://www.w3.org/2000/svg" xmlns:xlink="http://www.w3.org/1999/xlink" xmlns:sketch="http://www.bohemiancoding.com/sketch/ns">
    <!-- Generator: Sketch 3.2.2 (9983) - http://www.bohemiancoding.com/sketch -->
    <title>37 - Salami Pizza (Flat)</title>
    <desc>Created with Sketch.</desc>
    <defs></defs>
    <g id="Page-1" stroke="none" stroke-width="1" fill="none" fill-rule="evenodd" sketch:type="MSPage">
        <g id="37---Salami-Pizza-(Flat)" sketch:type="MSLayerGroup" transform="translate(-1.000000, 0.000000)">
            <path d="M32.94,0.817 L32.94,0.817 C34.153,1.549 35.602,1.802 36.997,1.523 C39.07,1.11 41.203,1.876 42.521,3.51 C43.408,4.608 44.682,5.335 46.089,5.544 C48.18,5.855 49.919,7.297 50.593,9.277 C51.046,10.609 51.992,11.722 53.241,12.394 C55.098,13.393 56.233,15.334 56.18,17.423 C56.145,18.827 56.648,20.193 57.589,21.246 C58.989,22.813 59.383,25.021 58.61,26.965 C58.091,28.273 58.091,29.727 58.61,31.034 C59.383,32.979 58.989,35.187 57.589,36.753 C56.648,37.807 56.145,39.173 56.18,40.577 C56.233,42.665 55.098,44.607 53.241,45.606 C51.992,46.278 51.046,47.391 50.593,48.723 C49.919,50.703 48.18,52.144 46.089,52.456 C44.682,52.665 43.408,53.392 42.521,54.49 C41.203,56.123 39.07,56.89 36.997,56.476 C35.602,56.198 34.153,56.45 32.94,57.183 C31.135,58.272 28.865,58.272 27.06,57.183 C25.847,56.45 24.398,56.198 23.004,56.476 C20.931,56.89 18.797,56.123 17.479,54.49 C16.592,53.392 15.317,52.665 13.911,52.456 C11.82,52.144 10.081,50.703 9.407,48.723 C8.954,47.391 8.008,46.278 6.759,45.606 C4.902,44.607 3.767,42.665 3.82,40.577 C3.855,39.173 3.352,37.807 2.411,36.753 C1.011,35.187 0.617,32.979 1.39,31.034 C1.909,29.727 1.909,28.273 1.39,26.965 C0.617,25.021 1.011,22.813 2.411,21.246 C3.352,20.193 3.855,18.827 3.82,17.423 C3.767,15.334 4.902,13.393 6.759,12.394 C8.008,11.722 8.954,10.609 9.407,9.277 C10.081,7.297 11.82,5.855 13.911,5.544 C15.317,5.335 16.592,4.608 17.479,3.51 C18.797,1.876 20.931,1.11 23.004,1.523 C24.398,1.802 25.847,1.549 27.06,0.817 C28.865,-0.272 31.135,-0.272 32.94,0.817" id="Fill-1361" fill="#FED070" sketch:type="MSShapeGroup"></path>
            <path d="M54,29 C54,42.255 43.255,53 30,53 C16.745,53 6,42.255 6,29 C6,15.745 16.745,5 30,5 C43.255,5 54,15.745 54,29" id="Fill-1362" fill="#FAF9D2" sketch:type="MSShapeGroup"></path>
            <path d="M27,15 C27,17.761 24.761,20 22,20 C19.239,20 17,17.761 17,15 C17,12.238 19.239,10 22,10 C24.761,10 27,12.238 27,15" id="Fill-1363" fill="#CD6E61" sketch:type="MSShapeGroup"></path>
            <path d="M20,32 C20,34.761 17.761,37 15,37 C12.239,37 10,34.761 10,32 C10,29.238 12.239,27 15,27 C17.761,27 20,29.238 20,32" id="Fill-1364" fill="#CD6E61" sketch:type="MSShapeGroup"></path>
            <path d="M45,20 C45,22.761 42.761,25 40,25 C37.239,25 35,22.761 35,20 C35,17.238 37.239,15 40,15 C42.761,15 45,17.238 45,20" id="Fill-1365" fill="#CD6E61" sketch:type="MSShapeGroup"></path>
            <path d="M31.577,41.988 C32.688,44.516 31.54,47.466 29.012,48.577 C26.484,49.688 23.534,48.54 22.423,46.012 C21.311,43.484 22.46,40.534 24.988,39.423 C27.516,38.311 30.466,39.46 31.577,41.988" id="Fill-1366" fill="#CD6E61" sketch:type="MSShapeGroup"></path>
            <path d="M44.814,41.133 C42.531,42.687 39.421,42.096 37.867,39.814 C36.313,37.531 36.903,34.421 39.186,32.867 C41.469,31.313 44.579,31.903 46.133,34.186 C47.687,36.468 47.096,39.579 44.814,41.133" id="Fill-1367" fill="#CD6E61" sketch:type="MSShapeGroup"></path>
            <path d="M32.686,29.745 C31.721,32.333 28.842,33.648 26.254,32.683 C23.667,31.719 22.352,28.839 23.317,26.252 C24.281,23.664 27.161,22.349 29.748,23.314 C32.336,24.279 33.651,27.158 32.686,29.745" id="Fill-1368" fill="#CD6E61" sketch:type="MSShapeGroup"></path>
            <path d="M21,12 C20.448,12 20,12.448 20,13 C20,13.552 20.448,14 21,14 C21.552,14 22,13.552 22,13 C22,12.448 21.552,12 21,12" id="Fill-1369" fill="#D79C8C" sketch:type="MSShapeGroup"></path>
            <path d="M21,16 C20.448,16 20,16.448 20,17 C20,17.552 20.448,18 21,18 C21.552,18 22,17.552 22,17 C22,16.448 21.552,16 21,16" id="Fill-1370" fill="#D79C8C" sketch:type="MSShapeGroup"></path>
            <path d="M25,15 C25,14.448 24.552,14 24,14 C23.448,14 23,14.448 23,15 C23,15.552 23.448,16 24,16 C24.552,16 25,15.552 25,15" id="Fill-1371" fill="#D79C8C" sketch:type="MSShapeGroup"></path>
            <path d="M14,29 C13.448,29 13,29.448 13,30 C13,30.552 13.448,31 14,31 C14.552,31 15,30.552 15,30 C15,29.448 14.552,29 14,29" id="Fill-1372" fill="#D79C8C" sketch:type="MSShapeGroup"></path>
            <path d="M14,33 C13.448,33 13,33.448 13,34 C13,34.552 13.448,35 14,35 C14.552,35 15,34.552 15,34 C15,33.448 14.552,33 14,33" id="Fill-1373" fill="#D79C8C" sketch:type="MSShapeGroup"></path>
            <path d="M17,31 C16.448,31 16,31.448 16,32 C16,32.552 16.448,33 17,33 C17.552,33 18,32.552 18,32 C18,31.448 17.552,31 17,31" id="Fill-1374" fill="#D79C8C" sketch:type="MSShapeGroup"></path>
            <path d="M39,19 C39.552,19 40,18.552 40,18 C40,17.448 39.552,17 39,17 C38.448,17 38,17.448 38,18 C38,18.552 38.448,19 39,19" id="Fill-1375" fill="#D79C8C" sketch:type="MSShapeGroup"></path>
            <path d="M40,22 C40,21.448 39.552,21 39,21 C38.448,21 38,21.448 38,22 C38,22.552 38.448,23 39,23 C39.552,23 40,22.552 40,22" id="Fill-1376" fill="#D79C8C" sketch:type="MSShapeGroup"></path>
            <path d="M43,20 C43,19.448 42.552,19 42,19 C41.448,19 41,19.448 41,20 C41,20.552 41.448,21 42,21 C42.552,21 43,20.552 43,20" id="Fill-1377" fill="#D79C8C" sketch:type="MSShapeGroup"></path>
            <path d="M26.195,42.169 C25.973,41.663 25.383,41.434 24.877,41.656 C24.372,41.878 24.142,42.468 24.364,42.974 C24.586,43.479 25.177,43.709 25.682,43.487 C26.188,43.264 26.417,42.675 26.195,42.169" id="Fill-1378" fill="#D79C8C" sketch:type="MSShapeGroup"></path>
            <path d="M26.487,45.318 C25.981,45.54 25.752,46.13 25.974,46.635 C26.196,47.141 26.786,47.371 27.292,47.149 C27.797,46.926 28.027,46.336 27.805,45.831 C27.583,45.325 26.993,45.096 26.487,45.318" id="Fill-1379" fill="#D79C8C" sketch:type="MSShapeGroup"></path>
            <path d="M28.428,42.279 C27.923,42.502 27.693,43.092 27.915,43.598 C28.138,44.103 28.728,44.333 29.233,44.11 C29.739,43.888 29.969,43.298 29.746,42.792 C29.524,42.287 28.934,42.057 28.428,42.279" id="Fill-1380" fill="#D79C8C" sketch:type="MSShapeGroup"></path>
            <path d="M43.653,35.874 C44.11,35.563 44.228,34.941 43.917,34.485 C43.606,34.029 42.984,33.91 42.528,34.221 C42.071,34.532 41.953,35.154 42.264,35.611 C42.575,36.067 43.197,36.185 43.653,35.874" id="Fill-1381" fill="#D79C8C" sketch:type="MSShapeGroup"></path>
            <path d="M39.221,36.472 C38.765,36.783 38.647,37.405 38.957,37.862 C39.268,38.318 39.89,38.436 40.347,38.125 C40.803,37.815 40.921,37.193 40.611,36.736 C40.3,36.28 39.678,36.161 39.221,36.472" id="Fill-1382" fill="#D79C8C" sketch:type="MSShapeGroup"></path>
            <path d="M43.952,38.09 C43.641,37.634 43.019,37.516 42.563,37.827 C42.106,38.137 41.988,38.759 42.299,39.216 C42.61,39.672 43.232,39.79 43.688,39.48 C44.145,39.169 44.263,38.547 43.952,38.09" id="Fill-1383" fill="#D79C8C" sketch:type="MSShapeGroup"></path>
            <path d="M27.414,26.712 C27.931,26.905 28.507,26.642 28.7,26.125 C28.893,25.607 28.63,25.031 28.112,24.838 C27.595,24.645 27.019,24.908 26.826,25.426 C26.633,25.943 26.896,26.519 27.414,26.712" id="Fill-1384" fill="#D79C8C" sketch:type="MSShapeGroup"></path>
            <path d="M26.016,30.46 C26.534,30.653 27.11,30.39 27.303,29.872 C27.495,29.355 27.233,28.779 26.715,28.586 C26.198,28.393 25.622,28.656 25.429,29.174 C25.236,29.691 25.499,30.267 26.016,30.46" id="Fill-1385" fill="#D79C8C" sketch:type="MSShapeGroup"></path>
            <path d="M30.225,27.76 C29.707,27.567 29.131,27.83 28.938,28.348 C28.745,28.865 29.008,29.441 29.526,29.634 C30.043,29.827 30.619,29.564 30.812,29.047 C31.005,28.529 30.742,27.953 30.225,27.76" id="Fill-1386" fill="#D79C8C" sketch:type="MSShapeGroup"></path>
            <path d="M34,12 C34,14.211 32.211,16 30,16" id="Stroke-1387" stroke="#88C057" stroke-width="2" stroke-linecap="round" sketch:type="MSShapeGroup"></path>
            <path d="M19,23.53 C16.902,24.229 14.639,23.097 13.94,21" id="Stroke-1388" stroke="#ED3F32" stroke-width="2" stroke-linecap="round" sketch:type="MSShapeGroup"></path>
            <path d="M40,44.793 C37.902,45.492 35.64,44.361 34.94,42.263 M50,26.95 C48.921,28.88 46.487,29.569 44.557,28.49" id="Stroke-1389" stroke="#88C057" stroke-width="2" stroke-linecap="round" sketch:type="MSShapeGroup"></path>
            <path d="M34,34.95 C32.921,36.88 30.487,37.569 28.557,36.49" id="Stroke-1390" stroke="#ED3F32" stroke-width="2" stroke-linecap="round" sketch:type="MSShapeGroup"></path>
            <path d="M21.824,34.165 C22.655,36.215 21.668,38.545 19.619,39.374" id="Stroke-1391" stroke="#88C057" stroke-width="2" stroke-linecap="round" sketch:type="MSShapeGroup"></path>
            <path d="M36.79,32 C36.39,29.825 37.826,27.742 40,27.342" id="Stroke-1392" stroke="#ED3F32" stroke-width="2" stroke-linecap="round" sketch:type="MSShapeGroup"></path>
        </g>
    </g>
</svg>