<?xml version="1.0" encoding="UTF-8" standalone="no"?>
<svg width="56px" height="44px" viewBox="0 0 56 44" version="1.1" xmlns="http://www.w3.org/2000/svg" xmlns:xlink="http://www.w3.org/1999/xlink" xmlns:sketch="http://www.bohemiancoding.com/sketch/ns">
    <!-- Generator: Sketch 3.2.2 (9983) - http://www.bohemiancoding.com/sketch -->
    <title>31 - Salami (Flat)</title>
    <desc>Created with Sketch.</desc>
    <defs></defs>
    <g id="Page-1" stroke="none" stroke-width="1" fill="none" fill-rule="evenodd" sketch:type="MSPage">
        <g id="31---Salami-(Flat)" sketch:type="MSLayerGroup">
            <path d="M5.384,11.5 C5.384,10.861 5.45,10.237 5.552,9.626 L1.273,6.416 C0.664,5.959 -0.176,6.538 0.033,7.27 L1.299,11.703 C1.354,11.894 1.335,12.098 1.246,12.276 L0.288,14.191 C-0.034,14.837 0.602,15.543 1.277,15.29 L5.597,13.67 C5.461,12.966 5.384,12.242 5.384,11.5" id="Fill-1557" fill="#965E5E" sketch:type="MSShapeGroup"></path>
            <path d="M45.884,23 L16.884,23 C10.559,23 5.384,17.825 5.384,11.5 C5.384,5.175 10.559,0 16.884,0 L45.884,0 C52.209,0 55.384,5.175 55.384,11.5 C55.384,17.825 52.209,23 45.884,23" id="Fill-1558" fill="#773F3A" sketch:type="MSShapeGroup"></path>
            <path d="M55.384,11.5 C55.384,17.851 52.235,23 45.884,23 C39.533,23 36.384,17.851 36.384,11.5 C36.384,5.149 39.533,0 45.884,0 C52.235,0 55.384,5.149 55.384,11.5" id="Fill-1559" fill="#C56458" sketch:type="MSShapeGroup"></path>
            <path d="M47.274,11.901 C46.843,11.909 46.489,12.319 46.489,12.817 C46.489,13.315 46.843,13.699 47.274,13.675 C47.697,13.652 48.034,13.242 48.034,12.76 C48.034,12.278 47.697,11.893 47.274,11.901" id="Fill-1560" fill="#CBA598" sketch:type="MSShapeGroup"></path>
            <path d="M41.177,14.014 C40.629,14.044 40.177,14.525 40.177,15.088 C40.177,15.65 40.629,16.065 41.177,16.014 C41.714,15.964 42.142,15.485 42.142,14.942 C42.142,14.4 41.714,13.984 41.177,14.014" id="Fill-1561" fill="#CBA598" sketch:type="MSShapeGroup"></path>
            <path d="M41.177,7.014 C41.714,7.054 42.142,6.646 42.142,6.103 C42.142,5.561 41.714,5.074 41.177,5.014 C40.629,4.953 40.177,5.359 40.177,5.921 C40.177,6.484 40.629,6.973 41.177,7.014" id="Fill-1562" fill="#CBA598" sketch:type="MSShapeGroup"></path>
            <path d="M48.771,16.17 C48.367,16.215 48.034,16.643 48.034,17.125 C48.034,17.607 48.367,17.949 48.771,17.889 C49.168,17.83 49.485,17.404 49.485,16.937 C49.485,16.47 49.168,16.126 48.771,16.17" id="Fill-1563" fill="#CBA598" sketch:type="MSShapeGroup"></path>
            <path d="M44.838,15.675 C43.878,15.764 43.072,16.703 43.072,17.768 C43.072,18.834 43.878,19.564 44.838,19.404 C45.763,19.25 46.489,18.321 46.489,17.326 C46.489,16.329 45.763,15.589 44.838,15.675" id="Fill-1564" fill="#CBA598" sketch:type="MSShapeGroup"></path>
            <path d="M45.677,6.431 C46.572,6.514 47.274,5.784 47.274,4.804 C47.274,3.824 46.572,2.913 45.677,2.764 C44.749,2.609 43.97,3.328 43.97,4.376 C43.97,5.423 44.749,6.345 45.677,6.431" id="Fill-1565" fill="#CBA598" sketch:type="MSShapeGroup"></path>
            <path d="M41.177,11.014 C41.177,12.118 42.042,12.982 43.072,12.944 C44.063,12.907 44.838,12.044 44.838,11.014 C44.838,9.984 44.063,9.121 43.072,9.084 C42.042,9.046 41.177,9.909 41.177,11.014" id="Fill-1566" fill="#CBA598" sketch:type="MSShapeGroup"></path>
            <path d="M49.131,6.75 C48.532,6.695 48.034,7.235 48.034,7.958 C48.034,8.682 48.532,9.286 49.131,9.308 C49.715,9.33 50.177,8.788 50.177,8.097 C50.177,7.407 49.715,6.805 49.131,6.75" id="Fill-1567" fill="#CBA598" sketch:type="MSShapeGroup"></path>
            <path d="M17.814,40.637 C10.15,40.637 5.531,37.273 7.84,32.397 C9.419,29.065 13.515,27.775 17.814,27.775 C22.113,27.775 26.209,29.065 27.787,32.397 C30.097,37.273 25.478,40.637 17.814,40.637" id="Fill-1568" fill="#C56458" sketch:type="MSShapeGroup"></path>
            <path d="M16.015,34.15 C15.513,34.15 15.075,34.46 15.035,34.854 C14.992,35.263 15.39,35.605 15.925,35.605 C16.459,35.605 16.899,35.263 16.908,34.854 C16.916,34.46 16.516,34.15 16.015,34.15" id="Fill-1569" fill="#CBA598" sketch:type="MSShapeGroup"></path>
            <path d="M15.463,30.696 C15.49,30.432 15.177,30.223 14.766,30.223 C14.354,30.223 13.981,30.432 13.932,30.696 C13.882,30.968 14.192,31.195 14.625,31.195 C15.06,31.195 15.435,30.968 15.463,30.696" id="Fill-1570" fill="#CBA598" sketch:type="MSShapeGroup"></path>
            <path d="M21.698,31.194 C22.132,31.194 22.423,30.968 22.351,30.696 C22.28,30.432 21.89,30.223 21.478,30.223 C21.066,30.223 20.771,30.432 20.82,30.696 C20.87,30.968 21.264,31.194 21.698,31.194" id="Fill-1571" fill="#CBA598" sketch:type="MSShapeGroup"></path>
            <path d="M12.314,35.612 C11.78,35.612 11.238,35.964 11.099,36.414 C10.954,36.881 11.297,37.273 11.869,37.273 C12.441,37.273 12.994,36.881 13.1,36.414 C13.202,35.964 12.848,35.612 12.314,35.612" id="Fill-1572" fill="#CBA598" sketch:type="MSShapeGroup"></path>
            <path d="M12.127,31.721 C11.235,31.721 10.339,32.217 10.112,32.864 C9.87,33.555 10.474,34.15 11.477,34.15 C12.479,34.15 13.402,33.555 13.53,32.864 C13.65,32.217 13.019,31.721 12.127,31.721" id="Fill-1573" fill="#CBA598" sketch:type="MSShapeGroup"></path>
            <path d="M25.739,33.488 C25.47,32.801 24.521,32.276 23.604,32.276 C22.687,32.276 22.062,32.801 22.218,33.488 C22.384,34.222 23.366,34.854 24.401,34.854 C25.435,34.854 26.026,34.222 25.739,33.488" id="Fill-1574" fill="#CBA598" sketch:type="MSShapeGroup"></path>
            <path d="M17.759,30.696 C16.913,30.696 16.201,31.141 16.165,31.721 C16.127,32.336 16.859,32.864 17.803,32.864 C18.747,32.864 19.458,32.336 19.395,31.721 C19.335,31.141 18.604,30.696 17.759,30.696" id="Fill-1575" fill="#CBA598" sketch:type="MSShapeGroup"></path>
            <path d="M21.246,35.605 C20.445,35.605 19.85,36.138 19.921,36.83 C19.996,37.562 20.782,38.189 21.672,38.189 C22.562,38.189 23.141,37.562 22.975,36.83 C22.818,36.138 22.048,35.605 21.246,35.605" id="Fill-1576" fill="#CBA598" sketch:type="MSShapeGroup"></path>
            <path d="M17.814,40.637 C12.522,40.637 8.685,39.032 7.575,36.434 C5.986,40.942 10.51,44 17.814,44 C25.117,44 29.641,40.942 28.053,36.434 C26.942,39.032 23.105,40.637 17.814,40.637" id="Fill-1577" fill="#AF564F" sketch:type="MSShapeGroup"></path>
            <path d="M34.311,7 L15.853,7 C15.3,7 14.853,6.553 14.853,6 C14.853,5.447 15.3,5 15.853,5 L34.311,5 C34.863,5 35.311,5.447 35.311,6 C35.311,6.553 34.863,7 34.311,7" id="Fill-1578" fill="#965E5E" sketch:type="MSShapeGroup"></path>
            <path d="M36.048,4 L25.853,4 C25.3,4 24.853,3.553 24.853,3 C24.853,2.447 25.3,2 25.853,2 L36.048,2 C36.601,2 37.048,2.447 37.048,3 C37.048,3.553 36.601,4 36.048,4" id="Fill-1579" fill="#965E5E" sketch:type="MSShapeGroup"></path>
            <path d="M34.327,18 L23.111,18 C22.559,18 22.111,17.553 22.111,17 C22.111,16.447 22.559,16 23.111,16 L34.327,16 C34.88,16 35.327,16.447 35.327,17 C35.327,17.553 34.88,18 34.327,18" id="Fill-1580" fill="#965E5E" sketch:type="MSShapeGroup"></path>
            <path d="M36.048,21 L25.962,21 C25.409,21 24.962,20.553 24.962,20 C24.962,19.447 25.409,19 25.962,19 L36.048,19 C36.601,19 37.048,19.447 37.048,20 C37.048,20.553 36.601,21 36.048,21" id="Fill-1581" fill="#965E5E" sketch:type="MSShapeGroup"></path>
        </g>
    </g>
</svg>