<?xml version="1.0" encoding="UTF-8" standalone="no"?>
<svg width="51px" height="57px" viewBox="0 0 51 57" version="1.1" xmlns="http://www.w3.org/2000/svg" xmlns:xlink="http://www.w3.org/1999/xlink" xmlns:sketch="http://www.bohemiancoding.com/sketch/ns">
    <!-- Generator: Sketch 3.2.2 (9983) - http://www.bohemiancoding.com/sketch -->
    <title>13 - Salmon (Flat)</title>
    <desc>Created with Sketch.</desc>
    <defs></defs>
    <g id="Page-1" stroke="none" stroke-width="1" fill="none" fill-rule="evenodd" sketch:type="MSPage">
        <g id="13---Salmon-(Flat)" sketch:type="MSLayerGroup">
            <path d="M50.564,20.791 C49.513,13.032 43.861,6.627 36.76,2.813 C36.403,2.621 36.04,2.442 35.674,2.276 C33.604,1.338 26.172,0.776 22.929,0.666 C22.813,0.663 22.695,0.645 22.578,0.645 L22.578,0.645 C22.521,0.645 22.463,0.65 22.406,0.651 C22.236,0.648 22.078,0.645 21.947,0.645 L21.954,0.667 C21.491,0.687 21.028,0.721 20.567,0.784 C19.414,0.943 18.278,1.23 17.171,1.634 C8.343,4.853 1.409,12.429 0.967,21.906 C0.789,25.718 1.835,29.481 3.689,32.818 C5.988,36.955 10.155,45.022 9.878,48.699 C9.82,49.463 9.85,50.187 10.039,50.84 C11.032,54.27 13.402,56.645 16.578,56.645 C16.702,56.645 16.817,56.611 16.937,56.595 L16.948,56.645 L21.025,56.645 C22.087,56.645 22.948,55.785 22.948,54.723 L22.948,46.793 C22.948,45.831 23.149,44.865 23.635,44.036 C25.117,41.503 23.683,39.493 23.992,35.3 C24.15,33.157 27.309,33.022 27.537,35.159 C27.564,35.418 27.578,35.682 27.578,35.949 L25.267,51.727 C24.89,54.018 26.153,56.153 27.963,56.56 L34.948,56.645 C38.124,56.645 40.125,54.27 41.118,50.84 C41.266,50.33 41.305,49.781 41.279,49.208 C41.111,45.605 45.573,37.304 47.958,33.144 C50.104,29.4 51.143,25.067 50.564,20.791" id="Fill-2072" fill="#445A66" sketch:type="MSShapeGroup"></path>
            <path d="M20.567,0.784 C19.414,0.943 18.278,1.23 17.171,1.634 C8.343,4.853 1.409,12.429 0.967,21.906 C0.789,25.718 1.835,29.481 3.689,32.818 C5.988,36.955 10.155,45.022 9.878,48.7 C9.82,49.463 9.85,50.187 10.039,50.84 C11.032,54.27 13.402,56.645 16.578,56.645 C18.71,56.645 20.308,54.271 19.89,51.727 L17.578,35.95 C17.578,32.588 19.817,29.863 22.578,29.863 C25.34,29.863 27.578,32.588 27.578,35.95 L25.267,51.727 C24.849,54.271 26.447,56.645 28.578,56.645 C31.755,56.645 34.125,54.27 35.118,50.84 C35.266,50.33 35.305,49.781 35.279,49.208 C35.111,45.605 39.573,37.304 41.958,33.144 C44.104,29.4 45.143,25.067 44.564,20.792 C43.513,13.032 37.861,6.627 30.76,2.813 C30.403,2.621 30.04,2.442 29.674,2.276 C27.356,1.226 24.929,0.645 22.578,0.645 C21.908,0.645 21.236,0.692 20.567,0.784" id="Fill-2073" fill="#FFD3B9" sketch:type="MSShapeGroup"></path>
            <path d="M21.578,16.688 L21.578,12.753 C15.823,12.911 9.333,14.262 2.321,17.645 C2.097,17.754 1.852,17.76 1.628,17.699 C1.272,19.053 1.035,20.454 0.967,21.906 C0.966,21.938 0.968,21.97 0.966,22.002 C8.472,18.295 15.435,16.843 21.578,16.688" id="Fill-2074" fill="#FFA89C" sketch:type="MSShapeGroup"></path>
            <path d="M21.578,5.678 L21.578,0.68 C21.241,0.703 20.904,0.738 20.567,0.784 C19.414,0.943 18.278,1.23 17.171,1.634 C13.139,3.104 9.513,5.491 6.709,8.545 C12.038,6.625 17.026,5.796 21.578,5.678" id="Fill-2075" fill="#FFA89C" sketch:type="MSShapeGroup"></path>
            <path d="M4.365,34.053 C4.935,35.108 5.564,36.307 6.192,37.58 C6.482,37.44 6.826,37.426 7.126,37.602 C9.58,39.04 13.513,40.854 18.382,41.436 L17.795,37.428 L17.544,37.402 C12.998,36.936 8.573,35.806 4.365,34.053" id="Fill-2076" fill="#FFA89C" sketch:type="MSShapeGroup"></path>
            <path d="M21.578,7.682 C16.777,7.812 11.472,8.755 5.774,11.028 C5.44,11.163 5.083,11.087 4.812,10.884 C3.816,12.297 2.989,13.822 2.357,15.436 C9.333,12.216 15.81,10.896 21.578,10.745 L21.578,7.682" id="Fill-2077" fill="#FFA89C" sketch:type="MSShapeGroup"></path>
            <path d="M43.999,18.101 C43.901,18.132 43.8,18.153 43.697,18.153 C43.533,18.153 43.367,18.113 43.214,18.028 C39.002,15.704 32.193,12.923 23.578,12.75 L23.578,16.68 C33.304,16.871 40.751,20.204 44.706,22.465 C44.684,21.907 44.639,21.349 44.564,20.791 C44.44,19.874 44.246,18.978 43.999,18.101" id="Fill-2078" fill="#FFA89C" sketch:type="MSShapeGroup"></path>
            <path d="M23.578,10.743 C31.952,10.904 38.701,13.425 43.163,15.736 C42.447,14.033 41.508,12.425 40.386,10.929 C40.212,11.063 40.001,11.144 39.78,11.144 C39.649,11.144 39.516,11.119 39.388,11.064 C35.329,9.339 29.945,7.8 23.578,7.672 L23.578,10.743" id="Fill-2079" fill="#FFA89C" sketch:type="MSShapeGroup"></path>
            <path d="M23.578,5.667 C29.329,5.779 34.31,6.994 38.304,8.484 C36.144,6.241 33.569,4.322 30.76,2.813 C30.403,2.621 30.04,2.442 29.674,2.276 C27.682,1.374 25.613,0.844 23.578,0.706 L23.578,5.667" id="Fill-2080" fill="#FFA89C" sketch:type="MSShapeGroup"></path>
            <path d="M25.555,54.356 C26.102,55.696 27.232,56.645 28.578,56.645 C31.513,56.645 33.745,54.605 34.853,51.591 C31.77,53.004 28.648,53.935 25.555,54.356" id="Fill-2081" fill="#FFA89C" sketch:type="MSShapeGroup"></path>
            <path d="M26.844,43.161 C26.783,43.172 26.724,43.176 26.665,43.176 C26.616,43.176 26.571,43.158 26.523,43.151 L25.935,47.167 C29.244,46.637 32.569,45.507 35.823,43.797 C36.089,43.658 36.384,43.659 36.644,43.758 C37.349,41.986 38.249,40.086 39.163,38.294 C35.106,40.778 30.969,42.417 26.844,43.161" id="Fill-2082" fill="#FFA89C" sketch:type="MSShapeGroup"></path>
            <path d="M25.781,49.208 C25.732,49.208 25.688,49.189 25.64,49.182 L25.267,51.727 C25.23,51.949 25.228,52.166 25.221,52.384 C28.391,51.959 31.605,50.965 34.776,49.422 C34.938,49.344 35.109,49.328 35.276,49.339 C35.275,49.295 35.281,49.253 35.279,49.208 C35.24,48.367 35.46,47.265 35.839,46.025 C32.578,47.632 29.25,48.702 25.93,49.197 C25.88,49.204 25.83,49.208 25.781,49.208" id="Fill-2083" fill="#FFA89C" sketch:type="MSShapeGroup"></path>
            <path d="M19.552,49.421 C19.504,49.428 19.46,49.448 19.41,49.448 C19.385,49.448 19.359,49.447 19.332,49.445 C16.08,49.193 12.868,48.386 9.771,47.059 C9.872,47.667 9.914,48.222 9.878,48.699 C9.835,49.263 9.841,49.805 9.923,50.313 C10.135,50.254 10.364,50.249 10.581,50.341 C13.596,51.631 16.734,52.385 19.907,52.583 C19.923,52.583 19.935,52.592 19.95,52.594 C19.953,52.309 19.938,52.02 19.89,51.727 L19.552,49.421" id="Fill-2084" fill="#FFA89C" sketch:type="MSShapeGroup"></path>
            <path d="M27.636,37.331 C27.597,37.336 27.559,37.337 27.521,37.337 C27.471,37.337 27.427,37.318 27.379,37.311 L26.821,41.122 C31.068,40.304 35.344,38.483 39.533,35.69 C39.852,35.479 40.242,35.485 40.556,35.653 C40.971,34.892 41.363,34.19 41.721,33.561 C37.064,35.518 32.332,36.792 27.636,37.331" id="Fill-2085" fill="#FFA89C" sketch:type="MSShapeGroup"></path>
            <path d="M9.926,44.948 C12.943,46.324 16.083,47.15 19.26,47.423 L18.676,43.441 C18.628,43.448 18.584,43.468 18.534,43.468 C18.498,43.468 18.461,43.465 18.425,43.462 C14.639,43.047 10.835,41.854 7.336,40.002 C8.096,41.684 8.775,43.377 9.244,44.906 C9.463,44.845 9.702,44.845 9.926,44.948" id="Fill-2086" fill="#FFA89C" sketch:type="MSShapeGroup"></path>
            <path d="M27.552,35.325 C32.391,34.752 37.275,33.38 42.071,31.24 C42.351,31.114 42.651,31.139 42.906,31.262 C43.861,29.151 44.465,26.902 44.648,24.61 C44.493,24.602 44.337,24.563 44.195,24.478 C40.566,22.331 33.256,18.882 23.578,18.685 L23.578,23.863 C23.578,24.416 23.131,24.863 22.578,24.863 C22.026,24.863 21.578,24.416 21.578,23.863 L21.578,18.694 C15.581,18.853 8.767,20.289 1.408,24.003 C1.281,24.067 1.146,24.099 1.011,24.106 C1.208,26.765 1.962,29.361 3.146,31.767 C3.407,31.632 3.718,31.6 4.007,31.729 C8.081,33.557 12.384,34.759 16.813,35.306 C16.965,35.126 17.181,34.998 17.433,34.961 C17.507,34.949 17.577,34.966 17.649,34.971 C18.034,32.075 20.091,29.862 22.578,29.862 C25.167,29.862 27.295,32.256 27.552,35.325" id="Fill-2087" fill="#FFA89C" sketch:type="MSShapeGroup"></path>
            <path d="M10.699,52.524 C11.902,55.015 13.959,56.645 16.579,56.645 C17.857,56.645 18.933,55.782 19.508,54.55 C16.516,54.335 13.56,53.645 10.699,52.524" id="Fill-2088" fill="#FFA89C" sketch:type="MSShapeGroup"></path>
            <path d="M22.473,24 C18.874,24 15.946,26.635 15.946,29.874 C15.946,30.814 16.196,31.728 16.666,32.549 C18.134,30.635 20.234,29.505 22.473,29.505 C24.712,29.505 26.814,30.635 28.28,32.549 C28.75,31.726 29,30.814 29,29.874 C29,26.635 26.072,24 22.473,24" id="Fill-2089" fill="#FFD3B9" sketch:type="MSShapeGroup"></path>
        </g>
    </g>
</svg>