<?xml version="1.0" encoding="UTF-8" standalone="no"?>
<svg width="49px" height="45px" viewBox="0 0 49 45" version="1.1" xmlns="http://www.w3.org/2000/svg" xmlns:xlink="http://www.w3.org/1999/xlink" xmlns:sketch="http://www.bohemiancoding.com/sketch/ns">
    <!-- Generator: Sketch 3.2.2 (9983) - http://www.bohemiancoding.com/sketch -->
    <title>88 - Sandwhich (Flat)</title>
    <desc>Created with Sketch.</desc>
    <defs></defs>
    <g id="Page-1" stroke="none" stroke-width="1" fill="none" fill-rule="evenodd" sketch:type="MSPage">
        <g id="Icons" sketch:type="MSArtboardGroup" transform="translate(-366.000000, -2044.000000)">
            <g id="88---Sandwhich-(Flat)" sketch:type="MSLayerGroup" transform="translate(366.000000, 2044.000000)">
                <path d="M46.5,38 L2.5,38 C1.125,38 0,36.875 0,35.5 C0,34.125 1.125,33 2.5,33 L46.5,33 C47.875,33 49,34.125 49,35.5 C49,36.875 47.875,38 46.5,38" id="Fill-493" fill="#6A3311" sketch:type="MSShapeGroup"></path>
                <path d="M46.5,34 L2.5,34 C1.125,34 0,32.875 0,31.5 C0,30.125 1.125,29 2.5,29 L46.5,29 C47.875,29 49,30.125 49,31.5 C49,32.875 47.875,34 46.5,34" id="Fill-494" fill="#A8431A" sketch:type="MSShapeGroup"></path>
                <path d="M6.5,27 C3.75,27 4.116,25.991 4,25 C1.358,25.5 0,27.004 0,28.5 C0,30.433 3.134,32 7,32 C10.866,32 14,30.433 14,28.5 C14,27.962 13.75,27.455 13.317,27 L6.5,27" id="Fill-495" fill="#ED3F32" sketch:type="MSShapeGroup"></path>
                <path d="M13.298,27 C13.735,27.456 14,27.96 14,28.5 C14,29.316 13.437,30.065 12.5,30.661 C13.782,31.475 15.766,32 18,32 C21.866,32 25,30.433 25,28.5 C25,27.962 24.75,27.455 24.317,27 L13.298,27" id="Fill-496" fill="#F9EB80" sketch:type="MSShapeGroup"></path>
                <path d="M3,21 L45,21 L45,27 L3,27 L3,21 Z" id="Fill-497" fill="#D28F1B" sketch:type="MSShapeGroup"></path>
                <path d="M45,21 L3,21 L24,0 L45,21" id="Fill-498" fill="#FDE3AA" sketch:type="MSShapeGroup"></path>
                <path d="M45,26.54 L45,27 L35.793,27 C35.676,27.056 35.567,27.114 35.461,27.173 C35.799,27.583 36,28.029 36,28.5 C36,29.212 35.572,29.874 34.841,30.427 C36.025,31.364 38.339,32 41,32 C44.866,32 48,30.657 48,29 C48,27.981 46.812,27.082 45,26.54" id="Fill-499" fill="#F9EB80" sketch:type="MSShapeGroup"></path>
                <path d="M24.305,27 C24.742,27.455 25,27.961 25,28.5 C25,29.157 24.631,29.77 24,30.296 C25.223,31.315 27.449,32 30,32 C33.866,32 37,30.433 37,28.5 C37,27.962 36.75,27.455 36.317,27 L24.305,27" id="Fill-500" fill="#ED3F32" sketch:type="MSShapeGroup"></path>
                <path d="M35,17 C35,17.552 34.552,18 34,18 C33.448,18 33,17.552 33,17 C33,16.448 33.448,16 34,16 C34.552,16 35,16.448 35,17" id="Fill-501" fill="#D28F1B" sketch:type="MSShapeGroup"></path>
                <path d="M24,8 C24,8.552 23.552,9 23,9 C22.448,9 22,8.552 22,8 C22,7.448 22.448,7 23,7 C23.552,7 24,7.448 24,8" id="Fill-502" fill="#D28F1B" sketch:type="MSShapeGroup"></path>
                <path d="M15,17 C15,17.552 14.552,18 14,18 C13.448,18 13,17.552 13,17 C13,16.448 13.448,16 14,16 C14.552,16 15,16.448 15,17" id="Fill-503" fill="#D28F1B" sketch:type="MSShapeGroup"></path>
                <path d="M28,14 C28,14.552 27.552,15 27,15 C26.448,15 26,14.552 26,14 C26,13.448 26.448,13 27,13 C27.552,13 28,13.448 28,14" id="Fill-504" fill="#D28F1B" sketch:type="MSShapeGroup"></path>
                <path d="M22,15 C22,15.552 21.552,16 21,16 C20.448,16 20,15.552 20,15 C20,14.448 20.448,14 21,14 C21.552,14 22,14.448 22,15" id="Fill-505" fill="#D28F1B" sketch:type="MSShapeGroup"></path>
                <path d="M1.224,38 L47,38 L47,44.695 L1.224,44.695 L1.224,38 Z" id="Fill-506" fill="#FDE3AA" sketch:type="MSShapeGroup"></path>
                <path d="M32,40 C32,40.552 31.552,41 31,41 C30.448,41 30,40.552 30,40 C30,39.448 30.448,39 31,39 C31.552,39 32,39.448 32,40" id="Fill-507" fill="#D28F1B" sketch:type="MSShapeGroup"></path>
                <path d="M40,42 C40,42.552 39.552,43 39,43 C38.448,43 38,42.552 38,42 C38,41.448 38.448,41 39,41 C39.552,41 40,41.448 40,42" id="Fill-508" fill="#D28F1B" sketch:type="MSShapeGroup"></path>
                <path d="M8,42 C8,42.552 7.552,43 7,43 C6.448,43 6,42.552 6,42 C6,41.448 6.448,41 7,41 C7.552,41 8,41.448 8,42" id="Fill-509" fill="#D28F1B" sketch:type="MSShapeGroup"></path>
                <path d="M25,42 C25,42.552 24.552,43 24,43 C23.448,43 23,42.552 23,42 C23,41.448 23.448,41 24,41 C24.552,41 25,41.448 25,42" id="Fill-510" fill="#D28F1B" sketch:type="MSShapeGroup"></path>
                <path d="M16,40 C16,40.552 15.552,41 15,41 C14.448,41 14,40.552 14,40 C14,39.448 14.448,39 15,39 C15.552,39 16,39.448 16,40" id="Fill-511" fill="#D28F1B" sketch:type="MSShapeGroup"></path>
            </g>
        </g>
    </g>
</svg>