<?xml version="1.0" encoding="UTF-8" standalone="no"?>
<svg width="43px" height="51px" viewBox="0 0 43 51" version="1.1" xmlns="http://www.w3.org/2000/svg" xmlns:xlink="http://www.w3.org/1999/xlink" xmlns:sketch="http://www.bohemiancoding.com/sketch/ns">
    <!-- Generator: Sketch 3.2.2 (9983) - http://www.bohemiancoding.com/sketch -->
    <title>188 - Seeds (Flat)</title>
    <desc>Created with Sketch.</desc>
    <defs></defs>
    <g id="Page-1" stroke="none" stroke-width="1" fill="none" fill-rule="evenodd" sketch:type="MSPage">
        <g id="188---Seeds-(Flat)" sketch:type="MSLayerGroup">
            <path d="M18.109,34.629 C18.668,33.204 19.323,31.808 20.086,30.47 C21.307,28.321 22.771,26.312 24.442,24.533 C27.628,21.654 30.61,19.913 33.127,18.875 C33.207,18.362 33.28,17.849 33.332,17.335 C33.525,7.437 29.862,2.311 28.464,0.934 C26.511,1.133 20.447,2.842 14.406,10.685 C13.079,12.734 11.998,14.973 11.18,17.305 C10.359,19.637 9.803,22.06 9.556,24.488 C9.364,34.387 15.345,32.914 16.744,34.291 C17.128,34.252 17.582,34.41 18.109,34.629" id="Fill-356" fill="#2D1E1C" sketch:type="MSShapeGroup"></path>
            <path d="M17.538,37.247 C17.793,36.363 18.104,35.492 18.443,34.629 L18.442,34.629 C17.916,34.41 17.461,34.252 17.077,34.291 C15.678,32.914 9.697,34.387 9.89,24.488 C10.136,22.06 10.693,19.637 11.513,17.305 C11.965,16.019 12.504,14.765 13.112,13.551 C10.013,11.093 7.388,10.226 6.22,10.023 C4.729,11.3 0.717,16.157 0.217,26.044 C0.293,28.484 0.679,30.94 1.335,33.323 C1.988,35.708 2.91,38.016 4.09,40.153 C9.569,48.399 13.647,43.783 15.581,44.119 C15.987,43.771 16.719,43.657 17.577,43.477 C17.09,42.062 16.965,40.089 17.538,37.247" id="Fill-357" fill="#564442" sketch:type="MSShapeGroup"></path>
            <path d="M32.29,29.722 L36.163,17.874 C33.203,18.595 29.032,20.385 24.442,24.533 C22.771,26.312 21.307,28.321 20.086,30.47 C18.862,32.618 17.881,34.902 17.205,37.247 C15.247,46.952 21.395,46.571 22.525,48.176 C24.482,48.329 27.294,53.809 34.639,47.171 C36.31,45.392 37.774,43.383 38.995,41.234 C40.22,39.086 41.2,36.802 41.876,34.457 C42.971,29.031 42.612,24.86 41.887,21.955 L32.29,29.722" id="Fill-358" fill="#56413E" sketch:type="MSShapeGroup"></path>
            <path d="M32.29,29.722 L40.546,23.04 C40.048,21.153 39.382,19.9 38.961,19.302 C38.315,19.251 37.137,19.294 35.575,19.675 L32.29,29.722" id="Fill-359" fill="#F9EB80" sketch:type="MSShapeGroup"></path>
        </g>
    </g>
</svg>