<?xml version="1.0" encoding="UTF-8" standalone="no"?>
<svg width="57px" height="52px" viewBox="0 0 57 52" version="1.1" xmlns="http://www.w3.org/2000/svg" xmlns:xlink="http://www.w3.org/1999/xlink" xmlns:sketch="http://www.bohemiancoding.com/sketch/ns">
    <!-- Generator: Sketch 3.2.2 (9983) - http://www.bohemiancoding.com/sketch -->
    <title>206 - Shallot (Flat)</title>
    <desc>Created with Sketch.</desc>
    <defs></defs>
    <g id="Page-1" stroke="none" stroke-width="1" fill="none" fill-rule="evenodd" sketch:type="MSPage">
        <g id="206---Shallot-(Flat)" sketch:type="MSLayerGroup">
            <path d="M28.227,45.033 L24.028,49.233 M28.227,45.033 L28.227,50.633 M28.227,45.033 L32.427,49.233 M28.227,45.033 L35.227,46.433 M28.227,45.15 L21.227,46.316" id="Stroke-141" stroke="#A46F3E" stroke-width="2" stroke-linecap="round" sketch:type="MSShapeGroup"></path>
            <path d="M46.973,19.833 C33.565,12.657 31.227,0.974 31.227,0.974 L25.227,0.974 C25.227,0.974 22.891,12.657 9.482,19.833 C3.8,22.578 0.227,26.552 0.227,30.974 C0.227,38.531 10.658,44.402 24.227,45.442 C27.337,45.68 29.08,45.688 32.227,45.509 C46.281,44.707 56.227,38.715 56.227,30.974 C56.227,26.552 52.655,22.578 46.973,19.833" id="Fill-142" fill="#962F34" sketch:type="MSShapeGroup"></path>
            <path d="M28.87,45.693 C36.775,44.172 44.685,37.781 45.227,30.059 C45.415,27.393 44.748,24.476 42.227,22.059 C39.364,19.314 39.569,19.595 38.058,18.083 C34.299,14.325 31.691,9.527 30.227,5.37 C28.447,0.313 28.008,0.313 26.228,5.371 C24.764,9.528 22.156,14.325 18.397,18.083 C16.886,19.595 17.091,19.314 14.227,22.059 C11.707,24.476 11.04,27.393 11.227,30.059 C11.77,37.781 19.68,44.172 27.585,45.693 L28.87,45.693" id="Fill-143" fill="#7C2832" sketch:type="MSShapeGroup"></path>
            <path d="M28.463,45.633 C31.726,44.822 34.991,39.353 35.215,31.537 C35.293,28.838 35.018,25.886 33.977,23.44 C32.795,20.662 32.88,20.946 32.256,19.416 C31.684,18.015 31.191,16.471 30.765,14.869 C26.199,-2.324 30.196,-2.324 25.63,14.869 C25.205,16.471 24.712,18.015 24.14,19.416 C23.516,20.946 23.601,20.662 22.419,23.44 C21.378,25.886 21.103,28.838 21.18,31.537 C21.405,39.353 24.669,44.822 27.933,45.633 L28.463,45.633" id="Fill-144" fill="#A0444D" sketch:type="MSShapeGroup"></path>
        </g>
    </g>
</svg>