<?xml version="1.0" encoding="UTF-8" standalone="no"?>
<svg width="59px" height="42px" viewBox="0 0 59 42" version="1.1" xmlns="http://www.w3.org/2000/svg" xmlns:xlink="http://www.w3.org/1999/xlink" xmlns:sketch="http://www.bohemiancoding.com/sketch/ns">
    <!-- Generator: Sketch 3.2.2 (9983) - http://www.bohemiancoding.com/sketch -->
    <title>152 - Sieve Stariner (Flat)</title>
    <desc>Created with Sketch.</desc>
    <defs></defs>
    <g id="Page-1" stroke="none" stroke-width="1" fill="none" fill-rule="evenodd" sketch:type="MSPage">
        <g id="152---Sieve-Stariner-(Flat)" sketch:type="MSLayerGroup" transform="translate(1.000000, 0.000000)">
            <path d="M53.946,6.378 C53.946,2.983 42.541,0.229 28.473,0.229 C14.405,0.229 3,2.983 3,6.378 L3,6.527 C3,20.595 14.405,32 28.473,32 C42.541,32 53.946,20.595 53.946,6.527 L53.946,6.378" id="Fill-751" fill="#E6E6E6" sketch:type="MSShapeGroup"></path>
            <path d="M53.946,6.378 C53.946,9.774 42.541,12.527 28.473,12.527 C14.405,12.527 3,9.774 3,6.378 C3,2.982 14.405,0.229 28.473,0.229 C42.541,0.229 53.946,2.982 53.946,6.378" id="Fill-752" fill="#D2D5D7" sketch:type="MSShapeGroup"></path>
            <path d="M20.934,39.827 C20.934,40.864 24.442,41.705 28.768,41.705 C33.095,41.705 36.602,40.864 36.602,39.827 L36.602,39.781 C36.602,35.484 33.095,32 28.768,32 C24.442,32 20.934,35.484 20.934,39.781 L20.934,39.827" id="Fill-753" fill="#E6E6E6" sketch:type="MSShapeGroup"></path>
            <path d="M13,16 C13,16.552 12.552,17 12,17 C11.448,17 11,16.552 11,16 C11,15.448 11.448,15 12,15 C12.552,15 13,15.448 13,16" id="Fill-754" fill="#D2D5D7" sketch:type="MSShapeGroup"></path>
            <path d="M17,18 C17,18.552 16.552,19 16,19 C15.448,19 15,18.552 15,18 C15,17.448 15.448,17 16,17 C16.552,17 17,17.448 17,18" id="Fill-755" fill="#D2D5D7" sketch:type="MSShapeGroup"></path>
            <path d="M22,20 C22,20.552 21.552,21 21,21 C20.448,21 20,20.552 20,20 C20,19.448 20.448,19 21,19 C21.552,19 22,19.448 22,20" id="Fill-756" fill="#D2D5D7" sketch:type="MSShapeGroup"></path>
            <path d="M10,19 C10,19.552 9.552,20 9,20 C8.448,20 8,19.552 8,19 C8,18.448 8.448,18 9,18 C9.552,18 10,18.448 10,19" id="Fill-757" fill="#D2D5D7" sketch:type="MSShapeGroup"></path>
            <path d="M14,21 C14,21.552 13.552,22 13,22 C12.448,22 12,21.552 12,21 C12,20.448 12.448,20 13,20 C13.552,20 14,20.448 14,21" id="Fill-758" fill="#D2D5D7" sketch:type="MSShapeGroup"></path>
            <path d="M18,24 C18,24.552 17.552,25 17,25 C16.448,25 16,24.552 16,24 C16,23.448 16.448,23 17,23 C17.552,23 18,23.448 18,24" id="Fill-759" fill="#D2D5D7" sketch:type="MSShapeGroup"></path>
            <path d="M23,25 C23,25.552 22.552,26 22,26 C21.448,26 21,25.552 21,25 C21,24.448 21.448,24 22,24 C22.552,24 23,24.448 23,25" id="Fill-760" fill="#D2D5D7" sketch:type="MSShapeGroup"></path>
            <path d="M27,21 C27,21.552 26.552,22 26,22 C25.448,22 25,21.552 25,21 C25,20.448 25.448,20 26,20 C26.552,20 27,20.448 27,21" id="Fill-761" fill="#D2D5D7" sketch:type="MSShapeGroup"></path>
            <path d="M28,26 C28,26.552 27.552,27 27,27 C26.448,27 26,26.552 26,26 C26,25.448 26.448,25 27,25 C27.552,25 28,25.448 28,26" id="Fill-762" fill="#D2D5D7" sketch:type="MSShapeGroup"></path>
            <path d="M48,14 C48,14.552 48.448,15 49,15 C49.552,15 50,14.552 50,14 C50,13.448 49.552,13 49,13 C48.448,13 48,13.448 48,14" id="Fill-763" fill="#D2D5D7" sketch:type="MSShapeGroup"></path>
            <path d="M44,16 C44,16.552 44.448,17 45,17 C45.552,17 46,16.552 46,16 C46,15.448 45.552,15 45,15 C44.448,15 44,15.448 44,16" id="Fill-764" fill="#D2D5D7" sketch:type="MSShapeGroup"></path>
            <path d="M40,18 C40,18.552 40.448,19 41,19 C41.552,19 42,18.552 42,18 C42,17.448 41.552,17 41,17 C40.448,17 40,17.448 40,18" id="Fill-765" fill="#D2D5D7" sketch:type="MSShapeGroup"></path>
            <path d="M35,20 C35,20.552 35.448,21 36,21 C36.552,21 37,20.552 37,20 C37,19.448 36.552,19 36,19 C35.448,19 35,19.448 35,20" id="Fill-766" fill="#D2D5D7" sketch:type="MSShapeGroup"></path>
            <path d="M47,19 C47,19.552 47.448,20 48,20 C48.552,20 49,19.552 49,19 C49,18.448 48.552,18 48,18 C47.448,18 47,18.448 47,19" id="Fill-767" fill="#D2D5D7" sketch:type="MSShapeGroup"></path>
            <path d="M43,21 C43,21.552 43.448,22 44,22 C44.552,22 45,21.552 45,21 C45,20.448 44.552,20 44,20 C43.448,20 43,20.448 43,21" id="Fill-768" fill="#D2D5D7" sketch:type="MSShapeGroup"></path>
            <path d="M39,24 C39,24.552 39.448,25 40,25 C40.552,25 41,24.552 41,24 C41,23.448 40.552,23 40,23 C39.448,23 39,23.448 39,24" id="Fill-769" fill="#D2D5D7" sketch:type="MSShapeGroup"></path>
            <path d="M35,25 C35,25.552 35.448,26 36,26 C36.552,26 37,25.552 37,25 C37,24.448 36.552,24 36,24 C35.448,24 35,24.448 35,25" id="Fill-770" fill="#D2D5D7" sketch:type="MSShapeGroup"></path>
            <path d="M30,21 C30,21.552 30.448,22 31,22 C31.552,22 32,21.552 32,21 C32,20.448 31.552,20 31,20 C30.448,20 30,20.448 30,21" id="Fill-771" fill="#D2D5D7" sketch:type="MSShapeGroup"></path>
            <path d="M17,14 C17,14.552 16.552,15 16,15 C15.448,15 15,14.552 15,14 C15,13.448 15.448,13 16,13 C16.552,13 17,13.448 17,14" id="Fill-772" fill="#D2D5D7" sketch:type="MSShapeGroup"></path>
            <path d="M22,16 C22,16.552 21.552,17 21,17 C20.448,17 20,16.552 20,16 C20,15.448 20.448,15 21,15 C21.552,15 22,15.448 22,16" id="Fill-773" fill="#D2D5D7" sketch:type="MSShapeGroup"></path>
            <path d="M9,14 C9,14.552 8.552,15 8,15 C7.448,15 7,14.552 7,14 C7,13.448 7.448,13 8,13 C8.552,13 9,13.448 9,14" id="Fill-774" fill="#D2D5D7" sketch:type="MSShapeGroup"></path>
            <path d="M27,16 C27,16.552 26.552,17 26,17 C25.448,17 25,16.552 25,16 C25,15.448 25.448,15 26,15 C26.552,15 27,15.448 27,16" id="Fill-775" fill="#D2D5D7" sketch:type="MSShapeGroup"></path>
            <path d="M40,14 C40,14.552 40.448,15 41,15 C41.552,15 42,14.552 42,14 C42,13.448 41.552,13 41,13 C40.448,13 40,13.448 40,14" id="Fill-776" fill="#D2D5D7" sketch:type="MSShapeGroup"></path>
            <path d="M35,16 C35,16.552 35.448,17 36,17 C36.552,17 37,16.552 37,16 C37,15.448 36.552,15 36,15 C35.448,15 35,15.448 35,16" id="Fill-777" fill="#D2D5D7" sketch:type="MSShapeGroup"></path>
            <path d="M30,16 C30,16.552 30.448,17 31,17 C31.552,17 32,16.552 32,16 C32,15.448 31.552,15 31,15 C30.448,15 30,15.448 30,16" id="Fill-778" fill="#D2D5D7" sketch:type="MSShapeGroup"></path>
            <path d="M31,26 C31,26.552 31.448,27 32,27 C32.552,27 33,26.552 33,26 C33,25.448 32.552,25 32,25 C31.448,25 31,25.448 31,26" id="Fill-779" fill="#D2D5D7" sketch:type="MSShapeGroup"></path>
            <path d="M15,26 C15,26.552 14.552,27 14,27 C13.448,27 13,26.552 13,26 C13,25.448 13.448,25 14,25 C14.552,25 15,25.448 15,26" id="Fill-780" fill="#D2D5D7" sketch:type="MSShapeGroup"></path>
            <path d="M20,29 C20,29.552 19.552,30 19,30 C18.448,30 18,29.552 18,29 C18,28.448 18.448,28 19,28 C19.552,28 20,28.448 20,29" id="Fill-781" fill="#D2D5D7" sketch:type="MSShapeGroup"></path>
            <path d="M25,30 C25,30.552 24.552,31 24,31 C23.448,31 23,30.552 23,30 C23,29.448 23.448,29 24,29 C24.552,29 25,29.448 25,30" id="Fill-782" fill="#D2D5D7" sketch:type="MSShapeGroup"></path>
            <path d="M42,26 C42,26.552 42.448,27 43,27 C43.552,27 44,26.552 44,26 C44,25.448 43.552,25 43,25 C42.448,25 42,25.448 42,26" id="Fill-783" fill="#D2D5D7" sketch:type="MSShapeGroup"></path>
            <path d="M38,28 C38,28.552 38.448,29 39,29 C39.552,29 40,28.552 40,28 C40,27.448 39.552,27 39,27 C38.448,27 38,27.448 38,28" id="Fill-784" fill="#D2D5D7" sketch:type="MSShapeGroup"></path>
            <path d="M33,30 C33,30.552 33.448,31 34,31 C34.552,31 35,30.552 35,30 C35,29.448 34.552,29 34,29 C33.448,29 33,29.448 33,30" id="Fill-785" fill="#D2D5D7" sketch:type="MSShapeGroup"></path>
            <path d="M28,30 C28,30.552 28.448,31 29,31 C29.552,31 30,30.552 30,30 C30,29.448 29.552,29 29,29 C28.448,29 28,29.448 28,30" id="Fill-786" fill="#D2D5D7" sketch:type="MSShapeGroup"></path>
            <path d="M7,21 C4.077,22.562 0,22.034 0,17.262 C0,8 0.085,9.562 3.008,8 M50,21 C52.923,22.562 57,22.034 57,17.262 C57,8 56.915,9.562 53.992,8" id="Stroke-787" stroke="#D2D5D7" stroke-width="2" stroke-linecap="round" sketch:type="MSShapeGroup"></path>
        </g>
    </g>
</svg>