<?xml version="1.0" encoding="UTF-8" standalone="no"?>
<svg width="55px" height="58px" viewBox="0 0 55 58" version="1.1" xmlns="http://www.w3.org/2000/svg" xmlns:xlink="http://www.w3.org/1999/xlink" xmlns:sketch="http://www.bohemiancoding.com/sketch/ns">
    <!-- Generator: Sketch 3.2.2 (9983) - http://www.bohemiancoding.com/sketch -->
    <title>169 - Slotted Spoon (Flat)</title>
    <desc>Created with Sketch.</desc>
    <defs></defs>
    <g id="Page-1" stroke="none" stroke-width="1" fill="none" fill-rule="evenodd" sketch:type="MSPage">
        <g id="169---Slotted-Spoon-(Flat)" sketch:type="MSLayerGroup">
            <path d="M21.387,35.133 L33.922,22.598" id="Stroke-438" stroke="#D2D5D7" stroke-width="2" sketch:type="MSShapeGroup"></path>
            <path d="M26.228,44.633 C26.228,51.813 20.407,57.633 13.227,57.633 C6.048,57.633 0.228,51.813 0.228,44.633 C0.228,37.453 6.048,31.633 13.227,31.633 C20.407,31.633 26.228,37.453 26.228,44.633" id="Fill-439" fill="#D2D5D7" sketch:type="MSShapeGroup"></path>
            <path d="M13.227,51.633 L13.227,53.633 M13.227,35.633 L13.227,37.633 M11.106,42.512 L11.813,43.219 M14.642,46.047 L15.349,46.754 M6.227,44.633 L4.227,44.633 M22.227,44.633 L20.228,44.633 M8.278,49.583 L6.863,50.997 M19.591,38.269 L18.177,39.683 M8.278,39.683 L6.863,38.269 M19.591,50.997 L18.177,49.583 M15.349,42.512 L14.642,43.219 M11.813,46.047 L11.106,46.754" id="Stroke-440" stroke="#E6E6E6" stroke-width="2" stroke-linecap="round" sketch:type="MSShapeGroup"></path>
            <path d="M54.962,6.489 C54.962,6.489 54.895,4.7 52.995,2.8 L52.994,2.8 C52.994,2.8 51.103,0.802 49.305,0.833 C49.305,0.833 38.919,5.296 31.227,18.91 C31.227,18.91 31.295,20.699 33.195,22.599 L33.196,22.598 C33.196,22.598 35.086,24.597 36.885,24.566 C36.885,24.566 47.271,20.103 54.962,6.489" id="Fill-441" fill="#A46F3E" sketch:type="MSShapeGroup"></path>
            <path d="M49.731,3.234 C49.341,2.844 48.707,2.844 48.317,3.234 L45.987,5.564 C45.597,5.954 45.597,6.588 45.987,6.978 C46.182,7.174 46.438,7.271 46.694,7.271 C46.95,7.271 47.206,7.174 47.401,6.978 L49.732,4.648 C50.122,4.258 50.122,3.624 49.731,3.234" id="Fill-442" fill="#C18757" sketch:type="MSShapeGroup"></path>
            <path d="M44.888,9.492 C45.278,9.101 45.278,8.469 44.888,8.078 C44.497,7.687 43.864,7.687 43.474,8.078 L36.859,14.692 C36.469,15.083 36.469,15.716 36.859,16.106 C37.055,16.302 37.31,16.399 37.566,16.399 C37.822,16.399 38.078,16.302 38.273,16.106 L44.888,9.492" id="Fill-443" fill="#C18757" sketch:type="MSShapeGroup"></path>
            <path d="M40.266,16.942 L37.9,19.308 C37.509,19.699 37.509,20.332 37.9,20.723 C38.095,20.918 38.351,21.016 38.607,21.016 C38.863,21.016 39.119,20.918 39.314,20.723 L41.681,18.356 C42.071,17.966 42.071,17.332 41.68,16.942 C41.29,16.552 40.656,16.552 40.266,16.942" id="Fill-444" fill="#C18757" sketch:type="MSShapeGroup"></path>
            <path d="M47.916,9.293 L43.095,14.114 C42.704,14.505 42.704,15.138 43.095,15.528 C43.29,15.724 43.546,15.821 43.802,15.821 C44.058,15.821 44.314,15.724 44.509,15.528 L49.33,10.707 C49.721,10.316 49.721,9.683 49.33,9.293 C48.94,8.902 48.307,8.902 47.916,9.293" id="Fill-445" fill="#C18757" sketch:type="MSShapeGroup"></path>
            <path d="M34.609,16.942 L32.006,19.546 C31.615,19.936 31.615,20.569 32.006,20.96 C32.201,21.155 32.457,21.253 32.713,21.253 C32.969,21.253 33.225,21.155 33.42,20.96 L36.023,18.356 C36.414,17.966 36.414,17.333 36.023,16.942 C35.633,16.552 35,16.552 34.609,16.942" id="Fill-446" fill="#C18757" sketch:type="MSShapeGroup"></path>
            <path d="M52.769,5.853 C52.378,5.463 51.746,5.463 51.355,5.853 L50.165,7.043 C49.775,7.433 49.775,8.066 50.165,8.457 C50.361,8.652 50.617,8.75 50.873,8.75 C51.128,8.75 51.384,8.652 51.58,8.457 L52.769,7.267 C53.16,6.877 53.16,6.244 52.769,5.853" id="Fill-447" fill="#C18757" sketch:type="MSShapeGroup"></path>
        </g>
    </g>
</svg>