<?xml version="1.0" encoding="UTF-8" standalone="no"?>
<svg width="30px" height="49px" viewBox="0 0 30 49" version="1.1" xmlns="http://www.w3.org/2000/svg" xmlns:xlink="http://www.w3.org/1999/xlink" xmlns:sketch="http://www.bohemiancoding.com/sketch/ns">
    <!-- Generator: Sketch 3.2.2 (9983) - http://www.bohemiancoding.com/sketch -->
    <title>22 - Soda Can (Flat)</title>
    <desc>Created with Sketch.</desc>
    <defs></defs>
    <g id="Page-1" stroke="none" stroke-width="1" fill="none" fill-rule="evenodd" sketch:type="MSPage">
        <g id="22---Soda-Can-(Flat)" sketch:type="MSLayerGroup">
            <path d="M0,27 L0,5.917 C0,4.555 0.829,3.331 2.094,2.825 C3.142,2.406 4,1.139 4,0.011 L4,0 L26,0 L26,0.011 C26,1.139 26.858,2.406 27.906,2.825 C29.171,3.331 30,4.555 30,5.917 L30,27 L30,22 L30,43.082 C30,44.444 29.171,45.669 27.906,46.175 C26.858,46.594 26,47.86 26,48.989 L26,49 L4,49 L4,48.989 C4,47.86 3.142,46.594 2.094,46.175 C0.829,45.669 0,44.444 0,43.082 L0,22" id="Fill-1921" fill="#003879" sketch:type="MSShapeGroup"></path>
            <path d="M15,37 C8.925,37 4,32.075 4,26 C4,19.925 8.925,15 15,15 C21.075,15 26,19.925 26,26 C26,32.075 21.075,37 15,37" id="Fill-1922" fill="#F9D70B" sketch:type="MSShapeGroup"></path>
            <path d="M14.808,26.146 C14.808,22.343 11.942,19.219 8.251,18.806 C6.232,20.61 4.954,23.225 4.954,26.146 C4.954,31.588 9.366,36 14.808,36 C17.33,36 19.623,35.045 21.366,33.487 C17.674,33.073 14.808,29.949 14.808,26.146" id="Fill-1923" fill="#ED3F32" sketch:type="MSShapeGroup"></path>
            <path d="M4,6 L9,6 M13,6 L26,6" id="Stroke-1924" stroke="#145BA0" stroke-width="2" stroke-linecap="round" sketch:type="MSShapeGroup"></path>
            <path d="M4,44 L9,44 M13,44 L26,44" id="Stroke-1925" stroke="#090E30" stroke-width="2" stroke-linecap="round" sketch:type="MSShapeGroup"></path>
        </g>
    </g>
</svg>