<?xml version="1.0" encoding="UTF-8" standalone="no"?>
<svg width="21px" height="58px" viewBox="0 0 21 58" version="1.1" xmlns="http://www.w3.org/2000/svg" xmlns:xlink="http://www.w3.org/1999/xlink" xmlns:sketch="http://www.bohemiancoding.com/sketch/ns">
    <!-- Generator: Sketch 3.2.2 (9983) - http://www.bohemiancoding.com/sketch -->
    <title>175 - Spatula (Flat)</title>
    <desc>Created with Sketch.</desc>
    <defs></defs>
    <g id="Page-1" stroke="none" stroke-width="1" fill="none" fill-rule="evenodd" sketch:type="MSPage">
        <g id="175---Spatula-(Flat)" sketch:type="MSLayerGroup">
            <path d="M10.517,29.633 L10.517,24.375" id="Stroke-167" stroke="#D2D5D7" stroke-width="2" stroke-linecap="round" sketch:type="MSShapeGroup"></path>
            <path d="M10.517,57.633 L10.517,57.633 C8.867,57.633 7.517,56.283 7.517,54.633 L7.517,32.633 C7.517,30.983 8.867,29.633 10.517,29.633 C12.167,29.633 13.517,30.983 13.517,32.633 L13.517,54.633 C13.517,56.283 12.167,57.633 10.517,57.633" id="Fill-168" fill="#A46F3E" sketch:type="MSShapeGroup"></path>
            <path d="M10.517,35.633 L10.517,35.633 C9.967,35.633 9.517,35.183 9.517,34.633 C9.517,34.083 9.967,33.633 10.517,33.633 C11.067,33.633 11.517,34.083 11.517,34.633 C11.517,35.183 11.067,35.633 10.517,35.633" id="Fill-169" fill="#D2D5D7" sketch:type="MSShapeGroup"></path>
            <path d="M10.517,39.633 L10.517,39.633 C9.967,39.633 9.517,39.183 9.517,38.633 C9.517,38.083 9.967,37.633 10.517,37.633 C11.067,37.633 11.517,38.083 11.517,38.633 C11.517,39.183 11.067,39.633 10.517,39.633" id="Fill-170" fill="#D2D5D7" sketch:type="MSShapeGroup"></path>
            <path d="M15.085,25.633 L5.95,25.633 C5.125,25.633 4.421,25.034 4.291,24.219 L0.828,2.578 C0.665,1.558 1.454,0.633 2.487,0.633 L18.547,0.633 C19.581,0.633 20.369,1.558 20.206,2.578 L16.744,24.219 C16.613,25.034 15.91,25.633 15.085,25.633" id="Fill-171" fill="#D2D5D7" sketch:type="MSShapeGroup"></path>
            <path d="M10.517,20.633 L10.517,5.633 M13.56,20.572 L15.475,5.694 M7.517,20.572 L5.602,5.694" id="Stroke-172" stroke="#A5A5A5" stroke-width="2" stroke-linecap="round" sketch:type="MSShapeGroup"></path>
        </g>
    </g>
</svg>