<?xml version="1.0" encoding="UTF-8" standalone="no"?>
<svg width="41px" height="30px" viewBox="0 0 41 30" version="1.1" xmlns="http://www.w3.org/2000/svg" xmlns:xlink="http://www.w3.org/1999/xlink" xmlns:sketch="http://www.bohemiancoding.com/sketch/ns">
    <!-- Generator: Sketch 3.2.2 (9983) - http://www.bohemiancoding.com/sketch -->
    <title>151 - Spices (Flat)</title>
    <desc>Created with Sketch.</desc>
    <defs></defs>
    <g id="Page-1" stroke="none" stroke-width="1" fill="none" fill-rule="evenodd" sketch:type="MSPage">
        <g id="151---Spices-(Flat)" sketch:type="MSLayerGroup">
            <path d="M29,7 C29,7 27.167,13.055 34,13 C40.833,12.944 45.75,28.944 28,29 L13.223,29 C-4.527,28.944 0.39,12.944 7.223,13 C14.057,13.055 12.223,7 12.223,7 L29,7 L29,7 Z" id="Fill-744" fill="#DAE7EF" sketch:type="MSShapeGroup"></path>
            <path d="M29,7 C29,7 27.167,13.055 34,13 C40.833,12.944 45.75,28.944 28,29 L13.223,29 C-4.527,28.944 0.39,12.944 7.223,13 C14.057,13.055 12.223,7 12.223,7 L29,7 L29,7 Z" id="Stroke-745" stroke="#BBD7EB" sketch:type="MSShapeGroup"></path>
            <path d="M26.929,29 L12.896,29 C9.242,29 8.488,27.043 10.223,24.648 C11.882,22.36 14.589,16.923 16.223,14.658 C18.709,11.216 22.512,11.09 25.223,14.437 C26.79,16.371 29.518,21.443 31.139,23.448 C33.608,26.503 31.717,29 26.929,29" id="Fill-746" fill="#DC9628" sketch:type="MSShapeGroup"></path>
            <path d="M22.223,17 C22.223,17.552 21.776,18 21.223,18 C20.671,18 20.223,17.552 20.223,17 C20.223,16.448 20.671,16 21.223,16 C21.776,16 22.223,16.448 22.223,17" id="Fill-747" fill="#FBD490" sketch:type="MSShapeGroup"></path>
            <path d="M19.223,20 C19.223,20.552 18.776,21 18.223,21 C17.671,21 17.223,20.552 17.223,20 C17.223,19.448 17.671,19 18.223,19 C18.776,19 19.223,19.448 19.223,20" id="Fill-748" fill="#FBD490" sketch:type="MSShapeGroup"></path>
            <path d="M24.223,22 C24.223,22.552 23.776,23 23.223,23 C22.671,23 22.223,22.552 22.223,22 C22.223,21.448 22.671,21 23.223,21 C23.776,21 24.223,21.448 24.223,22" id="Fill-749" fill="#FBD490" sketch:type="MSShapeGroup"></path>
            <path d="M33.223,7 L7.223,7 C6.123,7 5.223,6.1 5.223,5 L5.223,2 C5.223,0.9 6.123,0 7.223,0 L33.223,0 C34.323,0 35.223,0.9 35.223,2 L35.223,5 C35.223,6.1 34.323,7 33.223,7" id="Fill-750" fill="#D2D5D7" sketch:type="MSShapeGroup"></path>
        </g>
    </g>
</svg>