<?xml version="1.0" encoding="UTF-8" standalone="no"?>
<svg width="13px" height="58px" viewBox="0 0 13 58" version="1.1" xmlns="http://www.w3.org/2000/svg" xmlns:xlink="http://www.w3.org/1999/xlink" xmlns:sketch="http://www.bohemiancoding.com/sketch/ns">
    <!-- Generator: Sketch 3.2.2 (9983) - http://www.bohemiancoding.com/sketch -->
    <title>180 - Spoon (Flat)</title>
    <desc>Created with Sketch.</desc>
    <defs></defs>
    <g id="Page-1" stroke="none" stroke-width="1" fill="none" fill-rule="evenodd" sketch:type="MSPage">
        <g id="180---Spoon-(Flat)" sketch:type="MSLayerGroup">
            <path d="M6.228,29.633 L6.228,20.633" id="Stroke-49" stroke="#D2D5D7" stroke-width="2" stroke-linecap="round" sketch:type="MSShapeGroup"></path>
            <path d="M12.228,10.633 C12.228,16.156 9.541,20.633 6.228,20.633 C2.914,20.633 0.228,16.156 0.228,10.633 C0.228,5.11 2.914,0.633 6.228,0.633 C9.541,0.633 12.228,5.11 12.228,10.633" id="Fill-50" fill="#E6E6E6" sketch:type="MSShapeGroup"></path>
            <path d="M6.228,57.633 L6.228,57.633 C4.578,57.633 3.228,56.283 3.228,54.633 L3.228,32.633 C3.228,30.983 4.578,29.633 6.228,29.633 C7.878,29.633 9.228,30.983 9.228,32.633 L9.228,54.633 C9.228,56.283 7.878,57.633 6.228,57.633" id="Fill-51" fill="#A46F3E" sketch:type="MSShapeGroup"></path>
            <path d="M6.228,35.633 L6.228,35.633 C5.677,35.633 5.227,35.183 5.227,34.633 C5.227,34.083 5.677,33.633 6.228,33.633 C6.777,33.633 7.227,34.083 7.227,34.633 C7.227,35.183 6.777,35.633 6.228,35.633" id="Fill-52" fill="#D2D5D7" sketch:type="MSShapeGroup"></path>
            <path d="M6.228,39.633 L6.228,39.633 C5.677,39.633 5.227,39.183 5.227,38.633 C5.227,38.083 5.677,37.633 6.228,37.633 C6.777,37.633 7.227,38.083 7.227,38.633 C7.227,39.183 6.777,39.633 6.228,39.633" id="Fill-53" fill="#D2D5D7" sketch:type="MSShapeGroup"></path>
        </g>
    </g>
</svg>