<?xml version="1.0" encoding="UTF-8" standalone="no"?>
<svg width="66px" height="41px" viewBox="0 0 66 41" version="1.1" xmlns="http://www.w3.org/2000/svg" xmlns:xlink="http://www.w3.org/1999/xlink" xmlns:sketch="http://www.bohemiancoding.com/sketch/ns">
    <!-- Generator: Sketch 3.2.2 (9983) - http://www.bohemiancoding.com/sketch -->
    <title>128 - Stew Pot (Flat)</title>
    <desc>Created with Sketch.</desc>
    <defs></defs>
    <g id="Page-1" stroke="none" stroke-width="1" fill="none" fill-rule="evenodd" sketch:type="MSPage">
        <g id="128---Stew-Pot-(Flat)" sketch:type="MSLayerGroup" transform="translate(3.000000, 1.000000)">
            <path d="M47.68,40 L12.32,40 C10.977,40 9.828,39.038 9.592,37.716 L5,12 L55,12 L50.408,37.716 C50.172,39.038 49.022,40 47.68,40" id="Fill-928" fill="#E6E6E6" sketch:type="MSShapeGroup"></path>
            <path d="M53,12 L7,12 L15.178,3.822 C15.704,3.296 16.418,3 17.163,3 L42.837,3 C43.582,3 44.296,3.296 44.822,3.822 L53,12" id="Fill-929" fill="#D2D5D7" sketch:type="MSShapeGroup"></path>
            <path d="M33,4 L27,4 L27,3 C27,1.343 28.343,0 30,0 C31.657,0 33,1.343 33,3 L33,4 L33,4 Z M52.857,24 C53.375,20.141 56.131,17 60,17 L52.857,24 Z M0,17 C3.869,17 6.656,20.141 7.143,24 L0,17 Z" id="Stroke-930" stroke="#D2D5D7" stroke-width="2" sketch:type="MSShapeGroup"></path>
            <path d="M12,35 L22,35 M11,31 L18,31 M10,27 L15,27" id="Stroke-931" stroke="#FFFFFF" stroke-width="2" stroke-linecap="round" sketch:type="MSShapeGroup"></path>
            <path d="M12,7 L48,7 L46,5 L14,5 L12,7" id="Fill-932" fill="#E6E6E6" sketch:type="MSShapeGroup"></path>
            <path d="M9,10 L51,10 L49,8 L11,8 L9,10" id="Fill-933" fill="#E6E6E6" sketch:type="MSShapeGroup"></path>
        </g>
    </g>
</svg>