<?xml version="1.0" encoding="UTF-8" standalone="no"?>
<svg width="40px" height="55px" viewBox="0 0 40 55" version="1.1" xmlns="http://www.w3.org/2000/svg" xmlns:xlink="http://www.w3.org/1999/xlink" xmlns:sketch="http://www.bohemiancoding.com/sketch/ns">
    <!-- Generator: Sketch 3.2.2 (9983) - http://www.bohemiancoding.com/sketch -->
    <title>77 - Strawberry Jam (Flat)</title>
    <desc>Created with Sketch.</desc>
    <defs></defs>
    <g id="Page-1" stroke="none" stroke-width="1" fill="none" fill-rule="evenodd" sketch:type="MSPage">
        <g id="Icons" sketch:type="MSArtboardGroup" transform="translate(-491.000000, -2160.000000)">
            <g id="77---Strawberry-Jam-(Flat)" sketch:type="MSLayerGroup" transform="translate(491.000000, 2160.000000)">
                <path d="M37.96,17.147 L35.887,15.765 C35.023,15.189 33.861,15.389 33.238,16.219 L33.164,16.318 C32.237,17.553 30.311,17.277 29.768,15.831 L29.086,14.012 C28.517,12.495 26.456,12.288 25.597,13.662 L23.664,16.755 C22.936,17.92 21.265,17.991 20.441,16.892 L20.391,16.825 C19.608,15.782 18.044,15.782 17.262,16.825 L16.853,17.37 C16.139,18.322 14.747,18.421 13.906,17.579 L13.373,17.047 C12.685,16.359 11.596,16.281 10.817,16.865 L9.474,17.873 C8.546,18.569 7.22,18.309 6.624,17.315 L5.27,15.058 C4.776,14.235 3.758,13.893 2.867,14.249 L1.087,14.961 L1.087,44.705 C1.087,49.838 5.248,54 10.382,54 L29.488,54 C34.621,54 38.783,49.838 38.783,44.705 L38.783,17.444 C38.502,17.406 38.222,17.322 37.96,17.147 L37.96,17.147 Z" id="Fill-2058" fill="#F85B57" sketch:type="MSShapeGroup"></path>
                <path d="M37.96,17.147 L35.887,15.765 C35.023,15.189 33.861,15.389 33.238,16.219 L33.164,16.318 C32.237,17.553 30.311,17.277 29.768,15.831 L29.086,14.012 C28.517,12.495 26.456,12.288 25.597,13.662 L23.664,16.755 C22.936,17.92 21.265,17.991 20.441,16.892 L20.391,16.825 C19.608,15.782 18.044,15.782 17.262,16.825 L16.853,17.37 C16.139,18.322 14.747,18.421 13.906,17.579 L13.373,17.047 C12.685,16.359 11.596,16.281 10.817,16.865 L9.474,17.873 C8.546,18.569 7.22,18.309 6.624,17.315 L5.27,15.058 C4.776,14.235 3.758,13.893 2.867,14.249 L1.087,14.961 L1.087,44.705 C1.087,49.838 5.248,54 10.382,54 L29.488,54 C34.621,54 38.783,49.838 38.783,44.705 L38.783,17.444 C38.502,17.406 38.222,17.322 37.96,17.147 L37.96,17.147 Z" id="Stroke-2059" stroke="#E24040" sketch:type="MSShapeGroup"></path>
                <path d="M30.865,24.723 L31.315,24.723 C29.35,24.723 27.499,23.906 26.065,22.557 C25.074,21.625 23.97,20.927 22.793,20.496 C22.054,20.821 21.156,20.671 20.57,20.025 C20.41,20.016 20.251,20 20.089,20 C17.885,20 15.833,20.94 14.114,22.557 C12.679,23.906 10.829,24.723 8.863,24.723 L9.135,24.723 C7.411,24.723 6,26.14 6,27.871 L6,41.274 C6,43.005 7.411,44.422 9.135,44.422 L8.67,44.422 C10.672,44.422 12.555,45.268 13.996,46.665 C15.738,48.354 17.832,49.342 20.089,49.342 C22.346,49.342 24.44,48.354 26.182,46.665 C27.623,45.268 29.506,44.422 31.509,44.422 L30.865,44.422 C32.589,44.422 34,43.005 34,41.274 L34,27.871 C34,26.14 32.589,24.723 30.865,24.723" id="Fill-2060" fill="#F4BDBD" sketch:type="MSShapeGroup"></path>
                <path d="M6.074,17.651 L7.354,19.783 C7.918,20.723 9.171,20.969 10.048,20.311 L11.317,19.359 C12.053,18.807 13.083,18.88 13.733,19.53 L14.237,20.034 C15.032,20.829 16.347,20.736 17.022,19.836 L17.408,19.32 C18.148,18.335 19.626,18.335 20.365,19.32 L20.413,19.384 C21.192,20.423 22.771,20.356 23.459,19.255 L25.286,16.331 C26.098,15.033 28.046,15.228 28.584,16.662 L29.229,18.381 C29.741,19.748 31.562,20.009 32.438,18.841 L32.508,18.748 C33.097,17.963 34.196,17.775 35.012,18.319 L36.971,19.625 C38.199,20.444 39.844,19.563 39.844,18.087 L39.844,16.744 C39.844,9.228 30.413,11.389 30.413,7.313 L30.413,6.254 L30.476,6.254 C32.171,6.254 33.557,5.484 33.557,3.789 L33.557,3.664 C33.557,1.97 32.171,0.583 30.476,0.583 L9.394,0.583 C7.699,0.583 6.312,1.97 6.312,3.664 L6.312,3.789 C6.312,5.484 7.699,6.254 9.394,6.254 L9.456,6.254 L9.456,7.313 C9.456,11.389 0.025,9.228 0.025,16.744 L0.025,18.397 L3.803,16.886 C4.645,16.549 5.608,16.873 6.074,17.651" id="Fill-2061" fill="#FBD490" sketch:type="MSShapeGroup"></path>
                <path d="M19,6.013 C22.675,6.013 23.325,6 27,6 M13,6 L15,6" id="Stroke-2062" stroke="#EEAF4B" stroke-width="2" stroke-linecap="round" sketch:type="MSShapeGroup"></path>
                <path d="M25.571,38.074 C25.571,41.163 21.874,45.022 19.876,45 C18.052,45 14.18,41.163 14.18,38.074 C14.18,34.984 16.399,33.279 19.876,33.279 C23.352,33.279 25.571,34.984 25.571,38.074" id="Fill-2063" fill="#ED3F32" sketch:type="MSShapeGroup"></path>
                <path d="M20.055,32.81 C20.055,29.752 22.529,27.279 25.586,27.279" id="Stroke-2064" stroke="#88C057" stroke-width="2" stroke-linecap="round" sketch:type="MSShapeGroup"></path>
                <path d="M20.055,32.81 C20.055,29.752 17.581,27.279 14.523,27.279" id="Stroke-2065" stroke="#659C35" stroke-width="2" stroke-linecap="round" sketch:type="MSShapeGroup"></path>
                <path id="Stroke-2066" stroke="#D13834" stroke-width="2" stroke-linecap="round" sketch:type="MSShapeGroup"></path>
            </g>
        </g>
    </g>
</svg>