<?xml version="1.0" encoding="UTF-8" standalone="no"?>
<svg width="22px" height="55px" viewBox="0 0 22 55" version="1.1" xmlns="http://www.w3.org/2000/svg" xmlns:xlink="http://www.w3.org/1999/xlink" xmlns:sketch="http://www.bohemiancoding.com/sketch/ns">
    <!-- Generator: Sketch 3.2.2 (9983) - http://www.bohemiancoding.com/sketch -->
    <title>109 - Stripped Icecream (Flat)</title>
    <desc>Created with Sketch.</desc>
    <defs></defs>
    <g id="Page-1" stroke="none" stroke-width="1" fill="none" fill-rule="evenodd" sketch:type="MSPage">
        <g id="109---Stripped-Icecream-(Flat)" sketch:type="MSLayerGroup">
            <path d="M12.484,54 L9.484,54 C8.384,54 7.484,53.1 7.484,52 L7.484,38 L14.484,38 L14.484,52 C14.484,53.1 13.584,54 12.484,54 L12.484,54 Z" id="Fill-625" fill="#FBD490" sketch:type="MSShapeGroup"></path>
            <path d="M12.484,54 L9.484,54 C8.384,54 7.484,53.1 7.484,52 L7.484,38 L14.484,38 L14.484,52 C14.484,53.1 13.584,54 12.484,54 L12.484,54 Z" id="Stroke-626" stroke="#FBD490" stroke-width="2" stroke-linecap="round" sketch:type="MSShapeGroup"></path>
            <path d="M7.484,45.437 C7.484,45.437 11.875,45.281 10.316,48.412 C9.268,50.517 13.101,50.839 14.458,51.316 M14.484,45 C12.724,45 11.298,43.68 11.298,42.052 C11.298,40.425 12.724,39.105 14.484,39.105" id="Stroke-627" stroke="#EEAF4B" stroke-width="2" stroke-linecap="round" sketch:type="MSShapeGroup"></path>
            <path d="M20.271,38 L2.213,38 C1.169,38 0.363,37.081 0.499,36.046 L4.459,5.949 C4.907,2.545 7.809,0 11.242,0 C14.675,0 17.577,2.545 18.025,5.949 L21.985,36.046 C22.121,37.081 21.315,38 20.271,38" id="Fill-628" fill="#F9DA49" sketch:type="MSShapeGroup"></path>
            <path d="M14.463,38 L21.323,31.012 L20.66,25.978 L8.858,38 L14.463,38" id="Fill-629" fill="#00D7EC" sketch:type="MSShapeGroup"></path>
            <path d="M2.213,38 L5.328,38 L20.268,22.997 L19.609,17.991 L0.662,37.017 C0.939,37.592 1.52,38 2.213,38" id="Fill-630" fill="#00D7EC" sketch:type="MSShapeGroup"></path>
            <path d="M0.852,33.363 L19.234,15.143 L18.579,10.161 L1.704,26.887 L0.852,33.363" id="Fill-631" fill="#00D7EC" sketch:type="MSShapeGroup"></path>
            <path d="M18.025,5.949 C17.89,4.927 17.531,3.986 17.007,3.164 L2.98,17.191 L2.123,23.704 L18.24,7.587 L18.025,5.949" id="Fill-632" fill="#00D7EC" sketch:type="MSShapeGroup"></path>
            <path d="M11.242,0 C11.217,0 11.193,0.003 11.168,0.003 L4.344,6.828 L3.487,13.341 L15.407,1.42 C14.248,0.529 12.801,0 11.242,0" id="Fill-633" fill="#00D7EC" sketch:type="MSShapeGroup"></path>
        </g>
    </g>
</svg>