<?xml version="1.0" encoding="UTF-8" standalone="no"?>
<svg width="58px" height="38px" viewBox="0 0 58 38" version="1.1" xmlns="http://www.w3.org/2000/svg" xmlns:xlink="http://www.w3.org/1999/xlink" xmlns:sketch="http://www.bohemiancoding.com/sketch/ns">
    <!-- Generator: Sketch 3.2.2 (9983) - http://www.bohemiancoding.com/sketch -->
    <title>113 - Syrup Pancakes (Flat)</title>
    <desc>Created with Sketch.</desc>
    <defs></defs>
    <g id="Page-1" stroke="none" stroke-width="1" fill="none" fill-rule="evenodd" sketch:type="MSPage">
        <g id="113---Syrup-Pancakes-(Flat)" sketch:type="MSLayerGroup">
            <path d="M54.073,19.568 C54.552,20.274 54.476,21.012 54.476,21.772 C54.476,21.791 54.473,21.809 54.472,21.827 C54.473,21.842 54.476,21.856 54.476,21.871 C54.476,26.965 43.07,31.548 29,31.548 C14.93,31.548 3.524,26.965 3.524,21.871 C3.524,21.856 3.527,21.842 3.528,21.827 C3.527,21.809 3.524,21.791 3.524,21.772 C3.524,21.012 3.381,20.274 3.859,19.568 C1.158,21.163 0,23.039 0,25.048 C0,30.847 8.5,38 29,38 C51.625,38 58,30.847 58,25.048 C58,23.039 56.775,21.163 54.073,19.568" id="Fill-690" fill="#E6E6E6" sketch:type="MSShapeGroup"></path>
            <path d="M38,26.548 C38,28.198 36.65,29.548 35,29.548 C33.35,29.548 32,28.198 32,26.548" id="Stroke-691" stroke="#231F1F" stroke-width="2" stroke-linecap="round" stroke-linejoin="round" sketch:type="MSShapeGroup"></path>
            <path d="M4.128,19.887 C3.74,20.527 3.524,21.189 3.524,21.871 C3.524,26.965 14.93,31.548 29,31.548 C43.07,31.548 54.476,26.965 54.476,21.871 C54.476,21.189 54.26,20.527 53.872,19.887 L4.128,19.887" id="Fill-692" fill="#FBD490" sketch:type="MSShapeGroup"></path>
            <path d="M4.128,19.887 C3.74,20.527 3.524,21.189 3.524,21.871 C3.524,26.965 14.93,31.548 29,31.548 C43.07,31.548 54.476,26.965 54.476,21.871 C54.476,21.189 54.26,20.527 53.872,19.887 L4.128,19.887" id="Fill-693" fill="#FBD490" sketch:type="MSShapeGroup"></path>
            <path d="M4.128,16 C3.74,16.639 3.524,17.302 3.524,17.983 C3.524,23.078 14.93,27.661 29,27.661 C43.07,27.661 54.476,23.078 54.476,17.983 C54.476,17.302 54.26,16.639 53.872,16 L4.128,16" id="Fill-694" fill="#D8B173" sketch:type="MSShapeGroup"></path>
            <path d="M53.872,7.867 C51.012,3.685 41.435,0 29,0 C16.565,0 6.988,3.685 4.128,7.867 C3.74,8.507 3.524,9.169 3.524,9.851 C3.524,14.701 13.866,19.085 27,19.494 L27,23.048 C27,24.423 28.125,25.548 29.5,25.548 C30.875,25.548 32,24.423 32,23.048 L32,26.548 C32,28.198 33.35,29.548 35,29.548 C36.65,29.548 38,28.198 38,26.548 L38,27 C38,28.1 38.9,29 40,29 C41.1,29 42,28.1 42,27 L42,18.109 C49.465,16.367 54.476,13.224 54.476,9.851 C54.476,9.169 54.26,8.507 53.872,7.867" id="Fill-695" fill="#A46F3E" sketch:type="MSShapeGroup"></path>
            <path d="M27,23.048 L27,19.494 C15.72,19.142 6.506,15.859 4.128,11.867 C3.74,12.506 3.524,13.168 3.524,13.85 C3.524,18.706 13.89,23.094 27.045,23.494 C27.019,23.349 27,23.201 27,23.048" id="Fill-696" fill="#FBD490" sketch:type="MSShapeGroup"></path>
            <path d="M53.868,11.867 C52.33,14.442 47.949,16.721 42,18.109 L42,22.109 C49.465,20.366 54.476,17.223 54.476,13.85 C54.476,13.168 54.26,12.506 53.872,11.867 L53.868,11.867" id="Fill-697" fill="#FBD490" sketch:type="MSShapeGroup"></path>
            <path d="M49.765,8.516 C49.765,11.975 42.077,14.774 32.577,14.774" id="Stroke-698" stroke="#FBD490" stroke-width="2" stroke-linecap="round" stroke-linejoin="round" sketch:type="MSShapeGroup"></path>
            <path d="M19,13.548 L16,13.548 C14.9,13.548 14,12.648 14,11.548 L14,8.548 C14,7.448 14.9,6.548 16,6.548 L19,6.548 C20.1,6.548 21,7.448 21,8.548 L21,11.548 C21,12.648 20.1,13.548 19,13.548" id="Fill-699" fill="#F9D70B" sketch:type="MSShapeGroup"></path>
            <path d="M27,10 L24,10 C22.9,10 22,9.1 22,8 L22,5 C22,3.9 22.9,3 24,3 L27,3 C28.1,3 29,3.9 29,5 L29,8 C29,9.1 28.1,10 27,10" id="Fill-700" fill="#FBD490" sketch:type="MSShapeGroup"></path>
        </g>
    </g>
</svg>