<?xml version="1.0" encoding="UTF-8" standalone="no"?>
<svg width="54px" height="53px" viewBox="0 0 54 53" version="1.1" xmlns="http://www.w3.org/2000/svg" xmlns:xlink="http://www.w3.org/1999/xlink" xmlns:sketch="http://www.bohemiancoding.com/sketch/ns">
    <!-- Generator: Sketch 3.2.2 (9983) - http://www.bohemiancoding.com/sketch -->
    <title>89 - Taco (Flat)</title>
    <desc>Created with Sketch.</desc>
    <defs></defs>
    <g id="Page-1" stroke="none" stroke-width="1" fill="none" fill-rule="evenodd" sketch:type="MSPage">
        <g id="Icons" sketch:type="MSArtboardGroup" transform="translate(-244.000000, -2041.000000)">
            <g id="89---Taco-(Flat)" sketch:type="MSLayerGroup" transform="translate(245.000000, 2042.000000)">
                <path d="M8.105,9.848 C-4.293,22.246 1.753,37.9 11.012,51.836 L53,9.848 C40.603,-2.549 20.502,-2.549 8.105,9.848" id="Fill-2102" fill="#FBD490" sketch:type="MSShapeGroup"></path>
                <path d="M17.753,0.4 L19.753,5.4" id="Stroke-2103" stroke="#ED7161" stroke-width="2" stroke-linecap="round" stroke-linejoin="round" sketch:type="MSShapeGroup"></path>
                <path d="M36.422,0.292 L35.084,5.508" id="Stroke-2104" stroke="#659C35" stroke-width="2" stroke-linecap="round" stroke-linejoin="round" sketch:type="MSShapeGroup"></path>
                <path d="M18.753,7.4 L23.753,2.4 M11.753,11.4 L5.753,11.4" id="Stroke-2105" stroke="#ED7161" stroke-width="2" stroke-linecap="round" stroke-linejoin="round" sketch:type="MSShapeGroup"></path>
                <path d="M45.753,7.4 L47.753,6.4" id="Stroke-2106" stroke="#659C35" stroke-width="2" stroke-linecap="round" stroke-linejoin="round" sketch:type="MSShapeGroup"></path>
                <path d="M3.753,39.4 L0.753,40.4" id="Stroke-2107" stroke="#E6E6E6" stroke-width="2" stroke-linecap="round" stroke-linejoin="round" sketch:type="MSShapeGroup"></path>
                <path d="M0.753,26.4 L2.753,27.4" id="Stroke-2108" stroke="#ED7161" stroke-width="2" stroke-linecap="round" stroke-linejoin="round" sketch:type="MSShapeGroup"></path>
                <path d="M8.753,49.4 L7.753,50.4" id="Stroke-2109" stroke="#E6E6E6" stroke-width="2" stroke-linecap="round" stroke-linejoin="round" sketch:type="MSShapeGroup"></path>
                <path d="M11.753,7.4 C11.753,5.743 13.096,4.4 14.753,4.4 C16.078,4.4 17.153,5.474 17.153,6.8 C17.153,7.86 16.293,8.72 15.233,8.72 C14.385,8.72 13.697,8.032 13.697,7.184" id="Stroke-2110" stroke="#659C35" stroke-width="2" stroke-linecap="round" stroke-linejoin="round" sketch:type="MSShapeGroup"></path>
                <path d="M7.753,16.9 C7.753,18.28 6.634,19.4 5.253,19.4 C3.872,19.4 2.753,18.28 2.753,16.9 C2.753,15.519 3.872,14.4 5.253,14.4 C6.634,14.4 7.753,15.519 7.753,16.9 L7.753,16.9 Z M29.753,2.9 C29.753,4.281 28.634,5.4 27.253,5.4 C25.872,5.4 24.753,4.281 24.753,2.9 C24.753,1.519 25.872,0.4 27.253,0.4 C28.634,0.4 29.753,1.519 29.753,2.9 L29.753,2.9 Z" id="Stroke-2111" stroke="#7A3726" stroke-width="2" stroke-linecap="round" stroke-linejoin="round" sketch:type="MSShapeGroup"></path>
                <path d="M1.753,34.4 C0.648,33.848 0.201,32.504 0.753,31.4 C1.195,30.516 2.269,30.158 3.153,30.6 C3.86,30.953 4.146,31.813 3.793,32.52 M4.753,44.4 C5.858,44.4 6.753,45.295 6.753,46.4 C6.753,47.284 6.037,48 5.153,48 C4.446,48 3.873,47.427 3.873,46.72" id="Stroke-2112" stroke="#659C35" stroke-width="2" stroke-linecap="round" stroke-linejoin="round" sketch:type="MSShapeGroup"></path>
                <path d="M40.753,6.4 C39.648,5.295 39.648,3.504 40.753,2.4 C41.637,1.516 43.069,1.516 43.953,2.4 C44.66,3.107 44.66,4.253 43.953,4.96 C43.388,5.526 42.47,5.526 41.905,4.96 M48.753,7.4 C49.858,7.4 50.753,8.295 50.753,9.4 C50.753,10.284 50.037,11 49.153,11 C48.446,11 47.873,10.427 47.873,9.72" id="Stroke-2113" stroke="#7A3726" stroke-width="2" stroke-linecap="round" stroke-linejoin="round" sketch:type="MSShapeGroup"></path>
                <path d="M30.073,0 C31.73,0 33.073,1.343 33.073,3 C33.073,4.325 31.999,5.4 30.673,5.4 C29.613,5.4 28.753,4.54 28.753,3.48 C28.753,2.632 29.441,1.944 30.289,1.944" id="Stroke-2114" stroke="#E6E6E6" stroke-width="2" stroke-linecap="round" stroke-linejoin="round" sketch:type="MSShapeGroup"></path>
                <path d="M11.07,12.352 C0.182,23.24 0.182,40.891 11.07,51.778 L50.496,12.352 C39.609,1.465 21.957,1.465 11.07,12.352" id="Fill-2115" fill="#EEAF4B" sketch:type="MSShapeGroup"></path>
                <path d="M33.753,17.9 C33.753,18.728 33.081,19.4 32.253,19.4 C31.425,19.4 30.753,18.728 30.753,17.9 C30.753,17.072 31.425,16.4 32.253,16.4 C33.081,16.4 33.753,17.072 33.753,17.9" id="Fill-2116" fill="#FBD490" sketch:type="MSShapeGroup"></path>
                <path d="M7.753,33.9 C7.753,34.728 7.081,35.4 6.253,35.4 C5.425,35.4 4.753,34.728 4.753,33.9 C4.753,33.072 5.425,32.4 6.253,32.4 C7.081,32.4 7.753,33.072 7.753,33.9" id="Fill-2117" fill="#DC9628" sketch:type="MSShapeGroup"></path>
                <path d="M17.753,22.9 C17.753,24.28 16.634,25.4 15.253,25.4 C13.872,25.4 12.753,24.28 12.753,22.9 C12.753,21.519 13.872,20.4 15.253,20.4 C16.634,20.4 17.753,21.519 17.753,22.9" id="Fill-2118" fill="#DC9628" sketch:type="MSShapeGroup"></path>
                <path d="M28.753,29.9 C28.753,31.281 27.634,32.4 26.253,32.4 C24.872,32.4 23.753,31.281 23.753,29.9 C23.753,28.519 24.872,27.4 26.253,27.4 C27.634,27.4 28.753,28.519 28.753,29.9" id="Fill-2119" fill="#DC9628" sketch:type="MSShapeGroup"></path>
                <path d="M29.753,9.9 C29.753,11.281 28.634,12.4 27.253,12.4 C25.872,12.4 24.753,11.281 24.753,9.9 C24.753,8.519 25.872,7.4 27.253,7.4 C28.634,7.4 29.753,8.519 29.753,9.9" id="Fill-2120" fill="#DC9628" sketch:type="MSShapeGroup"></path>
                <path d="M16.753,39.9 C16.753,40.728 16.081,41.4 15.253,41.4 C14.425,41.4 13.753,40.728 13.753,39.9 C13.753,39.072 14.425,38.4 15.253,38.4 C16.081,38.4 16.753,39.072 16.753,39.9" id="Fill-2121" fill="#DC9628" sketch:type="MSShapeGroup"></path>
                <path d="M17.753,14.9 C17.753,15.728 17.081,16.4 16.253,16.4 C15.425,16.4 14.753,15.728 14.753,14.9 C14.753,14.072 15.425,13.4 16.253,13.4 C17.081,13.4 17.753,14.072 17.753,14.9" id="Fill-2122" fill="#FBD490" sketch:type="MSShapeGroup"></path>
                <path d="M9.753,23.9 C9.753,24.728 9.081,25.4 8.253,25.4 C7.425,25.4 6.753,24.728 6.753,23.9 C6.753,23.072 7.425,22.4 8.253,22.4 C9.081,22.4 9.753,23.072 9.753,23.9" id="Fill-2123" fill="#FBD490" sketch:type="MSShapeGroup"></path>
                <path d="M22.753,20.4 C22.753,20.952 22.305,21.4 21.753,21.4 C21.201,21.4 20.753,20.952 20.753,20.4 C20.753,19.847 21.201,19.4 21.753,19.4 C22.305,19.4 22.753,19.847 22.753,20.4" id="Fill-2124" fill="#FBD490" sketch:type="MSShapeGroup"></path>
                <path d="M14.753,32.4 C14.753,32.952 14.305,33.4 13.753,33.4 C13.201,33.4 12.753,32.952 12.753,32.4 C12.753,31.847 13.201,31.4 13.753,31.4 C14.305,31.4 14.753,31.847 14.753,32.4" id="Fill-2125" fill="#FBD490" sketch:type="MSShapeGroup"></path>
                <path d="M42.753,13.4 C42.753,13.952 42.305,14.4 41.753,14.4 C41.201,14.4 40.753,13.952 40.753,13.4 C40.753,12.848 41.201,12.4 41.753,12.4 C42.305,12.4 42.753,12.848 42.753,13.4" id="Fill-2126" fill="#FBD490" sketch:type="MSShapeGroup"></path>
                <path d="M20.753,30.4 C20.753,30.952 20.305,31.4 19.753,31.4 C19.201,31.4 18.753,30.952 18.753,30.4 C18.753,29.848 19.201,29.4 19.753,29.4 C20.305,29.4 20.753,29.848 20.753,30.4" id="Fill-2127" fill="#FBD490" sketch:type="MSShapeGroup"></path>
                <path d="M10.753,41.4 C10.753,41.952 10.305,42.4 9.753,42.4 C9.201,42.4 8.753,41.952 8.753,41.4 C8.753,40.847 9.201,40.4 9.753,40.4 C10.305,40.4 10.753,40.847 10.753,41.4" id="Fill-2128" fill="#FBD490" sketch:type="MSShapeGroup"></path>
            </g>
        </g>
    </g>
</svg>