<?xml version="1.0" encoding="UTF-8" standalone="no"?>
<svg width="45px" height="54px" viewBox="0 0 45 54" version="1.1" xmlns="http://www.w3.org/2000/svg" xmlns:xlink="http://www.w3.org/1999/xlink" xmlns:sketch="http://www.bohemiancoding.com/sketch/ns">
    <!-- Generator: Sketch 3.2.2 (9983) - http://www.bohemiancoding.com/sketch -->
    <title>158 - Tea Cup (Flat)</title>
    <desc>Created with Sketch.</desc>
    <defs></defs>
    <g id="Page-1" stroke="none" stroke-width="1" fill="none" fill-rule="evenodd" sketch:type="MSPage">
        <g id="158---Tea-Cup-(Flat)" sketch:type="MSLayerGroup" transform="translate(0.000000, 1.000000)">
            <path d="M23.224,11.815 C21.592,10.182 21.592,7.54 23.224,5.907 M23.224,0 C24.857,1.632 24.857,4.275 23.224,5.907 M15.724,11.815 C14.759,10.849 14.759,9.285 15.724,8.319 M15.724,4.824 C16.69,5.79 16.69,7.354 15.724,8.319 M30.724,11.815 C29.759,10.849 29.759,9.285 30.724,8.319 M30.724,4.824 C31.69,5.79 31.69,7.354 30.724,8.319" id="Stroke-1515" stroke="#E6E6E6" stroke-width="2" stroke-linecap="round" sketch:type="MSShapeGroup"></path>
            <path d="M20.913,46 L22.567,46 C26.557,46 30.322,44.104 32.683,40.887 C42.288,27.805 38.434,17 37.126,17 L20.913,17 L24.246,17 L8.033,17 C6.725,17 2.871,27.805 12.476,40.887 C14.837,44.104 18.602,46 22.592,46 L24.246,46" id="Fill-1516" fill="#E6E6E6" sketch:type="MSShapeGroup"></path>
            <path d="M37.773,25.097 C40.614,25.586 44.05,25.792 42.695,31.534 C41.492,36.636 36.247,38.488 33.406,38" id="Stroke-1517" stroke="#E6E6E6" stroke-width="2" sketch:type="MSShapeGroup"></path>
            <path d="M11.671,22.157 C11.312,24.094 11.734,26.265 13,28" id="Stroke-1518" stroke="#FFFFFF" stroke-width="2" stroke-linecap="round" sketch:type="MSShapeGroup"></path>
            <path d="M35.153,40.104 C34.499,39.985 33.841,40.003 33.212,40.138 C33.038,40.388 32.868,40.636 32.683,40.887 C30.324,44.101 26.565,45.995 22.579,45.999 C22.584,45.999 22.588,46 22.592,46 L22.567,46 C22.571,46 22.575,45.999 22.579,45.999 C18.594,45.995 14.835,44.101 12.476,40.887 C12.286,40.629 12.11,40.372 11.931,40.116 C11.304,39.98 10.649,39.961 9.996,40.078 C3.969,41.154 0,42.985 0,45.065 C0,48.379 10.074,53 22.5,53 C34.926,53 45,48.379 45,45.065 C45,43.003 41.097,41.184 35.153,40.104" id="Fill-1519" fill="#D2D5D7" sketch:type="MSShapeGroup"></path>
        </g>
    </g>
</svg>