<?xml version="1.0" encoding="UTF-8" standalone="no"?>
<svg width="56px" height="55px" viewBox="0 0 56 55" version="1.1" xmlns="http://www.w3.org/2000/svg" xmlns:xlink="http://www.w3.org/1999/xlink" xmlns:sketch="http://www.bohemiancoding.com/sketch/ns">
    <!-- Generator: Sketch 3.2.2 (9983) - http://www.bohemiancoding.com/sketch -->
    <title>123 - Tea Infuser (Flat)</title>
    <desc>Created with Sketch.</desc>
    <defs></defs>
    <g id="Page-1" stroke="none" stroke-width="1" fill="none" fill-rule="evenodd" sketch:type="MSPage">
        <g id="123---Tea-Infuser-(Flat)" sketch:type="MSLayerGroup" transform="translate(1.000000, 1.000000)">
            <path d="M45,16 C43.027,16 41.207,16.642 39.724,17.719 C43.417,21.99 45.899,27.835 46.403,33.88 C50.706,33.204 54,29.492 54,25 C54,20.029 49.971,16 45,16 L45,16 Z" id="Stroke-964" stroke="#BBD7EB" stroke-width="2" stroke-linecap="round" sketch:type="MSShapeGroup"></path>
            <path d="M24.089,11 C18.064,11 12.598,13.97 8.571,18.471 C8.532,18.514 8.461,18.518 8.417,18.479 L4.931,15.367 C3.996,14.534 2.519,14.261 1.391,14.876 C-0.221,15.753 -0.403,17.679 0.845,18.793 C3.424,21.094 4.285,24.48 3.185,27.583 C2.212,30.329 1.677,33.233 1.677,36.143 C1.677,41.007 3.175,45.507 5.719,49.208 C7.47,51.755 10.603,53.285 13.952,53.285 L34.226,53.285 C37.574,53.285 40.707,51.755 42.459,49.208 C45.002,45.507 46.5,41.007 46.5,36.143 C46.5,23.519 36.466,11 24.089,11 L24.089,11 Z" id="Fill-965" fill="#DAE7EF" sketch:type="MSShapeGroup"></path>
            <path d="M24.089,11 C18.064,11 12.598,13.97 8.571,18.471 C8.532,18.514 8.461,18.518 8.417,18.479 L4.931,15.367 C3.996,14.534 2.519,14.261 1.391,14.876 C-0.221,15.753 -0.403,17.679 0.845,18.793 C3.424,21.094 4.285,24.48 3.185,27.583 C2.212,30.329 1.677,33.233 1.677,36.143 C1.677,41.007 3.175,45.507 5.719,49.208 C7.47,51.755 10.603,53.285 13.952,53.285 L34.226,53.285 C37.574,53.285 40.707,51.755 42.459,49.208 C45.002,45.507 46.5,41.007 46.5,36.143 C46.5,23.519 36.466,11 24.089,11 L24.089,11 Z" id="Stroke-966" stroke="#BBD7EB" sketch:type="MSShapeGroup"></path>
            <path d="M27.5,3.5 C27.5,5.433 25.933,7 24,7 C22.067,7 20.5,5.433 20.5,3.5 C20.5,1.567 22.067,0 24,0 C25.933,0 27.5,1.567 27.5,3.5 L27.5,3.5 Z" id="Stroke-967" stroke="#38454F" stroke-width="2" stroke-linecap="round" sketch:type="MSShapeGroup"></path>
            <path d="M17,18 L31,18 L31,45 L17,45 L17,18 Z" id="Fill-968" fill="#38454F" sketch:type="MSShapeGroup"></path>
            <path d="M24,7.853 L24,18" id="Stroke-969" stroke="#38454F" stroke-width="2" stroke-linecap="round" sketch:type="MSShapeGroup"></path>
            <path d="M41.515,31.759 C39.17,29.414 35.375,29.414 33.029,31.759 L33,31.759 C30.655,34.104 26.86,34.104 24.515,31.759 C22.17,29.414 18.375,29.414 16.029,31.759 L16,31.759 C13.655,34.104 9.86,34.104 7.515,31.759 C6.131,30.375 4.245,29.83 2.448,30.079 C1.955,32.063 1.677,34.1 1.677,36.143 C1.677,41.007 3.175,45.507 5.719,49.208 C7.47,51.755 10.603,53.285 13.952,53.285 L34.226,53.285 C37.574,53.285 40.707,51.755 42.458,49.208 C45.002,45.507 46.5,41.007 46.5,36.143 C46.5,35.247 46.444,34.352 46.346,33.461 C44.62,33.631 42.838,33.082 41.515,31.759" id="Fill-970" fill="#FBD490" sketch:type="MSShapeGroup"></path>
            <path d="M31,33.082 C28.836,33.954 26.27,33.514 24.515,31.759 C22.471,29.715 19.327,29.455 17,30.974 L17,45 L31,45 L31,33.082" id="Fill-971" fill="#BFA175" sketch:type="MSShapeGroup"></path>
            <path d="M25,42 C25,42.552 24.552,43 24,43 C23.448,43 23,42.552 23,42 C23,41.448 23.448,41 24,41 C24.552,41 25,41.448 25,42" id="Fill-972" fill="#FFFFFF" sketch:type="MSShapeGroup"></path>
            <path d="M29,36 C29,36.552 28.552,37 28,37 C27.448,37 27,36.552 27,36 C27,35.448 27.448,35 28,35 C28.552,35 29,35.448 29,36" id="Fill-973" fill="#FFFFFF" sketch:type="MSShapeGroup"></path>
            <path d="M21,36 C21,36.552 20.552,37 20,37 C19.448,37 19,36.552 19,36 C19,35.448 19.448,35 20,35 C20.552,35 21,35.448 21,36" id="Fill-974" fill="#FFFFFF" sketch:type="MSShapeGroup"></path>
            <path d="M25,36 C25,36.552 24.552,37 24,37 C23.448,37 23,36.552 23,36 C23,35.448 23.448,35 24,35 C24.552,35 25,35.448 25,36" id="Fill-975" fill="#FFFFFF" sketch:type="MSShapeGroup"></path>
            <path d="M27,39 C27,39.552 26.552,40 26,40 C25.448,40 25,39.552 25,39 C25,38.448 25.448,38 26,38 C26.552,38 27,38.448 27,39" id="Fill-976" fill="#FFFFFF" sketch:type="MSShapeGroup"></path>
            <path d="M23,39 C23,39.552 22.552,40 22,40 C21.448,40 21,39.552 21,39 C21,38.448 21.448,38 22,38 C22.552,38 23,38.448 23,39" id="Fill-977" fill="#FFFFFF" sketch:type="MSShapeGroup"></path>
        </g>
    </g>
</svg>