<?xml version="1.0" encoding="UTF-8" standalone="no"?>
<svg width="53px" height="55px" viewBox="0 0 53 55" version="1.1" xmlns="http://www.w3.org/2000/svg" xmlns:xlink="http://www.w3.org/1999/xlink" xmlns:sketch="http://www.bohemiancoding.com/sketch/ns">
    <!-- Generator: Sketch 3.2.2 (9983) - http://www.bohemiancoding.com/sketch -->
    <title>122 - Tea Bag (Flat)</title>
    <desc>Created with Sketch.</desc>
    <defs></defs>
    <g id="Page-1" stroke="none" stroke-width="1" fill="none" fill-rule="evenodd" sketch:type="MSPage">
        <g id="122---Tea-Bag-(Flat)" sketch:type="MSLayerGroup" transform="translate(0.000000, 1.000000)">
            <path d="M6,13 C6,17.4 9.6,21 14,21 C18.4,21 22,17.4 22,13 L22,8 L22,13 L22,8 C22,3.6 25.6,0 30,0 C34.4,0 38,3.6 38,8" id="Stroke-996" stroke="#D2D5D7" stroke-width="2" sketch:type="MSShapeGroup"></path>
            <path d="M52.786,24.423 L47.884,11.202 C47.393,9.878 46.141,9 44.742,9 L30.258,9 C28.859,9 27.607,9.878 27.116,11.202 L22.214,24.423 C22.072,24.805 22,25.208 22,25.615 L22,50.605 C22,52.48 23.503,54 25.356,54 L49.644,54 C51.497,54 53,52.48 53,50.605 L53,25.615 C53,25.208 52.928,24.805 52.786,24.423 L52.786,24.423 Z M38,20 C36.343,20 35,18.657 35,17 C35,15.343 36.343,14 38,14 C39.657,14 41,15.343 41,17 C41,18.657 39.657,20 38,20 L38,20 Z" id="Fill-997" fill="#E6E6E6" sketch:type="MSShapeGroup"></path>
            <path d="M8.453,17 L3.547,17 C1.588,17 0,15.412 0,13.452 L0,5.547 C0,3.588 1.588,2 3.547,2 L8.453,2 C10.412,2 12,3.588 12,5.547 L12,13.452 C12,15.412 10.412,17 8.453,17" id="Fill-998" fill="#FBD490" sketch:type="MSShapeGroup"></path>
            <path d="M41,17 C41,18.657 39.657,20 38,20 C36.343,20 35,18.657 35,17 C35,15.343 36.343,14 38,14 C39.657,14 41,15.343 41,17 L41,17 Z M37.998,7.812 L38,17 L37.998,7.812 Z" id="Stroke-999" stroke="#D2D5D7" stroke-width="2" sketch:type="MSShapeGroup"></path>
            <path d="M28.293,51.707 L27,50.414 L25.707,51.707 L24.293,50.293 L27,47.586 L29.707,50.293 L28.293,51.707" id="Fill-1000" fill="#D2D5D7" sketch:type="MSShapeGroup"></path>
            <path d="M35.293,51.707 L34,50.414 L32.707,51.707 L31.293,50.293 L34,47.586 L36.707,50.293 L35.293,51.707" id="Fill-1001" fill="#D2D5D7" sketch:type="MSShapeGroup"></path>
            <path d="M42.293,51.707 L41,50.414 L39.707,51.707 L38.293,50.293 L41,47.586 L43.707,50.293 L42.293,51.707" id="Fill-1002" fill="#D2D5D7" sketch:type="MSShapeGroup"></path>
            <path d="M49.293,51.707 L48,50.414 L46.707,51.707 L45.293,50.293 L48,47.586 L50.707,50.293 L49.293,51.707" id="Fill-1003" fill="#D2D5D7" sketch:type="MSShapeGroup"></path>
            <path d="M28.293,41.707 L27,40.414 L25.707,41.707 L24.293,40.293 L27,37.586 L29.707,40.293 L28.293,41.707" id="Fill-1004" fill="#D2D5D7" sketch:type="MSShapeGroup"></path>
            <path d="M35.293,41.707 L34,40.414 L32.707,41.707 L31.293,40.293 L34,37.586 L36.707,40.293 L35.293,41.707" id="Fill-1005" fill="#D2D5D7" sketch:type="MSShapeGroup"></path>
            <path d="M42.293,41.707 L41,40.414 L39.707,41.707 L38.293,40.293 L41,37.586 L43.707,40.293 L42.293,41.707" id="Fill-1006" fill="#D2D5D7" sketch:type="MSShapeGroup"></path>
            <path d="M49.293,41.707 L48,40.414 L46.707,41.707 L45.293,40.293 L48,37.586 L50.707,40.293 L49.293,41.707" id="Fill-1007" fill="#D2D5D7" sketch:type="MSShapeGroup"></path>
            <path d="M31.293,46.707 L30,45.414 L28.707,46.707 L27.293,45.293 L30,42.586 L32.707,45.293 L31.293,46.707" id="Fill-1008" fill="#D2D5D7" sketch:type="MSShapeGroup"></path>
            <path d="M38.293,46.707 L37,45.414 L35.707,46.707 L34.293,45.293 L37,42.586 L39.707,45.293 L38.293,46.707" id="Fill-1009" fill="#D2D5D7" sketch:type="MSShapeGroup"></path>
            <path d="M45.293,46.707 L44,45.414 L42.707,46.707 L41.293,45.293 L44,42.586 L46.707,45.293 L45.293,46.707" id="Fill-1010" fill="#D2D5D7" sketch:type="MSShapeGroup"></path>
            <path d="M31.293,36.707 L30,35.414 L28.707,36.707 L27.293,35.293 L30,32.586 L32.707,35.293 L31.293,36.707" id="Fill-1011" fill="#D2D5D7" sketch:type="MSShapeGroup"></path>
            <path d="M38.293,36.707 L37,35.414 L35.707,36.707 L34.293,35.293 L37,32.586 L39.707,35.293 L38.293,36.707" id="Fill-1012" fill="#D2D5D7" sketch:type="MSShapeGroup"></path>
            <path d="M45.293,36.707 L44,35.414 L42.707,36.707 L41.293,35.293 L44,32.586 L46.707,35.293 L45.293,36.707" id="Fill-1013" fill="#D2D5D7" sketch:type="MSShapeGroup"></path>
            <path d="M53,36 L53,34.586 L51,32.586 L48.293,35.293 L49.707,36.707 L51,35.414 L52.293,36.707 L53,36" id="Fill-1014" fill="#D2D5D7" sketch:type="MSShapeGroup"></path>
            <path d="M53,46 L53,44.586 L51,42.586 L48.293,45.293 L49.707,46.707 L51,45.414 L52.293,46.707 L53,46" id="Fill-1015" fill="#D2D5D7" sketch:type="MSShapeGroup"></path>
            <path d="M23,32.586 L22,33.586 L22,35 L22.707,35.707 L23,35.414 L24.293,36.707 L25.707,35.293 L23,32.586" id="Fill-1016" fill="#D2D5D7" sketch:type="MSShapeGroup"></path>
            <path d="M23,42.586 L22,43.586 L22,45 L22.707,45.707 L23,45.414 L24.293,46.707 L25.707,45.293 L23,42.586" id="Fill-1017" fill="#D2D5D7" sketch:type="MSShapeGroup"></path>
        </g>
    </g>
</svg>