<?xml version="1.0" encoding="UTF-8" standalone="no"?>
<svg width="14px" height="56px" viewBox="0 0 14 56" version="1.1" xmlns="http://www.w3.org/2000/svg" xmlns:xlink="http://www.w3.org/1999/xlink" xmlns:sketch="http://www.bohemiancoding.com/sketch/ns">
    <!-- Generator: Sketch 3.2.2 (9983) - http://www.bohemiancoding.com/sketch -->
    <title>177 - Teaspoon (Flat)</title>
    <desc>Created with Sketch.</desc>
    <defs></defs>
    <g id="Page-1" stroke="none" stroke-width="1" fill="none" fill-rule="evenodd" sketch:type="MSPage">
        <g id="177---Teaspoon-(Flat)" sketch:type="MSLayerGroup">
            <path d="M7.227,27.966 L7.227,18.966" id="Stroke-54" stroke="#D2D5D7" stroke-width="2" stroke-linecap="round" sketch:type="MSShapeGroup"></path>
            <path d="M14.01,8.798 C14.01,13.657 10.973,21.555 7.227,21.555 C3.482,21.555 0.445,13.657 0.445,8.798 C0.445,3.939 3.482,0 7.227,0 C10.973,0 14.01,3.939 14.01,8.798" id="Fill-55" fill="#D2D5D7" sketch:type="MSShapeGroup"></path>
            <path d="M7.227,55.966 L7.227,55.966 C5.578,55.966 4.227,54.616 4.227,52.967 L4.227,30.966 C4.227,29.316 5.578,27.966 7.227,27.966 C8.877,27.966 10.227,29.316 10.227,30.966 L10.227,52.967 C10.227,54.616 8.877,55.966 7.227,55.966" id="Fill-56" fill="#A46F3E" sketch:type="MSShapeGroup"></path>
            <path d="M7.227,33.966 L7.227,33.966 C6.677,33.966 6.228,33.516 6.228,32.966 C6.228,32.417 6.677,31.966 7.227,31.966 C7.777,31.966 8.227,32.417 8.227,32.966 C8.227,33.516 7.777,33.966 7.227,33.966" id="Fill-57" fill="#D2D5D7" sketch:type="MSShapeGroup"></path>
            <path d="M7.227,37.966 L7.227,37.966 C6.677,37.966 6.228,37.516 6.228,36.966 C6.228,36.416 6.677,35.966 7.227,35.966 C7.777,35.966 8.227,36.416 8.227,36.966 C8.227,37.516 7.777,37.966 7.227,37.966" id="Fill-58" fill="#D2D5D7" sketch:type="MSShapeGroup"></path>
        </g>
    </g>
</svg>