<?xml version="1.0" encoding="UTF-8" standalone="no"?>
<svg width="36px" height="56px" viewBox="0 0 36 56" version="1.1" xmlns="http://www.w3.org/2000/svg" xmlns:xlink="http://www.w3.org/1999/xlink" xmlns:sketch="http://www.bohemiancoding.com/sketch/ns">
    <!-- Generator: Sketch 3.2.2 (9983) - http://www.bohemiancoding.com/sketch -->
    <title>30 - Teriyaki Wrap (Flat)</title>
    <desc>Created with Sketch.</desc>
    <defs></defs>
    <g id="Page-1" stroke="none" stroke-width="1" fill="none" fill-rule="evenodd" sketch:type="MSPage">
        <g id="30---Teriyaki-Wrap-(Flat)" sketch:type="MSLayerGroup">
            <path d="M16.522,0.454 L0.306,19.561 C-0.022,19.947 -0.093,20.49 0.126,20.948 L16.345,54.922 C16.808,55.892 18.185,55.9 18.66,54.936 L35.388,20.966 C35.617,20.5 35.544,19.941 35.201,19.55 L18.471,0.439 C17.953,-0.152 17.031,-0.145 16.522,0.454" id="Fill-1660" fill="#FAF6E5" sketch:type="MSShapeGroup"></path>
            <path d="M18.471,0.439 C17.953,-0.152 17.031,-0.145 16.522,0.454 L0.306,19.561 C0.108,19.793 0.017,20.083 0.013,20.376 C4.016,23.977 10.475,26.316 17.767,26.316 C25.049,26.316 31.503,23.982 35.507,20.389 C35.505,20.087 35.409,19.788 35.201,19.55 L18.471,0.439" id="Fill-1661" fill="#FFF6BB" sketch:type="MSShapeGroup"></path>
            <path d="M17.767,26.316 C23.484,26.316 28.683,24.874 32.595,22.517 C32.272,22.06 31.782,21.753 31.212,21.753 C30.932,21.753 30.622,21.415 30.622,21.109 C30.622,20.043 29.829,19.178 28.851,19.178 C28.571,19.178 28.261,18.84 28.261,18.534 C28.261,17.467 27.469,16.603 26.491,16.603 C26.211,16.603 25.901,16.264 25.901,15.959 C25.901,14.892 25.108,14.027 24.13,14.027 C23.85,14.027 23.54,13.689 23.54,13.383 C23.54,12.317 22.747,11.452 21.769,11.452 C21.489,11.452 21.179,11.114 21.179,10.808 C21.179,9.845 20.531,9.054 19.687,8.907 C19.282,8.124 18.521,7.589 17.638,7.589 C16.755,7.589 15.995,8.124 15.59,8.907 C14.745,9.054 14.097,9.845 14.097,10.808 C14.097,11.114 13.787,11.452 13.507,11.452 C12.529,11.452 11.736,12.317 11.736,13.383 C11.736,13.689 11.426,14.027 11.146,14.027 C10.169,14.027 9.376,14.892 9.376,15.959 C9.376,16.264 9.066,16.603 8.786,16.603 C7.808,16.603 7.015,17.467 7.015,18.534 C7.015,18.84 6.705,19.178 6.425,19.178 C5.447,19.178 4.654,20.043 4.654,21.109 C4.654,21.415 4.344,21.753 4.064,21.753 C3.539,21.753 3.073,22.008 2.75,22.403 C6.681,24.828 11.958,26.316 17.767,26.316" id="Fill-1662" fill="#88C057" sketch:type="MSShapeGroup"></path>
            <path d="M21.529,15.422 L19.09,12.982 C18.201,12.094 16.761,12.094 15.872,12.982 L13.433,15.422 C12.7,16.155 12.582,17.261 13.059,18.126 C13.908,17.713 14.956,17.849 15.661,18.554 L17.552,20.445 L17.004,20.993 L19.443,18.554 C20.117,17.88 21.107,17.72 21.934,18.067 C22.374,17.211 22.246,16.139 21.529,15.422" id="Fill-1663" fill="#D75A4A" sketch:type="MSShapeGroup"></path>
            <path d="M16.768,21.283 C16.703,21.373 16.649,21.468 16.6,21.565 C16.649,21.468 16.705,21.374 16.768,21.283" id="Fill-1664" fill="#D75A4A" sketch:type="MSShapeGroup"></path>
            <path d="M23.498,25.813 L25.1,24.211 C25.989,23.322 25.989,21.881 25.1,20.993 L22.661,18.554 C21.773,17.665 20.332,17.665 19.443,18.554 L17.004,20.993 C16.116,21.881 16.116,23.322 17.004,24.211 L19.084,26.29 C20.603,26.23 22.077,26.065 23.498,25.813" id="Fill-1665" fill="#F85B57" sketch:type="MSShapeGroup"></path>
            <path d="M17.552,20.445 L15.661,18.554 C14.773,17.665 13.332,17.665 12.443,18.554 L10.004,20.993 C9.116,21.881 9.116,23.322 10.004,24.211 L11.51,25.716 C12.964,26 14.481,26.187 16.044,26.267 L17.552,24.758 L17.004,24.211 C16.116,23.322 16.116,21.881 17.004,20.993 L17.552,20.445" id="Fill-1666" fill="#EF857D" sketch:type="MSShapeGroup"></path>
        </g>
    </g>
</svg>