<?xml version="1.0" encoding="UTF-8" standalone="no"?>
<svg width="55px" height="51px" viewBox="0 0 55 51" version="1.1" xmlns="http://www.w3.org/2000/svg" xmlns:xlink="http://www.w3.org/1999/xlink" xmlns:sketch="http://www.bohemiancoding.com/sketch/ns">
    <!-- Generator: Sketch 3.2.2 (9983) - http://www.bohemiancoding.com/sketch -->
    <title>50 - Toast (Flat)</title>
    <desc>Created with Sketch.</desc>
    <defs></defs>
    <g id="Page-1" stroke="none" stroke-width="1" fill="none" fill-rule="evenodd" sketch:type="MSPage">
        <g id="50---Toast-(Flat)" sketch:type="MSLayerGroup">
            <path d="M50.681,12.681 C49.622,6.109 44.524,1.126 37.935,0.18 C35.855,-0.119 33.844,0.008 31.973,0.484 C27.684,1.576 23.199,1.575 18.91,0.484 C17.04,0.008 15.03,-0.119 12.95,0.18 C6.421,1.117 1.343,6.02 0.23,12.522 C-0.648,17.654 1.054,22.414 4.249,25.727 C6.456,28.016 7.778,31.013 7.778,34.192 L7.778,45.585 C7.778,48.576 10.202,51 13.193,51 L37.244,51 C40.235,51 42.659,48.576 42.659,45.585 L42.659,34.635 C42.659,31.34 44.091,28.264 46.425,25.938 C49.721,22.652 51.515,17.864 50.681,12.681" id="Fill-1628" fill="#FBD490" sketch:type="MSShapeGroup"></path>
            <path d="M4.884,15.019 L15.884,4.019 M7.384,22.519 L22.384,7.519 M38.884,42.019 L32.884,48.019 M38.884,32.019 L23.884,47.019 M10.384,29.519 L35.384,4.519 M10.884,40.019 L42.884,8.019 M13.884,47.019 L45.884,15.019" id="Stroke-1629" stroke="#D8AF6F" stroke-width="2" stroke-linecap="round" stroke-linejoin="round" sketch:type="MSShapeGroup"></path>
            <path d="M54.797,12.681 C53.738,6.109 48.64,1.126 42.051,0.18 C40.585,-0.031 39.158,-0.02 37.785,0.166 C37.836,0.172 37.885,0.173 37.935,0.18 C44.524,1.126 49.622,6.109 50.681,12.681 C51.515,17.864 49.721,22.652 46.425,25.938 C44.091,28.264 42.659,31.34 42.659,34.635 L42.659,45.585 C42.659,48.576 40.235,51 37.244,51 L41.36,51 C44.351,51 46.775,48.576 46.775,45.585 L46.775,34.635 C46.775,31.34 48.207,28.264 50.54,25.938 C53.837,22.652 55.631,17.864 54.797,12.681" id="Fill-1630" fill="#A46F3E" sketch:type="MSShapeGroup"></path>
        </g>
    </g>
</svg>