<?xml version="1.0" encoding="UTF-8" standalone="no"?>
<svg width="52px" height="53px" viewBox="0 0 52 53" version="1.1" xmlns="http://www.w3.org/2000/svg" xmlns:xlink="http://www.w3.org/1999/xlink" xmlns:sketch="http://www.bohemiancoding.com/sketch/ns">
    <!-- Generator: Sketch 3.2.2 (9983) - http://www.bohemiancoding.com/sketch -->
    <title>195 - Tomato (Flat)</title>
    <desc>Created with Sketch.</desc>
    <defs></defs>
    <g id="Page-1" stroke="none" stroke-width="1" fill="none" fill-rule="evenodd" sketch:type="MSPage">
        <g id="195---Tomato-(Flat)" sketch:type="MSLayerGroup">
            <path d="M40.305,9.091 C37.743,7.45 32.93,5.161 28.308,7.275 C27.862,7.479 27.356,7.158 27.356,6.668 L27.356,2.419 C27.356,1.437 26.69,0.633 25.875,0.633 L23.652,0.633 C22.837,0.633 22.17,1.437 22.17,2.419 L22.17,6.919 C22.17,7.345 21.785,7.667 21.368,7.581 C19.491,7.194 14.617,6.591 9.957,9.375 C9.318,9.757 9.689,10.756 10.421,10.622 C12.591,10.226 15.446,9.953 17.377,10.714 C17.883,10.914 17.956,11.605 17.501,11.903 C16.13,12.798 13.601,14.856 11.944,18.639 C11.661,19.284 12.454,19.861 12.997,19.414 C15.114,17.67 18.597,15.306 21.551,15.688 C21.898,15.733 22.163,16.017 22.158,16.368 C22.128,18.349 22.153,25.084 23.789,27.632 C24.048,28.035 24.625,28.054 24.907,27.667 C25.95,26.235 28.211,22.434 28.118,16.5 C28.112,16.11 28.426,15.794 28.816,15.806 C30.305,15.855 33.823,16.276 36.614,19 C37.071,19.447 37.828,19.061 37.748,18.427 C37.529,16.692 36.574,14.068 33.116,12.033 C32.591,11.724 32.68,10.938 33.272,10.792 C34.466,10.499 36.524,10.221 39.916,10.333 C40.602,10.356 40.883,9.462 40.305,9.091" id="Fill-257" fill="#88C057" sketch:type="MSShapeGroup"></path>
            <path d="M41.083,10.623 C40.99,10.558 40.881,10.517 40.769,10.503 C40.368,10.454 39.968,10.408 39.568,10.354 C39.425,10.341 39.281,10.329 39.138,10.315 C36.225,10.268 34.396,10.521 33.293,10.789 C32.693,10.935 32.586,11.721 33.117,12.034 C36.575,14.068 37.529,16.692 37.748,18.427 C37.828,19.061 37.071,19.447 36.614,19 C33.823,16.276 30.305,15.855 28.816,15.806 C28.426,15.794 28.112,16.11 28.118,16.5 C28.211,22.434 25.95,26.235 24.907,27.667 C24.625,28.054 24.048,28.035 23.789,27.632 C22.153,25.084 22.128,18.349 22.158,16.368 C22.163,16.017 21.898,15.733 21.551,15.688 C18.597,15.306 15.114,17.67 12.997,19.414 C12.454,19.861 11.661,19.284 11.944,18.639 C13.599,14.861 16.123,12.803 17.495,11.906 C17.952,11.607 17.876,10.912 17.367,10.716 C16.996,10.573 16.591,10.467 16.165,10.392 C16.088,10.378 16.008,10.377 15.931,10.388 C13.506,10.718 11.124,11.179 8.812,11.798 C8.711,11.825 8.615,11.875 8.534,11.942 C3.431,16.187 0.227,22.3 0.227,29.097 C0.227,41.918 11.62,52.312 25.674,52.312 C39.728,52.312 51.12,41.918 51.12,29.097 C51.12,21.561 47.183,14.864 41.083,10.623" id="Fill-258" fill="#D13834" sketch:type="MSShapeGroup"></path>
            <path d="M4.297,30.487 C4.492,31.818 4.939,33.111 5.625,34.269 M5.174,22.752 C4.755,23.895 4.507,25.098 4.422,26.312" id="Stroke-259" stroke="#ED7161" stroke-width="2" stroke-linecap="round" sketch:type="MSShapeGroup"></path>
        </g>
    </g>
</svg>