<?xml version="1.0" encoding="UTF-8" standalone="no"?>
<svg width="57px" height="47px" viewBox="0 0 57 47" version="1.1" xmlns="http://www.w3.org/2000/svg" xmlns:xlink="http://www.w3.org/1999/xlink" xmlns:sketch="http://www.bohemiancoding.com/sketch/ns">
    <!-- Generator: Sketch 3.2.2 (9983) - http://www.bohemiancoding.com/sketch -->
    <title>58 - Turkey (Flat)</title>
    <desc>Created with Sketch.</desc>
    <defs></defs>
    <g id="Page-1" stroke="none" stroke-width="1" fill="none" fill-rule="evenodd" sketch:type="MSPage">
        <g id="58---Turkey-(Flat)" sketch:type="MSLayerGroup">
            <path d="M44.948,9.595 C44.123,9.687 43.331,10.078 42.764,10.766 C40.529,13.477 37.393,15.23 33.954,15.95 C32.094,16.339 30.35,17.343 29.054,18.932 C26.19,22.44 26.581,27.723 29.939,30.763 C33.609,34.086 39.267,33.641 42.382,29.863 C43.544,28.453 44.182,26.785 44.32,25.092 C44.611,21.526 46.115,18.166 48.391,15.405 C48.391,15.405 50.852,10.602 44.948,9.595" id="Fill-1473" fill="#DC9628" sketch:type="MSShapeGroup"></path>
            <path d="M13,18.958 C14.522,16.625 16.332,13.233 16.175,10.489 C16.11,9.368 17.311,8.625 18.277,9.198 C22.426,11.663 27.819,17.483 17,28.718 C12.599,33.288 9.353,30.853 9,27.661 C8.662,24.61 11.322,21.529 13,18.958" id="Fill-1474" fill="#F1B501" sketch:type="MSShapeGroup"></path>
            <path d="M47.966,47 L7.034,47 C5.209,47 3.496,46.118 2.435,44.633 L0.175,41.468 C-0.264,40.854 0.175,40 0.93,40 L54.07,40 C54.825,40 55.264,40.854 54.825,41.468 L52.565,44.633 C51.504,46.118 49.791,47 47.966,47" id="Fill-1475" fill="#E6E6E6" sketch:type="MSShapeGroup"></path>
            <path d="M47.491,16.594 C47.777,16.187 48.075,15.789 48.391,15.405 C48.391,15.405 50.852,10.602 44.948,9.595 C44.123,9.687 43.331,10.078 42.764,10.766 C42.284,11.348 41.755,11.877 41.198,12.37 C36.993,11.01 31.859,11.814 26.273,16.602 C25.655,17.132 24.608,18.252 23.15,18.8 C22.593,21.498 20.798,24.773 17,28.718 C12.599,33.288 9.353,30.853 9,27.661 C8.662,24.61 11.322,21.529 13,18.958 C13.749,17.809 14.566,16.403 15.186,14.945 C14.588,14.565 13.924,14.318 13.138,14.318 C6.829,14.318 4,18.664 4,24.026 C4,24.582 4.056,25.127 4.163,25.657 C4.468,27.172 4.559,28.719 4.244,30.232 C4.084,31.002 4,31.791 4,32.593 C4,34.386 4.559,35.87 5.543,37.103 C6.519,36.41 7.711,36 9,36 C11.611,36 13.827,37.671 14.651,40 L15.349,40 C16.173,37.671 18.389,36 21,36 C23.611,36 25.827,37.671 26.651,40 L27.349,40 C28.173,37.671 30.389,36 33,36 C35.611,36 37.827,37.671 38.651,40 L39.349,40 C40.173,37.671 42.389,36 45,36 C46.789,36 48.379,36.795 49.477,38.038 C52.334,36.09 54.323,33.531 55,30.308 C55.866,26.187 51.054,20.564 47.491,16.594" id="Fill-1476" fill="#F4C44E" sketch:type="MSShapeGroup"></path>
            <path d="M56.47,3.044 C56.107,2.597 55.64,2.331 55.148,2.221 C54.84,2.152 54.593,1.948 54.466,1.659 C54.264,1.196 53.914,0.789 53.406,0.518 C52.502,0.034 51.344,0.197 50.608,0.912 C50.023,1.481 49.798,2.25 49.903,2.976 C50.022,3.795 49.862,4.63 49.335,5.269 L45.638,9.753 C47.781,10.294 48.6,11.405 48.822,12.508 L52.582,7.947 C53.109,7.308 53.898,6.991 54.725,6.951 C55.458,6.916 56.17,6.548 56.617,5.865 C57.178,5.007 57.117,3.839 56.47,3.044" id="Fill-1477" fill="#D2D5D7" sketch:type="MSShapeGroup"></path>
            <path d="M44.948,9.595 C44.123,9.687 43.331,10.078 42.764,10.766 C40.529,13.477 37.393,15.23 33.954,15.95 C32.094,16.339 30.35,17.343 29.054,18.932 C26.19,22.44 26.581,27.723 29.939,30.763 C33.609,34.086 39.267,33.641 42.382,29.863 C43.544,28.453 44.182,26.785 44.32,25.092 C44.611,21.526 46.115,18.166 48.391,15.405 C48.391,15.405 50.852,10.602 44.948,9.595" id="Fill-1478" fill="#DC9628" sketch:type="MSShapeGroup"></path>
            <path d="M47.966,47 L7.034,47 C5.209,47 3.496,46.118 2.435,44.633 L0.175,41.468 C-0.264,40.854 0.175,40 0.93,40 L54.07,40 C54.825,40 55.264,40.854 54.825,41.468 L52.565,44.633 C51.504,46.118 49.791,47 47.966,47" id="Fill-1479" fill="#E6E6E6" sketch:type="MSShapeGroup"></path>
            <path d="M47.966,47 L7.034,47 C5.209,47 3.496,46.118 2.435,44.633 L0.175,41.468 C-0.264,40.854 0.175,40 0.93,40 L54.07,40 C54.825,40 55.264,40.854 54.825,41.468 L52.565,44.633 C51.504,46.118 49.791,47 47.966,47" id="Fill-1480" fill="#E6E6E6" sketch:type="MSShapeGroup"></path>
            <path d="M47.966,47 L7.034,47 C5.209,47 3.496,46.118 2.435,44.633 L0.175,41.468 C-0.264,40.854 0.175,40 0.93,40 L54.07,40 C54.825,40 55.264,40.854 54.825,41.468 L52.565,44.633 C51.504,46.118 49.791,47 47.966,47" id="Fill-1481" fill="#E6E6E6" sketch:type="MSShapeGroup"></path>
            <path d="M26.651,40 C25.827,37.671 23.611,36 21,36 C18.389,36 16.173,37.671 15.349,40 L26.651,40" id="Fill-1482" fill="#659C35" sketch:type="MSShapeGroup"></path>
            <path d="M14.651,40 C13.827,37.671 11.611,36 9,36 C6.389,36 4.173,37.671 3.349,40 L14.651,40" id="Fill-1483" fill="#ED3F32" sketch:type="MSShapeGroup"></path>
            <path d="M38.651,40 C37.827,37.671 35.611,36 33,36 C30.389,36 28.173,37.671 27.349,40 L38.651,40" id="Fill-1484" fill="#ED3F32" sketch:type="MSShapeGroup"></path>
            <path d="M50.651,40 C49.827,37.671 47.611,36 45,36 C42.389,36 40.173,37.671 39.349,40 L50.651,40" id="Fill-1485" fill="#659C35" sketch:type="MSShapeGroup"></path>
            <path d="M47.966,47 L7.034,47 C5.209,47 3.496,46.118 2.435,44.633 L0.175,41.468 C-0.264,40.854 0.175,40 0.93,40 L54.07,40 C54.825,40 55.264,40.854 54.825,41.468 L52.565,44.633 C51.504,46.118 49.791,47 47.966,47" id="Fill-1486" fill="#E6E6E6" sketch:type="MSShapeGroup"></path>
            <path d="M47.966,47 L7.034,47 C5.209,47 3.496,46.118 2.435,44.633 L0.175,41.468 C-0.264,40.854 0.175,40 0.93,40 L54.07,40 C54.825,40 55.264,40.854 54.825,41.468 L52.565,44.633 C51.504,46.118 49.791,47 47.966,47" id="Fill-1487" fill="#E6E6E6" sketch:type="MSShapeGroup"></path>
        </g>
    </g>
</svg>