<?xml version="1.0" encoding="UTF-8" standalone="no"?>
<svg width="35px" height="56px" viewBox="0 0 35 56" version="1.1" xmlns="http://www.w3.org/2000/svg" xmlns:xlink="http://www.w3.org/1999/xlink" xmlns:sketch="http://www.bohemiancoding.com/sketch/ns">
    <!-- Generator: Sketch 3.2.2 (9983) - http://www.bohemiancoding.com/sketch -->
    <title>97 - Waffe (Flat)</title>
    <desc>Created with Sketch.</desc>
    <defs></defs>
    <g id="Page-1" stroke="none" stroke-width="1" fill="none" fill-rule="evenodd" sketch:type="MSPage">
        <g id="Icons" sketch:type="MSArtboardGroup" transform="translate(-490.000000, -1920.000000)">
            <g id="97---Waffe-(Flat)" sketch:type="MSLayerGroup" transform="translate(490.000000, 1920.000000)">
                <path d="M25.07,56 L9.928,56 C8.993,56 8.205,55.302 8.094,54.374 L5.526,33 L29.471,33 L26.904,54.374 C26.792,55.302 26.005,56 25.07,56" id="Fill-1042" fill="#FBD490" sketch:type="MSShapeGroup"></path>
                <path d="M29.907,33 L5.09,33 C3.296,33 1.842,31.596 1.842,29.865 L0.921,25 L34.076,25 L33.155,29.865 C33.155,31.596 31.701,33 29.907,33" id="Fill-1043" fill="#EEAF4B" sketch:type="MSShapeGroup"></path>
                <path d="M1.483,25 L33.551,25 C34.479,23.993 35,22.883 35,21.715 C35,20.085 33.993,18.566 32.263,17.286 C32.37,16.923 32.427,16.551 32.427,16.172 C32.427,14.138 30.823,12.294 28.221,10.94 C28.221,10.94 28.29,-0.758 18.751,0.188 C18.751,0.188 21.826,5.168 17.517,5.213 C11.513,5.276 6.646,7.406 6.646,10.112 C6.646,10.395 7.898,10.67 8,10.94 C5.398,12.294 2.607,14.138 2.607,16.172 C2.607,16.551 3.893,16.923 4,17.286 C2.27,18.566 0.034,20.085 0.034,21.715 C0.034,22.883 0.555,23.993 1.483,25" id="Fill-1044" fill="#F2ECD3" sketch:type="MSShapeGroup"></path>
                <path d="M12,11 L15,11 M22,11 L24,11" id="Stroke-1045" stroke="#FBD490" stroke-width="2" stroke-linecap="round" stroke-linejoin="round" sketch:type="MSShapeGroup"></path>
                <path d="M14,17 L14.996,17" id="Stroke-1046" stroke="#FBD490" stroke-width="2" stroke-linecap="round" stroke-linejoin="round" sketch:type="MSShapeGroup"></path>
                <path d="M19.576,17 L23.703,17" id="Stroke-1047" stroke="#FBD490" stroke-width="2" stroke-linecap="round" stroke-linejoin="round" stroke-dasharray="1.833,4.583" sketch:type="MSShapeGroup"></path>
                <path d="M26.004,17 L27,17" id="Stroke-1048" stroke="#FBD490" stroke-width="2" stroke-linecap="round" stroke-linejoin="round" sketch:type="MSShapeGroup"></path>
                <path d="M9,17 C10.711,17 8.289,17 10,17" id="Stroke-1049" stroke="#FBD490" stroke-width="2" stroke-linecap="round" stroke-linejoin="round" sketch:type="MSShapeGroup"></path>
                <path d="M17.707,51.293 L15,48.586 L12.293,51.293 L13.707,52.707 L15,51.414 L16.293,52.707 L17.707,51.293" id="Fill-1050" fill="#EEAF4B" sketch:type="MSShapeGroup"></path>
                <path d="M24.707,51.293 L22,48.586 L19.293,51.293 L20.707,52.707 L22,51.414 L23.293,52.707 L24.707,51.293" id="Fill-1051" fill="#EEAF4B" sketch:type="MSShapeGroup"></path>
                <path d="M8,41.414 L9.293,42.707 L10.707,41.293 L8,38.586 L6.293,40.293 L7.707,41.707 L8,41.414" id="Fill-1052" fill="#EEAF4B" sketch:type="MSShapeGroup"></path>
                <path d="M13.707,42.707 L15,41.414 L16.293,42.707 L17.707,41.293 L15,38.586 L12.293,41.293 L13.707,42.707" id="Fill-1053" fill="#EEAF4B" sketch:type="MSShapeGroup"></path>
                <path d="M20.707,42.707 L22,41.414 L23.293,42.707 L24.707,41.293 L22,38.586 L19.293,41.293 L20.707,42.707" id="Fill-1054" fill="#EEAF4B" sketch:type="MSShapeGroup"></path>
                <path d="M8.293,46.293 L9.707,47.707 L11,46.414 L12.293,47.707 L13.707,46.293 L11,43.586 L8.293,46.293" id="Fill-1055" fill="#EEAF4B" sketch:type="MSShapeGroup"></path>
                <path d="M15.293,46.293 L16.707,47.707 L18,46.414 L19.293,47.707 L20.707,46.293 L18,43.586 L15.293,46.293" id="Fill-1056" fill="#EEAF4B" sketch:type="MSShapeGroup"></path>
                <path d="M22.293,46.293 L23.707,47.707 L25,46.414 L26.293,47.707 L27.707,46.293 L25,43.586 L22.293,46.293" id="Fill-1057" fill="#EEAF4B" sketch:type="MSShapeGroup"></path>
                <path d="M11,36.414 L12.293,37.707 L13.707,36.293 L11,33.586 L8.293,36.293 L9.707,37.707 L11,36.414" id="Fill-1058" fill="#EEAF4B" sketch:type="MSShapeGroup"></path>
                <path d="M18,36.414 L19.293,37.707 L20.707,36.293 L18,33.586 L15.293,36.293 L16.707,37.707 L18,36.414" id="Fill-1059" fill="#EEAF4B" sketch:type="MSShapeGroup"></path>
                <path d="M25,36.414 L26.293,37.707 L27.707,36.293 L25,33.586 L22.293,36.293 L23.707,37.707 L25,36.414" id="Fill-1060" fill="#EEAF4B" sketch:type="MSShapeGroup"></path>
                <path d="M27.293,40.293 L26.293,41.293 L27.707,42.707 L28.387,42.027 L28.456,41.456 L27.293,40.293" id="Fill-1061" fill="#EEAF4B" sketch:type="MSShapeGroup"></path>
                <path d="M22.293,55.293 L23,56 L24.414,56 L25,55.414 L25.523,55.937 C26.217,55.76 26.757,55.195 26.883,54.469 L25,52.586 L22.293,55.293" id="Fill-1062" fill="#EEAF4B" sketch:type="MSShapeGroup"></path>
                <path d="M15.293,55.293 L16,56 L17.414,56 L18,55.414 L18.586,56 L20,56 L20.707,55.293 L18,52.586 L15.293,55.293" id="Fill-1063" fill="#EEAF4B" sketch:type="MSShapeGroup"></path>
                <path d="M8.402,55.183 C8.736,55.677 9.296,56 9.928,56 L10.414,56 L11,55.414 L11.586,56 L13,56 L13.707,55.293 L11,52.586 L8.402,55.183" id="Fill-1064" fill="#EEAF4B" sketch:type="MSShapeGroup"></path>
                <path d="M10.707,51.293 L8.707,49.293 L7.614,50.385 L7.702,51.116 L9.293,52.707 L10.707,51.293" id="Fill-1065" fill="#EEAF4B" sketch:type="MSShapeGroup"></path>
            </g>
        </g>
    </g>
</svg>