<?xml version="1.0" encoding="UTF-8" standalone="no"?>
<svg width="22px" height="58px" viewBox="0 0 22 58" version="1.1" xmlns="http://www.w3.org/2000/svg" xmlns:xlink="http://www.w3.org/1999/xlink" xmlns:sketch="http://www.bohemiancoding.com/sketch/ns">
    <!-- Generator: Sketch 3.2.2 (9983) - http://www.bohemiancoding.com/sketch -->
    <title>24 - Water Bottle (Flat)</title>
    <desc>Created with Sketch.</desc>
    <defs></defs>
    <g id="Page-1" stroke="none" stroke-width="1" fill="none" fill-rule="evenodd" sketch:type="MSPage">
        <g id="24---Water-Bottle-(Flat)" sketch:type="MSLayerGroup">
            <path d="M21.141,40.149 C20.929,37.523 20.174,34.996 19.224,32.539 C18.061,29.529 18.299,25.275 20.024,23.043 C20.902,21.907 21.288,20.452 21.28,19.016 C21.232,9.714 16.177,7.493 14.768,7.055 C14.469,6.962 14.218,6.77 14.063,6.498 C13.745,5.944 13.562,5.197 13.457,4.486 C13.361,3.835 12.793,3.373 12.137,3.429 C11.75,3.462 11.345,3.48 10.925,3.48 C10.506,3.48 10.101,3.462 9.713,3.429 C9.058,3.373 8.49,3.835 8.394,4.486 C8.289,5.197 8.106,5.944 7.788,6.498 C7.633,6.77 7.381,6.962 7.083,7.055 C5.674,7.493 0.619,9.714 0.57,19.016 C0.563,20.452 0.949,21.907 1.827,23.043 C3.552,25.275 3.789,29.529 2.626,32.539 C1.677,34.996 0.922,37.523 0.71,40.149 C0.36,44.473 0.035,50.484 0.484,54.52 C0.484,56.442 3.298,58 10.345,58 C17.393,58 21.367,56.442 21.367,54.52 C21.815,50.484 21.491,44.473 21.141,40.149" id="Fill-1931" fill="#DAE7EF" sketch:type="MSShapeGroup"></path>
            <path d="M0.589,18.548 C0.585,18.707 0.571,18.852 0.57,19.016 C0.563,20.452 0.949,21.907 1.827,23.043 C3.552,25.275 3.789,29.529 2.626,32.538 C1.677,34.995 0.922,37.523 0.71,40.149 C0.698,40.297 0.686,40.459 0.674,40.61 C3.298,41.319 6.916,41.76 10.925,41.76 C14.934,41.76 18.553,41.319 21.176,40.61 C21.164,40.459 21.153,40.297 21.141,40.149 C20.929,37.523 20.174,34.995 19.224,32.538 C18.061,29.529 18.299,25.275 20.023,23.043 C20.902,21.907 21.288,20.452 21.28,19.016 C21.279,18.852 21.266,18.707 21.262,18.548 C18.632,19.269 14.978,19.72 10.925,19.72 C6.873,19.72 3.219,19.269 0.589,18.548" id="Fill-1932" fill="#3DABEF" sketch:type="MSShapeGroup"></path>
            <path d="M4.545,49.88 L4.545,51.029 C4.545,51.029 4.255,53.542 9.185,53.349 M4.545,45.229 L4.545,46.4 M9.185,10.44 C9.185,10.44 6.285,11.841 5.705,15.079" id="Stroke-1933" stroke="#FFFFFF" stroke-width="2" stroke-linecap="round" sketch:type="MSShapeGroup"></path>
            <path d="M10.925,0 C9.131,0 7.677,0.484 7.677,1.082 L7.677,4.33 C7.677,4.928 9.131,5.413 10.925,5.413 C12.719,5.413 14.173,4.928 14.173,4.33 L14.173,1.082 C14.173,0.484 12.719,0 10.925,0" id="Fill-1934" fill="#003879" sketch:type="MSShapeGroup"></path>
            <path d="M9.961,2.33 L10.773,2.33" id="Stroke-1935" stroke="#1A69B7" stroke-linecap="round" sketch:type="MSShapeGroup"></path>
        </g>
    </g>
</svg>