<?xml version="1.0" encoding="UTF-8" standalone="no"?>
<svg width="36px" height="42px" viewBox="0 0 36 42" version="1.1" xmlns="http://www.w3.org/2000/svg" xmlns:xlink="http://www.w3.org/1999/xlink" xmlns:sketch="http://www.bohemiancoding.com/sketch/ns">
    <!-- Generator: Sketch 3.2.2 (9983) - http://www.bohemiancoding.com/sketch -->
    <title>146 - Whiskey Glass (Flat)</title>
    <desc>Created with Sketch.</desc>
    <defs></defs>
    <g id="Page-1" stroke="none" stroke-width="1" fill="none" fill-rule="evenodd" sketch:type="MSPage">
        <g id="146---Whiskey-Glass-(Flat)" sketch:type="MSLayerGroup" transform="translate(1.000000, 1.000000)">
            <path d="M15.37,21.809 L11.94,25.014 C11.136,25.765 9.864,25.722 9.113,24.918 L5.908,21.488 C5.157,20.684 5.2,19.412 6.004,18.661 L9.434,15.457 C10.238,14.706 11.51,14.749 12.261,15.553 L15.465,18.982 C16.216,19.786 16.173,21.058 15.37,21.809 L15.37,21.809 Z" id="Stroke-868" stroke="#231F1F" stroke-width="2" stroke-linecap="round" sketch:type="MSShapeGroup"></path>
            <path d="M34,2 C34,3.104 26.389,4 17,4 C7.611,4 0,3.104 0,2 C0,0.895 7.611,0 17,0 C26.389,0 34,0.895 34,2 L34,2 Z" id="Fill-869" fill="#DAE7EF" sketch:type="MSShapeGroup"></path>
            <path d="M34,2 C34,3.104 26.389,4 17,4 C7.611,4 0,3.104 0,2 C0,0.895 7.611,0 17,0 C26.389,0 34,0.895 34,2 L34,2 Z" id="Stroke-870" stroke="#BBD7EB" stroke-linecap="round" stroke-linejoin="round" sketch:type="MSShapeGroup"></path>
            <path d="M17,4 C7.611,4 0,3.657 0,2 L3,38 C3,39.104 10.925,40 17,40 C23.075,40 31,39.104 31,38 L34,2 C34,3.657 26.389,4 17,4 L17,4 Z" id="Fill-871" fill="#DAE7EF" sketch:type="MSShapeGroup"></path>
            <path d="M17,4 C7.611,4 0,3.657 0,2 L3,38 C3,39.104 10.925,40 17,40 C23.075,40 31,39.104 31,38 L34,2 C34,3.657 26.389,4 17,4 L17,4 Z" id="Stroke-872" stroke="#BBD7EB" stroke-linecap="round" stroke-linejoin="round" sketch:type="MSShapeGroup"></path>
            <path d="M26.093,19.325 L22.663,22.53 C21.859,23.281 20.587,23.238 19.836,22.434 L16.632,19.004 C15.881,18.2 15.924,16.928 16.728,16.177 L20.157,12.973 C20.961,12.222 22.233,12.265 22.984,13.069 L26.189,16.499 C26.94,17.302 26.897,18.574 26.093,19.325" id="Fill-873" fill="#FFFFFF" sketch:type="MSShapeGroup"></path>
            <path d="M17.082,19 C9.036,19 2.504,18.297 1.446,17.385 C1.392,17.37 1.33,17.355 1.278,17.34 L2.616,33.393 C5.086,34.26 11.681,34.886 17,34.886 C22.319,34.886 28.914,34.26 31.384,33.393 L32.722,17.34 C32.68,17.353 32.63,17.364 32.586,17.377 C31.58,18.293 25.154,19 17.082,19" id="Fill-874" fill="#CC6329" sketch:type="MSShapeGroup"></path>
            <path d="M25.282,15.53 L26.189,16.501 C26.737,17.088 26.857,17.922 26.573,18.622 C30.339,18.28 32.739,17.74 32.739,17.129 C32.739,16.451 29.785,15.859 25.282,15.53" id="Fill-875" fill="#AD5123" sketch:type="MSShapeGroup"></path>
            <path d="M9.401,15.49 C4.54,15.809 1.278,16.423 1.278,17.129 C1.278,17.664 3.166,18.145 6.195,18.486 L9.401,15.49" id="Fill-876" fill="#AD5123" sketch:type="MSShapeGroup"></path>
            <path d="M12.03,15.354 C12.11,15.416 12.189,15.479 12.261,15.555 L15.465,18.985 C15.467,18.986 15.467,18.988 15.469,18.989 C15.852,18.994 16.235,18.999 16.626,19 C15.882,18.196 15.926,16.929 16.728,16.18 L17.713,15.259 C17.502,15.258 17.295,15.255 17.082,15.255 C15.309,15.255 13.615,15.291 12.03,15.354" id="Fill-877" fill="#AD5123" sketch:type="MSShapeGroup"></path>
            <path d="M15.37,21.809 L11.94,25.014 C11.136,25.765 9.864,25.722 9.113,24.918 L5.908,21.488 C5.157,20.684 5.2,19.412 6.004,18.661 L9.434,15.457 C10.238,14.706 11.51,14.749 12.261,15.553 L15.465,18.982 C16.216,19.786 16.173,21.058 15.37,21.809" id="Fill-878" fill="#FFFFFF" sketch:type="MSShapeGroup"></path>
            <path d="M6.239,18.441 L6.004,18.661 C5.2,19.412 5.157,20.684 5.908,21.488 L9.113,24.918 C9.864,25.722 11.136,25.765 11.94,25.014 L15.369,21.809 C16.171,21.06 16.216,19.793 15.47,18.988 C11.906,18.94 8.703,18.74 6.239,18.441" id="Fill-879" fill="#E28759" sketch:type="MSShapeGroup"></path>
            <path d="M22.998,28.019 L19.568,31.224 C18.764,31.975 17.492,31.932 16.741,31.128 L13.536,27.698 C12.785,26.895 12.828,25.622 13.632,24.871 L17.062,21.667 C17.866,20.916 19.138,20.959 19.889,21.763 L23.094,25.193 C23.845,25.996 23.801,27.268 22.998,28.019" id="Fill-880" fill="#E28759" sketch:type="MSShapeGroup"></path>
        </g>
    </g>
</svg>