<?xml version="1.0" encoding="UTF-8" standalone="no"?>
<svg width="28px" height="57px" viewBox="0 0 28 57" version="1.1" xmlns="http://www.w3.org/2000/svg" xmlns:xlink="http://www.w3.org/1999/xlink" xmlns:sketch="http://www.bohemiancoding.com/sketch/ns">
    <!-- Generator: Sketch 3.2.2 (9983) - http://www.bohemiancoding.com/sketch -->
    <title>147 - Wine Glass (Flat)</title>
    <desc>Created with Sketch.</desc>
    <defs></defs>
    <g id="Page-1" stroke="none" stroke-width="1" fill="none" fill-rule="evenodd" sketch:type="MSPage">
        <g id="147---Wine-Glass-(Flat)" sketch:type="MSLayerGroup" transform="translate(1.000000, 1.000000)">
            <path d="M25.753,20.169 L23.02,2.13 C23.005,2.133 22.992,2.138 22.977,2.141 C22.983,2.168 23,2.195 23,2.222 C23,3.327 18.523,4 13,4 C7.477,4 3,3.327 3,2.222 C3,2.206 3.008,2.19 3.014,2.174 C3.001,2.167 2.989,2.159 2.977,2.152 L0.247,20.169 C-0.935,27.974 5.107,35 13,35 C20.893,35 26.935,27.974 25.753,20.169 L25.753,20.169 Z" id="Fill-827" fill="#DAE7EF" sketch:type="MSShapeGroup"></path>
            <path d="M25.753,20.169 L23.02,2.13 C23.005,2.133 22.992,2.138 22.977,2.141 C22.983,2.168 23,2.195 23,2.222 C23,3.327 18.523,4 13,4 C7.477,4 3,3.327 3,2.222 C3,2.206 3.008,2.19 3.014,2.174 C3.001,2.167 2.989,2.159 2.977,2.152 L0.247,20.169 C-0.935,27.974 5.107,35 13,35 C20.893,35 26.935,27.974 25.753,20.169 L25.753,20.169 Z" id="Stroke-828" stroke="#BBD7EB" stroke-linecap="round" stroke-linejoin="round" sketch:type="MSShapeGroup"></path>
            <path d="M24,52.5 C24,53.881 19.075,55 13,55 C6.925,55 2,53.881 2,52.5 C2,51.119 6.925,50 13,50 C19.075,50 24,51.119 24,52.5 L24,52.5 Z" id="Fill-829" fill="#DAE7EF" sketch:type="MSShapeGroup"></path>
            <path d="M24,52.5 C24,53.881 19.075,55 13,55 C6.925,55 2,53.881 2,52.5 C2,51.119 6.925,50 13,50 C19.075,50 24,51.119 24,52.5 L24,52.5 Z" id="Stroke-830" stroke="#BBD7EB" sketch:type="MSShapeGroup"></path>
            <path d="M13,34.859 L13,51" id="Stroke-831" stroke="#BBD7EB" stroke-width="2" stroke-linecap="round" sketch:type="MSShapeGroup"></path>
            <path d="M23,2.222 C23,3.327 18.523,4 13,4 C7.477,4 3,3.327 3,2.222 C3,1.118 7.477,0 13,0 C18.523,0 23,1.118 23,2.222 L23,2.222 Z" id="Fill-832" fill="#DAE7EF" sketch:type="MSShapeGroup"></path>
            <path d="M23,2.222 C23,3.327 18.523,4 13,4 C7.477,4 3,3.327 3,2.222 C3,1.118 7.477,0 13,0 C18.523,0 23,1.118 23,2.222 L23,2.222 Z" id="Stroke-833" stroke="#BBD7EB" stroke-linecap="round" stroke-linejoin="round" sketch:type="MSShapeGroup"></path>
            <path d="M25.578,19.289 L25.578,19.289 C25.578,19.109 25.49,18.93 25.322,18.752 C25.238,18.664 25.134,18.576 25.011,18.489 C23.415,17.359 18.627,16.4 12.968,16.4 C12.544,16.4 12.126,16.406 11.712,16.416 C11.578,16.419 11.449,16.426 11.316,16.431 C11.04,16.44 10.763,16.449 10.493,16.463 C10.336,16.47 10.184,16.481 10.03,16.491 C9.79,16.505 9.549,16.519 9.314,16.537 C9.149,16.55 8.991,16.565 8.829,16.579 C8.613,16.598 8.397,16.616 8.187,16.638 C8.019,16.655 7.856,16.674 7.692,16.693 C7.497,16.715 7.302,16.738 7.112,16.762 C6.945,16.784 6.784,16.807 6.621,16.831 C6.445,16.856 6.269,16.881 6.098,16.909 C5.934,16.935 5.776,16.962 5.618,16.99 C5.459,17.017 5.302,17.045 5.149,17.075 C4.99,17.105 4.836,17.136 4.684,17.168 C4.545,17.197 4.408,17.227 4.275,17.257 C4.12,17.293 3.97,17.328 3.823,17.365 C3.705,17.395 3.589,17.425 3.476,17.455 C3.329,17.495 3.187,17.535 3.049,17.576 C2.949,17.606 2.852,17.637 2.757,17.667 C2.621,17.711 2.488,17.755 2.362,17.801 C2.28,17.83 2.203,17.86 2.126,17.89 C2,17.938 1.878,17.987 1.765,18.036 C1.702,18.064 1.645,18.092 1.586,18.12 C1.475,18.173 1.366,18.226 1.269,18.281 C1.223,18.306 1.184,18.332 1.142,18.358 C1.046,18.415 0.953,18.473 0.875,18.532 C0.846,18.554 0.824,18.575 0.798,18.597 C0.72,18.661 0.646,18.724 0.589,18.788 C0.576,18.803 0.569,18.819 0.556,18.834 C0.435,18.985 0.359,19.137 0.359,19.289 C0.359,19.308 0.37,19.326 0.372,19.344 L0.372,19.344 L0.247,20.169 C-0.935,27.974 5.107,35 13,35 C20.893,35 26.935,27.974 25.753,20.169 L25.578,19.289" id="Fill-834" fill="#701C11" sketch:type="MSShapeGroup"></path>
            <path d="M25.578,19.289 C25.578,20.725 19.932,21.6 12.968,21.6 C6.004,21.6 0.359,20.725 0.359,19.289 C0.359,17.853 6.004,16.4 12.968,16.4 C19.932,16.4 25.578,17.853 25.578,19.289" id="Fill-835" fill="#60130F" sketch:type="MSShapeGroup"></path>
        </g>
    </g>
</svg>