<?xml version="1.0" encoding="UTF-8" standalone="no"?>
<svg width="58px" height="58px" viewBox="0 0 58 58" version="1.1" xmlns="http://www.w3.org/2000/svg" xmlns:xlink="http://www.w3.org/1999/xlink" xmlns:sketch="http://www.bohemiancoding.com/sketch/ns">
    <!-- Generator: Sketch 3.3.2 (12043) - http://www.bohemiancoding.com/sketch -->
    <title>34 - 3-up (Flat)</title>
    <desc>Created with Sketch.</desc>
    <defs></defs>
    <g id="Page-1" stroke="none" stroke-width="1" fill="none" fill-rule="evenodd" sketch:type="MSPage">
        <g id="Icons" sketch:type="MSArtboardGroup" transform="translate(-841.000000, -1438.000000)">
            <g id="34---3-up-(Flat)" sketch:type="MSLayerGroup" transform="translate(841.000000, 1438.000000)">
                <path d="M0,0 L58,0 L58,58 L0,58 L0,0 Z" id="Fill-659" fill="#556080" sketch:type="MSShapeGroup"></path>
                <path d="M5,5 L53,5 L53,53 L5,53 L5,5 Z" id="Fill-660" fill="#556080" sketch:type="MSShapeGroup"></path>
                <path d="M4,4 L54,4 L54,54 L4,54 L4,4 Z M6,52 L52,52 L52,6 L6,6 L6,52 Z" id="Fill-661" fill="#25B99A" sketch:type="MSShapeGroup"></path>
                <path d="M29,5 L29,53" id="Fill-662" fill="#556080" sketch:type="MSShapeGroup"></path>
                <path d="M29,54 C28.447,54 28,53.553 28,53 L28,5 C28,4.447 28.447,4 29,4 C29.553,4 30,4.447 30,5 L30,53 C30,53.553 29.553,54 29,54" id="Fill-663" fill="#25B99A" sketch:type="MSShapeGroup"></path>
                <path d="M29,29 L53,29" id="Fill-664" fill="#556080" sketch:type="MSShapeGroup"></path>
                <path d="M53,30 L29,30 C28.447,30 28,29.553 28,29 C28,28.447 28.447,28 29,28 L53,28 C53.553,28 54,28.447 54,29 C54,29.553 53.553,30 53,30" id="Fill-665" fill="#25B99A" sketch:type="MSShapeGroup"></path>
            </g>
        </g>
    </g>
</svg>