<?xml version="1.0" encoding="UTF-8" standalone="no"?>
<svg width="60px" height="51px" viewBox="0 0 60 51" version="1.1" xmlns="http://www.w3.org/2000/svg" xmlns:xlink="http://www.w3.org/1999/xlink" xmlns:sketch="http://www.bohemiancoding.com/sketch/ns">
    <!-- Generator: Sketch 3.3.2 (12043) - http://www.bohemiancoding.com/sketch -->
    <title>115 - 3D Coordinates (Flat)</title>
    <desc>Created with Sketch.</desc>
    <defs></defs>
    <g id="Page-1" stroke="none" stroke-width="1" fill="none" fill-rule="evenodd" sketch:type="MSPage">
        <g id="Icons" sketch:type="MSArtboardGroup" transform="translate(-720.000000, -482.000000)">
            <g id="115---3D-Coordinates-(Flat)" sketch:type="MSLayerGroup" transform="translate(719.000000, 481.000000)">
                <path d="M31,33 C30.447,33 30,32.552 30,32 L30,13 C30,12.448 30.447,12 31,12 C31.553,12 32,12.448 32,13 L32,32 C32,32.552 31.553,33 31,33" id="Fill-242" fill="#556080" sketch:type="MSShapeGroup"></path>
                <path d="M49.999,46 C49.805,46 49.608,45.943 49.436,45.825 L31.016,33.222 L13.586,45.811 C13.136,46.133 12.512,46.033 12.19,45.585 C11.866,45.138 11.967,44.513 12.414,44.189 L30.984,30.778 L50.565,44.175 C51.021,44.486 51.137,45.109 50.825,45.565 C50.632,45.848 50.318,46 49.999,46" id="Fill-243" fill="#556080" sketch:type="MSShapeGroup"></path>
                <path d="M31,6 C30.744,6 30.488,5.902 30.293,5.707 L27.293,2.707 C26.902,2.316 26.902,1.684 27.293,1.293 C27.684,0.902 28.316,0.902 28.707,1.293 L31.707,4.293 C32.098,4.684 32.098,5.316 31.707,5.707 C31.512,5.902 31.256,6 31,6" id="Fill-244" fill="#DD691D" sketch:type="MSShapeGroup"></path>
                <path d="M31,6 C30.744,6 30.488,5.902 30.293,5.707 C29.902,5.316 29.902,4.684 30.293,4.293 L33.293,1.293 C33.684,0.902 34.316,0.902 34.707,1.293 C35.098,1.684 35.098,2.316 34.707,2.707 L31.707,5.707 C31.512,5.902 31.256,6 31,6" id="Fill-245" fill="#DD691D" sketch:type="MSShapeGroup"></path>
                <path d="M31,9 C30.447,9 30,8.552 30,8 L30,5 C30,4.448 30.447,4 31,4 C31.553,4 32,4.448 32,5 L32,8 C32,8.552 31.553,9 31,9" id="Fill-246" fill="#DD691D" sketch:type="MSShapeGroup"></path>
                <path d="M60,52 C59.744,52 59.488,51.902 59.293,51.707 L53.293,45.707 C52.902,45.316 52.902,44.684 53.293,44.293 C53.684,43.902 54.316,43.902 54.707,44.293 L60.707,50.293 C61.098,50.684 61.098,51.316 60.707,51.707 C60.512,51.902 60.256,52 60,52" id="Fill-247" fill="#25B99A" sketch:type="MSShapeGroup"></path>
                <path d="M54,52 C53.744,52 53.488,51.902 53.293,51.707 C52.902,51.316 52.902,50.684 53.293,50.293 L59.293,44.293 C59.684,43.902 60.316,43.902 60.707,44.293 C61.098,44.684 61.098,45.316 60.707,45.707 L54.707,51.707 C54.512,51.902 54.256,52 54,52" id="Fill-248" fill="#25B99A" sketch:type="MSShapeGroup"></path>
                <path d="M8,46 L2,46 C1.447,46 1,45.552 1,45 C1,44.448 1.447,44 2,44 L8,44 C8.553,44 9,44.448 9,45 C9,45.552 8.553,46 8,46" id="Fill-249" fill="#0F81E0" sketch:type="MSShapeGroup"></path>
                <path d="M2,52 C1.744,52 1.488,51.902 1.293,51.707 C0.902,51.316 0.902,50.684 1.293,50.293 L7.293,44.293 C7.684,43.902 8.316,43.902 8.707,44.293 C9.098,44.684 9.098,45.316 8.707,45.707 L2.707,51.707 C2.512,51.902 2.256,52 2,52" id="Fill-250" fill="#0F81E0" sketch:type="MSShapeGroup"></path>
                <path d="M8,52 L2,52 C1.447,52 1,51.552 1,51 C1,50.448 1.447,50 2,50 L8,50 C8.553,50 9,50.448 9,51 C9,51.552 8.553,52 8,52" id="Fill-251" fill="#0F81E0" sketch:type="MSShapeGroup"></path>
            </g>
        </g>
    </g>
</svg>