<?xml version="1.0" encoding="UTF-8" standalone="no"?>
<svg width="58px" height="58px" viewBox="0 0 58 58" version="1.1" xmlns="http://www.w3.org/2000/svg" xmlns:xlink="http://www.w3.org/1999/xlink" xmlns:sketch="http://www.bohemiancoding.com/sketch/ns">
    <!-- Generator: Sketch 3.3.2 (12043) - http://www.bohemiancoding.com/sketch -->
    <title>30 - 4-up (Flat)</title>
    <desc>Created with Sketch.</desc>
    <defs></defs>
    <g id="Page-1" stroke="none" stroke-width="1" fill="none" fill-rule="evenodd" sketch:type="MSPage">
        <g id="Icons" sketch:type="MSArtboardGroup" transform="translate(-121.000000, -1558.000000)">
            <g id="30---4-up-(Flat)" sketch:type="MSLayerGroup" transform="translate(121.000000, 1558.000000)">
                <path d="M0,0 L58,0 L58,58 L0,58 L0,0 Z" id="Fill-123" fill="#556080" sketch:type="MSShapeGroup"></path>
                <path d="M5,5 L53,5 L53,53 L5,53 L5,5 Z" id="Fill-666" fill="#556080" sketch:type="MSShapeGroup"></path>
                <path d="M4,4 L54,4 L54,54 L4,54 L4,4 Z M6,52 L52,52 L52,6 L6,6 L6,52 Z" id="Fill-667" fill="#25B99A" sketch:type="MSShapeGroup"></path>
                <path d="M29,5 L29,53" id="Fill-669" fill="#556080" sketch:type="MSShapeGroup"></path>
                <path d="M29,54 C28.448,54 28,53.553 28,53 L28,5 C28,4.447 28.448,4 29,4 C29.552,4 30,4.447 30,5 L30,53 C30,53.553 29.552,54 29,54" id="Fill-670" fill="#25B99A" sketch:type="MSShapeGroup"></path>
                <path d="M5,29 L53,29" id="Fill-673" fill="#556080" sketch:type="MSShapeGroup"></path>
                <path d="M53,30 L5,30 C4.448,30 4,29.553 4,29 C4,28.447 4.448,28 5,28 L53,28 C53.552,28 54,28.447 54,29 C54,29.553 53.552,30 53,30" id="Fill-674" fill="#25B99A" sketch:type="MSShapeGroup"></path>
            </g>
        </g>
    </g>
</svg>