<?xml version="1.0" encoding="UTF-8" standalone="no"?>
<svg width="58px" height="58px" viewBox="0 0 58 58" version="1.1" xmlns="http://www.w3.org/2000/svg" xmlns:xlink="http://www.w3.org/1999/xlink" xmlns:sketch="http://www.bohemiancoding.com/sketch/ns">
    <!-- Generator: Sketch 3.3.2 (12043) - http://www.bohemiancoding.com/sketch -->
    <title>22 - 6-up (Flat)</title>
    <desc>Created with Sketch.</desc>
    <defs></defs>
    <g id="Page-1" stroke="none" stroke-width="1" fill="none" fill-rule="evenodd" sketch:type="MSPage">
        <g id="Icons" sketch:type="MSArtboardGroup" transform="translate(-1081.000000, -1558.000000)">
            <g id="22---6-up-(Flat)" sketch:type="MSLayerGroup" transform="translate(1081.000000, 1558.000000)">
                <path d="M0,0 L58,0 L58,58 L0,58 L0,0 Z" id="Fill-131" fill="#556080" sketch:type="MSShapeGroup"></path>
                <path d="M37,5 L53,5 L53,53 L37,53 L37,5 Z" id="Fill-753" fill="#556080" sketch:type="MSShapeGroup"></path>
                <path d="M36,4 L54,4 L54,54 L36,54 L36,4 Z M38,52 L52,52 L52,6 L38,6 L38,52 Z" id="Fill-754" fill="#25B99A" sketch:type="MSShapeGroup"></path>
                <path d="M21,5 L37,5 L37,53 L21,53 L21,5 Z" id="Fill-755" fill="#556080" sketch:type="MSShapeGroup"></path>
                <path d="M20,4 L38,4 L38,54 L20,54 L20,4 Z M22,52 L36,52 L36,6 L22,6 L22,52 Z" id="Fill-756" fill="#25B99A" sketch:type="MSShapeGroup"></path>
                <path d="M5,5 L21,5 L21,53 L5,53 L5,5 Z" id="Fill-757" fill="#556080" sketch:type="MSShapeGroup"></path>
                <path d="M4,4 L22,4 L22,54 L4,54 L4,4 Z M6,52 L20,52 L20,6 L6,6 L6,52 Z" id="Fill-758" fill="#25B99A" sketch:type="MSShapeGroup"></path>
                <path d="M37,37 L53,37 L53,53 L37,53 L37,37 Z" id="Fill-759" fill="#556080" sketch:type="MSShapeGroup"></path>
                <path d="M36,36 L54,36 L54,54 L36,54 L36,36 Z M38,52 L52,52 L52,38 L38,38 L38,52 Z" id="Fill-760" fill="#25B99A" sketch:type="MSShapeGroup"></path>
                <path d="M37,21 L53,21 L53,37 L37,37 L37,21 Z" id="Fill-761" fill="#556080" sketch:type="MSShapeGroup"></path>
                <path d="M36,20 L54,20 L54,38 L36,38 L36,20 Z M38,36 L52,36 L52,22 L38,22 L38,36 Z" id="Fill-762" fill="#25B99A" sketch:type="MSShapeGroup"></path>
                <path d="M37,5 L53,5 L53,21 L37,21 L37,5 Z" id="Fill-763" fill="#556080" sketch:type="MSShapeGroup"></path>
                <path d="M36,4 L54,4 L54,22 L36,22 L36,4 Z M38,20 L52,20 L52,6 L38,6 L38,20 Z" id="Fill-764" fill="#25B99A" sketch:type="MSShapeGroup"></path>
                <path d="M21,29 L37,29" id="Fill-767" fill="#556080" sketch:type="MSShapeGroup"></path>
                <path d="M37,30 L21,30 C20.447,30 20,29.553 20,29 C20,28.447 20.447,28 21,28 L37,28 C37.553,28 38,28.447 38,29 C38,29.553 37.553,30 37,30" id="Fill-768" fill="#25B99A" sketch:type="MSShapeGroup"></path>
            </g>
        </g>
    </g>
</svg>