<?xml version="1.0" encoding="UTF-8" standalone="no"?>
<svg width="42px" height="60px" viewBox="0 0 42 60" version="1.1" xmlns="http://www.w3.org/2000/svg" xmlns:xlink="http://www.w3.org/1999/xlink" xmlns:sketch="http://www.bohemiancoding.com/sketch/ns">
    <!-- Generator: Sketch 3.3.2 (12043) - http://www.bohemiancoding.com/sketch -->
    <title>110 - Align Top Vertically (Flat)</title>
    <desc>Created with Sketch.</desc>
    <defs></defs>
    <g id="Page-1" stroke="none" stroke-width="1" fill="none" fill-rule="evenodd" sketch:type="MSPage">
        <g id="Icons" sketch:type="MSArtboardGroup" transform="translate(-129.000000, -597.000000)">
            <g id="110---Align-Top-Vertically-(Flat)" sketch:type="MSLayerGroup" transform="translate(129.000000, 597.000000)">
                <path d="M41,60 C40.74,60 40.48,59.89 40.29,59.71 C40.11,59.52 40,59.26 40,59 C40,58.74 40.11,58.48 40.29,58.29 C40.67,57.92 41.33,57.92 41.71,58.29 C41.89,58.48 42,58.74 42,59 C42,59.26 41.89,59.52 41.71,59.71 C41.52,59.89 41.26,60 41,60" id="Fill-252" fill="#556080" sketch:type="MSShapeGroup"></path>
                <path d="M36,59 C36,58.45 36.45,58 37,58 C37.55,58 38,58.45 38,59 C38,59.55 37.55,60 37,60 C36.45,60 36,59.55 36,59 L36,59 Z M32,59 C32,58.45 32.45,58 33,58 C33.55,58 34,58.45 34,59 C34,59.55 33.55,60 33,60 C32.45,60 32,59.55 32,59 L32,59 Z M28,59 C28,58.45 28.45,58 29,58 C29.55,58 30,58.45 30,59 C30,59.55 29.55,60 29,60 C28.45,60 28,59.55 28,59 L28,59 Z M24,59 C24,58.45 24.45,58 25,58 C25.55,58 26,58.45 26,59 C26,59.55 25.55,60 25,60 C24.45,60 24,59.55 24,59 L24,59 Z M20,59 C20,58.45 20.45,58 21,58 C21.55,58 22,58.45 22,59 C22,59.55 21.55,60 21,60 C20.45,60 20,59.55 20,59 L20,59 Z M16,59 C16,58.45 16.45,58 17,58 C17.55,58 18,58.45 18,59 C18,59.55 17.55,60 17,60 C16.45,60 16,59.55 16,59 L16,59 Z M12,59 C12,58.45 12.45,58 13,58 C13.55,58 14,58.45 14,59 C14,59.55 13.55,60 13,60 C12.45,60 12,59.55 12,59 L12,59 Z M8,59 C8,58.45 8.45,58 9,58 C9.55,58 10,58.45 10,59 C10,59.55 9.55,60 9,60 C8.45,60 8,59.55 8,59 L8,59 Z M4,59 C4,58.45 4.45,58 5,58 C5.55,58 6,58.45 6,59 C6,59.55 5.55,60 5,60 C4.45,60 4,59.55 4,59 L4,59 Z" id="Fill-253" fill="#556080" sketch:type="MSShapeGroup"></path>
                <path d="M1,60 C0.74,60 0.48,59.89 0.29,59.71 C0.11,59.52 0,59.26 0,59 C0,58.74 0.11,58.48 0.29,58.29 C0.67,57.92 1.33,57.92 1.71,58.29 C1.89,58.48 2,58.74 2,59 C2,59.26 1.89,59.52 1.71,59.71 C1.52,59.89 1.26,60 1,60" id="Fill-254" fill="#556080" sketch:type="MSShapeGroup"></path>
                <path d="M0,55.13 C0,54.58 0.45,54.13 1,54.13 C1.55,54.13 2,54.58 2,55.13 C2,55.69 1.55,56.13 1,56.13 C0.45,56.13 0,55.69 0,55.13 L0,55.13 Z M0,51.27 C0,50.71 0.45,50.27 1,50.27 C1.55,50.27 2,50.71 2,51.27 C2,51.82 1.55,52.27 1,52.27 C0.45,52.27 0,51.82 0,51.27 L0,51.27 Z M0,47.4 C0,46.85 0.45,46.4 1,46.4 C1.55,46.4 2,46.85 2,47.4 C2,47.95 1.55,48.4 1,48.4 C0.45,48.4 0,47.95 0,47.4 L0,47.4 Z M0,43.53 C0,42.98 0.45,42.53 1,42.53 C1.55,42.53 2,42.98 2,43.53 C2,44.09 1.55,44.53 1,44.53 C0.45,44.53 0,44.09 0,43.53 L0,43.53 Z M0,39.67 C0,39.11 0.45,38.67 1,38.67 C1.55,38.67 2,39.11 2,39.67 C2,40.22 1.55,40.67 1,40.67 C0.45,40.67 0,40.22 0,39.67 L0,39.67 Z M0,35.8 C0,35.25 0.45,34.8 1,34.8 C1.55,34.8 2,35.25 2,35.8 C2,36.35 1.55,36.8 1,36.8 C0.45,36.8 0,36.35 0,35.8 L0,35.8 Z M0,31.93 C0,31.38 0.45,30.93 1,30.93 C1.55,30.93 2,31.38 2,31.93 C2,32.48 1.55,32.93 1,32.93 C0.45,32.93 0,32.48 0,31.93 L0,31.93 Z M0,28.07 C0,27.51 0.45,27.07 1,27.07 C1.55,27.07 2,27.51 2,28.07 C2,28.62 1.55,29.07 1,29.07 C0.45,29.07 0,28.62 0,28.07 L0,28.07 Z M0,24.2 C0,23.65 0.45,23.2 1,23.2 C1.55,23.2 2,23.65 2,24.2 C2,24.75 1.55,25.2 1,25.2 C0.45,25.2 0,24.75 0,24.2 L0,24.2 Z M0,20.33 C0,19.78 0.45,19.33 1,19.33 C1.55,19.33 2,19.78 2,20.33 C2,20.89 1.55,21.33 1,21.33 C0.45,21.33 0,20.89 0,20.33 L0,20.33 Z M0,16.47 C0,15.91 0.45,15.47 1,15.47 C1.55,15.47 2,15.91 2,16.47 C2,17.02 1.55,17.47 1,17.47 C0.45,17.47 0,17.02 0,16.47 L0,16.47 Z M0,12.6 C0,12.05 0.45,11.6 1,11.6 C1.55,11.6 2,12.05 2,12.6 C2,13.15 1.55,13.6 1,13.6 C0.45,13.6 0,13.15 0,12.6 L0,12.6 Z M0,8.73 C0,8.18 0.45,7.73 1,7.73 C1.55,7.73 2,8.18 2,8.73 C2,9.29 1.55,9.73 1,9.73 C0.45,9.73 0,9.29 0,8.73 L0,8.73 Z M0,4.87 C0,4.31 0.45,3.87 1,3.87 C1.55,3.87 2,4.31 2,4.87 C2,5.42 1.55,5.87 1,5.87 C0.45,5.87 0,5.42 0,4.87 L0,4.87 Z" id="Fill-255" fill="#556080" sketch:type="MSShapeGroup"></path>
                <path d="M1,2 C0.74,2 0.48,1.89 0.29,1.71 C0.11,1.52 0,1.26 0,1 C0,0.74 0.11,0.48 0.29,0.29 C0.67,-0.08 1.33,-0.08 1.71,0.29 C1.89,0.48 2,0.74 2,1 C2,1.26 1.89,1.52 1.71,1.71 C1.52,1.89 1.26,2 1,2" id="Fill-256" fill="#556080" sketch:type="MSShapeGroup"></path>
                <path d="M36,1 C36,0.45 36.45,0 37,0 C37.55,0 38,0.45 38,1 C38,1.55 37.55,2 37,2 C36.45,2 36,1.55 36,1 L36,1 Z M32,1 C32,0.45 32.45,0 33,0 C33.55,0 34,0.45 34,1 C34,1.55 33.55,2 33,2 C32.45,2 32,1.55 32,1 L32,1 Z M28,1 C28,0.45 28.45,0 29,0 C29.55,0 30,0.45 30,1 C30,1.55 29.55,2 29,2 C28.45,2 28,1.55 28,1 L28,1 Z M24,1 C24,0.45 24.45,0 25,0 C25.55,0 26,0.45 26,1 C26,1.55 25.55,2 25,2 C24.45,2 24,1.55 24,1 L24,1 Z M20,1 C20,0.45 20.45,0 21,0 C21.55,0 22,0.45 22,1 C22,1.55 21.55,2 21,2 C20.45,2 20,1.55 20,1 L20,1 Z M16,1 C16,0.45 16.45,0 17,0 C17.55,0 18,0.45 18,1 C18,1.55 17.55,2 17,2 C16.45,2 16,1.55 16,1 L16,1 Z M12,1 C12,0.45 12.45,0 13,0 C13.55,0 14,0.45 14,1 C14,1.55 13.55,2 13,2 C12.45,2 12,1.55 12,1 L12,1 Z M8,1 C8,0.45 8.45,0 9,0 C9.55,0 10,0.45 10,1 C10,1.55 9.55,2 9,2 C8.45,2 8,1.55 8,1 L8,1 Z M4,1 C4,0.45 4.45,0 5,0 C5.55,0 6,0.45 6,1 C6,1.55 5.55,2 5,2 C4.45,2 4,1.55 4,1 L4,1 Z" id="Fill-257" fill="#556080" sketch:type="MSShapeGroup"></path>
                <path d="M41,2 C40.74,2 40.48,1.89 40.29,1.71 C40.11,1.52 40,1.26 40,1 C40,0.74 40.11,0.48 40.29,0.29 C40.67,-0.08 41.33,-0.08 41.71,0.29 C41.89,0.48 42,0.74 42,1 C42,1.26 41.89,1.52 41.71,1.71 C41.52,1.89 41.26,2 41,2" id="Fill-258" fill="#556080" sketch:type="MSShapeGroup"></path>
                <path d="M40,55.13 C40,54.58 40.45,54.13 41,54.13 C41.55,54.13 42,54.58 42,55.13 C42,55.69 41.55,56.13 41,56.13 C40.45,56.13 40,55.69 40,55.13 L40,55.13 Z M40,51.27 C40,50.71 40.45,50.27 41,50.27 C41.55,50.27 42,50.71 42,51.27 C42,51.82 41.55,52.27 41,52.27 C40.45,52.27 40,51.82 40,51.27 L40,51.27 Z M40,47.4 C40,46.85 40.45,46.4 41,46.4 C41.55,46.4 42,46.85 42,47.4 C42,47.95 41.55,48.4 41,48.4 C40.45,48.4 40,47.95 40,47.4 L40,47.4 Z M40,43.53 C40,42.98 40.45,42.53 41,42.53 C41.55,42.53 42,42.98 42,43.53 C42,44.09 41.55,44.53 41,44.53 C40.45,44.53 40,44.09 40,43.53 L40,43.53 Z M40,39.67 C40,39.11 40.45,38.67 41,38.67 C41.55,38.67 42,39.11 42,39.67 C42,40.22 41.55,40.67 41,40.67 C40.45,40.67 40,40.22 40,39.67 L40,39.67 Z M40,35.8 C40,35.25 40.45,34.8 41,34.8 C41.55,34.8 42,35.25 42,35.8 C42,36.35 41.55,36.8 41,36.8 C40.45,36.8 40,36.35 40,35.8 L40,35.8 Z M40,31.93 C40,31.38 40.45,30.93 41,30.93 C41.55,30.93 42,31.38 42,31.93 C42,32.48 41.55,32.93 41,32.93 C40.45,32.93 40,32.48 40,31.93 L40,31.93 Z M40,28.07 C40,27.51 40.45,27.07 41,27.07 C41.55,27.07 42,27.51 42,28.07 C42,28.62 41.55,29.07 41,29.07 C40.45,29.07 40,28.62 40,28.07 L40,28.07 Z M40,24.2 C40,23.65 40.45,23.2 41,23.2 C41.55,23.2 42,23.65 42,24.2 C42,24.75 41.55,25.2 41,25.2 C40.45,25.2 40,24.75 40,24.2 L40,24.2 Z M40,20.33 C40,19.78 40.45,19.33 41,19.33 C41.55,19.33 42,19.78 42,20.33 C42,20.89 41.55,21.33 41,21.33 C40.45,21.33 40,20.89 40,20.33 L40,20.33 Z M40,16.47 C40,15.91 40.45,15.47 41,15.47 C41.55,15.47 42,15.91 42,16.47 C42,17.02 41.55,17.47 41,17.47 C40.45,17.47 40,17.02 40,16.47 L40,16.47 Z M40,12.6 C40,12.05 40.45,11.6 41,11.6 C41.55,11.6 42,12.05 42,12.6 C42,13.15 41.55,13.6 41,13.6 C40.45,13.6 40,13.15 40,12.6 L40,12.6 Z M40,8.73 C40,8.18 40.45,7.73 41,7.73 C41.55,7.73 42,8.18 42,8.73 C42,9.29 41.55,9.73 41,9.73 C40.45,9.73 40,9.29 40,8.73 L40,8.73 Z M40,4.87 C40,4.31 40.45,3.87 41,3.87 C41.55,3.87 42,4.31 42,4.87 C42,5.42 41.55,5.87 41,5.87 C40.45,5.87 40,5.42 40,4.87 L40,4.87 Z" id="Fill-259" fill="#556080" sketch:type="MSShapeGroup"></path>
                <path d="M1,1 L41,1 L41,20 L1,20 L1,1 Z" id="Fill-260" fill="#25B99A" sketch:type="MSShapeGroup"></path>
                <path d="M0,0 L42,0 L42,21 L0,21 L0,0 Z M2,19 L40,19 L40,2 L2,2 L2,19 Z" id="Fill-261" fill="#25B99A" sketch:type="MSShapeGroup"></path>
            </g>
        </g>
    </g>
</svg>