<?xml version="1.0" encoding="UTF-8" standalone="no"?>
<svg width="60px" height="60px" viewBox="0 0 60 60" version="1.1" xmlns="http://www.w3.org/2000/svg" xmlns:xlink="http://www.w3.org/1999/xlink" xmlns:sketch="http://www.bohemiancoding.com/sketch/ns">
    <!-- Generator: Sketch 3.3.2 (12043) - http://www.bohemiancoding.com/sketch -->
    <title>48 - Artboard (Flat)</title>
    <desc>Created with Sketch.</desc>
    <defs></defs>
    <g id="Page-1" stroke="none" stroke-width="1" fill="none" fill-rule="evenodd" sketch:type="MSPage">
        <g id="Icons" sketch:type="MSArtboardGroup" transform="translate(-360.000000, -1317.000000)">
            <g id="48---Artboard-(Flat)" sketch:type="MSLayerGroup" transform="translate(360.000000, 1317.000000)">
                <path d="M8,8 L52,8 L52,52 L8,52 L8,8 Z" id="Fill-553" fill="#E8EDEE" sketch:type="MSShapeGroup"></path>
                <path d="M7,7 L53,7 L53,53 L7,53 L7,7 Z M9,51 L51,51 L51,9 L9,9 L9,51 Z" id="Fill-554" fill="#25B99A" sketch:type="MSShapeGroup"></path>
                <path d="M8,5 C7.448,5 7,4.553 7,4 L7,1 C7,0.447 7.448,0 8,0 C8.552,0 9,0.447 9,1 L9,4 C9,4.553 8.552,5 8,5" id="Fill-555" fill="#556080" sketch:type="MSShapeGroup"></path>
                <path d="M8,60 C7.448,60 7,59.553 7,59 L7,56 C7,55.447 7.448,55 8,55 C8.552,55 9,55.447 9,56 L9,59 C9,59.553 8.552,60 8,60" id="Fill-556" fill="#556080" sketch:type="MSShapeGroup"></path>
                <path d="M52,5 C51.448,5 51,4.553 51,4 L51,1 C51,0.447 51.448,0 52,0 C52.552,0 53,0.447 53,1 L53,4 C53,4.553 52.552,5 52,5" id="Fill-557" fill="#556080" sketch:type="MSShapeGroup"></path>
                <path d="M52,60 C51.448,60 51,59.553 51,59 L51,56 C51,55.447 51.448,55 52,55 C52.552,55 53,55.447 53,56 L53,59 C53,59.553 52.552,60 52,60" id="Fill-558" fill="#556080" sketch:type="MSShapeGroup"></path>
                <path d="M59,9 L56,9 C55.448,9 55,8.553 55,8 C55,7.447 55.448,7 56,7 L59,7 C59.552,7 60,7.447 60,8 C60,8.553 59.552,9 59,9" id="Fill-559" fill="#556080" sketch:type="MSShapeGroup"></path>
                <path d="M4,9 L1,9 C0.448,9 0,8.553 0,8 C0,7.447 0.448,7 1,7 L4,7 C4.552,7 5,7.447 5,8 C5,8.553 4.552,9 4,9" id="Fill-560" fill="#556080" sketch:type="MSShapeGroup"></path>
                <path d="M59,53 L56,53 C55.448,53 55,52.553 55,52 C55,51.447 55.448,51 56,51 L59,51 C59.552,51 60,51.447 60,52 C60,52.553 59.552,53 59,53" id="Fill-561" fill="#556080" sketch:type="MSShapeGroup"></path>
                <path d="M4,53 L1,53 C0.448,53 0,52.553 0,52 C0,51.447 0.448,51 1,51 L4,51 C4.552,51 5,51.447 5,52 C5,52.553 4.552,53 4,53" id="Fill-562" fill="#556080" sketch:type="MSShapeGroup"></path>
            </g>
        </g>
    </g>
</svg>