<?xml version="1.0" encoding="UTF-8" standalone="no"?>
<svg width="58px" height="52px" viewBox="0 0 58 52" version="1.1" xmlns="http://www.w3.org/2000/svg" xmlns:xlink="http://www.w3.org/1999/xlink" xmlns:sketch="http://www.bohemiancoding.com/sketch/ns">
    <!-- Generator: Sketch 3.3.2 (12043) - http://www.bohemiancoding.com/sketch -->
    <title>9 - Brush (Flat)</title>
    <desc>Created with Sketch.</desc>
    <defs></defs>
    <g id="Page-1" stroke="none" stroke-width="1" fill="none" fill-rule="evenodd" sketch:type="MSPage">
        <g id="Icons" sketch:type="MSArtboardGroup" transform="translate(-241.000000, -1801.000000)">
            <g id="9---Brush-(Flat)" sketch:type="MSLayerGroup" transform="translate(240.000000, 1800.000000)">
                <path d="M23.791,29.992 L19.756,34.442 L21.096,35.783 L25.339,31.54 L23.791,29.992" id="Fill-940" fill="#F3EDBF" sketch:type="MSShapeGroup"></path>
                <path d="M23.217,37.904 L25.554,40.24 L30.003,36.204 L27.46,33.661 L23.217,37.904" id="Fill-941" fill="#F3EDBF" sketch:type="MSShapeGroup"></path>
                <path d="M18.06,43.061 C17.768,43.354 17.384,43.5 17,43.5 C16.616,43.5 16.232,43.354 15.94,43.061 C15.354,42.475 15.354,41.525 15.94,40.939 L21.096,35.783 L19.927,34.613 C19.851,34.577 19.779,34.536 19.715,34.488 L12.323,42.643 C14.619,43.145 16.335,45.035 16.457,47.457 L17,48 L25.554,40.24 L23.217,37.904 L18.06,43.061" id="Fill-942" fill="#A31C09" sketch:type="MSShapeGroup"></path>
                <path d="M57.228,2.757 C54.885,0.414 51.086,0.414 48.743,2.757 L45.914,5.586 L23.791,29.992 L25.339,31.54 L52.44,4.44 C53.025,3.854 53.975,3.854 54.561,4.44 C55.147,5.025 55.147,5.975 54.561,6.561 L27.46,33.661 L30.003,36.204 L54.4,14.071 L57.228,11.243 C59.571,8.899 59.571,5.1 57.228,2.757" id="Fill-943" fill="#A31C09" sketch:type="MSShapeGroup"></path>
                <path d="M23.217,37.904 L21.096,35.783 L23.217,37.904" id="Fill-944" fill="#0F81E0" sketch:type="MSShapeGroup"></path>
                <path d="M27.46,33.661 L25.339,31.54 L21.096,35.783 L23.217,37.904 L27.46,33.661" id="Fill-945" fill="#FFFFFF" sketch:type="MSShapeGroup"></path>
                <path d="M17,43.5 C17.384,43.5 17.768,43.354 18.06,43.061 L23.217,37.904 L21.096,35.783 L15.94,40.939 C15.354,41.525 15.354,42.475 15.94,43.061 C16.232,43.354 16.616,43.5 17,43.5 Z" id="Fill-946" fill="#CE3929" sketch:type="MSShapeGroup"></path>
                <path d="M54.561,6.561 C55.147,5.975 55.147,5.025 54.561,4.44 C53.975,3.854 53.025,3.854 52.44,4.44 L25.339,31.54 L27.46,33.661 L54.561,6.561" id="Fill-947" fill="#CE3929" sketch:type="MSShapeGroup"></path>
                <path d="M13.42,53 L0.984,53 C0.984,53 7,50.625 7,44.917 C7,41.132 9.716,41 12.186,41 L12.601,41 C15.574,41 17.984,43.25 17.984,46.222 C17.984,48.879 18.522,53 13.42,53" id="Fill-963" fill="#6C4126" sketch:type="MSShapeGroup"></path>
            </g>
        </g>
    </g>
</svg>