<?xml version="1.0" encoding="UTF-8" standalone="no"?>
<svg width="52px" height="58px" viewBox="0 0 52 58" version="1.1" xmlns="http://www.w3.org/2000/svg" xmlns:xlink="http://www.w3.org/1999/xlink" xmlns:sketch="http://www.bohemiancoding.com/sketch/ns">
    <!-- Generator: Sketch 3.3.2 (12043) - http://www.bohemiancoding.com/sketch -->
    <title>5 - Color Bucket (Flat)</title>
    <desc>Created with Sketch.</desc>
    <defs></defs>
    <g id="Page-1" stroke="none" stroke-width="1" fill="none" fill-rule="evenodd" sketch:type="MSPage">
        <g id="Icons" sketch:type="MSArtboardGroup" transform="translate(-724.000000, -1798.000000)">
            <g id="5---Color-Bucket-(Flat)" sketch:type="MSLayerGroup" transform="translate(724.000000, 1798.000000)">
                <path d="M26,12 L26,17.869 C26,19.32 25.028,20.658 23.604,20.94 C21.693,21.319 20,19.848 20,18 L20,27 C20,28.848 18.307,30.319 16.396,29.94 C14.972,29.658 14,28.32 14,26.869 L14,23.5 C14,24.312 13.605,25.034 13,25.492 L13,57.126 C16.788,57.68 21.238,58 26,58 C31.696,58 36.944,57.542 41.148,56.772 L41.148,10.772 C36.944,11.542 31.696,12 26,12" id="Fill-1" fill="#E0E2E3" sketch:type="MSShapeGroup"></path>
                <path d="M10.821,25.909 C9.722,25.614 9,24.551 9,23.412 L9,10.964 C9,10.775 9.022,10.591 9.056,10.41 C8.752,10.343 8.456,10.274 8.167,10.203 C8.141,10.197 8.116,10.191 8.091,10.184 C7.829,10.12 7.573,10.054 7.323,9.987 C7.281,9.976 7.241,9.964 7.199,9.952 C6.969,9.889 6.743,9.826 6.523,9.76 C6.473,9.745 6.424,9.729 6.373,9.714 C6.169,9.652 5.97,9.589 5.776,9.526 C5.716,9.506 5.659,9.486 5.6,9.466 C5.421,9.406 5.245,9.344 5.075,9.282 C5.012,9.259 4.95,9.235 4.887,9.211 C4.729,9.152 4.575,9.091 4.425,9.03 C4.36,9.004 4.297,8.977 4.234,8.951 C4.093,8.891 3.957,8.831 3.825,8.77 C3.761,8.74 3.699,8.711 3.638,8.682 C3.514,8.623 3.394,8.563 3.278,8.502 C3.218,8.47 3.157,8.439 3.099,8.407 C2.991,8.348 2.888,8.288 2.788,8.228 C2.73,8.193 2.673,8.159 2.618,8.125 C2.525,8.066 2.438,8.006 2.352,7.946 C2.3,7.91 2.247,7.873 2.198,7.836 C2.118,7.777 2.045,7.717 1.973,7.657 C1.928,7.619 1.881,7.581 1.839,7.543 C1.772,7.483 1.713,7.422 1.654,7.362 C1.616,7.322 1.576,7.283 1.541,7.244 C1.488,7.183 1.442,7.121 1.397,7.06 C1.367,7.02 1.334,6.98 1.307,6.939 C1.266,6.876 1.233,6.812 1.2,6.748 C1.18,6.709 1.155,6.67 1.138,6.63 C1.107,6.56 1.088,6.489 1.067,6.418 C1.057,6.385 1.043,6.351 1.035,6.317 C1.012,6.212 1,6.106 1,6 L1,52 C1,54.171 5.804,56.072 13,57.126 L13,25.492 C12.416,25.933 11.638,26.128 10.821,25.909" id="Fill-2" fill="#C2C3C5" sketch:type="MSShapeGroup"></path>
                <path d="M51,52 L51,6 C51,7.947 47.134,9.676 41.148,10.772 L41.148,56.772 C47.134,55.676 51,53.947 51,52" id="Fill-3" fill="#C2C3C5" sketch:type="MSShapeGroup"></path>
                <path d="M14.964,40.5 L14.964,40.5 C13.584,39.119 13.584,36.881 14.964,35.5 L17.465,33 L19.964,35.5 C21.345,36.881 21.345,39.119 19.964,40.5 C18.584,41.881 16.345,41.881 14.964,40.5" id="Fill-827" fill="#25B99A" sketch:type="MSShapeGroup"></path>
                <path d="M22,57.921 C23.304,57.971 24.637,58 26,58 C28.07,58 30.077,57.938 32,57.824 L32,11.824 C30.077,11.938 28.07,12 26,12 L26,17.869 C26,19.32 25.028,20.658 23.604,20.94 C23.035,21.053 22.492,20.986 22,20.809 L22,57.921" id="Fill-968" fill="#E8EDEE" sketch:type="MSShapeGroup"></path>
                <path d="M26.908,49 L25.092,49 C11.256,49 0,36.015 0,20.053 L0,14 C0,13.447 0.447,13 1,13 C1.553,13 2,13.447 2,14 L2,20.053 C2,34.911 12.359,47 25.092,47 L26.908,47 C39.641,47 50,34.911 50,20.053 L50,14 C50,13.447 50.447,13 51,13 C51.553,13 52,13.447 52,14 L52,20.053 C52,36.015 40.744,49 26.908,49" id="Fill-969" fill="#556080" sketch:type="MSShapeGroup"></path>
                <path d="M26,0 C12.193,0 1,2.686 1,6 C1,7.744 4.104,9.314 9.056,10.41 C9.022,10.591 9,10.775 9,10.964 L9,23.412 C9,24.551 9.722,25.614 10.821,25.909 C12.484,26.355 14,25.096 14,23.5 L14,26.869 C14,28.32 14.972,29.658 16.396,29.94 C18.307,30.319 20,28.848 20,27 L20,18 C20,19.848 21.693,21.319 23.604,20.94 C25.028,20.658 26,19.32 26,17.869 L26,12 C39.807,12 51,9.314 51,6 C51,2.686 39.807,0 26,0" id="Fill-970" fill="#25B99A" sketch:type="MSShapeGroup"></path>
                <path d="M9,10.964 C9,10.775 9.022,10.591 9.056,10.41 C4.104,9.314 1,7.744 1,6 L1,11 C1,12.738 4.081,14.302 9,15.398 L9,10.964" id="Fill-971" fill="#7383BF" sketch:type="MSShapeGroup"></path>
                <path d="M26,12 L26,17 C39.807,17 51,14.314 51,11 L51,6 C51,9.314 39.807,12 26,12" id="Fill-972" fill="#7383BF" sketch:type="MSShapeGroup"></path>
            </g>
        </g>
    </g>
</svg>