<?xml version="1.0" encoding="UTF-8" standalone="no"?>
<svg width="20px" height="60px" viewBox="0 0 20 60" version="1.1" xmlns="http://www.w3.org/2000/svg" xmlns:xlink="http://www.w3.org/1999/xlink" xmlns:sketch="http://www.bohemiancoding.com/sketch/ns">
    <!-- Generator: Sketch 3.3.2 (12043) - http://www.bohemiancoding.com/sketch -->
    <title>42 - Column Marquee Tool (Flat)</title>
    <desc>Created with Sketch.</desc>
    <defs></defs>
    <g id="Page-1" stroke="none" stroke-width="1" fill="none" fill-rule="evenodd" sketch:type="MSPage">
        <g id="Icons" sketch:type="MSArtboardGroup" transform="translate(-1100.000000, -1317.000000)" fill="#7383BF">
            <g id="42---Column-Marquee-Tool-(Flat)" sketch:type="MSLayerGroup" transform="translate(1100.000000, 1317.000000)">
                <path d="M20,60 L18.5,60 C17.947,60 17.5,59.553 17.5,59 C17.5,58.595 17.741,58.245 18.088,58.088 C18.245,57.741 18.595,57.5 19,57.5 C19.553,57.5 20,57.947 20,58.5 L20,60" id="Fill-576" sketch:type="MSShapeGroup"></path>
                <path d="M14.921,60 L14.026,60 C13.474,60 13.026,59.553 13.026,59 C13.026,58.447 13.474,58 14.026,58 L14.921,58 C15.474,58 15.921,58.447 15.921,59 C15.921,59.553 15.474,60 14.921,60 L14.921,60 Z M10.447,60 L9.553,60 C9,60 8.553,59.553 8.553,59 C8.553,58.447 9,58 9.553,58 L10.447,58 C11,58 11.447,58.447 11.447,59 C11.447,59.553 11,60 10.447,60 L10.447,60 Z M5.974,60 L5.079,60 C4.526,60 4.079,59.553 4.079,59 C4.079,58.447 4.526,58 5.079,58 L5.974,58 C6.526,58 6.974,58.447 6.974,59 C6.974,59.553 6.526,60 5.974,60 L5.974,60 Z" id="Fill-577" sketch:type="MSShapeGroup"></path>
                <path d="M1.5,60 L0,60 L0,58.5 C0,57.947 0.447,57.5 1,57.5 C1.405,57.5 1.755,57.741 1.912,58.088 C2.259,58.245 2.5,58.595 2.5,59 C2.5,59.553 2.053,60 1.5,60" id="Fill-578" sketch:type="MSShapeGroup"></path>
                <path d="M1,55.636 C0.447,55.636 0,55.188 0,54.636 L0,53.67 C0,53.117 0.447,52.67 1,52.67 C1.553,52.67 2,53.117 2,53.67 L2,54.636 C2,55.188 1.553,55.636 1,55.636 L1,55.636 Z M1,50.806 C0.447,50.806 0,50.358 0,49.806 L0,48.839 C0,48.286 0.447,47.839 1,47.839 C1.553,47.839 2,48.286 2,48.839 L2,49.806 C2,50.358 1.553,50.806 1,50.806 L1,50.806 Z M1,45.975 C0.447,45.975 0,45.527 0,44.975 L0,44.009 C0,43.456 0.447,43.009 1,43.009 C1.553,43.009 2,43.456 2,44.009 L2,44.975 C2,45.527 1.553,45.975 1,45.975 L1,45.975 Z M1,41.145 C0.447,41.145 0,40.697 0,40.145 L0,39.178 C0,38.625 0.447,38.178 1,38.178 C1.553,38.178 2,38.625 2,39.178 L2,40.145 C2,40.697 1.553,41.145 1,41.145 L1,41.145 Z M1,36.314 C0.447,36.314 0,35.866 0,35.313 L0,34.348 C0,33.795 0.447,33.348 1,33.348 C1.553,33.348 2,33.795 2,34.348 L2,35.313 C2,35.866 1.553,36.314 1,36.314 L1,36.314 Z M1,31.483 C0.447,31.483 0,31.036 0,30.483 L0,29.518 C0,28.965 0.447,28.518 1,28.518 C1.553,28.518 2,28.965 2,29.518 L2,30.483 C2,31.036 1.553,31.483 1,31.483 L1,31.483 Z M1,26.652 C0.447,26.652 0,26.205 0,25.652 L0,24.687 C0,24.134 0.447,23.687 1,23.687 C1.553,23.687 2,24.134 2,24.687 L2,25.652 C2,26.205 1.553,26.652 1,26.652 L1,26.652 Z M1,21.822 C0.447,21.822 0,21.375 0,20.822 L0,19.856 C0,19.304 0.447,18.856 1,18.856 C1.553,18.856 2,19.304 2,19.856 L2,20.822 C2,21.375 1.553,21.822 1,21.822 L1,21.822 Z M1,16.991 C0.447,16.991 0,16.544 0,15.991 L0,15.025 C0,14.473 0.447,14.025 1,14.025 C1.553,14.025 2,14.473 2,15.025 L2,15.991 C2,16.544 1.553,16.991 1,16.991 L1,16.991 Z M1,12.161 C0.447,12.161 0,11.714 0,11.161 L0,10.195 C0,9.643 0.447,9.195 1,9.195 C1.553,9.195 2,9.643 2,10.195 L2,11.161 C2,11.714 1.553,12.161 1,12.161 L1,12.161 Z M1,7.331 C0.447,7.331 0,6.884 0,6.331 L0,5.364 C0,4.812 0.447,4.364 1,4.364 C1.553,4.364 2,4.812 2,5.364 L2,6.331 C2,6.884 1.553,7.331 1,7.331 L1,7.331 Z" id="Fill-579" sketch:type="MSShapeGroup"></path>
                <path d="M1,2.5 C0.447,2.5 0,2.053 0,1.5 L0,0 L1.5,0 C2.053,0 2.5,0.447 2.5,1 C2.5,1.405 2.259,1.755 1.912,1.912 C1.755,2.259 1.405,2.5 1,2.5" id="Fill-580" sketch:type="MSShapeGroup"></path>
                <path d="M14.921,2 L14.026,2 C13.474,2 13.026,1.553 13.026,1 C13.026,0.447 13.474,0 14.026,0 L14.921,0 C15.474,0 15.921,0.447 15.921,1 C15.921,1.553 15.474,2 14.921,2 L14.921,2 Z M10.447,2 L9.553,2 C9,2 8.553,1.553 8.553,1 C8.553,0.447 9,0 9.553,0 L10.447,0 C11,0 11.447,0.447 11.447,1 C11.447,1.553 11,2 10.447,2 L10.447,2 Z M5.974,2 L5.079,2 C4.526,2 4.079,1.553 4.079,1 C4.079,0.447 4.526,0 5.079,0 L5.974,0 C6.526,0 6.974,0.447 6.974,1 C6.974,1.553 6.526,2 5.974,2 L5.974,2 Z" id="Fill-581" sketch:type="MSShapeGroup"></path>
                <path d="M19,2.5 C18.595,2.5 18.245,2.259 18.088,1.912 C17.741,1.755 17.5,1.405 17.5,1 C17.5,0.447 17.947,0 18.5,0 L20,0 L20,1.5 C20,2.053 19.553,2.5 19,2.5" id="Fill-582" sketch:type="MSShapeGroup"></path>
                <path d="M19,55.636 C18.447,55.636 18,55.188 18,54.636 L18,53.669 C18,53.116 18.447,52.669 19,52.669 C19.553,52.669 20,53.116 20,53.669 L20,54.636 C20,55.188 19.553,55.636 19,55.636 L19,55.636 Z M19,50.805 C18.447,50.805 18,50.357 18,49.805 L18,48.839 C18,48.286 18.447,47.839 19,47.839 C19.553,47.839 20,48.286 20,48.839 L20,49.805 C20,50.357 19.553,50.805 19,50.805 L19,50.805 Z M19,45.975 C18.447,45.975 18,45.527 18,44.975 L18,44.009 C18,43.456 18.447,43.009 19,43.009 C19.553,43.009 20,43.456 20,44.009 L20,44.975 C20,45.527 19.553,45.975 19,45.975 L19,45.975 Z M19,41.144 C18.447,41.144 18,40.696 18,40.144 L18,39.178 C18,38.625 18.447,38.178 19,38.178 C19.553,38.178 20,38.625 20,39.178 L20,40.144 C20,40.696 19.553,41.144 19,41.144 L19,41.144 Z M19,36.314 C18.447,36.314 18,35.866 18,35.313 L18,34.348 C18,33.795 18.447,33.348 19,33.348 C19.553,33.348 20,33.795 20,34.348 L20,35.313 C20,35.866 19.553,36.314 19,36.314 L19,36.314 Z M19,31.482 C18.447,31.482 18,31.035 18,30.482 L18,29.517 C18,28.964 18.447,28.517 19,28.517 C19.553,28.517 20,28.964 20,29.517 L20,30.482 C20,31.035 19.553,31.482 19,31.482 L19,31.482 Z M19,26.652 C18.447,26.652 18,26.205 18,25.652 L18,24.687 C18,24.134 18.447,23.687 19,23.687 C19.553,23.687 20,24.134 20,24.687 L20,25.652 C20,26.205 19.553,26.652 19,26.652 L19,26.652 Z M19,21.822 C18.447,21.822 18,21.375 18,20.822 L18,19.855 C18,19.303 18.447,18.856 19,18.856 C19.553,18.856 20,19.303 20,19.855 L20,20.822 C20,21.375 19.553,21.822 19,21.822 L19,21.822 Z M19,16.991 C18.447,16.991 18,16.544 18,15.991 L18,15.025 C18,14.473 18.447,14.025 19,14.025 C19.553,14.025 20,14.473 20,15.025 L20,15.991 C20,16.544 19.553,16.991 19,16.991 L19,16.991 Z M19,12.161 C18.447,12.161 18,11.714 18,11.161 L18,10.194 C18,9.642 18.447,9.194 19,9.194 C19.553,9.194 20,9.642 20,10.194 L20,11.161 C20,11.714 19.553,12.161 19,12.161 L19,12.161 Z M19,7.33 C18.447,7.33 18,6.883 18,6.33 L18,5.364 C18,4.812 18.447,4.364 19,4.364 C19.553,4.364 20,4.812 20,5.364 L20,6.33 C20,6.883 19.553,7.33 19,7.33 L19,7.33 Z" id="Fill-583" sketch:type="MSShapeGroup"></path>
            </g>
        </g>
    </g>
</svg>