<?xml version="1.0" encoding="UTF-8" standalone="no"?>
<svg width="40px" height="60px" viewBox="0 0 40 60" version="1.1" xmlns="http://www.w3.org/2000/svg" xmlns:xlink="http://www.w3.org/1999/xlink" xmlns:sketch="http://www.bohemiancoding.com/sketch/ns">
    <!-- Generator: Sketch 3.3.2 (12043) - http://www.bohemiancoding.com/sketch -->
    <title>77 - Direct Selection Tool (Flat)</title>
    <desc>Created with Sketch.</desc>
    <defs></defs>
    <g id="Page-1" stroke="none" stroke-width="1" fill="none" fill-rule="evenodd" sketch:type="MSPage">
        <g id="Icons" sketch:type="MSArtboardGroup" transform="translate(-491.000000, -957.000000)" fill="#C7CBC7">
            <g id="77---Direct-Selection-Tool-(Flat)" sketch:type="MSLayerGroup" transform="translate(491.000000, 957.000000)">
                <path d="M39.761,35.644 L10.083,0.85 C9.833,0.557 9.434,0.433 9.064,0.533 C8.691,0.633 8.409,0.938 8.339,1.317 L0.034,46.289 C-0.046,46.723 0.167,47.158 0.559,47.359 C0.704,47.435 0.861,47.471 1.017,47.471 C1.282,47.471 1.543,47.365 1.736,47.166 L16.446,31.951 L23.739,59.165 C23.858,59.612 24.262,59.906 24.704,59.906 C24.79,59.906 24.877,59.896 24.963,59.872 C25.497,59.73 25.813,59.181 25.67,58.648 L18.378,31.433 L38.725,37.255 C39.148,37.373 39.602,37.204 39.841,36.834 C40.08,36.463 40.047,35.98 39.761,35.644" id="Fill-473" sketch:type="MSShapeGroup"></path>
            </g>
        </g>
    </g>
</svg>