<?xml version="1.0" encoding="UTF-8" standalone="no"?>
<svg width="59px" height="59px" viewBox="0 0 59 59" version="1.1" xmlns="http://www.w3.org/2000/svg" xmlns:xlink="http://www.w3.org/1999/xlink" xmlns:sketch="http://www.bohemiancoding.com/sketch/ns">
    <!-- Generator: Sketch 3.3.2 (12043) - http://www.bohemiancoding.com/sketch -->
    <title>14 - Distort (Flat)</title>
    <desc>Created with Sketch.</desc>
    <defs></defs>
    <g id="Page-1" stroke="none" stroke-width="1" fill="none" fill-rule="evenodd" sketch:type="MSPage">
        <g id="Icons" sketch:type="MSArtboardGroup" transform="translate(-841.000000, -1678.000000)">
            <g id="14---Distort-(Flat)" sketch:type="MSLayerGroup" transform="translate(840.000000, 1677.000000)">
                <path d="M2,2 L59,2 L59,59 L2,59 L2,2 Z" id="Fill-677" fill="#7383BF" sketch:type="MSShapeGroup"></path>
                <path d="M1,1 L60,1 L60,60 L1,60 L1,1 Z M3,58 L58,58 L58,3 L3,3 L3,58 Z" id="Fill-678" fill="#556080" sketch:type="MSShapeGroup"></path>
                <path d="M19.999,60 C19.847,60 19.692,59.965 19.547,59.892 C19.055,59.642 18.858,59.04 19.108,58.547 C22.972,50.939 22.972,38.561 19.108,30.953 C14.991,22.845 14.991,9.654 19.108,1.547 C19.358,1.055 19.958,0.858 20.453,1.108 C20.945,1.358 21.142,1.96 20.892,2.453 C17.028,10.061 17.028,22.439 20.892,30.047 C25.009,38.154 25.009,51.345 20.892,59.453 C20.715,59.8 20.364,60 19.999,60" id="Fill-785" fill="#556080" sketch:type="MSShapeGroup"></path>
                <path d="M40.001,60 C39.636,60 39.285,59.8 39.108,59.453 C34.991,51.345 34.991,38.154 39.108,30.047 C42.972,22.439 42.972,10.061 39.108,2.453 C38.858,1.96 39.055,1.358 39.547,1.108 C40.04,0.858 40.641,1.055 40.892,1.547 C45.009,9.654 45.009,22.845 40.892,30.953 C37.028,38.561 37.028,50.939 40.892,58.547 C41.142,59.04 40.945,59.642 40.453,59.892 C40.308,59.965 40.153,60 40.001,60" id="Fill-786" fill="#556080" sketch:type="MSShapeGroup"></path>
                <path d="M16.25,23.98 C10.926,23.98 5.601,22.95 1.547,20.892 C1.055,20.642 0.858,20.04 1.108,19.547 C1.358,19.056 1.959,18.859 2.453,19.108 C10.06,22.972 22.44,22.972 30.047,19.108 C38.155,14.99 51.347,14.992 59.453,19.108 C59.945,19.358 60.142,19.96 59.892,20.453 C59.641,20.944 59.04,21.139 58.547,20.892 C50.94,17.028 38.562,17.028 30.953,20.892 C26.899,22.95 21.575,23.98 16.25,23.98" id="Fill-787" fill="#556080" sketch:type="MSShapeGroup"></path>
                <path d="M44.75,43.979 C39.426,43.979 34.101,42.95 30.047,40.892 C22.441,37.028 10.062,37.028 2.453,40.892 C1.959,41.141 1.358,40.944 1.108,40.453 C0.858,39.96 1.055,39.358 1.547,39.108 C9.655,34.99 22.847,34.992 30.953,39.108 C38.562,42.972 50.94,42.972 58.547,39.108 C59.04,38.859 59.641,39.056 59.892,39.547 C60.142,40.04 59.945,40.642 59.453,40.892 C55.399,42.95 50.075,43.979 44.75,43.979" id="Fill-788" fill="#556080" sketch:type="MSShapeGroup"></path>
            </g>
        </g>
    </g>
</svg>