<?xml version="1.0" encoding="UTF-8" standalone="no"?>
<svg width="60px" height="60px" viewBox="0 0 60 60" version="1.1" xmlns="http://www.w3.org/2000/svg" xmlns:xlink="http://www.w3.org/1999/xlink" xmlns:sketch="http://www.bohemiancoding.com/sketch/ns">
    <!-- Generator: Sketch 3.3.2 (12043) - http://www.bohemiancoding.com/sketch -->
    <title>75 - Edit Corner Point (Flat)</title>
    <desc>Created with Sketch.</desc>
    <defs></defs>
    <g id="Page-1" stroke="none" stroke-width="1" fill="none" fill-rule="evenodd" sketch:type="MSPage">
        <g id="Icons" sketch:type="MSArtboardGroup" transform="translate(-720.000000, -957.000000)">
            <g id="75---Edit-Corner-Point-(Flat)" sketch:type="MSLayerGroup" transform="translate(720.000000, 957.000000)">
                <path d="M4,60 C3.447,60 3,59.553 3,59 L3,7 C3,6.447 3.447,6 4,6 C4.553,6 5,6.447 5,7 L5,59 C5,59.553 4.553,60 4,60" id="Fill-18" fill="#7383BF" sketch:type="MSShapeGroup"></path>
                <path d="M59,5 L7,5 C6.447,5 6,4.553 6,4 C6,3.447 6.447,3 7,3 L59,3 C59.553,3 60,3.447 60,4 C60,4.553 59.553,5 59,5" id="Fill-19" fill="#7383BF" sketch:type="MSShapeGroup"></path>
                <path d="M1,1 L7,1 L7,7 L1,7 L1,1 Z" id="Fill-420" fill="#556080" sketch:type="MSShapeGroup"></path>
                <path d="M0,0 L8,0 L8,8 L0,8 L0,0 Z M2,6 L6,6 L6,2 L2,2 L2,6 Z" id="Fill-421" fill="#556080" sketch:type="MSShapeGroup"></path>
                <path d="M13,17 C10.791,17 9,15.209 9,13 C9,10.791 10.791,9 13,9 C15.209,9 17,10.791 17,13 C17,15.209 15.209,17 13,17" id="Fill-422" fill="#EC7937" sketch:type="MSShapeGroup"></path>
                <path d="M13,18 C10.243,18 8,15.757 8,13 C8,10.243 10.243,8 13,8 C15.757,8 18,10.243 18,13 C18,15.757 15.757,18 13,18 L13,18 Z M13,10 C11.346,10 10,11.346 10,13 C10,14.654 11.346,16 13,16 C14.654,16 16,14.654 16,13 C16,11.346 14.654,10 13,10 L13,10 Z" id="Fill-423" fill="#EC7937" sketch:type="MSShapeGroup"></path>
                <path d="M13,14 C12.448,14 12,13.552 12,13 C12,12.448 12.448,12 13,12 C13.552,12 14,12.448 14,13 C14,13.552 13.552,14 13,14" id="Fill-424" fill="#FFFFFF" sketch:type="MSShapeGroup"></path>
                <path d="M52.079,43.047 L36.984,25.351 C36.734,25.058 36.338,24.933 35.965,25.034 C35.592,25.134 35.311,25.44 35.24,25.818 L31.017,48.691 C30.937,49.125 31.15,49.561 31.542,49.762 C31.688,49.837 31.844,49.873 32,49.873 C32.265,49.873 32.525,49.768 32.719,49.568 L39.598,42.454 L43.082,55.457 C43.201,55.904 43.606,56.198 44.047,56.198 C44.133,56.198 44.22,56.188 44.307,56.164 C44.84,56.022 45.156,55.473 45.014,54.94 L41.529,41.936 L51.043,44.658 C51.468,44.775 51.92,44.607 52.159,44.237 C52.398,43.866 52.365,43.383 52.079,43.047" id="Fill-425" fill="#434C6D" sketch:type="MSShapeGroup"></path>
            </g>
        </g>
    </g>
</svg>