<?xml version="1.0" encoding="UTF-8" standalone="no"?>
<svg width="57px" height="54px" viewBox="0 0 57 54" version="1.1" xmlns="http://www.w3.org/2000/svg" xmlns:xlink="http://www.w3.org/1999/xlink" xmlns:sketch="http://www.bohemiancoding.com/sketch/ns">
    <!-- Generator: Sketch 3.3.2 (12043) - http://www.bohemiancoding.com/sketch -->
    <title>66 - Edit (Flat)</title>
    <desc>Created with Sketch.</desc>
    <defs></defs>
    <g id="Page-1" stroke="none" stroke-width="1" fill="none" fill-rule="evenodd" sketch:type="MSPage">
        <g id="Icons" sketch:type="MSArtboardGroup" transform="translate(-602.000000, -1081.000000)">
            <g id="66---Edit-(Flat)" sketch:type="MSLayerGroup" transform="translate(602.000000, 1081.000000)">
                <path d="M50,10.997 L44,10.997 L44,8.974 L29,16.282 L29,20.997 L23,20.997 L23,19.205 L7,27 L7,29.997 L3,29.997 C3.725,35.462 6.355,41.181 10.555,45.381 C20.708,55.535 37.17,55.535 47.324,45.381 C56.583,36.122 57.628,21.18 50,10.997" id="Fill-118" fill="#25B99A" sketch:type="MSShapeGroup"></path>
                <path d="M28.94,53.997 C21.727,53.997 14.947,51.188 9.848,46.088 C5.656,41.898 2.799,36.08 2.009,30.128 C1.971,29.842 2.058,29.554 2.248,29.337 C2.438,29.12 2.712,28.996 3,28.996 L6,28.996 L6,27 C6,26.617 6.218,26.269 6.562,26.101 L22.562,18.306 C22.873,18.156 23.239,18.175 23.53,18.357 C23.822,18.54 24,18.86 24,19.205 L24,19.996 L28,19.996 L28,16.282 C28,15.899 28.218,15.551 28.562,15.383 L43.562,8.075 C43.872,7.925 44.238,7.943 44.53,8.127 C44.822,8.31 45,8.63 45,8.975 L45,9.996 L50,9.996 C50.315,9.996 50.611,10.144 50.801,10.396 C58.838,21.128 57.648,36.472 48.031,46.088 C42.932,51.188 36.151,53.997 28.94,53.997 L28.94,53.997 Z M4.169,30.996 C5.093,36.121 7.641,41.054 11.262,44.674 C15.983,49.396 22.262,51.997 28.94,51.997 C35.617,51.997 41.895,49.396 46.617,44.674 C55.27,36.022 56.491,21.766 49.493,11.996 L44,11.996 C43.448,11.996 43,11.549 43,10.996 L43,10.574 L30,16.907 L30,20.996 C30,21.549 29.552,21.996 29,21.996 L23,21.996 C22.448,21.996 22,21.549 22,20.996 L22,20.805 L8,27.625 L8,29.996 C8,30.549 7.552,30.996 7,30.996 L4.169,30.996 L4.169,30.996 Z" id="Fill-119" fill="#25B99A" sketch:type="MSShapeGroup"></path>
                <path d="M7,28.435 C6.819,28.435 6.638,28.387 6.479,28.289 C6.182,28.107 6,27.784 6,27.435 L6,24.996 L3,24.996 C2.718,24.996 2.449,24.877 2.259,24.668 C2.069,24.459 1.977,24.179 2.005,23.898 C2.595,17.899 5.234,12.518 9.848,7.904 C14.945,2.807 21.723,0 28.931,0 C34.586,0 39.997,1.726 44.58,4.991 C44.844,5.179 45,5.482 45,5.806 L45,8.436 C45,8.811 44.791,9.154 44.457,9.325 L29.457,17.028 C29.147,17.188 28.777,17.175 28.479,16.992 C28.182,16.81 28,16.487 28,16.139 L28,15.996 L24,15.996 L24,19.22 C24,19.595 23.791,19.938 23.457,20.109 L7.457,28.325 C7.313,28.398 7.156,28.435 7,28.435 L7,28.435 Z M4.129,22.996 L7,22.996 C7.552,22.996 8,23.443 8,23.996 L8,25.798 L22,18.609 L22,14.996 C22,14.443 22.448,13.996 23,13.996 L29,13.996 C29.394,13.996 29.734,14.224 29.897,14.554 L43,7.825 L43,6.327 C38.849,3.494 33.996,2 28.931,2 C22.257,2 15.981,4.599 11.262,9.318 C7.269,13.312 4.873,17.908 4.129,22.996 L4.129,22.996 Z" id="Fill-859" fill="#7383BF" sketch:type="MSShapeGroup"></path>
                <path d="M1,23.997 L7,23.997 L7,29.997 L1,29.997 L1,23.997 Z" id="Fill-909" fill="#556080" sketch:type="MSShapeGroup"></path>
                <path d="M0,22.996 L8,22.996 L8,30.996 L0,30.996 L0,22.996 Z M2,28.996 L6,28.996 L6,24.996 L2,24.996 L2,28.996 Z" id="Fill-910" fill="#556080" sketch:type="MSShapeGroup"></path>
                <path d="M23,14.997 L29,14.997 L29,20.997 L23,20.997 L23,14.997 Z" id="Fill-911" fill="#556080" sketch:type="MSShapeGroup"></path>
                <path d="M22,13.996 L30,13.996 L30,21.996 L22,21.996 L22,13.996 Z M24,19.996 L28,19.996 L28,15.996 L24,15.996 L24,19.996 Z" id="Fill-912" fill="#556080" sketch:type="MSShapeGroup"></path>
                <path d="M44,4.997 L50,4.997 L50,10.997 L44,10.997 L44,4.997 Z" id="Fill-913" fill="#556080" sketch:type="MSShapeGroup"></path>
                <path d="M43,3.996 L51,3.996 L51,11.996 L43,11.996 L43,3.996 Z M45,9.996 L49,9.996 L49,5.996 L45,5.996 L45,9.996 Z" id="Fill-914" fill="#556080" sketch:type="MSShapeGroup"></path>
            </g>
        </g>
    </g>
</svg>