<?xml version="1.0" encoding="UTF-8" standalone="no"?>
<svg width="60px" height="60px" viewBox="0 0 60 60" version="1.1" xmlns="http://www.w3.org/2000/svg" xmlns:xlink="http://www.w3.org/1999/xlink" xmlns:sketch="http://www.bohemiancoding.com/sketch/ns">
    <!-- Generator: Sketch 3.3.2 (12043) - http://www.bohemiancoding.com/sketch -->
    <title>112 - Edit Bottom Left Corner (Flat)</title>
    <desc>Created with Sketch.</desc>
    <defs></defs>
    <g id="Page-1" stroke="none" stroke-width="1" fill="none" fill-rule="evenodd" sketch:type="MSPage">
        <g id="Icons" sketch:type="MSArtboardGroup" transform="translate(-1080.000000, -477.000000)">
            <g id="112---Edit-Bottom-Left-Corner-(Flat)" sketch:type="MSLayerGroup" transform="translate(1080.000000, 477.000000)">
                <path d="M46,53 C46,52.45 46.45,52 47,52 C47.55,52 48,52.45 48,53 C48,53.55 47.55,54 47,54 C46.45,54 46,53.55 46,53 L46,53 Z M42,53 C42,52.45 42.45,52 43,52 C43.55,52 44,52.45 44,53 C44,53.55 43.55,54 43,54 C42.45,54 42,53.55 42,53 L42,53 Z M38,53 C38,52.45 38.45,52 39,52 C39.55,52 40,52.45 40,53 C40,53.55 39.55,54 39,54 C38.45,54 38,53.55 38,53 L38,53 Z M34,53 C34,52.45 34.45,52 35,52 C35.55,52 36,52.45 36,53 C36,53.55 35.55,54 35,54 C34.45,54 34,53.55 34,53 L34,53 Z M30,53 C30,52.45 30.45,52 31,52 C31.55,52 32,52.45 32,53 C32,53.55 31.55,54 31,54 C30.45,54 30,53.55 30,53 L30,53 Z M26,53 C26,52.45 26.45,52 27,52 C27.55,52 28,52.45 28,53 C28,53.55 27.55,54 27,54 C26.45,54 26,53.55 26,53 L26,53 Z M22,53 C22,52.45 22.45,52 23,52 C23.55,52 24,52.45 24,53 C24,53.55 23.55,54 23,54 C22.45,54 22,53.55 22,53 L22,53 Z M18,53 C18,52.45 18.45,52 19,52 C19.55,52 20,52.45 20,53 C20,53.55 19.55,54 19,54 C18.45,54 18,53.55 18,53 L18,53 Z M14,53 C14,52.45 14.45,52 15,52 C15.55,52 16,52.45 16,53 C16,53.55 15.55,54 15,54 C14.45,54 14,53.55 14,53 L14,53 Z M12,51 C12,50.45 12.45,50 13,50 C13.55,50 14,50.45 14,51 C14,51.55 13.55,52 13,52 C12.45,52 12,51.55 12,51 L12,51 Z M46,49 C46,48.45 46.45,48 47,48 C47.55,48 48,48.45 48,49 C48,49.55 47.55,50 47,50 C46.45,50 46,49.55 46,49 L46,49 Z M52,47 C52,46.45 52.45,46 53,46 C53.55,46 54,46.45 54,47 C54,47.55 53.55,48 53,48 C52.45,48 52,47.55 52,47 L52,47 Z M48,47 C48,46.45 48.45,46 49,46 C49.55,46 50,46.45 50,47 C50,47.55 49.55,48 49,48 C48.45,48 48,47.55 48,47 L48,47 Z M12,47 C12,46.45 12.45,46 13,46 C13.55,46 14,46.45 14,47 C14,47.55 13.55,48 13,48 C12.45,48 12,47.55 12,47 L12,47 Z M8,47 C8,46.45 8.45,46 9,46 C9.55,46 10,46.45 10,47 C10,47.55 9.55,48 9,48 C8.45,48 8,47.55 8,47 L8,47 Z M6,45 C6,44.45 6.45,44 7,44 C7.55,44 8,44.45 8,45 C8,45.55 7.55,46 7,46 C6.45,46 6,45.55 6,45 L6,45 Z M52,43 C52,42.45 52.45,42 53,42 C53.55,42 54,42.45 54,43 C54,43.55 53.55,44 53,44 C52.45,44 52,43.55 52,43 L52,43 Z M6,41 C6,40.45 6.45,40 7,40 C7.55,40 8,40.45 8,41 C8,41.55 7.55,42 7,42 C6.45,42 6,41.55 6,41 L6,41 Z M52,39 C52,38.45 52.45,38 53,38 C53.55,38 54,38.45 54,39 C54,39.55 53.55,40 53,40 C52.45,40 52,39.55 52,39 L52,39 Z M6,37 C6,36.45 6.45,36 7,36 C7.55,36 8,36.45 8,37 C8,37.55 7.55,38 7,38 C6.45,38 6,37.55 6,37 L6,37 Z M52,35 C52,34.45 52.45,34 53,34 C53.55,34 54,34.45 54,35 C54,35.55 53.55,36 53,36 C52.45,36 52,35.55 52,35 L52,35 Z M6,33 C6,32.45 6.45,32 7,32 C7.55,32 8,32.45 8,33 C8,33.55 7.55,34 7,34 C6.45,34 6,33.55 6,33 L6,33 Z M52,31 C52,30.45 52.45,30 53,30 C53.55,30 54,30.45 54,31 C54,31.55 53.55,32 53,32 C52.45,32 52,31.55 52,31 L52,31 Z M6,29 C6,28.45 6.45,28 7,28 C7.55,28 8,28.45 8,29 C8,29.55 7.55,30 7,30 C6.45,30 6,29.55 6,29 L6,29 Z M52,27 C52,26.45 52.45,26 53,26 C53.55,26 54,26.45 54,27 C54,27.55 53.55,28 53,28 C52.45,28 52,27.55 52,27 L52,27 Z M6,25 C6,24.45 6.45,24 7,24 C7.55,24 8,24.45 8,25 C8,25.55 7.55,26 7,26 C6.45,26 6,25.55 6,25 L6,25 Z M52,23 C52,22.45 52.45,22 53,22 C53.55,22 54,22.45 54,23 C54,23.55 53.55,24 53,24 C52.45,24 52,23.55 52,23 L52,23 Z M6,21 C6,20.45 6.45,20 7,20 C7.55,20 8,20.45 8,21 C8,21.55 7.55,22 7,22 C6.45,22 6,21.55 6,21 L6,21 Z M52,19 C52,18.45 52.45,18 53,18 C53.55,18 54,18.45 54,19 C54,19.55 53.55,20 53,20 C52.45,20 52,19.55 52,19 L52,19 Z M6,17 C6,16.45 6.45,16 7,16 C7.55,16 8,16.45 8,17 C8,17.55 7.55,18 7,18 C6.45,18 6,17.55 6,17 L6,17 Z M52,15 C52,14.45 52.45,14 53,14 C53.55,14 54,14.45 54,15 C54,15.55 53.55,16 53,16 C52.45,16 52,15.55 52,15 L52,15 Z M50,13 C50,12.45 50.45,12 51,12 C51.55,12 52,12.45 52,13 C52,13.55 51.55,14 51,14 C50.45,14 50,13.55 50,13 L50,13 Z M46,13 C46,12.45 46.45,12 47,12 C47.55,12 48,12.45 48,13 C48,13.55 47.55,14 47,14 C46.45,14 46,13.55 46,13 L46,13 Z M10,13 C10,12.45 10.45,12 11,12 C11.55,12 12,12.45 12,13 C12,13.55 11.55,14 11,14 C10.45,14 10,13.55 10,13 L10,13 Z M6,13 C6,12.45 6.45,12 7,12 C7.55,12 8,12.45 8,13 C8,13.55 7.55,14 7,14 C6.45,14 6,13.55 6,13 L6,13 Z M12,11 C12,10.45 12.45,10 13,10 C13.55,10 14,10.45 14,11 C14,11.55 13.55,12 13,12 C12.45,12 12,11.55 12,11 L12,11 Z M46,9 C46,8.45 46.45,8 47,8 C47.55,8 48,8.45 48,9 C48,9.55 47.55,10 47,10 C46.45,10 46,9.55 46,9 L46,9 Z M44,7 C44,6.45 44.45,6 45,6 C45.55,6 46,6.45 46,7 C46,7.55 45.55,8 45,8 C44.45,8 44,7.55 44,7 L44,7 Z M40,7 C40,6.45 40.45,6 41,6 C41.55,6 42,6.45 42,7 C42,7.55 41.55,8 41,8 C40.45,8 40,7.55 40,7 L40,7 Z M36,7 C36,6.45 36.44,6 37,6 C37.55,6 38,6.45 38,7 C38,7.55 37.55,8 37,8 C36.44,8 36,7.55 36,7 L36,7 Z M32,7 C32,6.45 32.45,6 33,6 C33.55,6 34,6.45 34,7 C34,7.55 33.55,8 33,8 C32.45,8 32,7.55 32,7 L32,7 Z M28,7 C28,6.45 28.45,6 29,6 C29.55,6 30,6.45 30,7 C30,7.55 29.55,8 29,8 C28.45,8 28,7.55 28,7 L28,7 Z M24,7 C24,6.45 24.45,6 25,6 C25.55,6 26,6.45 26,7 C26,7.55 25.55,8 25,8 C24.45,8 24,7.55 24,7 L24,7 Z M20,7 C20,6.45 20.45,6 21,6 C21.55,6 22,6.45 22,7 C22,7.55 21.55,8 21,8 C20.45,8 20,7.55 20,7 L20,7 Z M16,7 C16,6.45 16.45,6 17,6 C17.55,6 18,6.45 18,7 C18,7.55 17.55,8 17,8 C16.45,8 16,7.55 16,7 L16,7 Z M12,7 C12,6.45 12.45,6 13,6 C13.55,6 14,6.45 14,7 C14,7.55 13.55,8 13,8 C12.45,8 12,7.55 12,7 L12,7 Z" id="Fill-60" fill="#556080" sketch:type="MSShapeGroup"></path>
                <path d="M1,1 L13,1 L13,13 L1,13 L1,1 Z" id="Fill-342" fill="#434C6D" sketch:type="MSShapeGroup"></path>
                <path d="M0,0 L14,0 L14,14 L0,14 L0,0 Z M2,12 L12,12 L12,2 L2,2 L2,12 Z" id="Fill-343" fill="#434C6D" sketch:type="MSShapeGroup"></path>
                <path d="M1,47 L13,47 L13,59 L1,59 L1,47 Z" id="Fill-344" fill="#25B99A" sketch:type="MSShapeGroup"></path>
                <path d="M0,46 L14,46 L14,60 L0,60 L0,46 Z M2,58 L12,58 L12,48 L2,48 L2,58 Z" id="Fill-345" fill="#25B99A" sketch:type="MSShapeGroup"></path>
                <path d="M47,1 L59,1 L59,13 L47,13 L47,1 Z" id="Fill-346" fill="#434C6D" sketch:type="MSShapeGroup"></path>
                <path d="M46,0 L60,0 L60,14 L46,14 L46,0 Z M48,12 L58,12 L58,2 L48,2 L48,12 Z" id="Fill-347" fill="#434C6D" sketch:type="MSShapeGroup"></path>
                <path d="M47,47 L59,47 L59,59 L47,59 L47,47 Z" id="Fill-348" fill="#434C6D" sketch:type="MSShapeGroup"></path>
                <path d="M46,46 L60,46 L60,60 L46,60 L46,46 Z M48,58 L58,58 L58,48 L48,48 L48,58 Z" id="Fill-349" fill="#434C6D" sketch:type="MSShapeGroup"></path>
            </g>
        </g>
    </g>
</svg>