<?xml version="1.0" encoding="UTF-8" standalone="no"?>
<svg width="60px" height="60px" viewBox="0 0 60 60" version="1.1" xmlns="http://www.w3.org/2000/svg" xmlns:xlink="http://www.w3.org/1999/xlink" xmlns:sketch="http://www.bohemiancoding.com/sketch/ns">
    <!-- Generator: Sketch 3.3.2 (12043) - http://www.bohemiancoding.com/sketch -->
    <title>125 - Edit Oval Line (Flat)</title>
    <desc>Created with Sketch.</desc>
    <defs></defs>
    <g id="Page-1" stroke="none" stroke-width="1" fill="none" fill-rule="evenodd" sketch:type="MSPage">
        <g id="Icons" sketch:type="MSArtboardGroup" transform="translate(-720.000000, -357.000000)">
            <g id="125---Edit-Oval-Line-(Flat)" sketch:type="MSLayerGroup" transform="translate(720.000000, 357.000000)">
                <path d="M5.171,27.114 L3.185,26.886 C4.623,14.37 14.369,4.623 26.886,3.184 L27.114,5.171 C15.526,6.503 6.503,15.526 5.171,27.114" id="Fill-114" fill="#7383BF" sketch:type="MSShapeGroup"></path>
                <path d="M54.829,27.114 C53.497,15.526 44.474,6.503 32.886,5.171 L33.114,3.184 C45.631,4.623 55.377,14.37 56.815,26.886 L54.829,27.114" id="Fill-115" fill="#7383BF" sketch:type="MSShapeGroup"></path>
                <path d="M33.114,56.816 L32.886,54.829 C44.474,53.497 53.497,44.474 54.829,32.886 L56.815,33.114 C55.377,45.63 45.631,55.377 33.114,56.816" id="Fill-116" fill="#7383BF" sketch:type="MSShapeGroup"></path>
                <path d="M26.886,56.816 C14.369,55.377 4.623,45.63 3.185,33.114 L5.171,32.886 C6.503,44.474 15.526,53.497 27.114,54.829 L26.886,56.816" id="Fill-117" fill="#7383BF" sketch:type="MSShapeGroup"></path>
                <path d="M1,27 L7,27 L7,33 L1,33 L1,27 Z" id="Fill-182" fill="#434C6D" sketch:type="MSShapeGroup"></path>
                <path d="M0,26 L8,26 L8,34 L0,34 L0,26 Z M2,32 L6,32 L6,28 L2,28 L2,32 Z" id="Fill-183" fill="#434C6D" sketch:type="MSShapeGroup"></path>
                <path d="M53,27 L59,27 L59,33 L53,33 L53,27 Z" id="Fill-184" fill="#434C6D" sketch:type="MSShapeGroup"></path>
                <path d="M52,26 L60,26 L60,34 L52,34 L52,26 Z M54,32 L58,32 L58,28 L54,28 L54,32 Z" id="Fill-185" fill="#434C6D" sketch:type="MSShapeGroup"></path>
                <path d="M27,53 L33,53 L33,59 L27,59 L27,53 Z" id="Fill-186" fill="#434C6D" sketch:type="MSShapeGroup"></path>
                <path d="M26,52 L34,52 L34,60 L26,60 L26,52 Z M28,58 L32,58 L32,54 L28,54 L28,58 Z" id="Fill-187" fill="#434C6D" sketch:type="MSShapeGroup"></path>
                <path d="M27,1 L33,1 L33,7 L27,7 L27,1 Z" id="Fill-188" fill="#434C6D" sketch:type="MSShapeGroup"></path>
                <path d="M26,0 L34,0 L34,8 L26,8 L26,0 Z M28,6 L32,6 L32,2 L28,2 L28,6 Z" id="Fill-189" fill="#434C6D" sketch:type="MSShapeGroup"></path>
            </g>
        </g>
    </g>
</svg>