<?xml version="1.0" encoding="UTF-8" standalone="no"?>
<svg width="60px" height="60px" viewBox="0 0 60 60" version="1.1" xmlns="http://www.w3.org/2000/svg" xmlns:xlink="http://www.w3.org/1999/xlink" xmlns:sketch="http://www.bohemiancoding.com/sketch/ns">
    <!-- Generator: Sketch 3.3.2 (12043) - http://www.bohemiancoding.com/sketch -->
    <title>46 - Edit Vector (Flat)</title>
    <desc>Created with Sketch.</desc>
    <defs></defs>
    <g id="Page-1" stroke="none" stroke-width="1" fill="none" fill-rule="evenodd" sketch:type="MSPage">
        <g id="Icons" sketch:type="MSArtboardGroup" transform="translate(-600.000000, -1317.000000)">
            <g id="46---Edit-Vector-(Flat)" sketch:type="MSLayerGroup" transform="translate(600.000000, 1317.000000)">
                <path d="M31.01,33 L27.511,51.944 L34.225,45 L43.511,47.656 L31.01,33" id="Fill-470" fill="#556080" sketch:type="MSShapeGroup"></path>
                <path d="M32.121,28.879 C31.865,28.879 31.609,28.781 31.414,28.586 C31.023,28.195 31.023,27.563 31.414,27.172 L52.293,6.293 C52.684,5.902 53.316,5.902 53.707,6.293 C54.098,6.684 54.098,7.316 53.707,7.707 L32.828,28.586 C32.632,28.781 32.377,28.879 32.121,28.879" id="Fill-563" fill="#7383BF" sketch:type="MSShapeGroup"></path>
                <path d="M7,54 C6.744,54 6.488,53.902 6.293,53.707 C5.902,53.316 5.902,52.684 6.293,52.293 L27.173,31.413 C27.564,31.023 28.197,31.023 28.587,31.413 C28.978,31.804 28.978,32.437 28.587,32.827 L7.707,53.707 C7.512,53.902 7.256,54 7,54" id="Fill-564" fill="#7383BF" sketch:type="MSShapeGroup"></path>
                <path d="M30,28 C29.448,28 29,27.553 29,27 C29,14.869 19.131,5 7,5 C6.448,5 6,4.553 6,4 C6,3.447 6.448,3 7,3 C20.233,3 31,13.767 31,27 C31,27.553 30.552,28 30,28" id="Fill-565" fill="#25B99A" sketch:type="MSShapeGroup"></path>
                <path d="M53,57 C45.077,57 37.672,53.099 33.192,46.563 C32.879,46.108 32.996,45.485 33.451,45.173 C33.908,44.862 34.529,44.979 34.841,45.433 C38.949,51.424 45.737,55 53,55 C53.553,55 54,55.447 54,56 C54,56.553 53.553,57 53,57" id="Fill-566" fill="#25B99A" sketch:type="MSShapeGroup"></path>
                <path d="M1,53 L7,53 L7,59 L1,59 L1,53 Z" id="Fill-929" fill="#434C6D" sketch:type="MSShapeGroup"></path>
                <path d="M0,52 L8,52 L8,60 L0,60 L0,52 Z M2,58 L6,58 L6,54 L2,54 L2,58 Z" id="Fill-930" fill="#434C6D" sketch:type="MSShapeGroup"></path>
                <path d="M53,1 L59,1 L59,7 L53,7 L53,1 Z" id="Fill-931" fill="#434C6D" sketch:type="MSShapeGroup"></path>
                <path d="M52,0 L60,0 L60,8 L52,8 L52,0 Z M54,6 L58,6 L58,2 L54,2 L54,6 Z" id="Fill-932" fill="#434C6D" sketch:type="MSShapeGroup"></path>
                <path d="M33,30 C33,31.657 31.657,33 30,33 C28.343,33 27,31.657 27,30 C27,28.343 28.343,27 30,27 C31.657,27 33,28.343 33,30" id="Fill-933" fill="#25B99A" sketch:type="MSShapeGroup"></path>
                <path d="M30,34 C27.794,34 26,32.206 26,30 C26,27.794 27.794,26 30,26 C32.206,26 34,27.794 34,30 C34,32.206 32.206,34 30,34 L30,34 Z M30,28 C28.897,28 28,28.897 28,30 C28,31.103 28.897,32 30,32 C31.103,32 32,31.103 32,30 C32,28.897 31.103,28 30,28 L30,28 Z" id="Fill-934" fill="#25B99A" sketch:type="MSShapeGroup"></path>
                <path d="M59,56 C59,57.657 57.657,59 56,59 C54.343,59 53,57.657 53,56 C53,54.343 54.343,53 56,53 C57.657,53 59,54.343 59,56" id="Fill-935" fill="#25B99A" sketch:type="MSShapeGroup"></path>
                <path d="M56,60 C53.794,60 52,58.206 52,56 C52,53.794 53.794,52 56,52 C58.206,52 60,53.794 60,56 C60,58.206 58.206,60 56,60 L56,60 Z M56,54 C54.898,54 54,54.897 54,56 C54,57.103 54.898,58 56,58 C57.103,58 58,57.103 58,56 C58,54.897 57.103,54 56,54 L56,54 Z" id="Fill-936" fill="#25B99A" sketch:type="MSShapeGroup"></path>
                <path d="M7,4 C7,5.657 5.657,7 4,7 C2.343,7 1,5.657 1,4 C1,2.343 2.343,1 4,1 C5.657,1 7,2.343 7,4" id="Fill-937" fill="#25B99A" sketch:type="MSShapeGroup"></path>
                <path d="M4,8 C1.794,8 0,6.206 0,4 C0,1.794 1.794,0 4,0 C6.206,0 8,1.794 8,4 C8,6.206 6.206,8 4,8 L4,8 Z M4,2 C2.897,2 2,2.898 2,4 C2,5.103 2.897,6 4,6 C5.103,6 6,5.103 6,4 C6,2.898 5.103,2 4,2 L4,2 Z" id="Fill-938" fill="#25B99A" sketch:type="MSShapeGroup"></path>
            </g>
        </g>
    </g>
</svg>