<?xml version="1.0" encoding="UTF-8" standalone="no"?>
<svg width="38px" height="51px" viewBox="0 0 38 51" version="1.1" xmlns="http://www.w3.org/2000/svg" xmlns:xlink="http://www.w3.org/1999/xlink" xmlns:sketch="http://www.bohemiancoding.com/sketch/ns">
    <!-- Generator: Sketch 3.3.2 (12043) - http://www.bohemiancoding.com/sketch -->
    <title>47 - Edit Joint (Flat)</title>
    <desc>Created with Sketch.</desc>
    <defs></defs>
    <g id="Page-1" stroke="none" stroke-width="1" fill="none" fill-rule="evenodd" sketch:type="MSPage">
        <g id="Icons" sketch:type="MSArtboardGroup" transform="translate(-494.000000, -1322.000000)">
            <g id="47---Edit-Joint-(Flat)" sketch:type="MSLayerGroup" transform="translate(494.000000, 1322.000000)">
                <path d="M7.393,10.939 L8.305,6 L11.409,9.639 C12.383,8.727 13,7.44 13,6 C13,3.239 10.761,1 8,1 C5.239,1 3,3.239 3,6 C3,8.554 4.921,10.636 7.393,10.939" id="Fill-8" fill="#25B99A" sketch:type="MSShapeGroup"></path>
                <path d="M7.394,11.938 C7.353,11.938 7.312,11.937 7.272,11.931 C4.266,11.563 2,9.013 2,6 C2,2.691 4.691,0 8,0 C11.309,0 14,2.691 14,6 C14,7.665 13.323,9.217 12.094,10.369 C11.894,10.556 11.625,10.651 11.354,10.638 C11.081,10.623 10.826,10.496 10.649,10.289 L8.907,8.247 L8.377,11.12 C8.288,11.6 7.87,11.938 7.394,11.938 L7.394,11.938 Z M8,2 C5.794,2 4,3.794 4,6 C4,7.686 5.069,9.153 6.601,9.724 L7.322,5.818 C7.392,5.439 7.674,5.134 8.046,5.034 C8.418,4.933 8.815,5.057 9.066,5.351 L11.402,8.09 C11.792,7.467 12,6.75 12,6 C12,3.794 10.206,2 8,2 L8,2 Z" id="Fill-9" fill="#25B99A" sketch:type="MSShapeGroup"></path>
                <path d="M8.305,6 L0,50.971 L15.938,34.487 L37.983,40.793 L8.305,6" id="Fill-469" fill="#556080" sketch:type="MSShapeGroup"></path>
            </g>
        </g>
    </g>
</svg>