<?xml version="1.0" encoding="UTF-8" standalone="no"?>
<svg width="60px" height="60px" viewBox="0 0 60 60" version="1.1" xmlns="http://www.w3.org/2000/svg" xmlns:xlink="http://www.w3.org/1999/xlink" xmlns:sketch="http://www.bohemiancoding.com/sketch/ns">
    <!-- Generator: Sketch 3.3.2 (12043) - http://www.bohemiancoding.com/sketch -->
    <title>130 - Edit Bounding Box (Flat)</title>
    <desc>Created with Sketch.</desc>
    <defs></defs>
    <g id="Page-1" stroke="none" stroke-width="1" fill="none" fill-rule="evenodd" sketch:type="MSPage">
        <g id="Icons" sketch:type="MSArtboardGroup" transform="translate(-120.000000, -357.000000)">
            <g id="130---Edit-Bounding-Box-(Flat)" sketch:type="MSLayerGroup" transform="translate(120.000000, 357.000000)">
                <path d="M27,3 L7,3 C6.448,3 6,3.448 6,4 C6,4.552 6.448,5 7,5 L27,5 C27.552,5 28,4.552 28,4 C28,3.448 27.552,3 27,3" id="Fill-82" fill="#7383BF" sketch:type="MSShapeGroup"></path>
                <path d="M53,3 L33,3 C32.448,3 32,3.448 32,4 C32,4.552 32.448,5 33,5 L53,5 C53.552,5 54,4.552 54,4 C54,3.448 53.552,3 53,3" id="Fill-83" fill="#7383BF" sketch:type="MSShapeGroup"></path>
                <path d="M56,6 C55.448,6 55,6.448 55,7 L55,27 C55,27.552 55.448,28 56,28 C56.552,28 57,27.552 57,27 L57,7 C57,6.448 56.552,6 56,6" id="Fill-84" fill="#7383BF" sketch:type="MSShapeGroup"></path>
                <path d="M53,55 L33,55 C32.448,55 32,55.448 32,56 C32,56.552 32.448,57 33,57 L53,57 C53.552,57 54,56.552 54,56 C54,55.448 53.552,55 53,55" id="Fill-85" fill="#7383BF" sketch:type="MSShapeGroup"></path>
                <path d="M27,55 L7,55 C6.448,55 6,55.448 6,56 C6,56.552 6.448,57 7,57 L27,57 C27.552,57 28,56.552 28,56 C28,55.448 27.552,55 27,55" id="Fill-86" fill="#7383BF" sketch:type="MSShapeGroup"></path>
                <path d="M4,6 C3.448,6 3,6.448 3,7 L3,27 C3,27.552 3.448,28 4,28 C4.552,28 5,27.552 5,27 L5,7 C5,6.448 4.552,6 4,6" id="Fill-87" fill="#7383BF" sketch:type="MSShapeGroup"></path>
                <path d="M56,32 C55.448,32 55,32.448 55,33 L55,53 C55,53.552 55.448,54 56,54 C56.552,54 57,53.552 57,53 L57,33 C57,32.448 56.552,32 56,32" id="Fill-88" fill="#7383BF" sketch:type="MSShapeGroup"></path>
                <path d="M4,32 C3.448,32 3,32.448 3,33 L3,53 C3,53.552 3.448,54 4,54 C4.552,54 5,53.552 5,53 L5,33 C5,32.448 4.552,32 4,32" id="Fill-89" fill="#7383BF" sketch:type="MSShapeGroup"></path>
                <path d="M1,1 L7,1 L7,7 L1,7 L1,1 Z" id="Fill-166" fill="#434C6D" sketch:type="MSShapeGroup"></path>
                <path d="M0,0 L8,0 L8,8 L0,8 L0,0 Z M2,6 L6,6 L6,2 L2,2 L2,6 Z" id="Fill-167" fill="#434C6D" sketch:type="MSShapeGroup"></path>
                <path d="M1,27 L7,27 L7,33 L1,33 L1,27 Z" id="Fill-168" fill="#434C6D" sketch:type="MSShapeGroup"></path>
                <path d="M0,26 L8,26 L8,34 L0,34 L0,26 Z M2,32 L6,32 L6,28 L2,28 L2,32 Z" id="Fill-169" fill="#434C6D" sketch:type="MSShapeGroup"></path>
                <path d="M53,27 L59,27 L59,33 L53,33 L53,27 Z" id="Fill-170" fill="#434C6D" sketch:type="MSShapeGroup"></path>
                <path d="M52,26 L60,26 L60,34 L52,34 L52,26 Z M54,32 L58,32 L58,28 L54,28 L54,32 Z" id="Fill-171" fill="#434C6D" sketch:type="MSShapeGroup"></path>
                <path d="M27,53 L33,53 L33,59 L27,59 L27,53 Z" id="Fill-172" fill="#434C6D" sketch:type="MSShapeGroup"></path>
                <path d="M26,52 L34,52 L34,60 L26,60 L26,52 Z M28,58 L32,58 L32,54 L28,54 L28,58 Z" id="Fill-173" fill="#434C6D" sketch:type="MSShapeGroup"></path>
                <path d="M27,1 L33,1 L33,7 L27,7 L27,1 Z" id="Fill-174" fill="#434C6D" sketch:type="MSShapeGroup"></path>
                <path d="M26,0 L34,0 L34,8 L26,8 L26,0 Z M28,6 L32,6 L32,2 L28,2 L28,6 Z" id="Fill-175" fill="#434C6D" sketch:type="MSShapeGroup"></path>
                <path d="M1,53 L7,53 L7,59 L1,59 L1,53 Z" id="Fill-176" fill="#434C6D" sketch:type="MSShapeGroup"></path>
                <path d="M0,52 L8,52 L8,60 L0,60 L0,52 Z M2,58 L6,58 L6,54 L2,54 L2,58 Z" id="Fill-177" fill="#434C6D" sketch:type="MSShapeGroup"></path>
                <path d="M53,1 L59,1 L59,7 L53,7 L53,1 Z" id="Fill-178" fill="#434C6D" sketch:type="MSShapeGroup"></path>
                <path d="M52,0 L60,0 L60,8 L52,8 L52,0 Z M54,6 L58,6 L58,2 L54,2 L54,6 Z" id="Fill-179" fill="#434C6D" sketch:type="MSShapeGroup"></path>
                <path d="M53,53 L59,53 L59,59 L53,59 L53,53 Z" id="Fill-180" fill="#434C6D" sketch:type="MSShapeGroup"></path>
                <path d="M52,52 L60,52 L60,60 L52,60 L52,52 Z M54,58 L58,58 L58,54 L54,54 L54,58 Z" id="Fill-181" fill="#434C6D" sketch:type="MSShapeGroup"></path>
            </g>
        </g>
    </g>
</svg>