<?xml version="1.0" encoding="UTF-8" standalone="no"?>
<svg width="60px" height="60px" viewBox="0 0 60 60" version="1.1" xmlns="http://www.w3.org/2000/svg" xmlns:xlink="http://www.w3.org/1999/xlink" xmlns:sketch="http://www.bohemiancoding.com/sketch/ns">
    <!-- Generator: Sketch 3.3.2 (12043) - http://www.bohemiancoding.com/sketch -->
    <title>111 - Edit Top Left Corner (Flat)</title>
    <desc>Created with Sketch.</desc>
    <defs></defs>
    <g id="Page-1" stroke="none" stroke-width="1" fill="none" fill-rule="evenodd" sketch:type="MSPage">
        <g id="Icons" sketch:type="MSArtboardGroup" transform="translate(-1200.000000, -477.000000)">
            <g id="111---Edit-Top-Left-Corner-(Flat)" sketch:type="MSLayerGroup" transform="translate(1200.000000, 477.000000)">
                <path d="M44,53 C44,52.45 44.45,52 45,52 C45.55,52 46,52.45 46,53 C46,53.55 45.55,54 45,54 C44.45,54 44,53.55 44,53 L44,53 Z M40,53 C40,52.45 40.45,52 41,52 C41.55,52 42,52.45 42,53 C42,53.55 41.55,54 41,54 C40.45,54 40,53.55 40,53 L40,53 Z M36,53 C36,52.45 36.45,52 37,52 C37.55,52 38,52.45 38,53 C38,53.55 37.55,54 37,54 C36.45,54 36,53.55 36,53 L36,53 Z M32,53 C32,52.45 32.45,52 33,52 C33.55,52 34,52.45 34,53 C34,53.55 33.55,54 33,54 C32.45,54 32,53.55 32,53 L32,53 Z M28,53 C28,52.45 28.45,52 29,52 C29.55,52 30,52.45 30,53 C30,53.55 29.55,54 29,54 C28.45,54 28,53.55 28,53 L28,53 Z M24,53 C24,52.45 24.45,52 25,52 C25.55,52 26,52.45 26,53 C26,53.55 25.55,54 25,54 C24.45,54 24,53.55 24,53 L24,53 Z M20,53 C20,52.45 20.45,52 21,52 C21.55,52 22,52.45 22,53 C22,53.55 21.55,54 21,54 C20.45,54 20,53.55 20,53 L20,53 Z M16,53 C16,52.45 16.45,52 17,52 C17.55,52 18,52.45 18,53 C18,53.55 17.55,54 17,54 C16.45,54 16,53.55 16,53 L16,53 Z M12,53 C12,52.45 12.45,52 13,52 C13.55,52 14,52.45 14,53 C14,53.55 13.55,54 13,54 C12.45,54 12,53.55 12,53 L12,53 Z M46,51 C46,50.45 46.45,50 47,50 C47.55,50 48,50.45 48,51 C48,51.55 47.55,52 47,52 C46.45,52 46,51.55 46,51 L46,51 Z M12,49 C12,48.45 12.45,48 13,48 C13.55,48 14,48.45 14,49 C14,49.55 13.55,50 13,50 C12.45,50 12,49.55 12,49 L12,49 Z M50,47 C50,46.45 50.45,46 51,46 C51.55,46 52,46.45 52,47 C52,47.55 51.55,48 51,48 C50.45,48 50,47.55 50,47 L50,47 Z M46,47 C46,46.45 46.45,46 47,46 C47.55,46 48,46.45 48,47 C48,47.55 47.55,48 47,48 C46.45,48 46,47.55 46,47 L46,47 Z M10,47 C10,46.45 10.45,46 11,46 C11.55,46 12,46.45 12,47 C12,47.55 11.55,48 11,48 C10.45,48 10,47.55 10,47 L10,47 Z M6,47 C6,46.45 6.45,46 7,46 C7.55,46 8,46.45 8,47 C8,47.55 7.55,48 7,48 C6.45,48 6,47.55 6,47 L6,47 Z M52,45 C52,44.45 52.45,44 53,44 C53.55,44 54,44.45 54,45 C54,45.55 53.55,46 53,46 C52.45,46 52,45.55 52,45 L52,45 Z M6,43 C6,42.45 6.45,42 7,42 C7.55,42 8,42.45 8,43 C8,43.55 7.55,44 7,44 C6.45,44 6,43.55 6,43 L6,43 Z M52,41 C52,40.45 52.45,40 53,40 C53.55,40 54,40.45 54,41 C54,41.55 53.55,42 53,42 C52.45,42 52,41.55 52,41 L52,41 Z M6,39 C6,38.45 6.45,38 7,38 C7.55,38 8,38.45 8,39 C8,39.55 7.55,40 7,40 C6.45,40 6,39.55 6,39 L6,39 Z M52,37 C52,36.45 52.45,36 53,36 C53.55,36 54,36.45 54,37 C54,37.55 53.55,38 53,38 C52.45,38 52,37.55 52,37 L52,37 Z M6,35 C6,34.45 6.45,34 7,34 C7.55,34 8,34.45 8,35 C8,35.55 7.55,36 7,36 C6.45,36 6,35.55 6,35 L6,35 Z M52,33 C52,32.45 52.45,32 53,32 C53.55,32 54,32.45 54,33 C54,33.55 53.55,34 53,34 C52.45,34 52,33.55 52,33 L52,33 Z M6,31 C6,30.45 6.45,30 7,30 C7.55,30 8,30.45 8,31 C8,31.55 7.55,32 7,32 C6.45,32 6,31.55 6,31 L6,31 Z M52,29 C52,28.45 52.45,28 53,28 C53.55,28 54,28.45 54,29 C54,29.55 53.55,30 53,30 C52.45,30 52,29.55 52,29 L52,29 Z M6,27 C6,26.45 6.45,26 7,26 C7.55,26 8,26.45 8,27 C8,27.55 7.55,28 7,28 C6.45,28 6,27.55 6,27 L6,27 Z M52,25 C52,24.45 52.45,24 53,24 C53.55,24 54,24.45 54,25 C54,25.55 53.55,26 53,26 C52.45,26 52,25.55 52,25 L52,25 Z M6,23 C6,22.45 6.45,22 7,22 C7.55,22 8,22.45 8,23 C8,23.55 7.55,24 7,24 C6.45,24 6,23.55 6,23 L6,23 Z M52,21 C52,20.45 52.45,20 53,20 C53.55,20 54,20.45 54,21 C54,21.55 53.55,22 53,22 C52.45,22 52,21.55 52,21 L52,21 Z M6,19 C6,18.45 6.45,18 7,18 C7.55,18 8,18.45 8,19 C8,19.55 7.55,20 7,20 C6.45,20 6,19.55 6,19 L6,19 Z M52,17 C52,16.45 52.45,16 53,16 C53.55,16 54,16.45 54,17 C54,17.55 53.55,18 53,18 C52.45,18 52,17.55 52,17 L52,17 Z M6,15 C6,14.45 6.45,14 7,14 C7.55,14 8,14.45 8,15 C8,15.55 7.55,16 7,16 C6.45,16 6,15.55 6,15 L6,15 Z M52,13 C52,12.45 52.45,12 53,12 C53.55,12 54,12.45 54,13 C54,13.55 53.55,14 53,14 C52.45,14 52,13.55 52,13 L52,13 Z M48,13 C48,12.45 48.45,12 49,12 C49.55,12 50,12.45 50,13 C50,13.55 49.55,14 49,14 C48.45,14 48,13.55 48,13 L48,13 Z M13,14 C12.46,14 12.03,13.58 12,13.05 L12,13 C12,12.45 12.45,12 13,12 C13.55,12 14,12.45 14,13 C14,13.55 13.55,14 13,14 L13,14 Z M8,13 C8,12.45 8.45,12 9,12 C9.55,12 10,12.45 10,13 C10,13.55 9.55,14 9,14 C8.45,14 8,13.55 8,13 L8,13 Z M46,11 C46,10.45 46.45,10 47,10 C47.55,10 48,10.45 48,11 C48,11.55 47.55,12 47,12 C46.45,12 46,11.55 46,11 L46,11 Z M12,9 C12,8.45 12.45,8 13,8 C13.55,8 14,8.45 14,9 C14,9.55 13.55,10 13,10 C12.45,10 12,9.55 12,9 L12,9 Z M46,7 C46,6.45 46.45,6 47,6 C47.55,6 48,6.45 48,7 C48,7.55 47.55,8 47,8 C46.45,8 46,7.55 46,7 L46,7 Z M42,7 C42,6.45 42.45,6 43,6 C43.55,6 44,6.45 44,7 C44,7.55 43.55,8 43,8 C42.45,8 42,7.55 42,7 L42,7 Z M38,7 C38,6.45 38.45,6 39,6 C39.55,6 40,6.45 40,7 C40,7.55 39.55,8 39,8 C38.45,8 38,7.55 38,7 L38,7 Z M34,7 C34,6.45 34.45,6 35,6 C35.55,6 36,6.45 36,7 C36,7.55 35.55,8 35,8 C34.45,8 34,7.55 34,7 L34,7 Z M30,7 C30,6.45 30.45,6 31,6 C31.55,6 32,6.45 32,7 C32,7.55 31.55,8 31,8 C30.45,8 30,7.55 30,7 L30,7 Z M26,7 C26,6.45 26.45,6 27,6 C27.55,6 28,6.45 28,7 C28,7.55 27.55,8 27,8 C26.45,8 26,7.55 26,7 L26,7 Z M22,7 C22,6.45 22.45,6 23,6 C23.55,6 24,6.45 24,7 C24,7.55 23.55,8 23,8 C22.45,8 22,7.55 22,7 L22,7 Z M18,7 C18,6.45 18.45,6 19,6 C19.55,6 20,6.45 20,7 C20,7.55 19.55,8 19,8 C18.45,8 18,7.55 18,7 L18,7 Z M14,7 C14,6.45 14.45,6 15,6 C15.55,6 16,6.45 16,7 C16,7.55 15.55,8 15,8 C14.45,8 14,7.55 14,7 L14,7 Z" id="Fill-59" fill="#556080" sketch:type="MSShapeGroup"></path>
                <path d="M47,1 L59,1 L59,13 L47,13 L47,1 Z" id="Fill-334" fill="#434C6D" sketch:type="MSShapeGroup"></path>
                <path d="M46,0 L60,0 L60,14 L46,14 L46,0 Z M48,12 L58,12 L58,2 L48,2 L48,12 Z" id="Fill-335" fill="#434C6D" sketch:type="MSShapeGroup"></path>
                <path d="M1,1 L13,1 L13,13 L1,13 L1,1 Z" id="Fill-336" fill="#25B99A" sketch:type="MSShapeGroup"></path>
                <path d="M0,0 L14,0 L14,14 L0,14 L0,0 Z M2,12 L12,12 L12,2 L2,2 L2,12 Z" id="Fill-337" fill="#25B99A" sketch:type="MSShapeGroup"></path>
                <path d="M47,47 L59,47 L59,59 L47,59 L47,47 Z" id="Fill-338" fill="#434C6D" sketch:type="MSShapeGroup"></path>
                <path d="M46,46 L60,46 L60,60 L46,60 L46,46 Z M48,58 L58,58 L58,48 L48,48 L48,58 Z" id="Fill-339" fill="#434C6D" sketch:type="MSShapeGroup"></path>
                <path d="M1,47 L13,47 L13,59 L1,59 L1,47 Z" id="Fill-340" fill="#434C6D" sketch:type="MSShapeGroup"></path>
                <path d="M0,46 L14,46 L14,60 L0,60 L0,46 Z M2,58 L12,58 L12,48 L2,48 L2,58 Z" id="Fill-341" fill="#434C6D" sketch:type="MSShapeGroup"></path>
            </g>
        </g>
    </g>
</svg>