<?xml version="1.0" encoding="UTF-8" standalone="no"?>
<svg width="57px" height="57px" viewBox="0 0 57 57" version="1.1" xmlns="http://www.w3.org/2000/svg" xmlns:xlink="http://www.w3.org/1999/xlink" xmlns:sketch="http://www.bohemiancoding.com/sketch/ns">
    <!-- Generator: Sketch 3.3.2 (12043) - http://www.bohemiancoding.com/sketch -->
    <title>2 - Empty Eyedropper (Flat)</title>
    <desc>Created with Sketch.</desc>
    <defs></defs>
    <g id="Page-1" stroke="none" stroke-width="1" fill="none" fill-rule="evenodd" sketch:type="MSPage">
        <g id="Icons" sketch:type="MSArtboardGroup" transform="translate(-1082.000000, -1798.000000)">
            <g id="2---Empty-Eyedropper-(Flat)" sketch:type="MSLayerGroup" transform="translate(1082.000000, 1797.000000)">
                <path d="M42.537,23.989 L34.052,15.504 L12.244,37.313 C10.794,38.762 9.722,40.546 9.123,42.507 L9.099,42.585 C8.5,44.546 7.428,46.329 5.978,47.779 L2.272,51.485 L6.515,55.728 L10.182,52.06 C11.657,50.586 13.476,49.503 15.475,48.91 C17.474,48.317 19.293,47.234 20.767,45.759 L42.537,23.989" id="Fill-842" fill="#7383BF" sketch:type="MSShapeGroup"></path>
                <path d="M6.515,57.142 L0.858,51.485 L5.272,47.072 C6.602,45.741 7.594,44.089 8.143,42.293 C8.811,40.106 9.976,38.167 11.537,36.605 L34.052,14.09 L43.951,23.989 L21.475,46.467 C19.887,48.054 17.911,49.229 15.76,49.869 C13.925,50.413 12.241,51.415 10.89,52.768 L6.515,57.142 L6.515,57.142 Z M3.687,51.485 L6.515,54.313 L9.476,51.354 C11.062,49.767 13.038,48.59 15.19,47.951 C17.023,47.407 18.708,46.404 20.061,45.053 L41.123,23.989 L34.052,16.918 L12.951,38.02 C11.621,39.35 10.628,41.003 10.079,42.799 C9.411,44.984 8.246,46.925 6.686,48.486 L3.687,51.485 L3.687,51.485 Z" id="Fill-843" fill="#556080" sketch:type="MSShapeGroup"></path>
                <path d="M22.101,33.899 C21.845,33.899 21.589,33.802 21.394,33.607 C21.003,33.216 21.003,32.583 21.394,32.192 L31.293,22.293 C31.684,21.902 32.316,21.902 32.707,22.293 C33.098,22.684 33.098,23.316 32.707,23.707 L22.808,33.607 C22.612,33.802 22.356,33.899 22.101,33.899" id="Fill-844" fill="#7FABDA" sketch:type="MSShapeGroup"></path>
                <path d="M19.707,35.293 C20.098,35.683 20.098,36.317 19.707,36.707 C19.317,37.098 18.683,37.098 18.293,36.707 C17.902,36.317 17.902,35.683 18.293,35.293 C18.683,34.902 19.317,34.902 19.707,35.293" id="Fill-845" fill="#7FABDA" sketch:type="MSShapeGroup"></path>
                <path d="M50.288,14.825 L55.417,9.696 C57.26,7.852 57.576,4.859 55.927,2.839 C54.035,0.521 50.576,0.394 48.512,2.458 L43.217,7.754 C41.67,9.301 39.162,9.301 37.616,7.754 L37.034,7.172 C36.559,6.697 35.788,6.697 35.313,7.172 L31.377,11.108 C30.902,11.583 30.902,12.354 31.377,12.829 L45.212,26.664 C45.688,27.14 46.458,27.14 46.934,26.664 L50.869,22.729 C51.344,22.253 51.344,21.483 50.869,21.007 L50.288,20.426 C48.741,18.879 48.741,16.372 50.288,14.825" id="Fill-979" fill="#434C6D" sketch:type="MSShapeGroup"></path>
            </g>
        </g>
    </g>
</svg>