<?xml version="1.0" encoding="UTF-8" standalone="no"?>
<svg width="59px" height="59px" viewBox="0 0 59 59" version="1.1" xmlns="http://www.w3.org/2000/svg" xmlns:xlink="http://www.w3.org/1999/xlink" xmlns:sketch="http://www.bohemiancoding.com/sketch/ns">
    <!-- Generator: Sketch 3.3.2 (12043) - http://www.bohemiancoding.com/sketch -->
    <title>65 - Flatten (Flat)</title>
    <desc>Created with Sketch.</desc>
    <defs></defs>
    <g id="Page-1" stroke="none" stroke-width="1" fill="none" fill-rule="evenodd" sketch:type="MSPage">
        <g id="Icons" sketch:type="MSArtboardGroup" transform="translate(-721.000000, -1078.000000)">
            <g id="65---Flatten-(Flat)" sketch:type="MSLayerGroup" transform="translate(721.000000, 1078.000000)">
                <path d="M45,36.5 C45,48.926 34.926,59 22.5,59 C10.074,59 0,48.926 0,36.5 C0,24.074 10.074,14 22.5,14 C34.926,14 45,24.074 45,36.5" id="Fill-915" fill="#3083C9" sketch:type="MSShapeGroup"></path>
                <path d="M59,22.5 C59,34.926 48.926,45 36.5,45 C24.074,45 14,34.926 14,22.5 C14,10.074 24.074,0 36.5,0 C48.926,0 59,10.074 59,22.5" id="Fill-916" fill="#3083C9" sketch:type="MSShapeGroup"></path>
                <path d="M19.621,37.37 L5.94,51.052 C5.825,51.166 5.752,51.303 5.682,51.44 C9.803,56.076 15.809,59 22.5,59 C32.375,59 40.758,52.635 43.787,43.787 C41.501,44.569 39.051,45 36.5,45 C29.776,45 23.744,42.046 19.621,37.37" id="Fill-917" fill="#25B99A" sketch:type="MSShapeGroup"></path>
                <path d="M51.44,5.682 C51.303,5.752 51.166,5.825 51.052,5.94 L37.37,19.621 C42.046,23.744 45,29.776 45,36.5 C45,39.051 44.569,41.501 43.787,43.787 C52.635,40.758 59,32.375 59,22.5 C59,15.809 56.076,9.803 51.44,5.682" id="Fill-918" fill="#25B99A" sketch:type="MSShapeGroup"></path>
                <path d="M37.37,19.621 L19.621,37.37 C23.744,42.046 29.776,45 36.5,45 C39.051,45 41.501,44.569 43.787,43.787 C44.569,41.501 45,39.051 45,36.5 C45,29.776 42.046,23.744 37.37,19.621" id="Fill-919" fill="#1D9377" sketch:type="MSShapeGroup"></path>
                <path d="M36.5,0 C26.625,0 18.242,6.365 15.213,15.213 C17.499,14.431 19.949,14 22.5,14 C28.202,14 33.405,16.125 37.37,19.621 L51.052,5.94 C51.165,5.826 51.3,5.753 51.436,5.684 C47.463,2.151 42.235,0 36.5,0" id="Fill-920" fill="#7383BF" sketch:type="MSShapeGroup"></path>
                <path d="M37.37,19.621 C33.405,16.125 28.202,14 22.5,14 C19.949,14 17.499,14.431 15.213,15.213 C14.431,17.499 14,19.949 14,22.5 C14,28.202 16.125,33.405 19.621,37.37 L37.37,19.621" id="Fill-921" fill="#556080" sketch:type="MSShapeGroup"></path>
                <path d="M19.621,37.37 C16.125,33.405 14,28.202 14,22.5 C14,19.949 14.431,17.499 15.213,15.213 C6.365,18.242 0,26.625 0,36.5 C0,42.235 2.151,47.463 5.684,51.436 C5.753,51.3 5.826,51.165 5.94,51.052 L19.621,37.37" id="Fill-922" fill="#7383BF" sketch:type="MSShapeGroup"></path>
            </g>
        </g>
    </g>
</svg>