<?xml version="1.0" encoding="UTF-8" standalone="no"?>
<svg width="59px" height="59px" viewBox="0 0 59 59" version="1.1" xmlns="http://www.w3.org/2000/svg" xmlns:xlink="http://www.w3.org/1999/xlink" xmlns:sketch="http://www.bohemiancoding.com/sketch/ns">
    <!-- Generator: Sketch 3.3.2 (12043) - http://www.bohemiancoding.com/sketch -->
    <title>102 - Foreground (Flat)</title>
    <desc>Created with Sketch.</desc>
    <defs></defs>
    <g id="Page-1" stroke="none" stroke-width="1" fill="none" fill-rule="evenodd" sketch:type="MSPage">
        <g id="Icons" sketch:type="MSArtboardGroup" transform="translate(-1080.000000, -597.000000)">
            <g id="102---Foreground-(Flat)" sketch:type="MSLayerGroup" transform="translate(1080.000000, 597.000000)">
                <path d="M55.19,13 L47,13 L47,43.19 C47,45.294 45.294,47 43.19,47 L13,47 L13,55.19 C13,57.294 14.706,59 16.81,59 L55.19,59 C57.294,59 59,57.294 59,55.19 L59,16.81 C59,14.706 57.294,13 55.19,13" id="Fill-351" fill="#556080" sketch:type="MSShapeGroup"></path>
                <path d="M43.19,47 L4.81,47 C2.706,47 1,45.294 1,43.19 L1,4.81 C1,2.706 2.706,1 4.81,1 L43.19,1 C45.294,1 47,2.706 47,4.81 L47,43.19 C47,45.294 45.294,47 43.19,47" id="Fill-870" fill="#25B99A" sketch:type="MSShapeGroup"></path>
                <path d="M43.19,48 L4.81,48 C2.157,48 0,45.842 0,43.19 L0,4.81 C0,2.158 2.157,0 4.81,0 L43.19,0 C45.843,0 48,2.158 48,4.81 L48,43.19 C48,45.842 45.843,48 43.19,48 L43.19,48 Z M4.81,2 C3.261,2 2,3.261 2,4.81 L2,43.19 C2,44.739 3.261,46 4.81,46 L43.19,46 C44.739,46 46,44.739 46,43.19 L46,4.81 C46,3.261 44.739,2 43.19,2 L4.81,2 L4.81,2 Z" id="Fill-871" fill="#25B99A" sketch:type="MSShapeGroup"></path>
            </g>
        </g>
    </g>
</svg>