<?xml version="1.0" encoding="UTF-8" standalone="no"?>
<svg width="57px" height="59px" viewBox="0 0 57 59" version="1.1" xmlns="http://www.w3.org/2000/svg" xmlns:xlink="http://www.w3.org/1999/xlink" xmlns:sketch="http://www.bohemiancoding.com/sketch/ns">
    <!-- Generator: Sketch 3.3.2 (12043) - http://www.bohemiancoding.com/sketch -->
    <title>49 - Free Distort (Flat)</title>
    <desc>Created with Sketch.</desc>
    <defs></defs>
    <g id="Page-1" stroke="none" stroke-width="1" fill="none" fill-rule="evenodd" sketch:type="MSPage">
        <g id="Icons" sketch:type="MSArtboardGroup" transform="translate(-242.000000, -1318.000000)">
            <g id="49---Free-Distort-(Flat)" sketch:type="MSLayerGroup" transform="translate(242.000000, 1318.000000)">
                <path d="M8.12,54.262 L7.932,53.375 C7.641,51.999 6.408,51 5,51 L3.898,51 L8.093,8 L9,8 C10.408,8 11.641,7.001 11.932,5.625 L12.156,4.57 L39.261,12.468 L39.067,13.376 C39.022,13.587 39,13.797 39,14 C39,15.654 40.346,17 42,17 L42.687,17 L53.456,45 L52,45 C50.346,45 49,46.346 49,48 C49,48.203 49.022,48.413 49.067,48.624 L49.297,49.704 L8.12,54.262 L8.12,54.262 Z M6.09,49.122 C7.665,49.479 8.992,50.588 9.616,52.084 L47.001,47.946 C47.024,45.691 48.548,43.79 50.619,43.194 L41.294,18.95 C38.87,18.606 37,16.518 37,14 C37,13.964 37,13.929 37.001,13.893 L13.553,7.061 C12.881,8.537 11.515,9.613 9.915,9.914 L6.09,49.122 L6.09,49.122 Z" id="Fill-11" fill="#7383BF" sketch:type="MSShapeGroup"></path>
                <path d="M13,5 C13,7.209 11.209,9 9,9 C6.791,9 5,7.209 5,5 C5,2.791 6.791,1 9,1 C11.209,1 13,2.791 13,5" id="Fill-545" fill="#434C6D" sketch:type="MSShapeGroup"></path>
                <path d="M9,10 C6.243,10 4,7.757 4,5 C4,2.243 6.243,0 9,0 C11.757,0 14,2.243 14,5 C14,7.757 11.757,10 9,10 L9,10 Z M9,2 C7.346,2 6,3.346 6,5 C6,6.654 7.346,8 9,8 C10.654,8 12,6.654 12,5 C12,3.346 10.654,2 9,2 L9,2 Z" id="Fill-546" fill="#434C6D" sketch:type="MSShapeGroup"></path>
                <path d="M9,54 C9,56.209 7.209,58 5,58 C2.791,58 1,56.209 1,54 C1,51.791 2.791,50 5,50 C7.209,50 9,51.791 9,54" id="Fill-547" fill="#434C6D" sketch:type="MSShapeGroup"></path>
                <path d="M5,59 C2.243,59 0,56.757 0,54 C0,51.243 2.243,49 5,49 C7.757,49 10,51.243 10,54 C10,56.757 7.757,59 5,59 L5,59 Z M5,51 C3.346,51 2,52.346 2,54 C2,55.654 3.346,57 5,57 C6.654,57 8,55.654 8,54 C8,52.346 6.654,51 5,51 L5,51 Z" id="Fill-548" fill="#434C6D" sketch:type="MSShapeGroup"></path>
                <path d="M56,48 C56,50.209 54.209,52 52,52 C49.791,52 48,50.209 48,48 C48,45.791 49.791,44 52,44 C54.209,44 56,45.791 56,48" id="Fill-549" fill="#434C6D" sketch:type="MSShapeGroup"></path>
                <path d="M52,53 C49.243,53 47,50.757 47,48 C47,45.243 49.243,43 52,43 C54.757,43 57,45.243 57,48 C57,50.757 54.757,53 52,53 L52,53 Z M52,45 C50.346,45 49,46.346 49,48 C49,49.654 50.346,51 52,51 C53.654,51 55,49.654 55,48 C55,46.346 53.654,45 52,45 L52,45 Z" id="Fill-550" fill="#434C6D" sketch:type="MSShapeGroup"></path>
                <path d="M46,14 C46,16.209 44.209,18 42,18 C39.791,18 38,16.209 38,14 C38,11.791 39.791,10 42,10 C44.209,10 46,11.791 46,14" id="Fill-551" fill="#25B99A" sketch:type="MSShapeGroup"></path>
                <path d="M42,19 C39.243,19 37,16.757 37,14 C37,11.243 39.243,9 42,9 C44.757,9 47,11.243 47,14 C47,16.757 44.757,19 42,19 L42,19 Z M42,11 C40.346,11 39,12.346 39,14 C39,15.654 40.346,17 42,17 C43.654,17 45,15.654 45,14 C45,12.346 43.654,11 42,11 L42,11 Z" id="Fill-552" fill="#25B99A" sketch:type="MSShapeGroup"></path>
            </g>
        </g>
    </g>
</svg>