<?xml version="1.0" encoding="UTF-8" standalone="no"?>
<svg width="58px" height="60px" viewBox="0 0 58 60" version="1.1" xmlns="http://www.w3.org/2000/svg" xmlns:xlink="http://www.w3.org/1999/xlink" xmlns:sketch="http://www.bohemiancoding.com/sketch/ns">
    <!-- Generator: Sketch 3.3.2 (12043) - http://www.bohemiancoding.com/sketch -->
    <title>76 - Group Selection Tool (Flat)</title>
    <desc>Created with Sketch.</desc>
    <defs></defs>
    <g id="Page-1" stroke="none" stroke-width="1" fill="none" fill-rule="evenodd" sketch:type="MSPage">
        <g id="Icons" sketch:type="MSArtboardGroup" transform="translate(-601.000000, -957.000000)">
            <g id="76---Group-Selection-Tool-(Flat)" sketch:type="MSLayerGroup" transform="translate(601.000000, 957.000000)">
                <path d="M58,49 C58,54.523 53.523,59 48,59 C42.477,59 38,54.523 38,49 C38,43.477 42.477,39 48,39 C53.523,39 58,43.477 58,49" id="Fill-460" fill="#25B99A" sketch:type="MSShapeGroup"></path>
                <path d="M48,56 C47.447,56 47,55.553 47,55 L47,43 C47,42.447 47.447,42 48,42 C48.553,42 49,42.447 49,43 L49,55 C49,55.553 48.553,56 48,56" id="Fill-461" fill="#FFFFFF" sketch:type="MSShapeGroup"></path>
                <path d="M54,50 L42,50 C41.448,50 41,49.553 41,49 C41,48.447 41.448,48 42,48 L54,48 C54.553,48 55,48.447 55,49 C55,49.553 54.553,50 54,50" id="Fill-462" fill="#FFFFFF" sketch:type="MSShapeGroup"></path>
                <path d="M39.744,35.644 L10.066,0.85 C9.815,0.557 9.417,0.433 9.046,0.533 C8.674,0.633 8.392,0.938 8.322,1.317 L0.017,46.289 C-0.063,46.723 0.15,47.158 0.542,47.359 C0.687,47.435 0.844,47.471 1,47.471 C1.265,47.471 1.526,47.365 1.719,47.166 L16.429,31.951 L23.722,59.165 C23.841,59.612 24.245,59.906 24.687,59.906 C24.773,59.906 24.86,59.896 24.946,59.872 C25.48,59.73 25.796,59.181 25.653,58.648 L18.361,31.433 L38.708,37.255 C39.131,37.373 39.585,37.204 39.824,36.834 C40.063,36.463 40.03,35.98 39.744,35.644" id="Fill-472" fill="#434C6D" sketch:type="MSShapeGroup"></path>
            </g>
        </g>
    </g>
</svg>