<?xml version="1.0" encoding="UTF-8" standalone="no"?>
<svg width="60px" height="60px" viewBox="0 0 60 60" version="1.1" xmlns="http://www.w3.org/2000/svg" xmlns:xlink="http://www.w3.org/1999/xlink" xmlns:sketch="http://www.bohemiancoding.com/sketch/ns">
    <!-- Generator: Sketch 3.3.2 (12043) - http://www.bohemiancoding.com/sketch -->
    <title>72 - Group (Flat)</title>
    <desc>Created with Sketch.</desc>
    <defs></defs>
    <g id="Page-1" stroke="none" stroke-width="1" fill="none" fill-rule="evenodd" sketch:type="MSPage">
        <g id="Icons" sketch:type="MSArtboardGroup" transform="translate(-1080.000000, -957.000000)">
            <g id="72---Group-(Flat)" sketch:type="MSLayerGroup" transform="translate(1080.000000, 957.000000)">
                <path d="M13,14 L35,14 L35,36 L13,36 L13,14 Z" id="Fill-138" fill="#556080" sketch:type="MSShapeGroup"></path>
                <path d="M54,57 L6,57 L6,54 L3,54 L3,6 L6,6 L6,3 L54,3 L54,6 L57,6 L57,54 L54,54 L54,57 L54,57 Z M8,55 L52,55 L52,52 L55,52 L55,8 L52,8 L52,5 L8,5 L8,8 L5,8 L5,52 L8,52 L8,55 L8,55 Z" id="Fill-455" fill="#7383BF" sketch:type="MSShapeGroup"></path>
                <path d="M35,25 L35,36 L24,36 L24,47 L46,47 L46,25 L35,25" id="Fill-456" fill="#7383BF" sketch:type="MSShapeGroup"></path>
                <path d="M1,1 L7,1 L7,7 L1,7 L1,1 Z" id="Fill-901" fill="#556080" sketch:type="MSShapeGroup"></path>
                <path d="M0,0 L8,0 L8,8 L0,8 L0,0 Z M2,6 L6,6 L6,2 L2,2 L2,6 Z" id="Fill-902" fill="#556080" sketch:type="MSShapeGroup"></path>
                <path d="M53,1 L59,1 L59,7 L53,7 L53,1 Z" id="Fill-903" fill="#556080" sketch:type="MSShapeGroup"></path>
                <path d="M52,0 L60,0 L60,8 L52,8 L52,0 Z M54,6 L58,6 L58,2 L54,2 L54,6 Z" id="Fill-904" fill="#556080" sketch:type="MSShapeGroup"></path>
                <path d="M1,53 L7,53 L7,59 L1,59 L1,53 Z" id="Fill-905" fill="#556080" sketch:type="MSShapeGroup"></path>
                <path d="M0,52 L8,52 L8,60 L0,60 L0,52 Z M2,58 L6,58 L6,54 L2,54 L2,58 Z" id="Fill-906" fill="#556080" sketch:type="MSShapeGroup"></path>
                <path d="M53,53 L59,53 L59,59 L53,59 L53,53 Z" id="Fill-907" fill="#556080" sketch:type="MSShapeGroup"></path>
                <path d="M52,52 L60,52 L60,60 L52,60 L52,52 Z M54,58 L58,58 L58,54 L54,54 L54,58 Z" id="Fill-908" fill="#556080" sketch:type="MSShapeGroup"></path>
            </g>
        </g>
    </g>
</svg>