<?xml version="1.0" encoding="UTF-8" standalone="no"?>
<svg width="50px" height="60px" viewBox="0 0 50 60" version="1.1" xmlns="http://www.w3.org/2000/svg" xmlns:xlink="http://www.w3.org/1999/xlink" xmlns:sketch="http://www.bohemiancoding.com/sketch/ns">
    <!-- Generator: Sketch 3.3.2 (12043) - http://www.bohemiancoding.com/sketch -->
    <title>90 - Horizontal Align Left (Flat)</title>
    <desc>Created with Sketch.</desc>
    <defs></defs>
    <g id="Page-1" stroke="none" stroke-width="1" fill="none" fill-rule="evenodd" sketch:type="MSPage">
        <g id="Icons" sketch:type="MSArtboardGroup" transform="translate(-125.000000, -837.000000)">
            <g id="90---Horizontal-Align-Left-(Flat)" sketch:type="MSLayerGroup" transform="translate(125.000000, 837.000000)">
                <path d="M37.542,26 L8.459,26 C7.101,26 6,24.899 6,23.542 L6,8.458 C6,7.101 7.101,6 8.459,6 L37.542,6 C38.899,6 40,7.101 40,8.458 L40,23.542 C40,24.899 38.899,26 37.542,26" id="Fill-355" fill="#25B99A" sketch:type="MSShapeGroup"></path>
                <path d="M47.542,54 L8.459,54 C7.101,54 6,52.899 6,51.542 L6,36.459 C6,35.101 7.101,34 8.459,34 L47.542,34 C48.899,34 50,35.101 50,36.459 L50,51.542 C50,52.899 48.899,54 47.542,54" id="Fill-356" fill="#7383BF" sketch:type="MSShapeGroup"></path>
                <path d="M1,60 C0.448,60 0,59.552 0,59 L0,1 C0,0.448 0.448,0 1,0 C1.552,0 2,0.448 2,1 L2,59 C2,59.552 1.552,60 1,60" id="Fill-357" fill="#556080" sketch:type="MSShapeGroup"></path>
            </g>
        </g>
    </g>
</svg>