<?xml version="1.0" encoding="UTF-8" standalone="no"?>
<svg width="48px" height="60px" viewBox="0 0 48 60" version="1.1" xmlns="http://www.w3.org/2000/svg" xmlns:xlink="http://www.w3.org/1999/xlink" xmlns:sketch="http://www.bohemiancoding.com/sketch/ns">
    <!-- Generator: Sketch 3.3.2 (12043) - http://www.bohemiancoding.com/sketch -->
    <title>80 - Horizontal Distribute Center (Flat)</title>
    <desc>Created with Sketch.</desc>
    <defs></defs>
    <g id="Page-1" stroke="none" stroke-width="1" fill="none" fill-rule="evenodd" sketch:type="MSPage">
        <g id="Icons" sketch:type="MSArtboardGroup" transform="translate(-126.000000, -957.000000)">
            <g id="80---Horizontal-Distribute-Center-(Flat)" sketch:type="MSLayerGroup" transform="translate(126.000000, 957.000000)">
                <path d="M38,60 C37.448,60 37,59.553 37,59 L37,47 C37,46.447 37.448,46 38,46 C38.552,46 39,46.447 39,47 L39,59 C39,59.553 38.552,60 38,60" id="Fill-395" fill="#556080" sketch:type="MSShapeGroup"></path>
                <path d="M10,60 C9.448,60 9,59.553 9,59 L9,47 C9,46.447 9.448,46 10,46 C10.552,46 11,46.447 11,47 L11,59 C11,59.553 10.552,60 10,60" id="Fill-396" fill="#556080" sketch:type="MSShapeGroup"></path>
                <path d="M38,14 C37.448,14 37,13.553 37,13 L37,1 C37,0.447 37.448,0 38,0 C38.552,0 39,0.447 39,1 L39,13 C39,13.553 38.552,14 38,14" id="Fill-397" fill="#556080" sketch:type="MSShapeGroup"></path>
                <path d="M10,14 C9.448,14 9,13.553 9,13 L9,1 C9,0.447 9.448,0 10,0 C10.552,0 11,0.447 11,1 L11,13 C11,13.553 10.552,14 10,14" id="Fill-398" fill="#556080" sketch:type="MSShapeGroup"></path>
                <path d="M28,44.542 L28,15.459 C28,14.101 29.101,13 30.458,13 L45.542,13 C46.899,13 48,14.101 48,15.459 L48,44.542 C48,45.899 46.899,47 45.542,47 L30.458,47 C29.101,47 28,45.899 28,44.542" id="Fill-399" fill="#25B99A" sketch:type="MSShapeGroup"></path>
                <path d="M0,10.458 L0,49.542 C0,50.899 1.101,52 2.458,52 L17.542,52 C18.899,52 20,50.899 20,49.542 L20,10.458 C20,9.101 18.899,8 17.542,8 L2.458,8 C1.101,8 0,9.101 0,10.458" id="Fill-400" fill="#7383BF" sketch:type="MSShapeGroup"></path>
            </g>
        </g>
    </g>
</svg>