<?xml version="1.0" encoding="UTF-8" standalone="no"?>
<svg width="58px" height="54px" viewBox="0 0 58 54" version="1.1" xmlns="http://www.w3.org/2000/svg" xmlns:xlink="http://www.w3.org/1999/xlink" xmlns:sketch="http://www.bohemiancoding.com/sketch/ns">
    <!-- Generator: Sketch 3.3.2 (12043) - http://www.bohemiancoding.com/sketch -->
    <title>123 - Insert Rectangle (Flat)</title>
    <desc>Created with Sketch.</desc>
    <defs></defs>
    <g id="Page-1" stroke="none" stroke-width="1" fill="none" fill-rule="evenodd" sketch:type="MSPage">
        <g id="Icons" sketch:type="MSArtboardGroup" transform="translate(-961.000000, -360.000000)">
            <g id="123---Insert-Rectangle-(Flat)" sketch:type="MSLayerGroup" transform="translate(961.000000, 360.000000)">
                <path d="M32,20.89 L20.186,0.215 L0,35 L19.0078125,35.0014648 C20.7598125,28.6624648 26.103,25 33,25 L32,20.89 Z" id="Fill-235" fill="#434C6D" sketch:type="MSShapeGroup"></path>
                <path d="M32,24 C32.0377627,34.6395032 37.5368033,34.1736321 46.444,35 L58,35 L58,9 L32,9 L32,24 Z" id="Fill-234" fill="#25B99A" sketch:type="MSShapeGroup"></path>
                <path d="M47,39 C47,47.284 40.284,54 32,54 C23.716,54 17,47.284 17,39 C17,30.716 23.716,24 32,24 C40.284,24 47,30.716 47,39" id="Fill-233" fill="#556080" sketch:type="MSShapeGroup"></path>
            </g>
        </g>
    </g>
</svg>