<?xml version="1.0" encoding="UTF-8" standalone="no"?>
<svg width="58px" height="54px" viewBox="0 0 58 54" version="1.1" xmlns="http://www.w3.org/2000/svg" xmlns:xlink="http://www.w3.org/1999/xlink" xmlns:sketch="http://www.bohemiancoding.com/sketch/ns">
    <!-- Generator: Sketch 3.3.2 (12043) - http://www.bohemiancoding.com/sketch -->
    <title>121 - Insert Oval (Flat)</title>
    <desc>Created with Sketch.</desc>
    <defs></defs>
    <g id="Page-1" stroke="none" stroke-width="1" fill="none" fill-rule="evenodd" sketch:type="MSPage">
        <g id="Icons" sketch:type="MSArtboardGroup" transform="translate(-1201.000000, -360.000000)">
            <g id="121---Insert-Oval-(Flat)" sketch:type="MSLayerGroup" transform="translate(1201.000000, 360.000000)">
                <path d="M32,24 C31.987793,31.5097656 35.5883789,34.9189453 46.444,35 L58,35 L58,9 L32,9 L32,24 Z" id="Fill-240" fill="#556080" sketch:type="MSShapeGroup"></path>
                <path d="M32,20.89 L20.186,0.215 L0,35 L20.556,35 C22.309,28.661 25.103,25 32,25" id="Fill-241" fill="#434C6D" sketch:type="MSShapeGroup"></path>
                <path d="M47,39 C47,47.284 40.284,54 32,54 C23.716,54 17,47.284 17,39 C17,30.716 23.716,24 32,24 C40.284,24 47,30.716 47,39" id="Fill-239" fill="#25B99A" sketch:type="MSShapeGroup"></path>
            </g>
        </g>
    </g>
</svg>