<?xml version="1.0" encoding="UTF-8" standalone="no"?>
<svg width="58px" height="58px" viewBox="0 0 58 58" version="1.1" xmlns="http://www.w3.org/2000/svg" xmlns:xlink="http://www.w3.org/1999/xlink" xmlns:sketch="http://www.bohemiancoding.com/sketch/ns">
    <!-- Generator: Sketch 3.3.2 (12043) - http://www.bohemiancoding.com/sketch -->
    <title>12 - Mirror Horizontally (Flat)</title>
    <desc>Created with Sketch.</desc>
    <defs></defs>
    <g id="Page-1" stroke="none" stroke-width="1" fill="none" fill-rule="evenodd" sketch:type="MSPage">
        <g id="Icons" sketch:type="MSArtboardGroup" transform="translate(-1081.000000, -1677.000000)">
            <g id="12---Mirror-Horizontally-(Flat)" sketch:type="MSLayerGroup" transform="translate(1081.000000, 1677.000000)">
                <path d="M0,53 L0,15 L25,34 L0,53" id="Fill-804" fill="#7383BF" sketch:type="MSShapeGroup"></path>
                <path d="M58,53 L33,34 L58,15 L58,53" id="Fill-805" fill="#556080" sketch:type="MSShapeGroup"></path>
                <path d="M29,58 C28.447,58 28,57.553 28,57 L28,56 C28,55.447 28.447,55 29,55 C29.553,55 30,55.447 30,56 L30,57 C30,57.553 29.553,58 29,58 L29,58 Z M29,53 C28.447,53 28,52.553 28,52 L28,51 C28,50.447 28.447,50 29,50 C29.553,50 30,50.447 30,51 L30,52 C30,52.553 29.553,53 29,53 L29,53 Z M29,48 C28.447,48 28,47.553 28,47 L28,46 C28,45.447 28.447,45 29,45 C29.553,45 30,45.447 30,46 L30,47 C30,47.553 29.553,48 29,48 L29,48 Z M29,43 C28.447,43 28,42.553 28,42 L28,41 C28,40.447 28.447,40 29,40 C29.553,40 30,40.447 30,41 L30,42 C30,42.553 29.553,43 29,43 L29,43 Z M29,38 C28.447,38 28,37.553 28,37 L28,36 C28,35.447 28.447,35 29,35 C29.553,35 30,35.447 30,36 L30,37 C30,37.553 29.553,38 29,38 L29,38 Z M29,33 C28.447,33 28,32.553 28,32 L28,31 C28,30.447 28.447,30 29,30 C29.553,30 30,30.447 30,31 L30,32 C30,32.553 29.553,33 29,33 L29,33 Z M29,28 C28.447,28 28,27.553 28,27 L28,26 C28,25.447 28.447,25 29,25 C29.553,25 30,25.447 30,26 L30,27 C30,27.553 29.553,28 29,28 L29,28 Z M29,23 C28.447,23 28,22.553 28,22 L28,21 C28,20.447 28.447,20 29,20 C29.553,20 30,20.447 30,21 L30,22 C30,22.553 29.553,23 29,23 L29,23 Z M29,18 C28.447,18 28,17.553 28,17 L28,16 C28,15.447 28.447,15 29,15 C29.553,15 30,15.447 30,16 L30,17 C30,17.553 29.553,18 29,18 L29,18 Z M29,13 C28.447,13 28,12.553 28,12 L28,11 C28,10.447 28.447,10 29,10 C29.553,10 30,10.447 30,11 L30,12 C30,12.553 29.553,13 29,13 L29,13 Z" id="Fill-806" fill="#25B99A" sketch:type="MSShapeGroup"></path>
                <path d="M46.931,15 C46.845,15 46.758,14.989 46.671,14.966 L38.943,12.896 C38.41,12.753 38.094,12.204 38.236,11.671 C38.379,11.138 38.93,10.822 39.461,10.964 L47.188,13.034 C47.722,13.177 48.038,13.726 47.896,14.259 C47.776,14.705 47.372,15 46.931,15" id="Fill-807" fill="#B0B6BB" sketch:type="MSShapeGroup"></path>
                <path d="M46.931,15 C46.845,15 46.758,14.989 46.671,14.966 C46.138,14.823 45.821,14.274 45.964,13.741 L48.034,6.014 C48.177,5.48 48.728,5.165 49.259,5.307 C49.792,5.449 50.108,5.998 49.966,6.531 L47.896,14.259 C47.776,14.705 47.372,15 46.931,15" id="Fill-808" fill="#B0B6BB" sketch:type="MSShapeGroup"></path>
                <path d="M47,15 C46.585,15 46.197,14.74 46.055,14.325 L45.711,13.326 C43.01,6.57 36.288,2 29,2 C21.712,2 14.989,6.569 12.272,13.371 C12.066,13.884 11.484,14.133 10.973,13.929 C10.46,13.724 10.21,13.142 10.415,12.629 C13.433,5.075 20.901,0 29,0 C37.098,0 44.566,5.075 47.585,12.63 L47.945,13.675 C48.125,14.197 47.848,14.766 47.325,14.945 C47.218,14.982 47.107,15 47,15" id="Fill-809" fill="#B0B6BB" sketch:type="MSShapeGroup"></path>
            </g>
        </g>
    </g>
</svg>