<?xml version="1.0" encoding="UTF-8" standalone="no"?>
<svg width="58px" height="58px" viewBox="0 0 58 58" version="1.1" xmlns="http://www.w3.org/2000/svg" xmlns:xlink="http://www.w3.org/1999/xlink" xmlns:sketch="http://www.bohemiancoding.com/sketch/ns">
    <!-- Generator: Sketch 3.3.2 (12043) - http://www.bohemiancoding.com/sketch -->
    <title>11 - Mirror Vertically (Flat)</title>
    <desc>Created with Sketch.</desc>
    <defs></defs>
    <g id="Page-1" stroke="none" stroke-width="1" fill="none" fill-rule="evenodd" sketch:type="MSPage">
        <g id="Icons" sketch:type="MSArtboardGroup" transform="translate(-1202.000000, -1678.000000)">
            <g id="11---Mirror-Vertically-(Flat)" sketch:type="MSLayerGroup" transform="translate(1202.000000, 1678.000000)">
                <path d="M5,0 L43,0 L24,25 L5,0" id="Fill-810" fill="#7383BF" sketch:type="MSShapeGroup"></path>
                <path d="M5,58 L24,33 L43,58 L5,58" id="Fill-811" fill="#556080" sketch:type="MSShapeGroup"></path>
                <path d="M47,30 L46,30 C45.447,30 45,29.553 45,29 C45,28.447 45.447,28 46,28 L47,28 C47.553,28 48,28.447 48,29 C48,29.553 47.553,30 47,30 L47,30 Z M42,30 L41,30 C40.447,30 40,29.553 40,29 C40,28.447 40.447,28 41,28 L42,28 C42.553,28 43,28.447 43,29 C43,29.553 42.553,30 42,30 L42,30 Z M37,30 L36,30 C35.447,30 35,29.553 35,29 C35,28.447 35.447,28 36,28 L37,28 C37.553,28 38,28.447 38,29 C38,29.553 37.553,30 37,30 L37,30 Z M32,30 L31,30 C30.447,30 30,29.553 30,29 C30,28.447 30.447,28 31,28 L32,28 C32.553,28 33,28.447 33,29 C33,29.553 32.553,30 32,30 L32,30 Z M27,30 L26,30 C25.447,30 25,29.553 25,29 C25,28.447 25.447,28 26,28 L27,28 C27.553,28 28,28.447 28,29 C28,29.553 27.553,30 27,30 L27,30 Z M22,30 L21,30 C20.447,30 20,29.553 20,29 C20,28.447 20.447,28 21,28 L22,28 C22.553,28 23,28.447 23,29 C23,29.553 22.553,30 22,30 L22,30 Z M17,30 L16,30 C15.447,30 15,29.553 15,29 C15,28.447 15.447,28 16,28 L17,28 C17.553,28 18,28.447 18,29 C18,29.553 17.553,30 17,30 L17,30 Z M12,30 L11,30 C10.447,30 10,29.553 10,29 C10,28.447 10.447,28 11,28 L12,28 C12.553,28 13,28.447 13,29 C13,29.553 12.553,30 12,30 L12,30 Z M7,30 L6,30 C5.447,30 5,29.553 5,29 C5,28.447 5.447,28 6,28 L7,28 C7.553,28 8,28.447 8,29 C8,29.553 7.553,30 7,30 L7,30 Z M2,30 L1,30 C0.447,30 0,29.553 0,29 C0,28.447 0.447,28 1,28 L2,28 C2.553,28 3,28.447 3,29 C3,29.553 2.553,30 2,30 L2,30 Z" id="Fill-812" fill="#25B99A" sketch:type="MSShapeGroup"></path>
                <path d="M44.001,47.93 C43.915,47.93 43.828,47.919 43.741,47.896 C43.208,47.753 42.892,47.204 43.034,46.671 L45.104,38.943 C45.247,38.41 45.796,38.096 46.329,38.236 C46.862,38.379 47.179,38.928 47.036,39.461 L44.966,47.189 C44.847,47.635 44.442,47.93 44.001,47.93" id="Fill-813" fill="#B0B6BB" sketch:type="MSShapeGroup"></path>
                <path d="M51.729,50 C51.643,50 51.556,49.989 51.469,49.966 L43.741,47.896 C43.208,47.753 42.892,47.204 43.034,46.671 C43.177,46.138 43.729,45.822 44.259,45.964 L51.986,48.034 C52.52,48.177 52.836,48.726 52.693,49.259 C52.574,49.705 52.17,50 51.729,50" id="Fill-814" fill="#B0B6BB" sketch:type="MSShapeGroup"></path>
                <path d="M44,48 C43.585,48 43.197,47.74 43.055,47.325 C42.875,46.803 43.152,46.234 43.675,46.055 L44.674,45.711 C51.43,43.01 56,36.288 56,29 C56,21.712 51.431,14.989 44.629,12.273 C44.116,12.067 43.866,11.485 44.071,10.973 C44.276,10.46 44.858,10.21 45.371,10.415 C52.925,13.433 58,20.901 58,29 C58,37.098 52.925,44.566 45.37,47.585 L44.325,47.945 C44.218,47.982 44.107,48 44,48" id="Fill-815" fill="#B0B6BB" sketch:type="MSShapeGroup"></path>
            </g>
        </g>
    </g>
</svg>