<?xml version="1.0" encoding="UTF-8" standalone="no"?>
<svg width="58px" height="58px" viewBox="0 0 58 58" version="1.1" xmlns="http://www.w3.org/2000/svg" xmlns:xlink="http://www.w3.org/1999/xlink" xmlns:sketch="http://www.bohemiancoding.com/sketch/ns">
    <!-- Generator: Sketch 3.3.2 (12043) - http://www.bohemiancoding.com/sketch -->
    <title>20 - No Fill (Flat)</title>
    <desc>Created with Sketch.</desc>
    <defs></defs>
    <g id="Page-1" stroke="none" stroke-width="1" fill="none" fill-rule="evenodd" sketch:type="MSPage">
        <g id="Icons" sketch:type="MSArtboardGroup" transform="translate(-121.000000, -1678.000000)">
            <g id="20---No-Fill-(Flat)" sketch:type="MSLayerGroup" transform="translate(121.000000, 1678.000000)">
                <path d="M0,58 L58,58 L58,0 L0,0 L0,58 Z M5,5 L53,5 L53,53 L5,53 L5,5 Z" id="Fill-668" fill="#7383BF" sketch:type="MSShapeGroup"></path>
                <path d="M5,54 C4.744,54 4.488,53.902 4.293,53.707 C3.902,53.316 3.902,52.684 4.293,52.293 L52.293,4.293 C52.684,3.902 53.316,3.902 53.707,4.293 C54.098,4.684 54.098,5.316 53.707,5.707 L5.707,53.707 C5.512,53.902 5.256,54 5,54" id="Fill-771" fill="#EA6148" sketch:type="MSShapeGroup"></path>
            </g>
        </g>
    </g>
</svg>