<?xml version="1.0" encoding="UTF-8" standalone="no"?>
<svg width="60px" height="60px" viewBox="0 0 60 60" version="1.1" xmlns="http://www.w3.org/2000/svg" xmlns:xlink="http://www.w3.org/1999/xlink" xmlns:sketch="http://www.bohemiancoding.com/sketch/ns">
    <!-- Generator: Sketch 3.3.2 (12043) - http://www.bohemiancoding.com/sketch -->
    <title>55 - Outline (Flat)</title>
    <desc>Created with Sketch.</desc>
    <defs></defs>
    <g id="Page-1" stroke="none" stroke-width="1" fill="none" fill-rule="evenodd" sketch:type="MSPage">
        <g id="Icons" sketch:type="MSArtboardGroup" transform="translate(-720.000000, -1197.000000)">
            <g id="55---Outline-(Flat)" sketch:type="MSLayerGroup" transform="translate(720.000000, 1197.000000)">
                <path d="M43.5,18 L42,18 L42,16.5 C42,15.947 42.447,15.5 43,15.5 C43.405,15.5 43.755,15.741 43.912,16.088 C44.259,16.245 44.5,16.595 44.5,17 C44.5,17.553 44.053,18 43.5,18" id="Fill-498" fill="#25B99A" sketch:type="MSShapeGroup"></path>
                <path d="M43,13.214 C42.447,13.214 42,12.767 42,12.214 L42,11.143 C42,10.59 42.447,10.143 43,10.143 C43.553,10.143 44,10.59 44,11.143 L44,12.214 C44,12.767 43.553,13.214 43,13.214 L43,13.214 Z M43,7.856 C42.447,7.856 42,7.409 42,6.856 L42,5.785 C42,5.232 42.447,4.785 43,4.785 C43.553,4.785 44,5.232 44,5.785 L44,6.856 C44,7.409 43.553,7.856 43,7.856 L43,7.856 Z" id="Fill-499" fill="#25B99A" sketch:type="MSShapeGroup"></path>
                <path d="M43,2.5 C42.595,2.5 42.245,2.259 42.088,1.912 C41.741,1.755 41.5,1.405 41.5,1 C41.5,0.447 41.947,0 42.5,0 L44,0 L44,1.5 C44,2.053 43.553,2.5 43,2.5" id="Fill-500" fill="#25B99A" sketch:type="MSShapeGroup"></path>
                <path d="M38.295,2 L37.243,2 C36.69,2 36.243,1.553 36.243,1 C36.243,0.447 36.69,0 37.243,0 L38.295,0 C38.848,0 39.295,0.447 39.295,1 C39.295,1.553 38.848,2 38.295,2 L38.295,2 Z M33.038,2 L31.987,2 C31.435,2 30.987,1.553 30.987,1 C30.987,0.447 31.435,0 31.987,0 L33.038,0 C33.591,0 34.038,0.447 34.038,1 C34.038,1.553 33.591,2 33.038,2 L33.038,2 Z M27.782,2 L26.731,2 C26.178,2 25.731,1.553 25.731,1 C25.731,0.447 26.178,0 26.731,0 L27.782,0 C28.335,0 28.782,0.447 28.782,1 C28.782,1.553 28.335,2 27.782,2 L27.782,2 Z M22.525,2 L21.475,2 C20.922,2 20.475,1.553 20.475,1 C20.475,0.447 20.922,0 21.475,0 L22.525,0 C23.078,0 23.525,0.447 23.525,1 C23.525,1.553 23.078,2 22.525,2 L22.525,2 Z M17.269,2 L16.218,2 C15.665,2 15.218,1.553 15.218,1 C15.218,0.447 15.665,0 16.218,0 L17.269,0 C17.822,0 18.269,0.447 18.269,1 C18.269,1.553 17.822,2 17.269,2 L17.269,2 Z M12.013,2 L10.962,2 C10.409,2 9.962,1.553 9.962,1 C9.962,0.447 10.409,0 10.962,0 L12.013,0 C12.565,0 13.013,0.447 13.013,1 C13.013,1.553 12.565,2 12.013,2 L12.013,2 Z M6.757,2 L5.705,2 C5.152,2 4.705,1.553 4.705,1 C4.705,0.447 5.152,0 5.705,0 L6.757,0 C7.31,0 7.757,0.447 7.757,1 C7.757,1.553 7.31,2 6.757,2 L6.757,2 Z" id="Fill-501" fill="#25B99A" sketch:type="MSShapeGroup"></path>
                <path d="M1,2.5 C0.447,2.5 0,2.053 0,1.5 L0,0 L1.5,0 C2.053,0 2.5,0.447 2.5,1 C2.5,1.405 2.259,1.755 1.912,1.912 C1.755,2.259 1.405,2.5 1,2.5" id="Fill-502" fill="#25B99A" sketch:type="MSShapeGroup"></path>
                <path d="M1,39.295 C0.447,39.295 0,38.848 0,38.295 L0,37.243 C0,36.69 0.447,36.243 1,36.243 C1.553,36.243 2,36.69 2,37.243 L2,38.295 C2,38.848 1.553,39.295 1,39.295 L1,39.295 Z M1,34.038 C0.447,34.038 0,33.591 0,33.038 L0,31.987 C0,31.435 0.447,30.987 1,30.987 C1.553,30.987 2,31.435 2,31.987 L2,33.038 C2,33.591 1.553,34.038 1,34.038 L1,34.038 Z M1,28.782 C0.447,28.782 0,28.335 0,27.782 L0,26.731 C0,26.178 0.447,25.731 1,25.731 C1.553,25.731 2,26.178 2,26.731 L2,27.782 C2,28.335 1.553,28.782 1,28.782 L1,28.782 Z M1,23.525 C0.447,23.525 0,23.078 0,22.525 L0,21.475 C0,20.922 0.447,20.475 1,20.475 C1.553,20.475 2,20.922 2,21.475 L2,22.525 C2,23.078 1.553,23.525 1,23.525 L1,23.525 Z M1,18.269 C0.447,18.269 0,17.822 0,17.27 L0,16.218 C0,15.665 0.447,15.218 1,15.218 C1.553,15.218 2,15.665 2,16.218 L2,17.27 C2,17.822 1.553,18.269 1,18.269 L1,18.269 Z M1,13.013 C0.447,13.013 0,12.565 0,12.013 L0,10.962 C0,10.409 0.447,9.962 1,9.962 C1.553,9.962 2,10.409 2,10.962 L2,12.013 C2,12.565 1.553,13.013 1,13.013 L1,13.013 Z M1,7.757 C0.447,7.757 0,7.31 0,6.757 L0,5.705 C0,5.152 0.447,4.705 1,4.705 C1.553,4.705 2,5.152 2,5.705 L2,6.757 C2,7.31 1.553,7.757 1,7.757 L1,7.757 Z" id="Fill-503" fill="#25B99A" sketch:type="MSShapeGroup"></path>
                <path d="M1.5,44 L0,44 L0,42.5 C0,41.947 0.447,41.5 1,41.5 C1.405,41.5 1.755,41.741 1.912,42.088 C2.259,42.245 2.5,42.595 2.5,43 C2.5,43.553 2.053,44 1.5,44" id="Fill-504" fill="#25B99A" sketch:type="MSShapeGroup"></path>
                <path d="M12.215,44 L11.144,44 C10.591,44 10.144,43.553 10.144,43 C10.144,42.447 10.591,42 11.144,42 L12.215,42 C12.768,42 13.215,42.447 13.215,43 C13.215,43.553 12.768,44 12.215,44 L12.215,44 Z M6.857,44 L5.786,44 C5.233,44 4.786,43.553 4.786,43 C4.786,42.447 5.233,42 5.786,42 L6.857,42 C7.41,42 7.857,42.447 7.857,43 C7.857,43.553 7.41,44 6.857,44 L6.857,44 Z" id="Fill-505" fill="#25B99A" sketch:type="MSShapeGroup"></path>
                <path d="M17,44.5 C16.595,44.5 16.245,44.259 16.088,43.912 C15.741,43.755 15.5,43.405 15.5,43 C15.5,42.447 15.947,42 16.5,42 L18,42 L18,43.5 C18,44.053 17.553,44.5 17,44.5" id="Fill-506" fill="#25B99A" sketch:type="MSShapeGroup"></path>
                <path d="M17,55.215 C16.447,55.215 16,54.768 16,54.215 L16,53.144 C16,52.591 16.447,52.144 17,52.144 C17.553,52.144 18,52.591 18,53.144 L18,54.215 C18,54.768 17.553,55.215 17,55.215 L17,55.215 Z M17,49.857 C16.447,49.857 16,49.41 16,48.857 L16,47.786 C16,47.233 16.447,46.786 17,46.786 C17.553,46.786 18,47.233 18,47.786 L18,48.857 C18,49.41 17.553,49.857 17,49.857 L17,49.857 Z" id="Fill-507" fill="#25B99A" sketch:type="MSShapeGroup"></path>
                <path d="M17.5,60 L16,60 L16,58.5 C16,57.947 16.447,57.5 17,57.5 C17.405,57.5 17.755,57.741 17.912,58.088 C18.259,58.245 18.5,58.595 18.5,59 C18.5,59.553 18.053,60 17.5,60" id="Fill-508" fill="#25B99A" sketch:type="MSShapeGroup"></path>
                <path d="M54.295,60 L53.243,60 C52.69,60 52.243,59.553 52.243,59 C52.243,58.447 52.69,58 53.243,58 L54.295,58 C54.848,58 55.295,58.447 55.295,59 C55.295,59.553 54.848,60 54.295,60 L54.295,60 Z M49.038,60 L47.987,60 C47.435,60 46.987,59.553 46.987,59 C46.987,58.447 47.435,58 47.987,58 L49.038,58 C49.591,58 50.038,58.447 50.038,59 C50.038,59.553 49.591,60 49.038,60 L49.038,60 Z M43.782,60 L42.731,60 C42.178,60 41.731,59.553 41.731,59 C41.731,58.447 42.178,58 42.731,58 L43.782,58 C44.335,58 44.782,58.447 44.782,59 C44.782,59.553 44.335,60 43.782,60 L43.782,60 Z M38.525,60 L37.475,60 C36.922,60 36.475,59.553 36.475,59 C36.475,58.447 36.922,58 37.475,58 L38.525,58 C39.078,58 39.525,58.447 39.525,59 C39.525,59.553 39.078,60 38.525,60 L38.525,60 Z M33.269,60 L32.218,60 C31.665,60 31.218,59.553 31.218,59 C31.218,58.447 31.665,58 32.218,58 L33.269,58 C33.822,58 34.269,58.447 34.269,59 C34.269,59.553 33.822,60 33.269,60 L33.269,60 Z M28.013,60 L26.962,60 C26.409,60 25.962,59.553 25.962,59 C25.962,58.447 26.409,58 26.962,58 L28.013,58 C28.565,58 29.013,58.447 29.013,59 C29.013,59.553 28.565,60 28.013,60 L28.013,60 Z M22.757,60 L21.705,60 C21.152,60 20.705,59.553 20.705,59 C20.705,58.447 21.152,58 21.705,58 L22.757,58 C23.31,58 23.757,58.447 23.757,59 C23.757,59.553 23.31,60 22.757,60 L22.757,60 Z" id="Fill-509" fill="#25B99A" sketch:type="MSShapeGroup"></path>
                <path d="M60,60 L58.5,60 C57.947,60 57.5,59.553 57.5,59 C57.5,58.595 57.741,58.245 58.088,58.088 C58.245,57.741 58.595,57.5 59,57.5 C59.553,57.5 60,57.947 60,58.5 L60,60" id="Fill-510" fill="#25B99A" sketch:type="MSShapeGroup"></path>
                <path d="M59,55.295 C58.447,55.295 58,54.848 58,54.295 L58,53.243 C58,52.69 58.447,52.243 59,52.243 C59.553,52.243 60,52.69 60,53.243 L60,54.295 C60,54.848 59.553,55.295 59,55.295 L59,55.295 Z M59,50.038 C58.447,50.038 58,49.591 58,49.038 L58,47.987 C58,47.435 58.447,46.987 59,46.987 C59.553,46.987 60,47.435 60,47.987 L60,49.038 C60,49.591 59.553,50.038 59,50.038 L59,50.038 Z M59,44.782 C58.447,44.782 58,44.335 58,43.782 L58,42.731 C58,42.178 58.447,41.731 59,41.731 C59.553,41.731 60,42.178 60,42.731 L60,43.782 C60,44.335 59.553,44.782 59,44.782 L59,44.782 Z M59,39.525 C58.447,39.525 58,39.078 58,38.525 L58,37.475 C58,36.922 58.447,36.475 59,36.475 C59.553,36.475 60,36.922 60,37.475 L60,38.525 C60,39.078 59.553,39.525 59,39.525 L59,39.525 Z M59,34.27 C58.447,34.27 58,33.822 58,33.269 L58,32.218 C58,31.665 58.447,31.218 59,31.218 C59.553,31.218 60,31.665 60,32.218 L60,33.269 C60,33.822 59.553,34.27 59,34.27 L59,34.27 Z M59,29.013 C58.447,29.013 58,28.565 58,28.013 L58,26.962 C58,26.409 58.447,25.962 59,25.962 C59.553,25.962 60,26.409 60,26.962 L60,28.013 C60,28.565 59.553,29.013 59,29.013 L59,29.013 Z M59,23.757 C58.447,23.757 58,23.31 58,22.757 L58,21.705 C58,21.152 58.447,20.705 59,20.705 C59.553,20.705 60,21.152 60,21.705 L60,22.757 C60,23.31 59.553,23.757 59,23.757 L59,23.757 Z" id="Fill-511" fill="#25B99A" sketch:type="MSShapeGroup"></path>
                <path d="M59,18.5 C58.595,18.5 58.245,18.259 58.088,17.912 C57.741,17.755 57.5,17.405 57.5,17 C57.5,16.447 57.947,16 58.5,16 L60,16 L60,17.5 C60,18.053 59.553,18.5 59,18.5" id="Fill-512" fill="#25B99A" sketch:type="MSShapeGroup"></path>
                <path d="M54.214,18 L53.143,18 C52.59,18 52.143,17.553 52.143,17 C52.143,16.447 52.59,16 53.143,16 L54.214,16 C54.767,16 55.214,16.447 55.214,17 C55.214,17.553 54.767,18 54.214,18 L54.214,18 Z M48.856,18 L47.785,18 C47.232,18 46.785,17.553 46.785,17 C46.785,16.447 47.232,16 47.785,16 L48.856,16 C49.409,16 49.856,16.447 49.856,17 C49.856,17.553 49.409,18 48.856,18 L48.856,18 Z" id="Fill-513" fill="#25B99A" sketch:type="MSShapeGroup"></path>
                <path d="M21,55 L21,39 L5,39 L5,5 L39,5 L39,21 L55,21 L55,55 L21,55" id="Fill-514" fill="#7383BF" sketch:type="MSShapeGroup"></path>
                <path d="M21,21 L39,21 L39,39 L21,39 L21,21 Z" id="Fill-515" fill="#556080" sketch:type="MSShapeGroup"></path>
            </g>
        </g>
    </g>
</svg>