<?xml version="1.0" encoding="UTF-8" standalone="no"?>
<svg width="58px" height="58px" viewBox="0 0 58 58" version="1.1" xmlns="http://www.w3.org/2000/svg" xmlns:xlink="http://www.w3.org/1999/xlink" xmlns:sketch="http://www.bohemiancoding.com/sketch/ns">
    <!-- Generator: Sketch 3.3.2 (12043) - http://www.bohemiancoding.com/sketch -->
    <title>8 - Pen (Flat)</title>
    <desc>Created with Sketch.</desc>
    <defs></defs>
    <g id="Page-1" stroke="none" stroke-width="1" fill="none" fill-rule="evenodd" sketch:type="MSPage">
        <g id="Icons" sketch:type="MSArtboardGroup" transform="translate(-361.000000, -1798.000000)">
            <g id="8---Pen-(Flat)" sketch:type="MSLayerGroup" transform="translate(361.000000, 1798.000000)">
                <path d="M32.373,15.314 C32.117,15.314 31.861,15.216 31.666,15.021 C31.275,14.63 31.275,13.997 31.666,13.606 L41.565,3.707 C41.956,3.316 42.588,3.316 42.979,3.707 L45.101,5.828 C45.491,6.219 45.491,6.852 45.101,7.242 C44.71,7.633 44.077,7.633 43.686,7.242 L42.272,5.828 L33.08,15.021 C32.884,15.216 32.628,15.314 32.373,15.314" id="Fill-7" fill="#434C6D" sketch:type="MSShapeGroup"></path>
                <path d="M12.728,52.364 C13.9,51.192 15.799,51.192 16.971,52.364 C18.533,50.802 18.533,48.269 16.971,46.707 L11.314,41.05 C9.752,39.488 7.219,39.488 5.657,41.05 C6.828,42.222 6.828,44.121 5.657,45.293 C4.485,46.465 2.586,46.465 1.414,45.293 L0,58.021 L12.728,56.607 C11.556,55.435 11.556,53.536 12.728,52.364" id="Fill-848" fill="#F0CE49" sketch:type="MSShapeGroup"></path>
                <path d="M21.039,44.032 L13.968,36.961 L47.929,3 L55,10.071 L21.039,44.032" id="Fill-849" fill="#556080" sketch:type="MSShapeGroup"></path>
                <path d="M54.316,9.341 L48.659,3.684 L52.343,0 L58,5.657 L54.316,9.341" id="Fill-850" fill="#7383BF" sketch:type="MSShapeGroup"></path>
                <path d="M41.958,24.112 C41.703,24.112 41.447,24.015 41.252,23.819 L34.18,16.749 C33.79,16.358 33.79,15.726 34.18,15.335 C34.571,14.944 35.204,14.944 35.594,15.335 L42.665,22.405 C43.056,22.796 43.056,23.429 42.665,23.819 C42.47,24.015 42.214,24.112 41.958,24.112" id="Fill-851" fill="#F8B563" sketch:type="MSShapeGroup"></path>
                <path d="M11.314,41.05 L16.96,46.697 L20.293,43.364 L14.636,37.707 L11.302,41.041 C11.306,41.044 11.31,41.047 11.314,41.05" id="Fill-852" fill="#7383BF" sketch:type="MSShapeGroup"></path>
                <path d="M0,58.021 L0,58.021 L1.593,57.844 L5.559,53.885 C5.697,53.954 5.844,54 6,54 L8,54 C8.265,54 8.52,53.895 8.707,53.707 L9.707,52.707 C9.895,52.52 10,52.266 10,52 L10,50 C10,49.734 9.895,49.48 9.707,49.293 L8.707,48.293 C8.52,48.106 8.265,48 8,48 L6,48 C5.735,48 5.481,48.106 5.293,48.293 L4.293,49.293 C4.105,49.48 4,49.734 4,50 L4,52 C4,52.171 4.058,52.33 4.139,52.477 L0.177,56.431 L0,58.021 L0,58.021 Z M6,50.414 L6.414,50 L7.586,50 L8,50.414 L8,51.586 L7.586,52 L6.414,52 L6,51.586 L6,50.414 L6,50.414 Z" id="Fill-948" fill="#CEA217" sketch:type="MSShapeGroup"></path>
            </g>
        </g>
    </g>
</svg>