<?xml version="1.0" encoding="UTF-8" standalone="no"?>
<svg width="56px" height="56px" viewBox="0 0 56 56" version="1.1" xmlns="http://www.w3.org/2000/svg" xmlns:xlink="http://www.w3.org/1999/xlink" xmlns:sketch="http://www.bohemiancoding.com/sketch/ns">
    <!-- Generator: Sketch 3.3.2 (12043) - http://www.bohemiancoding.com/sketch -->
    <title>70 - Pen Tool (Flat)</title>
    <desc>Created with Sketch.</desc>
    <defs></defs>
    <g id="Page-1" stroke="none" stroke-width="1" fill="none" fill-rule="evenodd" sketch:type="MSPage">
        <g id="Icons" sketch:type="MSArtboardGroup" transform="translate(-122.000000, -1079.000000)">
            <g id="70---Pen-Tool-(Flat)" sketch:type="MSLayerGroup" transform="translate(121.000000, 1079.000000)">
                <path d="M33.598,8.656 L48.344,23.402 L43.873,27.873 C39.943,31.802 39.943,38.174 43.873,42.104 L47.29,45.521 L2,55 L11.479,9.71 L14.896,13.127 C18.826,17.057 25.198,17.057 29.127,13.127 L33.598,8.656" id="Fill-408" fill="#F0CE49" sketch:type="MSShapeGroup"></path>
                <path d="M38.864,3.39 L53.61,18.136 L48.344,23.402 L33.598,8.656 L38.864,3.39" id="Fill-409" fill="#7383BF" sketch:type="MSShapeGroup"></path>
                <path d="M46.237,0.23 L56.77,10.763 L51.503,16.029 L40.971,5.497 L46.237,0.23" id="Fill-410" fill="#434C6D" sketch:type="MSShapeGroup"></path>
                <path d="M32.198,24.802 C31.166,23.769 29.792,23.2 28.332,23.2 C26.871,23.2 25.498,23.769 24.465,24.802 C23.432,25.835 22.863,27.208 22.863,28.669 C22.863,29.79 23.204,30.855 23.827,31.759 L1.293,54.293 C0.902,54.684 0.902,55.316 1.293,55.707 C1.488,55.902 1.744,56 2,56 C2.256,56 2.512,55.902 2.707,55.707 L25.241,33.173 C26.145,33.796 27.211,34.137 28.332,34.137 C29.792,34.137 31.166,33.568 32.198,32.535 C33.231,31.502 33.8,30.129 33.8,28.669 C33.8,27.208 33.231,25.835 32.198,24.802 L32.198,24.802 Z M30.784,31.121 C29.474,32.432 27.19,32.432 25.879,31.121 C24.527,29.769 24.527,27.568 25.879,26.216 C26.534,25.56 27.405,25.2 28.332,25.2 C29.258,25.2 30.129,25.56 30.784,26.216 C32.136,27.568 32.136,29.769 30.784,31.121 L30.784,31.121 Z" id="Fill-411" fill="#F8E7A1" sketch:type="MSShapeGroup"></path>
            </g>
        </g>
    </g>
</svg>