<?xml version="1.0" encoding="UTF-8" standalone="no"?>
<svg width="59px" height="59px" viewBox="0 0 59 59" version="1.1" xmlns="http://www.w3.org/2000/svg" xmlns:xlink="http://www.w3.org/1999/xlink" xmlns:sketch="http://www.bohemiancoding.com/sketch/ns">
    <!-- Generator: Sketch 3.3.2 (12043) - http://www.bohemiancoding.com/sketch -->
    <title>10 - Pencil (Flat)</title>
    <desc>Created with Sketch.</desc>
    <defs></defs>
    <g id="Page-1" stroke="none" stroke-width="1" fill="none" fill-rule="evenodd" sketch:type="MSPage">
        <g id="Icons" sketch:type="MSArtboardGroup" transform="translate(-120.000000, -1798.000000)">
            <g id="10---Pencil-(Flat)" sketch:type="MSLayerGroup" transform="translate(120.000000, 1797.000000)">
                <path d="M1.015,58.985 L13.743,54.743 L5.257,46.257 L1.015,58.985" id="Fill-816" fill="#E0A370" sketch:type="MSShapeGroup"></path>
                <path d="M57.243,2.757 C54.9,0.414 51.101,0.414 48.757,2.757 L46.636,4.879 L55.121,13.364 L57.243,11.243 C59.586,8.899 59.586,5.1 57.243,2.757" id="Fill-817" fill="#CC4B4C" sketch:type="MSShapeGroup"></path>
                <path d="M5.257,46.257 L13.743,54.743 L52.293,16.192 L43.808,7.707 L5.257,46.257" id="Fill-818" fill="#E39700" sketch:type="MSShapeGroup"></path>
                <path d="M8.086,49.086 L46.586,10.586 L49.415,13.414 L10.914,51.914 L8.086,49.086" id="Fill-819" fill="#FFCB43" sketch:type="MSShapeGroup"></path>
                <path d="M52.293,16.192 L52.293,16.192 L55.121,13.364 L52.293,16.192" id="Fill-820" fill="#959595" sketch:type="MSShapeGroup"></path>
                <path d="M45.929,5.586 L43.808,7.707 L52.293,16.192 L55.121,13.364 L46.636,4.879 L45.929,5.586" id="Fill-821" fill="#F3EDBF" sketch:type="MSShapeGroup"></path>
                <path d="M1.015,59.985 C0.759,59.985 0.503,59.888 0.308,59.692 C-0.083,59.302 -0.083,58.669 0.308,58.278 L1.293,57.293 C1.684,56.902 2.316,56.902 2.707,57.293 C3.098,57.684 3.098,58.316 2.707,58.707 L1.722,59.692 C1.526,59.888 1.271,59.985 1.015,59.985" id="Fill-939" fill="#949493" sketch:type="MSShapeGroup"></path>
            </g>
        </g>
    </g>
</svg>