<?xml version="1.0" encoding="UTF-8" standalone="no"?>
<svg width="57px" height="60px" viewBox="0 0 57 60" version="1.1" xmlns="http://www.w3.org/2000/svg" xmlns:xlink="http://www.w3.org/1999/xlink" xmlns:sketch="http://www.bohemiancoding.com/sketch/ns">
    <!-- Generator: Sketch 3.3.2 (12043) - http://www.bohemiancoding.com/sketch -->
    <title>50 - Perspective Distort (Flat)</title>
    <desc>Created with Sketch.</desc>
    <defs></defs>
    <g id="Page-1" stroke="none" stroke-width="1" fill="none" fill-rule="evenodd" sketch:type="MSPage">
        <g id="Icons" sketch:type="MSArtboardGroup" transform="translate(-122.000000, -1317.000000)">
            <g id="50---Perspective-Distort-(Flat)" sketch:type="MSLayerGroup" transform="translate(122.000000, 1317.000000)">
                <path d="M8.14,55.355 L7.932,54.375 C7.641,52.999 6.408,52 5,52 L4,52 L4,8 L5,8 C6.408,8 7.641,7.001 7.932,5.625 L8.14,4.646 L49.275,13.398 L49.067,14.376 C49.023,14.587 49,14.797 49,15 C49,16.654 50.346,18 52,18 L53,18 L53,42 L52,42 C50.346,42 49,43.346 49,45 C49,45.203 49.023,45.413 49.067,45.624 L49.275,46.602 L8.14,55.355 L8.14,55.355 Z M6,50.103 C7.586,50.43 8.932,51.521 9.581,53.003 L47,45.041 L47,45 C47,42.585 48.721,40.565 51,40.101 L51,19.899 C48.721,19.435 47,17.415 47,15 L47,14.959 L9.581,6.997 C8.932,8.479 7.586,9.57 6,9.897 L6,50.103 L6,50.103 Z" id="Fill-10" fill="#7383BF" sketch:type="MSShapeGroup"></path>
                <path d="M9,5 C9,7.209 7.209,9 5,9 C2.791,9 1,7.209 1,5 C1,2.791 2.791,1 5,1 C7.209,1 9,2.791 9,5" id="Fill-537" fill="#434C6D" sketch:type="MSShapeGroup"></path>
                <path d="M5,10 C2.243,10 0,7.757 0,5 C0,2.243 2.243,0 5,0 C7.757,0 10,2.243 10,5 C10,7.757 7.757,10 5,10 L5,10 Z M5,2 C3.346,2 2,3.346 2,5 C2,6.654 3.346,8 5,8 C6.654,8 8,6.654 8,5 C8,3.346 6.654,2 5,2 L5,2 Z" id="Fill-538" fill="#434C6D" sketch:type="MSShapeGroup"></path>
                <path d="M9,55 C9,57.209 7.209,59 5,59 C2.791,59 1,57.209 1,55 C1,52.791 2.791,51 5,51 C7.209,51 9,52.791 9,55" id="Fill-539" fill="#434C6D" sketch:type="MSShapeGroup"></path>
                <path d="M5,60 C2.243,60 0,57.757 0,55 C0,52.243 2.243,50 5,50 C7.757,50 10,52.243 10,55 C10,57.757 7.757,60 5,60 L5,60 Z M5,52 C3.346,52 2,53.346 2,55 C2,56.654 3.346,58 5,58 C6.654,58 8,56.654 8,55 C8,53.346 6.654,52 5,52 L5,52 Z" id="Fill-540" fill="#434C6D" sketch:type="MSShapeGroup"></path>
                <path d="M56,45 C56,47.209 54.209,49 52,49 C49.791,49 48,47.209 48,45 C48,42.791 49.791,41 52,41 C54.209,41 56,42.791 56,45" id="Fill-541" fill="#25B99A" sketch:type="MSShapeGroup"></path>
                <path d="M52,50 C49.243,50 47,47.757 47,45 C47,42.243 49.243,40 52,40 C54.757,40 57,42.243 57,45 C57,47.757 54.757,50 52,50 L52,50 Z M52,42 C50.346,42 49,43.346 49,45 C49,46.654 50.346,48 52,48 C53.654,48 55,46.654 55,45 C55,43.346 53.654,42 52,42 L52,42 Z" id="Fill-542" fill="#25B99A" sketch:type="MSShapeGroup"></path>
                <path d="M56,15 C56,17.209 54.209,19 52,19 C49.791,19 48,17.209 48,15 C48,12.791 49.791,11 52,11 C54.209,11 56,12.791 56,15" id="Fill-543" fill="#25B99A" sketch:type="MSShapeGroup"></path>
                <path d="M52,20 C49.243,20 47,17.757 47,15 C47,12.243 49.243,10 52,10 C54.757,10 57,12.243 57,15 C57,17.757 54.757,20 52,20 L52,20 Z M52,12 C50.346,12 49,13.346 49,15 C49,16.654 50.346,18 52,18 C53.654,18 55,16.654 55,15 C55,13.346 53.654,12 52,12 L52,12 Z" id="Fill-544" fill="#25B99A" sketch:type="MSShapeGroup"></path>
            </g>
        </g>
    </g>
</svg>