<?xml version="1.0" encoding="UTF-8" standalone="no"?>
<svg width="60px" height="60px" viewBox="0 0 60 60" version="1.1" xmlns="http://www.w3.org/2000/svg" xmlns:xlink="http://www.w3.org/1999/xlink" xmlns:sketch="http://www.bohemiancoding.com/sketch/ns">
    <!-- Generator: Sketch 3.3.2 (12043) - http://www.bohemiancoding.com/sketch -->
    <title>44 - Rectangular Marquee Tool (Flat)</title>
    <desc>Created with Sketch.</desc>
    <defs></defs>
    <g id="Page-1" stroke="none" stroke-width="1" fill="none" fill-rule="evenodd" sketch:type="MSPage">
        <g id="Icons" sketch:type="MSArtboardGroup" transform="translate(-840.000000, -1317.000000)" fill="#7383BF">
            <g id="44---Rectangular-Marquee-Tool-(Flat)" sketch:type="MSLayerGroup" transform="translate(840.000000, 1317.000000)">
                <path d="M60,60 L58.5,60 C57.947,60 57.5,59.553 57.5,59 C57.5,58.595 57.741,58.245 58.088,58.088 C58.245,57.741 58.595,57.5 59,57.5 C59.553,57.5 60,57.947 60,58.5 L60,60" id="Fill-567" sketch:type="MSShapeGroup"></path>
                <path d="M54.636,60 L53.67,60 C53.117,60 52.67,59.553 52.67,59 C52.67,58.447 53.117,58 53.67,58 L54.636,58 C55.188,58 55.636,58.447 55.636,59 C55.636,59.553 55.188,60 54.636,60 L54.636,60 Z M49.806,60 L48.839,60 C48.286,60 47.839,59.553 47.839,59 C47.839,58.447 48.286,58 48.839,58 L49.806,58 C50.358,58 50.806,58.447 50.806,59 C50.806,59.553 50.358,60 49.806,60 L49.806,60 Z M44.975,60 L44.009,60 C43.456,60 43.009,59.553 43.009,59 C43.009,58.447 43.456,58 44.009,58 L44.975,58 C45.527,58 45.975,58.447 45.975,59 C45.975,59.553 45.527,60 44.975,60 L44.975,60 Z M40.145,60 L39.178,60 C38.625,60 38.178,59.553 38.178,59 C38.178,58.447 38.625,58 39.178,58 L40.145,58 C40.697,58 41.144,58.447 41.144,59 C41.144,59.553 40.697,60 40.145,60 L40.145,60 Z M35.313,60 L34.348,60 C33.795,60 33.348,59.553 33.348,59 C33.348,58.447 33.795,58 34.348,58 L35.313,58 C35.866,58 36.313,58.447 36.313,59 C36.313,59.553 35.866,60 35.313,60 L35.313,60 Z M30.483,60 L29.518,60 C28.965,60 28.518,59.553 28.518,59 C28.518,58.447 28.965,58 29.518,58 L30.483,58 C31.036,58 31.483,58.447 31.483,59 C31.483,59.553 31.036,60 30.483,60 L30.483,60 Z M25.652,60 L24.687,60 C24.134,60 23.687,59.553 23.687,59 C23.687,58.447 24.134,58 24.687,58 L25.652,58 C26.205,58 26.652,58.447 26.652,59 C26.652,59.553 26.205,60 25.652,60 L25.652,60 Z M20.822,60 L19.856,60 C19.304,60 18.856,59.553 18.856,59 C18.856,58.447 19.304,58 19.856,58 L20.822,58 C21.375,58 21.822,58.447 21.822,59 C21.822,59.553 21.375,60 20.822,60 L20.822,60 Z M15.991,60 L15.025,60 C14.473,60 14.025,59.553 14.025,59 C14.025,58.447 14.473,58 15.025,58 L15.991,58 C16.544,58 16.991,58.447 16.991,59 C16.991,59.553 16.544,60 15.991,60 L15.991,60 Z M11.161,60 L10.195,60 C9.643,60 9.195,59.553 9.195,59 C9.195,58.447 9.643,58 10.195,58 L11.161,58 C11.714,58 12.161,58.447 12.161,59 C12.161,59.553 11.714,60 11.161,60 L11.161,60 Z M6.331,60 L5.364,60 C4.812,60 4.364,59.553 4.364,59 C4.364,58.447 4.812,58 5.364,58 L6.331,58 C6.884,58 7.331,58.447 7.331,59 C7.331,59.553 6.884,60 6.331,60 L6.331,60 Z" id="Fill-568" sketch:type="MSShapeGroup"></path>
                <path d="M1.5,60 L0,60 L0,58.5 C0,57.947 0.447,57.5 1,57.5 C1.405,57.5 1.755,57.741 1.912,58.088 C2.259,58.245 2.5,58.595 2.5,59 C2.5,59.553 2.053,60 1.5,60" id="Fill-569" sketch:type="MSShapeGroup"></path>
                <path d="M1,55.636 C0.447,55.636 0,55.188 0,54.636 L0,53.67 C0,53.117 0.447,52.67 1,52.67 C1.553,52.67 2,53.117 2,53.67 L2,54.636 C2,55.188 1.553,55.636 1,55.636 L1,55.636 Z M1,50.806 C0.447,50.806 0,50.358 0,49.806 L0,48.839 C0,48.286 0.447,47.839 1,47.839 C1.553,47.839 2,48.286 2,48.839 L2,49.806 C2,50.358 1.553,50.806 1,50.806 L1,50.806 Z M1,45.975 C0.447,45.975 0,45.527 0,44.975 L0,44.009 C0,43.456 0.447,43.009 1,43.009 C1.553,43.009 2,43.456 2,44.009 L2,44.975 C2,45.527 1.553,45.975 1,45.975 L1,45.975 Z M1,41.145 C0.447,41.145 0,40.697 0,40.145 L0,39.178 C0,38.625 0.447,38.178 1,38.178 C1.553,38.178 2,38.625 2,39.178 L2,40.145 C2,40.697 1.553,41.145 1,41.145 L1,41.145 Z M1,36.314 C0.447,36.314 0,35.866 0,35.313 L0,34.348 C0,33.795 0.447,33.348 1,33.348 C1.553,33.348 2,33.795 2,34.348 L2,35.313 C2,35.866 1.553,36.314 1,36.314 L1,36.314 Z M1,31.483 C0.447,31.483 0,31.036 0,30.483 L0,29.518 C0,28.965 0.447,28.518 1,28.518 C1.553,28.518 2,28.965 2,29.518 L2,30.483 C2,31.036 1.553,31.483 1,31.483 L1,31.483 Z M1,26.652 C0.447,26.652 0,26.205 0,25.652 L0,24.687 C0,24.134 0.447,23.687 1,23.687 C1.553,23.687 2,24.134 2,24.687 L2,25.652 C2,26.205 1.553,26.652 1,26.652 L1,26.652 Z M1,21.822 C0.447,21.822 0,21.375 0,20.822 L0,19.856 C0,19.304 0.447,18.856 1,18.856 C1.553,18.856 2,19.304 2,19.856 L2,20.822 C2,21.375 1.553,21.822 1,21.822 L1,21.822 Z M1,16.991 C0.447,16.991 0,16.544 0,15.991 L0,15.025 C0,14.473 0.447,14.025 1,14.025 C1.553,14.025 2,14.473 2,15.025 L2,15.991 C2,16.544 1.553,16.991 1,16.991 L1,16.991 Z M1,12.161 C0.447,12.161 0,11.714 0,11.161 L0,10.195 C0,9.643 0.447,9.195 1,9.195 C1.553,9.195 2,9.643 2,10.195 L2,11.161 C2,11.714 1.553,12.161 1,12.161 L1,12.161 Z M1,7.331 C0.447,7.331 0,6.884 0,6.331 L0,5.364 C0,4.812 0.447,4.364 1,4.364 C1.553,4.364 2,4.812 2,5.364 L2,6.331 C2,6.884 1.553,7.331 1,7.331 L1,7.331 Z" id="Fill-570" sketch:type="MSShapeGroup"></path>
                <path d="M1,2.5 C0.447,2.5 0,2.053 0,1.5 L0,0 L1.5,0 C2.053,0 2.5,0.447 2.5,1 C2.5,1.405 2.259,1.755 1.912,1.912 C1.755,2.259 1.405,2.5 1,2.5" id="Fill-571" sketch:type="MSShapeGroup"></path>
                <path d="M54.636,2 L53.669,2 C53.116,2 52.669,1.553 52.669,1 C52.669,0.447 53.116,0 53.669,0 L54.636,0 C55.188,0 55.636,0.447 55.636,1 C55.636,1.553 55.188,2 54.636,2 L54.636,2 Z M49.805,2 L48.839,2 C48.286,2 47.839,1.553 47.839,1 C47.839,0.447 48.286,0 48.839,0 L49.805,0 C50.357,0 50.805,0.447 50.805,1 C50.805,1.553 50.357,2 49.805,2 L49.805,2 Z M44.975,2 L44.009,2 C43.456,2 43.009,1.553 43.009,1 C43.009,0.447 43.456,0 44.009,0 L44.975,0 C45.527,0 45.975,0.447 45.975,1 C45.975,1.553 45.527,2 44.975,2 L44.975,2 Z M40.144,2 L39.178,2 C38.625,2 38.178,1.553 38.178,1 C38.178,0.447 38.625,0 39.178,0 L40.144,0 C40.696,0 41.144,0.447 41.144,1 C41.144,1.553 40.696,2 40.144,2 L40.144,2 Z M35.313,2 L34.348,2 C33.795,2 33.348,1.553 33.348,1 C33.348,0.447 33.795,0 34.348,0 L35.313,0 C35.866,0 36.313,0.447 36.313,1 C36.313,1.553 35.866,2 35.313,2 L35.313,2 Z M30.482,2 L29.517,2 C28.964,2 28.517,1.553 28.517,1 C28.517,0.447 28.964,0 29.517,0 L30.482,0 C31.035,0 31.482,0.447 31.482,1 C31.482,1.553 31.035,2 30.482,2 L30.482,2 Z M25.652,2 L24.687,2 C24.134,2 23.687,1.553 23.687,1 C23.687,0.447 24.134,0 24.687,0 L25.652,0 C26.205,0 26.652,0.447 26.652,1 C26.652,1.553 26.205,2 25.652,2 L25.652,2 Z M20.822,2 L19.856,2 C19.303,2 18.856,1.553 18.856,1 C18.856,0.447 19.303,0 19.856,0 L20.822,0 C21.375,0 21.822,0.447 21.822,1 C21.822,1.553 21.375,2 20.822,2 L20.822,2 Z M15.991,2 L15.025,2 C14.473,2 14.025,1.553 14.025,1 C14.025,0.447 14.473,0 15.025,0 L15.991,0 C16.544,0 16.991,0.447 16.991,1 C16.991,1.553 16.544,2 15.991,2 L15.991,2 Z M11.161,2 L10.194,2 C9.642,2 9.194,1.553 9.194,1 C9.194,0.447 9.642,0 10.194,0 L11.161,0 C11.714,0 12.161,0.447 12.161,1 C12.161,1.553 11.714,2 11.161,2 L11.161,2 Z M6.33,2 L5.364,2 C4.812,2 4.364,1.553 4.364,1 C4.364,0.447 4.812,0 5.364,0 L6.33,0 C6.883,0 7.33,0.447 7.33,1 C7.33,1.553 6.883,2 6.33,2 L6.33,2 Z" id="Fill-572" sketch:type="MSShapeGroup"></path>
                <path d="M59,2.5 C58.595,2.5 58.245,2.259 58.088,1.912 C57.741,1.755 57.5,1.405 57.5,1 C57.5,0.447 57.947,0 58.5,0 L60,0 L60,1.5 C60,2.053 59.553,2.5 59,2.5" id="Fill-573" sketch:type="MSShapeGroup"></path>
                <path d="M59,55.636 C58.447,55.636 58,55.188 58,54.636 L58,53.669 C58,53.116 58.447,52.669 59,52.669 C59.553,52.669 60,53.116 60,53.669 L60,54.636 C60,55.188 59.553,55.636 59,55.636 L59,55.636 Z M59,50.805 C58.447,50.805 58,50.357 58,49.805 L58,48.839 C58,48.286 58.447,47.839 59,47.839 C59.553,47.839 60,48.286 60,48.839 L60,49.805 C60,50.357 59.553,50.805 59,50.805 L59,50.805 Z M59,45.975 C58.447,45.975 58,45.527 58,44.975 L58,44.009 C58,43.456 58.447,43.009 59,43.009 C59.553,43.009 60,43.456 60,44.009 L60,44.975 C60,45.527 59.553,45.975 59,45.975 L59,45.975 Z M59,41.144 C58.447,41.144 58,40.696 58,40.144 L58,39.178 C58,38.625 58.447,38.178 59,38.178 C59.553,38.178 60,38.625 60,39.178 L60,40.144 C60,40.696 59.553,41.144 59,41.144 L59,41.144 Z M59,36.314 C58.447,36.314 58,35.866 58,35.313 L58,34.348 C58,33.795 58.447,33.348 59,33.348 C59.553,33.348 60,33.795 60,34.348 L60,35.313 C60,35.866 59.553,36.314 59,36.314 L59,36.314 Z M59,31.482 C58.447,31.482 58,31.035 58,30.482 L58,29.517 C58,28.964 58.447,28.517 59,28.517 C59.553,28.517 60,28.964 60,29.517 L60,30.482 C60,31.035 59.553,31.482 59,31.482 L59,31.482 Z M59,26.652 C58.447,26.652 58,26.205 58,25.652 L58,24.687 C58,24.134 58.447,23.687 59,23.687 C59.553,23.687 60,24.134 60,24.687 L60,25.652 C60,26.205 59.553,26.652 59,26.652 L59,26.652 Z M59,21.822 C58.447,21.822 58,21.375 58,20.822 L58,19.855 C58,19.303 58.447,18.856 59,18.856 C59.553,18.856 60,19.303 60,19.855 L60,20.822 C60,21.375 59.553,21.822 59,21.822 L59,21.822 Z M59,16.991 C58.447,16.991 58,16.544 58,15.991 L58,15.025 C58,14.473 58.447,14.025 59,14.025 C59.553,14.025 60,14.473 60,15.025 L60,15.991 C60,16.544 59.553,16.991 59,16.991 L59,16.991 Z M59,12.161 C58.447,12.161 58,11.714 58,11.161 L58,10.194 C58,9.642 58.447,9.194 59,9.194 C59.553,9.194 60,9.642 60,10.194 L60,11.161 C60,11.714 59.553,12.161 59,12.161 L59,12.161 Z M59,7.33 C58.447,7.33 58,6.883 58,6.33 L58,5.364 C58,4.812 58.447,4.364 59,4.364 C59.553,4.364 60,4.812 60,5.364 L60,6.33 C60,6.883 59.553,7.33 59,7.33 L59,7.33 Z" id="Fill-574" sketch:type="MSShapeGroup"></path>
            </g>
        </g>
    </g>
</svg>