<?xml version="1.0" encoding="UTF-8" standalone="no"?>
<svg width="60px" height="60px" viewBox="0 0 60 60" version="1.1" xmlns="http://www.w3.org/2000/svg" xmlns:xlink="http://www.w3.org/1999/xlink" xmlns:sketch="http://www.bohemiancoding.com/sketch/ns">
    <!-- Generator: Sketch 3.3.2 (12043) - http://www.bohemiancoding.com/sketch -->
    <title>104 - Rotate Vertically (Flat)</title>
    <desc>Created with Sketch.</desc>
    <defs></defs>
    <g id="Page-1" stroke="none" stroke-width="1" fill="none" fill-rule="evenodd" sketch:type="MSPage">
        <g id="Icons" sketch:type="MSArtboardGroup" transform="translate(-840.000000, -597.000000)">
            <g id="104---Rotate-Vertically-(Flat)" sketch:type="MSLayerGroup" transform="translate(840.000000, 597.000000)">
                <path d="M54.999,17 C54.79,17 54.58,16.935 54.4,16.8 L50.4,13.8 C49.958,13.469 49.868,12.842 50.2,12.4 C50.531,11.958 51.159,11.868 51.6,12.2 L55.6,15.2 C56.042,15.531 56.132,16.158 55.8,16.6 C55.604,16.862 55.304,17 54.999,17" id="Fill-27" fill="#B0B6BB" sketch:type="MSShapeGroup"></path>
                <path d="M55,17 C54.848,17 54.694,16.965 54.553,16.895 C54.214,16.725 54,16.379 54,16 L54,14 C54,7.383 48.617,2 42,2 C41.447,2 41,1.552 41,1 C41,0.448 41.447,0 42,0 C49.72,0 56,6.28 56,14 L58.4,12.2 C58.842,11.867 59.469,11.958 59.8,12.4 C60.132,12.842 60.042,13.469 59.6,13.8 L55.6,16.8 C55.424,16.932 55.212,17 55,17" id="Fill-28" fill="#B0B6BB" sketch:type="MSShapeGroup"></path>
                <path d="M9.999,48 C9.79,48 9.58,47.935 9.4,47.8 L5.4,44.8 C4.958,44.469 4.868,43.842 5.2,43.4 C5.531,42.959 6.159,42.868 6.6,43.2 L10.6,46.2 C11.042,46.531 11.132,47.158 10.8,47.6 C10.604,47.862 10.304,48 9.999,48" id="Fill-29" fill="#B0B6BB" sketch:type="MSShapeGroup"></path>
                <path d="M19,60 C11.28,60 5,53.72 5,46 L2.6,47.8 C2.157,48.132 1.531,48.042 1.2,47.6 C0.868,47.158 0.958,46.531 1.4,46.2 L5.4,43.2 C5.703,42.973 6.109,42.937 6.447,43.105 C6.786,43.275 7,43.621 7,44 L7,46 C7,52.617 12.383,58 19,58 C19.553,58 20,58.448 20,59 C20,59.552 19.553,60 19,60" id="Fill-30" fill="#B0B6BB" sketch:type="MSShapeGroup"></path>
                <path d="M19,20 C18.74,20 18.479,19.89 18.29,19.71 C18.109,19.52 18,19.27 18,19 C18,18.73 18.109,18.48 18.29,18.29 C18.66,17.92 19.33,17.92 19.71,18.29 C19.89,18.48 20,18.73 20,19 C20,19.27 19.89,19.52 19.7,19.71 C19.52,19.89 19.26,20 19,20" id="Fill-39" fill="#556080" sketch:type="MSShapeGroup"></path>
                <path d="M14.399,19 C14.399,18.45 14.85,18 15.399,18 C15.95,18 16.399,18.45 16.399,19 C16.399,19.55 15.95,20 15.399,20 C14.85,20 14.399,19.55 14.399,19 L14.399,19 Z M10.8,19 C10.8,18.45 11.25,18 11.8,18 C12.35,18 12.8,18.45 12.8,19 C12.8,19.55 12.35,20 11.8,20 C11.25,20 10.8,19.55 10.8,19 L10.8,19 Z M7.2,19 C7.2,18.45 7.649,18 8.2,18 C8.75,18 9.2,18.45 9.2,19 C9.2,19.55 8.75,20 8.2,20 C7.649,20 7.2,19.55 7.2,19 L7.2,19 Z M3.6,19 C3.6,18.45 4.05,18 4.6,18 C5.149,18 5.6,18.45 5.6,19 C5.6,19.55 5.149,20 4.6,20 C4.05,20 3.6,19.55 3.6,19 L3.6,19 Z" id="Fill-40" fill="#556080" sketch:type="MSShapeGroup"></path>
                <path d="M1,20 C0.729,20 0.479,19.89 0.29,19.71 C0.109,19.52 0,19.27 0,19 C0,18.73 0.109,18.48 0.29,18.29 C0.66,17.92 1.34,17.92 1.71,18.29 C1.89,18.48 2,18.74 2,19 C2,19.26 1.89,19.52 1.71,19.71 C1.52,19.89 1.269,20 1,20" id="Fill-41" fill="#556080" sketch:type="MSShapeGroup"></path>
                <path d="M0,37.33 C0,36.78 0.45,36.33 1,36.33 C1.55,36.33 2,36.78 2,37.33 C2,37.89 1.55,38.33 1,38.33 C0.45,38.33 0,37.89 0,37.33 L0,37.33 Z M0,33.67 C0,33.11 0.45,32.67 1,32.67 C1.55,32.67 2,33.11 2,33.67 C2,34.22 1.55,34.67 1,34.67 C0.45,34.67 0,34.22 0,33.67 L0,33.67 Z M0,30 C0,29.45 0.45,29 1,29 C1.55,29 2,29.45 2,30 C2,30.55 1.55,31 1,31 C0.45,31 0,30.55 0,30 L0,30 Z M0,26.33 C0,25.78 0.45,25.33 1,25.33 C1.55,25.33 2,25.78 2,26.33 C2,26.89 1.55,27.33 1,27.33 C0.45,27.33 0,26.89 0,26.33 L0,26.33 Z M0,22.67 C0,22.11 0.45,21.67 1,21.67 C1.55,21.67 2,22.11 2,22.67 C2,23.22 1.55,23.67 1,23.67 C0.45,23.67 0,23.22 0,22.67 L0,22.67 Z" id="Fill-42" fill="#556080" sketch:type="MSShapeGroup"></path>
                <path d="M1,42 C0.729,42 0.479,41.89 0.29,41.7 C0.109,41.52 0,41.27 0,41 C0,40.74 0.109,40.48 0.29,40.29 C0.66,39.92 1.34,39.92 1.71,40.29 C1.89,40.48 2,40.74 2,41 C2,41.26 1.89,41.52 1.71,41.71 C1.52,41.89 1.269,42 1,42" id="Fill-43" fill="#556080" sketch:type="MSShapeGroup"></path>
                <path d="M14.399,41 C14.399,40.45 14.85,40 15.399,40 C15.95,40 16.399,40.45 16.399,41 C16.399,41.55 15.95,42 15.399,42 C14.85,42 14.399,41.55 14.399,41 L14.399,41 Z M10.8,41 C10.8,40.45 11.25,40 11.8,40 C12.35,40 12.8,40.45 12.8,41 C12.8,41.55 12.35,42 11.8,42 C11.25,42 10.8,41.55 10.8,41 L10.8,41 Z M7.2,41 C7.2,40.45 7.649,40 8.2,40 C8.75,40 9.2,40.45 9.2,41 C9.2,41.55 8.75,42 8.2,42 C7.649,42 7.2,41.55 7.2,41 L7.2,41 Z M3.6,41 C3.6,40.45 4.05,40 4.6,40 C5.149,40 5.6,40.45 5.6,41 C5.6,41.55 5.149,42 4.6,42 C4.05,42 3.6,41.55 3.6,41 L3.6,41 Z" id="Fill-44" fill="#556080" sketch:type="MSShapeGroup"></path>
                <path d="M19,42 C18.74,42 18.479,41.89 18.29,41.71 C18.109,41.52 18,41.27 18,41 C18,40.73 18.109,40.48 18.29,40.29 C18.67,39.92 19.34,39.92 19.71,40.29 C19.89,40.48 20,40.73 20,41 C20,41.26 19.89,41.52 19.7,41.71 C19.52,41.89 19.26,42 19,42" id="Fill-45" fill="#556080" sketch:type="MSShapeGroup"></path>
                <path d="M18,37.33 C18,36.78 18.45,36.33 19,36.33 C19.55,36.33 20,36.78 20,37.33 C20,37.89 19.55,38.33 19,38.33 C18.45,38.33 18,37.89 18,37.33 L18,37.33 Z M18,33.67 C18,33.11 18.45,32.67 19,32.67 C19.55,32.67 20,33.11 20,33.67 C20,34.22 19.55,34.67 19,34.67 C18.45,34.67 18,34.22 18,33.67 L18,33.67 Z M18,30 C18,29.45 18.45,29 19,29 C19.55,29 20,29.45 20,30 C20,30.55 19.55,31 19,31 C18.45,31 18,30.55 18,30 L18,30 Z M18,26.33 C18,25.78 18.45,25.33 19,25.33 C19.55,25.33 20,25.78 20,26.33 C20,26.89 19.55,27.33 19,27.33 C18.45,27.33 18,26.89 18,26.33 L18,26.33 Z M18,22.67 C18,22.11 18.45,21.67 19,21.67 C19.55,21.67 20,22.11 20,22.67 C20,23.22 19.55,23.67 19,23.67 C18.45,23.67 18,23.22 18,22.67 L18,22.67 Z" id="Fill-46" fill="#556080" sketch:type="MSShapeGroup"></path>
                <path d="M42,20 C41.74,20 41.479,19.89 41.29,19.71 C41.109,19.52 41,19.26 41,19 C41,18.74 41.109,18.48 41.29,18.29 C41.66,17.92 42.34,17.92 42.71,18.29 C42.89,18.47 43,18.73 43,19 C43,19.27 42.89,19.53 42.7,19.71 C42.519,19.89 42.26,20 42,20" id="Fill-47" fill="#556080" sketch:type="MSShapeGroup"></path>
                <path d="M41,37.33 C41,36.78 41.45,36.33 42,36.33 C42.55,36.33 43,36.78 43,37.33 C43,37.89 42.55,38.33 42,38.33 C41.45,38.33 41,37.89 41,37.33 L41,37.33 Z M41,33.67 C41,33.11 41.45,32.67 42,32.67 C42.55,32.67 43,33.11 43,33.67 C43,34.22 42.55,34.67 42,34.67 C41.45,34.67 41,34.22 41,33.67 L41,33.67 Z M41,30 C41,29.45 41.45,29 42,29 C42.55,29 43,29.45 43,30 C43,30.55 42.55,31 42,31 C41.45,31 41,30.55 41,30 L41,30 Z M41,26.33 C41,25.78 41.45,25.33 42,25.33 C42.55,25.33 43,25.78 43,26.33 C43,26.89 42.55,27.33 42,27.33 C41.45,27.33 41,26.89 41,26.33 L41,26.33 Z M41,22.67 C41,22.11 41.45,21.67 42,21.67 C42.55,21.67 43,22.11 43,22.67 C43,23.22 42.55,23.67 42,23.67 C41.45,23.67 41,23.22 41,22.67 L41,22.67 Z" id="Fill-48" fill="#556080" sketch:type="MSShapeGroup"></path>
                <path d="M42,42 C41.74,42 41.479,41.89 41.29,41.71 C41.109,41.52 41,41.26 41,41 C41,40.74 41.109,40.48 41.29,40.29 C41.66,39.92 42.33,39.92 42.71,40.29 C42.89,40.48 43,40.73 43,41 C43,41.27 42.89,41.52 42.7,41.71 C42.519,41.89 42.26,42 42,42" id="Fill-49" fill="#556080" sketch:type="MSShapeGroup"></path>
                <path d="M53.75,41 C53.75,40.45 54.2,40 54.75,40 C55.3,40 55.75,40.45 55.75,41 C55.75,41.55 55.3,42 54.75,42 C54.2,42 53.75,41.55 53.75,41 L53.75,41 Z M49.5,41 C49.5,40.45 49.95,40 50.5,40 C51.05,40 51.5,40.45 51.5,41 C51.5,41.55 51.05,42 50.5,42 C49.95,42 49.5,41.55 49.5,41 L49.5,41 Z M45.25,41 C45.25,40.45 45.7,40 46.25,40 C46.8,40 47.25,40.45 47.25,41 C47.25,41.55 46.8,42 46.25,42 C45.7,42 45.25,41.55 45.25,41 L45.25,41 Z" id="Fill-50" fill="#556080" sketch:type="MSShapeGroup"></path>
                <path d="M59,42 C58.74,42 58.479,41.89 58.29,41.71 C58.109,41.52 58,41.26 58,41 C58,40.74 58.109,40.48 58.29,40.29 C58.66,39.92 59.34,39.92 59.71,40.29 C59.89,40.48 60,40.74 60,41 C60,41.26 59.89,41.52 59.71,41.71 C59.519,41.89 59.27,42 59,42" id="Fill-51" fill="#556080" sketch:type="MSShapeGroup"></path>
                <path d="M58,37.33 C58,36.78 58.45,36.33 59,36.33 C59.55,36.33 60,36.78 60,37.33 C60,37.89 59.55,38.33 59,38.33 C58.45,38.33 58,37.89 58,37.33 L58,37.33 Z M58,33.67 C58,33.11 58.45,32.67 59,32.67 C59.55,32.67 60,33.11 60,33.67 C60,34.22 59.55,34.67 59,34.67 C58.45,34.67 58,34.22 58,33.67 L58,33.67 Z M58,30 C58,29.45 58.45,29 59,29 C59.55,29 60,29.45 60,30 C60,30.55 59.55,31 59,31 C58.45,31 58,30.55 58,30 L58,30 Z M58,26.33 C58,25.78 58.45,25.33 59,25.33 C59.55,25.33 60,25.78 60,26.33 C60,26.89 59.55,27.33 59,27.33 C58.45,27.33 58,26.89 58,26.33 L58,26.33 Z M58,22.67 C58,22.11 58.45,21.67 59,21.67 C59.55,21.67 60,22.11 60,22.67 C60,23.22 59.55,23.67 59,23.67 C58.45,23.67 58,23.22 58,22.67 L58,22.67 Z" id="Fill-52" fill="#556080" sketch:type="MSShapeGroup"></path>
                <path d="M59,20 C58.74,20 58.479,19.89 58.29,19.71 C58.109,19.52 58,19.26 58,19 C58,18.74 58.109,18.48 58.29,18.29 C58.67,17.92 59.33,17.92 59.71,18.29 C59.89,18.48 60,18.74 60,19 C60,19.26 59.89,19.52 59.71,19.71 C59.519,19.89 59.26,20 59,20" id="Fill-53" fill="#556080" sketch:type="MSShapeGroup"></path>
                <path d="M53.75,19 C53.75,18.45 54.2,18 54.75,18 C55.3,18 55.75,18.45 55.75,19 C55.75,19.55 55.3,20 54.75,20 C54.2,20 53.75,19.55 53.75,19 L53.75,19 Z M49.5,19 C49.5,18.45 49.95,18 50.5,18 C51.05,18 51.5,18.45 51.5,19 C51.5,19.55 51.05,20 50.5,20 C49.95,20 49.5,19.55 49.5,19 L49.5,19 Z M45.25,19 C45.25,18.45 45.7,18 46.25,18 C46.8,18 47.25,18.45 47.25,19 C47.25,19.55 46.8,20 46.25,20 C45.7,20 45.25,19.55 45.25,19 L45.25,19 Z" id="Fill-54" fill="#556080" sketch:type="MSShapeGroup"></path>
                <path d="M19,1 L42,1 L42,59 L19,59 L19,1 Z" id="Fill-312" fill="#48A0DC" sketch:type="MSShapeGroup"></path>
                <path d="M18,0 L43,0 L43,60 L18,60 L18,0 Z M20,58 L41,58 L41,2 L20,2 L20,58 Z" id="Fill-313" fill="#48A0DC" sketch:type="MSShapeGroup"></path>
            </g>
        </g>
    </g>
</svg>