<?xml version="1.0" encoding="UTF-8" standalone="no"?>
<svg width="58px" height="58px" viewBox="0 0 58 58" version="1.1" xmlns="http://www.w3.org/2000/svg" xmlns:xlink="http://www.w3.org/1999/xlink" xmlns:sketch="http://www.bohemiancoding.com/sketch/ns">
    <!-- Generator: Sketch 3.3.2 (12043) - http://www.bohemiancoding.com/sketch -->
    <title>7 - Ruler (Flat)</title>
    <desc>Created with Sketch.</desc>
    <defs></defs>
    <g id="Page-1" stroke="none" stroke-width="1" fill="none" fill-rule="evenodd" sketch:type="MSPage">
        <g id="Icons" sketch:type="MSArtboardGroup" transform="translate(-481.000000, -1798.000000)">
            <g id="7---Ruler-(Flat)" sketch:type="MSLayerGroup" transform="translate(481.000000, 1798.000000)">
                <path d="M0,0 L0,58 L58,58 L0,0 L0,0 Z M12,28.971 L29.029,46 L12,46 L12,28.971 L12,28.971 Z" id="Fill-949" fill="#C69E71" sketch:type="MSShapeGroup"></path>
                <path d="M4.959,9.201 C4.568,9.592 4.568,10.225 4.959,10.615 C5.154,10.811 5.41,10.908 5.666,10.908 C5.921,10.908 6.177,10.811 6.373,10.615 L8.494,8.494 L7.08,7.08 L4.959,9.201" id="Fill-950" fill="#A16538" sketch:type="MSShapeGroup"></path>
                <path d="M7.08,15.565 C7.275,15.76 7.531,15.857 7.787,15.857 C8.043,15.857 8.298,15.76 8.494,15.565 L12.029,12.029 L10.615,10.615 L7.08,14.15 C6.689,14.541 6.689,15.174 7.08,15.565" id="Fill-951" fill="#A16538" sketch:type="MSShapeGroup"></path>
                <path d="M12.029,17.687 C12.225,17.882 12.481,17.98 12.736,17.98 C12.992,17.98 13.248,17.882 13.443,17.687 L15.565,15.565 L14.151,14.151 L12.029,16.272 C11.639,16.663 11.639,17.296 12.029,17.687" id="Fill-952" fill="#A16538" sketch:type="MSShapeGroup"></path>
                <path d="M14.151,22.636 C14.346,22.831 14.602,22.929 14.858,22.929 C15.114,22.929 15.37,22.831 15.565,22.636 L19.101,19.101 L17.687,17.687 L14.151,21.222 C13.76,21.612 13.76,22.245 14.151,22.636" id="Fill-953" fill="#A16538" sketch:type="MSShapeGroup"></path>
                <path d="M19.101,24.757 C19.296,24.952 19.552,25.05 19.808,25.05 C20.064,25.05 20.319,24.952 20.515,24.757 L22.636,22.636 L21.222,21.222 L19.101,23.343 C18.71,23.733 18.71,24.366 19.101,24.757" id="Fill-954" fill="#A16538" sketch:type="MSShapeGroup"></path>
                <path d="M21.222,28.293 C20.831,28.684 20.831,29.316 21.222,29.707 C21.417,29.902 21.673,30 21.929,30 C22.185,30 22.44,29.902 22.636,29.707 L26.171,26.172 L26.172,26.172 L24.758,24.758 L21.222,28.293" id="Fill-955" fill="#A16538" sketch:type="MSShapeGroup"></path>
                <path d="M26.172,31.828 C26.367,32.023 26.623,32.121 26.879,32.121 C27.135,32.121 27.391,32.023 27.586,31.828 L29.707,29.707 L28.293,28.293 L26.172,30.414 C25.781,30.805 25.781,31.438 26.172,31.828" id="Fill-956" fill="#A16538" sketch:type="MSShapeGroup"></path>
                <path d="M28.293,36.778 C28.488,36.974 28.744,37.071 29,37.071 C29.256,37.071 29.512,36.974 29.707,36.778 L33.242,33.242 L31.828,31.828 L28.293,35.364 C27.902,35.755 27.902,36.388 28.293,36.778" id="Fill-957" fill="#A16538" sketch:type="MSShapeGroup"></path>
                <path d="M33.243,38.899 C33.438,39.095 33.694,39.192 33.95,39.192 C34.206,39.192 34.461,39.095 34.657,38.899 L36.778,36.778 L35.364,35.364 L33.243,37.485 C32.852,37.876 32.852,38.509 33.243,38.899" id="Fill-958" fill="#A16538" sketch:type="MSShapeGroup"></path>
                <path d="M35.364,43.85 C35.56,44.045 35.815,44.143 36.071,44.143 C36.327,44.143 36.583,44.045 36.778,43.85 L40.313,40.313 L38.899,38.899 L35.364,42.436 C34.974,42.826 34.974,43.459 35.364,43.85" id="Fill-959" fill="#A16538" sketch:type="MSShapeGroup"></path>
                <path d="M40.314,44.557 C39.923,44.947 39.923,45.58 40.314,45.971 C40.509,46.166 40.765,46.264 41.021,46.264 C41.277,46.264 41.533,46.166 41.728,45.971 L43.849,43.85 L43.849,43.849 L42.435,42.435 L42.435,42.436 L40.314,44.557" id="Fill-960" fill="#A16538" sketch:type="MSShapeGroup"></path>
                <path d="M42.435,50.92 C42.63,51.115 42.886,51.213 43.142,51.213 C43.398,51.213 43.654,51.115 43.849,50.92 L47.385,47.385 L45.971,45.971 L42.435,49.506 C42.044,49.896 42.044,50.529 42.435,50.92" id="Fill-961" fill="#A16538" sketch:type="MSShapeGroup"></path>
                <path d="M47.385,53.042 C47.58,53.237 47.836,53.335 48.092,53.335 C48.348,53.335 48.604,53.237 48.799,53.042 L50.92,50.92 L49.506,49.506 L47.385,51.628 C46.994,52.019 46.994,52.651 47.385,53.042" id="Fill-962" fill="#A16538" sketch:type="MSShapeGroup"></path>
            </g>
        </g>
    </g>
</svg>