<?xml version="1.0" encoding="UTF-8" standalone="no"?>
<svg width="59px" height="59px" viewBox="0 0 59 59" version="1.1" xmlns="http://www.w3.org/2000/svg" xmlns:xlink="http://www.w3.org/1999/xlink" xmlns:sketch="http://www.bohemiancoding.com/sketch/ns">
    <!-- Generator: Sketch 3.3.2 (12043) - http://www.bohemiancoding.com/sketch -->
    <title>64 - Scale (Flat)</title>
    <desc>Created with Sketch.</desc>
    <defs></defs>
    <g id="Page-1" stroke="none" stroke-width="1" fill="none" fill-rule="evenodd" sketch:type="MSPage">
        <g id="Icons" sketch:type="MSArtboardGroup" transform="translate(-841.000000, -1077.000000)">
            <g id="64---Scale-(Flat)" sketch:type="MSLayerGroup" transform="translate(841.000000, 1077.000000)">
                <path d="M22,48 C22,54.075 17.075,59 11,59 C4.925,59 0,54.075 0,48 C0,41.925 4.925,37 11,37 C17.075,37 22,41.925 22,48" id="Fill-474" fill="#25B99A" sketch:type="MSShapeGroup"></path>
                <path d="M33.5,51 C33.398,51 33.297,50.997 33.195,50.993 L33.03,50.988 C32.479,50.977 32.039,50.521 32.05,49.969 C32.061,49.423 32.506,48.988 33.05,48.988 L33.069,48.988 L33.5,49 C33.677,49 33.852,48.998 34.028,48.994 L34.05,48.994 C34.593,48.994 35.038,49.428 35.05,49.973 C35.062,50.525 34.623,50.982 34.071,50.994 C33.882,50.998 33.69,51 33.5,51 L33.5,51 Z M38.021,50.584 C37.549,50.584 37.129,50.249 37.039,49.769 C36.937,49.226 37.294,48.703 37.837,48.602 C38.153,48.542 38.468,48.476 38.779,48.405 C39.316,48.286 39.854,48.622 39.976,49.16 C40.097,49.699 39.759,50.234 39.221,50.356 C38.884,50.433 38.546,50.503 38.206,50.566 C38.144,50.578 38.081,50.584 38.021,50.584 L38.021,50.584 Z M42.81,49.169 C42.417,49.169 42.044,48.935 41.886,48.549 C41.676,48.037 41.92,47.453 42.431,47.244 C42.728,47.122 43.021,46.994 43.311,46.86 C43.815,46.628 44.407,46.849 44.638,47.35 C44.869,47.852 44.649,48.445 44.148,48.677 C43.833,48.822 43.513,48.962 43.19,49.094 C43.065,49.146 42.938,49.169 42.81,49.169 L42.81,49.169 Z M47.211,46.808 C46.89,46.808 46.574,46.653 46.381,46.367 C46.072,45.909 46.192,45.288 46.65,44.979 C46.915,44.8 47.176,44.616 47.434,44.426 C47.878,44.098 48.504,44.192 48.832,44.637 C49.16,45.081 49.065,45.707 48.621,46.035 C48.342,46.241 48.058,46.442 47.77,46.637 C47.598,46.752 47.403,46.808 47.211,46.808 L47.211,46.808 Z M51.039,43.606 C50.787,43.606 50.535,43.512 50.341,43.322 C49.945,42.937 49.937,42.304 50.323,41.908 C50.546,41.68 50.765,41.446 50.979,41.208 C51.348,40.798 51.982,40.763 52.391,41.132 C52.802,41.501 52.836,42.133 52.467,42.544 C52.233,42.804 51.997,43.057 51.755,43.305 C51.559,43.506 51.299,43.606 51.039,43.606 L51.039,43.606 Z M54.143,39.7 C53.958,39.7 53.771,39.649 53.604,39.542 C53.139,39.244 53.004,38.625 53.302,38.16 C53.474,37.892 53.641,37.619 53.802,37.344 C54.081,36.865 54.694,36.707 55.17,36.985 C55.646,37.265 55.807,37.877 55.528,38.354 C55.354,38.652 55.173,38.948 54.985,39.24 C54.795,39.538 54.472,39.7 54.143,39.7 L54.143,39.7 Z M56.392,35.249 C56.273,35.249 56.151,35.227 56.033,35.183 C55.518,34.984 55.26,34.406 55.458,33.891 C55.572,33.594 55.68,33.293 55.781,32.989 C55.957,32.468 56.521,32.188 57.049,32.36 C57.572,32.537 57.854,33.104 57.678,33.628 C57.566,33.957 57.449,34.283 57.325,34.607 C57.173,35.005 56.794,35.249 56.392,35.249 L56.392,35.249 Z M57.688,30.432 C57.635,30.432 57.582,30.428 57.528,30.419 C56.982,30.331 56.611,29.818 56.699,29.273 C56.75,28.958 56.794,28.641 56.832,28.321 C56.898,27.773 57.394,27.381 57.945,27.448 C58.493,27.515 58.884,28.013 58.818,28.562 C58.776,28.906 58.729,29.249 58.674,29.59 C58.595,30.082 58.17,30.432 57.688,30.432 L57.688,30.432 Z M9,26.526 C8.447,26.526 8,26.106 8,25.553 C8,25.17 8.006,24.843 8.019,24.516 C8.039,23.963 8.514,23.525 9.055,23.554 C9.606,23.574 10.037,24.038 10.017,24.59 C10.006,24.892 10,25.195 10,25.5 C10,26.053 9.553,26.526 9,26.526 L9,26.526 Z M57.977,25.449 C57.443,25.449 57,25.028 56.979,24.49 C56.965,24.171 56.945,23.853 56.919,23.536 C56.872,22.986 57.279,22.502 57.83,22.455 C58.369,22.394 58.864,22.815 58.911,23.366 C58.941,23.712 58.963,24.06 58.977,24.408 C58.999,24.96 58.57,25.426 58.019,25.448 C58.005,25.449 57.99,25.449 57.977,25.449 L57.977,25.449 Z M9.493,21.588 C9.428,21.588 9.36,21.582 9.294,21.568 C8.753,21.458 8.402,20.931 8.512,20.39 C8.581,20.048 8.657,19.709 8.74,19.374 C8.871,18.838 9.415,18.507 9.949,18.642 C10.485,18.773 10.813,19.315 10.682,19.851 C10.606,20.16 10.536,20.472 10.473,20.786 C10.376,21.261 9.959,21.588 9.493,21.588 L9.493,21.588 Z M57.263,20.512 C56.815,20.512 56.407,20.209 56.294,19.754 C56.216,19.444 56.132,19.138 56.042,18.833 C55.884,18.304 56.185,17.747 56.715,17.59 C57.246,17.432 57.801,17.733 57.958,18.263 C58.058,18.595 58.149,18.931 58.233,19.269 C58.368,19.805 58.042,20.348 57.506,20.481 C57.425,20.502 57.343,20.512 57.263,20.512 L57.263,20.512 Z M10.984,16.825 C10.852,16.825 10.718,16.799 10.588,16.743 C10.081,16.524 9.848,15.937 10.066,15.429 C10.203,15.111 10.347,14.796 10.496,14.485 C10.734,13.988 11.33,13.775 11.83,14.017 C12.328,14.256 12.538,14.854 12.299,15.351 C12.161,15.638 12.029,15.928 11.902,16.222 C11.739,16.6 11.371,16.825 10.984,16.825 L10.984,16.825 Z M55.558,15.82 C55.185,15.82 54.829,15.612 54.656,15.256 C54.517,14.967 54.371,14.683 54.22,14.4 C53.959,13.913 54.143,13.308 54.63,13.047 C55.117,12.787 55.723,12.97 55.983,13.457 C56.146,13.763 56.306,14.072 56.457,14.385 C56.697,14.882 56.489,15.481 55.992,15.721 C55.852,15.788 55.703,15.82 55.558,15.82 L55.558,15.82 Z M13.41,12.47 C13.212,12.47 13.013,12.411 12.838,12.289 C12.385,11.973 12.275,11.349 12.592,10.896 C12.791,10.611 12.996,10.332 13.206,10.056 C13.543,9.618 14.169,9.533 14.608,9.868 C15.047,10.204 15.131,10.831 14.796,11.271 C14.602,11.523 14.414,11.781 14.231,12.043 C14.036,12.321 13.726,12.47 13.41,12.47 L13.41,12.47 Z M52.932,11.574 C52.631,11.574 52.334,11.44 52.138,11.183 C51.942,10.93 51.742,10.681 51.537,10.435 C51.184,10.012 51.239,9.381 51.663,9.026 C52.089,8.673 52.719,8.731 53.072,9.152 C53.295,9.419 53.513,9.69 53.724,9.966 C54.06,10.403 53.978,11.031 53.539,11.367 C53.358,11.507 53.144,11.574 52.932,11.574 L52.932,11.574 Z M16.672,8.693 C16.407,8.693 16.143,8.589 15.946,8.381 C15.566,7.981 15.583,7.348 15.984,6.968 C16.236,6.729 16.493,6.495 16.755,6.268 C17.17,5.905 17.802,5.947 18.166,6.364 C18.529,6.781 18.485,7.412 18.069,7.775 C17.829,7.985 17.592,8.199 17.359,8.419 C17.166,8.602 16.919,8.693 16.672,8.693 L16.672,8.693 Z M49.502,7.947 C49.27,7.947 49.037,7.867 48.848,7.704 C48.607,7.496 48.361,7.292 48.112,7.095 C47.679,6.753 47.606,6.124 47.948,5.69 C48.29,5.257 48.919,5.183 49.352,5.526 C49.625,5.741 49.893,5.963 50.156,6.19 C50.573,6.552 50.62,7.184 50.259,7.602 C50.061,7.83 49.782,7.947 49.502,7.947 L49.502,7.947 Z M20.629,5.65 C20.294,5.65 19.967,5.482 19.777,5.177 C19.487,4.707 19.632,4.091 20.102,3.8 C20.398,3.617 20.696,3.44 20.999,3.269 C21.481,2.997 22.091,3.169 22.361,3.649 C22.633,4.131 22.463,4.74 21.981,5.012 C21.702,5.169 21.427,5.332 21.154,5.501 C20.99,5.602 20.809,5.65 20.629,5.65 L20.629,5.65 Z M45.413,5.087 C45.248,5.087 45.081,5.046 44.926,4.96 C44.648,4.805 44.367,4.655 44.084,4.513 C43.59,4.264 43.392,3.663 43.64,3.17 C43.888,2.676 44.491,2.478 44.982,2.726 C45.293,2.882 45.6,3.045 45.902,3.214 C46.384,3.483 46.557,4.093 46.287,4.575 C46.104,4.902 45.764,5.087 45.413,5.087 L45.413,5.087 Z M25.119,3.472 C24.712,3.472 24.329,3.222 24.181,2.816 C23.99,2.298 24.256,1.724 24.774,1.533 C25.102,1.413 25.432,1.301 25.766,1.194 C26.289,1.026 26.854,1.318 27.021,1.845 C27.188,2.371 26.898,2.933 26.371,3.101 C26.066,3.197 25.764,3.3 25.464,3.41 C25.351,3.452 25.233,3.472 25.119,3.472 L25.119,3.472 Z M40.832,3.115 C40.733,3.115 40.632,3.101 40.532,3.069 C40.229,2.974 39.921,2.885 39.611,2.802 C39.078,2.658 38.762,2.109 38.905,1.576 C39.049,1.043 39.601,0.727 40.131,0.87 C40.468,0.961 40.801,1.058 41.132,1.161 C41.658,1.326 41.951,1.888 41.786,2.415 C41.652,2.842 41.258,3.115 40.832,3.115 L40.832,3.115 Z M29.96,2.254 C29.472,2.254 29.044,1.896 28.972,1.398 C28.892,0.852 29.271,0.344 29.816,0.265 C30.159,0.215 30.504,0.172 30.851,0.136 C31.406,0.085 31.892,0.479 31.948,1.028 C32.004,1.578 31.604,2.069 31.056,2.126 C30.736,2.158 30.419,2.197 30.106,2.243 C30.057,2.251 30.008,2.254 29.96,2.254 L29.96,2.254 Z M35.944,2.12 C35.912,2.12 35.879,2.118 35.846,2.115 C35.529,2.084 35.21,2.059 34.888,2.04 C34.337,2.008 33.916,1.535 33.948,0.983 C33.979,0.433 34.43,0.013 35.005,0.044 C35.352,0.065 35.697,0.092 36.041,0.125 C36.59,0.179 36.992,0.668 36.938,1.217 C36.889,1.734 36.453,2.12 35.944,2.12 L35.944,2.12 Z" id="Fill-475" fill="#7383BF" sketch:type="MSShapeGroup"></path>
                <path d="M21,21 C11.611,21 4,28.611 4,38 C4,38.492 4.034,38.975 4.08,39.455 C5.97,37.922 8.377,37 11,37 C17.075,37 22,41.925 22,48 C22,50.623 21.078,53.03 19.545,54.92 C20.025,54.966 20.508,55 21,55 C30.389,55 38,47.389 38,38 C38,28.611 30.389,21 21,21" id="Fill-476" fill="#7383BF" sketch:type="MSShapeGroup"></path>
            </g>
        </g>
    </g>
</svg>