<?xml version="1.0" encoding="UTF-8" standalone="no"?>
<svg width="60px" height="60px" viewBox="0 0 60 60" version="1.1" xmlns="http://www.w3.org/2000/svg" xmlns:xlink="http://www.w3.org/1999/xlink" xmlns:sketch="http://www.bohemiancoding.com/sketch/ns">
    <!-- Generator: Sketch 3.3.2 (12043) - http://www.bohemiancoding.com/sketch -->
    <title>45 - Select Multiform Marquee Tool (Flat)</title>
    <desc>Created with Sketch.</desc>
    <defs></defs>
    <g id="Page-1" stroke="none" stroke-width="1" fill="none" fill-rule="evenodd" sketch:type="MSPage">
        <g id="Icons" sketch:type="MSArtboardGroup" transform="translate(-720.000000, -1317.000000)" fill="#7383BF">
            <g id="45---Select-Multiform-Marquee-Tool-(Flat)" sketch:type="MSLayerGroup" transform="translate(719.000000, 1317.000000)">
                <path d="M27.528,49.952 C27.004,49.952 26.563,49.544 26.531,49.014 C26.497,48.462 26.917,47.987 27.468,47.954 C27.788,47.935 28.107,47.907 28.425,47.874 C28.982,47.819 29.467,48.213 29.524,48.763 C29.583,49.313 29.185,49.805 28.636,49.862 C28.289,49.899 27.94,49.929 27.591,49.95 C27.569,49.951 27.549,49.952 27.528,49.952 L27.528,49.952 Z M23.517,49.873 C23.482,49.873 23.448,49.871 23.414,49.868 C23.065,49.832 22.719,49.789 22.373,49.738 C21.826,49.658 21.448,49.149 21.529,48.604 C21.609,48.058 22.117,47.671 22.664,47.76 C22.981,47.807 23.298,47.846 23.617,47.878 C24.167,47.935 24.566,48.426 24.511,48.975 C24.458,49.489 24.023,49.873 23.517,49.873 L23.517,49.873 Z M32.472,49.118 C32.035,49.118 31.634,48.829 31.51,48.388 C31.36,47.857 31.671,47.305 32.203,47.155 C32.514,47.068 32.82,46.976 33.124,46.876 C33.653,46.708 34.215,46.992 34.386,47.517 C34.557,48.042 34.269,48.607 33.745,48.778 C33.414,48.886 33.08,48.986 32.742,49.081 C32.652,49.106 32.562,49.118 32.472,49.118 L32.472,49.118 Z M18.609,48.84 C18.508,48.84 18.404,48.824 18.302,48.791 C17.969,48.684 17.638,48.568 17.31,48.448 C16.793,48.256 16.527,47.682 16.719,47.163 C16.91,46.646 17.488,46.382 18.004,46.571 C18.306,46.684 18.609,46.789 18.917,46.889 C19.442,47.059 19.731,47.622 19.56,48.147 C19.424,48.57 19.031,48.84 18.609,48.84 L18.609,48.84 Z M37.134,47.267 C36.774,47.267 36.427,47.072 36.248,46.732 C35.99,46.243 36.179,45.639 36.667,45.382 C36.952,45.232 37.233,45.077 37.512,44.916 C37.987,44.64 38.601,44.803 38.878,45.282 C39.154,45.76 38.99,46.372 38.512,46.648 C38.212,46.821 37.907,46.989 37.599,47.151 C37.45,47.23 37.291,47.267 37.134,47.267 L37.134,47.267 Z M14.023,46.803 C13.852,46.803 13.681,46.76 13.523,46.669 C13.221,46.494 12.922,46.314 12.628,46.127 C12.161,45.832 12.023,45.214 12.318,44.747 C12.613,44.28 13.231,44.141 13.698,44.438 C13.969,44.608 14.244,44.775 14.523,44.937 C15.002,45.213 15.166,45.824 14.89,46.303 C14.704,46.623 14.368,46.803 14.023,46.803 L14.023,46.803 Z M41.307,44.487 C41.019,44.487 40.733,44.364 40.536,44.126 C40.184,43.701 40.242,43.07 40.667,42.718 C40.914,42.513 41.157,42.303 41.396,42.088 C41.806,41.719 42.437,41.749 42.808,42.16 C43.178,42.57 43.146,43.203 42.735,43.572 C42.476,43.807 42.213,44.034 41.944,44.257 C41.758,44.412 41.531,44.487 41.307,44.487 L41.307,44.487 Z M9.962,43.855 C9.724,43.855 9.484,43.771 9.294,43.599 C9.034,43.365 8.78,43.127 8.53,42.883 C8.135,42.497 8.127,41.864 8.513,41.469 C8.899,41.073 9.532,41.067 9.927,41.451 C10.157,41.676 10.392,41.896 10.63,42.11 C11.041,42.479 11.075,43.111 10.706,43.522 C10.509,43.742 10.235,43.855 9.962,43.855 L9.962,43.855 Z M44.812,40.903 C44.595,40.903 44.375,40.833 44.191,40.688 C43.759,40.345 43.685,39.716 44.028,39.282 C44.227,39.03 44.423,38.775 44.612,38.515 C44.936,38.067 45.562,37.969 46.009,38.294 C46.455,38.618 46.555,39.243 46.229,39.69 C46.024,39.973 45.813,40.251 45.597,40.524 C45.399,40.773 45.106,40.903 44.812,40.903 L44.812,40.903 Z M6.602,40.134 C6.294,40.134 5.989,39.991 5.794,39.723 C5.589,39.441 5.39,39.156 5.195,38.867 C4.889,38.408 5.011,37.787 5.47,37.48 C5.928,37.173 6.549,37.294 6.857,37.754 C7.036,38.022 7.22,38.285 7.409,38.545 C7.735,38.991 7.637,39.616 7.19,39.941 C7.013,40.071 6.807,40.134 6.602,40.134 L6.602,40.134 Z M47.503,36.67 C47.354,36.67 47.202,36.637 47.059,36.565 C46.565,36.319 46.362,35.72 46.608,35.225 C46.752,34.937 46.889,34.646 47.019,34.352 C47.244,33.848 47.833,33.618 48.34,33.846 C48.845,34.07 49.071,34.661 48.846,35.166 C48.703,35.485 48.555,35.802 48.399,36.115 C48.225,36.467 47.871,36.67 47.503,36.67 L47.503,36.67 Z M4.086,35.799 C3.704,35.799 3.339,35.579 3.173,35.208 C3.03,34.891 2.894,34.57 2.766,34.247 C2.56,33.734 2.81,33.152 3.323,32.947 C3.836,32.741 4.418,32.992 4.623,33.505 C4.742,33.803 4.866,34.098 4.997,34.39 C5.224,34.894 4.998,35.485 4.494,35.711 C4.361,35.771 4.223,35.799 4.086,35.799 L4.086,35.799 Z M49.254,31.966 C49.171,31.966 49.088,31.956 49.004,31.935 C48.47,31.797 48.148,31.252 48.284,30.717 C48.363,30.408 48.437,30.096 48.503,29.781 C48.617,29.241 49.148,28.895 49.688,29.009 C50.227,29.123 50.574,29.653 50.46,30.193 C50.388,30.537 50.309,30.877 50.222,31.215 C50.106,31.666 49.699,31.966 49.254,31.966 L49.254,31.966 Z M2.528,31.035 C2.066,31.035 1.651,30.713 1.551,30.243 C1.479,29.903 1.413,29.562 1.355,29.216 C1.261,28.672 1.627,28.155 2.172,28.063 C2.717,27.973 3.232,28.336 3.325,28.88 C3.38,29.198 3.44,29.515 3.508,29.827 C3.622,30.367 3.277,30.898 2.737,31.014 C2.667,31.028 2.598,31.035 2.528,31.035 L2.528,31.035 Z M49.981,27.005 C49.967,27.005 49.952,27.005 49.938,27.004 C49.387,26.981 48.958,26.516 48.981,25.964 C48.993,25.645 49,25.323 49,25 C49,24.447 49.447,23.952 50,23.952 C50.553,23.952 51,24.352 51,24.904 L51,25 C51,25.351 50.993,25.699 50.979,26.046 C50.957,26.584 50.514,27.005 49.981,27.005 L49.981,27.005 Z M1.999,26.023 C1.447,26.023 0.999,25.601 0.999,25.048 C0.999,25.028 1.001,24.961 1.002,24.941 C1,24.666 1.006,24.335 1.019,24.004 C1.041,23.451 1.509,23.001 2.059,23.045 C2.61,23.066 3.04,23.532 3.018,24.084 C3.006,24.388 3,24.693 3,25 C3,25.553 2.552,26.023 1.999,26.023 L1.999,26.023 Z M49.651,21.906 C49.174,21.906 48.751,21.563 48.667,21.077 C48.611,20.759 48.551,20.442 48.483,20.13 C48.367,19.59 48.71,19.058 49.25,18.941 C49.795,18.823 50.323,19.169 50.438,19.708 C50.512,20.048 50.578,20.39 50.638,20.735 C50.732,21.279 50.367,21.797 49.823,21.892 C49.766,21.901 49.708,21.906 49.651,21.906 L49.651,21.906 Z M2.51,21.061 C2.442,21.061 2.374,21.054 2.306,21.04 C1.765,20.928 1.417,20.397 1.529,19.857 C1.602,19.513 1.68,19.172 1.767,18.833 C1.904,18.298 2.45,17.979 2.984,18.113 C3.519,18.251 3.841,18.796 3.704,19.331 C3.625,19.639 3.553,19.95 3.488,20.264 C3.39,20.736 2.974,21.061 2.51,21.061 L2.51,21.061 Z M48.287,17.079 C47.892,17.079 47.517,16.843 47.359,16.452 C47.239,16.154 47.114,15.859 46.982,15.567 C46.756,15.065 46.981,14.472 47.484,14.245 C47.987,14.019 48.58,14.243 48.807,14.747 C48.948,15.063 49.085,15.383 49.215,15.706 C49.421,16.218 49.173,16.801 48.66,17.007 C48.538,17.056 48.412,17.079 48.287,17.079 L48.287,17.079 Z M4.046,16.285 C3.911,16.285 3.774,16.258 3.644,16.2 C3.138,15.978 2.909,15.387 3.132,14.882 C3.273,14.561 3.422,14.244 3.577,13.931 C3.821,13.436 4.42,13.232 4.916,13.477 C5.411,13.721 5.615,14.32 5.37,14.815 C5.229,15.104 5.092,15.395 4.962,15.689 C4.797,16.063 4.431,16.285 4.046,16.285 L4.046,16.285 Z M45.948,12.649 C45.626,12.649 45.31,12.494 45.116,12.206 C44.937,11.939 44.753,11.676 44.565,11.418 C44.238,10.972 44.335,10.347 44.78,10.021 C45.229,9.692 45.853,9.791 46.178,10.236 C46.384,10.518 46.584,10.803 46.778,11.093 C47.085,11.552 46.963,12.173 46.504,12.481 C46.333,12.595 46.14,12.649 45.948,12.649 L45.948,12.649 Z M6.549,11.937 C6.346,11.937 6.141,11.875 5.964,11.747 C5.517,11.423 5.416,10.798 5.739,10.351 C5.944,10.067 6.155,9.788 6.372,9.514 C6.715,9.082 7.345,9.008 7.777,9.351 C8.21,9.693 8.283,10.322 7.94,10.756 C7.741,11.007 7.548,11.263 7.36,11.523 C7.165,11.793 6.859,11.937 6.549,11.937 L6.549,11.937 Z M42.737,8.799 C42.486,8.799 42.234,8.705 42.04,8.516 C41.81,8.292 41.575,8.073 41.335,7.858 C40.924,7.49 40.889,6.858 41.257,6.446 C41.625,6.034 42.257,6 42.669,6.368 C42.929,6.601 43.184,6.839 43.435,7.082 C43.83,7.467 43.84,8.1 43.454,8.496 C43.259,8.697 42.998,8.799 42.737,8.799 L42.737,8.799 Z M9.899,8.202 C9.627,8.202 9.356,8.092 9.158,7.873 C8.787,7.464 8.818,6.832 9.229,6.461 C9.486,6.227 9.75,5.998 10.018,5.775 C10.441,5.423 11.071,5.48 11.426,5.904 C11.779,6.328 11.722,6.959 11.297,7.313 C11.051,7.518 10.809,7.729 10.57,7.943 C10.379,8.117 10.139,8.202 9.899,8.202 L9.899,8.202 Z M38.797,5.693 C38.613,5.693 38.429,5.644 38.262,5.538 C37.991,5.366 37.717,5.201 37.438,5.041 C36.96,4.767 36.794,4.155 37.069,3.676 C37.343,3.197 37.954,3.032 38.435,3.307 C38.738,3.481 39.038,3.661 39.334,3.849 C39.8,4.145 39.939,4.763 39.643,5.23 C39.452,5.529 39.128,5.693 38.797,5.693 L38.797,5.693 Z M13.946,5.242 C13.602,5.242 13.267,5.064 13.081,4.744 C12.803,4.267 12.966,3.655 13.443,3.378 C13.743,3.203 14.049,3.034 14.356,2.871 C14.844,2.614 15.449,2.801 15.708,3.289 C15.966,3.777 15.778,4.382 15.29,4.641 C15.006,4.79 14.726,4.945 14.447,5.107 C14.29,5.198 14.117,5.242 13.946,5.242 L13.946,5.242 Z M34.299,3.473 C34.184,3.473 34.067,3.453 33.953,3.411 C33.651,3.3 33.348,3.195 33.041,3.097 C32.515,2.929 32.225,2.365 32.394,1.84 C32.562,1.315 33.122,1.025 33.65,1.192 C33.984,1.299 34.315,1.413 34.644,1.534 C35.163,1.726 35.428,2.3 35.237,2.818 C35.088,3.223 34.706,3.473 34.299,3.473 L34.299,3.473 Z M18.519,3.188 C18.1,3.188 17.708,2.922 17.569,2.501 C17.398,1.977 17.683,1.411 18.207,1.238 C18.538,1.13 18.872,1.027 19.21,0.933 C19.744,0.786 20.294,1.093 20.443,1.625 C20.593,2.156 20.282,2.709 19.751,2.858 C19.442,2.945 19.136,3.038 18.832,3.139 C18.729,3.173 18.623,3.188 18.519,3.188 L18.519,3.188 Z M29.435,2.244 C29.389,2.244 29.342,2.241 29.294,2.234 C28.977,2.19 28.657,2.149 28.335,2.117 C27.785,2.06 27.386,1.57 27.441,1.021 C27.498,0.472 27.998,0.086 28.538,0.127 C28.886,0.163 29.231,0.205 29.575,0.254 C30.122,0.331 30.502,0.838 30.425,1.385 C30.354,1.884 29.926,2.244 29.435,2.244 L29.435,2.244 Z M23.421,2.138 C22.916,2.138 22.481,1.757 22.428,1.243 C22.369,0.693 22.768,0.201 23.316,0.144 C23.661,0.106 24.008,0.077 24.356,0.054 C24.935,0.026 25.384,0.436 25.421,0.984 C25.458,1.536 25.041,2.013 24.49,2.05 C24.168,2.071 23.847,2.099 23.527,2.132 C23.491,2.136 23.456,2.138 23.421,2.138 L23.421,2.138 Z" id="Fill-483" sketch:type="MSShapeGroup"></path>
                <path d="M61,60 L59.5,60 C58.947,60 58.5,59.553 58.5,59 C58.5,58.595 58.741,58.245 59.088,58.088 C59.245,57.741 59.595,57.5 60,57.5 C60.553,57.5 61,57.947 61,58.5 L61,60" id="Fill-484" sketch:type="MSShapeGroup"></path>
                <path d="M55.705,60 L54.757,60 C54.204,60 53.757,59.553 53.757,59 C53.757,58.447 54.204,58 54.757,58 L55.705,58 C56.258,58 56.705,58.447 56.705,59 C56.705,59.553 56.258,60 55.705,60 L55.705,60 Z M50.962,60 L50.013,60 C49.46,60 49.013,59.553 49.013,59 C49.013,58.447 49.46,58 50.013,58 L50.962,58 C51.515,58 51.962,58.447 51.962,59 C51.962,59.553 51.515,60 50.962,60 L50.962,60 Z M46.218,60 L45.27,60 C44.717,60 44.269,59.553 44.269,59 C44.269,58.447 44.717,58 45.27,58 L46.218,58 C46.771,58 47.218,58.447 47.218,59 C47.218,59.553 46.771,60 46.218,60 L46.218,60 Z M41.475,60 L40.525,60 C39.973,60 39.525,59.553 39.525,59 C39.525,58.447 39.973,58 40.525,58 L41.475,58 C42.027,58 42.475,58.447 42.475,59 C42.475,59.553 42.027,60 41.475,60 L41.475,60 Z M36.731,60 L35.782,60 C35.229,60 34.782,59.553 34.782,59 C34.782,58.447 35.229,58 35.782,58 L36.731,58 C37.283,58 37.731,58.447 37.731,59 C37.731,59.553 37.283,60 36.731,60 L36.731,60 Z M31.987,60 L31.038,60 C30.485,60 30.038,59.553 30.038,59 C30.038,58.447 30.485,58 31.038,58 L31.987,58 C32.54,58 32.987,58.447 32.987,59 C32.987,59.553 32.54,60 31.987,60 L31.987,60 Z M27.243,60 L26.295,60 C25.742,60 25.295,59.553 25.295,59 C25.295,58.447 25.742,58 26.295,58 L27.243,58 C27.796,58 28.243,58.447 28.243,59 C28.243,59.553 27.796,60 27.243,60 L27.243,60 Z" id="Fill-485" sketch:type="MSShapeGroup"></path>
                <path d="M22.5,60 L21,60 L21,58.5 C21,57.947 21.447,57.5 22,57.5 C22.405,57.5 22.755,57.741 22.912,58.088 C23.259,58.245 23.5,58.595 23.5,59 C23.5,59.553 23.053,60 22.5,60" id="Fill-486" sketch:type="MSShapeGroup"></path>
                <path d="M22,55.705 C21.447,55.705 21,55.258 21,54.705 L21,53.757 C21,53.204 21.447,52.757 22,52.757 C22.553,52.757 23,53.204 23,53.757 L23,54.705 C23,55.258 22.553,55.705 22,55.705 L22,55.705 Z M22,50.962 C21.447,50.962 21,50.515 21,49.962 L21,49.013 C21,48.46 21.447,48.013 22,48.013 C22.553,48.013 23,48.46 23,49.013 L23,49.962 C23,50.515 22.553,50.962 22,50.962 L22,50.962 Z M22,46.218 C21.447,46.218 21,45.771 21,45.218 L21,44.27 C21,43.717 21.447,43.27 22,43.27 C22.553,43.27 23,43.717 23,44.27 L23,45.218 C23,45.771 22.553,46.218 22,46.218 L22,46.218 Z M22,41.475 C21.447,41.475 21,41.027 21,40.475 L21,39.525 C21,38.973 21.447,38.525 22,38.525 C22.553,38.525 23,38.973 23,39.525 L23,40.475 C23,41.027 22.553,41.475 22,41.475 L22,41.475 Z M22,36.73 C21.447,36.73 21,36.283 21,35.731 L21,34.782 C21,34.229 21.447,33.782 22,33.782 C22.553,33.782 23,34.229 23,34.782 L23,35.731 C23,36.283 22.553,36.73 22,36.73 L22,36.73 Z M22,31.987 C21.447,31.987 21,31.54 21,30.987 L21,30.038 C21,29.485 21.447,29.038 22,29.038 C22.553,29.038 23,29.485 23,30.038 L23,30.987 C23,31.54 22.553,31.987 22,31.987 L22,31.987 Z M22,27.243 C21.447,27.243 21,26.796 21,26.243 L21,25.295 C21,24.742 21.447,24.295 22,24.295 C22.553,24.295 23,24.742 23,25.295 L23,26.243 C23,26.796 22.553,27.243 22,27.243 L22,27.243 Z" id="Fill-487" sketch:type="MSShapeGroup"></path>
                <path d="M22,22.5 C21.447,22.5 21,22.053 21,21.5 L21,20 L22.5,20 C23.053,20 23.5,20.447 23.5,21 C23.5,21.405 23.259,21.755 22.912,21.912 C22.755,22.259 22.405,22.5 22,22.5" id="Fill-488" sketch:type="MSShapeGroup"></path>
                <path d="M55.705,22 L54.757,22 C54.204,22 53.757,21.553 53.757,21 C53.757,20.447 54.204,20 54.757,20 L55.705,20 C56.258,20 56.705,20.447 56.705,21 C56.705,21.553 56.258,22 55.705,22 L55.705,22 Z M50.962,22 L50.013,22 C49.46,22 49.013,21.553 49.013,21 C49.013,20.447 49.46,20 50.013,20 L50.962,20 C51.515,20 51.962,20.447 51.962,21 C51.962,21.553 51.515,22 50.962,22 L50.962,22 Z M46.218,22 L45.27,22 C44.717,22 44.269,21.553 44.269,21 C44.269,20.447 44.717,20 45.27,20 L46.218,20 C46.771,20 47.218,20.447 47.218,21 C47.218,21.553 46.771,22 46.218,22 L46.218,22 Z M41.475,22 L40.525,22 C39.973,22 39.525,21.553 39.525,21 C39.525,20.447 39.973,20 40.525,20 L41.475,20 C42.027,20 42.475,20.447 42.475,21 C42.475,21.553 42.027,22 41.475,22 L41.475,22 Z M36.731,22 L35.782,22 C35.229,22 34.782,21.553 34.782,21 C34.782,20.447 35.229,20 35.782,20 L36.731,20 C37.283,20 37.731,20.447 37.731,21 C37.731,21.553 37.283,22 36.731,22 L36.731,22 Z M31.987,22 L31.038,22 C30.485,22 30.038,21.553 30.038,21 C30.038,20.447 30.485,20 31.038,20 L31.987,20 C32.54,20 32.987,20.447 32.987,21 C32.987,21.553 32.54,22 31.987,22 L31.987,22 Z M27.243,22 L26.295,22 C25.742,22 25.295,21.553 25.295,21 C25.295,20.447 25.742,20 26.295,20 L27.243,20 C27.796,20 28.243,20.447 28.243,21 C28.243,21.553 27.796,22 27.243,22 L27.243,22 Z" id="Fill-489" sketch:type="MSShapeGroup"></path>
                <path d="M60,22.5 C59.595,22.5 59.245,22.259 59.088,21.912 C58.741,21.755 58.5,21.405 58.5,21 C58.5,20.447 58.947,20 59.5,20 L61,20 L61,21.5 C61,22.053 60.553,22.5 60,22.5" id="Fill-490" sketch:type="MSShapeGroup"></path>
                <path d="M60,55.705 C59.447,55.705 59,55.258 59,54.705 L59,53.757 C59,53.204 59.447,52.757 60,52.757 C60.553,52.757 61,53.204 61,53.757 L61,54.705 C61,55.258 60.553,55.705 60,55.705 L60,55.705 Z M60,50.962 C59.447,50.962 59,50.515 59,49.962 L59,49.013 C59,48.46 59.447,48.013 60,48.013 C60.553,48.013 61,48.46 61,49.013 L61,49.962 C61,50.515 60.553,50.962 60,50.962 L60,50.962 Z M60,46.218 C59.447,46.218 59,45.771 59,45.218 L59,44.27 C59,43.717 59.447,43.27 60,43.27 C60.553,43.27 61,43.717 61,44.27 L61,45.218 C61,45.771 60.553,46.218 60,46.218 L60,46.218 Z M60,41.475 C59.447,41.475 59,41.027 59,40.475 L59,39.525 C59,38.973 59.447,38.525 60,38.525 C60.553,38.525 61,38.973 61,39.525 L61,40.475 C61,41.027 60.553,41.475 60,41.475 L60,41.475 Z M60,36.73 C59.447,36.73 59,36.283 59,35.731 L59,34.782 C59,34.229 59.447,33.782 60,33.782 C60.553,33.782 61,34.229 61,34.782 L61,35.731 C61,36.283 60.553,36.73 60,36.73 L60,36.73 Z M60,31.987 C59.447,31.987 59,31.54 59,30.987 L59,30.038 C59,29.485 59.447,29.038 60,29.038 C60.553,29.038 61,29.485 61,30.038 L61,30.987 C61,31.54 60.553,31.987 60,31.987 L60,31.987 Z M60,27.243 C59.447,27.243 59,26.796 59,26.243 L59,25.295 C59,24.742 59.447,24.295 60,24.295 C60.553,24.295 61,24.742 61,25.295 L61,26.243 C61,26.796 60.553,27.243 60,27.243 L60,27.243 Z" id="Fill-491" sketch:type="MSShapeGroup"></path>
            </g>
        </g>
    </g>
</svg>