<?xml version="1.0" encoding="UTF-8" standalone="no"?>
<svg width="60px" height="60px" viewBox="0 0 60 60" version="1.1" xmlns="http://www.w3.org/2000/svg" xmlns:xlink="http://www.w3.org/1999/xlink" xmlns:sketch="http://www.bohemiancoding.com/sketch/ns">
    <!-- Generator: Sketch 3.3.2 (12043) - http://www.bohemiancoding.com/sketch -->
    <title>129 - Select Bounding Box (Flat)</title>
    <desc>Created with Sketch.</desc>
    <defs></defs>
    <g id="Page-1" stroke="none" stroke-width="1" fill="none" fill-rule="evenodd" sketch:type="MSPage">
        <g id="Icons" sketch:type="MSArtboardGroup" transform="translate(-240.000000, -357.000000)">
            <g id="129---Select-Bounding-Box-(Flat)" sketch:type="MSLayerGroup" transform="translate(240.000000, 357.000000)">
                <path d="M56,54 C55.448,54 55,53.552 55,53 L55,51 C55,50.448 55.448,50 56,50 C56.552,50 57,50.448 57,51 L57,53 C57,53.552 56.552,54 56,54 L56,54 Z M56,48 C55.448,48 55,47.552 55,47 L55,45 C55,44.448 55.448,44 56,44 C56.552,44 57,44.448 57,45 L57,47 C57,47.552 56.552,48 56,48 L56,48 Z M56,42 C55.448,42 55,41.552 55,41 L55,39 C55,38.448 55.448,38 56,38 C56.552,38 57,38.448 57,39 L57,41 C57,41.552 56.552,42 56,42 L56,42 Z M56,36 C55.448,36 55,35.552 55,35 L55,33 C55,32.448 55.448,32 56,32 C56.552,32 57,32.448 57,33 L57,35 C57,35.552 56.552,36 56,36 L56,36 Z" id="Fill-74" fill="#7383BF" sketch:type="MSShapeGroup"></path>
                <path d="M53,57 L51,57 C50.448,57 50,56.552 50,56 C50,55.448 50.448,55 51,55 L53,55 C53.552,55 54,55.448 54,56 C54,56.552 53.552,57 53,57 L53,57 Z M47,57 L45,57 C44.448,57 44,56.552 44,56 C44,55.448 44.448,55 45,55 L47,55 C47.552,55 48,55.448 48,56 C48,56.552 47.552,57 47,57 L47,57 Z M41,57 L39,57 C38.448,57 38,56.552 38,56 C38,55.448 38.448,55 39,55 L41,55 C41.552,55 42,55.448 42,56 C42,56.552 41.552,57 41,57 L41,57 Z M35,57 L33,57 C32.448,57 32,56.552 32,56 C32,55.448 32.448,55 33,55 L35,55 C35.552,55 36,55.448 36,56 C36,56.552 35.552,57 35,57 L35,57 Z" id="Fill-75" fill="#7383BF" sketch:type="MSShapeGroup"></path>
                <path d="M27,57 L25,57 C24.448,57 24,56.552 24,56 C24,55.448 24.448,55 25,55 L27,55 C27.552,55 28,55.448 28,56 C28,56.552 27.552,57 27,57 L27,57 Z M21,57 L19,57 C18.448,57 18,56.552 18,56 C18,55.448 18.448,55 19,55 L21,55 C21.552,55 22,55.448 22,56 C22,56.552 21.552,57 21,57 L21,57 Z M15,57 L13,57 C12.448,57 12,56.552 12,56 C12,55.448 12.448,55 13,55 L15,55 C15.552,55 16,55.448 16,56 C16,56.552 15.552,57 15,57 L15,57 Z M9,57 L7,57 C6.448,57 6,56.552 6,56 C6,55.448 6.448,55 7,55 L9,55 C9.552,55 10,55.448 10,56 C10,56.552 9.552,57 9,57 L9,57 Z" id="Fill-76" fill="#7383BF" sketch:type="MSShapeGroup"></path>
                <path d="M4,54 C3.448,54 3,53.552 3,53 L3,51 C3,50.448 3.448,50 4,50 C4.552,50 5,50.448 5,51 L5,53 C5,53.552 4.552,54 4,54 L4,54 Z M4,48 C3.448,48 3,47.552 3,47 L3,45 C3,44.448 3.448,44 4,44 C4.552,44 5,44.448 5,45 L5,47 C5,47.552 4.552,48 4,48 L4,48 Z M4,42 C3.448,42 3,41.552 3,41 L3,39 C3,38.448 3.448,38 4,38 C4.552,38 5,38.448 5,39 L5,41 C5,41.552 4.552,42 4,42 L4,42 Z M4,36 C3.448,36 3,35.552 3,35 L3,33 C3,32.448 3.448,32 4,32 C4.552,32 5,32.448 5,33 L5,35 C5,35.552 4.552,36 4,36 L4,36 Z" id="Fill-77" fill="#7383BF" sketch:type="MSShapeGroup"></path>
                <path d="M4,28 C3.448,28 3,27.552 3,27 L3,25 C3,24.448 3.448,24 4,24 C4.552,24 5,24.448 5,25 L5,27 C5,27.552 4.552,28 4,28 L4,28 Z M4,22 C3.448,22 3,21.552 3,21 L3,19 C3,18.448 3.448,18 4,18 C4.552,18 5,18.448 5,19 L5,21 C5,21.552 4.552,22 4,22 L4,22 Z M4,16 C3.448,16 3,15.552 3,15 L3,13 C3,12.448 3.448,12 4,12 C4.552,12 5,12.448 5,13 L5,15 C5,15.552 4.552,16 4,16 L4,16 Z M4,10 C3.448,10 3,9.552 3,9 L3,7 C3,6.448 3.448,6 4,6 C4.552,6 5,6.448 5,7 L5,9 C5,9.552 4.552,10 4,10 L4,10 Z" id="Fill-78" fill="#7383BF" sketch:type="MSShapeGroup"></path>
                <path d="M27,5 L25,5 C24.448,5 24,4.552 24,4 C24,3.448 24.448,3 25,3 L27,3 C27.552,3 28,3.448 28,4 C28,4.552 27.552,5 27,5 L27,5 Z M21,5 L19,5 C18.448,5 18,4.552 18,4 C18,3.448 18.448,3 19,3 L21,3 C21.552,3 22,3.448 22,4 C22,4.552 21.552,5 21,5 L21,5 Z M15,5 L13,5 C12.448,5 12,4.552 12,4 C12,3.448 12.448,3 13,3 L15,3 C15.552,3 16,3.448 16,4 C16,4.552 15.552,5 15,5 L15,5 Z M9,5 L7,5 C6.448,5 6,4.552 6,4 C6,3.448 6.448,3 7,3 L9,3 C9.552,3 10,3.448 10,4 C10,4.552 9.552,5 9,5 L9,5 Z" id="Fill-79" fill="#7383BF" sketch:type="MSShapeGroup"></path>
                <path d="M53,5 L51,5 C50.448,5 50,4.552 50,4 C50,3.448 50.448,3 51,3 L53,3 C53.552,3 54,3.448 54,4 C54,4.552 53.552,5 53,5 L53,5 Z M47,5 L45,5 C44.448,5 44,4.552 44,4 C44,3.448 44.448,3 45,3 L47,3 C47.552,3 48,3.448 48,4 C48,4.552 47.552,5 47,5 L47,5 Z M41,5 L39,5 C38.448,5 38,4.552 38,4 C38,3.448 38.448,3 39,3 L41,3 C41.552,3 42,3.448 42,4 C42,4.552 41.552,5 41,5 L41,5 Z M35,5 L33,5 C32.448,5 32,4.552 32,4 C32,3.448 32.448,3 33,3 L35,3 C35.552,3 36,3.448 36,4 C36,4.552 35.552,5 35,5 L35,5 Z" id="Fill-80" fill="#7383BF" sketch:type="MSShapeGroup"></path>
                <path d="M56,28 C55.448,28 55,27.552 55,27 L55,25 C55,24.448 55.448,24 56,24 C56.552,24 57,24.448 57,25 L57,27 C57,27.552 56.552,28 56,28 L56,28 Z M56,22 C55.448,22 55,21.552 55,21 L55,19 C55,18.448 55.448,18 56,18 C56.552,18 57,18.448 57,19 L57,21 C57,21.552 56.552,22 56,22 L56,22 Z M56,16 C55.448,16 55,15.552 55,15 L55,13 C55,12.448 55.448,12 56,12 C56.552,12 57,12.448 57,13 L57,15 C57,15.552 56.552,16 56,16 L56,16 Z M56,10 C55.448,10 55,9.552 55,9 L55,7 C55,6.448 55.448,6 56,6 C56.552,6 57,6.448 57,7 L57,9 C57,9.552 56.552,10 56,10 L56,10 Z" id="Fill-81" fill="#7383BF" sketch:type="MSShapeGroup"></path>
                <path d="M1,1 L7,1 L7,7 L1,7 L1,1 Z" id="Fill-144" fill="#434C6D" sketch:type="MSShapeGroup"></path>
                <path d="M0,0 L8,0 L8,8 L0,8 L0,0 Z M2,6 L6,6 L6,2 L2,2 L2,6 Z" id="Fill-145" fill="#434C6D" sketch:type="MSShapeGroup"></path>
                <path d="M1,27 L7,27 L7,33 L1,33 L1,27 Z" id="Fill-146" fill="#434C6D" sketch:type="MSShapeGroup"></path>
                <path d="M0,26 L8,26 L8,34 L0,34 L0,26 Z M2,32 L6,32 L6,28 L2,28 L2,32 Z" id="Fill-147" fill="#434C6D" sketch:type="MSShapeGroup"></path>
                <path d="M53,27 L59,27 L59,33 L53,33 L53,27 Z" id="Fill-148" fill="#434C6D" sketch:type="MSShapeGroup"></path>
                <path d="M52,26 L60,26 L60,34 L52,34 L52,26 Z M54,32 L58,32 L58,28 L54,28 L54,32 Z" id="Fill-149" fill="#434C6D" sketch:type="MSShapeGroup"></path>
                <path d="M27,53 L33,53 L33,59 L27,59 L27,53 Z" id="Fill-150" fill="#434C6D" sketch:type="MSShapeGroup"></path>
                <path d="M26,52 L34,52 L34,60 L26,60 L26,52 Z M28,58 L32,58 L32,54 L28,54 L28,58 Z" id="Fill-151" fill="#434C6D" sketch:type="MSShapeGroup"></path>
                <path d="M27,1 L33,1 L33,7 L27,7 L27,1 Z" id="Fill-152" fill="#434C6D" sketch:type="MSShapeGroup"></path>
                <path d="M26,0 L34,0 L34,8 L26,8 L26,0 Z M28,6 L32,6 L32,2 L28,2 L28,6 Z" id="Fill-153" fill="#434C6D" sketch:type="MSShapeGroup"></path>
                <path d="M1,53 L7,53 L7,59 L1,59 L1,53 Z" id="Fill-154" fill="#434C6D" sketch:type="MSShapeGroup"></path>
                <path d="M0,52 L8,52 L8,60 L0,60 L0,52 Z M2,58 L6,58 L6,54 L2,54 L2,58 Z" id="Fill-155" fill="#434C6D" sketch:type="MSShapeGroup"></path>
                <path d="M53,1 L59,1 L59,7 L53,7 L53,1 Z" id="Fill-156" fill="#434C6D" sketch:type="MSShapeGroup"></path>
                <path d="M52,0 L60,0 L60,8 L52,8 L52,0 Z M54,6 L58,6 L58,2 L54,2 L54,6 Z" id="Fill-157" fill="#434C6D" sketch:type="MSShapeGroup"></path>
                <path d="M53,53 L59,53 L59,59 L53,59 L53,53 Z" id="Fill-158" fill="#434C6D" sketch:type="MSShapeGroup"></path>
                <path d="M52,52 L60,52 L60,60 L52,60 L52,52 Z M54,58 L58,58 L58,54 L54,54 L54,58 Z" id="Fill-159" fill="#434C6D" sketch:type="MSShapeGroup"></path>
            </g>
        </g>
    </g>
</svg>