<?xml version="1.0" encoding="UTF-8" standalone="no"?>
<svg width="59px" height="60px" viewBox="0 0 59 60" version="1.1" xmlns="http://www.w3.org/2000/svg" xmlns:xlink="http://www.w3.org/1999/xlink" xmlns:sketch="http://www.bohemiancoding.com/sketch/ns">
    <!-- Generator: Sketch 3.3.2 (12043) - http://www.bohemiancoding.com/sketch -->
    <title>74 - Select Area (Flat)</title>
    <desc>Created with Sketch.</desc>
    <defs></defs>
    <g id="Page-1" stroke="none" stroke-width="1" fill="none" fill-rule="evenodd" sketch:type="MSPage">
        <g id="Icons" sketch:type="MSArtboardGroup" transform="translate(-840.000000, -957.000000)">
            <g id="74---Select-Area-(Flat)" sketch:type="MSLayerGroup" transform="translate(840.000000, 957.000000)">
                <path d="M58.761,46.849 L43.666,29.152 C43.416,28.859 43.021,28.734 42.646,28.836 C42.273,28.936 41.992,29.241 41.922,29.62 L37.698,52.493 C37.618,52.927 37.832,53.362 38.224,53.564 C38.369,53.639 38.525,53.675 38.682,53.675 C38.946,53.675 39.207,53.569 39.4,53.37 L46.279,46.255 L49.764,59.259 C49.883,59.706 50.287,60 50.729,60 C50.815,60 50.901,59.989 50.988,59.966 C51.521,59.823 51.838,59.274 51.695,58.741 L48.211,45.738 L57.725,48.46 C58.148,48.577 58.602,48.41 58.841,48.039 C59.08,47.668 59.047,47.185 58.761,46.849" id="Fill-426" fill="#434C6D" sketch:type="MSShapeGroup"></path>
                <path d="M35,52 L34.5,52 C33.947,52 33.5,51.553 33.5,51 C33.5,50.447 33.947,50 34.5,50 L35,50 C35.553,50 36,50.447 36,51 C36,51.553 35.553,52 35,52" id="Fill-427" fill="#7383BF" sketch:type="MSShapeGroup"></path>
                <path d="M30.618,52 L29.648,52 C29.095,52 28.648,51.553 28.648,51 C28.648,50.447 29.095,50 29.648,50 L30.618,50 C31.171,50 31.618,50.447 31.618,51 C31.618,51.553 31.171,52 30.618,52 L30.618,52 Z M25.766,52 L24.795,52 C24.242,52 23.795,51.553 23.795,51 C23.795,50.447 24.242,50 24.795,50 L25.766,50 C26.318,50 26.766,50.447 26.766,51 C26.766,51.553 26.318,52 25.766,52 L25.766,52 Z M20.912,52 L19.941,52 C19.389,52 18.941,51.553 18.941,51 C18.941,50.447 19.389,50 19.941,50 L20.912,50 C21.465,50 21.912,50.447 21.912,51 C21.912,51.553 21.465,52 20.912,52 L20.912,52 Z M16.06,52 L15.089,52 C14.536,52 14.089,51.553 14.089,51 C14.089,50.447 14.536,50 15.089,50 L16.06,50 C16.612,50 17.06,50.447 17.06,51 C17.06,51.553 16.612,52 16.06,52 L16.06,52 Z M11.206,52 L10.235,52 C9.683,52 9.235,51.553 9.235,51 C9.235,50.447 9.683,50 10.235,50 L11.206,50 C11.759,50 12.206,50.447 12.206,51 C12.206,51.553 11.759,52 11.206,52 L11.206,52 Z M6.354,52 L5.383,52 C4.83,52 4.383,51.553 4.383,51 C4.383,50.447 4.83,50 5.383,50 L6.354,50 C6.906,50 7.354,50.447 7.354,51 C7.354,51.553 6.906,52 6.354,52 L6.354,52 Z" id="Fill-428" fill="#7383BF" sketch:type="MSShapeGroup"></path>
                <path d="M1.5,52 L1,52 C0.447,52 0,51.553 0,51 L0,50.5 C0,49.947 0.447,49.5 1,49.5 C1.405,49.5 1.755,49.741 1.912,50.088 C2.259,50.245 2.5,50.595 2.5,51 C2.5,51.553 2.053,52 1.5,52" id="Fill-429" fill="#7383BF" sketch:type="MSShapeGroup"></path>
                <path d="M1,47.5 C0.447,47.5 0,47.053 0,46.5 L0,45.5 C0,44.947 0.447,44.5 1,44.5 C1.553,44.5 2,44.947 2,45.5 L2,46.5 C2,47.053 1.553,47.5 1,47.5 L1,47.5 Z M1,42.5 C0.447,42.5 0,42.053 0,41.5 L0,40.5 C0,39.947 0.447,39.5 1,39.5 C1.553,39.5 2,39.947 2,40.5 L2,41.5 C2,42.053 1.553,42.5 1,42.5 L1,42.5 Z M1,37.5 C0.447,37.5 0,37.053 0,36.5 L0,35.5 C0,34.947 0.447,34.5 1,34.5 C1.553,34.5 2,34.947 2,35.5 L2,36.5 C2,37.053 1.553,37.5 1,37.5 L1,37.5 Z M1,32.5 C0.447,32.5 0,32.053 0,31.5 L0,30.5 C0,29.947 0.447,29.5 1,29.5 C1.553,29.5 2,29.947 2,30.5 L2,31.5 C2,32.053 1.553,32.5 1,32.5 L1,32.5 Z M1,27.5 C0.447,27.5 0,27.053 0,26.5 L0,25.5 C0,24.947 0.447,24.5 1,24.5 C1.553,24.5 2,24.947 2,25.5 L2,26.5 C2,27.053 1.553,27.5 1,27.5 L1,27.5 Z M1,22.5 C0.447,22.5 0,22.053 0,21.5 L0,20.5 C0,19.947 0.447,19.5 1,19.5 C1.553,19.5 2,19.947 2,20.5 L2,21.5 C2,22.053 1.553,22.5 1,22.5 L1,22.5 Z M1,17.5 C0.447,17.5 0,17.053 0,16.5 L0,15.5 C0,14.947 0.447,14.5 1,14.5 C1.553,14.5 2,14.947 2,15.5 L2,16.5 C2,17.053 1.553,17.5 1,17.5 L1,17.5 Z M1,12.5 C0.447,12.5 0,12.053 0,11.5 L0,10.5 C0,9.947 0.447,9.5 1,9.5 C1.553,9.5 2,9.947 2,10.5 L2,11.5 C2,12.053 1.553,12.5 1,12.5 L1,12.5 Z M1,7.5 C0.447,7.5 0,7.053 0,6.5 L0,5.5 C0,4.947 0.447,4.5 1,4.5 C1.553,4.5 2,4.947 2,5.5 L2,6.5 C2,7.053 1.553,7.5 1,7.5 L1,7.5 Z" id="Fill-430" fill="#7383BF" sketch:type="MSShapeGroup"></path>
                <path d="M1,2.5 C0.447,2.5 0,2.053 0,1.5 L0,1 C0,0.447 0.447,0 1,0 L1.5,0 C2.053,0 2.5,0.447 2.5,1 C2.5,1.405 2.259,1.755 1.912,1.912 C1.755,2.259 1.405,2.5 1,2.5" id="Fill-431" fill="#7383BF" sketch:type="MSShapeGroup"></path>
                <path d="M46.5,2 L45.5,2 C44.947,2 44.5,1.553 44.5,1 C44.5,0.447 44.947,0 45.5,0 L46.5,0 C47.053,0 47.5,0.447 47.5,1 C47.5,1.553 47.053,2 46.5,2 L46.5,2 Z M41.5,2 L40.5,2 C39.947,2 39.5,1.553 39.5,1 C39.5,0.447 39.947,0 40.5,0 L41.5,0 C42.053,0 42.5,0.447 42.5,1 C42.5,1.553 42.053,2 41.5,2 L41.5,2 Z M36.5,2 L35.5,2 C34.947,2 34.5,1.553 34.5,1 C34.5,0.447 34.947,0 35.5,0 L36.5,0 C37.053,0 37.5,0.447 37.5,1 C37.5,1.553 37.053,2 36.5,2 L36.5,2 Z M31.5,2 L30.5,2 C29.947,2 29.5,1.553 29.5,1 C29.5,0.447 29.947,0 30.5,0 L31.5,0 C32.053,0 32.5,0.447 32.5,1 C32.5,1.553 32.053,2 31.5,2 L31.5,2 Z M26.5,2 L25.5,2 C24.947,2 24.5,1.553 24.5,1 C24.5,0.447 24.947,0 25.5,0 L26.5,0 C27.053,0 27.5,0.447 27.5,1 C27.5,1.553 27.053,2 26.5,2 L26.5,2 Z M21.5,2 L20.5,2 C19.947,2 19.5,1.553 19.5,1 C19.5,0.447 19.947,0 20.5,0 L21.5,0 C22.053,0 22.5,0.447 22.5,1 C22.5,1.553 22.053,2 21.5,2 L21.5,2 Z M16.5,2 L15.5,2 C14.947,2 14.5,1.553 14.5,1 C14.5,0.447 14.947,0 15.5,0 L16.5,0 C17.053,0 17.5,0.447 17.5,1 C17.5,1.553 17.053,2 16.5,2 L16.5,2 Z M11.5,2 L10.5,2 C9.947,2 9.5,1.553 9.5,1 C9.5,0.447 9.947,0 10.5,0 L11.5,0 C12.053,0 12.5,0.447 12.5,1 C12.5,1.553 12.053,2 11.5,2 L11.5,2 Z M6.5,2 L5.5,2 C4.947,2 4.5,1.553 4.5,1 C4.5,0.447 4.947,0 5.5,0 L6.5,0 C7.053,0 7.5,0.447 7.5,1 C7.5,1.553 7.053,2 6.5,2 L6.5,2 Z" id="Fill-432" fill="#7383BF" sketch:type="MSShapeGroup"></path>
                <path d="M51,2.5 C50.595,2.5 50.245,2.259 50.088,1.912 C49.741,1.755 49.5,1.405 49.5,1 C49.5,0.447 49.947,0 50.5,0 L51,0 C51.553,0 52,0.447 52,1 L52,1.5 C52,2.053 51.553,2.5 51,2.5" id="Fill-433" fill="#7383BF" sketch:type="MSShapeGroup"></path>
                <path d="M51,26.639 C50.447,26.639 50,26.191 50,25.639 L50,24.673 C50,24.12 50.447,23.673 51,23.673 C51.553,23.673 52,24.12 52,24.673 L52,25.639 C52,26.191 51.553,26.639 51,26.639 L51,26.639 Z M51,21.811 C50.447,21.811 50,21.363 50,20.81 L50,19.846 C50,19.293 50.447,18.846 51,18.846 C51.553,18.846 52,19.293 52,19.846 L52,20.81 C52,21.363 51.553,21.811 51,21.811 L51,21.811 Z M51,16.983 C50.447,16.983 50,16.536 50,15.983 L50,15.018 C50,14.465 50.447,14.018 51,14.018 C51.553,14.018 52,14.465 52,15.018 L52,15.983 C52,16.536 51.553,16.983 51,16.983 L51,16.983 Z M51,12.155 C50.447,12.155 50,11.708 50,11.155 L50,10.19 C50,9.638 50.447,9.19 51,9.19 C51.553,9.19 52,9.638 52,10.19 L52,11.155 C52,11.708 51.553,12.155 51,12.155 L51,12.155 Z M51,7.328 C50.447,7.328 50,6.881 50,6.328 L50,5.362 C50,4.81 50.447,4.362 51,4.362 C51.553,4.362 52,4.81 52,5.362 L52,6.328 C52,6.881 51.553,7.328 51,7.328 L51,7.328 Z" id="Fill-434" fill="#7383BF" sketch:type="MSShapeGroup"></path>
                <path d="M51,31 C50.447,31 50,30.553 50,30 L50,29.5 C50,28.947 50.447,28.5 51,28.5 C51.553,28.5 52,28.947 52,29.5 L52,30 C52,30.553 51.553,31 51,31" id="Fill-435" fill="#7383BF" sketch:type="MSShapeGroup"></path>
            </g>
        </g>
    </g>
</svg>