<?xml version="1.0" encoding="UTF-8" standalone="no"?>
<svg width="58px" height="58px" viewBox="0 0 58 58" version="1.1" xmlns="http://www.w3.org/2000/svg" xmlns:xlink="http://www.w3.org/1999/xlink" xmlns:sketch="http://www.bohemiancoding.com/sketch/ns">
    <!-- Generator: Sketch 3.3.2 (12043) - http://www.bohemiancoding.com/sketch -->
    <title>92 - Shape (Flat)</title>
    <desc>Created with Sketch.</desc>
    <defs></defs>
    <g id="Page-1" stroke="none" stroke-width="1" fill="none" fill-rule="evenodd" sketch:type="MSPage">
        <g id="Icons" sketch:type="MSArtboardGroup" transform="translate(-1081.000000, -718.000000)">
            <g id="92---Shape-(Flat)" sketch:type="MSLayerGroup" transform="translate(1081.000000, 718.000000)">
                <path d="M0,0 L58,0 L58,58 L0,58 L0,0 Z" id="Fill-139" fill="#434C6D" sketch:type="MSShapeGroup"></path>
                <path d="M48.88,51 L37.486,51 L34,41.029 L43,33 L52,41.108 L48.88,51" id="Fill-391" fill="#7383BF" sketch:type="MSShapeGroup"></path>
                <path d="M6,6 L24,6 L24,24 L6,24 L6,6 Z" id="Fill-392" fill="#7383BF" sketch:type="MSShapeGroup"></path>
                <path d="M52,24 L34,24 L43,6 L52,24" id="Fill-393" fill="#7383BF" sketch:type="MSShapeGroup"></path>
                <path d="M24,43 C24,47.971 19.971,52 15,52 C10.029,52 6,47.971 6,43 C6,38.029 10.029,34 15,34 C19.971,34 24,38.029 24,43" id="Fill-394" fill="#7383BF" sketch:type="MSShapeGroup"></path>
            </g>
        </g>
    </g>
</svg>