<?xml version="1.0" encoding="UTF-8" standalone="no"?>
<svg width="58px" height="58px" viewBox="0 0 58 58" version="1.1" xmlns="http://www.w3.org/2000/svg" xmlns:xlink="http://www.w3.org/1999/xlink" xmlns:sketch="http://www.bohemiancoding.com/sketch/ns">
    <!-- Generator: Sketch 3.3.2 (12043) - http://www.bohemiancoding.com/sketch -->
    <title>38 - Tile All Vertically (Flat)</title>
    <desc>Created with Sketch.</desc>
    <defs></defs>
    <g id="Page-1" stroke="none" stroke-width="1" fill="none" fill-rule="evenodd" sketch:type="MSPage">
        <g id="Icons" sketch:type="MSArtboardGroup" transform="translate(-361.000000, -1438.000000)">
            <g id="38---Tile-All-Vertically-(Flat)" sketch:type="MSLayerGroup" transform="translate(361.000000, 1438.000000)">
                <path d="M0,0 L58,0 L58,58 L0,58 L0,0 Z" id="Fill-594" fill="#556080" sketch:type="MSShapeGroup"></path>
                <path d="M44,5 L54,5 L54,53 L44,53 L44,5 Z" id="Fill-629" fill="#556080" sketch:type="MSShapeGroup"></path>
                <path d="M43,4 L55,4 L55,54 L43,54 L43,4 Z M45,52 L53,52 L53,6 L45,6 L45,52 Z" id="Fill-630" fill="#25B99A" sketch:type="MSShapeGroup"></path>
                <path d="M34,5 L44,5 L44,53 L34,53 L34,5 Z" id="Fill-631" fill="#556080" sketch:type="MSShapeGroup"></path>
                <path d="M33,4 L45,4 L45,54 L33,54 L33,4 Z M35,52 L43,52 L43,6 L35,6 L35,52 Z" id="Fill-632" fill="#25B99A" sketch:type="MSShapeGroup"></path>
                <path d="M24,5 L34,5 L34,53 L24,53 L24,5 Z" id="Fill-633" fill="#556080" sketch:type="MSShapeGroup"></path>
                <path d="M23,4 L35,4 L35,54 L23,54 L23,4 Z M25,52 L33,52 L33,6 L25,6 L25,52 Z" id="Fill-634" fill="#25B99A" sketch:type="MSShapeGroup"></path>
                <path d="M14,5 L24,5 L24,53 L14,53 L14,5 Z" id="Fill-635" fill="#556080" sketch:type="MSShapeGroup"></path>
                <path d="M13,4 L25,4 L25,54 L13,54 L13,4 Z M15,52 L23,52 L23,6 L15,6 L15,52 Z" id="Fill-636" fill="#25B99A" sketch:type="MSShapeGroup"></path>
                <path d="M4,5 L14,5 L14,53 L4,53 L4,5 Z" id="Fill-637" fill="#556080" sketch:type="MSShapeGroup"></path>
                <path d="M3,4 L15,4 L15,54 L3,54 L3,4 Z M5,52 L13,52 L13,6 L5,6 L5,52 Z" id="Fill-638" fill="#25B99A" sketch:type="MSShapeGroup"></path>
            </g>
        </g>
    </g>
</svg>