<?xml version="1.0" encoding="UTF-8" standalone="no"?>
<svg width="60px" height="60px" viewBox="0 0 60 60" version="1.1" xmlns="http://www.w3.org/2000/svg" xmlns:xlink="http://www.w3.org/1999/xlink" xmlns:sketch="http://www.bohemiancoding.com/sketch/ns">
    <!-- Generator: Sketch 3.3.2 (12043) - http://www.bohemiancoding.com/sketch -->
    <title>73 - Transform (Flat)</title>
    <desc>Created with Sketch.</desc>
    <defs></defs>
    <g id="Page-1" stroke="none" stroke-width="1" fill="none" fill-rule="evenodd" sketch:type="MSPage">
        <g id="Icons" sketch:type="MSArtboardGroup" transform="translate(-960.000000, -957.000000)">
            <g id="73---Transform-(Flat)" sketch:type="MSLayerGroup" transform="translate(960.000000, 957.000000)">
                <path d="M4,54 C3.447,54 3,53.553 3,53 L3,52 C3,51.447 3.447,51 4,51 C4.553,51 5,51.447 5,52 L5,53 C5,53.553 4.553,54 4,54 L4,54 Z M4,49 C3.447,49 3,48.553 3,48 L3,47 C3,46.447 3.447,46 4,46 C4.553,46 5,46.447 5,47 L5,48 C5,48.553 4.553,49 4,49 L4,49 Z M4,44 C3.447,44 3,43.553 3,43 L3,42 C3,41.447 3.447,41 4,41 C4.553,41 5,41.447 5,42 L5,43 C5,43.553 4.553,44 4,44 L4,44 Z M4,39 C3.447,39 3,38.553 3,38 L3,37 C3,36.447 3.447,36 4,36 C4.553,36 5,36.447 5,37 L5,38 C5,38.553 4.553,39 4,39 L4,39 Z M4,34 C3.447,34 3,33.553 3,33 L3,32 C3,31.447 3.447,31 4,31 C4.553,31 5,31.447 5,32 L5,33 C5,33.553 4.553,34 4,34 L4,34 Z M4,29 C3.447,29 3,28.553 3,28 L3,27 C3,26.447 3.447,26 4,26 C4.553,26 5,26.447 5,27 L5,28 C5,28.553 4.553,29 4,29 L4,29 Z M4,24 C3.447,24 3,23.553 3,23 L3,22 C3,21.447 3.447,21 4,21 C4.553,21 5,21.447 5,22 L5,23 C5,23.553 4.553,24 4,24 L4,24 Z M4,19 C3.447,19 3,18.553 3,18 L3,17 C3,16.447 3.447,16 4,16 C4.553,16 5,16.447 5,17 L5,18 C5,18.553 4.553,19 4,19 L4,19 Z M4,14 C3.447,14 3,13.553 3,13 L3,12 C3,11.447 3.447,11 4,11 C4.553,11 5,11.447 5,12 L5,13 C5,13.553 4.553,14 4,14 L4,14 Z M4,9 C3.447,9 3,8.553 3,8 L3,7 C3,6.447 3.447,6 4,6 C4.553,6 5,6.447 5,7 L5,8 C5,8.553 4.553,9 4,9 L4,9 Z" id="Fill-450" fill="#7383BF" sketch:type="MSShapeGroup"></path>
                <path d="M53,5 L52,5 C51.447,5 51,4.553 51,4 C51,3.447 51.447,3 52,3 L53,3 C53.553,3 54,3.447 54,4 C54,4.553 53.553,5 53,5 L53,5 Z M48,5 L47,5 C46.447,5 46,4.553 46,4 C46,3.447 46.447,3 47,3 L48,3 C48.553,3 49,3.447 49,4 C49,4.553 48.553,5 48,5 L48,5 Z M43,5 L42,5 C41.447,5 41,4.553 41,4 C41,3.447 41.447,3 42,3 L43,3 C43.553,3 44,3.447 44,4 C44,4.553 43.553,5 43,5 L43,5 Z M38,5 L37,5 C36.447,5 36,4.553 36,4 C36,3.447 36.447,3 37,3 L38,3 C38.553,3 39,3.447 39,4 C39,4.553 38.553,5 38,5 L38,5 Z M33,5 L32,5 C31.447,5 31,4.553 31,4 C31,3.447 31.447,3 32,3 L33,3 C33.553,3 34,3.447 34,4 C34,4.553 33.553,5 33,5 L33,5 Z M28,5 L27,5 C26.447,5 26,4.553 26,4 C26,3.447 26.447,3 27,3 L28,3 C28.553,3 29,3.447 29,4 C29,4.553 28.553,5 28,5 L28,5 Z M23,5 L22,5 C21.447,5 21,4.553 21,4 C21,3.447 21.447,3 22,3 L23,3 C23.553,3 24,3.447 24,4 C24,4.553 23.553,5 23,5 L23,5 Z M18,5 L17,5 C16.447,5 16,4.553 16,4 C16,3.447 16.447,3 17,3 L18,3 C18.553,3 19,3.447 19,4 C19,4.553 18.553,5 18,5 L18,5 Z M13,5 L12,5 C11.447,5 11,4.553 11,4 C11,3.447 11.447,3 12,3 L13,3 C13.553,3 14,3.447 14,4 C14,4.553 13.553,5 13,5 L13,5 Z M8,5 L7,5 C6.447,5 6,4.553 6,4 C6,3.447 6.447,3 7,3 L8,3 C8.553,3 9,3.447 9,4 C9,4.553 8.553,5 8,5 L8,5 Z" id="Fill-451" fill="#7383BF" sketch:type="MSShapeGroup"></path>
                <path d="M56,54 C55.447,54 55,53.553 55,53 L55,52 C55,51.447 55.447,51 56,51 C56.553,51 57,51.447 57,52 L57,53 C57,53.553 56.553,54 56,54 L56,54 Z M56,49 C55.447,49 55,48.553 55,48 L55,47 C55,46.447 55.447,46 56,46 C56.553,46 57,46.447 57,47 L57,48 C57,48.553 56.553,49 56,49 L56,49 Z M56,44 C55.447,44 55,43.553 55,43 L55,42 C55,41.447 55.447,41 56,41 C56.553,41 57,41.447 57,42 L57,43 C57,43.553 56.553,44 56,44 L56,44 Z M56,39 C55.447,39 55,38.553 55,38 L55,37 C55,36.447 55.447,36 56,36 C56.553,36 57,36.447 57,37 L57,38 C57,38.553 56.553,39 56,39 L56,39 Z M56,34 C55.447,34 55,33.553 55,33 L55,32 C55,31.447 55.447,31 56,31 C56.553,31 57,31.447 57,32 L57,33 C57,33.553 56.553,34 56,34 L56,34 Z M56,29 C55.447,29 55,28.553 55,28 L55,27 C55,26.447 55.447,26 56,26 C56.553,26 57,26.447 57,27 L57,28 C57,28.553 56.553,29 56,29 L56,29 Z M56,24 C55.447,24 55,23.553 55,23 L55,22 C55,21.447 55.447,21 56,21 C56.553,21 57,21.447 57,22 L57,23 C57,23.553 56.553,24 56,24 L56,24 Z M56,19 C55.447,19 55,18.553 55,18 L55,17 C55,16.447 55.447,16 56,16 C56.553,16 57,16.447 57,17 L57,18 C57,18.553 56.553,19 56,19 L56,19 Z M56,14 C55.447,14 55,13.553 55,13 L55,12 C55,11.447 55.447,11 56,11 C56.553,11 57,11.447 57,12 L57,13 C57,13.553 56.553,14 56,14 L56,14 Z M56,9 C55.447,9 55,8.553 55,8 L55,7 C55,6.447 55.447,6 56,6 C56.553,6 57,6.447 57,7 L57,8 C57,8.553 56.553,9 56,9 L56,9 Z" id="Fill-452" fill="#7383BF" sketch:type="MSShapeGroup"></path>
                <path d="M44,30 L38,30 L38,27 L22,27 L22,30 L16,30 L7,53 L7,56 L53,56 L53,53 L44,30" id="Fill-453" fill="#FFFFFF" sketch:type="MSShapeGroup"></path>
                <path d="M54,57 L6,57 L6,52.812 L6.068,52.636 L15.317,29 L21,29 L21,26 L39,26 L39,29 L44.683,29 L54,52.812 L54,57 L54,57 Z M8,55 L52,55 L52,53.189 L43.317,31 L37,31 L37,28 L23,28 L23,31 L16.683,31 L8,53.189 L8,55 L8,55 Z" id="Fill-454" fill="#7383BF" sketch:type="MSShapeGroup"></path>
                <path d="M1,1 L7,1 L7,7 L1,7 L1,1 Z" id="Fill-889" fill="#556080" sketch:type="MSShapeGroup"></path>
                <path d="M0,0 L8,0 L8,8 L0,8 L0,0 Z M2,6 L6,6 L6,2 L2,2 L2,6 Z" id="Fill-890" fill="#556080" sketch:type="MSShapeGroup"></path>
                <path d="M53,1 L59,1 L59,7 L53,7 L53,1 Z" id="Fill-891" fill="#556080" sketch:type="MSShapeGroup"></path>
                <path d="M52,0 L60,0 L60,8 L52,8 L52,0 Z M54,6 L58,6 L58,2 L54,2 L54,6 Z" id="Fill-892" fill="#556080" sketch:type="MSShapeGroup"></path>
                <path d="M1,53 L7,53 L7,59 L1,59 L1,53 Z" id="Fill-893" fill="#556080" sketch:type="MSShapeGroup"></path>
                <path d="M0,52 L8,52 L8,60 L0,60 L0,52 Z M2,58 L6,58 L6,54 L2,54 L2,58 Z" id="Fill-894" fill="#556080" sketch:type="MSShapeGroup"></path>
                <path d="M53,53 L59,53 L59,59 L53,59 L53,53 Z" id="Fill-895" fill="#556080" sketch:type="MSShapeGroup"></path>
                <path d="M52,52 L60,52 L60,60 L52,60 L52,52 Z M54,58 L58,58 L58,54 L54,54 L54,58 Z" id="Fill-896" fill="#556080" sketch:type="MSShapeGroup"></path>
                <path d="M16,24 L22,24 L22,30 L16,30 L16,24 Z" id="Fill-897" fill="#556080" sketch:type="MSShapeGroup"></path>
                <path d="M15,23 L23,23 L23,31 L15,31 L15,23 Z M17,29 L21,29 L21,25 L17,25 L17,29 Z" id="Fill-898" fill="#556080" sketch:type="MSShapeGroup"></path>
                <path d="M38,24 L44,24 L44,30 L38,30 L38,24 Z" id="Fill-899" fill="#556080" sketch:type="MSShapeGroup"></path>
                <path d="M37,23 L45,23 L45,31 L37,31 L37,23 Z M39,29 L43,29 L43,25 L39,25 L39,29 Z" id="Fill-900" fill="#556080" sketch:type="MSShapeGroup"></path>
            </g>
        </g>
    </g>
</svg>