<?xml version="1.0" encoding="UTF-8" standalone="no"?>
<svg width="58px" height="58px" viewBox="0 0 58 58" version="1.1" xmlns="http://www.w3.org/2000/svg" xmlns:xlink="http://www.w3.org/1999/xlink" xmlns:sketch="http://www.bohemiancoding.com/sketch/ns">
    <!-- Generator: Sketch 3.3.2 (12043) - http://www.bohemiancoding.com/sketch -->
    <title>52 - Unconstrain (Flat)</title>
    <desc>Created with Sketch.</desc>
    <defs></defs>
    <g id="Page-1" stroke="none" stroke-width="1" fill="none" fill-rule="evenodd" sketch:type="MSPage">
        <g id="Icons" sketch:type="MSArtboardGroup" transform="translate(-1081.000000, -1198.000000)">
            <g id="52---Unconstrain-(Flat)" sketch:type="MSLayerGroup" transform="translate(1081.000000, 1198.000000)">
                <path d="M18,0 L0,0 L0,18 L4,18 L4,4 L18,4 L18,0" id="Fill-521" fill="#7383BF" sketch:type="MSShapeGroup"></path>
                <path d="M58,18 L58,0 L40,0 L40,4 L54,4 L54,18 L58,18" id="Fill-522" fill="#7383BF" sketch:type="MSShapeGroup"></path>
                <path d="M40,58 L58,58 L58,40 L54,40 L54,54 L40,54 L40,58" id="Fill-523" fill="#7383BF" sketch:type="MSShapeGroup"></path>
                <path d="M0,40 L0,58 L18,58 L18,54 L4,54 L4,40 L0,40" id="Fill-524" fill="#7383BF" sketch:type="MSShapeGroup"></path>
                <path d="M37,23 L37,11 C37,6.6 33.4,3 29,3 C24.6,3 21,6.6 21,11 L21,23 C21,25.386 22.064,27.531 23.735,29 C22.064,30.469 21,32.614 21,35 L21,47 C21,51.4 24.6,55 29,55 C33.4,55 37,51.4 37,47 L37,35 C37,32.614 35.936,30.469 34.265,29 C35.936,27.531 37,25.386 37,23 L37,23 Z M33,47 C33,49.2 31.2,51 29,51 C26.8,51 25,49.2 25,47 L25,35 C25,32.8 26.8,31 29,31 C31.2,31 33,32.8 33,35 L33,47 L33,47 Z M33,23 C33,25.2 31.2,27 29,27 C26.8,27 25,25.2 25,23 L25,11 C25,8.8 26.8,7 29,7 C31.2,7 33,8.8 33,11 L33,23 L33,23 Z" id="Fill-927" fill="#25B99A" sketch:type="MSShapeGroup"></path>
                <path d="M29,40 C28.447,40 28,39.553 28,39 L28,19 C28,18.447 28.447,18 29,18 C29.553,18 30,18.447 30,19 L30,39 C30,39.553 29.553,40 29,40" id="Fill-928" fill="#556080" sketch:type="MSShapeGroup"></path>
            </g>
        </g>
    </g>
</svg>