<?xml version="1.0" encoding="UTF-8" standalone="no"?>
<svg width="60px" height="60px" viewBox="0 0 60 60" version="1.1" xmlns="http://www.w3.org/2000/svg" xmlns:xlink="http://www.w3.org/1999/xlink" xmlns:sketch="http://www.bohemiancoding.com/sketch/ns">
    <!-- Generator: Sketch 3.3.2 (12043) - http://www.bohemiancoding.com/sketch -->
    <title>71 - Ungroup (Flat)</title>
    <desc>Created with Sketch.</desc>
    <defs></defs>
    <g id="Page-1" stroke="none" stroke-width="1" fill="none" fill-rule="evenodd" sketch:type="MSPage">
        <g id="Icons" sketch:type="MSArtboardGroup" transform="translate(-1200.000000, -957.000000)">
            <g id="71---Ungroup-(Flat)" sketch:type="MSLayerGroup" transform="translate(1200.000000, 957.000000)">
                <path d="M53,25 L53,22 L38,22 L38,35 L35,35 L35,38 L22,38 L22,53 L25,53 L25,56 L53,56 L53,53 L56,53 L56,25 L53,25" id="Fill-134" fill="#FFFFFF" sketch:type="MSShapeGroup"></path>
                <path d="M54,57 L24,57 L24,54 L21,54 L21,37 L34,37 L34,34 L37,34 L37,21 L54,21 L54,24 L57,24 L57,54 L54,54 L54,57 L54,57 Z M26,55 L52,55 L52,52 L55,52 L55,26 L52,26 L52,23 L39,23 L39,36 L36,36 L36,39 L23,39 L23,52 L26,52 L26,55 L26,55 Z" id="Fill-135" fill="#7383BF" sketch:type="MSShapeGroup"></path>
                <path d="M35,7 L35,4 L7,4 L7,7 L4,7 L4,35 L7,35 L7,38 L35,38 L35,35 L38,35 L38,7 L35,7" id="Fill-136" fill="#7383BF" sketch:type="MSShapeGroup"></path>
                <path d="M36,39 L6,39 L6,36 L3,36 L3,6 L6,6 L6,3 L36,3 L36,6 L39,6 L39,36 L36,36 L36,39 L36,39 Z M8,37 L34,37 L34,34 L37,34 L37,8 L34,8 L34,5 L8,5 L8,8 L5,8 L5,34 L8,34 L8,37 L8,37 Z" id="Fill-137" fill="#556080" sketch:type="MSShapeGroup"></path>
                <path d="M1,1 L7,1 L7,7 L1,7 L1,1 Z" id="Fill-436" fill="#556080" sketch:type="MSShapeGroup"></path>
                <path d="M0,0 L8,0 L8,8 L0,8 L0,0 Z M2,6 L6,6 L6,2 L2,2 L2,6 Z" id="Fill-437" fill="#556080" sketch:type="MSShapeGroup"></path>
                <path d="M35,35 L41,35 L41,41 L35,41 L35,35 Z" id="Fill-438" fill="#556080" sketch:type="MSShapeGroup"></path>
                <path d="M34,34 L42,34 L42,42 L34,42 L34,34 Z M36,40 L40,40 L40,36 L36,36 L36,40 Z" id="Fill-439" fill="#556080" sketch:type="MSShapeGroup"></path>
                <path d="M35,1 L41,1 L41,7 L35,7 L35,1 Z" id="Fill-440" fill="#556080" sketch:type="MSShapeGroup"></path>
                <path d="M34,0 L42,0 L42,8 L34,8 L34,0 Z M36,6 L40,6 L40,2 L36,2 L36,6 Z" id="Fill-441" fill="#556080" sketch:type="MSShapeGroup"></path>
                <path d="M1,35 L7,35 L7,41 L1,41 L1,35 Z" id="Fill-442" fill="#556080" sketch:type="MSShapeGroup"></path>
                <path d="M0,34 L8,34 L8,42 L0,42 L0,34 Z M2,40 L6,40 L6,36 L2,36 L2,40 Z" id="Fill-443" fill="#556080" sketch:type="MSShapeGroup"></path>
                <path d="M53,19 L59,19 L59,25 L53,25 L53,19 Z" id="Fill-444" fill="#556080" sketch:type="MSShapeGroup"></path>
                <path d="M52,18 L60,18 L60,26 L52,26 L52,18 Z M54,24 L58,24 L58,20 L54,20 L54,24 Z" id="Fill-445" fill="#556080" sketch:type="MSShapeGroup"></path>
                <path d="M19,53 L25,53 L25,59 L19,59 L19,53 Z" id="Fill-446" fill="#556080" sketch:type="MSShapeGroup"></path>
                <path d="M18,52 L26,52 L26,60 L18,60 L18,52 Z M20,58 L24,58 L24,54 L20,54 L20,58 Z" id="Fill-447" fill="#556080" sketch:type="MSShapeGroup"></path>
                <path d="M53,53 L59,53 L59,59 L53,59 L53,53 Z" id="Fill-448" fill="#556080" sketch:type="MSShapeGroup"></path>
                <path d="M52,52 L60,52 L60,60 L52,60 L52,52 Z M54,58 L58,58 L58,54 L54,54 L54,58 Z" id="Fill-449" fill="#556080" sketch:type="MSShapeGroup"></path>
            </g>
        </g>
    </g>
</svg>