<?xml version="1.0" encoding="UTF-8" standalone="no"?>
<svg width="60px" height="37px" viewBox="0 0 60 37" version="1.1" xmlns="http://www.w3.org/2000/svg" xmlns:xlink="http://www.w3.org/1999/xlink" xmlns:sketch="http://www.bohemiancoding.com/sketch/ns">
    <!-- Generator: Sketch 3.3.2 (12043) - http://www.bohemiancoding.com/sketch -->
    <title>127 - Vector Shape (Flat)</title>
    <desc>Created with Sketch.</desc>
    <defs></defs>
    <g id="Page-1" stroke="none" stroke-width="1" fill="none" fill-rule="evenodd" sketch:type="MSPage">
        <g id="Icons" sketch:type="MSArtboardGroup" transform="translate(-480.000000, -380.000000)">
            <g id="127---Vector-Shape-(Flat)" sketch:type="MSLayerGroup" transform="translate(480.000000, 380.000000)">
                <path d="M40.209,5 L53,5 C53.552,5 54,4.552 54,4 C54,3.448 53.552,3 53,3 L33,3 C32.836,3 32.687,3.049 32.55,3.119 L32,3.056 L32,6 L28,6 L28,3.056 L27,3.171 L27,3 L7,3 L7,5 L19.791,5 C9.856,9.046 3,18.789 3,30 C3,30.552 3.448,31 4,31 C4.552,31 5,30.552 5,30 C5,17.671 13.951,7.256 26,5.324 L26,8 L34,8 L34,5.324 C46.049,7.256 55,17.671 55,30 C55,30.552 55.448,31 56,31 C56.552,31 57,30.552 57,30 C57,18.789 50.144,9.046 40.209,5" id="Fill-61" fill="#7383BF" sketch:type="MSShapeGroup"></path>
                <path d="M1,30 L7,30 L7,36 L1,36 L1,30 Z" id="Fill-194" fill="#434C6D" sketch:type="MSShapeGroup"></path>
                <path d="M0,29 L8,29 L8,37 L0,37 L0,29 Z M2,35 L6,35 L6,31 L2,31 L2,35 Z" id="Fill-195" fill="#434C6D" sketch:type="MSShapeGroup"></path>
                <path d="M53,30 L59,30 L59,36 L53,36 L53,30 Z" id="Fill-196" fill="#434C6D" sketch:type="MSShapeGroup"></path>
                <path d="M52,29 L60,29 L60,37 L52,37 L52,29 Z M54,35 L58,35 L58,31 L54,31 L54,35 Z" id="Fill-197" fill="#434C6D" sketch:type="MSShapeGroup"></path>
                <path d="M27,1 L33,1 L33,7 L27,7 L27,1 Z" id="Fill-198" fill="#434C6D" sketch:type="MSShapeGroup"></path>
                <path d="M26,0 L34,0 L34,8 L26,8 L26,0 Z M28,6 L32,6 L32,2 L28,2 L28,6 Z" id="Fill-199" fill="#434C6D" sketch:type="MSShapeGroup"></path>
                <path d="M7,4 C7,5.657 5.657,7 4,7 C2.343,7 1,5.657 1,4 C1,2.343 2.343,1 4,1 C5.657,1 7,2.343 7,4" id="Fill-200" fill="#25B99A" sketch:type="MSShapeGroup"></path>
                <path d="M4,8 C1.794,8 0,6.206 0,4 C0,1.794 1.794,0 4,0 C6.206,0 8,1.794 8,4 C8,6.206 6.206,8 4,8 L4,8 Z M4,2 C2.897,2 2,2.897 2,4 C2,5.103 2.897,6 4,6 C5.103,6 6,5.103 6,4 C6,2.897 5.103,2 4,2 L4,2 Z" id="Fill-201" fill="#25B99A" sketch:type="MSShapeGroup"></path>
                <path d="M59,4 C59,5.657 57.657,7 56,7 C54.343,7 53,5.657 53,4 C53,2.343 54.343,1 56,1 C57.657,1 59,2.343 59,4" id="Fill-202" fill="#25B99A" sketch:type="MSShapeGroup"></path>
                <path d="M56,8 C53.794,8 52,6.206 52,4 C52,1.794 53.794,0 56,0 C58.206,0 60,1.794 60,4 C60,6.206 58.206,8 56,8 L56,8 Z M56,2 C54.897,2 54,2.897 54,4 C54,5.103 54.897,6 56,6 C57.103,6 58,5.103 58,4 C58,2.897 57.103,2 56,2 L56,2 Z" id="Fill-203" fill="#25B99A" sketch:type="MSShapeGroup"></path>
            </g>
        </g>
    </g>
</svg>