<?xml version="1.0" encoding="UTF-8" standalone="no"?>
<svg width="60px" height="50px" viewBox="0 0 60 50" version="1.1" xmlns="http://www.w3.org/2000/svg" xmlns:xlink="http://www.w3.org/1999/xlink" xmlns:sketch="http://www.bohemiancoding.com/sketch/ns">
    <!-- Generator: Sketch 3.3.2 (12043) - http://www.bohemiancoding.com/sketch -->
    <title>85 - Vertical Align Bottom (Flat)</title>
    <desc>Created with Sketch.</desc>
    <defs></defs>
    <g id="Page-1" stroke="none" stroke-width="1" fill="none" fill-rule="evenodd" sketch:type="MSPage">
        <g id="Icons" sketch:type="MSArtboardGroup" transform="translate(-720.000000, -843.000000)">
            <g id="85---Vertical-Align-Bottom-(Flat)" sketch:type="MSLayerGroup" transform="translate(720.000000, 843.000000)">
                <path d="M34,12.459 L34,41.542 C34,42.899 35.101,44 36.459,44 L51.542,44 C52.899,44 54,42.899 54,41.542 L54,12.459 C54,11.101 52.899,10 51.542,10 L36.459,10 C35.101,10 34,11.101 34,12.459" id="Fill-364" fill="#25B99A" sketch:type="MSShapeGroup"></path>
                <path d="M6,2.458 L6,41.542 C6,42.899 7.101,44 8.458,44 L23.542,44 C24.899,44 26,42.899 26,41.542 L26,2.458 C26,1.101 24.899,0 23.542,0 L8.458,0 C7.101,0 6,1.101 6,2.458" id="Fill-365" fill="#7383BF" sketch:type="MSShapeGroup"></path>
                <path d="M59,50 L1,50 C0.447,50 0,49.552 0,49 C0,48.448 0.447,48 1,48 L59,48 C59.553,48 60,48.448 60,49 C60,49.552 59.553,50 59,50" id="Fill-366" fill="#556080" sketch:type="MSShapeGroup"></path>
            </g>
        </g>
    </g>
</svg>