<?xml version="1.0" encoding="UTF-8" standalone="no"?>
<svg width="60px" height="50px" viewBox="0 0 60 50" version="1.1" xmlns="http://www.w3.org/2000/svg" xmlns:xlink="http://www.w3.org/1999/xlink" xmlns:sketch="http://www.bohemiancoding.com/sketch/ns">
    <!-- Generator: Sketch 3.3.2 (12043) - http://www.bohemiancoding.com/sketch -->
    <title>87 - Vertical Align Top (Flat)</title>
    <desc>Created with Sketch.</desc>
    <defs></defs>
    <g id="Page-1" stroke="none" stroke-width="1" fill="none" fill-rule="evenodd" sketch:type="MSPage">
        <g id="Icons" sketch:type="MSArtboardGroup" transform="translate(-480.000000, -841.000000)">
            <g id="87---Vertical-Align-Top-(Flat)" sketch:type="MSLayerGroup" transform="translate(480.000000, 841.000000)">
                <path d="M34,37.542 L34,8.459 C34,7.101 35.101,6 36.459,6 L51.542,6 C52.899,6 54,7.101 54,8.459 L54,37.542 C54,38.899 52.899,40 51.542,40 L36.459,40 C35.101,40 34,38.899 34,37.542" id="Fill-360" fill="#25B99A" sketch:type="MSShapeGroup"></path>
                <path d="M6,47.542 L6,8.459 C6,7.101 7.101,6 8.458,6 L23.542,6 C24.899,6 26,7.101 26,8.459 L26,47.542 C26,48.899 24.899,50 23.542,50 L8.458,50 C7.101,50 6,48.899 6,47.542" id="Fill-361" fill="#7383BF" sketch:type="MSShapeGroup"></path>
                <path d="M59,2 L1,2 C0.448,2 0,1.552 0,1 C0,0.448 0.448,0 1,0 L59,0 C59.552,0 60,0.448 60,1 C60,1.552 59.552,2 59,2" id="Fill-362" fill="#556080" sketch:type="MSShapeGroup"></path>
            </g>
        </g>
    </g>
</svg>