<?xml version="1.0" encoding="UTF-8" standalone="no"?>
<svg width="60px" height="48px" viewBox="0 0 60 48" version="1.1" xmlns="http://www.w3.org/2000/svg" xmlns:xlink="http://www.w3.org/1999/xlink" xmlns:sketch="http://www.bohemiancoding.com/sketch/ns">
    <!-- Generator: Sketch 3.3.2 (12043) - http://www.bohemiancoding.com/sketch -->
    <title>83 - Vertical Distribute Center (Flat)</title>
    <desc>Created with Sketch.</desc>
    <defs></defs>
    <g id="Page-1" stroke="none" stroke-width="1" fill="none" fill-rule="evenodd" sketch:type="MSPage">
        <g id="Icons" sketch:type="MSArtboardGroup" transform="translate(-960.000000, -844.000000)">
            <g id="83---Vertical-Distribute-Center-(Flat)" sketch:type="MSLayerGroup" transform="translate(960.000000, 844.000000)">
                <path d="M59,11 L47,11 C46.447,11 46,10.552 46,10 C46,9.448 46.447,9 47,9 L59,9 C59.553,9 60,9.448 60,10 C60,10.552 59.553,11 59,11" id="Fill-367" fill="#556080" sketch:type="MSShapeGroup"></path>
                <path d="M59,39 L45,39 C44.447,39 44,38.552 44,38 C44,37.447 44.447,37 45,37 L59,37 C59.553,37 60,37.447 60,38 C60,38.552 59.553,39 59,39" id="Fill-368" fill="#556080" sketch:type="MSShapeGroup"></path>
                <path d="M13,11 L1,11 C0.447,11 0,10.552 0,10 C0,9.448 0.447,9 1,9 L13,9 C13.553,9 14,9.448 14,10 C14,10.552 13.553,11 13,11" id="Fill-369" fill="#556080" sketch:type="MSShapeGroup"></path>
                <path d="M20,39 L1,39 C0.447,39 0,38.552 0,38 C0,37.447 0.447,37 1,37 L20,37 C20.553,37 21,37.447 21,38 C21,38.552 20.553,39 20,39" id="Fill-370" fill="#556080" sketch:type="MSShapeGroup"></path>
                <path d="M44.542,20 L15.458,20 C14.101,20 13,18.899 13,17.542 L13,2.459 C13,1.101 14.101,0 15.458,0 L44.542,0 C45.899,0 47,1.101 47,2.459 L47,17.542 C47,18.899 45.899,20 44.542,20" id="Fill-374" fill="#25B99A" sketch:type="MSShapeGroup"></path>
                <path d="M10.458,48 L49.542,48 C50.899,48 52,46.899 52,45.542 L52,30.458 C52,29.101 50.899,28 49.542,28 L10.458,28 C9.101,28 8,29.101 8,30.458 L8,45.542 C8,46.899 9.101,48 10.458,48" id="Fill-381" fill="#7383BF" sketch:type="MSShapeGroup"></path>
            </g>
        </g>
    </g>
</svg>