<?xml version="1.0" encoding="iso-8859-1"?>
<!DOCTYPE svg PUBLIC "-//W3C//DTD SVG 1.1//EN" "http://www.w3.org/Graphics/SVG/1.1/DTD/svg11.dtd">
<svg version="1.1" id="Layer_1" xmlns="http://www.w3.org/2000/svg" xmlns:xlink="http://www.w3.org/1999/xlink" x="0px" y="0px"
	 viewBox="0 0 256 256" style="enable-background:new 0 0 256 256;" xml:space="preserve">
<path fill="rgb(211,43,79)" d="M243.987,133.679c-11.91,22.244-29.564,34.218-48.43,32.855c-22.014-1.587-42.435-21.2-53.292-51.179
	C130.259,82.19,99.721,62.918,68.009,68.483c-18.783,3.294-35.696,15.042-47.626,33.072C7.049,121.711,0,149.557,0,182.084
	c0,3.524,2.86,6.385,6.385,6.385s6.385-2.86,6.385-6.385c0-41.953,15.045-93.582,57.445-101.023
	c25.899-4.543,50.027,10.985,60.044,38.64c12.785,35.316,36.852,57.583,64.376,59.571c24.121,1.74,46.212-12.68,60.609-39.565
	c0.514-0.961,0.757-1.992,0.757-3.007c0-2.279-1.223-4.482-3.374-5.634C249.52,129.401,245.651,130.57,243.987,133.679z"/>
</svg>
