<?xml version="1.0" encoding="UTF-8" standalone="no"?>
<svg width="60px" height="60px" viewBox="0 0 60 60" version="1.1" xmlns="http://www.w3.org/2000/svg" xmlns:xlink="http://www.w3.org/1999/xlink" xmlns:sketch="http://www.bohemiancoding.com/sketch/ns">
    <!-- Generator: Sketch 3.2.2 (9983) - http://www.bohemiancoding.com/sketch -->
    <title>70 - Ableton (Flat)</title>
    <desc>Created with Sketch.</desc>
    <defs></defs>
    <g id="Page-1" stroke="none" stroke-width="1" fill="none" fill-rule="evenodd" sketch:type="MSPage">
        <g id="70---Ableton-(Flat)" sketch:type="MSLayerGroup">
            <path d="M54.571,60 L5.429,60 C2.431,60 0,57.569 0,54.571 L0,5.429 C0,2.431 2.431,0 5.429,0 L54.571,0 C57.569,0 60,2.431 60,5.429 L60,54.571 C60,57.569 57.569,60 54.571,60" id="Fill-69" fill="#556080" sketch:type="MSShapeGroup"></path>
            <path d="M20,6 C19.448,6 19,6.448 19,7 L19,23 C19,23.552 19.448,24 20,24 C20.552,24 21,23.552 21,23 L21,7 C21,6.448 20.552,6 20,6" id="Fill-70" fill="#2C3E50" sketch:type="MSShapeGroup"></path>
            <path d="M30,21 C29.448,21 29,21.448 29,22 L29,29 C29,29.552 29.448,30 30,30 C30.552,30 31,29.552 31,29 L31,22 C31,21.448 30.552,21 30,21" id="Fill-71" fill="#2C3E50" sketch:type="MSShapeGroup"></path>
            <path d="M30,6 C29.448,6 29,6.448 29,7 L29,16 C29,16.552 29.448,17 30,17 C30.552,17 31,16.552 31,16 L31,7 C31,6.448 30.552,6 30,6" id="Fill-72" fill="#2C3E50" sketch:type="MSShapeGroup"></path>
            <path d="M40,12 C39.448,12 39,12.448 39,13 L39,29 C39,29.552 39.448,30 40,30 C40.552,30 41,29.552 41,29 L41,13 C41,12.448 40.552,12 40,12" id="Fill-73" fill="#2C3E50" sketch:type="MSShapeGroup"></path>
            <path d="M10,12 C9.448,12 9,12.448 9,13 L9,29 C9,29.552 9.448,30 10,30 C10.552,30 11,29.552 11,29 L11,13 C11,12.448 10.552,12 10,12" id="Fill-74" fill="#2C3E50" sketch:type="MSShapeGroup"></path>
            <path d="M53,18.5 C53,19.881 51.881,21 50.5,21 C49.119,21 48,19.881 48,18.5 C48,17.119 49.119,16 50.5,16 C51.881,16 53,17.119 53,18.5" id="Fill-254" fill="#464F5D" sketch:type="MSShapeGroup"></path>
            <path d="M53,27.5 C53,28.881 51.881,30 50.5,30 C49.119,30 48,28.881 48,27.5 C48,26.119 49.119,25 50.5,25 C51.881,25 53,26.119 53,27.5" id="Fill-255" fill="#464F5D" sketch:type="MSShapeGroup"></path>
            <path d="M53,9.5 C53,10.881 51.881,12 50.5,12 C49.119,12 48,10.881 48,9.5 C48,8.119 49.119,7 50.5,7 C51.881,7 53,8.119 53,9.5" id="Fill-256" fill="#464F5D" sketch:type="MSShapeGroup"></path>
            <path d="M53,16.5 C53,17.881 51.881,19 50.5,19 C49.119,19 48,17.881 48,16.5 C48,15.119 49.119,14 50.5,14 C51.881,14 53,15.119 53,16.5" id="Fill-257" fill="#FFFFFF" sketch:type="MSShapeGroup"></path>
            <path d="M53,25.5 C53,26.881 51.881,28 50.5,28 C49.119,28 48,26.881 48,25.5 C48,24.119 49.119,23 50.5,23 C51.881,23 53,24.119 53,25.5" id="Fill-258" fill="#FFFFFF" sketch:type="MSShapeGroup"></path>
            <path d="M53,7.5 C53,8.881 51.881,10 50.5,10 C49.119,10 48,8.881 48,7.5 C48,6.119 49.119,5 50.5,5 C51.881,5 53,6.119 53,7.5" id="Fill-259" fill="#FFFFFF" sketch:type="MSShapeGroup"></path>
            <path d="M17,25 L23,25 L23,31 L17,31 L17,25 Z" id="Fill-260" fill="#464F5D" sketch:type="MSShapeGroup"></path>
            <path d="M27,18 L33,18 L33,24 L27,24 L27,18 Z" id="Fill-261" fill="#464F5D" sketch:type="MSShapeGroup"></path>
            <path d="M37,9 L43,9 L43,15 L37,15 L37,9 Z" id="Fill-262" fill="#464F5D" sketch:type="MSShapeGroup"></path>
            <path d="M7,9 L13,9 L13,15 L7,15 L7,9 Z" id="Fill-263" fill="#464F5D" sketch:type="MSShapeGroup"></path>
            <path d="M6,41 L12,41 L12,47 L6,47 L6,41 Z" id="Fill-264" fill="#8697CB" sketch:type="MSShapeGroup"></path>
            <path d="M13,41 L19,41 L19,47 L13,47 L13,41 Z" id="Fill-265" fill="#90BAE1" sketch:type="MSShapeGroup"></path>
            <path d="M20,41 L26,41 L26,47 L20,47 L20,41 Z" id="Fill-266" fill="#8697CB" sketch:type="MSShapeGroup"></path>
            <path d="M27,41 L33,41 L33,47 L27,47 L27,41 Z" id="Fill-267" fill="#90BAE1" sketch:type="MSShapeGroup"></path>
            <path d="M34,41 L40,41 L40,47 L34,47 L34,41 Z" id="Fill-268" fill="#FBD490" sketch:type="MSShapeGroup"></path>
            <path d="M41,41 L47,41 L47,47 L41,47 L41,41 Z" id="Fill-269" fill="#90BAE1" sketch:type="MSShapeGroup"></path>
            <path d="M48,41 L54,41 L54,47 L48,47 L48,41 Z" id="Fill-270" fill="#8697CB" sketch:type="MSShapeGroup"></path>
            <path d="M6,34 L12,34 L12,40 L6,40 L6,34 Z" id="Fill-271" fill="#90BAE1" sketch:type="MSShapeGroup"></path>
            <path d="M13,34 L19,34 L19,40 L13,40 L13,34 Z" id="Fill-272" fill="#8697CB" sketch:type="MSShapeGroup"></path>
            <path d="M20,34 L26,34 L26,40 L20,40 L20,34 Z" id="Fill-273" fill="#FBD490" sketch:type="MSShapeGroup"></path>
            <path d="M27,34 L33,34 L33,40 L27,40 L27,34 Z" id="Fill-274" fill="#8697CB" sketch:type="MSShapeGroup"></path>
            <path d="M34,34 L40,34 L40,40 L34,40 L34,34 Z" id="Fill-275" fill="#90BAE1" sketch:type="MSShapeGroup"></path>
            <path d="M41,34 L47,34 L47,40 L41,40 L41,34 Z" id="Fill-276" fill="#8697CB" sketch:type="MSShapeGroup"></path>
            <path d="M48,34 L54,34 L54,40 L48,40 L48,34 Z" id="Fill-277" fill="#90BAE1" sketch:type="MSShapeGroup"></path>
            <path d="M6,48 L12,48 L12,54 L6,54 L6,48 Z" id="Fill-278" fill="#90BAE1" sketch:type="MSShapeGroup"></path>
            <path d="M13,48 L19,48 L19,54 L13,54 L13,48 Z" id="Fill-279" fill="#FBD490" sketch:type="MSShapeGroup"></path>
            <path d="M20,48 L26,48 L26,54 L20,54 L20,48 Z" id="Fill-280" fill="#90BAE1" sketch:type="MSShapeGroup"></path>
            <path d="M27,48 L33,48 L33,54 L27,54 L27,48 Z" id="Fill-281" fill="#8697CB" sketch:type="MSShapeGroup"></path>
            <path d="M34,48 L40,48 L40,54 L34,54 L34,48 Z" id="Fill-282" fill="#90BAE1" sketch:type="MSShapeGroup"></path>
            <path d="M41,48 L47,48 L47,54 L41,54 L41,48 Z" id="Fill-283" fill="#8697CB" sketch:type="MSShapeGroup"></path>
            <path d="M48,48 L54,48 L54,54 L48,54 L48,48 Z" id="Fill-284" fill="#90BAE1" sketch:type="MSShapeGroup"></path>
            <path d="M17,23 L23,23 L23,29 L17,29 L17,23 Z" id="Fill-1818" fill="#E6E7E8" sketch:type="MSShapeGroup"></path>
            <path d="M27,16 L33,16 L33,22 L27,22 L27,16 Z" id="Fill-1819" fill="#E6E7E8" sketch:type="MSShapeGroup"></path>
            <path d="M37,7 L43,7 L43,13 L37,13 L37,7 Z" id="Fill-1820" fill="#E6E7E8" sketch:type="MSShapeGroup"></path>
            <path d="M7,7 L13,7 L13,13 L7,13 L7,7 Z" id="Fill-1821" fill="#E6E7E8" sketch:type="MSShapeGroup"></path>
        </g>
    </g>
</svg>