<?xml version="1.0" encoding="UTF-8" standalone="no"?>
<svg width="58px" height="58px" viewBox="0 0 58 58" version="1.1" xmlns="http://www.w3.org/2000/svg" xmlns:xlink="http://www.w3.org/1999/xlink" xmlns:sketch="http://www.bohemiancoding.com/sketch/ns">
    <!-- Generator: Sketch 3.2.2 (9983) - http://www.bohemiancoding.com/sketch -->
    <title>46 - Accordion (Flat)</title>
    <desc>Created with Sketch.</desc>
    <defs></defs>
    <g id="Page-1" stroke="none" stroke-width="1" fill="none" fill-rule="evenodd" sketch:type="MSPage">
        <g id="46---Accordion-(Flat)" sketch:type="MSLayerGroup">
            <path d="M55.051,56 L43,56 L43,2 L55.051,2 C56.68,2 58,3.32 58,4.949 L58,53.051 C58,54.68 56.68,56 55.051,56" id="Fill-199" fill="#556080" sketch:type="MSShapeGroup"></path>
            <path d="M47,11 L46,10 L46,8 L47,7 L49,7 L50,8 L50,10 L49,11 L47,11" id="Fill-446" fill="#E4C05C" sketch:type="MSShapeGroup"></path>
            <path d="M52,16 L51,15 L51,13 L52,12 L54,12 L55,13 L55,15 L54,16 L52,16" id="Fill-447" fill="#E4C05C" sketch:type="MSShapeGroup"></path>
            <path d="M47,21 L46,20 L46,18 L47,17 L49,17 L50,18 L50,20 L49,21 L47,21" id="Fill-448" fill="#E4C05C" sketch:type="MSShapeGroup"></path>
            <path d="M52,26 L51,25 L51,23 L52,22 L54,22 L55,23 L55,25 L54,26 L52,26" id="Fill-449" fill="#E4C05C" sketch:type="MSShapeGroup"></path>
            <path d="M47,31 L46,30 L46,28 L47,27 L49,27 L50,28 L50,30 L49,31 L47,31" id="Fill-450" fill="#E4C05C" sketch:type="MSShapeGroup"></path>
            <path d="M52,36 L51,35 L51,33 L52,32 L54,32 L55,33 L55,35 L54,36 L52,36" id="Fill-468" fill="#E4C05C" sketch:type="MSShapeGroup"></path>
            <path d="M47,41 L46,40 L46,38 L47,37 L49,37 L50,38 L50,40 L49,41 L47,41" id="Fill-469" fill="#E4C05C" sketch:type="MSShapeGroup"></path>
            <path d="M52,46 L51,45 L51,43 L52,42 L54,42 L55,43 L55,45 L54,46 L52,46" id="Fill-470" fill="#E4C05C" sketch:type="MSShapeGroup"></path>
            <path d="M47,51 L46,50 L46,48 L47,47 L49,47 L50,48 L50,50 L49,51 L47,51" id="Fill-471" fill="#E4C05C" sketch:type="MSShapeGroup"></path>
            <path d="M7,39 L15,39 L15,35 L7,35 L7,33 L0,33 L0,41 L7,41 L7,39" id="Fill-1233" fill="#ECF0F1" sketch:type="MSShapeGroup"></path>
            <path d="M7,47 L15,47 L15,43 L7,43 L7,41 L0,41 L0,49 L7,49 L7,47" id="Fill-1234" fill="#D7DCE0" sketch:type="MSShapeGroup"></path>
            <path d="M15,51 L7,51 L7,49 L0,49 L0,53.051 C0,54.68 1.32,56 2.949,56 L15,56 L15,51" id="Fill-1235" fill="#ECF0F1" sketch:type="MSShapeGroup"></path>
            <path d="M15,7 L15,2 L2.949,2 C1.32,2 0,3.32 0,4.949 L0,9 L7,9 L7,7 L15,7" id="Fill-1236" fill="#ECF0F1" sketch:type="MSShapeGroup"></path>
            <path d="M7,31 L15,31 L15,27 L7,27 L7,25 L0,25 L0,33 L7,33 L7,31" id="Fill-1237" fill="#D7DCE0" sketch:type="MSShapeGroup"></path>
            <path d="M7,23 L15,23 L15,19 L7,19 L7,17 L0,17 L0,25 L7,25 L7,23" id="Fill-1238" fill="#ECF0F1" sketch:type="MSShapeGroup"></path>
            <path d="M7,15 L15,15 L15,11 L7,11 L7,9 L0,9 L0,17 L7,17 L7,15" id="Fill-1239" fill="#D7DCE0" sketch:type="MSShapeGroup"></path>
            <path d="M31,56 L29,58 L27,56 L27,2 L29,0 L31,2 L31,56" id="Fill-1240" fill="#2C3E50" sketch:type="MSShapeGroup"></path>
            <path d="M35,56 L33,58 L31,56 L31,2 L33,0 L35,2 L35,56" id="Fill-1241" fill="#464F5D" sketch:type="MSShapeGroup"></path>
            <path d="M39,56 L37,58 L35,56 L35,2 L37,0 L39,2 L39,56" id="Fill-1242" fill="#2C3E50" sketch:type="MSShapeGroup"></path>
            <path d="M43,56 L41,58 L39,56 L39,2 L41,0 L43,2 L43,56" id="Fill-1243" fill="#464F5D" sketch:type="MSShapeGroup"></path>
            <path d="M6,31 L16,31 L16,35 L6,35 L6,31 Z" id="Fill-1617" fill="#556080" sketch:type="MSShapeGroup"></path>
            <path d="M6,23 L16,23 L16,27 L6,27 L6,23 Z" id="Fill-1618" fill="#556080" sketch:type="MSShapeGroup"></path>
            <path d="M6,39 L16,39 L16,43 L6,43 L6,39 Z" id="Fill-1619" fill="#556080" sketch:type="MSShapeGroup"></path>
            <path d="M6,47 L16,47 L16,51 L6,51 L6,47 Z" id="Fill-1620" fill="#556080" sketch:type="MSShapeGroup"></path>
            <path d="M6,7 L16,7 L16,11 L6,11 L6,7 Z" id="Fill-1621" fill="#556080" sketch:type="MSShapeGroup"></path>
            <path d="M6,15 L16,15 L16,19 L6,19 L6,15 Z" id="Fill-1622" fill="#556080" sketch:type="MSShapeGroup"></path>
            <path d="M15,2 L27,2 L27,56 L15,56 L15,2 Z" id="Fill-1623" fill="#E1705C" sketch:type="MSShapeGroup"></path>
            <path d="M24,17 L18,22 L18,11 L24,5 L24,17" id="Fill-1624" fill="#FFFFFF" sketch:type="MSShapeGroup"></path>
            <path d="M18,47 L24,53 L24,42 L18,37 L18,47" id="Fill-1625" fill="#FFFFFF" sketch:type="MSShapeGroup"></path>
            <path d="M18,29 L24,23 L24,36 L18,29" id="Fill-1626" fill="#FFFFFF" sketch:type="MSShapeGroup"></path>
        </g>
    </g>
</svg>