<?xml version="1.0" encoding="UTF-8" standalone="no"?>
<svg width="59px" height="59px" viewBox="0 0 59 59" version="1.1" xmlns="http://www.w3.org/2000/svg" xmlns:xlink="http://www.w3.org/1999/xlink" xmlns:sketch="http://www.bohemiancoding.com/sketch/ns">
    <!-- Generator: Sketch 3.2.2 (9983) - http://www.bohemiancoding.com/sketch -->
    <title>25 - Balalaika (Flat)</title>
    <desc>Created with Sketch.</desc>
    <defs></defs>
    <g id="Page-1" stroke="none" stroke-width="1" fill="none" fill-rule="evenodd" sketch:type="MSPage">
        <g id="25---Balalaika-(Flat)" sketch:type="MSLayerGroup">
            <path d="M48.433,4.789 L45.312,1.668 L46.726,0.254 L49.847,3.375 L48.433,4.789" id="Fill-50" fill="#B9A46D" sketch:type="MSShapeGroup"></path>
            <path d="M57.332,13.688 L53.711,10.067 L55.125,8.653 L58.746,12.274 L57.332,13.688" id="Fill-51" fill="#B9A46D" sketch:type="MSShapeGroup"></path>
            <path d="M54.504,19.346 L50.883,15.725 L52.297,14.31 L55.918,17.932 L54.504,19.346" id="Fill-52" fill="#B9A46D" sketch:type="MSShapeGroup"></path>
            <path d="M43.275,8.117 L39.654,4.496 L41.068,3.082 L44.69,6.703 L43.275,8.117" id="Fill-53" fill="#B9A46D" sketch:type="MSShapeGroup"></path>
            <path d="M28.682,36.682 L22.318,30.318 L31.162,21.474 C26.705,19.351 21.329,19.808 17.269,22.854 C17.15,24.597 16.43,26.307 15.098,27.639 C12.834,29.902 9.487,30.409 6.73,29.174 C6.032,29.723 5.387,30.279 4.833,30.833 C-1.611,37.276 -1.611,47.724 4.833,54.167 C11.276,60.611 21.724,60.611 28.167,54.167 C28.721,53.613 29.277,52.968 29.826,52.27 C28.591,49.513 29.098,46.166 31.361,43.903 C32.693,42.57 34.403,41.851 36.146,41.731 C39.192,37.671 39.649,32.295 37.526,27.838 L28.682,36.682" id="Fill-54" fill="#805333" sketch:type="MSShapeGroup"></path>
            <path d="M24,41.5 C24,45.642 20.642,49 16.5,49 C12.358,49 9,45.642 9,41.5 C9,37.358 12.358,34 16.5,34 C20.642,34 24,37.358 24,41.5" id="Fill-55" fill="#42241E" sketch:type="MSShapeGroup"></path>
            <path d="M42.836,16.164 L42.836,16.164 C42.674,16.001 42.52,15.833 42.375,15.659 C39.339,12.021 40.895,6.427 45.22,4.489 L53.09,0.961 L58.039,5.911 L54.511,13.78 C52.573,18.105 46.979,19.661 43.341,16.625 C43.167,16.48 42.999,16.326 42.836,16.164" id="Fill-191" fill="#42241E" sketch:type="MSShapeGroup"></path>
            <path d="M43.341,16.625 C43.167,16.48 42.999,16.326 42.836,16.164 C42.674,16.001 42.52,15.833 42.375,15.659 C41.42,14.514 40.921,13.175 40.818,11.818 L22,30 L28.682,36.682 L47.182,18.182 C45.825,18.079 44.486,17.58 43.341,16.625" id="Fill-192" fill="#7F5B53" sketch:type="MSShapeGroup"></path>
            <path d="M13.929,52.143 C13.673,52.143 13.417,52.045 13.222,51.85 L6.15,44.778 C5.76,44.388 5.76,43.755 6.15,43.364 C6.541,42.974 7.174,42.974 7.565,43.364 L14.636,50.435 C15.026,50.826 15.026,51.459 14.636,51.85 C14.44,52.045 14.185,52.143 13.929,52.143" id="Fill-1296" fill="#42241E" sketch:type="MSShapeGroup"></path>
            <path d="M39.414,15.344 C39.023,14.953 38.391,14.953 38,15.344 L6.15,46.192 C5.76,46.583 5.76,47.216 6.15,47.606 C6.346,47.802 6.602,47.899 6.857,47.899 C7.113,47.899 7.369,47.802 7.565,47.606 L39.414,16.758 C39.805,16.367 39.805,15.734 39.414,15.344" id="Fill-1297" fill="#CBB292" sketch:type="MSShapeGroup"></path>
            <path d="M42.414,16.586 C42.023,16.195 41.391,16.195 41,16.586 L8.273,48.313 C7.882,48.704 7.882,49.337 8.273,49.727 C8.468,49.923 8.724,50.021 8.979,50.021 C9.235,50.021 9.491,49.923 9.687,49.727 L42.414,18 C42.805,17.609 42.805,16.977 42.414,16.586" id="Fill-1298" fill="#CBB292" sketch:type="MSShapeGroup"></path>
            <path d="M43.656,19.586 C43.266,19.195 42.633,19.195 42.242,19.586 L10.394,50.435 C10.003,50.826 10.003,51.459 10.394,51.85 C10.589,52.045 10.845,52.143 11.101,52.143 C11.356,52.143 11.612,52.045 11.808,51.85 L43.656,21 C44.047,20.609 44.047,19.977 43.656,19.586" id="Fill-1299" fill="#CBB292" sketch:type="MSShapeGroup"></path>
            <path d="M45.312,12.981 L43.898,11.567 L51.676,3.789 L53.09,5.203 L45.312,12.981" id="Fill-1318" fill="#CBB292" sketch:type="MSShapeGroup"></path>
            <path d="M47.433,15.102 L46.019,13.688 L53.797,5.91 L55.211,7.324 L47.433,15.102" id="Fill-1319" fill="#CBB292" sketch:type="MSShapeGroup"></path>
        </g>
    </g>
</svg>