<?xml version="1.0" encoding="UTF-8" standalone="no"?>
<svg width="61px" height="60px" viewBox="0 0 61 60" version="1.1" xmlns="http://www.w3.org/2000/svg" xmlns:xlink="http://www.w3.org/1999/xlink" xmlns:sketch="http://www.bohemiancoding.com/sketch/ns">
    <!-- Generator: Sketch 3.2.2 (9983) - http://www.bohemiancoding.com/sketch -->
    <title>27 - Banjo (Flat)</title>
    <desc>Created with Sketch.</desc>
    <defs></defs>
    <g id="Page-1" stroke="none" stroke-width="1" fill="none" fill-rule="evenodd" sketch:type="MSPage">
        <g id="27---Banjo-(Flat)" sketch:type="MSLayerGroup">
            <path d="M33,42 C33,50.284 26.284,57 18,57 C9.716,57 3,50.284 3,42 C3,33.716 9.716,27 18,27 C26.284,27 33,33.716 33,42 L33,42 Z" id="Fill-16" fill="#ECF0F1" sketch:type="MSShapeGroup"></path>
            <path d="M33,42 C33,50.284 26.284,57 18,57 C9.716,57 3,50.284 3,42 C3,33.716 9.716,27 18,27 C26.284,27 33,33.716 33,42 L33,42 Z" id="Stroke-17" stroke="#BDC3C7" stroke-width="2" stroke-linecap="round" sketch:type="MSShapeGroup"></path>
            <path id="Fill-18" fill="#556080" sketch:type="MSShapeGroup"></path>
            <path id="Fill-19" fill="#556080" sketch:type="MSShapeGroup"></path>
            <path d="M18,28 C17.448,28 17,27.553 17,27 L17,25 C17,24.447 17.448,24 18,24 C18.552,24 19,24.447 19,25 L19,27 C19,27.553 18.552,28 18,28" id="Fill-20" fill="#556080" sketch:type="MSShapeGroup"></path>
            <path d="M18,60 C17.448,60 17,59.553 17,59 L17,57 C17,56.447 17.448,56 18,56 C18.552,56 19,56.447 19,57 L19,59 C19,59.553 18.552,60 18,60" id="Fill-21" fill="#556080" sketch:type="MSShapeGroup"></path>
            <path d="M35,43 L33,43 C32.448,43 32,42.553 32,42 C32,41.447 32.448,41 33,41 L35,41 C35.552,41 36,41.447 36,42 C36,42.553 35.552,43 35,43" id="Fill-22" fill="#556080" sketch:type="MSShapeGroup"></path>
            <path d="M3,43 L1,43 C0.448,43 0,42.553 0,42 C0,41.447 0.448,41 1,41 L3,41 C3.552,41 4,41.447 4,42 C4,42.553 3.552,43 3,43" id="Fill-23" fill="#556080" sketch:type="MSShapeGroup"></path>
            <path d="M5.979,55.02 C5.723,55.02 5.467,54.923 5.272,54.727 C4.881,54.337 4.881,53.704 5.272,53.313 L6.687,51.899 C7.077,51.509 7.71,51.509 8.101,51.899 C8.491,52.29 8.491,52.923 8.101,53.313 L6.686,54.727 C6.491,54.923 6.235,55.02 5.979,55.02" id="Fill-24" fill="#556080" sketch:type="MSShapeGroup"></path>
            <path d="M30.021,55.02 C29.765,55.02 29.509,54.923 29.314,54.727 L27.899,53.313 C27.509,52.923 27.509,52.29 27.899,51.899 C28.289,51.509 28.923,51.509 29.314,51.899 L30.728,53.313 C31.119,53.704 31.119,54.337 30.728,54.727 C30.533,54.923 30.277,55.02 30.021,55.02" id="Fill-25" fill="#556080" sketch:type="MSShapeGroup"></path>
            <path d="M7.394,32.394 C7.138,32.394 6.882,32.296 6.687,32.101 L5.272,30.687 C4.881,30.296 4.881,29.663 5.272,29.273 C5.662,28.882 6.295,28.882 6.686,29.273 L8.101,30.687 C8.491,31.077 8.491,31.71 8.101,32.101 C7.906,32.296 7.649,32.394 7.394,32.394" id="Fill-26" fill="#556080" sketch:type="MSShapeGroup"></path>
            <path d="M25.667,42.214 C25.667,46.245 22.399,49.512 18.369,49.512 C14.338,49.512 11.071,46.245 11.071,42.214 C11.071,38.184 14.338,34.917 18.369,34.917 C22.399,34.917 25.667,38.184 25.667,42.214" id="Fill-27" fill="#556080" sketch:type="MSShapeGroup"></path>
            <path d="M49.157,3.692 C48.902,3.692 48.646,3.595 48.45,3.399 L47.036,1.985 C46.646,1.595 46.646,0.962 47.036,0.571 C47.427,0.181 48.06,0.181 48.45,0.571 L49.865,1.985 C50.255,2.376 50.255,3.009 49.865,3.399 C49.669,3.595 49.413,3.692 49.157,3.692" id="Fill-1916" fill="#B9A46D" sketch:type="MSShapeGroup"></path>
            <path d="M46.329,6.521 C46.073,6.521 45.817,6.424 45.621,6.228 L44.207,4.813 C43.817,4.423 43.817,3.789 44.208,3.399 C44.598,3.009 45.232,3.009 45.622,3.399 L47.036,4.815 C47.427,5.205 47.426,5.839 47.036,6.228 C46.841,6.424 46.585,6.521 46.329,6.521" id="Fill-1917" fill="#B9A46D" sketch:type="MSShapeGroup"></path>
            <path d="M56.229,16.421 C55.973,16.421 55.717,16.323 55.522,16.128 L54.107,14.714 C53.716,14.324 53.716,13.69 54.107,13.3 C54.497,12.909 55.13,12.909 55.521,13.3 L56.936,14.714 C57.326,15.104 57.326,15.737 56.936,16.128 C56.74,16.323 56.485,16.421 56.229,16.421" id="Fill-1918" fill="#B9A46D" sketch:type="MSShapeGroup"></path>
            <path d="M59.057,13.592 C58.801,13.592 58.545,13.494 58.35,13.299 L56.936,11.885 C56.545,11.494 56.545,10.861 56.936,10.471 C57.326,10.08 57.959,10.08 58.35,10.471 L59.764,11.885 C60.154,12.275 60.154,12.908 59.764,13.299 C59.569,13.494 59.313,13.592 59.057,13.592" id="Fill-1919" fill="#B9A46D" sketch:type="MSShapeGroup"></path>
            <path d="M57.735,4.2 L56.136,2.6 C54.234,0.698 51.151,0.698 49.25,2.6 L45.617,6.233 C45.035,6.815 44.95,7.801 45.547,8.368 C46.161,8.951 46.171,9.922 45.576,10.517 L27.767,28.326 C27.136,28.956 27.195,29.979 27.874,30.556 C28.552,31.133 29.177,31.77 29.744,32.458 C30.317,33.155 31.354,33.224 31.992,32.586 L49.818,14.76 C50.404,14.174 51.354,14.174 51.94,14.76 C52.525,15.345 53.475,15.345 54.061,14.76 L57.735,11.085 C59.637,9.184 59.637,6.101 57.735,4.2" id="Fill-1920" fill="#9B431C" sketch:type="MSShapeGroup"></path>
            <path d="M45.857,9.911 C45.466,9.52 44.833,9.52 44.443,9.911 L8.182,46.552 C7.791,46.942 7.791,47.575 8.182,47.966 C8.377,48.161 8.633,48.258 8.889,48.258 C9.145,48.258 9.401,48.161 9.596,47.966 L45.857,11.325 C46.247,10.934 46.247,10.301 45.857,9.911" id="Fill-1921" fill="#CBB292" sketch:type="MSShapeGroup"></path>
            <path d="M48.857,11.153 C48.466,10.762 47.833,10.762 47.443,11.153 L10.304,48.673 C9.914,49.063 9.914,49.696 10.304,50.087 C10.499,50.282 10.755,50.38 11.011,50.38 C11.267,50.38 11.523,50.282 11.718,50.087 L48.857,12.567 C49.247,12.176 49.247,11.543 48.857,11.153" id="Fill-1922" fill="#CBB292" sketch:type="MSShapeGroup"></path>
            <path d="M50.099,14.153 C49.708,13.762 49.075,13.762 48.685,14.153 L12.425,50.795 C12.034,51.185 12.034,51.818 12.425,52.209 C12.621,52.404 12.876,52.502 13.132,52.502 C13.388,52.502 13.644,52.404 13.839,52.209 L50.099,15.567 C50.49,15.176 50.49,14.543 50.099,14.153" id="Fill-1923" fill="#CBB292" sketch:type="MSShapeGroup"></path>
        </g>
    </g>
</svg>