<?xml version="1.0" encoding="UTF-8" standalone="no"?>
<svg width="58px" height="58px" viewBox="0 0 58 58" version="1.1" xmlns="http://www.w3.org/2000/svg" xmlns:xlink="http://www.w3.org/1999/xlink" xmlns:sketch="http://www.bohemiancoding.com/sketch/ns">
    <!-- Generator: Sketch 3.2.2 (9983) - http://www.bohemiancoding.com/sketch -->
    <title>14 - Bass Drum (Flat)</title>
    <desc>Created with Sketch.</desc>
    <defs></defs>
    <g id="Page-1" stroke="none" stroke-width="1" fill="none" fill-rule="evenodd" sketch:type="MSPage">
        <g id="14---Bass-Drum-(Flat)" sketch:type="MSLayerGroup">
            <path d="M29,17 C12.984,17 0,14.314 0,11 L0,23 C0,24.249 1.845,25.408 5,26.368 L5,22.172 C5.764,22.453 6.767,22.748 8,23.038 L8,27.135 C13.068,28.237 20.135,28.939 28,28.995 L28,25 L31,25 L31,28.984 C38.463,28.879 45.148,28.19 50,27.135 L50,23.038 C51.233,22.748 52.236,22.453 53,22.172 L53,26.368 C56.155,25.408 58,24.249 58,23 L58,11 C58,14.314 45.016,17 29,17" id="Fill-185" fill="#556080" sketch:type="MSShapeGroup"></path>
            <path d="M10,19.665 C7.856,19.298 5.82,18.837 2.979,17.904 L2.979,21.394 C5.03,22.272 7.063,22.899 10,23.463 L10,19.665" id="Fill-1490" fill="#EEAF4B" sketch:type="MSShapeGroup"></path>
            <path d="M25,24.965 C25.974,24.986 27.968,25 29,25 C30.032,25 33.026,24.986 34,24.965 L34,20.973 C32.959,20.992 29.954,21 29,21 C28.046,21 26.041,20.992 25,20.973 L25,24.965" id="Fill-1491" fill="#EEAF4B" sketch:type="MSShapeGroup"></path>
            <path d="M48,23.463 C50.937,22.899 52.97,22.399 55,21 L55,17.383 C52.18,18.837 50.144,19.298 48,19.665 L48,23.463" id="Fill-1492" fill="#EEAF4B" sketch:type="MSShapeGroup"></path>
            <path d="M54,6 C54,9.314 42.807,12 29,12 C15.193,12 4,9.314 4,6 C4,2.686 15.193,0 29,0 C42.807,0 54,2.686 54,6" id="Fill-1493" fill="#FBD490" sketch:type="MSShapeGroup"></path>
            <path d="M53.689,5.056 C53.892,5.363 54,5.679 54,6 C54,9.314 42.807,12 29,12 C15.193,12 4,9.314 4,6 C4,5.679 4.108,5.363 4.311,5.056 C1.58,7.553 0,9.846 0,11 C0,14.314 12.984,17 29,17 C45.016,17 58,14.314 58,11 C58,9.846 56.42,7.553 53.689,5.056" id="Fill-1494" fill="#F9EBB0" sketch:type="MSShapeGroup"></path>
            <path d="M28,25 L31,25 L31,36 L28,36 L28,25 Z" id="Fill-1495" fill="#FBD490" sketch:type="MSShapeGroup"></path>
            <path d="M5,22.172 L5,32 L8,33 L8,23.038 C6.767,22.748 5.764,22.453 5,22.172" id="Fill-1496" fill="#FBD490" sketch:type="MSShapeGroup"></path>
            <path d="M50,23.038 L50,33 L53,32 L53,22.172 C52.236,22.453 51.233,22.748 50,23.038" id="Fill-1497" fill="#FBD490" sketch:type="MSShapeGroup"></path>
            <path d="M3,45.998 C3.148,47.542 13.558,52 29,52 C44.445,52 54.856,47.54 55,45.997 C55.048,45.481 55.467,45.08 56,45.055 L56,25.189 C55.209,25.606 54.199,26 53,26.366 L53,32 L50,33 L50,27.132 C45.149,28.188 38.468,28.878 31,28.984 L31,36 L28,36 L28,28.992 C20.132,28.936 13.066,28.235 8,27.132 L8,33 L5,32 L5,26.366 C3.801,26 2.791,25.606 2,25.189 L2,45 C2.552,45 2.999,45.446 3,45.998" id="Fill-1498" fill="#ECF0F1" sketch:type="MSShapeGroup"></path>
            <path d="M2,47.904 L2,51 C2,53.761 14.088,58 29,58 C43.912,58 56,53.761 56,51 L56,47.904 C52.58,51.197 40.884,54 29,54 C17.116,54 5.42,51.197 2,47.904" id="Fill-1499" fill="#ECF0F1" sketch:type="MSShapeGroup"></path>
            <path d="M55,45.997 C54.856,47.54 44.445,52 29,52 C13.558,52 3.148,47.542 3,45.998 C2.999,45.446 2.552,45 2,45 L2,47.904 C5.42,51.197 17.116,54 29,54 C40.884,54 52.58,51.197 56,47.904 L56,45.055 C55.467,45.08 55.048,45.481 55,45.997" id="Fill-1500" fill="#D75A4A" sketch:type="MSShapeGroup"></path>
            <path d="M7.717,40.144 L3.096,38.411 C2.437,38.164 2,37.533 2,36.829 L2,33.438 C2,32.258 3.178,31.442 4.283,31.856 L8.904,33.589 C9.563,33.836 10,34.467 10,35.171 L10,38.562 C10,39.742 8.822,40.558 7.717,40.144" id="Fill-1501" fill="#EEAF4B" sketch:type="MSShapeGroup"></path>
            <path d="M53.717,31.856 L49.096,33.589 C48.437,33.836 48,34.467 48,35.171 L48,38.562 C48,39.742 49.178,40.558 50.283,40.144 L54.904,38.411 C55.563,38.164 56,37.533 56,36.829 L56,33.438 C56,32.258 54.822,31.442 53.717,31.856" id="Fill-1502" fill="#EEAF4B" sketch:type="MSShapeGroup"></path>
            <path d="M33.325,42 L25.675,42 C25.302,42 25,41.698 25,41.325 L25,36.675 C25,36.302 25.302,36 25.675,36 L33.325,36 C33.698,36 34,36.302 34,36.675 L34,41.325 C34,41.698 33.698,42 33.325,42" id="Fill-1503" fill="#EEAF4B" sketch:type="MSShapeGroup"></path>
        </g>
    </g>
</svg>