<?xml version="1.0" encoding="UTF-8" standalone="no"?>
<svg width="58px" height="58px" viewBox="0 0 58 58" version="1.1" xmlns="http://www.w3.org/2000/svg" xmlns:xlink="http://www.w3.org/1999/xlink" xmlns:sketch="http://www.bohemiancoding.com/sketch/ns">
    <!-- Generator: Sketch 3.2.2 (9983) - http://www.bohemiancoding.com/sketch -->
    <title>18 - Circus Drum (Flat)</title>
    <desc>Created with Sketch.</desc>
    <defs></defs>
    <g id="Page-1" stroke="none" stroke-width="1" fill="none" fill-rule="evenodd" sketch:type="MSPage">
        <g id="18---Circus-Drum-(Flat)" sketch:type="MSLayerGroup">
            <path d="M57.988,19 C57.729,25.593 44.854,30.905 29,30.905 C13.146,30.905 0.271,25.593 0.012,19 L0,19 L0,41.096 L0.012,41.096 C0.271,47.688 13.146,53 29,53 C44.854,53 57.729,47.688 57.988,41.096 L58,41.096 L58,19 L57.988,19" id="Fill-49" fill="#D75A4A" sketch:type="MSShapeGroup"></path>
            <path d="M21,53 C20.868,53 20.735,52.975 20.607,52.92 C20.099,52.702 19.863,52.114 20.081,51.606 L29.081,30.555 C29.297,30.047 29.884,29.811 30.393,30.028 C30.901,30.246 31.137,30.834 30.919,31.342 L21.919,52.394 C21.757,52.773 21.388,53 21,53" id="Fill-1330" fill="#F0C419" sketch:type="MSShapeGroup"></path>
            <path d="M39,53 C38.612,53 38.243,52.773 38.081,52.394 L29.081,31.342 C28.863,30.834 29.099,30.246 29.607,30.028 C30.113,29.81 30.702,30.048 30.919,30.555 L39.919,51.606 C40.137,52.114 39.901,52.702 39.393,52.92 C39.265,52.975 39.132,53 39,53" id="Fill-1331" fill="#F0C419" sketch:type="MSShapeGroup"></path>
            <path d="M39,53 C38.883,53 38.764,52.979 38.648,52.937 C38.131,52.742 37.87,52.165 38.064,51.648 L46.982,27.914 C47.177,27.396 47.755,27.137 48.27,27.329 C48.787,27.523 49.049,28.101 48.854,28.617 L39.936,52.352 C39.785,52.753 39.404,53 39,53" id="Fill-1332" fill="#F0C419" sketch:type="MSShapeGroup"></path>
            <path d="M56,46 C55.629,46 55.272,45.792 55.1,45.435 L47.018,28.7 C46.778,28.203 46.986,27.605 47.483,27.365 C47.98,27.126 48.579,27.333 48.819,27.831 L56.9,44.565 C57.141,45.062 56.932,45.66 56.435,45.9 C56.295,45.968 56.147,46 56,46" id="Fill-1333" fill="#F0C419" sketch:type="MSShapeGroup"></path>
            <path d="M3.999,48 C3.849,48 3.696,47.966 3.553,47.894 C3.059,47.647 2.858,47.047 3.106,46.553 L12.106,28.553 C12.352,28.059 12.951,27.859 13.447,28.106 C13.941,28.352 14.142,28.953 13.895,29.447 L4.895,47.447 C4.719,47.798 4.366,48 3.999,48" id="Fill-1334" fill="#F0C419" sketch:type="MSShapeGroup"></path>
            <path d="M21,53 C20.586,53 20.199,52.741 20.056,52.328 L12.056,29.328 C11.874,28.807 12.15,28.237 12.671,28.056 C13.193,27.871 13.763,28.15 13.944,28.672 L21.944,51.672 C22.126,52.193 21.85,52.763 21.329,52.944 C21.22,52.982 21.109,53 21,53" id="Fill-1335" fill="#F0C419" sketch:type="MSShapeGroup"></path>
            <path d="M49.663,10.458 L38.027,22.094 C37.554,22.567 37.052,23.011 36.524,23.421 L34.775,24.781 C33.745,25.583 32.417,24.255 33.219,23.225 L34.579,21.476 C34.989,20.948 35.433,20.446 35.906,19.973 L46.529,9.35 C41.66,7.866 35.588,7 29,7 C22.412,7 16.341,7.866 11.471,9.35 L22.094,19.973 C22.567,20.446 23.011,20.948 23.421,21.476 L24.781,23.225 C25.583,24.255 24.255,25.583 23.225,24.781 L21.476,23.421 C20.948,23.011 20.446,22.567 19.973,22.094 L8.337,10.458 C3.183,12.567 0,15.489 0,18.798 C0,25.484 12.984,30.905 29,30.905 C45.016,30.905 58,25.484 58,18.798 C58,15.489 54.817,12.567 49.663,10.458" id="Fill-1336" fill="#CBB292" sketch:type="MSShapeGroup"></path>
            <path d="M0.004,45.936 C0.004,45.957 0,45.979 0,46 C0,52.627 12.984,58 29,58 C45.016,58 58,52.627 58,46 C58,45.979 57.996,45.957 57.996,45.936 L58,45.936 L58,41.096 L57.988,41.096 C57.729,47.688 44.854,53 29,53 C13.146,53 0.271,47.688 0.012,41.096 L0,41.096 L0,45.936 L0.004,45.936" id="Fill-1869" fill="#ECF0F1" sketch:type="MSShapeGroup"></path>
            <path d="M57,17 C57,22.523 44.464,27 29,27 C13.536,27 1,22.523 1,17 C1,11.477 13.536,7 29,7 C44.464,7 57,11.477 57,17" id="Fill-1878" fill="#FBD490" sketch:type="MSShapeGroup"></path>
            <path d="M33.219,23.225 L34.578,21.476 C34.989,20.948 35.433,20.446 35.906,19.973 L55.439,0.439 C56.025,-0.146 56.975,-0.146 57.561,0.439 C58.146,1.025 58.146,1.975 57.561,2.561 L38.027,22.094 C37.554,22.567 37.052,23.011 36.524,23.421 L34.775,24.781 C33.745,25.583 32.417,24.255 33.219,23.225" id="Fill-1879" fill="#AD977F" sketch:type="MSShapeGroup"></path>
            <path d="M24.781,23.225 L23.421,21.476 C23.011,20.948 22.567,20.446 22.094,19.973 L2.561,0.439 C1.975,-0.146 1.025,-0.146 0.439,0.439 C-0.146,1.025 -0.146,1.975 0.439,2.561 L19.973,22.094 C20.446,22.567 20.948,23.011 21.476,23.421 L23.225,24.781 C24.255,25.583 25.583,24.255 24.781,23.225" id="Fill-1880" fill="#AD977F" sketch:type="MSShapeGroup"></path>
        </g>
    </g>
</svg>