<?xml version="1.0" encoding="UTF-8" standalone="no"?>
<svg width="59px" height="59px" viewBox="0 0 59 59" version="1.1" xmlns="http://www.w3.org/2000/svg" xmlns:xlink="http://www.w3.org/1999/xlink" xmlns:sketch="http://www.bohemiancoding.com/sketch/ns">
    <!-- Generator: Sketch 3.2.2 (9983) - http://www.bohemiancoding.com/sketch -->
    <title>34 - Clarinet (Flat)</title>
    <desc>Created with Sketch.</desc>
    <defs></defs>
    <g id="Page-1" stroke="none" stroke-width="1" fill="none" fill-rule="evenodd" sketch:type="MSPage">
        <g id="34---Clarinet-(Flat)" sketch:type="MSLayerGroup" transform="translate(0.000000, 1.000000)">
            <path d="M48.485,9.408 L55.616,16.539 C55.616,16.539 54.596,16.686 53.123,16.96 C47.654,17.974 43.285,20.383 39.352,24.317 L33.695,18.66 C37.628,14.727 39.919,10.239 40.933,4.77 C41.207,3.297 41.354,2.277 41.354,2.277 L48.485,9.408" id="Fill-1266" fill="#35495E" sketch:type="MSShapeGroup"></path>
            <path d="M0.241,54.502 L3.51,57.771 C3.789,58.05 4.232,58.082 4.548,57.845 L13.164,50.322 C13.55,50.032 13.591,49.467 13.249,49.125 L8.887,44.763 C8.545,44.421 7.98,44.462 7.69,44.848 L0.167,53.464 C-0.07,53.78 -0.038,54.223 0.241,54.502" id="Fill-1267" fill="#556080" sketch:type="MSShapeGroup"></path>
            <path d="M39.017,0 L58.017,19" id="Stroke-1268" stroke="#BDC3C7" stroke-width="2" stroke-linecap="round" sketch:type="MSShapeGroup"></path>
            <path d="M33.695,18.66 L39.352,24.317 L38.343,25.326 L38.017,25 L36.017,25 L35.017,26 L35.017,28 L35.343,28.326 L33.343,30.326 L33.017,30 L31.017,30 L30.017,31 L30.017,33 L30.343,33.326 L28.343,35.326 L28.017,35 L26.017,35 L25.017,36 L25.017,38 L25.343,38.326 L23.343,40.326 L23.017,40 L21.017,40 L20.017,41 L20.017,43 L20.343,43.326 L18.343,45.326 L18.017,45 L16.017,45 L15.017,46 L15.017,48 L15.343,48.326 L13.896,49.772 L8.239,44.116 L33.695,18.66" id="Fill-1269" fill="#556080" sketch:type="MSShapeGroup"></path>
            <path d="M0.167,53.464 L1.178,52.307 C2.4,50.907 4.551,50.835 5.864,52.148 C7.177,53.462 7.104,55.612 5.705,56.834 L4.548,57.844 C4.232,58.082 3.789,58.05 3.51,57.771 L0.241,54.502 C-0.038,54.223 -0.07,53.78 0.167,53.464" id="Fill-1270" fill="#35495E" sketch:type="MSShapeGroup"></path>
            <path d="M38.017,29 L39.017,28 L39.017,26 L38.017,25 L36.017,25 L35.017,26 L35.017,28 L36.017,29 L38.017,29" id="Fill-1903" fill="#D1D4D1" sketch:type="MSShapeGroup"></path>
            <path d="M33.017,34 L34.017,33 L34.017,31 L33.017,30 L31.017,30 L30.017,31 L30.017,33 L31.017,34 L33.017,34" id="Fill-1904" fill="#D1D4D1" sketch:type="MSShapeGroup"></path>
            <path d="M28.017,39 L29.017,38 L29.017,36 L28.017,35 L26.017,35 L25.017,36 L25.017,38 L26.017,39 L28.017,39" id="Fill-1905" fill="#D1D4D1" sketch:type="MSShapeGroup"></path>
            <path d="M23.017,44 L24.017,43 L24.017,41 L23.017,40 L21.017,40 L20.017,41 L20.017,43 L21.017,44 L23.017,44" id="Fill-1906" fill="#D1D4D1" sketch:type="MSShapeGroup"></path>
            <path d="M18.017,49 L19.017,48 L19.017,46 L18.017,45 L16.017,45 L15.017,46 L15.017,48 L16.017,49 L18.017,49" id="Fill-1907" fill="#D1D4D1" sketch:type="MSShapeGroup"></path>
            <path d="M15.018,52 C14.762,52 14.506,51.902 14.31,51.707 L6.31,43.707 C5.92,43.316 5.92,42.684 6.31,42.293 C6.701,41.902 7.334,41.902 7.725,42.293 L15.725,50.293 C16.115,50.684 16.115,51.316 15.725,51.707 C15.529,51.902 15.273,52 15.018,52" id="Fill-1908" fill="#BDC3C7" sketch:type="MSShapeGroup"></path>
            <path d="M31.506,24.736 L27.264,20.494 C26.873,20.103 26.24,20.103 25.85,20.494 L11.21,35.134 C10.819,35.524 10.819,36.157 11.21,36.548 L15.452,40.79 C15.648,40.985 15.903,41.083 16.159,41.083 C16.415,41.083 16.671,40.985 16.866,40.79 C17.257,40.399 17.257,39.767 16.866,39.376 L13.331,35.841 L16.879,32.293 L21.293,36.707 C21.488,36.902 21.744,37 22,37 C22.256,37 22.512,36.902 22.707,36.707 C23.098,36.316 23.098,35.684 22.707,35.293 L18.293,30.879 L21.379,27.793 L25.793,32.207 C25.988,32.402 26.244,32.5 26.5,32.5 C26.756,32.5 27.012,32.402 27.207,32.207 C27.598,31.816 27.598,31.184 27.207,30.793 L22.793,26.379 L26.557,22.615 L30.092,26.15 C30.482,26.541 31.115,26.541 31.506,26.15 C31.896,25.76 31.896,25.127 31.506,24.736" id="Fill-1909" fill="#D1D4D1" sketch:type="MSShapeGroup"></path>
        </g>
    </g>
</svg>