<?xml version="1.0" encoding="UTF-8" standalone="no"?>
<svg width="58px" height="58px" viewBox="0 0 58 58" version="1.1" xmlns="http://www.w3.org/2000/svg" xmlns:xlink="http://www.w3.org/1999/xlink" xmlns:sketch="http://www.bohemiancoding.com/sketch/ns">
    <!-- Generator: Sketch 3.2.2 (9983) - http://www.bohemiancoding.com/sketch -->
    <title>48 - Classic Piano (Flat)</title>
    <desc>Created with Sketch.</desc>
    <defs></defs>
    <g id="Page-1" stroke="none" stroke-width="1" fill="none" fill-rule="evenodd" sketch:type="MSPage">
        <g id="48---Classic-Piano-(Flat)" sketch:type="MSLayerGroup">
            <path d="M1,3 L1,25 L5,25 L5,23 L9,23 L9,25 L13,25 L13,23 L17,23 L17,25 L21,25 L21,23 L25,23 L25,25 L29,25 L29,23 L33,23 L33,25 L37,25 L37,23 L41,23 L41,25 L45,25 L45,23 L49,23 L49,25 L57,25 L57,3 L1,3" id="Fill-114" fill="#A35141" sketch:type="MSShapeGroup"></path>
            <path d="M0,0 L58,0 L58,3 L0,3 L0,0 Z" id="Fill-1172" fill="#7A3726" sketch:type="MSShapeGroup"></path>
            <path d="M1,55 L5,55 L5,58 L1,58 L1,55 Z" id="Fill-1173" fill="#59474E" sketch:type="MSShapeGroup"></path>
            <path d="M53,55 L57,55 L57,58 L53,58 L53,55 Z" id="Fill-1174" fill="#59474E" sketch:type="MSShapeGroup"></path>
            <path d="M24,52 L27,52 L27,57 L24,57 L24,52 Z" id="Fill-1175" fill="#556080" sketch:type="MSShapeGroup"></path>
            <path d="M31,52 L34,52 L34,57 L31,57 L31,52 Z" id="Fill-1176" fill="#556080" sketch:type="MSShapeGroup"></path>
            <path d="M3,25 L7,25 L7,27 L3,27 L3,25 Z" id="Fill-1177" fill="#ECF0F1" sketch:type="MSShapeGroup"></path>
            <path d="M5,23 L9,23 L9,25 L5,25 L5,23 Z" id="Fill-1178" fill="#2C2F38" sketch:type="MSShapeGroup"></path>
            <path d="M13,23 L17,23 L17,25 L13,25 L13,23 Z" id="Fill-1179" fill="#2C2F38" sketch:type="MSShapeGroup"></path>
            <path d="M21,23 L25,23 L25,25 L21,25 L21,23 Z" id="Fill-1180" fill="#2C2F38" sketch:type="MSShapeGroup"></path>
            <path d="M29,23 L33,23 L33,25 L29,25 L29,23 Z" id="Fill-1181" fill="#2C2F38" sketch:type="MSShapeGroup"></path>
            <path d="M37,23 L41,23 L41,25 L37,25 L37,23 Z" id="Fill-1182" fill="#2C2F38" sketch:type="MSShapeGroup"></path>
            <path d="M45,23 L49,23 L49,25 L45,25 L45,23 Z" id="Fill-1183" fill="#2C2F38" sketch:type="MSShapeGroup"></path>
            <path d="M7,25 L11,25 L11,27 L7,27 L7,25 Z" id="Fill-1184" fill="#FFFFFF" sketch:type="MSShapeGroup"></path>
            <path d="M11,25 L15,25 L15,27 L11,27 L11,25 Z" id="Fill-1185" fill="#ECF0F1" sketch:type="MSShapeGroup"></path>
            <path d="M15,25 L19,25 L19,27 L15,27 L15,25 Z" id="Fill-1186" fill="#FFFFFF" sketch:type="MSShapeGroup"></path>
            <path d="M19,25 L23,25 L23,27 L19,27 L19,25 Z" id="Fill-1187" fill="#ECF0F1" sketch:type="MSShapeGroup"></path>
            <path d="M23,25 L27,25 L27,27 L23,27 L23,25 Z" id="Fill-1188" fill="#FFFFFF" sketch:type="MSShapeGroup"></path>
            <path d="M27,25 L31,25 L31,27 L27,27 L27,25 Z" id="Fill-1189" fill="#ECF0F1" sketch:type="MSShapeGroup"></path>
            <path d="M31,25 L35,25 L35,27 L31,27 L31,25 Z" id="Fill-1190" fill="#FFFFFF" sketch:type="MSShapeGroup"></path>
            <path d="M35,25 L39,25 L39,27 L35,27 L35,25 Z" id="Fill-1191" fill="#ECF0F1" sketch:type="MSShapeGroup"></path>
            <path d="M39,25 L43,25 L43,27 L39,27 L39,25 Z" id="Fill-1192" fill="#FFFFFF" sketch:type="MSShapeGroup"></path>
            <path d="M43,25 L47,25 L47,27 L43,27 L43,25 Z" id="Fill-1193" fill="#ECF0F1" sketch:type="MSShapeGroup"></path>
            <path d="M47,25 L51,25 L51,27 L47,27 L47,25 Z" id="Fill-1194" fill="#FFFFFF" sketch:type="MSShapeGroup"></path>
            <path d="M51,25 L55,25 L55,27 L51,27 L51,25 Z" id="Fill-1195" fill="#ECF0F1" sketch:type="MSShapeGroup"></path>
            <path d="M37,20 L21,20 C20.448,20 20,19.552 20,19 C20,18.448 20.448,18 21,18 L37,18 C37.552,18 38,18.448 38,19 C38,19.552 37.552,20 37,20" id="Fill-1196" fill="#F3D55B" sketch:type="MSShapeGroup"></path>
            <path d="M23,9 L29,9 L29,19 L23,19 L23,9 Z" id="Fill-1197" fill="#F6EFCA" sketch:type="MSShapeGroup"></path>
            <path d="M29,9 L35,9 L35,19 L29,19 L29,9 Z" id="Fill-1198" fill="#DBD3AF" sketch:type="MSShapeGroup"></path>
            <path d="M4,10 C3.448,10 3,9.552 3,9 L3,6 C3,5.448 3.448,5 4,5 L7,5 C7.552,5 8,5.448 8,6 C8,6.552 7.552,7 7,7 L5,7 L5,9 C5,9.552 4.552,10 4,10" id="Fill-1199" fill="#F3D55B" sketch:type="MSShapeGroup"></path>
            <path d="M54,10 C53.448,10 53,9.552 53,9 L53,7 L51,7 C50.448,7 50,6.552 50,6 C50,5.448 50.448,5 51,5 L54,5 C54.552,5 55,5.448 55,6 L55,9 C55,9.552 54.552,10 54,10" id="Fill-1200" fill="#F3D55B" sketch:type="MSShapeGroup"></path>
            <path d="M54,20 L51,20 C50.448,20 50,19.552 50,19 C50,18.448 50.448,18 51,18 L53,18 L53,16 C53,15.448 53.448,15 54,15 C54.552,15 55,15.448 55,16 L55,19 C55,19.552 54.552,20 54,20" id="Fill-1201" fill="#F3D55B" sketch:type="MSShapeGroup"></path>
            <path d="M7,21 L4,21 C3.448,21 3,20.552 3,20 L3,17 C3,16.448 3.448,16 4,16 C4.552,16 5,16.448 5,17 L5,19 L7,19 C7.552,19 8,19.448 8,20 C8,20.552 7.552,21 7,21" id="Fill-1202" fill="#F3D55B" sketch:type="MSShapeGroup"></path>
            <path d="M5,31 L53,31 L53,51 L5,51 L5,31 Z" id="Fill-1665" fill="#A35141" sketch:type="MSShapeGroup"></path>
            <path d="M49,42 C48.448,42 48,42.448 48,43 L48,43.126 C46.596,43.489 45.489,44.596 45.127,46 L45,46 C44.448,46 44,46.448 44,47 C44,47.552 44.448,48 45,48 L46,48 C46.552,48 47,47.552 47,47 C47,45.897 47.897,45 49,45 C49.552,45 50,44.552 50,44 L50,43 C50,42.448 49.552,42 49,42" id="Fill-1666" fill="#F3D55B" sketch:type="MSShapeGroup"></path>
            <path d="M13,46 L12.874,46 C12.511,44.596 11.404,43.489 10,43.126 L10,43 C10,42.448 9.552,42 9,42 C8.448,42 8,42.448 8,43 L8,44 C8,44.552 8.448,45 9,45 C10.103,45 11,45.897 11,47 C11,47.552 11.448,48 12,48 L13,48 C13.552,48 14,47.552 14,47 C14,46.448 13.552,46 13,46" id="Fill-1667" fill="#F3D55B" sketch:type="MSShapeGroup"></path>
            <path d="M41,46 L17,46 C16.448,46 16,46.448 16,47 C16,47.552 16.448,48 17,48 L41,48 C41.552,48 42,47.552 42,47 C42,46.448 41.552,46 41,46" id="Fill-1668" fill="#F3D55B" sketch:type="MSShapeGroup"></path>
            <path d="M41,34 L17,34 C16.448,34 16,34.448 16,35 C16,35.552 16.448,36 17,36 L41,36 C41.552,36 42,35.552 42,35 C42,34.448 41.552,34 41,34" id="Fill-1669" fill="#F3D55B" sketch:type="MSShapeGroup"></path>
            <path d="M13,34 L12,34 C11.448,34 11,34.448 11,35 C11,36.103 10.103,37 9,37 C8.448,37 8,37.448 8,38 L8,39 C8,39.552 8.448,40 9,40 C9.552,40 10,39.552 10,39 L10,38.873 C11.404,38.511 12.511,37.404 12.874,36 L13,36 C13.552,36 14,35.552 14,35 C14,34.448 13.552,34 13,34" id="Fill-1670" fill="#F3D55B" sketch:type="MSShapeGroup"></path>
            <path d="M49,37 C47.897,37 47,36.103 47,35 C47,34.448 46.552,34 46,34 L45,34 C44.448,34 44,34.448 44,35 C44,35.552 44.448,36 45,36 L45.127,36 C45.489,37.404 46.596,38.511 48,38.873 L48,39 C48,39.552 48.448,40 49,40 C49.552,40 50,39.552 50,39 L50,38 C50,37.448 49.552,37 49,37" id="Fill-1671" fill="#F3D55B" sketch:type="MSShapeGroup"></path>
            <path d="M58,31 L58,25 L55,25 L55,27 L3,27 L3,25 L0,25 L0,31 L1,31 L1,52 L0,52 L0,55 L24,55 L24,52 L27,52 L27,55 L31,55 L31,52 L34,52 L34,55 L58,55 L58,52 L57,52 L57,31 L58,31 L58,31 Z M5,31 L53,31 L53,51 L5,51 L5,31 Z" id="Fill-1672" fill="#7A3726" sketch:type="MSShapeGroup"></path>
        </g>
    </g>
</svg>