<?xml version="1.0" encoding="UTF-8" standalone="no"?>
<svg width="36px" height="58px" viewBox="0 0 36 58" version="1.1" xmlns="http://www.w3.org/2000/svg" xmlns:xlink="http://www.w3.org/1999/xlink" xmlns:sketch="http://www.bohemiancoding.com/sketch/ns">
    <!-- Generator: Sketch 3.2.2 (9983) - http://www.bohemiancoding.com/sketch -->
    <title>55 - Condenser Microphone (Flat)</title>
    <desc>Created with Sketch.</desc>
    <defs></defs>
    <g id="Page-1" stroke="none" stroke-width="1" fill="none" fill-rule="evenodd" sketch:type="MSPage">
        <g id="55---Condenser-Microphone-(Flat)" sketch:type="MSLayerGroup">
            <path d="M5,14 L31,14 L31,18 L5,18 L5,14 Z" id="Fill-225" fill="#DBC27D" sketch:type="MSShapeGroup"></path>
            <path d="M16,55 L20,55 L20,58 L16,58 L16,55 Z" id="Fill-226" fill="#D75A4A" sketch:type="MSShapeGroup"></path>
            <path d="M8,18 L8,41.672 C8,43.138 8.69,44.517 9.862,45.397 L13.6,48.2 C14.84,49.13 15.651,50.497 15.906,52 L20.094,52 C20.349,50.497 21.16,49.13 22.4,48.2 L26.138,45.397 C27.31,44.517 28,43.138 28,41.672 L28,18 L8,18" id="Fill-227" fill="#D75A4A" sketch:type="MSShapeGroup"></path>
            <path d="M28,14 L8,14 L8,9.203 C8,7.741 8.255,6.287 8.757,4.881 L10.002,1.395 C10.297,0.569 11.24,0 12.314,0 L23.686,0 C24.76,0 25.703,0.569 25.998,1.395 L27.244,4.882 C27.745,6.287 28,7.741 28,9.203 L28,14" id="Fill-881" fill="#E3D5A6" sketch:type="MSShapeGroup"></path>
            <path d="M35.979,20.896 C35.972,20.829 35.96,20.765 35.94,20.7 C35.918,20.633 35.89,20.573 35.856,20.513 C35.838,20.482 35.834,20.448 35.813,20.419 C35.798,20.397 35.773,20.386 35.756,20.365 C35.711,20.311 35.66,20.267 35.604,20.223 C35.555,20.185 35.508,20.15 35.454,20.122 C35.398,20.093 35.339,20.074 35.277,20.056 C35.211,20.037 35.148,20.021 35.079,20.016 C35.052,20.014 35.028,20 35,20 C34.963,20 34.932,20.017 34.897,20.021 C34.829,20.028 34.765,20.04 34.699,20.061 C34.633,20.082 34.574,20.109 34.515,20.143 C34.484,20.161 34.449,20.165 34.419,20.186 L27.864,24.868 L18.39,21.079 L18.389,21.079 L18.371,21.071 C18.316,21.049 18.26,21.052 18.204,21.041 C18.139,21.027 18.077,21.003 18.01,21.002 C18.006,21.002 18.003,21 18,21 C17.997,21 17.994,21.002 17.991,21.002 C17.921,21.003 17.856,21.027 17.789,21.042 C17.735,21.054 17.681,21.05 17.629,21.071 L8.136,24.868 L1.581,20.186 C1.551,20.165 1.516,20.161 1.485,20.143 C1.426,20.109 1.367,20.082 1.301,20.061 C1.236,20.04 1.172,20.028 1.104,20.021 C1.068,20.017 1.037,20 1,20 C0.972,20 0.948,20.014 0.92,20.016 C0.852,20.022 0.79,20.037 0.724,20.056 C0.662,20.074 0.603,20.093 0.546,20.122 C0.492,20.15 0.445,20.185 0.397,20.223 C0.341,20.266 0.29,20.311 0.244,20.365 C0.227,20.386 0.202,20.397 0.187,20.419 C0.166,20.448 0.162,20.483 0.144,20.513 C0.11,20.573 0.082,20.633 0.06,20.7 C0.04,20.765 0.028,20.829 0.021,20.896 C0.017,20.932 0,20.963 0,21 L0,44 C0,44.048 0.021,44.09 0.028,44.137 C0.037,44.208 0.044,44.276 0.07,44.344 C0.095,44.413 0.135,44.47 0.174,44.531 C0.199,44.57 0.21,44.615 0.241,44.651 C0.249,44.66 0.261,44.663 0.269,44.672 C0.341,44.751 0.429,44.81 0.524,44.863 C0.551,44.878 0.572,44.902 0.6,44.914 C0.723,44.968 0.857,45 1,45 C1.124,45 1.247,44.973 1.365,44.926 C1.413,44.907 1.452,44.876 1.496,44.85 C1.548,44.819 1.603,44.8 1.65,44.759 L8.191,39.153 L17.629,42.929 C17.64,42.933 17.652,42.931 17.664,42.935 C17.771,42.974 17.884,43 18,43 C18.116,43 18.229,42.974 18.336,42.935 C18.348,42.931 18.36,42.933 18.371,42.929 L18.389,42.921 L18.39,42.921 L27.809,39.153 L34.35,44.759 C34.397,44.8 34.453,44.82 34.505,44.85 C34.549,44.876 34.587,44.907 34.635,44.926 C34.753,44.973 34.876,45 35,45 C35.143,45 35.277,44.968 35.4,44.914 C35.428,44.902 35.449,44.878 35.476,44.863 C35.571,44.811 35.659,44.751 35.731,44.672 C35.739,44.663 35.751,44.66 35.759,44.651 C35.79,44.615 35.801,44.57 35.826,44.531 C35.865,44.471 35.905,44.413 35.931,44.344 C35.956,44.276 35.963,44.208 35.972,44.137 C35.979,44.09 36,44.049 36,44 L36,21 C36,20.963 35.983,20.932 35.979,20.896 L35.979,20.896 Z M29,31 L29,26.515 L34,22.943 L34,31 L29,31 L29,31 Z M27,31 L19,31 L19,23.477 L27,26.677 L27,31 L27,31 Z M17,31 L9,31 L9,26.677 L17,23.477 L17,31 L17,31 Z M7,31 L2,31 L2,22.943 L7,26.515 L7,31 L7,31 Z M2,33 L7,33 L7,37.54 L2,41.826 L2,33 L2,33 Z M9,33 L17,33 L17,40.523 L9,37.323 L9,33 L9,33 Z M19,33 L27,33 L27,37.323 L19,40.523 L19,33 L19,33 Z M29,33 L34,33 L34,41.826 L29,37.54 L29,33 L29,33 Z" id="Fill-882" fill="#556080" sketch:type="MSShapeGroup"></path>
            <path d="M9,52 L27,52 L27,55 L9,55 L9,52 Z" id="Fill-883" fill="#AA453D" sketch:type="MSShapeGroup"></path>
            <path d="M16,0 C15.448,0 15,0.448 15,1 C15,1.552 15.448,2 16,2 C16.552,2 17,1.552 17,1 C17,0.448 16.552,0 16,0" id="Fill-884" fill="#FCE092" sketch:type="MSShapeGroup"></path>
            <path d="M22,0 C21.448,0 21,0.448 21,1 C21,1.552 21.448,2 22,2 C22.552,2 23,1.552 23,1 C23,0.448 22.552,0 22,0" id="Fill-885" fill="#FCE092" sketch:type="MSShapeGroup"></path>
            <path d="M10,6 C9.448,6 9,6.448 9,7 C9,7.552 9.448,8 10,8 C10.552,8 11,7.552 11,7 C11,6.448 10.552,6 10,6" id="Fill-886" fill="#FCE092" sketch:type="MSShapeGroup"></path>
            <path d="M13,3 C12.448,3 12,3.448 12,4 C12,4.552 12.448,5 13,5 C13.552,5 14,4.552 14,4 C14,3.448 13.552,3 13,3" id="Fill-887" fill="#FCE092" sketch:type="MSShapeGroup"></path>
            <path d="M13,9 C12.448,9 12,9.448 12,10 C12,10.552 12.448,11 13,11 C13.552,11 14,10.552 14,10 C14,9.448 13.552,9 13,9" id="Fill-888" fill="#FCE092" sketch:type="MSShapeGroup"></path>
            <path d="M16,6 C15.448,6 15,6.448 15,7 C15,7.552 15.448,8 16,8 C16.552,8 17,7.552 17,7 C17,6.448 16.552,6 16,6" id="Fill-889" fill="#FCE092" sketch:type="MSShapeGroup"></path>
            <path d="M19,3 C18.448,3 18,3.448 18,4 C18,4.552 18.448,5 19,5 C19.552,5 20,4.552 20,4 C20,3.448 19.552,3 19,3" id="Fill-890" fill="#FCE092" sketch:type="MSShapeGroup"></path>
            <path d="M19,9 C18.448,9 18,9.448 18,10 C18,10.552 18.448,11 19,11 C19.552,11 20,10.552 20,10 C20,9.448 19.552,9 19,9" id="Fill-891" fill="#FCE092" sketch:type="MSShapeGroup"></path>
            <path d="M22,6 C21.448,6 21,6.448 21,7 C21,7.552 21.448,8 22,8 C22.552,8 23,7.552 23,7 C23,6.448 22.552,6 22,6" id="Fill-892" fill="#FCE092" sketch:type="MSShapeGroup"></path>
            <path d="M25,5 C25.552,5 26,4.552 26,4 C26,3.448 25.552,3 25,3 C24.448,3 24,3.448 24,4 C24,4.552 24.448,5 25,5" id="Fill-893" fill="#FCE092" sketch:type="MSShapeGroup"></path>
            <path d="M25,9 C24.448,9 24,9.448 24,10 C24,10.552 24.448,11 25,11 C25.552,11 26,10.552 26,10 C26,9.448 25.552,9 25,9" id="Fill-894" fill="#FCE092" sketch:type="MSShapeGroup"></path>
            <path d="M10,12 C9.448,12 9,12.448 9,13 C9,13.552 9.448,14 10,14 C10.552,14 11,13.552 11,13 C11,12.448 10.552,12 10,12" id="Fill-895" fill="#FCE092" sketch:type="MSShapeGroup"></path>
            <path d="M16,12 C15.448,12 15,12.448 15,13 C15,13.552 15.448,14 16,14 C16.552,14 17,13.552 17,13 C17,12.448 16.552,12 16,12" id="Fill-896" fill="#FCE092" sketch:type="MSShapeGroup"></path>
            <path d="M22,12 C21.448,12 21,12.448 21,13 C21,13.552 21.448,14 22,14 C22.552,14 23,13.552 23,13 C23,12.448 22.552,12 22,12" id="Fill-897" fill="#FCE092" sketch:type="MSShapeGroup"></path>
        </g>
    </g>
</svg>