<?xml version="1.0" encoding="UTF-8" standalone="no"?>
<svg width="54px" height="59px" viewBox="0 0 54 59" version="1.1" xmlns="http://www.w3.org/2000/svg" xmlns:xlink="http://www.w3.org/1999/xlink" xmlns:sketch="http://www.bohemiancoding.com/sketch/ns">
    <!-- Generator: Sketch 3.2.2 (9983) - http://www.bohemiancoding.com/sketch -->
    <title>13 - Cymbals (Flat)</title>
    <desc>Created with Sketch.</desc>
    <defs></defs>
    <g id="Page-1" stroke="none" stroke-width="1" fill="none" fill-rule="evenodd" sketch:type="MSPage">
        <g id="13---Cymbals-(Flat)" sketch:type="MSLayerGroup">
            <path d="M27,8 L27,4 M27,24 L27,58 M27,18 L27,14" id="Stroke-177" stroke="#556080" stroke-width="2" stroke-linecap="round" stroke-linejoin="round" sketch:type="MSShapeGroup"></path>
            <path d="M26,4 L25,3 L25,1 L26,0 L28,0 L29,1 L29,3 L28,4 L26,4" id="Fill-1362" fill="#8697CB" sketch:type="MSShapeGroup"></path>
            <path d="M1,14 L6,14 C14,14 15.402,8 27,8 C38.598,8 40.062,14 48,14 L53,14" id="Fill-1575" fill="#FBD490" sketch:type="MSShapeGroup"></path>
            <path d="M53,15 L1,15 C0.447,15 0,14.553 0,14 C0,13.447 0.447,13 1,13 L53,13 C53.553,13 54,13.447 54,14 C54,14.553 53.553,15 53,15" id="Fill-1576" fill="#EEAF4B" sketch:type="MSShapeGroup"></path>
            <path d="M53,18 L48,18 C40,18 38.598,24 27,24 C15.402,24 13.938,18 6,18 L1,18" id="Fill-1577" fill="#FBD490" sketch:type="MSShapeGroup"></path>
            <path d="M53,19 L1,19 C0.447,19 0,18.553 0,18 C0,17.447 0.447,17 1,17 L53,17 C53.553,17 54,17.447 54,18 C54,18.553 53.553,19 53,19" id="Fill-1578" fill="#EEAF4B" sketch:type="MSShapeGroup"></path>
            <path d="M27,46 L39,58 M27,46 L15,58" id="Stroke-1579" stroke="#556080" stroke-width="2" stroke-linecap="round" stroke-linejoin="round" sketch:type="MSShapeGroup"></path>
        </g>
    </g>
</svg>