<?xml version="1.0" encoding="UTF-8" standalone="no"?>
<svg width="59px" height="59px" viewBox="0 0 59 59" version="1.1" xmlns="http://www.w3.org/2000/svg" xmlns:xlink="http://www.w3.org/1999/xlink" xmlns:sketch="http://www.bohemiancoding.com/sketch/ns">
    <!-- Generator: Sketch 3.2.2 (9983) - http://www.bohemiancoding.com/sketch -->
    <title>44 - Diapazone (Flat)</title>
    <desc>Created with Sketch.</desc>
    <defs></defs>
    <g id="Page-1" stroke="none" stroke-width="1" fill="none" fill-rule="evenodd" sketch:type="MSPage">
        <g id="44---Diapazone-(Flat)" sketch:type="MSLayerGroup" fill="#E4C05C">
            <path d="M58.707,53.757 L56.94,51.99 C56.752,51.802 56.498,51.697 56.232,51.697 L55.232,51.697 L36.633,33.098 C38.702,29.471 38.201,24.766 35.109,21.675 L17.881,4.446 C17.952,4.307 18,4.159 18,4 L18,2 C18,1.735 17.894,1.48 17.707,1.293 L16.707,0.293 C16.52,0.106 16.266,0 16,0 L14,0 C13.734,0 13.481,0.106 13.293,0.293 L12.293,1.293 C12.106,1.48 12,1.735 12,2 L12,4 C12,4.265 12.106,4.519 12.293,4.707 L13.293,5.707 C13.481,5.894 13.734,6 14,6 L16,6 C16.169,6 16.326,5.944 16.471,5.865 L33.695,23.089 C36.298,25.692 36.578,29.744 34.548,32.666 C34.546,32.668 34.544,32.669 34.542,32.671 C34.409,32.862 34.274,33.04 34.137,33.206 C33.997,33.373 33.852,33.538 33.695,33.695 C33.538,33.853 33.373,33.998 33.205,34.138 C33.039,34.275 32.862,34.409 32.672,34.542 C32.67,34.543 32.669,34.545 32.667,34.546 C29.745,36.578 25.691,36.297 23.089,33.695 L5.865,16.471 C5.944,16.326 6,16.169 6,16 L6,14 C6,13.735 5.894,13.48 5.707,13.293 L4.707,12.293 C4.52,12.106 4.266,12 4,12 L2,12 C1.734,12 1.481,12.106 1.293,12.293 L0.293,13.293 C0.106,13.48 0,13.735 0,14 L0,16 C0,16.265 0.106,16.519 0.293,16.707 L1.293,17.707 C1.481,17.894 1.734,18 2,18 L4,18 C4.159,18 4.307,17.952 4.446,17.881 L21.675,35.109 C23.526,36.961 25.959,37.887 28.392,37.887 C30.02,37.887 31.644,37.463 33.098,36.633 L51.696,55.232 L51.696,56.232 C51.696,56.498 51.802,56.752 51.989,56.94 L53.758,58.707 C53.945,58.894 54.2,59 54.465,59 L56.232,59 C56.498,59 56.752,58.894 56.94,58.707 L58.707,56.939 C58.895,56.752 59,56.498 59,56.232 L59,54.464 C59,54.199 58.895,53.945 58.707,53.757" id="Fill-1402" sketch:type="MSShapeGroup"></path>
        </g>
    </g>
</svg>