<?xml version="1.0" encoding="UTF-8" standalone="no"?>
<svg width="56px" height="60px" viewBox="0 0 56 60" version="1.1" xmlns="http://www.w3.org/2000/svg" xmlns:xlink="http://www.w3.org/1999/xlink" xmlns:sketch="http://www.bohemiancoding.com/sketch/ns">
    <!-- Generator: Sketch 3.2.2 (9983) - http://www.bohemiancoding.com/sketch -->
    <title>47 - Digital Piano (Flat)</title>
    <desc>Created with Sketch.</desc>
    <defs></defs>
    <g id="Page-1" stroke="none" stroke-width="1" fill="none" fill-rule="evenodd" sketch:type="MSPage">
        <g id="47---Digital-Piano-(Flat)" sketch:type="MSLayerGroup">
            <path d="M56,40 L0,40 L0,18.453 C0,14.889 2.889,12 6.453,12 L49.547,12 C53.111,12 56,14.889 56,18.453 L56,40" id="Fill-200" fill="#464F5D" sketch:type="MSShapeGroup"></path>
            <path d="M6,20 L5,19 L5,17 L6,16 L8,16 L9,17 L9,19 L8,20 L6,20" id="Fill-439" fill="#E64C3C" sketch:type="MSShapeGroup"></path>
            <path d="M13,20 L12,19 L12,17 L13,16 L15,16 L16,17 L16,19 L15,20 L13,20" id="Fill-440" fill="#2C2F38" sketch:type="MSShapeGroup"></path>
            <path d="M20,20 L19,19 L19,17 L20,16 L22,16 L23,17 L23,19 L22,20 L20,20" id="Fill-441" fill="#2C2F38" sketch:type="MSShapeGroup"></path>
            <path d="M27,20 L26,19 L26,17 L27,16 L29,16 L30,17 L30,19 L29,20 L27,20" id="Fill-442" fill="#2C2F38" sketch:type="MSShapeGroup"></path>
            <path d="M34,20 L33,19 L33,17 L34,16 L36,16 L37,17 L37,19 L36,20 L34,20" id="Fill-443" fill="#2C2F38" sketch:type="MSShapeGroup"></path>
            <path d="M41,20 L40,19 L40,17 L41,16 L43,16 L44,17 L44,19 L43,20 L41,20" id="Fill-444" fill="#2C2F38" sketch:type="MSShapeGroup"></path>
            <path d="M48,20 L47,19 L47,17 L48,16 L50,16 L51,17 L51,19 L50,20 L48,20" id="Fill-445" fill="#2C2F38" sketch:type="MSShapeGroup"></path>
            <path d="M13,24 L43,24 L43,36 L13,36 L13,24 Z" id="Fill-822" fill="#FFB200" sketch:type="MSShapeGroup"></path>
            <path d="M19,34 L16,34 C15.448,34 15,33.552 15,33 L15,27 C15,26.448 15.448,26 16,26 L19,26 C19.552,26 20,26.448 20,27 L20,33 C20,33.552 19.552,34 19,34 L19,34 Z M17,32 L18,32 L18,28 L17,28 L17,32 Z" id="Fill-823" fill="#8D4700" sketch:type="MSShapeGroup"></path>
            <path d="M25,34 L22,34 C21.448,34 21,33.552 21,33 L21,27 C21,26.448 21.448,26 22,26 L25,26 C25.552,26 26,26.448 26,27 L26,33 C26,33.552 25.552,34 25,34 L25,34 Z M23,32 L24,32 L24,28 L23,28 L23,32 Z" id="Fill-824" fill="#8D4700" sketch:type="MSShapeGroup"></path>
            <path d="M34,34 L31,34 C30.448,34 30,33.552 30,33 L30,27 C30,26.448 30.448,26 31,26 L34,26 C34.552,26 35,26.448 35,27 L35,33 C35,33.552 34.552,34 34,34 L34,34 Z M32,32 L33,32 L33,28 L32,28 L32,32 Z" id="Fill-825" fill="#8D4700" sketch:type="MSShapeGroup"></path>
            <path d="M40,34 L37,34 C36.448,34 36,33.552 36,33 C36,32.448 36.448,32 37,32 L39,32 L39,31 L37,31 C36.448,31 36,30.552 36,30 L36,27 C36,26.448 36.448,26 37,26 L40,26 C40.552,26 41,26.448 41,27 C41,27.552 40.552,28 40,28 L38,28 L38,29 L40,29 C40.552,29 41,29.448 41,30 L41,33 C41,33.552 40.552,34 40,34" id="Fill-826" fill="#8D4700" sketch:type="MSShapeGroup"></path>
            <path d="M29,28 C29,28.552 28.552,29 28,29 C27.448,29 27,28.552 27,28 C27,27.448 27.448,27 28,27 C28.552,27 29,27.448 29,28" id="Fill-827" fill="#8D4700" sketch:type="MSShapeGroup"></path>
            <path d="M29,32 C29,32.552 28.552,33 28,33 C27.448,33 27,32.552 27,32 C27,31.448 27.448,31 28,31 C28.552,31 29,31.448 29,32" id="Fill-828" fill="#8D4700" sketch:type="MSShapeGroup"></path>
            <path d="M4,32 L9,32 L9,36 L4,36 L4,32 Z" id="Fill-1203" fill="#ECF0F1" sketch:type="MSShapeGroup"></path>
            <path d="M4,24 L9,24 L9,28 L4,28 L4,24 Z" id="Fill-1204" fill="#ECF0F1" sketch:type="MSShapeGroup"></path>
            <path d="M47,32 L52,32 L52,36 L47,36 L47,32 Z" id="Fill-1205" fill="#ECF0F1" sketch:type="MSShapeGroup"></path>
            <path d="M47,24 L52,24 L52,28 L47,28 L47,24 Z" id="Fill-1206" fill="#ECF0F1" sketch:type="MSShapeGroup"></path>
            <path d="M34,10 C31.794,10 30,8.206 30,6 L30,4 C30,2.897 29.103,2 28,2 C26.897,2 26,2.897 26,4 L26,6 C26,6.552 25.552,7 25,7 C24.448,7 24,6.552 24,6 L24,4 C24,1.794 25.794,0 28,0 C30.206,0 32,1.794 32,4 L32,6 C32,7.103 32.897,8 34,8 C35.103,8 36,7.103 36,6 L36,1 C36,0.448 36.448,0 37,0 C37.552,0 38,0.448 38,1 L38,6 C38,8.206 36.206,10 34,10" id="Fill-1207" fill="#5A5F63" sketch:type="MSShapeGroup"></path>
            <path d="M38,51 L38,39 L34,39 L34,51 L32,51 L32,58 L40,58 L40,51 L38,51" id="Fill-1637" fill="#ECF0F1" sketch:type="MSShapeGroup"></path>
            <path d="M46,51 L46,39 L42,39 L42,51 L40,51 L40,58 L48,58 L48,51 L46,51" id="Fill-1638" fill="#D7DCE0" sketch:type="MSShapeGroup"></path>
            <path d="M50,39 L50,51 L48,51 L48,58 L56,58 L56,39 L50,39" id="Fill-1639" fill="#ECF0F1" sketch:type="MSShapeGroup"></path>
            <path d="M6,39 L0,39 L0,58 L8,58 L8,51 L6,51 L6,39" id="Fill-1640" fill="#ECF0F1" sketch:type="MSShapeGroup"></path>
            <path d="M30,51 L30,39 L26,39 L26,51 L24,51 L24,58 L32,58 L32,51 L30,51" id="Fill-1641" fill="#D7DCE0" sketch:type="MSShapeGroup"></path>
            <path d="M22,51 L22,39 L18,39 L18,51 L16,51 L16,58 L24,58 L24,51 L22,51" id="Fill-1642" fill="#ECF0F1" sketch:type="MSShapeGroup"></path>
            <path d="M14,51 L14,39 L10,39 L10,51 L8,51 L8,58 L16,58 L16,51 L14,51" id="Fill-1643" fill="#D7DCE0" sketch:type="MSShapeGroup"></path>
            <path d="M29,48 L35,48 L35,51 L29,51 L29,48 Z" id="Fill-1644" fill="#5A5F63" sketch:type="MSShapeGroup"></path>
            <path d="M21,48 L27,48 L27,51 L21,51 L21,48 Z" id="Fill-1645" fill="#5A5F63" sketch:type="MSShapeGroup"></path>
            <path d="M37,48 L43,48 L43,51 L37,51 L37,48 Z" id="Fill-1646" fill="#5A5F63" sketch:type="MSShapeGroup"></path>
            <path d="M45,48 L51,48 L51,51 L45,51 L45,48 Z" id="Fill-1647" fill="#5A5F63" sketch:type="MSShapeGroup"></path>
            <path d="M5,48 L11,48 L11,51 L5,51 L5,48 Z" id="Fill-1648" fill="#5A5F63" sketch:type="MSShapeGroup"></path>
            <path d="M13,48 L19,48 L19,51 L13,51 L13,48 Z" id="Fill-1649" fill="#5A5F63" sketch:type="MSShapeGroup"></path>
            <path d="M29,39 L35,39 L35,48 L29,48 L29,39 Z" id="Fill-1650" fill="#2C2F38" sketch:type="MSShapeGroup"></path>
            <path d="M21,39 L27,39 L27,48 L21,48 L21,39 Z" id="Fill-1651" fill="#2C2F38" sketch:type="MSShapeGroup"></path>
            <path d="M37,39 L43,39 L43,48 L37,48 L37,39 Z" id="Fill-1652" fill="#2C2F38" sketch:type="MSShapeGroup"></path>
            <path d="M45,39 L51,39 L51,48 L45,48 L45,39 Z" id="Fill-1653" fill="#2C2F38" sketch:type="MSShapeGroup"></path>
            <path d="M5,39 L11,39 L11,48 L5,48 L5,39 Z" id="Fill-1654" fill="#2C2F38" sketch:type="MSShapeGroup"></path>
            <path d="M13,39 L19,39 L19,48 L13,48 L13,39 Z" id="Fill-1655" fill="#2C2F38" sketch:type="MSShapeGroup"></path>
            <path d="M27,12 L23,12 L23,7.642 C23,6.735 23.735,6 24.642,6 L25.358,6 C26.265,6 27,6.735 27,7.642 L27,12" id="Fill-1656" fill="#2C2F38" sketch:type="MSShapeGroup"></path>
            <path d="M6.5,19 L6,18.5 L6,17.5 L6.5,17 L7.5,17 L8,17.5 L8,18.5 L7.5,19 L6.5,19" id="Fill-1657" fill="#FFB3B3" sketch:type="MSShapeGroup"></path>
            <path d="M13,20 L12,19 L12,17 L13,16 L15,16 L16,17 L16,19 L15,20 L13,20" id="Fill-1658" fill="#88C057" sketch:type="MSShapeGroup"></path>
            <path d="M13.5,19 L13,18.5 L13,17.5 L13.5,17 L14.5,17 L15,17.5 L15,18.5 L14.5,19 L13.5,19" id="Fill-1659" fill="#C8FC95" sketch:type="MSShapeGroup"></path>
            <path d="M0,57 L8,57 L8,60 L0,60 L0,57 Z" id="Fill-1793" fill="#BFCAD1" sketch:type="MSShapeGroup"></path>
            <path d="M8,57 L16,57 L16,60 L8,60 L8,57 Z" id="Fill-1794" fill="#ACB7C1" sketch:type="MSShapeGroup"></path>
            <path d="M16,57 L24,57 L24,60 L16,60 L16,57 Z" id="Fill-1795" fill="#BFCAD1" sketch:type="MSShapeGroup"></path>
            <path d="M24,57 L32,57 L32,60 L24,60 L24,57 Z" id="Fill-1796" fill="#ACB7C1" sketch:type="MSShapeGroup"></path>
            <path d="M32,57 L40,57 L40,60 L32,60 L32,57 Z" id="Fill-1797" fill="#BFCAD1" sketch:type="MSShapeGroup"></path>
            <path d="M48,57 L56,57 L56,60 L48,60 L48,57 Z" id="Fill-1798" fill="#BFCAD1" sketch:type="MSShapeGroup"></path>
            <path d="M40,57 L48,57 L48,60 L40,60 L40,57 Z" id="Fill-1799" fill="#ACB7C1" sketch:type="MSShapeGroup"></path>
        </g>
    </g>
</svg>