<?xml version="1.0" encoding="UTF-8" standalone="no"?>
<svg width="58px" height="58px" viewBox="0 0 58 58" version="1.1" xmlns="http://www.w3.org/2000/svg" xmlns:xlink="http://www.w3.org/1999/xlink" xmlns:sketch="http://www.bohemiancoding.com/sketch/ns">
    <!-- Generator: Sketch 3.2.2 (9983) - http://www.bohemiancoding.com/sketch -->
    <title>29 - Electric Guitar (Flat)</title>
    <desc>Created with Sketch.</desc>
    <defs></defs>
    <g id="Page-1" stroke="none" stroke-width="1" fill="none" fill-rule="evenodd" sketch:type="MSPage">
        <g id="29---Electric-Guitar-(Flat)" sketch:type="MSLayerGroup">
            <path d="M11.725,44.886 L23.165,33.446 C22.925,32.862 22.775,32.233 22.728,31.592 C22.621,30.149 22.718,28.112 23.496,25.633 C24.067,23.814 22.836,21.831 20.938,21.649 C19.826,21.542 18.509,22.021 17.122,23.795 C17.122,23.795 14.327,32.978 9.494,34.272 C7.274,34.867 5.123,35.746 3.421,37.291 C0.687,39.773 -1.695,43.889 1.607,49.779 C2.757,51.829 4.351,53.6 6.207,55.04 C6.751,55.462 7.369,55.905 8.045,56.333 C9.222,57.076 10.468,57.549 11.725,57.8 L11.725,44.886" id="Fill-1" fill="#ED7161" sketch:type="MSShapeGroup"></path>
            <path d="M28.436,36.523 C28.436,36.523 27.011,36.975 25.27,35.944 C24.296,35.367 23.587,34.475 23.165,33.446 L11.725,44.886 L11.725,57.8 C17.589,58.973 23.699,55.067 24.305,48.596 C24.313,48.516 24.32,48.434 24.326,48.352 C24.607,44.618 26.845,41.265 30.364,39.985 C30.715,39.857 31.083,39.739 31.471,39.633 C32.492,39.351 33.204,38.305 32.894,37.291 C32.612,36.369 31.552,35.661 28.436,36.523" id="Fill-2" fill="#ECF0F1" sketch:type="MSShapeGroup"></path>
            <path d="M42,7 L41,6 L41,4 L42,3 L44,3 L45,4 L45,6 L44,7 L42,7" id="Fill-464" fill="#E4C05C" sketch:type="MSShapeGroup"></path>
            <path d="M48,4 L47,3 L47,1 L48,0 L50,0 L51,1 L51,3 L50,4 L48,4" id="Fill-465" fill="#E4C05C" sketch:type="MSShapeGroup"></path>
            <path d="M38.832,20.994 L45.304,13.496 C42.884,13.689 41.005,11.502 41.074,9.241 L34.611,16.795 C34.632,16.812 34.657,16.819 34.676,16.838 L38.832,20.994" id="Fill-1281" fill="#7F6E5D" sketch:type="MSShapeGroup"></path>
            <path d="M29.405,22.88 L26.786,25.94 C26.807,25.958 26.832,25.964 26.851,25.983 L30.969,30.102 L33.6,27.055 C33.581,27.038 33.557,27.032 33.539,27.014 L29.405,22.88" id="Fill-1282" fill="#7F6E5D" sketch:type="MSShapeGroup"></path>
            <path d="M25.492,27.453 L22.696,30.721 C22.698,31.029 22.708,31.324 22.728,31.592 C22.858,33.362 23.743,35.039 25.27,35.944 C25.427,36.036 25.577,36.104 25.728,36.174 L29.669,31.609 C29.65,31.593 29.626,31.586 29.607,31.568 L25.492,27.453" id="Fill-1283" fill="#7F6E5D" sketch:type="MSShapeGroup"></path>
            <path d="M33.317,18.307 L30.698,21.368 C30.719,21.385 30.744,21.392 30.764,21.411 L34.901,25.548 L37.531,22.501 C37.512,22.484 37.488,22.478 37.47,22.46 L33.317,18.307" id="Fill-1284" fill="#7F6E5D" sketch:type="MSShapeGroup"></path>
            <path d="M34.676,16.838 C34.657,16.819 34.632,16.812 34.611,16.795 L33.317,18.307 L37.47,22.46 C37.488,22.478 37.512,22.484 37.531,22.501 L38.832,20.994 L34.676,16.838" id="Fill-1285" fill="#494038" sketch:type="MSShapeGroup"></path>
            <path d="M30.698,21.368 L29.405,22.88 L33.539,27.014 C33.557,27.032 33.581,27.038 33.6,27.055 L34.901,25.548 L30.764,21.411 C30.744,21.392 30.719,21.385 30.698,21.368" id="Fill-1286" fill="#494038" sketch:type="MSShapeGroup"></path>
            <path d="M26.786,25.94 L25.492,27.453 L29.607,31.568 C29.626,31.586 29.65,31.593 29.669,31.609 L30.969,30.102 L26.851,25.983 C26.832,25.964 26.807,25.958 26.786,25.94" id="Fill-1287" fill="#494038" sketch:type="MSShapeGroup"></path>
            <path d="M11.929,46.091 C11.673,46.091 11.417,45.993 11.222,45.798 C10.831,45.407 10.831,44.774 11.222,44.384 L20.303,35.303 C20.693,34.912 21.326,34.912 21.717,35.303 C22.107,35.693 22.107,36.326 21.717,36.717 L12.636,45.798 C12.44,45.993 12.185,46.091 11.929,46.091" id="Fill-1288" fill="#E4C05C" sketch:type="MSShapeGroup"></path>
            <path d="M9.808,43.97 C9.552,43.97 9.296,43.872 9.101,43.677 C8.71,43.286 8.71,42.653 9.101,42.263 L19.182,32.182 C19.572,31.791 20.205,31.791 20.596,32.182 C20.986,32.572 20.986,33.205 20.596,33.596 L10.515,43.677 C10.319,43.872 10.064,43.97 9.808,43.97" id="Fill-1289" fill="#E4C05C" sketch:type="MSShapeGroup"></path>
            <path d="M14.05,48.212 C13.794,48.212 13.539,48.114 13.343,47.919 C12.953,47.528 12.953,46.895 13.343,46.505 L22.424,37.424 C22.815,37.033 23.448,37.033 23.838,37.424 C24.229,37.815 24.229,38.447 23.838,38.838 L14.757,47.919 C14.562,48.114 14.306,48.212 14.05,48.212" id="Fill-1290" fill="#E4C05C" sketch:type="MSShapeGroup"></path>
            <path d="M13.342,52.392 L4.857,43.907 L7.686,40.848 L16.172,49.333 L13.342,52.392" id="Fill-1291" fill="#35495E" sketch:type="MSShapeGroup"></path>
            <path d="M57.674,1.531 C57.39,0.677 56.685,-0.138 55,0.02 C55,0.02 53.322,0.163 50.971,0.971 L51,1 L51,3 L50,4 L48,4 L47,3 L47,2.796 C46.338,3.182 45.669,3.625 45,4.126 L45,6 L44,7 L42,7 L41.94,6.94 C39.519,9.918 42.445,14.567 46.208,13.331 C46.684,13.175 47.167,12.941 47.641,12.605 C48.3,12.138 48.767,11.445 49.011,10.675 C49.266,9.872 49.437,8.701 50.629,7.591 C51.232,7.031 52.517,6.558 53.506,6.153 C54.278,5.837 55.699,6.023 56.898,4.726 C57.692,3.868 58.042,2.64 57.674,1.531" id="Fill-1305" fill="#CBB292" sketch:type="MSShapeGroup"></path>
        </g>
    </g>
</svg>