<?xml version="1.0" encoding="UTF-8" standalone="no"?>
<svg width="59px" height="59px" viewBox="0 0 59 59" version="1.1" xmlns="http://www.w3.org/2000/svg" xmlns:xlink="http://www.w3.org/1999/xlink" xmlns:sketch="http://www.bohemiancoding.com/sketch/ns">
    <!-- Generator: Sketch 3.2.2 (9983) - http://www.bohemiancoding.com/sketch -->
    <title>38 - French Horn (Flat)</title>
    <desc>Created with Sketch.</desc>
    <defs></defs>
    <g id="Page-1" stroke="none" stroke-width="1" fill="none" fill-rule="evenodd" sketch:type="MSPage">
        <g id="38---French-Horn-(Flat)" sketch:type="MSLayerGroup" transform="translate(1.000000, 1.000000)">
            <path d="M52.5,58 L52.5,58 C51.672,58 51,57.328 51,56.5 L51,49.5 C51,48.672 51.672,48 52.5,48 C53.328,48 54,48.672 54,49.5 L54,56.5 C54,57.328 53.328,58 52.5,58" id="Fill-1379" fill="#F0C419" sketch:type="MSShapeGroup"></path>
            <path d="M56,55 L54,55 L54,51 L56,51 C57.105,51 58,51.895 58,53 C58,54.105 57.105,55 56,55" id="Fill-1380" fill="#DC9628" sketch:type="MSShapeGroup"></path>
            <path d="M0,0 L44,0" id="Stroke-1381" stroke="#E4C05C" stroke-width="2" stroke-linecap="round" stroke-linejoin="round" sketch:type="MSShapeGroup"></path>
            <path d="M44.271,50 C40.932,53.404 36.385,55.601 31.324,55.933 C30.888,55.973 30.447,56 30,56 L51,56 L51,50 L44.271,50" id="Fill-1424" fill="#F9EBB0" sketch:type="MSShapeGroup"></path>
            <path d="M30,16 C18.954,16 10,24.954 10,36 C10,47.046 18.954,56 30,56 C41.046,56 50,47.046 50,36 C50,24.954 41.046,16 30,16 L30,16 Z M30,51 C21.716,51 15,44.284 15,36 C15,27.716 21.716,21 30,21 C38.284,21 45,27.716 45,36 C45,44.284 38.284,51 30,51 L30,51 Z" id="Fill-1425" fill="#E4C05C" sketch:type="MSShapeGroup"></path>
            <path d="M35,51.128 C34.796,51.128 34.594,51.065 34.423,50.944 C34.158,50.757 34,50.453 34,50.128 C34,48.403 32.597,47 30.872,47 L27,47 C26.118,47 25.283,46.611 24.71,45.935 C24.139,45.259 23.896,44.369 24.043,43.492 C24.282,42.071 25.606,41 27.122,41 L38.031,41 C38.324,41 38.602,40.87 38.794,40.643 C38.906,40.51 39.084,40.227 39.016,39.824 C38.939,39.362 38.453,39 37.91,39 L27,39 C26.118,39 25.283,38.611 24.71,37.935 C24.139,37.259 23.896,36.369 24.043,35.492 C24.282,34.071 25.606,33 27.122,33 L38.031,33 C38.324,33 38.602,32.87 38.794,32.643 C38.906,32.51 39.084,32.227 39.016,31.824 C38.939,31.362 38.453,31 37.91,31 L27,31 C26.118,31 25.283,30.611 24.71,29.935 C24.139,29.259 23.896,28.369 24.043,27.492 C24.282,26.071 25.606,25 27.122,25 L30.872,25 C32.597,25 34,23.597 34,21.872 C34,21.547 34.158,21.243 34.423,21.056 C34.688,20.867 35.026,20.82 35.334,20.93 C41.713,23.188 46,29.245 46,36 C46,42.755 41.713,48.811 35.334,51.07 C35.225,51.109 35.112,51.128 35,51.128 L35,51.128 Z M27.122,43 C26.579,43 26.093,43.362 26.015,43.824 C25.947,44.227 26.125,44.51 26.237,44.643 C26.429,44.87 26.707,45 27,45 L30.872,45 C33.213,45 35.193,46.577 35.805,48.725 C40.753,46.468 44,41.498 44,36 C44,30.502 40.753,25.532 35.805,23.275 C35.193,25.423 33.213,27 30.872,27 L27.122,27 C26.579,27 26.093,27.362 26.015,27.824 C25.947,28.227 26.125,28.51 26.237,28.643 C26.429,28.87 26.707,29 27,29 L37.91,29 C39.426,29 40.75,30.071 40.989,31.492 C41.136,32.369 40.893,33.259 40.321,33.935 C39.749,34.611 38.914,35 38.031,35 L27.122,35 C26.579,35 26.093,35.362 26.015,35.824 C25.947,36.228 26.125,36.51 26.237,36.643 C26.429,36.87 26.707,37 27,37 L37.91,37 C39.426,37 40.75,38.071 40.989,39.492 C41.136,40.369 40.893,41.259 40.321,41.935 C39.749,42.611 38.914,43 38.031,43 L27.122,43 L27.122,43 Z" id="Fill-1426" fill="#EDAC56" sketch:type="MSShapeGroup"></path>
            <path d="M31.647,8 L13.261,8 C13.565,8.913 13.847,9.91 14.106,11 L30.836,11 C31.076,10.004 31.345,8.989 31.647,8" id="Fill-1427" fill="#DC9628" sketch:type="MSShapeGroup"></path>
            <path d="M6.929,0 C10.614,0 12.894,3.469 14.344,8 L30.593,8 C31.844,3.763 33.698,0 37,0 L6.929,0" id="Fill-1428" fill="#F0C419" sketch:type="MSShapeGroup"></path>
            <path d="M15.158,11 C15.936,14.377 16.375,18.018 16.661,21.128 C19.89,18.23 24.058,16.373 28.661,16.068 C29.012,14.603 29.372,12.828 29.805,11 L15.158,11" id="Fill-1429" fill="#F0C419" sketch:type="MSShapeGroup"></path>
            <path d="M16.158,34 L15.158,33 L15.158,31 L16.158,30 L18.158,30 L19.158,31 L19.158,33 L18.158,34 L16.158,34 L16.158,34 Z" id="Fill-1601" fill="#FBD490" sketch:type="MSShapeGroup"></path>
            <path d="M16.158,34 L15.158,33 L15.158,31 L16.158,30 L18.158,30 L19.158,31 L19.158,33 L18.158,34 L16.158,34 L16.158,34 Z" id="Stroke-1602" stroke="#DC9628" stroke-width="2" stroke-linecap="round" stroke-linejoin="round" sketch:type="MSShapeGroup"></path>
            <path d="M16.158,42 L15.158,41 L15.158,39 L16.158,38 L18.158,38 L19.158,39 L19.158,41 L18.158,42 L16.158,42 L16.158,42 Z" id="Fill-1603" fill="#FBD490" sketch:type="MSShapeGroup"></path>
            <path d="M16.158,42 L15.158,41 L15.158,39 L16.158,38 L18.158,38 L19.158,39 L19.158,41 L18.158,42 L16.158,42 L16.158,42 Z" id="Stroke-1604" stroke="#DC9628" stroke-width="2" stroke-linecap="round" stroke-linejoin="round" sketch:type="MSShapeGroup"></path>
            <path d="M25.11,8 C25.359,5.376 25.621,2.707 25.827,0 L19.09,0 C19.253,2.626 19.456,5.292 19.669,8 L25.11,8" id="Fill-1933" fill="#F9EBB0" sketch:type="MSShapeGroup"></path>
            <path d="M24.546,16.795 C24.664,14.881 24.779,12.952 24.879,11 L20.024,11 C20.127,13.467 20.249,15.968 20.378,18.5 C21.684,17.78 23.081,17.21 24.546,16.795" id="Fill-1934" fill="#F9EBB0" sketch:type="MSShapeGroup"></path>
        </g>
    </g>
</svg>