<?xml version="1.0" encoding="UTF-8" standalone="no"?>
<svg width="58px" height="56px" viewBox="0 0 58 56" version="1.1" xmlns="http://www.w3.org/2000/svg" xmlns:xlink="http://www.w3.org/1999/xlink" xmlns:sketch="http://www.bohemiancoding.com/sketch/ns">
    <!-- Generator: Sketch 3.2.2 (9983) - http://www.bohemiancoding.com/sketch -->
    <title>20 - Gong (Flat)</title>
    <desc>Created with Sketch.</desc>
    <defs></defs>
    <g id="Page-1" stroke="none" stroke-width="1" fill="none" fill-rule="evenodd" sketch:type="MSPage">
        <g id="20---Gong-(Flat)" sketch:type="MSLayerGroup">
            <path d="M17,4 L23,17 M41,4 L35,17" id="Stroke-1320" stroke="#CBB292" stroke-width="2" sketch:type="MSShapeGroup"></path>
            <path d="M0,53 L10,53 L10,56 L0,56 L0,53 Z" id="Fill-1321" fill="#464F5D" sketch:type="MSShapeGroup"></path>
            <path d="M48,53 L58,53 L58,56 L48,56 L48,53 Z" id="Fill-1322" fill="#464F5D" sketch:type="MSShapeGroup"></path>
            <path d="M57,2 L57,0 L49,0 L49,2 L9,2 L9,0 L1,0 L1,8 L3,8 L3,53 L7,53 L7,8 L9,8 L9,6 L49,6 L49,8 L51,8 L51,53 L55,53 L55,8 L57,8 L57,2" id="Fill-1323" fill="#556080" sketch:type="MSShapeGroup"></path>
            <path d="M5,3 L5,5 M53,3 L53,5" id="Stroke-1324" stroke="#464F5D" stroke-width="2" sketch:type="MSShapeGroup"></path>
            <path d="M45,54 C44.729,54 44.458,53.89 44.26,53.673 L34.26,42.673 C33.889,42.264 33.919,41.632 34.327,41.26 C34.737,40.889 35.369,40.919 35.74,41.327 L45.74,52.327 C46.111,52.736 46.081,53.368 45.673,53.74 C45.481,53.914 45.24,54 45,54" id="Fill-1881" fill="#CBB292" sketch:type="MSShapeGroup"></path>
            <path d="M36,39.5 C36,41.433 34.433,43 32.5,43 C30.567,43 29,41.433 29,39.5 C29,37.567 30.567,36 32.5,36 C34.433,36 36,37.567 36,39.5" id="Fill-1882" fill="#AD977F" sketch:type="MSShapeGroup"></path>
            <path d="M29,15 C21.82,15 16,20.82 16,28 C16,35.18 21.82,41 29,41 C29.115,41 29.226,40.986 29.34,40.983 L29.341,40.983 C29.128,40.532 29,40.032 29,39.5 C29,37.567 30.567,36 32.5,36 C34.253,36 35.692,37.293 35.947,38.975 C39.581,36.67 42,32.622 42,28 C42,20.82 36.18,15 29,15" id="Fill-1883" fill="#E4C05C" sketch:type="MSShapeGroup"></path>
            <path d="M33,28 C33,30.209 31.209,32 29,32 C26.791,32 25,30.209 25,28 C25,25.791 26.791,24 29,24 C31.209,24 33,25.791 33,28" id="Fill-1902" fill="#F9EBB0" sketch:type="MSShapeGroup"></path>
        </g>
    </g>
</svg>