<?xml version="1.0" encoding="UTF-8" standalone="no"?>
<svg width="58px" height="58px" viewBox="0 0 58 58" version="1.1" xmlns="http://www.w3.org/2000/svg" xmlns:xlink="http://www.w3.org/1999/xlink" xmlns:sketch="http://www.bohemiancoding.com/sketch/ns">
    <!-- Generator: Sketch 3.2.2 (9983) - http://www.bohemiancoding.com/sketch -->
    <title>28 - Guitar (Flat)</title>
    <desc>Created with Sketch.</desc>
    <defs></defs>
    <g id="Page-1" stroke="none" stroke-width="1" fill="none" fill-rule="evenodd" sketch:type="MSPage">
        <g id="28---Guitar-(Flat)" sketch:type="MSLayerGroup" transform="translate(-1.000000, 0.000000)">
            <path d="M38.234,24.573 L38.213,24.552 L26.537,35.925 C25.832,34 24.366,32.443 22.497,31.627 L34.016,20.408 L33.701,20.097 C33.199,19.74 32.677,19.411 32.126,19.128 C29.707,17.883 25.843,16.536 23.131,18.725 C23.131,18.725 21.147,19.853 19.221,23.558 C17.64,26.599 14.101,26.983 12.882,27.023 C12.533,27.035 12.197,27.073 11.856,27.149 C10.113,27.537 5.073,28.879 2.975,31.767 C2.95,31.802 2.925,31.837 2.899,31.873 C-0.506,36.643 0.938,43.922 5.081,48.067 C5.95,48.936 7.053,50.047 8.414,51.433 C9.8,52.795 10.912,53.898 11.781,54.766 C15.926,58.909 21.812,58.96 26.582,55.555 C26.617,55.53 26.652,55.505 26.688,55.479 C29.576,53.381 30.917,48.341 31.306,46.599 C31.382,46.257 31.42,45.922 31.431,45.572 C31.471,44.354 31.855,40.815 34.896,39.234 C38.601,37.307 39.729,35.323 39.729,35.323 C41.918,32.612 40.571,28.747 39.327,26.328 C39.01,25.712 38.642,25.128 38.234,24.573" id="Fill-3" fill="#C27037" sketch:type="MSShapeGroup"></path>
            <path d="M27.141,38.484 C27.141,42.626 23.783,45.984 19.641,45.984 C15.499,45.984 12.141,42.626 12.141,38.484 C12.141,34.342 15.499,30.984 19.641,30.984 C23.783,30.984 27.141,34.342 27.141,38.484" id="Fill-4" fill="#42241E" sketch:type="MSShapeGroup"></path>
            <path d="M36.069,18.409 L33.918,20.503 L38.079,24.665 C38.082,24.668 38.083,24.673 38.086,24.676 L40.238,22.581 L36.077,18.42 C36.073,18.417 36.072,18.412 36.069,18.409" id="Fill-5" fill="#9B431C" sketch:type="MSShapeGroup"></path>
            <path d="M32.487,21.897 L30.336,23.993 L34.497,28.154 C34.5,28.157 34.501,28.162 34.504,28.165 L36.656,26.07 L32.495,21.908 C32.491,21.905 32.491,21.9 32.487,21.897" id="Fill-6" fill="#9B431C" sketch:type="MSShapeGroup"></path>
            <path d="M25.323,28.875 L22.497,31.627 C24.366,32.443 25.832,34 26.537,35.925 L29.491,33.047 L25.33,28.887 C25.327,28.883 25.326,28.879 25.323,28.875" id="Fill-7" fill="#9B431C" sketch:type="MSShapeGroup"></path>
            <path d="M28.905,25.386 L26.753,27.482 L30.915,31.643 C30.918,31.646 30.919,31.651 30.922,31.654 L33.073,29.559 L28.912,25.398 C28.909,25.394 28.908,25.39 28.905,25.386" id="Fill-8" fill="#9B431C" sketch:type="MSShapeGroup"></path>
            <path d="M58.427,6.835 L51.986,0.393 C51.461,-0.131 50.611,-0.131 50.086,0.393 L49.74,0.74 L50,1 L50,3 L49,4 L47,4 L46.74,3.74 L45.74,4.74 L46,5 L46,7 L45,8 L43,8 L42.74,7.74 L42.255,8.225 C41.73,8.75 42.245,9.984 42.695,10.565 C42.695,10.565 43.22,11.43 42.695,11.955 L41.082,13.526 L45.243,17.688 C45.246,17.691 45.247,17.695 45.25,17.698 L46.866,16.125 C47.39,15.601 47.731,15.601 48.256,16.125 C48.256,16.125 50.071,17.09 50.596,16.566 L51.081,16.081 L51,16 L51,14 L52,13 L54,13 L54.081,13.081 L55.081,12.081 L55,12 L55,10 L56,9 L58,9 L58.081,9.081 L58.427,8.734 C58.952,8.21 58.952,7.359 58.427,6.835" id="Fill-9" fill="#9B431C" sketch:type="MSShapeGroup"></path>
            <path d="M39.651,14.92 L37.5,17.015 L41.661,21.176 C41.664,21.179 41.665,21.184 41.669,21.187 L43.82,19.092 L39.659,14.931 C39.655,14.927 39.655,14.923 39.651,14.92" id="Fill-10" fill="#9B431C" sketch:type="MSShapeGroup"></path>
            <path d="M30.336,23.993 L28.905,25.386 C28.908,25.39 28.909,25.394 28.912,25.398 L33.073,29.559 L34.504,28.165 C34.501,28.162 34.5,28.157 34.497,28.154 L30.336,23.993" id="Fill-11" fill="#633B2B" sketch:type="MSShapeGroup"></path>
            <path d="M26.753,27.482 L25.323,28.875 C25.326,28.879 25.327,28.883 25.33,28.887 L29.491,33.047 L30.922,31.654 C30.919,31.651 30.918,31.646 30.915,31.643 L26.753,27.482" id="Fill-12" fill="#633B2B" sketch:type="MSShapeGroup"></path>
            <path d="M37.5,17.015 L36.069,18.409 C36.072,18.412 36.073,18.417 36.077,18.42 L40.238,22.581 L41.669,21.187 C41.665,21.184 41.664,21.179 41.661,21.176 L37.5,17.015" id="Fill-13" fill="#633B2B" sketch:type="MSShapeGroup"></path>
            <path d="M33.918,20.503 L32.487,21.897 C32.491,21.9 32.491,21.905 32.495,21.908 L36.656,26.07 L38.086,24.676 C38.083,24.673 38.082,24.668 38.079,24.665 L33.918,20.503" id="Fill-14" fill="#633B2B" sketch:type="MSShapeGroup"></path>
            <path d="M45.243,17.688 L41.082,13.526 L39.651,14.92 C39.655,14.923 39.655,14.927 39.659,14.931 L43.82,19.092 L45.25,17.698 C45.247,17.695 45.246,17.691 45.243,17.688" id="Fill-15" fill="#633B2B" sketch:type="MSShapeGroup"></path>
            <path d="M47,4 L46,3 L46,1 L47,0 L49,0 L50,1 L50,3 L49,4 L47,4" id="Fill-462" fill="#E4C05C" sketch:type="MSShapeGroup"></path>
            <path d="M43,8 L42,7 L42,5 L43,4 L45,4 L46,5 L46,7 L45,8 L43,8" id="Fill-463" fill="#E4C05C" sketch:type="MSShapeGroup"></path>
            <path d="M52,17 L51,16 L51,14 L52,13 L54,13 L55,14 L55,16 L54,17 L52,17" id="Fill-466" fill="#E4C05C" sketch:type="MSShapeGroup"></path>
            <path d="M56,13 L55,12 L55,10 L56,9 L58,9 L59,10 L59,12 L58,13 L56,13" id="Fill-467" fill="#E4C05C" sketch:type="MSShapeGroup"></path>
            <path d="M16,50.071 C15.744,50.071 15.488,49.974 15.293,49.778 L8.222,42.707 C7.831,42.316 7.831,41.684 8.222,41.293 C8.612,40.902 9.245,40.902 9.636,41.293 L16.707,48.364 C17.098,48.755 17.098,49.388 16.707,49.778 C16.512,49.974 16.256,50.071 16,50.071" id="Fill-1292" fill="#42241E" sketch:type="MSShapeGroup"></path>
            <path d="M8.929,45.828 C8.673,45.828 8.417,45.731 8.222,45.535 C7.831,45.144 7.831,44.512 8.222,44.121 L19.293,33.051 C19.684,32.66 20.316,32.66 20.707,33.051 C21.098,33.441 21.098,34.074 20.707,34.465 L9.636,45.535 C9.44,45.731 9.185,45.828 8.929,45.828" id="Fill-1293" fill="#E4C05C" sketch:type="MSShapeGroup"></path>
            <path d="M11.05,47.95 C10.794,47.95 10.539,47.852 10.343,47.657 C9.953,47.267 9.953,46.634 10.343,46.243 L22.293,34.293 C22.684,33.902 23.316,33.902 23.707,34.293 C24.098,34.684 24.098,35.316 23.707,35.707 L11.757,47.657 C11.562,47.852 11.306,47.95 11.05,47.95" id="Fill-1294" fill="#E4C05C" sketch:type="MSShapeGroup"></path>
            <path d="M13.171,50.071 C12.915,50.071 12.66,49.974 12.464,49.778 C12.074,49.388 12.074,48.755 12.464,48.364 L23.536,37.293 C23.926,36.902 24.559,36.902 24.95,37.293 C25.34,37.684 25.34,38.316 24.95,38.707 L13.878,49.778 C13.683,49.974 13.427,50.071 13.171,50.071" id="Fill-1295" fill="#E4C05C" sketch:type="MSShapeGroup"></path>
        </g>
    </g>
</svg>