<?xml version="1.0" encoding="UTF-8" standalone="no"?>
<svg width="58px" height="59px" viewBox="0 0 58 59" version="1.1" xmlns="http://www.w3.org/2000/svg" xmlns:xlink="http://www.w3.org/1999/xlink" xmlns:sketch="http://www.bohemiancoding.com/sketch/ns">
    <!-- Generator: Sketch 3.2.2 (9983) - http://www.bohemiancoding.com/sketch -->
    <title>60 - Guitar Amplifier (Flat)</title>
    <desc>Created with Sketch.</desc>
    <defs></defs>
    <g id="Page-1" stroke="none" stroke-width="1" fill="none" fill-rule="evenodd" sketch:type="MSPage">
        <g id="60---Guitar-Amplifier-(Flat)" sketch:type="MSLayerGroup">
            <path d="M50,13 L50,5 L52.841,5 C55.69,5 58,7.31 58,10.159 L58,13 L50,13" id="Fill-944" fill="#556080" sketch:type="MSShapeGroup"></path>
            <path d="M8,13 L0,13 L0,10.159 C0,7.31 2.31,5 5.159,5 L8,5 L8,13" id="Fill-945" fill="#556080" sketch:type="MSShapeGroup"></path>
            <path d="M8,51 L8,59 L5.159,59 C2.31,59 0,56.69 0,53.841 L0,51 L8,51" id="Fill-946" fill="#556080" sketch:type="MSShapeGroup"></path>
            <path d="M50,51 L58,51 L58,53.841 C58,56.69 55.69,59 52.841,59 L50,59 L50,51" id="Fill-947" fill="#556080" sketch:type="MSShapeGroup"></path>
            <path d="M57,13 L50,13 L50,6 L8,6 L8,13 L1,13 L1,51 L8,51 L8,58 L50,58 L50,51 L57,51 L57,13" id="Fill-948" fill="#6E605E" sketch:type="MSShapeGroup"></path>
            <path d="M50,13 L50,10 L8,10 L8,13 L5,13 L5,51 L8,51 L8,54 L50,54 L50,51 L53,51 L53,13 L50,13" id="Fill-949" fill="#564B48" sketch:type="MSShapeGroup"></path>
            <path d="M50,13 L50,10 L8,10 L8,13 L5,13 L5,27 L53,27 L53,13 L50,13" id="Fill-950" fill="#CBB292" sketch:type="MSShapeGroup"></path>
            <path d="M31,14 L34,14 L34,17 L31,17 L31,14 Z" id="Fill-951" fill="#7F5D2F" sketch:type="MSShapeGroup"></path>
            <path d="M31,20 L34,20 L34,23 L31,23 L31,20 Z" id="Fill-952" fill="#7F5D2F" sketch:type="MSShapeGroup"></path>
            <path d="M37,14 L40,14 L40,17 L37,17 L37,14 Z" id="Fill-953" fill="#7F5D2F" sketch:type="MSShapeGroup"></path>
            <path d="M37,20 L40,20 L40,23 L37,23 L37,20 Z" id="Fill-954" fill="#7F5D2F" sketch:type="MSShapeGroup"></path>
            <path d="M43,14 L46,14 L46,17 L43,17 L43,14 Z" id="Fill-955" fill="#7F5D2F" sketch:type="MSShapeGroup"></path>
            <path d="M43,20 L46,20 L46,23 L43,23 L43,20 Z" id="Fill-956" fill="#7F5D2F" sketch:type="MSShapeGroup"></path>
            <path d="M31,13 L34,13 L34,16 L31,16 L31,13 Z" id="Fill-957" fill="#E4C05C" sketch:type="MSShapeGroup"></path>
            <path d="M31,19 L34,19 L34,22 L31,22 L31,19 Z" id="Fill-958" fill="#E4C05C" sketch:type="MSShapeGroup"></path>
            <path d="M37,13 L40,13 L40,16 L37,16 L37,13 Z" id="Fill-959" fill="#E4C05C" sketch:type="MSShapeGroup"></path>
            <path d="M37,19 L40,19 L40,22 L37,22 L37,19 Z" id="Fill-960" fill="#E4C05C" sketch:type="MSShapeGroup"></path>
            <path d="M43,13 L46,13 L46,16 L43,16 L43,13 Z" id="Fill-961" fill="#E4C05C" sketch:type="MSShapeGroup"></path>
            <path d="M43,19 L46,19 L46,22 L43,22 L43,19 Z" id="Fill-962" fill="#E4C05C" sketch:type="MSShapeGroup"></path>
            <path d="M8,29 C7.448,29 7,29.448 7,30 C7,30.552 7.448,31 8,31 C8.552,31 9,30.552 9,30 C9,29.448 8.552,29 8,29" id="Fill-975" fill="#6E605E" sketch:type="MSShapeGroup"></path>
            <path d="M14,29 C13.448,29 13,29.448 13,30 C13,30.552 13.448,31 14,31 C14.552,31 15,30.552 15,30 C15,29.448 14.552,29 14,29" id="Fill-976" fill="#6E605E" sketch:type="MSShapeGroup"></path>
            <path d="M20,29 C19.448,29 19,29.448 19,30 C19,30.552 19.448,31 20,31 C20.552,31 21,30.552 21,30 C21,29.448 20.552,29 20,29" id="Fill-977" fill="#6E605E" sketch:type="MSShapeGroup"></path>
            <path d="M26,29 C25.448,29 25,29.448 25,30 C25,30.552 25.448,31 26,31 C26.552,31 27,30.552 27,30 C27,29.448 26.552,29 26,29" id="Fill-978" fill="#6E605E" sketch:type="MSShapeGroup"></path>
            <path d="M32,29 C31.448,29 31,29.448 31,30 C31,30.552 31.448,31 32,31 C32.552,31 33,30.552 33,30 C33,29.448 32.552,29 32,29" id="Fill-979" fill="#6E605E" sketch:type="MSShapeGroup"></path>
            <path d="M38,29 C37.448,29 37,29.448 37,30 C37,30.552 37.448,31 38,31 C38.552,31 39,30.552 39,30 C39,29.448 38.552,29 38,29" id="Fill-980" fill="#6E605E" sketch:type="MSShapeGroup"></path>
            <path d="M44,29 C43.448,29 43,29.448 43,30 C43,30.552 43.448,31 44,31 C44.552,31 45,30.552 45,30 C45,29.448 44.552,29 44,29" id="Fill-981" fill="#6E605E" sketch:type="MSShapeGroup"></path>
            <path d="M50,31 C50.552,31 51,30.552 51,30 C51,29.448 50.552,29 50,29 C49.448,29 49,29.448 49,30 C49,30.552 49.448,31 50,31" id="Fill-982" fill="#6E605E" sketch:type="MSShapeGroup"></path>
            <path d="M11,32 C10.448,32 10,32.448 10,33 C10,33.552 10.448,34 11,34 C11.552,34 12,33.552 12,33 C12,32.448 11.552,32 11,32" id="Fill-983" fill="#6E605E" sketch:type="MSShapeGroup"></path>
            <path d="M17,32 C16.448,32 16,32.448 16,33 C16,33.552 16.448,34 17,34 C17.552,34 18,33.552 18,33 C18,32.448 17.552,32 17,32" id="Fill-984" fill="#6E605E" sketch:type="MSShapeGroup"></path>
            <path d="M23,32 C22.448,32 22,32.448 22,33 C22,33.552 22.448,34 23,34 C23.552,34 24,33.552 24,33 C24,32.448 23.552,32 23,32" id="Fill-985" fill="#6E605E" sketch:type="MSShapeGroup"></path>
            <path d="M29,32 C28.448,32 28,32.448 28,33 C28,33.552 28.448,34 29,34 C29.552,34 30,33.552 30,33 C30,32.448 29.552,32 29,32" id="Fill-986" fill="#6E605E" sketch:type="MSShapeGroup"></path>
            <path d="M35,32 C34.448,32 34,32.448 34,33 C34,33.552 34.448,34 35,34 C35.552,34 36,33.552 36,33 C36,32.448 35.552,32 35,32" id="Fill-987" fill="#6E605E" sketch:type="MSShapeGroup"></path>
            <path d="M41,32 C40.448,32 40,32.448 40,33 C40,33.552 40.448,34 41,34 C41.552,34 42,33.552 42,33 C42,32.448 41.552,32 41,32" id="Fill-988" fill="#6E605E" sketch:type="MSShapeGroup"></path>
            <path d="M47,32 C46.448,32 46,32.448 46,33 C46,33.552 46.448,34 47,34 C47.552,34 48,33.552 48,33 C48,32.448 47.552,32 47,32" id="Fill-989" fill="#6E605E" sketch:type="MSShapeGroup"></path>
            <path d="M8,35 C7.448,35 7,35.448 7,36 C7,36.552 7.448,37 8,37 C8.552,37 9,36.552 9,36 C9,35.448 8.552,35 8,35" id="Fill-990" fill="#6E605E" sketch:type="MSShapeGroup"></path>
            <path d="M8,41 C7.448,41 7,41.448 7,42 C7,42.552 7.448,43 8,43 C8.552,43 9,42.552 9,42 C9,41.448 8.552,41 8,41" id="Fill-991" fill="#6E605E" sketch:type="MSShapeGroup"></path>
            <path d="M11,38 C10.448,38 10,38.448 10,39 C10,39.552 10.448,40 11,40 C11.552,40 12,39.552 12,39 C12,38.448 11.552,38 11,38" id="Fill-992" fill="#6E605E" sketch:type="MSShapeGroup"></path>
            <path d="M14,35 C13.448,35 13,35.448 13,36 C13,36.552 13.448,37 14,37 C14.552,37 15,36.552 15,36 C15,35.448 14.552,35 14,35" id="Fill-993" fill="#6E605E" sketch:type="MSShapeGroup"></path>
            <path d="M14,41 C13.448,41 13,41.448 13,42 C13,42.552 13.448,43 14,43 C14.552,43 15,42.552 15,42 C15,41.448 14.552,41 14,41" id="Fill-994" fill="#6E605E" sketch:type="MSShapeGroup"></path>
            <path d="M17,38 C16.448,38 16,38.448 16,39 C16,39.552 16.448,40 17,40 C17.552,40 18,39.552 18,39 C18,38.448 17.552,38 17,38" id="Fill-995" fill="#6E605E" sketch:type="MSShapeGroup"></path>
            <path d="M20,35 C19.448,35 19,35.448 19,36 C19,36.552 19.448,37 20,37 C20.552,37 21,36.552 21,36 C21,35.448 20.552,35 20,35" id="Fill-996" fill="#6E605E" sketch:type="MSShapeGroup"></path>
            <path d="M20,41 C19.448,41 19,41.448 19,42 C19,42.552 19.448,43 20,43 C20.552,43 21,42.552 21,42 C21,41.448 20.552,41 20,41" id="Fill-997" fill="#6E605E" sketch:type="MSShapeGroup"></path>
            <path d="M23,38 C22.448,38 22,38.448 22,39 C22,39.552 22.448,40 23,40 C23.552,40 24,39.552 24,39 C24,38.448 23.552,38 23,38" id="Fill-998" fill="#6E605E" sketch:type="MSShapeGroup"></path>
            <path d="M26,35 C25.448,35 25,35.448 25,36 C25,36.552 25.448,37 26,37 C26.552,37 27,36.552 27,36 C27,35.448 26.552,35 26,35" id="Fill-999" fill="#6E605E" sketch:type="MSShapeGroup"></path>
            <path d="M26,41 C25.448,41 25,41.448 25,42 C25,42.552 25.448,43 26,43 C26.552,43 27,42.552 27,42 C27,41.448 26.552,41 26,41" id="Fill-1000" fill="#6E605E" sketch:type="MSShapeGroup"></path>
            <path d="M29,38 C28.448,38 28,38.448 28,39 C28,39.552 28.448,40 29,40 C29.552,40 30,39.552 30,39 C30,38.448 29.552,38 29,38" id="Fill-1001" fill="#6E605E" sketch:type="MSShapeGroup"></path>
            <path d="M32,35 C31.448,35 31,35.448 31,36 C31,36.552 31.448,37 32,37 C32.552,37 33,36.552 33,36 C33,35.448 32.552,35 32,35" id="Fill-1002" fill="#6E605E" sketch:type="MSShapeGroup"></path>
            <path d="M32,41 C31.448,41 31,41.448 31,42 C31,42.552 31.448,43 32,43 C32.552,43 33,42.552 33,42 C33,41.448 32.552,41 32,41" id="Fill-1003" fill="#6E605E" sketch:type="MSShapeGroup"></path>
            <path d="M35,38 C34.448,38 34,38.448 34,39 C34,39.552 34.448,40 35,40 C35.552,40 36,39.552 36,39 C36,38.448 35.552,38 35,38" id="Fill-1004" fill="#6E605E" sketch:type="MSShapeGroup"></path>
            <path d="M38,35 C37.448,35 37,35.448 37,36 C37,36.552 37.448,37 38,37 C38.552,37 39,36.552 39,36 C39,35.448 38.552,35 38,35" id="Fill-1005" fill="#6E605E" sketch:type="MSShapeGroup"></path>
            <path d="M38,41 C37.448,41 37,41.448 37,42 C37,42.552 37.448,43 38,43 C38.552,43 39,42.552 39,42 C39,41.448 38.552,41 38,41" id="Fill-1006" fill="#6E605E" sketch:type="MSShapeGroup"></path>
            <path d="M41,38 C40.448,38 40,38.448 40,39 C40,39.552 40.448,40 41,40 C41.552,40 42,39.552 42,39 C42,38.448 41.552,38 41,38" id="Fill-1007" fill="#6E605E" sketch:type="MSShapeGroup"></path>
            <path d="M44,35 C43.448,35 43,35.448 43,36 C43,36.552 43.448,37 44,37 C44.552,37 45,36.552 45,36 C45,35.448 44.552,35 44,35" id="Fill-1008" fill="#6E605E" sketch:type="MSShapeGroup"></path>
            <path d="M44,41 C43.448,41 43,41.448 43,42 C43,42.552 43.448,43 44,43 C44.552,43 45,42.552 45,42 C45,41.448 44.552,41 44,41" id="Fill-1009" fill="#6E605E" sketch:type="MSShapeGroup"></path>
            <path d="M47,38 C46.448,38 46,38.448 46,39 C46,39.552 46.448,40 47,40 C47.552,40 48,39.552 48,39 C48,38.448 47.552,38 47,38" id="Fill-1010" fill="#6E605E" sketch:type="MSShapeGroup"></path>
            <path d="M50,35 C49.448,35 49,35.448 49,36 C49,36.552 49.448,37 50,37 C50.552,37 51,36.552 51,36 C51,35.448 50.552,35 50,35" id="Fill-1011" fill="#6E605E" sketch:type="MSShapeGroup"></path>
            <path d="M50,41 C49.448,41 49,41.448 49,42 C49,42.552 49.448,43 50,43 C50.552,43 51,42.552 51,42 C51,41.448 50.552,41 50,41" id="Fill-1012" fill="#6E605E" sketch:type="MSShapeGroup"></path>
            <path d="M11,44 C10.448,44 10,44.448 10,45 C10,45.552 10.448,46 11,46 C11.552,46 12,45.552 12,45 C12,44.448 11.552,44 11,44" id="Fill-1013" fill="#6E605E" sketch:type="MSShapeGroup"></path>
            <path d="M17,44 C16.448,44 16,44.448 16,45 C16,45.552 16.448,46 17,46 C17.552,46 18,45.552 18,45 C18,44.448 17.552,44 17,44" id="Fill-1014" fill="#6E605E" sketch:type="MSShapeGroup"></path>
            <path d="M23,44 C22.448,44 22,44.448 22,45 C22,45.552 22.448,46 23,46 C23.552,46 24,45.552 24,45 C24,44.448 23.552,44 23,44" id="Fill-1015" fill="#6E605E" sketch:type="MSShapeGroup"></path>
            <path d="M29,44 C28.448,44 28,44.448 28,45 C28,45.552 28.448,46 29,46 C29.552,46 30,45.552 30,45 C30,44.448 29.552,44 29,44" id="Fill-1016" fill="#6E605E" sketch:type="MSShapeGroup"></path>
            <path d="M35,44 C34.448,44 34,44.448 34,45 C34,45.552 34.448,46 35,46 C35.552,46 36,45.552 36,45 C36,44.448 35.552,44 35,44" id="Fill-1017" fill="#6E605E" sketch:type="MSShapeGroup"></path>
            <path d="M41,44 C40.448,44 40,44.448 40,45 C40,45.552 40.448,46 41,46 C41.552,46 42,45.552 42,45 C42,44.448 41.552,44 41,44" id="Fill-1018" fill="#6E605E" sketch:type="MSShapeGroup"></path>
            <path d="M47,44 C46.448,44 46,44.448 46,45 C46,45.552 46.448,46 47,46 C47.552,46 48,45.552 48,45 C48,44.448 47.552,44 47,44" id="Fill-1019" fill="#6E605E" sketch:type="MSShapeGroup"></path>
            <path d="M8,47 C7.448,47 7,47.448 7,48 C7,48.552 7.448,49 8,49 C8.552,49 9,48.552 9,48 C9,47.448 8.552,47 8,47" id="Fill-1020" fill="#6E605E" sketch:type="MSShapeGroup"></path>
            <path d="M11,50 C10.448,50 10,50.448 10,51 C10,51.552 10.448,52 11,52 C11.552,52 12,51.552 12,51 C12,50.448 11.552,50 11,50" id="Fill-1021" fill="#6E605E" sketch:type="MSShapeGroup"></path>
            <path d="M14,47 C13.448,47 13,47.448 13,48 C13,48.552 13.448,49 14,49 C14.552,49 15,48.552 15,48 C15,47.448 14.552,47 14,47" id="Fill-1022" fill="#6E605E" sketch:type="MSShapeGroup"></path>
            <path d="M17,50 C16.448,50 16,50.448 16,51 C16,51.552 16.448,52 17,52 C17.552,52 18,51.552 18,51 C18,50.448 17.552,50 17,50" id="Fill-1023" fill="#6E605E" sketch:type="MSShapeGroup"></path>
            <path d="M20,47 C19.448,47 19,47.448 19,48 C19,48.552 19.448,49 20,49 C20.552,49 21,48.552 21,48 C21,47.448 20.552,47 20,47" id="Fill-1024" fill="#6E605E" sketch:type="MSShapeGroup"></path>
            <path d="M23,50 C22.448,50 22,50.448 22,51 C22,51.552 22.448,52 23,52 C23.552,52 24,51.552 24,51 C24,50.448 23.552,50 23,50" id="Fill-1025" fill="#6E605E" sketch:type="MSShapeGroup"></path>
            <path d="M26,47 C25.448,47 25,47.448 25,48 C25,48.552 25.448,49 26,49 C26.552,49 27,48.552 27,48 C27,47.448 26.552,47 26,47" id="Fill-1026" fill="#6E605E" sketch:type="MSShapeGroup"></path>
            <path d="M29,50 C28.448,50 28,50.448 28,51 C28,51.552 28.448,52 29,52 C29.552,52 30,51.552 30,51 C30,50.448 29.552,50 29,50" id="Fill-1027" fill="#6E605E" sketch:type="MSShapeGroup"></path>
            <path d="M32,47 C31.448,47 31,47.448 31,48 C31,48.552 31.448,49 32,49 C32.552,49 33,48.552 33,48 C33,47.448 32.552,47 32,47" id="Fill-1028" fill="#6E605E" sketch:type="MSShapeGroup"></path>
            <path d="M35,50 C34.448,50 34,50.448 34,51 C34,51.552 34.448,52 35,52 C35.552,52 36,51.552 36,51 C36,50.448 35.552,50 35,50" id="Fill-1029" fill="#6E605E" sketch:type="MSShapeGroup"></path>
            <path d="M38,47 C37.448,47 37,47.448 37,48 C37,48.552 37.448,49 38,49 C38.552,49 39,48.552 39,48 C39,47.448 38.552,47 38,47" id="Fill-1030" fill="#6E605E" sketch:type="MSShapeGroup"></path>
            <path d="M41,50 C40.448,50 40,50.448 40,51 C40,51.552 40.448,52 41,52 C41.552,52 42,51.552 42,51 C42,50.448 41.552,50 41,50" id="Fill-1031" fill="#6E605E" sketch:type="MSShapeGroup"></path>
            <path d="M44,47 C43.448,47 43,47.448 43,48 C43,48.552 43.448,49 44,49 C44.552,49 45,48.552 45,48 C45,47.448 44.552,47 44,47" id="Fill-1032" fill="#6E605E" sketch:type="MSShapeGroup"></path>
            <path d="M47,50 C46.448,50 46,50.448 46,51 C46,51.552 46.448,52 47,52 C47.552,52 48,51.552 48,51 C48,50.448 47.552,50 47,50" id="Fill-1033" fill="#6E605E" sketch:type="MSShapeGroup"></path>
            <path d="M50,47 C49.448,47 49,47.448 49,48 C49,48.552 49.448,49 50,49 C50.552,49 51,48.552 51,48 C51,47.448 50.552,47 50,47" id="Fill-1034" fill="#6E605E" sketch:type="MSShapeGroup"></path>
            <path d="M23,45 L35,45 L35,48 L23,48 L23,45 Z" id="Fill-1169" fill="#E4C05C" sketch:type="MSShapeGroup"></path>
            <path d="M37,7 C36.448,7 36,6.552 36,6 L36,2.837 C36,2.375 35.625,2 35.163,2 L22.837,2 C22.376,2 22,2.375 22,2.837 L22,6 C22,6.552 21.552,7 21,7 C20.448,7 20,6.552 20,6 L20,2.837 C20,1.273 21.273,0 22.837,0 L35.163,0 C36.727,0 38,1.273 38,2.837 L38,6 C38,6.552 37.552,7 37,7" id="Fill-1314" fill="#564B48" sketch:type="MSShapeGroup"></path>
            <path d="M19,19 C19,21.209 17.209,23 15,23 C12.791,23 11,21.209 11,19 C11,16.791 12.791,15 15,15 C17.209,15 19,16.791 19,19" id="Fill-1627" fill="#7F5D2F" sketch:type="MSShapeGroup"></path>
            <path d="M15.707,18.707 C15.512,18.902 15.256,19 15,19 C14.744,19 14.488,18.902 14.293,18.707 C13.902,18.316 13.902,17.684 14.293,17.293 L17.02,14.566 C16.425,14.215 15.74,14 15,14 C12.791,14 11,15.791 11,18 C11,20.209 12.791,22 15,22 C17.209,22 19,20.209 19,18 C19,17.259 18.785,16.575 18.434,15.98 L15.707,18.707" id="Fill-1628" fill="#E4C05C" sketch:type="MSShapeGroup"></path>
            <path d="M14.293,18.707 C14.488,18.902 14.744,19 15,19 C15.256,19 15.512,18.902 15.707,18.707 L18.434,15.98 C18.089,15.395 17.605,14.911 17.02,14.566 L14.293,17.293 C13.902,17.684 13.902,18.316 14.293,18.707" id="Fill-1629" fill="#5F5549" sketch:type="MSShapeGroup"></path>
        </g>
    </g>
</svg>