<?xml version="1.0" encoding="UTF-8" standalone="no"?>
<svg width="56px" height="56px" viewBox="0 0 56 56" version="1.1" xmlns="http://www.w3.org/2000/svg" xmlns:xlink="http://www.w3.org/1999/xlink" xmlns:sketch="http://www.bohemiancoding.com/sketch/ns">
    <!-- Generator: Sketch 3.2.2 (9983) - http://www.bohemiancoding.com/sketch -->
    <title>42 - Gypsy Tambourine (Flat)</title>
    <desc>Created with Sketch.</desc>
    <defs></defs>
    <g id="Page-1" stroke="none" stroke-width="1" fill="none" fill-rule="evenodd" sketch:type="MSPage">
        <g id="42---Gypsy-Tambourine-(Flat)" sketch:type="MSLayerGroup">
            <path d="M50,28.5 C50,40.374 40.374,50 28.5,50 C16.626,50 7,40.374 7,28.5 C7,16.626 16.626,7 28.5,7 C40.374,7 50,16.626 50,28.5" id="Fill-160" fill="#7F6E5D" sketch:type="MSShapeGroup"></path>
            <path d="M28,0 C24.564,0 21.778,2.786 21.778,6.222 C21.778,6.838 21.87,7.431 22.037,7.992 C24.077,7.35 26.247,7 28.5,7 C30.414,7 32.26,7.274 34.027,7.744 C34.15,7.256 34.222,6.748 34.222,6.222 C34.222,2.786 31.437,0 28,0" id="Fill-161" fill="#ECF0F1" sketch:type="MSShapeGroup"></path>
            <path d="M47.035,17.642 C47.301,17.45 47.559,17.24 47.799,17 C50.229,14.571 50.229,10.631 47.799,8.201 C45.369,5.771 41.43,5.771 39,8.201 C38.661,8.539 38.375,8.909 38.131,9.298 C41.846,11.165 44.938,14.07 47.035,17.642" id="Fill-162" fill="#ECF0F1" sketch:type="MSShapeGroup"></path>
            <path d="M49.778,21.778 C49.492,21.778 49.212,21.804 48.936,21.841 C49.62,23.939 50,26.174 50,28.5 C50,30.474 49.712,32.378 49.213,34.194 C49.4,34.21 49.587,34.222 49.778,34.222 C53.214,34.222 56,31.436 56,28 C56,24.563 53.214,21.778 49.778,21.778" id="Fill-163" fill="#ECF0F1" sketch:type="MSShapeGroup"></path>
            <path d="M47.385,38.781 C45.368,42.477 42.296,45.51 38.577,47.488 C38.708,47.649 38.849,47.805 39,47.955 C41.43,50.385 45.369,50.385 47.799,47.955 C50.229,45.525 50.229,41.586 47.799,39.156 C47.666,39.023 47.527,38.9 47.385,38.781" id="Fill-164" fill="#ECF0F1" sketch:type="MSShapeGroup"></path>
            <path d="M28.5,50 C26.174,50 23.939,49.62 21.841,48.936 C21.804,49.212 21.778,49.492 21.778,49.778 C21.778,53.214 24.564,56 28,56 C31.437,56 34.222,53.214 34.222,49.778 C34.222,49.587 34.21,49.399 34.194,49.213 C32.378,49.712 30.474,50 28.5,50" id="Fill-165" fill="#ECF0F1" sketch:type="MSShapeGroup"></path>
            <path d="M9.298,38.131 C8.909,38.375 8.539,38.661 8.201,39 C5.771,41.429 5.771,45.369 8.201,47.799 C10.631,50.229 14.571,50.229 17,47.799 C17.24,47.559 17.45,47.301 17.642,47.035 C14.07,44.937 11.165,41.846 9.298,38.131" id="Fill-166" fill="#ECF0F1" sketch:type="MSShapeGroup"></path>
            <path d="M7,28.5 C7,26.247 7.35,24.077 7.992,22.037 C7.431,21.87 6.838,21.778 6.222,21.778 C2.786,21.778 0,24.563 0,28 C0,31.436 2.786,34.222 6.222,34.222 C6.748,34.222 7.256,34.15 7.744,34.027 C7.274,32.26 7,30.414 7,28.5" id="Fill-167" fill="#ECF0F1" sketch:type="MSShapeGroup"></path>
            <path d="M8.201,8.357 C5.771,10.787 5.771,14.727 8.201,17.157 C8.631,17.587 9.11,17.937 9.618,18.214 C11.563,14.652 14.49,11.708 18.031,9.729 C17.758,9.238 17.417,8.774 17,8.357 C14.571,5.927 10.631,5.927 8.201,8.357" id="Fill-168" fill="#ECF0F1" sketch:type="MSShapeGroup"></path>
            <path d="M13,10 C11.343,10 10,11.343 10,13 C10,14.062 10.555,14.989 11.387,15.523 C12.572,13.962 13.962,12.572 15.523,11.387 C14.989,10.555 14.062,10 13,10" id="Fill-169" fill="#E4C05C" sketch:type="MSShapeGroup"></path>
            <path d="M45.657,41.418 C44.447,43.022 43.022,44.447 41.418,45.657 C41.425,45.664 41.429,45.671 41.435,45.678 C42.607,46.849 44.506,46.849 45.678,45.678 C46.849,44.506 46.849,42.607 45.678,41.435 C45.671,41.429 45.664,41.425 45.657,41.418" id="Fill-170" fill="#E4C05C" sketch:type="MSShapeGroup"></path>
            <path d="M50,25 C49.896,25 49.797,25.02 49.695,25.031 C49.879,26.163 50,27.316 50,28.5 C50,29.342 49.939,30.168 49.845,30.984 C49.898,30.987 49.947,31 50,31 C51.657,31 53,29.657 53,28 C53,26.343 51.657,25 50,25" id="Fill-171" fill="#E4C05C" sketch:type="MSShapeGroup"></path>
            <path d="M41.435,10.322 C41.233,10.524 41.079,10.753 40.947,10.99 C42.533,12.12 43.965,13.449 45.191,14.958 C45.363,14.846 45.527,14.716 45.678,14.565 C46.849,13.393 46.849,11.494 45.678,10.322 C44.506,9.151 42.607,9.151 41.435,10.322" id="Fill-172" fill="#E4C05C" sketch:type="MSShapeGroup"></path>
            <path d="M28,3 C26.343,3 25,4.343 25,6 C25,6.454 25.108,6.88 25.289,7.266 C26.339,7.108 27.406,7 28.5,7 C29.27,7 30.029,7.044 30.778,7.123 C30.919,6.776 31,6.398 31,6 C31,4.343 29.657,3 28,3" id="Fill-173" fill="#E4C05C" sketch:type="MSShapeGroup"></path>
            <path d="M28.5,50 C27.316,50 26.163,49.879 25.031,49.695 C25.02,49.797 25,49.896 25,50 C25,51.657 26.343,53 28,53 C29.657,53 31,51.657 31,50 C31,49.947 30.987,49.898 30.984,49.845 C30.168,49.939 29.342,50 28.5,50" id="Fill-174" fill="#E4C05C" sketch:type="MSShapeGroup"></path>
            <path d="M10.99,40.947 C10.753,41.079 10.524,41.233 10.322,41.435 C9.151,42.607 9.151,44.506 10.322,45.678 C11.494,46.849 13.393,46.849 14.565,45.678 C14.716,45.527 14.846,45.363 14.958,45.191 C13.449,43.965 12.12,42.533 10.99,40.947" id="Fill-175" fill="#E4C05C" sketch:type="MSShapeGroup"></path>
            <path d="M6,25 C4.343,25 3,26.343 3,28 C3,29.657 4.343,31 6,31 C6.398,31 6.776,30.919 7.123,30.778 C7.044,30.029 7,29.27 7,28.5 C7,27.406 7.108,26.339 7.266,25.289 C6.88,25.108 6.454,25 6,25" id="Fill-176" fill="#E4C05C" sketch:type="MSShapeGroup"></path>
            <path d="M47,28.5 C47,38.717 38.717,47 28.5,47 C18.283,47 10,38.717 10,28.5 C10,18.283 18.283,10 28.5,10 C38.717,10 47,18.283 47,28.5" id="Fill-1613" fill="#FBD490" sketch:type="MSShapeGroup"></path>
            <path d="M45,28.5 C45,37.613 37.613,45 28.5,45 C19.387,45 12,37.613 12,28.5 C12,19.387 19.387,12 28.5,12 C37.613,12 45,19.387 45,28.5" id="Fill-1614" fill="#F6EFCA" sketch:type="MSShapeGroup"></path>
            <path d="M18,31 C17.744,31 17.488,30.902 17.293,30.707 C16.902,30.316 16.902,29.684 17.293,29.293 L29.793,16.793 C30.184,16.402 30.816,16.402 31.207,16.793 C31.598,17.184 31.598,17.816 31.207,18.207 L18.707,30.707 C18.512,30.902 18.256,31 18,31" id="Fill-1615" fill="#FCFBF8" sketch:type="MSShapeGroup"></path>
            <path d="M24,32 C23.744,32 23.488,31.902 23.293,31.707 C22.902,31.316 22.902,30.684 23.293,30.293 L30.293,23.293 C30.684,22.902 31.316,22.902 31.707,23.293 C32.098,23.684 32.098,24.316 31.707,24.707 L24.707,31.707 C24.512,31.902 24.256,32 24,32" id="Fill-1616" fill="#FCFBF8" sketch:type="MSShapeGroup"></path>
        </g>
    </g>
</svg>