<?xml version="1.0" encoding="UTF-8" standalone="no"?>
<svg width="58px" height="40px" viewBox="0 0 58 40" version="1.1" xmlns="http://www.w3.org/2000/svg" xmlns:xlink="http://www.w3.org/1999/xlink" xmlns:sketch="http://www.bohemiancoding.com/sketch/ns">
    <!-- Generator: Sketch 3.2.2 (9983) - http://www.bohemiancoding.com/sketch -->
    <title>37 - Harmonica (Flat)</title>
    <desc>Created with Sketch.</desc>
    <defs></defs>
    <g id="Page-1" stroke="none" stroke-width="1" fill="none" fill-rule="evenodd" sketch:type="MSPage">
        <g id="37---Harmonica-(Flat)" sketch:type="MSLayerGroup">
            <path d="M54.373,4 L48,4 L48,19.252 C48,21.322 46.322,23 44.252,23 L13.748,23 C11.678,23 10,21.322 10,19.252 L10,4 L3.627,4 C1.624,4 0,5.624 0,7.627 L0,28 L58,28 L58,7.627 C58,5.624 56.376,4 54.373,4" id="Fill-197" fill="#D1D4D1" sketch:type="MSShapeGroup"></path>
            <path d="M52,18 L51,17 L51,15 L52,14 L54,14 L55,15 L55,17 L54,18 L52,18" id="Fill-454" fill="#FFFFFF" sketch:type="MSShapeGroup"></path>
            <path d="M4,18 L3,17 L3,15 L4,14 L6,14 L7,15 L7,17 L6,18 L4,18" id="Fill-461" fill="#FFFFFF" sketch:type="MSShapeGroup"></path>
            <path d="M56.11,40 L1.89,40 C0.846,40 0,39.154 0,38.11 L0,28 L58,28 L58,38.11 C58,39.154 57.154,40 56.11,40" id="Fill-1460" fill="#B4935B" sketch:type="MSShapeGroup"></path>
            <path d="M4,31 L9,31 L9,34 L4,34 L4,31 Z" id="Fill-1461" fill="#42241E" sketch:type="MSShapeGroup"></path>
            <path d="M4,34 L9,34 L9,37 L4,37 L4,34 Z" id="Fill-1462" fill="#7F6E5D" sketch:type="MSShapeGroup"></path>
            <path d="M13,31 L18,31 L18,34 L13,34 L13,31 Z" id="Fill-1463" fill="#42241E" sketch:type="MSShapeGroup"></path>
            <path d="M13,34 L18,34 L18,37 L13,37 L13,34 Z" id="Fill-1464" fill="#7F6E5D" sketch:type="MSShapeGroup"></path>
            <path d="M22,31 L27,31 L27,34 L22,34 L22,31 Z" id="Fill-1465" fill="#42241E" sketch:type="MSShapeGroup"></path>
            <path d="M22,34 L27,34 L27,37 L22,37 L22,34 Z" id="Fill-1466" fill="#7F6E5D" sketch:type="MSShapeGroup"></path>
            <path d="M31,31 L36,31 L36,34 L31,34 L31,31 Z" id="Fill-1467" fill="#42241E" sketch:type="MSShapeGroup"></path>
            <path d="M31,34 L36,34 L36,37 L31,37 L31,34 Z" id="Fill-1468" fill="#7F6E5D" sketch:type="MSShapeGroup"></path>
            <path d="M40,31 L45,31 L45,34 L40,34 L40,31 Z" id="Fill-1469" fill="#42241E" sketch:type="MSShapeGroup"></path>
            <path d="M40,34 L45,34 L45,37 L40,37 L40,34 Z" id="Fill-1470" fill="#7F6E5D" sketch:type="MSShapeGroup"></path>
            <path d="M49,31 L54,31 L54,34 L49,34 L49,31 Z" id="Fill-1471" fill="#42241E" sketch:type="MSShapeGroup"></path>
            <path d="M49,34 L54,34 L54,37 L49,37 L49,34 Z" id="Fill-1472" fill="#7F6E5D" sketch:type="MSShapeGroup"></path>
            <path d="M44.252,23 L13.748,23 C11.678,23 10,21.322 10,19.252 L10,4.302 C10,1.926 11.926,0 14.302,0 L43.698,0 C46.074,0 48,1.926 48,4.302 L48,19.252 C48,21.322 46.322,23 44.252,23" id="Fill-1473" fill="#ECF0F1" sketch:type="MSShapeGroup"></path>
            <path d="M14,10 C13.448,10 13,9.553 13,9 L13,5.357 C13,4.058 14.058,3 15.358,3 L23,3 C23.552,3 24,3.447 24,4 C24,4.553 23.552,5 23,5 L15.358,5 C15.164,5 15,5.164 15,5.357 L15,9 C15,9.553 14.552,10 14,10" id="Fill-1474" fill="#FFFFFF" sketch:type="MSShapeGroup"></path>
        </g>
    </g>
</svg>