<?xml version="1.0" encoding="UTF-8" standalone="no"?>
<svg width="45px" height="57px" viewBox="0 0 45 57" version="1.1" xmlns="http://www.w3.org/2000/svg" xmlns:xlink="http://www.w3.org/1999/xlink" xmlns:sketch="http://www.bohemiancoding.com/sketch/ns">
    <!-- Generator: Sketch 3.2.2 (9983) - http://www.bohemiancoding.com/sketch -->
    <title>21 - Harp (Flat)</title>
    <desc>Created with Sketch.</desc>
    <defs></defs>
    <g id="Page-1" stroke="none" stroke-width="1" fill="none" fill-rule="evenodd" sketch:type="MSPage">
        <g id="21---Harp-(Flat)" sketch:type="MSLayerGroup" transform="translate(0.000000, -1.000000)">
            <path d="M42.76,27.695 C36.215,16.63 37.692,6.601 38.853,2.801 C39.181,1.724 38.155,0.729 37.081,1.067 C35.792,1.474 34.249,2.262 33,3.782 C32.115,4.861 31.358,7.664 31.117,9 L14.805,9 C14.563,7.662 13.888,4.858 13,3.779 C11.76,2.273 10.23,1.487 8.945,1.077 C7.848,0.727 6.817,1.747 7.15,2.849 C8.307,6.672 9.662,16.677 3.144,27.695 C-0.099,33.177 -0.97,40.328 3.159,45.83 C4.427,47.519 7.066,51.687 10,54 C10.561,52.872 12.08,52 13.419,52 L31.659,52 C32.953,52 34.419,52.934 35,54 C37.588,51.827 40.55,47.808 41.919,45.83 C45.726,40.333 46.003,33.177 42.76,27.695 L42.76,27.695 Z M35.09,38 C34.904,38.944 34.766,40 33.803,40 L33,40 C33.064,40.179 33.106,40.369 33.106,40.57 C33.106,41.51 31.941,42 31,42 L15,42 C14.059,42 12.894,41.51 12.894,40.57 C12.894,40.369 12.936,40.179 13,40 L11.858,40 C10.896,40 10.057,39.326 9.87,38.381 C8.266,30.272 12.48,18.401 14.359,13.418 C14.361,13.412 14.364,13.406 14.366,13.401 C14.673,12.579 15.411,12 16.287,12 L29.635,12 C30.512,12 31.25,12.579 31.557,13.4 C31.559,13.405 31.561,13.41 31.562,13.414 C33.441,18.396 36.694,29.888 35.09,38 L35.09,38 Z" id="Fill-186" fill="#E4C05C" sketch:type="MSShapeGroup"></path>
            <path d="M32.461,12 L13.801,12 C12.976,12 12.301,11.325 12.301,10.5 C12.301,9.675 12.976,9 13.801,9 L32.461,9 C33.286,9 33.961,9.675 33.961,10.5 C33.961,11.325 33.286,12 32.461,12" id="Fill-1306" fill="#F3D55B" sketch:type="MSShapeGroup"></path>
            <path d="M32.461,42 L13.801,42 C12.976,42 12.301,41.325 12.301,40.5 C12.301,39.675 12.976,39 13.801,39 L32.461,39 C33.286,39 33.961,39.675 33.961,40.5 C33.961,41.325 33.286,42 32.461,42" id="Fill-1307" fill="#F3D55B" sketch:type="MSShapeGroup"></path>
            <path d="M21,39.001 L19,38.999 L19.021,11.999 L21.021,12.001 L21,39.001" id="Fill-1308" fill="#D1D4D1" sketch:type="MSShapeGroup"></path>
            <path d="M16,12 L18,12 L18,39 L16,39 L16,12 Z" id="Fill-1309" fill="#D1D4D1" sketch:type="MSShapeGroup"></path>
            <path d="M23.979,39.001 L21.979,38.999 L22,11.999 L24,12.001 L23.979,39.001" id="Fill-1310" fill="#D1D4D1" sketch:type="MSShapeGroup"></path>
            <path d="M25,12 L27,12 L27,39 L25,39 L25,12 Z" id="Fill-1311" fill="#D1D4D1" sketch:type="MSShapeGroup"></path>
            <path d="M28,12 L30,12 L30,39 L28,39 L28,12 Z" id="Fill-1312" fill="#D1D4D1" sketch:type="MSShapeGroup"></path>
            <path d="M32.079,58 L12.999,58 C11.349,58 9.999,56.65 9.999,55 C9.999,53.35 11.349,52 12.999,52 L32.079,52 C33.729,52 35.079,53.35 35.079,55 C35.079,56.65 33.729,58 32.079,58" id="Fill-1313" fill="#7F6E5D" sketch:type="MSShapeGroup"></path>
        </g>
    </g>
</svg>