<?xml version="1.0" encoding="UTF-8" standalone="no"?>
<svg width="60px" height="60px" viewBox="0 0 60 60" version="1.1" xmlns="http://www.w3.org/2000/svg" xmlns:xlink="http://www.w3.org/1999/xlink" xmlns:sketch="http://www.bohemiancoding.com/sketch/ns">
    <!-- Generator: Sketch 3.2.2 (9983) - http://www.bohemiancoding.com/sketch -->
    <title>7 - Iphone Headphones (Flat)</title>
    <desc>Created with Sketch.</desc>
    <defs></defs>
    <g id="Page-1" stroke="none" stroke-width="1" fill="none" fill-rule="evenodd" sketch:type="MSPage">
        <g id="7---Iphone-Headphones-(Flat)" sketch:type="MSLayerGroup" transform="translate(1.000000, 1.000000)">
            <path d="M46.611,58 L11.389,58 C5.099,58 0,52.901 0,46.611 L0,11.389 C0,5.099 5.099,0 11.389,0 L46.611,0 C52.901,0 58,5.099 58,11.389 L58,46.611 C58,52.901 52.901,58 46.611,58 L46.611,58 Z" id="Fill-178" fill="#BDC3C7" sketch:type="MSShapeGroup"></path>
            <path d="M46.611,58 L11.389,58 C5.099,58 0,52.901 0,46.611 L0,11.389 C0,5.099 5.099,0 11.389,0 L46.611,0 C52.901,0 58,5.099 58,11.389 L58,46.611 C58,52.901 52.901,58 46.611,58 L46.611,58 Z" id="Stroke-179" stroke="#ECF0F1" stroke-width="2" stroke-linecap="round" sketch:type="MSShapeGroup"></path>
            <path d="M45.625,55 L12.375,55 C7.197,55 3,50.803 3,45.625 L3,12.375 C3,7.197 7.197,3 12.375,3 L45.625,3 C50.803,3 55,7.197 55,12.375 L55,45.625 C55,50.803 50.803,55 45.625,55" id="Fill-180" fill="#ECF0F1" sketch:type="MSShapeGroup"></path>
            <path d="M21.121,55.683 C20.865,55.683 20.609,55.585 20.414,55.39 C20.023,54.999 20.023,54.366 20.414,53.976 C21.199,53.19 21.199,52.175 20.414,51.39 C18.846,49.821 18.846,47.544 20.414,45.976 C20.803,45.585 21.437,45.585 21.828,45.976 C22.218,46.366 22.218,46.999 21.828,47.39 C21.043,48.175 21.043,49.19 21.828,49.976 C23.396,51.544 23.396,53.821 21.828,55.39 C21.633,55.585 21.377,55.683 21.121,55.683" id="Fill-1520" fill="#BDC3C7" sketch:type="MSShapeGroup"></path>
            <path d="M40.167,55.683 C39.912,55.683 39.656,55.585 39.46,55.39 C39.07,54.999 39.07,54.366 39.46,53.976 C40.174,53.262 38.839,51.815 38.414,51.39 C36.846,49.821 36.846,47.544 38.414,45.976 C38.803,45.585 39.437,45.585 39.828,45.976 C40.218,46.366 40.218,46.999 39.828,47.39 C39.042,48.175 39.042,49.19 39.828,49.976 C41.85,51.999 42.242,54.022 40.875,55.39 C40.679,55.585 40.423,55.683 40.167,55.683" id="Fill-1521" fill="#BDC3C7" sketch:type="MSShapeGroup"></path>
            <path d="M29.879,55.683 C29.624,55.683 29.368,55.585 29.172,55.39 C28.782,54.999 28.782,54.366 29.172,53.976 C29.958,53.19 29.958,52.175 29.172,51.39 C27.604,49.821 27.604,47.544 29.172,45.976 C29.562,45.585 30.196,45.585 30.586,45.976 C30.977,46.366 30.977,46.999 30.586,47.39 C29.801,48.175 29.801,49.19 30.586,49.976 C32.154,51.544 32.154,53.821 30.586,55.39 C30.392,55.585 30.135,55.683 29.879,55.683" id="Fill-1522" fill="#BDC3C7" sketch:type="MSShapeGroup"></path>
            <path d="M29.547,13.5 C29.291,13.5 29.035,13.402 28.84,13.207 C27.213,11.58 27.213,8.933 28.84,7.306 C29.692,6.453 29.68,4.57 28.816,3.707 C28.426,3.316 28.426,2.684 28.816,2.293 C29.207,1.902 29.84,1.902 30.23,2.293 C31.858,3.921 31.87,7.104 30.254,8.72 C29.407,9.567 29.407,10.945 30.254,11.793 C30.645,12.184 30.645,12.816 30.254,13.207 C30.059,13.402 29.803,13.5 29.547,13.5" id="Fill-1523" fill="#BDC3C7" sketch:type="MSShapeGroup"></path>
            <path d="M36,29.79 C36,22.875 37.941,18.948 38.314,18.108 C40.857,12.367 49.094,12.748 50.742,18.87 C50.754,18.913 50.765,18.956 50.776,19 C51.062,20.135 50.977,24.247 50.675,25.378 C50.469,26.15 50.139,27.083 49.621,27.95 C48.218,30.294 44.932,30.614 43,28.683 C43,28.683 39.875,24.308 40,29.683 L40,45.713 C40,46.249 39.566,46.683 39.03,46.683 L36.97,46.683 C36.434,46.683 36,46.249 36,45.713 L36,29.79" id="Fill-1848" fill="#FFFFFF" sketch:type="MSShapeGroup"></path>
            <path d="M44.49,14.03 C47.206,14.03 49.879,15.662 50.742,18.87 C50.754,18.913 50.765,18.957 50.776,19 C51.062,20.135 50.977,24.247 50.675,25.378 C50.469,26.15 50.139,27.083 49.621,27.95 C48.833,29.265 47.452,29.944 46.05,29.944 C44.955,29.944 43.847,29.53 43,28.683 C43,28.683 41.801,27.004 40.918,27.004 C40.375,27.004 39.953,27.637 40,29.683 L40,45.713 C40,46.248 39.566,46.683 39.03,46.683 L36.97,46.683 C36.434,46.683 36,46.248 36,45.713 L36,29.79 C36,22.875 37.941,18.948 38.314,18.108 C39.524,15.376 42.025,14.031 44.49,14.03 M44.491,13.03 L44.491,13.03 C41.394,13.031 38.677,14.821 37.399,17.703 L37.337,17.841 C35.786,21.264 35,25.284 35,29.79 L35,45.713 C35,46.799 35.884,47.683 36.97,47.683 L39.03,47.683 C40.116,47.683 41,46.799 41,45.713 L41,29.683 C40.98,28.828 41.049,28.36 41.111,28.117 C41.399,28.333 41.865,28.814 42.186,29.264 L42.234,29.331 L42.293,29.39 C43.295,30.392 44.629,30.944 46.05,30.944 C47.893,30.944 49.549,30.017 50.479,28.463 C50.967,27.648 51.358,26.697 51.641,25.637 C51.967,24.418 52.084,20.1 51.746,18.756 L51.708,18.61 C50.796,15.221 47.963,13.03 44.491,13.03" id="Fill-1849" fill="#BDC3C7" sketch:type="MSShapeGroup"></path>
            <path d="M29.5,46.683 L28.5,46.683 C26.575,46.683 25,45.108 25,43.183 L25,16 C25,14.075 26.575,12.5 28.5,12.5 L29.5,12.5 C31.425,12.5 33,14.075 33,16 L33,43.183 C33,45.108 31.425,46.683 29.5,46.683" id="Fill-1850" fill="#FFFFFF" sketch:type="MSShapeGroup"></path>
            <path d="M29.5,47.183 L28.5,47.183 C26.294,47.183 24.5,45.389 24.5,43.183 L24.5,16 C24.5,13.794 26.294,12 28.5,12 L29.5,12 C31.706,12 33.5,13.794 33.5,16 L33.5,43.183 C33.5,45.389 31.706,47.183 29.5,47.183 L29.5,47.183 Z M28.5,13 C26.846,13 25.5,14.346 25.5,16 L25.5,43.183 C25.5,44.837 26.846,46.183 28.5,46.183 L29.5,46.183 C31.154,46.183 32.5,44.837 32.5,43.183 L32.5,16 C32.5,14.346 31.154,13 29.5,13 L28.5,13 L28.5,13 Z" id="Fill-1851" fill="#BDC3C7" sketch:type="MSShapeGroup"></path>
            <path d="M30,42 L28,42 C27.448,42 27,41.553 27,41 C27,40.447 27.448,40 28,40 L30,40 C30.552,40 31,40.447 31,41 C31,41.553 30.552,42 30,42" id="Fill-1852" fill="#C6C6C6" sketch:type="MSShapeGroup"></path>
            <path d="M29,21 C28.448,21 28,20.553 28,20 L28,16 C28,15.447 28.448,15 29,15 C29.552,15 30,15.447 30,16 L30,20 C30,20.553 29.552,21 29,21" id="Fill-1853" fill="#C6C6C6" sketch:type="MSShapeGroup"></path>
            <path d="M47.953,25 L47.953,25 C47.403,25 46.953,24.55 46.953,24 L46.953,20 C46.953,19.45 47.403,19 47.953,19 C48.503,19 48.953,19.45 48.953,20 L48.953,24 C48.953,24.55 48.503,25 47.953,25" id="Fill-1854" fill="#C6C6C6" sketch:type="MSShapeGroup"></path>
            <path d="M22,29.79 C22,22.042 20.059,18.948 19.686,18.108 C17.142,12.367 8.906,12.748 7.258,18.87 C7.246,18.913 7.235,18.956 7.224,19 C6.938,20.135 7.023,24.247 7.325,25.378 C7.531,26.15 7.861,27.083 8.379,27.95 C9.783,30.294 13.068,30.614 15,28.683 C15,28.683 18.125,24.308 18,29.683 L18,45.713 C18,46.249 18.434,46.683 18.97,46.683 L21.03,46.683 C21.566,46.683 22,46.249 22,45.713 L22,29.79" id="Fill-1855" fill="#FFFFFF" sketch:type="MSShapeGroup"></path>
            <path d="M21.03,47.183 L18.97,47.183 C18.159,47.183 17.5,46.523 17.5,45.713 L17.5,29.683 C17.538,28.05 17.257,27.634 17.17,27.545 C16.718,27.491 15.915,28.264 15.407,28.974 C14.446,29.944 13.237,30.443 11.95,30.443 C10.284,30.443 8.789,29.607 7.95,28.206 C7.486,27.432 7.114,26.523 6.842,25.508 C6.535,24.361 6.421,20.139 6.739,18.878 L6.775,18.738 C7.626,15.575 10.27,13.53 13.509,13.53 C16.406,13.53 18.948,15.207 20.144,17.906 C20.177,17.981 20.225,18.077 20.283,18.194 C20.889,19.419 22.5,22.673 22.5,29.79 L22.5,45.713 C22.5,46.523 21.841,47.183 21.03,47.183 L21.03,47.183 Z M17.082,26.504 C17.389,26.504 17.667,26.622 17.886,26.846 C18.339,27.31 18.534,28.215 18.5,29.694 L18.5,45.713 C18.5,45.972 18.711,46.183 18.97,46.183 L21.03,46.183 C21.289,46.183 21.5,45.972 21.5,45.713 L21.5,29.79 C21.5,22.906 19.965,19.806 19.387,18.639 C19.321,18.506 19.268,18.397 19.23,18.311 C18.196,15.979 16.004,14.53 13.509,14.53 C10.736,14.53 8.471,16.285 7.741,19 L7.709,19.121 C7.451,20.147 7.516,24.155 7.808,25.25 C8.056,26.176 8.392,26.997 8.809,27.692 C9.465,28.789 10.639,29.443 11.95,29.443 C12.97,29.443 13.928,29.048 14.647,28.329 C14.818,28.077 15.997,26.504 17.082,26.504 L17.082,26.504 Z" id="Fill-1856" fill="#BDC3C7" sketch:type="MSShapeGroup"></path>
            <path d="M9.953,25 L9.953,25 C10.503,25 10.953,24.55 10.953,24 L10.953,20 C10.953,19.45 10.503,19 9.953,19 C9.403,19 8.953,19.45 8.953,20 L8.953,24 C8.953,24.55 9.403,25 9.953,25" id="Fill-1857" fill="#C6C6C6" sketch:type="MSShapeGroup"></path>
            <path d="M31,19 L27,19 C26.448,19 26,18.553 26,18 C26,17.447 26.448,17 27,17 L31,17 C31.552,17 32,17.447 32,18 C32,18.553 31.552,19 31,19" id="Fill-1858" fill="#C6C6C6" sketch:type="MSShapeGroup"></path>
        </g>
    </g>
</svg>