<?xml version="1.0" encoding="UTF-8" standalone="no"?>
<svg width="57px" height="46px" viewBox="0 0 57 46" version="1.1" xmlns="http://www.w3.org/2000/svg" xmlns:xlink="http://www.w3.org/1999/xlink" xmlns:sketch="http://www.bohemiancoding.com/sketch/ns">
    <!-- Generator: Sketch 3.2.2 (9983) - http://www.bohemiancoding.com/sketch -->
    <title>30 - Maracas (Flat)</title>
    <desc>Created with Sketch.</desc>
    <defs></defs>
    <g id="Page-1" stroke="none" stroke-width="1" fill="none" fill-rule="evenodd" sketch:type="MSPage">
        <g id="30---Maracas-(Flat)" sketch:type="MSLayerGroup">
            <path d="M24.8,8.991 C24.712,9.797 24.446,10.767 23.893,11.956 C22.823,14.258 20.935,16.824 18.577,19.182 C15.357,22.402 11.436,24.977 8.518,25.288 C13.836,28.411 20.125,28.24 23.941,24.424 C27.76,20.605 27.929,14.311 24.8,8.991" id="Fill-1271" fill="#4FBA6F" sketch:type="MSShapeGroup"></path>
            <path d="M6.971,23.01 C7.977,24.013 12.451,22.477 17.163,17.768 C19.359,15.571 21.106,13.208 22.08,11.113 C23.04,9.049 22.94,7.876 22.563,7.499 C22.173,7.108 22.173,6.476 22.563,6.085 C22.578,6.071 22.597,6.066 22.612,6.052 C22.424,5.845 22.243,5.634 22.042,5.433 C16.273,-0.336 7.771,-1.186 3.051,3.534 C-1.669,8.254 -0.818,16.756 4.95,22.525 C5.137,22.712 5.334,22.879 5.526,23.055 C5.539,23.041 5.543,23.023 5.557,23.01 C5.947,22.619 6.58,22.619 6.971,23.01" id="Fill-1272" fill="#D75A4A" sketch:type="MSShapeGroup"></path>
            <path d="M23.893,11.956 C24.446,10.767 24.712,9.797 24.8,8.991 C24.197,7.965 23.459,6.981 22.612,6.052 C22.597,6.066 22.578,6.071 22.563,6.085 C22.173,6.476 22.173,7.108 22.563,7.499 C22.94,7.876 23.04,9.049 22.08,11.113 C21.106,13.208 19.359,15.571 17.163,17.768 C12.451,22.477 7.977,24.013 6.971,23.01 C6.58,22.619 5.947,22.619 5.557,23.01 C5.543,23.023 5.539,23.041 5.526,23.055 C6.471,23.922 7.472,24.674 8.518,25.288 C11.436,24.977 15.357,22.402 18.577,19.182 C20.935,16.824 22.823,14.258 23.893,11.956" id="Fill-1273" fill="#F0C419" sketch:type="MSShapeGroup"></path>
            <path d="M20.223,40.211 C20.364,39.986 20.533,39.787 20.731,39.61 L34.924,26.566 C35.052,26.452 35.159,26.325 35.261,26.195 C34.466,25.75 33.722,25.209 33.059,24.545 C32.353,23.839 31.786,23.04 31.327,22.186 C31.182,22.296 31.043,22.418 30.917,22.558 L17.873,36.752 C17.696,36.95 17.497,37.119 17.272,37.26 C16.094,38 12.364,40.259 12.364,40.259 C11.352,40.867 11.18,42.264 12.015,43.099 L14.384,45.468 C15.219,46.303 16.616,46.131 17.224,45.119 C17.224,45.119 19.483,41.389 20.223,40.211" id="Fill-1274" fill="#CBB292" sketch:type="MSShapeGroup"></path>
            <path id="Stroke-1275" stroke="#0096E6" stroke-width="2" stroke-linecap="round" stroke-linejoin="round" sketch:type="MSShapeGroup"></path>
            <path d="M46.907,24.853 L48.846,19.454 L43.193,21.197 C42.843,21.307 42.465,21.214 42.203,20.961 C41.94,20.707 41.837,20.331 41.933,19.979 L43.594,13.889 L37.504,15.55 C37.153,15.644 36.776,15.543 36.522,15.28 C36.269,15.019 36.178,14.639 36.285,14.29 L38.029,8.638 L32.629,10.577 C32.239,10.715 31.819,10.598 31.555,10.312 C29.114,15.353 29.524,21.01 33.059,24.545 C36.604,28.091 42.284,28.492 47.336,26.028 C46.941,25.785 46.744,25.307 46.907,24.853" id="Fill-1276" fill="#4FBA6F" sketch:type="MSShapeGroup"></path>
            <path d="M53.949,3.655 C49.229,-1.065 40.727,-0.214 34.958,5.554 C34.052,6.46 33.282,7.439 32.621,8.454 L39.236,6.078 C39.591,5.951 39.991,6.034 40.265,6.297 C40.539,6.559 40.642,6.952 40.53,7.315 L38.732,13.142 L44.756,11.499 C45.101,11.405 45.472,11.502 45.726,11.757 C45.98,12.011 46.078,12.381 45.984,12.727 L44.341,18.75 L50.169,16.953 C50.532,16.841 50.925,16.943 51.187,17.218 C51.449,17.491 51.533,17.89 51.405,18.246 L48.934,25.124 C50.028,24.435 51.08,23.616 52.05,22.646 C57.819,16.878 58.669,8.375 53.949,3.655" id="Fill-1277" fill="#D75A4A" sketch:type="MSShapeGroup"></path>
            <path d="M51.187,17.218 C50.925,16.943 50.532,16.841 50.169,16.953 L44.341,18.75 L45.984,12.727 C46.078,12.381 45.98,12.011 45.726,11.757 C45.472,11.502 45.101,11.405 44.756,11.499 L38.732,13.142 L40.53,7.315 C40.642,6.952 40.539,6.559 40.265,6.297 C39.991,6.034 39.591,5.951 39.236,6.078 L32.621,8.454 C32.226,9.062 31.861,9.68 31.555,10.312 C31.819,10.598 32.239,10.715 32.629,10.577 L38.029,8.638 L36.285,14.29 C36.178,14.639 36.269,15.019 36.522,15.28 C36.776,15.543 37.153,15.644 37.504,15.55 L43.594,13.889 L41.933,19.979 C41.837,20.331 41.94,20.707 42.203,20.961 C42.465,21.214 42.843,21.307 43.193,21.197 L48.846,19.454 L46.907,24.853 C46.744,25.307 46.941,25.785 47.336,26.028 C47.878,25.763 48.41,25.454 48.934,25.124 L51.405,18.246 C51.533,17.89 51.449,17.491 51.187,17.218" id="Fill-1278" fill="#F0C419" sketch:type="MSShapeGroup"></path>
            <path d="M24.817,29.196 L28.439,25.255 L25.962,22.558 C25.848,22.431 25.721,22.324 25.591,22.222 C25.146,23.017 24.604,23.761 23.941,24.424 C23.235,25.13 22.436,25.696 21.582,26.155 C21.692,26.301 21.813,26.44 21.954,26.566 L24.817,29.196" id="Fill-1279" fill="#AD977F" sketch:type="MSShapeGroup"></path>
            <path d="M44.514,40.259 C44.514,40.259 40.785,38 39.607,37.26 C39.382,37.119 39.183,36.95 39.006,36.752 L32.062,29.196 L28.439,32.526 L36.148,39.61 C36.346,39.787 36.515,39.986 36.656,40.211 C37.395,41.389 39.655,45.119 39.655,45.119 C40.263,46.131 41.66,46.303 42.495,45.468 L44.864,43.099 C45.699,42.264 45.527,40.867 44.514,40.259" id="Fill-1280" fill="#AD977F" sketch:type="MSShapeGroup"></path>
        </g>
    </g>
</svg>