<?xml version="1.0" encoding="UTF-8" standalone="no"?>
<svg width="60px" height="58px" viewBox="0 0 60 58" version="1.1" xmlns="http://www.w3.org/2000/svg" xmlns:xlink="http://www.w3.org/1999/xlink" xmlns:sketch="http://www.bohemiancoding.com/sketch/ns">
    <!-- Generator: Sketch 3.2.2 (9983) - http://www.bohemiancoding.com/sketch -->
    <title>69 - Mixing Plates (Flat)</title>
    <desc>Created with Sketch.</desc>
    <defs></defs>
    <g id="Page-1" stroke="none" stroke-width="1" fill="none" fill-rule="evenodd" sketch:type="MSPage">
        <g id="69---Mixing-Plates-(Flat)" sketch:type="MSLayerGroup">
            <path d="M1,14 L59,14 L59,52 L1,52 L1,14 Z" id="Fill-104" fill="#556080" sketch:type="MSShapeGroup"></path>
            <path d="M24,39 C24,45.075 19.075,50 13,50 C6.925,50 2,45.075 2,39 C2,32.925 6.925,28 13,28 C19.075,28 24,32.925 24,39" id="Fill-105" fill="#464F5D" sketch:type="MSShapeGroup"></path>
            <path d="M58,39 C58,45.075 53.075,50 47,50 C40.925,50 36,45.075 36,39 C36,32.925 40.925,28 47,28 C53.075,28 58,32.925 58,39" id="Fill-106" fill="#464F5D" sketch:type="MSShapeGroup"></path>
            <path d="M25,14 L35,14 L35,52 L25,52 L25,14 Z" id="Fill-107" fill="#ECF0F1" sketch:type="MSShapeGroup"></path>
            <path d="M46,8 C45.448,8 45,7.552 45,7 C45,4.243 47.243,2 50,2 L57,2 C57.551,2 58,1.551 58,1 C58,0.448 58.448,0 59,0 C59.552,0 60,0.448 60,1 C60,2.654 58.654,4 57,4 L50,4 C48.346,4 47,5.346 47,7 C47,7.552 46.552,8 46,8" id="Fill-108" fill="#464F5D" sketch:type="MSShapeGroup"></path>
            <path d="M14,8 C13.448,8 13,7.552 13,7 C13,5.346 11.654,4 10,4 L3,4 C1.346,4 0,2.654 0,1 C0,0.448 0.448,0 1,0 C1.552,0 2,0.448 2,1 C2,1.551 2.449,2 3,2 L10,2 C12.757,2 15,4.243 15,7 C15,7.552 14.552,8 14,8" id="Fill-109" fill="#464F5D" sketch:type="MSShapeGroup"></path>
            <path d="M48,14 L44,14 L44,8.642 C44,7.735 44.735,7 45.642,7 L46.358,7 C47.265,7 48,7.735 48,8.642 L48,14" id="Fill-110" fill="#E4C05C" sketch:type="MSShapeGroup"></path>
            <path d="M44,10 L48,10 L48,12 L44,12 L44,10 Z" id="Fill-111" fill="#7F6E5D" sketch:type="MSShapeGroup"></path>
            <path d="M12,14 L16,14 L16,8.642 C16,7.735 15.265,7 14.358,7 L13.642,7 C12.735,7 12,7.735 12,8.642 L12,14" id="Fill-112" fill="#E4C05C" sketch:type="MSShapeGroup"></path>
            <path d="M12,10 L16,10 L16,12 L12,12 L12,10 Z" id="Fill-113" fill="#7F6E5D" sketch:type="MSShapeGroup"></path>
            <path d="M22,39 C22,43.971 17.971,48 13,48 C8.029,48 4,43.971 4,39 C4,34.029 8.029,30 13,30 C17.971,30 22,34.029 22,39" id="Fill-1078" fill="#8697CB" sketch:type="MSShapeGroup"></path>
            <path d="M56,39 C56,43.971 51.971,48 47,48 C42.029,48 38,43.971 38,39 C38,34.029 42.029,30 47,30 C51.971,30 56,34.029 56,39" id="Fill-1079" fill="#8697CB" sketch:type="MSShapeGroup"></path>
            <path d="M1,52 L59,52 L59,58 L1,58 L1,52 Z" id="Fill-1081" fill="#D1D4D1" sketch:type="MSShapeGroup"></path>
            <path d="M30,43 C29.448,43 29,42.552 29,42 L29,33 C29,32.448 29.448,32 30,32 C30.552,32 31,32.448 31,33 L31,42 C31,42.552 30.552,43 30,43" id="Fill-1082" fill="#D1D4D1" sketch:type="MSShapeGroup"></path>
            <path d="M30,50 C29.448,50 29,49.552 29,49 L29,45 C29,44.448 29.448,44 30,44 C30.552,44 31,44.448 31,45 L31,49 C31,49.552 30.552,50 30,50" id="Fill-1083" fill="#D1D4D1" sketch:type="MSShapeGroup"></path>
            <path d="M17.9,38.011 L21.632,36.466 C21.537,36.143 21.43,35.827 21.301,35.52 L17.606,37.051 C17.735,37.357 17.834,37.678 17.9,38.011" id="Fill-1673" fill="#556080" sketch:type="MSShapeGroup"></path>
            <path d="M11.383,34.291 L9.846,30.579 C9.532,30.697 9.226,30.83 8.93,30.98 L10.474,34.708 C10.76,34.539 11.064,34.4 11.383,34.291" id="Fill-1674" fill="#556080" sketch:type="MSShapeGroup"></path>
            <path d="M8.394,37.051 L4.699,35.52 C4.57,35.827 4.463,36.143 4.368,36.466 L8.1,38.011 C8.166,37.678 8.265,37.357 8.394,37.051" id="Fill-1675" fill="#556080" sketch:type="MSShapeGroup"></path>
            <path d="M9.578,35.371 L6.745,32.537 C6.505,32.77 6.274,33.011 6.061,33.268 L8.919,36.126 C9.113,35.851 9.334,35.601 9.578,35.371" id="Fill-1676" fill="#556080" sketch:type="MSShapeGroup"></path>
            <path d="M17.081,36.126 L19.939,33.268 C19.726,33.011 19.495,32.77 19.256,32.537 L16.422,35.371 C16.666,35.601 16.888,35.851 17.081,36.126" id="Fill-1677" fill="#556080" sketch:type="MSShapeGroup"></path>
            <path d="M8,39 L4,39 C4,39.338 4.022,39.671 4.059,40 L8.101,40 C8.035,39.677 8,39.343 8,39" id="Fill-1678" fill="#556080" sketch:type="MSShapeGroup"></path>
            <path d="M17.07,30.98 C16.774,30.83 16.468,30.697 16.154,30.579 L14.617,34.291 C14.936,34.4 15.24,34.539 15.526,34.708 L17.07,30.98" id="Fill-1679" fill="#556080" sketch:type="MSShapeGroup"></path>
            <path d="M12.5,30.025 L12.5,34.05 C12.667,34.034 12.829,34 13,34 C13.171,34 13.333,34.034 13.5,34.05 L13.5,30.025 C13.333,30.016 13.169,30 13,30 C12.831,30 12.667,30.016 12.5,30.025" id="Fill-1680" fill="#556080" sketch:type="MSShapeGroup"></path>
            <path d="M14.25,43.823 L15.794,47.552 C16.113,47.448 16.423,47.324 16.725,47.186 L15.188,43.476 C14.89,43.622 14.578,43.739 14.25,43.823" id="Fill-1681" fill="#556080" sketch:type="MSShapeGroup"></path>
            <path d="M17.163,41.765 L20.9,43.313 C21.059,43.021 21.2,42.718 21.328,42.408 L17.629,40.876 C17.502,41.189 17.347,41.487 17.163,41.765" id="Fill-1682" fill="#556080" sketch:type="MSShapeGroup"></path>
            <path d="M15.874,43.081 L18.732,45.939 C18.989,45.726 19.23,45.495 19.462,45.255 L16.629,42.422 C16.399,42.666 16.149,42.888 15.874,43.081" id="Fill-1683" fill="#556080" sketch:type="MSShapeGroup"></path>
            <path d="M18,39 C18,39.343 17.965,39.677 17.899,40 L21.941,40 C21.978,39.671 22,39.338 22,39 L18,39" id="Fill-1684" fill="#556080" sketch:type="MSShapeGroup"></path>
            <path d="M12.5,43.95 L12.5,47.975 C12.667,47.984 12.831,48 13,48 C13.169,48 13.333,47.984 13.5,47.975 L13.5,43.95 C13.333,43.966 13.171,44 13,44 C12.829,44 12.667,43.966 12.5,43.95" id="Fill-1685" fill="#556080" sketch:type="MSShapeGroup"></path>
            <path d="M8.371,40.876 L4.673,42.408 C4.8,42.718 4.941,43.021 5.1,43.313 L8.838,41.765 C8.653,41.487 8.498,41.189 8.371,40.876" id="Fill-1686" fill="#556080" sketch:type="MSShapeGroup"></path>
            <path d="M9.371,42.422 L6.538,45.255 C6.77,45.495 7.011,45.726 7.268,45.939 L10.126,43.081 C9.851,42.888 9.601,42.666 9.371,42.422" id="Fill-1687" fill="#556080" sketch:type="MSShapeGroup"></path>
            <path d="M9.275,47.186 C9.578,47.324 9.887,47.448 10.206,47.552 L11.75,43.823 C11.423,43.739 11.11,43.622 10.812,43.476 L9.275,47.186" id="Fill-1688" fill="#556080" sketch:type="MSShapeGroup"></path>
            <path d="M19,39 C19,42.314 16.314,45 13,45 C9.686,45 7,42.314 7,39 C7,35.686 9.686,33 13,33 C16.314,33 19,35.686 19,39" id="Fill-1689" fill="#FFFFFF" sketch:type="MSShapeGroup"></path>
            <path d="M51.9,38.011 L55.632,36.466 C55.537,36.143 55.43,35.827 55.301,35.52 L51.606,37.051 C51.735,37.357 51.834,37.678 51.9,38.011" id="Fill-1690" fill="#556080" sketch:type="MSShapeGroup"></path>
            <path d="M45.383,34.291 L43.846,30.579 C43.532,30.697 43.226,30.83 42.93,30.98 L44.474,34.708 C44.761,34.539 45.064,34.4 45.383,34.291" id="Fill-1691" fill="#556080" sketch:type="MSShapeGroup"></path>
            <path d="M42.394,37.051 L38.699,35.52 C38.57,35.827 38.463,36.143 38.368,36.466 L42.1,38.011 C42.166,37.678 42.265,37.357 42.394,37.051" id="Fill-1692" fill="#556080" sketch:type="MSShapeGroup"></path>
            <path d="M43.578,35.371 L40.745,32.537 C40.505,32.77 40.274,33.011 40.061,33.268 L42.919,36.126 C43.113,35.851 43.334,35.601 43.578,35.371" id="Fill-1693" fill="#556080" sketch:type="MSShapeGroup"></path>
            <path d="M51.081,36.126 L53.939,33.268 C53.726,33.011 53.495,32.77 53.255,32.537 L50.422,35.371 C50.666,35.601 50.888,35.851 51.081,36.126" id="Fill-1694" fill="#556080" sketch:type="MSShapeGroup"></path>
            <path d="M42,39 L38,39 C38,39.338 38.022,39.671 38.059,40 L42.101,40 C42.035,39.677 42,39.343 42,39" id="Fill-1695" fill="#556080" sketch:type="MSShapeGroup"></path>
            <path d="M51.07,30.98 C50.774,30.83 50.468,30.697 50.154,30.579 L48.617,34.291 C48.936,34.4 49.24,34.539 49.526,34.708 L51.07,30.98" id="Fill-1696" fill="#556080" sketch:type="MSShapeGroup"></path>
            <path d="M46.5,30.025 L46.5,34.05 C46.667,34.034 46.829,34 47,34 C47.171,34 47.333,34.034 47.5,34.05 L47.5,30.025 C47.334,30.016 47.169,30 47,30 C46.831,30 46.667,30.016 46.5,30.025" id="Fill-1697" fill="#556080" sketch:type="MSShapeGroup"></path>
            <path d="M48.25,43.823 L49.794,47.552 C50.113,47.448 50.422,47.324 50.725,47.186 L49.188,43.476 C48.89,43.622 48.578,43.739 48.25,43.823" id="Fill-1698" fill="#556080" sketch:type="MSShapeGroup"></path>
            <path d="M51.163,41.765 L54.9,43.313 C55.059,43.021 55.2,42.718 55.328,42.408 L51.629,40.876 C51.502,41.189 51.347,41.487 51.163,41.765" id="Fill-1699" fill="#556080" sketch:type="MSShapeGroup"></path>
            <path d="M49.874,43.081 L52.732,45.939 C52.989,45.726 53.23,45.495 53.463,45.255 L50.629,42.422 C50.399,42.666 50.149,42.888 49.874,43.081" id="Fill-1700" fill="#556080" sketch:type="MSShapeGroup"></path>
            <path d="M52,39 C52,39.343 51.965,39.677 51.899,40 L55.941,40 C55.978,39.671 56,39.338 56,39 L52,39" id="Fill-1701" fill="#556080" sketch:type="MSShapeGroup"></path>
            <path d="M46.5,43.95 L46.5,47.975 C46.667,47.984 46.831,48 47,48 C47.169,48 47.334,47.984 47.5,47.975 L47.5,43.95 C47.333,43.966 47.171,44 47,44 C46.829,44 46.667,43.966 46.5,43.95" id="Fill-1702" fill="#556080" sketch:type="MSShapeGroup"></path>
            <path d="M42.371,40.876 L38.672,42.408 C38.8,42.718 38.941,43.021 39.1,43.313 L42.837,41.765 C42.653,41.487 42.498,41.189 42.371,40.876" id="Fill-1703" fill="#556080" sketch:type="MSShapeGroup"></path>
            <path d="M43.371,42.422 L40.538,45.255 C40.77,45.495 41.011,45.726 41.268,45.939 L44.126,43.081 C43.851,42.888 43.601,42.666 43.371,42.422" id="Fill-1704" fill="#556080" sketch:type="MSShapeGroup"></path>
            <path d="M43.275,47.186 C43.578,47.324 43.887,47.448 44.206,47.552 L45.75,43.823 C45.422,43.739 45.11,43.622 44.812,43.476 L43.275,47.186" id="Fill-1705" fill="#556080" sketch:type="MSShapeGroup"></path>
            <path d="M53,39 C53,42.314 50.314,45 47,45 C43.686,45 41,42.314 41,39 C41,35.686 43.686,33 47,33 C50.314,33 53,35.686 53,39" id="Fill-1706" fill="#FFFFFF" sketch:type="MSShapeGroup"></path>
            <path d="M1,14 L25,14 L25,26 L1,26 L1,14 Z" id="Fill-1707" fill="#D1D4D1" sketch:type="MSShapeGroup"></path>
            <path d="M5,23 L4,22 L4,20 L5,19 L7,19 L8,20 L8,22 L7,23 L5,23" id="Fill-1708" fill="#A5A5A4" sketch:type="MSShapeGroup"></path>
            <path d="M12,23 L11,22 L11,20 L12,19 L14,19 L15,20 L15,22 L14,23 L12,23" id="Fill-1709" fill="#A5A5A4" sketch:type="MSShapeGroup"></path>
            <path d="M19,23 L18,22 L18,20 L19,19 L21,19 L22,20 L22,22 L21,23 L19,23" id="Fill-1710" fill="#A5A5A4" sketch:type="MSShapeGroup"></path>
            <path d="M29,22 L28,21 L28,19 L29,18 L31,18 L32,19 L32,21 L31,22 L29,22" id="Fill-1711" fill="#A5A5A4" sketch:type="MSShapeGroup"></path>
            <path d="M29,29 L28,28 L28,26 L29,25 L31,25 L32,26 L32,28 L31,29 L29,29" id="Fill-1712" fill="#A5A5A4" sketch:type="MSShapeGroup"></path>
            <path d="M5,22 L4,21 L4,19 L5,18 L7,18 L8,19 L8,21 L7,22 L5,22" id="Fill-1713" fill="#FFFFFF" sketch:type="MSShapeGroup"></path>
            <path d="M12,22 L11,21 L11,19 L12,18 L14,18 L15,19 L15,21 L14,22 L12,22" id="Fill-1714" fill="#FFFFFF" sketch:type="MSShapeGroup"></path>
            <path d="M19,22 L18,21 L18,19 L19,18 L21,18 L22,19 L22,21 L21,22 L19,22" id="Fill-1715" fill="#FFFFFF" sketch:type="MSShapeGroup"></path>
            <path d="M35,14 L59,14 L59,26 L35,26 L35,14 Z" id="Fill-1716" fill="#D1D4D1" sketch:type="MSShapeGroup"></path>
            <path d="M28,44 L32,44 L32,45.889 L28,45.889 L28,44 Z" id="Fill-1717" fill="#A5A5A4" sketch:type="MSShapeGroup"></path>
            <path d="M28,42 L32,42 L32,45 L28,45 L28,42 Z" id="Fill-1718" fill="#FFFFFF" sketch:type="MSShapeGroup"></path>
            <path d="M29,28 L28,27 L28,25 L29,24 L31,24 L32,25 L32,27 L31,28 L29,28" id="Fill-1719" fill="#FFFFFF" sketch:type="MSShapeGroup"></path>
            <path d="M29,21 L28,20 L28,18 L29,17 L31,17 L32,18 L32,20 L31,21 L29,21" id="Fill-1720" fill="#FFFFFF" sketch:type="MSShapeGroup"></path>
            <path d="M39,23 L38,22 L38,20 L39,19 L41,19 L42,20 L42,22 L41,23 L39,23" id="Fill-1721" fill="#A5A5A4" sketch:type="MSShapeGroup"></path>
            <path d="M46,23 L45,22 L45,20 L46,19 L48,19 L49,20 L49,22 L48,23 L46,23" id="Fill-1722" fill="#A5A5A4" sketch:type="MSShapeGroup"></path>
            <path d="M53,23 L52,22 L52,20 L53,19 L55,19 L56,20 L56,22 L55,23 L53,23" id="Fill-1723" fill="#A5A5A4" sketch:type="MSShapeGroup"></path>
            <path d="M39,22 L38,21 L38,19 L39,18 L41,18 L42,19 L42,21 L41,22 L39,22" id="Fill-1724" fill="#FFFFFF" sketch:type="MSShapeGroup"></path>
            <path d="M46,22 L45,21 L45,19 L46,18 L48,18 L49,19 L49,21 L48,22 L46,22" id="Fill-1725" fill="#FFFFFF" sketch:type="MSShapeGroup"></path>
            <path d="M53,22 L52,21 L52,19 L53,18 L55,18 L56,19 L56,21 L55,22 L53,22" id="Fill-1726" fill="#FFFFFF" sketch:type="MSShapeGroup"></path>
        </g>
    </g>
</svg>