<?xml version="1.0" encoding="UTF-8" standalone="no"?>
<svg width="58px" height="58px" viewBox="0 0 58 58" version="1.1" xmlns="http://www.w3.org/2000/svg" xmlns:xlink="http://www.w3.org/1999/xlink" xmlns:sketch="http://www.bohemiancoding.com/sketch/ns">
    <!-- Generator: Sketch 3.2.2 (9983) - http://www.bohemiancoding.com/sketch -->
    <title>33 - Oboe (Flat)</title>
    <desc>Created with Sketch.</desc>
    <defs></defs>
    <g id="Page-1" stroke="none" stroke-width="1" fill="none" fill-rule="evenodd" sketch:type="MSPage">
        <g id="33---Oboe-(Flat)" sketch:type="MSLayerGroup">
            <path d="M9.883,55.996 L9.883,55.996 C9.299,56.58 8.354,56.582 7.767,56.002 L1.912,50.207 C1.321,49.622 1.318,48.669 1.906,48.081 C2.49,47.497 3.435,47.494 4.022,48.075 L9.877,53.869 C10.468,54.454 10.471,55.408 9.883,55.996" id="Fill-1436" fill="#35495E" sketch:type="MSShapeGroup"></path>
            <path d="M3.801,52.077 L1,54.879 C0.414,55.464 0.414,56.414 1,57 C1.586,57.586 2.536,57.586 3.121,57 L5.934,54.188 L3.801,52.077" id="Fill-1437" fill="#556080" sketch:type="MSShapeGroup"></path>
            <path d="M56.198,2.198 L55.802,1.802 C54.648,0.648 53.083,0 51.452,0 C50.497,0 49.555,0.222 48.701,0.649 L47.932,1.034 C46.682,1.659 45.681,2.692 45.096,3.962 L40.874,13.126 L38,15.981 L38,17 L37,18 L35.968,18 L33,20.949 L33,22 L32,23 L30.935,23 L28,25.916 L28,27 L27,28 L25.903,28 L23,30.884 L23,32 L22,33 L20.87,33 L18,35.852 L18,37 L17,38 L15.838,38 L13,40.819 L13,42 L12,43 L10.805,43 L4.861,48.905 L9.126,53.126 L45.126,17.126 L54.073,12.908 C55.321,12.32 56.336,11.329 56.953,10.095 L57.351,9.299 C57.778,8.445 58,7.503 58,6.548 C58,4.917 57.352,3.352 56.198,2.198" id="Fill-1438" fill="#556080" sketch:type="MSShapeGroup"></path>
            <path d="M21.242,46.727 C20.986,46.727 20.731,46.63 20.535,46.435 L16.293,42.192 C15.902,41.802 15.902,41.169 16.293,40.778 C16.684,40.388 17.316,40.388 17.707,40.778 L21.242,44.314 L28.313,37.242 L24.778,33.707 C24.388,33.316 24.388,32.684 24.778,32.293 C25.169,31.902 25.802,31.902 26.192,32.293 L30.435,36.535 C30.825,36.926 30.825,37.559 30.435,37.949 L21.949,46.435 C21.754,46.63 21.498,46.727 21.242,46.727" id="Fill-1599" fill="#E4C05C" sketch:type="MSShapeGroup"></path>
            <path d="M25.606,42.364 L25.606,42.364 C25.341,42.364 25.087,42.259 24.899,42.071 L20.657,37.828 C20.267,37.438 20.267,36.805 20.657,36.414 C21.048,36.023 21.681,36.023 22.071,36.414 L25.606,39.95 L32.678,32.879 L29.143,29.343 C28.752,28.952 28.752,28.319 29.143,27.929 C29.533,27.538 30.166,27.538 30.557,27.929 L34.799,32.172 C35.19,32.563 35.19,33.195 34.799,33.586 L26.314,42.071 C26.126,42.259 25.872,42.364 25.606,42.364" id="Fill-1600" fill="#E4C05C" sketch:type="MSShapeGroup"></path>
            <path d="M37,18 L38,17 L38,15 L37,14 L35,14 L34,15 L34,17 L35,18 L37,18 L37,18 Z" id="Fill-1886" fill="#E4C05C" sketch:type="MSShapeGroup"></path>
            <path d="M37,18 L38,17 L38,15 L37,14 L35,14 L34,15 L34,17 L35,18 L37,18 L37,18 Z" id="Stroke-1887" stroke="#E4C05C" stroke-width="2" stroke-linecap="round" stroke-linejoin="round" sketch:type="MSShapeGroup"></path>
            <path d="M32,23 L33,22 L33,20 L32,19 L30,19 L29,20 L29,22 L30,23 L32,23 L32,23 Z" id="Fill-1888" fill="#E4C05C" sketch:type="MSShapeGroup"></path>
            <path d="M32,23 L33,22 L33,20 L32,19 L30,19 L29,20 L29,22 L30,23 L32,23 L32,23 Z" id="Stroke-1889" stroke="#E4C05C" stroke-width="2" stroke-linecap="round" stroke-linejoin="round" sketch:type="MSShapeGroup"></path>
            <path d="M27,28 L28,27 L28,25 L27,24 L25,24 L24,25 L24,27 L25,28 L27,28 L27,28 Z" id="Fill-1890" fill="#E4C05C" sketch:type="MSShapeGroup"></path>
            <path d="M27,28 L28,27 L28,25 L27,24 L25,24 L24,25 L24,27 L25,28 L27,28 L27,28 Z" id="Stroke-1891" stroke="#E4C05C" stroke-width="2" stroke-linecap="round" stroke-linejoin="round" sketch:type="MSShapeGroup"></path>
            <path d="M22,33 L23,32 L23,30 L22,29 L20,29 L19,30 L19,32 L20,33 L22,33 L22,33 Z" id="Fill-1892" fill="#E4C05C" sketch:type="MSShapeGroup"></path>
            <path d="M22,33 L23,32 L23,30 L22,29 L20,29 L19,30 L19,32 L20,33 L22,33 L22,33 Z" id="Stroke-1893" stroke="#E4C05C" stroke-width="2" stroke-linecap="round" stroke-linejoin="round" sketch:type="MSShapeGroup"></path>
            <path d="M17,38 L18,37 L18,35 L17,34 L15,34 L14,35 L14,37 L15,38 L17,38 L17,38 Z" id="Fill-1894" fill="#E4C05C" sketch:type="MSShapeGroup"></path>
            <path d="M17,38 L18,37 L18,35 L17,34 L15,34 L14,35 L14,37 L15,38 L17,38 L17,38 Z" id="Stroke-1895" stroke="#E4C05C" stroke-width="2" stroke-linecap="round" stroke-linejoin="round" sketch:type="MSShapeGroup"></path>
            <path d="M12,43 L13,42 L13,40 L12,39 L10,39 L9,40 L9,42 L10,43 L12,43 L12,43 Z" id="Fill-1896" fill="#E4C05C" sketch:type="MSShapeGroup"></path>
            <path d="M12,43 L13,42 L13,40 L12,39 L10,39 L9,40 L9,42 L10,43 L12,43 L12,43 Z" id="Stroke-1897" stroke="#E4C05C" stroke-width="2" stroke-linecap="round" stroke-linejoin="round" sketch:type="MSShapeGroup"></path>
        </g>
    </g>
</svg>