<?xml version="1.0" encoding="UTF-8" standalone="no"?>
<svg width="52px" height="54px" viewBox="0 0 52 54" version="1.1" xmlns="http://www.w3.org/2000/svg" xmlns:xlink="http://www.w3.org/1999/xlink" xmlns:sketch="http://www.bohemiancoding.com/sketch/ns">
    <!-- Generator: Sketch 3.2.2 (9983) - http://www.bohemiancoding.com/sketch -->
    <title>40 - Pan-Pipe (Flat)</title>
    <desc>Created with Sketch.</desc>
    <defs></defs>
    <g id="Page-1" stroke="none" stroke-width="1" fill="none" fill-rule="evenodd" sketch:type="MSPage">
        <g id="40---Pan-Pipe-(Flat)" sketch:type="MSLayerGroup">
            <path d="M6,7 L6,1.278 C4.358,1.126 3.004,0.955 2,0.77 L2,7 L6,7" id="Fill-1208" fill="#CA9A5D" sketch:type="MSShapeGroup"></path>
            <path d="M2,11 L2,54 L2.043,54 C2.878,51.034 4.21,48.214 6,45.589 L6,11 L2,11" id="Fill-1209" fill="#CA9A5D" sketch:type="MSShapeGroup"></path>
            <path d="M10,7 L10,1.576 C8.533,1.487 7.19,1.388 6,1.278 L6,7 L10,7" id="Fill-1210" fill="#B27F40" sketch:type="MSShapeGroup"></path>
            <path d="M6,11 L6,45.589 C7.151,43.903 8.482,42.294 10,40.785 L10,11 L6,11" id="Fill-1211" fill="#B27F40" sketch:type="MSShapeGroup"></path>
            <path d="M10,11 L10,40.785 C11.218,39.574 12.557,38.428 14,37.349 L14,11 L10,11" id="Fill-1212" fill="#CA9A5D" sketch:type="MSShapeGroup"></path>
            <path d="M14,7 L14,1.774 C12.585,1.717 11.247,1.651 10,1.576 L10,7 L14,7" id="Fill-1213" fill="#CA9A5D" sketch:type="MSShapeGroup"></path>
            <path d="M18,7 L18,1.903 C16.612,1.869 15.275,1.825 14,1.774 L14,7 L18,7" id="Fill-1214" fill="#B27F40" sketch:type="MSShapeGroup"></path>
            <path d="M14,11 L14,37.349 C15.252,36.412 16.586,35.527 18,34.7 L18,11 L14,11" id="Fill-1215" fill="#B27F40" sketch:type="MSShapeGroup"></path>
            <path d="M22,7 L22,1.976 C20.628,1.96 19.293,1.935 18,1.903 L18,7 L22,7" id="Fill-1216" fill="#CA9A5D" sketch:type="MSShapeGroup"></path>
            <path d="M18,11 L18,34.7 C19.27,33.957 20.606,33.263 22,32.615 L22,11 L18,11" id="Fill-1217" fill="#CA9A5D" sketch:type="MSShapeGroup"></path>
            <path d="M26,7 L26,2 C24.64,2 23.304,1.992 22,1.976 L22,7 L26,7" id="Fill-1218" fill="#B27F40" sketch:type="MSShapeGroup"></path>
            <path d="M22,11 L22,32.615 C23.282,32.02 24.616,31.466 26,30.957 L26,11 L22,11" id="Fill-1219" fill="#B27F40" sketch:type="MSShapeGroup"></path>
            <path d="M30,7 L30,1.976 C28.696,1.992 27.36,2 26,2 L26,7 L30,7" id="Fill-1220" fill="#CA9A5D" sketch:type="MSShapeGroup"></path>
            <path d="M26,11 L26,30.957 C27.292,30.482 28.623,30.042 30,29.647 L30,11 L26,11" id="Fill-1221" fill="#CA9A5D" sketch:type="MSShapeGroup"></path>
            <path d="M34,7 L34,1.903 C32.707,1.935 31.372,1.96 30,1.976 L30,7 L34,7" id="Fill-1222" fill="#B27F40" sketch:type="MSShapeGroup"></path>
            <path d="M30,11 L30,29.647 C31.296,29.275 32.631,28.941 34,28.644 L34,11 L30,11" id="Fill-1223" fill="#B27F40" sketch:type="MSShapeGroup"></path>
            <path d="M38,7 L38,1.774 C36.725,1.825 35.388,1.869 34,1.903 L34,7 L38,7" id="Fill-1224" fill="#CA9A5D" sketch:type="MSShapeGroup"></path>
            <path d="M34,11 L34,28.644 C35.3,28.361 36.636,28.118 38,27.906 L38,11 L34,11" id="Fill-1225" fill="#CA9A5D" sketch:type="MSShapeGroup"></path>
            <path d="M42,7 L42,1.576 C40.753,1.651 39.415,1.717 38,1.774 L38,7 L42,7" id="Fill-1226" fill="#B27F40" sketch:type="MSShapeGroup"></path>
            <path d="M38,11 L38,27.906 C39.308,27.703 40.636,27.524 42,27.389 L42,11 L38,11" id="Fill-1227" fill="#B27F40" sketch:type="MSShapeGroup"></path>
            <path d="M46,7 L46,1.278 C44.81,1.388 43.467,1.487 42,1.576 L42,7 L46,7" id="Fill-1228" fill="#CA9A5D" sketch:type="MSShapeGroup"></path>
            <path d="M42,11 L42,27.389 C43.306,27.26 44.644,27.171 46,27.106 L46,11 L42,11" id="Fill-1229" fill="#CA9A5D" sketch:type="MSShapeGroup"></path>
            <path d="M46,11 L46,27.106 C47.313,27.043 48.642,27 50,27 L50,11 L46,11" id="Fill-1230" fill="#B27F40" sketch:type="MSShapeGroup"></path>
            <path d="M50,7 L50,0.77 C48.996,0.955 47.642,1.126 46,1.278 L46,7 L50,7" id="Fill-1231" fill="#B27F40" sketch:type="MSShapeGroup"></path>
            <path d="M0,7 L52,7 L52,11 L0,11 L0,7 Z" id="Fill-1232" fill="#7F6E5D" sketch:type="MSShapeGroup"></path>
        </g>
    </g>
</svg>