<?xml version="1.0" encoding="UTF-8" standalone="no"?>
<svg width="58px" height="58px" viewBox="0 0 58 58" version="1.1" xmlns="http://www.w3.org/2000/svg" xmlns:xlink="http://www.w3.org/1999/xlink" xmlns:sketch="http://www.bohemiancoding.com/sketch/ns">
    <!-- Generator: Sketch 3.2.2 (9983) - http://www.bohemiancoding.com/sketch -->
    <title>32 - Piccollo (Flat)</title>
    <desc>Created with Sketch.</desc>
    <defs></defs>
    <g id="Page-1" stroke="none" stroke-width="1" fill="none" fill-rule="evenodd" sketch:type="MSPage">
        <g id="32---Piccollo-(Flat)" sketch:type="MSLayerGroup">
            <path d="M10.343,53.314 L4.686,47.657 L10.343,42 L16,47.657 L10.343,53.314" id="Fill-1439" fill="#556080" sketch:type="MSShapeGroup"></path>
            <path d="M5.393,48.364 L0,53.757 L4.243,58 L9.636,52.607 L5.393,48.364" id="Fill-1440" fill="#35495E" sketch:type="MSShapeGroup"></path>
            <path d="M25,36 L25,34 L26,33 L28,33 L28.621,33.621 L30.621,31.621 L30,31 L30,29 L31,28 L33,28 L33.621,28.621 L35.621,26.621 L35,26 L35,24 L36,23 L38,23 L38.621,23.621 L40.621,21.621 L40,21 L40,19 L41,18 L43,18 L43.621,18.621 L45.621,16.621 L45,16 L45,14 L46,13 L48,13 L48.621,13.621 L56.888,5.354 C57.502,4.74 57.502,3.745 56.888,3.131 L54.869,1.112 C54.255,0.498 53.26,0.498 52.646,1.112 L11.05,42.707 L15.293,46.95 L25.621,36.621 L25,36" id="Fill-1441" fill="#35495E" sketch:type="MSShapeGroup"></path>
            <path d="M20.5,45.5 C20.244,45.5 19.988,45.402 19.793,45.207 L12.793,38.207 C12.402,37.816 12.402,37.184 12.793,36.793 C13.184,36.402 13.816,36.402 14.207,36.793 L21.207,43.793 C21.598,44.184 21.598,44.816 21.207,45.207 C21.012,45.402 20.756,45.5 20.5,45.5" id="Fill-1442" fill="#556080" sketch:type="MSShapeGroup"></path>
            <path d="M23.5,42.5 C23.244,42.5 22.988,42.402 22.793,42.207 L15.793,35.207 C15.402,34.816 15.402,34.184 15.793,33.793 C16.184,33.402 16.816,33.402 17.207,33.793 L24.207,40.793 C24.598,41.184 24.598,41.816 24.207,42.207 C24.012,42.402 23.756,42.5 23.5,42.5" id="Fill-1443" fill="#556080" sketch:type="MSShapeGroup"></path>
            <path d="M54.002,13.001 C53.234,13.001 52.466,12.709 51.881,12.125 L49.053,9.295 C48.662,8.904 48.662,8.271 49.053,7.881 C49.443,7.49 50.076,7.49 50.467,7.881 L53.295,10.71 C53.687,11.1 54.32,11.099 54.71,10.709 C55.1,10.32 55.1,9.685 54.709,9.295 L51.881,6.467 C51.49,6.076 51.49,5.443 51.881,5.053 C52.271,4.662 52.904,4.662 53.295,5.053 L56.124,7.881 C57.293,9.051 57.293,10.954 56.125,12.124 C55.539,12.708 54.771,13.001 54.002,13.001" id="Fill-1444" fill="#556080" sketch:type="MSShapeGroup"></path>
            <path d="M42.707,14.293 L38.707,10.293 C38.316,9.902 37.684,9.902 37.293,10.293 L22.293,25.293 C21.902,25.684 21.902,26.316 22.293,26.707 L26.293,30.707 C26.488,30.902 26.744,31 27,31 C27.256,31 27.512,30.902 27.707,30.707 C28.098,30.316 28.098,29.684 27.707,29.293 L24.414,26 L38,12.414 L41.293,15.707 C41.488,15.902 41.744,16 42,16 C42.256,16 42.512,15.902 42.707,15.707 C43.098,15.316 43.098,14.684 42.707,14.293" id="Fill-1450" fill="#8697CB" sketch:type="MSShapeGroup"></path>
            <path d="M48,17 L49,16 L49,14 L48,13 L46,13 L45,14 L45,16 L46,17 L48,17" id="Fill-1593" fill="#E4C05C" sketch:type="MSShapeGroup"></path>
            <path d="M43,22 L44,21 L44,19 L43,18 L41,18 L40,19 L40,21 L41,22 L43,22" id="Fill-1594" fill="#E4C05C" sketch:type="MSShapeGroup"></path>
            <path d="M38,27 L39,26 L39,24 L38,23 L36,23 L35,24 L35,26 L36,27 L38,27" id="Fill-1595" fill="#E4C05C" sketch:type="MSShapeGroup"></path>
            <path d="M33,32 L34,31 L34,29 L33,28 L31,28 L30,29 L30,31 L31,32 L33,32" id="Fill-1596" fill="#E4C05C" sketch:type="MSShapeGroup"></path>
            <path d="M28,37 L29,36 L29,34 L28,33 L26,33 L25,34 L25,36 L26,37 L28,37" id="Fill-1597" fill="#E4C05C" sketch:type="MSShapeGroup"></path>
        </g>
    </g>
</svg>