<?xml version="1.0" encoding="UTF-8" standalone="no"?>
<svg width="36px" height="60px" viewBox="0 0 36 60" version="1.1" xmlns="http://www.w3.org/2000/svg" xmlns:xlink="http://www.w3.org/1999/xlink" xmlns:sketch="http://www.bohemiancoding.com/sketch/ns">
    <!-- Generator: Sketch 3.2.2 (9983) - http://www.bohemiancoding.com/sketch -->
    <title>3 - Quaver (Flat)</title>
    <desc>Created with Sketch.</desc>
    <defs></defs>
    <g id="Page-1" stroke="none" stroke-width="1" fill="none" fill-rule="evenodd" sketch:type="MSPage">
        <g id="3---Quaver-(Flat)" sketch:type="MSLayerGroup" fill="#F3D55B">
            <path d="M28.41,11.097 C21.747,7.926 20.216,2.01 19.996,0.982 C19.993,0.798 19.929,0.635 19.839,0.488 C19.834,0.48 19.828,0.473 19.823,0.464 C19.765,0.376 19.7,0.299 19.618,0.233 C19.589,0.208 19.556,0.191 19.525,0.17 C19.46,0.128 19.396,0.09 19.322,0.065 C19.259,0.042 19.192,0.034 19.124,0.025 C19.081,0.02 19.044,0 19,0 C18.984,0 18.97,0.008 18.954,0.009 C18.934,0.01 18.916,0.002 18.896,0.004 C18.817,0.011 18.748,0.042 18.677,0.065 C18.651,0.074 18.622,0.076 18.598,0.087 C18.235,0.239 17.981,0.588 17.981,1 L17.981,17 C17.981,17.034 17.997,17.063 18,17.097 L18,40 L10,40 C4.486,40 0,44.486 0,50 C0,55.514 4.486,60 10,60 C15.514,60 20,55.514 20,50 L20,18.067 C27.414,18.752 34.148,26.564 34.218,26.646 C34.411,26.875 34.692,27 34.981,27 C35.084,27 35.188,26.983 35.291,26.95 C35.677,26.824 35.948,26.478 35.977,26.072 C36.011,25.624 36.683,15.033 28.41,11.097" id="Fill-1574" sketch:type="MSShapeGroup"></path>
        </g>
    </g>
</svg>