<?xml version="1.0" encoding="UTF-8" standalone="no"?>
<svg width="51px" height="55px" viewBox="0 0 51 55" version="1.1" xmlns="http://www.w3.org/2000/svg" xmlns:xlink="http://www.w3.org/1999/xlink" xmlns:sketch="http://www.bohemiancoding.com/sketch/ns">
    <!-- Generator: Sketch 3.2.2 (9983) - http://www.bohemiancoding.com/sketch -->
    <title>4 - Re Musical Note (Flat)</title>
    <desc>Created with Sketch.</desc>
    <defs></defs>
    <g id="Page-1" stroke="none" stroke-width="1" fill="none" fill-rule="evenodd" sketch:type="MSPage">
        <g id="4---Re-Musical-Note-(Flat)" sketch:type="MSLayerGroup" fill="#0096E6">
            <path d="M50.66,1.055 C50.443,0.864 50.157,0.779 49.872,0.813 L18.872,4.814 C18.373,4.878 18,5.303 18,5.806 L18,40.429 C16.175,38.234 13.273,36.806 10,36.806 C4.486,36.806 0,40.843 0,45.806 C0,50.769 4.486,54.806 10,54.806 C15.514,54.806 20,50.769 20,45.806 L20,12.685 L49,8.943 L49,31.429 C47.175,29.234 44.273,27.806 41,27.806 C35.486,27.806 31,31.843 31,36.806 C31,41.769 35.486,45.806 41,45.806 C46.514,45.806 51,41.769 51,36.806 L51,1.806 C51,1.519 50.876,1.244 50.66,1.055" id="Fill-1572" sketch:type="MSShapeGroup"></path>
        </g>
    </g>
</svg>