<?xml version="1.0" encoding="UTF-8" standalone="no"?>
<svg width="58px" height="57px" viewBox="0 0 58 57" version="1.1" xmlns="http://www.w3.org/2000/svg" xmlns:xlink="http://www.w3.org/1999/xlink" xmlns:sketch="http://www.bohemiancoding.com/sketch/ns">
    <!-- Generator: Sketch 3.2.2 (9983) - http://www.bohemiancoding.com/sketch -->
    <title>1 - Records (Flat)</title>
    <desc>Created with Sketch.</desc>
    <defs></defs>
    <g id="Page-1" stroke="none" stroke-width="1" fill="none" fill-rule="evenodd" sketch:type="MSPage">
        <g id="1---Records-(Flat)" sketch:type="MSLayerGroup" transform="translate(-1.000000, 0.000000)">
            <path d="M52.455,57 L7.512,57 C7.207,57 6.945,56.781 6.892,56.48 L1.001,15.098 C0.992,15.047 1.032,15 1.084,15 L58.884,15 C58.936,15 58.976,15.047 58.967,15.098 L53.076,56.48 C53.023,56.781 52.761,57 52.455,57" id="Fill-1580" fill="#F0C419" sketch:type="MSShapeGroup"></path>
            <path d="M56.384,15 L56.928,10.56 C56.958,10.26 56.723,10 56.421,10 L3.547,10 C3.245,10 3.01,10.26 3.04,10.56 L3.584,15 L56.384,15" id="Fill-1581" fill="#65DDB9" sketch:type="MSShapeGroup"></path>
            <path d="M52.984,10 L52.984,5.49 C52.984,5.22 52.764,5 52.494,5 L7.474,5 C7.203,5 6.984,5.22 6.984,5.49 L6.984,10 L52.984,10" id="Fill-1582" fill="#FB7B76" sketch:type="MSShapeGroup"></path>
            <path d="M48.984,5 L48.984,0.49 C48.984,0.219 48.764,0 48.494,0 L11.474,0 C11.204,0 10.984,0.219 10.984,0.49 L10.984,5 L48.984,5" id="Fill-1583" fill="#2FA8CC" sketch:type="MSShapeGroup"></path>
            <path d="M48.984,36 C48.984,44.837 40.253,52 29.484,52 C18.714,52 9.984,44.837 9.984,36 C9.984,27.163 18.714,20 29.484,20 C40.253,20 48.984,27.163 48.984,36" id="Fill-1584" fill="#556080" sketch:type="MSShapeGroup"></path>
            <path d="M19.125,28.249 C18.814,28.249 18.509,28.105 18.313,27.835 C17.99,27.387 18.091,26.762 18.538,26.438 C21.706,24.149 25.491,22.939 29.484,22.939 C30.037,22.939 30.484,23.387 30.484,23.939 C30.484,24.492 30.037,24.939 29.484,24.939 C25.914,24.939 22.534,26.019 19.71,28.06 C19.532,28.187 19.328,28.249 19.125,28.249" id="Fill-1585" fill="#8697CB" sketch:type="MSShapeGroup"></path>
            <path d="M21.56,31.224 C21.249,31.224 20.944,31.08 20.748,30.81 C20.425,30.362 20.525,29.737 20.973,29.413 C23.436,27.632 26.379,26.69 29.484,26.69 C30.037,26.69 30.484,27.138 30.484,27.69 C30.484,28.243 30.037,28.69 29.484,28.69 C26.803,28.69 24.265,29.501 22.145,31.034 C21.968,31.162 21.763,31.224 21.56,31.224" id="Fill-1586" fill="#8697CB" sketch:type="MSShapeGroup"></path>
            <path d="M23.971,34.215 C23.662,34.215 23.357,34.072 23.162,33.804 C22.836,33.357 22.935,32.732 23.381,32.407 C25.146,31.12 27.256,30.44 29.484,30.44 C30.037,30.44 30.484,30.888 30.484,31.44 C30.484,31.993 30.037,32.44 29.484,32.44 C27.683,32.44 25.979,32.987 24.559,34.022 C24.381,34.152 24.175,34.215 23.971,34.215" id="Fill-1587" fill="#8697CB" sketch:type="MSShapeGroup"></path>
            <path d="M29.574,49.249 C29.021,49.249 28.574,48.802 28.574,48.249 C28.574,47.696 29.021,47.249 29.574,47.249 C33.145,47.249 36.524,46.17 39.349,44.128 C39.795,43.804 40.422,43.904 40.745,44.353 C41.068,44.8 40.968,45.425 40.521,45.749 C37.354,48.039 33.568,49.249 29.574,49.249" id="Fill-1588" fill="#8697CB" sketch:type="MSShapeGroup"></path>
            <path d="M29.574,45.498 C29.021,45.498 28.574,45.051 28.574,44.498 C28.574,43.945 29.021,43.498 29.574,43.498 C32.257,43.498 34.795,42.688 36.914,41.153 C37.36,40.83 37.985,40.93 38.311,41.378 C38.634,41.825 38.534,42.45 38.086,42.774 C35.624,44.556 32.681,45.498 29.574,45.498" id="Fill-1589" fill="#8697CB" sketch:type="MSShapeGroup"></path>
            <path d="M29.574,41.747 C29.021,41.747 28.574,41.3 28.574,40.747 C28.574,40.194 29.021,39.747 29.574,39.747 C31.378,39.747 33.081,39.2 34.499,38.165 C34.947,37.839 35.572,37.939 35.896,38.383 C36.223,38.829 36.124,39.455 35.679,39.78 C33.915,41.067 31.805,41.747 29.574,41.747" id="Fill-1590" fill="#8697CB" sketch:type="MSShapeGroup"></path>
            <path d="M32.207,35.985 C32.207,36.917 31.165,37.673 29.88,37.673 C28.595,37.673 27.553,36.917 27.553,35.985 C27.553,35.052 28.595,34.296 29.88,34.296 C31.165,34.296 32.207,35.052 32.207,35.985" id="Fill-1591" fill="#8697CB" sketch:type="MSShapeGroup"></path>
        </g>
    </g>
</svg>