<?xml version="1.0" encoding="UTF-8" standalone="no"?>
<svg width="58px" height="58px" viewBox="0 0 58 58" version="1.1" xmlns="http://www.w3.org/2000/svg" xmlns:xlink="http://www.w3.org/1999/xlink" xmlns:sketch="http://www.bohemiancoding.com/sketch/ns">
    <!-- Generator: Sketch 3.2.2 (9983) - http://www.bohemiancoding.com/sketch -->
    <title>22 - Rockstar Guitar (Flat)</title>
    <desc>Created with Sketch.</desc>
    <defs></defs>
    <g id="Page-1" stroke="none" stroke-width="1" fill="none" fill-rule="evenodd" sketch:type="MSPage">
        <g id="22---Rockstar-Guitar-(Flat)" sketch:type="MSLayerGroup">
            <path d="M42,7 L41,6 L41,4 L42,3 L44,3 L45,4 L45,6 L44,7 L42,7" id="Fill-1361" fill="#E4C05C" sketch:type="MSShapeGroup"></path>
            <path d="M48,4 L47,3 L47,1 L48,0 L50,0 L51,1 L51,3 L50,4 L48,4" id="Fill-1363" fill="#E4C05C" sketch:type="MSShapeGroup"></path>
            <path d="M41.074,9.241 L23.926,29.213 L26.958,34.667 L45.304,13.496 C42.884,13.689 41.005,11.502 41.074,9.241" id="Fill-1364" fill="#7F6E5D" sketch:type="MSShapeGroup"></path>
            <path d="M57.674,1.531 C57.39,0.677 56.685,-0.138 55,0.02 C55,0.02 53.322,0.163 50.971,0.971 L51,1 L51,3 L50,4 L48,4 L47,3 L47,2.796 C46.338,3.182 45.669,3.626 45,4.126 L45,6 L44,7 L42,7 L41.94,6.94 C39.519,9.918 42.445,14.567 46.208,13.331 C46.684,13.175 47.167,12.941 47.641,12.605 C48.3,12.138 48.767,11.445 49.011,10.675 C49.266,9.872 49.437,8.701 50.63,7.591 C51.232,7.031 52.517,6.558 53.506,6.153 C54.278,5.837 55.699,6.023 56.898,4.726 C57.692,3.868 58.042,2.64 57.674,1.531" id="Fill-1368" fill="#5E5F62" sketch:type="MSShapeGroup"></path>
            <path d="M41.074,9.241 L23.926,29.213 L26.958,34.667 L45.304,13.496 C42.884,13.689 41.005,11.502 41.074,9.241" id="Fill-1364" fill="#7F6E5D" sketch:type="MSShapeGroup"></path>
            <path d="M26.958,34.667 L23.926,29.213 L26.671,26.075 L24,23.55 L0,36 L2.589,50 C6.696,51.016 9.888,53.917 11,58 L24.797,58 L34,33 L30.953,30.121 L26.958,34.667" id="Fill-1369" fill="#5E5F62" sketch:type="MSShapeGroup"></path>
            <path d="M26.958,34.667 L23.926,29.213 L26.671,26.075 L24,23.55 L0,36 L2.589,50 C6.696,51.016 9.888,53.917 11,58 L24.797,58 L34,33 L30.953,30.121 L26.958,34.667" id="Fill-1369" fill="#5E5F62" sketch:type="MSShapeGroup"></path>
            <path d="M12.798,46.202 C12.544,46.202 12.291,46.106 12.096,45.914 C11.702,45.527 11.698,44.894 12.086,44.5 L20.167,36.298 C20.554,35.905 21.187,35.899 21.581,36.288 C21.975,36.675 21.979,37.309 21.591,37.702 L13.51,45.904 C13.315,46.102 13.057,46.202 12.798,46.202" id="Fill-1370" fill="#E4C05C" sketch:type="MSShapeGroup"></path>
            <path d="M10.677,44.081 C10.425,44.081 10.174,43.986 9.979,43.798 C9.583,43.412 9.575,42.779 9.96,42.384 L19.041,33.06 C19.428,32.663 20.061,32.659 20.455,33.041 C20.852,33.427 20.859,34.06 20.475,34.455 L11.394,43.778 C11.197,43.981 10.937,44.081 10.677,44.081" id="Fill-1371" fill="#E4C05C" sketch:type="MSShapeGroup"></path>
            <path d="M14.919,48.323 C14.668,48.323 14.417,48.23 14.223,48.041 C13.826,47.656 13.816,47.023 14.201,46.627 L22.282,38.304 C22.668,37.907 23.301,37.898 23.696,38.282 C24.093,38.667 24.103,39.301 23.718,39.696 L15.637,48.019 C15.44,48.222 15.18,48.323 14.919,48.323" id="Fill-1372" fill="#E4C05C" sketch:type="MSShapeGroup"></path>
            <path d="M41.157,19.3 C40.904,19.3 40.65,19.204 40.456,19.013 L36.204,14.826 C35.811,14.438 35.806,13.806 36.192,13.412 C36.58,13.018 37.213,13.013 37.606,13.4 L41.858,17.587 C42.252,17.975 42.257,18.607 41.87,19.001 C41.674,19.2 41.416,19.3 41.157,19.3" id="Fill-1365" fill="#7F5B53" sketch:type="MSShapeGroup"></path>
            <path d="M37.068,23.762 C36.813,23.762 36.557,23.664 36.361,23.469 L32.286,19.393 C31.896,19.002 31.896,18.369 32.286,17.978 C32.677,17.588 33.31,17.588 33.7,17.978 L37.775,22.055 C38.166,22.445 38.166,23.078 37.775,23.469 C37.58,23.664 37.324,23.762 37.068,23.762" id="Fill-1366" fill="#7F5B53" sketch:type="MSShapeGroup"></path>
            <path d="M33.239,28.473 C32.982,28.473 32.724,28.373 32.527,28.175 L28.368,23.961 C27.981,23.568 27.984,22.935 28.378,22.547 C28.77,22.159 29.402,22.163 29.792,22.557 L33.951,26.77 C34.339,27.163 34.335,27.797 33.941,28.185 C33.747,28.377 33.493,28.473 33.239,28.473" id="Fill-1367" fill="#7F5B53" sketch:type="MSShapeGroup"></path>
            <path d="M14.211,52.504 L5.725,44.018 L8.555,40.96 L17.04,49.445 L14.211,52.504" id="Fill-1373" fill="#CBB292" sketch:type="MSShapeGroup"></path>
        </g>
    </g>
</svg>