<?xml version="1.0" encoding="UTF-8" standalone="no"?>
<svg width="57px" height="58px" viewBox="0 0 57 58" version="1.1" xmlns="http://www.w3.org/2000/svg" xmlns:xlink="http://www.w3.org/1999/xlink" xmlns:sketch="http://www.bohemiancoding.com/sketch/ns">
    <!-- Generator: Sketch 3.2.2 (9983) - http://www.bohemiancoding.com/sketch -->
    <title>31 - Saxophone (Flat)</title>
    <desc>Created with Sketch.</desc>
    <defs></defs>
    <g id="Page-1" stroke="none" stroke-width="1" fill="none" fill-rule="evenodd" sketch:type="MSPage">
        <g id="31---Saxophone-(Flat)" sketch:type="MSLayerGroup" transform="translate(0.000000, -1.000000)">
            <path d="M56.251,41.436 C56.493,41.195 56.675,40.905 56.8,40.574 C56.675,40.905 56.493,41.195 56.251,41.436" id="Fill-195" fill="#F9C73D" sketch:type="MSShapeGroup"></path>
            <path d="M45.044,37.229 C42.783,34.969 41.201,32.497 40.495,30.384 C40.503,30.406 40.508,30.427 40.515,30.449 C41.407,33.049 42,35.742 42,38.491 L42,45.828 C42,47.917 40.473,49.783 38.393,49.981 C36.007,50.209 34,48.339 34,46 L34,44 L33,44 L32,43 L32,41 L33,40 L34,40 L34,37 L33,37 L32,36 L32,34 L33,33 L34,33 L34,30 L33,30 L32,29 L32,27 L33,26 L34,26 L34,23 L33,23 L32,22 L32,20 L33,19 L34,19 L34,16 L33,16 L32,15 L32,13 L33,12 L34,12 C34,8.9 32.824,6.074 30.895,3.945 C27.599,0.308 21.967,0.027 18.197,3.169 C16.777,4.352 14.988,5 13.141,5 L12,5 L12,11 L13.473,11 C15.117,11 16.719,10.487 18.058,9.533 L20.918,7.494 C23.622,5.566 27.586,7.107 27.967,10.406 C27.989,10.597 28,10.791 28,10.987 L28,45.57 C28,52.722 33.592,58.859 40.743,58.997 C48.283,59.143 54.395,52.867 53.98,45.27 C53.9,43.805 54.75,42.53 55.951,41.688 C56.058,41.613 56.158,41.529 56.251,41.437 C54.318,43.369 49.3,41.485 45.044,37.229" id="Fill-196" fill="#F9C73D" sketch:type="MSShapeGroup"></path>
            <path d="M45,47 L41,47 C39.346,47 38,45.654 38,44 C38,42.346 39.346,41 41,41 L45,41 C45.553,41 46,41.447 46,42 C46,42.553 45.553,43 45,43 L41,43 C40.448,43 40,43.448 40,44 C40,44.552 40.448,45 41,45 L45,45 C45.553,45 46,45.447 46,46 C46,46.553 45.553,47 45,47" id="Fill-1445" fill="#C78829" sketch:type="MSShapeGroup"></path>
            <path d="M30,34 L26,34 C25.447,34 25,33.553 25,33 C25,32.447 25.447,32 26,32 L30,32 C30.553,32 31,32.447 31,33 C31,33.553 30.553,34 30,34" id="Fill-1446" fill="#C78829" sketch:type="MSShapeGroup"></path>
            <path d="M30,38 L26,38 C25.447,38 25,37.553 25,37 C25,36.447 25.447,36 26,36 L30,36 C30.553,36 31,36.447 31,37 C31,37.553 30.553,38 30,38" id="Fill-1447" fill="#C78829" sketch:type="MSShapeGroup"></path>
            <path d="M30,20 L26,20 C25.447,20 25,19.553 25,19 C25,18.447 25.447,18 26,18 L30,18 C30.553,18 31,18.447 31,19 C31,19.553 30.553,20 30,20" id="Fill-1448" fill="#C78829" sketch:type="MSShapeGroup"></path>
            <path d="M30,24 L26,24 C25.447,24 25,23.553 25,23 C25,22.447 25.447,22 26,22 L30,22 C30.553,22 31,22.447 31,23 C31,23.553 30.553,24 30,24" id="Fill-1449" fill="#C78829" sketch:type="MSShapeGroup"></path>
            <path d="M52.044,30.229 C56.301,34.486 58.184,39.503 56.251,41.436 C54.318,43.369 49.301,41.486 45.044,37.229 C40.787,32.972 38.903,27.955 40.836,26.022 C42.77,24.089 47.787,25.972 52.044,30.229" id="Fill-1451" fill="#DDB245" sketch:type="MSShapeGroup"></path>
            <path d="M9,4 L12,4 L12,12 L9,12 L9,4 Z" id="Fill-1452" fill="#C78829" sketch:type="MSShapeGroup"></path>
            <path d="M5,5 L9,5 L9,11 L5,11 L5,5 Z" id="Fill-1453" fill="#AF8066" sketch:type="MSShapeGroup"></path>
            <path d="M5,11 L0,11 L0,8 L5,5 L5,11" id="Fill-1454" fill="#F9C73D" sketch:type="MSShapeGroup"></path>
            <path d="M35,16 L36,15 L36,13 L35,12 L33,12 L32,13 L32,15 L33,16 L35,16" id="Fill-1455" fill="#DDB245" sketch:type="MSShapeGroup"></path>
            <path d="M35,23 L36,22 L36,20 L35,19 L33,19 L32,20 L32,22 L33,23 L35,23" id="Fill-1456" fill="#DDB245" sketch:type="MSShapeGroup"></path>
            <path d="M35,30 L36,29 L36,27 L35,26 L33,26 L32,27 L32,29 L33,30 L35,30" id="Fill-1457" fill="#DDB245" sketch:type="MSShapeGroup"></path>
            <path d="M35,37 L36,36 L36,34 L35,33 L33,33 L32,34 L32,36 L33,37 L35,37" id="Fill-1458" fill="#DDB245" sketch:type="MSShapeGroup"></path>
            <path d="M35,44 L36,43 L36,41 L35,40 L33,40 L32,41 L32,43 L33,44 L35,44" id="Fill-1459" fill="#DDB245" sketch:type="MSShapeGroup"></path>
        </g>
    </g>
</svg>