<?xml version="1.0" encoding="UTF-8" standalone="no"?>
<svg width="56px" height="56px" viewBox="0 0 56 56" version="1.1" xmlns="http://www.w3.org/2000/svg" xmlns:xlink="http://www.w3.org/1999/xlink" xmlns:sketch="http://www.bohemiancoding.com/sketch/ns">
    <!-- Generator: Sketch 3.2.2 (9983) - http://www.bohemiancoding.com/sketch -->
    <title>54 - Show Microphone (Flat)</title>
    <desc>Created with Sketch.</desc>
    <defs></defs>
    <g id="Page-1" stroke="none" stroke-width="1" fill="none" fill-rule="evenodd" sketch:type="MSPage">
        <g id="54---Show-Microphone-(Flat)" sketch:type="MSLayerGroup" transform="translate(0.000000, -1.000000)">
            <path d="M55.014,49.214 L28.015,19.551 C27.35,21.71 26.169,23.745 24.46,25.454 C22.493,27.421 20.094,28.681 17.571,29.265 L48.214,56.014 C49.857,57.411 52.298,57.313 53.823,55.787 L54.787,54.823 C56.312,53.298 56.411,50.857 55.014,49.214" id="Fill-222" fill="#464F5D" sketch:type="MSShapeGroup"></path>
            <path d="M25.378,6.207 C25.58,11.388 23.724,16.634 19.768,20.59 C15.715,24.643 10.307,26.493 5.003,26.182 C10.632,31.025 19.124,30.791 24.46,25.454 C29.729,20.185 30.033,11.835 25.378,6.207" id="Fill-223" fill="#D1D4D1" sketch:type="MSShapeGroup"></path>
            <path d="M25.378,6.207 C25.09,5.858 24.787,5.517 24.46,5.191 C18.865,-0.405 9.792,-0.405 4.197,5.191 C-1.399,10.786 -1.399,19.859 4.197,25.454 C4.456,25.713 4.729,25.948 5.003,26.182 C10.307,26.493 15.715,24.643 19.768,20.59 C23.724,16.634 25.58,11.388 25.378,6.207" id="Fill-224" fill="#ECF0F1" sketch:type="MSShapeGroup"></path>
            <path d="M7,7 C7,6.448 6.552,6 6,6 C5.448,6 5,6.448 5,7 C5,7.552 5.448,8 6,8 C6.552,8 7,7.552 7,7" id="Fill-348" fill="#A5A5A4" sketch:type="MSShapeGroup"></path>
            <path d="M10,4 C10,3.448 9.552,3 9,3 C8.448,3 8,3.448 8,4 C8,4.552 8.448,5 9,5 C9.552,5 10,4.552 10,4" id="Fill-349" fill="#A5A5A4" sketch:type="MSShapeGroup"></path>
            <path d="M4,10 C4,9.448 3.552,9 3,9 C2.448,9 2,9.448 2,10 C2,10.552 2.448,11 3,11 C3.552,11 4,10.552 4,10" id="Fill-350" fill="#A5A5A4" sketch:type="MSShapeGroup"></path>
            <path d="M10,7 C9.448,7 9,7.448 9,8 C9,8.552 9.448,9 10,9 C10.552,9 11,8.552 11,8 C11,7.448 10.552,7 10,7" id="Fill-351" fill="#A5A5A4" sketch:type="MSShapeGroup"></path>
            <path d="M13,4 C12.448,4 12,4.448 12,5 C12,5.552 12.448,6 13,6 C13.552,6 14,5.552 14,5 C14,4.448 13.552,4 13,4" id="Fill-352" fill="#A5A5A4" sketch:type="MSShapeGroup"></path>
            <path d="M16,1 C15.448,1 15,1.448 15,2 C15,2.552 15.448,3 16,3 C16.552,3 17,2.552 17,2 C17,1.448 16.552,1 16,1" id="Fill-353" fill="#A5A5A4" sketch:type="MSShapeGroup"></path>
            <path d="M16,7 C15.448,7 15,7.448 15,8 C15,8.552 15.448,9 16,9 C16.552,9 17,8.552 17,8 C17,7.448 16.552,7 16,7" id="Fill-354" fill="#A5A5A4" sketch:type="MSShapeGroup"></path>
            <path d="M19,4 C18.448,4 18,4.448 18,5 C18,5.552 18.448,6 19,6 C19.552,6 20,5.552 20,5 C20,4.448 19.552,4 19,4" id="Fill-355" fill="#A5A5A4" sketch:type="MSShapeGroup"></path>
            <path d="M22,9 C22.552,9 23,8.552 23,8 C23,7.448 22.552,7 22,7 C21.448,7 21,7.448 21,8 C21,8.552 21.448,9 22,9" id="Fill-356" fill="#A5A5A4" sketch:type="MSShapeGroup"></path>
            <path d="M7,10 C6.448,10 6,10.448 6,11 C6,11.552 6.448,12 7,12 C7.552,12 8,11.552 8,11 C8,10.448 7.552,10 7,10" id="Fill-357" fill="#A5A5A4" sketch:type="MSShapeGroup"></path>
            <path d="M13,10 C12.448,10 12,10.448 12,11 C12,11.552 12.448,12 13,12 C13.552,12 14,11.552 14,11 C14,10.448 13.552,10 13,10" id="Fill-358" fill="#A5A5A4" sketch:type="MSShapeGroup"></path>
            <path d="M19,10 C18.448,10 18,10.448 18,11 C18,11.552 18.448,12 19,12 C19.552,12 20,11.552 20,11 C20,10.448 19.552,10 19,10" id="Fill-359" fill="#A5A5A4" sketch:type="MSShapeGroup"></path>
            <path d="M4,13 C3.448,13 3,13.448 3,14 C3,14.552 3.448,15 4,15 C4.552,15 5,14.552 5,14 C5,13.448 4.552,13 4,13" id="Fill-360" fill="#A5A5A4" sketch:type="MSShapeGroup"></path>
            <path d="M4,19 C3.448,19 3,19.448 3,20 C3,20.552 3.448,21 4,21 C4.552,21 5,20.552 5,20 C5,19.448 4.552,19 4,19" id="Fill-361" fill="#A5A5A4" sketch:type="MSShapeGroup"></path>
            <path d="M7,16 C6.448,16 6,16.448 6,17 C6,17.552 6.448,18 7,18 C7.552,18 8,17.552 8,17 C8,16.448 7.552,16 7,16" id="Fill-362" fill="#A5A5A4" sketch:type="MSShapeGroup"></path>
            <path d="M10,13 C9.448,13 9,13.448 9,14 C9,14.552 9.448,15 10,15 C10.552,15 11,14.552 11,14 C11,13.448 10.552,13 10,13" id="Fill-363" fill="#A5A5A4" sketch:type="MSShapeGroup"></path>
            <path d="M10,19 C9.448,19 9,19.448 9,20 C9,20.552 9.448,21 10,21 C10.552,21 11,20.552 11,20 C11,19.448 10.552,19 10,19" id="Fill-364" fill="#A5A5A4" sketch:type="MSShapeGroup"></path>
            <path d="M13,16 C12.448,16 12,16.448 12,17 C12,17.552 12.448,18 13,18 C13.552,18 14,17.552 14,17 C14,16.448 13.552,16 13,16" id="Fill-365" fill="#A5A5A4" sketch:type="MSShapeGroup"></path>
            <path d="M16,13 C15.448,13 15,13.448 15,14 C15,14.552 15.448,15 16,15 C16.552,15 17,14.552 17,14 C17,13.448 16.552,13 16,13" id="Fill-366" fill="#A5A5A4" sketch:type="MSShapeGroup"></path>
            <path d="M16,19 C15.448,19 15,19.448 15,20 C15,20.552 15.448,21 16,21 C16.552,21 17,20.552 17,20 C17,19.448 16.552,19 16,19" id="Fill-367" fill="#A5A5A4" sketch:type="MSShapeGroup"></path>
            <path d="M19,16 C18.448,16 18,16.448 18,17 C18,17.552 18.448,18 19,18 C19.552,18 20,17.552 20,17 C20,16.448 19.552,16 19,16" id="Fill-368" fill="#A5A5A4" sketch:type="MSShapeGroup"></path>
            <path d="M22,13 C21.448,13 21,13.448 21,14 C21,14.552 21.448,15 22,15 C22.552,15 23,14.552 23,14 C23,13.448 22.552,13 22,13" id="Fill-369" fill="#A5A5A4" sketch:type="MSShapeGroup"></path>
            <path d="M7,22 C6.448,22 6,22.448 6,23 C6,23.552 6.448,24 7,24 C7.552,24 8,23.552 8,23 C8,22.448 7.552,22 7,22" id="Fill-370" fill="#A5A5A4" sketch:type="MSShapeGroup"></path>
            <path d="M13,22 C12.448,22 12,22.448 12,23 C12,23.552 12.448,24 13,24 C13.552,24 14,23.552 14,23 C14,22.448 13.552,22 13,22" id="Fill-371" fill="#A5A5A4" sketch:type="MSShapeGroup"></path>
            <path d="M28,32 L27,31 L27,29 L28,28 L30,28 L31,29 L31,31 L30,32 L28,32" id="Fill-474" fill="#BDC3C7" sketch:type="MSShapeGroup"></path>
            <path d="M35,39 L34,38 L34,36 L35,35 L37,35 L38,36 L38,38 L37,39 L35,39" id="Fill-475" fill="#BDC3C7" sketch:type="MSShapeGroup"></path>
            <path d="M42,46 L41,45 L41,43 L42,42 L44,42 L45,43 L45,45 L44,46 L42,46" id="Fill-476" fill="#BDC3C7" sketch:type="MSShapeGroup"></path>
            <path d="M54.787,54.823 C56.312,53.298 56.411,50.857 55.014,49.214 L53.01,47.011 L45.968,54.053 L48.214,56.014 C49.857,57.411 52.298,57.313 53.823,55.787 L54.787,54.823" id="Fill-1823" fill="#8697CB" sketch:type="MSShapeGroup"></path>
        </g>
    </g>
</svg>