<?xml version="1.0" encoding="UTF-8" standalone="no"?>
<svg width="58px" height="58px" viewBox="0 0 58 58" version="1.1" xmlns="http://www.w3.org/2000/svg" xmlns:xlink="http://www.w3.org/1999/xlink" xmlns:sketch="http://www.bohemiancoding.com/sketch/ns">
    <!-- Generator: Sketch 3.2.2 (9983) - http://www.bohemiancoding.com/sketch -->
    <title>65 - Sound Controller (Flat)</title>
    <desc>Created with Sketch.</desc>
    <defs></defs>
    <g id="Page-1" stroke="none" stroke-width="1" fill="none" fill-rule="evenodd" sketch:type="MSPage">
        <g id="65---Sound-Controller-(Flat)" sketch:type="MSLayerGroup">
            <path d="M0,0 L58,0 L58,58 L0,58 L0,0 Z" id="Fill-244" fill="#5E5F62" sketch:type="MSShapeGroup"></path>
            <path d="M26,9 C25.45,9 25,9.45 25,10 C25,10.55 25.45,11 26,11 C26.55,11 27,10.55 27,10 C27,9.45 26.55,9 26,9" id="Fill-372" fill="#0DD8F9" sketch:type="MSShapeGroup"></path>
            <path d="M22,9 C21.45,9 21,9.45 21,10 C21,10.55 21.45,11 22,11 C22.55,11 23,10.55 23,10 C23,9.45 22.55,9 22,9" id="Fill-373" fill="#FF5364" sketch:type="MSShapeGroup"></path>
            <path d="M30,9 C29.45,9 29,9.45 29,10 C29,10.55 29.45,11 30,11 C30.55,11 31,10.55 31,10 C31,9.45 30.55,9 30,9" id="Fill-374" fill="#FF5364" sketch:type="MSShapeGroup"></path>
            <path d="M18,9 C17.45,9 17,9.45 17,10 C17,10.55 17.45,11 18,11 C18.55,11 19,10.55 19,10 C19,9.45 18.55,9 18,9" id="Fill-375" fill="#FF5364" sketch:type="MSShapeGroup"></path>
            <path d="M34,9 C33.45,9 33,9.45 33,10 C33,10.55 33.45,11 34,11 C34.55,11 35,10.55 35,10 C35,9.45 34.55,9 34,9" id="Fill-376" fill="#FF5364" sketch:type="MSShapeGroup"></path>
            <path d="M14,9 C13.45,9 13,9.45 13,10 C13,10.55 13.45,11 14,11 C14.55,11 15,10.55 15,10 C15,9.45 14.55,9 14,9" id="Fill-377" fill="#FF5364" sketch:type="MSShapeGroup"></path>
            <path d="M38,9 C37.45,9 37,9.45 37,10 C37,10.55 37.45,11 38,11 C38.55,11 39,10.55 39,10 C39,9.45 38.55,9 38,9" id="Fill-378" fill="#0DD8F9" sketch:type="MSShapeGroup"></path>
            <path d="M54,9 C53.45,9 53,9.45 53,10 C53,10.55 53.45,11 54,11 C54.55,11 55,10.55 55,10 C55,9.45 54.55,9 54,9" id="Fill-379" fill="#FF5364" sketch:type="MSShapeGroup"></path>
            <path d="M50,9 C49.45,9 49,9.45 49,10 C49,10.55 49.45,11 50,11 C50.55,11 51,10.55 51,10 C51,9.45 50.55,9 50,9" id="Fill-380" fill="#FF5364" sketch:type="MSShapeGroup"></path>
            <path d="M42,9 C41.45,9 41,9.45 41,10 C41,10.55 41.45,11 42,11 C42.55,11 43,10.55 43,10 C43,9.45 42.55,9 42,9" id="Fill-381" fill="#0DD8F9" sketch:type="MSShapeGroup"></path>
            <path d="M46,9 C45.45,9 45,9.45 45,10 C45,10.55 45.45,11 46,11 C46.55,11 47,10.55 47,10 C47,9.45 46.55,9 46,9" id="Fill-382" fill="#FF5364" sketch:type="MSShapeGroup"></path>
            <path d="M10,45 C9.45,45 9,45.45 9,46 C9,46.55 9.45,47 10,47 C10.55,47 11,46.55 11,46 C11,45.45 10.55,45 10,45" id="Fill-383" fill="#FF5364" sketch:type="MSShapeGroup"></path>
            <path d="M10,41 C9.45,41 9,41.45 9,42 C9,42.55 9.45,43 10,43 C10.55,43 11,42.55 11,42 C11,41.45 10.55,41 10,41" id="Fill-384" fill="#FF5364" sketch:type="MSShapeGroup"></path>
            <path d="M10,49 C9.45,49 9,49.45 9,50 C9,50.55 9.45,51 10,51 C10.55,51 11,50.55 11,50 C11,49.45 10.55,49 10,49" id="Fill-385" fill="#0DD8F9" sketch:type="MSShapeGroup"></path>
            <path d="M10,37 C9.45,37 9,37.45 9,38 C9,38.55 9.45,39 10,39 C10.55,39 11,38.55 11,38 C11,37.45 10.55,37 10,37" id="Fill-386" fill="#FF5364" sketch:type="MSShapeGroup"></path>
            <path d="M10,53 C9.45,53 9,53.45 9,54 C9,54.55 9.45,55 10,55 C10.55,55 11,54.55 11,54 C11,53.45 10.55,53 10,53" id="Fill-387" fill="#FF5364" sketch:type="MSShapeGroup"></path>
            <path d="M10,13 C9.45,13 9,13.45 9,14 C9,14.55 9.45,15 10,15 C10.55,15 11,14.55 11,14 C11,13.45 10.55,13 10,13" id="Fill-388" fill="#FF5364" sketch:type="MSShapeGroup"></path>
            <path d="M10,21 C9.45,21 9,21.45 9,22 C9,22.55 9.45,23 10,23 C10.55,23 11,22.55 11,22 C11,21.45 10.55,21 10,21" id="Fill-389" fill="#0DD8F9" sketch:type="MSShapeGroup"></path>
            <path d="M10,17 C9.45,17 9,17.45 9,18 C9,18.55 9.45,19 10,19 C10.55,19 11,18.55 11,18 C11,17.45 10.55,17 10,17" id="Fill-390" fill="#0DD8F9" sketch:type="MSShapeGroup"></path>
            <path d="M10,25 C9.45,25 9,25.45 9,26 C9,26.55 9.45,27 10,27 C10.55,27 11,26.55 11,26 C11,25.45 10.55,25 10,25" id="Fill-391" fill="#0DD8F9" sketch:type="MSShapeGroup"></path>
            <path d="M10,29 C9.45,29 9,29.45 9,30 C9,30.55 9.45,31 10,31 C10.55,31 11,30.55 11,30 C11,29.45 10.55,29 10,29" id="Fill-392" fill="#FF5364" sketch:type="MSShapeGroup"></path>
            <path d="M10,33 C9.45,33 9,33.45 9,34 C9,34.55 9.45,35 10,35 C10.55,35 11,34.55 11,34 C11,33.45 10.55,33 10,33" id="Fill-393" fill="#FF5364" sketch:type="MSShapeGroup"></path>
            <path d="M10,9 C9.45,9 9,9.45 9,10 C9,10.55 9.45,11 10,11 C10.55,11 11,10.55 11,10 C11,9.45 10.55,9 10,9" id="Fill-394" fill="#0DD8F9" sketch:type="MSShapeGroup"></path>
            <path d="M4,7 L3,6 L3,4 L4,3 L6,3 L7,4 L7,6 L6,7 L4,7" id="Fill-413" fill="#ECF0F1" sketch:type="MSShapeGroup"></path>
            <path d="M12,7 L11,6 L11,4 L12,3 L14,3 L15,4 L15,6 L14,7 L12,7" id="Fill-414" fill="#ECF0F1" sketch:type="MSShapeGroup"></path>
            <path d="M20,7 L19,6 L19,4 L20,3 L22,3 L23,4 L23,6 L22,7 L20,7" id="Fill-415" fill="#ECF0F1" sketch:type="MSShapeGroup"></path>
            <path d="M28,7 L27,6 L27,4 L28,3 L30,3 L31,4 L31,6 L30,7 L28,7" id="Fill-416" fill="#ECF0F1" sketch:type="MSShapeGroup"></path>
            <path d="M36,7 L35,6 L35,4 L36,3 L38,3 L39,4 L39,6 L38,7 L36,7" id="Fill-417" fill="#ECF0F1" sketch:type="MSShapeGroup"></path>
            <path d="M44,7 L43,6 L43,4 L44,3 L46,3 L47,4 L47,6 L46,7 L44,7" id="Fill-418" fill="#ECF0F1" sketch:type="MSShapeGroup"></path>
            <path d="M52,7 L51,6 L51,4 L52,3 L54,3 L55,4 L55,6 L54,7 L52,7" id="Fill-419" fill="#ECF0F1" sketch:type="MSShapeGroup"></path>
            <path d="M15,15 L21,15 L21,21 L15,21 L15,15 Z" id="Fill-501" fill="#FBD490" sketch:type="MSShapeGroup"></path>
            <path d="M26,15 L32,15 L32,21 L26,21 L26,15 Z" id="Fill-502" fill="#A4E869" sketch:type="MSShapeGroup"></path>
            <path d="M37,15 L43,15 L43,21 L37,21 L37,15 Z" id="Fill-503" fill="#FBD490" sketch:type="MSShapeGroup"></path>
            <path d="M48,15 L54,15 L54,21 L48,21 L48,15 Z" id="Fill-504" fill="#FBD490" sketch:type="MSShapeGroup"></path>
            <path d="M15,26 L21,26 L21,32 L15,32 L15,26 Z" id="Fill-505" fill="#A4E869" sketch:type="MSShapeGroup"></path>
            <path d="M26,26 L32,26 L32,32 L26,32 L26,26 Z" id="Fill-506" fill="#FBD490" sketch:type="MSShapeGroup"></path>
            <path d="M37,26 L43,26 L43,32 L37,32 L37,26 Z" id="Fill-507" fill="#FBD490" sketch:type="MSShapeGroup"></path>
            <path d="M48,26 L54,26 L54,32 L48,32 L48,26 Z" id="Fill-508" fill="#A4E869" sketch:type="MSShapeGroup"></path>
            <path d="M15,37 L21,37 L21,43 L15,43 L15,37 Z" id="Fill-509" fill="#FBD490" sketch:type="MSShapeGroup"></path>
            <path d="M26,37 L32,37 L32,43 L26,43 L26,37 Z" id="Fill-510" fill="#A4E869" sketch:type="MSShapeGroup"></path>
            <path d="M37,37 L43,37 L43,43 L37,43 L37,37 Z" id="Fill-511" fill="#FBD490" sketch:type="MSShapeGroup"></path>
            <path d="M48,37 L54,37 L54,43 L48,43 L48,37 Z" id="Fill-512" fill="#FBD490" sketch:type="MSShapeGroup"></path>
            <path d="M15,48 L21,48 L21,54 L15,54 L15,48 Z" id="Fill-513" fill="#FBD490" sketch:type="MSShapeGroup"></path>
            <path d="M26,48 L32,48 L32,54 L26,54 L26,48 Z" id="Fill-514" fill="#FBD490" sketch:type="MSShapeGroup"></path>
            <path d="M37,48 L43,48 L43,54 L37,54 L37,48 Z" id="Fill-515" fill="#A4E869" sketch:type="MSShapeGroup"></path>
            <path d="M48,48 L54,48 L54,54 L48,54 L48,48 Z" id="Fill-516" fill="#FBD490" sketch:type="MSShapeGroup"></path>
            <path d="M3,12 L4,11 L6,11 L7,12 L7,14 L6,15 L4,15 L3,14 L3,12" id="Fill-525" fill="#ECF0F1" sketch:type="MSShapeGroup"></path>
            <path d="M3,20 L4,19 L6,19 L7,20 L7,22 L6,23 L4,23 L3,22 L3,20" id="Fill-526" fill="#ECF0F1" sketch:type="MSShapeGroup"></path>
            <path d="M3,28 L4,27 L6,27 L7,28 L7,30 L6,31 L4,31 L3,30 L3,28" id="Fill-527" fill="#ECF0F1" sketch:type="MSShapeGroup"></path>
            <path d="M3,36 L4,35 L6,35 L7,36 L7,38 L6,39 L4,39 L3,38 L3,36" id="Fill-528" fill="#ECF0F1" sketch:type="MSShapeGroup"></path>
            <path d="M3,44 L4,43 L6,43 L7,44 L7,46 L6,47 L4,47 L3,46 L3,44" id="Fill-529" fill="#ECF0F1" sketch:type="MSShapeGroup"></path>
            <path d="M3,52 L4,51 L6,51 L7,52 L7,54 L6,55 L4,55 L3,54 L3,52" id="Fill-530" fill="#ECF0F1" sketch:type="MSShapeGroup"></path>
        </g>
    </g>
</svg>