<?xml version="1.0" encoding="UTF-8" standalone="no"?>
<svg width="52px" height="59px" viewBox="0 0 52 59" version="1.1" xmlns="http://www.w3.org/2000/svg" xmlns:xlink="http://www.w3.org/1999/xlink" xmlns:sketch="http://www.bohemiancoding.com/sketch/ns">
    <!-- Generator: Sketch 3.2.2 (9983) - http://www.bohemiancoding.com/sketch -->
    <title>9 - Studio Headphones (Flat)</title>
    <desc>Created with Sketch.</desc>
    <defs></defs>
    <g id="Page-1" stroke="none" stroke-width="1" fill="none" fill-rule="evenodd" sketch:type="MSPage">
        <g id="9---Studio-Headphones-(Flat)" sketch:type="MSLayerGroup">
            <path d="M26,0 C5.875,0 0,12.603 0,30 L0,36 L6,36 L6,33 L5,33 L5,24 C5,12.678 14.402,4 26,4 C37.598,4 47,12.678 47,24 L47,33 L46,33 L46,36 L52,36 L52,30 C52,12.603 45.938,0 26,0" id="Fill-56" fill="#ECF0F1" sketch:type="MSShapeGroup"></path>
            <path d="M45.32,37 L45.32,36 L46.24,36 L46.24,26 C46.24,14.225 37.349,5 26,5 C14.651,5 5.76,14.225 5.76,26 L5.76,36 L6.68,36 L6.68,37 L3,37 L3,32 C3,12.215 10.308,3 26,3 C41.692,3 49,12.215 49,32 L49,37 L45.32,37" id="Fill-57" fill="#BDC3C7" sketch:type="MSShapeGroup"></path>
            <path d="M8,44 C3.858,44 0,40.642 0,36.5 C0,32.358 3.858,29 8,29 L8,44" id="Fill-1510" fill="#DF4D60" sketch:type="MSShapeGroup"></path>
            <path d="M44,44 C48.142,44 52,40.642 52,36.5 C52,32.358 48.142,29 44,29 L44,44" id="Fill-1511" fill="#DF4D60" sketch:type="MSShapeGroup"></path>
            <path d="M13,51 L13,51 C10.25,51 8,48.75 8,46 L8,26 C8,23.25 10.25,21 13,21 C15.75,21 18,23.25 18,26 L18,46 C18,48.75 15.75,51 13,51" id="Fill-1512" fill="#556080" sketch:type="MSShapeGroup"></path>
            <path d="M39,51 L39,51 C36.25,51 34,48.75 34,46 L34,26 C34,23.25 36.25,21 39,21 C41.75,21 44,23.25 44,26 L44,46 C44,48.75 41.75,51 39,51" id="Fill-1513" fill="#556080" sketch:type="MSShapeGroup"></path>
            <path d="M26,58 L26,58 C26,56.343 27.343,55 29,55 L39.448,55 C44.171,55 48,51.171 48,46.448 L48,38 M26,58 L26,58 C26,56.343 24.657,55 23,55 L12.552,55 C7.829,55 4,51.171 4,46.448 L4,38" id="Stroke-1514" stroke="#556080" stroke-width="2" stroke-linecap="round" sketch:type="MSShapeGroup"></path>
            <path d="M8,26 L8,46 C8,48.75 10.25,51 13,51 L13,21 C10.25,21 8,23.25 8,26" id="Fill-1844" fill="#2C3E50" sketch:type="MSShapeGroup"></path>
            <path d="M44,46 L44,26 C44,23.25 41.75,21 39,21 L39,51 C41.75,51 44,48.75 44,46" id="Fill-1845" fill="#2C3E50" sketch:type="MSShapeGroup"></path>
        </g>
    </g>
</svg>