<?xml version="1.0" encoding="UTF-8" standalone="no"?>
<svg width="58px" height="58px" viewBox="0 0 58 58" version="1.1" xmlns="http://www.w3.org/2000/svg" xmlns:xlink="http://www.w3.org/1999/xlink" xmlns:sketch="http://www.bohemiancoding.com/sketch/ns">
    <!-- Generator: Sketch 3.2.2 (9983) - http://www.bohemiancoding.com/sketch -->
    <title>17 - Timpani (Flat)</title>
    <desc>Created with Sketch.</desc>
    <defs></defs>
    <g id="Page-1" stroke="none" stroke-width="1" fill="none" fill-rule="evenodd" sketch:type="MSPage">
        <g id="17---Timpani-(Flat)" sketch:type="MSLayerGroup">
            <path d="M37.559,46.287 L46.172,54.899 L49,52.071 L40.964,44.036 C39.881,44.881 38.743,45.634 37.559,46.287" id="Fill-40" fill="#7A3726" sketch:type="MSShapeGroup"></path>
            <path d="M29.5,49.073 C28.996,49.073 28.497,49.041 28,48.99 L28,58 L32,58 L32,48.851 C31.177,48.992 30.344,49.073 29.5,49.073" id="Fill-41" fill="#7A3726" sketch:type="MSShapeGroup"></path>
            <path d="M17.874,45.197 L11,52.071 L13.828,54.899 L21.364,47.364 C20.152,46.743 18.986,46.018 17.874,45.197" id="Fill-42" fill="#7A3726" sketch:type="MSShapeGroup"></path>
            <path d="M3,20.5 C3,37.345 14.864,52 29.5,52 C44.136,52 56,37.345 56,20.5 L3,20.5" id="Fill-43" fill="#805333" sketch:type="MSShapeGroup"></path>
            <path d="M4.787,31.645 L5,32 C7.042,35.667 15.969,40 29.5,40 C43.031,40 52.208,35.5 54,32 L54.189,31.717 C55.354,28.198 56,24.41 56,20.5 L3,20.5 C3,24.384 3.637,28.147 4.787,31.645" id="Fill-44" fill="#CB8252" sketch:type="MSShapeGroup"></path>
            <path d="M48.844,11.278 L38.027,22.094 C37.554,22.567 37.052,23.011 36.524,23.421 L34.775,24.781 C33.745,25.583 32.417,24.255 33.219,23.225 L34.579,21.476 C34.989,20.948 35.433,20.446 35.906,19.973 L45.956,9.922 C41.435,8.095 35.72,7 29.5,7 C22.952,7 16.963,8.212 12.339,10.217 L22.094,19.973 C22.567,20.446 23.011,20.948 23.421,21.476 L24.781,23.225 C25.583,24.255 24.255,25.583 23.225,24.781 L21.476,23.421 C20.948,23.011 20.446,22.567 19.973,22.094 L9.517,11.639 C5.462,14.01 3,17.108 3,20.5 C3,27.956 14.865,34 29.5,34 C44.135,34 56,27.956 56,20.5 C56,16.933 53.279,13.691 48.844,11.278" id="Fill-1337" fill="#CAD8DB" sketch:type="MSShapeGroup"></path>
            <path d="M56,20.5 C56,27.956 44.135,34 29.5,34 C14.865,34 3,27.956 3,20.5 C3,13.044 14.865,7 29.5,7 C44.135,7 56,13.044 56,20.5" id="Fill-1898" fill="#CAD8DB" sketch:type="MSShapeGroup"></path>
            <path d="M29.5,30 C23.134,30 16.966,28.718 12.577,26.481 C9.085,24.703 7,22.467 7,20.5 C7,18.533 9.085,16.297 12.577,14.519 C16.966,12.282 23.134,11 29.5,11 C35.866,11 42.034,12.282 46.423,14.519 C49.915,16.297 52,18.533 52,20.5 C52,22.467 49.915,24.703 46.423,26.481 C42.034,28.718 35.866,30 29.5,30" id="Fill-1899" fill="#ECF0F1" sketch:type="MSShapeGroup"></path>
            <path d="M33.219,23.225 L34.578,21.476 C34.989,20.948 35.433,20.446 35.906,19.973 L55.439,0.439 C56.025,-0.146 56.975,-0.146 57.561,0.439 C58.146,1.025 58.146,1.975 57.561,2.561 L38.027,22.094 C37.554,22.567 37.052,23.011 36.524,23.421 L34.775,24.781 C33.745,25.583 32.417,24.255 33.219,23.225" id="Fill-1900" fill="#CBB292" sketch:type="MSShapeGroup"></path>
            <path d="M24.781,23.225 L23.421,21.476 C23.011,20.948 22.567,20.446 22.094,19.973 L2.561,0.439 C1.975,-0.146 1.025,-0.146 0.439,0.439 C-0.146,1.025 -0.146,1.975 0.439,2.561 L19.973,22.094 C20.446,22.567 20.948,23.011 21.476,23.421 L23.225,24.781 C24.255,25.583 25.583,24.255 24.781,23.225" id="Fill-1901" fill="#CBB292" sketch:type="MSShapeGroup"></path>
        </g>
    </g>
</svg>