<?xml version="1.0" encoding="UTF-8" standalone="no"?>
<svg width="59px" height="58px" viewBox="0 0 59 58" version="1.1" xmlns="http://www.w3.org/2000/svg" xmlns:xlink="http://www.w3.org/1999/xlink" xmlns:sketch="http://www.bohemiancoding.com/sketch/ns">
    <!-- Generator: Sketch 3.2.2 (9983) - http://www.bohemiancoding.com/sketch -->
    <title>36 - Trombone (Flat)</title>
    <desc>Created with Sketch.</desc>
    <defs></defs>
    <g id="Page-1" stroke="none" stroke-width="1" fill="none" fill-rule="evenodd" sketch:type="MSPage">
        <g id="36---Trombone-(Flat)" sketch:type="MSLayerGroup">
            <path d="M1.017,33 L0.017,32 L0.017,30 L1.017,29 L3.017,29 L4.017,30 L4.017,32 L3.017,33 L1.017,33" id="Fill-451" fill="#F3D55B" sketch:type="MSShapeGroup"></path>
            <path d="M7.017,28 L6.017,27 L6.017,25 L7.017,24 L9.017,24 L10.017,25 L10.017,27 L9.017,28 L7.017,28" id="Fill-452" fill="#F3D55B" sketch:type="MSShapeGroup"></path>
            <path d="M13.017,22 L12.017,21 L12.017,19 L13.017,18 L15.017,18 L16.017,19 L16.017,21 L15.017,22 L13.017,22" id="Fill-453" fill="#F3D55B" sketch:type="MSShapeGroup"></path>
            <path d="M18.574,48.718 L10.088,40.232 L11.502,38.818 L19.988,47.304 L18.574,48.718" id="Fill-1256" fill="#F9EBB0" sketch:type="MSShapeGroup"></path>
            <path d="M24.231,43.062 L15.745,34.576 L17.159,33.162 L25.645,41.648 L24.231,43.062" id="Fill-1257" fill="#F9EBB0" sketch:type="MSShapeGroup"></path>
            <path d="M29.887,37.404 L21.402,28.919 L22.816,27.505 L31.301,35.99 L29.887,37.404" id="Fill-1258" fill="#F9EBB0" sketch:type="MSShapeGroup"></path>
            <path d="M5.846,35.99 L2.915,33.06 L4.329,31.646 L7.26,34.576 L5.846,35.99" id="Fill-1259" fill="#F9EBB0" sketch:type="MSShapeGroup"></path>
            <path d="M11.502,30.333 L8.572,27.402 L9.986,25.988 L12.917,28.919 L11.502,30.333" id="Fill-1260" fill="#F9EBB0" sketch:type="MSShapeGroup"></path>
            <path d="M17.16,24.677 L14.229,21.745 L15.643,20.331 L18.574,23.263 L17.16,24.677" id="Fill-1261" fill="#F9EBB0" sketch:type="MSShapeGroup"></path>
            <path d="M25.281,16.431 L4.998,36.996 L9.24,41.239 L29.524,20.674 C31.596,18.58 34.481,17.468 37.453,17.481 L44.997,17.564 C45.765,17.573 46.143,16.647 45.595,16.099 C41.83,9.555 36.399,4.125 29.856,0.36 C29.308,-0.188 28.382,0.19 28.391,0.958 L28.474,8.502 C28.487,11.474 27.353,14.337 25.281,16.431" id="Fill-1262" fill="#E4C05C" sketch:type="MSShapeGroup"></path>
            <path d="M6.718,45.348 L9.24,41.239 L4.998,36.996 L1.061,39.691 L6.718,45.348" id="Fill-1263" fill="#F3D55B" sketch:type="MSShapeGroup"></path>
            <path d="M40.2,15.24 C40.096,15.24 39.989,15.224 39.884,15.188 C39.102,14.929 38.288,14.767 37.464,14.708 C36.913,14.67 36.498,14.191 36.537,13.641 C36.576,13.09 37.049,12.678 37.605,12.714 C38.596,12.783 39.576,12.978 40.517,13.292 C41.041,13.466 41.324,14.032 41.149,14.557 C41.009,14.976 40.619,15.24 40.2,15.24" id="Fill-1264" fill="#FFFFFF" sketch:type="MSShapeGroup"></path>
            <path d="M55.343,3.463 C51.444,-0.435 45.101,-0.437 41.215,3.449 L38.074,6.467 L39.46,7.908 L42.615,4.877 C44.119,3.373 46.128,2.545 48.273,2.545 C50.416,2.545 52.425,3.373 53.929,4.877 C57.048,7.997 57.048,13.072 53.929,16.191 L36.162,33.958 C36.063,33.9 35.956,33.859 35.852,33.811 C35.768,33.77 35.687,33.725 35.599,33.691 C35.526,33.663 35.449,33.646 35.374,33.622 C34.976,33.493 34.561,33.408 34.13,33.408 C33.517,33.408 32.932,33.558 32.397,33.816 C32.374,33.827 32.353,33.841 32.331,33.852 C32.162,33.937 31.996,34.025 31.84,34.134 C31.649,34.264 31.468,34.41 31.302,34.576 L17.16,48.718 C16.982,48.896 16.828,49.088 16.691,49.288 C16.644,49.356 16.609,49.429 16.567,49.5 C16.484,49.639 16.405,49.779 16.34,49.925 C16.302,50.01 16.273,50.097 16.241,50.184 C16.189,50.329 16.143,50.475 16.108,50.624 C16.088,50.71 16.07,50.796 16.056,50.884 C16.027,51.054 16.012,51.224 16.006,51.396 C16.004,51.447 15.991,51.495 15.991,51.546 C15.991,51.568 15.997,51.588 15.997,51.61 C16.001,51.832 16.022,52.052 16.062,52.271 C16.066,52.295 16.066,52.319 16.07,52.343 C16.118,52.577 16.189,52.807 16.278,53.031 C16.308,53.107 16.349,53.177 16.384,53.25 C16.436,53.36 16.48,53.473 16.542,53.578 L16.452,53.668 C14.948,55.172 12.94,56 10.795,56 C8.651,56 6.643,55.172 5.139,53.668 C2.256,50.785 2.002,46.208 4.548,43.021 L2.985,41.773 C-0.197,45.757 0.121,51.479 3.725,55.082 C5.674,57.032 8.234,58.007 10.795,58.006 C13.356,58.006 15.917,57.031 17.866,55.082 L17.967,54.981 C18.574,55.338 19.262,55.543 19.988,55.543 C21.059,55.543 22.063,55.128 22.816,54.375 L36.959,40.232 C37.711,39.48 38.127,38.476 38.127,37.404 C38.127,36.678 37.922,35.991 37.565,35.384 L39.735,33.213 C39.911,33.897 40.251,34.528 40.762,35.038 C41.515,35.791 42.519,36.206 43.59,36.206 C44.661,36.206 45.665,35.791 46.419,35.038 L51.761,29.696 C53.32,28.137 53.32,25.599 51.761,24.039 C51.25,23.529 50.619,23.189 49.935,23.013 L55.343,17.606 C59.241,13.707 59.241,7.362 55.343,3.463 L55.343,3.463 Z M50.347,28.282 L45.004,33.624 C44.253,34.374 42.927,34.376 42.176,33.624 C41.8,33.249 41.594,32.747 41.594,32.21 C41.594,31.674 41.8,31.172 42.176,30.796 L47.519,25.453 C47.894,25.078 48.396,24.872 48.933,24.872 C49.469,24.872 49.972,25.078 50.347,25.453 C51.127,26.233 51.127,27.502 50.347,28.282 L50.347,28.282 Z M35.544,38.818 L21.402,52.961 C20.651,53.713 19.325,53.713 18.574,52.961 C18.478,52.865 18.394,52.761 18.322,52.652 C18.281,52.59 18.251,52.522 18.217,52.455 C18.192,52.406 18.161,52.36 18.14,52.309 C18.043,52.071 17.991,51.813 17.991,51.546 C17.991,51.28 18.043,51.022 18.14,50.784 C18.162,50.731 18.194,50.682 18.221,50.63 C18.254,50.567 18.282,50.501 18.322,50.441 C18.394,50.332 18.478,50.228 18.574,50.132 L32.716,35.99 C33.467,35.238 34.794,35.24 35.544,35.99 C35.92,36.365 36.127,36.867 36.127,37.404 C36.127,37.941 35.92,38.443 35.544,38.818 L35.544,38.818 Z" id="Fill-1265" fill="#EDAC56" sketch:type="MSShapeGroup"></path>
        </g>
    </g>
</svg>