<?xml version="1.0" encoding="UTF-8" standalone="no"?>
<svg width="58px" height="58px" viewBox="0 0 58 58" version="1.1" xmlns="http://www.w3.org/2000/svg" xmlns:xlink="http://www.w3.org/1999/xlink" xmlns:sketch="http://www.bohemiancoding.com/sketch/ns">
    <!-- Generator: Sketch 3.2.2 (9983) - http://www.bohemiancoding.com/sketch -->
    <title>35 - Trumpet (Flat)</title>
    <desc>Created with Sketch.</desc>
    <defs></defs>
    <g id="Page-1" stroke="none" stroke-width="1" fill="none" fill-rule="evenodd" sketch:type="MSPage">
        <g id="35---Trumpet-(Flat)" sketch:type="MSLayerGroup" transform="translate(0.000000, -1.000000)">
            <path d="M57.741,17.434 C53.976,10.89 47.153,5.024 40.609,1.259 C40.061,0.711 39.135,1.089 39.144,1.857 L39.144,9.401 C39.157,12.373 39.499,15.236 37.427,17.33 L19.826,35.17 C17.707,37.318 11.725,43.452 9.97,45.907 L9.937,45.954 C8.106,48.514 6.068,50.919 3.843,53.144 L3.022,53.964 L5.143,56.086 L6.084,55.145 C8.23,52.999 10.542,51.028 13,49.248 C15.562,47.394 22.001,41.508 24.222,39.257 L41.67,21.573 C43.742,19.479 46.627,18.886 49.599,18.899 L57.143,18.899 C57.911,18.908 58.289,17.982 57.741,17.434" id="Fill-1430" fill="#E4C05C" sketch:type="MSShapeGroup"></path>
            <path d="M3.376,58.561 L0.547,55.732 C-0.039,55.146 -0.039,54.197 0.547,53.611 C1.133,53.025 2.083,53.025 2.669,53.611 L5.497,56.439 C6.083,57.025 6.083,57.975 5.497,58.561 C4.911,59.146 3.962,59.146 3.376,58.561" id="Fill-1431" fill="#F0C419" sketch:type="MSShapeGroup"></path>
            <path d="M30.137,48.899 C28.263,48.899 26.504,48.174 25.187,46.856 C22.458,44.127 22.458,39.686 25.187,36.957 L35.086,27.058 C36.403,25.74 38.161,25.015 40.036,25.015 C41.91,25.015 43.668,25.74 44.985,27.058 C46.303,28.375 47.028,30.133 47.028,32.007 C47.028,33.882 46.303,35.64 44.985,36.957 L35.086,46.856 C33.769,48.174 32.011,48.899 30.137,48.899 L30.137,48.899 Z M40.036,27.015 C38.695,27.015 37.44,27.532 36.5,28.472 L26.601,38.371 C24.651,40.32 24.651,43.492 26.601,45.442 C27.54,46.382 28.796,46.899 30.137,46.899 C31.477,46.899 32.732,46.382 33.672,45.442 L43.571,35.543 C44.511,34.603 45.028,33.348 45.028,32.007 C45.028,30.667 44.511,29.411 43.571,28.472 C42.632,27.532 41.376,27.015 40.036,27.015 L40.036,27.015 Z" id="Fill-1432" fill="#EDAC56" sketch:type="MSShapeGroup"></path>
            <path d="M33.951,46.606 L18.396,31.05 L19.81,29.636 L35.365,45.192 L33.951,46.606" id="Fill-1433" fill="#F9EBB0" sketch:type="MSShapeGroup"></path>
            <path d="M42.437,38.121 L26.881,22.565 L28.295,21.15 L43.851,36.707 L42.437,38.121" id="Fill-1434" fill="#F9EBB0" sketch:type="MSShapeGroup"></path>
            <path d="M38.194,42.363 L22.638,26.808 L24.052,25.394 L39.608,40.949 L38.194,42.363" id="Fill-1435" fill="#F9EBB0" sketch:type="MSShapeGroup"></path>
            <path d="M17.144,30.899 L16.144,29.899 L16.144,27.899 L17.144,26.899 L19.144,26.899 L20.144,27.899 L20.144,29.899 L19.144,30.899 L17.144,30.899" id="Fill-1910" fill="#F3D55B" sketch:type="MSShapeGroup"></path>
            <path d="M21.144,26.899 L20.144,25.899 L20.144,23.899 L21.144,22.899 L23.144,22.899 L24.144,23.899 L24.144,25.899 L23.144,26.899 L21.144,26.899" id="Fill-1911" fill="#F3D55B" sketch:type="MSShapeGroup"></path>
            <path d="M25.144,22.899 L24.144,21.899 L24.144,19.899 L25.144,18.899 L27.144,18.899 L28.144,19.899 L28.144,21.899 L27.144,22.899 L25.144,22.899" id="Fill-1912" fill="#F3D55B" sketch:type="MSShapeGroup"></path>
        </g>
    </g>
</svg>