<?xml version="1.0" encoding="UTF-8" standalone="no"?>
<svg width="58px" height="58px" viewBox="0 0 58 58" version="1.1" xmlns="http://www.w3.org/2000/svg" xmlns:xlink="http://www.w3.org/1999/xlink" xmlns:sketch="http://www.bohemiancoding.com/sketch/ns">
    <!-- Generator: Sketch 3.2.2 (9983) - http://www.bohemiancoding.com/sketch -->
    <title>53 - Turntable (Flat)</title>
    <desc>Created with Sketch.</desc>
    <defs></defs>
    <g id="Page-1" stroke="none" stroke-width="1" fill="none" fill-rule="evenodd" sketch:type="MSPage">
        <g id="53---Turntable-(Flat)" sketch:type="MSLayerGroup">
            <path d="M58,48 L0,48 L0,3.503 C0,1.568 1.568,0 3.503,0 L54.497,0 C56.432,0 58,1.568 58,3.503 L58,48" id="Fill-65" fill="#D7DCE0" sketch:type="MSShapeGroup"></path>
            <path d="M0,48 L0,54.497 C0,56.432 1.568,58 3.503,58 L54.497,58 C56.432,58 58,56.432 58,54.497 L58,48 L0,48" id="Fill-66" fill="#556080" sketch:type="MSShapeGroup"></path>
            <path d="M46,24 C46,36.15 36.15,46 24,46 C11.85,46 2,36.15 2,24 C2,11.85 11.85,2 24,2 C36.15,2 46,11.85 46,24" id="Fill-67" fill="#2C2F38" sketch:type="MSShapeGroup"></path>
            <path d="M38.308,34.864 L43.03,30.142 C43.654,28.206 44,26.144 44,24 C44,12.954 35.046,4 24,4 C12.954,4 4,12.954 4,24 C4,35.046 12.954,44 24,44 C30.401,44 36.086,40.981 39.746,36.303 L38.308,34.864" id="Fill-68" fill="#35495E" sketch:type="MSShapeGroup"></path>
            <path d="M5,55 L4,54 L4,52 L5,51 L7,51 L8,52 L8,54 L7,55 L5,55" id="Fill-431" fill="#FFFFFF" sketch:type="MSShapeGroup"></path>
            <path d="M12,55 L11,54 L11,52 L12,51 L14,51 L15,52 L15,54 L14,55 L12,55" id="Fill-432" fill="#FFFFFF" sketch:type="MSShapeGroup"></path>
            <path d="M19,55 L18,54 L18,52 L19,51 L21,51 L22,52 L22,54 L21,55 L19,55" id="Fill-433" fill="#FFFFFF" sketch:type="MSShapeGroup"></path>
            <path d="M26,55 L25,54 L25,52 L26,51 L28,51 L29,52 L29,54 L28,55 L26,55" id="Fill-434" fill="#FFFFFF" sketch:type="MSShapeGroup"></path>
            <path d="M51,46 C50.447,46 50,45.552 50,45 L50,40 C50,39.448 50.447,39 51,39 C51.553,39 52,39.448 52,40 L52,45 C52,45.552 51.553,46 51,46" id="Fill-531" fill="#556080" sketch:type="MSShapeGroup"></path>
            <path d="M51,38 C50.447,38 50,37.552 50,37 L50,34 C50,33.448 50.447,33 51,33 C51.553,33 52,33.448 52,34 L52,37 C52,37.552 51.553,38 51,38" id="Fill-532" fill="#556080" sketch:type="MSShapeGroup"></path>
            <path d="M54,7 C54,8.657 52.657,10 51,10 C49.343,10 48,8.657 48,7 C48,5.343 49.343,4 51,4 C52.657,4 54,5.343 54,7" id="Fill-533" fill="#556080" sketch:type="MSShapeGroup"></path>
            <path d="M24,15 C19.029,15 15,19.029 15,24 C15,28.97 19.029,33 24,33 C28.971,33 33,28.97 33,24 C33,19.029 28.971,15 24,15 L24,15 Z M24,28 C21.791,28 20,26.209 20,24 C20,21.791 21.791,20 24,20 C26.209,20 28,21.791 28,24 C28,26.209 26.209,28 24,28 L24,28 Z" id="Fill-534" fill="#F3D55B" sketch:type="MSShapeGroup"></path>
            <path d="M48,37 L54,37 L54,40 L48,40 L48,37 Z" id="Fill-789" fill="#FFFFFF" sketch:type="MSShapeGroup"></path>
            <path d="M44.672,31.328 L51,25 L51,7" id="Stroke-791" stroke="#464F5D" stroke-width="2" stroke-linecap="round" sketch:type="MSShapeGroup"></path>
            <path d="M41.136,37.692 L38.308,34.864 L43.257,29.914 L46.086,32.743 L41.136,37.692" id="Fill-1827" fill="#FFFFFF" sketch:type="MSShapeGroup"></path>
            <path d="M28,24 C28,26.209 26.209,28 24,28 C21.791,28 20,26.209 20,24 C20,21.791 21.791,20 24,20 C26.209,20 28,21.791 28,24" id="Fill-1829" fill="#2C2F38" sketch:type="MSShapeGroup"></path>
        </g>
    </g>
</svg>