<?xml version="1.0" encoding="UTF-8" standalone="no"?>
<svg width="59px" height="59px" viewBox="0 0 59 59" version="1.1" xmlns="http://www.w3.org/2000/svg" xmlns:xlink="http://www.w3.org/1999/xlink" xmlns:sketch="http://www.bohemiancoding.com/sketch/ns">
    <!-- Generator: Sketch 3.2.2 (9983) - http://www.bohemiancoding.com/sketch -->
    <title>26 - Ukulele (Flat)</title>
    <desc>Created with Sketch.</desc>
    <defs></defs>
    <g id="Page-1" stroke="none" stroke-width="1" fill="none" fill-rule="evenodd" sketch:type="MSPage">
        <g id="26---Ukulele-(Flat)" sketch:type="MSLayerGroup">
            <path d="M47.996,3.692 C47.74,3.692 47.484,3.595 47.289,3.399 L45.875,1.985 C45.484,1.595 45.484,0.962 45.875,0.571 C46.266,0.181 46.898,0.181 47.289,0.571 L48.703,1.985 C49.094,2.376 49.094,3.009 48.703,3.399 C48.508,3.595 48.252,3.692 47.996,3.692" id="Fill-28" fill="#B9A46D" sketch:type="MSShapeGroup"></path>
            <path d="M45.168,6.521 C44.912,6.521 44.655,6.424 44.46,6.228 L43.046,4.813 C42.656,4.423 42.656,3.789 43.046,3.399 C43.437,3.009 44.07,3.009 44.461,3.399 L45.875,4.815 C46.266,5.205 46.265,5.839 45.875,6.228 C45.679,6.424 45.423,6.521 45.168,6.521" id="Fill-29" fill="#B9A46D" sketch:type="MSShapeGroup"></path>
            <path d="M55.067,16.421 C54.812,16.421 54.556,16.323 54.36,16.128 L52.945,14.714 C52.555,14.324 52.555,13.69 52.945,13.3 C53.336,12.909 53.969,12.909 54.359,13.3 L55.774,14.714 C56.165,15.104 56.165,15.737 55.774,16.128 C55.579,16.323 55.323,16.421 55.067,16.421" id="Fill-30" fill="#B9A46D" sketch:type="MSShapeGroup"></path>
            <path d="M57.896,13.592 C57.64,13.592 57.384,13.494 57.188,13.299 L55.774,11.885 C55.384,11.494 55.384,10.861 55.774,10.471 C56.165,10.08 56.798,10.08 57.188,10.471 L58.602,11.885 C58.993,12.275 58.993,12.908 58.602,13.299 C58.407,13.494 58.151,13.592 57.896,13.592" id="Fill-31" fill="#B9A46D" sketch:type="MSShapeGroup"></path>
            <path d="M56.574,4.2 L54.974,2.6 C53.073,0.698 49.99,0.698 48.089,2.6 L44.456,6.233 C43.873,6.815 43.789,7.801 44.386,8.368 C45,8.951 45.009,9.922 44.414,10.517 L26.605,28.326 C25.975,28.956 26.033,29.979 26.712,30.556 C27.391,31.133 28.016,31.77 28.582,32.458 C29.156,33.155 30.192,33.224 30.831,32.586 L48.657,14.76 C49.243,14.174 50.192,14.174 50.778,14.76 C51.364,15.345 52.314,15.345 52.899,14.76 L56.574,11.085 C58.475,9.184 58.475,6.101 56.574,4.2" id="Fill-193" fill="#9B431C" sketch:type="MSShapeGroup"></path>
            <path d="M34.618,28.798 L30.831,32.586 C30.192,33.224 29.156,33.155 28.582,32.458 C28.016,31.77 27.391,31.133 26.712,30.556 C26.033,29.979 25.975,28.956 26.605,28.326 L30.376,24.556 L29.228,23.408 C22.946,19.9 10.172,25.494 4.833,30.833 C-1.611,37.276 -1.611,47.724 4.833,54.167 C11.276,60.611 21.724,60.611 28.167,54.167 C33.506,48.828 39.1,36.054 35.592,29.772 L34.618,28.798" id="Fill-194" fill="#C27037" sketch:type="MSShapeGroup"></path>
            <path d="M24.87,41.859 C24.87,46.001 21.512,49.359 17.37,49.359 C13.228,49.359 9.87,46.001 9.87,41.859 C9.87,37.717 13.228,34.359 17.37,34.359 C21.512,34.359 24.87,37.717 24.87,41.859" id="Fill-1300" fill="#42241E" sketch:type="MSShapeGroup"></path>
            <path d="M14.799,52.502 C14.543,52.502 14.287,52.404 14.092,52.209 L7.021,45.137 C6.63,44.747 6.63,44.114 7.021,43.723 C7.411,43.333 8.044,43.333 8.435,43.723 L15.506,50.795 C15.897,51.185 15.897,51.818 15.506,52.209 C15.311,52.404 15.055,52.502 14.799,52.502" id="Fill-1301" fill="#42241E" sketch:type="MSShapeGroup"></path>
            <path d="M44.695,9.911 C44.305,9.52 43.672,9.52 43.281,9.911 L7.021,46.552 C6.63,46.942 6.63,47.575 7.021,47.966 C7.216,48.161 7.472,48.258 7.728,48.258 C7.984,48.258 8.239,48.161 8.435,47.966 L44.695,11.325 C45.086,10.934 45.086,10.301 44.695,9.911" id="Fill-1302" fill="#CBB292" sketch:type="MSShapeGroup"></path>
            <path d="M47.695,11.153 C47.305,10.762 46.672,10.762 46.281,11.153 L9.143,48.673 C8.752,49.063 8.752,49.696 9.143,50.087 C9.338,50.282 9.594,50.38 9.85,50.38 C10.106,50.38 10.362,50.282 10.557,50.087 L47.695,12.567 C48.086,12.176 48.086,11.543 47.695,11.153" id="Fill-1303" fill="#CBB292" sketch:type="MSShapeGroup"></path>
            <path d="M48.938,14.153 C48.547,13.762 47.914,13.762 47.523,14.153 L11.264,50.795 C10.873,51.185 10.873,51.818 11.264,52.209 C11.459,52.404 11.715,52.502 11.971,52.502 C12.227,52.502 12.483,52.404 12.678,52.209 L48.938,15.567 C49.328,15.176 49.328,14.543 48.938,14.153" id="Fill-1304" fill="#CBB292" sketch:type="MSShapeGroup"></path>
        </g>
    </g>
</svg>