<?xml version="1.0" encoding="UTF-8" standalone="no"?>
<svg width="59px" height="60px" viewBox="0 0 59 60" version="1.1" xmlns="http://www.w3.org/2000/svg" xmlns:xlink="http://www.w3.org/1999/xlink" xmlns:sketch="http://www.bohemiancoding.com/sketch/ns">
    <!-- Generator: Sketch 3.2.2 (9983) - http://www.bohemiancoding.com/sketch -->
    <title>24 - Violin (Flat)</title>
    <desc>Created with Sketch.</desc>
    <defs></defs>
    <g id="Page-1" stroke="none" stroke-width="1" fill="none" fill-rule="evenodd" sketch:type="MSPage">
        <g id="24---Violin-(Flat)" sketch:type="MSLayerGroup">
            <path d="M42.557,4.943 L44.826,7.214 L46.24,5.8 L43.971,3.529 L42.557,4.943" id="Fill-36" fill="#2C3E50" sketch:type="MSShapeGroup"></path>
            <path d="M45.385,2.115 L47.6,4.33 L47.623,4.307 L48.236,4.92 C48.388,4.769 48.573,4.629 48.82,4.481 L49.92,3.822 L46.799,0.701 L45.385,2.115" id="Fill-37" fill="#2C3E50" sketch:type="MSShapeGroup"></path>
            <path d="M54.989,8.892 L54.331,9.995 C54.187,10.238 54.047,10.423 53.894,10.577 L54.507,11.19 L54.483,11.214 L56.698,13.429 L58.112,12.015 L54.989,8.892" id="Fill-38" fill="#2C3E50" sketch:type="MSShapeGroup"></path>
            <path d="M51.601,13.987 L53.87,16.257 L55.284,14.843 L53.015,12.573 L51.601,13.987" id="Fill-39" fill="#2C3E50" sketch:type="MSShapeGroup"></path>
            <path d="M37.55,24.093 L29.828,31.814 L27,28.985 L34.757,21.228 C30.911,18.236 25.456,18.163 21.52,21.224 L17.755,24.339 C18.693,26.533 17.952,29.548 15.731,31.769 C13.099,34.401 9.352,34.948 7.179,33.086 L5.613,34.382 C5.858,35.396 6,36.566 6,37.814 C6,41.68 4.657,44.814 3,44.814 C1.876,44.814 0.898,43.37 0.385,41.237 C-0.597,44.829 0.294,48.858 3.16,51.724 L7.089,55.653 C11.678,60.242 19.25,59.771 23.235,54.648 L25.686,51.586 C23.873,49.407 24.432,45.695 27.045,43.082 C29.173,40.954 32.029,40.192 34.194,40.958 L37.333,37.037 C40.317,33.2 40.323,27.919 37.55,24.093" id="Fill-189" fill="#C27037" sketch:type="MSShapeGroup"></path>
            <path d="M14.713,54.813 C12.903,54.813 11.2,54.107 9.919,52.825 L5.988,48.896 C5.781,48.688 5.589,48.47 5.413,48.241 C8.135,46.865 9.913,43.117 9.997,38.179 C10.112,38.183 10.227,38.185 10.344,38.185 C13.285,38.185 16.279,36.877 18.56,34.597 C20.085,33.07 21.154,31.244 21.708,29.351 L29.46,37.102 C27.547,37.662 25.726,38.745 24.217,40.254 C21.107,43.362 19.961,47.554 20.979,51.065 L20.112,52.148 C18.781,53.858 16.826,54.813 14.713,54.813" id="Fill-190" fill="#9B431C" sketch:type="MSShapeGroup"></path>
            <path d="M29.828,31.814 L27,28.985 L46.05,9.935 L48.879,12.763 L29.828,31.814" id="Fill-1349" fill="#9B431C" sketch:type="MSShapeGroup"></path>
            <path d="M50.338,14.223 L44.591,8.475 C44.225,8.11 44.225,7.517 44.591,7.152 L47.53,4.213 C49.079,2.664 51.59,2.664 53.139,4.213 L54.601,5.674 C56.15,7.223 56.15,9.735 54.601,11.284 L51.662,14.223 C51.296,14.589 50.704,14.589 50.338,14.223" id="Fill-1350" fill="#773A3A" sketch:type="MSShapeGroup"></path>
            <path d="M10.32,42.201 C9.552,42.201 8.784,41.909 8.199,41.324 C7.809,40.934 7.809,40.301 8.199,39.91 C8.59,39.519 9.223,39.519 9.613,39.91 C10.004,40.301 10.637,40.301 11.027,39.91 L15.271,35.668 C16.401,34.536 18.38,34.534 19.513,35.668 C19.903,36.059 19.903,36.691 19.513,37.082 C19.122,37.473 18.489,37.473 18.099,37.082 C17.719,36.705 17.062,36.703 16.686,37.082 L12.441,41.324 C11.856,41.909 11.089,42.201 10.32,42.201" id="Fill-1351" fill="#2C3E50" sketch:type="MSShapeGroup"></path>
            <path d="M18.099,50.81 C17.843,50.81 17.587,50.712 17.392,50.518 C16.825,49.951 16.513,49.197 16.513,48.395 C16.513,47.595 16.825,46.841 17.392,46.274 L21.634,42.032 C22.023,41.642 22.023,41.008 21.634,40.617 C21.243,40.227 21.243,39.594 21.634,39.203 C22.024,38.812 22.657,38.812 23.048,39.203 C24.218,40.373 24.218,42.276 23.048,43.446 L18.806,47.688 C18.617,47.878 18.513,48.129 18.513,48.395 C18.513,48.663 18.616,48.914 18.806,49.102 C19.196,49.492 19.196,50.125 18.807,50.517 C18.611,50.712 18.354,50.81 18.099,50.81" id="Fill-1352" fill="#2C3E50" sketch:type="MSShapeGroup"></path>
            <path d="M15.118,21.882 C15.084,21.87 44.941,51.784 44.941,51.784 C46.503,53.346 49.036,53.346 50.598,51.784 M7.485,8.672 C5.923,10.234 5.923,12.766 7.485,14.328 L17.56,24.339" id="Stroke-1353" stroke="#E4C05C" stroke-width="2" sketch:type="MSShapeGroup"></path>
            <path d="M6,37.814 C6,41.68 4.657,44.814 3,44.814 C1.343,44.814 0,41.68 0,37.814 C0,33.948 1.343,30.814 3,30.814 C4.657,30.814 6,33.948 6,37.814" id="Fill-1354" fill="#9B431C" sketch:type="MSShapeGroup"></path>
            <path d="M57.863,59.95 C57.607,59.95 57.352,59.852 57.156,59.657 L4.706,7.207 C4.315,6.816 4.315,6.184 4.706,5.793 C5.097,5.402 5.729,5.402 6.12,5.793 L58.57,58.243 C58.961,58.634 58.961,59.267 58.57,59.657 C58.375,59.852 58.119,59.95 57.863,59.95" id="Fill-1913" fill="#35495E" sketch:type="MSShapeGroup"></path>
        </g>
    </g>
</svg>