<?xml version="1.0" encoding="UTF-8" standalone="no"?>
<svg width="56px" height="58px" viewBox="0 0 56 58" version="1.1" xmlns="http://www.w3.org/2000/svg" xmlns:xlink="http://www.w3.org/1999/xlink" xmlns:sketch="http://www.bohemiancoding.com/sketch/ns">
    <!-- Generator: Sketch 3.2.2 (9983) - http://www.bohemiancoding.com/sketch -->
    <title>50 - Xylophone (Flat)</title>
    <desc>Created with Sketch.</desc>
    <defs></defs>
    <g id="Page-1" stroke="none" stroke-width="1" fill="none" fill-rule="evenodd" sketch:type="MSPage">
        <g id="50---Xylophone-(Flat)" sketch:type="MSLayerGroup">
            <path d="M20,49 L56,49 L56,55 L20,55 L20,49 Z" id="Fill-201" fill="#CB8252" sketch:type="MSShapeGroup"></path>
            <path d="M21,40 L55,40 L55,46 L21,46 L21,40 Z" id="Fill-202" fill="#CB8252" sketch:type="MSShapeGroup"></path>
            <path d="M22,31 L54,31 L54,37 L22,37 L22,31 Z" id="Fill-203" fill="#CB8252" sketch:type="MSShapeGroup"></path>
            <path d="M23,22 L53,22 L53,28 L23,28 L23,22 Z" id="Fill-204" fill="#CB8252" sketch:type="MSShapeGroup"></path>
            <path d="M24,13 L52,13 L52,19 L24,19 L24,13 Z" id="Fill-205" fill="#CB8252" sketch:type="MSShapeGroup"></path>
            <path d="M25,4 L51,4 L51,10 L25,10 L25,4 Z" id="Fill-206" fill="#CB8252" sketch:type="MSShapeGroup"></path>
            <path d="M49.138,31 L48.931,28 L45.931,28 L46.138,31 L49.138,31" id="Fill-207" fill="#556080" sketch:type="MSShapeGroup"></path>
            <path d="M44.897,13 L47.897,13 L47.69,10 L44.69,10 L44.897,13" id="Fill-208" fill="#556080" sketch:type="MSShapeGroup"></path>
            <path d="M49.759,40 L49.552,37 L46.552,37 L46.759,40 L49.759,40" id="Fill-209" fill="#556080" sketch:type="MSShapeGroup"></path>
            <path d="M48.517,22 L48.31,19 L45.31,19 L45.517,22 L48.517,22" id="Fill-210" fill="#556080" sketch:type="MSShapeGroup"></path>
            <path d="M47.793,55 L48,58 L51,58 L50.793,55 L47.793,55" id="Fill-211" fill="#556080" sketch:type="MSShapeGroup"></path>
            <path d="M47.276,4 L47,0 L44,0 L44.276,4 L47.276,4" id="Fill-212" fill="#556080" sketch:type="MSShapeGroup"></path>
            <path d="M50.379,49 L50.172,46 L47.172,46 L47.379,49 L50.379,49" id="Fill-213" fill="#556080" sketch:type="MSShapeGroup"></path>
            <path d="M29.862,31 L30.069,28 L27.069,28 L26.862,31 L29.862,31" id="Fill-214" fill="#556080" sketch:type="MSShapeGroup"></path>
            <path d="M30.483,22 L30.69,19 L27.69,19 L27.483,22 L30.483,22" id="Fill-215" fill="#556080" sketch:type="MSShapeGroup"></path>
            <path d="M28.104,13 L31.104,13 L31.31,10 L28.31,10 L28.104,13" id="Fill-216" fill="#556080" sketch:type="MSShapeGroup"></path>
            <path d="M29.241,40 L29.448,37 L26.448,37 L26.241,40 L29.241,40" id="Fill-217" fill="#556080" sketch:type="MSShapeGroup"></path>
            <path d="M28.621,49 L28.828,46 L25.828,46 L25.621,49 L28.621,49" id="Fill-218" fill="#556080" sketch:type="MSShapeGroup"></path>
            <path d="M25.207,55 L25,58 L28,58 L28.207,55 L25.207,55" id="Fill-219" fill="#556080" sketch:type="MSShapeGroup"></path>
            <path d="M31.724,4 L32,0 L29,0 L28.724,4 L31.724,4" id="Fill-220" fill="#556080" sketch:type="MSShapeGroup"></path>
            <path d="M30,6 C29.448,6 29,6.448 29,7 C29,7.552 29.448,8 30,8 C30.552,8 31,7.552 31,7 C31,6.448 30.552,6 30,6" id="Fill-963" fill="#ECF0F1" sketch:type="MSShapeGroup"></path>
            <path d="M29,15 C28.448,15 28,15.448 28,16 C28,16.552 28.448,17 29,17 C29.552,17 30,16.552 30,16 C30,15.448 29.552,15 29,15" id="Fill-964" fill="#ECF0F1" sketch:type="MSShapeGroup"></path>
            <path d="M28,24 C27.448,24 27,24.448 27,25 C27,25.552 27.448,26 28,26 C28.552,26 29,25.552 29,25 C29,24.448 28.552,24 28,24" id="Fill-965" fill="#ECF0F1" sketch:type="MSShapeGroup"></path>
            <path d="M28,33 C27.448,33 27,33.448 27,34 C27,34.552 27.448,35 28,35 C28.552,35 29,34.552 29,34 C29,33.448 28.552,33 28,33" id="Fill-966" fill="#ECF0F1" sketch:type="MSShapeGroup"></path>
            <path d="M49,34 C49,33.448 48.552,33 48,33 C47.448,33 47,33.448 47,34 C47,34.552 47.448,35 48,35 C48.552,35 49,34.552 49,34" id="Fill-967" fill="#ECF0F1" sketch:type="MSShapeGroup"></path>
            <path d="M48,43 C48,43.552 48.448,44 49,44 C49.552,44 50,43.552 50,43 C50,42.448 49.552,42 49,42 C48.448,42 48,42.448 48,43" id="Fill-968" fill="#ECF0F1" sketch:type="MSShapeGroup"></path>
            <path d="M27,42 C26.448,42 26,42.448 26,43 C26,43.552 26.448,44 27,44 C27.552,44 28,43.552 28,43 C28,42.448 27.552,42 27,42" id="Fill-969" fill="#ECF0F1" sketch:type="MSShapeGroup"></path>
            <path d="M27,51 C26.448,51 26,51.448 26,52 C26,52.552 26.448,53 27,53 C27.552,53 28,52.552 28,52 C28,51.448 27.552,51 27,51" id="Fill-970" fill="#ECF0F1" sketch:type="MSShapeGroup"></path>
            <path d="M49,51 C48.448,51 48,51.448 48,52 C48,52.552 48.448,53 49,53 C49.552,53 50,52.552 50,52 C50,51.448 49.552,51 49,51" id="Fill-971" fill="#ECF0F1" sketch:type="MSShapeGroup"></path>
            <path d="M47,25 C47,25.552 47.448,26 48,26 C48.552,26 49,25.552 49,25 C49,24.448 48.552,24 48,24 C47.448,24 47,24.448 47,25" id="Fill-972" fill="#ECF0F1" sketch:type="MSShapeGroup"></path>
            <path d="M48,16 C48,15.448 47.552,15 47,15 C46.448,15 46,15.448 46,16 C46,16.552 46.448,17 47,17 C47.552,17 48,16.552 48,16" id="Fill-973" fill="#ECF0F1" sketch:type="MSShapeGroup"></path>
            <path d="M47,7 C47,6.448 46.552,6 46,6 C45.448,6 45,6.448 45,7 C45,7.552 45.448,8 46,8 C46.552,8 47,7.552 47,7" id="Fill-974" fill="#ECF0F1" sketch:type="MSShapeGroup"></path>
            <path d="M5.707,1.293 L4.707,0.293 C4.52,0.105 4.265,0 4,0 L2,0 C1.735,0 1.48,0.105 1.293,0.293 L0.293,1.293 C0.106,1.481 0,1.735 0,2 L0,6 C0,6.265 0.106,6.519 0.293,6.707 L1.293,7.707 C1.48,7.894 1.735,8 2,8 L2,55 C2,55.552 2.448,56 3,56 C3.552,56 4,55.552 4,55 L4,8 C4.265,8 4.52,7.894 4.707,7.707 L5.707,6.707 C5.895,6.519 6,6.265 6,6 L6,2 C6,1.735 5.895,1.481 5.707,1.293" id="Fill-1170" fill="#CBB292" sketch:type="MSShapeGroup"></path>
            <path d="M12.707,51.293 L11.707,50.293 C11.52,50.106 11.265,50 11,50 L11,3 C11,2.448 10.552,2 10,2 C9.448,2 9,2.448 9,3 L9,50 C8.735,50 8.481,50.106 8.293,50.293 L7.293,51.293 C7.105,51.48 7,51.735 7,52 L7,56 C7,56.265 7.105,56.519 7.293,56.707 L8.293,57.707 C8.481,57.894 8.735,58 9,58 L11,58 C11.265,58 11.52,57.894 11.707,57.707 L12.707,56.707 C12.895,56.519 13,56.265 13,56 L13,52 C13,51.735 12.895,51.48 12.707,51.293" id="Fill-1171" fill="#E2C5A6" sketch:type="MSShapeGroup"></path>
        </g>
    </g>
</svg>