<?xml version="1.0" encoding="UTF-8" standalone="no"?>
<svg width="42px" height="42px" viewBox="0 0 42 42" version="1.1" xmlns="http://www.w3.org/2000/svg" xmlns:xlink="http://www.w3.org/1999/xlink" xmlns:sketch="http://www.bohemiancoding.com/sketch/ns">
    <!-- Generator: Sketch 3.2.2 (9983) - http://www.bohemiancoding.com/sketch -->
    <title>186 - Admirer (Flat)</title>
    <desc>Created with Sketch.</desc>
    <defs></defs>
    <g id="Page-1" stroke="none" stroke-width="1" fill="none" fill-rule="evenodd" sketch:type="MSPage">
        <g id="186---Admirer-(Flat)" sketch:type="MSLayerGroup">
            <path d="M42,21 C42,32.598 32.598,42 21,42 C9.402,42 0,32.598 0,21 C0,9.402 9.402,0 21,0 C32.598,0 42,9.402 42,21" id="Fill-48" fill="#FBD971" sketch:type="MSShapeGroup"></path>
            <path d="M14,30.933 C20.829,33.778 29.155,30.762 32,23.933" id="Path" stroke="#F0C419" stroke-width="2" stroke-linecap="round" stroke-linejoin="round" sketch:type="MSShapeGroup"></path>
            <path d="M12.545,10.702 C12.983,9.7 13.982,9 15.146,9 C16.713,9 17.841,10.295 17.983,11.837 C17.983,11.837 18.059,12.22 17.891,12.91 C17.661,13.848 17.122,14.683 16.394,15.319 L12.545,18.636 L8.76,15.319 C8.033,14.682 7.493,13.848 7.264,12.909 C7.095,12.22 7.172,11.837 7.172,11.837 C7.314,10.294 8.442,9 10.009,9 C11.172,9 12.107,9.7 12.545,10.702" id="Fill-209" fill="#E64C3C" sketch:type="MSShapeGroup"></path>
            <path d="M29.39,10.702 C29.828,9.7 30.828,9 31.991,9 C33.558,9 34.686,10.295 34.828,11.837 C34.828,11.837 34.905,12.22 34.736,12.91 C34.507,13.848 33.967,14.683 33.24,15.319 L29.39,18.636 L25.606,15.319 C24.878,14.682 24.339,13.848 24.109,12.909 C23.941,12.22 24.017,11.837 24.017,11.837 C24.159,10.294 25.287,9 26.854,9 C28.018,9 28.952,9.7 29.39,10.702" id="Fill-210" fill="#E64C3C" sketch:type="MSShapeGroup"></path>
        </g>
    </g>
</svg>