<?xml version="1.0" encoding="UTF-8" standalone="no"?>
<svg width="42px" height="51px" viewBox="0 0 42 51" version="1.1" xmlns="http://www.w3.org/2000/svg" xmlns:xlink="http://www.w3.org/1999/xlink" xmlns:sketch="http://www.bohemiancoding.com/sketch/ns">
    <!-- Generator: Sketch 3.2.2 (9983) - http://www.bohemiancoding.com/sketch -->
    <title>8 - Alien (Flat)</title>
    <desc>Created with Sketch.</desc>
    <defs></defs>
    <g id="Page-1" stroke="none" stroke-width="1" fill="none" fill-rule="evenodd" sketch:type="MSPage">
        <g id="8---Alien-(Flat)" sketch:type="MSLayerGroup">
            <path d="M38,47 L4,47 C1.8,47 0,45.2 0,43 L0,10 C0,7.8 1.8,6 4,6 L38,6 C40.2,6 42,7.8 42,10 L42,43 C42,45.2 40.2,47 38,47" id="Fill-29" fill="#FFDB2B" sketch:type="MSShapeGroup"></path>
            <path d="M32.695,51 L9.305,51 C8.584,51 8,50.415 8,49.695 L8,47 L34,47 L34,49.695 C34,50.415 33.416,51 32.695,51" id="Fill-30" fill="#FEC722" sketch:type="MSShapeGroup"></path>
            <path d="M15.305,0 L26.695,0 C27.416,0 28,0.585 28,1.305 L28,6 L14,6 L14,1.305 C14,0.585 14.584,0 15.305,0" id="Fill-31" fill="#FEC722" sketch:type="MSShapeGroup"></path>
            <path d="M3.992,23.81 C1.983,20.397 3.122,16.001 6.535,13.992 C9.949,11.983 14.344,13.121 16.353,16.535 C18.362,19.948 20.255,29.495 16.842,31.504 C13.428,33.513 6.001,27.224 3.992,23.81" id="Fill-32" fill="#81CCB8" sketch:type="MSShapeGroup"></path>
            <path d="M38.008,23.81 C40.017,20.397 38.878,16.001 35.465,13.992 C32.052,11.983 27.656,13.121 25.647,16.535 C23.638,19.948 21.745,29.495 25.158,31.504 C28.572,33.513 35.999,27.224 38.008,23.81" id="Fill-33" fill="#81CCB8" sketch:type="MSShapeGroup"></path>
            <path d="M6.723,22.145 L11.868,17 M9.868,24 L13.013,20.855 M12.868,26 L14.014,24.855" id="Stroke-212" stroke="#13A085" stroke-width="2" stroke-linecap="round" sketch:type="MSShapeGroup"></path>
            <path d="M19,39 L23,39" id="Stroke-350" stroke="#546A79" stroke-width="2" stroke-linecap="round" sketch:type="MSShapeGroup"></path>
            <path d="M35.277,22.145 L30.132,17 M32.132,24 L28.987,20.855 M29.132,26 L27.987,24.855" id="Stroke-505" stroke="#13A085" stroke-width="2" stroke-linecap="round" sketch:type="MSShapeGroup"></path>
        </g>
    </g>
</svg>