<?xml version="1.0" encoding="UTF-8" standalone="no"?>
<svg width="58px" height="52px" viewBox="0 0 58 52" version="1.1" xmlns="http://www.w3.org/2000/svg" xmlns:xlink="http://www.w3.org/1999/xlink" xmlns:sketch="http://www.bohemiancoding.com/sketch/ns">
    <!-- Generator: Sketch 3.2.2 (9983) - http://www.bohemiancoding.com/sketch -->
    <title>64 - Amused (Flat)</title>
    <desc>Created with Sketch.</desc>
    <defs></defs>
    <g id="Page-1" stroke="none" stroke-width="1" fill="none" fill-rule="evenodd" sketch:type="MSPage">
        <g id="64---Amused-(Flat)" sketch:type="MSLayerGroup" transform="translate(0.000000, 1.000000)">
            <path d="M29.392,51 C40.639,51.156 46.912,46.619 50.4,41.811 C54.003,36.845 55.164,30.529 54.046,24.489 C50.004,2.643 29.392,2.827 29.392,2.827 C29.392,2.827 8.781,2.643 4.738,24.489 C3.621,30.529 4.782,36.845 8.385,41.811 C11.872,46.619 18.146,51.156 29.392,51" id="Fill-73" fill="#FDC794" sketch:type="MSShapeGroup"></path>
            <path d="M4.499,26.126 C4.046,25.697 3.514,25.439 2.939,25.439 C1.316,25.439 0,27.42 0,29.863 C0,32.306 1.316,34.287 2.939,34.287 C3.626,34.287 4.25,33.917 4.75,33.323 C4.297,30.971 4.218,28.539 4.499,26.126" id="Fill-232" fill="#F9A671" sketch:type="MSShapeGroup"></path>
            <path d="M57.823,22.299 C57.26,19.922 55.523,18.3 53.943,18.677 C53.452,18.794 53.045,19.106 52.719,19.532 C53.257,21.047 53.713,22.686 54.046,24.489 C54.201,25.326 54.308,26.168 54.375,27.011 C54.895,27.295 55.447,27.413 55.983,27.285 C57.562,26.908 58.386,24.676 57.823,22.299" id="Fill-233" fill="#F9A671" sketch:type="MSShapeGroup"></path>
            <path d="M13.901,12 L8.901,6.999 M16.901,9 L13.901,3 M20.901,6.999 L18.901,0.999 M25.901,6 L24.901,0 M29.901,6 L29.901,0 M33.901,6 L35.901,0 M37.901,6.999 L39.901,0.999 M40.901,9 L43.901,3" id="Stroke-234" stroke="#5E5F62" stroke-width="2" stroke-linecap="round" sketch:type="MSShapeGroup"></path>
            <path d="M16.09,19.999 C16.035,20.325 16,20.658 16,21 C16,24.313 18.686,27 22,27 C25.314,27 28,24.313 28,21 C28,20.658 27.965,20.325 27.91,19.999 L16.09,19.999" id="Fill-550" fill="#FFFFFF" sketch:type="MSShapeGroup"></path>
            <path d="M28.069,19.999 C28.028,20.328 28,20.66 28,21 C28,25.418 31.582,28.999 36,28.999 C40.418,28.999 44,25.418 44,21 C44,20.66 43.972,20.328 43.931,19.999 L28.069,19.999" id="Fill-551" fill="#FFFFFF" sketch:type="MSShapeGroup"></path>
            <path d="M22,15 C19.028,15 16.567,17.163 16.09,19.999 L27.91,19.999 C27.433,17.163 24.972,15 22,15" id="Fill-552" fill="#F9A671" sketch:type="MSShapeGroup"></path>
            <path d="M36,12.999 C31.921,12.999 28.562,16.054 28.069,19.999 L43.931,19.999 C43.438,16.054 40.079,12.999 36,12.999" id="Fill-553" fill="#F9A671" sketch:type="MSShapeGroup"></path>
            <path d="M24,22.999 C24,23.552 23.552,24 23,24 C22.448,24 22,23.552 22,22.999 C22,22.448 22.448,21.999 23,21.999 C23.552,21.999 24,22.448 24,22.999" id="Fill-554" fill="#7F5B53" sketch:type="MSShapeGroup"></path>
            <path d="M35,23.499 C35,24.328 34.328,24.999 33.5,24.999 C32.672,24.999 32,24.328 32,23.499 C32,22.671 32.672,21.999 33.5,21.999 C34.328,21.999 35,22.671 35,23.499" id="Fill-555" fill="#7F5B53" sketch:type="MSShapeGroup"></path>
            <path d="M17,34.225 L17,34.257 C17,38.077 19.109,41.64 22.543,43.315 C24.682,44.359 27.235,45 29.985,45 C32.732,45 35.289,44.36 37.434,43.318 C40.884,41.642 43,38.061 42.989,34.225 L17,34.225" id="Fill-631" fill="#802D40" sketch:type="MSShapeGroup"></path>
            <path d="M29.996,38.684 C25.277,38.684 21,39.763 21,42.225 L21.038,42.377 C21.509,42.728 22.003,43.052 22.543,43.315 C24.682,44.359 27.235,45 29.985,45 C32.732,45 35.289,44.36 37.434,43.318 C37.987,43.049 38.492,42.716 38.974,42.356 L39,42.225 C39,39.763 34.716,38.684 29.996,38.684" id="Fill-632" fill="#E64C3C" sketch:type="MSShapeGroup"></path>
        </g>
    </g>
</svg>