<?xml version="1.0" encoding="UTF-8" standalone="no"?>
<svg width="59px" height="52px" viewBox="0 0 59 52" version="1.1" xmlns="http://www.w3.org/2000/svg" xmlns:xlink="http://www.w3.org/1999/xlink" xmlns:sketch="http://www.bohemiancoding.com/sketch/ns">
    <!-- Generator: Sketch 3.2.2 (9983) - http://www.bohemiancoding.com/sketch -->
    <title>90 - Angry (Flat)</title>
    <desc>Created with Sketch.</desc>
    <defs></defs>
    <g id="Page-1" stroke="none" stroke-width="1" fill="none" fill-rule="evenodd" sketch:type="MSPage">
        <g id="90---Angry-(Flat)" sketch:type="MSLayerGroup" transform="translate(0.000000, 1.000000)">
            <path d="M29.492,51 C40.738,51.156 47.012,46.619 50.5,41.812 C54.102,36.845 55.264,30.529 54.146,24.489 C50.104,2.643 29.492,2.828 29.492,2.828 C29.492,2.828 8.88,2.643 4.838,24.489 C3.72,30.529 4.881,36.845 8.484,41.812 C11.972,46.619 18.246,51.156 29.492,51" id="Fill-92" fill="#FDC794" sketch:type="MSShapeGroup"></path>
            <path d="M14.653,17.717 L28.619,25.6 M28.619,25.6 L42.585,12.462" id="Stroke-165" stroke="#F9A671" stroke-width="2" stroke-linecap="round" sketch:type="MSShapeGroup"></path>
            <path d="M22.509,26.914 C22.509,28.607 21.141,29.98 19.454,29.98 C17.767,29.98 16.399,28.607 16.399,26.914 C16.399,25.221 17.767,23.848 19.454,23.848 C21.141,23.848 22.509,25.221 22.509,26.914" id="Fill-166" fill="#7F5B53" sketch:type="MSShapeGroup"></path>
            <path d="M42.585,23.411 C42.585,25.104 41.217,26.476 39.53,26.476 C37.843,26.476 36.475,25.104 36.475,23.411 C36.475,21.718 37.843,20.345 39.53,20.345 C41.217,20.345 42.585,21.718 42.585,23.411" id="Fill-167" fill="#7F5B53" sketch:type="MSShapeGroup"></path>
            <path d="M19.89,43.118 C19.89,43.118 30.146,28.228 43.458,38.738" id="Stroke-170" stroke="#F9A671" stroke-width="2" stroke-linecap="round" stroke-linejoin="round" sketch:type="MSShapeGroup"></path>
            <path d="M4.598,26.126 C4.145,25.697 3.613,25.439 3.039,25.439 C1.415,25.439 0.1,27.42 0.1,29.863 C0.1,32.306 1.415,34.287 3.039,34.287 C3.726,34.287 4.349,33.918 4.85,33.323 C4.397,30.971 4.318,28.539 4.598,26.126" id="Fill-173" fill="#F9A671" sketch:type="MSShapeGroup"></path>
            <path d="M57.922,22.299 C57.359,19.922 55.622,18.301 54.043,18.677 C53.552,18.795 53.144,19.107 52.818,19.532 C53.357,21.047 53.812,22.686 54.146,24.489 C54.301,25.326 54.407,26.168 54.474,27.012 C54.995,27.296 55.546,27.413 56.083,27.285 C57.662,26.909 58.486,24.676 57.922,22.299" id="Fill-174" fill="#F9A671" sketch:type="MSShapeGroup"></path>
            <path d="M14,12 L9,7 M17,9 L14,3 M21,7 L19,1 M26,6 L25,0 M30,6 L30,0 M34,6 L36,0 M38,7 L40,1 M41,9 L44,3" id="Stroke-175" stroke="#5E5F62" stroke-width="2" stroke-linecap="round" sketch:type="MSShapeGroup"></path>
            <path d="M17,42 L21,45 M46,37 L42,40" id="Stroke-335" stroke="#F9A671" stroke-width="2" stroke-linecap="round" stroke-linejoin="round" sketch:type="MSShapeGroup"></path>
        </g>
    </g>
</svg>