<?xml version="1.0" encoding="UTF-8" standalone="no"?>
<svg width="57px" height="57px" viewBox="0 0 57 57" version="1.1" xmlns="http://www.w3.org/2000/svg" xmlns:xlink="http://www.w3.org/1999/xlink" xmlns:sketch="http://www.bohemiancoding.com/sketch/ns">
    <!-- Generator: Sketch 3.2.2 (9983) - http://www.bohemiancoding.com/sketch -->
    <title>26 - Angry GIrl (Flat)</title>
    <desc>Created with Sketch.</desc>
    <defs></defs>
    <g id="Page-1" stroke="none" stroke-width="1" fill="none" fill-rule="evenodd" sketch:type="MSPage">
        <g id="26---Angry-GIrl-(Flat)" sketch:type="MSLayerGroup">
            <path d="M49,26 L49,49 C49,51.03 47.004,53 44.816,53 L11.015,53 C8.827,53 7,51.03 7,49 L7,26 C7,26 27.855,25.135 34,16 C34,16 40.756,30.869 49,26" id="Fill-61" fill="#FFDB2B" sketch:type="MSShapeGroup"></path>
            <path d="M56.164,43.062 C54.05,38.323 53.346,29.726 53.114,24.195 C52.933,19.913 51.687,15.716 49.299,12.157 C45.442,6.41 41.209,3.727 37.416,2.067 C31.118,-0.689 23.872,-0.689 17.573,2.067 C13.986,3.637 9.761,5.964 6.469,11.108 C4.189,14.672 3.068,18.845 2.985,23.075 C2.878,28.546 2.366,38.164 0.178,43.228 C-0.286,44.303 0.187,45.539 1.257,46.013 C2.341,46.493 5.5,46.781 7,47 L7,26 C7,26 27.855,25.135 34,16 C34,16 40.756,30.869 49,26 L49,47 C51.031,46.594 53.739,46.408 55,45.919 C56.141,45.476 56.662,44.18 56.164,43.062" id="Fill-62" fill="#F6EFCA" sketch:type="MSShapeGroup"></path>
            <path d="M16.146,46.696 C16.146,39.974 21.595,36.738 28.316,36.738 C35.038,36.738 40.487,39.974 40.487,46.696 C40.487,53.418 35.038,47.802 28.316,47.802 C21.595,47.802 16.146,53.418 16.146,46.696" id="Fill-238" fill="#802D40" sketch:type="MSShapeGroup"></path>
            <path d="M21.816,34 C21.816,35.104 20.921,36 19.816,36 C18.712,36 17.816,35.104 17.816,34 C17.816,32.895 18.712,32 19.816,32 C20.921,32 21.816,32.895 21.816,34" id="Fill-364" fill="#556080" sketch:type="MSShapeGroup"></path>
            <path d="M37.816,34 C37.816,35.104 36.921,36 35.816,36 C34.712,36 33.816,35.104 33.816,34 C33.816,32.895 34.712,32 35.816,32 C36.921,32 37.816,32.895 37.816,34" id="Fill-365" fill="#556080" sketch:type="MSShapeGroup"></path>
            <path d="M39.511,57 L16.122,57 C15.401,57 14.816,56.415 14.816,55.695 L14.816,53 L40.816,53 L40.816,55.695 C40.816,56.415 40.232,57 39.511,57" id="Fill-401" fill="#FEC722" sketch:type="MSShapeGroup"></path>
            <path d="M22.339,32 C22.164,32 21.986,31.954 21.825,31.857 L16.825,28.857 C16.352,28.573 16.198,27.959 16.482,27.485 C16.767,27.012 17.38,26.858 17.855,27.142 L22.854,30.142 C23.328,30.427 23.481,31.041 23.197,31.515 C23.01,31.827 22.679,32 22.339,32" id="Fill-403" fill="#556080" sketch:type="MSShapeGroup"></path>
            <path d="M32.817,32 C32.477,32 32.146,31.827 31.959,31.515 C31.675,31.041 31.828,30.427 32.302,30.142 L37.302,27.142 C37.775,26.858 38.389,27.012 38.674,27.485 C38.958,27.959 38.805,28.573 38.331,28.857 L33.331,31.857 C33.17,31.954 32.993,32 32.817,32" id="Fill-404" fill="#556080" sketch:type="MSShapeGroup"></path>
            <path d="M26.977,6.242 C27.019,6.242 27.062,6.239 27.104,6.234 C28.324,6.079 29.573,6 30.816,6 C31.369,6 31.816,5.553 31.816,5 C31.816,4.447 31.369,4 30.816,4 C29.489,4 28.155,4.084 26.852,4.25 C26.304,4.32 25.916,4.82 25.986,5.368 C26.05,5.874 26.481,6.242 26.977,6.242" id="Fill-489" fill="#FFFFFF" sketch:type="MSShapeGroup"></path>
            <path d="M22.486,7.238 C23.013,7.071 23.304,6.509 23.137,5.982 C22.969,5.455 22.404,5.165 21.881,5.332 C15.386,7.396 7.805,12.739 7.816,21.001 C7.817,21.553 8.265,22 8.816,22 L8.818,22 C9.37,21.999 9.817,21.551 9.816,20.999 C9.807,13.817 16.636,9.098 22.486,7.238" id="Fill-490" fill="#FFFFFF" sketch:type="MSShapeGroup"></path>
            <path d="M30.816,9 L30.812,9 C24.944,9 19.628,10.953 16.227,14.358 C15.837,14.75 15.837,15.383 16.228,15.773 C16.423,15.968 16.679,16.065 16.935,16.065 C17.191,16.065 17.447,15.968 17.642,15.772 C20.671,12.739 25.47,11 30.812,11 L30.816,11 C31.369,11 31.816,10.553 31.816,10 C31.816,9.448 31.369,9 30.816,9" id="Fill-491" fill="#FFFFFF" sketch:type="MSShapeGroup"></path>
            <path d="M15.11,17.302 C14.611,17.063 14.015,17.277 13.778,17.777 C13.151,19.102 12.818,20.562 12.816,21.999 C12.816,22.551 13.263,22.999 13.815,23 L13.816,23 C14.368,23 14.816,22.553 14.816,22.001 C14.818,20.858 15.084,19.693 15.586,18.633 C15.822,18.134 15.609,17.538 15.11,17.302" id="Fill-492" fill="#FFFFFF" sketch:type="MSShapeGroup"></path>
            <path d="M22.394,48.939 C24.147,48.377 26.166,47.802 28.316,47.802 C30.632,47.802 32.797,48.469 34.64,49.068 C33.761,45.539 31.347,43 28.5,43 C25.688,43 23.3,45.477 22.394,48.939" id="Fill-557" fill="#E64C3C" sketch:type="MSShapeGroup"></path>
        </g>
    </g>
</svg>