<?xml version="1.0" encoding="UTF-8" standalone="no"?>
<svg width="51px" height="57px" viewBox="0 0 51 57" version="1.1" xmlns="http://www.w3.org/2000/svg" xmlns:xlink="http://www.w3.org/1999/xlink" xmlns:sketch="http://www.bohemiancoding.com/sketch/ns">
    <!-- Generator: Sketch 3.2.2 (9983) - http://www.bohemiancoding.com/sketch -->
    <title>147 - Baby Girl (Flat)</title>
    <desc>Created with Sketch.</desc>
    <defs></defs>
    <g id="Page-1" stroke="none" stroke-width="1" fill="none" fill-rule="evenodd" sketch:type="MSPage">
        <g id="147---Baby-Girl-(Flat)" sketch:type="MSLayerGroup">
            <path d="M25.5,0 C11.475,0 0,11.475 0,25.5 L0,50 C0,52.2 1.8,54 4,54 L10.778,54 C14.937,56.021 20.014,57 25.5,57 C30.986,57 36.063,56.021 40.223,54 L47,54 C49.2,54 51,52.2 51,50 L51,25.5 C51,11.475 39.525,0 25.5,0" id="Fill-43" fill="#6E5847" sketch:type="MSShapeGroup"></path>
            <path d="M0.869,29.894 C0.305,32.001 0,34.215 0,36.5 C0,50.583 11.417,57 25.5,57 C39.583,57 51,50.583 51,36.5 C51,22.842 39.495,11.66 26,11 L25,11 C11.505,11.66 0,22.842 0,36.5 C0,50.583 11.417,57 25.5,57 C39.583,57 51,50.583 51,36.5" id="Fill-63" fill="#FDC794" sketch:type="MSShapeGroup"></path>
            <path d="M22.958,44.525 L22.193,42.994 C21.891,42.392 22.003,41.666 22.477,41.188 C23.345,40.313 24.839,38.882 26.46,37.667 C25.231,37.064 23.79,36.825 22.268,37.138 C19.624,37.681 17.54,39.899 17.17,42.572 C16.61,46.624 19.788,50.084 23.75,49.998 C26.308,49.943 28.58,48.266 29.595,45.917 C30.208,44.497 30.21,43.168 29.914,41.956 C28.763,42.915 27.223,43.99 25.162,45.181 C24.377,45.635 23.364,45.336 22.958,44.525" id="Fill-141" fill="#8697CB" sketch:type="MSShapeGroup"></path>
            <path id="Stroke-142" stroke="#0096E6" stroke-width="2" stroke-linecap="round" stroke-linejoin="round" sketch:type="MSShapeGroup"></path>
            <path d="M20,27.5 C20,30.538 17.538,33 14.5,33 C11.462,33 9,30.538 9,27.5 C9,24.462 11.462,22 14.5,22 C17.538,22 20,24.462 20,27.5" id="Fill-143" fill="#FFFFFF" sketch:type="MSShapeGroup"></path>
            <path d="M20.5,27.5 C20.5,29.433 18.933,31 17,31 C15.067,31 13.5,29.433 13.5,27.5 C13.5,25.567 15.067,24 17,24 C18.933,24 20.5,25.567 20.5,27.5" id="Fill-144" fill="#6E5847" sketch:type="MSShapeGroup"></path>
            <path d="M41,27.5 C41,30.538 38.538,33 35.5,33 C32.462,33 30,30.538 30,27.5 C30,24.462 32.462,22 35.5,22 C38.538,22 41,24.462 41,27.5" id="Fill-145" fill="#FFFFFF" sketch:type="MSShapeGroup"></path>
            <path d="M41.5,27.5 C41.5,29.433 39.933,31 38,31 C36.067,31 34.5,29.433 34.5,27.5 C34.5,25.567 36.067,24 38,24 C39.933,24 41.5,25.567 41.5,27.5" id="Fill-146" fill="#6E5847" sketch:type="MSShapeGroup"></path>
            <path d="M32.704,37.534 C32.114,36.153 30.76,35.227 29.335,35.227 C28.682,35.227 28.049,35.41 27.455,35.773 C24.247,37.733 21.442,41.229 21.324,41.377 C21.053,41.717 21.033,42.193 21.274,42.555 L23.274,45.555 C23.465,45.842 23.782,46 24.106,46 C24.268,46 24.431,45.961 24.582,45.88 C25.527,45.369 26.355,44.938 27.087,44.557 C29.426,43.338 30.838,42.603 31.988,41.399 C33.013,40.327 33.281,38.882 32.704,37.534" id="Fill-236" fill="#7D6599" sketch:type="MSShapeGroup"></path>
        </g>
    </g>
</svg>