<?xml version="1.0" encoding="UTF-8" standalone="no"?>
<svg width="42px" height="42px" viewBox="0 0 42 42" version="1.1" xmlns="http://www.w3.org/2000/svg" xmlns:xlink="http://www.w3.org/1999/xlink" xmlns:sketch="http://www.bohemiancoding.com/sketch/ns">
    <!-- Generator: Sketch 3.2.2 (9983) - http://www.bohemiancoding.com/sketch -->
    <title>172 - Boo (Flat)</title>
    <desc>Created with Sketch.</desc>
    <defs></defs>
    <g id="Page-1" stroke="none" stroke-width="1" fill="none" fill-rule="evenodd" sketch:type="MSPage">
        <g id="172---Boo-(Flat)" sketch:type="MSLayerGroup">
            <path d="M42,21 C42,32.598 32.598,42 21,42 C9.402,42 0,32.598 0,21 C0,9.402 9.402,0 21,0 C32.598,0 42,9.402 42,21" id="Fill-37" fill="#FBD971" sketch:type="MSShapeGroup"></path>
            <path d="M18,17 C18,20.314 15.314,23 12,23 C8.686,23 6,20.314 6,17 C6,13.686 8.686,11 12,11 C15.314,11 18,13.686 18,17" id="Fill-186" fill="#FFFFFF" sketch:type="MSShapeGroup"></path>
            <path d="M36,17 C36,20.314 33.314,23 30,23 C26.686,23 24,20.314 24,17 C24,13.686 26.686,11 30,11 C33.314,11 36,13.686 36,17" id="Fill-187" fill="#FFFFFF" sketch:type="MSShapeGroup"></path>
            <path d="M26,31 C26,33.761 23.761,36 21,36 C18.239,36 16,33.761 16,31 C16,28.239 18.239,26 21,26 C23.761,26 26,28.239 26,31" id="Fill-188" fill="#C03A2B" sketch:type="MSShapeGroup"></path>
            <path d="M12,5.23 L18.38,11 M30,5.23 L23.62,11" id="Stroke-226" stroke="#F0C419" stroke-width="2" stroke-linecap="round" stroke-linejoin="round" sketch:type="MSShapeGroup"></path>
            <path d="M15,17 C15,18.657 13.657,20 12,20 C10.343,20 9,18.657 9,17 C9,15.343 10.343,14 12,14 C13.657,14 15,15.343 15,17" id="Fill-314" fill="#AF8066" sketch:type="MSShapeGroup"></path>
            <path d="M33,17 C33,18.657 31.657,20 30,20 C28.343,20 27,18.657 27,17 C27,15.343 28.343,14 30,14 C31.657,14 33,15.343 33,17" id="Fill-315" fill="#AF8066" sketch:type="MSShapeGroup"></path>
        </g>
    </g>
</svg>