<?xml version="1.0" encoding="UTF-8" standalone="no"?>
<svg width="58px" height="52px" viewBox="0 0 58 52" version="1.1" xmlns="http://www.w3.org/2000/svg" xmlns:xlink="http://www.w3.org/1999/xlink" xmlns:sketch="http://www.bohemiancoding.com/sketch/ns">
    <!-- Generator: Sketch 3.2.2 (9983) - http://www.bohemiancoding.com/sketch -->
    <title>84 - Cheeky (Flat)</title>
    <desc>Created with Sketch.</desc>
    <defs></defs>
    <g id="Page-1" stroke="none" stroke-width="1" fill="none" fill-rule="evenodd" sketch:type="MSPage">
        <g id="84---Cheeky-(Flat)" sketch:type="MSLayerGroup" transform="translate(0.000000, 1.000000)">
            <path d="M29.392,51 C40.639,51.156 46.912,46.619 50.4,41.812 C54.003,36.845 55.164,30.529 54.046,24.489 C50.004,2.643 29.392,2.828 29.392,2.828 C29.392,2.828 8.781,2.643 4.738,24.489 C3.621,30.529 4.782,36.845 8.385,41.812 C11.872,46.619 18.146,51.156 29.392,51" id="Fill-97" fill="#FDC794" sketch:type="MSShapeGroup"></path>
            <path d="M25.11,27.065 C25.11,28.758 23.742,30.131 22.055,30.131 C20.368,30.131 19,28.758 19,27.065 C19,25.373 20.368,24 22.055,24 C23.742,24 25.11,25.373 25.11,27.065" id="Fill-171" fill="#7F5B53" sketch:type="MSShapeGroup"></path>
            <path d="M40,23.934 C40,25.627 38.632,27 36.945,27 C35.258,27 33.89,25.627 33.89,23.934 C33.89,22.241 35.258,20.869 36.945,20.869 C38.632,20.869 40,22.241 40,23.934" id="Fill-172" fill="#7F5B53" sketch:type="MSShapeGroup"></path>
            <path d="M4.499,26.126 C4.046,25.697 3.514,25.439 2.939,25.439 C1.316,25.439 0,27.42 0,29.863 C0,32.306 1.316,34.287 2.939,34.287 C3.626,34.287 4.25,33.918 4.75,33.323 C4.297,30.971 4.218,28.539 4.499,26.126" id="Fill-191" fill="#F9A671" sketch:type="MSShapeGroup"></path>
            <path d="M57.823,22.299 C57.26,19.922 55.523,18.301 53.943,18.677 C53.452,18.795 53.045,19.107 52.719,19.532 C53.257,21.047 53.713,22.686 54.046,24.489 C54.201,25.326 54.308,26.168 54.375,27.012 C54.895,27.296 55.447,27.413 55.983,27.285 C57.562,26.909 58.386,24.676 57.823,22.299" id="Fill-192" fill="#F9A671" sketch:type="MSShapeGroup"></path>
            <path d="M13.901,12 L8.901,7 M16.901,9 L13.901,3 M20.901,7 L18.901,1 M25.901,6 L24.901,0 M29.901,6 L29.901,0 M33.901,6 L35.901,0 M37.901,7 L39.901,1 M40.901,9 L43.901,3" id="Stroke-193" stroke="#5E5F62" stroke-width="2" stroke-linecap="round" sketch:type="MSShapeGroup"></path>
            <path d="M14,19 L14,19 C23.015,20.932 32.426,19.471 40.431,14.896 L42,14" id="Stroke-310" stroke="#F9A671" stroke-width="2" stroke-linecap="round" stroke-linejoin="round" sketch:type="MSShapeGroup"></path>
            <path d="M45.6,34.2 L41.6,31.2 C41.159,30.87 40.531,30.958 40.2,31.4 C39.868,31.842 39.958,32.469 40.4,32.8 L41.811,33.858 C40.543,35.457 36.485,40.028 30.924,40.866 C27.411,41.398 23.877,40.317 20.42,37.685 L21.6,36.8 C22.042,36.469 22.132,35.842 21.8,35.4 C21.468,34.958 20.842,34.868 20.4,35.2 L16.4,38.2 C15.958,38.531 15.868,39.158 16.2,39.6 C16.396,39.862 16.696,40 17.001,40 C17.21,40 17.42,39.935 17.6,39.8 L18.776,38.917 C18.81,38.954 18.831,38.998 18.871,39.03 C22.216,41.67 25.664,43.001 29.149,43.001 C29.839,43.001 30.53,42.948 31.222,42.845 C37.573,41.887 42.018,36.842 43.413,35.059 L44.4,35.8 C44.58,35.934 44.79,36 44.999,36 C45.304,36 45.604,35.862 45.8,35.6 C46.132,35.158 46.042,34.531 45.6,34.2" id="Fill-336" fill="#F9A671" sketch:type="MSShapeGroup"></path>
        </g>
    </g>
</svg>