<?xml version="1.0" encoding="UTF-8" standalone="no"?>
<svg width="58px" height="52px" viewBox="0 0 58 52" version="1.1" xmlns="http://www.w3.org/2000/svg" xmlns:xlink="http://www.w3.org/1999/xlink" xmlns:sketch="http://www.bohemiancoding.com/sketch/ns">
    <!-- Generator: Sketch 3.2.2 (9983) - http://www.bohemiancoding.com/sketch -->
    <title>59 - Clown (Flat)</title>
    <desc>Created with Sketch.</desc>
    <defs></defs>
    <g id="Page-1" stroke="none" stroke-width="1" fill="none" fill-rule="evenodd" sketch:type="MSPage">
        <g id="59---Clown-(Flat)" sketch:type="MSLayerGroup">
            <path d="M29.392,51.996 C40.639,52.152 46.912,47.615 50.4,42.807 C54.003,37.841 55.164,31.525 54.046,25.485 C50.004,3.639 29.392,3.823 29.392,3.823 C29.392,3.823 8.781,3.639 4.738,25.485 C3.621,31.525 4.782,37.841 8.385,42.807 C11.872,47.615 18.146,52.152 29.392,51.996" id="Fill-58" fill="#FDC794" sketch:type="MSShapeGroup"></path>
            <path d="M22.911,19.964 C23.483,23.228 21.302,26.338 18.038,26.91 C14.774,27.483 11.664,25.302 11.091,22.038 C10.519,18.774 12.7,15.664 15.964,15.091 C19.228,14.518 22.338,16.7 22.911,19.964" id="Fill-59" fill="#FFFFFF" sketch:type="MSShapeGroup"></path>
            <path d="M36.555,24.911 C33.842,23.008 33.186,19.267 35.089,16.554 C36.992,13.841 40.733,13.185 43.446,15.087 C46.159,16.99 46.815,20.732 44.913,23.445 C43.009,26.158 39.268,26.814 36.555,24.911" id="Fill-60" fill="#FFFFFF" sketch:type="MSShapeGroup"></path>
            <path d="M52.889,38.25 C52.007,34.436 45.746,32.249 42.636,36.551 C37.899,43.101 22.631,43.655 16.718,38.428 C13.115,35.243 8.331,37.908 7.452,41.387 C7.744,41.87 8.05,42.346 8.385,42.807 C11.872,47.615 18.146,52.152 29.392,51.996 C40.639,52.152 46.912,47.615 50.4,42.807 C51.431,41.387 52.254,39.853 52.889,38.25" id="Fill-61" fill="#E64C3C" sketch:type="MSShapeGroup"></path>
            <path d="M39.984,35 L39.984,35 C38.857,35.018 37.919,34.111 37.901,32.984 C37.882,31.856 39.868,28.836 39.883,28.852 C39.883,28.852 41.981,31.789 42,32.917 C42.018,34.044 41.111,34.981 39.984,35" id="Fill-102" fill="#0096E6" sketch:type="MSShapeGroup"></path>
            <path d="M4.499,27.121 C4.046,26.693 3.514,26.435 2.939,26.435 C1.316,26.435 0,28.415 0,30.859 C0,33.302 1.316,35.283 2.939,35.283 C3.626,35.283 4.25,34.913 4.751,34.319 C4.297,31.966 4.218,29.534 4.499,27.121" id="Fill-272" fill="#F9A671" sketch:type="MSShapeGroup"></path>
            <path d="M57.823,23.295 C57.259,20.918 55.523,19.296 53.943,19.673 C53.452,19.79 53.045,20.103 52.719,20.527 C53.257,22.043 53.713,23.682 54.046,25.485 C54.201,26.322 54.308,27.164 54.375,28.007 C54.895,28.291 55.447,28.409 55.983,28.281 C57.562,27.904 58.386,25.672 57.823,23.295" id="Fill-273" fill="#F9A671" sketch:type="MSShapeGroup"></path>
            <path d="M13.9,12.996 L8.901,7.995 M16.901,9.996 L13.9,3.996 M20.901,7.995 L18.9,1.995 M25.901,6.996 L24.9,0.996 M29.901,6.996 L29.901,0.996 M33.9,6.996 L35.901,0.996 M37.901,7.995 L39.9,1.995 M40.901,9.996 L43.901,3.996" id="Stroke-274" stroke="#5E5F62" stroke-width="2" stroke-linecap="round" sketch:type="MSShapeGroup"></path>
            <path d="M19.316,22.625 C19.412,23.169 19.048,23.687 18.504,23.783 C17.96,23.878 17.442,23.515 17.347,22.971 C17.251,22.427 17.615,21.909 18.159,21.813 C18.703,21.718 19.221,22.081 19.316,22.625" id="Fill-415" fill="#7F5B53" sketch:type="MSShapeGroup"></path>
            <path d="M37.215,20.488 C36.763,20.171 36.653,19.547 36.97,19.095 C37.287,18.643 37.911,18.534 38.363,18.851 C38.815,19.168 38.925,19.792 38.608,20.244 C38.29,20.696 37.667,20.805 37.215,20.488" id="Fill-416" fill="#7F5B53" sketch:type="MSShapeGroup"></path>
            <path d="M29.133,49.005 C23.684,49.005 18.253,47.31 13.962,43.436 C13.552,43.066 13.52,42.435 13.89,42.024 C14.259,41.614 14.892,41.581 15.302,41.952 C22.992,48.893 38.292,49.256 47.259,39.353 C47.629,38.943 48.262,38.911 48.671,39.283 C49.081,39.654 49.112,40.286 48.741,40.695 C44.1,45.821 36.6,49.005 29.133,49.005" id="Fill-519" fill="#FB7B76" sketch:type="MSShapeGroup"></path>
            <path d="M35,31 C35,33.761 32.761,36 30,36 C27.239,36 25,33.761 25,31 C25,28.238 27.239,26 30,26 C32.761,26 35,28.238 35,31" id="Fill-520" fill="#E64C3C" sketch:type="MSShapeGroup"></path>
        </g>
    </g>
</svg>