<?xml version="1.0" encoding="UTF-8" standalone="no"?>
<svg width="42px" height="42px" viewBox="0 0 42 42" version="1.1" xmlns="http://www.w3.org/2000/svg" xmlns:xlink="http://www.w3.org/1999/xlink" xmlns:sketch="http://www.bohemiancoding.com/sketch/ns">
    <!-- Generator: Sketch 3.2.2 (9983) - http://www.bohemiancoding.com/sketch -->
    <title>154 - Cyclops (Flat)</title>
    <desc>Created with Sketch.</desc>
    <defs></defs>
    <g id="Page-1" stroke="none" stroke-width="1" fill="none" fill-rule="evenodd" sketch:type="MSPage">
        <g id="154---Cyclops-(Flat)" sketch:type="MSLayerGroup">
            <path d="M42,21 C42,32.598 32.598,42 21,42 C9.402,42 0,32.598 0,21 C0,9.402 9.402,0 21,0 C32.598,0 42,9.402 42,21" id="Fill-11" fill="#556080" sketch:type="MSShapeGroup"></path>
            <path d="M37.643,23.889 C39.472,23.444 42.042,21.667 41,15 C41,15 40.594,8.75 28,9 C28,9 26.536,8.938 24.932,9.519 C22.403,10.434 19.597,10.434 17.068,9.519 C15.464,8.938 14,9 14,9 C1.562,8.125 1,15 1,15 C-0.076,21.886 3.175,23.556 5.304,23.928 C5.396,23.945 5.483,23.972 5.57,24 L37.305,24 C37.414,23.955 37.527,23.917 37.643,23.889" id="Fill-12" fill="#464F5D" sketch:type="MSShapeGroup"></path>
            <path d="M7,26.5 C7,33.404 13.492,39 21.5,39 C29.508,39 36,33.404 36,26.5 L36,26 L7,26 L7,26.5" id="Fill-13" fill="#FBD971" sketch:type="MSShapeGroup"></path>
            <path d="M37.305,24 L5.57,24 C6.412,24.267 7,25.047 7,25.952 L7,26 L36,26 L36,25.905 C36,25.049 36.534,24.322 37.305,24" id="Fill-14" fill="#F0C419" sketch:type="MSShapeGroup"></path>
            <path d="M34,19 L8,19 C6.9,19 6,18.1 6,17 C6,15.9 6.9,15 8,15 L34,15 C35.1,15 36,15.9 36,17 C36,18.1 35.1,19 34,19" id="Fill-256" fill="#E64C3C" sketch:type="MSShapeGroup"></path>
            <path d="M16,32 L26,32" id="Stroke-342" stroke="#F29C1F" stroke-width="2" stroke-linecap="round" stroke-linejoin="round" sketch:type="MSShapeGroup"></path>
        </g>
    </g>
</svg>