<?xml version="1.0" encoding="UTF-8" standalone="no"?>
<svg width="58px" height="51px" viewBox="0 0 58 51" version="1.1" xmlns="http://www.w3.org/2000/svg" xmlns:xlink="http://www.w3.org/1999/xlink" xmlns:sketch="http://www.bohemiancoding.com/sketch/ns">
    <!-- Generator: Sketch 3.2.2 (9983) - http://www.bohemiancoding.com/sketch -->
    <title>60 - Emo (Flat)</title>
    <desc>Created with Sketch.</desc>
    <defs></defs>
    <g id="Page-1" stroke="none" stroke-width="1" fill="none" fill-rule="evenodd" sketch:type="MSPage">
        <g id="60---Emo-(Flat)" sketch:type="MSLayerGroup">
            <path d="M29.392,50.996 C40.639,51.152 46.912,46.615 50.4,41.807 C54.003,36.841 55.164,30.525 54.046,24.485 C50.004,2.639 29.392,2.823 29.392,2.823 C29.392,2.823 8.781,2.639 4.738,24.485 C3.621,30.525 4.782,36.841 8.385,41.807 C11.872,46.615 18.146,51.152 29.392,50.996" id="Fill-62" fill="#FDC794" sketch:type="MSShapeGroup"></path>
            <path d="M4.499,26.121 C4.046,25.693 3.514,25.435 2.939,25.435 C1.316,25.435 0,27.415 0,29.859 C0,32.302 1.316,34.283 2.939,34.283 C3.626,34.283 4.25,33.913 4.75,33.319 C4.297,30.966 4.218,28.534 4.499,26.121" id="Fill-270" fill="#F9A671" sketch:type="MSShapeGroup"></path>
            <path d="M57.823,22.295 C57.259,19.918 55.523,18.296 53.943,18.673 C53.452,18.79 53.045,19.103 52.719,19.527 C53.257,21.043 53.713,22.682 54.046,24.485 C54.201,25.322 54.308,26.164 54.375,27.007 C54.895,27.291 55.447,27.409 55.983,27.281 C57.562,26.904 58.386,24.672 57.823,22.295" id="Fill-271" fill="#F9A671" sketch:type="MSShapeGroup"></path>
            <path d="M38.167,44.189 C36.186,38.519 30.756,39.145 26.026,45.589" id="Path" stroke="#F9A671" stroke-width="2" stroke-linecap="round" stroke-linejoin="round" sketch:type="MSShapeGroup"></path>
            <path d="M28.901,27.912 C28.901,31.225 26.214,33.912 22.901,33.912 C19.587,33.912 16.901,31.225 16.901,27.912 C16.901,24.598 19.587,21.912 22.901,21.912 C26.214,21.912 28.901,24.598 28.901,27.912" id="Fill-426" fill="#FFFFFF" sketch:type="MSShapeGroup"></path>
            <path d="M24.901,29.911 C24.901,30.464 24.453,30.912 23.901,30.912 C23.348,30.912 22.901,30.464 22.901,29.911 C22.901,29.359 23.348,28.912 23.901,28.912 C24.453,28.912 24.901,29.359 24.901,29.911" id="Fill-427" fill="#7F5B53" sketch:type="MSShapeGroup"></path>
            <path id="Stroke-480" stroke="#0096E6" stroke-width="2" stroke-linecap="round" sketch:type="MSShapeGroup"></path>
            <path d="M29.213,0 C28.401,0 9.285,0.227 4.144,20.025 L4,20.579 L5.817,22.396 C7.222,23.27 8.739,23.818 10.344,22.78 C11.663,21.927 12.908,20.989 14.221,20.135 C16.694,16.436 20.903,14.103 25.509,14.607 C31.431,15.257 36.123,20.522 39.287,25.19 C39.31,25.224 39.322,25.257 39.341,25.291 C40.414,25.694 41.116,26.717 41.296,27.888 C41.45,28.886 41.238,30.007 41.208,31.025 C43.364,30.564 47.435,27.9 47.41,26.505 C47.372,24.334 47.823,22.314 47.853,20.166 C47.875,18.654 49.735,18.307 50.537,19.44 C51.383,20.636 51.158,19.727 51.405,18.909 C51.627,18.171 52.163,17.574 52.405,16.825 C52.522,16.463 52.736,16.212 52.992,16.05 C46.49,0.196 29.954,0 29.213,0" id="Fill-503" fill="#5E5F62" sketch:type="MSShapeGroup"></path>
            <path d="M52.269,15.382 C51.733,15.269 51.195,15.602 51.075,16.141 C50.848,17.165 50.671,17.798 50.539,18.19 C50.455,18.08 50.371,17.968 50.296,17.867 C49.765,17.156 49.039,16.211 48.041,15.412 C45.963,9.65 41.371,4.286 37.766,1.67 C37.318,1.344 36.694,1.445 36.369,1.892 C36.045,2.339 36.145,2.965 36.592,3.289 C41.516,6.862 47.903,15.519 47.088,22.475 C46.925,23.866 46.462,25.111 45.727,26.218 C46.093,24.544 46,22.667 45.421,20.61 C42.802,11.305 30.663,0.54 24.721,0.54 C24.168,0.54 23.721,0.987 23.721,1.54 C23.721,2.093 24.168,2.54 24.721,2.54 C29.427,2.54 41.032,12.399 43.495,21.152 C44.06,23.161 44.083,24.924 43.581,26.438 C43.59,24.926 43.23,23.335 42.451,21.685 C38.203,12.694 22.279,3.243 17.224,3.243 C16.671,3.243 16.224,3.69 16.224,4.243 C16.224,4.796 16.671,5.243 17.224,5.243 C21.261,5.243 36.535,13.845 40.643,22.539 C41.451,24.251 41.74,25.807 41.545,27.242 C41.165,26.215 40.583,25.114 39.795,23.951 C37.57,20.667 34.015,17.277 29.817,14.465 C29.792,14.446 29.768,14.428 29.74,14.411 C24.131,10.672 17.38,7.974 11.082,7.974 C10.529,7.974 10.082,8.421 10.082,8.974 C10.082,9.456 10.43,9.839 10.884,9.934 C10.863,10.014 10.835,10.09 10.835,10.177 C10.835,10.729 11.283,11.177 11.835,11.177 C12.387,11.177 12.835,10.729 12.835,10.177 C12.835,10.133 12.815,10.095 12.81,10.053 C13.151,10.08 13.494,10.125 13.837,10.168 C13.837,10.168 13.835,10.174 13.835,10.177 C13.835,10.729 14.283,11.177 14.835,11.177 C15.279,11.177 15.643,10.883 15.773,10.482 C16.195,10.567 16.617,10.645 17.038,10.75 C17.219,11.002 17.501,11.177 17.835,11.177 C17.977,11.177 18.111,11.145 18.234,11.092 C20.395,11.727 22.534,12.598 24.584,13.656 C20.971,13.472 18.593,14.228 16.115,16.121 C16.001,16.209 15.901,16.314 15.789,16.405 C15.807,16.329 15.835,16.258 15.835,16.177 C15.835,15.624 15.387,15.177 14.835,15.177 C14.283,15.177 13.835,15.624 13.835,16.177 C13.835,16.729 14.283,17.177 14.835,17.177 C14.865,17.177 14.891,17.162 14.921,17.159 C14.461,17.604 14.023,18.074 13.624,18.581 C13.623,18.583 13.621,18.584 13.62,18.585 C13.438,18.343 13.161,18.177 12.835,18.177 C12.283,18.177 11.835,18.624 11.835,19.177 C11.835,19.506 12.004,19.784 12.25,19.966 C10.952,21.014 9.447,21.605 8.156,21.509 C7.148,21.426 6.394,20.938 5.911,20.059 C5.646,19.574 5.038,19.394 4.554,19.662 C4.069,19.928 3.892,20.535 4.157,21.02 C4.96,22.483 6.321,23.365 7.993,23.502 C8.146,23.514 8.3,23.52 8.455,23.52 C10.803,23.52 13.402,22.105 15.197,19.816 C15.821,19.022 16.538,18.314 17.329,17.711 C20.239,15.485 22.957,15.13 28.881,16.216 C32.77,18.852 36.065,22.011 38.14,25.073 C39.761,27.468 40.405,29.557 39.906,30.806 C39.9,30.82 39.903,30.836 39.898,30.851 C39.89,30.874 39.88,30.895 39.874,30.918 C39.861,30.964 39.863,31.011 39.857,31.059 C39.852,31.101 39.837,31.141 39.837,31.183 C39.837,31.201 39.842,31.218 39.843,31.236 C39.845,31.257 39.844,31.276 39.847,31.297 C39.853,31.347 39.874,31.393 39.888,31.442 C39.89,31.449 39.891,31.457 39.893,31.464 C39.903,31.497 39.899,31.53 39.912,31.561 C39.913,31.563 39.914,31.564 39.915,31.566 C39.92,31.577 39.928,31.586 39.933,31.596 C39.935,31.599 39.937,31.602 39.939,31.605 C39.949,31.626 39.958,31.646 39.97,31.666 C39.976,31.677 39.975,31.688 39.981,31.698 C39.997,31.723 40.018,31.742 40.035,31.764 C40.058,31.796 40.081,31.826 40.108,31.854 C40.11,31.857 40.112,31.86 40.115,31.863 C40.123,31.872 40.129,31.883 40.138,31.892 C40.153,31.907 40.17,31.918 40.185,31.931 C40.192,31.936 40.194,31.944 40.2,31.949 C40.212,31.959 40.227,31.962 40.239,31.971 C40.266,31.991 40.29,32.011 40.318,32.028 C40.355,32.05 40.392,32.067 40.431,32.084 C40.443,32.089 40.451,32.1 40.464,32.105 C40.47,32.108 40.477,32.107 40.483,32.109 C40.498,32.115 40.511,32.12 40.526,32.124 C40.54,32.129 40.552,32.133 40.566,32.137 C40.652,32.161 40.739,32.175 40.828,32.176 C40.83,32.176 40.832,32.177 40.834,32.177 L40.835,32.177 L40.836,32.177 C40.93,32.177 41.023,32.162 41.115,32.135 C41.138,32.128 41.158,32.116 41.18,32.107 C41.193,32.103 41.207,32.105 41.22,32.1 C41.23,32.095 41.238,32.09 41.248,32.086 C41.252,32.084 41.256,32.082 41.26,32.08 C45.879,30.144 48.582,26.906 49.074,22.708 C49.196,21.665 49.179,20.602 49.053,19.534 C49.542,20.155 50.023,20.634 50.672,20.634 C50.77,20.634 50.872,20.622 50.978,20.6 C52.017,20.377 52.449,19.178 53.028,16.575 C53.147,16.036 52.808,15.502 52.269,15.382" id="Fill-504" fill="#3C3E42" sketch:type="MSShapeGroup"></path>
            <path d="M6.835,20.177 C7.387,20.177 7.835,19.729 7.835,19.177 C7.835,18.624 7.387,18.177 6.835,18.177 C6.283,18.177 5.835,18.624 5.835,19.177 C5.835,19.729 6.283,20.177 6.835,20.177" id="Fill-505" fill="#3C3E42" sketch:type="MSShapeGroup"></path>
            <path d="M9.835,18.177 C9.283,18.177 8.835,18.624 8.835,19.177 C8.835,19.729 9.283,20.177 9.835,20.177 C10.387,20.177 10.835,19.729 10.835,19.177 C10.835,18.624 10.387,18.177 9.835,18.177" id="Fill-506" fill="#3C3E42" sketch:type="MSShapeGroup"></path>
            <path d="M8.835,17.177 C9.387,17.177 9.835,16.729 9.835,16.177 C9.835,15.624 9.387,15.177 8.835,15.177 C8.283,15.177 7.835,15.624 7.835,16.177 C7.835,16.729 8.283,17.177 8.835,17.177" id="Fill-507" fill="#3C3E42" sketch:type="MSShapeGroup"></path>
            <path d="M10.835,16.177 C10.835,16.729 11.283,17.177 11.835,17.177 C12.387,17.177 12.835,16.729 12.835,16.177 C12.835,15.624 12.387,15.177 11.835,15.177 C11.283,15.177 10.835,15.624 10.835,16.177" id="Fill-508" fill="#3C3E42" sketch:type="MSShapeGroup"></path>
            <path d="M19.835,13.177 C19.835,12.624 19.387,12.177 18.835,12.177 C18.283,12.177 17.835,12.624 17.835,13.177 C17.835,13.729 18.283,14.177 18.835,14.177 C19.387,14.177 19.835,13.729 19.835,13.177" id="Fill-509" fill="#3C3E42" sketch:type="MSShapeGroup"></path>
            <path d="M16.835,13.177 C16.835,12.624 16.387,12.177 15.835,12.177 C15.283,12.177 14.835,12.624 14.835,13.177 C14.835,13.729 15.283,14.177 15.835,14.177 C16.387,14.177 16.835,13.729 16.835,13.177" id="Fill-510" fill="#3C3E42" sketch:type="MSShapeGroup"></path>
            <path d="M13.835,13.177 C13.835,12.624 13.387,12.177 12.835,12.177 C12.283,12.177 11.835,12.624 11.835,13.177 C11.835,13.729 12.283,14.177 12.835,14.177 C13.387,14.177 13.835,13.729 13.835,13.177" id="Fill-511" fill="#3C3E42" sketch:type="MSShapeGroup"></path>
            <path d="M9.835,14.177 C10.387,14.177 10.835,13.729 10.835,13.177 C10.835,12.624 10.387,12.177 9.835,12.177 C9.283,12.177 8.835,12.624 8.835,13.177 C8.835,13.729 9.283,14.177 9.835,14.177" id="Fill-512" fill="#3C3E42" sketch:type="MSShapeGroup"></path>
            <path d="M16.977,27 L28.824,27 C28.384,24.12 25.903,21.912 22.901,21.912 C19.898,21.912 17.417,24.12 16.977,27" id="Fill-639" fill="#F9A671" sketch:type="MSShapeGroup"></path>
        </g>
    </g>
</svg>