<?xml version="1.0" encoding="UTF-8" standalone="no"?>
<svg width="58px" height="52px" viewBox="0 0 58 52" version="1.1" xmlns="http://www.w3.org/2000/svg" xmlns:xlink="http://www.w3.org/1999/xlink" xmlns:sketch="http://www.bohemiancoding.com/sketch/ns">
    <!-- Generator: Sketch 3.2.2 (9983) - http://www.bohemiancoding.com/sketch -->
    <title>53 - Flirt (Flat)</title>
    <desc>Created with Sketch.</desc>
    <defs></defs>
    <g id="Page-1" stroke="none" stroke-width="1" fill="none" fill-rule="evenodd" sketch:type="MSPage">
        <g id="53---Flirt-(Flat)" sketch:type="MSLayerGroup" transform="translate(0.000000, 1.000000)">
            <path d="M29.392,51 C40.639,51.156 46.912,46.619 50.4,41.812 C54.003,36.845 55.164,30.529 54.046,24.489 C50.004,2.643 29.392,2.828 29.392,2.828 C29.392,2.828 8.781,2.643 4.738,24.489 C3.621,30.529 4.782,36.845 8.385,41.812 C11.872,46.619 18.146,51.156 29.392,51" id="Fill-51" fill="#FDC794" sketch:type="MSShapeGroup"></path>
            <path d="M19.539,17.608 C20.057,16.421 21.242,15.592 22.619,15.592 C24.475,15.592 25.811,17.125 25.979,18.952 C25.979,18.952 26.07,19.406 25.871,20.222 C25.599,21.334 24.96,22.322 24.098,23.076 L19.539,27.004 L15.056,23.076 C14.195,22.322 13.556,21.334 13.284,20.222 C13.084,19.405 13.175,18.952 13.175,18.952 C13.343,17.125 14.68,15.592 16.535,15.592 C17.913,15.592 19.02,16.421 19.539,17.608" id="Fill-110" fill="#FB7B76" sketch:type="MSShapeGroup"></path>
            <path d="M4.499,26.126 C4.046,25.697 3.514,25.439 2.939,25.439 C1.316,25.439 0,27.42 0,29.863 C0,32.306 1.316,34.287 2.939,34.287 C3.626,34.287 4.25,33.918 4.75,33.323 C4.297,30.971 4.218,28.539 4.499,26.126" id="Fill-261" fill="#F9A671" sketch:type="MSShapeGroup"></path>
            <path d="M57.823,22.299 C57.26,19.922 55.523,18.301 53.943,18.678 C53.452,18.795 53.045,19.107 52.719,19.532 C53.257,21.047 53.713,22.686 54.046,24.489 C54.201,25.326 54.308,26.168 54.375,27.012 C54.895,27.296 55.447,27.413 55.983,27.285 C57.562,26.909 58.386,24.676 57.823,22.299" id="Fill-262" fill="#F9A671" sketch:type="MSShapeGroup"></path>
            <path d="M13.901,12 L8.901,7 M16.901,9 L13.901,3 M20.901,7 L18.901,1 M25.901,6 L24.9,0 M29.901,6 L29.901,0 M33.9,6 L35.901,0 M37.901,7 L39.9,1 M40.901,9 L43.901,3" id="Stroke-263" stroke="#5E5F62" stroke-width="2" stroke-linecap="round" sketch:type="MSShapeGroup"></path>
            <path d="M45.392,34.773 C45.392,39.486 37.917,47.388 28.696,47.388 C19.475,47.388 12,39.486 12,34.773 C12,30.06 19.475,36.257 28.696,36.257 C37.917,36.257 45.392,30.06 45.392,34.773" id="Fill-381" fill="#802D40" sketch:type="MSShapeGroup"></path>
            <path d="M47,22.004 C47,26.423 43.418,30.004 39,30.004 C34.582,30.004 31,26.423 31,22.004 C31,17.586 34.582,14.004 39,14.004 C43.418,14.004 47,17.586 47,22.004" id="Fill-395" fill="#FFFFFF" sketch:type="MSShapeGroup"></path>
            <path d="M42,22.004 C42,23.661 40.657,25.004 39,25.004 C37.343,25.004 36,23.661 36,22.004 C36,20.348 37.343,19.004 39,19.004 C40.657,19.004 42,20.348 42,22.004" id="Fill-400" fill="#7F5B53" sketch:type="MSShapeGroup"></path>
            <path d="M28.696,47.388 C32.132,47.388 35.323,46.289 37.978,44.669 C37.748,42.286 33.823,40.388 29,40.388 C24.029,40.388 20,42.403 20,44.888 L19.976,44.984 C22.516,46.424 25.496,47.388 28.696,47.388" id="Fill-653" fill="#E64C3C" sketch:type="MSShapeGroup"></path>
        </g>
    </g>
</svg>