<?xml version="1.0" encoding="UTF-8" standalone="no"?>
<svg width="42px" height="51px" viewBox="0 0 42 51" version="1.1" xmlns="http://www.w3.org/2000/svg" xmlns:xlink="http://www.w3.org/1999/xlink" xmlns:sketch="http://www.bohemiancoding.com/sketch/ns">
    <!-- Generator: Sketch 3.2.2 (9983) - http://www.bohemiancoding.com/sketch -->
    <title>25 - Geek (Flat)</title>
    <desc>Created with Sketch.</desc>
    <defs></defs>
    <g id="Page-1" stroke="none" stroke-width="1" fill="none" fill-rule="evenodd" sketch:type="MSPage">
        <g id="25---Geek-(Flat)" sketch:type="MSLayerGroup">
            <path d="M38,47 L4,47 C1.8,47 0,45.2 0,43 L0,10 C0,7.8 1.8,6 4,6 L38,6 C40.2,6 42,7.8 42,10 L42,43 C42,45.2 40.2,47 38,47" id="Fill-60" fill="#FFDB2B" sketch:type="MSShapeGroup"></path>
            <path d="M13,37 L29,37" id="Stroke-249" stroke="#F18D46" stroke-width="2" stroke-linecap="round" stroke-linejoin="round" sketch:type="MSShapeGroup"></path>
            <path d="M17,38 L21,38 L21,44 L17,44 L17,38 Z" id="Fill-250" fill="#FFFFFF" sketch:type="MSShapeGroup"></path>
            <path d="M21,38 L25,38 L25,42 L21,42 L21,38 Z" id="Fill-251" fill="#ECF0F1" sketch:type="MSShapeGroup"></path>
            <path d="M18,24 C18,27.314 15.314,30 12,30 C8.686,30 6,27.314 6,24 C6,20.686 8.686,18 12,18 C15.314,18 18,20.686 18,24 L18,24 Z" id="Fill-353" fill="#D0E8F9" sketch:type="MSShapeGroup"></path>
            <path d="M18,24 C18,27.314 15.314,30 12,30 C8.686,30 6,27.314 6,24 C6,20.686 8.686,18 12,18 C15.314,18 18,20.686 18,24 L18,24 Z" id="Stroke-354" stroke="#556080" stroke-width="2" sketch:type="MSShapeGroup"></path>
            <path d="M36,24 C36,27.314 33.314,30 30,30 C26.686,30 24,27.314 24,24 C24,20.686 26.686,18 30,18 C33.314,18 36,20.686 36,24 L36,24 Z" id="Fill-355" fill="#D0E8F9" sketch:type="MSShapeGroup"></path>
            <path d="M36,24 C36,27.314 33.314,30 30,30 C26.686,30 24,27.314 24,24 C24,20.686 26.686,18 30,18 C33.314,18 36,20.686 36,24 L36,24 Z" id="Stroke-356" stroke="#556080" stroke-width="2" sketch:type="MSShapeGroup"></path>
            <path d="M32.695,51 L9.305,51 C8.584,51 8,50.415 8,49.695 L8,47 L34,47 L34,49.695 C34,50.415 33.416,51 32.695,51" id="Fill-357" fill="#FEC722" sketch:type="MSShapeGroup"></path>
            <path d="M15.305,0 L26.695,0 C27.416,0 28,0.585 28,1.305 L28,6 L14,6 L14,1.305 C14,0.585 14.584,0 15.305,0" id="Fill-358" fill="#FEC722" sketch:type="MSShapeGroup"></path>
            <path d="M7.8,34.76 C7.53,34.76 7.28,34.66 7.09,34.47 C6.899,34.279 6.8,34.02 6.8,33.76 C6.8,33.5 6.899,33.24 7.09,33.05 C7.47,32.68 8.13,32.68 8.5,33.05 C8.69,33.24 8.8,33.5 8.8,33.76 C8.8,34.02 8.69,34.279 8.51,34.47 C8.319,34.649 8.06,34.76 7.8,34.76" id="Fill-373" fill="#F18D46" sketch:type="MSShapeGroup"></path>
            <path d="M8,39 C7.729,39 7.479,38.89 7.29,38.71 C7.109,38.52 7,38.269 7,38 C7,37.74 7.109,37.479 7.29,37.29 C7.66,36.92 8.33,36.92 8.71,37.29 C8.89,37.479 9,37.74 9,38 C9,38.269 8.89,38.52 8.71,38.71 C8.519,38.89 8.26,39 8,39" id="Fill-374" fill="#F18D46" sketch:type="MSShapeGroup"></path>
            <path d="M4.5,39.88 C4.24,39.88 3.979,39.769 3.79,39.58 C3.609,39.399 3.5,39.14 3.5,38.87 C3.5,38.609 3.609,38.359 3.79,38.17 C4.16,37.8 4.83,37.79 5.21,38.16 C5.399,38.359 5.5,38.609 5.5,38.87 C5.5,39.14 5.39,39.399 5.21,39.58 C5.019,39.769 4.76,39.88 4.5,39.88" id="Fill-375" fill="#F18D46" sketch:type="MSShapeGroup"></path>
            <path d="M34.2,34.76 C33.94,34.76 33.68,34.649 33.49,34.47 C33.31,34.279 33.2,34.02 33.2,33.76 C33.2,33.5 33.31,33.24 33.49,33.05 C33.87,32.68 34.53,32.68 34.91,33.05 C35.1,33.24 35.2,33.5 35.2,33.76 C35.2,34.02 35.1,34.279 34.91,34.47 C34.72,34.66 34.47,34.76 34.2,34.76" id="Fill-376" fill="#F18D46" sketch:type="MSShapeGroup"></path>
            <path d="M34,39 C33.729,39 33.48,38.89 33.29,38.71 C33.109,38.529 33,38.269 33,38 C33,37.729 33.1,37.479 33.29,37.29 C33.66,36.92 34.34,36.92 34.71,37.29 C34.89,37.479 35,37.74 35,38 C35,38.26 34.89,38.52 34.71,38.71 C34.519,38.89 34.269,39 34,39" id="Fill-377" fill="#F18D46" sketch:type="MSShapeGroup"></path>
            <path d="M37.5,39.88 C37.24,39.88 36.979,39.769 36.79,39.58 C36.6,39.399 36.5,39.14 36.5,38.87 C36.5,38.62 36.6,38.359 36.79,38.17 C37.17,37.79 37.84,37.8 38.2,38.16 C38.399,38.359 38.5,38.609 38.5,38.87 C38.5,39.14 38.39,39.399 38.2,39.58 C38.019,39.769 37.76,39.88 37.5,39.88" id="Fill-378" fill="#F18D46" sketch:type="MSShapeGroup"></path>
            <path d="M18,24 C18,22.895 19.343,22 21,22 C22.657,22 24,22.895 24,24" id="Stroke-406" stroke="#556080" stroke-width="2" sketch:type="MSShapeGroup"></path>
            <path d="M42,14.767 L34.354,21.236 L35.646,22.764 L42,17.387 L42,14.767" id="Fill-569" fill="#556080" sketch:type="MSShapeGroup"></path>
            <path d="M0,17.565 L6.367,22.774 L7.633,21.225 L0,14.981 L0,17.565" id="Fill-570" fill="#556080" sketch:type="MSShapeGroup"></path>
        </g>
    </g>
</svg>