<?xml version="1.0" encoding="UTF-8" standalone="no"?>
<svg width="58px" height="49px" viewBox="0 0 58 49" version="1.1" xmlns="http://www.w3.org/2000/svg" xmlns:xlink="http://www.w3.org/1999/xlink" xmlns:sketch="http://www.bohemiancoding.com/sketch/ns">
    <!-- Generator: Sketch 3.2.2 (9983) - http://www.bohemiancoding.com/sketch -->
    <title>57 - Geeky (Flat)</title>
    <desc>Created with Sketch.</desc>
    <defs></defs>
    <g id="Page-1" stroke="none" stroke-width="1" fill="none" fill-rule="evenodd" sketch:type="MSPage">
        <g id="57---Geeky-(Flat)" sketch:type="MSLayerGroup">
            <path d="M29.392,48.996 C40.639,49.152 46.912,44.615 50.4,39.807 C54.003,34.841 55.164,28.524 54.047,22.485 C50.004,0.639 29.392,0.823 29.392,0.823 C29.392,0.823 8.781,0.639 4.738,22.485 C3.621,28.524 4.782,34.841 8.385,39.807 C11.872,44.615 18.146,49.152 29.392,48.996" id="Fill-56" fill="#FDC794" sketch:type="MSShapeGroup"></path>
            <path d="M23.665,39.073 L42.665,37.073" id="Path" stroke="#F9A671" stroke-width="2" stroke-linecap="round" stroke-linejoin="round" sketch:type="MSShapeGroup"></path>
            <path d="M4.499,24.121 C4.046,23.693 3.514,23.435 2.939,23.435 C1.316,23.435 0,25.415 0,27.859 C0,30.302 1.316,32.283 2.939,32.283 C3.626,32.283 4.25,31.913 4.75,31.318 C4.297,28.966 4.218,26.534 4.499,24.121" id="Fill-513" fill="#F9A671" sketch:type="MSShapeGroup"></path>
            <path d="M57.823,20.295 C57.259,17.918 55.523,16.296 53.943,16.673 C53.452,16.79 53.045,17.103 52.719,17.528 C53.257,19.043 53.713,20.682 54.047,22.485 C54.201,23.321 54.308,24.164 54.375,25.007 C54.895,25.291 55.447,25.409 55.983,25.281 C57.562,24.904 58.386,22.672 57.823,20.295" id="Fill-514" fill="#F9A671" sketch:type="MSShapeGroup"></path>
            <path d="M31.452,13 C31.452,6.367 29.979,1.455 24.452,1.455 M39.452,13 C39.452,6.367 35.427,1 30.452,1 M35.452,14 C35.452,6.814 31.874,1 27.452,1 M27.452,12.25 C27.452,6.723 24.768,2.25 21.452,2.25" id="Stroke-515" stroke="#5E5F62" stroke-width="2" stroke-linecap="round" sketch:type="MSShapeGroup"></path>
            <path d="M27.05,39.684 L27.05,44 L33.578,43.637 L33.578,38.997 L27.05,39.684" id="Fill-516" fill="#EDF0F1" sketch:type="MSShapeGroup"></path>
            <path d="M33.578,38.997 L33.578,43.637 L39,43.336 L39,38.426 L33.578,38.997" id="Fill-517" fill="#FFFFFF" sketch:type="MSShapeGroup"></path>
            <path d="M43.452,25.5 C43.452,26.328 42.781,27 41.952,27 C41.124,27 40.452,26.328 40.452,25.5 C40.452,24.672 41.124,24 41.952,24 C42.781,24 43.452,24.672 43.452,25.5" id="Fill-605" fill="#7F5B53" sketch:type="MSShapeGroup"></path>
            <path d="M28.452,24.5 C28.452,25.328 27.781,26 26.952,26 C26.124,26 25.452,25.328 25.452,24.5 C25.452,23.671 26.124,23 26.952,23 C27.781,23 28.452,23.671 28.452,24.5" id="Fill-606" fill="#7F5B53" sketch:type="MSShapeGroup"></path>
            <path d="M52.094,15.923 L46.919,20.189 C46.022,17.201 43.737,15.033 40.984,14.885 C38.193,14.746 35.763,16.713 34.669,19.59 C34.181,19.272 33.624,19.079 33.098,19.068 C32.568,19.059 32.024,19.231 31.543,19.536 C30.371,16.413 27.657,14.171 24.418,13.996 C20.569,13.787 17.285,16.545 16.235,20.373 L6.545,16.271 C6.299,16.873 6.066,17.498 5.851,18.149 L15.907,22.407 C15.896,22.602 15.879,22.795 15.879,22.993 C15.879,27.959 19.528,32 24.014,32 C24.148,32 24.282,31.996 24.417,31.989 C28.762,31.757 32.165,27.805 32.165,22.993 C32.165,22.604 32.135,22.224 32.092,21.848 L32.165,21.848 C32.165,21.647 32.315,21.471 32.404,21.384 C32.62,21.172 32.89,21.05 33.057,21.068 C33.425,21.075 34.05,21.537 34.05,21.879 L34.12,21.879 C34.079,22.244 34.05,22.614 34.05,22.993 C34.05,27.468 37.027,31.108 40.685,31.108 C40.785,31.108 40.885,31.105 40.984,31.1 C44.544,30.909 47.331,27.348 47.331,22.993 C47.331,22.813 47.319,22.636 47.31,22.459 L52.846,17.896 C52.613,17.211 52.362,16.554 52.094,15.923 L52.094,15.923 Z M24.31,29.991 C20.793,30.188 17.879,26.969 17.879,22.993 C17.879,19.129 20.632,15.985 24.015,15.985 C24.113,15.985 24.211,15.988 24.31,15.994 C27.593,16.17 30.165,19.245 30.165,22.993 C30.165,26.742 27.593,29.816 24.31,29.991 L24.31,29.991 Z M40.877,29.102 C38.253,29.285 36.05,26.449 36.05,22.993 C36.05,19.621 38.13,16.877 40.685,16.877 C40.75,16.877 40.813,16.879 40.877,16.883 C43.333,17.015 45.331,19.756 45.331,22.993 C45.331,26.23 43.333,28.971 40.877,29.102 L40.877,29.102 Z" id="Fill-648" fill="#556080" sketch:type="MSShapeGroup"></path>
        </g>
    </g>
</svg>