<?xml version="1.0" encoding="UTF-8" standalone="no"?>
<svg width="42px" height="43px" viewBox="0 0 42 43" version="1.1" xmlns="http://www.w3.org/2000/svg" xmlns:xlink="http://www.w3.org/1999/xlink" xmlns:sketch="http://www.bohemiancoding.com/sketch/ns">
    <!-- Generator: Sketch 3.2.2 (9983) - http://www.bohemiancoding.com/sketch -->
    <title>168 - Gentleman (Flat)</title>
    <desc>Created with Sketch.</desc>
    <defs></defs>
    <g id="Page-1" stroke="none" stroke-width="1" fill="none" fill-rule="evenodd" sketch:type="MSPage">
        <g id="168---Gentleman-(Flat)" sketch:type="MSLayerGroup">
            <path d="M42,21.553 C42,33.151 32.598,42.553 21,42.553 C9.402,42.553 0,33.151 0,21.553 C0,9.955 9.402,0.553 21,0.553 C32.598,0.553 42,9.955 42,21.553" id="Fill-32" fill="#FBD971" sketch:type="MSShapeGroup"></path>
            <path d="M18,14.553 C18,17.867 15.314,20.553 12,20.553 C8.686,20.553 6,17.867 6,14.553 C6,11.239 8.686,8.553 12,8.553 C15.314,8.553 18,11.239 18,14.553" id="Fill-234" fill="#FFFFFF" sketch:type="MSShapeGroup"></path>
            <path d="M36,14.553 C36,17.867 33.314,20.553 30,20.553 C26.686,20.553 24,17.867 24,14.553 C24,11.239 26.686,8.553 30,8.553 C33.314,8.553 36,11.239 36,14.553 L36,14.553 Z" id="Fill-235" fill="#D0E8F9" sketch:type="MSShapeGroup"></path>
            <path d="M36,14.553 C36,17.867 33.314,20.553 30,20.553 C26.686,20.553 24,17.867 24,14.553 C24,11.239 26.686,8.553 30,8.553 C33.314,8.553 36,11.239 36,14.553 L36,14.553 Z" id="Stroke-236" stroke="#556080" stroke-width="2" sketch:type="MSShapeGroup"></path>
            <path d="M32.419,29.257 C32.073,29.257 31.759,29.065 31.581,28.769 C29.251,24.909 25.946,23.719 25.946,23.719 C23.992,23.137 22.426,24.213 21.596,25 C21.234,25.342 20.658,25.342 20.297,25 C19.466,24.213 17.9,23.137 15.946,23.719 C15.946,23.719 12.749,24.909 10.419,28.77 C10.241,29.065 9.926,29.257 9.581,29.257 L7.47,29.257 C6.607,29.257 6.176,30.299 6.785,30.909 L7.994,32.117 C9.364,33.487 11.222,34.257 13.159,34.257 C15.3,34.257 17.324,33.308 18.721,31.685 C19.429,30.862 20.242,30.178 20.946,30.257 C21.65,30.178 22.463,30.862 23.171,31.685 C24.568,33.308 26.592,34.257 28.733,34.257 L28.841,34.257 C30.778,34.257 32.636,33.487 34.006,32.117 L35.215,30.909 C35.824,30.299 35.392,29.257 34.53,29.257 L32.419,29.257" id="Fill-237" fill="#414141" sketch:type="MSShapeGroup"></path>
            <path d="M15,14.553 C15,16.21 13.657,17.553 12,17.553 C10.343,17.553 9,16.21 9,14.553 C9,12.896 10.343,11.553 12,11.553 C13.657,11.553 15,12.896 15,14.553" id="Fill-333" fill="#AF8066" sketch:type="MSShapeGroup"></path>
            <path d="M36,17.553 L34,17.553 C34,21.608 37.12,26.111 41.386,26.513 C41.543,25.865 41.668,25.206 41.764,24.536 C38.501,24.365 36,20.714 36,17.553" id="Fill-374" fill="#556080" sketch:type="MSShapeGroup"></path>
        </g>
    </g>
</svg>