<?xml version="1.0" encoding="UTF-8" standalone="no"?>
<svg width="52px" height="57px" viewBox="0 0 52 57" version="1.1" xmlns="http://www.w3.org/2000/svg" xmlns:xlink="http://www.w3.org/1999/xlink" xmlns:sketch="http://www.bohemiancoding.com/sketch/ns">
    <!-- Generator: Sketch 3.2.2 (9983) - http://www.bohemiancoding.com/sketch -->
    <title>123 - Ginger (Flat)</title>
    <desc>Created with Sketch.</desc>
    <defs></defs>
    <g id="Page-1" stroke="none" stroke-width="1" fill="none" fill-rule="evenodd" sketch:type="MSPage">
        <g id="123---Ginger-(Flat)" sketch:type="MSLayerGroup">
            <path d="M26.278,0 C12.252,0 0.778,11.475 0.778,25.5 L0.778,50 C0.778,52.2 2.578,54 4.778,54 L11.555,54 C15.715,56.021 20.792,57 26.278,57 C31.763,57 36.841,56.021 41,54 L47.778,54 C49.977,54 51.778,52.2 51.778,50 L51.778,25.5 C51.778,11.475 40.303,0 26.278,0" id="Fill-6" fill="#6E5847" sketch:type="MSShapeGroup"></path>
            <path d="M1.647,29.894 C1.083,32.001 0.778,34.215 0.778,36.5 C0.778,50.583 12.194,57 26.278,57 C40.361,57 51.778,50.583 51.778,36.5 C51.778,22.842 40.272,11.661 26.778,11 L25.778,11 C12.283,11.661 0.778,22.842 0.778,36.5 C0.778,50.583 12.194,57 26.278,57 C40.361,57 51.778,50.583 51.778,36.5" id="Fill-11" fill="#FDC794" sketch:type="MSShapeGroup"></path>
            <path d="M37,41.676 C37,47.751 32.075,52.676 26,52.676 C19.925,52.676 15,47.751 15,41.676 L37,41.676" id="Fill-51" fill="#802D40" sketch:type="MSShapeGroup"></path>
            <path d="M22,41.676 L26,41.676 L26,47.676 L22,47.676 L22,41.676 Z" id="Fill-52" fill="#ECF0F0" sketch:type="MSShapeGroup"></path>
            <path d="M26,41.676 L30,41.676 L30,45.676 L26,45.676 L26,41.676 Z" id="Fill-53" fill="#ECF0F0" sketch:type="MSShapeGroup"></path>
            <path d="M23,26.176 C23,30.318 20.314,33.676 17,33.676 C13.686,33.676 11,30.318 11,26.176 C11,22.034 13.686,18.676 17,18.676 C20.314,18.676 23,22.034 23,26.176" id="Fill-85" fill="#FFFFFF" sketch:type="MSShapeGroup"></path>
            <path d="M20,26.176 C20,28.661 18.657,30.676 17,30.676 C15.343,30.676 14,28.661 14,26.176 C14,23.69 15.343,21.676 17,21.676 C18.657,21.676 20,23.69 20,26.176" id="Fill-86" fill="#6E5847" sketch:type="MSShapeGroup"></path>
            <path d="M41,26.176 C41,30.318 38.314,33.676 35,33.676 C31.686,33.676 29,30.318 29,26.176 C29,22.034 31.686,18.676 35,18.676 C38.314,18.676 41,22.034 41,26.176" id="Fill-87" fill="#FFFFFF" sketch:type="MSShapeGroup"></path>
            <path d="M38,26.176 C38,28.661 36.657,30.676 35,30.676 C33.343,30.676 32,28.661 32,26.176 C32,23.69 33.343,21.676 35,21.676 C36.657,21.676 38,23.69 38,26.176" id="Fill-88" fill="#6E5847" sketch:type="MSShapeGroup"></path>
            <path d="M8.405,35.72 C8.323,35.174 8.699,34.665 9.245,34.582 C9.791,34.5 10.3,34.876 10.382,35.422 C10.465,35.968 10.089,36.478 9.542,36.56 C8.996,36.642 8.487,36.266 8.405,35.72" id="Fill-98" fill="#6E5847" sketch:type="MSShapeGroup"></path>
            <path d="M12.807,38.091 C12.725,37.545 13.101,37.036 13.647,36.953 C14.193,36.871 14.702,37.247 14.784,37.793 C14.867,38.339 14.491,38.849 13.944,38.931 C13.398,39.013 12.889,38.637 12.807,38.091" id="Fill-99" fill="#6E5847" sketch:type="MSShapeGroup"></path>
            <path d="M8.011,39.824 C7.929,39.278 8.305,38.769 8.851,38.687 C9.397,38.604 9.907,38.98 9.989,39.527 C10.071,40.073 9.695,40.582 9.149,40.664 C8.603,40.746 8.094,40.37 8.011,39.824" id="Fill-100" fill="#6E5847" sketch:type="MSShapeGroup"></path>
            <path d="M42.595,35.72 C42.677,35.174 42.301,34.665 41.755,34.582 C41.209,34.5 40.7,34.876 40.618,35.422 C40.535,35.968 40.911,36.478 41.458,36.56 C42.004,36.642 42.513,36.266 42.595,35.72" id="Fill-101" fill="#6E5847" sketch:type="MSShapeGroup"></path>
            <path d="M38.193,38.091 C38.276,37.545 37.899,37.036 37.353,36.953 C36.807,36.871 36.298,37.247 36.216,37.793 C36.134,38.339 36.509,38.849 37.056,38.931 C37.602,39.013 38.111,38.637 38.193,38.091" id="Fill-102" fill="#6E5847" sketch:type="MSShapeGroup"></path>
            <path d="M42.989,39.824 C43.071,39.278 42.695,38.769 42.149,38.687 C41.603,38.604 41.093,38.98 41.011,39.527 C40.929,40.073 41.305,40.582 41.851,40.664 C42.397,40.746 42.906,40.37 42.989,39.824" id="Fill-103" fill="#6E5847" sketch:type="MSShapeGroup"></path>
            <path id="Stroke-129" stroke="#0096E6" stroke-width="2" stroke-linecap="round" stroke-linejoin="round" sketch:type="MSShapeGroup"></path>
        </g>
    </g>
</svg>