<?xml version="1.0" encoding="UTF-8" standalone="no"?>
<svg width="58px" height="53px" viewBox="0 0 58 53" version="1.1" xmlns="http://www.w3.org/2000/svg" xmlns:xlink="http://www.w3.org/1999/xlink" xmlns:sketch="http://www.bohemiancoding.com/sketch/ns">
    <!-- Generator: Sketch 3.2.2 (9983) - http://www.bohemiancoding.com/sketch -->
    <title>87 - Goofy (Flat)</title>
    <desc>Created with Sketch.</desc>
    <defs></defs>
    <g id="Page-1" stroke="none" stroke-width="1" fill="none" fill-rule="evenodd" sketch:type="MSPage">
        <g id="87---Goofy-(Flat)" sketch:type="MSLayerGroup" transform="translate(0.000000, 1.000000)">
            <path d="M54.046,24.489 C50.004,2.643 29.392,2.828 29.392,2.828 C29.392,2.828 8.781,2.643 4.738,24.489 C3.621,30.529 4.782,36.845 8.385,41.812 C11.872,46.619 18.146,51.156 29.392,51 C32.922,51.05 35.961,50.635 38.579,49.896 L34,45.317 C35.466,44.722 36.789,43.845 37.891,42.744 C38.956,41.678 39.93,40.521 40.523,39.113 L45.88,44.469 C46.249,44.838 46.523,45.264 46.717,45.718 C48.197,44.503 49.414,43.17 50.4,41.812 C54.003,36.845 55.164,30.529 54.046,24.489" id="Fill-101" fill="#FDC794" sketch:type="MSShapeGroup"></path>
            <path d="M37.891,42.744 C36.789,43.846 35.466,44.722 34,45.317 L39.516,50.833 C41.072,52.389 43.617,52.389 45.173,50.833 L45.88,50.126 C47.436,48.571 47.436,46.025 45.88,44.469 L40.523,39.113 C39.93,40.521 38.956,41.678 37.891,42.744" id="Fill-112" fill="#FB7B76" sketch:type="MSShapeGroup"></path>
            <path d="M42.345,46.591 C41.172,45.418 38.391,42.609 38,43" id="Stroke-113" stroke="#E64C3C" stroke-width="2" stroke-linecap="round" stroke-linejoin="round" sketch:type="MSShapeGroup"></path>
            <path d="M41,35 C41,41.075 36.075,46 30,46 C23.925,46 19,41.075 19,35" id="Stroke-116" stroke="#F9A671" stroke-width="2" stroke-linecap="round" stroke-linejoin="round" sketch:type="MSShapeGroup"></path>
            <path id="Stroke-117" stroke="#0096E6" stroke-width="2" stroke-linecap="round" stroke-linejoin="round" sketch:type="MSShapeGroup"></path>
            <path d="M4.499,26.126 C4.046,25.697 3.514,25.439 2.939,25.439 C1.316,25.439 0,27.42 0,29.863 C0,32.306 1.316,34.287 2.939,34.287 C3.626,34.287 4.25,33.918 4.75,33.323 C4.297,30.971 4.218,28.539 4.499,26.126" id="Fill-182" fill="#F9A671" sketch:type="MSShapeGroup"></path>
            <path d="M57.823,22.299 C57.259,19.922 55.523,18.301 53.943,18.677 C53.452,18.795 53.045,19.107 52.719,19.532 C53.257,21.047 53.713,22.686 54.046,24.489 C54.201,25.326 54.308,26.168 54.375,27.012 C54.895,27.296 55.447,27.413 55.983,27.285 C57.562,26.909 58.386,24.676 57.823,22.299" id="Fill-183" fill="#F9A671" sketch:type="MSShapeGroup"></path>
            <path d="M13.901,12 L8.901,7 M16.901,9 L13.901,3 M20.9,7 L18.901,1 M25.901,6 L24.901,0 M29.9,6 L29.9,0 M33.901,6 L35.9,0 M37.901,7 L39.901,1 M40.901,9 L43.901,3" id="Stroke-184" stroke="#5E5F62" stroke-width="2" stroke-linecap="round" sketch:type="MSShapeGroup"></path>
            <path d="M35.5,14 C33.709,14 32.049,14.489 30.679,15.324 C29.336,16.144 27.664,16.144 26.321,15.324 C24.951,14.489 23.291,14 21.5,14 C16.806,14 13,17.358 13,21.5 C13,25.642 16.806,29 21.5,29 C23.291,29 24.951,28.51 26.321,27.676 C27.664,26.856 29.336,26.856 30.679,27.676 C32.049,28.51 33.709,29 35.5,29 C40.194,29 44,25.642 44,21.5 C44,17.358 40.194,14 35.5,14" id="Fill-300" fill="#FFFFFF" sketch:type="MSShapeGroup"></path>
            <path d="M25,23 C25,24.104 24.105,25 23,25 C21.895,25 21,24.104 21,23 C21,21.895 21.895,21 23,21 C24.105,21 25,21.895 25,23" id="Fill-301" fill="#7F5B53" sketch:type="MSShapeGroup"></path>
            <path d="M38,22 C38,23.657 36.657,25 35,25 C33.343,25 32,23.657 32,22 C32,20.343 33.343,19 35,19 C36.657,19 38,20.343 38,22" id="Fill-302" fill="#7F5B53" sketch:type="MSShapeGroup"></path>
        </g>
    </g>
</svg>