<?xml version="1.0" encoding="UTF-8" standalone="no"?>
<svg width="42px" height="47px" viewBox="0 0 42 47" version="1.1" xmlns="http://www.w3.org/2000/svg" xmlns:xlink="http://www.w3.org/1999/xlink" xmlns:sketch="http://www.bohemiancoding.com/sketch/ns">
    <!-- Generator: Sketch 3.2.2 (9983) - http://www.bohemiancoding.com/sketch -->
    <title>195 - Grieved (Flat)</title>
    <desc>Created with Sketch.</desc>
    <defs></defs>
    <g id="Page-1" stroke="none" stroke-width="1" fill="none" fill-rule="evenodd" sketch:type="MSPage">
        <g id="195---Grieved-(Flat)" sketch:type="MSLayerGroup">
            <path d="M21,5 C18.987,5 17.047,5.3 15.204,5.829 C15.705,7.437 16,9.01 16,10 C16,12.75 13.75,15 11,15 C8.648,15 6.674,13.35 6.148,11.153 C2.35,14.953 0,20.202 0,26 C0,37.598 9.402,47 21,47 C32.598,47 42,37.598 42,26 C42,14.402 32.598,5 21,5" id="Fill-57" fill="#FBD971" sketch:type="MSShapeGroup"></path>
            <path d="M10,40 C10,33.925 14.925,29 21,29 C27.075,29 32,33.925 32,40" id="Stroke-177" stroke="#F0C419" stroke-width="2" stroke-linecap="round" stroke-linejoin="round" sketch:type="MSShapeGroup"></path>
            <path d="M11,15 L11,15 C8.25,15 6,12.75 6,10 C6,7.25 8.25,0 11,0 C13.75,0 16,7.25 16,10 C16,12.75 13.75,15 11,15" id="Fill-178" fill="#48A0DC" sketch:type="MSShapeGroup"></path>
            <path d="M27,17 C27,20.869 30.131,24 34,24 M15,17 C15,20.869 11.869,24 8,24" id="Stroke-179" stroke="#F29C1F" stroke-width="2" stroke-linecap="round" stroke-linejoin="round" sketch:type="MSShapeGroup"></path>
        </g>
    </g>
</svg>