<?xml version="1.0" encoding="UTF-8" standalone="no"?>
<svg width="58px" height="52px" viewBox="0 0 58 52" version="1.1" xmlns="http://www.w3.org/2000/svg" xmlns:xlink="http://www.w3.org/1999/xlink" xmlns:sketch="http://www.bohemiancoding.com/sketch/ns">
    <!-- Generator: Sketch 3.2.2 (9983) - http://www.bohemiancoding.com/sketch -->
    <title>73 - Happy (Flat)</title>
    <desc>Created with Sketch.</desc>
    <defs></defs>
    <g id="Page-1" stroke="none" stroke-width="1" fill="none" fill-rule="evenodd" sketch:type="MSPage">
        <g id="73---Happy-(Flat)" sketch:type="MSLayerGroup">
            <path d="M29.392,51.996 C40.639,52.152 46.912,47.615 50.4,42.807 C54.003,37.841 55.164,31.525 54.046,25.485 C50.004,3.639 29.392,3.823 29.392,3.823 C29.392,3.823 8.781,3.639 4.738,25.485 C3.621,31.525 4.782,37.841 8.385,42.807 C11.872,47.615 18.146,52.152 29.392,51.996" id="Fill-83" fill="#FDC794" sketch:type="MSShapeGroup"></path>
            <path d="M4.499,27.122 C4.046,26.693 3.514,26.435 2.939,26.435 C1.316,26.435 0,28.415 0,30.859 C0,33.302 1.316,35.283 2.939,35.283 C3.626,35.283 4.25,34.913 4.75,34.319 C4.297,31.967 4.218,29.534 4.499,27.122" id="Fill-206" fill="#F9A671" sketch:type="MSShapeGroup"></path>
            <path d="M57.823,23.295 C57.26,20.918 55.523,19.296 53.943,19.673 C53.452,19.79 53.045,20.103 52.719,20.527 C53.257,22.043 53.713,23.682 54.046,25.485 C54.201,26.321 54.308,27.164 54.375,28.007 C54.895,28.291 55.447,28.409 55.983,28.281 C57.562,27.904 58.386,25.671 57.823,23.295" id="Fill-207" fill="#F9A671" sketch:type="MSShapeGroup"></path>
            <path d="M13.901,12.996 L8.901,7.996 M16.901,9.996 L13.901,3.996 M20.901,7.996 L18.901,1.996 M25.901,6.996 L24.9,0.996 M29.901,6.996 L29.901,0.996 M33.9,6.996 L35.901,0.996 M37.901,7.996 L39.9,1.996 M40.901,9.996 L43.901,3.996" id="Stroke-208" stroke="#5E5F62" stroke-width="2" stroke-linecap="round" sketch:type="MSShapeGroup"></path>
            <path d="M28,23 C28,26.314 25.314,29 22,29 C18.686,29 16,26.314 16,23 C16,19.686 18.686,17 22,17 C25.314,17 28,19.686 28,23" id="Fill-387" fill="#FFFFFF" sketch:type="MSShapeGroup"></path>
            <path d="M44,23 C44,27.418 40.418,31 36,31 C31.582,31 28,27.418 28,23 C28,18.582 31.582,15 36,15 C40.418,15 44,18.582 44,23" id="Fill-388" fill="#FFFFFF" sketch:type="MSShapeGroup"></path>
            <path d="M24,23 C24,24.104 23.105,25 22,25 C20.895,25 20,24.104 20,23 C20,21.895 20.895,21 22,21 C23.105,21 24,21.895 24,23" id="Fill-389" fill="#7F5B53" sketch:type="MSShapeGroup"></path>
            <path d="M39,23 C39,24.657 37.657,26 36,26 C34.343,26 33,24.657 33,23 C33,21.343 34.343,20 36,20 C37.657,20 39,21.343 39,23" id="Fill-390" fill="#7F5B53" sketch:type="MSShapeGroup"></path>
            <path d="M19,43.728 C28.803,48.837 40.87,45.04 45.98,35.237 M18,46 C18,43.789 19.789,42 22,42 M44,34 C46.211,34 48,35.789 48,38" id="Stroke-401" stroke="#F9A671" stroke-width="2" stroke-linecap="round" stroke-linejoin="round" sketch:type="MSShapeGroup"></path>
        </g>
    </g>
</svg>