<?xml version="1.0" encoding="UTF-8" standalone="no"?>
<svg width="52px" height="58px" viewBox="0 0 52 58" version="1.1" xmlns="http://www.w3.org/2000/svg" xmlns:xlink="http://www.w3.org/1999/xlink" xmlns:sketch="http://www.bohemiancoding.com/sketch/ns">
    <!-- Generator: Sketch 3.2.2 (9983) - http://www.bohemiancoding.com/sketch -->
    <title>35 - Harry Potter (Flat)</title>
    <desc>Created with Sketch.</desc>
    <defs></defs>
    <g id="Page-1" stroke="none" stroke-width="1" fill="none" fill-rule="evenodd" sketch:type="MSPage">
        <g id="35---Harry-Potter-(Flat)" sketch:type="MSLayerGroup">
            <path d="M36.781,16 C25.948,14.333 21.781,20 21.781,20 C14.031,19.25 10.781,17 10.781,17 C9.105,18.948 7.187,19.956 5.781,20.474 L5.781,50 C5.781,52.2 7.581,54 9.781,54 L43.781,54 C45.981,54 47.781,52.2 47.781,50 L47.781,18 C39.698,22.75 36.781,16 36.781,16" id="Fill-71" fill="#FFDB2B" sketch:type="MSShapeGroup"></path>
            <path d="M42,35 C42,38.314 39.314,41 36,41 C32.686,41 30,38.314 30,35 C30,31.686 32.686,29 36,29 C39.314,29 42,31.686 42,35 L42,35 Z" id="Fill-293" fill="#8697CB" sketch:type="MSShapeGroup"></path>
            <path d="M42,35 C42,38.314 39.314,41 36,41 C32.686,41 30,38.314 30,35 C30,31.686 32.686,29 36,29 C39.314,29 42,31.686 42,35 L42,35 Z" id="Stroke-294" stroke="#556080" stroke-width="2" sketch:type="MSShapeGroup"></path>
            <path d="M24,35 C24,38.314 21.314,41 18,41 C14.686,41 12,38.314 12,35 C12,31.686 14.686,29 18,29 C21.314,29 24,31.686 24,35 L24,35 Z" id="Fill-295" fill="#8697CB" sketch:type="MSShapeGroup"></path>
            <path d="M24,35 C24,38.314 21.314,41 18,41 C14.686,41 12,38.314 12,35 C12,31.686 14.686,29 18,29 C21.314,29 24,31.686 24,35 L24,35 Z" id="Stroke-296" stroke="#556080" stroke-width="2" sketch:type="MSShapeGroup"></path>
            <path d="M38.476,58 L15.086,58 C14.365,58 13.781,57.415 13.781,56.695 L13.781,54 L39.781,54 L39.781,56.695 C39.781,57.415 39.197,58 38.476,58" id="Fill-297" fill="#FEC722" sketch:type="MSShapeGroup"></path>
            <path d="M51.781,18 C51.161,13.513 49.195,10.52 47.31,8.966 C46.394,8.211 45.871,7.114 45.575,5.965 C44.776,2.863 41.836,1.208 38.781,1 C36.834,0.867 35.135,1.484 33.192,2.261 C32.582,2.506 31.84,2.251 31.608,1.636 C30.414,-1.535 23.575,0.091 18.359,5.385 C18.109,5.639 17.675,5.51 17.626,5.157 C17.453,3.927 17.363,1.709 18.781,1 C18.781,1 14.374,-1.479 10.595,1.826 C9.443,2.833 8.691,4.219 8.306,5.701 C8.214,6.056 8.121,6.435 8.037,6.808 C7.805,7.841 6.48,8.193 5.799,7.381 C5.786,7.365 5.772,7.348 5.758,7.331 C5.121,6.553 3.897,6.674 3.499,7.598 C1.378,12.52 -1.911,23.558 5.781,33 L5.781,20.474 C7.187,19.956 9.105,18.948 10.781,17 C10.781,17 14.031,19.25 21.781,20 C21.781,20 25.948,14.333 36.781,16 C36.781,16 39.698,22.75 47.781,18 L47.781,33 C47.781,33 53.133,27.785 51.781,18" id="Fill-298" fill="#5E5F62" sketch:type="MSShapeGroup"></path>
            <path d="M24,35.5 C24,34.672 25.343,34 27,34 C28.657,34 30,34.672 30,35.5" id="Stroke-347" stroke="#556080" stroke-width="2" stroke-linecap="round" sketch:type="MSShapeGroup"></path>
            <path d="M33,19 L30,23 L35,23 L32,27" id="Stroke-348" stroke="#F18D46" stroke-width="2" stroke-linecap="round" stroke-linejoin="round" sketch:type="MSShapeGroup"></path>
            <path d="M20,47 L34,47" id="Stroke-383" stroke="#F18D46" stroke-width="2" stroke-linecap="round" sketch:type="MSShapeGroup"></path>
        </g>
    </g>
</svg>