<?xml version="1.0" encoding="UTF-8" standalone="no"?>
<svg width="52px" height="57px" viewBox="0 0 52 57" version="1.1" xmlns="http://www.w3.org/2000/svg" xmlns:xlink="http://www.w3.org/1999/xlink" xmlns:sketch="http://www.bohemiancoding.com/sketch/ns">
    <!-- Generator: Sketch 3.2.2 (9983) - http://www.bohemiancoding.com/sketch -->
    <title>38 - Hipster (Flat)</title>
    <desc>Created with Sketch.</desc>
    <defs></defs>
    <g id="Page-1" stroke="none" stroke-width="1" fill="none" fill-rule="evenodd" sketch:type="MSPage">
        <g id="38---Hipster-(Flat)" sketch:type="MSLayerGroup">
            <path d="M25.745,19.744 C14.397,19.744 5.999,20.315 5,21 C4.993,21.085 4.968,49 4.968,49 C4.968,51.2 6.768,53 8.968,53 L42.968,53 C45.168,53 46.968,51.2 46.968,49 C46.968,49 47.011,21.12 47,21 C45.618,20.333 36.868,19.744 25.745,19.744" id="Fill-75" fill="#FFDB2B" sketch:type="MSShapeGroup"></path>
            <path d="M40.98,46.71 C41.17,46.519 41.28,46.26 41.28,46 C41.28,45.74 41.17,45.48 40.98,45.29 C40.61,44.92 39.94,44.92 39.57,45.29 C39.38,45.48 39.28,45.74 39.28,46 C39.28,46.27 39.38,46.519 39.57,46.71 C39.75,46.89 40.01,47 40.28,47 C40.54,47 40.8,46.89 40.98,46.71" id="Fill-131" fill="#556080" sketch:type="MSShapeGroup"></path>
            <path d="M40.28,44 C40.54,44 40.8,43.89 40.98,43.71 C41.17,43.519 41.28,43.26 41.28,43 C41.28,42.74 41.17,42.48 40.98,42.29 C40.61,41.92 39.94,41.92 39.57,42.29 C39.38,42.48 39.28,42.729 39.28,43 C39.28,43.27 39.38,43.519 39.57,43.71 C39.75,43.89 40.01,44 40.28,44" id="Fill-132" fill="#556080" sketch:type="MSShapeGroup"></path>
            <path d="M43.28,44 C43.54,44 43.8,43.89 43.99,43.7 C44.17,43.519 44.28,43.26 44.28,43 C44.28,42.74 44.17,42.48 43.99,42.29 C43.62,41.92 42.93,41.93 42.57,42.29 C42.38,42.48 42.28,42.74 42.28,43 C42.28,43.26 42.38,43.519 42.57,43.7 C42.75,43.89 43.01,44 43.28,44" id="Fill-133" fill="#556080" sketch:type="MSShapeGroup"></path>
            <path d="M42.57,45.29 C42.38,45.48 42.28,45.74 42.28,46 C42.28,46.27 42.38,46.519 42.57,46.71 C42.75,46.89 43.01,47 43.28,47 C43.54,47 43.8,46.89 43.98,46.71 C44.17,46.519 44.28,46.26 44.28,46 C44.28,45.74 44.17,45.48 43.98,45.29 C43.61,44.92 42.94,44.92 42.57,45.29" id="Fill-134" fill="#556080" sketch:type="MSShapeGroup"></path>
            <path d="M40.57,48.29 C40.38,48.48 40.28,48.74 40.28,49 C40.28,49.26 40.38,49.519 40.57,49.71 C40.76,49.89 41.01,50 41.28,50 C41.54,50 41.8,49.89 41.99,49.71 C42.17,49.519 42.28,49.26 42.28,49 C42.28,48.74 42.17,48.48 41.99,48.29 C41.62,47.92 40.94,47.92 40.57,48.29" id="Fill-135" fill="#556080" sketch:type="MSShapeGroup"></path>
            <path d="M37.57,48.29 C37.38,48.48 37.28,48.729 37.28,49 C37.28,49.26 37.38,49.519 37.57,49.71 C37.76,49.89 38.01,50 38.28,50 C38.54,50 38.8,49.899 38.98,49.71 C39.17,49.519 39.28,49.26 39.28,49 C39.28,48.74 39.17,48.48 38.98,48.29 C38.61,47.92 37.94,47.92 37.57,48.29" id="Fill-136" fill="#556080" sketch:type="MSShapeGroup"></path>
            <path d="M37.98,46.71 C38.17,46.519 38.28,46.26 38.28,46 C38.28,45.74 38.17,45.48 37.98,45.29 C37.61,44.92 36.94,44.92 36.57,45.29 C36.38,45.48 36.28,45.74 36.28,46 C36.28,46.27 36.38,46.519 36.57,46.71 C36.75,46.89 37.01,47 37.28,47 C37.54,47 37.8,46.89 37.98,46.71" id="Fill-137" fill="#556080" sketch:type="MSShapeGroup"></path>
            <path d="M34.57,48.29 C34.38,48.48 34.28,48.74 34.28,49 C34.28,49.26 34.38,49.519 34.57,49.71 C34.75,49.89 35.01,50 35.28,50 C35.54,50 35.8,49.89 35.98,49.71 C36.17,49.519 36.28,49.26 36.28,49 C36.28,48.74 36.17,48.48 35.99,48.29 C35.62,47.92 34.93,47.92 34.57,48.29" id="Fill-138" fill="#556080" sketch:type="MSShapeGroup"></path>
            <path d="M31.57,48.29 C31.38,48.48 31.28,48.74 31.28,49 C31.28,49.26 31.38,49.519 31.57,49.71 C31.76,49.89 32.01,50 32.28,50 C32.54,50 32.8,49.89 32.99,49.71 C33.17,49.519 33.28,49.26 33.28,49 C33.28,48.74 33.17,48.48 32.99,48.29 C32.62,47.92 31.94,47.92 31.57,48.29" id="Fill-139" fill="#556080" sketch:type="MSShapeGroup"></path>
            <path d="M28.57,48.29 C28.38,48.48 28.28,48.74 28.28,49 C28.28,49.26 28.38,49.519 28.57,49.71 C28.76,49.89 29.01,50 29.28,50 C29.54,50 29.8,49.89 29.98,49.71 C30.17,49.519 30.28,49.26 30.28,49 C30.28,48.74 30.17,48.48 29.98,48.29 C29.61,47.92 28.94,47.92 28.57,48.29" id="Fill-140" fill="#556080" sketch:type="MSShapeGroup"></path>
            <path d="M11.98,45.29 C11.61,44.92 10.94,44.92 10.57,45.29 C10.38,45.48 10.28,45.74 10.28,46 C10.28,46.26 10.38,46.519 10.57,46.71 C10.75,46.89 11.01,47 11.28,47 C11.54,47 11.8,46.89 11.98,46.71 C12.17,46.519 12.28,46.26 12.28,46 C12.28,45.74 12.17,45.48 11.98,45.29" id="Fill-141" fill="#556080" sketch:type="MSShapeGroup"></path>
            <path d="M11.28,44 C11.54,44 11.8,43.89 11.98,43.71 C12.17,43.519 12.28,43.26 12.28,43 C12.28,42.74 12.17,42.48 11.98,42.29 C11.62,41.92 10.93,41.92 10.57,42.29 C10.38,42.48 10.28,42.74 10.28,43 C10.28,43.26 10.38,43.519 10.57,43.7 C10.75,43.89 11.01,44 11.28,44" id="Fill-142" fill="#556080" sketch:type="MSShapeGroup"></path>
            <path d="M8.28,44 C8.54,44 8.8,43.89 8.98,43.71 C9.17,43.519 9.28,43.26 9.28,43 C9.28,42.74 9.17,42.48 8.98,42.29 C8.61,41.92 7.94,41.93 7.57,42.29 C7.38,42.48 7.28,42.729 7.28,43 C7.28,43.26 7.38,43.519 7.57,43.71 C7.75,43.89 8.01,44 8.28,44" id="Fill-143" fill="#556080" sketch:type="MSShapeGroup"></path>
            <path d="M8.98,45.29 C8.61,44.92 7.94,44.92 7.57,45.29 C7.38,45.48 7.28,45.74 7.28,46 C7.28,46.26 7.38,46.519 7.57,46.71 C7.75,46.89 8.01,47 8.28,47 C8.54,47 8.8,46.89 8.98,46.71 C9.17,46.519 9.28,46.26 9.28,46 C9.28,45.74 9.17,45.48 8.98,45.29" id="Fill-144" fill="#556080" sketch:type="MSShapeGroup"></path>
            <path d="M9.57,48.29 C9.38,48.48 9.28,48.729 9.28,49 C9.28,49.26 9.38,49.519 9.57,49.71 C9.76,49.899 10.02,50 10.28,50 C10.54,50 10.8,49.89 10.98,49.71 C11.17,49.519 11.28,49.26 11.28,49 C11.28,48.74 11.17,48.48 10.98,48.29 C10.61,47.92 9.94,47.92 9.57,48.29" id="Fill-145" fill="#556080" sketch:type="MSShapeGroup"></path>
            <path d="M12.57,48.29 C12.38,48.48 12.28,48.74 12.28,49 C12.28,49.26 12.38,49.519 12.57,49.71 C12.76,49.89 13.01,50 13.28,50 C13.54,50 13.8,49.89 13.99,49.71 C14.17,49.519 14.28,49.26 14.28,49 C14.28,48.74 14.17,48.48 13.99,48.29 C13.62,47.92 12.94,47.92 12.57,48.29" id="Fill-146" fill="#556080" sketch:type="MSShapeGroup"></path>
            <path d="M14.98,45.29 C14.62,44.92 13.94,44.92 13.57,45.29 C13.38,45.48 13.28,45.74 13.28,46 C13.28,46.26 13.38,46.519 13.57,46.71 C13.75,46.89 14.01,47 14.28,47 C14.54,47 14.8,46.89 14.98,46.71 C15.17,46.519 15.28,46.26 15.28,46 C15.28,45.74 15.17,45.48 14.98,45.29" id="Fill-147" fill="#556080" sketch:type="MSShapeGroup"></path>
            <path d="M15.57,48.29 C15.38,48.48 15.28,48.74 15.28,49 C15.28,49.26 15.38,49.519 15.57,49.71 C15.76,49.89 16.01,50 16.28,50 C16.54,50 16.8,49.89 16.98,49.71 C17.17,49.519 17.28,49.26 17.28,49 C17.28,48.74 17.17,48.48 16.98,48.29 C16.61,47.92 15.94,47.92 15.57,48.29" id="Fill-148" fill="#556080" sketch:type="MSShapeGroup"></path>
            <path d="M19.57,48.29 C19.38,48.48 19.28,48.74 19.28,49 C19.28,49.26 19.38,49.519 19.57,49.71 C19.76,49.89 20.01,50 20.28,50 C20.54,50 20.8,49.89 20.98,49.71 C21.17,49.519 21.28,49.26 21.28,49 C21.28,48.74 21.17,48.48 20.98,48.29 C20.61,47.92 19.94,47.92 19.57,48.29" id="Fill-149" fill="#556080" sketch:type="MSShapeGroup"></path>
            <path d="M22.57,48.29 C22.38,48.48 22.28,48.729 22.28,49 C22.28,49.26 22.38,49.519 22.57,49.71 C22.76,49.899 23.02,50 23.28,50 C23.54,50 23.8,49.89 23.99,49.71 C24.17,49.519 24.28,49.26 24.28,49 C24.28,48.729 24.17,48.48 23.99,48.29 C23.62,47.92 22.94,47.92 22.57,48.29" id="Fill-150" fill="#556080" sketch:type="MSShapeGroup"></path>
            <path d="M25.57,48.29 C25.38,48.48 25.28,48.74 25.28,49 C25.28,49.26 25.38,49.519 25.57,49.71 C25.75,49.89 26.01,50 26.28,50 C26.54,50 26.8,49.89 26.98,49.71 C27.17,49.519 27.28,49.26 27.28,49 C27.28,48.74 27.17,48.48 26.98,48.29 C26.62,47.92 25.93,47.92 25.57,48.29" id="Fill-151" fill="#556080" sketch:type="MSShapeGroup"></path>
            <path d="M26,25 C26,30.523 20.8,35 15.277,35 C9.754,35 5.277,30.523 5.277,25 L26,25" id="Fill-153" fill="#8697CB" sketch:type="MSShapeGroup"></path>
            <path d="M46.277,25 C46.277,30.523 41.8,35 36.277,35 C30.754,35 26.277,30.523 26.277,25 L46.277,25" id="Fill-154" fill="#8697CB" sketch:type="MSShapeGroup"></path>
            <path d="M32.277,45 L19.277,45 L32.277,39 L32.277,45 L32.277,45 Z" id="Fill-155" fill="#FFFFFF" sketch:type="MSShapeGroup"></path>
            <path d="M32.277,45 L19.277,45 L32.277,39 L32.277,45 L32.277,45 Z" id="Stroke-156" stroke="#F18D46" stroke-width="2" stroke-linecap="round" stroke-linejoin="round" sketch:type="MSShapeGroup"></path>
            <path d="M32.813,12 L18.547,12 C0.699,12 -3.344,17.586 3.793,21.361 L5,22 C3.458,21.184 12.617,20.427 25.68,20.427 C38.743,20.427 48.542,21.184 47,22 L47.893,21.718 L48.567,21.361 C55.703,17.586 50.661,12 32.813,12" id="Fill-217" fill="#E64C3C" sketch:type="MSShapeGroup"></path>
            <path d="M18.644,12 L32.91,12 C37.716,12 41.512,12.407 44.367,13.073 C41.556,7.697 35.929,0 29.471,0 L22.083,0 C15.625,0 9.998,7.697 7.187,13.073 C10.042,12.407 13.838,12 18.644,12" id="Fill-218" fill="#C03A2B" sketch:type="MSShapeGroup"></path>
            <path d="M37.695,57 L14.305,57 C13.584,57 13,56.415 13,55.695 L13,53 L39,53 L39,55.695 C39,56.415 38.416,57 37.695,57" id="Fill-258" fill="#FEC722" sketch:type="MSShapeGroup"></path>
            <path d="M9.277,28 L12.277,25 M13.277,30 L18.277,25 M30.277,28 L33.277,25 M34.277,30 L39.277,25" id="Stroke-512" stroke="#90BAE1" stroke-width="2" stroke-linecap="round" sketch:type="MSShapeGroup"></path>
            <path d="M15.277,36 C9.211,36 4.277,31.065 4.277,25 C4.277,24.447 4.725,24 5.277,24 L26,24 C26.552,24 27,24.447 27,25 C27,30.859 21.522,36 15.277,36 L15.277,36 Z M6.332,26 C6.831,30.494 10.652,34 15.277,34 C20.093,34 24.359,30.364 24.934,26 L6.332,26 L6.332,26 Z" id="Fill-567" fill="#556080" sketch:type="MSShapeGroup"></path>
            <path d="M36.277,36 C30.211,36 25.277,31.065 25.277,25 C25.277,24.447 25.725,24 26.277,24 L46.277,24 C46.829,24 47.277,24.447 47.277,25 C47.277,31.065 42.342,36 36.277,36 L36.277,36 Z M27.332,26 C27.831,30.494 31.652,34 36.277,34 C40.901,34 44.723,30.494 45.222,26 L27.332,26 L27.332,26 Z" id="Fill-568" fill="#556080" sketch:type="MSShapeGroup"></path>
        </g>
    </g>
</svg>