<?xml version="1.0" encoding="UTF-8" standalone="no"?>
<svg width="58px" height="52px" viewBox="0 0 58 52" version="1.1" xmlns="http://www.w3.org/2000/svg" xmlns:xlink="http://www.w3.org/1999/xlink" xmlns:sketch="http://www.bohemiancoding.com/sketch/ns">
    <!-- Generator: Sketch 3.2.2 (9983) - http://www.bohemiancoding.com/sketch -->
    <title>58 - Jew (Flat)</title>
    <desc>Created with Sketch.</desc>
    <defs></defs>
    <g id="Page-1" stroke="none" stroke-width="1" fill="none" fill-rule="evenodd" sketch:type="MSPage">
        <g id="58---Jew-(Flat)" sketch:type="MSLayerGroup">
            <path d="M54.046,25.485 C51.068,9.39 39.104,5.256 33.007,4.193 C32.77,4.152 32.676,3.867 32.842,3.692 L33.611,2.884 C34.521,1.927 34.081,0.243 32.778,0.027 C32.672,0.009 32.563,0 32.452,0 C31.352,0 30.119,0.792 29.452,2 L28.452,3.861 C24.37,4.139 8.177,6.449 4.711,25.637 C3.679,31.348 4.684,37.314 7.916,42.135 C11.299,47.182 17.623,52.159 29.392,51.996 C40.639,52.152 46.912,47.615 50.4,42.807 C54.003,37.841 55.164,31.524 54.046,25.485" id="Fill-57" fill="#FDC794" sketch:type="MSShapeGroup"></path>
            <path d="M21.368,43.041 C27.017,48.84 36.28,48.962 42.079,43.314" id="Path" stroke="#F9A671" stroke-width="2" stroke-linecap="round" stroke-linejoin="round" sketch:type="MSShapeGroup"></path>
            <path d="M20.152,44.392 C20.659,42.854 22.313,42.02 23.851,42.526" id="Path" stroke="#F9A671" stroke-width="2" stroke-linecap="round" stroke-linejoin="round" sketch:type="MSShapeGroup"></path>
            <path d="M40.986,42 C42.524,42.506 43.358,44.161 42.852,45.698" id="Path" stroke="#F9A671" stroke-width="2" stroke-linecap="round" stroke-linejoin="round" sketch:type="MSShapeGroup"></path>
            <path d="M35,23.667 C35,21.181 37.015,19.167 39.5,19.167 C41.985,19.167 44,21.181 44,23.667 C44,26.152 41.985,28.167 39.5,28.167 C37.015,28.167 35,26.152 35,23.667" id="Fill-430" fill="#FFFFFF" sketch:type="MSShapeGroup"></path>
            <path d="M15.675,24.5 C15.675,22.014 17.689,20 20.175,20 C22.66,20 24.675,22.014 24.675,24.5 C24.675,26.985 22.66,29 20.175,29 C17.689,29 15.675,26.985 15.675,24.5" id="Fill-431" fill="#FFFFFF" sketch:type="MSShapeGroup"></path>
            <path d="M28.132,37.856 C28.175,37.903 28.21,37.954 28.255,38 C30.507,40.344 36.485,40.419 37.778,37.599 C40,32.75 34.785,29.939 31.764,29.149 C30.808,28.899 29.041,28.977 28.332,29.279" id="Path" stroke="#F9A671" stroke-width="2" stroke-linecap="round" sketch:type="MSShapeGroup"></path>
            <path d="M4.499,27.121 C4.046,26.693 3.514,26.435 2.939,26.435 C1.316,26.435 0,28.415 0,30.859 C0,33.302 1.316,35.283 2.939,35.283 C3.626,35.283 4.25,34.913 4.75,34.318 C4.297,31.966 4.218,29.534 4.499,27.121" id="Fill-481" fill="#F9A671" sketch:type="MSShapeGroup"></path>
            <path d="M57.823,23.295 C57.259,20.918 55.523,19.296 53.943,19.673 C53.452,19.79 53.045,20.103 52.719,20.528 C53.257,22.043 53.713,23.682 54.046,25.485 C54.201,26.321 54.308,27.164 54.375,28.007 C54.895,28.291 55.447,28.409 55.983,28.281 C57.562,27.904 58.386,25.672 57.823,23.295" id="Fill-482" fill="#F9A671" sketch:type="MSShapeGroup"></path>
            <path id="Stroke-483" stroke="#0096E6" stroke-width="2" stroke-linecap="round" sketch:type="MSShapeGroup"></path>
            <path d="M45,34 C44.448,34 44,34.448 44,35 C44,35.552 44.448,36 45,36 C45.552,36 46,35.552 46,35 C46,34.448 45.552,34 45,34" id="Fill-484" fill="#F0785A" sketch:type="MSShapeGroup"></path>
            <path d="M41,31 C40.448,31 40,31.448 40,32 C40,32.552 40.448,33 41,33 C41.552,33 42,32.552 42,32 C42,31.448 41.552,31 41,31" id="Fill-485" fill="#F0785A" sketch:type="MSShapeGroup"></path>
            <path d="M46,30 C45.448,30 45,30.448 45,31 C45,31.552 45.448,32 46,32 C46.552,32 47,31.552 47,31 C47,30.448 46.552,30 46,30" id="Fill-486" fill="#F0785A" sketch:type="MSShapeGroup"></path>
            <path d="M14.245,28.257 C13.698,28.339 13.323,28.848 13.405,29.394 C13.487,29.94 13.996,30.316 14.542,30.234 C15.089,30.152 15.465,29.643 15.382,29.097 C15.3,28.55 14.791,28.175 14.245,28.257" id="Fill-487" fill="#F0785A" sketch:type="MSShapeGroup"></path>
            <path d="M18.647,30.628 C18.101,30.71 17.724,31.219 17.807,31.766 C17.889,32.312 18.398,32.688 18.944,32.605 C19.491,32.523 19.867,32.014 19.784,31.468 C19.702,30.922 19.193,30.545 18.647,30.628" id="Fill-488" fill="#F0785A" sketch:type="MSShapeGroup"></path>
            <path d="M13.851,32.361 C13.305,32.443 12.929,32.953 13.011,33.499 C13.094,34.045 13.603,34.421 14.149,34.339 C14.695,34.256 15.071,33.747 14.989,33.201 C14.907,32.655 14.397,32.279 13.851,32.361" id="Fill-489" fill="#F0785A" sketch:type="MSShapeGroup"></path>
            <path d="M32.842,3.694 L33.612,2.883 C34.522,1.927 34.081,0.243 32.779,0.027 C32.672,0.009 32.563,0 32.452,0 C31.352,0 29.452,0.9 29.452,2 L28.452,3.862 C25.798,4.045 18.035,5.091 11.97,11.061 C15.453,14.004 22.198,16 29.952,16 C37.266,16 43.668,14.219 47.296,11.548 C42.589,6.631 36.715,4.844 33.008,4.195 C32.77,4.153 32.676,3.868 32.842,3.694" id="Fill-518" fill="#8697CB" sketch:type="MSShapeGroup"></path>
            <path d="M19.97,26.13 C19.78,26.309 19.68,26.569 19.68,26.83 C19.68,27.099 19.78,27.35 19.97,27.54 C20.15,27.729 20.41,27.83 20.67,27.83 C20.94,27.83 21.2,27.729 21.38,27.54 C21.57,27.35 21.67,27.099 21.67,26.83 C21.67,26.569 21.57,26.309 21.38,26.12 C21,25.75 20.35,25.75 19.97,26.13" id="Fill-612" fill="#7F5B53" sketch:type="MSShapeGroup"></path>
            <path d="M40.71,25.29 C40.33,24.92 39.66,24.92 39.29,25.29 C39.11,25.479 39,25.74 39,26 C39,26.26 39.11,26.519 39.29,26.71 C39.48,26.889 39.74,27 40,27 C40.27,27 40.52,26.889 40.7,26.71 C40.89,26.519 41,26.26 41,26 C41,25.74 40.89,25.479 40.71,25.29" id="Fill-613" fill="#7F5B53" sketch:type="MSShapeGroup"></path>
        </g>
    </g>
</svg>