<?xml version="1.0" encoding="UTF-8" standalone="no"?>
<svg width="47px" height="43px" viewBox="0 0 47 43" version="1.1" xmlns="http://www.w3.org/2000/svg" xmlns:xlink="http://www.w3.org/1999/xlink" xmlns:sketch="http://www.bohemiancoding.com/sketch/ns">
    <!-- Generator: Sketch 3.2.2 (9983) - http://www.bohemiancoding.com/sketch -->
    <title>96 - Laughing (Flat)</title>
    <desc>Created with Sketch.</desc>
    <defs></defs>
    <g id="Page-1" stroke="none" stroke-width="1" fill="none" fill-rule="evenodd" sketch:type="MSPage">
        <g id="96---Laughing-(Flat)" sketch:type="MSLayerGroup">
            <path d="M44,18 L44,18 C42.26,8.157 33.842,1 23.5,1 C13.158,1 4.74,8.157 3,18 C1.337,18.661 0,20.602 0,22.5 C0,24.478 1.284,26.139 3.058,26.742 C5.21,36.052 13.536,43 23.5,43 C33.465,43 41.79,36.052 43.942,26.742 C45.716,26.139 47,24.478 47,22.5 C47,20.602 45.663,18.661 44,18" id="Fill-11" fill="#FFD581" sketch:type="MSShapeGroup"></path>
            <path d="M44,18 L44,18.001 C42.26,8.158 33.684,0.675 23.342,0.675 C12.999,0.675 4.74,8.157 3,18 C3,18 19.906,22.33 31.242,13.274 C31.797,12.83 32.604,12.934 33,13.524 C35.049,16.575 38.828,20.28 44,18" id="Fill-86" fill="#9D6019" sketch:type="MSShapeGroup"></path>
            <path d="M16.011,32 L16.011,32.019 C16.011,34.37 17.309,36.819 19.421,37.849 C20.737,38.491 22.308,39 24,39 C25.69,39 27.263,38.492 28.583,37.851 C30.705,36.82 32.007,34.36 32,32 L16.011,32" id="Fill-155" fill="#802D40" sketch:type="MSShapeGroup"></path>
            <path d="M14.379,29 C13.827,29 13.379,28.553 13.379,28 C13.379,25.808 14.611,23.897 16.419,22.925 C15.097,22.675 13.64,23.016 12.707,23.948 C12.316,24.339 11.684,24.339 11.293,23.948 C10.902,23.558 10.902,22.925 11.293,22.534 C13.531,20.296 17.606,20.296 19.845,22.534 C20.131,22.82 20.216,23.25 20.062,23.624 C19.907,23.997 19.542,24.241 19.138,24.241 C17.065,24.241 15.379,25.928 15.379,28 C15.379,28.553 14.932,29 14.379,29" id="Fill-179" fill="#B27821" sketch:type="MSShapeGroup"></path>
            <path d="M33.759,29 C33.206,29 32.759,28.553 32.759,28 C32.759,25.928 31.073,24.241 29,24.241 C28.596,24.241 28.231,23.997 28.076,23.624 C27.921,23.25 28.007,22.82 28.293,22.534 C30.531,20.296 34.606,20.296 36.845,22.534 C37.235,22.925 37.235,23.558 36.845,23.948 C36.454,24.339 35.821,24.339 35.431,23.948 C34.498,23.016 33.038,22.674 31.72,22.925 C33.527,23.897 34.759,25.808 34.759,28 C34.759,28.553 34.311,29 33.759,29" id="Fill-181" fill="#B27821" sketch:type="MSShapeGroup"></path>
            <path d="M24.007,35 C22.049,35 20.218,35.861 19.231,37.736 C19.296,37.771 19.355,37.817 19.421,37.849 C20.737,38.491 22.308,39 24,39 C25.69,39 27.263,38.492 28.583,37.851 C28.653,37.817 28.715,37.769 28.783,37.731 C27.794,35.859 25.963,35 24.007,35" id="Fill-231" fill="#E64C3C" sketch:type="MSShapeGroup"></path>
        </g>
    </g>
</svg>