<?xml version="1.0" encoding="UTF-8" standalone="no"?>
<svg width="58px" height="52px" viewBox="0 0 58 52" version="1.1" xmlns="http://www.w3.org/2000/svg" xmlns:xlink="http://www.w3.org/1999/xlink" xmlns:sketch="http://www.bohemiancoding.com/sketch/ns">
    <!-- Generator: Sketch 3.2.2 (9983) - http://www.bohemiancoding.com/sketch -->
    <title>80 - LOL (Flat)</title>
    <desc>Created with Sketch.</desc>
    <defs></defs>
    <g id="Page-1" stroke="none" stroke-width="1" fill="none" fill-rule="evenodd" sketch:type="MSPage">
        <g id="80---LOL-(Flat)" sketch:type="MSLayerGroup">
            <path d="M29.392,51.996 C40.639,52.152 46.912,47.615 50.4,42.807 C54.003,37.841 55.164,31.525 54.046,25.485 C50.004,3.639 29.392,3.823 29.392,3.823 C29.392,3.823 8.781,3.639 4.738,25.485 C3.621,31.525 4.782,37.841 8.385,42.807 C11.872,47.615 18.146,52.152 29.392,51.996" id="Fill-85" fill="#FDC794" sketch:type="MSShapeGroup"></path>
            <path d="M4.499,27.122 C4.046,26.693 3.514,26.435 2.939,26.435 C1.316,26.435 0,28.415 0,30.859 C0,33.302 1.316,35.283 2.939,35.283 C3.626,35.283 4.25,34.913 4.75,34.319 C4.297,31.967 4.218,29.534 4.499,27.122" id="Fill-215" fill="#F9A671" sketch:type="MSShapeGroup"></path>
            <path d="M57.823,23.295 C57.259,20.918 55.523,19.296 53.943,19.673 C53.452,19.79 53.045,20.103 52.719,20.527 C53.257,22.043 53.713,23.682 54.046,25.485 C54.201,26.321 54.308,27.164 54.375,28.007 C54.895,28.291 55.447,28.409 55.983,28.281 C57.562,27.904 58.386,25.671 57.823,23.295" id="Fill-216" fill="#F9A671" sketch:type="MSShapeGroup"></path>
            <path d="M13.901,12.996 L8.901,7.996 M16.901,9.996 L13.901,3.996 M20.901,7.996 L18.901,1.996 M25.901,6.996 L24.901,0.996 M29.901,6.996 L29.901,0.996 M33.901,6.996 L35.901,0.996 M37.901,7.996 L39.901,1.996 M40.901,9.996 L43.901,3.996" id="Stroke-217" stroke="#5E5F62" stroke-width="2" stroke-linecap="round" sketch:type="MSShapeGroup"></path>
            <path d="M17.011,36.225 L17.011,36.257 C17.011,40.078 19.12,43.64 22.554,45.315 C24.693,46.359 27.246,47 29.996,47 C32.743,47 35.3,46.36 37.445,45.318 C40.895,43.642 43.011,40.061 43,36.225 L17.011,36.225" id="Fill-333" fill="#802D40" sketch:type="MSShapeGroup"></path>
            <path d="M17,31 C16.744,31 16.488,30.902 16.293,30.707 C15.902,30.316 15.902,29.684 16.293,29.293 L22.586,23 L16.293,16.707 C15.902,16.316 15.902,15.684 16.293,15.293 C16.684,14.902 17.316,14.902 17.707,15.293 L24.707,22.293 C25.098,22.683 25.098,23.316 24.707,23.707 L17.707,30.707 C17.512,30.902 17.256,31 17,31" id="Fill-369" fill="#F09372" sketch:type="MSShapeGroup"></path>
            <path d="M24,24 L17,24 C16.448,24 16,23.553 16,23 C16,22.447 16.448,22 17,22 L24,22 C24.552,22 25,22.447 25,23 C25,23.553 24.552,24 24,24" id="Fill-370" fill="#F09372" sketch:type="MSShapeGroup"></path>
            <path d="M43,31 C42.744,31 42.488,30.902 42.293,30.707 L35.293,23.707 C34.902,23.316 34.902,22.683 35.293,22.293 L42.293,15.293 C42.684,14.902 43.316,14.902 43.707,15.293 C44.098,15.684 44.098,16.316 43.707,16.707 L37.414,23 L43.707,29.293 C44.098,29.684 44.098,30.316 43.707,30.707 C43.512,30.902 43.256,31 43,31" id="Fill-372" fill="#F09372" sketch:type="MSShapeGroup"></path>
            <path d="M43,24 L36,24 C35.448,24 35,23.553 35,23 C35,22.447 35.448,22 36,22 L43,22 C43.552,22 44,22.447 44,23 C44,23.553 43.552,24 43,24" id="Fill-373" fill="#F09372" sketch:type="MSShapeGroup"></path>
            <path d="M39.011,44.225 C39.011,41.763 34.727,40.684 30.007,40.684 C25.288,40.684 21.011,41.763 21.011,44.225 L21.026,44.359 C21.504,44.717 22.005,45.047 22.554,45.315 C24.693,46.359 27.246,47 29.996,47 C32.743,47 35.3,46.36 37.445,45.318 C38.019,45.039 38.541,44.691 39.038,44.314 L39.011,44.225" id="Fill-614" fill="#E64C3C" sketch:type="MSShapeGroup"></path>
        </g>
    </g>
</svg>