<?xml version="1.0" encoding="UTF-8" standalone="no"?>
<svg width="42px" height="42px" viewBox="0 0 42 42" version="1.1" xmlns="http://www.w3.org/2000/svg" xmlns:xlink="http://www.w3.org/1999/xlink" xmlns:sketch="http://www.bohemiancoding.com/sketch/ns">
    <!-- Generator: Sketch 3.2.2 (9983) - http://www.bohemiancoding.com/sketch -->
    <title>161 - Money (Flat)</title>
    <desc>Created with Sketch.</desc>
    <defs></defs>
    <g id="Page-1" stroke="none" stroke-width="1" fill="none" fill-rule="evenodd" sketch:type="MSPage">
        <g id="161---Money-(Flat)" sketch:type="MSLayerGroup">
            <path d="M42,21 C42,32.598 32.598,42 21,42 C9.402,42 0,32.598 0,21 C0,9.402 9.402,0 21,0 C32.598,0 42,9.402 42,21" id="Fill-33" fill="#FBD971" sketch:type="MSShapeGroup"></path>
            <path d="M14.492,22.539 C14.129,22.539 13.894,22.304 13.894,21.94 L13.894,21.088 C12.65,20.917 11.88,20.712 10.833,19.872 L10.833,20.671 C10.833,21.034 10.598,21.269 10.234,21.269 C9.871,21.269 9.636,21.034 9.636,20.671 L9.636,16.93 C9.636,16.566 9.871,16.331 10.234,16.331 C10.598,16.331 10.833,16.566 10.833,16.93 L10.833,18.29 C11.473,18.985 11.952,19.239 13.025,19.649 C13.287,19.749 13.579,19.826 13.894,19.879 L13.894,14.08 C12.733,13.758 11.853,13.45 11.276,13.165 C10.639,12.85 10.138,12.452 9.789,11.981 C9.429,11.497 9.247,10.933 9.247,10.304 C9.247,9.118 9.645,8.155 10.429,7.442 C11.176,6.763 12.341,6.406 13.894,6.38 L13.894,5.599 C13.894,5.235 14.129,5 14.492,5 C14.856,5 15.091,5.235 15.091,5.599 L15.091,6.465 C16.191,6.669 17.134,7.05 17.898,7.597 C18.095,7.738 18.003,7.863 18.141,7.972 L18.141,7.174 C18.141,6.81 18.376,6.575 18.739,6.575 C19.103,6.575 19.338,6.81 19.338,7.174 L19.338,10.915 C19.338,11.278 19.103,11.513 18.739,11.513 C18.376,11.513 18.141,11.278 18.141,10.915 L18.141,9.652 C17.465,8.905 16.876,8.318 15.874,7.908 C15.628,7.802 15.366,7.722 15.091,7.667 L15.091,13.086 C15.277,13.135 15.585,13.216 16.016,13.329 C16.761,13.523 17.45,13.775 18.062,14.079 C18.699,14.394 19.2,14.792 19.549,15.262 C19.909,15.747 20.092,16.331 20.092,16.998 C20.092,18.268 19.638,19.294 18.743,20.046 C17.887,20.766 16.659,21.141 15.091,21.16 L15.091,21.94 C15.091,22.304 14.856,22.539 14.492,22.539 L14.492,22.539 Z M12.133,19.927 C12.233,19.975 12.333,20.02 12.434,20.064 C12.332,20.019 12.231,19.974 12.133,19.927 L12.133,19.927 Z M15.091,14.405 L15.091,19.963 C16.318,19.945 17.267,19.673 17.915,19.154 C18.574,18.626 18.895,17.959 18.895,17.116 C18.895,16.675 18.76,16.301 18.484,15.973 C18.193,15.629 17.831,15.358 17.409,15.168 C16.959,14.966 16.5,14.799 16.045,14.672 L15.091,14.405 L15.091,14.405 Z M18.571,19.382 C18.485,19.467 18.393,19.548 18.294,19.627 C18.149,19.744 17.991,19.85 17.822,19.945 C18.015,19.838 18.192,19.717 18.353,19.582 C18.429,19.517 18.502,19.451 18.571,19.382 L18.571,19.382 Z M13.894,7.577 C12.729,7.601 11.858,7.854 11.303,8.329 C10.725,8.824 10.444,9.412 10.444,10.127 C10.444,10.569 10.579,10.943 10.855,11.27 C11.146,11.615 11.507,11.886 11.929,12.075 C12.379,12.278 12.809,12.439 13.207,12.553 C13.456,12.624 13.685,12.691 13.894,12.752 L13.894,7.577 L13.894,7.577 Z" id="Fill-339" fill="#24AE5F" sketch:type="MSShapeGroup"></path>
            <path d="M28.245,22.539 C27.881,22.539 27.646,22.304 27.646,21.94 L27.646,21.088 C26.403,20.917 25.633,20.712 24.586,19.872 L24.586,20.671 C24.586,21.034 24.351,21.269 23.987,21.269 C23.624,21.269 23.389,21.034 23.389,20.671 L23.389,16.93 C23.389,16.566 23.624,16.331 23.987,16.331 C24.351,16.331 24.586,16.566 24.586,16.93 L24.586,18.29 C25.226,18.985 25.704,19.239 26.778,19.649 C27.04,19.749 27.331,19.826 27.646,19.879 L27.646,14.08 C26.485,13.758 25.606,13.45 25.029,13.165 C24.392,12.85 23.891,12.452 23.542,11.981 C23.182,11.497 23,10.933 23,10.304 C23,9.118 23.398,8.155 24.182,7.442 C24.929,6.763 26.094,6.406 27.646,6.38 L27.646,5.599 C27.646,5.235 27.881,5 28.245,5 C28.609,5 28.844,5.235 28.844,5.599 L28.844,6.465 C29.944,6.669 30.887,7.05 31.65,7.597 C31.849,7.738 31.755,7.863 31.894,7.972 L31.894,7.174 C31.894,6.81 32.128,6.575 32.492,6.575 C32.856,6.575 33.091,6.81 33.091,7.174 L33.091,10.915 C33.091,11.278 32.856,11.513 32.492,11.513 C32.128,11.513 31.894,11.278 31.894,10.915 L31.894,9.652 C31.218,8.905 30.629,8.318 29.626,7.908 C29.381,7.802 29.119,7.722 28.844,7.667 L28.844,13.086 C29.03,13.135 29.338,13.216 29.769,13.329 C30.514,13.523 31.202,13.775 31.815,14.079 C32.453,14.394 32.953,14.792 33.302,15.262 C33.662,15.747 33.844,16.331 33.844,16.998 C33.844,18.268 33.391,19.294 32.496,20.046 C31.64,20.766 30.412,21.141 28.844,21.16 L28.844,21.94 C28.844,22.304 28.609,22.539 28.245,22.539 L28.245,22.539 Z M25.885,19.927 C25.985,19.975 26.086,20.02 26.187,20.064 C26.085,20.019 25.984,19.974 25.885,19.927 L25.885,19.927 Z M28.844,14.405 L28.844,19.963 C30.071,19.945 31.02,19.673 31.668,19.154 C32.327,18.626 32.647,17.959 32.647,17.116 C32.647,16.675 32.513,16.301 32.236,15.973 C31.946,15.629 31.584,15.358 31.162,15.168 C30.712,14.966 30.253,14.799 29.798,14.672 L28.844,14.405 L28.844,14.405 Z M32.324,19.382 C32.238,19.467 32.145,19.548 32.047,19.627 C31.902,19.744 31.744,19.85 31.575,19.945 C31.768,19.838 31.945,19.717 32.106,19.582 C32.182,19.517 32.255,19.451 32.324,19.382 L32.324,19.382 Z M27.646,7.577 C26.482,7.601 25.611,7.854 25.056,8.329 C24.478,8.824 24.197,9.412 24.197,10.127 C24.197,10.569 24.332,10.943 24.608,11.27 C24.899,11.615 25.26,11.886 25.682,12.075 C26.132,12.278 26.562,12.439 26.96,12.553 C27.209,12.624 27.438,12.691 27.646,12.752 L27.646,7.577 L27.646,7.577 Z" id="Fill-340" fill="#24AE5F" sketch:type="MSShapeGroup"></path>
            <path d="M32,27 L10,27 C10,33.075 14.925,38 21,38 C27.075,38 32,33.075 32,27" id="Fill-377" fill="#FFFFFF" sketch:type="MSShapeGroup"></path>
            <path d="M30,31 L28,31 L28,27 C28,26.447 27.552,26 27,26 C26.448,26 26,26.447 26,27 L26,31 L24,31 L24,27 C24,26.447 23.552,26 23,26 C22.448,26 22,26.447 22,27 L22,31 L20,31 L20,27 C20,26.447 19.552,26 19,26 C18.448,26 18,26.447 18,27 L18,31 L16,31 L16,27 C16,26.447 15.552,26 15,26 C14.448,26 14,26.447 14,27 L14,31 L12,31 C11.448,31 11,31.447 11,32 C11,32.553 11.448,33 12,33 L14,33 L14,36 C14,36.553 14.448,37 15,37 C15.552,37 16,36.553 16,36 L16,33 L18,33 L18,37 C18,37.553 18.448,38 19,38 C19.552,38 20,37.553 20,37 L20,33 L22,33 L22,37 C22,37.553 22.448,38 23,38 C23.552,38 24,37.553 24,37 L24,33 L26,33 L26,36 C26,36.553 26.448,37 27,37 C27.552,37 28,36.553 28,36 L28,33 L30,33 C30.552,33 31,32.553 31,32 C31,31.447 30.552,31 30,31" id="Fill-378" fill="#ECF0F0" sketch:type="MSShapeGroup"></path>
            <path d="M21,39 C14.383,39 9,33.617 9,27 C9,26.447 9.448,26 10,26 L32,26 C32.552,26 33,26.447 33,27 C33,33.617 27.617,39 21,39 L21,39 Z M11.05,28 C11.553,33.046 15.824,37 21,37 C26.176,37 30.447,33.046 30.95,28 L11.05,28 L11.05,28 Z" id="Fill-379" fill="#F0C419" sketch:type="MSShapeGroup"></path>
            <path id="Stroke-381" stroke="#0096E6" stroke-width="2" stroke-linecap="round" stroke-linejoin="round" sketch:type="MSShapeGroup"></path>
        </g>
    </g>
</svg>