<?xml version="1.0" encoding="UTF-8" standalone="no"?>
<svg width="58px" height="52px" viewBox="0 0 58 52" version="1.1" xmlns="http://www.w3.org/2000/svg" xmlns:xlink="http://www.w3.org/1999/xlink" xmlns:sketch="http://www.bohemiancoding.com/sketch/ns">
    <!-- Generator: Sketch 3.2.2 (9983) - http://www.bohemiancoding.com/sketch -->
    <title>52 - Nerd (Flat)</title>
    <desc>Created with Sketch.</desc>
    <defs></defs>
    <g id="Page-1" stroke="none" stroke-width="1" fill="none" fill-rule="evenodd" sketch:type="MSPage">
        <g id="52---Nerd-(Flat)" sketch:type="MSLayerGroup" transform="translate(0.000000, 1.000000)">
            <path d="M29.392,51 C40.639,51.156 46.912,46.619 50.4,41.812 C54.003,36.845 55.164,30.529 54.046,24.489 C50.004,2.643 29.392,2.828 29.392,2.828 C29.392,2.828 8.781,2.643 4.738,24.489 C3.621,30.529 4.782,36.845 8.385,41.812 C11.872,46.619 18.146,51.156 29.392,51" id="Fill-52" fill="#FDC794" sketch:type="MSShapeGroup"></path>
            <path d="M4.499,26.126 C4.046,25.697 3.514,25.439 2.939,25.439 C1.316,25.439 0,27.42 0,29.863 C0,32.306 1.316,34.287 2.939,34.287 C3.626,34.287 4.25,33.918 4.75,33.323 C4.297,30.971 4.218,28.539 4.499,26.126" id="Fill-264" fill="#F9A671" sketch:type="MSShapeGroup"></path>
            <path d="M57.823,22.299 C57.26,19.922 55.523,18.301 53.943,18.678 C53.452,18.795 53.045,19.107 52.719,19.532 C53.257,21.047 53.713,22.686 54.046,24.489 C54.201,25.326 54.308,26.168 54.375,27.012 C54.895,27.296 55.447,27.413 55.983,27.285 C57.562,26.909 58.386,24.676 57.823,22.299" id="Fill-265" fill="#F9A671" sketch:type="MSShapeGroup"></path>
            <path d="M13.901,12 L8.901,7 M16.901,9 L13.901,3 M20.901,7 L18.901,1 M25.901,6 L24.901,0 M29.901,6 L29.901,0 M33.901,6 L35.901,0 M37.901,7 L39.901,1 M40.901,9 L43.901,3" id="Stroke-266" stroke="#5E5F62" stroke-width="2" stroke-linecap="round" sketch:type="MSShapeGroup"></path>
            <path d="M46.6,36.205 L42.6,33.205 C42.159,32.874 41.532,32.963 41.2,33.405 C40.868,33.846 40.958,34.473 41.4,34.805 L42.811,35.862 C41.543,37.461 37.486,42.033 31.924,42.871 C28.408,43.395 24.876,42.322 21.42,39.689 L22.6,38.805 C23.042,38.474 23.132,37.847 22.8,37.405 C22.469,36.962 21.841,36.873 21.4,37.205 L17.4,40.205 C16.958,40.536 16.868,41.163 17.2,41.604 C17.396,41.867 17.696,42.005 18.001,42.005 C18.21,42.005 18.42,41.939 18.6,41.805 L19.776,40.922 C19.81,40.958 19.831,41.002 19.871,41.034 C23.216,43.675 26.664,45.005 30.149,45.005 C30.839,45.005 31.53,44.953 32.222,44.849 C38.573,43.891 43.019,38.847 44.413,37.064 L45.4,37.805 C45.58,37.939 45.79,38.005 45.999,38.005 C46.304,38.005 46.604,37.867 46.8,37.604 C47.132,37.163 47.042,36.536 46.6,36.205" id="Fill-338" fill="#F9A671" sketch:type="MSShapeGroup"></path>
            <path d="M27,22.004 C27,26.423 23.418,30.004 19,30.004 C14.582,30.004 11,26.423 11,22.004 C11,17.586 14.582,14.004 19,14.004 C23.418,14.004 27,17.586 27,22.004 L27,22.004 Z" id="Fill-396" fill="#D0E8F9" sketch:type="MSShapeGroup"></path>
            <path d="M27,22.004 C27,26.423 23.418,30.004 19,30.004 C14.582,30.004 11,26.423 11,22.004 C11,17.586 14.582,14.004 19,14.004 C23.418,14.004 27,17.586 27,22.004 L27,22.004 Z" id="Stroke-397" stroke="#556080" stroke-width="2" sketch:type="MSShapeGroup"></path>
            <path d="M48,22.004 C48,26.423 44.418,30.004 40,30.004 C35.582,30.004 32,26.423 32,22.004 C32,17.586 35.582,14.004 40,14.004 C44.418,14.004 48,17.586 48,22.004 L48,22.004 Z" id="Fill-398" fill="#D0E8F9" sketch:type="MSShapeGroup"></path>
            <path d="M48,22.004 C48,26.423 44.418,30.004 40,30.004 C35.582,30.004 32,26.423 32,22.004 C32,17.586 35.582,14.004 40,14.004 C44.418,14.004 48,17.586 48,22.004 L48,22.004 Z" id="Stroke-399" stroke="#556080" stroke-width="2" sketch:type="MSShapeGroup"></path>
            <path d="M20,18.004 L16,22.004 M21,22.004 L17,26.004 M41,18.004 L37,22.004 M42,22.004 L38,26.004" id="Stroke-525" stroke="#FFFFFF" stroke-width="2" stroke-linecap="round" sketch:type="MSShapeGroup"></path>
            <path d="M27,22.004 C27,20.9 28.119,20.004 29.5,20.004 C30.881,20.004 32,20.9 32,22.004" id="Stroke-526" stroke="#556080" stroke-width="2" stroke-linecap="round" sketch:type="MSShapeGroup"></path>
        </g>
    </g>
</svg>