<?xml version="1.0" encoding="UTF-8" standalone="no"?>
<svg width="51px" height="57px" viewBox="0 0 51 57" version="1.1" xmlns="http://www.w3.org/2000/svg" xmlns:xlink="http://www.w3.org/1999/xlink" xmlns:sketch="http://www.bohemiancoding.com/sketch/ns">
    <!-- Generator: Sketch 3.2.2 (9983) - http://www.bohemiancoding.com/sketch -->
    <title>122 - Nerdy (Flat)</title>
    <desc>Created with Sketch.</desc>
    <defs></defs>
    <g id="Page-1" stroke="none" stroke-width="1" fill="none" fill-rule="evenodd" sketch:type="MSPage">
        <g id="122---Nerdy-(Flat)" sketch:type="MSLayerGroup">
            <path d="M25.5,0 C11.475,0 0,11.475 0,25.5 L0,50 C0,52.2 1.8,54 4,54 L10.778,54 C14.937,56.021 20.014,57 25.5,57 C30.986,57 36.063,56.021 40.223,54 L47,54 C49.2,54 51,52.2 51,50 L51,25.5 C51,11.475 39.525,0 25.5,0" id="Fill-7" fill="#6E5847" sketch:type="MSShapeGroup"></path>
            <path d="M0.869,29.894 C0.305,32.001 0,34.215 0,36.5 C0,50.583 11.417,57 25.5,57 C39.583,57 51,50.583 51,36.5 C51,22.842 39.495,11.661 26,11 L25,11 C11.505,11.661 0,22.842 0,36.5 C0,50.583 11.417,57 25.5,57 C39.583,57 51,50.583 51,36.5" id="Fill-12" fill="#FDC794" sketch:type="MSShapeGroup"></path>
            <path d="M40.059,43.541 C40.059,43.541 29.803,58.431 16.492,47.92" id="Path" stroke="#F9A671" stroke-width="2" stroke-linecap="round" stroke-linejoin="round" sketch:type="MSShapeGroup"></path>
            <path d="M42,44.676 L38,41.676" id="Path" stroke="#F9A671" stroke-width="2" stroke-linecap="round" stroke-linejoin="round" sketch:type="MSShapeGroup"></path>
            <path d="M14,48.676 L18,45.676" id="Path" stroke="#F9A671" stroke-width="2" stroke-linecap="round" stroke-linejoin="round" sketch:type="MSShapeGroup"></path>
            <path d="M23,29.676 C23,34.094 19.418,37.676 15,37.676 C10.582,37.676 7,34.094 7,29.676 C7,25.257 10.582,21.676 15,21.676 C19.418,21.676 23,25.257 23,29.676 L23,29.676 Z" id="Fill-109" fill="#D0E8F9" sketch:type="MSShapeGroup"></path>
            <path d="M23,29.676 C23,34.094 19.418,37.676 15,37.676 C10.582,37.676 7,34.094 7,29.676 C7,25.257 10.582,21.676 15,21.676 C19.418,21.676 23,25.257 23,29.676 L23,29.676 Z" id="Stroke-110" stroke="#556080" stroke-width="2" sketch:type="MSShapeGroup"></path>
            <path d="M44,29.676 C44,34.094 40.418,37.676 36,37.676 C31.582,37.676 28,34.094 28,29.676 C28,25.257 31.582,21.676 36,21.676 C40.418,21.676 44,25.257 44,29.676 L44,29.676 Z" id="Fill-111" fill="#D0E8F9" sketch:type="MSShapeGroup"></path>
            <path d="M44,29.676 C44,34.094 40.418,37.676 36,37.676 C31.582,37.676 28,34.094 28,29.676 C28,25.257 31.582,21.676 36,21.676 C40.418,21.676 44,25.257 44,29.676 L44,29.676 Z" id="Stroke-112" stroke="#556080" stroke-width="2" sketch:type="MSShapeGroup"></path>
            <path d="M16,25.676 L12,29.676 M17,29.676 L13,33.676 M37,25.676 L33,29.676 M38,29.676 L34,33.676" id="Stroke-113" stroke="#FFFFFF" stroke-width="2" stroke-linecap="round" sketch:type="MSShapeGroup"></path>
            <path d="M23,29.676 C23,28.571 24.119,27.676 25.5,27.676 C26.881,27.676 28,28.571 28,29.676" id="Stroke-114" stroke="#556080" stroke-width="2" sketch:type="MSShapeGroup"></path>
            <path id="Stroke-130" stroke="#F9A671" stroke-width="2" stroke-linecap="round" stroke-linejoin="round" sketch:type="MSShapeGroup"></path>
        </g>
    </g>
</svg>