<?xml version="1.0" encoding="UTF-8" standalone="no"?>
<svg width="42px" height="43px" viewBox="0 0 42 43" version="1.1" xmlns="http://www.w3.org/2000/svg" xmlns:xlink="http://www.w3.org/1999/xlink" xmlns:sketch="http://www.bohemiancoding.com/sketch/ns">
    <!-- Generator: Sketch 3.2.2 (9983) - http://www.bohemiancoding.com/sketch -->
    <title>170 - Ninja (Flat)</title>
    <desc>Created with Sketch.</desc>
    <defs></defs>
    <g id="Page-1" stroke="none" stroke-width="1" fill="none" fill-rule="evenodd" sketch:type="MSPage">
        <g id="170---Ninja-(Flat)" sketch:type="MSLayerGroup">
            <path d="M10,6.553 L32,6.553 C33.965,6.553 35.782,7.199 37.267,8.278 C33.416,3.565 27.561,0.553 21,0.553 C14.439,0.553 8.584,3.565 4.733,8.278 C6.218,7.199 8.035,6.553 10,6.553" id="Fill-30" fill="#556080" sketch:type="MSShapeGroup"></path>
            <path d="M40.977,15.091 C40.984,15.245 41,15.397 41,15.553 C41,20.503 36.95,24.553 32,24.553 L10,24.553 C5.05,24.553 1,20.503 1,15.553 C1,15.397 1.016,15.245 1.023,15.091 C0.365,17.128 0,19.297 0,21.553 C0,33.151 9.402,42.553 21,42.553 C32.598,42.553 42,33.151 42,21.553 C42,19.297 41.635,17.128 40.977,15.091" id="Fill-31" fill="#556080" sketch:type="MSShapeGroup"></path>
            <path d="M32,24.553 L10,24.553 C5.05,24.553 1,20.503 1,15.553 C1,10.603 5.05,6.553 10,6.553 L32,6.553 C36.95,6.553 41,10.603 41,15.553 C41,20.503 36.95,24.553 32,24.553" id="Fill-230" fill="#FBD971" sketch:type="MSShapeGroup"></path>
            <path d="M8,13.553 L16,17.553 M34,13.553 L26,17.553" id="Stroke-274" stroke="#F29C1F" stroke-width="2" stroke-linecap="round" stroke-linejoin="round" sketch:type="MSShapeGroup"></path>
        </g>
    </g>
</svg>