<?xml version="1.0" encoding="UTF-8" standalone="no"?>
<svg width="42px" height="42px" viewBox="0 0 42 42" version="1.1" xmlns="http://www.w3.org/2000/svg" xmlns:xlink="http://www.w3.org/1999/xlink" xmlns:sketch="http://www.bohemiancoding.com/sketch/ns">
    <!-- Generator: Sketch 3.2.2 (9983) - http://www.bohemiancoding.com/sketch -->
    <title>189 - Oddball (Flat)</title>
    <desc>Created with Sketch.</desc>
    <defs></defs>
    <g id="Page-1" stroke="none" stroke-width="1" fill="none" fill-rule="evenodd" sketch:type="MSPage">
        <g id="189---Oddball-(Flat)" sketch:type="MSLayerGroup">
            <path d="M29.516,38.834 L24,33.317 C24.463,33.13 24.906,32.904 25.339,32.661 L29.833,28.167 C30.044,27.789 30.354,27.423 30.523,27.021 L35.88,32.47 C36.471,33.06 36.835,33.794 36.977,34.562 C40.091,30.901 42,26.184 42,21 C42,9.402 32.598,0 21,0 C9.402,0 0,9.402 0,21 C0,32.598 9.402,42 21,42 C24.495,42 27.786,41.139 30.685,39.628 C30.262,39.436 29.862,39.18 29.516,38.834" id="Fill-51" fill="#FBD971" sketch:type="MSShapeGroup"></path>
            <path d="M18,15 C18,18.314 15.314,21 12,21 C8.686,21 6,18.314 6,15 C6,11.686 8.686,9 12,9 C15.314,9 18,11.686 18,15" id="Fill-201" fill="#FFFFFF" sketch:type="MSShapeGroup"></path>
            <path d="M36,15 C36,18.314 33.314,21 30,21 C26.686,21 24,18.314 24,15 C24,11.686 26.686,9 30,9 C33.314,9 36,11.686 36,15" id="Fill-202" fill="#FFFFFF" sketch:type="MSShapeGroup"></path>
            <path d="M27.891,30.744 C26.789,31.846 25.466,32.723 24,33.317 L29.516,38.834 C31.072,40.389 33.617,40.389 35.173,38.834 L35.88,38.127 C37.436,36.571 37.436,34.025 35.88,32.47 L30.523,27.113 C29.93,28.522 28.956,29.679 27.891,30.744" id="Fill-227" fill="#FB7B76" sketch:type="MSShapeGroup"></path>
            <path d="M15,15 C15,16.657 13.657,18 12,18 C10.343,18 9,16.657 9,15 C9,13.343 10.343,12 12,12 C13.657,12 15,13.343 15,15" id="Fill-320" fill="#AF8066" sketch:type="MSShapeGroup"></path>
            <path d="M33,15 C33,16.657 31.657,18 30,18 C28.343,18 27,16.657 27,15 C27,13.343 28.343,12 30,12 C31.657,12 33,13.343 33,15" id="Fill-321" fill="#AF8066" sketch:type="MSShapeGroup"></path>
            <path d="M30.179,31.439 C29.509,30.934 28.901,30.506 28.357,30.254 C28.202,30.418 28.051,30.585 27.891,30.744 C27.52,31.115 27.115,31.451 26.697,31.768 C26.918,31.984 27.215,32.073 27.498,32.051 C28.236,32.392 30.493,34.152 31.638,35.298 C31.833,35.493 32.089,35.591 32.345,35.591 C32.601,35.591 32.856,35.493 33.052,35.298 C33.442,34.907 33.442,34.274 33.052,33.884 C32.386,33.218 31.205,32.212 30.179,31.439" id="Fill-360" fill="#E64C3C" sketch:type="MSShapeGroup"></path>
            <path d="M13,32.933 C19.829,35.778 28.155,32.762 31,25.933" id="Stroke-361" stroke="#F0C419" stroke-width="2" stroke-linecap="round" stroke-linejoin="round" sketch:type="MSShapeGroup"></path>
        </g>
    </g>
</svg>