<?xml version="1.0" encoding="UTF-8" standalone="no"?>
<svg width="43px" height="40px" viewBox="0 0 43 40" version="1.1" xmlns="http://www.w3.org/2000/svg" xmlns:xlink="http://www.w3.org/1999/xlink" xmlns:sketch="http://www.bohemiancoding.com/sketch/ns">
    <!-- Generator: Sketch 3.2.2 (9983) - http://www.bohemiancoding.com/sketch -->
    <title>157 - Old Man (Flat)</title>
    <desc>Created with Sketch.</desc>
    <defs></defs>
    <g id="Page-1" stroke="none" stroke-width="1" fill="none" fill-rule="evenodd" sketch:type="MSPage">
        <g id="157---Old-Man-(Flat)" sketch:type="MSLayerGroup" transform="translate(-1.000000, -1.000000)">
            <path d="M8.039,37.667 C10.001,35.385 11.871,32.126 13.642,30.217 C17.211,26.597 19.794,27.728 21.269,29.168 C22.034,29.915 23.286,29.867 23.99,29.063 C25.352,27.509 27.844,26.175 31.679,29.518 C33.484,31.193 35.471,34.069 37.482,36.18 C41.083,32.249 43.202,26.957 42.985,21.208 C42.547,9.619 32.798,0.578 21.208,1.015 C9.618,1.453 0.577,11.202 1.015,22.792 C1.239,28.736 3.923,33.998 8.039,37.667" id="Fill-22" fill="#FBD971" sketch:type="MSShapeGroup"></path>
            <path d="M25.163,35.429 C23.743,34.771 22.102,34.833 20.735,35.596 C18.854,36.646 15.844,38.542 12.723,39.349 C15.726,40.811 19.221,41.105 22.791,40.971 C26.446,40.833 29.778,40.351 32.709,38.595 C29.73,37.994 27.011,36.285 25.163,35.429" id="Fill-23" fill="#FBD971" sketch:type="MSShapeGroup"></path>
            <path d="M44,38 C40.03,41.046 35.927,32.416 32.388,28.877 C28.682,25.392 26.142,26.632 24.723,28.133 C23.989,28.91 22.736,28.91 22,28.135 C20.58,26.641 18.041,25.413 14.338,28.896 C10.799,32.434 6.97,41.046 3,38 C8.295,42.448 17.006,38.663 21.148,36.551 C22.542,35.84 24.184,35.84 25.579,36.551 C29.721,38.663 38.705,42.448 44,38" id="Fill-287" fill="#D1D4D1" sketch:type="MSShapeGroup"></path>
            <path d="M8.09,14 C8.035,14.326 8,14.659 8,15 C8,18.314 10.686,21 14,21 C17.314,21 20,18.314 20,15 C20,14.659 19.965,14.326 19.91,14 L8.09,14" id="Fill-382" fill="#FFFFFF" sketch:type="MSShapeGroup"></path>
            <path d="M20.069,14 C20.028,14.328 20,14.661 20,15 C20,19.418 23.582,23 28,23 C32.418,23 36,19.418 36,15 C36,14.661 35.972,14.328 35.931,14 L20.069,14" id="Fill-383" fill="#FFFFFF" sketch:type="MSShapeGroup"></path>
            <path d="M14,9 C11.028,9 8.567,11.164 8.09,14 L19.91,14 C19.433,11.164 16.972,9 14,9" id="Fill-384" fill="#F0C419" sketch:type="MSShapeGroup"></path>
            <path d="M28,7 C23.921,7 20.562,10.055 20.069,14 L35.931,14 C35.438,10.055 32.079,7 28,7" id="Fill-385" fill="#F0C419" sketch:type="MSShapeGroup"></path>
            <path d="M17,17 C17,17.552 16.552,18 16,18 C15.448,18 15,17.552 15,17 C15,16.448 15.448,16 16,16 C16.552,16 17,16.448 17,17" id="Fill-386" fill="#7F5B53" sketch:type="MSShapeGroup"></path>
            <path d="M30,17.5 C30,18.329 29.328,19 28.5,19 C27.672,19 27,18.329 27,17.5 C27,16.672 27.672,16 28.5,16 C29.328,16 30,16.672 30,17.5" id="Fill-387" fill="#7F5B53" sketch:type="MSShapeGroup"></path>
        </g>
    </g>
</svg>