<?xml version="1.0" encoding="UTF-8" standalone="no"?>
<svg width="47px" height="43px" viewBox="0 0 47 43" version="1.1" xmlns="http://www.w3.org/2000/svg" xmlns:xlink="http://www.w3.org/1999/xlink" xmlns:sketch="http://www.bohemiancoding.com/sketch/ns">
    <!-- Generator: Sketch 3.2.2 (9983) - http://www.bohemiancoding.com/sketch -->
    <title>91 - Pissed (Flat)</title>
    <desc>Created with Sketch.</desc>
    <defs></defs>
    <g id="Page-1" stroke="none" stroke-width="1" fill="none" fill-rule="evenodd" sketch:type="MSPage">
        <g id="91---Pissed-(Flat)" sketch:type="MSLayerGroup">
            <path d="M44,18 L44,18 C42.26,8.157 33.842,1 23.5,1 C13.158,1 4.74,8.157 3,18 C1.337,18.661 0,20.602 0,22.5 C0,24.478 1.284,26.139 3.058,26.742 C5.21,36.052 13.536,43 23.5,43 C33.465,43 41.79,36.052 43.942,26.742 C45.716,26.139 47,24.478 47,22.5 C47,20.602 45.663,18.661 44,18" id="Fill-15" fill="#FFD581" sketch:type="MSShapeGroup"></path>
            <path d="M19,26 C19,27.105 18.105,28 17,28 C15.895,28 15,27.105 15,26 C15,24.895 15.895,24 17,24 C18.105,24 19,24.895 19,26" id="Fill-62" fill="#414141" sketch:type="MSShapeGroup"></path>
            <path d="M33,26 C33,27.105 32.105,28 31,28 C29.896,28 29,27.105 29,26 C29,24.895 29.896,24 31,24 C32.105,24 33,24.895 33,26" id="Fill-63" fill="#414141" sketch:type="MSShapeGroup"></path>
            <path d="M44,18 L44,18.001 C42.26,8.158 33.684,0.675 23.342,0.675 C12.999,0.675 4.74,8.157 3,18 C3,18 19.906,22.33 31.241,13.274 C31.797,12.83 32.604,12.934 33,13.524 C35.049,16.575 38.828,20.28 44,18" id="Fill-90" fill="#414141" sketch:type="MSShapeGroup"></path>
            <path d="M34,33.733 C33.022,34.711 31.225,34.711 30.248,33.733 C29.27,32.756 27.473,32.756 26.495,33.733 C25.517,34.711 23.72,34.711 22.742,33.733 C21.765,32.756 19.968,32.756 18.99,33.733 C18.012,34.711 16.215,34.819 15.237,33.841" id="Stroke-200" stroke="#CB8252" stroke-width="2" stroke-linecap="round" sketch:type="MSShapeGroup"></path>
            <path d="M19.999,24 C19.809,24 19.616,23.945 19.445,23.832 L16.445,21.832 C15.985,21.525 15.861,20.905 16.168,20.445 C16.473,19.985 17.094,19.861 17.555,20.168 L20.555,22.168 C21.015,22.475 21.139,23.095 20.832,23.555 C20.64,23.844 20.322,24 19.999,24" id="Fill-217" fill="#414141" sketch:type="MSShapeGroup"></path>
            <path d="M28.001,24 C27.678,24 27.36,23.844 27.168,23.555 C26.861,23.095 26.985,22.475 27.445,22.168 L30.445,20.168 C30.906,19.861 31.526,19.985 31.832,20.445 C32.139,20.905 32.015,21.525 31.555,21.832 L28.555,23.832 C28.384,23.945 28.191,24 28.001,24" id="Fill-218" fill="#414141" sketch:type="MSShapeGroup"></path>
        </g>
    </g>
</svg>