<?xml version="1.0" encoding="UTF-8" standalone="no"?>
<svg width="57px" height="43px" viewBox="0 0 57 43" version="1.1" xmlns="http://www.w3.org/2000/svg" xmlns:xlink="http://www.w3.org/1999/xlink" xmlns:sketch="http://www.bohemiancoding.com/sketch/ns">
    <!-- Generator: Sketch 3.2.2 (9983) - http://www.bohemiancoding.com/sketch -->
    <title>107 - Rapper (Flat)</title>
    <desc>Created with Sketch.</desc>
    <defs></defs>
    <g id="Page-1" stroke="none" stroke-width="1" fill="none" fill-rule="evenodd" sketch:type="MSPage">
        <g id="107---Rapper-(Flat)" sketch:type="MSLayerGroup">
            <path d="M56.243,4.811 C55.59,3.926 54.331,3.735 53.446,4.388 L42.604,12.384 L42.604,17.354 L55.82,7.607 C56.706,6.954 56.896,5.696 56.243,4.811" id="Fill-6" fill="#C2615F" sketch:type="MSShapeGroup"></path>
            <path d="M47,22.5 C47,20.602 45.663,18.661 44,18 C43.991,17.948 34.722,18.003 25,18 C14.28,17.997 3.01,17.942 3,18 C1.337,18.661 0,20.602 0,22.5 C0,24.478 1.284,26.139 3.058,26.742 C5.21,36.052 13.536,43 23.5,43 C33.464,43 41.79,36.052 43.942,26.742 C45.716,26.139 47,24.478 47,22.5" id="Fill-22" fill="#FFD581" sketch:type="MSShapeGroup"></path>
            <path d="M23,39 C18.589,39 15,35.411 15,31 C15,30.447 15.448,30 16,30 C16.552,30 17,30.447 17,31 C17,34.309 19.691,37 23,37 C26.309,37 29,34.309 29,31 C29,30.447 29.448,30 30,30 C30.552,30 31,30.447 31,31 C31,35.411 27.411,39 23,39" id="Fill-64" fill="#CB8252" sketch:type="MSShapeGroup"></path>
            <path d="M18,24 C18,25.105 17.105,26 16,26 C14.895,26 14,25.105 14,24 C14,22.895 14.895,22 16,22 C17.105,22 18,22.895 18,24" id="Fill-65" fill="#414141" sketch:type="MSShapeGroup"></path>
            <path d="M32,24 C32,25.105 31.105,26 30,26 C28.895,26 28,25.105 28,24 C28,22.895 28.895,22 30,22 C31.105,22 32,22.895 32,24" id="Fill-66" fill="#414141" sketch:type="MSShapeGroup"></path>
            <path d="M45,18 L2,18 L2,16.552 C2,7.411 9.41,0 18.552,0 L28.448,0 C37.589,0 45,7.411 45,16.552 L45,18" id="Fill-209" fill="#E64C3C" sketch:type="MSShapeGroup"></path>
            <path d="M29,13 L18,13 C16.9,13 16,12.1 16,11 C16,9.9 16.9,9 18,9 L29,9 C30.1,9 31,9.9 31,11 C31,12.1 30.1,13 29,13" id="Fill-210" fill="#C03A2B" sketch:type="MSShapeGroup"></path>
        </g>
    </g>
</svg>