<?xml version="1.0" encoding="UTF-8" standalone="no"?>
<svg width="54px" height="58px" viewBox="0 0 54 58" version="1.1" xmlns="http://www.w3.org/2000/svg" xmlns:xlink="http://www.w3.org/1999/xlink" xmlns:sketch="http://www.bohemiancoding.com/sketch/ns">
    <!-- Generator: Sketch 3.2.2 (9983) - http://www.bohemiancoding.com/sketch -->
    <title>4 - Rave (Flat)</title>
    <desc>Created with Sketch.</desc>
    <defs></defs>
    <g id="Page-1" stroke="none" stroke-width="1" fill="none" fill-rule="evenodd" sketch:type="MSPage">
        <g id="4---Rave-(Flat)" sketch:type="MSLayerGroup">
            <path d="M47,22.069 L47,17.98 C38.917,22.73 36,15.98 36,15.98 C25.167,14.313 21,19.98 21,19.98 C13.25,19.23 10,16.98 10,16.98 C8.324,18.928 6.406,19.936 5,20.454 L5,22.724 C12.11,20.04 20.229,20.49 27,24.077 C33.145,20.822 40.396,20.16 47,22.069" id="Fill-25" fill="#FFDB2B" sketch:type="MSShapeGroup"></path>
            <path d="M44.857,38.777 C28.339,40.431 27,27.733 27,24.077 C27,27.733 25.661,40.431 9.143,38.777 C7.345,38.597 6.008,37.744 5,36.531 L5,49.98 C5,52.18 6.8,53.98 9,53.98 L43,53.98 C45.2,53.98 47,52.18 47,49.98 L47,38.153 C46.367,38.473 45.661,38.696 44.857,38.777" id="Fill-26" fill="#FFDB2B" sketch:type="MSShapeGroup"></path>
            <path d="M19,44 C19,46.764 25.92,48 32,48" id="Stroke-164" stroke="#E57E25" stroke-width="2" stroke-linecap="round" sketch:type="MSShapeGroup"></path>
            <path d="M37.695,57.98 L14.305,57.98 C13.584,57.98 13,57.396 13,56.675 L13,53.98 L39,53.98 L39,56.675 C39,57.396 38.416,57.98 37.695,57.98" id="Fill-428" fill="#FEC722" sketch:type="MSShapeGroup"></path>
            <path d="M27,0 C22.507,0 18.275,0.981 14.549,2.707 L14,6 C14,6 13.178,4.879 12.392,3.822 C10.76,4.757 9.245,5.838 7.881,7.055 L10,12 L4.982,10.118 C1.848,14.038 0,18.825 0,24 C0,24.182 0.02,24.361 0.024,24.542 C0.466,24.389 3.977,23.185 5,22.799 L5,20.454 C6.406,19.936 8.324,18.928 10,16.98 C10,16.98 13.25,19.23 21,19.98 C21,19.98 25.167,14.313 36,15.98 C36,15.98 38.917,22.73 47,17.98 L47,22.144 C48.72,22.641 53.988,25.563 53.988,24.302 C53.99,24.2 54,24.101 54,24 C54,10.745 41.912,0 27,0" id="Fill-494" fill="#AC744F" sketch:type="MSShapeGroup"></path>
            <path d="M2,24.077 C2,27.733 2.279,38.089 9.143,38.777 C25.661,40.431 27,27.733 27,24.077 C19.254,19.974 9.746,19.974 2,24.077" id="Fill-495" fill="#556080" sketch:type="MSShapeGroup"></path>
            <path d="M27,24.077 C27,27.733 28.339,40.431 44.857,38.777 C51.721,38.089 52,27.733 52,24.077 C44.254,19.974 34.746,19.974 27,24.077" id="Fill-496" fill="#556080" sketch:type="MSShapeGroup"></path>
            <path d="M43.207,29.457 C43.598,29.066 43.598,28.434 43.207,28.043 C42.816,27.652 42.184,27.652 41.793,28.043 L39.672,30.164 C39.281,30.555 39.281,31.188 39.672,31.578 C39.867,31.773 40.123,31.871 40.379,31.871 C40.635,31.871 40.891,31.773 41.086,31.578 L43.207,29.457" id="Fill-497" fill="#8697CB" sketch:type="MSShapeGroup"></path>
            <path d="M37.551,32.285 L36.293,33.543 C35.902,33.933 35.902,34.566 36.293,34.957 C36.488,35.152 36.744,35.25 37,35.25 C37.256,35.25 37.512,35.152 37.707,34.957 L38.965,33.699 C39.356,33.309 39.356,32.676 38.965,32.285 C38.574,31.894 37.941,31.894 37.551,32.285" id="Fill-498" fill="#8697CB" sketch:type="MSShapeGroup"></path>
            <path d="M43.051,32.285 L40.929,34.407 C40.538,34.798 40.538,35.431 40.929,35.821 C41.124,36.017 41.38,36.114 41.636,36.114 C41.892,36.114 42.148,36.017 42.343,35.821 L44.465,33.699 C44.856,33.309 44.856,32.676 44.465,32.285 C44.074,31.894 43.441,31.894 43.051,32.285" id="Fill-499" fill="#8697CB" sketch:type="MSShapeGroup"></path>
            <path d="M48.707,28.043 C48.316,27.652 47.684,27.652 47.293,28.043 L45.172,30.164 C44.781,30.555 44.781,31.188 45.172,31.578 C45.367,31.773 45.623,31.871 45.879,31.871 C46.135,31.871 46.391,31.773 46.586,31.578 L48.707,29.457 C49.098,29.066 49.098,28.434 48.707,28.043" id="Fill-500" fill="#8697CB" sketch:type="MSShapeGroup"></path>
            <path d="M6.551,28.285 L5.293,29.543 C4.902,29.934 4.902,30.566 5.293,30.957 C5.488,31.152 5.744,31.25 6,31.25 C6.256,31.25 6.512,31.152 6.707,30.957 L7.965,29.699 C8.356,29.309 8.356,28.676 7.965,28.285 C7.574,27.895 6.941,27.895 6.551,28.285" id="Fill-501" fill="#8697CB" sketch:type="MSShapeGroup"></path>
            <path d="M12.207,25.457 C12.598,25.066 12.598,24.434 12.207,24.043 C11.816,23.652 11.184,23.652 10.793,24.043 L8.672,26.164 C8.281,26.555 8.281,27.187 8.672,27.578 C8.867,27.773 9.123,27.871 9.379,27.871 C9.635,27.871 9.891,27.773 10.086,27.578 L12.207,25.457" id="Fill-502" fill="#8697CB" sketch:type="MSShapeGroup"></path>
            <path d="M12.051,28.285 L9.929,30.407 C9.538,30.798 9.538,31.431 9.929,31.821 C10.124,32.016 10.38,32.114 10.636,32.114 C10.892,32.114 11.148,32.016 11.343,31.821 L13.465,29.699 C13.856,29.309 13.856,28.676 13.465,28.285 C13.074,27.895 12.441,27.895 12.051,28.285" id="Fill-503" fill="#8697CB" sketch:type="MSShapeGroup"></path>
            <path d="M16.293,24.043 L14.172,26.164 C13.781,26.555 13.781,27.187 14.172,27.578 C14.367,27.773 14.623,27.871 14.879,27.871 C15.135,27.871 15.391,27.773 15.586,27.578 L17.707,25.457 C18.098,25.066 18.098,24.434 17.707,24.043 C17.316,23.652 16.684,23.652 16.293,24.043" id="Fill-504" fill="#8697CB" sketch:type="MSShapeGroup"></path>
        </g>
    </g>
</svg>