<?xml version="1.0" encoding="UTF-8" standalone="no"?>
<svg width="42px" height="42px" viewBox="0 0 42 42" version="1.1" xmlns="http://www.w3.org/2000/svg" xmlns:xlink="http://www.w3.org/1999/xlink" xmlns:sketch="http://www.bohemiancoding.com/sketch/ns">
    <!-- Generator: Sketch 3.2.2 (9983) - http://www.bohemiancoding.com/sketch -->
    <title>203 - ROFL (Flat)</title>
    <desc>Created with Sketch.</desc>
    <defs></defs>
    <g id="Page-1" stroke="none" stroke-width="1" fill="none" fill-rule="evenodd" sketch:type="MSPage">
        <g id="203---ROFL-(Flat)" sketch:type="MSLayerGroup">
            <path d="M42,21 C42,32.598 32.598,42 21,42 C9.402,42 0,32.598 0,21 C0,9.402 9.402,0 21,0 C32.598,0 42,9.402 42,21" id="Fill-63" fill="#FBD971" sketch:type="MSShapeGroup"></path>
            <path d="M32,11 L26,16 L32,21" id="Path" stroke="#F29C1F" stroke-width="2" stroke-linecap="round" stroke-linejoin="round" sketch:type="MSShapeGroup"></path>
            <path d="M11,11 L17,16 L11,21" id="Path" stroke="#F29C1F" stroke-width="2" stroke-linecap="round" stroke-linejoin="round" sketch:type="MSShapeGroup"></path>
            <path d="M32,27 L10,27 C10,33.075 14.925,38 21,38 C27.075,38 32,33.075 32,27" id="Fill-352" fill="#FFFFFF" sketch:type="MSShapeGroup"></path>
            <path d="M30,31 L28,31 L28,27 C28,26.448 27.553,26 27,26 C26.447,26 26,26.448 26,27 L26,31 L24,31 L24,27 C24,26.448 23.553,26 23,26 C22.447,26 22,26.448 22,27 L22,31 L20,31 L20,27 C20,26.448 19.553,26 19,26 C18.447,26 18,26.448 18,27 L18,31 L16,31 L16,27 C16,26.448 15.553,26 15,26 C14.447,26 14,26.448 14,27 L14,31 L12,31 C11.447,31 11,31.448 11,32 C11,32.552 11.447,33 12,33 L14,33 L14,36 C14,36.552 14.447,37 15,37 C15.553,37 16,36.552 16,36 L16,33 L18,33 L18,37 C18,37.552 18.447,38 19,38 C19.553,38 20,37.552 20,37 L20,33 L22,33 L22,37 C22,37.552 22.447,38 23,38 C23.553,38 24,37.552 24,37 L24,33 L26,33 L26,36 C26,36.552 26.447,37 27,37 C27.553,37 28,36.552 28,36 L28,33 L30,33 C30.553,33 31,32.552 31,32 C31,31.448 30.553,31 30,31" id="Fill-353" fill="#ECF0F0" sketch:type="MSShapeGroup"></path>
            <path d="M21,39 C14.383,39 9,33.617 9,27 C9,26.448 9.447,26 10,26 L32,26 C32.553,26 33,26.448 33,27 C33,33.617 27.617,39 21,39 L21,39 Z M11.05,28 C11.553,33.046 15.823,37 21,37 C26.177,37 30.447,33.046 30.95,28 L11.05,28 L11.05,28 Z" id="Fill-354" fill="#F0C419" sketch:type="MSShapeGroup"></path>
        </g>
    </g>
</svg>