<?xml version="1.0" encoding="UTF-8" standalone="no"?>
<svg width="42px" height="43px" viewBox="0 0 42 43" version="1.1" xmlns="http://www.w3.org/2000/svg" xmlns:xlink="http://www.w3.org/1999/xlink" xmlns:sketch="http://www.bohemiancoding.com/sketch/ns">
    <!-- Generator: Sketch 3.2.2 (9983) - http://www.bohemiancoding.com/sketch -->
    <title>166 - Secret (Flat)</title>
    <desc>Created with Sketch.</desc>
    <defs></defs>
    <g id="Page-1" stroke="none" stroke-width="1" fill="none" fill-rule="evenodd" sketch:type="MSPage">
        <g id="166---Secret-(Flat)" sketch:type="MSLayerGroup">
            <path d="M42,21.553 C42,33.151 32.598,42.553 21,42.553 C9.402,42.553 0,33.151 0,21.553 C0,9.955 9.402,0.553 21,0.553 C32.598,0.553 42,9.955 42,21.553" id="Fill-27" fill="#FBD971" sketch:type="MSShapeGroup"></path>
            <path d="M18,14.553 C18,17.867 15.314,20.553 12,20.553 C8.686,20.553 6,17.867 6,14.553 C6,11.239 8.686,8.553 12,8.553 C15.314,8.553 18,11.239 18,14.553" id="Fill-184" fill="#FFFFFF" sketch:type="MSShapeGroup"></path>
            <path d="M36,14.553 C36,17.867 33.314,20.553 30,20.553 C26.686,20.553 24,17.867 24,14.553 C24,11.239 26.686,8.553 30,8.553 C33.314,8.553 36,11.239 36,14.553" id="Fill-185" fill="#FFFFFF" sketch:type="MSShapeGroup"></path>
            <path d="M28.414,32.473 L26.479,31.239 L28.414,30.005 C29.806,29.118 30.218,27.254 29.331,25.862 C28.444,24.471 26.58,24.059 25.188,24.946 L20.899,27.681 L16.61,24.946 C15.219,24.059 13.355,24.471 12.468,25.862 C11.581,27.254 11.993,29.118 13.384,30.005 L15.32,31.239 L13.384,32.473 C11.993,33.36 11.581,35.225 12.468,36.616 C13.355,38.007 15.219,38.419 16.61,37.532 L20.899,34.797 L25.188,37.532 C26.58,38.419 28.444,38.007 29.331,36.616 C30.218,35.225 29.806,33.36 28.414,32.473" id="Fill-249" fill="#F9A671" sketch:type="MSShapeGroup"></path>
            <path d="M15,14.553 C15,16.21 13.657,17.553 12,17.553 C10.343,17.553 9,16.21 9,14.553 C9,12.896 10.343,11.553 12,11.553 C13.657,11.553 15,12.896 15,14.553" id="Fill-327" fill="#AF8066" sketch:type="MSShapeGroup"></path>
            <path d="M33,14.553 C33,16.21 31.657,17.553 30,17.553 C28.343,17.553 27,16.21 27,14.553 C27,12.896 28.343,11.553 30,11.553 C31.657,11.553 33,12.896 33,14.553" id="Fill-328" fill="#AF8066" sketch:type="MSShapeGroup"></path>
        </g>
    </g>
</svg>