<?xml version="1.0" encoding="UTF-8" standalone="no"?>
<svg width="47px" height="43px" viewBox="0 0 47 43" version="1.1" xmlns="http://www.w3.org/2000/svg" xmlns:xlink="http://www.w3.org/1999/xlink" xmlns:sketch="http://www.bohemiancoding.com/sketch/ns">
    <!-- Generator: Sketch 3.2.2 (9983) - http://www.bohemiancoding.com/sketch -->
    <title>94 - Shocked (Flat)</title>
    <desc>Created with Sketch.</desc>
    <defs></defs>
    <g id="Page-1" stroke="none" stroke-width="1" fill="none" fill-rule="evenodd" sketch:type="MSPage">
        <g id="94---Shocked-(Flat)" sketch:type="MSLayerGroup">
            <path d="M44,18 L44,18 C42.26,8.157 33.842,1 23.5,1 C13.158,1 4.74,8.157 3,18 C1.337,18.661 0,20.602 0,22.5 C0,24.478 1.284,26.139 3.058,26.742 C5.21,36.052 13.536,43 23.5,43 C33.465,43 41.79,36.052 43.942,26.742 C45.716,26.139 47,24.478 47,22.5 C47,20.602 45.663,18.661 44,18" id="Fill-10" fill="#FFD581" sketch:type="MSShapeGroup"></path>
            <path d="M19,24 C19,25.105 18.105,26 17,26 C15.895,26 15,25.105 15,24 C15,22.895 15.895,22 17,22 C18.105,22 19,22.895 19,24" id="Fill-60" fill="#B27821" sketch:type="MSShapeGroup"></path>
            <path d="M33,24 C33,25.105 32.105,26 31,26 C29.895,26 29,25.105 29,24 C29,22.895 29.895,22 31,22 C32.105,22 33,22.895 33,24" id="Fill-61" fill="#B27821" sketch:type="MSShapeGroup"></path>
            <path d="M44,18 L44,18.001 C42.26,8.158 33.684,0.675 23.342,0.675 C12.999,0.675 4.74,8.157 3,18 C3,18 19.906,22.33 31.242,13.274 C31.797,12.83 32.604,12.934 33,13.524 C35.049,16.575 38.828,20.28 44,18" id="Fill-85" fill="#9D6019" sketch:type="MSShapeGroup"></path>
            <path d="M28.5,33.5 C28.5,35.985 26.485,38 24,38 C21.515,38 19.5,35.985 19.5,33.5 C19.5,31.015 21.515,29 24,29 C26.485,29 28.5,31.015 28.5,33.5" id="Fill-214" fill="#802D40" sketch:type="MSShapeGroup"></path>
        </g>
    </g>
</svg>