<?xml version="1.0" encoding="UTF-8" standalone="no"?>
<svg width="42px" height="42px" viewBox="0 0 42 42" version="1.1" xmlns="http://www.w3.org/2000/svg" xmlns:xlink="http://www.w3.org/1999/xlink" xmlns:sketch="http://www.bohemiancoding.com/sketch/ns">
    <!-- Generator: Sketch 3.2.2 (9983) - http://www.bohemiancoding.com/sketch -->
    <title>160 - Silly (Flat)</title>
    <desc>Created with Sketch.</desc>
    <defs></defs>
    <g id="Page-1" stroke="none" stroke-width="1" fill="none" fill-rule="evenodd" sketch:type="MSPage">
        <g id="160---Silly-(Flat)" sketch:type="MSLayerGroup">
            <path d="M25,35.317 C26.466,34.723 27.789,33.845 28.891,32.744 C29.956,31.679 30.93,30.522 31.523,29.113 L36.88,34.469 C36.92,34.51 36.948,34.557 36.986,34.599 C40.107,30.934 42,26.191 42,21 C42,9.402 32.598,0 21,0 C9.402,0 0,9.402 0,21 C0,32.598 9.402,42 21,42 C24.128,42 27.086,41.297 29.753,40.071 L25,35.317" id="Fill-21" fill="#FBD971" sketch:type="MSShapeGroup"></path>
            <path d="M8,16 C8,13.791 9.791,12 12,12 C14.209,12 16,13.791 16,16 M26,16 C26,13.791 27.791,12 30,12 C32.209,12 34,13.791 34,16" id="Stroke-163" stroke="#F29C1F" stroke-width="2" stroke-linecap="round" stroke-linejoin="round" sketch:type="MSShapeGroup"></path>
            <path d="M28.891,32.744 C27.789,33.845 26.466,34.723 25,35.317 L30.516,40.833 C32.072,42.389 34.617,42.389 36.173,40.833 L36.88,40.126 C38.436,38.571 38.436,36.025 36.88,34.469 L31.523,29.113 C30.93,30.522 29.956,31.679 28.891,32.744" id="Fill-238" fill="#FB7B76" sketch:type="MSShapeGroup"></path>
            <path d="M33.345,37.591 C33.089,37.591 32.833,37.493 32.638,37.298 L32.522,37.183 C30.711,35.37 29.54,34.301 29.036,33.999 C28.761,34.016 28.498,33.912 28.293,33.707 C27.902,33.316 27.902,32.684 28.293,32.293 C29.205,31.38 30.456,32.493 31.46,33.388 C32.338,34.169 33.3,35.132 33.936,35.769 L34.052,35.884 C34.442,36.274 34.442,36.907 34.052,37.298 C33.856,37.493 33.601,37.591 33.345,37.591" id="Fill-239" fill="#E64C3C" sketch:type="MSShapeGroup"></path>
            <path d="M32,25 C32,31.075 27.075,36 21,36 C14.925,36 10,31.075 10,25" id="Stroke-240" stroke="#F0C419" stroke-width="2" stroke-linecap="round" stroke-linejoin="round" sketch:type="MSShapeGroup"></path>
        </g>
    </g>
</svg>