<?xml version="1.0" encoding="UTF-8" standalone="no"?>
<svg width="58px" height="57px" viewBox="0 0 58 57" version="1.1" xmlns="http://www.w3.org/2000/svg" xmlns:xlink="http://www.w3.org/1999/xlink" xmlns:sketch="http://www.bohemiancoding.com/sketch/ns">
    <!-- Generator: Sketch 3.2.2 (9983) - http://www.bohemiancoding.com/sketch -->
    <title>9 - Smug Girl (Flat)</title>
    <desc>Created with Sketch.</desc>
    <defs></defs>
    <g id="Page-1" stroke="none" stroke-width="1" fill="none" fill-rule="evenodd" sketch:type="MSPage">
        <g id="9---Smug-Girl-(Flat)" sketch:type="MSLayerGroup">
            <path d="M44.309,34.807 C31.147,36.23 30.08,29.413 30.08,26.27 C33.193,24.491 36.665,23.612 40.133,23.628 C36.968,20.398 34.951,16 34.951,16 C32.241,20.028 27.381,22.553 22,24 L21.854,24.021 C23.799,24.48 25.709,25.23 27.53,26.27 C27.53,29.413 26.463,36.23 13.301,34.807 C7.832,34.216 8,29.143 8,26 L7.951,49 C7.951,51.03 9.778,53 11.966,53 L45.767,53 C47.955,53 49.951,51.03 49.951,49 L49.999,26.408 C49.992,29.551 49.7,34.224 44.309,34.807" id="Fill-34" fill="#FFDB2B" sketch:type="MSShapeGroup"></path>
            <path d="M57.115,43.062 C55.001,38.323 54.297,29.726 54.065,24.195 C53.884,19.913 52.638,15.716 50.25,12.157 C46.393,6.41 42.16,3.727 38.367,2.067 C32.069,-0.689 24.822,-0.689 18.524,2.067 C14.937,3.637 10.712,5.964 7.42,11.108 C5.14,14.672 4.019,18.845 3.936,23.075 C3.829,28.546 3.316,38.164 1.129,43.228 C0.665,44.303 1.138,45.539 2.208,46.013 C3.292,46.493 6.451,46.781 7.951,47 L7.955,47 L8,26 C8,29.143 7.832,34.216 13.301,34.807 C26.463,36.23 27.53,29.413 27.53,26.27 C25.709,25.23 23.799,24.48 21.854,24.021 L22,24 C27.381,22.553 32.241,20.028 34.951,16 C34.951,16 36.968,20.398 40.133,23.628 C36.665,23.612 33.193,24.491 30.08,26.27 C30.08,29.413 31.147,36.23 44.309,34.807 C49.7,34.224 49.992,29.551 49.999,26.408 L49.955,46.999 C51.986,46.594 54.691,46.408 55.951,45.919 C57.092,45.476 57.613,44.18 57.115,43.062" id="Fill-35" fill="#2F2B46" sketch:type="MSShapeGroup"></path>
            <path d="M20,40 C20,44.97 24.029,49 29,49 C33.971,49 38,44.97 38,40 L20,40" id="Fill-84" fill="#FFFFFF" sketch:type="MSShapeGroup"></path>
            <path d="M36.364,45 L21.636,45 C21.084,45 20.636,44.553 20.636,44 C20.636,43.447 21.084,43 21.636,43 L36.364,43 C36.916,43 37.364,43.447 37.364,44 C37.364,44.553 36.916,45 36.364,45" id="Fill-85" fill="#D1D4D1" sketch:type="MSShapeGroup"></path>
            <path d="M26,49 C25.448,49 25,48.553 25,48 L25,40 C25,39.447 25.448,39 26,39 C26.552,39 27,39.447 27,40 L27,48 C27,48.553 26.552,49 26,49" id="Fill-86" fill="#D1D4D1" sketch:type="MSShapeGroup"></path>
            <path d="M32,49 C31.448,49 31,48.553 31,48 L31,40 C31,39.447 31.448,39 32,39 C32.552,39 33,39.447 33,40 L33,48 C33,48.553 32.552,49 32,49" id="Fill-87" fill="#D1D4D1" sketch:type="MSShapeGroup"></path>
            <path d="M40.169,57 L16.78,57 C16.059,57 15.474,56.415 15.474,55.695 L15.474,53 L41.474,53 L41.474,55.695 C41.474,56.415 40.89,57 40.169,57" id="Fill-451" fill="#FEC722" sketch:type="MSShapeGroup"></path>
            <path d="M31.787,25.411 L25.848,25.411 C20.078,22.735 13.619,22.789 8,26 C8,29.143 7.832,34.216 13.301,34.807 C25.033,36.075 27.154,30.799 27.477,27.411 L30.133,27.411 C30.456,30.799 32.577,36.075 44.309,34.807 C49.778,34.216 50,29.413 50,26.27 C44.385,23.062 37.612,22.782 31.787,25.411" id="Fill-456" fill="#556080" sketch:type="MSShapeGroup"></path>
            <path d="M15.656,25.704 C15.265,25.313 14.632,25.313 14.242,25.704 L11.097,28.849 C10.706,29.24 10.706,29.873 11.097,30.264 C11.292,30.459 11.548,30.557 11.804,30.557 C12.06,30.557 12.315,30.459 12.511,30.264 L15.656,27.118 C16.046,26.727 16.046,26.095 15.656,25.704" id="Fill-514" fill="#8697CB" sketch:type="MSShapeGroup"></path>
            <path d="M20.532,25.704 L15.29,30.946 C14.899,31.337 14.899,31.97 15.29,32.36 C15.485,32.556 15.741,32.653 15.997,32.653 C16.253,32.653 16.509,32.556 16.704,32.36 L21.946,27.118 C22.337,26.727 22.337,26.095 21.946,25.704 C21.556,25.313 20.923,25.313 20.532,25.704" id="Fill-515" fill="#8697CB" sketch:type="MSShapeGroup"></path>
            <path d="M38.722,25.704 C38.331,25.313 37.698,25.313 37.308,25.704 L34.162,28.849 C33.772,29.24 33.772,29.873 34.162,30.264 C34.357,30.459 34.613,30.557 34.869,30.557 C35.125,30.557 35.381,30.459 35.576,30.264 L38.722,27.118 C39.112,26.727 39.112,26.095 38.722,25.704" id="Fill-516" fill="#8697CB" sketch:type="MSShapeGroup"></path>
            <path d="M45.012,25.704 C44.622,25.313 43.989,25.313 43.598,25.704 L38.356,30.946 C37.965,31.337 37.965,31.97 38.356,32.36 C38.551,32.556 38.807,32.653 39.063,32.653 C39.319,32.653 39.575,32.556 39.77,32.36 L45.012,27.118 C45.403,26.727 45.403,26.095 45.012,25.704" id="Fill-517" fill="#8697CB" sketch:type="MSShapeGroup"></path>
            <path d="M29,50 C23.486,50 19,45.514 19,40 C19,39.447 19.448,39 20,39 L38,39 C38.552,39 39,39.447 39,40 C39,45.514 34.514,50 29,50 L29,50 Z M21.062,41 C21.556,44.94 24.928,48 29,48 C33.072,48 36.444,44.94 36.938,41 L21.062,41 L21.062,41 Z" id="Fill-518" fill="#F0785A" sketch:type="MSShapeGroup"></path>
        </g>
    </g>
</svg>