<?xml version="1.0" encoding="UTF-8" standalone="no"?>
<svg width="52px" height="51px" viewBox="0 0 52 51" version="1.1" xmlns="http://www.w3.org/2000/svg" xmlns:xlink="http://www.w3.org/1999/xlink" xmlns:sketch="http://www.bohemiancoding.com/sketch/ns">
    <!-- Generator: Sketch 3.2.2 (9983) - http://www.bohemiancoding.com/sketch -->
    <title>6 - Sportsman (Flat)</title>
    <desc>Created with Sketch.</desc>
    <defs></defs>
    <g id="Page-1" stroke="none" stroke-width="1" fill="none" fill-rule="evenodd" sketch:type="MSPage">
        <g id="6---Sportsman-(Flat)" sketch:type="MSLayerGroup">
            <path d="M4.5,11 L46,11 L46,9 C46.063,7.344 43.739,6 42,6 L8,6 C5.8,6 4,7.8 4,10 L4,11.051 C4.166,11.032 4.329,11 4.5,11" id="Fill-18" fill="#FFDB2B" sketch:type="MSShapeGroup"></path>
            <path d="M4.5,20 C4.329,20 4.166,19.968 4,19.949 L4,43 C4,45.2 5.8,47 8,47 L42,47 C44.2,47 46,45.2 46,43 L46,20 L4.5,20" id="Fill-19" fill="#FFDB2B" sketch:type="MSShapeGroup"></path>
            <path d="M29,39 C29,41.209 27.209,43 25,43 C22.791,43 21,41.209 21,39 C21,36.791 22.791,35 25,35 C27.209,35 29,36.791 29,39 L29,39 Z" id="Fill-20" fill="#E57E25" sketch:type="MSShapeGroup"></path>
            <path d="M29,39 C29,41.209 27.209,43 25,43 C22.791,43 21,41.209 21,39 C21,36.791 22.791,35 25,35 C27.209,35 29,36.791 29,39 L29,39 Z" id="Stroke-21" stroke="#F0C419" stroke-width="2" stroke-linecap="round" stroke-linejoin="round" sketch:type="MSShapeGroup"></path>
            <path d="M28.565,24.706 C28.206,25.476 28,26.331 28,27.236 C28,30.55 30.686,33.236 34,33.236 C37.314,33.236 40,30.55 40,27.236 C40,25.582 39.331,24.085 38.249,23 L28.565,24.706" id="Fill-22" fill="#FFFFFF" sketch:type="MSShapeGroup"></path>
            <path d="M22.435,24.706 C22.794,25.476 23,26.331 23,27.236 C23,30.55 20.314,33.236 17,33.236 C13.686,33.236 11,30.55 11,27.236 C11,25.582 11.669,24.085 12.751,23 L22.435,24.706" id="Fill-23" fill="#FFFFFF" sketch:type="MSShapeGroup"></path>
            <path d="M47,20 L4.5,20 C2.025,20 0,17.975 0,15.5 C0,13.025 2.025,11 4.5,11 L47,11 C49.475,11 51.5,13.025 51.5,15.5 C51.5,17.975 49.475,20 47,20" id="Fill-24" fill="#E64C3C" sketch:type="MSShapeGroup"></path>
            <path d="M9.083,38.148 L9.083,38.148 C7.956,38.167 7.019,37.26 7,36.132 C6.982,35.005 8.967,31.985 8.982,32 C8.982,32 11.08,34.938 11.099,36.065 C11.117,37.192 10.21,38.13 9.083,38.148" id="Fill-79" fill="#0096E6" sketch:type="MSShapeGroup"></path>
            <path d="M13.984,44.148 L13.984,44.148 C12.857,44.167 11.919,43.26 11.901,42.132 C11.882,41.005 13.868,37.985 13.883,38 C13.883,38 15.981,40.938 16,42.065 C16.018,43.192 15.111,44.13 13.984,44.148" id="Fill-80" fill="#0096E6" sketch:type="MSShapeGroup"></path>
            <path d="M40.917,39 L40.917,39 C42.044,39.018 42.981,38.111 43,36.984 C43.018,35.857 41.033,32.836 41.018,32.851 C41.018,32.851 38.92,35.79 38.901,36.917 C38.883,38.044 39.79,38.981 40.917,39" id="Fill-81" fill="#0096E6" sketch:type="MSShapeGroup"></path>
            <path d="M36.016,44 L36.016,44 C37.143,44.018 38.081,43.111 38.099,41.984 C38.118,40.857 36.132,37.836 36.117,37.852 C36.117,37.852 34.019,40.789 34,41.917 C33.982,43.044 34.889,43.981 36.016,44" id="Fill-82" fill="#0096E6" sketch:type="MSShapeGroup"></path>
            <path d="M36,29 C36,30.105 35.105,31 34,31 C32.895,31 32,30.105 32,29 C32,27.896 32.895,27 34,27 C35.105,27 36,27.896 36,29" id="Fill-209" fill="#556080" sketch:type="MSShapeGroup"></path>
            <path d="M36.695,51 L13.305,51 C12.584,51 12,50.415 12,49.695 L12,47 L38,47 L38,49.695 C38,50.415 37.416,51 36.695,51" id="Fill-407" fill="#FEC722" sketch:type="MSShapeGroup"></path>
            <path d="M19.305,0 L30.695,0 C31.416,0 32,0.585 32,1.305 L32,6 L18,6 L18,1.305 C18,0.585 18.584,0 19.305,0" id="Fill-408" fill="#FEC722" sketch:type="MSShapeGroup"></path>
            <path d="M15,29 C15,30.105 15.895,31 17,31 C18.105,31 19,30.105 19,29 C19,27.896 18.105,27 17,27 C15.895,27 15,27.896 15,29" id="Fill-511" fill="#556080" sketch:type="MSShapeGroup"></path>
        </g>
    </g>
</svg>