<?xml version="1.0" encoding="UTF-8" standalone="no"?>
<svg width="42px" height="42px" viewBox="0 0 42 42" version="1.1" xmlns="http://www.w3.org/2000/svg" xmlns:xlink="http://www.w3.org/1999/xlink" xmlns:sketch="http://www.bohemiancoding.com/sketch/ns">
    <!-- Generator: Sketch 3.2.2 (9983) - http://www.bohemiancoding.com/sketch -->
    <title>201 - Thinking (Flat)</title>
    <desc>Created with Sketch.</desc>
    <defs></defs>
    <g id="Page-1" stroke="none" stroke-width="1" fill="none" fill-rule="evenodd" sketch:type="MSPage">
        <g id="201---Thinking-(Flat)" sketch:type="MSLayerGroup">
            <path d="M42,21 C42,32.598 32.598,42 21,42 C9.402,42 0,32.598 0,21 C0,9.402 9.402,0 21,0 C32.598,0 42,9.402 42,21" id="Fill-142" fill="#FBD971" sketch:type="MSShapeGroup"></path>
            <path d="M18,15 C18,18.314 15.314,21 12,21 C8.686,21 6,18.314 6,15 C6,11.686 8.686,9 12,9 C15.314,9 18,11.686 18,15" id="Fill-143" fill="#FFFFFF" sketch:type="MSShapeGroup"></path>
            <path d="M36,15 C36,18.314 33.314,21 30,21 C26.686,21 24,18.314 24,15 C24,11.686 26.686,9 30,9 C33.314,9 36,11.686 36,15" id="Fill-144" fill="#FFFFFF" sketch:type="MSShapeGroup"></path>
            <path d="M13.5,13.5 C13.5,15.433 11.933,17 10,17 C8.067,17 6.5,15.433 6.5,13.5 C6.5,11.567 8.067,10 10,10 C11.933,10 13.5,11.567 13.5,13.5" id="Fill-293" fill="#AF8066" sketch:type="MSShapeGroup"></path>
            <path d="M31.5,13.5 C31.5,15.433 29.933,17 28,17 C26.067,17 24.5,15.433 24.5,13.5 C24.5,11.567 26.067,10 28,10 C29.933,10 31.5,11.567 31.5,13.5" id="Fill-294" fill="#AF8066" sketch:type="MSShapeGroup"></path>
        </g>
    </g>
</svg>