<?xml version="1.0" encoding="UTF-8" standalone="no"?>
<svg width="58px" height="52px" viewBox="0 0 58 52" version="1.1" xmlns="http://www.w3.org/2000/svg" xmlns:xlink="http://www.w3.org/1999/xlink" xmlns:sketch="http://www.bohemiancoding.com/sketch/ns">
    <!-- Generator: Sketch 3.2.2 (9983) - http://www.bohemiancoding.com/sketch -->
    <title>63 - Tired (Flat)</title>
    <desc>Created with Sketch.</desc>
    <defs></defs>
    <g id="Page-1" stroke="none" stroke-width="1" fill="none" fill-rule="evenodd" sketch:type="MSPage">
        <g id="63---Tired-(Flat)" sketch:type="MSLayerGroup" transform="translate(0.000000, 1.000000)">
            <path d="M29.392,51 C40.639,51.156 46.912,46.619 50.4,41.811 C54.003,36.845 55.164,30.529 54.046,24.489 C50.004,2.643 29.392,2.827 29.392,2.827 C29.392,2.827 8.781,2.643 4.738,24.489 C3.621,30.529 4.782,36.845 8.385,41.811 C11.872,46.619 18.146,51.156 29.392,51" id="Fill-74" fill="#FDC794" sketch:type="MSShapeGroup"></path>
            <path d="M4.499,26.126 C4.046,25.697 3.514,25.439 2.939,25.439 C1.316,25.439 0,27.42 0,29.863 C0,32.306 1.316,34.287 2.939,34.287 C3.626,34.287 4.25,33.917 4.75,33.323 C4.297,30.971 4.218,28.539 4.499,26.126" id="Fill-235" fill="#F9A671" sketch:type="MSShapeGroup"></path>
            <path d="M57.823,22.299 C57.26,19.922 55.523,18.3 53.943,18.677 C53.452,18.794 53.045,19.106 52.719,19.532 C53.257,21.047 53.713,22.686 54.046,24.489 C54.201,25.326 54.308,26.168 54.375,27.011 C54.895,27.295 55.447,27.413 55.983,27.285 C57.562,26.908 58.386,24.676 57.823,22.299" id="Fill-236" fill="#F9A671" sketch:type="MSShapeGroup"></path>
            <path d="M13.901,12 L8.901,6.999 M16.901,9 L13.901,3 M20.901,6.999 L18.901,0.999 M25.901,6 L24.9,0 M29.901,6 L29.901,0 M33.9,6 L35.901,0 M37.901,6.999 L39.9,0.999 M40.901,9 L43.901,3" id="Stroke-237" stroke="#5E5F62" stroke-width="2" stroke-linecap="round" sketch:type="MSShapeGroup"></path>
            <path d="M15.09,19.999 C15.035,20.325 15,20.658 15,21 C15,24.313 17.686,27 21,27 C24.314,27 27,24.313 27,21 C27,20.658 26.965,20.325 26.91,19.999 L15.09,19.999" id="Fill-544" fill="#FFFFFF" sketch:type="MSShapeGroup"></path>
            <path d="M27.069,19.999 C27.028,20.328 27,20.66 27,21 C27,25.418 30.582,28.999 35,28.999 C39.418,28.999 43,25.418 43,21 C43,20.66 42.972,20.328 42.931,19.999 L27.069,19.999" id="Fill-545" fill="#FFFFFF" sketch:type="MSShapeGroup"></path>
            <path d="M21,15 C18.028,15 15.567,17.163 15.09,19.999 L26.91,19.999 C26.433,17.163 23.972,15 21,15" id="Fill-546" fill="#F9A671" sketch:type="MSShapeGroup"></path>
            <path d="M35,12.999 C30.921,12.999 27.562,16.054 27.069,19.999 L42.931,19.999 C42.438,16.054 39.079,12.999 35,12.999" id="Fill-547" fill="#F9A671" sketch:type="MSShapeGroup"></path>
            <path d="M23,22.999 C23,23.552 22.552,24 22,24 C21.448,24 21,23.552 21,22.999 C21,22.448 21.448,21.999 22,21.999 C22.552,21.999 23,22.448 23,22.999" id="Fill-548" fill="#7F5B53" sketch:type="MSShapeGroup"></path>
            <path d="M34,23.499 C34,24.328 33.328,24.999 32.5,24.999 C31.672,24.999 31,24.328 31,23.499 C31,22.671 31.672,21.999 32.5,21.999 C33.328,21.999 34,22.671 34,23.499" id="Fill-549" fill="#7F5B53" sketch:type="MSShapeGroup"></path>
            <path d="M31,35 L31,42.801 C31,45.001 32.8,46.801 35,46.801 L36,46.801 C38.2,46.801 40,45.001 40,42.801 L40,35 C38.292,35.021 32.813,35 31,35" id="Fill-641" fill="#FB7B76" sketch:type="MSShapeGroup"></path>
            <path d="M19,34 L41,34" id="Stroke-642" stroke="#F9A671" stroke-width="2" stroke-linecap="round" stroke-linejoin="round" sketch:type="MSShapeGroup"></path>
            <path d="M34.181,35 C34.161,35.142 34.164,35.29 34.21,35.436 C34.602,36.688 34.574,38.181 34.547,39.624 C34.541,39.956 34.534,40.285 34.533,40.607 C34.531,41.16 34.977,41.609 35.529,41.611 L35.533,41.611 C36.084,41.611 36.531,41.166 36.533,40.615 C36.534,40.303 36.54,39.984 36.547,39.661 C36.574,38.185 36.596,36.52 36.156,35 L34.181,35" id="Fill-643" fill="#E64C3C" sketch:type="MSShapeGroup"></path>
        </g>
    </g>
</svg>