<?xml version="1.0" encoding="UTF-8" standalone="no"?>
<svg width="59px" height="59px" viewBox="0 0 59 59" version="1.1" xmlns="http://www.w3.org/2000/svg" xmlns:xlink="http://www.w3.org/1999/xlink" xmlns:sketch="http://www.bohemiancoding.com/sketch/ns">
    <!-- Generator: Sketch 3.2.2 (9983) - http://www.bohemiancoding.com/sketch -->
    <title>41 - Top Secret (Flat)</title>
    <desc>Created with Sketch.</desc>
    <defs></defs>
    <g id="Page-1" stroke="none" stroke-width="1" fill="none" fill-rule="evenodd" sketch:type="MSPage">
        <g id="41---Top-Secret-(Flat)" sketch:type="MSLayerGroup" transform="translate(1.000000, -1.000000)">
            <path d="M54.046,33.485 C52.885,27.209 50.354,22.759 47.34,19.593 L47.533,20.221 L7.19,25.812 C6.135,28.01 5.283,30.542 4.738,33.485 C3.621,39.524 4.782,45.841 8.385,50.807 C11.872,55.615 18.146,60.152 29.392,59.996 C40.639,60.152 46.912,55.615 50.4,50.807 C54.003,45.841 55.164,39.524 54.046,33.485" id="Fill-66" fill="#FDC794" sketch:type="MSShapeGroup"></path>
            <path d="M50.496,31.654 C47.457,29.918 44,29 40.5,29 C37,29 33.543,29.918 30.504,31.654 L30.162,31.85 L28.838,31.85 L28.496,31.654 C25.457,29.918 22,29 18.5,29 C15,29 11.543,29.918 8.504,31.654 L8,31.942 L8,32.522 C8,35.052 8,40.976 14.321,41.66 C15.485,41.786 16.596,41.849 17.624,41.849 C26.348,41.849 28.529,37.311 28.924,33.85 L30.076,33.85 C30.471,37.311 32.652,41.849 41.376,41.849 L41.377,41.849 C42.404,41.849 43.515,41.786 44.679,41.66 C51,40.976 51,35.052 51,32.522 L51,31.942 L50.496,31.654" id="Fill-120" fill="#556080" sketch:type="MSShapeGroup"></path>
            <path d="M16.707,32.143 C16.316,31.752 15.684,31.752 15.293,32.143 L12.293,35.143 C11.902,35.533 11.902,36.166 12.293,36.557 C12.488,36.752 12.744,36.85 13,36.85 C13.256,36.85 13.512,36.752 13.707,36.557 L16.707,33.557 C17.098,33.166 17.098,32.533 16.707,32.143" id="Fill-121" fill="#8697CB" sketch:type="MSShapeGroup"></path>
            <path d="M21.293,32.143 L16.293,37.143 C15.902,37.533 15.902,38.166 16.293,38.557 C16.488,38.752 16.744,38.849 17,38.849 C17.256,38.849 17.512,38.752 17.707,38.557 L22.707,33.557 C23.098,33.166 23.098,32.533 22.707,32.143 C22.316,31.752 21.684,31.752 21.293,32.143" id="Fill-122" fill="#8697CB" sketch:type="MSShapeGroup"></path>
            <path d="M38.707,32.143 C38.316,31.752 37.684,31.752 37.293,32.143 L34.293,35.143 C33.902,35.533 33.902,36.166 34.293,36.557 C34.488,36.752 34.744,36.85 35,36.85 C35.256,36.85 35.512,36.752 35.707,36.557 L38.707,33.557 C39.098,33.166 39.098,32.533 38.707,32.143" id="Fill-123" fill="#8697CB" sketch:type="MSShapeGroup"></path>
            <path d="M44.707,32.143 C44.316,31.752 43.684,31.752 43.293,32.143 L38.293,37.143 C37.902,37.533 37.902,38.166 38.293,38.557 C38.488,38.752 38.744,38.849 39,38.849 C39.256,38.849 39.512,38.752 39.707,38.557 L44.707,33.557 C45.098,33.166 45.098,32.533 44.707,32.143" id="Fill-124" fill="#8697CB" sketch:type="MSShapeGroup"></path>
            <path d="M44,5.337 C43.687,4.277 43.073,3.317 42.225,2.56 C41.093,1.55 39.55,0.994 37.881,0.994 C36.798,0.994 35.704,1.231 34.719,1.681 L26.046,5.629 C25.066,6.075 23.926,6.222 22.868,6.031 L14.721,4.58 C14.292,4.504 13.853,4.465 13.413,4.465 C9.901,4.465 6.954,6.783 6.56,9.854 C6.53,10.076 6.515,10.302 6.511,10.521 L6.376,16.353 L45.712,10.901 L44,5.337" id="Fill-162" fill="#556080" sketch:type="MSShapeGroup"></path>
            <path d="M46.308,12.837 L6.33,18.378 L6.159,25.793 C6.152,26.087 6.275,26.368 6.494,26.562 C6.678,26.727 6.915,26.816 7.159,26.816 C7.205,26.816 7.251,26.813 7.297,26.807 L47.671,21.211 C47.961,21.171 48.219,21.005 48.377,20.758 C48.534,20.511 48.575,20.207 48.489,19.927 L46.308,12.837" id="Fill-163" fill="#556080" sketch:type="MSShapeGroup"></path>
            <path d="M45.712,10.901 L6.376,16.353 L6.33,18.378 L46.308,12.837 L45.712,10.901" id="Fill-164" fill="#8697CB" sketch:type="MSShapeGroup"></path>
            <path d="M4.499,35.121 C4.046,34.693 3.514,34.435 2.939,34.435 C1.316,34.435 0,36.415 0,38.859 C0,41.302 1.316,43.283 2.939,43.283 C3.626,43.283 4.25,42.913 4.75,42.318 C4.297,39.966 4.218,37.534 4.499,35.121" id="Fill-280" fill="#F9A671" sketch:type="MSShapeGroup"></path>
            <path d="M57.823,31.295 C57.26,28.918 55.523,27.296 53.943,27.673 C53.452,27.79 53.045,28.103 52.719,28.528 C53.257,30.043 53.713,31.682 54.046,33.485 C54.201,34.321 54.308,35.164 54.375,36.007 C54.895,36.291 55.447,36.409 55.983,36.281 C57.562,35.904 58.386,33.672 57.823,31.295" id="Fill-281" fill="#F9A671" sketch:type="MSShapeGroup"></path>
            <path d="M40,50.6 C38.019,44.93 27.73,47.556 23,54" id="Path" stroke="#F9A671" stroke-width="2" stroke-linecap="round" stroke-linejoin="round" sketch:type="MSShapeGroup"></path>
            <path d="M0.948,26.678 L52.709,19.503" id="Stroke-657" stroke="#3D324C" stroke-width="2" stroke-linecap="round" stroke-linejoin="round" sketch:type="MSShapeGroup"></path>
        </g>
    </g>
</svg>