<?xml version="1.0" encoding="UTF-8" standalone="no"?>
<svg width="50px" height="44px" viewBox="0 0 50 44" version="1.1" xmlns="http://www.w3.org/2000/svg" xmlns:xlink="http://www.w3.org/1999/xlink" xmlns:sketch="http://www.bohemiancoding.com/sketch/ns">
    <!-- Generator: Sketch 3.2.2 (9983) - http://www.bohemiancoding.com/sketch -->
    <title>106 - Trendy (Flat)</title>
    <desc>Created with Sketch.</desc>
    <defs></defs>
    <g id="Page-1" stroke="none" stroke-width="1" fill="none" fill-rule="evenodd" sketch:type="MSPage">
        <g id="106---Trendy-(Flat)" sketch:type="MSLayerGroup">
            <path d="M44,19 C43.777,17.739 43.441,16.524 43.009,15.36 C39.122,16.022 34.15,15.647 30.518,15.13 C28.091,14.785 25.752,14.066 23.456,13.212 C14.712,9.958 3.051,18.386 3,18.675 C1.337,19.336 0,21.602 0,23.5 C0,25.478 1.284,27.139 3.058,27.742 C5.21,37.053 13.536,44 23.5,44 C33.464,44 41.79,37.053 43.942,27.742 C45.716,27.139 47,25.478 47,23.5 C47,21.602 45.663,19.661 44,19" id="Fill-23" fill="#FFD581" sketch:type="MSShapeGroup"></path>
            <path d="M19,23.675 C19,24.78 18.105,25.675 17,25.675 C15.895,25.675 15,24.78 15,23.675 C15,22.571 15.895,21.675 17,21.675 C18.105,21.675 19,22.571 19,23.675" id="Fill-71" fill="#7F6E5D" sketch:type="MSShapeGroup"></path>
            <path d="M33,23.675 C33,24.78 32.105,25.675 31,25.675 C29.895,25.675 29,24.78 29,23.675 C29,22.571 29.895,21.675 31,21.675 C32.105,21.675 33,22.571 33,23.675" id="Fill-72" fill="#7F6E5D" sketch:type="MSShapeGroup"></path>
            <path d="M24.902,38.677 C22.395,38.677 19.92,37.724 17.524,35.832 C17.091,35.489 17.017,34.86 17.359,34.427 C17.702,33.992 18.331,33.921 18.764,34.262 C21.179,36.17 23.646,36.947 26.09,36.588 C30.657,35.906 33.787,31.458 33.818,31.413 C34.132,30.959 34.754,30.847 35.209,31.159 C35.663,31.473 35.778,32.095 35.465,32.549 C35.319,32.761 31.83,37.745 26.4,38.563 C25.9,38.639 25.4,38.677 24.902,38.677" id="Fill-156" fill="#CB8252" sketch:type="MSShapeGroup"></path>
            <path d="M35.999,33.775 C35.791,33.775 35.58,33.71 35.4,33.575 L32.6,31.476 C32.158,31.145 32.069,30.518 32.4,30.076 C32.732,29.634 33.358,29.546 33.8,29.876 L36.6,31.976 C37.042,32.307 37.131,32.934 36.8,33.375 C36.604,33.638 36.303,33.775 35.999,33.775" id="Fill-157" fill="#CB8252" sketch:type="MSShapeGroup"></path>
            <path d="M16.401,36.575 C16.097,36.575 15.796,36.438 15.6,36.175 C15.269,35.733 15.358,35.106 15.8,34.775 L18.6,32.676 C19.044,32.346 19.669,32.434 20,32.876 C20.331,33.317 20.242,33.944 19.8,34.275 L17,36.375 C16.82,36.51 16.609,36.575 16.401,36.575" id="Fill-158" fill="#CB8252" sketch:type="MSShapeGroup"></path>
            <path d="M48.493,12.587 C46.035,16.459 36.469,15.977 30.518,15.13 C28.092,14.785 25.753,14.066 23.456,13.212 C14.429,9.853 3,18.675 3,18.675 C3,18.675 5.943,3.717 20.026,1.201 C20.026,1.201 33.366,-1.324 35.463,9.253 C34.77,5.268 37.439,1.477 41.423,0.785 C45.407,0.092 49.198,2.761 49.891,6.745 C50.583,10.729 47.915,14.52 43.931,15.212" id="Fill-211" fill="#7F6E5D" sketch:type="MSShapeGroup"></path>
        </g>
    </g>
</svg>