<?xml version="1.0" encoding="UTF-8" standalone="no"?>
<svg width="58px" height="52px" viewBox="0 0 58 52" version="1.1" xmlns="http://www.w3.org/2000/svg" xmlns:xlink="http://www.w3.org/1999/xlink" xmlns:sketch="http://www.bohemiancoding.com/sketch/ns">
    <!-- Generator: Sketch 3.2.2 (9983) - http://www.bohemiancoding.com/sketch -->
    <title>83 - Very Happy (Flat)</title>
    <desc>Created with Sketch.</desc>
    <defs></defs>
    <g id="Page-1" stroke="none" stroke-width="1" fill="none" fill-rule="evenodd" sketch:type="MSPage">
        <g id="83---Very-Happy-(Flat)" sketch:type="MSLayerGroup" transform="translate(0.000000, 1.000000)">
            <path d="M29.392,51 C40.639,51.156 46.912,46.619 50.4,41.812 C54.003,36.845 55.164,30.529 54.046,24.489 C50.004,2.643 29.392,2.828 29.392,2.828 C29.392,2.828 8.781,2.643 4.738,24.489 C3.621,30.529 4.782,36.845 8.385,41.812 C11.872,46.619 18.146,51.156 29.392,51" id="Fill-98" fill="#FDC794" sketch:type="MSShapeGroup"></path>
            <path d="M4.499,26.126 C4.046,25.697 3.514,25.439 2.939,25.439 C1.316,25.439 0,27.42 0,29.863 C0,32.306 1.316,34.287 2.939,34.287 C3.626,34.287 4.25,33.918 4.75,33.323 C4.297,30.971 4.218,28.539 4.499,26.126" id="Fill-194" fill="#F9A671" sketch:type="MSShapeGroup"></path>
            <path d="M57.823,22.299 C57.26,19.922 55.523,18.301 53.943,18.677 C53.452,18.795 53.045,19.107 52.719,19.532 C53.257,21.047 53.713,22.686 54.046,24.489 C54.201,25.326 54.308,26.168 54.375,27.012 C54.895,27.296 55.447,27.413 55.983,27.285 C57.562,26.909 58.386,24.676 57.823,22.299" id="Fill-195" fill="#F9A671" sketch:type="MSShapeGroup"></path>
            <path d="M13.901,12 L8.901,7 M16.901,9 L13.901,3 M20.901,7 L18.901,1 M25.901,6 L24.9,0 M29.901,6 L29.901,0 M33.9,6 L35.901,0 M37.901,7 L39.9,1 M40.901,9 L43.901,3" id="Stroke-196" stroke="#5E5F62" stroke-width="2" stroke-linecap="round" sketch:type="MSShapeGroup"></path>
            <path d="M26,20.5 C26,24.642 23.314,28 20,28 C16.686,28 14,24.642 14,20.5 C14,16.358 16.686,13 20,13 C23.314,13 26,16.358 26,20.5" id="Fill-317" fill="#FFFFFF" sketch:type="MSShapeGroup"></path>
            <path d="M23,20.5 C23,22.985 21.657,25 20,25 C18.343,25 17,22.985 17,20.5 C17,18.015 18.343,16 20,16 C21.657,16 23,18.015 23,20.5" id="Fill-318" fill="#7F5B53" sketch:type="MSShapeGroup"></path>
            <path d="M44,20.5 C44,24.642 41.314,28 38,28 C34.686,28 32,24.642 32,20.5 C32,16.358 34.686,13 38,13 C41.314,13 44,16.358 44,20.5" id="Fill-319" fill="#FFFFFF" sketch:type="MSShapeGroup"></path>
            <path d="M41,20.5 C41,22.985 39.657,25 38,25 C36.343,25 35,22.985 35,20.5 C35,18.015 36.343,16 38,16 C39.657,16 41,18.015 41,20.5" id="Fill-320" fill="#7F5B53" sketch:type="MSShapeGroup"></path>
            <path d="M16,35 L16,35.031 C16,38.852 18.109,42.414 21.543,44.09 C23.682,45.134 26.235,45.775 28.985,45.775 C31.732,45.775 34.289,45.135 36.434,44.093 C39.884,42.416 42,38.836 41.989,35 L16,35" id="Fill-329" fill="#802D40" sketch:type="MSShapeGroup"></path>
            <path d="M38.029,43.087 L38,43 C38,40.538 33.716,39.458 28.996,39.458 C24.277,39.458 20,40.538 20,43 L19.986,43.111 C20.472,43.477 20.983,43.816 21.543,44.09 C23.682,45.134 26.235,45.775 28.985,45.775 C31.732,45.775 34.289,45.135 36.434,44.093 C37.009,43.813 37.532,43.464 38.029,43.087" id="Fill-633" fill="#E64C3C" sketch:type="MSShapeGroup"></path>
        </g>
    </g>
</svg>