<?xml version="1.0" encoding="UTF-8" standalone="no"?>
<svg width="42px" height="42px" viewBox="0 0 42 42" version="1.1" xmlns="http://www.w3.org/2000/svg" xmlns:xlink="http://www.w3.org/1999/xlink" xmlns:sketch="http://www.bohemiancoding.com/sketch/ns">
    <!-- Generator: Sketch 3.2.2 (9983) - http://www.bohemiancoding.com/sketch -->
    <title>197 - Wiffler (Flat)</title>
    <desc>Created with Sketch.</desc>
    <defs></defs>
    <g id="Page-1" stroke="none" stroke-width="1" fill="none" fill-rule="evenodd" sketch:type="MSPage">
        <g id="197---Wiffler-(Flat)" sketch:type="MSLayerGroup">
            <path d="M29.993,39.277 L24.477,33.761 C25.356,33.404 26.175,32.935 26.934,32.388 L29.942,29.381 C30.356,28.816 30.722,28.216 31,27.556 L36.357,32.913 C36.752,33.308 37.044,33.767 37.239,34.258 C40.198,30.64 42,26.039 42,21 C42,9.402 32.598,0 21,0 C9.402,0 0,9.402 0,21 C0,32.598 9.402,42 21,42 C24.429,42 27.654,41.16 30.512,39.7 C30.331,39.572 30.154,39.438 29.993,39.277" id="Fill-59" fill="#FBD971" sketch:type="MSShapeGroup"></path>
            <path d="M17,13.5 C17,15.433 15.433,17 13.5,17 C11.567,17 10,15.433 10,13.5 C10,11.567 11.567,10 13.5,10 C15.433,10 17,11.567 17,13.5" id="Fill-91" fill="#AF8066" sketch:type="MSShapeGroup"></path>
            <path d="M33,13.5 C33,15.433 31.433,17 29.5,17 C27.567,17 26,15.433 26,13.5 C26,11.567 27.567,10 29.5,10 C31.433,10 33,11.567 33,13.5" id="Fill-92" fill="#AF8066" sketch:type="MSShapeGroup"></path>
            <path d="M28.368,31.188 C27.266,32.289 25.943,33.166 24.477,33.761 L29.993,39.277 C31.548,40.833 34.094,40.833 35.65,39.277 L36.357,38.57 C37.912,37.014 37.912,34.469 36.357,32.913 L31,27.556 C30.406,28.965 29.433,30.122 28.368,31.188" id="Fill-228" fill="#FB7B76" sketch:type="MSShapeGroup"></path>
            <path d="M30.655,31.882 C29.986,31.377 29.379,30.949 28.834,30.696 C28.68,30.861 28.527,31.028 28.368,31.188 C27.996,31.559 27.592,31.894 27.174,32.212 C27.395,32.428 27.691,32.523 27.975,32.494 C28.712,32.835 30.968,34.596 32.114,35.741 C32.31,35.937 32.565,36.034 32.821,36.034 C33.077,36.034 33.333,35.937 33.528,35.741 C33.919,35.351 33.919,34.717 33.528,34.327 C32.862,33.661 31.68,32.655 30.655,31.882" id="Fill-358" fill="#E64C3C" sketch:type="MSShapeGroup"></path>
            <path d="M32,23 C32,29.075 27.075,34 21,34 C14.925,34 10,29.075 10,23" id="Stroke-359" stroke="#F0C419" stroke-width="2" stroke-linecap="round" stroke-linejoin="round" sketch:type="MSShapeGroup"></path>
        </g>
    </g>
</svg>