<?xml version="1.0" encoding="UTF-8" standalone="no"?>
<svg width="47px" height="43px" viewBox="0 0 47 43" version="1.1" xmlns="http://www.w3.org/2000/svg" xmlns:xlink="http://www.w3.org/1999/xlink" xmlns:sketch="http://www.bohemiancoding.com/sketch/ns">
    <!-- Generator: Sketch 3.2.2 (9983) - http://www.bohemiancoding.com/sketch -->
    <title>95 - Wink (Flat)</title>
    <desc>Created with Sketch.</desc>
    <defs></defs>
    <g id="Page-1" stroke="none" stroke-width="1" fill="none" fill-rule="evenodd" sketch:type="MSPage">
        <g id="95---Wink-(Flat)" sketch:type="MSLayerGroup">
            <path d="M44,17.325 L44,17.325 C42.26,7.482 33.842,0.325 23.5,0.325 C13.158,0.325 4.74,7.482 3,17.325 C1.337,17.986 0,19.927 0,21.825 C0,23.803 1.284,25.464 3.058,26.067 C5.21,35.377 13.536,42.325 23.5,42.325 C33.465,42.325 41.79,35.377 43.942,26.066 L43.942,26.067 C45.716,25.464 47,23.803 47,21.825 C47,19.927 45.663,17.986 44,17.325" id="Fill-12" fill="#FFD581" sketch:type="MSShapeGroup"></path>
            <path d="M22.577,36.994 C21.064,36.994 19.557,36.704 18.167,36.125 C17.657,35.913 17.416,35.327 17.629,34.817 C17.843,34.308 18.429,34.068 18.937,34.279 C23.642,36.239 29.201,34.091 31.077,29.588 C31.29,29.078 31.877,28.837 32.385,29.05 C32.894,29.262 33.136,29.848 32.923,30.357 C31.797,33.06 29.604,35.147 26.748,36.232 C25.412,36.741 23.991,36.994 22.577,36.994" id="Fill-55" fill="#CB8252" sketch:type="MSShapeGroup"></path>
            <path d="M32,24 C32,25.105 31.105,26 30,26 C28.895,26 28,25.105 28,24 C28,22.895 28.895,22 30,22 C31.105,22 32,22.895 32,24" id="Fill-56" fill="#414141" sketch:type="MSShapeGroup"></path>
            <path d="M44,17.325 L44,17.326 C42.26,7.483 33.684,0 23.342,0 C12.999,0 4.74,7.482 3,17.325 C3,17.325 19.906,21.655 31.242,12.599 C31.797,12.155 32.604,12.258 33,12.849 C35.049,15.9 38.828,19.605 44,17.325" id="Fill-87" fill="#414141" sketch:type="MSShapeGroup"></path>
            <path d="M14.53,28.772 C14.449,28.772 14.368,28.762 14.286,28.741 C13.75,28.607 13.425,28.063 13.56,27.528 C13.934,26.035 14.866,24.778 16.185,23.988 C16.675,23.694 17.196,23.479 17.735,23.342 C16.519,22.781 15.021,22.758 13.892,23.436 C13.417,23.718 12.803,23.565 12.519,23.091 C12.236,22.617 12.391,22.003 12.864,21.719 C14.166,20.94 15.827,20.722 17.423,21.122 C19.019,21.522 20.38,22.498 21.16,23.8 C21.367,24.146 21.346,24.585 21.105,24.909 C20.863,25.234 20.451,25.384 20.059,25.283 C18.051,24.785 16.004,26.005 15.499,28.015 C15.386,28.469 14.977,28.772 14.53,28.772" id="Fill-180" fill="#CB8252" sketch:type="MSShapeGroup"></path>
        </g>
    </g>
</svg>