<?xml version="1.0" encoding="UTF-8" standalone="no"?>
<svg width="42px" height="42px" viewBox="0 0 42 42" version="1.1" xmlns="http://www.w3.org/2000/svg" xmlns:xlink="http://www.w3.org/1999/xlink" xmlns:sketch="http://www.bohemiancoding.com/sketch/ns">
    <!-- Generator: Sketch 3.2.2 (9983) - http://www.bohemiancoding.com/sketch -->
    <title>211 - Winking (Flat)</title>
    <desc>Created with Sketch.</desc>
    <defs></defs>
    <g id="Page-1" stroke="none" stroke-width="1" fill="none" fill-rule="evenodd" sketch:type="MSPage">
        <g id="211---Winking-(Flat)" sketch:type="MSLayerGroup">
            <path d="M42,21 C42,32.598 32.598,42 21,42 C9.402,42 0,32.598 0,21 C0,9.402 9.402,0 21,0 C32.598,0 42,9.402 42,21" id="Fill-78" fill="#FBD971" sketch:type="MSShapeGroup"></path>
            <path d="M33,14.5 C33,16.433 31.433,18 29.5,18 C27.567,18 26,16.433 26,14.5 C26,12.567 27.567,11 29.5,11 C31.433,11 33,12.567 33,14.5" id="Fill-93" fill="#AF8066" sketch:type="MSShapeGroup"></path>
            <path d="M32,24 C32,30.075 27.075,35 21,35 C14.925,35 10,30.075 10,24" id="Path" stroke="#F0C419" stroke-width="2" stroke-linecap="round" stroke-linejoin="round" sketch:type="MSShapeGroup"></path>
            <path d="M8,14 L15,14" id="Stroke-115" stroke="#F29C1F" stroke-width="2" stroke-linecap="round" stroke-linejoin="round" sketch:type="MSShapeGroup"></path>
        </g>
    </g>
</svg>