<?xml version="1.0" encoding="UTF-8" standalone="no"?>
<svg width="58px" height="53px" viewBox="0 0 58 53" version="1.1" xmlns="http://www.w3.org/2000/svg" xmlns:xlink="http://www.w3.org/1999/xlink" xmlns:sketch="http://www.bohemiancoding.com/sketch/ns">
    <!-- Generator: Sketch 3.2.2 (9983) - http://www.bohemiancoding.com/sketch -->
    <title>75 - Yawning (Flat)</title>
    <desc>Created with Sketch.</desc>
    <defs></defs>
    <g id="Page-1" stroke="none" stroke-width="1" fill="none" fill-rule="evenodd" sketch:type="MSPage">
        <g id="75---Yawning-(Flat)" sketch:type="MSLayerGroup" transform="translate(0.000000, 1.000000)">
            <path d="M29.392,51.137 C40.639,51.293 46.912,46.756 50.4,41.949 C54.003,36.982 55.164,30.666 54.046,24.626 C50.004,2.78 29.392,2.965 29.392,2.965 C29.392,2.965 8.781,2.78 4.738,24.626 C3.621,30.666 4.782,36.982 8.385,41.949 C11.872,46.756 18.146,51.293 29.392,51.137" id="Fill-90" fill="#FDC794" sketch:type="MSShapeGroup"></path>
            <path d="M4.499,26.263 C4.046,25.834 3.514,25.576 2.939,25.576 C1.316,25.576 0,27.557 0,30 C0,32.443 1.316,34.424 2.939,34.424 C3.626,34.424 4.25,34.054 4.75,33.46 C4.297,31.108 4.218,28.676 4.499,26.263" id="Fill-229" fill="#F9A671" sketch:type="MSShapeGroup"></path>
            <path d="M57.823,22.436 C57.26,20.059 55.523,18.437 53.943,18.814 C53.452,18.931 53.045,19.244 52.719,19.669 C53.257,21.184 53.713,22.823 54.046,24.626 C54.201,25.463 54.308,26.305 54.375,27.148 C54.895,27.432 55.447,27.55 55.983,27.422 C57.562,27.045 58.386,24.813 57.823,22.436" id="Fill-230" fill="#F9A671" sketch:type="MSShapeGroup"></path>
            <path d="M13.901,12.137 L8.901,7.137 M16.901,9.137 L13.901,3.137 M20.901,7.137 L18.901,1.137 M25.901,6.137 L24.901,0.137 M29.901,6.137 L29.901,0.137 M33.901,6.137 L35.901,0.137 M37.901,7.137 L39.901,1.137 M40.901,9.137 L43.901,3.137" id="Stroke-231" stroke="#5E5F62" stroke-width="2" stroke-linecap="round" sketch:type="MSShapeGroup"></path>
            <path d="M18,23.141 C18,19.825 20.684,17.141 24,17.141 C21.655,14.796 17.345,14.796 15,17.141" id="Path" stroke="#F9A671" stroke-width="2" stroke-linecap="round" stroke-linejoin="round" sketch:type="MSShapeGroup"></path>
            <path d="M41,23.141 C41,19.825 38.316,17.141 35,17.141 C37.345,14.796 41.655,14.796 44,17.141" id="Path" stroke="#F9A671" stroke-width="2" stroke-linecap="round" stroke-linejoin="round" sketch:type="MSShapeGroup"></path>
            <path d="M39.5,35.141 C39.5,41.216 34.799,46.141 29,46.141 C23.201,46.141 18.5,41.216 18.5,35.141 C18.5,29.066 23.201,24.141 29,24.141 C34.799,24.141 39.5,29.066 39.5,35.141" id="Fill-386" fill="#802D40" sketch:type="MSShapeGroup"></path>
            <path d="M29,46.141 C31.719,46.141 34.189,45.049 36.054,43.272 L36,43.141 C36,39.573 32.866,36.68 29,36.68 C25.134,36.68 22,39.573 22,43.141 L21.977,43.301 C23.838,45.061 26.295,46.141 29,46.141" id="Fill-629" fill="#E64C3C" sketch:type="MSShapeGroup"></path>
        </g>
    </g>
</svg>