<?xml version="1.0" encoding="UTF-8" standalone="no"?>
<svg width="58px" height="52px" viewBox="0 0 58 52" version="1.1" xmlns="http://www.w3.org/2000/svg" xmlns:xlink="http://www.w3.org/1999/xlink" xmlns:sketch="http://www.bohemiancoding.com/sketch/ns">
    <!-- Generator: Sketch 3.2.2 (9983) - http://www.bohemiancoding.com/sketch -->
    <title>70 - Yelling (Flat)</title>
    <desc>Created with Sketch.</desc>
    <defs></defs>
    <g id="Page-1" stroke="none" stroke-width="1" fill="none" fill-rule="evenodd" sketch:type="MSPage">
        <g id="70---Yelling-(Flat)" sketch:type="MSLayerGroup" transform="translate(0.000000, 1.000000)">
            <path d="M29.392,51 C40.639,51.156 46.912,46.619 50.4,41.811 C54.003,36.845 55.164,30.529 54.046,24.489 C50.004,2.643 29.392,2.827 29.392,2.827 C29.392,2.827 8.781,2.643 4.738,24.489 C3.621,30.529 4.782,36.845 8.385,41.811 C11.872,46.619 18.146,51.156 29.392,51" id="Fill-77" fill="#FDC794" sketch:type="MSShapeGroup"></path>
            <path d="M4.499,26.126 C4.046,25.697 3.514,25.439 2.939,25.439 C1.316,25.439 0,27.42 0,29.863 C0,32.306 1.316,34.287 2.939,34.287 C3.626,34.287 4.25,33.917 4.75,33.323 C4.297,30.971 4.218,28.539 4.499,26.126" id="Fill-244" fill="#F9A671" sketch:type="MSShapeGroup"></path>
            <path d="M57.823,22.299 C57.259,19.922 55.523,18.3 53.943,18.677 C53.452,18.794 53.045,19.106 52.719,19.532 C53.257,21.047 53.713,22.686 54.046,24.489 C54.201,25.326 54.308,26.168 54.375,27.011 C54.895,27.295 55.447,27.413 55.983,27.285 C57.562,26.908 58.386,24.676 57.823,22.299" id="Fill-245" fill="#F9A671" sketch:type="MSShapeGroup"></path>
            <path d="M13.901,12 L8.901,6.999 M16.901,9 L13.901,3 M20.901,6.999 L18.901,0.999 M25.901,6 L24.901,0 M29.901,6 L29.901,0 M33.901,6 L35.901,0 M37.901,6.999 L39.901,0.999 M40.901,9 L43.901,3" id="Stroke-246" stroke="#5E5F62" stroke-width="2" stroke-linecap="round" sketch:type="MSShapeGroup"></path>
            <path d="M22,42.999 C22,39.98 26.789,34.918 32.696,34.918 C38.603,34.918 43.392,39.98 43.392,42.999 C43.392,46.019 38.603,42.049 32.696,42.049 C26.789,42.049 22,46.019 22,42.999" id="Fill-375" fill="#802D40" sketch:type="MSShapeGroup"></path>
            <path d="M16.944,19.779 C16.349,20.71 16,21.813 16,23 C16,26.314 18.686,29 22,29 C24.983,29 27.451,26.821 27.915,23.969 L17,20 L16.944,19.779" id="Fill-581" fill="#FFFFFF" sketch:type="MSShapeGroup"></path>
            <path d="M42,18 L28.065,23.972 C28.545,27.931 31.911,31 36,31 C40.418,31 44,27.418 44,23 C44,21.051 43.302,19.267 42.144,17.879 L42,18" id="Fill-582" fill="#FFFFFF" sketch:type="MSShapeGroup"></path>
            <path d="M27.915,23.969 L28,24 L28.065,23.972 C28.026,23.653 28,23.33 28,23 C28,23.33 27.966,23.653 27.915,23.969" id="Fill-583" fill="#F9A671" sketch:type="MSShapeGroup"></path>
            <path d="M22,17 C19.873,17 18.009,18.11 16.944,19.779 L17,20 L27.915,23.969 C27.966,23.653 28,23.33 28,23 C28,19.686 25.314,17 22,17" id="Fill-584" fill="#F9A671" sketch:type="MSShapeGroup"></path>
            <path d="M42.144,17.879 C40.677,16.121 38.47,15 36,15 C31.582,15 28,18.582 28,23 C28,23.33 28.026,23.653 28.065,23.972 L42,18 L42.144,17.879" id="Fill-585" fill="#F9A671" sketch:type="MSShapeGroup"></path>
            <path d="M24,25 C24,25.552 23.552,26 23,26 C22.448,26 22,25.552 22,25 C22,24.448 22.448,24 23,24 C23.552,24 24,24.448 24,25" id="Fill-586" fill="#7F5B53" sketch:type="MSShapeGroup"></path>
            <path d="M35,25.5 C35,26.328 34.328,27 33.5,27 C32.672,27 32,26.328 32,25.5 C32,24.671 32.672,24 33.5,24 C34.328,24 35,24.671 35,25.5" id="Fill-587" fill="#7F5B53" sketch:type="MSShapeGroup"></path>
            <path d="M38,36.999 L38.841,36.789 C37.102,35.682 34.985,34.918 32.696,34.918 C30.573,34.918 28.6,35.578 26.937,36.555 L27,36.999 C27,38.104 29.462,39 32.5,39 C35.537,39 38,38.104 38,36.999" id="Fill-640" fill="#E64C3C" sketch:type="MSShapeGroup"></path>
        </g>
    </g>
</svg>