<?xml version="1.0" encoding="UTF-8" standalone="no"?>
<svg width="42px" height="51px" viewBox="0 0 42 51" version="1.1" xmlns="http://www.w3.org/2000/svg" xmlns:xlink="http://www.w3.org/1999/xlink" xmlns:sketch="http://www.bohemiancoding.com/sketch/ns">
    <!-- Generator: Sketch 3.2.2 (9983) - http://www.bohemiancoding.com/sketch -->
    <title>13 - Zombie (Flat)</title>
    <desc>Created with Sketch.</desc>
    <defs></defs>
    <g id="Page-1" stroke="none" stroke-width="1" fill="none" fill-rule="evenodd" sketch:type="MSPage">
        <g id="13---Zombie-(Flat)" sketch:type="MSLayerGroup">
            <path d="M40.697,15.706 C41.147,14.916 40.746,13.951 39.864,13.731 C36.218,12.821 33,9.707 33,6 L4,6 C1.8,6 0,7.8 0,10 L0,20 C3.127,23.127 3.127,27.873 0,31 L0,34.134 C0,35.624 0.679,37.081 1.929,37.892 C4.307,39.436 5.573,42.212 5.354,45.11 C5.278,46.126 6.057,47 7.076,47 L38,47 C40.2,47 42,45.2 42,43 L42,25.314 C39.394,22.708 38.96,18.76 40.697,15.706" id="Fill-38" fill="#FFDB2B" sketch:type="MSShapeGroup"></path>
            <path d="M32.695,51 L9.305,51 C8.584,51 8,50.415 8,49.695 L8,47 L34,47 L34,49.695 C34,50.415 33.416,51 32.695,51" id="Fill-351" fill="#FEC722" sketch:type="MSShapeGroup"></path>
            <path d="M15.305,0 L26.695,0 C27.416,0 28,0.585 28,1.305 L28,6 L14,6 L14,1.305 C14,0.585 14.584,0 15.305,0" id="Fill-352" fill="#FEC722" sketch:type="MSShapeGroup"></path>
            <path d="M17,21 L7,21 L12,13 L17,21" id="Fill-412" fill="#E64C3C" sketch:type="MSShapeGroup"></path>
            <path d="M35,21 L25,21 L30,13 L35,21" id="Fill-413" fill="#E64C3C" sketch:type="MSShapeGroup"></path>
            <path d="M13,30.046 C10.784,29.762 10.11,30.721 9,35.046 C8.149,38.362 13.996,42.105 14.052,42.046 C18.958,36.896 23.187,37.608 27.948,42.046 C28.008,42.101 33.851,38.362 33,35.046 C31.89,30.721 31.216,29.762 29,30.046 C24.019,30.685 17.981,30.685 13,30.046" id="Fill-414" fill="#FFFFFF" sketch:type="MSShapeGroup"></path>
            <path d="M14,42 L14,31 M28,42 L28,31 M21,38 L21,31 M10,35 L32,35" id="Stroke-415" stroke="#ECF0F1" stroke-width="2" stroke-linecap="round" stroke-linejoin="round" sketch:type="MSShapeGroup"></path>
            <path d="M14.05,43.047 C13.293,43.047 10.614,40.887 9.352,39.259 C8.122,37.675 7.679,36.174 8.031,34.798 C9.041,30.861 9.801,28.629 13.127,29.054 C17.932,29.671 24.068,29.671 28.873,29.054 C32.2,28.63 32.959,30.863 33.969,34.797 C34.322,36.174 33.878,37.675 32.649,39.259 C31.386,40.887 28.707,43.047 27.95,43.047 C27.697,43.047 27.45,42.949 27.266,42.776 C24.861,40.535 22.747,39.445 20.803,39.445 C18.856,39.445 16.885,40.522 14.775,42.735 C14.587,42.934 14.323,43.047 14.05,43.047 L14.05,43.047 Z M20.803,37.445 C23.144,37.445 25.467,38.516 28.068,40.806 C29.484,39.827 32.526,37.223 32.031,35.294 C30.981,31.199 30.467,31 29.648,31 C29.487,31 29.315,31.014 29.127,31.038 C24.158,31.675 17.842,31.675 12.873,31.038 C12.686,31.014 12.513,31 12.352,31 C11.533,31 11.019,31.199 9.969,35.295 C9.478,37.208 12.466,39.786 13.896,40.781 C16.206,38.538 18.471,37.445 20.803,37.445 L20.803,37.445 Z" id="Fill-541" fill="#F0C419" sketch:type="MSShapeGroup"></path>
        </g>
    </g>
</svg>