<?xml version="1.0" encoding="UTF-8" standalone="no"?>
<svg width="54px" height="54px" viewBox="0 0 54 54" version="1.1" xmlns="http://www.w3.org/2000/svg" xmlns:xlink="http://www.w3.org/1999/xlink" xmlns:sketch="http://www.bohemiancoding.com/sketch/ns">
    <!-- Generator: Sketch 3.2.2 (9983) - http://www.bohemiancoding.com/sketch -->
    <title>23 - End Phonecall (Flat)</title>
    <desc>Created with Sketch.</desc>
    <defs></defs>
    <g id="Page-1" stroke="none" stroke-width="1" fill="none" fill-rule="evenodd" sketch:type="MSPage">
        <g id="23---End-Phonecall-(Flat)" sketch:type="MSLayerGroup">
            <path d="M29,36.935 C29,36.935 33.375,41.248 40,41.935 M18,25.935 C18,25.935 12.687,21.56 12,14.935" id="Stroke-480" stroke="#0F81E0" stroke-width="2" stroke-linecap="round" sketch:type="MSShapeGroup"></path>
            <path d="M52.478,41.372 C50.58,37.784 43.579,33.681 43.579,33.681 C41.995,32.778 40.084,32.678 39.18,34.287 C39.18,34.287 36.906,37.015 36.327,37.407 C33.683,39.198 31.236,39.129 28.764,36.657 L17.278,25.171 C14.806,22.699 14.737,20.252 16.528,17.608 C16.92,17.03 19.648,14.755 19.648,14.755 C21.257,13.851 21.157,11.94 20.254,10.356 C20.254,10.356 16.151,3.355 12.563,1.457 C11.038,0.649 9.163,0.931 7.943,2.152 L5.406,4.689 C-2.64,12.734 1.321,21.818 9.367,29.863 L24.072,44.569 C32.118,52.614 41.201,56.575 49.246,48.53 L51.783,45.993 C53.004,44.772 53.286,42.898 52.478,41.372 L52.478,41.372 Z" id="Fill-493" fill="#A4E869" sketch:type="MSShapeGroup"></path>
            <path d="M52.478,41.372 C50.58,37.784 43.579,33.681 43.579,33.681 C41.995,32.778 40.084,32.678 39.18,34.287 C39.18,34.287 36.906,37.015 36.327,37.407 C33.683,39.198 31.236,39.129 28.764,36.657 L17.278,25.171 C14.806,22.699 14.737,20.252 16.528,17.608 C16.92,17.03 19.648,14.755 19.648,14.755 C21.257,13.851 21.157,11.94 20.254,10.356 C20.254,10.356 16.151,3.355 12.563,1.457 C11.038,0.649 9.163,0.931 7.943,2.152 L5.406,4.689 C-2.64,12.734 1.321,21.818 9.367,29.863 L24.072,44.569 C32.118,52.614 41.201,56.575 49.246,48.53 L51.783,45.993 C53.004,44.772 53.286,42.898 52.478,41.372 L52.478,41.372 Z" id="Stroke-494" stroke="#88C057" stroke-width="2" stroke-linecap="round" sketch:type="MSShapeGroup"></path>
            <path d="M1.935,52.935 L42.935,11.935" id="Stroke-735" stroke="#FC3951" stroke-width="2" stroke-linecap="round" sketch:type="MSShapeGroup"></path>
        </g>
    </g>
</svg>