<?xml version="1.0" encoding="UTF-8" standalone="no"?>
<svg width="54px" height="58px" viewBox="0 0 54 58" version="1.1" xmlns="http://www.w3.org/2000/svg" xmlns:xlink="http://www.w3.org/1999/xlink" xmlns:sketch="http://www.bohemiancoding.com/sketch/ns">
    <!-- Generator: Sketch 3.2.2 (9983) - http://www.bohemiancoding.com/sketch -->
    <title>12 - Get from Mail (Flat)</title>
    <desc>Created with Sketch.</desc>
    <defs></defs>
    <g id="Page-1" stroke="none" stroke-width="1" fill="none" fill-rule="evenodd" sketch:type="MSPage">
        <g id="12---Get-from-Mail-(Flat)" sketch:type="MSLayerGroup">
            <path d="M54,23.557 L31.966,2.017 C29.215,-0.672 24.785,-0.672 22.034,2.017 L0,23.557 L0,58 L54,58 L54,23.557" id="Fill-206" fill="#2A55C5" sketch:type="MSShapeGroup"></path>
            <path d="M34.707,20.293 L27.708,13.294 C27.616,13.201 27.505,13.128 27.382,13.077 C27.138,12.976 26.862,12.976 26.618,13.077 C26.495,13.128 26.384,13.201 26.292,13.294 L19.293,20.293 C18.902,20.684 18.902,21.316 19.293,21.707 C19.488,21.902 19.744,22 20,22 C20.256,22 20.512,21.902 20.707,21.707 L26,16.414 L26,33 C26,33.553 26.447,34 27,34 C27.553,34 28,33.553 28,33 L28,16.414 L33.293,21.707 C33.488,21.902 33.744,22 34,22 C34.256,22 34.512,21.902 34.707,21.707 C35.098,21.316 35.098,20.684 34.707,20.293" id="Fill-358" fill="#FFFFFF" sketch:type="MSShapeGroup"></path>
            <path d="M54,58 L31.446,40.533 C28.689,38.638 25.041,38.628 22.274,40.506 C14.524,45.767 0,58 0,58 L54,58" id="Fill-701" fill="#86D7FB" sketch:type="MSShapeGroup"></path>
            <path d="M23.158,40 L23,40 L0,24 L0,58 C0,58 14.524,45.767 22.273,40.506 C22.558,40.313 22.857,40.153 23.158,40" id="Fill-702" fill="#31B6F3" sketch:type="MSShapeGroup"></path>
            <path d="M31,40 L30.527,40 C30.841,40.16 31.15,40.33 31.446,40.533 L54,58 L54,24 L31,40" id="Fill-703" fill="#167CD8" sketch:type="MSShapeGroup"></path>
        </g>
    </g>
</svg>