<?xml version="1.0" encoding="UTF-8" standalone="no"?>
<svg width="54px" height="48px" viewBox="0 0 54 48" version="1.1" xmlns="http://www.w3.org/2000/svg" xmlns:xlink="http://www.w3.org/1999/xlink" xmlns:sketch="http://www.bohemiancoding.com/sketch/ns">
    <!-- Generator: Sketch 3.2.2 (9983) - http://www.bohemiancoding.com/sketch -->
    <title>98 - Inbox Archive (Flat)</title>
    <desc>Created with Sketch.</desc>
    <defs></defs>
    <g id="Page-1" stroke="none" stroke-width="1" fill="none" fill-rule="evenodd" sketch:type="MSPage">
        <g id="98---Inbox-Archive-(Flat)" sketch:type="MSLayerGroup">
            <path d="M38,30.486 L38,34.514 C38,35.335 37.335,36 36.514,36 L17.486,36 C16.665,36 16,35.335 16,34.514 L16,30.486 C16,29.665 15.335,29 14.514,29 L0.232,29 C0.104,29 0,29.104 0,29.231 L0,45.374 C0,46.824 1.176,48 2.626,48 L51.374,48 C52.825,48 54,46.824 54,45.374 L54,29.231 C54,29.104 53.896,29 53.769,29 L39.486,29 C38.665,29 38,29.665 38,30.486" id="Fill-106" fill="#0F81E0" sketch:type="MSShapeGroup"></path>
            <path d="M44,0 L10,0 L0,29 L0,29.231 C0,29.104 0.104,29 0.232,29 L14.514,29 C15.335,29 16,29.665 16,30.486 L16,34.514 C16,35.335 16.665,36 17.486,36 L36.514,36 C37.335,36 38,35.335 38,34.514 L38,30.486 C38,29.665 38.665,29 39.486,29 L53.769,29 C53.896,29 54,29.104 54,29.231 L54,28.997 L44,0" id="Fill-124" fill="#13649B" sketch:type="MSShapeGroup"></path>
            <path d="M14.514,29 C15.335,29 16,29.665 16,30.486 L16,34.514 C16,35.335 16.665,36 17.486,36 L36.514,36 C37.335,36 38,35.335 38,34.514 L38,30.486 C38,29.665 38.665,29 39.486,29 L46,29 L46,21 L8,21 L8,29 L14.514,29" id="Fill-725" fill="#F3EDBF" sketch:type="MSShapeGroup"></path>
            <path d="M11,13 L43,13 L43,21 L11,21 L11,13 Z" id="Fill-726" fill="#D8D1AB" sketch:type="MSShapeGroup"></path>
            <path d="M14,5 L40,5 L40,13 L14,13 L14,5 Z" id="Fill-727" fill="#BAB395" sketch:type="MSShapeGroup"></path>
        </g>
    </g>
</svg>