<?xml version="1.0" encoding="UTF-8" standalone="no"?>
<svg width="54px" height="57px" viewBox="0 0 54 57" version="1.1" xmlns="http://www.w3.org/2000/svg" xmlns:xlink="http://www.w3.org/1999/xlink" xmlns:sketch="http://www.bohemiancoding.com/sketch/ns">
    <!-- Generator: Sketch 3.2.2 (9983) - http://www.bohemiancoding.com/sketch -->
    <title>96 - Inbox File (Flat)</title>
    <desc>Created with Sketch.</desc>
    <defs></defs>
    <g id="Page-1" stroke="none" stroke-width="1" fill="none" fill-rule="evenodd" sketch:type="MSPage">
        <g id="96---Inbox-File-(Flat)" sketch:type="MSLayerGroup">
            <path d="M38,39.486 L38,43.514 C38,44.335 37.335,45 36.514,45 L17.486,45 C16.665,45 16,44.335 16,43.514 L16,39.486 C16,38.665 15.335,38 14.514,38 L0.232,38 C0.104,38 0,38.104 0,38.231 L0,54.374 C0,55.824 1.176,57 2.626,57 L51.374,57 C52.825,57 54,55.824 54,54.374 L54,38.231 C54,38.104 53.896,38 53.769,38 L39.486,38 C38.665,38 38,38.665 38,39.486" id="Fill-88" fill="#546A79" sketch:type="MSShapeGroup"></path>
            <path d="M14.514,38 C15.335,38 16,38.665 16,39.486 L16,43.514 C16,44.335 16.665,45 17.486,45 L36.514,45 C37.335,45 38,44.335 38,43.514 L38,39.486 C38,38.665 38.665,38 39.486,38 L47,38 L47,8 L39,0 L7,0 L7,38 L14.514,38" id="Fill-89" fill="#F3EDBF" sketch:type="MSShapeGroup"></path>
            <path d="M46.902,8 L39.67,8 C39.3,8 39,7.7 39,7.33 L39,0.098 C39,0.062 39.044,0.044 39.07,0.069 L46.93,7.93 C46.956,7.956 46.938,8 46.902,8" id="Fill-90" fill="#BAB395" sketch:type="MSShapeGroup"></path>
            <path d="M0.08,37.848 C0.044,37.917 0.094,38 0.172,38 L7,38 L7,24.7 L0.08,37.848" id="Fill-91" fill="#38454F" sketch:type="MSShapeGroup"></path>
            <path d="M15.97,39.186 C15.91,38.896 15.767,38.637 15.565,38.435 C15.767,38.637 15.91,38.896 15.97,39.186" id="Fill-92" fill="#38454F" sketch:type="MSShapeGroup"></path>
            <path d="M38.435,38.435 C38.234,38.637 38.09,38.896 38.03,39.186 C38.09,38.896 38.234,38.637 38.435,38.435" id="Fill-93" fill="#38454F" sketch:type="MSShapeGroup"></path>
            <path d="M47,24.7 L47,38 L53.828,38 C53.906,38 53.956,37.917 53.92,37.848 L47,24.7" id="Fill-94" fill="#38454F" sketch:type="MSShapeGroup"></path>
            <path d="M13,13 L31,13 C31.552,13 32,12.552 32,12 C32,11.448 31.552,11 31,11 L13,11 C12.448,11 12,11.448 12,12 C12,12.552 12.448,13 13,13" id="Fill-95" fill="#BAB395" sketch:type="MSShapeGroup"></path>
            <path d="M31,31 L13,31 C12.448,31 12,31.448 12,32 C12,32.552 12.448,33 13,33 L31,33 C31.552,33 32,32.552 32,32 C32,31.448 31.552,31 31,31" id="Fill-96" fill="#BAB395" sketch:type="MSShapeGroup"></path>
            <path d="M41,25 L34,25 C33.448,25 33,25.448 33,26 C33,26.552 33.448,27 34,27 L41,27 C41.552,27 42,26.552 42,26 C42,25.448 41.552,25 41,25" id="Fill-97" fill="#BAB395" sketch:type="MSShapeGroup"></path>
            <path d="M13,20 L19,20 C19.552,20 20,19.552 20,19 C20,18.448 19.552,18 19,18 L13,18 C12.448,18 12,18.448 12,19 C12,19.552 12.448,20 13,20" id="Fill-98" fill="#BAB395" sketch:type="MSShapeGroup"></path>
            <path d="M28,19 C28,19.552 28.448,20 29,20 L36,20 C36.552,20 37,19.552 37,19 C37,18.448 36.552,18 36,18 L29,18 C28.448,18 28,18.448 28,19" id="Fill-99" fill="#BAB395" sketch:type="MSShapeGroup"></path>
            <path d="M24.71,19.71 C24.89,19.52 25,19.26 25,19 C25,18.74 24.89,18.48 24.71,18.29 C24.33,17.92 23.67,17.92 23.29,18.29 C23.11,18.48 23,18.74 23,19 C23,19.26 23.11,19.52 23.29,19.71 C23.48,19.89 23.74,20 24,20 C24.26,20 24.52,19.89 24.71,19.71" id="Fill-100" fill="#BAB395" sketch:type="MSShapeGroup"></path>
            <path d="M17,26 C17,26.552 17.448,27 18,27 L29,27 C29.552,27 30,26.552 30,26 C30,25.448 29.552,25 29,25 L18,25 C17.448,25 17,25.448 17,26" id="Fill-101" fill="#BAB395" sketch:type="MSShapeGroup"></path>
            <path d="M13,27 C13.26,27 13.52,26.89 13.71,26.71 C13.89,26.52 14,26.26 14,26 C14,25.74 13.89,25.48 13.71,25.29 C13.34,24.92 12.66,24.92 12.29,25.29 C12.11,25.48 12,25.74 12,26 C12,26.26 12.11,26.52 12.29,26.71 C12.48,26.89 12.74,27 13,27" id="Fill-102" fill="#BAB395" sketch:type="MSShapeGroup"></path>
            <path d="M41,20 C41.26,20 41.52,19.89 41.71,19.71 C41.89,19.52 42,19.26 42,19 C42,18.74 41.89,18.48 41.71,18.29 C41.34,17.92 40.66,17.92 40.29,18.29 C40.11,18.48 40,18.74 40,19 C40,19.26 40.11,19.52 40.29,19.71 C40.48,19.89 40.74,20 41,20" id="Fill-103" fill="#BAB395" sketch:type="MSShapeGroup"></path>
            <path d="M35.29,31.29 C35.11,31.48 35,31.74 35,32 C35,32.26 35.11,32.52 35.29,32.71 C35.48,32.89 35.74,33 36,33 C36.26,33 36.52,32.89 36.71,32.71 C36.89,32.52 37,32.26 37,32 C37,31.74 36.89,31.48 36.71,31.29 C36.34,30.92 35.67,30.92 35.29,31.29" id="Fill-104" fill="#BAB395" sketch:type="MSShapeGroup"></path>
            <path d="M40.29,31.29 C40.11,31.48 40,31.74 40,32 C40,32.26 40.11,32.52 40.29,32.71 C40.48,32.89 40.74,33 41,33 C41.26,33 41.52,32.89 41.71,32.71 C41.89,32.52 42,32.26 42,32 C42,31.74 41.89,31.48 41.71,31.29 C41.34,30.92 40.66,30.92 40.29,31.29" id="Fill-105" fill="#BAB395" sketch:type="MSShapeGroup"></path>
        </g>
    </g>
</svg>