<?xml version="1.0" encoding="UTF-8" standalone="no"?>
<svg width="56px" height="56px" viewBox="0 0 56 56" version="1.1" xmlns="http://www.w3.org/2000/svg" xmlns:xlink="http://www.w3.org/1999/xlink" xmlns:sketch="http://www.bohemiancoding.com/sketch/ns">
    <!-- Generator: Sketch 3.2.2 (9983) - http://www.bohemiancoding.com/sketch -->
    <title>97 - Inbox E-Mail (Flat)</title>
    <desc>Created with Sketch.</desc>
    <defs></defs>
    <g id="Page-1" stroke="none" stroke-width="1" fill="none" fill-rule="evenodd" sketch:type="MSPage">
        <g id="97---Inbox-E-Mail-(Flat)" sketch:type="MSLayerGroup">
            <path d="M53.616,56 L2.384,56 C1.068,56 0,54.932 0,53.616 L0,2.384 C0,1.067 1.068,0 2.384,0 L53.616,0 C54.933,0 56,1.067 56,2.384 L56,53.616 C56,54.932 54.933,56 53.616,56" id="Fill-78" fill="#0F81E0" sketch:type="MSShapeGroup"></path>
            <path d="M51,4 L5,4 L5,37 L17,37 L17,44 L39,44 L39,37 L51,37 L51,4" id="Fill-79" fill="#F3EDBF" sketch:type="MSShapeGroup"></path>
            <path d="M12,15 L30,15 C30.552,15 31,14.552 31,14 C31,13.448 30.552,13 30,13 L12,13 C11.448,13 11,13.448 11,14 C11,14.552 11.448,15 12,15" id="Fill-80" fill="#BAB395" sketch:type="MSShapeGroup"></path>
            <path d="M44,27 L33,27 C32.448,27 32,27.448 32,28 C32,28.552 32.448,29 33,29 L44,29 C44.552,29 45,28.552 45,28 C45,27.448 44.552,27 44,27" id="Fill-81" fill="#BAB395" sketch:type="MSShapeGroup"></path>
            <path d="M12,22 L18,22 C18.552,22 19,21.552 19,21 C19,20.448 18.552,20 18,20 L12,20 C11.448,20 11,20.448 11,21 C11,21.552 11.448,22 12,22" id="Fill-82" fill="#BAB395" sketch:type="MSShapeGroup"></path>
            <path d="M27,21 C27,21.552 27.448,22 28,22 L39,22 C39.552,22 40,21.552 40,21 C40,20.448 39.552,20 39,20 L28,20 C27.448,20 27,20.448 27,21" id="Fill-83" fill="#BAB395" sketch:type="MSShapeGroup"></path>
            <path d="M22.29,20.29 C22.11,20.48 22,20.74 22,21 C22,21.26 22.11,21.52 22.29,21.71 C22.48,21.89 22.74,22 23,22 C23.27,22 23.52,21.89 23.71,21.71 C23.89,21.52 24,21.26 24,21 C24,20.74 23.89,20.48 23.71,20.29 C23.34,19.92 22.67,19.92 22.29,20.29" id="Fill-84" fill="#BAB395" sketch:type="MSShapeGroup"></path>
            <path d="M28,27 L17,27 C16.448,27 16,27.448 16,28 C16,28.552 16.448,29 17,29 L28,29 C28.552,29 29,28.552 29,28 C29,27.448 28.552,27 28,27" id="Fill-85" fill="#BAB395" sketch:type="MSShapeGroup"></path>
            <path d="M11.29,27.29 C11.11,27.48 11,27.74 11,28 C11,28.26 11.11,28.52 11.29,28.71 C11.48,28.89 11.74,29 12,29 C12.26,29 12.52,28.89 12.71,28.71 C12.89,28.52 13,28.26 13,28 C13,27.74 12.89,27.48 12.71,27.29 C12.33,26.92 11.66,26.92 11.29,27.29" id="Fill-86" fill="#BAB395" sketch:type="MSShapeGroup"></path>
            <path d="M44,22 C44.26,22 44.52,21.89 44.71,21.71 C44.89,21.52 45,21.26 45,21 C45,20.74 44.89,20.48 44.71,20.29 C44.34,19.92 43.66,19.92 43.29,20.29 C43.11,20.48 43,20.74 43,21 C43,21.26 43.11,21.52 43.29,21.71 C43.48,21.89 43.73,22 44,22" id="Fill-87" fill="#BAB395" sketch:type="MSShapeGroup"></path>
        </g>
    </g>
</svg>