<?xml version="1.0" encoding="UTF-8" standalone="no"?>
<svg width="58px" height="49px" viewBox="0 0 58 49" version="1.1" xmlns="http://www.w3.org/2000/svg" xmlns:xlink="http://www.w3.org/1999/xlink" xmlns:sketch="http://www.bohemiancoding.com/sketch/ns">
    <!-- Generator: Sketch 3.2.2 (9983) - http://www.bohemiancoding.com/sketch -->
    <title>7 - Mail (Flat)</title>
    <desc>Created with Sketch.</desc>
    <defs></defs>
    <g id="Page-1" stroke="none" stroke-width="1" fill="none" fill-rule="evenodd" sketch:type="MSPage">
        <g id="7---Mail-(Flat)" sketch:type="MSLayerGroup">
            <path d="M0,49 L58,49 L58,8 L0,8 L0,49 Z" id="Fill-61" fill="#D1D0BF" sketch:type="MSShapeGroup"></path>
            <path d="M0,8.001 L27.139,35.268 C28.187,36.244 29.813,36.244 30.862,35.268 L58,8 L0,8.001" id="Fill-222" fill="#B2AF94" sketch:type="MSShapeGroup"></path>
            <path d="M53,41 L45,41 C44.448,41 44,40.553 44,40 C44,39.447 44.448,39 45,39 L53,39 C53.552,39 54,39.447 54,40 C54,40.553 53.552,41 53,41" id="Fill-351" fill="#A3A081" sketch:type="MSShapeGroup"></path>
            <path d="M53,37 L45,37 C44.448,37 44,36.553 44,36 C44,35.447 44.448,35 45,35 L53,35 C53.552,35 54,35.447 54,36 C54,36.553 53.552,37 53,37" id="Fill-352" fill="#A3A081" sketch:type="MSShapeGroup"></path>
            <path d="M53,45 L40,45 C39.448,45 39,44.553 39,44 C39,43.447 39.448,43 40,43 L53,43 C53.552,43 54,43.447 54,44 C54,44.553 53.552,45 53,45" id="Fill-353" fill="#A3A081" sketch:type="MSShapeGroup"></path>
            <path d="M2,4 L56,4 L56,8 L2,8 L2,4 Z" id="Fill-356" fill="#C4C2A5" sketch:type="MSShapeGroup"></path>
            <path d="M4,0 L54,0 L54,4 L4,4 L4,0 Z" id="Fill-357" fill="#E0DCC3" sketch:type="MSShapeGroup"></path>
        </g>
    </g>
</svg>