<?xml version="1.0" encoding="UTF-8" standalone="no"?>
<svg width="57px" height="58px" viewBox="0 0 57 58" version="1.1" xmlns="http://www.w3.org/2000/svg" xmlns:xlink="http://www.w3.org/1999/xlink" xmlns:sketch="http://www.bohemiancoding.com/sketch/ns">
    <!-- Generator: Sketch 3.2.2 (9983) - http://www.bohemiancoding.com/sketch -->
    <title>32 - Message (Flat)</title>
    <desc>Created with Sketch.</desc>
    <defs></defs>
    <g id="Page-1" stroke="none" stroke-width="1" fill="none" fill-rule="evenodd" sketch:type="MSPage">
        <g id="32---Message-(Flat)" sketch:type="MSLayerGroup">
            <path d="M37.5,0.017 C26.73,0.017 18,7.845 18,17.5 C18,21.058 19.189,24.366 21.225,27.127 C20.958,30.318 20.188,34.812 18,37 C18,37 24.686,36.062 29.214,33.327 C31.729,34.387 34.537,34.983 37.5,34.983 C48.27,34.983 57,27.155 57,17.5 C57,7.845 48.27,0.017 37.5,0.017" id="Fill-676" fill="#0391FD" sketch:type="MSShapeGroup"></path>
            <path d="M25.442,55.615 L21.265,52.945 C20.228,52.379 19.021,50.422 19.021,49.24 L19.021,46 C19.021,46 21.903,44.095 22.789,40.237 C23.523,39.763 24.014,38.941 24.014,38.007 L24.014,35.582 C20.807,36.602 18,37 18,37 C20.188,34.812 20.958,30.318 21.225,27.127 C20.086,25.583 19.225,23.864 18.676,22.029 C17.28,21.405 15.445,21 13.021,21 C2.218,21 3.021,29 3.021,29 L3.021,32.126 C2.481,32.613 2.028,33.681 2.028,34.461 L2.028,38.007 C2.028,38.941 2.519,39.763 3.253,40.237 C4.139,44.095 7.021,46 7.021,46 L7.021,49.24 C7.021,50.422 5.814,52.379 4.776,52.945 L0.6,55.615 C-0.49,56.312 0.003,58 1.297,58 L24.745,58 C26.039,58 26.532,56.312 25.442,55.615" id="Fill-677" fill="#A2C9ED" sketch:type="MSShapeGroup"></path>
            <path d="M30,18 C30,19.657 28.657,21 27,21 C25.343,21 24,19.657 24,18 C24,16.343 25.343,15 27,15 C28.657,15 30,16.343 30,18" id="Fill-695" fill="#FFFFFF" sketch:type="MSShapeGroup"></path>
            <path d="M41,18 C41,19.657 39.657,21 38,21 C36.343,21 35,19.657 35,18 C35,16.343 36.343,15 38,15 C39.657,15 41,16.343 41,18" id="Fill-696" fill="#FFFFFF" sketch:type="MSShapeGroup"></path>
            <path d="M52,18 C52,19.657 50.657,21 49,21 C47.343,21 46,19.657 46,18 C46,16.343 47.343,15 49,15 C50.657,15 52,16.343 52,18" id="Fill-697" fill="#FFFFFF" sketch:type="MSShapeGroup"></path>
        </g>
    </g>
</svg>