<?xml version="1.0" encoding="UTF-8" standalone="no"?>
<svg width="58px" height="58px" viewBox="0 0 58 58" version="1.1" xmlns="http://www.w3.org/2000/svg" xmlns:xlink="http://www.w3.org/1999/xlink" xmlns:sketch="http://www.bohemiancoding.com/sketch/ns">
    <!-- Generator: Sketch 3.2.2 (9983) - http://www.bohemiancoding.com/sketch -->
    <title>6 - Open Mail (Flat)</title>
    <desc>Created with Sketch.</desc>
    <defs></defs>
    <g id="Page-1" stroke="none" stroke-width="1" fill="none" fill-rule="evenodd" sketch:type="MSPage">
        <g id="6---Open-Mail-(Flat)" sketch:type="MSLayerGroup">
            <path d="M0,26.104 L0,58 L58,58 L58,26 L0,26 L0,26.104" id="Fill-18" fill="#C4C2A5" sketch:type="MSShapeGroup"></path>
            <path d="M30.862,0.733 C29.813,-0.243 28.187,-0.243 27.139,0.733 L0,25.999 L0,26 L58,26 L58,25.999 L30.862,0.733" id="Fill-19" fill="#E5E5DA" sketch:type="MSShapeGroup"></path>
            <path d="M0,58 L0,26 L21,42 L0,58" id="Fill-218" fill="#D1D0BF" sketch:type="MSShapeGroup"></path>
            <path d="M58,58 L58,26 L37,42 L58,58" id="Fill-219" fill="#D1D0BF" sketch:type="MSShapeGroup"></path>
            <path d="M56.973,57.218 L37,42 L21,42 L1.027,57.218 C0.606,57.538 0,57.238 0,56.709 L0,58 L58,58 L58,56.709 C58,57.238 57.394,57.538 56.973,57.218" id="Fill-706" fill="#E5E5DA" sketch:type="MSShapeGroup"></path>
        </g>
    </g>
</svg>