<?xml version="1.0" encoding="UTF-8" standalone="no"?>
<svg width="54px" height="57px" viewBox="0 0 54 57" version="1.1" xmlns="http://www.w3.org/2000/svg" xmlns:xlink="http://www.w3.org/1999/xlink" xmlns:sketch="http://www.bohemiancoding.com/sketch/ns">
    <!-- Generator: Sketch 3.2.2 (9983) - http://www.bohemiancoding.com/sketch -->
    <title>21 - Phone Ringtone (Flat)</title>
    <desc>Created with Sketch.</desc>
    <defs></defs>
    <g id="Page-1" stroke="none" stroke-width="1" fill="none" fill-rule="evenodd" sketch:type="MSPage">
        <g id="21---Phone-Ringtone-(Flat)" sketch:type="MSLayerGroup" transform="translate(1.000000, 0.000000)">
            <path d="M51.543,44.372 C49.645,40.784 42.644,36.681 42.644,36.681 C41.06,35.778 39.149,35.678 38.245,37.287 C38.245,37.287 35.97,40.015 35.391,40.407 C32.748,42.198 30.301,42.129 27.829,39.657 L16.343,28.171 C13.871,25.699 13.802,23.252 15.593,20.608 C15.985,20.029 18.713,17.755 18.713,17.755 C20.322,16.851 20.222,14.94 19.319,13.356 C19.319,13.356 15.216,6.355 11.628,4.457 C10.102,3.649 8.228,3.931 7.007,5.152 L4.47,7.689 C-3.575,15.734 0.386,24.818 8.431,32.863 L23.137,47.569 C31.182,55.614 40.266,59.575 48.311,51.53 L50.848,48.993 C52.069,47.772 52.351,45.898 51.543,44.372 L51.543,44.372 Z" id="Fill-471" fill="#52C306" sketch:type="MSShapeGroup"></path>
            <path d="M51.543,44.372 C49.645,40.784 42.644,36.681 42.644,36.681 C41.06,35.778 39.149,35.678 38.245,37.287 C38.245,37.287 35.97,40.015 35.391,40.407 C32.748,42.198 30.301,42.129 27.829,39.657 L16.343,28.171 C13.871,25.699 13.802,23.252 15.593,20.608 C15.985,20.029 18.713,17.755 18.713,17.755 C20.322,16.851 20.222,14.94 19.319,13.356 C19.319,13.356 15.216,6.355 11.628,4.457 C10.102,3.649 8.228,3.931 7.007,5.152 L4.47,7.689 C-3.575,15.734 0.386,24.818 8.431,32.863 L23.137,47.569 C31.182,55.614 40.266,59.575 48.311,51.53 L50.848,48.993 C52.069,47.772 52.351,45.898 51.543,44.372 L51.543,44.372 Z" id="Stroke-472" stroke="#388F04" stroke-width="2" stroke-linecap="round" sketch:type="MSShapeGroup"></path>
            <path d="M28.065,39.935 C28.065,39.935 32.44,44.248 39.065,44.935 M17.065,28.935 C17.065,28.935 11.752,24.56 11.065,17.935" id="Stroke-473" stroke="#388F04" stroke-width="2" stroke-linecap="round" sketch:type="MSShapeGroup"></path>
            <path d="M44.646,5.402 C44.323,4.95 43.912,4.53 43.353,4.082 C41.331,2.465 41.001,0.91 40.984,0.825 C40.978,0.787 40.955,0.758 40.944,0.721 C40.925,0.656 40.903,0.595 40.872,0.536 C40.841,0.478 40.805,0.427 40.764,0.377 C40.726,0.33 40.688,0.288 40.642,0.249 C40.588,0.202 40.53,0.165 40.467,0.131 C40.419,0.105 40.373,0.082 40.321,0.065 C40.25,0.04 40.177,0.028 40.1,0.02 C40.066,0.017 40.036,0 40,0 C39.972,0 39.949,0.014 39.922,0.016 C39.893,0.018 39.865,0.008 39.836,0.014 C39.796,0.02 39.766,0.044 39.728,0.055 C39.661,0.074 39.599,0.095 39.539,0.127 C39.483,0.157 39.434,0.191 39.385,0.23 C39.334,0.271 39.288,0.312 39.246,0.362 C39.205,0.411 39.172,0.462 39.141,0.517 C39.11,0.573 39.083,0.628 39.063,0.69 C39.041,0.753 39.031,0.817 39.023,0.885 C39.018,0.924 39,0.959 39,1 L39,17 L36,17 C33.243,17 31,19.243 31,22 C31,24.757 33.243,27 36,27 C38.757,27 41,24.757 41,22 L41,4.616 C41.32,4.956 41.673,5.3 42.103,5.644 C42.515,5.974 42.805,6.266 43.017,6.563 C43.688,7.503 44.356,9.059 43.73,11.128 C43.57,11.656 43.869,12.214 44.398,12.374 C44.494,12.403 44.592,12.417 44.688,12.417 C45.117,12.417 45.514,12.139 45.645,11.706 C46.551,8.71 45.407,6.47 44.646,5.402" id="Fill-517" fill="#ED8A19" sketch:type="MSShapeGroup"></path>
        </g>
    </g>
</svg>