<?xml version="1.0" encoding="UTF-8" standalone="no"?>
<svg width="54px" height="54px" viewBox="0 0 54 54" version="1.1" xmlns="http://www.w3.org/2000/svg" xmlns:xlink="http://www.w3.org/1999/xlink" xmlns:sketch="http://www.bohemiancoding.com/sketch/ns">
    <!-- Generator: Sketch 3.2.2 (9983) - http://www.bohemiancoding.com/sketch -->
    <title>30 - Phone (Flat)</title>
    <desc>Created with Sketch.</desc>
    <defs></defs>
    <g id="Page-1" stroke="none" stroke-width="1" fill="none" fill-rule="evenodd" sketch:type="MSPage">
        <g id="30---Phone-(Flat)" sketch:type="MSLayerGroup">
            <path d="M52.48,41.372 C50.582,37.784 43.581,33.682 43.581,33.682 C41.997,32.778 40.086,32.678 39.182,34.287 C39.182,34.287 36.908,37.016 36.329,37.408 C33.685,39.198 31.238,39.129 28.766,36.658 L17.28,25.171 C14.808,22.7 14.739,20.252 16.53,17.609 C16.922,17.03 19.65,14.755 19.65,14.755 C21.259,13.851 21.159,11.94 20.256,10.356 C20.256,10.356 16.153,3.355 12.565,1.457 C11.039,0.649 9.165,0.931 7.944,2.152 L5.408,4.689 C-2.638,12.735 1.323,21.818 9.369,29.863 L24.074,44.569 C32.119,52.614 41.203,56.575 49.248,48.53 L51.785,45.993 C53.006,44.772 53.288,42.898 52.48,41.372" id="Fill-720" fill="#52C306" sketch:type="MSShapeGroup"></path>
            <path d="M53.364,40.904 C51.356,37.108 44.383,32.992 44.077,32.812 C43.181,32.303 42.246,32.032 41.371,32.032 C40.07,32.032 39.005,32.628 38.36,33.712 C37.34,34.932 36.074,36.357 35.768,36.579 C33.391,38.191 31.531,38.008 29.473,35.95 L17.987,24.464 C15.942,22.419 15.754,20.536 17.355,18.174 C17.578,17.864 19.005,16.599 20.225,15.577 C21.004,15.114 21.537,14.427 21.771,13.582 C22.082,12.46 21.853,11.138 21.118,9.85 C20.945,9.555 16.828,2.581 13.033,0.573 C12.324,0.198 11.527,0 10.727,0 C9.408,0 8.169,0.514 7.238,1.445 L4.7,3.982 C0.687,7.995 -0.767,12.544 0.38,17.502 C1.335,21.634 4.122,26.031 8.662,30.57 L23.367,45.275 C29.113,51.021 34.591,53.936 39.649,53.936 L39.65,53.936 C43.37,53.936 46.838,52.354 49.955,49.237 L52.492,46.7 C54.033,45.16 54.383,42.831 53.364,40.904 L53.364,40.904 Z M51.078,45.286 L48.541,47.823 C45.812,50.552 42.821,51.935 39.65,51.935 C39.65,51.935 39.65,51.935 39.649,51.935 C35.14,51.935 30.138,49.219 24.781,43.861 L10.076,29.156 C5.805,24.886 3.198,20.812 2.328,17.051 C1.334,12.751 2.572,8.938 6.114,5.396 L8.652,2.859 C9.206,2.306 9.943,2 10.727,2 C11.202,2 11.676,2.118 12.097,2.341 C15.391,4.084 19.353,10.795 19.387,10.852 C19.836,11.639 20.007,12.46 19.843,13.048 C19.744,13.408 19.52,13.681 19.161,13.883 L19.01,13.987 C18.157,14.698 16.128,16.42 15.701,17.048 C15.089,17.952 14.684,18.841 14.471,19.713 C13.76,18.295 13.185,16.652 12.996,14.832 C12.939,14.284 12.45,13.901 11.899,13.94 C11.349,13.998 10.95,14.489 11.007,15.039 C11.729,21.992 17.136,26.519 17.366,26.707 C17.391,26.728 17.422,26.736 17.448,26.754 L28.059,37.364 C28.104,37.409 28.149,37.447 28.193,37.49 C28.229,37.543 28.253,37.601 28.3,37.647 C28.489,37.834 33.004,42.215 39.899,42.931 C39.934,42.934 39.968,42.935 40.003,42.935 C40.509,42.935 40.943,42.553 40.996,42.039 C41.053,41.489 40.654,40.998 40.105,40.94 C37.993,40.721 36.122,40.102 34.562,39.385 C35.324,39.153 36.1,38.771 36.889,38.235 C37.517,37.811 39.239,35.78 39.95,34.928 L40.054,34.776 C40.336,34.276 40.766,34.032 41.371,34.032 C41.891,34.032 42.5,34.217 43.076,34.544 C44.955,35.645 50.148,39.103 51.596,41.84 C52.202,42.985 51.994,44.37 51.078,45.286 L51.078,45.286 Z" id="Fill-721" fill="#388F04" sketch:type="MSShapeGroup"></path>
        </g>
    </g>
</svg>