<?xml version="1.0" encoding="UTF-8" standalone="no"?>
<svg width="60px" height="59px" viewBox="0 0 60 59" version="1.1" xmlns="http://www.w3.org/2000/svg" xmlns:xlink="http://www.w3.org/1999/xlink" xmlns:sketch="http://www.bohemiancoding.com/sketch/ns">
    <!-- Generator: Sketch 3.2.2 (9983) - http://www.bohemiancoding.com/sketch -->
    <title>25 - Phone Ringing (Flat)</title>
    <desc>Created with Sketch.</desc>
    <defs></defs>
    <g id="Page-1" stroke="none" stroke-width="1" fill="none" fill-rule="evenodd" sketch:type="MSPage">
        <g id="25---Phone-Ringing-(Flat)" sketch:type="MSLayerGroup">
            <path d="M52.478,46.457 C50.58,42.87 43.579,38.767 43.579,38.767 C41.995,37.863 40.084,37.763 39.18,39.372 C39.18,39.372 36.906,42.101 36.327,42.493 C33.683,44.284 31.236,44.214 28.764,41.743 L17.278,30.256 C14.806,27.785 14.737,25.337 16.528,22.694 C16.92,22.115 19.648,19.84 19.648,19.84 C21.257,18.937 21.157,17.025 20.254,15.441 C20.254,15.441 16.151,8.441 12.563,6.542 C11.038,5.735 9.163,6.017 7.943,7.237 L5.406,9.774 C-2.64,17.82 1.321,26.903 9.367,34.949 L24.072,49.654 C32.118,57.699 41.201,61.661 49.246,53.615 L51.783,51.078 C53.004,49.857 53.286,47.983 52.478,46.457 L52.478,46.457 Z" id="Fill-484" fill="#52C306" sketch:type="MSShapeGroup"></path>
            <path d="M52.478,46.457 C50.58,42.87 43.579,38.767 43.579,38.767 C41.995,37.863 40.084,37.763 39.18,39.372 C39.18,39.372 36.906,42.101 36.327,42.493 C33.683,44.284 31.236,44.214 28.764,41.743 L17.278,30.256 C14.806,27.785 14.737,25.337 16.528,22.694 C16.92,22.115 19.648,19.84 19.648,19.84 C21.257,18.937 21.157,17.025 20.254,15.441 C20.254,15.441 16.151,8.441 12.563,6.542 C11.038,5.735 9.163,6.017 7.943,7.237 L5.406,9.774 C-2.64,17.82 1.321,26.903 9.367,34.949 L24.072,49.654 C32.118,57.699 41.201,61.661 49.246,53.615 L51.783,51.078 C53.004,49.857 53.286,47.983 52.478,46.457 L52.478,46.457 Z" id="Stroke-485" stroke="#388F04" stroke-width="2" stroke-linecap="round" sketch:type="MSShapeGroup"></path>
            <path d="M29,42.021 C29,42.021 33.375,46.333 40,47.021 M18,31.021 C18,31.021 12.688,26.646 12,20.021" id="Stroke-486" stroke="#388F04" stroke-width="2" stroke-linecap="round" sketch:type="MSShapeGroup"></path>
            <path d="M27.365,0 C26.813,0 26.365,0.447 26.365,1 C26.365,1.553 26.813,2 27.365,2 C44.257,2 58,15.743 58,32.635 C58,33.187 58.447,33.635 59,33.635 C59.553,33.635 60,33.187 60,32.635 C60,14.64 45.36,0 27.365,0" id="Fill-490" fill="#F0CE49" sketch:type="MSShapeGroup"></path>
            <path d="M27.365,7.03 C26.813,7.03 26.365,7.477 26.365,8.03 C26.365,8.583 26.813,9.03 27.365,9.03 C40.381,9.03 50.97,19.619 50.97,32.635 C50.97,33.187 51.417,33.635 51.97,33.635 C52.523,33.635 52.97,33.187 52.97,32.635 C52.97,18.517 41.483,7.03 27.365,7.03" id="Fill-491" fill="#F0CE49" sketch:type="MSShapeGroup"></path>
            <path d="M27.365,14.06 C26.813,14.06 26.365,14.507 26.365,15.059 C26.365,15.612 26.813,16.06 27.365,16.06 C36.505,16.06 43.94,23.495 43.94,32.635 C43.94,33.187 44.388,33.635 44.94,33.635 C45.493,33.635 45.94,33.187 45.94,32.635 C45.94,22.392 37.607,14.06 27.365,14.06" id="Fill-492" fill="#F0CE49" sketch:type="MSShapeGroup"></path>
        </g>
    </g>
</svg>