<?xml version="1.0" encoding="UTF-8" standalone="no"?>
<svg width="54px" height="54px" viewBox="0 0 54 54" version="1.1" xmlns="http://www.w3.org/2000/svg" xmlns:xlink="http://www.w3.org/1999/xlink" xmlns:sketch="http://www.bohemiancoding.com/sketch/ns">
    <!-- Generator: Sketch 3.2.2 (9983) - http://www.bohemiancoding.com/sketch -->
    <title>29 - Receiving Phonecall (Flat)</title>
    <desc>Created with Sketch.</desc>
    <defs></defs>
    <g id="Page-1" stroke="none" stroke-width="1" fill="none" fill-rule="evenodd" sketch:type="MSPage">
        <g id="29---Receiving-Phonecall-(Flat)" sketch:type="MSLayerGroup" transform="translate(1.000000, 0.000000)">
            <path d="M51.543,41.372 C49.645,37.784 42.644,33.681 42.644,33.681 C41.06,32.778 39.149,32.678 38.245,34.287 C38.245,34.287 35.97,37.015 35.392,37.407 C32.748,39.198 30.301,39.129 27.829,36.657 L16.343,25.171 C13.871,22.699 13.802,20.252 15.593,17.608 C15.985,17.029 18.713,14.755 18.713,14.755 C20.322,13.851 20.222,11.94 19.319,10.356 C19.319,10.356 15.216,3.355 11.628,1.457 C10.102,0.649 8.228,0.931 7.007,2.152 L4.47,4.689 C-3.575,12.734 0.386,21.818 8.431,29.863 L23.137,44.569 C31.182,52.614 40.266,56.575 48.311,48.53 L50.848,45.993 C52.069,44.772 52.351,42.898 51.543,41.372 L51.543,41.372 Z" id="Fill-461" fill="#52C306" sketch:type="MSShapeGroup"></path>
            <path d="M51.543,41.372 C49.645,37.784 42.644,33.681 42.644,33.681 C41.06,32.778 39.149,32.678 38.245,34.287 C38.245,34.287 35.97,37.015 35.392,37.407 C32.748,39.198 30.301,39.129 27.829,36.657 L16.343,25.171 C13.871,22.699 13.802,20.252 15.593,17.608 C15.985,17.029 18.713,14.755 18.713,14.755 C20.322,13.851 20.222,11.94 19.319,10.356 C19.319,10.356 15.216,3.355 11.628,1.457 C10.102,0.649 8.228,0.931 7.007,2.152 L4.47,4.689 C-3.575,12.734 0.386,21.818 8.431,29.863 L23.137,44.569 C31.182,52.614 40.266,56.575 48.311,48.53 L50.848,45.993 C52.069,44.772 52.351,42.898 51.543,41.372 L51.543,41.372 Z" id="Stroke-462" stroke="#388F04" stroke-width="2" stroke-linecap="round" sketch:type="MSShapeGroup"></path>
            <path d="M29,24 L29,12 M29,24 L41,24 M29,24 L46,7" id="Stroke-463" stroke="#52C306" stroke-width="2" stroke-linecap="round" sketch:type="MSShapeGroup"></path>
            <path d="M27.734,36.603 C27.734,36.603 32.109,40.915 38.734,41.603" id="Path" stroke="#388F04" stroke-width="2" stroke-linecap="round" sketch:type="MSShapeGroup"></path>
            <path d="M16.734,25.603 C16.734,25.603 11.422,21.228 10.734,14.603" id="Path" stroke="#388F04" stroke-width="2" stroke-linecap="round" sketch:type="MSShapeGroup"></path>
        </g>
    </g>
</svg>