<?xml version="1.0" encoding="UTF-8" standalone="no"?>
<svg width="55px" height="59px" viewBox="0 0 55 59" version="1.1" xmlns="http://www.w3.org/2000/svg" xmlns:xlink="http://www.w3.org/1999/xlink" xmlns:sketch="http://www.bohemiancoding.com/sketch/ns">
    <!-- Generator: Sketch 3.2.2 (9983) - http://www.bohemiancoding.com/sketch -->
    <title>27 - Redirect Phonecall (Flat)</title>
    <desc>Created with Sketch.</desc>
    <defs></defs>
    <g id="Page-1" stroke="none" stroke-width="1" fill="none" fill-rule="evenodd" sketch:type="MSPage">
        <g id="27---Redirect-Phonecall-(Flat)" sketch:type="MSLayerGroup" transform="translate(0.000000, 1.000000)">
            <path d="M54,24 L35,24 L35,0 M35,0 L26,9 M35,0 L44,9" id="Stroke-465" stroke="#DD342E" stroke-width="2" stroke-linecap="round" sketch:type="MSShapeGroup"></path>
            <path d="M52.478,45.457 C50.58,41.87 43.579,37.767 43.579,37.767 C41.995,36.863 40.084,36.763 39.18,38.372 C39.18,38.372 36.906,41.101 36.327,41.493 C33.683,43.284 31.236,43.214 28.764,40.743 L17.278,29.256 C14.806,26.785 14.737,24.337 16.528,21.694 C16.92,21.115 19.648,18.84 19.648,18.84 C21.257,17.937 21.157,16.025 20.254,14.441 C20.254,14.441 16.151,7.441 12.564,5.542 C11.038,4.735 9.163,5.017 7.943,6.237 L5.406,8.774 C-2.64,16.82 1.321,25.903 9.367,33.949 L24.072,48.654 C32.117,56.699 41.201,60.661 49.246,52.615 L51.783,50.078 C53.004,48.857 53.286,46.983 52.478,45.457 L52.478,45.457 Z" id="Fill-487" fill="#52C306" sketch:type="MSShapeGroup"></path>
            <path d="M52.478,45.457 C50.58,41.87 43.579,37.767 43.579,37.767 C41.995,36.863 40.084,36.763 39.18,38.372 C39.18,38.372 36.906,41.101 36.327,41.493 C33.683,43.284 31.236,43.214 28.764,40.743 L17.278,29.256 C14.806,26.785 14.737,24.337 16.528,21.694 C16.92,21.115 19.648,18.84 19.648,18.84 C21.257,17.937 21.157,16.025 20.254,14.441 C20.254,14.441 16.151,7.441 12.564,5.542 C11.038,4.735 9.163,5.017 7.943,6.237 L5.406,8.774 C-2.64,16.82 1.321,25.903 9.367,33.949 L24.072,48.654 C32.117,56.699 41.201,60.661 49.246,52.615 L51.783,50.078 C53.004,48.857 53.286,46.983 52.478,45.457 L52.478,45.457 Z" id="Stroke-488" stroke="#388F04" stroke-width="2" stroke-linecap="round" sketch:type="MSShapeGroup"></path>
            <path d="M29,41.021 C29,41.021 33.375,45.333 40,46.021" id="Path" stroke="#388F04" stroke-width="2" stroke-linecap="round" sketch:type="MSShapeGroup"></path>
            <path d="M18,30.021 C18,30.021 12.688,25.646 12,19.021" id="Path" stroke="#388F04" stroke-width="2" stroke-linecap="round" sketch:type="MSShapeGroup"></path>
        </g>
    </g>
</svg>