<?xml version="1.0" encoding="UTF-8" standalone="no"?>
<svg width="54px" height="54px" viewBox="0 0 54 54" version="1.1" xmlns="http://www.w3.org/2000/svg" xmlns:xlink="http://www.w3.org/1999/xlink" xmlns:sketch="http://www.bohemiancoding.com/sketch/ns">
    <!-- Generator: Sketch 3.2.2 (9983) - http://www.bohemiancoding.com/sketch -->
    <title>28 - Sending Phonecall (Flat)</title>
    <desc>Created with Sketch.</desc>
    <defs></defs>
    <g id="Page-1" stroke="none" stroke-width="1" fill="none" fill-rule="evenodd" sketch:type="MSPage">
        <g id="28---Sending-Phonecall-(Flat)" sketch:type="MSLayerGroup" transform="translate(1.000000, 1.000000)">
            <path d="M46,6 L46,18 M45.935,6 L33.935,6 M46,6 L29,23" id="Stroke-464" stroke="#48A0DC" stroke-width="2" stroke-linecap="round" sketch:type="MSShapeGroup"></path>
            <path d="M51.503,40.457 C49.605,36.87 42.604,32.767 42.604,32.767 C41.02,31.863 39.109,31.763 38.205,33.372 C38.205,33.372 35.931,36.101 35.352,36.493 C32.708,38.284 30.261,38.214 27.789,35.743 L16.303,24.256 C13.831,21.785 13.762,19.337 15.553,16.694 C15.945,16.115 18.673,13.84 18.673,13.84 C20.282,12.937 20.182,11.025 19.279,9.441 C19.279,9.441 15.176,2.441 11.588,0.542 C10.063,-0.265 8.188,0.017 6.967,1.237 L4.431,3.774 C-3.615,11.82 0.346,20.903 8.392,28.949 L23.097,43.654 C31.142,51.699 40.226,55.661 48.271,47.615 L50.808,45.078 C52.029,43.857 52.311,41.983 51.503,40.457 L51.503,40.457 Z" id="Fill-474" fill="#52C306" sketch:type="MSShapeGroup"></path>
            <path d="M51.503,40.457 C49.605,36.87 42.604,32.767 42.604,32.767 C41.02,31.863 39.109,31.763 38.205,33.372 C38.205,33.372 35.931,36.101 35.352,36.493 C32.708,38.284 30.261,38.214 27.789,35.743 L16.303,24.256 C13.831,21.785 13.762,19.337 15.553,16.694 C15.945,16.115 18.673,13.84 18.673,13.84 C20.282,12.937 20.182,11.025 19.279,9.441 C19.279,9.441 15.176,2.441 11.588,0.542 C10.063,-0.265 8.188,0.017 6.967,1.237 L4.431,3.774 C-3.615,11.82 0.346,20.903 8.392,28.949 L23.097,43.654 C31.142,51.699 40.226,55.661 48.271,47.615 L50.808,45.078 C52.029,43.857 52.311,41.983 51.503,40.457 L51.503,40.457 Z" id="Stroke-475" stroke="#388F04" stroke-width="2" stroke-linecap="round" sketch:type="MSShapeGroup"></path>
            <path d="M28.025,36.021 C28.025,36.021 32.4,40.333 39.025,41.021 M17.025,25.021 C17.025,25.021 11.712,20.646 11.025,14.021" id="Stroke-476" stroke="#388F04" stroke-width="2" stroke-linecap="round" sketch:type="MSShapeGroup"></path>
        </g>
    </g>
</svg>