<?xml version="1.0" encoding="UTF-8" standalone="no"?>
<svg width="58px" height="42px" viewBox="0 0 58 42" version="1.1" xmlns="http://www.w3.org/2000/svg" xmlns:xlink="http://www.w3.org/1999/xlink" xmlns:sketch="http://www.bohemiancoding.com/sketch/ns">
    <!-- Generator: Sketch 3.2.2 (9983) - http://www.bohemiancoding.com/sketch -->
    <title>36 - Stamp (Flat)</title>
    <desc>Created with Sketch.</desc>
    <defs></defs>
    <g id="Page-1" stroke="none" stroke-width="1" fill="none" fill-rule="evenodd" sketch:type="MSPage">
        <g id="36---Stamp-(Flat)" sketch:type="MSLayerGroup">
            <path d="M55,0 L53.892,0.739 C52.746,1.502 51.254,1.502 50.108,0.739 L49,0 C46.791,2.209 43.209,2.209 41,0 C38.791,2.209 35.209,2.209 33,0 C30.791,2.209 27.209,2.209 25,0 C22.791,2.209 19.209,2.209 17,0 C14.791,2.209 11.209,2.209 9,0 L7.892,0.739 C6.746,1.502 5.254,1.502 4.108,0.739 L3,0 L0,3 L0.739,4.108 C1.503,5.254 1.503,6.746 0.739,7.892 L0,9 C2.209,11.209 2.209,14.791 0,17 C2.209,19.209 2.209,22.791 0,25 C2.209,27.209 2.209,30.791 0,33 C1.629,34.086 2.011,36.318 0.837,37.884 L0,39 L3,42 L4.116,41.163 C5.682,39.989 7.914,40.371 9,42 C11.209,39.791 14.791,39.791 17,42 C19.209,39.791 22.791,39.791 25,42 C27.209,39.791 30.791,39.791 33,42 C35.209,39.791 38.791,39.791 41,42 C43.209,39.791 46.791,39.791 49,42 C50.086,40.371 52.318,39.989 53.884,41.163 L55,42 L58,39 L57.163,37.884 C55.989,36.318 56.371,34.086 58,33 C55.791,30.791 55.791,27.209 58,25 C55.791,22.791 55.791,19.209 58,17 C55.791,14.791 55.791,11.209 58,9 L57.261,7.892 C56.497,6.746 56.497,5.254 57.261,4.108 L58,3 L55,0" id="Fill-523" fill="#F3EDBF" sketch:type="MSShapeGroup"></path>
            <path d="M6,6 L52,6 L52,36 L6,36 L6,6 Z" id="Fill-524" fill="#BFA380" sketch:type="MSShapeGroup"></path>
            <path d="M23,33 C19.691,33 17,30.309 17,27 C17,23.691 19.691,21 23,21 C26.309,21 29,23.691 29,27 C29,30.309 26.309,33 23,33 L23,33 Z M23,23 C20.794,23 19,24.794 19,27 C19,29.206 20.794,31 23,31 C25.206,31 27,29.206 27,27 C27,24.794 25.206,23 23,23 L23,23 Z" id="Fill-525" fill="#556080" sketch:type="MSShapeGroup"></path>
            <path d="M35.001,25 C34.713,25 34.428,24.877 34.231,24.639 C33.548,23.814 32.452,23.814 31.769,24.639 C31.417,25.064 30.787,25.123 30.362,24.769 C29.937,24.417 29.878,23.787 30.231,23.361 C30.959,22.483 31.942,22 33,22 C34.058,22 35.042,22.483 35.77,23.361 C36.122,23.787 36.064,24.417 35.638,24.769 C35.452,24.925 35.226,25 35.001,25" id="Fill-526" fill="#556080" sketch:type="MSShapeGroup"></path>
            <path d="M37,26 C35.942,26 34.958,25.517 34.231,24.639 C33.878,24.213 33.937,23.583 34.362,23.23 C34.787,22.877 35.417,22.937 35.77,23.361 C36.452,24.185 37.548,24.185 38.231,23.361 C38.585,22.937 39.214,22.877 39.638,23.23 C40.063,23.583 40.122,24.213 39.77,24.639 C39.042,25.517 38.058,26 37,26" id="Fill-527" fill="#556080" sketch:type="MSShapeGroup"></path>
            <path d="M43,25 C42.713,25 42.428,24.877 42.231,24.639 C41.548,23.814 40.452,23.814 39.77,24.639 C39.417,25.064 38.786,25.123 38.362,24.769 C37.937,24.417 37.878,23.787 38.231,23.361 C38.959,22.483 39.942,22 41,22 C42.058,22 43.042,22.483 43.769,23.361 C44.122,23.787 44.064,24.417 43.638,24.769 C43.452,24.925 43.226,25 43,25" id="Fill-528" fill="#556080" sketch:type="MSShapeGroup"></path>
            <path d="M45,26 C43.942,26 42.959,25.517 42.231,24.639 C41.878,24.213 41.937,23.583 42.362,23.23 C42.787,22.877 43.417,22.937 43.769,23.361 C44.452,24.185 45.548,24.185 46.231,23.361 C46.581,22.937 47.213,22.876 47.639,23.23 C48.064,23.583 48.122,24.213 47.77,24.639 C47.042,25.517 46.058,26 45,26" id="Fill-529" fill="#556080" sketch:type="MSShapeGroup"></path>
            <path d="M35.001,31 C34.713,31 34.428,30.877 34.231,30.639 C33.548,29.814 32.452,29.814 31.769,30.639 C31.417,31.064 30.787,31.124 30.362,30.769 C29.937,30.417 29.878,29.787 30.231,29.361 C30.959,28.483 31.942,28 33,28 C34.058,28 35.042,28.483 35.77,29.361 C36.122,29.787 36.064,30.417 35.638,30.769 C35.452,30.925 35.226,31 35.001,31" id="Fill-530" fill="#556080" sketch:type="MSShapeGroup"></path>
            <path d="M37,32 C35.942,32 34.958,31.517 34.231,30.639 C33.878,30.213 33.937,29.583 34.362,29.23 C34.787,28.877 35.417,28.937 35.77,29.361 C36.452,30.185 37.548,30.185 38.231,29.361 C38.585,28.937 39.214,28.877 39.638,29.23 C40.063,29.583 40.122,30.213 39.77,30.639 C39.042,31.517 38.058,32 37,32" id="Fill-531" fill="#556080" sketch:type="MSShapeGroup"></path>
            <path d="M43,31 C42.713,31 42.428,30.877 42.231,30.639 C41.548,29.814 40.452,29.814 39.77,30.639 C39.417,31.064 38.786,31.124 38.362,30.769 C37.937,30.417 37.878,29.787 38.231,29.361 C38.959,28.483 39.942,28 41,28 C42.058,28 43.042,28.483 43.769,29.361 C44.122,29.787 44.064,30.417 43.638,30.769 C43.452,30.925 43.226,31 43,31" id="Fill-532" fill="#556080" sketch:type="MSShapeGroup"></path>
            <path d="M45,32 C43.942,32 42.959,31.517 42.231,30.639 C41.878,30.213 41.937,29.583 42.362,29.23 C42.787,28.877 43.417,28.937 43.769,29.361 C44.452,30.185 45.548,30.185 46.231,29.361 C46.581,28.937 47.213,28.877 47.639,29.23 C48.064,29.583 48.122,30.213 47.77,30.639 C47.042,31.517 46.058,32 45,32" id="Fill-547" fill="#556080" sketch:type="MSShapeGroup"></path>
            <path d="M12.468,31.5 C11.915,31.5 11.468,31.948 11.468,32.5 C11.468,33.052 11.915,33.5 12.468,33.5 C13.02,33.5 13.468,33.052 13.468,32.5 C13.468,31.948 13.02,31.5 12.468,31.5" id="Fill-642" fill="#998164" sketch:type="MSShapeGroup"></path>
            <path d="M12.468,25.5 C11.915,25.5 11.468,25.948 11.468,26.5 C11.468,27.052 11.915,27.5 12.468,27.5 C13.02,27.5 13.468,27.052 13.468,26.5 C13.468,25.948 13.02,25.5 12.468,25.5" id="Fill-643" fill="#998164" sketch:type="MSShapeGroup"></path>
            <path d="M9.468,28.5 C8.915,28.5 8.468,28.948 8.468,29.5 C8.468,30.052 8.915,30.5 9.468,30.5 C10.02,30.5 10.468,30.052 10.468,29.5 C10.468,28.948 10.02,28.5 9.468,28.5" id="Fill-644" fill="#998164" sketch:type="MSShapeGroup"></path>
            <path d="M12.468,19.5 C11.915,19.5 11.468,19.948 11.468,20.5 C11.468,21.052 11.915,21.5 12.468,21.5 C13.02,21.5 13.468,21.052 13.468,20.5 C13.468,19.948 13.02,19.5 12.468,19.5" id="Fill-645" fill="#998164" sketch:type="MSShapeGroup"></path>
            <path d="M9.468,22.5 C8.915,22.5 8.468,22.948 8.468,23.5 C8.468,24.052 8.915,24.5 9.468,24.5 C10.02,24.5 10.468,24.052 10.468,23.5 C10.468,22.948 10.02,22.5 9.468,22.5" id="Fill-646" fill="#998164" sketch:type="MSShapeGroup"></path>
            <path d="M12.468,13.5 C11.915,13.5 11.468,13.948 11.468,14.5 C11.468,15.052 11.915,15.5 12.468,15.5 C13.02,15.5 13.468,15.052 13.468,14.5 C13.468,13.948 13.02,13.5 12.468,13.5" id="Fill-647" fill="#998164" sketch:type="MSShapeGroup"></path>
            <path d="M18.468,13.5 C17.915,13.5 17.468,13.948 17.468,14.5 C17.468,15.052 17.915,15.5 18.468,15.5 C19.02,15.5 19.468,15.052 19.468,14.5 C19.468,13.948 19.02,13.5 18.468,13.5" id="Fill-648" fill="#998164" sketch:type="MSShapeGroup"></path>
            <path d="M24.468,13.5 C23.915,13.5 23.468,13.948 23.468,14.5 C23.468,15.052 23.915,15.5 24.468,15.5 C25.02,15.5 25.468,15.052 25.468,14.5 C25.468,13.948 25.02,13.5 24.468,13.5" id="Fill-649" fill="#998164" sketch:type="MSShapeGroup"></path>
            <path d="M30.468,13.5 C29.915,13.5 29.468,13.948 29.468,14.5 C29.468,15.052 29.915,15.5 30.468,15.5 C31.02,15.5 31.468,15.052 31.468,14.5 C31.468,13.948 31.02,13.5 30.468,13.5" id="Fill-650" fill="#998164" sketch:type="MSShapeGroup"></path>
            <path d="M36.468,13.5 C35.915,13.5 35.468,13.948 35.468,14.5 C35.468,15.052 35.915,15.5 36.468,15.5 C37.02,15.5 37.468,15.052 37.468,14.5 C37.468,13.948 37.02,13.5 36.468,13.5" id="Fill-651" fill="#998164" sketch:type="MSShapeGroup"></path>
            <path d="M42.468,13.5 C41.915,13.5 41.468,13.948 41.468,14.5 C41.468,15.052 41.915,15.5 42.468,15.5 C43.02,15.5 43.468,15.052 43.468,14.5 C43.468,13.948 43.02,13.5 42.468,13.5" id="Fill-652" fill="#998164" sketch:type="MSShapeGroup"></path>
            <path d="M9.468,16.5 C8.915,16.5 8.468,16.948 8.468,17.5 C8.468,18.052 8.915,18.5 9.468,18.5 C10.02,18.5 10.468,18.052 10.468,17.5 C10.468,16.948 10.02,16.5 9.468,16.5" id="Fill-653" fill="#998164" sketch:type="MSShapeGroup"></path>
            <path d="M15.468,16.5 C14.915,16.5 14.468,16.948 14.468,17.5 C14.468,18.052 14.915,18.5 15.468,18.5 C16.02,18.5 16.468,18.052 16.468,17.5 C16.468,16.948 16.02,16.5 15.468,16.5" id="Fill-654" fill="#998164" sketch:type="MSShapeGroup"></path>
            <path d="M21.468,16.5 C20.915,16.5 20.468,16.948 20.468,17.5 C20.468,18.052 20.915,18.5 21.468,18.5 C22.02,18.5 22.468,18.052 22.468,17.5 C22.468,16.948 22.02,16.5 21.468,16.5" id="Fill-655" fill="#998164" sketch:type="MSShapeGroup"></path>
            <path d="M27.468,16.5 C26.915,16.5 26.468,16.948 26.468,17.5 C26.468,18.052 26.915,18.5 27.468,18.5 C28.02,18.5 28.468,18.052 28.468,17.5 C28.468,16.948 28.02,16.5 27.468,16.5" id="Fill-656" fill="#998164" sketch:type="MSShapeGroup"></path>
            <path d="M33.468,16.5 C32.915,16.5 32.468,16.948 32.468,17.5 C32.468,18.052 32.915,18.5 33.468,18.5 C34.02,18.5 34.468,18.052 34.468,17.5 C34.468,16.948 34.02,16.5 33.468,16.5" id="Fill-657" fill="#998164" sketch:type="MSShapeGroup"></path>
            <path d="M39.468,16.5 C38.915,16.5 38.468,16.948 38.468,17.5 C38.468,18.052 38.915,18.5 39.468,18.5 C40.02,18.5 40.468,18.052 40.468,17.5 C40.468,16.948 40.02,16.5 39.468,16.5" id="Fill-658" fill="#998164" sketch:type="MSShapeGroup"></path>
            <path d="M12.468,7.5 C11.915,7.5 11.468,7.948 11.468,8.5 C11.468,9.052 11.915,9.5 12.468,9.5 C13.02,9.5 13.468,9.052 13.468,8.5 C13.468,7.948 13.02,7.5 12.468,7.5" id="Fill-659" fill="#998164" sketch:type="MSShapeGroup"></path>
            <path d="M18.468,7.5 C17.915,7.5 17.468,7.948 17.468,8.5 C17.468,9.052 17.915,9.5 18.468,9.5 C19.02,9.5 19.468,9.052 19.468,8.5 C19.468,7.948 19.02,7.5 18.468,7.5" id="Fill-660" fill="#998164" sketch:type="MSShapeGroup"></path>
            <path d="M24.468,7.5 C23.915,7.5 23.468,7.948 23.468,8.5 C23.468,9.052 23.915,9.5 24.468,9.5 C25.02,9.5 25.468,9.052 25.468,8.5 C25.468,7.948 25.02,7.5 24.468,7.5" id="Fill-661" fill="#998164" sketch:type="MSShapeGroup"></path>
            <path d="M30.468,7.5 C29.915,7.5 29.468,7.948 29.468,8.5 C29.468,9.052 29.915,9.5 30.468,9.5 C31.02,9.5 31.468,9.052 31.468,8.5 C31.468,7.948 31.02,7.5 30.468,7.5" id="Fill-662" fill="#998164" sketch:type="MSShapeGroup"></path>
            <path d="M36.468,7.5 C35.915,7.5 35.468,7.948 35.468,8.5 C35.468,9.052 35.915,9.5 36.468,9.5 C37.02,9.5 37.468,9.052 37.468,8.5 C37.468,7.948 37.02,7.5 36.468,7.5" id="Fill-663" fill="#998164" sketch:type="MSShapeGroup"></path>
            <path d="M42.468,7.5 C41.915,7.5 41.468,7.948 41.468,8.5 C41.468,9.052 41.915,9.5 42.468,9.5 C43.02,9.5 43.468,9.052 43.468,8.5 C43.468,7.948 43.02,7.5 42.468,7.5" id="Fill-664" fill="#998164" sketch:type="MSShapeGroup"></path>
            <path d="M9.468,10.5 C8.915,10.5 8.468,10.948 8.468,11.5 C8.468,12.052 8.915,12.5 9.468,12.5 C10.02,12.5 10.468,12.052 10.468,11.5 C10.468,10.948 10.02,10.5 9.468,10.5" id="Fill-665" fill="#998164" sketch:type="MSShapeGroup"></path>
            <path d="M15.468,10.5 C14.915,10.5 14.468,10.948 14.468,11.5 C14.468,12.052 14.915,12.5 15.468,12.5 C16.02,12.5 16.468,12.052 16.468,11.5 C16.468,10.948 16.02,10.5 15.468,10.5" id="Fill-666" fill="#998164" sketch:type="MSShapeGroup"></path>
            <path d="M21.468,10.5 C20.915,10.5 20.468,10.948 20.468,11.5 C20.468,12.052 20.915,12.5 21.468,12.5 C22.02,12.5 22.468,12.052 22.468,11.5 C22.468,10.948 22.02,10.5 21.468,10.5" id="Fill-667" fill="#998164" sketch:type="MSShapeGroup"></path>
            <path d="M27.468,10.5 C26.915,10.5 26.468,10.948 26.468,11.5 C26.468,12.052 26.915,12.5 27.468,12.5 C28.02,12.5 28.468,12.052 28.468,11.5 C28.468,10.948 28.02,10.5 27.468,10.5" id="Fill-668" fill="#998164" sketch:type="MSShapeGroup"></path>
            <path d="M33.468,10.5 C32.915,10.5 32.468,10.948 32.468,11.5 C32.468,12.052 32.915,12.5 33.468,12.5 C34.02,12.5 34.468,12.052 34.468,11.5 C34.468,10.948 34.02,10.5 33.468,10.5" id="Fill-669" fill="#998164" sketch:type="MSShapeGroup"></path>
            <path d="M39.468,10.5 C38.915,10.5 38.468,10.948 38.468,11.5 C38.468,12.052 38.915,12.5 39.468,12.5 C40.02,12.5 40.468,12.052 40.468,11.5 C40.468,10.948 40.02,10.5 39.468,10.5" id="Fill-670" fill="#998164" sketch:type="MSShapeGroup"></path>
            <path d="M49,13.5 C48.448,13.5 48,13.948 48,14.5 C48,15.052 48.448,15.5 49,15.5 C49.552,15.5 50,15.052 50,14.5 C50,13.948 49.552,13.5 49,13.5" id="Fill-671" fill="#998164" sketch:type="MSShapeGroup"></path>
            <path d="M46,16.5 C45.448,16.5 45,16.948 45,17.5 C45,18.052 45.448,18.5 46,18.5 C46.552,18.5 47,18.052 47,17.5 C47,16.948 46.552,16.5 46,16.5" id="Fill-672" fill="#998164" sketch:type="MSShapeGroup"></path>
            <path d="M49,7.5 C48.448,7.5 48,7.948 48,8.5 C48,9.052 48.448,9.5 49,9.5 C49.552,9.5 50,9.052 50,8.5 C50,7.948 49.552,7.5 49,7.5" id="Fill-673" fill="#998164" sketch:type="MSShapeGroup"></path>
            <path d="M46,10.5 C45.448,10.5 45,10.948 45,11.5 C45,12.052 45.448,12.5 46,12.5 C46.552,12.5 47,12.052 47,11.5 C47,10.948 46.552,10.5 46,10.5" id="Fill-674" fill="#998164" sketch:type="MSShapeGroup"></path>
        </g>
    </g>
</svg>