<?xml version="1.0" encoding="UTF-8" standalone="no"?>
<svg width="58px" height="58px" viewBox="0 0 58 58" version="1.1" xmlns="http://www.w3.org/2000/svg" xmlns:xlink="http://www.w3.org/1999/xlink" xmlns:sketch="http://www.bohemiancoding.com/sketch/ns">
    <!-- Generator: Sketch 3.2.2 (9983) - http://www.bohemiancoding.com/sketch -->
    <title>38 - Whatsapp (Flat)</title>
    <desc>Created with Sketch.</desc>
    <defs></defs>
    <g id="Page-1" stroke="none" stroke-width="1" fill="none" fill-rule="evenodd" sketch:type="MSPage">
        <g id="38---Whatsapp-(Flat)" sketch:type="MSLayerGroup">
            <path d="M0,58 L4.988,43.037 C2.458,38.78 1,33.811 1,28.5 C1,12.76 13.76,0 29.5,0 C45.24,0 58,12.76 58,28.5 C58,44.24 45.24,57 29.5,57 C24.711,57 20.202,55.813 16.24,53.727 L0,58" id="Fill-392" fill="#2CB742" sketch:type="MSShapeGroup"></path>
            <path d="M47.683,37.984 C46.367,35.498 41.515,32.654 41.515,32.654 C40.417,32.028 39.092,31.958 38.465,33.074 C38.465,33.074 36.889,34.965 36.488,35.237 C34.655,36.478 32.959,36.43 31.245,34.717 L23.283,26.755 C21.57,25.041 21.522,23.345 22.763,21.512 C23.035,21.111 24.926,19.535 24.926,19.535 C26.042,18.908 25.972,17.583 25.346,16.485 C25.346,16.485 22.502,11.633 20.016,10.317 C18.958,9.757 17.659,9.952 16.812,10.799 L15.054,12.557 C9.477,18.134 12.223,24.43 17.8,30.007 L27.993,40.2 C33.57,45.777 39.866,48.523 45.443,42.946 L47.201,41.188 C48.048,40.341 48.243,39.042 47.683,37.984" id="Fill-459" fill="#FFFFFF" sketch:type="MSShapeGroup"></path>
        </g>
    </g>
</svg>