<?xml version="1.0" encoding="UTF-8" standalone="no"?>
<svg width="60px" height="60px" viewBox="0 0 60 60" version="1.1" xmlns="http://www.w3.org/2000/svg" xmlns:xlink="http://www.w3.org/1999/xlink" xmlns:sketch="http://www.bohemiancoding.com/sketch/ns">
    <!-- Generator: Sketch 3.2.2 (9983) - http://www.bohemiancoding.com/sketch -->
    <title>22 - Wired Phone (Flat)</title>
    <desc>Created with Sketch.</desc>
    <defs></defs>
    <g id="Page-1" stroke="none" stroke-width="1" fill="none" fill-rule="evenodd" sketch:type="MSPage">
        <g id="22---Wired-Phone-(Flat)" sketch:type="MSLayerGroup" transform="translate(1.000000, 0.000000)">
            <path d="M57.543,41.372 C55.645,37.784 48.644,33.681 48.644,33.681 C47.06,32.778 45.149,32.678 44.245,34.287 C44.245,34.287 41.971,37.015 41.391,37.407 C38.748,39.198 36.301,39.129 33.829,36.657 L22.343,25.171 C19.871,22.699 19.802,20.252 21.593,17.608 C21.985,17.029 24.713,14.755 24.713,14.755 C26.322,13.851 26.222,11.94 25.318,10.356 C25.318,10.356 21.216,3.355 17.628,1.457 C16.102,0.649 14.228,0.931 13.007,2.152 L10.47,4.689 C2.425,12.734 6.386,21.818 14.431,29.863 L29.137,44.569 C37.182,52.614 46.266,56.575 54.311,48.53 L56.848,45.993 C58.069,44.772 58.351,42.898 57.543,41.372 L57.543,41.372 Z" id="Fill-468" fill="#52C306" sketch:type="MSShapeGroup"></path>
            <path d="M57.543,41.372 C55.645,37.784 48.644,33.681 48.644,33.681 C47.06,32.778 45.149,32.678 44.245,34.287 C44.245,34.287 41.971,37.015 41.391,37.407 C38.748,39.198 36.301,39.129 33.829,36.657 L22.343,25.171 C19.871,22.699 19.802,20.252 21.593,17.608 C21.985,17.029 24.713,14.755 24.713,14.755 C26.322,13.851 26.222,11.94 25.318,10.356 C25.318,10.356 21.216,3.355 17.628,1.457 C16.102,0.649 14.228,0.931 13.007,2.152 L10.47,4.689 C2.425,12.734 6.386,21.818 14.431,29.863 L29.137,44.569 C37.182,52.614 46.266,56.575 54.311,48.53 L56.848,45.993 C58.069,44.772 58.351,42.898 57.543,41.372 L57.543,41.372 Z" id="Stroke-469" stroke="#388F04" stroke-width="2" stroke-linecap="round" sketch:type="MSShapeGroup"></path>
            <path d="M34.065,36.935 C34.065,36.935 38.44,41.248 45.065,41.935 M23.065,25.935 C23.065,25.935 17.752,21.56 17.065,14.935" id="Stroke-470" stroke="#388F04" stroke-width="2" stroke-linecap="round" sketch:type="MSShapeGroup"></path>
            <path d="M0,59 L2.62,50.267 C2.733,49.89 3.267,49.89 3.38,50.267 L5.62,57.733 C5.733,58.11 6.267,58.11 6.38,57.733 L8.62,50.267 C8.733,49.89 9.267,49.89 9.38,50.267 L11.62,57.733 C11.733,58.11 12.267,58.11 12.38,57.733 L14.62,50.267 C14.733,49.89 15.267,49.89 15.38,50.267 L17.62,57.733 C17.733,58.11 18.267,58.11 18.38,57.733 L20.62,50.267 C20.733,49.89 21.267,49.89 21.38,50.267 L23.62,57.733 C23.733,58.11 24.267,58.11 24.38,57.733 L26.62,50.267 C26.733,49.89 27.267,49.89 27.38,50.267 L28.284,53.279 C29.302,56.675 32.428,59 35.973,59 C40.406,59 44,55.406 44,50.973 L44,49" id="Stroke-518" stroke="#38454F" stroke-width="2" stroke-linecap="round" sketch:type="MSShapeGroup"></path>
        </g>
    </g>
</svg>