<?xml version="1.0" encoding="UTF-8" standalone="no"?>
<svg width="59px" height="59px" viewBox="0 0 59 59" version="1.1" xmlns="http://www.w3.org/2000/svg" xmlns:xlink="http://www.w3.org/1999/xlink" xmlns:sketch="http://www.bohemiancoding.com/sketch/ns">
    <!-- Generator: Sketch 3.2.2 (9983) - http://www.bohemiancoding.com/sketch -->
    <title>135 - Anesthesia (Flat)</title>
    <desc>Created with Sketch.</desc>
    <defs></defs>
    <g id="Page-1" stroke="none" stroke-width="1" fill="none" fill-rule="evenodd" sketch:type="MSPage">
        <g id="135---Anesthesia-(Flat)" sketch:type="MSLayerGroup" transform="translate(1.000000, 1.000000)">
            <path d="M50.99,50.99 L57,57" id="Path" stroke="#B0B6BB" stroke-width="2" stroke-linecap="round" sketch:type="MSShapeGroup"></path>
            <path d="M9.859,9.86 C9.222,10.497 8.466,10.94 7.664,11.199 L11.627,15.163 L15.163,11.627 L11.199,7.664 C10.94,8.466 10.497,9.222 9.859,9.86" id="Fill-661" fill="#B0B6BB" sketch:type="MSShapeGroup"></path>
            <path d="M50.872,50.872 L50.872,50.872 C50.238,51.505 49.271,51.662 48.469,51.262 L44.154,49.104 L49.104,44.154 L51.262,48.469 C51.662,49.271 51.505,50.238 50.872,50.872" id="Fill-662" fill="#ECBA16" sketch:type="MSShapeGroup"></path>
            <path d="M17.808,11.445 C17.128,10.764 16.026,10.764 15.346,11.445 L11.445,15.346 C10.764,16.026 10.764,17.128 11.445,17.809 L14.456,20.82 L20.82,14.456 L17.808,11.445" id="Fill-663" fill="#DFF2F9" sketch:type="MSShapeGroup"></path>
            <path d="M48.564,42.2 L44.76,38.396 C44.755,38.402 44.753,38.409 44.748,38.415 L41.748,41.415 C41.553,41.61 41.297,41.708 41.041,41.708 C40.785,41.708 40.529,41.61 40.334,41.415 C39.943,41.024 39.943,40.391 40.334,40 L43.334,37 C43.339,36.995 43.347,36.994 43.352,36.988 L41.76,35.396 C41.755,35.402 41.753,35.409 41.748,35.415 L39.748,37.415 C39.553,37.61 39.297,37.708 39.041,37.708 C38.785,37.708 38.529,37.61 38.334,37.415 C37.943,37.024 37.943,36.391 38.334,36 L40.334,34 C40.339,33.995 40.347,33.994 40.352,33.988 L38.76,32.396 C38.755,32.402 38.753,32.409 38.748,32.415 L35.748,35.415 C35.553,35.61 35.297,35.708 35.041,35.708 C34.785,35.708 34.529,35.61 34.334,35.415 C33.943,35.024 33.943,34.391 34.334,34 L37.334,31 C37.339,30.995 37.347,30.994 37.352,30.988 L35.76,29.396 C35.755,29.402 35.753,29.409 35.748,29.415 L33.748,31.415 C33.553,31.61 33.297,31.708 33.041,31.708 C32.785,31.708 32.529,31.61 32.334,31.415 C31.943,31.024 31.943,30.391 32.334,30 L34.334,28 C34.339,27.995 34.347,27.994 34.352,27.988 L25.769,19.406 L19.405,25.769 L42.2,48.564 C42.889,49.253 44.005,49.253 44.694,48.564 L48.564,44.694 C49.253,44.005 49.253,42.889 48.564,42.2" id="Fill-664" fill="#DFF2F9" sketch:type="MSShapeGroup"></path>
            <path d="M40.334,40 C39.943,40.391 39.943,41.024 40.334,41.415 C40.529,41.61 40.785,41.708 41.041,41.708 C41.297,41.708 41.553,41.61 41.748,41.415 L44.748,38.415 C44.753,38.409 44.755,38.402 44.76,38.396 L43.352,36.988 C43.347,36.994 43.339,36.995 43.334,37 L40.334,40" id="Fill-665" fill="#7FABDA" sketch:type="MSShapeGroup"></path>
            <path d="M38.334,36 C37.943,36.391 37.943,37.024 38.334,37.415 C38.529,37.61 38.785,37.708 39.041,37.708 C39.297,37.708 39.553,37.61 39.748,37.415 L41.748,35.415 C41.753,35.409 41.755,35.402 41.76,35.396 L40.352,33.988 C40.347,33.994 40.339,33.995 40.334,34 L38.334,36" id="Fill-666" fill="#7FABDA" sketch:type="MSShapeGroup"></path>
            <path d="M34.334,34 C33.943,34.391 33.943,35.024 34.334,35.415 C34.529,35.61 34.785,35.708 35.041,35.708 C35.297,35.708 35.553,35.61 35.748,35.415 L38.748,32.415 C38.753,32.409 38.755,32.402 38.76,32.396 L37.352,30.988 C37.347,30.994 37.339,30.995 37.334,31 L34.334,34" id="Fill-667" fill="#7FABDA" sketch:type="MSShapeGroup"></path>
            <path d="M32.334,30 C31.943,30.391 31.943,31.024 32.334,31.415 C32.529,31.61 32.785,31.708 33.041,31.708 C33.297,31.708 33.553,31.61 33.748,31.415 L35.748,29.415 C35.753,29.409 35.755,29.402 35.76,29.396 L34.352,27.988 C34.347,27.994 34.339,27.995 34.334,28 L32.334,30" id="Fill-668" fill="#7FABDA" sketch:type="MSShapeGroup"></path>
            <path d="M25.062,14.456 C24.263,13.656 23.809,12.651 23.664,11.611 L11.611,23.664 C12.651,23.809 13.656,24.263 14.456,25.062 C15.618,26.224 16.071,27.814 15.85,29.324 L29.324,15.851 C27.815,16.072 26.224,15.618 25.062,14.456" id="Fill-2429" fill="#B0B6BB" sketch:type="MSShapeGroup"></path>
            <path d="M14.456,25.062 C16.408,27.015 16.408,30.181 14.456,32.133 C12.503,34.086 9.337,34.086 7.385,32.133 C5.432,30.181 5.432,27.015 7.385,25.062 C9.337,23.11 12.503,23.11 14.456,25.062 L14.456,25.062 Z M32.133,7.385 C34.086,9.337 34.086,12.503 32.133,14.456 C30.181,16.408 27.015,16.408 25.062,14.456 C23.11,12.503 23.11,9.337 25.062,7.385 C27.015,5.432 30.181,5.432 32.133,7.385 L32.133,7.385 Z M9.859,2.081 C12.007,4.229 12.007,7.712 9.859,9.86 C7.712,12.007 4.229,12.007 2.081,9.86 C-0.067,7.712 -0.067,4.229 2.081,2.081 C4.229,-0.066 7.712,-0.066 9.859,2.081 L9.859,2.081 Z" id="Stroke-2430" stroke="#839494" stroke-width="2" sketch:type="MSShapeGroup"></path>
            <path d="M29.663,26.127 L24.355,20.82 L20.82,24.355 L26.127,29.663 L29.663,26.127" id="Fill-2431" fill="#7383BF" sketch:type="MSShapeGroup"></path>
            <path d="M19.422,15.886 L15.147,11.611 L11.611,15.147 L15.886,19.422 L19.422,15.886" id="Fill-2432" fill="#7383BF" sketch:type="MSShapeGroup"></path>
            <path d="M24.705,31.068 L26.119,32.483 L32.483,26.119 L31.068,24.704 L24.705,31.068" id="Fill-2433" fill="#556080" sketch:type="MSShapeGroup"></path>
        </g>
    </g>
</svg>