<?xml version="1.0" encoding="UTF-8" standalone="no"?>
<svg width="38px" height="58px" viewBox="0 0 38 58" version="1.1" xmlns="http://www.w3.org/2000/svg" xmlns:xlink="http://www.w3.org/1999/xlink" xmlns:sketch="http://www.bohemiancoding.com/sketch/ns">
    <!-- Generator: Sketch 3.2.2 (9983) - http://www.bohemiancoding.com/sketch -->
    <title>156 - Antidepressants (Flat)</title>
    <desc>Created with Sketch.</desc>
    <defs></defs>
    <g id="Page-1" stroke="none" stroke-width="1" fill="none" fill-rule="evenodd" sketch:type="MSPage">
        <g id="156---Antidepressants-(Flat)" sketch:type="MSLayerGroup">
            <path d="M38,14 L0,14 L0,18 L3,18 L3,58 L35,58 L35,18 L38,18 L38,14" id="Fill-324" fill="#E95829" sketch:type="MSShapeGroup"></path>
            <path d="M3,11 L35,11 L35,14 L3,14 L3,11 Z" id="Fill-325" fill="#EF6B1F" sketch:type="MSShapeGroup"></path>
            <path d="M0,0 L38,0 L38,11 L0,11 L0,0 Z" id="Fill-326" fill="#FF9801" sketch:type="MSShapeGroup"></path>
            <path d="M19,22 L35,22 L35,52 L19,52 L19,22 Z" id="Fill-327" fill="#E6E6E6" sketch:type="MSShapeGroup"></path>
            <path d="M26,34 L35,34 L35,36 L26,36 L26,34 Z" id="Fill-328" fill="#949493" sketch:type="MSShapeGroup"></path>
            <path d="M26,38 L35,38 L35,40 L26,40 L26,38 Z" id="Fill-329" fill="#949493" sketch:type="MSShapeGroup"></path>
            <path d="M26,26 L35,26 L35,28 L26,28 L26,26 Z" id="Fill-330" fill="#949493" sketch:type="MSShapeGroup"></path>
            <path d="M26,30 L35,30 L35,32 L26,32 L26,30 Z" id="Fill-331" fill="#949493" sketch:type="MSShapeGroup"></path>
            <path d="M26,42 L35,42 L35,44 L26,44 L26,42 Z" id="Fill-332" fill="#949493" sketch:type="MSShapeGroup"></path>
            <path d="M26,46 L35,46 L35,48 L26,48 L26,46 Z" id="Fill-333" fill="#949493" sketch:type="MSShapeGroup"></path>
            <path d="M3,21.917 L7,21.917 L7,52 L3,52 L3,21.917 Z" id="Fill-337" fill="#E6E6E6" sketch:type="MSShapeGroup"></path>
            <path d="M4,8 L6,8 L6,11 L4,11 L4,8 Z" id="Fill-355" fill="#F0CE49" sketch:type="MSShapeGroup"></path>
            <path d="M8,8 L10,8 L10,11 L8,11 L8,8 Z" id="Fill-356" fill="#F0CE49" sketch:type="MSShapeGroup"></path>
            <path d="M12,8 L14,8 L14,11 L12,11 L12,8 Z" id="Fill-357" fill="#F0CE49" sketch:type="MSShapeGroup"></path>
            <path d="M16,8 L18,8 L18,11 L16,11 L16,8 Z" id="Fill-358" fill="#F0CE49" sketch:type="MSShapeGroup"></path>
            <path d="M20,8 L22,8 L22,11 L20,11 L20,8 Z" id="Fill-359" fill="#F0CE49" sketch:type="MSShapeGroup"></path>
            <path d="M24,8 L26,8 L26,11 L24,11 L24,8 Z" id="Fill-360" fill="#F0CE49" sketch:type="MSShapeGroup"></path>
            <path d="M28,8 L30,8 L30,11 L28,11 L28,8 Z" id="Fill-361" fill="#F0CE49" sketch:type="MSShapeGroup"></path>
            <path d="M32,8 L34,8 L34,11 L32,11 L32,8 Z" id="Fill-362" fill="#F0CE49" sketch:type="MSShapeGroup"></path>
            <path d="M30,17 L32,17 L32,19 L30,19 L30,17 Z" id="Fill-2505" fill="#F46640" sketch:type="MSShapeGroup"></path>
            <path d="M16,14 L10,14 L10,17 L6,17 L6,19 L10,19 L10,58 L16,58 L16,19 L27,19 L27,17 L16,17 L16,14" id="Fill-2506" fill="#F46640" sketch:type="MSShapeGroup"></path>
        </g>
    </g>
</svg>