<?xml version="1.0" encoding="UTF-8" standalone="no"?>
<svg width="58px" height="58px" viewBox="0 0 58 58" version="1.1" xmlns="http://www.w3.org/2000/svg" xmlns:xlink="http://www.w3.org/1999/xlink" xmlns:sketch="http://www.bohemiancoding.com/sketch/ns">
    <!-- Generator: Sketch 3.2.2 (9983) - http://www.bohemiancoding.com/sketch -->
    <title>59 - Arm (Flat)</title>
    <desc>Created with Sketch.</desc>
    <defs></defs>
    <g id="Page-1" stroke="none" stroke-width="1" fill="none" fill-rule="evenodd" sketch:type="MSPage">
        <g id="59---Arm-(Flat)" sketch:type="MSLayerGroup">
            <path d="M29,0 C26.325,0 23.738,0.37 21.279,1.047 C24.277,3.49 31.554,9.347 32,9 C32.562,8.563 36,22 36,22 L37,38 L29,47.736 C27.043,50.054 27.05,54.611 27.382,57.953 C27.918,57.982 28.457,58 29,58 C45.016,58 58,45.016 58,29 C58,12.984 45.016,0 29,0" id="Fill-196" fill="#CC4B4C" sketch:type="MSShapeGroup"></path>
            <path d="M46,24 C45.027,20.95 41,17 41,17 C41.75,0.875 27,4 27,4 C26.178,3.437 25.69,1.941 25.397,0.231 C25.322,0.24 25.246,0.276 25.173,0.259 L25.172,0.259 C23.417,0.491 21.711,0.876 20.07,1.407 C16.881,4.74 18.826,13.167 24.656,14.474 L27,15 C27.833,15.292 28.333,15.833 28.63,16.426 C29.2,17.568 28.967,18.952 28.151,19.933 C21.407,28.041 32,35 32,35 C27.375,35.5 24,37 24,37 C20.786,38.487 16.307,37.877 12.921,37.999 C11.664,38.045 10.487,37.504 9.662,36.555 C8.036,34.684 3.866,32.795 0.105,31.373 C0.451,35.642 1.719,39.648 3.713,43.194 C3.713,43.194 3.714,43.194 3.714,43.195 C6.969,43.362 10,43 10,43 C16.375,48.125 25.625,47.375 34,48 C42.375,48.625 42,43 42,43 C42,43 48.75,32.625 46,24" id="Fill-197" fill="#CF8C6D" sketch:type="MSShapeGroup"></path>
            <path d="M0.073,30.956 C0.094,31.277 0.114,31.598 0.146,31.916 C0.165,32.109 0.193,32.299 0.217,32.491 C0.251,32.776 0.283,33.062 0.325,33.344 C0.356,33.548 0.395,33.749 0.43,33.95 C0.475,34.217 0.519,34.485 0.572,34.749 C0.614,34.958 0.664,35.165 0.711,35.373 C0.768,35.626 0.823,35.879 0.886,36.13 C0.939,36.341 1,36.549 1.058,36.758 C1.125,37 1.191,37.244 1.264,37.484 C1.329,37.697 1.401,37.906 1.47,38.117 C1.547,38.348 1.623,38.58 1.705,38.809 C1.781,39.021 1.863,39.23 1.944,39.44 C2.031,39.663 2.116,39.887 2.208,40.107 C2.294,40.316 2.387,40.522 2.478,40.729 C2.574,40.944 2.669,41.16 2.769,41.372 C2.867,41.58 2.97,41.785 3.073,41.989 C3.176,42.195 3.279,42.4 3.387,42.603 C3.497,42.808 3.611,43.011 3.725,43.214 C3.836,43.41 3.947,43.607 4.062,43.801 C4.182,44.002 4.306,44.202 4.431,44.4 C4.549,44.588 4.668,44.776 4.79,44.961 C4.922,45.159 5.056,45.356 5.193,45.551 C5.317,45.729 5.442,45.907 5.57,46.082 C5.712,46.277 5.857,46.469 6.004,46.66 C6.135,46.83 6.266,46.998 6.401,47.165 C6.554,47.355 6.709,47.543 6.867,47.729 C7.002,47.889 7.139,48.047 7.278,48.204 C7.443,48.39 7.61,48.575 7.78,48.757 C7.918,48.906 8.059,49.053 8.201,49.198 C8.378,49.381 8.556,49.561 8.738,49.739 C8.88,49.878 9.024,50.014 9.169,50.15 C9.357,50.326 9.547,50.502 9.74,50.673 C9.885,50.802 10.032,50.928 10.18,51.054 C10.38,51.225 10.581,51.395 10.786,51.561 C10.932,51.679 11.081,51.794 11.23,51.909 C11.442,52.074 11.655,52.239 11.873,52.398 C12.019,52.505 12.168,52.609 12.317,52.714 C12.543,52.873 12.769,53.032 13,53.185 C13.144,53.28 13.291,53.372 13.437,53.465 C13.678,53.618 13.919,53.771 14.165,53.918 C14.305,54.002 14.448,54.081 14.59,54.162 C14.846,54.31 15.104,54.457 15.365,54.596 C15.5,54.668 15.637,54.735 15.772,54.805 C16.046,54.945 16.32,55.086 16.599,55.218 C16.724,55.277 16.851,55.331 16.977,55.389 C17.271,55.523 17.566,55.657 17.866,55.782 C17.971,55.826 18.079,55.865 18.184,55.907 C18.509,56.038 18.835,56.168 19.166,56.287 C19.234,56.311 19.305,56.333 19.374,56.357 C21.901,57.246 24.587,57.799 27.38,57.953 L27.382,57.953 C27.05,54.611 27.043,50.054 29,47.736 L37,38 L36,22 C36,22 32.562,8.563 32,9 C31.554,9.347 24.277,3.49 21.279,1.047 C18.596,1.787 16.068,2.899 13.756,4.331 C13.272,4.631 12.798,4.948 12.333,5.275 C12.271,5.319 12.209,5.363 12.147,5.407 C11.704,5.724 11.27,6.051 10.847,6.392 C10.823,6.411 10.799,6.429 10.775,6.448 C9.869,7.181 9.01,7.969 8.199,8.803 C8.139,8.865 8.081,8.927 8.022,8.988 C7.677,9.35 7.341,9.721 7.015,10.1 C6.961,10.163 6.905,10.225 6.851,10.289 C6.112,11.162 5.424,12.08 4.791,13.038 C4.735,13.122 4.683,13.208 4.628,13.292 C4.375,13.684 4.131,14.083 3.897,14.487 C3.832,14.599 3.767,14.71 3.704,14.823 C3.455,15.266 3.216,15.716 2.99,16.173 C2.966,16.222 2.939,16.27 2.915,16.319 C2.665,16.832 2.432,17.353 2.212,17.882 C2.169,17.985 2.131,18.09 2.089,18.193 C1.921,18.612 1.762,19.036 1.612,19.464 C1.559,19.618 1.507,19.772 1.456,19.926 C1.319,20.341 1.193,20.761 1.074,21.185 C1.038,21.316 0.998,21.445 0.963,21.577 C0.818,22.125 0.687,22.679 0.574,23.239 C0.556,23.331 0.542,23.425 0.525,23.517 C0.435,23.984 0.357,24.456 0.29,24.931 C0.265,25.11 0.243,25.291 0.221,25.471 C0.171,25.885 0.13,26.301 0.098,26.72 C0.084,26.895 0.068,27.068 0.058,27.244 C0.023,27.825 0,28.41 0,29 C0,29.492 0.013,29.982 0.037,30.468 C0.045,30.631 0.062,30.793 0.073,30.956" id="Fill-198" fill="#FCCF9D" sketch:type="MSShapeGroup"></path>
            <path d="M26.737,25.359 C26.422,24.906 25.799,24.797 25.345,25.111 C24.398,25.773 23.26,26.449 22,26.449 C21.448,26.449 21,26.897 21,27.449 C21,28.002 21.448,28.449 22,28.449 C23.825,28.449 25.358,27.542 26.49,26.752 C26.943,26.436 27.054,25.812 26.737,25.359" id="Fill-2107" fill="#CF8C6D" sketch:type="MSShapeGroup"></path>
            <path d="M11,26 C11.552,26 12,25.552 12,25 C12,24.448 11.552,24 11,24 C10.448,24 10,24.448 10,25 C10,25.552 10.448,26 11,26" id="Fill-2108" fill="#CF8C6D" sketch:type="MSShapeGroup"></path>
            <path d="M15.306,27.28 C12.932,29.571 9.068,29.571 6.694,27.28 C6.647,27.235 6.588,27.213 6.535,27.179 C6.482,27.144 6.434,27.1 6.376,27.077 C6.313,27.052 6.247,27.048 6.181,27.036 C6.12,27.024 6.062,27.004 6,27.004 C5.938,27.004 5.88,27.024 5.819,27.036 C5.753,27.048 5.687,27.052 5.625,27.077 C5.566,27.101 5.518,27.145 5.464,27.179 C5.411,27.214 5.353,27.235 5.306,27.28 C3.945,28.593 2.069,29.2 0.16,28.944 C0.105,28.938 0.055,28.954 0.001,28.956 C0.001,28.971 0,28.985 0,29 C0,29.652 0.029,30.297 0.072,30.939 C0.388,30.974 0.705,31.002 1.019,31.002 C2.834,31.002 4.575,30.409 6,29.312 C7.46,30.429 9.229,30.992 11,30.992 C13.062,30.992 15.124,30.234 16.694,28.72 C17.092,28.336 17.103,27.703 16.72,27.306 C16.336,26.909 15.703,26.897 15.306,27.28" id="Fill-2109" fill="#CF8C6D" sketch:type="MSShapeGroup"></path>
            <path d="M16.69,50.291 C15.948,51.313 14.993,51.877 14,51.877 C13.007,51.877 12.052,51.313 11.31,50.291 C10.984,49.845 10.359,49.743 9.913,50.068 C9.747,50.189 9.646,50.356 9.58,50.535 C10.967,51.786 12.475,52.904 14.084,53.871 C15.702,53.843 17.2,52.994 18.31,51.465 C18.634,51.019 18.534,50.393 18.087,50.068 C17.64,49.744 17.015,49.845 16.69,50.291" id="Fill-2110" fill="#CF8C6D" sketch:type="MSShapeGroup"></path>
            <path d="M46,24 C45.027,20.95 41,17 41,17 C41.35,9.47 38.32,6.14 34.991,4.727 C37.376,6.571 39.169,9.885 38.895,15.769 C38.895,15.769 42.923,19.719 43.895,22.769 C46.645,31.394 39.895,41.769 39.895,41.769 C39.895,41.769 40.27,47.394 31.895,46.769 C24.772,46.238 17.022,46.688 10.941,43.685 C17.264,48.045 26.026,47.405 34,48 C42.375,48.625 42,43 42,43 C42,43 48.75,32.625 46,24" id="Fill-2332" fill="#CF8C6D" sketch:type="MSShapeGroup"></path>
            <path d="M39.897,41.767 C40.02,41.577 46.62,31.314 43.895,22.769 C42.957,19.826 39.174,16.045 38.91,15.784 C38.899,15.773 38.896,15.76 38.896,15.745 C39.615,-0.016 25.504,2.647 24.914,2.765 C24.898,2.769 24.888,2.764 24.875,2.755 C24.319,2.361 23.92,1.532 23.629,0.505 C23.564,0.517 23.5,0.53 23.435,0.542 C11.822,2.588 17.235,13.726 23.973,15.593 C22.754,17.123 22,19.203 22,21.5 C22,24.335 23.147,26.838 24.904,28.383 C25.884,31.407 29.065,33.191 29.772,33.685 C29.816,33.716 29.792,33.781 29.739,33.787 C25.194,34.303 21.895,35.769 21.895,35.769 C18.69,37.253 14.227,36.65 10.844,36.768 C9.555,36.813 8.358,36.211 7.494,35.253 C6.147,33.76 3.205,32.264 0.167,31.003 C0.125,30.985 0.077,31.02 0.081,31.066 C0.355,34.965 1.399,38.649 3.064,41.971 C3.075,41.992 3.097,42.006 3.121,42.006 C5.641,42.024 7.725,41.789 7.885,41.771 C7.897,41.769 7.9,41.773 7.909,41.781 C14.284,46.893 23.526,46.145 31.895,46.769 C40.14,47.385 39.905,41.942 39.895,41.773 C39.895,41.766 39.893,41.772 39.897,41.767" id="Fill-2333" fill="#EBBB8C" sketch:type="MSShapeGroup"></path>
        </g>
    </g>
</svg>