<?xml version="1.0" encoding="UTF-8" standalone="no"?>
<svg width="58px" height="58px" viewBox="0 0 58 58" version="1.1" xmlns="http://www.w3.org/2000/svg" xmlns:xlink="http://www.w3.org/1999/xlink" xmlns:sketch="http://www.bohemiancoding.com/sketch/ns">
    <!-- Generator: Sketch 3.2.2 (9983) - http://www.bohemiancoding.com/sketch -->
    <title>102 - Articular Cartilage (Flat)</title>
    <desc>Created with Sketch.</desc>
    <defs></defs>
    <g id="Page-1" stroke="none" stroke-width="1" fill="none" fill-rule="evenodd" sketch:type="MSPage">
        <g id="102---Articular-Cartilage-(Flat)" sketch:type="MSLayerGroup">
            <path d="M37.973,1.422 C38.795,5.16 40.827,8.561 43.685,11.24 C45.803,13.226 47.071,16.107 46.883,19.282 C46.645,23.306 43.969,26.786 40.313,28.185 C43.528,29.768 45.815,33.013 46.034,36.718 C46.222,39.893 44.954,42.774 42.836,44.76 C39.39,47.991 37.159,52.275 36.791,56.933 C49.022,53.528 58,42.316 58,29 C58,16.116 49.596,5.201 37.973,1.422" id="Fill-888" fill="#42B05C" sketch:type="MSShapeGroup"></path>
            <path d="M12.117,36.718 C12.355,32.694 15.031,29.214 18.687,27.815 C15.472,26.232 13.185,22.987 12.966,19.282 C12.778,16.107 14.046,13.226 16.164,11.24 C19.16,8.432 21.23,4.825 21.969,0.872 C9.352,4.015 0,15.41 0,29 C0,42.372 9.053,53.623 21.363,56.976 C21.006,52.302 18.772,48.001 15.315,44.76 C13.197,42.774 11.929,39.893 12.117,36.718" id="Fill-889" fill="#42B05C" sketch:type="MSShapeGroup"></path>
            <path d="M21.971,0.863 C21.234,4.819 19.162,8.429 16.164,11.24 C14.046,13.226 12.778,16.107 12.966,19.282 C13.254,24.155 17.114,28.239 21.965,28.783 C23.289,28.932 24.566,28.824 25.756,28.505 C28.497,27.771 31.352,27.771 34.093,28.505 C35.283,28.824 36.56,28.932 37.883,28.783 C42.735,28.239 46.595,24.155 46.883,19.282 C47.071,16.107 45.803,13.226 43.685,11.24 C40.827,8.561 38.795,5.16 37.973,1.422 C35.146,0.503 32.133,0 29,0 C26.575,0 24.222,0.302 21.971,0.863" id="Fill-894" fill="#F3EDBF" sketch:type="MSShapeGroup"></path>
            <path d="M40.313,28.185 C39.542,28.48 38.729,28.688 37.883,28.783 C36.56,28.932 35.283,28.824 34.093,28.505 C32.912,28.189 31.709,28.017 30.504,27.974 C29.836,28.034 29.166,28.051 28.496,28.026 C27.576,28.109 26.66,28.263 25.756,28.505 C24.566,28.824 23.289,28.932 21.966,28.783 C20.803,28.653 19.7,28.314 18.687,27.815 C15.031,29.214 12.355,32.694 12.117,36.718 C11.929,39.893 13.197,42.774 15.315,44.76 C18.772,48.001 21.006,52.302 21.363,56.976 C23.797,57.639 26.356,58 29,58 C31.7,58 34.311,57.623 36.791,56.933 C37.159,52.275 39.39,47.991 42.836,44.76 C44.954,42.774 46.222,39.893 46.034,36.718 C45.815,33.013 43.528,29.768 40.313,28.185" id="Fill-895" fill="#F8E7A1" sketch:type="MSShapeGroup"></path>
        </g>
    </g>
</svg>