<?xml version="1.0" encoding="UTF-8" standalone="no"?>
<svg width="58px" height="58px" viewBox="0 0 58 58" version="1.1" xmlns="http://www.w3.org/2000/svg" xmlns:xlink="http://www.w3.org/1999/xlink" xmlns:sketch="http://www.bohemiancoding.com/sketch/ns">
    <!-- Generator: Sketch 3.2.2 (9983) - http://www.bohemiancoding.com/sketch -->
    <title>91 - Bacteria (Flat)</title>
    <desc>Created with Sketch.</desc>
    <defs></defs>
    <g id="Page-1" stroke="none" stroke-width="1" fill="none" fill-rule="evenodd" sketch:type="MSPage">
        <g id="91---Bacteria-(Flat)" sketch:type="MSLayerGroup">
            <path d="M45.549,52.62 C38.5,56.581 29.416,55.579 23.418,49.582 C16.194,42.357 16.194,30.643 23.418,23.419 C30.643,16.194 42.357,16.194 49.582,23.419 C55.579,29.416 56.581,38.5 52.62,45.549 L52.73,45.659 C56.047,40.945 58,35.202 58,29 C58,12.984 45.016,0 29,0 C12.984,0 0,12.984 0,29 C0,45.016 12.984,58 29,58 C35.202,58 40.945,56.047 45.659,52.73 L45.549,52.62" id="Fill-274" fill="#556080" sketch:type="MSShapeGroup"></path>
            <path d="M23.418,49.582 C16.194,42.357 16.194,30.643 23.418,23.419 C30.643,16.194 42.357,16.194 49.582,23.419 C51.624,25.461 53.072,27.864 53.957,30.42 C53.984,29.95 54,29.477 54,29 C54,15.215 42.785,4 29,4 C15.215,4 4,15.215 4,29 C4,42.785 15.215,54 29,54 C29.477,54 29.95,53.984 30.42,53.957 C27.864,53.072 25.46,51.624 23.418,49.582" id="Fill-1457" fill="#FFFFFF" sketch:type="MSShapeGroup"></path>
            <path d="M17,14 C16.447,14 16,14.447 16,15 L16,19 C16,19.553 16.447,20 17,20 C17.553,20 18,19.553 18,19 L18,15 C18,14.447 17.553,14 17,14" id="Fill-1458" fill="#F0CE49" sketch:type="MSShapeGroup"></path>
            <path d="M12.707,25.293 C12.316,24.902 11.684,24.902 11.293,25.293 L8.793,27.793 C8.402,28.184 8.402,28.816 8.793,29.207 C8.988,29.402 9.244,29.5 9.5,29.5 C9.756,29.5 10.012,29.402 10.207,29.207 L12.707,26.707 C13.098,26.316 13.098,25.684 12.707,25.293" id="Fill-1459" fill="#F0CE49" sketch:type="MSShapeGroup"></path>
            <path d="M31.707,12.293 L29.707,10.293 C29.316,9.902 28.684,9.902 28.293,10.293 C27.902,10.684 27.902,11.316 28.293,11.707 L30.293,13.707 C30.488,13.902 30.744,14 31,14 C31.256,14 31.512,13.902 31.707,13.707 C32.098,13.316 32.098,12.684 31.707,12.293" id="Fill-1460" fill="#F0CE49" sketch:type="MSShapeGroup"></path>
            <path d="M13.168,35.445 L11.168,38.445 C10.861,38.905 10.985,39.525 11.445,39.832 C11.616,39.945 11.809,40 11.999,40 C12.322,40 12.64,39.844 12.832,39.555 L14.832,36.555 C15.139,36.095 15.015,35.475 14.555,35.168 C14.093,34.861 13.474,34.985 13.168,35.445" id="Fill-1461" fill="#F0CE49" sketch:type="MSShapeGroup"></path>
            <path d="M49.582,23.419 C41.858,15.695 29.005,16.228 21.99,25.017 C16.722,31.617 16.67,41.187 21.875,47.837 C27.761,55.358 37.865,56.938 45.549,52.62 L49.391,56.462 C50.775,58.191 54.313,58.594 56.297,56.976 C58.583,55.112 58.38,51.264 56.652,49.582 L52.62,45.549 C56.581,38.5 55.579,29.416 49.582,23.419" id="Fill-2168" fill="#F3EDBF" sketch:type="MSShapeGroup"></path>
            <path d="M51,52 C51,52.552 50.552,53 50,53 C49.448,53 49,52.552 49,52 C49,51.448 49.448,51 50,51 C50.552,51 51,51.448 51,52" id="Fill-2169" fill="#38454F" sketch:type="MSShapeGroup"></path>
            <path d="M55,52 C55,52.552 54.552,53 54,53 C53.448,53 53,52.552 53,52 C53,51.448 53.448,51 54,51 C54.552,51 55,51.448 55,52" id="Fill-2170" fill="#38454F" sketch:type="MSShapeGroup"></path>
            <path d="M53,50 C53,50.552 52.552,51 52,51 C51.448,51 51,50.552 51,50 C51,49.448 51.448,49 52,49 C52.552,49 53,49.448 53,50" id="Fill-2171" fill="#38454F" sketch:type="MSShapeGroup"></path>
            <path d="M53,54 C53,54.552 52.552,55 52,55 C51.448,55 51,54.552 51,54 C51,53.448 51.448,53 52,53 C52.552,53 53,53.448 53,54" id="Fill-2172" fill="#38454F" sketch:type="MSShapeGroup"></path>
            <path d="M35,26 C35,27.657 33.657,29 32,29 C30.343,29 29,27.657 29,26 C29,24.343 30.343,23 32,23 C33.657,23 35,24.343 35,26" id="Fill-2173" fill="#E4C05C" sketch:type="MSShapeGroup"></path>
            <path d="M42.879,47.121 C41.707,45.95 41.707,44.05 42.879,42.879 C44.05,41.707 45.95,41.707 47.121,42.879 C48.293,44.05 48.293,45.95 47.121,47.121 C45.95,48.293 44.05,48.293 42.879,47.121" id="Fill-2174" fill="#E4C05C" sketch:type="MSShapeGroup"></path>
            <path d="M48,33 L45.414,33 L46.707,31.707 C47.098,31.316 47.098,30.684 46.707,30.293 C46.316,29.902 45.684,29.902 45.293,30.293 L42.294,33.292 C42.201,33.384 42.128,33.495 42.077,33.618 C41.976,33.862 41.976,34.138 42.077,34.382 C42.178,34.627 42.373,34.822 42.618,34.923 C42.74,34.974 42.87,35 43,35 L48,35 C48.553,35 49,34.553 49,34 C49,33.447 48.553,33 48,33" id="Fill-2175" fill="#F0CE49" sketch:type="MSShapeGroup"></path>
            <path d="M29,41 L26,41 C25.447,41 25,41.447 25,42 C25,42.553 25.447,43 26,43 L28,43 L28,46 C28,46.553 28.447,47 29,47 C29.553,47 30,46.553 30,46 L30,42 C30,41.447 29.553,41 29,41" id="Fill-2176" fill="#F0CE49" sketch:type="MSShapeGroup"></path>
            <path d="M32.293,37.707 C32.488,37.902 32.744,38 33,38 C33.256,38 33.512,37.902 33.707,37.707 L35.707,35.707 C36.098,35.316 36.098,34.684 35.707,34.293 C35.316,33.902 34.684,33.902 34.293,34.293 L32.293,36.293 C31.902,36.684 31.902,37.316 32.293,37.707" id="Fill-2177" fill="#F0CE49" sketch:type="MSShapeGroup"></path>
            <path d="M36,36 L36,39 C36,39.553 36.447,40 37,40 C37.553,40 38,39.553 38,39 L38,36 C38,35.447 37.553,35 37,35 C36.447,35 36,35.447 36,36" id="Fill-2178" fill="#F0CE49" sketch:type="MSShapeGroup"></path>
            <path d="M35.707,41.293 L33.707,39.293 C33.316,38.902 32.684,38.902 32.293,39.293 C31.902,39.684 31.902,40.316 32.293,40.707 L34.293,42.707 C34.488,42.902 34.744,43 35,43 C35.256,43 35.512,42.902 35.707,42.707 C36.098,42.316 36.098,41.684 35.707,41.293" id="Fill-2179" fill="#F0CE49" sketch:type="MSShapeGroup"></path>
            <path d="M38.293,40.293 L36.293,42.293 C35.902,42.684 35.902,43.316 36.293,43.707 C36.488,43.902 36.744,44 37,44 C37.256,44 37.512,43.902 37.707,43.707 L39.707,41.707 C40.098,41.316 40.098,40.684 39.707,40.293 C39.316,39.902 38.684,39.902 38.293,40.293" id="Fill-2180" fill="#F0CE49" sketch:type="MSShapeGroup"></path>
            <path d="M40,34 C39.447,34 39,34.447 39,35 L39,38 C39,38.553 39.447,39 40,39 C40.553,39 41,38.553 41,38 L41,35 C41,34.447 40.553,34 40,34" id="Fill-2181" fill="#F0CE49" sketch:type="MSShapeGroup"></path>
            <path d="M36,34 L38,34 C38.553,34 39,33.553 39,33 C39,32.447 38.553,32 38,32 L36,32 C35.447,32 35,32.447 35,33 C35,33.553 35.447,34 36,34" id="Fill-2182" fill="#F0CE49" sketch:type="MSShapeGroup"></path>
            <path d="M31.447,39.895 C31.941,39.648 32.142,39.047 31.895,38.553 L30.895,36.553 C30.646,36.059 30.047,35.859 29.553,36.106 C29.059,36.353 28.858,36.953 29.105,37.447 L30.105,39.447 C30.281,39.798 30.634,40 31.001,40 C31.151,40 31.304,39.966 31.447,39.895" id="Fill-2183" fill="#F0CE49" sketch:type="MSShapeGroup"></path>
            <path d="M32,35 C32.256,35 32.512,34.902 32.707,34.707 L33.707,33.707 C34.098,33.316 34.098,32.684 33.707,32.293 C33.316,31.902 32.684,31.902 32.293,32.293 L31.293,33.293 C30.902,33.684 30.902,34.316 31.293,34.707 C31.488,34.902 31.744,35 32,35" id="Fill-2184" fill="#F0CE49" sketch:type="MSShapeGroup"></path>
            <path d="M33,42 L32,42 C31.447,42 31,42.447 31,43 C31,43.553 31.447,44 32,44 L33,44 C33.553,44 34,43.553 34,43 C34,42.447 33.553,42 33,42" id="Fill-2185" fill="#F0CE49" sketch:type="MSShapeGroup"></path>
        </g>
    </g>
</svg>