<?xml version="1.0" encoding="UTF-8" standalone="no"?>
<svg width="58px" height="58px" viewBox="0 0 58 58" version="1.1" xmlns="http://www.w3.org/2000/svg" xmlns:xlink="http://www.w3.org/1999/xlink" xmlns:sketch="http://www.bohemiancoding.com/sketch/ns">
    <!-- Generator: Sketch 3.2.2 (9983) - http://www.bohemiancoding.com/sketch -->
    <title>60 - Bandaged Arm (Flat)</title>
    <desc>Created with Sketch.</desc>
    <defs></defs>
    <g id="Page-1" stroke="none" stroke-width="1" fill="none" fill-rule="evenodd" sketch:type="MSPage">
        <g id="60---Bandaged-Arm-(Flat)" sketch:type="MSLayerGroup">
            <path d="M29,0 C25.856,0 22.834,0.51 20,1.438 L20,15 L34,15 L34,57.562 C47.632,55.191 58,43.31 58,29 C58,12.984 45.016,0 29,0" id="Fill-194" fill="#42B05C" sketch:type="MSShapeGroup"></path>
            <path d="M31.144,57.913 C31.306,57.901 31.468,57.89 31.63,57.876 C31.978,57.844 32.324,57.805 32.668,57.761 C32.725,57.754 32.783,57.747 32.84,57.739 C33.228,57.687 33.615,57.628 33.999,57.562 L34,57.562 L34,15 L20,15 L20,1.431 C11.56,4.185 4.821,10.699 1.771,19 L1.788,19 C1.22,20.544 0.777,22.148 0.474,23.8 C0.467,23.839 0.46,23.878 0.453,23.918 C0.389,24.274 0.333,24.633 0.282,24.995 C0.264,25.125 0.248,25.256 0.232,25.387 C0.195,25.681 0.16,25.975 0.132,26.272 C0.11,26.5 0.095,26.729 0.079,26.959 C0.064,27.176 0.046,27.392 0.035,27.61 C0.013,28.071 0,28.534 0,29 C0,45.016 12.984,58 29,58 C29.454,58 29.905,57.986 30.354,57.966 C30.619,57.953 30.881,57.933 31.144,57.913" id="Fill-195" fill="#FCCF9D" sketch:type="MSShapeGroup"></path>
            <path d="M11,37.042 C10.233,36.732 9.509,36.323 8.865,35.792 C6.91,34.179 3.355,32.602 0.105,31.373 C0.451,35.642 1.719,39.649 3.714,43.195 C6.969,43.362 10,43 10,43 C10.324,43.261 10.661,43.497 11,43.728 L11,37.042" id="Fill-1928" fill="#EBBB8C" sketch:type="MSShapeGroup"></path>
            <path d="M43,26 C42.027,22.95 41,17 41,17 C41.75,0.875 27,4 27,4 C26.178,3.437 25.69,1.941 25.397,0.231 C17.909,1.159 11.306,4.936 6.711,10.451 L27,18 C29.5,18.875 29,22 29,22 C26.375,30.625 32,35 32,35 C31.403,35.065 30.829,35.146 30.278,35.239 L34.886,48.028 C42.324,48.193 42,43 42,43 C42,43 45.75,34.625 43,26" id="Fill-1929" fill="#EBBB8C" sketch:type="MSShapeGroup"></path>
            <path d="M29.934,34.282 C26.245,34.921 23.715,36.032 23.58,36.093 C23.423,36.165 23.244,36.213 23.078,36.276 L28.105,48.698 C27.172,48.657 26.237,48.612 25.304,48.554 C26.569,48.632 27.838,48.688 29.1,48.741 C30.695,48.81 32.345,48.879 33.926,48.997 C34.384,49.031 34.827,49.049 35.253,49.049 L29.934,34.282" id="Fill-1930" fill="#FFFFFF" sketch:type="MSShapeGroup"></path>
            <path d="M17,47.406 L14.23,36.764 C13.81,36.71 13.416,36.654 13.067,36.598 C12.336,36.48 11.644,36.257 11,35.955 L11,44.926 C14.382,47.046 18.335,47.905 22.433,48.323 C20.579,48.133 18.755,47.852 17,47.406" id="Fill-1931" fill="#FFFFFF" sketch:type="MSShapeGroup"></path>
            <path d="M23.794,48.447 C23.364,48.412 22.935,48.374 22.508,48.331 C22.935,48.374 23.364,48.412 23.794,48.447" id="Fill-1932" fill="#FFFFFF" sketch:type="MSShapeGroup"></path>
            <path d="M25.215,48.548 C24.785,48.521 24.356,48.491 23.928,48.458 C24.356,48.491 24.785,48.521 25.215,48.548" id="Fill-1933" fill="#FFFFFF" sketch:type="MSShapeGroup"></path>
            <path d="M7.226,9.856 L17,47.406 C20.529,48.303 24.335,48.533 28.105,48.698 L10.952,6.309 C9.607,7.38 8.361,8.566 7.226,9.856" id="Fill-1934" fill="#E8EDEE" sketch:type="MSShapeGroup"></path>
        </g>
    </g>
</svg>