<?xml version="1.0" encoding="UTF-8" standalone="no"?>
<svg width="58px" height="58px" viewBox="0 0 58 58" version="1.1" xmlns="http://www.w3.org/2000/svg" xmlns:xlink="http://www.w3.org/1999/xlink" xmlns:sketch="http://www.bohemiancoding.com/sketch/ns">
    <!-- Generator: Sketch 3.2.2 (9983) - http://www.bohemiancoding.com/sketch -->
    <title>101 - Bandaged Kneecap (Flat)</title>
    <desc>Created with Sketch.</desc>
    <defs></defs>
    <g id="Page-1" stroke="none" stroke-width="1" fill="none" fill-rule="evenodd" sketch:type="MSPage">
        <g id="101---Bandaged-Kneecap-(Flat)" sketch:type="MSLayerGroup">
            <path d="M58,29 C58,13.506 45.848,0.851 30.556,0.042 L37.553,6.873 L6.609,25.602 L1.179,20.815 C0.416,23.412 0,26.156 0,29 C0,37.267 3.467,44.718 9.017,50 C9.51,47.573 10.193,45.188 10.92,43 L48.489,43 L48.807,50.164 C54.46,44.873 58,37.354 58,29" id="Fill-247" fill="#2998C1" sketch:type="MSShapeGroup"></path>
            <path d="M37.553,6.873 L30.556,0.042 C30.041,0.015 29.522,0 29,0 C15.827,0 4.713,8.786 1.179,20.815 L6.609,25.602 L37.553,6.873" id="Fill-248" fill="#FCCF9D" sketch:type="MSShapeGroup"></path>
            <path d="M10.92,43 C10.193,45.19 9.509,47.575 9.016,50.004 C14.219,54.955 21.251,58 29,58 C36.661,58 43.623,55.024 48.808,50.172 L48.489,43 L10.92,43" id="Fill-249" fill="#FCCF9D" sketch:type="MSShapeGroup"></path>
            <path d="M45.923,12.248 L39.32,5.803 L4.816,26.687 L11.619,32.685 L14,33 L12.017,34.65 C11.136,36.627 9.912,39.584 8.812,43 L50.491,43 L50.011,32.202 L50.746,29.263 C52.271,23.161 50.423,16.642 45.923,12.248" id="Fill-250" fill="#E8EDEE" sketch:type="MSShapeGroup"></path>
            <path d="M26.146,32.86 C26.202,32.869 26.258,32.874 26.313,32.874 C26.793,32.874 27.216,32.529 27.299,32.041 C27.391,31.497 27.024,30.981 26.479,30.888 L23.187,30.329 L24.125,29.156 C24.47,28.725 24.399,28.096 23.969,27.75 C23.537,27.405 22.909,27.478 22.563,27.906 L20.763,30.156 L11.619,32.685 L12.54,33.497 C12.387,33.826 12.207,34.223 12.017,34.65 L21.396,32.055 L26.146,32.86" id="Fill-251" fill="#C7CBC7" sketch:type="MSShapeGroup"></path>
            <path d="M50.011,32.202 L50.093,31.874 C45.754,32.648 38.983,33.855 31.627,35.171 L50.443,41.92 L50.011,32.202" id="Fill-1389" fill="#FFFFFF" sketch:type="MSShapeGroup"></path>
            <path d="M28.682,35.698 C22.405,36.821 15.888,37.99 10.218,39.012 C9.75,40.241 9.27,41.578 8.812,43 L47.529,43 L29.313,36.466 C28.965,36.341 28.744,36.038 28.682,35.698" id="Fill-1390" fill="#FFFFFF" sketch:type="MSShapeGroup"></path>
            <path d="M4.816,26.687 L8.889,30.278 C10.59,29.431 13.13,28.289 16.119,26.987 L35.526,8.099 L4.816,26.687" id="Fill-1391" fill="#FFFFFF" sketch:type="MSShapeGroup"></path>
            <path d="M21.261,24.773 C30.659,20.762 42.007,16.047 47.07,13.495 C46.707,13.065 46.33,12.645 45.923,12.248 L40.032,6.498 C40.025,6.505 40.023,6.515 40.016,6.521 L21.261,24.773" id="Fill-1392" fill="#FFFFFF" sketch:type="MSShapeGroup"></path>
        </g>
    </g>
</svg>