<?xml version="1.0" encoding="UTF-8" standalone="no"?>
<svg width="57px" height="56px" viewBox="0 0 57 56" version="1.1" xmlns="http://www.w3.org/2000/svg" xmlns:xlink="http://www.w3.org/1999/xlink" xmlns:sketch="http://www.bohemiancoding.com/sketch/ns">
    <!-- Generator: Sketch 3.2.2 (9983) - http://www.bohemiancoding.com/sketch -->
    <title>99 - Bandaged Foot (Flat)</title>
    <desc>Created with Sketch.</desc>
    <defs></defs>
    <g id="Page-1" stroke="none" stroke-width="1" fill="none" fill-rule="evenodd" sketch:type="MSPage">
        <g id="99---Bandaged-Foot-(Flat)" sketch:type="MSLayerGroup" transform="translate(-1.000000, 0.000000)">
            <path d="M56,40.491 C54,36.178 54,30.491 54,30.491 L54,12 L33,12 L33,29.194 C33,31.173 31.762,32.941 29.902,33.617 L11,40.491 L11,55.491 C14.533,56.686 18.742,55.54 23.212,54.491 C34.399,51.866 41.437,53.303 48,53.491 C54.562,53.678 55.663,50.991 56,50.491 C56.337,49.991 58.345,45.547 56,40.491" id="Fill-874" fill="#E8EDEE" sketch:type="MSShapeGroup"></path>
            <path d="M11,43 L4.212,43 C4.212,43 0.024,42.866 1.212,46.491 C1.925,48.667 5.692,52.048 11,53.844 L11,43" id="Fill-875" fill="#FCCF9D" sketch:type="MSShapeGroup"></path>
            <path d="M35,0 L52,0 L52,12 L35,12 L35,0 Z" id="Fill-876" fill="#FCCF9D" sketch:type="MSShapeGroup"></path>
            <path d="M39,2.491 C39,3.043 38.552,3.491 38,3.491 C37.448,3.491 37,3.043 37,2.491 C37,1.938 37.448,1.491 38,1.491 C38.552,1.491 39,1.938 39,2.491" id="Fill-877" fill="#F8B563" sketch:type="MSShapeGroup"></path>
            <path d="M42,4.491 C42,5.043 41.552,5.491 41,5.491 C40.448,5.491 40,5.043 40,4.491 C40,3.938 40.448,3.491 41,3.491 C41.552,3.491 42,3.938 42,4.491" id="Fill-878" fill="#F8B563" sketch:type="MSShapeGroup"></path>
            <path d="M40,7.491 C40,8.043 39.552,8.491 39,8.491 C38.448,8.491 38,8.043 38,7.491 C38,6.938 38.448,6.491 39,6.491 C39.552,6.491 40,6.938 40,7.491" id="Fill-879" fill="#F8B563" sketch:type="MSShapeGroup"></path>
            <path d="M37,5.491 C37,6.043 36.552,6.491 36,6.491 C35.448,6.491 35,6.043 35,5.491 C35,4.938 35.448,4.491 36,4.491 C36.552,4.491 37,4.938 37,5.491" id="Fill-880" fill="#F8B563" sketch:type="MSShapeGroup"></path>
            <path d="M25.953,35.053 L11.716,40.23 C11.584,40.278 11.547,40.447 11.646,40.546 L25.166,54.066 C33.201,52.445 39.024,52.932 44.184,53.285 L25.953,35.053" id="Fill-890" fill="#C7CBC7" sketch:type="MSShapeGroup"></path>
            <path d="M56,50.49 C56.198,50.197 56.967,48.537 57.097,46.198 L33,22.101 L33,29.194 C33,31.173 31.762,32.941 29.902,33.617 L26.1,35 L44.4,53.299 C45.629,53.383 46.823,53.457 48,53.49 C54.562,53.678 55.663,50.99 56,50.49" id="Fill-891" fill="#E0E2E3" sketch:type="MSShapeGroup"></path>
            <path d="M46.5,35.601 L56.399,45.5 L57.095,44.805 C57.014,43.482 56.707,42.016 56,40.49 C54,36.178 54,30.49 54,30.49 L54,28.101 L46.5,35.601" id="Fill-892" fill="#B0B6BB" sketch:type="MSShapeGroup"></path>
            <path d="M54,22 L33,22 L33,22.101 L46.5,35.601 L54,28.101 L54,22" id="Fill-893" fill="#C7CBC7" sketch:type="MSShapeGroup"></path>
        </g>
    </g>
</svg>