<?xml version="1.0" encoding="UTF-8" standalone="no"?>
<svg width="58px" height="58px" viewBox="0 0 58 58" version="1.1" xmlns="http://www.w3.org/2000/svg" xmlns:xlink="http://www.w3.org/1999/xlink" xmlns:sketch="http://www.bohemiancoding.com/sketch/ns">
    <!-- Generator: Sketch 3.2.2 (9983) - http://www.bohemiancoding.com/sketch -->
    <title>147 - Blood Samples (Flat)</title>
    <desc>Created with Sketch.</desc>
    <defs></defs>
    <g id="Page-1" stroke="none" stroke-width="1" fill="none" fill-rule="evenodd" sketch:type="MSPage">
        <g id="147---Blood-Samples-(Flat)" sketch:type="MSLayerGroup">
            <path d="M54,32 L0,32 L0,58 L58,58 L58,32 L54,32" id="Fill-252" fill="#E8EDEE" sketch:type="MSShapeGroup"></path>
            <path d="M2,10 L20,10 L20,14 L2,14 L2,10 Z" id="Fill-454" fill="#7FABDA" sketch:type="MSShapeGroup"></path>
            <path d="M18,10 L4,10 L4,0.498 C4,0.223 4.223,0 4.498,0 L17.502,0 C17.777,0 18,0.223 18,0.498 L18,10" id="Fill-455" fill="#6B5B4B" sketch:type="MSShapeGroup"></path>
            <path d="M10,4 C12.209,4 14,2.209 14,0 L6,0 C6,2.209 7.791,4 10,4" id="Fill-456" fill="#937A60" sketch:type="MSShapeGroup"></path>
            <path d="M10.95,10 C10.973,9.835 11,9.671 11,9.5 C11,7.567 9.433,6 7.5,6 C5.567,6 4,7.567 4,9.5 C4,9.671 4.027,9.835 4.05,10 L10.95,10" id="Fill-457" fill="#937A60" sketch:type="MSShapeGroup"></path>
            <path d="M18,5.511 C17.581,5.195 17.065,5 16.5,5 C15.119,5 14,6.119 14,7.5 C14,8.881 15.119,10 16.5,10 C17.065,10 17.581,9.805 18,9.489 L18,5.511" id="Fill-458" fill="#937A60" sketch:type="MSShapeGroup"></path>
            <path d="M11,52 L11,52 C7.134,52 4,48.866 4,45 L4,14 L18,14 L18,45 C18,48.866 14.866,52 11,52" id="Fill-459" fill="#A2C9ED" sketch:type="MSShapeGroup"></path>
            <path d="M11,52 L11,52 C7.134,52 4,48.866 4,45 L4,21 L18,21 L18,45 C18,48.866 14.866,52 11,52" id="Fill-460" fill="#DD342E" sketch:type="MSShapeGroup"></path>
            <path d="M20,10 L38,10 L38,14 L20,14 L20,10 Z" id="Fill-461" fill="#7FABDA" sketch:type="MSShapeGroup"></path>
            <path d="M36,10 L22,10 L22,0.498 C22,0.223 22.223,0 22.498,0 L35.502,0 C35.777,0 36,0.223 36,0.498 L36,10" id="Fill-462" fill="#6B5B4B" sketch:type="MSShapeGroup"></path>
            <path d="M28,4 C30.209,4 32,2.209 32,0 L24,0 C24,2.209 25.791,4 28,4" id="Fill-463" fill="#937A60" sketch:type="MSShapeGroup"></path>
            <path d="M28.95,10 C28.973,9.835 29,9.671 29,9.5 C29,7.567 27.433,6 25.5,6 C23.567,6 22,7.567 22,9.5 C22,9.671 22.027,9.835 22.05,10 L28.95,10" id="Fill-464" fill="#937A60" sketch:type="MSShapeGroup"></path>
            <path d="M36,5.511 C35.581,5.195 35.065,5 34.5,5 C33.119,5 32,6.119 32,7.5 C32,8.881 33.119,10 34.5,10 C35.065,10 35.581,9.805 36,9.489 L36,5.511" id="Fill-465" fill="#937A60" sketch:type="MSShapeGroup"></path>
            <path d="M29,52 L29,52 C25.134,52 22,48.866 22,45 L22,14 L36,14 L36,45 C36,48.866 32.866,52 29,52" id="Fill-466" fill="#A2C9ED" sketch:type="MSShapeGroup"></path>
            <path d="M29,52 L29,52 C25.134,52 22,48.866 22,45 L22,21 L36,21 L36,45 C36,48.866 32.866,52 29,52" id="Fill-467" fill="#DD342E" sketch:type="MSShapeGroup"></path>
            <path d="M38,10 L56,10 L56,14 L38,14 L38,10 Z" id="Fill-468" fill="#7FABDA" sketch:type="MSShapeGroup"></path>
            <path d="M54,10 L40,10 L40,0.498 C40,0.223 40.223,0 40.498,0 L53.502,0 C53.777,0 54,0.223 54,0.498 L54,10" id="Fill-469" fill="#6B5B4B" sketch:type="MSShapeGroup"></path>
            <path d="M46,4 C48.209,4 50,2.209 50,0 L42,0 C42,2.209 43.791,4 46,4" id="Fill-470" fill="#937A60" sketch:type="MSShapeGroup"></path>
            <path d="M46.95,10 C46.973,9.835 47,9.671 47,9.5 C47,7.567 45.433,6 43.5,6 C41.567,6 40,7.567 40,9.5 C40,9.671 40.027,9.835 40.05,10 L46.95,10" id="Fill-471" fill="#937A60" sketch:type="MSShapeGroup"></path>
            <path d="M54,5.511 C53.581,5.195 53.065,5 52.5,5 C51.119,5 50,6.119 50,7.5 C50,8.881 51.119,10 52.5,10 C53.065,10 53.581,9.805 54,9.489 L54,5.511" id="Fill-472" fill="#937A60" sketch:type="MSShapeGroup"></path>
            <path d="M47,52 L47,52 C43.134,52 40,48.866 40,45 L40,14 L54,14 L54,45 C54,48.866 50.866,52 47,52" id="Fill-473" fill="#A2C9ED" sketch:type="MSShapeGroup"></path>
            <path d="M47,52 L47,52 C43.134,52 40,48.866 40,45 L40,21 L54,21 L54,45 C54,48.866 50.866,52 47,52" id="Fill-474" fill="#DD342E" sketch:type="MSShapeGroup"></path>
            <path d="M45,25 C45,25.552 44.552,26 44,26 C43.448,26 43,25.552 43,25 C43,24.448 43.448,24 44,24 C44.552,24 45,24.448 45,25" id="Fill-475" fill="#B12621" sketch:type="MSShapeGroup"></path>
            <path d="M42,22 C42,22.552 41.552,23 41,23 C40.448,23 40,22.552 40,22 C40,21.448 40.448,21 41,21 C41.552,21 42,21.448 42,22" id="Fill-476" fill="#B12621" sketch:type="MSShapeGroup"></path>
            <path d="M48,22 C48,22.552 47.552,23 47,23 C46.448,23 46,22.552 46,22 C46,21.448 46.448,21 47,21 C47.552,21 48,21.448 48,22" id="Fill-477" fill="#B12621" sketch:type="MSShapeGroup"></path>
            <path d="M51,25 C51,25.552 50.552,26 50,26 C49.448,26 49,25.552 49,25 C49,24.448 49.448,24 50,24 C50.552,24 51,24.448 51,25" id="Fill-478" fill="#B12621" sketch:type="MSShapeGroup"></path>
            <path d="M54,22 C54,22.552 53.552,23 53,23 C52.448,23 52,22.552 52,22 C52,21.448 52.448,21 53,21 C53.552,21 54,21.448 54,22" id="Fill-479" fill="#B12621" sketch:type="MSShapeGroup"></path>
            <path d="M42,28 C42,28.552 41.552,29 41,29 C40.448,29 40,28.552 40,28 C40,27.448 40.448,27 41,27 C41.552,27 42,27.448 42,28" id="Fill-480" fill="#B12621" sketch:type="MSShapeGroup"></path>
            <path d="M48,28 C48,28.552 47.552,29 47,29 C46.448,29 46,28.552 46,28 C46,27.448 46.448,27 47,27 C47.552,27 48,27.448 48,28" id="Fill-481" fill="#B12621" sketch:type="MSShapeGroup"></path>
            <path d="M54,28 C54,28.552 53.552,29 53,29 C52.448,29 52,28.552 52,28 C52,27.448 52.448,27 53,27 C53.552,27 54,27.448 54,28" id="Fill-482" fill="#B12621" sketch:type="MSShapeGroup"></path>
            <path d="M45,31 C45,31.552 44.552,32 44,32 C43.448,32 43,31.552 43,31 C43,30.448 43.448,30 44,30 C44.552,30 45,30.448 45,31" id="Fill-483" fill="#B12621" sketch:type="MSShapeGroup"></path>
            <path d="M45,37 C45,37.552 44.552,38 44,38 C43.448,38 43,37.552 43,37 C43,36.448 43.448,36 44,36 C44.552,36 45,36.448 45,37" id="Fill-484" fill="#B12621" sketch:type="MSShapeGroup"></path>
            <path d="M42,34 C42,34.552 41.552,35 41,35 C40.448,35 40,34.552 40,34 C40,33.448 40.448,33 41,33 C41.552,33 42,33.448 42,34" id="Fill-485" fill="#B12621" sketch:type="MSShapeGroup"></path>
            <path d="M48,34 C48,34.552 47.552,35 47,35 C46.448,35 46,34.552 46,34 C46,33.448 46.448,33 47,33 C47.552,33 48,33.448 48,34" id="Fill-486" fill="#B12621" sketch:type="MSShapeGroup"></path>
            <path d="M51,31 C51,31.552 50.552,32 50,32 C49.448,32 49,31.552 49,31 C49,30.448 49.448,30 50,30 C50.552,30 51,30.448 51,31" id="Fill-496" fill="#B12621" sketch:type="MSShapeGroup"></path>
            <path d="M51,37 C51,37.552 50.552,38 50,38 C49.448,38 49,37.552 49,37 C49,36.448 49.448,36 50,36 C50.552,36 51,36.448 51,37" id="Fill-497" fill="#B12621" sketch:type="MSShapeGroup"></path>
            <path d="M54,34 C54,34.552 53.552,35 53,35 C52.448,35 52,34.552 52,34 C52,33.448 52.448,33 53,33 C53.552,33 54,33.448 54,34" id="Fill-498" fill="#B12621" sketch:type="MSShapeGroup"></path>
            <path d="M42,40 C42,40.552 41.552,41 41,41 C40.448,41 40,40.552 40,40 C40,39.448 40.448,39 41,39 C41.552,39 42,39.448 42,40" id="Fill-499" fill="#B12621" sketch:type="MSShapeGroup"></path>
            <path d="M48,40 C48,40.552 47.552,41 47,41 C46.448,41 46,40.552 46,40 C46,39.448 46.448,39 47,39 C47.552,39 48,39.448 48,40" id="Fill-500" fill="#B12621" sketch:type="MSShapeGroup"></path>
            <path d="M54,40 C54,40.552 53.552,41 53,41 C52.448,41 52,40.552 52,40 C52,39.448 52.448,39 53,39 C53.552,39 54,39.448 54,40" id="Fill-501" fill="#B12621" sketch:type="MSShapeGroup"></path>
            <path d="M45,43 C45,43.552 44.552,44 44,44 C43.448,44 43,43.552 43,43 C43,42.448 43.448,42 44,42 C44.552,42 45,42.448 45,43" id="Fill-502" fill="#B12621" sketch:type="MSShapeGroup"></path>
            <path d="M42,46 C42,46.552 41.552,47 41,47 C40.448,47 40,46.552 40,46 C40,45.448 40.448,45 41,45 C41.552,45 42,45.448 42,46" id="Fill-503" fill="#B12621" sketch:type="MSShapeGroup"></path>
            <path d="M48,46 C48,46.552 47.552,47 47,47 C46.448,47 46,46.552 46,46 C46,45.448 46.448,45 47,45 C47.552,45 48,45.448 48,46" id="Fill-504" fill="#B12621" sketch:type="MSShapeGroup"></path>
            <path d="M51,43 C51,43.552 50.552,44 50,44 C49.448,44 49,43.552 49,43 C49,42.448 49.448,42 50,42 C50.552,42 51,42.448 51,43" id="Fill-505" fill="#B12621" sketch:type="MSShapeGroup"></path>
            <path d="M54,46 C54,46.552 53.552,47 53,47 C52.448,47 52,46.552 52,46 C52,45.448 52.448,45 53,45 C53.552,45 54,45.448 54,46" id="Fill-506" fill="#B12621" sketch:type="MSShapeGroup"></path>
            <path d="M27,25 C27,25.552 26.552,26 26,26 C25.448,26 25,25.552 25,25 C25,24.448 25.448,24 26,24 C26.552,24 27,24.448 27,25" id="Fill-507" fill="#B12621" sketch:type="MSShapeGroup"></path>
            <path d="M24,22 C24,22.552 23.552,23 23,23 C22.448,23 22,22.552 22,22 C22,21.448 22.448,21 23,21 C23.552,21 24,21.448 24,22" id="Fill-508" fill="#B12621" sketch:type="MSShapeGroup"></path>
            <path d="M30,22 C30,22.552 29.552,23 29,23 C28.448,23 28,22.552 28,22 C28,21.448 28.448,21 29,21 C29.552,21 30,21.448 30,22" id="Fill-509" fill="#B12621" sketch:type="MSShapeGroup"></path>
            <path d="M33,25 C33,25.552 32.552,26 32,26 C31.448,26 31,25.552 31,25 C31,24.448 31.448,24 32,24 C32.552,24 33,24.448 33,25" id="Fill-510" fill="#B12621" sketch:type="MSShapeGroup"></path>
            <path d="M36,22 C36,22.552 35.552,23 35,23 C34.448,23 34,22.552 34,22 C34,21.448 34.448,21 35,21 C35.552,21 36,21.448 36,22" id="Fill-511" fill="#B12621" sketch:type="MSShapeGroup"></path>
            <path d="M24,28 C24,28.552 23.552,29 23,29 C22.448,29 22,28.552 22,28 C22,27.448 22.448,27 23,27 C23.552,27 24,27.448 24,28" id="Fill-512" fill="#B12621" sketch:type="MSShapeGroup"></path>
            <path d="M30,28 C30,28.552 29.552,29 29,29 C28.448,29 28,28.552 28,28 C28,27.448 28.448,27 29,27 C29.552,27 30,27.448 30,28" id="Fill-513" fill="#B12621" sketch:type="MSShapeGroup"></path>
            <path d="M36,28 C36,28.552 35.552,29 35,29 C34.448,29 34,28.552 34,28 C34,27.448 34.448,27 35,27 C35.552,27 36,27.448 36,28" id="Fill-514" fill="#B12621" sketch:type="MSShapeGroup"></path>
            <path d="M27,31 C27,31.552 26.552,32 26,32 C25.448,32 25,31.552 25,31 C25,30.448 25.448,30 26,30 C26.552,30 27,30.448 27,31" id="Fill-515" fill="#B12621" sketch:type="MSShapeGroup"></path>
            <path d="M27,37 C27,37.552 26.552,38 26,38 C25.448,38 25,37.552 25,37 C25,36.448 25.448,36 26,36 C26.552,36 27,36.448 27,37" id="Fill-516" fill="#B12621" sketch:type="MSShapeGroup"></path>
            <path d="M24,34 C24,34.552 23.552,35 23,35 C22.448,35 22,34.552 22,34 C22,33.448 22.448,33 23,33 C23.552,33 24,33.448 24,34" id="Fill-517" fill="#B12621" sketch:type="MSShapeGroup"></path>
            <path d="M30,34 C30,34.552 29.552,35 29,35 C28.448,35 28,34.552 28,34 C28,33.448 28.448,33 29,33 C29.552,33 30,33.448 30,34" id="Fill-518" fill="#B12621" sketch:type="MSShapeGroup"></path>
            <path d="M33,31 C33,31.552 32.552,32 32,32 C31.448,32 31,31.552 31,31 C31,30.448 31.448,30 32,30 C32.552,30 33,30.448 33,31" id="Fill-519" fill="#B12621" sketch:type="MSShapeGroup"></path>
            <path d="M33,37 C33,37.552 32.552,38 32,38 C31.448,38 31,37.552 31,37 C31,36.448 31.448,36 32,36 C32.552,36 33,36.448 33,37" id="Fill-520" fill="#B12621" sketch:type="MSShapeGroup"></path>
            <path d="M36,34 C36,34.552 35.552,35 35,35 C34.448,35 34,34.552 34,34 C34,33.448 34.448,33 35,33 C35.552,33 36,33.448 36,34" id="Fill-521" fill="#B12621" sketch:type="MSShapeGroup"></path>
            <path d="M24,40 C24,40.552 23.552,41 23,41 C22.448,41 22,40.552 22,40 C22,39.448 22.448,39 23,39 C23.552,39 24,39.448 24,40" id="Fill-522" fill="#B12621" sketch:type="MSShapeGroup"></path>
            <path d="M30,40 C30,40.552 29.552,41 29,41 C28.448,41 28,40.552 28,40 C28,39.448 28.448,39 29,39 C29.552,39 30,39.448 30,40" id="Fill-523" fill="#B12621" sketch:type="MSShapeGroup"></path>
            <path d="M36,40 C36,40.552 35.552,41 35,41 C34.448,41 34,40.552 34,40 C34,39.448 34.448,39 35,39 C35.552,39 36,39.448 36,40" id="Fill-524" fill="#B12621" sketch:type="MSShapeGroup"></path>
            <path d="M27,43 C27,43.552 26.552,44 26,44 C25.448,44 25,43.552 25,43 C25,42.448 25.448,42 26,42 C26.552,42 27,42.448 27,43" id="Fill-525" fill="#B12621" sketch:type="MSShapeGroup"></path>
            <path d="M24,46 C24,46.552 23.552,47 23,47 C22.448,47 22,46.552 22,46 C22,45.448 22.448,45 23,45 C23.552,45 24,45.448 24,46" id="Fill-526" fill="#B12621" sketch:type="MSShapeGroup"></path>
            <path d="M30,46 C30,46.552 29.552,47 29,47 C28.448,47 28,46.552 28,46 C28,45.448 28.448,45 29,45 C29.552,45 30,45.448 30,46" id="Fill-527" fill="#B12621" sketch:type="MSShapeGroup"></path>
            <path d="M33,43 C33,43.552 32.552,44 32,44 C31.448,44 31,43.552 31,43 C31,42.448 31.448,42 32,42 C32.552,42 33,42.448 33,43" id="Fill-528" fill="#B12621" sketch:type="MSShapeGroup"></path>
            <path d="M36,46 C36,46.552 35.552,47 35,47 C34.448,47 34,46.552 34,46 C34,45.448 34.448,45 35,45 C35.552,45 36,45.448 36,46" id="Fill-529" fill="#B12621" sketch:type="MSShapeGroup"></path>
            <path d="M9,25 C9,25.552 8.552,26 8,26 C7.448,26 7,25.552 7,25 C7,24.448 7.448,24 8,24 C8.552,24 9,24.448 9,25" id="Fill-530" fill="#B12621" sketch:type="MSShapeGroup"></path>
            <path d="M6,22 C6,22.552 5.552,23 5,23 C4.448,23 4,22.552 4,22 C4,21.448 4.448,21 5,21 C5.552,21 6,21.448 6,22" id="Fill-531" fill="#B12621" sketch:type="MSShapeGroup"></path>
            <path d="M12,22 C12,22.552 11.552,23 11,23 C10.448,23 10,22.552 10,22 C10,21.448 10.448,21 11,21 C11.552,21 12,21.448 12,22" id="Fill-532" fill="#B12621" sketch:type="MSShapeGroup"></path>
            <path d="M15,25 C15,25.552 14.552,26 14,26 C13.448,26 13,25.552 13,25 C13,24.448 13.448,24 14,24 C14.552,24 15,24.448 15,25" id="Fill-533" fill="#B12621" sketch:type="MSShapeGroup"></path>
            <path d="M18,22 C18,22.552 17.552,23 17,23 C16.448,23 16,22.552 16,22 C16,21.448 16.448,21 17,21 C17.552,21 18,21.448 18,22" id="Fill-534" fill="#B12621" sketch:type="MSShapeGroup"></path>
            <path d="M6,28 C6,28.552 5.552,29 5,29 C4.448,29 4,28.552 4,28 C4,27.448 4.448,27 5,27 C5.552,27 6,27.448 6,28" id="Fill-535" fill="#B12621" sketch:type="MSShapeGroup"></path>
            <path d="M12,28 C12,28.552 11.552,29 11,29 C10.448,29 10,28.552 10,28 C10,27.448 10.448,27 11,27 C11.552,27 12,27.448 12,28" id="Fill-536" fill="#B12621" sketch:type="MSShapeGroup"></path>
            <path d="M18,28 C18,28.552 17.552,29 17,29 C16.448,29 16,28.552 16,28 C16,27.448 16.448,27 17,27 C17.552,27 18,27.448 18,28" id="Fill-537" fill="#B12621" sketch:type="MSShapeGroup"></path>
            <path d="M9,31 C9,31.552 8.552,32 8,32 C7.448,32 7,31.552 7,31 C7,30.448 7.448,30 8,30 C8.552,30 9,30.448 9,31" id="Fill-538" fill="#B12621" sketch:type="MSShapeGroup"></path>
            <path d="M9,37 C9,37.552 8.552,38 8,38 C7.448,38 7,37.552 7,37 C7,36.448 7.448,36 8,36 C8.552,36 9,36.448 9,37" id="Fill-539" fill="#B12621" sketch:type="MSShapeGroup"></path>
            <path d="M6,34 C6,34.552 5.552,35 5,35 C4.448,35 4,34.552 4,34 C4,33.448 4.448,33 5,33 C5.552,33 6,33.448 6,34" id="Fill-540" fill="#B12621" sketch:type="MSShapeGroup"></path>
            <path d="M12,34 C12,34.552 11.552,35 11,35 C10.448,35 10,34.552 10,34 C10,33.448 10.448,33 11,33 C11.552,33 12,33.448 12,34" id="Fill-541" fill="#B12621" sketch:type="MSShapeGroup"></path>
            <path d="M15,31 C15,31.552 14.552,32 14,32 C13.448,32 13,31.552 13,31 C13,30.448 13.448,30 14,30 C14.552,30 15,30.448 15,31" id="Fill-542" fill="#B12621" sketch:type="MSShapeGroup"></path>
            <path d="M15,37 C15,37.552 14.552,38 14,38 C13.448,38 13,37.552 13,37 C13,36.448 13.448,36 14,36 C14.552,36 15,36.448 15,37" id="Fill-543" fill="#B12621" sketch:type="MSShapeGroup"></path>
            <path d="M18,34 C18,34.552 17.552,35 17,35 C16.448,35 16,34.552 16,34 C16,33.448 16.448,33 17,33 C17.552,33 18,33.448 18,34" id="Fill-544" fill="#B12621" sketch:type="MSShapeGroup"></path>
            <path d="M6,40 C6,40.552 5.552,41 5,41 C4.448,41 4,40.552 4,40 C4,39.448 4.448,39 5,39 C5.552,39 6,39.448 6,40" id="Fill-545" fill="#B12621" sketch:type="MSShapeGroup"></path>
            <path d="M12,40 C12,40.552 11.552,41 11,41 C10.448,41 10,40.552 10,40 C10,39.448 10.448,39 11,39 C11.552,39 12,39.448 12,40" id="Fill-546" fill="#B12621" sketch:type="MSShapeGroup"></path>
            <path d="M18,40 C18,40.552 17.552,41 17,41 C16.448,41 16,40.552 16,40 C16,39.448 16.448,39 17,39 C17.552,39 18,39.448 18,40" id="Fill-547" fill="#B12621" sketch:type="MSShapeGroup"></path>
            <path d="M9,43 C9,43.552 8.552,44 8,44 C7.448,44 7,43.552 7,43 C7,42.448 7.448,42 8,42 C8.552,42 9,42.448 9,43" id="Fill-548" fill="#B12621" sketch:type="MSShapeGroup"></path>
            <path d="M6,46 C6,46.552 5.552,47 5,47 C4.448,47 4,46.552 4,46 C4,45.448 4.448,45 5,45 C5.552,45 6,45.448 6,46" id="Fill-549" fill="#B12621" sketch:type="MSShapeGroup"></path>
            <path d="M12,46 C12,46.552 11.552,47 11,47 C10.448,47 10,46.552 10,46 C10,45.448 10.448,45 11,45 C11.552,45 12,45.448 12,46" id="Fill-550" fill="#B12621" sketch:type="MSShapeGroup"></path>
            <path d="M15,43 C15,43.552 14.552,44 14,44 C13.448,44 13,43.552 13,43 C13,42.448 13.448,42 14,42 C14.552,42 15,42.448 15,43" id="Fill-551" fill="#B12621" sketch:type="MSShapeGroup"></path>
            <path d="M18,46 C18,46.552 17.552,47 17,47 C16.448,47 16,46.552 16,46 C16,45.448 16.448,45 17,45 C17.552,45 18,45.448 18,46" id="Fill-552" fill="#B12621" sketch:type="MSShapeGroup"></path>
        </g>
    </g>
</svg>