<?xml version="1.0" encoding="UTF-8" standalone="no"?>
<svg width="20px" height="58px" viewBox="0 0 20 58" version="1.1" xmlns="http://www.w3.org/2000/svg" xmlns:xlink="http://www.w3.org/1999/xlink" xmlns:sketch="http://www.bohemiancoding.com/sketch/ns">
    <!-- Generator: Sketch 3.2.2 (9983) - http://www.bohemiancoding.com/sketch -->
    <title>148 - Blood Sample (Flat)</title>
    <desc>Created with Sketch.</desc>
    <defs></defs>
    <g id="Page-1" stroke="none" stroke-width="1" fill="none" fill-rule="evenodd" sketch:type="MSPage">
        <g id="148---Blood-Sample-(Flat)" sketch:type="MSLayerGroup">
            <path d="M19.475,14 L0.525,14 C0.235,14 0,13.765 0,13.475 L0,10.525 C0,10.235 0.235,10 0.525,10 L19.475,10 C19.765,10 20,10.235 20,10.525 L20,13.475 C20,13.765 19.765,14 19.475,14" id="Fill-447" fill="#7FABDA" sketch:type="MSShapeGroup"></path>
            <path d="M17,10 L3,10 L3,0.498 C3,0.223 3.223,0 3.498,0 L16.502,0 C16.777,0 17,0.223 17,0.498 L17,10" id="Fill-448" fill="#6B5B4B" sketch:type="MSShapeGroup"></path>
            <path d="M9,4 C11.209,4 13,2.209 13,0 L5,0 C5,2.209 6.791,4 9,4" id="Fill-449" fill="#937A60" sketch:type="MSShapeGroup"></path>
            <path d="M9.95,10 C9.973,9.835 10,9.671 10,9.5 C10,7.567 8.433,6 6.5,6 C4.567,6 3,7.567 3,9.5 C3,9.671 3.027,9.835 3.05,10 L9.95,10" id="Fill-450" fill="#937A60" sketch:type="MSShapeGroup"></path>
            <path d="M17,5.511 C16.581,5.195 16.065,5 15.5,5 C14.119,5 13,6.119 13,7.5 C13,8.881 14.119,10 15.5,10 C16.065,10 16.581,9.805 17,9.489 L17,5.511" id="Fill-451" fill="#937A60" sketch:type="MSShapeGroup"></path>
            <path d="M10,58 L10,58 C6.134,58 3,54.866 3,51 L3,14 L17,14 L17,51 C17,54.866 13.866,58 10,58" id="Fill-452" fill="#A2C9ED" sketch:type="MSShapeGroup"></path>
            <path d="M10,58 L10,58 C6.134,58 3,54.866 3,51 L3,29 L17,29 L17,51 C17,54.866 13.866,58 10,58" id="Fill-453" fill="#B12621" sketch:type="MSShapeGroup"></path>
        </g>
    </g>
</svg>