<?xml version="1.0" encoding="UTF-8" standalone="no"?>
<svg width="54px" height="60px" viewBox="0 0 54 60" version="1.1" xmlns="http://www.w3.org/2000/svg" xmlns:xlink="http://www.w3.org/1999/xlink" xmlns:sketch="http://www.bohemiancoding.com/sketch/ns">
    <!-- Generator: Sketch 3.2.2 (9983) - http://www.bohemiancoding.com/sketch -->
    <title>80 - Brain (Flat)</title>
    <desc>Created with Sketch.</desc>
    <defs></defs>
    <g id="Page-1" stroke="none" stroke-width="1" fill="none" fill-rule="evenodd" sketch:type="MSPage">
        <g id="80---Brain-(Flat)" sketch:type="MSLayerGroup" transform="translate(1.000000, 0.000000)">
            <path d="M26,50.227 C26,58.102 35.048,61.727 36,54.832 C36.422,51.772 39.236,53.303 40.611,50.446 C41.356,48.897 40.96,47.642 42.46,46.872 C45.226,45.452 47.193,41.411 47,38.227 C46.895,36.501 49.792,33.668 50.719,32.227 C52.427,29.569 52.427,25.885 50.719,23.227 C49.792,21.786 49.348,18.953 49.452,17.227 C49.645,14.043 47.972,10.647 45.205,9.227 C43.706,8.457 42.491,8.776 41.745,7.227 C40.371,4.37 39.083,4.028 36,4.227 C34.329,4.335 33.583,1.25 31,1.25 C30.987,1.25 30.98,1.227 30.966,1.227 C28.292,1.227 26,2.672 26,4.227 L26,50.227 L26,50.227 Z" id="Fill-959" fill="#EFC9B3" sketch:type="MSShapeGroup"></path>
            <path d="M26,50.227 C26,58.102 35.048,61.727 36,54.832 C36.422,51.772 39.236,53.303 40.611,50.446 C41.356,48.897 40.96,47.642 42.46,46.872 C45.226,45.452 47.193,41.411 47,38.227 C46.895,36.501 49.792,33.668 50.719,32.227 C52.427,29.569 52.427,25.885 50.719,23.227 C49.792,21.786 49.348,18.953 49.452,17.227 C49.645,14.043 47.972,10.647 45.205,9.227 C43.706,8.457 42.491,8.776 41.745,7.227 C40.371,4.37 39.083,4.028 36,4.227 C34.329,4.335 33.583,1.25 31,1.25 C30.987,1.25 30.98,1.227 30.966,1.227 C28.292,1.227 26,2.672 26,4.227 L26,50.227 L26,50.227 Z" id="Stroke-960" stroke="#CF8C6D" stroke-width="2" stroke-linecap="round" sketch:type="MSShapeGroup"></path>
            <path d="M26,50.227 C26,58.102 16.952,61.727 16,54.832 C15.577,51.772 12.764,53.303 11.389,50.446 C10.644,48.897 11.04,47.642 9.54,46.872 C6.774,45.452 4.807,41.411 5,38.227 C5.104,36.501 2.207,33.668 1.281,32.227 C-0.427,29.569 -0.427,25.885 1.281,23.227 C2.207,21.786 2.652,18.953 2.548,17.227 C2.355,14.043 4.028,10.647 6.795,9.227 C8.294,8.457 9.509,8.776 10.255,7.227 C11.629,4.37 12.917,4.028 16,4.227 C17.671,4.335 18.417,1.644 21,1.25 C21.013,1.248 21.022,1.235 21.034,1.227 C22.482,0.245 26,2.672 26,4.227 L26,50.227 L26,50.227 Z" id="Fill-961" fill="#EFC9B3" sketch:type="MSShapeGroup"></path>
            <path d="M26,50.227 C26,58.102 16.952,61.727 16,54.832 C15.577,51.772 12.764,53.303 11.389,50.446 C10.644,48.897 11.04,47.642 9.54,46.872 C6.774,45.452 4.807,41.411 5,38.227 C5.104,36.501 2.207,33.668 1.281,32.227 C-0.427,29.569 -0.427,25.885 1.281,23.227 C2.207,21.786 2.652,18.953 2.548,17.227 C2.355,14.043 4.028,10.647 6.795,9.227 C8.294,8.457 9.509,8.776 10.255,7.227 C11.629,4.37 12.917,4.028 16,4.227 C17.671,4.335 18.417,1.644 21,1.25 C21.013,1.248 21.022,1.235 21.034,1.227 C22.482,0.245 26,2.672 26,4.227 L26,50.227 L26,50.227 Z" id="Stroke-962" stroke="#CF8C6D" stroke-width="2" stroke-linecap="round" sketch:type="MSShapeGroup"></path>
            <path d="M41,48.227 C41,44.911 38.316,42.227 35,42.227 M11,48.227 C11,44.911 13.684,42.227 17,42.227 M38,12.227 C38,10.016 39.789,8.227 42,8.227 M15,13.227 C15,10.463 12.764,8.227 10,8.227 M47,37.227 C47,33.358 43.869,30.227 40,30.227 C36.131,30.227 33,27.096 33,23.227" id="Stroke-963" stroke="#CF8C6D" stroke-width="2" stroke-linecap="round" sketch:type="MSShapeGroup"></path>
            <path d="M26,12.227 C21.589,12.227 18,15.815 18,20.227 C18,23.535 15.309,26.227 12,26.227 C11.448,26.227 11,26.674 11,27.227 C11,27.779 11.448,28.227 12,28.227 C16.411,28.227 20,24.638 20,20.227 C20,16.918 22.691,14.227 26,14.227 C26.552,14.227 27,13.779 27,13.227 C27,12.674 26.552,12.227 26,12.227" id="Fill-969" fill="#F8E1D5" sketch:type="MSShapeGroup"></path>
            <path d="M22.537,27.863 C22.146,27.473 21.514,27.473 21.123,27.863 C19.754,29.231 19,31.051 19,32.984 C19,34.603 19.535,36.138 20.51,37.399 C19.535,38.66 19,40.195 19,41.813 C19,43.746 19.754,45.565 21.123,46.934 C21.318,47.129 21.574,47.227 21.83,47.227 C22.086,47.227 22.342,47.129 22.537,46.934 C22.928,46.543 22.928,45.91 22.537,45.52 C21.546,44.528 21,43.212 21,41.813 C21,40.413 21.546,39.097 22.537,38.105 C22.928,37.715 22.928,37.082 22.537,36.691 C21.546,35.7 21,34.384 21,32.984 C21,31.585 21.546,30.269 22.537,29.277 C22.928,28.887 22.928,28.254 22.537,27.863" id="Fill-970" fill="#F8E1D5" sketch:type="MSShapeGroup"></path>
            <path d="M32.225,31.206 C31.834,30.815 31.202,30.815 30.811,31.206 C30.42,31.597 30.42,32.23 30.811,32.62 C32.669,34.48 32.669,37.504 30.811,39.363 C29.532,40.643 28.827,42.342 28.827,44.148 C28.827,45.955 29.532,47.654 30.811,48.934 C31.006,49.129 31.262,49.227 31.518,49.227 C31.774,49.227 32.03,49.129 32.225,48.934 C32.616,48.543 32.616,47.91 32.225,47.52 C31.324,46.618 30.827,45.421 30.827,44.148 C30.827,42.876 31.324,41.679 32.225,40.777 C34.863,38.139 34.863,33.845 32.225,31.206" id="Fill-971" fill="#F8E1D5" sketch:type="MSShapeGroup"></path>
            <path d="M43.815,21.696 C41.231,22.149 38.749,20.414 38.294,17.825 C37.981,16.044 36.994,14.491 35.515,13.454 C34.036,12.417 32.238,12.019 30.458,12.33 C29.914,12.426 29.55,12.944 29.646,13.488 C29.742,14.032 30.259,14.391 30.804,14.301 C32.062,14.075 33.324,14.361 34.367,15.091 C35.409,15.822 36.104,16.916 36.324,18.171 C36.901,21.452 39.765,23.77 42.988,23.77 C43.374,23.77 43.767,23.735 44.161,23.667 C44.705,23.571 45.068,23.053 44.973,22.509 C44.877,21.965 44.363,21.602 43.815,21.696" id="Fill-972" fill="#F8E1D5" sketch:type="MSShapeGroup"></path>
            <path d="M9.87,22.8 C11.515,22.8 13.065,21.788 13.667,20.157 C13.859,19.639 13.594,19.064 13.076,18.872 C12.56,18.682 11.982,18.946 11.792,19.464 C11.401,20.521 10.223,21.063 9.167,20.673 C7.077,19.905 4.747,20.976 3.976,23.065 C3.784,23.584 4.049,24.159 4.567,24.351 C4.682,24.393 4.798,24.412 4.914,24.412 C5.32,24.412 5.703,24.162 5.852,23.759 C6.242,22.702 7.416,22.157 8.475,22.55 C8.935,22.719 9.406,22.8 9.87,22.8" id="Fill-973" fill="#F8E1D5" sketch:type="MSShapeGroup"></path>
            <path d="M13.056,38.104 C12,37.715 11.457,36.538 11.845,35.482 L11.846,35.482 C12.618,33.391 11.544,31.062 9.453,30.288 C8.937,30.099 8.359,30.362 8.168,30.88 C7.977,31.398 8.242,31.974 8.76,32.165 C9.817,32.555 10.359,33.732 9.97,34.788 C9.969,34.789 9.97,34.79 9.969,34.791 C9.199,36.88 10.273,39.208 12.362,39.982 C12.477,40.023 12.594,40.043 12.709,40.043 C13.116,40.043 13.498,39.793 13.647,39.39 C13.838,38.871 13.574,38.297 13.056,38.104" id="Fill-974" fill="#F8E1D5" sketch:type="MSShapeGroup"></path>
        </g>
    </g>
</svg>