<?xml version="1.0" encoding="UTF-8" standalone="no"?>
<svg width="54px" height="60px" viewBox="0 0 54 60" version="1.1" xmlns="http://www.w3.org/2000/svg" xmlns:xlink="http://www.w3.org/1999/xlink" xmlns:sketch="http://www.bohemiancoding.com/sketch/ns">
    <!-- Generator: Sketch 3.2.2 (9983) - http://www.bohemiancoding.com/sketch -->
    <title>79 - Brain Activity (Flat)</title>
    <desc>Created with Sketch.</desc>
    <defs></defs>
    <g id="Page-1" stroke="none" stroke-width="1" fill="none" fill-rule="evenodd" sketch:type="MSPage">
        <g id="79---Brain-Activity-(Flat)" sketch:type="MSLayerGroup">
            <path d="M51.719,32.227 C50.792,33.668 47.895,36.501 48,38.227 C48.193,41.411 46.226,45.452 43.46,46.872 C41.96,47.642 42.356,48.897 41.611,50.446 C40.236,53.303 37.422,51.772 37,54.832 C36.286,60.003 31.018,59.257 28.429,55.238 C27.773,54.222 26.227,54.222 25.571,55.238 C22.982,59.257 17.714,60.003 17,54.832 C16.577,51.772 13.764,53.303 12.389,50.446 C11.644,48.897 12.04,47.642 10.54,46.872 C7.774,45.452 5.807,41.411 6,38.227 C6.104,36.501 3.207,33.668 2.281,32.227 C0.573,29.569 0.573,25.885 2.281,23.227 C3.207,21.786 3.652,18.953 3.548,17.227 C3.355,14.043 5.028,10.647 7.795,9.227 C9.294,8.457 10.509,8.776 11.255,7.227 C12.629,4.37 13.917,4.028 17,4.227 C18.671,4.335 19.417,1.644 22,1.25 C22.013,1.248 22.022,1.234 22.034,1.227 C22.946,0.609 24.679,1.342 25.837,2.359 C26.486,2.928 27.418,2.919 28.106,2.398 C29.028,1.701 30.434,1.227 31.966,1.227 C31.98,1.227 31.986,1.25 32,1.25 C34.583,1.25 35.329,4.335 37,4.227 C40.083,4.028 41.371,4.37 42.745,7.227 C43.491,8.776 44.706,8.457 46.205,9.227 C48.972,10.647 50.645,14.043 50.452,17.227 C50.348,18.953 50.792,21.786 51.719,23.227 C53.427,25.885 53.427,29.569 51.719,32.227" id="Fill-264" fill="#EFC9B3" sketch:type="MSShapeGroup"></path>
            <path d="M35,55.483 C34.448,55.483 34,55.93 34,56.483 C34,57.035 34.448,57.483 35,57.483 C35.552,57.483 36,57.035 36,56.483 C36,55.93 35.552,55.483 35,55.483" id="Fill-1035" fill="#FFFFFF" sketch:type="MSShapeGroup"></path>
            <path d="M31,55.483 C30.448,55.483 30,55.93 30,56.483 C30,57.035 30.448,57.483 31,57.483 C31.552,57.483 32,57.035 32,56.483 C32,55.93 31.552,55.483 31,55.483" id="Fill-1036" fill="#FFFFFF" sketch:type="MSShapeGroup"></path>
            <path d="M37,53.483 C36.448,53.483 36,53.93 36,54.483 C36,55.035 36.448,55.483 37,55.483 C37.552,55.483 38,55.035 38,54.483 C38,53.93 37.552,53.483 37,53.483" id="Fill-1037" fill="#FFFFFF" sketch:type="MSShapeGroup"></path>
            <path d="M35,51.483 C34.448,51.483 34,51.93 34,52.483 C34,53.035 34.448,53.483 35,53.483 C35.552,53.483 36,53.035 36,52.483 C36,51.93 35.552,51.483 35,51.483" id="Fill-1038" fill="#FFFFFF" sketch:type="MSShapeGroup"></path>
            <path d="M31,51.483 C30.448,51.483 30,51.93 30,52.483 C30,53.035 30.448,53.483 31,53.483 C31.552,53.483 32,53.035 32,52.483 C32,51.93 31.552,51.483 31,51.483" id="Fill-1039" fill="#FFFFFF" sketch:type="MSShapeGroup"></path>
            <path d="M33,49.483 C32.448,49.483 32,49.93 32,50.483 C32,51.035 32.448,51.483 33,51.483 C33.552,51.483 34,51.035 34,50.483 C34,49.93 33.552,49.483 33,49.483" id="Fill-1040" fill="#FFFFFF" sketch:type="MSShapeGroup"></path>
            <path d="M37,49.483 C36.448,49.483 36,49.93 36,50.483 C36,51.035 36.448,51.483 37,51.483 C37.552,51.483 38,51.035 38,50.483 C38,49.93 37.552,49.483 37,49.483" id="Fill-1041" fill="#FFFFFF" sketch:type="MSShapeGroup"></path>
            <path d="M29,49.483 C28.448,49.483 28,49.93 28,50.483 C28,51.035 28.448,51.483 29,51.483 C29.552,51.483 30,51.035 30,50.483 C30,49.93 29.552,49.483 29,49.483" id="Fill-1042" fill="#FFFFFF" sketch:type="MSShapeGroup"></path>
            <path d="M37,45.483 C36.448,45.483 36,45.93 36,46.483 C36,47.035 36.448,47.483 37,47.483 C37.552,47.483 38,47.035 38,46.483 C38,45.93 37.552,45.483 37,45.483" id="Fill-1043" fill="#FFFFFF" sketch:type="MSShapeGroup"></path>
            <path d="M31,43.483 C30.448,43.483 30,43.93 30,44.483 C30,45.035 30.448,45.483 31,45.483 C31.552,45.483 32,45.035 32,44.483 C32,43.93 31.552,43.483 31,43.483" id="Fill-1044" fill="#FFFFFF" sketch:type="MSShapeGroup"></path>
            <path d="M33,43.483 C33.552,43.483 34,43.035 34,42.483 C34,41.93 33.552,41.483 33,41.483 C32.448,41.483 32,41.93 32,42.483 C32,43.035 32.448,43.483 33,43.483" id="Fill-1045" fill="#FFFFFF" sketch:type="MSShapeGroup"></path>
            <path d="M37,41.483 C36.448,41.483 36,41.93 36,42.483 C36,43.035 36.448,43.483 37,43.483 C37.552,43.483 38,43.035 38,42.483 C38,41.93 37.552,41.483 37,41.483" id="Fill-1046" fill="#FFFFFF" sketch:type="MSShapeGroup"></path>
            <path d="M29,43.483 C29.552,43.483 30,43.035 30,42.483 C30,41.93 29.552,41.483 29,41.483 C28.448,41.483 28,41.93 28,42.483 C28,43.035 28.448,43.483 29,43.483" id="Fill-1047" fill="#FFFFFF" sketch:type="MSShapeGroup"></path>
            <path d="M35,39.483 C34.448,39.483 34,39.93 34,40.483 C34,41.035 34.448,41.483 35,41.483 C35.552,41.483 36,41.035 36,40.483 C36,39.93 35.552,39.483 35,39.483" id="Fill-1048" fill="#FFFFFF" sketch:type="MSShapeGroup"></path>
            <path d="M35,37.483 C35.552,37.483 36,37.035 36,36.483 C36,35.93 35.552,35.483 35,35.483 C34.448,35.483 34,35.93 34,36.483 C34,37.035 34.448,37.483 35,37.483" id="Fill-1049" fill="#FFFFFF" sketch:type="MSShapeGroup"></path>
            <path d="M31,35.483 C30.448,35.483 30,35.93 30,36.483 C30,37.035 30.448,37.483 31,37.483 C31.552,37.483 32,37.035 32,36.483 C32,35.93 31.552,35.483 31,35.483" id="Fill-1050" fill="#FFFFFF" sketch:type="MSShapeGroup"></path>
            <path d="M29,35.483 C29.552,35.483 30,35.035 30,34.483 C30,33.93 29.552,33.483 29,33.483 C28.448,33.483 28,33.93 28,34.483 C28,35.035 28.448,35.483 29,35.483" id="Fill-1051" fill="#FFFFFF" sketch:type="MSShapeGroup"></path>
            <path d="M31,33.483 C31.552,33.483 32,33.035 32,32.483 C32,31.93 31.552,31.483 31,31.483 C30.448,31.483 30,31.93 30,32.483 C30,33.035 30.448,33.483 31,33.483" id="Fill-1052" fill="#FFFFFF" sketch:type="MSShapeGroup"></path>
            <path d="M33,31.483 C33.552,31.483 34,31.035 34,30.483 C34,29.93 33.552,29.483 33,29.483 C32.448,29.483 32,29.93 32,30.483 C32,31.035 32.448,31.483 33,31.483" id="Fill-1053" fill="#FFFFFF" sketch:type="MSShapeGroup"></path>
            <path d="M37,29.483 C36.448,29.483 36,29.93 36,30.483 C36,31.035 36.448,31.483 37,31.483 C37.552,31.483 38,31.035 38,30.483 C38,29.93 37.552,29.483 37,29.483" id="Fill-1054" fill="#FFFFFF" sketch:type="MSShapeGroup"></path>
            <path d="M29,31.483 C29.552,31.483 30,31.035 30,30.483 C30,29.93 29.552,29.483 29,29.483 C28.448,29.483 28,29.93 28,30.483 C28,31.035 28.448,31.483 29,31.483" id="Fill-1055" fill="#FFFFFF" sketch:type="MSShapeGroup"></path>
            <path d="M35,29.483 C35.552,29.483 36,29.035 36,28.483 C36,27.93 35.552,27.483 35,27.483 C34.448,27.483 34,27.93 34,28.483 C34,29.035 34.448,29.483 35,29.483" id="Fill-1056" fill="#FFFFFF" sketch:type="MSShapeGroup"></path>
            <path d="M33,27.483 C33.552,27.483 34,27.035 34,26.483 C34,25.93 33.552,25.483 33,25.483 C32.448,25.483 32,25.93 32,26.483 C32,27.035 32.448,27.483 33,27.483" id="Fill-1057" fill="#FFFFFF" sketch:type="MSShapeGroup"></path>
            <path d="M37,27.483 C37.552,27.483 38,27.035 38,26.483 C38,25.93 37.552,25.483 37,25.483 C36.448,25.483 36,25.93 36,26.483 C36,27.035 36.448,27.483 37,27.483" id="Fill-1058" fill="#FFFFFF" sketch:type="MSShapeGroup"></path>
            <path d="M31,25.483 C31.552,25.483 32,25.035 32,24.483 C32,23.93 31.552,23.483 31,23.483 C30.448,23.483 30,23.93 30,24.483 C30,25.035 30.448,25.483 31,25.483" id="Fill-1059" fill="#FFFFFF" sketch:type="MSShapeGroup"></path>
            <path d="M33,23.483 C33.552,23.483 34,23.035 34,22.483 C34,21.93 33.552,21.483 33,21.483 C32.448,21.483 32,21.93 32,22.483 C32,23.035 32.448,23.483 33,23.483" id="Fill-1060" fill="#FFFFFF" sketch:type="MSShapeGroup"></path>
            <path d="M35,19.483 C34.448,19.483 34,19.93 34,20.483 C34,21.035 34.448,21.483 35,21.483 C35.552,21.483 36,21.035 36,20.483 C36,19.93 35.552,19.483 35,19.483" id="Fill-1061" fill="#FFFFFF" sketch:type="MSShapeGroup"></path>
            <path d="M31,21.483 C31.552,21.483 32,21.035 32,20.483 C32,19.93 31.552,19.483 31,19.483 C30.448,19.483 30,19.93 30,20.483 C30,21.035 30.448,21.483 31,21.483" id="Fill-1062" fill="#FFFFFF" sketch:type="MSShapeGroup"></path>
            <path d="M29,19.483 C29.552,19.483 30,19.035 30,18.483 C30,17.93 29.552,17.483 29,17.483 C28.448,17.483 28,17.93 28,18.483 C28,19.035 28.448,19.483 29,19.483" id="Fill-1063" fill="#FFFFFF" sketch:type="MSShapeGroup"></path>
            <path d="M35,17.483 C35.552,17.483 36,17.035 36,16.483 C36,15.93 35.552,15.483 35,15.483 C34.448,15.483 34,15.93 34,16.483 C34,17.035 34.448,17.483 35,17.483" id="Fill-1064" fill="#FFFFFF" sketch:type="MSShapeGroup"></path>
            <path d="M31,17.483 C31.552,17.483 32,17.035 32,16.483 C32,15.93 31.552,15.483 31,15.483 C30.448,15.483 30,15.93 30,16.483 C30,17.035 30.448,17.483 31,17.483" id="Fill-1065" fill="#FFFFFF" sketch:type="MSShapeGroup"></path>
            <path d="M33,13.483 C32.448,13.483 32,13.93 32,14.483 C32,15.035 32.448,15.483 33,15.483 C33.552,15.483 34,15.035 34,14.483 C34,13.93 33.552,13.483 33,13.483" id="Fill-1066" fill="#FFFFFF" sketch:type="MSShapeGroup"></path>
            <path d="M37,13.483 C36.448,13.483 36,13.93 36,14.483 C36,15.035 36.448,15.483 37,15.483 C37.552,15.483 38,15.035 38,14.483 C38,13.93 37.552,13.483 37,13.483" id="Fill-1067" fill="#FFFFFF" sketch:type="MSShapeGroup"></path>
            <path d="M35,13.483 C35.552,13.483 36,13.035 36,12.483 C36,11.93 35.552,11.483 35,11.483 C34.448,11.483 34,11.93 34,12.483 C34,13.035 34.448,13.483 35,13.483" id="Fill-1068" fill="#FFFFFF" sketch:type="MSShapeGroup"></path>
            <path d="M31,11.483 C30.448,11.483 30,11.93 30,12.483 C30,13.035 30.448,13.483 31,13.483 C31.552,13.483 32,13.035 32,12.483 C32,11.93 31.552,11.483 31,11.483" id="Fill-1069" fill="#FFFFFF" sketch:type="MSShapeGroup"></path>
            <path d="M29,11.483 C29.552,11.483 30,11.035 30,10.483 C30,9.93 29.552,9.483 29,9.483 C28.448,9.483 28,9.93 28,10.483 C28,11.035 28.448,11.483 29,11.483" id="Fill-1070" fill="#FFFFFF" sketch:type="MSShapeGroup"></path>
            <path d="M35,9.483 C35.552,9.483 36,9.035 36,8.483 C36,7.93 35.552,7.483 35,7.483 C34.448,7.483 34,7.93 34,8.483 C34,9.035 34.448,9.483 35,9.483" id="Fill-1071" fill="#FFFFFF" sketch:type="MSShapeGroup"></path>
            <path d="M37,7.483 C37.552,7.483 38,7.035 38,6.483 C38,5.93 37.552,5.483 37,5.483 C36.448,5.483 36,5.93 36,6.483 C36,7.035 36.448,7.483 37,7.483" id="Fill-1072" fill="#FFFFFF" sketch:type="MSShapeGroup"></path>
            <path d="M35,5.483 C35.552,5.483 36,5.035 36,4.483 C36,3.93 35.552,3.483 35,3.483 C34.448,3.483 34,3.93 34,4.483 C34,5.035 34.448,5.483 35,5.483" id="Fill-1073" fill="#FFFFFF" sketch:type="MSShapeGroup"></path>
            <path d="M31,5.483 C31.552,5.483 32,5.035 32,4.483 C32,3.93 31.552,3.483 31,3.483 C30.448,3.483 30,3.93 30,4.483 C30,5.035 30.448,5.483 31,5.483" id="Fill-1074" fill="#FFFFFF" sketch:type="MSShapeGroup"></path>
            <path d="M33,3.483 C33.552,3.483 34,3.035 34,2.483 C34,1.93 33.552,1.483 33,1.483 C32.448,1.483 32,1.93 32,2.483 C32,3.035 32.448,3.483 33,3.483" id="Fill-1075" fill="#FFFFFF" sketch:type="MSShapeGroup"></path>
            <path d="M29,3.483 C29.552,3.483 30,3.035 30,2.483 C30,1.93 29.552,1.483 29,1.483 C28.448,1.483 28,1.93 28,2.483 C28,3.035 28.448,3.483 29,3.483" id="Fill-1076" fill="#FFFFFF" sketch:type="MSShapeGroup"></path>
            <path d="M39,51.483 C38.448,51.483 38,51.93 38,52.483 C38,53.035 38.448,53.483 39,53.483 C39.552,53.483 40,53.035 40,52.483 C40,51.93 39.552,51.483 39,51.483" id="Fill-1077" fill="#FFFFFF" sketch:type="MSShapeGroup"></path>
            <path d="M41,49.483 C40.448,49.483 40,49.93 40,50.483 C40,51.035 40.448,51.483 41,51.483 C41.552,51.483 42,51.035 42,50.483 C42,49.93 41.552,49.483 41,49.483" id="Fill-1078" fill="#FFFFFF" sketch:type="MSShapeGroup"></path>
            <path d="M39,49.483 C39.552,49.483 40,49.035 40,48.483 C40,47.93 39.552,47.483 39,47.483 C38.448,47.483 38,47.93 38,48.483 C38,49.035 38.448,49.483 39,49.483" id="Fill-1079" fill="#FFFFFF" sketch:type="MSShapeGroup"></path>
            <path d="M41,45.483 C40.448,45.483 40,45.93 40,46.483 C40,47.035 40.448,47.483 41,47.483 C41.552,47.483 42,47.035 42,46.483 C42,45.93 41.552,45.483 41,45.483" id="Fill-1080" fill="#FFFFFF" sketch:type="MSShapeGroup"></path>
            <path d="M43,43.483 C42.448,43.483 42,43.93 42,44.483 C42,45.035 42.448,45.483 43,45.483 C43.552,45.483 44,45.035 44,44.483 C44,43.93 43.552,43.483 43,43.483" id="Fill-1081" fill="#FFFFFF" sketch:type="MSShapeGroup"></path>
            <path d="M45,41.483 C44.448,41.483 44,41.93 44,42.483 C44,43.035 44.448,43.483 45,43.483 C45.552,43.483 46,43.035 46,42.483 C46,41.93 45.552,41.483 45,41.483" id="Fill-1082" fill="#FFFFFF" sketch:type="MSShapeGroup"></path>
            <path d="M41,43.483 C41.552,43.483 42,43.035 42,42.483 C42,41.93 41.552,41.483 41,41.483 C40.448,41.483 40,41.93 40,42.483 C40,43.035 40.448,43.483 41,43.483" id="Fill-1083" fill="#FFFFFF" sketch:type="MSShapeGroup"></path>
            <path d="M43,39.483 C42.448,39.483 42,39.93 42,40.483 C42,41.035 42.448,41.483 43,41.483 C43.552,41.483 44,41.035 44,40.483 C44,39.93 43.552,39.483 43,39.483" id="Fill-1084" fill="#FFFFFF" sketch:type="MSShapeGroup"></path>
            <path d="M47,39.483 C46.448,39.483 46,39.93 46,40.483 C46,41.035 46.448,41.483 47,41.483 C47.552,41.483 48,41.035 48,40.483 C48,39.93 47.552,39.483 47,39.483" id="Fill-1085" fill="#FFFFFF" sketch:type="MSShapeGroup"></path>
            <path d="M45,39.483 C45.552,39.483 46,39.035 46,38.483 C46,37.93 45.552,37.483 45,37.483 C44.448,37.483 44,37.93 44,38.483 C44,39.035 44.448,39.483 45,39.483" id="Fill-1086" fill="#FFFFFF" sketch:type="MSShapeGroup"></path>
            <path d="M43,35.483 C42.448,35.483 42,35.93 42,36.483 C42,37.035 42.448,37.483 43,37.483 C43.552,37.483 44,37.035 44,36.483 C44,35.93 43.552,35.483 43,35.483" id="Fill-1087" fill="#FFFFFF" sketch:type="MSShapeGroup"></path>
            <path d="M47,35.483 C46.448,35.483 46,35.93 46,36.483 C46,37.035 46.448,37.483 47,37.483 C47.552,37.483 48,37.035 48,36.483 C48,35.93 47.552,35.483 47,35.483" id="Fill-1088" fill="#FFFFFF" sketch:type="MSShapeGroup"></path>
            <path d="M39,35.483 C38.448,35.483 38,35.93 38,36.483 C38,37.035 38.448,37.483 39,37.483 C39.552,37.483 40,37.035 40,36.483 C40,35.93 39.552,35.483 39,35.483" id="Fill-1089" fill="#FFFFFF" sketch:type="MSShapeGroup"></path>
            <path d="M43,31.483 C42.448,31.483 42,31.93 42,32.483 C42,33.035 42.448,33.483 43,33.483 C43.552,33.483 44,33.035 44,32.483 C44,31.93 43.552,31.483 43,31.483" id="Fill-1090" fill="#FFFFFF" sketch:type="MSShapeGroup"></path>
            <path d="M47,31.483 C46.448,31.483 46,31.93 46,32.483 C46,33.035 46.448,33.483 47,33.483 C47.552,33.483 48,33.035 48,32.483 C48,31.93 47.552,31.483 47,31.483" id="Fill-1091" fill="#FFFFFF" sketch:type="MSShapeGroup"></path>
            <path d="M39,33.483 C39.552,33.483 40,33.035 40,32.483 C40,31.93 39.552,31.483 39,31.483 C38.448,31.483 38,31.93 38,32.483 C38,33.035 38.448,33.483 39,33.483" id="Fill-1092" fill="#FFFFFF" sketch:type="MSShapeGroup"></path>
            <path d="M43,27.483 C42.448,27.483 42,27.93 42,28.483 C42,29.035 42.448,29.483 43,29.483 C43.552,29.483 44,29.035 44,28.483 C44,27.93 43.552,27.483 43,27.483" id="Fill-1093" fill="#FFFFFF" sketch:type="MSShapeGroup"></path>
            <path d="M47,27.483 C46.448,27.483 46,27.93 46,28.483 C46,29.035 46.448,29.483 47,29.483 C47.552,29.483 48,29.035 48,28.483 C48,27.93 47.552,27.483 47,27.483" id="Fill-1094" fill="#FFFFFF" sketch:type="MSShapeGroup"></path>
            <path d="M41,25.483 C40.448,25.483 40,25.93 40,26.483 C40,27.035 40.448,27.483 41,27.483 C41.552,27.483 42,27.035 42,26.483 C42,25.93 41.552,25.483 41,25.483" id="Fill-1095" fill="#FFFFFF" sketch:type="MSShapeGroup"></path>
            <path d="M43,23.483 C42.448,23.483 42,23.93 42,24.483 C42,25.035 42.448,25.483 43,25.483 C43.552,25.483 44,25.035 44,24.483 C44,23.93 43.552,23.483 43,23.483" id="Fill-1096" fill="#FFFFFF" sketch:type="MSShapeGroup"></path>
            <path d="M45,21.483 C44.448,21.483 44,21.93 44,22.483 C44,23.035 44.448,23.483 45,23.483 C45.552,23.483 46,23.035 46,22.483 C46,21.93 45.552,21.483 45,21.483" id="Fill-1097" fill="#FFFFFF" sketch:type="MSShapeGroup"></path>
            <path d="M41,21.483 C40.448,21.483 40,21.93 40,22.483 C40,23.035 40.448,23.483 41,23.483 C41.552,23.483 42,23.035 42,22.483 C42,21.93 41.552,21.483 41,21.483" id="Fill-1098" fill="#FFFFFF" sketch:type="MSShapeGroup"></path>
            <path d="M43,19.483 C42.448,19.483 42,19.93 42,20.483 C42,21.035 42.448,21.483 43,21.483 C43.552,21.483 44,21.035 44,20.483 C44,19.93 43.552,19.483 43,19.483" id="Fill-1099" fill="#FFFFFF" sketch:type="MSShapeGroup"></path>
            <path d="M39,21.483 C39.552,21.483 40,21.035 40,20.483 C40,19.93 39.552,19.483 39,19.483 C38.448,19.483 38,19.93 38,20.483 C38,21.035 38.448,21.483 39,21.483" id="Fill-1100" fill="#FFFFFF" sketch:type="MSShapeGroup"></path>
            <path d="M45,19.483 C45.552,19.483 46,19.035 46,18.483 C46,17.93 45.552,17.483 45,17.483 C44.448,17.483 44,17.93 44,18.483 C44,19.035 44.448,19.483 45,19.483" id="Fill-1101" fill="#FFFFFF" sketch:type="MSShapeGroup"></path>
            <path d="M47,15.483 C46.448,15.483 46,15.93 46,16.483 C46,17.035 46.448,17.483 47,17.483 C47.552,17.483 48,17.035 48,16.483 C48,15.93 47.552,15.483 47,15.483" id="Fill-1102" fill="#FFFFFF" sketch:type="MSShapeGroup"></path>
            <path d="M45,15.483 C45.552,15.483 46,15.035 46,14.483 C46,13.93 45.552,13.483 45,13.483 C44.448,13.483 44,13.93 44,14.483 C44,15.035 44.448,15.483 45,15.483" id="Fill-1103" fill="#FFFFFF" sketch:type="MSShapeGroup"></path>
            <path d="M41,15.483 C41.552,15.483 42,15.035 42,14.483 C42,13.93 41.552,13.483 41,13.483 C40.448,13.483 40,13.93 40,14.483 C40,15.035 40.448,15.483 41,15.483" id="Fill-1104" fill="#FFFFFF" sketch:type="MSShapeGroup"></path>
            <path d="M47,13.483 C47.552,13.483 48,13.035 48,12.483 C48,11.93 47.552,11.483 47,11.483 C46.448,11.483 46,11.93 46,12.483 C46,13.035 46.448,13.483 47,13.483" id="Fill-1105" fill="#FFFFFF" sketch:type="MSShapeGroup"></path>
            <path d="M39,11.483 C38.448,11.483 38,11.93 38,12.483 C38,13.035 38.448,13.483 39,13.483 C39.552,13.483 40,13.035 40,12.483 C40,11.93 39.552,11.483 39,11.483" id="Fill-1106" fill="#FFFFFF" sketch:type="MSShapeGroup"></path>
            <path d="M45,11.483 C45.552,11.483 46,11.035 46,10.483 C46,9.93 45.552,9.483 45,9.483 C44.448,9.483 44,9.93 44,10.483 C44,11.035 44.448,11.483 45,11.483" id="Fill-1107" fill="#FFFFFF" sketch:type="MSShapeGroup"></path>
            <path d="M41,11.483 C41.552,11.483 42,11.035 42,10.483 C42,9.93 41.552,9.483 41,9.483 C40.448,9.483 40,9.93 40,10.483 C40,11.035 40.448,11.483 41,11.483" id="Fill-1108" fill="#FFFFFF" sketch:type="MSShapeGroup"></path>
            <path d="M43,9.483 C43.552,9.483 44,9.035 44,8.483 C44,7.93 43.552,7.483 43,7.483 C42.448,7.483 42,7.93 42,8.483 C42,9.035 42.448,9.483 43,9.483" id="Fill-1109" fill="#FFFFFF" sketch:type="MSShapeGroup"></path>
            <path d="M41,7.483 C41.552,7.483 42,7.035 42,6.483 C42,5.93 41.552,5.483 41,5.483 C40.448,5.483 40,5.93 40,6.483 C40,7.035 40.448,7.483 41,7.483" id="Fill-1110" fill="#FFFFFF" sketch:type="MSShapeGroup"></path>
            <path d="M39,5.483 C39.552,5.483 40,5.035 40,4.483 C40,3.93 39.552,3.483 39,3.483 C38.448,3.483 38,3.93 38,4.483 C38,5.035 38.448,5.483 39,5.483" id="Fill-1111" fill="#FFFFFF" sketch:type="MSShapeGroup"></path>
            <path d="M49,33.483 C48.448,33.483 48,33.93 48,34.483 C48,35.035 48.448,35.483 49,35.483 C49.552,35.483 50,35.035 50,34.483 C50,33.93 49.552,33.483 49,33.483" id="Fill-1112" fill="#FFFFFF" sketch:type="MSShapeGroup"></path>
            <path d="M51,31.483 C50.448,31.483 50,31.93 50,32.483 C50,33.035 50.448,33.483 51,33.483 C51.552,33.483 52,33.035 52,32.483 C52,31.93 51.552,31.483 51,31.483" id="Fill-1113" fill="#FFFFFF" sketch:type="MSShapeGroup"></path>
            <path d="M51,27.483 C50.448,27.483 50,27.93 50,28.483 C50,29.035 50.448,29.483 51,29.483 C51.552,29.483 52,29.035 52,28.483 C52,27.93 51.552,27.483 51,27.483" id="Fill-1114" fill="#FFFFFF" sketch:type="MSShapeGroup"></path>
            <path d="M49,25.483 C48.448,25.483 48,25.93 48,26.483 C48,27.035 48.448,27.483 49,27.483 C49.552,27.483 50,27.035 50,26.483 C50,25.93 49.552,25.483 49,25.483" id="Fill-1115" fill="#FFFFFF" sketch:type="MSShapeGroup"></path>
            <path d="M51,25.483 C51.552,25.483 52,25.035 52,24.483 C52,23.93 51.552,23.483 51,23.483 C50.448,23.483 50,23.93 50,24.483 C50,25.035 50.448,25.483 51,25.483" id="Fill-1116" fill="#FFFFFF" sketch:type="MSShapeGroup"></path>
            <path d="M49,21.483 C48.448,21.483 48,21.93 48,22.483 C48,23.035 48.448,23.483 49,23.483 C49.552,23.483 50,23.035 50,22.483 C50,21.93 49.552,21.483 49,21.483" id="Fill-1117" fill="#FFFFFF" sketch:type="MSShapeGroup"></path>
            <path d="M49,19.483 C49.552,19.483 50,19.035 50,18.483 C50,17.93 49.552,17.483 49,17.483 C48.448,17.483 48,17.93 48,18.483 C48,19.035 48.448,19.483 49,19.483" id="Fill-1118" fill="#FFFFFF" sketch:type="MSShapeGroup"></path>
            <path d="M49,15.483 C49.552,15.483 50,15.035 50,14.483 C50,13.93 49.552,13.483 49,13.483 C48.448,13.483 48,13.93 48,14.483 C48,15.035 48.448,15.483 49,15.483" id="Fill-1119" fill="#FFFFFF" sketch:type="MSShapeGroup"></path>
            <path d="M19,55.483 C18.448,55.483 18,55.93 18,56.483 C18,57.035 18.448,57.483 19,57.483 C19.552,57.483 20,57.035 20,56.483 C20,55.93 19.552,55.483 19,55.483" id="Fill-1120" fill="#FFFFFF" sketch:type="MSShapeGroup"></path>
            <path d="M17,53.483 C16.448,53.483 16,53.93 16,54.483 C16,55.035 16.448,55.483 17,55.483 C17.552,55.483 18,55.035 18,54.483 C18,53.93 17.552,53.483 17,53.483" id="Fill-1121" fill="#FFFFFF" sketch:type="MSShapeGroup"></path>
            <path d="M25,53.483 C24.448,53.483 24,53.93 24,54.483 C24,55.035 24.448,55.483 25,55.483 C25.552,55.483 26,55.035 26,54.483 C26,53.93 25.552,53.483 25,53.483" id="Fill-1122" fill="#FFFFFF" sketch:type="MSShapeGroup"></path>
            <path d="M19,51.483 C18.448,51.483 18,51.93 18,52.483 C18,53.035 18.448,53.483 19,53.483 C19.552,53.483 20,53.035 20,52.483 C20,51.93 19.552,51.483 19,51.483" id="Fill-1123" fill="#FFFFFF" sketch:type="MSShapeGroup"></path>
            <path d="M23,51.483 C22.448,51.483 22,51.93 22,52.483 C22,53.035 22.448,53.483 23,53.483 C23.552,53.483 24,53.035 24,52.483 C24,51.93 23.552,51.483 23,51.483" id="Fill-1124" fill="#FFFFFF" sketch:type="MSShapeGroup"></path>
            <path d="M21,49.483 C20.448,49.483 20,49.93 20,50.483 C20,51.035 20.448,51.483 21,51.483 C21.552,51.483 22,51.035 22,50.483 C22,49.93 21.552,49.483 21,49.483" id="Fill-1125" fill="#FFFFFF" sketch:type="MSShapeGroup"></path>
            <path d="M17,51.483 C17.552,51.483 18,51.035 18,50.483 C18,49.93 17.552,49.483 17,49.483 C16.448,49.483 16,49.93 16,50.483 C16,51.035 16.448,51.483 17,51.483" id="Fill-1126" fill="#FFFFFF" sketch:type="MSShapeGroup"></path>
            <path d="M17,45.483 C16.448,45.483 16,45.93 16,46.483 C16,47.035 16.448,47.483 17,47.483 C17.552,47.483 18,47.035 18,46.483 C18,45.93 17.552,45.483 17,45.483" id="Fill-1127" fill="#FFFFFF" sketch:type="MSShapeGroup"></path>
            <path d="M25,45.483 C24.448,45.483 24,45.93 24,46.483 C24,47.035 24.448,47.483 25,47.483 C25.552,47.483 26,47.035 26,46.483 C26,45.93 25.552,45.483 25,45.483" id="Fill-1128" fill="#FFFFFF" sketch:type="MSShapeGroup"></path>
            <path d="M23,45.483 C23.552,45.483 24,45.035 24,44.483 C24,43.93 23.552,43.483 23,43.483 C22.448,43.483 22,43.93 22,44.483 C22,45.035 22.448,45.483 23,45.483" id="Fill-1129" fill="#FFFFFF" sketch:type="MSShapeGroup"></path>
            <path d="M21,43.483 C21.552,43.483 22,43.035 22,42.483 C22,41.93 21.552,41.483 21,41.483 C20.448,41.483 20,41.93 20,42.483 C20,43.035 20.448,43.483 21,43.483" id="Fill-1130" fill="#FFFFFF" sketch:type="MSShapeGroup"></path>
            <path d="M17,41.483 C16.448,41.483 16,41.93 16,42.483 C16,43.035 16.448,43.483 17,43.483 C17.552,43.483 18,43.035 18,42.483 C18,41.93 17.552,41.483 17,41.483" id="Fill-1131" fill="#FFFFFF" sketch:type="MSShapeGroup"></path>
            <path d="M19,41.483 C19.552,41.483 20,41.035 20,40.483 C20,39.93 19.552,39.483 19,39.483 C18.448,39.483 18,39.93 18,40.483 C18,41.035 18.448,41.483 19,41.483" id="Fill-1132" fill="#FFFFFF" sketch:type="MSShapeGroup"></path>
            <path d="M25,37.483 C24.448,37.483 24,37.93 24,38.483 C24,39.035 24.448,39.483 25,39.483 C25.552,39.483 26,39.035 26,38.483 C26,37.93 25.552,37.483 25,37.483" id="Fill-1133" fill="#FFFFFF" sketch:type="MSShapeGroup"></path>
            <path d="M19,35.483 C18.448,35.483 18,35.93 18,36.483 C18,37.035 18.448,37.483 19,37.483 C19.552,37.483 20,37.035 20,36.483 C20,35.93 19.552,35.483 19,35.483" id="Fill-1134" fill="#FFFFFF" sketch:type="MSShapeGroup"></path>
            <path d="M23,35.483 C22.448,35.483 22,35.93 22,36.483 C22,37.035 22.448,37.483 23,37.483 C23.552,37.483 24,37.035 24,36.483 C24,35.93 23.552,35.483 23,35.483" id="Fill-1135" fill="#FFFFFF" sketch:type="MSShapeGroup"></path>
            <path d="M23,31.483 C22.448,31.483 22,31.93 22,32.483 C22,33.035 22.448,33.483 23,33.483 C23.552,33.483 24,33.035 24,32.483 C24,31.93 23.552,31.483 23,31.483" id="Fill-1136" fill="#FFFFFF" sketch:type="MSShapeGroup"></path>
            <path d="M21,31.483 C21.552,31.483 22,31.035 22,30.483 C22,29.93 21.552,29.483 21,29.483 C20.448,29.483 20,29.93 20,30.483 C20,31.035 20.448,31.483 21,31.483" id="Fill-1137" fill="#FFFFFF" sketch:type="MSShapeGroup"></path>
            <path d="M17,29.483 C16.448,29.483 16,29.93 16,30.483 C16,31.035 16.448,31.483 17,31.483 C17.552,31.483 18,31.035 18,30.483 C18,29.93 17.552,29.483 17,29.483" id="Fill-1138" fill="#FFFFFF" sketch:type="MSShapeGroup"></path>
            <path d="M19,27.483 C18.448,27.483 18,27.93 18,28.483 C18,29.035 18.448,29.483 19,29.483 C19.552,29.483 20,29.035 20,28.483 C20,27.93 19.552,27.483 19,27.483" id="Fill-1139" fill="#FFFFFF" sketch:type="MSShapeGroup"></path>
            <path d="M21,25.483 C20.448,25.483 20,25.93 20,26.483 C20,27.035 20.448,27.483 21,27.483 C21.552,27.483 22,27.035 22,26.483 C22,25.93 21.552,25.483 21,25.483" id="Fill-1140" fill="#FFFFFF" sketch:type="MSShapeGroup"></path>
            <path d="M17,27.483 C17.552,27.483 18,27.035 18,26.483 C18,25.93 17.552,25.483 17,25.483 C16.448,25.483 16,25.93 16,26.483 C16,27.035 16.448,27.483 17,27.483" id="Fill-1141" fill="#FFFFFF" sketch:type="MSShapeGroup"></path>
            <path d="M25,25.483 C24.448,25.483 24,25.93 24,26.483 C24,27.035 24.448,27.483 25,27.483 C25.552,27.483 26,27.035 26,26.483 C26,25.93 25.552,25.483 25,25.483" id="Fill-1142" fill="#FFFFFF" sketch:type="MSShapeGroup"></path>
            <path d="M23,23.483 C22.448,23.483 22,23.93 22,24.483 C22,25.035 22.448,25.483 23,25.483 C23.552,25.483 24,25.035 24,24.483 C24,23.93 23.552,23.483 23,23.483" id="Fill-1143" fill="#FFFFFF" sketch:type="MSShapeGroup"></path>
            <path d="M21,21.483 C20.448,21.483 20,21.93 20,22.483 C20,23.035 20.448,23.483 21,23.483 C21.552,23.483 22,23.035 22,22.483 C22,21.93 21.552,21.483 21,21.483" id="Fill-1144" fill="#FFFFFF" sketch:type="MSShapeGroup"></path>
            <path d="M19,21.483 C19.552,21.483 20,21.035 20,20.483 C20,19.93 19.552,19.483 19,19.483 C18.448,19.483 18,19.93 18,20.483 C18,21.035 18.448,21.483 19,21.483" id="Fill-1145" fill="#FFFFFF" sketch:type="MSShapeGroup"></path>
            <path d="M23,19.483 C22.448,19.483 22,19.93 22,20.483 C22,21.035 22.448,21.483 23,21.483 C23.552,21.483 24,21.035 24,20.483 C24,19.93 23.552,19.483 23,19.483" id="Fill-1146" fill="#FFFFFF" sketch:type="MSShapeGroup"></path>
            <path d="M19,17.483 C19.552,17.483 20,17.035 20,16.483 C20,15.93 19.552,15.483 19,15.483 C18.448,15.483 18,15.93 18,16.483 C18,17.035 18.448,17.483 19,17.483" id="Fill-1147" fill="#FFFFFF" sketch:type="MSShapeGroup"></path>
            <path d="M23,15.483 C22.448,15.483 22,15.93 22,16.483 C22,17.035 22.448,17.483 23,17.483 C23.552,17.483 24,17.035 24,16.483 C24,15.93 23.552,15.483 23,15.483" id="Fill-1148" fill="#FFFFFF" sketch:type="MSShapeGroup"></path>
            <path d="M17,13.483 C16.448,13.483 16,13.93 16,14.483 C16,15.035 16.448,15.483 17,15.483 C17.552,15.483 18,15.035 18,14.483 C18,13.93 17.552,13.483 17,13.483" id="Fill-1149" fill="#FFFFFF" sketch:type="MSShapeGroup"></path>
            <path d="M19,13.483 C19.552,13.483 20,13.035 20,12.483 C20,11.93 19.552,11.483 19,11.483 C18.448,11.483 18,11.93 18,12.483 C18,13.035 18.448,13.483 19,13.483" id="Fill-1150" fill="#FFFFFF" sketch:type="MSShapeGroup"></path>
            <path d="M23,13.483 C23.552,13.483 24,13.035 24,12.483 C24,11.93 23.552,11.483 23,11.483 C22.448,11.483 22,11.93 22,12.483 C22,13.035 22.448,13.483 23,13.483" id="Fill-1151" fill="#FFFFFF" sketch:type="MSShapeGroup"></path>
            <path d="M19,9.483 C19.552,9.483 20,9.035 20,8.483 C20,7.93 19.552,7.483 19,7.483 C18.448,7.483 18,7.93 18,8.483 C18,9.035 18.448,9.483 19,9.483" id="Fill-1152" fill="#FFFFFF" sketch:type="MSShapeGroup"></path>
            <path d="M17,7.483 C17.552,7.483 18,7.035 18,6.483 C18,5.93 17.552,5.483 17,5.483 C16.448,5.483 16,5.93 16,6.483 C16,7.035 16.448,7.483 17,7.483" id="Fill-1153" fill="#FFFFFF" sketch:type="MSShapeGroup"></path>
            <path d="M25,5.483 C24.448,5.483 24,5.93 24,6.483 C24,7.035 24.448,7.483 25,7.483 C25.552,7.483 26,7.035 26,6.483 C26,5.93 25.552,5.483 25,5.483" id="Fill-1154" fill="#FFFFFF" sketch:type="MSShapeGroup"></path>
            <path d="M19,5.483 C19.552,5.483 20,5.035 20,4.483 C20,3.93 19.552,3.483 19,3.483 C18.448,3.483 18,3.93 18,4.483 C18,5.035 18.448,5.483 19,5.483" id="Fill-1155" fill="#FFFFFF" sketch:type="MSShapeGroup"></path>
            <path d="M21,3.483 C21.552,3.483 22,3.035 22,2.483 C22,1.93 21.552,1.483 21,1.483 C20.448,1.483 20,1.93 20,2.483 C20,3.035 20.448,3.483 21,3.483" id="Fill-1156" fill="#FFFFFF" sketch:type="MSShapeGroup"></path>
            <path d="M25,1.483 C24.448,1.483 24,1.93 24,2.483 C24,3.035 24.448,3.483 25,3.483 C25.552,3.483 26,3.035 26,2.483 C26,1.93 25.552,1.483 25,1.483" id="Fill-1157" fill="#FFFFFF" sketch:type="MSShapeGroup"></path>
            <path d="M15,51.483 C14.448,51.483 14,51.93 14,52.483 C14,53.035 14.448,53.483 15,53.483 C15.552,53.483 16,53.035 16,52.483 C16,51.93 15.552,51.483 15,51.483" id="Fill-1158" fill="#FFFFFF" sketch:type="MSShapeGroup"></path>
            <path d="M13,49.483 C12.448,49.483 12,49.93 12,50.483 C12,51.035 12.448,51.483 13,51.483 C13.552,51.483 14,51.035 14,50.483 C14,49.93 13.552,49.483 13,49.483" id="Fill-1159" fill="#FFFFFF" sketch:type="MSShapeGroup"></path>
            <path d="M15,49.483 C15.552,49.483 16,49.035 16,48.483 C16,47.93 15.552,47.483 15,47.483 C14.448,47.483 14,47.93 14,48.483 C14,49.035 14.448,49.483 15,49.483" id="Fill-1160" fill="#FFFFFF" sketch:type="MSShapeGroup"></path>
            <path d="M13,47.483 C13.552,47.483 14,47.035 14,46.483 C14,45.93 13.552,45.483 13,45.483 C12.448,45.483 12,45.93 12,46.483 C12,47.035 12.448,47.483 13,47.483" id="Fill-1161" fill="#FFFFFF" sketch:type="MSShapeGroup"></path>
            <path d="M11,43.483 C10.448,43.483 10,43.93 10,44.483 C10,45.035 10.448,45.483 11,45.483 C11.552,45.483 12,45.035 12,44.483 C12,43.93 11.552,43.483 11,43.483" id="Fill-1162" fill="#FFFFFF" sketch:type="MSShapeGroup"></path>
            <path d="M9,41.483 C8.448,41.483 8,41.93 8,42.483 C8,43.035 8.448,43.483 9,43.483 C9.552,43.483 10,43.035 10,42.483 C10,41.93 9.552,41.483 9,41.483" id="Fill-1163" fill="#FFFFFF" sketch:type="MSShapeGroup"></path>
            <path d="M13,43.483 C13.552,43.483 14,43.035 14,42.483 C14,41.93 13.552,41.483 13,41.483 C12.448,41.483 12,41.93 12,42.483 C12,43.035 12.448,43.483 13,43.483" id="Fill-1164" fill="#FFFFFF" sketch:type="MSShapeGroup"></path>
            <path d="M11,41.483 C11.552,41.483 12,41.035 12,40.483 C12,39.93 11.552,39.483 11,39.483 C10.448,39.483 10,39.93 10,40.483 C10,41.035 10.448,41.483 11,41.483" id="Fill-1165" fill="#FFFFFF" sketch:type="MSShapeGroup"></path>
            <path d="M7,39.483 C6.448,39.483 6,39.93 6,40.483 C6,41.035 6.448,41.483 7,41.483 C7.552,41.483 8,41.035 8,40.483 C8,39.93 7.552,39.483 7,39.483" id="Fill-1166" fill="#FFFFFF" sketch:type="MSShapeGroup"></path>
            <path d="M9,39.483 C9.552,39.483 10,39.035 10,38.483 C10,37.93 9.552,37.483 9,37.483 C8.448,37.483 8,37.93 8,38.483 C8,39.035 8.448,39.483 9,39.483" id="Fill-1167" fill="#FFFFFF" sketch:type="MSShapeGroup"></path>
            <path d="M11,35.483 C10.448,35.483 10,35.93 10,36.483 C10,37.035 10.448,37.483 11,37.483 C11.552,37.483 12,37.035 12,36.483 C12,35.93 11.552,35.483 11,35.483" id="Fill-1168" fill="#FFFFFF" sketch:type="MSShapeGroup"></path>
            <path d="M7,37.483 C7.552,37.483 8,37.035 8,36.483 C8,35.93 7.552,35.483 7,35.483 C6.448,35.483 6,35.93 6,36.483 C6,37.035 6.448,37.483 7,37.483" id="Fill-1169" fill="#FFFFFF" sketch:type="MSShapeGroup"></path>
            <path d="M15,35.483 C14.448,35.483 14,35.93 14,36.483 C14,37.035 14.448,37.483 15,37.483 C15.552,37.483 16,37.035 16,36.483 C16,35.93 15.552,35.483 15,35.483" id="Fill-1170" fill="#FFFFFF" sketch:type="MSShapeGroup"></path>
            <path d="M11,31.483 C10.448,31.483 10,31.93 10,32.483 C10,33.035 10.448,33.483 11,33.483 C11.552,33.483 12,33.035 12,32.483 C12,31.93 11.552,31.483 11,31.483" id="Fill-1171" fill="#FFFFFF" sketch:type="MSShapeGroup"></path>
            <path d="M7,33.483 C7.552,33.483 8,33.035 8,32.483 C8,31.93 7.552,31.483 7,31.483 C6.448,31.483 6,31.93 6,32.483 C6,33.035 6.448,33.483 7,33.483" id="Fill-1172" fill="#FFFFFF" sketch:type="MSShapeGroup"></path>
            <path d="M15,31.483 C14.448,31.483 14,31.93 14,32.483 C14,33.035 14.448,33.483 15,33.483 C15.552,33.483 16,33.035 16,32.483 C16,31.93 15.552,31.483 15,31.483" id="Fill-1173" fill="#FFFFFF" sketch:type="MSShapeGroup"></path>
            <path d="M11,27.483 C10.448,27.483 10,27.93 10,28.483 C10,29.035 10.448,29.483 11,29.483 C11.552,29.483 12,29.035 12,28.483 C12,27.93 11.552,27.483 11,27.483" id="Fill-1174" fill="#FFFFFF" sketch:type="MSShapeGroup"></path>
            <path d="M13,27.483 C13.552,27.483 14,27.035 14,26.483 C14,25.93 13.552,25.483 13,25.483 C12.448,25.483 12,25.93 12,26.483 C12,27.035 12.448,27.483 13,27.483" id="Fill-1175" fill="#FFFFFF" sketch:type="MSShapeGroup"></path>
            <path d="M11,23.483 C10.448,23.483 10,23.93 10,24.483 C10,25.035 10.448,25.483 11,25.483 C11.552,25.483 12,25.035 12,24.483 C12,23.93 11.552,23.483 11,23.483" id="Fill-1176" fill="#FFFFFF" sketch:type="MSShapeGroup"></path>
            <path d="M9,21.483 C8.448,21.483 8,21.93 8,22.483 C8,23.035 8.448,23.483 9,23.483 C9.552,23.483 10,23.035 10,22.483 C10,21.93 9.552,21.483 9,21.483" id="Fill-1177" fill="#FFFFFF" sketch:type="MSShapeGroup"></path>
            <path d="M13,23.483 C13.552,23.483 14,23.035 14,22.483 C14,21.93 13.552,21.483 13,21.483 C12.448,21.483 12,21.93 12,22.483 C12,23.035 12.448,23.483 13,23.483" id="Fill-1178" fill="#FFFFFF" sketch:type="MSShapeGroup"></path>
            <path d="M11,19.483 C10.448,19.483 10,19.93 10,20.483 C10,21.035 10.448,21.483 11,21.483 C11.552,21.483 12,21.035 12,20.483 C12,19.93 11.552,19.483 11,19.483" id="Fill-1179" fill="#FFFFFF" sketch:type="MSShapeGroup"></path>
            <path d="M15,19.483 C14.448,19.483 14,19.93 14,20.483 C14,21.035 14.448,21.483 15,21.483 C15.552,21.483 16,21.035 16,20.483 C16,19.93 15.552,19.483 15,19.483" id="Fill-1180" fill="#FFFFFF" sketch:type="MSShapeGroup"></path>
            <path d="M9,19.483 C9.552,19.483 10,19.035 10,18.483 C10,17.93 9.552,17.483 9,17.483 C8.448,17.483 8,17.93 8,18.483 C8,19.035 8.448,19.483 9,19.483" id="Fill-1181" fill="#FFFFFF" sketch:type="MSShapeGroup"></path>
            <path d="M7,15.483 C6.448,15.483 6,15.93 6,16.483 C6,17.035 6.448,17.483 7,17.483 C7.552,17.483 8,17.035 8,16.483 C8,15.93 7.552,15.483 7,15.483" id="Fill-1182" fill="#FFFFFF" sketch:type="MSShapeGroup"></path>
            <path d="M9,15.483 C9.552,15.483 10,15.035 10,14.483 C10,13.93 9.552,13.483 9,13.483 C8.448,13.483 8,13.93 8,14.483 C8,15.035 8.448,15.483 9,15.483" id="Fill-1183" fill="#FFFFFF" sketch:type="MSShapeGroup"></path>
            <path d="M13,15.483 C13.552,15.483 14,15.035 14,14.483 C14,13.93 13.552,13.483 13,13.483 C12.448,13.483 12,13.93 12,14.483 C12,15.035 12.448,15.483 13,15.483" id="Fill-1184" fill="#FFFFFF" sketch:type="MSShapeGroup"></path>
            <path d="M7,13.483 C7.552,13.483 8,13.035 8,12.483 C8,11.93 7.552,11.483 7,11.483 C6.448,11.483 6,11.93 6,12.483 C6,13.035 6.448,13.483 7,13.483" id="Fill-1185" fill="#FFFFFF" sketch:type="MSShapeGroup"></path>
            <path d="M15,11.483 C14.448,11.483 14,11.93 14,12.483 C14,13.035 14.448,13.483 15,13.483 C15.552,13.483 16,13.035 16,12.483 C16,11.93 15.552,11.483 15,11.483" id="Fill-1186" fill="#FFFFFF" sketch:type="MSShapeGroup"></path>
            <path d="M9,11.483 C9.552,11.483 10,11.035 10,10.483 C10,9.93 9.552,9.483 9,9.483 C8.448,9.483 8,9.93 8,10.483 C8,11.035 8.448,11.483 9,11.483" id="Fill-1187" fill="#FFFFFF" sketch:type="MSShapeGroup"></path>
            <path d="M13,9.483 C12.448,9.483 12,9.93 12,10.483 C12,11.035 12.448,11.483 13,11.483 C13.552,11.483 14,11.035 14,10.483 C14,9.93 13.552,9.483 13,9.483" id="Fill-1188" fill="#FFFFFF" sketch:type="MSShapeGroup"></path>
            <path d="M11,9.483 C11.552,9.483 12,9.035 12,8.483 C12,7.93 11.552,7.483 11,7.483 C10.448,7.483 10,7.93 10,8.483 C10,9.035 10.448,9.483 11,9.483" id="Fill-1189" fill="#FFFFFF" sketch:type="MSShapeGroup"></path>
            <path d="M13,7.483 C13.552,7.483 14,7.035 14,6.483 C14,5.93 13.552,5.483 13,5.483 C12.448,5.483 12,5.93 12,6.483 C12,7.035 12.448,7.483 13,7.483" id="Fill-1190" fill="#FFFFFF" sketch:type="MSShapeGroup"></path>
            <path d="M15,5.483 C15.552,5.483 16,5.035 16,4.483 C16,3.93 15.552,3.483 15,3.483 C14.448,3.483 14,3.93 14,4.483 C14,5.035 14.448,5.483 15,5.483" id="Fill-1191" fill="#FFFFFF" sketch:type="MSShapeGroup"></path>
            <path d="M5,33.483 C4.448,33.483 4,33.93 4,34.483 C4,35.035 4.448,35.483 5,35.483 C5.552,35.483 6,35.035 6,34.483 C6,33.93 5.552,33.483 5,33.483" id="Fill-1192" fill="#FFFFFF" sketch:type="MSShapeGroup"></path>
            <path d="M3,31.483 C2.448,31.483 2,31.93 2,32.483 C2,33.035 2.448,33.483 3,33.483 C3.552,33.483 4,33.035 4,32.483 C4,31.93 3.552,31.483 3,31.483" id="Fill-1193" fill="#FFFFFF" sketch:type="MSShapeGroup"></path>
            <path d="M3,29.483 C3.552,29.483 4,29.035 4,28.483 C4,27.93 3.552,27.483 3,27.483 C2.448,27.483 2,27.93 2,28.483 C2,29.035 2.448,29.483 3,29.483" id="Fill-1194" fill="#FFFFFF" sketch:type="MSShapeGroup"></path>
            <path d="M5,25.483 C4.448,25.483 4,25.93 4,26.483 C4,27.035 4.448,27.483 5,27.483 C5.552,27.483 6,27.035 6,26.483 C6,25.93 5.552,25.483 5,25.483" id="Fill-1195" fill="#FFFFFF" sketch:type="MSShapeGroup"></path>
            <path d="M3,25.483 C3.552,25.483 4,25.035 4,24.483 C4,23.93 3.552,23.483 3,23.483 C2.448,23.483 2,23.93 2,24.483 C2,25.035 2.448,25.483 3,25.483" id="Fill-1196" fill="#FFFFFF" sketch:type="MSShapeGroup"></path>
            <path d="M5,23.483 C5.552,23.483 6,23.035 6,22.483 C6,21.93 5.552,21.483 5,21.483 C4.448,21.483 4,21.93 4,22.483 C4,23.035 4.448,23.483 5,23.483" id="Fill-1197" fill="#FFFFFF" sketch:type="MSShapeGroup"></path>
            <path d="M5,19.483 C5.552,19.483 6,19.035 6,18.483 C6,17.93 5.552,17.483 5,17.483 C4.448,17.483 4,17.93 4,18.483 C4,19.035 4.448,19.483 5,19.483" id="Fill-1198" fill="#FFFFFF" sketch:type="MSShapeGroup"></path>
            <path d="M5,15.483 C5.552,15.483 6,15.035 6,14.483 C6,13.93 5.552,13.483 5,13.483 C4.448,13.483 4,13.93 4,14.483 C4,15.035 4.448,15.483 5,15.483" id="Fill-1199" fill="#FFFFFF" sketch:type="MSShapeGroup"></path>
            <path d="M33.513,59.482 C31.363,59.482 29.037,58.029 27.588,55.78 C27.411,55.506 27.118,55.476 27,55.476 C26.882,55.476 26.589,55.506 26.412,55.78 C24.963,58.029 22.637,59.482 20.487,59.482 C18.073,59.482 16.399,57.795 16.009,54.969 C15.868,53.942 15.48,53.795 14.544,53.439 C13.602,53.08 12.311,52.59 11.488,50.879 C11.183,50.245 11.041,49.655 10.927,49.182 C10.72,48.325 10.629,48.042 10.083,47.762 C7.055,46.207 4.775,41.902 5.002,38.166 C5.053,37.322 3.559,35.479 2.667,34.377 C2.166,33.759 1.735,33.226 1.44,32.768 C-0.468,29.8 -0.468,25.654 1.44,22.686 C2.214,21.482 2.646,18.875 2.55,17.287 C2.325,13.58 4.294,9.899 7.338,8.337 C7.926,8.035 8.454,7.883 8.919,7.749 C9.72,7.518 10.051,7.422 10.353,6.793 C11.637,4.126 13.054,3.181 15.766,3.181 C16.163,3.181 16.594,3.198 17.064,3.229 L17.065,3.229 C17.432,3.229 17.855,2.81 18.345,2.324 C19.082,1.595 20.08,0.607 21.637,0.299 C21.997,0.099 22.407,0 22.865,0 C24.191,0 25.61,0.83 26.496,1.606 C26.918,1.976 27.236,1.803 27.503,1.601 C28.658,0.728 30.285,0.227 31.966,0.227 L32.471,0.276 C34.04,0.457 35.031,1.516 35.772,2.309 C36.195,2.761 36.633,3.229 36.914,3.229 C37.406,3.198 37.837,3.181 38.234,3.181 C40.946,3.181 42.363,4.126 43.646,6.793 C43.949,7.422 44.28,7.518 45.081,7.749 C45.546,7.883 46.074,8.035 46.662,8.337 C49.706,9.899 51.675,13.58 51.45,17.287 C51.354,18.875 51.786,21.482 52.56,22.686 C54.468,25.654 54.468,29.8 52.56,32.768 C52.265,33.226 51.833,33.759 51.333,34.377 C50.441,35.479 48.947,37.322 48.998,38.166 C49.225,41.902 46.945,46.207 43.916,47.762 C43.371,48.042 43.28,48.325 43.073,49.182 C42.959,49.655 42.817,50.245 42.512,50.879 C41.689,52.59 40.398,53.08 39.456,53.439 C38.519,53.795 38.132,53.942 37.991,54.969 C37.531,58.297 35.376,59.482 33.513,59.482 L33.513,59.482 Z M27,53.476 C27.928,53.476 28.776,53.933 29.269,54.696 C30.36,56.389 32.025,57.482 33.513,57.482 C34.874,57.482 35.761,56.492 36.009,54.695 C36.313,52.495 37.718,51.96 38.745,51.57 C39.576,51.254 40.232,51.004 40.71,50.012 C40.922,49.57 41.027,49.134 41.129,48.712 C41.357,47.767 41.616,46.694 43.003,45.982 C45.31,44.799 47.178,41.202 47.002,38.287 C46.904,36.667 48.431,34.781 49.779,33.117 C50.223,32.569 50.642,32.052 50.877,31.686 C52.376,29.356 52.376,26.099 50.877,23.768 C49.834,22.146 49.334,19.138 49.454,17.166 C49.629,14.273 48.071,11.309 45.748,10.116 C45.333,9.903 44.923,9.785 44.526,9.67 C43.593,9.4 42.534,9.095 41.844,7.66 C40.823,5.539 40.047,5.181 38.234,5.181 C37.876,5.181 37.488,5.197 37.064,5.225 L36.914,5.23 C35.766,5.23 34.993,4.403 34.311,3.675 C33.482,2.788 32.913,2.25 32,2.25 L31.532,2.241 C30.449,2.315 29.418,2.66 28.709,3.196 C27.662,3.987 26.138,3.952 25.177,3.11 C24.444,2.467 23.471,2 22.865,2 C22.769,2 22.686,2.013 22.631,2.035 L22.475,2.179 L22.147,2.239 C21.114,2.397 20.453,3.052 19.752,3.745 C19.049,4.441 18.253,5.23 17.098,5.23 L16.935,5.225 C16.512,5.197 16.123,5.181 15.766,5.181 C13.953,5.181 13.177,5.539 12.155,7.66 C11.466,9.095 10.407,9.4 9.474,9.67 C9.077,9.785 8.666,9.903 8.251,10.116 C5.929,11.309 4.371,14.273 4.546,17.166 C4.665,19.138 4.165,22.146 3.123,23.768 C1.624,26.099 1.624,29.356 3.123,31.686 C3.358,32.052 3.777,32.569 4.221,33.117 C5.569,34.781 7.096,36.667 6.998,38.287 C6.822,41.202 8.69,44.799 10.997,45.982 C12.384,46.694 12.643,47.767 12.871,48.712 C12.973,49.134 13.078,49.57 13.29,50.012 C13.768,51.004 14.424,51.254 15.255,51.57 C16.282,51.96 17.687,52.495 17.991,54.695 C18.239,56.492 19.125,57.482 20.487,57.482 C21.952,57.482 23.657,56.363 24.73,54.696 C25.224,53.933 26.072,53.476 27,53.476 L27,53.476 Z" id="Fill-2233" fill="#CF8C6D" sketch:type="MSShapeGroup"></path>
        </g>
    </g>
</svg>