<?xml version="1.0" encoding="UTF-8" standalone="no"?>
<svg width="58px" height="58px" viewBox="0 0 58 58" version="1.1" xmlns="http://www.w3.org/2000/svg" xmlns:xlink="http://www.w3.org/1999/xlink" xmlns:sketch="http://www.bohemiancoding.com/sketch/ns">
    <!-- Generator: Sketch 3.2.2 (9983) - http://www.bohemiancoding.com/sketch -->
    <title>30 - Canine (Flat)</title>
    <desc>Created with Sketch.</desc>
    <defs></defs>
    <g id="Page-1" stroke="none" stroke-width="1" fill="none" fill-rule="evenodd" sketch:type="MSPage">
        <g id="30---Canine-(Flat)" sketch:type="MSLayerGroup">
            <path d="M28.999,51 C21.579,51 19.722,50.698 17.777,44.351 C16.36,39.727 16.041,33.932 16,29.057 C15.963,24.663 23.25,17.89 27.594,17.089 C28.052,17.004 28.545,16.964 28.999,17.041 C33.171,17.754 42.15,24.805 41.998,29.057 C41.815,34.162 40.512,40.552 39.138,45.47 C37.792,50.292 33.249,51 28.999,51" id="Fill-1585" fill="#E8EDEE" sketch:type="MSShapeGroup"></path>
            <path d="M45.914,44.217 C45.679,43.505 45.481,42.759 45.299,42 L40.029,42 C39.742,43.207 39.443,44.378 39.138,45.47 C37.792,50.292 33.249,51 28.999,51 C21.579,51 19.722,50.698 17.777,44.351 C17.546,43.598 17.354,42.806 17.178,42 L11.442,42 C10.984,44.198 10.458,46.332 9.904,48.25 C9.703,48.943 9.432,49.547 9.11,50.086 C14.301,54.988 21.296,58 29,58 C36.918,58 44.085,54.818 49.317,49.672 C47.817,48.749 46.872,47.119 45.914,44.217" id="Fill-1619" fill="#ED9893" sketch:type="MSShapeGroup"></path>
            <path d="M6.595,21.795 C4.909,21.209 3.116,20.702 1.303,20.377 C0.456,23.101 0,25.997 0,29 C0,37.313 3.503,44.803 9.107,50.091 C9.43,49.551 9.703,48.945 9.904,48.25 C11.381,43.137 12.657,36.488 12.981,31.186 C13.275,26.395 10.054,22.997 6.595,21.795" id="Fill-1620" fill="#E8EDEE" sketch:type="MSShapeGroup"></path>
            <path d="M57.719,25.001 C56.548,24.999 55.377,25.036 54.208,25.12 C49.634,25.45 43.966,25.187 44,28.922 C44.044,33.798 44.388,39.592 45.914,44.217 C46.873,47.125 47.821,48.755 49.326,49.677 C54.678,44.416 58,37.097 58,29 C58,27.642 57.899,26.309 57.719,25.001" id="Fill-1621" fill="#E8EDEE" sketch:type="MSShapeGroup"></path>
            <path d="M29.844,35.952 C30.595,36.4 31.456,36.67 32.263,36.693 C33.046,36.716 33.727,37.261 33.771,38.042 C33.771,38.052 33.772,38.062 33.772,38.071 C33.913,40.636 37.914,40.65 37.772,38.071 C37.745,37.563 37.683,37.067 37.633,36.566 C37.729,36.418 37.797,36.244 37.781,36.012 C37.603,33.314 38.568,30.285 37.454,27.706 C36.532,25.571 34.834,24.186 32.956,22.969 C32.308,21.941 31.618,20.93 30.843,19.954 C30.209,19.156 29.389,19.125 28.724,19.495 C28.396,19.347 28.001,19.369 27.674,19.71 C22.85,24.729 23.872,32.391 29.844,35.952" id="Fill-2620" fill="#FFFFFF" sketch:type="MSShapeGroup"></path>
            <path d="M12.981,31.186 C12.778,34.499 12.204,38.338 11.442,42 L17.178,42 C16.273,37.856 16.035,33.139 16,29.057 C15.963,24.663 23.25,17.89 27.594,17.089 C28.052,17.004 28.545,16.964 28.999,17.041 C33.171,17.754 42.15,24.805 41.998,29.057 C41.856,33.029 41.033,37.771 40.029,42 L45.299,42 C44.298,37.824 44.038,33.048 44,28.922 C43.966,25.187 49.634,25.45 54.208,25.12 C55.377,25.036 56.548,24.999 57.719,25.001 C55.77,10.878 43.659,0 29,0 C15.988,0 5.001,8.579 1.329,20.383 C3.133,20.707 4.917,21.212 6.595,21.795 C10.054,22.997 13.275,26.395 12.981,31.186" id="Fill-2669" fill="#3E465B" sketch:type="MSShapeGroup"></path>
            <path d="M4.961,26.193 C7.335,26.38 7.832,29.174 7.844,31.071 C7.852,32.36 9.852,32.361 9.844,31.071 C9.824,27.933 8.534,24.475 4.961,24.193 C3.675,24.091 3.685,26.092 4.961,26.193" id="Fill-2673" fill="#FFFFFF" sketch:type="MSShapeGroup"></path>
            <path d="M47.295,29.558 C47.032,28.945 51.117,28.973 51.404,28.97 C52.677,28.957 53.95,28.944 55.223,28.931 C56.512,28.917 56.513,26.917 55.223,26.931 C53.009,26.954 43.5,25.748 45.568,30.568 C46.076,31.75 47.798,30.73 47.295,29.558" id="Fill-2674" fill="#FFFFFF" sketch:type="MSShapeGroup"></path>
        </g>
    </g>
</svg>