<?xml version="1.0" encoding="UTF-8" standalone="no"?>
<svg width="57px" height="58px" viewBox="0 0 57 58" version="1.1" xmlns="http://www.w3.org/2000/svg" xmlns:xlink="http://www.w3.org/1999/xlink" xmlns:sketch="http://www.bohemiancoding.com/sketch/ns">
    <!-- Generator: Sketch 3.2.2 (9983) - http://www.bohemiancoding.com/sketch -->
    <title>159 - Capsuled Pills (Flat)</title>
    <desc>Created with Sketch.</desc>
    <defs></defs>
    <g id="Page-1" stroke="none" stroke-width="1" fill="none" fill-rule="evenodd" sketch:type="MSPage">
        <g id="159---Capsuled-Pills-(Flat)" sketch:type="MSLayerGroup" transform="translate(-1.000000, -1.000000)">
            <path d="M46,5 C46,5.552 45.552,6 45,6 C44.448,6 44,5.552 44,5 C44,4.448 44.448,4 45,4 C45.552,4 46,4.448 46,5" id="Fill-308" fill="#CB465F" sketch:type="MSShapeGroup"></path>
            <path d="M33,24 C33,24.552 32.552,25 32,25 C31.448,25 31,24.552 31,24 C31,23.448 31.448,23 32,23 C32.552,23 33,23.448 33,24" id="Fill-309" fill="#88C057" sketch:type="MSShapeGroup"></path>
            <path d="M22.841,22.841 L22.841,22.841 C25.563,20.118 25.563,15.664 22.841,12.941 L12.941,3.042 C10.219,0.319 5.764,0.319 3.042,3.042 C0.319,5.764 0.319,10.219 3.042,12.941 L12.941,22.841 C15.664,25.563 20.118,25.563 22.841,22.841" id="Fill-312" fill="#E8EDEE" sketch:type="MSShapeGroup"></path>
            <path d="M10.171,34 L7.171,34 L7.171,31 C7.171,30.448 6.724,30 6.171,30 C5.619,30 5.171,30.448 5.171,31 L5.171,34 L2.171,34 C1.619,34 1.171,34.448 1.171,35 C1.171,35.552 1.619,36 2.171,36 L5.171,36 L5.171,39 C5.171,39.552 5.619,40 6.171,40 C6.724,40 7.171,39.552 7.171,39 L7.171,36 L10.171,36 C10.724,36 11.171,35.552 11.171,35 C11.171,34.448 10.724,34 10.171,34" id="Fill-321" fill="#7383BF" sketch:type="MSShapeGroup"></path>
            <path d="M55.586,53.828 L57.707,51.707 C58.098,51.316 58.098,50.684 57.707,50.293 C57.316,49.902 56.684,49.902 56.293,50.293 L54.172,52.414 L52.05,50.293 C51.66,49.902 51.027,49.902 50.636,50.293 C50.246,50.684 50.246,51.316 50.636,51.707 L52.758,53.828 L50.636,55.95 C50.246,56.34 50.246,56.973 50.636,57.364 C50.832,57.559 51.087,57.657 51.343,57.657 C51.599,57.657 51.855,57.559 52.05,57.364 L54.172,55.242 L56.293,57.364 C56.488,57.559 56.744,57.657 57,57.657 C57.256,57.657 57.512,57.559 57.707,57.364 C58.098,56.973 58.098,56.34 57.707,55.95 L55.586,53.828" id="Fill-322" fill="#F0CE49" sketch:type="MSShapeGroup"></path>
            <path d="M17.784,7.885 L12.941,3.042 C10.219,0.319 5.764,0.319 3.042,3.042 C0.319,5.764 0.319,10.219 3.042,12.941 L7.885,17.784 L17.784,7.885" id="Fill-2489" fill="#DD342E" sketch:type="MSShapeGroup"></path>
            <path d="M49,40 L49,40 C52.85,40 56,36.85 56,33 L56,19 C56,15.15 52.85,12 49,12 C45.15,12 42,15.15 42,19 L42,33 C42,36.85 45.15,40 49,40" id="Fill-2490" fill="#E8EDEE" sketch:type="MSShapeGroup"></path>
            <path d="M56,25.849 L56,19 C56,15.15 52.85,12 49,12 C45.15,12 42,15.15 42,19 L42,25.849 L56,25.849" id="Fill-2491" fill="#DD342E" sketch:type="MSShapeGroup"></path>
            <path d="M26.728,52.172 L31.841,47.059 C34.563,44.336 34.563,39.882 31.841,37.159 C29.118,34.437 24.664,34.437 21.941,37.159 L16.828,42.272 L26.728,52.172" id="Fill-2492" fill="#E8EDEE" sketch:type="MSShapeGroup"></path>
            <path d="M16.912,42.188 L12.042,47.059 C9.319,49.781 9.319,54.236 12.042,56.958 C14.764,59.681 19.219,59.681 21.941,56.958 L26.812,52.088 L16.912,42.188" id="Fill-2493" fill="#DD342E" sketch:type="MSShapeGroup"></path>
            <path d="M8,4 L21.5,17.5 M53,17.704 L53,32 M29.109,43 L19,53.109" id="Stroke-2494" stroke="#FFFFFF" stroke-width="2" stroke-linecap="round" sketch:type="MSShapeGroup"></path>
        </g>
    </g>
</svg>