<?xml version="1.0" encoding="UTF-8" standalone="no"?>
<svg width="58px" height="55px" viewBox="0 0 58 55" version="1.1" xmlns="http://www.w3.org/2000/svg" xmlns:xlink="http://www.w3.org/1999/xlink" xmlns:sketch="http://www.bohemiancoding.com/sketch/ns">
    <!-- Generator: Sketch 3.2.2 (9983) - http://www.bohemiancoding.com/sketch -->
    <title>111 - Crutches (Flat)</title>
    <desc>Created with Sketch.</desc>
    <defs></defs>
    <g id="Page-1" stroke="none" stroke-width="1" fill="none" fill-rule="evenodd" sketch:type="MSPage">
        <g id="111---Crutches-(Flat)" sketch:type="MSLayerGroup" transform="translate(-1.000000, 0.000000)">
            <path d="M29.519,29.555 L29.519,29.555 L31.73,27.343 L35.808,31.421 L52.726,14.504 L44.528,6.305 L29.66,21.173 L31.946,23.459 C33.258,24.771 32.707,26.367 31.395,27.679 L29.519,29.555 L29.519,29.555 Z" id="Stroke-277" stroke="#6B5B4B" stroke-width="2" sketch:type="MSShapeGroup"></path>
            <path d="M36.173,32.466 L32.754,35.885 C32.566,36.072 32.261,36.072 32.074,35.885 L27.631,31.442 L31.73,27.343 L36.173,31.785 C36.36,31.973 36.36,32.278 36.173,32.466" id="Fill-837" fill="#4F2E1D" sketch:type="MSShapeGroup"></path>
            <path d="M52.226,49.205 L49.493,51.937 L33.097,35.541 L35.829,32.809 L52.226,49.205" id="Fill-838" fill="#BE6E41" sketch:type="MSShapeGroup"></path>
            <path d="M54.422,53.841 L54.129,54.134 C52.89,55.372 50.792,54.968 50.102,53.358 L49.493,51.937 L52.226,49.205 L53.646,49.814 C55.256,50.504 55.66,52.602 54.422,53.841" id="Fill-839" fill="#6C3429" sketch:type="MSShapeGroup"></path>
            <path d="M42.305,24.339 L34.552,16.586 L36.937,14.2 L44.69,21.953 L42.305,24.339 L42.305,24.339 Z" id="Stroke-840" stroke="#6B5B4B" stroke-width="2" sketch:type="MSShapeGroup"></path>
            <path d="M9.686,52.078 L6.953,49.345 L23.349,32.949 L26.082,35.682 L9.686,52.078" id="Fill-841" fill="#BE6E41" sketch:type="MSShapeGroup"></path>
            <path d="M5.05,54.274 L4.757,53.981 C3.518,52.742 3.922,50.644 5.532,49.954 L6.953,49.345 L9.686,52.078 L9.077,53.499 C8.387,55.109 6.289,55.513 5.05,54.274" id="Fill-842" fill="#6C3429" sketch:type="MSShapeGroup"></path>
            <path d="M27.967,31.106 C26.655,32.418 25.06,32.969 23.748,31.658 L23.511,31.421 L22.666,32.266 L26.352,35.952 C26.58,36.18 26.95,36.18 27.178,35.952 L29.66,33.47 L27.631,31.442 L27.967,31.106" id="Fill-843" fill="#4F2E1D" sketch:type="MSShapeGroup"></path>
            <path d="M6.453,14.363 L23.748,31.658 C25.06,32.97 26.655,32.418 27.967,31.106 L31.395,27.679 C32.707,26.367 33.258,24.772 31.946,23.46 L14.651,6.165 L6.453,14.363 L6.453,14.363 Z M24.486,16.586 L16.734,24.339 L14.348,21.953 L22.101,14.2 L24.486,16.586 L24.486,16.586 Z" id="Stroke-2392" stroke="#6B5B4B" stroke-width="2" sketch:type="MSShapeGroup"></path>
            <path d="M14.487,6.306 L6.454,14.34 C5.543,15.25 4.067,15.25 3.156,14.34 L1.683,12.866 C0.772,11.956 0.772,10.479 1.683,9.569 L9.716,1.535 C10.627,0.625 12.103,0.625 13.014,1.535 L14.487,3.009 C15.398,3.919 15.398,5.396 14.487,6.306" id="Fill-2393" fill="#4F2E1D" sketch:type="MSShapeGroup"></path>
            <path d="M52.584,14.34 L44.551,6.306 C43.64,5.396 43.64,3.919 44.551,3.009 L46.024,1.535 C46.935,0.625 48.411,0.625 49.322,1.535 L57.355,9.569 C58.266,10.479 58.266,11.956 57.355,12.866 L55.882,14.34 C54.971,15.25 53.495,15.25 52.584,14.34" id="Fill-2394" fill="#4F2E1D" sketch:type="MSShapeGroup"></path>
        </g>
    </g>
</svg>