<?xml version="1.0" encoding="UTF-8" standalone="no"?>
<svg width="58px" height="58px" viewBox="0 0 58 58" version="1.1" xmlns="http://www.w3.org/2000/svg" xmlns:xlink="http://www.w3.org/1999/xlink" xmlns:sketch="http://www.bohemiancoding.com/sketch/ns">
    <!-- Generator: Sketch 3.2.2 (9983) - http://www.bohemiancoding.com/sketch -->
    <title>9 - Dental Anesthesia (Flat)</title>
    <desc>Created with Sketch.</desc>
    <defs></defs>
    <g id="Page-1" stroke="none" stroke-width="1" fill="none" fill-rule="evenodd" sketch:type="MSPage">
        <g id="9---Dental-Anesthesia-(Flat)" sketch:type="MSLayerGroup">
            <path d="M29,0 C16.91,0 6.568,7.407 2.215,17.923 C2.472,17.801 2.739,17.689 3.019,17.592 C5.612,16.692 9.165,17.522 11.762,18.272 C13.254,18.702 12.979,18.562 14.465,18.057 C14.58,18.018 14.692,17.966 14.809,17.919 C17.99,16.63 21.824,16.62 24.624,18.383 C26.514,19.573 28.178,21.275 28.724,23.298 C29.795,27.261 29.171,31.719 28.228,36.002 C28.228,36.001 28.228,36 28.229,36 L28.287,36 C28.287,41.869 31.891,46.888 37.008,51.152 C37.661,51.696 38.306,52.251 38.888,52.87 C39.688,53.72 40.398,54.557 41.039,55.382 C51.044,50.808 58,40.72 58,29 C58,12.984 45.016,0 29,0" id="Fill-34" fill="#3E465B" sketch:type="MSShapeGroup"></path>
            <path d="M28.724,23.298 C28.178,21.275 26.514,19.573 24.624,18.383 C21.824,16.62 17.99,16.63 14.809,17.919 C14.692,17.966 14.58,18.018 14.465,18.057 C12.979,18.562 13.254,18.702 11.762,18.272 C9.165,17.522 5.612,16.692 3.019,17.592 C2.731,17.692 2.456,17.807 2.192,17.933 C0.782,21.344 0,25.08 0,29 C0,36.18 2.615,42.746 6.937,47.81 C7.659,45.787 8.265,43.74 9.523,41.938 C11.007,39.813 13.383,38.286 15.944,39.78 C18.515,41.279 18.787,44.535 19.623,47.055 C20.302,49.106 22.026,53.953 24.19,50.241 C25.557,47.895 26.055,45.231 26.65,42.629 C28.021,36.641 30.368,29.384 28.724,23.298" id="Fill-1792" fill="#E8EDEE" sketch:type="MSShapeGroup"></path>
            <path d="M41.039,55.382 C40.398,54.557 39.688,53.72 38.888,52.87 C38.306,52.251 37.661,51.696 37.008,51.152 C31.891,46.888 28.287,41.869 28.287,36 L28.229,36 C27.724,38.294 27.129,40.539 26.65,42.629 C26.055,45.231 25.557,47.895 24.19,50.241 C22.026,53.953 20.302,49.106 19.623,47.055 C18.787,44.535 18.515,41.279 15.944,39.78 C13.383,38.286 11.007,39.813 9.523,41.938 C8.265,43.74 7.659,45.787 6.937,47.81 C12.256,54.043 20.164,58 29,58 C33.297,58 37.371,57.058 41.039,55.382" id="Fill-1793" fill="#ED9893" sketch:type="MSShapeGroup"></path>
            <path d="M36.416,44.584 L29,52" id="Stroke-2130" stroke="#FFFFFF" stroke-width="2" stroke-linecap="round" sketch:type="MSShapeGroup"></path>
            <path d="M56.061,18.575 L53.053,21.583 C53.059,21.588 53.066,21.589 53.072,21.595 L55.072,23.595 C55.462,23.985 55.462,24.618 55.072,25.009 C54.876,25.204 54.621,25.302 54.365,25.302 C54.109,25.302 53.853,25.204 53.658,25.009 L51.658,23.009 C51.652,23.003 51.651,22.996 51.646,22.99 L50.053,24.583 C50.059,24.588 50.066,24.589 50.072,24.595 L53.072,27.595 C53.462,27.985 53.462,28.618 53.072,29.009 C52.876,29.204 52.621,29.302 52.365,29.302 C52.109,29.302 51.853,29.204 51.658,29.009 L48.658,26.009 C48.652,26.003 48.651,25.996 48.646,25.99 L47.053,27.583 C47.059,27.588 47.066,27.589 47.072,27.595 L49.072,29.595 C49.462,29.985 49.462,30.618 49.072,31.009 C48.876,31.204 48.621,31.302 48.365,31.302 C48.109,31.302 47.853,31.204 47.658,31.009 L45.658,29.009 C45.652,29.003 45.651,28.996 45.646,28.99 L44.053,30.583 C44.059,30.588 44.066,30.589 44.072,30.595 L47.072,33.595 C47.462,33.985 47.462,34.618 47.072,35.009 C46.876,35.204 46.621,35.302 46.365,35.302 C46.109,35.302 45.853,35.204 45.658,35.009 L42.658,32.009 C42.652,32.003 42.651,31.996 42.646,31.99 L38.841,35.795 C38.153,36.483 38.153,37.6 38.841,38.289 L42.711,42.159 C43.4,42.847 44.517,42.847 45.205,42.159 L57.99,29.373 C57.992,29.249 58,29.125 58,29 C58,25.324 57.309,21.811 56.061,18.575" id="Fill-2728" fill="#A2C9ED" sketch:type="MSShapeGroup"></path>
            <path d="M45.658,35.009 C45.853,35.204 46.109,35.302 46.365,35.302 C46.621,35.302 46.876,35.204 47.072,35.009 C47.462,34.618 47.462,33.985 47.072,33.595 L44.072,30.595 C44.066,30.589 44.059,30.588 44.053,30.583 L42.646,31.99 C42.651,31.996 42.652,32.003 42.658,32.009 L45.658,35.009" id="Fill-2729" fill="#7FABDA" sketch:type="MSShapeGroup"></path>
            <path d="M47.658,31.009 C47.853,31.204 48.109,31.302 48.365,31.302 C48.621,31.302 48.876,31.204 49.072,31.009 C49.462,30.618 49.462,29.985 49.072,29.595 L47.072,27.595 C47.066,27.589 47.059,27.588 47.053,27.583 L45.646,28.99 C45.651,28.996 45.652,29.003 45.658,29.009 L47.658,31.009" id="Fill-2730" fill="#7FABDA" sketch:type="MSShapeGroup"></path>
            <path d="M51.658,29.009 C51.853,29.204 52.109,29.302 52.365,29.302 C52.621,29.302 52.876,29.204 53.072,29.009 C53.462,28.618 53.462,27.985 53.072,27.595 L50.072,24.595 C50.066,24.589 50.059,24.588 50.053,24.583 L48.646,25.99 C48.651,25.996 48.652,26.003 48.658,26.009 L51.658,29.009" id="Fill-2731" fill="#7FABDA" sketch:type="MSShapeGroup"></path>
            <path d="M53.658,25.009 C53.853,25.204 54.109,25.302 54.365,25.302 C54.621,25.302 54.876,25.204 55.072,25.009 C55.462,24.618 55.462,23.985 55.072,23.595 L53.072,21.595 C53.066,21.589 53.059,21.588 53.053,21.583 L51.646,22.99 C51.651,22.996 51.652,23.003 51.658,23.009 L53.658,25.009" id="Fill-2732" fill="#7FABDA" sketch:type="MSShapeGroup"></path>
            <path d="M42.711,42.159 L38.841,38.289 C38.724,38.171 38.634,38.039 38.557,37.901 L36.144,42.064 C35.743,42.865 35.9,43.833 36.534,44.466 C37.167,45.1 38.135,45.257 38.936,44.856 L43.159,42.474 C42.999,42.393 42.845,42.293 42.711,42.159" id="Fill-2733" fill="#F0CE49" sketch:type="MSShapeGroup"></path>
        </g>
    </g>
</svg>