<?xml version="1.0" encoding="UTF-8" standalone="no"?>
<svg width="58px" height="58px" viewBox="0 0 58 58" version="1.1" xmlns="http://www.w3.org/2000/svg" xmlns:xlink="http://www.w3.org/1999/xlink" xmlns:sketch="http://www.bohemiancoding.com/sketch/ns">
    <!-- Generator: Sketch 3.2.2 (9983) - http://www.bohemiancoding.com/sketch -->
    <title>7 - Dental Anatomy (Flat)</title>
    <desc>Created with Sketch.</desc>
    <defs></defs>
    <g id="Page-1" stroke="none" stroke-width="1" fill="none" fill-rule="evenodd" sketch:type="MSPage">
        <g id="7---Dental-Anatomy-(Flat)" sketch:type="MSLayerGroup">
            <path d="M4.947,19.031 C4.896,18.691 4.859,18.345 4.824,18 L3.769,18 C1.687,18 0,19.687 0,21.769 L0,54.231 C0,56.313 1.687,58 3.769,58 L54.231,58 C56.313,58 58,56.313 58,54.231 L58,21.769 C58,19.687 56.313,18 54.231,18 L53.98,18" id="Fill-253" fill="#ED9893" sketch:type="MSShapeGroup"></path>
            <path d="M53.133,9.909 C52.291,6.726 49.727,4.048 46.816,2.176 C42.502,-0.598 36.595,-0.582 31.694,1.445 C31.514,1.52 31.342,1.602 31.165,1.663 C28.875,2.457 29.299,2.678 27,2.001 C23,0.821 17.526,-0.484 13.53,0.932 C6.177,3.537 3.882,11.952 4.947,19.031 C6.461,29.092 7.665,39.819 11.586,49.285 C12.251,50.892 13.466,54.071 15.196,54.532 C12.929,47.688 11.813,40.137 10.744,32.791 C10.56,31.528 10.378,30.273 10.19,29.028 C9.45,24.108 10.796,18.054 15.499,16.387 C16.118,16.168 16.922,16.057 17.893,16.057 C20.55,16.057 23.727,16.902 25.886,17.538 C27.091,17.894 28.029,18.146 29.121,18.146 C30.446,18.146 31.415,17.769 32.194,17.467 C32.432,17.374 32.723,17.261 33.102,17.129 C33.342,17.046 33.57,16.952 33.8,16.853 L33.897,16.81 C35.59,16.11 37.416,16 39.184,16 C41.199,16 43.006,16.22 44.411,17.123 C46.644,18.56 47.572,21.383 48,23 C49.351,28.108 46.447,39.452 45,45.464 C44.629,47.003 44.327,48.51 44,49.969 L43.521,52.379 C43.425,52.863 43.223,53.32 42.927,53.714 C42.831,53.843 42.715,53.879 42.589,53.855 C42.59,53.901 42.594,53.947 42.594,53.993 C42.595,54.003 42.596,54.014 42.596,54.024 C43.638,54.799 44.84,54.587 46.147,52.297 C48.253,48.606 49.02,44.414 49.938,40.32 C52.049,30.899 55.666,19.483 53.133,9.909" id="Fill-1749" fill="#E8EDEE" sketch:type="MSShapeGroup"></path>
            <path d="M48,23 C47.572,21.383 46.644,18.56 44.411,17.123 C43.006,16.22 41.199,16 39.184,16 C37.416,16 35.59,16.11 33.897,16.81 L33.8,16.853 C33.57,16.952 33.342,17.046 33.102,17.129 C32.723,17.261 32.432,17.374 32.194,17.467 C31.415,17.769 30.446,18.146 29.121,18.146 C28.029,18.146 27.091,17.894 25.886,17.538 C23.727,16.902 20.55,16.057 17.893,16.057 C16.922,16.057 16.118,16.168 15.499,16.387 C10.796,18.054 9.45,24.108 10.19,29.028 C10.378,30.273 10.56,31.528 10.744,32.791 C11.813,40.138 12.929,47.688 15.196,54.533 C15.299,54.581 15.357,54.609 15.459,54.658 C17.418,53.912 18.19,52.119 18.889,50.328 C18.908,50.278 18.925,50.228 18.944,50.179 C17.784,46.409 17.131,42.37 16.504,38.425 C16.38,37.641 16.256,36.862 16.129,36.088 C15.627,33.034 16.54,29.275 19.728,28.24 C20.148,28.104 20.693,28.035 21.351,28.035 C23.153,28.035 25.307,28.56 26.771,28.955 C27.587,29.176 28.223,29.332 28.963,29.332 C29.862,29.332 30.519,29.098 31.047,28.911 C31.208,28.853 31.406,28.783 31.663,28.701 C31.825,28.649 31.98,28.591 32.136,28.529 L32.202,28.503 C33.349,28.068 34.587,28 35.786,28 C37.152,28 38.377,28.136 39.33,28.697 C40.844,29.589 41.473,31.342 41.763,32.346 C42.679,35.517 40.71,42.56 39.729,46.292 C39.584,46.843 39.456,47.383 39.33,47.918 C40.17,50.262 42.126,54.784 42.927,53.714 C43.223,53.32 43.425,52.863 43.521,52.379 L44,49.969 C44.327,48.51 44.629,47.003 45,45.464 C46.447,39.452 49.351,28.108 48,23" id="Fill-1794" fill="#E0D7B1" sketch:type="MSShapeGroup"></path>
            <path d="M39.33,28.697 C38.377,28.136 37.152,28 35.786,28 C34.587,28 33.349,28.068 32.202,28.503 L32.136,28.529 C31.98,28.591 31.825,28.649 31.663,28.701 C31.406,28.783 31.208,28.853 31.047,28.911 C30.519,29.098 29.862,29.332 28.963,29.332 C28.223,29.332 27.587,29.176 26.771,28.955 C25.307,28.56 23.153,28.035 21.351,28.035 C20.693,28.035 20.148,28.104 19.728,28.24 C16.54,29.275 15.627,33.034 16.129,36.088 C16.256,36.862 16.38,37.641 16.504,38.425 C17.131,42.37 17.784,46.409 18.944,50.179 C20.378,46.456 21.265,42.578 23.551,39.234 C25.837,35.891 29.497,33.488 33.444,35.839 C37.405,38.197 37.823,43.319 39.111,47.285 C39.17,47.467 39.246,47.686 39.33,47.918 C39.456,47.383 39.584,46.843 39.729,46.292 C40.71,42.56 42.679,35.517 41.763,32.346 C41.473,31.342 40.844,29.589 39.33,28.697" id="Fill-2734" fill="#BCB28A" sketch:type="MSShapeGroup"></path>
            <path d="M21,36 C21,36.552 20.552,37 20,37 C19.448,37 19,36.552 19,36 C19,35.448 19.448,35 20,35 C20.552,35 21,35.448 21,36" id="Fill-2735" fill="#FFFFFF" sketch:type="MSShapeGroup"></path>
            <path d="M25,32 C25,32.552 24.552,33 24,33 C23.448,33 23,32.552 23,32 C23,31.448 23.448,31 24,31 C24.552,31 25,31.448 25,32" id="Fill-2736" fill="#FFFFFF" sketch:type="MSShapeGroup"></path>
            <path d="M38,32 C38,32.552 37.552,33 37,33 C36.448,33 36,32.552 36,32 C36,31.448 36.448,31 37,31 C37.552,31 38,31.448 38,32" id="Fill-2737" fill="#FFFFFF" sketch:type="MSShapeGroup"></path>
            <path d="M52,48 C51.448,48 51,48.448 51,49 C51,49.552 51.448,50 52,50 C52.552,50 53,49.552 53,49 C53,48.448 52.552,48 52,48" id="Fill-2738" fill="#AF6868" sketch:type="MSShapeGroup"></path>
            <path d="M55,38 C54.448,38 54,38.448 54,39 C54,39.552 54.448,40 55,40 C55.552,40 56,39.552 56,39 C56,38.448 55.552,38 55,38" id="Fill-2739" fill="#AF6868" sketch:type="MSShapeGroup"></path>
            <path d="M34,42 C33.448,42 33,42.448 33,43 C33,43.552 33.448,44 34,44 C34.552,44 35,43.552 35,43 C35,42.448 34.552,42 34,42" id="Fill-2740" fill="#AF6868" sketch:type="MSShapeGroup"></path>
            <path d="M37,53 C36.448,53 36,53.448 36,54 C36,54.552 36.448,55 37,55 C37.552,55 38,54.552 38,54 C38,53.448 37.552,53 37,53" id="Fill-2741" fill="#AF6868" sketch:type="MSShapeGroup"></path>
            <path d="M5,50 C4.448,50 4,50.448 4,51 C4,51.552 4.448,52 5,52 C5.552,52 6,51.552 6,51 C6,50.448 5.552,50 5,50" id="Fill-2742" fill="#AF6868" sketch:type="MSShapeGroup"></path>
            <path d="M3,34 C2.448,34 2,34.448 2,35 C2,35.552 2.448,36 3,36 C3.552,36 4,35.552 4,35 C4,34.448 3.552,34 3,34" id="Fill-2743" fill="#AF6868" sketch:type="MSShapeGroup"></path>
            <path d="M26.5,48 C24.567,48 23,49.567 23,51.5 C23,53.433 24.567,55 26.5,55 C28.433,55 30,53.433 30,51.5 C30,49.567 28.433,48 26.5,48" id="Fill-2744" fill="#AF6868" sketch:type="MSShapeGroup"></path>
        </g>
    </g>
</svg>