<?xml version="1.0" encoding="UTF-8" standalone="no"?>
<svg width="50px" height="58px" viewBox="0 0 50 58" version="1.1" xmlns="http://www.w3.org/2000/svg" xmlns:xlink="http://www.w3.org/1999/xlink" xmlns:sketch="http://www.bohemiancoding.com/sketch/ns">
    <!-- Generator: Sketch 3.2.2 (9983) - http://www.bohemiancoding.com/sketch -->
    <title>33 - Dental Implant (Flat)</title>
    <desc>Created with Sketch.</desc>
    <defs></defs>
    <g id="Page-1" stroke="none" stroke-width="1" fill="none" fill-rule="evenodd" sketch:type="MSPage">
        <g id="33---Dental-Implant-(Flat)" sketch:type="MSLayerGroup">
            <path d="M26,33 C22.755,33 19.614,33.128 16.625,33.428 L22,58 L30,58 L35.38,33.405 C32.388,33.116 29.247,33 26,33" id="Fill-260" fill="#C7CBC7" sketch:type="MSShapeGroup"></path>
            <path d="M2.884,31.738 C3.288,34.073 5.625,35.601 7.911,34.975 C13.226,33.519 19.404,33 26,33 C32.153,33 37.942,33.398 43.007,34.655 C45.228,35.207 47.474,33.881 47.982,31.65 C49.637,24.387 50.926,16.687 49.133,9.909 C48.291,6.726 45.727,4.048 42.816,2.176 C38.502,-0.598 32.595,-0.582 27.694,1.445 C27.514,1.52 27.341,1.602 27.165,1.663 C24.875,2.457 25.298,2.678 23,2.001 C19,0.821 13.526,-0.484 9.53,0.932 C2.177,3.537 -0.119,11.952 0.946,19.031 C1.574,23.198 2.148,27.479 2.884,31.738" id="Fill-1643" fill="#E8EDEE" sketch:type="MSShapeGroup"></path>
            <path d="M36.821,37.017 L14.821,41.017 C14.277,41.115 13.917,41.636 14.017,42.179 C14.104,42.662 14.524,43 14.999,43 C15.059,43 15.118,42.995 15.179,42.983 L37.179,38.983 C37.723,38.885 38.083,38.364 37.983,37.821 C37.886,37.277 37.365,36.908 36.821,37.017" id="Fill-1644" fill="#B0B6BB" sketch:type="MSShapeGroup"></path>
            <path d="M35.804,43.02 L15.804,47.02 C15.263,47.128 14.911,47.654 15.019,48.196 C15.114,48.672 15.532,49 15.999,49 C16.063,49 16.13,48.994 16.196,48.98 L36.196,44.98 C36.737,44.872 37.089,44.346 36.981,43.804 C36.873,43.262 36.352,42.908 35.804,43.02" id="Fill-1645" fill="#B0B6BB" sketch:type="MSShapeGroup"></path>
            <path d="M34.826,50.016 L17.826,53.016 C17.282,53.111 16.919,53.63 17.016,54.174 C17.101,54.659 17.523,55 17.999,55 C18.057,55 18.115,54.995 18.174,54.984 L35.174,51.984 C35.718,51.889 36.081,51.37 35.984,50.826 C35.889,50.282 35.368,49.911 34.826,50.016" id="Fill-1646" fill="#B0B6BB" sketch:type="MSShapeGroup"></path>
            <path d="M49.133,9.909 C48.291,6.726 45.727,4.048 42.816,2.176 C38.502,-0.598 32.595,-0.582 27.694,1.445 C27.514,1.52 27.341,1.602 27.165,1.663 C24.875,2.457 25.298,2.678 23,2.001 C19,0.821 13.526,-0.484 9.53,0.932 C2.177,3.537 4.558,10.684 9.831,8.816 C13.826,7.4 19.3,8.705 23.3,9.885 C25.599,10.563 25.175,10.341 27.465,9.547 C27.642,9.486 27.814,9.404 27.994,9.329 C32.895,7.302 38.802,7.286 43.116,10.06 C46.028,11.932 49.975,13.093 49.133,9.909" id="Fill-2665" fill="#F0F7F8" sketch:type="MSShapeGroup"></path>
            <path d="M17.602,4.715 C17.046,4.062 16.263,3.919 15.437,4.038 C13.718,4.285 12.009,4.665 10.301,4.985 C8.217,5.375 6.679,6.791 7.944,8.971 C9.072,10.916 12.141,10.788 14.102,10.209 C14.338,10.223 14.586,10.162 14.813,9.985 C15.988,9.069 19.095,6.467 17.602,4.715" id="Fill-2666" fill="#FFFFFF" sketch:type="MSShapeGroup"></path>
            <path d="M37.967,3 L38.842,3 C40.132,3 40.132,1 38.842,1 L37.967,1 C36.678,1 36.678,3 37.967,3" id="Fill-2667" fill="#FFFFFF" sketch:type="MSShapeGroup"></path>
            <path d="M28.828,17.05 C29.393,12.218 28.558,7.576 26.45,3.201 C25.891,2.04 24.17,3.061 24.727,4.217 C26.681,8.272 27.349,12.578 26.828,17.04 C26.678,18.322 28.68,18.315 28.828,17.05" id="Fill-2668" fill="#FFFFFF" sketch:type="MSShapeGroup"></path>
        </g>
    </g>
</svg>