<?xml version="1.0" encoding="UTF-8" standalone="no"?>
<svg width="60px" height="60px" viewBox="0 0 60 60" version="1.1" xmlns="http://www.w3.org/2000/svg" xmlns:xlink="http://www.w3.org/1999/xlink" xmlns:sketch="http://www.bohemiancoding.com/sketch/ns">
    <!-- Generator: Sketch 3.2.2 (9983) - http://www.bohemiancoding.com/sketch -->
    <title>139 - Dental Syringe (Flat)</title>
    <desc>Created with Sketch.</desc>
    <defs></defs>
    <g id="Page-1" stroke="none" stroke-width="1" fill="none" fill-rule="evenodd" sketch:type="MSPage">
        <g id="139---Dental-Syringe-(Flat)" sketch:type="MSLayerGroup" transform="translate(1.000000, 0.000000)">
            <path d="M11.5,47.5 L0,59" id="Path" stroke="#B0B6BB" stroke-width="2" stroke-linecap="round" sketch:type="MSShapeGroup"></path>
            <path d="M13,48.828 L10.172,46 L14.109,42.062 L16.938,44.891 L13,48.828" id="Fill-1419" fill="#ECBA16" sketch:type="MSShapeGroup"></path>
            <path d="M46.637,12.365 L46.635,12.363 C45.682,11.41 44.597,10.589 43.414,9.929 L28.958,24.385 L30.373,25.799 C30.763,26.19 30.763,26.822 30.373,27.213 C30.177,27.408 29.921,27.506 29.665,27.506 C29.41,27.506 29.154,27.408 28.958,27.213 L27.544,25.799 L26.13,27.213 L27.544,28.627 C27.935,29.018 27.935,29.651 27.544,30.042 C27.349,30.237 27.093,30.334 26.837,30.334 C26.581,30.334 26.325,30.237 26.13,30.042 L24.716,28.627 L23.301,30.042 L24.716,31.456 C25.106,31.847 25.106,32.479 24.716,32.87 C24.52,33.065 24.265,33.163 24.009,33.163 C23.753,33.163 23.497,33.065 23.302,32.87 L21.887,31.456 L20.473,32.87 L21.887,34.284 C22.278,34.675 22.278,35.308 21.887,35.698 C21.692,35.894 21.436,35.991 21.18,35.991 C20.924,35.991 20.668,35.894 20.473,35.698 L19.059,34.284 L12.695,40.648 L18.352,46.305 L49.071,15.586 C48.411,14.403 47.59,13.318 46.637,12.365" id="Fill-1420" fill="#DFF2F9" sketch:type="MSShapeGroup"></path>
            <path d="M20.473,35.698 C20.668,35.894 20.924,35.991 21.18,35.991 C21.436,35.991 21.692,35.894 21.887,35.698 C22.278,35.308 22.278,34.675 21.887,34.284 L20.473,32.87 L19.059,34.284 L20.473,35.698" id="Fill-1421" fill="#7FABDA" sketch:type="MSShapeGroup"></path>
            <path d="M24.009,33.163 C24.265,33.163 24.52,33.065 24.716,32.87 C25.106,32.479 25.106,31.847 24.716,31.456 L23.301,30.042 L21.887,31.456 L23.302,32.87 C23.497,33.065 23.753,33.163 24.009,33.163" id="Fill-1422" fill="#7FABDA" sketch:type="MSShapeGroup"></path>
            <path d="M26.13,30.042 C26.325,30.237 26.581,30.334 26.837,30.334 C27.093,30.334 27.349,30.237 27.544,30.042 C27.935,29.651 27.935,29.018 27.544,28.627 L26.13,27.213 L24.716,28.627 L26.13,30.042" id="Fill-1423" fill="#7FABDA" sketch:type="MSShapeGroup"></path>
            <path d="M28.958,27.213 C29.154,27.408 29.41,27.506 29.665,27.506 C29.921,27.506 30.177,27.408 30.373,27.213 C30.763,26.822 30.763,26.19 30.373,25.799 L28.958,24.385 L27.544,25.799 L28.958,27.213" id="Fill-1424" fill="#7FABDA" sketch:type="MSShapeGroup"></path>
            <path d="M18.352,46.305 L12.695,40.648 L15.523,37.82 L21.18,43.477 L18.352,46.305" id="Fill-2165" fill="#25B99A" sketch:type="MSShapeGroup"></path>
            <path d="M36.736,23.264 C36.48,23.264 36.225,23.166 36.029,22.971 C35.639,22.58 35.639,21.947 36.029,21.557 L48.757,8.829 C49.148,8.438 49.781,8.438 50.171,8.829 C50.562,9.219 50.562,9.852 50.171,10.243 L37.443,22.971 C37.248,23.166 36.992,23.264 36.736,23.264" id="Fill-2425" fill="#7FABDA" sketch:type="MSShapeGroup"></path>
            <path d="M38.858,25.799 L33.201,20.142 L34.615,18.728 L40.272,24.385 L38.858,25.799" id="Fill-2426" fill="#556080" sketch:type="MSShapeGroup"></path>
            <path d="M53,12 C51.397,12 49.891,11.376 48.757,10.243 C47.624,9.109 47,7.603 47,6 C47,4.397 47.624,2.891 48.757,1.757 C49.891,0.624 51.397,0 53,0 C54.603,0 56.109,0.624 57.243,1.757 C58.376,2.891 59,4.397 59,6 C59,7.603 58.376,9.109 57.243,10.243 C56.109,11.376 54.603,12 53,12 L53,12 Z M53,2 C51.932,2 50.927,2.416 50.171,3.171 C49.416,3.927 49,4.932 49,6 C49,7.068 49.416,8.073 50.171,8.829 C51.682,10.339 54.318,10.339 55.829,8.829 C56.584,8.073 57,7.068 57,6 C57,4.932 56.584,3.927 55.829,3.171 C55.073,2.416 54.068,2 53,2 L53,2 Z" id="Fill-2427" fill="#7FABDA" sketch:type="MSShapeGroup"></path>
            <path d="M50.878,23.264 C50.334,23.264 49.889,22.828 49.879,22.282 C49.751,15.152 43.848,9.249 36.718,9.121 C36.166,9.111 35.727,8.655 35.736,8.103 C35.746,7.551 36.196,7.116 36.754,7.121 C44.948,7.268 51.732,14.052 51.879,22.246 C51.889,22.798 51.449,23.253 50.897,23.264 L50.878,23.264" id="Fill-2428" fill="#D8EBEF" sketch:type="MSShapeGroup"></path>
        </g>
    </g>
</svg>