<?xml version="1.0" encoding="UTF-8" standalone="no"?>
<svg width="53px" height="59px" viewBox="0 0 53 59" version="1.1" xmlns="http://www.w3.org/2000/svg" xmlns:xlink="http://www.w3.org/1999/xlink" xmlns:sketch="http://www.bohemiancoding.com/sketch/ns">
    <!-- Generator: Sketch 3.2.2 (9983) - http://www.bohemiancoding.com/sketch -->
    <title>8 - Dental Floss (Flat)</title>
    <desc>Created with Sketch.</desc>
    <defs></defs>
    <g id="Page-1" stroke="none" stroke-width="1" fill="none" fill-rule="evenodd" sketch:type="MSPage">
        <g id="8---Dental-Floss-(Flat)" sketch:type="MSLayerGroup">
            <path d="M28,11.338 L28,8 L20,8 L20,11.338 C8.65,13.243 0,23.109 0,35 L0,48.267 C0,54.195 4.805,59 10.733,59 L37.267,59 C43.195,59 48,54.195 48,48.267 L48,35 C48,23.109 39.35,13.243 28,11.338" id="Fill-258" fill="#25AE88" sketch:type="MSShapeGroup"></path>
            <path d="M24,53 C14.626,53 7,45.374 7,36 C7,26.626 14.626,19 24,19 C33.374,19 41,26.626 41,36 C41,45.374 33.374,53 24,53 L24,53 Z" id="Fill-1918" fill="#A2C9ED" sketch:type="MSShapeGroup"></path>
            <path d="M24,53 C14.626,53 7,45.374 7,36 C7,26.626 14.626,19 24,19 C33.374,19 41,26.626 41,36 C41,45.374 33.374,53 24,53 L24,53 Z" id="Stroke-1919" stroke="#7FABDA" stroke-width="2" stroke-linecap="round" sketch:type="MSShapeGroup"></path>
            <path d="M24,22 C16.28,22 10,28.28 10,36 C10,43.72 16.28,50 24,50 C31.72,50 38,43.72 38,36 C38,28.28 31.72,22 24,22 L24,22 Z M24,48 C17.383,48 12,42.617 12,36 C12,29.383 17.383,24 24,24 C30.617,24 36,29.383 36,36 C36,42.617 30.617,48 24,48 L24,48 Z" id="Fill-1920" fill="#7FABDA" sketch:type="MSShapeGroup"></path>
            <path d="M24,26 C18.486,26 14,30.486 14,36 C14,41.514 18.486,46 24,46 C29.514,46 34,41.514 34,36 C34,30.486 29.514,26 24,26 L24,26 Z M24,44 C19.589,44 16,40.411 16,36 C16,31.589 19.589,28 24,28 C28.411,28 32,31.589 32,36 C32,40.411 28.411,44 24,44 L24,44 Z" id="Fill-1921" fill="#7FABDA" sketch:type="MSShapeGroup"></path>
            <path d="M24,30 C20.691,30 18,32.691 18,36 C18,39.309 20.691,42 24,42 C27.309,42 30,39.309 30,36 C30,32.691 27.309,30 24,30 L24,30 Z M24,40 C21.794,40 20,38.206 20,36 C20,33.794 21.794,32 24,32 C26.206,32 28,33.794 28,36 C28,38.206 26.206,40 24,40 L24,40 Z" id="Fill-1922" fill="#7FABDA" sketch:type="MSShapeGroup"></path>
            <path d="M46,17 C42.14,17 39,13.859 39,10 C39,5.589 35.411,2 31,2 L29,2 C26.794,2 25,3.794 25,6 C25,6.553 24.552,7 24,7 C23.448,7 23,6.553 23,6 C23,2.691 25.691,0 29,0 L31,0 C36.514,0 41,4.486 41,10 C41,12.757 43.243,15 46,15 C48.757,15 51,12.757 51,10 C51,9.447 51.448,9 52,9 C52.552,9 53,9.447 53,10 C53,13.859 49.86,17 46,17" id="Fill-1923" fill="#7FABDA" sketch:type="MSShapeGroup"></path>
            <path d="M18.654,20.86 C18.221,20.86 17.822,20.577 17.695,20.14 C17.54,19.609 17.845,19.055 18.375,18.9 C22.362,17.74 23,16.948 23,15 L23,6 C23,5.447 23.448,5 24,5 C24.552,5 25,5.447 25,6 L25,15 C25,18.448 23.044,19.625 18.934,20.82 C18.841,20.848 18.747,20.86 18.654,20.86" id="Fill-1924" fill="#7FABDA" sketch:type="MSShapeGroup"></path>
        </g>
    </g>
</svg>