<?xml version="1.0" encoding="UTF-8" standalone="no"?>
<svg width="53px" height="56px" viewBox="0 0 53 56" version="1.1" xmlns="http://www.w3.org/2000/svg" xmlns:xlink="http://www.w3.org/1999/xlink" xmlns:sketch="http://www.bohemiancoding.com/sketch/ns">
    <!-- Generator: Sketch 3.2.2 (9983) - http://www.bohemiancoding.com/sketch -->
    <title>133 - Dental Scaler (Flat)</title>
    <desc>Created with Sketch.</desc>
    <defs></defs>
    <g id="Page-1" stroke="none" stroke-width="1" fill="none" fill-rule="evenodd" sketch:type="MSPage">
        <g id="133---Dental-Scaler-(Flat)" sketch:type="MSLayerGroup">
            <path d="M37,20 C36.744,20 36.488,19.902 36.293,19.707 C35.902,19.316 35.902,18.684 36.293,18.293 L44.142,10.444 C43.514,9.513 43.109,8.329 43.025,7.117 C42.896,5.265 43.519,3.552 44.778,2.293 C45.71,1.361 47.154,0.827 48.743,0.827 C50.331,0.827 51.775,1.361 52.707,2.293 L53,2.586 L53,8 C53,8.552 52.553,9 52,9 C51.447,9 51,8.552 51,8 L51,3.461 C49.715,2.546 47.272,2.628 46.192,3.707 C45.111,4.789 44.958,6.083 45.021,6.978 C45.097,8.077 45.546,9.161 46.192,9.808 L46.899,10.515 L37.707,19.707 C37.512,19.902 37.256,20 37,20" id="Fill-679" fill="#B0B6BB" sketch:type="MSShapeGroup"></path>
            <path d="M1.115,49.746 L31.968,18.894 C32.515,18.347 33.305,18.12 34.058,18.294 L39,19.435 C39.986,19.662 40.337,20.886 39.622,21.601 L6.296,54.927 C4.865,56.358 2.546,56.358 1.115,54.927 C-0.315,53.496 -0.315,51.177 1.115,49.746" id="Fill-675" fill="#A485BE" sketch:type="MSShapeGroup"></path>
            <path d="M8.24,53.984 C7.859,53.984 7.496,53.767 7.329,53.398 L4.091,46.275 C3.862,45.772 4.084,45.179 4.587,44.951 C5.095,44.721 5.684,44.945 5.911,45.447 L9.149,52.57 C9.378,53.073 9.156,53.666 8.653,53.895 C8.519,53.956 8.378,53.984 8.24,53.984" id="Fill-676" fill="#556080" sketch:type="MSShapeGroup"></path>
            <path d="M12.125,50.099 C11.744,50.099 11.381,49.881 11.214,49.512 L7.977,42.389 C7.748,41.887 7.97,41.294 8.473,41.065 C8.981,40.835 9.569,41.06 9.797,41.562 L13.034,48.685 C13.263,49.188 13.041,49.78 12.538,50.009 C12.403,50.07 12.263,50.099 12.125,50.099" id="Fill-677" fill="#556080" sketch:type="MSShapeGroup"></path>
            <path d="M16.011,46.213 C15.63,46.213 15.267,45.996 15.1,45.627 L11.861,38.504 C11.633,38.001 11.854,37.408 12.357,37.18 C12.864,36.95 13.455,37.174 13.682,37.676 L16.92,44.799 C17.148,45.302 16.927,45.895 16.424,46.124 C16.289,46.185 16.148,46.213 16.011,46.213" id="Fill-678" fill="#556080" sketch:type="MSShapeGroup"></path>
        </g>
    </g>
</svg>