<?xml version="1.0" encoding="UTF-8" standalone="no"?>
<svg width="57px" height="57px" viewBox="0 0 57 57" version="1.1" xmlns="http://www.w3.org/2000/svg" xmlns:xlink="http://www.w3.org/1999/xlink" xmlns:sketch="http://www.bohemiancoding.com/sketch/ns">
    <!-- Generator: Sketch 3.2.2 (9983) - http://www.bohemiancoding.com/sketch -->
    <title>120 - Digital Thermometer (Flat)</title>
    <desc>Created with Sketch.</desc>
    <defs></defs>
    <g id="Page-1" stroke="none" stroke-width="1" fill="none" fill-rule="evenodd" sketch:type="MSPage">
        <g id="120---Digital-Thermometer-(Flat)" sketch:type="MSLayerGroup">
            <path d="M45.452,56.059 L15.197,25.804 L25.804,15.197 L56.059,45.453 C57.314,46.707 57.314,48.741 56.059,49.996 L49.996,56.059 C48.741,57.314 46.707,57.314 45.452,56.059" id="Fill-727" fill="#E6E2E3" sketch:type="MSShapeGroup"></path>
            <path d="M35.439,40.389 L27.482,32.432 C26.946,31.896 26.969,31.002 27.535,30.437 L30.437,27.535 C31.002,26.969 31.895,26.946 32.432,27.482 L40.389,35.439 C40.925,35.976 40.902,36.869 40.336,37.434 L37.434,40.336 C36.869,40.902 35.975,40.925 35.439,40.389" id="Fill-728" fill="#839098" sketch:type="MSShapeGroup"></path>
            <path d="M41.007,45.956 L41.007,45.956 C40.423,45.373 40.423,44.418 41.007,43.835 L43.835,41.007 C44.418,40.423 45.373,40.423 45.956,41.007 C46.54,41.59 46.54,42.545 45.956,43.128 L43.128,45.956 C42.544,46.54 41.59,46.54 41.007,45.956" id="Fill-729" fill="#3E465B" sketch:type="MSShapeGroup"></path>
            <path d="M56.059,45.453 L54.088,43.481 L43.481,54.088 L45.452,56.059 C46.707,57.314 48.741,57.314 49.996,56.059 L56.059,49.996 C57.314,48.741 57.314,46.707 56.059,45.453" id="Fill-730" fill="#97C3F4" sketch:type="MSShapeGroup"></path>
            <path d="M17.523,12.53 C17.072,12.385 16.579,12.416 16.11,12.574 L4.657,1.122 C3.681,0.145 2.098,0.145 1.122,1.122 C0.145,2.098 0.145,3.681 1.122,4.657 L12.574,16.11 C12.416,16.579 12.385,17.072 12.53,17.523 L15.197,25.804 L25.804,15.197 L17.523,12.53" id="Fill-731" fill="#97C3F4" sketch:type="MSShapeGroup"></path>
            <path d="M4.303,7.839 L2.889,6.425 L6.425,2.89 L7.839,4.304 L4.303,7.839" id="Fill-732" fill="#C6E3F8" sketch:type="MSShapeGroup"></path>
        </g>
    </g>
</svg>