<?xml version="1.0" encoding="UTF-8" standalone="no"?>
<svg width="60px" height="60px" viewBox="0 0 60 60" version="1.1" xmlns="http://www.w3.org/2000/svg" xmlns:xlink="http://www.w3.org/1999/xlink" xmlns:sketch="http://www.bohemiancoding.com/sketch/ns">
    <!-- Generator: Sketch 3.2.2 (9983) - http://www.bohemiancoding.com/sketch -->
    <title>94 - DNA (Flat)</title>
    <desc>Created with Sketch.</desc>
    <defs></defs>
    <g id="Page-1" stroke="none" stroke-width="1" fill="none" fill-rule="evenodd" sketch:type="MSPage">
        <g id="94---DNA-(Flat)" sketch:type="MSLayerGroup" transform="translate(-1.000000, 0.000000)">
            <path d="M2.951,56.318 C2.849,56.318 2.745,56.303 2.642,56.27 C2.321,56.165 2,56.058 1.676,55.946 C1.153,55.767 0.875,55.198 1.054,54.676 C1.233,54.153 1.801,53.877 2.324,54.054 C2.639,54.161 2.95,54.267 3.261,54.367 C3.785,54.538 4.073,55.103 3.902,55.628 C3.765,56.05 3.373,56.318 2.951,56.318" id="Fill-1322" fill="#7383BF" sketch:type="MSShapeGroup"></path>
            <path d="M18.859,58.89 C18.33,58.89 17.89,58.47 17.859,57.94 L17.859,57.89 C17.859,57.35 18.28,56.91 18.819,56.89 C19.519,56.85 20.149,56.8 20.75,56.72 C21.3,56.66 21.8,57.05 21.87,57.59 C21.939,58.14 21.55,58.64 21.01,58.71 C20.319,58.79 19.62,58.85 18.91,58.89 L18.859,58.89 L18.859,58.89 Z M14.819,58.819 L14.74,58.819 C14.069,58.77 13.38,58.7 12.68,58.609 C12.18,58.54 11.8,58.12 11.8,57.62 C11.8,57.569 11.8,57.53 11.81,57.49 C11.88,56.95 12.38,56.56 12.93,56.62 L12.939,56.67 L12.95,56.62 C13.59,56.71 14.25,56.77 14.89,56.819 C15.44,56.859 15.85,57.35 15.81,57.899 C15.769,58.42 15.34,58.819 14.819,58.819 L14.819,58.819 Z M8.81,57.92 C8.74,57.92 8.67,57.91 8.6,57.899 C7.979,57.76 7.319,57.609 6.66,57.439 L6.59,57.43 C6.33,57.359 6.12,57.19 5.979,56.96 C5.84,56.729 5.81,56.46 5.87,56.21 C6.01,55.68 6.56,55.35 7.09,55.49 C7.72,55.649 8.37,55.8 9.019,55.939 C9.28,56 9.51,56.16 9.649,56.38 C9.8,56.6 9.84,56.87 9.79,57.13 C9.689,57.59 9.28,57.92 8.81,57.92 L8.81,57.92 Z M24.83,57.84 C24.39,57.84 24.01,57.569 23.88,57.16 C23.84,57.05 23.83,56.94 23.83,56.84 C23.83,56.41 24.1,56.03 24.51,55.89 C25.12,55.69 25.72,55.46 26.28,55.189 C26.769,54.96 27.39,55.189 27.609,55.67 C27.85,56.17 27.63,56.76 27.13,57 C26.53,57.28 25.88,57.54 25.2,57.77 L25.14,57.79 C25.04,57.83 24.939,57.84 24.83,57.84 L24.83,57.84 Z M30.08,54.88 C29.79,54.88 29.519,54.76 29.34,54.55 C29.17,54.359 29.08,54.12 29.08,53.88 C29.08,53.59 29.2,53.319 29.41,53.14 C29.87,52.72 30.3,52.27 30.689,51.79 C31.019,51.37 31.68,51.3 32.09,51.64 C32.3,51.8 32.43,52.04 32.46,52.31 C32.49,52.569 32.41,52.83 32.25,53.04 C31.819,53.569 31.35,54.069 30.84,54.54 L30.75,54.63 C30.569,54.79 30.33,54.88 30.08,54.88 L30.08,54.88 Z M33.46,49.91 L33.46,49.91 C33.34,49.91 33.22,49.89 33.109,49.85 C32.72,49.7 32.47,49.34 32.46,48.92 C32.46,48.8 32.479,48.67 32.53,48.56 C32.75,47.979 32.93,47.38 33.08,46.75 C33.21,46.22 33.75,45.88 34.28,46.01 C34.819,46.13 35.149,46.67 35.03,47.21 C34.859,47.92 34.649,48.609 34.399,49.27 C34.25,49.649 33.88,49.91 33.46,49.91 L33.46,49.91 Z M34.519,43.96 L34.51,43.96 C33.96,43.96 33.53,43.52 33.519,42.979 L33.519,42.96 L33.519,42.83 L33.519,42.7 C33.519,42.16 33.5,41.59 33.46,41.02 C33.44,40.75 33.519,40.49 33.689,40.29 C33.87,40.09 34.109,39.96 34.38,39.94 C34.95,39.899 35.41,40.319 35.45,40.87 C35.5,41.49 35.519,42.1 35.519,42.7 L35.519,42.979 C35.51,43.52 35.06,43.96 34.519,43.96 L34.519,43.96 Z M33.87,37.939 C33.41,37.939 33.01,37.62 32.899,37.189 L32.89,37.149 C32.88,37.13 32.88,37.109 32.88,37.09 C32.74,36.46 32.59,35.83 32.42,35.229 C32.28,34.7 32.59,34.149 33.13,34 C33.64,33.859 34.21,34.189 34.35,34.71 C34.54,35.38 34.7,36.06 34.85,36.729 L34.859,36.79 L34.85,36.79 C34.859,36.84 34.87,36.88 34.87,36.93 C34.87,37.399 34.54,37.81 34.08,37.91 C34.01,37.93 33.939,37.939 33.87,37.939 L33.87,37.939 Z M32.149,32.12 C31.729,32.12 31.35,31.85 31.21,31.46 C31.06,31.08 30.93,30.729 30.79,30.37 C30.68,30.1 30.58,29.84 30.479,29.58 C30.38,29.33 30.39,29.06 30.5,28.819 C30.609,28.569 30.81,28.39 31.06,28.29 C31.56,28.1 32.16,28.37 32.35,28.87 C32.439,29.12 32.54,29.37 32.64,29.63 C32.79,29.979 32.93,30.359 33.08,30.77 C33.12,30.88 33.14,30.99 33.149,31.109 C33.149,31.53 32.88,31.91 32.49,32.05 C32.38,32.1 32.26,32.12 32.149,32.12 L32.149,32.12 Z M30.12,26.39 L30.12,26.39 C29.68,26.39 29.28,26.09 29.16,25.67 C28.96,24.97 28.78,24.29 28.63,23.66 C28.51,23.12 28.84,22.58 29.38,22.46 C29.91,22.33 30.46,22.67 30.58,23.2 C30.72,23.79 30.89,24.42 31.08,25.109 C31.109,25.2 31.12,25.29 31.12,25.38 C31.13,25.83 30.83,26.22 30.399,26.35 C30.31,26.38 30.22,26.39 30.12,26.39 L30.12,26.39 Z M28.899,20.44 C28.39,20.44 27.97,20.06 27.91,19.56 C27.83,18.85 27.78,18.149 27.75,17.46 C27.729,16.91 28.16,16.45 28.71,16.43 C29.26,16.37 29.729,16.84 29.75,17.39 C29.769,18 29.819,18.64 29.899,19.33 L29.899,19.43 C29.91,19.95 29.53,20.38 29.019,20.44 L28.899,20.44 L28.899,20.44 Z M28.97,14.39 C28.91,14.39 28.859,14.38 28.81,14.38 C28.33,14.3 27.97,13.87 27.97,13.39 C27.97,13.34 27.97,13.28 27.979,13.229 C28.1,12.5 28.25,11.8 28.43,11.14 C28.58,10.62 29.149,10.3 29.66,10.45 C30.2,10.6 30.51,11.149 30.359,11.68 C30.189,12.26 30.06,12.87 29.97,13.479 L29.96,13.54 C29.88,14.03 29.46,14.39 28.97,14.39 L28.97,14.39 Z M31.01,8.72 C30.819,8.72 30.64,8.66 30.479,8.56 C30.189,8.38 30.019,8.06 30.019,7.72 C30.019,7.53 30.069,7.35 30.17,7.18 C30.56,6.569 31,5.979 31.479,5.44 C31.83,5.04 32.5,5 32.899,5.35 C33.31,5.72 33.34,6.35 32.979,6.77 C32.569,7.229 32.189,7.729 31.859,8.25 C31.68,8.54 31.359,8.72 31.01,8.72 L31.01,8.72 Z M59.05,4.68 C58.95,4.68 58.84,4.67 58.74,4.63 C58.72,4.63 58.7,4.62 58.67,4.609 C58.269,4.479 57.99,4.1 57.979,3.67 C57.979,3.56 58,3.46 58.03,3.35 C58.2,2.84 58.769,2.55 59.29,2.71 C59.319,2.72 59.35,2.729 59.37,2.74 C59.62,2.819 59.819,2.99 59.939,3.229 C60.06,3.47 60.09,3.74 60,3.99 C59.87,4.41 59.49,4.68 59.05,4.68 L59.05,4.68 Z M35.35,4.55 C35,4.55 34.67,4.359 34.49,4.06 C34.399,3.91 34.35,3.74 34.35,3.56 C34.35,3.2 34.54,2.87 34.85,2.689 C35.46,2.34 36.109,2.01 36.78,1.729 C37.28,1.53 37.88,1.78 38.09,2.27 C38.3,2.78 38.06,3.37 37.55,3.58 C36.96,3.819 36.39,4.109 35.859,4.42 C35.71,4.51 35.53,4.55 35.35,4.55 L35.35,4.55 Z M55.1,3.53 C55.01,3.53 54.93,3.52 54.85,3.51 C54.149,3.33 53.519,3.19 52.92,3.06 C52.45,2.96 52.12,2.55 52.12,2.08 C52.12,2.01 52.13,1.939 52.14,1.87 C52.25,1.35 52.79,0.99 53.33,1.1 C53.979,1.24 54.66,1.399 55.34,1.569 C55.87,1.7 56.2,2.24 56.06,2.78 C55.95,3.22 55.55,3.53 55.1,3.53 L55.1,3.53 Z M41.05,2.55 C40.56,2.55 40.149,2.2 40.069,1.72 C40.06,1.66 40.05,1.6 40.05,1.54 C40.05,1.06 40.399,0.649 40.88,0.569 C41.54,0.45 42.24,0.359 42.979,0.3 C43.54,0.25 44.01,0.67 44.06,1.21 C44.1,1.76 43.689,2.25 43.14,2.29 C42.49,2.35 41.84,2.43 41.22,2.54 C41.16,2.55 41.1,2.55 41.05,2.55 L41.05,2.55 Z M49.12,2.43 C49.09,2.43 49.05,2.43 49.01,2.42 C48.35,2.35 47.69,2.29 47.05,2.25 C46.519,2.229 46.1,1.78 46.109,1.25 L46.109,1.2 C46.14,0.649 46.62,0.24 47.16,0.26 C47.81,0.29 48.51,0.35 49.24,0.43 C49.5,0.46 49.74,0.59 49.899,0.8 C50.069,1.01 50.149,1.27 50.12,1.54 C50.06,2.05 49.63,2.43 49.12,2.43 L49.12,2.43 Z" id="Fill-1323" fill="#7383BF" sketch:type="MSShapeGroup"></path>
            <path d="M60,5 C59.893,5 59.783,4.982 59.676,4.946 C59.361,4.839 59.049,4.733 58.738,4.633 C58.214,4.462 57.926,3.898 58.097,3.372 C58.268,2.848 58.827,2.56 59.357,2.73 C59.678,2.835 60,2.942 60.324,3.054 C60.847,3.233 61.125,3.802 60.946,4.324 C60.804,4.739 60.416,5 60,5" id="Fill-1324" fill="#7383BF" sketch:type="MSShapeGroup"></path>
            <path d="M6,59 C-2.491,34.213 8.722,20.846 31.716,30 C54.709,39.154 65.491,25.787 57,1" id="Stroke-1325" stroke="#D75A4A" stroke-width="2" stroke-linecap="round" sketch:type="MSShapeGroup"></path>
            <path d="M25.815,56.472 L4.788,35.445" id="Stroke-1326" stroke="#57ABC1" stroke-width="2" stroke-linecap="round" sketch:type="MSShapeGroup"></path>
            <path d="M3.211,45.182 L15.899,57.87" id="Stroke-1327" stroke="#EC7937" stroke-width="2" stroke-linecap="round" sketch:type="MSShapeGroup"></path>
            <path d="M59.859,14.888 L46.194,1.223" id="Stroke-1328" stroke="#ECBA16" stroke-width="2" stroke-linecap="round" sketch:type="MSShapeGroup"></path>
            <path d="M36.586,2.929 L58.326,24.669" id="Stroke-1329" stroke="#0F81E0" stroke-width="2" stroke-linecap="round" sketch:type="MSShapeGroup"></path>
            <path d="M53.133,30.79 L30.68,8.337" id="Stroke-1330" stroke="#659C35" stroke-width="2" stroke-linecap="round" sketch:type="MSShapeGroup"></path>
            <path d="M28.793,17.764 L43.895,32.866" id="Stroke-1331" stroke="#FC3951" stroke-width="2" stroke-linecap="round" sketch:type="MSShapeGroup"></path>
            <path d="M34.515,42.545 L19.106,27.135" id="Stroke-1332" stroke="#23A24D" stroke-width="2" stroke-linecap="round" sketch:type="MSShapeGroup"></path>
            <path d="M9.976,29.319 L32.136,51.479" id="Stroke-1333" stroke="#BF4D90" stroke-width="2" stroke-linecap="round" sketch:type="MSShapeGroup"></path>
        </g>
    </g>
</svg>