<?xml version="1.0" encoding="UTF-8" standalone="no"?>
<svg width="58px" height="58px" viewBox="0 0 58 58" version="1.1" xmlns="http://www.w3.org/2000/svg" xmlns:xlink="http://www.w3.org/1999/xlink" xmlns:sketch="http://www.bohemiancoding.com/sketch/ns">
    <!-- Generator: Sketch 3.2.2 (9983) - http://www.bohemiancoding.com/sketch -->
    <title>140 - Dropper (Flat)</title>
    <desc>Created with Sketch.</desc>
    <defs></defs>
    <g id="Page-1" stroke="none" stroke-width="1" fill="none" fill-rule="evenodd" sketch:type="MSPage">
        <g id="140---Dropper-(Flat)" sketch:type="MSLayerGroup" transform="translate(-1.000000, -1.000000)">
            <path d="M19.198,10.713 L10.713,19.198 L14.474,22.96 L22.96,14.474 L19.198,10.713" id="Fill-123" fill="#3E465B" sketch:type="MSShapeGroup"></path>
            <path d="M57.5,54.672 L54.672,51.843 L53.257,44.772 L26.01,17.525 L17.525,26.01 L22.099,30.584 C22.147,30.48 22.207,30.379 22.293,30.293 L24.293,28.293 C24.684,27.902 25.316,27.902 25.707,28.293 C26.098,28.684 26.098,29.316 25.707,29.707 L23.707,31.707 C23.621,31.793 23.52,31.853 23.415,31.901 L25.099,33.584 C25.147,33.48 25.207,33.379 25.293,33.293 L27.293,31.293 C27.684,30.902 28.316,30.902 28.707,31.293 C29.098,31.684 29.098,32.316 28.707,32.707 L26.707,34.707 C26.621,34.793 26.52,34.853 26.415,34.901 L28.099,36.584 C28.147,36.48 28.207,36.379 28.293,36.293 L30.293,34.293 C30.684,33.902 31.316,33.902 31.707,34.293 C32.098,34.684 32.098,35.316 31.707,35.707 L29.707,37.707 C29.621,37.793 29.52,37.853 29.415,37.901 L31.099,39.584 C31.147,39.48 31.207,39.379 31.293,39.293 L33.293,37.293 C33.684,36.902 34.316,36.902 34.707,37.293 C35.098,37.684 35.098,38.316 34.707,38.707 L32.707,40.707 C32.621,40.793 32.52,40.853 32.415,40.901 L44.772,53.257 L51.843,54.672 L54.672,57.5 C55.453,58.281 56.719,58.281 57.5,57.5 C58.281,56.719 58.281,55.453 57.5,54.672" id="Fill-124" fill="#DFF2F9" sketch:type="MSShapeGroup"></path>
            <path d="M25.707,29.707 C26.098,29.316 26.098,28.684 25.707,28.293 C25.316,27.902 24.684,27.902 24.293,28.293 L22.293,30.293 C22.207,30.379 22.147,30.48 22.099,30.584 L23.415,31.901 C23.52,31.853 23.621,31.793 23.707,31.707 L25.707,29.707" id="Fill-125" fill="#7FABDA" sketch:type="MSShapeGroup"></path>
            <path d="M28.707,32.707 C29.098,32.316 29.098,31.684 28.707,31.293 C28.316,30.902 27.684,30.902 27.293,31.293 L25.293,33.293 C25.207,33.379 25.147,33.48 25.099,33.584 L26.415,34.901 C26.52,34.853 26.621,34.793 26.707,34.707 L28.707,32.707" id="Fill-126" fill="#7FABDA" sketch:type="MSShapeGroup"></path>
            <path d="M31.707,35.707 C32.098,35.316 32.098,34.684 31.707,34.293 C31.316,33.902 30.684,33.902 30.293,34.293 L28.293,36.293 C28.207,36.379 28.147,36.48 28.099,36.584 L29.415,37.901 C29.52,37.853 29.621,37.793 29.707,37.707 L31.707,35.707" id="Fill-127" fill="#7FABDA" sketch:type="MSShapeGroup"></path>
            <path d="M34.707,38.707 C35.098,38.316 35.098,37.684 34.707,37.293 C34.316,36.902 33.684,36.902 33.293,37.293 L31.293,39.293 C31.207,39.379 31.147,39.48 31.099,39.584 L32.415,40.901 C32.52,40.853 32.621,40.793 32.707,40.707 L34.707,38.707" id="Fill-128" fill="#7FABDA" sketch:type="MSShapeGroup"></path>
            <path d="M44.772,53.257 L51.843,54.672 L54.672,57.5 C55.453,58.281 56.719,58.281 57.5,57.5 C58.281,56.719 58.281,55.453 57.5,54.672 L54.672,51.843 L53.257,44.772 L49.485,41 L32.515,41 L44.772,53.257" id="Fill-289" fill="#7FABDA" sketch:type="MSShapeGroup"></path>
            <path d="M42,44 C42,44.552 41.552,45 41,45 C40.448,45 40,44.552 40,44 C40,43.448 40.448,43 41,43 C41.552,43 42,43.448 42,44" id="Fill-613" fill="#C6E3F8" sketch:type="MSShapeGroup"></path>
            <path d="M48,44 C48,44.552 47.552,45 47,45 C46.448,45 46,44.552 46,44 C46,43.448 46.448,43 47,43 C47.552,43 48,43.448 48,44" id="Fill-614" fill="#C6E3F8" sketch:type="MSShapeGroup"></path>
            <path d="M45,46 C45,46.552 44.552,47 44,47 C43.448,47 43,46.552 43,46 C43,45.448 43.448,45 44,45 C44.552,45 45,45.448 45,46" id="Fill-615" fill="#C6E3F8" sketch:type="MSShapeGroup"></path>
            <path d="M48,49 C48,49.552 47.552,50 47,50 C46.448,50 46,49.552 46,49 C46,48.448 46.448,48 47,48 C47.552,48 48,48.448 48,49" id="Fill-616" fill="#C6E3F8" sketch:type="MSShapeGroup"></path>
            <path d="M51,46 C51,46.552 50.552,47 50,47 C49.448,47 49,46.552 49,46 C49,45.448 49.448,45 50,45 C50.552,45 51,45.448 51,46" id="Fill-617" fill="#C6E3F8" sketch:type="MSShapeGroup"></path>
            <path d="M54,49 C54,49.552 53.552,50 53,50 C52.448,50 52,49.552 52,49 C52,48.448 52.448,48 53,48 C53.552,48 54,48.448 54,49" id="Fill-618" fill="#C6E3F8" sketch:type="MSShapeGroup"></path>
            <path d="M51,52 C51,52.552 50.552,53 50,53 C49.448,53 49,52.552 49,52 C49,51.448 49.448,51 50,51 C50.552,51 51,51.448 51,52" id="Fill-619" fill="#C6E3F8" sketch:type="MSShapeGroup"></path>
            <path d="M19.243,10.757 L10.757,19.243 L2.757,11.243 C0.414,8.899 0.414,5.101 2.757,2.757 C5.1,0.414 8.899,0.414 11.243,2.757 L19.243,10.757" id="Fill-620" fill="#556080" sketch:type="MSShapeGroup"></path>
            <path d="M8.636,21.364 L21.364,8.636" id="Stroke-621" stroke="#556080" stroke-width="2" stroke-linecap="round" sketch:type="MSShapeGroup"></path>
            <path d="M29,14.536 L14.858,28.678 L11.322,25.142 L25.464,11 L29,14.536" id="Fill-637" fill="#384051" sketch:type="MSShapeGroup"></path>
            <path d="M17.687,25.849 L14.151,22.313 L15.565,20.899 L19.101,24.435 L17.687,25.849" id="Fill-638" fill="#272D38" sketch:type="MSShapeGroup"></path>
            <path d="M21.222,22.313 L17.687,18.778 L19.101,17.364 L22.636,20.899 L21.222,22.313" id="Fill-639" fill="#272D38" sketch:type="MSShapeGroup"></path>
            <path d="M24.757,18.778 L21.222,15.243 L22.636,13.829 L26.171,17.364 L24.757,18.778" id="Fill-640" fill="#272D38" sketch:type="MSShapeGroup"></path>
        </g>
    </g>
</svg>