<?xml version="1.0" encoding="UTF-8" standalone="no"?>
<svg width="58px" height="55px" viewBox="0 0 58 55" version="1.1" xmlns="http://www.w3.org/2000/svg" xmlns:xlink="http://www.w3.org/1999/xlink" xmlns:sketch="http://www.bohemiancoding.com/sketch/ns">
    <!-- Generator: Sketch 3.2.2 (9983) - http://www.bohemiancoding.com/sketch -->
    <title>164 - Drugs (Flat)</title>
    <desc>Created with Sketch.</desc>
    <defs></defs>
    <g id="Page-1" stroke="none" stroke-width="1" fill="none" fill-rule="evenodd" sketch:type="MSPage">
        <g id="164---Drugs-(Flat)" sketch:type="MSLayerGroup">
            <path d="M38,44 L38,9 L11,9 L11,55 L32,55 L32,44 L38,44" id="Fill-110" fill="#F87400" sketch:type="MSShapeGroup"></path>
            <path d="M17,9 L24,9 L24,55 L17,55 L17,9 Z" id="Fill-111" fill="#F98630" sketch:type="MSShapeGroup"></path>
            <path d="M32,44 L58,44 L58,55 L32,55 L32,44 Z" id="Fill-363" fill="#E8EDEE" sketch:type="MSShapeGroup"></path>
            <path d="M54,44 L56,44 L56,51 L54,51 L54,44 Z" id="Fill-364" fill="#C1C4C9" sketch:type="MSShapeGroup"></path>
            <path d="M50,44 L52,44 L52,51 L50,51 L50,44 Z" id="Fill-365" fill="#C1C4C9" sketch:type="MSShapeGroup"></path>
            <path d="M46,44 L48,44 L48,51 L46,51 L46,44 Z" id="Fill-366" fill="#C1C4C9" sketch:type="MSShapeGroup"></path>
            <path d="M42,44 L44,44 L44,51 L42,51 L42,44 Z" id="Fill-367" fill="#C1C4C9" sketch:type="MSShapeGroup"></path>
            <path d="M38,44 L40,44 L40,51 L38,51 L38,44 Z" id="Fill-368" fill="#C1C4C9" sketch:type="MSShapeGroup"></path>
            <path d="M34,44 L36,44 L36,51 L34,51 L34,44 Z" id="Fill-369" fill="#C1C4C9" sketch:type="MSShapeGroup"></path>
            <path d="M13,0 L36,0 L36,9 L13,9 L13,0 Z" id="Fill-622" fill="#C1C4C9" sketch:type="MSShapeGroup"></path>
            <path d="M38,7 L34,7 C33.447,7 33,6.552 33,6 C33,5.448 33.447,5 34,5 L38,5 C38.553,5 39,5.448 39,6 C39,6.552 38.553,7 38,7" id="Fill-623" fill="#E8EDEE" sketch:type="MSShapeGroup"></path>
            <path d="M38,4 L34,4 C33.447,4 33,3.552 33,3 C33,2.448 33.447,2 34,2 L38,2 C38.553,2 39,2.448 39,3 C39,3.552 38.553,4 38,4" id="Fill-624" fill="#E8EDEE" sketch:type="MSShapeGroup"></path>
            <path d="M15,7 L11,7 C10.447,7 10,6.552 10,6 C10,5.448 10.447,5 11,5 L15,5 C15.553,5 16,5.448 16,6 C16,6.552 15.553,7 15,7" id="Fill-625" fill="#E8EDEE" sketch:type="MSShapeGroup"></path>
            <path d="M15,4 L11,4 C10.447,4 10,3.552 10,3 C10,2.448 10.447,2 11,2 L15,2 C15.553,2 16,2.448 16,3 C16,3.552 15.553,4 15,4" id="Fill-626" fill="#E8EDEE" sketch:type="MSShapeGroup"></path>
            <path d="M19,7 L18,7 C17.447,7 17,6.552 17,6 C17,5.448 17.447,5 18,5 L19,5 C19.553,5 20,5.448 20,6 C20,6.552 19.553,7 19,7" id="Fill-627" fill="#E8EDEE" sketch:type="MSShapeGroup"></path>
            <path d="M19,4 L18,4 C17.447,4 17,3.552 17,3 C17,2.448 17.447,2 18,2 L19,2 C19.553,2 20,2.448 20,3 C20,3.552 19.553,4 19,4" id="Fill-628" fill="#E8EDEE" sketch:type="MSShapeGroup"></path>
            <path d="M23,7 L22,7 C21.447,7 21,6.552 21,6 C21,5.448 21.447,5 22,5 L23,5 C23.553,5 24,5.448 24,6 C24,6.552 23.553,7 23,7" id="Fill-629" fill="#E8EDEE" sketch:type="MSShapeGroup"></path>
            <path d="M23,4 L22,4 C21.447,4 21,3.552 21,3 C21,2.448 21.447,2 22,2 L23,2 C23.553,2 24,2.448 24,3 C24,3.552 23.553,4 23,4" id="Fill-630" fill="#E8EDEE" sketch:type="MSShapeGroup"></path>
            <path d="M27,7 L26,7 C25.447,7 25,6.552 25,6 C25,5.448 25.447,5 26,5 L27,5 C27.553,5 28,5.448 28,6 C28,6.552 27.553,7 27,7" id="Fill-631" fill="#E8EDEE" sketch:type="MSShapeGroup"></path>
            <path d="M27,4 L26,4 C25.447,4 25,3.552 25,3 C25,2.448 25.447,2 26,2 L27,2 C27.553,2 28,2.448 28,3 C28,3.552 27.553,4 27,4" id="Fill-632" fill="#E8EDEE" sketch:type="MSShapeGroup"></path>
            <path d="M31,7 L30,7 C29.447,7 29,6.552 29,6 C29,5.448 29.447,5 30,5 L31,5 C31.553,5 32,5.448 32,6 C32,6.552 31.553,7 31,7" id="Fill-633" fill="#E8EDEE" sketch:type="MSShapeGroup"></path>
            <path d="M31,4 L30,4 C29.447,4 29,3.552 29,3 C29,2.448 29.447,2 30,2 L31,2 C31.553,2 32,2.448 32,3 C32,3.552 31.553,4 31,4" id="Fill-634" fill="#E8EDEE" sketch:type="MSShapeGroup"></path>
            <path d="M34,17 L38,17 L38,44 L34,44 L34,17 Z" id="Fill-635" fill="#F3EDBF" sketch:type="MSShapeGroup"></path>
            <path d="M11,17 L23,17 L23,47 L11,47 L11,17 Z" id="Fill-636" fill="#F3EDBF" sketch:type="MSShapeGroup"></path>
            <path d="M11,29 L20,29 L20,31 L11,31 L11,29 Z" id="Fill-1992" fill="#C9BE7D" sketch:type="MSShapeGroup"></path>
            <path d="M11,33 L20,33 L20,35 L11,35 L11,33 Z" id="Fill-1993" fill="#C9BE7D" sketch:type="MSShapeGroup"></path>
            <path d="M11,21 L20,21 L20,23 L11,23 L11,21 Z" id="Fill-1994" fill="#C9BE7D" sketch:type="MSShapeGroup"></path>
            <path d="M11,25 L20,25 L20,27 L11,27 L11,25 Z" id="Fill-1995" fill="#C9BE7D" sketch:type="MSShapeGroup"></path>
            <path d="M11,37 L20,37 L20,39 L11,39 L11,37 Z" id="Fill-1996" fill="#C9BE7D" sketch:type="MSShapeGroup"></path>
            <path d="M11,41 L20,41 L20,43 L11,43 L11,41 Z" id="Fill-1997" fill="#C9BE7D" sketch:type="MSShapeGroup"></path>
            <path d="M18,55 L4,55 C1.8,55 0,53.2 0,51 C0,48.8 1.8,47 4,47 L18,47 C20.2,47 22,48.8 22,51 C22,53.2 20.2,55 18,55" id="Fill-2452" fill="#3B8DD4" sketch:type="MSShapeGroup"></path>
            <path d="M11,47 L4,47 C1.8,47 0,48.8 0,51 C0,53.2 1.8,55 4,55 L11,55 L11,47" id="Fill-2453" fill="#ECBA16" sketch:type="MSShapeGroup"></path>
        </g>
    </g>
</svg>