<?xml version="1.0" encoding="UTF-8" standalone="no"?>
<svg width="39px" height="58px" viewBox="0 0 39 58" version="1.1" xmlns="http://www.w3.org/2000/svg" xmlns:xlink="http://www.w3.org/1999/xlink" xmlns:sketch="http://www.bohemiancoding.com/sketch/ns">
    <!-- Generator: Sketch 3.2.2 (9983) - http://www.bohemiancoding.com/sketch -->
    <title>61 - Ear (Flat)</title>
    <desc>Created with Sketch.</desc>
    <defs></defs>
    <g id="Page-1" stroke="none" stroke-width="1" fill="none" fill-rule="evenodd" sketch:type="MSPage">
        <g id="61---Ear-(Flat)" sketch:type="MSLayerGroup">
            <path d="M15.564,58 C14.872,58 14.187,57.924 13.509,57.772 C10.45,57.086 6.868,51.586 4.844,48.046 C3.645,45.947 3.483,43.379 4.512,41.192 C4.685,40.824 4.852,40.562 4.998,40.495 C7.076,39.456 9.481,40.557 10.131,42.676 C11.548,47.295 13.408,43.619 15.105,44 C16.66,44.359 19.286,49.372 22.111,46.273 C27,40.91 29.998,34.014 30.78,26.333 C31.33,20.934 31.248,13.713 27.737,9.974 C25.917,8.035 23.248,7.168 19.541,7.303 C13.327,7.543 9.305,8.992 7.911,11.494 C6.335,14.322 8.09,18.643 8.898,20.069 C9.887,21.815 9.284,24.039 7.543,25.036 C5.802,26.033 3.588,25.444 2.583,23.707 C2.38,23.356 -2.354,15.021 1.518,7.995 C4.243,3.052 10.212,0.369 19.261,0.021 C25.1,-0.21 29.746,1.467 33.05,4.985 C37.377,9.594 39.053,17.025 38.031,27.072 C37.088,36.318 33.446,44.656 27.497,51.182 C23.365,55.715 19.361,58 15.564,58" id="Fill-199" fill="#FCCF9D" sketch:type="MSShapeGroup"></path>
            <path d="M7.617,40.25 C8.774,40.572 9.753,41.443 10.131,42.676 C11.548,47.295 13.408,43.619 15.105,44 C16.66,44.359 19.286,49.372 22.111,46.273 C27,40.91 29.998,34.014 30.78,26.333 C31.33,20.934 31.248,13.713 27.737,9.974 C25.917,8.035 23.248,7.168 19.541,7.304 C13.327,7.543 9.305,8.992 7.911,11.494 C6.335,14.322 8.09,18.643 8.898,20.069 C9.887,21.815 9.284,24.039 7.543,25.036 C7.074,25.305 6.571,25.45 6.066,25.496 C6.284,26.316 6.512,27.249 6.728,28.275 C3.979,28.949 2,30.807 2,33 C2,35.456 4.481,37.494 7.749,37.916 C7.737,38.693 7.688,39.472 7.617,40.25" id="Fill-200" fill="#DBA16E" sketch:type="MSShapeGroup"></path>
            <path d="M14.048,39.814 C12.369,39.814 11.386,39.199 10.919,38.794 C10.017,38.008 9.681,36.882 10.045,35.854 C10.438,34.745 11.528,34.052 12.965,34.001 C14.103,34 15,33.103 15,32 C15,30.897 14.103,30 13,30 C12.447,30 12,29.553 12,29 C12,28.447 12.447,28 13,28 C15.206,28 17,29.794 17,32 C17,34.206 15.206,36 13,36 C12.46,36.02 12.037,36.22 11.93,36.521 C11.847,36.758 11.962,37.05 12.232,37.285 C13.045,37.992 15.197,38.196 18.586,36.437 C22.087,34.619 24.081,32.132 24.057,29.612 C24.031,26.977 21.897,24.476 18.049,22.571 C17.351,22.226 16.552,22.034 15.791,21.878 C13.016,21.311 11,18.838 11,16 C11,12.691 13.691,10 17,10 C17.553,10 18,10.447 18,11 C18,11.553 17.553,12 17,12 C14.794,12 13,13.794 13,16 C13,17.893 14.343,19.54 16.192,19.919 C17.085,20.102 18.034,20.332 18.936,20.778 C23.494,23.034 26.023,26.165 26.057,29.593 C26.089,32.893 23.701,36.034 19.508,38.212 C17.182,39.42 15.392,39.814 14.048,39.814" id="Fill-1584" fill="#FCCF9D" sketch:type="MSShapeGroup"></path>
        </g>
    </g>
</svg>