<?xml version="1.0" encoding="UTF-8" standalone="no"?>
<svg width="26px" height="57px" viewBox="0 0 26 57" version="1.1" xmlns="http://www.w3.org/2000/svg" xmlns:xlink="http://www.w3.org/1999/xlink" xmlns:sketch="http://www.bohemiancoding.com/sketch/ns">
    <!-- Generator: Sketch 3.2.2 (9983) - http://www.bohemiancoding.com/sketch -->
    <title>108 - Ear Inspector (Flat)</title>
    <desc>Created with Sketch.</desc>
    <defs></defs>
    <g id="Page-1" stroke="none" stroke-width="1" fill="none" fill-rule="evenodd" sketch:type="MSPage">
        <g id="108---Ear-Inspector-(Flat)" sketch:type="MSLayerGroup" transform="translate(1.000000, 0.000000)">
            <path d="M21,6 L24,6" id="Stroke-154" stroke="#F0CE49" stroke-width="2" stroke-linecap="round" sketch:type="MSShapeGroup"></path>
            <path d="M3,0 L13,0 L13,12 L3,12 L3,0 Z" id="Fill-852" fill="#3E465B" sketch:type="MSShapeGroup"></path>
            <path d="M13,3 L17,3 L17,9 L13,9 L13,3 Z" id="Fill-853" fill="#556080" sketch:type="MSShapeGroup"></path>
            <path d="M17,4 L21,4 L21,8 L17,8 L17,4 Z" id="Fill-854" fill="#7383BF" sketch:type="MSShapeGroup"></path>
            <path d="M5,12 L11,12 L11,15 L5,15 L5,12 Z" id="Fill-855" fill="#7383BF" sketch:type="MSShapeGroup"></path>
            <path d="M2,15 L14,15 L14,19 L2,19 L2,15 Z" id="Fill-856" fill="#3E465B" sketch:type="MSShapeGroup"></path>
            <path d="M5,50 L11,50 L11,53 L5,53 L5,50 Z" id="Fill-857" fill="#7383BF" sketch:type="MSShapeGroup"></path>
            <path d="M2,53 L14,53 L14,57 L2,57 L2,53 Z" id="Fill-858" fill="#3E465B" sketch:type="MSShapeGroup"></path>
            <path d="M5,19 L11,19 L11,22 L5,22 L5,19 Z" id="Fill-859" fill="#7383BF" sketch:type="MSShapeGroup"></path>
            <path d="M2,22 L14,22 L14,50 L2,50 L2,22 Z" id="Fill-860" fill="#556080" sketch:type="MSShapeGroup"></path>
            <path d="M0,1 L3,1 L3,11 L0,11 L0,1 Z" id="Fill-2379" fill="#A2C9ED" sketch:type="MSShapeGroup"></path>
            <path d="M0,1 L0,11" id="Stroke-2380" stroke="#7FABDA" stroke-width="2" stroke-linecap="round" sketch:type="MSShapeGroup"></path>
        </g>
    </g>
</svg>