<?xml version="1.0" encoding="UTF-8" standalone="no"?>
<svg width="54px" height="56px" viewBox="0 0 54 56" version="1.1" xmlns="http://www.w3.org/2000/svg" xmlns:xlink="http://www.w3.org/1999/xlink" xmlns:sketch="http://www.bohemiancoding.com/sketch/ns">
    <!-- Generator: Sketch 3.2.2 (9983) - http://www.bohemiancoding.com/sketch -->
    <title>151 - Earbuds (Flat)</title>
    <desc>Created with Sketch.</desc>
    <defs></defs>
    <g id="Page-1" stroke="none" stroke-width="1" fill="none" fill-rule="evenodd" sketch:type="MSPage">
        <g id="151---Earbuds-(Flat)" sketch:type="MSLayerGroup">
            <path d="M2,23 L30,23 L30,55 L2,55 L2,23 Z" id="Fill-1334" fill="#A2C9ED" sketch:type="MSShapeGroup"></path>
            <path d="M4,10 L4,23 M12,10 L12,23 M20,10 L20,23 M28,10 L28,23 M8,8 L8,23 M16,8 L16,23 M24,8 L24,23" id="Stroke-1335" stroke="#3E465B" stroke-width="2" stroke-linecap="round" sketch:type="MSShapeGroup"></path>
            <path d="M14,28 L30,28 L30,50 L14,50 L14,28 Z" id="Fill-1336" fill="#D7E9F4" sketch:type="MSShapeGroup"></path>
            <path d="M21,32.083 L30,32.083 L30,34.083 L21,34.083 L21,32.083 Z" id="Fill-1337" fill="#7FABDA" sketch:type="MSShapeGroup"></path>
            <path d="M21,36.083 L30,36.083 L30,38.083 L21,38.083 L21,36.083 Z" id="Fill-1338" fill="#7FABDA" sketch:type="MSShapeGroup"></path>
            <path d="M21,40.083 L30,40.083 L30,42.083 L21,42.083 L21,40.083 Z" id="Fill-1339" fill="#7FABDA" sketch:type="MSShapeGroup"></path>
            <path d="M21,44.083 L30,44.083 L30,46.083 L21,46.083 L21,44.083 Z" id="Fill-1340" fill="#7FABDA" sketch:type="MSShapeGroup"></path>
            <path d="M2,28 L6,28 L6,50 L2,50 L2,28 Z" id="Fill-1341" fill="#D7E9F4" sketch:type="MSShapeGroup"></path>
            <path d="M0,54 L32,54 L32,56 L0,56 L0,54 Z" id="Fill-1342" fill="#7FABDA" sketch:type="MSShapeGroup"></path>
            <path d="M0,22 L32,22 L32,24 L0,24 L0,22 Z" id="Fill-1343" fill="#7FABDA" sketch:type="MSShapeGroup"></path>
            <path d="M52,50.971 L49.172,53.799 L32.201,36.828 L35.029,34 L52,50.971 L52,50.971 Z" id="Fill-1344" fill="#A2C9ED" sketch:type="MSShapeGroup"></path>
            <path d="M52,50.971 L49.172,53.799 L32.201,36.828 L35.029,34 L52,50.971 L52,50.971 Z" id="Stroke-1345" stroke="#7FABDA" stroke-width="2" sketch:type="MSShapeGroup"></path>
            <path d="M4,1 C2.343,1 1,5.01 1,6.786 C1,8.561 2.343,10 4,10 C5.657,10 7,8.561 7,6.786 C7,5.01 5.657,1 4,1" id="Fill-2481" fill="#E8EDEE" sketch:type="MSShapeGroup"></path>
            <path d="M4,11 C1.794,11 0,9.109 0,6.786 C0,4.816 1.401,0 4,0 C6.599,0 8,4.816 8,6.786 C8,9.109 6.206,11 4,11 L4,11 Z M4,2 C3.526,2 2,4.6 2,6.786 C2,8.007 2.897,9 4,9 C5.103,9 6,8.007 6,6.786 C6,4.6 4.474,2 4,2 L4,2 Z" id="Fill-2482" fill="#C7CBC7" sketch:type="MSShapeGroup"></path>
            <path d="M12,1 C10.343,1 9,5.01 9,6.786 C9,8.561 10.343,10 12,10 C13.657,10 15,8.561 15,6.786 C15,5.01 13.657,1 12,1" id="Fill-2483" fill="#E8EDEE" sketch:type="MSShapeGroup"></path>
            <path d="M12,11 C9.794,11 8,9.109 8,6.786 C8,4.816 9.401,0 12,0 C14.599,0 16,4.816 16,6.786 C16,9.109 14.206,11 12,11 L12,11 Z M12,2 C11.526,2 10,4.6 10,6.786 C10,8.007 10.897,9 12,9 C13.103,9 14,8.007 14,6.786 C14,4.6 12.474,2 12,2 L12,2 Z" id="Fill-2484" fill="#C7CBC7" sketch:type="MSShapeGroup"></path>
            <path d="M20,1 C18.343,1 17,5.01 17,6.786 C17,8.561 18.343,10 20,10 C21.657,10 23,8.561 23,6.786 C23,5.01 21.657,1 20,1" id="Fill-2485" fill="#E8EDEE" sketch:type="MSShapeGroup"></path>
            <path d="M20,11 C17.794,11 16,9.109 16,6.786 C16,4.816 17.401,0 20,0 C22.599,0 24,4.816 24,6.786 C24,9.109 22.206,11 20,11 L20,11 Z M20,2 C19.526,2 18,4.6 18,6.786 C18,8.007 18.897,9 20,9 C21.103,9 22,8.007 22,6.786 C22,4.6 20.474,2 20,2 L20,2 Z" id="Fill-2486" fill="#C7CBC7" sketch:type="MSShapeGroup"></path>
            <path d="M28,1 C26.343,1 25,5.01 25,6.786 C25,8.561 26.343,10 28,10 C29.657,10 31,8.561 31,6.786 C31,5.01 29.657,1 28,1" id="Fill-2487" fill="#E8EDEE" sketch:type="MSShapeGroup"></path>
            <path d="M28,11 C25.794,11 24,9.109 24,6.786 C24,4.816 25.401,0 28,0 C30.599,0 32,4.816 32,6.786 C32,9.109 30.206,11 28,11 L28,11 Z M28,2 C27.526,2 26,4.6 26,6.786 C26,8.007 26.897,9 28,9 C29.103,9 30,8.007 30,6.786 C30,4.6 28.474,2 28,2 L28,2 Z" id="Fill-2488" fill="#C7CBC7" sketch:type="MSShapeGroup"></path>
        </g>
    </g>
</svg>