<?xml version="1.0" encoding="UTF-8" standalone="no"?>
<svg width="59px" height="59px" viewBox="0 0 59 59" version="1.1" xmlns="http://www.w3.org/2000/svg" xmlns:xlink="http://www.w3.org/1999/xlink" xmlns:sketch="http://www.bohemiancoding.com/sketch/ns">
    <!-- Generator: Sketch 3.2.2 (9983) - http://www.bohemiancoding.com/sketch -->
    <title>121 - Electric Toothbrush (Flat)</title>
    <desc>Created with Sketch.</desc>
    <defs></defs>
    <g id="Page-1" stroke="none" stroke-width="1" fill="none" fill-rule="evenodd" sketch:type="MSPage">
        <g id="121---Electric-Toothbrush-(Flat)" sketch:type="MSLayerGroup">
            <path d="M58.091,52.686 L52.686,58.091 C51.474,59.303 49.49,59.303 48.277,58.091 L25.823,35.636 C23.684,33.497 23.684,29.997 25.823,27.858 L27.858,25.823 C29.997,23.684 33.497,23.684 35.636,25.823 L58.091,48.277 C59.303,49.49 59.303,51.474 58.091,52.686" id="Fill-723" fill="#E6E2E3" sketch:type="MSShapeGroup"></path>
            <path d="M46.729,56.542 L45.314,55.127 L55.127,45.314 L56.541,46.728 L46.729,56.542" id="Fill-724" fill="#7383BF" sketch:type="MSShapeGroup"></path>
            <path d="M34.148,32.734 C32.293,30.878 29.284,30.878 27.429,32.734 L25.24,34.922 C25.416,35.17 25.601,35.414 25.823,35.636 L42.831,52.645 L45.085,50.391 C46.941,48.535 46.941,45.526 45.085,43.671 L34.148,32.734" id="Fill-725" fill="#7383BF" sketch:type="MSShapeGroup"></path>
            <path d="M14.268,11.101 C13.536,12.578 12.303,13.761 10.786,14.421 L24.888,29.164 C25.136,28.697 25.431,28.25 25.823,27.858 L27.858,25.823 C28.25,25.431 28.697,25.136 29.164,24.888 L14.268,11.101" id="Fill-726" fill="#7383BF" sketch:type="MSShapeGroup"></path>
            <path d="M36.455,39.891 C34.701,38.137 31.857,38.137 30.103,39.891 L36.455,46.244 C38.21,44.49 38.21,41.646 36.455,39.891" id="Fill-2399" fill="#3E465B" sketch:type="MSShapeGroup"></path>
            <path d="M8,0 C3.589,0 0,3.589 0,8 C0,12.411 3.589,16 8,16 C12.411,16 16,12.411 16,8 C16,3.589 12.411,0 8,0" id="Fill-2400" fill="#B0B6BB" sketch:type="MSShapeGroup"></path>
            <path d="M7,2 C7,2.552 6.552,3 6,3 C5.448,3 5,2.552 5,2 C5,1.448 5.448,1 6,1 C6.552,1 7,1.448 7,2" id="Fill-2401" fill="#FFFFFF" sketch:type="MSShapeGroup"></path>
            <path d="M11,2 C11,2.552 10.552,3 10,3 C9.448,3 9,2.552 9,2 C9,1.448 9.448,1 10,1 C10.552,1 11,1.448 11,2" id="Fill-2402" fill="#FFFFFF" sketch:type="MSShapeGroup"></path>
            <path d="M9,4 C9,4.552 8.552,5 8,5 C7.448,5 7,4.552 7,4 C7,3.448 7.448,3 8,3 C8.552,3 9,3.448 9,4" id="Fill-2403" fill="#FFFFFF" sketch:type="MSShapeGroup"></path>
            <path d="M5,4 C5,4.552 4.552,5 4,5 C3.448,5 3,4.552 3,4 C3,3.448 3.448,3 4,3 C4.552,3 5,3.448 5,4" id="Fill-2404" fill="#FFFFFF" sketch:type="MSShapeGroup"></path>
            <path d="M7,6 C7,6.552 6.552,7 6,7 C5.448,7 5,6.552 5,6 C5,5.448 5.448,5 6,5 C6.552,5 7,5.448 7,6" id="Fill-2405" fill="#FFFFFF" sketch:type="MSShapeGroup"></path>
            <path d="M11,6 C11,6.552 10.552,7 10,7 C9.448,7 9,6.552 9,6 C9,5.448 9.448,5 10,5 C10.552,5 11,5.448 11,6" id="Fill-2406" fill="#FFFFFF" sketch:type="MSShapeGroup"></path>
            <path d="M13,4 C13,4.552 12.552,5 12,5 C11.448,5 11,4.552 11,4 C11,3.448 11.448,3 12,3 C12.552,3 13,3.448 13,4" id="Fill-2407" fill="#FFFFFF" sketch:type="MSShapeGroup"></path>
            <path d="M15,6 C15,6.552 14.552,7 14,7 C13.448,7 13,6.552 13,6 C13,5.448 13.448,5 14,5 C14.552,5 15,5.448 15,6" id="Fill-2408" fill="#FFFFFF" sketch:type="MSShapeGroup"></path>
            <path d="M13,8 C13,8.552 12.552,9 12,9 C11.448,9 11,8.552 11,8 C11,7.448 11.448,7 12,7 C12.552,7 13,7.448 13,8" id="Fill-2409" fill="#FFFFFF" sketch:type="MSShapeGroup"></path>
            <path d="M13,12 C13,12.552 12.552,13 12,13 C11.448,13 11,12.552 11,12 C11,11.448 11.448,11 12,11 C12.552,11 13,11.448 13,12" id="Fill-2410" fill="#FFFFFF" sketch:type="MSShapeGroup"></path>
            <path d="M9,12 C9,12.552 8.552,13 8,13 C7.448,13 7,12.552 7,12 C7,11.448 7.448,11 8,11 C8.552,11 9,11.448 9,12" id="Fill-2411" fill="#FFFFFF" sketch:type="MSShapeGroup"></path>
            <path d="M5,12 C5,12.552 4.552,13 4,13 C3.448,13 3,12.552 3,12 C3,11.448 3.448,11 4,11 C4.552,11 5,11.448 5,12" id="Fill-2412" fill="#FFFFFF" sketch:type="MSShapeGroup"></path>
            <path d="M7,14 C7,14.552 6.552,15 6,15 C5.448,15 5,14.552 5,14 C5,13.448 5.448,13 6,13 C6.552,13 7,13.448 7,14" id="Fill-2413" fill="#FFFFFF" sketch:type="MSShapeGroup"></path>
            <path d="M11,14 C11,14.552 10.552,15 10,15 C9.448,15 9,14.552 9,14 C9,13.448 9.448,13 10,13 C10.552,13 11,13.448 11,14" id="Fill-2414" fill="#FFFFFF" sketch:type="MSShapeGroup"></path>
            <path d="M9,8 C9,8.552 8.552,9 8,9 C7.448,9 7,8.552 7,8 C7,7.448 7.448,7 8,7 C8.552,7 9,7.448 9,8" id="Fill-2415" fill="#FFFFFF" sketch:type="MSShapeGroup"></path>
            <path d="M5,8 C5,8.552 4.552,9 4,9 C3.448,9 3,8.552 3,8 C3,7.448 3.448,7 4,7 C4.552,7 5,7.448 5,8" id="Fill-2416" fill="#FFFFFF" sketch:type="MSShapeGroup"></path>
            <path d="M3,6 C3,6.552 2.552,7 2,7 C1.448,7 1,6.552 1,6 C1,5.448 1.448,5 2,5 C2.552,5 3,5.448 3,6" id="Fill-2417" fill="#FFFFFF" sketch:type="MSShapeGroup"></path>
            <path d="M3,10 C3,10.552 2.552,11 2,11 C1.448,11 1,10.552 1,10 C1,9.448 1.448,9 2,9 C2.552,9 3,9.448 3,10" id="Fill-2418" fill="#FFFFFF" sketch:type="MSShapeGroup"></path>
            <path d="M7,10 C7,10.552 6.552,11 6,11 C5.448,11 5,10.552 5,10 C5,9.448 5.448,9 6,9 C6.552,9 7,9.448 7,10" id="Fill-2419" fill="#FFFFFF" sketch:type="MSShapeGroup"></path>
            <path d="M11,10 C11,10.552 10.552,11 10,11 C9.448,11 9,10.552 9,10 C9,9.448 9.448,9 10,9 C10.552,9 11,9.448 11,10" id="Fill-2420" fill="#FFFFFF" sketch:type="MSShapeGroup"></path>
            <path d="M15,10 C15,10.552 14.552,11 14,11 C13.448,11 13,10.552 13,10 C13,9.448 13.448,9 14,9 C14.552,9 15,9.448 15,10" id="Fill-2421" fill="#FFFFFF" sketch:type="MSShapeGroup"></path>
        </g>
    </g>
</svg>