<?xml version="1.0" encoding="UTF-8" standalone="no"?>
<svg width="58px" height="56px" viewBox="0 0 58 56" version="1.1" xmlns="http://www.w3.org/2000/svg" xmlns:xlink="http://www.w3.org/1999/xlink" xmlns:sketch="http://www.bohemiancoding.com/sketch/ns">
    <!-- Generator: Sketch 3.2.2 (9983) - http://www.bohemiancoding.com/sketch -->
    <title>115 - Electrocardiogram (Flat)</title>
    <desc>Created with Sketch.</desc>
    <defs></defs>
    <g id="Page-1" stroke="none" stroke-width="1" fill="none" fill-rule="evenodd" sketch:type="MSPage">
        <g id="115---Electrocardiogram-(Flat)" sketch:type="MSLayerGroup">
            <path d="M0,38 L58,38 L58,52 L0,52 L0,38 Z" id="Fill-281" fill="#363D4B" sketch:type="MSShapeGroup"></path>
            <path d="M0,0 L58,0 L58,38 L0,38 L0,0 Z" id="Fill-282" fill="#556080" sketch:type="MSShapeGroup"></path>
            <path d="M2,2 L56,2 L56,36 L2,36 L2,2 Z M0,38 L58,38 L58,0 L0,0 L0,38 Z" id="Fill-283" fill="#2C4055" sketch:type="MSShapeGroup"></path>
            <path d="M25,35 C24.979,35 24.958,34.999 24.937,34.998 C24.552,34.974 24.215,34.729 24.071,34.371 L18.941,21.546 L14.91,30.414 C14.748,30.771 14.393,31 14,31 L6,31 C5.447,31 5,30.553 5,30 C5,29.447 5.447,29 6,29 L13.356,29 L18.09,18.586 C18.255,18.222 18.616,18.01 19.023,18 C19.424,18.01 19.779,18.257 19.929,18.629 L25.148,31.676 L29.126,24.515 C29.3,24.201 29.627,24.006 29.985,24 C30.334,23.998 30.676,24.182 30.859,24.488 L32.548,27.325 L36.021,10.794 C36.119,10.33 36.528,10 37,10 L37.025,10 C37.508,10.013 37.912,10.367 37.987,10.844 L40.854,29 L52,29 C52.553,29 53,29.447 53,30 C53,30.553 52.553,31 52,31 L40,31 C39.508,31 39.089,30.642 39.013,30.156 L36.86,16.527 L33.978,30.244 C33.894,30.646 33.57,30.957 33.164,31.024 C32.762,31.089 32.352,30.903 32.141,30.55 L30.03,27.005 L25.874,34.485 C25.697,34.805 25.361,35 25,35" id="Fill-809" fill="#2BDA72" sketch:type="MSShapeGroup"></path>
            <path d="M36,41 L50,41 L50,49 L36,49 L36,41 Z" id="Fill-810" fill="#556080" sketch:type="MSShapeGroup"></path>
            <path d="M36,41 L41,41 L41,49 L36,49 L36,41 Z" id="Fill-811" fill="#F8E7A1" sketch:type="MSShapeGroup"></path>
            <path d="M10,45 C10,44.447 10.447,44 11,44 L14.859,44 C14.412,42.278 12.862,41 11,41 C8.791,41 7,42.791 7,45 C7,47.209 8.791,49 11,49 C12.862,49 14.412,47.722 14.859,46 L11,46 C10.447,46 10,45.553 10,45" id="Fill-812" fill="#E4C05C" sketch:type="MSShapeGroup"></path>
            <path d="M14.859,44 L11,44 C10.447,44 10,44.447 10,45 C10,45.553 10.447,46 11,46 L14.859,46 C14.942,45.679 15,45.347 15,45 C15,44.653 14.942,44.321 14.859,44" id="Fill-813" fill="#F8E7A1" sketch:type="MSShapeGroup"></path>
            <path d="M27.828,42.172 C27.305,41.648 26.669,41.316 26,41.143 L26,45 C26,45.553 25.553,46 25,46 C24.447,46 24,45.553 24,45 L24,41.143 C23.331,41.316 22.695,41.648 22.172,42.172 C20.609,43.734 20.609,46.266 22.172,47.828 C23.734,49.391 26.266,49.391 27.828,47.828 C29.391,46.266 29.391,43.734 27.828,42.172" id="Fill-814" fill="#E4C05C" sketch:type="MSShapeGroup"></path>
            <path d="M25,46 C25.553,46 26,45.553 26,45 L26,41.143 C25.343,40.973 24.657,40.973 24,41.143 L24,45 C24,45.553 24.447,46 25,46" id="Fill-815" fill="#F8E7A1" sketch:type="MSShapeGroup"></path>
            <path d="M2,52 L8,52 L8,56 L2,56 L2,52 Z" id="Fill-816" fill="#212F3E" sketch:type="MSShapeGroup"></path>
            <path d="M50,52 L56,52 L56,56 L50,56 L50,52 Z" id="Fill-817" fill="#212F3E" sketch:type="MSShapeGroup"></path>
            <path d="M12,6.45 C12.565,5.176 13.814,4 15.315,4 C17.338,4 18.794,5.646 18.978,7.607 C18.978,7.607 19.076,8.094 18.859,8.97 C18.563,10.164 17.866,11.224 16.927,12.033 L12.069,16.191 C12.029,16.225 11.971,16.225 11.931,16.191 L7.072,12.033 C6.134,11.224 5.437,10.164 5.141,8.97 C4.923,8.094 5.022,7.607 5.022,7.607 C5.206,5.646 6.662,4 8.685,4 C10.186,4 11.435,5.176 12,6.45" id="Fill-818" fill="#ED7161" sketch:type="MSShapeGroup"></path>
            <path d="M53,6 L49,6 C48.447,6 48,5.553 48,5 C48,4.447 48.447,4 49,4 L53,4 C53.553,4 54,4.447 54,5 C54,5.553 53.553,6 53,6" id="Fill-819" fill="#FFFFFF" sketch:type="MSShapeGroup"></path>
            <path d="M54,10 L46,10 C45.447,10 45,9.553 45,9 C45,8.447 45.447,8 46,8 L54,8 C54.553,8 55,8.447 55,9 C55,9.553 54.553,10 54,10" id="Fill-820" fill="#FFFFFF" sketch:type="MSShapeGroup"></path>
            <path d="M53,14 L49,14 C48.447,14 48,13.553 48,13 C48,12.447 48.447,12 49,12 L53,12 C53.553,12 54,12.447 54,13 C54,13.553 53.553,14 53,14" id="Fill-821" fill="#FFFFFF" sketch:type="MSShapeGroup"></path>
        </g>
    </g>
</svg>