<?xml version="1.0" encoding="UTF-8" standalone="no"?>
<svg width="58px" height="58px" viewBox="0 0 58 58" version="1.1" xmlns="http://www.w3.org/2000/svg" xmlns:xlink="http://www.w3.org/1999/xlink" xmlns:sketch="http://www.bohemiancoding.com/sketch/ns">
    <!-- Generator: Sketch 3.2.2 (9983) - http://www.bohemiancoding.com/sketch -->
    <title>62 - Epiderma (Flat)</title>
    <desc>Created with Sketch.</desc>
    <defs></defs>
    <g id="Page-1" stroke="none" stroke-width="1" fill="none" fill-rule="evenodd" sketch:type="MSPage">
        <g id="62---Epiderma-(Flat)" sketch:type="MSLayerGroup">
            <path d="M29,0 C12.984,0 0,12.984 0,29 C0,29.674 0.042,30.338 0.087,31 L22.513,31 C24.439,31 26,32.561 26,34.487 L26,35.001 L22.504,43.471 C21.641,45.629 21.902,48.066 23.205,49.991 C24.509,51.917 26.675,53.066 29,53.066 C31.325,53.066 33.491,51.917 34.795,49.991 C36.098,48.066 36.359,45.629 35.496,43.472 L32,34.998 L32,34.487 C32,32.561 33.561,31 35.487,31 L57.913,31 C57.958,30.338 58,29.674 58,29 C58,12.984 45.016,0 29,0" id="Fill-216" fill="#9777A8" sketch:type="MSShapeGroup"></path>
            <path d="M32,34.487 L32,34.998 L35.496,43.472 C36.359,45.629 36.098,48.066 34.795,49.991 C33.491,51.917 31.325,53.066 29,53.066 C26.675,53.066 24.509,51.917 23.205,49.991 C21.902,48.066 21.641,45.629 22.504,43.471 L26,35.001 L26,34.487 C26,32.561 24.439,31 22.513,31 L0.076,31 C1.105,46.082 13.657,58 29,58 C44.343,58 56.895,46.082 57.924,31 L35.487,31 C33.561,31 32,32.561 32,34.487" id="Fill-217" fill="#EB7F5F" sketch:type="MSShapeGroup"></path>
            <path d="M57.129,35.614 C55.543,34.028 52.972,34.028 51.386,35.614 L50.871,36.129 C49.286,37.714 46.714,37.714 45.129,36.129 C43.543,34.543 40.972,34.543 39.386,36.129 C37.8,37.714 35.229,37.714 33.643,36.129 L33.129,35.614 C32.807,35.293 33.308,38.001 33.308,38.001 L35.496,43.472 C36.359,45.629 36.098,48.066 34.795,49.991 C33.491,51.917 31.325,53.066 29,53.066 C26.675,53.066 24.509,51.917 23.205,49.991 C21.902,48.066 21.641,45.629 22.504,43.471 L25.024,37.17 C23.675,37.521 22.185,37.185 21.129,36.129 L20.629,35.629 C19.043,34.043 16.472,34.043 14.886,35.629 L14.386,36.129 C12.8,37.714 10.229,37.714 8.643,36.129 L8.129,35.614 C6.543,34.028 3.972,34.028 2.386,35.614 L1.871,36.129 C1.623,36.378 1.344,36.573 1.054,36.744 C4.443,48.999 15.667,58 29,58 C42.709,58 54.189,48.484 57.214,35.699 L57.129,35.614" id="Fill-218" fill="#FCCF9D" sketch:type="MSShapeGroup"></path>
            <path d="M45,43 C45,42.448 44.552,42 44,42 C43.448,42 43,42.448 43,43 C43,43.552 43.448,44 44,44 C44.552,44 45,43.552 45,43" id="Fill-1200" fill="#FFFFFF" sketch:type="MSShapeGroup"></path>
            <path d="M50,45 C50,44.448 49.552,44 49,44 C48.448,44 48,44.448 48,45 C48,45.552 48.448,46 49,46 C49.552,46 50,45.552 50,45" id="Fill-1201" fill="#FFFFFF" sketch:type="MSShapeGroup"></path>
            <path d="M43,48 C43,47.448 42.552,47 42,47 C41.448,47 41,47.448 41,48 C41,48.552 41.448,49 42,49 C42.552,49 43,48.552 43,48" id="Fill-1202" fill="#FFFFFF" sketch:type="MSShapeGroup"></path>
            <path d="M40,42 C40,41.448 39.552,41 39,41 C38.448,41 38,41.448 38,42 C38,42.552 38.448,43 39,43 C39.552,43 40,42.552 40,42" id="Fill-1203" fill="#FFFFFF" sketch:type="MSShapeGroup"></path>
            <path d="M39,52 C39,51.448 38.552,51 38,51 C37.448,51 37,51.448 37,52 C37,52.552 37.448,53 38,53 C38.552,53 39,52.552 39,52" id="Fill-1204" fill="#FFFFFF" sketch:type="MSShapeGroup"></path>
            <path d="M20,41 C20,40.448 19.552,40 19,40 C18.448,40 18,40.448 18,41 C18,41.552 18.448,42 19,42 C19.552,42 20,41.552 20,41" id="Fill-1205" fill="#FFFFFF" sketch:type="MSShapeGroup"></path>
            <path d="M17,49 C17,48.448 16.552,48 16,48 C15.448,48 15,48.448 15,49 C15,49.552 15.448,50 16,50 C16.552,50 17,49.552 17,49" id="Fill-1206" fill="#FFFFFF" sketch:type="MSShapeGroup"></path>
            <path d="M16,44 C16,43.448 15.552,43 15,43 C14.448,43 14,43.448 14,44 C14,44.552 14.448,45 15,45 C15.552,45 16,44.552 16,44" id="Fill-1207" fill="#FFFFFF" sketch:type="MSShapeGroup"></path>
            <path d="M10,44 C10,43.448 9.552,43 9,43 C8.448,43 8,43.448 8,44 C8,44.552 8.448,45 9,45 C9.552,45 10,44.552 10,44" id="Fill-1208" fill="#FFFFFF" sketch:type="MSShapeGroup"></path>
            <path d="M7,40 C7,39.448 6.552,39 6,39 C5.448,39 5,39.448 5,40 C5,40.552 5.448,41 6,41 C6.552,41 7,40.552 7,40" id="Fill-1209" fill="#FFFFFF" sketch:type="MSShapeGroup"></path>
            <path d="M29,38 L31.783,44.957 C32.57,46.925 31.12,49.067 29,49.067 C26.88,49.067 25.43,46.925 26.217,44.957 L29,38" id="Fill-1577" fill="#CFA58F" sketch:type="MSShapeGroup"></path>
            <path d="M32.711,44.586 L30,37.807 L30,7 C30,6.447 29.553,6 29,6 C28.447,6 28,6.447 28,7 L28,37.807 L25.289,44.585 C24.796,45.818 24.945,47.211 25.689,48.31 C26.435,49.41 27.672,50.066 29,50.066 C30.328,50.066 31.565,49.41 32.311,48.31 C33.055,47.211 33.204,45.818 32.711,44.586 L32.711,44.586 Z M30.654,47.188 C30.276,47.746 29.674,48.066 29,48.066 C28.326,48.066 27.724,47.746 27.346,47.188 C26.969,46.632 26.896,45.953 27.146,45.328 L29,40.693 L30.853,45.329 C31.104,45.953 31.031,46.632 30.654,47.188 L30.654,47.188 Z" id="Fill-1578" fill="#3F2617" sketch:type="MSShapeGroup"></path>
        </g>
    </g>
</svg>