<?xml version="1.0" encoding="UTF-8" standalone="no"?>
<svg width="58px" height="58px" viewBox="0 0 58 58" version="1.1" xmlns="http://www.w3.org/2000/svg" xmlns:xlink="http://www.w3.org/1999/xlink" xmlns:sketch="http://www.bohemiancoding.com/sketch/ns">
    <!-- Generator: Sketch 3.2.2 (9983) - http://www.bohemiancoding.com/sketch -->
    <title>96 - Female Breast (Flat)</title>
    <desc>Created with Sketch.</desc>
    <defs></defs>
    <g id="Page-1" stroke="none" stroke-width="1" fill="none" fill-rule="evenodd" sketch:type="MSPage">
        <g id="96---Female-Breast-(Flat)" sketch:type="MSLayerGroup">
            <path d="M0,29 C0,12.984 12.984,0 29,0 C45.016,0 58,12.984 58,29 C58,45.016 45.016,58 29,58 C12.984,58 0,45.016 0,29" id="Fill-881" fill="#FCCF9D" sketch:type="MSShapeGroup"></path>
            <path d="M29,50 C18.523,50 10,41.925 10,32 C10,31.447 10.448,31 11,31 C11.552,31 12,31.447 12,32 C12,40.822 19.626,48 29,48 C38.374,48 46,40.822 46,32 C46,25.642 44.701,23.385 42.112,18.89 C41.02,16.993 39.661,14.633 38.102,11.438 C37.859,10.942 38.065,10.344 38.561,10.102 C39.06,9.858 39.657,10.065 39.898,10.562 C41.429,13.694 42.769,16.021 43.845,17.892 C46.524,22.544 48,25.106 48,32 C48,41.925 39.477,50 29,50" id="Fill-898" fill="#F8B563" sketch:type="MSShapeGroup"></path>
            <path d="M38,31 C38,35.971 33.971,40 29,40 C24.029,40 20,35.971 20,31 C20,26.029 24.029,22 29,22 C33.971,22 38,26.029 38,31" id="Fill-899" fill="#EB7F5F" sketch:type="MSShapeGroup"></path>
            <path d="M33,31 C33,33.209 31.209,35 29,35 C26.791,35 25,33.209 25,31 C25,28.791 26.791,27 29,27 C31.209,27 33,28.791 33,31" id="Fill-900" fill="#B34B4D" sketch:type="MSShapeGroup"></path>
            <path d="M45.923,52.543 L45.924,52.543 C45.871,48.855 44.58,44.631 44.138,42.862 L43.375,43.625 C41.178,49.062 41.186,53.112 40.768,55.504 C42.594,54.692 44.32,53.698 45.923,52.543" id="Fill-901" fill="#556080" sketch:type="MSShapeGroup"></path>
        </g>
    </g>
</svg>