<?xml version="1.0" encoding="UTF-8" standalone="no"?>
<svg width="58px" height="58px" viewBox="0 0 58 58" version="1.1" xmlns="http://www.w3.org/2000/svg" xmlns:xlink="http://www.w3.org/1999/xlink" xmlns:sketch="http://www.bohemiancoding.com/sketch/ns">
    <!-- Generator: Sketch 3.2.2 (9983) - http://www.bohemiancoding.com/sketch -->
    <title>104 - Femur Joint (Flat)</title>
    <desc>Created with Sketch.</desc>
    <defs></defs>
    <g id="Page-1" stroke="none" stroke-width="1" fill="none" fill-rule="evenodd" sketch:type="MSPage">
        <g id="104---Femur-Joint-(Flat)" sketch:type="MSLayerGroup">
            <path d="M29,0 C27.294,0 25.625,0.156 24,0.438 L24,4.274 C24,7.721 22.531,10.917 20.084,13.275 C18.712,14.597 17.89,16.515 18.012,18.629 C18.199,21.875 20.7,24.594 23.843,24.956 C25.143,25.106 26.375,24.864 27.446,24.333 C28.418,23.852 29.582,23.852 30.554,24.333 C31.625,24.864 32.857,25.106 34.157,24.956 C37.3,24.594 39.801,21.875 39.988,18.629 C40.11,16.515 39.288,14.597 37.916,13.275 C35.469,10.917 34,7.447 34,4 L34,0.438 C32.375,0.156 30.706,0 29,0" id="Fill-883" fill="#F3EDBF" sketch:type="MSShapeGroup"></path>
            <path d="M34,52.727 C34,49.279 35.469,46.083 37.916,43.725 C39.288,42.403 40.11,40.485 39.988,38.37 C39.801,35.125 37.3,32.406 34.157,32.044 C32.857,31.894 31.625,32.136 30.554,32.667 C29.582,33.148 28.418,33.148 27.446,32.667 C26.375,32.136 25.143,31.894 23.843,32.044 C20.7,32.406 18.199,35.125 18.012,38.37 C17.89,40.485 18.712,42.403 20.084,43.725 C22.531,46.083 24.05,49.279 24.05,52.727 L24.05,57.571 C25.659,57.848 27.312,58 29,58 C30.706,58 32.375,57.844 34,57.562 L34,52.727" id="Fill-884" fill="#F3EDBF" sketch:type="MSShapeGroup"></path>
            <path d="M34,0.438 L34,4 C34,7.447 35.469,10.917 37.916,13.275 C39.288,14.597 40.11,16.515 39.988,18.629 C39.801,21.875 37.3,24.594 34.157,24.956 C32.857,25.106 31.625,24.864 30.554,24.333 C29.582,23.852 28.418,23.852 27.446,24.333 C26.375,24.864 25.143,25.106 23.843,24.956 C20.7,24.594 18.199,21.875 18.012,18.629 C17.89,16.515 18.712,14.597 20.084,13.275 C22.531,10.917 24,7.721 24,4.274 L24,0.438 C10.368,2.809 0,14.69 0,29 C0,43.328 10.393,55.22 24.05,57.571 L24.05,52.727 C24.05,49.279 22.531,46.083 20.084,43.725 C18.712,42.403 17.89,40.485 18.012,38.37 C18.199,35.125 20.7,32.406 23.843,32.044 C25.143,31.894 26.375,32.136 27.446,32.667 C28.418,33.148 29.582,33.148 30.554,32.667 C31.625,32.136 32.857,31.894 34.157,32.044 C37.3,32.406 39.801,35.125 39.988,38.37 C40.11,40.485 39.288,42.403 37.916,43.725 C35.469,46.083 34,49.279 34,52.727 L34,57.562 C47.632,55.191 58,43.31 58,29 C58,14.69 47.632,2.809 34,0.438" id="Fill-2167" fill="#694F87" sketch:type="MSShapeGroup"></path>
        </g>
    </g>
</svg>