<?xml version="1.0" encoding="UTF-8" standalone="no"?>
<svg width="58px" height="58px" viewBox="0 0 58 58" version="1.1" xmlns="http://www.w3.org/2000/svg" xmlns:xlink="http://www.w3.org/1999/xlink" xmlns:sketch="http://www.bohemiancoding.com/sketch/ns">
    <!-- Generator: Sketch 3.2.2 (9983) - http://www.bohemiancoding.com/sketch -->
    <title>110 - First Aid Kit (Flat)</title>
    <desc>Created with Sketch.</desc>
    <defs></defs>
    <g id="Page-1" stroke="none" stroke-width="1" fill="none" fill-rule="evenodd" sketch:type="MSPage">
        <g id="110---First-Aid-Kit-(Flat)" sketch:type="MSLayerGroup">
            <path d="M0,24 L58,24 L58,58 L0,58 L0,24 Z" id="Fill-2381" fill="#DD342E" sketch:type="MSShapeGroup"></path>
            <path d="M40,37 L33,37 L33,30 L25,30 L25,37 L18,37 L18,45 L25,45 L25,52 L33,52 L33,45 L40,45 L40,37" id="Fill-2382" fill="#FFFFFF" sketch:type="MSShapeGroup"></path>
            <path d="M0,11 L58,11 L58,24 L0,24 L0,11 Z" id="Fill-2383" fill="#B12621" sketch:type="MSShapeGroup"></path>
            <path d="M8,20 L16,20 L16,24 L8,24 L8,20 Z" id="Fill-2384" fill="#949493" sketch:type="MSShapeGroup"></path>
            <path d="M8,24 L16,24 L16,28 L8,28 L8,24 Z" id="Fill-2385" fill="#E8EDEE" sketch:type="MSShapeGroup"></path>
            <path d="M42,20 L50,20 L50,24 L42,24 L42,20 Z" id="Fill-2386" fill="#949493" sketch:type="MSShapeGroup"></path>
            <path d="M42,24 L50,24 L50,28 L42,28 L42,24 Z" id="Fill-2387" fill="#E8EDEE" sketch:type="MSShapeGroup"></path>
            <path d="M19,2.236 L19,11 L22,11 L22,7.236 C22,6.001 23.001,5 24.236,5 L35.764,5 C36.999,5 38,6.001 38,7.236 L38,11 L41,11 L41,2.236 C41,1.001 39.999,0 38.764,0 L21.236,0 C20.001,0 19,1.001 19,2.236" id="Fill-2388" fill="#3E465B" sketch:type="MSShapeGroup"></path>
        </g>
    </g>
</svg>