<?xml version="1.0" encoding="UTF-8" standalone="no"?>
<svg width="58px" height="58px" viewBox="0 0 58 58" version="1.1" xmlns="http://www.w3.org/2000/svg" xmlns:xlink="http://www.w3.org/1999/xlink" xmlns:sketch="http://www.bohemiancoding.com/sketch/ns">
    <!-- Generator: Sketch 3.2.2 (9983) - http://www.bohemiancoding.com/sketch -->
    <title>95 - Genital Organ (Flat)</title>
    <desc>Created with Sketch.</desc>
    <defs></defs>
    <g id="Page-1" stroke="none" stroke-width="1" fill="none" fill-rule="evenodd" sketch:type="MSPage">
        <g id="95---Genital-Organ-(Flat)" sketch:type="MSLayerGroup">
            <path d="M0,29 C0,12.984 12.984,0 29,0 C45.016,0 58,12.984 58,29 C58,45.016 45.016,58 29,58 C12.984,58 0,45.016 0,29" id="Fill-882" fill="#F4C795" sketch:type="MSShapeGroup"></path>
            <path d="M29,20 C29,19.448 29.448,19 30,19 C30.552,19 31,19.448 31,20 C31,20.552 30.552,21 30,21 C29.448,21 29,20.552 29,20" id="Fill-2024" fill="#4B4C4F" sketch:type="MSShapeGroup"></path>
            <path d="M26,18 C26,17.448 26.448,17 27,17 C27.552,17 28,17.448 28,18 C28,18.552 27.552,19 27,19 C26.448,19 26,18.552 26,18" id="Fill-2025" fill="#4B4C4F" sketch:type="MSShapeGroup"></path>
            <path d="M32,18 C32,17.448 32.448,17 33,17 C33.552,17 34,17.448 34,18 C34,18.552 33.552,19 33,19 C32.448,19 32,18.552 32,18" id="Fill-2026" fill="#4B4C4F" sketch:type="MSShapeGroup"></path>
            <path d="M32,15 C32,14.448 32.448,14 33,14 C33.552,14 34,14.448 34,15 C34,15.552 33.552,16 33,16 C32.448,16 32,15.552 32,15" id="Fill-2027" fill="#4B4C4F" sketch:type="MSShapeGroup"></path>
            <path d="M29,17 C29,16.448 29.448,16 30,16 C30.552,16 31,16.448 31,17 C31,17.552 30.552,18 30,18 C29.448,18 29,17.552 29,17" id="Fill-2028" fill="#4B4C4F" sketch:type="MSShapeGroup"></path>
            <path d="M32,21 C32,20.448 32.448,20 33,20 C33.552,20 34,20.448 34,21 C34,21.552 33.552,22 33,22 C32.448,22 32,21.552 32,21" id="Fill-2029" fill="#4B4C4F" sketch:type="MSShapeGroup"></path>
            <path d="M26,21 C26,20.448 26.448,20 27,20 C27.552,20 28,20.448 28,21 C28,21.552 27.552,22 27,22 C26.448,22 26,21.552 26,21" id="Fill-2030" fill="#4B4C4F" sketch:type="MSShapeGroup"></path>
            <path d="M29,14 C29,13.448 29.448,13 30,13 C30.552,13 31,13.448 31,14 C31,14.552 30.552,15 30,15 C29.448,15 29,14.552 29,14" id="Fill-2031" fill="#4B4C4F" sketch:type="MSShapeGroup"></path>
            <path d="M26,15 C26,14.448 26.448,14 27,14 C27.552,14 28,14.448 28,15 C28,15.552 27.552,16 27,16 C26.448,16 26,15.552 26,15" id="Fill-2032" fill="#4B4C4F" sketch:type="MSShapeGroup"></path>
            <path d="M26,30 L28,35 L28,57.975 C28.333,57.986 28.665,58 29,58 C30.013,58 31.014,57.947 32,57.846 L32,36 L34,30 L26,30" id="Fill-2164" fill="#556080" sketch:type="MSShapeGroup"></path>
            <path d="M8.294,8.704 C8.298,8.708 8.299,8.713 8.303,8.717 C10.432,10.825 12.713,13.479 15.08,16.603 C15.276,16.861 15.575,16.998 15.878,16.998 C16.088,16.998 16.301,16.932 16.481,16.795 C16.921,16.461 17.008,15.834 16.674,15.394 C14.26,12.21 11.928,9.498 9.74,7.327 C9.242,7.769 8.76,8.228 8.294,8.704" id="Fill-2186" fill="#FCCF9D" sketch:type="MSShapeGroup"></path>
            <path d="M8.295,8.702 C8.301,8.709 8.303,8.717 8.31,8.724 C10.437,10.832 12.716,13.483 15.082,16.604 C15.278,16.863 15.577,17 15.88,17 C16.09,17 16.303,16.934 16.483,16.797 C16.923,16.463 17.01,15.836 16.676,15.396 C14.26,12.211 11.927,9.497 9.74,7.327 C9.243,7.769 8.761,8.227 8.295,8.702" id="Fill-2187" fill="#F8B563" sketch:type="MSShapeGroup"></path>
            <path d="M51.341,10.511 C50.915,9.997 50.467,9.503 50.008,9.02 C50.006,9.022 50.005,9.022 50.003,9.023 C47.38,11.472 44.566,14.621 41.639,18.385 C41.3,18.821 41.378,19.449 41.813,19.788 C41.996,19.931 42.213,19.999 42.427,19.999 C42.725,19.999 43.019,19.866 43.217,19.613 C46.07,15.946 48.803,12.884 51.341,10.511" id="Fill-2188" fill="#F8B563" sketch:type="MSShapeGroup"></path>
            <path d="M37.979,22.362 C37.342,23.279 36.746,24.159 36.186,24.997 C36.143,25.061 36.1,25.125 36.057,25.19 C35.419,26.146 34.837,27.037 34.322,27.84 C31.477,28.647 28.641,28.85 25.642,28.378 C25.621,28.342 25.596,28.302 25.575,28.265 C25.438,28.035 25.29,27.789 25.146,27.547 C25.061,27.405 24.982,27.272 24.894,27.126 C24.635,26.696 24.366,26.252 24.085,25.793 C23.761,25.265 23.07,25.098 22.538,25.422 C22.141,25.665 21.948,26.116 22.013,26.549 C22.035,26.694 22.085,26.837 22.167,26.97 C22.489,27.496 22.796,28.002 23.089,28.49 C23.124,28.549 23.157,28.604 23.191,28.662 C23.428,29.057 23.653,29.436 23.869,29.801 C24.22,30.396 24.549,30.959 24.839,31.462 C25.925,33.346 26.499,35.444 26.499,37.529 L26.499,57.886 C27.242,57.949 27.991,57.987 28.749,57.994 L28.749,37.529 C28.749,35.216 28.136,32.904 27.014,30.796 C27.598,30.843 28.179,30.877 28.749,30.877 C30.051,30.877 31.359,30.746 32.661,30.514 C31.575,32.453 30.998,34.578 30.998,36.701 L30.998,57.924 C31.756,57.872 32.507,57.796 33.248,57.687 L33.248,36.701 C33.248,34.797 33.815,32.878 34.888,31.153 C35.144,30.74 35.44,30.27 35.767,29.756 L35.769,29.755 L35.992,29.405 C36.599,28.454 37.217,27.508 37.839,26.572 C37.867,26.529 37.897,26.485 37.926,26.441 C38.546,25.511 39.17,24.591 39.795,23.69 L39.796,23.689 C39.806,23.674 39.816,23.66 39.826,23.645 C40.181,23.134 40.055,22.433 39.544,22.08 C39.033,21.724 38.334,21.852 37.979,22.362" id="Fill-2189" fill="#F9DBBD" sketch:type="MSShapeGroup"></path>
            <path d="M30,31 C29.447,31 29,30.553 29,30 L29,25 C29,24.447 29.447,24 30,24 C30.553,24 31,24.447 31,25 L31,30 C31,30.553 30.553,31 30,31" id="Fill-2190" fill="#EB7F5F" sketch:type="MSShapeGroup"></path>
        </g>
    </g>
</svg>