<?xml version="1.0" encoding="UTF-8" standalone="no"?>
<svg width="59px" height="50px" viewBox="0 0 59 50" version="1.1" xmlns="http://www.w3.org/2000/svg" xmlns:xlink="http://www.w3.org/1999/xlink" xmlns:sketch="http://www.bohemiancoding.com/sketch/ns">
    <!-- Generator: Sketch 3.2.2 (9983) - http://www.bohemiancoding.com/sketch -->
    <title>88 - Globular Eye (Flat)</title>
    <desc>Created with Sketch.</desc>
    <defs></defs>
    <g id="Page-1" stroke="none" stroke-width="1" fill="none" fill-rule="evenodd" sketch:type="MSPage">
        <g id="88---Globular-Eye-(Flat)" sketch:type="MSLayerGroup">
            <path d="M18.034,25 C18.034,11.626 16.759,0.705 29.73,0.033 C29.485,0.026 29.246,0 29,0 C19.792,0 10.474,3.512 4.97,10.372 C6.371,11.872 6,17.846 6,25 C6,32.154 6.371,38.128 4.97,39.628 C10.474,46.488 19.792,50 29,50 C29.246,50 29.485,49.974 29.73,49.967 C16.759,49.295 18.034,38.374 18.034,25" id="Fill-175" fill="#496AAF" sketch:type="MSShapeGroup"></path>
            <path d="M56.842,22 L54.807,22 C53.293,9.838 42.699,0.38 29.73,0.033 C16.759,0.705 18.034,11.626 18.034,25 C18.034,38.374 16.759,49.295 29.73,49.967 C42.699,49.62 53.293,40.162 54.807,28 L58,28 L58,22 L56.842,22" id="Fill-176" fill="#F19266" sketch:type="MSShapeGroup"></path>
            <path d="M18.034,25 C18.034,11.626 16.759,0.705 29.73,0.033 C29.485,0.026 29.246,0 29,0 C14.641,0 16,11.193 16,25 C16,38.807 14.641,50 29,50 C29.246,50 29.485,49.974 29.73,49.967 C16.759,49.295 18.034,38.374 18.034,25" id="Fill-177" fill="#F86363" sketch:type="MSShapeGroup"></path>
            <path d="M21,12 C21.552,12 22,11.552 22,11 C22,10.448 21.552,10 21,10 C20.448,10 20,10.448 20,11 C20,11.552 20.448,12 21,12" id="Fill-2033" fill="#EA6148" sketch:type="MSShapeGroup"></path>
            <path d="M22,41 C21.448,41 21,41.448 21,42 C21,42.552 21.448,43 22,43 C22.552,43 23,42.552 23,42 C23,41.448 22.552,41 22,41" id="Fill-2034" fill="#EA6148" sketch:type="MSShapeGroup"></path>
            <path d="M27,37 C26.448,37 26,37.448 26,38 C26,38.552 26.448,39 27,39 C27.552,39 28,38.552 28,38 C28,37.448 27.552,37 27,37" id="Fill-2035" fill="#EA6148" sketch:type="MSShapeGroup"></path>
            <path d="M22,33 C22,32.448 21.552,32 21,32 C20.448,32 20,32.448 20,33 C20,33.552 20.448,34 21,34 C21.552,34 22,33.552 22,33" id="Fill-2036" fill="#EA6148" sketch:type="MSShapeGroup"></path>
            <path d="M28,31 C27.448,31 27,31.448 27,32 C27,32.552 27.448,33 28,33 C28.552,33 29,32.552 29,32 C29,31.448 28.552,31 28,31" id="Fill-2037" fill="#EA6148" sketch:type="MSShapeGroup"></path>
            <path d="M22,24 C21.448,24 21,24.448 21,25 C21,25.552 21.448,26 22,26 C22.552,26 23,25.552 23,25 C23,24.448 22.552,24 22,24" id="Fill-2038" fill="#EA6148" sketch:type="MSShapeGroup"></path>
            <path d="M27,17 C27,16.448 26.552,16 26,16 C25.448,16 25,16.448 25,17 C25,17.552 25.448,18 26,18 C26.552,18 27,17.552 27,17" id="Fill-2039" fill="#EA6148" sketch:type="MSShapeGroup"></path>
            <path d="M21,17 C21,16.448 20.552,16 20,16 C19.448,16 19,16.448 19,17 C19,17.552 19.448,18 20,18 C20.552,18 21,17.552 21,17" id="Fill-2040" fill="#EA6148" sketch:type="MSShapeGroup"></path>
            <path d="M27,7 C27.552,7 28,6.552 28,6 C28,5.448 27.552,5 27,5 C26.448,5 26,5.448 26,6 C26,6.552 26.448,7 27,7" id="Fill-2041" fill="#EA6148" sketch:type="MSShapeGroup"></path>
            <path d="M16,25 C16,31.627 16.375,37 14,37 C11.239,37 9,31.627 9,25 C9,18.373 11.239,13 14,13 C16.406,13 16,18.373 16,25" id="Fill-2042" fill="#CCE0E1" sketch:type="MSShapeGroup"></path>
            <path d="M58,24 L52.414,24 L36,7.586 L36,4 C36,3.447 35.552,3 35,3 C34.448,3 34,3.447 34,4 L34,7 L31,7 C30.448,7 30,7.447 30,8 C30,8.553 30.448,9 31,9 L34.586,9 L49.586,24 L44.414,24 L37.207,16.793 C37.146,16.732 37.071,16.698 37,16.656 L37,13 C37,12.447 36.552,12 36,12 C35.448,12 35,12.447 35,13 L35,16 L32,16 C31.448,16 31,16.447 31,17 C31,17.553 31.448,18 32,18 L35.655,18 C35.697,18.071 35.732,18.146 35.793,18.207 L41.586,24 L31.414,24 L28.707,21.293 C28.316,20.902 27.684,20.902 27.293,21.293 C26.902,21.684 26.902,22.316 27.293,22.707 L29.586,25 L27.293,27.293 C26.902,27.684 26.902,28.316 27.293,28.707 C27.488,28.902 27.744,29 28,29 C28.256,29 28.512,28.902 28.707,28.707 L31.414,26 L41.586,26 L35.586,32 L32,32 C31.448,32 31,32.447 31,33 C31,33.553 31.448,34 32,34 L35,34 L35,37 C35,37.553 35.448,38 36,38 C36.552,38 37,37.553 37,37 L37,33.414 L44.414,26 L49.586,26 L34.586,41 L31,41 C30.448,41 30,41.447 30,42 C30,42.553 30.448,43 31,43 L34,43 L34,46 C34,46.553 34.448,47 35,47 C35.552,47 36,46.553 36,46 L36,42.414 L52.414,26 L58,26 C58.552,26 59,25.553 59,25 C59,24.447 58.552,24 58,24" id="Fill-2043" fill="#F8B563" sketch:type="MSShapeGroup"></path>
            <path d="M6,25 C6,33.284 6.503,40 4.168,40 C1.833,40 0,33.284 0,25 C0,16.716 1.833,10 4.168,10 C6.503,10 6,16.716 6,25" id="Fill-2044" fill="#B9D2D9" sketch:type="MSShapeGroup"></path>
            <path d="M14,19 C14,19.552 13.552,20 13,20 C12.448,20 12,19.552 12,19 C12,18.448 12.448,18 13,18 C13.552,18 14,18.448 14,19" id="Fill-2045" fill="#E083A0" sketch:type="MSShapeGroup"></path>
            <path d="M14,22 C14,22.552 13.552,23 13,23 C12.448,23 12,22.552 12,22 C12,21.448 12.448,21 13,21 C13.552,21 14,21.448 14,22" id="Fill-2046" fill="#E083A0" sketch:type="MSShapeGroup"></path>
            <path d="M14,25 C14,25.552 13.552,26 13,26 C12.448,26 12,25.552 12,25 C12,24.448 12.448,24 13,24 C13.552,24 14,24.448 14,25" id="Fill-2047" fill="#E083A0" sketch:type="MSShapeGroup"></path>
            <path d="M14,28 C14,28.552 13.552,29 13,29 C12.448,29 12,28.552 12,28 C12,27.448 12.448,27 13,27 C13.552,27 14,27.448 14,28" id="Fill-2048" fill="#E083A0" sketch:type="MSShapeGroup"></path>
            <path d="M14,31 C14,31.552 13.552,32 13,32 C12.448,32 12,31.552 12,31 C12,30.448 12.448,30 13,30 C13.552,30 14,30.448 14,31" id="Fill-2049" fill="#E083A0" sketch:type="MSShapeGroup"></path>
            <path d="M3.779,37.008 C2.942,35.173 1.956,31.053 1.956,24.948 C1.956,18.842 2.942,14.722 3.779,12.887 C4.044,14.781 4.009,18.237 3.981,21.149 C3.969,22.363 3.956,23.635 3.956,24.948 C3.956,26.26 3.969,27.533 3.981,28.747 C4.009,31.659 4.044,35.115 3.779,37.008" id="Fill-2354" fill="#FFFFFF" sketch:type="MSShapeGroup"></path>
        </g>
    </g>
</svg>