<?xml version="1.0" encoding="UTF-8" standalone="no"?>
<svg width="59px" height="59px" viewBox="0 0 59 59" version="1.1" xmlns="http://www.w3.org/2000/svg" xmlns:xlink="http://www.w3.org/1999/xlink" xmlns:sketch="http://www.bohemiancoding.com/sketch/ns">
    <!-- Generator: Sketch 3.2.2 (9983) - http://www.bohemiancoding.com/sketch -->
    <title>6 - Gum Anatomy (Flat)</title>
    <desc>Created with Sketch.</desc>
    <defs></defs>
    <g id="Page-1" stroke="none" stroke-width="1" fill="none" fill-rule="evenodd" sketch:type="MSPage">
        <g id="6---Gum-Anatomy-(Flat)" sketch:type="MSLayerGroup">
            <path d="M5.716,20.031 C5.665,19.691 5.628,19.345 5.593,19 L4.538,19 C2.456,19 0.769,20.687 0.769,22.769 L0.769,55.231 C0.769,57.313 2.456,59 4.538,59 L55,59 C57.081,59 58.769,57.313 58.769,55.231 L58.769,22.769 C58.769,20.687 57.081,19 55,19 L54.749,19" id="Fill-38" fill="#ED9893" sketch:type="MSShapeGroup"></path>
            <path d="M53.902,10.909 C56.435,20.483 52.818,31.899 50.707,41.32 C49.789,45.414 49.021,49.606 46.916,53.297 C43.583,59.137 40.927,51.511 39.88,48.285 C38.592,44.319 38.174,39.197 34.213,36.839 C30.266,34.488 26.606,36.891 24.32,40.234 C22.004,43.622 21.126,47.559 19.658,51.328 C18.978,53.07 18.229,54.814 16.387,55.594 C14.431,55.594 13.073,52.02 12.355,50.285 C8.434,40.819 7.23,30.092 5.716,20.031 C4.65,12.952 6.946,4.537 14.299,1.932 C18.295,0.516 23.769,1.821 27.769,3.001 C30.068,3.678 29.644,3.457 31.934,2.663 C32.11,2.602 32.283,2.52 32.463,2.445 C37.364,0.418 43.271,0.402 47.585,3.176 C50.496,5.048 53.06,7.726 53.902,10.909" id="Fill-39" fill="#E8EDEE" sketch:type="MSShapeGroup"></path>
            <path d="M53.885,11.01 C53.043,7.827 50.479,5.149 47.567,3.277 C43.254,0.503 37.346,0.519 32.445,2.546 C32.265,2.621 32.093,2.703 31.917,2.764 C29.627,3.558 30.05,3.779 27.751,3.102 C23.751,1.922 18.277,0.617 14.282,2.033 C6.928,4.638 9.31,11.785 14.582,9.917 C18.578,8.501 24.051,9.807 28.052,10.986 C30.35,11.664 29.927,11.443 32.217,10.648 C32.393,10.587 32.565,10.505 32.745,10.431 C37.647,8.403 43.554,8.387 47.868,11.161 C50.779,13.033 54.727,14.194 53.885,11.01" id="Fill-40" fill="#F0F7F8" sketch:type="MSShapeGroup"></path>
            <path d="M22.354,5.816 C21.798,5.164 21.015,5.02 20.189,5.139 C18.469,5.386 16.76,5.766 15.052,6.086 C12.968,6.476 11.431,7.892 12.695,10.072 C13.824,12.017 16.892,11.889 18.853,11.311 C19.09,11.324 19.338,11.263 19.564,11.087 C20.74,10.17 23.846,7.568 22.354,5.816" id="Fill-41" fill="#FFFFFF" sketch:type="MSShapeGroup"></path>
            <path d="M42.158,6 L43.033,6 C44.322,6 44.322,4 43.033,4 L42.158,4 C40.868,4 40.868,6 42.158,6" id="Fill-42" fill="#FFFFFF" sketch:type="MSShapeGroup"></path>
            <path d="M53,49 C52.448,49 52,49.448 52,50 C52,50.552 52.448,51 53,51 C53.552,51 54,50.552 54,50 C54,49.448 53.552,49 53,49" id="Fill-1795" fill="#AF6868" sketch:type="MSShapeGroup"></path>
            <path d="M56,39 C55.448,39 55,39.448 55,40 C55,40.552 55.448,41 56,41 C56.552,41 57,40.552 57,40 C57,39.448 56.552,39 56,39" id="Fill-1796" fill="#AF6868" sketch:type="MSShapeGroup"></path>
            <path d="M35,43 C34.448,43 34,43.448 34,44 C34,44.552 34.448,45 35,45 C35.552,45 36,44.552 36,44 C36,43.448 35.552,43 35,43" id="Fill-1797" fill="#AF6868" sketch:type="MSShapeGroup"></path>
            <path d="M38,54 C37.448,54 37,54.448 37,55 C37,55.552 37.448,56 38,56 C38.552,56 39,55.552 39,55 C39,54.448 38.552,54 38,54" id="Fill-1798" fill="#AF6868" sketch:type="MSShapeGroup"></path>
            <path d="M6,51 C5.448,51 5,51.448 5,52 C5,52.552 5.448,53 6,53 C6.552,53 7,52.552 7,52 C7,51.448 6.552,51 6,51" id="Fill-1799" fill="#AF6868" sketch:type="MSShapeGroup"></path>
            <path d="M4,35 C3.448,35 3,35.448 3,36 C3,36.552 3.448,37 4,37 C4.552,37 5,36.552 5,36 C5,35.448 4.552,35 4,35" id="Fill-1800" fill="#AF6868" sketch:type="MSShapeGroup"></path>
            <path d="M27.5,48 C25.019,48 23,50.019 23,52.5 C23,54.981 25.019,57 27.5,57 C29.981,57 32,54.981 32,52.5 C32,50.019 29.981,48 27.5,48" id="Fill-1801" fill="#AF6868" sketch:type="MSShapeGroup"></path>
            <path d="M50.915,7.435 C50.888,7.435 50.86,7.434 50.832,7.432 C50.281,7.386 49.872,6.903 49.917,6.353 C49.918,6.341 49.919,6.328 49.92,6.317 C49.913,6.309 49.905,6.302 49.898,6.294 C49.504,5.907 49.498,5.274 49.886,4.88 C50.273,4.485 50.906,4.48 51.3,4.868 C51.425,4.991 51.548,5.117 51.669,5.243 L51.969,5.556 L51.946,5.988 C51.937,6.165 51.925,6.341 51.911,6.517 C51.867,7.039 51.431,7.435 50.915,7.435" id="Fill-1802" fill="#7383BF" sketch:type="MSShapeGroup"></path>
            <path d="M29.913,25 C29.77,25 29.625,24.998 29.48,24.995 C28.928,24.981 28.491,24.523 28.504,23.972 C28.517,23.42 29.018,23.002 29.527,22.995 C29.683,22.999 29.839,23.001 29.994,23 C30.165,23 30.33,22.998 30.494,22.994 C31.025,22.978 31.504,23.419 31.516,23.972 C31.529,24.523 31.091,24.981 30.54,24.994 C30.331,24.999 30.126,25.002 29.913,25 L29.913,25 Z M25.478,24.558 C25.413,24.558 25.346,24.552 25.279,24.538 C24.933,24.468 24.589,24.392 24.249,24.309 C23.713,24.177 23.385,23.635 23.517,23.099 C23.648,22.562 24.188,22.232 24.726,22.365 C25.04,22.442 25.356,22.513 25.676,22.577 C26.217,22.688 26.567,23.215 26.457,23.756 C26.362,24.23 25.944,24.558 25.478,24.558 L25.478,24.558 Z M34.542,24.554 C34.074,24.554 33.657,24.225 33.562,23.749 C33.454,23.208 33.805,22.681 34.347,22.573 C34.665,22.51 34.979,22.439 35.292,22.362 C35.823,22.232 36.369,22.555 36.503,23.092 C36.636,23.628 36.309,24.171 35.773,24.304 C35.432,24.389 35.086,24.465 34.738,24.534 C34.672,24.548 34.606,24.554 34.542,24.554 L34.542,24.554 Z M20.659,23.019 C20.521,23.019 20.381,22.99 20.248,22.93 C19.925,22.784 19.606,22.631 19.292,22.472 C18.8,22.222 18.604,21.62 18.853,21.128 C19.103,20.636 19.705,20.435 20.198,20.689 C20.484,20.834 20.775,20.974 21.071,21.107 C21.574,21.335 21.798,21.927 21.57,22.431 C21.403,22.8 21.04,23.019 20.659,23.019 L20.659,23.019 Z M39.359,23.009 C38.979,23.009 38.615,22.79 38.448,22.421 C38.22,21.917 38.444,21.325 38.947,21.098 C39.242,20.965 39.532,20.825 39.817,20.679 C40.309,20.428 40.912,20.623 41.163,21.114 C41.414,21.605 41.22,22.208 40.727,22.46 C40.414,22.62 40.094,22.773 39.771,22.92 C39.637,22.981 39.497,23.009 39.359,23.009 L39.359,23.009 Z M16.326,20.411 C16.11,20.411 15.894,20.342 15.71,20.198 C15.431,19.981 15.158,19.757 14.891,19.526 C14.472,19.166 14.425,18.535 14.785,18.116 C15.145,17.698 15.776,17.649 16.195,18.011 C16.439,18.22 16.688,18.424 16.943,18.624 C17.378,18.964 17.455,19.593 17.114,20.027 C16.917,20.279 16.623,20.411 16.326,20.411 L16.326,20.411 Z M43.69,20.396 C43.393,20.396 43.099,20.264 42.902,20.011 C42.562,19.576 42.639,18.947 43.074,18.607 C43.329,18.409 43.577,18.205 43.819,17.995 C44.237,17.633 44.869,17.679 45.23,18.097 C45.592,18.514 45.546,19.146 45.129,19.507 C44.861,19.738 44.586,19.964 44.306,20.184 C44.123,20.326 43.906,20.396 43.69,20.396 L43.69,20.396 Z M12.761,16.828 C12.46,16.828 12.164,16.693 11.967,16.437 C11.75,16.154 11.542,15.866 11.341,15.573 C11.029,15.117 11.146,14.495 11.602,14.184 C12.057,13.871 12.68,13.988 12.992,14.444 C13.172,14.708 13.36,14.967 13.554,15.22 C13.89,15.658 13.807,16.286 13.369,16.622 C13.187,16.761 12.973,16.828 12.761,16.828 L12.761,16.828 Z M47.252,16.806 C47.04,16.806 46.827,16.738 46.646,16.601 C46.207,16.265 46.123,15.637 46.458,15.198 C46.654,14.942 46.842,14.683 47.022,14.419 C47.333,13.963 47.955,13.846 48.412,14.158 C48.868,14.47 48.984,15.092 48.673,15.548 C48.473,15.841 48.264,16.13 48.048,16.413 C47.851,16.671 47.553,16.806 47.252,16.806 L47.252,16.806 Z M10.26,12.44 C9.862,12.44 9.485,12.201 9.33,11.809 C9.199,11.477 9.077,11.142 8.964,10.803 C8.79,10.279 9.073,9.713 9.597,9.538 C10.122,9.367 10.687,9.647 10.861,10.172 C10.962,10.476 11.072,10.776 11.189,11.072 C11.393,11.586 11.142,12.167 10.628,12.37 C10.507,12.418 10.382,12.44 10.26,12.44 L10.26,12.44 Z M49.748,12.412 C49.625,12.412 49.501,12.39 49.38,12.342 C48.866,12.139 48.615,11.558 48.818,11.044 C48.935,10.748 49.044,10.449 49.144,10.146 C49.317,9.621 49.885,9.34 50.408,9.511 C50.933,9.685 51.217,10.25 51.043,10.775 C50.931,11.113 50.809,11.449 50.678,11.78 C50.523,12.173 50.146,12.412 49.748,12.412 L49.748,12.412 Z M9.09,7.527 C8.577,7.527 8.141,7.136 8.095,6.615 C8.067,6.3 8.047,5.984 8.036,5.666 L8.022,5.293 L8.347,4.894 C8.706,4.474 9.336,4.421 9.756,4.779 C10.085,5.059 10.188,5.504 10.047,5.887 C10.058,6.071 10.071,6.256 10.087,6.44 C10.136,6.989 9.729,7.475 9.179,7.524 C9.149,7.526 9.119,7.527 9.09,7.527 L9.09,7.527 Z M47.423,4.074 C47.242,4.074 47.06,4.026 46.896,3.923 C46.631,3.759 46.359,3.605 46.083,3.463 C45.592,3.209 45.4,2.605 45.654,2.115 C45.907,1.625 46.511,1.434 47.001,1.685 C47.325,1.854 47.643,2.032 47.952,2.226 C48.421,2.518 48.565,3.134 48.273,3.603 C48.083,3.907 47.757,4.074 47.423,4.074 L47.423,4.074 Z M27.908,4.044 C27.824,4.044 27.737,4.032 27.648,4.007 C27.647,4.006 27.559,3.98 27.557,3.98 L26.678,3.726 C26.147,3.574 25.839,3.021 25.99,2.49 C26.141,1.96 26.692,1.648 27.225,1.802 L28.051,2.04 C28.58,2.196 28.961,2.773 28.808,3.303 C28.679,3.743 28.328,4.044 27.908,4.044 L27.908,4.044 Z M12.18,3.922 C11.839,3.922 11.507,3.748 11.32,3.434 C11.038,2.959 11.193,2.345 11.667,2.063 C11.979,1.877 12.303,1.703 12.638,1.541 C13.136,1.303 13.733,1.51 13.973,2.009 C14.213,2.506 14.004,3.103 13.506,3.344 C13.225,3.478 12.953,3.625 12.691,3.781 C12.53,3.877 12.354,3.922 12.18,3.922 L12.18,3.922 Z M31.817,3.703 C31.398,3.703 31.008,3.439 30.869,3.02 C30.694,2.495 30.977,1.929 31.501,1.755 L31.934,2.663 L31.604,1.719 C31.699,1.685 31.792,1.644 31.887,1.603 L32.39,1.396 C32.905,1.192 33.485,1.445 33.688,1.958 C33.892,2.472 33.64,3.053 33.127,3.256 L32.681,3.44 C32.542,3.5 32.403,3.559 32.264,3.607 L32.134,3.651 C32.029,3.687 31.922,3.703 31.817,3.703 L31.817,3.703 Z M23.011,2.81 C22.949,2.81 22.886,2.805 22.822,2.793 C22.501,2.732 22.178,2.673 21.853,2.621 C21.308,2.534 20.936,2.021 21.024,1.476 C21.111,0.929 21.623,0.559 22.169,0.646 C22.515,0.702 22.857,0.763 23.199,0.828 C23.741,0.933 24.096,1.456 23.992,1.999 C23.9,2.478 23.481,2.81 23.011,2.81 L23.011,2.81 Z M16.96,2.375 C16.447,2.375 16.011,1.983 15.965,1.463 C15.916,0.912 16.323,0.427 16.873,0.379 C17.227,0.348 17.587,0.328 17.95,0.319 C18.494,0.319 18.96,0.744 18.973,1.297 C18.985,1.849 18.548,2.307 17.996,2.319 C17.677,2.326 17.36,2.344 17.048,2.371 C17.019,2.374 16.989,2.375 16.96,2.375 L16.96,2.375 Z M42.714,2.279 C42.653,2.279 42.59,2.274 42.528,2.262 C42.218,2.203 41.905,2.155 41.59,2.116 C41.042,2.05 40.652,1.551 40.719,1.003 C40.786,0.454 41.289,0.047 41.832,0.132 C42.19,0.175 42.546,0.23 42.899,0.297 C43.441,0.399 43.798,0.922 43.696,1.465 C43.606,1.944 43.185,2.279 42.714,2.279 L42.714,2.279 Z M36.659,2.249 C36.178,2.249 35.755,1.902 35.673,1.413 C35.583,0.869 35.951,0.354 36.495,0.263 C36.847,0.204 37.201,0.155 37.554,0.116 C38.098,0.065 38.597,0.451 38.658,1 C38.719,1.55 38.323,2.044 37.774,2.105 C37.456,2.14 37.14,2.183 36.824,2.235 C36.769,2.245 36.713,2.249 36.659,2.249 L36.659,2.249 Z" id="Fill-1803" fill="#7383BF" sketch:type="MSShapeGroup"></path>
        </g>
    </g>
</svg>