<?xml version="1.0" encoding="UTF-8" standalone="no"?>
<svg width="50px" height="55px" viewBox="0 0 50 55" version="1.1" xmlns="http://www.w3.org/2000/svg" xmlns:xlink="http://www.w3.org/1999/xlink" xmlns:sketch="http://www.bohemiancoding.com/sketch/ns">
    <!-- Generator: Sketch 3.2.2 (9983) - http://www.bohemiancoding.com/sketch -->
    <title>44 - Healthy Premolar (Flat)</title>
    <desc>Created with Sketch.</desc>
    <defs></defs>
    <g id="Page-1" stroke="none" stroke-width="1" fill="none" fill-rule="evenodd" sketch:type="MSPage">
        <g id="44---Healthy-Premolar-(Flat)" sketch:type="MSLayerGroup" transform="translate(0.000000, -1.000000)">
            <path d="M49.133,10.908 C51.666,20.482 48.049,31.899 45.938,41.32 C45.02,45.414 44.253,49.605 42.147,53.296 C38.814,59.137 36.158,51.51 35.111,48.284 C33.823,44.319 33.405,39.197 29.444,36.838 C25.497,34.488 21.837,36.89 19.551,40.234 C17.235,43.622 16.357,47.559 14.889,51.327 C14.21,53.07 13.461,54.813 11.618,55.593 C9.662,55.593 8.304,52.02 7.586,50.285 C3.666,40.819 2.461,30.092 0.947,20.03 C-0.118,12.951 2.177,4.537 9.531,1.931 C13.526,0.515 19,1.821 23,3 C25.299,3.678 24.875,3.457 27.165,2.662 C27.341,2.601 27.514,2.519 27.694,2.445 C32.595,0.418 38.502,0.401 42.816,3.175 C45.727,5.047 48.291,7.725 49.133,10.908" id="Fill-97" fill="#ECE3D2" sketch:type="MSShapeGroup"></path>
            <path d="M43.916,6.504 C43.334,6.028 42.727,5.58 42.099,5.176 C37.785,2.402 31.878,2.418 26.977,4.445 C26.797,4.52 26.624,4.602 26.448,4.663 C25.644,4.942 25.177,5.148 24.807,5.271 C24.146,4.831 23.394,4.371 22.508,3.87 C22.098,3.638 21.933,3.163 22.057,2.729 C22.378,2.82 22.695,2.91 23,3 C19,1.821 13.526,0.515 9.531,1.931 C4.45,3.731 1.786,8.305 0.975,13.295 C3.017,20.729 8.072,26 14,26 C19.896,26 24.935,20.79 26.997,13.419 C33.915,12.931 39.968,10.325 43.916,6.504" id="Fill-98" fill="#F8EDDF" sketch:type="MSShapeGroup"></path>
            <path d="M13,16.414 L8.586,12 L13,7.586 L17.414,12 L13,16.414 L13,16.414 Z M11.414,12 L13,13.586 L14.586,12 L13,10.414 L11.414,12 L11.414,12 Z" id="Fill-1633" fill="#FFFFFF" sketch:type="MSShapeGroup"></path>
            <path d="M13,10 C12.447,10 12,9.553 12,9 L12,7 C12,6.447 12.447,6 13,6 C13.553,6 14,6.447 14,7 L14,9 C14,9.553 13.553,10 13,10" id="Fill-1634" fill="#FFFFFF" sketch:type="MSShapeGroup"></path>
            <path d="M10,13 L8,13 C7.447,13 7,12.553 7,12 C7,11.447 7.447,11 8,11 L10,11 C10.553,11 11,11.447 11,12 C11,12.553 10.553,13 10,13" id="Fill-1635" fill="#FFFFFF" sketch:type="MSShapeGroup"></path>
            <path d="M18,13 L16,13 C15.447,13 15,12.553 15,12 C15,11.447 15.447,11 16,11 L18,11 C18.553,11 19,11.447 19,12 C19,12.553 18.553,13 18,13" id="Fill-1636" fill="#FFFFFF" sketch:type="MSShapeGroup"></path>
            <path d="M13,18 C12.447,18 12,17.553 12,17 L12,15 C12,14.447 12.447,14 13,14 C13.553,14 14,14.447 14,15 L14,17 C14,17.553 13.553,18 13,18" id="Fill-1637" fill="#FFFFFF" sketch:type="MSShapeGroup"></path>
            <path d="M39,34.414 L34.586,30 L39,25.586 L43.414,30 L39,34.414 L39,34.414 Z M37.414,30 L39,31.586 L40.586,30 L39,28.414 L37.414,30 L37.414,30 Z" id="Fill-1638" fill="#FFFFFF" sketch:type="MSShapeGroup"></path>
            <path d="M39,28 C38.447,28 38,27.553 38,27 L38,25 C38,24.447 38.447,24 39,24 C39.553,24 40,24.447 40,25 L40,27 C40,27.553 39.553,28 39,28" id="Fill-1639" fill="#FFFFFF" sketch:type="MSShapeGroup"></path>
            <path d="M36,31 L34,31 C33.447,31 33,30.553 33,30 C33,29.447 33.447,29 34,29 L36,29 C36.553,29 37,29.447 37,30 C37,30.553 36.553,31 36,31" id="Fill-1640" fill="#FFFFFF" sketch:type="MSShapeGroup"></path>
            <path d="M44,31 L42,31 C41.447,31 41,30.553 41,30 C41,29.447 41.447,29 42,29 L44,29 C44.553,29 45,29.447 45,30 C45,30.553 44.553,31 44,31" id="Fill-1641" fill="#FFFFFF" sketch:type="MSShapeGroup"></path>
            <path d="M39,36 C38.447,36 38,35.553 38,35 L38,33 C38,32.447 38.447,32 39,32 C39.553,32 40,32.447 40,33 L40,35 C40,35.553 39.553,36 39,36" id="Fill-1642" fill="#FFFFFF" sketch:type="MSShapeGroup"></path>
            <path d="M31.003,15.688 C31.027,9.57 31.017,6.914 25.427,3.302 C24.803,3.494 24.421,3.419 23,3 C22.695,2.91 22.378,2.82 22.057,2.729 C21.933,3.163 22.098,3.638 22.508,3.87 C29.034,7.562 29.028,9.12 29.003,15.68 L29,17 C29,17.553 29.447,18 30,18 C30.553,18 31,17.553 31,17 L31.003,15.688" id="Fill-2568" fill="#FFF7EC" sketch:type="MSShapeGroup"></path>
        </g>
    </g>
</svg>