<?xml version="1.0" encoding="UTF-8" standalone="no"?>
<svg width="60px" height="60px" viewBox="0 0 60 60" version="1.1" xmlns="http://www.w3.org/2000/svg" xmlns:xlink="http://www.w3.org/1999/xlink" xmlns:sketch="http://www.bohemiancoding.com/sketch/ns">
    <!-- Generator: Sketch 3.2.2 (9983) - http://www.bohemiancoding.com/sketch -->
    <title>72 - Intestines (Flat)</title>
    <desc>Created with Sketch.</desc>
    <defs></defs>
    <g id="Page-1" stroke="none" stroke-width="1" fill="none" fill-rule="evenodd" sketch:type="MSPage">
        <g id="72---Intestines-(Flat)" sketch:type="MSLayerGroup">
            <path d="M38,46 C38,43.238 35.762,41 33,41 L40,41 C45.514,41 50,36.514 50,31 C50,25.486 45.514,21 40,21 C45.514,21 50,16.514 50,11 C50,10.23 49.904,9.483 49.738,8.762 C44.561,3.948 37.627,1 30,1 C23.549,1 17.591,3.109 12.774,6.672 C14.58,9.283 17.592,11 21,11 C15.486,11 11,15.486 11,21 C11,26.514 15.486,31 21,31 C15.486,31 11,35.486 11,41 C11,46.514 15.486,51 21,51 L27,51 L27,58.846 C27.986,58.947 28.987,59 30,59 C32.776,59 35.458,58.602 38,57.873 L38,46" id="Fill-1925" fill="#F8B563" sketch:type="MSShapeGroup"></path>
            <path d="M30,60 C28.97,60 27.926,59.946 26.897,59.841 C26.388,59.788 26,59.358 26,58.846 L26,52 L21,52 C14.935,52 10,47.065 10,41 C10,36.568 12.634,32.741 16.419,31 C12.634,29.259 10,25.432 10,21 C10,16.566 12.637,12.737 16.424,10.997 C14.651,10.183 13.098,8.896 11.952,7.24 C11.644,6.797 11.746,6.188 12.18,5.868 C17.37,2.029 23.532,0 30,0 C37.599,0 44.851,2.852 50.419,8.029 C50.565,8.165 50.668,8.343 50.713,8.537 C50.903,9.364 51,10.193 51,11 C51,15.432 48.366,19.259 44.581,21 C48.366,22.741 51,26.568 51,31 C51,37.065 46.065,42 40,42 L37.469,42 C38.42,43.063 39,44.465 39,46 L39,57.873 C39,58.319 38.704,58.712 38.275,58.834 C35.576,59.607 32.792,60 30,60 L30,60 Z M28,57.929 C31.034,58.146 34.062,57.866 37,57.109 L37,46 C37,43.794 35.206,42 33,42 C32.447,42 32,41.553 32,41 C32,40.447 32.447,40 33,40 L40,40 C44.963,40 49,35.963 49,31 C49,26.037 44.963,22 40,22 C39.447,22 39,21.553 39,21 C39,20.447 39.447,20 40,20 C44.963,20 49,15.963 49,11 C49,10.439 48.942,9.863 48.827,9.282 C43.661,4.584 36.987,2 30,2 C24.306,2 18.865,3.686 14.201,6.883 C15.904,8.851 18.381,10 21,10 C21.553,10 22,10.447 22,11 C22,11.553 21.553,12 21,12 C16.037,12 12,16.037 12,21 C12,25.963 16.037,30 21,30 C21.553,30 22,30.447 22,31 C22,31.553 21.553,32 21,32 C16.037,32 12,36.037 12,41 C12,45.963 16.037,50 21,50 L27,50 C27.553,50 28,50.447 28,51 L28,57.929 L28,57.929 Z" id="Fill-1926" fill="#FCCF9D" sketch:type="MSShapeGroup"></path>
            <path d="M42,12 L20,12 C19.447,12 19,11.553 19,11 C19,10.447 19.447,10 20,10 L42,10 C42.553,10 43,10.447 43,11 C43,11.553 42.553,12 42,12" id="Fill-2079" fill="#FCCF9D" sketch:type="MSShapeGroup"></path>
            <path d="M42,32 L20,32 C19.447,32 19,31.553 19,31 C19,30.447 19.447,30 20,30 L42,30 C42.553,30 43,30.447 43,31 C43,31.553 42.553,32 42,32" id="Fill-2080" fill="#FCCF9D" sketch:type="MSShapeGroup"></path>
            <path d="M40,22 L19,22 C18.447,22 18,21.553 18,21 C18,20.447 18.447,20 19,20 L40,20 C40.553,20 41,20.447 41,21 C41,21.553 40.553,22 40,22" id="Fill-2081" fill="#FCCF9D" sketch:type="MSShapeGroup"></path>
            <path d="M33,42 L20,42 C19.447,42 19,41.553 19,41 C19,40.447 19.447,40 20,40 L33,40 C33.553,40 34,40.447 34,41 C34,41.553 33.553,42 33,42" id="Fill-2082" fill="#FCCF9D" sketch:type="MSShapeGroup"></path>
            <path d="M50.484,8.111 C50.592,8.235 50.676,8.377 50.713,8.537 C50.903,9.364 51,10.193 51,11 C51,15.432 48.366,19.259 44.581,21 C48.366,22.741 51,26.568 51,31 C51,37.065 46.065,42 40,42 L37.469,42 C38.42,43.063 39,44.465 39,46 L39,57.873 C39,58.311 38.713,58.694 38.297,58.824 C50.814,55.215 60,43.664 60,30 C60,21.373 56.334,13.589 50.484,8.111" id="Fill-2225" fill="#694F87" sketch:type="MSShapeGroup"></path>
            <path d="M26,58.846 L26,52 L21,52 C14.935,52 10,47.065 10,41 C10,36.568 12.634,32.741 16.419,31 C12.634,29.259 10,25.432 10,21 C10,16.566 12.637,12.737 16.424,10.997 C14.651,10.183 13.098,8.896 11.952,7.24 C11.656,6.814 11.747,6.242 12.139,5.913 C4.778,11.385 0,20.144 0,30 C0,45.492 11.805,58.279 26.891,59.839 C26.385,59.784 26,59.356 26,58.846" id="Fill-2226" fill="#694F87" sketch:type="MSShapeGroup"></path>
        </g>
    </g>
</svg>