<?xml version="1.0" encoding="UTF-8" standalone="no"?>
<svg width="60px" height="39px" viewBox="0 0 60 39" version="1.1" xmlns="http://www.w3.org/2000/svg" xmlns:xlink="http://www.w3.org/1999/xlink" xmlns:sketch="http://www.bohemiancoding.com/sketch/ns">
    <!-- Generator: Sketch 3.2.2 (9983) - http://www.bohemiancoding.com/sketch -->
    <title>90 - Iris (Flat)</title>
    <desc>Created with Sketch.</desc>
    <defs></defs>
    <g id="Page-1" stroke="none" stroke-width="1" fill="none" fill-rule="evenodd" sketch:type="MSPage">
        <g id="90---Iris-(Flat)" sketch:type="MSLayerGroup">
            <path d="M58.365,19.286 L42.651,32 C35.488,39.162 23.876,39.162 16.714,32 L2,19.286 L16.714,6.372 C23.876,-0.791 35.488,-0.791 42.651,6.372 L58.365,19.286" id="Fill-157" fill="#ECE3D2" sketch:type="MSShapeGroup"></path>
            <path d="M49,18.872 C49,15.558 48.168,12.44 46.709,9.707 L42.651,6.372 C35.488,-0.791 23.876,-0.791 16.714,6.372 L11.848,10.643 C10.676,13.145 10,15.926 10,18.872 C10,22.318 10.918,25.541 12.489,28.349 L16.714,32 C23.876,39.162 35.488,39.162 42.651,32 L45.929,29.348 C47.864,26.319 49,22.731 49,18.872" id="Fill-158" fill="#6B5B4B" sketch:type="MSShapeGroup"></path>
            <path d="M29,10 C28.448,10 28,10.447 28,11 L28,12.883 C28,13.436 28.448,13.883 29,13.883 C29.552,13.883 30,13.436 30,12.883 L30,11 C30,10.447 29.552,10 29,10" id="Fill-159" fill="#998573" sketch:type="MSShapeGroup"></path>
            <path d="M29,24.117 C28.448,24.117 28,24.564 28,25.117 L28,27 C28,27.553 28.448,28 29,28 C29.552,28 30,27.553 30,27 L30,25.117 C30,24.564 29.552,24.117 29,24.117" id="Fill-160" fill="#998573" sketch:type="MSShapeGroup"></path>
            <path d="M37,18 L35.118,18 C34.565,18 34.118,18.447 34.118,19 C34.118,19.553 34.565,20 35.118,20 L37,20 C37.552,20 38,19.553 38,19 C38,18.447 37.552,18 37,18" id="Fill-161" fill="#998573" sketch:type="MSShapeGroup"></path>
            <path d="M22.882,20 C23.435,20 23.882,19.553 23.882,19 C23.882,18.447 23.435,18 22.882,18 L21,18 C20.448,18 20,18.447 20,19 C20,19.553 20.448,20 21,20 L22.882,20" id="Fill-162" fill="#998573" sketch:type="MSShapeGroup"></path>
            <path d="M34.033,22.619 C33.642,22.229 33.009,22.229 32.619,22.619 C32.228,23.01 32.228,23.643 32.619,24.033 L33.95,25.364 C34.145,25.56 34.401,25.657 34.657,25.657 C34.913,25.657 35.168,25.56 35.364,25.364 C35.754,24.974 35.754,24.341 35.364,23.95 L34.033,22.619" id="Fill-163" fill="#998573" sketch:type="MSShapeGroup"></path>
            <path d="M23.967,15.381 C24.163,15.576 24.418,15.674 24.674,15.674 C24.93,15.674 25.186,15.576 25.381,15.381 C25.772,14.99 25.772,14.357 25.381,13.967 L24.05,12.636 C23.66,12.245 23.027,12.245 22.636,12.636 C22.246,13.026 22.246,13.659 22.636,14.05 L23.967,15.381" id="Fill-164" fill="#998573" sketch:type="MSShapeGroup"></path>
            <path d="M32.619,15.381 C32.814,15.576 33.07,15.674 33.326,15.674 C33.581,15.674 33.837,15.576 34.033,15.381 L35.364,14.05 C35.754,13.659 35.754,13.026 35.364,12.636 C34.973,12.245 34.34,12.245 33.95,12.636 L32.619,13.967 C32.228,14.357 32.228,14.99 32.619,15.381" id="Fill-165" fill="#998573" sketch:type="MSShapeGroup"></path>
            <path d="M25.381,22.619 C24.991,22.229 24.358,22.229 23.967,22.619 L22.636,23.95 C22.246,24.341 22.246,24.974 22.636,25.364 C22.831,25.56 23.087,25.657 23.343,25.657 C23.599,25.657 23.855,25.56 24.05,25.364 L25.381,24.033 C25.772,23.643 25.772,23.01 25.381,22.619" id="Fill-166" fill="#998573" sketch:type="MSShapeGroup"></path>
            <path d="M27.043,11.179 C26.842,10.662 26.261,10.408 25.749,10.607 C25.234,10.808 24.979,11.387 25.178,11.901 L25.858,13.656 C26.012,14.053 26.39,14.295 26.79,14.295 C26.911,14.295 27.033,14.273 27.152,14.228 C27.667,14.027 27.922,13.448 27.723,12.934 L27.043,11.179" id="Fill-167" fill="#998573" sketch:type="MSShapeGroup"></path>
            <path d="M32.142,24.344 C31.942,23.827 31.359,23.572 30.848,23.773 C30.333,23.973 30.078,24.552 30.277,25.066 L30.957,26.821 C31.111,27.218 31.489,27.46 31.89,27.46 C32.01,27.46 32.132,27.438 32.251,27.393 C32.766,27.192 33.021,26.613 32.822,26.099 L32.142,24.344" id="Fill-168" fill="#998573" sketch:type="MSShapeGroup"></path>
            <path d="M33.772,17.151 C33.925,17.548 34.304,17.79 34.705,17.79 C34.825,17.79 34.947,17.769 35.065,17.723 L36.821,17.043 C37.336,16.844 37.592,16.265 37.393,15.749 C37.193,15.233 36.615,14.979 36.099,15.178 L34.344,15.857 C33.829,16.057 33.573,16.636 33.772,17.151" id="Fill-169" fill="#998573" sketch:type="MSShapeGroup"></path>
            <path d="M24.228,20.849 C24.029,20.333 23.45,20.079 22.935,20.277 L21.179,20.957 C20.664,21.156 20.408,21.735 20.607,22.251 C20.761,22.648 21.139,22.89 21.54,22.89 C21.66,22.89 21.782,22.868 21.901,22.822 L23.656,22.143 C24.171,21.943 24.427,21.364 24.228,20.849" id="Fill-170" fill="#998573" sketch:type="MSShapeGroup"></path>
            <path d="M36.722,21.316 L35,20.557 C34.495,20.337 33.905,20.563 33.681,21.068 C33.458,21.573 33.687,22.164 34.192,22.387 L35.915,23.146 C36.046,23.204 36.183,23.231 36.318,23.231 C36.702,23.231 37.068,23.009 37.233,22.635 C37.456,22.13 37.227,21.539 36.722,21.316" id="Fill-171" fill="#998573" sketch:type="MSShapeGroup"></path>
            <path d="M21.278,16.684 L23,17.443 C23.131,17.501 23.269,17.528 23.403,17.528 C23.788,17.528 24.154,17.306 24.319,16.932 C24.542,16.427 24.312,15.836 23.808,15.613 L22.085,14.854 C21.581,14.633 20.99,14.86 20.767,15.365 C20.544,15.87 20.773,16.461 21.278,16.684" id="Fill-172" fill="#998573" sketch:type="MSShapeGroup"></path>
            <path d="M31.067,14.318 C31.198,14.376 31.335,14.403 31.471,14.403 C31.854,14.403 32.221,14.182 32.386,13.808 L33.146,12.086 C33.37,11.581 33.141,10.99 32.636,10.767 C32.132,10.545 31.54,10.771 31.317,11.277 L30.557,12.999 C30.333,13.504 30.562,14.095 31.067,14.318" id="Fill-173" fill="#998573" sketch:type="MSShapeGroup"></path>
            <path d="M26.933,23.682 C26.428,23.46 25.837,23.687 25.614,24.192 L24.853,25.914 C24.63,26.419 24.859,27.01 25.364,27.233 C25.495,27.291 25.632,27.318 25.768,27.318 C26.151,27.318 26.518,27.097 26.683,26.723 L27.443,25.001 C27.667,24.496 27.438,23.905 26.933,23.682" id="Fill-174" fill="#998573" sketch:type="MSShapeGroup"></path>
            <path d="M35,19 C35,22.314 32.314,25 29,25 C25.686,25 23,22.314 23,19 C23,15.686 25.686,13 29,13 C32.314,13 35,15.686 35,19" id="Fill-902" fill="#46363D" sketch:type="MSShapeGroup"></path>
            <path d="M28,4.372 C26.528,4.372 25.079,4.599 23.693,5.045 C23.168,5.215 22.879,5.778 23.049,6.304 C23.185,6.728 23.578,6.997 24,6.997 C24.102,6.997 24.206,6.981 24.308,6.949 C25.494,6.566 26.736,6.372 28,6.372 C28.552,6.372 29,5.925 29,5.372 C29,4.819 28.552,4.372 28,4.372" id="Fill-903" fill="#998573" sketch:type="MSShapeGroup"></path>
            <path d="M20.885,6.379 C20.768,6.392 20.65,6.427 20.539,6.484 C20.52,6.494 20.502,6.505 20.484,6.516 L20.483,6.516 C20.033,6.786 19.77,7.4 20.003,7.87 C20.135,8.134 20.396,8.301 20.687,8.361 C20.788,8.396 20.894,8.412 21.001,8.412 C21.185,8.412 21.372,8.361 21.539,8.255 C22.415,7.694 21.985,6.894 21.966,6.859 C21.901,6.741 21.579,6.24 20.885,6.379" id="Fill-904" fill="#998573" sketch:type="MSShapeGroup"></path>
            <path d="M17.893,8.679 C15.382,11.297 14,14.739 14,18.372 C14,18.925 14.448,19.372 15,19.372 C15.552,19.372 16,18.925 16,18.372 C16,15.258 17.185,12.307 19.336,10.063 C19.719,9.665 19.706,9.031 19.307,8.649 C18.909,8.269 18.275,8.281 17.893,8.679" id="Fill-905" fill="#998573" sketch:type="MSShapeGroup"></path>
            <path d="M30,14.5 C30,15.881 28.881,17 27.5,17 C26.119,17 25,15.881 25,14.5 C25,13.119 26.119,12 27.5,12 C28.881,12 30,13.119 30,14.5" id="Fill-2355" fill="#FFFFFF" sketch:type="MSShapeGroup"></path>
            <path d="M29.683,38.371 C24.517,38.371 19.66,36.36 16.007,32.707 L0.477,19.292 L16.055,5.62 C19.66,2.012 24.517,0 29.683,0 C34.848,0 39.705,2.012 43.357,5.665 L59.947,19.292 L43.32,32.745 C39.671,36.374 34.831,38.371 29.683,38.371 L29.683,38.371 Z M3.522,19.28 L17.368,31.243 C20.696,34.568 25.051,36.371 29.683,36.371 C34.314,36.371 38.668,34.568 41.943,31.293 L42.021,31.223 L56.782,19.28 L42.016,7.145 C38.668,3.804 34.314,2 29.683,2 C25.051,2 20.697,3.804 17.421,7.079 L3.522,19.28 L3.522,19.28 Z" id="Fill-2356" fill="#FCCF9D" sketch:type="MSShapeGroup"></path>
        </g>
    </g>
</svg>