<?xml version="1.0" encoding="UTF-8" standalone="no"?>
<svg width="56px" height="60px" viewBox="0 0 56 60" version="1.1" xmlns="http://www.w3.org/2000/svg" xmlns:xlink="http://www.w3.org/1999/xlink" xmlns:sketch="http://www.bohemiancoding.com/sketch/ns">
    <!-- Generator: Sketch 3.2.2 (9983) - http://www.bohemiancoding.com/sketch -->
    <title>53 - Kidney (Flat)</title>
    <desc>Created with Sketch.</desc>
    <defs></defs>
    <g id="Page-1" stroke="none" stroke-width="1" fill="none" fill-rule="evenodd" sketch:type="MSPage">
        <g id="53---Kidney-(Flat)" sketch:type="MSLayerGroup">
            <path d="M17.698,22 C17.698,22 7.198,3 28.698,1 C50.197,-1 61.072,28.875 53.698,40 C53.698,40 57.322,59.125 40.698,59 C40.698,59 30.187,60.75 29.698,43 C29.121,22.121 17.698,22 17.698,22" id="Fill-1964" fill="#B34B4D" sketch:type="MSShapeGroup"></path>
            <path d="M39,37.456 L35.47,37.456 C31.317,33.348 25.366,32.491 20.574,34.916 C23.152,30.393 26.09,28.846 28.279,28.395 C30.497,27.938 32.25,28.575 32.695,29.02 L35.524,31.85 C35.72,32.045 35.976,32.143 36.231,32.143 C36.487,32.143 36.743,32.045 36.938,31.85 C37.329,31.459 37.329,30.826 36.938,30.436 L34.817,28.313 L36.938,26.192 C37.329,25.802 37.329,25.169 36.938,24.778 C36.548,24.388 35.915,24.388 35.524,24.778 L33.281,27.022 C32.04,26.352 30.055,25.986 27.876,26.436 C25.315,26.964 21.911,28.691 19,33.641 L19,28 C19,23.589 22.589,20 27,20 L31,20 C31.553,20 32,19.553 32,19 C32,18.447 31.553,18 31,18 L28,18 L28,15 C28,14.447 27.553,14 27,14 C26.447,14 26,14.447 26,15 L26,18.051 C20.954,18.554 17,22.824 17,28 L17,38 C17,46.822 9.822,54 1,54 C0.447,54 0,54.447 0,55 C0,55.553 0.447,56 1,56 C10.768,56 18.727,48.173 18.976,38.463 C23.211,34.497 29.709,34.635 34,38.82 L34,42.456 C34,43.009 34.447,43.456 35,43.456 C35.553,43.456 36,43.009 36,42.456 L36,39.456 L39,39.456 C39.553,39.456 40,39.009 40,38.456 C40,37.903 39.553,37.456 39,37.456" id="Fill-1965" fill="#7383BF" sketch:type="MSShapeGroup"></path>
            <path d="M51.286,32.725 C51.321,32.462 51.25,32.195 51.088,31.985 C51.009,31.882 50.912,31.798 50.802,31.733 C50.8,31.732 50.798,31.729 50.796,31.728 L50.795,31.727 C48.713,30.524 47.229,28.608 46.619,26.332 C46.009,24.056 46.336,21.654 47.539,19.571 C47.551,19.551 47.55,19.528 47.56,19.508 C47.608,19.411 47.648,19.311 47.663,19.203 C47.698,18.94 47.627,18.673 47.465,18.463 C47.304,18.253 47.066,18.115 46.804,18.081 C46.672,18.063 46.539,18.072 46.412,18.106 C44.085,18.728 41.663,18.409 39.583,17.208 C37.503,16.007 36.014,14.065 35.392,11.741 C35.25,11.208 34.701,10.891 34.167,11.034 C33.634,11.177 33.317,11.726 33.46,12.259 C34.221,15.099 36.04,17.472 38.583,18.94 C40.276,19.918 42.157,20.417 44.062,20.417 C44.369,20.417 44.675,20.382 44.982,20.357 C44.223,22.443 44.109,24.69 44.688,26.85 C45.265,29.006 46.485,30.892 48.18,32.319 C43.471,34.547 40.864,39.893 42.26,45.101 C42.379,45.548 42.783,45.842 43.225,45.842 C43.31,45.842 43.398,45.831 43.484,45.808 C44.018,45.665 44.334,45.116 44.191,44.583 C42.907,39.789 45.762,34.844 50.555,33.56 C50.557,33.559 50.559,33.557 50.561,33.556 C50.672,33.526 50.775,33.47 50.87,33.403 C50.893,33.387 50.915,33.371 50.936,33.353 C51.023,33.281 51.102,33.198 51.162,33.094 C51.174,33.074 51.173,33.051 51.183,33.03 C51.231,32.934 51.271,32.834 51.286,32.725" id="Fill-1966" fill="#F8B563" sketch:type="MSShapeGroup"></path>
        </g>
    </g>
</svg>