<?xml version="1.0" encoding="UTF-8" standalone="no"?>
<svg width="55px" height="52px" viewBox="0 0 55 52" version="1.1" xmlns="http://www.w3.org/2000/svg" xmlns:xlink="http://www.w3.org/1999/xlink" xmlns:sketch="http://www.bohemiancoding.com/sketch/ns">
    <!-- Generator: Sketch 3.2.2 (9983) - http://www.bohemiancoding.com/sketch -->
    <title>75 - Kidneys (Flat)</title>
    <desc>Created with Sketch.</desc>
    <defs></defs>
    <g id="Page-1" stroke="none" stroke-width="1" fill="none" fill-rule="evenodd" sketch:type="MSPage">
        <g id="75---Kidneys-(Flat)" sketch:type="MSLayerGroup">
            <path d="M18.279,21.704 C18.279,27.976 23.071,34.02 21.779,37.704 C20.112,42.454 16.135,42.704 13.029,42.704 C6.263,42.704 0.779,33.302 0.779,21.704 C0.779,10.106 6.263,0.704 13.029,0.704 C17.127,0.704 21.58,4.155 21.779,9.454 C21.908,12.902 18.279,17.132 18.279,21.704" id="Fill-975" fill="#B34B4D" sketch:type="MSShapeGroup"></path>
            <path d="M37.5,21.704 C37.5,27.976 32.707,34.02 34,37.704 C35.667,42.454 39.643,42.704 42.75,42.704 C49.516,42.704 55,33.302 55,21.704 C55,10.106 49.516,0.704 42.75,0.704 C38.651,0.704 34.198,4.155 34,9.454 C33.871,12.902 37.5,17.132 37.5,21.704" id="Fill-976" fill="#B34B4D" sketch:type="MSShapeGroup"></path>
            <path d="M18.778,19.704 C18.226,19.704 17.778,19.257 17.778,18.704 C17.778,18.151 18.226,17.704 18.778,17.704 C21.865,17.704 25,12.64 25,9 C25,8.447 25.447,8 26,8 C26.553,8 27,8.447 27,9 C27,13.227 23.316,19.704 18.778,19.704" id="Fill-977" fill="#DD342E" sketch:type="MSShapeGroup"></path>
            <path d="M36.778,19.704 C32.267,19.704 29,13.311 29,9 C29,8.447 29.447,8 30,8 C30.553,8 31,8.447 31,9 C31,12.438 33.589,17.704 36.778,17.704 C37.331,17.704 37.778,18.151 37.778,18.704 C37.778,19.257 37.331,19.704 36.778,19.704" id="Fill-978" fill="#DD342E" sketch:type="MSShapeGroup"></path>
            <path d="M18.778,19.704 C18.226,19.704 17.778,19.257 17.778,18.704 C17.778,14.672 14.441,11 10.778,11 C10.226,11 9.778,10.553 9.778,10 C9.778,9.447 10.226,9 10.778,9 C15.572,9 19.778,13.534 19.778,18.704 C19.778,19.257 19.331,19.704 18.778,19.704" id="Fill-1431" fill="#7383BF" sketch:type="MSShapeGroup"></path>
            <path d="M10.778,32 C10.226,32 9.778,31.553 9.778,31 C9.778,30.447 10.226,30 10.778,30 C14.67,30 17.284,25.861 17.284,21.995 C17.284,21.442 17.731,20.995 18.284,20.995 C18.837,20.995 19.284,21.442 19.284,21.995 C19.284,26.827 15.866,32 10.778,32" id="Fill-1432" fill="#F8B563" sketch:type="MSShapeGroup"></path>
            <path d="M45.504,32 C40.71,32 36.504,27.466 36.504,22.296 C36.504,21.743 36.951,21.296 37.504,21.296 C38.057,21.296 38.504,21.743 38.504,22.296 C38.504,26.328 41.841,30 45.504,30 C46.057,30 46.504,30.447 46.504,31 C46.504,31.553 46.057,32 45.504,32" id="Fill-1433" fill="#F8B563" sketch:type="MSShapeGroup"></path>
            <path d="M36.778,20 C36.226,20 35.778,19.553 35.778,19 C35.778,14.279 39.627,9 44.778,9 C45.331,9 45.778,9.447 45.778,10 C45.778,10.553 45.331,11 44.778,11 C40.836,11 37.778,15.301 37.778,19 C37.778,19.553 37.331,20 36.778,20" id="Fill-1434" fill="#7383BF" sketch:type="MSShapeGroup"></path>
            <path d="M44.504,20 L37.977,20 C37.975,20 37.973,20.001 37.97,20.001 C33.543,20.014 29.732,22.657 28,26.444 C26.264,22.649 22.439,20 18,20 C17.895,20 17.799,20.03 17.704,20.06 L11.778,20.06 C11.226,20.06 10.778,20.507 10.778,21.06 C10.778,21.612 11.226,22.06 11.778,22.06 L18.305,22.06 C18.367,22.06 18.421,22.035 18.48,22.024 C23.219,22.276 27,26.199 27,31 L27,51 C27,51.553 27.447,52 28,52 C28.553,52 29,51.553 29,51 L29,31 C29,26.037 33.037,22 38,22 L44.504,22 C45.057,22 45.504,21.553 45.504,21 C45.504,20.447 45.057,20 44.504,20" id="Fill-1579" fill="#DD342E" sketch:type="MSShapeGroup"></path>
        </g>
    </g>
</svg>