<?xml version="1.0" encoding="UTF-8" standalone="no"?>
<svg width="58px" height="58px" viewBox="0 0 58 58" version="1.1" xmlns="http://www.w3.org/2000/svg" xmlns:xlink="http://www.w3.org/1999/xlink" xmlns:sketch="http://www.bohemiancoding.com/sketch/ns">
    <!-- Generator: Sketch 3.2.2 (9983) - http://www.bohemiancoding.com/sketch -->
    <title>105 - Knee Bones (Flat)</title>
    <desc>Created with Sketch.</desc>
    <defs></defs>
    <g id="Page-1" stroke="none" stroke-width="1" fill="none" fill-rule="evenodd" sketch:type="MSPage">
        <g id="105---Knee-Bones-(Flat)" sketch:type="MSLayerGroup">
            <path d="M9.017,50 C10.79,41.272 15,33 15,33 L1.179,20.815 C0.416,23.412 0,26.156 0,29 C0,37.267 3.467,44.718 9.017,50" id="Fill-885" fill="#DD691D" sketch:type="MSShapeGroup"></path>
            <path d="M30.556,0.042 L44.525,13.68 C48.535,17.594 50.164,23.342 48.805,28.778 L48,32 L48.807,50.164 C54.46,44.873 58,37.354 58,29 C58,13.506 45.848,0.851 30.556,0.042" id="Fill-886" fill="#DD691D" sketch:type="MSShapeGroup"></path>
            <path d="M29,58 C36.661,58 43.623,55.024 48.808,50.172 L48,32 L48.805,28.778 C50.164,23.342 48.535,17.594 44.525,13.68 L30.556,0.042 C30.041,0.015 29.522,0 29,0 C15.827,0 4.713,8.786 1.179,20.815 L15,33 C15,33 10.789,41.275 9.016,50.004 C14.218,54.955 21.252,58 29,58" id="Fill-1358" fill="#FCCF9D" sketch:type="MSShapeGroup"></path>
            <path d="M28.549,7.01 C27.141,5.429 25.203,4.653 23.298,4.689 C20.945,4.733 18.554,4.054 16.492,2.831 C13.258,4.379 10.361,6.513 7.926,9.09 C9.807,11.405 10.744,14.313 10.689,17.298 C10.653,19.203 11.429,21.141 13.01,22.549 C15.436,24.712 19.128,24.866 21.607,22.9 C22.632,22.086 23.332,21.045 23.714,19.911 C24.061,18.884 24.884,18.061 25.912,17.714 C27.044,17.332 28.086,16.632 28.9,15.607 C30.866,13.128 30.712,9.436 28.549,7.01" id="Fill-1362" fill="#F8F2D5" sketch:type="MSShapeGroup"></path>
            <path d="M37.436,36.044 C36.135,35.894 34.904,36.136 33.833,36.667 C32.86,37.148 31.697,37.148 30.725,36.667 C29.654,36.136 28.422,35.894 27.122,36.044 C23.978,36.406 21.477,39.125 21.291,42.37 C21.169,44.485 21.99,46.403 23.363,47.725 C25.81,50.083 27.329,53.279 27.329,56.727 L27.329,57.949 C27.882,57.98 28.439,58 29,58 C31.878,58 34.655,57.575 37.279,56.794 L37.279,56.727 C37.279,53.279 38.748,50.083 41.195,47.725 C42.567,46.403 43.388,44.485 43.267,42.37 C43.08,39.125 40.579,36.406 37.436,36.044" id="Fill-1363" fill="#F8F2D5" sketch:type="MSShapeGroup"></path>
            <path d="M39.279,26 C39.279,29.866 36.145,33 32.279,33 C28.413,33 25.279,29.866 25.279,26 C25.279,22.134 28.413,19 32.279,19 C36.145,19 39.279,22.134 39.279,26" id="Fill-2009" fill="#FFFFFF" sketch:type="MSShapeGroup"></path>
        </g>
    </g>
</svg>