<?xml version="1.0" encoding="UTF-8" standalone="no"?>
<svg width="54px" height="60px" viewBox="0 0 54 60" version="1.1" xmlns="http://www.w3.org/2000/svg" xmlns:xlink="http://www.w3.org/1999/xlink" xmlns:sketch="http://www.bohemiancoding.com/sketch/ns">
    <!-- Generator: Sketch 3.2.2 (9983) - http://www.bohemiancoding.com/sketch -->
    <title>77 - Left Brain Activity (Flat)</title>
    <desc>Created with Sketch.</desc>
    <defs></defs>
    <g id="Page-1" stroke="none" stroke-width="1" fill="none" fill-rule="evenodd" sketch:type="MSPage">
        <g id="77---Left-Brain-Activity-(Flat)" sketch:type="MSLayerGroup">
            <path d="M2.272,32.227 C3.198,33.668 6.095,36.501 5.991,38.227 C5.798,41.411 7.765,45.452 10.531,46.872 C12.031,47.642 11.635,48.897 12.38,50.446 C13.755,53.303 16.568,51.772 16.991,54.832 C17.705,60.003 22.973,59.257 25.562,55.238 C26.217,54.222 27.764,54.222 28.419,55.238 C31.009,59.257 36.277,60.003 36.991,54.832 C37.413,51.772 40.227,53.303 41.602,50.446 C42.347,48.897 41.951,47.642 43.451,46.872 C46.217,45.452 48.184,41.411 47.991,38.227 C47.886,36.501 50.783,33.668 51.709,32.227 C53.418,29.569 53.418,25.885 51.709,23.227 C50.783,21.786 50.339,18.953 50.443,17.227 C50.636,14.043 48.963,10.647 46.196,9.227 C44.696,8.457 43.481,8.776 42.736,7.227 C41.362,4.37 40.074,4.028 36.991,4.227 C35.319,4.335 34.574,1.644 31.991,1.25 C31.977,1.248 31.968,1.234 31.957,1.227 C31.045,0.609 29.312,1.342 28.154,2.359 C27.505,2.928 26.573,2.919 25.885,2.398 C24.963,1.701 23.556,1.227 22.024,1.227 C22.011,1.227 22.004,1.25 21.991,1.25 C19.407,1.25 18.662,4.335 16.991,4.227 C13.908,4.028 12.62,4.37 11.245,7.227 C10.5,8.776 9.285,8.457 7.786,9.227 C5.019,10.647 3.346,14.043 3.539,17.227 C3.643,18.953 3.198,21.786 2.272,23.227 C0.564,25.885 0.564,29.569 2.272,32.227" id="Fill-2235" fill="#EFC9B3" sketch:type="MSShapeGroup"></path>
            <path d="M35.991,42 C39.851,42 42.991,45.141 42.991,49 C42.991,49.553 42.543,50 41.991,50 C41.439,50 40.991,49.553 40.991,49 C40.991,46.243 38.748,44 35.991,44 C35.439,44 34.991,43.553 34.991,43 C34.991,42.447 35.439,42 35.991,42" id="Fill-2236" fill="#CF8C6D" sketch:type="MSShapeGroup"></path>
            <path d="M42.991,10 C41.336,10 39.991,11.346 39.991,13 C39.991,13.553 39.543,14 38.991,14 C38.439,14 37.991,13.553 37.991,13 C37.991,10.243 40.234,8 42.991,8 C43.543,8 43.991,8.447 43.991,9 C43.991,9.553 43.543,10 42.991,10" id="Fill-2237" fill="#CF8C6D" sketch:type="MSShapeGroup"></path>
            <path d="M32.991,24 C32.991,23.447 33.439,23 33.991,23 C34.543,23 34.991,23.447 34.991,24 C34.991,27.309 37.682,30 40.991,30 C45.402,30 48.991,33.589 48.991,38 C48.991,38.553 48.543,39 47.991,39 C47.439,39 46.991,38.553 46.991,38 C46.991,34.691 44.299,32 40.991,32 C36.58,32 32.991,28.411 32.991,24" id="Fill-2238" fill="#CF8C6D" sketch:type="MSShapeGroup"></path>
            <path d="M31.802,31.979 C32.192,31.589 32.825,31.589 33.216,31.979 C34.495,33.259 35.2,34.958 35.2,36.765 C35.2,38.571 34.495,40.271 33.216,41.55 C33.021,41.745 32.765,41.843 32.509,41.843 C32.253,41.843 31.997,41.745 31.802,41.55 C31.411,41.159 31.411,40.526 31.802,40.136 C32.703,39.234 33.2,38.037 33.2,36.765 C33.2,35.492 32.703,34.295 31.802,33.394 C31.411,33.003 31.411,32.37 31.802,31.979" id="Fill-2239" fill="#CF8C6D" sketch:type="MSShapeGroup"></path>
            <path d="M31.449,13.103 C35.128,12.465 38.64,14.924 39.285,18.599 C39.74,21.188 42.217,22.923 44.806,22.469 C45.353,22.378 45.868,22.737 45.963,23.281 C46.059,23.825 45.695,24.344 45.151,24.44 C44.757,24.509 44.365,24.542 43.977,24.542 C40.755,24.542 37.892,22.226 37.315,18.944 C36.861,16.355 34.381,14.621 31.795,15.073 C31.249,15.162 30.732,14.804 30.637,14.261 C30.541,13.717 30.905,13.198 31.449,13.103" id="Fill-2240" fill="#CF8C6D" sketch:type="MSShapeGroup"></path>
            <path d="M18.991,55.483 C19.543,55.483 19.991,55.93 19.991,56.483 C19.991,57.035 19.543,57.483 18.991,57.483 C18.439,57.483 17.991,57.035 17.991,56.483 C17.991,55.93 18.439,55.483 18.991,55.483" id="Fill-2241" fill="#FFFFFF" sketch:type="MSShapeGroup"></path>
            <path d="M22.991,55.483 C23.543,55.483 23.991,55.93 23.991,56.483 C23.991,57.035 23.543,57.483 22.991,57.483 C22.438,57.483 21.991,57.035 21.991,56.483 C21.991,55.93 22.438,55.483 22.991,55.483" id="Fill-2242" fill="#FFFFFF" sketch:type="MSShapeGroup"></path>
            <path d="M16.991,53.483 C17.543,53.483 17.991,53.93 17.991,54.483 C17.991,55.035 17.543,55.483 16.991,55.483 C16.438,55.483 15.991,55.035 15.991,54.483 C15.991,53.93 16.438,53.483 16.991,53.483" id="Fill-2243" fill="#FFFFFF" sketch:type="MSShapeGroup"></path>
            <path d="M24.991,53.483 C25.543,53.483 25.991,53.93 25.991,54.483 C25.991,55.035 25.543,55.483 24.991,55.483 C24.439,55.483 23.991,55.035 23.991,54.483 C23.991,53.93 24.439,53.483 24.991,53.483" id="Fill-2244" fill="#FFFFFF" sketch:type="MSShapeGroup"></path>
            <path d="M18.991,51.483 C19.543,51.483 19.991,51.93 19.991,52.483 C19.991,53.035 19.543,53.483 18.991,53.483 C18.439,53.483 17.991,53.035 17.991,52.483 C17.991,51.93 18.439,51.483 18.991,51.483" id="Fill-2245" fill="#FFFFFF" sketch:type="MSShapeGroup"></path>
            <path d="M22.991,51.483 C23.543,51.483 23.991,51.93 23.991,52.483 C23.991,53.035 23.543,53.483 22.991,53.483 C22.438,53.483 21.991,53.035 21.991,52.483 C21.991,51.93 22.438,51.483 22.991,51.483" id="Fill-2246" fill="#FFFFFF" sketch:type="MSShapeGroup"></path>
            <path d="M20.991,49.483 C21.543,49.483 21.991,49.93 21.991,50.483 C21.991,51.035 21.543,51.483 20.991,51.483 C20.438,51.483 19.991,51.035 19.991,50.483 C19.991,49.93 20.438,49.483 20.991,49.483" id="Fill-2247" fill="#FFFFFF" sketch:type="MSShapeGroup"></path>
            <path d="M16.991,49.483 C17.543,49.483 17.991,49.93 17.991,50.483 C17.991,51.035 17.543,51.483 16.991,51.483 C16.438,51.483 15.991,51.035 15.991,50.483 C15.991,49.93 16.438,49.483 16.991,49.483" id="Fill-2248" fill="#FFFFFF" sketch:type="MSShapeGroup"></path>
            <path d="M24.991,51.483 C24.439,51.483 23.991,51.035 23.991,50.483 C23.991,49.93 24.439,49.483 24.991,49.483 C25.543,49.483 25.991,49.93 25.991,50.483 C25.991,51.035 25.543,51.483 24.991,51.483" id="Fill-2249" fill="#FFFFFF" sketch:type="MSShapeGroup"></path>
            <path d="M16.991,45.483 C17.543,45.483 17.991,45.93 17.991,46.483 C17.991,47.035 17.543,47.483 16.991,47.483 C16.438,47.483 15.991,47.035 15.991,46.483 C15.991,45.93 16.438,45.483 16.991,45.483" id="Fill-2250" fill="#FFFFFF" sketch:type="MSShapeGroup"></path>
            <path d="M24.991,47.483 C24.439,47.483 23.991,47.035 23.991,46.483 C23.991,45.93 24.439,45.483 24.991,45.483 C25.543,45.483 25.991,45.93 25.991,46.483 C25.991,47.035 25.543,47.483 24.991,47.483" id="Fill-2251" fill="#FFFFFF" sketch:type="MSShapeGroup"></path>
            <path d="M22.991,43.483 C23.543,43.483 23.991,43.93 23.991,44.483 C23.991,45.035 23.543,45.483 22.991,45.483 C22.438,45.483 21.991,45.035 21.991,44.483 C21.991,43.93 22.438,43.483 22.991,43.483" id="Fill-2252" fill="#FFFFFF" sketch:type="MSShapeGroup"></path>
            <path d="M20.991,43.483 C20.438,43.483 19.991,43.035 19.991,42.483 C19.991,41.93 20.438,41.483 20.991,41.483 C21.543,41.483 21.991,41.93 21.991,42.483 C21.991,43.035 21.543,43.483 20.991,43.483" id="Fill-2253" fill="#FFFFFF" sketch:type="MSShapeGroup"></path>
            <path d="M16.991,41.483 C17.543,41.483 17.991,41.93 17.991,42.483 C17.991,43.035 17.543,43.483 16.991,43.483 C16.438,43.483 15.991,43.035 15.991,42.483 C15.991,41.93 16.438,41.483 16.991,41.483" id="Fill-2254" fill="#FFFFFF" sketch:type="MSShapeGroup"></path>
            <path d="M24.991,43.483 C24.439,43.483 23.991,43.035 23.991,42.483 C23.991,41.93 24.439,41.483 24.991,41.483 C25.543,41.483 25.991,41.93 25.991,42.483 C25.991,43.035 25.543,43.483 24.991,43.483" id="Fill-2255" fill="#FFFFFF" sketch:type="MSShapeGroup"></path>
            <path d="M18.991,39.483 C19.543,39.483 19.991,39.93 19.991,40.483 C19.991,41.035 19.543,41.483 18.991,41.483 C18.439,41.483 17.991,41.035 17.991,40.483 C17.991,39.93 18.439,39.483 18.991,39.483" id="Fill-2256" fill="#FFFFFF" sketch:type="MSShapeGroup"></path>
            <path d="M24.991,39.483 C24.439,39.483 23.991,39.035 23.991,38.483 C23.991,37.93 24.439,37.483 24.991,37.483 C25.543,37.483 25.991,37.93 25.991,38.483 C25.991,39.035 25.543,39.483 24.991,39.483" id="Fill-2257" fill="#FFFFFF" sketch:type="MSShapeGroup"></path>
            <path d="M18.991,37.483 C18.439,37.483 17.991,37.035 17.991,36.483 C17.991,35.93 18.439,35.483 18.991,35.483 C19.543,35.483 19.991,35.93 19.991,36.483 C19.991,37.035 19.543,37.483 18.991,37.483" id="Fill-2258" fill="#FFFFFF" sketch:type="MSShapeGroup"></path>
            <path d="M22.991,35.483 C23.543,35.483 23.991,35.93 23.991,36.483 C23.991,37.035 23.543,37.483 22.991,37.483 C22.438,37.483 21.991,37.035 21.991,36.483 C21.991,35.93 22.438,35.483 22.991,35.483" id="Fill-2259" fill="#FFFFFF" sketch:type="MSShapeGroup"></path>
            <path d="M24.991,35.483 C24.439,35.483 23.991,35.035 23.991,34.483 C23.991,33.93 24.439,33.483 24.991,33.483 C25.543,33.483 25.991,33.93 25.991,34.483 C25.991,35.035 25.543,35.483 24.991,35.483" id="Fill-2260" fill="#FFFFFF" sketch:type="MSShapeGroup"></path>
            <path d="M22.991,33.483 C22.438,33.483 21.991,33.035 21.991,32.483 C21.991,31.93 22.438,31.483 22.991,31.483 C23.543,31.483 23.991,31.93 23.991,32.483 C23.991,33.035 23.543,33.483 22.991,33.483" id="Fill-2261" fill="#FFFFFF" sketch:type="MSShapeGroup"></path>
            <path d="M20.991,31.483 C20.438,31.483 19.991,31.035 19.991,30.483 C19.991,29.93 20.438,29.483 20.991,29.483 C21.543,29.483 21.991,29.93 21.991,30.483 C21.991,31.035 21.543,31.483 20.991,31.483" id="Fill-2262" fill="#FFFFFF" sketch:type="MSShapeGroup"></path>
            <path d="M16.991,29.483 C17.543,29.483 17.991,29.93 17.991,30.483 C17.991,31.035 17.543,31.483 16.991,31.483 C16.438,31.483 15.991,31.035 15.991,30.483 C15.991,29.93 16.438,29.483 16.991,29.483" id="Fill-2263" fill="#FFFFFF" sketch:type="MSShapeGroup"></path>
            <path d="M24.991,31.483 C24.439,31.483 23.991,31.035 23.991,30.483 C23.991,29.93 24.439,29.483 24.991,29.483 C25.543,29.483 25.991,29.93 25.991,30.483 C25.991,31.035 25.543,31.483 24.991,31.483" id="Fill-2264" fill="#FFFFFF" sketch:type="MSShapeGroup"></path>
            <path d="M18.991,29.483 C18.439,29.483 17.991,29.035 17.991,28.483 C17.991,27.93 18.439,27.483 18.991,27.483 C19.543,27.483 19.991,27.93 19.991,28.483 C19.991,29.035 19.543,29.483 18.991,29.483" id="Fill-2265" fill="#FFFFFF" sketch:type="MSShapeGroup"></path>
            <path d="M20.991,27.483 C20.438,27.483 19.991,27.035 19.991,26.483 C19.991,25.93 20.438,25.483 20.991,25.483 C21.543,25.483 21.991,25.93 21.991,26.483 C21.991,27.035 21.543,27.483 20.991,27.483" id="Fill-2266" fill="#FFFFFF" sketch:type="MSShapeGroup"></path>
            <path d="M16.991,27.483 C16.438,27.483 15.991,27.035 15.991,26.483 C15.991,25.93 16.438,25.483 16.991,25.483 C17.543,25.483 17.991,25.93 17.991,26.483 C17.991,27.035 17.543,27.483 16.991,27.483" id="Fill-2267" fill="#FFFFFF" sketch:type="MSShapeGroup"></path>
            <path d="M24.991,27.483 C24.439,27.483 23.991,27.035 23.991,26.483 C23.991,25.93 24.439,25.483 24.991,25.483 C25.543,25.483 25.991,25.93 25.991,26.483 C25.991,27.035 25.543,27.483 24.991,27.483" id="Fill-2268" fill="#FFFFFF" sketch:type="MSShapeGroup"></path>
            <path d="M22.991,25.483 C22.438,25.483 21.991,25.035 21.991,24.483 C21.991,23.93 22.438,23.483 22.991,23.483 C23.543,23.483 23.991,23.93 23.991,24.483 C23.991,25.035 23.543,25.483 22.991,25.483" id="Fill-2269" fill="#FFFFFF" sketch:type="MSShapeGroup"></path>
            <path d="M20.991,23.483 C20.438,23.483 19.991,23.035 19.991,22.483 C19.991,21.93 20.438,21.483 20.991,21.483 C21.543,21.483 21.991,21.93 21.991,22.483 C21.991,23.035 21.543,23.483 20.991,23.483" id="Fill-2270" fill="#FFFFFF" sketch:type="MSShapeGroup"></path>
            <path d="M18.991,19.483 C19.543,19.483 19.991,19.93 19.991,20.483 C19.991,21.035 19.543,21.483 18.991,21.483 C18.439,21.483 17.991,21.035 17.991,20.483 C17.991,19.93 18.439,19.483 18.991,19.483" id="Fill-2271" fill="#FFFFFF" sketch:type="MSShapeGroup"></path>
            <path d="M22.991,21.483 C22.438,21.483 21.991,21.035 21.991,20.483 C21.991,19.93 22.438,19.483 22.991,19.483 C23.543,19.483 23.991,19.93 23.991,20.483 C23.991,21.035 23.543,21.483 22.991,21.483" id="Fill-2272" fill="#FFFFFF" sketch:type="MSShapeGroup"></path>
            <path d="M24.991,19.483 C24.439,19.483 23.991,19.035 23.991,18.483 C23.991,17.93 24.439,17.483 24.991,17.483 C25.543,17.483 25.991,17.93 25.991,18.483 C25.991,19.035 25.543,19.483 24.991,19.483" id="Fill-2273" fill="#FFFFFF" sketch:type="MSShapeGroup"></path>
            <path d="M18.991,17.483 C18.439,17.483 17.991,17.035 17.991,16.483 C17.991,15.93 18.439,15.483 18.991,15.483 C19.543,15.483 19.991,15.93 19.991,16.483 C19.991,17.035 19.543,17.483 18.991,17.483" id="Fill-2274" fill="#FFFFFF" sketch:type="MSShapeGroup"></path>
            <path d="M22.991,17.483 C22.438,17.483 21.991,17.035 21.991,16.483 C21.991,15.93 22.438,15.483 22.991,15.483 C23.543,15.483 23.991,15.93 23.991,16.483 C23.991,17.035 23.543,17.483 22.991,17.483" id="Fill-2275" fill="#FFFFFF" sketch:type="MSShapeGroup"></path>
            <path d="M20.991,13.483 C21.543,13.483 21.991,13.93 21.991,14.483 C21.991,15.035 21.543,15.483 20.991,15.483 C20.438,15.483 19.991,15.035 19.991,14.483 C19.991,13.93 20.438,13.483 20.991,13.483" id="Fill-2276" fill="#FFFFFF" sketch:type="MSShapeGroup"></path>
            <path d="M16.991,13.483 C17.543,13.483 17.991,13.93 17.991,14.483 C17.991,15.035 17.543,15.483 16.991,15.483 C16.438,15.483 15.991,15.035 15.991,14.483 C15.991,13.93 16.438,13.483 16.991,13.483" id="Fill-2277" fill="#FFFFFF" sketch:type="MSShapeGroup"></path>
            <path d="M18.991,13.483 C18.439,13.483 17.991,13.035 17.991,12.483 C17.991,11.93 18.439,11.483 18.991,11.483 C19.543,11.483 19.991,11.93 19.991,12.483 C19.991,13.035 19.543,13.483 18.991,13.483" id="Fill-2278" fill="#FFFFFF" sketch:type="MSShapeGroup"></path>
            <path d="M22.991,11.483 C23.543,11.483 23.991,11.93 23.991,12.483 C23.991,13.035 23.543,13.483 22.991,13.483 C22.438,13.483 21.991,13.035 21.991,12.483 C21.991,11.93 22.438,11.483 22.991,11.483" id="Fill-2279" fill="#FFFFFF" sketch:type="MSShapeGroup"></path>
            <path d="M24.991,11.483 C24.439,11.483 23.991,11.035 23.991,10.483 C23.991,9.93 24.439,9.483 24.991,9.483 C25.543,9.483 25.991,9.93 25.991,10.483 C25.991,11.035 25.543,11.483 24.991,11.483" id="Fill-2280" fill="#FFFFFF" sketch:type="MSShapeGroup"></path>
            <path d="M18.991,9.483 C18.439,9.483 17.991,9.035 17.991,8.483 C17.991,7.93 18.439,7.483 18.991,7.483 C19.543,7.483 19.991,7.93 19.991,8.483 C19.991,9.035 19.543,9.483 18.991,9.483" id="Fill-2281" fill="#FFFFFF" sketch:type="MSShapeGroup"></path>
            <path d="M16.991,7.483 C16.438,7.483 15.991,7.035 15.991,6.483 C15.991,5.93 16.438,5.483 16.991,5.483 C17.543,5.483 17.991,5.93 17.991,6.483 C17.991,7.035 17.543,7.483 16.991,7.483" id="Fill-2282" fill="#FFFFFF" sketch:type="MSShapeGroup"></path>
            <path d="M24.991,7.483 C24.439,7.483 23.991,7.035 23.991,6.483 C23.991,5.93 24.439,5.483 24.991,5.483 C25.543,5.483 25.991,5.93 25.991,6.483 C25.991,7.035 25.543,7.483 24.991,7.483" id="Fill-2283" fill="#FFFFFF" sketch:type="MSShapeGroup"></path>
            <path d="M18.991,5.483 C18.439,5.483 17.991,5.035 17.991,4.483 C17.991,3.93 18.439,3.483 18.991,3.483 C19.543,3.483 19.991,3.93 19.991,4.483 C19.991,5.035 19.543,5.483 18.991,5.483" id="Fill-2284" fill="#FFFFFF" sketch:type="MSShapeGroup"></path>
            <path d="M22.991,5.483 C22.438,5.483 21.991,5.035 21.991,4.483 C21.991,3.93 22.438,3.483 22.991,3.483 C23.543,3.483 23.991,3.93 23.991,4.483 C23.991,5.035 23.543,5.483 22.991,5.483" id="Fill-2285" fill="#FFFFFF" sketch:type="MSShapeGroup"></path>
            <path d="M20.991,3.483 C20.438,3.483 19.991,3.035 19.991,2.483 C19.991,1.93 20.438,1.483 20.991,1.483 C21.543,1.483 21.991,1.93 21.991,2.483 C21.991,3.035 21.543,3.483 20.991,3.483" id="Fill-2286" fill="#FFFFFF" sketch:type="MSShapeGroup"></path>
            <path d="M24.991,3.483 C24.439,3.483 23.991,3.035 23.991,2.483 C23.991,1.93 24.439,1.483 24.991,1.483 C25.543,1.483 25.991,1.93 25.991,2.483 C25.991,3.035 25.543,3.483 24.991,3.483" id="Fill-2287" fill="#FFFFFF" sketch:type="MSShapeGroup"></path>
            <path d="M14.991,51.483 C15.543,51.483 15.991,51.93 15.991,52.483 C15.991,53.035 15.543,53.483 14.991,53.483 C14.438,53.483 13.991,53.035 13.991,52.483 C13.991,51.93 14.438,51.483 14.991,51.483" id="Fill-2288" fill="#FFFFFF" sketch:type="MSShapeGroup"></path>
            <path d="M12.991,49.483 C13.543,49.483 13.991,49.93 13.991,50.483 C13.991,51.035 13.543,51.483 12.991,51.483 C12.439,51.483 11.991,51.035 11.991,50.483 C11.991,49.93 12.439,49.483 12.991,49.483" id="Fill-2289" fill="#FFFFFF" sketch:type="MSShapeGroup"></path>
            <path d="M14.991,49.483 C14.438,49.483 13.991,49.035 13.991,48.483 C13.991,47.93 14.438,47.483 14.991,47.483 C15.543,47.483 15.991,47.93 15.991,48.483 C15.991,49.035 15.543,49.483 14.991,49.483" id="Fill-2290" fill="#FFFFFF" sketch:type="MSShapeGroup"></path>
            <path d="M12.991,45.483 C13.543,45.483 13.991,45.93 13.991,46.483 C13.991,47.035 13.543,47.483 12.991,47.483 C12.439,47.483 11.991,47.035 11.991,46.483 C11.991,45.93 12.439,45.483 12.991,45.483" id="Fill-2291" fill="#FFFFFF" sketch:type="MSShapeGroup"></path>
            <path d="M10.991,43.483 C11.543,43.483 11.991,43.93 11.991,44.483 C11.991,45.035 11.543,45.483 10.991,45.483 C10.438,45.483 9.991,45.035 9.991,44.483 C9.991,43.93 10.438,43.483 10.991,43.483" id="Fill-2292" fill="#FFFFFF" sketch:type="MSShapeGroup"></path>
            <path d="M8.991,41.483 C9.543,41.483 9.991,41.93 9.991,42.483 C9.991,43.035 9.543,43.483 8.991,43.483 C8.438,43.483 7.991,43.035 7.991,42.483 C7.991,41.93 8.438,41.483 8.991,41.483" id="Fill-2293" fill="#FFFFFF" sketch:type="MSShapeGroup"></path>
            <path d="M12.991,43.483 C12.439,43.483 11.991,43.035 11.991,42.483 C11.991,41.93 12.439,41.483 12.991,41.483 C13.543,41.483 13.991,41.93 13.991,42.483 C13.991,43.035 13.543,43.483 12.991,43.483" id="Fill-2294" fill="#FFFFFF" sketch:type="MSShapeGroup"></path>
            <path d="M10.991,39.483 C11.543,39.483 11.991,39.93 11.991,40.483 C11.991,41.035 11.543,41.483 10.991,41.483 C10.438,41.483 9.991,41.035 9.991,40.483 C9.991,39.93 10.438,39.483 10.991,39.483" id="Fill-2295" fill="#FFFFFF" sketch:type="MSShapeGroup"></path>
            <path d="M6.991,39.483 C7.543,39.483 7.991,39.93 7.991,40.483 C7.991,41.035 7.543,41.483 6.991,41.483 C6.438,41.483 5.991,41.035 5.991,40.483 C5.991,39.93 6.438,39.483 6.991,39.483" id="Fill-2296" fill="#FFFFFF" sketch:type="MSShapeGroup"></path>
            <path d="M8.991,39.483 C8.438,39.483 7.991,39.035 7.991,38.483 C7.991,37.93 8.438,37.483 8.991,37.483 C9.543,37.483 9.991,37.93 9.991,38.483 C9.991,39.035 9.543,39.483 8.991,39.483" id="Fill-2297" fill="#FFFFFF" sketch:type="MSShapeGroup"></path>
            <path d="M10.991,35.483 C11.543,35.483 11.991,35.93 11.991,36.483 C11.991,37.035 11.543,37.483 10.991,37.483 C10.438,37.483 9.991,37.035 9.991,36.483 C9.991,35.93 10.438,35.483 10.991,35.483" id="Fill-2298" fill="#FFFFFF" sketch:type="MSShapeGroup"></path>
            <path d="M6.991,35.483 C7.543,35.483 7.991,35.93 7.991,36.483 C7.991,37.035 7.543,37.483 6.991,37.483 C6.438,37.483 5.991,37.035 5.991,36.483 C5.991,35.93 6.438,35.483 6.991,35.483" id="Fill-2299" fill="#FFFFFF" sketch:type="MSShapeGroup"></path>
            <path d="M14.991,35.483 C15.543,35.483 15.991,35.93 15.991,36.483 C15.991,37.035 15.543,37.483 14.991,37.483 C14.438,37.483 13.991,37.035 13.991,36.483 C13.991,35.93 14.438,35.483 14.991,35.483" id="Fill-2300" fill="#FFFFFF" sketch:type="MSShapeGroup"></path>
            <path d="M10.991,31.483 C11.543,31.483 11.991,31.93 11.991,32.483 C11.991,33.035 11.543,33.483 10.991,33.483 C10.438,33.483 9.991,33.035 9.991,32.483 C9.991,31.93 10.438,31.483 10.991,31.483" id="Fill-2301" fill="#FFFFFF" sketch:type="MSShapeGroup"></path>
            <path d="M6.991,31.483 C7.543,31.483 7.991,31.93 7.991,32.483 C7.991,33.035 7.543,33.483 6.991,33.483 C6.438,33.483 5.991,33.035 5.991,32.483 C5.991,31.93 6.438,31.483 6.991,31.483" id="Fill-2302" fill="#FFFFFF" sketch:type="MSShapeGroup"></path>
            <path d="M14.991,33.483 C14.438,33.483 13.991,33.035 13.991,32.483 C13.991,31.93 14.438,31.483 14.991,31.483 C15.543,31.483 15.991,31.93 15.991,32.483 C15.991,33.035 15.543,33.483 14.991,33.483" id="Fill-2303" fill="#FFFFFF" sketch:type="MSShapeGroup"></path>
            <path d="M10.991,27.483 C11.543,27.483 11.991,27.93 11.991,28.483 C11.991,29.035 11.543,29.483 10.991,29.483 C10.438,29.483 9.991,29.035 9.991,28.483 C9.991,27.93 10.438,27.483 10.991,27.483" id="Fill-2304" fill="#FFFFFF" sketch:type="MSShapeGroup"></path>
            <path d="M6.991,27.483 C7.543,27.483 7.991,27.93 7.991,28.483 C7.991,29.035 7.543,29.483 6.991,29.483 C6.438,29.483 5.991,29.035 5.991,28.483 C5.991,27.93 6.438,27.483 6.991,27.483" id="Fill-2305" fill="#FFFFFF" sketch:type="MSShapeGroup"></path>
            <path d="M12.991,25.483 C13.543,25.483 13.991,25.93 13.991,26.483 C13.991,27.035 13.543,27.483 12.991,27.483 C12.439,27.483 11.991,27.035 11.991,26.483 C11.991,25.93 12.439,25.483 12.991,25.483" id="Fill-2306" fill="#FFFFFF" sketch:type="MSShapeGroup"></path>
            <path d="M10.991,23.483 C11.543,23.483 11.991,23.93 11.991,24.483 C11.991,25.035 11.543,25.483 10.991,25.483 C10.438,25.483 9.991,25.035 9.991,24.483 C9.991,23.93 10.438,23.483 10.991,23.483" id="Fill-2307" fill="#FFFFFF" sketch:type="MSShapeGroup"></path>
            <path d="M8.991,21.483 C9.543,21.483 9.991,21.93 9.991,22.483 C9.991,23.035 9.543,23.483 8.991,23.483 C8.438,23.483 7.991,23.035 7.991,22.483 C7.991,21.93 8.438,21.483 8.991,21.483" id="Fill-2308" fill="#FFFFFF" sketch:type="MSShapeGroup"></path>
            <path d="M12.991,21.483 C13.543,21.483 13.991,21.93 13.991,22.483 C13.991,23.035 13.543,23.483 12.991,23.483 C12.439,23.483 11.991,23.035 11.991,22.483 C11.991,21.93 12.439,21.483 12.991,21.483" id="Fill-2309" fill="#FFFFFF" sketch:type="MSShapeGroup"></path>
            <path d="M10.991,19.483 C11.543,19.483 11.991,19.93 11.991,20.483 C11.991,21.035 11.543,21.483 10.991,21.483 C10.438,21.483 9.991,21.035 9.991,20.483 C9.991,19.93 10.438,19.483 10.991,19.483" id="Fill-2310" fill="#FFFFFF" sketch:type="MSShapeGroup"></path>
            <path d="M14.991,21.483 C14.438,21.483 13.991,21.035 13.991,20.483 C13.991,19.93 14.438,19.483 14.991,19.483 C15.543,19.483 15.991,19.93 15.991,20.483 C15.991,21.035 15.543,21.483 14.991,21.483" id="Fill-2311" fill="#FFFFFF" sketch:type="MSShapeGroup"></path>
            <path d="M8.991,19.483 C8.438,19.483 7.991,19.035 7.991,18.483 C7.991,17.93 8.438,17.483 8.991,17.483 C9.543,17.483 9.991,17.93 9.991,18.483 C9.991,19.035 9.543,19.483 8.991,19.483" id="Fill-2312" fill="#FFFFFF" sketch:type="MSShapeGroup"></path>
            <path d="M6.991,15.483 C7.543,15.483 7.991,15.93 7.991,16.483 C7.991,17.035 7.543,17.483 6.991,17.483 C6.438,17.483 5.991,17.035 5.991,16.483 C5.991,15.93 6.438,15.483 6.991,15.483" id="Fill-2313" fill="#FFFFFF" sketch:type="MSShapeGroup"></path>
            <path d="M8.991,15.483 C8.438,15.483 7.991,15.035 7.991,14.483 C7.991,13.93 8.438,13.483 8.991,13.483 C9.543,13.483 9.991,13.93 9.991,14.483 C9.991,15.035 9.543,15.483 8.991,15.483" id="Fill-2314" fill="#FFFFFF" sketch:type="MSShapeGroup"></path>
            <path d="M12.991,15.483 C12.439,15.483 11.991,15.035 11.991,14.483 C11.991,13.93 12.439,13.483 12.991,13.483 C13.543,13.483 13.991,13.93 13.991,14.483 C13.991,15.035 13.543,15.483 12.991,15.483" id="Fill-2315" fill="#FFFFFF" sketch:type="MSShapeGroup"></path>
            <path d="M6.991,13.483 C6.438,13.483 5.991,13.035 5.991,12.483 C5.991,11.93 6.438,11.483 6.991,11.483 C7.543,11.483 7.991,11.93 7.991,12.483 C7.991,13.035 7.543,13.483 6.991,13.483" id="Fill-2316" fill="#FFFFFF" sketch:type="MSShapeGroup"></path>
            <path d="M14.991,11.483 C15.543,11.483 15.991,11.93 15.991,12.483 C15.991,13.035 15.543,13.483 14.991,13.483 C14.438,13.483 13.991,13.035 13.991,12.483 C13.991,11.93 14.438,11.483 14.991,11.483" id="Fill-2317" fill="#FFFFFF" sketch:type="MSShapeGroup"></path>
            <path d="M8.991,11.483 C8.438,11.483 7.991,11.035 7.991,10.483 C7.991,9.93 8.438,9.483 8.991,9.483 C9.543,9.483 9.991,9.93 9.991,10.483 C9.991,11.035 9.543,11.483 8.991,11.483" id="Fill-2318" fill="#FFFFFF" sketch:type="MSShapeGroup"></path>
            <path d="M12.991,11.483 C12.439,11.483 11.991,11.035 11.991,10.483 C11.991,9.93 12.439,9.483 12.991,9.483 C13.543,9.483 13.991,9.93 13.991,10.483 C13.991,11.035 13.543,11.483 12.991,11.483" id="Fill-2319" fill="#FFFFFF" sketch:type="MSShapeGroup"></path>
            <path d="M10.991,9.483 C10.438,9.483 9.991,9.035 9.991,8.483 C9.991,7.93 10.438,7.483 10.991,7.483 C11.543,7.483 11.991,7.93 11.991,8.483 C11.991,9.035 11.543,9.483 10.991,9.483" id="Fill-2320" fill="#FFFFFF" sketch:type="MSShapeGroup"></path>
            <path d="M12.991,7.483 C12.439,7.483 11.991,7.035 11.991,6.483 C11.991,5.93 12.439,5.483 12.991,5.483 C13.543,5.483 13.991,5.93 13.991,6.483 C13.991,7.035 13.543,7.483 12.991,7.483" id="Fill-2321" fill="#FFFFFF" sketch:type="MSShapeGroup"></path>
            <path d="M14.991,5.483 C14.438,5.483 13.991,5.035 13.991,4.483 C13.991,3.93 14.438,3.483 14.991,3.483 C15.543,3.483 15.991,3.93 15.991,4.483 C15.991,5.035 15.543,5.483 14.991,5.483" id="Fill-2322" fill="#FFFFFF" sketch:type="MSShapeGroup"></path>
            <path d="M4.991,33.483 C5.543,33.483 5.991,33.93 5.991,34.483 C5.991,35.035 5.543,35.483 4.991,35.483 C4.438,35.483 3.991,35.035 3.991,34.483 C3.991,33.93 4.438,33.483 4.991,33.483" id="Fill-2323" fill="#FFFFFF" sketch:type="MSShapeGroup"></path>
            <path d="M2.991,31.483 C3.543,31.483 3.991,31.93 3.991,32.483 C3.991,33.035 3.543,33.483 2.991,33.483 C2.438,33.483 1.991,33.035 1.991,32.483 C1.991,31.93 2.438,31.483 2.991,31.483" id="Fill-2324" fill="#FFFFFF" sketch:type="MSShapeGroup"></path>
            <path d="M2.991,27.483 C3.543,27.483 3.991,27.93 3.991,28.483 C3.991,29.035 3.543,29.483 2.991,29.483 C2.438,29.483 1.991,29.035 1.991,28.483 C1.991,27.93 2.438,27.483 2.991,27.483" id="Fill-2325" fill="#FFFFFF" sketch:type="MSShapeGroup"></path>
            <path d="M4.991,25.483 C5.543,25.483 5.991,25.93 5.991,26.483 C5.991,27.035 5.543,27.483 4.991,27.483 C4.438,27.483 3.991,27.035 3.991,26.483 C3.991,25.93 4.438,25.483 4.991,25.483" id="Fill-2326" fill="#FFFFFF" sketch:type="MSShapeGroup"></path>
            <path d="M2.991,25.483 C2.438,25.483 1.991,25.035 1.991,24.483 C1.991,23.93 2.438,23.483 2.991,23.483 C3.543,23.483 3.991,23.93 3.991,24.483 C3.991,25.035 3.543,25.483 2.991,25.483" id="Fill-2327" fill="#FFFFFF" sketch:type="MSShapeGroup"></path>
            <path d="M4.991,21.483 C5.543,21.483 5.991,21.93 5.991,22.483 C5.991,23.035 5.543,23.483 4.991,23.483 C4.438,23.483 3.991,23.035 3.991,22.483 C3.991,21.93 4.438,21.483 4.991,21.483" id="Fill-2328" fill="#FFFFFF" sketch:type="MSShapeGroup"></path>
            <path d="M4.991,19.483 C4.438,19.483 3.991,19.035 3.991,18.483 C3.991,17.93 4.438,17.483 4.991,17.483 C5.543,17.483 5.991,17.93 5.991,18.483 C5.991,19.035 5.543,19.483 4.991,19.483" id="Fill-2329" fill="#FFFFFF" sketch:type="MSShapeGroup"></path>
            <path d="M4.991,15.483 C4.438,15.483 3.991,15.035 3.991,14.483 C3.991,13.93 4.438,13.483 4.991,13.483 C5.543,13.483 5.991,13.93 5.991,14.483 C5.991,15.035 5.543,15.483 4.991,15.483" id="Fill-2330" fill="#FFFFFF" sketch:type="MSShapeGroup"></path>
            <path d="M16,54.969 C15.858,53.942 15.471,53.795 14.535,53.439 C13.593,53.08 12.302,52.59 11.479,50.879 C11.174,50.245 11.032,49.655 10.918,49.182 C10.711,48.325 10.62,48.042 10.074,47.762 C7.046,46.207 4.766,41.902 4.993,38.166 C5.044,37.322 3.55,35.479 2.658,34.377 C2.157,33.759 1.726,33.226 1.431,32.768 C-0.477,29.8 -0.477,25.654 1.431,22.686 C2.205,21.482 2.637,18.875 2.541,17.287 C2.316,13.58 4.285,9.899 7.329,8.337 C7.917,8.035 8.444,7.883 8.91,7.749 C9.711,7.518 10.042,7.422 10.344,6.793 C11.628,4.126 13.045,3.181 15.757,3.181 C16.153,3.181 16.585,3.198 17.077,3.229 C17.358,3.229 17.796,2.761 18.219,2.309 C18.96,1.516 19.95,0.457 21.52,0.276 L22.025,0.227 C23.706,0.227 25.333,0.728 26.487,1.601 C26.755,1.803 27.074,1.976 27.495,1.606 C28.38,0.83 29.799,0 31.126,0 C31.584,0 31.994,0.099 32.354,0.299 C33.911,0.607 34.909,1.595 35.646,2.324 C36.136,2.81 36.559,3.229 36.925,3.229 L36.927,3.229 C37.397,3.198 37.828,3.181 38.225,3.181 C40.937,3.181 42.354,4.126 43.638,6.793 C43.94,7.422 44.271,7.518 45.072,7.749 C45.537,7.883 46.065,8.035 46.653,8.337 C49.696,9.899 51.666,13.58 51.441,17.287 C51.345,18.875 51.777,21.482 52.551,22.686 C54.459,25.654 54.459,29.8 52.551,32.768 C52.256,33.226 51.824,33.759 51.324,34.377 C50.432,35.479 48.938,37.322 48.989,38.166 C49.215,41.902 46.936,46.207 43.907,47.762 C43.362,48.042 43.271,48.325 43.064,49.182 C42.95,49.655 42.808,50.245 42.503,50.879 C41.68,52.59 40.389,53.08 39.446,53.439 C38.51,53.795 38.123,53.942 37.982,54.969 C37.591,57.795 35.918,59.482 33.504,59.482 C31.354,59.482 29.028,58.029 27.579,55.78 C27.402,55.506 27.108,55.476 26.991,55.476 C26.873,55.476 26.58,55.506 26.403,55.78 C24.954,58.029 22.628,59.482 20.478,59.482 C18.614,59.482 16.46,58.297 16,54.969 L16,54.969 Z M29.26,54.696 C30.334,56.363 32.039,57.482 33.504,57.482 C34.865,57.482 35.752,56.492 36,54.695 C36.304,52.495 37.709,51.96 38.735,51.57 C39.566,51.254 40.223,51.004 40.7,50.012 C40.913,49.57 41.018,49.134 41.12,48.712 C41.348,47.767 41.607,46.694 42.994,45.982 C45.301,44.799 47.169,41.202 46.993,38.287 C46.895,36.667 48.422,34.781 49.77,33.117 C50.214,32.569 50.633,32.052 50.868,31.686 C52.367,29.356 52.367,26.099 50.868,23.768 C49.825,22.146 49.325,19.138 49.445,17.166 C49.62,14.273 48.062,11.309 45.739,10.116 C45.324,9.903 44.914,9.785 44.517,9.67 C43.584,9.4 42.525,9.095 41.836,7.66 C40.814,5.539 40.038,5.181 38.225,5.181 C37.867,5.181 37.479,5.197 37.056,5.225 L36.893,5.23 C35.738,5.23 34.941,4.441 34.239,3.745 C33.538,3.052 32.877,2.397 31.844,2.239 L31.516,2.179 L31.36,2.035 C31.305,2.013 31.222,2 31.126,2 C30.52,2 29.547,2.467 28.814,3.11 C27.853,3.952 26.329,3.987 25.281,3.196 C24.573,2.66 23.542,2.315 22.459,2.241 L21.991,2.25 C21.078,2.25 20.508,2.788 19.68,3.675 C18.998,4.403 18.225,5.23 17.077,5.23 L16.927,5.225 C16.503,5.197 16.114,5.181 15.757,5.181 C13.943,5.181 13.168,5.539 12.147,7.66 C11.457,9.095 10.398,9.4 9.464,9.67 C9.068,9.785 8.657,9.903 8.242,10.116 C5.92,11.309 4.361,14.273 4.537,17.166 C4.656,19.138 4.156,22.146 3.113,23.768 C1.615,26.099 1.615,29.356 3.113,31.686 C3.349,32.052 3.768,32.569 4.211,33.117 C5.56,34.781 7.087,36.667 6.989,38.287 C6.813,41.202 8.681,44.799 10.987,45.982 C12.375,46.694 12.633,47.767 12.862,48.712 C12.963,49.134 13.069,49.57 13.281,50.012 C13.758,51.004 14.415,51.254 15.246,51.57 C16.273,51.96 17.678,52.495 17.982,54.695 C18.23,56.492 19.116,57.482 20.478,57.482 C21.966,57.482 23.631,56.389 24.722,54.696 C25.214,53.933 26.063,53.476 26.991,53.476 C27.919,53.476 28.767,53.933 29.26,54.696 L29.26,54.696 Z" id="Fill-2331" fill="#CF8C6D" sketch:type="MSShapeGroup"></path>
        </g>
    </g>
</svg>