<?xml version="1.0" encoding="UTF-8" standalone="no"?>
<svg width="58px" height="49px" viewBox="0 0 58 49" version="1.1" xmlns="http://www.w3.org/2000/svg" xmlns:xlink="http://www.w3.org/1999/xlink" xmlns:sketch="http://www.bohemiancoding.com/sketch/ns">
    <!-- Generator: Sketch 3.2.2 (9983) - http://www.bohemiancoding.com/sketch -->
    <title>38 - Lower Canine (Flat)</title>
    <desc>Created with Sketch.</desc>
    <defs></defs>
    <g id="Page-1" stroke="none" stroke-width="1" fill="none" fill-rule="evenodd" sketch:type="MSPage">
        <g id="38---Lower-Canine-(Flat)" sketch:type="MSLayerGroup" transform="translate(0.000000, -1.000000)">
            <path d="M43,36 C35.014,36 33.015,35.686 30.922,29.088 C29.397,24.279 29.054,18.255 29.009,13.186 C28.988,10.753 31.122,5.91 33.986,4.005 C38.73,0.848 45.209,1.921 50.604,3.796 C54.063,4.997 57.284,8.395 56.991,13.186 C56.666,18.488 55.391,25.137 53.913,30.25 C52.464,35.264 47.574,36 43,36" id="Fill-1608" fill="#E8EDEE" sketch:type="MSShapeGroup"></path>
            <path d="M1.416,22.458 C0.357,17.883 1.329,13.019 4.234,9.345 C6.662,6.274 9.84,3.166 12.65,1.336 C13.235,0.955 14.141,0.889 14.774,1.184 C18.351,2.853 27.381,11.624 26.987,16.696 C26.641,21.161 26.417,25.672 25.14,29.96 C23.607,35.104 19.456,37.054 14.329,36.999 C9.107,36.943 4.965,34.995 3.296,29.667 C2.555,27.301 1.976,24.882 1.416,22.458" id="Fill-1609" fill="#E8EDEE" sketch:type="MSShapeGroup"></path>
            <path d="M14.382,27.476 C9.645,27.425 8.639,25.474 8.067,23.649 C7.372,21.428 6.806,19.051 6.287,16.807 C5.556,13.649 6.255,10.327 8.157,7.922 C9.943,5.663 12.075,3.512 13.997,2 C17.354,4.41 21.888,10.047 22,11.86 L21.894,13.212 C21.608,17.058 21.337,20.69 20.348,24.009 C19.811,25.81 18.736,27.477 14.537,27.477 L14.382,27.476" id="Fill-1610" fill="#F0F7F8" sketch:type="MSShapeGroup"></path>
            <path d="M55.806,29 L54.255,29 C54.142,29.421 54.029,29.848 53.913,30.25 C52.464,35.264 47.574,36 43,36 C35.014,36 33.015,35.686 30.922,29.088 C30.913,29.059 30.907,29.028 30.898,29 L25.396,29 C25.312,29.32 25.234,29.642 25.14,29.96 C23.607,35.104 19.456,37.054 14.329,36.999 C9.107,36.943 4.965,34.995 3.296,29.667 C3.227,29.446 3.165,29.222 3.099,29 L2.194,29 C0.982,29 0,29.982 0,31.194 L0,40.939 C0,45.943 4.057,50 9.061,50 L48.939,50 C53.943,50 58,45.943 58,40.939 L58,31.194 C58,29.982 57.018,29 55.806,29" id="Fill-1612" fill="#ED9893" sketch:type="MSShapeGroup"></path>
            <path d="M50.338,8.732 C52.815,11.46 53.597,15.094 52.545,18.613 C52.174,19.852 54.104,20.377 54.473,19.144 C55.733,14.934 54.698,10.563 51.753,7.318 C50.884,6.361 49.474,7.78 50.338,8.732" id="Fill-2623" fill="#FFFFFF" sketch:type="MSShapeGroup"></path>
            <path d="M7.73,11.732 C5.253,14.46 4.471,18.094 5.524,21.613 C5.894,22.852 3.964,23.377 3.595,22.144 C2.336,17.934 3.37,13.563 6.315,10.318 C7.184,9.361 8.594,10.78 7.73,11.732" id="Fill-2624" fill="#FFFFFF" sketch:type="MSShapeGroup"></path>
            <path d="M32.924,12.874 C32.928,12.885 32.931,12.896 32.935,12.906 C34.701,10.528 37.318,8.946 40.278,8.7 C40.885,7.472 41.357,6.294 41.515,5.26 C41.631,4.503 41.086,3.851 40.285,4.03 C36.339,4.908 30.721,7.093 32.261,12.225 C32.373,12.599 32.633,12.795 32.924,12.874" id="Fill-2628" fill="#FFFFFF" sketch:type="MSShapeGroup"></path>
        </g>
    </g>
</svg>