<?xml version="1.0" encoding="UTF-8" standalone="no"?>
<svg width="48px" height="56px" viewBox="0 0 48 56" version="1.1" xmlns="http://www.w3.org/2000/svg" xmlns:xlink="http://www.w3.org/1999/xlink" xmlns:sketch="http://www.bohemiancoding.com/sketch/ns">
    <!-- Generator: Sketch 3.2.2 (9983) - http://www.bohemiancoding.com/sketch -->
    <title>116 - Medical File (Flat)</title>
    <desc>Created with Sketch.</desc>
    <defs></defs>
    <g id="Page-1" stroke="none" stroke-width="1" fill="none" fill-rule="evenodd" sketch:type="MSPage">
        <g id="116---Medical-File-(Flat)" sketch:type="MSLayerGroup">
            <path d="M0,0 L42,0 L42,56 L0,56 L0,0 Z" id="Fill-799" fill="#DD342E" sketch:type="MSShapeGroup"></path>
            <path d="M28,16 L24,16 L24,12 L18,12 L18,16 L14,16 L14,22 L18,22 L18,26 L24,26 L24,22 L28,22 L28,16" id="Fill-800" fill="#FFFFFF" sketch:type="MSShapeGroup"></path>
            <path d="M26,37 L16,37 C15.448,37 15,36.553 15,36 C15,35.447 15.448,35 16,35 L26,35 C26.552,35 27,35.447 27,36 C27,36.553 26.552,37 26,37" id="Fill-801" fill="#ED7161" sketch:type="MSShapeGroup"></path>
            <path d="M30,41 L12,41 C11.448,41 11,40.553 11,40 C11,39.447 11.448,39 12,39 L30,39 C30.552,39 31,39.447 31,40 C31,40.553 30.552,41 30,41" id="Fill-802" fill="#ED7161" sketch:type="MSShapeGroup"></path>
            <path d="M30,45 L12,45 C11.448,45 11,44.553 11,44 C11,43.447 11.448,43 12,43 L30,43 C30.552,43 31,43.447 31,44 C31,44.553 30.552,45 30,45" id="Fill-803" fill="#ED7161" sketch:type="MSShapeGroup"></path>
            <path d="M42,0 L48,0 L48,10 L42,10 L42,0 Z" id="Fill-804" fill="#61B972" sketch:type="MSShapeGroup"></path>
            <path d="M42,10 L48,10 L48,20 L42,20 L42,10 Z" id="Fill-805" fill="#ECBA16" sketch:type="MSShapeGroup"></path>
            <path d="M42,20 L48,20 L48,30 L42,30 L42,20 Z" id="Fill-806" fill="#DD691D" sketch:type="MSShapeGroup"></path>
            <path d="M42,30 L48,30 L48,40 L42,40 L42,30 Z" id="Fill-807" fill="#C13A2A" sketch:type="MSShapeGroup"></path>
            <path d="M42,40 L48,40 L48,50 L42,50 L42,40 Z" id="Fill-808" fill="#A485BE" sketch:type="MSShapeGroup"></path>
        </g>
    </g>
</svg>