<?xml version="1.0" encoding="UTF-8" standalone="no"?>
<svg width="58px" height="53px" viewBox="0 0 58 53" version="1.1" xmlns="http://www.w3.org/2000/svg" xmlns:xlink="http://www.w3.org/1999/xlink" xmlns:sketch="http://www.bohemiancoding.com/sketch/ns">
    <!-- Generator: Sketch 3.2.2 (9983) - http://www.bohemiancoding.com/sketch -->
    <title>93 - Microbe (Flat)</title>
    <desc>Created with Sketch.</desc>
    <defs></defs>
    <g id="Page-1" stroke="none" stroke-width="1" fill="none" fill-rule="evenodd" sketch:type="MSPage">
        <g id="93---Microbe-(Flat)" sketch:type="MSLayerGroup">
            <path d="M19,42 C17.343,42 16,43.343 16,45 C16,46.657 17.343,48 19,48 C20.657,48 22,46.657 22,45 C22,43.343 20.657,42 19,42" id="Fill-1373" fill="#219B52" sketch:type="MSShapeGroup"></path>
            <path d="M21,31 C19.343,31 18,32.343 18,34 C18,35.657 19.343,37 21,37 C22.657,37 24,35.657 24,34 C24,32.343 22.657,31 21,31" id="Fill-1374" fill="#219B52" sketch:type="MSShapeGroup"></path>
            <path d="M26,21 C24.343,21 23,22.343 23,24 C23,25.657 24.343,27 26,27 C27.657,27 29,25.657 29,24 C29,22.343 27.657,21 26,21" id="Fill-1375" fill="#219B52" sketch:type="MSShapeGroup"></path>
            <path d="M35,14 C33.343,14 32,15.343 32,17 C32,18.657 33.343,20 35,20 C36.657,20 38,18.657 38,17 C38,15.343 36.657,14 35,14" id="Fill-1376" fill="#219B52" sketch:type="MSShapeGroup"></path>
            <path d="M46,10 C44.343,10 43,11.343 43,13 C43,14.657 44.343,16 46,16 C47.657,16 49,14.657 49,13 C49,11.343 47.657,10 46,10" id="Fill-1377" fill="#219B52" sketch:type="MSShapeGroup"></path>
            <path d="M18,41 C16.343,41 15,42.343 15,44 C15,45.657 16.343,47 18,47 C19.657,47 21,45.657 21,44 C21,42.343 19.657,41 18,41" id="Fill-1378" fill="#2CCD70" sketch:type="MSShapeGroup"></path>
            <path d="M20,30 C18.343,30 17,31.343 17,33 C17,34.657 18.343,36 20,36 C21.657,36 23,34.657 23,33 C23,31.343 21.657,30 20,30" id="Fill-1379" fill="#2CCD70" sketch:type="MSShapeGroup"></path>
            <path d="M25,20 C23.343,20 22,21.343 22,23 C22,24.657 23.343,26 25,26 C26.657,26 28,24.657 28,23 C28,21.343 26.657,20 25,20" id="Fill-1380" fill="#2CCD70" sketch:type="MSShapeGroup"></path>
            <path d="M34,13 C32.343,13 31,14.343 31,16 C31,17.657 32.343,19 34,19 C35.657,19 37,17.657 37,16 C37,14.343 35.657,13 34,13" id="Fill-1381" fill="#2CCD70" sketch:type="MSShapeGroup"></path>
            <path d="M45,9 C43.343,9 42,10.343 42,12 C42,13.657 43.343,15 45,15 C46.657,15 48,13.657 48,12 C48,10.343 46.657,9 45,9" id="Fill-1382" fill="#2CCD70" sketch:type="MSShapeGroup"></path>
            <path d="M17.5,42 C16.672,42 16,42.672 16,43.5 C16,44.328 16.672,45 17.5,45 C18.328,45 19,44.328 19,43.5 C19,42.672 18.328,42 17.5,42" id="Fill-2461" fill="#3AED82" sketch:type="MSShapeGroup"></path>
            <path d="M20.5,30 C19.672,30 19,30.672 19,31.5 C19,32.328 19.672,33 20.5,33 C21.328,33 22,32.328 22,31.5 C22,30.672 21.328,30 20.5,30" id="Fill-2462" fill="#3AED82" sketch:type="MSShapeGroup"></path>
            <path d="M23.5,22 C22.672,22 22,22.672 22,23.5 C22,24.328 22.672,25 23.5,25 C24.328,25 25,24.328 25,23.5 C25,22.672 24.328,22 23.5,22" id="Fill-2463" fill="#3AED82" sketch:type="MSShapeGroup"></path>
            <path d="M32.5,14 C31.672,14 31,14.672 31,15.5 C31,16.328 31.672,17 32.5,17 C33.328,17 34,16.328 34,15.5 C34,14.672 33.328,14 32.5,14" id="Fill-2464" fill="#3AED82" sketch:type="MSShapeGroup"></path>
            <path d="M45.5,9 C44.672,9 44,9.672 44,10.5 C44,11.328 44.672,12 45.5,12 C46.328,12 47,11.328 47,10.5 C47,9.672 46.328,9 45.5,9" id="Fill-2465" fill="#3AED82" sketch:type="MSShapeGroup"></path>
            <path d="M58,11.083 C58.046,6.484 54.042,2.94 49.444,3.004 C45.533,3.058 41.759,3.688 38.199,4.806 C37.282,5.094 36.305,4.791 35.626,4.11 C35.622,4.106 35.618,4.102 35.614,4.098 C33.015,1.5 29.573,0.049 25.902,0.001 C24.865,-0.012 23.885,0.671 23.735,1.697 C23.553,2.936 24.509,4 25.712,4 C26.695,4 27.909,4.395 29.053,4.896 C30.708,5.62 30.88,7.9 29.344,8.85 C28.926,9.108 28.513,9.374 28.106,9.648 C26.687,10.599 24.973,10.964 23.289,10.678 C22.535,10.549 21.766,10.482 20.985,10.482 C17.308,10.482 13.846,11.893 11.215,14.458 C10.453,15.201 10.269,16.415 10.934,17.245 C11.738,18.247 13.246,18.252 14.055,17.258 C14.908,16.211 15.959,15.332 17.263,14.975 C25.78,12.644 18.816,18.002 16.808,21.113 C16.394,21.755 15.663,22.093 14.901,22.036 C14.597,22.013 14.292,22 13.985,22 C10.311,22 6.851,23.408 4.221,25.97 C3.478,26.694 3.268,27.869 3.887,28.702 C4.635,29.707 6.063,29.783 6.914,28.932 C7.793,28.052 9.376,27.365 10.835,26.878 C12.131,26.445 13.359,27.708 12.89,28.991 C12.547,29.93 12.238,30.886 11.965,31.856 C11.588,33.201 10.554,34.229 9.228,34.668 C9.221,34.67 9.213,34.672 9.206,34.675 C5.708,35.839 2.864,38.28 1.179,41.557 C0.712,42.467 0.902,43.636 1.741,44.222 C2.768,44.94 4.148,44.562 4.686,43.485 C5.919,41.02 10.5,40.919 10.501,42.202 C10.503,44.938 11.326,47.635 13.662,49.061 C18.203,51.833 22.864,50.303 25.115,47 C25.538,46.38 25.879,45.103 26.121,43.903 C26.434,42.351 28.193,41.574 29.558,42.377 C32.493,44.105 34.474,47.288 34.5,50.928 C34.507,51.948 35.253,52.872 36.267,52.987 C37.476,53.124 38.5,52.181 38.5,51 C38.5,44.186 33.603,38.502 27.146,37.26 C27.12,37.255 27.103,37.23 27.109,37.204 C27.113,37.188 27.117,37.171 27.121,37.155 C28.007,33.361 31.73,31.766 35.148,33.635 C37.409,34.872 39.195,36.975 39.96,39.639 C40.24,40.614 41.213,41.29 42.214,41.127 C43.415,40.931 44.146,39.747 43.826,38.609 C42.561,34.113 39.225,30.756 35.141,29.265 C33.374,28.62 32.907,26.285 34.307,25.028 C34.32,25.016 34.334,25.004 34.347,24.992 C34.682,24.693 35.097,24.48 35.541,24.408 C40.587,23.591 45.518,26.748 46.815,31.776 C47.072,32.773 48.038,33.497 49.056,33.349 C50.246,33.175 50.999,32.022 50.715,30.884 C49.885,27.559 47.921,24.814 45.339,22.951 C43.889,21.904 44.409,19.603 46.174,19.312 C47.419,19.107 48.697,19 50,19 L50.011,19 C50.726,18.999 51.424,19.271 51.866,19.833 C53.188,21.515 53.983,23.63 54,25.927 C54.007,26.948 54.752,27.872 55.767,27.987 C56.976,28.124 58,27.181 58,26 C58,23.553 57.365,21.254 56.256,19.253 C55.649,18.158 55.653,16.788 56.404,15.786 C57.39,14.473 57.982,12.847 58,11.083" id="Fill-1372" fill="#25AE5F" sketch:type="MSShapeGroup"></path>
        </g>
    </g>
</svg>