<?xml version="1.0" encoding="UTF-8" standalone="no"?>
<svg width="50px" height="55px" viewBox="0 0 50 55" version="1.1" xmlns="http://www.w3.org/2000/svg" xmlns:xlink="http://www.w3.org/1999/xlink" xmlns:sketch="http://www.bohemiancoding.com/sketch/ns">
    <!-- Generator: Sketch 3.2.2 (9983) - http://www.bohemiancoding.com/sketch -->
    <title>41 - Mildly Rotten Premolar (Flat)</title>
    <desc>Created with Sketch.</desc>
    <defs></defs>
    <g id="Page-1" stroke="none" stroke-width="1" fill="none" fill-rule="evenodd" sketch:type="MSPage">
        <g id="41---Mildly-Rotten-Premolar-(Flat)" sketch:type="MSLayerGroup" transform="translate(0.000000, -1.000000)">
            <path d="M49.133,10.908 C51.666,20.482 48.049,31.899 45.938,41.32 C45.02,45.414 44.253,49.605 42.147,53.296 C38.814,59.137 36.158,51.51 35.111,48.284 C33.823,44.319 33.405,39.197 29.444,36.838 C25.498,34.488 21.837,36.89 19.551,40.234 C17.235,43.622 16.357,47.559 14.889,51.327 C14.209,53.07 13.46,54.813 11.618,55.593 C9.662,55.593 8.304,52.02 7.586,50.285 C3.666,40.819 2.461,30.092 0.947,20.03 C-0.118,12.951 2.177,4.537 9.531,1.931 C13.526,0.515 19,1.821 23,3 C25.299,3.678 24.875,3.457 27.165,2.662 C27.342,2.601 27.514,2.519 27.694,2.445 C32.595,0.418 38.502,0.401 42.816,3.175 C45.727,5.047 48.291,7.725 49.133,10.908" id="Fill-2575" fill="#ECE3D2" sketch:type="MSShapeGroup"></path>
            <path d="M43.916,6.504 C43.333,6.028 42.727,5.58 42.099,5.176 C37.785,2.402 31.878,2.418 26.977,4.445 C26.797,4.52 26.624,4.602 26.448,4.663 C25.645,4.942 25.177,5.148 24.807,5.271 C24.146,4.831 23.394,4.371 22.508,3.87 C22.098,3.638 21.933,3.163 22.057,2.729 C22.378,2.82 22.695,2.91 23,3 C19,1.821 13.526,0.515 9.531,1.931 C4.45,3.731 1.786,8.305 0.975,13.295 C3.017,20.729 8.072,26 14,26 C19.896,26 24.935,20.79 26.997,13.419 C33.915,12.931 39.968,10.325 43.916,6.504" id="Fill-2576" fill="#F8EDDF" sketch:type="MSShapeGroup"></path>
            <path d="M31.003,15.688 C31.027,9.57 31.017,6.914 25.427,3.302 C24.803,3.494 24.421,3.419 23,3 C22.695,2.91 22.378,2.82 22.057,2.729 C21.933,3.163 22.098,3.638 22.508,3.87 C29.034,7.562 29.028,9.12 29.003,15.68 L29,17 C29,17.553 29.447,18 30,18 C30.553,18 31,17.553 31,17 L31.003,15.688" id="Fill-2577" fill="#FFF7EC" sketch:type="MSShapeGroup"></path>
            <path d="M17,14 C17.552,14 18,13.552 18,13 C18,12.448 17.552,12 17,12 C16.448,12 16,12.448 16,13 C16,13.552 16.448,14 17,14" id="Fill-2582" fill="#6B5B4B" sketch:type="MSShapeGroup"></path>
            <path d="M15,16 C15.552,16 16,15.552 16,15 C16,14.448 15.552,14 15,14 C14.448,14 14,14.448 14,15 C14,15.552 14.448,16 15,16" id="Fill-2583" fill="#6B5B4B" sketch:type="MSShapeGroup"></path>
            <path d="M15,18 C14.448,18 14,18.448 14,19 C14,19.552 14.448,20 15,20 C15.552,20 16,19.552 16,19 C16,18.448 15.552,18 15,18" id="Fill-2584" fill="#6B5B4B" sketch:type="MSShapeGroup"></path>
            <path d="M7,18 C6.448,18 6,18.448 6,19 C6,19.552 6.448,20 7,20 C7.552,20 8,19.552 8,19 C8,18.448 7.552,18 7,18" id="Fill-2585" fill="#6B5B4B" sketch:type="MSShapeGroup"></path>
            <path d="M19,14 C18.448,14 18,14.448 18,15 C18,15.552 18.448,16 19,16 C19.552,16 20,15.552 20,15 C20,14.448 19.552,14 19,14" id="Fill-2586" fill="#6B5B4B" sketch:type="MSShapeGroup"></path>
            <path d="M21,12 C20.448,12 20,12.448 20,13 C20,13.552 20.448,14 21,14 C21.552,14 22,13.552 22,13 C22,12.448 21.552,12 21,12" id="Fill-2587" fill="#6B5B4B" sketch:type="MSShapeGroup"></path>
            <path d="M17,8 C16.448,8 16,8.448 16,9 C16,9.552 16.448,10 17,10 C17.552,10 18,9.552 18,9 C18,8.448 17.552,8 17,8" id="Fill-2588" fill="#6B5B4B" sketch:type="MSShapeGroup"></path>
            <path d="M15,10 C14.448,10 14,10.448 14,11 C14,11.552 14.448,12 15,12 C15.552,12 16,11.552 16,11 C16,10.448 15.552,10 15,10" id="Fill-2589" fill="#6B5B4B" sketch:type="MSShapeGroup"></path>
            <path d="M19,12 C19.552,12 20,11.552 20,11 C20,10.448 19.552,10 19,10 C18.448,10 18,10.448 18,11 C18,11.552 18.448,12 19,12" id="Fill-2590" fill="#6B5B4B" sketch:type="MSShapeGroup"></path>
            <path d="M21,10 C21.552,10 22,9.552 22,9 C22,8.448 21.552,8 21,8 C20.448,8 20,8.448 20,9 C20,9.552 20.448,10 21,10" id="Fill-2591" fill="#6B5B4B" sketch:type="MSShapeGroup"></path>
            <path d="M9,12 C8.448,12 8,12.448 8,13 C8,13.552 8.448,14 9,14 C9.552,14 10,13.552 10,13 C10,12.448 9.552,12 9,12" id="Fill-2592" fill="#6B5B4B" sketch:type="MSShapeGroup"></path>
            <path d="M7,16 C7.552,16 8,15.552 8,15 C8,14.448 7.552,14 7,14 C6.448,14 6,14.448 6,15 C6,15.552 6.448,16 7,16" id="Fill-2593" fill="#6B5B4B" sketch:type="MSShapeGroup"></path>
            <path d="M11,16 C11.552,16 12,15.552 12,15 C12,14.448 11.552,14 11,14 C10.448,14 10,14.448 10,15 C10,15.552 10.448,16 11,16" id="Fill-2594" fill="#6B5B4B" sketch:type="MSShapeGroup"></path>
            <path d="M13,14 C13.552,14 14,13.552 14,13 C14,12.448 13.552,12 13,12 C12.448,12 12,12.448 12,13 C12,13.552 12.448,14 13,14" id="Fill-2595" fill="#6B5B4B" sketch:type="MSShapeGroup"></path>
            <path d="M9,10 C9.552,10 10,9.552 10,9 C10,8.448 9.552,8 9,8 C8.448,8 8,8.448 8,9 C8,9.552 8.448,10 9,10" id="Fill-2596" fill="#6B5B4B" sketch:type="MSShapeGroup"></path>
            <path d="M7,12 C7.552,12 8,11.552 8,11 C8,10.448 7.552,10 7,10 C6.448,10 6,10.448 6,11 C6,11.552 6.448,12 7,12" id="Fill-2597" fill="#6B5B4B" sketch:type="MSShapeGroup"></path>
            <path d="M11,10 C10.448,10 10,10.448 10,11 C10,11.552 10.448,12 11,12 C11.552,12 12,11.552 12,11 C12,10.448 11.552,10 11,10" id="Fill-2598" fill="#6B5B4B" sketch:type="MSShapeGroup"></path>
            <path d="M13,10 C13.552,10 14,9.552 14,9 C14,8.448 13.552,8 13,8 C12.448,8 12,8.448 12,9 C12,9.552 12.448,10 13,10" id="Fill-2599" fill="#6B5B4B" sketch:type="MSShapeGroup"></path>
            <path d="M13,6 C13.552,6 14,5.552 14,5 C14,4.448 13.552,4 13,4 C12.448,4 12,4.448 12,5 C12,5.552 12.448,6 13,6" id="Fill-2600" fill="#6B5B4B" sketch:type="MSShapeGroup"></path>
            <path d="M11,8 C11.552,8 12,7.552 12,7 C12,6.448 11.552,6 11,6 C10.448,6 10,6.448 10,7 C10,7.552 10.448,8 11,8" id="Fill-2601" fill="#6B5B4B" sketch:type="MSShapeGroup"></path>
            <path d="M15,8 C15.552,8 16,7.552 16,7 C16,6.448 15.552,6 15,6 C14.448,6 14,6.448 14,7 C14,7.552 14.448,8 15,8" id="Fill-2602" fill="#6B5B4B" sketch:type="MSShapeGroup"></path>
            <path d="M19,8 C19.552,8 20,7.552 20,7 C20,6.448 19.552,6 19,6 C18.448,6 18,6.448 18,7 C18,7.552 18.448,8 19,8" id="Fill-2603" fill="#6B5B4B" sketch:type="MSShapeGroup"></path>
            <path d="M17,16 C16.448,16 16,16.448 16,17 C16,17.552 16.448,18 17,18 C17.552,18 18,17.552 18,17 C18,16.448 17.552,16 17,16" id="Fill-2604" fill="#6B5B4B" sketch:type="MSShapeGroup"></path>
            <path d="M13,16 C12.448,16 12,16.448 12,17 C12,17.552 12.448,18 13,18 C13.552,18 14,17.552 14,17 C14,16.448 13.552,16 13,16" id="Fill-2605" fill="#6B5B4B" sketch:type="MSShapeGroup"></path>
            <path d="M11,18 C10.448,18 10,18.448 10,19 C10,19.552 10.448,20 11,20 C11.552,20 12,19.552 12,19 C12,18.448 11.552,18 11,18" id="Fill-2606" fill="#6B5B4B" sketch:type="MSShapeGroup"></path>
            <path d="M9,16 C8.448,16 8,16.448 8,17 C8,17.552 8.448,18 9,18 C9.552,18 10,17.552 10,17 C10,16.448 9.552,16 9,16" id="Fill-2607" fill="#6B5B4B" sketch:type="MSShapeGroup"></path>
            <path d="M17,6 C17.552,6 18,5.552 18,5 C18,4.448 17.552,4 17,4 C16.448,4 16,4.448 16,5 C16,5.552 16.448,6 17,6" id="Fill-2608" fill="#6B5B4B" sketch:type="MSShapeGroup"></path>
        </g>
    </g>
</svg>