<?xml version="1.0" encoding="UTF-8" standalone="no"?>
<svg width="50px" height="55px" viewBox="0 0 50 55" version="1.1" xmlns="http://www.w3.org/2000/svg" xmlns:xlink="http://www.w3.org/1999/xlink" xmlns:sketch="http://www.bohemiancoding.com/sketch/ns">
    <!-- Generator: Sketch 3.2.2 (9983) - http://www.bohemiancoding.com/sketch -->
    <title>45 - Mildly Rotten Molar (Flat)</title>
    <desc>Created with Sketch.</desc>
    <defs></defs>
    <g id="Page-1" stroke="none" stroke-width="1" fill="none" fill-rule="evenodd" sketch:type="MSPage">
        <g id="45---Mildly-Rotten-Molar-(Flat)" sketch:type="MSLayerGroup" transform="translate(0.000000, -1.000000)">
            <path d="M49.133,10.908 C51.666,20.482 48.049,31.899 45.938,41.32 C45.02,45.414 44.253,49.605 42.147,53.296 C38.814,59.137 36.158,51.51 35.111,48.284 C33.823,44.319 33.405,39.197 29.444,36.838 C25.497,34.488 21.837,36.89 19.551,40.234 C17.235,43.622 16.357,47.559 14.889,51.327 C14.21,53.07 13.46,54.813 11.618,55.593 C9.662,55.593 8.304,52.02 7.586,50.285 C3.666,40.819 2.461,30.092 0.947,20.03 C-0.118,12.951 2.177,4.537 9.53,1.931 C13.526,0.515 19,1.821 23,3 C25.299,3.678 24.875,3.457 27.165,2.662 C27.341,2.601 27.514,2.519 27.694,2.445 C32.595,0.418 38.502,0.401 42.816,3.175 C45.727,5.047 48.291,7.725 49.133,10.908" id="Fill-2537" fill="#ECE3D2" sketch:type="MSShapeGroup"></path>
            <path d="M44.916,6.504 C44.334,6.028 43.727,5.58 43.099,5.176 C38.785,2.402 32.878,2.418 27.977,4.445 C27.797,4.52 27.624,4.602 27.448,4.663 C25.158,5.457 25.581,5.678 23.283,5 C19.282,3.821 13.809,2.516 9.813,3.932 C8.341,4.453 7.08,5.216 6,6.146 C10.362,10.599 17.53,13.509 25.644,13.509 C33.536,13.509 40.526,10.753 44.916,6.504" id="Fill-2538" fill="#F8EDDF" sketch:type="MSShapeGroup"></path>
            <path d="M29.444,36.838 C25.497,34.488 21.837,36.89 19.551,40.234 C19.179,40.779 18.853,41.342 18.547,41.913 C18.637,42.128 18.724,42.336 18.823,42.571 C19.945,45.226 23.033,51.049 26.758,49.944 C28.642,49.385 29.634,47.246 30.419,45.633 C31.029,44.38 32.192,42.454 32.766,40.751 C32.033,39.175 31.028,37.781 29.444,36.838" id="Fill-2539" fill="#DDD3C3" sketch:type="MSShapeGroup"></path>
            <path d="M31.003,15.688 C31.027,9.586 31.017,6.927 25.421,3.304 C24.8,3.493 24.416,3.418 23,3 C21.519,2.563 19.837,2.111 18.102,1.784 L22.508,3.87 C29.034,7.562 29.028,9.12 29.003,15.682 L29,17 C29,17.553 29.448,18 30,18 C30.552,18 31,17.553 31,17 L31.003,15.688" id="Fill-2540" fill="#FFF7EC" sketch:type="MSShapeGroup"></path>
            <path d="M15.7,14 C16.252,14 16.7,13.552 16.7,13 C16.7,12.448 16.252,12 15.7,12 C15.148,12 14.7,12.448 14.7,13 C14.7,13.552 15.148,14 15.7,14" id="Fill-2541" fill="#B5A896" sketch:type="MSShapeGroup"></path>
            <path d="M13.7,18 C13.148,18 12.7,18.448 12.7,19 C12.7,19.552 13.148,20 13.7,20 C14.252,20 14.7,19.552 14.7,19 C14.7,18.448 14.252,18 13.7,18" id="Fill-2542" fill="#B5A896" sketch:type="MSShapeGroup"></path>
            <path d="M5.7,18 C5.148,18 4.7,18.448 4.7,19 C4.7,19.552 5.148,20 5.7,20 C6.252,20 6.7,19.552 6.7,19 C6.7,18.448 6.252,18 5.7,18" id="Fill-2543" fill="#B5A896" sketch:type="MSShapeGroup"></path>
            <path d="M17.7,14 C17.148,14 16.7,14.448 16.7,15 C16.7,15.552 17.148,16 17.7,16 C18.252,16 18.7,15.552 18.7,15 C18.7,14.448 18.252,14 17.7,14" id="Fill-2544" fill="#B5A896" sketch:type="MSShapeGroup"></path>
            <path d="M19.7,12 C19.148,12 18.7,12.448 18.7,13 C18.7,13.552 19.148,14 19.7,14 C20.252,14 20.7,13.552 20.7,13 C20.7,12.448 20.252,12 19.7,12" id="Fill-2545" fill="#B5A896" sketch:type="MSShapeGroup"></path>
            <path d="M15.7,8 C15.148,8 14.7,8.448 14.7,9 C14.7,9.552 15.148,10 15.7,10 C16.252,10 16.7,9.552 16.7,9 C16.7,8.448 16.252,8 15.7,8" id="Fill-2546" fill="#B5A896" sketch:type="MSShapeGroup"></path>
            <path d="M17.7,12 C18.252,12 18.7,11.552 18.7,11 C18.7,10.448 18.252,10 17.7,10 C17.148,10 16.7,10.448 16.7,11 C16.7,11.552 17.148,12 17.7,12" id="Fill-2547" fill="#B5A896" sketch:type="MSShapeGroup"></path>
            <path d="M19.7,10 C20.252,10 20.7,9.552 20.7,9 C20.7,8.448 20.252,8 19.7,8 C19.148,8 18.7,8.448 18.7,9 C18.7,9.552 19.148,10 19.7,10" id="Fill-2548" fill="#B5A896" sketch:type="MSShapeGroup"></path>
            <path d="M17.7,8 C18.252,8 18.7,7.552 18.7,7 C18.7,6.448 18.252,6 17.7,6 C17.148,6 16.7,6.448 16.7,7 C16.7,7.552 17.148,8 17.7,8" id="Fill-2549" fill="#B5A896" sketch:type="MSShapeGroup"></path>
            <path d="M15.7,16 C15.148,16 14.7,16.448 14.7,17 C14.7,17.552 15.148,18 15.7,18 C16.252,18 16.7,17.552 16.7,17 C16.7,16.448 16.252,16 15.7,16" id="Fill-2550" fill="#B5A896" sketch:type="MSShapeGroup"></path>
            <path d="M9.7,18 C9.148,18 8.7,18.448 8.7,19 C8.7,19.552 9.148,20 9.7,20 C10.252,20 10.7,19.552 10.7,19 C10.7,18.448 10.252,18 9.7,18" id="Fill-2551" fill="#B5A896" sketch:type="MSShapeGroup"></path>
            <path d="M15.7,6 C16.252,6 16.7,5.552 16.7,5 C16.7,4.448 16.252,4 15.7,4 C15.148,4 14.7,4.448 14.7,5 C14.7,5.552 15.148,6 15.7,6" id="Fill-2552" fill="#B5A896" sketch:type="MSShapeGroup"></path>
            <path d="M13.7,16 C14.252,16 14.7,15.552 14.7,15 C14.7,14.448 14.252,14 13.7,14 C13.148,14 12.7,14.448 12.7,15 C12.7,15.552 13.148,16 13.7,16" id="Fill-2553" fill="#B5A896" sketch:type="MSShapeGroup"></path>
            <path d="M13.7,10 C13.148,10 12.7,10.448 12.7,11 C12.7,11.552 13.148,12 13.7,12 C14.252,12 14.7,11.552 14.7,11 C14.7,10.448 14.252,10 13.7,10" id="Fill-2554" fill="#B5A896" sketch:type="MSShapeGroup"></path>
            <path d="M7.7,12 C7.148,12 6.7,12.448 6.7,13 C6.7,13.552 7.148,14 7.7,14 C8.252,14 8.7,13.552 8.7,13 C8.7,12.448 8.252,12 7.7,12" id="Fill-2555" fill="#B5A896" sketch:type="MSShapeGroup"></path>
            <path d="M5.7,16 C6.252,16 6.7,15.552 6.7,15 C6.7,14.448 6.252,14 5.7,14 C5.148,14 4.7,14.448 4.7,15 C4.7,15.552 5.148,16 5.7,16" id="Fill-2556" fill="#B5A896" sketch:type="MSShapeGroup"></path>
            <path d="M9.7,16 C10.252,16 10.7,15.552 10.7,15 C10.7,14.448 10.252,14 9.7,14 C9.148,14 8.7,14.448 8.7,15 C8.7,15.552 9.148,16 9.7,16" id="Fill-2557" fill="#B5A896" sketch:type="MSShapeGroup"></path>
            <path d="M11.7,14 C12.252,14 12.7,13.552 12.7,13 C12.7,12.448 12.252,12 11.7,12 C11.148,12 10.7,12.448 10.7,13 C10.7,13.552 11.148,14 11.7,14" id="Fill-2558" fill="#B5A896" sketch:type="MSShapeGroup"></path>
            <path d="M7.7,10 C8.252,10 8.7,9.552 8.7,9 C8.7,8.448 8.252,8 7.7,8 C7.148,8 6.7,8.448 6.7,9 C6.7,9.552 7.148,10 7.7,10" id="Fill-2559" fill="#B5A896" sketch:type="MSShapeGroup"></path>
            <path d="M5.7,12 C6.252,12 6.7,11.552 6.7,11 C6.7,10.448 6.252,10 5.7,10 C5.148,10 4.7,10.448 4.7,11 C4.7,11.552 5.148,12 5.7,12" id="Fill-2560" fill="#B5A896" sketch:type="MSShapeGroup"></path>
            <path d="M9.7,10 C9.148,10 8.7,10.448 8.7,11 C8.7,11.552 9.148,12 9.7,12 C10.252,12 10.7,11.552 10.7,11 C10.7,10.448 10.252,10 9.7,10" id="Fill-2561" fill="#B5A896" sketch:type="MSShapeGroup"></path>
            <path d="M11.7,10 C12.252,10 12.7,9.552 12.7,9 C12.7,8.448 12.252,8 11.7,8 C11.148,8 10.7,8.448 10.7,9 C10.7,9.552 11.148,10 11.7,10" id="Fill-2562" fill="#B5A896" sketch:type="MSShapeGroup"></path>
            <path d="M11.7,6 C12.252,6 12.7,5.552 12.7,5 C12.7,4.448 12.252,4 11.7,4 C11.148,4 10.7,4.448 10.7,5 C10.7,5.552 11.148,6 11.7,6" id="Fill-2563" fill="#B5A896" sketch:type="MSShapeGroup"></path>
            <path d="M9.7,8 C10.252,8 10.7,7.552 10.7,7 C10.7,6.448 10.252,6 9.7,6 C9.148,6 8.7,6.448 8.7,7 C8.7,7.552 9.148,8 9.7,8" id="Fill-2564" fill="#B5A896" sketch:type="MSShapeGroup"></path>
            <path d="M13.7,8 C14.252,8 14.7,7.552 14.7,7 C14.7,6.448 14.252,6 13.7,6 C13.148,6 12.7,6.448 12.7,7 C12.7,7.552 13.148,8 13.7,8" id="Fill-2565" fill="#B5A896" sketch:type="MSShapeGroup"></path>
            <path d="M11.7,16 C11.148,16 10.7,16.448 10.7,17 C10.7,17.552 11.148,18 11.7,18 C12.252,18 12.7,17.552 12.7,17 C12.7,16.448 12.252,16 11.7,16" id="Fill-2566" fill="#B5A896" sketch:type="MSShapeGroup"></path>
            <path d="M7.7,16 C7.148,16 6.7,16.448 6.7,17 C6.7,17.552 7.148,18 7.7,18 C8.252,18 8.7,17.552 8.7,17 C8.7,16.448 8.252,16 7.7,16" id="Fill-2567" fill="#B5A896" sketch:type="MSShapeGroup"></path>
        </g>
    </g>
</svg>