<?xml version="1.0" encoding="UTF-8" standalone="no"?>
<svg width="50px" height="56px" viewBox="0 0 50 56" version="1.1" xmlns="http://www.w3.org/2000/svg" xmlns:xlink="http://www.w3.org/1999/xlink" xmlns:sketch="http://www.bohemiancoding.com/sketch/ns">
    <!-- Generator: Sketch 3.2.2 (9983) - http://www.bohemiancoding.com/sketch -->
    <title>20 - Molar Screw (Flat)</title>
    <desc>Created with Sketch.</desc>
    <defs></defs>
    <g id="Page-1" stroke="none" stroke-width="1" fill="none" fill-rule="evenodd" sketch:type="MSPage">
        <g id="20---Molar-Screw-(Flat)" sketch:type="MSLayerGroup" transform="translate(-1.000000, 0.000000)">
            <path d="M50.121,10.158 C49.267,6.895 46.666,4.15 43.714,2.23 C39.339,-0.613 33.348,-0.597 28.377,1.482 C28.195,1.558 28.02,1.642 27.841,1.705 C25.518,2.519 25.948,2.746 23.617,2.051 C19.56,0.842 14.008,-0.496 9.956,0.955 C2.498,3.626 0.17,12.253 1.25,19.51 C1.886,23.782 2.469,28.171 3.215,32.537 C3.625,34.932 5.995,36.497 8.314,35.855 C10.114,35.357 12.021,34.995 14,34.721 L36,34.307 C38.779,34.53 41.43,34.906 43.907,35.528 C46.16,36.093 48.438,34.735 48.954,32.447 C50.632,25.001 51.939,17.108 50.121,10.158" id="Fill-254" fill="#E8EDEE" sketch:type="MSShapeGroup"></path>
            <path d="M31,22 L19,22 L19,17 L22,14 L28,14 L31,17 L31,22" id="Fill-1712" fill="#EFD18F" sketch:type="MSShapeGroup"></path>
            <path d="M19,22 L19,48 L21,48 L21,52 L24,56 L26,56 L29,52 L29,48 L31,48 L31,22 L19,22" id="Fill-1713" fill="#CEB984" sketch:type="MSShapeGroup"></path>
            <path d="M23.697,42.824 L16.697,45.047 C16.171,45.214 15.88,45.776 16.047,46.303 C16.182,46.729 16.576,47 16.999,47 C17.1,47 17.202,46.985 17.303,46.953 L24.303,44.731 C24.829,44.564 25.12,44.001 24.953,43.475 C24.786,42.947 24.221,42.654 23.697,42.824" id="Fill-1714" fill="#EFD18F" sketch:type="MSShapeGroup"></path>
            <path d="M32.684,40.052 L27.684,41.719 C27.16,41.893 26.876,42.459 27.051,42.983 C27.191,43.402 27.581,43.667 28,43.667 C28.104,43.667 28.211,43.65 28.316,43.615 L33.316,41.948 C33.84,41.774 34.123,41.208 33.949,40.684 C33.774,40.16 33.209,39.877 32.684,40.052" id="Fill-1715" fill="#EFD18F" sketch:type="MSShapeGroup"></path>
            <path d="M23.697,24.824 L16.697,27.047 C16.171,27.214 15.88,27.776 16.047,28.303 C16.182,28.729 16.576,29 16.999,29 C17.1,29 17.202,28.985 17.303,28.953 L24.303,26.731 C24.829,26.564 25.12,26.001 24.953,25.475 C24.786,24.948 24.221,24.656 23.697,24.824" id="Fill-1716" fill="#EFD18F" sketch:type="MSShapeGroup"></path>
            <path d="M28,25.667 C28.104,25.667 28.211,25.65 28.316,25.615 L33.316,23.948 C33.84,23.774 34.123,23.208 33.949,22.684 C33.774,22.16 33.209,21.877 32.684,22.052 L27.684,23.719 C27.16,23.893 26.876,24.459 27.051,24.983 C27.191,25.402 27.581,25.667 28,25.667" id="Fill-1717" fill="#EFD18F" sketch:type="MSShapeGroup"></path>
            <path d="M23.697,36.824 L16.697,39.047 C16.171,39.214 15.88,39.776 16.047,40.303 C16.182,40.729 16.576,41 16.999,41 C17.1,41 17.202,40.985 17.303,40.953 L24.303,38.731 C24.829,38.564 25.12,38.001 24.953,37.475 C24.786,36.947 24.221,36.654 23.697,36.824" id="Fill-1718" fill="#EFD18F" sketch:type="MSShapeGroup"></path>
            <path d="M23.697,30.824 L16.697,33.047 C16.171,33.214 15.88,33.776 16.047,34.303 C16.182,34.729 16.576,35 16.999,35 C17.1,35 17.202,34.985 17.303,34.953 L24.303,32.731 C24.829,32.564 25.12,32.001 24.953,31.475 C24.786,30.948 24.221,30.656 23.697,30.824" id="Fill-1719" fill="#EFD18F" sketch:type="MSShapeGroup"></path>
            <path d="M32.684,28.052 L27.684,29.719 C27.16,29.893 26.876,30.459 27.051,30.983 C27.191,31.402 27.581,31.667 28,31.667 C28.104,31.667 28.211,31.65 28.316,31.615 L33.316,29.948 C33.84,29.774 34.123,29.208 33.949,28.684 C33.774,28.16 33.209,27.877 32.684,28.052" id="Fill-1720" fill="#EFD18F" sketch:type="MSShapeGroup"></path>
            <path d="M32.684,34.052 L27.684,35.719 C27.16,35.893 26.876,36.459 27.051,36.983 C27.191,37.402 27.581,37.667 28,37.667 C28.104,37.667 28.211,37.65 28.316,37.615 L33.316,35.948 C33.84,35.774 34.123,35.208 33.949,34.684 C33.774,34.16 33.209,33.877 32.684,34.052" id="Fill-1721" fill="#EFD18F" sketch:type="MSShapeGroup"></path>
            <path d="M49.24,10.909 C48.398,7.726 45.834,5.048 42.923,3.176 C38.609,0.402 32.702,0.418 27.8,2.445 C27.62,2.52 27.448,2.602 27.272,2.663 C24.982,3.457 25.405,3.678 23.107,3.001 C19.106,1.821 13.633,0.516 9.637,1.932 C2.283,4.537 4.665,11.684 9.937,9.816 C13.933,8.4 19.407,9.706 23.407,10.885 C25.705,11.563 25.282,11.341 27.572,10.547 C27.748,10.486 27.921,10.404 28.101,10.33 C33.002,8.302 38.909,8.286 43.223,11.06 C46.134,12.932 50.082,14.093 49.24,10.909" id="Fill-2717" fill="#F0F7F8" sketch:type="MSShapeGroup"></path>
            <path d="M18.354,5.614 C17.798,4.961 17.015,4.818 16.189,4.937 C14.469,5.184 12.76,5.564 11.052,5.884 C8.968,6.274 7.431,7.69 8.695,9.87 C9.824,11.815 12.892,11.686 14.853,11.108 C15.09,11.122 15.338,11.061 15.564,10.884 C16.74,9.968 19.846,7.366 18.354,5.614" id="Fill-2718" fill="#FFFFFF" sketch:type="MSShapeGroup"></path>
            <path d="M38.719,3.899 L39.594,3.899 C40.884,3.899 40.884,1.899 39.594,1.899 L38.719,1.899 C37.429,1.899 37.429,3.899 38.719,3.899" id="Fill-2719" fill="#FFFFFF" sketch:type="MSShapeGroup"></path>
            <path d="M27.297,10.556 C27.49,11.535 28.435,12.163 29.414,11.97 C29.424,11.968 29.434,11.966 29.444,11.964 C29.478,11.958 29.509,11.954 29.542,11.948 C29.2,9.253 28.421,6.63 27.202,4.099 C26.642,2.939 24.922,3.96 25.478,5.115 C26.33,6.883 26.93,8.7 27.297,10.556" id="Fill-2720" fill="#FFFFFF" sketch:type="MSShapeGroup"></path>
        </g>
    </g>
</svg>