<?xml version="1.0" encoding="UTF-8" standalone="no"?>
<svg width="60px" height="50px" viewBox="0 0 60 50" version="1.1" xmlns="http://www.w3.org/2000/svg" xmlns:xlink="http://www.w3.org/1999/xlink" xmlns:sketch="http://www.bohemiancoding.com/sketch/ns">
    <!-- Generator: Sketch 3.2.2 (9983) - http://www.bohemiancoding.com/sketch -->
    <title>14 - Molar Extraction (Flat)</title>
    <desc>Created with Sketch.</desc>
    <defs></defs>
    <g id="Page-1" stroke="none" stroke-width="1" fill="none" fill-rule="evenodd" sketch:type="MSPage">
        <g id="14---Molar-Extraction-(Flat)" sketch:type="MSLayerGroup">
            <path d="M55.276,19 L53.032,19 C48.427,19 44.396,21.877 42.82,26.068 C42.55,27.282 42.294,28.507 41.962,29.707 L41.692,31.127 C40.712,36.275 36.211,40 30.971,40 L29.029,40 C23.842,40 19.385,36.348 18.344,31.28 C17.674,29.61 17.135,27.881 16.682,26.118 C14.341,21.817 9.794,18.983 4.678,19 C2.859,19.006 1.585,20.813 2.143,22.544 L7.807,40.101 C9.71,46.001 15.202,50 21.401,50 L38.598,50 C44.798,50 50.29,46.001 52.193,40.101 L57.857,22.544 C58.422,20.793 57.116,19 55.276,19" id="Fill-94" fill="#ED9893" sketch:type="MSShapeGroup"></path>
            <path d="M50.761,35.999 L55.818,19.071 C55.642,19.033 55.464,19 55.276,19 L53.032,19 C48.427,19 44.396,22.107 42.82,26.633 C42.55,27.945 42.294,29.268 41.962,30.564 L41.692,32.097 C40.712,37.657 36.211,41.68 30.971,41.68 L29.029,41.68 C23.842,41.68 19.385,37.736 18.344,32.263 C17.674,30.459 17.135,28.591 16.682,26.687 C14.341,22.043 9.794,18.981 4.678,19 C4.505,19.001 4.343,19.034 4.182,19.068 L9.239,35.999 C11.019,41.96 16.157,46 21.956,46 L38.044,46 C43.843,46 48.981,41.96 50.761,35.999" id="Fill-95" fill="#D18684" sketch:type="MSShapeGroup"></path>
            <path d="M44.882,6.597 C46.492,12.682 44.193,19.939 42.851,25.927 C42.268,28.53 41.78,31.194 40.442,33.54 C38.323,37.252 36.635,32.405 35.969,30.354 C35.151,27.834 34.885,24.578 32.367,23.079 C29.859,21.585 27.532,23.112 26.079,25.237 C24.607,27.391 24.049,29.893 23.116,32.288 C22.684,33.396 22.208,34.504 21.037,35 C19.794,35 18.93,32.729 18.474,31.626 C15.982,25.609 15.216,18.791 14.254,12.395 C13.577,7.896 15.036,2.547 19.71,0.891 C22.25,-0.009 25.729,0.821 28.271,1.57 C29.732,2.001 29.463,1.861 30.919,1.356 C31.031,1.317 31.141,1.265 31.255,1.218 C34.37,-0.071 38.125,-0.081 40.867,1.682 C42.717,2.872 44.347,4.574 44.882,6.597" id="Fill-1589" fill="#E8EDEE" sketch:type="MSShapeGroup"></path>
            <path d="M16,26 C15.61,26 15.239,25.771 15.078,25.388 L7.336,7 L1,7 C0.447,7 0,6.553 0,6 C0,5.447 0.447,5 1,5 L8.664,5 L16.922,24.612 C17.136,25.121 16.898,25.707 16.388,25.922 C16.262,25.975 16.13,26 16,26" id="Fill-1753" fill="#B0B6BB" sketch:type="MSShapeGroup"></path>
            <path d="M43,26 C42.87,26 42.738,25.975 42.612,25.922 C42.102,25.707 41.864,25.121 42.078,24.612 L50.336,5 L59,5 C59.553,5 60,5.447 60,6 C60,6.553 59.553,7 59,7 L51.664,7 L43.922,25.388 C43.761,25.771 43.39,26 43,26" id="Fill-1754" fill="#B0B6BB" sketch:type="MSShapeGroup"></path>
            <path d="M53.032,19 C48.472,19 44.475,21.821 42.867,25.945 C42.836,26.026 42.811,26.11 42.792,26.196 C42.535,27.353 42.289,28.519 41.974,29.663 C41.966,29.692 41.959,29.722 41.953,29.752 L41.916,29.949 C40.806,35.78 35.707,40 29.771,40 L29.029,40 C23.842,40 19.385,36.348 18.344,31.28 C17.698,29.67 17.174,28.005 16.731,26.307 C16.698,26.182 16.651,26.059 16.587,25.946 C15.548,24.101 14.096,22.542 12.368,21.373 C11.123,20.531 9.594,21.978 10.317,23.296 C10.732,24.053 11.131,24.817 11.476,25.611 C11.523,25.718 11.561,25.827 11.604,25.935 C12.058,26.397 12.471,26.899 12.825,27.448 C12.907,27.576 12.967,27.722 13.007,27.868 C13.45,29.498 13.935,30.987 14.482,32.391 C14.499,32.433 14.512,32.477 14.523,32.522 C16.105,39.199 22.135,44 29.029,44 L29.777,44 C37.633,44 44.379,38.415 45.845,30.697 L45.853,30.656 C45.859,30.626 45.865,30.596 45.873,30.567 C46.15,29.542 46.372,28.533 46.588,27.555 L46.657,27.241 C47.391,25.49 48.841,24.112 50.622,23.447 C50.854,23.36 51.066,23.225 51.228,23.039 C52.222,21.895 53.152,20.82 53.515,19.821 C53.545,19.737 53.575,19.653 53.606,19.569 C53.607,19.427 53.611,19.25 53.623,19 L53.032,19" id="Fill-2615" fill="#F4ADAB" sketch:type="MSShapeGroup"></path>
        </g>
    </g>
</svg>