<?xml version="1.0" encoding="UTF-8" standalone="no"?>
<svg width="56px" height="58px" viewBox="0 0 56 58" version="1.1" xmlns="http://www.w3.org/2000/svg" xmlns:xlink="http://www.w3.org/1999/xlink" xmlns:sketch="http://www.bohemiancoding.com/sketch/ns">
    <!-- Generator: Sketch 3.2.2 (9983) - http://www.bohemiancoding.com/sketch -->
    <title>10 - Molar Root Drilling (Flat)</title>
    <desc>Created with Sketch.</desc>
    <defs></defs>
    <g id="Page-1" stroke="none" stroke-width="1" fill="none" fill-rule="evenodd" sketch:type="MSPage">
        <g id="10---Molar-Root-Drilling-(Flat)" sketch:type="MSLayerGroup">
            <path d="M16,22.278 L16,18 C16,17.447 15.552,17 15,17 C14.448,17 14,17.447 14,18 L14,22.278 C13.405,22.625 13,23.263 13,24 C13,25.103 13.897,26 15,26 C16.103,26 17,25.103 17,24 C17,23.263 16.595,22.625 16,22.278" id="Fill-35" fill="#C7CBC7" sketch:type="MSShapeGroup"></path>
            <path d="M56,10.243 L41.869,10.243 C35.065,10.243 28.54,7.54 23.728,2.728 L21,0 L21,8.243 C21,8.25 21.07,8.326 21.198,8.459 C26.011,13.452 32.669,16.243 39.605,16.243 L56,16.243 L56,10.243" id="Fill-259" fill="#B0B6BB" sketch:type="MSShapeGroup"></path>
            <path d="M27.5,20 C23.831,20 20.379,27.977 17.359,31.211 C14.341,34.442 13.105,38.932 14,43.262 C14.593,46.136 15.359,48.959 16.464,51.626 C16.92,52.729 17.783,55 19.026,55 C20.198,54.504 20.674,53.396 21.105,52.288 C22.039,49.893 22.597,47.391 24.069,45.237 C25.522,43.112 27.849,41.585 30.357,43.079 C32.875,44.578 33.141,47.834 33.959,50.354 C34.625,52.405 36.313,57.252 38.431,53.54 C39.77,51.194 40.258,48.53 40.841,45.927 C41.028,45.094 41.232,44.237 41.443,43.362 C42.529,38.837 41.242,34.045 37.967,30.74 C34.872,27.617 31.305,20 27.5,20" id="Fill-1783" fill="#ECE3D2" sketch:type="MSShapeGroup"></path>
            <path d="M53.266,27 L51.022,27 C46.417,27 42.385,29.877 40.81,34.068 C40.761,34.288 40.711,34.508 40.663,34.729 C41.841,37.404 42.145,40.436 41.443,43.362 C41.232,44.237 41.028,45.094 40.841,45.927 C40.258,48.53 39.77,51.194 38.431,53.54 C36.313,57.252 34.625,52.405 33.959,50.354 C33.141,47.834 32.875,44.578 30.357,43.079 C27.849,41.585 25.522,43.112 24.069,45.237 C22.597,47.391 22.039,49.893 21.105,52.288 C20.674,53.396 20.198,54.504 19.026,55 C17.783,55 16.92,52.729 16.464,51.626 C15.359,48.959 14.593,46.136 14,43.262 C13.413,40.422 13.759,37.519 14.908,34.942 C14.832,34.666 14.743,34.395 14.672,34.118 C12.338,29.83 7.811,27 2.713,27 C0.874,27 -0.432,28.793 0.133,30.544 L8.384,56.121 C8.745,57.241 9.787,58 10.964,58 L45.015,58 C46.192,58 47.235,57.241 47.596,56.121 L55.846,30.544 C56.411,28.793 55.106,27 53.266,27" id="Fill-1784" fill="#ED9893" sketch:type="MSShapeGroup"></path>
            <path d="M21,0 L21,12 C21,15.314 18.314,18 15,18 C11.686,18 9,15.314 9,12 L9,0 L21,0" id="Fill-1785" fill="#E8EDEE" sketch:type="MSShapeGroup"></path>
            <path d="M9,10 L21,10 L21,12 L9,12 L9,10 Z" id="Fill-1786" fill="#C7CBC7" sketch:type="MSShapeGroup"></path>
            <path d="M41.001,17.242 C40.634,17.242 40.281,17.04 40.105,16.69 L37.105,10.69 C36.858,10.195 37.059,9.595 37.553,9.348 C38.048,9.103 38.648,9.301 38.894,9.795 L41.894,15.795 C42.142,16.289 41.941,16.89 41.447,17.137 C41.304,17.208 41.151,17.242 41.001,17.242" id="Fill-1787" fill="#E8EDEE" sketch:type="MSShapeGroup"></path>
            <path d="M53.001,17.242 C52.657,17.242 52.322,17.065 52.137,16.747 L48.632,10.747 C48.353,10.27 48.514,9.657 48.991,9.379 C49.469,9.101 50.081,9.262 50.358,9.737 L53.863,15.737 C54.142,16.215 53.981,16.827 53.504,17.106 C53.346,17.198 53.172,17.242 53.001,17.242" id="Fill-1788" fill="#E8EDEE" sketch:type="MSShapeGroup"></path>
            <path d="M47.001,17.242 C46.634,17.242 46.281,17.04 46.105,16.69 L43.105,10.69 C42.858,10.195 43.059,9.595 43.553,9.348 C44.048,9.103 44.648,9.301 44.894,9.795 L47.894,15.795 C48.142,16.289 47.941,16.89 47.447,17.137 C47.304,17.208 47.151,17.242 47.001,17.242" id="Fill-1789" fill="#E8EDEE" sketch:type="MSShapeGroup"></path>
            <path d="M9,2 L12,2 L12,4 L9,4 L9,2 Z" id="Fill-1790" fill="#C7CBC7" sketch:type="MSShapeGroup"></path>
            <path d="M18,2 L21,2 L21,4 L18,4 L18,2 Z" id="Fill-1791" fill="#C7CBC7" sketch:type="MSShapeGroup"></path>
        </g>
    </g>
</svg>