<?xml version="1.0" encoding="UTF-8" standalone="no"?>
<svg width="51px" height="58px" viewBox="0 0 51 58" version="1.1" xmlns="http://www.w3.org/2000/svg" xmlns:xlink="http://www.w3.org/1999/xlink" xmlns:sketch="http://www.bohemiancoding.com/sketch/ns">
    <!-- Generator: Sketch 3.2.2 (9983) - http://www.bohemiancoding.com/sketch -->
    <title>50 - Molar Crown (Flat)</title>
    <desc>Created with Sketch.</desc>
    <defs></defs>
    <g id="Page-1" stroke="none" stroke-width="1" fill="none" fill-rule="evenodd" sketch:type="MSPage">
        <g id="50---Molar-Crown-(Flat)" sketch:type="MSLayerGroup">
            <path d="M6,13 L45,13 L45,19 L6,19 L6,13 Z" id="Fill-104" fill="#C7CBC7" sketch:type="MSShapeGroup"></path>
            <path d="M3,15 L6,15 L6,17 L3,17 L3,15 Z" id="Fill-105" fill="#828282" sketch:type="MSShapeGroup"></path>
            <path d="M45,15 L48,15 L48,17 L45,17 L45,15 Z" id="Fill-106" fill="#828282" sketch:type="MSShapeGroup"></path>
            <path d="M29.444,39.245 C25.497,36.895 21.837,39.297 19.551,42.64 C19.178,43.186 18.853,43.749 18.547,44.32 C18.637,44.534 18.724,44.743 18.823,44.978 C19.945,47.633 23.033,53.455 26.758,52.351 C28.642,51.792 29.634,49.652 30.419,48.04 C31.029,46.787 32.192,44.86 32.766,43.158 C32.033,41.582 31.028,40.188 29.444,39.245" id="Fill-1709" fill="#C6BDAF" sketch:type="MSShapeGroup"></path>
            <path d="M50.067,13 C49.932,11.608 49.709,11.476 49.356,10.145 C48.515,6.962 45.951,4.284 43.039,2.412 C38.726,-0.362 32.818,-0.748 27.917,1.279 C27.737,1.353 27.565,1.436 27.388,1.497 C25.099,2.291 25.522,2.512 23.223,1.834 C19.223,0.655 13.749,-0.248 9.754,1.168 C4.098,3.172 1.444,7.375 1,13 L50.067,13" id="Fill-1710" fill="#ECE3D2" sketch:type="MSShapeGroup"></path>
            <path d="M0.947,22.437 C2.461,32.499 3.665,43.226 7.586,52.692 C8.304,54.426 9.662,58 11.618,58 C13.461,57.22 14.209,55.476 14.889,53.734 C16.357,49.966 17.235,46.029 19.551,42.64 C21.837,39.297 25.497,36.895 29.444,39.245 C33.405,41.604 33.823,46.726 35.111,50.691 C36.158,53.917 38.814,61.544 42.147,55.703 C44.253,52.012 45.02,47.821 45.938,43.726 C47.756,35.615 50.679,27.62 49.843,19 L0.777,19 C0.643,20.689 0.701,20.802 0.947,22.437" id="Fill-1711" fill="#ECE3D2" sketch:type="MSShapeGroup"></path>
            <path d="M6,15 L45,15 L45,17 L6,17 L6,15 Z" id="Fill-2519" fill="#969696" sketch:type="MSShapeGroup"></path>
            <path d="M25.5,8 C31.957,8 37.423,4.942 39.3,0.718 C35.647,-0.384 31.514,-0.209 27.917,1.279 C27.737,1.353 27.565,1.436 27.388,1.497 C25.099,2.291 25.522,2.512 23.223,1.834 C19.834,0.835 15.395,0.051 11.686,0.69 C13.551,4.929 19.029,8 25.5,8" id="Fill-2520" fill="#F8EDDF" sketch:type="MSShapeGroup"></path>
            <path d="M49.843,19 C49.843,19 36.083,23.667 35,31 C34.031,37.561 22.122,39.053 14.491,30.461 C13.179,28.983 12.255,27.212 11.576,25.355 C10.72,23.014 8.201,19 1,19 L49.843,19" id="Fill-2521" fill="#F8EDDF" sketch:type="MSShapeGroup"></path>
        </g>
    </g>
</svg>