<?xml version="1.0" encoding="UTF-8" standalone="no"?>
<svg width="58px" height="58px" viewBox="0 0 58 58" version="1.1" xmlns="http://www.w3.org/2000/svg" xmlns:xlink="http://www.w3.org/1999/xlink" xmlns:sketch="http://www.bohemiancoding.com/sketch/ns">
    <!-- Generator: Sketch 3.2.2 (9983) - http://www.bohemiancoding.com/sketch -->
    <title>71 - Nasal Cavity (Flat)</title>
    <desc>Created with Sketch.</desc>
    <defs></defs>
    <g id="Page-1" stroke="none" stroke-width="1" fill="none" fill-rule="evenodd" sketch:type="MSPage">
        <g id="71---Nasal-Cavity-(Flat)" sketch:type="MSLayerGroup">
            <path d="M32.733,0.253 L33.95,3.404 C33.95,3.404 39.3,17.271 45.747,28.34 C52.193,39.41 41.457,43.51 36.321,44.188 C31.552,44.818 26.987,45.289 27.838,51.529 C27.999,52.708 28.115,53.893 28.088,55.083 L28.023,57.975 C28.348,57.986 28.672,58 29,58 C45.016,58 58,45.016 58,29 C58,14.25 46.984,2.086 32.733,0.253" id="Fill-261" fill="#363D4B" sketch:type="MSShapeGroup"></path>
            <path d="M0,29 C0,44.689 12.46,57.459 28.023,57.975 L28.088,55.083 C28.115,53.893 27.999,52.708 27.838,51.529 C26.987,45.289 31.552,44.818 36.321,44.188 C41.457,43.51 52.193,39.41 45.747,28.34 C39.3,17.271 33.95,3.404 33.95,3.404 L32.731,0.247 C31.508,0.09 30.265,0 29,0 C12.984,0 0,12.984 0,29" id="Fill-1927" fill="#FCCF9D" sketch:type="MSShapeGroup"></path>
            <path d="M14.568,26.503 C14.568,26.503 4.729,43.168 25.054,39.428 C46.463,35.489 37.87,42.002 34.228,40.341" id="Stroke-2078" stroke="#DB9549" stroke-width="2" stroke-linecap="round" stroke-linejoin="round" sketch:type="MSShapeGroup"></path>
        </g>
    </g>
</svg>