<?xml version="1.0" encoding="UTF-8" standalone="no"?>
<svg width="50px" height="59px" viewBox="0 0 50 59" version="1.1" xmlns="http://www.w3.org/2000/svg" xmlns:xlink="http://www.w3.org/1999/xlink" xmlns:sketch="http://www.bohemiancoding.com/sketch/ns">
    <!-- Generator: Sketch 3.2.2 (9983) - http://www.bohemiancoding.com/sketch -->
    <title>12 - Nerve Channel Treatment (Flat)</title>
    <desc>Created with Sketch.</desc>
    <defs></defs>
    <g id="Page-1" stroke="none" stroke-width="1" fill="none" fill-rule="evenodd" sketch:type="MSPage">
        <g id="12---Nerve-Channel-Treatment-(Flat)" sketch:type="MSLayerGroup" transform="translate(0.000000, 1.000000)">
            <path d="M49.133,13.315 C51.666,22.889 48.049,34.306 45.938,43.726 C45.02,47.82 44.253,52.012 42.147,55.703 C38.814,61.544 36.158,53.917 35.111,50.691 C33.823,46.726 33.405,41.604 29.444,39.245 C25.498,36.895 21.837,39.297 19.551,42.64 C17.235,46.029 16.357,49.966 14.889,53.734 C14.21,55.476 13.46,57.22 11.618,58 C9.662,58 8.304,54.427 7.586,52.692 C3.666,43.225 2.461,32.499 0.947,22.437 C-0.118,15.358 2.177,6.943 9.531,4.338 C13.526,2.922 19,4.227 23,5.407 C25.299,6.084 24.875,5.863 27.165,5.069 C27.342,5.008 27.514,4.926 27.694,4.852 C32.595,2.824 38.502,2.808 42.816,5.582 C45.727,7.454 48.291,10.132 49.133,13.315" id="Fill-53" fill="#ECE3D2" sketch:type="MSShapeGroup"></path>
            <path d="M29.444,39.245 C25.498,36.895 21.837,39.297 19.551,42.64 C19.178,43.186 18.853,43.749 18.547,44.32 C18.637,44.534 18.724,44.743 18.823,44.978 C19.945,47.633 23.033,53.456 26.758,52.351 C28.642,51.792 29.634,49.652 30.419,48.04 C31.029,46.787 32.192,44.86 32.766,43.158 C32.033,41.582 31.028,40.188 29.444,39.245" id="Fill-54" fill="#DDD3C3" sketch:type="MSShapeGroup"></path>
            <path d="M13.594,6.721 C13.213,6.721 12.857,6.741 12.511,6.771 L7.742,43.56 C8.458,46.302 9.297,48.984 10.357,51.543 L10.481,51.844 C10.66,52.279 11.063,53.261 11.485,54.06 C11.676,53.684 11.871,53.217 12.094,52.644 C12.489,51.63 12.839,50.604 13.209,49.518 C14.182,46.661 15.188,43.707 17.075,40.948 C17.274,40.657 17.486,40.393 17.695,40.123 L22.018,8.245 C19.743,7.579 16.455,6.721 13.594,6.721" id="Fill-55" fill="#C1B6A7" sketch:type="MSShapeGroup"></path>
            <path d="M11.535,53 C11.497,53 11.458,52.998 11.419,52.993 C10.87,52.93 10.477,52.433 10.541,51.885 L16.007,4.885 C16.071,4.337 16.568,3.94 17.115,4.007 C17.664,4.07 18.057,4.567 17.993,5.115 L12.527,52.115 C12.468,52.625 12.036,53 11.535,53" id="Fill-1759" fill="#7383BF" sketch:type="MSShapeGroup"></path>
            <path d="M10,34 L16,34 L16,36 L10,36 L10,34 Z" id="Fill-1760" fill="#7383BF" sketch:type="MSShapeGroup"></path>
            <path d="M9.79,37 L15.79,37 L15.79,39 L9.79,39 L9.79,37 Z" id="Fill-1761" fill="#7383BF" sketch:type="MSShapeGroup"></path>
            <path d="M9.581,40 L15.581,40 L15.581,42 L9.581,42 L9.581,40 Z" id="Fill-1762" fill="#7383BF" sketch:type="MSShapeGroup"></path>
            <path d="M9.371,43 L15.371,43 L15.371,45 L9.371,45 L9.371,43 Z" id="Fill-1763" fill="#7383BF" sketch:type="MSShapeGroup"></path>
            <path d="M9.162,46 L15.162,46 L15.162,48 L9.162,48 L9.162,46 Z" id="Fill-1764" fill="#7383BF" sketch:type="MSShapeGroup"></path>
            <path d="M14,0 L20,0 L20,5 L14,5 L14,0 Z" id="Fill-1765" fill="#556080" sketch:type="MSShapeGroup"></path>
            <path d="M12,0 L22,0" id="Stroke-1782" stroke="#3E465B" stroke-width="2" sketch:type="MSShapeGroup"></path>
            <path d="M25.116,5.97 C24.123,6.873 24.523,8.367 25.561,9.045 C26.825,9.871 28.37,10.019 29.835,10.154 C31.12,10.273 31.108,8.272 29.835,8.154 C29.148,8.091 28.474,8.012 27.801,7.85 C27.511,7.779 27.231,7.677 26.96,7.551 C26.832,7.49 26.712,7.417 26.599,7.332 C26.516,7.198 26.493,7.216 26.53,7.384 C27.486,6.515 26.068,5.104 25.116,5.97" id="Fill-2705" fill="#FFFFFF" sketch:type="MSShapeGroup"></path>
            <path d="M36.735,8.18 C38.762,8.474 40.478,9.234 41.997,10.622 C42.732,11.293 43.253,12.14 43.722,13.005 C43.933,13.395 45.371,16.96 43.956,16.834 C42.671,16.719 42.682,18.721 43.956,18.834 C47.459,19.146 46.614,14.526 45.717,12.58 C44.12,9.111 41.051,6.8 37.267,6.251 C36.006,6.068 35.463,7.995 36.735,8.18" id="Fill-2706" fill="#FFFFFF" sketch:type="MSShapeGroup"></path>
        </g>
    </g>
</svg>