<?xml version="1.0" encoding="UTF-8" standalone="no"?>
<svg width="58px" height="58px" viewBox="0 0 58 58" version="1.1" xmlns="http://www.w3.org/2000/svg" xmlns:xlink="http://www.w3.org/1999/xlink" xmlns:sketch="http://www.bohemiancoding.com/sketch/ns">
    <!-- Generator: Sketch 3.2.2 (9983) - http://www.bohemiancoding.com/sketch -->
    <title>85 - Obesse (Flat)</title>
    <desc>Created with Sketch.</desc>
    <defs></defs>
    <g id="Page-1" stroke="none" stroke-width="1" fill="none" fill-rule="evenodd" sketch:type="MSPage">
        <g id="85---Obesse-(Flat)" sketch:type="MSLayerGroup">
            <path d="M26.101,54 L27,57.923 C27.661,57.971 28.327,58 29,58 C29.673,58 30.339,57.971 31,57.923 L32,54 L26.101,54" id="Fill-271" fill="#CC4B4C" sketch:type="MSShapeGroup"></path>
            <path d="M9.423,39.755 C5.713,33.327 3.712,23.371 4.042,14.282 C1.488,18.599 0,23.621 0,29 C0,37.754 3.885,45.596 10.018,50.914 L10.018,41.988 C10.018,41.202 9.816,40.436 9.423,39.755" id="Fill-272" fill="#CC4B4C" sketch:type="MSShapeGroup"></path>
            <path d="M53.957,14.233 C54.296,23.322 52.3,33.287 48.594,39.726 C48.203,40.406 48,41.168 48.002,41.952 C48.003,41.968 48.003,41.984 48.003,42 L48.003,50.896 C54.124,45.579 58,37.745 58,29 C58,23.606 56.522,18.559 53.957,14.233" id="Fill-273" fill="#CC4B4C" sketch:type="MSShapeGroup"></path>
            <path d="M31.919,54 L32,54 L31,57.924 C35.61,57.609 39.924,56.22 43.692,54 C45.226,53.097 46.667,52.057 48.003,50.896 L48.003,44.076 C41.157,44.573 35.257,48.423 31.919,54" id="Fill-1386" fill="#FCCF9D" sketch:type="MSShapeGroup"></path>
            <path d="M53.957,14.233 L53.957,14.233 C53.338,13.189 52.655,12.19 51.914,11.236 C51.88,11.192 51.845,11.148 51.81,11.104 C51.459,10.656 51.095,10.217 50.717,9.791 C50.703,9.775 50.689,9.758 50.675,9.741 C49.884,8.852 49.038,8.014 48.145,7.227 C48.085,7.174 48.024,7.122 47.963,7.07 C47.566,6.726 47.161,6.393 46.745,6.071 C46.693,6.031 46.642,5.988 46.589,5.948 C45.665,5.242 44.697,4.592 43.691,3.999 C43.59,3.94 43.488,3.882 43.386,3.824 C42.972,3.587 42.552,3.36 42.126,3.143 C42.026,3.092 41.927,3.039 41.826,2.99 C40.799,2.482 39.738,2.035 38.646,1.65 C38.504,1.6 38.361,1.553 38.218,1.505 C37.8,1.365 37.377,1.234 36.95,1.112 C36.805,1.071 36.66,1.028 36.514,0.989 C35.956,0.839 35.392,0.701 34.821,0.585 C34.806,0.582 34.791,0.58 34.776,0.577 C34.227,0.466 33.671,0.375 33.112,0.295 C32.941,0.271 32.769,0.251 32.597,0.23 C32.169,0.177 31.738,0.134 31.305,0.099 C31.131,0.086 30.957,0.07 30.782,0.06 C30.192,0.024 29.599,0 29,0 C28.401,0 27.807,0.024 27.217,0.06 C27.043,0.07 26.871,0.086 26.698,0.099 C26.263,0.133 25.83,0.177 25.401,0.23 C25.23,0.252 25.059,0.271 24.889,0.295 C24.329,0.375 23.773,0.466 23.224,0.577 C23.209,0.58 23.194,0.582 23.179,0.585 C22.607,0.701 22.044,0.839 21.485,0.989 C21.34,1.028 21.196,1.071 21.052,1.112 C20.624,1.234 20.2,1.365 19.781,1.505 C19.638,1.553 19.496,1.6 19.355,1.65 C18.262,2.035 17.2,2.482 16.172,2.991 C16.073,3.039 15.976,3.091 15.877,3.141 C15.449,3.359 15.026,3.587 14.611,3.826 C14.511,3.883 14.411,3.94 14.311,3.998 C13.304,4.592 12.334,5.242 11.409,5.95 C11.358,5.988 11.309,6.029 11.258,6.068 C10.841,6.392 10.433,6.727 10.034,7.072 C9.975,7.123 9.915,7.174 9.857,7.226 C8.963,8.013 8.115,8.852 7.324,9.743 C7.311,9.758 7.298,9.773 7.285,9.788 C6.906,10.217 6.541,10.657 6.187,11.107 C6.154,11.149 6.12,11.191 6.087,11.234 C5.346,12.188 4.662,13.189 4.043,14.233 C3.704,23.335 5.706,33.315 9.423,39.755 C9.816,40.436 10.018,41.202 10.018,41.988 L10.018,42 L10.018,44.076 C16.863,44.573 22.763,48.423 26.101,54 L31.919,54 C35.257,48.423 41.157,44.573 48.002,44.076 C48.003,42.875 48.003,42 48.003,42 C48.003,41.984 48.003,41.968 48.002,41.952 C48,41.168 48.203,40.406 48.594,39.726 C52.3,33.287 54.296,23.322 53.957,14.233" id="Fill-1387" fill="#FCCF9D" sketch:type="MSShapeGroup"></path>
            <path d="M28.003,32 C18.959,32 14.509,33.105 7.238,35.023 C7.881,36.75 8.61,38.346 9.423,39.755 C9.816,40.436 10.018,41.202 10.018,41.988 L10.018,42 L10.018,44.076 C16.863,44.573 22.763,48.423 26.101,54 L31.919,54 C35.257,48.423 41.157,44.573 48.003,44.076 L48.003,42 L48.003,41.952 C48,41.168 48.203,40.406 48.594,39.726 C49.473,38.199 50.254,36.452 50.933,34.557 C44.09,32.927 36.289,32 28.003,32" id="Fill-1388" fill="#FFFFFF" sketch:type="MSShapeGroup"></path>
            <path d="M31,21 C31,22.105 30.105,23 29,23 C27.895,23 27,22.105 27,21 C27,19.895 27.895,19 29,19 C30.105,19 31,19.895 31,21" id="Fill-2070" fill="#F8B563" sketch:type="MSShapeGroup"></path>
            <path d="M30,26 C30,26.552 29.552,27 29,27 C28.448,27 28,26.552 28,26 C28,25.448 28.448,25 29,25 C29.552,25 30,25.448 30,26" id="Fill-2071" fill="#F8B563" sketch:type="MSShapeGroup"></path>
            <path d="M30,15 C30,15.552 29.552,16 29,16 C28.448,16 28,15.552 28,15 C28,14.448 28.448,14 29,14 C29.552,14 30,14.448 30,15" id="Fill-2072" fill="#F8B563" sketch:type="MSShapeGroup"></path>
            <path d="M26,26 C26,26.552 25.552,27 25,27 C24.448,27 24,26.552 24,26 C24,25.448 24.448,25 25,25 C25.552,25 26,25.448 26,26" id="Fill-2073" fill="#F8B563" sketch:type="MSShapeGroup"></path>
            <path d="M28,28 C28,28.552 27.552,29 27,29 C26.448,29 26,28.552 26,28 C26,27.448 26.448,27 27,27 C27.552,27 28,27.448 28,28" id="Fill-2074" fill="#F8B563" sketch:type="MSShapeGroup"></path>
            <path d="M34,26 C34,26.552 33.552,27 33,27 C32.448,27 32,26.552 32,26 C32,25.448 32.448,25 33,25 C33.552,25 34,25.448 34,26" id="Fill-2075" fill="#F8B563" sketch:type="MSShapeGroup"></path>
            <path d="M32,28 C32,28.552 31.552,29 31,29 C30.448,29 30,28.552 30,28 C30,27.448 30.448,27 31,27 C31.552,27 32,27.448 32,28" id="Fill-2076" fill="#F8B563" sketch:type="MSShapeGroup"></path>
            <path d="M26.101,54 C22.763,48.423 16.863,44.573 10.018,44.076 L10.018,50.914 C11.348,52.067 12.782,53.102 14.308,54 C18.076,56.22 22.39,57.609 27,57.924 L26.101,54" id="Fill-2077" fill="#FCCF9D" sketch:type="MSShapeGroup"></path>
            <path d="M45.45,36.105 C44.956,35.86 44.356,36.059 44.108,36.553 C43.861,37.047 44.062,37.647 44.556,37.895 L46.767,39 L44.556,40.105 C44.062,40.353 43.861,40.953 44.108,41.447 C44.284,41.798 44.637,42 45.004,42 C45.154,42 45.307,41.966 45.45,41.895 L48.254,40.492 C48.346,40.229 48.453,39.971 48.594,39.726 C48.89,39.212 49.171,38.664 49.444,38.103 L45.45,36.105" id="Fill-2191" fill="#C7CBC7" sketch:type="MSShapeGroup"></path>
            <path d="M13.912,36.553 C13.664,36.059 13.065,35.86 12.57,36.105 L8.57,38.106 C8.566,38.107 8.564,38.111 8.561,38.113 C8.838,38.681 9.122,39.235 9.423,39.755 C9.557,39.988 9.661,40.234 9.75,40.485 L12.57,41.895 C12.714,41.966 12.866,42 13.017,42 C13.384,42 13.736,41.798 13.912,41.447 C14.159,40.953 13.959,40.353 13.465,40.105 L11.254,39 L13.465,37.895 C13.959,37.647 14.159,37.047 13.912,36.553" id="Fill-2192" fill="#C7CBC7" sketch:type="MSShapeGroup"></path>
        </g>
    </g>
</svg>