<?xml version="1.0" encoding="UTF-8" standalone="no"?>
<svg width="56px" height="56px" viewBox="0 0 56 56" version="1.1" xmlns="http://www.w3.org/2000/svg" xmlns:xlink="http://www.w3.org/1999/xlink" xmlns:sketch="http://www.bohemiancoding.com/sketch/ns">
    <!-- Generator: Sketch 3.2.2 (9983) - http://www.bohemiancoding.com/sketch -->
    <title>150 - Ointment (Flat)</title>
    <desc>Created with Sketch.</desc>
    <defs></defs>
    <g id="Page-1" stroke="none" stroke-width="1" fill="none" fill-rule="evenodd" sketch:type="MSPage">
        <g id="150---Ointment-(Flat)" sketch:type="MSLayerGroup">
            <path d="M8.542,3.228 C8.564,3.206 8.593,3.198 8.616,3.178 L3.551,0.011 L0,3.562 L3.167,8.628 C3.187,8.604 3.195,8.576 3.216,8.554 L8.542,3.228" id="Fill-120" fill="#E8EDEE" sketch:type="MSShapeGroup"></path>
            <path d="M13.024,5.934 L10.204,4.171 C10.161,4.342 10.091,4.508 9.956,4.642 L4.63,9.968 C4.496,10.102 4.331,10.173 4.159,10.215 L5.922,13.035 L13.024,5.934" id="Fill-121" fill="#556080" sketch:type="MSShapeGroup"></path>
            <path d="M9.956,4.642 C10.091,4.508 10.161,4.342 10.204,4.171 L8.616,3.178 C8.593,3.198 8.564,3.206 8.542,3.228 L3.216,8.554 C3.195,8.576 3.187,8.604 3.167,8.628 L4.159,10.215 C4.331,10.173 4.496,10.102 4.63,9.968 L9.956,4.642" id="Fill-122" fill="#F86363" sketch:type="MSShapeGroup"></path>
            <path d="M55.626,38.252 L51.207,34.597 L34.585,51.218 L38.241,55.637 C38.42,55.854 38.683,55.986 38.964,55.999 C38.98,56 38.996,56 39.011,56 C39.276,56 39.53,55.895 39.718,55.707 L55.696,39.729 C55.895,39.53 56.001,39.257 55.988,38.975 C55.975,38.694 55.843,38.431 55.626,38.252" id="Fill-425" fill="#E8EDEE" sketch:type="MSShapeGroup"></path>
            <path d="M14.548,4.275 C14.151,3.946 13.569,3.974 13.204,4.339 L4.328,13.215 C3.963,13.58 3.935,14.162 4.264,14.56 L33.305,49.67 L49.659,33.316 L14.548,4.275" id="Fill-426" fill="#25AE88" sketch:type="MSShapeGroup"></path>
            <path d="M53.033,40.979 L48.929,36.874 L51.207,34.597 L49.659,33.316 L46.809,36.166 L46.808,36.167 C46.807,36.167 46.807,36.168 46.807,36.168 L44.146,38.829 C44.146,38.83 44.145,38.83 44.145,38.83 C44.144,38.831 44.144,38.832 44.144,38.832 L38.82,44.155 C38.82,44.155 38.819,44.155 38.819,44.156 C38.818,44.156 38.818,44.157 38.818,44.157 L36.157,46.818 C36.157,46.818 36.156,46.818 36.156,46.819 C36.155,46.819 36.155,46.82 36.155,46.82 L33.305,49.67 L34.585,51.218 L36.863,48.94 L40.967,53.044 C41.163,53.239 41.419,53.337 41.674,53.337 C41.93,53.337 42.186,53.239 42.381,53.044 C42.772,52.653 42.772,52.021 42.381,51.63 L38.277,47.526 L39.526,46.277 L43.63,50.381 C43.825,50.577 44.081,50.674 44.337,50.674 C44.593,50.674 44.849,50.577 45.044,50.381 C45.435,49.991 45.435,49.358 45.044,48.967 L40.94,44.863 L42.189,43.614 L46.293,47.718 C46.488,47.914 46.744,48.011 47,48.011 C47.256,48.011 47.512,47.914 47.707,47.718 C48.098,47.328 48.098,46.695 47.707,46.304 L43.603,42.2 L44.852,40.951 L48.956,45.055 C49.151,45.25 49.407,45.348 49.663,45.348 C49.919,45.348 50.175,45.25 50.37,45.055 C50.761,44.665 50.761,44.032 50.37,43.641 L46.266,39.537 L47.515,38.288 L51.619,42.393 C51.814,42.588 52.07,42.686 52.326,42.686 C52.581,42.686 52.837,42.588 53.033,42.393 C53.423,42.002 53.423,41.369 53.033,40.979" id="Fill-427" fill="#C7D6D8" sketch:type="MSShapeGroup"></path>
            <path d="M39.637,27.127 L28.051,17.544 C27.654,17.215 27.072,17.242 26.707,17.607 L19.606,24.708 C19.215,25.099 19.215,25.732 19.606,26.123 L30.19,36.707 C30.386,36.902 30.641,37 30.897,37 C31.153,37 31.409,36.902 31.604,36.707 L39.707,28.604 C39.906,28.405 40.012,28.132 39.999,27.85 C39.986,27.569 39.854,27.306 39.637,27.127" id="Fill-428" fill="#FFFFFF" sketch:type="MSShapeGroup"></path>
        </g>
    </g>
</svg>