<?xml version="1.0" encoding="UTF-8" standalone="no"?>
<svg width="36px" height="60px" viewBox="0 0 36 60" version="1.1" xmlns="http://www.w3.org/2000/svg" xmlns:xlink="http://www.w3.org/1999/xlink" xmlns:sketch="http://www.bohemiancoding.com/sketch/ns">
    <!-- Generator: Sketch 3.2.2 (9983) - http://www.bohemiancoding.com/sketch -->
    <title>144 - Perfusion (Flat)</title>
    <desc>Created with Sketch.</desc>
    <defs></defs>
    <g id="Page-1" stroke="none" stroke-width="1" fill="none" fill-rule="evenodd" sketch:type="MSPage">
        <g id="144---Perfusion-(Flat)" sketch:type="MSLayerGroup" transform="translate(0.000000, 1.000000)">
            <path d="M23,3 L23,0 L13,0 L13,3 L2.852,3 C1.829,3 1,3.829 1,4.852 L1,44.148 C1,45.171 1.829,46 2.852,46 L15,46 L15,43 L21,43 L21,46 L33.148,46 C34.171,46 35,45.171 35,44.148 L35,4.852 C35,3.829 34.171,3 33.148,3 L23,3 L23,3 Z" id="Fill-291" fill="#E8EDEE" sketch:type="MSShapeGroup"></path>
            <path d="M23,3 L23,0 L13,0 L13,3 L2.852,3 C1.829,3 1,3.829 1,4.852 L1,44.148 C1,45.171 1.829,46 2.852,46 L15,46 L15,43 L21,43 L21,46 L33.148,46 C34.171,46 35,45.171 35,44.148 L35,4.852 C35,3.829 34.171,3 33.148,3 L23,3 L23,3 Z" id="Stroke-292" stroke="#E8EDEE" stroke-width="2" stroke-linecap="round" sketch:type="MSShapeGroup"></path>
            <path d="M4,6 L32,6 L32,43 L4,43 L4,6 Z" id="Fill-293" fill="#FCCF9D" sketch:type="MSShapeGroup"></path>
            <path d="M19,38 C18.448,38 18,38.448 18,39 C18,39.552 18.448,40 19,40 C19.552,40 20,39.552 20,39 C20,38.448 19.552,38 19,38" id="Fill-556" fill="#ED8A19" sketch:type="MSShapeGroup"></path>
            <path d="M25,27 C24.448,27 24,27.448 24,28 C24,28.552 24.448,29 25,29 C25.552,29 26,28.552 26,28 C26,27.448 25.552,27 25,27" id="Fill-557" fill="#ED8A19" sketch:type="MSShapeGroup"></path>
            <path d="M16,30 C15.448,30 15,30.448 15,31 C15,31.552 15.448,32 16,32 C16.552,32 17,31.552 17,31 C17,30.448 16.552,30 16,30" id="Fill-558" fill="#ED8A19" sketch:type="MSShapeGroup"></path>
            <path d="M19,23 C19,22.448 18.552,22 18,22 C17.448,22 17,22.448 17,23 C17,23.552 17.448,24 18,24 C18.552,24 19,23.552 19,23" id="Fill-559" fill="#ED8A19" sketch:type="MSShapeGroup"></path>
            <path d="M25,15 C25,14.448 24.552,14 24,14 C23.448,14 23,14.448 23,15 C23,15.552 23.448,16 24,16 C24.552,16 25,15.552 25,15" id="Fill-560" fill="#ED8A19" sketch:type="MSShapeGroup"></path>
            <path d="M17,10 C17.552,10 18,9.552 18,9 C18,8.448 17.552,8 17,8 C16.448,8 16,8.448 16,9 C16,9.552 16.448,10 17,10" id="Fill-561" fill="#ED8A19" sketch:type="MSShapeGroup"></path>
            <path d="M11,12 L9,12 C8.447,12 8,11.552 8,11 C8,10.448 8.447,10 9,10 L11,10 C11.553,10 12,10.448 12,11 C12,11.552 11.553,12 11,12" id="Fill-565" fill="#FFFFFF" sketch:type="MSShapeGroup"></path>
            <path d="M11,16 L9,16 C8.447,16 8,15.552 8,15 C8,14.448 8.447,14 9,14 L11,14 C11.553,14 12,14.448 12,15 C12,15.552 11.553,16 11,16" id="Fill-566" fill="#FFFFFF" sketch:type="MSShapeGroup"></path>
            <path d="M11,20 L9,20 C8.447,20 8,19.552 8,19 C8,18.448 8.447,18 9,18 L11,18 C11.553,18 12,18.448 12,19 C12,19.552 11.553,20 11,20" id="Fill-567" fill="#FFFFFF" sketch:type="MSShapeGroup"></path>
            <path d="M11,24 L9,24 C8.447,24 8,23.552 8,23 C8,22.448 8.447,22 9,22 L11,22 C11.553,22 12,22.448 12,23 C12,23.552 11.553,24 11,24" id="Fill-568" fill="#FFFFFF" sketch:type="MSShapeGroup"></path>
            <path d="M11,28 L9,28 C8.447,28 8,27.552 8,27 C8,26.448 8.447,26 9,26 L11,26 C11.553,26 12,26.448 12,27 C12,27.552 11.553,28 11,28" id="Fill-569" fill="#FFFFFF" sketch:type="MSShapeGroup"></path>
            <path d="M11,32 L9,32 C8.447,32 8,31.552 8,31 C8,30.448 8.447,30 9,30 L11,30 C11.553,30 12,30.448 12,31 C12,31.552 11.553,32 11,32" id="Fill-570" fill="#FFFFFF" sketch:type="MSShapeGroup"></path>
            <path d="M11,36 L9,36 C8.447,36 8,35.552 8,35 C8,34.448 8.447,34 9,34 L11,34 C11.553,34 12,34.448 12,35 C12,35.552 11.553,36 11,36" id="Fill-571" fill="#FFFFFF" sketch:type="MSShapeGroup"></path>
            <path d="M11,40 L9,40 C8.447,40 8,39.552 8,39 C8,38.448 8.447,38 9,38 L11,38 C11.553,38 12,38.448 12,39 C12,39.552 11.553,40 11,40" id="Fill-572" fill="#FFFFFF" sketch:type="MSShapeGroup"></path>
            <path d="M15,43 L21,43 L21,49 L15,49 L15,43 Z" id="Fill-573" fill="#C7CBC7" sketch:type="MSShapeGroup"></path>
            <path d="M1,59 C0.447,59 0,58.552 0,58 L0,53.266 C0,51.806 0.602,50.391 1.65,49.383 C2.63,48.441 3.884,47.943 5.214,48.004 C7.852,48.11 9.863,50.237 9.993,53 L10,53 C10,55.173 11.7,56.93 13.87,56.998 C14.683,57.022 15.408,56.721 15.998,56.148 C16.635,55.531 17,54.675 17,53.799 L17,49 C17,48.448 17.447,48 18,48 C18.553,48 19,48.448 19,49 L19,53.799 C19,55.214 18.413,56.593 17.39,57.585 C16.406,58.537 15.142,59.04 13.808,58.997 C10.646,58.897 8.15,56.413 8.007,53.286 L8,53.286 C8,51.45 6.795,50.069 5.134,50.002 C4.377,49.98 3.62,50.264 3.036,50.826 C2.378,51.458 2,52.348 2,53.266 L2,58 C2,58.552 1.553,59 1,59" id="Fill-574" fill="#C7CBC7" sketch:type="MSShapeGroup"></path>
            <path d="M20,4 L16,4 C15.447,4 15,3.552 15,3 C15,2.448 15.447,2 16,2 L20,2 C20.553,2 21,2.448 21,3 C21,3.552 20.553,4 20,4" id="Fill-608" fill="#556080" sketch:type="MSShapeGroup"></path>
            <path d="M18,5 C17.447,5 17,4.552 17,4 L17,2 C17,1.448 17.447,1 18,1 C18.553,1 19,1.448 19,2 L19,4 C19,4.552 18.553,5 18,5" id="Fill-609" fill="#556080" sketch:type="MSShapeGroup"></path>
        </g>
    </g>
</svg>