<?xml version="1.0" encoding="UTF-8" standalone="no"?>
<svg width="58px" height="58px" viewBox="0 0 58 58" version="1.1" xmlns="http://www.w3.org/2000/svg" xmlns:xlink="http://www.w3.org/1999/xlink" xmlns:sketch="http://www.bohemiancoding.com/sketch/ns">
    <!-- Generator: Sketch 3.2.2 (9983) - http://www.bohemiancoding.com/sketch -->
    <title>166 - Pilule (Flat)</title>
    <desc>Created with Sketch.</desc>
    <defs></defs>
    <g id="Page-1" stroke="none" stroke-width="1" fill="none" fill-rule="evenodd" sketch:type="MSPage">
        <g id="166---Pilule-(Flat)" sketch:type="MSLayerGroup">
            <path d="M54.666,3.334 C62.086,10.754 56.704,28.166 42.646,42.224 C28.587,56.283 11.175,61.665 3.755,54.245 C-3.665,46.825 1.717,29.413 15.776,15.354 C29.834,1.296 47.246,-4.086 54.666,3.334" id="Fill-1364" fill="#556080" sketch:type="MSShapeGroup"></path>
            <path d="M42.495,7.583 C43.794,8.882 42.852,11.93 40.391,14.391 C37.93,16.852 34.882,17.794 33.583,16.495 C32.285,15.197 33.227,12.149 35.688,9.688 C38.149,7.227 41.196,6.285 42.495,7.583" id="Fill-1365" fill="#A188D8" sketch:type="MSShapeGroup"></path>
            <path d="M5.704,41.895 C5.66,41.895 5.616,41.892 5.571,41.886 C5.024,41.814 4.639,41.311 4.711,40.764 C5.688,33.389 9.852,26.117 17.443,18.532 C17.834,18.143 18.467,18.142 18.858,18.533 C19.248,18.924 19.248,19.557 18.857,19.947 C11.589,27.209 7.611,34.104 6.694,41.026 C6.627,41.529 6.198,41.895 5.704,41.895" id="Fill-1366" fill="#A188D8" sketch:type="MSShapeGroup"></path>
            <path d="M8.255,52.256 C7.998,52.256 7.742,52.158 7.547,51.962 C6.209,50.621 5.271,48.848 4.835,46.835 C4.718,46.296 5.06,45.763 5.6,45.646 C6.139,45.529 6.672,45.872 6.789,46.412 C7.144,48.049 7.896,49.48 8.963,50.55 C9.353,50.941 9.352,51.574 8.961,51.964 C8.766,52.159 8.51,52.256 8.255,52.256" id="Fill-1367" fill="#A188D8" sketch:type="MSShapeGroup"></path>
        </g>
    </g>
</svg>