<?xml version="1.0" encoding="UTF-8" standalone="no"?>
<svg width="50px" height="58px" viewBox="0 0 50 58" version="1.1" xmlns="http://www.w3.org/2000/svg" xmlns:xlink="http://www.w3.org/1999/xlink" xmlns:sketch="http://www.bohemiancoding.com/sketch/ns">
    <!-- Generator: Sketch 3.2.2 (9983) - http://www.bohemiancoding.com/sketch -->
    <title>16 - Premolar Crown Implant (Flat)</title>
    <desc>Created with Sketch.</desc>
    <defs></defs>
    <g id="Page-1" stroke="none" stroke-width="1" fill="none" fill-rule="evenodd" sketch:type="MSPage">
        <g id="16---Premolar-Crown-Implant-(Flat)" sketch:type="MSLayerGroup">
            <path d="M49.136,19 L0.07,19 C-0.063,20.69 -0.006,20.802 0.24,22.437 C1.754,32.499 2.959,43.226 6.879,52.692 C7.598,54.427 8.955,58 10.911,58 C12.754,57.22 13.503,55.476 14.182,53.734 C15.507,50.334 17.958,44.708 18.116,44.978 C19.576,47.463 22.327,53.456 26.052,52.351 C27.936,51.792 28.928,49.652 29.712,48.04 C30.322,46.787 31.426,44.702 32,43 C31.958,42.854 33.254,47.149 34.404,50.691 C35.451,53.917 38.107,61.544 41.44,55.703 C43.546,52.012 44.313,47.82 45.231,43.726 C47.049,35.615 49.972,27.62 49.136,19" id="Fill-36" fill="#E8EDEE" sketch:type="MSShapeGroup"></path>
            <path d="M35,19 L15,19 L15,37 L17,37 L17,38.333 L22,45 L28,45 L33,38.333 L33,37 L35,37 L35,19" id="Fill-37" fill="#B0B6BB" sketch:type="MSShapeGroup"></path>
            <path d="M42.333,2.412 C38.019,-0.362 32.112,-0.748 27.21,1.279 C27.03,1.353 26.858,1.436 26.682,1.497 C24.392,2.291 24.815,2.512 22.516,1.834 C18.516,0.655 13.043,-0.248 9.047,1.168 C3.392,3.172 0.737,7.375 0.293,13 L49.36,13 C49.225,11.608 49.002,11.476 48.65,10.145 C47.808,6.962 45.244,4.284 42.333,2.412" id="Fill-2712" fill="#E8EDEE" sketch:type="MSShapeGroup"></path>
            <path d="M48.24,10.01 C47.398,6.827 44.834,4.149 41.923,2.277 C37.609,-0.497 31.702,-0.481 26.8,1.546 C26.62,1.621 26.448,1.703 26.272,1.764 C23.982,2.558 24.405,2.779 22.106,2.102 C18.106,0.922 12.633,-0.383 8.637,1.033 C1.283,3.638 3.665,10.785 8.937,8.917 C12.933,7.501 18.407,8.807 22.407,9.986 C24.705,10.664 24.282,10.443 26.572,9.648 C26.748,9.587 26.921,9.505 27.101,9.431 C32.002,7.404 37.909,7.387 42.223,10.161 C45.134,12.033 49.082,13.194 48.24,10.01" id="Fill-2713" fill="#F0F7F8" sketch:type="MSShapeGroup"></path>
            <path d="M17.354,4.715 C16.798,4.062 16.015,3.919 15.189,4.038 C13.469,4.285 11.76,4.665 10.052,4.985 C7.968,5.375 6.431,6.791 7.695,8.971 C8.824,10.916 11.892,10.788 13.853,10.209 C14.09,10.223 14.338,10.162 14.564,9.985 C15.74,9.069 18.846,6.467 17.354,4.715" id="Fill-2714" fill="#FFFFFF" sketch:type="MSShapeGroup"></path>
            <path d="M37.719,3 L38.594,3 C39.884,3 39.884,1 38.594,1 L37.719,1 C36.429,1 36.429,3 37.719,3" id="Fill-2715" fill="#FFFFFF" sketch:type="MSShapeGroup"></path>
            <path d="M26.297,9.657 C26.49,10.636 27.435,11.264 28.414,11.072 C28.424,11.069 28.434,11.068 28.444,11.066 C28.478,11.059 28.509,11.055 28.542,11.049 C28.2,8.354 27.421,5.731 26.202,3.201 C25.642,2.04 23.922,3.061 24.478,4.216 C25.33,5.984 25.93,7.801 26.297,9.657" id="Fill-2716" fill="#FFFFFF" sketch:type="MSShapeGroup"></path>
            <path d="M19,33 L21,33 L21,37 L24,41 L26,41 L29,37 L29,33 L31,33 L31,13 L19,13 L19,33" id="Fill-2721" fill="#CEB984" sketch:type="MSShapeGroup"></path>
            <path d="M23.697,27.824 L16.697,30.047 C16.171,30.214 15.88,30.776 16.047,31.303 C16.182,31.729 16.576,32 17,32 C17.1,32 17.202,31.985 17.303,31.953 L24.303,29.731 C24.829,29.564 25.12,29.001 24.953,28.475 C24.786,27.947 24.221,27.655 23.697,27.824" id="Fill-2722" fill="#FBD490" sketch:type="MSShapeGroup"></path>
            <path d="M32.684,25.052 L27.684,26.719 C27.16,26.893 26.876,27.459 27.051,27.983 C27.191,28.402 27.581,28.667 28,28.667 C28.104,28.667 28.211,28.65 28.316,28.615 L33.316,26.948 C33.84,26.774 34.123,26.208 33.949,25.684 C33.774,25.16 33.209,24.876 32.684,25.052" id="Fill-2723" fill="#FBD490" sketch:type="MSShapeGroup"></path>
            <path d="M23.697,21.824 L16.697,24.047 C16.171,24.214 15.88,24.776 16.047,25.303 C16.182,25.729 16.576,26 17,26 C17.1,26 17.202,25.985 17.303,25.953 L24.303,23.731 C24.829,23.564 25.12,23.001 24.953,22.475 C24.786,21.947 24.221,21.655 23.697,21.824" id="Fill-2724" fill="#FBD490" sketch:type="MSShapeGroup"></path>
            <path d="M23.697,15.824 L16.697,18.047 C16.171,18.214 15.88,18.776 16.047,19.303 C16.182,19.729 16.576,20 17,20 C17.1,20 17.202,19.985 17.303,19.953 L24.303,17.731 C24.829,17.564 25.12,17.001 24.953,16.475 C24.786,15.947 24.221,15.655 23.697,15.824" id="Fill-2725" fill="#FBD490" sketch:type="MSShapeGroup"></path>
            <path d="M28,16.667 C28.104,16.667 28.211,16.65 28.316,16.615 L33.316,14.948 C33.84,14.774 34.123,14.208 33.949,13.684 C33.774,13.16 33.209,12.876 32.684,13.052 L27.684,14.719 C27.16,14.893 26.876,15.459 27.051,15.983 C27.191,16.402 27.581,16.667 28,16.667" id="Fill-2726" fill="#FBD490" sketch:type="MSShapeGroup"></path>
            <path d="M32.684,19.052 L27.684,20.719 C27.16,20.893 26.876,21.459 27.051,21.983 C27.191,22.402 27.581,22.667 28,22.667 C28.104,22.667 28.211,22.65 28.316,22.615 L33.316,20.948 C33.84,20.774 34.123,20.208 33.949,19.684 C33.774,19.16 33.209,18.876 32.684,19.052" id="Fill-2727" fill="#FBD490" sketch:type="MSShapeGroup"></path>
        </g>
    </g>
</svg>