<?xml version="1.0" encoding="UTF-8" standalone="no"?>
<svg width="48px" height="56px" viewBox="0 0 48 56" version="1.1" xmlns="http://www.w3.org/2000/svg" xmlns:xlink="http://www.w3.org/1999/xlink" xmlns:sketch="http://www.bohemiancoding.com/sketch/ns">
    <!-- Generator: Sketch 3.2.2 (9983) - http://www.bohemiancoding.com/sketch -->
    <title>152 - Pressed Pill Drugs (Flat)</title>
    <desc>Created with Sketch.</desc>
    <defs></defs>
    <g id="Page-1" stroke="none" stroke-width="1" fill="none" fill-rule="evenodd" sketch:type="MSPage">
        <g id="152---Pressed-Pill-Drugs-(Flat)" sketch:type="MSLayerGroup" transform="translate(-1.000000, 0.000000)">
            <path d="M11,0 L49,0 L49,12 L11,12 L11,0 Z" id="Fill-294" fill="#F87400" sketch:type="MSShapeGroup"></path>
            <path d="M13,12 L13,40.432 C15.88,41.192 17.894,42.885 17.919,44.884 C17.921,45.002 17.961,45.23 17.992,45.224 C17.994,45.236 18,45.245 18,45.257 C18,45.257 18.05,50.881 18,50.928 C17.997,52.589 16.586,54.073 14.444,55 L45,55 C46.004,55 47,54.186 47,53.183 L47,12 L13,12" id="Fill-295" fill="#E7BB4E" sketch:type="MSShapeGroup"></path>
            <path d="M46.708,49 L31,49 L31,21 L46.708,21 C46.869,21 47,21.131 47,21.292 L47,48.708 C47,48.869 46.869,49 46.708,49" id="Fill-349" fill="#F3EDBF" sketch:type="MSShapeGroup"></path>
            <path d="M36,34 L47,34 L47,36 L36,36 L36,34 Z" id="Fill-350" fill="#C9BE7D" sketch:type="MSShapeGroup"></path>
            <path d="M36,38 L47,38 L47,40 L36,40 L36,38 Z" id="Fill-351" fill="#C9BE7D" sketch:type="MSShapeGroup"></path>
            <path d="M36,26 L47,26 L47,28 L36,28 L36,26 Z" id="Fill-352" fill="#C9BE7D" sketch:type="MSShapeGroup"></path>
            <path d="M36,30 L47,30 L47,32 L36,32 L36,30 Z" id="Fill-353" fill="#C9BE7D" sketch:type="MSShapeGroup"></path>
            <path d="M36,42 L47,42 L47,44 L36,44 L36,42 Z" id="Fill-354" fill="#C9BE7D" sketch:type="MSShapeGroup"></path>
            <path d="M15,0 L17,0 L17,12 L15,12 L15,0 Z" id="Fill-408" fill="#C15505" sketch:type="MSShapeGroup"></path>
            <path d="M19,0 L21,0 L21,12 L19,12 L19,0 Z" id="Fill-409" fill="#C15505" sketch:type="MSShapeGroup"></path>
            <path d="M23,0 L25,0 L25,12 L23,12 L23,0 Z" id="Fill-410" fill="#C15505" sketch:type="MSShapeGroup"></path>
            <path d="M27,0 L29,0 L29,12 L27,12 L27,0 Z" id="Fill-411" fill="#C15505" sketch:type="MSShapeGroup"></path>
            <path d="M31,0 L33,0 L33,12 L31,12 L31,0 Z" id="Fill-412" fill="#C15505" sketch:type="MSShapeGroup"></path>
            <path d="M35,0 L37,0 L37,12 L35,12 L35,0 Z" id="Fill-413" fill="#C15505" sketch:type="MSShapeGroup"></path>
            <path d="M39,0 L41,0 L41,12 L39,12 L39,0 Z" id="Fill-414" fill="#C15505" sketch:type="MSShapeGroup"></path>
            <path d="M43,0 L45,0 L45,12 L43,12 L43,0 Z" id="Fill-415" fill="#C15505" sketch:type="MSShapeGroup"></path>
            <path d="M17.92,44.884 C17.955,47.645 14.196,49.935 9.524,49.999 C4.852,50.063 1.036,47.877 1,45.116 C0.965,42.355 4.724,40.066 9.396,40.001 C14.068,39.937 17.884,42.123 17.92,44.884" id="Fill-416" fill="#C8C9CB" sketch:type="MSShapeGroup"></path>
            <path d="M17.992,45.224 C17.958,45.231 17.919,45.23 17.884,45.235 C17.611,47.835 13.995,49.937 9.524,49.999 C4.996,50.061 1.288,48.007 1.031,45.367 C1.021,45.371 1.01,45.373 1,45.377 L1,50.743 C1,50.765 0.999,51.009 1,51.116 C1.036,53.877 4.852,56.063 9.524,55.999 C14.171,55.935 17.994,53.669 18,50.928 C18.05,50.881 18,45.257 18,45.257 C18,45.245 17.994,45.236 17.992,45.224" id="Fill-417" fill="#E0E4E7" sketch:type="MSShapeGroup"></path>
            <path d="M17,42.673 L17,20.917 L13,20.917 L13,40.432 C14.728,40.888 16.139,41.679 17,42.673" id="Fill-424" fill="#F3EDBF" sketch:type="MSShapeGroup"></path>
            <path d="M5.861,49.553 L14.478,40.936 C13.822,40.655 13.095,40.431 12.314,40.272 L3.817,48.769 C4.426,49.087 5.113,49.351 5.861,49.553" id="Fill-2480" fill="#ECECEC" sketch:type="MSShapeGroup"></path>
            <path d="M21,12 L25,12 L25,55 L21,55 L21,12 Z" id="Fill-2502" fill="#F9D991" sketch:type="MSShapeGroup"></path>
        </g>
    </g>
</svg>