<?xml version="1.0" encoding="UTF-8" standalone="no"?>
<svg width="58px" height="58px" viewBox="0 0 58 58" version="1.1" xmlns="http://www.w3.org/2000/svg" xmlns:xlink="http://www.w3.org/1999/xlink" xmlns:sketch="http://www.bohemiancoding.com/sketch/ns">
    <!-- Generator: Sketch 3.2.2 (9983) - http://www.bohemiancoding.com/sketch -->
    <title>158 - Pressed Pills (Flat)</title>
    <desc>Created with Sketch.</desc>
    <defs></defs>
    <g id="Page-1" stroke="none" stroke-width="1" fill="none" fill-rule="evenodd" sketch:type="MSPage">
        <g id="158---Pressed-Pills-(Flat)" sketch:type="MSLayerGroup">
            <path d="M15,33 C15,33.552 14.552,34 14,34 C13.448,34 13,33.552 13,33 C13,32.448 13.448,32 14,32 C14.552,32 15,32.448 15,33" id="Fill-310" fill="#F0CE49" sketch:type="MSShapeGroup"></path>
            <path d="M54,53 C54,53.552 53.552,54 53,54 C52.448,54 52,53.552 52,53 C52,52.448 52.448,52 53,52 C53.552,52 54,52.448 54,53" id="Fill-311" fill="#ED8A19" sketch:type="MSShapeGroup"></path>
            <path d="M22.192,22.192 C17.116,27.269 8.884,27.269 3.808,22.192 C-1.269,17.116 -1.269,8.885 3.808,3.808 C8.884,-1.269 17.116,-1.269 22.192,3.808 C27.269,8.885 27.269,17.116 22.192,22.192" id="Fill-313" fill="#E66E4F" sketch:type="MSShapeGroup"></path>
            <path d="M43,45 C43,52.18 37.18,58 30,58 C22.82,58 17,52.18 17,45 C17,37.82 22.82,32 30,32 C37.18,32 43,37.82 43,45" id="Fill-314" fill="#556080" sketch:type="MSShapeGroup"></path>
            <path d="M54.192,7.808 C59.269,12.884 59.269,21.116 54.192,26.192 C49.116,31.269 40.884,31.269 35.808,26.192 C30.731,21.116 30.731,12.884 35.808,7.808 C40.884,2.731 49.116,2.731 54.192,7.808" id="Fill-315" fill="#57ABC1" sketch:type="MSShapeGroup"></path>
            <path d="M6.636,20.364 C6.38,20.364 6.124,20.266 5.929,20.071 C5.539,19.68 5.539,19.047 5.929,18.657 L18.657,5.929 C19.047,5.539 19.68,5.539 20.071,5.929 C20.461,6.32 20.461,6.953 20.071,7.343 L7.343,20.071 C7.148,20.266 6.892,20.364 6.636,20.364" id="Fill-316" fill="#BB523F" sketch:type="MSShapeGroup"></path>
            <path d="M51.364,24.364 C51.108,24.364 50.852,24.266 50.657,24.071 L37.929,11.343 C37.539,10.953 37.539,10.32 37.929,9.929 C38.32,9.539 38.953,9.539 39.343,9.929 L52.071,22.657 C52.461,23.047 52.461,23.68 52.071,24.071 C51.875,24.266 51.62,24.364 51.364,24.364" id="Fill-317" fill="#2998C1" sketch:type="MSShapeGroup"></path>
            <path d="M30,55 C29.448,55 29,54.552 29,54 L29,36 C29,35.448 29.448,35 30,35 C30.552,35 31,35.448 31,36 L31,54 C31,54.552 30.552,55 30,55" id="Fill-318" fill="#3E465B" sketch:type="MSShapeGroup"></path>
            <path d="M9,48 L6,48 L6,45 C6,44.448 5.552,44 5,44 C4.448,44 4,44.448 4,45 L4,48 L1,48 C0.448,48 0,48.448 0,49 C0,49.552 0.448,50 1,50 L4,50 L4,53 C4,53.552 4.448,54 5,54 C5.552,54 6,53.552 6,53 L6,50 L9,50 C9.552,50 10,49.552 10,49 C10,48.448 9.552,48 9,48" id="Fill-319" fill="#88C057" sketch:type="MSShapeGroup"></path>
            <path d="M54.414,37.172 L56.536,35.05 C56.926,34.66 56.926,34.027 56.536,33.636 C56.145,33.246 55.512,33.246 55.122,33.636 L53,35.758 L50.878,33.636 C50.488,33.246 49.855,33.246 49.464,33.636 C49.074,34.027 49.074,34.66 49.464,35.05 L51.586,37.172 L49.464,39.293 C49.074,39.684 49.074,40.316 49.464,40.707 C49.66,40.902 49.915,41 50.171,41 C50.427,41 50.683,40.902 50.878,40.707 L53,38.586 L55.122,40.707 C55.317,40.902 55.573,41 55.829,41 C56.084,41 56.34,40.902 56.536,40.707 C56.926,40.316 56.926,39.684 56.536,39.293 L54.414,37.172" id="Fill-320" fill="#CB465F" sketch:type="MSShapeGroup"></path>
        </g>
    </g>
</svg>