<?xml version="1.0" encoding="UTF-8" standalone="no"?>
<svg width="44px" height="58px" viewBox="0 0 44 58" version="1.1" xmlns="http://www.w3.org/2000/svg" xmlns:xlink="http://www.w3.org/1999/xlink" xmlns:sketch="http://www.bohemiancoding.com/sketch/ns">
    <!-- Generator: Sketch 3.2.2 (9983) - http://www.bohemiancoding.com/sketch -->
    <title>113 - Prescription File (Flat)</title>
    <desc>Created with Sketch.</desc>
    <defs></defs>
    <g id="Page-1" stroke="none" stroke-width="1" fill="none" fill-rule="evenodd" sketch:type="MSPage">
        <g id="113---Prescription-File-(Flat)" sketch:type="MSLayerGroup">
            <path d="M34,3 L34,9 L11,9 L11,3 L0,3 L0,58 L44,58 L44,3 L34,3" id="Fill-278" fill="#3E465B" sketch:type="MSShapeGroup"></path>
            <path d="M11,0 L34,0 L34,9 L11,9 L11,0 Z" id="Fill-828" fill="#A2C9ED" sketch:type="MSShapeGroup"></path>
            <path d="M34,7 L34,9 L11,9 L11,7 L4,7 L4,54 L40,54 L40,7 L34,7" id="Fill-829" fill="#FFFFFF" sketch:type="MSShapeGroup"></path>
            <path d="M30,5 L15,5 C14.447,5 14,4.553 14,4 C14,3.447 14.447,3 15,3 L30,3 C30.553,3 31,3.447 31,4 C31,4.553 30.553,5 30,5" id="Fill-830" fill="#3E465B" sketch:type="MSShapeGroup"></path>
            <path d="M16,17.5 C16,19.433 14.433,21 12.5,21 C10.567,21 9,19.433 9,17.5 C9,15.567 10.567,14 12.5,14 C14.433,14 16,15.567 16,17.5" id="Fill-2000" fill="#DD342E" sketch:type="MSShapeGroup"></path>
            <path d="M16,30.5 C16,32.433 14.433,34 12.5,34 C10.567,34 9,32.433 9,30.5 C9,28.567 10.567,27 12.5,27 C14.433,27 16,28.567 16,30.5" id="Fill-2001" fill="#DD342E" sketch:type="MSShapeGroup"></path>
            <path d="M16,43.5 C16,45.433 14.433,47 12.5,47 C10.567,47 9,45.433 9,43.5 C9,41.567 10.567,40 12.5,40 C14.433,40 16,41.567 16,43.5" id="Fill-2002" fill="#DD342E" sketch:type="MSShapeGroup"></path>
            <path d="M35,17 L20,17 C19.447,17 19,16.553 19,16 C19,15.447 19.447,15 20,15 L35,15 C35.553,15 36,15.447 36,16 C36,16.553 35.553,17 35,17" id="Fill-2003" fill="#839494" sketch:type="MSShapeGroup"></path>
            <path d="M35,21 L20,21 C19.447,21 19,20.553 19,20 C19,19.447 19.447,19 20,19 L35,19 C35.553,19 36,19.447 36,20 C36,20.553 35.553,21 35,21" id="Fill-2004" fill="#839494" sketch:type="MSShapeGroup"></path>
            <path d="M35,30 L20,30 C19.447,30 19,29.553 19,29 C19,28.447 19.447,28 20,28 L35,28 C35.553,28 36,28.447 36,29 C36,29.553 35.553,30 35,30" id="Fill-2005" fill="#839494" sketch:type="MSShapeGroup"></path>
            <path d="M35,34 L20,34 C19.447,34 19,33.553 19,33 C19,32.447 19.447,32 20,32 L35,32 C35.553,32 36,32.447 36,33 C36,33.553 35.553,34 35,34" id="Fill-2006" fill="#839494" sketch:type="MSShapeGroup"></path>
            <path d="M35,43 L20,43 C19.447,43 19,42.553 19,42 C19,41.447 19.447,41 20,41 L35,41 C35.553,41 36,41.447 36,42 C36,42.553 35.553,43 35,43" id="Fill-2007" fill="#839494" sketch:type="MSShapeGroup"></path>
            <path d="M35,47 L20,47 C19.447,47 19,46.553 19,46 C19,45.447 19.447,45 20,45 L35,45 C35.553,45 36,45.447 36,46 C36,46.553 35.553,47 35,47" id="Fill-2008" fill="#839494" sketch:type="MSShapeGroup"></path>
        </g>
    </g>
</svg>