<?xml version="1.0" encoding="UTF-8" standalone="no"?>
<svg width="50px" height="55px" viewBox="0 0 50 55" version="1.1" xmlns="http://www.w3.org/2000/svg" xmlns:xlink="http://www.w3.org/1999/xlink" xmlns:sketch="http://www.bohemiancoding.com/sketch/ns">
    <!-- Generator: Sketch 3.2.2 (9983) - http://www.bohemiancoding.com/sketch -->
    <title>46 - Rotten Molar (Flat)</title>
    <desc>Created with Sketch.</desc>
    <defs></defs>
    <g id="Page-1" stroke="none" stroke-width="1" fill="none" fill-rule="evenodd" sketch:type="MSPage">
        <g id="46---Rotten-Molar-(Flat)" sketch:type="MSLayerGroup" transform="translate(0.000000, -1.000000)">
            <path d="M48.833,10.908 C51.366,20.482 47.749,31.899 45.638,41.32 C44.72,45.414 43.953,49.605 41.847,53.296 C38.514,59.137 35.858,51.51 34.811,48.284 C33.523,44.319 33.105,39.197 29.144,36.838 C25.197,34.488 21.537,36.89 19.251,40.234 C16.935,43.622 16.057,47.559 14.589,51.327 C13.909,53.07 13.16,54.813 11.318,55.593 C9.362,55.593 8.004,52.02 7.286,50.285 C3.365,40.819 2.161,30.092 0.647,20.03 C-0.418,12.951 1.877,4.537 9.23,1.931 C13.226,0.515 18.7,1.821 22.7,3 C24.999,3.678 24.575,3.457 26.865,2.662 C27.041,2.601 27.214,2.519 27.394,2.445 C32.295,0.418 38.202,0.401 42.516,3.175 C45.427,5.047 47.991,7.725 48.833,10.908" id="Fill-2528" fill="#ECE3D2" sketch:type="MSShapeGroup"></path>
            <path d="M45.916,6.504 C45.334,6.028 44.727,5.58 44.099,5.176 C39.785,2.402 33.878,2.418 28.977,4.445 C28.797,4.52 28.624,4.602 28.448,4.663 C26.158,5.457 26.581,5.678 24.283,5 C20.282,3.821 14.809,2.516 10.813,3.932 C9.341,4.453 8.08,5.216 7,6.146 C11.361,10.599 18.53,13.509 26.644,13.509 C34.536,13.509 41.526,10.753 45.916,6.504" id="Fill-2529" fill="#F8EDDF" sketch:type="MSShapeGroup"></path>
            <path d="M5.59,20.286 C5.103,20.286 4.677,19.931 4.602,19.435 C3.803,14.121 5.328,7.558 10.567,5.701 C11.086,5.516 11.659,5.788 11.843,6.31 C12.028,6.83 11.755,7.401 11.235,7.586 C7.065,9.063 5.899,14.609 6.58,19.138 C6.662,19.684 6.286,20.193 5.74,20.275 C5.689,20.282 5.639,20.286 5.59,20.286" id="Fill-2530" fill="#FFFFFF" sketch:type="MSShapeGroup"></path>
            <path d="M29.144,36.838 C25.197,34.488 21.537,36.89 19.251,40.234 C18.878,40.779 18.553,41.342 18.247,41.913 C18.337,42.128 18.424,42.336 18.523,42.571 C19.645,45.226 22.733,51.049 26.458,49.944 C28.342,49.385 29.334,47.246 30.119,45.633 C30.729,44.38 31.892,42.454 32.466,40.751 C31.733,39.175 30.728,37.781 29.144,36.838" id="Fill-2531" fill="#DDD3C3" sketch:type="MSShapeGroup"></path>
            <path d="M30.703,15.688 C30.727,9.586 30.717,6.927 25.121,3.304 C24.5,3.493 24.116,3.418 22.7,3 C21.219,2.563 19.537,2.111 17.802,1.784 L22.208,3.87 C28.734,7.562 28.728,9.12 28.703,15.682 L28.7,17 C28.7,17.553 29.148,18 29.7,18 C30.252,18 30.7,17.553 30.7,17 L30.703,15.688" id="Fill-2532" fill="#FFF7EC" sketch:type="MSShapeGroup"></path>
            <path d="M8.7,17 C8.7,14.791 10.491,13 12.7,13 C14.909,13 16.7,14.791 16.7,17 C16.7,19.209 14.909,21 12.7,21 C10.491,21 8.7,19.209 8.7,17" id="Fill-2533" fill="#B5A896" sketch:type="MSShapeGroup"></path>
            <path d="M36.7,27 C36.7,24.791 38.491,23 40.7,23 C42.909,23 44.7,24.791 44.7,27 C44.7,29.209 42.909,31 40.7,31 C38.491,31 36.7,29.209 36.7,27" id="Fill-2534" fill="#B5A896" sketch:type="MSShapeGroup"></path>
            <path d="M12.7,17 C14.177,17 15.452,16.191 16.145,15 C15.452,13.809 14.177,13 12.7,13 C11.223,13 9.948,13.809 9.255,15 C9.948,16.191 11.223,17 12.7,17" id="Fill-2535" fill="#6B5B4B" sketch:type="MSShapeGroup"></path>
            <path d="M40.7,27 C42.177,27 43.452,26.191 44.145,25 C43.452,23.809 42.177,23 40.7,23 C39.223,23 37.948,23.809 37.255,25 C37.948,26.191 39.223,27 40.7,27" id="Fill-2536" fill="#6B5B4B" sketch:type="MSShapeGroup"></path>
        </g>
    </g>
</svg>