<?xml version="1.0" encoding="UTF-8" standalone="no"?>
<svg width="54px" height="59px" viewBox="0 0 54 59" version="1.1" xmlns="http://www.w3.org/2000/svg" xmlns:xlink="http://www.w3.org/1999/xlink" xmlns:sketch="http://www.bohemiancoding.com/sketch/ns">
    <!-- Generator: Sketch 3.2.2 (9983) - http://www.bohemiancoding.com/sketch -->
    <title>68 - Skeleton (Flat)</title>
    <desc>Created with Sketch.</desc>
    <defs></defs>
    <g id="Page-1" stroke="none" stroke-width="1" fill="none" fill-rule="evenodd" sketch:type="MSPage">
        <g id="68---Skeleton-(Flat)" sketch:type="MSLayerGroup" transform="translate(1.000000, 1.000000)">
            <path d="M35,24 L27,24 L27,22 L39,22 C39.552,22 40,21.553 40,21 C40,20.447 39.552,20 39,20 L27,20 L27,18 L39,18 C39.552,18 40,17.553 40,17 C40,16.447 39.552,16 39,16 L27,16 L27,14 L35,14 C35.552,14 36,13.553 36,13 C36,12.447 35.552,12 35,12 L27,12 L27,10 L33,10 C33.552,10 34,9.553 34,9 C34,8.447 33.552,8 33,8 L27,8 L27,4 L33,4 C33.552,4 34,3.553 34,3 C34,2.447 33.552,2 33,2 L27,2 C27,1.447 26.552,1 26,1 C25.448,1 25,1.447 25,2 L19,2 C18.448,2 18,2.447 18,3 C18,3.553 18.448,4 19,4 L25,4 L25,8 L19,8 C18.448,8 18,8.447 18,9 C18,9.553 18.448,10 19,10 L25,10 L25,12 L17,12 C16.448,12 16,12.447 16,13 C16,13.553 16.448,14 17,14 L25,14 L25,16 L13,16 C12.448,16 12,16.447 12,17 C12,17.553 12.448,18 13,18 L25,18 L25,20 L13,20 C12.448,20 12,20.447 12,21 C12,21.553 12.448,22 13,22 L25,22 L25,24 L17,24 C16.448,24 16,24.447 16,25 C16,25.553 16.448,26 17,26 L25,26 L25,28 L19,28 C18.448,28 18,28.447 18,29 C18,29.553 18.448,30 19,30 L25,30 L25,36 C25,36.553 25.448,37 26,37 C26.552,37 27,36.553 27,36 L27,30 L33,30 C33.552,30 34,29.553 34,29 C34,28.447 33.552,28 33,28 L27,28 L27,26 L35,26 C35.552,26 36,25.553 36,25 C36,24.447 35.552,24 35,24" id="Fill-183" fill="#F3EDBF" sketch:type="MSShapeGroup"></path>
            <path d="M43,45 C42.448,45 42,45.447 42,46 L42,57 C42,57.553 42.448,58 43,58 C43.552,58 44,57.553 44,57 L44,46 C44,45.447 43.552,45 43,45" id="Fill-184" fill="#F3EDBF" sketch:type="MSShapeGroup"></path>
            <path d="M4.751,19.365 C4.4,18.939 3.77,18.876 3.344,19.228 C2.917,19.578 2.856,20.208 3.206,20.635 L12.227,31.614 C12.425,31.854 12.711,31.979 13,31.979 C13.224,31.979 13.449,31.905 13.635,31.752 C14.061,31.401 14.123,30.772 13.772,30.345 L4.751,19.365" id="Fill-185" fill="#F3EDBF" sketch:type="MSShapeGroup"></path>
            <path d="M4,15 C4.256,15 4.512,14.902 4.707,14.707 L13.586,5.828 C13.977,5.438 13.977,4.805 13.586,4.414 C13.196,4.023 12.563,4.023 12.172,4.414 L3.293,13.293 C2.902,13.684 2.902,14.316 3.293,14.707 C3.488,14.902 3.744,15 4,15" id="Fill-186" fill="#F3EDBF" sketch:type="MSShapeGroup"></path>
            <path d="M48.656,19.228 C48.229,18.876 47.6,18.939 47.248,19.365 L38.227,30.345 C37.877,30.772 37.939,31.401 38.365,31.752 C38.551,31.905 38.776,31.979 38.999,31.979 C39.288,31.979 39.575,31.854 39.772,31.614 L48.793,20.635 C49.144,20.208 49.082,19.578 48.656,19.228" id="Fill-187" fill="#F3EDBF" sketch:type="MSShapeGroup"></path>
            <path d="M47.293,14.707 C47.488,14.902 47.744,15 48,15 C48.256,15 48.512,14.902 48.707,14.707 C49.098,14.316 49.098,13.684 48.707,13.293 L39.828,4.414 C39.437,4.023 38.804,4.023 38.414,4.414 C38.023,4.805 38.023,5.438 38.414,5.828 L47.293,14.707" id="Fill-188" fill="#F3EDBF" sketch:type="MSShapeGroup"></path>
            <path d="M9,45 C8.448,45 8,45.447 8,46 L8,57 C8,57.553 8.448,58 9,58 C9.552,58 10,57.553 10,57 L10,46 C10,45.447 9.552,45 9,45" id="Fill-189" fill="#F3EDBF" sketch:type="MSShapeGroup"></path>
            <path d="M40,43 C40,41.574 40.998,40.385 42.331,40.081 C41.203,38.895 38.734,38.305 37.382,38.519 C35.754,38.777 34.1,38.291 33.064,37.009 L32.506,36.317 C32.027,36.113 31.501,36 30.949,36 L22,36 C21.203,36 20.461,36.242 19.836,36.648 L19.026,37.451 C17.977,38.492 16.458,38.982 15.03,38.604 C13.516,38.203 10.859,38.709 9.735,40.101 C11.034,40.431 12,41.598 12,43 C12,44.127 11.372,45.096 10.453,45.609 L18.126,52.252 C19.451,53.577 21.533,53.931 23.134,52.959 C23.93,52.476 24.462,51.797 24.758,51.042 C24.97,50.503 25.449,50.141 26.005,50.043 C26.562,50.141 27.04,50.503 27.252,51.042 C27.549,51.797 28.081,52.476 28.877,52.959 C30.478,53.931 32.56,53.577 33.885,52.252 L41.75,45.72 C40.72,45.245 40,44.209 40,43 L40,43 Z M19,48 C17.343,48 16,46.657 16,45 C16,43.343 17.343,42 19,42 C20.657,42 22,43.343 22,45 C22,46.657 20.657,48 19,48 L19,48 Z M32,48 C30.343,48 29,46.657 29,45 C29,43.343 30.343,42 32,42 C33.657,42 35,43.343 35,45 C35,46.657 33.657,48 32,48 L32,48 Z" id="Fill-1300" fill="#F8E7A1" sketch:type="MSShapeGroup"></path>
            <path d="M6,17 C6,18.657 4.657,20 3,20 C1.343,20 0,18.657 0,17 C0,15.343 1.343,14 3,14 C4.657,14 6,15.343 6,17 L6,17 Z" id="Fill-1301" fill="#F8B563" sketch:type="MSShapeGroup"></path>
            <path d="M6,17 C6,18.657 4.657,20 3,20 C1.343,20 0,18.657 0,17 C0,15.343 1.343,14 3,14 C4.657,14 6,15.343 6,17 L6,17 Z" id="Stroke-1302" stroke="#F8B563" stroke-width="2" stroke-linecap="round" sketch:type="MSShapeGroup"></path>
            <path d="M40,3 C40,4.657 38.657,6 37,6 C35.343,6 34,4.657 34,3 C34,1.343 35.343,0 37,0 C38.657,0 40,1.343 40,3 L40,3 Z" id="Fill-1303" fill="#F8B563" sketch:type="MSShapeGroup"></path>
            <path d="M40,3 C40,4.657 38.657,6 37,6 C35.343,6 34,4.657 34,3 C34,1.343 35.343,0 37,0 C38.657,0 40,1.343 40,3 L40,3 Z" id="Stroke-1304" stroke="#F8B563" stroke-width="2" stroke-linecap="round" sketch:type="MSShapeGroup"></path>
            <path d="M18,3 C18,4.657 16.657,6 15,6 C13.343,6 12,4.657 12,3 C12,1.343 13.343,0 15,0 C16.657,0 18,1.343 18,3 L18,3 Z" id="Fill-1305" fill="#F8B563" sketch:type="MSShapeGroup"></path>
            <path d="M18,3 C18,4.657 16.657,6 15,6 C13.343,6 12,4.657 12,3 C12,1.343 13.343,0 15,0 C16.657,0 18,1.343 18,3 L18,3 Z" id="Stroke-1306" stroke="#F8B563" stroke-width="2" stroke-linecap="round" sketch:type="MSShapeGroup"></path>
            <path d="M46,17 C46,18.657 47.343,20 49,20 C50.657,20 52,18.657 52,17 C52,15.343 50.657,14 49,14 C47.343,14 46,15.343 46,17 L46,17 Z" id="Fill-1307" fill="#F8B563" sketch:type="MSShapeGroup"></path>
            <path d="M46,17 C46,18.657 47.343,20 49,20 C50.657,20 52,18.657 52,17 C52,15.343 50.657,14 49,14 C47.343,14 46,15.343 46,17 L46,17 Z" id="Stroke-1308" stroke="#F8B563" stroke-width="2" stroke-linecap="round" sketch:type="MSShapeGroup"></path>
            <path d="M40,43 C40,44.657 41.343,46 43,46 C44.657,46 46,44.657 46,43 C46,41.343 44.657,40 43,40 C41.343,40 40,41.343 40,43 L40,43 Z" id="Fill-1309" fill="#F8B563" sketch:type="MSShapeGroup"></path>
            <path d="M40,43 C40,44.657 41.343,46 43,46 C44.657,46 46,44.657 46,43 C46,41.343 44.657,40 43,40 C41.343,40 40,41.343 40,43 L40,43 Z" id="Stroke-1310" stroke="#F8B563" stroke-width="2" stroke-linecap="round" sketch:type="MSShapeGroup"></path>
            <path d="M6,43 C6,44.657 7.343,46 9,46 C10.657,46 12,44.657 12,43 C12,41.343 10.657,40 9,40 C7.343,40 6,41.343 6,43 L6,43 Z" id="Fill-1311" fill="#F8B563" sketch:type="MSShapeGroup"></path>
            <path d="M6,43 C6,44.657 7.343,46 9,46 C10.657,46 12,44.657 12,43 C12,41.343 10.657,40 9,40 C7.343,40 6,41.343 6,43 L6,43 Z" id="Stroke-1312" stroke="#F8B563" stroke-width="2" stroke-linecap="round" sketch:type="MSShapeGroup"></path>
        </g>
    </g>
</svg>