<?xml version="1.0" encoding="UTF-8" standalone="no"?>
<svg width="58px" height="58px" viewBox="0 0 58 58" version="1.1" xmlns="http://www.w3.org/2000/svg" xmlns:xlink="http://www.w3.org/1999/xlink" xmlns:sketch="http://www.bohemiancoding.com/sketch/ns">
    <!-- Generator: Sketch 3.2.2 (9983) - http://www.bohemiancoding.com/sketch -->
    <title>87 - Skinny (Flat)</title>
    <desc>Created with Sketch.</desc>
    <defs></defs>
    <g id="Page-1" stroke="none" stroke-width="1" fill="none" fill-rule="evenodd" sketch:type="MSPage">
        <g id="87---Skinny-(Flat)" sketch:type="MSLayerGroup">
            <path d="M39.024,1.8 L40.05,6.145 C40.265,8.725 42.689,10.534 45.224,10.006 L49.984,9.015 C46.958,5.837 43.222,3.348 39.024,1.8" id="Fill-1368" fill="#DD691D" sketch:type="MSShapeGroup"></path>
            <path d="M58,29 C58,26.716 57.728,24.496 57.228,22.365 C53.068,23.558 49.093,25.792 48.492,30.001 C47.995,33.476 46.916,44.639 46.088,52.409 C53.303,47.135 58,38.622 58,29" id="Fill-1369" fill="#DD691D" sketch:type="MSShapeGroup"></path>
            <path d="M8.013,9.014 L12.776,10.006 C15.31,10.534 17.735,8.725 17.95,6.145 C17.95,6.145 18.273,4.331 18.708,1.886 C14.615,3.441 10.976,5.902 8.013,9.014" id="Fill-1370" fill="#DD691D" sketch:type="MSShapeGroup"></path>
            <path d="M0.772,22.365 C0.272,24.496 0,26.716 0,29 C0,38.622 4.697,47.135 11.912,52.409 C11.084,44.639 10.005,33.476 9.508,30.001 C8.907,25.792 4.932,23.558 0.772,22.365" id="Fill-1371" fill="#DD691D" sketch:type="MSShapeGroup"></path>
            <path d="M57.228,22.365 C56.033,17.262 53.493,12.681 49.999,9.011 L45.224,10.006 C42.689,10.534 40.265,8.725 40.05,6.145 L39.018,1.778 C35.896,0.629 32.521,0 29,0 C25.374,0 21.907,0.671 18.708,1.886 C18.273,4.331 17.95,6.145 17.95,6.145 C17.735,8.725 15.31,10.534 12.776,10.006 L8,9.011 C4.507,12.681 1.967,17.262 0.772,22.365 C4.932,23.558 8.907,25.792 9.508,30.001 C10.005,33.479 11.086,44.656 11.914,52.427 C16.707,55.929 22.61,58 29,58 C35.39,58 41.293,55.929 46.086,52.427 C46.914,44.656 47.995,33.479 48.492,30.001 C49.093,25.792 53.068,23.558 57.228,22.365" id="Fill-1383" fill="#FCCF9D" sketch:type="MSShapeGroup"></path>
            <path d="M19,32 C19,32.552 18.552,33 18,33 C17.448,33 17,32.552 17,32 C17,31.448 17.448,31 18,31 C18.552,31 19,31.448 19,32" id="Fill-2050" fill="#F8B563" sketch:type="MSShapeGroup"></path>
            <path d="M42,32 C42,32.552 41.552,33 41,33 C40.448,33 40,32.552 40,32 C40,31.448 40.448,31 41,31 C41.552,31 42,31.448 42,32" id="Fill-2051" fill="#F8B563" sketch:type="MSShapeGroup"></path>
            <path d="M24,15.02 C23.744,15.02 23.488,14.922 23.293,14.727 C22.03,13.465 20.273,12.889 18.058,13.018 C17.504,13.043 17.034,12.629 17.001,12.077 C16.97,11.526 17.391,11.054 17.942,11.021 C20.747,10.851 23.023,11.629 24.707,13.312 C25.098,13.703 25.098,14.336 24.707,14.727 C24.512,14.922 24.256,15.02 24,15.02" id="Fill-2052" fill="#F8B563" sketch:type="MSShapeGroup"></path>
            <path d="M13.829,29.825 C13.276,29.825 12.829,29.378 12.829,28.825 C12.829,27.04 11.99,25.389 10.335,23.916 C9.923,23.549 9.886,22.917 10.253,22.504 C10.62,22.093 11.252,22.054 11.665,22.422 C13.764,24.29 14.829,26.444 14.829,28.825 C14.829,29.378 14.381,29.825 13.829,29.825" id="Fill-2053" fill="#F8B563" sketch:type="MSShapeGroup"></path>
            <path d="M45.019,29.99 C44.493,29.99 44.052,29.58 44.021,29.048 C43.858,26.242 44.629,23.966 46.312,22.283 C46.703,21.893 47.336,21.893 47.727,22.283 C48.117,22.674 48.117,23.307 47.727,23.697 C46.464,24.959 45.889,26.721 46.018,28.933 C46.05,29.483 45.629,29.956 45.078,29.988 C45.058,29.989 45.038,29.99 45.019,29.99" id="Fill-2054" fill="#F8B563" sketch:type="MSShapeGroup"></path>
            <path d="M33.472,15.02 C33.216,15.02 32.96,14.922 32.765,14.727 C32.374,14.336 32.374,13.703 32.765,13.312 C34.372,11.705 37.1,10.846 40.058,11.021 C40.609,11.054 41.03,11.526 40.998,12.077 C40.966,12.629 40.504,13.04 39.942,13.018 C37.541,12.876 35.388,13.517 34.179,14.727 C33.984,14.922 33.728,15.02 33.472,15.02" id="Fill-2055" fill="#F8B563" sketch:type="MSShapeGroup"></path>
            <path d="M29,31 C28.448,31 28,30.553 28,30 L28,28 C28,27.447 28.448,27 29,27 C29.552,27 30,27.447 30,28 L30,30 C30,30.553 29.552,31 29,31" id="Fill-2056" fill="#F8B563" sketch:type="MSShapeGroup"></path>
            <path d="M41,51 C36.738,51 33,47.244 33,42.962 C33,42.409 33.448,41.962 34,41.962 C34.552,41.962 35,42.409 35,42.962 C35,46.179 37.804,49 41,49 C41.552,49 42,49.447 42,50 C42,50.553 41.552,51 41,51" id="Fill-2057" fill="#F8B563" sketch:type="MSShapeGroup"></path>
            <path d="M17,51 C16.448,51 16,50.553 16,50 C16,49.447 16.448,49 17,49 C20.196,49 23,46.179 23,42.962 C23,42.409 23.448,41.962 24,41.962 C24.552,41.962 25,42.409 25,42.962 C25,47.244 21.262,51 17,51" id="Fill-2058" fill="#F8B563" sketch:type="MSShapeGroup"></path>
            <path d="M22,10 C21.448,10 21,9.553 21,9 L21,7 C21,6.447 21.448,6 22,6 C22.552,6 23,6.447 23,7 L23,9 C23,9.553 22.552,10 22,10" id="Fill-2059" fill="#F8B563" sketch:type="MSShapeGroup"></path>
            <path d="M36,10 C35.448,10 35,9.553 35,9 L35,7 C35,6.447 35.448,6 36,6 C36.552,6 37,6.447 37,7 L37,9 C37,9.553 36.552,10 36,10" id="Fill-2060" fill="#F8B563" sketch:type="MSShapeGroup"></path>
        </g>
    </g>
</svg>