<?xml version="1.0" encoding="UTF-8" standalone="no"?>
<svg width="59px" height="47px" viewBox="0 0 59 47" version="1.1" xmlns="http://www.w3.org/2000/svg" xmlns:xlink="http://www.w3.org/1999/xlink" xmlns:sketch="http://www.bohemiancoding.com/sketch/ns">
    <!-- Generator: Sketch 3.2.2 (9983) - http://www.bohemiancoding.com/sketch -->
    <title>57 - Stomach Acid (Flat)</title>
    <desc>Created with Sketch.</desc>
    <defs></defs>
    <g id="Page-1" stroke="none" stroke-width="1" fill="none" fill-rule="evenodd" sketch:type="MSPage">
        <g id="57---Stomach-Acid-(Flat)" sketch:type="MSLayerGroup" transform="translate(1.000000, 1.000000)">
            <path d="M49.833,5.432 C36.411,-7.437 27.873,6.599 27.873,6.599 C21.579,5.515 20.417,0.099 20.417,0.099 L13.25,2.932 C13.25,2.932 14.917,12.099 27.5,14.432 C27.5,14.432 27.631,18.682 31,20.349 L31,25.849 C31,25.849 26.5,27.515 26.083,30.932 C26.083,30.932 20.833,29.182 17.417,33.182 C17.417,33.182 0,23.696 0,45.022 L5,45.022 C5,39 8.315,37.747 10.083,39.515 C14.893,44.325 17.667,40.682 17.667,40.682 C26.583,46.015 34.167,44.932 34.167,44.932 C53.574,45.516 65.388,20.345 49.833,5.432" id="Fill-256" fill="#FCCF9D" sketch:type="MSShapeGroup"></path>
            <path d="M44,29 C43.448,29 43,29.448 43,30 C43,30.552 43.448,31 44,31 C44.552,31 45,30.552 45,30 C45,29.448 44.552,29 44,29" id="Fill-1936" fill="#FFFFFF" sketch:type="MSShapeGroup"></path>
            <path d="M50,29 C49.448,29 49,29.448 49,30 C49,30.552 49.448,31 50,31 C50.552,31 51,30.552 51,30 C51,29.448 50.552,29 50,29" id="Fill-1937" fill="#FFFFFF" sketch:type="MSShapeGroup"></path>
            <path d="M53,26 C52.448,26 52,26.448 52,27 C52,27.552 52.448,28 53,28 C53.552,28 54,27.552 54,27 C54,26.448 53.552,26 53,26" id="Fill-1938" fill="#FFFFFF" sketch:type="MSShapeGroup"></path>
            <path d="M23,32 C22.448,32 22,32.448 22,33 C22,33.552 22.448,34 23,34 C23.552,34 24,33.552 24,33 C24,32.448 23.552,32 23,32" id="Fill-1939" fill="#FFFFFF" sketch:type="MSShapeGroup"></path>
            <path d="M29,32 C28.448,32 28,32.448 28,33 C28,33.552 28.448,34 29,34 C29.552,34 30,33.552 30,33 C30,32.448 29.552,32 29,32" id="Fill-1940" fill="#FFFFFF" sketch:type="MSShapeGroup"></path>
            <path d="M35,32 C34.448,32 34,32.448 34,33 C34,33.552 34.448,34 35,34 C35.552,34 36,33.552 36,33 C36,32.448 35.552,32 35,32" id="Fill-1941" fill="#FFFFFF" sketch:type="MSShapeGroup"></path>
            <path d="M41,32 C40.448,32 40,32.448 40,33 C40,33.552 40.448,34 41,34 C41.552,34 42,33.552 42,33 C42,32.448 41.552,32 41,32" id="Fill-1942" fill="#FFFFFF" sketch:type="MSShapeGroup"></path>
            <path d="M47,32 C46.448,32 46,32.448 46,33 C46,33.552 46.448,34 47,34 C47.552,34 48,33.552 48,33 C48,32.448 47.552,32 47,32" id="Fill-1943" fill="#FFFFFF" sketch:type="MSShapeGroup"></path>
            <path d="M14,35 C13.448,35 13,35.448 13,36 C13,36.552 13.448,37 14,37 C14.552,37 15,36.552 15,36 C15,35.448 14.552,35 14,35" id="Fill-1944" fill="#FFFFFF" sketch:type="MSShapeGroup"></path>
            <path d="M20,35 C19.448,35 19,35.448 19,36 C19,36.552 19.448,37 20,37 C20.552,37 21,36.552 21,36 C21,35.448 20.552,35 20,35" id="Fill-1945" fill="#FFFFFF" sketch:type="MSShapeGroup"></path>
            <path d="M23,38 C22.448,38 22,38.448 22,39 C22,39.552 22.448,40 23,40 C23.552,40 24,39.552 24,39 C24,38.448 23.552,38 23,38" id="Fill-1946" fill="#FFFFFF" sketch:type="MSShapeGroup"></path>
            <path d="M26,35 C25.448,35 25,35.448 25,36 C25,36.552 25.448,37 26,37 C26.552,37 27,36.552 27,36 C27,35.448 26.552,35 26,35" id="Fill-1947" fill="#FFFFFF" sketch:type="MSShapeGroup"></path>
            <path d="M32,35 C31.448,35 31,35.448 31,36 C31,36.552 31.448,37 32,37 C32.552,37 33,36.552 33,36 C33,35.448 32.552,35 32,35" id="Fill-1948" fill="#FFFFFF" sketch:type="MSShapeGroup"></path>
            <path d="M26,41 C25.448,41 25,41.448 25,42 C25,42.552 25.448,43 26,43 C26.552,43 27,42.552 27,42 C27,41.448 26.552,41 26,41" id="Fill-1949" fill="#FFFFFF" sketch:type="MSShapeGroup"></path>
            <path d="M32,41 C31.448,41 31,41.448 31,42 C31,42.552 31.448,43 32,43 C32.552,43 33,42.552 33,42 C33,41.448 32.552,41 32,41" id="Fill-1950" fill="#FFFFFF" sketch:type="MSShapeGroup"></path>
            <path d="M29,38 C28.448,38 28,38.448 28,39 C28,39.552 28.448,40 29,40 C29.552,40 30,39.552 30,39 C30,38.448 29.552,38 29,38" id="Fill-1951" fill="#FFFFFF" sketch:type="MSShapeGroup"></path>
            <path d="M35,38 C34.448,38 34,38.448 34,39 C34,39.552 34.448,40 35,40 C35.552,40 36,39.552 36,39 C36,38.448 35.552,38 35,38" id="Fill-1952" fill="#FFFFFF" sketch:type="MSShapeGroup"></path>
            <path d="M38,35 C37.448,35 37,35.448 37,36 C37,36.552 37.448,37 38,37 C38.552,37 39,36.552 39,36 C39,35.448 38.552,35 38,35" id="Fill-1953" fill="#FFFFFF" sketch:type="MSShapeGroup"></path>
            <path d="M44,35 C43.448,35 43,35.448 43,36 C43,36.552 43.448,37 44,37 C44.552,37 45,36.552 45,36 C45,35.448 44.552,35 44,35" id="Fill-1954" fill="#FFFFFF" sketch:type="MSShapeGroup"></path>
            <path d="M38,41 C37.448,41 37,41.448 37,42 C37,42.552 37.448,43 38,43 C38.552,43 39,42.552 39,42 C39,41.448 38.552,41 38,41" id="Fill-1955" fill="#FFFFFF" sketch:type="MSShapeGroup"></path>
            <path d="M41,38 C40.448,38 40,38.448 40,39 C40,39.552 40.448,40 41,40 C41.552,40 42,39.552 42,39 C42,38.448 41.552,38 41,38" id="Fill-1956" fill="#FFFFFF" sketch:type="MSShapeGroup"></path>
            <path d="M47,38 C46.448,38 46,38.448 46,39 C46,39.552 46.448,40 47,40 C47.552,40 48,39.552 48,39 C48,38.448 47.552,38 47,38" id="Fill-1957" fill="#FFFFFF" sketch:type="MSShapeGroup"></path>
            <path d="M50,35 C49.448,35 49,35.448 49,36 C49,36.552 49.448,37 50,37 C50.552,37 51,36.552 51,36 C51,35.448 50.552,35 50,35" id="Fill-1958" fill="#FFFFFF" sketch:type="MSShapeGroup"></path>
            <path d="M20.417,0.099 C20.417,0.099 21.579,5.515 27.873,6.599 C27.873,6.599 36.411,-7.437 49.833,5.432 C65.388,20.345 53.574,45.516 34.167,44.932 C34.167,44.932 26.583,46.015 17.667,40.682 C17.667,40.682 14.893,44.325 10.083,39.515 C8.315,37.747 5,39 5,45.022 M13.25,2.932 C13.25,2.932 14.917,12.099 27.5,14.432 C27.5,14.432 27.631,18.682 31,20.349 L31,25.849 C31,25.849 26.5,27.515 26.083,30.932 C26.083,30.932 20.833,29.182 17.417,33.182 C17.417,33.182 0,23.696 0,45.022" id="Stroke-2334" stroke="#CF8C6D" stroke-width="2" stroke-linecap="round" sketch:type="MSShapeGroup"></path>
        </g>
    </g>
</svg>