<?xml version="1.0" encoding="UTF-8" standalone="no"?>
<svg width="56px" height="55px" viewBox="0 0 56 55" version="1.1" xmlns="http://www.w3.org/2000/svg" xmlns:xlink="http://www.w3.org/1999/xlink" xmlns:sketch="http://www.bohemiancoding.com/sketch/ns">
    <!-- Generator: Sketch 3.2.2 (9983) - http://www.bohemiancoding.com/sketch -->
    <title>125 - Surgical Scrissors (Flat)</title>
    <desc>Created with Sketch.</desc>
    <defs></defs>
    <g id="Page-1" stroke="none" stroke-width="1" fill="none" fill-rule="evenodd" sketch:type="MSPage">
        <g id="125---Surgical-Scrissors-(Flat)" sketch:type="MSLayerGroup" transform="translate(-1.000000, -1.000000)">
            <path d="M49,17 C44.39,17 40.69,20.9 41.021,25.581 C41.029,25.695 40.951,25.77 40.84,25.743 C38.999,25.306 25.083,22 25.083,22 L19.029,20.487 C18.954,20.056 18.795,19.635 18.526,19.258 L6.437,4.667 C5.477,3.325 3.593,3.012 2.251,3.973 C0.909,4.933 0.597,6.816 1.557,8.158 L9,18 L11.208,23.888 C11.7,25.201 12.778,26.209 14.122,26.612 L19.225,28.143 L32.503,41.42 C32.724,41.642 32.706,41.994 32.479,42.21 C30.719,43.89 29.723,46.364 30.068,49.057 C30.527,52.645 33.475,55.542 37.069,55.947 C41.904,56.493 46,52.725 46,48 C46,43.582 42.418,40 38,40 C37.972,40 23.302,26.155 23.302,26.155 L23.637,25.374 L42.733,29.963 C44.386,32.047 47.05,33.294 49.989,32.94 C53.608,32.505 56.546,29.541 56.949,25.918 C57.486,21.089 53.721,17 49,17 L49,17 Z M43,48 C43,50.761 40.761,53 38,53 C35.239,53 33,50.761 33,48 C33,45.239 35.239,43 38,43 C40.761,43 43,45.239 43,48 L43,48 Z M54,25 C54,27.761 51.761,30 49,30 C46.239,30 44,27.761 44,25 C44,22.239 46.239,20 49,20 C51.761,20 54,22.239 54,25 L54,25 Z" id="Fill-284" fill="#E8EDEE" sketch:type="MSShapeGroup"></path>
            <path d="M18,18.623 L18,4 C17.972,2.35 16.65,0.972 15,1 C13.35,1.028 11.972,2.35 12,4 L12,11.382 L18,18.623" id="Fill-285" fill="#B0B6BB" sketch:type="MSShapeGroup"></path>
            <path d="M19,23.5 C19,24.328 18.328,25 17.5,25 C16.672,25 16,24.328 16,23.5 C16,22.672 16.672,22 17.5,22 C18.328,22 19,22.672 19,23.5" id="Fill-707" fill="#B0B6BB" sketch:type="MSShapeGroup"></path>
        </g>
    </g>
</svg>