<?xml version="1.0" encoding="UTF-8" standalone="no"?>
<svg width="58px" height="58px" viewBox="0 0 58 58" version="1.1" xmlns="http://www.w3.org/2000/svg" xmlns:xlink="http://www.w3.org/1999/xlink" xmlns:sketch="http://www.bohemiancoding.com/sketch/ns">
    <!-- Generator: Sketch 3.2.2 (9983) - http://www.bohemiancoding.com/sketch -->
    <title>32 - Tatrum Canine (Flat)</title>
    <desc>Created with Sketch.</desc>
    <defs></defs>
    <g id="Page-1" stroke="none" stroke-width="1" fill="none" fill-rule="evenodd" sketch:type="MSPage">
        <g id="32---Tatrum-Canine-(Flat)" sketch:type="MSLayerGroup">
            <path d="M46.977,39.995 C44.113,38.09 41.979,33.247 42,30.814 C42.005,30.222 42.016,29.615 42.03,29 L15.859,29 C15.917,29.617 15.969,30.226 16.005,30.814 C16.298,35.605 13.077,39.003 9.619,40.205 C7.517,40.935 5.252,41.538 2.988,41.823 C7.721,51.406 17.588,58 29,58 C40.342,58 50.141,51.477 54.906,41.988 C52.067,42.074 49.311,41.549 46.977,39.995" id="Fill-84" fill="#3E465B" sketch:type="MSShapeGroup"></path>
            <path d="M29,0 C12.984,0 0,12.984 0,29 L58,29 C58,12.984 45.016,0 29,0" id="Fill-93" fill="#ED9893" sketch:type="MSShapeGroup"></path>
            <path d="M41.584,21.542 C42.643,26.118 41.671,30.981 38.766,34.655 C36.338,37.726 33.16,40.834 30.35,42.665 C29.765,43.045 28.859,43.111 28.226,42.816 C24.649,41.147 15.619,32.376 16.012,27.304 C16.359,22.839 16.583,18.328 17.86,14.04 C19.393,8.896 23.544,6.946 28.671,7.001 C33.893,7.057 38.035,9.005 39.704,14.333 C40.445,16.699 41.024,19.118 41.584,21.542" id="Fill-2111" fill="#E8EDEE" sketch:type="MSShapeGroup"></path>
            <path d="M49.415,8.406 C46.56,9.047 45.252,10.691 43.913,14.912 C42.388,19.721 42.044,25.745 42,30.814 C41.979,33.247 44.113,38.09 46.977,39.995 C49.317,41.553 52.081,42.078 54.928,41.987 C56.889,38.079 58,33.671 58,29 C58,20.946 54.715,13.661 49.415,8.406" id="Fill-2112" fill="#E8EDEE" sketch:type="MSShapeGroup"></path>
            <path d="M12.927,13.75 C12.147,11.051 10.366,9.598 8.178,8.826 C3.119,14.046 0,21.157 0,29 C0,33.605 1.078,37.956 2.988,41.823 C5.252,41.538 7.517,40.935 9.619,40.205 C13.077,39.003 16.298,35.605 16.005,30.814 C15.68,25.512 14.405,18.863 12.927,13.75" id="Fill-2113" fill="#E8EDEE" sketch:type="MSShapeGroup"></path>
            <path d="M36,9 C36,9.552 35.552,10 35,10 C34.448,10 34,9.552 34,9 C34,8.448 34.448,8 35,8 C35.552,8 36,8.448 36,9" id="Fill-2114" fill="#6B5B4B" sketch:type="MSShapeGroup"></path>
            <path d="M32,9 C32,9.552 31.552,10 31,10 C30.448,10 30,9.552 30,9 C30,8.448 30.448,8 31,8 C31.552,8 32,8.448 32,9" id="Fill-2115" fill="#6B5B4B" sketch:type="MSShapeGroup"></path>
            <path d="M28,9 C28,9.552 27.552,10 27,10 C26.448,10 26,9.552 26,9 C26,8.448 26.448,8 27,8 C27.552,8 28,8.448 28,9" id="Fill-2116" fill="#6B5B4B" sketch:type="MSShapeGroup"></path>
            <path d="M30,11 C30,11.552 29.552,12 29,12 C28.448,12 28,11.552 28,11 C28,10.448 28.448,10 29,10 C29.552,10 30,10.448 30,11" id="Fill-2117" fill="#6B5B4B" sketch:type="MSShapeGroup"></path>
            <path d="M34,11 C34,11.552 33.552,12 33,12 C32.448,12 32,11.552 32,11 C32,10.448 32.448,10 33,10 C33.552,10 34,10.448 34,11" id="Fill-2118" fill="#6B5B4B" sketch:type="MSShapeGroup"></path>
            <path d="M26,11 C26,11.552 25.552,12 25,12 C24.448,12 24,11.552 24,11 C24,10.448 24.448,10 25,10 C25.552,10 26,10.448 26,11" id="Fill-2119" fill="#6B5B4B" sketch:type="MSShapeGroup"></path>
            <path d="M24,9 C24,9.552 23.552,10 23,10 C22.448,10 22,9.552 22,9 C22,8.448 22.448,8 23,8 C23.552,8 24,8.448 24,9" id="Fill-2120" fill="#6B5B4B" sketch:type="MSShapeGroup"></path>
            <path d="M22,11 C22,11.552 21.552,12 21,12 C20.448,12 20,11.552 20,11 C20,10.448 20.448,10 21,10 C21.552,10 22,10.448 22,11" id="Fill-2121" fill="#6B5B4B" sketch:type="MSShapeGroup"></path>
            <path d="M24,13 C24,13.552 23.552,14 23,14 C22.448,14 22,13.552 22,13 C22,12.448 22.448,12 23,12 C23.552,12 24,12.448 24,13" id="Fill-2122" fill="#6B5B4B" sketch:type="MSShapeGroup"></path>
            <path d="M22,15 C22,15.552 21.552,16 21,16 C20.448,16 20,15.552 20,15 C20,14.448 20.448,14 21,14 C21.552,14 22,14.448 22,15" id="Fill-2123" fill="#6B5B4B" sketch:type="MSShapeGroup"></path>
            <path d="M20,13 C20,13.552 19.552,14 19,14 C18.448,14 18,13.552 18,13 C18,12.448 18.448,12 19,12 C19.552,12 20,12.448 20,13" id="Fill-2124" fill="#6B5B4B" sketch:type="MSShapeGroup"></path>
            <path d="M32,13 C32,13.552 31.552,14 31,14 C30.448,14 30,13.552 30,13 C30,12.448 30.448,12 31,12 C31.552,12 32,12.448 32,13" id="Fill-2125" fill="#6B5B4B" sketch:type="MSShapeGroup"></path>
            <path d="M38,11 C38,11.552 37.552,12 37,12 C36.448,12 36,11.552 36,11 C36,10.448 36.448,10 37,10 C37.552,10 38,10.448 38,11" id="Fill-2126" fill="#6B5B4B" sketch:type="MSShapeGroup"></path>
            <path d="M36,13 C36,13.552 35.552,14 35,14 C34.448,14 34,13.552 34,13 C34,12.448 34.448,12 35,12 C35.552,12 36,12.448 36,13" id="Fill-2127" fill="#6B5B4B" sketch:type="MSShapeGroup"></path>
            <path d="M38,15 C38,15.552 37.552,16 37,16 C36.448,16 36,15.552 36,15 C36,14.448 36.448,14 37,14 C37.552,14 38,14.448 38,15" id="Fill-2128" fill="#6B5B4B" sketch:type="MSShapeGroup"></path>
            <path d="M40,17 C40,17.552 39.552,18 39,18 C38.448,18 38,17.552 38,17 C38,16.448 38.448,16 39,16 C39.552,16 40,16.448 40,17" id="Fill-2129" fill="#6B5B4B" sketch:type="MSShapeGroup"></path>
            <path d="M51.705,35.541 C49.473,32.771 48.275,29.417 48.135,25.875 C48.034,23.304 44.034,23.294 44.135,25.875 C44.32,30.551 45.948,34.735 48.877,38.37 C50.496,40.379 53.307,37.53 51.705,35.541" id="Fill-2616" fill="#FFFFFF" sketch:type="MSShapeGroup"></path>
            <path d="M5.894,40 C13.404,39.504 14.349,31.704 13.731,25.733 C13.468,23.194 9.465,23.168 9.731,25.733 C10.072,29.026 10.757,35.679 5.894,36 C3.334,36.168 3.318,40.17 5.894,40" id="Fill-2617" fill="#FFFFFF" sketch:type="MSShapeGroup"></path>
            <path d="M28.452,22.933 C27.702,22.485 26.841,22.216 26.034,22.192 C25.251,22.169 24.57,21.624 24.526,20.843 C24.525,20.833 24.525,20.824 24.524,20.814 C24.384,18.249 20.383,18.235 20.524,20.814 C20.552,21.322 20.614,21.818 20.664,22.319 C20.568,22.467 20.5,22.641 20.516,22.873 C20.694,25.571 19.729,28.6 20.843,31.179 C21.764,33.314 23.463,34.7 25.34,35.917 C25.989,36.944 26.679,37.955 27.454,38.931 C28.088,39.729 28.908,39.76 29.573,39.39 C29.901,39.538 30.296,39.516 30.623,39.175 C35.446,34.157 34.424,26.494 28.452,22.933" id="Fill-2619" fill="#FFFFFF" sketch:type="MSShapeGroup"></path>
        </g>
    </g>
</svg>