<?xml version="1.0" encoding="UTF-8" standalone="no"?>
<svg width="58px" height="58px" viewBox="0 0 58 58" version="1.1" xmlns="http://www.w3.org/2000/svg" xmlns:xlink="http://www.w3.org/1999/xlink" xmlns:sketch="http://www.bohemiancoding.com/sketch/ns">
    <!-- Generator: Sketch 3.2.2 (9983) - http://www.bohemiancoding.com/sketch -->
    <title>26 - Tatrum Upper Incisors (Flat)</title>
    <desc>Created with Sketch.</desc>
    <defs></defs>
    <g id="Page-1" stroke="none" stroke-width="1" fill="none" fill-rule="evenodd" sketch:type="MSPage">
        <g id="26---Tatrum-Upper-Incisors-(Flat)" sketch:type="MSLayerGroup">
            <path d="M54,22.691 L54,22.734 L4.38,22.734 C3.052,22.734 1.877,22.131 1.074,21.198 C0.38,23.681 0,26.295 0,29 C0,45.016 12.984,58 29,58 C45.016,58 58,45.016 58,29 C58,26.296 57.618,23.684 56.921,21.203 C56.197,22.041 55.165,22.587 54,22.691" id="Fill-1604" fill="#3E465B" sketch:type="MSShapeGroup"></path>
            <path d="M56.929,21.195 C56.25,18.763 55.251,16.467 54,14.337 L54,14.307 C53.683,13.769 53.349,13.242 52.998,12.727 L52.998,12.727 C52.602,12.143 52.18,11.579 51.743,11.027 C51.603,10.85 51.456,10.68 51.312,10.507 C51.001,10.132 50.683,9.764 50.354,9.406 C50.183,9.219 50.01,9.035 49.834,8.853 C49.498,8.505 49.153,8.169 48.8,7.839 C48.632,7.681 48.467,7.52 48.295,7.366 C47.786,6.912 47.265,6.472 46.726,6.054 C46.678,6.017 46.629,5.982 46.581,5.945 C46.056,5.544 45.515,5.163 44.962,4.797 C44.765,4.667 44.563,4.546 44.363,4.421 C43.956,4.166 43.545,3.919 43.125,3.684 C42.898,3.557 42.671,3.434 42.441,3.313 C42.011,3.088 41.575,2.875 41.133,2.671 C40.92,2.573 40.711,2.471 40.496,2.378 C39.851,2.099 39.197,1.837 38.528,1.604 C38.501,1.594 38.473,1.586 38.446,1.576 C37.785,1.349 37.112,1.15 36.43,0.97 C36.207,0.91 35.98,0.862 35.754,0.808 C35.262,0.69 34.766,0.583 34.265,0.491 C34.01,0.444 33.755,0.401 33.498,0.361 C32.989,0.281 32.476,0.218 31.958,0.166 C31.726,0.142 31.495,0.113 31.26,0.095 C30.514,0.037 29.761,0 29,0 C28.25,0 27.51,0.038 26.774,0.094 C26.557,0.11 26.342,0.134 26.126,0.155 C25.584,0.208 25.047,0.276 24.514,0.359 C24.303,0.392 24.092,0.422 23.883,0.459 C22.455,0.714 21.065,1.072 19.718,1.527 C19.526,1.592 19.338,1.662 19.148,1.731 C18.642,1.914 18.143,2.11 17.65,2.32 C17.472,2.397 17.292,2.47 17.115,2.55 C15.817,3.134 14.571,3.81 13.384,4.572 C13.237,4.666 13.093,4.764 12.948,4.861 C12.48,5.173 12.023,5.497 11.574,5.835 C11.443,5.934 11.311,6.03 11.183,6.131 C10.054,7.011 8.994,7.973 8.008,9.008 C7.914,9.107 7.823,9.209 7.73,9.309 C7.317,9.755 6.918,10.213 6.534,10.684 C6.455,10.781 6.374,10.876 6.296,10.974 C5.846,11.541 5.408,12.119 5,12.719 L5,12.729 C3.263,15.289 1.923,18.14 1.071,21.195 C1.874,22.13 3.051,22.734 4.38,22.734 L54,22.734 L54,22.691 C55.169,22.587 56.205,22.038 56.929,21.195" id="Fill-1605" fill="#ED9893" sketch:type="MSShapeGroup"></path>
            <path d="M16.251,9.734 C23.1,9.734 24.815,10.061 26.609,16.926 C27.917,21.928 28.212,32.461 28.25,37.734 C28.279,41.775 23.421,41.491 19.5,41.847 C17.147,42.061 15.895,42.036 13.554,41.861 C9.459,41.555 4.139,41.426 4.252,37.734 C4.42,32.213 5.624,21.036 6.891,15.716 C8.134,10.5 12.328,9.734 16.251,9.734" id="Fill-1606" fill="#E8EDEE" sketch:type="MSShapeGroup"></path>
            <path d="M41.81,9.734 C34.961,9.734 33.246,10.061 31.451,16.926 C30.143,21.928 29.849,32.461 29.811,37.734 C29.782,41.775 34.64,41.491 38.56,41.847 C40.914,42.061 42.166,42.036 44.507,41.861 C48.602,41.555 53.922,41.426 53.809,37.734 C53.641,32.213 52.437,21.036 51.17,15.716 C49.927,10.5 45.733,9.734 41.81,9.734" id="Fill-1607" fill="#E8EDEE" sketch:type="MSShapeGroup"></path>
            <path d="M11,13 C11.552,13 12,12.552 12,12 C12,11.448 11.552,11 11,11 C10.448,11 10,11.448 10,12 C10,12.552 10.448,13 11,13" id="Fill-1666" fill="#B5A896" sketch:type="MSShapeGroup"></path>
            <path d="M15,13 C15.552,13 16,12.552 16,12 C16,11.448 15.552,11 15,11 C14.448,11 14,11.448 14,12 C14,12.552 14.448,13 15,13" id="Fill-1667" fill="#B5A896" sketch:type="MSShapeGroup"></path>
            <path d="M13,13 C12.448,13 12,13.448 12,14 C12,14.552 12.448,15 13,15 C13.552,15 14,14.552 14,14 C14,13.448 13.552,13 13,13" id="Fill-1668" fill="#B5A896" sketch:type="MSShapeGroup"></path>
            <path d="M17,13 C16.448,13 16,13.448 16,14 C16,14.552 16.448,15 17,15 C17.552,15 18,14.552 18,14 C18,13.448 17.552,13 17,13" id="Fill-1669" fill="#B5A896" sketch:type="MSShapeGroup"></path>
            <path d="M19,11 C18.448,11 18,11.448 18,12 C18,12.552 18.448,13 19,13 C19.552,13 20,12.552 20,12 C20,11.448 19.552,11 19,11" id="Fill-1670" fill="#B5A896" sketch:type="MSShapeGroup"></path>
            <path d="M17,11 C17.552,11 18,10.552 18,10 C18,9.448 17.552,9 17,9 C16.448,9 16,9.448 16,10 C16,10.552 16.448,11 17,11" id="Fill-1671" fill="#B5A896" sketch:type="MSShapeGroup"></path>
            <path d="M21,11 C21.552,11 22,10.552 22,10 C22,9.448 21.552,9 21,9 C20.448,9 20,9.448 20,10 C20,10.552 20.448,11 21,11" id="Fill-1672" fill="#B5A896" sketch:type="MSShapeGroup"></path>
            <path d="M23,13 C23.552,13 24,12.552 24,12 C24,11.448 23.552,11 23,11 C22.448,11 22,11.448 22,12 C22,12.552 22.448,13 23,13" id="Fill-1673" fill="#B5A896" sketch:type="MSShapeGroup"></path>
            <path d="M21,13 C20.448,13 20,13.448 20,14 C20,14.552 20.448,15 21,15 C21.552,15 22,14.552 22,14 C22,13.448 21.552,13 21,13" id="Fill-1674" fill="#B5A896" sketch:type="MSShapeGroup"></path>
            <path d="M25,13 C24.448,13 24,13.448 24,14 C24,14.552 24.448,15 25,15 C25.552,15 26,14.552 26,14 C26,13.448 25.552,13 25,13" id="Fill-1675" fill="#B5A896" sketch:type="MSShapeGroup"></path>
            <path d="M9,15 C9.552,15 10,14.552 10,14 C10,13.448 9.552,13 9,13 C8.448,13 8,13.448 8,14 C8,14.552 8.448,15 9,15" id="Fill-1676" fill="#B5A896" sketch:type="MSShapeGroup"></path>
            <path d="M11,15 C10.448,15 10,15.448 10,16 C10,16.552 10.448,17 11,17 C11.552,17 12,16.552 12,16 C12,15.448 11.552,15 11,15" id="Fill-1677" fill="#B5A896" sketch:type="MSShapeGroup"></path>
            <path d="M15,15 C14.448,15 14,15.448 14,16 C14,16.552 14.448,17 15,17 C15.552,17 16,16.552 16,16 C16,15.448 15.552,15 15,15" id="Fill-1678" fill="#B5A896" sketch:type="MSShapeGroup"></path>
            <path d="M23,15 C22.448,15 22,15.448 22,16 C22,16.552 22.448,17 23,17 C23.552,17 24,16.552 24,16 C24,15.448 23.552,15 23,15" id="Fill-1679" fill="#B5A896" sketch:type="MSShapeGroup"></path>
            <path d="M25,17 C24.448,17 24,17.448 24,18 C24,18.552 24.448,19 25,19 C25.552,19 26,18.552 26,18 C26,17.448 25.552,17 25,17" id="Fill-1680" fill="#B5A896" sketch:type="MSShapeGroup"></path>
            <path d="M9,17 C8.448,17 8,17.448 8,18 C8,18.552 8.448,19 9,19 C9.552,19 10,18.552 10,18 C10,17.448 9.552,17 9,17" id="Fill-1681" fill="#B5A896" sketch:type="MSShapeGroup"></path>
            <path d="M35,13 C35.552,13 36,12.552 36,12 C36,11.448 35.552,11 35,11 C34.448,11 34,11.448 34,12 C34,12.552 34.448,13 35,13" id="Fill-1682" fill="#B5A896" sketch:type="MSShapeGroup"></path>
            <path d="M39,13 C39.552,13 40,12.552 40,12 C40,11.448 39.552,11 39,11 C38.448,11 38,11.448 38,12 C38,12.552 38.448,13 39,13" id="Fill-1683" fill="#B5A896" sketch:type="MSShapeGroup"></path>
            <path d="M37,13 C36.448,13 36,13.448 36,14 C36,14.552 36.448,15 37,15 C37.552,15 38,14.552 38,14 C38,13.448 37.552,13 37,13" id="Fill-1684" fill="#B5A896" sketch:type="MSShapeGroup"></path>
            <path d="M41,13 C40.448,13 40,13.448 40,14 C40,14.552 40.448,15 41,15 C41.552,15 42,14.552 42,14 C42,13.448 41.552,13 41,13" id="Fill-1685" fill="#B5A896" sketch:type="MSShapeGroup"></path>
            <path d="M43,11 C42.448,11 42,11.448 42,12 C42,12.552 42.448,13 43,13 C43.552,13 44,12.552 44,12 C44,11.448 43.552,11 43,11" id="Fill-1686" fill="#B5A896" sketch:type="MSShapeGroup"></path>
            <path d="M41,11 C41.552,11 42,10.552 42,10 C42,9.448 41.552,9 41,9 C40.448,9 40,9.448 40,10 C40,10.552 40.448,11 41,11" id="Fill-1687" fill="#B5A896" sketch:type="MSShapeGroup"></path>
            <path d="M47,13 C47.552,13 48,12.552 48,12 C48,11.448 47.552,11 47,11 C46.448,11 46,11.448 46,12 C46,12.552 46.448,13 47,13" id="Fill-1688" fill="#B5A896" sketch:type="MSShapeGroup"></path>
            <path d="M45,13 C44.448,13 44,13.448 44,14 C44,14.552 44.448,15 45,15 C45.552,15 46,14.552 46,14 C46,13.448 45.552,13 45,13" id="Fill-1689" fill="#B5A896" sketch:type="MSShapeGroup"></path>
            <path d="M49,15 C49.552,15 50,14.552 50,14 C50,13.448 49.552,13 49,13 C48.448,13 48,13.448 48,14 C48,14.552 48.448,15 49,15" id="Fill-1690" fill="#B5A896" sketch:type="MSShapeGroup"></path>
            <path d="M33,15 C33.552,15 34,14.552 34,14 C34,13.448 33.552,13 33,13 C32.448,13 32,13.448 32,14 C32,14.552 32.448,15 33,15" id="Fill-1691" fill="#B5A896" sketch:type="MSShapeGroup"></path>
            <path d="M35,15 C34.448,15 34,15.448 34,16 C34,16.552 34.448,17 35,17 C35.552,17 36,16.552 36,16 C36,15.448 35.552,15 35,15" id="Fill-1692" fill="#B5A896" sketch:type="MSShapeGroup"></path>
            <path d="M39,15 C38.448,15 38,15.448 38,16 C38,16.552 38.448,17 39,17 C39.552,17 40,16.552 40,16 C40,15.448 39.552,15 39,15" id="Fill-1693" fill="#B5A896" sketch:type="MSShapeGroup"></path>
            <path d="M49,17 C48.448,17 48,17.448 48,18 C48,18.552 48.448,19 49,19 C49.552,19 50,18.552 50,18 C50,17.448 49.552,17 49,17" id="Fill-1694" fill="#B5A896" sketch:type="MSShapeGroup"></path>
            <path d="M33,17 C32.448,17 32,17.448 32,18 C32,18.552 32.448,19 33,19 C33.552,19 34,18.552 34,18 C34,17.448 33.552,17 33,17" id="Fill-1695" fill="#B5A896" sketch:type="MSShapeGroup"></path>
            <path d="M47,15 C46.448,15 46,15.448 46,16 C46,16.552 46.448,17 47,17 C47.552,17 48,16.552 48,16 C48,15.448 47.552,15 47,15" id="Fill-1696" fill="#B5A896" sketch:type="MSShapeGroup"></path>
            <path d="M24.292,38.491 C24.003,38.522 23.715,38.544 23.427,38.571 C23.306,32.148 22.878,24.884 21.981,21.456 C21.395,19.213 20.992,18.472 20.84,18.252 C20.088,18 17.564,18 16.46,18 C12.475,18 12.25,18.944 11.965,20.141 C10.977,24.289 9.961,32.8 9.588,38.555 C9.044,38.502 8.499,38.447 7.953,38.381 C6.675,38.226 6.69,40.228 7.953,40.381 C13.406,41.041 18.831,41.077 24.292,40.491 C25.56,40.355 25.573,38.353 24.292,38.491" id="Fill-2654" fill="#F0F7F8" sketch:type="MSShapeGroup"></path>
            <path d="M44.954,20.141 C44.669,18.944 44.444,18 40.459,18 C39.355,18 36.831,18 36.079,18.252 C35.927,18.472 35.524,19.213 34.938,21.456 C34.061,24.807 33.634,31.824 33.501,38.138 C33.071,38.136 32.64,38.134 32.209,38.132 C30.919,38.125 30.92,40.125 32.209,40.132 C34.134,40.141 36.058,40.151 37.982,40.161 C38.835,40.232 39.504,40.266 40.146,40.266 L40.147,40.266 C40.838,40.266 41.578,40.231 42.782,40.141 L43.589,40.083 C44.613,40.01 46.276,39.893 47.397,39.679 C47.095,33.967 46.009,24.568 44.954,20.141" id="Fill-2655" fill="#F0F7F8" sketch:type="MSShapeGroup"></path>
            <path d="M18.819,40.725 C20.684,41.064 22.72,41.19 24.546,40.583 C25.884,40.139 26.804,38.727 26.298,37.348 C25.857,36.148 23.924,36.666 24.369,37.88 C24.938,39.43 20.054,38.924 19.351,38.796 C18.09,38.567 17.551,40.495 18.819,40.725" id="Fill-2656" fill="#FFFFFF" sketch:type="MSShapeGroup"></path>
            <path d="M49.542,36.466 C47.077,40.426 41.075,38.479 37.194,39.036 C35.921,39.218 36.464,41.145 37.725,40.964 C42.468,40.284 48.212,42.386 51.269,37.475 C51.952,36.377 50.221,35.374 49.542,36.466" id="Fill-2657" fill="#FFFFFF" sketch:type="MSShapeGroup"></path>
        </g>
    </g>
</svg>