<?xml version="1.0" encoding="UTF-8" standalone="no"?>
<svg width="58px" height="58px" viewBox="0 0 58 58" version="1.1" xmlns="http://www.w3.org/2000/svg" xmlns:xlink="http://www.w3.org/1999/xlink" xmlns:sketch="http://www.bohemiancoding.com/sketch/ns">
    <!-- Generator: Sketch 3.2.2 (9983) - http://www.bohemiancoding.com/sketch -->
    <title>23 - Tatrum Molar (Flat)</title>
    <desc>Created with Sketch.</desc>
    <defs></defs>
    <g id="Page-1" stroke="none" stroke-width="1" fill="none" fill-rule="evenodd" sketch:type="MSPage">
        <g id="23---Tatrum-Molar-(Flat)" sketch:type="MSLayerGroup">
            <path d="M57.375,23 C54.611,9.863 42.959,0 29,0 C15.041,0 3.389,9.863 0.625,23 L10,23 L10,27 L50,27 L50,23 L57.375,23" id="Fill-61" fill="#ED9893" sketch:type="MSShapeGroup"></path>
            <path d="M14.595,33.078 C17.038,36.702 22.476,38.115 26.51,36.718 C27.435,36.398 27.894,35.888 28.917,36.011 C29.835,36.12 31.082,36.561 32,36.692 C33.855,36.958 35.552,36.919 37.395,36.591 C46.883,34.9 45.641,23.446 43.448,16.536 C42.898,14.804 42.23,12.965 41.089,11.526 C39.752,9.838 37.433,8.126 35.477,8.011 C32.437,7.831 29.39,9.988 26.344,10.011 C23.761,10.03 20.279,9.23 17.802,10.011 C14.922,10.918 13.753,16.627 13.221,19.138 C12.342,23.292 12.104,29.383 14.595,33.078" id="Fill-62" fill="#E8EDEE" sketch:type="MSShapeGroup"></path>
            <path d="M50.789,9.874 C50.589,9.916 50.384,9.951 50.195,10.011 C47.315,10.918 46.146,16.627 45.614,19.138 C44.735,23.292 44.497,29.383 46.988,33.078 C49.03,36.108 53.165,37.585 56.824,37.174 C57.585,34.58 58,31.839 58,29 C58,21.67 55.275,14.98 50.789,9.874" id="Fill-63" fill="#E8EDEE" sketch:type="MSShapeGroup"></path>
            <path d="M12.744,23.214 C12.504,19.988 12.057,16.74 11.224,13.913 C10.42,11.183 9.625,9.54 8.451,8.539 C3.229,13.783 0,21.014 0,29 C0,33.265 0.928,37.312 2.582,40.959 C4.657,40.818 6.644,40.239 8.379,38.995 C11.038,37.09 13.02,32.247 13,29.814 C12.999,29.713 12.996,29.607 12.995,29.506 C12.553,27.54 12.523,25.363 12.744,23.214" id="Fill-64" fill="#E8EDEE" sketch:type="MSShapeGroup"></path>
            <path d="M46.988,33.078 C45.832,31.363 45.27,29.13 45.082,26.816 C45.043,26.854 44.996,26.887 44.957,26.926 C44.69,31.545 42.766,35.634 37.395,36.591 C35.552,36.919 33.855,36.958 32,36.692 C31.082,36.561 29.835,36.12 28.917,36.011 C27.894,35.888 27.435,36.398 26.51,36.718 C22.476,38.115 17.038,36.702 14.595,33.078 C13.729,31.793 13.198,30.216 12.906,28.533 C12.878,28.549 12.852,28.569 12.821,28.579 C12.869,28.893 12.927,29.202 12.995,29.506 C12.996,29.607 12.999,29.713 13,29.814 C13.02,32.247 11.038,37.09 8.379,38.995 C6.644,40.239 4.657,40.818 2.582,40.959 C7.138,51.007 17.249,58 29,58 C42.176,58 53.288,49.208 56.818,37.174 C53.161,37.583 49.029,36.106 46.988,33.078" id="Fill-65" fill="#3E465B" sketch:type="MSShapeGroup"></path>
            <path d="M30.901,30.984 C25.964,29.872 21.84,30.271 17.47,32.051 C17.507,32.521 17.582,33.018 17.729,33.563 C18.711,37.213 23.597,36.496 24.467,33.601 C24.702,33.631 25.015,33.595 25.419,33.484 C26.695,33.482 27.97,33.556 29.243,33.631 C31.909,33.786 34.537,34.21 37.151,34.735 C39.086,35.124 40.533,34.04 41.173,32.627 C37.775,32.471 34.366,31.765 30.901,30.984" id="Fill-66" fill="#F0F7F8" sketch:type="MSShapeGroup"></path>
            <path d="M46.279,21.818 C45.453,27.437 47.486,35.003 54.52,34.667 C55.803,34.606 55.809,32.606 54.52,32.667 C48.914,32.935 47.562,26.741 48.208,22.35 C48.393,21.089 46.466,20.546 46.279,21.818" id="Fill-67" fill="#FFFFFF" sketch:type="MSShapeGroup"></path>
            <path d="M3.917,39.254 C6.853,39.311 9.362,37.378 10.028,34.512 C10.32,33.257 8.391,32.724 8.1,33.98 C7.629,36.005 6,37.295 3.917,37.254 C2.626,37.229 2.628,39.229 3.917,39.254" id="Fill-68" fill="#FFFFFF" sketch:type="MSShapeGroup"></path>
            <path d="M37,12 C37.552,12 38,11.552 38,11 C38,10.448 37.552,10 37,10 C36.448,10 36,10.448 36,11 C36,11.552 36.448,12 37,12" id="Fill-2140" fill="#B5A896" sketch:type="MSShapeGroup"></path>
            <path d="M39,14 C39.552,14 40,13.552 40,13 C40,12.448 39.552,12 39,12 C38.448,12 38,12.448 38,13 C38,13.552 38.448,14 39,14" id="Fill-2141" fill="#B5A896" sketch:type="MSShapeGroup"></path>
            <path d="M41,16 C41.552,16 42,15.552 42,15 C42,14.448 41.552,14 41,14 C40.448,14 40,14.448 40,15 C40,15.552 40.448,16 41,16" id="Fill-2142" fill="#B5A896" sketch:type="MSShapeGroup"></path>
            <path d="M17,14 C16.448,14 16,14.448 16,15 C16,15.552 16.448,16 17,16 C17.552,16 18,15.552 18,15 C18,14.448 17.552,14 17,14" id="Fill-2143" fill="#B5A896" sketch:type="MSShapeGroup"></path>
            <path d="M15,16 C14.448,16 14,16.448 14,17 C14,17.552 14.448,18 15,18 C15.552,18 16,17.552 16,17 C16,16.448 15.552,16 15,16" id="Fill-2144" fill="#B5A896" sketch:type="MSShapeGroup"></path>
            <path d="M43,16 C42.448,16 42,16.448 42,17 C42,17.552 42.448,18 43,18 C43.552,18 44,17.552 44,17 C44,16.448 43.552,16 43,16" id="Fill-2145" fill="#B5A896" sketch:type="MSShapeGroup"></path>
            <path d="M37,14 C36.448,14 36,14.448 36,15 C36,15.552 36.448,16 37,16 C37.552,16 38,15.552 38,15 C38,14.448 37.552,14 37,14" id="Fill-2146" fill="#B5A896" sketch:type="MSShapeGroup"></path>
            <path d="M39,16 C38.448,16 38,16.448 38,17 C38,17.552 38.448,18 39,18 C39.552,18 40,17.552 40,17 C40,16.448 39.552,16 39,16" id="Fill-2147" fill="#B5A896" sketch:type="MSShapeGroup"></path>
            <path d="M41,18 C40.448,18 40,18.448 40,19 C40,19.552 40.448,20 41,20 C41.552,20 42,19.552 42,19 C42,18.448 41.552,18 41,18" id="Fill-2148" fill="#B5A896" sketch:type="MSShapeGroup"></path>
            <path d="M17,12 C17.552,12 18,11.552 18,11 C18,10.448 17.552,10 17,10 C16.448,10 16,10.448 16,11 C16,11.552 16.448,12 17,12" id="Fill-2149" fill="#B5A896" sketch:type="MSShapeGroup"></path>
            <path d="M35,10 C35.552,10 36,9.552 36,9 C36,8.448 35.552,8 35,8 C34.448,8 34,8.448 34,9 C34,9.552 34.448,10 35,10" id="Fill-2150" fill="#B5A896" sketch:type="MSShapeGroup"></path>
            <path d="M33,10 C32.448,10 32,10.448 32,11 C32,11.552 32.448,12 33,12 C33.552,12 34,11.552 34,11 C34,10.448 33.552,10 33,10" id="Fill-2151" fill="#B5A896" sketch:type="MSShapeGroup"></path>
            <path d="M29,10 C28.448,10 28,10.448 28,11 C28,11.552 28.448,12 29,12 C29.552,12 30,11.552 30,11 C30,10.448 29.552,10 29,10" id="Fill-2152" fill="#B5A896" sketch:type="MSShapeGroup"></path>
            <path d="M31,12 C30.448,12 30,12.448 30,13 C30,13.552 30.448,14 31,14 C31.552,14 32,13.552 32,13 C32,12.448 31.552,12 31,12" id="Fill-2153" fill="#B5A896" sketch:type="MSShapeGroup"></path>
            <path d="M35,12 C34.448,12 34,12.448 34,13 C34,13.552 34.448,14 35,14 C35.552,14 36,13.552 36,13 C36,12.448 35.552,12 35,12" id="Fill-2154" fill="#B5A896" sketch:type="MSShapeGroup"></path>
            <path d="M25,10 C24.448,10 24,10.448 24,11 C24,11.552 24.448,12 25,12 C25.552,12 26,11.552 26,11 C26,10.448 25.552,10 25,10" id="Fill-2155" fill="#B5A896" sketch:type="MSShapeGroup"></path>
            <path d="M21,12 C21.552,12 22,11.552 22,11 C22,10.448 21.552,10 21,10 C20.448,10 20,10.448 20,11 C20,11.552 20.448,12 21,12" id="Fill-2156" fill="#B5A896" sketch:type="MSShapeGroup"></path>
            <path d="M19,14 C19.552,14 20,13.552 20,13 C20,12.448 19.552,12 19,12 C18.448,12 18,12.448 18,13 C18,13.552 18.448,14 19,14" id="Fill-2157" fill="#B5A896" sketch:type="MSShapeGroup"></path>
            <path d="M21,14 C20.448,14 20,14.448 20,15 C20,15.552 20.448,16 21,16 C21.552,16 22,15.552 22,15 C22,14.448 21.552,14 21,14" id="Fill-2158" fill="#B5A896" sketch:type="MSShapeGroup"></path>
            <path d="M19,16 C18.448,16 18,16.448 18,17 C18,17.552 18.448,18 19,18 C19.552,18 20,17.552 20,17 C20,16.448 19.552,16 19,16" id="Fill-2159" fill="#B5A896" sketch:type="MSShapeGroup"></path>
            <path d="M23,12 C22.448,12 22,12.448 22,13 C22,13.552 22.448,14 23,14 C23.552,14 24,13.552 24,13 C24,12.448 23.552,12 23,12" id="Fill-2160" fill="#B5A896" sketch:type="MSShapeGroup"></path>
            <path d="M27,12 C26.448,12 26,12.448 26,13 C26,13.552 26.448,14 27,14 C27.552,14 28,13.552 28,13 C28,12.448 27.552,12 27,12" id="Fill-2161" fill="#B5A896" sketch:type="MSShapeGroup"></path>
            <path d="M39.725,25.192 C38.985,25.448 38.365,25.762 37.741,26.249 C36.252,27.411 35.245,27.284 33.594,26.535 C32.131,25.872 30.794,26.63 29.87,27.771 C29.178,28.626 28.259,30.214 28.217,31.524 C27.713,30.89 27.037,30.378 26.208,30.063 C25,29.603 24.483,31.537 25.676,31.991 C26.676,32.371 27.379,33.531 27.218,34.598 C27.136,35.136 27.344,35.671 27.916,35.828 C28.394,35.959 29.064,35.669 29.146,35.129 C29.218,34.653 29.208,34.188 29.148,33.739 C29.876,34.49 30.902,34.876 32.047,35.278 C34.364,36.093 37.269,36.157 39.075,34.78 C39.89,34.158 40.739,33.564 41.719,33.267 C42.74,32.957 43.525,31.915 43.357,30.437 C44.598,28.079 42.948,24.077 39.725,25.192" id="Fill-2704" fill="#FFFFFF" sketch:type="MSShapeGroup"></path>
        </g>
    </g>
</svg>