<?xml version="1.0" encoding="UTF-8" standalone="no"?>
<svg width="57px" height="58px" viewBox="0 0 57 58" version="1.1" xmlns="http://www.w3.org/2000/svg" xmlns:xlink="http://www.w3.org/1999/xlink" xmlns:sketch="http://www.bohemiancoding.com/sketch/ns">
    <!-- Generator: Sketch 3.2.2 (9983) - http://www.bohemiancoding.com/sketch -->
    <title>118 - Thermometer (Flat)</title>
    <desc>Created with Sketch.</desc>
    <defs></defs>
    <g id="Page-1" stroke="none" stroke-width="1" fill="none" fill-rule="evenodd" sketch:type="MSPage">
        <g id="118---Thermometer-(Flat)" sketch:type="MSLayerGroup">
            <path d="M55.959,51.547 L50.315,45.902 C49.618,45.205 49.618,44.075 50.315,43.378 C51.012,42.682 51.012,41.552 50.315,40.855 L46.829,37.368 L44.305,39.892 C44.11,40.087 43.854,40.185 43.598,40.185 C43.342,40.185 43.086,40.087 42.891,39.892 C42.5,39.501 42.5,38.868 42.891,38.478 L45.415,35.954 L40.94,31.479 L38.416,34.003 C38.221,34.198 37.965,34.296 37.709,34.296 C37.453,34.296 37.197,34.198 37.002,34.003 C36.611,33.612 36.611,32.979 37.002,32.589 L39.526,30.065 L34.21,24.749 L31.686,27.273 C31.491,27.469 31.235,27.566 30.979,27.566 C30.723,27.566 30.467,27.469 30.272,27.273 C29.881,26.883 29.881,26.25 30.272,25.859 L32.796,23.335 L27.48,18.02 L24.956,20.543 C24.761,20.738 24.505,20.836 24.249,20.836 C23.993,20.836 23.737,20.738 23.542,20.543 C23.151,20.152 23.151,19.52 23.542,19.129 L26.066,16.605 L20.75,11.289 L18.226,13.812 C18.031,14.008 17.775,14.106 17.519,14.106 C17.263,14.106 17.007,14.008 16.812,13.812 C16.421,13.422 16.421,12.789 16.812,12.398 L19.336,9.875 L11.594,2.133 C9.981,0.52 7.366,0.52 5.752,2.133 L1.522,6.363 C-0.091,7.976 -0.091,10.591 1.522,12.204 L9.265,19.947 L11.764,17.446 C12.154,17.056 12.788,17.056 13.178,17.446 C13.569,17.837 13.569,18.47 13.178,18.86 L10.679,21.361 L15.994,26.677 L18.495,24.177 C18.885,23.786 19.518,23.786 19.909,24.177 C20.299,24.567 20.299,25.2 19.909,25.591 L17.409,28.091 L22.725,33.407 L25.225,30.906 C25.615,30.516 26.248,30.516 26.639,30.906 C27.029,31.297 27.029,31.93 26.639,32.32 L24.139,34.821 L29.454,40.136 L31.955,37.637 C32.345,37.246 32.978,37.246 33.369,37.637 C33.759,38.027 33.759,38.66 33.369,39.051 L30.868,41.551 L35.343,46.025 L37.843,43.525 C38.234,43.135 38.867,43.135 39.257,43.525 C39.648,43.916 39.648,44.549 39.257,44.94 L36.757,47.439 L40.244,50.926 C40.941,51.623 42.071,51.623 42.768,50.926 C43.465,50.229 44.595,50.229 45.292,50.926 L50.936,56.57 C52.323,57.958 54.572,57.958 55.959,56.57 C57.347,55.183 57.347,52.934 55.959,51.547" id="Fill-143" fill="#A2C9ED" sketch:type="MSShapeGroup"></path>
            <path d="M37.002,32.589 C36.611,32.979 36.611,33.612 37.002,34.003 C37.197,34.198 37.453,34.296 37.709,34.296 C37.965,34.296 38.221,34.198 38.416,34.003 L40.94,31.479 L39.526,30.065 L37.002,32.589" id="Fill-144" fill="#E8EDEE" sketch:type="MSShapeGroup"></path>
            <path d="M30.272,27.273 C30.467,27.469 30.723,27.566 30.979,27.566 C31.235,27.566 31.491,27.469 31.686,27.273 L34.21,24.749 L32.796,23.335 L30.272,25.859 C29.881,26.25 29.881,26.883 30.272,27.273" id="Fill-145" fill="#E8EDEE" sketch:type="MSShapeGroup"></path>
            <path d="M23.542,19.129 C23.151,19.52 23.151,20.152 23.542,20.543 C23.737,20.738 23.993,20.836 24.249,20.836 C24.505,20.836 24.761,20.738 24.956,20.543 L27.48,18.02 L26.066,16.605 L23.542,19.129" id="Fill-146" fill="#E8EDEE" sketch:type="MSShapeGroup"></path>
            <path d="M16.812,13.812 C17.007,14.008 17.263,14.106 17.519,14.106 C17.775,14.106 18.031,14.008 18.226,13.812 L20.75,11.289 L19.336,9.875 L16.812,12.398 C16.421,12.789 16.421,13.422 16.812,13.812" id="Fill-147" fill="#E8EDEE" sketch:type="MSShapeGroup"></path>
            <path d="M33.369,37.637 C32.978,37.246 32.345,37.246 31.955,37.637 L29.454,40.136 L30.868,41.551 L33.369,39.051 C33.759,38.66 33.759,38.027 33.369,37.637" id="Fill-148" fill="#E8EDEE" sketch:type="MSShapeGroup"></path>
            <path d="M26.639,30.906 C26.248,30.516 25.615,30.516 25.225,30.906 L22.725,33.407 L24.139,34.821 L26.639,32.32 C27.029,31.93 27.029,31.297 26.639,30.906" id="Fill-149" fill="#E8EDEE" sketch:type="MSShapeGroup"></path>
            <path d="M42.891,38.478 C42.5,38.868 42.5,39.501 42.891,39.892 C43.086,40.087 43.342,40.185 43.598,40.185 C43.854,40.185 44.11,40.087 44.305,39.892 L46.829,37.368 L45.415,35.954 L42.891,38.478" id="Fill-150" fill="#E8EDEE" sketch:type="MSShapeGroup"></path>
            <path d="M39.257,43.525 C38.867,43.135 38.234,43.135 37.843,43.525 L35.343,46.025 L36.757,47.439 L39.257,44.94 C39.648,44.549 39.648,43.916 39.257,43.525" id="Fill-151" fill="#E8EDEE" sketch:type="MSShapeGroup"></path>
            <path d="M19.909,24.177 C19.518,23.786 18.885,23.786 18.495,24.177 L15.994,26.677 L17.409,28.091 L19.909,25.591 C20.299,25.2 20.299,24.567 19.909,24.177" id="Fill-152" fill="#E8EDEE" sketch:type="MSShapeGroup"></path>
            <path d="M13.178,17.446 C12.788,17.056 12.154,17.056 11.764,17.446 L9.265,19.947 L10.679,21.361 L13.178,18.86 C13.569,18.47 13.569,17.837 13.178,17.446" id="Fill-153" fill="#E8EDEE" sketch:type="MSShapeGroup"></path>
            <path d="M6.149,5.784 C6.405,5.784 6.661,5.882 6.856,6.077 L27.743,26.964 C28.134,27.354 28.134,27.987 27.743,28.378 C27.353,28.768 26.72,28.768 26.329,28.378 L5.442,7.491 C5.052,7.101 5.052,6.468 5.442,6.077 C5.638,5.882 5.894,5.784 6.149,5.784" id="Fill-797" fill="#7383BF" sketch:type="MSShapeGroup"></path>
            <path d="M34.32,33.54 L34.32,33.54 L23.989,23.21 C23.794,23.015 23.538,22.917 23.282,22.917 C23.026,22.917 22.77,23.015 22.575,23.21 C22.185,23.6 22.185,24.233 22.575,24.623 L32.875,34.924 C32.485,34.533 32.486,33.901 32.876,33.511 C33.071,33.315 33.327,33.218 33.583,33.218 C33.839,33.218 34.095,33.315 34.29,33.511 L34.32,33.54" id="Fill-2395" fill="#DD342E" sketch:type="MSShapeGroup"></path>
            <path d="M33.183,32.817 C32.927,32.817 32.671,32.915 32.476,33.11 C32.085,33.501 32.085,34.133 32.475,34.523 L40.775,42.823 C41.165,43.214 41.798,43.214 42.189,42.823 C42.579,42.433 42.579,41.801 42.19,41.41 L33.89,33.11 C33.694,32.915 33.438,32.817 33.183,32.817" id="Fill-2396" fill="#3E465B" sketch:type="MSShapeGroup"></path>
            <path d="M55.959,51.547 L52.843,48.429 L47.819,53.453 L50.936,56.57 C52.323,57.958 54.572,57.958 55.959,56.57 C57.347,55.183 57.347,52.934 55.959,51.547" id="Fill-2397" fill="#7383BF" sketch:type="MSShapeGroup"></path>
            <path d="M48.657,52.615 L53.635,57.593 C54.454,57.55 55.258,57.231 55.895,56.623 L50.272,51 L48.657,52.615" id="Fill-2398" fill="#CADAEB" sketch:type="MSShapeGroup"></path>
        </g>
    </g>
</svg>