<?xml version="1.0" encoding="UTF-8" standalone="no"?>
<svg width="58px" height="59px" viewBox="0 0 58 59" version="1.1" xmlns="http://www.w3.org/2000/svg" xmlns:xlink="http://www.w3.org/1999/xlink" xmlns:sketch="http://www.bohemiancoding.com/sketch/ns">
    <!-- Generator: Sketch 3.2.2 (9983) - http://www.bohemiancoding.com/sketch -->
    <title>130 - Toothbrush (Flat)</title>
    <desc>Created with Sketch.</desc>
    <defs></defs>
    <g id="Page-1" stroke="none" stroke-width="1" fill="none" fill-rule="evenodd" sketch:type="MSPage">
        <g id="130---Toothbrush-(Flat)" sketch:type="MSLayerGroup">
            <path d="M56.116,7.117 L45.51,17.723 L40.56,12.773 L51.167,2.167 L56.116,7.117" id="Fill-287" fill="#FFFFFF" sketch:type="MSShapeGroup"></path>
            <path d="M57.041,7.497 C57.141,7.253 57.141,6.98 57.041,6.737 C56.991,6.616 56.918,6.504 56.824,6.41 L51.167,0.752 C50.776,0.362 50.143,0.362 49.752,0.752 C49.362,1.143 49.362,1.776 49.752,2.167 L49.045,2.874 C48.654,2.483 48.022,2.484 47.631,2.874 C47.241,3.265 47.241,3.897 47.631,4.288 L46.924,4.995 C46.533,4.604 45.9,4.604 45.51,4.995 C45.119,5.386 45.119,6.019 45.51,6.409 L44.803,7.117 C44.412,6.726 43.779,6.726 43.389,7.117 C42.998,7.507 42.998,8.14 43.389,8.531 L42.681,9.238 C42.29,8.847 41.658,8.847 41.267,9.238 C40.876,9.628 40.876,10.261 41.267,10.652 L40.56,11.359 C40.169,10.969 39.537,10.969 39.146,11.359 C38.755,11.75 38.755,12.383 39.146,12.773 L44.803,18.43 C44.998,18.625 45.254,18.723 45.51,18.723 C45.766,18.723 46.021,18.625 46.217,18.43 L52.58,12.067 C52.581,12.067 52.581,12.067 52.581,12.066 L56.824,7.824 C56.918,7.729 56.991,7.618 57.041,7.497 L57.041,7.497 Z M54.703,7.117 L53.995,7.824 L50.459,4.288 L51.167,3.581 L54.703,7.117 L54.703,7.117 Z M49.045,5.702 L52.581,9.238 L51.874,9.945 L48.338,6.409 L49.045,5.702 L49.045,5.702 Z M50.46,11.359 L49.753,12.067 L46.217,8.531 L46.924,7.823 L50.46,11.359 L50.46,11.359 Z M44.803,9.945 L48.338,13.48 L47.631,14.188 L44.095,10.652 L44.803,9.945 L44.803,9.945 Z M41.974,12.773 L42.681,12.066 L46.217,15.602 L45.51,16.309 L41.974,12.773 L41.974,12.773 Z" id="Fill-690" fill="#E8EDEE" sketch:type="MSShapeGroup"></path>
            <path d="M35.824,28.409 C35.568,28.409 35.313,28.311 35.117,28.116 C34.727,27.725 34.727,27.092 35.117,26.702 L55.786,6.033 C56.177,5.642 56.81,5.642 57.2,6.033 C57.591,6.423 57.591,7.056 57.2,7.447 L36.531,28.116 C36.336,28.311 36.08,28.409 35.824,28.409" id="Fill-2440" fill="#A485BE" sketch:type="MSShapeGroup"></path>
            <path d="M1.675,52.746 L32.528,21.894 C33.075,21.347 33.865,21.12 34.618,21.294 L39.56,22.435 C40.547,22.662 40.897,23.886 40.182,24.601 L6.856,57.927 C5.426,59.358 3.106,59.358 1.675,57.927 C0.245,56.496 0.245,54.177 1.675,52.746" id="Fill-2441" fill="#A485BE" sketch:type="MSShapeGroup"></path>
            <path d="M8.799,56.985 C8.419,56.985 8.056,56.767 7.889,56.398 L4.651,49.274 C4.422,48.772 4.645,48.179 5.147,47.951 C5.648,47.722 6.242,47.944 6.471,48.447 L9.709,55.571 C9.937,56.073 9.715,56.666 9.212,56.895 C9.079,56.956 8.938,56.985 8.799,56.985" id="Fill-2442" fill="#3E465B" sketch:type="MSShapeGroup"></path>
            <path d="M12.685,53.099 C12.305,53.099 11.942,52.881 11.774,52.513 L8.536,45.39 C8.308,44.887 8.53,44.294 9.032,44.065 C9.533,43.836 10.128,44.059 10.356,44.562 L13.595,51.685 C13.823,52.187 13.601,52.78 13.099,53.009 C12.964,53.07 12.824,53.099 12.685,53.099" id="Fill-2443" fill="#3E465B" sketch:type="MSShapeGroup"></path>
            <path d="M16.57,49.214 C16.19,49.214 15.827,48.996 15.66,48.627 L12.422,41.503 C12.193,41.001 12.416,40.408 12.918,40.18 C13.419,39.951 14.013,40.172 14.242,40.676 L17.48,47.8 C17.708,48.302 17.486,48.895 16.983,49.124 C16.85,49.185 16.709,49.214 16.57,49.214" id="Fill-2444" fill="#3E465B" sketch:type="MSShapeGroup"></path>
        </g>
    </g>
</svg>