<?xml version="1.0" encoding="UTF-8" standalone="no"?>
<svg width="37px" height="58px" viewBox="0 0 37 58" version="1.1" xmlns="http://www.w3.org/2000/svg" xmlns:xlink="http://www.w3.org/1999/xlink" xmlns:sketch="http://www.bohemiancoding.com/sketch/ns">
    <!-- Generator: Sketch 3.2.2 (9983) - http://www.bohemiancoding.com/sketch -->
    <title>126 - Tooth Grapple (Flat)</title>
    <desc>Created with Sketch.</desc>
    <defs></defs>
    <g id="Page-1" stroke="none" stroke-width="1" fill="none" fill-rule="evenodd" sketch:type="MSPage">
        <g id="126---Tooth-Grapple-(Flat)" sketch:type="MSLayerGroup">
            <path d="M14.979,7.324 C16.417,7.324 17.946,7.524 19.79,7.954 C20.064,8.018 20.345,8.05 20.625,8.05 C22.308,8.05 23.767,6.908 24.176,5.264 C24.415,4.3 24.262,3.303 23.743,2.457 C23.231,1.62 22.425,1.038 21.474,0.816 C19.077,0.259 17.015,0 14.985,0 C10.246,0 5.955,1.437 1.869,4.393 C1.019,5.008 0.466,5.957 0.354,6.998 C0.244,8.027 0.575,9.059 1.264,9.828 C1.965,10.611 2.967,11.06 4.012,11.06 C4.771,11.06 5.493,10.826 6.099,10.383 C8.917,8.325 11.822,7.324 14.979,7.324" id="Fill-703" fill="#E8EDEE" sketch:type="MSShapeGroup"></path>
            <path d="M29.979,18.299 L28.687,16.489 L28.19,18.656 C27.828,20.237 26.727,21.57 25.243,22.224 L24.283,22.647 L24.752,23.586 C26.865,27.812 29.421,38.437 29.67,54.474 C29.701,56.418 31.312,58 33.263,58 L33.402,58 C34.378,58 35.292,57.618 35.974,56.923 C36.652,56.232 37.017,55.319 37,54.351 C36.887,48.044 36.049,26.806 29.979,18.299" id="Fill-704" fill="#E8EDEE" sketch:type="MSShapeGroup"></path>
            <path d="M19.809,18.656 L19.636,17.902 C20.967,16.992 22.295,15.944 23.595,14.764 C24.325,14.102 24.752,13.153 24.767,12.161 C24.782,11.161 24.378,10.19 23.659,9.497 L23.572,9.414 C22.253,8.142 20.008,8.122 18.637,9.359 C14.257,13.312 10.088,14.962 8.196,14.696 C7.109,14.541 6.046,14.866 5.349,15.589 L5.108,15.839 C4.154,16.831 3.845,18.259 4.301,19.566 C4.745,20.837 5.839,21.735 7.158,21.911 C7.603,21.97 8.069,22 8.544,22 C11.23,22 14.269,21.053 17.361,19.315 C11.892,28.384 11.109,48.281 11,54.351 C10.983,55.319 11.348,56.232 12.026,56.923 C12.708,57.618 13.622,58 14.597,58 L14.737,58 C16.687,58 18.299,56.418 18.33,54.474 C18.579,38.435 21.135,27.811 23.248,23.586 L23.718,22.647 L22.757,22.224 C21.274,21.57 20.172,20.237 19.809,18.656" id="Fill-705" fill="#E8EDEE" sketch:type="MSShapeGroup"></path>
            <path d="M21.862,0.492 L20.954,0.232 C20.525,0.11 20.066,0.286 19.831,0.665 C19.594,1.043 19.637,1.532 19.935,1.863 C20.023,1.96 20.102,2.077 20.172,2.211 C20.308,2.471 20.55,2.659 20.836,2.724 L21.021,2.765 C21.446,2.863 21.807,3.125 22.038,3.501 C22.274,3.887 22.344,4.342 22.232,4.79 C22.06,5.485 21.457,5.985 20.732,6.034 C20.44,6.053 20.17,6.201 19.996,6.437 C19.821,6.673 19.759,6.974 19.826,7.259 C19.989,7.955 20.118,8.72 20.208,9.534 C20.263,10.023 20.666,10.4 21.159,10.422 C21.352,10.43 21.533,10.47 21.654,10.518 C21.675,10.53 21.743,10.565 21.764,10.575 C21.828,10.605 21.892,10.632 21.953,10.671 C22.034,10.724 22.112,10.785 22.185,10.856 L22.273,10.938 C22.515,11.172 22.676,11.47 22.739,11.8 C22.799,12.12 22.762,12.457 22.634,12.75 C22.546,12.953 22.417,13.132 22.252,13.283 C19.674,15.62 18.551,17.932 18.911,20.152 C19.204,21.956 20.423,23.21 21.528,23.84 C21.628,24.016 21.775,24.203 21.985,24.398 C22.17,24.571 22.414,24.667 22.667,24.667 C26.75,24.667 30.333,21.318 30.333,17.5 L30.333,11.723 C30.333,6.536 26.85,1.917 21.862,0.492" id="Fill-706" fill="#B0B6BB" sketch:type="MSShapeGroup"></path>
        </g>
    </g>
</svg>