<?xml version="1.0" encoding="UTF-8" standalone="no"?>
<svg width="52px" height="56px" viewBox="0 0 52 56" version="1.1" xmlns="http://www.w3.org/2000/svg" xmlns:xlink="http://www.w3.org/1999/xlink" xmlns:sketch="http://www.bohemiancoding.com/sketch/ns">
    <!-- Generator: Sketch 3.2.2 (9983) - http://www.bohemiancoding.com/sketch -->
    <title>123 - Tweezer (Flat)</title>
    <desc>Created with Sketch.</desc>
    <defs></defs>
    <g id="Page-1" stroke="none" stroke-width="1" fill="none" fill-rule="evenodd" sketch:type="MSPage">
        <g id="123---Tweezer-(Flat)" sketch:type="MSLayerGroup" transform="translate(0.000000, -1.000000)">
            <path d="M45.019,3.417 C45.254,1.722 47.22,0.824 48.873,1.266 C50.607,1.73 51.688,3.568 51.096,5.262 C38.287,41.932 5.659,56.557 5.564,56.627 C4.156,57.668 42.423,22.152 45.019,3.417" id="Fill-718" fill="#E8EDEE" sketch:type="MSShapeGroup"></path>
            <path d="M50.568,2.392 C50.606,2.44 50.639,2.492 50.674,2.543 C50.642,2.49 50.603,2.442 50.568,2.392" id="Fill-719" fill="#B0B6BB" sketch:type="MSShapeGroup"></path>
            <path d="M43.211,9.543 C44.12,7.369 44.758,5.305 45.019,3.417 C45.254,1.722 47.22,0.824 48.873,1.266 C49.508,1.436 50.053,1.793 50.462,2.256 C49.602,1.147 48.084,0.653 46.756,1.266 C11.492,17.551 0.08,51.436 0.019,51.537 C-0.79,52.887 24.686,19.517 43.211,9.543" id="Fill-720" fill="#B0B6BB" sketch:type="MSShapeGroup"></path>
        </g>
    </g>
</svg>