<?xml version="1.0" encoding="UTF-8" standalone="no"?>
<svg width="58px" height="42px" viewBox="0 0 58 42" version="1.1" xmlns="http://www.w3.org/2000/svg" xmlns:xlink="http://www.w3.org/1999/xlink" xmlns:sketch="http://www.bohemiancoding.com/sketch/ns">
    <!-- Generator: Sketch 3.2.2 (9983) - http://www.bohemiancoding.com/sketch -->
    <title>35 - Upper Central Incisor (Flat)</title>
    <desc>Created with Sketch.</desc>
    <defs></defs>
    <g id="Page-1" stroke="none" stroke-width="1" fill="none" fill-rule="evenodd" sketch:type="MSPage">
        <g id="35---Upper-Central-Incisor-(Flat)" sketch:type="MSLayerGroup">
            <path d="M15.009,8 C22.995,8 24.994,8.314 27.087,14.912 C28.612,19.721 28.955,25.745 29,30.814 C29.021,33.247 26.887,38.09 24.023,39.995 C19.279,43.152 12.8,42.079 7.405,40.204 C3.946,39.003 0.725,35.605 1.019,30.814 C1.343,25.512 2.619,18.863 4.096,13.75 C5.545,8.736 10.435,8 15.009,8" id="Fill-1586" fill="#E8EDEE" sketch:type="MSShapeGroup"></path>
            <path d="M16.679,40 C14.514,40 11.946,39.489 9.046,38.481 C8.714,38.366 5.817,37.267 6.009,34.118 C6.292,29.506 7.427,23.233 8.901,18.139 C9.131,17.339 9.518,16 15.009,16 C16.927,16 20.137,16 20.975,16.43 C20.98,16.433 21.458,16.705 22.322,19.424 C23.395,22.81 23.945,27.53 24,33.857 C23.95,34.976 22.517,37.992 21.254,38.832 C20.074,39.618 18.576,40 16.679,40" id="Fill-1587" fill="#F0F7F8" sketch:type="MSShapeGroup"></path>
            <path d="M42.991,8 C35.005,8 33.006,8.314 30.913,14.912 C29.388,19.721 29.044,25.745 29,30.814 C28.979,33.247 31.113,38.09 33.977,39.995 C38.721,43.152 45.2,42.079 50.595,40.204 C54.054,39.003 57.275,35.605 56.981,30.814 C56.657,25.512 55.381,18.863 53.904,13.75 C52.454,8.736 47.565,8 42.991,8" id="Fill-1588" fill="#E8EDEE" sketch:type="MSShapeGroup"></path>
            <path d="M48.939,0 L9.061,0 C4.057,0 0,4.057 0,9.061 L0,18.806 C0,20.018 0.982,21 2.194,21 L2.362,21 C2.865,18.453 3.458,15.957 4.096,13.75 C5.545,8.736 10.435,8 15.009,8 C22.995,8 24.994,8.314 27.087,14.912 C27.685,16.798 28.097,18.872 28.385,21 L29.615,21 C29.903,18.872 30.315,16.798 30.913,14.912 C33.006,8.314 35.005,8 42.991,8 C47.565,8 52.454,8.736 53.904,13.75 C54.542,15.957 55.135,18.453 55.638,21 L55.806,21 C57.018,21 58,20.018 58,18.806 L58,9.061 C58,4.057 53.943,0 48.939,0" id="Fill-1591" fill="#ED9893" sketch:type="MSShapeGroup"></path>
            <path d="M7.661,36.208 C5.185,33.48 4.403,29.846 5.455,26.328 C5.826,25.089 3.896,24.564 3.527,25.796 C2.267,30.006 3.302,34.377 6.247,37.622 C7.116,38.579 8.526,37.161 7.661,36.208" id="Fill-2633" fill="#FFFFFF" sketch:type="MSShapeGroup"></path>
            <path d="M25.538,31.126 C25.534,31.115 25.531,31.104 25.527,31.094 C23.761,33.472 21.144,35.054 18.184,35.3 C17.578,36.528 17.106,37.706 16.947,38.74 C16.831,39.498 17.376,40.149 18.177,39.97 C22.124,39.092 27.741,36.907 26.202,31.775 C26.09,31.401 25.83,31.205 25.538,31.126" id="Fill-2634" fill="#FFFFFF" sketch:type="MSShapeGroup"></path>
            <path d="M44.679,40 C42.514,40 39.945,39.489 37.046,38.481 C36.714,38.366 33.816,37.267 34.009,34.118 C34.292,29.506 35.427,23.233 36.9,18.139 C37.131,17.339 37.518,16 43.009,16 C44.927,16 48.137,16 48.975,16.43 C48.979,16.433 49.458,16.705 50.321,19.424 C51.394,22.81 51.944,27.53 52,33.857 C51.949,34.976 50.517,37.992 49.254,38.832 C48.073,39.618 46.576,40 44.679,40" id="Fill-2662" fill="#F0F7F8" sketch:type="MSShapeGroup"></path>
            <path d="M36.199,36.208 C33.723,33.48 32.94,29.846 33.993,26.328 C34.364,25.089 32.433,24.564 32.065,25.796 C30.805,30.006 31.839,34.377 34.785,37.622 C35.654,38.579 37.064,37.161 36.199,36.208" id="Fill-2663" fill="#FFFFFF" sketch:type="MSShapeGroup"></path>
            <path d="M54.076,31.126 C54.071,31.115 54.069,31.104 54.065,31.094 C52.299,33.472 49.682,35.054 46.722,35.3 C46.115,36.528 45.643,37.706 45.485,38.74 C45.369,39.498 45.914,40.149 46.715,39.97 C50.661,39.092 56.279,36.907 54.739,31.775 C54.627,31.401 54.367,31.205 54.076,31.126" id="Fill-2664" fill="#FFFFFF" sketch:type="MSShapeGroup"></path>
        </g>
    </g>
</svg>