<?xml version="1.0" encoding="UTF-8" standalone="no"?>
<svg width="58px" height="41px" viewBox="0 0 58 41" version="1.1" xmlns="http://www.w3.org/2000/svg" xmlns:xlink="http://www.w3.org/1999/xlink" xmlns:sketch="http://www.bohemiancoding.com/sketch/ns">
    <!-- Generator: Sketch 3.2.2 (9983) - http://www.bohemiancoding.com/sketch -->
    <title>37 - Upper Central Incisors (Flat)</title>
    <desc>Created with Sketch.</desc>
    <defs></defs>
    <g id="Page-1" stroke="none" stroke-width="1" fill="none" fill-rule="evenodd" sketch:type="MSPage">
        <g id="37---Upper-Central-Incisors-(Flat)" sketch:type="MSLayerGroup">
            <path d="M17.001,8 C23.85,8 25.565,8.327 27.359,15.191 C28.667,20.194 28.962,30.727 29,36 C29.029,40.041 24.171,39.756 20.25,40.113 C17.897,40.327 16.645,40.301 14.304,40.127 C10.209,39.821 4.889,39.692 5.002,36 C5.17,30.478 6.374,19.301 7.641,13.982 C8.884,8.766 13.078,8 17.001,8" id="Fill-1597" fill="#E8EDEE" sketch:type="MSShapeGroup"></path>
            <path d="M40.999,8 C34.15,8 32.435,8.327 30.641,15.191 C29.332,20.194 29.038,30.727 29,36 C28.971,40.041 33.829,39.756 37.75,40.113 C40.103,40.327 41.355,40.301 43.696,40.127 C47.791,39.821 53.111,39.692 52.998,36 C52.83,30.478 51.626,19.301 50.359,13.982 C49.116,8.766 44.922,8 40.999,8" id="Fill-1598" fill="#E8EDEE" sketch:type="MSShapeGroup"></path>
            <path id="Stroke-1599" stroke="#0F81E0" stroke-width="2" sketch:type="MSShapeGroup"></path>
            <path d="M48.939,0 L9.061,0 C4.057,0 0,4.057 0,9.061 L0,16.62 C0,19.039 1.961,21 4.38,21 L6.207,21 C6.634,18.533 7.13,16.127 7.641,13.982 C8.884,8.765 13.078,8 17.001,8 C23.85,8 25.565,8.327 27.359,15.191 C27.832,16.997 28.168,18.971 28.412,21 L29.588,21 C29.832,18.971 30.168,16.997 30.641,15.191 C32.435,8.327 34.15,8 40.999,8 C44.922,8 49.116,8.765 50.359,13.982 C50.87,16.127 51.366,18.533 51.793,21 L53.62,21 C56.039,21 58,19.039 58,16.62 L58,9.061 C58,4.057 53.943,0 48.939,0" id="Fill-1600" fill="#ED9893" sketch:type="MSShapeGroup"></path>
            <path d="M24.832,36.491 C24.544,36.522 24.256,36.544 23.968,36.571 C23.846,30.148 23.418,22.884 22.522,19.456 C21.935,17.213 21.532,16.472 21.381,16.252 C20.628,16 18.104,16 17.001,16 C13.016,16 12.79,16.944 12.505,18.141 C11.517,22.289 10.502,30.8 10.129,36.555 C9.584,36.502 9.039,36.447 8.494,36.381 C7.215,36.226 7.23,38.228 8.494,38.381 C13.947,39.041 19.371,39.077 24.832,38.491 C26.101,38.355 26.114,36.353 24.832,36.491" id="Fill-2646" fill="#F0F7F8" sketch:type="MSShapeGroup"></path>
            <path d="M45.495,18.141 C45.209,16.944 44.984,16 40.999,16 C39.896,16 37.372,16 36.619,16.252 C36.468,16.472 36.064,17.213 35.478,19.456 C34.602,22.807 34.174,29.824 34.042,36.138 C33.611,36.136 33.18,36.134 32.75,36.132 C31.46,36.125 31.46,38.125 32.75,38.132 C34.674,38.141 36.598,38.151 38.522,38.161 C39.375,38.232 40.045,38.266 40.687,38.266 C41.379,38.266 42.118,38.23 43.323,38.141 L44.13,38.083 C45.153,38.01 46.817,37.893 47.938,37.679 C47.635,31.967 46.549,22.568 45.495,18.141" id="Fill-2647" fill="#F0F7F8" sketch:type="MSShapeGroup"></path>
            <path d="M19.359,38.725 C21.224,39.064 23.261,39.19 25.086,38.583 C26.424,38.139 27.345,36.727 26.838,35.348 C26.398,34.148 24.464,34.666 24.91,35.88 C25.479,37.43 20.595,36.924 19.891,36.796 C18.63,36.567 18.092,38.495 19.359,38.725" id="Fill-2648" fill="#FFFFFF" sketch:type="MSShapeGroup"></path>
            <path d="M50.082,34.466 C47.617,38.426 41.615,36.479 37.734,37.036 C36.462,37.218 37.005,39.145 38.266,38.964 C43.008,38.284 48.753,40.386 51.809,35.475 C52.493,34.377 50.762,33.374 50.082,34.466" id="Fill-2649" fill="#FFFFFF" sketch:type="MSShapeGroup"></path>
        </g>
    </g>
</svg>