<?xml version="1.0" encoding="UTF-8" standalone="no"?>
<svg width="58px" height="56px" viewBox="0 0 58 56" version="1.1" xmlns="http://www.w3.org/2000/svg" xmlns:xlink="http://www.w3.org/1999/xlink" xmlns:sketch="http://www.bohemiancoding.com/sketch/ns">
    <!-- Generator: Sketch 3.2.2 (9983) - http://www.bohemiancoding.com/sketch -->
    <title>51 - Uterus (Flat)</title>
    <desc>Created with Sketch.</desc>
    <defs></defs>
    <g id="Page-1" stroke="none" stroke-width="1" fill="none" fill-rule="evenodd" sketch:type="MSPage">
        <g id="51---Uterus-(Flat)" sketch:type="MSLayerGroup" transform="translate(0.000000, -1.000000)">
            <path d="M57.383,6.165 C55.72,2.964 51.788,2.115 49.012,3.966 L42.418,8.363 C41.595,8.912 40.627,9.135 39.681,9.033 L40,8.012 C40,7.506 39.765,7.035 39.381,6.706 C30.501,-0.904 27.376,-0.9 18.619,6.706 C18.237,7.038 18,7.506 18,8.012 L18.319,9.033 C17.373,9.135 16.405,8.912 15.582,8.363 L9.207,4.113 C6.927,2.593 3.386,2.847 1.528,4.86 C0.541,5.931 0,7.312 0,8.777 L0,11.689 C0,13.183 0.579,14.62 1.614,15.697 C2.06,16.161 2.537,16.587 3.032,16.986 C2.74,18.892 4.958,21.086 8.174,21.991 C10.932,22.768 13.56,22.353 14.723,21.098 C15.235,21.165 15.75,21.209 16.264,21.209 C18.084,21.209 19.897,20.793 21.544,19.983 L21.721,19.909 L22.709,23.071 C22.26,24.26 22,25.589 22,27 C22,29.331 22.373,31.572 23.409,33.207 C23.702,32.99 24.099,32.932 24.447,33.105 L26.447,34.105 C26.941,34.353 27.142,34.953 26.895,35.447 C26.719,35.798 26.366,36 25.999,36 C25.849,36 25.696,35.966 25.553,35.895 L23.891,35.063 C23.92,35.509 24,35.969 24,36.5 C24,37.722 24.261,38.863 24.713,39.839 C24.91,40.265 24.852,40.754 24.589,41.144 C24.217,41.698 24,42.326 24,43 C24,43.498 24.122,43.97 24.335,44.406 C24.519,44.784 24.519,45.217 24.335,45.594 C24.122,46.03 24,46.503 24,47 C24,47.498 24.122,47.97 24.335,48.407 C24.519,48.784 24.519,49.217 24.335,49.594 C24.122,50.03 24,50.502 24,51 L24,57 L34,57 L34,51 C34,50.502 33.878,50.03 33.665,49.594 C33.481,49.217 33.481,48.784 33.665,48.407 C33.878,47.97 34,47.498 34,47 C34,46.503 33.878,46.03 33.665,45.594 C33.481,45.217 33.481,44.784 33.665,44.406 C33.878,43.97 34,43.498 34,43 C34,42.326 33.783,41.698 33.411,41.144 C33.148,40.754 33.09,40.265 33.287,39.839 C33.739,38.863 34,37.722 34,36.5 C34,35.969 34.08,35.509 34.109,35.063 L32.447,35.895 C32.304,35.966 32.151,36 32.001,36 C31.634,36 31.281,35.798 31.105,35.447 C30.858,34.953 31.059,34.353 31.553,34.105 L33.553,33.105 C33.901,32.932 34.297,32.989 34.591,33.207 C35.627,31.572 36,29.331 36,27 C36,25.589 35.74,24.26 35.291,23.071 L36.279,19.91 L36.455,19.983 C38.103,20.793 39.915,21.209 41.735,21.209 C42.156,21.209 42.577,21.185 42.997,21.141 C43.041,21.276 43.095,21.407 43.165,21.533 C44.162,23.311 47.442,23.367 50.49,21.658 C52.49,20.537 53.888,18.935 54.335,17.463 C55.11,16.906 55.841,16.28 56.504,15.572 C57.485,14.525 58,13.123 58,11.689 L58,8.884 C58,7.944 57.817,6.999 57.383,6.165 L57.383,6.165 Z M19.947,16.315 C19.904,16.332 19.862,16.352 19.821,16.372 C18.196,17.185 16.324,17.416 14.553,17.022 L13.92,16.881 C13.003,16.038 11.703,15.315 10.175,14.884 C8.88,14.52 7.616,14.42 6.516,14.544 C5.789,14.081 5.102,13.553 4.496,12.922 C4.176,12.589 4,12.151 4,11.689 L4,8.777 C4,8.301 4.185,7.854 4.521,7.517 C5.12,6.919 6.066,6.824 6.769,7.294 L13.363,11.691 C15.208,12.921 17.424,13.318 19.523,12.883 L20.522,16.075 L19.947,16.315 L19.947,16.315 Z M54,11.689 C54,12.151 53.823,12.589 53.504,12.922 C53.1,13.342 52.662,13.719 52.203,14.066 C50.736,13.783 48.765,14.161 46.88,15.218 C46.1,15.655 45.412,16.166 44.835,16.713 L43.446,17.022 C41.676,17.416 39.804,17.185 38.179,16.372 C38.138,16.352 38.096,16.332 38.053,16.315 L37.478,16.076 L38.477,12.883 C40.576,13.318 42.792,12.921 44.637,11.691 L51.23,7.294 C51.934,6.824 52.88,6.919 53.479,7.517 C53.814,7.854 54,8.301 54,8.777 L54,11.689 L54,11.689 Z" id="Fill-193" fill="#ED9893" sketch:type="MSShapeGroup"></path>
            <path d="M37.889,8.062 C33.618,4.423 31.103,3 28.955,3 C26.784,3 24.375,4.375 20.11,8.061 L22.975,17.221 L22.954,17.229 C22.955,17.23 22.955,17.232 22.955,17.233 L22.977,17.224 L24.823,23.133 L24.58,23.778 C24.195,24.796 24,25.88 24,27 C24,29.631 24.513,31.587 25.482,32.657 L26.279,33.537 L25.889,34.657 C25.854,34.759 25.887,35.058 25.92,35.346 C25.961,35.707 26,36.087 26,36.5 C26,37.39 26.183,38.253 26.528,39 C27.017,40.057 26.912,41.275 26.249,42.259 C26.081,42.508 26,42.751 26,43 C26,43.174 26.043,43.347 26.133,43.53 C26.588,44.465 26.588,45.535 26.133,46.471 C26.043,46.653 26,46.826 26,47 C26,47.174 26.043,47.347 26.133,47.53 C26.588,48.465 26.588,49.535 26.133,50.471 C26.043,50.653 26,50.826 26,51 L26,55 L32,55 L32,51 C32,50.826 31.957,50.653 31.867,50.47 C31.412,49.535 31.412,48.465 31.867,47.529 C31.957,47.347 32,47.174 32,47 C32,46.826 31.957,46.653 31.867,46.47 C31.412,45.535 31.412,44.465 31.867,43.529 C31.957,43.347 32,43.174 32,43 C32,42.751 31.919,42.508 31.753,42.262 C31.088,41.275 30.983,40.057 31.473,38.998 C31.817,38.253 32,37.39 32,36.5 C32,36.087 32.039,35.707 32.08,35.346 C32.113,35.058 32.146,34.759 32.111,34.657 L31.721,33.537 L32.518,32.657 C33.487,31.587 34,29.631 34,27 C34,25.88 33.805,24.796 33.42,23.779 L33.175,23.134 L37.889,8.062" id="Fill-1976" fill="#F86363" sketch:type="MSShapeGroup"></path>
            <path d="M27.705,30.644 C27.677,30.611 27,29.832 27,27 C27,26.244 27.13,25.517 27.386,24.839 C27.781,23.794 27.814,22.646 27.481,21.58 L26.493,18.418 C26.284,17.75 25.941,17.143 25.492,16.626 C25.566,15.957 25.506,15.264 25.294,14.583 L24.296,11.391 C24.082,10.708 23.733,10.101 23.288,9.591 C23.3,9.487 23.309,9.384 23.313,9.279 C25.38,7.573 27.592,6 28.955,6 C30.333,6 32.582,7.581 34.688,9.296 C34.692,9.395 34.701,9.493 34.712,9.591 C34.267,10.101 33.918,10.707 33.704,11.391 L32.706,14.583 C32.494,15.264 32.434,15.957 32.508,16.626 C32.059,17.143 31.716,17.75 31.507,18.418 L30.519,21.58 C30.186,22.646 30.219,23.794 30.614,24.839 C30.87,25.517 31,26.244 31,27 C31,29.832 30.323,30.611 30.295,30.644 L27.705,30.644" id="Fill-1977" fill="#B34B4D" sketch:type="MSShapeGroup"></path>
            <path d="M25.999,36 C26.366,36 26.719,35.798 26.895,35.447 C27.142,34.953 26.941,34.353 26.447,34.105 L24.447,33.105 C24.099,32.932 23.702,32.99 23.409,33.207 C23.588,33.488 23.78,33.757 24,34 C23.874,34.362 23.867,34.708 23.891,35.063 L25.553,35.895 C25.696,35.966 25.849,36 25.999,36" id="Fill-2344" fill="#B34B4D" sketch:type="MSShapeGroup"></path>
            <path d="M33.553,33.105 L31.553,34.105 C31.059,34.353 30.858,34.953 31.105,35.447 C31.281,35.798 31.634,36 32.001,36 C32.151,36 32.304,35.966 32.447,35.895 L34.109,35.063 C34.133,34.708 34.126,34.362 34,34 C34.22,33.757 34.412,33.488 34.591,33.207 C34.297,32.989 33.901,32.932 33.553,33.105" id="Fill-2345" fill="#B34B4D" sketch:type="MSShapeGroup"></path>
        </g>
    </g>
</svg>