<?xml version="1.0" encoding="UTF-8" standalone="no"?>
<svg width="54px" height="54px" viewBox="0 0 54 54" version="1.1" xmlns="http://www.w3.org/2000/svg" xmlns:xlink="http://www.w3.org/1999/xlink" xmlns:sketch="http://www.bohemiancoding.com/sketch/ns">
    <!-- Generator: Sketch 3.2.2 (9983) - http://www.bohemiancoding.com/sketch -->
    <title>112 - Wheelchair (Flat)</title>
    <desc>Created with Sketch.</desc>
    <defs></defs>
    <g id="Page-1" stroke="none" stroke-width="1" fill="none" fill-rule="evenodd" sketch:type="MSPage">
        <g id="112---Wheelchair-(Flat)" sketch:type="MSLayerGroup" transform="translate(0.000000, 1.000000)">
            <path d="M2,0 L10,2 L13,20 M47,30 L47,45" id="Stroke-831" stroke="#3E465B" stroke-width="2" stroke-linecap="round" stroke-linejoin="round" sketch:type="MSShapeGroup"></path>
            <path d="M52.944,45 C52.944,48.314 50.258,51 46.944,51 C43.631,51 40.944,48.314 40.944,45 C40.944,41.686 43.631,39 46.944,39 C50.258,39 52.944,41.686 52.944,45 L52.944,45 Z" id="Fill-832" fill="#7383BF" sketch:type="MSShapeGroup"></path>
            <path d="M52.944,45 C52.944,48.314 50.258,51 46.944,51 C43.631,51 40.944,48.314 40.944,45 C40.944,41.686 43.631,39 46.944,39 C50.258,39 52.944,41.686 52.944,45 L52.944,45 Z" id="Stroke-833" stroke="#3E465B" stroke-width="2" sketch:type="MSShapeGroup"></path>
            <path d="M41.288,24 L27.163,24 C29.991,26.521 31.911,30.036 32.345,34 L47,34 L47,29.711 C47,26.557 44.443,24 41.288,24" id="Fill-834" fill="#87A09A" sketch:type="MSShapeGroup"></path>
            <path d="M31.347,30 C31.845,31.263 32.192,32.601 32.345,34 L47,34 L47,30 L31.347,30 L31.347,30 Z" id="Stroke-835" stroke="#3E465B" stroke-width="2" stroke-linecap="round" stroke-linejoin="round" sketch:type="MSShapeGroup"></path>
            <path d="M16.851,6 L11.571,6 L13.405,17 L26,17 L26,15.149 C26,10.096 21.904,6 16.851,6" id="Fill-836" fill="#87A09A" sketch:type="MSShapeGroup"></path>
            <path d="M16.722,51.444 C8.053,51.444 1,44.392 1,35.722 C1,27.052 8.053,20 16.722,20 C25.391,20 32.444,27.052 32.444,35.722 C32.444,44.392 25.391,51.444 16.722,51.444 L16.722,51.444 Z" id="Fill-2389" fill="#7383BF" sketch:type="MSShapeGroup"></path>
            <path d="M16.722,51.444 C8.053,51.444 1,44.392 1,35.722 C1,27.052 8.053,20 16.722,20 C25.391,20 32.444,27.052 32.444,35.722 C32.444,44.392 25.391,51.444 16.722,51.444 L16.722,51.444 Z" id="Stroke-2390" stroke="#3E465B" stroke-width="2" sketch:type="MSShapeGroup"></path>
            <path d="M31.444,35 L28.09,35 C27.925,32.401 26.889,30.039 25.267,28.198 L27.758,25.707 C28.148,25.316 28.148,24.684 27.758,24.293 C27.367,23.902 26.734,23.902 26.344,24.293 L23.821,26.815 C22.186,25.509 20.187,24.642 18,24.397 L18,21 C18,20.447 17.553,20 17,20 C16.447,20 16,20.447 16,21 L16,24.357 C13.36,24.524 10.966,25.589 9.114,27.255 L6.545,24.687 C6.154,24.296 5.521,24.296 5.131,24.687 C4.74,25.077 4.74,25.71 5.131,26.101 L7.746,28.716 C6.372,30.473 5.506,32.639 5.357,35 L1.444,35 C0.892,35 0.444,35.447 0.444,36 C0.444,36.553 0.892,37 1.444,37 L5.397,37 C5.642,39.187 6.509,41.186 7.815,42.821 L5.131,45.506 C4.74,45.896 4.74,46.529 5.131,46.92 C5.326,47.115 5.582,47.213 5.838,47.213 C6.094,47.213 6.35,47.115 6.545,46.92 L9.198,44.267 C11.038,45.889 13.4,46.923 16,47.087 L16,51 C16,51.553 16.447,52 17,52 C17.553,52 18,51.553 18,51 L18,47.048 C20.147,46.807 22.11,45.965 23.729,44.698 L26.344,47.313 C26.539,47.509 26.795,47.606 27.051,47.606 C27.307,47.606 27.563,47.509 27.758,47.313 C28.148,46.923 28.148,46.29 27.758,45.899 L25.19,43.331 C26.739,41.61 27.771,39.42 28.045,37 L31.444,37 C31.997,37 32.444,36.553 32.444,36 C32.444,35.447 31.997,35 31.444,35 L31.444,35 Z M16.723,45.124 C11.538,45.124 7.32,40.906 7.32,35.723 C7.32,30.538 11.538,26.32 16.723,26.32 C21.906,26.32 26.124,30.538 26.124,35.723 C26.124,40.906 21.906,45.124 16.723,45.124 L16.723,45.124 Z" id="Fill-2391" fill="#3E465B" sketch:type="MSShapeGroup"></path>
        </g>
    </g>
</svg>