<?xml version="1.0" encoding="UTF-8" standalone="no"?>
<svg width="44px" height="58px" viewBox="0 0 44 58" version="1.1" xmlns="http://www.w3.org/2000/svg" xmlns:xlink="http://www.w3.org/1999/xlink" xmlns:sketch="http://www.bohemiancoding.com/sketch/ns">
    <!-- Generator: Sketch 3.2.2 (9983) - http://www.bohemiancoding.com/sketch -->
    <title>69 - X-Ray (Flat)</title>
    <desc>Created with Sketch.</desc>
    <defs></defs>
    <g id="Page-1" stroke="none" stroke-width="1" fill="none" fill-rule="evenodd" sketch:type="MSPage">
        <g id="69---X-Ray-(Flat)" sketch:type="MSLayerGroup">
            <path d="M41.56,58 L2.44,58 C1.092,58 0,56.908 0,55.56 L0,2.44 C0,1.092 1.092,0 2.44,0 L41.56,0 C42.908,0 44,1.092 44,2.44 L44,55.56 C44,56.908 42.908,58 41.56,58" id="Fill-116" fill="#556080" sketch:type="MSShapeGroup"></path>
            <path d="M42.565,38.687 C40.662,35.778 36.762,34.477 33.741,34.477 C33.327,34.477 32.925,34.502 32.512,34.556 C33.43,33.648 34,32.39 34,31 L34,30.998 C34.981,30.26 35.683,29.169 35.916,27.916 C38.237,27.484 40,25.444 40,23 C40,22.289 39.851,21.612 39.582,21 C39.851,20.388 40,19.711 40,19 C40,16.556 38.237,14.516 35.916,14.084 C35.683,12.831 34.981,11.74 34,11.002 L34,11 C34,8.556 32.237,6.516 29.916,6.084 C29.59,4.33 28.345,2.895 26.702,2.298 C26.366,1.373 25.76,0.58 24.985,0 L19.015,0 C18.24,0.58 17.634,1.373 17.298,2.298 C15.655,2.895 14.41,4.33 14.084,6.084 C11.763,6.516 10,8.556 10,11 L10,11.002 C9.019,11.74 8.317,12.831 8.084,14.084 C5.763,14.516 4,16.556 4,19 C4,19.711 4.149,20.388 4.417,21 C4.149,21.612 4,22.289 4,23 C4,25.444 5.763,27.484 8.084,27.916 C8.317,29.169 9.019,30.26 10,30.998 L10,31 C10,32.422 10.596,33.706 11.552,34.618 L11.522,34.646 C10.917,34.528 10.273,34.469 9.601,34.469 C6.801,34.469 3.105,35.544 1.132,38.563 C0.596,39.381 0.225,40.28 0,41.214 L0,45.493 C0.387,47.151 1.213,48.722 2.467,49.973 L2.567,50.072 L10.46,56.903 C10.886,57.314 11.353,57.681 11.851,58 L31.684,58 C32.137,57.703 32.565,57.369 32.957,56.994 L41.157,50.177 L41.288,50.047 C44.337,46.997 44.875,42.221 42.565,38.687" id="Fill-117" fill="#7383BF" sketch:type="MSShapeGroup"></path>
            <path d="M39.218,40.878 C38.047,39.088 34.786,38.243 32.977,38.532 C31.628,38.746 30.35,38.316 29.594,37.38 L28.879,36.495 L28.65,36.398 C28.031,36.134 27.375,36 26.701,36 L23,36 L23,32 L29,32 C29.552,32 30,31.553 30,31 C30,30.447 29.552,30 29,30 L23,30 L23,28 L31,28 C31.552,28 32,27.553 32,27 C32,26.447 31.552,26 31,26 L23,26 L23,24 L35,24 C35.552,24 36,23.553 36,23 C36,22.447 35.552,22 35,22 L23,22 L23,20 L35,20 C35.552,20 36,19.553 36,19 C36,18.447 35.552,18 35,18 L23,18 L23,16 L31,16 C31.552,16 32,15.553 32,15 C32,14.447 31.552,14 31,14 L23,14 L23,12 L29,12 C29.552,12 30,11.553 30,11 C30,10.447 29.552,10 29,10 L23,10 L23,8 L25,8 C25.552,8 26,7.553 26,7 C26,6.447 25.552,6 25,6 L23,6 L23,4 C23,3.447 22.552,3 22,3 C21.448,3 21,3.447 21,4 L21,6 L19,6 C18.448,6 18,6.447 18,7 C18,7.553 18.448,8 19,8 L21,8 L21,10 L15,10 C14.448,10 14,10.447 14,11 C14,11.553 14.448,12 15,12 L21,12 L21,14 L13,14 C12.448,14 12,14.447 12,15 C12,15.553 12.448,16 13,16 L21,16 L21,18 L9,18 C8.448,18 8,18.447 8,19 C8,19.553 8.448,20 9,20 L21,20 L21,22 L9,22 C8.448,22 8,22.447 8,23 C8,23.553 8.448,24 9,24 L21,24 L21,26 L13,26 C12.448,26 12,26.447 12,27 C12,27.553 12.448,28 13,28 L21,28 L21,30 L15,30 C14.448,30 14,30.447 14,31 C14,31.553 14.448,32 15,32 L21,32 L21,36 L17.752,36 C16.795,36 15.859,36.28 15.043,36.81 L14.074,37.741 C13.253,38.555 12.073,38.91 11.037,38.637 C9.143,38.137 5.805,38.725 4.479,40.752 C3.263,42.612 3.603,45.457 5.291,47.141 L13.17,53.959 C14.8,55.589 17.494,55.971 19.406,54.814 C20.343,54.244 21.047,53.412 21.441,52.408 C21.498,52.264 21.611,52.148 21.757,52.081 C21.903,52.148 22.017,52.264 22.073,52.408 C22.468,53.412 23.172,54.244 24.11,54.814 C24.863,55.271 25.734,55.512 26.629,55.512 C28.003,55.512 29.357,54.946 30.276,54.021 L38.459,47.219 C40.178,45.5 40.497,42.834 39.218,40.878 L39.218,40.878 Z M31.701,45 C31.701,46.103 30.804,47 29.701,47 C28.598,47 27.701,46.103 27.701,45 C27.701,43.898 28.598,43 29.701,43 C30.804,43 31.701,43.898 31.701,45 L31.701,45 Z M15.752,45 C15.752,46.103 14.855,47 13.752,47 C12.649,47 11.752,46.103 11.752,45 C11.752,43.898 12.649,43 13.752,43 C14.855,43 15.752,43.898 15.752,45 L15.752,45 Z" id="Fill-2083" fill="#9EF6FC" sketch:type="MSShapeGroup"></path>
        </g>
    </g>
</svg>