<?xml version="1.0" encoding="UTF-8" standalone="no"?>
<svg width="58px" height="58px" viewBox="0 0 58 58" version="1.1" xmlns="http://www.w3.org/2000/svg" xmlns:xlink="http://www.w3.org/1999/xlink" xmlns:sketch="http://www.bohemiancoding.com/sketch/ns">
    <!-- Generator: Sketch 3.2.2 (9983) - http://www.bohemiancoding.com/sketch -->
    <title>26 - Celsius (Flat)</title>
    <desc>Created with Sketch.</desc>
    <defs></defs>
    <g id="Page-1" stroke="none" stroke-width="1" fill="none" fill-rule="evenodd" sketch:type="MSPage">
        <g id="26---Celsius-(Flat)" sketch:type="MSLayerGroup">
            <path d="M58,29 C58,45.016 45.016,58 29,58 C12.984,58 0,45.016 0,29 C0,12.984 12.984,0 29,0 C45.016,0 58,12.984 58,29" id="Fill-2" fill="#556080" sketch:type="MSShapeGroup"></path>
            <path d="M16,21 C13.794,21 12,19.206 12,17 C12,14.794 13.794,13 16,13 C18.206,13 20,14.794 20,17 C20,19.206 18.206,21 16,21 L16,21 Z M16,15 C14.897,15 14,15.898 14,17 C14,18.102 14.897,19 16,19 C17.103,19 18,18.102 18,17 C18,15.898 17.103,15 16,15 L16,15 Z" id="Fill-74" fill="#FFFFFF" sketch:type="MSShapeGroup"></path>
            <path d="M40,45 L33.789,45 C25.496,45 19,38.214 19,29.55 C19,20.886 25.496,14.1 33.789,14.1 L40,14.1 C40.552,14.1 41,14.547 41,15.1 C41,15.652 40.552,16.1 40,16.1 L33.789,16.1 C26.498,16.1 21,21.882 21,29.55 C21,37.218 26.498,43 33.789,43 L40,43 C40.552,43 41,43.447 41,44 C41,44.553 40.552,45 40,45" id="Fill-75" fill="#FFFFFF" sketch:type="MSShapeGroup"></path>
        </g>
    </g>
</svg>