<?xml version="1.0" encoding="UTF-8" standalone="no"?>
<svg width="61px" height="55px" viewBox="0 0 61 55" version="1.1" xmlns="http://www.w3.org/2000/svg" xmlns:xlink="http://www.w3.org/1999/xlink" xmlns:sketch="http://www.bohemiancoding.com/sketch/ns">
    <!-- Generator: Sketch 3.2.2 (9983) - http://www.bohemiancoding.com/sketch -->
    <title>42 - Cloudy Day (Flat)</title>
    <desc>Created with Sketch.</desc>
    <defs></defs>
    <g id="Page-1" stroke="none" stroke-width="1" fill="none" fill-rule="evenodd" sketch:type="MSPage">
        <g id="42---Cloudy-Day-(Flat)" sketch:type="MSLayerGroup">
            <path d="M6.962,21.438 C6.962,20.885 6.515,20.437 5.962,20.437 L1.824,20.437 C1.271,20.437 0.824,20.885 0.824,21.438 C0.824,21.99 1.271,22.438 1.824,22.438 L5.962,22.438 C6.515,22.438 6.962,21.99 6.962,21.438" id="Fill-1010" fill="#F0C419" sketch:type="MSShapeGroup"></path>
            <path d="M21.824,0.438 C21.271,0.438 20.824,0.885 20.824,1.438 L20.824,5.575 C20.824,6.127 21.271,6.575 21.824,6.575 C22.376,6.575 22.824,6.127 22.824,5.575 L22.824,1.438 C22.824,0.885 22.376,0.438 21.824,0.438" id="Fill-1011" fill="#F0C419" sketch:type="MSShapeGroup"></path>
            <path d="M7.359,5.558 C6.968,5.167 6.336,5.167 5.945,5.558 C5.554,5.949 5.554,6.581 5.945,6.972 L9.901,10.928 C10.096,11.123 10.352,11.221 10.608,11.221 C10.864,11.221 11.12,11.123 11.315,10.928 C11.706,10.538 11.706,9.905 11.315,9.514 L7.359,5.558" id="Fill-1012" fill="#F0C419" sketch:type="MSShapeGroup"></path>
            <path d="M37.704,5.558 C37.313,5.167 36.68,5.167 36.29,5.558 L32.334,9.514 C31.943,9.905 31.943,10.538 32.334,10.928 C32.529,11.123 32.785,11.221 33.041,11.221 C33.296,11.221 33.552,11.123 33.748,10.928 L37.704,6.972 C38.094,6.581 38.094,5.949 37.704,5.558" id="Fill-1013" fill="#F0C419" sketch:type="MSShapeGroup"></path>
            <path d="M15.739,4.541 C15.522,4.032 14.931,3.796 14.427,4.011 C13.918,4.227 13.681,4.814 13.897,5.322 L14.706,7.227 C14.868,7.608 15.238,7.837 15.626,7.837 C15.757,7.837 15.89,7.811 16.017,7.757 C16.526,7.541 16.763,6.954 16.547,6.446 L15.739,4.541" id="Fill-1014" fill="#F0C419" sketch:type="MSShapeGroup"></path>
            <path d="M28.917,3.885 C28.404,3.68 27.822,3.925 27.615,4.438 L26.839,6.356 C26.632,6.868 26.879,7.451 27.391,7.658 C27.514,7.707 27.641,7.731 27.766,7.731 C28.162,7.731 28.536,7.495 28.693,7.105 L29.468,5.187 C29.675,4.675 29.428,4.092 28.917,3.885" id="Fill-1015" fill="#F0C419" sketch:type="MSShapeGroup"></path>
            <path d="M6.833,26.715 L4.928,27.523 C4.419,27.739 4.182,28.326 4.398,28.834 C4.56,29.215 4.93,29.444 5.319,29.444 C5.45,29.444 5.583,29.418 5.709,29.364 L7.614,28.556 C8.123,28.34 8.36,27.753 8.144,27.245 C7.927,26.735 7.335,26.5 6.833,26.715" id="Fill-1016" fill="#F0C419" sketch:type="MSShapeGroup"></path>
            <path d="M4.824,15.647 L6.742,16.423 C6.865,16.472 6.992,16.496 7.117,16.496 C7.512,16.496 7.886,16.26 8.044,15.871 C8.25,15.358 8.003,14.775 7.492,14.568 L5.574,13.793 C5.062,13.588 4.479,13.833 4.272,14.345 C4.065,14.857 4.312,15.44 4.824,15.647" id="Fill-1017" fill="#F0C419" sketch:type="MSShapeGroup"></path>
            <path d="M13.63,32.507 C14.349,32.585 15.048,32.73 15.717,32.945 C15.271,30.918 15.721,28.715 17.143,26.988 C19.015,24.714 22.021,23.925 24.666,24.764 L24.678,24.768 C25.494,22.713 27.264,21.075 29.579,20.53 C30.403,20.337 31.226,20.305 32.02,20.401 C32.013,20.246 31.997,20.094 31.997,19.937 C31.997,17.874 32.6,15.956 33.628,14.333 C31.214,10.331 26.839,7.644 21.824,7.644 C14.206,7.644 8.031,13.82 8.031,21.437 C8.031,25.981 10.238,29.997 13.63,32.507" id="Fill-1018" fill="#EDE21B" sketch:type="MSShapeGroup"></path>
            <path d="M60.976,27 L60.895,27 C60.93,27.304 60.954,27.611 60.954,27.925 C60.954,28.477 60.507,28.925 59.954,28.925 C59.401,28.925 58.954,28.477 58.954,27.925 C58.954,24.616 56.263,21.925 52.954,21.925 C49.646,21.925 46.954,24.616 46.954,27.925 C46.954,28.477 46.507,28.925 45.954,28.925 C45.401,28.925 44.954,28.477 44.954,27.925 C44.954,23.86 48.003,20.502 51.932,19.998 C51.707,14.958 47.548,10.925 42.454,10.925 C37.343,10.925 33.173,14.985 32.973,20.048 C33.802,20.244 34.605,20.568 35.352,21.029 C37.168,22.154 38.437,23.919 38.928,25.999 C39.054,26.537 38.721,27.075 38.184,27.202 C37.646,27.323 37.107,26.995 36.98,26.458 C36.223,23.236 32.981,21.232 29.767,21.991 C26.546,22.749 24.542,25.985 25.3,29.206 C25.426,29.743 25.093,30.281 24.555,30.408 C24.479,30.426 24.401,30.435 24.325,30.435 C23.872,30.435 23.461,30.124 23.353,29.663 C23.058,28.412 23.085,27.161 23.365,25.989 C21.307,25.687 19.229,26.464 17.872,28.11 C16.614,29.639 16.247,31.609 16.697,33.395 C16.698,33.407 16.704,33.417 16.705,33.429 C17.011,34.615 17.675,35.719 18.69,36.556 C19.116,36.907 19.178,37.537 18.827,37.964 C18.629,38.204 18.343,38.328 18.054,38.328 C17.83,38.328 17.606,38.254 17.419,38.101 C16.202,37.099 15.331,35.79 14.873,34.319 C10.83,33.266 6.579,34.967 4.383,38.581 C3.066,40.749 2.671,43.301 3.272,45.766 C3.874,48.231 5.399,50.314 7.568,51.633 C8.04,51.92 8.19,52.534 7.903,53.007 C7.715,53.316 7.386,53.487 7.048,53.487 C6.915,53.487 6.783,53.451 6.656,53.396 C8.235,54.333 10.054,54.906 12,54.989 L20.209,54.992 C25.516,54.907 30.063,51.632 32,47 C33.963,51.693 38.603,55 44,55 C53.374,55 61,47.374 61,38 L61,28 L60.976,27" id="Fill-1019" fill="#D0E8F9" sketch:type="MSShapeGroup"></path>
            <path d="M53.932,20.066 C53.701,13.927 48.649,9 42.454,9 C36.312,9 31.294,13.844 30.984,19.91 C30.426,19.922 29.865,19.988 29.308,20.119 C26.972,20.669 25.123,22.201 24.079,24.172 C21.197,23.586 18.231,24.604 16.328,26.914 C15.077,28.434 14.449,30.322 14.518,32.273 C9.888,31.439 5.178,33.497 2.674,37.617 C1.078,40.242 0.601,43.331 1.329,46.315 C2.058,49.3 3.904,51.821 6.529,53.417 C6.691,53.516 6.871,53.563 7.048,53.563 C7.386,53.563 7.715,53.392 7.903,53.082 C8.19,52.609 8.04,51.995 7.568,51.708 C5.399,50.39 3.874,48.307 3.272,45.841 C2.671,43.376 3.066,40.824 4.383,38.656 C6.579,35.042 10.83,33.341 14.873,34.395 C15.331,35.865 16.202,37.174 17.419,38.176 C17.606,38.329 17.83,38.403 18.054,38.403 C18.343,38.403 18.629,38.279 18.827,38.039 C19.178,37.612 19.116,36.982 18.69,36.631 C17.675,35.795 17.011,34.69 16.705,33.504 C16.704,33.493 16.698,33.482 16.697,33.471 C16.247,31.684 16.614,29.714 17.872,28.185 C19.229,26.539 21.307,25.762 23.365,26.064 C23.085,27.236 23.058,28.487 23.353,29.738 C23.461,30.199 23.872,30.51 24.325,30.51 C24.401,30.51 24.479,30.501 24.555,30.483 C25.093,30.356 25.426,29.818 25.3,29.281 C24.542,26.06 26.546,22.824 29.767,22.066 C32.981,21.308 36.223,23.312 36.98,26.533 C37.107,27.07 37.646,27.398 38.184,27.277 C38.721,27.15 39.054,26.612 38.928,26.074 C38.437,23.994 37.168,22.229 35.352,21.104 C34.605,20.643 33.802,20.319 32.973,20.123 C33.173,15.06 37.343,11 42.454,11 C47.548,11 51.707,15.033 51.932,20.073 C48.003,20.577 44.954,23.936 44.954,28 C44.954,28.553 45.401,29 45.954,29 C46.507,29 46.954,28.553 46.954,28 C46.954,24.691 49.646,22 52.954,22 C56.263,22 59,24.691 59,28 L59,31 C59,31.552 59.448,32 60,32 C60.552,32 61,31.552 61,31 L61,28 C61,23.921 57.883,20.551 53.932,20.066" id="Fill-1020" fill="#ABCADD" sketch:type="MSShapeGroup"></path>
            <path d="M44,55 C39.027,55 34.509,52.392 32,48.211 C29.491,52.392 24.973,55 20,55 C19.448,55 19,54.553 19,54 C19,53.447 19.448,53 20,53 C24.853,53 29.201,50.101 31.078,45.614 L32,43.408 L32.922,45.614 C34.799,50.101 39.147,53 44,53 C44.552,53 45,53.447 45,54 C45,54.553 44.552,55 44,55" id="Fill-1021" fill="#ABCADD" sketch:type="MSShapeGroup"></path>
            <path d="M55.897,40.875 C55.44,36.895 52.054,33.793 47.954,33.793 C43.543,33.793 39.954,37.382 39.954,41.793 C39.954,42.345 40.402,42.793 40.954,42.793 C41.506,42.793 41.954,42.345 41.954,41.793 C41.954,38.484 44.646,35.793 47.954,35.793 C50.957,35.793 53.444,38.012 53.879,40.895 C51.083,41.403 48.954,43.852 48.954,46.793 C48.954,47.345 49.402,47.793 49.954,47.793 C50.506,47.793 50.954,47.345 50.954,46.793 C50.954,44.587 52.749,42.793 54.954,42.793 C57.16,42.793 58.954,44.587 58.954,46.793 C58.954,47.345 59.402,47.793 59.954,47.793 C60.506,47.793 60.954,47.345 60.954,46.793 C60.954,43.806 58.758,41.329 55.897,40.875" id="Fill-1022" fill="#ABCADD" sketch:type="MSShapeGroup"></path>
        </g>
    </g>
</svg>