<?xml version="1.0" encoding="UTF-8" standalone="no"?>
<svg width="60px" height="54px" viewBox="0 0 60 54" version="1.1" xmlns="http://www.w3.org/2000/svg" xmlns:xlink="http://www.w3.org/1999/xlink" xmlns:sketch="http://www.bohemiancoding.com/sketch/ns">
    <!-- Generator: Sketch 3.2.2 (9983) - http://www.bohemiancoding.com/sketch -->
    <title>35 - Evening Storm (Flat)</title>
    <desc>Created with Sketch.</desc>
    <defs></defs>
    <g id="Page-1" stroke="none" stroke-width="1" fill="none" fill-rule="evenodd" sketch:type="MSPage">
        <g id="35---Evening-Storm-(Flat)" sketch:type="MSLayerGroup">
            <path d="M11.5,24.924 C12.624,24.924 13.705,25.105 14.721,25.432 C14.274,23.405 14.724,21.202 16.146,19.475 C18.019,17.201 21.024,16.412 23.669,17.251 L23.681,17.256 C24.497,15.2 26.267,13.562 28.583,13.018 C29.407,12.824 30.229,12.792 31.023,12.888 C31.017,12.733 31,12.581 31,12.424 C31,10.007 31.825,7.787 33.198,6.012 C30.127,2.631 25.826,0.388 20.996,0 C20.955,8.801 13.811,15.924 5,15.924 C3.709,15.924 2.461,15.755 1.258,15.466 C1.103,16.432 1,17.415 1,18.424 C1,22.04 2.053,25.402 3.846,28.252 C5.762,26.209 8.478,24.924 11.5,24.924" id="Fill-245" fill="#FBD490" sketch:type="MSShapeGroup"></path>
            <path d="M59.979,18 L59.898,18 C59.933,18.304 59.958,18.611 59.958,18.925 C59.958,19.477 59.51,19.925 58.958,19.925 C58.405,19.925 57.958,19.477 57.958,18.925 C57.958,15.616 55.266,12.925 51.958,12.925 C48.649,12.925 45.958,15.616 45.958,18.925 C45.958,19.477 45.51,19.925 44.958,19.925 C44.405,19.925 43.958,19.477 43.958,18.925 C43.958,14.86 47.006,11.502 50.936,10.998 C50.71,5.958 46.552,1.925 41.458,1.925 C36.346,1.925 32.177,5.985 31.977,11.048 C32.806,11.244 33.609,11.568 34.355,12.029 C36.171,13.154 37.441,14.919 37.931,16.999 C38.057,17.537 37.724,18.075 37.187,18.202 C36.649,18.323 36.111,17.995 35.984,17.458 C35.226,14.236 31.985,12.232 28.77,12.991 C25.549,13.749 23.545,16.985 24.303,20.206 C24.429,20.743 24.096,21.281 23.558,21.408 C23.482,21.426 23.405,21.435 23.329,21.435 C22.876,21.435 22.464,21.124 22.356,20.663 C22.062,19.412 22.088,18.161 22.368,16.989 C20.311,16.687 18.232,17.464 16.876,19.11 C15.617,20.639 15.25,22.609 15.7,24.396 C15.702,24.407 15.707,24.417 15.708,24.429 C16.015,25.615 16.678,26.719 17.694,27.556 C18.12,27.907 18.181,28.537 17.831,28.964 C17.632,29.204 17.346,29.328 17.057,29.328 C16.833,29.328 16.609,29.254 16.422,29.101 C15.206,28.099 14.334,26.79 13.876,25.32 C9.833,24.266 5.582,25.967 3.386,29.581 C2.069,31.749 1.674,34.301 2.276,36.766 C2.877,39.231 4.403,41.315 6.572,42.633 C7.043,42.92 7.194,43.534 6.907,44.007 C6.718,44.316 6.389,44.487 6.051,44.487 C5.919,44.487 5.787,44.451 5.659,44.396 C7.239,45.333 9.058,45.906 11.003,45.989 L19.213,45.992 C24.519,45.907 29.066,42.632 31.003,38 C32.966,42.693 37.606,46 43.003,46 C52.377,46 60.003,38.374 60.003,29 L60.003,19 L59.979,18" id="Fill-951" fill="#D0E8F9" sketch:type="MSShapeGroup"></path>
            <path d="M52.936,11.066 C52.705,4.927 47.652,0 41.458,0 C35.316,0 30.298,4.844 29.987,10.91 C29.429,10.922 28.868,10.988 28.311,11.119 C25.975,11.669 24.126,13.201 23.082,15.172 C20.2,14.586 17.234,15.604 15.332,17.914 C14.08,19.434 13.452,21.322 13.521,23.273 C8.892,22.439 4.182,24.497 1.677,28.617 C0.081,31.242 -0.396,34.331 0.333,37.315 C1.061,40.3 2.908,42.821 5.533,44.417 C5.695,44.516 5.875,44.562 6.051,44.562 C6.389,44.562 6.718,44.392 6.907,44.082 C7.194,43.609 7.043,42.995 6.572,42.708 C4.403,41.39 2.877,39.307 2.276,36.841 C1.674,34.376 2.069,31.824 3.386,29.656 C5.582,26.042 9.833,24.341 13.876,25.395 C14.334,26.865 15.206,28.174 16.422,29.176 C16.609,29.329 16.833,29.403 17.057,29.403 C17.346,29.403 17.632,29.279 17.831,29.039 C18.181,28.612 18.12,27.982 17.694,27.631 C16.678,26.795 16.015,25.69 15.708,24.504 C15.707,24.493 15.702,24.482 15.7,24.471 C15.25,22.684 15.617,20.714 16.876,19.185 C18.232,17.539 20.311,16.762 22.368,17.064 C22.088,18.236 22.062,19.487 22.356,20.738 C22.464,21.199 22.876,21.51 23.329,21.51 C23.405,21.51 23.482,21.501 23.558,21.483 C24.096,21.356 24.429,20.818 24.303,20.281 C23.545,17.06 25.549,13.824 28.77,13.066 C31.985,12.308 35.226,14.312 35.984,17.533 C36.111,18.07 36.649,18.398 37.187,18.277 C37.724,18.15 38.057,17.612 37.931,17.074 C37.441,14.994 36.171,13.229 34.355,12.104 C33.609,11.643 32.806,11.319 31.977,11.123 C32.177,6.06 36.346,2 41.458,2 C46.552,2 50.71,6.033 50.936,11.073 C47.006,11.577 43.958,14.936 43.958,19 C43.958,19.553 44.405,20 44.958,20 C45.51,20 45.958,19.553 45.958,19 C45.958,15.691 48.649,13 51.958,13 C55.266,13 58.003,15.691 58.003,19 L58.003,22 C58.003,22.552 58.451,23 59.003,23 C59.556,23 60.003,22.552 60.003,22 L60.003,19 C60.003,14.921 56.886,11.551 52.936,11.066" id="Fill-952" fill="#ABCADD" sketch:type="MSShapeGroup"></path>
            <path d="M48.003,32 C48.556,32 49.003,31.552 49.003,31 L49.003,30.5 C49.003,28.019 51.022,26 53.503,26 C55.985,26 58.003,28.019 58.003,30.5 C58.003,31.053 58.451,31.5 59.003,31.5 C59.556,31.5 60.003,31.053 60.003,30.5 C60.003,26.916 57.087,24 53.503,24 C50.088,24 47.26,26.649 47.003,30 L47.003,31 C47.003,31.552 47.451,32 48.003,32" id="Fill-953" fill="#ABCADD" sketch:type="MSShapeGroup"></path>
            <path d="M25.926,45.618 C25.825,45.373 25.63,45.178 25.385,45.077 C25.263,45.026 25.133,45 25.003,45 L21.418,45 L29.71,36.707 C30.101,36.316 30.101,35.684 29.71,35.293 C29.32,34.902 28.687,34.902 28.296,35.293 L18.298,45.292 C18.205,45.384 18.131,45.495 18.08,45.618 C17.979,45.862 17.979,46.138 18.08,46.382 C18.182,46.627 18.377,46.822 18.621,46.923 C18.744,46.973 18.873,47 19.003,47 L22.589,47 L17.296,52.293 C16.906,52.684 16.906,53.316 17.296,53.707 C17.492,53.902 17.747,54 18.003,54 C18.259,54 18.515,53.902 18.71,53.707 L25.709,46.708 C25.802,46.616 25.876,46.505 25.926,46.382 C26.027,46.138 26.027,45.862 25.926,45.618" id="Fill-954" fill="#ABC5D3" sketch:type="MSShapeGroup"></path>
            <path d="M41.71,31.293 C41.32,30.902 40.687,30.902 40.296,31.293 L30.298,41.292 C30.205,41.384 30.131,41.495 30.08,41.618 C29.979,41.862 29.979,42.138 30.08,42.382 C30.182,42.627 30.377,42.822 30.621,42.923 C30.744,42.973 30.873,43 31.003,43 L34.589,43 L29.296,48.293 C28.906,48.684 28.906,49.316 29.296,49.707 C29.492,49.902 29.747,50 30.003,50 C30.259,50 30.515,49.902 30.71,49.707 L37.709,42.708 C37.802,42.616 37.876,42.505 37.926,42.382 C38.027,42.138 38.027,41.862 37.926,41.618 C37.825,41.373 37.63,41.178 37.385,41.077 C37.263,41.026 37.133,41 37.003,41 L33.418,41 L41.71,32.707 C42.101,32.316 42.101,31.684 41.71,31.293" id="Fill-955" fill="#ABC5D3" sketch:type="MSShapeGroup"></path>
        </g>
    </g>
</svg>