<?xml version="1.0" encoding="UTF-8" standalone="no"?>
<svg width="56px" height="56px" viewBox="0 0 56 56" version="1.1" xmlns="http://www.w3.org/2000/svg" xmlns:xlink="http://www.w3.org/1999/xlink" xmlns:sketch="http://www.bohemiancoding.com/sketch/ns">
    <!-- Generator: Sketch 3.2.2 (9983) - http://www.bohemiancoding.com/sketch -->
    <title>10 - First Moon Quarter (Flat)</title>
    <desc>Created with Sketch.</desc>
    <defs></defs>
    <g id="Page-1" stroke="none" stroke-width="1" fill="none" fill-rule="evenodd" sketch:type="MSPage">
        <g id="10---First-Moon-Quarter-(Flat)" sketch:type="MSLayerGroup">
            <path d="M0,28 C0,43.464 12.536,56 28,56 L28,0 C12.536,0 0,12.536 0,28" id="Fill-68" fill="#95A5A5" sketch:type="MSShapeGroup"></path>
            <path d="M56,28 C56,43.464 43.464,56 28,56 L28,0 C43.464,0 56,12.536 56,28" id="Fill-448" fill="#BDC3C7" sketch:type="MSShapeGroup"></path>
            <path d="M22,9 C22,9.552 22.448,10 23,10 C23.552,10 24,9.552 24,9 C24,8.448 23.552,8 23,8 C22.448,8 22,8.448 22,9" id="Fill-449" fill="#BDC3C7" sketch:type="MSShapeGroup"></path>
            <path d="M14,9 C14,9.552 14.448,10 15,10 C15.552,10 16,9.552 16,9 C16,8.448 15.552,8 15,8 C14.448,8 14,8.448 14,9" id="Fill-450" fill="#BDC3C7" sketch:type="MSShapeGroup"></path>
            <path d="M26,13 C26,13.552 26.448,14 27,14 C27.552,14 28,13.552 28,13 C28,12.448 27.552,12 27,12 C26.448,12 26,12.448 26,13" id="Fill-451" fill="#BDC3C7" sketch:type="MSShapeGroup"></path>
            <path d="M18,13 C18,13.552 18.448,14 19,14 C19.552,14 20,13.552 20,13 C20,12.448 19.552,12 19,12 C18.448,12 18,12.448 18,13" id="Fill-452" fill="#BDC3C7" sketch:type="MSShapeGroup"></path>
            <path d="M26,5 C26,5.552 26.448,6 27,6 C27.552,6 28,5.552 28,5 C28,4.448 27.552,4 27,4 C26.448,4 26,4.448 26,5" id="Fill-453" fill="#BDC3C7" sketch:type="MSShapeGroup"></path>
            <path d="M18,5 C18,5.552 18.448,6 19,6 C19.552,6 20,5.552 20,5 C20,4.448 19.552,4 19,4 C18.448,4 18,4.448 18,5" id="Fill-454" fill="#BDC3C7" sketch:type="MSShapeGroup"></path>
            <path d="M22,17 C22,17.552 22.448,18 23,18 C23.552,18 24,17.552 24,17 C24,16.448 23.552,16 23,16 C22.448,16 22,16.448 22,17" id="Fill-455" fill="#BDC3C7" sketch:type="MSShapeGroup"></path>
            <path d="M14,17 C14,17.552 14.448,18 15,18 C15.552,18 16,17.552 16,17 C16,16.448 15.552,16 15,16 C14.448,16 14,16.448 14,17" id="Fill-456" fill="#BDC3C7" sketch:type="MSShapeGroup"></path>
            <path d="M26,21 C26,21.552 26.448,22 27,22 C27.552,22 28,21.552 28,21 C28,20.448 27.552,20 27,20 C26.448,20 26,20.448 26,21" id="Fill-457" fill="#BDC3C7" sketch:type="MSShapeGroup"></path>
            <path d="M18,21 C18,21.552 18.448,22 19,22 C19.552,22 20,21.552 20,21 C20,20.448 19.552,20 19,20 C18.448,20 18,20.448 18,21" id="Fill-458" fill="#BDC3C7" sketch:type="MSShapeGroup"></path>
            <path d="M22,25 C22,25.552 22.448,26 23,26 C23.552,26 24,25.552 24,25 C24,24.448 23.552,24 23,24 C22.448,24 22,24.448 22,25" id="Fill-459" fill="#BDC3C7" sketch:type="MSShapeGroup"></path>
            <path d="M14,25 C14,25.552 14.448,26 15,26 C15.552,26 16,25.552 16,25 C16,24.448 15.552,24 15,24 C14.448,24 14,24.448 14,25" id="Fill-460" fill="#BDC3C7" sketch:type="MSShapeGroup"></path>
            <path d="M26,29 C26,29.552 26.448,30 27,30 C27.552,30 28,29.552 28,29 C28,28.448 27.552,28 27,28 C26.448,28 26,28.448 26,29" id="Fill-461" fill="#BDC3C7" sketch:type="MSShapeGroup"></path>
            <path d="M18,29 C18,29.552 18.448,30 19,30 C19.552,30 20,29.552 20,29 C20,28.448 19.552,28 19,28 C18.448,28 18,28.448 18,29" id="Fill-462" fill="#BDC3C7" sketch:type="MSShapeGroup"></path>
            <path d="M22,33 C22,33.552 22.448,34 23,34 C23.552,34 24,33.552 24,33 C24,32.448 23.552,32 23,32 C22.448,32 22,32.448 22,33" id="Fill-463" fill="#BDC3C7" sketch:type="MSShapeGroup"></path>
            <path d="M14,33 C14,33.552 14.448,34 15,34 C15.552,34 16,33.552 16,33 C16,32.448 15.552,32 15,32 C14.448,32 14,32.448 14,33" id="Fill-464" fill="#BDC3C7" sketch:type="MSShapeGroup"></path>
            <path d="M26,37 C26,37.552 26.448,38 27,38 C27.552,38 28,37.552 28,37 C28,36.448 27.552,36 27,36 C26.448,36 26,36.448 26,37" id="Fill-465" fill="#BDC3C7" sketch:type="MSShapeGroup"></path>
            <path d="M18,37 C18,37.552 18.448,38 19,38 C19.552,38 20,37.552 20,37 C20,36.448 19.552,36 19,36 C18.448,36 18,36.448 18,37" id="Fill-466" fill="#BDC3C7" sketch:type="MSShapeGroup"></path>
            <path d="M22,41 C22,41.552 22.448,42 23,42 C23.552,42 24,41.552 24,41 C24,40.448 23.552,40 23,40 C22.448,40 22,40.448 22,41" id="Fill-467" fill="#BDC3C7" sketch:type="MSShapeGroup"></path>
            <path d="M14,41 C14,41.552 14.448,42 15,42 C15.552,42 16,41.552 16,41 C16,40.448 15.552,40 15,40 C14.448,40 14,40.448 14,41" id="Fill-468" fill="#BDC3C7" sketch:type="MSShapeGroup"></path>
            <path d="M26,45 C26,45.552 26.448,46 27,46 C27.552,46 28,45.552 28,45 C28,44.448 27.552,44 27,44 C26.448,44 26,44.448 26,45" id="Fill-469" fill="#BDC3C7" sketch:type="MSShapeGroup"></path>
            <path d="M18,45 C18,45.552 18.448,46 19,46 C19.552,46 20,45.552 20,45 C20,44.448 19.552,44 19,44 C18.448,44 18,44.448 18,45" id="Fill-470" fill="#BDC3C7" sketch:type="MSShapeGroup"></path>
            <path d="M22,49 C22,49.552 22.448,50 23,50 C23.552,50 24,49.552 24,49 C24,48.448 23.552,48 23,48 C22.448,48 22,48.448 22,49" id="Fill-471" fill="#BDC3C7" sketch:type="MSShapeGroup"></path>
            <path d="M14,49 C14,49.552 14.448,50 15,50 C15.552,50 16,49.552 16,49 C16,48.448 15.552,48 15,48 C14.448,48 14,48.448 14,49" id="Fill-472" fill="#BDC3C7" sketch:type="MSShapeGroup"></path>
            <path d="M26,53 C26,53.552 26.448,54 27,54 C27.552,54 28,53.552 28,53 C28,52.448 27.552,52 27,52 C26.448,52 26,52.448 26,53" id="Fill-473" fill="#BDC3C7" sketch:type="MSShapeGroup"></path>
            <path d="M18,53 C18,53.552 18.448,54 19,54 C19.552,54 20,53.552 20,53 C20,52.448 19.552,52 19,52 C18.448,52 18,52.448 18,53" id="Fill-474" fill="#BDC3C7" sketch:type="MSShapeGroup"></path>
            <path d="M10,13 C10,13.552 10.448,14 11,14 C11.552,14 12,13.552 12,13 C12,12.448 11.552,12 11,12 C10.448,12 10,12.448 10,13" id="Fill-475" fill="#BDC3C7" sketch:type="MSShapeGroup"></path>
            <path d="M6,17 C6,17.552 6.448,18 7,18 C7.552,18 8,17.552 8,17 C8,16.448 7.552,16 7,16 C6.448,16 6,16.448 6,17" id="Fill-476" fill="#BDC3C7" sketch:type="MSShapeGroup"></path>
            <path d="M10,21 C10,21.552 10.448,22 11,22 C11.552,22 12,21.552 12,21 C12,20.448 11.552,20 11,20 C10.448,20 10,20.448 10,21" id="Fill-477" fill="#BDC3C7" sketch:type="MSShapeGroup"></path>
            <path d="M2,21 C2,21.552 2.448,22 3,22 C3.552,22 4,21.552 4,21 C4,20.448 3.552,20 3,20 C2.448,20 2,20.448 2,21" id="Fill-478" fill="#BDC3C7" sketch:type="MSShapeGroup"></path>
            <path d="M6,25 C6,25.552 6.448,26 7,26 C7.552,26 8,25.552 8,25 C8,24.448 7.552,24 7,24 C6.448,24 6,24.448 6,25" id="Fill-479" fill="#BDC3C7" sketch:type="MSShapeGroup"></path>
            <path d="M10,29 C10,29.552 10.448,30 11,30 C11.552,30 12,29.552 12,29 C12,28.448 11.552,28 11,28 C10.448,28 10,28.448 10,29" id="Fill-480" fill="#BDC3C7" sketch:type="MSShapeGroup"></path>
            <path d="M2,29 C2,29.552 2.448,30 3,30 C3.552,30 4,29.552 4,29 C4,28.448 3.552,28 3,28 C2.448,28 2,28.448 2,29" id="Fill-481" fill="#BDC3C7" sketch:type="MSShapeGroup"></path>
            <path d="M6,33 C6,33.552 6.448,34 7,34 C7.552,34 8,33.552 8,33 C8,32.448 7.552,32 7,32 C6.448,32 6,32.448 6,33" id="Fill-482" fill="#BDC3C7" sketch:type="MSShapeGroup"></path>
            <path d="M10,37 C10,37.552 10.448,38 11,38 C11.552,38 12,37.552 12,37 C12,36.448 11.552,36 11,36 C10.448,36 10,36.448 10,37" id="Fill-483" fill="#BDC3C7" sketch:type="MSShapeGroup"></path>
            <path d="M2,37 C2,37.552 2.448,38 3,38 C3.552,38 4,37.552 4,37 C4,36.448 3.552,36 3,36 C2.448,36 2,36.448 2,37" id="Fill-484" fill="#BDC3C7" sketch:type="MSShapeGroup"></path>
            <path d="M6,41 C6,41.552 6.448,42 7,42 C7.552,42 8,41.552 8,41 C8,40.448 7.552,40 7,40 C6.448,40 6,40.448 6,41" id="Fill-485" fill="#BDC3C7" sketch:type="MSShapeGroup"></path>
            <path d="M10,45 C10,45.552 10.448,46 11,46 C11.552,46 12,45.552 12,45 C12,44.448 11.552,44 11,44 C10.448,44 10,44.448 10,45" id="Fill-486" fill="#BDC3C7" sketch:type="MSShapeGroup"></path>
        </g>
    </g>
</svg>