<?xml version="1.0" encoding="UTF-8" standalone="no"?>
<svg width="60px" height="56px" viewBox="0 0 60 56" version="1.1" xmlns="http://www.w3.org/2000/svg" xmlns:xlink="http://www.w3.org/1999/xlink" xmlns:sketch="http://www.bohemiancoding.com/sketch/ns">
    <!-- Generator: Sketch 3.2.2 (9983) - http://www.bohemiancoding.com/sketch -->
    <title>38 - Fresh Rainbow (Flat)</title>
    <desc>Created with Sketch.</desc>
    <defs></defs>
    <g id="Page-1" stroke="none" stroke-width="1" fill="none" fill-rule="evenodd" sketch:type="MSPage">
        <g id="38---Fresh-Rainbow-(Flat)" sketch:type="MSLayerGroup" transform="translate(-1.000000, 0.000000)">
            <path d="M58.968,18.865 C59.321,17.651 59.207,16.346 58.307,15.458 C53.158,10.376 46.954,13.977 46.954,19 C46.954,19.553 46.507,20 45.954,20 C45.401,20 44.954,19.553 44.954,19 C44.954,14.936 48.003,11.577 51.932,11.073 C51.707,6.033 47.548,2 42.454,2 C37.343,2 33.173,6.06 32.973,11.123 C33.802,11.319 34.605,11.643 35.352,12.104 C37.168,13.229 38.438,14.994 38.928,17.074 C39.054,17.612 38.721,18.15 38.184,18.277 C37.62,18.404 37.056,18.038 36.965,17.455 C36.715,15.855 35.948,14.342 34.478,13.664 C28.782,11.036 24.216,15.674 25.3,20.281 C25.426,20.818 25.093,21.356 24.555,21.483 C24.479,21.501 24.401,21.51 24.325,21.51 C23.872,21.51 23.461,21.199 23.353,20.738 C23.058,19.487 23.085,18.236 23.365,17.064 C21.307,16.762 19.228,17.539 17.872,19.185 C16.614,20.714 16.247,22.684 16.697,24.471 C16.698,24.482 16.704,24.493 16.705,24.504 C17.011,25.69 17.675,26.795 18.69,27.631 C19.116,27.982 19.178,28.612 18.827,29.039 C18.629,29.279 18.343,29.403 18.054,29.403 C17.83,29.403 17.606,29.329 17.419,29.176 C16.202,28.174 15.331,26.865 14.873,25.395 C10.83,24.341 6.579,26.042 4.383,29.656 C2.348,33.005 2.515,37.271 5.155,40.716 C5.806,41.566 6.729,42.133 7.613,42.737 C8.049,43.035 8.181,43.625 7.903,44.082 C7.715,44.392 7.386,44.563 7.048,44.563 C6.915,44.563 6.783,44.527 6.656,44.472 C7.315,44.862 8.024,45.173 8.759,45.428 C12.631,35.252 22.482,28 34,28 C40.343,28 46.18,30.201 50.791,33.877 C54.842,37.107 60.96,34.387 61,29.206 L61,29.075 L61,22.944 C61,21.409 60.042,20.213 59.008,19.079 C58.959,19.026 58.942,18.955 58.968,18.865" id="Fill-846" fill="#D0E8F9" sketch:type="MSShapeGroup"></path>
            <path d="M12.025,56 C12.011,55.668 12,55.335 12,55 C12,42.869 21.869,33 34,33 C46.131,33 56,42.869 56,55 C56,55.335 55.99,55.668 55.975,56 L59.975,56 C59.987,55.668 60,55.335 60,55 C60,40.641 48.359,29 34,29 C19.641,29 8,40.641 8,55 C8,55.335 8.013,55.668 8.025,56 L12.025,56" id="Fill-849" fill="#E64C3C" sketch:type="MSShapeGroup"></path>
            <path d="M16.051,56 C16.032,55.667 16,55.337 16,55 C16,45.075 24.075,37 34,37 C43.925,37 52,45.075 52,55 C52,55.337 51.968,55.667 51.949,56 L55.975,56 C55.99,55.668 56,55.335 56,55 C56,42.869 46.131,33 34,33 C21.869,33 12,42.869 12,55 C12,55.335 12.011,55.668 12.025,56 L16.051,56" id="Fill-850" fill="#F0C419" sketch:type="MSShapeGroup"></path>
            <path d="M20.051,56 C20.027,55.668 20,55.337 20,55 C20,47.28 26.28,41 34,41 C41.72,41 48,47.28 48,55 C48,55.337 47.973,55.668 47.949,56 L51.949,56 C51.968,55.667 52,55.337 52,55 C52,45.075 43.925,37 34,37 C24.075,37 16,45.075 16,55 C16,55.337 16.032,55.667 16.051,56 L20.051,56" id="Fill-851" fill="#71C285" sketch:type="MSShapeGroup"></path>
            <path d="M24.051,56 C24.018,55.671 24,55.337 24,55 C24,49.486 28.486,45 34,45 C39.514,45 44,49.486 44,55 C44,55.337 43.982,55.671 43.949,56 L47.949,56 C47.973,55.668 48,55.337 48,55 C48,47.28 41.72,41 34,41 C26.28,41 20,47.28 20,55 C20,55.337 20.027,55.668 20.051,56 L24.051,56" id="Fill-852" fill="#0096E6" sketch:type="MSShapeGroup"></path>
            <path d="M28.09,56 C28.035,55.674 28,55.341 28,55 C28,51.691 30.691,49 34,49 C37.309,49 40,51.691 40,55 C40,55.341 39.965,55.674 39.91,56 L43.949,56 C43.982,55.671 44,55.337 44,55 C44,49.486 39.514,45 34,45 C28.486,45 24,49.486 24,55 C24,55.337 24.018,55.671 24.051,56 L28.09,56" id="Fill-853" fill="#546A79" sketch:type="MSShapeGroup"></path>
            <path d="M53.932,11.066 C53.701,4.927 48.648,0 42.454,0 C36.312,0 31.294,4.844 30.984,10.91 C30.426,10.922 29.865,10.988 29.308,11.119 C26.972,11.669 25.123,13.201 24.079,15.172 C21.197,14.586 18.231,15.604 16.328,17.914 C15.077,19.434 14.449,21.322 14.518,23.273 C9.888,22.439 5.178,24.497 2.674,28.617 C1.078,31.242 0.601,34.331 1.329,37.315 C2.058,40.3 3.904,42.821 6.529,44.417 C6.691,44.516 6.871,44.563 7.048,44.563 C7.386,44.563 7.715,44.392 7.903,44.082 C8.19,43.609 8.04,42.995 7.568,42.708 C5.399,41.39 3.874,39.307 3.273,36.841 C2.671,34.376 3.065,31.824 4.383,29.656 C6.579,26.042 10.83,24.341 14.873,25.395 C15.331,26.865 16.202,28.174 17.419,29.176 C17.606,29.329 17.83,29.403 18.054,29.403 C18.343,29.403 18.629,29.279 18.827,29.039 C19.178,28.612 19.116,27.982 18.69,27.631 C17.675,26.795 17.011,25.69 16.705,24.504 C16.704,24.493 16.698,24.482 16.697,24.471 C16.247,22.684 16.614,20.714 17.872,19.185 C19.228,17.539 21.307,16.762 23.365,17.064 C23.085,18.236 23.058,19.487 23.353,20.738 C23.461,21.199 23.872,21.51 24.325,21.51 C24.401,21.51 24.479,21.501 24.555,21.483 C25.093,21.356 25.426,20.818 25.3,20.281 C24.542,17.06 26.546,13.824 29.767,13.066 C32.981,12.308 36.223,14.311 36.981,17.533 C37.107,18.07 37.646,18.398 38.184,18.277 C38.721,18.15 39.054,17.612 38.928,17.074 C38.438,14.994 37.168,13.229 35.352,12.104 C34.605,11.643 33.802,11.319 32.973,11.123 C33.173,6.06 37.343,2 42.454,2 C47.548,2 51.707,6.033 51.932,11.073 C48.003,11.577 44.954,14.936 44.954,19 C44.954,19.553 45.401,20 45.954,20 C46.507,20 46.954,19.553 46.954,19 C46.954,15.691 49.646,13 52.954,13 C56.263,13 59,15.691 59,19 L59,22 C59,22.552 59.448,23 60,23 C60.552,23 61,22.552 61,22 L61,19 C61,14.921 57.883,11.551 53.932,11.066" id="Fill-945" fill="#ABCADD" sketch:type="MSShapeGroup"></path>
            <path d="M60,28 C59.448,28 59,28.448 59,29 L59,29.5 C59,31.981 56.981,34 54.5,34 C52.019,34 50,31.981 50,29.5 C50,28.947 49.552,28.5 49,28.5 C48.448,28.5 48,28.947 48,29.5 C48,33.084 50.916,36 54.5,36 C57.915,36 60.743,33.351 61,30 L61,29 C61,28.448 60.552,28 60,28" id="Fill-946" fill="#ABCADD" sketch:type="MSShapeGroup"></path>
        </g>
    </g>
</svg>