<?xml version="1.0" encoding="UTF-8" standalone="no"?>
<svg width="56px" height="56px" viewBox="0 0 56 56" version="1.1" xmlns="http://www.w3.org/2000/svg" xmlns:xlink="http://www.w3.org/1999/xlink" xmlns:sketch="http://www.bohemiancoding.com/sketch/ns">
    <!-- Generator: Sketch 3.2.2 (9983) - http://www.bohemiancoding.com/sketch -->
    <title>4 - Full Moon (Flat)</title>
    <desc>Created with Sketch.</desc>
    <defs></defs>
    <g id="Page-1" stroke="none" stroke-width="1" fill="none" fill-rule="evenodd" sketch:type="MSPage">
        <g id="4---Full-Moon-(Flat)" sketch:type="MSLayerGroup">
            <path d="M0,28 C0,43.464 12.536,56 28,56 C43.464,56 56,43.464 56,28 C56,12.536 43.464,0 28,0 C12.536,0 0,12.536 0,28" id="Fill-557" fill="#95A5A5" sketch:type="MSShapeGroup"></path>
            <path d="M15,9 C15,9.552 14.552,10 14,10 C13.448,10 13,9.552 13,9 C13,8.448 13.448,8 14,8 C14.552,8 15,8.448 15,9" id="Fill-694" fill="#BDC3C7" sketch:type="MSShapeGroup"></path>
            <path d="M11,13 C11,13.552 10.552,14 10,14 C9.448,14 9,13.552 9,13 C9,12.448 9.448,12 10,12 C10.552,12 11,12.448 11,13" id="Fill-695" fill="#BDC3C7" sketch:type="MSShapeGroup"></path>
            <path d="M7,17 C7,17.552 6.552,18 6,18 C5.448,18 5,17.552 5,17 C5,16.448 5.448,16 6,16 C6.552,16 7,16.448 7,17" id="Fill-696" fill="#BDC3C7" sketch:type="MSShapeGroup"></path>
            <path d="M15,17 C15,17.552 14.552,18 14,18 C13.448,18 13,17.552 13,17 C13,16.448 13.448,16 14,16 C14.552,16 15,16.448 15,17" id="Fill-697" fill="#BDC3C7" sketch:type="MSShapeGroup"></path>
            <path d="M3,21 C3,21.552 2.552,22 2,22 C1.448,22 1,21.552 1,21 C1,20.448 1.448,20 2,20 C2.552,20 3,20.448 3,21" id="Fill-698" fill="#BDC3C7" sketch:type="MSShapeGroup"></path>
            <path d="M11,21 C11,21.552 10.552,22 10,22 C9.448,22 9,21.552 9,21 C9,20.448 9.448,20 10,20 C10.552,20 11,20.448 11,21" id="Fill-699" fill="#BDC3C7" sketch:type="MSShapeGroup"></path>
            <path d="M7,25 C7,25.552 6.552,26 6,26 C5.448,26 5,25.552 5,25 C5,24.448 5.448,24 6,24 C6.552,24 7,24.448 7,25" id="Fill-700" fill="#BDC3C7" sketch:type="MSShapeGroup"></path>
            <path d="M15,25 C15,25.552 14.552,26 14,26 C13.448,26 13,25.552 13,25 C13,24.448 13.448,24 14,24 C14.552,24 15,24.448 15,25" id="Fill-701" fill="#BDC3C7" sketch:type="MSShapeGroup"></path>
            <path d="M3,29 C3,29.552 2.552,30 2,30 C1.448,30 1,29.552 1,29 C1,28.448 1.448,28 2,28 C2.552,28 3,28.448 3,29" id="Fill-702" fill="#BDC3C7" sketch:type="MSShapeGroup"></path>
            <path d="M11,29 C11,29.552 10.552,30 10,30 C9.448,30 9,29.552 9,29 C9,28.448 9.448,28 10,28 C10.552,28 11,28.448 11,29" id="Fill-703" fill="#BDC3C7" sketch:type="MSShapeGroup"></path>
            <path d="M7,33 C7,33.552 6.552,34 6,34 C5.448,34 5,33.552 5,33 C5,32.448 5.448,32 6,32 C6.552,32 7,32.448 7,33" id="Fill-704" fill="#BDC3C7" sketch:type="MSShapeGroup"></path>
            <path d="M15,33 C15,33.552 14.552,34 14,34 C13.448,34 13,33.552 13,33 C13,32.448 13.448,32 14,32 C14.552,32 15,32.448 15,33" id="Fill-705" fill="#BDC3C7" sketch:type="MSShapeGroup"></path>
            <path d="M11,37 C11,37.552 10.552,38 10,38 C9.448,38 9,37.552 9,37 C9,36.448 9.448,36 10,36 C10.552,36 11,36.448 11,37" id="Fill-706" fill="#BDC3C7" sketch:type="MSShapeGroup"></path>
            <path d="M7,41 C7,41.552 6.552,42 6,42 C5.448,42 5,41.552 5,41 C5,40.448 5.448,40 6,40 C6.552,40 7,40.448 7,41" id="Fill-707" fill="#BDC3C7" sketch:type="MSShapeGroup"></path>
            <path d="M15,41 C15,41.552 14.552,42 14,42 C13.448,42 13,41.552 13,41 C13,40.448 13.448,40 14,40 C14.552,40 15,40.448 15,41" id="Fill-708" fill="#BDC3C7" sketch:type="MSShapeGroup"></path>
            <path d="M11,45 C11,45.552 10.552,46 10,46 C9.448,46 9,45.552 9,45 C9,44.448 9.448,44 10,44 C10.552,44 11,44.448 11,45" id="Fill-709" fill="#BDC3C7" sketch:type="MSShapeGroup"></path>
            <path d="M15,49 C15,49.552 14.552,50 14,50 C13.448,50 13,49.552 13,49 C13,48.448 13.448,48 14,48 C14.552,48 15,48.448 15,49" id="Fill-710" fill="#BDC3C7" sketch:type="MSShapeGroup"></path>
            <path d="M23,9 C23,9.552 22.552,10 22,10 C21.448,10 21,9.552 21,9 C21,8.448 21.448,8 22,8 C22.552,8 23,8.448 23,9" id="Fill-711" fill="#BDC3C7" sketch:type="MSShapeGroup"></path>
            <path d="M31,9 C31,9.552 30.552,10 30,10 C29.448,10 29,9.552 29,9 C29,8.448 29.448,8 30,8 C30.552,8 31,8.448 31,9" id="Fill-712" fill="#BDC3C7" sketch:type="MSShapeGroup"></path>
            <path d="M19,13 C19,13.552 18.552,14 18,14 C17.448,14 17,13.552 17,13 C17,12.448 17.448,12 18,12 C18.552,12 19,12.448 19,13" id="Fill-713" fill="#BDC3C7" sketch:type="MSShapeGroup"></path>
            <path d="M27,13 C27,13.552 26.552,14 26,14 C25.448,14 25,13.552 25,13 C25,12.448 25.448,12 26,12 C26.552,12 27,12.448 27,13" id="Fill-714" fill="#BDC3C7" sketch:type="MSShapeGroup"></path>
            <path d="M31,1 C31,1.552 30.552,2 30,2 C29.448,2 29,1.552 29,1 C29,0.448 29.448,0 30,0 C30.552,0 31,0.448 31,1" id="Fill-715" fill="#BDC3C7" sketch:type="MSShapeGroup"></path>
            <path d="M19,5 C19,5.552 18.552,6 18,6 C17.448,6 17,5.552 17,5 C17,4.448 17.448,4 18,4 C18.552,4 19,4.448 19,5" id="Fill-716" fill="#BDC3C7" sketch:type="MSShapeGroup"></path>
            <path d="M27,5 C27,5.552 26.552,6 26,6 C25.448,6 25,5.552 25,5 C25,4.448 25.448,4 26,4 C26.552,4 27,4.448 27,5" id="Fill-717" fill="#BDC3C7" sketch:type="MSShapeGroup"></path>
            <path d="M23,17 C23,17.552 22.552,18 22,18 C21.448,18 21,17.552 21,17 C21,16.448 21.448,16 22,16 C22.552,16 23,16.448 23,17" id="Fill-718" fill="#BDC3C7" sketch:type="MSShapeGroup"></path>
            <path d="M31,17 C31,17.552 30.552,18 30,18 C29.448,18 29,17.552 29,17 C29,16.448 29.448,16 30,16 C30.552,16 31,16.448 31,17" id="Fill-719" fill="#BDC3C7" sketch:type="MSShapeGroup"></path>
            <path d="M19,21 C19,21.552 18.552,22 18,22 C17.448,22 17,21.552 17,21 C17,20.448 17.448,20 18,20 C18.552,20 19,20.448 19,21" id="Fill-720" fill="#BDC3C7" sketch:type="MSShapeGroup"></path>
            <path d="M27,21 C27,21.552 26.552,22 26,22 C25.448,22 25,21.552 25,21 C25,20.448 25.448,20 26,20 C26.552,20 27,20.448 27,21" id="Fill-721" fill="#BDC3C7" sketch:type="MSShapeGroup"></path>
            <path d="M23,25 C23,25.552 22.552,26 22,26 C21.448,26 21,25.552 21,25 C21,24.448 21.448,24 22,24 C22.552,24 23,24.448 23,25" id="Fill-722" fill="#BDC3C7" sketch:type="MSShapeGroup"></path>
            <path d="M31,25 C31,25.552 30.552,26 30,26 C29.448,26 29,25.552 29,25 C29,24.448 29.448,24 30,24 C30.552,24 31,24.448 31,25" id="Fill-723" fill="#BDC3C7" sketch:type="MSShapeGroup"></path>
            <path d="M19,29 C19,29.552 18.552,30 18,30 C17.448,30 17,29.552 17,29 C17,28.448 17.448,28 18,28 C18.552,28 19,28.448 19,29" id="Fill-724" fill="#BDC3C7" sketch:type="MSShapeGroup"></path>
            <path d="M27,29 C27,29.552 26.552,30 26,30 C25.448,30 25,29.552 25,29 C25,28.448 25.448,28 26,28 C26.552,28 27,28.448 27,29" id="Fill-725" fill="#BDC3C7" sketch:type="MSShapeGroup"></path>
            <path d="M23,33 C23,33.552 22.552,34 22,34 C21.448,34 21,33.552 21,33 C21,32.448 21.448,32 22,32 C22.552,32 23,32.448 23,33" id="Fill-726" fill="#BDC3C7" sketch:type="MSShapeGroup"></path>
            <path d="M31,33 C31,33.552 30.552,34 30,34 C29.448,34 29,33.552 29,33 C29,32.448 29.448,32 30,32 C30.552,32 31,32.448 31,33" id="Fill-727" fill="#BDC3C7" sketch:type="MSShapeGroup"></path>
            <path d="M19,37 C19,37.552 18.552,38 18,38 C17.448,38 17,37.552 17,37 C17,36.448 17.448,36 18,36 C18.552,36 19,36.448 19,37" id="Fill-728" fill="#BDC3C7" sketch:type="MSShapeGroup"></path>
            <path d="M27,37 C27,37.552 26.552,38 26,38 C25.448,38 25,37.552 25,37 C25,36.448 25.448,36 26,36 C26.552,36 27,36.448 27,37" id="Fill-729" fill="#BDC3C7" sketch:type="MSShapeGroup"></path>
            <path d="M23,41 C23,41.552 22.552,42 22,42 C21.448,42 21,41.552 21,41 C21,40.448 21.448,40 22,40 C22.552,40 23,40.448 23,41" id="Fill-730" fill="#BDC3C7" sketch:type="MSShapeGroup"></path>
            <path d="M31,41 C31,41.552 30.552,42 30,42 C29.448,42 29,41.552 29,41 C29,40.448 29.448,40 30,40 C30.552,40 31,40.448 31,41" id="Fill-731" fill="#BDC3C7" sketch:type="MSShapeGroup"></path>
            <path d="M19,45 C19,45.552 18.552,46 18,46 C17.448,46 17,45.552 17,45 C17,44.448 17.448,44 18,44 C18.552,44 19,44.448 19,45" id="Fill-732" fill="#BDC3C7" sketch:type="MSShapeGroup"></path>
            <path d="M27,45 C27,45.552 26.552,46 26,46 C25.448,46 25,45.552 25,45 C25,44.448 25.448,44 26,44 C26.552,44 27,44.448 27,45" id="Fill-733" fill="#BDC3C7" sketch:type="MSShapeGroup"></path>
            <path d="M23,49 C23,49.552 22.552,50 22,50 C21.448,50 21,49.552 21,49 C21,48.448 21.448,48 22,48 C22.552,48 23,48.448 23,49" id="Fill-734" fill="#BDC3C7" sketch:type="MSShapeGroup"></path>
            <path d="M31,49 C31,49.552 30.552,50 30,50 C29.448,50 29,49.552 29,49 C29,48.448 29.448,48 30,48 C30.552,48 31,48.448 31,49" id="Fill-735" fill="#BDC3C7" sketch:type="MSShapeGroup"></path>
            <path d="M19,53 C19,53.552 18.552,54 18,54 C17.448,54 17,53.552 17,53 C17,52.448 17.448,52 18,52 C18.552,52 19,52.448 19,53" id="Fill-736" fill="#BDC3C7" sketch:type="MSShapeGroup"></path>
            <path d="M27,53 C27,53.552 26.552,54 26,54 C25.448,54 25,53.552 25,53 C25,52.448 25.448,52 26,52 C26.552,52 27,52.448 27,53" id="Fill-737" fill="#BDC3C7" sketch:type="MSShapeGroup"></path>
            <path d="M39,9 C39,9.552 38.552,10 38,10 C37.448,10 37,9.552 37,9 C37,8.448 37.448,8 38,8 C38.552,8 39,8.448 39,9" id="Fill-738" fill="#BDC3C7" sketch:type="MSShapeGroup"></path>
            <path d="M35,13 C35,13.552 34.552,14 34,14 C33.448,14 33,13.552 33,13 C33,12.448 33.448,12 34,12 C34.552,12 35,12.448 35,13" id="Fill-739" fill="#BDC3C7" sketch:type="MSShapeGroup"></path>
            <path d="M35,5 C35,5.552 34.552,6 34,6 C33.448,6 33,5.552 33,5 C33,4.448 33.448,4 34,4 C34.552,4 35,4.448 35,5" id="Fill-740" fill="#BDC3C7" sketch:type="MSShapeGroup"></path>
            <path d="M39,17 C39,17.552 38.552,18 38,18 C37.448,18 37,17.552 37,17 C37,16.448 37.448,16 38,16 C38.552,16 39,16.448 39,17" id="Fill-741" fill="#BDC3C7" sketch:type="MSShapeGroup"></path>
            <path d="M35,21 C35,21.552 34.552,22 34,22 C33.448,22 33,21.552 33,21 C33,20.448 33.448,20 34,20 C34.552,20 35,20.448 35,21" id="Fill-742" fill="#BDC3C7" sketch:type="MSShapeGroup"></path>
            <path d="M39,25 C39,25.552 38.552,26 38,26 C37.448,26 37,25.552 37,25 C37,24.448 37.448,24 38,24 C38.552,24 39,24.448 39,25" id="Fill-743" fill="#BDC3C7" sketch:type="MSShapeGroup"></path>
            <path d="M35,29 C35,29.552 34.552,30 34,30 C33.448,30 33,29.552 33,29 C33,28.448 33.448,28 34,28 C34.552,28 35,28.448 35,29" id="Fill-744" fill="#BDC3C7" sketch:type="MSShapeGroup"></path>
            <path d="M39,33 C39,33.552 38.552,34 38,34 C37.448,34 37,33.552 37,33 C37,32.448 37.448,32 38,32 C38.552,32 39,32.448 39,33" id="Fill-745" fill="#BDC3C7" sketch:type="MSShapeGroup"></path>
            <path d="M35,37 C35,37.552 34.552,38 34,38 C33.448,38 33,37.552 33,37 C33,36.448 33.448,36 34,36 C34.552,36 35,36.448 35,37" id="Fill-746" fill="#BDC3C7" sketch:type="MSShapeGroup"></path>
            <path d="M39,41 C39,41.552 38.552,42 38,42 C37.448,42 37,41.552 37,41 C37,40.448 37.448,40 38,40 C38.552,40 39,40.448 39,41" id="Fill-747" fill="#BDC3C7" sketch:type="MSShapeGroup"></path>
            <path d="M35,45 C35,45.552 34.552,46 34,46 C33.448,46 33,45.552 33,45 C33,44.448 33.448,44 34,44 C34.552,44 35,44.448 35,45" id="Fill-748" fill="#BDC3C7" sketch:type="MSShapeGroup"></path>
            <path d="M39,49 C39,49.552 38.552,50 38,50 C37.448,50 37,49.552 37,49 C37,48.448 37.448,48 38,48 C38.552,48 39,48.448 39,49" id="Fill-749" fill="#BDC3C7" sketch:type="MSShapeGroup"></path>
            <path d="M35,53 C35,53.552 34.552,54 34,54 C33.448,54 33,53.552 33,53 C33,52.448 33.448,52 34,52 C34.552,52 35,52.448 35,53" id="Fill-750" fill="#BDC3C7" sketch:type="MSShapeGroup"></path>
            <path d="M47,9 C47,9.552 46.552,10 46,10 C45.448,10 45,9.552 45,9 C45,8.448 45.448,8 46,8 C46.552,8 47,8.448 47,9" id="Fill-751" fill="#BDC3C7" sketch:type="MSShapeGroup"></path>
            <path d="M43,13 C43,13.552 42.552,14 42,14 C41.448,14 41,13.552 41,13 C41,12.448 41.448,12 42,12 C42.552,12 43,12.448 43,13" id="Fill-752" fill="#BDC3C7" sketch:type="MSShapeGroup"></path>
            <path d="M43,5 C43,5.552 42.552,6 42,6 C41.448,6 41,5.552 41,5 C41,4.448 41.448,4 42,4 C42.552,4 43,4.448 43,5" id="Fill-753" fill="#BDC3C7" sketch:type="MSShapeGroup"></path>
            <path d="M47,17 C47,17.552 46.552,18 46,18 C45.448,18 45,17.552 45,17 C45,16.448 45.448,16 46,16 C46.552,16 47,16.448 47,17" id="Fill-754" fill="#BDC3C7" sketch:type="MSShapeGroup"></path>
            <path d="M43,21 C43,21.552 42.552,22 42,22 C41.448,22 41,21.552 41,21 C41,20.448 41.448,20 42,20 C42.552,20 43,20.448 43,21" id="Fill-755" fill="#BDC3C7" sketch:type="MSShapeGroup"></path>
            <path d="M47,25 C47,25.552 46.552,26 46,26 C45.448,26 45,25.552 45,25 C45,24.448 45.448,24 46,24 C46.552,24 47,24.448 47,25" id="Fill-756" fill="#BDC3C7" sketch:type="MSShapeGroup"></path>
            <path d="M43,29 C43,29.552 42.552,30 42,30 C41.448,30 41,29.552 41,29 C41,28.448 41.448,28 42,28 C42.552,28 43,28.448 43,29" id="Fill-757" fill="#BDC3C7" sketch:type="MSShapeGroup"></path>
            <path d="M47,33 C47,33.552 46.552,34 46,34 C45.448,34 45,33.552 45,33 C45,32.448 45.448,32 46,32 C46.552,32 47,32.448 47,33" id="Fill-758" fill="#BDC3C7" sketch:type="MSShapeGroup"></path>
            <path d="M43,37 C43,37.552 42.552,38 42,38 C41.448,38 41,37.552 41,37 C41,36.448 41.448,36 42,36 C42.552,36 43,36.448 43,37" id="Fill-759" fill="#BDC3C7" sketch:type="MSShapeGroup"></path>
            <path d="M47,41 C47,41.552 46.552,42 46,42 C45.448,42 45,41.552 45,41 C45,40.448 45.448,40 46,40 C46.552,40 47,40.448 47,41" id="Fill-760" fill="#BDC3C7" sketch:type="MSShapeGroup"></path>
            <path d="M43,45 C43,45.552 42.552,46 42,46 C41.448,46 41,45.552 41,45 C41,44.448 41.448,44 42,44 C42.552,44 43,44.448 43,45" id="Fill-761" fill="#BDC3C7" sketch:type="MSShapeGroup"></path>
            <path d="M51,13 C51,13.552 50.552,14 50,14 C49.448,14 49,13.552 49,13 C49,12.448 49.448,12 50,12 C50.552,12 51,12.448 51,13" id="Fill-762" fill="#BDC3C7" sketch:type="MSShapeGroup"></path>
            <path d="M51,21 C51,21.552 50.552,22 50,22 C49.448,22 49,21.552 49,21 C49,20.448 49.448,20 50,20 C50.552,20 51,20.448 51,21" id="Fill-763" fill="#BDC3C7" sketch:type="MSShapeGroup"></path>
            <path d="M55,25 C55,25.552 54.552,26 54,26 C53.448,26 53,25.552 53,25 C53,24.448 53.448,24 54,24 C54.552,24 55,24.448 55,25" id="Fill-764" fill="#BDC3C7" sketch:type="MSShapeGroup"></path>
            <path d="M51,29 C51,29.552 50.552,30 50,30 C49.448,30 49,29.552 49,29 C49,28.448 49.448,28 50,28 C50.552,28 51,28.448 51,29" id="Fill-765" fill="#BDC3C7" sketch:type="MSShapeGroup"></path>
            <path d="M55,33 C55,33.552 54.552,34 54,34 C53.448,34 53,33.552 53,33 C53,32.448 53.448,32 54,32 C54.552,32 55,32.448 55,33" id="Fill-766" fill="#BDC3C7" sketch:type="MSShapeGroup"></path>
            <path d="M51,37 C51,37.552 50.552,38 50,38 C49.448,38 49,37.552 49,37 C49,36.448 49.448,36 50,36 C50.552,36 51,36.448 51,37" id="Fill-767" fill="#BDC3C7" sketch:type="MSShapeGroup"></path>
        </g>
    </g>
</svg>