<?xml version="1.0" encoding="UTF-8" standalone="no"?>
<svg width="56px" height="56px" viewBox="0 0 56 56" version="1.1" xmlns="http://www.w3.org/2000/svg" xmlns:xlink="http://www.w3.org/1999/xlink" xmlns:sketch="http://www.bohemiancoding.com/sketch/ns">
    <!-- Generator: Sketch 3.2.2 (9983) - http://www.bohemiancoding.com/sketch -->
    <title>14 - Hail (Flat)</title>
    <desc>Created with Sketch.</desc>
    <defs></defs>
    <g id="Page-1" stroke="none" stroke-width="1" fill="none" fill-rule="evenodd" sketch:type="MSPage">
        <g id="14---Hail-(Flat)" sketch:type="MSLayerGroup" transform="translate(1.000000, 0.000000)">
            <path d="M0,55 L54,55" id="Stroke-662" stroke="#7F6E5D" stroke-width="2" stroke-linecap="round" sketch:type="MSShapeGroup"></path>
            <path d="M28.485,38 L25.515,38 C24.678,38 24,37.322 24,36.485 L24,33.515 C24,32.678 24.678,32 25.515,32 L28.485,32 C29.322,32 30,32.678 30,33.515 L30,36.485 C30,37.322 29.322,38 28.485,38" id="Fill-663" fill="#E4ECF4" sketch:type="MSShapeGroup"></path>
            <path d="M46.686,48.414 L44.586,46.314 C43.994,45.722 43.994,44.763 44.586,44.171 L46.686,42.071 C47.278,41.48 48.237,41.48 48.829,42.071 L50.929,44.171 C51.52,44.763 51.52,45.722 50.929,46.314 L48.829,48.414 C48.237,49.006 47.278,49.006 46.686,48.414" id="Fill-664" fill="#BDC3C7" sketch:type="MSShapeGroup"></path>
            <path d="M3.171,48.414 L1.071,46.314 C0.48,45.722 0.48,44.763 1.071,44.171 L3.171,42.071 C3.763,41.48 4.722,41.48 5.314,42.071 L7.414,44.171 C8.006,44.763 8.006,45.722 7.414,46.314 L5.314,48.414 C4.722,49.006 3.763,49.006 3.171,48.414" id="Fill-665" fill="#BDC3C7" sketch:type="MSShapeGroup"></path>
            <path d="M31.544,7.556 L29.444,5.456 C28.852,4.865 28.852,3.905 29.444,3.314 L31.544,1.214 C32.135,0.622 33.095,0.622 33.686,1.214 L35.786,3.314 C36.378,3.905 36.378,4.865 35.786,5.456 L33.686,7.556 C33.095,8.148 32.135,8.148 31.544,7.556" id="Fill-666" fill="#E4ECF4" sketch:type="MSShapeGroup"></path>
            <path d="M14.314,21.556 L12.214,19.456 C11.622,18.864 11.622,17.905 12.214,17.314 L14.314,15.214 C14.905,14.622 15.865,14.622 16.456,15.214 L18.556,17.314 C19.148,17.905 19.148,18.864 18.556,19.456 L16.456,21.556 C15.865,22.148 14.905,22.148 14.314,21.556" id="Fill-667" fill="#E4ECF4" sketch:type="MSShapeGroup"></path>
            <path d="M19.854,49.006 C19.304,49.06 18.902,49.549 18.956,50.099 C18.985,50.394 19,50.696 19,51 C19,51.553 19.447,52 20,52 C20.553,52 21,51.553 21,51 C21,50.63 20.981,50.264 20.946,49.903 C20.893,49.354 20.415,48.956 19.854,49.006" id="Fill-668" fill="#E4ECF4" sketch:type="MSShapeGroup"></path>
            <path d="M19.466,47.614 C19.965,47.378 20.178,46.781 19.94,46.282 C19.671,45.714 19.352,45.167 18.99,44.657 C18.671,44.207 18.047,44.099 17.597,44.418 C17.146,44.737 17.038,45.361 17.357,45.812 C17.652,46.228 17.913,46.675 18.134,47.14 C18.305,47.5 18.664,47.711 19.038,47.711 C19.182,47.711 19.327,47.68 19.466,47.614" id="Fill-669" fill="#E4ECF4" sketch:type="MSShapeGroup"></path>
            <path d="M14.713,41.058 C14.217,40.818 13.619,41.034 13.382,41.533 C13.145,42.032 13.358,42.628 13.857,42.864 C14.319,43.084 14.767,43.345 15.185,43.641 C15.36,43.764 15.562,43.823 15.761,43.823 C16.075,43.823 16.384,43.676 16.579,43.4 C16.898,42.948 16.79,42.325 16.339,42.006 C15.826,41.644 15.279,41.325 14.713,41.058" id="Fill-670" fill="#E4ECF4" sketch:type="MSShapeGroup"></path>
            <path d="M11.097,40.054 C10.736,40.019 10.37,40 10,40 C9.447,40 9,40.447 9,41 C9,41.553 9.447,42 10,42 C10.304,42 10.606,42.015 10.901,42.044 C10.935,42.047 10.968,42.049 11,42.049 C11.509,42.049 11.943,41.663 11.994,41.146 C12.048,40.597 11.646,40.107 11.097,40.054" id="Fill-671" fill="#E4ECF4" sketch:type="MSShapeGroup"></path>
            <path d="M33.146,49.006 C32.587,48.955 32.107,49.354 32.054,49.903 C32.019,50.264 32,50.63 32,51 C32,51.553 32.447,52 33,52 C33.553,52 34,51.553 34,51 C34,50.696 34.015,50.394 34.044,50.099 C34.098,49.549 33.696,49.06 33.146,49.006" id="Fill-672" fill="#E4ECF4" sketch:type="MSShapeGroup"></path>
            <path d="M34.01,44.657 C33.648,45.167 33.329,45.714 33.06,46.282 C32.822,46.781 33.035,47.378 33.534,47.614 C33.673,47.68 33.818,47.711 33.962,47.711 C34.336,47.711 34.695,47.5 34.866,47.14 C35.087,46.675 35.348,46.228 35.643,45.812 C35.962,45.361 35.854,44.737 35.403,44.418 C34.953,44.099 34.329,44.207 34.01,44.657" id="Fill-673" fill="#E4ECF4" sketch:type="MSShapeGroup"></path>
            <path d="M38.287,41.058 C37.721,41.325 37.174,41.644 36.661,42.006 C36.21,42.325 36.102,42.948 36.421,43.4 C36.616,43.676 36.925,43.823 37.239,43.823 C37.438,43.823 37.64,43.764 37.815,43.641 C38.233,43.345 38.681,43.084 39.143,42.864 C39.642,42.628 39.856,42.032 39.618,41.533 C39.382,41.033 38.785,40.821 38.287,41.058" id="Fill-674" fill="#E4ECF4" sketch:type="MSShapeGroup"></path>
            <path d="M43,40 C42.63,40 42.264,40.019 41.903,40.054 C41.354,40.107 40.952,40.597 41.006,41.146 C41.057,41.663 41.491,42.049 42,42.049 C42.032,42.049 42.065,42.047 42.099,42.044 C42.395,42.015 42.696,42 43,42 C43.553,42 44,41.553 44,41 C44,40.447 43.553,40 43,40" id="Fill-675" fill="#E4ECF4" sketch:type="MSShapeGroup"></path>
        </g>
    </g>
</svg>