<?xml version="1.0" encoding="UTF-8" standalone="no"?>
<svg width="43px" height="60px" viewBox="0 0 43 60" version="1.1" xmlns="http://www.w3.org/2000/svg" xmlns:xlink="http://www.w3.org/1999/xlink" xmlns:sketch="http://www.bohemiancoding.com/sketch/ns">
    <!-- Generator: Sketch 3.2.2 (9983) - http://www.bohemiancoding.com/sketch -->
    <title>17 - High Temperature (Flat)</title>
    <desc>Created with Sketch.</desc>
    <defs></defs>
    <g id="Page-1" stroke="none" stroke-width="1" fill="none" fill-rule="evenodd" sketch:type="MSPage">
        <g id="17---High-Temperature-(Flat)" sketch:type="MSLayerGroup">
            <path d="M28,38.787 L28,7 C28,3.686 25.314,1 22,1 C18.686,1 16,3.686 16,7 L16,38.787 C12.659,40.968 10.571,44.908 11.075,49.298 C11.649,54.31 15.729,58.374 20.743,58.93 C27.381,59.666 33,54.489 33,48 C33,44.14 31.008,40.75 28,38.787" id="Fill-394" fill="#D0E8F9" sketch:type="MSShapeGroup"></path>
            <path d="M23,43.101 L23,6 C23,5.447 22.552,5 22,5 C21.448,5 21,5.447 21,6 L21,43.101 C18.718,43.564 17,45.581 17,48 C17,50.761 19.239,53 22,53 C24.761,53 27,50.761 27,48 C27,45.581 25.282,43.564 23,43.101" id="Fill-395" fill="#E64C3C" sketch:type="MSShapeGroup"></path>
            <path d="M18,8 L16,8 C15.448,8 15,7.553 15,7 C15,6.447 15.448,6 16,6 L18,6 C18.552,6 19,6.447 19,7 C19,7.553 18.552,8 18,8" id="Fill-396" fill="#FFFFFF" sketch:type="MSShapeGroup"></path>
            <path d="M18,13 L16,13 C15.448,13 15,12.553 15,12 C15,11.447 15.448,11 16,11 L18,11 C18.552,11 19,11.447 19,12 C19,12.553 18.552,13 18,13" id="Fill-397" fill="#FFFFFF" sketch:type="MSShapeGroup"></path>
            <path d="M18,13 L16,13 C15.448,13 15,12.553 15,12 C15,11.447 15.448,11 16,11 L18,11 C18.552,11 19,11.447 19,12 C19,12.553 18.552,13 18,13" id="Fill-398" fill="#FFFFFF" sketch:type="MSShapeGroup"></path>
            <path d="M18,18 L16,18 C15.448,18 15,17.553 15,17 C15,16.447 15.448,16 16,16 L18,16 C18.552,16 19,16.447 19,17 C19,17.553 18.552,18 18,18" id="Fill-399" fill="#FFFFFF" sketch:type="MSShapeGroup"></path>
            <path d="M18,23 L16,23 C15.448,23 15,22.553 15,22 C15,21.447 15.448,21 16,21 L18,21 C18.552,21 19,21.447 19,22 C19,22.553 18.552,23 18,23" id="Fill-400" fill="#FFFFFF" sketch:type="MSShapeGroup"></path>
            <path d="M18,28 L16,28 C15.448,28 15,27.553 15,27 C15,26.447 15.448,26 16,26 L18,26 C18.552,26 19,26.447 19,27 C19,27.553 18.552,28 18,28" id="Fill-401" fill="#FFFFFF" sketch:type="MSShapeGroup"></path>
            <path d="M18,28 L16,28 C15.448,28 15,27.553 15,27 C15,26.447 15.448,26 16,26 L18,26 C18.552,26 19,26.447 19,27 C19,27.553 18.552,28 18,28" id="Fill-402" fill="#FFFFFF" sketch:type="MSShapeGroup"></path>
            <path d="M18,33 L16,33 C15.448,33 15,32.553 15,32 C15,31.447 15.448,31 16,31 L18,31 C18.552,31 19,31.447 19,32 C19,32.553 18.552,33 18,33" id="Fill-403" fill="#FFFFFF" sketch:type="MSShapeGroup"></path>
            <path d="M18,38 L16,38 C15.448,38 15,37.553 15,37 C15,36.447 15.448,36 16,36 L18,36 C18.552,36 19,36.447 19,37 C19,37.553 18.552,38 18,38" id="Fill-404" fill="#FFFFFF" sketch:type="MSShapeGroup"></path>
            <path d="M28,10 L26,10 C25.448,10 25,9.553 25,9 C25,8.447 25.448,8 26,8 L28,8 C28.552,8 29,8.447 29,9 C29,9.553 28.552,10 28,10" id="Fill-405" fill="#FFFFFF" sketch:type="MSShapeGroup"></path>
            <path d="M28,15 L26,15 C25.448,15 25,14.553 25,14 C25,13.447 25.448,13 26,13 L28,13 C28.552,13 29,13.447 29,14 C29,14.553 28.552,15 28,15" id="Fill-406" fill="#FFFFFF" sketch:type="MSShapeGroup"></path>
            <path d="M28,15 L26,15 C25.448,15 25,14.553 25,14 C25,13.447 25.448,13 26,13 L28,13 C28.552,13 29,13.447 29,14 C29,14.553 28.552,15 28,15" id="Fill-407" fill="#FFFFFF" sketch:type="MSShapeGroup"></path>
            <path d="M28,20 L26,20 C25.448,20 25,19.553 25,19 C25,18.447 25.448,18 26,18 L28,18 C28.552,18 29,18.447 29,19 C29,19.553 28.552,20 28,20" id="Fill-408" fill="#FFFFFF" sketch:type="MSShapeGroup"></path>
            <path d="M28,25 L26,25 C25.448,25 25,24.553 25,24 C25,23.447 25.448,23 26,23 L28,23 C28.552,23 29,23.447 29,24 C29,24.553 28.552,25 28,25" id="Fill-409" fill="#FFFFFF" sketch:type="MSShapeGroup"></path>
            <path d="M28,30 L26,30 C25.448,30 25,29.553 25,29 C25,28.447 25.448,28 26,28 L28,28 C28.552,28 29,28.447 29,29 C29,29.553 28.552,30 28,30" id="Fill-410" fill="#FFFFFF" sketch:type="MSShapeGroup"></path>
            <path d="M28,30 L26,30 C25.448,30 25,29.553 25,29 C25,28.447 25.448,28 26,28 L28,28 C28.552,28 29,28.447 29,29 C29,29.553 28.552,30 28,30" id="Fill-411" fill="#FFFFFF" sketch:type="MSShapeGroup"></path>
            <path d="M28,35 L26,35 C25.448,35 25,34.553 25,34 C25,33.447 25.448,33 26,33 L28,33 C28.552,33 29,33.447 29,34 C29,34.553 28.552,35 28,35" id="Fill-412" fill="#FFFFFF" sketch:type="MSShapeGroup"></path>
            <path d="M41.828,16.828 L41.828,16.828 C40.266,18.39 37.734,18.39 36.172,16.828 C34.609,15.266 34.609,12.734 36.172,11.172 L39,8.343 L41.828,11.172 C43.391,12.734 43.391,15.266 41.828,16.828" id="Fill-445" fill="#0096E6" sketch:type="MSShapeGroup"></path>
            <path d="M6.828,37.828 L6.828,37.828 C5.266,39.39 2.734,39.39 1.172,37.828 C-0.39,36.266 -0.39,33.734 1.172,32.172 L4,29.343 L6.828,32.172 C8.391,33.734 8.391,36.266 6.828,37.828" id="Fill-446" fill="#0096E6" sketch:type="MSShapeGroup"></path>
            <path d="M22.001,60 L22.001,60 C21.547,60 21.087,59.974 20.632,59.924 C15.147,59.315 10.71,54.894 10.081,49.412 C9.579,45.029 11.455,40.807 15,38.261 L15,7 C15,3.141 18.14,0 22,0 C25.86,0 29,3.141 29,7 L29,38.261 C32.141,40.518 34,44.118 34,48 C34,51.205 32.752,54.219 30.485,56.485 C28.219,58.751 25.206,60 22.001,60 L22.001,60 Z M22,2 C19.243,2 17,4.243 17,7 L17,39.328 L16.546,39.625 C13.348,41.713 11.631,45.375 12.068,49.184 C12.591,53.749 16.286,57.43 20.853,57.935 C23.918,58.281 26.914,57.228 29.071,55.071 C30.96,53.183 32,50.671 32,48 C32,44.613 30.3,41.482 27.454,39.625 L27,39.329 L27,7 C27,4.243 24.757,2 22,2 L22,2 Z" id="Fill-842" fill="#CAD1D8" sketch:type="MSShapeGroup"></path>
        </g>
    </g>
</svg>