<?xml version="1.0" encoding="UTF-8" standalone="no"?>
<svg width="58px" height="58px" viewBox="0 0 58 58" version="1.1" xmlns="http://www.w3.org/2000/svg" xmlns:xlink="http://www.w3.org/1999/xlink" xmlns:sketch="http://www.bohemiancoding.com/sketch/ns">
    <!-- Generator: Sketch 3.2.2 (9983) - http://www.bohemiancoding.com/sketch -->
    <title>11 - Icicles (Flat)</title>
    <desc>Created with Sketch.</desc>
    <defs></defs>
    <g id="Page-1" stroke="none" stroke-width="1" fill="none" fill-rule="evenodd" sketch:type="MSPage">
        <g id="11---Icicles-(Flat)" sketch:type="MSLayerGroup">
            <path d="M29,0 C19.214,0 10.567,4.852 5.316,12.276 L8,21 L11.925,10.794 C12.234,9.99 13.403,10.094 13.565,10.939 L18,34 L22.025,13.071 C22.208,12.12 23.58,12.155 23.714,13.114 L29,45 L33.358,13.519 C33.471,12.547 34.865,12.495 35.049,13.457 L39,34 L43.435,10.939 C43.597,10.094 44.766,9.99 45.075,10.794 L49,21 L51.979,11.318 C46.677,4.437 38.359,0 29,0" id="Fill-693" fill="#E4ECF4" sketch:type="MSShapeGroup"></path>
            <path d="M51.979,11.318 L49,21 L45.075,10.794 C44.766,9.99 43.597,10.094 43.435,10.939 L39,34 L35.049,13.457 C34.865,12.495 33.471,12.547 33.358,13.519 L29,45 L23.714,13.114 C23.58,12.155 22.208,12.12 22.025,13.071 L18,34 L13.565,10.939 C13.403,10.094 12.234,9.99 11.925,10.794 L8,21 L5.316,12.276 C1.972,17.003 0,22.769 0,29 C0,45.016 12.984,58 29,58 C45.016,58 58,45.016 58,29 C58,22.342 55.751,16.213 51.979,11.318" id="Fill-820" fill="#84B5CB" sketch:type="MSShapeGroup"></path>
        </g>
    </g>
</svg>