<?xml version="1.0" encoding="UTF-8" standalone="no"?>
<svg width="60px" height="60px" viewBox="0 0 60 60" version="1.1" xmlns="http://www.w3.org/2000/svg" xmlns:xlink="http://www.w3.org/1999/xlink" xmlns:sketch="http://www.bohemiancoding.com/sketch/ns">
    <!-- Generator: Sketch 3.2.2 (9983) - http://www.bohemiancoding.com/sketch -->
    <title>61 - Incoming Tide (Flat)</title>
    <desc>Created with Sketch.</desc>
    <defs></defs>
    <g id="Page-1" stroke="none" stroke-width="1" fill="none" fill-rule="evenodd" sketch:type="MSPage">
        <g id="61---Incoming-Tide-(Flat)" sketch:type="MSLayerGroup" transform="translate(-1.000000, 0.000000)">
            <path d="M53.932,11.066 C53.701,4.927 48.648,0 42.454,0 C36.313,0 31.294,4.844 30.984,10.91 C30.426,10.922 29.865,10.988 29.308,11.119 C26.972,11.669 25.123,13.201 24.079,15.172 C21.197,14.586 18.231,15.604 16.328,17.914 C15.077,19.434 14.449,21.322 14.518,23.273 C9.888,22.439 5.178,24.497 2.674,28.617 C1.078,31.242 0.601,34.331 1.329,37.315 C2.058,40.3 3.904,42.821 6.529,44.417 C6.691,44.516 6.871,44.562 7.048,44.562 C7.386,44.562 7.715,44.392 7.903,44.082 C8.19,43.609 8.04,42.995 7.568,42.708 C5.399,41.39 3.874,39.307 3.272,36.841 C2.671,34.376 3.065,31.824 4.383,29.656 C6.579,26.042 10.83,24.341 14.873,25.395 C15.331,26.865 16.202,28.174 17.419,29.176 C17.605,29.329 17.83,29.403 18.054,29.403 C18.343,29.403 18.629,29.279 18.827,29.039 C19.178,28.612 19.116,27.982 18.69,27.631 C17.675,26.795 17.011,25.69 16.705,24.504 C16.704,24.493 16.698,24.482 16.697,24.471 C16.247,22.684 16.614,20.714 17.872,19.185 C19.229,17.539 21.307,16.762 23.365,17.064 C23.085,18.236 23.058,19.487 23.353,20.738 C23.461,21.199 23.872,21.51 24.325,21.51 C24.401,21.51 24.479,21.501 24.555,21.483 C25.093,21.356 25.426,20.818 25.3,20.281 C24.542,17.06 26.546,13.824 29.767,13.066 C32.981,12.308 36.223,14.312 36.98,17.533 C37.107,18.07 37.646,18.398 38.184,18.277 C38.721,18.15 39.054,17.612 38.928,17.074 C38.438,14.994 37.168,13.229 35.352,12.104 C34.605,11.643 33.802,11.319 32.973,11.123 C33.173,6.06 37.343,2 42.454,2 C47.548,2 51.707,6.033 51.932,11.073 C48.003,11.577 44.954,14.936 44.954,19 C44.954,19.553 45.401,20 45.954,20 C46.507,20 46.954,19.553 46.954,19 C46.954,15.691 49.646,13 52.954,13 C56.263,13 58.954,15.691 58.954,19 C58.954,19.553 59.401,20 59.954,20 C60.507,20 60.954,19.553 60.954,19 C60.954,14.921 57.883,11.551 53.932,11.066" id="Fill-903" fill="#ABCADD" sketch:type="MSShapeGroup"></path>
            <path d="M60.976,18.075 L60.895,18.075 C60.93,18.379 60.954,18.687 60.954,19 C60.954,19.553 60.507,20 59.954,20 C59.401,20 58.954,19.553 58.954,19 C58.954,15.691 56.263,13 52.954,13 C49.646,13 46.954,15.691 46.954,19 C46.954,19.553 46.507,20 45.954,20 C45.401,20 44.954,19.553 44.954,19 C44.954,14.936 48.003,11.577 51.932,11.073 C51.707,6.033 47.548,2 42.454,2 C37.343,2 33.173,6.06 32.973,11.123 C33.802,11.319 34.605,11.643 35.352,12.104 C37.168,13.229 38.438,14.994 38.928,17.074 C39.054,17.612 38.721,18.15 38.184,18.277 C37.646,18.398 37.107,18.07 36.98,17.533 C36.223,14.312 32.981,12.308 29.767,13.066 C26.546,13.824 24.542,17.06 25.3,20.281 C25.426,20.818 25.093,21.356 24.555,21.483 C24.479,21.501 24.401,21.51 24.325,21.51 C23.872,21.51 23.461,21.199 23.353,20.738 C23.058,19.487 23.085,18.236 23.365,17.064 C21.307,16.762 19.229,17.539 17.872,19.185 C16.614,20.714 16.247,22.684 16.697,24.471 C16.698,24.482 16.704,24.493 16.705,24.504 C17.011,25.69 17.675,26.795 18.69,27.631 C19.116,27.982 19.178,28.612 18.827,29.039 C18.629,29.279 18.343,29.403 18.054,29.403 C17.83,29.403 17.605,29.329 17.419,29.176 C16.202,28.174 15.331,26.865 14.873,25.395 C10.83,24.341 6.579,26.042 4.383,29.656 C3.065,31.824 2.671,34.376 3.272,36.841 C3.831,39.131 5.194,41.082 7.122,42.406 C8.049,42.145 9.013,42 10,42 C12.589,42 15.04,42.925 17,44.624 C18.96,42.925 21.411,42 24,42 C26.589,42 29.04,42.925 31,44.624 C32.96,42.925 35.411,42 38,42 C40.589,42 43.04,42.925 45,44.624 C46.96,42.925 49.411,42 52,42 C52.892,42 53.765,42.123 54.61,42.336 C58.499,39.218 61,34.437 61,29.075 L61,19.075 L60.976,18.075" id="Fill-923" fill="#D0E8F9" sketch:type="MSShapeGroup"></path>
            <path d="M46.09,43.805 C47.837,42.636 49.869,42 52,42 C54.673,42 57.193,42.997 59.183,44.802 C59.696,44.017 60,43.083 60,42.075 C60,39.314 57.761,37.075 55,37.075 C55,33.209 51.866,30.075 48,30.075 C44.134,30.075 41,33.209 41,37.075 C41,40.278 43.154,42.972 46.09,43.805" id="Fill-924" fill="#BFDDEF" sketch:type="MSShapeGroup"></path>
            <path d="M55.943,36.157 C55.485,32.177 52.1,29.075 48,29.075 C43.589,29.075 40,32.664 40,37.075 C40,37.627 40.448,38.075 41,38.075 C41.552,38.075 42,37.627 42,37.075 C42,33.767 44.691,31.075 48,31.075 C51.003,31.075 53.49,33.294 53.925,36.177 C51.129,36.685 49,39.134 49,42.075 C49,42.627 49.448,43.075 50,43.075 C50.552,43.075 51,42.627 51,42.075 C51,39.87 52.794,38.075 55,38.075 C57.206,38.075 59,39.87 59,42.075 C59,42.627 59.448,43.075 60,43.075 C60.552,43.075 61,42.627 61,42.075 C61,39.088 58.804,36.612 55.943,36.157" id="Fill-925" fill="#ABCADD" sketch:type="MSShapeGroup"></path>
            <path d="M45,52.438 L44.281,51.695 C42.6,49.957 40.369,49 38,49 C35.631,49 33.4,49.957 31.719,51.695 L31,52.438 L30.281,51.695 C28.6,49.957 26.369,49 24,49 C21.631,49 19.4,49.957 17.719,51.695 L17,52.438 L16.281,51.695 C14.6,49.957 12.369,49 10,49 C7.631,49 5.4,49.957 3.719,51.695 C3.335,52.092 2.702,52.104 2.305,51.719 C1.908,51.335 1.897,50.702 2.281,50.305 C4.343,48.174 7.084,47 10,47 C12.589,47 15.04,47.925 17,49.624 C18.96,47.925 21.411,47 24,47 C26.589,47 29.04,47.925 31,49.624 C32.96,47.925 35.411,47 38,47 C40.589,47 43.04,47.925 45,49.624 C46.96,47.925 49.411,47 52,47 C54.916,47 57.657,48.174 59.719,50.305 C60.103,50.702 60.092,51.335 59.695,51.719 C59.299,52.104 58.666,52.092 58.281,51.695 C56.6,49.957 54.369,49 52,49 C49.631,49 47.4,49.957 45.719,51.695 L45,52.438" id="Fill-1023" fill="#0096E6" sketch:type="MSShapeGroup"></path>
            <path d="M45,45.438 L44.281,44.695 C42.6,42.957 40.369,42 38,42 C35.631,42 33.4,42.957 31.719,44.695 L31,45.438 L30.281,44.695 C28.6,42.957 26.369,42 24,42 C21.631,42 19.4,42.957 17.719,44.695 L17,45.438 L16.281,44.695 C14.6,42.957 12.369,42 10,42 C7.631,42 5.4,42.957 3.719,44.695 C3.335,45.092 2.702,45.104 2.305,44.719 C1.908,44.335 1.897,43.702 2.281,43.305 C4.343,41.174 7.084,40 10,40 C12.589,40 15.04,40.925 17,42.624 C18.96,40.925 21.411,40 24,40 C26.589,40 29.04,40.925 31,42.624 C32.96,40.925 35.411,40 38,40 C40.589,40 43.04,40.925 45,42.624 C46.96,40.925 49.411,40 52,40 C54.916,40 57.657,41.174 59.719,43.305 C60.103,43.702 60.092,44.335 59.695,44.719 C59.299,45.104 58.666,45.092 58.281,44.695 C56.6,42.957 54.369,42 52,42 C49.631,42 47.4,42.957 45.719,44.695 L45,45.438" id="Fill-1024" fill="#0096E6" sketch:type="MSShapeGroup"></path>
            <path d="M45,59.438 L44.281,58.695 C42.6,56.957 40.369,56 38,56 C35.631,56 33.4,56.957 31.719,58.695 L31,59.438 L30.281,58.695 C28.6,56.957 26.369,56 24,56 C21.631,56 19.4,56.957 17.719,58.695 L17,59.438 L16.281,58.695 C14.6,56.957 12.369,56 10,56 C7.631,56 5.4,56.957 3.719,58.695 C3.335,59.092 2.702,59.104 2.305,58.719 C1.908,58.335 1.897,57.702 2.281,57.305 C4.343,55.174 7.084,54 10,54 C12.589,54 15.04,54.925 17,56.624 C18.96,54.925 21.411,54 24,54 C26.589,54 29.04,54.925 31,56.624 C32.96,54.925 35.411,54 38,54 C40.589,54 43.04,54.925 45,56.624 C46.96,54.925 49.411,54 52,54 C54.916,54 57.657,55.174 59.719,57.305 C60.103,57.702 60.092,58.335 59.695,58.719 C59.299,59.104 58.666,59.092 58.281,58.695 C56.6,56.957 54.369,56 52,56 C49.631,56 47.4,56.957 45.719,58.695 L45,59.438" id="Fill-1025" fill="#0096E6" sketch:type="MSShapeGroup"></path>
        </g>
    </g>
</svg>