<?xml version="1.0" encoding="UTF-8" standalone="no"?>
<svg width="56px" height="56px" viewBox="0 0 56 56" version="1.1" xmlns="http://www.w3.org/2000/svg" xmlns:xlink="http://www.w3.org/1999/xlink" xmlns:sketch="http://www.bohemiancoding.com/sketch/ns">
    <!-- Generator: Sketch 3.2.2 (9983) - http://www.bohemiancoding.com/sketch -->
    <title>9 - Last Moon Quarter (Flat)</title>
    <desc>Created with Sketch.</desc>
    <defs></defs>
    <g id="Page-1" stroke="none" stroke-width="1" fill="none" fill-rule="evenodd" sketch:type="MSPage">
        <g id="9---Last-Moon-Quarter-(Flat)" sketch:type="MSLayerGroup">
            <path d="M28,0 L28,56 C43.464,56 56,43.464 56,28 C56,12.536 43.464,0 28,0" id="Fill-67" fill="#95A5A5" sketch:type="MSShapeGroup"></path>
            <path d="M0,28 C0,12.536 12.536,0 28,0 L28,56 C12.536,56 0,43.464 0,28" id="Fill-487" fill="#BDC3C7" sketch:type="MSShapeGroup"></path>
            <path d="M34,47 C34,46.448 33.552,46 33,46 C32.448,46 32,46.448 32,47 C32,47.552 32.448,48 33,48 C33.552,48 34,47.552 34,47" id="Fill-488" fill="#BDC3C7" sketch:type="MSShapeGroup"></path>
            <path d="M42,47 C42,46.448 41.552,46 41,46 C40.448,46 40,46.448 40,47 C40,47.552 40.448,48 41,48 C41.552,48 42,47.552 42,47" id="Fill-489" fill="#BDC3C7" sketch:type="MSShapeGroup"></path>
            <path d="M30,43 C30,42.448 29.552,42 29,42 C28.448,42 28,42.448 28,43 C28,43.552 28.448,44 29,44 C29.552,44 30,43.552 30,43" id="Fill-490" fill="#BDC3C7" sketch:type="MSShapeGroup"></path>
            <path d="M38,43 C38,42.448 37.552,42 37,42 C36.448,42 36,42.448 36,43 C36,43.552 36.448,44 37,44 C37.552,44 38,43.552 38,43" id="Fill-491" fill="#BDC3C7" sketch:type="MSShapeGroup"></path>
            <path d="M30,51 C30,50.448 29.552,50 29,50 C28.448,50 28,50.448 28,51 C28,51.552 28.448,52 29,52 C29.552,52 30,51.552 30,51" id="Fill-492" fill="#BDC3C7" sketch:type="MSShapeGroup"></path>
            <path d="M38,51 C38,50.448 37.552,50 37,50 C36.448,50 36,50.448 36,51 C36,51.552 36.448,52 37,52 C37.552,52 38,51.552 38,51" id="Fill-493" fill="#BDC3C7" sketch:type="MSShapeGroup"></path>
            <path d="M34,39 C34,38.448 33.552,38 33,38 C32.448,38 32,38.448 32,39 C32,39.552 32.448,40 33,40 C33.552,40 34,39.552 34,39" id="Fill-494" fill="#BDC3C7" sketch:type="MSShapeGroup"></path>
            <path d="M42,39 C42,38.448 41.552,38 41,38 C40.448,38 40,38.448 40,39 C40,39.552 40.448,40 41,40 C41.552,40 42,39.552 42,39" id="Fill-495" fill="#BDC3C7" sketch:type="MSShapeGroup"></path>
            <path d="M30,35 C30,34.448 29.552,34 29,34 C28.448,34 28,34.448 28,35 C28,35.552 28.448,36 29,36 C29.552,36 30,35.552 30,35" id="Fill-496" fill="#BDC3C7" sketch:type="MSShapeGroup"></path>
            <path d="M38,35 C38,34.448 37.552,34 37,34 C36.448,34 36,34.448 36,35 C36,35.552 36.448,36 37,36 C37.552,36 38,35.552 38,35" id="Fill-497" fill="#BDC3C7" sketch:type="MSShapeGroup"></path>
            <path d="M34,31 C34,30.448 33.552,30 33,30 C32.448,30 32,30.448 32,31 C32,31.552 32.448,32 33,32 C33.552,32 34,31.552 34,31" id="Fill-498" fill="#BDC3C7" sketch:type="MSShapeGroup"></path>
            <path d="M42,31 C42,30.448 41.552,30 41,30 C40.448,30 40,30.448 40,31 C40,31.552 40.448,32 41,32 C41.552,32 42,31.552 42,31" id="Fill-499" fill="#BDC3C7" sketch:type="MSShapeGroup"></path>
            <path d="M30,27 C30,26.448 29.552,26 29,26 C28.448,26 28,26.448 28,27 C28,27.552 28.448,28 29,28 C29.552,28 30,27.552 30,27" id="Fill-500" fill="#BDC3C7" sketch:type="MSShapeGroup"></path>
            <path d="M38,27 C38,26.448 37.552,26 37,26 C36.448,26 36,26.448 36,27 C36,27.552 36.448,28 37,28 C37.552,28 38,27.552 38,27" id="Fill-501" fill="#BDC3C7" sketch:type="MSShapeGroup"></path>
            <path d="M34,23 C34,22.448 33.552,22 33,22 C32.448,22 32,22.448 32,23 C32,23.552 32.448,24 33,24 C33.552,24 34,23.552 34,23" id="Fill-502" fill="#BDC3C7" sketch:type="MSShapeGroup"></path>
            <path d="M42,23 C42,22.448 41.552,22 41,22 C40.448,22 40,22.448 40,23 C40,23.552 40.448,24 41,24 C41.552,24 42,23.552 42,23" id="Fill-503" fill="#BDC3C7" sketch:type="MSShapeGroup"></path>
            <path d="M30,19 C30,18.448 29.552,18 29,18 C28.448,18 28,18.448 28,19 C28,19.552 28.448,20 29,20 C29.552,20 30,19.552 30,19" id="Fill-504" fill="#BDC3C7" sketch:type="MSShapeGroup"></path>
            <path d="M38,19 C38,18.448 37.552,18 37,18 C36.448,18 36,18.448 36,19 C36,19.552 36.448,20 37,20 C37.552,20 38,19.552 38,19" id="Fill-505" fill="#BDC3C7" sketch:type="MSShapeGroup"></path>
            <path d="M34,15 C34,14.448 33.552,14 33,14 C32.448,14 32,14.448 32,15 C32,15.552 32.448,16 33,16 C33.552,16 34,15.552 34,15" id="Fill-506" fill="#BDC3C7" sketch:type="MSShapeGroup"></path>
            <path d="M42,15 C42,14.448 41.552,14 41,14 C40.448,14 40,14.448 40,15 C40,15.552 40.448,16 41,16 C41.552,16 42,15.552 42,15" id="Fill-507" fill="#BDC3C7" sketch:type="MSShapeGroup"></path>
            <path d="M30,11 C30,10.448 29.552,10 29,10 C28.448,10 28,10.448 28,11 C28,11.552 28.448,12 29,12 C29.552,12 30,11.552 30,11" id="Fill-508" fill="#BDC3C7" sketch:type="MSShapeGroup"></path>
            <path d="M38,11 C38,10.448 37.552,10 37,10 C36.448,10 36,10.448 36,11 C36,11.552 36.448,12 37,12 C37.552,12 38,11.552 38,11" id="Fill-509" fill="#BDC3C7" sketch:type="MSShapeGroup"></path>
            <path d="M34,7 C34,6.448 33.552,6 33,6 C32.448,6 32,6.448 32,7 C32,7.552 32.448,8 33,8 C33.552,8 34,7.552 34,7" id="Fill-510" fill="#BDC3C7" sketch:type="MSShapeGroup"></path>
            <path d="M42,7 C42,6.448 41.552,6 41,6 C40.448,6 40,6.448 40,7 C40,7.552 40.448,8 41,8 C41.552,8 42,7.552 42,7" id="Fill-511" fill="#BDC3C7" sketch:type="MSShapeGroup"></path>
            <path d="M30,3 C30,2.448 29.552,2 29,2 C28.448,2 28,2.448 28,3 C28,3.552 28.448,4 29,4 C29.552,4 30,3.552 30,3" id="Fill-512" fill="#BDC3C7" sketch:type="MSShapeGroup"></path>
            <path d="M38,3 C38,2.448 37.552,2 37,2 C36.448,2 36,2.448 36,3 C36,3.552 36.448,4 37,4 C37.552,4 38,3.552 38,3" id="Fill-513" fill="#BDC3C7" sketch:type="MSShapeGroup"></path>
            <path d="M46,43 C46,42.448 45.552,42 45,42 C44.448,42 44,42.448 44,43 C44,43.552 44.448,44 45,44 C45.552,44 46,43.552 46,43" id="Fill-514" fill="#BDC3C7" sketch:type="MSShapeGroup"></path>
            <path d="M50,39 C50,38.448 49.552,38 49,38 C48.448,38 48,38.448 48,39 C48,39.552 48.448,40 49,40 C49.552,40 50,39.552 50,39" id="Fill-515" fill="#BDC3C7" sketch:type="MSShapeGroup"></path>
            <path d="M46,35 C46,34.448 45.552,34 45,34 C44.448,34 44,34.448 44,35 C44,35.552 44.448,36 45,36 C45.552,36 46,35.552 46,35" id="Fill-516" fill="#BDC3C7" sketch:type="MSShapeGroup"></path>
            <path d="M54,35 C54,34.448 53.552,34 53,34 C52.448,34 52,34.448 52,35 C52,35.552 52.448,36 53,36 C53.552,36 54,35.552 54,35" id="Fill-517" fill="#BDC3C7" sketch:type="MSShapeGroup"></path>
            <path d="M50,31 C50,30.448 49.552,30 49,30 C48.448,30 48,30.448 48,31 C48,31.552 48.448,32 49,32 C49.552,32 50,31.552 50,31" id="Fill-518" fill="#BDC3C7" sketch:type="MSShapeGroup"></path>
            <path d="M46,27 C46,26.448 45.552,26 45,26 C44.448,26 44,26.448 44,27 C44,27.552 44.448,28 45,28 C45.552,28 46,27.552 46,27" id="Fill-519" fill="#BDC3C7" sketch:type="MSShapeGroup"></path>
            <path d="M54,27 C54,26.448 53.552,26 53,26 C52.448,26 52,26.448 52,27 C52,27.552 52.448,28 53,28 C53.552,28 54,27.552 54,27" id="Fill-520" fill="#BDC3C7" sketch:type="MSShapeGroup"></path>
            <path d="M50,23 C50,22.448 49.552,22 49,22 C48.448,22 48,22.448 48,23 C48,23.552 48.448,24 49,24 C49.552,24 50,23.552 50,23" id="Fill-521" fill="#BDC3C7" sketch:type="MSShapeGroup"></path>
            <path d="M46,19 C46,18.448 45.552,18 45,18 C44.448,18 44,18.448 44,19 C44,19.552 44.448,20 45,20 C45.552,20 46,19.552 46,19" id="Fill-522" fill="#BDC3C7" sketch:type="MSShapeGroup"></path>
            <path d="M54,19 C54,18.448 53.552,18 53,18 C52.448,18 52,18.448 52,19 C52,19.552 52.448,20 53,20 C53.552,20 54,19.552 54,19" id="Fill-523" fill="#BDC3C7" sketch:type="MSShapeGroup"></path>
            <path d="M50,15 C50,14.448 49.552,14 49,14 C48.448,14 48,14.448 48,15 C48,15.552 48.448,16 49,16 C49.552,16 50,15.552 50,15" id="Fill-524" fill="#BDC3C7" sketch:type="MSShapeGroup"></path>
            <path d="M46,11 C46,10.448 45.552,10 45,10 C44.448,10 44,10.448 44,11 C44,11.552 44.448,12 45,12 C45.552,12 46,11.552 46,11" id="Fill-525" fill="#BDC3C7" sketch:type="MSShapeGroup"></path>
        </g>
    </g>
</svg>