<?xml version="1.0" encoding="UTF-8" standalone="no"?>
<svg width="52px" height="60px" viewBox="0 0 52 60" version="1.1" xmlns="http://www.w3.org/2000/svg" xmlns:xlink="http://www.w3.org/1999/xlink" xmlns:sketch="http://www.bohemiancoding.com/sketch/ns">
    <!-- Generator: Sketch 3.2.2 (9983) - http://www.bohemiancoding.com/sketch -->
    <title>15 - Low Temperature (Flat)</title>
    <desc>Created with Sketch.</desc>
    <defs></defs>
    <g id="Page-1" stroke="none" stroke-width="1" fill="none" fill-rule="evenodd" sketch:type="MSPage">
        <g id="15---Low-Temperature-(Flat)" sketch:type="MSLayerGroup">
            <path d="M33,38.787 L33,7 C33,3.686 30.314,1 27,1 C23.686,1 21,3.686 21,7 L21,38.787 C17.659,40.968 15.571,44.908 16.075,49.298 C16.649,54.31 20.729,58.374 25.743,58.93 C32.381,59.666 38,54.489 38,48 C38,44.14 36.008,40.75 33,38.787" id="Fill-428" fill="#D0E8F9" sketch:type="MSShapeGroup"></path>
            <path d="M28,43.101 L28,37 C28,36.447 27.553,36 27,36 C26.447,36 26,36.447 26,37 L26,43.101 C23.718,43.564 22,45.581 22,48 C22,50.761 24.239,53 27,53 C29.761,53 32,50.761 32,48 C32,45.581 30.282,43.564 28,43.101" id="Fill-429" fill="#0096E6" sketch:type="MSShapeGroup"></path>
            <path d="M23,6 L21,6 C20.447,6 20,6.447 20,7 C20,7.553 20.447,8 21,8 L23,8 C23.553,8 24,7.553 24,7 C24,6.447 23.553,6 23,6" id="Fill-430" fill="#FFFFFF" sketch:type="MSShapeGroup"></path>
            <path d="M23,11 L21,11 C20.447,11 20,11.447 20,12 C20,12.553 20.447,13 21,13 L23,13 C23.553,13 24,12.553 24,12 C24,11.447 23.553,11 23,11" id="Fill-431" fill="#FFFFFF" sketch:type="MSShapeGroup"></path>
            <path d="M23,16 L21,16 C20.447,16 20,16.447 20,17 C20,17.553 20.447,18 21,18 L23,18 C23.553,18 24,17.553 24,17 C24,16.447 23.553,16 23,16" id="Fill-432" fill="#FFFFFF" sketch:type="MSShapeGroup"></path>
            <path d="M23,21 L21,21 C20.447,21 20,21.447 20,22 C20,22.553 20.447,23 21,23 L23,23 C23.553,23 24,22.553 24,22 C24,21.447 23.553,21 23,21" id="Fill-433" fill="#FFFFFF" sketch:type="MSShapeGroup"></path>
            <path d="M23,26 L21,26 C20.447,26 20,26.447 20,27 C20,27.553 20.447,28 21,28 L23,28 C23.553,28 24,27.553 24,27 C24,26.447 23.553,26 23,26" id="Fill-434" fill="#FFFFFF" sketch:type="MSShapeGroup"></path>
            <path d="M23,31 L21,31 C20.447,31 20,31.447 20,32 C20,32.553 20.447,33 21,33 L23,33 C23.553,33 24,32.553 24,32 C24,31.447 23.553,31 23,31" id="Fill-435" fill="#FFFFFF" sketch:type="MSShapeGroup"></path>
            <path d="M23,36 L21,36 C20.447,36 20,36.447 20,37 C20,37.553 20.447,38 21,38 L23,38 C23.553,38 24,37.553 24,37 C24,36.447 23.553,36 23,36" id="Fill-436" fill="#FFFFFF" sketch:type="MSShapeGroup"></path>
            <path d="M31,10 L33,10 C33.553,10 34,9.553 34,9 C34,8.447 33.553,8 33,8 L31,8 C30.447,8 30,8.447 30,9 C30,9.553 30.447,10 31,10" id="Fill-437" fill="#FFFFFF" sketch:type="MSShapeGroup"></path>
            <path d="M33,13 L31,13 C30.447,13 30,13.447 30,14 C30,14.553 30.447,15 31,15 L33,15 C33.553,15 34,14.553 34,14 C34,13.447 33.553,13 33,13" id="Fill-438" fill="#FFFFFF" sketch:type="MSShapeGroup"></path>
            <path d="M33,18 L31,18 C30.447,18 30,18.447 30,19 C30,19.553 30.447,20 31,20 L33,20 C33.553,20 34,19.553 34,19 C34,18.447 33.553,18 33,18" id="Fill-439" fill="#FFFFFF" sketch:type="MSShapeGroup"></path>
            <path d="M33,23 L31,23 C30.447,23 30,23.447 30,24 C30,24.553 30.447,25 31,25 L33,25 C33.553,25 34,24.553 34,24 C34,23.447 33.553,23 33,23" id="Fill-440" fill="#FFFFFF" sketch:type="MSShapeGroup"></path>
            <path d="M33,28 L31,28 C30.447,28 30,28.447 30,29 C30,29.553 30.447,30 31,30 L33,30 C33.553,30 34,29.553 34,29 C34,28.447 33.553,28 33,28" id="Fill-441" fill="#FFFFFF" sketch:type="MSShapeGroup"></path>
            <path d="M33,33 L31,33 C30.447,33 30,33.447 30,34 C30,34.553 30.447,35 31,35 L33,35 C33.553,35 34,34.553 34,34 C34,33.447 33.553,33 33,33" id="Fill-442" fill="#FFFFFF" sketch:type="MSShapeGroup"></path>
            <path d="M50.83,13.634 L48,12 L50.83,10.366 C51.309,10.09 51.473,9.479 51.196,9 C50.919,8.52 50.307,8.357 49.83,8.634 L47,10.268 L47,7 C47,6.447 46.553,6 46,6 C45.447,6 45,6.447 45,7 L45,10.268 L42.17,8.634 C41.692,8.357 41.08,8.52 40.804,9 C40.527,9.479 40.691,10.09 41.17,10.366 L44,12 L41.17,13.634 C40.691,13.91 40.527,14.521 40.804,15 C40.989,15.321 41.325,15.5 41.671,15.5 C41.841,15.5 42.013,15.457 42.17,15.366 L45,13.732 L45,17 C45,17.553 45.447,18 46,18 C46.553,18 47,17.553 47,17 L47,13.732 L49.83,15.366 C49.987,15.457 50.159,15.5 50.329,15.5 C50.675,15.5 51.011,15.321 51.196,15 C51.473,14.521 51.309,13.91 50.83,13.634" id="Fill-443" fill="#E4ECF4" sketch:type="MSShapeGroup"></path>
            <path d="M10.83,40.634 L8,39 L10.83,37.366 C11.309,37.09 11.473,36.479 11.196,36 C10.919,35.52 10.306,35.357 9.83,35.634 L7,37.268 L7,34 C7,33.447 6.553,33 6,33 C5.447,33 5,33.447 5,34 L5,37.268 L2.17,35.634 C1.691,35.357 1.08,35.52 0.804,36 C0.527,36.479 0.691,37.09 1.17,37.366 L4,39 L1.17,40.634 C0.691,40.91 0.527,41.521 0.804,42 C0.989,42.321 1.325,42.5 1.671,42.5 C1.841,42.5 2.013,42.457 2.17,42.366 L5,40.732 L5,44 C5,44.553 5.447,45 6,45 C6.553,45 7,44.553 7,44 L7,40.732 L9.83,42.366 C9.987,42.457 10.159,42.5 10.329,42.5 C10.675,42.5 11.011,42.321 11.196,42 C11.473,41.521 11.309,40.91 10.83,40.634" id="Fill-444" fill="#E4ECF4" sketch:type="MSShapeGroup"></path>
            <path d="M27,60 L27,60 C26.547,60 26.087,59.974 25.632,59.924 C20.148,59.315 15.71,54.894 15.081,49.412 C14.579,45.029 16.455,40.808 20,38.261 L20,7 C20,3.141 23.141,0 27,0 C30.859,0 34,3.141 34,7 L34,38.261 C37.141,40.518 39,44.118 39,48 C39,51.205 37.752,54.219 35.485,56.485 C33.219,58.751 30.205,60 27,60 L27,60 Z M27,2 C24.243,2 22,4.243 22,7 L22,39.328 L21.547,39.624 C18.348,41.713 16.632,45.376 17.067,49.184 C17.592,53.749 21.286,57.43 25.853,57.935 C28.917,58.281 31.913,57.228 34.071,55.071 C35.96,53.183 37,50.671 37,48 C37,44.613 35.301,41.482 32.453,39.625 L32,39.329 L32,7 C32,4.243 29.757,2 27,2 L27,2 Z" id="Fill-844" fill="#CAD1D8" sketch:type="MSShapeGroup"></path>
        </g>
    </g>
</svg>