<?xml version="1.0" encoding="UTF-8" standalone="no"?>
<svg width="60px" height="60px" viewBox="0 0 60 60" version="1.1" xmlns="http://www.w3.org/2000/svg" xmlns:xlink="http://www.w3.org/1999/xlink" xmlns:sketch="http://www.bohemiancoding.com/sketch/ns">
    <!-- Generator: Sketch 3.2.2 (9983) - http://www.bohemiancoding.com/sketch -->
    <title>62 - Low Tide (Flat)</title>
    <desc>Created with Sketch.</desc>
    <defs></defs>
    <g id="Page-1" stroke="none" stroke-width="1" fill="none" fill-rule="evenodd" sketch:type="MSPage">
        <g id="62---Low-Tide-(Flat)" sketch:type="MSLayerGroup" transform="translate(-1.000000, 0.000000)">
            <path d="M53.932,11.066 C53.701,4.927 48.648,0 42.454,0 C36.312,0 31.294,4.844 30.984,10.91 C30.426,10.922 29.865,10.988 29.308,11.119 C26.972,11.669 25.123,13.201 24.079,15.172 C21.197,14.586 18.231,15.604 16.328,17.914 C15.077,19.434 14.449,21.322 14.518,23.273 C9.888,22.439 5.178,24.497 2.674,28.617 C1.078,31.242 0.601,34.331 1.329,37.315 C2.058,40.3 3.904,42.821 6.529,44.417 C6.692,44.516 6.871,44.562 7.048,44.562 C7.386,44.562 7.715,44.392 7.903,44.082 C8.19,43.609 8.04,42.995 7.568,42.708 C5.4,41.39 3.874,39.307 3.273,36.841 C2.671,34.376 3.065,31.824 4.383,29.656 C6.579,26.042 10.83,24.341 14.873,25.395 C15.331,26.865 16.202,28.174 17.419,29.176 C17.605,29.329 17.83,29.403 18.054,29.403 C18.343,29.403 18.629,29.279 18.827,29.039 C19.178,28.612 19.116,27.982 18.69,27.631 C17.675,26.795 17.011,25.69 16.705,24.504 C16.704,24.493 16.698,24.482 16.697,24.471 C16.247,22.684 16.614,20.714 17.872,19.185 C19.228,17.539 21.307,16.762 23.365,17.064 C23.085,18.236 23.058,19.487 23.353,20.738 C23.461,21.199 23.872,21.51 24.325,21.51 C24.401,21.51 24.479,21.501 24.555,21.483 C25.093,21.356 25.426,20.818 25.3,20.281 C24.542,17.06 26.546,13.824 29.767,13.066 C32.981,12.308 36.223,14.312 36.98,17.533 C37.108,18.07 37.646,18.398 38.184,18.277 C38.721,18.15 39.054,17.612 38.928,17.074 C38.438,14.994 37.168,13.229 35.352,12.104 C34.605,11.643 33.802,11.319 32.973,11.123 C33.173,6.06 37.343,2 42.454,2 C47.548,2 51.707,6.033 51.932,11.073 C48.003,11.577 44.954,14.936 44.954,19 C44.954,19.553 45.401,20 45.954,20 C46.507,20 46.954,19.553 46.954,19 C46.954,15.691 49.646,13 52.954,13 C56.263,13 58.954,15.691 58.954,19 C58.954,19.553 59.401,20 59.954,20 C60.507,20 60.954,19.553 60.954,19 C60.954,14.921 57.883,11.551 53.932,11.066" id="Fill-899" fill="#ABCADD" sketch:type="MSShapeGroup"></path>
            <path d="M60.976,18.075 L60.895,18.075 C60.93,18.379 60.954,18.687 60.954,19 C60.954,19.553 60.507,20 59.954,20 C59.401,20 58.954,19.553 58.954,19 C58.954,15.691 56.263,13 52.954,13 C49.646,13 46.954,15.691 46.954,19 C46.954,19.553 46.507,20 45.954,20 C45.401,20 44.954,19.553 44.954,19 C44.954,14.936 48.003,11.577 51.932,11.073 C51.707,6.033 47.548,2 42.454,2 C37.343,2 33.173,6.06 32.973,11.123 C33.802,11.319 34.605,11.643 35.352,12.104 C37.168,13.229 38.438,14.994 38.928,17.074 C39.054,17.612 38.721,18.15 38.184,18.277 C37.646,18.398 37.108,18.07 36.98,17.533 C36.223,14.312 32.981,12.308 29.767,13.066 C26.546,13.824 24.542,17.06 25.3,20.281 C25.426,20.818 25.093,21.356 24.555,21.483 C24.479,21.501 24.401,21.51 24.325,21.51 C23.872,21.51 23.461,21.199 23.353,20.738 C23.058,19.487 23.085,18.236 23.365,17.064 C21.307,16.762 19.228,17.539 17.872,19.185 C16.614,20.714 16.247,22.684 16.697,24.471 C16.698,24.482 16.704,24.493 16.705,24.504 C17.011,25.69 17.675,26.795 18.69,27.631 C19.116,27.982 19.178,28.612 18.827,29.039 C18.629,29.279 18.343,29.403 18.054,29.403 C17.83,29.403 17.605,29.329 17.419,29.176 C16.202,28.174 15.331,26.865 14.873,25.395 C10.83,24.341 6.579,26.042 4.383,29.656 C3.065,31.824 2.671,34.376 3.273,36.841 C3.874,39.307 5.4,41.39 7.568,42.708 C8.04,42.995 8.19,43.609 7.903,44.082 C7.715,44.392 7.386,44.562 7.048,44.562 C6.915,44.562 6.783,44.527 6.656,44.472 C8.235,45.408 10.055,45.981 12,46.064 L44,46.075 C53.374,46.075 61,38.449 61,29.075 L61,19.075 L60.976,18.075" id="Fill-900" fill="#D0E8F9" sketch:type="MSShapeGroup"></path>
            <path d="M55,37.075 C55,33.209 51.866,30.075 48,30.075 C44.134,30.075 41,33.209 41,37.075 C41,40.941 44.134,44.075 48,44.075 C48.803,44.075 49.57,43.933 50.289,43.685 C50.961,45.652 52.805,47.075 55,47.075 C57.761,47.075 60,44.837 60,42.075 C60,39.314 57.761,37.075 55,37.075" id="Fill-901" fill="#BFDDEF" sketch:type="MSShapeGroup"></path>
            <path d="M55.943,36.157 C55.485,32.177 52.1,29.075 48,29.075 C43.589,29.075 40,32.664 40,37.075 C40,37.627 40.448,38.075 41,38.075 C41.552,38.075 42,37.627 42,37.075 C42,33.767 44.691,31.075 48,31.075 C51.003,31.075 53.49,33.294 53.925,36.177 C51.129,36.685 49,39.134 49,42.075 C49,42.627 49.448,43.075 50,43.075 C50.552,43.075 51,42.627 51,42.075 C51,39.87 52.794,38.075 55,38.075 C57.206,38.075 59,39.87 59,42.075 C59,42.627 59.448,43.075 60,43.075 C60.552,43.075 61,42.627 61,42.075 C61,39.088 58.804,36.612 55.943,36.157" id="Fill-902" fill="#ABCADD" sketch:type="MSShapeGroup"></path>
            <path d="M56,48 L8,48 C7.447,48 7,48.448 7,49 C7,49.552 7.447,50 8,50 L56,50 C56.553,50 57,49.552 57,49 C57,48.448 56.553,48 56,48" id="Fill-919" fill="#0096E6" sketch:type="MSShapeGroup"></path>
            <path d="M51,53 L13,53 C12.447,53 12,53.448 12,54 C12,54.552 12.447,55 13,55 L51,55 C51.553,55 52,54.552 52,54 C52,53.448 51.553,53 51,53" id="Fill-920" fill="#0096E6" sketch:type="MSShapeGroup"></path>
            <path d="M47,58 L17,58 C16.447,58 16,58.448 16,59 C16,59.552 16.447,60 17,60 L47,60 C47.553,60 48,59.552 48,59 C48,58.448 47.553,58 47,58" id="Fill-921" fill="#0096E6" sketch:type="MSShapeGroup"></path>
            <path d="M60,43 L2,43 C1.447,43 1,43.448 1,44 C1,44.552 1.447,45 2,45 L60,45 C60.553,45 61,44.552 61,44 C61,43.448 60.553,43 60,43" id="Fill-922" fill="#0096E6" sketch:type="MSShapeGroup"></path>
        </g>
    </g>
</svg>