<?xml version="1.0" encoding="UTF-8" standalone="no"?>
<svg width="56px" height="60px" viewBox="0 0 56 60" version="1.1" xmlns="http://www.w3.org/2000/svg" xmlns:xlink="http://www.w3.org/1999/xlink" xmlns:sketch="http://www.bohemiancoding.com/sketch/ns">
    <!-- Generator: Sketch 3.2.2 (9983) - http://www.bohemiancoding.com/sketch -->
    <title>22 - Mild Wind Forecast (Flat)</title>
    <desc>Created with Sketch.</desc>
    <defs></defs>
    <g id="Page-1" stroke="none" stroke-width="1" fill="none" fill-rule="evenodd" sketch:type="MSPage">
        <g id="22---Mild-Wind-Forecast-(Flat)" sketch:type="MSLayerGroup" transform="translate(1.000000, 1.000000)">
            <path d="M22.093,26.736 C18.105,32.029 13.441,35.242 11.677,33.913 C9.913,32.583 11.716,27.215 15.704,21.922 C19.693,16.629 24.356,13.416 26.121,14.746 C27.885,16.075 26.082,21.444 22.093,26.736" id="Fill-303" fill="#BDD7E5" sketch:type="MSShapeGroup"></path>
            <path d="M12.675,35.213 C12.055,35.213 11.517,35.044 11.075,34.712 C8.454,32.735 11.019,26.478 14.905,21.32 C18.455,16.61 22.561,13.445 25.123,13.445 C25.742,13.445 26.28,13.614 26.722,13.946 C29.344,15.923 26.78,22.179 22.893,27.338 C19.343,32.049 15.236,35.213 12.675,35.213 L12.675,35.213 Z M25.123,15.445 C23.529,15.445 19.967,17.926 16.503,22.523 C12.22,28.208 11.466,32.502 12.279,33.114 C12.365,33.18 12.499,33.213 12.675,33.213 C14.268,33.213 17.83,30.732 21.295,26.135 C25.578,20.45 26.331,16.156 25.519,15.544 C25.432,15.479 25.299,15.445 25.123,15.445 L25.123,15.445 Z" id="Fill-304" fill="#ABCADD" sketch:type="MSShapeGroup"></path>
            <path d="M52.661,41.006 L26.121,14.746 C27.885,16.075 26.082,21.444 22.093,26.736 C18.105,32.029 13.441,35.242 11.677,33.913 L44.236,52.187 C45.559,53.184 47.853,52.371 50.844,48.402 C53.836,44.432 53.984,42.003 52.661,41.006" id="Fill-305" fill="#E4EFF8" sketch:type="MSShapeGroup"></path>
            <path d="M45.416,53.574 C45.416,53.574 45.416,53.574 45.415,53.574 C44.786,53.574 44.192,53.386 43.693,53.029 L11.558,34.993 C11.386,34.918 11.224,34.823 11.075,34.712 L12.166,33.041 L12.415,33.181 C12.487,33.202 12.574,33.213 12.675,33.213 C14.268,33.213 17.83,30.732 21.295,26.135 C25.193,20.961 26.314,16.704 25.622,15.658 L25.417,15.456 L26.722,13.946 C26.87,14.059 27.006,14.188 27.126,14.333 L53.322,40.253 C53.907,40.719 54.755,41.769 54.352,43.785 C54.058,45.253 53.147,47.009 51.643,49.003 C49.357,52.036 47.262,53.574 45.416,53.574 L45.416,53.574 Z M14.946,34.602 L44.837,51.388 C45.006,51.515 45.19,51.574 45.416,51.574 C45.953,51.574 47.479,51.206 50.045,47.8 C51.691,45.616 52.23,44.198 52.391,43.393 C52.545,42.621 52.434,42.086 52.06,41.805 L51.958,41.717 L27.689,17.705 C27.217,20.557 25.194,24.283 22.893,27.338 C20.265,30.825 17.331,33.465 14.946,34.602 L14.946,34.602 Z" id="Fill-306" fill="#ABCADD" sketch:type="MSShapeGroup"></path>
            <path d="M4,14 L26,14 L26,16 L4,16 L4,14 Z" id="Fill-307" fill="#ABCADD" sketch:type="MSShapeGroup"></path>
            <path d="M45.254,44.188 C46.667,42.313 47.855,40.346 48.714,38.507 L47.191,37 C46.389,38.89 45.165,40.984 43.656,42.985 C42.149,44.985 40.474,46.756 38.885,48.045 L40.747,49.091 C42.275,47.76 43.839,46.066 45.254,44.188" id="Fill-308" fill="#E64C3C" sketch:type="MSShapeGroup"></path>
            <path d="M40.462,40.578 C42.102,38.403 43.417,36.162 44.277,34.117 L42.73,32.587 C41.972,34.648 40.591,37.083 38.864,39.375 C37.137,41.668 35.174,43.668 33.401,44.965 L35.297,46.03 C37.028,44.639 38.821,42.755 40.462,40.578" id="Fill-309" fill="#E64C3C" sketch:type="MSShapeGroup"></path>
            <path d="M35.67,36.967 C37.534,34.493 38.979,31.931 39.804,29.691 L38.219,28.123 C37.569,30.328 36.056,33.131 34.072,35.764 C32.088,38.397 29.808,40.625 27.867,41.858 L29.811,42.949 C31.738,41.539 33.804,39.443 35.67,36.967" id="Fill-310" fill="#E64C3C" sketch:type="MSShapeGroup"></path>
            <path d="M11.078,34.388 L3.078,15.388 L4.922,14.612 L12.922,33.612 L11.078,34.388" id="Fill-1026" fill="#ABCADD" sketch:type="MSShapeGroup"></path>
            <path d="M4,48 L4,8" id="Stroke-1027" stroke="#7F8C8D" stroke-width="2" sketch:type="MSShapeGroup"></path>
            <path d="M8,4 C8,6.209 6.209,8 4,8 C1.791,8 0,6.209 0,4 C0,1.791 1.791,0 4,0 C6.209,0 8,1.791 8,4 L8,4 Z" id="Fill-1028" fill="#BDC3C7" sketch:type="MSShapeGroup"></path>
            <path d="M8,4 C8,6.209 6.209,8 4,8 C1.791,8 0,6.209 0,4 C0,1.791 1.791,0 4,0 C6.209,0 8,1.791 8,4 L8,4 Z" id="Stroke-1029" stroke="#95A5A5" stroke-width="2" sketch:type="MSShapeGroup"></path>
            <path d="M2,48 L6,48 L6,54 L2,54 L2,48 Z" id="Fill-1030" fill="#BDC3C7" sketch:type="MSShapeGroup"></path>
            <path d="M2,48 L6,48 L6,54 L2,54 L2,48 Z" id="Stroke-1031" stroke="#7F8C8D" stroke-width="2" sketch:type="MSShapeGroup"></path>
            <path d="M0,54 L8,54 L8,58 L0,58 L0,54 Z" id="Fill-1032" fill="#BDC3C7" sketch:type="MSShapeGroup"></path>
            <path d="M0,54 L8,54 L8,58 L0,58 L0,54 Z" id="Stroke-1033" stroke="#7F8C8D" stroke-width="2" sketch:type="MSShapeGroup"></path>
        </g>
    </g>
</svg>