<?xml version="1.0" encoding="UTF-8" standalone="no"?>
<svg width="60px" height="55px" viewBox="0 0 60 55" version="1.1" xmlns="http://www.w3.org/2000/svg" xmlns:xlink="http://www.w3.org/1999/xlink" xmlns:sketch="http://www.bohemiancoding.com/sketch/ns">
    <!-- Generator: Sketch 3.2.2 (9983) - http://www.bohemiancoding.com/sketch -->
    <title>64 - Moon Settings (Flat)</title>
    <desc>Created with Sketch.</desc>
    <defs></defs>
    <g id="Page-1" stroke="none" stroke-width="1" fill="none" fill-rule="evenodd" sketch:type="MSPage">
        <g id="64---Moon-Settings-(Flat)" sketch:type="MSLayerGroup">
            <path d="M16.924,39 L48.751,39 C52.31,35.85 54.793,31.759 56,27.305 C55.736,27.449 55.473,27.594 55.202,27.73 C43.35,33.665 28.931,28.868 22.997,17.016 C20.249,11.528 19.806,5.491 21.294,0 C10.03,6.172 5.579,20.199 11.378,31.78 C12.793,34.607 14.694,37.026 16.924,39" id="Fill-147" fill="#E4C05C" sketch:type="MSShapeGroup"></path>
            <path d="M54,43 L6,43 C5.447,43 5,43.448 5,44 C5,44.552 5.447,45 6,45 L54,45 C54.553,45 55,44.552 55,44 C55,43.448 54.553,43 54,43" id="Fill-915" fill="#F29C1F" sketch:type="MSShapeGroup"></path>
            <path d="M49,48 L11,48 C10.447,48 10,48.448 10,49 C10,49.552 10.447,50 11,50 L49,50 C49.553,50 50,49.552 50,49 C50,48.448 49.553,48 49,48" id="Fill-916" fill="#F29C1F" sketch:type="MSShapeGroup"></path>
            <path d="M45,53 L15,53 C14.447,53 14,53.448 14,54 C14,54.552 14.447,55 15,55 L45,55 C45.553,55 46,54.552 46,54 C46,53.448 45.553,53 45,53" id="Fill-917" fill="#F29C1F" sketch:type="MSShapeGroup"></path>
            <path d="M59,38 L1,38 C0.447,38 0,38.448 0,39 C0,39.552 0.447,40 1,40 L59,40 C59.553,40 60,39.552 60,39 C60,38.448 59.553,38 59,38" id="Fill-918" fill="#F29C1F" sketch:type="MSShapeGroup"></path>
        </g>
    </g>
</svg>