<?xml version="1.0" encoding="UTF-8" standalone="no"?>
<svg width="53px" height="53px" viewBox="0 0 53 53" version="1.1" xmlns="http://www.w3.org/2000/svg" xmlns:xlink="http://www.w3.org/1999/xlink" xmlns:sketch="http://www.bohemiancoding.com/sketch/ns">
    <!-- Generator: Sketch 3.2.2 (9983) - http://www.bohemiancoding.com/sketch -->
    <title>55 - Nighttime Rain (Flat)</title>
    <desc>Created with Sketch.</desc>
    <defs></defs>
    <g id="Page-1" stroke="none" stroke-width="1" fill="none" fill-rule="evenodd" sketch:type="MSPage">
        <g id="55---Nighttime-Rain-(Flat)" sketch:type="MSLayerGroup" transform="translate(-1.000000, 0.000000)">
            <path d="M53.133,27.73 C41.281,33.665 26.862,28.868 20.927,17.016 C18.18,11.528 17.737,5.491 19.225,0 C7.961,6.172 3.51,20.199 9.308,31.781 C15.243,43.633 29.662,48.43 41.514,42.495 C47.879,39.308 52.205,33.674 53.931,27.305 C53.667,27.449 53.404,27.594 53.133,27.73" id="Fill-77" fill="#BDC3C7" sketch:type="MSShapeGroup"></path>
            <path d="M14,39 C14.256,39 14.512,38.902 14.707,38.707 L17.707,35.707 C18.098,35.316 18.098,34.684 17.707,34.293 C17.316,33.902 16.684,33.902 16.293,34.293 L13.293,37.293 C12.902,37.684 12.902,38.316 13.293,38.707 C13.488,38.902 13.744,39 14,39" id="Fill-174" fill="#FFFFFF" sketch:type="MSShapeGroup"></path>
            <path d="M20,33 C20.256,33 20.512,32.902 20.707,32.707 L23.707,29.707 C24.098,29.316 24.098,28.684 23.707,28.293 C23.316,27.902 22.684,27.902 22.293,28.293 L19.293,31.293 C18.902,31.684 18.902,32.316 19.293,32.707 C19.488,32.902 19.744,33 20,33" id="Fill-175" fill="#FFFFFF" sketch:type="MSShapeGroup"></path>
            <path d="M10.293,48.293 L7.293,51.293 C6.902,51.684 6.902,52.316 7.293,52.707 C7.488,52.902 7.744,53 8,53 C8.256,53 8.512,52.902 8.707,52.707 L11.707,49.707 C12.098,49.316 12.098,48.684 11.707,48.293 C11.316,47.902 10.684,47.902 10.293,48.293" id="Fill-176" fill="#E6E7E8" sketch:type="MSShapeGroup"></path>
            <path d="M17.707,42.293 C17.316,41.902 16.684,41.902 16.293,42.293 L13.293,45.293 C12.902,45.684 12.902,46.316 13.293,46.707 C13.488,46.902 13.744,47 14,47 C14.256,47 14.512,46.902 14.707,46.707 L17.707,43.707 C18.098,43.316 18.098,42.684 17.707,42.293" id="Fill-177" fill="#E6E7E8" sketch:type="MSShapeGroup"></path>
            <path d="M20,41 C20.256,41 20.512,40.902 20.707,40.707 L23.707,37.707 C24.098,37.316 24.098,36.684 23.707,36.293 C23.316,35.902 22.684,35.902 22.293,36.293 L19.293,39.293 C18.902,39.684 18.902,40.316 19.293,40.707 C19.488,40.902 19.744,41 20,41" id="Fill-178" fill="#FFFFFF" sketch:type="MSShapeGroup"></path>
            <path d="M10.293,32.293 L7.293,35.293 C6.902,35.684 6.902,36.316 7.293,36.707 C7.488,36.902 7.744,37 8,37 C8.256,37 8.512,36.902 8.707,36.707 L11.707,33.707 C12.098,33.316 12.098,32.684 11.707,32.293 C11.316,31.902 10.684,31.902 10.293,32.293" id="Fill-179" fill="#E6E7E8" sketch:type="MSShapeGroup"></path>
            <path d="M4.293,38.293 L1.293,41.293 C0.902,41.684 0.902,42.316 1.293,42.707 C1.488,42.902 1.744,43 2,43 C2.256,43 2.512,42.902 2.707,42.707 L5.707,39.707 C6.098,39.316 6.098,38.684 5.707,38.293 C5.316,37.902 4.684,37.902 4.293,38.293" id="Fill-180" fill="#E6E7E8" sketch:type="MSShapeGroup"></path>
            <path d="M10.293,40.293 L7.293,43.293 C6.902,43.684 6.902,44.316 7.293,44.707 C7.488,44.902 7.744,45 8,45 C8.256,45 8.512,44.902 8.707,44.707 L11.707,41.707 C12.098,41.316 12.098,40.684 11.707,40.293 C11.316,39.902 10.684,39.902 10.293,40.293" id="Fill-181" fill="#E6E7E8" sketch:type="MSShapeGroup"></path>
            <path d="M4.293,46.293 L1.293,49.293 C0.902,49.684 0.902,50.316 1.293,50.707 C1.488,50.902 1.744,51 2,51 C2.256,51 2.512,50.902 2.707,50.707 L5.707,47.707 C6.098,47.316 6.098,46.684 5.707,46.293 C5.316,45.902 4.684,45.902 4.293,46.293" id="Fill-182" fill="#E6E7E8" sketch:type="MSShapeGroup"></path>
            <path d="M14,31 C14.256,31 14.512,30.902 14.707,30.707 L17.707,27.707 C18.098,27.316 18.098,26.684 17.707,26.293 C17.316,25.902 16.684,25.902 16.293,26.293 L13.293,29.293 C12.902,29.684 12.902,30.316 13.293,30.707 C13.488,30.902 13.744,31 14,31" id="Fill-183" fill="#FFFFFF" sketch:type="MSShapeGroup"></path>
            <path d="M19.293,47.293 L16.293,50.293 C15.902,50.684 15.902,51.316 16.293,51.707 C16.488,51.902 16.744,52 17,52 C17.256,52 17.512,51.902 17.707,51.707 L20.707,48.707 C21.098,48.316 21.098,47.684 20.707,47.293 C20.316,46.902 19.684,46.902 19.293,47.293" id="Fill-184" fill="#E6E7E8" sketch:type="MSShapeGroup"></path>
            <path d="M26.707,41.293 C26.316,40.902 25.684,40.902 25.293,41.293 L22.293,44.293 C21.902,44.684 21.902,45.316 22.293,45.707 C22.488,45.902 22.744,46 23,46 C23.256,46 23.512,45.902 23.707,45.707 L26.707,42.707 C27.098,42.316 27.098,41.684 26.707,41.293" id="Fill-185" fill="#FFFFFF" sketch:type="MSShapeGroup"></path>
        </g>
    </g>
</svg>