<?xml version="1.0" encoding="UTF-8" standalone="no"?>
<svg width="56px" height="57px" viewBox="0 0 56 57" version="1.1" xmlns="http://www.w3.org/2000/svg" xmlns:xlink="http://www.w3.org/1999/xlink" xmlns:sketch="http://www.bohemiancoding.com/sketch/ns">
    <!-- Generator: Sketch 3.2.2 (9983) - http://www.bohemiancoding.com/sketch -->
    <title>54 - Nighttime Snow (Flat)</title>
    <desc>Created with Sketch.</desc>
    <defs></defs>
    <g id="Page-1" stroke="none" stroke-width="1" fill="none" fill-rule="evenodd" sketch:type="MSPage">
        <g id="54---Nighttime-Snow-(Flat)" sketch:type="MSLayerGroup">
            <path d="M55.202,27.73 C43.35,33.665 28.931,28.868 22.997,17.016 C20.249,11.528 19.806,5.491 21.294,0 C10.03,6.172 5.579,20.199 11.378,31.78 C17.312,43.632 31.731,48.43 43.583,42.495 C49.948,39.308 54.274,33.674 56,27.305 C55.736,27.449 55.473,27.594 55.202,27.73" id="Fill-78" fill="#BDC3C7" sketch:type="MSShapeGroup"></path>
            <path d="M31.83,39.634 L29,38 L31.83,36.366 C32.309,36.09 32.473,35.478 32.196,35 C31.919,34.521 31.307,34.358 30.83,34.634 L28,36.268 L28,33 C28,32.448 27.553,32 27,32 C26.447,32 26,32.448 26,33 L26,36.268 L23.17,34.634 C22.692,34.358 22.08,34.521 21.804,35 C21.527,35.478 21.691,36.09 22.17,36.366 L25,38 L22.17,39.634 C21.691,39.91 21.527,40.521 21.804,41 C21.989,41.321 22.325,41.5 22.671,41.5 C22.841,41.5 23.013,41.457 23.17,41.366 L26,39.732 L26,43 C26,43.552 26.447,44 27,44 C27.553,44 28,43.552 28,43 L28,39.732 L30.83,41.366 C30.987,41.457 31.159,41.5 31.329,41.5 C31.675,41.5 32.011,41.321 32.196,41 C32.473,40.521 32.309,39.91 31.83,39.634" id="Fill-268" fill="#FFFFFF" sketch:type="MSShapeGroup"></path>
            <path d="M11.196,35 C10.919,34.521 10.307,34.358 9.83,34.634 L7,36.268 L7,33 C7,32.448 6.553,32 6,32 C5.447,32 5,32.448 5,33 L5,36.268 L2.17,34.634 C1.692,34.358 1.08,34.521 0.804,35 C0.527,35.478 0.691,36.09 1.17,36.366 L4,38 L1.17,39.634 C0.691,39.91 0.527,40.521 0.804,41 C0.989,41.321 1.325,41.5 1.671,41.5 C1.841,41.5 2.013,41.457 2.17,41.366 L5,39.732 L5,43 C5,43.552 5.447,44 6,44 C6.553,44 7,43.552 7,43 L7,39.732 L9.83,41.366 C9.987,41.457 10.159,41.5 10.329,41.5 C10.675,41.5 11.011,41.321 11.196,41 C11.473,40.521 11.309,39.91 10.83,39.634 L8,38 L10.83,36.366 C11.309,36.09 11.473,35.478 11.196,35" id="Fill-269" fill="#E6E7E8" sketch:type="MSShapeGroup"></path>
            <path d="M22.196,48.031 C21.919,47.553 21.307,47.389 20.83,47.665 L18,49.299 L18,46.031 C18,45.479 17.553,45.031 17,45.031 C16.447,45.031 16,45.479 16,46.031 L16,49.299 L13.17,47.665 C12.692,47.389 12.08,47.553 11.804,48.031 C11.527,48.51 11.691,49.121 12.17,49.397 L15,51.031 L12.17,52.665 C11.691,52.941 11.527,53.553 11.804,54.031 C11.989,54.352 12.325,54.531 12.671,54.531 C12.841,54.531 13.013,54.488 13.17,54.397 L16,52.763 L16,56.031 C16,56.583 16.447,57.031 17,57.031 C17.553,57.031 18,56.583 18,56.031 L18,52.763 L20.83,54.397 C20.987,54.488 21.159,54.531 21.329,54.531 C21.675,54.531 22.011,54.352 22.196,54.031 C22.473,53.553 22.309,52.941 21.83,52.665 L19,51.031 L21.83,49.397 C22.309,49.121 22.473,48.51 22.196,48.031" id="Fill-270" fill="#E6E7E8" sketch:type="MSShapeGroup"></path>
        </g>
    </g>
</svg>