<?xml version="1.0" encoding="UTF-8" standalone="no"?>
<svg width="60px" height="56px" viewBox="0 0 60 56" version="1.1" xmlns="http://www.w3.org/2000/svg" xmlns:xlink="http://www.w3.org/1999/xlink" xmlns:sketch="http://www.bohemiancoding.com/sketch/ns">
    <!-- Generator: Sketch 3.2.2 (9983) - http://www.bohemiancoding.com/sketch -->
    <title>39 - Night Snow (Flat)</title>
    <desc>Created with Sketch.</desc>
    <defs></defs>
    <g id="Page-1" stroke="none" stroke-width="1" fill="none" fill-rule="evenodd" sketch:type="MSPage">
        <g id="39---Night-Snow-(Flat)" sketch:type="MSLayerGroup" transform="translate(0.000000, 1.000000)">
            <path d="M18.069,10.069 C20.572,10.456 22.547,12.431 22.934,14.935 C22.948,15.022 23.059,15.022 23.072,14.935 C23.46,12.431 25.435,10.456 27.938,10.069 C28.025,10.055 28.025,9.945 27.938,9.931 C25.435,9.544 23.46,7.569 23.072,5.065 C23.059,4.978 22.948,4.978 22.934,5.065 C22.547,7.569 20.572,9.544 18.069,9.931 C17.982,9.945 17.982,10.055 18.069,10.069 L18.069,10.069 Z" id="Fill-42" fill="#FBD490" sketch:type="MSShapeGroup"></path>
            <path d="M18.069,10.069 C20.572,10.456 22.547,12.431 22.934,14.935 C22.948,15.022 23.059,15.022 23.072,14.935 C23.46,12.431 25.435,10.456 27.938,10.069 C28.025,10.055 28.025,9.945 27.938,9.931 C25.435,9.544 23.46,7.569 23.072,5.065 C23.059,4.978 22.948,4.978 22.934,5.065 C22.547,7.569 20.572,9.544 18.069,9.931 C17.982,9.945 17.982,10.055 18.069,10.069 L18.069,10.069 Z" id="Stroke-43" stroke="#F0C419" stroke-width="2" sketch:type="MSShapeGroup"></path>
            <path d="M3.056,22.055 C5.058,22.365 6.638,23.945 6.948,25.948 C6.959,26.017 7.048,26.017 7.059,25.948 C7.368,23.945 8.949,22.365 10.951,22.055 C11.021,22.044 11.021,21.956 10.951,21.945 C8.949,21.635 7.368,20.055 7.059,18.052 C7.048,17.983 6.959,17.983 6.948,18.052 C6.638,20.055 5.058,21.635 3.056,21.945 C2.986,21.956 2.986,22.044 3.056,22.055 L3.056,22.055 Z" id="Fill-44" fill="#FBD490" sketch:type="MSShapeGroup"></path>
            <path d="M3.056,22.055 C5.058,22.365 6.638,23.945 6.948,25.948 C6.959,26.017 7.048,26.017 7.059,25.948 C7.368,23.945 8.949,22.365 10.951,22.055 C11.021,22.044 11.021,21.956 10.951,21.945 C8.949,21.635 7.368,20.055 7.059,18.052 C7.048,17.983 6.959,17.983 6.948,18.052 C6.638,20.055 5.058,21.635 3.056,21.945 C2.986,21.956 2.986,22.044 3.056,22.055 L3.056,22.055 Z" id="Stroke-45" stroke="#F0C419" stroke-width="2" sketch:type="MSShapeGroup"></path>
            <path d="M2.082,6.083 C5.086,6.547 7.456,8.918 7.921,11.922 C7.937,12.026 8.07,12.026 8.086,11.922 C8.551,8.918 10.921,6.547 13.925,6.083 C14.03,6.067 14.03,5.933 13.925,5.917 C10.921,5.452 8.551,3.082 8.086,0.078 C8.07,-0.026 7.937,-0.026 7.921,0.078 C7.456,3.082 5.086,5.452 2.082,5.917 C1.977,5.933 1.977,6.067 2.082,6.083 L2.082,6.083 Z" id="Fill-46" fill="#FBD490" sketch:type="MSShapeGroup"></path>
            <path d="M2.082,6.083 C5.086,6.547 7.456,8.918 7.921,11.922 C7.937,12.026 8.07,12.026 8.086,11.922 C8.551,8.918 10.921,6.547 13.925,6.083 C14.03,6.067 14.03,5.933 13.925,5.917 C10.921,5.452 8.551,3.082 8.086,0.078 C8.07,-0.026 7.937,-0.026 7.921,0.078 C7.456,3.082 5.086,5.452 2.082,5.917 C1.977,5.933 1.977,6.067 2.082,6.083 L2.082,6.083 Z" id="Stroke-47" stroke="#F0C419" stroke-width="2" sketch:type="MSShapeGroup"></path>
            <path d="M59.979,21 L59.898,21 C59.933,21.304 59.958,21.611 59.958,21.925 C59.958,22.477 59.51,22.925 58.958,22.925 C58.405,22.925 57.958,22.477 57.958,21.925 C57.958,18.616 55.266,15.925 51.958,15.925 C48.649,15.925 45.958,18.616 45.958,21.925 C45.958,22.477 45.51,22.925 44.958,22.925 C44.405,22.925 43.958,22.477 43.958,21.925 C43.958,17.86 47.007,14.502 50.936,13.998 C50.71,8.958 46.552,4.925 41.458,4.925 C36.346,4.925 32.177,8.985 31.977,14.048 C32.806,14.244 33.609,14.568 34.355,15.029 C36.171,16.154 37.441,17.919 37.931,19.999 C38.057,20.537 37.724,21.075 37.187,21.202 C36.649,21.323 36.111,20.995 35.984,20.458 C35.226,17.236 31.985,15.232 28.77,15.991 C25.549,16.749 23.545,19.985 24.303,23.206 C24.429,23.743 24.096,24.281 23.558,24.408 C23.482,24.426 23.405,24.435 23.329,24.435 C22.876,24.435 22.464,24.124 22.356,23.663 C22.062,22.412 22.088,21.161 22.368,19.989 C20.311,19.687 18.232,20.464 16.876,22.11 C15.617,23.639 15.25,25.609 15.7,27.396 C15.702,27.407 15.707,27.417 15.708,27.429 C16.015,28.615 16.678,29.719 17.694,30.556 C18.12,30.907 18.181,31.537 17.831,31.964 C17.632,32.204 17.346,32.328 17.057,32.328 C16.834,32.328 16.609,32.254 16.422,32.101 C15.206,31.099 14.334,29.79 13.876,28.32 C9.833,27.266 5.582,28.967 3.386,32.581 C2.069,34.749 1.674,37.301 2.276,39.766 C2.877,42.231 4.403,44.315 6.572,45.633 C7.043,45.92 7.194,46.534 6.907,47.007 C6.718,47.316 6.389,47.487 6.051,47.487 C5.919,47.487 5.787,47.451 5.659,47.396 C7.239,48.333 9.058,48.906 11.003,48.989 L19.213,48.992 C24.52,48.907 29.066,45.632 31.003,41 C32.966,45.693 37.606,49 43.003,49 C52.377,49 60.003,41.374 60.003,32 L60.003,22 L59.979,21" id="Fill-48" fill="#D0E8F9" sketch:type="MSShapeGroup"></path>
            <path d="M52.936,14.066 C52.705,7.927 47.652,3 41.458,3 C35.316,3 30.298,7.844 29.987,13.91 C29.429,13.922 28.868,13.988 28.311,14.119 C25.975,14.669 24.126,16.201 23.082,18.172 C20.2,17.586 17.234,18.604 15.332,20.914 C14.08,22.434 13.452,24.322 13.522,26.273 C8.892,25.439 4.182,27.497 1.677,31.617 C0.082,34.242 -0.396,37.331 0.333,40.315 C1.061,43.3 2.908,45.821 5.533,47.417 C5.695,47.516 5.875,47.562 6.051,47.562 C6.389,47.562 6.718,47.392 6.907,47.082 C7.194,46.609 7.043,45.995 6.572,45.708 C4.403,44.39 2.877,42.307 2.276,39.841 C1.674,37.376 2.069,34.824 3.386,32.656 C5.582,29.042 9.833,27.341 13.876,28.395 C14.334,29.865 15.206,31.174 16.422,32.176 C16.609,32.329 16.834,32.403 17.057,32.403 C17.346,32.403 17.632,32.279 17.831,32.039 C18.181,31.612 18.12,30.982 17.694,30.631 C16.678,29.795 16.015,28.69 15.708,27.504 C15.707,27.493 15.702,27.482 15.7,27.471 C15.25,25.684 15.617,23.714 16.876,22.185 C18.232,20.539 20.311,19.762 22.368,20.064 C22.088,21.236 22.062,22.487 22.356,23.738 C22.464,24.199 22.876,24.51 23.329,24.51 C23.405,24.51 23.482,24.501 23.558,24.483 C24.096,24.356 24.429,23.818 24.303,23.281 C23.545,20.06 25.549,16.824 28.77,16.066 C31.985,15.308 35.226,17.312 35.984,20.533 C36.111,21.07 36.649,21.398 37.187,21.277 C37.724,21.15 38.057,20.612 37.931,20.074 C37.441,17.994 36.171,16.229 34.355,15.104 C33.609,14.643 32.806,14.319 31.977,14.123 C32.177,9.06 36.346,5 41.458,5 C46.552,5 50.71,9.033 50.936,14.073 C47.007,14.577 43.958,17.936 43.958,22 C43.958,22.553 44.405,23 44.958,23 C45.51,23 45.958,22.553 45.958,22 C45.958,18.691 48.649,16 51.958,16 C55.266,16 58.003,18.691 58.003,22 L58.003,25 C58.003,25.552 58.451,26 59.003,26 C59.556,26 60.003,25.552 60.003,25 L60.003,22 C60.003,17.921 56.886,14.551 52.936,14.066" id="Fill-49" fill="#ABCADD" sketch:type="MSShapeGroup"></path>
            <path d="M57.83,37.602 L55,35.969 L57.83,34.335 C58.309,34.059 58.472,33.447 58.196,32.969 C57.92,32.489 57.308,32.326 56.83,32.602 L54,34.237 L54,30.969 C54,30.416 53.552,29.969 53,29.969 C52.448,29.969 52,30.416 52,30.969 L52,34.237 L49.17,32.602 C48.69,32.326 48.08,32.489 47.804,32.969 C47.528,33.447 47.691,34.059 48.17,34.335 L51,35.969 L48.17,37.602 C47.691,37.879 47.528,38.49 47.804,38.969 C47.989,39.29 48.325,39.469 48.671,39.469 C48.84,39.469 49.013,39.426 49.17,39.335 L52,37.701 L52,40.969 C52,41.521 52.448,41.969 53,41.969 C53.552,41.969 54,41.521 54,40.969 L54,37.701 L56.83,39.335 C56.988,39.426 57.16,39.469 57.329,39.469 C57.675,39.469 58.011,39.29 58.196,38.969 C58.472,38.49 58.309,37.879 57.83,37.602" id="Fill-265" fill="#ABC5D3" sketch:type="MSShapeGroup"></path>
            <path d="M37.196,32.969 C36.919,32.489 36.307,32.326 35.83,32.602 L33,34.237 L33,30.969 C33,30.416 32.552,29.969 32,29.969 C31.448,29.969 31,30.416 31,30.969 L31,34.237 L28.17,32.602 C27.69,32.326 27.08,32.489 26.804,32.969 C26.528,33.447 26.691,34.059 27.17,34.335 L30,35.969 L27.17,37.602 C26.691,37.879 26.528,38.49 26.804,38.969 C26.989,39.29 27.325,39.469 27.671,39.469 C27.84,39.469 28.013,39.426 28.17,39.335 L31,37.701 L31,40.969 C31,41.521 31.448,41.969 32,41.969 C32.552,41.969 33,41.521 33,40.969 L33,37.701 L35.83,39.335 C35.988,39.426 36.16,39.469 36.329,39.469 C36.675,39.469 37.011,39.29 37.196,38.969 C37.472,38.49 37.309,37.879 36.83,37.602 L34,35.969 L36.83,34.335 C37.309,34.059 37.472,33.447 37.196,32.969" id="Fill-266" fill="#ABC5D3" sketch:type="MSShapeGroup"></path>
            <path d="M48.196,46 C47.92,45.52 47.308,45.357 46.83,45.634 L44,47.268 L44,44 C44,43.447 43.552,43 43,43 C42.448,43 42,43.447 42,44 L42,47.268 L39.17,45.634 C38.69,45.357 38.08,45.52 37.804,46 C37.528,46.478 37.691,47.09 38.17,47.366 L41,49 L38.17,50.634 C37.691,50.91 37.528,51.521 37.804,52 C37.989,52.321 38.325,52.5 38.671,52.5 C38.84,52.5 39.013,52.457 39.17,52.366 L42,50.732 L42,54 C42,54.553 42.448,55 43,55 C43.552,55 44,54.553 44,54 L44,50.732 L46.83,52.366 C46.988,52.457 47.16,52.5 47.329,52.5 C47.675,52.5 48.011,52.321 48.196,52 C48.472,51.521 48.309,50.91 47.83,50.634 L45,49 L47.83,47.366 C48.309,47.09 48.472,46.478 48.196,46" id="Fill-267" fill="#ABC5D3" sketch:type="MSShapeGroup"></path>
        </g>
    </g>
</svg>