<?xml version="1.0" encoding="UTF-8" standalone="no"?>
<svg width="60px" height="58px" viewBox="0 0 60 58" version="1.1" xmlns="http://www.w3.org/2000/svg" xmlns:xlink="http://www.w3.org/1999/xlink" xmlns:sketch="http://www.bohemiancoding.com/sketch/ns">
    <!-- Generator: Sketch 3.2.2 (9983) - http://www.bohemiancoding.com/sketch -->
    <title>34 - Nighttime Storm (Flat)</title>
    <desc>Created with Sketch.</desc>
    <defs></defs>
    <g id="Page-1" stroke="none" stroke-width="1" fill="none" fill-rule="evenodd" sketch:type="MSPage">
        <g id="34---Nighttime-Storm-(Flat)" sketch:type="MSLayerGroup" transform="translate(-1.000000, 1.000000)">
            <path d="M19.065,10.069 C21.569,10.456 23.544,12.431 23.931,14.935 C23.945,15.022 24.056,15.022 24.069,14.935 C24.456,12.431 26.431,10.456 28.935,10.069 C29.022,10.055 29.022,9.944 28.935,9.931 C26.431,9.544 24.456,7.569 24.069,5.065 C24.056,4.978 23.945,4.978 23.931,5.065 C23.544,7.569 21.569,9.544 19.065,9.931 C18.978,9.944 18.978,10.055 19.065,10.069 L19.065,10.069 Z" id="Fill-252" fill="#FBD490" sketch:type="MSShapeGroup"></path>
            <path d="M19.065,10.069 C21.569,10.456 23.544,12.431 23.931,14.935 C23.945,15.022 24.056,15.022 24.069,14.935 C24.456,12.431 26.431,10.456 28.935,10.069 C29.022,10.055 29.022,9.944 28.935,9.931 C26.431,9.544 24.456,7.569 24.069,5.065 C24.056,4.978 23.945,4.978 23.931,5.065 C23.544,7.569 21.569,9.544 19.065,9.931 C18.978,9.944 18.978,10.055 19.065,10.069 L19.065,10.069 Z" id="Stroke-253" stroke="#F0C419" stroke-width="2" sketch:type="MSShapeGroup"></path>
            <path d="M4.052,22.055 C6.055,22.365 7.635,23.945 7.945,25.948 C7.956,26.017 8.044,26.017 8.055,25.948 C8.365,23.945 9.945,22.365 11.948,22.055 C12.017,22.044 12.017,21.956 11.948,21.945 C9.945,21.635 8.365,20.055 8.055,18.052 C8.044,17.983 7.956,17.983 7.945,18.052 C7.635,20.055 6.055,21.635 4.052,21.945 C3.983,21.956 3.983,22.044 4.052,22.055 L4.052,22.055 Z" id="Fill-254" fill="#FBD490" sketch:type="MSShapeGroup"></path>
            <path d="M4.052,22.055 C6.055,22.365 7.635,23.945 7.945,25.948 C7.956,26.017 8.044,26.017 8.055,25.948 C8.365,23.945 9.945,22.365 11.948,22.055 C12.017,22.044 12.017,21.956 11.948,21.945 C9.945,21.635 8.365,20.055 8.055,18.052 C8.044,17.983 7.956,17.983 7.945,18.052 C7.635,20.055 6.055,21.635 4.052,21.945 C3.983,21.956 3.983,22.044 4.052,22.055 L4.052,22.055 Z" id="Stroke-255" stroke="#F0C419" stroke-width="2" sketch:type="MSShapeGroup"></path>
            <path d="M3.078,6.083 C6.082,6.547 8.453,8.918 8.917,11.922 C8.933,12.026 9.067,12.026 9.083,11.922 C9.548,8.918 11.918,6.547 14.922,6.083 C15.026,6.067 15.026,5.933 14.922,5.917 C11.918,5.453 9.548,3.082 9.083,0.078 C9.067,-0.026 8.933,-0.026 8.917,0.078 C8.453,3.082 6.082,5.453 3.078,5.917 C2.974,5.933 2.974,6.067 3.078,6.083 L3.078,6.083 Z" id="Fill-256" fill="#FBD490" sketch:type="MSShapeGroup"></path>
            <path d="M3.078,6.083 C6.082,6.547 8.453,8.918 8.917,11.922 C8.933,12.026 9.067,12.026 9.083,11.922 C9.548,8.918 11.918,6.547 14.922,6.083 C15.026,6.067 15.026,5.933 14.922,5.917 C11.918,5.453 9.548,3.082 9.083,0.078 C9.067,-0.026 8.933,-0.026 8.917,0.078 C8.453,3.082 6.082,5.453 3.078,5.917 C2.974,5.933 2.974,6.067 3.078,6.083 L3.078,6.083 Z" id="Stroke-257" stroke="#F0C419" stroke-width="2" sketch:type="MSShapeGroup"></path>
            <path d="M60.976,21 L60.895,21 C60.93,21.304 60.954,21.611 60.954,21.925 C60.954,22.477 60.507,22.925 59.954,22.925 C59.401,22.925 58.954,22.477 58.954,21.925 C58.954,18.616 56.263,15.925 52.954,15.925 C49.646,15.925 46.954,18.616 46.954,21.925 C46.954,22.477 46.507,22.925 45.954,22.925 C45.401,22.925 44.954,22.477 44.954,21.925 C44.954,17.86 48.003,14.502 51.932,13.998 C51.707,8.958 47.548,4.925 42.454,4.925 C37.343,4.925 33.173,8.985 32.973,14.048 C33.802,14.244 34.605,14.567 35.352,15.029 C37.168,16.154 38.438,17.919 38.928,19.999 C39.054,20.537 38.721,21.075 38.184,21.202 C37.646,21.323 37.107,20.995 36.981,20.458 C36.223,17.236 32.981,15.232 29.767,15.991 C26.546,16.749 24.542,19.985 25.3,23.206 C25.426,23.743 25.093,24.281 24.555,24.408 C24.479,24.426 24.401,24.435 24.325,24.435 C23.872,24.435 23.461,24.124 23.353,23.663 C23.058,22.412 23.085,21.161 23.365,19.989 C21.307,19.687 19.228,20.464 17.872,22.11 C16.614,23.639 16.247,25.609 16.697,27.396 C16.698,27.407 16.704,27.417 16.705,27.429 C17.011,28.615 17.675,29.719 18.69,30.556 C19.116,30.907 19.178,31.537 18.827,31.964 C18.629,32.204 18.343,32.328 18.054,32.328 C17.83,32.328 17.606,32.254 17.419,32.101 C16.202,31.099 15.331,29.79 14.873,28.319 C10.83,27.266 6.579,28.967 4.383,32.581 C3.065,34.749 2.671,37.301 3.273,39.766 C3.874,42.231 5.399,44.315 7.568,45.633 C8.04,45.92 8.19,46.534 7.903,47.007 C7.715,47.316 7.386,47.487 7.048,47.487 C6.915,47.487 6.783,47.451 6.656,47.396 C8.235,48.333 10.055,48.906 12,48.989 L20.209,48.992 C25.516,48.907 30.063,45.632 32,41 C33.963,45.693 38.603,49 44,49 C53.374,49 61,41.374 61,32 L61,22 L60.976,21" id="Fill-956" fill="#D0E8F9" sketch:type="MSShapeGroup"></path>
            <path d="M53.932,14.066 C53.701,7.927 48.648,3 42.454,3 C36.312,3 31.294,7.844 30.984,13.91 C30.426,13.922 29.865,13.988 29.308,14.119 C26.972,14.669 25.123,16.201 24.079,18.172 C21.197,17.586 18.231,18.604 16.328,20.914 C15.077,22.434 14.449,24.322 14.518,26.273 C9.888,25.439 5.178,27.497 2.674,31.617 C1.078,34.242 0.601,37.331 1.329,40.315 C2.058,43.3 3.904,45.821 6.529,47.417 C6.691,47.516 6.871,47.563 7.048,47.563 C7.386,47.563 7.715,47.392 7.903,47.082 C8.19,46.609 8.04,45.995 7.568,45.708 C5.399,44.39 3.874,42.307 3.273,39.841 C2.671,37.376 3.065,34.824 4.383,32.656 C6.579,29.042 10.83,27.341 14.873,28.395 C15.331,29.865 16.202,31.174 17.419,32.176 C17.606,32.329 17.83,32.403 18.054,32.403 C18.343,32.403 18.629,32.279 18.827,32.039 C19.178,31.612 19.116,30.982 18.69,30.631 C17.675,29.795 17.011,28.69 16.705,27.504 C16.704,27.493 16.698,27.482 16.697,27.471 C16.247,25.684 16.614,23.714 17.872,22.185 C19.228,20.539 21.307,19.762 23.365,20.064 C23.085,21.236 23.058,22.487 23.353,23.738 C23.461,24.199 23.872,24.51 24.325,24.51 C24.401,24.51 24.479,24.501 24.555,24.483 C25.093,24.356 25.426,23.818 25.3,23.281 C24.542,20.06 26.546,16.824 29.767,16.066 C32.981,15.308 36.223,17.312 36.981,20.533 C37.107,21.07 37.646,21.398 38.184,21.277 C38.721,21.15 39.054,20.612 38.928,20.074 C38.438,17.994 37.168,16.229 35.352,15.104 C34.605,14.643 33.802,14.319 32.973,14.123 C33.173,9.06 37.343,5 42.454,5 C47.548,5 51.707,9.033 51.932,14.073 C48.003,14.577 44.954,17.936 44.954,22 C44.954,22.553 45.401,23 45.954,23 C46.507,23 46.954,22.553 46.954,22 C46.954,18.691 49.646,16 52.954,16 C56.263,16 59,18.691 59,22 L59,25 C59,25.552 59.448,26 60,26 C60.552,26 61,25.552 61,25 L61,22 C61,17.921 57.883,14.551 53.932,14.066" id="Fill-957" fill="#ABCADD" sketch:type="MSShapeGroup"></path>
            <path d="M49,35 C49.552,35 50,34.552 50,34 L50,33.5 C50,31.019 52.019,29 54.5,29 C56.981,29 59,31.019 59,33.5 C59,34.053 59.448,34.5 60,34.5 C60.552,34.5 61,34.053 61,33.5 C61,29.916 58.084,27 54.5,27 C51.085,27 48.257,29.649 48,33 L48,34 C48,34.552 48.448,35 49,35" id="Fill-958" fill="#ABCADD" sketch:type="MSShapeGroup"></path>
            <path d="M26.923,48.618 C26.822,48.373 26.627,48.178 26.382,48.077 C26.26,48.026 26.13,48 26,48 L22.414,48 L30.707,39.707 C31.098,39.316 31.098,38.684 30.707,38.293 C30.316,37.902 29.684,37.902 29.293,38.293 L19.294,48.292 C19.202,48.384 19.128,48.495 19.077,48.618 C18.976,48.862 18.976,49.138 19.077,49.382 C19.178,49.627 19.373,49.822 19.618,49.923 C19.74,49.974 19.87,50 20,50 L23.586,50 L18.293,55.293 C17.902,55.684 17.902,56.316 18.293,56.707 C18.488,56.902 18.744,57 19,57 C19.256,57 19.512,56.902 19.707,56.707 L26.706,49.708 C26.799,49.616 26.872,49.505 26.923,49.382 C27.024,49.138 27.024,48.862 26.923,48.618" id="Fill-959" fill="#ABC5D3" sketch:type="MSShapeGroup"></path>
            <path d="M42.707,34.293 C42.316,33.902 41.684,33.902 41.293,34.293 L31.294,44.292 C31.202,44.384 31.128,44.495 31.077,44.618 C30.976,44.862 30.976,45.138 31.077,45.382 C31.178,45.627 31.373,45.822 31.618,45.923 C31.74,45.973 31.87,46 32,46 L35.586,46 L30.293,51.293 C29.902,51.684 29.902,52.316 30.293,52.707 C30.488,52.902 30.744,53 31,53 C31.256,53 31.512,52.902 31.707,52.707 L38.706,45.708 C38.799,45.616 38.872,45.505 38.923,45.382 C39.024,45.138 39.024,44.862 38.923,44.618 C38.822,44.373 38.627,44.178 38.382,44.077 C38.26,44.026 38.13,44 38,44 L34.414,44 L42.707,35.707 C43.098,35.316 43.098,34.684 42.707,34.293" id="Fill-960" fill="#ABC5D3" sketch:type="MSShapeGroup"></path>
        </g>
    </g>
</svg>