<?xml version="1.0" encoding="UTF-8" standalone="no"?>
<svg width="45px" height="60px" viewBox="0 0 45 60" version="1.1" xmlns="http://www.w3.org/2000/svg" xmlns:xlink="http://www.w3.org/1999/xlink" xmlns:sketch="http://www.bohemiancoding.com/sketch/ns">
    <!-- Generator: Sketch 3.2.2 (9983) - http://www.bohemiancoding.com/sketch -->
    <title>23 - No Wind Forecast (Flat)</title>
    <desc>Created with Sketch.</desc>
    <defs></defs>
    <g id="Page-1" stroke="none" stroke-width="1" fill="none" fill-rule="evenodd" sketch:type="MSPage">
        <g id="23---No-Wind-Forecast-(Flat)" sketch:type="MSLayerGroup" transform="translate(1.000000, 1.000000)">
            <path d="M20.614,23.838 C14.818,27.051 9.25,28.089 8.18,26.157 C7.109,24.225 10.939,20.054 16.736,16.841 C22.532,13.628 28.099,12.59 29.17,14.522 C30.241,16.454 26.411,20.625 20.614,23.838" id="Fill-297" fill="#BDD7E5" sketch:type="MSShapeGroup"></path>
            <path d="M10.672,28.129 C8.57,28.129 7.682,27.32 7.305,26.642 C6.779,25.693 6.672,23.998 9.146,21.304 C10.832,19.467 13.356,17.571 16.25,15.966 C20.11,13.827 24.009,12.55 26.679,12.55 C28.78,12.55 29.669,13.358 30.045,14.036 C31.636,16.909 26.749,21.581 21.099,24.713 C17.239,26.852 13.341,28.129 10.672,28.129 L10.672,28.129 Z M26.679,14.55 C24.367,14.55 20.743,15.763 17.22,17.716 C14.509,19.219 12.164,20.974 10.619,22.656 C9.023,24.394 8.898,25.39 9.054,25.672 C9.177,25.894 9.666,26.129 10.672,26.129 C12.982,26.129 16.606,24.916 20.13,22.963 C26.355,19.514 28.789,15.896 28.296,15.006 C28.174,14.786 27.685,14.55 26.679,14.55 L26.679,14.55 Z" id="Fill-298" fill="#ABCADD" sketch:type="MSShapeGroup"></path>
            <path d="M42.735,49.307 L29.17,14.522 C30.241,16.454 26.411,20.625 20.614,23.838 C14.818,27.051 9.251,28.09 8.18,26.157 L30.491,56.094 C31.294,57.543 33.72,57.734 38.067,55.324 C42.415,52.915 43.539,50.756 42.735,49.307" id="Fill-299" fill="#E4EFF8" sketch:type="MSShapeGroup"></path>
            <path d="M32.673,58.165 L32.672,58.165 C31.298,58.164 30.229,57.625 29.652,56.644 L7.633,27.097 C7.505,26.957 7.396,26.805 7.305,26.642 L8.981,25.56 L9.151,25.787 C9.282,25.898 9.677,26.129 10.672,26.129 C12.982,26.129 16.606,24.916 20.13,22.963 C25.796,19.822 28.552,16.389 28.344,15.152 L28.239,14.885 L30.046,14.037 C30.136,14.199 30.206,14.373 30.257,14.554 L43.645,48.887 C44.343,50.217 44.541,52.88 38.552,56.199 C36.199,57.503 34.221,58.165 32.673,58.165 L32.673,58.165 Z M10.895,28.126 L31.364,55.609 C31.44,55.747 31.673,56.164 32.672,56.165 L32.673,56.165 C33.501,56.165 35.025,55.867 37.583,54.449 C41.208,52.44 42.343,50.662 41.86,49.791 L41.804,49.67 L29.4,17.863 C27.809,20.276 24.445,22.858 21.099,24.713 C17.345,26.793 13.555,28.059 10.895,28.126 L10.895,28.126 Z" id="Fill-300" fill="#ABCADD" sketch:type="MSShapeGroup"></path>
            <path d="M29.032,15.512 L3.861,11.99 L4.139,10.01 L29.31,13.531 L29.032,15.512" id="Fill-301" fill="#ABCADD" sketch:type="MSShapeGroup"></path>
            <path d="M7.216,26.423 L3.036,11.266 L4.964,10.734 L9.144,25.892 L7.216,26.423" id="Fill-302" fill="#ABCADD" sketch:type="MSShapeGroup"></path>
            <path d="M35.592,33.741 L34.782,31.664 C33.291,33.414 30.769,35.36 27.887,36.957 C25.002,38.556 22.014,39.663 19.739,40.001 L21.071,41.789 C23.404,41.283 26.145,40.209 28.856,38.707 C31.566,37.205 33.927,35.451 35.592,33.741" id="Fill-1034" fill="#E64C3C" sketch:type="MSShapeGroup"></path>
            <path d="M37.878,39.602 L37.088,37.577 C35.557,39.151 33.305,40.814 30.796,42.205 C28.284,43.597 25.678,44.626 23.53,45.09 L24.829,46.834 C26.976,46.267 29.381,45.276 31.766,43.955 C34.148,42.634 36.26,41.121 37.878,39.602" id="Fill-1035" fill="#E64C3C" sketch:type="MSShapeGroup"></path>
            <path d="M40.149,45.426 L39.373,43.436 C37.874,44.831 35.889,46.242 33.703,47.453 C31.507,48.671 29.26,49.593 27.278,50.123 L28.557,51.841 C30.499,51.247 32.615,50.343 34.673,49.202 C36.724,48.065 38.618,46.753 40.149,45.426" id="Fill-1036" fill="#E64C3C" sketch:type="MSShapeGroup"></path>
            <path d="M4,48 L4,8" id="Stroke-1037" stroke="#7F8C8D" stroke-width="2" sketch:type="MSShapeGroup"></path>
            <path d="M8,4 C8,6.209 6.209,8 4,8 C1.791,8 0,6.209 0,4 C0,1.791 1.791,0 4,0 C6.209,0 8,1.791 8,4 L8,4 Z" id="Fill-1038" fill="#BDC3C7" sketch:type="MSShapeGroup"></path>
            <path d="M8,4 C8,6.209 6.209,8 4,8 C1.791,8 0,6.209 0,4 C0,1.791 1.791,0 4,0 C6.209,0 8,1.791 8,4 L8,4 Z" id="Stroke-1039" stroke="#95A5A5" stroke-width="2" sketch:type="MSShapeGroup"></path>
            <path d="M2,48 L6,48 L6,54 L2,54 L2,48 Z" id="Fill-1040" fill="#BDC3C7" sketch:type="MSShapeGroup"></path>
            <path d="M2,48 L6,48 L6,54 L2,54 L2,48 Z" id="Stroke-1041" stroke="#7F8C8D" stroke-width="2" sketch:type="MSShapeGroup"></path>
            <path d="M0,54 L8,54 L8,58 L0,58 L0,54 Z" id="Fill-1042" fill="#BDC3C7" sketch:type="MSShapeGroup"></path>
            <path d="M0,54 L8,54 L8,58 L0,58 L0,54 Z" id="Stroke-1043" stroke="#7F8C8D" stroke-width="2" sketch:type="MSShapeGroup"></path>
        </g>
    </g>
</svg>