<?xml version="1.0" encoding="UTF-8" standalone="no"?>
<svg width="24px" height="60px" viewBox="0 0 24 60" version="1.1" xmlns="http://www.w3.org/2000/svg" xmlns:xlink="http://www.w3.org/1999/xlink" xmlns:sketch="http://www.bohemiancoding.com/sketch/ns">
    <!-- Generator: Sketch 3.2.2 (9983) - http://www.bohemiancoding.com/sketch -->
    <title>16 - Normal Temperature (Flat)</title>
    <desc>Created with Sketch.</desc>
    <defs></defs>
    <g id="Page-1" stroke="none" stroke-width="1" fill="none" fill-rule="evenodd" sketch:type="MSPage">
        <g id="16---Normal-Temperature-(Flat)" sketch:type="MSLayerGroup">
            <path d="M18,38.787 L18,7 C18,3.686 15.314,1 12,1 C8.686,1 6,3.686 6,7 L6,38.787 C2.659,40.968 0.571,44.908 1.075,49.298 C1.649,54.31 5.729,58.374 10.743,58.93 C17.381,59.666 23,54.489 23,48 C23,44.14 21.008,40.75 18,38.787" id="Fill-413" fill="#D0E8F9" sketch:type="MSShapeGroup"></path>
            <path d="M13,43.101 L13,22 C13,21.447 12.552,21 12,21 C11.448,21 11,21.447 11,22 L11,43.101 C8.718,43.564 7,45.581 7,48 C7,50.761 9.239,53 12,53 C14.761,53 17,50.761 17,48 C17,45.581 15.282,43.564 13,43.101" id="Fill-414" fill="#E57E25" sketch:type="MSShapeGroup"></path>
            <path d="M8,6 L6,6 C5.448,6 5,6.447 5,7 C5,7.553 5.448,8 6,8 L8,8 C8.552,8 9,7.553 9,7 C9,6.447 8.552,6 8,6" id="Fill-415" fill="#FFFFFF" sketch:type="MSShapeGroup"></path>
            <path d="M8,11 L6,11 C5.448,11 5,11.447 5,12 C5,12.553 5.448,13 6,13 L8,13 C8.552,13 9,12.553 9,12 C9,11.447 8.552,11 8,11" id="Fill-416" fill="#FFFFFF" sketch:type="MSShapeGroup"></path>
            <path d="M8,16 L6,16 C5.448,16 5,16.447 5,17 C5,17.553 5.448,18 6,18 L8,18 C8.552,18 9,17.553 9,17 C9,16.447 8.552,16 8,16" id="Fill-417" fill="#FFFFFF" sketch:type="MSShapeGroup"></path>
            <path d="M8,21 L6,21 C5.448,21 5,21.447 5,22 C5,22.553 5.448,23 6,23 L8,23 C8.552,23 9,22.553 9,22 C9,21.447 8.552,21 8,21" id="Fill-418" fill="#FFFFFF" sketch:type="MSShapeGroup"></path>
            <path d="M8,26 L6,26 C5.448,26 5,26.447 5,27 C5,27.553 5.448,28 6,28 L8,28 C8.552,28 9,27.553 9,27 C9,26.447 8.552,26 8,26" id="Fill-419" fill="#FFFFFF" sketch:type="MSShapeGroup"></path>
            <path d="M8,31 L6,31 C5.448,31 5,31.447 5,32 C5,32.553 5.448,33 6,33 L8,33 C8.552,33 9,32.553 9,32 C9,31.447 8.552,31 8,31" id="Fill-420" fill="#FFFFFF" sketch:type="MSShapeGroup"></path>
            <path d="M8,36 L6,36 C5.448,36 5,36.447 5,37 C5,37.553 5.448,38 6,38 L8,38 C8.552,38 9,37.553 9,37 C9,36.447 8.552,36 8,36" id="Fill-421" fill="#FFFFFF" sketch:type="MSShapeGroup"></path>
            <path d="M16,10 L18,10 C18.552,10 19,9.553 19,9 C19,8.447 18.552,8 18,8 L16,8 C15.448,8 15,8.447 15,9 C15,9.553 15.448,10 16,10" id="Fill-422" fill="#FFFFFF" sketch:type="MSShapeGroup"></path>
            <path d="M18,13 L16,13 C15.448,13 15,13.447 15,14 C15,14.553 15.448,15 16,15 L18,15 C18.552,15 19,14.553 19,14 C19,13.447 18.552,13 18,13" id="Fill-423" fill="#FFFFFF" sketch:type="MSShapeGroup"></path>
            <path d="M18,18 L16,18 C15.448,18 15,18.447 15,19 C15,19.553 15.448,20 16,20 L18,20 C18.552,20 19,19.553 19,19 C19,18.447 18.552,18 18,18" id="Fill-424" fill="#FFFFFF" sketch:type="MSShapeGroup"></path>
            <path d="M18,23 L16,23 C15.448,23 15,23.447 15,24 C15,24.553 15.448,25 16,25 L18,25 C18.552,25 19,24.553 19,24 C19,23.447 18.552,23 18,23" id="Fill-425" fill="#FFFFFF" sketch:type="MSShapeGroup"></path>
            <path d="M18,28 L16,28 C15.448,28 15,28.447 15,29 C15,29.553 15.448,30 16,30 L18,30 C18.552,30 19,29.553 19,29 C19,28.447 18.552,28 18,28" id="Fill-426" fill="#FFFFFF" sketch:type="MSShapeGroup"></path>
            <path d="M18,33 L16,33 C15.448,33 15,33.447 15,34 C15,34.553 15.448,35 16,35 L18,35 C18.552,35 19,34.553 19,34 C19,33.447 18.552,33 18,33" id="Fill-427" fill="#FFFFFF" sketch:type="MSShapeGroup"></path>
            <path d="M12.001,60 L12.001,60 C11.547,60 11.087,59.974 10.632,59.924 C5.147,59.315 0.71,54.894 0.081,49.412 C-0.421,45.029 1.455,40.807 5,38.261 L5,7 C5,3.141 8.14,0 12,0 C15.86,0 19,3.141 19,7 L19,38.261 C22.141,40.518 24,44.118 24,48 C24,51.205 22.752,54.219 20.485,56.485 C18.219,58.751 15.206,60 12.001,60 L12.001,60 Z M12,2 C9.243,2 7,4.243 7,7 L7,39.328 L6.546,39.625 C3.348,41.713 1.631,45.375 2.068,49.184 C2.591,53.749 6.286,57.43 10.853,57.935 C13.917,58.281 16.914,57.228 19.071,55.071 C20.96,53.183 22,50.671 22,48 C22,44.613 20.3,41.482 17.454,39.625 L17,39.329 L17,7 C17,4.243 14.757,2 12,2 L12,2 Z" id="Fill-843" fill="#CAD1D8" sketch:type="MSShapeGroup"></path>
        </g>
    </g>
</svg>