<?xml version="1.0" encoding="UTF-8" standalone="no"?>
<svg width="59px" height="55px" viewBox="0 0 59 55" version="1.1" xmlns="http://www.w3.org/2000/svg" xmlns:xlink="http://www.w3.org/1999/xlink" xmlns:sketch="http://www.bohemiancoding.com/sketch/ns">
    <!-- Generator: Sketch 3.2.2 (9983) - http://www.bohemiancoding.com/sketch -->
    <title>60 - Ocean Storm (Flat)</title>
    <desc>Created with Sketch.</desc>
    <defs></defs>
    <g id="Page-1" stroke="none" stroke-width="1" fill="none" fill-rule="evenodd" sketch:type="MSPage">
        <g id="60---Ocean-Storm-(Flat)" sketch:type="MSLayerGroup">
            <path d="M58.501,36.066 C56.341,34.818 55,32.494 55,30 C55,29.448 54.552,29 54,29 C49.4,29 45.601,32.471 45.07,36.931 C41.649,36.473 39,33.544 39,30 C39,29.448 38.552,29 38,29 C33.4,29 29.601,32.471 29.07,36.931 C25.649,36.473 23,33.544 23,30 C23,29.448 22.552,29 22,29 C17.4,29 13.601,32.471 13.07,36.931 C9.649,36.473 7,33.544 7,30 C7,29.448 6.552,29 6,29 C3.96,29 1.962,29.7 0.375,30.972 C-0.056,31.317 -0.126,31.947 0.22,32.377 C0.417,32.624 0.708,32.752 1.001,32.752 C1.22,32.752 1.441,32.681 1.625,32.533 C2.632,31.727 3.812,31.242 5.071,31.077 C5.606,35.533 9.403,39 14,39 C14.552,39 15,38.552 15,38 C15,34.456 17.649,31.527 21.07,31.069 C21.601,35.529 25.4,39 30,39 C30.552,39 31,38.552 31,38 C31,34.456 33.649,31.527 37.07,31.069 C37.601,35.529 41.4,39 46,39 C46.552,39 47,38.552 47,38 C47,34.456 49.65,31.526 53.072,31.069 C53.408,33.858 55.036,36.374 57.501,37.797 C57.658,37.889 57.83,37.932 58,37.932 C58.345,37.932 58.681,37.752 58.866,37.432 C59.143,36.954 58.979,36.342 58.501,36.066" id="Fill-131" fill="#84B5CB" sketch:type="MSShapeGroup"></path>
            <path d="M58.501,44.066 C56.341,42.818 55,40.494 55,38 C55,37.448 54.552,37 54,37 C49.4,37 45.601,40.471 45.07,44.931 C41.649,44.473 39,41.544 39,38 C39,37.448 38.552,37 38,37 C33.4,37 29.601,40.471 29.07,44.931 C25.649,44.473 23,41.544 23,38 C23,37.448 22.552,37 22,37 C17.4,37 13.601,40.471 13.07,44.931 C9.649,44.473 7,41.544 7,38 C7,37.448 6.552,37 6,37 C3.96,37 1.962,37.7 0.375,38.972 C-0.056,39.317 -0.126,39.947 0.22,40.377 C0.417,40.624 0.708,40.752 1.001,40.752 C1.22,40.752 1.441,40.681 1.625,40.533 C2.632,39.726 3.812,39.242 5.071,39.077 C5.606,43.533 9.403,47 14,47 C14.552,47 15,46.552 15,46 C15,42.456 17.649,39.527 21.07,39.069 C21.601,43.529 25.4,47 30,47 C30.552,47 31,46.552 31,46 C31,42.456 33.649,39.527 37.07,39.069 C37.601,43.529 41.4,47 46,47 C46.552,47 47,46.552 47,46 C47,42.456 49.65,39.526 53.072,39.069 C53.408,41.858 55.036,44.374 57.501,45.797 C57.658,45.889 57.83,45.932 58,45.932 C58.345,45.932 58.681,45.752 58.866,45.432 C59.143,44.954 58.979,44.342 58.501,44.066" id="Fill-132" fill="#84B5CB" sketch:type="MSShapeGroup"></path>
            <path d="M58.501,52.066 C56.341,50.818 55,48.494 55,46 C55,45.448 54.552,45 54,45 C49.4,45 45.601,48.471 45.07,52.931 C41.649,52.473 39,49.544 39,46 C39,45.448 38.552,45 38,45 C33.4,45 29.601,48.471 29.07,52.931 C25.649,52.473 23,49.544 23,46 C23,45.448 22.552,45 22,45 C17.4,45 13.601,48.471 13.07,52.931 C9.649,52.473 7,49.544 7,46 C7,45.448 6.552,45 6,45 C3.96,45 1.962,45.7 0.375,46.972 C-0.056,47.317 -0.126,47.947 0.22,48.377 C0.417,48.624 0.708,48.752 1.001,48.752 C1.22,48.752 1.441,48.681 1.625,48.533 C2.632,47.727 3.812,47.242 5.071,47.077 C5.606,51.533 9.403,55 14,55 C14.552,55 15,54.552 15,54 C15,50.456 17.649,47.527 21.07,47.069 C21.601,51.529 25.4,55 30,55 C30.552,55 31,54.552 31,54 C31,50.456 33.649,47.527 37.07,47.069 C37.601,51.529 41.4,55 46,55 C46.552,55 47,54.552 47,54 C47,50.456 49.65,47.526 53.072,47.069 C53.408,49.858 55.036,52.374 57.501,53.797 C57.658,53.889 57.83,53.932 58,53.932 C58.345,53.932 58.681,53.752 58.866,53.432 C59.143,52.954 58.979,52.342 58.501,52.066" id="Fill-133" fill="#84B5CB" sketch:type="MSShapeGroup"></path>
            <path d="M37,26 C36.448,26 36,25.552 36,25 C36,24.448 36.448,24 37,24 C40.86,24 44,20.86 44,17 C44,13.14 40.86,10 37,10 L17,10 C16.448,10 16,9.552 16,9 C16,8.448 16.448,8 17,8 L37,8 C41.962,8 46,12.038 46,17 C46,21.962 41.962,26 37,26" id="Fill-142" fill="#E4ECF4" sketch:type="MSShapeGroup"></path>
            <path d="M37,22 C34.243,22 32,19.757 32,17 C32,16.448 32.448,16 33,16 C33.552,16 34,16.448 34,17 C34,18.654 35.346,20 37,20 C38.654,20 40,18.654 40,17 C40,15.346 38.654,14 37,14 C36.448,14 36,13.552 36,13 C36,12.448 36.448,12 37,12 C39.757,12 42,14.243 42,17 C42,19.757 39.757,22 37,22" id="Fill-143" fill="#E4ECF4" sketch:type="MSShapeGroup"></path>
            <path d="M31,14 L25,14 C24.448,14 24,13.552 24,13 C24,12.448 24.448,12 25,12 L31,12 C31.552,12 32,12.448 32,13 C32,13.552 31.552,14 31,14" id="Fill-144" fill="#E4ECF4" sketch:type="MSShapeGroup"></path>
            <path d="M39,2 L8,2 C7.448,2 7,1.552 7,1 C7,0.448 7.448,0 8,0 L39,0 C39.552,0 40,0.448 40,1 C40,1.552 39.552,2 39,2" id="Fill-145" fill="#E4ECF4" sketch:type="MSShapeGroup"></path>
            <path d="M48,6 L12,6 C11.448,6 11,5.552 11,5 C11,4.448 11.448,4 12,4 L48,4 C48.552,4 49,4.448 49,5 C49,5.552 48.552,6 48,6" id="Fill-146" fill="#E4ECF4" sketch:type="MSShapeGroup"></path>
        </g>
    </g>
</svg>