<?xml version="1.0" encoding="UTF-8" standalone="no"?>
<svg width="38px" height="52px" viewBox="0 0 38 52" version="1.1" xmlns="http://www.w3.org/2000/svg" xmlns:xlink="http://www.w3.org/1999/xlink" xmlns:sketch="http://www.bohemiancoding.com/sketch/ns">
    <!-- Generator: Sketch 3.2.2 (9983) - http://www.bohemiancoding.com/sketch -->
    <title>52 - Rain (Flat)</title>
    <desc>Created with Sketch.</desc>
    <defs></defs>
    <g id="Page-1" stroke="none" stroke-width="1" fill="none" fill-rule="evenodd" sketch:type="MSPage">
        <g id="52---Rain-(Flat)" sketch:type="MSLayerGroup" fill="#D0E8F9">
            <path d="M18.193,30.863 C17.711,30.595 17.101,30.77 16.833,31.253 L14.776,34.964 C14.509,35.447 14.684,36.056 15.167,36.323 C15.32,36.409 15.486,36.449 15.65,36.449 C16.002,36.449 16.344,36.263 16.526,35.934 L18.583,32.223 C18.851,31.739 18.676,31.131 18.193,30.863" id="Fill-196" sketch:type="MSShapeGroup"></path>
            <path d="M20.947,23.831 L18.89,27.542 C18.622,28.025 18.797,28.634 19.279,28.902 C19.434,28.987 19.6,29.027 19.764,29.027 C20.115,29.027 20.457,28.842 20.64,28.512 L22.697,24.801 C22.965,24.318 22.79,23.709 22.308,23.442 C21.822,23.173 21.215,23.348 20.947,23.831" id="Fill-197" sketch:type="MSShapeGroup"></path>
            <path d="M21.636,39.239 C21.151,38.971 20.545,39.146 20.276,39.629 L18.218,43.339 C17.95,43.822 18.125,44.431 18.607,44.699 C18.762,44.784 18.928,44.824 19.092,44.824 C19.443,44.824 19.784,44.639 19.968,44.309 L22.025,40.599 C22.293,40.116 22.118,39.507 21.636,39.239" id="Fill-198" sketch:type="MSShapeGroup"></path>
            <path d="M25.748,31.818 C25.266,31.549 24.657,31.724 24.389,32.207 L22.332,35.918 C22.064,36.401 22.239,37.01 22.723,37.277 C22.876,37.363 23.042,37.403 23.206,37.403 C23.558,37.403 23.9,37.217 24.082,36.888 L26.139,33.177 C26.406,32.694 26.232,32.085 25.748,31.818" id="Fill-199" sketch:type="MSShapeGroup"></path>
            <path d="M10.637,29.909 C10.154,29.64 9.545,29.815 9.277,30.299 L7.221,34.009 C6.953,34.492 7.128,35.101 7.611,35.369 C7.765,35.454 7.931,35.494 8.095,35.494 C8.446,35.494 8.788,35.309 8.971,34.979 L11.027,31.269 C11.295,30.786 11.12,30.177 10.637,29.909" id="Fill-200" sketch:type="MSShapeGroup"></path>
            <path d="M6.524,37.331 C6.039,37.062 5.434,37.237 5.164,37.72 L3.106,41.431 C2.839,41.914 3.014,42.522 3.496,42.79 C3.65,42.875 3.817,42.915 3.981,42.915 C4.332,42.915 4.673,42.73 4.857,42.4 L6.914,38.69 C7.182,38.207 7.007,37.598 6.524,37.331" id="Fill-201" sketch:type="MSShapeGroup"></path>
            <path d="M14.08,38.285 C13.595,38.016 12.988,38.191 12.72,38.674 L10.662,42.385 C10.395,42.868 10.569,43.477 11.052,43.745 C11.206,43.83 11.372,43.87 11.536,43.87 C11.888,43.87 12.229,43.685 12.412,43.355 L14.47,39.644 C14.737,39.161 14.563,38.552 14.08,38.285" id="Fill-202" sketch:type="MSShapeGroup"></path>
            <path d="M9.965,45.706 C9.483,45.438 8.873,45.613 8.605,46.096 L6.549,49.807 C6.281,50.29 6.456,50.898 6.94,51.166 C7.093,51.251 7.259,51.292 7.423,51.292 C7.775,51.292 8.116,51.105 8.299,50.776 L10.356,47.065 C10.623,46.582 10.448,45.974 9.965,45.706" id="Fill-203" sketch:type="MSShapeGroup"></path>
            <path d="M14.75,22.488 C14.269,22.219 13.658,22.394 13.391,22.877 L11.334,26.588 C11.066,27.071 11.241,27.68 11.725,27.947 C11.878,28.033 12.044,28.073 12.208,28.073 C12.56,28.073 12.901,27.887 13.084,27.558 L15.141,23.847 C15.408,23.364 15.234,22.755 14.75,22.488" id="Fill-204" sketch:type="MSShapeGroup"></path>
            <path d="M33.304,32.772 C32.822,32.504 32.212,32.679 31.944,33.162 L29.888,36.873 C29.62,37.356 29.795,37.964 30.278,38.232 C30.432,38.317 30.598,38.357 30.762,38.357 C31.113,38.357 31.455,38.171 31.638,37.842 L33.694,34.131 C33.962,33.648 33.787,33.04 33.304,32.772" id="Fill-205" sketch:type="MSShapeGroup"></path>
            <path d="M37.419,25.351 C36.934,25.082 36.326,25.257 36.059,25.74 L34.001,29.451 C33.733,29.934 33.908,30.543 34.391,30.81 C34.545,30.896 34.711,30.936 34.875,30.936 C35.227,30.936 35.568,30.75 35.751,30.421 L37.809,26.71 C38.076,26.227 37.901,25.618 37.419,25.351" id="Fill-206" sketch:type="MSShapeGroup"></path>
            <path d="M27.507,14.059 C27.661,14.144 27.827,14.185 27.991,14.185 C28.343,14.185 28.685,13.999 28.867,13.669 L30.925,9.958 C31.192,9.476 31.018,8.867 30.535,8.599 C30.051,8.331 29.443,8.505 29.175,8.989 L27.117,12.7 C26.85,13.183 27.024,13.792 27.507,14.059" id="Fill-207" sketch:type="MSShapeGroup"></path>
            <path d="M31.622,6.638 C31.775,6.723 31.942,6.763 32.106,6.763 C32.457,6.763 32.799,6.577 32.982,6.248 L35.038,2.537 C35.306,2.054 35.131,1.445 34.647,1.178 C34.165,0.91 33.556,1.084 33.288,1.567 L31.231,5.278 C30.964,5.762 31.139,6.37 31.622,6.638" id="Fill-208" sketch:type="MSShapeGroup"></path>
            <path d="M29.863,24.396 C29.379,24.128 28.772,24.303 28.503,24.786 L26.445,28.497 C26.178,28.979 26.353,29.588 26.835,29.856 C26.989,29.941 27.155,29.981 27.319,29.981 C27.671,29.981 28.012,29.796 28.195,29.466 L30.253,25.756 C30.521,25.273 30.346,24.664 29.863,24.396" id="Fill-209" sketch:type="MSShapeGroup"></path>
            <path d="M32.616,17.365 L30.56,21.075 C30.292,21.558 30.467,22.167 30.95,22.435 C31.104,22.52 31.27,22.56 31.434,22.56 C31.785,22.56 32.127,22.375 32.31,22.045 L34.366,18.334 C34.634,17.852 34.459,17.243 33.976,16.975 C33.494,16.706 32.884,16.881 32.616,17.365" id="Fill-210" sketch:type="MSShapeGroup"></path>
            <path d="M19.952,13.104 C20.106,13.19 20.271,13.23 20.436,13.23 C20.787,13.23 21.129,13.044 21.312,12.715 L23.368,9.004 C23.636,8.521 23.461,7.913 22.978,7.645 C22.496,7.376 21.886,7.551 21.618,8.035 L19.562,11.745 C19.294,12.228 19.469,12.837 19.952,13.104" id="Fill-211" sketch:type="MSShapeGroup"></path>
            <path d="M15.839,20.526 C15.992,20.611 16.158,20.651 16.322,20.651 C16.674,20.651 17.016,20.466 17.198,20.136 L19.255,16.426 C19.523,15.943 19.348,15.334 18.864,15.066 C18.383,14.798 17.774,14.973 17.505,15.456 L15.448,19.167 C15.181,19.649 15.355,20.258 15.839,20.526" id="Fill-212" sketch:type="MSShapeGroup"></path>
            <path d="M4.452,26.481 C3.97,26.212 3.36,26.388 3.093,26.871 L1.036,30.581 C0.769,31.065 0.943,31.673 1.427,31.941 C1.58,32.026 1.746,32.066 1.91,32.066 C2.262,32.066 2.604,31.88 2.786,31.551 L4.843,27.84 C5.11,27.357 4.936,26.748 4.452,26.481" id="Fill-213" sketch:type="MSShapeGroup"></path>
            <path d="M5.539,24.52 C5.693,24.605 5.859,24.645 6.023,24.645 C6.375,24.645 6.717,24.459 6.899,24.13 L8.957,20.419 C9.225,19.936 9.05,19.327 8.567,19.06 C8.083,18.791 7.475,18.966 7.207,19.449 L5.15,23.16 C4.882,23.643 5.057,24.252 5.539,24.52" id="Fill-214" sketch:type="MSShapeGroup"></path>
            <path d="M13.767,9.677 C13.921,9.762 14.087,9.802 14.251,9.802 C14.603,9.802 14.944,9.617 15.127,9.287 L17.185,5.576 C17.452,5.093 17.277,4.484 16.795,4.217 C16.31,3.948 15.702,4.123 15.435,4.606 L13.377,8.317 C13.109,8.8 13.284,9.409 13.767,9.677" id="Fill-215" sketch:type="MSShapeGroup"></path>
            <path d="M9.654,17.098 C9.808,17.184 9.974,17.224 10.138,17.224 C10.489,17.224 10.831,17.038 11.014,16.708 L13.07,12.998 C13.338,12.514 13.163,11.906 12.68,11.638 C12.197,11.37 11.589,11.545 11.32,12.028 L9.264,15.739 C8.996,16.222 9.171,16.831 9.654,17.098" id="Fill-216" sketch:type="MSShapeGroup"></path>
            <path d="M25.061,16.41 L23.004,20.121 C22.736,20.604 22.911,21.213 23.395,21.48 C23.548,21.566 23.714,21.606 23.878,21.606 C24.229,21.606 24.571,21.42 24.754,21.091 L26.811,17.38 C27.078,16.896 26.903,16.288 26.42,16.021 C25.937,15.752 25.328,15.927 25.061,16.41" id="Fill-217" sketch:type="MSShapeGroup"></path>
            <path d="M24.067,5.683 C24.22,5.769 24.386,5.809 24.55,5.809 C24.901,5.809 25.243,5.623 25.426,5.293 L27.483,1.583 C27.75,1.1 27.575,0.491 27.092,0.224 C26.61,-0.045 26,0.13 25.732,0.613 L23.676,4.324 C23.408,4.807 23.583,5.415 24.067,5.683" id="Fill-218" sketch:type="MSShapeGroup"></path>
        </g>
    </g>
</svg>