<?xml version="1.0" encoding="UTF-8" standalone="no"?>
<svg width="60px" height="57px" viewBox="0 0 60 57" version="1.1" xmlns="http://www.w3.org/2000/svg" xmlns:xlink="http://www.w3.org/1999/xlink" xmlns:sketch="http://www.bohemiancoding.com/sketch/ns">
    <!-- Generator: Sketch 3.2.2 (9983) - http://www.bohemiancoding.com/sketch -->
    <title>29 - Rainy Time (Flat)</title>
    <desc>Created with Sketch.</desc>
    <defs></defs>
    <g id="Page-1" stroke="none" stroke-width="1" fill="none" fill-rule="evenodd" sketch:type="MSPage">
        <g id="29---Rainy-Time-(Flat)" sketch:type="MSLayerGroup" transform="translate(1.000000, -1.000000)">
            <path d="M24,8 L24,5" id="Stroke-1" stroke="#7F6E5D" stroke-width="2" stroke-linecap="round" sketch:type="MSShapeGroup"></path>
            <path d="M41,12 C40.744,12 40.488,11.902 40.293,11.707 C39.902,11.316 39.902,10.684 40.293,10.293 L43.293,7.293 C43.684,6.902 44.316,6.902 44.707,7.293 C45.098,7.684 45.098,8.316 44.707,8.707 L41.707,11.707 C41.512,11.902 41.256,12 41,12" id="Fill-159" fill="#ABCADD" sketch:type="MSShapeGroup"></path>
            <path d="M48,21 C47.744,21 47.488,20.902 47.293,20.707 C46.902,20.316 46.902,19.684 47.293,19.293 L50.293,16.293 C50.684,15.902 51.316,15.902 51.707,16.293 C52.098,16.684 52.098,17.316 51.707,17.707 L48.707,20.707 C48.512,20.902 48.256,21 48,21" id="Fill-160" fill="#ABCADD" sketch:type="MSShapeGroup"></path>
            <path d="M55,6 C54.744,6 54.488,5.902 54.293,5.707 C53.902,5.316 53.902,4.684 54.293,4.293 L57.293,1.293 C57.684,0.902 58.316,0.902 58.707,1.293 C59.098,1.684 59.098,2.316 58.707,2.707 L55.707,5.707 C55.512,5.902 55.256,6 55,6" id="Fill-161" fill="#ABCADD" sketch:type="MSShapeGroup"></path>
            <path d="M49,12 C48.744,12 48.488,11.902 48.293,11.707 C47.902,11.316 47.902,10.684 48.293,10.293 L51.293,7.293 C51.684,6.902 52.316,6.902 52.707,7.293 C53.098,7.684 53.098,8.316 52.707,8.707 L49.707,11.707 C49.512,11.902 49.256,12 49,12" id="Fill-162" fill="#ABCADD" sketch:type="MSShapeGroup"></path>
            <path d="M47,6 C46.744,6 46.488,5.902 46.293,5.707 C45.902,5.316 45.902,4.684 46.293,4.293 L49.293,1.293 C49.684,0.902 50.316,0.902 50.707,1.293 C51.098,1.684 51.098,2.316 50.707,2.707 L47.707,5.707 C47.512,5.902 47.256,6 47,6" id="Fill-163" fill="#ABCADD" sketch:type="MSShapeGroup"></path>
            <path d="M55,14 C54.744,14 54.488,13.902 54.293,13.707 C53.902,13.316 53.902,12.684 54.293,12.293 L57.293,9.293 C57.684,8.902 58.316,8.902 58.707,9.293 C59.098,9.684 59.098,10.316 58.707,10.707 L55.707,13.707 C55.512,13.902 55.256,14 55,14" id="Fill-164" fill="#ABCADD" sketch:type="MSShapeGroup"></path>
            <path d="M24,32 L24,46" id="Stroke-1049" stroke="#7F6E5D" stroke-width="2" stroke-linecap="round" sketch:type="MSShapeGroup"></path>
            <path d="M22,46 L22,52 C22,53.102 21.103,54 20,54 C19.239,54 18.576,53.572 18.238,52.945 C17.91,52.337 17.233,52 16.542,52 C14.983,52 14.037,53.698 14.829,55.041 C15.873,56.81 17.8,58 20,58 C23.309,58 26,55.309 26,52 L26,46 L22,46" id="Fill-1050" fill="#CB8252" sketch:type="MSShapeGroup"></path>
            <path d="M22,42 L24,42" id="Stroke-1051" stroke="#7F6E5D" stroke-width="2" stroke-linecap="round" sketch:type="MSShapeGroup"></path>
            <path d="M23,9 C23,9 12.969,13.219 13,30 C13,30 17.781,25.594 23,30 L23,9" id="Fill-1052" fill="#556080" sketch:type="MSShapeGroup"></path>
            <path d="M27,8.562 C27,8.562 46.778,12.108 47.876,31 C47.876,31 42.524,25.922 36.897,31 C36.897,31 33.724,13.228 27,8.562" id="Fill-1053" fill="#556080" sketch:type="MSShapeGroup"></path>
            <path d="M25,9 C25,9 35.031,13.219 35,30 C35,30 30.219,25.594 25,30 L25,9" id="Fill-1054" fill="#8697CB" sketch:type="MSShapeGroup"></path>
            <path d="M18.896,9.563 C18.896,9.563 2,12.792 1,30 C1,30 5.875,25.375 11,30 C11,30 12.771,13.812 18.896,9.563" id="Fill-1055" fill="#8697CB" sketch:type="MSShapeGroup"></path>
            <path d="M12,32 C8.684,28 3.316,28 0,32 M24,32 C20.684,28 15.316,28 12,32 M36,32 C32.684,28 27.316,28 24,32 M48,32 C44.684,28 39.316,28 36,32 M0,32 C0,18.745 10.745,8 24,8 C37.255,8 48,18.745 48,32 M12,32 C12,18.734 17.815,8 25,8 M36,32 C36,18.734 30.186,8 23,8 M24,32 L24,8 M12,32 L12,34 M0,32 L0,34 M36,32 L36,34 M24,32 L24,34 M48,32 L48,34" id="Stroke-1056" stroke="#546A79" stroke-width="2" stroke-linecap="round" sketch:type="MSShapeGroup"></path>
        </g>
    </g>
</svg>