<?xml version="1.0" encoding="UTF-8" standalone="no"?>
<svg width="60px" height="32px" viewBox="0 0 60 32" version="1.1" xmlns="http://www.w3.org/2000/svg" xmlns:xlink="http://www.w3.org/1999/xlink" xmlns:sketch="http://www.bohemiancoding.com/sketch/ns">
    <!-- Generator: Sketch 3.2.2 (9983) - http://www.bohemiancoding.com/sketch -->
    <title>41 - Rainbow (Flat)</title>
    <desc>Created with Sketch.</desc>
    <defs></defs>
    <g id="Page-1" stroke="none" stroke-width="1" fill="none" fill-rule="evenodd" sketch:type="MSPage">
        <g id="41---Rainbow-(Flat)" sketch:type="MSLayerGroup">
            <path d="M4.645,31.154 C4.627,30.771 4.615,30.387 4.615,30 C4.615,16.003 16.003,4.615 30,4.615 C43.997,4.615 55.385,16.003 55.385,30 C55.385,30.387 55.373,30.771 55.355,31.154 L59.971,31.154 C59.985,30.77 60,30.387 60,30 C60,13.431 46.569,0 30,0 C13.432,0 0,13.431 0,30 C0,30.387 0.015,30.77 0.029,31.154 L4.645,31.154" id="Fill-859" fill="#E64C3C" sketch:type="MSShapeGroup"></path>
            <path d="M9.289,31.154 C9.268,30.77 9.231,30.39 9.231,30 C9.231,18.548 18.548,9.231 30,9.231 C41.452,9.231 50.769,18.548 50.769,30 C50.769,30.39 50.732,30.77 50.711,31.154 L55.355,31.154 C55.373,30.771 55.385,30.387 55.385,30 C55.385,16.003 43.997,4.615 30,4.615 C16.003,4.615 4.615,16.003 4.615,30 C4.615,30.387 4.627,30.771 4.645,31.154 L9.289,31.154" id="Fill-860" fill="#F0C419" sketch:type="MSShapeGroup"></path>
            <path d="M13.905,31.154 C13.877,30.771 13.846,30.39 13.846,30 C13.846,21.093 21.093,13.846 30,13.846 C38.907,13.846 46.154,21.093 46.154,30 C46.154,30.39 46.123,30.771 46.096,31.154 L50.711,31.154 C50.732,30.77 50.769,30.39 50.769,30 C50.769,18.548 41.452,9.231 30,9.231 C18.548,9.231 9.231,18.548 9.231,30 C9.231,30.39 9.268,30.77 9.289,31.154 L13.905,31.154" id="Fill-861" fill="#71C285" sketch:type="MSShapeGroup"></path>
            <path d="M18.52,31.154 C18.482,30.774 18.462,30.39 18.462,30 C18.462,23.638 23.637,18.461 30,18.461 C36.363,18.461 41.538,23.638 41.538,30 C41.538,30.39 41.518,30.774 41.48,31.154 L46.096,31.154 C46.123,30.771 46.154,30.39 46.154,30 C46.154,21.093 38.907,13.846 30,13.846 C21.093,13.846 13.846,21.093 13.846,30 C13.846,30.39 13.877,30.771 13.905,31.154 L18.52,31.154" id="Fill-862" fill="#0096E6" sketch:type="MSShapeGroup"></path>
            <path d="M23.181,31.154 C23.118,30.778 23.077,30.394 23.077,30 C23.077,26.182 26.182,23.077 30,23.077 C33.818,23.077 36.923,26.182 36.923,30 C36.923,30.394 36.883,30.778 36.819,31.154 L41.48,31.154 C41.518,30.774 41.538,30.39 41.538,30 C41.538,23.638 36.363,18.461 30,18.461 C23.637,18.461 18.462,23.638 18.462,30 C18.462,30.39 18.482,30.774 18.52,31.154 L23.181,31.154" id="Fill-863" fill="#546A79" sketch:type="MSShapeGroup"></path>
        </g>
    </g>
</svg>