<?xml version="1.0" encoding="UTF-8" standalone="no"?>
<svg width="60px" height="55px" viewBox="0 0 60 55" version="1.1" xmlns="http://www.w3.org/2000/svg" xmlns:xlink="http://www.w3.org/1999/xlink" xmlns:sketch="http://www.bohemiancoding.com/sketch/ns">
    <!-- Generator: Sketch 3.2.2 (9983) - http://www.bohemiancoding.com/sketch -->
    <title>66 - Seaside Sunset (Flat)</title>
    <desc>Created with Sketch.</desc>
    <defs></defs>
    <g id="Page-1" stroke="none" stroke-width="1" fill="none" fill-rule="evenodd" sketch:type="MSPage">
        <g id="66---Seaside-Sunset-(Flat)" sketch:type="MSLayerGroup">
            <path d="M30,0 C29.448,0 29,0.448 29,1 L29,7 C29,7.552 29.448,8 30,8 C30.552,8 31,7.552 31,7 L31,1 C31,0.448 30.552,0 30,0" id="Fill-683" fill="#F0C419" sketch:type="MSShapeGroup"></path>
            <path d="M59,29 L53,29 C52.448,29 52,29.448 52,30 C52,30.552 52.448,31 53,31 L59,31 C59.552,31 60,30.552 60,30 C60,29.448 59.552,29 59,29" id="Fill-684" fill="#F0C419" sketch:type="MSShapeGroup"></path>
            <path d="M7,29 L1,29 C0.448,29 0,29.448 0,30 C0,30.552 0.448,31 1,31 L7,31 C7.552,31 8,30.552 8,30 C8,29.448 7.552,29 7,29" id="Fill-685" fill="#F0C419" sketch:type="MSShapeGroup"></path>
            <path d="M52.707,7.293 C52.316,6.902 51.684,6.902 51.293,7.293 L45.557,13.029 C45.166,13.42 45.166,14.053 45.557,14.443 C45.752,14.639 46.008,14.736 46.264,14.736 C46.519,14.736 46.775,14.639 46.971,14.443 L52.707,8.707 C53.098,8.316 53.098,7.684 52.707,7.293" id="Fill-686" fill="#F0C419" sketch:type="MSShapeGroup"></path>
            <path d="M8.707,7.293 C8.316,6.902 7.684,6.902 7.293,7.293 C6.902,7.684 6.902,8.316 7.293,8.707 L13.029,14.443 C13.225,14.639 13.481,14.736 13.736,14.736 C13.992,14.736 14.248,14.639 14.443,14.443 C14.834,14.053 14.834,13.42 14.443,13.029 L8.707,7.293" id="Fill-687" fill="#F0C419" sketch:type="MSShapeGroup"></path>
            <path d="M54.854,19.45 C54.638,18.942 54.05,18.704 53.543,18.92 L50.781,20.093 C50.273,20.309 50.035,20.896 50.251,21.404 C50.413,21.785 50.783,22.014 51.172,22.014 C51.302,22.014 51.435,21.988 51.562,21.934 L54.324,20.761 C54.832,20.545 55.069,19.958 54.854,19.45" id="Fill-688" fill="#F0C419" sketch:type="MSShapeGroup"></path>
            <path d="M9.049,20.457 L6.268,19.333 C5.755,19.126 5.172,19.373 4.966,19.886 C4.759,20.397 5.006,20.98 5.519,21.187 L8.3,22.311 C8.423,22.361 8.55,22.385 8.674,22.385 C9.07,22.385 9.445,22.148 9.602,21.759 C9.809,21.247 9.562,20.664 9.049,20.457" id="Fill-689" fill="#F0C419" sketch:type="MSShapeGroup"></path>
            <path d="M20.761,5.676 C20.545,5.167 19.957,4.93 19.45,5.146 C18.942,5.362 18.705,5.949 18.92,6.457 L20.093,9.219 C20.254,9.6 20.625,9.829 21.014,9.829 C21.144,9.829 21.276,9.803 21.404,9.749 C21.912,9.533 22.149,8.946 21.934,8.438 L20.761,5.676" id="Fill-690" fill="#F0C419" sketch:type="MSShapeGroup"></path>
            <path d="M40.114,4.966 C39.604,4.759 39.019,5.006 38.813,5.519 L37.689,8.3 C37.481,8.812 37.729,9.395 38.241,9.602 C38.364,9.651 38.491,9.675 38.615,9.675 C39.011,9.675 39.386,9.439 39.543,9.049 L40.667,6.268 C40.874,5.756 40.627,5.173 40.114,4.966" id="Fill-691" fill="#F0C419" sketch:type="MSShapeGroup"></path>
            <path d="M2.719,39.695 C4.4,37.957 6.631,37 9,37 C11.369,37 13.6,37.957 15.281,39.695 L16,40.438 L16.719,39.695 C18.4,37.957 20.631,37 23,37 C25.369,37 27.6,37.957 29.281,39.695 L30,40.438 L30.719,39.695 C32.4,37.957 34.631,37 37,37 C39.369,37 41.6,37.957 43.281,39.695 L44,40.438 L44.719,39.695 C46.4,37.957 48.631,37 51,37 C53.369,37 55.6,37.957 57.281,39.695 C57.665,40.092 58.298,40.104 58.695,39.719 C59.092,39.335 59.102,38.702 58.719,38.305 C56.657,36.174 53.916,35 51,35 C48.411,35 45.96,35.925 44,37.624 C42.04,35.925 39.589,35 37,35 C34.411,35 31.96,35.925 30,37.624 C28.04,35.925 25.589,35 23,35 C20.411,35 17.96,35.925 16,37.624 C14.04,35.925 11.589,35 9,35 C6.084,35 3.343,36.174 1.281,38.305 C0.898,38.702 0.908,39.335 1.305,39.719 C1.702,40.102 2.334,40.092 2.719,39.695" id="Fill-910" fill="#84B5CB" sketch:type="MSShapeGroup"></path>
            <path d="M51,42 C48.411,42 45.96,42.925 44,44.624 C42.04,42.925 39.589,42 37,42 C34.411,42 31.96,42.925 30,44.624 C28.04,42.925 25.589,42 23,42 C20.411,42 17.96,42.925 16,44.624 C14.04,42.925 11.589,42 9,42 C6.084,42 3.343,43.174 1.281,45.305 C0.898,45.702 0.908,46.335 1.305,46.719 C1.702,47.102 2.334,47.092 2.719,46.695 C4.4,44.957 6.631,44 9,44 C11.369,44 13.6,44.957 15.281,46.695 L16,47.438 L16.719,46.695 C18.4,44.957 20.631,44 23,44 C25.369,44 27.6,44.957 29.281,46.695 L30,47.438 L30.719,46.695 C32.4,44.957 34.631,44 37,44 C39.369,44 41.6,44.957 43.281,46.695 L44,47.438 L44.719,46.695 C46.4,44.957 48.631,44 51,44 C53.369,44 55.6,44.957 57.281,46.695 C57.665,47.092 58.298,47.104 58.695,46.719 C59.092,46.335 59.102,45.702 58.719,45.305 C56.657,43.174 53.916,42 51,42" id="Fill-911" fill="#84B5CB" sketch:type="MSShapeGroup"></path>
            <path d="M51,49 C48.411,49 45.96,49.925 44,51.624 C42.04,49.925 39.589,49 37,49 C34.411,49 31.96,49.925 30,51.624 C28.04,49.925 25.589,49 23,49 C20.411,49 17.96,49.925 16,51.624 C14.04,49.925 11.589,49 9,49 C6.084,49 3.343,50.174 1.281,52.305 C0.898,52.702 0.908,53.335 1.305,53.719 C1.702,54.102 2.334,54.092 2.719,53.695 C4.4,51.957 6.631,51 9,51 C11.369,51 13.6,51.957 15.281,53.695 L16,54.438 L16.719,53.695 C18.4,51.957 20.631,51 23,51 C25.369,51 27.6,51.957 29.281,53.695 L30,54.438 L30.719,53.695 C32.4,51.957 34.631,51 37,51 C39.369,51 41.6,51.957 43.281,53.695 L44,54.438 L44.719,53.695 C46.4,51.957 48.631,51 51,51 C53.369,51 55.6,51.957 57.281,53.695 C57.665,54.092 58.298,54.104 58.695,53.719 C59.092,53.335 59.102,52.702 58.719,52.305 C56.657,50.174 53.916,49 51,49" id="Fill-912" fill="#84B5CB" sketch:type="MSShapeGroup"></path>
            <path d="M16,37.624 C17.96,35.925 20.411,35 23,35 C25.589,35 28.04,35.925 30,37.624 C31.96,35.925 34.411,35 37,35 C39.589,35 42.04,35.925 44,37.624 C45.524,36.303 47.347,35.457 49.299,35.143 C49.739,33.499 50,31.783 50,30 C50,18.954 41.046,10 30,10 C18.954,10 10,18.954 10,30 C10,31.783 10.261,33.499 10.701,35.143 C12.653,35.457 14.476,36.303 16,37.624" id="Fill-913" fill="#F0C419" sketch:type="MSShapeGroup"></path>
            <path d="M23,35 C25.589,35 28.04,35.925 30,37.624 C31.96,35.925 34.411,35 37,35 C39.264,35 41.422,35.707 43.239,37.021 C44.357,34.926 45,32.541 45,30 C45,21.716 38.284,15 30,15 C21.716,15 15,21.716 15,30 C15,32.541 15.644,34.926 16.761,37.021 C18.578,35.707 20.736,35 23,35" id="Fill-914" fill="#EDE21B" sketch:type="MSShapeGroup"></path>
        </g>
    </g>
</svg>