<?xml version="1.0" encoding="UTF-8" standalone="no"?>
<svg width="54px" height="51px" viewBox="0 0 54 51" version="1.1" xmlns="http://www.w3.org/2000/svg" xmlns:xlink="http://www.w3.org/1999/xlink" xmlns:sketch="http://www.bohemiancoding.com/sketch/ns">
    <!-- Generator: Sketch 3.2.2 (9983) - http://www.bohemiancoding.com/sketch -->
    <title>53 - Snow (Flat)</title>
    <desc>Created with Sketch.</desc>
    <defs></defs>
    <g id="Page-1" stroke="none" stroke-width="1" fill="none" fill-rule="evenodd" sketch:type="MSPage">
        <g id="53---Snow-(Flat)" sketch:type="MSLayerGroup" fill="#E6E7E8">
            <path d="M42.196,29 C41.919,28.521 41.307,28.357 40.83,28.634 L38,30.268 L38,27 C38,26.448 37.553,26 37,26 C36.447,26 36,26.448 36,27 L36,30.268 L33.17,28.634 C32.692,28.357 32.08,28.521 31.804,29 C31.527,29.478 31.691,30.09 32.17,30.366 L35,32 L32.17,33.634 C31.691,33.91 31.527,34.521 31.804,35 C31.989,35.321 32.325,35.5 32.671,35.5 C32.841,35.5 33.013,35.457 33.17,35.366 L36,33.732 L36,37 C36,37.552 36.447,38 37,38 C37.553,38 38,37.552 38,37 L38,33.732 L40.83,35.366 C40.987,35.457 41.159,35.5 41.329,35.5 C41.675,35.5 42.011,35.321 42.196,35 C42.473,34.521 42.309,33.91 41.83,33.634 L39,32 L41.83,30.366 C42.309,30.09 42.473,29.478 42.196,29" id="Fill-271" sketch:type="MSShapeGroup"></path>
            <path d="M21.196,29 C20.919,28.521 20.307,28.357 19.83,28.634 L17,30.268 L17,27 C17,26.448 16.553,26 16,26 C15.447,26 15,26.448 15,27 L15,30.268 L12.17,28.634 C11.692,28.357 11.08,28.521 10.804,29 C10.527,29.478 10.691,30.09 11.17,30.366 L14,32 L11.17,33.634 C10.691,33.91 10.527,34.521 10.804,35 C10.989,35.321 11.325,35.5 11.671,35.5 C11.841,35.5 12.013,35.457 12.17,35.366 L15,33.732 L15,37 C15,37.552 15.447,38 16,38 C16.553,38 17,37.552 17,37 L17,33.732 L19.83,35.366 C19.987,35.457 20.159,35.5 20.329,35.5 C20.675,35.5 21.011,35.321 21.196,35 C21.473,34.521 21.309,33.91 20.83,33.634 L18,32 L20.83,30.366 C21.309,30.09 21.473,29.478 21.196,29" id="Fill-272" sketch:type="MSShapeGroup"></path>
            <path d="M42.196,3 C41.919,2.521 41.307,2.357 40.83,2.634 L38,4.268 L38,1 C38,0.448 37.553,0 37,0 C36.447,0 36,0.448 36,1 L36,4.268 L33.17,2.634 C32.692,2.357 32.08,2.521 31.804,3 C31.527,3.478 31.691,4.09 32.17,4.366 L35,6 L32.17,7.634 C31.691,7.91 31.527,8.521 31.804,9 C31.989,9.321 32.325,9.5 32.671,9.5 C32.841,9.5 33.013,9.457 33.17,9.366 L36,7.732 L36,11 C36,11.552 36.447,12 37,12 C37.553,12 38,11.552 38,11 L38,7.732 L40.83,9.366 C40.987,9.457 41.159,9.5 41.329,9.5 C41.675,9.5 42.011,9.321 42.196,9 C42.473,8.521 42.309,7.91 41.83,7.634 L39,6 L41.83,4.366 C42.309,4.09 42.473,3.478 42.196,3" id="Fill-273" sketch:type="MSShapeGroup"></path>
            <path d="M21.196,3 C20.919,2.521 20.307,2.357 19.83,2.634 L17,4.268 L17,1 C17,0.448 16.553,0 16,0 C15.447,0 15,0.448 15,1 L15,4.268 L12.17,2.634 C11.692,2.357 11.08,2.521 10.804,3 C10.527,3.478 10.691,4.09 11.17,4.366 L14,6 L11.17,7.634 C10.691,7.91 10.527,8.521 10.804,9 C10.989,9.321 11.325,9.5 11.671,9.5 C11.841,9.5 12.013,9.457 12.17,9.366 L15,7.732 L15,11 C15,11.552 15.447,12 16,12 C16.553,12 17,11.552 17,11 L17,7.732 L19.83,9.366 C19.987,9.457 20.159,9.5 20.329,9.5 C20.675,9.5 21.011,9.321 21.196,9 C21.473,8.521 21.309,7.91 20.83,7.634 L18,6 L20.83,4.366 C21.309,4.09 21.473,3.478 21.196,3" id="Fill-274" sketch:type="MSShapeGroup"></path>
            <path d="M32.196,42.031 C31.919,41.553 31.307,41.389 30.83,41.665 L28,43.299 L28,40.031 C28,39.479 27.553,39.031 27,39.031 C26.447,39.031 26,39.479 26,40.031 L26,43.299 L23.17,41.665 C22.692,41.389 22.08,41.553 21.804,42.031 C21.527,42.51 21.691,43.121 22.17,43.397 L25,45.031 L22.17,46.665 C21.691,46.941 21.527,47.553 21.804,48.031 C21.989,48.352 22.325,48.531 22.671,48.531 C22.841,48.531 23.013,48.488 23.17,48.397 L26,46.763 L26,50.031 C26,50.583 26.447,51.031 27,51.031 C27.553,51.031 28,50.583 28,50.031 L28,46.763 L30.83,48.397 C30.987,48.488 31.159,48.531 31.329,48.531 C31.675,48.531 32.011,48.352 32.196,48.031 C32.473,47.553 32.309,46.941 31.83,46.665 L29,45.031 L31.83,43.397 C32.309,43.121 32.473,42.51 32.196,42.031" id="Fill-275" sketch:type="MSShapeGroup"></path>
            <path d="M11.196,42.031 C10.919,41.553 10.307,41.389 9.83,41.665 L7,43.299 L7,40.031 C7,39.479 6.553,39.031 6,39.031 C5.447,39.031 5,39.479 5,40.031 L5,43.299 L2.17,41.665 C1.692,41.389 1.08,41.553 0.804,42.031 C0.527,42.51 0.691,43.121 1.17,43.397 L4,45.031 L1.17,46.665 C0.691,46.941 0.527,47.553 0.804,48.031 C0.989,48.352 1.325,48.531 1.671,48.531 C1.841,48.531 2.013,48.488 2.17,48.397 L5,46.763 L5,50.031 C5,50.583 5.447,51.031 6,51.031 C6.553,51.031 7,50.583 7,50.031 L7,46.763 L9.83,48.397 C9.987,48.488 10.159,48.531 10.329,48.531 C10.675,48.531 11.011,48.352 11.196,48.031 C11.473,47.553 11.309,46.941 10.83,46.665 L8,45.031 L10.83,43.397 C11.309,43.121 11.473,42.51 11.196,42.031" id="Fill-276" sketch:type="MSShapeGroup"></path>
            <path d="M53.196,42.031 C52.919,41.553 52.307,41.389 51.83,41.665 L49,43.299 L49,40.031 C49,39.479 48.553,39.031 48,39.031 C47.447,39.031 47,39.479 47,40.031 L47,43.299 L44.17,41.665 C43.692,41.389 43.08,41.553 42.804,42.031 C42.527,42.51 42.691,43.121 43.17,43.397 L46,45.031 L43.17,46.665 C42.691,46.941 42.527,47.553 42.804,48.031 C42.989,48.352 43.325,48.531 43.671,48.531 C43.841,48.531 44.013,48.488 44.17,48.397 L47,46.763 L47,50.031 C47,50.583 47.447,51.031 48,51.031 C48.553,51.031 49,50.583 49,50.031 L49,46.763 L51.83,48.397 C51.987,48.488 52.159,48.531 52.329,48.531 C52.675,48.531 53.011,48.352 53.196,48.031 C53.473,47.553 53.309,46.941 52.83,46.665 L50,45.031 L52.83,43.397 C53.309,43.121 53.473,42.51 53.196,42.031" id="Fill-277" sketch:type="MSShapeGroup"></path>
            <path d="M21.804,22.031 C21.989,22.352 22.325,22.531 22.671,22.531 C22.841,22.531 23.013,22.488 23.17,22.397 L26,20.763 L26,24.031 C26,24.583 26.447,25.031 27,25.031 C27.553,25.031 28,24.583 28,24.031 L28,20.763 L30.83,22.397 C30.987,22.488 31.159,22.531 31.329,22.531 C31.675,22.531 32.011,22.352 32.196,22.031 C32.473,21.553 32.309,20.941 31.83,20.665 L29,19.031 L31.83,17.397 C32.309,17.121 32.473,16.51 32.196,16.031 C31.919,15.552 31.307,15.388 30.83,15.665 L28,17.299 L28,14.031 C28,13.479 27.553,13.031 27,13.031 C26.447,13.031 26,13.479 26,14.031 L26,17.299 L23.17,15.665 C22.692,15.388 22.08,15.552 21.804,16.031 C21.527,16.51 21.691,17.121 22.17,17.397 L25,19.031 L22.17,20.665 C21.691,20.941 21.527,21.553 21.804,22.031" id="Fill-278" sketch:type="MSShapeGroup"></path>
            <path d="M0.804,22.031 C0.989,22.352 1.325,22.531 1.671,22.531 C1.841,22.531 2.013,22.488 2.17,22.397 L5,20.763 L5,24.031 C5,24.583 5.447,25.031 6,25.031 C6.553,25.031 7,24.583 7,24.031 L7,20.763 L9.83,22.397 C9.987,22.488 10.159,22.531 10.329,22.531 C10.675,22.531 11.011,22.352 11.196,22.031 C11.473,21.553 11.309,20.941 10.83,20.665 L8,19.031 L10.83,17.397 C11.309,17.121 11.473,16.51 11.196,16.031 C10.919,15.552 10.307,15.388 9.83,15.665 L7,17.299 L7,14.031 C7,13.479 6.553,13.031 6,13.031 C5.447,13.031 5,13.479 5,14.031 L5,17.299 L2.17,15.665 C1.692,15.388 1.08,15.552 0.804,16.031 C0.527,16.51 0.691,17.121 1.17,17.397 L4,19.031 L1.17,20.665 C0.691,20.941 0.527,21.553 0.804,22.031" id="Fill-279" sketch:type="MSShapeGroup"></path>
            <path d="M52.83,20.665 L50,19.031 L52.83,17.397 C53.309,17.121 53.473,16.51 53.196,16.031 C52.919,15.552 52.307,15.388 51.83,15.665 L49,17.299 L49,14.031 C49,13.479 48.553,13.031 48,13.031 C47.447,13.031 47,13.479 47,14.031 L47,17.299 L44.17,15.665 C43.692,15.388 43.08,15.552 42.804,16.031 C42.527,16.51 42.691,17.121 43.17,17.397 L46,19.031 L43.17,20.665 C42.691,20.941 42.527,21.553 42.804,22.031 C42.989,22.352 43.325,22.531 43.671,22.531 C43.841,22.531 44.013,22.488 44.17,22.397 L47,20.763 L47,24.031 C47,24.583 47.447,25.031 48,25.031 C48.553,25.031 49,24.583 49,24.031 L49,20.763 L51.83,22.397 C51.987,22.488 52.159,22.531 52.329,22.531 C52.675,22.531 53.011,22.352 53.196,22.031 C53.473,21.553 53.309,20.941 52.83,20.665" id="Fill-280" sketch:type="MSShapeGroup"></path>
        </g>
    </g>
</svg>