<?xml version="1.0" encoding="UTF-8" standalone="no"?>
<svg width="52px" height="52px" viewBox="0 0 52 52" version="1.1" xmlns="http://www.w3.org/2000/svg" xmlns:xlink="http://www.w3.org/1999/xlink" xmlns:sketch="http://www.bohemiancoding.com/sketch/ns">
    <!-- Generator: Sketch 3.2.2 (9983) - http://www.bohemiancoding.com/sketch -->
    <title>12 - Snowflake (Flat)</title>
    <desc>Created with Sketch.</desc>
    <defs></defs>
    <g id="Page-1" stroke="none" stroke-width="1" fill="none" fill-rule="evenodd" sketch:type="MSPage">
        <g id="12---Snowflake-(Flat)" sketch:type="MSLayerGroup" fill="#E4ECF4">
            <path d="M51,25 L48.414,25 L50.707,22.707 C51.098,22.316 51.098,21.684 50.707,21.293 C50.317,20.902 49.684,20.902 49.293,21.293 L45.586,25 L40.414,25 L42.707,22.707 C43.098,22.316 43.098,21.684 42.707,21.293 C42.316,20.902 41.684,20.902 41.293,21.293 L37.586,25 L28.414,25 L39.414,14 L45,14 C45.553,14 46,13.553 46,13 C46,12.447 45.553,12 45,12 L41.414,12 L44.707,8.707 C45.098,8.316 45.098,7.684 44.707,7.293 C44.317,6.902 43.684,6.902 43.293,7.293 L40,10.586 L40,7 C40,6.447 39.553,6 39,6 C38.447,6 38,6.447 38,7 L38,12.586 L27,23.586 L27,14.414 L30.707,10.707 C31.098,10.316 31.098,9.684 30.707,9.293 C30.316,8.902 29.684,8.902 29.293,9.293 L27,11.586 L27,6.414 L30.707,2.707 C31.098,2.316 31.098,1.684 30.707,1.293 C30.316,0.902 29.684,0.902 29.293,1.293 L27,3.586 L27,1 C27,0.447 26.553,0 26,0 C25.447,0 25,0.447 25,1 L25,3.586 L22.707,1.293 C22.316,0.902 21.684,0.902 21.293,1.293 C20.902,1.684 20.902,2.316 21.293,2.707 L25,6.414 L25,11.586 L22.707,9.293 C22.316,8.902 21.684,8.902 21.293,9.293 C20.902,9.684 20.902,10.316 21.293,10.707 L25,14.414 L25,23.586 L14,12.586 L14,7 C14,6.447 13.553,6 13,6 C12.447,6 12,6.447 12,7 L12,10.586 L8.707,7.293 C8.317,6.902 7.684,6.902 7.293,7.293 C6.902,7.684 6.902,8.316 7.293,8.707 L10.586,12 L7,12 C6.447,12 6,12.447 6,13 C6,13.553 6.447,14 7,14 L12.586,14 L23.586,25 L14.414,25 L10.707,21.293 C10.316,20.902 9.684,20.902 9.293,21.293 C8.902,21.684 8.902,22.316 9.293,22.707 L11.586,25 L6.414,25 L2.707,21.293 C2.317,20.902 1.684,20.902 1.293,21.293 C0.902,21.684 0.902,22.316 1.293,22.707 L3.586,25 L1,25 C0.447,25 0,25.447 0,26 C0,26.553 0.447,27 1,27 L3.586,27 L1.293,29.293 C0.902,29.684 0.902,30.316 1.293,30.707 C1.488,30.902 1.744,31 2,31 C2.256,31 2.512,30.902 2.707,30.707 L6.414,27 L11.586,27 L9.293,29.293 C8.902,29.684 8.902,30.316 9.293,30.707 C9.488,30.902 9.744,31 10,31 C10.256,31 10.512,30.902 10.707,30.707 L14.414,27 L23.586,27 L12.586,38 L7,38 C6.447,38 6,38.447 6,39 C6,39.553 6.447,40 7,40 L10.586,40 L7.293,43.293 C6.902,43.684 6.902,44.316 7.293,44.707 C7.488,44.902 7.744,45 8,45 C8.256,45 8.512,44.902 8.707,44.707 L12,41.414 L12,45 C12,45.553 12.447,46 13,46 C13.553,46 14,45.553 14,45 L14,39.414 L25,28.414 L25,37.586 L21.293,41.293 C20.902,41.684 20.902,42.316 21.293,42.707 C21.488,42.902 21.744,43 22,43 C22.256,43 22.512,42.902 22.707,42.707 L25,40.414 L25,45.586 L21.293,49.293 C20.902,49.684 20.902,50.316 21.293,50.707 C21.488,50.902 21.744,51 22,51 C22.256,51 22.512,50.902 22.707,50.707 L25,48.414 L25,51 C25,51.553 25.447,52 26,52 C26.553,52 27,51.553 27,51 L27,48.414 L29.293,50.707 C29.488,50.902 29.744,51 30,51 C30.256,51 30.512,50.902 30.707,50.707 C31.098,50.316 31.098,49.684 30.707,49.293 L27,45.586 L27,40.414 L29.293,42.707 C29.488,42.902 29.744,43 30,43 C30.256,43 30.512,42.902 30.707,42.707 C31.098,42.316 31.098,41.684 30.707,41.293 L27,37.586 L27,28.414 L38,39.414 L38,45 C38,45.553 38.447,46 39,46 C39.553,46 40,45.553 40,45 L40,41.414 L43.293,44.707 C43.488,44.902 43.744,45 44,45 C44.256,45 44.512,44.902 44.707,44.707 C45.098,44.316 45.098,43.684 44.707,43.293 L41.414,40 L45,40 C45.553,40 46,39.553 46,39 C46,38.447 45.553,38 45,38 L39.414,38 L28.414,27 L37.586,27 L41.293,30.707 C41.488,30.902 41.744,31 42,31 C42.256,31 42.512,30.902 42.707,30.707 C43.098,30.316 43.098,29.684 42.707,29.293 L40.414,27 L45.586,27 L49.293,30.707 C49.488,30.902 49.744,31 50,31 C50.256,31 50.512,30.902 50.707,30.707 C51.098,30.316 51.098,29.684 50.707,29.293 L48.414,27 L51,27 C51.553,27 52,26.553 52,26 C52,25.447 51.553,25 51,25" id="Fill-681" sketch:type="MSShapeGroup"></path>
        </g>
    </g>
</svg>