<?xml version="1.0" encoding="UTF-8" standalone="no"?>
<svg width="58px" height="54px" viewBox="0 0 58 54" version="1.1" xmlns="http://www.w3.org/2000/svg" xmlns:xlink="http://www.w3.org/1999/xlink" xmlns:sketch="http://www.bohemiancoding.com/sketch/ns">
    <!-- Generator: Sketch 3.2.2 (9983) - http://www.bohemiancoding.com/sketch -->
    <title>20 - Solar Eclipse (Flat)</title>
    <desc>Created with Sketch.</desc>
    <defs></defs>
    <g id="Page-1" stroke="none" stroke-width="1" fill="none" fill-rule="evenodd" sketch:type="MSPage">
        <g id="20---Solar-Eclipse-(Flat)" sketch:type="MSLayerGroup">
            <path d="M20,0 C19.448,0 19,0.447 19,1 L19,4 C19,4.553 19.448,5 20,5 C20.552,5 21,4.553 21,4 L21,1 C21,0.447 20.552,0 20,0" id="Fill-320" fill="#F0C419" sketch:type="MSShapeGroup"></path>
            <path d="M20,49 C19.448,49 19,49.447 19,50 L19,53 C19,53.553 19.448,54 20,54 C20.552,54 21,53.553 21,53 L21,50 C21,49.447 20.552,49 20,49" id="Fill-321" fill="#F0C419" sketch:type="MSShapeGroup"></path>
            <path d="M3.029,42.557 L0.908,44.678 C0.518,45.068 0.518,45.701 0.908,46.092 C1.104,46.287 1.359,46.385 1.615,46.385 C1.871,46.385 2.127,46.287 2.322,46.092 L4.443,43.971 C4.834,43.58 4.834,42.947 4.443,42.557 C4.053,42.166 3.42,42.166 3.029,42.557" id="Fill-322" fill="#F0C419" sketch:type="MSShapeGroup"></path>
            <path d="M2.322,7.908 C1.932,7.518 1.299,7.518 0.908,7.908 C0.518,8.299 0.518,8.932 0.908,9.322 L3.029,11.443 C3.225,11.639 3.481,11.736 3.736,11.736 C3.992,11.736 4.248,11.639 4.443,11.443 C4.834,11.053 4.834,10.42 4.443,10.029 L2.322,7.908" id="Fill-323" fill="#F0C419" sketch:type="MSShapeGroup"></path>
            <path d="M26.988,0.92 C26.458,0.776 25.907,1.094 25.764,1.627 L24.987,4.525 C24.844,5.059 25.16,5.607 25.694,5.75 C25.78,5.773 25.868,5.784 25.953,5.784 C26.395,5.784 26.799,5.49 26.919,5.043 L27.695,2.144 C27.838,1.611 27.522,1.063 26.988,0.92" id="Fill-324" fill="#F0C419" sketch:type="MSShapeGroup"></path>
            <path d="M14.306,48.25 C13.774,48.106 13.225,48.423 13.082,48.957 L12.305,51.855 C12.162,52.389 12.478,52.937 13.012,53.08 C13.098,53.103 13.186,53.114 13.271,53.114 C13.712,53.114 14.117,52.82 14.236,52.373 L15.013,49.475 C15.156,48.941 14.84,48.393 14.306,48.25" id="Fill-325" fill="#F0C419" sketch:type="MSShapeGroup"></path>
            <path d="M26.919,48.957 C26.776,48.423 26.228,48.105 25.694,48.25 C25.16,48.393 24.844,48.941 24.987,49.475 L25.764,52.373 C25.883,52.82 26.288,53.114 26.729,53.114 C26.815,53.114 26.902,53.103 26.988,53.08 C27.522,52.937 27.838,52.389 27.695,51.855 L26.919,48.957" id="Fill-326" fill="#F0C419" sketch:type="MSShapeGroup"></path>
            <path d="M14.236,1.627 C14.093,1.093 13.544,0.775 13.012,0.92 C12.478,1.063 12.162,1.611 12.305,2.144 L13.082,5.043 C13.201,5.49 13.606,5.784 14.047,5.784 C14.132,5.784 14.22,5.773 14.306,5.75 C14.84,5.607 15.156,5.059 15.013,4.525 L14.236,1.627" id="Fill-327" fill="#F0C419" sketch:type="MSShapeGroup"></path>
            <path d="M32.366,46.419 C32.089,45.94 31.477,45.776 31,46.053 C30.522,46.329 30.358,46.94 30.634,47.419 L32.134,50.017 C32.319,50.338 32.655,50.517 33.001,50.517 C33.17,50.517 33.343,50.474 33.5,50.383 C33.979,50.106 34.142,49.495 33.866,49.017 L32.366,46.419" id="Fill-328" fill="#F0C419" sketch:type="MSShapeGroup"></path>
            <path d="M7.866,3.983 C7.59,3.504 6.978,3.341 6.5,3.617 C6.021,3.894 5.858,4.505 6.134,4.983 L7.634,7.581 C7.819,7.902 8.155,8.081 8.501,8.081 C8.67,8.081 8.843,8.038 9,7.947 C9.479,7.671 9.642,7.06 9.366,6.581 L7.866,3.983" id="Fill-329" fill="#F0C419" sketch:type="MSShapeGroup"></path>
            <path d="M31,7.947 C31.157,8.038 31.33,8.081 31.499,8.081 C31.845,8.081 32.181,7.902 32.366,7.581 L33.866,4.983 C34.142,4.505 33.979,3.894 33.5,3.617 C33.021,3.341 32.41,3.504 32.134,3.983 L30.634,6.581 C30.358,7.06 30.522,7.671 31,7.947" id="Fill-330" fill="#F0C419" sketch:type="MSShapeGroup"></path>
            <path d="M9,46.053 C8.522,45.776 7.91,45.94 7.634,46.419 L6.134,49.017 C5.858,49.495 6.021,50.106 6.5,50.383 C6.657,50.474 6.83,50.517 6.999,50.517 C7.345,50.517 7.681,50.338 7.866,50.017 L9.366,47.419 C9.642,46.94 9.479,46.329 9,46.053" id="Fill-331" fill="#F0C419" sketch:type="MSShapeGroup"></path>
            <path d="M18,27 C18,19.196 22.48,12.452 29,9.157 C26.292,7.788 23.241,7 20,7 C8.954,7 0,15.954 0,27 C0,38.046 8.954,47 20,47 C23.241,47 26.292,46.212 29,44.843 C22.48,41.547 18,34.804 18,27" id="Fill-332" fill="#F0C419" sketch:type="MSShapeGroup"></path>
            <path d="M16,19 C16.552,19 17,18.552 17,18 C17,17.448 16.552,17 16,17 C15.448,17 15,17.448 15,18 C15,18.552 15.448,19 16,19" id="Fill-333" fill="#F29C1F" sketch:type="MSShapeGroup"></path>
            <path d="M20,19 C20.552,19 21,18.552 21,18 C21,17.448 20.552,17 20,17 C19.448,17 19,17.448 19,18 C19,18.552 19.448,19 20,19" id="Fill-334" fill="#F29C1F" sketch:type="MSShapeGroup"></path>
            <path d="M18,17 C18.552,17 19,16.552 19,16 C19,15.448 18.552,15 18,15 C17.448,15 17,15.448 17,16 C17,16.552 17.448,17 18,17" id="Fill-335" fill="#F29C1F" sketch:type="MSShapeGroup"></path>
            <path d="M20,15 C20.552,15 21,14.552 21,14 C21,13.448 20.552,13 20,13 C19.448,13 19,13.448 19,14 C19,14.552 19.448,15 20,15" id="Fill-336" fill="#F29C1F" sketch:type="MSShapeGroup"></path>
            <path d="M22,13 C22.552,13 23,12.552 23,12 C23,11.448 22.552,11 22,11 C21.448,11 21,11.448 21,12 C21,12.552 21.448,13 22,13" id="Fill-337" fill="#F29C1F" sketch:type="MSShapeGroup"></path>
            <path d="M24,11 C24.552,11 25,10.552 25,10 C25,9.448 24.552,9 24,9 C23.448,9 23,9.448 23,10 C23,10.552 23.448,11 24,11" id="Fill-338" fill="#F29C1F" sketch:type="MSShapeGroup"></path>
            <path d="M20,11 C20.552,11 21,10.552 21,10 C21,9.448 20.552,9 20,9 C19.448,9 19,9.448 19,10 C19,10.552 19.448,11 20,11" id="Fill-339" fill="#F29C1F" sketch:type="MSShapeGroup"></path>
            <path d="M18,13 C18.552,13 19,12.552 19,12 C19,11.448 18.552,11 18,11 C17.448,11 17,11.448 17,12 C17,12.552 17.448,13 18,13" id="Fill-340" fill="#F29C1F" sketch:type="MSShapeGroup"></path>
            <path d="M18,21 C18.552,21 19,20.552 19,20 C19,19.448 18.552,19 18,19 C17.448,19 17,19.448 17,20 C17,20.552 17.448,21 18,21" id="Fill-341" fill="#F29C1F" sketch:type="MSShapeGroup"></path>
            <path d="M14,25 C14.552,25 15,24.552 15,24 C15,23.448 14.552,23 14,23 C13.448,23 13,23.448 13,24 C13,24.552 13.448,25 14,25" id="Fill-342" fill="#F29C1F" sketch:type="MSShapeGroup"></path>
            <path d="M16,23 C16.552,23 17,22.552 17,22 C17,21.448 16.552,21 16,21 C15.448,21 15,21.448 15,22 C15,22.552 15.448,23 16,23" id="Fill-343" fill="#F29C1F" sketch:type="MSShapeGroup"></path>
            <path d="M18,25 C18.552,25 19,24.552 19,24 C19,23.448 18.552,23 18,23 C17.448,23 17,23.448 17,24 C17,24.552 17.448,25 18,25" id="Fill-344" fill="#F29C1F" sketch:type="MSShapeGroup"></path>
            <path d="M16,25 C15.448,25 15,25.448 15,26 C15,26.552 15.448,27 16,27 C16.552,27 17,26.552 17,26 C17,25.448 16.552,25 16,25" id="Fill-345" fill="#F29C1F" sketch:type="MSShapeGroup"></path>
            <path d="M14,27 C13.448,27 13,27.448 13,28 C13,28.552 13.448,29 14,29 C14.552,29 15,28.552 15,28 C15,27.448 14.552,27 14,27" id="Fill-346" fill="#F29C1F" sketch:type="MSShapeGroup"></path>
            <path d="M16,31 C16.552,31 17,30.552 17,30 C17,29.448 16.552,29 16,29 C15.448,29 15,29.448 15,30 C15,30.552 15.448,31 16,31" id="Fill-347" fill="#F29C1F" sketch:type="MSShapeGroup"></path>
            <path d="M16,35 C16.552,35 17,34.552 17,34 C17,33.448 16.552,33 16,33 C15.448,33 15,33.448 15,34 C15,34.552 15.448,35 16,35" id="Fill-348" fill="#F29C1F" sketch:type="MSShapeGroup"></path>
            <path d="M18,31 C17.448,31 17,31.448 17,32 C17,32.552 17.448,33 18,33 C18.552,33 19,32.552 19,32 C19,31.448 18.552,31 18,31" id="Fill-349" fill="#F29C1F" sketch:type="MSShapeGroup"></path>
            <path d="M18,29 C18.552,29 19,28.552 19,28 C19,27.448 18.552,27 18,27 C17.448,27 17,27.448 17,28 C17,28.552 17.448,29 18,29" id="Fill-350" fill="#F29C1F" sketch:type="MSShapeGroup"></path>
            <path d="M18,37 C18.552,37 19,36.552 19,36 C19,35.448 18.552,35 18,35 C17.448,35 17,35.448 17,36 C17,36.552 17.448,37 18,37" id="Fill-351" fill="#F29C1F" sketch:type="MSShapeGroup"></path>
            <path d="M16,37 C15.448,37 15,37.448 15,38 C15,38.552 15.448,39 16,39 C16.552,39 17,38.552 17,38 C17,37.448 16.552,37 16,37" id="Fill-352" fill="#F29C1F" sketch:type="MSShapeGroup"></path>
            <path d="M18,39 C17.448,39 17,39.448 17,40 C17,40.552 17.448,41 18,41 C18.552,41 19,40.552 19,40 C19,39.448 18.552,39 18,39" id="Fill-353" fill="#F29C1F" sketch:type="MSShapeGroup"></path>
            <path d="M20,39 C20.552,39 21,38.552 21,38 C21,37.448 20.552,37 20,37 C19.448,37 19,37.448 19,38 C19,38.552 19.448,39 20,39" id="Fill-354" fill="#F29C1F" sketch:type="MSShapeGroup"></path>
            <path d="M20,41 C19.448,41 19,41.448 19,42 C19,42.552 19.448,43 20,43 C20.552,43 21,42.552 21,42 C21,41.448 20.552,41 20,41" id="Fill-355" fill="#F29C1F" sketch:type="MSShapeGroup"></path>
            <path d="M22,41 C22.552,41 23,40.552 23,40 C23,39.448 22.552,39 22,39 C21.448,39 21,39.448 21,40 C21,40.552 21.448,41 22,41" id="Fill-356" fill="#F29C1F" sketch:type="MSShapeGroup"></path>
            <path d="M22,43 C21.448,43 21,43.448 21,44 C21,44.552 21.448,45 22,45 C22.552,45 23,44.552 23,44 C23,43.448 22.552,43 22,43" id="Fill-357" fill="#F29C1F" sketch:type="MSShapeGroup"></path>
            <path d="M26,43 C25.448,43 25,43.448 25,44 C25,44.552 25.448,45 26,45 C26.552,45 27,44.552 27,44 C27,43.448 26.552,43 26,43" id="Fill-358" fill="#F29C1F" sketch:type="MSShapeGroup"></path>
            <path d="M24,41 C23.448,41 23,41.448 23,42 C23,42.552 23.448,43 24,43 C24.552,43 25,42.552 25,42 C25,41.448 24.552,41 24,41" id="Fill-359" fill="#F29C1F" sketch:type="MSShapeGroup"></path>
            <path d="M58,27 C58,38.046 49.046,47 38,47 C26.954,47 18,38.046 18,27 C18,15.954 26.954,7 38,7 C49.046,7 58,15.954 58,27" id="Fill-821" fill="#BDC3C7" sketch:type="MSShapeGroup"></path>
            <path d="M38,7 C37.523,7 37.055,7.038 36.586,7.071 C31.909,11.614 29,17.966 29,25 C29,34.268 34.047,42.351 41.538,46.669 C50.893,44.996 58,36.836 58,27 C58,15.954 49.046,7 38,7" id="Fill-835" fill="#E6E6E6" sketch:type="MSShapeGroup"></path>
            <path d="M34,30 C34,30.552 33.552,31 33,31 C32.448,31 32,30.552 32,30 C32,29.448 32.448,29 33,29 C33.552,29 34,29.448 34,30" id="Fill-836" fill="#95A5A5" sketch:type="MSShapeGroup"></path>
            <path d="M47,15 C47,15.552 46.552,16 46,16 C45.448,16 45,15.552 45,15 C45,14.448 45.448,14 46,14 C46.552,14 47,14.448 47,15" id="Fill-837" fill="#95A5A5" sketch:type="MSShapeGroup"></path>
            <path d="M48,32 C48,32.552 47.552,33 47,33 C46.448,33 46,32.552 46,32 C46,31.448 46.448,31 47,31 C47.552,31 48,31.448 48,32" id="Fill-838" fill="#95A5A5" sketch:type="MSShapeGroup"></path>
            <path d="M31,18.5 C31,19.881 29.881,21 28.5,21 C27.119,21 26,19.881 26,18.5 C26,17.119 27.119,16 28.5,16 C29.881,16 31,17.119 31,18.5" id="Fill-839" fill="#95A5A5" sketch:type="MSShapeGroup"></path>
            <path d="M52,25.5 C52,28.537 54.463,31 57.5,31 C57.533,31 57.566,30.996 57.599,30.995 C57.861,29.704 58,28.368 58,27 C58,24.556 57.54,22.224 56.737,20.059 C54.062,20.431 52,22.722 52,25.5" id="Fill-840" fill="#95A5A5" sketch:type="MSShapeGroup"></path>
            <path d="M42.5,41 C40.015,41 38,43.015 38,45.5 C38,46.024 38.107,46.519 38.271,46.986 C41.386,46.945 44.321,46.184 46.937,44.873 C46.629,42.687 44.771,41 42.5,41" id="Fill-841" fill="#95A5A5" sketch:type="MSShapeGroup"></path>
        </g>
    </g>
</svg>