<?xml version="1.0" encoding="UTF-8" standalone="no"?>
<svg width="55px" height="58px" viewBox="0 0 55 58" version="1.1" xmlns="http://www.w3.org/2000/svg" xmlns:xlink="http://www.w3.org/1999/xlink" xmlns:sketch="http://www.bohemiancoding.com/sketch/ns">
    <!-- Generator: Sketch 3.2.2 (9983) - http://www.bohemiancoding.com/sketch -->
    <title>51 - Storm (Flat)</title>
    <desc>Created with Sketch.</desc>
    <defs></defs>
    <g id="Page-1" stroke="none" stroke-width="1" fill="none" fill-rule="evenodd" sketch:type="MSPage">
        <g id="51---Storm-(Flat)" sketch:type="MSLayerGroup">
            <path d="M17.373,37.508 C16.891,37.24 16.281,37.415 16.014,37.897 L13.957,41.608 C13.689,42.092 13.864,42.7 14.348,42.968 C14.501,43.053 14.667,43.093 14.831,43.093 C15.183,43.093 15.524,42.907 15.707,42.578 L17.764,38.867 C18.031,38.384 17.856,37.775 17.373,37.508" id="Fill-186" fill="#D0E8F9" sketch:type="MSShapeGroup"></path>
            <path d="M20.814,45.884 C20.333,45.616 19.723,45.79 19.455,46.273 L17.398,49.984 C17.131,50.467 17.306,51.076 17.789,51.343 C17.942,51.429 18.108,51.469 18.272,51.469 C18.624,51.469 18.966,51.283 19.148,50.954 L21.205,47.243 C21.473,46.76 21.298,46.151 20.814,45.884" id="Fill-187" fill="#D0E8F9" sketch:type="MSShapeGroup"></path>
            <path d="M24.929,38.462 C24.447,38.194 23.837,38.368 23.569,38.852 L21.513,42.563 C21.245,43.045 21.42,43.654 21.903,43.922 C22.057,44.007 22.223,44.047 22.387,44.047 C22.738,44.047 23.08,43.862 23.263,43.532 L25.319,39.822 C25.587,39.339 25.412,38.73 24.929,38.462" id="Fill-188" fill="#D0E8F9" sketch:type="MSShapeGroup"></path>
            <path d="M6.792,42.013 C6.945,42.099 7.111,42.139 7.275,42.139 C7.627,42.139 7.969,41.953 8.151,41.624 L10.208,37.913 C10.476,37.43 10.301,36.821 9.817,36.554 C9.336,36.286 8.726,36.46 8.458,36.943 L6.401,40.654 C6.134,41.137 6.309,41.746 6.792,42.013" id="Fill-189" fill="#D0E8F9" sketch:type="MSShapeGroup"></path>
            <path d="M11.459,33.585 C11.612,33.671 11.778,33.711 11.942,33.711 C12.294,33.711 12.636,33.525 12.818,33.196 L14.875,29.485 C15.143,29.001 14.968,28.393 14.484,28.125 C14.003,27.857 13.393,28.033 13.125,28.515 L11.068,32.226 C10.801,32.709 10.976,33.318 11.459,33.585" id="Fill-190" fill="#D0E8F9" sketch:type="MSShapeGroup"></path>
            <path d="M5.703,43.975 C5.222,43.707 4.611,43.881 4.344,44.365 L2.287,48.075 C2.02,48.558 2.194,49.167 2.678,49.435 C2.831,49.52 2.997,49.56 3.161,49.56 C3.513,49.56 3.854,49.375 4.037,49.045 L6.094,45.334 C6.361,44.852 6.187,44.243 5.703,43.975" id="Fill-191" fill="#D0E8F9" sketch:type="MSShapeGroup"></path>
            <path d="M13.259,44.929 C12.776,44.661 12.168,44.836 11.899,45.319 L9.843,49.03 C9.575,49.513 9.75,50.122 10.233,50.389 C10.387,50.475 10.553,50.515 10.717,50.515 C11.068,50.515 11.41,50.329 11.593,50 L13.649,46.289 C13.917,45.805 13.742,45.197 13.259,44.929" id="Fill-192" fill="#D0E8F9" sketch:type="MSShapeGroup"></path>
            <path d="M9.146,52.351 C8.664,52.083 8.054,52.257 7.786,52.74 L5.729,56.451 C5.462,56.935 5.637,57.543 6.12,57.81 C6.273,57.896 6.439,57.936 6.604,57.936 C6.955,57.936 7.297,57.75 7.479,57.421 L9.536,53.71 C9.804,53.227 9.629,52.618 9.146,52.351" id="Fill-193" fill="#D0E8F9" sketch:type="MSShapeGroup"></path>
            <path d="M32.484,39.417 C32.002,39.147 31.394,39.324 31.125,39.806 L29.068,43.517 C28.801,44 28.976,44.609 29.459,44.876 C29.612,44.962 29.778,45.002 29.942,45.002 C30.294,45.002 30.636,44.816 30.818,44.487 L32.875,40.776 C33.143,40.292 32.968,39.684 32.484,39.417" id="Fill-194" fill="#D0E8F9" sketch:type="MSShapeGroup"></path>
            <path d="M3.633,33.125 C3.151,32.857 2.541,33.032 2.273,33.515 L0.217,37.226 C-0.051,37.709 0.124,38.318 0.607,38.585 C0.761,38.671 0.927,38.711 1.091,38.711 C1.442,38.711 1.784,38.525 1.967,38.196 L4.023,34.485 C4.291,34.001 4.116,33.393 3.633,33.125" id="Fill-195" fill="#D0E8F9" sketch:type="MSShapeGroup"></path>
            <path d="M36,18 C40.963,18 45,13.962 45,9 C45,4.038 40.963,0 36,0 C35.447,0 35,0.448 35,1 C35,1.552 35.447,2 36,2 C39.859,2 43,5.14 43,9 C43,12.86 39.859,16 36,16 L14,16 C9.037,16 5,20.038 5,25 C5,25.552 5.447,26 6,26 C6.553,26 7,25.552 7,25 C7,21.14 10.141,18 14,18 L36,18" id="Fill-228" fill="#E4ECF4" sketch:type="MSShapeGroup"></path>
            <path d="M43,28 L23,28 C22.447,28 22,28.448 22,29 C22,29.552 22.447,30 23,30 L43,30 C46.859,30 50,33.14 50,37 C50,40.86 46.859,44 43,44 C42.447,44 42,44.448 42,45 C42,45.552 42.447,46 43,46 C47.963,46 52,41.962 52,37 C52,32.038 47.963,28 43,28" id="Fill-229" fill="#E4ECF4" sketch:type="MSShapeGroup"></path>
            <path d="M32,10 C32.553,10 33,9.552 33,9 C33,7.346 34.346,6 36,6 C37.654,6 39,7.346 39,9 C39,10.654 37.654,12 36,12 C35.447,12 35,12.448 35,13 C35,13.552 35.447,14 36,14 C38.757,14 41,11.757 41,9 C41,6.243 38.757,4 36,4 C33.243,4 31,6.243 31,9 C31,9.552 31.447,10 32,10" id="Fill-230" fill="#E4ECF4" sketch:type="MSShapeGroup"></path>
            <path d="M48,37 C48,34.243 45.757,32 43,32 C42.447,32 42,32.448 42,33 C42,33.552 42.447,34 43,34 C44.654,34 46,35.346 46,37 C46,38.654 44.654,40 43,40 C41.346,40 40,38.654 40,37 C40,36.448 39.553,36 39,36 C38.447,36 38,36.448 38,37 C38,39.757 40.243,42 43,42 C45.757,42 48,39.757 48,37" id="Fill-231" fill="#E4ECF4" sketch:type="MSShapeGroup"></path>
            <path d="M37,32 L31,32 C30.447,32 30,32.448 30,33 C30,33.552 30.447,34 31,34 L37,34 C37.553,34 38,33.552 38,33 C38,32.448 37.553,32 37,32" id="Fill-232" fill="#E4ECF4" sketch:type="MSShapeGroup"></path>
            <path d="M26,14 L32,14 C32.553,14 33,13.552 33,13 C33,12.448 32.553,12 32,12 L26,12 C25.447,12 25,12.448 25,13 C25,13.552 25.447,14 26,14" id="Fill-233" fill="#E4ECF4" sketch:type="MSShapeGroup"></path>
            <path d="M46,21 C46,20.448 45.553,20 45,20 L14,20 C13.447,20 13,20.448 13,21 C13,21.552 13.447,22 14,22 L45,22 C45.553,22 46,21.552 46,21" id="Fill-234" fill="#E4ECF4" sketch:type="MSShapeGroup"></path>
            <path d="M54,24 L18,24 C17.447,24 17,24.448 17,25 C17,25.552 17.447,26 18,26 L54,26 C54.553,26 55,25.552 55,25 C55,24.448 54.553,24 54,24" id="Fill-235" fill="#E4ECF4" sketch:type="MSShapeGroup"></path>
        </g>
    </g>
</svg>