<?xml version="1.0" encoding="UTF-8" standalone="no"?>
<svg width="60px" height="60px" viewBox="0 0 60 60" version="1.1" xmlns="http://www.w3.org/2000/svg" xmlns:xlink="http://www.w3.org/1999/xlink" xmlns:sketch="http://www.bohemiancoding.com/sketch/ns">
    <!-- Generator: Sketch 3.2.2 (9983) - http://www.bohemiancoding.com/sketch -->
    <title>21 - Strong WInd Forecast (Flat)</title>
    <desc>Created with Sketch.</desc>
    <defs></defs>
    <g id="Page-1" stroke="none" stroke-width="1" fill="none" fill-rule="evenodd" sketch:type="MSPage">
        <g id="21---Strong-WInd-Forecast-(Flat)" sketch:type="MSLayerGroup" transform="translate(1.000000, 1.000000)">
            <path d="M22,19 C22,25.627 20.209,31 18,31 C15.791,31 14,25.627 14,19 C14,12.373 15.791,7 18,7 C20.209,7 22,12.373 22,19" id="Fill-311" fill="#BDD7E5" sketch:type="MSShapeGroup"></path>
            <path d="M18,32 C14.718,32 13,25.46 13,19 C13,12.54 14.718,6 18,6 C21.282,6 23,12.54 23,19 C23,25.46 21.282,32 18,32 L18,32 Z M18,8 C16.981,8 15,11.883 15,19 C15,26.117 16.981,30 18,30 C19.019,30 21,26.117 21,19 C21,11.883 19.019,8 18,8 L18,8 Z" id="Fill-312" fill="#ABCADD" sketch:type="MSShapeGroup"></path>
            <path d="M55,12 L18,7 C20.209,7 22,12.373 22,19 C22,25.627 20.209,31 18,31 L55,26 C56.657,26 58,23.971 58,19 C58,14.029 56.657,12 55,12" id="Fill-313" fill="#E4EFF8" sketch:type="MSShapeGroup"></path>
            <path d="M18,32 L17.866,30.009 L18.151,29.971 C19.333,29.553 21,25.478 21,19 C21,12.521 19.333,8.447 18.151,8.029 L17.866,7.991 L18,6 C18.186,6 18.372,6.023 18.556,6.066 L55.073,11.001 C56.574,11.035 59,12.152 59,19 C59,25.848 56.574,26.965 55.073,26.999 L18.556,31.934 C18.372,31.977 18.186,32 18,32 L18,32 Z M21.034,8.419 C22.372,10.981 23,15.175 23,19 C23,22.825 22.372,27.019 21.034,29.581 L55,25 C55.923,25 57,23.429 57,19 C57,14.571 55.923,13 55,13 L54.866,12.991 L21.034,8.419 L21.034,8.419 Z" id="Fill-314" fill="#ABCADD" sketch:type="MSShapeGroup"></path>
            <path d="M17.293,31.707 L3.293,17.707 C3.085,17.499 2.979,17.211 3.003,16.918 C3.027,16.625 3.18,16.357 3.419,16.186 L17.419,6.186 L18.581,7.813 L5.542,17.128 L18.707,30.293 L17.293,31.707" id="Fill-315" fill="#ABCADD" sketch:type="MSShapeGroup"></path>
            <path d="M50.345,12.38 L48.221,12.093 C48.718,14.083 49,16.492 49,19 C49,21.511 48.717,23.924 48.219,25.915 L50.343,25.628 C50.764,23.642 51,21.353 51,19 C51,16.65 50.765,14.364 50.345,12.38" id="Fill-864" fill="#E64C3C" sketch:type="MSShapeGroup"></path>
            <path d="M44.157,11.544 L42.003,11.253 C42.637,13.356 43,16.131 43,19 C43,21.871 42.636,24.649 42.001,26.753 L44.156,26.463 C44.701,24.309 45,21.726 45,19 C45,16.277 44.702,13.696 44.157,11.544" id="Fill-865" fill="#E64C3C" sketch:type="MSShapeGroup"></path>
            <path d="M37.923,10.701 L35.714,10.403 C36.521,12.554 37,15.704 37,19 C37,22.299 36.52,25.45 35.712,27.601 L37.921,27.303 C38.611,25.019 39,22.1 39,19 C39,15.902 38.612,12.985 37.923,10.701" id="Fill-866" fill="#E64C3C" sketch:type="MSShapeGroup"></path>
            <path d="M4,48 L4,8" id="Stroke-867" stroke="#7F8C8D" stroke-width="2" sketch:type="MSShapeGroup"></path>
            <path d="M8,4 C8,6.209 6.209,8 4,8 C1.791,8 0,6.209 0,4 C0,1.791 1.791,0 4,0 C6.209,0 8,1.791 8,4 L8,4 Z" id="Fill-868" fill="#BDC3C7" sketch:type="MSShapeGroup"></path>
            <path d="M8,4 C8,6.209 6.209,8 4,8 C1.791,8 0,6.209 0,4 C0,1.791 1.791,0 4,0 C6.209,0 8,1.791 8,4 L8,4 Z" id="Stroke-869" stroke="#95A5A5" stroke-width="2" sketch:type="MSShapeGroup"></path>
            <path d="M2,48 L6,48 L6,54 L2,54 L2,48 Z" id="Fill-870" fill="#BDC3C7" sketch:type="MSShapeGroup"></path>
            <path d="M2,48 L6,48 L6,54 L2,54 L2,48 Z" id="Stroke-871" stroke="#7F8C8D" stroke-width="2" sketch:type="MSShapeGroup"></path>
            <path d="M0,54 L8,54 L8,58 L0,58 L0,54 Z" id="Fill-872" fill="#BDC3C7" sketch:type="MSShapeGroup"></path>
            <path d="M0,54 L8,54 L8,58 L0,58 L0,54 Z" id="Stroke-873" stroke="#7F8C8D" stroke-width="2" sketch:type="MSShapeGroup"></path>
        </g>
    </g>
</svg>