<?xml version="1.0" encoding="UTF-8" standalone="no"?>
<svg width="61px" height="59px" viewBox="0 0 61 59" version="1.1" xmlns="http://www.w3.org/2000/svg" xmlns:xlink="http://www.w3.org/1999/xlink" xmlns:sketch="http://www.bohemiancoding.com/sketch/ns">
    <!-- Generator: Sketch 3.2.2 (9983) - http://www.bohemiancoding.com/sketch -->
    <title>44 - Summer Rain (Flat)</title>
    <desc>Created with Sketch.</desc>
    <defs></defs>
    <g id="Page-1" stroke="none" stroke-width="1" fill="none" fill-rule="evenodd" sketch:type="MSPage">
        <g id="44---Summer-Rain-(Flat)" sketch:type="MSLayerGroup">
            <path d="M6.966,21.438 C6.966,20.885 6.519,20.437 5.966,20.437 L1.827,20.437 C1.274,20.437 0.827,20.885 0.827,21.438 C0.827,21.99 1.274,22.438 1.827,22.438 L5.966,22.438 C6.519,22.438 6.966,21.99 6.966,21.438" id="Fill-165" fill="#F0C419" sketch:type="MSShapeGroup"></path>
            <path d="M21.827,0.438 C21.274,0.438 20.827,0.885 20.827,1.438 L20.827,5.575 C20.827,6.127 21.274,6.575 21.827,6.575 C22.38,6.575 22.827,6.127 22.827,5.575 L22.827,1.438 C22.827,0.885 22.38,0.438 21.827,0.438" id="Fill-166" fill="#F0C419" sketch:type="MSShapeGroup"></path>
            <path d="M7.362,5.558 C6.972,5.167 6.339,5.167 5.948,5.558 C5.558,5.949 5.558,6.581 5.948,6.972 L9.904,10.928 C10.1,11.123 10.356,11.221 10.611,11.221 C10.867,11.221 11.123,11.123 11.318,10.928 C11.709,10.538 11.709,9.905 11.318,9.514 L7.362,5.558" id="Fill-167" fill="#F0C419" sketch:type="MSShapeGroup"></path>
            <path d="M37.707,5.558 C37.316,5.167 36.684,5.167 36.293,5.558 L32.337,9.514 C31.946,9.905 31.946,10.538 32.337,10.928 C32.532,11.123 32.788,11.221 33.044,11.221 C33.3,11.221 33.556,11.123 33.751,10.928 L37.707,6.972 C38.098,6.581 38.098,5.949 37.707,5.558" id="Fill-168" fill="#F0C419" sketch:type="MSShapeGroup"></path>
            <path d="M15.742,4.541 C15.525,4.032 14.935,3.796 14.431,4.011 C13.922,4.227 13.685,4.814 13.9,5.322 L14.709,7.227 C14.871,7.608 15.241,7.837 15.63,7.837 C15.761,7.837 15.894,7.811 16.021,7.757 C16.529,7.541 16.767,6.954 16.551,6.446 L15.742,4.541" id="Fill-169" fill="#F0C419" sketch:type="MSShapeGroup"></path>
            <path d="M28.92,3.885 C28.407,3.68 27.825,3.925 27.618,4.438 L26.843,6.356 C26.636,6.868 26.883,7.451 27.395,7.658 C27.518,7.707 27.645,7.731 27.77,7.731 C28.165,7.731 28.539,7.495 28.696,7.105 L29.472,5.187 C29.679,4.675 29.432,4.092 28.92,3.885" id="Fill-170" fill="#F0C419" sketch:type="MSShapeGroup"></path>
            <path d="M6.836,26.715 L4.932,27.523 C4.423,27.739 4.186,28.326 4.401,28.834 C4.563,29.215 4.934,29.444 5.322,29.444 C5.453,29.444 5.586,29.418 5.713,29.364 L7.617,28.556 C8.126,28.34 8.363,27.753 8.148,27.245 C7.931,26.735 7.339,26.5 6.836,26.715" id="Fill-171" fill="#F0C419" sketch:type="MSShapeGroup"></path>
            <path d="M4.827,15.647 L6.745,16.423 C6.868,16.472 6.995,16.496 7.12,16.496 C7.516,16.496 7.89,16.26 8.047,15.871 C8.254,15.358 8.007,14.775 7.495,14.568 L5.577,13.793 C5.065,13.588 4.482,13.833 4.275,14.345 C4.068,14.857 4.315,15.44 4.827,15.647" id="Fill-172" fill="#F0C419" sketch:type="MSShapeGroup"></path>
            <path d="M13.633,32.507 C14.353,32.585 15.052,32.73 15.721,32.945 C15.274,30.918 15.724,28.715 17.146,26.988 C19.019,24.714 22.024,23.925 24.669,24.764 L24.681,24.768 C25.497,22.713 27.267,21.075 29.583,20.53 C30.407,20.337 31.229,20.305 32.023,20.401 C32.017,20.246 32,20.094 32,19.937 C32,17.874 32.604,15.956 33.632,14.333 C31.217,10.331 26.842,7.644 21.828,7.644 C14.21,7.644 8.035,13.82 8.035,21.437 C8.035,25.981 10.242,29.997 13.633,32.507" id="Fill-173" fill="#EDE21B" sketch:type="MSShapeGroup"></path>
            <path d="M60.979,27 L60.898,27 C60.933,27.304 60.958,27.611 60.958,27.925 C60.958,28.477 60.51,28.925 59.958,28.925 C59.405,28.925 58.958,28.477 58.958,27.925 C58.958,24.616 56.266,21.925 52.958,21.925 C49.649,21.925 46.958,24.616 46.958,27.925 C46.958,28.477 46.51,28.925 45.958,28.925 C45.405,28.925 44.958,28.477 44.958,27.925 C44.958,23.86 48.006,20.502 51.936,19.998 C51.71,14.958 47.552,10.925 42.458,10.925 C37.346,10.925 33.177,14.985 32.977,20.048 C33.806,20.244 34.609,20.568 35.355,21.029 C37.171,22.154 38.441,23.919 38.931,25.999 C39.057,26.537 38.724,27.075 38.187,27.202 C37.649,27.323 37.111,26.995 36.984,26.458 C36.226,23.236 32.985,21.232 29.77,21.991 C26.549,22.749 24.545,25.985 25.303,29.206 C25.429,29.743 25.096,30.281 24.558,30.408 C24.482,30.426 24.405,30.435 24.329,30.435 C23.876,30.435 23.464,30.124 23.356,29.663 C23.062,28.412 23.088,27.161 23.368,25.989 C21.311,25.687 19.232,26.464 17.876,28.11 C16.617,29.639 16.25,31.609 16.7,33.395 C16.702,33.407 16.707,33.417 16.708,33.429 C17.015,34.615 17.678,35.719 18.694,36.556 C19.12,36.907 19.181,37.537 18.831,37.964 C18.632,38.204 18.346,38.328 18.057,38.328 C17.833,38.328 17.609,38.254 17.422,38.101 C16.206,37.099 15.334,35.79 14.876,34.319 C10.833,33.266 6.582,34.967 4.386,38.581 C3.069,40.749 2.674,43.301 3.276,45.766 C3.877,48.231 5.403,50.314 7.572,51.633 C8.043,51.92 8.194,52.534 7.907,53.007 C7.718,53.316 7.389,53.487 7.051,53.487 C6.919,53.487 6.787,53.451 6.659,53.396 C8.239,54.333 10.058,54.906 12.003,54.989 L20.213,54.992 C25.52,54.907 30.066,51.632 32.003,47 C33.966,51.693 38.606,55 44.003,55 C53.377,55 61.003,47.374 61.003,38 L61.003,28 L60.979,27" id="Fill-991" fill="#D0E8F9" sketch:type="MSShapeGroup"></path>
            <path d="M53.936,20.066 C53.705,13.927 48.652,9 42.458,9 C36.316,9 31.298,13.844 30.987,19.91 C30.429,19.922 29.868,19.988 29.311,20.119 C26.975,20.669 25.126,22.201 24.082,24.172 C21.2,23.586 18.234,24.604 16.332,26.914 C15.08,28.434 14.452,30.322 14.521,32.273 C9.892,31.439 5.182,33.497 2.677,37.617 C1.082,40.242 0.604,43.331 1.333,46.315 C2.061,49.3 3.908,51.821 6.533,53.417 C6.695,53.516 6.875,53.563 7.051,53.563 C7.389,53.563 7.718,53.392 7.907,53.082 C8.194,52.609 8.043,51.995 7.572,51.708 C5.403,50.39 3.877,48.307 3.276,45.841 C2.674,43.376 3.069,40.824 4.386,38.656 C6.582,35.042 10.833,33.341 14.876,34.395 C15.334,35.865 16.206,37.174 17.422,38.176 C17.609,38.329 17.833,38.403 18.057,38.403 C18.346,38.403 18.632,38.279 18.831,38.039 C19.181,37.612 19.12,36.982 18.694,36.631 C17.678,35.795 17.015,34.69 16.708,33.504 C16.707,33.493 16.702,33.482 16.7,33.471 C16.25,31.684 16.617,29.714 17.876,28.185 C19.232,26.539 21.311,25.762 23.368,26.064 C23.088,27.236 23.062,28.487 23.356,29.738 C23.464,30.199 23.876,30.51 24.329,30.51 C24.405,30.51 24.482,30.501 24.558,30.483 C25.096,30.356 25.429,29.818 25.303,29.281 C24.545,26.06 26.549,22.824 29.77,22.066 C32.985,21.308 36.226,23.312 36.984,26.533 C37.111,27.07 37.649,27.398 38.187,27.277 C38.724,27.15 39.057,26.612 38.931,26.074 C38.441,23.994 37.171,22.229 35.355,21.104 C34.609,20.643 33.806,20.319 32.977,20.123 C33.177,15.06 37.346,11 42.458,11 C47.552,11 51.71,15.033 51.936,20.073 C48.006,20.577 44.958,23.936 44.958,28 C44.958,28.553 45.405,29 45.958,29 C46.51,29 46.958,28.553 46.958,28 C46.958,24.691 49.649,22 52.958,22 C56.266,22 59.003,24.691 59.003,28 L59.003,31 C59.003,31.552 59.451,32 60.003,32 C60.556,32 61.003,31.552 61.003,31 L61.003,28 C61.003,23.921 57.886,20.551 53.936,20.066" id="Fill-992" fill="#ABCADD" sketch:type="MSShapeGroup"></path>
            <path d="M33.293,48.293 L30.293,51.293 C29.902,51.684 29.902,52.316 30.293,52.707 C30.488,52.902 30.744,53 31,53 C31.256,53 31.512,52.902 31.707,52.707 L34.707,49.707 C35.098,49.316 35.098,48.684 34.707,48.293 C34.316,47.902 33.684,47.902 33.293,48.293" id="Fill-1003" fill="#ABC5D3" sketch:type="MSShapeGroup"></path>
            <path d="M27.293,54.293 L24.293,57.293 C23.902,57.684 23.902,58.316 24.293,58.707 C24.488,58.902 24.744,59 25,59 C25.256,59 25.512,58.902 25.707,58.707 L28.707,55.707 C29.098,55.316 29.098,54.684 28.707,54.293 C28.316,53.902 27.684,53.902 27.293,54.293" id="Fill-1004" fill="#ABC5D3" sketch:type="MSShapeGroup"></path>
            <path d="M48.707,42.293 C48.316,41.902 47.684,41.902 47.293,42.293 L44.293,45.293 C43.902,45.684 43.902,46.316 44.293,46.707 C44.488,46.902 44.744,47 45,47 C45.256,47 45.512,46.902 45.707,46.707 L48.707,43.707 C49.098,43.316 49.098,42.684 48.707,42.293" id="Fill-1005" fill="#FFFFFF" sketch:type="MSShapeGroup"></path>
            <path d="M41.293,48.293 L38.293,51.293 C37.902,51.684 37.902,52.316 38.293,52.707 C38.488,52.902 38.744,53 39,53 C39.256,53 39.512,52.902 39.707,52.707 L42.707,49.707 C43.098,49.316 43.098,48.684 42.707,48.293 C42.316,47.902 41.684,47.902 41.293,48.293" id="Fill-1006" fill="#FFFFFF" sketch:type="MSShapeGroup"></path>
            <path d="M32.707,42.293 C32.316,41.902 31.684,41.902 31.293,42.293 L28.293,45.293 C27.902,45.684 27.902,46.316 28.293,46.707 C28.488,46.902 28.744,47 29,47 C29.256,47 29.512,46.902 29.707,46.707 L32.707,43.707 C33.098,43.316 33.098,42.684 32.707,42.293" id="Fill-1007" fill="#FFFFFF" sketch:type="MSShapeGroup"></path>
            <path d="M40.707,42.293 C40.316,41.902 39.684,41.902 39.293,42.293 L36.293,45.293 C35.902,45.684 35.902,46.316 36.293,46.707 C36.488,46.902 36.744,47 37,47 C37.256,47 37.512,46.902 37.707,46.707 L40.707,43.707 C41.098,43.316 41.098,42.684 40.707,42.293" id="Fill-1008" fill="#FFFFFF" sketch:type="MSShapeGroup"></path>
            <path d="M26.707,48.293 C26.316,47.902 25.684,47.902 25.293,48.293 L22.293,51.293 C21.902,51.684 21.902,52.316 22.293,52.707 C22.488,52.902 22.744,53 23,53 C23.256,53 23.512,52.902 23.707,52.707 L26.707,49.707 C27.098,49.316 27.098,48.684 26.707,48.293" id="Fill-1009" fill="#ABC5D3" sketch:type="MSShapeGroup"></path>
        </g>
    </g>
</svg>