<?xml version="1.0" encoding="UTF-8" standalone="no"?>
<svg width="60px" height="56px" viewBox="0 0 60 56" version="1.1" xmlns="http://www.w3.org/2000/svg" xmlns:xlink="http://www.w3.org/1999/xlink" xmlns:sketch="http://www.bohemiancoding.com/sketch/ns">
    <!-- Generator: Sketch 3.2.2 (9983) - http://www.bohemiancoding.com/sketch -->
    <title>57 - Sun with Precipitations (Flat)</title>
    <desc>Created with Sketch.</desc>
    <defs></defs>
    <g id="Page-1" stroke="none" stroke-width="1" fill="none" fill-rule="evenodd" sketch:type="MSPage">
        <g id="57---Sun-with-Precipitations-(Flat)" sketch:type="MSLayerGroup">
            <path d="M7,29 L1,29 C0.448,29 0,29.448 0,30 C0,30.552 0.448,31 1,31 L7,31 C7.552,31 8,30.552 8,30 C8,29.448 7.552,29 7,29" id="Fill-121" fill="#F0C419" sketch:type="MSShapeGroup"></path>
            <path d="M59,29 L53,29 C52.448,29 52,29.448 52,30 C52,30.552 52.448,31 53,31 L59,31 C59.552,31 60,30.552 60,30 C60,29.448 59.552,29 59,29" id="Fill-122" fill="#F0C419" sketch:type="MSShapeGroup"></path>
            <path d="M30,0 C29.448,0 29,0.448 29,1 L29,7 C29,7.552 29.448,8 30,8 C30.552,8 31,7.552 31,7 L31,1 C31,0.448 30.552,0 30,0" id="Fill-123" fill="#F0C419" sketch:type="MSShapeGroup"></path>
            <path d="M52.707,7.293 C52.316,6.902 51.684,6.902 51.293,7.293 L45.557,13.029 C45.166,13.42 45.166,14.053 45.557,14.443 C45.752,14.639 46.008,14.736 46.264,14.736 C46.52,14.736 46.775,14.639 46.971,14.443 L52.707,8.707 C53.098,8.316 53.098,7.684 52.707,7.293" id="Fill-124" fill="#F0C419" sketch:type="MSShapeGroup"></path>
            <path d="M8.707,7.293 C8.316,6.902 7.684,6.902 7.293,7.293 C6.902,7.684 6.902,8.316 7.293,8.707 L13.029,14.443 C13.225,14.639 13.481,14.736 13.736,14.736 C13.992,14.736 14.248,14.639 14.443,14.443 C14.834,14.053 14.834,13.42 14.443,13.029 L8.707,7.293" id="Fill-125" fill="#F0C419" sketch:type="MSShapeGroup"></path>
            <path d="M40.55,5.146 C40.042,4.93 39.455,5.167 39.239,5.676 L38.066,8.438 C37.851,8.946 38.088,9.533 38.596,9.749 C38.724,9.803 38.856,9.829 38.986,9.829 C39.376,9.829 39.746,9.6 39.907,9.219 L41.08,6.457 C41.295,5.949 41.058,5.362 40.55,5.146" id="Fill-126" fill="#F0C419" sketch:type="MSShapeGroup"></path>
            <path d="M21.188,5.519 C20.981,5.007 20.399,4.762 19.886,4.966 C19.374,5.173 19.126,5.756 19.333,6.268 L20.457,9.049 C20.614,9.439 20.989,9.675 21.385,9.675 C21.509,9.675 21.636,9.651 21.759,9.602 C22.271,9.395 22.519,8.812 22.311,8.3 L21.188,5.519" id="Fill-127" fill="#F0C419" sketch:type="MSShapeGroup"></path>
            <path d="M9.219,20.093 L6.458,18.92 C5.949,18.704 5.363,18.941 5.147,19.45 C4.931,19.958 5.168,20.545 5.676,20.761 L8.438,21.934 C8.565,21.988 8.698,22.014 8.828,22.014 C9.217,22.014 9.587,21.785 9.749,21.404 C9.965,20.896 9.728,20.309 9.219,20.093" id="Fill-128" fill="#F0C419" sketch:type="MSShapeGroup"></path>
            <path d="M55.034,19.886 C54.828,19.374 54.247,19.127 53.732,19.333 L50.951,20.457 C50.438,20.664 50.191,21.247 50.398,21.759 C50.555,22.148 50.93,22.385 51.326,22.385 C51.45,22.385 51.577,22.361 51.7,22.311 L54.481,21.187 C54.994,20.98 55.241,20.397 55.034,19.886" id="Fill-129" fill="#F0C419" sketch:type="MSShapeGroup"></path>
            <path d="M50,30 C50,41.046 41.046,50 30,50 C18.954,50 10,41.046 10,30 C10,18.954 18.954,10 30,10 C41.046,10 50,18.954 50,30" id="Fill-926" fill="#F0C419" sketch:type="MSShapeGroup"></path>
            <path d="M45,30 C45,38.284 38.284,45 30,45 C21.716,45 15,38.284 15,30 C15,21.716 21.716,15 30,15 C38.284,15 45,21.716 45,30" id="Fill-927" fill="#EDE21B" sketch:type="MSShapeGroup"></path>
            <path d="M29,42 C29.256,42 29.512,41.902 29.707,41.707 L32.707,38.707 C33.098,38.316 33.098,37.684 32.707,37.293 C32.316,36.902 31.684,36.902 31.293,37.293 L28.293,40.293 C27.902,40.684 27.902,41.316 28.293,41.707 C28.488,41.902 28.744,42 29,42" id="Fill-930" fill="#FFFFFF" sketch:type="MSShapeGroup"></path>
            <path d="M35,36 C35.256,36 35.512,35.902 35.707,35.707 L38.707,32.707 C39.098,32.316 39.098,31.684 38.707,31.293 C38.316,30.902 37.684,30.902 37.293,31.293 L34.293,34.293 C33.902,34.684 33.902,35.316 34.293,35.707 C34.488,35.902 34.744,36 35,36" id="Fill-931" fill="#FFFFFF" sketch:type="MSShapeGroup"></path>
            <path d="M25.293,51.293 L22.293,54.293 C21.902,54.684 21.902,55.316 22.293,55.707 C22.488,55.902 22.744,56 23,56 C23.256,56 23.512,55.902 23.707,55.707 L26.707,52.707 C27.098,52.316 27.098,51.684 26.707,51.293 C26.316,50.902 25.684,50.902 25.293,51.293" id="Fill-932" fill="#D0E8F9" sketch:type="MSShapeGroup"></path>
            <path d="M32.707,45.293 C32.316,44.902 31.684,44.902 31.293,45.293 L28.293,48.293 C27.902,48.684 27.902,49.316 28.293,49.707 C28.488,49.902 28.744,50 29,50 C29.256,50 29.512,49.902 29.707,49.707 L32.707,46.707 C33.098,46.316 33.098,45.684 32.707,45.293" id="Fill-933" fill="#FFFFFF" sketch:type="MSShapeGroup"></path>
            <path d="M35,44 C35.256,44 35.512,43.902 35.707,43.707 L38.707,40.707 C39.098,40.316 39.098,39.684 38.707,39.293 C38.316,38.902 37.684,38.902 37.293,39.293 L34.293,42.293 C33.902,42.684 33.902,43.316 34.293,43.707 C34.488,43.902 34.744,44 35,44" id="Fill-934" fill="#FFFFFF" sketch:type="MSShapeGroup"></path>
            <path d="M25.293,35.293 L22.293,38.293 C21.902,38.684 21.902,39.316 22.293,39.707 C22.488,39.902 22.744,40 23,40 C23.256,40 23.512,39.902 23.707,39.707 L26.707,36.707 C27.098,36.316 27.098,35.684 26.707,35.293 C26.316,34.902 25.684,34.902 25.293,35.293" id="Fill-935" fill="#FFFFFF" sketch:type="MSShapeGroup"></path>
            <path d="M19.293,41.293 L16.293,44.293 C15.902,44.684 15.902,45.316 16.293,45.707 C16.488,45.902 16.744,46 17,46 C17.256,46 17.512,45.902 17.707,45.707 L20.707,42.707 C21.098,42.316 21.098,41.684 20.707,41.293 C20.316,40.902 19.684,40.902 19.293,41.293" id="Fill-936" fill="#FFFFFF" sketch:type="MSShapeGroup"></path>
            <path d="M25.293,43.293 L22.293,46.293 C21.902,46.684 21.902,47.316 22.293,47.707 C22.488,47.902 22.744,48 23,48 C23.256,48 23.512,47.902 23.707,47.707 L26.707,44.707 C27.098,44.316 27.098,43.684 26.707,43.293 C26.316,42.902 25.684,42.902 25.293,43.293" id="Fill-937" fill="#FFFFFF" sketch:type="MSShapeGroup"></path>
            <path d="M19.293,49.293 L16.293,52.293 C15.902,52.684 15.902,53.316 16.293,53.707 C16.488,53.902 16.744,54 17,54 C17.256,54 17.512,53.902 17.707,53.707 L20.707,50.707 C21.098,50.316 21.098,49.684 20.707,49.293 C20.316,48.902 19.684,48.902 19.293,49.293" id="Fill-938" fill="#D0E8F9" sketch:type="MSShapeGroup"></path>
            <path d="M29,34 C29.256,34 29.512,33.902 29.707,33.707 L32.707,30.707 C33.098,30.316 33.098,29.684 32.707,29.293 C32.316,28.902 31.684,28.902 31.293,29.293 L28.293,32.293 C27.902,32.684 27.902,33.316 28.293,33.707 C28.488,33.902 28.744,34 29,34" id="Fill-939" fill="#FFFFFF" sketch:type="MSShapeGroup"></path>
            <path d="M34.293,50.293 L31.293,53.293 C30.902,53.684 30.902,54.316 31.293,54.707 C31.488,54.902 31.744,55 32,55 C32.256,55 32.512,54.902 32.707,54.707 L35.707,51.707 C36.098,51.316 36.098,50.684 35.707,50.293 C35.316,49.902 34.684,49.902 34.293,50.293" id="Fill-940" fill="#D0E8F9" sketch:type="MSShapeGroup"></path>
            <path d="M41.707,44.293 C41.316,43.902 40.684,43.902 40.293,44.293 L37.293,47.293 C36.902,47.684 36.902,48.316 37.293,48.707 C37.488,48.902 37.744,49 38,49 C38.256,49 38.512,48.902 38.707,48.707 L41.707,45.707 C42.098,45.316 42.098,44.684 41.707,44.293" id="Fill-941" fill="#D0E8F9" sketch:type="MSShapeGroup"></path>
        </g>
    </g>
</svg>