<?xml version="1.0" encoding="UTF-8" standalone="no"?>
<svg width="60px" height="60px" viewBox="0 0 60 60" version="1.1" xmlns="http://www.w3.org/2000/svg" xmlns:xlink="http://www.w3.org/1999/xlink" xmlns:sketch="http://www.bohemiancoding.com/sketch/ns">
    <!-- Generator: Sketch 3.2.2 (9983) - http://www.bohemiancoding.com/sketch -->
    <title>68 - Sunny (Flat)</title>
    <desc>Created with Sketch.</desc>
    <defs></defs>
    <g id="Page-1" stroke="none" stroke-width="1" fill="none" fill-rule="evenodd" sketch:type="MSPage">
        <g id="68---Sunny-(Flat)" sketch:type="MSLayerGroup">
            <path d="M30,0 C29.448,0 29,0.448 29,1 L29,7 C29,7.552 29.448,8 30,8 C30.552,8 31,7.552 31,7 L31,1 C31,0.448 30.552,0 30,0" id="Fill-79" fill="#F0C419" sketch:type="MSShapeGroup"></path>
            <path d="M30,52 C29.448,52 29,52.448 29,53 L29,59 C29,59.552 29.448,60 30,60 C30.552,60 31,59.552 31,59 L31,53 C31,52.448 30.552,52 30,52" id="Fill-80" fill="#F0C419" sketch:type="MSShapeGroup"></path>
            <path d="M59,29 L53,29 C52.448,29 52,29.448 52,30 C52,30.552 52.448,31 53,31 L59,31 C59.552,31 60,30.552 60,30 C60,29.448 59.552,29 59,29" id="Fill-81" fill="#F0C419" sketch:type="MSShapeGroup"></path>
            <path d="M8,30 C8,29.448 7.552,29 7,29 L1,29 C0.448,29 0,29.448 0,30 C0,30.552 0.448,31 1,31 L7,31 C7.552,31 8,30.552 8,30" id="Fill-82" fill="#F0C419" sketch:type="MSShapeGroup"></path>
            <path d="M46.264,14.736 C46.52,14.736 46.775,14.639 46.971,14.443 L52.707,8.707 C53.098,8.316 53.098,7.684 52.707,7.293 C52.316,6.902 51.684,6.902 51.293,7.293 L45.557,13.029 C45.166,13.42 45.166,14.053 45.557,14.443 C45.752,14.639 46.008,14.736 46.264,14.736" id="Fill-83" fill="#F0C419" sketch:type="MSShapeGroup"></path>
            <path d="M13.029,45.557 L7.293,51.293 C6.902,51.684 6.902,52.316 7.293,52.707 C7.488,52.902 7.744,53 8,53 C8.256,53 8.512,52.902 8.707,52.707 L14.443,46.971 C14.834,46.58 14.834,45.947 14.443,45.557 C14.053,45.166 13.42,45.166 13.029,45.557" id="Fill-84" fill="#F0C419" sketch:type="MSShapeGroup"></path>
            <path d="M46.971,45.557 C46.58,45.166 45.947,45.166 45.557,45.557 C45.166,45.947 45.166,46.58 45.557,46.971 L51.293,52.707 C51.488,52.902 51.744,53 52,53 C52.256,53 52.512,52.902 52.707,52.707 C53.098,52.316 53.098,51.684 52.707,51.293 L46.971,45.557" id="Fill-85" fill="#F0C419" sketch:type="MSShapeGroup"></path>
            <path d="M8.707,7.293 C8.316,6.902 7.684,6.902 7.293,7.293 C6.902,7.684 6.902,8.316 7.293,8.707 L13.029,14.443 C13.225,14.639 13.481,14.736 13.736,14.736 C13.992,14.736 14.248,14.639 14.443,14.443 C14.834,14.053 14.834,13.42 14.443,13.029 L8.707,7.293" id="Fill-86" fill="#F0C419" sketch:type="MSShapeGroup"></path>
            <path d="M50.251,21.404 C50.413,21.785 50.783,22.014 51.172,22.014 C51.302,22.014 51.435,21.988 51.562,21.934 L54.324,20.761 C54.832,20.545 55.069,19.958 54.854,19.45 C54.638,18.942 54.05,18.704 53.543,18.92 L50.781,20.093 C50.273,20.309 50.035,20.896 50.251,21.404" id="Fill-87" fill="#F0C419" sketch:type="MSShapeGroup"></path>
            <path d="M9.749,38.596 C9.533,38.088 8.946,37.851 8.438,38.066 L5.676,39.239 C5.168,39.455 4.931,40.042 5.147,40.55 C5.308,40.931 5.678,41.16 6.067,41.16 C6.198,41.16 6.33,41.134 6.458,41.08 L9.219,39.907 C9.728,39.691 9.965,39.104 9.749,38.596" id="Fill-88" fill="#F0C419" sketch:type="MSShapeGroup"></path>
            <path d="M54.481,38.813 L51.7,37.688 C51.189,37.482 50.605,37.729 50.398,38.241 C50.191,38.753 50.439,39.336 50.951,39.543 L53.732,40.667 C53.855,40.716 53.982,40.74 54.106,40.74 C54.502,40.74 54.877,40.504 55.034,40.114 C55.241,39.602 54.994,39.019 54.481,38.813" id="Fill-89" fill="#F0C419" sketch:type="MSShapeGroup"></path>
            <path d="M5.519,21.187 L8.3,22.311 C8.423,22.361 8.55,22.385 8.674,22.385 C9.07,22.385 9.445,22.148 9.602,21.759 C9.809,21.247 9.562,20.664 9.049,20.457 L6.268,19.333 C5.755,19.126 5.172,19.373 4.966,19.886 C4.759,20.397 5.006,20.98 5.519,21.187" id="Fill-90" fill="#F0C419" sketch:type="MSShapeGroup"></path>
            <path d="M39.907,50.781 C39.691,50.272 39.104,50.036 38.596,50.251 C38.088,50.467 37.851,51.054 38.066,51.562 L39.239,54.324 C39.4,54.705 39.771,54.934 40.16,54.934 C40.29,54.934 40.422,54.908 40.55,54.854 C41.058,54.638 41.295,54.051 41.08,53.542 L39.907,50.781" id="Fill-91" fill="#F0C419" sketch:type="MSShapeGroup"></path>
            <path d="M21.014,9.829 C21.144,9.829 21.276,9.803 21.404,9.749 C21.912,9.533 22.149,8.946 21.934,8.438 L20.761,5.676 C20.546,5.167 19.959,4.93 19.45,5.146 C18.942,5.362 18.705,5.949 18.92,6.457 L20.093,9.219 C20.254,9.6 20.625,9.829 21.014,9.829" id="Fill-92" fill="#F0C419" sketch:type="MSShapeGroup"></path>
            <path d="M21.759,50.398 C21.248,50.193 20.664,50.438 20.457,50.951 L19.333,53.732 C19.126,54.244 19.374,54.827 19.886,55.034 C20.008,55.083 20.135,55.107 20.26,55.107 C20.655,55.107 21.03,54.871 21.188,54.481 L22.312,51.7 C22.519,51.188 22.271,50.605 21.759,50.398" id="Fill-93" fill="#F0C419" sketch:type="MSShapeGroup"></path>
            <path d="M38.615,9.675 C39.011,9.675 39.386,9.439 39.543,9.049 L40.667,6.268 C40.874,5.756 40.627,5.173 40.114,4.966 C39.603,4.759 39.02,5.006 38.813,5.519 L37.689,8.3 C37.481,8.812 37.729,9.395 38.241,9.602 C38.364,9.651 38.491,9.675 38.615,9.675" id="Fill-94" fill="#F0C419" sketch:type="MSShapeGroup"></path>
            <path d="M50,30 C50,41.046 41.046,50 30,50 C18.954,50 10,41.046 10,30 C10,18.954 18.954,10 30,10 C41.046,10 50,18.954 50,30" id="Fill-904" fill="#F0C419" sketch:type="MSShapeGroup"></path>
            <path d="M45,30 C45,38.284 38.284,45 30,45 C21.716,45 15,38.284 15,30 C15,21.716 21.716,15 30,15 C38.284,15 45,21.716 45,30" id="Fill-905" fill="#EDE21B" sketch:type="MSShapeGroup"></path>
        </g>
    </g>
</svg>