<?xml version="1.0" encoding="UTF-8" standalone="no"?>
<svg width="60px" height="59px" viewBox="0 0 60 59" version="1.1" xmlns="http://www.w3.org/2000/svg" xmlns:xlink="http://www.w3.org/1999/xlink" xmlns:sketch="http://www.bohemiancoding.com/sketch/ns">
    <!-- Generator: Sketch 3.2.2 (9983) - http://www.bohemiancoding.com/sketch -->
    <title>56 - Sunny and Snowing (Flat)</title>
    <desc>Created with Sketch.</desc>
    <defs></defs>
    <g id="Page-1" stroke="none" stroke-width="1" fill="none" fill-rule="evenodd" sketch:type="MSPage">
        <g id="56---Sunny-and-Snowing-(Flat)" sketch:type="MSLayerGroup">
            <path d="M7,29 L1,29 C0.448,29 0,29.448 0,30 C0,30.552 0.448,31 1,31 L7,31 C7.552,31 8,30.552 8,30 C8,29.448 7.552,29 7,29" id="Fill-219" fill="#F0C419" sketch:type="MSShapeGroup"></path>
            <path d="M59,29 L53,29 C52.447,29 52,29.448 52,30 C52,30.552 52.447,31 53,31 L59,31 C59.553,31 60,30.552 60,30 C60,29.448 59.553,29 59,29" id="Fill-220" fill="#F0C419" sketch:type="MSShapeGroup"></path>
            <path d="M30,0 C29.448,0 29,0.448 29,1 L29,7 C29,7.552 29.448,8 30,8 C30.552,8 31,7.552 31,7 L31,1 C31,0.448 30.552,0 30,0" id="Fill-221" fill="#F0C419" sketch:type="MSShapeGroup"></path>
            <path d="M52.707,7.293 C52.316,6.902 51.684,6.902 51.293,7.293 L45.557,13.029 C45.166,13.42 45.166,14.053 45.557,14.443 C45.752,14.639 46.008,14.736 46.264,14.736 C46.52,14.736 46.775,14.639 46.971,14.443 L52.707,8.707 C53.098,8.316 53.098,7.684 52.707,7.293" id="Fill-222" fill="#F0C419" sketch:type="MSShapeGroup"></path>
            <path d="M8.707,7.293 C8.316,6.902 7.684,6.902 7.293,7.293 C6.902,7.684 6.902,8.316 7.293,8.707 L13.029,14.443 C13.225,14.639 13.481,14.736 13.736,14.736 C13.992,14.736 14.248,14.639 14.443,14.443 C14.834,14.053 14.834,13.42 14.443,13.029 L8.707,7.293" id="Fill-223" fill="#F0C419" sketch:type="MSShapeGroup"></path>
            <path d="M40.55,5.146 C40.042,4.93 39.454,5.167 39.239,5.676 L38.066,8.438 C37.851,8.946 38.088,9.533 38.596,9.749 C38.724,9.803 38.856,9.829 38.986,9.829 C39.376,9.829 39.746,9.6 39.907,9.219 L41.08,6.457 C41.295,5.949 41.058,5.362 40.55,5.146" id="Fill-224" fill="#F0C419" sketch:type="MSShapeGroup"></path>
            <path d="M21.188,5.519 C20.981,5.007 20.4,4.762 19.886,4.966 C19.374,5.173 19.126,5.756 19.333,6.268 L20.457,9.049 C20.614,9.439 20.989,9.675 21.385,9.675 C21.509,9.675 21.636,9.651 21.759,9.602 C22.271,9.395 22.519,8.812 22.312,8.3 L21.188,5.519" id="Fill-225" fill="#F0C419" sketch:type="MSShapeGroup"></path>
            <path d="M9.219,20.093 L6.458,18.92 C5.949,18.704 5.362,18.941 5.147,19.45 C4.931,19.958 5.168,20.545 5.676,20.761 L8.438,21.934 C8.565,21.988 8.698,22.014 8.828,22.014 C9.217,22.014 9.587,21.785 9.749,21.404 C9.965,20.896 9.728,20.309 9.219,20.093" id="Fill-226" fill="#F0C419" sketch:type="MSShapeGroup"></path>
            <path d="M55.033,19.886 C54.826,19.373 54.244,19.127 53.731,19.333 L50.95,20.457 C50.438,20.664 50.191,21.247 50.398,21.759 C50.556,22.148 50.93,22.385 51.325,22.385 C51.45,22.385 51.577,22.361 51.7,22.311 L54.481,21.187 C54.993,20.98 55.24,20.397 55.033,19.886" id="Fill-227" fill="#F0C419" sketch:type="MSShapeGroup"></path>
            <path d="M50,30 C50,41.046 41.046,50 30,50 C18.954,50 10,41.046 10,30 C10,18.954 18.954,10 30,10 C41.046,10 50,18.954 50,30" id="Fill-928" fill="#F0C419" sketch:type="MSShapeGroup"></path>
            <path d="M45,30 C45,38.284 38.284,45 30,45 C21.716,45 15,38.284 15,30 C15,21.716 21.716,15 30,15 C38.284,15 45,21.716 45,30" id="Fill-929" fill="#EDE21B" sketch:type="MSShapeGroup"></path>
            <path d="M43.83,43.634 L41,42 L43.83,40.366 C44.309,40.09 44.472,39.478 44.196,39 C43.919,38.521 43.307,38.356 42.83,38.634 L40,40.268 L40,37 C40,36.448 39.552,36 39,36 C38.448,36 38,36.448 38,37 L38,40.268 L35.17,38.634 C34.69,38.356 34.08,38.521 33.804,39 C33.528,39.478 33.691,40.09 34.17,40.366 L37,42 L34.17,43.634 C33.691,43.91 33.528,44.521 33.804,45 C33.989,45.321 34.325,45.5 34.671,45.5 C34.84,45.5 35.013,45.457 35.17,45.366 L38,43.732 L38,47 C38,47.552 38.448,48 39,48 C39.552,48 40,47.552 40,47 L40,43.732 L42.83,45.366 C42.988,45.457 43.16,45.5 43.329,45.5 C43.675,45.5 44.011,45.321 44.196,45 C44.472,44.521 44.309,43.91 43.83,43.634" id="Fill-942" fill="#E6E7E8" sketch:type="MSShapeGroup"></path>
            <path d="M25.196,45 C25.472,44.521 25.309,43.91 24.83,43.634 L22,42 L24.83,40.366 C25.309,40.09 25.472,39.478 25.196,39 C24.92,38.521 24.308,38.356 23.83,38.634 L21,40.268 L21,37 C21,36.448 20.552,36 20,36 C19.448,36 19,36.448 19,37 L19,40.268 L16.17,38.634 C15.69,38.356 15.08,38.521 14.804,39 C14.528,39.478 14.691,40.09 15.17,40.366 L18,42 L15.17,43.634 C14.691,43.91 14.528,44.521 14.804,45 C14.989,45.321 15.325,45.5 15.671,45.5 C15.84,45.5 16.013,45.457 16.17,45.366 L19,43.732 L19,47 C19,47.552 19.448,48 20,48 C20.552,48 21,47.552 21,47 L21,43.732 L23.83,45.366 C23.988,45.457 24.16,45.5 24.329,45.5 C24.675,45.5 25.011,45.321 25.196,45" id="Fill-943" fill="#E6E7E8" sketch:type="MSShapeGroup"></path>
            <path d="M35.196,50.031 C34.92,49.553 34.308,49.388 33.83,49.665 L31,51.299 L31,48.031 C31,47.479 30.552,47.031 30,47.031 C29.448,47.031 29,47.479 29,48.031 L29,51.299 L26.17,49.665 C25.69,49.388 25.08,49.553 24.804,50.031 C24.528,50.51 24.691,51.121 25.17,51.397 L28,53.031 L25.17,54.665 C24.691,54.941 24.528,55.553 24.804,56.031 C24.989,56.352 25.325,56.531 25.671,56.531 C25.84,56.531 26.013,56.488 26.17,56.397 L29,54.763 L29,58.031 C29,58.583 29.448,59.031 30,59.031 C30.552,59.031 31,58.583 31,58.031 L31,54.763 L33.83,56.397 C33.988,56.488 34.16,56.531 34.329,56.531 C34.675,56.531 35.011,56.352 35.196,56.031 C35.472,55.553 35.309,54.941 34.83,54.665 L32,53.031 L34.83,51.397 C35.309,51.121 35.472,50.51 35.196,50.031" id="Fill-944" fill="#E6E7E8" sketch:type="MSShapeGroup"></path>
        </g>
    </g>
</svg>