<?xml version="1.0" encoding="UTF-8" standalone="no"?>
<svg width="60px" height="60px" viewBox="0 0 60 60" version="1.1" xmlns="http://www.w3.org/2000/svg" xmlns:xlink="http://www.w3.org/1999/xlink" xmlns:sketch="http://www.bohemiancoding.com/sketch/ns">
    <!-- Generator: Sketch 3.2.2 (9983) - http://www.bohemiancoding.com/sketch -->
    <title>58 - Sunny and Windy (Flat)</title>
    <desc>Created with Sketch.</desc>
    <defs></defs>
    <g id="Page-1" stroke="none" stroke-width="1" fill="none" fill-rule="evenodd" sketch:type="MSPage">
        <g id="58---Sunny-and-Windy-(Flat)" sketch:type="MSLayerGroup">
            <path d="M30,0 C29.448,0 29,0.448 29,1 L29,7 C29,7.552 29.448,8 30,8 C30.552,8 31,7.552 31,7 L31,1 C31,0.448 30.552,0 30,0" id="Fill-95" fill="#F0C419" sketch:type="MSShapeGroup"></path>
            <path d="M30,52 C29.448,52 29,52.448 29,53 L29,59 C29,59.552 29.448,60 30,60 C30.552,60 31,59.552 31,59 L31,53 C31,52.448 30.552,52 30,52" id="Fill-96" fill="#F0C419" sketch:type="MSShapeGroup"></path>
            <path d="M8,30 C8,29.448 7.552,29 7,29 L1,29 C0.448,29 0,29.448 0,30 C0,30.552 0.448,31 1,31 L7,31 C7.552,31 8,30.552 8,30" id="Fill-97" fill="#F0C419" sketch:type="MSShapeGroup"></path>
            <path d="M13.029,45.557 L7.293,51.293 C6.902,51.684 6.902,52.316 7.293,52.707 C7.488,52.902 7.744,53 8,53 C8.256,53 8.512,52.902 8.707,52.707 L14.443,46.971 C14.834,46.58 14.834,45.947 14.443,45.557 C14.053,45.166 13.42,45.166 13.029,45.557" id="Fill-98" fill="#F0C419" sketch:type="MSShapeGroup"></path>
            <path d="M8.707,7.293 C8.316,6.902 7.684,6.902 7.293,7.293 C6.902,7.684 6.902,8.316 7.293,8.707 L13.029,14.443 C13.225,14.639 13.481,14.736 13.736,14.736 C13.992,14.736 14.248,14.639 14.443,14.443 C14.834,14.053 14.834,13.42 14.443,13.029 L8.707,7.293" id="Fill-99" fill="#F0C419" sketch:type="MSShapeGroup"></path>
            <path d="M9.749,38.596 C9.533,38.088 8.946,37.851 8.438,38.066 L5.676,39.239 C5.168,39.455 4.931,40.042 5.147,40.55 C5.308,40.931 5.678,41.16 6.067,41.16 C6.198,41.16 6.33,41.134 6.458,41.08 L9.219,39.907 C9.728,39.691 9.965,39.104 9.749,38.596" id="Fill-100" fill="#F0C419" sketch:type="MSShapeGroup"></path>
            <path d="M5.519,21.188 L8.3,22.311 C8.423,22.361 8.55,22.385 8.674,22.385 C9.07,22.385 9.445,22.148 9.602,21.759 C9.809,21.247 9.562,20.664 9.049,20.457 L6.268,19.333 C5.755,19.126 5.172,19.373 4.966,19.886 C4.759,20.397 5.006,20.98 5.519,21.188" id="Fill-101" fill="#F0C419" sketch:type="MSShapeGroup"></path>
            <path d="M21.014,9.829 C21.144,9.829 21.276,9.803 21.404,9.749 C21.912,9.533 22.149,8.946 21.934,8.438 L20.761,5.676 C20.546,5.167 19.959,4.93 19.45,5.146 C18.942,5.362 18.705,5.949 18.92,6.457 L20.093,9.219 C20.254,9.6 20.625,9.829 21.014,9.829" id="Fill-102" fill="#F0C419" sketch:type="MSShapeGroup"></path>
            <path d="M21.759,50.398 C21.248,50.193 20.664,50.438 20.457,50.951 L19.333,53.732 C19.126,54.244 19.374,54.827 19.886,55.034 C20.008,55.083 20.135,55.107 20.26,55.107 C20.655,55.107 21.03,54.871 21.188,54.481 L22.312,51.7 C22.519,51.188 22.271,50.605 21.759,50.398" id="Fill-103" fill="#F0C419" sketch:type="MSShapeGroup"></path>
            <path d="M51,30 C51,41.046 42.046,50 31,50 C19.954,50 11,41.046 11,30 C11,18.954 19.954,10 31,10 C42.046,10 51,18.954 51,30" id="Fill-874" fill="#F0C419" sketch:type="MSShapeGroup"></path>
            <path d="M53,18 C53,13.038 48.962,9 44,9 C43.448,9 43,9.448 43,10 C43,10.552 43.448,11 44,11 C47.86,11 51,14.14 51,18 C51,19.643 50.427,21.152 49.477,22.347 C49.765,23.043 50.005,23.762 50.214,24.494 C51.927,22.855 53,20.552 53,18" id="Fill-875" fill="#E4ECF4" sketch:type="MSShapeGroup"></path>
            <path d="M51,37 L49.716,37 C49.459,37.685 49.17,38.353 48.843,39 L51,39 C54.86,39 58,42.14 58,46 C58,49.86 54.86,53 51,53 C50.448,53 50,53.448 50,54 C50,54.552 50.448,55 51,55 C55.962,55 60,50.962 60,46 C60,41.038 55.962,37 51,37" id="Fill-876" fill="#E4ECF4" sketch:type="MSShapeGroup"></path>
            <path d="M47,18 C47,18.011 46.997,18.021 46.997,18.032 C47.524,18.736 48.015,19.467 48.447,20.238 C48.789,19.561 49,18.808 49,18 C49,15.243 46.757,13 44,13 C43.333,13 42.698,13.137 42.115,13.375 C42.859,13.873 43.555,14.432 44.223,15.022 C45.772,15.139 47,16.422 47,18" id="Fill-877" fill="#E4ECF4" sketch:type="MSShapeGroup"></path>
            <path d="M56,46 C56,43.243 53.757,41 51,41 C50.448,41 50,41.448 50,42 C50,42.552 50.448,43 51,43 C52.654,43 54,44.346 54,46 C54,47.654 52.654,49 51,49 C49.346,49 48,47.654 48,46 C48,45.448 47.552,45 47,45 C46.448,45 46,45.448 46,46 C46,48.757 48.243,51 51,51 C53.757,51 56,48.757 56,46" id="Fill-878" fill="#E4ECF4" sketch:type="MSShapeGroup"></path>
            <path d="M50.95,31 L53,31 C53.552,31 54,30.552 54,30 C54,29.448 53.552,29 53,29 L50.95,29 C50.966,29.333 51,29.662 51,30 C51,30.338 50.966,30.667 50.95,31" id="Fill-879" fill="#E4ECF4" sketch:type="MSShapeGroup"></path>
            <path d="M59,35 C59.552,35 60,34.552 60,34 C60,33.448 59.552,33 59,33 L50.751,33 C50.649,33.679 50.513,34.345 50.344,35 L59,35" id="Fill-880" fill="#E4ECF4" sketch:type="MSShapeGroup"></path>
            <path d="M50.214,24.494 C50.005,23.762 49.765,23.043 49.477,22.347 C48.409,23.689 46.859,24.624 45.093,24.904 C45.321,25.533 45.518,26.176 45.66,26.841 C47.408,26.512 48.978,25.678 50.214,24.494" id="Fill-881" fill="#EFB41F" sketch:type="MSShapeGroup"></path>
            <path d="M44.262,37 C43.889,37.704 43.455,38.368 42.98,39 L48.843,39 C49.17,38.353 49.459,37.685 49.716,37 L44.262,37" id="Fill-882" fill="#EFB41F" sketch:type="MSShapeGroup"></path>
            <path d="M41,18 C41,16.346 42.346,15 44,15 C44.076,15 44.148,15.017 44.223,15.022 C43.555,14.432 42.859,13.873 42.115,13.375 C40.482,14.043 39.284,15.55 39.049,17.357 C39.651,17.74 40.223,18.163 40.762,18.626 C40.904,18.453 41,18.241 41,18" id="Fill-883" fill="#EFB41F" sketch:type="MSShapeGroup"></path>
            <path d="M44,21 C43.695,21 43.432,21.144 43.248,21.359 C43.615,21.878 43.953,22.417 44.253,22.982 C46.091,22.887 47.659,21.796 48.447,20.238 C48.015,19.467 47.524,18.736 46.997,18.032 C46.979,19.671 45.643,21 44,21" id="Fill-884" fill="#EFB41F" sketch:type="MSShapeGroup"></path>
            <path d="M39,43 L45,43 C45.552,43 46,42.552 46,42 C46,41.448 45.552,41 45,41 L41.174,41 C40.389,41.726 39.528,42.369 38.602,42.915 C38.724,42.969 38.858,43 39,43" id="Fill-885" fill="#EFB41F" sketch:type="MSShapeGroup"></path>
            <path d="M45.95,31 L50.95,31 C50.966,30.667 51,30.338 51,30 C51,29.662 50.966,29.333 50.95,29 L45.95,29 C45.972,29.332 46,29.662 46,30 C46,30.338 45.972,30.668 45.95,31" id="Fill-886" fill="#EFB41F" sketch:type="MSShapeGroup"></path>
            <path d="M50.344,35 C50.513,34.345 50.649,33.679 50.751,33 L45.699,33 C45.559,33.687 45.358,34.35 45.128,35 L50.344,35" id="Fill-887" fill="#EFB41F" sketch:type="MSShapeGroup"></path>
            <path d="M30,38 C30,37.448 30.448,37 31,37 L44.262,37 C44.6,36.361 44.884,35.69 45.128,35 L26,35 C25.448,35 25,34.552 25,34 C25,33.448 25.448,33 26,33 L45.699,33 C45.831,32.349 45.905,31.679 45.95,31 L22,31 C21.448,31 21,30.552 21,30 C21,29.448 21.448,29 22,29 L45.95,29 C45.901,28.265 45.811,27.543 45.66,26.841 C45.122,26.943 44.568,27 44,27 L26,27 C25.448,27 25,26.552 25,26 C25,25.448 25.448,25 26,25 L44,25 C44.373,25 44.736,24.961 45.093,24.904 C44.854,24.242 44.579,23.597 44.253,22.982 C44.168,22.986 44.086,23 44,23 C43.448,23 43,22.552 43,22 C43,21.753 43.099,21.534 43.248,21.359 C42.534,20.348 41.699,19.431 40.762,18.626 C40.579,18.849 40.312,19 40,19 C39.448,19 39,18.552 39,18 C39,17.781 39.022,17.568 39.049,17.357 C36.722,15.872 33.966,15 31,15 C22.716,15 16,21.716 16,30 C16,38.284 22.716,45 31,45 C33.778,45 36.371,44.231 38.602,42.915 C38.248,42.761 38,42.41 38,42 C38,41.448 38.448,41 39,41 L41.174,41 C41.834,40.389 42.438,39.72 42.98,39 L31,39 C30.448,39 30,38.552 30,38 L30,38 Z M34,21 L40,21 C40.552,21 41,21.448 41,22 C41,22.552 40.552,23 40,23 L34,23 C33.448,23 33,22.552 33,22 C33,21.448 33.448,21 34,21 L34,21 Z" id="Fill-888" fill="#EDE21B" sketch:type="MSShapeGroup"></path>
            <path d="M26,25 C25.448,25 25,25.448 25,26 C25,26.552 25.448,27 26,27 L44,27 C44.568,27 45.122,26.943 45.66,26.841 C45.518,26.176 45.321,25.533 45.093,24.904 C44.736,24.961 44.373,25 44,25 L26,25" id="Fill-889" fill="#F0C419" sketch:type="MSShapeGroup"></path>
            <path d="M31,37 C30.448,37 30,37.448 30,38 C30,38.552 30.448,39 31,39 L42.98,39 C43.455,38.368 43.889,37.704 44.262,37 L31,37" id="Fill-890" fill="#F0C419" sketch:type="MSShapeGroup"></path>
            <path d="M40,19 C40.312,19 40.579,18.849 40.762,18.626 C40.223,18.163 39.651,17.74 39.049,17.357 C39.022,17.568 39,17.781 39,18 C39,18.552 39.448,19 40,19" id="Fill-891" fill="#EFB41F" sketch:type="MSShapeGroup"></path>
            <path d="M43,22 C43,22.552 43.448,23 44,23 C44.086,23 44.168,22.986 44.253,22.982 C43.953,22.417 43.615,21.878 43.248,21.359 C43.099,21.534 43,21.753 43,22" id="Fill-892" fill="#EFB41F" sketch:type="MSShapeGroup"></path>
            <path d="M38,42 C38,42.41 38.248,42.761 38.602,42.915 C39.528,42.369 40.389,41.726 41.174,41 L39,41 C38.448,41 38,41.448 38,42" id="Fill-893" fill="#EFB41F" sketch:type="MSShapeGroup"></path>
            <path d="M34,23 L40,23 C40.552,23 41,22.552 41,22 C41,21.448 40.552,21 40,21 L34,21 C33.448,21 33,21.448 33,22 C33,22.552 33.448,23 34,23" id="Fill-894" fill="#F0C419" sketch:type="MSShapeGroup"></path>
            <path d="M21,30 C21,30.552 21.448,31 22,31 L45.95,31 C45.972,30.668 46,30.338 46,30 C46,29.662 45.972,29.332 45.95,29 L22,29 C21.448,29 21,29.448 21,30" id="Fill-895" fill="#F0C419" sketch:type="MSShapeGroup"></path>
            <path d="M25,34 C25,34.552 25.448,35 26,35 L45.128,35 C45.358,34.35 45.559,33.687 45.699,33 L26,33 C25.448,33 25,33.448 25,34" id="Fill-896" fill="#F0C419" sketch:type="MSShapeGroup"></path>
        </g>
    </g>
</svg>