<?xml version="1.0" encoding="UTF-8" standalone="no"?>
<svg width="60px" height="54px" viewBox="0 0 60 54" version="1.1" xmlns="http://www.w3.org/2000/svg" xmlns:xlink="http://www.w3.org/1999/xlink" xmlns:sketch="http://www.bohemiancoding.com/sketch/ns">
    <!-- Generator: Sketch 3.2.2 (9983) - http://www.bohemiancoding.com/sketch -->
    <title>67 - Sunset (Flat)</title>
    <desc>Created with Sketch.</desc>
    <defs></defs>
    <g id="Page-1" stroke="none" stroke-width="1" fill="none" fill-rule="evenodd" sketch:type="MSPage">
        <g id="67---Sunset-(Flat)" sketch:type="MSLayerGroup">
            <path d="M30,0 C29.448,0 29,0.448 29,1 L29,7 C29,7.552 29.448,8 30,8 C30.552,8 31,7.552 31,7 L31,1 C31,0.448 30.552,0 30,0" id="Fill-104" fill="#F0C419" sketch:type="MSShapeGroup"></path>
            <path d="M59,29 L53,29 C52.448,29 52,29.448 52,30 C52,30.552 52.448,31 53,31 L59,31 C59.552,31 60,30.552 60,30 C60,29.448 59.552,29 59,29" id="Fill-105" fill="#F0C419" sketch:type="MSShapeGroup"></path>
            <path d="M7,29 L1,29 C0.448,29 0,29.448 0,30 C0,30.552 0.448,31 1,31 L7,31 C7.552,31 8,30.552 8,30 C8,29.448 7.552,29 7,29" id="Fill-106" fill="#F0C419" sketch:type="MSShapeGroup"></path>
            <path d="M52.707,7.293 C52.316,6.902 51.684,6.902 51.293,7.293 L45.557,13.029 C45.166,13.42 45.166,14.053 45.557,14.443 C45.752,14.639 46.008,14.736 46.264,14.736 C46.52,14.736 46.775,14.639 46.971,14.443 L52.707,8.707 C53.098,8.316 53.098,7.684 52.707,7.293" id="Fill-107" fill="#F0C419" sketch:type="MSShapeGroup"></path>
            <path d="M8.707,7.293 C8.316,6.902 7.684,6.902 7.293,7.293 C6.902,7.684 6.902,8.316 7.293,8.707 L13.029,14.443 C13.225,14.639 13.481,14.736 13.736,14.736 C13.992,14.736 14.248,14.639 14.443,14.443 C14.834,14.053 14.834,13.42 14.443,13.029 L8.707,7.293" id="Fill-108" fill="#F0C419" sketch:type="MSShapeGroup"></path>
            <path d="M54.854,19.45 C54.638,18.942 54.05,18.704 53.542,18.92 L50.781,20.093 C50.273,20.309 50.035,20.896 50.251,21.404 C50.413,21.785 50.783,22.014 51.172,22.014 C51.302,22.014 51.435,21.988 51.562,21.934 L54.324,20.761 C54.832,20.545 55.069,19.958 54.854,19.45" id="Fill-109" fill="#F0C419" sketch:type="MSShapeGroup"></path>
            <path d="M9.049,20.457 L6.268,19.333 C5.755,19.126 5.172,19.373 4.966,19.886 C4.759,20.397 5.006,20.98 5.519,21.187 L8.3,22.311 C8.423,22.361 8.55,22.385 8.674,22.385 C9.07,22.385 9.445,22.148 9.602,21.759 C9.809,21.247 9.562,20.664 9.049,20.457" id="Fill-110" fill="#F0C419" sketch:type="MSShapeGroup"></path>
            <path d="M20.761,5.676 C20.545,5.167 19.957,4.93 19.45,5.146 C18.942,5.362 18.705,5.949 18.92,6.457 L20.093,9.219 C20.254,9.6 20.625,9.829 21.014,9.829 C21.144,9.829 21.276,9.803 21.404,9.749 C21.912,9.533 22.149,8.946 21.934,8.438 L20.761,5.676" id="Fill-111" fill="#F0C419" sketch:type="MSShapeGroup"></path>
            <path d="M40.114,4.966 C39.604,4.759 39.02,5.006 38.813,5.519 L37.688,8.3 C37.481,8.812 37.729,9.395 38.241,9.602 C38.364,9.651 38.491,9.675 38.615,9.675 C39.011,9.675 39.386,9.439 39.543,9.049 L40.667,6.268 C40.874,5.756 40.627,5.173 40.114,4.966" id="Fill-112" fill="#F0C419" sketch:type="MSShapeGroup"></path>
            <path d="M48.325,38 C49.396,35.549 50,32.846 50,30 C50,18.954 41.046,10 30,10 C18.954,10 10,18.954 10,30 C10,32.846 10.604,35.549 11.675,38 L48.325,38" id="Fill-130" fill="#F0C419" sketch:type="MSShapeGroup"></path>
            <path d="M42.673,38 C44.139,35.683 45,32.945 45,30 C45,21.716 38.284,15 30,15 C21.716,15 15,21.716 15,30 C15,32.945 15.861,35.683 17.327,38 L42.673,38" id="Fill-682" fill="#EDE21B" sketch:type="MSShapeGroup"></path>
            <path d="M59,37 L1,37 C0.448,37 0,37.448 0,38 C0,38.552 0.448,39 1,39 L59,39 C59.552,39 60,38.552 60,38 C60,37.448 59.552,37 59,37" id="Fill-906" fill="#F29C1F" sketch:type="MSShapeGroup"></path>
            <path d="M54,42 L6,42 C5.448,42 5,42.448 5,43 C5,43.552 5.448,44 6,44 L54,44 C54.552,44 55,43.552 55,43 C55,42.448 54.552,42 54,42" id="Fill-907" fill="#F29C1F" sketch:type="MSShapeGroup"></path>
            <path d="M49,47 L11,47 C10.448,47 10,47.448 10,48 C10,48.552 10.448,49 11,49 L49,49 C49.552,49 50,48.552 50,48 C50,47.448 49.552,47 49,47" id="Fill-908" fill="#F29C1F" sketch:type="MSShapeGroup"></path>
            <path d="M45,52 L15,52 C14.448,52 14,52.448 14,53 C14,53.552 14.448,54 15,54 L45,54 C45.552,54 46,53.552 46,53 C46,52.448 45.552,52 45,52" id="Fill-909" fill="#F29C1F" sketch:type="MSShapeGroup"></path>
        </g>
    </g>
</svg>