<?xml version="1.0" encoding="UTF-8" standalone="no"?>
<svg width="56px" height="56px" viewBox="0 0 56 56" version="1.1" xmlns="http://www.w3.org/2000/svg" xmlns:xlink="http://www.w3.org/1999/xlink" xmlns:sketch="http://www.bohemiancoding.com/sketch/ns">
    <!-- Generator: Sketch 3.2.2 (9983) - http://www.bohemiancoding.com/sketch -->
    <title>8 - Waxing Crescent Moon (Flat)</title>
    <desc>Created with Sketch.</desc>
    <defs></defs>
    <g id="Page-1" stroke="none" stroke-width="1" fill="none" fill-rule="evenodd" sketch:type="MSPage">
        <g id="8---Waxing-Crescent-Moon-(Flat)" sketch:type="MSLayerGroup">
            <path d="M25,28 C25,17.039 31.302,7.557 40.476,2.959 C36.717,1.08 32.489,0 28,0 C12.536,0 0,12.536 0,28 C0,43.464 12.536,56 28,56 C32.489,56 36.717,54.92 40.476,53.041 C31.302,48.443 25,38.96 25,28" id="Fill-66" fill="#95A5A5" sketch:type="MSShapeGroup"></path>
            <path d="M40.5,2.946 C31.313,7.539 25,17.03 25,28 C25,38.97 31.313,48.461 40.5,53.054 C49.688,48.461 56,38.97 56,28 C56,17.03 49.688,7.539 40.5,2.946" id="Fill-562" fill="#BDC3C7" sketch:type="MSShapeGroup"></path>
            <path d="M26,9 C26,9.552 26.448,10 27,10 C27.552,10 28,9.552 28,9 C28,8.448 27.552,8 27,8 C26.448,8 26,8.448 26,9" id="Fill-563" fill="#BDC3C7" sketch:type="MSShapeGroup"></path>
            <path d="M26,1 C26,1.552 26.448,2 27,2 C27.552,2 28,1.552 28,1 C28,0.448 27.552,0 27,0 C26.448,0 26,0.448 26,1" id="Fill-564" fill="#BDC3C7" sketch:type="MSShapeGroup"></path>
            <path d="M30,5 C30,5.552 30.448,6 31,6 C31.552,6 32,5.552 32,5 C32,4.448 31.552,4 31,4 C30.448,4 30,4.448 30,5" id="Fill-565" fill="#BDC3C7" sketch:type="MSShapeGroup"></path>
            <path d="M26,41 C26,41.552 26.448,42 27,42 C27.552,42 28,41.552 28,41 C28,40.448 27.552,40 27,40 C26.448,40 26,40.448 26,41" id="Fill-566" fill="#BDC3C7" sketch:type="MSShapeGroup"></path>
            <path d="M26,49 C26,49.552 26.448,50 27,50 C27.552,50 28,49.552 28,49 C28,48.448 27.552,48 27,48 C26.448,48 26,48.448 26,49" id="Fill-567" fill="#BDC3C7" sketch:type="MSShapeGroup"></path>
            <path d="M30,53 C30,53.552 30.448,54 31,54 C31.552,54 32,53.552 32,53 C32,52.448 31.552,52 31,52 C30.448,52 30,52.448 30,53" id="Fill-568" fill="#BDC3C7" sketch:type="MSShapeGroup"></path>
            <path d="M18,9 C18,9.552 18.448,10 19,10 C19.552,10 20,9.552 20,9 C20,8.448 19.552,8 19,8 C18.448,8 18,8.448 18,9" id="Fill-569" fill="#BDC3C7" sketch:type="MSShapeGroup"></path>
            <path d="M10,9 C10,9.552 10.448,10 11,10 C11.552,10 12,9.552 12,9 C12,8.448 11.552,8 11,8 C10.448,8 10,8.448 10,9" id="Fill-570" fill="#BDC3C7" sketch:type="MSShapeGroup"></path>
            <path d="M22,13 C22,13.552 22.448,14 23,14 C23.552,14 24,13.552 24,13 C24,12.448 23.552,12 23,12 C22.448,12 22,12.448 22,13" id="Fill-571" fill="#BDC3C7" sketch:type="MSShapeGroup"></path>
            <path d="M14,13 C14,13.552 14.448,14 15,14 C15.552,14 16,13.552 16,13 C16,12.448 15.552,12 15,12 C14.448,12 14,12.448 14,13" id="Fill-572" fill="#BDC3C7" sketch:type="MSShapeGroup"></path>
            <path d="M22,5 C22,5.552 22.448,6 23,6 C23.552,6 24,5.552 24,5 C24,4.448 23.552,4 23,4 C22.448,4 22,4.448 22,5" id="Fill-573" fill="#BDC3C7" sketch:type="MSShapeGroup"></path>
            <path d="M14,5 C14,5.552 14.448,6 15,6 C15.552,6 16,5.552 16,5 C16,4.448 15.552,4 15,4 C14.448,4 14,4.448 14,5" id="Fill-574" fill="#BDC3C7" sketch:type="MSShapeGroup"></path>
            <path d="M18,17 C18,17.552 18.448,18 19,18 C19.552,18 20,17.552 20,17 C20,16.448 19.552,16 19,16 C18.448,16 18,16.448 18,17" id="Fill-575" fill="#BDC3C7" sketch:type="MSShapeGroup"></path>
            <path d="M10,17 C10,17.552 10.448,18 11,18 C11.552,18 12,17.552 12,17 C12,16.448 11.552,16 11,16 C10.448,16 10,16.448 10,17" id="Fill-576" fill="#BDC3C7" sketch:type="MSShapeGroup"></path>
            <path d="M22,21 C22,21.552 22.448,22 23,22 C23.552,22 24,21.552 24,21 C24,20.448 23.552,20 23,20 C22.448,20 22,20.448 22,21" id="Fill-577" fill="#BDC3C7" sketch:type="MSShapeGroup"></path>
            <path d="M14,21 C14,21.552 14.448,22 15,22 C15.552,22 16,21.552 16,21 C16,20.448 15.552,20 15,20 C14.448,20 14,20.448 14,21" id="Fill-578" fill="#BDC3C7" sketch:type="MSShapeGroup"></path>
            <path d="M18,25 C18,25.552 18.448,26 19,26 C19.552,26 20,25.552 20,25 C20,24.448 19.552,24 19,24 C18.448,24 18,24.448 18,25" id="Fill-579" fill="#BDC3C7" sketch:type="MSShapeGroup"></path>
            <path d="M10,25 C10,25.552 10.448,26 11,26 C11.552,26 12,25.552 12,25 C12,24.448 11.552,24 11,24 C10.448,24 10,24.448 10,25" id="Fill-580" fill="#BDC3C7" sketch:type="MSShapeGroup"></path>
            <path d="M22,29 C22,29.552 22.448,30 23,30 C23.552,30 24,29.552 24,29 C24,28.448 23.552,28 23,28 C22.448,28 22,28.448 22,29" id="Fill-581" fill="#BDC3C7" sketch:type="MSShapeGroup"></path>
            <path d="M14,29 C14,29.552 14.448,30 15,30 C15.552,30 16,29.552 16,29 C16,28.448 15.552,28 15,28 C14.448,28 14,28.448 14,29" id="Fill-582" fill="#BDC3C7" sketch:type="MSShapeGroup"></path>
            <path d="M18,33 C18,33.552 18.448,34 19,34 C19.552,34 20,33.552 20,33 C20,32.448 19.552,32 19,32 C18.448,32 18,32.448 18,33" id="Fill-583" fill="#BDC3C7" sketch:type="MSShapeGroup"></path>
            <path d="M10,33 C10,33.552 10.448,34 11,34 C11.552,34 12,33.552 12,33 C12,32.448 11.552,32 11,32 C10.448,32 10,32.448 10,33" id="Fill-584" fill="#BDC3C7" sketch:type="MSShapeGroup"></path>
            <path d="M22,37 C22,37.552 22.448,38 23,38 C23.552,38 24,37.552 24,37 C24,36.448 23.552,36 23,36 C22.448,36 22,36.448 22,37" id="Fill-585" fill="#BDC3C7" sketch:type="MSShapeGroup"></path>
            <path d="M14,37 C14,37.552 14.448,38 15,38 C15.552,38 16,37.552 16,37 C16,36.448 15.552,36 15,36 C14.448,36 14,36.448 14,37" id="Fill-586" fill="#BDC3C7" sketch:type="MSShapeGroup"></path>
            <path d="M18,41 C18,41.552 18.448,42 19,42 C19.552,42 20,41.552 20,41 C20,40.448 19.552,40 19,40 C18.448,40 18,40.448 18,41" id="Fill-587" fill="#BDC3C7" sketch:type="MSShapeGroup"></path>
            <path d="M10,41 C10,41.552 10.448,42 11,42 C11.552,42 12,41.552 12,41 C12,40.448 11.552,40 11,40 C10.448,40 10,40.448 10,41" id="Fill-588" fill="#BDC3C7" sketch:type="MSShapeGroup"></path>
            <path d="M22,45 C22,45.552 22.448,46 23,46 C23.552,46 24,45.552 24,45 C24,44.448 23.552,44 23,44 C22.448,44 22,44.448 22,45" id="Fill-589" fill="#BDC3C7" sketch:type="MSShapeGroup"></path>
            <path d="M14,45 C14,45.552 14.448,46 15,46 C15.552,46 16,45.552 16,45 C16,44.448 15.552,44 15,44 C14.448,44 14,44.448 14,45" id="Fill-590" fill="#BDC3C7" sketch:type="MSShapeGroup"></path>
            <path d="M18,49 C18,49.552 18.448,50 19,50 C19.552,50 20,49.552 20,49 C20,48.448 19.552,48 19,48 C18.448,48 18,48.448 18,49" id="Fill-591" fill="#BDC3C7" sketch:type="MSShapeGroup"></path>
            <path d="M10,49 C10,49.552 10.448,50 11,50 C11.552,50 12,49.552 12,49 C12,48.448 11.552,48 11,48 C10.448,48 10,48.448 10,49" id="Fill-592" fill="#BDC3C7" sketch:type="MSShapeGroup"></path>
            <path d="M22,53 C22,53.552 22.448,54 23,54 C23.552,54 24,53.552 24,53 C24,52.448 23.552,52 23,52 C22.448,52 22,52.448 22,53" id="Fill-593" fill="#BDC3C7" sketch:type="MSShapeGroup"></path>
            <path d="M6,13 C6,13.552 6.448,14 7,14 C7.552,14 8,13.552 8,13 C8,12.448 7.552,12 7,12 C6.448,12 6,12.448 6,13" id="Fill-594" fill="#BDC3C7" sketch:type="MSShapeGroup"></path>
            <path d="M6,21 C6,21.552 6.448,22 7,22 C7.552,22 8,21.552 8,21 C8,20.448 7.552,20 7,20 C6.448,20 6,20.448 6,21" id="Fill-595" fill="#BDC3C7" sketch:type="MSShapeGroup"></path>
            <path d="M2,25 C2,25.552 2.448,26 3,26 C3.552,26 4,25.552 4,25 C4,24.448 3.552,24 3,24 C2.448,24 2,24.448 2,25" id="Fill-596" fill="#BDC3C7" sketch:type="MSShapeGroup"></path>
            <path d="M6,29 C6,29.552 6.448,30 7,30 C7.552,30 8,29.552 8,29 C8,28.448 7.552,28 7,28 C6.448,28 6,28.448 6,29" id="Fill-597" fill="#BDC3C7" sketch:type="MSShapeGroup"></path>
            <path d="M2,33 C2,33.552 2.448,34 3,34 C3.552,34 4,33.552 4,33 C4,32.448 3.552,32 3,32 C2.448,32 2,32.448 2,33" id="Fill-598" fill="#BDC3C7" sketch:type="MSShapeGroup"></path>
            <path d="M6,37 C6,37.552 6.448,38 7,38 C7.552,38 8,37.552 8,37 C8,36.448 7.552,36 7,36 C6.448,36 6,36.448 6,37" id="Fill-599" fill="#BDC3C7" sketch:type="MSShapeGroup"></path>
            <path d="M6,45 C6,45.552 6.448,46 7,46 C7.552,46 8,45.552 8,45 C8,44.448 7.552,44 7,44 C6.448,44 6,44.448 6,45" id="Fill-600" fill="#BDC3C7" sketch:type="MSShapeGroup"></path>
        </g>
    </g>
</svg>