<?xml version="1.0" encoding="UTF-8" standalone="no"?>
<svg width="56px" height="56px" viewBox="0 0 56 56" version="1.1" xmlns="http://www.w3.org/2000/svg" xmlns:xlink="http://www.w3.org/1999/xlink" xmlns:sketch="http://www.bohemiancoding.com/sketch/ns">
    <!-- Generator: Sketch 3.2.2 (9983) - http://www.bohemiancoding.com/sketch -->
    <title>7 - Waxing Gibbous Moon (Flat)</title>
    <desc>Created with Sketch.</desc>
    <defs></defs>
    <g id="Page-1" stroke="none" stroke-width="1" fill="none" fill-rule="evenodd" sketch:type="MSPage">
        <g id="7---Waxing-Gibbous-Moon-(Flat)" sketch:type="MSLayerGroup">
            <path d="M28,0 C23.511,0 19.283,1.08 15.524,2.959 C24.698,7.557 31,17.039 31,28 C31,38.96 24.698,48.443 15.524,53.041 C19.283,54.92 23.511,56 28,56 C43.464,56 56,43.464 56,28 C56,12.536 43.464,0 28,0" id="Fill-65" fill="#95A5A5" sketch:type="MSShapeGroup"></path>
            <path d="M15.5,2.946 C24.687,7.539 31,17.03 31,28 C31,38.97 24.687,48.461 15.5,53.054 C6.313,48.461 0,38.97 0,28 C0,17.03 6.313,7.539 15.5,2.946" id="Fill-601" fill="#BDC3C7" sketch:type="MSShapeGroup"></path>
            <path d="M30,9 C30,9.552 29.552,10 29,10 C28.448,10 28,9.552 28,9 C28,8.448 28.448,8 29,8 C29.552,8 30,8.448 30,9" id="Fill-602" fill="#BDC3C7" sketch:type="MSShapeGroup"></path>
            <path d="M30,1 C30,1.552 29.552,2 29,2 C28.448,2 28,1.552 28,1 C28,0.448 28.448,0 29,0 C29.552,0 30,0.448 30,1" id="Fill-603" fill="#BDC3C7" sketch:type="MSShapeGroup"></path>
            <path d="M26,5 C26,5.552 25.552,6 25,6 C24.448,6 24,5.552 24,5 C24,4.448 24.448,4 25,4 C25.552,4 26,4.448 26,5" id="Fill-604" fill="#BDC3C7" sketch:type="MSShapeGroup"></path>
            <path d="M30,41 C30,41.552 29.552,42 29,42 C28.448,42 28,41.552 28,41 C28,40.448 28.448,40 29,40 C29.552,40 30,40.448 30,41" id="Fill-605" fill="#BDC3C7" sketch:type="MSShapeGroup"></path>
            <path d="M30,49 C30,49.552 29.552,50 29,50 C28.448,50 28,49.552 28,49 C28,48.448 28.448,48 29,48 C29.552,48 30,48.448 30,49" id="Fill-606" fill="#BDC3C7" sketch:type="MSShapeGroup"></path>
            <path d="M26,53 C26,53.552 25.552,54 25,54 C24.448,54 24,53.552 24,53 C24,52.448 24.448,52 25,52 C25.552,52 26,52.448 26,53" id="Fill-607" fill="#BDC3C7" sketch:type="MSShapeGroup"></path>
            <path d="M38,9 C38,9.552 37.552,10 37,10 C36.448,10 36,9.552 36,9 C36,8.448 36.448,8 37,8 C37.552,8 38,8.448 38,9" id="Fill-608" fill="#BDC3C7" sketch:type="MSShapeGroup"></path>
            <path d="M46,9 C46,9.552 45.552,10 45,10 C44.448,10 44,9.552 44,9 C44,8.448 44.448,8 45,8 C45.552,8 46,8.448 46,9" id="Fill-609" fill="#BDC3C7" sketch:type="MSShapeGroup"></path>
            <path d="M34,13 C34,13.552 33.552,14 33,14 C32.448,14 32,13.552 32,13 C32,12.448 32.448,12 33,12 C33.552,12 34,12.448 34,13" id="Fill-610" fill="#BDC3C7" sketch:type="MSShapeGroup"></path>
            <path d="M42,13 C42,13.552 41.552,14 41,14 C40.448,14 40,13.552 40,13 C40,12.448 40.448,12 41,12 C41.552,12 42,12.448 42,13" id="Fill-611" fill="#BDC3C7" sketch:type="MSShapeGroup"></path>
            <path d="M34,5 C34,5.552 33.552,6 33,6 C32.448,6 32,5.552 32,5 C32,4.448 32.448,4 33,4 C33.552,4 34,4.448 34,5" id="Fill-612" fill="#BDC3C7" sketch:type="MSShapeGroup"></path>
            <path d="M42,5 C42,5.552 41.552,6 41,6 C40.448,6 40,5.552 40,5 C40,4.448 40.448,4 41,4 C41.552,4 42,4.448 42,5" id="Fill-613" fill="#BDC3C7" sketch:type="MSShapeGroup"></path>
            <path d="M38,17 C38,17.552 37.552,18 37,18 C36.448,18 36,17.552 36,17 C36,16.448 36.448,16 37,16 C37.552,16 38,16.448 38,17" id="Fill-614" fill="#BDC3C7" sketch:type="MSShapeGroup"></path>
            <path d="M46,17 C46,17.552 45.552,18 45,18 C44.448,18 44,17.552 44,17 C44,16.448 44.448,16 45,16 C45.552,16 46,16.448 46,17" id="Fill-615" fill="#BDC3C7" sketch:type="MSShapeGroup"></path>
            <path d="M34,21 C34,21.552 33.552,22 33,22 C32.448,22 32,21.552 32,21 C32,20.448 32.448,20 33,20 C33.552,20 34,20.448 34,21" id="Fill-616" fill="#BDC3C7" sketch:type="MSShapeGroup"></path>
            <path d="M42,21 C42,21.552 41.552,22 41,22 C40.448,22 40,21.552 40,21 C40,20.448 40.448,20 41,20 C41.552,20 42,20.448 42,21" id="Fill-617" fill="#BDC3C7" sketch:type="MSShapeGroup"></path>
            <path d="M38,25 C38,25.552 37.552,26 37,26 C36.448,26 36,25.552 36,25 C36,24.448 36.448,24 37,24 C37.552,24 38,24.448 38,25" id="Fill-618" fill="#BDC3C7" sketch:type="MSShapeGroup"></path>
            <path d="M46,25 C46,25.552 45.552,26 45,26 C44.448,26 44,25.552 44,25 C44,24.448 44.448,24 45,24 C45.552,24 46,24.448 46,25" id="Fill-619" fill="#BDC3C7" sketch:type="MSShapeGroup"></path>
            <path d="M34,29 C34,29.552 33.552,30 33,30 C32.448,30 32,29.552 32,29 C32,28.448 32.448,28 33,28 C33.552,28 34,28.448 34,29" id="Fill-620" fill="#BDC3C7" sketch:type="MSShapeGroup"></path>
            <path d="M42,29 C42,29.552 41.552,30 41,30 C40.448,30 40,29.552 40,29 C40,28.448 40.448,28 41,28 C41.552,28 42,28.448 42,29" id="Fill-621" fill="#BDC3C7" sketch:type="MSShapeGroup"></path>
            <path d="M38,33 C38,33.552 37.552,34 37,34 C36.448,34 36,33.552 36,33 C36,32.448 36.448,32 37,32 C37.552,32 38,32.448 38,33" id="Fill-622" fill="#BDC3C7" sketch:type="MSShapeGroup"></path>
            <path d="M46,33 C46,33.552 45.552,34 45,34 C44.448,34 44,33.552 44,33 C44,32.448 44.448,32 45,32 C45.552,32 46,32.448 46,33" id="Fill-623" fill="#BDC3C7" sketch:type="MSShapeGroup"></path>
            <path d="M34,37 C34,37.552 33.552,38 33,38 C32.448,38 32,37.552 32,37 C32,36.448 32.448,36 33,36 C33.552,36 34,36.448 34,37" id="Fill-624" fill="#BDC3C7" sketch:type="MSShapeGroup"></path>
            <path d="M42,37 C42,37.552 41.552,38 41,38 C40.448,38 40,37.552 40,37 C40,36.448 40.448,36 41,36 C41.552,36 42,36.448 42,37" id="Fill-625" fill="#BDC3C7" sketch:type="MSShapeGroup"></path>
            <path d="M38,41 C38,41.552 37.552,42 37,42 C36.448,42 36,41.552 36,41 C36,40.448 36.448,40 37,40 C37.552,40 38,40.448 38,41" id="Fill-626" fill="#BDC3C7" sketch:type="MSShapeGroup"></path>
            <path d="M46,41 C46,41.552 45.552,42 45,42 C44.448,42 44,41.552 44,41 C44,40.448 44.448,40 45,40 C45.552,40 46,40.448 46,41" id="Fill-627" fill="#BDC3C7" sketch:type="MSShapeGroup"></path>
            <path d="M34,45 C34,45.552 33.552,46 33,46 C32.448,46 32,45.552 32,45 C32,44.448 32.448,44 33,44 C33.552,44 34,44.448 34,45" id="Fill-628" fill="#BDC3C7" sketch:type="MSShapeGroup"></path>
            <path d="M42,45 C42,45.552 41.552,46 41,46 C40.448,46 40,45.552 40,45 C40,44.448 40.448,44 41,44 C41.552,44 42,44.448 42,45" id="Fill-629" fill="#BDC3C7" sketch:type="MSShapeGroup"></path>
            <path d="M38,49 C38,49.552 37.552,50 37,50 C36.448,50 36,49.552 36,49 C36,48.448 36.448,48 37,48 C37.552,48 38,48.448 38,49" id="Fill-630" fill="#BDC3C7" sketch:type="MSShapeGroup"></path>
            <path d="M46,49 C46,49.552 45.552,50 45,50 C44.448,50 44,49.552 44,49 C44,48.448 44.448,48 45,48 C45.552,48 46,48.448 46,49" id="Fill-631" fill="#BDC3C7" sketch:type="MSShapeGroup"></path>
            <path d="M34,53 C34,53.552 33.552,54 33,54 C32.448,54 32,53.552 32,53 C32,52.448 32.448,52 33,52 C33.552,52 34,52.448 34,53" id="Fill-632" fill="#BDC3C7" sketch:type="MSShapeGroup"></path>
            <path d="M50,13 C50,13.552 49.552,14 49,14 C48.448,14 48,13.552 48,13 C48,12.448 48.448,12 49,12 C49.552,12 50,12.448 50,13" id="Fill-633" fill="#BDC3C7" sketch:type="MSShapeGroup"></path>
            <path d="M50,21 C50,21.552 49.552,22 49,22 C48.448,22 48,21.552 48,21 C48,20.448 48.448,20 49,20 C49.552,20 50,20.448 50,21" id="Fill-634" fill="#BDC3C7" sketch:type="MSShapeGroup"></path>
            <path d="M54,25 C54,25.552 53.552,26 53,26 C52.448,26 52,25.552 52,25 C52,24.448 52.448,24 53,24 C53.552,24 54,24.448 54,25" id="Fill-635" fill="#BDC3C7" sketch:type="MSShapeGroup"></path>
            <path d="M50,29 C50,29.552 49.552,30 49,30 C48.448,30 48,29.552 48,29 C48,28.448 48.448,28 49,28 C49.552,28 50,28.448 50,29" id="Fill-636" fill="#BDC3C7" sketch:type="MSShapeGroup"></path>
            <path d="M54,33 C54,33.552 53.552,34 53,34 C52.448,34 52,33.552 52,33 C52,32.448 52.448,32 53,32 C53.552,32 54,32.448 54,33" id="Fill-637" fill="#BDC3C7" sketch:type="MSShapeGroup"></path>
            <path d="M50,37 C50,37.552 49.552,38 49,38 C48.448,38 48,37.552 48,37 C48,36.448 48.448,36 49,36 C49.552,36 50,36.448 50,37" id="Fill-638" fill="#BDC3C7" sketch:type="MSShapeGroup"></path>
            <path d="M50,45 C50,45.552 49.552,46 49,46 C48.448,46 48,45.552 48,45 C48,44.448 48.448,44 49,44 C49.552,44 50,44.448 50,45" id="Fill-639" fill="#BDC3C7" sketch:type="MSShapeGroup"></path>
        </g>
    </g>
</svg>