<?xml version="1.0" encoding="UTF-8" standalone="no"?>
<svg width="60px" height="54px" viewBox="0 0 60 54" version="1.1" xmlns="http://www.w3.org/2000/svg" xmlns:xlink="http://www.w3.org/1999/xlink" xmlns:sketch="http://www.bohemiancoding.com/sketch/ns">
    <!-- Generator: Sketch 3.2.2 (9983) - http://www.bohemiancoding.com/sketch -->
    <title>28 - Windy Storm (Flat)</title>
    <desc>Created with Sketch.</desc>
    <defs></defs>
    <g id="Page-1" stroke="none" stroke-width="1" fill="none" fill-rule="evenodd" sketch:type="MSPage">
        <g id="28---Windy-Storm-(Flat)" sketch:type="MSLayerGroup" transform="translate(-12.000000, 1.000000)">
            <path d="M25,12 C24.448,12 24,12.447 24,13 C24,16.955 19.688,20.023 15.977,20.023 L13,20.023 C12.448,20.023 12,20.47 12,21.023 C12,21.575 12.448,22.023 13,22.023 L15.977,22.023 C20.708,22.023 26,18.164 26,13 C26,12.447 25.552,12 25,12" id="Fill-2" fill="#ABC5D3" sketch:type="MSShapeGroup"></path>
            <path d="M16,16 L13,16 C12.448,16 12,16.447 12,17 C12,17.553 12.448,18 13,18 L16,18 C19.411,18 22.082,15.411 22.082,12.106 L22.082,11.023 C22.082,8.457 20.243,6.312 17.804,6.033 C17.135,5.954 16.469,6.014 15.82,6.205 C13.17,6.984 11.647,9.775 12.427,12.427 C12.583,12.957 13.139,13.265 13.668,13.104 C14.198,12.948 14.501,12.393 14.346,11.862 C13.877,10.27 14.792,8.592 16.385,8.123 C16.775,8.008 17.174,7.974 17.576,8.02 C18.981,8.181 20.082,9.5 20.082,11.023 L20.082,12.106 C20.082,14.326 18.328,16 16,16" id="Fill-3" fill="#ABC5D3" sketch:type="MSShapeGroup"></path>
            <path d="M21,24 L13,24 C12.448,24 12,24.447 12,25 C12,25.553 12.448,26 13,26 L21,26 C21.552,26 22,25.553 22,25 C22,24.447 21.552,24 21,24" id="Fill-4" fill="#ABC5D3" sketch:type="MSShapeGroup"></path>
            <path d="M15.977,28 L13,28 C12.448,28 12,28.447 12,29 C12,29.553 12.448,30 13,30 L15.977,30 C16.53,30 16.977,29.553 16.977,29 C16.977,28.447 16.53,28 15.977,28" id="Fill-5" fill="#ABC5D3" sketch:type="MSShapeGroup"></path>
            <path d="M34.968,34.824 L25.068,44.724" id="Stroke-6" stroke="#7F6E5D" stroke-width="2" stroke-linecap="round" sketch:type="MSShapeGroup"></path>
            <path d="M23.654,43.309 L19.411,47.552 C18.632,48.332 17.363,48.332 16.583,47.552 C16.045,47.014 15.878,46.243 16.083,45.56 C16.281,44.898 16.041,44.181 15.552,43.693 C14.45,42.59 12.58,43.122 12.191,44.631 C11.678,46.621 12.199,48.825 13.755,50.381 C16.094,52.72 19.9,52.72 22.24,50.381 L26.483,46.138 L23.654,43.309" id="Fill-7" fill="#CB8252" sketch:type="MSShapeGroup"></path>
            <path d="M26.483,40.481 L27.897,41.895" id="Stroke-8" stroke="#7F6E5D" stroke-width="2" stroke-linecap="round" sketch:type="MSShapeGroup"></path>
            <path d="M34.242,31.422 C34.242,31.422 22.764,14.93 35.347,0.795 C35.347,0.795 35.541,8.17 43.11,8.558 C43.11,8.558 32.787,23.368 34.242,31.422" id="Fill-10" fill="#556080" sketch:type="MSShapeGroup"></path>
            <path d="M35.966,32.527 C35.966,32.527 31.856,22.451 43.744,10.607 C43.744,10.607 44.009,17.103 50.815,17.678 L35.966,32.527" id="Fill-11" fill="#8697CB" sketch:type="MSShapeGroup"></path>
            <path d="M37.38,33.941 C37.38,33.941 47.456,38.051 59.301,26.163 C59.301,26.163 52.804,25.898 52.229,19.092 L37.38,33.941" id="Fill-9" fill="#556080" sketch:type="MSShapeGroup"></path>
            <path d="M40.68,36.446 C40.68,36.446 54.911,46.109 67.786,34.648 C67.786,34.648 61.068,34.472 60.715,27.577 C60.715,27.577 48.016,37.771 40.68,36.446" id="Fill-12" fill="#8697CB" sketch:type="MSShapeGroup"></path>
            <path d="M61.422,25.456 C60.938,30.629 64.734,34.425 69.907,33.941 M52.937,16.971 C52.453,22.144 56.248,25.939 61.422,25.456 M44.451,8.485 C43.968,13.659 47.763,17.454 52.937,16.971 M35.966,0 C35.483,5.174 39.278,8.969 44.451,8.485 M69.907,33.941 C60.535,43.314 45.339,43.314 35.966,33.941 C26.594,24.568 26.594,9.373 35.966,0 M61.422,25.456 C52.042,34.836 40.34,38.315 35.259,33.234 M44.451,8.485 C35.071,17.865 31.592,29.567 36.673,34.648 M52.937,16.971 L35.966,33.941 M61.422,25.456 L62.836,24.042 M69.907,33.941 L70.955,32.893 M44.451,8.485 L45.865,7.071 M52.937,16.971 L54.351,15.556" id="Stroke-13" stroke="#546A79" stroke-width="2" stroke-linecap="round" sketch:type="MSShapeGroup"></path>
        </g>
    </g>
</svg>