<?xml version="1.0" encoding="UTF-8" standalone="no"?>
<svg width="54px" height="56px" viewBox="0 0 54 56" version="1.1" xmlns="http://www.w3.org/2000/svg" xmlns:xlink="http://www.w3.org/1999/xlink" xmlns:sketch="http://www.bohemiancoding.com/sketch/ns">
    <!-- Generator: Sketch 3.2.2 (9983) - http://www.bohemiancoding.com/sketch -->
    <title>18 - Army Union Boots (Flat)</title>
    <desc>Created with Sketch.</desc>
    <defs></defs>
    <g id="Page-1" stroke="none" stroke-width="1" fill="none" fill-rule="evenodd" sketch:type="MSPage">
        <g id="18---Army-Union-Boots-(Flat)" sketch:type="MSLayerGroup">
            <path d="M49.277,56 L40,56 L40,48.882 C40,48.59 40.237,48.353 40.53,48.353 L52.552,48.353 C52.885,48.353 53.101,48.703 52.952,49 L51.59,54.382 C51.236,55.353 50.312,56 49.277,56" id="Fill-1" fill="#805333" sketch:type="MSShapeGroup"></path>
            <path d="M6.027,51.608 C5.922,51.608 5.816,51.592 5.711,51.557 L0.872,49.949 C0.348,49.775 0.065,49.209 0.238,48.685 C0.413,48.161 0.977,47.877 1.503,48.051 L6.342,49.659 C6.866,49.833 7.15,50.399 6.976,50.923 C6.836,51.343 6.446,51.608 6.027,51.608" id="Fill-2" fill="#E2CEB7" sketch:type="MSShapeGroup"></path>
            <path d="M47,5.069 L47,11 L39,11 L39,5 C34.582,5 31,8.582 31,13 L31,32.494 C27.999,40.762 25.745,47 17,47 C14.414,47 6.964,46.441 4.744,45.457 C4.393,45.301 4,45.545 4,45.929 L4,51 L16.987,55.396 C18.403,55.821 19.883,56 21.362,56 C27.836,56 32.235,54.001 34.033,51.803 C34.985,50.639 36.431,50 37.935,50 L51.116,50 C52.709,50 54,48.709 54,47.116 L54,13 C54,8.921 50.945,5.562 47,5.069" id="Fill-3" fill="#CBB292" sketch:type="MSShapeGroup"></path>
            <path d="M46,18 C46,19.657 44.657,21 43,21 C41.343,21 40,19.657 40,18 C40,16.343 41.343,15 43,15 C44.657,15 46,16.343 46,18" id="Fill-4" fill="#EDD9A6" sketch:type="MSShapeGroup"></path>
            <path d="M46,28 C46,29.657 44.657,31 43,31 C41.343,31 40,29.657 40,28 C40,26.343 41.343,25 43,25 C44.657,25 46,26.343 46,28" id="Fill-5" fill="#EDD9A6" sketch:type="MSShapeGroup"></path>
            <path d="M39,0 L47,0 L47,11 L39,11 L39,0 Z" id="Fill-6" fill="#856756" sketch:type="MSShapeGroup"></path>
            <path d="M51,29 C50.448,29 50,28.552 50,28 L50,27 C50,26.448 50.448,26 51,26 C51.552,26 52,26.448 52,27 L52,28 C52,28.552 51.552,29 51,29" id="Fill-7" fill="#E2CEB7" sketch:type="MSShapeGroup"></path>
            <path d="M51,25.231 C50.448,25.231 50,24.783 50,24.231 L50,22.385 C50,21.832 50.448,21.385 51,21.385 C51.552,21.385 52,21.832 52,22.385 L52,24.231 C52,24.783 51.552,25.231 51,25.231 L51,25.231 Z M51,20.616 C50.448,20.616 50,20.168 50,19.616 L50,17.77 C50,17.217 50.448,16.77 51,16.77 C51.552,16.77 52,17.217 52,17.77 L52,19.616 C52,20.168 51.552,20.616 51,20.616 L51,20.616 Z" id="Fill-8" fill="#E2CEB7" sketch:type="MSShapeGroup"></path>
            <path d="M51,16 C50.448,16 50,15.552 50,15 L50,14 C50,13.448 50.448,13 51,13 C51.552,13 52,13.448 52,14 L52,15 C52,15.552 51.552,16 51,16" id="Fill-9" fill="#E2CEB7" sketch:type="MSShapeGroup"></path>
            <path d="M34.093,48.95 C33.735,48.95 33.389,48.757 33.209,48.42 C32.95,47.932 33.134,47.327 33.622,47.067 C33.951,46.892 34.295,46.735 34.643,46.602 C35.158,46.406 35.737,46.663 35.934,47.179 C36.131,47.695 35.873,48.273 35.357,48.47 C35.085,48.575 34.819,48.695 34.562,48.832 C34.412,48.912 34.251,48.95 34.093,48.95" id="Fill-10" fill="#E2CEB7" sketch:type="MSShapeGroup"></path>
            <path d="M25.135,53.728 C24.65,53.728 24.224,53.374 24.148,52.879 C24.065,52.333 24.44,51.823 24.986,51.74 C25.656,51.637 26.303,51.502 26.909,51.339 C27.446,51.193 27.991,51.512 28.134,52.044 C28.278,52.578 27.962,53.127 27.429,53.27 C26.752,53.453 26.032,53.603 25.288,53.716 C25.237,53.725 25.185,53.728 25.135,53.728 L25.135,53.728 Z M30.064,52.172 C29.712,52.172 29.371,51.986 29.188,51.656 C28.92,51.173 29.096,50.565 29.579,50.297 C30.425,49.828 30.807,49.427 30.931,49.277 C31.284,48.852 31.914,48.793 32.339,49.144 C32.765,49.497 32.824,50.127 32.472,50.552 C32.043,51.07 31.377,51.587 30.547,52.047 C30.394,52.132 30.228,52.172 30.064,52.172 L30.064,52.172 Z" id="Fill-11" fill="#E2CEB7" sketch:type="MSShapeGroup"></path>
            <path d="M21.361,54 C20.843,54 20.334,53.975 19.849,53.925 C19.3,53.87 18.9,53.379 18.956,52.829 C19.012,52.28 19.498,51.873 20.052,51.936 C20.67,51.999 21.356,52.008 22,51.993 C22.576,51.934 23.011,52.415 23.024,52.967 C23.038,53.52 22.602,53.978 22.05,53.992 C21.824,53.998 21.595,54 21.361,54 L21.361,54 Z M16.918,53.246 C16.824,53.246 16.728,53.232 16.633,53.204 L14.642,52.612 C14.112,52.455 13.81,51.898 13.968,51.369 C14.125,50.839 14.682,50.537 15.211,50.695 L17.202,51.287 C17.732,51.444 18.033,52.001 17.876,52.53 C17.747,52.965 17.349,53.246 16.918,53.246 L16.918,53.246 Z M11.94,51.767 C11.846,51.767 11.75,51.753 11.655,51.725 L9.664,51.133 C9.135,50.976 8.834,50.419 8.991,49.889 C9.148,49.36 9.703,49.056 10.234,49.216 L12.225,49.808 C12.754,49.965 13.056,50.522 12.898,51.051 C12.77,51.485 12.372,51.767 11.94,51.767 L11.94,51.767 Z" id="Fill-12" fill="#E2CEB7" sketch:type="MSShapeGroup"></path>
            <path d="M6.959,50.286 C6.864,50.286 6.769,50.272 6.673,50.244 L5.715,49.959 C5.185,49.801 4.884,49.244 5.042,48.715 C5.2,48.185 5.757,47.887 6.285,48.042 L7.244,48.327 C7.773,48.484 8.074,49.041 7.917,49.57 C7.788,50.004 7.39,50.286 6.959,50.286" id="Fill-13" fill="#E2CEB7" sketch:type="MSShapeGroup"></path>
            <path d="M40.578,50 L44.192,50 L54,40.192 L54,29.347 L42.385,40.962 L31,29.578 L31,32.494 C30.255,34.547 29.555,36.475 28.791,38.213 L40.578,50" id="Fill-14" fill="#E2CEB7" sketch:type="MSShapeGroup"></path>
        </g>
    </g>
</svg>