<?xml version="1.0" encoding="UTF-8" standalone="no"?>
<svg width="31px" height="59px" viewBox="0 0 31 59" version="1.1" xmlns="http://www.w3.org/2000/svg" xmlns:xlink="http://www.w3.org/1999/xlink" xmlns:sketch="http://www.bohemiancoding.com/sketch/ns">
    <!-- Generator: Sketch 3.2.2 (9983) - http://www.bohemiancoding.com/sketch -->
    <title>16 - Arrow Head (Flat)</title>
    <desc>Created with Sketch.</desc>
    <defs></defs>
    <g id="Page-1" stroke="none" stroke-width="1" fill="none" fill-rule="evenodd" sketch:type="MSPage">
        <g id="16---Arrow-Head-(Flat)" sketch:type="MSLayerGroup">
            <path d="M3.998,36.964 C2.73,37.249 1.845,38.472 1.564,39.74 C1.282,41.009 1.487,42.329 1.692,43.612 C4.079,43.209 6.356,44.726 8.761,44.992 C10.265,45.158 11.772,44.829 13.276,44.662 C15.021,44.468 16.791,44.491 18.53,44.732 C19.922,44.924 21.338,45.255 22.714,44.971 C23.453,44.819 24.146,44.494 24.882,44.328 C25.711,44.142 26.582,44.16 27.392,43.903 C28.201,43.646 28.984,42.991 29,42.141 C29.016,41.262 28.241,40.593 27.891,39.786 C27.636,39.197 27.61,38.532 27.399,37.925 C27.188,37.319 26.679,36.724 26.037,36.756 C27.063,33.843 26.651,30.461 24.957,27.88 C24.841,27.704 24.717,27.522 24.695,27.313 C24.674,27.119 24.745,26.929 24.789,26.739 C25.146,25.191 23.746,23.747 23.724,22.159 C23.712,21.198 24.18,20.118 23.606,19.347 C23.404,19.074 23.094,18.89 22.919,18.599 C22.484,17.875 23.076,16.966 23.043,16.122 C23,15.012 21.921,14.262 21.397,13.283 C20.484,11.578 21.355,9.425 20.814,7.568 C20.357,5.999 18.806,5.14 18.296,3.587 C18.113,3.029 18.05,2.429 17.791,1.902 C17.532,1.374 16.988,0.915 16.409,1.013 C15.476,1.172 15.338,2.417 15,3.301 C14.675,4.15 14.15,4.52 13.558,5.211 C11.014,8.179 9.776,12.229 10.227,16.112 C10.28,16.566 10.331,17.095 10.003,17.414 C9.865,17.548 9.681,17.62 9.515,17.718 C8.615,18.251 8.395,19.453 8.424,20.499 C8.454,21.545 8.629,22.647 8.185,23.595 C7.97,24.055 7.623,24.438 7.333,24.855 C6.855,25.542 6.529,26.322 6.222,27.101 C5.04,30.094 4.075,33.173 3.337,36.306 L3.998,36.964" id="Fill-1" fill="#BDC3C7" sketch:type="MSShapeGroup"></path>
            <path d="M3.493,36.101 C0.279,37.703 0.258,40.633 0.728,43.878 C0.79,44.302 1.291,44.622 1.692,44.612 C4.106,44.549 6.181,45.496 8.496,45.956 C10.553,46.365 12.962,45.684 15.027,45.54 C17.129,45.395 19.239,45.876 21.327,46.078 C23.029,46.242 24.758,45.35 26.41,45.107 C27.689,44.918 30.637,43.822 29.964,41.876 C29.165,39.567 28.693,36.771 26.303,35.792 C26.536,36.202 26.768,36.612 27.001,37.022 C27.441,35.359 27.825,33.664 27.482,31.928 C27.302,31.019 25.621,27.809 25.753,27.005 C26.314,23.583 23.45,19.747 24.008,16.388 C24.178,15.362 23.472,14.463 22.911,13.703 C21.208,11.399 22.748,9.278 21.678,7.063 C20.67,4.976 19.337,0.013 16.409,0.013 C14.329,0.013 12.805,4.562 11.802,5.868 C10.564,7.48 9.934,9.539 9.448,11.473 C9.057,13.026 9.835,15.93 8.808,17.011 C8.096,17.76 7.567,18.314 7.494,19.432 C7.278,22.74 5.823,25.35 4.685,28.339 C3.729,30.848 1.039,35.428 3.29,37.671 C4.205,38.582 5.619,37.168 4.705,36.257 C3.573,35.129 6.991,27.827 7.577,26.448 C7.937,25.602 8.979,24.732 9.15,23.861 C9.448,22.343 9.071,19.173 10.507,18.277 C11.631,17.577 11.198,15.633 11.137,14.651 C10.963,11.86 12.113,9.187 13.529,6.877 C14.204,5.776 15.54,4.875 15.964,3.567 C16.56,1.728 18.185,5.551 17.977,5.148 C18.927,6.992 20.025,8.239 19.966,10.483 C19.888,13.43 21.701,15.673 21.919,18.599 C22.343,24.305 26.543,30.931 25.073,36.49 C24.921,37.065 25.263,37.512 25.771,37.72 C28.366,38.784 26.524,43.083 24.616,43.364 C21.827,43.775 19.594,43.834 16.783,43.564 C13.661,43.263 10.723,44.365 7.597,43.743 C6.17,43.46 4.819,42.889 3.379,42.611 C0.521,42.058 4.662,37.748 4.502,37.828 C5.657,37.252 4.643,35.527 3.493,36.101" id="Fill-2" fill="#E6E7E8" sketch:type="MSShapeGroup"></path>
            <path d="M26.459,35 L3.67,35 C2.38,35 2.38,37 3.67,37 L26.459,37 C27.749,37 27.749,35 26.459,35" id="Fill-3" fill="#EDD9A6" sketch:type="MSShapeGroup"></path>
            <path d="M20,59 L20,44.952 C19.509,44.883 19.018,44.799 18.53,44.732 C16.791,44.491 15.021,44.468 13.276,44.662 C12.851,44.709 12.426,44.768 12,44.826 L12,59 L20,59" id="Fill-4" fill="#805333" sketch:type="MSShapeGroup"></path>
            <path d="M28.001,44 C27.936,44 27.87,43.994 27.804,43.98 L2.804,38.981 C2.262,38.872 1.911,38.345 2.019,37.804 C2.127,37.263 2.653,36.91 3.196,37.019 L28.196,42.02 C28.738,42.128 29.089,42.655 28.981,43.196 C28.886,43.671 28.468,44 28.001,44" id="Fill-5" fill="#EDD9A6" sketch:type="MSShapeGroup"></path>
            <path d="M1.999,44 C1.532,44 1.114,43.671 1.019,43.196 C0.911,42.655 1.262,42.128 1.804,42.02 L26.804,37.019 C27.346,36.911 27.873,37.263 27.981,37.804 C28.089,38.345 27.738,38.872 27.196,38.981 L2.196,43.98 C2.13,43.994 2.064,44 1.999,44" id="Fill-6" fill="#EDD9A6" sketch:type="MSShapeGroup"></path>
            <path d="M20,54 C19.744,54 19.488,53.902 19.293,53.707 L11.293,45.707 C10.902,45.316 10.902,44.684 11.293,44.293 C11.684,43.902 12.316,43.902 12.707,44.293 L20.707,52.293 C21.098,52.684 21.098,53.316 20.707,53.707 C20.512,53.902 20.256,54 20,54" id="Fill-7" fill="#F0C419" sketch:type="MSShapeGroup"></path>
            <path d="M12,54 C11.744,54 11.488,53.902 11.293,53.707 C10.902,53.316 10.902,52.684 11.293,52.293 L19.293,44.293 C19.684,43.902 20.316,43.902 20.707,44.293 C21.098,44.684 21.098,45.316 20.707,45.707 L12.707,53.707 C12.512,53.902 12.256,54 12,54" id="Fill-8" fill="#F0C419" sketch:type="MSShapeGroup"></path>
        </g>
    </g>
</svg>