<?xml version="1.0" encoding="UTF-8" standalone="no"?>
<svg width="59px" height="59px" viewBox="0 0 59 59" version="1.1" xmlns="http://www.w3.org/2000/svg" xmlns:xlink="http://www.w3.org/1999/xlink" xmlns:sketch="http://www.bohemiancoding.com/sketch/ns">
    <!-- Generator: Sketch 3.2.2 (9983) - http://www.bohemiancoding.com/sketch -->
    <title>14 - Arrow (Flat)</title>
    <desc>Created with Sketch.</desc>
    <defs></defs>
    <g id="Page-1" stroke="none" stroke-width="1" fill="none" fill-rule="evenodd" sketch:type="MSPage">
        <g id="14---Arrow-(Flat)" sketch:type="MSLayerGroup" transform="translate(-1.000000, -1.000000)">
            <path d="M7,54.269 C6.744,54.269 6.488,54.171 6.293,53.976 C5.902,53.585 5.902,52.952 6.293,52.561 L57.293,1.561 C57.684,1.171 58.316,1.171 58.707,1.561 C59.098,1.952 59.098,2.585 58.707,2.976 L7.707,53.976 C7.512,54.171 7.256,54.269 7,54.269" id="Fill-1" fill="#7F6E5D" sketch:type="MSShapeGroup"></path>
            <path d="M11.331,48.938 L3.268,48.515 L6.097,45.686 L9.632,44.979 L8.925,42.858 L14.867,36.917 L22.929,37.34 L11.331,48.938" id="Fill-2" fill="#E6E7E8" sketch:type="MSShapeGroup"></path>
            <path d="M11.724,49.96 L0.974,49.396 L5.603,44.765 L8.326,44.221 L7.781,42.588 L14.474,35.895 L25.224,36.458 L11.724,49.96 L11.724,49.96 Z M5.563,47.634 L10.938,47.916 L20.634,38.22 L15.259,37.939 L10.07,43.128 L10.94,45.737 L6.59,46.608 L5.563,47.634 L5.563,47.634 Z" id="Fill-3" fill="#BDC3C7" sketch:type="MSShapeGroup"></path>
            <path d="M11.754,57 L11.331,48.938 L22.929,37.34 L23.352,45.402 L18.825,49.929 L16.704,49.222 L15.996,52.757 L11.754,57" id="Fill-4" fill="#E6E7E8" sketch:type="MSShapeGroup"></path>
            <path d="M10.873,59.295 L10.31,48.545 L23.81,35.044 L24.373,45.794 L19.096,51.073 L17.462,50.528 L16.917,53.25 L10.873,59.295 L10.873,59.295 Z M12.352,49.33 L12.635,54.705 L15.075,52.264 L15.946,47.915 L18.555,48.785 L22.33,45.01 L22.048,39.635 L12.352,49.33 L12.352,49.33 Z" id="Fill-5" fill="#BDC3C7" sketch:type="MSShapeGroup"></path>
            <path d="M7,54.269 L4.172,54.269 C3.619,54.269 3.172,53.821 3.172,53.269 C3.172,52.716 3.619,52.269 4.172,52.269 L7,52.269 C7.553,52.269 8,52.716 8,53.269 C8,53.821 7.553,54.269 7,54.269" id="Fill-6" fill="#7F6E5D" sketch:type="MSShapeGroup"></path>
            <path d="M7,57.009 C6.447,57.009 6,56.561 6,56.009 L6,53.18 C6,52.628 6.447,52.18 7,52.18 C7.553,52.18 8,52.628 8,53.18 L8,56.009 C8,56.561 7.553,57.009 7,57.009" id="Fill-7" fill="#7F6E5D" sketch:type="MSShapeGroup"></path>
            <path d="M19.109,42.269 L14.866,42.269 C14.313,42.269 13.866,41.821 13.866,41.269 C13.866,40.716 14.313,40.269 14.866,40.269 L19.109,40.269 C19.662,40.269 20.109,40.716 20.109,41.269 C20.109,41.821 19.662,42.269 19.109,42.269" id="Fill-8" fill="#BDC3C7" sketch:type="MSShapeGroup"></path>
            <path d="M19,46.402 C18.447,46.402 18,45.954 18,45.402 L18,41.159 C18,40.607 18.447,40.159 19,40.159 C19.553,40.159 20,40.607 20,41.159 L20,45.402 C20,45.954 19.553,46.402 19,46.402" id="Fill-9" fill="#BDC3C7" sketch:type="MSShapeGroup"></path>
            <path d="M58,2.269 L43.858,5.097 C49.2,6.878 53.391,11.069 55.172,16.411 L58,2.269" id="Fill-10" fill="#BDC3C7" sketch:type="MSShapeGroup"></path>
            <path d="M55.414,20.298 L54.224,16.727 C52.551,11.71 48.558,7.718 43.541,6.046 L39.969,4.855 L59.274,0.994 L55.414,20.298 L55.414,20.298 Z M47.178,5.453 C50.401,7.202 53.066,9.868 54.816,13.091 L56.726,3.543 L47.178,5.453 L47.178,5.453 Z" id="Fill-11" fill="#ECF0F1" sketch:type="MSShapeGroup"></path>
            <path d="M48,16.269 C47.744,16.269 47.488,16.171 47.293,15.976 L44.293,12.976 C43.902,12.585 43.902,11.952 44.293,11.562 C44.684,11.171 45.316,11.171 45.707,11.562 L48.707,14.562 C49.098,14.952 49.098,15.585 48.707,15.976 C48.512,16.171 48.256,16.269 48,16.269" id="Fill-12" fill="#F29C1F" sketch:type="MSShapeGroup"></path>
            <path d="M46,18.269 C45.744,18.269 45.488,18.171 45.293,17.976 L42.293,14.976 C41.902,14.585 41.902,13.952 42.293,13.561 C42.684,13.171 43.316,13.171 43.707,13.561 L46.707,16.561 C47.098,16.952 47.098,17.585 46.707,17.976 C46.512,18.171 46.256,18.269 46,18.269" id="Fill-13" fill="#F29C1F" sketch:type="MSShapeGroup"></path>
            <path d="M44,20.269 C43.744,20.269 43.488,20.171 43.293,19.976 L40.293,16.976 C39.902,16.585 39.902,15.952 40.293,15.562 C40.684,15.171 41.316,15.171 41.707,15.562 L44.707,18.562 C45.098,18.952 45.098,19.585 44.707,19.976 C44.512,20.171 44.256,20.269 44,20.269" id="Fill-14" fill="#F29C1F" sketch:type="MSShapeGroup"></path>
            <path d="M44,24.269 L38,31.769 C38,47.8 44,54.269 44,54.269 C44,54.269 50,47.8 50,31.769 L44,24.269" id="Fill-15" fill="#E6E7E8" sketch:type="MSShapeGroup"></path>
            <path d="M44,49.269 C43.447,49.269 43,48.821 43,48.269 L43,19.269 C43,18.716 43.447,18.269 44,18.269 C44.553,18.269 45,18.716 45,19.269 L45,48.269 C45,48.821 44.553,49.269 44,49.269" id="Fill-16" fill="#F29C1F" sketch:type="MSShapeGroup"></path>
            <path d="M42,33.269 C41.744,33.269 41.488,33.171 41.293,32.976 C40.902,32.585 40.902,31.952 41.293,31.561 L43.293,29.562 C43.684,29.171 44.316,29.171 44.707,29.562 C45.098,29.952 45.098,30.585 44.707,30.976 L42.707,32.976 C42.512,33.171 42.256,33.269 42,33.269" id="Fill-17" fill="#F29C1F" sketch:type="MSShapeGroup"></path>
            <path d="M46,33.269 C45.744,33.269 45.488,33.171 45.293,32.976 L43.293,30.976 C42.902,30.585 42.902,29.952 43.293,29.562 C43.684,29.171 44.316,29.171 44.707,29.562 L46.707,31.561 C47.098,31.952 47.098,32.585 46.707,32.976 C46.512,33.171 46.256,33.269 46,33.269" id="Fill-18" fill="#F29C1F" sketch:type="MSShapeGroup"></path>
            <path d="M42,38.269 C41.744,38.269 41.488,38.171 41.293,37.976 C40.902,37.585 40.902,36.952 41.293,36.562 L43.293,34.561 C43.684,34.171 44.316,34.171 44.707,34.561 C45.098,34.952 45.098,35.585 44.707,35.976 L42.707,37.976 C42.512,38.171 42.256,38.269 42,38.269" id="Fill-19" fill="#F29C1F" sketch:type="MSShapeGroup"></path>
            <path d="M46,38.269 C45.744,38.269 45.488,38.171 45.293,37.976 L43.293,35.976 C42.902,35.585 42.902,34.952 43.293,34.561 C43.684,34.171 44.316,34.171 44.707,34.561 L46.707,36.562 C47.098,36.952 47.098,37.585 46.707,37.976 C46.512,38.171 46.256,38.269 46,38.269" id="Fill-20" fill="#F29C1F" sketch:type="MSShapeGroup"></path>
        </g>
    </g>
</svg>