<?xml version="1.0" encoding="UTF-8" standalone="no"?>
<svg width="58px" height="58px" viewBox="0 0 58 58" version="1.1" xmlns="http://www.w3.org/2000/svg" xmlns:xlink="http://www.w3.org/1999/xlink" xmlns:sketch="http://www.bohemiancoding.com/sketch/ns">
    <!-- Generator: Sketch 3.2.2 (9983) - http://www.bohemiancoding.com/sketch -->
    <title>24 - Bullets (Flat)</title>
    <desc>Created with Sketch.</desc>
    <defs></defs>
    <g id="Page-1" stroke="none" stroke-width="1" fill="none" fill-rule="evenodd" sketch:type="MSPage">
        <g id="24---Bullets-(Flat)" sketch:type="MSLayerGroup" transform="translate(0.000000, 1.000000)">
            <path d="M14.972,56 L2.972,56 L2.972,36 C2.972,32.686 5.658,27 8.972,27 C12.286,27 14.972,32.686 14.972,36 L14.972,56" id="Fill-1" fill="#E9CA8B" sketch:type="MSShapeGroup"></path>
            <path d="M2.972,39 L14.972,39 L14.972,52 L2.972,52 L2.972,39 Z" id="Fill-2" fill="#F1DDB7" sketch:type="MSShapeGroup"></path>
            <path d="M0.972,56 L16.972,56" id="Stroke-3" stroke="#F0C419" stroke-width="2" stroke-linecap="round" sketch:type="MSShapeGroup"></path>
            <path d="M34.972,56 L22.972,56 L22.972,36 C22.972,32.686 25.658,27 28.972,27 C32.286,27 34.972,32.686 34.972,36 L34.972,56" id="Fill-4" fill="#E9CA8B" sketch:type="MSShapeGroup"></path>
            <path d="M22.972,39 L34.972,39 L34.972,52 L22.972,52 L22.972,39 Z" id="Fill-5" fill="#F1DDB7" sketch:type="MSShapeGroup"></path>
            <path d="M20.972,56 L36.972,56" id="Stroke-6" stroke="#F0C419" stroke-width="2" stroke-linecap="round" sketch:type="MSShapeGroup"></path>
            <path d="M54.972,56 L42.972,56 L42.972,36 C42.972,32.686 45.658,27 48.972,27 C52.286,27 54.972,32.686 54.972,36 L54.972,56" id="Fill-7" fill="#E9CA8B" sketch:type="MSShapeGroup"></path>
            <path d="M42.972,39 L54.972,39 L54.972,52 L42.972,52 L42.972,39 Z" id="Fill-8" fill="#F1DDB7" sketch:type="MSShapeGroup"></path>
            <path d="M40.972,56 L56.972,56" id="Stroke-9" stroke="#F0C419" stroke-width="2" stroke-linecap="round" sketch:type="MSShapeGroup"></path>
            <path d="M12.972,0 L24.972,0 L24.972,20 C24.972,23.314 22.286,29 18.972,29 C15.658,29 12.972,23.314 12.972,20 L12.972,0" id="Fill-10" fill="#E9CA8B" sketch:type="MSShapeGroup"></path>
            <path d="M12.972,4 L24.972,4 L24.972,17 L12.972,17 L12.972,4 Z" id="Fill-11" fill="#F1DDB7" sketch:type="MSShapeGroup"></path>
            <path d="M26.972,0 L10.972,0" id="Stroke-12" stroke="#F0C419" stroke-width="2" stroke-linecap="round" sketch:type="MSShapeGroup"></path>
            <path d="M32.972,0 L44.972,0 L44.972,20 C44.972,23.314 42.286,29 38.972,29 C35.658,29 32.972,23.314 32.972,20 L32.972,0" id="Fill-13" fill="#E9CA8B" sketch:type="MSShapeGroup"></path>
            <path d="M32.972,4 L44.972,4 L44.972,17 L32.972,17 L32.972,4 Z" id="Fill-14" fill="#F1DDB7" sketch:type="MSShapeGroup"></path>
            <path d="M46.972,0 L30.972,0" id="Stroke-15" stroke="#F0C419" stroke-width="2" stroke-linecap="round" sketch:type="MSShapeGroup"></path>
        </g>
    </g>
</svg>