<?xml version="1.0" encoding="UTF-8" standalone="no"?>
<svg width="57px" height="59px" viewBox="0 0 57 59" version="1.1" xmlns="http://www.w3.org/2000/svg" xmlns:xlink="http://www.w3.org/1999/xlink" xmlns:sketch="http://www.bohemiancoding.com/sketch/ns">
    <!-- Generator: Sketch 3.2.2 (9983) - http://www.bohemiancoding.com/sketch -->
    <title>29 - Cactus (Flat)</title>
    <desc>Created with Sketch.</desc>
    <defs></defs>
    <g id="Page-1" stroke="none" stroke-width="1" fill="none" fill-rule="evenodd" sketch:type="MSPage">
        <g id="29---Cactus-(Flat)" sketch:type="MSLayerGroup" transform="translate(1.000000, 0.000000)">
            <path d="M31,58 L31,34 C31,32.343 32.343,31 34,31 C44.318,31 52.741,22.733 52.994,12.475 C53.054,10.049 52.117,7.661 50.191,6.184 C45.617,2.676 41,7.666 41,12 C41,15.859 37.86,19 34,19 L33.804,19 C32.256,19 31,17.744 31,16.195 L31,6.209 C31,3.159 28.814,0.439 25.789,0.051 C22.13,-0.419 19,2.432 19,6 L19,35.284 C19,35.614 18.696,35.877 18.375,35.801 C15.284,35.063 12.98,32.275 13,28.957 C13.01,27.319 12.581,25.685 11.51,24.446 C6.552,18.706 1,24.248 1,29 C1,38.419 7.895,46.239 16.901,47.722 C18.099,47.92 19,48.914 19,50.128 L19,58 L31,58" id="Fill-1" fill="#A4E869" sketch:type="MSShapeGroup"></path>
            <path d="M23,15 L23,6 M23,41 L23,19 M27,44 L27,52 M27,9 L27,37 M17.085,39 C12.989,39 9,34.096 9,30 M5,29 C5,36.168 11.019,43 18.187,43 M23,6 C23,4.895 23.894,4 25,4 M23,46 L23,55 M5,29 C5,27.894 5.894,26 7,26 M36,23 C40.411,23 45,19.411 45,15 L45,11 C45,9.894 45.895,9 47,9 M49,12 L49,13 C49,20.72 42.532,27 34.813,27 L32.187,27" id="Stroke-2" stroke="#4FBA6F" stroke-width="2" stroke-linecap="round" sketch:type="MSShapeGroup"></path>
            <path d="M0,58 L55,58" id="Stroke-3" stroke="#F9EBB0" stroke-width="2" stroke-linecap="round" sketch:type="MSShapeGroup"></path>
            <path d="M31,10 L34,7 M31,14 L34,11 M31,5 L33,3 M19,31 L16,28 M19,27 L16,24 M19,23 L16,20 M19,19 L16,16 M19,15 L16,12 M31,38 L34,35 M31,42 L34,39 M31,46 L34,43 M31,50 L34,47 M31,54 L34,51 M31,58 L34,55 M19,54 L16,51 M19,58 L16,55" id="Stroke-4" stroke="#A4E869" stroke-width="2" stroke-linecap="round" sketch:type="MSShapeGroup"></path>
        </g>
    </g>
</svg>