<?xml version="1.0" encoding="UTF-8" standalone="no"?>
<svg width="54px" height="56px" viewBox="0 0 54 56" version="1.1" xmlns="http://www.w3.org/2000/svg" xmlns:xlink="http://www.w3.org/1999/xlink" xmlns:sketch="http://www.bohemiancoding.com/sketch/ns">
    <!-- Generator: Sketch 3.2.2 (9983) - http://www.bohemiancoding.com/sketch -->
    <title>19 - Cowboy Boots (Flat)</title>
    <desc>Created with Sketch.</desc>
    <defs></defs>
    <g id="Page-1" stroke="none" stroke-width="1" fill="none" fill-rule="evenodd" sketch:type="MSPage">
        <g id="19---Cowboy-Boots-(Flat)" sketch:type="MSLayerGroup">
            <path d="M49.277,56 L40,56 L40,48.53 C40,48.237 40.237,48 40.53,48 L52.552,48 C52.885,48 53.101,48.35 52.952,48.648 L51.59,54.382 C51.236,55.353 50.312,56 49.277,56" id="Fill-1" fill="#7F5B53" sketch:type="MSShapeGroup"></path>
            <path d="M50.489,5 L45,5 L45,4.17 C45,2.545 43.784,1.089 42.161,1.004 C40.431,0.914 39,2.29 39,4 L39,5 L34.511,5 C32.572,5 31,6.572 31,8.511 L31,32.494 C27.999,40.762 25.745,47 17,47 C14.414,47 6.964,46.441 4.744,45.457 C4.393,45.301 4,45.546 4,45.929 L4,51 L16.987,55.396 C18.403,55.821 19.883,56 21.362,56 C27.836,56 32.235,54.001 34.033,51.803 C34.985,50.639 36.431,50 37.935,50 L51.116,50 C52.709,50 54,48.709 54,47.116 L54,8.511 C54,6.572 52.428,5 50.489,5" id="Fill-2" fill="#805333" sketch:type="MSShapeGroup"></path>
            <path d="M31,10 L39,10 L39,14 L31,14 L31,10 Z" id="Fill-3" fill="#CB8252" sketch:type="MSShapeGroup"></path>
            <path d="M45,10 L54,10 L54,14 L45,14 L45,10 Z" id="Fill-4" fill="#CB8252" sketch:type="MSShapeGroup"></path>
            <path d="M28,40 L31,43" id="Fill-5" fill="#D0E8F9" sketch:type="MSShapeGroup"></path>
            <path d="M31,44 C30.744,44 30.488,43.902 30.293,43.707 L27.293,40.707 C26.902,40.316 26.902,39.684 27.293,39.293 C27.684,38.902 28.316,38.902 28.707,39.293 L31.707,42.293 C32.098,42.684 32.098,43.316 31.707,43.707 C31.512,43.902 31.256,44 31,44" id="Fill-6" fill="#CBB292" sketch:type="MSShapeGroup"></path>
            <path d="M26,43 L28,45" id="Fill-7" fill="#D0E8F9" sketch:type="MSShapeGroup"></path>
            <path d="M28,46 C27.744,46 27.488,45.902 27.293,45.707 L25.293,43.707 C24.902,43.316 24.902,42.684 25.293,42.293 C25.684,41.902 26.316,41.902 26.707,42.293 L28.707,44.293 C29.098,44.684 29.098,45.316 28.707,45.707 C28.512,45.902 28.256,46 28,46" id="Fill-8" fill="#CBB292" sketch:type="MSShapeGroup"></path>
            <path d="M22.466,56 C21.117,56 19.856,55.83 18.718,55.496 L19.282,53.577 C20.237,53.857 21.308,54 22.466,54 C28.241,54 31.249,52.222 32.032,51.282 C33.77,49.196 36.325,48 39.041,48 L52,48 L52,47 L54,47 L54,48.234 C54,49.208 53.208,50 52.234,50 L39.041,50 C36.92,50 34.925,50.934 33.569,52.563 C32.247,54.148 28.546,56 22.466,56" id="Fill-9" fill="#CB8252" sketch:type="MSShapeGroup"></path>
            <path d="M32,40 C31.744,40 31.488,39.902 31.293,39.707 L29.293,37.707 C28.902,37.316 28.902,36.684 29.293,36.293 C29.684,35.902 30.316,35.902 30.707,36.293 L32.707,38.293 C33.098,38.684 33.098,39.316 32.707,39.707 C32.512,39.902 32.256,40 32,40" id="Fill-10" fill="#CBB292" sketch:type="MSShapeGroup"></path>
            <path d="M54,20.84 L47.502,26.787 C47.077,27.118 46.644,26.949 46.522,26.889 C46.399,26.829 46,26.592 46,26.053 L46,4.169 C46,1.946 44.337,0.117 42.213,0.006 C41.103,-0.05 40.051,0.335 39.247,1.098 C38.455,1.85 38,2.908 38,4 L38,25.603 C38,26.184 37.557,26.409 37.421,26.465 C37.284,26.52 36.809,26.668 36.4,26.25 L31,20.787 L31,23.632 L34.974,27.652 C35.81,28.507 37.066,28.767 38.176,28.317 C39.284,27.865 40,26.8 40,25.603 L40,4 C40,3.446 40.222,2.93 40.624,2.549 C41.025,2.168 41.548,1.975 42.109,2.003 C43.152,2.058 44,3.029 44,4.169 L44,26.053 C44,27.181 44.629,28.19 45.643,28.685 C46.049,28.884 46.482,28.983 46.917,28.983 C47.567,28.983 48.22,28.761 48.791,28.315 L54,23.548 L54,20.84" id="Fill-11" fill="#CB8252" sketch:type="MSShapeGroup"></path>
            <path d="M4,48.88 L1.503,48.051 C0.977,47.877 0.413,48.161 0.238,48.685 C0.065,49.209 0.348,49.775 0.872,49.949 L4,50.989 L4,48.88" id="Fill-12" fill="#805333" sketch:type="MSShapeGroup"></path>
        </g>
    </g>
</svg>