<?xml version="1.0" encoding="UTF-8" standalone="no"?>
<svg width="58px" height="52px" viewBox="0 0 58 52" version="1.1" xmlns="http://www.w3.org/2000/svg" xmlns:xlink="http://www.w3.org/1999/xlink" xmlns:sketch="http://www.bohemiancoding.com/sketch/ns">
    <!-- Generator: Sketch 3.2.2 (9983) - http://www.bohemiancoding.com/sketch -->
    <title>21 - Dillinger (Flat)</title>
    <desc>Created with Sketch.</desc>
    <defs></defs>
    <g id="Page-1" stroke="none" stroke-width="1" fill="none" fill-rule="evenodd" sketch:type="MSPage">
        <g id="21---Dillinger-(Flat)" sketch:type="MSLayerGroup" transform="translate(1.000000, 1.000000)">
            <path d="M31.786,22 C31.485,22.84 30.825,23.504 29.988,23.81 L29.988,24.189 C31.142,24.607 31.971,25.702 31.971,27 L31.971,31 L34.988,31 L34.988,22 L31.786,22" id="Fill-1" fill="#E6E6E6" sketch:type="MSShapeGroup"></path>
            <path d="M1.971,27.403 L1.971,29.29 C3.599,24.303 6.983,19.948 10.021,16.8 L11.971,9 C11.971,7.895 11.076,7 9.971,7 L3.971,7 C2.867,7 1.971,7.895 1.971,9 L1.971,9.004 C1.971,10.108 2.867,11.002 3.971,11 C5.075,10.998 5.971,11.892 5.971,12.996 L5.971,16 C3.382,19.237 1.971,23.258 1.971,27.403 L1.971,27.403 Z" id="Fill-2" fill="#D1D4D1" sketch:type="MSShapeGroup"></path>
            <path d="M1.971,27.403 L1.971,29.29 C3.599,24.303 6.983,19.948 10.021,16.8 L11.971,9 C11.971,7.895 11.076,7 9.971,7 L3.971,7 C2.867,7 1.971,7.895 1.971,9 L1.971,9.004 C1.971,10.108 2.867,11.002 3.971,11 C5.075,10.998 5.971,11.892 5.971,12.996 L5.971,16 C3.382,19.237 1.971,23.258 1.971,27.403 L1.971,27.403 Z" id="Stroke-3" stroke="#E6E7E8" stroke-width="2" sketch:type="MSShapeGroup"></path>
            <path d="M52.988,6 L42.988,6 L51.151,0.558 C51.638,0.234 52.286,0.298 52.699,0.711 C54.03,2.042 54.237,4.127 53.193,5.693 L52.988,6 L52.988,6 Z" id="Fill-4" fill="#E6E7E8" sketch:type="MSShapeGroup"></path>
            <path d="M52.988,6 L42.988,6 L51.151,0.558 C51.638,0.234 52.286,0.298 52.699,0.711 C54.03,2.042 54.237,4.127 53.193,5.693 L52.988,6 L52.988,6 Z" id="Stroke-5" stroke="#D1D4D1" stroke-width="2" sketch:type="MSShapeGroup"></path>
            <path d="M28.971,24 L21.971,24 C21.971,25.657 20.628,27 18.971,27 C17.314,27 15.971,25.657 15.971,24 C15.971,23.893 15.992,23.792 16.002,23.689 C15.387,23.317 14.971,22.648 14.971,21.876 L14.971,12.305 C10.896,15.518 -4.018,28.558 2.704,42.545 C7.829,52.67 16.704,49.545 16.704,49.545 C16.704,49.545 22.829,49.045 18.704,40.545 C18.704,40.545 14.579,32.92 20.704,29.545 C23.332,27.987 26.718,31.556 28.088,33.213 C28.615,33.85 29.47,34.138 30.304,33.937 C31.311,33.693 31.971,32.718 31.971,31.683 L31.971,27 C31.971,25.343 30.628,24 28.971,24 L28.971,24 Z" id="Fill-6" fill="#D1D4D1" sketch:type="MSShapeGroup"></path>
            <path d="M28.971,24 L21.971,24 C21.971,25.657 20.628,27 18.971,27 C17.314,27 15.971,25.657 15.971,24 C15.971,23.893 15.992,23.792 16.002,23.689 C15.387,23.317 14.971,22.648 14.971,21.876 L14.971,12.305 C10.896,15.518 -4.018,28.558 2.704,42.545 C7.829,52.67 16.704,49.545 16.704,49.545 C16.704,49.545 22.829,49.045 18.704,40.545 C18.704,40.545 14.579,32.92 20.704,29.545 C23.332,27.987 26.718,31.556 28.088,33.213 C28.615,33.85 29.47,34.138 30.304,33.937 C31.311,33.693 31.971,32.718 31.971,31.683 L31.971,27 C31.971,25.343 30.628,24 28.971,24 L28.971,24 Z" id="Stroke-7" stroke="#E6E6E6" stroke-width="2" stroke-linecap="round" sketch:type="MSShapeGroup"></path>
            <path d="M54.343,6 L26.171,6 C24.647,6 23.28,6.132 21.959,6.966 C18.974,8.848 18.018,12.721 20.288,15.543 C21.217,16.698 22.55,17.594 24.011,17.898 C25.03,18.11 26.159,18 27.197,18 C28.024,18 28.967,17.887 29.766,18.108 C31.427,18.567 32.367,20.38 31.786,22 L46.019,22 L53.48,22 C54.47,22 54.615,21.894 55.217,20.874 C56.406,18.862 56.209,16.241 54.732,14.43 C54.339,13.949 54.339,14.051 54.732,13.57 C54.969,13.279 55.178,12.964 55.353,12.631 C55.735,11.903 55.954,11.092 55.994,10.271 C56.069,8.688 55.464,7.121 54.343,6 L54.343,6 Z" id="Fill-8" fill="#E6E7E8" sketch:type="MSShapeGroup"></path>
            <path d="M54.343,6 L26.171,6 C24.647,6 23.28,6.132 21.959,6.966 C18.974,8.848 18.018,12.721 20.288,15.543 C21.217,16.698 22.55,17.594 24.011,17.898 C25.03,18.11 26.159,18 27.197,18 C28.024,18 28.967,17.887 29.766,18.108 C31.427,18.567 32.367,20.38 31.786,22 L46.019,22 L53.48,22 C54.47,22 54.615,21.894 55.217,20.874 C56.406,18.862 56.209,16.241 54.732,14.43 C54.339,13.949 54.339,14.051 54.732,13.57 C54.969,13.279 55.178,12.964 55.353,12.631 C55.735,11.903 55.954,11.092 55.994,10.271 C56.069,8.688 55.464,7.121 54.343,6 L54.343,6 Z" id="Stroke-9" stroke="#D1D4D1" stroke-width="2" sketch:type="MSShapeGroup"></path>
            <path d="M54,14 L19.971,14" id="Fill-10" fill="#ECF0F1" sketch:type="MSShapeGroup"></path>
            <path d="M54,14 L19.971,14" id="Stroke-11" stroke="#D1D4D1" stroke-width="2" stroke-linecap="round" sketch:type="MSShapeGroup"></path>
            <path d="M8.971,44 C4.883,40.997 3.956,34.947 5.555,30.431 C6.259,28.44 7.212,25.173 9.507,24.526 C11.469,23.973 13.3,25.364 13.962,27.154 C15.618,31.627 9.95,35.823 13.868,40.09 C15.066,41.395 17.188,44.239 14.915,45.584 C12.911,46.77 10.579,45.181 8.971,44 L8.971,44 Z" id="Fill-12" fill="#805333" sketch:type="MSShapeGroup"></path>
            <path d="M8.971,44 C4.883,40.997 3.956,34.947 5.555,30.431 C6.259,28.44 7.212,25.173 9.507,24.526 C11.469,23.973 13.3,25.364 13.962,27.154 C15.618,31.627 9.95,35.823 13.868,40.09 C15.066,41.395 17.188,44.239 14.915,45.584 C12.911,46.77 10.579,45.181 8.971,44 L8.971,44 Z" id="Stroke-13" stroke="#805333" stroke-width="2" stroke-linecap="round" sketch:type="MSShapeGroup"></path>
            <path d="M28.971,18 L25.773,18 L24.971,18 C22.21,18 18.971,15.314 18.971,12 C18.971,9.047 21.543,6.597 24.058,6.098 C23.42,4.504 22.893,3.275 22.677,2.986 C21.777,1.786 20.022,1.661 18.961,2.722 L14.971,6.712 L14.971,21.876 C14.971,22.648 15.387,23.317 16.003,23.689 C16.162,22.186 17.428,21 18.971,21 C20.621,21 21.971,22.35 21.971,24 L24.967,24 L24.969,24 L24.971,24 L28.971,24 C30.621,24 31.971,22.65 31.971,21 C31.971,19.35 30.621,18 28.971,18 L28.971,18 Z" id="Fill-14" fill="#D1D4D1" sketch:type="MSShapeGroup"></path>
            <path d="M28.971,18 L25.773,18 L24.971,18 C22.21,18 18.971,15.314 18.971,12 C18.971,9.047 21.543,6.597 24.058,6.098 C23.42,4.504 22.893,3.275 22.677,2.986 C21.777,1.786 20.022,1.661 18.961,2.722 L14.971,6.712 L14.971,21.876 C14.971,22.648 15.387,23.317 16.003,23.689 C16.162,22.186 17.428,21 18.971,21 C20.621,21 21.971,22.35 21.971,24 L24.967,24 L24.969,24 L24.971,24 L28.971,24 C30.621,24 31.971,22.65 31.971,21 C31.971,19.35 30.621,18 28.971,18 L28.971,18 Z" id="Stroke-15" stroke="#E6E6E6" stroke-width="2" stroke-linecap="round" sketch:type="MSShapeGroup"></path>
            <path d="M11.971,30 C11.971,31.105 11.076,32 9.971,32 C8.867,32 7.971,31.105 7.971,30 C7.971,28.895 8.867,28 9.971,28 C11.076,28 11.971,28.895 11.971,30" id="Fill-16" fill="#ECF0F1" sketch:type="MSShapeGroup"></path>
            <path d="M22,24 C22,25.657 20.657,27 19,27 C17.343,27 16,25.657 16,24 C16,22.343 17.343,21 19,21 C20.657,21 22,22.343 22,24 L22,24 Z" id="Fill-17" fill="#D1D4D1" sketch:type="MSShapeGroup"></path>
            <path d="M22,24 C22,25.657 20.657,27 19,27 C17.343,27 16,25.657 16,24 C16,22.343 17.343,21 19,21 C20.657,21 22,22.343 22,24 L22,24 Z" id="Stroke-18" stroke="#E6E6E6" stroke-width="2" stroke-linecap="round" sketch:type="MSShapeGroup"></path>
        </g>
    </g>
</svg>