<?xml version="1.0" encoding="UTF-8" standalone="no"?>
<svg width="34px" height="54px" viewBox="0 0 34 54" version="1.1" xmlns="http://www.w3.org/2000/svg" xmlns:xlink="http://www.w3.org/1999/xlink" xmlns:sketch="http://www.bohemiancoding.com/sketch/ns">
    <!-- Generator: Sketch 3.2.2 (9983) - http://www.bohemiancoding.com/sketch -->
    <title>8 - Flask (Flat)</title>
    <desc>Created with Sketch.</desc>
    <defs></defs>
    <g id="Page-1" stroke="none" stroke-width="1" fill="none" fill-rule="evenodd" sketch:type="MSPage">
        <g id="8---Flask-(Flat)" sketch:type="MSLayerGroup">
            <path d="M31.864,54 L2.136,54 C0.956,54 0,53.044 0,51.864 L0,16.136 C0,14.956 0.956,14 2.136,14 L31.864,14 C33.044,14 34,14.956 34,16.136 L34,51.864 C34,53.044 33.044,54 31.864,54" id="Fill-1" fill="#B4ABAC" sketch:type="MSShapeGroup"></path>
            <path d="M11,0 L23,0 L23,4 L11,4 L11,0 Z" id="Fill-2" fill="#9B9495" sketch:type="MSShapeGroup"></path>
            <path d="M10,11 L24,11 L24,14 L10,14 L10,11 Z" id="Fill-3" fill="#9B9495" sketch:type="MSShapeGroup"></path>
            <path d="M13,4 L21,4 L21,11 L13,11 L13,4 Z" id="Fill-4" fill="#B4ABAC" sketch:type="MSShapeGroup"></path>
            <path d="M12.414,4 L11,4 L11,2.586 L4.293,9.293 C4.201,9.385 4.128,9.496 4.077,9.618 C4.027,9.74 4,9.87 4,10 L4,14 L6,14 L6,10.414 L12.414,4" id="Fill-5" fill="#9B9495" sketch:type="MSShapeGroup"></path>
            <path d="M26,14 L30,14 L30,53.94 L26,53.94 L26,14 Z" id="Fill-6" fill="#D8D0D0" sketch:type="MSShapeGroup"></path>
        </g>
    </g>
</svg>