<?xml version="1.0" encoding="UTF-8" standalone="no"?>
<svg width="60px" height="60px" viewBox="0 0 60 60" version="1.1" xmlns="http://www.w3.org/2000/svg" xmlns:xlink="http://www.w3.org/1999/xlink" xmlns:sketch="http://www.bohemiancoding.com/sketch/ns">
    <!-- Generator: Sketch 3.2.2 (9983) - http://www.bohemiancoding.com/sketch -->
    <title>23 - Horseshoe (Flat)</title>
    <desc>Created with Sketch.</desc>
    <defs></defs>
    <g id="Page-1" stroke="none" stroke-width="1" fill="none" fill-rule="evenodd" sketch:type="MSPage">
        <g id="23---Horseshoe-(Flat)" sketch:type="MSLayerGroup" transform="translate(0.000000, 1.000000)">
            <path d="M58.432,19.432 C57.968,15.854 57.28,12.598 56.633,10 L58.787,8.18 C58.917,8.07 58.974,7.895 58.932,7.729 L57,0 L49.769,0 L49.189,0 C48.536,0 47.873,0.104 47.222,0.324 C44.079,1.385 42.411,4.733 43.495,7.804 C45.691,14.063 49.989,32.206 43.608,40.935 C41.001,44.499 36.636,46.232 30.26,46.232 L29.74,46.232 C23.358,46.232 18.989,44.496 16.384,40.924 C10.013,32.187 14.448,13.622 16.504,7.806 C17.59,4.736 15.922,1.386 12.778,0.324 C11.986,0.057 11.176,-0.039 10.389,0.016 C10.335,0.014 10.285,0 10.231,0 L3,0 L1.068,7.729 C1.026,7.895 1.083,8.07 1.213,8.18 L3.367,10 C2.719,12.598 2.032,15.854 1.568,19.432 C-0.001,31.518 1.684,41.047 6.574,47.752 C9.984,52.427 16.771,58 29.74,58 L30.26,58 C37.418,58 47.248,56.222 53.426,47.752 C58.316,41.047 60.001,31.518 58.432,19.432 L58.432,19.432 Z M9.5,5 C10.881,5 12,6.119 12,7.5 C12,8.881 10.881,10 9.5,10 C8.119,10 7,8.881 7,7.5 C7,6.119 8.119,5 9.5,5 L9.5,5 Z M7.5,17 C8.881,17 10,18.119 10,19.5 C10,20.881 8.881,22 7.5,22 C6.119,22 5,20.881 5,19.5 C5,18.119 6.119,17 7.5,17 L7.5,17 Z M12.6,45.899 C12.244,46.158 11.831,46.283 11.423,46.283 C10.806,46.283 10.196,45.999 9.805,45.462 C6.713,41.223 5.098,35.693 5.004,29.029 C4.988,27.925 5.871,27.017 6.976,27.001 C8.032,27.002 8.988,27.868 9.004,28.973 C9.086,34.793 10.442,39.548 13.037,43.104 C13.687,43.997 13.492,45.248 12.6,45.899 L12.6,45.899 Z M38.54,52.927 C35.979,53.644 33.175,54.009 30.206,54.009 L29.794,54.009 C26.795,54.009 23.99,53.647 21.456,52.935 C20.393,52.636 19.772,51.532 20.071,50.469 C20.37,49.405 21.472,48.784 22.538,49.084 C24.72,49.698 27.161,50.009 29.794,50.009 L30.206,50.009 C32.811,50.009 35.251,49.694 37.46,49.075 C38.524,48.776 39.627,49.397 39.926,50.461 C40.224,51.524 39.604,52.629 38.54,52.927 L38.54,52.927 Z M50.5,5 C51.881,5 53,6.119 53,7.5 C53,8.881 51.881,10 50.5,10 C49.119,10 48,8.881 48,7.5 C48,6.119 49.119,5 50.5,5 L50.5,5 Z M50.199,45.462 C49.807,45.999 49.198,46.283 48.581,46.283 C48.173,46.283 47.76,46.158 47.404,45.899 C46.512,45.248 46.316,43.997 46.967,43.104 C49.561,39.548 50.918,34.793 51,28.973 C51.015,27.868 51.971,27.002 53.028,27.001 C54.133,27.017 55.015,27.925 55,29.029 C54.906,35.693 53.291,41.223 50.199,45.462 L50.199,45.462 Z M52.5,22 C51.119,22 50,20.881 50,19.5 C50,18.119 51.119,17 52.5,17 C53.881,17 55,18.119 55,19.5 C55,20.881 53.881,22 52.5,22 L52.5,22 Z" id="Fill-1" fill="#D1D4D1" sketch:type="MSShapeGroup"></path>
            <path d="M58.432,19.432 C57.968,15.854 57.28,12.598 56.633,10 L58.787,8.18 C58.917,8.07 58.974,7.895 58.932,7.729 L57,0 L49.769,0 L49.189,0 C48.536,0 47.873,0.104 47.222,0.324 C44.079,1.385 42.411,4.733 43.495,7.804 C45.691,14.063 49.989,32.206 43.608,40.935 C41.001,44.499 36.636,46.232 30.26,46.232 L29.74,46.232 C23.358,46.232 18.989,44.496 16.384,40.924 C10.013,32.187 14.448,13.622 16.504,7.806 C17.59,4.736 15.922,1.386 12.778,0.324 C11.986,0.057 11.176,-0.039 10.389,0.016 C10.335,0.014 10.285,0 10.231,0 L3,0 L1.068,7.729 C1.026,7.895 1.083,8.07 1.213,8.18 L3.367,10 C2.719,12.598 2.032,15.854 1.568,19.432 C-0.001,31.518 1.684,41.047 6.574,47.752 C9.984,52.427 16.771,58 29.74,58 L30.26,58 C37.418,58 47.248,56.222 53.426,47.752 C58.316,41.047 60.001,31.518 58.432,19.432 L58.432,19.432 Z M9.5,5 C10.881,5 12,6.119 12,7.5 C12,8.881 10.881,10 9.5,10 C8.119,10 7,8.881 7,7.5 C7,6.119 8.119,5 9.5,5 L9.5,5 Z M7.5,17 C8.881,17 10,18.119 10,19.5 C10,20.881 8.881,22 7.5,22 C6.119,22 5,20.881 5,19.5 C5,18.119 6.119,17 7.5,17 L7.5,17 Z M12.6,45.899 C12.244,46.158 11.831,46.283 11.423,46.283 C10.806,46.283 10.196,45.999 9.805,45.462 C6.713,41.223 5.098,35.693 5.004,29.029 C4.988,27.925 5.871,27.017 6.976,27.001 C8.032,27.002 8.988,27.868 9.004,28.973 C9.086,34.793 10.442,39.548 13.037,43.104 C13.687,43.997 13.492,45.248 12.6,45.899 L12.6,45.899 Z M38.54,52.927 C35.979,53.644 33.175,54.009 30.206,54.009 L29.794,54.009 C26.795,54.009 23.99,53.647 21.456,52.935 C20.393,52.636 19.772,51.532 20.071,50.469 C20.37,49.405 21.472,48.784 22.538,49.084 C24.72,49.698 27.161,50.009 29.794,50.009 L30.206,50.009 C32.811,50.009 35.251,49.694 37.46,49.075 C38.524,48.776 39.627,49.397 39.926,50.461 C40.224,51.524 39.604,52.629 38.54,52.927 L38.54,52.927 Z M50.5,5 C51.881,5 53,6.119 53,7.5 C53,8.881 51.881,10 50.5,10 C49.119,10 48,8.881 48,7.5 C48,6.119 49.119,5 50.5,5 L50.5,5 Z M50.199,45.462 C49.807,45.999 49.198,46.283 48.581,46.283 C48.173,46.283 47.76,46.158 47.404,45.899 C46.512,45.248 46.316,43.997 46.967,43.104 C49.561,39.548 50.918,34.793 51,28.973 C51.015,27.868 51.971,27.002 53.028,27.001 C54.133,27.017 55.015,27.925 55,29.029 C54.906,35.693 53.291,41.223 50.199,45.462 L50.199,45.462 Z M52.5,22 C51.119,22 50,20.881 50,19.5 C50,18.119 51.119,17 52.5,17 C53.881,17 55,18.119 55,19.5 C55,20.881 53.881,22 52.5,22 L52.5,22 Z" id="Stroke-2" stroke="#D1D4D1" stroke-width="2" stroke-linecap="round" sketch:type="MSShapeGroup"></path>
        </g>
    </g>
</svg>