<?xml version="1.0" encoding="UTF-8" standalone="no"?>
<svg width="47px" height="59px" viewBox="0 0 47 59" version="1.1" xmlns="http://www.w3.org/2000/svg" xmlns:xlink="http://www.w3.org/1999/xlink" xmlns:sketch="http://www.bohemiancoding.com/sketch/ns">
    <!-- Generator: Sketch 3.2.2 (9983) - http://www.bohemiancoding.com/sketch -->
    <title>1 - Native American (Flat)</title>
    <desc>Created with Sketch.</desc>
    <defs></defs>
    <g id="Page-1" stroke="none" stroke-width="1" fill="none" fill-rule="evenodd" sketch:type="MSPage">
        <g id="1---Native-American-(Flat)" sketch:type="MSLayerGroup">
            <path id="Fill-1" fill="#F1CDC1" sketch:type="MSShapeGroup"></path>
            <path d="M37,25.25 L38.298,23.627 C37.644,20.613 36.544,17.7 35.002,15 L41.959,15 C41.529,6.646 34.639,0 26.179,0 L20.821,0 C12.361,0 5.471,6.646 5.042,15 L12,15 C9.379,19.587 8,24.779 8,30.062 L8,45.346 C10.313,48.472 13.814,50.601 18,51.01 C18.9,51.098 20.386,50.855 21.124,50.332 C22.274,49.515 23.787,49.416 25.034,50.076 L26.055,50.617 C26.631,50.922 27.349,51.093 28,51.05 C32.517,50.756 36.459,48.465 39.002,45.058 L39.002,37.53 C37.938,34.95 37,31.036 37,25.25" id="Fill-2" fill="#F1CDC1" sketch:type="MSShapeGroup"></path>
            <path d="M42,19 L37,25.25 C37,38.609 42,42 42,42 C42,42 47,38.609 47,25.25 L42,19" id="Fill-3" fill="#F0C419" sketch:type="MSShapeGroup"></path>
            <path d="M12,15 L12,15 C9.379,19.587 8,24.779 8,30.062 L8,50 L2,50 L2,36 C2,34.594 -1.625,22 5.042,15" id="Fill-4" fill="#605246" sketch:type="MSShapeGroup"></path>
            <path d="M2,46 L8,46 L8,50 L2,50 L2,46 Z" id="Fill-5" fill="#E64C3C" sketch:type="MSShapeGroup"></path>
            <path d="M2.199,50 C2.09,50 2.002,50.082 2.003,50.191 C2.015,51.285 1.976,56.734 0.096,57.705 C-0.074,57.793 0.002,58.055 0.194,58.052 C2.642,58.012 8,57.113 8,50 L2.199,50" id="Fill-6" fill="#605246" sketch:type="MSShapeGroup"></path>
            <path d="M44.802,50 C44.911,50 45,50.082 44.998,50.191 C44.987,51.285 45.026,56.734 46.905,57.705 C47.076,57.793 46.999,58.055 46.807,58.052 C44.359,58.012 39.002,57.113 39.002,50 L44.802,50" id="Fill-7" fill="#605246" sketch:type="MSShapeGroup"></path>
            <path d="M35.999,23 C35.824,23 35.646,22.954 35.485,22.857 L30.817,20.057 L25,21.22 L25,17 C25,16.448 25.447,16 26,16 C26.553,16 27,16.448 27,17 L27,18.78 L31.183,17.943 L36.515,21.143 C36.988,21.427 37.142,22.041 36.857,22.515 C36.67,22.827 36.339,23 35.999,23" id="Fill-8" fill="#605246" sketch:type="MSShapeGroup"></path>
            <path d="M11.001,23 C10.661,23 10.33,22.827 10.143,22.515 C9.858,22.041 10.012,21.427 10.485,21.143 L15.817,17.943 L20,18.78 L20,17 C20,16.448 20.447,16 21,16 C21.553,16 22,16.448 22,17 L22,21.22 L16.183,20.057 L11.515,22.857 C11.353,22.954 11.176,23 11.001,23" id="Fill-9" fill="#605246" sketch:type="MSShapeGroup"></path>
            <path d="M30.707,42.293 L29.708,41.294 L29.706,41.292 L27.707,39.293 C27.316,38.902 26.684,38.902 26.293,39.293 C25.902,39.684 25.902,40.316 26.293,40.707 L26.586,41 L19.414,41 L19.707,40.707 C20.098,40.316 20.098,39.684 19.707,39.293 C19.316,38.902 18.684,38.902 18.293,39.293 L16.294,41.292 C16.293,41.293 16.293,41.293 16.292,41.294 L15.293,42.293 C14.902,42.684 14.902,43.316 15.293,43.707 C15.488,43.902 15.744,44 16,44 C16.256,44 16.512,43.902 16.707,43.707 L17.414,43 L28.586,43 L29.293,43.707 C29.488,43.902 29.744,44 30,44 C30.256,44 30.512,43.902 30.707,43.707 C31.098,43.316 31.098,42.684 30.707,42.293" id="Fill-10" fill="#B57C74" sketch:type="MSShapeGroup"></path>
            <path d="M25.707,46.293 L23.707,44.293 C23.316,43.902 22.684,43.902 22.293,44.293 L20.293,46.293 C19.902,46.684 19.902,47.316 20.293,47.707 C20.488,47.902 20.744,48 21,48 C21.256,48 21.512,47.902 21.707,47.707 L23,46.414 L24.293,47.707 C24.488,47.902 24.744,48 25,48 C25.256,48 25.512,47.902 25.707,47.707 C26.098,47.316 26.098,46.684 25.707,46.293" id="Fill-11" fill="#A37A6F" sketch:type="MSShapeGroup"></path>
            <path d="M34.511,27.058 L30.745,25.484 L34.264,24.99 C34.811,24.914 35.192,24.408 35.115,23.861 C35.038,23.314 34.532,22.926 33.986,23.01 L26.849,24.012 L26.074,24.144 L25.958,25.648 L33.739,28.902 C33.865,28.955 33.996,28.98 34.125,28.98 C34.516,28.98 34.887,28.749 35.048,28.366 C35.261,27.856 35.021,27.27 34.511,27.058" id="Fill-12" fill="#A37A6F" sketch:type="MSShapeGroup"></path>
            <path d="M13.023,23.01 C12.473,22.927 11.972,23.315 11.895,23.861 C11.817,24.408 12.199,24.914 12.746,24.99 L16.262,25.483 L12.499,27.058 C11.989,27.27 11.749,27.856 11.962,28.366 C12.123,28.75 12.494,28.98 12.885,28.98 C13.014,28.98 13.145,28.955 13.271,28.902 L20.314,25.954 L21.074,25.697 L20.915,24.117 L13.023,23.01" id="Fill-13" fill="#A37A6F" sketch:type="MSShapeGroup"></path>
            <path d="M42,19 L45.776,23.72 C45.371,20.608 44.302,17.459 41.96,15 L35.002,15 C36.545,17.7 37.644,20.613 38.298,23.627 L42,19" id="Fill-14" fill="#605246" sketch:type="MSShapeGroup"></path>
            <path d="M42,42 C42,42 40.394,40.908 39.002,37.53 L39.002,50 L45.002,50 L45.002,37.522 C43.609,40.906 42,42 42,42" id="Fill-15" fill="#605246" sketch:type="MSShapeGroup"></path>
            <path d="M25,30.195 L25,28 C25,27.448 24.553,27 24,27 C23.447,27 23,27.448 23,28 L23,31 C23,31.552 23.447,32 24,32 L24.062,32 C25.531,32.287 26.082,33.463 25.989,34.182 C25.895,34.918 25.224,35.016 24.67,34.97 C24.495,34.955 24.319,34.968 24.144,34.987 C24.096,34.993 24.048,35 24,35 C23.447,35 23,35.448 23,36 C23,36.552 23.447,37 24,37 C24.122,37 24.243,36.989 24.364,36.975 C24.41,36.97 24.462,36.964 24.498,36.962 C26.648,37.157 27.795,35.828 27.974,34.437 C28.186,32.779 27.124,30.868 25,30.195" id="Fill-16" fill="#A37A6F" sketch:type="MSShapeGroup"></path>
            <path d="M21,34 C20.447,34 20,34.448 20,35 L20,36 C20,36.552 20.447,37 21,37 C21.553,37 22,36.552 22,36 L22,35 C22,34.448 21.553,34 21,34" id="Fill-17" fill="#A37A6F" sketch:type="MSShapeGroup"></path>
            <path d="M39.002,46 L45.002,46 L45.002,50 L39.002,50 L39.002,46 Z" id="Fill-18" fill="#E64C3C" sketch:type="MSShapeGroup"></path>
            <path id="Fill-19" fill="#7F6E5D" sketch:type="MSShapeGroup"></path>
            <path d="M34.96,15 L41.917,15 C41.487,6.646 34.598,0 26.137,0 L20.78,0 C12.319,0 5.43,6.646 5,15 L34.96,15" id="Fill-20" fill="#7F6E5D" sketch:type="MSShapeGroup"></path>
            <path d="M5.042,15 L41.959,15 C41.848,12.858 41.316,10.833 40.437,9 L6.563,9 C5.684,10.833 5.152,12.858 5.042,15" id="Fill-21" fill="#E64C3C" sketch:type="MSShapeGroup"></path>
            <path d="M22,0 L24,0 L24,9 L22,9 L22,0 Z" id="Fill-22" fill="#605246" sketch:type="MSShapeGroup"></path>
            <path d="M44.707,30.293 L43,28.586 L43,15 C43,14.448 42.553,14 42,14 C41.447,14 41,14.448 41,15 L41,28.586 L39.293,30.293 C38.902,30.684 38.902,31.316 39.293,31.707 C39.488,31.902 39.744,32 40,32 C40.256,32 40.512,31.902 40.707,31.707 L41,31.414 L41,35 C41,35.552 41.447,36 42,36 C42.553,36 43,35.552 43,35 L43,31.414 L43.293,31.707 C43.488,31.902 43.744,32 44,32 C44.256,32 44.512,31.902 44.707,31.707 C45.098,31.316 45.098,30.684 44.707,30.293" id="Fill-23" fill="#ECF0F1" sketch:type="MSShapeGroup"></path>
            <path d="M34.321,35.67 C35.67,35.279 36.831,34.52 37.778,33.441 C37.629,32.741 37.495,31.998 37.383,31.19 C37.12,31.229 36.873,31.367 36.709,31.603 C35.6,33.193 34.016,34 32,34 C31.957,34 31.921,34.019 31.879,34.024 C31.807,34.033 31.738,34.042 31.669,34.067 C31.611,34.088 31.56,34.118 31.506,34.149 C31.45,34.182 31.396,34.213 31.346,34.257 C31.293,34.303 31.253,34.358 31.211,34.414 C31.186,34.448 31.15,34.471 31.129,34.51 C31.12,34.526 31.121,34.544 31.112,34.56 C31.082,34.621 31.067,34.686 31.05,34.753 C31.033,34.818 31.014,34.88 31.011,34.946 C31.01,34.965 31,34.981 31,35 C31,35.045 31.02,35.083 31.025,35.126 C31.034,35.195 31.043,35.262 31.066,35.328 C31.088,35.389 31.119,35.442 31.151,35.497 C31.183,35.552 31.214,35.604 31.256,35.653 C31.303,35.706 31.357,35.746 31.413,35.788 C31.448,35.814 31.471,35.85 31.51,35.872 C33.986,37.265 34.064,39.88 34.014,46.188 C34.007,47 34,47.86 34,48.771 C34,48.955 34.063,49.118 34.15,49.266 C34.801,48.91 35.414,48.498 36.002,48.053 C36.005,47.414 36.009,46.792 36.014,46.204 C36.053,41.269 36.072,37.88 34.321,35.67" id="Fill-24" fill="#A37A6F" sketch:type="MSShapeGroup"></path>
            <path d="M12.982,46.168 C12.932,39.86 13.01,37.245 15.486,35.852 C15.525,35.83 15.548,35.794 15.583,35.768 C15.639,35.726 15.693,35.686 15.74,35.633 C15.782,35.584 15.813,35.532 15.845,35.477 C15.877,35.422 15.908,35.369 15.93,35.307 C15.953,35.242 15.962,35.175 15.971,35.106 C15.976,35.063 15.996,35.025 15.996,34.98 C15.996,34.961 15.986,34.945 15.985,34.926 C15.982,34.86 15.963,34.798 15.946,34.734 C15.929,34.666 15.914,34.601 15.884,34.54 C15.876,34.524 15.876,34.506 15.867,34.49 C15.846,34.452 15.811,34.429 15.786,34.396 C15.743,34.338 15.702,34.283 15.648,34.236 C15.6,34.194 15.548,34.164 15.494,34.132 C15.439,34.099 15.385,34.068 15.324,34.046 C15.258,34.023 15.191,34.014 15.122,34.005 C15.079,34 15.041,33.98 14.996,33.98 C11.687,33.98 8.996,31.289 8.996,27.98 C8.996,27.489 8.636,27.1 8.169,27.015 C8.067,28.026 8,29.041 8,30.062 L8,31.836 C9.001,33.643 10.673,35.028 12.685,35.637 C10.924,37.846 10.943,41.239 10.982,46.184 C10.988,46.865 10.993,47.587 10.995,48.338 C11.541,48.741 12.125,49.095 12.731,49.417 C12.892,49.24 12.996,49.009 12.996,48.751 C12.996,47.84 12.989,46.98 12.982,46.168" id="Fill-25" fill="#A37A6F" sketch:type="MSShapeGroup"></path>
        </g>
    </g>
</svg>