<?xml version="1.0" encoding="UTF-8" standalone="no"?>
<svg width="60px" height="60px" viewBox="0 0 60 60" version="1.1" xmlns="http://www.w3.org/2000/svg" xmlns:xlink="http://www.w3.org/1999/xlink" xmlns:sketch="http://www.bohemiancoding.com/sketch/ns">
    <!-- Generator: Sketch 3.2.2 (9983) - http://www.bohemiancoding.com/sketch -->
    <title>15 - Native American Bow (Flat)</title>
    <desc>Created with Sketch.</desc>
    <defs></defs>
    <g id="Page-1" stroke="none" stroke-width="1" fill="none" fill-rule="evenodd" sketch:type="MSPage">
        <g id="15---Native-American-Bow-(Flat)" sketch:type="MSLayerGroup">
            <path d="M21.06,5 L15.06,5 C13.955,5 13.06,4.105 13.06,3 C13.06,1.895 13.955,1 15.06,1 L21.06,1 L21.06,5" id="Fill-1" fill="#F0C419" sketch:type="MSShapeGroup"></path>
            <path d="M21.06,59 L15.06,59 C13.955,59 13.06,58.105 13.06,57 C13.06,55.895 13.955,55 15.06,55 L21.06,55 L21.06,59" id="Fill-2" fill="#F0C419" sketch:type="MSShapeGroup"></path>
            <path d="M21.06,59 L21.06,55 C34.845,55 46.06,33.119 46.06,30 C46.06,26.882 34.845,5 21.06,5 L21.06,1 C37.05,1 50.06,24.676 50.06,30 C50.06,35.324 37.05,59 21.06,59" id="Fill-3" fill="#CB8252" sketch:type="MSShapeGroup"></path>
            <path d="M15.979,56 C15.64,56 15.308,55.827 15.12,55.514 L0.293,30.731 C-0.019,30.293 -0.019,29.707 0.293,29.269 L15.12,4.486 C15.404,4.012 16.019,3.858 16.492,4.142 C16.966,4.425 17.12,5.04 16.837,5.514 L2.185,30 L16.837,54.486 C17.12,54.96 16.966,55.575 16.492,55.858 C16.331,55.954 16.154,56 15.979,56" id="Fill-4" fill="#E6E7E8" sketch:type="MSShapeGroup"></path>
            <path d="M16.06,6 C15.507,6 15.06,5.552 15.06,5 L15.06,1 C15.06,0.448 15.507,0 16.06,0 C16.612,0 17.06,0.448 17.06,1 L17.06,5 C17.06,5.552 16.612,6 16.06,6" id="Fill-5" fill="#E6E7E8" sketch:type="MSShapeGroup"></path>
            <path d="M16.06,60 C15.507,60 15.06,59.552 15.06,59 L15.06,55 C15.06,54.448 15.507,54 16.06,54 C16.612,54 17.06,54.448 17.06,55 L17.06,59 C17.06,59.552 16.612,60 16.06,60" id="Fill-6" fill="#E6E7E8" sketch:type="MSShapeGroup"></path>
            <path d="M58.963,30.078 L54.06,34 L54.06,26 L58.963,29.922 C59.012,29.962 59.012,30.038 58.963,30.078" id="Fill-7" fill="#E6E7E8" sketch:type="MSShapeGroup"></path>
            <path d="M53.06,36.081 L53.06,23.919 L59.963,29.442 L60,30 C60,30.335 59.851,30.647 59.59,30.857 L53.06,36.081 L53.06,36.081 Z M55.06,28.081 L55.06,31.919 L57.459,30 L55.06,28.081 L55.06,28.081 Z" id="Fill-8" fill="#BDC3C7" sketch:type="MSShapeGroup"></path>
            <path d="M54.06,31 L1.06,31 C0.507,31 0.06,30.552 0.06,30 C0.06,29.448 0.507,29 1.06,29 L54.06,29 C54.612,29 55.06,29.448 55.06,30 C55.06,30.552 54.612,31 54.06,31" id="Fill-9" fill="#7F6E5D" sketch:type="MSShapeGroup"></path>
            <path d="M16.06,30 L8.06,30 L6.06,26 L14.06,26 L16.06,30" id="Fill-10" fill="#E6E7E8" sketch:type="MSShapeGroup"></path>
            <path d="M17.678,31 L7.441,31 L4.441,25 L14.678,25 L17.678,31 L17.678,31 Z M8.678,29 L14.441,29 L13.441,27 L7.678,27 L8.678,29 L8.678,29 Z" id="Fill-11" fill="#BDC3C7" sketch:type="MSShapeGroup"></path>
            <path d="M6.06,34 L14.06,34 L16.06,30 L8.06,30 L6.06,34" id="Fill-12" fill="#E6E7E8" sketch:type="MSShapeGroup"></path>
            <path d="M14.678,35 L4.441,35 L7.441,29 L17.678,29 L14.678,35 L14.678,35 Z M7.678,33 L13.441,33 L14.441,31 L8.678,31 L7.678,33 L7.678,33 Z" id="Fill-13" fill="#BDC3C7" sketch:type="MSShapeGroup"></path>
            <path d="M37.765,15.125 L40.577,12.313 C39.719,11.299 38.81,10.315 37.863,9.37 L35.085,12.148 C36.026,13.098 36.921,14.099 37.765,15.125" id="Fill-14" fill="#F0C419" sketch:type="MSShapeGroup"></path>
            <path d="M37.353,45.364 C36.494,46.38 35.584,47.366 34.63,48.298 L37.411,51.08 C38.37,50.15 39.286,49.173 40.157,48.169 L37.353,45.364" id="Fill-15" fill="#F0C419" sketch:type="MSShapeGroup"></path>
        </g>
    </g>
</svg>