<?xml version="1.0" encoding="UTF-8" standalone="no"?>
<svg width="58px" height="58px" viewBox="0 0 58 58" version="1.1" xmlns="http://www.w3.org/2000/svg" xmlns:xlink="http://www.w3.org/1999/xlink" xmlns:sketch="http://www.bohemiancoding.com/sketch/ns">
    <!-- Generator: Sketch 3.2.2 (9983) - http://www.bohemiancoding.com/sketch -->
    <title>6 - Native American Tent (Flat)</title>
    <desc>Created with Sketch.</desc>
    <defs></defs>
    <g id="Page-1" stroke="none" stroke-width="1" fill="none" fill-rule="evenodd" sketch:type="MSPage">
        <g id="6---Native-American-Tent-(Flat)" sketch:type="MSLayerGroup">
            <path d="M29,13 L7,57 L51,57 L29,13" id="Fill-1" fill="#EDD9A6" sketch:type="MSShapeGroup"></path>
            <path d="M57,58 L1,58 C0.448,58 0,57.552 0,57 C0,56.448 0.448,56 1,56 L57,56 C57.553,56 58,56.448 58,57 C58,57.552 57.553,58 57,58" id="Fill-2" fill="#7F6E5D" sketch:type="MSShapeGroup"></path>
            <path d="M33.008,36.406 L32.285,35.699 L29,32.414 L25.008,36.406 L24.285,35.699 L19.448,30.862 C19.057,30.471 19.057,29.838 19.448,29.448 C19.838,29.057 20.471,29.057 20.862,29.448 L25,33.586 L28.992,29.594 L29.715,30.301 L33,33.586 L37.141,29.445 C37.532,29.054 38.165,29.054 38.555,29.445 C38.946,29.835 38.946,30.468 38.555,30.859 L33.008,36.406" id="Fill-3" fill="#F0C419" sketch:type="MSShapeGroup"></path>
            <path d="M17,52 L22,57 L29,38 L17,52" id="Fill-4" fill="#F0C419" sketch:type="MSShapeGroup"></path>
            <path d="M22,58 C21.738,58 21.482,57.896 21.293,57.707 L16.293,52.707 C15.923,52.337 15.901,51.746 16.241,51.349 L28.241,37.349 C28.556,36.981 29.088,36.892 29.506,37.138 C29.924,37.383 30.106,37.892 29.938,38.346 L22.939,57.346 C22.82,57.665 22.548,57.903 22.214,57.977 C22.143,57.992 22.071,58 22,58 L22,58 Z M18.362,51.948 L21.602,55.188 L26.138,42.875 L18.362,51.948 L18.362,51.948 Z" id="Fill-5" fill="#F0C419" sketch:type="MSShapeGroup"></path>
            <path d="M41,52 L36,57 L29,38 L41,52" id="Fill-6" fill="#F0C419" sketch:type="MSShapeGroup"></path>
            <path d="M36,58 C35.929,58 35.857,57.992 35.786,57.977 C35.452,57.903 35.18,57.665 35.062,57.346 L28.062,38.346 C27.894,37.892 28.076,37.383 28.494,37.138 C28.912,36.893 29.444,36.982 29.759,37.349 L41.759,51.349 C42.099,51.746 42.077,52.337 41.707,52.707 L36.707,57.707 C36.518,57.896 36.262,58 36,58 L36,58 Z M31.862,42.875 L36.398,55.188 L39.638,51.948 L31.862,42.875 L31.862,42.875 Z" id="Fill-7" fill="#F0C419" sketch:type="MSShapeGroup"></path>
            <path d="M29,40 C28.448,40 28,39.552 28,39 L28,31 C28,30.448 28.448,30 29,30 C29.552,30 30,30.448 30,31 L30,39 C30,39.552 29.552,40 29,40" id="Fill-8" fill="#F0C419" sketch:type="MSShapeGroup"></path>
            <path d="M54.355,10.858 C50.481,10.858 47.34,7.607 47.34,3.596 C47.34,3.047 47.404,2.514 47.515,2 C45.423,3.168 44,5.457 44,8.092 C44,11.912 46.991,15.008 50.68,15.008 C53.616,15.008 56.104,13.045 57,10.32 C56.183,10.665 55.291,10.858 54.355,10.858" id="Fill-9" fill="#F0C419" sketch:type="MSShapeGroup"></path>
            <path d="M8,23.414 L3.586,19 L8,14.586 L12.414,19 L8,23.414 L8,23.414 Z M6.414,19 L8,20.586 L9.586,19 L8,17.414 L6.414,19 L6.414,19 Z" id="Fill-10" fill="#E4C05C" sketch:type="MSShapeGroup"></path>
            <path d="M8,16 L8,14" id="Fill-11" fill="#D0E8F9" sketch:type="MSShapeGroup"></path>
            <path d="M8,17 C7.448,17 7,16.552 7,16 L7,14 C7,13.448 7.448,13 8,13 C8.552,13 9,13.448 9,14 L9,16 C9,16.552 8.552,17 8,17" id="Fill-12" fill="#E4C05C" sketch:type="MSShapeGroup"></path>
            <path d="M13,20 L11,20 C10.448,20 10,19.552 10,19 C10,18.448 10.448,18 11,18 L13,18 C13.552,18 14,18.448 14,19 C14,19.552 13.552,20 13,20" id="Fill-13" fill="#E4C05C" sketch:type="MSShapeGroup"></path>
            <path d="M8,22 L8,24" id="Fill-14" fill="#D0E8F9" sketch:type="MSShapeGroup"></path>
            <path d="M8,25 C7.448,25 7,24.552 7,24 L7,22 C7,21.448 7.448,21 8,21 C8.552,21 9,21.448 9,22 L9,24 C9,24.552 8.552,25 8,25" id="Fill-15" fill="#E4C05C" sketch:type="MSShapeGroup"></path>
            <path d="M5,19 L3,19" id="Fill-16" fill="#D0E8F9" sketch:type="MSShapeGroup"></path>
            <path d="M5,20 L3,20 C2.448,20 2,19.552 2,19 C2,18.448 2.448,18 3,18 L5,18 C5.552,18 6,18.448 6,19 C6,19.552 5.552,20 5,20" id="Fill-17" fill="#E4C05C" sketch:type="MSShapeGroup"></path>
            <path d="M6,1 C6,1.552 5.552,2 5,2 C4.448,2 4,1.552 4,1 C4,0.448 4.448,0 5,0 C5.552,0 6,0.448 6,1" id="Fill-18" fill="#E4C05C" sketch:type="MSShapeGroup"></path>
            <path d="M21,12 C21,12.552 20.552,13 20,13 C19.448,13 19,12.552 19,12 C19,11.448 19.448,11 20,11 C20.552,11 21,11.448 21,12" id="Fill-19" fill="#E4C05C" sketch:type="MSShapeGroup"></path>
            <path d="M52,30 C52,30.552 51.552,31 51,31 C50.448,31 50,30.552 50,30 C50,29.448 50.448,29 51,29 C51.552,29 52,29.448 52,30" id="Fill-20" fill="#E4C05C" sketch:type="MSShapeGroup"></path>
            <path d="M41,2 C41,2.552 40.552,3 40,3 C39.448,3 39,2.552 39,2 C39,1.448 39.448,1 40,1 C40.552,1 41,1.448 41,2" id="Fill-21" fill="#E4C05C" sketch:type="MSShapeGroup"></path>
            <path d="M22,58 L29,41 L36,58 L22,58" id="Fill-22" fill="#7F6E5D" sketch:type="MSShapeGroup"></path>
            <path d="M21,30 L29,14 L37,30 L33,34 L29,30 L25,34 L21,30" id="Fill-23" fill="#FFFFFF" sketch:type="MSShapeGroup"></path>
            <path d="M51.898,56.56 L30.113,12.083 L31.898,8.44 C32.141,7.944 31.936,7.345 31.44,7.102 C30.943,6.86 30.344,7.065 30.102,7.56 L29,9.81 L27.898,7.56 C27.655,7.065 27.057,6.859 26.56,7.102 C26.064,7.345 25.859,7.944 26.102,8.44 L27.886,12.083 L6.102,56.56 C5.859,57.056 6.064,57.655 6.56,57.898 C6.701,57.967 6.851,58 6.999,58 C7.369,58 7.725,57.794 7.898,57.44 L29,14.357 L50.101,57.44 C50.275,57.794 50.631,58 51.001,58 C51.148,58 51.299,57.967 51.439,57.898 C51.935,57.655 52.141,57.056 51.898,56.56" id="Fill-24" fill="#7F6E5D" sketch:type="MSShapeGroup"></path>
        </g>
    </g>
</svg>