<?xml version="1.0" encoding="UTF-8" standalone="no"?>
<svg width="59px" height="58px" viewBox="0 0 59 58" version="1.1" xmlns="http://www.w3.org/2000/svg" xmlns:xlink="http://www.w3.org/1999/xlink" xmlns:sketch="http://www.bohemiancoding.com/sketch/ns">
    <!-- Generator: Sketch 3.2.2 (9983) - http://www.bohemiancoding.com/sketch -->
    <title>20 - Riding Boots (Flat)</title>
    <desc>Created with Sketch.</desc>
    <defs></defs>
    <g id="Page-1" stroke="none" stroke-width="1" fill="none" fill-rule="evenodd" sketch:type="MSPage">
        <g id="20---Riding-Boots-(Flat)" sketch:type="MSLayerGroup" transform="translate(0.000000, -1.000000)">
            <path d="M42.277,56 L33,56 L33,50.53 C33,50.237 33.237,50 33.53,50 L45.552,50 C45.885,50 46.101,50.35 45.952,50.647 L44.59,54.381 C44.236,55.353 43.312,56 42.277,56" id="Fill-1" fill="#837073" sketch:type="MSShapeGroup"></path>
            <path d="M46.762,1.243 L40,5 L40,4.17 C40,2.545 38.784,1.089 37.161,1.004 C35.431,0.914 34,2.29 34,4 L34,5 L28.305,1.441 C27.302,0.814 26,1.535 26,2.718 L26,29.833 C26,31.641 25.67,33.434 25.034,35.126 C22.429,42.046 19.79,48 12,48 L1.828,48 C0.858,48 0,48.916 0,49.886 L0,50.145 C0,51.242 0.729,52.207 1.785,52.506 L11.986,55.396 C13.403,55.821 14.883,56 16.361,56 C22.836,56 27.235,54.001 29.033,51.803 C29.985,50.639 31.431,50 32.935,50 L46.116,50 C47.709,50 49,48.709 49,47.116 L49,2.561 C49,1.412 47.766,0.686 46.762,1.243" id="Fill-2" fill="#B43C0D" sketch:type="MSShapeGroup"></path>
            <path d="M37.991,38.93 C37.502,38.93 37.074,38.571 37.003,38.072 C36.924,37.526 37.304,37.019 37.851,36.94 C38.418,36.859 38.969,36.697 39.488,36.459 C39.991,36.228 40.584,36.449 40.814,36.952 C41.044,37.454 40.823,38.047 40.321,38.277 C39.627,38.595 38.892,38.811 38.135,38.92 C38.087,38.927 38.039,38.93 37.991,38.93 L37.991,38.93 Z M35.025,38.717 C34.932,38.717 34.836,38.703 34.742,38.675 C34.011,38.46 33.314,38.14 32.672,37.726 C32.207,37.426 32.074,36.807 32.374,36.343 C32.673,35.879 33.292,35.746 33.756,36.045 C34.238,36.356 34.76,36.596 35.308,36.757 C35.837,36.914 36.14,37.469 35.984,37.999 C35.855,38.435 35.457,38.717 35.025,38.717 L35.025,38.717 Z M42.286,36.583 C42.053,36.583 41.82,36.503 41.63,36.338 C41.213,35.977 41.169,35.345 41.531,34.928 C41.908,34.494 42.22,34.011 42.458,33.492 C42.688,32.988 43.283,32.77 43.783,32.999 C44.286,33.229 44.506,33.823 44.276,34.325 C43.958,35.018 43.543,35.662 43.041,36.239 C42.843,36.467 42.565,36.583 42.286,36.583 L42.286,36.583 Z M31.111,35.779 C30.782,35.779 30.46,35.617 30.269,35.32 C29.855,34.676 29.537,33.979 29.322,33.249 C29.166,32.718 29.47,32.163 30,32.007 C30.53,31.85 31.085,32.156 31.241,32.685 C31.402,33.232 31.641,33.755 31.951,34.238 C32.25,34.702 32.116,35.321 31.651,35.62 C31.484,35.727 31.296,35.779 31.111,35.779 L31.111,35.779 Z M44,32 C43.448,32 43,31.552 43,31 L43,29 C43,28.448 43.448,28 44,28 C44.552,28 45,28.448 45,29 L45,31 C45,31.552 44.552,32 44,32 L44,32 Z M30,30.994 C29.448,30.994 29,30.546 29,29.994 L29,27.994 C29,27.442 29.448,26.994 30,26.994 C30.552,26.994 31,27.442 31,27.994 L31,29.994 C31,30.546 30.552,30.994 30,30.994 L30,30.994 Z M44,27 C43.448,27 43,26.552 43,26 L43,24 C43,23.448 43.448,23 44,23 C44.552,23 45,23.448 45,24 L45,26 C45,26.552 44.552,27 44,27 L44,27 Z M30,25.994 C29.448,25.994 29,25.546 29,24.994 L29,22.994 C29,22.442 29.448,21.994 30,21.994 C30.552,21.994 31,22.442 31,22.994 L31,24.994 C31,25.546 30.552,25.994 30,25.994 L30,25.994 Z M44,22 C43.448,22 43,21.552 43,21 L43,19 C43,18.448 43.448,18 44,18 C44.552,18 45,18.448 45,19 L45,21 C45,21.552 44.552,22 44,22 L44,22 Z M30,20.994 C29.448,20.994 29,20.546 29,19.994 L29,17.994 C29,17.442 29.448,16.994 30,16.994 C30.552,16.994 31,17.442 31,17.994 L31,19.994 C31,20.546 30.552,20.994 30,20.994 L30,20.994 Z M44,17 C43.448,17 43,16.552 43,16 L43,14 C43,13.448 43.448,13 44,13 C44.552,13 45,13.448 45,14 L45,16 C45,16.552 44.552,17 44,17 L44,17 Z M30,15.994 C29.448,15.994 29,15.546 29,14.994 L29,14 C29,13.448 29.448,13 30,13 C30.552,13 31,13.448 31,14 L31,14.994 C31,15.546 30.552,15.994 30,15.994 L30,15.994 Z" id="Fill-3" fill="#CB6C45" sketch:type="MSShapeGroup"></path>
            <path d="M37,34 L37,34 C35.35,34 34,32.65 34,31 L34,4 C34,2.35 35.35,1 37,1 C38.65,1 40,2.35 40,4 L40,31 C40,32.65 38.65,34 37,34" id="Fill-4" fill="#CB6C45" sketch:type="MSShapeGroup"></path>
            <path d="M42,54 L40,54 C39.448,54 39,53.552 39,53 C39,52.448 39.448,52 40,52 L42,52 C42.552,52 43,52.448 43,53 C43,53.552 42.552,54 42,54 L42,54 Z M37,54 L35,54 C34.448,54 34,53.552 34,53 C34,52.448 34.448,52 35,52 L37,52 C37.552,52 38,52.448 38,53 C38,53.552 37.552,54 37,54 L37,54 Z" id="Fill-5" fill="#644F54" sketch:type="MSShapeGroup"></path>
            <path d="M49,49 L51.478,51.453" id="Stroke-6" stroke="#BDC3C7" stroke-width="2" stroke-linecap="round" sketch:type="MSShapeGroup"></path>
            <path d="M54.911,50.865 L54.911,50.865 C55.067,51.304 55.567,51.511 55.987,51.311 C56.654,50.994 57.35,51.69 57.033,52.357 C56.833,52.776 57.04,53.277 57.478,53.433 C58.174,53.68 58.174,54.664 57.478,54.911 C57.04,55.067 56.833,55.567 57.033,55.987 C57.35,56.654 56.654,57.35 55.987,57.033 C55.567,56.833 55.067,57.04 54.911,57.478 C54.664,58.174 53.68,58.174 53.433,57.478 C53.277,57.04 52.776,56.833 52.357,57.033 C51.69,57.35 50.994,56.654 51.311,55.987 C51.511,55.567 51.303,55.067 50.865,54.911 C50.17,54.664 50.17,53.68 50.865,53.433 C51.303,53.277 51.511,52.776 51.311,52.357 C50.994,51.69 51.69,50.994 52.357,51.311 C52.776,51.511 53.277,51.304 53.433,50.865 C53.68,50.17 54.664,50.17 54.911,50.865 L54.911,50.865 Z" id="Fill-7" fill="#ECF0F1" sketch:type="MSShapeGroup"></path>
            <path d="M54.911,50.865 L54.911,50.865 C55.067,51.304 55.567,51.511 55.987,51.311 C56.654,50.994 57.35,51.69 57.033,52.357 C56.833,52.776 57.04,53.277 57.478,53.433 C58.174,53.68 58.174,54.664 57.478,54.911 C57.04,55.067 56.833,55.567 57.033,55.987 C57.35,56.654 56.654,57.35 55.987,57.033 C55.567,56.833 55.067,57.04 54.911,57.478 C54.664,58.174 53.68,58.174 53.433,57.478 C53.277,57.04 52.776,56.833 52.357,57.033 C51.69,57.35 50.994,56.654 51.311,55.987 C51.511,55.567 51.303,55.067 50.865,54.911 C50.17,54.664 50.17,53.68 50.865,53.433 C51.303,53.277 51.511,52.776 51.311,52.357 C50.994,51.69 51.69,50.994 52.357,51.311 C52.776,51.511 53.277,51.304 53.433,50.865 C53.68,50.17 54.664,50.17 54.911,50.865 L54.911,50.865 Z" id="Stroke-8" stroke="#F0C419" stroke-width="2" stroke-linecap="round" sketch:type="MSShapeGroup"></path>
            <path d="M42.414,42.414 L42.414,42.414 C41.633,43.195 41.633,44.462 42.414,45.243 L47.014,49.843 C48.164,49.464 49,48.393 49,47.116 L49,46.172 L45.243,42.414 C44.462,41.633 43.195,41.633 42.414,42.414 L42.414,42.414 Z" id="Fill-9" fill="#ECF0F1" sketch:type="MSShapeGroup"></path>
            <path d="M42.414,42.414 L42.414,42.414 C41.633,43.195 41.633,44.462 42.414,45.243 L47.014,49.843 C48.164,49.464 49,48.393 49,47.116 L49,46.172 L45.243,42.414 C44.462,41.633 43.195,41.633 42.414,42.414 L42.414,42.414 Z" id="Stroke-10" stroke="#BDC3C7" stroke-width="2" sketch:type="MSShapeGroup"></path>
            <path d="M25,39 C25.552,39 26,38.552 26,38 C26,37.448 25.552,37 25,37 C24.448,37 24,37.448 24,38 C24,38.552 24.448,39 25,39" id="Fill-11" fill="#CB6C45" sketch:type="MSShapeGroup"></path>
            <path d="M27,41 C27.552,41 28,40.552 28,40 C28,39.448 27.552,39 27,39 C26.448,39 26,39.448 26,40 C26,40.552 26.448,41 27,41" id="Fill-12" fill="#CB6C45" sketch:type="MSShapeGroup"></path>
            <path d="M25,41 C24.448,41 24,41.448 24,42 C24,42.552 24.448,43 25,43 C25.552,43 26,42.552 26,42 C26,41.448 25.552,41 25,41" id="Fill-13" fill="#CB6C45" sketch:type="MSShapeGroup"></path>
            <path d="M27,43 C26.448,43 26,43.448 26,44 C26,44.552 26.448,45 27,45 C27.552,45 28,44.552 28,44 C28,43.448 27.552,43 27,43" id="Fill-14" fill="#CB6C45" sketch:type="MSShapeGroup"></path>
            <path d="M23,45 C23.552,45 24,44.552 24,44 C24,43.448 23.552,43 23,43 C22.448,43 22,43.448 22,44 C22,44.552 22.448,45 23,45" id="Fill-15" fill="#CB6C45" sketch:type="MSShapeGroup"></path>
            <path d="M21,45 C20.448,45 20,45.448 20,46 C20,46.552 20.448,47 21,47 C21.552,47 22,46.552 22,46 C22,45.448 21.552,45 21,45" id="Fill-16" fill="#CB6C45" sketch:type="MSShapeGroup"></path>
            <path d="M25,45 C24.448,45 24,45.448 24,46 C24,46.552 24.448,47 25,47 C25.552,47 26,46.552 26,46 C26,45.448 25.552,45 25,45" id="Fill-17" fill="#CB6C45" sketch:type="MSShapeGroup"></path>
            <path d="M23,47 C22.448,47 22,47.448 22,48 C22,48.552 22.448,49 23,49 C23.552,49 24,48.552 24,48 C24,47.448 23.552,47 23,47" id="Fill-18" fill="#CB6C45" sketch:type="MSShapeGroup"></path>
            <path d="M19,47 C18.448,47 18,47.448 18,48 C18,48.552 18.448,49 19,49 C19.552,49 20,48.552 20,48 C20,47.448 19.552,47 19,47" id="Fill-19" fill="#CB6C45" sketch:type="MSShapeGroup"></path>
            <path d="M26,10 L34,10 L34,14 L26,14 L26,10 Z" id="Fill-20" fill="#804537" sketch:type="MSShapeGroup"></path>
            <path d="M40,10 L49,10 L49,14 L40,14 L40,10 Z" id="Fill-21" fill="#804537" sketch:type="MSShapeGroup"></path>
        </g>
    </g>
</svg>