<?xml version="1.0" encoding="UTF-8" standalone="no"?>
<svg width="58px" height="58px" viewBox="0 0 58 58" version="1.1" xmlns="http://www.w3.org/2000/svg" xmlns:xlink="http://www.w3.org/1999/xlink" xmlns:sketch="http://www.bohemiancoding.com/sketch/ns">
    <!-- Generator: Sketch 3.2.2 (9983) - http://www.bohemiancoding.com/sketch -->
    <title>17 - Salloon Doors (Flat)</title>
    <desc>Created with Sketch.</desc>
    <defs></defs>
    <g id="Page-1" stroke="none" stroke-width="1" fill="none" fill-rule="evenodd" sketch:type="MSPage">
        <g id="17---Salloon-Doors-(Flat)" sketch:type="MSLayerGroup">
            <path d="M27,49 L11,49 L11,22 L14.122,22 C15.86,22 17.423,20.942 18.069,19.328 C18.516,18.211 19.407,17.539 20.504,17.206 C21.71,16.839 22.842,16.263 23.949,15.66 L25,14 L27,14 L27,49" id="Fill-1" fill="#805333" sketch:type="MSShapeGroup"></path>
            <path d="M32,49 L47,49 L47,22 L44.878,22 C43.14,22 41.577,20.942 40.931,19.328 C40.484,18.211 39.593,17.539 38.496,17.206 C37.29,16.839 36.158,16.263 35.051,15.66 L34,14 L32,14 L32,49" id="Fill-2" fill="#805333" sketch:type="MSShapeGroup"></path>
            <path d="M0.06,55 L10,55 L10,58 L0.06,58 L0.06,55 Z" id="Fill-3" fill="#7D4B02" sketch:type="MSShapeGroup"></path>
            <path d="M48,55 L58,55 L58,58 L48,58 L48,55 Z" id="Fill-4" fill="#7D4B02" sketch:type="MSShapeGroup"></path>
            <path d="M0.06,0.04 L10,0.04 L10,10 L0.06,10 L0.06,0.04 Z" id="Fill-5" fill="#7D4B02" sketch:type="MSShapeGroup"></path>
            <path d="M5,47 L5,43 L8,43 L8,28 L5,28 L5,24 L8,24 L8,10 L1,10 L1,55 L8,55 L8,47 L5,47" id="Fill-6" fill="#7F6E5D" sketch:type="MSShapeGroup"></path>
            <path d="M48,0.04 L58,0.04 L58,10 L48,10 L48,0.04 Z" id="Fill-7" fill="#7D4B02" sketch:type="MSShapeGroup"></path>
            <path d="M5,24 L11,24 L11,28 L5,28 L5,24 Z" id="Fill-8" fill="#BDC3C7" sketch:type="MSShapeGroup"></path>
            <path d="M5,43 L11,43 L11,47 L5,47 L5,43 Z" id="Fill-9" fill="#BDC3C7" sketch:type="MSShapeGroup"></path>
            <path d="M47,24 L53,24 L53,28 L47,28 L47,24 Z" id="Fill-10" fill="#BDC3C7" sketch:type="MSShapeGroup"></path>
            <path d="M47,43 L53,43 L53,47 L47,47 L47,43 Z" id="Fill-11" fill="#BDC3C7" sketch:type="MSShapeGroup"></path>
            <path d="M10,0.04 L48,0.04 L48,8 L10,8 L10,0.04 Z" id="Fill-12" fill="#7F6E5D" sketch:type="MSShapeGroup"></path>
            <path d="M50,10 L50,24 L53,24 L53,28 L50,28 L50,43 L53,43 L53,47 L50,47 L50,55 L57,55 L57,10 L50,10" id="Fill-13" fill="#7F6E5D" sketch:type="MSShapeGroup"></path>
            <path d="M23,27 L15,27 C14.448,27 14,26.552 14,26 C14,25.448 14.448,25 15,25 L23,25 C23.552,25 24,25.448 24,26 C24,26.552 23.552,27 23,27" id="Fill-14" fill="#CB8252" sketch:type="MSShapeGroup"></path>
            <path d="M23,30 L15,30 C14.448,30 14,29.552 14,29 C14,28.448 14.448,28 15,28 L23,28 C23.552,28 24,28.448 24,29 C24,29.552 23.552,30 23,30" id="Fill-15" fill="#CB8252" sketch:type="MSShapeGroup"></path>
            <path d="M23,33 L15,33 C14.448,33 14,32.552 14,32 C14,31.448 14.448,31 15,31 L23,31 C23.552,31 24,31.448 24,32 C24,32.552 23.552,33 23,33" id="Fill-16" fill="#CB8252" sketch:type="MSShapeGroup"></path>
            <path d="M44,27 L36,27 C35.448,27 35,26.552 35,26 C35,25.448 35.448,25 36,25 L44,25 C44.552,25 45,25.448 45,26 C45,26.552 44.552,27 44,27" id="Fill-17" fill="#CB8252" sketch:type="MSShapeGroup"></path>
            <path d="M44,30 L36,30 C35.448,30 35,29.552 35,29 C35,28.448 35.448,28 36,28 L44,28 C44.552,28 45,28.448 45,29 C45,29.552 44.552,30 44,30" id="Fill-18" fill="#CB8252" sketch:type="MSShapeGroup"></path>
            <path d="M44,33 L36,33 C35.448,33 35,32.552 35,32 C35,31.448 35.448,31 36,31 L44,31 C44.552,31 45,31.448 45,32 C45,32.552 44.552,33 44,33" id="Fill-19" fill="#CB8252" sketch:type="MSShapeGroup"></path>
            <path d="M23,40 L15,40 C14.448,40 14,39.552 14,39 C14,38.448 14.448,38 15,38 L23,38 C23.552,38 24,38.448 24,39 C24,39.552 23.552,40 23,40" id="Fill-20" fill="#CB8252" sketch:type="MSShapeGroup"></path>
            <path d="M23,43 L15,43 C14.448,43 14,42.552 14,42 C14,41.448 14.448,41 15,41 L23,41 C23.552,41 24,41.448 24,42 C24,42.552 23.552,43 23,43" id="Fill-21" fill="#CB8252" sketch:type="MSShapeGroup"></path>
            <path d="M23,46 L15,46 C14.448,46 14,45.552 14,45 C14,44.448 14.448,44 15,44 L23,44 C23.552,44 24,44.448 24,45 C24,45.552 23.552,46 23,46" id="Fill-22" fill="#CB8252" sketch:type="MSShapeGroup"></path>
            <path d="M44,40 L36,40 C35.448,40 35,39.552 35,39 C35,38.448 35.448,38 36,38 L44,38 C44.552,38 45,38.448 45,39 C45,39.552 44.552,40 44,40" id="Fill-23" fill="#CB8252" sketch:type="MSShapeGroup"></path>
            <path d="M44,43 L36,43 C35.448,43 35,42.552 35,42 C35,41.448 35.448,41 36,41 L44,41 C44.552,41 45,41.448 45,42 C45,42.552 44.552,43 44,43" id="Fill-24" fill="#CB8252" sketch:type="MSShapeGroup"></path>
            <path d="M44,46 L36,46 C35.448,46 35,45.552 35,45 C35,44.448 35.448,44 36,44 L44,44 C44.552,44 45,44.448 45,45 C45,45.552 44.552,46 44,46" id="Fill-25" fill="#CB8252" sketch:type="MSShapeGroup"></path>
            <path d="M3,3 L0,3 L0,5 L3,5 C3.552,5 4,4.552 4,4 C4,3.448 3.552,3 3,3" id="Fill-26" fill="#A46400" sketch:type="MSShapeGroup"></path>
            <path d="M5,6 L0,6 L0,8 L5,8 C5.552,8 6,7.552 6,7 C6,6.448 5.552,6 5,6" id="Fill-27" fill="#A46400" sketch:type="MSShapeGroup"></path>
            <path d="M58,3 L55,3 C54.448,3 54,3.448 54,4 C54,4.552 54.448,5 55,5 L58,5 L58,3" id="Fill-28" fill="#A46400" sketch:type="MSShapeGroup"></path>
        </g>
    </g>
</svg>