<?xml version="1.0" encoding="UTF-8" standalone="no"?>
<svg width="59px" height="60px" viewBox="0 0 59 60" version="1.1" xmlns="http://www.w3.org/2000/svg" xmlns:xlink="http://www.w3.org/1999/xlink" xmlns:sketch="http://www.bohemiancoding.com/sketch/ns">
    <!-- Generator: Sketch 3.2.2 (9983) - http://www.bohemiancoding.com/sketch -->
    <title>12 - Train (Flat)</title>
    <desc>Created with Sketch.</desc>
    <defs></defs>
    <g id="Page-1" stroke="none" stroke-width="1" fill="none" fill-rule="evenodd" sketch:type="MSPage">
        <g id="12---Train-(Flat)" sketch:type="MSLayerGroup">
            <path d="M34.523,47 C34.19,47.94 34,48.946 34,50 C34,54.97 38.029,59 43,59 C47.971,59 52,54.97 52,50 C52,48.946 51.81,47.94 51.477,47" id="Fill-1" fill="#FFFFFF" sketch:type="MSShapeGroup"></path>
            <path d="M43,60 C37.486,60 33,55.514 33,50 C33,48.875 33.195,47.753 33.581,46.666 C33.766,46.145 34.339,45.871 34.857,46.058 C35.378,46.242 35.65,46.814 35.466,47.334 C35.157,48.207 35,49.103 35,50 C35,54.411 38.589,58 43,58 C47.411,58 51,54.411 51,50 C51,49.103 50.843,48.207 50.534,47.334 C50.35,46.814 50.622,46.242 51.143,46.058 C51.659,45.874 52.233,46.145 52.419,46.666 C52.805,47.753 53,48.875 53,50 C53,55.514 48.514,60 43,60" id="Fill-2" fill="#95A5A5" sketch:type="MSShapeGroup"></path>
            <path d="M43,54 C40.794,54 39,52.206 39,50 C39,47.794 40.794,46 43,46 C45.206,46 47,47.794 47,50 C47,52.206 45.206,54 43,54 L43,54 Z M43,48 C41.897,48 41,48.897 41,50 C41,51.103 41.897,52 43,52 C44.103,52 45,51.103 45,50 C45,48.897 44.103,48 43,48 L43,48 Z" id="Fill-3" fill="#95A5A5" sketch:type="MSShapeGroup"></path>
            <path d="M43,53 L43,59" id="Fill-4" fill="#FFFFFF" sketch:type="MSShapeGroup"></path>
            <path d="M43,60 C42.447,60 42,59.552 42,59 L42,53 C42,52.448 42.447,52 43,52 C43.553,52 44,52.448 44,53 L44,59 C44,59.552 43.553,60 43,60" id="Fill-5" fill="#95A5A5" sketch:type="MSShapeGroup"></path>
            <path d="M52,51 L46,51 C45.447,51 45,50.552 45,50 C45,49.448 45.447,49 46,49 L52,49 C52.553,49 53,49.448 53,50 C53,50.552 52.553,51 52,51" id="Fill-6" fill="#95A5A5" sketch:type="MSShapeGroup"></path>
            <path d="M40,51 L34,51 C33.447,51 33,50.552 33,50 C33,49.448 33.447,49 34,49 L40,49 C40.553,49 41,49.448 41,50 C41,50.552 40.553,51 40,51" id="Fill-7" fill="#95A5A5" sketch:type="MSShapeGroup"></path>
            <path d="M58,45 L57,45 C56.447,45 56,44.552 56,44 C56,43.448 56.447,43 57,43 L58,43 C58.553,43 59,43.448 59,44 C59,44.552 58.553,45 58,45" id="Fill-8" fill="#95A5A5" sketch:type="MSShapeGroup"></path>
            <path d="M58,42 L57,42 C56.447,42 56,41.552 56,41 C56,40.448 56.447,40 57,40 L58,40 C58.553,40 59,40.448 59,41 C59,41.552 58.553,42 58,42" id="Fill-9" fill="#95A5A5" sketch:type="MSShapeGroup"></path>
            <path d="M58,39 L57,39 C56.447,39 56,38.552 56,38 C56,37.448 56.447,37 57,37 L58,37 C58.553,37 59,37.448 59,38 C59,38.552 58.553,39 58,39" id="Fill-10" fill="#95A5A5" sketch:type="MSShapeGroup"></path>
            <path d="M55,53 C54.447,53 54,52.552 54,52 L54,47 C54,46.448 54.447,46 55,46 C55.553,46 56,46.448 56,47 L56,52 C56,52.552 55.553,53 55,53" id="Fill-11" fill="#7F8C8D" sketch:type="MSShapeGroup"></path>
            <path d="M58,52 L55,52 C54.447,52 54,51.552 54,51 C54,50.448 54.447,50 55,50 L58,50 C58.553,50 59,50.448 59,51 C59,51.552 58.553,52 58,52" id="Fill-12" fill="#7F8C8D" sketch:type="MSShapeGroup"></path>
            <path d="M9.938,54 L2,54 L2,46 L9.938,46 L9.466,47.334 C9.157,48.207 9,49.103 9,50 C9,50.897 9.157,51.794 9.466,52.666 L9.938,54 L9.938,54 Z M4,52 L7.207,52 C7.069,51.339 7,50.67 7,50 C7,49.33 7.069,48.661 7.207,48 L4,48 L4,52 L4,52 Z" id="Fill-13" fill="#7F8C8D" sketch:type="MSShapeGroup"></path>
            <path d="M31,54 L24.062,54 L24.534,52.666 C24.843,51.794 25,50.897 25,50 C25,49.103 24.843,48.207 24.534,47.334 L24.062,46 L31,46 L31,54 L31,54 Z M26.793,52 L29,52 L29,48 L26.793,48 C26.931,48.661 27,49.33 27,50 C27,50.67 26.931,51.339 26.793,52 L26.793,52 Z" id="Fill-14" fill="#7F8C8D" sketch:type="MSShapeGroup"></path>
            <path d="M29,15 L29,26.754 C29,28.547 27.547,30 25.754,30 L6.194,30 C5.535,30 5,30.535 5,31.194 L5,47 L8.523,47 C9.76,43.507 13.083,41 17,41 C20.917,41 24.24,43.507 25.477,47 L57,47 L57,15 L29,15" id="Fill-15" fill="#13A085" sketch:type="MSShapeGroup"></path>
            <path d="M26,50 C26,54.971 21.971,59 17,59 C12.029,59 8,54.971 8,50 C8,45.029 12.029,41 17,41 C21.971,41 26,45.029 26,50" id="Fill-16" fill="#FFFFFF" sketch:type="MSShapeGroup"></path>
            <path d="M17,60 C11.486,60 7,55.514 7,50 C7,44.486 11.486,40 17,40 C22.514,40 27,44.486 27,50 C27,55.514 22.514,60 17,60 L17,60 Z M17,42 C12.589,42 9,45.589 9,50 C9,54.411 12.589,58 17,58 C21.411,58 25,54.411 25,50 C25,45.589 21.411,42 17,42 L17,42 Z" id="Fill-17" fill="#95A5A5" sketch:type="MSShapeGroup"></path>
            <path d="M17,54 C14.794,54 13,52.206 13,50 C13,47.794 14.794,46 17,46 C19.206,46 21,47.794 21,50 C21,52.206 19.206,54 17,54 L17,54 Z M17,48 C15.897,48 15,48.897 15,50 C15,51.103 15.897,52 17,52 C18.103,52 19,51.103 19,50 C19,48.897 18.103,48 17,48 L17,48 Z" id="Fill-18" fill="#95A5A5" sketch:type="MSShapeGroup"></path>
            <path d="M19.121,48.879 C18.865,48.879 18.609,48.781 18.414,48.586 C18.023,48.195 18.023,47.563 18.414,47.172 L22.657,42.929 C23.048,42.539 23.681,42.539 24.071,42.929 C24.462,43.32 24.462,43.953 24.071,44.343 L19.828,48.586 C19.633,48.781 19.377,48.879 19.121,48.879" id="Fill-19" fill="#95A5A5" sketch:type="MSShapeGroup"></path>
            <path d="M10.636,57.364 C10.38,57.364 10.124,57.266 9.929,57.071 C9.538,56.68 9.538,56.047 9.929,55.657 L14.172,51.414 C14.563,51.023 15.195,51.023 15.586,51.414 C15.977,51.805 15.977,52.438 15.586,52.828 L11.343,57.071 C11.147,57.266 10.892,57.364 10.636,57.364" id="Fill-20" fill="#95A5A5" sketch:type="MSShapeGroup"></path>
            <path d="M23.364,57.364 C23.108,57.364 22.853,57.266 22.657,57.071 L18.414,52.828 C18.023,52.438 18.023,51.805 18.414,51.414 C18.805,51.023 19.438,51.023 19.828,51.414 L24.071,55.657 C24.462,56.047 24.462,56.68 24.071,57.071 C23.876,57.266 23.62,57.364 23.364,57.364" id="Fill-21" fill="#95A5A5" sketch:type="MSShapeGroup"></path>
            <path d="M14.879,48.879 C14.623,48.879 14.367,48.781 14.172,48.586 L9.929,44.343 C9.538,43.953 9.538,43.32 9.929,42.929 C10.319,42.539 10.952,42.539 11.343,42.929 L15.586,47.172 C15.977,47.563 15.977,48.195 15.586,48.586 C15.391,48.781 15.135,48.879 14.879,48.879" id="Fill-22" fill="#95A5A5" sketch:type="MSShapeGroup"></path>
            <path d="M57.526,15 L27,15 L30,7 L54,7 L57.85,14.551 C57.924,14.772 57.759,15 57.526,15" id="Fill-23" fill="#4C8056" sketch:type="MSShapeGroup"></path>
            <path d="M41,29 L33,29 L33,21 L36,18 L38,18 L41,21 L41,29" id="Fill-24" fill="#ECF0F1" sketch:type="MSShapeGroup"></path>
            <path d="M42,30 L32,30 L32,20.586 L35.586,17 L38.414,17 L42,20.586 L42,30 L42,30 Z M34,28 L40,28 L40,21.414 L37.586,19 L36.414,19 L34,21.414 L34,28 L34,28 Z" id="Fill-25" fill="#F0C419" sketch:type="MSShapeGroup"></path>
            <path d="M53,29 L45,29 L45,21 L48,18 L50,18 L53,21 L53,29" id="Fill-26" fill="#ECF0F1" sketch:type="MSShapeGroup"></path>
            <path d="M54,30 L44,30 L44,20.586 L47.586,17 L50.414,17 L54,20.586 L54,30 L54,30 Z M46,28 L52,28 L52,21.414 L49.586,19 L48.414,19 L46,21.414 L46,28 L46,28 Z" id="Fill-27" fill="#F0C419" sketch:type="MSShapeGroup"></path>
            <path d="M5,47 L1.902,47 C0.852,47 0,46.148 0,45.098 L0,40 L5,37 L5,47" id="Fill-28" fill="#4C8056" sketch:type="MSShapeGroup"></path>
            <path d="M9,26 L17,26 L17,30 L9,30 L9,26 Z" id="Fill-29" fill="#4C8056" sketch:type="MSShapeGroup"></path>
            <path d="M17,26 L9,26 L8,21 L11.047,17 L14.997,17 L18,20.956 L17,26" id="Fill-30" fill="#13A085" sketch:type="MSShapeGroup"></path>
            <path d="M13,14 C12.447,14 12,13.552 12,13 C12,10.794 13.794,9 16,9 C16.553,9 17,9.448 17,10 C17,10.552 16.553,11 16,11 C14.897,11 14,11.897 14,13 C14,13.552 13.553,14 13,14" id="Fill-31" fill="#ECF0F1" sketch:type="MSShapeGroup"></path>
            <path d="M16,11 C15.447,11 15,10.552 15,10 C15,9.448 15.447,9 16,9 C17.103,9 18,8.103 18,7 C18,6.448 18.447,6 19,6 C19.553,6 20,6.448 20,7 C20,9.206 18.206,11 16,11" id="Fill-32" fill="#ECF0F1" sketch:type="MSShapeGroup"></path>
            <path d="M19,8 C18.447,8 18,7.552 18,7 C18,4.794 19.794,3 22,3 C22.553,3 23,3.448 23,4 C23,4.552 22.553,5 22,5 C20.897,5 20,5.897 20,7 C20,7.552 19.553,8 19,8" id="Fill-33" fill="#ECF0F1" sketch:type="MSShapeGroup"></path>
            <path d="M22,5 C21.447,5 21,4.552 21,4 C21,3.448 21.447,3 22,3 C23.103,3 24,2.103 24,1 C24,0.448 24.447,0 25,0 C25.553,0 26,0.448 26,1 C26,3.206 24.206,5 22,5" id="Fill-34" fill="#ECF0F1" sketch:type="MSShapeGroup"></path>
            <path d="M21,25 L24,25 L24,30 L21,30 L21,25 Z" id="Fill-35" fill="#4C8056" sketch:type="MSShapeGroup"></path>
            <path d="M29,44 C28.447,44 28,43.552 28,43 L28,33 C28,32.448 28.447,32 29,32 C29.553,32 30,32.448 30,33 L30,43 C30,43.552 29.553,44 29,44" id="Fill-36" fill="#F0C419" sketch:type="MSShapeGroup"></path>
            <path d="M8,33 L26,33 L26,39 L8,39 L8,33 Z M10,37 L24,37 L24,35 L10,35 L10,37 Z" id="Fill-37" fill="#F0C419" sketch:type="MSShapeGroup"></path>
            <path d="M32,44 L54,44 L54,32 L32,32 L32,44 Z M41.414,42 L37.414,38 L41.414,34 L44.586,34 L48.586,38 L44.586,42 L41.414,42 L41.414,42 Z M34,34 L38.586,34 L35.293,37.293 C34.902,37.684 34.902,38.316 35.293,38.707 L38.586,42 L34,42 L34,34 L34,34 Z M52,42 L47.414,42 L50.707,38.707 C51.098,38.316 51.098,37.684 50.707,37.293 L47.414,34 L52,34 L52,42 L52,42 Z" id="Fill-38" fill="#F0C419" sketch:type="MSShapeGroup"></path>
        </g>
    </g>
</svg>