<?xml version="1.0" encoding="UTF-8" standalone="no"?>
<svg width="48px" height="58px" viewBox="0 0 48 58" version="1.1" xmlns="http://www.w3.org/2000/svg" xmlns:xlink="http://www.w3.org/1999/xlink" xmlns:sketch="http://www.bohemiancoding.com/sketch/ns">
    <!-- Generator: Sketch 3.2.2 (9983) - http://www.bohemiancoding.com/sketch -->
    <title>4 - Wanted Poster (Flat)</title>
    <desc>Created with Sketch.</desc>
    <defs></defs>
    <g id="Page-1" stroke="none" stroke-width="1" fill="none" fill-rule="evenodd" sketch:type="MSPage">
        <g id="4---Wanted-Poster-(Flat)" sketch:type="MSLayerGroup">
            <path d="M42,45 L48,42.75 L48,9.125 L45,8 L48,6.875 L48,0 L41.125,0 L40,3 L38.875,0 L0,0 L0,13.375 L7,16 L0,18.625 L0,51.5 L4,53 L0,54.5 L0,58 L10.875,58 L12,55 L13.125,58 L48,58 L48,47.25 L42,45" id="Fill-1" fill="#CBB292" sketch:type="MSShapeGroup"></path>
            <path d="M24.5,37.542 C20.586,37.542 16.944,36.863 13.89,35.699 C15.577,43.493 19.69,47.655 24.5,47.655 C29.31,47.655 33.423,43.493 35.11,35.699 C32.056,36.863 28.414,37.542 24.5,37.542" id="Fill-2" fill="#CBB292" sketch:type="MSShapeGroup"></path>
            <path d="M24.5,48.655 C18.972,48.655 14.64,43.891 12.912,35.911 L12.521,34.108 L14.246,34.765 C17.296,35.927 20.842,36.542 24.5,36.542 C28.158,36.542 31.704,35.927 34.754,34.765 L36.478,34.108 L36.088,35.911 C34.36,43.891 30.028,48.655 24.5,48.655 L24.5,48.655 Z M15.306,37.237 C17.011,43.171 20.373,46.655 24.5,46.655 C28.627,46.655 31.989,43.171 33.694,37.237 C28.017,38.95 20.983,38.95 15.306,37.237 L15.306,37.237 Z" id="Fill-3" fill="#7F6E5D" sketch:type="MSShapeGroup"></path>
            <path d="M25.172,46.31 L22.483,49" id="Fill-4" fill="#FFFFFF" sketch:type="MSShapeGroup"></path>
            <path d="M22.482,50 C22.227,50 21.971,49.902 21.775,49.707 C21.385,49.316 21.385,48.683 21.775,48.293 L24.466,45.603 C24.856,45.213 25.489,45.213 25.88,45.603 C26.271,45.994 26.271,46.627 25.88,47.018 L23.189,49.707 C22.994,49.902 22.738,50 22.482,50" id="Fill-5" fill="#7F6E5D" sketch:type="MSShapeGroup"></path>
            <path d="M23.828,46.31 L26.517,49" id="Fill-6" fill="#FFFFFF" sketch:type="MSShapeGroup"></path>
            <path d="M26.518,50 C26.262,50 26.006,49.902 25.81,49.707 L23.12,47.018 C22.729,46.627 22.729,45.994 23.12,45.603 C23.511,45.213 24.144,45.213 24.534,45.603 L27.225,48.293 C27.615,48.683 27.615,49.316 27.225,49.707 C27.029,49.902 26.773,50 26.518,50" id="Fill-7" fill="#7F6E5D" sketch:type="MSShapeGroup"></path>
            <path d="M37.3,26.353 C37.355,26.588 37.238,26.83 37.02,26.934 L33.914,28.413 C27.809,31.617 21.415,31.621 15.086,28.413 L11.98,26.934 C11.762,26.83 11.645,26.588 11.7,26.353 L15.086,11.866 C15.215,11.091 15.719,10.483 16.371,10.181 C17.042,9.871 17.833,9.977 18.465,10.359 L20.495,11.586 C22.958,13.075 26.042,13.075 28.505,11.586 L30.535,10.359 C31.167,9.977 31.958,9.871 32.629,10.181 C33.281,10.483 33.785,11.091 33.914,11.866 L37.3,26.353" id="Fill-8" fill="#E4C05C" sketch:type="MSShapeGroup"></path>
            <path d="M32.629,10.181 C31.958,9.871 31.167,9.977 30.535,10.359 L28.505,11.586 C26.042,13.075 22.958,13.075 20.495,11.586 L18.465,10.359 C17.833,9.977 17.042,9.871 16.371,10.181 C15.719,10.483 15.215,11.091 15.086,11.866 L12.596,22.52 L15.086,23.706 C21.415,26.914 27.809,26.91 33.914,23.706 L36.404,22.52 L33.914,11.866 C33.785,11.091 33.281,10.483 32.629,10.181" id="Fill-9" fill="#E6E7E8" sketch:type="MSShapeGroup"></path>
            <path d="M36.949,24.854 L37.3,26.353 C37.355,26.588 37.238,26.83 37.02,26.934 L33.914,28.413 C27.809,31.617 21.415,31.621 15.086,28.413 L11.98,26.934 C11.762,26.83 11.645,26.588 11.7,26.353 L12.051,24.854 C7.744,23.423 5,22.572 5,26.111 C5,32.424 13.731,37.542 24.5,37.542 C35.269,37.542 44,32.424 44,26.111 C44,22.572 41.256,23.423 36.949,24.854" id="Fill-10" fill="#E6E7E8" sketch:type="MSShapeGroup"></path>
        </g>
    </g>
</svg>