<?xml version="1.0" encoding="UTF-8" standalone="no"?>
<svg width="43px" height="60px" viewBox="0 0 43 60" version="1.1" xmlns="http://www.w3.org/2000/svg" xmlns:xlink="http://www.w3.org/1999/xlink" xmlns:sketch="http://www.bohemiancoding.com/sketch/ns">
    <!-- Generator: Sketch 3.2.2 (9983) - http://www.bohemiancoding.com/sketch -->
    <title>11 - Water Mill (Flat)</title>
    <desc>Created with Sketch.</desc>
    <defs></defs>
    <g id="Page-1" stroke="none" stroke-width="1" fill="none" fill-rule="evenodd" sketch:type="MSPage">
        <g id="11---Water-Mill-(Flat)" sketch:type="MSLayerGroup">
            <path d="M27,59 L5,59 L10,34 L22,34 L27,59" id="Fill-1" fill="#FFFFFF" sketch:type="MSShapeGroup"></path>
            <path d="M28.22,60 L3.78,60 L9.181,33 L22.819,33 L28.22,60 L28.22,60 Z M6.22,58 L25.78,58 L21.181,35 L10.819,35 L6.22,58 L6.22,58 Z" id="Fill-2" fill="#7F6E5D" sketch:type="MSShapeGroup"></path>
            <path d="M7,34 L25,34" id="Fill-3" fill="#FFFFFF" sketch:type="MSShapeGroup"></path>
            <path d="M25,35 L7,35 C6.447,35 6,34.552 6,34 C6,33.448 6.447,33 7,33 L25,33 C25.553,33 26,33.448 26,34 C26,34.552 25.553,35 25,35" id="Fill-4" fill="#7F6E5D" sketch:type="MSShapeGroup"></path>
            <path d="M2,59 L30,59" id="Fill-5" fill="#FFFFFF" sketch:type="MSShapeGroup"></path>
            <path d="M30,60 L2,60 C1.447,60 1,59.552 1,59 C1,58.448 1.447,58 2,58 L30,58 C30.553,58 31,58.448 31,59 C31,59.552 30.553,60 30,60" id="Fill-6" fill="#7F6E5D" sketch:type="MSShapeGroup"></path>
            <path d="M8,44 L23,59" id="Fill-7" fill="#FFFFFF" sketch:type="MSShapeGroup"></path>
            <path d="M23,60 C22.744,60 22.488,59.902 22.293,59.707 L7.293,44.707 C6.902,44.316 6.902,43.684 7.293,43.293 C7.684,42.902 8.316,42.902 8.707,43.293 L23.707,58.293 C24.098,58.684 24.098,59.316 23.707,59.707 C23.512,59.902 23.256,60 23,60" id="Fill-8" fill="#7F6E5D" sketch:type="MSShapeGroup"></path>
            <path d="M24,44 L9,59" id="Fill-9" fill="#FFFFFF" sketch:type="MSShapeGroup"></path>
            <path d="M9,60 C8.744,60 8.488,59.902 8.293,59.707 C7.902,59.316 7.902,58.684 8.293,58.293 L23.293,43.293 C23.684,42.902 24.316,42.902 24.707,43.293 C25.098,43.684 25.098,44.316 24.707,44.707 L9.707,59.707 C9.512,59.902 9.256,60 9,60" id="Fill-10" fill="#7F6E5D" sketch:type="MSShapeGroup"></path>
            <path d="M28,16 C28,22.627 22.628,28 16,28 C9.373,28 4,22.627 4,16 C4,9.373 9.373,4 16,4 C22.628,4 28,9.373 28,16" id="Fill-11" fill="#ECF0F1" sketch:type="MSShapeGroup"></path>
            <path d="M16,29 C8.832,29 3,23.168 3,16 C3,8.832 8.832,3 16,3 C23.168,3 29,8.832 29,16 C29,23.168 23.168,29 16,29 L16,29 Z M16,5 C9.935,5 5,9.935 5,16 C5,22.065 9.935,27 16,27 C22.065,27 27,22.065 27,16 C27,9.935 22.065,5 16,5 L16,5 Z" id="Fill-12" fill="#95A5A5" sketch:type="MSShapeGroup"></path>
            <path d="M33.928,14.582 C33.972,15.049 34,15.521 34,16 C34,17.161 33.855,18.287 33.606,19.372 L42,21 L42,13 L33.928,14.582" id="Fill-13" fill="#ECF0F1" sketch:type="MSShapeGroup"></path>
            <path d="M43,22.212 L32.398,20.157 L32.631,19.147 C32.876,18.085 33,17.025 33,16 C33,15.553 32.975,15.112 32.933,14.675 L32.849,13.774 L43,11.785 L43,22.212 L43,22.212 Z M34.781,18.582 L41,19.788 L41,14.215 L34.987,15.393 C34.996,15.6 35,15.802 35,16 C35,16.847 34.927,17.712 34.781,18.582 L34.781,18.582 Z" id="Fill-14" fill="#7F8C8D" sketch:type="MSShapeGroup"></path>
            <path d="M16,1 L16,31" id="Fill-15" fill="#ECF0F1" sketch:type="MSShapeGroup"></path>
            <path d="M16,32 C15.447,32 15,31.552 15,31 L15,1 C15,0.448 15.447,0 16,0 C16.553,0 17,0.448 17,1 L17,31 C17,31.552 16.553,32 16,32" id="Fill-16" fill="#95A5A5" sketch:type="MSShapeGroup"></path>
            <path d="M31,16 L1,16" id="Fill-17" fill="#ECF0F1" sketch:type="MSShapeGroup"></path>
            <path d="M31,17 L1,17 C0.447,17 0,16.552 0,16 C0,15.448 0.447,15 1,15 L31,15 C31.553,15 32,15.448 32,16 C32,16.552 31.553,17 31,17" id="Fill-18" fill="#95A5A5" sketch:type="MSShapeGroup"></path>
            <path d="M26.607,5.393 L5.393,26.607" id="Fill-19" fill="#ECF0F1" sketch:type="MSShapeGroup"></path>
            <path d="M5.394,27.606 C5.138,27.606 4.882,27.509 4.687,27.314 C4.296,26.923 4.296,26.29 4.687,25.899 L25.899,4.687 C26.29,4.296 26.923,4.296 27.313,4.687 C27.704,5.077 27.704,5.71 27.313,6.101 L6.101,27.314 C5.905,27.509 5.649,27.606 5.394,27.606" id="Fill-20" fill="#95A5A5" sketch:type="MSShapeGroup"></path>
            <path d="M26.607,26.607 L5.393,5.393" id="Fill-21" fill="#ECF0F1" sketch:type="MSShapeGroup"></path>
            <path d="M26.606,27.606 C26.351,27.606 26.095,27.509 25.899,27.314 L4.687,6.101 C4.296,5.71 4.296,5.077 4.687,4.687 C5.077,4.296 5.71,4.296 6.101,4.687 L27.313,25.899 C27.704,26.29 27.704,26.923 27.313,27.314 C27.118,27.509 26.862,27.606 26.606,27.606" id="Fill-22" fill="#95A5A5" sketch:type="MSShapeGroup"></path>
        </g>
    </g>
</svg>