<?xml version="1.0" encoding="UTF-8" standalone="no"?>
<svg width="38px" height="55px" viewBox="0 0 38 55" version="1.1" xmlns="http://www.w3.org/2000/svg" xmlns:xlink="http://www.w3.org/1999/xlink" xmlns:sketch="http://www.bohemiancoding.com/sketch/ns">
    <!-- Generator: Sketch 3.2.2 (9983) - http://www.bohemiancoding.com/sketch -->
    <title>28 - Whiskey Bottle (Flat)</title>
    <desc>Created with Sketch.</desc>
    <defs></defs>
    <g id="Page-1" stroke="none" stroke-width="1" fill="none" fill-rule="evenodd" sketch:type="MSPage">
        <g id="28---Whiskey-Bottle-(Flat)" sketch:type="MSLayerGroup">
            <path d="M26,18 L26,6 L12,6 L12,18 L1,18 L1,54 L37,54 L37,18 L26,18" id="Fill-1" fill="#FFFFFF" sketch:type="MSShapeGroup"></path>
            <path d="M26,36 L1,36 L1,54 L37,54 L37,36 L26,36" id="Fill-2" fill="#F0C419" sketch:type="MSShapeGroup"></path>
            <path d="M36.367,17 L27,17 L27,5 L23,5 L23,7 L25,7 L25,19 L36,19 L36,53 L2,53 L2,19 L13,19 L13,7 L15,7 L15,5 L11,5 L11,17 L1.633,17 C0.732,17 0,17.732 0,18.633 L0,53.367 C0,54.268 0.732,55 1.633,55 L36.367,55 C37.268,55 38,54.268 38,53.367 L38,18.633 C38,17.732 37.268,17 36.367,17" id="Fill-3" fill="#ECF0F1" sketch:type="MSShapeGroup"></path>
            <path d="M15.293,21.707 L17.586,24 L13,28.586 L8.414,24 L10.707,21.707 C11.098,21.316 11.098,20.684 10.707,20.293 C10.316,19.902 9.684,19.902 9.293,20.293 L7,22.586 L4.707,20.293 C4.316,19.902 3.684,19.902 3.293,20.293 C2.902,20.684 2.902,21.316 3.293,21.707 L5.586,24 L3.293,26.293 C2.902,26.684 2.902,27.316 3.293,27.707 C3.488,27.902 3.744,28 4,28 C4.256,28 4.512,27.902 4.707,27.707 L7,25.414 L11.586,30 L7,34.586 L4.707,32.293 C4.316,31.902 3.684,31.902 3.293,32.293 C2.902,32.684 2.902,33.316 3.293,33.707 L5.586,36 L3.293,38.293 C2.902,38.684 2.902,39.316 3.293,39.707 C3.488,39.902 3.744,40 4,40 C4.256,40 4.512,39.902 4.707,39.707 L7,37.414 L11.586,42 L7,46.586 L4.707,44.293 C4.316,43.902 3.684,43.902 3.293,44.293 C2.902,44.684 2.902,45.316 3.293,45.707 L5.586,48 L3.293,50.293 C2.902,50.684 2.902,51.316 3.293,51.707 C3.488,51.902 3.744,52 4,52 C4.256,52 4.512,51.902 4.707,51.707 L7,49.414 L9.293,51.707 C9.488,51.902 9.744,52 10,52 C10.256,52 10.512,51.902 10.707,51.707 C11.098,51.316 11.098,50.684 10.707,50.293 L8.414,48 L13,43.414 L17.586,48 L15.293,50.293 C14.902,50.684 14.902,51.316 15.293,51.707 C15.488,51.902 15.744,52 16,52 C16.256,52 16.512,51.902 16.707,51.707 L19,49.414 L21.293,51.707 C21.488,51.902 21.744,52 22,52 C22.256,52 22.512,51.902 22.707,51.707 C23.098,51.316 23.098,50.684 22.707,50.293 L20.414,48 L25,43.414 L29.586,48 L27.293,50.293 C26.902,50.684 26.902,51.316 27.293,51.707 C27.488,51.902 27.744,52 28,52 C28.256,52 28.512,51.902 28.707,51.707 L31,49.414 L33.293,51.707 C33.488,51.902 33.744,52 34,52 C34.256,52 34.512,51.902 34.707,51.707 C35.098,51.316 35.098,50.684 34.707,50.293 L32.414,48 L34.707,45.707 C35.098,45.316 35.098,44.684 34.707,44.293 C34.316,43.902 33.684,43.902 33.293,44.293 L31,46.586 L26.414,42 L31,37.414 L33.293,39.707 C33.488,39.902 33.744,40 34,40 C34.256,40 34.512,39.902 34.707,39.707 C35.098,39.316 35.098,38.684 34.707,38.293 L32.414,36 L34.707,33.707 C35.098,33.316 35.098,32.684 34.707,32.293 C34.316,31.902 33.684,31.902 33.293,32.293 L31,34.586 L26.414,30 L31,25.414 L33.293,27.707 C33.488,27.902 33.744,28 34,28 C34.256,28 34.512,27.902 34.707,27.707 C35.098,27.316 35.098,26.684 34.707,26.293 L32.414,24 L34.707,21.707 C35.098,21.316 35.098,20.684 34.707,20.293 C34.316,19.902 33.684,19.902 33.293,20.293 L31,22.586 L28.707,20.293 C28.316,19.902 27.684,19.902 27.293,20.293 C26.902,20.684 26.902,21.316 27.293,21.707 L29.586,24 L25,28.586 L20.414,24 L22.707,21.707 C23.098,21.316 23.098,20.684 22.707,20.293 C22.316,19.902 21.684,19.902 21.293,20.293 L19,22.586 L16.707,20.293 C16.316,19.902 15.684,19.902 15.293,20.293 C14.902,20.684 14.902,21.316 15.293,21.707 L15.293,21.707 Z M8.414,36 L13,31.414 L17.586,36 L13,40.586 L8.414,36 L8.414,36 Z M19,46.586 L14.414,42 L19,37.414 L23.586,42 L19,46.586 L19,46.586 Z M29.586,36 L25,40.586 L20.414,36 L25,31.414 L29.586,36 L29.586,36 Z M23.586,30 L19,34.586 L14.414,30 L19,25.414 L23.586,30 L23.586,30 Z" id="Fill-4" fill="#ECF0F1" sketch:type="MSShapeGroup"></path>
            <path d="M30,0 L8,0 C6.35,0 5,1.35 5,3 C5,4.65 6.35,6 8,6 L15,6 L15,11 C15,13.2 16.8,15 19,15 C21.2,15 23,13.2 23,11 L23,6 L30,6 C31.65,6 33,4.65 33,3 C33,1.35 31.65,0 30,0" id="Fill-5" fill="#CB8252" sketch:type="MSShapeGroup"></path>
            <path d="M20,7 L18,7 C17.448,7 17,6.552 17,6 C17,5.448 17.448,5 18,5 L20,5 C20.552,5 21,5.448 21,6 C21,6.552 20.552,7 20,7" id="Fill-6" fill="#7F5B53" sketch:type="MSShapeGroup"></path>
            <path d="M11,3 C11,3.552 11.448,4 12,4 C12.552,4 13,3.552 13,3 L13,0 L11,0 L11,3" id="Fill-7" fill="#7F5B53" sketch:type="MSShapeGroup"></path>
        </g>
    </g>
</svg>