<?xml version="1.0" encoding="UTF-8" standalone="no"?>
<svg width="50px" height="47px" viewBox="0 0 50 47" version="1.1" xmlns="http://www.w3.org/2000/svg" xmlns:xlink="http://www.w3.org/1999/xlink" xmlns:sketch="http://www.bohemiancoding.com/sketch/ns">
    <!-- Generator: Sketch 3.2.2 (9983) - http://www.bohemiancoding.com/sketch -->
    <title>8 - Baby Food (Flat)</title>
    <desc>Created with Sketch.</desc>
    <defs></defs>
    <g id="Page-1" stroke="none" stroke-width="1" fill="none" fill-rule="evenodd" sketch:type="MSPage">
        <g id="8---Baby-Food-(Flat)" sketch:type="MSLayerGroup">
            <path d="M44.772,47 L25.229,47 C22.341,47 20,45.659 20,42.772 L20,20.229 C20,17.341 22.341,15 25.229,15 L44.772,15 C47.659,15 50,17.341 50,20.229 L50,42.772 C50,45.659 47.659,47 44.772,47" id="Fill-282" fill="#EDE9D9" sketch:type="MSShapeGroup"></path>
            <path d="M6,28 C5.448,28 5,27.553 5,27 L5,20 C5,19.447 5.448,19 6,19 C6.552,19 7,19.447 7,20 L7,27 C7,27.553 6.552,28 6,28" id="Fill-283" fill="#C4C6C5" sketch:type="MSShapeGroup"></path>
            <path d="M12,10 C12,15.523 9.314,20 6,20 C2.686,20 0,15.523 0,10 C0,4.477 2.686,0 6,0 C9.314,0 12,4.477 12,10" id="Fill-284" fill="#E5DCBE" sketch:type="MSShapeGroup"></path>
            <path d="M46,31 C46,37.075 41.075,42 35,42 C28.925,42 24,37.075 24,31 C24,24.925 28.925,20 35,20 C41.075,20 46,24.925 46,31" id="Fill-285" fill="#F09372" sketch:type="MSShapeGroup"></path>
            <path d="M46,15 L24,15 L24,8.181 C24,6.976 24.976,6 26.181,6 L43.82,6 C45.024,6 46,6.976 46,8.181 L46,15" id="Fill-286" fill="#D1D4D1" sketch:type="MSShapeGroup"></path>
            <path d="M28,12 L30,12 L30,15 L28,15 L28,12 Z" id="Fill-287" fill="#ECF0F1" sketch:type="MSShapeGroup"></path>
            <path d="M32,12 L34,12 L34,15 L32,15 L32,12 Z" id="Fill-288" fill="#ECF0F1" sketch:type="MSShapeGroup"></path>
            <path d="M36,12 L38,12 L38,15 L36,15 L36,12 Z" id="Fill-289" fill="#ECF0F1" sketch:type="MSShapeGroup"></path>
            <path d="M40,12 L42,12 L42,15 L40,15 L40,12 Z" id="Fill-290" fill="#ECF0F1" sketch:type="MSShapeGroup"></path>
            <path d="M34.999,30 C34.47,30 34.028,29.585 34.002,29.05 C33.984,28.715 33.883,25.724 35.461,24.065 C36.124,23.368 37.002,23 38,23 C38.552,23 39,23.447 39,24 C39,24.553 38.552,25 38,25 C37.544,25 37.198,25.141 36.911,25.442 C36.067,26.329 35.967,28.322 35.999,28.95 C36.026,29.502 35.602,29.971 35.05,29.999 C35.033,30 35.016,30 34.999,30" id="Fill-291" fill="#F3D55B" sketch:type="MSShapeGroup"></path>
            <path d="M6,47 L6,47 C4.35,47 3,45.65 3,44 L3,30 C3,28.35 4.35,27 6,27 C7.65,27 9,28.35 9,30 L9,44 C9,45.65 7.65,47 6,47" id="Fill-356" fill="#F8C0BC" sketch:type="MSShapeGroup"></path>
            <path d="M3,39 L9,39 L9,43 L3,43 L3,39 Z" id="Fill-357" fill="#FB7B76" sketch:type="MSShapeGroup"></path>
            <path d="M37.5,27.643 C36.519,27.643 35.635,28.164 35,29 C34.365,28.164 33.481,27.643 32.5,27.643 C30.567,27.643 29,29.658 29,32.143 C29,34.628 30.567,36.643 32.5,36.643 C33.481,36.643 34.365,36.121 35,35.286 C35.635,36.121 36.519,36.643 37.5,36.643 C39.433,36.643 41,34.628 41,32.143 C41,29.658 39.433,27.643 37.5,27.643" id="Fill-358" fill="#E64C3C" sketch:type="MSShapeGroup"></path>
        </g>
    </g>
</svg>