<?xml version="1.0" encoding="UTF-8" standalone="no"?>
<svg width="56px" height="56px" viewBox="0 0 56 56" version="1.1" xmlns="http://www.w3.org/2000/svg" xmlns:xlink="http://www.w3.org/1999/xlink" xmlns:sketch="http://www.bohemiancoding.com/sketch/ns">
    <!-- Generator: Sketch 3.2.2 (9983) - http://www.bohemiancoding.com/sketch -->
    <title>48 - Baby Boy (Flat)</title>
    <desc>Created with Sketch.</desc>
    <defs></defs>
    <g id="Page-1" stroke="none" stroke-width="1" fill="none" fill-rule="evenodd" sketch:type="MSPage">
        <g id="48---Baby-Boy-(Flat)" sketch:type="MSLayerGroup">
            <path d="M5,36.839 C2,36.839 0.558,34.658 0.558,31.967 C0.558,29.277 2,27.096 5,27.096 L5,36.839" id="Fill-25" fill="#F2BC8B" sketch:type="MSShapeGroup"></path>
            <path d="M51,36.839 C54,36.839 55.442,34.658 55.442,31.967 C55.442,29.277 54,27.096 51,27.096 L51,36.839" id="Fill-26" fill="#F2BC8B" sketch:type="MSShapeGroup"></path>
            <path d="M51.587,31.442 C51.587,44.522 40.984,55.125 27.905,55.125 C14.826,55.125 4.223,44.522 4.223,31.442 C4.223,18.363 14.826,7.76 27.905,7.76 C40.984,7.76 51.587,18.363 51.587,31.442" id="Fill-63" fill="#FDD7AD" sketch:type="MSShapeGroup"></path>
            <path d="M22.493,28.401 C22.237,28.401 21.981,28.304 21.786,28.108 C19.592,25.915 16.023,25.915 13.828,28.108 C13.437,28.499 12.804,28.499 12.414,28.108 C12.023,27.718 12.023,27.085 12.414,26.694 C15.387,23.722 20.227,23.721 23.2,26.694 C23.591,27.085 23.591,27.718 23.2,28.108 C23.005,28.304 22.749,28.401 22.493,28.401" id="Fill-64" fill="#F2BC8B" sketch:type="MSShapeGroup"></path>
            <path d="M42.5,28.401 C42.244,28.401 41.988,28.304 41.793,28.108 C40.729,27.045 39.316,26.459 37.814,26.459 C36.311,26.459 34.898,27.045 33.835,28.108 C33.445,28.499 32.812,28.499 32.421,28.108 C32.03,27.718 32.03,27.085 32.421,26.694 C33.862,25.253 35.777,24.459 37.814,24.459 C39.85,24.459 41.766,25.253 43.207,26.694 C43.598,27.085 43.598,27.718 43.207,28.108 C43.012,28.304 42.756,28.401 42.5,28.401" id="Fill-65" fill="#F2BC8B" sketch:type="MSShapeGroup"></path>
            <path d="M27.811,46.042 C25.885,46.042 23.959,45.309 22.492,43.843 C22.101,43.453 22.101,42.819 22.491,42.429 C22.882,42.038 23.515,42.039 23.906,42.428 C26.059,44.581 29.562,44.58 31.714,42.429 C32.105,42.038 32.737,42.038 33.128,42.429 C33.519,42.819 33.519,43.452 33.128,43.843 C31.662,45.309 29.736,46.042 27.811,46.042" id="Fill-66" fill="#F2BC8B" sketch:type="MSShapeGroup"></path>
            <path d="M24,14 C23.448,14 23,13.552 23,13 L23,5 C23,4.448 23.448,4 24,4 C24.552,4 25,4.448 25,5 L25,13 C25,13.552 24.552,14 24,14" id="Fill-67" fill="#2C2F38" sketch:type="MSShapeGroup"></path>
            <path d="M32,14 C31.448,14 31,13.552 31,13 L31,5 C31,4.448 31.448,4 32,4 C32.552,4 33,4.448 33,5 L33,13 C33,13.552 32.552,14 32,14" id="Fill-68" fill="#2C2F38" sketch:type="MSShapeGroup"></path>
            <path d="M28,14 C27.448,14 27,13.552 27,13 L27,1 C27,0.448 27.448,0 28,0 C28.552,0 29,0.448 29,1 L29,13 C29,13.552 28.552,14 28,14" id="Fill-69" fill="#2C2F38" sketch:type="MSShapeGroup"></path>
        </g>
    </g>
</svg>