<?xml version="1.0" encoding="UTF-8" standalone="no"?>
<svg width="60px" height="59px" viewBox="0 0 60 59" version="1.1" xmlns="http://www.w3.org/2000/svg" xmlns:xlink="http://www.w3.org/1999/xlink" xmlns:sketch="http://www.bohemiancoding.com/sketch/ns">
    <!-- Generator: Sketch 3.2.2 (9983) - http://www.bohemiancoding.com/sketch -->
    <title>26 - Baby Crib (Flat)</title>
    <desc>Created with Sketch.</desc>
    <defs></defs>
    <g id="Page-1" stroke="none" stroke-width="1" fill="none" fill-rule="evenodd" sketch:type="MSPage">
        <g id="26---Baby-Crib-(Flat)" sketch:type="MSLayerGroup">
            <path d="M9,49 L51,49 L51,55 L9,55 L9,49 Z" id="Fill-10" fill="#ECF0F1" sketch:type="MSShapeGroup"></path>
            <path d="M9,32 L51,32 L51,55 L9,55 L9,32 Z M16,32 L16,55 L16,32 Z M23,32 L23,55 L23,32 Z M30,32 L30,55 L30,32 Z M37,32 L37,55 L37,32 Z M44,32 L44,55 L44,32 Z M9,39 L51,39 L9,39 Z" id="Stroke-11" stroke="#7F6E5D" stroke-width="2" sketch:type="MSShapeGroup"></path>
            <path d="M31,6.12 L31,1 C31,0.448 30.552,0 30,0 C29.448,0 29,0.448 29,1 L29,6.025 C23.443,6.289 19,10.879 19,16.5 C19,17.052 19.448,17.5 20,17.5 C20.552,17.5 21,17.052 21,16.5 C21,11.982 24.546,8.286 29,8.025 L29,20 C29,20.552 29.448,21 30,21 C30.552,21 31,20.552 31,20 L31,8.141 C34.973,8.852 38,12.326 38,16.5 C38,17.052 38.448,17.5 39,17.5 C39.552,17.5 40,17.052 40,16.5 C40,11.221 36.08,6.852 31,6.12" id="Fill-197" fill="#D1D4D1" sketch:type="MSShapeGroup"></path>
            <path d="M33.112,22.857 C33.48,23.382 33.104,23.943 32.463,23.943 L27.537,23.943 C26.896,23.943 26.52,23.382 26.888,22.857 L29.351,19.338 C29.667,18.887 30.334,18.887 30.649,19.338 L33.112,22.857" id="Fill-198" fill="#81CCB8" sketch:type="MSShapeGroup"></path>
            <path d="M36,16 L42,16 L42,21 L36,21 L36,16 Z" id="Fill-199" fill="#C03A2B" sketch:type="MSShapeGroup"></path>
            <path d="M20,13 L21.47,15.978 L24.755,16.455 L22.378,18.773 L22.939,22.045 L20,20.5 L17.061,22.045 L17.622,18.773 L15.245,16.455 L18.531,15.978 L20,13" id="Fill-200" fill="#F0C419" sketch:type="MSShapeGroup"></path>
            <path d="M10,19 C10,21.761 7.761,24 5,24 C2.239,24 0,21.761 0,19 C0,16.239 2.239,14 5,14 C7.761,14 10,16.239 10,19" id="Fill-493" fill="#F0C419" sketch:type="MSShapeGroup"></path>
            <path d="M5,24 C3.882,24 2.86,23.62 2.028,23 L2,23 L2,59 L8,59 L8,23 L7.973,23 C7.14,23.62 6.118,24 5,24" id="Fill-494" fill="#AF8066" sketch:type="MSShapeGroup"></path>
            <path d="M60,19 C60,21.761 57.761,24 55,24 C52.239,24 50,21.761 50,19 C50,16.239 52.239,14 55,14 C57.761,14 60,16.239 60,19" id="Fill-495" fill="#F0C419" sketch:type="MSShapeGroup"></path>
            <path d="M55,24 C53.882,24 52.86,23.62 52.028,23 L52,23 L52,59 L58,59 L58,23 L57.972,23 C57.14,23.62 56.118,24 55,24" id="Fill-496" fill="#AF8066" sketch:type="MSShapeGroup"></path>
        </g>
    </g>
</svg>