<?xml version="1.0" encoding="UTF-8" standalone="no"?>
<svg width="52px" height="52px" viewBox="0 0 52 52" version="1.1" xmlns="http://www.w3.org/2000/svg" xmlns:xlink="http://www.w3.org/1999/xlink" xmlns:sketch="http://www.bohemiancoding.com/sketch/ns">
    <!-- Generator: Sketch 3.2.2 (9983) - http://www.bohemiancoding.com/sketch -->
    <title>1 - Baby Car Chair (Flat)</title>
    <desc>Created with Sketch.</desc>
    <defs></defs>
    <g id="Page-1" stroke="none" stroke-width="1" fill="none" fill-rule="evenodd" sketch:type="MSPage">
        <g id="1---Baby-Car-Chair-(Flat)" sketch:type="MSLayerGroup" transform="translate(-1.000000, 0.000000)">
            <path d="M50.889,27.4839259 C47.809,24.517037 44.918,26.6124444 43.266,28.4526667 L43.266,28.4372593 C43.272,28.4295556 43.278,28.4218519 43.285,28.4141481 L46.59,15.3457778 C46.686,13.0365926 44.527,11.5497778 42.493,11.8848889 L44.264,8.55207407 C45.801,5.65933333 44.539,1.98562963 41.387,0.823333333 C41.226,0.764592593 41.069,0.714518519 40.917,0.675037037 C38.792,0.127111111 36.588,1.35296296 36.018,3.39925926 L35.708,4.51244444 L35.713,4.49414815 C33.526,2.91585185 30.436,1.92592593 27,1.92592593 C23.564,1.92592593 20.474,2.91585185 18.287,4.49414815 L18.292,4.51244444 L17.982,3.39925926 C17.412,1.35296296 15.208,0.127111111 13.083,0.675037037 C12.931,0.714518519 12.774,0.764592593 12.613,0.823333333 C9.461,1.98562963 8.199,5.65933333 9.736,8.55207407 L11.515,11.8993333 C9.465,11.5237778 7.26,13.0134815 7.357,15.3457778 L10.662,28.4141481 C9.02,26.5835556 6.17,24.5382222 3.111,27.4839259 C-1.639,32.058 3.111,35.1876296 3.111,35.1876296 L9.886,40.4059259 L8.312,42.5273333 C7.527,43.5856296 7.527,45.006963 8.312,46.0652593 C10.627,49.1852593 14.363,51.037037 18.344,51.037037 L35.656,51.037037 C39.637,51.037037 43.373,49.1852593 45.688,46.0652593 C46.473,45.006963 46.473,43.5856296 45.688,42.5273333 L44.115,40.4059259 L50.889,35.1876296 C50.889,35.1876296 55.639,32.058 50.889,27.4839259" id="Fill-1" fill="#682E2D" sketch:type="MSShapeGroup"></path>
            <path d="M50.889,27.4839259 C46.139,22.9098519 41.889,30.3728148 41.889,30.3728148 L39.249,34.6088889 C39.111,36.2844444 38.152,37.7568148 36.741,38.6340741 L36.213,39.4814815 L40.373,39.4814815 C41.394,39.4814815 42.352,39.9562222 42.946,40.7564444 L43.205,41.106 L50.889,35.1876296 C50.889,35.1876296 55.639,32.058 50.889,27.4839259" id="Fill-32" fill="#84423D" sketch:type="MSShapeGroup"></path>
            <path d="M14.751,34.6088889 L12.111,30.3728148 C12.111,30.3728148 7.861,22.9098519 3.111,27.4839259 C-1.639,32.058 3.111,35.1876296 3.111,35.1876296 L10.795,41.106 L11.055,40.7564444 C11.648,39.9562222 12.606,39.4814815 13.627,39.4814815 L17.787,39.4814815 L17.259,38.6340741 C15.848,37.7568148 14.889,36.2844444 14.751,34.6088889" id="Fill-33" fill="#84423D" sketch:type="MSShapeGroup"></path>
            <path d="M45.688,42.5273333 L42.946,38.8305185 C42.352,38.0302963 41.394,37.5555556 40.373,37.5555556 L31,37.5555556 C31,39.6827407 29.209,41.4074074 27,41.4074074 C24.791,41.4074074 23,39.6827407 23,37.5555556 L13.627,37.5555556 C12.606,37.5555556 11.648,38.0302963 11.055,38.8305185 L8.312,42.5273333 C7.527,43.5856296 7.527,45.006963 8.312,46.0652593 C10.627,49.1852593 14.363,51.037037 18.344,51.037037 L35.656,51.037037 C39.637,51.037037 43.373,49.1852593 45.688,46.0652593 C46.473,45.006963 46.473,43.5856296 45.688,42.5273333" id="Fill-34" fill="#7C3A35" sketch:type="MSShapeGroup"></path>
            <path d="M29,47.1851852 L25,47.1851852 C24.447,47.1851852 24,46.7547407 24,46.2222222 C24,45.6897037 24.447,45.2592593 25,45.2592593 L29,45.2592593 C29.553,45.2592593 30,45.6897037 30,46.2222222 C30,46.7547407 29.553,47.1851852 29,47.1851852" id="Fill-35" fill="#FFFFFF" sketch:type="MSShapeGroup"></path>
            <path d="M41.836,30.3728148 L39.197,34.6088889 C39.177,34.8515556 39.135,35.0874815 39.082,35.3205185 C39.213,34.7475556 39.255,34.1447407 39.174,33.5245926 L37,16.7748148 L40.624,12.8295556 C42.875,10.6628889 46.717,12.2825926 46.59,15.3457778 L43.285,28.4141481 C42.377,29.4262222 41.836,30.3728148 41.836,30.3728148" id="Fill-341" fill="#7C3A35" sketch:type="MSShapeGroup"></path>
            <path d="M16.979,18.2962963 L17,18.1335556 L21.591,16.3703704 L17.982,3.39925926 C17.412,1.35296296 15.208,0.127111111 13.083,0.675037037 C12.931,0.714518519 12.774,0.764592593 12.613,0.823333333 C9.461,1.98562963 8.199,5.65933333 9.736,8.55207407 L11.515,11.8993333 C12.157,12.0168148 12.786,12.3124444 13.323,12.8295556 L16.683,18.2500741 C16.782,18.251037 16.882,18.2702963 16.979,18.2962963" id="Fill-342" fill="#B75755" sketch:type="MSShapeGroup"></path>
            <path d="M40.917,0.675037037 C38.792,0.127111111 36.588,1.35296296 36.018,3.39925926 L32.409,16.3703704 L37,16.3703704 L37.046,16.7247407 L40.624,12.8295556 C41.178,12.2960741 41.829,11.9946667 42.493,11.8848889 L44.264,8.55207407 C45.801,5.65933333 44.539,1.98562963 41.387,0.823333333 C41.226,0.764592593 41.069,0.714518519 40.917,0.675037037" id="Fill-343" fill="#B75755" sketch:type="MSShapeGroup"></path>
            <path d="M32.409,16.3703704 L35.713,4.49414815 C33.526,2.91585185 30.436,1.92592593 27,1.92592593 C23.564,1.92592593 20.474,2.91585185 18.287,4.49414815 L21.591,16.3703704 L32.409,16.3703704" id="Fill-344" fill="#7C3A35" sketch:type="MSShapeGroup"></path>
            <path d="M31,39.4814815 C31,41.6086667 29.209,43.3333333 27,43.3333333 C24.791,43.3333333 23,41.6086667 23,39.4814815 C23,37.3542963 24.791,35.6296296 27,35.6296296 C29.209,35.6296296 31,37.3542963 31,39.4814815" id="Fill-345" fill="#441B1B" sketch:type="MSShapeGroup"></path>
            <path d="M39.227,33.5245926 L37,16.3703704 L17,16.3703704 L14.773,33.5245926 C14.363,36.6879259 16.924,39.4814815 20.234,39.4814815 L23,39.4814815 C23,37.3542963 24.791,35.6296296 27,35.6296296 C29.209,35.6296296 31,37.3542963 31,39.4814815 L33.766,39.4814815 C37.076,39.4814815 39.637,36.6879259 39.227,33.5245926" id="Fill-346" fill="#682E2D" sketch:type="MSShapeGroup"></path>
            <path d="M26.293,35.698 L22.857,19.1571852 L20.733,17.5201481 C19.767,16.7757778 18.566,16.3703704 17.328,16.3703704 L17,16.3703704 C16.765,18.1817037 17.524,19.9805185 19.004,21.1206667 L19.221,21.2872593 L23,39.4853333 L23,39.4814815 C23,37.5873333 24.422,36.0205926 26.293,35.698" id="Fill-347" fill="#F8C0BC" sketch:type="MSShapeGroup"></path>
            <path d="M37,16.3703704 L36.425,16.3703704 C35.211,16.3703704 34.033,16.7680741 33.086,17.498 L30.933,19.1571852 L27.501,35.6777778 C29.048,35.8665185 30.316,36.893037 30.79,38.2768148 C30.833,38.4000741 31.019,38.3837037 31.045,38.2565926 L34.569,21.2872593 L35.025,20.9367407 C36.449,19.838963 37.194,18.1171852 37,16.3703704" id="Fill-348" fill="#F8C0BC" sketch:type="MSShapeGroup"></path>
            <path d="M12.111,30.3728148 L14.751,34.6088889 C14.771,34.8515556 14.813,35.0874815 14.866,35.3205185 C14.735,34.7475556 14.693,34.1447407 14.773,33.5245926 L16.948,16.7748148 L13.323,12.8295556 C11.073,10.6628889 7.23,12.2825926 7.357,15.3457778 L10.662,28.4141481 C11.571,29.4262222 12.111,30.3728148 12.111,30.3728148" id="Fill-502" fill="#7C3A35" sketch:type="MSShapeGroup"></path>
        </g>
    </g>
</svg>