<?xml version="1.0" encoding="UTF-8" standalone="no"?>
<svg width="51px" height="51px" viewBox="0 0 51 51" version="1.1" xmlns="http://www.w3.org/2000/svg" xmlns:xlink="http://www.w3.org/1999/xlink" xmlns:sketch="http://www.bohemiancoding.com/sketch/ns">
    <!-- Generator: Sketch 3.2.2 (9983) - http://www.bohemiancoding.com/sketch -->
    <title>13 - Ball (Flat)</title>
    <desc>Created with Sketch.</desc>
    <defs></defs>
    <g id="Page-1" stroke="none" stroke-width="1" fill="none" fill-rule="evenodd" sketch:type="MSPage">
        <g id="13---Ball-(Flat)" sketch:type="MSLayerGroup">
            <path d="M51,25.5 C51,39.583 39.583,51 25.5,51 C11.417,51 0,39.583 0,25.5 C0,11.417 11.417,0 25.5,0 C39.583,0 51,11.417 51,25.5" id="Fill-9" fill="#00B3E9" sketch:type="MSShapeGroup"></path>
            <path d="M25.5,0 C11.417,0 0,11.417 0,25.5 C0,27.559 0.261,29.555 0.724,31.472 C3.234,25.058 7.154,19.098 12.294,13.957 C18.314,7.938 25.548,3.553 33.204,1.198 C30.773,0.426 28.187,0 25.5,0" id="Fill-363" fill="#31BCEC" sketch:type="MSShapeGroup"></path>
            <path d="M41.608,5.734 C40.002,4.425 38.234,3.308 36.339,2.417 C28.059,4.429 20.162,8.917 13.708,15.371 C8.114,20.966 4.023,27.562 1.706,34.651 C2.595,36.962 3.807,39.111 5.292,41.041 C8.957,34.602 14.125,27.933 20.197,21.86 C27.052,15.006 34.503,9.413 41.608,5.734" id="Fill-364" fill="#FFD80F" sketch:type="MSShapeGroup"></path>
            <path d="M48.583,14.661 C48.803,15.129 49.006,15.606 49.199,16.088 C49.007,15.605 48.803,15.129 48.583,14.661" id="Fill-365" fill="#F18D46" sketch:type="MSShapeGroup"></path>
            <path d="M43.836,7.789 C44.334,8.304 44.812,8.837 45.265,9.392 C44.812,8.837 44.334,8.304 43.836,7.789" id="Fill-366" fill="#F18D46" sketch:type="MSShapeGroup"></path>
            <path d="M41.608,5.735 C42.163,6.188 42.697,6.666 43.212,7.164 C42.697,6.666 42.163,6.188 41.608,5.735" id="Fill-367" fill="#F18D46" sketch:type="MSShapeGroup"></path>
            <path d="M45.266,9.392 C41.587,16.497 35.994,23.948 29.14,30.803 C23.067,36.875 16.399,42.043 9.96,45.708 C11.888,47.193 14.035,48.407 16.344,49.296 C23.435,46.979 30.033,42.887 35.629,37.292 C42.083,30.838 46.571,22.941 48.583,14.661 C47.692,12.766 46.575,10.998 45.266,9.392" id="Fill-368" fill="#FFD80F" sketch:type="MSShapeGroup"></path>
            <path d="M49.802,17.796 C47.447,25.452 43.062,32.686 37.043,38.706 C31.902,43.847 25.941,47.766 19.526,50.277 C21.444,50.739 23.44,51 25.5,51 C39.583,51 51,39.583 51,25.5 C51,22.813 50.574,20.227 49.802,17.796" id="Fill-369" fill="#31BCEC" sketch:type="MSShapeGroup"></path>
            <path d="M43.836,7.788 C43.631,7.577 43.423,7.369 43.212,7.164 C36.087,10.735 28.548,16.338 21.611,23.274 C15.453,29.434 10.256,36.204 6.665,42.688 C7.189,43.262 7.738,43.811 8.312,44.335 C14.796,40.744 21.566,35.547 27.726,29.389 C34.662,22.452 40.265,14.913 43.836,7.788" id="Fill-370" fill="#31BCEC" sketch:type="MSShapeGroup"></path>
            <path d="M34.912,1.802 C35.394,1.994 35.871,2.197 36.339,2.417 C35.871,2.197 35.395,1.993 34.912,1.802" id="Fill-371" fill="#F18D46" sketch:type="MSShapeGroup"></path>
            <path d="M34.703,1.719 C34.773,1.746 34.843,1.774 34.912,1.802 C34.843,1.774 34.773,1.746 34.703,1.719" id="Fill-372" fill="#FCC7A2" sketch:type="MSShapeGroup"></path>
            <path id="Fill-373" fill="#FCC7A2" sketch:type="MSShapeGroup"></path>
            <path d="M12.294,13.957 C7.148,19.103 3.226,25.071 0.715,31.492 C0.976,32.577 1.307,33.635 1.702,34.661 C4.02,27.568 8.112,20.968 13.708,15.371 C20.162,8.917 28.059,4.429 36.339,2.417 C35.871,2.197 35.394,1.994 34.912,1.802 C34.843,1.774 34.773,1.746 34.703,1.719 C34.216,1.53 33.722,1.352 33.22,1.193 C25.557,3.546 18.318,7.934 12.294,13.957" id="Fill-374" fill="#00A9DF" sketch:type="MSShapeGroup"></path>
            <path d="M43.836,7.788 L43.836,7.789 L43.836,7.788" id="Fill-375" fill="#FCC7A2" sketch:type="MSShapeGroup"></path>
            <path d="M45.266,9.392 C45.266,9.392 45.266,9.392 45.265,9.392 L45.266,9.392" id="Fill-376" fill="#FCC7A2" sketch:type="MSShapeGroup"></path>
            <path id="Fill-377" fill="#FCC7A2" sketch:type="MSShapeGroup"></path>
            <path d="M29.14,30.803 C35.994,23.948 41.587,16.497 45.266,9.392 C45.266,9.392 45.266,9.392 45.265,9.392 C44.812,8.837 44.334,8.304 43.836,7.789 L43.836,7.788 C40.265,14.913 34.662,22.452 27.726,29.389 C21.566,35.547 14.796,40.744 8.312,44.335 C8.84,44.817 9.39,45.273 9.957,45.71 C16.397,42.045 23.066,36.875 29.14,30.803" id="Fill-378" fill="#00A9DF" sketch:type="MSShapeGroup"></path>
            <path id="Fill-379" fill="#FCC7A2" sketch:type="MSShapeGroup"></path>
            <path id="Fill-380" fill="#FCC7A2" sketch:type="MSShapeGroup"></path>
            <path d="M41.608,5.734 L41.608,5.734 C41.608,5.734 41.608,5.734 41.608,5.735 L41.608,5.734" id="Fill-381" fill="#FCC7A2" sketch:type="MSShapeGroup"></path>
            <path d="M43.212,7.164 L43.212,7.164 C42.697,6.666 42.163,6.188 41.608,5.735 L41.608,5.734 C34.503,9.413 27.052,15.006 20.197,21.86 C14.125,27.934 8.955,34.603 5.291,41.043 C5.727,41.61 6.183,42.161 6.665,42.688 C10.256,36.204 15.453,29.434 21.611,23.274 C28.548,16.338 36.087,10.735 43.212,7.164" id="Fill-382" fill="#00A9DF" sketch:type="MSShapeGroup"></path>
            <path id="Fill-383" fill="#FCC7A2" sketch:type="MSShapeGroup"></path>
            <path d="M49.199,16.088 C49.226,16.157 49.254,16.227 49.281,16.297 C49.254,16.227 49.226,16.157 49.199,16.088" id="Fill-384" fill="#FCC7A2" sketch:type="MSShapeGroup"></path>
            <path d="M16.34,49.298 C17.365,49.693 18.423,50.024 19.508,50.285 C25.929,47.775 31.897,43.852 37.043,38.706 C43.066,32.682 47.454,25.443 49.807,17.78 C49.648,17.278 49.47,16.785 49.281,16.297 C49.254,16.227 49.226,16.157 49.199,16.088 C49.006,15.606 48.803,15.129 48.583,14.661 C46.571,22.941 42.083,30.838 35.629,37.292 C30.032,42.888 23.432,46.981 16.34,49.298" id="Fill-385" fill="#00A9DF" sketch:type="MSShapeGroup"></path>
        </g>
    </g>
</svg>