<?xml version="1.0" encoding="UTF-8" standalone="no"?>
<svg width="48px" height="49px" viewBox="0 0 48 49" version="1.1" xmlns="http://www.w3.org/2000/svg" xmlns:xlink="http://www.w3.org/1999/xlink" xmlns:sketch="http://www.bohemiancoding.com/sketch/ns">
    <!-- Generator: Sketch 3.2.2 (9983) - http://www.bohemiancoding.com/sketch -->
    <title>43 - Bath Duckling (Flat)</title>
    <desc>Created with Sketch.</desc>
    <defs></defs>
    <g id="Page-1" stroke="none" stroke-width="1" fill="none" fill-rule="evenodd" sketch:type="MSPage">
        <g id="43---Bath-Duckling-(Flat)" sketch:type="MSLayerGroup">
            <path d="M37.141,26.375 C36.142,24.392 34.655,22.556 32.455,21.256 C32.224,21.119 32.159,20.82 32.331,20.615 C33.448,19.282 37,14.747 37,11 C37,4.925 32.075,0 26,0 C19.925,0 15,4.925 15,11 C15,17 20.008,20.048 20.873,20.88 C20.959,20.962 21.003,21.066 21.001,21.185 C20.989,22.201 20.66,26.979 15.469,25.17 C14.071,24.683 12.83,23.83 11.783,22.783 L5.84,16.84 C5.37,16.37 4.6,16.431 4.206,16.965 C2.871,18.768 0.383,23.017 1,29 C1,29 1.366,45.187 12.604,48.515 C13.813,48.872 15.078,49 16.338,49 L23.196,49 C26.05,49 28.841,48.171 31.223,46.598 C31.305,46.543 31.388,46.488 31.472,46.432 C38.037,42.017 40.702,33.439 37.141,26.375" id="Fill-86" fill="#F7C346" sketch:type="MSShapeGroup"></path>
            <path d="M47.49,10 L36.95,10 C36.979,10.33 37,10.662 37,11 C37,13.351 35.602,16.011 34.284,17.997 L34.284,18 L40.155,18 C41.081,18 42.009,17.782 42.787,17.279 C45.355,15.621 47.221,12.216 47.948,10.726 C48.113,10.389 47.864,10 47.49,10" id="Fill-87" fill="#D77328" sketch:type="MSShapeGroup"></path>
            <path d="M32,9 C32,11.209 30.209,13 28,13 C25.791,13 24,11.209 24,9 C24,6.791 25.791,5 28,5 C30.209,5 32,6.791 32,9" id="Fill-88" fill="#FFFFFF" sketch:type="MSShapeGroup"></path>
            <path d="M32,10 C32,11.105 31.105,12 30,12 C28.895,12 28,11.105 28,10 C28,8.895 28.895,8 30,8 C31.105,8 32,8.895 32,10" id="Fill-89" fill="#2C2F38" sketch:type="MSShapeGroup"></path>
            <path d="M20.467,29.887 C27.19,26.474 28,34.012 28,34.012 C28,42.762 21,42.012 21,42.012 C15.053,42.012 12.067,35.743 11.242,33.669 C11.105,33.324 11.313,32.943 11.676,32.862 L12.054,32.778 C14.957,32.132 17.814,31.234 20.467,29.887" id="Fill-90" fill="#D77328" sketch:type="MSShapeGroup"></path>
        </g>
    </g>
</svg>