<?xml version="1.0" encoding="UTF-8" standalone="no"?>
<svg width="42px" height="54px" viewBox="0 0 42 54" version="1.1" xmlns="http://www.w3.org/2000/svg" xmlns:xlink="http://www.w3.org/1999/xlink" xmlns:sketch="http://www.bohemiancoding.com/sketch/ns">
    <!-- Generator: Sketch 3.2.2 (9983) - http://www.bohemiancoding.com/sketch -->
    <title>35 - Bavette (Flat)</title>
    <desc>Created with Sketch.</desc>
    <defs></defs>
    <g id="Page-1" stroke="none" stroke-width="1" fill="none" fill-rule="evenodd" sketch:type="MSPage">
        <g id="35---Bavette-(Flat)" sketch:type="MSLayerGroup">
            <path d="M40.853,26.43 C39.359,22.239 38.462,17.872 38.25,13.428 C37.997,8.137 36.653,2.055 32.014,0.264 C29.951,-0.533 27.558,0.535 26.967,2.666 C26.958,2.698 26.949,2.73 26.941,2.762 C26.582,4.156 27.124,5.618 28.217,6.556 C28.9,7.143 29.588,8.021 30.246,8.933 C30.941,9.897 31.479,10.98 31.724,12.142 C31.758,12.303 31.789,12.466 31.816,12.63 C32.895,19.116 28.43,25.46 21.875,25.966 C15.405,26.466 10,21.364 10,15 L10,14.947 C10.009,12.021 11.198,9.2 13.224,7.088 C13.42,6.885 13.617,6.697 13.817,6.527 C14.859,5.644 15.411,4.305 15.11,2.973 C15.086,2.868 15.061,2.766 15.033,2.666 C14.442,0.535 12.049,-0.533 9.986,0.264 C5.342,2.057 4,8.151 3.75,13.446 C3.547,17.728 2.84,21.987 1.313,25.993 C0.312,28.62 -0.174,31.49 0.057,34.542 C0.859,45.131 9.684,53.642 20.298,53.989 C32.216,54.377 42,44.831 42,33 C42,30.681 41.585,28.483 40.853,26.43" id="Fill-55" fill="#F18D46" sketch:type="MSShapeGroup"></path>
            <path d="M21,31 L23.369,35.801 L28.668,36.571 L24.834,40.308 L25.739,45.585 L21,43.093 L16.261,45.585 L17.166,40.308 L13.332,36.571 L18.631,35.801 L21,31" id="Fill-96" fill="#F7C346" sketch:type="MSShapeGroup"></path>
            <path d="M19,5 L11,5 C10.447,5 10,4.552 10,4 C10,3.448 10.447,3 11,3 L19,3 C19.553,3 20,3.448 20,4 C20,4.552 19.553,5 19,5" id="Fill-217" fill="#F7C346" sketch:type="MSShapeGroup"></path>
            <path d="M32,5 L24,5 C23.447,5 23,4.552 23,4 C23,3.448 23.447,3 24,3 L32,3 C32.553,3 33,3.448 33,4 C33,4.552 32.553,5 32,5" id="Fill-218" fill="#F7C346" sketch:type="MSShapeGroup"></path>
        </g>
    </g>
</svg>