<?xml version="1.0" encoding="UTF-8" standalone="no"?>
<svg width="44px" height="58px" viewBox="0 0 44 58" version="1.1" xmlns="http://www.w3.org/2000/svg" xmlns:xlink="http://www.w3.org/1999/xlink" xmlns:sketch="http://www.bohemiancoding.com/sketch/ns">
    <!-- Generator: Sketch 3.2.2 (9983) - http://www.bohemiancoding.com/sketch -->
    <title>2 - Feeding Chair (Flat)</title>
    <desc>Created with Sketch.</desc>
    <defs></defs>
    <g id="Page-1" stroke="none" stroke-width="1" fill="none" fill-rule="evenodd" sketch:type="MSPage">
        <g id="2---Feeding-Chair-(Flat)" sketch:type="MSLayerGroup">
            <path d="M15,11 L1.5,11 C0.672,11 0,11.672 0,12.5 C0,13.328 0.672,14 1.5,14 L12,14 L12,24 L15,24 L15,14 L28,14 L28,11 L15,11" id="Fill-31" fill="#F4D99D" sketch:type="MSShapeGroup"></path>
            <path d="M10.915,55.403 L9.085,54.597 L22.17,25.193 L24,26 L10.915,55.403" id="Fill-333" fill="#556080" sketch:type="MSShapeGroup"></path>
            <path d="M39.085,55.403 L25.17,24 L27,23.193 L40.915,54.597 L39.085,55.403" id="Fill-334" fill="#556080" sketch:type="MSShapeGroup"></path>
            <path d="M14,54 C14,56.209 12.209,58 10,58 C7.791,58 6,56.209 6,54 C6,51.791 7.791,50 10,50 C12.209,50 14,51.791 14,54" id="Fill-335" fill="#D1D4D1" sketch:type="MSShapeGroup"></path>
            <path d="M44,54 C44,56.209 42.209,58 40,58 C37.791,58 36,56.209 36,54 C36,51.791 37.791,50 40,50 C42.209,50 44,51.791 44,54" id="Fill-336" fill="#D1D4D1" sketch:type="MSShapeGroup"></path>
            <path d="M17,38 L33,38 L33,40 L17,40 L17,38 Z" id="Fill-337" fill="#556080" sketch:type="MSShapeGroup"></path>
            <path d="M30,26 C30,28.761 27.761,31 25,31 C22.239,31 20,28.761 20,26 C20,23.239 22.239,21 25,21 C27.761,21 30,23.239 30,26" id="Fill-338" fill="#D1D4D1" sketch:type="MSShapeGroup"></path>
            <path d="M5,5 L9,5 L9,11 L5,11 L5,5 Z" id="Fill-339" fill="#E64C3C" sketch:type="MSShapeGroup"></path>
            <path d="M24.639,9.963 L26.142,5.466 C26.604,3.969 27.763,2.812 29.191,2.297 C28.298,0.92 26.754,0 25,0 C22.25,0 20,2.25 20,5 C20,7.627 22.059,9.774 24.639,9.963" id="Fill-340" fill="#FDD7AD" sketch:type="MSShapeGroup"></path>
            <path d="M34.779,3.972 C33.842,2.719 32.406,2 30.841,2 C28.696,2 26.773,3.422 26.142,5.466 L24.293,11 L28,11 L28,14 L23.291,14 L21.954,18 C19.494,18 17.14,18.529 15,19.476 L15,24 L12,24 L12,21.187 C8.571,23.624 6.043,27.296 5.125,31.655 L4,37 L10,37 L13.285,29.609 C13.72,28.63 14.69,28 15.76,28 L20.422,28 C20.005,27.046 19.865,25.944 20.149,24.783 C20.614,22.886 22.215,21.393 24.141,21.072 C26.759,20.635 29.05,22.239 29.757,24.537 C30.295,23.798 30.718,22.967 30.99,22.063 C30.99,22.063 35.55,8.34 35.56,8.307 C36.001,6.805 35.717,5.225 34.779,3.972" id="Fill-418" fill="#9777A8" sketch:type="MSShapeGroup"></path>
        </g>
    </g>
</svg>