<?xml version="1.0" encoding="UTF-8" standalone="no"?>
<svg width="58px" height="52px" viewBox="0 0 58 52" version="1.1" xmlns="http://www.w3.org/2000/svg" xmlns:xlink="http://www.w3.org/1999/xlink" xmlns:sketch="http://www.bohemiancoding.com/sketch/ns">
    <!-- Generator: Sketch 3.2.2 (9983) - http://www.bohemiancoding.com/sketch -->
    <title>46 - GIrl Bodywear (Flat)</title>
    <desc>Created with Sketch.</desc>
    <defs></defs>
    <g id="Page-1" stroke="none" stroke-width="1" fill="none" fill-rule="evenodd" sketch:type="MSPage">
        <g id="46---GIrl-Bodywear-(Flat)" sketch:type="MSLayerGroup" transform="translate(-1.000000, 0.000000)">
            <path d="M42,0 C40.202,4.748 35.378,9.178 30,9.178 C24.867,9.178 19.956,4.407 18,0 C20.681,10.724 14.384,15.829 13,16.954 L13,34.469 C13,34.897 13.281,35.317 13.313,35.737 C19.342,37.023 23.99,42.375 23.99,48.786 C23.99,49.202 24.027,50.004 23.991,50.411 C25.907,51.174 28.053,52 30.242,52 L30.728,52 C33.051,52 35.264,51.132 37.274,50.277 C37.245,49.915 37.219,49.354 37.219,48.983 C37.219,42.704 41.325,37.353 47.167,35.93 C47.204,35.48 47,34.929 47,34.469 L47,16.979 C45.676,15.915 39.298,10.809 42,0" id="Fill-390" fill="#FB7B76" sketch:type="MSShapeGroup"></path>
            <path d="M18,0 C18,0 32.826,3.704 42,0 C40.202,4.748 35.378,9.178 30,9.178 C24.867,9.178 19.956,4.407 18,0" id="Fill-391" fill="#AA4153" sketch:type="MSShapeGroup"></path>
            <path d="M30.288,5.317 C29.337,5.317 28.53,5.189 28.39,5.166 C27.845,5.074 27.478,4.559 27.568,4.015 C27.659,3.471 28.173,3.099 28.719,3.193 C29.234,3.277 30.77,3.437 31.676,3.156 C32.211,2.991 32.765,3.288 32.928,3.815 C33.092,4.342 32.797,4.902 32.27,5.066 C31.651,5.258 30.937,5.317 30.288,5.317" id="Fill-392" fill="#FB7B76" sketch:type="MSShapeGroup"></path>
            <path d="M18,0 C18,0 9.494,0.069 1.849,4.923 C1.849,4.923 -1.609,10.322 5.429,15.722 L13,16.954 C13,16.954 21.033,12.133 18,0" id="Fill-393" fill="#DF4D60" sketch:type="MSShapeGroup"></path>
            <path d="M42,0 C42,0 50.475,0.069 58.12,4.923 C58.12,4.923 61.578,10.322 54.54,15.722 L47,16.979 C47,16.979 38.967,12.133 42,0" id="Fill-394" fill="#DF4D60" sketch:type="MSShapeGroup"></path>
            <path id="Fill-395" fill="#D0E8F9" sketch:type="MSShapeGroup"></path>
            <path id="Stroke-396" stroke="#0096E6" stroke-width="2" stroke-linecap="round" stroke-linejoin="round" sketch:type="MSShapeGroup"></path>
            <path d="M30,46.5 C30,47.328 29.328,48 28.5,48 C27.672,48 27,47.328 27,46.5 C27,45.672 27.672,45 28.5,45 C29.328,45 30,45.672 30,46.5" id="Fill-397" fill="#FFFFFF" sketch:type="MSShapeGroup"></path>
            <path d="M34,46.5 C34,47.328 33.328,48 32.5,48 C31.672,48 31,47.328 31,46.5 C31,45.672 31.672,45 32.5,45 C33.328,45 34,45.672 34,46.5" id="Fill-398" fill="#FFFFFF" sketch:type="MSShapeGroup"></path>
            <path d="M53.966,2.695 C52.612,6.387 51.08,11.378 50.878,16.281 L52.907,15.875 C53.176,11.49 54.546,7.009 55.785,3.586 C55.174,3.266 54.566,2.965 53.966,2.695" id="Fill-399" fill="#FB7B76" sketch:type="MSShapeGroup"></path>
            <path d="M7.084,15.992 L9.11,16.321 C8.867,11.333 7.215,6.271 5.828,2.825 C5.224,3.088 4.618,3.38 4.009,3.695 C5.285,6.901 6.783,11.504 7.084,15.992" id="Fill-400" fill="#FB7B76" sketch:type="MSShapeGroup"></path>
            <path d="M39.285,23.457 C38.448,22.491 37.192,22.271 35.848,22.251 C37.028,21.663 38.099,20.786 38.508,19.198 C39.056,17.068 38.483,16.038 37.907,15.548 C37.374,15.095 36.384,14.714 34.693,15.456 C33.567,15.951 32.605,16.997 31.821,18.173 C31.745,16.606 31.424,15.118 30.453,14.326 C29.997,13.955 29.198,13.581 27.983,13.892 C26.48,14.282 25.936,15.189 25.744,15.881 C25.363,17.261 26.092,18.92 26.949,20.27 C25.94,20.183 24.896,20.23 24.032,20.403 C22.649,20.681 21.694,21.273 21.271,22.115 C20.601,23.442 20.906,24.289 21.279,24.766 C22.17,25.901 24.181,25.931 26.971,25.436 C26.097,26.831 25.466,28.538 25.643,30.03 C25.812,31.466 26.708,32.538 28.166,33.046 C28.635,33.21 29.053,33.276 29.424,33.276 C30.533,33.276 31.22,32.674 31.571,32.238 C32.54,31.035 32.729,28.934 32.525,27.044 C34.649,28.288 37.423,29.006 39.286,28.335 C39.62,28.214 39.865,27.925 39.93,27.576 C40.274,25.704 40.064,24.357 39.285,23.457" id="Fill-403" fill="#F8C0BC" sketch:type="MSShapeGroup"></path>
            <path d="M10.862,16.606 L12.912,16.94 C12.473,12.378 10.76,5.303 9.477,1.483 C8.881,1.664 8.275,1.859 7.654,2.087 C8.843,5.934 10.393,12.579 10.862,16.606" id="Fill-404" fill="#FB7B76" sketch:type="MSShapeGroup"></path>
            <path d="M49.05,16.606 L47,16.94 C47.438,12.378 49.152,5.303 50.435,1.483 C51.031,1.664 51.636,1.859 52.258,2.087 C51.069,5.934 49.518,12.579 49.05,16.606" id="Fill-405" fill="#FB7B76" sketch:type="MSShapeGroup"></path>
        </g>
    </g>
</svg>