<?xml version="1.0" encoding="UTF-8" standalone="no"?>
<svg width="53px" height="53px" viewBox="0 0 53 53" version="1.1" xmlns="http://www.w3.org/2000/svg" xmlns:xlink="http://www.w3.org/1999/xlink" xmlns:sketch="http://www.bohemiancoding.com/sketch/ns">
    <!-- Generator: Sketch 3.2.2 (9983) - http://www.bohemiancoding.com/sketch -->
    <title>34 - Jingle (Flat)</title>
    <desc>Created with Sketch.</desc>
    <defs></defs>
    <g id="Page-1" stroke="none" stroke-width="1" fill="none" fill-rule="evenodd" sketch:type="MSPage">
        <g id="34---Jingle-(Flat)" sketch:type="MSLayerGroup">
            <path d="M25.718,25.371 C28.88,26.483 45.335,32.623 51.155,41.93 C56.236,50.055 50.055,56.236 41.93,51.155 C32.623,45.335 26.482,28.88 25.371,25.718 C25.277,25.452 25.452,25.277 25.718,25.371" id="Fill-147" fill="#A4E869" sketch:type="MSShapeGroup"></path>
            <path d="M47.299,47.299 C46.863,47.734 45.596,48.589 43.25,47.121 C39.73,44.921 36.045,39.246 33.184,33.262 C33.154,33.2 33.2,33.155 33.262,33.184 C39.247,36.046 44.921,39.731 47.122,43.249 C48.589,45.596 47.734,46.863 47.299,47.299" id="Fill-148" fill="#FFFFFF" sketch:type="MSShapeGroup"></path>
            <path d="M27.314,4.686 C33.562,10.935 33.562,21.065 27.314,27.314 C21.065,33.562 10.935,33.562 4.686,27.314 C-1.562,21.065 -1.562,10.935 4.686,4.686 C10.935,-1.562 21.065,-1.562 27.314,4.686" id="Fill-408" fill="#26B99A" sketch:type="MSShapeGroup"></path>
            <path d="M5.437,27.992 C6.966,29.341 8.685,30.348 10.507,31.013 C14.535,29.522 19.575,26.567 23.071,23.071 C26.567,19.575 29.522,14.535 31.013,10.507 C30.348,8.685 29.341,6.966 27.992,5.437 C26.836,9.732 23.487,15.584 19.536,19.536 C15.584,23.487 9.732,26.836 5.437,27.992" id="Fill-409" fill="#A4E869" sketch:type="MSShapeGroup"></path>
            <path d="M14.813,6.813 L17.411,7.694 L19.61,6.053 L19.574,8.796 L21.814,10.38 L19.195,11.195 L18.38,13.814 L16.796,11.574 L14.053,11.61 L15.694,9.411 L14.813,6.813" id="Fill-410" fill="#A4E869" sketch:type="MSShapeGroup"></path>
            <path d="M4.813,13.256 L7.411,14.137 L9.61,12.496 L9.574,15.24 L11.814,16.824 L9.195,17.638 L8.38,20.258 L6.796,18.018 L4.053,18.053 L5.694,15.854 L4.813,13.256" id="Fill-411" fill="#A4E869" sketch:type="MSShapeGroup"></path>
        </g>
    </g>
</svg>