<?xml version="1.0" encoding="UTF-8" standalone="no"?>
<svg width="51px" height="42px" viewBox="0 0 51 42" version="1.1" xmlns="http://www.w3.org/2000/svg" xmlns:xlink="http://www.w3.org/1999/xlink" xmlns:sketch="http://www.bohemiancoding.com/sketch/ns">
    <!-- Generator: Sketch 3.2.2 (9983) - http://www.bohemiancoding.com/sketch -->
    <title>9 - Pacifier (Flat)</title>
    <desc>Created with Sketch.</desc>
    <defs></defs>
    <g id="Page-1" stroke="none" stroke-width="1" fill="none" fill-rule="evenodd" sketch:type="MSPage">
        <g id="9---Pacifier-(Flat)" sketch:type="MSLayerGroup">
            <path d="M50.985,11.302 C50.971,10.976 50.952,10.794 50.952,10.794 C50.952,6.786 48.864,4.223 46.361,2.592 C42.742,0.233 38.107,0.377 34.387,2.574 C29.921,5.212 25.952,4.794 25.952,4.794 C25.952,4.794 21.983,5.212 17.517,2.574 C13.797,0.377 9.163,0.233 5.544,2.592 C3.041,4.223 0.952,6.786 0.952,10.794 C0.952,10.794 0.934,10.976 0.919,11.302 C0.617,18.087 4.967,23.942 11.067,26 C17.5,26 11,26 15.116,26 L36.788,26 L40.837,26 C46.938,23.942 51.287,18.087 50.985,11.302" id="Fill-47" fill="#FF5364" sketch:type="MSShapeGroup"></path>
            <path d="M32.952,15 C32.952,18.866 29.818,22 25.952,22 C22.086,22 18.952,18.866 18.952,15 C18.952,11.134 22.086,8 25.952,8 C29.818,8 32.952,11.134 32.952,15" id="Fill-280" fill="#FFFFFF" sketch:type="MSShapeGroup"></path>
            <path d="M32.824,13.682 C32.865,13.894 32.897,14.11 32.918,14.329 C32.94,14.55 32.952,14.773 32.952,15 C32.952,15.26 32.936,15.517 32.908,15.77 C32.902,15.817 32.893,15.862 32.886,15.909 C32.859,16.122 32.824,16.331 32.777,16.537 C32.771,16.567 32.762,16.596 32.755,16.626 C32.701,16.852 32.636,17.074 32.561,17.29 C32.558,17.299 32.555,17.308 32.552,17.316 C32.469,17.551 32.374,17.78 32.268,18.003 C35.098,19.993 36.952,23.277 36.952,27 C36.952,33.075 32.027,38 25.952,38 C19.877,38 14.952,33.075 14.952,27 C14.952,23.277 16.806,19.993 19.636,18.003 C19.53,17.78 19.435,17.551 19.353,17.316 C19.35,17.308 19.346,17.299 19.343,17.29 C19.268,17.074 19.204,16.852 19.15,16.626 C19.143,16.596 19.134,16.567 19.127,16.537 C19.081,16.331 19.045,16.122 19.018,15.909 C19.012,15.862 19.002,15.817 18.997,15.77 C18.969,15.517 18.952,15.26 18.952,15 C18.952,14.774 18.964,14.55 18.986,14.33 C19.007,14.11 19.04,13.894 19.08,13.682 C14.26,16.179 10.952,21.206 10.952,27 C10.952,35.272 17.681,42 25.952,42 C34.223,42 40.952,35.272 40.952,27 C40.952,21.206 37.645,16.179 32.824,13.682" id="Fill-281" fill="#F3D55B" sketch:type="MSShapeGroup"></path>
        </g>
    </g>
</svg>