<?xml version="1.0" encoding="UTF-8" standalone="no"?>
<svg width="47px" height="48px" viewBox="0 0 47 48" version="1.1" xmlns="http://www.w3.org/2000/svg" xmlns:xlink="http://www.w3.org/1999/xlink" xmlns:sketch="http://www.bohemiancoding.com/sketch/ns">
    <!-- Generator: Sketch 3.2.2 (9983) - http://www.bohemiancoding.com/sketch -->
    <title>20 - Safety Pin Open (Flat)</title>
    <desc>Created with Sketch.</desc>
    <defs></defs>
    <g id="Page-1" stroke="none" stroke-width="1" fill="none" fill-rule="evenodd" sketch:type="MSPage">
        <g id="20---Safety-Pin-Open-(Flat)" sketch:type="MSLayerGroup">
            <path d="M43.929,30.929 C40.024,27.024 33.692,27.024 29.787,30.929 C25.882,34.834 25.882,41.166 29.787,45.071 C33.692,48.976 40.024,48.976 43.929,45.071 C47.834,41.166 47.834,34.834 43.929,30.929 L43.929,30.929 Z M41.101,42.243 C38.761,44.582 34.955,44.582 32.615,42.243 C30.276,39.903 30.276,36.097 32.615,33.757 C34.955,31.418 38.761,31.418 41.101,33.757 C43.44,36.097 43.44,39.903 41.101,42.243 L41.101,42.243 Z" id="Fill-144" fill="#ECF0F1" sketch:type="MSShapeGroup"></path>
            <path d="M5.106,20.255 L5.038,20.322 L29.787,45.071 C27.476,42.76 26.544,39.6 26.968,36.595 L13.43,23.058 C10.909,24.475 7.366,22.152 5.106,20.255" id="Fill-145" fill="#D1D4D1" sketch:type="MSShapeGroup"></path>
            <path d="M17.059,4.059 C13.17,0.17 6.806,0.17 2.917,4.059 C-0.972,7.948 -0.972,14.312 2.917,18.201 C2.917,18.201 10.4,26.333 14.231,22.444 C16.186,20.488 12.307,16.172 10.36,14.256 C9.014,14.634 7.512,14.311 6.452,13.251 C4.89,11.689 4.89,9.157 6.452,7.595 C8.015,6.032 10.547,6.032 12.109,7.595 C13.169,8.654 13.492,10.156 13.114,11.502 C15.03,13.449 19.346,17.328 21.302,15.373 C25.191,11.542 17.059,4.059 17.059,4.059" id="Fill-146" fill="#ECF0F1" sketch:type="MSShapeGroup"></path>
            <path d="M42.918,30.058 L30.622,2.06 C30.191,1.043 29.017,0.569 28,1 C26.983,1.432 26.509,2.606 26.94,3.622 L37.717,28.041 C39.565,28.2 41.372,28.875 42.918,30.058" id="Fill-246" fill="#D1D4D1" sketch:type="MSShapeGroup"></path>
        </g>
    </g>
</svg>