<?xml version="1.0" encoding="UTF-8" standalone="no"?>
<svg width="56px" height="51px" viewBox="0 0 56 51" version="1.1" xmlns="http://www.w3.org/2000/svg" xmlns:xlink="http://www.w3.org/1999/xlink" xmlns:sketch="http://www.bohemiancoding.com/sketch/ns">
    <!-- Generator: Sketch 3.2.2 (9983) - http://www.bohemiancoding.com/sketch -->
    <title>18 - Sand Toys (Flat)</title>
    <desc>Created with Sketch.</desc>
    <defs></defs>
    <g id="Page-1" stroke="none" stroke-width="1" fill="none" fill-rule="evenodd" sketch:type="MSPage">
        <g id="18---Sand-Toys-(Flat)" sketch:type="MSLayerGroup">
            <path d="M45.304,7.28 L42.589,29.112 C43.408,28.993 44.253,28.969 45.113,29.076 C45.972,29.183 46.785,29.413 47.551,29.729 L50.266,7.897 L45.304,7.28" id="Fill-21" fill="#F0C419" sketch:type="MSShapeGroup"></path>
            <path d="M54.37,1.558 C55.606,1.712 56.349,3.022 55.835,4.156 C54.468,7.176 51.336,9.363 48.015,8.95 C44.693,8.537 42.192,5.65 41.606,2.387 C41.386,1.161 42.427,0.073 43.663,0.227 L54.37,1.558" id="Fill-22" fill="#FFB905" sketch:type="MSShapeGroup"></path>
            <path d="M3.552,26 L6.745,49.152 C6.891,50.211 7.797,51 8.866,51 L23.134,51 C24.204,51 25.109,50.211 25.255,49.152 L28.448,26 L3.552,26" id="Fill-252" fill="#31BEED" sketch:type="MSShapeGroup"></path>
            <path d="M16,43 C7.178,43 0,35.822 0,27 C0,25.925 0.108,24.849 0.32,23.801 L2.28,24.199 C2.094,25.115 2,26.058 2,27 C2,34.72 8.28,41 16,41 C23.72,41 30,34.72 30,27 C30,26.058 29.906,25.115 29.72,24.199 L31.68,23.801 C31.892,24.849 32,25.925 32,27 C32,35.822 24.822,43 16,43" id="Fill-253" fill="#D1D4D1" sketch:type="MSShapeGroup"></path>
            <path d="M33.166,46.489 L34.47,36 C35.115,30.815 39.885,27.1 45.07,27.745 C50.255,28.39 53.97,33.16 53.325,38.345 L52.02,48.834 C51.889,49.892 50.925,50.643 49.867,50.511 L34.843,48.643 C33.785,48.511 33.034,47.547 33.166,46.489" id="Fill-254" fill="#FFB905" sketch:type="MSShapeGroup"></path>
            <path d="M30,20 C30,18.58 29.833,16 28,16 C27.376,16 26.367,16.213 26,17 C25.45,16.182 24.907,16.143 24,16.143 C23.219,16.143 22.513,16.536 21.979,17.166 C21.87,13.74 19.691,11 17,11 C14.704,11 12.79,13.001 12.203,15.712 C11.571,15.174 10.815,14.857 10,14.857 C8.424,14.857 7.074,16.039 6.423,17.742 C5.877,16.777 4.999,16.143 4,16.143 C2.343,16.143 1,17.87 1,20 L30,20" id="Fill-255" fill="#FBD490" sketch:type="MSShapeGroup"></path>
            <path d="M30.277,26 L1.723,26 C0.771,26 0,25.229 0,24.277 L0,21.723 C0,20.771 0.771,20 1.723,20 L30.277,20 C31.229,20 32,20.771 32,21.723 L32,24.277 C32,25.229 31.229,26 30.277,26" id="Fill-465" fill="#F0C419" sketch:type="MSShapeGroup"></path>
        </g>
    </g>
</svg>