<?xml version="1.0" encoding="UTF-8" standalone="no"?>
<svg width="54px" height="54px" viewBox="0 0 54 54" version="1.1" xmlns="http://www.w3.org/2000/svg" xmlns:xlink="http://www.w3.org/1999/xlink" xmlns:sketch="http://www.bohemiancoding.com/sketch/ns">
    <!-- Generator: Sketch 3.2.2 (9983) - http://www.bohemiancoding.com/sketch -->
    <title>29 - Shape Game (Flat)</title>
    <desc>Created with Sketch.</desc>
    <defs></defs>
    <g id="Page-1" stroke="none" stroke-width="1" fill="none" fill-rule="evenodd" sketch:type="MSPage">
        <g id="29---Shape-Game-(Flat)" sketch:type="MSLayerGroup">
            <path d="M47.139,54 L6.861,54 C3.072,54 0,50.928 0,47.139 L0,6.861 C0,3.072 3.072,0 6.861,0 L47.139,0 C50.928,0 54,3.072 54,6.861 L54,47.139 C54,50.928 50.928,54 47.139,54" id="Fill-180" fill="#556080" sketch:type="MSShapeGroup"></path>
            <path d="M26,4 L6.861,4 C5.283,4 4,5.283 4,6.861 L4,26 L26,26 L26,4" id="Fill-181" fill="#F0C419" sketch:type="MSShapeGroup"></path>
            <path d="M4,28 L4,47.139 C4,48.717 5.283,50 6.861,50 L26,50 L26,28 L4,28" id="Fill-182" fill="#ED7161" sketch:type="MSShapeGroup"></path>
            <path d="M47.139,4 L28,4 L28,26 L50,26 L50,6.861 C50,5.283 48.717,4 47.139,4" id="Fill-183" fill="#67B9CC" sketch:type="MSShapeGroup"></path>
            <path d="M28,50 L47.139,50 C48.717,50 50,48.717 50,47.139 L50,28 L28,28 L28,50" id="Fill-184" fill="#A4E869" sketch:type="MSShapeGroup"></path>
            <path d="M22,15.5 C22,19.642 18.642,23 14.5,23 C10.358,23 7,19.642 7,15.5 C7,11.358 10.358,8 14.5,8 C18.642,8 22,11.358 22,15.5" id="Fill-185" fill="#F29C1F" sketch:type="MSShapeGroup"></path>
            <path d="M46,15 L39,22 L32,15 L39,8 L46,15" id="Fill-186" fill="#48A0DC" sketch:type="MSShapeGroup"></path>
            <path d="M22,45 L8,45 L15,31 L22,45" id="Fill-187" fill="#DF4D60" sketch:type="MSShapeGroup"></path>
            <path d="M39,31 L41.528,36.123 L47,37 L43.091,40.932 L44.056,46.562 L39,43.904 L33.944,46.562 L34.909,40.932 L31,37 L36.472,36.123 L39,31" id="Fill-188" fill="#4FBA6F" sketch:type="MSShapeGroup"></path>
        </g>
    </g>
</svg>