<?xml version="1.0" encoding="UTF-8" standalone="no"?>
<svg width="52px" height="59px" viewBox="0 0 52 59" version="1.1" xmlns="http://www.w3.org/2000/svg" xmlns:xlink="http://www.w3.org/1999/xlink" xmlns:sketch="http://www.bohemiancoding.com/sketch/ns">
    <!-- Generator: Sketch 3.2.2 (9983) - http://www.bohemiancoding.com/sketch -->
    <title>6 - Sleeping Stroller (Flat)</title>
    <desc>Created with Sketch.</desc>
    <defs></defs>
    <g id="Page-1" stroke="none" stroke-width="1" fill="none" fill-rule="evenodd" sketch:type="MSPage">
        <g id="6---Sleeping-Stroller-(Flat)" sketch:type="MSLayerGroup">
            <path d="M11.707,53.707 L10.293,52.293 L23.293,39.293 L24.707,40.707 L11.707,53.707" id="Fill-2" fill="#8697CB" sketch:type="MSShapeGroup"></path>
            <path d="M42.293,50.707 L30.586,39 L32,37.586 L43.707,49.293 L42.293,50.707" id="Fill-3" fill="#8697CB" sketch:type="MSShapeGroup"></path>
            <path d="M29,33 L15,33 C13.125,33 11.333,32.55 9.68,31.761 C8.899,31.389 8,31.964 8,32.829 L8,38.882 C8,41.157 9.844,43 12.118,43 L34.817,43 C35.47,43 36,42.47 36,41.817 L36,32.829 C36,31.964 35.101,31.389 34.32,31.761 C32.667,32.55 30.875,33 29,33" id="Fill-4" fill="#556080" sketch:type="MSShapeGroup"></path>
            <path d="M16,53 C16,55.761 13.761,58 11,58 C8.239,58 6,55.761 6,53 C6,50.239 8.239,48 11,48 C13.761,48 16,50.239 16,53 L16,53 Z" id="Fill-5" fill="#8697CB" sketch:type="MSShapeGroup"></path>
            <path d="M16,53 C16,55.761 13.761,58 11,58 C8.239,58 6,55.761 6,53 C6,50.239 8.239,48 11,48 C13.761,48 16,50.239 16,53 L16,53 Z" id="Stroke-6" stroke="#556080" stroke-width="2" sketch:type="MSShapeGroup"></path>
            <path d="M51,50 C51,54.418 47.418,58 43,58 C38.582,58 35,54.418 35,50 C35,45.582 38.582,42 43,42 C47.418,42 51,45.582 51,50 L51,50 Z" id="Fill-7" fill="#8697CB" sketch:type="MSShapeGroup"></path>
            <path d="M51,50 C51,54.418 47.418,58 43,58 C38.582,58 35,54.418 35,50 C35,45.582 38.582,42 43,42 C47.418,42 51,45.582 51,50 L51,50 Z" id="Stroke-8" stroke="#556080" stroke-width="2" sketch:type="MSShapeGroup"></path>
            <path d="M34,22 L34,20 C40.617,20 46,14.617 46,8 L48,8 C48,15.72 41.72,22 34,22" id="Fill-28" fill="#8697CB" sketch:type="MSShapeGroup"></path>
            <path d="M21,19 C21,20.657 19.657,22 18,22 C16.343,22 15,20.657 15,19 C15,17.343 16.343,16 18,16 C19.657,16 21,17.343 21,19" id="Fill-327" fill="#D36789" sketch:type="MSShapeGroup"></path>
            <path d="M18,16 L18,5.552 C18,2.253 14.692,-0.001 11.608,1.171 C4.857,3.736 0,10.234 0,17.846 L0,19 L15,19 C15,17.343 16.343,16 18,16" id="Fill-328" fill="#F8C0BC" sketch:type="MSShapeGroup"></path>
            <path d="M21,19 C21,20.657 19.657,22 18,22 C16.343,22 15,20.657 15,19 L0,19 C0,27.284 6.716,36 15,36 L29,36 C37.284,36 44,27.284 44,19 L21,19" id="Fill-329" fill="#9B4058" sketch:type="MSShapeGroup"></path>
            <path d="M52,8 C52,9.657 50.657,11 49,11 C47.343,11 46,9.657 46,8 C46,6.343 47.343,5 49,5 C50.657,5 52,6.343 52,8" id="Fill-497" fill="#D36789" sketch:type="MSShapeGroup"></path>
        </g>
    </g>
</svg>