<?xml version="1.0" encoding="UTF-8" standalone="no"?>
<svg width="60px" height="52px" viewBox="0 0 60 52" version="1.1" xmlns="http://www.w3.org/2000/svg" xmlns:xlink="http://www.w3.org/1999/xlink" xmlns:sketch="http://www.bohemiancoding.com/sketch/ns">
    <!-- Generator: Sketch 3.2.2 (9983) - http://www.bohemiancoding.com/sketch -->
    <title>5 - Sport Stroller (Flat)</title>
    <desc>Created with Sketch.</desc>
    <defs></defs>
    <g id="Page-1" stroke="none" stroke-width="1" fill="none" fill-rule="evenodd" sketch:type="MSPage">
        <g id="5---Sport-Stroller-(Flat)" sketch:type="MSLayerGroup">
            <path d="M5.414,43 L2,43 L2,41 L4.586,41 L8.16,37.426 C8.786,36.8 9.8,36.8 10.426,37.426 L10.707,37.707 L5.414,43" id="Fill-29" fill="#556080" sketch:type="MSShapeGroup"></path>
            <path d="M27,26 C26.744,26 26.488,25.902 26.293,25.707 L22.293,21.707 C21.902,21.316 21.902,20.684 22.293,20.293 C22.684,19.902 23.316,19.902 23.707,20.293 L27.707,24.293 C28.098,24.684 28.098,25.316 27.707,25.707 C27.512,25.902 27.256,26 27,26" id="Fill-30" fill="#556080" sketch:type="MSShapeGroup"></path>
            <path d="M24,40 L23,40 L23,44 L39,44 L39,32.2 L24,40" id="Fill-48" fill="#8697CB" sketch:type="MSShapeGroup"></path>
            <path d="M35,0 L35,17 L18.556,34 L10,37 L10,40 L24,40 L40.691,31.321 C45.797,28.666 49,23.389 49,17.634 C49,14.845 48.244,12.108 46.812,9.714 L35,0" id="Fill-49" fill="#31BCEC" sketch:type="MSShapeGroup"></path>
            <path d="M0,50 L59,50 L59,52 L0,52 L0,50 Z" id="Fill-331" fill="#2C2F38" sketch:type="MSShapeGroup"></path>
            <path d="M56,2 C55.723,2 55.473,2.113 55.292,2.294 L13.293,44.293 L14.707,45.707 L33,27.414 L49.293,43.707 L50.707,42.293 L34.414,26 L56.376,4.038 C57.299,4.215 58,5.026 58,6 C58,6.553 58.447,7 59,7 C59.553,7 60,6.553 60,6 C60,3.794 58.206,2 56,2" id="Fill-332" fill="#556080" sketch:type="MSShapeGroup"></path>
            <path d="M58,43 C58,47.418 54.418,51 50,51 C45.582,51 42,47.418 42,43 C42,38.582 45.582,35 50,35 C54.418,35 58,38.582 58,43 L58,43 Z" id="Fill-498" fill="#8697CB" sketch:type="MSShapeGroup"></path>
            <path d="M58,43 C58,47.418 54.418,51 50,51 C45.582,51 42,47.418 42,43 C42,38.582 45.582,35 50,35 C54.418,35 58,38.582 58,43 L58,43 Z" id="Stroke-499" stroke="#556080" stroke-width="2" sketch:type="MSShapeGroup"></path>
            <path d="M20,45 C20,48.314 17.314,51 14,51 C10.686,51 8,48.314 8,45 C8,41.686 10.686,39 14,39 C17.314,39 20,41.686 20,45 L20,45 Z" id="Fill-500" fill="#8697CB" sketch:type="MSShapeGroup"></path>
            <path d="M20,45 C20,48.314 17.314,51 14,51 C10.686,51 8,48.314 8,45 C8,41.686 10.686,39 14,39 C17.314,39 20,41.686 20,45 L20,45 Z" id="Stroke-501" stroke="#556080" stroke-width="2" sketch:type="MSShapeGroup"></path>
        </g>
    </g>
</svg>