<?xml version="1.0" encoding="UTF-8" standalone="no"?>
<svg width="41px" height="51px" viewBox="0 0 41 51" version="1.1" xmlns="http://www.w3.org/2000/svg" xmlns:xlink="http://www.w3.org/1999/xlink" xmlns:sketch="http://www.bohemiancoding.com/sketch/ns">
    <!-- Generator: Sketch 3.2.2 (9983) - http://www.bohemiancoding.com/sketch -->
    <title>10 - Story Book (Flat)</title>
    <desc>Created with Sketch.</desc>
    <defs></defs>
    <g id="Page-1" stroke="none" stroke-width="1" fill="none" fill-rule="evenodd" sketch:type="MSPage">
        <g id="10---Story-Book-(Flat)" sketch:type="MSLayerGroup">
            <path d="M35.49,51 L4.731,51 C2.118,51 0,48.882 0,46.269 L0,11 L35.49,11 C38.533,11 41,13.467 41,16.51 L41,45.49 C41,48.533 38.533,51 35.49,51" id="Fill-277" fill="#0096E6" sketch:type="MSShapeGroup"></path>
            <path d="M33,11 L0,11 L25.471,0.966 C29.086,-0.458 33,2.207 33,6.092 L33,11" id="Fill-278" fill="#8ED1EF" sketch:type="MSShapeGroup"></path>
            <path d="M21,17 L25.338,25.789 L35.038,27.199 L28.019,34.041 L29.676,43.701 L21,39.14 L12.324,43.701 L13.981,34.041 L6.963,27.199 L16.662,25.789 L21,17" id="Fill-279" fill="#D0E8F9" sketch:type="MSShapeGroup"></path>
        </g>
    </g>
</svg>