<?xml version="1.0" encoding="UTF-8" standalone="no"?>
<svg width="60px" height="50px" viewBox="0 0 60 50" version="1.1" xmlns="http://www.w3.org/2000/svg" xmlns:xlink="http://www.w3.org/1999/xlink" xmlns:sketch="http://www.bohemiancoding.com/sketch/ns">
    <!-- Generator: Sketch 3.2.2 (9983) - http://www.bohemiancoding.com/sketch -->
    <title>50 - Stroller (Flat)</title>
    <desc>Created with Sketch.</desc>
    <defs></defs>
    <g id="Page-1" stroke="none" stroke-width="1" fill="none" fill-rule="evenodd" sketch:type="MSPage">
        <g id="50---Stroller-(Flat)" sketch:type="MSLayerGroup">
            <path d="M59,11 C55.157,11 52.136,14.988 52.136,20.084" id="Stroke-17" stroke="#556080" stroke-width="2" stroke-linecap="round" sketch:type="MSShapeGroup"></path>
            <path d="M13.501,26.576 C18.018,26.576 21.924,29.201 23.804,33 L37.197,33 C39.076,29.201 42.983,26.576 47.501,26.576 C49.932,26.576 52.184,27.339 54.044,28.631 C55.29,24.888 55.367,22.154 55.367,20.5 C55.367,20.249 55.362,20 55.35,20 L33,20 C33,21.694 30.694,23 29,23 C27.306,23 24.969,20.688 24.969,14.813 L25,15 L25,0.866 C7.688,0.866 4.5,10.398 4.5,19.75 C4.5,21.55 4.654,24.703 6.236,29.171 C8.218,27.551 10.747,26.576 13.501,26.576" id="Fill-18" fill="#FB7B76" sketch:type="MSShapeGroup"></path>
            <path d="M13.501,26.576 C7.159,26.576 2,31.735 2,38.076 C2,44.418 7.159,49.576 13.501,49.576 C19.842,49.576 25,44.418 25,38.076 C25,31.735 19.842,26.576 13.501,26.576 L13.501,26.576 Z M20.867,44.064 C20.841,44.03 20.828,43.99 20.797,43.959 L17.94,41.103 C17.55,40.712 16.917,40.712 16.526,41.103 C16.136,41.493 16.136,42.126 16.526,42.517 L19.383,45.373 C19.414,45.404 19.454,45.417 19.488,45.443 C18.077,46.592 16.332,47.345 14.422,47.53 L14.422,44 C14.422,43.448 13.974,43 13.422,43 C12.87,43 12.422,43.448 12.422,44 L12.422,47.51 C10.542,47.297 8.826,46.536 7.441,45.386 C7.447,45.381 7.455,45.379 7.46,45.374 L10.32,42.517 C10.711,42.127 10.711,41.494 10.321,41.103 C9.93,40.712 9.296,40.712 8.907,41.102 L6.052,43.954 C4.951,42.563 4.227,40.861 4.047,39 L7.422,39 C7.974,39 8.422,38.552 8.422,38 C8.422,37.448 7.974,37 7.422,37 L4.065,37 C4.274,35.16 5.009,33.478 6.119,32.109 L8.906,34.897 C9.102,35.092 9.357,35.19 9.613,35.19 C9.869,35.19 10.125,35.092 10.32,34.897 C10.711,34.506 10.711,33.873 10.32,33.482 L7.533,30.695 C8.901,29.586 10.582,28.851 12.422,28.642 L12.422,33 C12.422,33.552 12.87,34 13.422,34 C13.974,34 14.422,33.552 14.422,33 L14.422,28.623 C16.284,28.803 17.986,29.526 19.378,30.628 L16.523,33.482 C16.133,33.873 16.133,34.506 16.523,34.897 C16.719,35.092 16.975,35.19 17.231,35.19 C17.486,35.19 17.742,35.092 17.938,34.897 L20.795,32.039 C20.802,32.032 20.803,32.023 20.81,32.017 C21.96,33.402 22.721,35.119 22.935,37 L19.422,37 C18.87,37 18.422,37.448 18.422,38 C18.422,38.552 18.87,39 19.422,39 L22.953,39 C22.768,40.909 22.015,42.653 20.867,44.064 L20.867,44.064 Z" id="Fill-466" fill="#556080" sketch:type="MSShapeGroup"></path>
            <path d="M13.437,36.701 C12.644,36.701 12,37.345 12,38.139 C12,38.933 12.644,39.576 13.437,39.576 C14.231,39.576 14.875,38.933 14.875,38.139 C14.875,37.345 14.231,36.701 13.437,36.701" id="Fill-467" fill="#556080" sketch:type="MSShapeGroup"></path>
            <path d="M47.501,26.576 C41.159,26.576 36,31.735 36,38.076 C36,44.418 41.159,49.576 47.501,49.576 C53.842,49.576 59,44.418 59,38.076 C59,31.735 53.842,26.576 47.501,26.576 L47.501,26.576 Z M54.867,44.064 C54.841,44.03 54.828,43.99 54.797,43.959 L51.94,41.103 C51.55,40.712 50.917,40.712 50.526,41.103 C50.136,41.493 50.136,42.126 50.526,42.517 L53.383,45.373 C53.414,45.404 53.454,45.417 53.488,45.443 C52.077,46.592 50.332,47.345 48.422,47.53 L48.422,44 C48.422,43.448 47.974,43 47.422,43 C46.87,43 46.422,43.448 46.422,44 L46.422,47.51 C44.542,47.297 42.826,46.536 41.441,45.386 C41.447,45.381 41.455,45.379 41.46,45.374 L44.32,42.517 C44.711,42.127 44.711,41.494 44.321,41.103 C43.93,40.712 43.296,40.712 42.907,41.102 L40.052,43.954 C38.951,42.563 38.227,40.861 38.047,39 L41.422,39 C41.974,39 42.422,38.552 42.422,38 C42.422,37.448 41.974,37 41.422,37 L38.065,37 C38.274,35.16 39.009,33.478 40.119,32.109 L42.906,34.897 C43.102,35.092 43.357,35.19 43.613,35.19 C43.869,35.19 44.125,35.092 44.32,34.897 C44.711,34.506 44.711,33.873 44.32,33.482 L41.533,30.695 C42.901,29.586 44.582,28.851 46.422,28.642 L46.422,33 C46.422,33.552 46.87,34 47.422,34 C47.974,34 48.422,33.552 48.422,33 L48.422,28.623 C50.284,28.803 51.986,29.526 53.378,30.628 L50.523,33.482 C50.133,33.873 50.133,34.506 50.523,34.897 C50.719,35.092 50.975,35.19 51.231,35.19 C51.486,35.19 51.742,35.092 51.938,34.897 L54.795,32.039 C54.802,32.032 54.803,32.023 54.81,32.017 C55.96,33.402 56.721,35.119 56.935,37 L53.422,37 C52.87,37 52.422,37.448 52.422,38 C52.422,38.552 52.87,39 53.422,39 L56.953,39 C56.768,40.909 56.015,42.653 54.867,44.064 L54.867,44.064 Z" id="Fill-468" fill="#556080" sketch:type="MSShapeGroup"></path>
            <path d="M47.437,36.701 C46.644,36.701 46,37.345 46,38.139 C46,38.933 46.644,39.576 47.437,39.576 C48.231,39.576 48.875,38.933 48.875,38.139 C48.875,37.345 48.231,36.701 47.437,36.701" id="Fill-469" fill="#556080" sketch:type="MSShapeGroup"></path>
            <path d="M24.433,17.812 C24.191,17.812 23.949,17.726 23.757,17.549 L7.086,2.236 C6.68,1.863 6.653,1.231 7.026,0.824 C7.4,0.418 8.033,0.39 8.439,0.764 L25.109,16.076 C25.516,16.45 25.543,17.082 25.169,17.489 C24.972,17.704 24.703,17.812 24.433,17.812" id="Fill-470" fill="#F8C4B6" sketch:type="MSShapeGroup"></path>
            <path d="M24.433,17.813 C24.305,17.813 24.175,17.788 24.05,17.736 L2.617,8.841 C2.106,8.629 1.865,8.044 2.076,7.534 C2.288,7.024 2.873,6.783 3.383,6.993 L24.816,15.889 C25.327,16.101 25.568,16.686 25.357,17.196 C25.197,17.581 24.825,17.813 24.433,17.813" id="Fill-471" fill="#F8C4B6" sketch:type="MSShapeGroup"></path>
            <path d="M24.001,18 L23.965,18 L0.965,17.094 C0.413,17.074 -0.019,16.564 0.001,16.012 C0.02,15.461 0.499,15.019 1.035,15.024 L24.035,15.825 C24.587,15.844 25.019,16.396 25,16.947 C24.981,17.487 24.537,18 24.001,18" id="Fill-472" fill="#F8C4B6" sketch:type="MSShapeGroup"></path>
            <path d="M1.434,25.368 C1.015,25.368 0.626,25.103 0.485,24.685 C0.31,24.161 0.592,23.594 1.116,23.419 L23.683,15.864 C24.204,15.689 24.773,15.972 24.948,16.495 C25.124,17.019 24.841,17.585 24.317,17.761 L1.751,25.315 C1.646,25.351 1.539,25.368 1.434,25.368" id="Fill-473" fill="#F8C4B6" sketch:type="MSShapeGroup"></path>
            <path d="M37.067,24.328 C34.825,24.328 33,22.503 33,20.261 C33,19.709 33.448,19.261 34,19.261 C34.552,19.261 35,19.709 35,20.261 C35,21.401 35.927,22.328 37.067,22.328 C38.208,22.328 39.136,21.401 39.136,20.261 C39.136,19.709 39.583,19.261 40.136,19.261 C40.688,19.261 41.136,19.709 41.136,20.261 C41.136,22.503 39.311,24.328 37.067,24.328" id="Fill-474" fill="#F8C4B6" sketch:type="MSShapeGroup"></path>
            <path d="M44.067,24.328 C41.825,24.328 40,22.503 40,20.261 C40,19.709 40.448,19.261 41,19.261 C41.552,19.261 42,19.709 42,20.261 C42,21.401 42.927,22.328 44.067,22.328 C45.208,22.328 46.136,21.401 46.136,20.261 C46.136,19.709 46.584,19.261 47.136,19.261 C47.688,19.261 48.136,19.709 48.136,20.261 C48.136,22.503 46.311,24.328 44.067,24.328" id="Fill-475" fill="#F8C4B6" sketch:type="MSShapeGroup"></path>
            <path d="M51.067,24.328 C48.825,24.328 47,22.503 47,20.261 C47,19.709 47.448,19.261 48,19.261 C48.552,19.261 49,19.709 49,20.261 C49,21.401 49.927,22.328 51.067,22.328 C52.208,22.328 53.136,21.401 53.136,20.261 C53.136,19.709 53.583,19.261 54.136,19.261 C54.688,19.261 55.136,19.709 55.136,20.261 C55.136,22.503 53.311,24.328 51.067,24.328" id="Fill-476" fill="#F8C4B6" sketch:type="MSShapeGroup"></path>
            <path d="M33,20.5 C33,22.985 30.985,25 28.5,25 C26.015,25 24,22.985 24,20.5 C24,18.015 26.015,16 28.5,16 C30.985,16 33,18.015 33,20.5" id="Fill-477" fill="#F3D55B" sketch:type="MSShapeGroup"></path>
            <path d="M37.197,33 L23.804,33 C24.551,34.512 24.984,36.205 24.996,38 L36.004,38 C36.016,36.205 36.449,34.512 37.197,33" id="Fill-478" fill="#8697CB" sketch:type="MSShapeGroup"></path>
        </g>
    </g>
</svg>