<?xml version="1.0" encoding="UTF-8" standalone="no"?>
<svg width="53px" height="53px" viewBox="0 0 53 53" version="1.1" xmlns="http://www.w3.org/2000/svg" xmlns:xlink="http://www.w3.org/1999/xlink" xmlns:sketch="http://www.bohemiancoding.com/sketch/ns">
    <!-- Generator: Sketch 3.2.2 (9983) - http://www.bohemiancoding.com/sketch -->
    <title>15 - Toy (Flat)</title>
    <desc>Created with Sketch.</desc>
    <defs></defs>
    <g id="Page-1" stroke="none" stroke-width="1" fill="none" fill-rule="evenodd" sketch:type="MSPage">
        <g id="15---Toy-(Flat)" sketch:type="MSLayerGroup">
            <path d="M39.524,36.476 L35.988,40.012 L28.163,32.186 L31.699,28.651 L39.524,36.476" id="Fill-229" fill="#D77328" sketch:type="MSShapeGroup"></path>
            <path d="M49.73,36.783 C46.02,33.073 40.005,33.073 36.295,36.783 C32.585,40.492 32.585,46.508 36.295,50.218 C40.005,53.928 46.02,53.928 49.73,50.218 C53.44,46.508 53.44,40.492 49.73,36.783 L49.73,36.783 Z M46.901,47.389 C44.757,49.533 41.267,49.533 39.123,47.389 C36.979,45.245 36.979,41.755 39.123,39.611 C41.267,37.467 44.757,37.467 46.901,39.611 C49.045,41.755 49.045,45.245 46.901,47.389 L46.901,47.389 Z" id="Fill-230" fill="#F7C346" sketch:type="MSShapeGroup"></path>
            <path d="M33.113,21.58 L21.092,33.601 L3.414,15.923 L15.435,3.902 L33.113,21.58" id="Fill-261" fill="#D77328" sketch:type="MSShapeGroup"></path>
            <path d="M35.941,24.408 L23.92,36.429 C23.139,37.21 21.873,37.21 21.092,36.429 C20.311,35.648 20.311,34.382 21.092,33.601 L33.113,21.58 C33.894,20.799 35.16,20.799 35.941,21.58 C36.722,22.361 36.722,23.627 35.941,24.408" id="Fill-262" fill="#F7C346" sketch:type="MSShapeGroup"></path>
            <path d="M15.435,3.902 L3.414,15.923 C2.633,16.704 1.367,16.704 0.586,15.923 C-0.195,15.142 -0.195,13.876 0.586,13.094 L12.607,1.074 C13.388,0.292 14.654,0.292 15.435,1.074 C16.216,1.855 16.216,3.121 15.435,3.902" id="Fill-263" fill="#F7C346" sketch:type="MSShapeGroup"></path>
            <path d="M14.877,21.232 L10.658,19.801 L12.089,24.02 L11.842,24.351 L16.975,29.484 L17.773,26.916 L22.027,25.594 L18.39,23.022 L18.447,18.568 L14.877,21.232" id="Fill-264" fill="#F7C346" sketch:type="MSShapeGroup"></path>
            <path d="M17.083,11.703 L15.652,7.485 L19.871,8.915 L20.201,8.668 L25.334,13.802 L22.767,14.6 L21.445,18.854 L18.873,15.216 L14.418,15.273 L17.083,11.703" id="Fill-265" fill="#F7C346" sketch:type="MSShapeGroup"></path>
            <path d="M3.414,10.266 C1.657,8.509 1.657,5.659 3.414,3.902 C5.172,2.145 8.021,2.145 9.778,3.902 L3.414,10.266" id="Fill-266" fill="#D77328" sketch:type="MSShapeGroup"></path>
        </g>
    </g>
</svg>