<?xml version="1.0" encoding="UTF-8" standalone="no"?>
<svg width="59px" height="46px" viewBox="0 0 59 46" version="1.1" xmlns="http://www.w3.org/2000/svg" xmlns:xlink="http://www.w3.org/1999/xlink" xmlns:sketch="http://www.bohemiancoding.com/sketch/ns">
    <!-- Generator: Sketch 3.2.2 (9983) - http://www.bohemiancoding.com/sketch -->
    <title>31 - Toy Car (Flat)</title>
    <desc>Created with Sketch.</desc>
    <defs></defs>
    <g id="Page-1" stroke="none" stroke-width="1" fill="none" fill-rule="evenodd" sketch:type="MSPage">
        <g id="31---Toy-Car-(Flat)" sketch:type="MSLayerGroup">
            <path d="M7,18 L5,19 L5,4 L7,4 L7,18" id="Fill-36" fill="#BDC3C7" sketch:type="MSShapeGroup"></path>
            <path d="M56.058,28.829 C54.267,25.942 50.96,22.833 45.023,22.833 L40.023,22.833 C40.023,22.833 39.94,11 24.023,11 C24.023,11 12.386,11.726 5,17.503 C1.341,20.365 4.224,23.819 2.55,27.522 C1.723,29.352 0.89,31.539 0.411,33.751 C-0.075,35.989 2.382,38 5.52,38 L7.023,38 C7.023,33.582 10.605,30 15.023,30 C19.441,30 23.023,33.582 23.023,38 L35.023,38 C35.023,33.582 38.605,30 43.023,30 C47.44,30 51.021,33.58 51.023,37.997 L51.023,38 L54.952,38 C56.648,38 58.023,37.007 58.023,35.782 C58.023,33.392 57.41,31.01 56.058,28.829" id="Fill-53" fill="#35C3EE" sketch:type="MSShapeGroup"></path>
            <path d="M24.023,15.61 C24.023,15.61 14.5,14.838 10,22 L35.023,22 C35.023,22 34.106,15.43 24.023,15.61" id="Fill-155" fill="#556080" sketch:type="MSShapeGroup"></path>
            <path d="M9,3 C9,4.657 7.657,6 6,6 C4.343,6 3,4.657 3,3 C3,1.343 4.343,0 6,0 C7.657,0 9,1.343 9,3" id="Fill-156" fill="#ECF0F1" sketch:type="MSShapeGroup"></path>
            <path d="M23.023,38 C23.023,42.418 19.441,46 15.023,46 C10.605,46 7.023,42.418 7.023,38 C7.023,33.582 10.605,30 15.023,30 C19.441,30 23.023,33.582 23.023,38" id="Fill-157" fill="#556080" sketch:type="MSShapeGroup"></path>
            <path d="M15.023,41 C13.369,41 12.023,39.654 12.023,38 C12.023,36.346 13.369,35 15.023,35 C16.677,35 18.023,36.346 18.023,38 C18.023,39.654 16.677,41 15.023,41" id="Fill-158" fill="#D1D4D1" sketch:type="MSShapeGroup"></path>
            <path d="M51.023,38 C51.023,42.418 47.441,46 43.023,46 C38.605,46 35.023,42.418 35.023,38 C35.023,33.582 38.605,30 43.023,30 C47.441,30 51.023,33.582 51.023,38" id="Fill-159" fill="#556080" sketch:type="MSShapeGroup"></path>
            <path d="M43.023,41 C41.369,41 40.023,39.654 40.023,38 C40.023,36.346 41.369,35 43.023,35 C44.677,35 46.023,36.346 46.023,38 C46.023,39.654 44.677,41 43.023,41" id="Fill-160" fill="#D1D4D1" sketch:type="MSShapeGroup"></path>
            <path d="M26,30.333 C25.447,30.333 25,29.885 25,29.333 L25,27 L21.022,27 C20.47,27 20.022,26.552 20.022,26 C20.022,25.448 20.47,25 21.022,25 L26,25 C26.553,25 27,25.448 27,26 L27,29.333 C27,29.885 26.553,30.333 26,30.333" id="Fill-161" fill="#FFFFFF" sketch:type="MSShapeGroup"></path>
            <path d="M57.471,31.984 C57.149,30.902 56.687,29.843 56.058,28.829 C55.328,27.652 54.339,26.441 53.029,25.416 C52.18,26.114 51.658,27.025 51.658,28.028 C51.658,30.222 54.121,32 57.158,32 C57.264,32 57.366,31.989 57.471,31.984" id="Fill-219" fill="#F0C419" sketch:type="MSShapeGroup"></path>
            <path d="M25,22 L27,22 L27,15.789 C26.384,15.703 25.713,15.653 25,15.633 L25,22" id="Fill-417" fill="#8697CB" sketch:type="MSShapeGroup"></path>
        </g>
    </g>
</svg>