<?xml version="1.0" encoding="UTF-8" standalone="no"?>
<svg width="54px" height="40px" viewBox="0 0 54 40" version="1.1" xmlns="http://www.w3.org/2000/svg" xmlns:xlink="http://www.w3.org/1999/xlink" xmlns:sketch="http://www.bohemiancoding.com/sketch/ns">
    <!-- Generator: Sketch 3.2.2 (9983) - http://www.bohemiancoding.com/sketch -->
    <title>41 - Toy Train (Flat)</title>
    <desc>Created with Sketch.</desc>
    <defs></defs>
    <g id="Page-1" stroke="none" stroke-width="1" fill="none" fill-rule="evenodd" sketch:type="MSPage">
        <g id="41---Toy-Train-(Flat)" sketch:type="MSLayerGroup">
            <path d="M2,15 L41,15 L41,29 L2,29 L2,15 Z" id="Fill-100" fill="#C03A2B" sketch:type="MSShapeGroup"></path>
            <path d="M10.088,36 C10.088,38.209 8.297,40 6.088,40 C3.878,40 2.088,38.209 2.088,36 C2.088,33.791 3.878,32 6.088,32 C8.297,32 10.088,33.791 10.088,36" id="Fill-101" fill="#C03A2B" sketch:type="MSShapeGroup"></path>
            <path d="M21.088,36 C21.088,38.209 19.297,40 17.088,40 C14.878,40 13.088,38.209 13.088,36 C13.088,33.791 14.878,32 17.088,32 C19.297,32 21.088,33.791 21.088,36" id="Fill-102" fill="#C03A2B" sketch:type="MSShapeGroup"></path>
            <path d="M32.088,36 C32.088,38.209 30.297,40 28.088,40 C25.878,40 24.088,38.209 24.088,36 C24.088,33.791 25.878,32 28.088,32 C30.297,32 32.088,33.791 32.088,36" id="Fill-103" fill="#C03A2B" sketch:type="MSShapeGroup"></path>
            <path d="M43.088,36 C43.088,38.209 41.297,40 39.088,40 C36.878,40 35.088,38.209 35.088,36 C35.088,33.791 36.878,32 39.088,32 C41.297,32 43.088,33.791 43.088,36" id="Fill-104" fill="#C03A2B" sketch:type="MSShapeGroup"></path>
            <path d="M53.912,35 L45.175,35 C45.127,35 45.088,34.961 45.088,34.912 L45.088,23.263 C45.088,23.179 45.195,23.143 45.245,23.211 L53.982,34.86 C54.026,34.918 53.984,35 53.912,35" id="Fill-105" fill="#F3D55B" sketch:type="MSShapeGroup"></path>
            <path d="M29,8 L38,8 L38,15 L29,15 L29,8 Z" id="Fill-106" fill="#F0C419" sketch:type="MSShapeGroup"></path>
            <path d="M38,8 L29,8 L27.023,4.558 C26.611,3.873 27.105,3 27.905,3 L39.27,3 C40.07,3 40.564,3.873 40.153,4.558 L38,8" id="Fill-107" fill="#BF9A22" sketch:type="MSShapeGroup"></path>
            <path d="M0,29 L0,35 L2.229,35 C2.675,33.278 4.226,32 6.088,32 C7.949,32 9.5,33.278 9.946,35 L13.229,35 C13.675,33.278 15.226,32 17.088,32 C18.949,32 20.5,33.278 20.946,35 L24.229,35 C24.675,33.278 26.226,32 28.088,32 C29.949,32 31.5,33.278 31.946,35 L35.229,35 C35.675,33.278 37.226,32 39.088,32 C40.949,32 42.5,33.278 42.946,35 L45.088,35 L45.088,29 L0,29" id="Fill-108" fill="#E04B3F" sketch:type="MSShapeGroup"></path>
            <path d="M4,1 L20,1 L20,15 L4,15 L4,1 Z" id="Fill-109" fill="#E04B3F" sketch:type="MSShapeGroup"></path>
            <path d="M22.088,2 L2.088,2 C1.535,2 1.088,1.552 1.088,1 C1.088,0.448 1.535,0 2.088,0 L22.088,0 C22.641,0 23.088,0.448 23.088,1 C23.088,1.552 22.641,2 22.088,2" id="Fill-110" fill="#C03A2B" sketch:type="MSShapeGroup"></path>
            <path d="M8,5 L16,5 L16,15 L8,15 L8,5 Z" id="Fill-111" fill="#F3D55B" sketch:type="MSShapeGroup"></path>
            <path d="M16,22 C16,24.209 14.209,26 12,26 C9.791,26 8,24.209 8,22 C8,19.791 9.791,18 12,18 C14.209,18 16,19.791 16,22" id="Fill-220" fill="#F3D55B" sketch:type="MSShapeGroup"></path>
            <path d="M24,26 C23.744,26 23.488,25.902 23.293,25.707 C22.902,25.316 22.902,24.684 23.293,24.293 L29.293,18.293 C29.684,17.902 30.316,17.902 30.707,18.293 C31.098,18.684 31.098,19.316 30.707,19.707 L24.707,25.707 C24.512,25.902 24.256,26 24,26" id="Fill-221" fill="#F9EBB0" sketch:type="MSShapeGroup"></path>
            <path d="M30,26 C29.744,26 29.488,25.902 29.293,25.707 C28.902,25.316 28.902,24.684 29.293,24.293 L35.293,18.293 C35.684,17.902 36.316,17.902 36.707,18.293 C37.098,18.684 37.098,19.316 36.707,19.707 L30.707,25.707 C30.512,25.902 30.256,26 30,26" id="Fill-222" fill="#F9EBB0" sketch:type="MSShapeGroup"></path>
        </g>
    </g>
</svg>