<?xml version="1.0" encoding="UTF-8" standalone="no"?>
<svg width="56px" height="56px" viewBox="0 0 56 56" version="1.1" xmlns="http://www.w3.org/2000/svg" xmlns:xlink="http://www.w3.org/1999/xlink" xmlns:sketch="http://www.bohemiancoding.com/sketch/ns">
    <!-- Generator: Sketch 3.2.2 (9983) - http://www.bohemiancoding.com/sketch -->
    <title>39 - Tricycle (Flat)</title>
    <desc>Created with Sketch.</desc>
    <defs></defs>
    <g id="Page-1" stroke="none" stroke-width="1" fill="none" fill-rule="evenodd" sketch:type="MSPage">
        <g id="39---Tricycle-(Flat)" sketch:type="MSLayerGroup" transform="translate(1.000000, 0.000000)">
            <path d="M38.77,8 C38.217,8 37.77,7.552 37.77,7 C37.77,5.346 36.424,4 34.77,4 C34.217,4 33.77,3.552 33.77,3 C33.77,2.448 34.217,2 34.77,2 C37.526,2 39.77,4.243 39.77,7 C39.77,7.552 39.322,8 38.77,8" id="Fill-37" fill="#DF4D60" sketch:type="MSShapeGroup"></path>
            <path d="M42.77,7 C42.217,7 41.77,6.552 41.77,6 C41.77,3.832 38.564,2 34.77,2 C34.217,2 33.77,1.552 33.77,1 C33.77,0.448 34.217,0 34.77,0 C39.816,0 43.77,2.636 43.77,6 C43.77,6.552 43.322,7 42.77,7" id="Fill-38" fill="#DF4D60" sketch:type="MSShapeGroup"></path>
            <path d="M54,47 C54,51.418 50.418,55 46,55 C41.582,55 38,51.418 38,47 C38,42.582 41.582,39 46,39 C50.418,39 54,42.582 54,47 L54,47 Z" id="Fill-114" fill="#F3D55B" sketch:type="MSShapeGroup"></path>
            <path d="M54,47 C54,51.418 50.418,55 46,55 C41.582,55 38,51.418 38,47 C38,42.582 41.582,39 46,39 C50.418,39 54,42.582 54,47 L54,47 Z" id="Stroke-115" stroke="#DF4D60" stroke-width="2" sketch:type="MSShapeGroup"></path>
            <path d="M46,50 C44.346,50 43,48.654 43,47 C43,45.346 44.346,44 46,44 C47.654,44 49,45.346 49,47 C49,48.654 47.654,50 46,50" id="Fill-116" fill="#A33447" sketch:type="MSShapeGroup"></path>
            <path d="M32.77,6 L22.77,6 C21.12,6 19.77,4.65 19.77,3 C19.77,1.35 21.12,0 22.77,0 L32.77,0 C34.42,0 35.77,1.35 35.77,3 C35.77,4.65 34.42,6 32.77,6" id="Fill-117" fill="#FB7B76" sketch:type="MSShapeGroup"></path>
            <path d="M42.13,40 C43.268,39.369 44.575,39.007 45.968,39.002 C45.299,28.347 31.139,19.748 17,19.051 C16.85,20.359 16.726,21.695 16.624,23.035 C29.172,23.578 42,30.978 42,40 L42.13,40" id="Fill-118" fill="#DF4D60" sketch:type="MSShapeGroup"></path>
            <path d="M47.257,21.956 L37.204,19.164 C36.493,18.966 36,18.318 36,17.579 C36,16.841 36.493,16.193 37.204,15.995 L47.257,13.203 C49.216,12.877 51,14.388 51,16.374 L51,18.785 C51,20.771 49.216,22.282 47.257,21.956" id="Fill-119" fill="#F3D55B" sketch:type="MSShapeGroup"></path>
            <path d="M40.841,20.174 L37,25.551 C37.127,25.651 37.24,25.762 37.365,25.864 C38.347,26.561 39.265,27.3 40.11,28.078 L45.701,21.523 L40.841,20.174" id="Fill-120" fill="#A33447" sketch:type="MSShapeGroup"></path>
            <path d="M14.77,27 C15.528,27 16.268,27.077 16.994,27.193 C17.401,18.533 18.547,8.666 21.78,5.818 C20.615,5.406 19.77,4.302 19.77,3 C19.77,2.702 19.827,2.419 19.909,2.146 C15.377,5.208 13.576,14.242 13,27.124 C13.581,27.05 14.169,27 14.77,27" id="Fill-152" fill="#DF4D60" sketch:type="MSShapeGroup"></path>
            <path d="M28,41 C28,48.732 21.732,55 14,55 C6.268,55 0,48.732 0,41 C0,33.268 6.268,27 14,27 C21.732,27 28,33.268 28,41 L28,41 Z" id="Fill-479" fill="#F3D55B" sketch:type="MSShapeGroup"></path>
            <path d="M28,41 C28,48.732 21.732,55 14,55 C6.268,55 0,48.732 0,41 C0,33.268 6.268,27 14,27 C21.732,27 28,33.268 28,41 L28,41 Z" id="Stroke-480" stroke="#DF4D60" stroke-width="2" sketch:type="MSShapeGroup"></path>
            <path d="M11.172,43.828 C9.612,42.269 9.612,39.732 11.172,38.172 C12.732,36.612 15.269,36.612 16.828,38.172 C18.388,39.731 18.388,42.268 16.828,43.828 C15.269,45.388 12.731,45.388 11.172,43.828" id="Fill-481" fill="#DF4D60" sketch:type="MSShapeGroup"></path>
            <path d="M23.9,31.101 L19.657,35.343 M8.343,46.657 L4.101,50.9 M23.9,50.9 L19.657,46.657 M8.343,35.343 L4.101,31.101" id="Stroke-482" stroke="#DF4D60" stroke-width="2" stroke-linecap="round" sketch:type="MSShapeGroup"></path>
            <path d="M14,40 L22,40 L22,42 L14,42 L14,40 Z" id="Fill-483" fill="#A33447" sketch:type="MSShapeGroup"></path>
        </g>
    </g>
</svg>