<?xml version="1.0" encoding="UTF-8" standalone="no"?>
<svg width="44px" height="58px" viewBox="0 0 44 58" version="1.1" xmlns="http://www.w3.org/2000/svg" xmlns:xlink="http://www.w3.org/1999/xlink" xmlns:sketch="http://www.bohemiancoding.com/sketch/ns">
    <!-- Generator: Sketch 3.2.2 (9983) - http://www.bohemiancoding.com/sketch -->
    <title>12 - Antivirus Settings (Flat)</title>
    <desc>Created with Sketch.</desc>
    <defs></defs>
    <g id="Page-1" stroke="none" stroke-width="1" fill="none" fill-rule="evenodd" sketch:type="MSPage">
        <g id="12---Antivirus-Settings-(Flat)" sketch:type="MSLayerGroup">
            <path d="M22,0 C22,0 15.333,8 0,8 L0,27.085 C0,37.051 4.328,46.662 12.164,52.82 C14.938,55 18.208,56.875 22,58 C25.792,56.875 29.062,55 31.836,52.82 C39.672,46.662 44,37.051 44,27.085 L44,8 C28.667,8 22,0 22,0" id="Fill-30" fill="#88C057" sketch:type="MSShapeGroup"></path>
            <path d="M0,8 L0,27.085 C0,37.051 4.328,46.662 12.164,52.82 C14.938,55 18.208,56.875 22,58 L22,0 C22,0 15.333,8 0,8" id="Fill-31" fill="#7CAA50" sketch:type="MSShapeGroup"></path>
            <path d="M34,26 L31.427,26 C30.117,26 29.571,24.917 30.497,23.991 L32.283,22.205 C32.63,21.857 32.63,21.294 32.283,20.946 L30.006,18.669 C29.659,18.322 29.095,18.322 28.747,18.669 L26.961,20.455 C26.035,21.381 24,20.726 24,19.416 L24,16.89 C24,16.399 23.601,16 23.11,16 L20.89,16 C20.399,16 20,16.399 20,16.89 L20,19.416 C20,20.726 17.869,21.381 16.943,20.455 L15.157,18.669 C14.809,18.322 14.246,18.322 13.898,18.669 L11.622,20.946 C11.274,21.294 11.274,21.857 11.622,22.205 L13.408,23.991 C14.333,24.917 13.787,26 12.478,26 L10,26 C9.508,26 9,26.899 9,27.39 L9,30 C9,30.492 9.508,31 10,31 L12.478,31 C13.787,31 14.333,33.083 13.408,34.009 L11.622,35.795 C11.274,36.143 11.274,36.707 11.622,37.054 L13.898,39.331 C14.246,39.678 14.809,39.678 15.157,39.331 L16.943,37.545 C17.869,36.619 20,37.691 20,39 L20,41 C20,41.492 19.851,42 20.343,42 L23.562,42 C24.054,42 24,41.492 24,41 L24,39 C24,37.691 26.035,36.619 26.961,37.545 L28.747,39.331 C29.095,39.678 29.659,39.678 30.006,39.331 L32.283,37.054 C32.63,36.707 32.63,36.143 32.283,35.795 L30.497,34.009 C29.571,33.083 30.117,32 31.427,32 L34,32 C34.492,32 35,31.101 35,30.61 L35,27.39 C35,26.899 34.492,26 34,26 L34,26 Z M21.952,33 C19.743,33 17.952,31.209 17.952,29 C17.952,26.791 19.743,25 21.952,25 C24.161,25 25.952,26.791 25.952,29 C25.952,31.209 24.161,33 21.952,33 L21.952,33 Z" id="Fill-432" fill="#ECF0F1" sketch:type="MSShapeGroup"></path>
            <path d="M22,32.995 C21.984,32.995 21.969,33 21.952,33 C19.743,33 17.952,31.209 17.952,29 C17.952,26.791 19.743,25 21.952,25 C21.969,25 21.984,25.005 22,25.005 L22,16 L20.89,16 C20.399,16 20,16.399 20,16.89 L20,19.416 C20,20.726 17.869,21.381 16.943,20.455 L15.157,18.669 C14.809,18.322 14.246,18.322 13.898,18.669 L11.622,20.946 C11.274,21.294 11.274,21.857 11.622,22.205 L13.408,23.991 C14.333,24.917 13.787,26 12.478,26 L10,26 C9.508,26 9,26.899 9,27.39 L9,30 C9,30.492 9.508,31 10,31 L12.478,31 C13.787,31 14.333,33.083 13.408,34.009 L11.622,35.795 C11.274,36.143 11.274,36.707 11.622,37.054 L13.898,39.331 C14.246,39.678 14.809,39.678 15.157,39.331 L16.943,37.545 C17.869,36.619 20,37.691 20,39 L20,41 C20,41.492 19.851,42 20.343,42 L22,42 L22,32.995" id="Fill-605" fill="#DCDFE0" sketch:type="MSShapeGroup"></path>
        </g>
    </g>
</svg>