<?xml version="1.0" encoding="UTF-8" standalone="no"?>
<svg width="44px" height="58px" viewBox="0 0 44 58" version="1.1" xmlns="http://www.w3.org/2000/svg" xmlns:xlink="http://www.w3.org/1999/xlink" xmlns:sketch="http://www.bohemiancoding.com/sketch/ns">
    <!-- Generator: Sketch 3.2.2 (9983) - http://www.bohemiancoding.com/sketch -->
    <title>17 - Antivirus Fingerprint Encryption (Flat)</title>
    <desc>Created with Sketch.</desc>
    <defs></defs>
    <g id="Page-1" stroke="none" stroke-width="1" fill="none" fill-rule="evenodd" sketch:type="MSPage">
        <g id="17---Antivirus-Fingerprint-Encryption-(Flat)" sketch:type="MSLayerGroup">
            <path d="M22,0 C22,0 15.333,8 0,8 L0,27.085 C0,37.051 4.328,46.662 12.164,52.82 C14.937,55 18.208,56.875 22,58 C25.792,56.875 29.062,55 31.836,52.82 C39.672,46.662 44,37.051 44,27.085 L44,8 C28.667,8 22,0 22,0" id="Fill-110" fill="#D75A4A" sketch:type="MSShapeGroup"></path>
            <path d="M22.35,26.533 C21.843,26.743 21.601,27.326 21.807,27.835 C21.822,27.873 23.338,31.775 22.914,43.965 C22.894,44.518 23.326,44.981 23.878,44.999 C23.89,45 23.902,45 23.914,45 C24.45,45 24.894,44.575 24.913,44.035 C25.358,31.255 23.722,27.229 23.652,27.064 C23.438,26.559 22.859,26.319 22.35,26.533" id="Fill-290" fill="#ED7161" sketch:type="MSShapeGroup"></path>
            <path d="M37.803,21.077 C35.235,15.01 29.32,11.089 22.732,11.089 C20.556,11.089 18.436,11.514 16.431,12.352 C15.569,12.711 14.851,13.207 14.156,13.688 C13.923,13.848 13.691,14.008 13.455,14.161 C12.992,14.463 12.86,15.082 13.162,15.545 C13.463,16.008 14.081,16.14 14.545,15.839 C14.797,15.675 15.045,15.504 15.293,15.333 C15.93,14.893 16.533,14.476 17.202,14.197 C18.961,13.462 20.822,13.089 22.732,13.089 C28.515,13.089 33.708,16.53 35.961,21.856 C37.146,24.657 37.795,26.958 38.005,29.098 C38.055,29.614 38.49,30 38.999,30 C39.031,30 39.065,29.998 39.097,29.995 C39.647,29.941 40.049,29.452 39.995,28.902 C39.766,26.557 39.069,24.069 37.803,21.077" id="Fill-291" fill="#ED7161" sketch:type="MSShapeGroup"></path>
            <path d="M8.006,27.378 C8.12,23.156 9.294,20.085 11.702,17.712 C12.095,17.324 12.1,16.691 11.712,16.298 C11.324,15.905 10.691,15.899 10.298,16.288 C7.499,19.047 6.135,22.554 6.007,27.323 L6.007,27.324 C5.932,30.134 6.261,32.663 7.042,35.285 C7.171,35.72 7.569,36 8,36 C8.094,36 8.19,35.986 8.286,35.958 C8.815,35.801 9.116,35.244 8.958,34.715 C8.239,32.301 7.937,29.97 8.006,27.378" id="Fill-292" fill="#ED7161" sketch:type="MSShapeGroup"></path>
            <path d="M35.879,27.189 C35.686,25.984 35.415,24.879 35.052,23.811 C33.396,18.93 28.08,14.817 23.2,14.644 C21.331,14.574 19.515,14.906 17.796,15.623 C13.048,17.604 9.952,22.204 9.909,27.341 C9.898,28.553 10.061,29.762 10.394,30.937 C10.568,31.554 10.733,32.158 10.822,32.769 C11.033,34.211 11.088,36.742 11,40.98 C10.989,41.531 11.427,41.988 11.979,42 L12,42 C12.543,42 12.988,41.565 13,41.021 C13.09,36.669 13.029,34.034 12.801,32.48 C12.694,31.75 12.504,31.048 12.318,30.392 C12.037,29.4 11.899,28.38 11.909,27.358 C11.945,23.023 14.559,19.141 18.566,17.469 C20.016,16.863 21.544,16.579 23.129,16.642 C27.178,16.786 31.771,20.363 33.159,24.453 C33.485,25.415 33.729,26.414 33.905,27.508 C33.905,27.508 33.905,27.508 33.905,27.509 C34.257,29.701 34.177,32.258 34.066,35.796 L34,37.973 C33.985,38.524 34.42,38.984 34.973,39 L35,39 C35.54,39 35.985,38.57 35.999,38.027 L36.065,35.859 C36.18,32.209 36.262,29.572 35.879,27.19 C35.879,27.19 35.879,27.19 35.879,27.189" id="Fill-293" fill="#ED7161" sketch:type="MSShapeGroup"></path>
            <path d="M32.271,27.157 C32.042,25.974 31.715,24.889 31.272,23.84 C29.748,20.237 26.578,18 23,18 C22.33,18 21.66,18.072 21.011,18.216 C20.471,18.335 20.13,18.868 20.249,19.408 C20.368,19.947 20.901,20.282 21.441,20.169 C21.95,20.057 22.474,20 23,20 C25.761,20 28.225,21.77 29.43,24.619 C29.818,25.537 30.105,26.491 30.307,27.536 L30.307,27.539 C30.765,29.914 31.258,33.587 31,40.965 C30.981,41.518 31.413,41.981 31.965,41.999 C31.977,42 31.989,42 32,42 C32.537,42 32.98,41.575 32.999,41.035 C33.206,35.121 32.981,30.842 32.271,27.16 L32.271,27.157" id="Fill-294" fill="#ED7161" sketch:type="MSShapeGroup"></path>
            <path d="M15.909,29.985 C15.677,29.129 15.572,28.252 15.597,27.38 L15.597,27.378 C15.66,25.182 16.618,22.192 18.575,20.818 C19.026,20.501 19.136,19.877 18.818,19.426 C18.502,18.974 17.878,18.863 17.425,19.182 C14.891,20.961 13.677,24.552 13.598,27.321 L13.598,27.324 C13.567,28.392 13.695,29.462 13.976,30.501 C13.989,30.551 14.011,30.622 14.042,30.718 C15.074,33.978 15.133,39.177 15,42.965 C14.981,43.517 15.413,43.981 15.965,43.999 C15.977,44 15.989,44 16,44 C16.537,44 16.98,43.575 17,43.035 C17.2,37.297 16.846,32.949 15.949,30.114 L15.909,29.985" id="Fill-295" fill="#ED7161" sketch:type="MSShapeGroup"></path>
            <path d="M29,40.23 L29,40.006 C29.003,39.454 28.559,39.004 28.006,39 L28,39 C27.451,39 27.003,39.443 27,39.994 L26.999,40.23 C26.999,40.564 27.004,40.857 27.009,41.148 C27.014,41.42 27.018,41.689 27.018,41.999 C27.018,42.552 27.466,42.992 28.018,42.992 C28.57,42.992 29.018,42.537 29.018,41.984 C29.018,41.677 29.014,41.398 29.009,41.114 C29.004,40.835 29,40.551 29,40.23" id="Fill-296" fill="#ED7161" sketch:type="MSShapeGroup"></path>
            <path d="M28.017,27.092 C27.776,26.193 27.564,25.692 27.462,25.452 C26.657,23.548 24.8,22.317 22.732,22.317 C22.05,22.317 21.384,22.451 20.753,22.714 C18.891,23.49 17.653,25.3 17.598,27.323 C17.579,28.003 17.694,28.669 17.929,29.276 C18.168,30.001 19.344,34.113 19,43.965 C18.981,44.517 19.413,44.981 19.965,44.999 C19.977,45 19.989,45 20,45 C20.537,45 20.98,44.575 20.999,44.035 C21.346,34.099 20.19,29.746 19.804,28.582 C19.655,28.196 19.585,27.791 19.597,27.378 C19.63,26.14 20.387,25.034 21.523,24.56 C21.909,24.398 22.315,24.317 22.732,24.317 C23.995,24.317 25.128,25.068 25.621,26.232 C25.705,26.432 25.88,26.845 26.084,27.607 L26.084,27.608 C26.485,29.107 26.987,31.941 27.102,36.931 C27.114,37.476 27.56,37.908 28.101,37.908 L28.124,37.908 C28.677,37.896 29.114,37.438 29.101,36.886 C29.007,32.781 28.632,29.395 28.017,27.093 L28.017,27.092" id="Fill-297" fill="#ED7161" sketch:type="MSShapeGroup"></path>
        </g>
    </g>
</svg>