<?xml version="1.0" encoding="UTF-8" standalone="no"?>
<svg width="58px" height="46px" viewBox="0 0 58 46" version="1.1" xmlns="http://www.w3.org/2000/svg" xmlns:xlink="http://www.w3.org/1999/xlink" xmlns:sketch="http://www.bohemiancoding.com/sketch/ns">
    <!-- Generator: Sketch 3.2.2 (9983) - http://www.bohemiancoding.com/sketch -->
    <title>42 - Antivirus Protection (Flat)</title>
    <desc>Created with Sketch.</desc>
    <defs></defs>
    <g id="Page-1" stroke="none" stroke-width="1" fill="none" fill-rule="evenodd" sketch:type="MSPage">
        <g id="42---Antivirus-Protection-(Flat)" sketch:type="MSLayerGroup">
            <path d="M24.093,42 C24.301,42.58 24.851,43 25.5,43 L33.5,43 C34.149,43 34.699,42.58 34.907,42 L55,42 L55,3.067 C55,1.373 53.627,0 51.933,0 L6.067,0 C4.373,0 3,1.373 3,3.067 L3,42 L24.093,42" id="Fill-96" fill="#ECF0F1" sketch:type="MSShapeGroup"></path>
            <path d="M6,3 L52,3 L52,39 L6,39 L6,3 Z" id="Fill-97" fill="#8697CB" sketch:type="MSShapeGroup"></path>
            <path d="M29,33 C27.797,32.528 26.633,31.853 25.528,30.985 C22.026,28.233 20,24.781 20,20.078 L20,13 C24.187,12.466 27.096,10.294 29,9 C30.904,10.294 33.813,12.466 38,13 L38,20.078 C38,24.781 35.974,28.233 32.472,30.985 C31.367,31.853 30.203,32.528 29,33" id="Fill-106" fill="#F0C419" sketch:type="MSShapeGroup"></path>
            <path d="M29,34 C28.876,34 28.752,33.977 28.635,33.931 C27.342,33.424 26.088,32.697 24.91,31.771 C20.934,28.646 19,24.82 19,20.078 L19,13 C19,12.497 19.374,12.072 19.873,12.008 C23.528,11.542 26.125,9.759 28.021,8.458 L28.437,8.173 C28.777,7.942 29.223,7.942 29.563,8.173 L29.979,8.458 C31.875,9.759 34.472,11.542 38.127,12.008 C38.626,12.072 39,12.497 39,13 L39,20.078 C39,24.82 37.066,28.646 33.09,31.771 C31.912,32.697 30.658,33.424 29.365,33.931 C29.248,33.977 29.124,34 29,34 L29,34 Z M21,13.856 L21,20.078 C21,24.223 22.635,27.439 26.146,30.198 C27.059,30.916 28.017,31.493 29,31.919 C29.983,31.493 30.941,30.916 31.854,30.198 C35.365,27.439 37,24.223 37,20.078 L37,13.856 C33.423,13.196 30.804,11.449 29,10.212 C27.196,11.449 24.577,13.196 21,13.856 L21,13.856 Z" id="Fill-107" fill="#556080" sketch:type="MSShapeGroup"></path>
            <path d="M34.907,42 C34.699,42.58 34.149,43 33.5,43 L25.5,43 C24.851,43 24.301,42.58 24.093,42 L0.578,42 C0.259,42 0,42.259 0,42.578 L0,45.422 C0,45.741 0.259,46 0.578,46 L57.422,46 C57.741,46 58,45.741 58,45.422 L58,42.578 C58,42.259 57.741,42 57.422,42 L34.907,42" id="Fill-127" fill="#D1D4D1" sketch:type="MSShapeGroup"></path>
        </g>
    </g>
</svg>