<?xml version="1.0" encoding="UTF-8" standalone="no"?>
<svg width="57px" height="47px" viewBox="0 0 57 47" version="1.1" xmlns="http://www.w3.org/2000/svg" xmlns:xlink="http://www.w3.org/1999/xlink" xmlns:sketch="http://www.bohemiancoding.com/sketch/ns">
    <!-- Generator: Sketch 3.2.2 (9983) - http://www.bohemiancoding.com/sketch -->
    <title>35 - Bank Camera (Flat)</title>
    <desc>Created with Sketch.</desc>
    <defs></defs>
    <g id="Page-1" stroke="none" stroke-width="1" fill="none" fill-rule="evenodd" sketch:type="MSPage">
        <g id="35---Bank-Camera-(Flat)" sketch:type="MSLayerGroup" transform="translate(-1.000000, 0.000000)">
            <path d="M15.007,42.386 L11.084,45.486 L3.644,36.071 L7.567,32.971 L15.007,42.386" id="Fill-47" fill="#556080" sketch:type="MSShapeGroup"></path>
            <path d="M9.844,43.917 L5.921,47.017 L0.961,40.74 L4.884,37.64 L9.844,43.917" id="Fill-48" fill="#8697CB" sketch:type="MSShapeGroup"></path>
            <path d="M6,29 C6,30.616 6.263,32.169 6.736,33.628 L7.567,32.97 L15.007,42.386 L14.723,42.61 C16.635,43.493 18.756,44 21,44 C29.284,44 36,37.284 36,29 L6,29" id="Fill-94" fill="#ECF0F1" sketch:type="MSShapeGroup"></path>
            <path d="M58,18 L50,18 C50,11.563 47.375,7 40,7 L37,7 L37,0 L58,0 L58,18" id="Fill-161" fill="#556080" sketch:type="MSShapeGroup"></path>
            <path d="M10,33 C10.552,33 11,32.552 11,32 C11,31.448 10.552,31 10,31 C9.448,31 9,31.448 9,32 C9,32.552 9.448,33 10,33" id="Fill-164" fill="#FFFFFF" sketch:type="MSShapeGroup"></path>
            <path d="M14,33 C14.552,33 15,32.552 15,32 C15,31.448 14.552,31 14,31 C13.448,31 13,31.448 13,32 C13,32.552 13.448,33 14,33" id="Fill-165" fill="#FFFFFF" sketch:type="MSShapeGroup"></path>
            <path d="M18,33 C18.552,33 19,32.552 19,32 C19,31.448 18.552,31 18,31 C17.448,31 17,31.448 17,32 C17,32.552 17.448,33 18,33" id="Fill-166" fill="#FFFFFF" sketch:type="MSShapeGroup"></path>
            <path d="M22,33 C22.552,33 23,32.552 23,32 C23,31.448 22.552,31 22,31 C21.448,31 21,31.448 21,32 C21,32.552 21.448,33 22,33" id="Fill-167" fill="#FFFFFF" sketch:type="MSShapeGroup"></path>
            <path d="M26,33 C26.552,33 27,32.552 27,32 C27,31.448 26.552,31 26,31 C25.448,31 25,31.448 25,32 C25,32.552 25.448,33 26,33" id="Fill-168" fill="#FFFFFF" sketch:type="MSShapeGroup"></path>
            <path d="M30,33 C30.552,33 31,32.552 31,32 C31,31.448 30.552,31 30,31 C29.448,31 29,31.448 29,32 C29,32.552 29.448,33 30,33" id="Fill-169" fill="#FFFFFF" sketch:type="MSShapeGroup"></path>
            <path d="M34,31 C33.448,31 33,31.448 33,32 C33,32.552 33.448,33 34,33 C34.552,33 35,32.552 35,32 C35,31.448 34.552,31 34,31" id="Fill-170" fill="#FFFFFF" sketch:type="MSShapeGroup"></path>
            <path d="M32,33 C31.448,33 31,33.448 31,34 C31,34.552 31.448,35 32,35 C32.552,35 33,34.552 33,34 C33,33.448 32.552,33 32,33" id="Fill-171" fill="#FFFFFF" sketch:type="MSShapeGroup"></path>
            <path d="M28,35 C28.552,35 29,34.552 29,34 C29,33.448 28.552,33 28,33 C27.448,33 27,33.448 27,34 C27,34.552 27.448,35 28,35" id="Fill-172" fill="#FFFFFF" sketch:type="MSShapeGroup"></path>
            <path d="M24,35 C24.552,35 25,34.552 25,34 C25,33.448 24.552,33 24,33 C23.448,33 23,33.448 23,34 C23,34.552 23.448,35 24,35" id="Fill-173" fill="#FFFFFF" sketch:type="MSShapeGroup"></path>
            <path d="M26,35 C25.448,35 25,35.448 25,36 C25,36.552 25.448,37 26,37 C26.552,37 27,36.552 27,36 C27,35.448 26.552,35 26,35" id="Fill-174" fill="#FFFFFF" sketch:type="MSShapeGroup"></path>
            <path d="M30,35 C29.448,35 29,35.448 29,36 C29,36.552 29.448,37 30,37 C30.552,37 31,36.552 31,36 C31,35.448 30.552,35 30,35" id="Fill-175" fill="#FFFFFF" sketch:type="MSShapeGroup"></path>
            <path d="M20,35 C20.552,35 21,34.552 21,34 C21,33.448 20.552,33 20,33 C19.448,33 19,33.448 19,34 C19,34.552 19.448,35 20,35" id="Fill-176" fill="#FFFFFF" sketch:type="MSShapeGroup"></path>
            <path d="M16,35 C16.552,35 17,34.552 17,34 C17,33.448 16.552,33 16,33 C15.448,33 15,33.448 15,34 C15,34.552 15.448,35 16,35" id="Fill-177" fill="#FFFFFF" sketch:type="MSShapeGroup"></path>
            <path d="M18,35 C17.448,35 17,35.448 17,36 C17,36.552 17.448,37 18,37 C18.552,37 19,36.552 19,36 C19,35.448 18.552,35 18,35" id="Fill-178" fill="#FFFFFF" sketch:type="MSShapeGroup"></path>
            <path d="M12,33 C11.448,33 11,33.448 11,34 C11,34.552 11.448,35 12,35 C12.552,35 13,34.552 13,34 C13,33.448 12.552,33 12,33" id="Fill-179" fill="#FFFFFF" sketch:type="MSShapeGroup"></path>
            <path d="M14,35 C13.448,35 13,35.448 13,36 C13,36.552 13.448,37 14,37 C14.552,37 15,36.552 15,36 C15,35.448 14.552,35 14,35" id="Fill-180" fill="#FFFFFF" sketch:type="MSShapeGroup"></path>
            <path d="M16,37 C15.448,37 15,37.448 15,38 C15,38.552 15.448,39 16,39 C16.552,39 17,38.552 17,38 C17,37.448 16.552,37 16,37" id="Fill-181" fill="#FFFFFF" sketch:type="MSShapeGroup"></path>
            <path d="M20,39 C20.552,39 21,38.552 21,38 C21,37.448 20.552,37 20,37 C19.448,37 19,37.448 19,38 C19,38.552 19.448,39 20,39" id="Fill-182" fill="#FFFFFF" sketch:type="MSShapeGroup"></path>
            <path d="M24,39 C24.552,39 25,38.552 25,38 C25,37.448 24.552,37 24,37 C23.448,37 23,37.448 23,38 C23,38.552 23.448,39 24,39" id="Fill-183" fill="#FFFFFF" sketch:type="MSShapeGroup"></path>
            <path d="M28,37 C27.448,37 27,37.448 27,38 C27,38.552 27.448,39 28,39 C28.552,39 29,38.552 29,38 C29,37.448 28.552,37 28,37" id="Fill-184" fill="#FFFFFF" sketch:type="MSShapeGroup"></path>
            <path d="M22,35 C21.448,35 21,35.448 21,36 C21,36.552 21.448,37 22,37 C22.552,37 23,36.552 23,36 C23,35.448 22.552,35 22,35" id="Fill-185" fill="#FFFFFF" sketch:type="MSShapeGroup"></path>
            <path d="M26,39 C25.448,39 25,39.448 25,40 C25,40.552 25.448,41 26,41 C26.552,41 27,40.552 27,40 C27,39.448 26.552,39 26,39" id="Fill-186" fill="#FFFFFF" sketch:type="MSShapeGroup"></path>
            <path d="M22,39 C21.448,39 21,39.448 21,40 C21,40.552 21.448,41 22,41 C22.552,41 23,40.552 23,40 C23,39.448 22.552,39 22,39" id="Fill-187" fill="#FFFFFF" sketch:type="MSShapeGroup"></path>
            <path d="M24,41 C23.448,41 23,41.448 23,42 C23,42.552 23.448,43 24,43 C24.552,43 25,42.552 25,42 C25,41.448 24.552,41 24,41" id="Fill-188" fill="#FFFFFF" sketch:type="MSShapeGroup"></path>
            <path d="M18,39 C17.448,39 17,39.448 17,40 C17,40.552 17.448,41 18,41 C18.552,41 19,40.552 19,40 C19,39.448 18.552,39 18,39" id="Fill-189" fill="#FFFFFF" sketch:type="MSShapeGroup"></path>
            <path d="M20,41 C19.448,41 19,41.448 19,42 C19,42.552 19.448,43 20,43 C20.552,43 21,42.552 21,42 C21,41.448 20.552,41 20,41" id="Fill-190" fill="#FFFFFF" sketch:type="MSShapeGroup"></path>
            <path d="M25,1 L27,12 C23.79,10.716 17.21,10.716 14,12 L17,1 L25,1" id="Fill-191" fill="#556080" sketch:type="MSShapeGroup"></path>
            <path d="M25,1 L25.909,6 L37,6 L37,1 L25,1" id="Fill-192" fill="#8697CB" sketch:type="MSShapeGroup"></path>
            <path d="M39.999,28.795 C39.889,18.412 31.408,10 21,10 C10.523,10 2,18.523 2,29 C2,29.552 2.447,30 3,30 L39,30 C39.008,30.001 39.016,30 39.019,30 C39.572,30 40.019,29.552 40.019,29 C40.019,28.93 40.013,28.861 39.999,28.795" id="Fill-193" fill="#E6E7E8" sketch:type="MSShapeGroup"></path>
            <path d="M35,26 L26,26 C25.447,26 25,25.552 25,25 C25,24.448 25.447,24 26,24 L35,24 C35.553,24 36,24.448 36,25 C36,25.552 35.553,26 35,26" id="Fill-194" fill="#FFFFFF" sketch:type="MSShapeGroup"></path>
            <path d="M32,22 L23,22 C22.447,22 22,21.552 22,21 C22,20.448 22.447,20 23,20 L32,20 C32.553,20 33,20.448 33,21 C33,21.552 32.553,22 32,22" id="Fill-195" fill="#FFFFFF" sketch:type="MSShapeGroup"></path>
        </g>
    </g>
</svg>