<?xml version="1.0" encoding="UTF-8" standalone="no"?>
<svg width="39px" height="54px" viewBox="0 0 39 54" version="1.1" xmlns="http://www.w3.org/2000/svg" xmlns:xlink="http://www.w3.org/1999/xlink" xmlns:sketch="http://www.bohemiancoding.com/sketch/ns">
    <!-- Generator: Sketch 3.2.2 (9983) - http://www.bohemiancoding.com/sketch -->
    <title>6 - Combination Lock Open (Flat)</title>
    <desc>Created with Sketch.</desc>
    <defs></defs>
    <g id="Page-1" stroke="none" stroke-width="1" fill="none" fill-rule="evenodd" sketch:type="MSPage">
        <g id="6---Combination-Lock-Open-(Flat)" sketch:type="MSLayerGroup">
            <path d="M26.92,31.086 L24.092,28.257 L28.725,23.625 C33.208,19.141 33.209,11.845 28.725,7.361 C24.241,2.877 16.945,2.878 12.461,7.361 L7.828,11.994 L5,9.166 L9.633,4.533 C15.676,-1.511 25.51,-1.511 31.553,4.533 C37.597,10.576 37.597,20.409 31.553,26.453 L26.92,31.086" id="Fill-82" fill="#556080" sketch:type="MSShapeGroup"></path>
            <path d="M32,54 L7,54 C3.134,54 0,50.866 0,47 L0,25 L39,25 L39,47 C39,50.866 35.866,54 32,54" id="Fill-83" fill="#97A5AF" sketch:type="MSShapeGroup"></path>
            <path d="M32,54 L7,54 C3.134,54 0,50.866 0,47 L39,47 C39,50.866 35.866,54 32,54" id="Fill-84" fill="#8697CB" sketch:type="MSShapeGroup"></path>
            <path d="M7,54 L19,54 L19,25 L0,25 L0,47 C0,50.866 3.134,54 7,54" id="Fill-85" fill="#ABBCC6" sketch:type="MSShapeGroup"></path>
            <path d="M0,47 C0,50.866 3.134,54 7,54 L19,54 L19,47 L0,47" id="Fill-86" fill="#99ADE0" sketch:type="MSShapeGroup"></path>
            <path d="M26,30 L31,30 L31,42 L26,42 L26,30 Z" id="Fill-537" fill="#556080" sketch:type="MSShapeGroup"></path>
            <path d="M17,30 L22,30 L22,42 L17,42 L17,30 Z" id="Fill-538" fill="#556080" sketch:type="MSShapeGroup"></path>
            <path d="M8,30 L13,30 L13,42 L8,42 L8,30 Z" id="Fill-539" fill="#556080" sketch:type="MSShapeGroup"></path>
            <path d="M9,31 L12,31 L12,33 L9,33 L9,31 Z" id="Fill-540" fill="#313847" sketch:type="MSShapeGroup"></path>
            <path d="M9,35 L12,35 L12,37 L9,37 L9,35 Z" id="Fill-541" fill="#313847" sketch:type="MSShapeGroup"></path>
            <path d="M9,39 L12,39 L12,41 L9,41 L9,39 Z" id="Fill-542" fill="#8697CB" sketch:type="MSShapeGroup"></path>
            <path d="M18,31 L21,31 L21,33 L18,33 L18,31 Z" id="Fill-543" fill="#313847" sketch:type="MSShapeGroup"></path>
            <path d="M18,35 L21,35 L21,37 L18,37 L18,35 Z" id="Fill-544" fill="#8697CB" sketch:type="MSShapeGroup"></path>
            <path d="M18,39 L21,39 L21,41 L18,41 L18,39 Z" id="Fill-545" fill="#313847" sketch:type="MSShapeGroup"></path>
            <path d="M27,31 L30,31 L30,33 L27,33 L27,31 Z" id="Fill-546" fill="#313847" sketch:type="MSShapeGroup"></path>
            <path d="M27,35 L30,35 L30,37 L27,37 L27,35 Z" id="Fill-547" fill="#313847" sketch:type="MSShapeGroup"></path>
            <path d="M27,39 L30,39 L30,41 L27,41 L27,39 Z" id="Fill-548" fill="#8697CB" sketch:type="MSShapeGroup"></path>
        </g>
    </g>
</svg>