<?xml version="1.0" encoding="UTF-8" standalone="no"?>
<svg width="58px" height="44px" viewBox="0 0 58 44" version="1.1" xmlns="http://www.w3.org/2000/svg" xmlns:xlink="http://www.w3.org/1999/xlink" xmlns:sketch="http://www.bohemiancoding.com/sketch/ns">
    <!-- Generator: Sketch 3.2.2 (9983) - http://www.bohemiancoding.com/sketch -->
    <title>36 - Dome Camera (Flat)</title>
    <desc>Created with Sketch.</desc>
    <defs></defs>
    <g id="Page-1" stroke="none" stroke-width="1" fill="none" fill-rule="evenodd" sketch:type="MSPage">
        <g id="36---Dome-Camera-(Flat)" sketch:type="MSLayerGroup">
            <path d="M0,4 L58,4 L58,14 L0,14 L0,4 Z" id="Fill-162" fill="#7D7E83" sketch:type="MSShapeGroup"></path>
            <path d="M58,14 C58,30.016 45.016,44 29,44 C12.984,44 0,30.016 0,14 L58,14" id="Fill-163" fill="#ECF0F1" sketch:type="MSShapeGroup"></path>
            <path d="M3,0 L54,0 L54,4 L3,4 L3,0 Z" id="Fill-196" fill="#D1D4D1" sketch:type="MSShapeGroup"></path>
            <path d="M20,4 L26,4 L26,14 L20,14 L20,4 Z" id="Fill-197" fill="#9CA1B7" sketch:type="MSShapeGroup"></path>
            <path d="M26,4 L32,4 L32,14 L26,14 L26,4 Z" id="Fill-198" fill="#575E6E" sketch:type="MSShapeGroup"></path>
            <path d="M32,4 L38,4 L38,14 L32,14 L32,4 Z" id="Fill-199" fill="#9CA1B7" sketch:type="MSShapeGroup"></path>
            <path d="M29,44 C38.955,44 47.736,38.596 52.958,30.661 C47.736,23.018 38.955,18 29,18 C19.045,18 10.264,23.018 5.042,30.661 C10.264,38.596 19.045,44 29,44" id="Fill-200" fill="#BDC3C7" sketch:type="MSShapeGroup"></path>
            <path d="M42,31 C42,38.18 36.18,44 29,44 C21.82,44 16,38.18 16,31 C16,23.82 21.82,18 29,18 C36.18,18 42,23.82 42,31" id="Fill-227" fill="#8697CB" sketch:type="MSShapeGroup"></path>
            <path d="M38,31 C38,35.971 33.971,40 29,40 C24.029,40 20,35.971 20,31 C20,26.029 24.029,22 29,22 C33.971,22 38,26.029 38,31" id="Fill-228" fill="#556080" sketch:type="MSShapeGroup"></path>
            <path d="M33,35 C32.74,35 32.48,34.89 32.29,34.71 C32.11,34.52 32,34.26 32,34 C32,33.74 32.11,33.48 32.29,33.29 C32.67,32.92 33.33,32.92 33.71,33.29 C33.89,33.48 34,33.74 34,34 C34,34.26 33.89,34.52 33.71,34.71 C33.52,34.89 33.26,35 33,35" id="Fill-229" fill="#FFFFFF" sketch:type="MSShapeGroup"></path>
            <path d="M28,27 C27.74,27 27.48,26.89 27.29,26.71 C27.11,26.52 27,26.26 27,26 C27,25.74 27.11,25.48 27.29,25.29 C27.66,24.92 28.33,24.92 28.71,25.29 C28.89,25.48 29,25.74 29,26 C29,26.26 28.89,26.52 28.71,26.71 C28.52,26.89 28.26,27 28,27" id="Fill-230" fill="#FFFFFF" sketch:type="MSShapeGroup"></path>
            <path d="M34,31 C33.448,31 33,30.552 33,30 C33,28.374 32.084,27 31,27 C30.448,27 30,26.552 30,26 C30,25.448 30.448,25 31,25 C33.206,25 35,27.243 35,30 C35,30.552 34.552,31 34,31" id="Fill-231" fill="#FFFFFF" sketch:type="MSShapeGroup"></path>
        </g>
    </g>
</svg>