<?xml version="1.0" encoding="UTF-8" standalone="no"?>
<svg width="58px" height="46px" viewBox="0 0 58 46" version="1.1" xmlns="http://www.w3.org/2000/svg" xmlns:xlink="http://www.w3.org/1999/xlink" xmlns:sketch="http://www.bohemiancoding.com/sketch/ns">
    <!-- Generator: Sketch 3.2.2 (9983) - http://www.bohemiancoding.com/sketch -->
    <title>16 - Fingeprint Encryption (Flat)</title>
    <desc>Created with Sketch.</desc>
    <defs></defs>
    <g id="Page-1" stroke="none" stroke-width="1" fill="none" fill-rule="evenodd" sketch:type="MSPage">
        <g id="16---Fingeprint-Encryption-(Flat)" sketch:type="MSLayerGroup">
            <path d="M34.907,42 C34.699,42.58 34.149,43 33.5,43 L25.5,43 C24.851,43 24.3,42.58 24.093,42 L0.578,42 C0.259,42 0,42.259 0,42.578 L0,45.422 C0,45.741 0.259,46 0.578,46 L57.422,46 C57.741,46 58,45.741 58,45.422 L58,42.578 C58,42.259 57.741,42 57.422,42 L34.907,42" id="Fill-132" fill="#D1D4D1" sketch:type="MSShapeGroup"></path>
            <path d="M24.093,42 C24.3,42.58 24.851,43 25.5,43 L33.5,43 C34.149,43 34.699,42.58 34.907,42 L55,42 L55,3.067 C55,1.373 53.627,0 51.933,0 L6.067,0 C4.373,0 3,1.373 3,3.067 L3,42 L24.093,42" id="Fill-133" fill="#ECF0F1" sketch:type="MSShapeGroup"></path>
            <path d="M52,39 L6,39 L6,4.592 C6,3.713 6.713,3 7.592,3 L50.408,3 C51.287,3 52,3.713 52,4.592 L52,39" id="Fill-134" fill="#556080" sketch:type="MSShapeGroup"></path>
            <path d="M28.799,19.614 C28.368,19.94 28.281,20.561 28.592,21.002 C28.61,21.027 30.361,23.637 30.001,33.965 C29.981,34.517 30.413,34.981 30.965,34.999 C30.977,35 30.989,35 31,35 C31.537,35 31.981,34.575 32,34.035 C32.389,22.872 30.399,20.06 30.171,19.775 C29.832,19.354 29.229,19.29 28.799,19.614" id="Fill-298" fill="#F0C419" sketch:type="MSShapeGroup"></path>
            <path d="M41.963,20.088 C41.778,18.933 41.519,17.874 41.172,16.854 C39.586,12.179 34.493,8.239 29.819,8.073 C28.031,8.006 26.288,8.325 24.642,9.012 C20.094,10.909 17.128,15.315 17.086,20.236 C17.076,21.399 17.232,22.558 17.551,23.681 C17.717,24.269 17.873,24.845 17.958,25.425 C18.158,26.785 18.205,28.975 18.122,32.98 C18.11,33.531 18.549,33.988 19.101,34 L19.122,34 C19.665,34 20.11,33.565 20.122,33.021 C20.208,28.843 20.157,26.632 19.937,25.135 C19.835,24.437 19.653,23.764 19.475,23.136 C19.208,22.195 19.078,21.226 19.086,20.254 C19.121,16.134 21.604,12.446 25.412,10.857 C26.79,10.282 28.25,10.023 29.748,10.071 C33.595,10.209 37.959,13.608 39.278,17.496 C39.589,18.41 39.821,19.361 39.989,20.404 C40.283,22.237 40.187,24.558 40.065,27.496 C40.023,28.525 39.977,29.622 39.946,30.79 C39.931,31.342 40.366,31.802 40.918,31.817 L40.946,31.817 C41.485,31.817 41.93,31.388 41.945,30.845 C41.977,29.688 42.021,28.6 42.064,27.578 C42.19,24.528 42.29,22.119 41.963,20.088" id="Fill-299" fill="#F0C419" sketch:type="MSShapeGroup"></path>
            <path d="M23.277,20.339 L23.277,20.337 C23.331,18.446 24.153,15.877 25.828,14.701 C26.28,14.384 26.389,13.76 26.072,13.309 C25.754,12.857 25.131,12.745 24.679,13.065 C22.273,14.753 21.344,18.006 21.278,20.278 L21.278,20.282 C21.251,21.231 21.364,22.181 21.613,23.1 C21.683,23.362 22.282,25.898 22,33.965 C21.981,34.517 22.413,34.981 22.965,34.999 C22.977,35 22.989,35 23,35 C23.537,35 23.981,34.575 24,34.035 C24.285,25.855 23.672,23.065 23.545,22.583 C23.346,21.847 23.255,21.092 23.277,20.339" id="Fill-300" fill="#F0C419" sketch:type="MSShapeGroup"></path>
            <path d="M37.858,20.118 C37.657,19.075 37.369,18.119 36.977,17.193 C35.625,13.995 32.809,12.009 29.627,12.009 C29.03,12.009 28.436,12.073 27.861,12.199 C27.321,12.317 26.98,12.851 27.099,13.39 C27.217,13.93 27.748,14.269 28.29,14.152 C28.724,14.058 29.174,14.009 29.627,14.009 C31.991,14.009 34.101,15.527 35.135,17.973 C35.472,18.769 35.721,19.596 35.895,20.501 C36.333,22.775 36.232,25.568 36.064,30.196 L36,31.965 C35.981,32.518 36.413,32.981 36.965,32.999 C36.977,33 36.989,33 37,33 C37.537,33 37.981,32.575 38,32.035 L38.062,30.27 C38.236,25.499 38.34,22.62 37.859,20.122 C37.858,20.121 37.858,20.12 37.858,20.118" id="Fill-301" fill="#F0C419" sketch:type="MSShapeGroup"></path>
            <path d="M35,31.577 L35,31.383 C35.004,30.831 34.559,30.38 34.007,30.376 L34,30.376 C33.451,30.376 33.004,30.819 33,31.369 L33,31.577 C33,31.869 33.004,32.127 33.008,32.382 C33.012,32.619 33.016,32.854 33.016,33.111 L33.015,33.364 C33.009,33.916 33.452,34.369 34.004,34.375 L34.015,34.375 C34.562,34.375 35.009,33.935 35.015,33.386 L35.016,33.111 C35.016,32.842 35.012,32.597 35.008,32.349 C35.004,32.105 35,31.857 35,31.577" id="Fill-302" fill="#F0C419" sketch:type="MSShapeGroup"></path>
            <path d="M33.645,18.602 C32.92,16.891 31.251,15.784 29.392,15.784 C28.781,15.784 28.183,15.904 27.614,16.141 C25.94,16.839 24.826,18.465 24.776,20.284 C24.759,20.896 24.863,21.495 25.065,22.015 C25.07,22.03 25.098,22.105 25.104,22.12 C25.464,23.068 26.274,26.12 26,33.965 C25.981,34.517 26.413,34.981 26.965,34.999 C26.977,35 26.989,35 27,35 C27.537,35 27.981,34.575 28,34.035 C28.276,26.121 27.475,22.727 26.949,21.345 C26.824,21.022 26.766,20.684 26.775,20.339 C26.804,19.306 27.435,18.382 28.382,17.987 C29.691,17.442 31.257,18.09 31.807,19.39 C31.884,19.575 32.03,19.92 32.203,20.569 C32.552,21.875 32.989,24.345 33.089,28.695 C33.102,29.239 33.547,29.672 34.088,29.672 L34.112,29.672 C34.664,29.659 35.101,29.201 35.088,28.648 C35.005,24.997 34.684,22.106 34.136,20.054 C33.927,19.271 33.74,18.827 33.645,18.602" id="Fill-303" fill="#F0C419" sketch:type="MSShapeGroup"></path>
        </g>
    </g>
</svg>