<?xml version="1.0" encoding="UTF-8" standalone="no"?>
<svg width="60px" height="60px" viewBox="0 0 60 60" version="1.1" xmlns="http://www.w3.org/2000/svg" xmlns:xlink="http://www.w3.org/1999/xlink" xmlns:sketch="http://www.bohemiancoding.com/sketch/ns">
    <!-- Generator: Sketch 3.2.2 (9983) - http://www.bohemiancoding.com/sketch -->
    <title>29 - Fingeprint Scan (Flat)</title>
    <desc>Created with Sketch.</desc>
    <defs></defs>
    <g id="Page-1" stroke="none" stroke-width="1" fill="none" fill-rule="evenodd" sketch:type="MSPage">
        <g id="29---Fingeprint-Scan-(Flat)" sketch:type="MSLayerGroup">
            <path d="M0,0 L60,0 L60,60 L0,60 L0,0 Z" id="Fill-53" fill="#71C285" sketch:type="MSShapeGroup"></path>
            <path d="M20,2 L2,2 L2,20 C2,20.552 2.448,21 3,21 C3.552,21 4,20.552 4,20 L4,4 L20,4 C20.552,4 21,3.552 21,3 C21,2.448 20.552,2 20,2" id="Fill-54" fill="#A4E869" sketch:type="MSShapeGroup"></path>
            <path d="M57,40 C56.448,40 56,40.448 56,41 L56,56 L41,56 C40.448,56 40,56.448 40,57 C40,57.552 40.448,58 41,58 L58,58 L58,41 C58,40.448 57.552,40 57,40" id="Fill-55" fill="#A4E869" sketch:type="MSShapeGroup"></path>
            <path d="M41,2 C40.448,2 40,2.448 40,3 C40,3.552 40.448,4 41,4 L56,4 L56,20 C56,20.552 56.448,21 57,21 C57.552,21 58,20.552 58,20 L58,2 L41,2" id="Fill-56" fill="#A4E869" sketch:type="MSShapeGroup"></path>
            <path d="M20,56 L4,56 L4,41 C4,40.448 3.552,40 3,40 C2.448,40 2,40.448 2,41 L2,58 L20,58 C20.552,58 21,57.552 21,57 C21,56.448 20.552,56 20,56" id="Fill-57" fill="#A4E869" sketch:type="MSShapeGroup"></path>
            <path d="M31.81,43.986 L31.835,43.986 C32.387,43.973 32.824,43.515 32.81,42.962 C32.794,42.259 32.772,41.588 32.745,40.947 C32.722,40.395 32.266,39.953 31.705,39.989 C31.153,40.012 30.724,40.478 30.747,41.03 C30.773,41.659 30.795,42.319 30.811,43.01 C30.824,43.554 31.27,43.986 31.81,43.986" id="Fill-240" fill="#CDDAF8" sketch:type="MSShapeGroup"></path>
            <path d="M31.852,45.986 C31.336,45.971 30.85,46.428 30.846,46.98 C30.842,47.621 30.834,48.284 30.821,48.967 C30.811,49.519 31.25,49.975 31.803,49.985 L31.822,49.985 C32.365,49.985 32.811,49.55 32.821,49.004 C32.834,48.312 32.842,47.642 32.846,46.992 C32.849,46.44 32.404,45.989 31.852,45.986" id="Fill-241" fill="#CDDAF8" sketch:type="MSShapeGroup"></path>
            <path d="M31.493,37.998 C31.522,37.998 31.552,37.997 31.582,37.994 C32.131,37.946 32.539,37.461 32.49,36.911 C32.426,36.18 32.357,35.509 32.284,34.892 C32.219,34.343 31.713,33.959 31.174,34.016 C30.625,34.081 30.233,34.578 30.298,35.127 C30.369,35.725 30.436,36.377 30.498,37.085 C30.543,37.606 30.98,37.998 31.493,37.998" id="Fill-242" fill="#CDDAF8" sketch:type="MSShapeGroup"></path>
            <path d="M30.867,32.041 C31.407,31.923 31.748,31.39 31.629,30.85 C31.32,29.44 31.065,28.819 31.038,28.752 C30.824,28.247 30.243,28.01 29.733,28.222 C29.226,28.433 28.985,29.017 29.193,29.526 C29.195,29.531 29.408,30.057 29.676,31.279 C29.779,31.746 30.192,32.065 30.652,32.065 C30.723,32.065 30.795,32.057 30.867,32.041" id="Fill-243" fill="#4C8056" sketch:type="MSShapeGroup"></path>
            <path d="M50.51,20.515 C47.036,12.305 39.032,7 30.118,7 C27.176,7 24.307,7.575 21.592,8.709 C20.091,9.335 18.671,10.08 17.373,10.923 C16.91,11.224 16.779,11.844 17.08,12.307 C17.381,12.77 18.001,12.901 18.463,12.6 C19.66,11.822 20.972,11.134 22.362,10.554 C24.832,9.523 27.441,9 30.118,9 C38.227,9 45.508,13.826 48.668,21.294 C49.928,24.272 50.649,27.224 51.005,30.866 C51.055,31.382 51.49,31.769 51.999,31.769 C52.031,31.769 52.065,31.767 52.097,31.764 C52.647,31.71 53.049,31.221 52.995,30.671 C52.619,26.819 51.852,23.687 50.51,20.515" id="Fill-244" fill="#4C8056" sketch:type="MSShapeGroup"></path>
            <path d="M8.453,30.001 L8.48,30.001 C9.02,30.001 9.465,29.571 9.479,29.028 C9.629,23.453 11.552,18.806 15.195,15.217 C15.588,14.829 15.593,14.196 15.206,13.803 C14.818,13.409 14.185,13.404 13.792,13.792 C9.824,17.701 7.642,22.951 7.48,28.974 C7.465,29.526 7.901,29.986 8.453,30.001" id="Fill-245" fill="#4C8056" sketch:type="MSShapeGroup"></path>
            <path d="M10.496,37.544 C10.363,37.007 9.818,36.682 9.284,36.814 C8.748,36.947 8.422,37.49 8.555,38.026 C8.716,38.673 8.895,39.331 9.094,39.998 C9.224,40.433 9.622,40.714 10.052,40.714 C10.147,40.714 10.243,40.7 10.338,40.672 C10.867,40.514 11.169,39.958 11.011,39.428 C10.821,38.79 10.649,38.162 10.496,37.544" id="Fill-246" fill="#CDDAF8" sketch:type="MSShapeGroup"></path>
            <path d="M8.899,34.851 C9.446,34.775 9.829,34.271 9.754,33.724 C9.664,33.069 9.596,32.427 9.548,31.797 C9.507,31.246 9.026,30.831 8.477,30.875 C7.926,30.916 7.513,31.396 7.554,31.946 C7.604,32.616 7.677,33.299 7.772,33.996 C7.841,34.497 8.27,34.86 8.762,34.86 C8.807,34.86 8.853,34.857 8.899,34.851" id="Fill-247" fill="#CDDAF8" sketch:type="MSShapeGroup"></path>
            <path d="M47.406,39.972 C46.821,39.966 46.398,40.402 46.389,40.955 C46.377,41.597 46.364,42.26 46.347,42.947 C46.333,43.499 46.769,43.958 47.321,43.971 C47.33,43.972 47.338,43.972 47.347,43.972 C47.887,43.972 48.332,43.54 48.346,42.997 C48.363,42.305 48.377,41.637 48.389,40.99 C48.398,40.438 47.958,39.982 47.406,39.972" id="Fill-248" fill="#CDDAF8" sketch:type="MSShapeGroup"></path>
            <path d="M47.111,31.982 C47.146,31.982 47.181,31.981 47.216,31.977 C47.765,31.919 48.164,31.428 48.106,30.878 C48.033,30.172 47.944,29.496 47.838,28.841 L47.838,28.84 C47.575,27.201 47.207,25.699 46.715,24.251 C44.483,17.67 37.32,12.125 30.749,11.89 C28.233,11.8 25.785,12.245 23.47,13.211 C17.078,15.878 12.908,22.071 12.849,28.989 L12.848,29.14 C12.848,29.443 12.856,29.747 12.872,30.051 C12.9,30.585 13.342,30.998 13.87,30.998 C13.888,30.998 13.905,30.998 13.923,30.997 C14.475,30.968 14.898,30.497 14.869,29.945 C14.855,29.676 14.848,29.408 14.848,29.14 L14.849,29.01 C14.849,29.009 14.848,29.009 14.848,29.009 C14.848,29.008 14.849,29.008 14.849,29.008 C14.9,22.892 18.587,17.415 24.241,15.057 C26.287,14.203 28.449,13.806 30.678,13.889 C36.39,14.093 42.867,19.133 44.822,24.893 C45.277,26.235 45.618,27.63 45.864,29.159 C45.963,29.778 46.047,30.419 46.117,31.086 C46.171,31.6 46.605,31.982 47.111,31.982" id="Fill-249" fill="#4C8056" sketch:type="MSShapeGroup"></path>
            <path d="M47.338,33.973 C46.786,33.991 46.353,34.453 46.37,35.004 C46.391,35.639 46.403,36.297 46.41,36.982 C46.415,37.531 46.862,37.972 47.41,37.972 L47.42,37.972 C47.972,37.967 48.415,37.515 48.41,36.962 C48.403,36.262 48.39,35.589 48.369,34.941 C48.352,34.388 47.885,33.952 47.338,33.973" id="Fill-250" fill="#CDDAF8" sketch:type="MSShapeGroup"></path>
            <path d="M15.205,36.857 C15.748,36.76 16.11,36.24 16.013,35.697 C15.882,34.96 15.696,34.254 15.531,33.661 C15.383,33.128 14.833,32.816 14.3,32.964 C13.768,33.112 13.456,33.663 13.603,34.195 C13.756,34.744 13.927,35.394 14.044,36.048 C14.131,36.533 14.552,36.873 15.028,36.873 C15.086,36.873 15.145,36.868 15.205,36.857" id="Fill-251" fill="#CDDAF8" sketch:type="MSShapeGroup"></path>
            <path d="M15.532,42.847 C15.543,42.847 15.554,42.847 15.565,42.846 C16.117,42.828 16.55,42.366 16.532,41.814 C16.507,41.078 16.476,40.405 16.439,39.789 C16.405,39.237 15.923,38.802 15.38,38.851 C14.829,38.884 14.409,39.358 14.442,39.909 C14.478,40.508 14.509,41.164 14.533,41.879 C14.551,42.42 14.995,42.847 15.532,42.847" id="Fill-252" fill="#CDDAF8" sketch:type="MSShapeGroup"></path>
            <path d="M15.585,44.846 C15.031,44.88 14.582,45.288 14.579,45.84 C14.576,46.47 14.567,47.131 14.552,47.825 C14.541,48.377 14.979,48.834 15.531,48.846 L15.553,48.846 C16.095,48.846 16.54,48.412 16.552,47.867 C16.567,47.162 16.576,46.491 16.579,45.851 C16.582,45.299 16.137,44.849 15.585,44.846" id="Fill-253" fill="#CDDAF8" sketch:type="MSShapeGroup"></path>
            <path d="M20.221,39.294 C20.248,39.294 20.274,39.294 20.302,39.291 C20.852,39.247 21.263,38.765 21.218,38.214 C21.157,37.442 21.087,36.769 21.015,36.183 C20.947,35.635 20.447,35.253 19.899,35.313 C19.351,35.381 18.962,35.88 19.029,36.428 C19.099,36.989 19.165,37.635 19.225,38.375 C19.267,38.898 19.705,39.294 20.221,39.294" id="Fill-254" fill="#CDDAF8" sketch:type="MSShapeGroup"></path>
            <path d="M20.446,47.287 C19.894,47.253 19.436,47.711 19.424,48.263 C19.409,48.9 19.39,49.563 19.366,50.25 C19.346,50.802 19.778,51.265 20.33,51.285 L20.366,51.285 C20.902,51.285 21.346,50.86 21.365,50.32 C21.389,49.624 21.408,48.954 21.423,48.309 C21.435,47.757 20.999,47.299 20.446,47.287" id="Fill-255" fill="#CDDAF8" sketch:type="MSShapeGroup"></path>
            <path d="M20.398,41.288 C19.846,41.303 19.411,41.762 19.425,42.314 C19.441,42.935 19.453,43.594 19.457,44.294 C19.461,44.843 19.908,45.287 20.457,45.287 L20.464,45.287 C21.017,45.283 21.461,44.832 21.457,44.28 C21.453,43.566 21.441,42.894 21.424,42.261 C21.41,41.709 20.952,41.24 20.398,41.288" id="Fill-256" fill="#CDDAF8" sketch:type="MSShapeGroup"></path>
            <path d="M20.858,20.981 C20.393,21.532 19.973,22.134 19.611,22.772 C19.338,23.252 19.506,23.862 19.986,24.135 C20.142,24.224 20.311,24.266 20.479,24.266 C20.827,24.266 21.165,24.084 21.349,23.76 C21.651,23.23 21.999,22.729 22.385,22.273 C22.742,21.851 22.689,21.22 22.267,20.863 C21.846,20.506 21.215,20.56 20.858,20.981" id="Fill-257" fill="#4C8056" sketch:type="MSShapeGroup"></path>
            <path d="M34.976,19.96 C35.124,20.039 35.284,20.076 35.441,20.076 C35.801,20.076 36.148,19.882 36.327,19.542 C36.585,19.054 36.397,18.449 35.909,18.191 C35.268,17.853 34.594,17.569 33.907,17.349 C33.38,17.181 32.817,17.47 32.649,17.996 C32.48,18.522 32.77,19.085 33.295,19.253 C33.872,19.439 34.437,19.676 34.976,19.96" id="Fill-258" fill="#4C8056" sketch:type="MSShapeGroup"></path>
            <path d="M42.529,39.961 L42.51,39.961 C41.967,39.961 41.521,40.398 41.511,40.943 C41.499,41.583 41.485,42.247 41.467,42.936 C41.453,43.488 41.889,43.947 42.441,43.961 L42.467,43.961 C43.008,43.961 43.453,43.53 43.466,42.987 C43.484,42.292 43.499,41.624 43.511,40.98 C43.521,40.427 43.081,39.972 42.529,39.961" id="Fill-259" fill="#CDDAF8" sketch:type="MSShapeGroup"></path>
            <path d="M42.378,45.96 C41.813,45.94 41.364,46.373 41.345,46.925 L41.315,47.811 C41.296,48.363 41.728,48.826 42.28,48.845 L42.315,48.845 C42.852,48.845 43.295,48.42 43.314,47.879 L43.344,46.993 C43.363,46.44 42.93,45.978 42.378,45.96" id="Fill-260" fill="#CDDAF8" sketch:type="MSShapeGroup"></path>
            <path d="M42.456,33.963 C41.904,33.982 41.472,34.445 41.491,34.998 C41.513,35.626 41.526,36.283 41.534,36.973 C41.54,37.521 41.986,37.962 42.534,37.962 L42.544,37.962 C43.096,37.956 43.54,37.504 43.534,36.952 C43.526,36.245 43.512,35.572 43.49,34.928 C43.471,34.376 42.985,33.922 42.456,33.963" id="Fill-261" fill="#CDDAF8" sketch:type="MSShapeGroup"></path>
            <path d="M42.198,31.975 C42.239,31.975 42.279,31.973 42.32,31.968 C42.869,31.901 43.259,31.403 43.192,30.855 C43.104,30.132 43.001,29.463 42.875,28.81 C42.866,28.762 42.853,28.714 42.837,28.669 C42.835,28.62 42.828,28.571 42.818,28.521 C42.672,27.812 42.506,27.149 42.309,26.496 C42.149,25.966 41.591,25.668 41.064,25.826 C40.535,25.985 40.235,26.543 40.394,27.072 C40.573,27.668 40.726,28.273 40.859,28.924 C40.868,28.968 40.88,29.011 40.895,29.053 C40.897,29.098 40.902,29.143 40.911,29.189 C41.028,29.795 41.125,30.419 41.207,31.096 C41.269,31.603 41.7,31.975 42.198,31.975" id="Fill-262" fill="#4C8056" sketch:type="MSShapeGroup"></path>
            <path d="M19.471,33.363 C20.01,33.243 20.35,32.708 20.229,32.169 C20.094,31.566 20.002,30.949 19.955,30.335 C19.935,30.079 19.821,29.853 19.649,29.688 C19.813,29.516 19.916,29.284 19.924,29.027 C19.941,28.407 20.006,27.79 20.116,27.193 C20.216,26.65 19.857,26.128 19.314,26.028 C18.771,25.926 18.249,26.287 18.149,26.831 C18.021,27.527 17.945,28.248 17.925,28.971 C17.917,29.265 18.036,29.533 18.233,29.722 C18.045,29.919 17.939,30.193 17.961,30.486 C18.015,31.196 18.121,31.909 18.277,32.606 C18.381,33.071 18.794,33.387 19.252,33.387 C19.324,33.387 19.398,33.379 19.471,33.363" id="Fill-263" fill="#4C8056" sketch:type="MSShapeGroup"></path>
            <path d="M40.628,22.59 C40.246,21.977 39.807,21.393 39.323,20.854 C38.955,20.444 38.322,20.41 37.911,20.779 C37.5,21.148 37.467,21.781 37.836,22.191 C38.241,22.643 38.609,23.132 38.93,23.647 C39.119,23.952 39.446,24.119 39.78,24.119 C39.96,24.119 40.143,24.07 40.307,23.968 C40.776,23.676 40.919,23.059 40.628,22.59" id="Fill-264" fill="#4C8056" sketch:type="MSShapeGroup"></path>
            <path d="M27.676,19.023 C27.747,19.023 27.819,19.015 27.892,18.999 C28.481,18.869 29.088,18.791 29.698,18.767 C30.249,18.745 30.679,18.279 30.657,17.728 C30.635,17.176 30.192,16.76 29.618,16.769 C28.891,16.797 28.165,16.891 27.462,17.046 C26.922,17.165 26.581,17.698 26.7,18.237 C26.803,18.705 27.217,19.023 27.676,19.023" id="Fill-265" fill="#4C8056" sketch:type="MSShapeGroup"></path>
            <path d="M37.544,45.219 L37.537,45.219 C36.988,45.219 36.541,45.662 36.537,46.212 C36.533,46.854 36.524,47.516 36.511,48.199 C36.5,48.751 36.939,49.207 37.492,49.218 L37.511,49.218 C38.055,49.218 38.5,48.783 38.511,48.237 C38.524,47.546 38.533,46.876 38.537,46.226 C38.541,45.673 38.096,45.223 37.544,45.219" id="Fill-266" fill="#CDDAF8" sketch:type="MSShapeGroup"></path>
            <path d="M36.691,31.932 C37.233,31.827 37.588,31.303 37.484,30.761 C37.344,30.034 37.19,29.355 37.027,28.742 C36.706,27.541 36.421,26.867 36.28,26.535 C35.23,24.054 32.811,22.451 30.118,22.451 C29.23,22.451 28.363,22.625 27.54,22.968 C25.115,23.98 23.501,26.336 23.429,28.973 C23.414,29.525 23.849,29.985 24.401,30 C24.41,30.001 24.419,30.001 24.429,30.001 C24.968,30.001 25.413,29.571 25.428,29.028 C25.478,27.177 26.61,25.523 28.31,24.814 C28.887,24.573 29.496,24.451 30.118,24.451 C32.006,24.451 33.703,25.575 34.442,27.322 C34.561,27.604 34.81,28.191 35.094,29.258 L35.094,29.259 C35.246,29.826 35.389,30.458 35.52,31.139 C35.612,31.617 36.031,31.95 36.501,31.95 C36.564,31.95 36.627,31.944 36.691,31.932" id="Fill-267" fill="#4C8056" sketch:type="MSShapeGroup"></path>
            <path d="M37.253,37.898 C37.279,37.898 37.305,37.898 37.332,37.896 C37.882,37.852 38.294,37.372 38.251,36.821 C38.195,36.102 38.133,35.429 38.067,34.802 C38.009,34.252 37.519,33.863 36.967,33.912 C36.418,33.97 36.02,34.462 36.078,35.012 C36.142,35.623 36.203,36.276 36.257,36.976 C36.298,37.501 36.736,37.898 37.253,37.898" id="Fill-268" fill="#CDDAF8" sketch:type="MSShapeGroup"></path>
            <path d="M37.506,43.153 L37.529,43.153 C38.082,43.141 38.519,42.683 38.506,42.131 C38.497,41.694 38.484,41.271 38.471,40.858 C38.452,40.306 37.998,39.885 37.438,39.892 C36.886,39.91 36.453,40.373 36.472,40.924 C36.485,41.33 36.498,41.747 36.507,42.176 C36.52,42.72 36.965,43.153 37.506,43.153" id="Fill-269" fill="#CDDAF8" sketch:type="MSShapeGroup"></path>
            <path d="M26.109,42.716 C25.557,42.728 25.118,43.185 25.129,43.737 C25.143,44.37 25.15,45.03 25.153,45.719 C25.155,46.271 25.602,46.716 26.153,46.716 L26.156,46.716 C26.708,46.714 27.155,46.265 27.153,45.712 C27.15,45.011 27.143,44.339 27.129,43.696 C27.117,43.143 26.671,42.731 26.109,42.716" id="Fill-270" fill="#CDDAF8" sketch:type="MSShapeGroup"></path>
            <path d="M26.136,48.716 C25.593,48.661 25.125,49.14 25.113,49.692 C25.098,50.334 25.078,50.997 25.054,51.68 C25.035,52.231 25.467,52.694 26.019,52.714 L26.054,52.714 C26.59,52.714 27.034,52.289 27.053,51.749 C27.077,51.059 27.097,50.389 27.112,49.739 C27.125,49.187 26.688,48.729 26.136,48.716" id="Fill-271" fill="#CDDAF8" sketch:type="MSShapeGroup"></path>
            <path d="M25.974,40.72 C25.994,40.72 26.014,40.72 26.034,40.718 C26.585,40.685 27.006,40.212 26.973,39.661 C26.93,38.937 26.881,38.264 26.829,37.642 C26.781,37.091 26.298,36.68 25.748,36.73 C25.197,36.776 24.789,37.26 24.835,37.811 C24.887,38.418 24.935,39.073 24.977,39.779 C25.008,40.31 25.449,40.72 25.974,40.72" id="Fill-272" fill="#CDDAF8" sketch:type="MSShapeGroup"></path>
            <path d="M25.519,34.744 C26.064,34.655 26.434,34.142 26.346,33.597 C26.188,32.627 26.04,31.953 25.942,31.558 C25.81,31.021 25.271,30.693 24.732,30.825 C24.196,30.957 23.868,31.499 24,32.035 C24.088,32.394 24.225,33.013 24.371,33.917 C24.451,34.408 24.875,34.757 25.357,34.757 C25.411,34.757 25.464,34.753 25.519,34.744" id="Fill-273" fill="#CDDAF8" sketch:type="MSShapeGroup"></path>
            <path d="M0,30 L60,30 L60,32 L0,32 L0,30 Z" id="Fill-569" fill="#FF5364" sketch:type="MSShapeGroup"></path>
        </g>
    </g>
</svg>