<?xml version="1.0" encoding="UTF-8" standalone="no"?>
<svg width="60px" height="60px" viewBox="0 0 60 60" version="1.1" xmlns="http://www.w3.org/2000/svg" xmlns:xlink="http://www.w3.org/1999/xlink" xmlns:sketch="http://www.bohemiancoding.com/sketch/ns">
    <!-- Generator: Sketch 3.2.2 (9983) - http://www.bohemiancoding.com/sketch -->
    <title>27 - Fingerprint Recognition (Flat)</title>
    <desc>Created with Sketch.</desc>
    <defs></defs>
    <g id="Page-1" stroke="none" stroke-width="1" fill="none" fill-rule="evenodd" sketch:type="MSPage">
        <g id="27---Fingerprint-Recognition-(Flat)" sketch:type="MSLayerGroup">
            <path d="M0,0 L60,0 L60,60 L0,60 L0,0 Z" id="Fill-63" fill="#7F6E5D" sketch:type="MSShapeGroup"></path>
            <path d="M20,2 L2,2 L2,20 C2,20.552 2.448,21 3,21 C3.552,21 4,20.552 4,20 L4,4 L20,4 C20.552,4 21,3.552 21,3 C21,2.448 20.552,2 20,2" id="Fill-278" fill="#B29A84" sketch:type="MSShapeGroup"></path>
            <path d="M57,40 C56.448,40 56,40.448 56,41 L56,56 L41,56 C40.448,56 40,56.448 40,57 C40,57.552 40.448,58 41,58 L58,58 L58,41 C58,40.448 57.552,40 57,40" id="Fill-279" fill="#B29A84" sketch:type="MSShapeGroup"></path>
            <path d="M41,2 C40.448,2 40,2.448 40,3 C40,3.552 40.448,4 41,4 L56,4 L56,20 C56,20.552 56.448,21 57,21 C57.552,21 58,20.552 58,20 L58,2 L41,2" id="Fill-280" fill="#B29A84" sketch:type="MSShapeGroup"></path>
            <path d="M20,56 L4,56 L4,41 C4,40.448 3.552,40 3,40 C2.448,40 2,40.448 2,41 L2,58 L20,58 C20.552,58 21,57.552 21,57 C21,56.448 20.552,56 20,56" id="Fill-281" fill="#B29A84" sketch:type="MSShapeGroup"></path>
            <path d="M29.733,28.222 C29.226,28.433 28.985,29.017 29.193,29.526 C29.215,29.579 31.333,34.966 30.744,51.877 C30.725,52.428 31.156,52.891 31.708,52.911 L31.744,52.911 C32.28,52.911 32.724,52.486 32.743,51.946 C33.353,34.443 31.132,28.977 31.038,28.752 C30.823,28.246 30.244,28.01 29.733,28.222" id="Fill-282" fill="#B29A84" sketch:type="MSShapeGroup"></path>
            <path d="M50.51,20.515 C47.036,12.305 39.032,7 30.118,7 C27.176,7 24.307,7.575 21.592,8.709 C20.091,9.335 18.671,10.08 17.373,10.923 C16.91,11.224 16.779,11.844 17.08,12.307 C17.381,12.77 18.001,12.901 18.463,12.6 C19.66,11.822 20.972,11.134 22.362,10.554 C24.832,9.523 27.441,9 30.118,9 C38.227,9 45.508,13.826 48.668,21.294 C49.928,24.272 50.649,27.224 51.005,30.866 C51.055,31.382 51.49,31.769 51.999,31.769 C52.031,31.769 52.064,31.767 52.097,31.764 C52.647,31.71 53.049,31.221 52.995,30.671 C52.619,26.819 51.852,23.687 50.51,20.515" id="Fill-283" fill="#B29A84" sketch:type="MSShapeGroup"></path>
            <path d="M9.479,29.028 C9.629,23.453 11.552,18.806 15.195,15.217 C15.588,14.829 15.593,14.196 15.206,13.803 C14.818,13.409 14.185,13.404 13.792,13.792 C9.824,17.701 7.642,22.951 7.48,28.974 C7.388,32.386 7.932,36.095 9.094,39.999 C9.224,40.433 9.622,40.714 10.052,40.714 C10.147,40.714 10.243,40.7 10.338,40.672 C10.868,40.514 11.169,39.957 11.011,39.428 C9.909,35.727 9.394,32.228 9.479,29.028" id="Fill-284" fill="#B29A84" sketch:type="MSShapeGroup"></path>
            <path d="M46.715,24.251 C44.483,17.67 37.32,12.125 30.749,11.89 C28.23,11.8 25.785,12.245 23.47,13.211 C17.077,15.878 12.908,22.072 12.849,28.991 C12.835,30.624 13.054,32.253 13.502,33.833 C13.736,34.658 13.975,35.536 14.102,36.403 C14.377,38.28 14.679,41.785 14.552,47.825 C14.541,48.377 14.979,48.834 15.531,48.846 L15.553,48.846 C16.095,48.846 16.54,48.412 16.552,47.867 C16.681,41.689 16.367,38.065 16.081,36.113 C15.936,35.127 15.678,34.176 15.426,33.288 C15.03,31.891 14.836,30.451 14.849,29.008 C14.9,22.892 18.587,17.415 24.241,15.057 C26.287,14.203 28.454,13.806 30.678,13.889 C36.39,14.093 42.867,19.133 44.822,24.893 C45.277,26.235 45.618,27.63 45.864,29.159 C46.477,32.972 46.495,37.569 46.326,43.752 C46.31,44.304 46.746,44.764 47.298,44.779 L47.326,44.779 C47.865,44.779 48.31,44.35 48.325,43.807 C48.497,37.509 48.476,32.809 47.838,28.841 C47.575,27.201 47.208,25.7 46.715,24.251" id="Fill-285" fill="#B29A84" sketch:type="MSShapeGroup"></path>
            <path d="M24.185,20.625 C24.637,20.308 24.747,19.684 24.429,19.232 C24.112,18.781 23.488,18.671 23.036,18.988 C19.906,21.185 18.043,24.824 17.925,28.971 L17.925,28.974 C17.884,30.409 18.056,31.847 18.434,33.241 C18.435,33.244 18.46,33.337 18.461,33.34 C19.315,36.469 19.637,42.475 19.366,50.251 C19.347,50.802 19.778,51.265 20.331,51.285 L20.366,51.285 C20.902,51.285 21.346,50.86 21.365,50.32 C21.647,42.233 21.31,36.179 20.366,32.724 C20.038,31.512 19.889,30.269 19.924,29.03 L19.924,29.027 C20.024,25.519 21.577,22.456 24.185,20.625" id="Fill-286" fill="#B29A84" sketch:type="MSShapeGroup"></path>
            <path d="M42.875,28.807 C42.565,27.206 42.123,25.737 41.523,24.317 C39.58,19.726 35.104,16.758 30.118,16.758 C29.222,16.758 28.328,16.855 27.462,17.046 C26.922,17.165 26.581,17.698 26.7,18.237 C26.818,18.777 27.351,19.116 27.892,18.999 C28.617,18.839 29.366,18.758 30.118,18.758 C34.298,18.758 38.052,21.246 39.681,25.097 C40.227,26.386 40.629,27.725 40.911,29.189 C40.911,29.19 40.912,29.19 40.912,29.191 C41.675,33.151 41.653,38.137 41.315,47.81 C41.296,48.362 41.727,48.825 42.28,48.845 L42.315,48.845 C42.851,48.845 43.295,48.42 43.314,47.88 C43.657,38.048 43.675,32.961 42.875,28.81 L42.875,28.807" id="Fill-287" fill="#B29A84" sketch:type="MSShapeGroup"></path>
            <path d="M37.544,45.219 L37.537,45.219 C36.988,45.219 36.541,45.662 36.537,46.212 C36.533,46.854 36.524,47.516 36.511,48.199 C36.5,48.751 36.94,49.207 37.492,49.218 L37.511,49.218 C38.055,49.218 38.5,48.783 38.511,48.237 C38.524,47.546 38.533,46.876 38.537,46.226 C38.541,45.673 38.096,45.223 37.544,45.219" id="Fill-288" fill="#B29A84" sketch:type="MSShapeGroup"></path>
            <path d="M37.506,43.153 L37.53,43.153 C38.082,43.141 38.519,42.683 38.506,42.13 C38.378,36.514 37.866,31.884 37.027,28.742 C36.706,27.541 36.421,26.867 36.28,26.535 C35.23,24.054 32.812,22.451 30.118,22.451 C29.23,22.451 28.363,22.625 27.54,22.968 C25.115,23.98 23.501,26.336 23.429,28.973 C23.404,29.857 23.554,30.725 23.855,31.501 C23.925,31.717 25.568,36.956 25.054,51.68 C25.035,52.231 25.467,52.694 26.019,52.714 L26.054,52.714 C26.59,52.714 27.034,52.289 27.053,51.749 C27.57,36.931 25.944,31.458 25.739,30.831 C25.516,30.253 25.411,29.646 25.428,29.028 C25.478,27.177 26.61,25.523 28.31,24.814 C28.887,24.573 29.496,24.451 30.118,24.451 C32.006,24.451 33.703,25.575 34.442,27.322 C34.561,27.604 34.81,28.191 35.094,29.258 C35.651,31.344 36.349,35.278 36.507,42.176 C36.519,42.721 36.965,43.153 37.506,43.153" id="Fill-289" fill="#B29A84" sketch:type="MSShapeGroup"></path>
            <path d="M0,27 L60,27 L60,29 L0,29 L0,27 Z" id="Fill-566" fill="#FF5364" sketch:type="MSShapeGroup"></path>
        </g>
    </g>
</svg>