<?xml version="1.0" encoding="UTF-8" standalone="no"?>
<svg width="43px" height="57px" viewBox="0 0 43 57" version="1.1" xmlns="http://www.w3.org/2000/svg" xmlns:xlink="http://www.w3.org/1999/xlink" xmlns:sketch="http://www.bohemiancoding.com/sketch/ns">
    <!-- Generator: Sketch 3.2.2 (9983) - http://www.bohemiancoding.com/sketch -->
    <title>33 - Fire Extinguisher (Flat)</title>
    <desc>Created with Sketch.</desc>
    <defs></defs>
    <g id="Page-1" stroke="none" stroke-width="1" fill="none" fill-rule="evenodd" sketch:type="MSPage">
        <g id="33---Fire-Extinguisher-(Flat)" sketch:type="MSLayerGroup">
            <path d="M2,15 L28,15 L28,57 L2,57 L2,15 Z" id="Fill-93" fill="#D75A4A" sketch:type="MSShapeGroup"></path>
            <path d="M19,9 L12.006,9 L0,4 L0,0 L19,6 L19,9" id="Fill-313" fill="#ECF0F1" sketch:type="MSShapeGroup"></path>
            <path d="M42.28,42.781 C43.163,31.054 40.505,26.225 38.996,23.995 C38.449,23.186 37.552,23.185 37.005,23.993 C35.495,26.223 33.438,31.063 34.074,42.782 C34.111,43.471 34.707,44 35.397,44 L40.956,44 C41.646,44 42.228,43.469 42.28,42.781" id="Fill-314" fill="#D1D4D1" sketch:type="MSShapeGroup"></path>
            <path d="M2,28 L11,28 L11,45 L2,45 L2,28 Z" id="Fill-315" fill="#F0C419" sketch:type="MSShapeGroup"></path>
            <path d="M11,9 L19,9 L19,15 L11,15 L11,9 Z" id="Fill-452" fill="#BDC3C7" sketch:type="MSShapeGroup"></path>
            <path d="M15,15 L28,15 L28,57 L15,57 L15,15 Z" id="Fill-559" fill="#BC4E46" sketch:type="MSShapeGroup"></path>
            <path d="M12,14 L18,14 L18,16 L12,16 L12,14 Z" id="Fill-560" fill="#556080" sketch:type="MSShapeGroup"></path>
            <path d="M24,8 L3,8 C2.447,8 2,8.448 2,9 C2,9.552 2.447,10 3,10 L24,10 C31.168,10 37,15.832 37,23 C37,23.552 37.447,24 38,24 C38.553,24 39,23.552 39,23 C39,14.729 32.271,8 24,8" id="Fill-561" fill="#556080" sketch:type="MSShapeGroup"></path>
        </g>
    </g>
</svg>