<?xml version="1.0" encoding="UTF-8" standalone="no"?>
<svg width="55px" height="55px" viewBox="0 0 55 55" version="1.1" xmlns="http://www.w3.org/2000/svg" xmlns:xlink="http://www.w3.org/1999/xlink" xmlns:sketch="http://www.bohemiancoding.com/sketch/ns">
    <!-- Generator: Sketch 3.2.2 (9983) - http://www.bohemiancoding.com/sketch -->
    <title>5 - Forensic Search (Flat)</title>
    <desc>Created with Sketch.</desc>
    <defs></defs>
    <g id="Page-1" stroke="none" stroke-width="1" fill="none" fill-rule="evenodd" sketch:type="MSPage">
        <g id="5---Forensic-Search-(Flat)" sketch:type="MSLayerGroup">
            <path d="M40.029,20 C40.029,31.046 31.075,40 20.029,40 C8.984,40 0.029,31.046 0.029,20 C0.029,8.954 8.984,0 20.029,0 C31.075,0 40.029,8.954 40.029,20" id="Fill-449" fill="#556080" sketch:type="MSShapeGroup"></path>
            <path d="M53.828,47.385 L43.343,36.9 L41.929,38.314 L35.746,32.343 C34.919,33.394 33.994,34.362 32.976,35.229 L39.1,41.142 L37.686,42.556 L48.172,53.042 C49.734,54.604 52.266,54.604 53.828,53.042 C55.391,51.48 55.391,48.947 53.828,47.385" id="Fill-450" fill="#8697CB" sketch:type="MSShapeGroup"></path>
            <path d="M36.029,20 C36.029,28.837 28.866,36 20.029,36 C11.193,36 4.029,28.837 4.029,20 C4.029,11.163 11.193,4 20.029,4 C28.866,4 36.029,11.163 36.029,20" id="Fill-451" fill="#B0D3F0" sketch:type="MSShapeGroup"></path>
        </g>
    </g>
</svg>