<?xml version="1.0" encoding="UTF-8" standalone="no"?>
<svg width="58px" height="52px" viewBox="0 0 58 52" version="1.1" xmlns="http://www.w3.org/2000/svg" xmlns:xlink="http://www.w3.org/1999/xlink" xmlns:sketch="http://www.bohemiancoding.com/sketch/ns">
    <!-- Generator: Sketch 3.2.2 (9983) - http://www.bohemiancoding.com/sketch -->
    <title>34 - Handcuffs (Flat)</title>
    <desc>Created with Sketch.</desc>
    <defs></defs>
    <g id="Page-1" stroke="none" stroke-width="1" fill="none" fill-rule="evenodd" sketch:type="MSPage">
        <g id="34---Handcuffs-(Flat)" sketch:type="MSLayerGroup">
            <path d="M11,30 C4.925,30 0,34.925 0,41 C0,47.075 4.925,52 11,52 C17.075,52 22,47.075 22,41 C22,34.925 17.075,30 11,30 L11,30 Z M11,48 C7.141,48 4,44.86 4,41 C4,37.14 7.141,34 11,34 C14.859,34 18,37.14 18,41 C18,44.86 14.859,48 11,48 L11,48 Z" id="Fill-306" fill="#E6E7E8" sketch:type="MSShapeGroup"></path>
            <path d="M11,31 C12.63,31 14.172,31.364 15.563,32 L17,32 L17,24 C17,22.99 16.181,22 15.172,22 L6.828,22 C5.819,22 5,22.99 5,24 L5,32 L5.437,32 C6.828,31.364 9.37,31 11,31" id="Fill-307" fill="#C9CFD3" sketch:type="MSShapeGroup"></path>
            <path d="M11,28 C10.447,28 10,27.552 10,27 L10,25 C10,24.448 10.447,24 11,24 C11.553,24 12,24.448 12,25 L12,27 C12,27.552 11.553,28 11,28" id="Fill-308" fill="#5E5F62" sketch:type="MSShapeGroup"></path>
            <path d="M54.778,21.222 C50.482,16.926 43.518,16.926 39.222,21.222 C34.926,25.518 34.926,32.482 39.222,36.778 C43.518,41.074 50.482,41.074 54.778,36.778 C59.074,32.482 59.074,25.518 54.778,21.222 L54.778,21.222 Z M51.95,33.95 C49.221,36.679 44.78,36.679 42.05,33.95 C39.321,31.22 39.321,26.779 42.05,24.05 C44.779,21.321 49.22,21.321 51.95,24.05 C54.679,26.78 54.679,31.221 51.95,33.95 L51.95,33.95 Z" id="Fill-309" fill="#E6E7E8" sketch:type="MSShapeGroup"></path>
            <path d="M40.05,22.05 C41.203,20.898 42.55,20.065 43.984,19.531 L45,18.515 L39.222,12.737 C38.508,12.022 37.229,11.901 36.515,12.615 L30.615,18.515 C29.901,19.229 30.022,20.508 30.737,21.222 L36.515,27 L36.824,26.691 C37.358,25.257 38.898,23.203 40.05,22.05" id="Fill-310" fill="#C9CFD3" sketch:type="MSShapeGroup"></path>
            <path d="M37.101,20.101 C36.845,20.101 36.589,20.003 36.394,19.808 L34.979,18.394 C34.589,18.003 34.589,17.37 34.979,16.979 C35.37,16.589 36.003,16.589 36.394,16.979 L37.808,18.394 C38.198,18.784 38.198,19.417 37.808,19.808 C37.612,20.003 37.356,20.101 37.101,20.101" id="Fill-311" fill="#5E5F62" sketch:type="MSShapeGroup"></path>
            <path d="M34.642,9.892 C35.861,8.813 36.002,6.947 34.94,5.702 L31.696,1.897 C30.667,0.69 28.678,0.53 27.467,1.561 C27.425,1.596 27.396,1.639 27.357,1.676 L24.171,1.422 C23.632,0.554 22.683,0 21.625,0 C21.306,0 20.988,0.051 20.684,0.152 L15.938,1.729 C14.599,2.174 13.79,3.478 13.903,4.826 L11.489,6.946 C11.436,6.94 11.386,6.923 11.332,6.92 C9.69,6.829 8.251,8.082 8.144,9.72 L7.821,14.71 C7.73,16.146 8.669,17.412 10,17.788 L10,22 C10,22.552 10.447,23 11,23 C11.553,23 12,22.552 12,22 L12,17.652 C13.004,17.217 13.734,16.251 13.81,15.097 L14.132,10.108 C14.183,9.311 13.92,8.541 13.392,7.937 L14.783,6.716 C15.331,7.255 16.08,7.575 16.889,7.575 C17.208,7.575 17.525,7.524 17.83,7.423 L22.575,5.847 C23.674,5.481 24.409,4.534 24.58,3.462 L26.425,3.609 C26.365,4.374 26.595,5.162 27.131,5.791 L30.375,9.595 C30.944,10.263 31.777,10.647 32.66,10.647 C32.672,10.647 32.685,10.643 32.697,10.643 L33.002,15.069 C33.039,15.596 33.477,16 33.999,16 C34.023,16 34.045,15.999 34.068,15.998 C34.62,15.96 35.035,15.482 34.998,14.931 L34.653,9.931 C34.652,9.917 34.644,9.906 34.642,9.892 L34.642,9.892 Z M11.813,14.967 C11.779,15.492 11.342,15.903 10.816,15.903 L10.751,15.901 C10.201,15.866 9.782,15.389 9.817,14.838 L10.141,9.85 C10.175,9.326 10.61,8.916 11.198,8.916 L11.203,8.916 C11.468,8.933 11.71,9.053 11.888,9.255 C12.065,9.457 12.153,9.714 12.136,9.979 L11.813,14.967 L11.813,14.967 Z M21.944,3.948 L17.199,5.524 C16.685,5.697 16.104,5.399 15.936,4.891 C15.762,4.367 16.046,3.8 16.569,3.627 L21.315,2.051 C21.415,2.017 21.519,2 21.625,2 C22.045,2 22.412,2.26 22.559,2.647 C22.566,2.673 22.573,2.697 22.583,2.722 C22.731,3.234 22.455,3.779 21.944,3.948 L21.944,3.948 Z M28.652,4.493 C28.295,4.073 28.346,3.44 28.765,3.083 C28.994,2.887 29.243,2.846 29.411,2.846 C29.707,2.846 29.985,2.973 30.175,3.195 L33.419,7 C33.776,7.419 33.726,8.052 33.307,8.41 C33.077,8.606 32.828,8.647 32.66,8.647 C32.364,8.647 32.086,8.519 31.896,8.297 L28.652,4.493 L28.652,4.493 Z" id="Fill-312" fill="#E6E7E8" sketch:type="MSShapeGroup"></path>
        </g>
    </g>
</svg>