<?xml version="1.0" encoding="UTF-8" standalone="no"?>
<svg width="47px" height="58px" viewBox="0 0 47 58" version="1.1" xmlns="http://www.w3.org/2000/svg" xmlns:xlink="http://www.w3.org/1999/xlink" xmlns:sketch="http://www.bohemiancoding.com/sketch/ns">
    <!-- Generator: Sketch 3.2.2 (9983) - http://www.bohemiancoding.com/sketch -->
    <title>40 - Indoor Camera (Flat)</title>
    <desc>Created with Sketch.</desc>
    <defs></defs>
    <g id="Page-1" stroke="none" stroke-width="1" fill="none" fill-rule="evenodd" sketch:type="MSPage">
        <g id="40---Indoor-Camera-(Flat)" sketch:type="MSLayerGroup">
            <path d="M27.757,51.244 L27.757,51.244 L28,51 L17,35 L12,37 L23.708,54.561 C24.525,52.955 25.987,51.736 27.757,51.244" id="Fill-150" fill="#8697CB" sketch:type="MSShapeGroup"></path>
            <path d="M30.87,47.839 C31.032,48.077 31.175,48.329 31.305,48.588 C31.331,48.64 31.356,48.693 31.381,48.745 C31.503,49.005 31.613,49.27 31.7,49.547 C31.701,49.549 31.702,49.551 31.702,49.552 C31.789,49.827 31.851,50.112 31.9,50.401 C31.912,50.47 31.922,50.539 31.932,50.608 C31.972,50.9 32,51.197 32,51.5 C32,51.658 31.992,51.774 31.981,51.876 C31.961,52.224 31.918,52.567 31.845,52.899 L47,49 L47,43 L30.87,47.839" id="Fill-151" fill="#8697CB" sketch:type="MSShapeGroup"></path>
            <path d="M32,51.5 C32,55.09 29.09,58 25.5,58 C21.91,58 19,55.09 19,51.5 C19,47.91 21.91,45 25.5,45 C29.09,45 32,47.91 32,51.5" id="Fill-590" fill="#556080" sketch:type="MSShapeGroup"></path>
            <path d="M19,32.556 C19,35.593 16.538,37.445 13.5,37.445 C10.463,37.445 8,35.593 8,32.556 L19,32.556" id="Fill-591" fill="#556080" sketch:type="MSShapeGroup"></path>
            <path d="M25,33 L3.276,33 C1.467,33 0,31.533 0,29.724 L0,3.276 C0,1.467 1.467,0 3.276,0 L25,0 C26.809,0 28,1.467 28,3.276 L28,29.724 C28,31.533 26.809,33 25,33" id="Fill-592" fill="#ECF0F1" sketch:type="MSShapeGroup"></path>
            <path d="M25,14 C25,20.075 20.075,25 14,25 C7.925,25 3,20.075 3,14 C3,7.925 7.925,3 14,3 C20.075,3 25,7.925 25,14" id="Fill-593" fill="#8697CB" sketch:type="MSShapeGroup"></path>
            <path d="M14,21 C10.14,21 7,17.86 7,14 C7,10.14 10.14,7 14,7 C17.86,7 21,10.14 21,14 C21,17.86 17.86,21 14,21" id="Fill-594" fill="#556080" sketch:type="MSShapeGroup"></path>
            <path d="M25,3 C25,3.552 24.552,4 24,4 C23.448,4 23,3.552 23,3 C23,2.448 23.448,2 24,2 C24.552,2 25,2.448 25,3" id="Fill-595" fill="#E64C3C" sketch:type="MSShapeGroup"></path>
            <path d="M24,33 L4,33 L4,30.926 C4,29.31 5.31,28 6.925,28 L21.074,28 C22.69,28 24,29.31 24,30.926 L24,33" id="Fill-596" fill="#D1D4D1" sketch:type="MSShapeGroup"></path>
            <path d="M10,15 C9.448,15 9,14.552 9,14 C9,11.243 11.243,9 14,9 C14.552,9 15,9.448 15,10 C15,10.552 14.552,11 14,11 C12.346,11 11,12.346 11,14 C11,14.552 10.552,15 10,15" id="Fill-597" fill="#D0E8F9" sketch:type="MSShapeGroup"></path>
        </g>
    </g>
</svg>