<?xml version="1.0" encoding="UTF-8" standalone="no"?>
<svg width="51px" height="52px" viewBox="0 0 51 52" version="1.1" xmlns="http://www.w3.org/2000/svg" xmlns:xlink="http://www.w3.org/1999/xlink" xmlns:sketch="http://www.bohemiancoding.com/sketch/ns">
    <!-- Generator: Sketch 3.2.2 (9983) - http://www.bohemiancoding.com/sketch -->
    <title>20 - Key (Flat)</title>
    <desc>Created with Sketch.</desc>
    <defs></defs>
    <g id="Page-1" stroke="none" stroke-width="1" fill="none" fill-rule="evenodd" sketch:type="MSPage">
        <g id="20---Key-(Flat)" sketch:type="MSLayerGroup">
            <path d="M29.63,22.63 C32.659,16.629 32.521,9.965 27.508,4.952 C20.936,-1.62 10.069,-1.279 3.942,5.974 C-1.383,12.278 -0.919,21.85 4.951,27.649 C9.416,32.06 15.572,33.032 21.145,31.115 L23.973,34 L29,34 L29,38 L33,38 L33,42 L38,42 L38,47 L41,47 L41,49.776 C41,50.583 41.039,50.822 41.551,51.333 C41.939,51.721 42.453,51.958 43,52 L51,52 L51,43 L29.63,22.63 L29.63,22.63 Z M15.488,15.559 C13.535,17.511 10.369,17.511 8.417,15.559 C6.464,13.606 6.464,10.44 8.417,8.487 C10.369,6.535 13.535,6.535 15.488,8.487 C17.44,10.44 17.44,13.606 15.488,15.559 L15.488,15.559 Z" id="Fill-224" fill="#E4C05C" sketch:type="MSShapeGroup"></path>
            <path d="M27,27 L21.389,31.364 L23.973,34 L29,34 L29,38 L33,38 L33,42 L38,42 L38,47 L41,47 L41,49.776 C41,50.583 41.039,50.822 41.551,51.333 C41.939,51.721 42.453,51.958 43,52 L51,52 L51,51 L27,27" id="Fill-554" fill="#DDA86F" sketch:type="MSShapeGroup"></path>
            <path d="M12,5 C8.134,5 5,8.134 5,12 C5,15.866 8.134,19 12,19 C15.866,19 19,15.866 19,12 C19,8.134 15.866,5 12,5 L12,5 Z M12,17 C9.239,17 7,14.761 7,12 C7,9.239 9.239,7 12,7 C14.761,7 17,9.239 17,12 C17,14.761 14.761,17 12,17 L12,17 Z" id="Fill-555" fill="#BC9C4D" sketch:type="MSShapeGroup"></path>
        </g>
    </g>
</svg>