<?xml version="1.0" encoding="UTF-8" standalone="no"?>
<svg width="58px" height="58px" viewBox="0 0 58 58" version="1.1" xmlns="http://www.w3.org/2000/svg" xmlns:xlink="http://www.w3.org/1999/xlink" xmlns:sketch="http://www.bohemiancoding.com/sketch/ns">
    <!-- Generator: Sketch 3.2.2 (9983) - http://www.bohemiancoding.com/sketch -->
    <title>8 - Keyhole (Flat)</title>
    <desc>Created with Sketch.</desc>
    <defs></defs>
    <g id="Page-1" stroke="none" stroke-width="1" fill="none" fill-rule="evenodd" sketch:type="MSPage">
        <g id="8---Keyhole-(Flat)" sketch:type="MSLayerGroup">
            <path d="M58,29 C58,45.016 45.016,58 29,58 C12.984,58 0,45.016 0,29 C0,12.984 12.984,0 29,0 C45.016,0 58,12.984 58,29" id="Fill-75" fill="#556080" sketch:type="MSShapeGroup"></path>
            <path d="M0,29 C0,45.016 12.984,58 29,58 L29,0 C12.984,0 0,12.984 0,29" id="Fill-76" fill="#606C8C" sketch:type="MSShapeGroup"></path>
            <path d="M37,21 C37,16.582 33.418,13 29,13 C24.582,13 21,16.582 21,21 C21,23.791 22.432,26.246 24.598,27.677 L22,46 L36,46 L33.402,27.677 C35.568,26.246 37,23.791 37,21" id="Fill-500" fill="#3B4356" sketch:type="MSShapeGroup"></path>
        </g>
    </g>
</svg>