<?xml version="1.0" encoding="UTF-8" standalone="no"?>
<svg width="58px" height="58px" viewBox="0 0 58 58" version="1.1" xmlns="http://www.w3.org/2000/svg" xmlns:xlink="http://www.w3.org/1999/xlink" xmlns:sketch="http://www.bohemiancoding.com/sketch/ns">
    <!-- Generator: Sketch 3.2.2 (9983) - http://www.bohemiancoding.com/sketch -->
    <title>9 - Lockpick (Flat)</title>
    <desc>Created with Sketch.</desc>
    <defs></defs>
    <g id="Page-1" stroke="none" stroke-width="1" fill="none" fill-rule="evenodd" sketch:type="MSPage">
        <g id="9---Lockpick-(Flat)" sketch:type="MSLayerGroup">
            <path d="M58,29 C58,45.016 45.016,58 29,58 C12.984,58 0,45.016 0,29 C0,12.984 12.984,0 29,0 C45.016,0 58,12.984 58,29" id="Fill-71" fill="#E4C05C" sketch:type="MSShapeGroup"></path>
            <path d="M0,29 C0,45.016 12.984,58 29,58 L29,0 C12.984,0 0,12.984 0,29" id="Fill-72" fill="#DDA86F" sketch:type="MSShapeGroup"></path>
            <path d="M20,29 C20,33.418 16.418,37 12,37 C7.582,37 4,33.418 4,29 C4,24.582 7.582,21 12,21 C16.418,21 20,24.582 20,29" id="Fill-73" fill="#BC9064" sketch:type="MSShapeGroup"></path>
            <path d="M54,29 C54,33.418 50.418,37 46,37 C41.582,37 38,33.418 38,29 C38,24.582 41.582,21 46,21 C50.418,21 54,24.582 54,29" id="Fill-74" fill="#C6A554" sketch:type="MSShapeGroup"></path>
            <path d="M37.371,19.371 C37.371,14.282 32.831,10.254 27.58,11.117 C24.28,11.659 21.582,14.221 20.843,17.482 C20.151,20.536 21.194,23.381 23.135,25.298 C23.862,26.016 24.299,33.994 24.475,35 L25.513,46.518 C25.662,47.375 26.406,48 27.276,48 L30.724,48 C31.594,48 32.338,47.375 32.487,46.518 L33.538,34.928 C33.707,33.957 34.133,26.014 34.837,25.325 C36.386,23.809 37.371,21.704 37.371,19.371" id="Fill-442" fill="#606C8C" sketch:type="MSShapeGroup"></path>
            <path d="M19,29 C19,32.866 15.866,36 12,36 C8.134,36 5,32.866 5,29 C5,25.134 8.134,22 12,22 C15.866,22 19,25.134 19,29" id="Fill-443" fill="#D1D4D1" sketch:type="MSShapeGroup"></path>
            <path d="M53,29 C53,32.866 49.866,36 46,36 C42.134,36 39,32.866 39,29 C39,25.134 42.134,22 46,22 C49.866,22 53,25.134 53,29" id="Fill-444" fill="#D1D4D1" sketch:type="MSShapeGroup"></path>
            <path d="M30.707,44.293 L29.414,43 L30.625,41.789 C30.836,41.583 30.957,41.295 30.957,41 L30.926,40.513 L29.414,39 L30.625,37.789 C30.836,37.583 30.957,37.295 30.957,37 L30.926,36.513 L29.414,35 L30.625,33.789 C30.836,33.583 30.957,33.295 30.957,33 L30.926,32.513 L29.414,31 L30.625,29.789 C30.836,29.583 30.957,29.295 30.957,29 L30.926,28.506 L30.804,28.386 L30,25.846 L30,19 C30,18.447 29.552,18 29,18 C28.448,18 28,18.447 28,19 L28,26 L28.825,28.761 L27.371,30.216 C27.162,30.421 27.043,30.707 27.043,31 L27.073,31.487 L28.585,33 L27.371,34.216 C27.162,34.421 27.043,34.707 27.043,35 L27.073,35.487 L28.585,37 L27.371,38.216 C27.162,38.421 27.043,38.707 27.043,39 L27.073,39.487 L28.585,41 L27.371,42.216 C27.162,42.421 27.043,42.707 27.043,43 L27.073,43.487 L29.293,45.707 C29.488,45.902 29.744,46 30,46 C30.256,46 30.512,45.902 30.707,45.707 C31.098,45.316 31.098,44.684 30.707,44.293" id="Fill-499" fill="#3D324C" sketch:type="MSShapeGroup"></path>
            <path d="M13.293,26.293 L12,27.586 L10.707,26.293 L9.293,27.707 L10.586,29 L9.293,30.293 L10.707,31.707 L12,30.414 L13.293,31.707 L14.707,30.293 L13.414,29 L14.707,27.707 L13.293,26.293" id="Fill-518" fill="#FFFFFF" sketch:type="MSShapeGroup"></path>
            <path d="M48.707,27.707 L47.293,26.293 L46,27.586 L44.707,26.293 L43.293,27.707 L44.586,29 L43.293,30.293 L44.707,31.707 L46,30.414 L47.293,31.707 L48.707,30.293 L47.414,29 L48.707,27.707" id="Fill-519" fill="#FFFFFF" sketch:type="MSShapeGroup"></path>
        </g>
    </g>
</svg>