<?xml version="1.0" encoding="UTF-8" standalone="no"?>
<svg width="34px" height="58px" viewBox="0 0 34 58" version="1.1" xmlns="http://www.w3.org/2000/svg" xmlns:xlink="http://www.w3.org/1999/xlink" xmlns:sketch="http://www.bohemiancoding.com/sketch/ns">
    <!-- Generator: Sketch 3.2.2 (9983) - http://www.bohemiancoding.com/sketch -->
    <title>44 - Phone Encryption (Flat)</title>
    <desc>Created with Sketch.</desc>
    <defs></defs>
    <g id="Page-1" stroke="none" stroke-width="1" fill="none" fill-rule="evenodd" sketch:type="MSPage">
        <g id="44---Phone-Encryption-(Flat)" sketch:type="MSLayerGroup" transform="translate(1.000000, 0.000000)">
            <path d="M30.038,58 L3.962,58 C2.326,58 1,56.674 1,55.038 L1,2.962 C1,1.326 2.326,0 3.962,0 L30.038,0 C31.674,0 33,1.326 33,2.962 L33,55.038 C33,56.674 31.674,58 30.038,58" id="Fill-41" fill="#38454F" sketch:type="MSShapeGroup"></path>
            <path d="M1,6 L33,6 L33,50 L1,50 L1,6 Z" id="Fill-42" fill="#88C057" sketch:type="MSShapeGroup"></path>
            <path d="M21,2 L16,2 C15.448,2 15,2.447 15,3 C15,3.553 15.448,4 16,4 L21,4 C21.552,4 22,3.553 22,3 C22,2.447 21.552,2 21,2" id="Fill-43" fill="#333F45" sketch:type="MSShapeGroup"></path>
            <path d="M13,2 L12,2 C11.448,2 11,2.447 11,3 C11,3.553 11.448,4 12,4 L13,4 C13.552,4 14,3.553 14,3 C14,2.447 13.552,2 13,2" id="Fill-44" fill="#333F45" sketch:type="MSShapeGroup"></path>
            <path d="M0,9 L0,10 M0,13 L0,14 M0,17 L0,18" id="Stroke-45" stroke="#D4DBDF" stroke-width="2" stroke-linecap="round" sketch:type="MSShapeGroup"></path>
            <path d="M20,54 C20,55.657 18.657,57 17,57 C15.343,57 14,55.657 14,54 C14,52.343 15.343,51 17,51 C18.657,51 20,52.343 20,54" id="Fill-46" fill="#333F45" sketch:type="MSShapeGroup"></path>
            <path d="M10,27 L25,27 L25,39 L10,39 L10,27 Z" id="Fill-128" fill="#F0C419" sketch:type="MSShapeGroup"></path>
            <path d="M13,27 L13,23.5 C13,21.025 15.025,19 17.5,19 C19.975,19 22,21.025 22,23.5 L22,27" id="Stroke-129" stroke="#556080" stroke-width="2" stroke-linejoin="round" sketch:type="MSShapeGroup"></path>
        </g>
    </g>
</svg>