<?xml version="1.0" encoding="UTF-8" standalone="no"?>
<svg width="44px" height="58px" viewBox="0 0 44 58" version="1.1" xmlns="http://www.w3.org/2000/svg" xmlns:xlink="http://www.w3.org/1999/xlink" xmlns:sketch="http://www.bohemiancoding.com/sketch/ns">
    <!-- Generator: Sketch 3.2.2 (9983) - http://www.bohemiancoding.com/sketch -->
    <title>48 - Protected System (Flat)</title>
    <desc>Created with Sketch.</desc>
    <defs></defs>
    <g id="Page-1" stroke="none" stroke-width="1" fill="none" fill-rule="evenodd" sketch:type="MSPage">
        <g id="48---Protected-System-(Flat)" sketch:type="MSLayerGroup">
            <path d="M22,0 C22,0 15.333,8 0,8 L0,27.085 C0,37.051 4.328,46.662 12.164,52.82 C14.937,55 18.208,56.875 22,58 C25.792,56.875 29.062,55 31.836,52.82 C39.672,46.662 44,37.051 44,27.085 L44,8 C28.667,8 22,0 22,0" id="Fill-104" fill="#556080" sketch:type="MSShapeGroup"></path>
            <path d="M22,51.661 C19.877,50.828 17.822,49.636 15.872,48.103 C9.69,43.245 6,35.388 6,27.085 L6,13.628 C13.391,12.686 18.639,10.114 22,7.831 C25.361,10.114 30.609,12.686 38,13.628 L38,27.085 C38,35.388 34.31,43.245 28.129,48.103 C26.178,49.636 24.123,50.828 22,51.661" id="Fill-105" fill="#4FBA6F" sketch:type="MSShapeGroup"></path>
            <path d="M34.659,20.248 C34.243,19.884 33.612,19.927 33.248,20.341 L19.951,35.537 L12.707,28.293 C12.316,27.902 11.684,27.902 11.293,28.293 C10.902,28.684 10.902,29.316 11.293,29.707 L19.293,37.707 C19.481,37.895 19.735,38 20,38 L20.033,38 C20.31,37.99 20.57,37.867 20.752,37.659 L34.752,21.659 C35.116,21.243 35.074,20.611 34.659,20.248" id="Fill-108" fill="#FFFFFF" sketch:type="MSShapeGroup"></path>
        </g>
    </g>
</svg>