<?xml version="1.0" encoding="UTF-8" standalone="no"?>
<svg width="60px" height="60px" viewBox="0 0 60 60" version="1.1" xmlns="http://www.w3.org/2000/svg" xmlns:xlink="http://www.w3.org/1999/xlink" xmlns:sketch="http://www.bohemiancoding.com/sketch/ns">
    <!-- Generator: Sketch 3.2.2 (9983) - http://www.bohemiancoding.com/sketch -->
    <title>30 - Retina Scan (Flat)</title>
    <desc>Created with Sketch.</desc>
    <defs></defs>
    <g id="Page-1" stroke="none" stroke-width="1" fill="none" fill-rule="evenodd" sketch:type="MSPage">
        <g id="30---Retina-Scan-(Flat)" sketch:type="MSLayerGroup">
            <path d="M0,0 L60,0 L60,60 L0,60 L0,0 Z" id="Fill-58" fill="#556080" sketch:type="MSShapeGroup"></path>
            <path d="M20,2 L2,2 L2,20 C2,20.552 2.448,21 3,21 C3.552,21 4,20.552 4,20 L4,4 L20,4 C20.552,4 21,3.552 21,3 C21,2.448 20.552,2 20,2" id="Fill-59" fill="#8697CB" sketch:type="MSShapeGroup"></path>
            <path d="M57,40 C56.448,40 56,40.448 56,41 L56,56 L41,56 C40.448,56 40,56.448 40,57 C40,57.552 40.448,58 41,58 L58,58 L58,41 C58,40.448 57.552,40 57,40" id="Fill-60" fill="#8697CB" sketch:type="MSShapeGroup"></path>
            <path d="M41,2 C40.448,2 40,2.448 40,3 C40,3.552 40.448,4 41,4 L56,4 L56,20 C56,20.552 56.448,21 57,21 C57.552,21 58,20.552 58,20 L58,2 L41,2" id="Fill-61" fill="#8697CB" sketch:type="MSShapeGroup"></path>
            <path d="M20,56 L4,56 L4,41 C4,40.448 3.552,40 3,40 C2.448,40 2,40.448 2,41 L2,58 L20,58 C20.552,58 21,57.552 21,57 C21,56.448 20.552,56 20,56" id="Fill-62" fill="#8697CB" sketch:type="MSShapeGroup"></path>
            <path d="M30.556,43.996 C30.02,43.996 29.576,43.571 29.557,43.031 C29.538,42.479 29.97,42.016 30.522,41.997 C31.163,41.975 31.81,41.93 32.448,41.864 C32.985,41.801 33.489,42.206 33.546,42.755 C33.603,43.305 33.204,43.796 32.654,43.853 C31.972,43.924 31.277,43.972 30.591,43.996 L30.556,43.996 L30.556,43.996 Z M26.563,43.86 C26.53,43.86 26.495,43.859 26.46,43.855 C25.78,43.785 25.09,43.691 24.412,43.574 C23.868,43.48 23.503,42.963 23.597,42.419 C23.69,41.875 24.201,41.502 24.752,41.603 C25.385,41.712 26.029,41.8 26.665,41.866 C27.214,41.922 27.614,42.413 27.557,42.962 C27.504,43.477 27.07,43.86 26.563,43.86 L26.563,43.86 Z M36.488,43.175 C36.039,43.175 35.63,42.87 35.518,42.413 C35.387,41.877 35.715,41.335 36.251,41.204 C36.873,41.052 37.498,40.876 38.109,40.68 C38.634,40.512 39.198,40.802 39.367,41.328 C39.535,41.854 39.245,42.417 38.719,42.585 C38.063,42.794 37.393,42.984 36.727,43.146 C36.647,43.166 36.567,43.175 36.488,43.175 L36.488,43.175 Z M20.699,42.641 C20.599,42.641 20.496,42.625 20.396,42.593 C19.744,42.385 19.088,42.152 18.448,41.898 C17.934,41.695 17.683,41.114 17.886,40.6 C18.089,40.087 18.668,39.835 19.184,40.039 C19.782,40.275 20.394,40.494 21.002,40.688 C21.528,40.855 21.819,41.418 21.651,41.943 C21.516,42.369 21.123,42.641 20.699,42.641 L20.699,42.641 Z M42.129,41.156 C41.757,41.156 41.399,40.947 41.227,40.589 C40.988,40.091 41.198,39.494 41.695,39.254 C42.274,38.977 42.85,38.675 43.407,38.359 C43.887,38.085 44.498,38.254 44.771,38.735 C45.043,39.215 44.875,39.826 44.394,40.098 C43.797,40.437 43.181,40.76 42.562,41.057 C42.422,41.124 42.274,41.156 42.129,41.156 L42.129,41.156 Z M15.21,40.244 C15.043,40.244 14.875,40.202 14.719,40.114 C14.122,39.776 13.529,39.413 12.956,39.033 C12.495,38.729 12.369,38.108 12.673,37.648 C12.977,37.187 13.598,37.06 14.059,37.365 C14.594,37.719 15.147,38.058 15.704,38.374 C16.185,38.646 16.354,39.255 16.082,39.736 C15.898,40.061 15.559,40.244 15.21,40.244 L15.21,40.244 Z M47.233,38.021 C46.933,38.021 46.635,37.886 46.438,37.628 C46.102,37.19 46.186,36.562 46.625,36.227 C46.938,35.986 47.248,35.738 47.554,35.483 C47.596,35.448 47.635,35.412 47.673,35.375 L48.042,35.008 C48.432,34.619 49.066,34.619 49.456,35.012 C49.845,35.403 49.843,36.036 49.452,36.426 L49.085,36.791 C49.006,36.869 48.922,36.947 48.834,37.019 C48.508,37.292 48.176,37.558 47.84,37.815 C47.659,37.954 47.445,38.021 47.233,38.021 L47.233,38.021 Z M10.328,36.777 C10.101,36.777 9.872,36.7 9.684,36.542 L8.154,35.253 C7.732,34.897 7.678,34.266 8.034,33.844 C8.39,33.421 9.02,33.367 9.443,33.724 L10.973,35.013 C11.396,35.369 11.449,36 11.093,36.422 C10.896,36.656 10.613,36.777 10.328,36.777 L10.328,36.777 Z M51.582,33.896 C51.325,33.896 51.068,33.798 50.873,33.601 C50.483,33.21 50.485,32.577 50.877,32.187 L52.295,30.776 C52.685,30.387 53.319,30.388 53.709,30.78 C54.099,31.171 54.097,31.805 53.705,32.194 L52.287,33.605 C52.092,33.799 51.837,33.896 51.582,33.896 L51.582,33.896 Z" id="Fill-238" fill="#8697CB" sketch:type="MSShapeGroup"></path>
            <path d="M31.967,40.028 C31.477,40.028 31.049,39.667 30.979,39.168 C30.902,38.621 31.283,38.115 31.83,38.038 C32.443,37.952 33.054,37.821 33.644,37.65 C34.176,37.496 34.729,37.801 34.883,38.331 C35.037,38.862 34.732,39.417 34.202,39.571 C33.52,39.769 32.816,39.919 32.108,40.019 C32.06,40.025 32.014,40.028 31.967,40.028 L31.967,40.028 Z M27.984,40.023 C27.937,40.023 27.889,40.019 27.84,40.012 C27.136,39.911 26.432,39.759 25.748,39.558 C25.219,39.403 24.915,38.848 25.07,38.317 C25.226,37.788 25.783,37.484 26.311,37.639 C26.903,37.813 27.514,37.945 28.124,38.033 C28.671,38.111 29.051,38.618 28.972,39.165 C28.901,39.663 28.473,40.023 27.984,40.023 L27.984,40.023 Z M37.555,37.968 C37.225,37.968 36.901,37.805 36.711,37.505 C36.414,37.04 36.551,36.421 37.017,36.125 C37.537,35.794 38.039,35.422 38.508,35.019 C38.927,34.659 39.559,34.709 39.919,35.127 C40.278,35.547 40.23,36.178 39.81,36.538 C39.269,37.002 38.69,37.43 38.091,37.812 C37.925,37.918 37.739,37.968 37.555,37.968 L37.555,37.968 Z M22.403,37.944 C22.218,37.944 22.031,37.893 21.864,37.786 C21.266,37.402 20.689,36.971 20.15,36.506 C19.731,36.145 19.685,35.514 20.046,35.096 C20.408,34.677 21.038,34.632 21.456,34.992 C21.924,35.396 22.425,35.769 22.944,36.103 C23.409,36.401 23.544,37.02 23.246,37.484 C23.054,37.782 22.732,37.944 22.403,37.944 L22.403,37.944 Z M41.788,33.783 C41.6,33.783 41.41,33.73 41.241,33.619 C40.779,33.317 40.65,32.697 40.953,32.235 C41.29,31.718 41.594,31.173 41.855,30.614 C42.089,30.114 42.685,29.897 43.184,30.131 C43.685,30.364 43.901,30.96 43.667,31.46 C43.366,32.105 43.016,32.734 42.625,33.331 C42.434,33.623 42.114,33.783 41.788,33.783 L41.788,33.783 Z M18.182,33.745 C17.854,33.745 17.534,33.585 17.342,33.289 C16.953,32.69 16.605,32.059 16.308,31.417 C16.075,30.916 16.294,30.321 16.794,30.089 C17.297,29.858 17.89,30.076 18.122,30.576 C18.38,31.133 18.682,31.68 19.02,32.201 C19.321,32.665 19.189,33.284 18.725,33.584 C18.557,33.693 18.369,33.745 18.182,33.745 L18.182,33.745 Z" id="Fill-239" fill="#8697CB" sketch:type="MSShapeGroup"></path>
            <path d="M44.078,25.085 C44.078,27.198 43.612,29.202 42.779,31 L53,31 L48.25,26.795 C48.192,26.737 48.131,26.682 48.068,26.63 C46.782,25.559 45.422,24.625 44.013,23.809 C44.051,24.23 44.078,24.655 44.078,25.085" id="Fill-274" fill="#FFFFFF" sketch:type="MSShapeGroup"></path>
            <path d="M17.215,30.997 C16.382,29.199 15.918,27.197 15.918,25.085 C15.918,24.439 15.977,23.809 16.062,23.186 C14.2,24.152 12.409,25.307 10.745,26.703 L6,31 L42.346,31 L17.215,30.997" id="Fill-275" fill="#FFFFFF" sketch:type="MSShapeGroup"></path>
            <path d="M42.779,31 C43.612,29.202 44.078,27.198 44.078,25.085 C44.078,24.652 44.051,24.224 44.013,23.801 C35.41,18.822 24.839,18.606 16.065,23.154 C15.979,23.787 15.918,24.429 15.918,25.085 C15.918,27.197 16.382,29.199 17.215,30.997 L42.779,31" id="Fill-570" fill="#3B97D3" sketch:type="MSShapeGroup"></path>
            <path d="M27.864,26.365 C27.864,28.25 26.336,29.779 24.451,29.779 C22.566,29.779 21.038,28.25 21.038,26.365 C21.038,24.48 22.566,22.952 24.451,22.952 C26.336,22.952 27.864,24.48 27.864,26.365" id="Fill-571" fill="#87CDF4" sketch:type="MSShapeGroup"></path>
            <path d="M0,30 L60,30 L60,32 L0,32 L0,30 Z" id="Fill-572" fill="#FF5364" sketch:type="MSShapeGroup"></path>
            <path d="M30.827,26.413 C30.827,27.746 29.746,28.827 28.413,28.827 C27.081,28.827 26,27.746 26,26.413 C26,25.081 27.081,24 28.413,24 C29.746,24 30.827,25.081 30.827,26.413" id="Fill-573" fill="#FFFFFF" sketch:type="MSShapeGroup"></path>
        </g>
    </g>
</svg>