<?xml version="1.0" encoding="UTF-8" standalone="no"?>
<svg width="58px" height="57px" viewBox="0 0 58 57" version="1.1" xmlns="http://www.w3.org/2000/svg" xmlns:xlink="http://www.w3.org/1999/xlink" xmlns:sketch="http://www.bohemiancoding.com/sketch/ns">
    <!-- Generator: Sketch 3.2.2 (9983) - http://www.bohemiancoding.com/sketch -->
    <title>23 - Safebox (Flat)</title>
    <desc>Created with Sketch.</desc>
    <defs></defs>
    <g id="Page-1" stroke="none" stroke-width="1" fill="none" fill-rule="evenodd" sketch:type="MSPage">
        <g id="23---Safebox-(Flat)" sketch:type="MSLayerGroup">
            <path d="M8,53 L20,53 L20,57 L8,57 L8,53 Z" id="Fill-28" fill="#A5A5A4" sketch:type="MSShapeGroup"></path>
            <path d="M37,53 L49,53 L49,57 L37,57 L37,53 Z" id="Fill-29" fill="#A5A5A4" sketch:type="MSShapeGroup"></path>
            <path d="M48.289,53 L9.711,53 C4.9,53 1,49.1 1,44.289 L1,9.711 C1,4.9 4.9,1 9.711,1 L48.289,1 C53.1,1 57,4.9 57,9.711 L57,44.289 C57,49.1 53.1,53 48.289,53" id="Fill-90" fill="#8697CB" sketch:type="MSShapeGroup"></path>
            <path d="M48.289,0 L9.711,0 C4.356,0 0,4.356 0,9.711 L0,44.289 C0,49.644 4.356,54 9.711,54 L48.289,54 C53.644,54 58,49.644 58,44.289 L58,9.711 C58,4.356 53.644,0 48.289,0 L48.289,0 Z M56,44.289 C56,48.541 52.541,52 48.289,52 L30,52 L30,42 C30,41.448 29.553,41 29,41 C28.447,41 28,41.448 28,42 L28,52 L9.711,52 C5.459,52 2,48.541 2,44.289 L2,9.711 C2,5.459 5.459,2 9.711,2 L28,2 L28,12 C28,12.552 28.447,13 29,13 C29.553,13 30,12.552 30,12 L30,2 L48.289,2 C52.541,2 56,5.459 56,9.711 L56,44.289 L56,44.289 Z" id="Fill-201" fill="#556080" sketch:type="MSShapeGroup"></path>
            <path d="M40,27 C40,33.075 35.075,38 29,38 C22.925,38 18,33.075 18,27 C18,20.925 22.925,16 29,16 C35.075,16 40,20.925 40,27" id="Fill-202" fill="#556080" sketch:type="MSShapeGroup"></path>
            <path d="M29,39 C22.383,39 17,33.617 17,27 C17,20.383 22.383,15 29,15 C35.617,15 41,20.383 41,27 C41,33.617 35.617,39 29,39 L29,39 Z M29,17 C23.486,17 19,21.486 19,27 C19,32.514 23.486,37 29,37 C34.514,37 39,32.514 39,27 C39,21.486 34.514,17 29,17 L29,17 Z" id="Fill-203" fill="#FFFFFF" sketch:type="MSShapeGroup"></path>
            <path d="M29,31 C26.794,31 25,29.206 25,27 C25,24.794 26.794,23 29,23 C31.206,23 33,24.794 33,27 C33,29.206 31.206,31 29,31" id="Fill-204" fill="#556080" sketch:type="MSShapeGroup"></path>
            <path d="M29,32 C26.243,32 24,29.757 24,27 C24,24.243 26.243,22 29,22 C31.757,22 34,24.243 34,27 C34,29.757 31.757,32 29,32 L29,32 Z M29,24 C27.346,24 26,25.346 26,27 C26,28.654 27.346,30 29,30 C30.654,30 32,28.654 32,27 C32,25.346 30.654,24 29,24 L29,24 Z" id="Fill-205" fill="#FFFFFF" sketch:type="MSShapeGroup"></path>
            <path d="M10,47 C8.345,47 7,45.654 7,44 C7,42.346 8.345,41 10,41 C11.655,41 13,42.346 13,44 C13,45.654 11.655,47 10,47" id="Fill-206" fill="#FFFFFF" sketch:type="MSShapeGroup"></path>
            <path d="M48,47 C46.345,47 45,45.654 45,44 C45,42.346 46.345,41 48,41 C49.655,41 51,42.346 51,44 C51,45.654 49.655,47 48,47" id="Fill-207" fill="#FFFFFF" sketch:type="MSShapeGroup"></path>
            <path d="M29,16 L29,20" id="Fill-208" fill="#556080" sketch:type="MSShapeGroup"></path>
            <path d="M29,21 C28.447,21 28,20.552 28,20 L28,16 C28,15.448 28.447,15 29,15 C29.553,15 30,15.448 30,16 L30,20 C30,20.552 29.553,21 29,21" id="Fill-209" fill="#FFFFFF" sketch:type="MSShapeGroup"></path>
            <path d="M29,34 L29,38" id="Fill-210" fill="#556080" sketch:type="MSShapeGroup"></path>
            <path d="M29,39 C28.447,39 28,38.552 28,38 L28,34 C28,33.448 28.447,33 29,33 C29.553,33 30,33.448 30,34 L30,38 C30,38.552 29.553,39 29,39" id="Fill-211" fill="#FFFFFF" sketch:type="MSShapeGroup"></path>
            <path d="M40,27 L36,27" id="Fill-212" fill="#556080" sketch:type="MSShapeGroup"></path>
            <path d="M40,28 L36,28 C35.447,28 35,27.552 35,27 C35,26.448 35.447,26 36,26 L40,26 C40.553,26 41,26.448 41,27 C41,27.552 40.553,28 40,28" id="Fill-213" fill="#FFFFFF" sketch:type="MSShapeGroup"></path>
            <path d="M22,27 L18,27" id="Fill-214" fill="#556080" sketch:type="MSShapeGroup"></path>
            <path d="M22,28 L18,28 C17.447,28 17,27.552 17,27 C17,26.448 17.447,26 18,26 L22,26 C22.553,26 23,26.448 23,27 C23,27.552 22.553,28 22,28" id="Fill-215" fill="#FFFFFF" sketch:type="MSShapeGroup"></path>
            <path d="M36.778,19.222 L33.95,22.05" id="Fill-216" fill="#556080" sketch:type="MSShapeGroup"></path>
            <path d="M33.95,23.05 C33.694,23.05 33.438,22.953 33.243,22.757 C32.852,22.367 32.852,21.734 33.243,21.343 L36.071,18.515 C36.462,18.124 37.095,18.124 37.485,18.515 C37.876,18.905 37.876,19.538 37.485,19.929 L34.657,22.757 C34.462,22.953 34.206,23.05 33.95,23.05" id="Fill-217" fill="#FFFFFF" sketch:type="MSShapeGroup"></path>
            <path d="M24.05,31.95 L21.222,34.778" id="Fill-218" fill="#556080" sketch:type="MSShapeGroup"></path>
            <path d="M21.222,35.778 C20.966,35.778 20.71,35.681 20.515,35.485 C20.124,35.095 20.124,34.462 20.515,34.071 L23.343,31.243 C23.733,30.852 24.366,30.852 24.757,31.243 C25.147,31.633 25.147,32.266 24.757,32.657 L21.929,35.485 C21.733,35.681 21.477,35.778 21.222,35.778" id="Fill-219" fill="#FFFFFF" sketch:type="MSShapeGroup"></path>
            <path d="M36.778,34.778 L33.95,31.95" id="Fill-220" fill="#556080" sketch:type="MSShapeGroup"></path>
            <path d="M36.778,35.778 C36.523,35.778 36.267,35.681 36.071,35.485 L33.243,32.657 C32.852,32.266 32.852,31.633 33.243,31.243 C33.634,30.852 34.267,30.852 34.657,31.243 L37.485,34.071 C37.876,34.462 37.876,35.095 37.485,35.485 C37.29,35.681 37.034,35.778 36.778,35.778" id="Fill-221" fill="#FFFFFF" sketch:type="MSShapeGroup"></path>
            <path d="M24.05,22.05 L21.222,19.222" id="Fill-222" fill="#556080" sketch:type="MSShapeGroup"></path>
            <path d="M24.05,23.05 C23.794,23.05 23.538,22.953 23.343,22.757 L20.515,19.929 C20.124,19.538 20.124,18.905 20.515,18.515 C20.905,18.124 21.538,18.124 21.929,18.515 L24.757,21.343 C25.147,21.734 25.147,22.367 24.757,22.757 C24.562,22.953 24.306,23.05 24.05,23.05" id="Fill-223" fill="#FFFFFF" sketch:type="MSShapeGroup"></path>
        </g>
    </g>
</svg>