<?xml version="1.0" encoding="UTF-8" standalone="no"?>
<svg width="53px" height="54px" viewBox="0 0 53 54" version="1.1" xmlns="http://www.w3.org/2000/svg" xmlns:xlink="http://www.w3.org/1999/xlink" xmlns:sketch="http://www.bohemiancoding.com/sketch/ns">
    <!-- Generator: Sketch 3.2.2 (9983) - http://www.bohemiancoding.com/sketch -->
    <title>31 - Traffic Cone (Flat)</title>
    <desc>Created with Sketch.</desc>
    <defs></defs>
    <g id="Page-1" stroke="none" stroke-width="1" fill="none" fill-rule="evenodd" sketch:type="MSPage">
        <g id="31---Traffic-Cone-(Flat)" sketch:type="MSLayerGroup" transform="translate(-1.000000, 0.000000)">
            <path d="M52,37.122 L39.48,33.116 L39.553,33.381 C39.959,34.853 39.601,36.451 38.54,37.548 C36.959,39.183 33.696,41 27,41 C20.304,41 17.041,39.183 15.46,37.548 C14.398,36.451 14.041,34.853 14.447,33.381 L14.859,31.885 L2.238,37.16 C0.71,38.033 0.569,40.182 1.968,41.248 L26.153,53.497 C27.001,54.144 28.17,54.169 29.045,53.56 L52.267,41.318 C53.782,40.264 53.637,37.976 52,37.122" id="Fill-321" fill="#EEAA5B" sketch:type="MSShapeGroup"></path>
            <path d="M27,19 C30.277,19 33.589,17.607 34.86,17.008 C34.914,16.983 34.97,16.982 35.025,16.967 L32.921,9.34 C32.816,9.621 32.601,9.858 32.291,9.953 L31.563,10.18 C30.172,10.62 28.971,11 27,11 C24.716,11 23.713,10.652 22.195,10.125 L21.677,9.946 C21.382,9.846 21.178,9.617 21.077,9.346 L18.95,17.055 C19.019,17.074 19.09,17.081 19.155,17.115 C21.462,18.331 24.248,19 27,19" id="Fill-322" fill="#F0C419" sketch:type="MSShapeGroup"></path>
            <path d="M22.323,8.054 L22.852,8.236 C24.317,8.745 25.053,9 27,9 C28.662,9 29.626,8.695 30.96,8.273 L31.709,8.04 C32.039,7.939 32.367,8.031 32.615,8.23 L32,6 C31.521,4.481 31.014,3.292 30.515,2.361 C29,-0.462 24.885,-0.46 23.407,2.382 C22.924,3.31 22.443,4.493 22,6 L21.384,8.235 C21.641,8.028 21.986,7.939 22.323,8.054" id="Fill-323" fill="#F0C419" sketch:type="MSShapeGroup"></path>
            <path d="M27.354,30 C32.063,30 35.558,28.102 37.118,26.476 C37.248,26.341 37.41,26.267 37.578,26.221 L35.555,18.888 C34.072,19.575 30.565,21 27,21 C24.004,21 20.969,20.28 18.419,18.98 L16.468,26.053 C16.671,26.108 16.862,26.211 16.999,26.39 C18.662,28.549 22.824,30 27.354,30" id="Fill-324" fill="#F0C419" sketch:type="MSShapeGroup"></path>
            <path d="M39.553,33.381 L38.138,28.252 C36.097,30.13 32.34,32 27.354,32 C22.52,32 18.131,30.509 15.888,28.156 L14.447,33.381 C14.041,34.853 14.398,36.451 15.46,37.548 C17.041,39.183 20.304,41 27,41 C33.696,41 36.959,39.183 38.54,37.548 C39.602,36.451 39.959,34.853 39.553,33.381" id="Fill-325" fill="#F0C419" sketch:type="MSShapeGroup"></path>
            <path d="M38.138,28.252 L37.578,26.221 C37.41,26.267 37.248,26.341 37.118,26.476 C35.558,28.102 32.063,30 27.354,30 C22.824,30 18.662,28.549 16.999,26.39 C16.862,26.211 16.671,26.108 16.468,26.053 L15.888,28.156 C18.131,30.509 22.52,32 27.354,32 C32.34,32 36.097,30.13 38.138,28.252" id="Fill-326" fill="#F9F8E4" sketch:type="MSShapeGroup"></path>
            <path d="M35.555,18.888 L35.025,16.967 C34.97,16.982 34.914,16.983 34.86,17.008 C33.589,17.607 30.277,19 27,19 C24.248,19 21.462,18.331 19.155,17.115 C19.09,17.081 19.019,17.074 18.95,17.055 L18.419,18.98 C20.969,20.28 24.004,21 27,21 C30.565,21 34.072,19.575 35.555,18.888" id="Fill-327" fill="#F9F8E4" sketch:type="MSShapeGroup"></path>
            <path d="M21.677,9.946 L22.195,10.125 C23.713,10.652 24.716,11 27,11 C28.971,11 30.172,10.62 31.563,10.18 L32.291,9.953 C32.601,9.858 32.816,9.621 32.921,9.34 L32.615,8.23 C32.367,8.031 32.039,7.939 31.709,8.04 L30.96,8.273 C29.626,8.695 28.662,9 27,9 C25.053,9 24.317,8.745 22.852,8.236 L22.323,8.054 C21.986,7.939 21.641,8.028 21.384,8.235 L21.077,9.346 C21.178,9.617 21.382,9.846 21.677,9.946" id="Fill-328" fill="#F9F8E4" sketch:type="MSShapeGroup"></path>
            <path d="M14.859,31.885 L2.271,37.146 L26.191,48.523 C27.315,49.129 28.673,49.109 29.78,48.471 L52.025,37.14 C52.015,37.135 52.009,37.127 52,37.122 L39.48,33.116 L39.553,33.381 C39.959,34.853 39.601,36.451 38.54,37.548 C36.959,39.183 33.696,41 27,41 C20.304,41 17.041,39.183 15.46,37.548 C14.398,36.451 14.041,34.853 14.447,33.381 L14.859,31.885" id="Fill-563" fill="#E09B58" sketch:type="MSShapeGroup"></path>
            <path d="M43,35 C43,34.737 42.97,34.478 42.932,34.221 L39.48,33.116 L39.553,33.381 C39.959,34.853 39.601,36.451 38.54,37.548 C36.959,39.183 33.696,41 27,41 C20.304,41 17.041,39.183 15.46,37.548 C14.398,36.451 14.041,34.853 14.447,33.381 L14.859,31.885 L12.444,32.894 C12.164,33.571 12,34.274 12,35 C12,39.97 18.939,44 27.5,44 C36.06,44 43,39.97 43,35" id="Fill-564" fill="#B77D4E" sketch:type="MSShapeGroup"></path>
        </g>
    </g>
</svg>