<?xml version="1.0" encoding="UTF-8" standalone="no"?>
<svg width="44px" height="58px" viewBox="0 0 44 58" version="1.1" xmlns="http://www.w3.org/2000/svg" xmlns:xlink="http://www.w3.org/1999/xlink" xmlns:sketch="http://www.bohemiancoding.com/sketch/ns">
    <!-- Generator: Sketch 3.2.2 (9983) - http://www.bohemiancoding.com/sketch -->
    <title>49 - Unprotected System (Flat)</title>
    <desc>Created with Sketch.</desc>
    <defs></defs>
    <g id="Page-1" stroke="none" stroke-width="1" fill="none" fill-rule="evenodd" sketch:type="MSPage">
        <g id="49---Unprotected-System-(Flat)" sketch:type="MSLayerGroup">
            <path d="M22,0 C22,0 15.333,8 0,8 L0,27.085 C0,37.051 4.328,46.662 12.164,52.82 C14.938,55 18.208,56.875 22,58 C25.792,56.875 29.062,55 31.836,52.82 C39.672,46.662 44,37.051 44,27.085 L44,8 C28.667,8 22,0 22,0" id="Fill-102" fill="#556080" sketch:type="MSShapeGroup"></path>
            <path d="M22,51.661 C19.877,50.828 17.822,49.636 15.872,48.103 C9.69,43.245 6,35.388 6,27.085 L6,13.628 C13.391,12.686 18.639,10.114 22,7.831 C25.361,10.114 30.609,12.686 38,13.628 L38,27.085 C38,35.388 34.31,43.245 28.129,48.103 C26.178,49.636 24.123,50.828 22,51.661" id="Fill-103" fill="#F0C419" sketch:type="MSShapeGroup"></path>
            <path d="M13,39 C12.753,39 12.506,38.909 12.312,38.726 C11.911,38.346 11.894,37.713 12.274,37.313 L30.274,18.313 C30.654,17.91 31.287,17.895 31.687,18.274 C32.089,18.654 32.106,19.287 31.726,19.687 L13.726,38.688 C13.529,38.896 13.265,39 13,39" id="Fill-112" fill="#FFFFFF" sketch:type="MSShapeGroup"></path>
            <path d="M32,39 C31.744,39 31.488,38.902 31.293,38.707 L12.293,19.707 C11.902,19.316 11.902,18.684 12.293,18.293 C12.684,17.902 13.316,17.902 13.707,18.293 L32.707,37.293 C33.098,37.684 33.098,38.316 32.707,38.707 C32.512,38.902 32.256,39 32,39" id="Fill-113" fill="#FFFFFF" sketch:type="MSShapeGroup"></path>
        </g>
    </g>
</svg>