<?xml version="1.0" encoding="UTF-8" standalone="no"?>
<svg width="56px" height="51px" viewBox="0 0 56 51" version="1.1" xmlns="http://www.w3.org/2000/svg" xmlns:xlink="http://www.w3.org/1999/xlink" xmlns:sketch="http://www.bohemiancoding.com/sketch/ns">
    <!-- Generator: Sketch 3.2.2 (9983) - http://www.bohemiancoding.com/sketch -->
    <title>13 - Warning (Flat)</title>
    <desc>Created with Sketch.</desc>
    <defs></defs>
    <g id="Page-1" stroke="none" stroke-width="1" fill="none" fill-rule="evenodd" sketch:type="MSPage">
        <g id="13---Warning-(Flat)" sketch:type="MSLayerGroup" transform="translate(0.000000, -1.000000)">
            <path d="M55.862,50.501 C56.251,51.165 55.772,52 55.003,52 L1.401,52 C0.634,52 0.155,51.169 0.539,50.505 L27.172,1.48 C27.554,0.82 28.507,0.817 28.893,1.476 L55.862,50.501" id="Fill-430" fill="#5C6887" sketch:type="MSShapeGroup"></path>
            <path d="M8.61,46.144 L28.062,9.806 L47.761,46.144 L8.61,46.144" id="Fill-431" fill="#F0C419" sketch:type="MSShapeGroup"></path>
            <path d="M28,18 C27.447,18 27,18.447 27,19 L27,36 C27,36.553 27.447,37 28,37 C28.553,37 29,36.553 29,36 L29,19 C29,18.447 28.553,18 28,18" id="Fill-501" fill="#FFFFFF" sketch:type="MSShapeGroup"></path>
            <path d="M28,39 C27.447,39 27,39.447 27,40 L27,42 C27,42.553 27.447,43 28,43 C28.553,43 29,42.553 29,42 L29,40 C29,39.447 28.553,39 28,39" id="Fill-502" fill="#FFFFFF" sketch:type="MSShapeGroup"></path>
        </g>
    </g>
</svg>