<?xml version="1.0" encoding="UTF-8" standalone="no"?>
<svg width="56px" height="49px" viewBox="0 0 56 49" version="1.1" xmlns="http://www.w3.org/2000/svg" xmlns:xlink="http://www.w3.org/1999/xlink" xmlns:sketch="http://www.bohemiancoding.com/sketch/ns">
    <!-- Generator: Sketch 3.2.2 (9983) - http://www.bohemiancoding.com/sketch -->
    <title>21 - All-Seeing Eye (Flat)</title>
    <desc>Created with Sketch.</desc>
    <defs></defs>
    <g id="Page-1" stroke="none" stroke-width="1" fill="none" fill-rule="evenodd" sketch:type="MSPage">
        <g id="21---All-Seeing-Eye-(Flat)" sketch:type="MSLayerGroup" transform="translate(0.000000, -1.000000)">
            <path d="M28,5 L4,47 L53,47 L28,5" id="Fill-19" fill="#F3D55B" sketch:type="MSShapeGroup"></path>
            <path d="M55.862,47.517 L28.893,1.492 C28.507,0.834 27.554,0.836 27.172,1.497 L0.539,47.522 C0.155,48.186 0.634,49.017 1.401,49.017 L55.002,49.017 C55.772,49.017 56.251,48.181 55.862,47.517 L55.862,47.517 Z M6.85,45.017 L28.289,7.966 L50,45.017 L6.85,45.017 L6.85,45.017 Z" id="Fill-541" fill="#556080" sketch:type="MSShapeGroup"></path>
            <path d="M44.941,27.987 L44.941,27.987 C35.568,37.36 20.373,37.36 11,27.987 C20.373,18.615 35.568,18.615 44.941,27.987" id="Fill-542" fill="#E6E7E8" sketch:type="MSShapeGroup"></path>
            <path d="M34,28 C34,31.314 31.314,34 28,34 C24.686,34 22,31.314 22,28 C22,24.686 24.686,22 28,22 C31.314,22 34,24.686 34,28" id="Fill-543" fill="#48A0DC" sketch:type="MSShapeGroup"></path>
            <path d="M31,28 C31,29.657 29.657,31 28,31 C26.343,31 25,29.657 25,28 C25,26.343 26.343,25 28,25 C29.657,25 31,26.343 31,28" id="Fill-544" fill="#556080" sketch:type="MSShapeGroup"></path>
        </g>
    </g>
</svg>