<?xml version="1.0" encoding="UTF-8" standalone="no"?>
<svg width="58px" height="56px" viewBox="0 0 58 56" version="1.1" xmlns="http://www.w3.org/2000/svg" xmlns:xlink="http://www.w3.org/1999/xlink" xmlns:sketch="http://www.bohemiancoding.com/sketch/ns">
    <!-- Generator: Sketch 3.2.2 (9983) - http://www.bohemiancoding.com/sketch -->
    <title>23 - Angel (Flat)</title>
    <desc>Created with Sketch.</desc>
    <defs></defs>
    <g id="Page-1" stroke="none" stroke-width="1" fill="none" fill-rule="evenodd" sketch:type="MSPage">
        <g id="23---Angel-(Flat)" sketch:type="MSLayerGroup">
            <path d="M22.649,18.301 C21.114,16.276 18.602,13.869 13.324,13.09 C8.198,12.334 3.563,16.446 3.987,21.61 C4.108,23.083 4.525,24.789 5.357,26.761 C5.357,26.761 13.749,55.269 0,55.269 C0,55.269 6.985,56.899 13.893,51.381 C16.049,49.658 17.699,47.516 18.868,45.122 C20.451,41.88 20.943,38.213 20.525,34.63 C20.131,31.255 20.049,26.017 22.724,23.342 C24.033,22.033 23.767,19.776 22.649,18.301" id="Fill-170" fill="#ECF0F1" sketch:type="MSShapeGroup"></path>
            <path d="M35.351,18.301 C36.886,16.276 39.398,13.869 44.676,13.09 C49.802,12.334 54.437,16.446 54.013,21.61 C53.892,23.083 53.475,24.789 52.643,26.761 C52.643,26.761 44.251,55.269 58,55.269 C58,55.269 51.015,56.899 44.107,51.381 C41.951,49.658 40.301,47.516 39.132,45.122 C37.549,41.88 37.057,38.213 37.475,34.63 C37.869,31.255 37.951,26.017 35.276,23.342 C33.967,22.033 34.233,19.776 35.351,18.301" id="Fill-171" fill="#ECF0F1" sketch:type="MSShapeGroup"></path>
            <path d="M28.949,0 C20.849,0 14.282,2.686 14.282,6 C14.282,9.314 20.849,12 28.949,12 C37.049,12 43.616,9.314 43.616,6 C43.616,2.686 37.049,0 28.949,0 L28.949,0 Z M38.285,6.347 C36.501,7.159 33.276,8 28.949,8 C24.622,8 21.397,7.159 19.614,6.347 C19.318,6.212 19.318,5.788 19.614,5.653 C21.397,4.841 24.622,4 28.949,4 C33.276,4 36.501,4.841 38.285,5.653 C38.58,5.788 38.58,6.212 38.285,6.347 L38.285,6.347 Z" id="Fill-172" fill="#F3D55B" sketch:type="MSShapeGroup"></path>
        </g>
    </g>
</svg>