<?xml version="1.0" encoding="UTF-8" standalone="no"?>
<svg width="40px" height="56px" viewBox="0 0 40 56" version="1.1" xmlns="http://www.w3.org/2000/svg" xmlns:xlink="http://www.w3.org/1999/xlink" xmlns:sketch="http://www.bohemiancoding.com/sketch/ns">
    <!-- Generator: Sketch 3.2.2 (9983) - http://www.bohemiancoding.com/sketch -->
    <title>45 - Bible (Flat)</title>
    <desc>Created with Sketch.</desc>
    <defs></defs>
    <g id="Page-1" stroke="none" stroke-width="1" fill="none" fill-rule="evenodd" sketch:type="MSPage">
        <g id="45---Bible-(Flat)" sketch:type="MSLayerGroup">
            <path d="M6,6 L3,6 C0.875,6 0,3.828 0,4 L0,44.831 C0,47.133 1.867,49 4.169,49 L40,49 L40,6 L6,6" id="Fill-35" fill="#38454F" sketch:type="MSShapeGroup"></path>
            <path d="M31,18 L23,18 L23,10 L17,10 L17,18 L9,18 L9,24 L17,24 L17.049,45 L23,45 L23,24 L31,24 L31,18" id="Fill-39" fill="#8697CB" sketch:type="MSShapeGroup"></path>
            <path d="M40,6 L3,6 C1.35,6 0,4.65 0,3 C0,1.35 1.35,0 3,0 L40,0 C38,1.5 38,4.5 40,6" id="Fill-81" fill="#CBB292" sketch:type="MSShapeGroup"></path>
            <path d="M15,56 L11.962,52.962 C11.431,52.431 10.569,52.431 10.038,52.962 L7,56 L7,49 L15,49 L15,56" id="Fill-82" fill="#CC4B4C" sketch:type="MSShapeGroup"></path>
            <path d="M38.651,2 L31,2 C30.447,2 30,2.448 30,3 C30,3.552 30.447,4 31,4 L38.651,4 C38.47,3.344 38.47,2.656 38.651,2" id="Fill-523" fill="#7F6E5D" sketch:type="MSShapeGroup"></path>
        </g>
    </g>
</svg>