<?xml version="1.0" encoding="UTF-8" standalone="no"?>
<svg width="58px" height="58px" viewBox="0 0 58 58" version="1.1" xmlns="http://www.w3.org/2000/svg" xmlns:xlink="http://www.w3.org/1999/xlink" xmlns:sketch="http://www.bohemiancoding.com/sketch/ns">
    <!-- Generator: Sketch 3.2.2 (9983) - http://www.bohemiancoding.com/sketch -->
    <title>12 - Buddhism (Flat)</title>
    <desc>Created with Sketch.</desc>
    <defs></defs>
    <g id="Page-1" stroke="none" stroke-width="1" fill="none" fill-rule="evenodd" sketch:type="MSPage">
        <g id="12---Buddhism-(Flat)" sketch:type="MSLayerGroup">
            <path d="M57.907,26.647 C59.316,44.516 44.516,59.316 26.647,57.907 C12.59,56.799 1.201,45.41 0.093,31.353 C-1.316,13.484 13.484,-1.316 31.353,0.093 C45.41,1.201 56.799,12.59 57.907,26.647" id="Fill-10" fill="#E4C05C" sketch:type="MSShapeGroup"></path>
            <path d="M29,48 C28.49,48 27.979,47.98 27.461,47.939 C18.267,47.214 10.786,39.734 10.061,30.539 C9.638,25.168 11.407,20.042 15.045,16.107 C18.979,11.851 24.662,9.599 30.539,10.06 C39.733,10.786 47.214,18.266 47.939,27.461 C48.362,32.833 46.593,37.958 42.955,41.893 C39.368,45.774 34.281,48 29,48 L29,48 Z M29,12 C24.274,12 19.723,13.992 16.514,17.464 C13.259,20.985 11.676,25.573 12.055,30.382 C12.703,38.606 19.395,45.297 27.617,45.945 C32.89,46.359 37.966,44.345 41.486,40.536 C44.741,37.015 46.324,32.427 45.945,27.618 C45.297,19.394 38.605,12.703 30.383,12.055 C29.917,12.018 29.458,12 29,12 L29,12 Z" id="Fill-11" fill="#805333" sketch:type="MSShapeGroup"></path>
            <path d="M21,28.5 C21,27.622 21.159,26.783 21.436,26 L7.588,26 C6.449,26 5.386,26.721 5.091,27.821 C4.645,29.484 5.904,31 7.5,31 L21.436,31 C21.159,30.217 21,29.378 21,28.5" id="Fill-246" fill="#CB8252" sketch:type="MSShapeGroup"></path>
            <path d="M21.919,24.902 C22.731,23.421 24.026,22.244 25.594,21.585 L15.918,11.676 C14.946,10.704 13.355,10.704 12.383,11.676 C11.411,12.648 11.411,14.239 12.383,15.211 L21.919,24.902" id="Fill-247" fill="#CB8252" sketch:type="MSShapeGroup"></path>
            <path d="M28.5,21 C29.378,21 30.217,21.159 31,21.436 L31,7.588 C31,6.449 30.278,5.386 29.179,5.091 C27.516,4.645 26,5.904 26,7.5 L26,21.436 C26.783,21.159 27.622,21 28.5,21" id="Fill-248" fill="#CB8252" sketch:type="MSShapeGroup"></path>
            <path d="M35.411,25.582 L45.617,15.211 C46.589,14.239 46.589,12.648 45.617,11.676 C44.645,10.704 43.054,10.704 42.082,11.676 L31.433,21.596 C33.222,22.357 34.654,23.792 35.411,25.582" id="Fill-249" fill="#CB8252" sketch:type="MSShapeGroup"></path>
            <path d="M35.415,31.406 C34.756,32.974 33.578,34.27 32.097,35.081 L42.789,45.617 C43.761,46.589 45.352,46.589 46.324,45.617 C47.296,44.645 47.296,43.054 46.324,42.081 L35.415,31.406" id="Fill-250" fill="#CB8252" sketch:type="MSShapeGroup"></path>
            <path d="M50.412,26 L35.564,26 C35.841,26.783 36,27.622 36,28.5 C36,29.378 35.841,30.217 35.564,31 L50.5,31 C52.096,31 53.355,29.484 52.909,27.821 C52.614,26.721 51.551,26 50.412,26" id="Fill-251" fill="#CB8252" sketch:type="MSShapeGroup"></path>
            <path d="M28.5,36 C27.622,36 26.783,35.841 26,35.564 L26,50.412 C26,51.551 26.722,52.614 27.821,52.909 C29.484,53.355 31,52.096 31,50.5 L31,35.564 C30.217,35.841 29.378,36 28.5,36" id="Fill-252" fill="#CB8252" sketch:type="MSShapeGroup"></path>
            <path d="M21.904,32.072 L11.676,42.081 C10.703,43.054 10.703,44.645 11.676,45.617 C12.648,46.589 14.239,46.589 15.211,45.617 L24.965,35.114 C23.672,34.421 22.604,33.362 21.904,32.072" id="Fill-253" fill="#CB8252" sketch:type="MSShapeGroup"></path>
        </g>
    </g>
</svg>