<?xml version="1.0" encoding="UTF-8" standalone="no"?>
<svg width="55px" height="55px" viewBox="0 0 55 55" version="1.1" xmlns="http://www.w3.org/2000/svg" xmlns:xlink="http://www.w3.org/1999/xlink" xmlns:sketch="http://www.bohemiancoding.com/sketch/ns">
    <!-- Generator: Sketch 3.2.2 (9983) - http://www.bohemiancoding.com/sketch -->
    <title>9 - Buddhist Beads (Flat)</title>
    <desc>Created with Sketch.</desc>
    <defs></defs>
    <g id="Page-1" stroke="none" stroke-width="1" fill="none" fill-rule="evenodd" sketch:type="MSPage">
        <g id="9---Buddhist-Beads-(Flat)" sketch:type="MSLayerGroup">
            <path d="M28,50 C15.869,50 6,39.906 6,27.5 C6,15.094 15.869,5 28,5 C40.131,5 50,15.094 50,27.5 C50,39.906 40.131,50 28,50 L28,50 Z M28,7 C16.972,7 8,16.196 8,27.5 C8,38.804 16.972,48 28,48 C39.028,48 48,38.804 48,27.5 C48,16.196 39.028,7 28,7 L28,7 Z" id="Fill-3" fill="#CBB292" sketch:type="MSShapeGroup"></path>
            <path d="M34,6 C34,9.314 31.314,12 28,12 C24.686,12 22,9.314 22,6 C22,2.686 24.686,0 28,0 C31.314,0 34,2.686 34,6" id="Fill-271" fill="#7F5B53" sketch:type="MSShapeGroup"></path>
            <path d="M34,49 C34,52.314 31.314,55 28,55 C24.686,55 22,52.314 22,49 C22,45.686 24.686,43 28,43 C31.314,43 34,45.686 34,49" id="Fill-272" fill="#7F5B53" sketch:type="MSShapeGroup"></path>
            <path d="M49,33.5 C45.686,33.5 43,30.814 43,27.5 C43,24.186 45.686,21.5 49,21.5 C52.314,21.5 55,24.186 55,27.5 C55,30.814 52.314,33.5 49,33.5" id="Fill-273" fill="#7F5B53" sketch:type="MSShapeGroup"></path>
            <path d="M6,33.5 C2.686,33.5 0,30.814 0,27.5 C0,24.186 2.686,21.5 6,21.5 C9.314,21.5 12,24.186 12,27.5 C12,30.814 9.314,33.5 6,33.5" id="Fill-274" fill="#7F5B53" sketch:type="MSShapeGroup"></path>
            <path d="M16.893,7.701 C19.237,10.044 19.237,13.843 16.893,16.186 C14.55,18.529 10.751,18.529 8.408,16.186 C6.065,13.843 6.065,10.044 8.408,7.701 C10.751,5.358 14.55,5.358 16.893,7.701" id="Fill-275" fill="#CB8252" sketch:type="MSShapeGroup"></path>
            <path d="M47.299,38.107 C49.642,40.45 49.642,44.249 47.299,46.592 C44.956,48.935 41.157,48.935 38.814,46.592 C36.471,44.249 36.471,40.45 38.814,38.107 C41.157,35.763 44.956,35.763 47.299,38.107" id="Fill-276" fill="#CB8252" sketch:type="MSShapeGroup"></path>
            <path d="M46.945,16.54 C44.602,18.883 40.803,18.883 38.46,16.54 C36.117,14.197 36.117,10.398 38.46,8.055 C40.803,5.711 44.602,5.711 46.945,8.055 C49.289,10.398 49.289,14.197 46.945,16.54" id="Fill-277" fill="#CB8252" sketch:type="MSShapeGroup"></path>
            <path d="M16.54,46.945 C14.197,49.289 10.398,49.289 8.055,46.945 C5.711,44.602 5.711,40.803 8.055,38.46 C10.398,36.117 14.197,36.117 16.54,38.46 C18.883,40.803 18.883,44.602 16.54,46.945" id="Fill-278" fill="#CB8252" sketch:type="MSShapeGroup"></path>
        </g>
    </g>
</svg>