<?xml version="1.0" encoding="UTF-8" standalone="no"?>
<svg width="62px" height="55px" viewBox="0 0 62 55" version="1.1" xmlns="http://www.w3.org/2000/svg" xmlns:xlink="http://www.w3.org/1999/xlink" xmlns:sketch="http://www.bohemiancoding.com/sketch/ns">
    <!-- Generator: Sketch 3.2.2 (9983) - http://www.bohemiancoding.com/sketch -->
    <title>5 - Buddhist Temple (Flat)</title>
    <desc>Created with Sketch.</desc>
    <defs></defs>
    <g id="Page-1" stroke="none" stroke-width="1" fill="none" fill-rule="evenodd" sketch:type="MSPage">
        <g id="5---Buddhist-Temple-(Flat)" sketch:type="MSLayerGroup">
            <path d="M6,30 L56,30 L56,49 L6,49 L6,30 Z" id="Fill-449" fill="#ECF0F1" sketch:type="MSShapeGroup"></path>
            <path d="M50.172,20 L10.828,20 C9.017,20 7.281,19.281 6,18 L11.027,15.766 C13.632,14.608 15.898,12.803 17.609,10.522 L18,10 L42,10 C43.953,12.804 46.719,14.942 49.924,16.126 L55,18 C53.719,19.281 51.983,20 50.172,20" id="Fill-450" fill="#AF8066" sketch:type="MSShapeGroup"></path>
            <path d="M47.172,10 L13.828,10 C12.017,10 10.281,9.281 9,8 L14.027,5.766 C16.632,4.608 18.898,2.803 20.609,0.522 L21,0 L39,0 C40.953,2.804 43.719,4.942 46.924,6.126 L52,8 C50.719,9.281 48.983,10 47.172,10" id="Fill-451" fill="#CBB292" sketch:type="MSShapeGroup"></path>
            <path d="M55.172,30 L6.828,30 C5.017,30 3.281,29.281 2,28 L7.027,25.766 C9.632,24.608 11.898,22.803 13.609,20.522 L14,20 L47,20 C48.953,22.804 51.719,24.942 54.924,26.126 L60,28 C58.719,29.281 56.983,30 55.172,30" id="Fill-452" fill="#CB8252" sketch:type="MSShapeGroup"></path>
            <path d="M21,49 L12,49 L12,38.229 C12,36.446 13.446,35 15.229,35 L17.771,35 C19.554,35 21,36.446 21,38.229 L21,49" id="Fill-453" fill="#CBB292" sketch:type="MSShapeGroup"></path>
            <path d="M36,49 L26,49 L26,38.229 C26,36.446 27.446,35 29.229,35 L32.771,35 C34.554,35 36,36.446 36,38.229 L36,49" id="Fill-454" fill="#CBB292" sketch:type="MSShapeGroup"></path>
            <path d="M50,49 L41,49 L41,38.229 C41,36.446 42.446,35 44.229,35 L46.771,35 C48.554,35 50,36.446 50,38.229 L50,49" id="Fill-455" fill="#CBB292" sketch:type="MSShapeGroup"></path>
            <path d="M3,49 L59,49 L59,52 L3,52 L3,49 Z" id="Fill-548" fill="#F6EFCA" sketch:type="MSShapeGroup"></path>
            <path d="M0,52 L62,52 L62,55 L0,55 L0,52 Z" id="Fill-549" fill="#BDC3C7" sketch:type="MSShapeGroup"></path>
        </g>
    </g>
</svg>