<?xml version="1.0" encoding="UTF-8" standalone="no"?>
<svg width="58px" height="59px" viewBox="0 0 58 59" version="1.1" xmlns="http://www.w3.org/2000/svg" xmlns:xlink="http://www.w3.org/1999/xlink" xmlns:sketch="http://www.bohemiancoding.com/sketch/ns">
    <!-- Generator: Sketch 3.2.2 (9983) - http://www.bohemiancoding.com/sketch -->
    <title>31 - Candles (Flat)</title>
    <desc>Created with Sketch.</desc>
    <defs></defs>
    <g id="Page-1" stroke="none" stroke-width="1" fill="none" fill-rule="evenodd" sketch:type="MSPage">
        <g id="31---Candles-(Flat)" sketch:type="MSLayerGroup">
            <path d="M19,58 L0,58 L0,35.152 C0,33.411 1.411,32 3.152,32 L15.848,32 C17.589,32 19,33.411 19,35.152 L19,58" id="Fill-139" fill="#FDD7AD" sketch:type="MSShapeGroup"></path>
            <path d="M58,58 L37,58 L37,35.152 C37,33.411 38.411,32 40.152,32 L54.848,32 C56.589,32 58,33.411 58,35.152 L58,58" id="Fill-140" fill="#FDD7AD" sketch:type="MSShapeGroup"></path>
            <path d="M48.218,10 C48.218,10 51.49,16.462 53.49,20.923 C55.165,24.659 52.52,28.951 48.426,28.999 C48.357,29 48.288,29 48.218,29 L48.219,29 C48.149,29 48.08,29 48.011,28.999 C43.917,28.951 41.215,24.669 42.878,20.928 C44.871,16.446 48.219,10 48.219,10 L48.218,10" id="Fill-141" fill="#F0C419" sketch:type="MSShapeGroup"></path>
            <path d="M9.218,10 C9.218,10 12.49,16.462 14.49,20.923 C16.165,24.659 13.52,28.951 9.426,28.999 C9.357,29 9.288,29 9.218,29 L9.219,29 C9.149,29 9.08,29 9.011,28.999 C4.917,28.951 2.215,24.669 3.878,20.928 C5.871,16.446 9.219,10 9.219,10 L9.218,10" id="Fill-142" fill="#F0C419" sketch:type="MSShapeGroup"></path>
            <path d="M9.249,28.999 C8.202,28.987 7.631,28.338 7.384,27.952 C7.177,27.63 6.745,26.768 7.203,25.736 C7.853,24.275 8.623,22.636 9.409,21.004 C10.185,22.633 10.951,24.273 11.611,25.746 C12.085,26.802 11.654,27.669 11.447,27.995 C11.21,28.365 10.665,28.987 9.664,28.999 L9.451,29 L9.249,28.999" id="Fill-143" fill="#E57E25" sketch:type="MSShapeGroup"></path>
            <path d="M48.249,28.999 C47.202,28.987 46.631,28.338 46.384,27.952 C46.177,27.63 45.745,26.768 46.203,25.736 C46.853,24.275 47.623,22.636 48.409,21.004 C49.185,22.633 49.951,24.273 50.611,25.746 C51.085,26.802 50.654,27.669 50.447,27.995 C50.21,28.365 49.665,28.987 48.664,28.999 L48.451,29 L48.249,28.999" id="Fill-144" fill="#E57E25" sketch:type="MSShapeGroup"></path>
            <path d="M27.374,11.994 C25.803,11.977 24.947,11.004 24.576,10.423 C24.266,9.941 23.617,8.647 24.305,7.1 C25.28,4.908 26.434,2.448 27.614,0 C28.779,2.444 29.927,4.904 30.918,7.114 C31.629,8.698 30.982,9.999 30.672,10.488 C30.316,11.043 29.498,11.977 27.997,11.994 L27.677,11.996 L27.374,11.994" id="Fill-145" fill="#F0C419" sketch:type="MSShapeGroup"></path>
            <path d="M35.014,27 C34.496,26.928 33,25.258 33,23 L33,16.457 C33,14.846 31.691,13.535 30.082,13.535 C29.844,13.535 29.604,13.565 29.37,13.623 L25.214,14.662 C23.91,14.988 23,16.153 23,17.497 L23,19 C23,21.258 21.504,22.928 21,23 C20.447,23 20,23.448 20,24 C20,24.552 20.447,25 21,25 C21.656,25 22.364,24.629 23,24.006 L23,26 C23,28.258 21.504,29.928 21,30 C20.447,30 20,30.448 20,31 C20,31.552 20.447,32 21,32 C21.656,32 22.364,31.629 23,31.006 L23,59 L33,59 L33,28.006 C33.636,28.629 34.344,29 35,29 C35.553,29 36.007,28.553 36.007,28 C36.007,27.448 35.565,27 35.014,27" id="Fill-146" fill="#FDD7AD" sketch:type="MSShapeGroup"></path>
            <path d="M0.104,34.389 C1.26,37.105 1.522,39.998 1.062,42.852 C0.887,43.933 0.83,44.845 2.468,44.845 C2.468,44.845 5.732,45.244 5.927,39.857 C5.941,39.466 6.188,39.094 6.614,38.897 C7.031,38.706 7.615,38.564 8.295,38.754 C8.96,38.94 9.341,39.5 9.197,40.048 C8.809,41.533 8.204,44.849 10.559,44.849 C10.559,44.849 12.627,45.635 12.851,40.318 C12.878,39.697 13.438,39.158 14.209,39.051 C14.321,39.036 14.437,39.022 14.554,39.011 C15.572,38.918 16.436,39.605 16.394,40.417 C16.351,41.233 16.312,42.329 16.363,43.014 C16.425,43.84 17.768,44.466 19,44.583 L19,35.152 C19,33.411 17.589,32 15.848,32 L3.152,32 C1.676,32 0.446,33.019 0.104,34.389" id="Fill-147" fill="#FAC176" sketch:type="MSShapeGroup"></path>
            <path d="M39.262,43.014 C39.324,42.329 39.277,41.233 39.225,40.417 C39.174,39.605 40.223,38.918 41.459,39.011 C41.601,39.022 41.741,39.036 41.878,39.051 C42.814,39.158 43.494,39.697 43.526,40.318 C43.798,45.635 46.309,44.849 46.309,44.849 C49.168,44.849 48.434,41.533 47.962,40.048 C47.788,39.5 48.25,38.94 49.057,38.754 C49.884,38.564 50.593,38.706 51.099,38.897 C51.616,39.094 51.916,39.466 51.933,39.857 C52.169,45.244 56.133,44.845 56.133,44.845 C58.121,44.845 58.052,43.933 57.84,42.852 C57.459,40.908 57.499,38.948 58,37.036 L58,35.152 C58,33.411 56.589,32 54.848,32 L40.302,32 C38.479,32 37.001,33.41 37,35.15 L37,35.152 L37,44.441 C38.169,44.19 39.203,43.667 39.262,43.014" id="Fill-148" fill="#FAC176" sketch:type="MSShapeGroup"></path>
        </g>
    </g>
</svg>