<?xml version="1.0" encoding="UTF-8" standalone="no"?>
<svg width="32px" height="60px" viewBox="0 0 32 60" version="1.1" xmlns="http://www.w3.org/2000/svg" xmlns:xlink="http://www.w3.org/1999/xlink" xmlns:sketch="http://www.bohemiancoding.com/sketch/ns">
    <!-- Generator: Sketch 3.2.2 (9983) - http://www.bohemiancoding.com/sketch -->
    <title>8 - Cathedral Window (Flat)</title>
    <desc>Created with Sketch.</desc>
    <defs></defs>
    <g id="Page-1" stroke="none" stroke-width="1" fill="none" fill-rule="evenodd" sketch:type="MSPage">
        <g id="8---Cathedral-Window-(Flat)" sketch:type="MSLayerGroup">
            <path d="M26,28 C26,28.551 25.554,28.998 25.002,29 L20.034,29.013 L24.167,34.419 L30,28.586 L30,22.684 C30,21.971 29.941,21.263 29.854,20.56 L26,24.414 L26,28" id="Fill-305" fill="#8697CB" sketch:type="MSShapeGroup"></path>
            <path d="M17.669,17 L24.595,10.075 C24.372,9.869 24.135,9.658 23.88,9.44 L17,3.245 L17,17 L17.669,17" id="Fill-306" fill="#90BAE1" sketch:type="MSShapeGroup"></path>
            <path d="M19.003,23 L24.586,23 L29.404,18.182 C28.784,15.852 27.693,13.654 26.181,11.754 C26.118,11.675 26.047,11.596 25.981,11.517 L19.017,18.481 L19.003,23" id="Fill-307" fill="#CC66A1" sketch:type="MSShapeGroup"></path>
            <path d="M15,17 L15,3.253 L8.138,9.423 C7.892,9.634 7.663,9.837 7.448,10.034 L14.414,17 L15,17" id="Fill-308" fill="#A4E869" sketch:type="MSShapeGroup"></path>
            <path d="M13,23 L13,18.414 L6.057,11.472 C5.978,11.565 5.894,11.659 5.82,11.753 C4.307,13.653 3.216,15.852 2.596,18.182 L7.414,23 L13,23" id="Fill-309" fill="#F29C1F" sketch:type="MSShapeGroup"></path>
            <path d="M2,28.586 L7.833,34.419 L11.972,29.006 L7.002,29.019 L7,29.019 C6.735,29.019 6.481,28.914 6.294,28.727 C6.106,28.539 6,28.284 6,28.019 L6,24.414 L2.146,20.56 C2.059,21.263 2,21.971 2,22.684 L2,28.586" id="Fill-310" fill="#71C285" sketch:type="MSShapeGroup"></path>
            <path d="M30,42.046 L30,31.414 L25.393,36.021 L30,42.046" id="Fill-311" fill="#26B99A" sketch:type="MSShapeGroup"></path>
            <path d="M13,30.954 L9.259,35.845 L13,39.586 L13,30.954" id="Fill-312" fill="#E59EE5" sketch:type="MSShapeGroup"></path>
            <path d="M19.326,42.088 L30,56.046 L30,45.339 L23.966,37.448 L19.326,42.088" id="Fill-313" fill="#F0785A" sketch:type="MSShapeGroup"></path>
            <path d="M2,31.414 L2,42.046 L6.607,36.021 L2,31.414" id="Fill-314" fill="#3B97D3" sketch:type="MSShapeGroup"></path>
            <path d="M17,43 L17,58 L28.976,58 L17.506,43 L17,43" id="Fill-315" fill="#F3D55B" sketch:type="MSShapeGroup"></path>
            <path d="M14.494,43 L3.024,58 L15,58 L15,43 L14.494,43" id="Fill-316" fill="#3B97D3" sketch:type="MSShapeGroup"></path>
            <path d="M8.034,37.448 L2,45.339 L2,56.046 L12.674,42.088 L8.034,37.448" id="Fill-317" fill="#F6EFCA" sketch:type="MSShapeGroup"></path>
            <path d="M22.74,35.845 L19.018,30.978 L19.018,39.568 L22.74,35.845" id="Fill-318" fill="#B49ACA" sketch:type="MSShapeGroup"></path>
            <path d="M1,28 L1,22.684 C1,21.666 1.088,20.657 1.251,19.666 L0.775,19.19 C0.512,18.926 0.442,18.556 0.533,18.221 C0.19,19.679 0,21.175 0,22.684 L0,29 C0,28.744 0.098,28.488 0.293,28.293 C0.488,28.098 0.744,28 1,28" id="Fill-319" fill="#556080" sketch:type="MSShapeGroup"></path>
            <path d="M29.741,59 L17,59 C17,59.553 16.552,60 16,60 L31.001,60 C30.7,60 30.402,59.865 30.206,59.607 L29.741,59" id="Fill-320" fill="#556080" sketch:type="MSShapeGroup"></path>
            <path d="M31,30.414 L31,43.354 L31.794,44.393 C32.13,44.831 32.046,45.459 31.607,45.794 C31.426,45.933 31.212,46 31.001,46 L31,46 L31,57.354 L31.794,58.393 C32.13,58.831 32.046,59.459 31.607,59.794 C31.426,59.933 31.212,60 31.001,60 L32,60 L32,29 C32,29.256 31.902,29.512 31.707,29.707 L31,30.414" id="Fill-321" fill="#556080" sketch:type="MSShapeGroup"></path>
            <path d="M27.746,10.509 C27.079,9.67 26.264,8.848 25.2,7.937 L17.343,0.863 C16.605,0.199 15.394,0.199 14.657,0.863 L6.819,7.92 C5.736,8.848 4.921,9.67 4.255,10.508 C2.476,12.742 1.226,15.347 0.559,18.101 C0.608,17.983 0.679,17.872 0.775,17.775 C1.039,17.512 1.409,17.442 1.744,17.533 C2.415,15.215 3.522,13.034 5.037,11.13 C5.138,11.004 5.257,10.893 5.362,10.77 C4.99,10.378 4.992,9.761 5.376,9.377 C5.753,9 6.35,8.996 6.743,9.345 C6.984,9.122 7.22,8.893 7.469,8.679 L15.025,1.878 C15.087,1.386 15.491,1 16,1 C16.509,1 16.913,1.386 16.975,1.878 L24.531,8.679 C24.792,8.903 25.04,9.143 25.292,9.377 L25.293,9.377 C25.684,8.986 26.316,8.986 26.707,9.377 C27.098,9.768 27.098,10.4 26.707,10.791 L26.681,10.817 C26.772,10.924 26.875,11.02 26.963,11.13 C28.486,13.044 29.596,15.236 30.266,17.568 C30.586,17.499 30.931,17.571 31.18,17.82 C31.57,18.211 31.57,18.844 31.18,19.234 L30.749,19.666 C30.912,20.657 31,21.666 31,22.684 L31,28 C31.256,28 31.512,28.098 31.707,28.293 C31.902,28.488 32,28.744 32,29 L32,22.684 C32,18.277 30.489,13.954 27.746,10.509" id="Fill-322" fill="#556080" sketch:type="MSShapeGroup"></path>
            <path d="M15,59 L2.259,59 L1.794,59.607 C1.598,59.865 1.3,60 0.999,60 L16,60 C15.448,60 15,59.553 15,59" id="Fill-323" fill="#556080" sketch:type="MSShapeGroup"></path>
            <path d="M0.206,58.393 L1,57.354 L1,46 L0.999,46 C0.788,46 0.574,45.933 0.393,45.794 C-0.046,45.459 -0.13,44.831 0.206,44.393 L1,43.354 L1,30.414 L0.293,29.707 C0.098,29.512 0,29.256 0,29 L0,60 L0.999,60 C0.788,60 0.574,59.933 0.393,59.794 C-0.046,59.459 -0.13,58.831 0.206,58.393" id="Fill-324" fill="#556080" sketch:type="MSShapeGroup"></path>
            <path d="M3.024,58 L2.259,59 L15,59 L15,58 L3.024,58" id="Fill-325" fill="#556080" sketch:type="MSShapeGroup"></path>
            <path d="M17,58 L17,59 L29.741,59 L28.976,58 L17,58" id="Fill-326" fill="#556080" sketch:type="MSShapeGroup"></path>
            <path d="M2,31.414 L1,30.414 L1,43.354 L2,42.046 L2,31.414" id="Fill-327" fill="#556080" sketch:type="MSShapeGroup"></path>
            <path d="M2,45.339 L1.794,45.607 C1.598,45.865 1.301,46 1,46 L1,57.354 L2,56.046 L2,45.339" id="Fill-328" fill="#556080" sketch:type="MSShapeGroup"></path>
            <path d="M2,28.586 L2,22.684 C2,21.971 2.059,21.263 2.146,20.56 L1.251,19.666 C1.088,20.657 1,21.666 1,22.684 L1,28 C1.256,28 1.512,28.098 1.707,28.293 L2,28.586" id="Fill-329" fill="#556080" sketch:type="MSShapeGroup"></path>
            <path d="M2.596,18.182 C3.216,15.852 4.307,13.653 5.82,11.753 C5.894,11.659 5.978,11.565 6.057,11.472 L5.376,10.791 C5.37,10.785 5.368,10.776 5.362,10.77 C5.257,10.893 5.138,11.004 5.037,11.13 C3.522,13.034 2.415,15.215 1.744,17.533 C1.906,17.578 2.062,17.648 2.189,17.775 L2.596,18.182" id="Fill-330" fill="#556080" sketch:type="MSShapeGroup"></path>
            <path d="M30,45.339 L30,56.046 L31,57.354 L31,46 C30.699,46 30.402,45.865 30.206,45.607 L30,45.339" id="Fill-331" fill="#556080" sketch:type="MSShapeGroup"></path>
            <path d="M26.181,11.754 C27.693,13.654 28.784,15.852 29.404,18.182 L29.766,17.82 C29.907,17.679 30.084,17.606 30.266,17.568 C29.596,15.236 28.486,13.044 26.963,11.13 C26.875,11.02 26.772,10.924 26.681,10.817 L25.981,11.517 C26.047,11.596 26.118,11.675 26.181,11.754" id="Fill-332" fill="#556080" sketch:type="MSShapeGroup"></path>
            <path d="M7.448,10.034 C7.663,9.837 7.892,9.634 8.138,9.423 L15,3.253 L15,2 C15,1.957 15.019,1.92 15.025,1.878 L7.469,8.679 C7.22,8.893 6.984,9.122 6.743,9.345 C6.757,9.358 6.776,9.363 6.79,9.377 L7.448,10.034" id="Fill-333" fill="#556080" sketch:type="MSShapeGroup"></path>
            <path d="M17,3.245 L23.88,9.44 C24.135,9.658 24.372,9.869 24.595,10.075 L25.292,9.377 C25.04,9.143 24.792,8.903 24.531,8.679 L16.975,1.878 C16.981,1.92 17,1.957 17,2 L17,3.245" id="Fill-334" fill="#556080" sketch:type="MSShapeGroup"></path>
            <path d="M30,22.684 L30,28.586 L30.293,28.293 C30.488,28.098 30.744,28 31,28 L31,22.684 C31,21.666 30.912,20.657 30.749,19.666 L29.854,20.56 C29.941,21.263 30,21.971 30,22.684" id="Fill-335" fill="#556080" sketch:type="MSShapeGroup"></path>
            <path d="M30,42.046 L31,43.354 L31,30.414 L30,31.414 L30,42.046" id="Fill-336" fill="#556080" sketch:type="MSShapeGroup"></path>
            <path d="M17.018,28.025 C17.01,27.716 17.128,27.408 17.393,27.206 C17.621,27.031 17.899,26.975 18.162,27.018 L24,27.003 L24,25 L18,25 C17.734,25 17.479,24.894 17.292,24.706 C17.104,24.518 16.999,24.263 17,23.997 L17.015,19 L15,19 L15,24 C15,24.553 14.552,25 14,25 L8,25 L8,27.016 L13.998,27 L14,27 C14.041,27 14.077,27.018 14.117,27.023 C14.184,27.031 14.248,27.04 14.313,27.062 C14.378,27.084 14.435,27.116 14.495,27.151 C14.531,27.172 14.573,27.179 14.607,27.206 C14.625,27.22 14.633,27.24 14.65,27.254 C14.667,27.269 14.69,27.276 14.706,27.292 C14.739,27.325 14.754,27.369 14.782,27.405 C14.822,27.458 14.861,27.508 14.89,27.566 C14.917,27.622 14.931,27.679 14.948,27.739 C14.966,27.805 14.983,27.868 14.987,27.936 C14.989,27.958 15,27.978 15,28 L15,41 L17.018,41 L17.018,28.025" id="Fill-337" fill="#F0C419" sketch:type="MSShapeGroup"></path>
            <path d="M14.976,42.123 C14.968,42.187 14.96,42.247 14.94,42.309 C14.919,42.372 14.887,42.428 14.853,42.487 C14.831,42.526 14.823,42.57 14.794,42.607 L14.494,43 L15,43 L15,42 C15,42.042 14.981,42.081 14.976,42.123" id="Fill-338" fill="#556080" sketch:type="MSShapeGroup"></path>
            <path d="M25,25 L25,28 L19.27,28.015 L20.034,29.013 L25.002,29 C25.554,28.998 26,28.551 26,28 L26,24.414 L25.707,24.707 C25.512,24.902 25.256,25 25,25" id="Fill-339" fill="#556080" sketch:type="MSShapeGroup"></path>
            <path d="M17.147,42.487 C17.113,42.428 17.081,42.372 17.06,42.309 C17.04,42.247 17.032,42.187 17.024,42.123 C17.019,42.081 17,42.042 17,42 L17,43 L17.506,43 L17.206,42.607 C17.177,42.57 17.169,42.526 17.147,42.487" id="Fill-340" fill="#556080" sketch:type="MSShapeGroup"></path>
            <path d="M8,24 L14,24 L14,19 C13.744,19 13.488,18.902 13.293,18.707 L13,18.414 L13,23 L7.414,23 L7.707,23.293 C7.902,23.488 8,23.744 8,24" id="Fill-341" fill="#556080" sketch:type="MSShapeGroup"></path>
            <path d="M7,28.018 L7,25 C6.744,25 6.488,24.902 6.293,24.707 L6,24.414 L6,28.019 C6,28.284 6.106,28.539 6.294,28.727 C6.481,28.914 6.735,29.019 7,29.019 L7.002,29.019 L11.972,29.006 L12.739,28.003 L7,28.018" id="Fill-342" fill="#556080" sketch:type="MSShapeGroup"></path>
            <path d="M14,40.586 L14,29.646 L13,30.954 L13,39.586 L14,40.586" id="Fill-343" fill="#556080" sketch:type="MSShapeGroup"></path>
            <path d="M15,18 L15,17 L14.414,17 L14.707,17.293 C14.902,17.488 15,17.744 15,18" id="Fill-344" fill="#556080" sketch:type="MSShapeGroup"></path>
            <path d="M17.083,18 C17.083,17.744 17.181,17.488 17.376,17.293 L17.669,17 L17,17 L17,18 L17.083,18" id="Fill-345" fill="#556080" sketch:type="MSShapeGroup"></path>
            <path d="M18.083,19 C18.06,19 18.038,18.988 18.015,18.987 L18,24 L24,24 C24,23.744 24.098,23.488 24.293,23.293 L24.586,23 L19.003,23 L19.017,18.481 L18.79,18.707 C18.595,18.902 18.339,19 18.083,19" id="Fill-346" fill="#556080" sketch:type="MSShapeGroup"></path>
            <path d="M19.018,39.568 L19.018,30.978 L18.018,29.67 L18.018,40.568 L19.018,39.568" id="Fill-347" fill="#556080" sketch:type="MSShapeGroup"></path>
            <path d="M14.495,27.151 C14.435,27.116 14.378,27.084 14.313,27.062 C14.376,27.083 14.435,27.116 14.495,27.151" id="Fill-348" fill="#556080" sketch:type="MSShapeGroup"></path>
            <path d="M14.117,27.023 C14.077,27.018 14.041,27 14,27 L13.998,27 L8,27.016 L8,25 L14,25 C14.552,25 15,24.553 15,24 L15,19 L16,19 C15.448,19 15,18.553 15,18 C15,18.256 14.902,18.512 14.707,18.707 C14.512,18.902 14.256,19 14,19 L14,24 L8,24 C8,24.256 7.902,24.512 7.707,24.707 C7.512,24.902 7.256,25 7,25 L7,28.018 L12.739,28.003 L13.206,27.393 C13.428,27.101 13.778,26.983 14.117,27.023" id="Fill-349" fill="#556080" sketch:type="MSShapeGroup"></path>
            <path d="M14.707,41.293 C14.74,41.326 14.753,41.368 14.781,41.404 C14.822,41.458 14.862,41.51 14.891,41.57 C14.919,41.628 14.935,41.687 14.951,41.748 C14.967,41.81 14.983,41.87 14.987,41.935 C14.989,41.957 15,41.978 15,42 C15,41.447 15.448,41 16,41 L15,41 L15,28 C15,27.978 14.989,27.958 14.987,27.936 C15.002,28.169 14.947,28.408 14.794,28.607 L14,29.646 L14,40.586 L14.707,41.293" id="Fill-350" fill="#556080" sketch:type="MSShapeGroup"></path>
            <path d="M16,19 L17.015,19 L17,23.997 C16.999,24.263 17.104,24.518 17.292,24.706 C17.479,24.894 17.734,25 18,25 L24,25 L24,27.003 L18.162,27.018 C18.404,27.058 18.634,27.182 18.794,27.393 L19.27,28.015 L25,28 L25,25 C24.744,25 24.488,24.902 24.293,24.707 C24.098,24.512 24,24.256 24,24 L18,24 L18.015,18.987 C17.783,18.971 17.554,18.885 17.376,18.707 C17.181,18.512 17.083,18.256 17.083,18 L17,18 C17,18.553 16.552,19 16,19" id="Fill-351" fill="#556080" sketch:type="MSShapeGroup"></path>
            <path d="M14.948,27.739 C14.931,27.679 14.917,27.622 14.89,27.566 C14.917,27.622 14.932,27.68 14.948,27.739" id="Fill-352" fill="#556080" sketch:type="MSShapeGroup"></path>
            <path d="M17.018,28.025 L17.018,41 L16,41 C16.552,41 17,41.447 17,42 C17,41.978 17.011,41.957 17.013,41.935 C17.017,41.87 17.033,41.81 17.049,41.748 C17.065,41.687 17.081,41.628 17.109,41.57 C17.138,41.51 17.178,41.458 17.219,41.404 C17.247,41.368 17.26,41.326 17.293,41.293 L18.018,40.568 L18.018,29.67 L17.206,28.607 C17.072,28.433 17.023,28.229 17.018,28.025" id="Fill-353" fill="#556080" sketch:type="MSShapeGroup"></path>
            <path d="M14.65,27.254 C14.701,27.3 14.742,27.352 14.782,27.405 C14.754,27.369 14.739,27.325 14.706,27.292 C14.69,27.276 14.667,27.269 14.65,27.254" id="Fill-354" fill="#556080" sketch:type="MSShapeGroup"></path>
            <path d="M17,17 L17,3.245 L16.005,2.35 L15,3.253 L15,17 L17,17" id="Fill-355" fill="#556080" sketch:type="MSShapeGroup"></path>
            <path d="M16.674,1.607 L16.975,1.878 C16.913,1.386 16.509,1 16,1 C15.491,1 15.087,1.386 15.025,1.878 L15.326,1.607 C15.709,1.262 16.291,1.262 16.674,1.607" id="Fill-356" fill="#556080" sketch:type="MSShapeGroup"></path>
            <path d="M15,3.253 L16.005,2.35 L17,3.245 L17,2 C17,1.957 16.981,1.92 16.975,1.878 L16.674,1.607 C16.291,1.262 15.709,1.262 15.326,1.607 L15.025,1.878 C15.019,1.92 15,1.957 15,2 L15,3.253" id="Fill-357" fill="#556080" sketch:type="MSShapeGroup"></path>
            <path d="M15,17 L17,17 L17,18 L15,18 L15,17 Z" id="Fill-358" fill="#556080" sketch:type="MSShapeGroup"></path>
            <path d="M16,19 C16.552,19 17,18.553 17,18 L15,18 C15,18.553 15.448,19 16,19" id="Fill-359" fill="#556080" sketch:type="MSShapeGroup"></path>
            <path d="M15,43 L17,43 L17,58 L15,58 L15,43 Z" id="Fill-360" fill="#556080" sketch:type="MSShapeGroup"></path>
            <path d="M17,59 L15,59 C15,59.553 15.448,60 16,60 C16.552,60 17,59.553 17,59" id="Fill-361" fill="#556080" sketch:type="MSShapeGroup"></path>
            <path d="M15,59 L17,59 L17,58 L15,58 L15,59 Z" id="Fill-362" fill="#556080" sketch:type="MSShapeGroup"></path>
            <path d="M15,42 L17,42 L17,43 L15,43 L15,42 Z" id="Fill-363" fill="#556080" sketch:type="MSShapeGroup"></path>
            <path d="M16,41 C15.448,41 15,41.447 15,42 L17,42 C17,41.447 16.552,41 16,41" id="Fill-364" fill="#556080" sketch:type="MSShapeGroup"></path>
            <path d="M14,43 C13.87,43 13.74,42.973 13.618,42.923 C13.495,42.872 13.385,42.799 13.292,42.706 L12.674,42.088 L2,56.046 L2,58 L3.024,58 L14.494,43 L14,43" id="Fill-365" fill="#556080" sketch:type="MSShapeGroup"></path>
            <path d="M2.259,59 L1,59 L1,57.354 L0.206,58.393 C-0.13,58.831 -0.046,59.459 0.393,59.794 C0.574,59.933 0.788,60 0.999,60 C1.3,60 1.598,59.865 1.794,59.607 L2.259,59" id="Fill-366" fill="#556080" sketch:type="MSShapeGroup"></path>
            <path d="M2,58 L2,56.046 L1,57.354 L1,59 L2.259,59 L3.024,58 L2,58" id="Fill-367" fill="#556080" sketch:type="MSShapeGroup"></path>
            <path d="M13.292,42.706 C13.385,42.799 13.495,42.872 13.618,42.923 C13.5,42.874 13.389,42.803 13.293,42.707 L13.292,42.706" id="Fill-368" fill="#556080" sketch:type="MSShapeGroup"></path>
            <path d="M14.853,42.487 C14.81,42.563 14.772,42.642 14.707,42.707 C14.512,42.902 14.256,43 14,43 L14.494,43 L14.794,42.607 C14.823,42.57 14.831,42.526 14.853,42.487" id="Fill-369" fill="#556080" sketch:type="MSShapeGroup"></path>
            <path d="M14.976,42.123 C14.968,42.186 14.96,42.248 14.94,42.309 C14.96,42.247 14.968,42.187 14.976,42.123" id="Fill-370" fill="#556080" sketch:type="MSShapeGroup"></path>
            <path d="M14.781,41.404 C14.821,41.457 14.862,41.511 14.891,41.57 C14.862,41.51 14.822,41.458 14.781,41.404" id="Fill-371" fill="#556080" sketch:type="MSShapeGroup"></path>
            <path d="M14.951,41.748 C14.967,41.81 14.983,41.871 14.987,41.935 C14.983,41.87 14.967,41.81 14.951,41.748" id="Fill-372" fill="#556080" sketch:type="MSShapeGroup"></path>
            <path d="M18.763,42.651 C18.58,42.861 18.319,43 18.018,43 L17.506,43 L28.976,58 L30,58 L30,56.046 L19.326,42.088 L18.763,42.651" id="Fill-373" fill="#556080" sketch:type="MSShapeGroup"></path>
            <path d="M31.794,58.393 L31,57.354 L31,59 L29.741,59 L30.206,59.607 C30.402,59.865 30.7,60 31.001,60 C31.212,60 31.426,59.933 31.607,59.794 C32.046,59.459 32.13,58.831 31.794,58.393" id="Fill-374" fill="#556080" sketch:type="MSShapeGroup"></path>
            <path d="M30,58 L28.976,58 L29.741,59 L31,59 L31,57.354 L30,56.046 L30,58" id="Fill-375" fill="#556080" sketch:type="MSShapeGroup"></path>
            <path d="M17.024,42.123 C17.032,42.187 17.04,42.247 17.06,42.309 C17.04,42.248 17.032,42.186 17.024,42.123" id="Fill-376" fill="#556080" sketch:type="MSShapeGroup"></path>
            <path d="M17.147,42.487 C17.169,42.526 17.177,42.57 17.206,42.607 L17.506,43 L18,43 C17.744,43 17.488,42.902 17.293,42.707 C17.228,42.642 17.19,42.563 17.147,42.487" id="Fill-377" fill="#556080" sketch:type="MSShapeGroup"></path>
            <path d="M18,43 L18.018,43 C18.319,43 18.58,42.861 18.763,42.651 L18.707,42.707 C18.512,42.902 18.256,43 18,43" id="Fill-378" fill="#556080" sketch:type="MSShapeGroup"></path>
            <path d="M17.013,41.935 C17.017,41.871 17.033,41.81 17.049,41.748 C17.033,41.81 17.017,41.87 17.013,41.935" id="Fill-379" fill="#556080" sketch:type="MSShapeGroup"></path>
            <path d="M17.109,41.57 C17.138,41.511 17.178,41.457 17.219,41.404 C17.178,41.458 17.138,41.51 17.109,41.57" id="Fill-380" fill="#556080" sketch:type="MSShapeGroup"></path>
            <path d="M13,18 C13,17.447 13.448,17 14,17 L14.414,17 L7.448,10.034 C6.898,10.54 6.449,11.009 6.057,11.472 L13,18.414 L13,18" id="Fill-381" fill="#556080" sketch:type="MSShapeGroup"></path>
            <path d="M6.743,9.345 C6.35,8.996 5.753,9 5.376,9.377 C4.992,9.761 4.99,10.378 5.362,10.77 C5.793,10.268 6.256,9.795 6.743,9.345" id="Fill-382" fill="#556080" sketch:type="MSShapeGroup"></path>
            <path d="M6.057,11.472 C6.449,11.009 6.898,10.54 7.448,10.034 L6.79,9.377 C6.776,9.363 6.757,9.358 6.743,9.345 C6.256,9.795 5.793,10.268 5.362,10.77 C5.368,10.776 5.37,10.785 5.376,10.791 L6.057,11.472" id="Fill-383" fill="#556080" sketch:type="MSShapeGroup"></path>
            <path d="M14,19 L14,18 L15,18 C15,17.744 14.902,17.488 14.707,17.293 L14.414,17 L14,17 C13.448,17 13,17.447 13,18 L13,18.414 L13.293,18.707 C13.488,18.902 13.744,19 14,19" id="Fill-384" fill="#556080" sketch:type="MSShapeGroup"></path>
            <path d="M15,18 L14,18 L14,19 C14.256,19 14.512,18.902 14.707,18.707 C14.902,18.512 15,18.256 15,18" id="Fill-385" fill="#556080" sketch:type="MSShapeGroup"></path>
            <path d="M18.018,17 C18.284,17 18.539,17.106 18.726,17.294 C18.914,17.482 19.019,17.737 19.018,18.003 L19.017,18.481 L25.981,11.517 C25.589,11.049 25.14,10.578 24.595,10.075 L17.669,17 L18.018,17" id="Fill-386" fill="#556080" sketch:type="MSShapeGroup"></path>
            <path d="M26.681,10.817 L26.707,10.791 C27.098,10.4 27.098,9.768 26.707,9.377 C26.316,8.986 25.684,8.986 25.293,9.377 L25.292,9.377 C25.783,9.832 26.248,10.309 26.681,10.817" id="Fill-387" fill="#556080" sketch:type="MSShapeGroup"></path>
            <path d="M25.981,11.517 L26.681,10.817 C26.248,10.309 25.783,9.832 25.292,9.377 L24.595,10.075 C25.14,10.578 25.589,11.049 25.981,11.517" id="Fill-388" fill="#556080" sketch:type="MSShapeGroup"></path>
            <path d="M17.083,18 L18.018,18 L18.015,18.987 C18.038,18.988 18.06,19 18.083,19 C18.339,19 18.595,18.902 18.79,18.707 L19.017,18.481 L19.018,18.003 C19.019,17.737 18.914,17.482 18.726,17.294 C18.539,17.106 18.284,17 18.018,17 L17.669,17 L17.376,17.293 C17.181,17.488 17.083,17.744 17.083,18" id="Fill-389" fill="#556080" sketch:type="MSShapeGroup"></path>
            <path d="M18.015,18.987 L18.018,18 L17.083,18 C17.083,18.256 17.181,18.512 17.376,18.707 C17.554,18.885 17.783,18.971 18.015,18.987" id="Fill-390" fill="#556080" sketch:type="MSShapeGroup"></path>
            <path d="M6.607,36.021 L2,42.046 L2,45.339 L8.034,37.448 L6.607,36.021" id="Fill-391" fill="#556080" sketch:type="MSShapeGroup"></path>
            <path d="M13,30.954 L13,29.003 L11.972,29.006 L7.833,34.419 L9.259,35.845 L13,30.954" id="Fill-392" fill="#556080" sketch:type="MSShapeGroup"></path>
            <path d="M0.206,44.393 C-0.13,44.831 -0.046,45.459 0.393,45.794 C0.574,45.933 0.788,46 0.999,46 L1,46 L1,43.354 L0.206,44.393" id="Fill-393" fill="#556080" sketch:type="MSShapeGroup"></path>
            <path d="M2,45.339 L2,42.046 L1,43.354 L1,46 C1.301,46 1.598,45.865 1.794,45.607 L2,45.339" id="Fill-394" fill="#556080" sketch:type="MSShapeGroup"></path>
            <path d="M14.495,27.151 C14.548,27.182 14.602,27.213 14.65,27.254 C14.633,27.24 14.625,27.22 14.607,27.206 C14.573,27.179 14.531,27.172 14.495,27.151" id="Fill-395" fill="#556080" sketch:type="MSShapeGroup"></path>
            <path d="M14.948,27.739 C14.966,27.804 14.983,27.868 14.987,27.936 C14.983,27.868 14.966,27.805 14.948,27.739" id="Fill-396" fill="#556080" sketch:type="MSShapeGroup"></path>
            <path d="M14.89,27.566 C14.861,27.508 14.822,27.458 14.782,27.405 C14.821,27.457 14.861,27.508 14.89,27.566" id="Fill-397" fill="#556080" sketch:type="MSShapeGroup"></path>
            <path d="M14.313,27.062 C14.248,27.04 14.184,27.031 14.117,27.023 C14.184,27.031 14.25,27.041 14.313,27.062" id="Fill-398" fill="#556080" sketch:type="MSShapeGroup"></path>
            <path d="M13,30.954 L14,29.646 L14,28 L12.739,28.003 L11.972,29.006 L13,29.003 L13,30.954" id="Fill-399" fill="#556080" sketch:type="MSShapeGroup"></path>
            <path d="M14.987,27.936 C14.983,27.868 14.966,27.804 14.948,27.739 C14.932,27.68 14.917,27.622 14.89,27.566 C14.861,27.508 14.821,27.457 14.782,27.405 C14.742,27.352 14.701,27.3 14.65,27.254 C14.602,27.213 14.548,27.182 14.495,27.151 C14.435,27.116 14.376,27.083 14.313,27.062 C14.25,27.041 14.184,27.031 14.117,27.023 C13.778,26.983 13.428,27.101 13.206,27.393 L12.739,28.003 L14,28 L14,29.646 L14.794,28.607 C14.947,28.408 15.002,28.169 14.987,27.936" id="Fill-400" fill="#556080" sketch:type="MSShapeGroup"></path>
            <path d="M23.966,37.448 L30,45.339 L30,42.046 L25.393,36.021 L23.966,37.448" id="Fill-401" fill="#556080" sketch:type="MSShapeGroup"></path>
            <path d="M19.018,30.978 L22.74,35.845 L24.167,34.419 L20.034,29.013 L19.018,29.016 L19.018,30.978" id="Fill-402" fill="#556080" sketch:type="MSShapeGroup"></path>
            <path d="M31.001,46 C31.212,46 31.426,45.933 31.607,45.794 C32.046,45.459 32.13,44.831 31.794,44.393 L31,43.354 L31,46 L31.001,46" id="Fill-403" fill="#556080" sketch:type="MSShapeGroup"></path>
            <path d="M30,45.339 L30.206,45.607 C30.402,45.865 30.699,46 31,46 L31,43.354 L30,42.046 L30,45.339" id="Fill-404" fill="#556080" sketch:type="MSShapeGroup"></path>
            <path d="M17.393,27.206 C17.128,27.408 17.01,27.716 17.018,28.025 L17.018,28.019 C17.018,27.468 17.464,27.021 18.016,27.019 L18.162,27.018 C17.899,26.975 17.621,27.031 17.393,27.206" id="Fill-405" fill="#556080" sketch:type="MSShapeGroup"></path>
            <path d="M18.018,28.018 L18.018,29.67 L19.018,30.978 L19.018,29.016 L20.034,29.013 L19.27,28.015 L18.018,28.018" id="Fill-406" fill="#556080" sketch:type="MSShapeGroup"></path>
            <path d="M18.162,27.018 L18.016,27.019 C17.464,27.021 17.018,27.468 17.018,28.019 L17.018,28.025 C17.023,28.229 17.072,28.433 17.206,28.607 L18.018,29.67 L18.018,28.018 L19.27,28.015 L18.794,27.393 C18.634,27.182 18.404,27.058 18.162,27.018" id="Fill-407" fill="#556080" sketch:type="MSShapeGroup"></path>
            <path d="M0.533,18.221 C0.543,18.181 0.549,18.141 0.559,18.101 C0.543,18.14 0.544,18.181 0.533,18.221" id="Fill-408" fill="#556080" sketch:type="MSShapeGroup"></path>
            <path d="M6,24 C6,23.447 6.448,23 7,23 L7.414,23 L2.596,18.182 C2.388,18.961 2.245,19.757 2.146,20.56 L6,24.414 L6,24" id="Fill-409" fill="#556080" sketch:type="MSShapeGroup"></path>
            <path d="M0.775,19.19 L1.251,19.666 C1.371,18.943 1.542,18.234 1.744,17.533 C1.409,17.442 1.039,17.512 0.775,17.775 C0.679,17.872 0.608,17.983 0.559,18.101 C0.549,18.141 0.543,18.181 0.533,18.221 C0.442,18.556 0.512,18.926 0.775,19.19" id="Fill-410" fill="#556080" sketch:type="MSShapeGroup"></path>
            <path d="M2.146,20.56 C2.245,19.757 2.388,18.961 2.596,18.182 L2.189,17.775 C2.062,17.648 1.906,17.578 1.744,17.533 C1.542,18.234 1.371,18.943 1.251,19.666 L2.146,20.56" id="Fill-411" fill="#556080" sketch:type="MSShapeGroup"></path>
            <path d="M7,25 L7,24 L8,24 C8,23.744 7.902,23.488 7.707,23.293 L7.414,23 L7,23 C6.448,23 6,23.447 6,24 L6,24.414 L6.293,24.707 C6.488,24.902 6.744,25 7,25" id="Fill-412" fill="#556080" sketch:type="MSShapeGroup"></path>
            <path d="M8,24 L7,24 L7,25 C7.256,25 7.512,24.902 7.707,24.707 C7.902,24.512 8,24.256 8,24" id="Fill-413" fill="#556080" sketch:type="MSShapeGroup"></path>
            <path d="M25,23 C25.552,23 26,23.447 26,24 L26,24.414 L29.854,20.56 C29.755,19.757 29.612,18.961 29.404,18.182 L24.586,23 L25,23" id="Fill-414" fill="#556080" sketch:type="MSShapeGroup"></path>
            <path d="M31.18,19.234 C31.57,18.844 31.57,18.211 31.18,17.82 C30.931,17.571 30.586,17.499 30.266,17.568 C30.464,18.257 30.631,18.955 30.749,19.666 L31.18,19.234" id="Fill-415" fill="#556080" sketch:type="MSShapeGroup"></path>
            <path d="M29.404,18.182 C29.612,18.961 29.755,19.757 29.854,20.56 L30.749,19.666 C30.631,18.955 30.464,18.257 30.266,17.568 C30.084,17.606 29.907,17.679 29.766,17.82 L29.404,18.182" id="Fill-416" fill="#556080" sketch:type="MSShapeGroup"></path>
            <path d="M24,24 L25,24 L25,25 C25.256,25 25.512,24.902 25.707,24.707 L26,24.414 L26,24 C26,23.447 25.552,23 25,23 L24.586,23 L24.293,23.293 C24.098,23.488 24,23.744 24,24" id="Fill-417" fill="#556080" sketch:type="MSShapeGroup"></path>
            <path d="M25,25 L25,24 L24,24 C24,24.256 24.098,24.512 24.293,24.707 C24.488,24.902 24.744,25 25,25" id="Fill-418" fill="#556080" sketch:type="MSShapeGroup"></path>
            <path d="M19.018,39.568 L19.018,41.685 L19.326,42.088 L23.966,37.448 L22.74,35.845 L19.018,39.568" id="Fill-419" fill="#556080" sketch:type="MSShapeGroup"></path>
            <path d="M25.393,36.021 L30,31.414 L30,28.586 L24.167,34.419 L25.393,36.021" id="Fill-420" fill="#556080" sketch:type="MSShapeGroup"></path>
            <path d="M31,28 L31,30.414 L31.707,29.707 C31.902,29.512 32,29.256 32,29 C32,28.744 31.902,28.488 31.707,28.293 C31.512,28.098 31.256,28 31,28" id="Fill-421" fill="#556080" sketch:type="MSShapeGroup"></path>
            <path d="M30,28.586 L30,31.414 L31,30.414 L31,28 C30.744,28 30.488,28.098 30.293,28.293 L30,28.586" id="Fill-422" fill="#556080" sketch:type="MSShapeGroup"></path>
            <path d="M17.024,42.123 C17.019,42.082 17.016,42.041 17.016,42 L17,42 C17,42.042 17.019,42.081 17.024,42.123" id="Fill-423" fill="#556080" sketch:type="MSShapeGroup"></path>
            <path d="M17.06,42.309 C17.081,42.372 17.113,42.428 17.147,42.487 C17.114,42.429 17.081,42.371 17.06,42.309" id="Fill-424" fill="#556080" sketch:type="MSShapeGroup"></path>
            <path d="M18.018,41.015 C18.313,41.02 18.602,41.14 18.794,41.393 L19.018,41.685 L19.018,39.568 L18.018,40.568 L18.018,41.015" id="Fill-425" fill="#556080" sketch:type="MSShapeGroup"></path>
            <path d="M17.049,41.748 C17.065,41.687 17.082,41.627 17.109,41.57 C17.081,41.628 17.065,41.687 17.049,41.748" id="Fill-426" fill="#556080" sketch:type="MSShapeGroup"></path>
            <path d="M17.293,41.293 C17.26,41.326 17.247,41.368 17.219,41.404 C17.272,41.334 17.32,41.261 17.393,41.206 C17.579,41.063 17.8,41.011 18.018,41.015 L18.018,40.568 L17.293,41.293" id="Fill-427" fill="#556080" sketch:type="MSShapeGroup"></path>
            <path d="M17,42 L17.016,42 C17.017,41.978 17.011,41.957 17.013,41.935 C17.011,41.957 17,41.978 17,42" id="Fill-428" fill="#556080" sketch:type="MSShapeGroup"></path>
            <path d="M19.018,42 C19.018,42.252 18.917,42.475 18.763,42.651 L19.326,42.088 L19.018,41.685 L19.018,42" id="Fill-429" fill="#556080" sketch:type="MSShapeGroup"></path>
            <path d="M19.018,41.685 L18.794,41.393 C18.602,41.14 18.313,41.02 18.018,41.015 L18.018,42 L17.016,42 C17.016,42.041 17.019,42.082 17.024,42.123 C17.032,42.186 17.04,42.248 17.06,42.309 C17.081,42.371 17.114,42.429 17.147,42.487 C17.19,42.563 17.228,42.642 17.293,42.707 C17.488,42.902 17.744,43 18,43 C18.256,43 18.512,42.902 18.707,42.707 L18.763,42.651 C18.917,42.475 19.018,42.252 19.018,42 L19.018,41.685" id="Fill-430" fill="#556080" sketch:type="MSShapeGroup"></path>
            <path d="M17.219,41.404 C17.178,41.457 17.138,41.511 17.109,41.57 C17.082,41.627 17.065,41.687 17.049,41.748 C17.033,41.81 17.017,41.871 17.013,41.935 C17.011,41.957 17.017,41.978 17.016,42 L18.018,42 L18.018,41.015 C17.8,41.011 17.579,41.063 17.393,41.206 C17.32,41.261 17.272,41.334 17.219,41.404" id="Fill-431" fill="#556080" sketch:type="MSShapeGroup"></path>
            <path d="M23.966,37.448 L25.393,36.021 L24.167,34.419 L22.74,35.845 L23.966,37.448" id="Fill-432" fill="#556080" sketch:type="MSShapeGroup"></path>
            <path d="M7.833,34.419 L2,28.586 L2,31.414 L6.607,36.021 L7.833,34.419" id="Fill-433" fill="#556080" sketch:type="MSShapeGroup"></path>
            <path d="M13,39.586 L9.259,35.845 L8.034,37.448 L12.674,42.088 L13,41.661 L13,39.586" id="Fill-434" fill="#556080" sketch:type="MSShapeGroup"></path>
            <path d="M1,30.414 L1,28 C0.744,28 0.488,28.098 0.293,28.293 C0.098,28.488 0,28.744 0,29 C0,29.256 0.098,29.512 0.293,29.707 L1,30.414" id="Fill-435" fill="#556080" sketch:type="MSShapeGroup"></path>
            <path d="M2,28.586 L1.707,28.293 C1.512,28.098 1.256,28 1,28 L1,30.414 L2,31.414 L2,28.586" id="Fill-436" fill="#556080" sketch:type="MSShapeGroup"></path>
            <path d="M14.976,42.123 C14.981,42.081 15,42.042 15,42 L14.983,42 C14.983,42.041 14.981,42.082 14.976,42.123" id="Fill-437" fill="#556080" sketch:type="MSShapeGroup"></path>
            <path d="M14.94,42.309 C14.919,42.371 14.886,42.429 14.853,42.487 C14.887,42.428 14.919,42.372 14.94,42.309" id="Fill-438" fill="#556080" sketch:type="MSShapeGroup"></path>
            <path d="M13,39.586 L13,41.661 L13.206,41.393 C13.402,41.135 13.699,41.016 14,41.016 L14,40.586 L13,39.586" id="Fill-439" fill="#556080" sketch:type="MSShapeGroup"></path>
            <path d="M14.891,41.57 C14.918,41.627 14.935,41.687 14.951,41.748 C14.935,41.687 14.919,41.628 14.891,41.57" id="Fill-440" fill="#556080" sketch:type="MSShapeGroup"></path>
            <path d="M14.983,42 L15,42 C15,41.978 14.989,41.957 14.987,41.935 C14.989,41.957 14.983,41.978 14.983,42" id="Fill-441" fill="#556080" sketch:type="MSShapeGroup"></path>
            <path d="M14.781,41.404 C14.753,41.368 14.74,41.326 14.707,41.293 L14,40.586 L14,41.016 C14.212,41.016 14.426,41.067 14.607,41.206 C14.68,41.261 14.728,41.334 14.781,41.404" id="Fill-442" fill="#556080" sketch:type="MSShapeGroup"></path>
            <path d="M13,41.661 L12.674,42.088 L13.292,42.706 C13.112,42.525 13,42.276 13,42 L13,41.661" id="Fill-443" fill="#556080" sketch:type="MSShapeGroup"></path>
            <path d="M14,43 C13.864,43 13.736,42.972 13.618,42.923 C13.74,42.973 13.87,43 14,43" id="Fill-444" fill="#556080" sketch:type="MSShapeGroup"></path>
            <path d="M14.853,42.487 C14.886,42.429 14.919,42.371 14.94,42.309 C14.96,42.248 14.968,42.186 14.976,42.123 C14.981,42.082 14.983,42.041 14.983,42 L14,42 L14,41.016 C13.699,41.016 13.402,41.135 13.206,41.393 L13,41.661 L13,42 C13,42.276 13.112,42.525 13.292,42.706 L13.293,42.707 C13.389,42.803 13.5,42.874 13.618,42.923 C13.736,42.972 13.864,43 14,43 C14.256,43 14.512,42.902 14.707,42.707 C14.772,42.642 14.81,42.563 14.853,42.487" id="Fill-445" fill="#556080" sketch:type="MSShapeGroup"></path>
            <path d="M14.951,41.748 C14.935,41.687 14.918,41.627 14.891,41.57 C14.862,41.511 14.821,41.457 14.781,41.404 C14.728,41.334 14.68,41.261 14.607,41.206 C14.426,41.067 14.212,41.016 14,41.016 L14,42 L14.983,42 C14.983,41.978 14.989,41.957 14.987,41.935 C14.983,41.871 14.967,41.81 14.951,41.748" id="Fill-446" fill="#556080" sketch:type="MSShapeGroup"></path>
            <path d="M8.034,37.448 L9.259,35.845 L7.833,34.419 L6.607,36.021 L8.034,37.448" id="Fill-447" fill="#556080" sketch:type="MSShapeGroup"></path>
        </g>
    </g>
</svg>