<?xml version="1.0" encoding="UTF-8" standalone="no"?>
<svg width="54px" height="59px" viewBox="0 0 54 59" version="1.1" xmlns="http://www.w3.org/2000/svg" xmlns:xlink="http://www.w3.org/1999/xlink" xmlns:sketch="http://www.bohemiancoding.com/sketch/ns">
    <!-- Generator: Sketch 3.2.2 (9983) - http://www.bohemiancoding.com/sketch -->
    <title>33 - Catolic Monastery (Flat)</title>
    <desc>Created with Sketch.</desc>
    <defs></defs>
    <g id="Page-1" stroke="none" stroke-width="1" fill="none" fill-rule="evenodd" sketch:type="MSPage">
        <g id="33---Catolic-Monastery-(Flat)" sketch:type="MSLayerGroup">
            <path d="M0,14 C0,10.686 2.686,8 6,8 C9.314,8 12,10.686 12,14 L0,14" id="Fill-121" fill="#E4C05C" sketch:type="MSShapeGroup"></path>
            <path d="M42,14 C42,10.686 44.686,8 48,8 C51.314,8 54,10.686 54,14 L42,14" id="Fill-122" fill="#E4C05C" sketch:type="MSShapeGroup"></path>
            <path d="M42,14 L42,35 L35,28 L19,28 L12,35 L12,14 L0,14 L0,59 L54,59 L54,14 L42,14" id="Fill-123" fill="#ECF0F1" sketch:type="MSShapeGroup"></path>
            <path d="M19,28 C19,23.582 22.582,20 27,20 C31.418,20 35,23.582 35,28 L19,28" id="Fill-124" fill="#E4C05C" sketch:type="MSShapeGroup"></path>
            <path d="M33,10 L29,10 L29,6 L25,6 L25,10 L21,10 L21,14 L25,14 L25,26 L29,26 L29,14 L33,14 L33,10" id="Fill-125" fill="#E4C05C" sketch:type="MSShapeGroup"></path>
            <path d="M3,31 L3,22 C3,20.35 4.35,19 6,19 C7.65,19 9,20.35 9,22 L9,31 L3,31" id="Fill-126" fill="#48A0DC" sketch:type="MSShapeGroup"></path>
            <path d="M4,52 L4,43 C4,41.35 5.35,40 7,40 C8.65,40 10,41.35 10,43 L10,52 L4,52" id="Fill-127" fill="#0096E6" sketch:type="MSShapeGroup"></path>
            <path d="M10,52 L10,43 C10,41.35 11.35,40 13,40 C14.65,40 16,41.35 16,43 L16,52 L10,52" id="Fill-128" fill="#4482C3" sketch:type="MSShapeGroup"></path>
            <path d="M38,52 L38,43 C38,41.35 39.35,40 41,40 C42.65,40 44,41.35 44,43 L44,52 L38,52" id="Fill-129" fill="#4482C3" sketch:type="MSShapeGroup"></path>
            <path d="M44,52 L44,43 C44,41.35 45.35,40 47,40 C48.65,40 50,41.35 50,43 L50,52 L44,52" id="Fill-130" fill="#0096E6" sketch:type="MSShapeGroup"></path>
            <path d="M45,31 L45,22 C45,20.35 46.35,19 48,19 C49.65,19 51,20.35 51,22 L51,31 L45,31" id="Fill-131" fill="#48A0DC" sketch:type="MSShapeGroup"></path>
            <path d="M20,59 L20,43 C20,39.15 23.15,36 27,36 C30.85,36 34,39.15 34,43 L34,59 L20,59" id="Fill-132" fill="#556080" sketch:type="MSShapeGroup"></path>
            <path d="M6,9 C5.447,9 5,8.552 5,8 L5,1 C5,0.448 5.447,0 6,0 C6.553,0 7,0.448 7,1 L7,8 C7,8.552 6.553,9 6,9" id="Fill-133" fill="#F0C419" sketch:type="MSShapeGroup"></path>
            <path d="M9,5 L3,5 C2.447,5 2,4.552 2,4 C2,3.448 2.447,3 3,3 L9,3 C9.553,3 10,3.448 10,4 C10,4.552 9.553,5 9,5" id="Fill-134" fill="#F0C419" sketch:type="MSShapeGroup"></path>
            <path d="M48,9 C47.447,9 47,8.552 47,8 L47,1 C47,0.448 47.447,0 48,0 C48.553,0 49,0.448 49,1 L49,8 C49,8.552 48.553,9 48,9" id="Fill-135" fill="#F0C419" sketch:type="MSShapeGroup"></path>
            <path d="M51,5 L45,5 C44.447,5 44,4.552 44,4 C44,3.448 44.447,3 45,3 L51,3 C51.553,3 52,3.448 52,4 C52,4.552 51.553,5 51,5" id="Fill-136" fill="#F0C419" sketch:type="MSShapeGroup"></path>
            <path d="M38,29 L16,29 C15.447,29 15,28.552 15,28 C15,27.448 15.447,27 16,27 L38,27 C38.553,27 39,27.448 39,28 C39,28.552 38.553,29 38,29" id="Fill-137" fill="#CBB292" sketch:type="MSShapeGroup"></path>
        </g>
    </g>
</svg>