<?xml version="1.0" encoding="UTF-8" standalone="no"?>
<svg width="60px" height="60px" viewBox="0 0 60 60" version="1.1" xmlns="http://www.w3.org/2000/svg" xmlns:xlink="http://www.w3.org/1999/xlink" xmlns:sketch="http://www.bohemiancoding.com/sketch/ns">
    <!-- Generator: Sketch 3.2.2 (9983) - http://www.bohemiancoding.com/sketch -->
    <title>50 - Crown of Thorns (Flat)</title>
    <desc>Created with Sketch.</desc>
    <defs></defs>
    <g id="Page-1" stroke="none" stroke-width="1" fill="none" fill-rule="evenodd" sketch:type="MSPage">
        <g id="50---Crown-of-Thorns-(Flat)" sketch:type="MSLayerGroup">
            <path d="M51.783,24.034 C48.776,22.515 47.099,19.224 47.638,15.898 C48.712,9.266 41.397,4.515 35.775,8.194 C32.956,10.039 29.267,9.846 26.657,7.716 C21.45,3.469 13.678,7.43 14.054,14.138 C14.242,17.502 12.23,20.6 9.081,21.796 C2.799,24.181 2.343,32.892 8.34,35.921 C11.348,37.439 13.025,40.731 12.486,44.057 C11.411,50.689 18.727,55.44 24.348,51.76 C27.167,49.915 30.856,50.108 33.467,52.238 C38.673,56.485 46.445,52.525 46.07,45.817 C45.881,42.453 47.893,39.355 51.043,38.159 C57.324,35.773 57.78,27.063 51.783,24.034 L51.783,24.034 Z M30,47 C20.611,47 13,39.389 13,30 C13,20.611 20.611,13 30,13 C39.389,13 47,20.611 47,30 C47,39.389 39.389,47 30,47 L30,47 Z" id="Fill-479" fill="#CB8252" sketch:type="MSShapeGroup"></path>
            <path d="M30,8 C29.448,8 29,7.552 29,7 L29,1 C29,0.448 29.448,0 30,0 C30.552,0 31,0.448 31,1 L31,7 C31,7.552 30.552,8 30,8" id="Fill-480" fill="#805333" sketch:type="MSShapeGroup"></path>
            <path d="M30,60 C29.448,60 29,59.552 29,59 L29,53 C29,52.448 29.448,52 30,52 C30.552,52 31,52.448 31,53 L31,59 C31,59.552 30.552,60 30,60" id="Fill-481" fill="#805333" sketch:type="MSShapeGroup"></path>
            <path d="M30,48 C20.075,48 12,39.925 12,30 C12,20.075 20.075,12 30,12 C39.925,12 48,20.075 48,30 C48,39.925 39.925,48 30,48 L30,48 Z M30,14 C21.178,14 14,21.178 14,30 C14,38.822 21.178,46 30,46 C38.822,46 46,38.822 46,30 C46,21.178 38.822,14 30,14 L30,14 Z" id="Fill-482" fill="#805333" sketch:type="MSShapeGroup"></path>
            <path d="M30.062,56.969 C26.551,56.969 23.491,54.973 22.075,51.761 C20.901,49.1 18.124,47.469 15.19,47.786 C14.852,47.823 14.519,47.841 14.192,47.841 L14.191,47.841 C10.919,47.841 7.956,46.004 6.455,43.047 C4.94,40.061 5.22,36.661 7.203,33.952 C8.943,31.575 8.943,28.38 7.203,26.002 C5.22,23.294 4.941,19.895 6.455,16.909 C8.105,13.656 11.474,11.768 15.19,12.169 C18.125,12.484 20.902,10.854 22.075,8.193 C23.491,4.981 26.551,2.986 30.062,2.986 C33.572,2.986 36.633,4.981 38.049,8.193 C39.221,10.854 41.998,12.483 44.934,12.169 C48.656,11.764 52.019,13.656 53.668,16.909 C55.183,19.895 54.903,23.294 52.921,26.002 C51.181,28.38 51.181,31.575 52.921,33.952 C54.903,36.661 55.183,40.06 53.668,43.045 C52.018,46.299 48.653,48.194 44.934,47.786 C41.999,47.47 39.221,49.1 38.049,51.761 C36.633,54.973 33.572,56.969 30.062,56.969 L30.062,56.969 Z M15.92,45.747 C19.375,45.747 22.51,47.79 23.905,50.955 C24.997,53.43 27.355,54.969 30.062,54.969 C32.768,54.969 35.127,53.43 36.219,50.955 C37.74,47.503 41.338,45.389 45.149,45.798 C48.014,46.107 50.609,44.656 51.885,42.141 C53.051,39.841 52.835,37.221 51.307,35.134 C49.05,32.049 49.05,27.905 51.307,24.821 C52.835,22.733 53.051,20.113 51.885,17.813 C50.61,15.299 48.019,13.846 45.149,14.157 C41.344,14.573 37.74,12.452 36.219,9 C35.127,6.524 32.768,4.986 30.062,4.986 C27.355,4.986 24.997,6.524 23.905,9 C22.51,12.164 19.375,14.208 15.92,14.208 C15.607,14.208 15.291,14.191 14.974,14.157 C12.108,13.848 9.515,15.299 8.239,17.813 C7.072,20.114 7.288,22.733 8.817,24.821 C11.074,27.905 11.074,32.049 8.817,35.134 C7.288,37.222 7.072,39.842 8.239,42.142 C9.396,44.423 11.677,45.841 14.191,45.841 L14.192,45.841 C14.448,45.841 14.709,45.827 14.974,45.798 C15.291,45.763 15.606,45.747 15.92,45.747 L15.92,45.747 Z" id="Fill-483" fill="#805333" sketch:type="MSShapeGroup"></path>
            <path d="M59,31 L53,31 C52.448,31 52,30.552 52,30 C52,29.448 52.448,29 53,29 L59,29 C59.552,29 60,29.448 60,30 C60,30.552 59.552,31 59,31" id="Fill-484" fill="#805333" sketch:type="MSShapeGroup"></path>
            <path d="M7,31 L1,31 C0.448,31 0,30.552 0,30 C0,29.448 0.448,29 1,29 L7,29 C7.552,29 8,29.448 8,30 C8,30.552 7.552,31 7,31" id="Fill-485" fill="#805333" sketch:type="MSShapeGroup"></path>
            <path d="M18.501,11.081 C18.155,11.081 17.819,10.902 17.634,10.581 L14.634,5.385 C14.358,4.907 14.521,4.295 15,4.019 C15.479,3.743 16.09,3.907 16.366,4.385 L19.366,9.581 C19.642,10.06 19.478,10.671 19,10.948 C18.842,11.039 18.67,11.081 18.501,11.081" id="Fill-486" fill="#805333" sketch:type="MSShapeGroup"></path>
            <path d="M44.501,56.115 C44.155,56.115 43.819,55.935 43.634,55.615 L40.634,50.418 C40.358,49.94 40.521,49.329 41,49.052 C41.479,48.775 42.09,48.94 42.366,49.418 L45.366,54.615 C45.642,55.093 45.478,55.705 45,55.981 C44.842,56.072 44.67,56.115 44.501,56.115" id="Fill-487" fill="#805333" sketch:type="MSShapeGroup"></path>
            <path d="M49.919,19.5 C49.574,19.5 49.238,19.321 49.052,19 C48.776,18.521 48.94,17.91 49.418,17.634 L54.615,14.634 C55.094,14.357 55.705,14.521 55.981,15 C56.257,15.478 56.093,16.09 55.615,16.366 L50.419,19.366 C50.261,19.457 50.089,19.5 49.919,19.5" id="Fill-488" fill="#805333" sketch:type="MSShapeGroup"></path>
            <path d="M4.886,45.5 C4.54,45.5 4.205,45.321 4.019,45 C3.743,44.521 3.907,43.91 4.385,43.634 L9.581,40.634 C10.06,40.357 10.671,40.521 10.948,41 C11.224,41.479 11.06,42.09 10.581,42.366 L5.385,45.366 C5.227,45.457 5.056,45.5 4.886,45.5" id="Fill-489" fill="#805333" sketch:type="MSShapeGroup"></path>
            <path d="M10.081,19.5 C9.911,19.5 9.739,19.457 9.581,19.366 L4.385,16.366 C3.907,16.09 3.743,15.478 4.019,15 C4.295,14.521 4.904,14.357 5.385,14.634 L10.581,17.634 C11.06,17.91 11.224,18.521 10.948,19 C10.762,19.321 10.426,19.5 10.081,19.5" id="Fill-490" fill="#805333" sketch:type="MSShapeGroup"></path>
            <path d="M55.114,45.5 C54.944,45.5 54.772,45.457 54.615,45.366 L49.418,42.366 C48.94,42.09 48.776,41.479 49.052,41 C49.328,40.521 49.938,40.357 50.419,40.634 L55.615,43.634 C56.093,43.91 56.257,44.521 55.981,45 C55.795,45.321 55.459,45.5 55.114,45.5" id="Fill-491" fill="#805333" sketch:type="MSShapeGroup"></path>
            <path d="M41.499,11.081 C41.33,11.081 41.158,11.039 41,10.948 C40.521,10.671 40.358,10.06 40.634,9.581 L43.634,4.385 C43.91,3.907 44.519,3.743 45,4.019 C45.478,4.295 45.642,4.907 45.366,5.385 L42.366,10.581 C42.181,10.902 41.845,11.081 41.499,11.081" id="Fill-492" fill="#805333" sketch:type="MSShapeGroup"></path>
            <path d="M15.499,56.115 C15.33,56.115 15.158,56.072 15,55.981 C14.521,55.705 14.358,55.093 14.634,54.615 L17.634,49.418 C17.91,48.94 18.519,48.775 19,49.052 C19.478,49.329 19.642,49.94 19.366,50.418 L16.366,55.615 C16.181,55.935 15.845,56.115 15.499,56.115" id="Fill-493" fill="#805333" sketch:type="MSShapeGroup"></path>
            <path d="M30,17.517 C29.448,17.517 29,17.069 29,16.517 L29,13 C29,12.448 29.448,12 30,12 C30.552,12 31,12.448 31,13 L31,16.517 C31,17.069 30.552,17.517 30,17.517" id="Fill-494" fill="#805333" sketch:type="MSShapeGroup"></path>
            <path d="M30,48 C29.448,48 29,47.552 29,47 L29,43.483 C29,42.931 29.448,42.483 30,42.483 C30.552,42.483 31,42.931 31,43.483 L31,47 C31,47.552 30.552,48 30,48" id="Fill-495" fill="#805333" sketch:type="MSShapeGroup"></path>
            <path d="M47,31 L43.483,31 C42.931,31 42.483,30.552 42.483,30 C42.483,29.448 42.931,29 43.483,29 L47,29 C47.552,29 48,29.448 48,30 C48,30.552 47.552,31 47,31" id="Fill-496" fill="#805333" sketch:type="MSShapeGroup"></path>
            <path d="M16.517,31 L13,31 C12.448,31 12,30.552 12,30 C12,29.448 12.448,29 13,29 L16.517,29 C17.069,29 17.517,29.448 17.517,30 C17.517,30.552 17.069,31 16.517,31" id="Fill-497" fill="#805333" sketch:type="MSShapeGroup"></path>
            <path d="M23.26,19.324 C22.914,19.324 22.578,19.145 22.393,18.824 L20.634,15.777 C20.358,15.299 20.521,14.688 21,14.411 C21.479,14.135 22.09,14.299 22.366,14.777 L24.125,17.824 C24.401,18.302 24.237,18.914 23.759,19.19 C23.601,19.281 23.429,19.324 23.26,19.324" id="Fill-498" fill="#805333" sketch:type="MSShapeGroup"></path>
            <path d="M38.501,45.723 C38.155,45.723 37.819,45.543 37.634,45.223 L35.875,42.176 C35.599,41.698 35.763,41.086 36.241,40.81 C36.72,40.533 37.331,40.698 37.607,41.176 L39.366,44.223 C39.642,44.701 39.478,45.312 39,45.589 C38.842,45.68 38.67,45.723 38.501,45.723" id="Fill-499" fill="#805333" sketch:type="MSShapeGroup"></path>
            <path d="M41.677,24.259 C41.331,24.259 40.996,24.08 40.81,23.759 C40.534,23.28 40.698,22.669 41.176,22.393 L44.223,20.634 C44.702,20.356 45.311,20.522 45.589,21 C45.865,21.478 45.701,22.09 45.223,22.366 L42.176,24.125 C42.019,24.216 41.847,24.259 41.677,24.259" id="Fill-500" fill="#805333" sketch:type="MSShapeGroup"></path>
            <path d="M15.278,39.5 C14.933,39.5 14.597,39.321 14.411,39 C14.135,38.521 14.299,37.91 14.777,37.634 L17.824,35.875 C18.303,35.598 18.913,35.763 19.19,36.241 C19.466,36.72 19.302,37.331 18.824,37.607 L15.777,39.366 C15.62,39.457 15.448,39.5 15.278,39.5" id="Fill-501" fill="#805333" sketch:type="MSShapeGroup"></path>
            <path d="M18.323,24.259 C18.153,24.259 17.981,24.216 17.824,24.125 L14.777,22.366 C14.299,22.09 14.135,21.478 14.411,21 C14.687,20.522 15.298,20.356 15.777,20.634 L18.824,22.393 C19.302,22.669 19.466,23.28 19.19,23.759 C19.004,24.08 18.668,24.259 18.323,24.259" id="Fill-502" fill="#805333" sketch:type="MSShapeGroup"></path>
            <path d="M44.722,39.5 C44.552,39.5 44.38,39.457 44.223,39.366 L41.176,37.607 C40.698,37.331 40.534,36.72 40.81,36.241 C41.085,35.763 41.696,35.598 42.176,35.875 L45.223,37.634 C45.701,37.91 45.865,38.521 45.589,39 C45.403,39.321 45.067,39.5 44.722,39.5" id="Fill-503" fill="#805333" sketch:type="MSShapeGroup"></path>
            <path d="M36.74,19.324 C36.571,19.324 36.399,19.281 36.241,19.19 C35.763,18.914 35.599,18.302 35.875,17.824 L37.634,14.777 C37.911,14.299 38.52,14.135 39,14.411 C39.478,14.688 39.642,15.299 39.366,15.777 L37.607,18.824 C37.422,19.145 37.086,19.324 36.74,19.324" id="Fill-504" fill="#805333" sketch:type="MSShapeGroup"></path>
            <path d="M21.499,45.723 C21.33,45.723 21.158,45.68 21,45.589 C20.521,45.312 20.358,44.701 20.634,44.223 L22.393,41.176 C22.669,40.698 23.279,40.533 23.759,40.81 C24.237,41.086 24.401,41.698 24.125,42.176 L22.366,45.223 C22.181,45.543 21.845,45.723 21.499,45.723" id="Fill-505" fill="#805333" sketch:type="MSShapeGroup"></path>
        </g>
    </g>
</svg>