<?xml version="1.0" encoding="UTF-8" standalone="no"?>
<svg width="43px" height="58px" viewBox="0 0 43 58" version="1.1" xmlns="http://www.w3.org/2000/svg" xmlns:xlink="http://www.w3.org/1999/xlink" xmlns:sketch="http://www.bohemiancoding.com/sketch/ns">
    <!-- Generator: Sketch 3.2.2 (9983) - http://www.bohemiancoding.com/sketch -->
    <title>26 - Faith (Flat)</title>
    <desc>Created with Sketch.</desc>
    <defs></defs>
    <g id="Page-1" stroke="none" stroke-width="1" fill="none" fill-rule="evenodd" sketch:type="MSPage">
        <g id="26---Faith-(Flat)" sketch:type="MSLayerGroup">
            <path d="M24.468,3.9 L9.265,19.103 C8.292,20.075 6.701,20.075 5.729,19.103 C4.757,18.131 4.757,16.54 5.729,15.567 L20.932,0.365 L21.346,1.193 C21.986,2.474 23.109,3.447 24.468,3.9" id="Fill-161" fill="#F0EDE0" sketch:type="MSShapeGroup"></path>
            <path d="M24.468,3.9 L9.265,19.103 C8.414,19.954 7.088,20.06 6.119,19.42 C6.108,19.431 6.093,19.446 6.083,19.457 L7.718,21.092 C8.254,21.03 8.813,21.133 9.31,21.444 L15.296,25.185 C16.361,25.851 17.051,27.023 16.994,28.278 C16.961,29.003 16.799,29.53 16.553,29.927 L20.834,34.207 C21.285,34.659 21.759,34.824 22.279,34.892 C23.52,35.056 24.664,35.661 25.397,36.675 C25.79,37.219 26.09,37.747 26,38 C26.943,38.124 27.357,37.78 27.947,37.19 L42.852,22.285 L24.468,3.9" id="Fill-162" fill="#556080" sketch:type="MSShapeGroup"></path>
            <path d="M26.589,13.092 L23.053,16.628 L20.225,13.8 L17.409,16.615 L20.225,19.456 L16.689,22.992 L19.518,25.82 L23.053,22.285 L30.157,29.323 L32.953,26.527 L25.882,19.456 L29.417,15.921 L26.589,13.092" id="Fill-510" fill="#8697CB" sketch:type="MSShapeGroup"></path>
            <path d="M25.381,36.675 C24.648,35.661 23.504,35.056 22.263,34.892 C21.744,34.824 21.269,34.659 20.818,34.207 L16.537,29.927 C16.638,29.763 16.723,29.573 16.791,29.357 C16.826,29.249 16.856,29.133 16.882,29.01 C16.896,28.942 16.914,28.881 16.925,28.808 C16.951,28.644 16.969,28.469 16.978,28.278 C16.98,28.231 16.974,28.185 16.974,28.138 C16.975,28.088 16.984,28.051 16.984,28 C16.984,27.964 16.969,27.931 16.967,27.895 C16.884,26.789 16.236,25.783 15.28,25.185 L13.238,23.909 C13.235,23.907 13.23,23.904 13.227,23.902 L9.294,21.444 C9.155,21.357 9.01,21.29 8.862,21.234 C8.798,21.21 8.733,21.194 8.668,21.175 C8.59,21.153 8.512,21.132 8.432,21.118 C8.343,21.101 8.255,21.091 8.165,21.084 C8.118,21.081 8.07,21.08 8.023,21.08 C7.106,21.066 6.209,21.55 5.766,22.437 L1.827,30.313 C1.304,31.36 1.368,32.604 1.996,33.591 L7.463,42.182 C7.803,42.716 7.984,43.336 7.984,43.97 L7.984,57 L19.984,57 L19.984,47.396 C19.984,46.541 20.307,45.725 20.898,45.106 C22.365,43.569 25.166,42.181 25.984,38 C26.074,37.747 25.774,37.219 25.381,36.675" id="Fill-539" fill="#FDD7AD" sketch:type="MSShapeGroup"></path>
            <path d="M26.191,36.089 C25.322,34.886 23.973,34.109 22.394,33.9 C22,33.849 21.765,33.74 21.525,33.5 L17.741,29.717 C17.872,29.32 17.949,28.871 17.975,28.372 C17.976,28.355 17.976,28.339 17.977,28.323 C17.978,28.306 17.978,28.288 17.979,28.27 C17.982,28.182 17.984,28.091 17.984,28 C17.984,27.722 17.945,27.453 17.874,27.194 C17.612,26.043 16.877,25.004 15.81,24.337 L9.825,20.596 L9.824,20.596 C9.802,20.582 9.779,20.568 9.757,20.555 C9.755,20.555 9.755,20.554 9.755,20.554 C9.574,20.446 9.385,20.356 9.191,20.285 C8.506,20.031 7.752,19.996 7.04,20.197 C6.099,20.462 5.308,21.115 4.871,21.99 L0.933,29.866 C0.256,31.22 0.341,32.853 1.153,34.128 L6.62,42.718 C6.858,43.093 6.984,43.526 6.984,43.97 L6.984,57 C6.984,57.552 7.432,58 7.984,58 L19.984,58 C20.536,58 20.984,57.552 20.984,57 L20.984,47.396 C20.984,46.796 21.21,46.227 21.621,45.797 C21.913,45.492 22.29,45.17 22.69,44.829 C24.191,43.549 26.245,41.799 26.956,38.239 C27.143,37.542 26.702,36.795 26.191,36.089 L26.191,36.089 Z M21.392,43.307 C20.953,43.682 20.537,44.036 20.174,44.416 C19.407,45.221 18.984,46.279 18.984,47.396 L18.984,56 L8.984,56 L8.984,43.97 C8.984,43.145 8.75,42.342 8.307,41.645 L2.84,33.054 C2.403,32.368 2.358,31.489 2.722,30.761 L6.66,22.884 C6.849,22.507 7.176,22.237 7.581,22.123 C7.624,22.11 7.668,22.1 7.712,22.092 C7.747,22.091 7.781,22.089 7.816,22.085 C8.054,22.058 8.411,22.07 8.765,22.292 L12.697,24.75 C13.669,25.357 15.599,26.563 15.934,27.677 C15.972,27.859 15.987,28.046 15.979,28.233 C15.956,28.73 15.858,29.123 15.687,29.4 C15.665,29.436 15.644,29.474 15.627,29.512 C15.309,29.907 14.77,30 13.984,30 C13.944,30 13.887,30.004 13.847,30.009 C13.774,30.018 12.019,30.205 9.62,28.228 C9.613,28.222 9.604,28.221 9.597,28.216 C9.532,28.166 9.464,28.13 9.391,28.099 C9.346,28.079 9.303,28.06 9.256,28.047 C9.198,28.031 9.141,28.022 9.081,28.017 C9.009,28.01 8.939,28.012 8.867,28.021 C8.826,28.026 8.788,28.03 8.748,28.041 C8.642,28.066 8.543,28.11 8.449,28.171 C8.442,28.176 8.434,28.176 8.427,28.181 C8.424,28.182 8.423,28.185 8.421,28.187 C8.398,28.203 8.371,28.209 8.349,28.227 C7.98,28.53 7.877,29.053 8.103,29.474 C8.441,30.102 9.034,31.725 8.597,32.456 C8.328,32.906 7.571,33 6.984,33 C6.432,33 5.984,33.448 5.984,34 C5.984,34.552 6.432,35 6.984,35 C8.591,35 9.711,34.489 10.313,33.482 C10.413,33.315 10.493,33.142 10.555,32.965 L15.216,39.621 C16.072,40.702 14.873,43.347 14.159,44.458 C13.861,44.923 13.995,45.541 14.459,45.84 C14.626,45.948 14.814,46 15,46 C15.328,46 15.649,45.838 15.84,45.543 C16.144,45.072 18.755,40.869 16.819,38.427 L12.194,31.819 C13.127,32.052 13.792,32.026 14.047,31.999 C15.084,31.991 15.918,31.774 16.547,31.351 L20.111,34.915 C20.836,35.64 21.612,35.815 22.132,35.883 C23.161,36.019 24.026,36.508 24.57,37.261 C24.827,37.615 24.935,37.819 24.98,37.917 C24.393,40.749 22.8,42.107 21.392,43.307 L21.392,43.307 Z" id="Fill-540" fill="#FAC176" sketch:type="MSShapeGroup"></path>
        </g>
    </g>
</svg>