<?xml version="1.0" encoding="UTF-8" standalone="no"?>
<svg width="58px" height="57px" viewBox="0 0 58 57" version="1.1" xmlns="http://www.w3.org/2000/svg" xmlns:xlink="http://www.w3.org/1999/xlink" xmlns:sketch="http://www.bohemiancoding.com/sketch/ns">
    <!-- Generator: Sketch 3.2.2 (9983) - http://www.bohemiancoding.com/sketch -->
    <title>7 - Ganeesh (Flat)</title>
    <desc>Created with Sketch.</desc>
    <defs></defs>
    <g id="Page-1" stroke="none" stroke-width="1" fill="none" fill-rule="evenodd" sketch:type="MSPage">
        <g id="7---Ganeesh-(Flat)" sketch:type="MSLayerGroup">
            <path d="M39.343,18.041 C37.11,16.893 33.785,16 28.844,16 C24.206,16 20.991,16.787 18.767,17.834 C15.557,19.344 13.696,22.752 14.096,26.277 C14.712,31.713 16.964,42 24,42 C24,42 23.75,37.708 25,35 C27.209,37.209 30.791,37.209 33,35 C34.235,37.676 34.006,41.916 34,41.993 C40.916,41.839 42.985,31.653 43.594,26.263 C43.973,22.912 42.342,19.583 39.343,18.041" id="Fill-25" fill="#F3D55B" sketch:type="MSShapeGroup"></path>
            <path d="M14.096,26.277 C13.704,22.813 15.5,19.474 18.608,17.925 C16.095,15.475 12.868,14 9.344,14 C6.289,14 3.454,15.108 1.117,17 L1.884,18.876 C5.028,26.561 4.61,35.244 0.742,42.591 L0,43.999 C1.957,45.935 4.36,47.264 7,47.768 L7,46 C7,44.9 7.9,44 9,44 C10.1,44 11,44.9 11,46 L11,47.887 C15.02,47.349 18.534,44.876 20.868,41.289 C16.184,38.871 14.615,30.855 14.096,26.277" id="Fill-26" fill="#8697CB" sketch:type="MSShapeGroup"></path>
            <path d="M47,46 C47,44.9 47.9,44 49,44 C50.1,44 51,44.9 51,46 L51,47.768 C53.64,47.264 56.043,45.936 58,44 L57.258,42.591 C53.39,35.244 52.971,26.562 56.115,18.877 L56.883,17 C54.546,15.108 51.711,14 48.656,14 C45.089,14 41.827,15.517 39.302,18.021 C39.315,18.028 39.33,18.034 39.343,18.041 C42.342,19.583 43.973,22.912 43.594,26.263 C43.086,30.761 41.559,38.599 37.049,41.16 C39.382,44.817 42.932,47.342 47,47.887 L47,46" id="Fill-27" fill="#8697CB" sketch:type="MSShapeGroup"></path>
            <path d="M25.458,34.613 C24.171,35.901 20.866,34.683 18.077,31.894 C15.288,29.105 14.07,25.8 15.358,24.513 C16.645,23.226 19.949,24.443 22.739,27.232 C25.528,30.022 26.745,33.326 25.458,34.613" id="Fill-279" fill="#ECF0F1" sketch:type="MSShapeGroup"></path>
            <path d="M33,19 L31,19 C30.448,19 30,19.447 30,20 C30,20.553 30.448,21 31,21 L31,25 C31,26.102 30.103,27 29,27 C27.897,27 27,26.102 27,25 L27,21 C27.552,21 28,20.553 28,20 C28,19.447 27.552,19 27,19 L25,19 C24.448,19 24,19.447 24,20 C24,20.553 24.448,21 25,21 L25,25 C25,27.206 26.794,29 29,29 C31.206,29 33,27.206 33,25 L33,21 C33.552,21 34,20.553 34,20 C34,19.447 33.552,19 33,19" id="Fill-280" fill="#F0C419" sketch:type="MSShapeGroup"></path>
            <path d="M10,19.5 C10,20.881 8.881,22 7.5,22 C6.119,22 5,20.881 5,19.5 C5,18.119 6.119,17 7.5,17 C8.881,17 10,18.119 10,19.5" id="Fill-281" fill="#556080" sketch:type="MSShapeGroup"></path>
            <path d="M53,19.5 C53,20.881 51.881,22 50.5,22 C49.119,22 48,20.881 48,19.5 C48,18.119 49.119,17 50.5,17 C51.881,17 53,18.119 53,19.5" id="Fill-282" fill="#556080" sketch:type="MSShapeGroup"></path>
            <path d="M32.513,34.613 C33.8,35.901 37.105,34.683 39.894,31.894 C42.683,29.105 43.901,25.8 42.613,24.513 C41.326,23.226 38.022,24.443 35.232,27.232 C32.443,30.022 31.226,33.326 32.513,34.613" id="Fill-283" fill="#ECF0F1" sketch:type="MSShapeGroup"></path>
            <path d="M9,51 L9,51 C7.9,51 7,50.1 7,49 L7,45 C7,43.9 7.9,43 9,43 C10.1,43 11,43.9 11,45 L11,49 C11,50.1 10.1,51 9,51 L9,51 Z M49,51 L49,51 C47.9,51 47,50.1 47,49 L47,45 C47,43.9 47.9,43 49,43 C50.1,43 51,43.9 51,45 L51,49 C51,50.1 50.1,51 49,51 L49,51 Z" id="Stroke-284" stroke="#556080" stroke-width="2" stroke-linecap="round" stroke-linejoin="round" sketch:type="MSShapeGroup"></path>
            <path d="M34,7 C34,10.866 31.538,14 28.5,14 C25.462,14 23,10.866 23,7 C23,3.134 25.462,0 28.5,0 C31.538,0 34,3.134 34,7" id="Fill-288" fill="#A4E869" sketch:type="MSShapeGroup"></path>
            <path d="M28.5,11 C27.317,11 26,9.357 26,7 C26,4.643 27.317,3 28.5,3 C29.683,3 31,4.643 31,7 C31,9.357 29.683,11 28.5,11" id="Fill-289" fill="#F29C1F" sketch:type="MSShapeGroup"></path>
            <path d="M41.661,10 C41.661,10 38.905,6.683 35.75,7.668 C34.897,7.935 34.198,8.521 33.702,9.258 C33.17,11.243 31.959,12.822 30.42,13.553 C29.903,13.829 29.319,14 28.66,14 C28.632,14 28.606,13.996 28.578,13.995 C28.552,13.995 28.526,14 28.5,14 C25.929,14 23.777,11.752 23.174,8.719 C22.733,8.244 22.199,7.865 21.57,7.668 C18.416,6.683 15.66,10 15.66,10 C14.093,11.568 13.817,13.336 14.093,14.945 C15.753,15.621 17.279,16.631 18.604,17.921 C18.659,17.893 18.711,17.86 18.767,17.834 C20.991,16.787 24.206,16 28.844,16 C33.756,16 37.069,16.883 39.302,18.021 C40.447,16.885 41.75,15.966 43.158,15.286 C43.534,13.588 43.339,11.679 41.661,10" id="Fill-290" fill="#F0C419" sketch:type="MSShapeGroup"></path>
            <path d="M21,31 C21,31.552 21.448,32 22,32 C22.552,32 23,31.552 23,31 C23,30.448 22.552,30 22,30 C21.448,30 21,30.448 21,31" id="Fill-303" fill="#556080" sketch:type="MSShapeGroup"></path>
            <path d="M35,31 C35,31.552 35.448,32 36,32 C36.552,32 37,31.552 37,31 C37,30.448 36.552,30 36,30 C35.448,30 35,30.448 35,31" id="Fill-304" fill="#556080" sketch:type="MSShapeGroup"></path>
            <path d="M34.02,40.869 C34.006,39.411 33.848,36.837 33,35 C30.791,37.209 27.209,37.209 25,35 C24.144,36.855 23.991,39.452 23.98,40.905 C23.984,41.575 24,42 24,42 C24,42 23.062,57 29,57 C34.937,57 34,42 34,42 C34,42 34.017,41.559 34.02,40.869" id="Fill-535" fill="#F3D55B" sketch:type="MSShapeGroup"></path>
            <path d="M31,43 L27,43 C26.448,43 26,42.553 26,42 C26,41.447 26.448,41 27,41 L31,41 C31.552,41 32,41.447 32,42 C32,42.553 31.552,43 31,43" id="Fill-536" fill="#D8BF52" sketch:type="MSShapeGroup"></path>
            <path d="M30,54 L28,54 C27.448,54 27,53.553 27,53 C27,52.447 27.448,52 28,52 L30,52 C30.552,52 31,52.447 31,53 C31,53.553 30.552,54 30,54" id="Fill-537" fill="#D8BF52" sketch:type="MSShapeGroup"></path>
            <path d="M31,49 L27,49 C26.448,49 26,48.553 26,48 C26,47.447 26.448,47 27,47 L31,47 C31.552,47 32,47.447 32,48 C32,48.553 31.552,49 31,49" id="Fill-538" fill="#D8BF52" sketch:type="MSShapeGroup"></path>
        </g>
    </g>
</svg>