<?xml version="1.0" encoding="UTF-8" standalone="no"?>
<svg width="55px" height="57px" viewBox="0 0 55 57" version="1.1" xmlns="http://www.w3.org/2000/svg" xmlns:xlink="http://www.w3.org/1999/xlink" xmlns:sketch="http://www.bohemiancoding.com/sketch/ns">
    <!-- Generator: Sketch 3.2.2 (9983) - http://www.bohemiancoding.com/sketch -->
    <title>11 - Hinduism (Flat)</title>
    <desc>Created with Sketch.</desc>
    <defs></defs>
    <g id="Page-1" stroke="none" stroke-width="1" fill="none" fill-rule="evenodd" sketch:type="MSPage">
        <g id="11---Hinduism-(Flat)" sketch:type="MSLayerGroup" transform="translate(-1.000000, -1.000000)" fill="#8697CB">
            <path d="M9.339,20.582 C11.361,18.27 15.248,16.827 18.992,19.665 C20.001,20.43 20.781,21.484 21.163,22.691 C22.417,26.654 20.315,30.526 16.927,31.608 C15.764,31.979 15,33.091 15,34.31 L15,34.388 C15,35.802 16.038,36.961 17.428,37.221 C21.808,38.041 24.906,41.059 24.906,44.84 C24.906,49.287 18.875,53 15,53 C8.855,53 1.752,40.256 1.051,39.086 C1.023,39.097 1.025,39.096 0.998,39.107 C0.794,50.093 7.552,58 14.717,58 C23.144,58 30,52.096 30,44.84 C30,43.694 29.844,42.604 29.545,41.575 C32.698,40.483 39.89,37.362 43.763,30.256 C44.137,29.571 44.808,29.151 45.508,29.151 C45.566,29.151 45.624,29.154 45.682,29.159 C47.96,29.39 49.487,31.023 50.347,34.153 C51.421,38.055 50.94,42.35 49.027,45.933 C47.624,48.561 46.026,49.893 44.228,49.894 C44.228,49.894 44.228,49.894 44.227,49.894 C44.169,49.894 41.866,49.862 40.441,48.462 C39.989,48.019 35.715,44.493 34.256,44.046 C34.121,44.005 33.986,44.098 33.973,44.239 C33.887,45.216 33.782,49.007 36.872,52.097 C39.651,54.876 43.494,54.989 44.195,54.989 C44.23,54.989 44.256,54.988 44.275,54.988 C46.872,54.988 50.584,53.833 53.521,48.332 C56.042,43.61 56.676,37.949 55.259,32.801 C53.341,25.826 48.756,24.35 46.193,24.091 C45.963,24.068 45.733,24.057 45.504,24.057 C42.952,24.057 40.565,25.481 39.291,27.818 C36.024,33.81 29.466,36.321 27.01,37.084 C26,35.963 24.762,34.985 23.321,34.176 C23.162,34.086 23.133,33.878 23.263,33.75 C26.197,30.855 27.406,26.108 26.134,21.501 C24.695,16.294 19.74,12.889 14.339,13.004 C11.167,13.072 8.305,13.903 6.228,15.786 C6.094,15.907 6.068,16.112 6.161,16.268 L8.723,20.538 C8.857,20.763 9.167,20.778 9.339,20.582" id="Fill-268" sketch:type="MSShapeGroup"></path>
            <path d="M35.859,19.353 C35.301,19.353 34.743,19.319 34.184,19.251 C27.219,18.41 24.563,11.042 24.008,9.211 C23.963,9.066 24.119,8.946 24.249,9.026 C25.61,9.865 30.615,12.794 34.933,13.298 C35.226,13.332 35.522,13.35 35.818,13.35 C38.414,13.35 41.147,12.043 43.965,9.453 C44.427,9.028 45.149,9.058 45.593,9.502 L48.156,12.065 C48.626,12.536 48.627,13.311 48.14,13.764 C44.14,17.479 40.02,19.353 35.859,19.353" id="Fill-269" sketch:type="MSShapeGroup"></path>
            <path d="M40.611,6.09 L36.338,10.363 C36.152,10.55 35.848,10.55 35.661,10.363 L31.389,6.09 C31.202,5.903 31.202,5.6 31.389,5.413 L35.661,1.14 C35.848,0.953 36.152,0.953 36.338,1.14 L40.611,5.413 C40.798,5.6 40.798,5.903 40.611,6.09" id="Fill-270" sketch:type="MSShapeGroup"></path>
        </g>
    </g>
</svg>