<?xml version="1.0" encoding="UTF-8" standalone="no"?>
<svg width="55px" height="58px" viewBox="0 0 55 58" version="1.1" xmlns="http://www.w3.org/2000/svg" xmlns:xlink="http://www.w3.org/1999/xlink" xmlns:sketch="http://www.bohemiancoding.com/sketch/ns">
    <!-- Generator: Sketch 3.2.2 (9983) - http://www.bohemiancoding.com/sketch -->
    <title>41 - Holy Trinity (Flat)</title>
    <desc>Created with Sketch.</desc>
    <defs></defs>
    <g id="Page-1" stroke="none" stroke-width="1" fill="none" fill-rule="evenodd" sketch:type="MSPage">
        <g id="41---Holy-Trinity-(Flat)" sketch:type="MSLayerGroup" transform="translate(-1.000000, 0.000000)">
            <path d="M37.767,28.993 C36.459,33.568 33.94,37.891 30.193,41.485 L28.629,42.985 C33.193,52.157 42.668,58.268 53.777,57.991 L55.938,57.937 L55.991,55.759 C56.299,43.243 48.691,32.777 37.767,28.993" id="Fill-524" fill="#F29C1F" sketch:type="MSShapeGroup"></path>
            <path d="M19.467,28.918 C8.419,32.634 0.699,43.155 1.009,55.759 L1.063,57.937 L3.223,57.991 C14.399,58.27 23.921,52.083 28.452,42.818 L27.062,41.485 C23.294,37.871 20.768,33.521 19.467,28.918" id="Fill-525" fill="#E57E25" sketch:type="MSShapeGroup"></path>
            <path d="M25.779,27.541 L27.277,27.503 C27.489,27.496 27.702,27.491 27.915,27.487 L27.94,27.487 C28.128,27.482 28.313,27.488 28.5,27.487 C28.687,27.488 28.872,27.482 29.06,27.487 L29.085,27.487 C29.298,27.491 29.511,27.496 29.723,27.503 L31.221,27.541 L31.222,27.599 C33.502,27.804 35.695,28.275 37.767,28.993 C40.476,19.514 37.957,8.949 30.193,1.502 L28.627,0 L27.062,1.502 C19.318,8.929 16.792,19.459 19.467,28.918 C21.47,28.245 23.583,27.796 25.778,27.599 L25.779,27.541" id="Fill-526" fill="#F3D55B" sketch:type="MSShapeGroup"></path>
            <path d="M28.452,42.818 L28.627,42.987 L28.629,42.985 C28.586,42.897 28.543,42.809 28.5,42.72 C28.484,42.753 28.468,42.786 28.452,42.818" id="Fill-527" fill="#F3D55B" sketch:type="MSShapeGroup"></path>
            <path d="M25.779,27.541 L25.778,27.599 C26.273,27.554 26.773,27.522 27.277,27.503 L25.779,27.541" id="Fill-528" fill="#F3D55B" sketch:type="MSShapeGroup"></path>
            <path d="M27.94,27.487 L27.915,27.487 C28.109,27.485 28.305,27.486 28.5,27.487 C28.313,27.488 28.128,27.482 27.94,27.487" id="Fill-529" fill="#F3D55B" sketch:type="MSShapeGroup"></path>
            <path d="M29.085,27.487 L29.723,27.503 C29.511,27.496 29.298,27.491 29.085,27.487" id="Fill-530" fill="#F3D55B" sketch:type="MSShapeGroup"></path>
            <path d="M27.277,27.503 L27.915,27.487 C27.702,27.491 27.489,27.496 27.277,27.503" id="Fill-531" fill="#F3D55B" sketch:type="MSShapeGroup"></path>
            <path d="M29.723,27.503 C30.227,27.522 30.727,27.554 31.222,27.599 L31.221,27.541 L29.723,27.503" id="Fill-532" fill="#F3D55B" sketch:type="MSShapeGroup"></path>
            <path d="M29.06,27.487 C28.872,27.482 28.687,27.488 28.5,27.487 C28.695,27.486 28.891,27.485 29.085,27.487 L29.06,27.487" id="Fill-533" fill="#F3D55B" sketch:type="MSShapeGroup"></path>
            <path d="M31.222,27.599 C30.727,27.554 30.227,27.522 29.723,27.503 L29.085,27.487 C28.891,27.485 28.695,27.486 28.5,27.487 C28.305,27.486 28.109,27.485 27.915,27.487 L27.277,27.503 C26.773,27.522 26.273,27.554 25.778,27.599 C23.583,27.796 21.47,28.245 19.467,28.918 C20.768,33.521 23.294,37.871 27.062,41.485 L28.452,42.818 C28.468,42.786 28.484,42.753 28.5,42.72 C28.543,42.809 28.586,42.897 28.629,42.985 L30.193,41.485 C33.94,37.891 36.459,33.568 37.767,28.993 C35.695,28.275 33.502,27.804 31.222,27.599" id="Fill-534" fill="#F0C419" sketch:type="MSShapeGroup"></path>
        </g>
    </g>
</svg>