<?xml version="1.0" encoding="UTF-8" standalone="no"?>
<svg width="56px" height="56px" viewBox="0 0 56 56" version="1.1" xmlns="http://www.w3.org/2000/svg" xmlns:xlink="http://www.w3.org/1999/xlink" xmlns:sketch="http://www.bohemiancoding.com/sketch/ns">
    <!-- Generator: Sketch 3.2.2 (9983) - http://www.bohemiancoding.com/sketch -->
    <title>18 - Islamism (Flat)</title>
    <desc>Created with Sketch.</desc>
    <defs></defs>
    <g id="Page-1" stroke="none" stroke-width="1" fill="none" fill-rule="evenodd" sketch:type="MSPage">
        <g id="18---Islamism-(Flat)" sketch:type="MSLayerGroup">
            <path d="M56,28 C56,43.464 43.464,56 28,56 C12.536,56 0,43.464 0,28 C0,12.536 12.536,0 28,0 C43.464,0 56,12.536 56,28" id="Fill-222" fill="#13A085" sketch:type="MSShapeGroup"></path>
            <path d="M20,28 C20,19.062 25.895,11.477 34,8.922 C32.105,8.325 30.09,8 28,8 C16.972,8 8,16.972 8,28 C8,39.028 16.972,48 28,48 C30.09,48 32.105,47.675 34,47.078 C25.895,44.523 20,36.938 20,28" id="Fill-225" fill="#FFFFFF" sketch:type="MSShapeGroup"></path>
            <path d="M38,20.398 L40.528,25.52 L46.181,26.342 L42.091,30.329 L43.056,35.959 L38,33.301 L32.944,35.959 L33.909,30.329 L29.819,26.342 L35.472,25.52 L38,20.398" id="Fill-228" fill="#FFFFFF" sketch:type="MSShapeGroup"></path>
        </g>
    </g>
</svg>