<?xml version="1.0" encoding="UTF-8" standalone="no"?>
<svg width="58px" height="59px" viewBox="0 0 58 59" version="1.1" xmlns="http://www.w3.org/2000/svg" xmlns:xlink="http://www.w3.org/1999/xlink" xmlns:sketch="http://www.bohemiancoding.com/sketch/ns">
    <!-- Generator: Sketch 3.2.2 (9983) - http://www.bohemiancoding.com/sketch -->
    <title>13 - Jainism (Flat)</title>
    <desc>Created with Sketch.</desc>
    <defs></defs>
    <g id="Page-1" stroke="none" stroke-width="1" fill="none" fill-rule="evenodd" sketch:type="MSPage">
        <g id="13---Jainism-(Flat)" sketch:type="MSLayerGroup">
            <path d="M58,29 C58,45.016 45.016,58 29,58 C12.984,58 0,45.016 0,29 C0,12.984 12.984,0 29,0 C45.016,0 58,12.984 58,29" id="Fill-32" fill="#CBB292" sketch:type="MSShapeGroup"></path>
            <path d="M38,24.35 L38,13.481 C38,12.03 37.028,10.692 35.604,10.41 C33.693,10.03 32,11.502 32,13.35 L32,6.481 C32,5.03 31.028,3.692 29.604,3.41 C27.693,3.03 26,4.502 26,6.35 L26,10.35 C26,8.502 24.307,7.03 22.395,7.41 C20.972,7.692 20,9.03 20,10.481 L20,20.35 C20,18.502 18.307,17.03 16.396,17.41 C14.972,17.692 14,19.03 14,20.481 L14,42.604 C14,50.257 19.572,56.977 27.171,57.89 C36.228,58.978 44,51.852 44,43 L44,32 C44,29.059 44.328,28.123 45.045,25.271 C45.131,24.93 45.216,24.617 45.299,24.349 C45.832,22.616 44.33,20.89 42.56,21.285 C40.142,21.825 38,24.35 38,24.35" id="Fill-511" fill="#FDD7AD" sketch:type="MSShapeGroup"></path>
            <path d="M45.734,21.594 C44.954,20.539 43.613,20.027 42.343,20.31 C41.077,20.592 39.902,21.324 39,22.037 L39,13.35 C39,12.167 38.474,11.115 37.656,10.382 C37.615,10.344 37.57,10.311 37.528,10.275 C37.402,10.172 37.276,10.069 37.138,9.982 C37.011,9.899 36.875,9.832 36.739,9.764 C36.666,9.729 36.598,9.686 36.523,9.655 C36.292,9.558 36.051,9.479 35.799,9.429 C35.546,9.379 35.292,9.356 35.041,9.354 C35.027,9.354 35.014,9.35 35,9.35 C34.813,9.35 34.63,9.368 34.45,9.401 C33.931,9.473 33.435,9.635 33,9.887 L33,6.35 C33,5.167 32.474,4.114 31.656,3.382 C31.615,3.344 31.57,3.311 31.528,3.276 C31.402,3.172 31.276,3.069 31.138,2.982 C31.011,2.899 30.875,2.832 30.739,2.764 C30.666,2.729 30.598,2.686 30.523,2.655 C30.292,2.558 30.051,2.479 29.799,2.429 C29.535,2.376 29.266,2.35 29.001,2.35 C28.449,2.35 27.923,2.462 27.445,2.665 C27.21,2.764 26.988,2.886 26.779,3.026 C26.775,3.029 26.77,3.031 26.766,3.034 C25.914,3.609 25.295,4.504 25.081,5.545 C25.028,5.805 25,6.074 25,6.35 L25,6.887 C24.815,6.779 24.617,6.692 24.415,6.615 C24.373,6.599 24.33,6.586 24.288,6.572 C24.107,6.51 23.92,6.46 23.729,6.425 C23.699,6.419 23.672,6.412 23.642,6.407 C23.433,6.373 23.219,6.35 23,6.35 C22.988,6.35 22.977,6.353 22.965,6.354 C22.712,6.355 22.456,6.378 22.201,6.429 C21.949,6.479 21.708,6.558 21.477,6.655 C21.402,6.686 21.334,6.729 21.261,6.764 C21.125,6.832 20.989,6.899 20.862,6.982 C20.724,7.069 20.598,7.172 20.472,7.275 C20.43,7.311 20.385,7.344 20.344,7.382 C19.526,8.115 19,9.167 19,10.35 L19,16.887 C18.814,16.779 18.616,16.692 18.413,16.615 C18.372,16.599 18.331,16.586 18.29,16.572 C18.106,16.509 17.916,16.459 17.721,16.423 C17.696,16.419 17.671,16.412 17.646,16.408 C17.435,16.373 17.22,16.35 17,16.35 C16.987,16.35 16.975,16.354 16.962,16.354 C16.71,16.355 16.455,16.379 16.201,16.429 C15.949,16.479 15.708,16.558 15.477,16.655 C15.402,16.686 15.334,16.729 15.261,16.764 C15.125,16.832 14.989,16.899 14.862,16.982 C14.724,17.069 14.598,17.172 14.472,17.276 C14.43,17.311 14.385,17.344 14.344,17.382 C13.526,18.115 13,19.168 13,20.35 L13,42.603 C13,50.922 19.041,57.921 27.052,58.883 C27.699,58.961 28.354,59 29,59 C37.822,59 45,51.823 45,43 L45,32 C45,29.494 45.234,28.576 45.801,26.359 L46.015,25.516 C46.096,25.194 46.176,24.898 46.255,24.644 C46.578,23.592 46.389,22.481 45.734,21.594 L45.734,21.594 Z M44.344,24.053 C44.256,24.335 44.166,24.666 44.075,25.027 L43.862,25.864 C43.288,28.113 43,29.243 43,32 L43,43 C43,50.72 36.72,57 29,57 C28.434,57 27.858,56.965 27.29,56.897 C20.283,56.056 15,49.911 15,42.603 L15,20.481 C15,19.605 15.513,18.815 16.239,18.502 C16.474,18.405 16.731,18.35 17,18.35 C17.965,18.35 18.772,19.037 18.959,19.947 C18.986,20.078 19,20.212 19,20.35 L19,28 C19,28.552 19.447,29 20,29 C20.553,29 21,28.552 21,28 L21,10.481 C21,9.605 21.513,8.815 22.239,8.502 C22.366,8.45 22.5,8.412 22.639,8.387 C22.774,8.363 22.908,8.351 23.038,8.354 C23.08,8.355 23.119,8.363 23.16,8.366 C23.265,8.375 23.368,8.387 23.468,8.411 C23.513,8.422 23.556,8.438 23.6,8.452 C23.69,8.481 23.777,8.512 23.86,8.552 C23.906,8.574 23.949,8.599 23.993,8.624 C24.068,8.668 24.14,8.715 24.209,8.767 C24.251,8.8 24.292,8.833 24.331,8.869 C24.393,8.924 24.45,8.984 24.505,9.047 C24.541,9.088 24.577,9.129 24.609,9.174 C24.658,9.241 24.701,9.313 24.741,9.386 C24.767,9.433 24.796,9.479 24.818,9.528 C24.856,9.611 24.883,9.699 24.91,9.788 C24.923,9.833 24.941,9.876 24.952,9.923 C24.982,10.061 25,10.203 25,10.35 L25,29 C25,29.552 25.447,30 26,30 C26.553,30 27,29.552 27,29 L27,6.35 C27,6.203 27.018,6.06 27.048,5.922 C27.058,5.877 27.076,5.835 27.089,5.791 C27.116,5.701 27.144,5.611 27.182,5.527 C27.204,5.479 27.232,5.435 27.257,5.389 C27.299,5.314 27.342,5.24 27.392,5.172 C27.424,5.129 27.459,5.089 27.494,5.048 C27.549,4.985 27.607,4.924 27.67,4.867 C27.709,4.832 27.75,4.799 27.791,4.767 C27.86,4.715 27.932,4.667 28.008,4.624 C28.052,4.599 28.095,4.573 28.141,4.551 C28.223,4.512 28.309,4.481 28.397,4.453 C28.443,4.439 28.488,4.422 28.535,4.41 C28.631,4.387 28.731,4.376 28.832,4.367 C28.876,4.363 28.919,4.355 28.964,4.354 C29.093,4.351 29.225,4.363 29.358,4.386 C29.498,4.412 29.633,4.449 29.761,4.502 C30.487,4.815 31,5.605 31,6.481 L31,27 C31,27.552 31.447,28 32,28 C32.553,28 33,27.552 33,27 L33,14 C33,12.852 33.954,11.379 34.975,11.354 C35.1,11.353 35.228,11.364 35.357,11.386 C35.497,11.412 35.632,11.449 35.761,11.502 C36.487,11.815 37,12.605 37,13.481 L37,29 C37,29.552 37.447,30 38,30 C38.553,30 39,29.552 39,29 L39,24.735 C39.71,23.982 41.262,22.6 42.778,22.262 C43.295,22.144 43.804,22.348 44.125,22.783 C44.398,23.153 44.479,23.617 44.344,24.053 L44.344,24.053 Z" id="Fill-512" fill="#FAC176" sketch:type="MSShapeGroup"></path>
            <path d="M29,32 C23.477,32 19,36.477 19,42 C19,47.523 23.477,52 29,52 C34.523,52 39,47.523 39,42 C39,36.477 34.523,32 29,32 L29,32 Z M29,48 C25.691,48 23,45.309 23,42 C23,38.691 25.691,36 29,36 C32.309,36 35,38.691 35,42 C35,45.309 32.309,48 29,48 L29,48 Z" id="Fill-513" fill="#8697CB" sketch:type="MSShapeGroup"></path>
        </g>
    </g>
</svg>