<?xml version="1.0" encoding="UTF-8" standalone="no"?>
<svg width="58px" height="57px" viewBox="0 0 58 57" version="1.1" xmlns="http://www.w3.org/2000/svg" xmlns:xlink="http://www.w3.org/1999/xlink" xmlns:sketch="http://www.bohemiancoding.com/sketch/ns">
    <!-- Generator: Sketch 3.2.2 (9983) - http://www.bohemiancoding.com/sketch -->
    <title>2 - Judaic Church (Flat)</title>
    <desc>Created with Sketch.</desc>
    <defs></defs>
    <g id="Page-1" stroke="none" stroke-width="1" fill="none" fill-rule="evenodd" sketch:type="MSPage">
        <g id="2---Judaic-Church-(Flat)" sketch:type="MSLayerGroup">
            <path d="M50,11 L50,36 L29,0 L8,36 L8,11 L4,5 L0,11 L0,57 L58,57 L58,11 L54,5 L50,11" id="Fill-4" fill="#E2DBCA" sketch:type="MSShapeGroup"></path>
            <path d="M8,20 L8,11 L4,5 L0,11 L0,20 L8,20" id="Fill-5" fill="#8697CB" sketch:type="MSShapeGroup"></path>
            <path d="M50,11 L50,20 L58,20 L58,11 L54,5 L50,11" id="Fill-6" fill="#8697CB" sketch:type="MSShapeGroup"></path>
            <path d="M4,18 C3.447,18 3,17.553 3,17 L3,11 C3,10.447 3.447,10 4,10 C4.553,10 5,10.447 5,11 L5,17 C5,17.553 4.553,18 4,18" id="Fill-473" fill="#556080" sketch:type="MSShapeGroup"></path>
            <path d="M54,18 C53.447,18 53,17.553 53,17 L53,11 C53,10.447 53.447,10 54,10 C54.553,10 55,10.447 55,11 L55,17 C55,17.553 54.553,18 54,18" id="Fill-474" fill="#556080" sketch:type="MSShapeGroup"></path>
            <path d="M26,57 L18,57 L18,47 C18,44.791 19.791,43 22,43 C24.209,43 26,44.791 26,47 L26,57" id="Fill-475" fill="#554658" sketch:type="MSShapeGroup"></path>
            <path d="M13,57 L5,57 L5,47 C5,44.791 6.791,43 9,43 C11.209,43 13,44.791 13,47 L13,57" id="Fill-476" fill="#554658" sketch:type="MSShapeGroup"></path>
            <path d="M40,57 L32,57 L32,47 C32,44.791 33.791,43 36,43 C38.209,43 40,44.791 40,47 L40,57" id="Fill-477" fill="#554658" sketch:type="MSShapeGroup"></path>
            <path d="M53,57 L45,57 L45,47 C45,44.791 46.791,43 49,43 C51.209,43 53,44.791 53,47 L53,57" id="Fill-478" fill="#554658" sketch:type="MSShapeGroup"></path>
            <path d="M40.823,36 L17,36 L29,16 L40.823,36 L40.823,36 Z M17.177,23 L41,23 L29,43 L17.177,23 L17.177,23 Z" id="Stroke-514" stroke="#8697CB" stroke-width="2" stroke-linecap="round" stroke-linejoin="round" sketch:type="MSShapeGroup"></path>
        </g>
    </g>
</svg>