<?xml version="1.0" encoding="UTF-8" standalone="no"?>
<svg width="56px" height="56px" viewBox="0 0 56 56" version="1.1" xmlns="http://www.w3.org/2000/svg" xmlns:xlink="http://www.w3.org/1999/xlink" xmlns:sketch="http://www.bohemiancoding.com/sketch/ns">
    <!-- Generator: Sketch 3.2.2 (9983) - http://www.bohemiancoding.com/sketch -->
    <title>20 - Judaism (Flat)</title>
    <desc>Created with Sketch.</desc>
    <defs></defs>
    <g id="Page-1" stroke="none" stroke-width="1" fill="none" fill-rule="evenodd" sketch:type="MSPage">
        <g id="20---Judaism-(Flat)" sketch:type="MSLayerGroup">
            <path d="M56,28 C56,43.464 43.464,56 28,56 C12.536,56 0,43.464 0,28 C0,12.536 12.536,0 28,0 C43.464,0 56,12.536 56,28" id="Fill-37" fill="#8DC3E3" sketch:type="MSShapeGroup"></path>
            <path d="M52,42 L4,42 L28,1 L52,42 L52,42 Z M4,14 L52,14 L28,55 L4,14 L4,14 Z" id="Stroke-220" stroke="#556080" stroke-width="2" stroke-linecap="round" stroke-linejoin="round" sketch:type="MSShapeGroup"></path>
            <path d="M12.195,28 L20.39,42 L35.61,42 L43.805,28 L35.61,14 L20.39,14 L12.195,28 L12.195,28 Z" id="Stroke-516" stroke="#556080" stroke-width="2" stroke-linecap="round" stroke-linejoin="round" sketch:type="MSShapeGroup"></path>
        </g>
    </g>
</svg>