<?xml version="1.0" encoding="UTF-8" standalone="no"?>
<svg width="54px" height="58px" viewBox="0 0 54 58" version="1.1" xmlns="http://www.w3.org/2000/svg" xmlns:xlink="http://www.w3.org/1999/xlink" xmlns:sketch="http://www.bohemiancoding.com/sketch/ns">
    <!-- Generator: Sketch 3.2.2 (9983) - http://www.bohemiancoding.com/sketch -->
    <title>10 - Mosque (Flat)</title>
    <desc>Created with Sketch.</desc>
    <defs></defs>
    <g id="Page-1" stroke="none" stroke-width="1" fill="none" fill-rule="evenodd" sketch:type="MSPage">
        <g id="10---Mosque-(Flat)" sketch:type="MSLayerGroup" transform="translate(0.000000, -1.000000)">
            <path d="M15.107,24.043 L6.9,24.043 C6.579,24.043 6.282,23.979 6,23.883 L6,34 L16,34 L16,23.824 C15.759,23.956 15.484,24.043 15.107,24.043" id="Fill-1" fill="#BDC3C7" sketch:type="MSShapeGroup"></path>
            <path d="M47.107,24.043 L38.9,24.043 C38.579,24.043 38.282,23.979 38,23.883 L38,34 L48,34 L48,23.824 C47.759,23.956 47.484,24.043 47.107,24.043" id="Fill-2" fill="#BDC3C7" sketch:type="MSShapeGroup"></path>
            <path d="M54,59 L0,59 L0,40.661 C0,35.877 3.877,32 8.66,32 L45.339,32 C50.123,32 54,35.877 54,40.661 L54,59" id="Fill-254" fill="#D6DCE5" sketch:type="MSShapeGroup"></path>
            <path d="M33.153,10.148 C27.699,6.703 27.003,0.951 27,1 C26.996,0.951 26.301,6.703 20.847,10.148 C18.263,11.781 17.184,14.812 18.475,17.375 C19.037,18.491 20.241,19 21.637,19 L33,19 C34.395,19 34.963,18.491 35.525,17.375 C36.815,14.812 35.737,11.781 33.153,10.148" id="Fill-255" fill="#556080" sketch:type="MSShapeGroup"></path>
            <path d="M15.217,17.607 C11.279,15.119 10.776,10.964 10.774,11 C10.771,10.964 10.268,15.119 6.33,17.607 C4.464,18.786 3.685,20.975 4.617,22.826 C5.022,23.632 5.892,24 6.9,24 L15.107,24 C16.115,24 16.525,23.632 16.93,22.826 C17.863,20.975 17.084,18.786 15.217,17.607" id="Fill-259" fill="#8697CB" sketch:type="MSShapeGroup"></path>
            <path d="M27,19 L26.99,19 C26.99,19 21.1,18.986 20.995,18.976 L21,32 L33,32 L32.995,18.976 C32.89,18.986 27,19 27,19" id="Fill-260" fill="#BDC3C7" sketch:type="MSShapeGroup"></path>
            <path d="M47.217,17.607 C43.279,15.119 42.776,10.964 42.774,11 C42.771,10.964 42.268,15.119 38.33,17.607 C36.463,18.786 35.685,20.975 36.617,22.826 C37.022,23.632 37.892,24 38.9,24 L47.107,24 C48.115,24 48.525,23.632 48.93,22.826 C49.863,20.975 49.084,18.786 47.217,17.607" id="Fill-261" fill="#8697CB" sketch:type="MSShapeGroup"></path>
            <path d="M25,22 C24.448,22 24,22.447 24,23 L24,29 C24,29.553 24.448,30 25,30 C25.552,30 26,29.553 26,29 L26,23 C26,22.447 25.552,22 25,22" id="Fill-262" fill="#D6DCE5" sketch:type="MSShapeGroup"></path>
            <path d="M29,22 C28.448,22 28,22.447 28,23 L28,29 C28,29.553 28.448,30 29,30 C29.552,30 30,29.553 30,29 L30,23 C30,22.447 29.552,22 29,22" id="Fill-263" fill="#D6DCE5" sketch:type="MSShapeGroup"></path>
            <path d="M43,26 C42.448,26 42,26.447 42,27 L42,29 C42,29.553 42.448,30 43,30 C43.552,30 44,29.553 44,29 L44,27 C44,26.447 43.552,26 43,26" id="Fill-264" fill="#D6DCE5" sketch:type="MSShapeGroup"></path>
            <path d="M11,26 C10.448,26 10,26.447 10,27 L10,29 C10,29.553 10.448,30 11,30 C11.552,30 12,29.553 12,29 L12,27 C12,26.447 11.552,26 11,26" id="Fill-265" fill="#D6DCE5" sketch:type="MSShapeGroup"></path>
            <path d="M21,59 L21,44.5 C21,40.925 23.925,38 27.5,38 C31.075,38 34,40.925 34,44.5 L34,59 L21,59" id="Fill-266" fill="#F79657" sketch:type="MSShapeGroup"></path>
            <path d="M25,59 L25,46.5 C25,45.144 26.145,44 27.5,44 C28.855,44 30,45.144 30,46.5 L30,59 L25,59" id="Fill-267" fill="#F4CF6C" sketch:type="MSShapeGroup"></path>
            <path d="M49,54 L39,54 L39,43 C39,40.239 41.239,38 44,38 C46.761,38 49,40.239 49,43 L49,54" id="Fill-299" fill="#556080" sketch:type="MSShapeGroup"></path>
            <path d="M15,54 L5,54 L5,43 C5,40.239 7.239,38 10,38 C12.761,38 15,40.239 15,43 L15,54" id="Fill-300" fill="#556080" sketch:type="MSShapeGroup"></path>
            <path d="M15,45 L15,43 L11,43 L11,38.101 C10.677,38.035 10.342,38 10,38 C9.657,38 9.323,38.035 9,38.101 L9,43 L5,43 L5,45 L9,45 L9,48 L5,48 L5,50 L9,50 L9,54 L11,54 L11,50 L15,50 L15,48 L11,48 L11,45 L15,45" id="Fill-301" fill="#8697CB" sketch:type="MSShapeGroup"></path>
            <path d="M49,45 L49,43 L45,43 L45,38.101 C44.677,38.035 44.342,38 44,38 C43.657,38 43.323,38.035 43,38.101 L43,43 L39,43 L39,45 L43,45 L43,48 L39,48 L39,50 L43,50 L43,54 L45,54 L45,50 L49,50 L49,48 L45,48 L45,45 L49,45" id="Fill-302" fill="#8697CB" sketch:type="MSShapeGroup"></path>
        </g>
    </g>
</svg>