<?xml version="1.0" encoding="UTF-8" standalone="no"?>
<svg width="43px" height="57px" viewBox="0 0 43 57" version="1.1" xmlns="http://www.w3.org/2000/svg" xmlns:xlink="http://www.w3.org/1999/xlink" xmlns:sketch="http://www.bohemiancoding.com/sketch/ns">
    <!-- Generator: Sketch 3.2.2 (9983) - http://www.bohemiancoding.com/sketch -->
    <title>30 - Papal Gown (Flat)</title>
    <desc>Created with Sketch.</desc>
    <defs></defs>
    <g id="Page-1" stroke="none" stroke-width="1" fill="none" fill-rule="evenodd" sketch:type="MSPage">
        <g id="30---Papal-Gown-(Flat)" sketch:type="MSLayerGroup" transform="translate(-1.000000, 0.000000)">
            <path d="M39.363,21.779 L22.19,0.065 C22.167,0.074 22.166,0.074 22.143,0.083 C22.119,0.074 22.118,0.074 22.095,0.065 L4.922,21.779 C1.347,25.627 0.102,31.093 1.659,36.11 L8.143,57 L36.143,57 L42.626,36.11 C44.183,31.093 42.938,25.627 39.363,21.779" id="Fill-33" fill="#E4E5DA" sketch:type="MSShapeGroup"></path>
            <path d="M32.143,30 L25.117,30 L25.143,22 L19.143,22 L19.143,30 L12.143,30 L12.143,36 L19.143,36 L19.143,50 L25.143,50 L25.143,36 L32.143,35.974 L32.143,30" id="Fill-158" fill="#C3B17C" sketch:type="MSShapeGroup"></path>
        </g>
    </g>
</svg>