<?xml version="1.0" encoding="UTF-8" standalone="no"?>
<svg width="40px" height="53px" viewBox="0 0 40 53" version="1.1" xmlns="http://www.w3.org/2000/svg" xmlns:xlink="http://www.w3.org/1999/xlink" xmlns:sketch="http://www.bohemiancoding.com/sketch/ns">
    <!-- Generator: Sketch 3.2.2 (9983) - http://www.bohemiancoding.com/sketch -->
    <title>22 - Prayer (Flat)</title>
    <desc>Created with Sketch.</desc>
    <defs></defs>
    <g id="Page-1" stroke="none" stroke-width="1" fill="none" fill-rule="evenodd" sketch:type="MSPage">
        <g id="22---Prayer-(Flat)" sketch:type="MSLayerGroup" fill="#556080">
            <path d="M37,7 C37,10.866 33.866,14 30,14 C26.134,14 23,10.866 23,7 C23,3.134 26.134,0 30,0 C33.866,0 37,3.134 37,7" id="Fill-217" sketch:type="MSShapeGroup"></path>
            <path d="M26.447,49.475 C26.429,49.377 26.401,49.285 26.374,49.191 C26.348,49.096 26.322,49.001 26.286,48.909 C26.254,48.827 26.213,48.75 26.174,48.671 C26.125,48.572 26.076,48.474 26.016,48.38 C25.975,48.317 25.928,48.26 25.882,48.2 C25.81,48.104 25.737,48.009 25.652,47.922 C25.597,47.865 25.536,47.816 25.476,47.764 C25.408,47.703 25.348,47.636 25.273,47.581 C25.273,47.581 20.013,43.892 16.731,41.591 C15.339,40.615 15.073,38.667 16.144,37.348 L25.361,26 C27.941,22.781 27.417,18.037 24.198,15.457 C20.979,12.878 16.235,13.401 13.656,16.62 L2.456,30.409 C-0.123,33.628 0.4,38.372 3.619,40.952 C4.208,41.423 5.15,41.792 6.033,42.058 C7.675,42.554 9.234,43.293 10.619,44.305 L13.928,46.723 C14.048,46.811 13.986,47 13.838,47 L4.632,47 C3.181,47 1.843,47.972 1.56,49.395 C1.18,51.307 2.652,53 4.5,53 L23.5,53 C23.57,53 23.635,52.984 23.704,52.979 C23.815,52.972 23.926,52.965 24.035,52.946 C24.12,52.93 24.2,52.905 24.282,52.883 C24.393,52.853 24.502,52.823 24.609,52.781 C24.671,52.756 24.729,52.725 24.789,52.696 C24.91,52.638 25.029,52.577 25.143,52.503 C25.179,52.479 25.211,52.452 25.246,52.426 C25.371,52.337 25.491,52.242 25.602,52.132 C25.625,52.11 25.644,52.084 25.666,52.061 C25.755,51.968 25.848,51.88 25.926,51.773 C25.946,51.745 25.957,51.714 25.977,51.685 C25.993,51.661 26.005,51.634 26.021,51.61 C26.11,51.47 26.193,51.327 26.256,51.178 C26.271,51.144 26.279,51.106 26.292,51.072 C26.348,50.927 26.398,50.781 26.43,50.632 C26.443,50.568 26.446,50.5 26.456,50.435 C26.474,50.309 26.492,50.183 26.494,50.056 C26.495,50.037 26.5,50.019 26.5,50 C26.5,49.927 26.484,49.859 26.478,49.788 C26.471,49.683 26.465,49.578 26.447,49.475" id="Fill-218" sketch:type="MSShapeGroup"></path>
            <path d="M38.389,20.57 C36.943,19.603 34.987,19.914 33.758,21.143 L29.578,25.322 C29.496,25.404 29.361,25.404 29.278,25.322 L26.831,22.874 C26.597,23.985 26.116,25.058 25.361,26 L22.865,29.073 L26.682,32.89 C27.433,33.641 28.44,33.975 29.428,33.918 C30.417,33.975 31.424,33.641 32.175,32.89 L38.952,26.113 C40.517,24.548 40.329,21.867 38.389,20.57" id="Fill-219" sketch:type="MSShapeGroup"></path>
        </g>
    </g>
</svg>