<?xml version="1.0" encoding="UTF-8" standalone="no"?>
<svg width="58px" height="49px" viewBox="0 0 58 49" version="1.1" xmlns="http://www.w3.org/2000/svg" xmlns:xlink="http://www.w3.org/1999/xlink" xmlns:sketch="http://www.bohemiancoding.com/sketch/ns">
    <!-- Generator: Sketch 3.2.2 (9983) - http://www.bohemiancoding.com/sketch -->
    <title>4 - Shintoist Temple (Flat)</title>
    <desc>Created with Sketch.</desc>
    <defs></defs>
    <g id="Page-1" stroke="none" stroke-width="1" fill="none" fill-rule="evenodd" sketch:type="MSPage">
        <g id="4---Shintoist-Temple-(Flat)" sketch:type="MSLayerGroup">
            <path d="M2,26 L19,26 L19,49 L2,49 L2,26 Z" id="Fill-7" fill="#EFE7D5" sketch:type="MSShapeGroup"></path>
            <path d="M39,26 L56,26 L56,49 L39,49 L39,26 Z" id="Fill-8" fill="#EFE7D5" sketch:type="MSShapeGroup"></path>
            <path d="M46,18 L19,18 L17,18 L12,18 C5.708,25.5 0,25 0,25 C1.281,26.281 3.017,27 4.828,27 L19,27 L19,20 L39,20 L39,27 L53.172,27 C54.983,27 56.719,26.281 58,25 C58,25 52.292,25.5 46,18" id="Fill-9" fill="#6F6A93" sketch:type="MSShapeGroup"></path>
            <path d="M29,9 L45.172,9 C46.983,9 48.719,8.281 50,7 C50,7 44.292,7.5 38,0 L20,0 C13.708,7.5 8,7 8,7 C9.281,8.281 11.017,9 12.828,9 L29,9" id="Fill-456" fill="#6F6A93" sketch:type="MSShapeGroup"></path>
            <path d="M29,18 L51.172,18 C52.983,18 54.719,17.281 56,16 C56,16 50.292,16.5 44,9 L15,9 C8.708,16.5 3,16 3,16 C4.281,17.281 6.017,18 7.828,18 L29,18" id="Fill-457" fill="#A28BB4" sketch:type="MSShapeGroup"></path>
            <path d="M15,49 L6,49 L6,33.817 C9.633,31.394 11.367,31.394 15,33.817 L15,49" id="Fill-458" fill="#554658" sketch:type="MSShapeGroup"></path>
            <path d="M52,49 L43,49 L43,33.817 C46.633,31.394 48.367,31.394 52,33.817 L52,49" id="Fill-459" fill="#554658" sketch:type="MSShapeGroup"></path>
            <path d="M17,20 L41,20 L41,49 L17,49 L17,20 Z" id="Fill-550" fill="#E2DBCA" sketch:type="MSShapeGroup"></path>
            <path d="M39,49 L19,49 L19,24.817 C22.633,22.394 35.367,22.394 39,24.817 L39,49" id="Fill-551" fill="#BAB097" sketch:type="MSShapeGroup"></path>
            <path d="M23,49 L23,27.56 C24.334,27.267 26.356,27 29,27 C31.644,27 33.666,27.267 35,27.56 L35,49 L23,49" id="Fill-552" fill="#554658" sketch:type="MSShapeGroup"></path>
        </g>
    </g>
</svg>