<?xml version="1.0" encoding="UTF-8" standalone="no"?>
<svg width="57px" height="58px" viewBox="0 0 57 58" version="1.1" xmlns="http://www.w3.org/2000/svg" xmlns:xlink="http://www.w3.org/1999/xlink" xmlns:sketch="http://www.bohemiancoding.com/sketch/ns">
    <!-- Generator: Sketch 3.2.2 (9983) - http://www.bohemiancoding.com/sketch -->
    <title>16 - Taoism (Flat)</title>
    <desc>Created with Sketch.</desc>
    <defs></defs>
    <g id="Page-1" stroke="none" stroke-width="1" fill="none" fill-rule="evenodd" sketch:type="MSPage">
        <g id="16---Taoism-(Flat)" sketch:type="MSLayerGroup">
            <path d="M28.5,58 C28.669,58 28.833,57.981 29.001,57.975 C28.668,57.986 28.336,58 28,58 L28.5,58" id="Fill-230" fill="#556080" sketch:type="MSShapeGroup"></path>
            <path d="M29.001,57.975 C29.328,57.964 29.654,57.947 29.978,57.925 C29.657,57.958 29.328,57.963 29.001,57.975" id="Fill-231" fill="#556080" sketch:type="MSShapeGroup"></path>
            <path d="M57,29 C57,13.095 44.195,0.188 28.333,0.008 C20.403,0.099 14,6.548 14,14.5 C14,22.508 20.492,29 28.5,29 C36.508,29 43,35.492 43,43.5 C43,51.007 37.295,57.182 29.984,57.925 C45.074,56.904 57,44.349 57,29" id="Fill-232" fill="#556080" sketch:type="MSShapeGroup"></path>
            <path d="M28,0 C28.112,0 28.222,0.007 28.333,0.008 C28.389,0.008 28.444,0 28.5,0 L28,0" id="Fill-233" fill="#556080" sketch:type="MSShapeGroup"></path>
            <path d="M29.978,57.925 L29.984,57.925 L29.978,57.925" id="Fill-234" fill="#556080" sketch:type="MSShapeGroup"></path>
            <path d="M28.5,0 C28.331,0 28.167,0.019 27.999,0.025 C28.332,0.014 28.664,0 29,0 L28.5,0" id="Fill-235" fill="#E6E7E8" sketch:type="MSShapeGroup"></path>
            <path d="M27.999,0.025 C27.672,0.036 27.346,0.053 27.022,0.075 C27.343,0.042 27.672,0.037 27.999,0.025" id="Fill-236" fill="#E6E7E8" sketch:type="MSShapeGroup"></path>
            <path d="M0,29 C0,44.904 12.805,57.812 28.667,57.992 C36.597,57.901 43,51.452 43,43.5 C43,35.492 36.508,29 28.5,29 C20.492,29 14,22.508 14,14.5 C14,6.993 19.705,0.818 27.016,0.075 C11.926,1.096 0,13.651 0,29" id="Fill-237" fill="#E6E7E8" sketch:type="MSShapeGroup"></path>
            <path d="M29,58 C28.888,58 28.778,57.993 28.667,57.992 C28.611,57.992 28.556,58 28.5,58 L29,58" id="Fill-238" fill="#E6E7E8" sketch:type="MSShapeGroup"></path>
            <path d="M27.022,0.075 L27.016,0.075 L27.022,0.075" id="Fill-239" fill="#E6E7E8" sketch:type="MSShapeGroup"></path>
            <path d="M35,14 C35,17.314 32.314,20 29,20 C25.686,20 23,17.314 23,14 C23,10.686 25.686,8 29,8 C32.314,8 35,10.686 35,14" id="Fill-240" fill="#E6E7E8" sketch:type="MSShapeGroup"></path>
            <path d="M35,44 C35,47.314 32.314,50 29,50 C25.686,50 23,47.314 23,44 C23,40.686 25.686,38 29,38 C32.314,38 35,40.686 35,44" id="Fill-241" fill="#556080" sketch:type="MSShapeGroup"></path>
        </g>
    </g>
</svg>