<?xml version="1.0" encoding="UTF-8" standalone="no"?>
<svg width="52px" height="59px" viewBox="0 0 52 59" version="1.1" xmlns="http://www.w3.org/2000/svg" xmlns:xlink="http://www.w3.org/1999/xlink" xmlns:sketch="http://www.bohemiancoding.com/sketch/ns">
    <!-- Generator: Sketch 3.2.2 (9983) - http://www.bohemiancoding.com/sketch -->
    <title>43 - The Commandments (Flat)</title>
    <desc>Created with Sketch.</desc>
    <defs></defs>
    <g id="Page-1" stroke="none" stroke-width="1" fill="none" fill-rule="evenodd" sketch:type="MSPage">
        <g id="43---The-Commandments-(Flat)" sketch:type="MSLayerGroup" transform="translate(0.000000, 1.000000)">
            <path d="M26,58 L0,58 L0,27 C0,19.82 5.82,14 13,14 C20.18,14 26,19.82 26,27 L26,58" id="Fill-85" fill="#DC9628" sketch:type="MSShapeGroup"></path>
            <path d="M52,58 L26,58 L26,27 C26,19.82 31.82,14 39,14 C46.18,14 52,19.82 52,27 L52,58" id="Fill-86" fill="#EEAF4B" sketch:type="MSShapeGroup"></path>
            <path d="M29,0 L23,8 L32,8 L25,16" id="Stroke-87" stroke="#F0C419" stroke-width="2" stroke-linecap="round" stroke-linejoin="round" sketch:type="MSShapeGroup"></path>
            <path d="M21,36 L5,36 C4.447,36 4,35.552 4,35 C4,34.448 4.447,34 5,34 L21,34 C21.553,34 22,34.448 22,35 C22,35.552 21.553,36 21,36" id="Fill-88" fill="#C1812B" sketch:type="MSShapeGroup"></path>
            <path d="M21,40 L5,40 C4.447,40 4,39.552 4,39 C4,38.448 4.447,38 5,38 L21,38 C21.553,38 22,38.448 22,39 C22,39.552 21.553,40 21,40" id="Fill-89" fill="#C1812B" sketch:type="MSShapeGroup"></path>
            <path d="M21,28 L5,28 C4.447,28 4,27.552 4,27 C4,26.448 4.447,26 5,26 L21,26 C21.553,26 22,26.448 22,27 C22,27.552 21.553,28 21,28" id="Fill-90" fill="#C1812B" sketch:type="MSShapeGroup"></path>
            <path d="M21,32 L5,32 C4.447,32 4,31.552 4,31 C4,30.448 4.447,30 5,30 L21,30 C21.553,30 22,30.448 22,31 C22,31.552 21.553,32 21,32" id="Fill-91" fill="#C1812B" sketch:type="MSShapeGroup"></path>
            <path d="M47,28 L31,28 C30.447,28 30,27.552 30,27 C30,26.448 30.447,26 31,26 L47,26 C47.553,26 48,26.448 48,27 C48,27.552 47.553,28 47,28" id="Fill-92" fill="#C1812B" sketch:type="MSShapeGroup"></path>
            <path d="M47,32 L31,32 C30.447,32 30,31.552 30,31 C30,30.448 30.447,30 31,30 L47,30 C47.553,30 48,30.448 48,31 C48,31.552 47.553,32 47,32" id="Fill-93" fill="#C1812B" sketch:type="MSShapeGroup"></path>
            <path d="M21,44 L5,44 C4.447,44 4,43.552 4,43 C4,42.448 4.447,42 5,42 L21,42 C21.553,42 22,42.448 22,43 C22,43.552 21.553,44 21,44" id="Fill-94" fill="#C1812B" sketch:type="MSShapeGroup"></path>
            <path d="M21,48 L5,48 C4.447,48 4,47.552 4,47 C4,46.448 4.447,46 5,46 L21,46 C21.553,46 22,46.448 22,47 C22,47.552 21.553,48 21,48" id="Fill-95" fill="#C1812B" sketch:type="MSShapeGroup"></path>
            <path d="M21,52 L5,52 C4.447,52 4,51.552 4,51 C4,50.448 4.447,50 5,50 L21,50 C21.553,50 22,50.448 22,51 C22,51.552 21.553,52 21,52" id="Fill-96" fill="#C1812B" sketch:type="MSShapeGroup"></path>
            <path d="M47,36 L31,36 C30.447,36 30,35.552 30,35 C30,34.448 30.447,34 31,34 L47,34 C47.553,34 48,34.448 48,35 C48,35.552 47.553,36 47,36" id="Fill-97" fill="#C1812B" sketch:type="MSShapeGroup"></path>
            <path d="M47,40 L31,40 C30.447,40 30,39.552 30,39 C30,38.448 30.447,38 31,38 L47,38 C47.553,38 48,38.448 48,39 C48,39.552 47.553,40 47,40" id="Fill-98" fill="#C1812B" sketch:type="MSShapeGroup"></path>
            <path d="M47,44 L31,44 C30.447,44 30,43.552 30,43 C30,42.448 30.447,42 31,42 L47,42 C47.553,42 48,42.448 48,43 C48,43.552 47.553,44 47,44" id="Fill-99" fill="#C1812B" sketch:type="MSShapeGroup"></path>
            <path d="M47,48 L31,48 C30.447,48 30,47.552 30,47 C30,46.448 30.447,46 31,46 L47,46 C47.553,46 48,46.448 48,47 C48,47.552 47.553,48 47,48" id="Fill-100" fill="#C1812B" sketch:type="MSShapeGroup"></path>
            <path d="M47,52 L31,52 C30.447,52 30,51.552 30,51 C30,50.448 30.447,50 31,50 L47,50 C47.553,50 48,50.448 48,51 C48,51.552 47.553,52 47,52" id="Fill-101" fill="#C1812B" sketch:type="MSShapeGroup"></path>
        </g>
    </g>
</svg>