<?xml version="1.0" encoding="UTF-8" standalone="no"?>
<svg width="55px" height="55px" viewBox="0 0 55 55" version="1.1" xmlns="http://www.w3.org/2000/svg" xmlns:xlink="http://www.w3.org/1999/xlink" xmlns:sketch="http://www.bohemiancoding.com/sketch/ns">
    <!-- Generator: Sketch 3.2.2 (9983) - http://www.bohemiancoding.com/sketch -->
    <title>35 - The Holy Star (Flat)</title>
    <desc>Created with Sketch.</desc>
    <defs></defs>
    <g id="Page-1" stroke="none" stroke-width="1" fill="none" fill-rule="evenodd" sketch:type="MSPage">
        <g id="35---The-Holy-Star-(Flat)" sketch:type="MSLayerGroup">
            <path d="M53,26 L34.17,25.062 C33.78,25.036 33.39,25.021 33,25 L35.742,22.656 C36.578,21.819 36.578,20.463 35.742,19.627 C34.906,18.791 33.55,18.791 32.714,19.627 L30,22 C29.971,21.477 29.95,20.954 29.912,20.431 L29,2 C28.927,1.12 27.883,0 27,0 C26.094,0 25.136,1.181 25,2 L24.072,20.612 C24.04,21.075 24.024,21.538 24,22 L22.229,19.742 C21.393,18.906 20.037,18.906 19.201,19.742 C18.365,20.579 18.365,21.935 19.201,22.771 L21,25 C20.549,25.026 20.099,25.045 19.648,25.079 L2,26 C1.12,26.073 0.443,27.14 0.443,28.023 C0.443,28.853 1.182,29.864 2,30 L19.683,30.93 C20.122,30.96 20.561,30.977 21,31 L19.086,33.255 C18.25,34.091 18.25,35.447 19.086,36.284 C19.922,37.12 21.278,37.12 22.114,36.284 L24,34 C24.02,34.322 24.034,34.644 24.058,34.966 L25,53 C25.073,53.88 26.117,55 27,55 C28.108,55 28.864,53.818 29,53 L30,35.099 C30.025,34.733 30.04,34.366 30.061,34 L32.701,36.271 C33.537,37.107 34.893,37.107 35.729,36.271 C36.566,35.435 36.566,34.079 35.729,33.242 L33,31 C33.394,30.976 33.789,30.96 34.183,30.931 L53,30 C53.88,29.926 55,28.883 55,28 C55,27.17 53.819,26.137 53,26" id="Fill-120" fill="#F3D55B" sketch:type="MSShapeGroup"></path>
            <path d="M5,49 L1,45 L5,41 L9,45 L5,49" id="Fill-149" fill="#F9EBB0" sketch:type="MSShapeGroup"></path>
            <path d="M47,12 L43,8 L47,4 L51,8 L47,12" id="Fill-150" fill="#F9EBB0" sketch:type="MSShapeGroup"></path>
        </g>
    </g>
</svg>