<?xml version="1.0" encoding="UTF-8" standalone="no"?>
<svg width="32px" height="58px" viewBox="0 0 32 58" version="1.1" xmlns="http://www.w3.org/2000/svg" xmlns:xlink="http://www.w3.org/1999/xlink" xmlns:sketch="http://www.bohemiancoding.com/sketch/ns">
    <!-- Generator: Sketch 3.2.2 (9983) - http://www.bohemiancoding.com/sketch -->
    <title>39 - The Pope (Flat)</title>
    <desc>Created with Sketch.</desc>
    <defs></defs>
    <g id="Page-1" stroke="none" stroke-width="1" fill="none" fill-rule="evenodd" sketch:type="MSPage">
        <g id="39---The-Pope-(Flat)" sketch:type="MSLayerGroup" transform="translate(-1.000000, 0.000000)">
            <path d="M27.569,31.633 C27.507,31.597 27.446,31.563 27.384,31.528 C21.183,28.05 13.64,28.05 7.438,31.528 C7.377,31.562 7.316,31.597 7.255,31.632 C4.839,33.016 3.571,35.766 4.069,38.506 C5.109,44.231 8.201,54.46 16.095,57 C17.057,57.31 18.106,57.31 19.069,57 C27.011,54.444 30.046,44.212 31.069,38.506 C31.553,35.806 29.949,32.996 27.569,31.633" id="Fill-111" fill="#FDD7AD" sketch:type="MSShapeGroup"></path>
            <path d="M21.622,3 C19.964,1.742 18.535,0.792 17.683,0.249 C17.168,-0.079 16.522,-0.079 16.008,0.249 C15.156,0.792 13.727,1.742 12.069,3 C3.042,9.85 -1.105,22.105 2.046,32.989 C2.522,34.632 3.16,36.127 3.971,37.346 C3.962,35.016 5.181,32.82 7.255,31.632 C7.316,31.597 7.377,31.562 7.438,31.528 C13.64,28.05 21.183,28.05 27.385,31.528 C27.446,31.563 27.507,31.597 27.569,31.633 C29.162,32.546 30.39,34.11 30.894,35.853 C31.272,34.94 31.598,33.945 31.875,32.989 C35.027,22.105 30.648,9.85 21.622,3" id="Fill-112" fill="#ECF0F1" sketch:type="MSShapeGroup"></path>
            <path d="M24.069,11 L19.069,11 L19.087,5 L15.069,5 L15.069,11 L10.069,11 L10.069,15.018 L15.069,15 L15.069,25 L19.087,25 L19.087,15.018 L24.069,15 L24.069,11" id="Fill-506" fill="#556080" sketch:type="MSShapeGroup"></path>
        </g>
    </g>
</svg>