<?xml version="1.0" encoding="UTF-8" standalone="no"?>
<svg width="58px" height="58px" viewBox="0 0 58 58" version="1.1" xmlns="http://www.w3.org/2000/svg" xmlns:xlink="http://www.w3.org/1999/xlink" xmlns:sketch="http://www.bohemiancoding.com/sketch/ns">
    <!-- Generator: Sketch 3.2.2 (9983) - http://www.bohemiancoding.com/sketch -->
    <title>1 - Torah (Flat)</title>
    <desc>Created with Sketch.</desc>
    <defs></defs>
    <g id="Page-1" stroke="none" stroke-width="1" fill="none" fill-rule="evenodd" sketch:type="MSPage">
        <g id="1---Torah-(Flat)" sketch:type="MSLayerGroup">
            <path d="M53,7.221 C53.532,7.7 54.228,8 55,8 C56.657,8 58,6.657 58,5 C58,3.343 56.657,2 55,2 C54.228,2 53.532,2.3 53,2.779 L53,7.221" id="Fill-206" fill="#E4C05C" sketch:type="MSShapeGroup"></path>
            <path d="M9,2 L49,2 L49,8 L9,8 L9,2 Z" id="Fill-207" fill="#E4C05C" sketch:type="MSShapeGroup"></path>
            <path d="M49,8 L49,2 C49,0.895 49.895,0 51,0 C52.105,0 53,0.895 53,2 L53,8 C53,9.105 52.105,10 51,10 C49.895,10 49,9.105 49,8" id="Fill-208" fill="#F29C1F" sketch:type="MSShapeGroup"></path>
            <path d="M5,8 L5,2 C5,0.895 5.895,0 7,0 C8.104,0 9,0.895 9,2 L9,8 C9,9.105 8.104,10 7,10 C5.895,10 5,9.105 5,8" id="Fill-209" fill="#F29C1F" sketch:type="MSShapeGroup"></path>
            <path d="M5,2.779 C4.468,2.3 3.772,2 3,2 C1.343,2 0,3.343 0,5 C0,6.657 1.343,8 3,8 C3.772,8 4.468,7.7 5,7.221 L5,2.779" id="Fill-210" fill="#E4C05C" sketch:type="MSShapeGroup"></path>
            <path d="M53,55.221 C53.532,55.7 54.228,56 55,56 C56.657,56 58,54.657 58,53 C58,51.343 56.657,50 55,50 C54.228,50 53.532,50.3 53,50.779 L53,55.221" id="Fill-211" fill="#E4C05C" sketch:type="MSShapeGroup"></path>
            <path d="M9,50 L49,50 L49,56 L9,56 L9,50 Z" id="Fill-212" fill="#E4C05C" sketch:type="MSShapeGroup"></path>
            <path d="M49,56 L49,50 C49,48.895 49.895,48 51,48 C52.105,48 53,48.895 53,50 L53,56 C53,57.105 52.105,58 51,58 C49.895,58 49,57.105 49,56" id="Fill-213" fill="#F29C1F" sketch:type="MSShapeGroup"></path>
            <path d="M5,56 L5,50 C5,48.895 5.895,48 7,48 C8.104,48 9,48.895 9,50 L9,56 C9,57.105 8.104,58 7,58 C5.895,58 5,57.105 5,56" id="Fill-214" fill="#F29C1F" sketch:type="MSShapeGroup"></path>
            <path d="M5,50.779 C4.468,50.3 3.772,50 3,50 C1.343,50 0,51.343 0,53 C0,54.657 1.343,56 3,56 C3.772,56 4.468,55.7 5,55.221 L5,50.779" id="Fill-215" fill="#E4C05C" sketch:type="MSShapeGroup"></path>
            <path d="M11,8 L47,8 L47,50 L11,50 L11,8 Z" id="Fill-216" fill="#ECF0F1" sketch:type="MSShapeGroup"></path>
            <path d="M44,37 L14,37 L29,12 L44,37 L44,37 Z M14,21 L44,21 L29.021,46 L14,21 L14,21 Z" id="Stroke-460" stroke="#8697CB" stroke-width="2" stroke-linecap="round" stroke-linejoin="round" sketch:type="MSShapeGroup"></path>
            <path d="M18.803,28.994 L23.613,37 L34.413,37 L39.203,29.006 L34.4,21 L23.6,21 L18.803,28.994 L18.803,28.994 Z" id="Stroke-517" stroke="#8697CB" stroke-width="2" stroke-linecap="round" stroke-linejoin="round" sketch:type="MSShapeGroup"></path>
        </g>
    </g>
</svg>