<?xml version="1.0" encoding="UTF-8" standalone="no"?>
<svg width="52px" height="58px" viewBox="0 0 52 58" version="1.1" xmlns="http://www.w3.org/2000/svg" xmlns:xlink="http://www.w3.org/1999/xlink" xmlns:sketch="http://www.bohemiancoding.com/sketch/ns">
    <!-- Generator: Sketch 3.2.2 (9983) - http://www.bohemiancoding.com/sketch -->
    <title>37 - Vatican Dome (Flat)</title>
    <desc>Created with Sketch.</desc>
    <defs></defs>
    <g id="Page-1" stroke="none" stroke-width="1" fill="none" fill-rule="evenodd" sketch:type="MSPage">
        <g id="37---Vatican-Dome-(Flat)" sketch:type="MSLayerGroup">
            <path d="M5,40 L17,40 L17,55 L5,55 L5,40 Z" id="Fill-22" fill="#ECF0F1" sketch:type="MSShapeGroup"></path>
            <path d="M20,40 L32,40 L32,55 L20,55 L20,40 Z" id="Fill-23" fill="#ECF0F1" sketch:type="MSShapeGroup"></path>
            <path d="M35,40 L47,40 L47,55 L35,55 L35,40 Z" id="Fill-24" fill="#ECF0F1" sketch:type="MSShapeGroup"></path>
            <path d="M2,40 L5,40 L5,55 L2,55 L2,40 Z" id="Fill-151" fill="#8697CB" sketch:type="MSShapeGroup"></path>
            <path d="M9,45 L13,45 L13,50 L9,50 L9,45 Z" id="Fill-152" fill="#556080" sketch:type="MSShapeGroup"></path>
            <path d="M17,40 L20,40 L20,55 L17,55 L17,40 Z" id="Fill-153" fill="#8697CB" sketch:type="MSShapeGroup"></path>
            <path d="M24,45 L28,45 L28,50 L24,50 L24,45 Z" id="Fill-154" fill="#556080" sketch:type="MSShapeGroup"></path>
            <path d="M32,40 L35,40 L35,55 L32,55 L32,40 Z" id="Fill-155" fill="#8697CB" sketch:type="MSShapeGroup"></path>
            <path d="M39,45 L43,45 L43,50 L39,50 L39,45 Z" id="Fill-156" fill="#556080" sketch:type="MSShapeGroup"></path>
            <path d="M47,40 L50,40 L50,55 L47,55 L47,40 Z" id="Fill-157" fill="#8697CB" sketch:type="MSShapeGroup"></path>
            <path d="M0,55 L52,55 L52,58 L0,58 L0,55 Z" id="Fill-518" fill="#556080" sketch:type="MSShapeGroup"></path>
            <path d="M1,40 C1,26.193 12.193,15 26,15 C39.807,15 51,26.193 51,40 L1,40" id="Fill-519" fill="#D0D6E2" sketch:type="MSShapeGroup"></path>
            <path d="M33,24 L28,24 L28.018,19 L24,19 L24,24 L19,24 L19,28.018 L24,28 L24,36 L28.018,36 L28.018,28.018 L33,28 L33,24" id="Fill-520" fill="#556080" sketch:type="MSShapeGroup"></path>
            <path d="M26,15 C28.43,15 30.777,15.353 32.999,16 C32.988,12.144 29.859,9.021 26,9.021 C22.141,9.021 19.012,12.144 19.001,16 C21.223,15.353 23.569,15 26,15" id="Fill-521" fill="#8697CB" sketch:type="MSShapeGroup"></path>
            <path d="M26,9.021 C27.659,9.021 29.182,9.601 30.381,10.566 C28.477,7.1 26.408,1.618 26.178,0.153 C26.146,-0.051 25.854,-0.051 25.822,0.153 C25.592,1.618 23.523,7.1 21.619,10.566 C22.818,9.601 24.341,9.021 26,9.021" id="Fill-522" fill="#E4C05C" sketch:type="MSShapeGroup"></path>
        </g>
    </g>
</svg>