<?xml version="1.0" encoding="UTF-8" standalone="no"?>
<svg width="56px" height="57px" viewBox="0 0 56 57" version="1.1" xmlns="http://www.w3.org/2000/svg" xmlns:xlink="http://www.w3.org/1999/xlink" xmlns:sketch="http://www.bohemiancoding.com/sketch/ns">
    <!-- Generator: Sketch 3.2.2 (9983) - http://www.bohemiancoding.com/sketch -->
    <title>76 - Aliens (Flat)</title>
    <desc>Created with Sketch.</desc>
    <defs></defs>
    <g id="Page-1" stroke="none" stroke-width="1" fill="none" fill-rule="evenodd" sketch:type="MSPage">
        <g id="76---Aliens-(Flat)" sketch:type="MSLayerGroup">
            <path d="M30.022,24.163 C31.445,22.388 33.537,19.825 35.422,18.531 C36.535,17.767 38.05,17.953 38.963,18.949 C40.309,20.417 42.892,22.759 45.539,22.574 C45.539,22.574 49.037,22.45 47.692,17.192 C47.692,17.192 47.004,11.555 41.604,10.851 C39.656,10.597 38.337,8.71 38.935,6.838 C39.057,6.454 39.226,6.034 39.451,5.574 C39.959,4.535 39.767,3.279 39.006,2.407 C37.782,1.005 35.468,-0.359 31.545,1.563 C30.868,1.895 30.319,2.452 29.982,3.127 L28.318,6.455 C28.318,6.455 26.367,11.568 22.936,7.531 C22.936,7.531 19.481,1.537 13.103,5.175 C11.559,6.056 11.235,8.083 12.273,9.526 C12.28,9.535 12.287,9.545 12.294,9.555 C13.416,11.109 12.711,14.291 10.93,15 C10.9,15.012 10.87,15.024 10.84,15.037 C7.055,16.627 9.279,22.436 13.196,21.206 C13.89,20.988 14.615,20.793 15.349,20.642 C18.484,19.996 21.712,18.15 23.74,20.626 C24.613,21.691 25.429,22.948 26.172,24.026 C27.088,25.353 29.013,25.421 30.022,24.163" id="Fill-169" fill="#5BB031" sketch:type="MSShapeGroup"></path>
            <path d="M28.174,21.638 C27.546,20.715 26.834,19.669 26.06,18.725 C25.182,17.652 23.59,16.373 21,16.373 C19.487,16.373 18.046,16.793 16.653,17.198 C15.977,17.395 15.34,17.581 14.744,17.703 C13.964,17.864 13.141,18.079 12.298,18.344 C12.206,18.373 12.153,18.375 12.135,18.375 C12.004,18.325 11.862,18.008 11.888,17.856 C11.899,17.854 11.937,17.831 12.002,17.803 C13.678,17.135 14.947,15.63 15.521,13.659 C16.139,11.537 15.843,9.346 14.727,7.8 C14.706,7.771 14.693,7.747 14.685,7.727 C15.553,7.247 16.357,7.003 17.076,7.003 C19.079,7.003 20.342,9.039 20.354,9.059 L20.477,9.261 L20.65,9.474 C22.122,11.206 23.748,12.083 25.482,12.083 L25.483,12.083 C28.29,12.083 30.222,9.746 31.06,7.679 L32.665,4.468 C32.712,4.375 32.787,4.295 32.865,4.257 C33.725,3.835 34.51,3.613 35.135,3.613 C35.565,3.613 36.131,3.697 36.713,4.343 C36.454,4.885 36.24,5.416 36.078,5.923 C35.533,7.628 35.773,9.473 36.733,10.985 C37.727,12.548 39.361,13.583 41.216,13.825 C44.085,14.2 44.637,17.024 44.719,17.587 L44.742,17.745 L44.786,17.935 C44.999,18.768 45.014,19.277 44.991,19.551 C43.935,19.37 42.509,18.378 41.175,16.922 C40.091,15.739 38.549,15.061 36.943,15.061 C35.788,15.061 34.674,15.405 33.724,16.058 C31.769,17.4 29.864,19.592 28.188,21.658 L28.174,21.638" id="Fill-170" fill="#B7E646" sketch:type="MSShapeGroup"></path>
            <path d="M45.539,22.508 C42.892,22.694 40.309,20.352 38.963,18.884 C38.051,17.888 36.535,17.702 35.422,18.466 C33.537,19.76 31.445,22.323 30.022,24.097 C29.013,25.356 27.088,25.288 26.172,23.96 C25.429,22.883 24.613,21.626 23.74,20.561 C21.712,18.085 18.483,19.931 15.349,20.576 C14.615,20.727 13.89,20.923 13.196,21.141 C11.949,21.532 10.877,21.207 10.112,20.535 C8.723,27.998 6.753,47.459 24.463,56.189 C26.657,57.27 29.253,57.27 31.447,56.189 C47.846,48.106 47.371,30.957 46.107,22.392 C45.779,22.497 45.539,22.508 45.539,22.508" id="Fill-171" fill="#466B30" sketch:type="MSShapeGroup"></path>
            <path d="M36,14.766 C36,16.552 32.38,18 27.914,18 C23.449,18 19.828,16.552 19.828,14.766 C19.828,12.979 23.449,11.531 27.914,11.531 C32.38,11.531 36,12.979 36,14.766" id="Fill-172" fill="#F4F18C" sketch:type="MSShapeGroup"></path>
            <path d="M45.473,39.189 C43.74,45.653 39.768,52.088 31.447,56.189 C30.352,56.729 29.157,56.999 27.961,57 L28,57 C43.464,57 56,52.523 56,47 C56,43.838 51.887,41.021 45.473,39.189" id="Fill-173" fill="#464F5D" sketch:type="MSShapeGroup"></path>
            <path d="M24.463,56.189 C16.174,52.103 12.197,45.667 10.453,39.21 C4.081,41.043 0,43.85 0,47 C0,52.516 12.507,56.989 27.947,57 C26.752,56.998 25.557,56.729 24.463,56.189" id="Fill-174" fill="#464F5D" sketch:type="MSShapeGroup"></path>
            <path d="M8,47 C7.581,47 7.191,46.735 7.051,46.316 L6.051,43.316 C5.877,42.793 6.16,42.226 6.684,42.051 C7.21,41.875 7.774,42.161 7.949,42.684 L8.949,45.684 C9.123,46.208 8.84,46.774 8.316,46.949 C8.211,46.984 8.104,47 8,47" id="Fill-175" fill="#556080" sketch:type="MSShapeGroup"></path>
            <path d="M12.999,53 C12.809,53 12.616,52.946 12.445,52.832 L9.445,50.832 C8.986,50.526 8.862,49.905 9.168,49.445 C9.475,48.985 10.095,48.86 10.555,49.168 L13.555,51.168 C14.014,51.474 14.138,52.095 13.832,52.555 C13.639,52.844 13.322,53 12.999,53" id="Fill-176" fill="#556080" sketch:type="MSShapeGroup"></path>
            <path d="M6.999,50 C6.809,50 6.616,49.946 6.445,49.832 L3.445,47.832 C2.986,47.526 2.862,46.905 3.168,46.445 C3.474,45.986 4.094,45.86 4.555,46.168 L7.555,48.168 C8.014,48.474 8.138,49.095 7.832,49.555 C7.639,49.844 7.322,50 6.999,50" id="Fill-177" fill="#556080" sketch:type="MSShapeGroup"></path>
            <path d="M42.001,54 C41.634,54 41.281,53.798 41.105,53.447 C40.858,52.953 41.059,52.353 41.553,52.106 L43.553,51.106 C44.048,50.858 44.648,51.06 44.894,51.553 C45.142,52.047 44.941,52.648 44.447,52.895 L42.447,53.895 C42.304,53.966 42.151,54 42.001,54" id="Fill-178" fill="#556080" sketch:type="MSShapeGroup"></path>
            <path d="M46,50 C45.581,50 45.191,49.735 45.052,49.316 C44.877,48.793 45.16,48.226 45.684,48.051 L48.684,47.051 C49.212,46.875 49.773,47.16 49.948,47.684 C50.123,48.208 49.84,48.774 49.316,48.949 L46.316,49.949 C46.211,49.984 46.104,50 46,50" id="Fill-179" fill="#556080" sketch:type="MSShapeGroup"></path>
            <path d="M49.001,46 C48.634,46 48.281,45.798 48.106,45.447 L47.105,43.447 C46.858,42.953 47.059,42.353 47.553,42.106 C48.047,41.857 48.648,42.058 48.894,42.553 L49.894,44.553 C50.142,45.047 49.941,45.648 49.447,45.895 C49.304,45.966 49.151,46 49.001,46" id="Fill-180" fill="#556080" sketch:type="MSShapeGroup"></path>
            <path d="M51.999,50 C51.849,50 51.696,49.966 51.553,49.895 C51.059,49.648 50.858,49.047 51.106,48.553 L52.106,46.553 C52.352,46.059 52.953,45.859 53.447,46.106 C53.941,46.353 54.142,46.953 53.894,47.447 L52.894,49.447 C52.719,49.798 52.366,50 51.999,50" id="Fill-181" fill="#556080" sketch:type="MSShapeGroup"></path>
            <path d="M39.379,19.321 C39.231,19.17 39.09,19.022 38.963,18.884 C38.05,17.888 36.535,17.702 35.422,18.466 C33.537,19.76 31.445,22.323 30.022,24.097 C29.013,25.356 27.089,25.288 26.172,23.96 C25.429,22.883 24.613,21.626 23.74,20.561 C22.07,18.523 19.588,19.413 17.013,20.151 C16.854,31.707 18.222,47.637 26.112,55.961 C26.745,56.628 27.434,56.966 28.125,56.99 C28.224,56.988 28.323,56.979 28.421,56.974 C29.066,56.911 29.705,56.583 30.295,55.961 C38.393,47.418 39.621,30.984 39.379,19.321" id="Fill-762" fill="#5C9140" sketch:type="MSShapeGroup"></path>
            <path d="M31,14.766 C31,15.447 29.619,16 27.914,16 C26.21,16 24.828,15.447 24.828,14.766 C24.828,14.084 26.21,13.531 27.914,13.531 C29.619,13.531 31,14.084 31,14.766" id="Fill-763" fill="#FFFFFF" sketch:type="MSShapeGroup"></path>
        </g>
    </g>
</svg>