<?xml version="1.0" encoding="UTF-8" standalone="no"?>
<svg width="52px" height="56px" viewBox="0 0 52 56" version="1.1" xmlns="http://www.w3.org/2000/svg" xmlns:xlink="http://www.w3.org/1999/xlink" xmlns:sketch="http://www.bohemiancoding.com/sketch/ns">
    <!-- Generator: Sketch 3.2.2 (9983) - http://www.bohemiancoding.com/sketch -->
    <title>38 - American Pie (Flat)</title>
    <desc>Created with Sketch.</desc>
    <defs></defs>
    <g id="Page-1" stroke="none" stroke-width="1" fill="none" fill-rule="evenodd" sketch:type="MSPage">
        <g id="38---American-Pie-(Flat)" sketch:type="MSLayerGroup">
            <path d="M30.209,11.642 L30.209,11.642 C30.386,13.071 32.353,13.319 32.88,11.979 C33.479,10.457 35.759,11.042 35.551,12.665 C35.367,14.093 37.21,14.823 38.054,13.656 C39.013,12.331 41.075,13.464 40.47,14.985 C39.938,16.322 41.541,17.487 42.648,16.567 C43.907,15.522 45.623,17.133 44.658,18.455 C43.81,19.618 45.073,21.145 46.375,20.529 C47.854,19.83 49.115,21.817 47.852,22.857 C46.741,23.773 47.585,25.566 48.999,25.294 C50.605,24.984 51.332,27.222 49.851,27.916 C48.547,28.526 48.918,30.473 50.355,30.561 C51.988,30.66 52.136,33.009 50.528,33.313 C49.113,33.58 48.989,35.558 50.359,36 C51.916,36.502 51.475,38.814 49.843,38.708 L49.842,38.708 C48.406,38.615 47.793,40.5 49.01,41.269 C50.394,42.143 49.392,44.272 47.836,43.764 C46.468,43.316 45.406,44.99 46.394,46.037 C47.516,47.228 46.016,49.041 44.636,48.162 C43.422,47.388 41.977,48.744 42.673,50.005 C43.465,51.437 41.561,52.82 40.443,51.625 C39.459,50.574 37.723,51.529 38.083,52.923 C38.493,54.507 36.305,55.373 35.52,53.938 C34.829,52.675 32.909,53.167 32.912,54.607 C32.915,56.243 30.58,56.538 30.176,54.953 C29.821,53.558 27.839,53.558 27.484,54.953 C27.08,56.538 24.745,56.243 24.748,54.607 C24.751,53.167 22.831,52.675 22.14,53.938 C21.355,55.373 19.167,54.507 19.577,52.923 C19.937,51.529 18.201,50.574 17.217,51.625 C16.099,52.82 14.195,51.437 14.987,50.005 C15.683,48.744 14.238,47.388 13.024,48.162 C11.644,49.041 10.144,47.228 11.266,46.037 C12.254,44.99 11.192,43.316 9.824,43.764 L9.823,43.764 C8.268,44.272 7.266,42.143 8.65,41.269 C9.867,40.5 9.254,38.615 7.817,38.708 C6.185,38.814 5.744,36.502 7.301,36 C8.671,35.558 8.546,33.58 7.132,33.313 C5.524,33.009 5.672,30.66 7.305,30.561 C8.742,30.473 9.113,28.526 7.809,27.916 C6.328,27.222 7.055,24.984 8.661,25.294 C10.075,25.566 10.919,23.773 9.808,22.857 C8.545,21.817 9.806,19.83 11.285,20.529 C12.587,21.145 13.85,19.618 13.002,18.455 C12.037,17.133 13.753,15.522 15.012,16.567 C16.119,17.487 17.722,16.322 17.19,14.985 C16.585,13.464 18.647,12.331 19.606,13.656 C20.45,14.823 22.293,14.093 22.109,12.665 C21.901,11.042 24.181,10.457 24.78,11.979 C25.307,13.319 27.274,13.071 27.451,11.642 C27.653,10.018 30.007,10.018 30.209,11.642" id="Fill-150" fill="#D59C4E" sketch:type="MSShapeGroup"></path>
            <path d="M46.305,33.061 C46.305,42.726 38.47,50.561 28.805,50.561 C19.14,50.561 11.305,42.726 11.305,33.061 C11.305,23.396 19.14,15.561 28.805,15.561 C38.47,15.561 46.305,23.396 46.305,33.061" id="Fill-366" fill="#F3D48A" sketch:type="MSShapeGroup"></path>
            <path d="M0,0 L17,0 L17,12 L0,12 L0,0 Z" id="Fill-367" fill="#ECF0F1" sketch:type="MSShapeGroup"></path>
            <path d="M0,0 L8,0 L8,8 L0,8 L0,0 Z" id="Fill-368" fill="#0075DB" sketch:type="MSShapeGroup"></path>
            <path d="M0,8 L17,8 M8,4 L17,4" id="Stroke-369" stroke="#E64C3C" stroke-width="2" stroke-linejoin="round" sketch:type="MSShapeGroup"></path>
            <path d="M30.5,23.5 C30.5,25.985 29.828,28 29,28 C28.172,28 27.5,25.985 27.5,23.5 C27.5,21.015 28.172,19 29,19 C29.828,19 30.5,21.015 30.5,23.5" id="Fill-370" fill="#D59C4E" sketch:type="MSShapeGroup"></path>
            <path d="M30.5,42.5 C30.5,44.985 29.828,47 29,47 C28.172,47 27.5,44.985 27.5,42.5 C27.5,40.015 28.172,38 29,38 C29.828,38 30.5,40.015 30.5,42.5" id="Fill-371" fill="#D59C4E" sketch:type="MSShapeGroup"></path>
            <path d="M38.5,34.5 C36.015,34.5 34,33.828 34,33 C34,32.172 36.015,31.5 38.5,31.5 C40.985,31.5 43,32.172 43,33 C43,33.828 40.985,34.5 38.5,34.5" id="Fill-400" fill="#D59C4E" sketch:type="MSShapeGroup"></path>
            <path d="M19.5,34.5 C17.015,34.5 15,33.828 15,33 C15,32.172 17.015,31.5 19.5,31.5 C21.985,31.5 24,32.172 24,33 C24,33.828 21.985,34.5 19.5,34.5" id="Fill-401" fill="#D59C4E" sketch:type="MSShapeGroup"></path>
            <path d="M34.657,40.778 C32.899,39.021 31.95,37.121 32.535,36.536 C33.121,35.95 35.021,36.9 36.778,38.657 C38.535,40.414 39.485,42.314 38.899,42.9 C38.314,43.485 36.414,42.536 34.657,40.778" id="Fill-402" fill="#D59C4E" sketch:type="MSShapeGroup"></path>
            <path d="M21.222,27.343 C19.464,25.586 18.515,23.686 19.1,23.101 C19.686,22.515 21.586,23.465 23.343,25.222 C25.1,26.979 26.05,28.879 25.464,29.465 C24.879,30.05 22.979,29.101 21.222,27.343" id="Fill-403" fill="#D59C4E" sketch:type="MSShapeGroup"></path>
            <path d="M36.778,27.343 C35.021,29.101 33.121,30.05 32.535,29.465 C31.95,28.879 32.899,26.979 34.657,25.222 C36.414,23.465 38.314,22.515 38.899,23.101 C39.485,23.686 38.535,25.586 36.778,27.343" id="Fill-404" fill="#D59C4E" sketch:type="MSShapeGroup"></path>
            <path d="M23.343,40.778 C21.586,42.536 19.686,43.485 19.1,42.9 C18.515,42.314 19.464,40.414 21.222,38.657 C22.979,36.9 24.879,35.95 25.464,36.536 C26.05,37.121 25.1,39.021 23.343,40.778" id="Fill-405" fill="#D59C4E" sketch:type="MSShapeGroup"></path>
            <path d="M17,24 L17,1" id="Stroke-858" stroke="#464F5D" stroke-width="2" stroke-linecap="round" stroke-linejoin="round" sketch:type="MSShapeGroup"></path>
        </g>
    </g>
</svg>