<?xml version="1.0" encoding="UTF-8" standalone="no"?>
<svg width="58px" height="32px" viewBox="0 0 58 32" version="1.1" xmlns="http://www.w3.org/2000/svg" xmlns:xlink="http://www.w3.org/1999/xlink" xmlns:sketch="http://www.bohemiancoding.com/sketch/ns">
    <!-- Generator: Sketch 3.2.2 (9983) - http://www.bohemiancoding.com/sketch -->
    <title>77 - Casino Royale (Flat)</title>
    <desc>Created with Sketch.</desc>
    <defs></defs>
    <g id="Page-1" stroke="none" stroke-width="1" fill="none" fill-rule="evenodd" sketch:type="MSPage">
        <g id="77---Casino-Royale-(Flat)" sketch:type="MSLayerGroup">
            <path d="M13.704,27.56 L12.582,5.493 C12.48,3.47 14.051,1.731 16.073,1.628 L18.573,1.501 C17.673,0.365 16.142,-0.185 14.668,0.238 L3.165,3.542 C1.219,4.101 0.083,6.151 0.642,8.098 L6.742,29.335 C7.301,31.281 9.351,32.417 11.298,31.857 L15.654,30.606 C14.555,30.015 13.772,28.891 13.704,27.56" id="Fill-83" fill="#E6EEF4" sketch:type="MSShapeGroup"></path>
            <path d="M27.96,29.487 C25.94,29.339 24.408,27.566 24.556,25.546 L26.167,3.509 C26.239,2.529 26.699,1.668 27.379,1.054 L16.073,1.628 C14.051,1.731 12.48,3.47 12.582,5.493 L13.704,27.56 C13.807,29.582 15.546,31.153 17.569,31.051 L29.522,30.443 C30.255,30.406 30.926,30.148 31.483,29.745 L27.96,29.487" id="Fill-84" fill="#E6EEF4" sketch:type="MSShapeGroup"></path>
            <path d="M11.204,9.854 C9.494,10.345 8.505,12.13 8.997,13.84 C9.135,14.322 9.384,14.739 9.698,15.089 C8.067,15.631 7.134,17.36 7.613,19.027 C8.104,20.737 9.889,21.726 11.599,21.234 C11.806,21.175 11.999,21.092 12.182,20.997 L11.612,9.767 C11.476,9.786 11.34,9.815 11.204,9.854" id="Fill-85" fill="#556080" sketch:type="MSShapeGroup"></path>
            <path d="M16.073,1.628 L18.573,1.501 C17.673,0.365 16.142,-0.185 14.668,0.238 L12.698,0.804 C11.807,1.617 11.257,2.793 11.323,4.085 L11.612,9.767 C12.017,9.709 12.418,9.735 12.803,9.822 L12.582,5.493 C12.48,3.47 14.051,1.731 16.073,1.628" id="Fill-86" fill="#C6CCCE" sketch:type="MSShapeGroup"></path>
            <path d="M11.612,9.767 L12.182,20.997 C12.644,20.757 13.031,20.417 13.32,20.007 L12.803,9.822 C12.418,9.735 12.017,9.709 11.612,9.767" id="Fill-87" fill="#384259" sketch:type="MSShapeGroup"></path>
            <path d="M36.566,28.408 C34.61,27.881 33.442,25.849 33.97,23.894 L39.727,2.561 C39.906,1.895 40.27,1.33 40.737,0.882 L30.109,0.105 C28.089,-0.043 26.315,1.489 26.167,3.509 L24.556,25.546 C24.408,27.566 25.94,29.339 27.96,29.487 L39.896,30.36 C40.657,30.416 41.383,30.232 42,29.875 L36.566,28.408" id="Fill-88" fill="#E6EEF4" sketch:type="MSShapeGroup"></path>
            <path d="M12.182,20.997 L12.594,29.094 C12.635,29.905 12.917,30.645 13.355,31.267 L15.654,30.606 C14.555,30.015 13.772,28.891 13.704,27.56 L13.32,20.007 C13.031,20.417 12.644,20.757 12.182,20.997" id="Fill-89" fill="#C6CCCE" sketch:type="MSShapeGroup"></path>
            <path d="M23.535,7.681 C23.157,7.243 22.468,7.278 22.136,7.752 L17.17,14.855 C16.937,15.187 16.96,15.635 17.225,15.942 L22.886,22.504 C23.101,22.753 23.413,22.833 23.706,22.782 L24.71,9.044 L23.535,7.681" id="Fill-90" fill="#D71E00" sketch:type="MSShapeGroup"></path>
            <path d="M26.167,3.509 C26.239,2.529 26.699,1.668 27.379,1.054 L25.37,1.156 C25.298,1.414 25.249,1.683 25.228,1.96 L24.71,9.044 L25.68,10.168 L26.167,3.509" id="Fill-91" fill="#C6CCCE" sketch:type="MSShapeGroup"></path>
            <path d="M27.96,29.487 C25.94,29.339 24.408,27.566 24.556,25.546 L25.153,17.378 L24.842,21.637 L24.284,22.433 C24.141,22.638 23.928,22.744 23.706,22.782 L23.404,26.908 C23.291,28.45 24.054,29.85 25.257,30.66 L29.522,30.443 C30.255,30.406 30.927,30.148 31.483,29.745 L27.96,29.487" id="Fill-92" fill="#C6CCCE" sketch:type="MSShapeGroup"></path>
            <path d="M24.842,21.637 L25.68,10.168 L24.71,9.044 L23.706,22.782 C23.928,22.744 24.141,22.638 24.284,22.433 L24.842,21.637" id="Fill-93" fill="#9B2418" sketch:type="MSShapeGroup"></path>
            <path d="M47.314,31.534 L36.372,28.581 C34.248,28.008 32.98,25.801 33.553,23.677 L39.144,2.957 C39.717,0.833 41.924,-0.435 44.048,0.138 L54.99,3.091 C57.114,3.664 58.383,5.871 57.81,7.995 L52.218,28.714 C51.645,30.838 49.438,32.107 47.314,31.534" id="Fill-166" fill="#E6EEF4" sketch:type="MSShapeGroup"></path>
            <path d="M51.063,11.163 C49.054,9.631 46.995,11.422 46.995,11.422 C46.995,11.422 46.117,8.839 43.61,9.151 C41.478,9.417 40.086,11.541 40.463,13.657 C40.786,15.468 41.769,18.034 44.357,21.2 C48.186,19.766 50.326,18.042 51.516,16.64 C52.907,15.001 52.773,12.465 51.063,11.163" id="Fill-167" fill="#D71E00" sketch:type="MSShapeGroup"></path>
            <path d="M13.32,20.007 L12.803,9.822 L13.32,20.007" id="Fill-735" fill="#556080" sketch:type="MSShapeGroup"></path>
            <path d="M25.68,10.168 L25.68,10.168 L25.153,17.378 L25.68,10.168" id="Fill-736" fill="#D71E00" sketch:type="MSShapeGroup"></path>
            <path d="M34.854,20.619 L37.483,10.876 L34.854,20.619" id="Fill-737" fill="#474A58" sketch:type="MSShapeGroup"></path>
            <path d="M35.569,9.109 C32.093,11.235 30.318,13.326 29.413,14.926 C28.352,16.8 28.957,19.277 30.886,20.234 C31.388,20.484 31.863,20.572 32.296,20.558 C32.528,20.55 32.759,20.556 32.99,20.555 L35.982,9.471 C35.843,9.35 35.716,9.231 35.569,9.109" id="Fill-738" fill="#556080" sketch:type="MSShapeGroup"></path>
            <path d="M36.566,28.408 C34.61,27.881 33.442,25.849 33.97,23.894 L34.854,20.619 C34.235,20.571 33.613,20.554 32.99,20.555 L31.705,25.319 C31.208,27.161 32.099,29.062 33.729,29.909 L39.896,30.36 C40.657,30.416 41.383,30.232 42,29.875 L36.566,28.408" id="Fill-739" fill="#C6CCCE" sketch:type="MSShapeGroup"></path>
            <path d="M39.727,2.561 C39.907,1.895 40.27,1.33 40.737,0.882 L38.346,0.707 L35.982,9.471 C36.531,9.949 37.038,10.42 37.483,10.876 L39.727,2.561" id="Fill-740" fill="#C6CCCE" sketch:type="MSShapeGroup"></path>
            <path d="M34.854,20.619 L37.483,10.876 C37.038,10.42 36.531,9.949 35.982,9.471 L32.99,20.555 C33.613,20.554 34.235,20.571 34.854,20.619" id="Fill-741" fill="#384259" sketch:type="MSShapeGroup"></path>
        </g>
    </g>
</svg>