<?xml version="1.0" encoding="UTF-8" standalone="no"?>
<svg width="56px" height="54px" viewBox="0 0 56 54" version="1.1" xmlns="http://www.w3.org/2000/svg" xmlns:xlink="http://www.w3.org/1999/xlink" xmlns:sketch="http://www.bohemiancoding.com/sketch/ns">
    <!-- Generator: Sketch 3.2.2 (9983) - http://www.bohemiancoding.com/sketch -->
    <title>70 - Charlie's Chocolate Factory (Flat)</title>
    <desc>Created with Sketch.</desc>
    <defs></defs>
    <g id="Page-1" stroke="none" stroke-width="1" fill="none" fill-rule="evenodd" sketch:type="MSPage">
        <g id="70---Charlie's-Chocolate-Factory-(Flat)" sketch:type="MSLayerGroup">
            <path d="M12.545,18 L28,18 L28,36 L11.554,36 C10.696,36 10,35.304 10,34.446 L10,20.545 C10,19.14 11.139,18 12.545,18" id="Fill-198" fill="#805333" sketch:type="MSShapeGroup"></path>
            <path d="M11.554,36 L28,36 L28,52.836 C28,53.479 27.479,54 26.836,54 L12.545,54 C11.139,54 10,52.861 10,51.455 L10,37.554 C10,36.696 10.696,36 11.554,36" id="Fill-199" fill="#804537" sketch:type="MSShapeGroup"></path>
            <path d="M28,18 L42.681,18 C44.514,18 46,19.486 46,21.319 L46,34.799 C46,35.462 45.462,36 44.799,36 L28,36 L28,18" id="Fill-200" fill="#804537" sketch:type="MSShapeGroup"></path>
            <path d="M28,36 L44.799,36 C45.462,36 46,36.538 46,37.201 L46,51.455 C46,52.861 44.86,54 43.455,54 L29.494,54 C28.669,54 28,53.331 28,52.506 L28,36" id="Fill-201" fill="#805333" sketch:type="MSShapeGroup"></path>
            <path d="M44,18 L44,4 L43.999,4 C41.757,4.025 40.159,2.299 40,0.063 L39.995,0 L16,0 C16,2.367 14.367,4 12,4 L12,18 L44,18" id="Fill-202" fill="#EBC556" sketch:type="MSShapeGroup"></path>
            <path d="M40,18 L40,8.286 C37.633,8.286 35.714,6.367 35.715,4 L20.285,4 C20.286,6.367 18.367,8.286 16,8.286 L16,18 L40,18" id="Fill-203" fill="#D79E41" sketch:type="MSShapeGroup"></path>
            <path d="M22.101,49 L15.899,49 C14.85,49 14,48.15 14,47.101 L14,42.899 C14,41.85 14.85,41 15.899,41 L22.101,41 C23.15,41 24,41.85 24,42.899 L24,47.101 C24,48.15 23.15,49 22.101,49" id="Fill-204" fill="#5B342C" sketch:type="MSShapeGroup"></path>
            <path d="M22.101,31 L15.899,31 C14.85,31 14,30.15 14,29.101 L14,24.899 C14,23.85 14.85,23 15.899,23 L22.101,23 C23.15,23 24,23.85 24,24.899 L24,29.101 C24,30.15 23.15,31 22.101,31" id="Fill-205" fill="#5B342C" sketch:type="MSShapeGroup"></path>
            <path d="M40.101,31 L33.899,31 C32.85,31 32,30.15 32,29.101 L32,24.899 C32,23.85 32.85,23 33.899,23 L40.101,23 C41.15,23 42,23.85 42,24.899 L42,29.101 C42,30.15 41.15,31 40.101,31" id="Fill-206" fill="#5B342C" sketch:type="MSShapeGroup"></path>
            <path d="M40.101,49 L33.899,49 C32.85,49 32,48.15 32,47.101 L32,42.899 C32,41.85 32.85,41 33.899,41 L40.101,41 C41.15,41 42,41.85 42,42.899 L42,47.101 C42,48.15 41.15,49 40.101,49" id="Fill-207" fill="#5B342C" sketch:type="MSShapeGroup"></path>
            <path d="M51.245,4 L52.714,6.978 L56,7.455 L53.622,9.773 L54.184,13.045 L51.245,11.5 L48.306,13.045 L48.867,9.773 L46.489,7.455 L49.775,6.978 L51.245,4" id="Fill-208" fill="#F3D55B" sketch:type="MSShapeGroup"></path>
            <path d="M4.755,4 L6.225,6.978 L9.511,7.455 L7.133,9.773 L7.694,13.045 L4.755,11.5 L1.816,13.045 L2.378,9.773 L0,7.455 L3.286,6.978 L4.755,4" id="Fill-211" fill="#F3D55B" sketch:type="MSShapeGroup"></path>
        </g>
    </g>
</svg>