<?xml version="1.0" encoding="UTF-8" standalone="no"?>
<svg width="39px" height="58px" viewBox="0 0 39 58" version="1.1" xmlns="http://www.w3.org/2000/svg" xmlns:xlink="http://www.w3.org/1999/xlink" xmlns:sketch="http://www.bohemiancoding.com/sketch/ns">
    <!-- Generator: Sketch 3.2.2 (9983) - http://www.bohemiancoding.com/sketch -->
    <title>26 - Clonetrooper (Flat)</title>
    <desc>Created with Sketch.</desc>
    <defs></defs>
    <g id="Page-1" stroke="none" stroke-width="1" fill="none" fill-rule="evenodd" sketch:type="MSPage">
        <g id="26---Clonetrooper-(Flat)" sketch:type="MSLayerGroup">
            <path d="M38.367,40.168 L37.588,39 L37.588,21 C37.588,18.573 36.732,17.611 35.875,17.233 C35.109,16.895 34.544,16.243 34.398,15.419 C32.974,7.406 25.704,6.163 22,6.017 L22,17.5 C22,18.881 20.881,20 19.5,20 C18.119,20 17,18.881 17,17.5 L17,6.017 C13.296,6.163 6.204,7.448 4.779,15.459 C4.632,16.284 4.066,16.937 3.3,17.276 C2.443,17.654 1.588,18.608 1.588,21.042 L1.588,39.042 L0.809,40.21 C0.021,41.393 -0.04,42.92 0.674,44.149 C2.753,47.73 7.928,54.709 17,55.861 L17,53.958 C17,52.877 17.876,52 18.958,52 L21.042,52 C22.123,52 23,52.877 23,53.958 L23,55.744 C31.564,54.281 36.486,47.578 38.502,44.107 C39.216,42.878 39.155,41.351 38.367,40.168" id="Fill-146" fill="#ECF0F1" sketch:type="MSShapeGroup"></path>
            <path d="M1.588,20 L37.588,20" id="Stroke-446" stroke="#D1D4D1" stroke-width="2" sketch:type="MSShapeGroup"></path>
            <path d="M21.042,58 L18.958,58 C17.876,58 17,57.123 17,56.042 L17,53.958 C17,52.877 17.876,52 18.958,52 L21.042,52 C22.123,52 23,52.877 23,53.958 L23,56.042 C23,57.123 22.123,58 21.042,58" id="Fill-447" fill="#D1D4D1" sketch:type="MSShapeGroup"></path>
            <path d="M20,20 L19,20 C17.9,20 17,19.1 17,18 L17,2 C17,0.9 17.9,0 19,0 L20,0 C21.1,0 22,0.9 22,2 L22,18 C22,19.1 21.1,20 20,20" id="Fill-448" fill="#D1D4D1" sketch:type="MSShapeGroup"></path>
            <path d="M11.123,38.767 L1.588,29.177 L1.588,32.014 L9.745,40.215 C9.907,40.361 10,40.57 10,40.789 L10,46.75 C10,47.303 10.448,47.75 11,47.75 C11.552,47.75 12,47.303 12,46.75 L12,40.789 C12,40.005 11.665,39.254 11.123,38.767" id="Fill-878" fill="#D1D4D1" sketch:type="MSShapeGroup"></path>
            <path d="M37.654,28.939 L27.917,38.729 C27.334,39.254 27,40.005 27,40.789 L27,46.391 C27,46.943 27.448,47.391 28,47.391 C28.552,47.391 29,46.943 29,46.391 L29,40.789 C29,40.57 29.093,40.361 29.296,40.177 L37.654,31.776 L37.654,28.939" id="Fill-879" fill="#D1D4D1" sketch:type="MSShapeGroup"></path>
            <path d="M23,40 L23,30 L36.588,23 L2.588,23 L17,30 L17,40 C17,40 6.324,50.171 6.588,49.995 C10.572,47.543 15.078,46.322 19.588,46.33 C23.928,46.337 28.27,47.481 32.152,49.761 C32.452,49.937 32.611,50.024 32.588,49.995 L23,40" id="Fill-880" fill="#464F5D" sketch:type="MSShapeGroup"></path>
        </g>
    </g>
</svg>