<?xml version="1.0" encoding="UTF-8" standalone="no"?>
<svg width="56px" height="56px" viewBox="0 0 56 56" version="1.1" xmlns="http://www.w3.org/2000/svg" xmlns:xlink="http://www.w3.org/1999/xlink" xmlns:sketch="http://www.bohemiancoding.com/sketch/ns">
    <!-- Generator: Sketch 3.2.2 (9983) - http://www.bohemiancoding.com/sketch -->
    <title>5 - Countdown (Flat)</title>
    <desc>Created with Sketch.</desc>
    <defs></defs>
    <g id="Page-1" stroke="none" stroke-width="1" fill="none" fill-rule="evenodd" sketch:type="MSPage">
        <g id="5---Countdown-(Flat)" sketch:type="MSLayerGroup" transform="translate(1.000000, 1.000000)">
            <path d="M0,0 L54,0 L54,54 L0,54 L0,0 Z" id="Fill-590" fill="#D1D4D1" sketch:type="MSShapeGroup"></path>
            <path d="M0,0 L54,0 L54,54 L0,54 L0,0 Z" id="Stroke-591" stroke="#A5A5A4" stroke-width="2" sketch:type="MSShapeGroup"></path>
            <path d="M54,27 C54,41.912 41.912,54 27,54 C12.088,54 0,41.912 0,27 C0,12.088 12.088,0 27,0 C41.912,0 54,12.088 54,27 L54,27 Z" id="Fill-605" fill="#FFFFFF" sketch:type="MSShapeGroup"></path>
            <path d="M54,27 C54,41.912 41.912,54 27,54 C12.088,54 0,41.912 0,27 C0,12.088 12.088,0 27,0 C41.912,0 54,12.088 54,27 L54,27 Z" id="Stroke-606" stroke="#A5A5A4" stroke-width="2" sketch:type="MSShapeGroup"></path>
            <path d="M27,47 C15.972,47 7,38.028 7,27 C7,15.972 15.972,7 27,7 C38.028,7 47,15.972 47,27 C47,38.028 38.028,47 27,47 L27,47 Z" id="Fill-607" fill="#D1D4D1" sketch:type="MSShapeGroup"></path>
            <path d="M27,47 C15.972,47 7,38.028 7,27 C7,15.972 15.972,7 27,7 C38.028,7 47,15.972 47,27 C47,38.028 38.028,47 27,47 L27,47 Z" id="Stroke-608" stroke="#A5A5A4" stroke-width="2" sketch:type="MSShapeGroup"></path>
            <path d="M27,0 L27,14 M27,40 L27,54 M54,27 L40,27 M14,27 L0,27" id="Stroke-609" stroke="#A5A5A4" stroke-width="2" sketch:type="MSShapeGroup"></path>
            <path d="M31,20 L25,20 L23.018,25.945 C23.012,25.965 23.032,25.982 23.05,25.971 C24.015,25.428 25.18,25.201 26.407,25.428 C28.319,25.783 29.883,27.304 30.28,29.208 C30.944,32.392 29.067,35 26,35 C24.541,35 22.902,34.008 22,33" id="Path" stroke="#5E5F62" stroke-width="2" stroke-linecap="round" sketch:type="MSShapeGroup"></path>
        </g>
    </g>
</svg>