<?xml version="1.0" encoding="UTF-8" standalone="no"?>
<svg width="47px" height="54px" viewBox="0 0 47 54" version="1.1" xmlns="http://www.w3.org/2000/svg" xmlns:xlink="http://www.w3.org/1999/xlink" xmlns:sketch="http://www.bohemiancoding.com/sketch/ns">
    <!-- Generator: Sketch 3.2.2 (9983) - http://www.bohemiancoding.com/sketch -->
    <title>74 - Django Unchained (Flat)</title>
    <desc>Created with Sketch.</desc>
    <defs></defs>
    <g id="Page-1" stroke="none" stroke-width="1" fill="none" fill-rule="evenodd" sketch:type="MSPage">
        <g id="74---Django-Unchained-(Flat)" sketch:type="MSLayerGroup">
            <path d="M14,26 L9,26 L9,12 C9,9.794 7.206,8 5,8 C2.794,8 1,9.794 1,12 C1,12.552 1.447,13 2,13 C2.553,13 3,12.552 3,12 C3,10.897 3.898,10 5,10 C6.102,10 7,10.897 7,12 L7,26 L5,26 C4.447,26 4,26.448 4,27 C4,27.552 4.447,28 5,28 L14,28 C14.553,28 15,27.552 15,27 C15,26.448 14.553,26 14,26" id="Fill-130" fill="#1D3E4C" sketch:type="MSShapeGroup"></path>
            <path d="M15.672,40.365 C15.665,40.359 15.664,40.35 15.657,40.343 C15.651,40.337 15.642,40.335 15.635,40.329 C14.188,38.891 12.196,38 10,38 C7.903,38 5.998,38.817 4.57,40.142 C4.491,40.186 4.41,40.226 4.343,40.293 C4.281,40.355 4.246,40.43 4.204,40.502 C2.842,41.937 2,43.87 2,46 C2,48.196 2.89,50.188 4.328,51.635 C4.334,51.641 4.336,51.65 4.343,51.657 C4.349,51.663 4.358,51.665 4.365,51.671 C5.812,53.109 7.803,54 10,54 C14.411,54 18,50.411 18,46 C18,43.804 17.11,41.812 15.672,40.365 L15.672,40.365 Z M14.907,49.442 L12.717,47.253 C12.755,47.171 12.785,47.086 12.816,47 L15.91,47 C15.758,47.897 15.41,48.727 14.907,49.442 L14.907,49.442 Z M4.09,47 L7.184,47 C7.219,47.098 7.256,47.193 7.301,47.285 L5.115,49.471 C4.6,48.749 4.244,47.909 4.09,47 L4.09,47 Z M5.136,42.5 L7.318,44.682 C7.267,44.785 7.223,44.891 7.184,45 L4.09,45 C4.246,44.078 4.61,43.229 5.136,42.5 L5.136,42.5 Z M10.707,46.657 C10.68,46.683 10.67,46.718 10.647,46.747 C10.472,46.899 10.25,47 10,47 C9.448,47 9,46.551 9,46 C9,45.449 9.448,45 10,45 C10.552,45 11,45.449 11,46 C11,46.237 10.906,46.445 10.768,46.616 C10.749,46.633 10.725,46.639 10.707,46.657 L10.707,46.657 Z M11.285,43.301 C11.193,43.256 11.098,43.219 11,43.184 L11,40.09 C11.909,40.244 12.749,40.6 13.471,41.115 L11.285,43.301 L11.285,43.301 Z M9,43.184 C8.914,43.215 8.829,43.245 8.747,43.283 L6.557,41.094 C7.273,40.59 8.103,40.242 9,40.09 L9,43.184 L9,43.184 Z M8.715,48.699 C8.807,48.744 8.902,48.781 9,48.816 L9,51.91 C8.09,51.756 7.251,51.4 6.529,50.885 L8.715,48.699 L8.715,48.699 Z M11,48.816 C11.109,48.777 11.215,48.733 11.318,48.682 L13.5,50.864 C12.771,51.389 11.922,51.754 11,51.91 L11,48.816 L11,48.816 Z M12.816,45 C12.781,44.902 12.744,44.807 12.7,44.715 L14.885,42.529 C15.4,43.251 15.756,44.091 15.91,45 L12.816,45 L12.816,45 Z" id="Fill-131" fill="#96A8B7" sketch:type="MSShapeGroup"></path>
            <path d="M42.313,38.443 L42.017,38 L25.983,38 L25.686,38.443 C24.583,40.091 24,42.012 24,44 C24,46.746 25.113,49.236 26.911,51.045 C26.919,51.053 26.921,51.063 26.929,51.071 C26.936,51.078 26.947,51.081 26.954,51.088 C28.764,52.886 31.254,54 34,54 C39.514,54 44,49.514 44,44 C44,42.012 43.417,40.091 42.313,38.443 L42.313,38.443 Z M41.935,43 L37.858,43 C37.763,42.637 37.62,42.296 37.433,41.981 L39.414,40 L40.928,40 C41.464,40.924 41.802,41.942 41.935,43 L41.935,43 Z M26.07,45 L30.142,45 C30.237,45.363 30.38,45.704 30.567,46.019 L27.688,48.897 C26.828,47.792 26.252,46.458 26.07,45 L26.07,45 Z M34,46 C32.897,46 32,45.103 32,44 C32,42.897 32.897,42 34,42 C35.102,42 36,42.897 36,44 C36,45.103 35.102,46 34,46 L34,46 Z M36.019,40.567 C35.704,40.38 35.363,40.236 35,40.142 L35,40 L36.586,40 L36.019,40.567 L36.019,40.567 Z M33,40.142 C32.637,40.236 32.296,40.38 31.981,40.567 L31.414,40 L33,40 L33,40.142 L33,40.142 Z M31.981,47.433 C32.296,47.62 32.637,47.764 33,47.858 L33,51.931 C31.542,51.748 30.208,51.172 29.102,50.312 L31.981,47.433 L31.981,47.433 Z M35,47.858 C35.388,47.757 35.753,47.602 36.087,47.397 C36.135,47.509 36.201,47.615 36.293,47.707 L38.898,50.312 C37.792,51.172 36.457,51.748 35,51.931 L35,47.858 L35,47.858 Z M28.586,40 L30.567,41.981 C30.38,42.296 30.237,42.637 30.142,43 L26.065,43 C26.198,41.942 26.536,40.924 27.072,40 L28.586,40 L28.586,40 Z M40.312,48.898 L37.707,46.293 C37.615,46.201 37.509,46.135 37.396,46.087 C37.602,45.753 37.757,45.389 37.858,45 L41.93,45 C41.748,46.458 41.172,47.792 40.312,48.898 L40.312,48.898 Z" id="Fill-132" fill="#96A8B7" sketch:type="MSShapeGroup"></path>
            <path d="M14,18 L44,18 L44,39 L14,39 L14,18 Z" id="Fill-185" fill="#704D18" sketch:type="MSShapeGroup"></path>
            <path d="M46,38 L9.535,38 L8.868,37 L10,37 C10.553,37 11,36.552 11,36 C11,35.448 10.553,35 10,35 L1,35 C0.447,35 0,35.448 0,36 C0,36.552 0.447,37 1,37 L2.465,37 L4.168,39.555 L4.183,39.545 C4.362,39.813 4.653,40 5,40 L46,40 C46.553,40 47,39.552 47,39 C47,38.448 46.553,38 46,38 L46,38 Z M6.465,37 L7.131,38 L5.535,38 L4.869,37 L6.465,37 L6.465,37 Z" id="Fill-186" fill="#1D3E4C" sketch:type="MSShapeGroup"></path>
            <path d="M2,17 L2,17 C0.895,17 0,16.105 0,15 L0,12 L4,12 L4,15 C4,16.105 3.105,17 2,17" id="Fill-187" fill="#F18D46" sketch:type="MSShapeGroup"></path>
            <path d="M46,17 L31,17 L31,10 C31,9.448 30.553,9 30,9 C29.447,9 29,9.448 29,10 L29,17 L12,17 C11.447,17 11,17.448 11,18 C11,18.552 11.447,19 12,19 L46,19 C46.553,19 47,18.552 47,18 C47,17.448 46.553,17 46,17" id="Fill-188" fill="#1D3E4C" sketch:type="MSShapeGroup"></path>
            <path d="M20,23 L38,23 L38,32 L20,32 L20,23 Z" id="Fill-189" fill="#95641D" sketch:type="MSShapeGroup"></path>
            <path d="M30,0.99 C30,0.99 28.12,-0.759 26.344,0.393 C25.424,0.99 25.028,2.143 25.224,3.223 L26.617,12 C26.738,12.665 27.622,12.821 27.96,12.235 C28.58,11.163 29.383,8.934 30,9 C30.617,8.934 31.42,11.163 32.04,12.235 C32.378,12.821 33.262,12.665 33.383,12 L34.776,3.223 C34.972,2.143 34.576,0.99 33.656,0.393 C31.88,-0.759 30,0.99 30,0.99" id="Fill-688" fill="#D1D4D1" sketch:type="MSShapeGroup"></path>
        </g>
    </g>
</svg>