<?xml version="1.0" encoding="UTF-8" standalone="no"?>
<svg width="46px" height="51px" viewBox="0 0 46 51" version="1.1" xmlns="http://www.w3.org/2000/svg" xmlns:xlink="http://www.w3.org/1999/xlink" xmlns:sketch="http://www.bohemiancoding.com/sketch/ns">
    <!-- Generator: Sketch 3.2.2 (9983) - http://www.bohemiancoding.com/sketch -->
    <title>62 - Fantasia (Flat)</title>
    <desc>Created with Sketch.</desc>
    <defs></defs>
    <g id="Page-1" stroke="none" stroke-width="1" fill="none" fill-rule="evenodd" sketch:type="MSPage">
        <g id="62---Fantasia-(Flat)" sketch:type="MSLayerGroup">
            <path d="M4.755,4 L6.225,6.978 L9.511,7.455 L7.133,9.773 L7.694,13.045 L4.755,11.5 L1.816,13.045 L2.378,9.773 L0,7.455 L3.286,6.978 L4.755,4" id="Fill-209" fill="#F3D55B" sketch:type="MSShapeGroup"></path>
            <path d="M40.755,4 L42.225,6.978 L45.511,7.455 L43.133,9.773 L43.694,13.045 L40.755,11.5 L37.816,13.045 L38.378,9.773 L36,7.455 L39.286,6.978 L40.755,4" id="Fill-210" fill="#F3D55B" sketch:type="MSShapeGroup"></path>
            <path d="M24,46 C28,46 38,44.375 43,41 L24.103,1.229 C23.762,0.23 22.338,0.262 22.041,1.275 L4,41 C4,41 17.708,46 24,46" id="Fill-234" fill="#8697CB" sketch:type="MSShapeGroup"></path>
            <path d="M23,13 L24.617,16.276 L28.232,16.801 L25.616,19.351 L26.233,22.951 L23,21.251 L19.767,22.951 L20.384,19.351 L17.768,16.801 L21.383,16.276 L23,13" id="Fill-235" fill="#F3D55B" sketch:type="MSShapeGroup"></path>
            <path d="M13.193,34 L12.634,30.744 L15,28.438 L11.73,27.963 L10.788,26.053 L7.444,33.416 L7.344,34 L10.268,32.463 L13.193,34" id="Fill-236" fill="#F3D55B" sketch:type="MSShapeGroup"></path>
            <path d="M35.803,38.607 C32.874,41.536 28.126,41.536 25.197,38.607 C22.268,35.678 22.268,30.929 25.197,28 C25.61,33.371 29.698,37.735 35.031,38.496 L35.803,38.607" id="Fill-237" fill="#F3D55B" sketch:type="MSShapeGroup"></path>
            <path d="M43.338,40.18 C43.134,40.065 42.883,40.078 42.683,40.2 C37.584,43.322 27.811,45 24,45 C18.174,45 7.1,41.412 4.279,40.132 C4.097,40.05 3.879,40.058 3.703,40.153 C1.718,41.225 1,42.685 1,44 C1,47.866 11.074,51 23.5,51 C35.926,51 46,47.866 46,44 C46,42.728 45.211,41.241 43.338,40.18" id="Fill-715" fill="#556080" sketch:type="MSShapeGroup"></path>
        </g>
    </g>
</svg>