<?xml version="1.0" encoding="UTF-8" standalone="no"?>
<svg width="52px" height="57px" viewBox="0 0 52 57" version="1.1" xmlns="http://www.w3.org/2000/svg" xmlns:xlink="http://www.w3.org/1999/xlink" xmlns:sketch="http://www.bohemiancoding.com/sketch/ns">
    <!-- Generator: Sketch 3.2.2 (9983) - http://www.bohemiancoding.com/sketch -->
    <title>60 - Fight Club (Flat)</title>
    <desc>Created with Sketch.</desc>
    <defs></defs>
    <g id="Page-1" stroke="none" stroke-width="1" fill="none" fill-rule="evenodd" sketch:type="MSPage">
        <g id="60---Fight-Club-(Flat)" sketch:type="MSLayerGroup" transform="translate(-1.000000, 0.000000)">
            <path d="M52.999,30.924 L52.999,22.993 C52.999,21.094 51.917,20.924 49.073,20.924 L32.693,20.924 C32.066,22.634 30.439,23.86 28.512,23.86 C26.856,23.86 25.428,22.949 24.656,21.611 C22.823,22.114 21.214,22.849 20.331,23.669 L5.701,35.231 C6.11,35.313 6.484,35.49 6.792,35.748 C6.927,35.862 7.085,35.943 7.249,36.002 C7.431,35.966 7.618,35.941 7.811,35.941 C7.989,35.941 8.163,35.956 8.332,35.985 C8.488,35.959 8.647,35.941 8.811,35.941 C10.234,35.941 11.423,36.895 11.798,38.197 C11.904,38.565 12.155,38.871 12.504,39.029 C13.606,39.53 14.374,40.635 14.374,41.924 C14.374,42.778 14.221,43.506 13.742,44.061 C13.569,44.26 13.594,44.54 13.734,44.763 C13.956,45.117 13.999,45.592 13.999,46.081 C13.999,46.475 13.878,46.841 13.672,47.145 C13.393,47.556 13.349,48.11 13.633,48.518 C13.899,48.898 14.055,49.359 14.055,49.859 C14.055,50.247 14.054,50.605 14.005,50.924 L25.301,50.924 C28.731,50.924 32.834,49.794 34.464,48.278 L51.037,34.963 C53.124,33.034 52.999,30.924 52.999,30.924" id="Fill-154" fill="#F9EBB0" sketch:type="MSShapeGroup"></path>
            <path d="M30.876,35.442 C30.565,35.442 30.258,35.297 30.063,35.026 C29.741,34.577 29.843,33.953 30.291,33.63 L39.556,26.967 C39.371,26.942 39.139,26.924 38.854,26.924 L35.207,26.924 C34.655,26.924 34.207,26.477 34.207,25.924 C34.207,25.372 34.655,24.924 35.207,24.924 L38.854,24.924 C40.94,24.924 41.66,25.641 41.896,26.243 C42.015,26.545 42.196,27.336 41.315,28.156 L41.218,28.236 L31.459,35.254 C31.282,35.381 31.078,35.442 30.876,35.442" id="Fill-254" fill="#FAC176" sketch:type="MSShapeGroup"></path>
            <path d="M17.944,32.171 C17.633,32.171 17.327,32.027 17.131,31.755 C16.809,31.307 16.911,30.682 17.359,30.359 L22.525,26.645 C23.633,25.661 26.035,24.924 28.16,24.924 L30.706,24.924 C31.259,24.924 31.706,25.372 31.706,25.924 C31.706,26.477 31.259,26.924 30.706,26.924 L28.16,26.924 C26.393,26.924 24.462,27.574 23.836,28.156 L23.739,28.236 L18.527,31.983 C18.351,32.11 18.146,32.171 17.944,32.171" id="Fill-255" fill="#FAC176" sketch:type="MSShapeGroup"></path>
            <path d="M25.87,36.941 L15.175,36.941 C13.089,36.941 12.369,36.224 12.133,35.623 C12.014,35.32 11.833,34.529 12.715,33.709 C13.119,33.333 13.752,33.356 14.128,33.761 C14.415,34.069 14.47,34.51 14.3,34.869 C14.506,34.909 14.793,34.941 15.175,34.941 L25.87,34.941 C26.422,34.941 26.87,35.389 26.87,35.941 C26.87,36.493 26.422,36.941 25.87,36.941" id="Fill-256" fill="#FAC176" sketch:type="MSShapeGroup"></path>
            <path d="M14.055,49.859 C14.055,49.359 13.899,48.898 13.633,48.518 C13.349,48.11 13.393,47.556 13.672,47.145 C13.878,46.841 13.999,46.475 13.999,46.081 C13.999,45.592 13.956,45.117 13.734,44.763 C13.594,44.54 13.569,44.261 13.742,44.061 C14.221,43.506 14.374,42.778 14.374,41.924 C14.374,40.635 13.606,39.53 12.504,39.029 C12.155,38.871 11.904,38.565 11.798,38.197 C11.423,36.895 10.234,35.941 8.811,35.941 C8.537,35.941 8.273,35.979 8.022,36.049 C7.594,36.167 7.132,36.034 6.792,35.748 C6.214,35.263 5.412,35.038 4.558,35.26 C3.748,35.471 3.08,36.121 2.851,36.927 C2.688,37.497 2.728,38.042 2.911,38.517 C3.125,39.071 2.885,39.748 2.389,40.074 C1.552,40.623 0.999,41.565 0.999,42.643 C0.999,43.467 1.323,44.211 1.85,44.761 C2.344,45.278 2.478,46.018 2.143,46.65 C1.931,47.049 1.811,47.503 1.811,47.987 C1.811,48.396 1.9,48.782 2.056,49.132 C2.258,49.582 2.273,50.112 2.076,50.564 C1.907,50.954 1.811,51.382 1.811,51.834 C1.811,53.639 3.274,55.102 5.079,55.102 C6.738,55.102 8.322,52.961 8.347,54.036 C8.368,54.979 8.766,55.91 9.602,56.346 C11.613,57.395 13.624,55.964 13.624,54.063 C13.624,53.512 13.721,52.997 13.61,52.572 C13.524,52.244 13.542,51.897 13.746,51.626 C14.068,51.197 14.055,50.57 14.055,49.859 L14.055,49.859 Z M6.905,46.111 C4.971,46.111 4.971,43.113 6.905,43.113 C8.838,43.113 8.838,46.111 6.905,46.111 L6.905,46.111 Z" id="Fill-257" fill="#F0C419" sketch:type="MSShapeGroup"></path>
            <path d="M32.98,19.391 C32.98,21.859 30.98,23.86 28.512,23.86 C26.044,23.86 24.044,21.859 24.044,19.391 C24.044,16.924 26.044,14.923 28.512,14.923 C30.98,14.923 32.98,16.924 32.98,19.391" id="Fill-258" fill="#ECF0F1" sketch:type="MSShapeGroup"></path>
            <path d="M47.997,12.402 C47.997,13.781 46.879,14.9 45.499,14.9 C44.119,14.9 43,13.781 43,12.402 C43,11.022 44.119,9.903 45.499,9.903 C46.879,9.903 47.997,11.022 47.997,12.402" id="Fill-259" fill="#ECF0F1" sketch:type="MSShapeGroup"></path>
            <path d="M25.335,2.499 C25.335,3.879 24.216,4.997 22.836,4.997 C21.456,4.997 20.337,3.879 20.337,2.499 C20.337,1.119 21.456,0 22.836,0 C24.216,0 25.335,1.119 25.335,2.499" id="Fill-260" fill="#ECF0F1" sketch:type="MSShapeGroup"></path>
            <path d="M39.468,4.423 C39.468,6.602 37.701,8.368 35.523,8.368 C33.344,8.368 31.577,6.602 31.577,4.423 C31.577,2.244 33.344,0.478 35.523,0.478 C37.701,0.478 39.468,2.244 39.468,4.423" id="Fill-261" fill="#ECF0F1" sketch:type="MSShapeGroup"></path>
            <path d="M24.663,42.434 C23.549,42.434 22.389,42.325 21.168,42.114 C20.624,42.019 20.259,41.502 20.354,40.958 C20.448,40.414 20.965,40.05 21.51,40.143 C26.871,41.074 30.78,39.812 34.995,35.789 C35.394,35.407 36.027,35.421 36.408,35.821 C36.79,36.221 36.775,36.854 36.375,37.235 C32.657,40.785 29.016,42.434 24.663,42.434" id="Fill-262" fill="#FAC176" sketch:type="MSShapeGroup"></path>
            <path d="M51.915,21.188 C51.663,22.024 49.295,23.934 48.484,24.587 L39.37,31.986 C38.942,32.335 38.877,32.964 39.225,33.393 C39.423,33.636 39.711,33.762 40.002,33.762 C40.224,33.762 40.447,33.689 40.632,33.538 L49.738,26.145 C51.082,25.064 52.232,24.078 52.999,23.143 L52.999,22.993 C52.999,21.961 52.663,21.448 51.915,21.188" id="Fill-718" fill="#FAC176" sketch:type="MSShapeGroup"></path>
        </g>
    </g>
</svg>