<?xml version="1.0" encoding="UTF-8" standalone="no"?>
<svg width="45px" height="57px" viewBox="0 0 45 57" version="1.1" xmlns="http://www.w3.org/2000/svg" xmlns:xlink="http://www.w3.org/1999/xlink" xmlns:sketch="http://www.bohemiancoding.com/sketch/ns">
    <!-- Generator: Sketch 3.2.2 (9983) - http://www.bohemiancoding.com/sketch -->
    <title>42 - Friday the 13th (Flat)</title>
    <desc>Created with Sketch.</desc>
    <defs></defs>
    <g id="Page-1" stroke="none" stroke-width="1" fill="none" fill-rule="evenodd" sketch:type="MSPage">
        <g id="42---Friday-the-13th-(Flat)" sketch:type="MSLayerGroup" transform="translate(-1.000000, 0.000000)">
            <path d="M44.802,16.27 C42.735,9.522 38.72,5.498 34.727,3.099 C27.85,-1.033 19.15,-1.033 12.273,3.099 C8.28,5.498 4.265,9.522 2.198,16.27 C0.667,21.264 0.652,26.608 1.875,31.688 C4.053,40.734 9.925,57.471 23.5,56.987 C37.075,57.471 42.947,40.734 45.125,31.688 C46.348,26.608 46.333,21.264 44.802,16.27 L44.802,16.27 Z M13.478,27.045 C10.032,27.045 7.238,24.251 7.238,20.805 C7.238,17.359 10.032,14.565 13.478,14.565 C16.924,14.565 19.717,17.359 19.717,20.805 C19.717,24.251 16.924,27.045 13.478,27.045 L13.478,27.045 Z M33.24,27.045 C29.794,27.045 27,24.251 27,20.805 C27,17.359 29.794,14.565 33.24,14.565 C36.686,14.565 39.479,17.359 39.479,20.805 C39.479,24.251 36.686,27.045 33.24,27.045 L33.24,27.045 Z" id="Fill-333" fill="#E2CFBA" sketch:type="MSShapeGroup"></path>
            <path d="M23.791,29.232 C22.687,29.232 21.791,29.978 21.791,30.899 C21.791,31.819 22.687,32.566 23.791,32.566 C24.896,32.566 25.791,31.819 25.791,30.899 C25.791,29.978 24.896,29.232 23.791,29.232" id="Fill-334" fill="#938272" sketch:type="MSShapeGroup"></path>
            <path d="M19.738,35.565 C18.359,35.565 17.238,36.687 17.238,38.065 C17.238,39.444 18.359,40.565 19.738,40.565 C21.117,40.565 22.238,39.444 22.238,38.065 C22.238,36.687 21.117,35.565 19.738,35.565" id="Fill-335" fill="#938272" sketch:type="MSShapeGroup"></path>
            <path d="M19.738,41.732 C18.359,41.732 17.238,42.854 17.238,44.232 C17.238,45.611 18.359,46.732 19.738,46.732 C21.117,46.732 22.238,45.611 22.238,44.232 C22.238,42.854 21.117,41.732 19.738,41.732" id="Fill-336" fill="#938272" sketch:type="MSShapeGroup"></path>
            <path d="M19.738,47.732 C18.359,47.732 17.238,48.854 17.238,50.232 C17.238,51.611 18.359,52.732 19.738,52.732 C21.117,52.732 22.238,51.611 22.238,50.232 C22.238,48.854 21.117,47.732 19.738,47.732" id="Fill-337" fill="#938272" sketch:type="MSShapeGroup"></path>
            <path d="M27.738,35.565 C26.359,35.565 25.238,36.687 25.238,38.065 C25.238,39.444 26.359,40.565 27.738,40.565 C29.117,40.565 30.238,39.444 30.238,38.065 C30.238,36.687 29.117,35.565 27.738,35.565" id="Fill-338" fill="#938272" sketch:type="MSShapeGroup"></path>
            <path d="M27.738,41.732 C26.359,41.732 25.238,42.854 25.238,44.232 C25.238,45.611 26.359,46.732 27.738,46.732 C29.117,46.732 30.238,45.611 30.238,44.232 C30.238,42.854 29.117,41.732 27.738,41.732" id="Fill-339" fill="#938272" sketch:type="MSShapeGroup"></path>
            <path d="M27.738,47.732 C26.359,47.732 25.238,48.854 25.238,50.232 C25.238,51.611 26.359,52.732 27.738,52.732 C29.117,52.732 30.238,51.611 30.238,50.232 C30.238,48.854 29.117,47.732 27.738,47.732" id="Fill-340" fill="#938272" sketch:type="MSShapeGroup"></path>
            <path d="M7.738,31.566 C6.91,31.566 6.238,32.237 6.238,33.066 C6.238,33.894 6.91,34.566 7.738,34.566 C8.567,34.566 9.238,33.894 9.238,33.066 C9.238,32.237 8.567,31.566 7.738,31.566" id="Fill-341" fill="#938272" sketch:type="MSShapeGroup"></path>
            <path d="M10.738,28.566 C9.91,28.566 9.238,29.237 9.238,30.066 C9.238,30.894 9.91,31.566 10.738,31.566 C11.567,31.566 12.238,30.894 12.238,30.066 C12.238,29.237 11.567,28.566 10.738,28.566" id="Fill-342" fill="#938272" sketch:type="MSShapeGroup"></path>
            <path d="M4.738,28.566 C3.91,28.566 3.238,29.237 3.238,30.066 C3.238,30.894 3.91,31.566 4.738,31.566 C5.567,31.566 6.238,30.894 6.238,30.066 C6.238,29.237 5.567,28.566 4.738,28.566" id="Fill-343" fill="#938272" sketch:type="MSShapeGroup"></path>
            <path d="M39.738,31.566 C38.91,31.566 38.238,32.237 38.238,33.066 C38.238,33.894 38.91,34.566 39.738,34.566 C40.567,34.566 41.238,33.894 41.238,33.066 C41.238,32.237 40.567,31.566 39.738,31.566" id="Fill-344" fill="#938272" sketch:type="MSShapeGroup"></path>
            <path d="M42.363,28.566 C41.535,28.566 40.863,29.237 40.863,30.066 C40.863,30.894 41.535,31.566 42.363,31.566 C43.192,31.566 43.863,30.894 43.863,30.066 C43.863,29.237 43.192,28.566 42.363,28.566" id="Fill-345" fill="#938272" sketch:type="MSShapeGroup"></path>
            <path d="M36.738,28.566 C35.91,28.566 35.238,29.237 35.238,30.066 C35.238,30.894 35.91,31.566 36.738,31.566 C37.567,31.566 38.238,30.894 38.238,30.066 C38.238,29.237 37.567,28.566 36.738,28.566" id="Fill-346" fill="#938272" sketch:type="MSShapeGroup"></path>
            <path d="M4.238,39.566 L12.238,35.566 L8.238,47.64 L4.238,39.566" id="Fill-347" fill="#E64C3C" sketch:type="MSShapeGroup"></path>
            <path d="M42.656,39.738 L34.613,35.566 L38.929,47.376 L42.656,39.738" id="Fill-348" fill="#E64C3C" sketch:type="MSShapeGroup"></path>
            <path d="M23.238,15.566 L31.891,1.674 C26.398,-0.608 20.152,-0.548 14.698,1.852 L23.238,15.566" id="Fill-349" fill="#E64C3C" sketch:type="MSShapeGroup"></path>
        </g>
    </g>
</svg>