<?xml version="1.0" encoding="UTF-8" standalone="no"?>
<svg width="26px" height="58px" viewBox="0 0 26 58" version="1.1" xmlns="http://www.w3.org/2000/svg" xmlns:xlink="http://www.w3.org/1999/xlink" xmlns:sketch="http://www.bohemiancoding.com/sketch/ns">
    <!-- Generator: Sketch 3.2.2 (9983) - http://www.bohemiancoding.com/sketch -->
    <title>9 - Golden Globe (Flat)</title>
    <desc>Created with Sketch.</desc>
    <defs></defs>
    <g id="Page-1" stroke="none" stroke-width="1" fill="none" fill-rule="evenodd" sketch:type="MSPage">
        <g id="9---Golden-Globe-(Flat)" sketch:type="MSLayerGroup">
            <path d="M26,13 C26,20.18 20.18,26 13,26 C5.82,26 0,20.18 0,13 C0,5.82 5.82,0 13,0 C20.18,0 26,5.82 26,13" id="Fill-583" fill="#F0C419" sketch:type="MSShapeGroup"></path>
            <path d="M7.944,17.878 L3.42,18.056 L0.708,17.202 C2.456,22.317 7.293,26 13,26 C14.093,26 15.149,25.85 16.163,25.596 L14.691,22.935 L7.944,17.878" id="Fill-584" fill="#B19046" sketch:type="MSShapeGroup"></path>
            <path d="M6,33 L20,33 L20,50 L6,50 L6,33 Z" id="Fill-585" fill="#B19046" sketch:type="MSShapeGroup"></path>
            <path d="M2,50 L24,50 L24,57.94 L2,57.94 L2,50 Z" id="Fill-586" fill="#E4C05C" sketch:type="MSShapeGroup"></path>
            <path d="M10,39 L16,39 M10,44 L16,44" id="Stroke-587" stroke="#F9EBB0" stroke-width="2" stroke-linecap="round" stroke-linejoin="round" sketch:type="MSShapeGroup"></path>
            <path d="M18,25 C16.46,25.643 14.772,26 13,26 C11.228,26 9.54,25.643 8,25 C8,25.005 8.473,30.083 6.233,33 L19.801,33 C17.548,30.083 18,25.005 18,25" id="Fill-588" fill="#E4C05C" sketch:type="MSShapeGroup"></path>
            <path d="M13,0 C8.638,0 4.788,2.156 2.429,5.452 C2.477,5.871 3.27,5.867 5.734,5.279 C9.149,4.461 8.015,7.059 9.625,8.299 C11.544,9.772 10.694,6.264 12.093,6.798 C14.129,7.586 11.744,9.615 14.931,8.141 C18.67,6.436 17.266,9.096 18.41,10.834 C19.963,13.182 23.152,15.447 25.845,14.904 C25.937,14.281 26,13.649 26,13 C26,5.82 20.18,0 13,0" id="Fill-640" fill="#B19046" sketch:type="MSShapeGroup"></path>
            <path d="M3,33 L23,33" id="Stroke-917" stroke="#E4C05C" stroke-width="2" stroke-linecap="round" stroke-linejoin="round" sketch:type="MSShapeGroup"></path>
        </g>
    </g>
</svg>