<?xml version="1.0" encoding="UTF-8" standalone="no"?>
<svg width="39px" height="59px" viewBox="0 0 39 59" version="1.1" xmlns="http://www.w3.org/2000/svg" xmlns:xlink="http://www.w3.org/1999/xlink" xmlns:sketch="http://www.bohemiancoding.com/sketch/ns">
    <!-- Generator: Sketch 3.2.2 (9983) - http://www.bohemiancoding.com/sketch -->
    <title>67 - Green Lantern (Flat)</title>
    <desc>Created with Sketch.</desc>
    <defs></defs>
    <g id="Page-1" stroke="none" stroke-width="1" fill="none" fill-rule="evenodd" sketch:type="MSPage">
        <g id="67---Green-Lantern-(Flat)" sketch:type="MSLayerGroup">
            <path d="M19,49.834 C16.608,49.834 14.385,49.156 12.514,48 L8,58.834 L30,58.834 L25.486,48 C23.614,49.156 21.392,49.834 19,49.834" id="Fill-118" fill="#4C8056" sketch:type="MSShapeGroup"></path>
            <path d="M19,27.166 C21.392,27.166 23.615,27.844 25.486,29 L30,18.166 L8,18.166 L12.514,29 C14.385,27.844 16.608,27.166 19,27.166" id="Fill-119" fill="#4C8056" sketch:type="MSShapeGroup"></path>
            <path d="M30.927,37.993 L29.792,36.387 C34.367,32.814 37.098,27.062 37.098,21 C37.098,10.523 29.204,2 19.5,2 C9.796,2 1.902,10.523 1.902,21 C1.902,26.737 4.272,32.109 8.403,35.74 L7.182,37.274 C2.618,33.263 0,27.331 0,21 C0,9.42 8.748,0 19.5,0 C30.252,0 39,9.42 39,21 C39,27.691 35.982,34.044 30.927,37.993" id="Fill-120" fill="#252829" sketch:type="MSShapeGroup"></path>
            <path d="M31,38.5 C31,44.851 25.627,50 19,50 C12.373,50 7,44.851 7,38.5 C7,32.149 12.373,27 19,27 C25.627,27 31,32.149 31,38.5" id="Fill-219" fill="#24AE5F" sketch:type="MSShapeGroup"></path>
            <path d="M24.5,38.5 C24.5,41.538 22.038,44 19,44 C15.962,44 13.5,41.538 13.5,38.5 C13.5,35.462 15.962,33 19,33 C22.038,33 24.5,35.462 24.5,38.5" id="Fill-220" fill="#71C285" sketch:type="MSShapeGroup"></path>
        </g>
    </g>
</svg>