<?xml version="1.0" encoding="UTF-8" standalone="no"?>
<svg width="42px" height="58px" viewBox="0 0 42 58" version="1.1" xmlns="http://www.w3.org/2000/svg" xmlns:xlink="http://www.w3.org/1999/xlink" xmlns:sketch="http://www.bohemiancoding.com/sketch/ns">
    <!-- Generator: Sketch 3.2.2 (9983) - http://www.bohemiancoding.com/sketch -->
    <title>28 - Married...With Children (Flat)</title>
    <desc>Created with Sketch.</desc>
    <defs></defs>
    <g id="Page-1" stroke="none" stroke-width="1" fill="none" fill-rule="evenodd" sketch:type="MSPage">
        <g id="28---Married...With-Children-(Flat)" sketch:type="MSLayerGroup">
            <path d="M26.61,25.458 C28.205,28.233 31.02,31.717 35.203,32.031 C37.988,28.45 39.469,23.805 38.867,18.793 C37.883,10.589 32.216,7.886 24,7 C13.163,5.832 3,10.4 3,21 C3,25.643 4.773,29.86 7.659,33.053 C10.491,33.236 21.736,33.456 24.422,25.692 C24.765,24.698 26.086,24.547 26.61,25.458" id="Fill-459" fill="#B65B23" sketch:type="MSShapeGroup"></path>
            <path d="M26.61,25.458 C26.086,24.547 24.765,24.698 24.422,25.691 C21.736,33.456 10.491,33.236 7.659,33.053 C7.428,32.797 7.216,32.525 7,32.256 L7,48 L18,58 L24,58 L35,48 L35,32.006 C30.931,31.595 28.179,28.187 26.61,25.458" id="Fill-460" fill="#FDD7AD" sketch:type="MSShapeGroup"></path>
            <path d="M37,45 L37,45 C35.9,45 35,44.1 35,43 L35,37 C35,35.9 35.9,35 37,35 C38.1,35 39,35.9 39,37 L39,43 C39,44.1 38.1,45 37,45" id="Fill-461" fill="#FAC176" sketch:type="MSShapeGroup"></path>
            <path d="M5,45 L5,45 C3.9,45 3,44.1 3,43 L3,37 C3,35.9 3.9,35 5,35 C6.1,35 7,35.9 7,37 L7,43 C7,44.1 6.1,45 5,45" id="Fill-462" fill="#FAC176" sketch:type="MSShapeGroup"></path>
            <path d="M41,52 C41,53.657 39.657,55 38,55 C36.343,55 35,53.657 35,52 C35,50.343 36.343,49 38,49 C39.657,49 41,50.343 41,52" id="Fill-463" fill="#CC66A1" sketch:type="MSShapeGroup"></path>
            <path d="M7,52 C7,53.657 5.657,55 4,55 C2.343,55 1,53.657 1,52 C1,50.343 2.343,49 4,49 C5.657,49 7,50.343 7,52" id="Fill-464" fill="#CC66A1" sketch:type="MSShapeGroup"></path>
            <path d="M24.549,39.879 C24.247,39.879 23.949,39.743 23.752,39.484 C23.417,39.045 23.503,38.417 23.942,38.083 C26.386,36.225 28.789,36.017 31.007,36 C31.56,36.004 32.004,36.455 32,37.008 C31.996,37.56 31.586,38.028 30.993,38 C28.831,37.999 27.011,38.263 25.153,39.675 C24.972,39.813 24.76,39.879 24.549,39.879" id="Fill-465" fill="#A86433" sketch:type="MSShapeGroup"></path>
            <path d="M26,41 C26,42.105 26.895,43 28,43 C29.105,43 30,42.105 30,41 C30,39.895 29.105,39 28,39 C26.895,39 26,39.895 26,41" id="Fill-466" fill="#B65B23" sketch:type="MSShapeGroup"></path>
            <path d="M24,34 L31,34" id="Stroke-467" stroke="#FAC176" stroke-width="2" stroke-linecap="round" sketch:type="MSShapeGroup"></path>
            <path d="M17.339,39.796 C17.14,39.796 16.939,39.736 16.764,39.613 C15.197,38.509 13.26,37.969 11.015,38 C10.468,38.041 10.008,37.567 10,37.015 C9.992,36.463 10.433,36.009 10.985,36 C13.686,35.956 15.997,36.625 17.916,37.979 C18.367,38.297 18.476,38.921 18.157,39.372 C17.962,39.648 17.653,39.796 17.339,39.796" id="Fill-468" fill="#A86433" sketch:type="MSShapeGroup"></path>
            <path d="M16,41 C16,42.105 15.105,43 14,43 C12.895,43 12,42.105 12,41 C12,39.895 12.895,39 14,39 C15.105,39 16,39.895 16,41" id="Fill-469" fill="#B65B23" sketch:type="MSShapeGroup"></path>
            <path d="M18,34 L11,34" id="Stroke-470" stroke="#FAC176" stroke-width="2" stroke-linecap="round" sketch:type="MSShapeGroup"></path>
            <path d="M26,50.983 L26,50.983 C23.311,53.672 19.689,53.672 17,50.983 C18.217,49.766 18.408,49.099 20,48.984 C20.167,48.972 21.333,50 21.5,50 C21.667,50 22.834,48.972 23,48.984 C24.593,49.099 24.783,49.766 26,50.983 L26,50.983 Z" id="Fill-471" fill="#C03A2B" sketch:type="MSShapeGroup"></path>
            <path d="M26,50.983 L26,50.983 C23.311,53.672 19.689,53.672 17,50.983 C18.217,49.766 18.408,49.099 20,48.984 C20.167,48.972 21.333,50 21.5,50 C21.667,50 22.834,48.972 23,48.984 C24.593,49.099 24.783,49.766 26,50.983 L26,50.983 Z" id="Stroke-472" stroke="#E64C3C" stroke-width="2" stroke-linecap="round" sketch:type="MSShapeGroup"></path>
            <path d="M16,50 C16,50.553 16.447,51 17,51" id="Fill-473" fill="#C03A2B" sketch:type="MSShapeGroup"></path>
            <path d="M16,50 C16,50.553 16.447,51 17,51" id="Stroke-474" stroke="#E64C3C" stroke-width="2" stroke-linecap="round" sketch:type="MSShapeGroup"></path>
            <path d="M27,50 C27,50.553 26.553,51 26,51" id="Fill-475" fill="#C03A2B" sketch:type="MSShapeGroup"></path>
            <path d="M27,50 C27,50.553 26.553,51 26,51" id="Stroke-476" stroke="#E64C3C" stroke-width="2" stroke-linecap="round" sketch:type="MSShapeGroup"></path>
            <path d="M3,21 C3,10.4 13.163,5.832 24,7 C32.216,7.886 37.883,10.589 38.867,18.793 C39.286,22.28 38.678,25.581 37.342,28.478 C40.251,25.475 42,21.66 42,17.5 C42,7.835 32.598,0 21,0 C9.402,0 0,7.835 0,17.5 C0,21.657 1.747,25.47 4.652,28.472 C3.603,26.196 3,23.672 3,21" id="Fill-477" fill="#A33B17" sketch:type="MSShapeGroup"></path>
        </g>
    </g>
</svg>