<?xml version="1.0" encoding="UTF-8" standalone="no"?>
<svg width="46px" height="54px" viewBox="0 0 46 54" version="1.1" xmlns="http://www.w3.org/2000/svg" xmlns:xlink="http://www.w3.org/1999/xlink" xmlns:sketch="http://www.bohemiancoding.com/sketch/ns">
    <!-- Generator: Sketch 3.2.2 (9983) - http://www.bohemiancoding.com/sketch -->
    <title>19 - Maul (Flat)</title>
    <desc>Created with Sketch.</desc>
    <defs></defs>
    <g id="Page-1" stroke="none" stroke-width="1" fill="none" fill-rule="evenodd" sketch:type="MSPage">
        <g id="19---Maul-(Flat)" sketch:type="MSLayerGroup">
            <path d="M8.184,27.466 C5.364,28.63 0,27.719 0,27.719 C0,27.719 3.531,31.028 7.89,33 C8.484,30.861 8.446,28.973 8.184,27.466" id="Fill-17" fill="#464F5D" sketch:type="MSShapeGroup"></path>
            <path d="M37.55,33.075 C41.908,31.103 45.44,27.793 45.44,27.793 C45.44,27.793 40.076,28.705 37.255,27.541 C36.994,29.048 36.956,30.935 37.55,33.075" id="Fill-18" fill="#464F5D" sketch:type="MSShapeGroup"></path>
            <path d="M8.555,10.238 C5.789,10.777 1,7 1,7 C1,7 2.282,14.825 5.317,16.713 L8.555,10.238" id="Fill-19" fill="#464F5D" sketch:type="MSShapeGroup"></path>
            <path d="M37,10.524 C39.766,11.064 44.555,7.287 44.555,7.287 C44.555,7.287 43.273,15.111 40.238,17 L37,10.524" id="Fill-20" fill="#464F5D" sketch:type="MSShapeGroup"></path>
            <path d="M39.962,15.973 C38.882,11.523 36.721,8.601 34.285,6.676 C34.11,7.949 33.836,9.285 33.408,10.577 L28.643,6.466 C29.524,6.261 30.396,5.597 31.189,4.772 C26.863,2.744 22.693,3.022 22.693,3.022 C22.693,3.022 18.523,2.744 14.198,4.772 C14.991,5.597 15.863,6.261 16.744,6.466 L11.979,10.577 C11.551,9.285 11.277,7.949 11.102,6.676 C8.666,8.601 6.505,11.523 5.425,15.973 C5.425,15.973 3.806,19.481 6.505,23.528 C6.505,23.528 9.053,27.402 7.504,32.845 C6.899,34.971 7.066,37.238 7.838,39.309 C8.777,41.823 10.15,46.882 11.759,49.43 C12.812,51.098 14.312,52.433 16.076,53.315 C17.589,54.071 19.563,54 21.255,54 L24.745,54 C26.437,54 27.798,54.071 29.311,53.315 C31.075,52.433 32.575,51.098 33.628,49.43 C35.237,46.882 36.61,41.823 37.548,39.309 C38.321,37.238 38.488,34.971 37.883,32.845 C36.334,27.402 38.883,23.528 38.883,23.528 C41.581,19.481 39.962,15.973 39.962,15.973" id="Fill-142" fill="#C03A2B" sketch:type="MSShapeGroup"></path>
            <path d="M18.234,30.972 C19.412,29.764 18.949,27.668 17.326,27.208 C17.172,27.164 17.01,27.129 16.839,27.105 C16.839,27.105 14.546,26.664 12.333,24.438 C11.88,23.983 11.126,24.013 10.745,24.531 C9.904,25.673 8.956,27.705 10.698,29.737 C10.698,29.737 12.659,31.761 14.035,32.735 C14.585,33.124 15.314,33.139 15.889,32.787 C16.543,32.386 17.479,31.747 18.234,30.972" id="Fill-507" fill="#721B14" sketch:type="MSShapeGroup"></path>
            <path d="M27.141,26.003 C27.281,26.422 27.671,26.687 28.09,26.687 C28.194,26.687 28.301,26.67 28.406,26.635 C28.93,26.461 29.213,25.895 29.039,25.37 L28.069,22.383 L29.66,16.815 L34.274,21.687 C34.654,22.09 35.287,22.105 35.687,21.727 C36.088,21.347 36.106,20.714 35.726,20.313 L33.948,18.435 L36.127,15.956 L36.208,15.851 C36.584,15.287 36.603,14.547 36.278,14.007 L33.882,9.528 C33.622,9.041 33.015,8.858 32.528,9.118 C32.041,9.379 31.858,9.984 32.118,10.472 L34.453,14.832 L32.568,16.977 L30.795,15.106 C30.348,14.659 29.715,14.486 29.105,14.646 C28.493,14.804 28.024,15.261 27.851,15.869 L26.146,21.833 C26.027,22.249 26.037,22.687 26.174,23.102 L27.141,26.003" id="Fill-508" fill="#721B14" sketch:type="MSShapeGroup"></path>
            <path d="M11.125,18.499 L9.3,20.285 C8.906,20.672 8.899,21.305 9.285,21.699 C9.672,22.094 10.304,22.101 10.7,21.715 L15.721,16.8 L17.316,22.469 L16.349,25.37 C16.174,25.895 16.457,26.461 16.981,26.635 C17.086,26.67 17.193,26.687 17.297,26.687 C17.716,26.687 18.106,26.422 18.246,26.003 L19.214,23.1 C19.351,22.687 19.36,22.249 19.241,21.834 L17.536,15.869 C17.363,15.261 16.894,14.804 16.282,14.646 C15.668,14.485 15.039,14.658 14.6,15.098 L12.569,17.086 L10.935,14.866 L13.83,10.558 C14.138,10.1 14.016,9.478 13.558,9.17 C13.101,8.86 12.478,8.984 12.17,9.442 L9.133,13.965 C8.784,14.548 8.803,15.289 9.205,15.889 L11.125,18.499" id="Fill-509" fill="#721B14" sketch:type="MSShapeGroup"></path>
            <path d="M36.767,41.507 C36.772,41.489 36.776,41.471 36.78,41.453 C36.784,41.429 36.778,41.407 36.783,41.383 C36.802,41.277 36.828,41.173 36.861,41.07 C36.87,41.04 36.888,41.021 36.898,40.992 C36.914,40.932 36.951,40.884 36.976,40.829 C36.956,40.718 36.927,40.607 36.868,40.504 L32.868,33.504 C32.594,33.024 31.983,32.857 31.504,33.132 C31.024,33.406 30.858,34.017 31.132,34.496 L32.194,36.355 L29.175,38.618 L25.781,34.375 C25.436,33.943 24.806,33.874 24.375,34.219 C23.944,34.565 23.874,35.193 24.219,35.625 L28.219,40.625 C28.286,40.709 28.375,40.759 28.46,40.815 C28.498,40.841 28.527,40.881 28.567,40.9 C28.703,40.965 28.851,41 29,41 L29.001,41 C29.107,41 29.214,40.982 29.317,40.947 C29.356,40.934 29.391,40.908 29.428,40.889 C29.486,40.861 29.547,40.84 29.6,40.8 L33.194,38.105 L35.132,41.496 C35.316,41.819 35.654,42 36.001,42 C36.169,42 36.34,41.958 36.496,41.868 C36.585,41.817 36.651,41.746 36.717,41.675 C36.738,41.619 36.74,41.56 36.767,41.507" id="Fill-510" fill="#721B14" sketch:type="MSShapeGroup"></path>
            <path d="M29.345,43.055 L25.672,41.218 C25.31,41.039 24.89,41.059 24.544,41.272 C24.201,41.487 23.998,41.857 24.001,42.259 L24,47 L21,46.971 L20.977,42.247 C20.975,41.844 20.769,41.478 20.425,41.267 C20.081,41.055 19.661,41.038 19.304,41.218 L15.635,43.053 C15.176,43.28 14.924,43.773 15.008,44.278 C15.207,45.462 15.357,47.204 15.124,48.222 C14.847,49.43 14.583,50.866 14.381,52.238 C14.915,52.64 15.473,53.013 16.076,53.314 L16.238,52.989 L16.29,52.996 C16.296,52.946 16.303,52.896 16.31,52.845 L16.523,52.42 C16.476,52.396 16.43,52.372 16.384,52.347 C16.575,51.09 16.824,49.756 17.073,48.669 C17.372,47.367 17.211,45.591 17.074,44.568 L18.983,43.614 L19,46.976 C19,48.092 19.908,49 21.025,49 L24,49 C25.117,49 26.025,48.092 26.025,46.971 L26.008,43.622 L27.91,44.573 C27.787,45.6 27.646,47.389 27.955,48.687 C28.271,50.022 28.579,51.7 28.777,53.179 L29.214,53.12 L29.311,53.314 C29.796,53.072 30.255,52.789 30.696,52.48 C30.489,51.049 30.201,49.493 29.901,48.226 C29.659,47.21 29.788,45.456 29.971,44.264 C30.049,43.76 29.792,43.272 29.345,43.055" id="Fill-511" fill="#721B14" sketch:type="MSShapeGroup"></path>
            <path d="M25.194,7.141 C25.502,5.854 25.78,4.497 26.023,3.232 C24.053,2.933 22.693,3.022 22.693,3.022 C22.693,3.022 21.28,2.931 19.25,3.251 C19.558,4.512 19.887,5.862 20.193,7.141 C20.787,9.62 24.6,9.62 25.194,7.141" id="Fill-658" fill="#464F5D" sketch:type="MSShapeGroup"></path>
            <path d="M18,29 C18,30.657 16.657,32 15,32 C13.343,32 12,30.657 12,29 C12,27.343 13.343,26 15,26 C16.657,26 18,27.343 18,29" id="Fill-887" fill="#F18D46" sketch:type="MSShapeGroup"></path>
            <path d="M17,29 C17,30.105 16.105,31 15,31 C13.895,31 13,30.105 13,29 C13,27.895 13.895,27 15,27 C16.105,27 17,27.895 17,29" id="Fill-888" fill="#FFC6A3" sketch:type="MSShapeGroup"></path>
            <path d="M16,29 C16,29.552 15.552,30 15,30 C14.448,30 14,29.552 14,29 C14,28.448 14.448,28 15,28 C15.552,28 16,28.448 16,29" id="Fill-889" fill="#464F5D" sketch:type="MSShapeGroup"></path>
            <path d="M26.658,30.972 C25.48,29.764 25.944,27.668 27.567,27.208 C27.72,27.164 27.882,27.129 28.054,27.105 C28.054,27.105 30.346,26.664 32.559,24.438 C33.012,23.983 33.767,24.013 34.148,24.531 C34.988,25.673 35.936,27.705 34.194,29.737 C34.194,29.737 32.233,31.761 30.857,32.735 C30.308,33.124 29.578,33.139 29.004,32.787 C28.349,32.386 27.413,31.747 26.658,30.972" id="Fill-890" fill="#721B14" sketch:type="MSShapeGroup"></path>
            <path d="M26.892,29 C26.892,30.657 28.236,32 29.892,32 C31.549,32 32.892,30.657 32.892,29 C32.892,27.343 31.549,26 29.892,26 C28.236,26 26.892,27.343 26.892,29" id="Fill-891" fill="#F18D46" sketch:type="MSShapeGroup"></path>
            <path d="M27.892,29 C27.892,30.105 28.788,31 29.892,31 C30.997,31 31.892,30.105 31.892,29 C31.892,27.895 30.997,27 29.892,27 C28.788,27 27.892,27.895 27.892,29" id="Fill-892" fill="#FFC6A3" sketch:type="MSShapeGroup"></path>
            <path d="M28.892,29 C28.892,29.552 29.34,30 29.892,30 C30.445,30 30.892,29.552 30.892,29 C30.892,28.448 30.445,28 29.892,28 C29.34,28 28.892,28.448 28.892,29" id="Fill-893" fill="#464F5D" sketch:type="MSShapeGroup"></path>
            <path d="M19.219,34.375 L15.824,38.618 L12.806,36.355 L13.868,34.496 C14.142,34.017 13.976,33.406 13.496,33.132 C13.018,32.857 12.406,33.024 12.132,33.504 L8.211,40.365 C8.378,40.855 8.557,41.398 8.744,41.966 C8.828,41.989 8.914,42 8.999,42 C9.346,42 9.684,41.819 9.868,41.496 L11.806,38.105 L15.4,40.8 C15.453,40.84 15.513,40.861 15.571,40.889 C15.609,40.908 15.644,40.934 15.683,40.947 C15.786,40.982 15.893,41 15.999,41 C16.148,41 16.296,40.965 16.432,40.9 C16.476,40.879 16.507,40.836 16.548,40.809 C16.63,40.753 16.716,40.706 16.781,40.625 L20.781,35.625 C21.126,35.193 21.056,34.565 20.624,34.219 C20.194,33.874 19.564,33.945 19.219,34.375" id="Fill-894" fill="#721B14" sketch:type="MSShapeGroup"></path>
            <path d="M16.744,6.466 C13.798,5.779 10.921,0 10.921,0 C10.921,0 10.342,5.633 11.979,10.577 L16.744,6.466" id="Fill-895" fill="#464F5D" sketch:type="MSShapeGroup"></path>
            <path d="M28.643,6.466 C31.589,5.779 34.466,0 34.466,0 C34.466,0 35.045,5.633 33.408,10.577 L28.643,6.466" id="Fill-896" fill="#464F5D" sketch:type="MSShapeGroup"></path>
        </g>
    </g>
</svg>