<?xml version="1.0" encoding="UTF-8" standalone="no"?>
<svg width="50px" height="60px" viewBox="0 0 50 60" version="1.1" xmlns="http://www.w3.org/2000/svg" xmlns:xlink="http://www.w3.org/1999/xlink" xmlns:sketch="http://www.bohemiancoding.com/sketch/ns">
    <!-- Generator: Sketch 3.2.2 (9983) - http://www.bohemiancoding.com/sketch -->
    <title>44 - Minion (Flat)</title>
    <desc>Created with Sketch.</desc>
    <defs></defs>
    <g id="Page-1" stroke="none" stroke-width="1" fill="none" fill-rule="evenodd" sketch:type="MSPage">
        <g id="44---Minion-(Flat)" sketch:type="MSLayerGroup">
            <path d="M25,0 C10.981,0 0,10.542 0,24 L0,60 L50,60 L50,24 C50,10.542 39.019,0 25,0" id="Fill-32" fill="#F0C419" sketch:type="MSShapeGroup"></path>
            <path d="M0.021,23 C0.013,23.01 0.008,23.175 0,23.184 L0,28 L25,32 L50,28 L50,23 L25,18 L0.021,23" id="Fill-33" fill="#464F5D" sketch:type="MSShapeGroup"></path>
            <path d="M14,60 L0,60 L0,52 L14,55 L14,60" id="Fill-34" fill="#4A7DA5" sketch:type="MSShapeGroup"></path>
            <path d="M36,60 L50,60 L50,52 L36,55 L36,60" id="Fill-35" fill="#4A7DA5" sketch:type="MSShapeGroup"></path>
            <path d="M11,53 L39,53 L39,60 L11,60 L11,53 Z" id="Fill-36" fill="#2C5780" sketch:type="MSShapeGroup"></path>
            <path d="M25.5,50.5 L24.573,50.5 C19.326,50.5 15.073,46.247 15.073,41 L35,41 C35,46.247 30.747,50.5 25.5,50.5" id="Fill-826" fill="#664043" sketch:type="MSShapeGroup"></path>
            <path d="M17,41 L21,41 L21,44 L17,44 L17,41 Z" id="Fill-827" fill="#E6E7E8" sketch:type="MSShapeGroup"></path>
            <path d="M21,41 L25,41 L25,44 L21,44 L21,41 Z" id="Fill-828" fill="#FFFFFF" sketch:type="MSShapeGroup"></path>
            <path d="M25,41 L29,41 L29,44 L25,44 L25,41 Z" id="Fill-829" fill="#E6E7E8" sketch:type="MSShapeGroup"></path>
            <path d="M29,41 L33,41 L33,44 L29,44 L29,41 Z" id="Fill-830" fill="#FFFFFF" sketch:type="MSShapeGroup"></path>
            <path d="M34.509,44 C34.823,43.056 35,42.049 35,41 L33,41 L33,44 L34.509,44" id="Fill-831" fill="#E6E7E8" sketch:type="MSShapeGroup"></path>
            <path d="M17,44 L17,41 L15.073,41 C15.073,42.049 15.25,43.056 15.564,44 L17,44" id="Fill-832" fill="#FFFFFF" sketch:type="MSShapeGroup"></path>
            <path d="M25,46 C21.845,46 19.125,46.687 17.822,47.682 C19.544,49.421 21.932,50.5 24.573,50.5 L25.5,50.5 C28.125,50.5 30.501,49.435 32.22,47.715 C30.935,46.702 28.19,46 25,46" id="Fill-833" fill="#C37274" sketch:type="MSShapeGroup"></path>
            <path d="M36,23 C36,29.075 31.075,34 25,34 C18.925,34 14,29.075 14,23 C14,16.925 18.925,12 25,12 C31.075,12 36,16.925 36,23" id="Fill-834" fill="#E6E7E8" sketch:type="MSShapeGroup"></path>
            <path d="M27.961,20.533 L26.441,22.053 C27.333,22.254 28,23.047 28,24 C28,25.105 27.105,26 26,26 C25.048,26 24.254,25.333 24.053,24.441 L22.533,25.961 C23.221,27.172 24.507,28 26,28 C28.209,28 30,26.209 30,24 C30,22.507 29.173,21.221 27.961,20.533" id="Fill-835" fill="#A0644B" sketch:type="MSShapeGroup"></path>
            <path d="M26,26 C27.105,26 28,25.105 28,24 C28,23.047 27.333,22.254 26.441,22.053 L24.053,24.441 C24.254,25.333 25.048,26 26,26" id="Fill-836" fill="#000000" sketch:type="MSShapeGroup"></path>
            <path d="M26,20 C26.716,20 27.379,20.204 27.961,20.533 L33.013,15.481 C31.592,13.966 29.749,12.859 27.669,12.34 L14.34,25.669 C14.859,27.749 15.966,29.592 17.48,31.013 L22.533,25.961 C22.204,25.379 22,24.716 22,24 C22,21.791 23.791,20 26,20" id="Fill-837" fill="#FFFFFF" sketch:type="MSShapeGroup"></path>
            <path d="M24,24 C24,22.895 24.895,22 26,22 C26.152,22 26.299,22.02 26.441,22.053 L27.961,20.533 C27.379,20.204 26.716,20 26,20 C23.791,20 22,21.791 22,24 C22,24.716 22.204,25.379 22.533,25.961 L24.053,24.441 C24.02,24.299 24,24.152 24,24" id="Fill-838" fill="#B78472" sketch:type="MSShapeGroup"></path>
            <path d="M24,24 C24,24.152 24.02,24.299 24.053,24.441 L26.441,22.053 C26.299,22.02 26.152,22 26,22 C24.895,22 24,22.895 24,24" id="Fill-839" fill="#535760" sketch:type="MSShapeGroup"></path>
            <path d="M25,11 C18.373,11 13,16.373 13,23 C13,29.627 18.373,35 25,35 C31.627,35 37,29.627 37,23 C37,16.373 31.627,11 25,11 L25,11 Z M25,33 C19.477,33 15,28.523 15,23 C15,17.477 19.477,13 25,13 C30.523,13 35,17.477 35,23 C35,28.523 30.523,33 25,33 L25,33 Z" id="Fill-840" fill="#556080" sketch:type="MSShapeGroup"></path>
            <path d="M29,25 C29,25.552 28.552,26 28,26 C27.448,26 27,25.552 27,25 C27,24.448 27.448,24 28,24 C28.552,24 29,24.448 29,25" id="Fill-845" fill="#FFFFFF" sketch:type="MSShapeGroup"></path>
        </g>
    </g>
</svg>