<?xml version="1.0" encoding="UTF-8" standalone="no"?>
<svg width="26px" height="57px" viewBox="0 0 26 57" version="1.1" xmlns="http://www.w3.org/2000/svg" xmlns:xlink="http://www.w3.org/1999/xlink" xmlns:sketch="http://www.bohemiancoding.com/sketch/ns">
    <!-- Generator: Sketch 3.2.2 (9983) - http://www.bohemiancoding.com/sketch -->
    <title>10 - Oscar (Flat)</title>
    <desc>Created with Sketch.</desc>
    <defs></defs>
    <g id="Page-1" stroke="none" stroke-width="1" fill="none" fill-rule="evenodd" sketch:type="MSPage">
        <g id="10---Oscar-(Flat)" sketch:type="MSLayerGroup" transform="translate(0.000000, 1.000000)">
            <path d="M16,4 C16,6.209 14.657,8 13,8 C11.343,8 10,6.209 10,4 C10,1.791 11.343,0 13,0 C14.657,0 16,1.791 16,4 L16,4 Z" id="Fill-576" fill="#F0C419" sketch:type="MSShapeGroup"></path>
            <path d="M16,4 C16,6.209 14.657,8 13,8 C11.343,8 10,6.209 10,4 C10,1.791 11.343,0 13,0 C14.657,0 16,1.791 16,4 L16,4 Z" id="Stroke-577" stroke="#F3D55B" stroke-width="2" sketch:type="MSShapeGroup"></path>
            <path d="M17.528,45.528 L16.127,44.127 C15.538,43.538 15.417,42.63 15.831,41.908 C17.262,39.408 16.716,35.878 16.301,34.105 C16.157,33.493 16.322,32.831 16.772,32.392 C19.185,30.044 18,26 18,26 C17.786,25.518 17.663,25.013 17.603,24.517 C17.403,22.864 18.117,21.279 19.206,20.02 C21.254,17.654 20.725,13.367 20.297,11.251 C20.143,10.487 19.573,9.878 18.823,9.664 L14.151,8.329 C13.399,8.114 12.601,8.114 11.849,8.329 L7.177,9.664 C6.427,9.878 5.857,10.487 5.703,11.251 C5.275,13.367 4.746,17.654 6.794,20.02 C7.883,21.279 8.597,22.864 8.397,24.517 C8.337,25.013 8.214,25.518 8,26 C8,26 6.815,30.044 9.228,32.392 C9.678,32.831 9.843,33.493 9.699,34.105 C9.284,35.878 8.738,39.408 10.169,41.908 C10.583,42.63 10.462,43.538 9.873,44.127 L8.472,45.528 C8.298,45.702 8.421,46 8.667,46 L17.333,46 C17.579,46 17.702,45.702 17.528,45.528 L17.528,45.528 Z" id="Fill-578" fill="#F0C419" sketch:type="MSShapeGroup"></path>
            <path d="M17.528,45.528 L16.127,44.127 C15.538,43.538 15.417,42.63 15.831,41.908 C17.262,39.408 16.716,35.878 16.301,34.105 C16.157,33.493 16.322,32.831 16.772,32.392 C19.185,30.044 18,26 18,26 C17.786,25.518 17.663,25.013 17.603,24.517 C17.403,22.864 18.117,21.279 19.206,20.02 C21.254,17.654 20.725,13.367 20.297,11.251 C20.143,10.487 19.573,9.878 18.823,9.664 L14.151,8.329 C13.399,8.114 12.601,8.114 11.849,8.329 L7.177,9.664 C6.427,9.878 5.857,10.487 5.703,11.251 C5.275,13.367 4.746,17.654 6.794,20.02 C7.883,21.279 8.597,22.864 8.397,24.517 C8.337,25.013 8.214,25.518 8,26 C8,26 6.815,30.044 9.228,32.392 C9.678,32.831 9.843,33.493 9.699,34.105 C9.284,35.878 8.738,39.408 10.169,41.908 C10.583,42.63 10.462,43.538 9.873,44.127 L8.472,45.528 C8.298,45.702 8.421,46 8.667,46 L17.333,46 C17.579,46 17.702,45.702 17.528,45.528 L17.528,45.528 Z" id="Stroke-579" stroke="#F3D55B" stroke-width="2" sketch:type="MSShapeGroup"></path>
            <path d="M25.167,56 L0.833,56 C0.373,56 0,55.627 0,55.167 L0,52.833 C0,52.373 0.373,52 0.833,52 L25.167,52 C25.627,52 26,52.373 26,52.833 L26,55.167 C26,55.627 25.627,56 25.167,56" id="Fill-580" fill="#B19046" sketch:type="MSShapeGroup"></path>
            <path d="M22,52 L4,52 L5.575,47.486 C5.827,46.606 7.085,46 8,46 L18,46 C18.915,46 20.173,46.606 20.425,47.486 L22,52" id="Fill-581" fill="#E4C05C" sketch:type="MSShapeGroup"></path>
            <path d="M18,50 L8,50 C7.448,50 7,49.553 7,49 C7,48.447 7.448,48 8,48 L18,48 C18.552,48 19,48.447 19,49 C19,49.553 18.552,50 18,50" id="Fill-582" fill="#F9EBB0" sketch:type="MSShapeGroup"></path>
        </g>
    </g>
</svg>