<?xml version="1.0" encoding="UTF-8" standalone="no"?>
<svg width="32px" height="57px" viewBox="0 0 32 57" version="1.1" xmlns="http://www.w3.org/2000/svg" xmlns:xlink="http://www.w3.org/1999/xlink" xmlns:sketch="http://www.bohemiancoding.com/sketch/ns">
    <!-- Generator: Sketch 3.2.2 (9983) - http://www.bohemiancoding.com/sketch -->
    <title>14 - R2 (Flat)</title>
    <desc>Created with Sketch.</desc>
    <defs></defs>
    <g id="Page-1" stroke="none" stroke-width="1" fill="none" fill-rule="evenodd" sketch:type="MSPage">
        <g id="14---R2-(Flat)" sketch:type="MSLayerGroup" transform="translate(0.000000, -1.000000)">
            <path d="M15.227,1.018 C6.621,1.423 0,8.837 0,17.452 L0,50.751 C0,51.993 1.007,53 2.249,53 L29.751,53 C30.993,53 32,51.993 32,50.751 L32,17 C32,7.907 24.415,0.586 15.227,1.018" id="Fill-1" fill="#ECF0F1" sketch:type="MSShapeGroup"></path>
            <path d="M22,15.79 L22,12.21 C22,10.437 20.563,9 18.79,9 L13.21,9 C11.437,9 10,10.437 10,12.21 L10,15.79 C10,17.563 11.437,19 13.21,19 L18.79,19 C20.563,19 22,17.563 22,15.79" id="Fill-2" fill="#464F5D" sketch:type="MSShapeGroup"></path>
            <path d="M0,22 L4,22 L4,27 L0,27 L0,22 Z" id="Fill-3" fill="#464F5D" sketch:type="MSShapeGroup"></path>
            <path d="M27,22 L32,22 L32,27 L27,27 L27,22 Z" id="Fill-4" fill="#464F5D" sketch:type="MSShapeGroup"></path>
            <path d="M8,22 L15,22 L15,27 L8,27 L8,22 Z" id="Fill-5" fill="#464F5D" sketch:type="MSShapeGroup"></path>
            <path d="M26.36,32 L24.64,32 C23.734,32 23,32.734 23,33.64 L23,41 L18,41 L18,39 L11,39 L11,41 L9,41 L9,33.64 C9,32.734 8.266,32 7.36,32 L5.64,32 C4.734,32 4,32.734 4,33.64 L4,50.359 C4,51.266 4.734,52 5.64,52 L7.36,52 C8.266,52 9,51.266 9,50.359 L9,49 L12,49 L12,47 L9,47 L9,43 L11,43 L11,45 L18,45 L18,43 L23,43 L23,47 L20,47 L20,49 L23,49 L23,50.359 C23,51.266 23.734,52 24.64,52 L26.36,52 C27.266,52 28,51.266 28,50.359 L28,33.64 C28,32.734 27.266,32 26.36,32" id="Fill-6" fill="#464F5D" sketch:type="MSShapeGroup"></path>
            <path d="M14,47 L18,47 L18,49 L14,49 L14,47 Z" id="Fill-7" fill="#464F5D" sketch:type="MSShapeGroup"></path>
            <path d="M12,37 L20,37 C20.553,37 21,36.553 21,36 C21,35.447 20.553,35 20,35 L12,35 C11.447,35 11,35.447 11,36 C11,36.553 11.447,37 12,37" id="Fill-8" fill="#464F5D" sketch:type="MSShapeGroup"></path>
            <path d="M19,6 L27,6 L24.562,3.5 C22.77,2.36 20.738,1.574 18.556,1.223 L18.814,4 L13.186,4 L13.444,1.223 C11.262,1.574 9.23,2.36 7.438,3.5 L5,6 L19,6" id="Fill-9" fill="#464F5D" sketch:type="MSShapeGroup"></path>
            <path d="M21.615,58 L10.385,58 C7.133,58 4.208,56.02 3,53 L29,53 C27.792,56.02 24.867,58 21.615,58" id="Fill-545" fill="#A6ADB4" sketch:type="MSShapeGroup"></path>
            <path d="M19,14 C19,15.657 17.657,17 16,17 C14.343,17 13,15.657 13,14 C13,12.343 14.343,11 16,11 C17.657,11 19,12.343 19,14" id="Fill-546" fill="#A6ADB4" sketch:type="MSShapeGroup"></path>
            <path d="M23.5,24.5 C23.5,25.881 22.381,27 21,27 C19.619,27 18.5,25.881 18.5,24.5 C18.5,23.119 19.619,22 21,22 C22.381,22 23.5,23.119 23.5,24.5" id="Fill-547" fill="#A6ADB4" sketch:type="MSShapeGroup"></path>
            <path d="M0,29 L32,29 L32,31 L0,31 L0,29 Z" id="Fill-548" fill="#A6ADB4" sketch:type="MSShapeGroup"></path>
        </g>
    </g>
</svg>