<?xml version="1.0" encoding="UTF-8" standalone="no"?>
<svg width="48px" height="36px" viewBox="0 0 48 36" version="1.1" xmlns="http://www.w3.org/2000/svg" xmlns:xlink="http://www.w3.org/1999/xlink" xmlns:sketch="http://www.bohemiancoding.com/sketch/ns">
    <!-- Generator: Sketch 3.2.2 (9983) - http://www.bohemiancoding.com/sketch -->
    <title>69 - Saving Private Ryan (Flat)</title>
    <desc>Created with Sketch.</desc>
    <defs></defs>
    <g id="Page-1" stroke="none" stroke-width="1" fill="none" fill-rule="evenodd" sketch:type="MSPage">
        <g id="69---Saving-Private-Ryan-(Flat)" sketch:type="MSLayerGroup" transform="translate(-1.000000, 0.000000)">
            <path d="M46.561,28.129 L46.561,25.069 C46.561,20.188 45.396,15.344 42.963,11.101 C37.242,1.125 28.584,0 24.522,0 C21.206,0 14.063,0.959 8.4,8.961 C5.075,13.659 3.439,19.33 3.439,25.07 L3.439,28.129 C3.439,30.21 2.689,32.223 1.325,33.805 C0.58,34.668 1.198,36 2.344,36 L47.656,36 C48.801,36 49.42,34.668 48.675,33.805 C47.311,32.223 46.561,30.21 46.561,28.129" id="Fill-212" fill="#4C8056" sketch:type="MSShapeGroup"></path>
            <path d="M19,9 L23,9 L23,19 L19,19 L19,9 Z" id="Fill-213" fill="#F9DE72" sketch:type="MSShapeGroup"></path>
            <path d="M27,9 L31,9 L31,19 L27,19 L27,9 Z" id="Fill-214" fill="#F9DE72" sketch:type="MSShapeGroup"></path>
            <path d="M2.52,32 L47.48,32 C47.163,31.365 46.928,30.693 46.774,30 L3.225,30 C3.072,30.693 2.837,31.365 2.52,32" id="Fill-695" fill="#71C285" sketch:type="MSShapeGroup"></path>
            <path d="M3.439,26 L46.562,26 L46.562,28 L3.439,28 L3.439,26 Z" id="Fill-696" fill="#71C285" sketch:type="MSShapeGroup"></path>
            <path d="M38,22 C40.371,22 42.888,21.366 43.716,20 L46,20 C46.042,20 46.078,19.981 46.119,19.976 C46.004,19.312 45.87,18.653 45.708,18 L43.414,18 L40.707,15.293 C40.316,14.902 39.684,14.902 39.293,15.293 C38.902,15.684 38.902,16.316 39.293,16.707 L41.762,19.176 C41.256,19.522 39.984,20 38,20 C37.448,20 37,20.448 37,21 C37,21.552 37.448,22 38,22" id="Fill-697" fill="#3D5137" sketch:type="MSShapeGroup"></path>
        </g>
    </g>
</svg>