<?xml version="1.0" encoding="UTF-8" standalone="no"?>
<svg width="46px" height="56px" viewBox="0 0 46 56" version="1.1" xmlns="http://www.w3.org/2000/svg" xmlns:xlink="http://www.w3.org/1999/xlink" xmlns:sketch="http://www.bohemiancoding.com/sketch/ns">
    <!-- Generator: Sketch 3.2.2 (9983) - http://www.bohemiancoding.com/sketch -->
    <title>29 - Saw (Flat)</title>
    <desc>Created with Sketch.</desc>
    <defs></defs>
    <g id="Page-1" stroke="none" stroke-width="1" fill="none" fill-rule="evenodd" sketch:type="MSPage">
        <g id="29---Saw-(Flat)" sketch:type="MSLayerGroup">
            <path d="M39.017,24.346 C39.014,24.346 39,24.345 39,24.345 L39,13.573 C38.96,8.725 35.885,4.457 32.634,2.535 C26.917,-0.845 19.608,-0.845 13.891,2.535 C10.64,4.457 8.04,8.725 8,13.573 L8,24.345 C8,24.345 7.892,24.344 7.717,24.359 C7.631,24.356 7.547,24.346 7.46,24.346 C3.481,24.346 0,27.481 0,31.348 C0,35.215 3.226,38.35 7.205,38.35 C7.355,38.35 7.502,38.337 7.65,38.328 C8.476,38.53 9.171,39.082 9.575,39.825 C10.527,41.579 12.385,44.402 14.925,45.473 C15.694,45.797 16.309,46.36 16.643,47.075 L19,48.091 L19,48.711 C19,48.71 19.001,48.71 19.001,48.709 C19.007,47.765 19.773,47 20.719,47 L25,47 C25.615,47 26.16,47.287 26.528,47.727 C26.693,47.792 26.862,47.853 27,47.95 L27,47.929 L30.217,46.543 C30.567,46.085 31.037,45.71 31.6,45.473 C34.146,44.4 36.006,41.566 36.957,39.813 C37.341,39.104 37.995,38.574 38.772,38.349 C38.78,38.349 38.787,38.35 38.795,38.35 C42.774,38.35 46,35.215 46,31.348 C46,27.482 42.995,24.347 39.017,24.346" id="Fill-147" fill="#E6E7E8" sketch:type="MSShapeGroup"></path>
            <path d="M7.733,35.119 C5.655,35.119 3.963,33.428 3.963,31.348 C3.963,29.269 5.655,27.578 7.733,27.578 C9.812,27.578 11.504,29.269 11.504,31.348 C11.504,33.428 9.812,35.119 7.733,35.119" id="Fill-429" fill="#F07052" sketch:type="MSShapeGroup"></path>
            <path d="M22,16.283 C22,19.044 19.761,21.283 17,21.283 C14.239,21.283 12,19.044 12,16.283 C12,13.521 14.239,11.283 17,11.283 C19.761,11.283 22,13.521 22,16.283" id="Fill-430" fill="#F07052" sketch:type="MSShapeGroup"></path>
            <path d="M38.973,35.119 C36.894,35.119 35.202,33.428 35.202,31.348 C35.202,29.269 36.894,27.578 38.973,27.578 C41.052,27.578 42.743,29.269 42.743,31.348 C42.743,33.428 41.052,35.119 38.973,35.119" id="Fill-431" fill="#F07052" sketch:type="MSShapeGroup"></path>
            <path id="Stroke-432" stroke="#0096E6" stroke-width="2" sketch:type="MSShapeGroup"></path>
            <path d="M14,36.31 L14,32 C14,33.232 19.786,36.019 23,36 C26.214,36.019 32,33.233 32,32.001 L32,36.31 C32,37.542 26.214,40.019 23,40 C19.786,40.019 14,37.542 14,36.31" id="Fill-433" fill="#F07052" sketch:type="MSShapeGroup"></path>
            <path d="M35,16.283 C35,19.044 32.761,21.283 30,21.283 C27.239,21.283 25,19.044 25,16.283 C25,13.521 27.239,11.283 30,11.283 C32.761,11.283 35,13.521 35,16.283" id="Fill-434" fill="#F07052" sketch:type="MSShapeGroup"></path>
            <path d="M16.5,14 C15.122,14 14,15.121 14,16.5 C14,17.879 15.122,19 16.5,19 C17.878,19 19,17.879 19,16.5 C19,15.121 17.878,14 16.5,14" id="Fill-435" fill="#464F5D" sketch:type="MSShapeGroup"></path>
            <path d="M29.5,14 C28.122,14 27,15.121 27,16.5 C27,17.879 28.122,19 29.5,19 C30.878,19 32,17.879 32,16.5 C32,15.121 30.878,14 29.5,14" id="Fill-436" fill="#464F5D" sketch:type="MSShapeGroup"></path>
            <path d="M19.583,53.477 L12.804,54.938 C11.151,55.294 9.583,54.075 9.583,52.433 L9.583,47.73 C9.583,45.874 11.554,44.632 13.305,45.386 L19.583,48.091 L19.583,53.477" id="Fill-437" fill="#E64C3C" sketch:type="MSShapeGroup"></path>
            <path d="M26.208,53.316 L32.725,55.422 C34.439,55.975 36.208,54.739 36.208,52.988 L36.208,47.569 C36.208,45.712 34.237,44.47 32.487,45.224 L26.208,47.93 L26.208,53.316" id="Fill-438" fill="#E64C3C" sketch:type="MSShapeGroup"></path>
            <path d="M24.719,55 L21,55 C19.9,55 19,54.1 19,53 L19,48.72 C19,47.77 19.77,47 20.719,47 L25,47 C26.1,47 27,47.9 27,49 L27,52.72 C27,53.974 25.974,55 24.719,55" id="Fill-439" fill="#C03A2B" sketch:type="MSShapeGroup"></path>
            <path d="M23,32 C22.448,32 22,31.553 22,31 L22,24 C22,23.447 22.448,23 23,23 C23.552,23 24,23.447 24,24 L24,31 C24,31.553 23.552,32 23,32" id="Fill-440" fill="#BDC3C7" sketch:type="MSShapeGroup"></path>
            <path d="M23,32 C22.744,32 22.488,31.902 22.293,31.707 C21.902,31.316 21.902,30.684 22.293,30.293 L25.293,27.293 C25.684,26.902 26.316,26.902 26.707,27.293 C27.098,27.684 27.098,28.316 26.707,28.707 L23.707,31.707 C23.512,31.902 23.256,32 23,32" id="Fill-488" fill="#BDC3C7" sketch:type="MSShapeGroup"></path>
            <path d="M23,32 C22.744,32 22.488,31.902 22.293,31.707 L19.293,28.707 C18.902,28.316 18.902,27.684 19.293,27.293 C19.684,26.902 20.316,26.902 20.707,27.293 L23.707,30.293 C24.098,30.684 24.098,31.316 23.707,31.707 C23.512,31.902 23.256,32 23,32" id="Fill-489" fill="#BDC3C7" sketch:type="MSShapeGroup"></path>
            <path d="M2.202,26.434 C3.573,25.146 5.452,24.346 7.46,24.346 C7.547,24.346 7.631,24.356 7.717,24.359 C7.892,24.344 8,24.345 8,24.345 L8,13.573 C8.04,8.725 10.64,4.457 13.891,2.535 C14.052,2.44 14.218,2.357 14.382,2.267 C13.773,2.093 13.144,2 12.5,2 C7.253,2 3,8.044 3,15.5 C3,15.849 3.009,16.195 3.028,16.538 C3.117,18.201 3.04,19.887 2.502,21.464 C2.048,22.797 1.882,24.263 2.087,25.792 C2.116,26.009 2.158,26.222 2.202,26.434" id="Fill-490" fill="#464F5D" sketch:type="MSShapeGroup"></path>
            <path d="M44.798,26.434 C43.427,25.146 41.547,24.346 39.539,24.346 C39.453,24.346 39.369,24.356 39.283,24.359 C39.107,24.344 39,24.345 39,24.345 L39,13.573 C38.96,8.725 36.36,4.457 33.109,2.535 C32.948,2.44 32.782,2.357 32.618,2.267 C33.227,2.093 33.855,2 34.5,2 C39.747,2 44,8.044 44,15.5 C44,15.849 43.991,16.195 43.972,16.538 C43.883,18.201 43.96,19.887 44.498,21.464 C44.952,22.797 45.118,24.263 44.913,25.792 C44.884,26.009 44.842,26.222 44.798,26.434" id="Fill-491" fill="#464F5D" sketch:type="MSShapeGroup"></path>
        </g>
    </g>
</svg>