<?xml version="1.0" encoding="UTF-8" standalone="no"?>
<svg width="58px" height="58px" viewBox="0 0 58 58" version="1.1" xmlns="http://www.w3.org/2000/svg" xmlns:xlink="http://www.w3.org/1999/xlink" xmlns:sketch="http://www.bohemiancoding.com/sketch/ns">
    <!-- Generator: Sketch 3.2.2 (9983) - http://www.bohemiancoding.com/sketch -->
    <title>80 - Star Wars (Flat)</title>
    <desc>Created with Sketch.</desc>
    <defs></defs>
    <g id="Page-1" stroke="none" stroke-width="1" fill="none" fill-rule="evenodd" sketch:type="MSPage">
        <g id="80---Star-Wars-(Flat)" sketch:type="MSLayerGroup">
            <path d="M41.716,25.256 L36.701,20.241 C36.31,19.851 35.677,19.851 35.287,20.241 C34.896,20.632 34.896,21.265 35.287,21.655 L37.087,23.456 L34.033,26.51 C33.642,26.901 33.642,27.534 34.033,27.924 C34.228,28.12 34.484,28.217 34.74,28.217 C34.996,28.217 35.251,28.12 35.447,27.924 L38.501,24.87 L40.302,26.67 C40.497,26.866 40.753,26.963 41.009,26.963 C41.265,26.963 41.52,26.866 41.716,26.67 C42.106,26.28 42.106,25.647 41.716,25.256" id="Fill-137" fill="#5E5F62" sketch:type="MSShapeGroup"></path>
            <path d="M15.933,23.456 L49.194,56.716 C50.905,58.428 53.68,58.428 55.392,56.716 L56.716,55.392 C58.428,53.68 58.428,50.905 56.716,49.194 L23.456,15.933 L15.933,23.456" id="Fill-158" fill="#F8F7F7" sketch:type="MSShapeGroup"></path>
            <path d="M34.74,42.263 L30.978,46.024 L20.948,35.994 L24.71,32.232 L34.74,42.263" id="Fill-159" fill="#5E5F62" sketch:type="MSShapeGroup"></path>
            <path d="M29.725,44.77 C27.647,46.847 24.279,46.847 22.202,44.77 C20.125,42.693 20.125,39.325 22.202,37.247 L29.725,44.77" id="Fill-160" fill="#EBDC92" sketch:type="MSShapeGroup"></path>
            <path d="M5.922,0.907 L22.202,17.187 L17.187,22.202 L0.907,5.922 L5.922,0.907" id="Fill-161" fill="#FF7C77" sketch:type="MSShapeGroup"></path>
            <path d="M29.725,27.217 C30.417,27.91 30.417,29.032 29.725,29.725 C29.032,30.417 27.91,30.417 27.217,29.725 C26.525,29.032 26.525,27.91 27.217,27.217 C27.91,26.525 29.032,26.525 29.725,27.217" id="Fill-162" fill="#5E5F62" sketch:type="MSShapeGroup"></path>
            <path d="M33.486,30.979 C34.178,31.671 34.178,32.794 33.486,33.486 C32.794,34.179 31.671,34.179 30.978,33.486 C30.286,32.794 30.286,31.671 30.978,30.979 C31.671,30.286 32.794,30.286 33.486,30.979" id="Fill-163" fill="#F0785A" sketch:type="MSShapeGroup"></path>
            <path d="M37.247,34.74 C37.94,35.432 37.94,36.555 37.247,37.247 C36.555,37.94 35.432,37.94 34.74,37.247 C34.047,36.555 34.047,35.432 34.74,34.74 C35.432,34.047 36.555,34.047 37.247,34.74" id="Fill-164" fill="#5E5F62" sketch:type="MSShapeGroup"></path>
            <path d="M44.063,36.541 L44.063,36.541 L36.54,44.063 L37.954,45.477 L37.955,45.477 L45.477,37.955 L44.063,36.541" id="Fill-683" fill="#EBDC92" sketch:type="MSShapeGroup"></path>
            <path d="M50.492,42.97 L49.078,41.556 L41.556,49.078 L42.97,50.492 L50.492,42.97" id="Fill-684" fill="#EBDC92" sketch:type="MSShapeGroup"></path>
            <path d="M55.507,47.985 L54.093,46.571 L46.571,54.093 L47.985,55.507 L55.507,47.985" id="Fill-685" fill="#EBDC92" sketch:type="MSShapeGroup"></path>
            <path d="M21.446,28.968 L28.968,21.446 L27.554,20.032 L20.032,27.554 L21.446,28.968" id="Fill-686" fill="#EBDC92" sketch:type="MSShapeGroup"></path>
            <path d="M3.422,3.407 L19.702,19.687 L17.187,22.202 L0.907,5.922 L3.422,3.407" id="Fill-742" fill="#FFA5A2" sketch:type="MSShapeGroup"></path>
        </g>
    </g>
</svg>