<?xml version="1.0" encoding="UTF-8" standalone="no"?>
<svg width="54px" height="54px" viewBox="0 0 54 54" version="1.1" xmlns="http://www.w3.org/2000/svg" xmlns:xlink="http://www.w3.org/1999/xlink" xmlns:sketch="http://www.bohemiancoding.com/sketch/ns">
    <!-- Generator: Sketch 3.2.2 (9983) - http://www.bohemiancoding.com/sketch -->
    <title>8 - Starwalk (Flat)</title>
    <desc>Created with Sketch.</desc>
    <defs></defs>
    <g id="Page-1" stroke="none" stroke-width="1" fill="none" fill-rule="evenodd" sketch:type="MSPage">
        <g id="8---Starwalk-(Flat)" sketch:type="MSLayerGroup">
            <path d="M0,0 L54,0 L54,54 L0,54 L0,0 Z" id="Fill-589" fill="#5A656E" sketch:type="MSShapeGroup"></path>
            <path d="M27.026,3.916 L34.513,19.086 L51.254,21.519 L39.14,33.327 L41.999,50 L27.026,42.128 L12.052,50 L14.912,33.327 L2.798,21.519 L19.539,19.086 L27.026,3.916 L27.026,3.916 Z" id="Fill-592" fill="#C8AEB6" sketch:type="MSShapeGroup"></path>
            <path d="M27.026,3.916 L34.513,19.086 L51.254,21.519 L39.14,33.327 L41.999,50 L27.026,42.128 L12.052,50 L14.912,33.327 L2.798,21.519 L19.539,19.086 L27.026,3.916 L27.026,3.916 Z" id="Stroke-593" stroke="#F3D55B" stroke-width="2" sketch:type="MSShapeGroup"></path>
            <path d="M33,25 C33,28.314 30.314,31 27,31 C23.686,31 21,28.314 21,25 C21,21.686 23.686,19 27,19 C30.314,19 33,21.686 33,25 L33,25 Z" id="Fill-594" fill="#B19046" sketch:type="MSShapeGroup"></path>
            <path d="M33,25 C33,28.314 30.314,31 27,31 C23.686,31 21,28.314 21,25 C21,21.686 23.686,19 27,19 C30.314,19 33,21.686 33,25 L33,25 Z" id="Stroke-595" stroke="#F3D55B" stroke-width="2" stroke-linejoin="round" sketch:type="MSShapeGroup"></path>
            <path d="M24,35 L30,35 M22,39 L32,39" id="Stroke-596" stroke="#F3D55B" stroke-width="2" stroke-linecap="round" stroke-linejoin="round" sketch:type="MSShapeGroup"></path>
        </g>
    </g>
</svg>