<?xml version="1.0" encoding="UTF-8" standalone="no"?>
<svg width="55px" height="52px" viewBox="0 0 55 52" version="1.1" xmlns="http://www.w3.org/2000/svg" xmlns:xlink="http://www.w3.org/1999/xlink" xmlns:sketch="http://www.bohemiancoding.com/sketch/ns">
    <!-- Generator: Sketch 3.2.2 (9983) - http://www.bohemiancoding.com/sketch -->
    <title>79 - The Lord of the Rings (Flat)</title>
    <desc>Created with Sketch.</desc>
    <defs></defs>
    <g id="Page-1" stroke="none" stroke-width="1" fill="none" fill-rule="evenodd" sketch:type="MSPage">
        <g id="79---The-Lord-of-the-Rings-(Flat)" sketch:type="MSLayerGroup">
            <path d="M54.453,0.201 C54.453,0.198 54.451,0.198 54.451,0.196 C54.417,-0.06 54.051,-0.067 54,0.189 C52.89,5.834 50.783,15.075 50.783,15.075 L48.919,22.275 C48.919,22.275 41.205,41.983 37,43.994 C33.505,45.666 28.627,34.953 27.523,35 C26.06,35.062 22.132,45.661 18,43.994 C13.57,42.207 5.753,21.238 5.753,21.238 L4.378,15.837 C4.378,15.837 2.173,6.15 1,0.189 C0.95,-0.068 0.577,-0.061 0.548,0.2 C0.548,0.2 0.548,0.2 0.548,0.201 C-0.495,10.065 -1.819,51.052 15,51.2 L40,51.2 C56.82,51.052 55.495,10.065 54.453,0.201" id="Fill-78" fill="#805333" sketch:type="MSShapeGroup"></path>
            <path d="M4.961,22.801 C4.961,22.801 13.063,48.275 17.654,50.446 C21.936,52.47 26.007,39.595 27.523,39.52 C28.667,39.463 33.722,52.477 37.345,50.446 C41.702,48.003 49.697,24.06 49.697,24.06 L51.629,15.313 C51.629,15.313 53.264,6.904 54.451,0.196 C54.417,-0.06 54.051,-0.067 54,0.189 C52.89,5.834 50.783,15.075 50.783,15.075 L48.919,22.275 C48.919,22.275 41.205,41.983 37,43.994 C33.505,45.666 28.627,34.953 27.523,35 C26.06,35.062 22.132,45.661 18,43.994 C13.57,42.207 5.753,21.238 5.753,21.238 L4.378,15.837 C4.378,15.837 2.173,6.15 1,0.189 C0.95,-0.068 0.577,-0.061 0.548,0.2 C1.799,7.292 3.537,16.24 3.537,16.24 L4.961,22.801" id="Fill-716" fill="#5B3B24" sketch:type="MSShapeGroup"></path>
            <path d="M15,51.2 L40,51.2 C56.82,51.052 55.495,10.065 54.453,0.201 C54.453,0.198 54.451,0.198 54.451,0.196 C53.264,6.904 51.629,15.313 51.629,15.313 L49.697,24.06 C49.697,24.06 41.702,48.003 37.345,50.446 C33.722,52.477 28.667,39.463 27.523,39.52 C26.007,39.595 21.936,52.47 17.654,50.446 C13.063,48.275 4.961,22.801 4.961,22.801 L3.537,16.24 C3.537,16.24 1.799,7.292 0.548,0.2 C0.548,0.2 0.548,0.2 0.548,0.201 C-0.495,10.065 -1.819,51.052 15,51.2" id="Fill-717" fill="#805333" sketch:type="MSShapeGroup"></path>
            <path d="M50.783,15.075 L48.919,22.275 C48.919,22.275 45.829,30.166 42.495,36.472 C46.423,35.197 50.177,33.406 53.647,31.139 C55.125,22.224 55.151,12.273 54.841,5.64 C54.274,5.244 53.699,4.86 53.115,4.49 C52.033,9.59 50.783,15.075 50.783,15.075" id="Fill-756" fill="#BC6C37" sketch:type="MSShapeGroup"></path>
            <path d="M5.753,21.238 L4.378,15.837 C4.378,15.837 3.134,10.37 2.017,5.123 C1.376,5.553 0.745,6 0.124,6.463 C-0.138,12.868 -0.07,21.982 1.221,30.318 C4.618,32.702 8.301,34.599 12.171,35.995 C8.802,29.418 5.753,21.238 5.753,21.238" id="Fill-757" fill="#BC6C37" sketch:type="MSShapeGroup"></path>
            <path d="M51.208,15.404 C37.065,3.92 16.421,4.493 2.927,17.121 C2.432,17.584 2.432,18.389 2.927,18.852 C16.421,31.481 37.065,32.053 51.208,20.569 C52.85,19.236 52.85,16.737 51.208,15.404" id="Fill-758" fill="#E57E25" sketch:type="MSShapeGroup"></path>
            <path d="M28.052,21.773 C22.899,21.773 17.912,20.456 13.508,17.986 C17.912,15.518 22.899,14.2 28.052,14.2 C33.157,14.2 38.174,15.523 42.586,17.987 C38.175,20.45 33.159,21.773 28.054,21.773 L28.052,21.773" id="Fill-759" fill="#F29C1F" sketch:type="MSShapeGroup"></path>
            <path d="M28.756,28.236 C34.514,22.479 34.514,13.16 28.756,7.403 L27.529,7.403 C21.771,13.16 21.771,22.479 27.529,28.236 L28.756,28.236" id="Fill-760" fill="#F0C419" sketch:type="MSShapeGroup"></path>
        </g>
    </g>
</svg>