<?xml version="1.0" encoding="UTF-8" standalone="no"?>
<svg width="48px" height="59px" viewBox="0 0 48 59" version="1.1" xmlns="http://www.w3.org/2000/svg" xmlns:xlink="http://www.w3.org/1999/xlink" xmlns:sketch="http://www.bohemiancoding.com/sketch/ns">
    <!-- Generator: Sketch 3.2.2 (9983) - http://www.bohemiancoding.com/sketch -->
    <title>52 - The Godfather (Flat)</title>
    <desc>Created with Sketch.</desc>
    <defs></defs>
    <g id="Page-1" stroke="none" stroke-width="1" fill="none" fill-rule="evenodd" sketch:type="MSPage">
        <g id="52---The-Godfather-(Flat)" sketch:type="MSLayerGroup">
            <path d="M47,12 L30.191,9.479 L41,2 L33,0 L21.22,8.133 L7,6 L1,10 L14.989,12.098 L4,20 L12,21 L23.936,13.44 L41,16 L47,12" id="Fill-321" fill="#5E5F62" sketch:type="MSShapeGroup"></path>
            <path d="M12,55 C11.447,55 11,54.552 11,54 L11,28 C11,27.448 11.447,27 12,27 C12.553,27 13,27.448 13,28 L13,54 C13,54.552 12.553,55 12,55" id="Fill-322" fill="#D1D4D1" sketch:type="MSShapeGroup"></path>
            <path d="M1,54 C0.447,54 0,53.552 0,53 L0,14 C0,13.448 0.447,13 1,13 C1.553,13 2,13.448 2,14 L2,53 C2,53.552 1.553,54 1,54" id="Fill-323" fill="#D1D4D1" sketch:type="MSShapeGroup"></path>
            <path d="M7,59 C6.447,59 6,58.552 6,58 L6,24 C6,23.448 6.447,23 7,23 C7.553,23 8,23.448 8,24 L8,58 C8,58.552 7.553,59 7,59" id="Fill-324" fill="#D1D4D1" sketch:type="MSShapeGroup"></path>
            <path d="M41,58 C40.447,58 40,57.552 40,57 L40,20 C40,19.448 40.447,19 41,19 C41.553,19 42,19.448 42,20 L42,57 C42,57.552 41.553,58 41,58" id="Fill-325" fill="#D1D4D1" sketch:type="MSShapeGroup"></path>
            <path d="M47,58 C46.447,58 46,57.552 46,57 L46,17 C46,16.448 46.447,16 47,16 C47.553,16 48,16.448 48,17 L48,57 C48,57.552 47.553,58 47,58" id="Fill-326" fill="#D1D4D1" sketch:type="MSShapeGroup"></path>
            <path d="M31,55 C30.447,55 30,54.552 30,54 L30,22 C30,21.448 30.447,21 31,21 C31.553,21 32,21.448 32,22 L32,54 C32,54.552 31.553,55 31,55" id="Fill-327" fill="#D1D4D1" sketch:type="MSShapeGroup"></path>
            <path d="M21,59 C20.447,59 20,58.552 20,58 L20,19 C20,18.448 20.447,18 21,18 C21.553,18 22,18.448 22,19 L22,58 C22,58.552 21.553,59 21,59" id="Fill-328" fill="#D1D4D1" sketch:type="MSShapeGroup"></path>
            <path d="M41,9 C40.447,9 40,8.552 40,8 L40,5 C40,4.448 40.447,4 41,4 C41.553,4 42,4.448 42,5 L42,8 C42,8.552 41.553,9 41,9" id="Fill-329" fill="#D1D4D1" sketch:type="MSShapeGroup"></path>
        </g>
    </g>
</svg>