<?xml version="1.0" encoding="UTF-8" standalone="no"?>
<svg width="48px" height="58px" viewBox="0 0 48 58" version="1.1" xmlns="http://www.w3.org/2000/svg" xmlns:xlink="http://www.w3.org/1999/xlink" xmlns:sketch="http://www.bohemiancoding.com/sketch/ns">
    <!-- Generator: Sketch 3.2.2 (9983) - http://www.bohemiancoding.com/sketch -->
    <title>27 - The Punisher (Flat)</title>
    <desc>Created with Sketch.</desc>
    <defs></defs>
    <g id="Page-1" stroke="none" stroke-width="1" fill="none" fill-rule="evenodd" sketch:type="MSPage">
        <g id="27---The-Punisher-(Flat)" sketch:type="MSLayerGroup">
            <path d="M24,0.005 C24,0.005 47.75,-0.745 48,17.005 L48,18.311 C48,22.294 47.315,26.23 46.214,30.058 C46.207,30.084 46.199,30.11 46.192,30.137 C45.958,30.977 46.235,31.845 46.79,32.519 C47.225,33.049 47.426,34.08 46,36.005 C46,36.005 42.858,39.25 41.233,40 C41.233,40 39.358,40.25 40.233,37 C40.233,37 42.125,31.63 40,33.005 C40,33.005 33.625,36.13 34,40.005 L34,53.005 L31,56.005 L31,39.005 L28,39.005 L28,57.005 L25,57.005 L25,39.005 L22,39.005 L22,57.005 L19,57.005 L19,39.005 L16,39.005 L16,56.005 L13,53.005 L13,40.005 C13.375,36.13 8,33.005 8,33.005 C5.875,31.63 7.767,37 7.767,37 C8.642,40.25 6.767,40 6.767,40 C5.142,39.25 2,36.005 2,36.005 C0.574,34.08 0.775,33.049 1.21,32.519 C1.765,31.845 2.042,30.977 1.808,30.137 C1.801,30.11 1.793,30.084 1.786,30.058 C0.685,26.23 0,22.294 0,18.311 L0,17.005 C0.25,-0.745 24,0.005 24,0.005" id="Fill-441" fill="#ECF0F1" sketch:type="MSShapeGroup"></path>
            <path d="M20,23.951 L13.375,19.358 C13.375,19.358 9.704,17.358 6.856,14.094 C5.787,12.87 3.763,13.662 3.745,15.287 C3.74,15.807 3.781,16.345 3.889,16.883 C4.131,18.085 4.237,19.312 4.446,20.52 C4.728,22.156 6.447,24.52 13.615,25.504 C13.615,25.504 17.966,26.125 20,23.951" id="Fill-442" fill="#464F5D" sketch:type="MSShapeGroup"></path>
            <path d="M28,23.875 L34.667,19.343 C34.667,19.343 38.351,17.38 41.228,14.147 C42.3,12.943 44.307,13.747 44.302,15.359 C44.3,15.863 44.255,16.384 44.148,16.905 C43.897,18.124 43.769,19.366 43.556,20.593 C43.271,22.223 41.547,24.569 34.37,25.487 C34.37,25.487 30.013,26.067 28,23.875" id="Fill-443" fill="#464F5D" sketch:type="MSShapeGroup"></path>
            <path d="M22.494,27.005 L22.494,27.005 C21.67,28.653 20.404,29.999 18.998,31.189 C18.777,31.376 18.642,31.612 18.688,31.91 C18.688,31.91 18.858,33.996 21.394,35.292 C21.394,34.172 21.615,33.062 22.066,32.037 C22.513,31.02 22.747,29.916 22.747,28.795 L22.747,27.064 C22.747,26.923 22.557,26.879 22.494,27.005" id="Fill-444" fill="#464F5D" sketch:type="MSShapeGroup"></path>
            <path d="M26,27.005 L26,27.005 C26.824,28.653 28.09,29.999 29.496,31.189 C29.717,31.376 29.852,31.612 29.805,31.91 C29.805,31.91 29.636,33.996 27.1,35.292 C27.1,34.172 26.879,33.062 26.428,32.037 C25.981,31.02 25.747,29.916 25.747,28.795 L25.747,27.064 C25.747,26.923 25.937,26.879 26,27.005" id="Fill-445" fill="#464F5D" sketch:type="MSShapeGroup"></path>
        </g>
    </g>
</svg>