<?xml version="1.0" encoding="UTF-8" standalone="no"?>
<svg width="58px" height="58px" viewBox="0 0 58 58" version="1.1" xmlns="http://www.w3.org/2000/svg" xmlns:xlink="http://www.w3.org/1999/xlink" xmlns:sketch="http://www.bohemiancoding.com/sketch/ns">
    <!-- Generator: Sketch 3.2.2 (9983) - http://www.bohemiancoding.com/sketch -->
    <title>64 - The Dark Knight (Flat)</title>
    <desc>Created with Sketch.</desc>
    <defs></defs>
    <g id="Page-1" stroke="none" stroke-width="1" fill="none" fill-rule="evenodd" sketch:type="MSPage">
        <g id="64---The-Dark-Knight-(Flat)" sketch:type="MSLayerGroup">
            <path d="M58,29 C58,45.016 45.016,58 29,58 C12.984,58 0,45.016 0,29 C0,12.984 12.984,0 29,0 C45.016,0 58,12.984 58,29" id="Fill-157" fill="#464F5D" sketch:type="MSShapeGroup"></path>
            <path d="M29,23.448 C31.083,23.412 31,18 31,18 C31,18 32.161,26.625 35.034,26.769 C36.068,26.263 37.04,24.827 37.621,23 L54,23 C54,23 46.636,24.921 46.241,32.931 C46.241,32.931 31.981,32.285 29,39.828 C26.019,32.285 11.759,32.931 11.759,32.931 C11.364,24.921 4,23 4,23 L20.379,23 C21.015,24.998 22.118,26.44 23.258,26.899 C26.131,26.755 27,18 27,18 C27,18 26.917,23.412 29,23.448" id="Fill-228" fill="#F3D55B" sketch:type="MSShapeGroup"></path>
        </g>
    </g>
</svg>