<?xml version="1.0" encoding="UTF-8" standalone="no"?>
<svg width="53px" height="53px" viewBox="0 0 53 53" version="1.1" xmlns="http://www.w3.org/2000/svg" xmlns:xlink="http://www.w3.org/1999/xlink" xmlns:sketch="http://www.bohemiancoding.com/sketch/ns">
    <!-- Generator: Sketch 3.2.2 (9983) - http://www.bohemiancoding.com/sketch -->
    <title>65 - The Simpsons (Flat)</title>
    <desc>Created with Sketch.</desc>
    <defs></defs>
    <g id="Page-1" stroke="none" stroke-width="1" fill="none" fill-rule="evenodd" sketch:type="MSPage">
        <g id="65---The-Simpsons-(Flat)" sketch:type="MSLayerGroup">
            <path d="M51.01,16.686 L51.007,16.687 C51.01,16.693 51.013,16.697 51.016,16.703 C51.014,16.697 51.012,16.691 51.01,16.686" id="Fill-155" fill="#FAC176" sketch:type="MSShapeGroup"></path>
            <path d="M51.09,16.894 C51.918,19.092 50.35,22.669 47.51,25.51 C44.19,28.829 39.917,29.937 37.964,27.985 C37.44,27.461 37.143,26.766 37.044,25.971 L37,26 C37,31.247 31.747,36 26.5,36 C21.253,36 17,31.747 17,26.5 C17,21.253 21.253,17 26.5,17 L30,17 C27.239,17 25,13.194 25,8.5 C25,3.826 27.219,0.265 29.964,0.233 C28.829,0.084 27.675,0 26.5,0 C11.888,0 0,11.888 0,26.5 C0,41.112 11.888,53 26.5,53 C41.112,53 53,41.112 53,26.5 C53,23.044 52.3,19.917 51.09,16.894" id="Fill-156" fill="#FAC176" sketch:type="MSShapeGroup"></path>
            <path d="M35,8.5 C35,13.194 32.761,17 30,17 C27.239,17 25,13.194 25,8.5 C25,3.806 27.239,0.23 30,0.23 C32.761,0.23 35,3.806 35,8.5" id="Fill-217" fill="#F18D46" sketch:type="MSShapeGroup"></path>
            <path d="M47.51,25.51 C44.19,28.829 39.917,29.937 37.964,27.985 C36.011,26.032 37.119,21.758 40.439,18.439 C43.758,15.119 48.516,13.954 50.469,15.906 C52.421,17.859 50.829,22.19 47.51,25.51" id="Fill-218" fill="#F18D46" sketch:type="MSShapeGroup"></path>
            <path d="M32,9 C32,11.761 31.105,14 30,14 C28.895,14 28,11.761 28,9 C28,6.239 28.895,4 30,4 C31.105,4 32,6.239 32,9" id="Fill-225" fill="#805333" sketch:type="MSShapeGroup"></path>
            <path d="M45.605,23.223 C43.653,25.176 41.437,26.125 40.656,25.344 C39.874,24.563 40.824,22.347 42.777,20.395 C44.729,18.442 46.946,17.492 47.727,18.273 C48.508,19.054 47.558,21.271 45.605,23.223" id="Fill-226" fill="#805333" sketch:type="MSShapeGroup"></path>
            <path d="M19,9 C18.447,9 18,8.552 18,8 L18,5 C18,4.448 18.447,4 19,4 C19.553,4 20,4.448 20,5 L20,8 C20,8.552 19.553,9 19,9" id="Fill-227" fill="#FFFB00" sketch:type="MSShapeGroup"></path>
            <path d="M15.999,16 C15.849,16 15.696,15.966 15.553,15.895 C15.059,15.648 14.858,15.047 15.105,14.553 L16.106,12.553 C16.353,12.059 16.954,11.859 17.447,12.106 C17.941,12.353 18.142,12.953 17.894,13.447 L16.894,15.447 C16.719,15.798 16.366,16 15.999,16" id="Fill-700" fill="#9FC9D3" sketch:type="MSShapeGroup"></path>
            <path d="M10.001,28 C9.678,28 9.36,27.844 9.168,27.555 L7.168,24.555 C6.861,24.095 6.985,23.474 7.445,23.168 C7.905,22.86 8.525,22.986 8.832,23.445 L10.832,26.445 C11.139,26.905 11.015,27.526 10.555,27.832 C10.384,27.946 10.191,28 10.001,28" id="Fill-701" fill="#D25627" sketch:type="MSShapeGroup"></path>
            <path d="M18,48 C17.447,48 17,47.552 17,47 L17,43 C17,42.448 17.447,42 18,42 C18.553,42 19,42.448 19,43 L19,47 C19,47.552 18.553,48 18,48" id="Fill-702" fill="#805333" sketch:type="MSShapeGroup"></path>
            <path d="M29.999,49 C29.849,49 29.696,48.966 29.553,48.895 C29.059,48.648 28.858,48.047 29.106,47.553 L31.106,43.553 C31.353,43.058 31.953,42.858 32.447,43.106 C32.941,43.353 33.142,43.953 32.894,44.447 L30.894,48.447 C30.719,48.798 30.366,49 29.999,49" id="Fill-703" fill="#FFFB00" sketch:type="MSShapeGroup"></path>
            <path d="M39.999,39 C39.551,39 39.144,38.697 39.03,38.243 C38.896,37.707 39.222,37.164 39.758,37.03 L43.758,36.03 C44.291,35.893 44.836,36.222 44.97,36.757 C45.104,37.294 44.778,37.836 44.242,37.97 L40.242,38.97 C40.161,38.991 40.079,39 39.999,39" id="Fill-704" fill="#D970AD" sketch:type="MSShapeGroup"></path>
            <path d="M13.001,39 C12.921,39 12.839,38.991 12.758,38.97 L8.758,37.97 C8.222,37.836 7.895,37.294 8.03,36.757 C8.163,36.222 8.705,35.892 9.242,36.03 L13.242,37.03 C13.778,37.164 14.104,37.707 13.97,38.243 C13.856,38.697 13.449,39 13.001,39" id="Fill-705" fill="#7ED09E" sketch:type="MSShapeGroup"></path>
            <path d="M8,18 C7.744,18 7.488,17.902 7.293,17.707 L6.293,16.707 C5.902,16.316 5.902,15.684 6.293,15.293 C6.684,14.902 7.316,14.902 7.707,15.293 L8.707,16.293 C9.098,16.684 9.098,17.316 8.707,17.707 C8.512,17.902 8.256,18 8,18" id="Fill-706" fill="#FFFB00" sketch:type="MSShapeGroup"></path>
            <path d="M39.001,46 C38.634,46 38.281,45.798 38.106,45.447 L37.106,43.447 C36.858,42.953 37.059,42.353 37.553,42.106 C38.047,41.858 38.646,42.059 38.894,42.553 L39.894,44.553 C40.142,45.047 39.941,45.648 39.447,45.895 C39.304,45.966 39.151,46 39.001,46" id="Fill-707" fill="#9FC9D3" sketch:type="MSShapeGroup"></path>
            <path d="M25,43 C24.744,43 24.488,42.902 24.293,42.707 L22.293,40.707 C21.902,40.316 21.902,39.684 22.293,39.293 C22.684,38.902 23.316,38.902 23.707,39.293 L25.707,41.293 C26.098,41.684 26.098,42.316 25.707,42.707 C25.512,42.902 25.256,43 25,43" id="Fill-708" fill="#C03A2B" sketch:type="MSShapeGroup"></path>
            <path d="M7,33 L6,33 C5.447,33 5,32.552 5,32 C5,31.448 5.447,31 6,31 L7,31 C7.553,31 8,31.448 8,32 C8,32.552 7.553,33 7,33" id="Fill-709" fill="#805333" sketch:type="MSShapeGroup"></path>
            <path d="M12.001,13 C11.634,13 11.281,12.798 11.106,12.447 L10.106,10.447 C9.858,9.953 10.059,9.353 10.553,9.106 C11.047,8.859 11.646,9.059 11.894,9.553 L12.894,11.553 C13.142,12.047 12.941,12.648 12.447,12.895 C12.304,12.966 12.151,13 12.001,13" id="Fill-710" fill="#E64C3C" sketch:type="MSShapeGroup"></path>
            <path d="M47,33 L44,33 C43.447,33 43,32.552 43,32 C43,31.448 43.447,31 44,31 L47,31 C47.553,31 48,31.448 48,32 C48,32.552 47.553,33 47,33" id="Fill-711" fill="#805333" sketch:type="MSShapeGroup"></path>
            <path d="M31,40 C30.744,40 30.488,39.902 30.293,39.707 C29.902,39.316 29.902,38.684 30.293,38.293 L31.293,37.293 C31.684,36.902 32.316,36.902 32.707,37.293 C33.098,37.684 33.098,38.316 32.707,38.707 L31.707,39.707 C31.512,39.902 31.256,40 31,40" id="Fill-712" fill="#71C285" sketch:type="MSShapeGroup"></path>
            <path d="M14.001,21 C13.634,21 13.281,20.798 13.106,20.447 L12.105,18.447 C11.858,17.953 12.059,17.353 12.553,17.106 C13.047,16.858 13.648,17.058 13.894,17.553 L14.894,19.553 C15.142,20.047 14.941,20.648 14.447,20.895 C14.304,20.966 14.151,21 14.001,21" id="Fill-713" fill="#46B29D" sketch:type="MSShapeGroup"></path>
        </g>
    </g>
</svg>