<?xml version="1.0" encoding="UTF-8" standalone="no"?>
<svg width="60px" height="48px" viewBox="0 0 60 48" version="1.1" xmlns="http://www.w3.org/2000/svg" xmlns:xlink="http://www.w3.org/1999/xlink" xmlns:sketch="http://www.bohemiancoding.com/sketch/ns">
    <!-- Generator: Sketch 3.2.2 (9983) - http://www.bohemiancoding.com/sketch -->
    <title>59 - The Hobbit (Flat)</title>
    <desc>Created with Sketch.</desc>
    <defs></defs>
    <g id="Page-1" stroke="none" stroke-width="1" fill="none" fill-rule="evenodd" sketch:type="MSPage">
        <g id="59---The-Hobbit-(Flat)" sketch:type="MSLayerGroup">
            <path d="M60,23 C60,35.098 49.702,44.905 37,44.905 C24.297,44.905 14,35.098 14,23 C14,10.902 24.297,1.095 37,1.095 C49.702,1.095 60,10.902 60,23" id="Fill-74" fill="#4C311E" sketch:type="MSShapeGroup"></path>
            <path d="M19.734,23.049 C26.517,23.479 32.501,26.791 37.54,30.933 C37.543,30.933 37.545,30.932 37.548,30.932 C44.434,31.38 53.066,29.688 56.62,23.583 L57.878,21.542 C56.602,11.058 47.687,2.93 36.858,2.93 C28.204,2.93 20.774,8.124 17.483,15.559 C18.222,17.87 18.717,20.387 18.93,23.036 L19.734,23.049" id="Fill-75" fill="#8697CB" sketch:type="MSShapeGroup"></path>
            <path d="M18.068,17.675 C18.484,19.381 18.78,21.174 18.93,23.036 L19.734,23.049 C26.517,23.479 32.501,26.791 37.54,30.933 C37.543,30.933 37.545,30.932 37.548,30.932 C44.434,31.38 53.066,29.688 56.62,23.583 L57.878,21.542 C57.835,21.188 57.761,20.844 57.701,20.496 C52.294,16.517 44.356,14 35.5,14 C28.977,14 22.952,15.366 18.068,17.675" id="Fill-76" fill="#96A9D6" sketch:type="MSShapeGroup"></path>
            <path d="M50.992,15 C50.95,12.788 49.144,11 46.923,11 C44.99,11 43.411,12.256 42.97,14 L41.539,14 C41.174,14 40.822,14.077 40.501,14.216 C39.551,14.628 39,15.638 39,16.674 L39,17 L51,17 L51,15 L50.992,15" id="Fill-263" fill="#FFFEEE" sketch:type="MSShapeGroup"></path>
            <path d="M34.534,33.08 C33.607,32.312 32.658,31.588 31.712,30.929 L28.868,28.946 L30.428,25.849 C32.251,22.227 36.383,19.888 40.955,19.888 C46.416,19.888 51.037,23.117 52.189,27.741 L53.089,31.354 L49.55,32.51 C46.578,33.481 43.145,33.995 39.623,33.995 C39.07,33.995 38.513,33.982 37.961,33.956 L36.36,34.594 L34.534,33.08" id="Fill-264" fill="#F3D55B" sketch:type="MSShapeGroup"></path>
            <path d="M37.086,30 C37.22,29.947 37.364,29.916 37.518,29.926 C40.962,30.151 44.844,29.84 48.308,28.708 C47.623,25.959 44.592,23.888 40.954,23.888 C37.803,23.888 35.11,25.445 34,27.648 C35.064,28.39 36.094,29.178 37.086,30" id="Fill-265" fill="#F29C1F" sketch:type="MSShapeGroup"></path>
            <path d="M3,0 C1.974,0 0.972,0.151 0,0.427 L0,47.573 C0.972,47.849 1.974,48 3,48 C11.836,48 19,37.255 19,24 C19,10.745 11.836,0 3,0" id="Fill-719" fill="#805333" sketch:type="MSShapeGroup"></path>
            <path d="M5.966,27.834 C5.835,27.35 5.371,27.037 4.869,27.102 C4.372,27.168 4,27.592 4,28.094 L4,47.949 C4.679,47.886 5.346,47.759 6,47.573 L6,32.367 L5.966,27.834" id="Fill-720" fill="#A56F4A" sketch:type="MSShapeGroup"></path>
            <path d="M6,14.374 L6,0.427 C5.346,0.241 4.679,0.114 4,0.051 L4,18.648 C4,19.15 4.372,19.574 4.869,19.639 C4.914,19.645 4.957,19.648 5.001,19.648 C5.447,19.648 5.847,19.349 5.966,18.907 L6,14.374" id="Fill-721" fill="#A56F4A" sketch:type="MSShapeGroup"></path>
            <path d="M12,4.157 C11.365,3.507 10.696,2.925 10,2.415 L10,13.96 L10.066,17.722 C10.238,18.171 10.703,18.432 11.182,18.347 C11.656,18.259 12,17.846 12,17.364 L12,4.157" id="Fill-722" fill="#A56F4A" sketch:type="MSShapeGroup"></path>
            <path d="M12,43.843 L12,29.377 C12,28.896 11.656,28.482 11.182,28.394 C10.709,28.308 10.239,28.569 10.066,29.02 L10,32.781 L10,45.585 C10.696,45.076 11.365,44.493 12,43.843" id="Fill-723" fill="#A56F4A" sketch:type="MSShapeGroup"></path>
            <path d="M13.423,23.629 C13.423,29.909 11.09,35 8.211,35 C5.333,35 3,29.909 3,23.629 C3,17.349 5.333,12.259 8.211,12.259 C11.09,12.259 13.423,17.349 13.423,23.629" id="Fill-724" fill="#4C311E" sketch:type="MSShapeGroup"></path>
            <path d="M57.817,21.504 C53.722,28.538 43.75,30.292 35.843,29.972 C35.202,29.946 34.66,30.411 34.618,31.046 C34.577,31.681 35.058,32.23 35.693,32.271 C36.229,32.306 36.934,32.337 37.756,32.346 C40.859,35.212 43.447,38.345 45.761,41.159 C52.979,37.994 58,31.063 58,23 C58,22.453 57.959,21.915 57.914,21.379 C57.881,21.42 57.844,21.457 57.817,21.504" id="Fill-761" fill="#4AC67C" sketch:type="MSShapeGroup"></path>
            <path d="M47.618,39.402 C41.449,31.922 31.847,21.889 19.73,21.121 C19.393,21.098 19.107,21.25 18.912,21.484 C18.943,21.929 19.017,23.106 19.017,23.106 C19.024,23.406 19.05,23.698 19.05,24 C19.05,26.834 18.72,29.553 18.119,32.077 C21.672,38.799 28.726,43.385 36.858,43.385 C40.231,43.385 43.728,42.388 46.574,40.976 C46.578,40.978 46.583,40.981 46.587,40.982 C46.629,40.96 46.668,40.934 46.709,40.912 C46.735,40.899 46.764,40.887 46.791,40.873 L46.781,40.87 C47.125,40.684 47.463,40.491 47.796,40.288 C47.875,39.988 47.83,39.66 47.618,39.402" id="Fill-767" fill="#24AE5F" sketch:type="MSShapeGroup"></path>
            <path d="M33,16.5 C33,18.985 30.985,21 28.5,21 C26.015,21 24,18.985 24,16.5 C24,14.015 26.015,12 28.5,12 C30.985,12 33,14.015 33,16.5" id="Fill-768" fill="#24AE5F" sketch:type="MSShapeGroup"></path>
            <path d="M29,12.05 L29,20.95 C31.247,20.698 33,18.814 33,16.5 C33,14.186 31.247,12.302 29,12.05" id="Fill-769" fill="#4FBA6F" sketch:type="MSShapeGroup"></path>
            <path d="M30.293,15.293 L29,16.586 L27.707,15.293 L26.293,16.707 L28,18.414 L28,26 L30,26 L30,18.414 L31.707,16.707 L30.293,15.293" id="Fill-770" fill="#CB8252" sketch:type="MSShapeGroup"></path>
            <path d="M28,22 L28,26 L29,26 L29,18 L27,16 L26.293,16.707 L28,18.414 L28,22" id="Fill-771" fill="#805333" sketch:type="MSShapeGroup"></path>
        </g>
    </g>
</svg>