<?xml version="1.0" encoding="UTF-8" standalone="no"?>
<svg width="56px" height="56px" viewBox="0 0 56 56" version="1.1" xmlns="http://www.w3.org/2000/svg" xmlns:xlink="http://www.w3.org/1999/xlink" xmlns:sketch="http://www.bohemiancoding.com/sketch/ns">
    <!-- Generator: Sketch 3.2.2 (9983) - http://www.bohemiancoding.com/sketch -->
    <title>11 - Ticket (Flat)</title>
    <desc>Created with Sketch.</desc>
    <defs></defs>
    <g id="Page-1" stroke="none" stroke-width="1" fill="none" fill-rule="evenodd" sketch:type="MSPage">
        <g id="11---Ticket-(Flat)" sketch:type="MSLayerGroup">
            <path d="M11.557,55.398 L0.338,44.178 C3.443,41.074 3.58,35.962 0.522,32.85 L32.964,0.408 C36.06,3.559 41.013,3.459 44.156,0.316 L55.398,11.557 C52.293,14.662 52.434,20.024 55.492,23.136 L23.05,55.577 C19.954,52.427 14.701,52.255 11.557,55.398" id="Fill-138" fill="#FED070" sketch:type="MSShapeGroup"></path>
            <path d="M46.8,12.859 L42.948,9.007 C41.494,9.475 39.966,9.718 38.406,9.72 C36.949,9.722 35.526,9.511 34.171,9.101 L9.151,34.122 C9.984,36.989 9.937,40.079 9.015,42.956 L12.828,46.769 C14.221,46.35 15.688,46.132 17.19,46.13 C18.788,46.127 20.368,46.38 21.866,46.862 L46.839,21.889 C45.945,18.958 45.932,15.788 46.8,12.859" id="Fill-644" fill="#E5AF51" sketch:type="MSShapeGroup"></path>
            <path d="M18,32 L19.545,35.292 L23,35.82 L20.5,38.382 L21.09,42 L18,40.292 L14.91,42 L15.5,38.382 L13,35.82 L16.455,35.292 L18,32" id="Fill-645" fill="#F9EBB0" sketch:type="MSShapeGroup"></path>
            <path d="M28,22 L29.545,25.292 L33,25.82 L30.5,28.382 L31.09,32 L28,30.292 L24.91,32 L25.5,28.382 L23,25.82 L26.455,25.292 L28,22" id="Fill-646" fill="#F9EBB0" sketch:type="MSShapeGroup"></path>
            <path d="M37,13 L38.545,16.292 L42,16.82 L39.5,19.382 L40.09,23 L37,21.292 L33.91,23 L34.5,19.382 L32,16.82 L35.455,16.292 L37,13" id="Fill-647" fill="#F9EBB0" sketch:type="MSShapeGroup"></path>
            <path d="M33.253,44.253 C32.997,44.253 32.741,44.155 32.546,43.96 L31.839,43.253 C31.448,42.862 31.448,42.23 31.839,41.839 C32.229,41.448 32.862,41.448 33.253,41.839 L33.96,42.546 C34.351,42.937 34.351,43.569 33.96,43.96 C33.765,44.155 33.509,44.253 33.253,44.253 L33.253,44.253 Z M30.425,41.425 C30.169,41.425 29.913,41.327 29.718,41.132 L29.011,40.425 C28.62,40.034 28.62,39.401 29.011,39.011 C29.401,38.62 30.034,38.62 30.425,39.011 L31.132,39.718 C31.522,40.108 31.522,40.741 31.132,41.132 C30.937,41.327 30.681,41.425 30.425,41.425 L30.425,41.425 Z M27.597,38.597 C27.341,38.597 27.085,38.499 26.89,38.304 L26.183,37.597 C25.792,37.206 25.792,36.573 26.183,36.183 C26.573,35.792 27.206,35.792 27.597,36.183 L28.304,36.89 C28.694,37.28 28.694,37.913 28.304,38.304 C28.108,38.499 27.853,38.597 27.597,38.597 L27.597,38.597 Z M24.768,35.768 C24.512,35.768 24.256,35.67 24.061,35.475 L23.354,34.768 C22.963,34.377 22.963,33.744 23.354,33.354 C23.744,32.963 24.377,32.963 24.768,33.354 L25.475,34.061 C25.865,34.451 25.865,35.084 25.475,35.475 C25.279,35.67 25.023,35.768 24.768,35.768 L24.768,35.768 Z M21.939,32.939 C21.684,32.939 21.428,32.842 21.232,32.647 L20.525,31.94 C20.135,31.549 20.135,30.916 20.525,30.525 C20.916,30.135 21.549,30.135 21.939,30.525 L22.646,31.232 C23.037,31.623 23.037,32.256 22.646,32.647 C22.451,32.842 22.195,32.939 21.939,32.939 L21.939,32.939 Z M19.111,30.111 C18.855,30.111 18.6,30.014 18.404,29.818 L17.697,29.111 C17.307,28.721 17.307,28.088 17.697,27.697 C18.088,27.307 18.721,27.307 19.111,27.697 L19.818,28.404 C20.209,28.795 20.209,29.428 19.818,29.818 C19.623,30.014 19.367,30.111 19.111,30.111 L19.111,30.111 Z M16.282,27.282 C16.026,27.282 15.771,27.185 15.575,26.989 L14.868,26.282 C14.478,25.892 14.478,25.259 14.868,24.868 C15.259,24.478 15.892,24.478 16.282,24.868 L16.989,25.575 C17.38,25.966 17.38,26.599 16.989,26.989 C16.794,27.185 16.538,27.282 16.282,27.282 L16.282,27.282 Z M13.454,24.454 C13.198,24.454 12.942,24.356 12.747,24.161 L12.04,23.454 C11.649,23.064 11.649,22.431 12.04,22.04 C12.431,21.649 13.063,21.649 13.454,22.04 L14.161,22.747 C14.552,23.138 14.552,23.771 14.161,24.161 C13.966,24.356 13.71,24.454 13.454,24.454 L13.454,24.454 Z" id="Fill-648" fill="#BA8942" sketch:type="MSShapeGroup"></path>
        </g>
    </g>
</svg>