<?xml version="1.0" encoding="UTF-8" standalone="no"?>
<svg width="58px" height="59px" viewBox="0 0 58 59" version="1.1" xmlns="http://www.w3.org/2000/svg" xmlns:xlink="http://www.w3.org/1999/xlink" xmlns:sketch="http://www.bohemiancoding.com/sketch/ns">
    <!-- Generator: Sketch 3.2.2 (9983) - http://www.bohemiancoding.com/sketch -->
    <title>78 - Titanic (Flat)</title>
    <desc>Created with Sketch.</desc>
    <defs></defs>
    <g id="Page-1" stroke="none" stroke-width="1" fill="none" fill-rule="evenodd" sketch:type="MSPage">
        <g id="78---Titanic-(Flat)" sketch:type="MSLayerGroup">
            <path d="M9,29 L21,48.732 C26.875,46.076 28,51.732 28,51.732 L28,18 L9,29" id="Fill-79" fill="#E64C3C" sketch:type="MSShapeGroup"></path>
            <path d="M28,11 L8,22 L9,29 L28,18 L28,11" id="Fill-80" fill="#95A5A5" sketch:type="MSShapeGroup"></path>
            <path d="M34,48.732 L47,29 L28,18 L28,51.732 C29.375,45.92 33.598,48.597 34,48.732" id="Fill-81" fill="#AD382F" sketch:type="MSShapeGroup"></path>
            <path d="M47,29 L48,22 L28,11 L28,18 L47,29" id="Fill-82" fill="#5C6B6B" sketch:type="MSShapeGroup"></path>
            <path d="M17.65,32.002 C17.65,33.554 18.263,34.668 19.062,34.934 C19.915,35.218 21.138,34.585 22.014,33.009 C23.477,30.376 23.428,26.463 21.079,26.463 C19.073,26.463 17.65,29.612 17.65,32.002" id="Fill-165" fill="#543521" sketch:type="MSShapeGroup"></path>
            <path d="M38,32.002 C38,29.612 36.577,26.463 34.571,26.463 C32.222,26.463 32.174,30.376 33.636,33.009 C34.04,33.736 34.519,34.253 35,34.582 L35,38 C35,38.552 35.448,39 36,39 C36.552,39 37,38.552 37,38 L37,34.698 C37.587,34.239 38,33.272 38,32.002" id="Fill-168" fill="#543521" sketch:type="MSShapeGroup"></path>
            <path d="M28,11 L37,15.95 L37,8 L19,8 L19,15.95 L28,11" id="Fill-223" fill="#ECF0F1" sketch:type="MSShapeGroup"></path>
            <path d="M20,9 L22,9 L22,11 L20,11 L20,9 Z" id="Fill-743" fill="#BDC3C7" sketch:type="MSShapeGroup"></path>
            <path d="M24,9 L26,9 L26,11 L24,11 L24,9 Z" id="Fill-744" fill="#BDC3C7" sketch:type="MSShapeGroup"></path>
            <path d="M30,9 L32,9 L32,11 L30,11 L30,9 Z" id="Fill-745" fill="#BDC3C7" sketch:type="MSShapeGroup"></path>
            <path d="M34,9 L36,9 L36,11 L34,11 L34,9 Z" id="Fill-746" fill="#BDC3C7" sketch:type="MSShapeGroup"></path>
            <path d="M20,12 L22,12 L22,14 L20,14 L20,12 Z" id="Fill-747" fill="#BDC3C7" sketch:type="MSShapeGroup"></path>
            <path d="M34,12 L36,12 L36,14 L34,14 L34,12 Z" id="Fill-748" fill="#BDC3C7" sketch:type="MSShapeGroup"></path>
            <path d="M58,59 L58,46.896 L57.989,46.899 C57.976,46.624 57.859,46.356 57.629,46.17 C57.198,45.82 56.568,45.89 56.223,46.318 C55.347,47.402 54.202,47.999 53,47.999 C51.798,47.999 50.653,47.402 49.777,46.318 C48.515,44.756 46.818,43.896 45,43.896 C43.182,43.896 41.485,44.756 40.223,46.318 C39.347,47.402 38.202,48 37,48 C35.798,48 34.653,47.402 33.777,46.318 C32.515,44.756 30.818,43.896 29,43.896 C27.182,43.896 25.485,44.756 24.223,46.318 C23.347,47.402 22.202,48 21,48 C19.798,48 18.653,47.402 17.777,46.318 C16.515,44.756 14.818,43.896 13,43.896 C11.182,43.896 9.485,44.756 8.223,46.318 C7.347,47.402 6.202,48 5,48 C3.798,48 2.653,47.402 1.777,46.318 C1.431,45.89 0.802,45.82 0.371,46.17 C0.141,46.356 0.024,46.624 0.011,46.899 L0,46.896 L0,59 L58,59" id="Fill-749" fill="#67B9CC" sketch:type="MSShapeGroup"></path>
            <path d="M56.223,53.318 C55.347,54.402 54.202,54.999 53,54.999 C51.798,54.999 50.653,54.402 49.777,53.318 C48.515,51.756 46.818,50.896 45,50.896 C43.182,50.896 41.485,51.756 40.223,53.318 C39.347,54.402 38.202,55 37,55 C35.798,55 34.653,54.402 33.777,53.318 C32.515,51.756 30.818,50.896 29,50.896 C27.182,50.896 25.485,51.756 24.223,53.318 C23.347,54.402 22.202,55 21,55 C19.798,55 18.653,54.402 17.777,53.318 C16.515,51.756 14.818,50.896 13,50.896 C11.182,50.896 9.485,51.756 8.223,53.318 C7.347,54.402 6.202,55 5,55 C3.798,55 2.653,54.402 1.777,53.318 C1.431,52.89 0.802,52.82 0.371,53.17 C-0.058,53.517 -0.125,54.147 0.223,54.576 C1.485,56.139 3.182,57 5,57 C6.818,57 8.515,56.139 9.777,54.576 C10.653,53.492 11.798,52.896 13,52.896 C14.202,52.896 15.347,53.492 16.223,54.576 C17.485,56.139 19.182,57 21,57 C22.818,57 24.515,56.139 25.777,54.576 C26.653,53.492 27.798,52.896 29,52.896 C30.202,52.896 31.347,53.492 32.223,54.576 C33.485,56.139 35.182,57 37,57 C38.818,57 40.515,56.139 41.777,54.576 C42.653,53.492 43.798,52.896 45,52.896 C46.202,52.896 47.347,53.492 48.223,54.576 C49.485,56.139 51.182,56.999 53,56.999 C54.818,56.999 56.515,56.139 57.777,54.576 C58.125,54.147 58.058,53.517 57.629,53.17 C57.198,52.82 56.568,52.89 56.223,53.318" id="Fill-750" fill="#0096E6" sketch:type="MSShapeGroup"></path>
            <path d="M5,50 C6.818,50 8.515,49.139 9.777,47.576 C10.653,46.492 11.798,45.896 13,45.896 C14.202,45.896 15.347,46.492 16.223,47.576 C17.485,49.139 19.182,50 21,50 C22.818,50 24.515,49.139 25.777,47.576 C26.653,46.492 27.798,45.896 29,45.896 C30.202,45.896 31.347,46.492 32.223,47.576 C33.485,49.139 35.182,50 37,50 C38.818,50 40.515,49.139 41.777,47.576 C42.653,46.492 43.798,45.896 45,45.896 C46.202,45.896 47.347,46.492 48.223,47.576 C49.485,49.139 51.182,49.999 53,49.999 C54.818,49.999 56.515,49.139 57.777,47.576 C58.125,47.147 58.058,46.517 57.629,46.17 C57.198,45.82 56.568,45.89 56.223,46.318 C55.347,47.402 54.202,47.999 53,47.999 C51.798,47.999 50.653,47.402 49.777,46.318 C48.515,44.756 46.818,43.896 45,43.896 C43.182,43.896 41.485,44.756 40.223,46.318 C39.347,47.402 38.202,48 37,48 C35.798,48 34.653,47.402 33.777,46.318 C32.515,44.756 30.818,43.896 29,43.896 C27.182,43.896 25.485,44.756 24.223,46.318 C23.347,47.402 22.202,48 21,48 C19.798,48 18.653,47.402 17.777,46.318 C16.515,44.756 14.818,43.896 13,43.896 C11.182,43.896 9.485,44.756 8.223,46.318 C7.347,47.402 6.202,48 5,48 C3.798,48 2.653,47.402 1.777,46.318 C1.431,45.89 0.802,45.82 0.371,46.17 C-0.058,46.517 -0.125,47.147 0.223,47.576 C1.485,49.139 3.182,50 5,50" id="Fill-751" fill="#0096E6" sketch:type="MSShapeGroup"></path>
            <path d="M25,0 L28,0 L28,3 L25,3 L25,0 Z" id="Fill-752" fill="#556080" sketch:type="MSShapeGroup"></path>
            <path d="M25,3 L28,3 L28,8 L25,8 L25,3 Z" id="Fill-753" fill="#F3D55B" sketch:type="MSShapeGroup"></path>
            <path d="M28,0 L31,0 L31,3 L28,3 L28,0 Z" id="Fill-754" fill="#464F5D" sketch:type="MSShapeGroup"></path>
            <path d="M28,3 L31,3 L31,8 L28,8 L28,3 Z" id="Fill-755" fill="#E0B200" sketch:type="MSShapeGroup"></path>
        </g>
    </g>
</svg>