<?xml version="1.0" encoding="UTF-8" standalone="no"?>
<svg width="58px" height="58px" viewBox="0 0 58 58" version="1.1" xmlns="http://www.w3.org/2000/svg" xmlns:xlink="http://www.w3.org/1999/xlink" xmlns:sketch="http://www.bohemiancoding.com/sketch/ns">
    <!-- Generator: Sketch 3.2.2 (9983) - http://www.bohemiancoding.com/sketch -->
    <title>53 - TMNT (Flat)</title>
    <desc>Created with Sketch.</desc>
    <defs></defs>
    <g id="Page-1" stroke="none" stroke-width="1" fill="none" fill-rule="evenodd" sketch:type="MSPage">
        <g id="53---TMNT-(Flat)" sketch:type="MSLayerGroup">
            <path d="M50.763,15 C50.791,15 50.817,15.008 50.845,15.008 C49.568,6.559 40.278,0 29,0 C21.537,0 14.961,2.882 10.985,7.274 C11.033,8.877 10.707,10.485 10.026,11.971 C10.316,12.93 10.475,13.946 10.475,15 C9.682,15 7.182,14.834 7.155,15.008 C7.183,15.008 7.209,15 7.237,15 C4.897,15 3,16.897 3,19.237 L3,34 L3.086,34 C5.333,31.667 8.625,30.231 12.384,29.673 C13.641,24.984 17.928,22 23,22 L33,22 C38.011,22 42.258,24.9 43.572,29.504 C48.22,29.527 52.358,31.091 55,33.969 L55,19.237 C55,16.897 53.103,15 50.763,15" id="Fill-97" fill="#24AE5F" sketch:type="MSShapeGroup"></path>
            <path d="M50.763,15 L45,15 L45,14 C45,10.15 41.85,7 38,7 C34.15,7 31,10.15 31,14 L31,15 L26,15 L26,14 C26,10.15 22.85,7 19,7 C15.15,7 12,10.15 12,14 L12,15 L11.332,15 C11.259,14.552 11.165,14.111 11.036,13.684 C12.787,9.886 12.155,5.259 9.116,2.073 C9.023,1.976 8.858,1.976 8.765,2.073 C7.28,3.63 6.374,5.534 6.033,7.516 C4.541,6.699 2.83,6.232 1.008,6.232 C1.008,10.032 3.038,13.348 6.065,15.185 C4.299,15.696 3,17.306 3,19.237 L3,34 L3.086,34 C5.333,31.667 8.625,30.231 12.384,29.673 C13.641,24.984 17.928,22 23,22 L33,22 C38.011,22 42.258,24.9 43.572,29.504 C48.22,29.527 52.358,31.091 55,33.969 L55,19.237 C55,16.897 53.103,15 50.763,15" id="Fill-98" fill="#FFDE28" sketch:type="MSShapeGroup"></path>
            <path d="M43.572,29.504 C42.258,24.9 38.011,22 33,22 L23,22 C17.928,22 13.641,24.984 12.384,29.673 C5.405,30.708 0,34.745 0,42 C0,49.975 6.525,52 14.5,52 L17.026,52 C17.286,55.893 20.544,58 24.5,58 L33.5,58 C37.456,58 40.714,55.893 40.974,52 L43.5,52 C51.475,52 58,49.975 58,42 C58,34.049 51.514,29.543 43.572,29.504" id="Fill-151" fill="#71C285" sketch:type="MSShapeGroup"></path>
            <path d="M38,20 L38,20 C35.8,20 34,18.2 34,16 L34,14 C34,11.8 35.8,10 38,10 C40.2,10 42,11.8 42,14 L42,16 C42,18.2 40.2,20 38,20" id="Fill-396" fill="#FFFFFF" sketch:type="MSShapeGroup"></path>
            <path d="M38,18 L37.076,18 C35.976,18 35.076,17.1 35.076,16 L35.076,15.076 C35.076,13.976 35.976,13.076 37.076,13.076 L38,13.076 C39.1,13.076 40,13.976 40,15.076 L40,16 C40,17.1 39.1,18 38,18" id="Fill-397" fill="#805333" sketch:type="MSShapeGroup"></path>
            <path d="M19,10 L19,10 C21.2,10 23,11.8 23,14 L23,16 C23,18.2 21.2,20 19,20 C16.8,20 15,18.2 15,16 L15,14 C15,11.8 16.8,10 19,10" id="Fill-398" fill="#FFFFFF" sketch:type="MSShapeGroup"></path>
            <path d="M19,13.076 L19.924,13.076 C21.024,13.076 21.924,13.976 21.924,15.076 L21.924,16 C21.924,17.1 21.024,18 19.924,18 L19,18 C17.9,18 17,17.1 17,16 L17,15.076 C17,13.976 17.9,13.076 19,13.076" id="Fill-399" fill="#805333" sketch:type="MSShapeGroup"></path>
            <path d="M50.707,39.293 C50.316,38.902 49.684,38.902 49.293,39.293 L45.586,43 L13.414,43 L9.707,39.293 C9.316,38.902 8.684,38.902 8.293,39.293 C7.902,39.684 7.902,40.316 8.293,40.707 L12.586,45 L20,45 L20,46 C20,48.2 21.8,50 24,50 L34,50 C36.2,50 38,48.2 38,46 L38,45 L46.414,45 L50.707,40.707 C51.098,40.316 51.098,39.684 50.707,39.293" id="Fill-729" fill="#527F72" sketch:type="MSShapeGroup"></path>
        </g>
    </g>
</svg>