<?xml version="1.0" encoding="UTF-8" standalone="no"?>
<svg width="50px" height="56px" viewBox="0 0 50 56" version="1.1" xmlns="http://www.w3.org/2000/svg" xmlns:xlink="http://www.w3.org/1999/xlink" xmlns:sketch="http://www.bohemiancoding.com/sketch/ns">
    <!-- Generator: Sketch 3.2.2 (9983) - http://www.bohemiancoding.com/sketch -->
    <title>71 - UP (Flat)</title>
    <desc>Created with Sketch.</desc>
    <defs></defs>
    <g id="Page-1" stroke="none" stroke-width="1" fill="none" fill-rule="evenodd" sketch:type="MSPage">
        <g id="71---UP-(Flat)" sketch:type="MSLayerGroup">
            <path d="M33.098,0.588 C29.044,0.588 25.567,3.004 24,6.472 C24.72,7.401 25.286,8.457 25.645,9.605 C25.795,9.599 25.945,9.588 26.098,9.588 C29.094,9.588 31.775,10.913 33.608,13 C35.353,11.501 37.615,10.588 40.098,10.588 C41.135,10.588 42.135,10.746 43.075,11.039 C43.082,10.889 43.098,10.74 43.098,10.588 C43.098,5.065 38.62,0.588 33.098,0.588" id="Fill-121" fill="#6F9724" sketch:type="MSShapeGroup"></path>
            <path d="M39.819,35.591 C40.136,35.139 40.026,34.516 39.573,34.199 C39.12,33.882 38.497,33.992 38.181,34.445 L27.524,49.668 L30.964,37.286 C31.111,36.753 30.8,36.202 30.268,36.055 C29.736,35.906 29.185,36.218 29.036,36.75 L26,47.681 L26,33 C26,32.448 25.553,32 25,32 C24.447,32 24,32.448 24,33 L24,47.681 L20.964,36.75 C20.815,36.218 20.265,35.906 19.732,36.055 C19.2,36.202 18.889,36.753 19.036,37.286 L22.476,49.668 L11.819,34.445 C11.503,33.992 10.877,33.882 10.427,34.199 C9.974,34.516 9.864,35.139 10.181,35.591 L24.176,55.584 C24.177,55.586 24.178,55.588 24.179,55.589 L24.181,55.591 C24.182,55.593 24.183,55.593 24.184,55.594 C24.203,55.621 24.23,55.64 24.252,55.665 C24.281,55.698 24.308,55.728 24.34,55.757 C24.358,55.773 24.37,55.793 24.389,55.807 C24.398,55.814 24.408,55.821 24.417,55.828 C24.421,55.83 24.423,55.835 24.427,55.837 C24.453,55.856 24.483,55.863 24.51,55.878 C24.533,55.891 24.553,55.905 24.576,55.917 C24.599,55.927 24.619,55.937 24.643,55.946 C24.66,55.953 24.676,55.963 24.693,55.968 C24.703,55.971 24.713,55.973 24.722,55.976 C24.726,55.977 24.729,55.98 24.732,55.981 C24.818,56.005 24.904,56.016 24.989,56.017 C24.992,56.017 24.995,56.019 24.999,56.019 L25.001,56.019 C25.004,56.019 25.008,56.017 25.011,56.017 C25.096,56.016 25.182,56.005 25.268,55.981 C25.271,55.98 25.274,55.977 25.278,55.976 C25.288,55.974 25.297,55.971 25.307,55.968 C25.325,55.963 25.34,55.953 25.358,55.946 C25.381,55.937 25.401,55.927 25.424,55.917 C25.447,55.906 25.467,55.891 25.49,55.878 C25.517,55.863 25.547,55.856 25.573,55.837 C25.577,55.835 25.579,55.83 25.583,55.828 C25.592,55.821 25.602,55.814 25.611,55.807 C25.63,55.793 25.642,55.773 25.66,55.757 C25.692,55.729 25.719,55.698 25.748,55.665 C25.77,55.64 25.797,55.621 25.817,55.594 C25.817,55.593 25.819,55.592 25.819,55.591 L25.821,55.59 C25.822,55.588 25.823,55.586 25.824,55.584 L39.819,35.591" id="Fill-496" fill="#D1D4D1" sketch:type="MSShapeGroup"></path>
            <path d="M27,30 C27,35.523 22.523,40 17,40 C11.477,40 7,35.523 7,30 C7,24.477 11.477,20 17,20 C22.523,20 27,24.477 27,30" id="Fill-689" fill="#2980BA" sketch:type="MSShapeGroup"></path>
            <path d="M6,12 C6,11.593 6.031,11.194 6.079,10.8 C2.505,12.325 0,15.869 0,20 C0,24.486 2.954,28.282 7.023,29.549 C7.183,25.966 9.227,22.878 12.187,21.243 C8.556,19.744 6,16.172 6,12" id="Fill-690" fill="#6F5EA4" sketch:type="MSShapeGroup"></path>
            <path d="M33,20 C34.004,20 34.973,20.152 35.887,20.427 C35.954,19.96 36,19.486 36,19 C36,13.477 31.523,9 26,9 C20.477,9 16,13.477 16,19 C16,19.354 16.02,19.703 16.055,20.048 C16.367,20.019 16.681,20 17,20 C20.276,20 23.18,21.579 25.004,24.014 C26.828,21.581 29.726,20 33,20" id="Fill-691" fill="#DF8500" sketch:type="MSShapeGroup"></path>
            <path d="M12.179,21.24 C13.348,20.595 14.66,20.179 16.055,20.048 C16.02,19.703 16,19.354 16,19 C16,13.629 20.237,9.26 25.549,9.023 C24.282,4.954 20.486,2 16,2 C10.477,2 6,6.477 6,12 C6,16.169 8.552,19.739 12.179,21.24" id="Fill-692" fill="#F3D55B" sketch:type="MSShapeGroup"></path>
            <path d="M40,10 C37.518,10 35.252,10.909 33.505,12.406 C35.053,14.167 36,16.47 36,19 C36,19.485 35.955,19.958 35.888,20.424 C39.86,21.623 42.784,25.231 42.977,29.549 C47.046,28.282 50,24.486 50,20 C50,14.477 45.523,10 40,10" id="Fill-693" fill="#DF6887" sketch:type="MSShapeGroup"></path>
            <path d="M33,20 C29.723,20 26.824,21.583 25,24.018 C26.25,25.688 27,27.754 27,30 C27,32.246 26.25,34.312 25,35.982 C26.824,38.417 29.723,40 33,40 C38.523,40 43,35.523 43,30 C43,24.477 38.523,20 33,20" id="Fill-694" fill="#E64C3C" sketch:type="MSShapeGroup"></path>
        </g>
    </g>
</svg>