<?xml version="1.0" encoding="UTF-8" standalone="no"?>
<svg width="46px" height="58px" viewBox="0 0 46 58" version="1.1" xmlns="http://www.w3.org/2000/svg" xmlns:xlink="http://www.w3.org/1999/xlink" xmlns:sketch="http://www.bohemiancoding.com/sketch/ns">
    <!-- Generator: Sketch 3.2.2 (9983) - http://www.bohemiancoding.com/sketch -->
    <title>35 - V for Vendetta (Flat)</title>
    <desc>Created with Sketch.</desc>
    <defs></defs>
    <g id="Page-1" stroke="none" stroke-width="1" fill="none" fill-rule="evenodd" sketch:type="MSPage">
        <g id="35---V-for-Vendetta-(Flat)" sketch:type="MSLayerGroup">
            <path d="M41.491,4.166 C39.138,0.316 29.969,0.363 25.983,0.161 C22.993,0.01 20,0.085 17.018,0.358 C11.648,0.85 5.45,1.178 3.003,6.581 C0.831,11.375 0.766,16.092 1.037,21.241 C1.357,27.335 0.897,36.004 4.169,41.365 C8.243,48.039 14.941,56.788 22.917,57.986 C31.466,56.718 41.562,45.651 43.234,37.117 C45.18,27.181 46.956,13.108 41.491,4.166" id="Fill-378" fill="#ECF0F1" sketch:type="MSShapeGroup"></path>
            <path d="M27,14 C27,12.895 33.75,5.75 40,10 M19,14 C19,12.895 12.25,5.75 6,10" id="Stroke-379" stroke="#5E5F62" stroke-width="2" stroke-linecap="round" stroke-linejoin="round" sketch:type="MSShapeGroup"></path>
            <path d="M24.5,53.125 C24.5,55.817 23.828,58 23,58 C22.172,58 21.5,55.817 21.5,53.125 C21.5,50.433 22.172,48.25 23,48.25 C23.828,48.25 24.5,50.433 24.5,53.125" id="Fill-380" fill="#5E5F62" sketch:type="MSShapeGroup"></path>
            <path d="M15.446,16.256 C15.446,16.256 20.516,17.085 20.772,21.766 C20.837,22.961 20.619,24.149 20.253,25.288 C19.7,27.009 17.962,29.962 19,31" id="Stroke-381" stroke="#D1D4D1" stroke-width="2" stroke-linecap="round" sketch:type="MSShapeGroup"></path>
            <path d="M11,41.333 C11,41.333 23.937,47.333 35,41.333" id="Stroke-382" stroke="#D1D4D1" stroke-width="2" stroke-linecap="round" stroke-linejoin="round" sketch:type="MSShapeGroup"></path>
            <path d="M7,32 C7,33.106 14.458,42.792 23,34 M39,32 C39,33.106 32.542,42.792 24,34" id="Stroke-859" stroke="#5E5F62" stroke-width="2" stroke-linecap="round" stroke-linejoin="round" sketch:type="MSShapeGroup"></path>
            <path d="M17.79,33.611 C17.79,33.611 13.79,27.736 23.79,33.611 M29.79,33.611 C29.79,33.611 33.79,27.736 23.79,33.611" id="Stroke-860" stroke="#5E5F62" stroke-width="2" stroke-linecap="round" sketch:type="MSShapeGroup"></path>
            <path d="M18,18 C18,19.105 15.761,20 13,20 C10.239,20 8,19.105 8,18 C8,16.895 10.239,16 13,16 C15.761,16 18,16.895 18,18 L18,18 Z" id="Fill-861" fill="#5E5F62" sketch:type="MSShapeGroup"></path>
            <path d="M18,18 C18,19.105 15.761,20 13,20 C10.239,20 8,19.105 8,18 C8,16.895 10.239,16 13,16 C15.761,16 18,16.895 18,18 L18,18 Z" id="Stroke-862" stroke="#5E5F62" stroke-width="2" stroke-linecap="round" stroke-linejoin="round" sketch:type="MSShapeGroup"></path>
            <path d="M38,18 C38,19.105 35.761,20 33,20 C30.239,20 28,19.105 28,18 C28,16.895 30.239,16 33,16 C35.761,16 38,16.895 38,18 L38,18 Z" id="Fill-863" fill="#5E5F62" sketch:type="MSShapeGroup"></path>
            <path d="M38,18 C38,19.105 35.761,20 33,20 C30.239,20 28,19.105 28,18 C28,16.895 30.239,16 33,16 C35.761,16 38,16.895 38,18 L38,18 Z" id="Stroke-864" stroke="#5E5F62" stroke-width="2" stroke-linecap="round" stroke-linejoin="round" sketch:type="MSShapeGroup"></path>
        </g>
    </g>
</svg>