<?xml version="1.0" encoding="UTF-8" standalone="no"?>
<svg width="58px" height="58px" viewBox="0 0 58 58" version="1.1" xmlns="http://www.w3.org/2000/svg" xmlns:xlink="http://www.w3.org/1999/xlink" xmlns:sketch="http://www.bohemiancoding.com/sketch/ns">
    <!-- Generator: Sketch 3.2.2 (9983) - http://www.bohemiancoding.com/sketch -->
    <title>13 - Waiting Line (Flat)</title>
    <desc>Created with Sketch.</desc>
    <defs></defs>
    <g id="Page-1" stroke="none" stroke-width="1" fill="none" fill-rule="evenodd" sketch:type="MSPage">
        <g id="13---Waiting-Line-(Flat)" sketch:type="MSLayerGroup">
            <path d="M11,53 L11,48 L4,48 L4,53 L2,53 L2,58 L13,58 L13,53 L11,53" id="Fill-553" fill="#BF9D49" sketch:type="MSShapeGroup"></path>
            <path d="M15,7.5 C15,11.642 11.642,15 7.5,15 C3.358,15 0,11.642 0,7.5 C0,3.358 3.358,0 7.5,0 C11.642,0 15,3.358 15,7.5" id="Fill-554" fill="#F3D55B" sketch:type="MSShapeGroup"></path>
            <path d="M54,53 L54,48 L47,48 L47,53 L45,53 L45,58 L56,58 L56,53 L54,53" id="Fill-555" fill="#BF9D49" sketch:type="MSShapeGroup"></path>
            <path d="M58,7.5 C58,11.642 54.642,15 50.5,15 C46.358,15 43,11.642 43,7.5 C43,3.358 46.358,0 50.5,0 C54.642,0 58,3.358 58,7.5" id="Fill-556" fill="#F3D55B" sketch:type="MSShapeGroup"></path>
            <path d="M7.5,15 C6.622,15 5.783,14.841 5,14.564 L5,48 L10,48 L10,14.564 C9.217,14.841 8.378,15 7.5,15" id="Fill-557" fill="#F0C419" sketch:type="MSShapeGroup"></path>
            <path d="M50.5,15 C49.622,15 48.783,14.841 48,14.564 L48,48 L53,48 L53,14.564 C52.217,14.841 51.378,15 50.5,15" id="Fill-558" fill="#F0C419" sketch:type="MSShapeGroup"></path>
            <path d="M9,6.5 C9,7.881 7.881,9 6.5,9 C5.119,9 4,7.881 4,6.5 C4,5.119 5.119,4 6.5,4 C7.881,4 9,5.119 9,6.5" id="Fill-911" fill="#F9EBB0" sketch:type="MSShapeGroup"></path>
            <path d="M51,6.5 C51,7.881 49.881,9 48.5,9 C47.119,9 46,7.881 46,6.5 C46,5.119 47.119,4 48.5,4 C49.881,4 51,5.119 51,6.5" id="Fill-912" fill="#F9EBB0" sketch:type="MSShapeGroup"></path>
            <path d="M5,22.861 L5,27.035 C10.407,28.294 19.684,30 29.792,30 C35.729,30 44.898,29.408 53,27.794 L53,23.678 C32.075,28.435 11.927,24.535 5,22.861" id="Fill-913" fill="#CC4B4C" sketch:type="MSShapeGroup"></path>
        </g>
    </g>
</svg>